<?xml version="1.0" encoding="utf-8"?>
<!-- Generator: Adobe Illustrator 26.0.3, SVG Export Plug-In . SVG Version: 6.00 Build 0)  -->
<svg version="1.1" id="Layer_1" xmlns="http://www.w3.org/2000/svg" xmlns:xlink="http://www.w3.org/1999/xlink" x="0px" y="0px"
	 viewBox="0 0 3839 658.2" style="enable-background:new 0 0 3839 658.2;" xml:space="preserve">
<style type="text/css">
	.st0{fill:#FFFFFF;}
	.st1{fill:#E31E26;}
	.st2{fill:#30308F;}
	.st3{fill:#C6C6C6;}
</style>
<g>
	<g>
		<polygon class="st2" points="1852.6,12.9 2183,12.9 2170.5,102 1930.2,102 1905.5,278.3 2117.5,278.3 2105,367.5 1893,367.5 
			1867,553.4 2183.3,553.4 2170.8,642.5 1764.5,642.5 		"/>
		<polygon class="st2" points="3839,12.9 3727.5,12.9 3562.7,232.4 3445.2,12.9 3344,12.9 3509.2,321.3 3464.3,642.1 3554.4,642.1 
			3597.3,334.9 		"/>
		<polygon class="st2" points="1368.7,657.3 1600.2,218.2 1616.9,642.5 1708.6,642.5 1683.8,12.9 1605,12.9 1400,401.6 1304.4,12.9 
			1225.9,12.9 1020.5,642.5 1112.9,642.5 1256.7,202 		"/>
		<path class="st2" d="M3140.9,0c-174.4,0-276.7,162.2-299.5,325.5c-24.8,177.1,25.4,332.7,200.4,332.7
			c212.5,0,284.2-217.8,300.3-332.7C3376.1,82.2,3233.9,0,3140.9,0z M3253.7,313.2c-3.3,23.7-17.6,105.9-62.1,171.8
			c-38.7,57.3-86.3,84-149.9,84c-49.5,0-70.3-17.3-81.7-30.3c-31.5-36.2-42.8-111.2-30.3-200.7c12.9-92.3,71.9-248.6,211.1-248.6
			c21.9,0,54.1,10.1,78.7,38.3C3253.4,166.5,3265.2,230.6,3253.7,313.2z"/>
		<path class="st2" d="M451,585c-28.7,20.1-55.3,35.2-80.3,45.6c-39.1,16.2-69,18.7-88.9,18.7c-5,0-9.4-0.2-13.2-0.3
			c-1.3,0-3.2-0.1-3.8-0.1c-0.1,0-0.3,0-0.4,0c-104.5,0-166.4-45.8-199.8-84.3C13.1,505.5-9.2,419.4,3.5,328.5
			c9.6-69,34.2-129.2,73-179.1c32.4-41.6,74.2-75.3,124.3-100.3C289.7,5,380.3,1.6,405.9,1.6c61.5,0,107.2,6.8,125.3,10l-12.5,89.3
			c-9.8-1.8-52.7-9.2-112.8-9.2c-54.8,0-281,19-313.3,249.3c-15,107.1,32.6,218,172.2,217.8c18.4,0,46.2,5.9,103.8-27.6l12.8-91.7
			h-94.2l12.3-87.9h184.3L451,585z"/>
		<path class="st2" d="M868.7,12.9h-79.4L501.7,642.5h96.7L676.7,471h180.6l29.1,171.6h89.2L868.7,12.9z M716.8,383.1l91.5-200.3
			l34,200.3H716.8z"/>
		<path class="st2" d="M2709.4,309.7c-4.9-4.3-10-8.4-15.2-12.2c34.5-33.7,53.6-79.7,53.7-129.8c0.1-60-23.7-96.5-43.7-116.5
			c-19.9-20-56.2-42.9-115.9-42.9h-97l0,0h-35l-88.7,634.2h32.9l0,0H2595l0,0c51,0,100.1-22.6,134.6-63.6
			c29.6-35.2,46.6-80.8,46.6-125.1C2776.4,399,2752.6,347.8,2709.4,309.7z M2533.9,97.5h54.4l0,0c33.4,0,69.7,11.6,69.5,70
			c-0.1,54.5-41.5,91.6-93.6,91.6l0,0h-52.9L2533.9,97.5z M2595.2,553.5L2595.2,553.5h-125l28.7-205.1h84.3
			c42.3,1.1,103.2,42.7,103.2,105.7C2686.4,500.1,2648.9,553.4,2595.2,553.5z"/>
	</g>
</g>
</svg>
