<svg enable-background="new 0 0 3839 658.2" version="1.1" viewBox="0 0 3839 658.2" xml:space="preserve" xmlns="http://www.w3.org/2000/svg">
<path class="st2" d="m3140.9004 0c-174.3998 0-276.7 162.20016-299.5 325.5-24.8 177.09982 25.4006 332.69922 200.4004 332.69922 212.4998 0 284.1988-217.79933 300.2988-332.69922 34-243.299757-108.1993-325.5-201.1992-325.5zm-2735.00001 1.5996094c-25.59997 0-116.1997 3.4000441-205.09961 47.4999996-50.09995 24.999975-91.90081 58.700821-124.30078 100.300781-38.799961 49.89995-63.40001 110.09968-73 179.09961-12.6999873 90.89991 9.599661 176.99967 61.099609 236.09961 33.399967 38.49996 95.300891 84.30078 199.800781 84.30078h0.40039c0.6 0 2.49883 0.09961 3.79883 0.09961 3.8 0.1 8.20118 0.30078 13.20117 0.30078 19.89998 0 49.79848-2.50119 88.89844-18.70117 24.99997-10.39999 51.60081-25.49963 80.30078-45.59961l32.80078-233.40039h-184.30078l-12.30078 87.90039h94.20117l-12.80078 91.69922c-57.59994 33.49997-85.39885 27.60156-103.79883 27.60156-139.59986 0.2-187.201156-110.70089-172.201171-217.80078 32.299971-230.29977 258.500841-249.300781 313.300781-249.300781 60.09994 0 102.99884 7.401173 112.79883 9.201171l12.5-89.300781c-18.09998-3.1999964-63.79889-9.9999996-125.29883-9.9999996zm2050.40041 6.7011718-88.7012 634.1992188h32.9004 194.5c50.9999 0 100.0996-22.59965 134.5996-63.59961 29.6-35.19996 46.5996-80.79965 46.5996-125.09961 0.2-54.79994-23.5989-106.0016-66.7988-144.10156-4.9-4.3-10.0012-8.39922-15.2012-12.19922 34.5-33.69997 53.6012-79.70083 53.7012-129.80078 0.1-59.99994-23.7012-96.500021-43.7012-116.500001-19.9-19.99998-56.1985-42.8984378-115.8984-42.8984378h-97-35zm-1667.00002 4.5996098-287.60156 629.599609h96.70117l78.29883-171.5h180.60156l29.09961 171.59961h89.19922l-106.90039-629.699219h-79.39844zm436.59962 0-205.4004 629.599609h92.4004l143.7988-440.5 112 455.30078 231.5-439.10156 16.7012 424.30078h91.6992l-24.7988-629.599609h-78.8008l-205 388.699219-95.5996-388.699219h-78.5zm626.6992 0-88.0996 629.599609h406.3008l12.5-89.09961h-316.3008l26-185.90039h212l12.5-89.19922h-212l24.6992-176.30078h240.3008l12.5-89.099609h-330.4004zm1491.4004 0 165.1992 308.400389-44.8984 320.79883h90.0996l42.9004-307.19922 241.6992-321.999999h-111.5l-164.8008 219.499999-117.5-219.499999h-101.1992zm-203.1992 76.5c21.9 0 54.0992 10.098856 78.6992 38.298829 33.9 38.79996 45.6992 102.90008 34.1992 185.5-3.3 23.69998-17.5996 105.90085-62.0996 171.80078-38.7 57.29994-86.3004 84-149.9004 84-49.4999 0-70.2992-17.30079-81.6992-30.30078-31.5-36.19997-42.8008-111.19931-30.3008-200.69922 12.9-92.29991 71.9017-248.599609 211.1016-248.599609zm-606.9004 8.099609h54.4004c33.3999 0 69.7 11.60006 69.5 70-0.1 54.49995-41.5016 91.59961-93.6016 91.59961h-52.8984l22.5996-161.59961zm-1725.59962 85.30078 34 200.29883h-125.5l91.5-200.29883zm1690.59962 165.59961h84.2988c42.3 1.1 103.2012 42.69928 103.2012 105.69922 0 45.99995-37.5012 99.30039-91.2012 99.40039h-125l28.7012-205.09961z" fill="#30308f"/>
</svg>
