<svg enable-background="new 0 0 3839 682.7" version="1.1" viewBox="0 0 3839 682.7" xml:space="preserve" xmlns="http://www.w3.org/2000/svg">
<path d="m432.62695-0.001953125c-106.37736-1.050316375-192.76998 36.05824312-257.32617 76.00195312-127.599871 79.19992-189.101154 199.59977-172.7011706 363.59961 18.9999806 190.19981 265.2006006 309.90027 473.9003906 189.40039 2.1013-1.21229 2.90936-1.8159 4.39648-2.73828l-19.49609 44.23828h140l87.90039-195.19922h155l34.29883 195.19922h227.70119l116.2988-365 74.5996 365h89.4004l174.4004-403.69922 18 403.69922h134l-28.3008-652.599609h-161l-151.7988 357.499999-65.5-357.499999h-132.5996l-171.4004 527.499999-88.00001-527.499999h-165.40039l-250.08594 567.478519 37.28516-236.47852h-249l-19.09961 122.09961h104l-11.90039 65.59961c-59.59994 23.79998-160.90004 14.9007-204-62.69922-27.29997-49.09995-52.69871-158.70127 62.70117-259.20117 93.89991-81.99992 256.1997-96.79957 350.09961-53.59961 0 0 11.9004-68.599283 20.90039-132.699219-56.43744-19.5624808-108.92009-27.92492761-157.27344-28.40234412zm2696.04885 17.74804712c-129.5682 2.198435-252.1883 112.503676-288.6758 270.353516-41.7 180.49982 45.1994 354.50121 193.6992 388.70117 148.4999 34.19997 302.7005-84.00018 344.4004-264.5 41.6-180.29982-44.9994-354.301205-193.6992-388.701171-18.5625-4.274995-37.2149-6.167577-55.7246-5.853515zm-1301.0762 0.154297-104.0996 652.599609h374l22.3008-140h-234.1016l18.7012-116.30078h203.5l22.4004-140.09961h-205.7012l17.8008-116.09961h233.9004l22.2988-140.099609h-371zm1485.5 0 157.9004 344.099609-48.5996 308.5h134.0996l41.1992-272.69922 241.3008-379.900389h-156.3008l-132.5996 213.099609-83.5996-213.099609h-153.4004zm-730.4668 3.15039c-80.9015-0.182812-181.5332 0.548828-181.5332 0.548828h1.5996l-103.5996 647.599611h301.5996c124.2999 0 305.7999-183.09937 140.5-332.69922 170.0998-175.99982 1.5007-313.400392-88.6992-314.900391-18.125-0.324999-42.9-0.48789-69.8672-0.548828zm550.1465 123.878909c13.974-0.34387 27.8274 2.30703 41.1211 8.26953 70.9999 31.69997 99.2 145.50011 63 254-36.2 108.59989-123.0001 170.90153-194 139.10156-70.8999-31.69997-99-145.50011-63-254 29.4937-88.15616 92.3249-145.88098 152.8789-147.37109zm-614.5801 14.26953h87.2012c94.5999 0 75.3991 121.30078-14.8008 121.30078h-93.0996l20.6992-121.30078zm-1718.59959 62.90039 24.59961 126.59961v0.10156h-81.19922l56.59961-126.70117zm1677.09959 191.30078h112.3008c106.3999 0 103.5991 130.19922-14.8008 130.19922h-118.3984l20.8984-130.19922z"/>
</svg>
