<svg height="98.573" viewBox="0 0 566.935 98.573" width="566.94" xmlns="http://www.w3.org/2000/svg"><g fill="#fff"><path d="M542.316.916h24.62l-34.71 53.996-5.63 42.128h-22.25l6.52-48.068L488.616.916h24.03l11.87 27.298zm-259.28 58.149h29.36l2.97-21.36h-29.07l2.08-15.43h33.81l3.27-21.359h-56.07l-13.35 96.124h55.77l2.97-21.37h-33.82zm-170.88-9.501 7.416-19.874 2.375 19.874h-9.79zm-8.01 18.987h20.172l3.563 28.48h36.488l16.91-52.213 8.309 52.213h19.283l21.359-55.179 3.56 55.18h21.36L249.216.911h-25.514l-19.88 50.727L196.107.912h-22.842L147.16 79.824 137.369.912h-28.48l-31.744 79.8 4.154-31.149H42.728L40.056 68.55h16.912l-1.188 6.526c-2.967 1.778-9.79 2.076-12.46 2.076s-22.544-1.779-21.655-23.14c.882-21.358 29.362-41.234 63.18-30.258l3.267-20.47C65.564-4.428 6.346-.112.297 52.827c-3.56 31.15 24.92 45.983 43.906 45.688 10.977.594 23.438-3.56 27.887-5.935l-1.482 4.451h22.547l10.977-28.48z"/><path d="M464.586.027c-15.428-.594-37.678 8.306-45.094 44.204-7.416 35.894 12.459 50.431 30.852 52.804 18.396 2.373 44.205-9.196 48.95-43.609 4.75-34.414-12.17-52.508-34.71-53.399zm-2.37 20.47c6.229 0 19.578 4.154 16.314 29.071-3.262 24.92-18.688 27.887-24.326 27.293-5.637-.594-17.207-4.448-13.943-27.293 3.27-22.84 15.43-29.368 21.96-29.07z"/><path d="M370.836 37.705h12.46c9.198 0 10.978-5.934 11.272-8.305.297-2.375-2.371-7.122-7.117-7.122h-14.537l-2.07 15.427zm-5.34 37.971h16.912c9.195 0 11.27-7.119 11.566-9.493.299-2.373-2.371-7.118-7.117-7.118H367.87l-2.37 16.611zm-24.91 21.361L353.936.92h40.938c9.793 0 24.03 11.274 22.252 26.403-1.78 15.13-6.527 16.02-9.791 18.393 5.045 4.447 10.088 11.568 8.012 24.918-2.078 13.352-13.055 26.403-32.338 26.403l-42.42.001zm198.04-14.54c-3.66 0-6.615 2.951-6.615 6.593a6.607 6.607 0 0 0 6.615 6.633c3.64 0 6.592-2.952 6.592-6.633a6.59 6.59 0 0 0-6.59-6.593v-.907a7.498 7.498 0 0 1 7.498 7.5c0 4.172-3.348 7.538-7.498 7.538a7.527 7.527 0 0 1-7.54-7.538c0-4.135 3.366-7.499 7.54-7.499v.906z"/><path d="M536.846 85.637h2.402c1.045 0 2.182.157 2.182 1.457 0 1.711-1.828 1.516-3.01 1.516h-1.574v.807h1.89l2.403 3.878h1.219l-2.54-3.878c1.497-.038 2.657-.649 2.657-2.302 0-.71-.313-1.457-.945-1.813-.627-.374-1.338-.413-2.047-.413h-3.658v8.404h1.02v-7.656h.01z"/></g></svg>