<?xml version="1.0" encoding="utf-8"?>
<!-- Generator: Adobe Illustrator 26.0.3, SVG Export Plug-In . SVG Version: 6.00 Build 0)  -->
<svg version="1.1" id="Layer_1" xmlns="http://www.w3.org/2000/svg" xmlns:xlink="http://www.w3.org/1999/xlink" x="0px" y="0px"
	 viewBox="0 0 3839 603" style="enable-background:new 0 0 3839 603;" xml:space="preserve">
<g>
	<path d="M0,0v603h3839V0H0z M3811.9,575.9H27.1V27.1h3784.8V575.9z"/>
	<g>
		<g>
			<polygon points="1943,333 2102.1,333 2021.9,190.8 			"/>
			<path d="M76.8,76.8v449.3h3685.3V76.8H76.8z M361.1,504.7c-163,0-209.8-42.3-225.2-42.3c-4.1,0-6.1,2.7-9.4,4.3l-8.7-1.6
				l55.5-92.3l10.7,4.3c0,2.2-1.3,4.4-1.3,8.7c0,32,86.3,54.8,171.8,54.8c121.7,0,163.1-28.3,163.1-58.1
				c0-106.4-388.3,25.5-388.3-154.7c0-91.2,118.3-129.2,247.9-129.2c116.2,0,197.8,41.2,205.8,41.2c8.7,0,10-2.2,12-3.8l10.7,2.7
				l-51.5,81.4l-10.7-4.9c0.6-2.2,1.3-4.9,1.3-7.6c0-7-62.8-45-171.7-45c-104.2,0-149,26.1-149,59.7c0,89,393.6-41.3,393.6,155.4
				C617.7,449.3,532.2,504.7,361.1,504.7z M1141,510.9h-9.4c0-7.6-6.7-11.9-22.7-11.9H669.2v-7.6c14.7,0,17.4-4.4,17.4-16.3V127.8
				c0-12-2.7-16.3-17.4-16.3v-7.6h433.7c16,0,22.7-4.3,22.7-11.9h9.4v90.1h-9.4c0-9.8-6.7-14.1-22.7-14.1H781.5v96.5h209.8
				c16,0,22.7-4.3,22.7-14.1h9.4v91.2h-9.4c0-8.7-6.7-13-22.7-13H781.5V435h327.4c16.1,0,22.7-4.3,22.7-13.1h9.4V510.9z
				 M1720.5,298.2c-6.7,1.1-12.7,5.5-12.7,17.4v106.8c0,8.7,3.3,12,12,13.6v7.6c-42.1,19.6-145,60.8-260.6,60.8
				c-153.7,0-288.7-61.9-288.7-203c0-141.1,157.7-203,296.7-203c54.8,0,106.9,10.3,145,20.1c35.5,12.5,61.5,22.3,66.2,22.3
				c6,0,12-2.7,14.7-6l9.4,3.3l-64.8,89l-9.4-4.9c0.6-2.1,1.3-5.4,1.3-9.2c0-16.9-72.2-50.5-161.1-50.5
				c-112.3,0-203.2,45.1-203.2,136.8c0,96.1,90.9,141.1,193.8,141.1c84.2,0,133.7-23.4,153.7-35.3v-45h-114.9
				c-13.4,0-21.4,5.4-21.4,13h-9.4v-95.5h9.4c0,7.6,8,13,21.5,13h222.5V298.2z M2312.6,499.1h-133v-7.6c8.7,0,12-2.7,12-5.4
				c0-6-6-13.6-50.8-91.2h-229.2c-38.8,70.6-48.8,81.4-48.8,88.5c0,4.8,4,7.6,10,8.1v7.6h-119v-7.6c12-0.5,16-3.2,25.4-20.6
				l182.4-333.2c3.4-5.4,7.4-11.4,7.4-16.3c0-6-5.3-8.7-14-9.8V104h145.7v7.6c-10,1-14,4.3-14,8.1c0,4.3,2.7,8.7,6,14.1l193.8,337
				c9.4,16.8,12,20.6,26.1,20.7V499.1z M3735,499H2434.7V104H3735V499z"/>
		</g>
		<path d="M3054.2,440c-188.3,18.3-337.4-17.9-346.8-84.1c-9.6-67.4,132.5-146.2,323.4-179.4c1.4-0.2,2.3-1.5,2-2.9
			c-0.2-1.4-1.5-2.3-2.9-2.1C2715.4,220.4,2477.1,315,2487.3,387c6.9,48.9,122.8,75.9,295.4,75.9c80.2,0,172.6-5.9,272-18.1
			c1.4-0.2,2.3-1.4,2.2-2.8C3056.8,440.9,3055.6,439.9,3054.2,440z"/>
		<path d="M3682.9,217.6c-10.5-73.7-261.2-98-583.2-56.5c-1.7,0.2-2.9,1.8-2.7,3.5c0.2,1.7,1.7,2.9,3.5,2.8
			c190.8-20.5,347.6,15.6,357,82.2c8.4,59.3-105.3,117.9-297,152.9c-11.9-12.1-28.1-88.6-38.5-151.8c-0.3-1.9-2-3.2-3.9-3
			s-3.3,1.7-3.3,3.6V434c0,0.9,0.4,1.8,1.1,2.4c0.6,0.5,1.3,0.8,2.1,0.8c0.2,0,0.3,0,0.5,0C3445.6,388.9,3693.6,292.5,3682.9,217.6z
			"/>
	</g>
</g>
</svg>
