<svg enable-background="new 0 0 414.692 74.376" version="1.1" viewBox="0 0 414.692 74.376" xmlns="http://www.w3.org/2000/svg">
 <path d="m239.08984 0.001953125c-1.95999 0.03999996-3.15953 1.269689375-3.76953 3.179687475-1.15 3.6199964-2.37961 7.2203164-3.59961 10.8203124-0.15 0.43-0.41109 0.830001-0.62109 1.25-0.14-0.05-0.28969-0.081094-0.42969-0.121094v-8.5800778h-6.64062l-0.05664 1.9414063 4.37695 0.0195313s-0.04883 4.5686742-0.04883 6.8886722c-1.96 0-3.78156-0.02-5.60156 0-1.8 0.03-2.59008-0.868674-2.58008-2.638672 0.03-2.379998-0.01-4.7603933 0-7.1503909 0.03-2.3199977 0.70032-2.9797656 3.07031-3.0097656 2.44-0.02 4.86993 0 7.41993 0v-2.24023438c-3.05 0-5.90024-0.12093733-8.74024 0.0390625-2.39 0.12999987-3.95 1.81156478-4 4.10156248-0.08 3.069997-0.07976 6.1294559-0.00976 9.1894529 0.04999 2.119998 1.61039 3.89875 3.65039 3.96875 3.72999 0.13 7.47047 0.041016 11.23046 0.041016 0.33-0.899999 0.63063-1.659688 0.89063-2.429688 1.32-3.849996 2.58852-7.7207847 3.97852-11.5507809 0.20999-0.5999994 0.72992-1.3859844 1.41992-1.4589843 0.672-0.071 1.28164 0.3695316 1.43164 0.7695312 1.48 4.0499959 2.84844 8.140629 4.39844 12.640625h-6.5586c0.04 0.839999 0.05985 1.349219 0.08984 1.949219h9.21876c-0.13-0.63-0.18961-1.150626-0.34961-1.640625-1.4-4.259996-2.83899-8.4995358-4.20899-12.7695315-0.64-1.969998-1.89094-3.238984345-3.96094-3.208984375zm-40.85546 0.304687495c-1.2625-0.00874999-2.50891-5.4681e-4 -3.75391 0.06445313-3.39 0.16999983-5.70063 2.62976875-5.64063 5.75976565 0.06 3.0299969 2.56923 5.3209376 5.94922 5.4609376 0.65 0.03 1.17144 0.035156 1.89844 0.035156-0.02 0.21-0.01688 0.684532-0.04688 0.894531h-7.80078c0.07 0.84 0.11946 1.390314 0.18946 2.070313 2.69999 0 5.2107 0.058515 7.7207-0.021485 1.52-0.039999 2.40094-1.030235 2.46094-2.490234 0.05-1.459998-0.85344-2.3293752-2.27344-2.6093749-0.92-0.1799998-1.97138-0.0298751-2.85938-0.171875-1.35099-0.2159998-2.21912-0.9072666-2.57812-1.9472656-0.307-0.8889991-0.15286-2.4250944 0.36914-3.1210937 0.817-1.088999 2.28149-1.4285939 3.52148-1.5585938 2.2-0.2499997 4.43946-0.0703125 6.68946-0.0703125v-2.25976562c-1.305 0-2.58321-0.02640626-3.8457-0.03515626zm13.71093 0.02148438c-1.44-0.01124999-2.86039-0.00296866-4.27539 0.08203125-2.24 0.12999987-3.69984 1.53125225-3.83984 3.78124995-0.21 3.1699969-0.22055 6.3805498-0.06055 9.5605468 0.11 2.159998 1.53008 3.68836 3.58008 3.818359 2.96 0.19 5.94125 0.041016 9.03125 0.041016v-2.25c-2.64 0-5.14063-0.01-7.64063 0-1.85999 0.02-2.77101-0.93047-2.79101-2.730469-0.04-2.239997-0.0493-4.4904706-0.0293-6.7304684 0.02-2.5599974 0.73977-3.2788281 3.25977-3.2988281 2.36-0.02 4.72016 0 7.16015 0v-2.23046875c-1.49499 0-2.95453-0.03171876-4.39453-0.04296875zm27.68555 2.3535156-0.90039 0.0292969c-1.69 4.9099951-3.38063 9.8103955-5.14063 14.9003905h2.65039c0.54-1.439998 1.04922-2.810783 1.69922-4.550781 0.26 0.819999 0.40125 1.271407 0.53125 1.691406h5.3086c-1.43-4.159996-2.78844-8.1103163-4.14844-12.0703124zm-40.54297 0.8046875c-1.64-0.00875-3.59719 0.0190627-4.86719 0.1640625-0.83 0.0899999-2.06939 0.6023922-2.15039 2.1503906-0.086 1.6569984 0.27344 2.0136724 1.02344 2.5136719 0.366 0.2439998 1.0768 0.3664844 1.4668 0.3964844 0.61 0.05 1.21984 0.0095313 1.83984 0.0195313 2.09 0.0499999 3.45953 1.2608612 3.51953 3.1308592 0.07 1.919998-1.32969 3.429766-3.42969 3.509766-2.48999 0.09-4.99015 0.019531-7.66015 0.019531 0.05 0.919999 0.09086 1.550548 0.13086 2.310547 2.89999 0 5.60859 0.120703 8.30859-0.029297 2.83-0.16 4.94117-2.640003 4.95117-5.5 0.02-3.029997-2.19148-5.3114066-5.52148-5.6914062-0.77-0.09-1.53297 0.0589842-2.29297-0.0410157 0.01-0.1999998 0.0132-0.6493752 0.0332-0.859375h7.71094c-0.04-0.8699991-0.09961-2.0390625-0.09961-2.0390625s-1.32289-0.0459375-2.96289-0.0546875zm13.34961 0.0136719c-1.27-0.00625-2.51781 0.0158595-3.75781 0.1308594-0.67 0.0599999-1.79883 0.4651577-1.79883 1.9101562 0 0.7129993-0.06055 1.6996106-0.06055 2.8496094h7.91992c-0.04-0.7199993-0.06937-1.2590633-0.10937-2.0390625h-5.06055c0-0.2099998 2.4e-4 -0.4210939-0.00976-0.6210937h6.76953v-2.1894532c-1.33 0-2.62258-0.0347656-3.89258-0.0410156zm10.61328 0.0214844c-1.33-0.02-2.08086 0.6894543-2.13086 1.9394531-0.09 2.3599976-0.18047 4.7496115 0.01953 7.0996095 0.05 0.709999 0.97086 1.780156 1.63086 1.910156 1.54 0.28 3.16938 0.089844 4.85938 0.089844v-5.1503908h-2.53907c0 1.1099988-0.05078 1.6214858-0.05078 2.7714848-0.55-0.09-0.99953 0.029218-1.51953-0.050782v-6.490234h7.29883v-2.1191406c-2.69 0-5.12836 0.02-7.56836 0zm16.00977 6.0800781s0.83383 1.6885165 1.17383 2.4785155c-0.66 0.06-1.28485-0.06-1.96485 0 0.26-0.819999 0.79102-2.4785155 0.79102-2.4785155zm-32.25 0.1894531c0 0.9999994 0.04882 1.8276104 0.04883 2.5996094 0 1.267999 0.8914 1.99125 1.4414 2.03125 2.66 0.22 5.34961 0.099609 8.09961 0.099609v-2.220703h-6.91016c0-0.24 0.00954-0.468984 0.01954-0.708984h5.25c-0.04-0.779999-0.06961-1.280782-0.09961-1.8007814h-7.84961zm132.0332 13.7343754c-15.29998 0.12-30.61017 0.279296-45.91016 0.029297-13.75998-0.22-173.27173 0.620234-192.76171 0.490234-14.62999-0.09-29.261113-0.409453-43.871099 0.060547-12.449987 0.409999-24.739074 2.479301-36.539062 6.779297-5.539995 2.009998-10.8105516 4.509378-15.3105471 8.359375-3.3899966 2.919997-4.86960888 6.470394-4.3496094 10.15039 0.24999975 1.829998 1.0000012 3.701252 2.25 5.53125 1.2199988 1.769998 2.729611 3.408361 4.3496094 4.81836 4.1599961 3.639996 9.1707861 5.869923 14.3007811 7.669921 13.489987 4.749996 27.55853 6.230782 41.728516 6.550782 16.869983 0.379999 33.750876 0.370625 50.630861 0.390625 47.90995 0.04 95.82028 0.009765 143.74023 0.009765v-0.019531h59.20899c35.78996-0.02-28.26676 0.048906 7.5332-0.121094 15.89998-0.08 31.8397 0.519451 47.67969-1.810547 9.29999-1.369998 18.51915-2.920004 27.11914-7 4.81999-2.289997 9.48031-4.798207 12.82031-9.158203 1.58-2.059998 2.83039-4.27133 3.15039-6.861328 0.04-0.299999 0.06031-0.609922 0.07031-0.919922 0.18-4.819995-2.54039-7.998909-6.15039-10.628906-6.82999-4.989995-14.63094-7.771486-22.71093-9.771484-15.42999-3.809996-31.14854-4.678828-46.97852-4.548828zm-227.12305 5.080078 232.43164 0.11914c12.53999 0.11 24.99088 1.149535 37.13086 4.519532 5.99 1.659998 11.75032 3.931254 16.57032 8.03125 3.07999 2.619997 4.49882 5.369143 4.29882 8.11914-0.18 2.479998-1.67875 4.950081-4.46875 7.330078-5.54999 4.729996-12.24008 6.960315-19.08007 8.820313-10.41999 2.829997-21.09134 4.100625-31.86133 4.140625-56.82995 0.22-13.80068 0.32875-70.64063 0.46875-43.41995 0.11-86.85153 0.321484-130.27148 0.271484-26.60998-0.03-53.218153-0.290547-79.828127-0.810547-13.019987-0.239999-25.91009-2.109536-38.080078-7.019531-4.019996-1.629998-7.83141-4.150159-11.191406-6.910156-2.259998-1.849998-3.409766-4.041018-3.509766-6.291016-0.11-2.439997 1.020549-4.949689 3.310547-7.179687 4.779995-4.629996 10.809303-6.990315 17.029297-8.820313 8.849991-2.599997 17.950868-3.998984 27.130859-4.208984 17.009983-0.38 34.029314-0.230079 51.029294-0.580078zm-35.513669 4.685547c-3.132497-0.00875-6.264534 0.008281-9.394531 0.113281-10.33999 0.35-20.610947 1.321332-30.460938 4.861328-4.079995 1.469999-7.979456 3.188519-10.939453 6.478516-1.419998 1.579998-2.090234 3.110392-1.990234 4.65039 0.07 1.339999 0.71922 2.68008 1.949219 4.080078 2.929997 3.329997 6.540004 5.680392 10.75 7.150391 7.759992 2.709997 15.800711 4.04086 23.970703 4.380859 8.429991 0.36 16.870555 0.46875 25.310547 0.46875 57.239946 0.04 114.480526 0.019532 171.730466 0.019532h25.51953c53.29995-0.01 8.11021 0.021406 61.41016-0.058594 10.80999-0.01 21.60134-0.631097 32.11133-3.621094 5.40999-1.539998 10.36946-3.76977 14.18945-8.009765 1.36-1.499999 2.12047-2.980158 2.23047-4.410157 0.16-1.749998-0.65172-3.429533-2.51172-5.019531-2.49-2.129998-5.37891-3.970236-8.37891-5.240234-8.21999-3.509997-16.96032-4.940079-25.82031-5.330078-8.48999-0.36-16.99977-0.449219-25.50976-0.449219-114.41989-0.03-130.3516-0.019531-244.771488-0.019531-3.129996 0-6.262034-0.036172-9.394531-0.044922zm205.476559 4.404296h24.00391c2.56 0 4.66602 2.105019 4.66602 4.666016v0.853516h-33.3379v-0.853516c0-2.560997 2.10698-4.666016 4.66797-4.666016zm-106.39062 0.019532h24.39844v5.621094h-41.49024c-0.36-3.209997 1.81001-5.551563 5.25-5.601563 3.95-0.07 7.8918-0.019531 11.8418-0.019531zm-115.371095 0.009765c15.439985-0.01 30.880328-0.02 46.320315 0 3.55999 0.01 5.71078 2.21016 5.55078 5.660157h-53.560548v-5.5c0.639999-0.06 1.169454-0.160157 1.689453-0.160157zm254.810545 0c11.41999-0.01 22.85126-0.030234 34.28125 0.009766 3.44 0 5.56844 2.210628 5.39844 5.640625h-41.11914c-0.05-0.749999-0.12063-1.339454-0.14063-1.939453-0.01-1.139999 0-2.280001 0-3.5 0.67-0.09 1.12008-0.210938 1.58008-0.210938zm-104.84961 0.03125c9.77999-0.08 19.55986-0.08 29.33985 0 3.07999 0.02 5.12945 2.449847 4.93945 5.589844h-39.33984c0.06-3.379996 1.95055-5.569844 5.06054-5.589844zm-92.25 0.109375h35.09961v5.5h-35.09961v-5.5zm-82.169919 4.730469c3.599996-0.02 6.600078 2.90016 6.580078 6.410156 0 0.13-0.011485 0.258672-0.021485 0.388672-0.229999 3.239997-3.13969 5.989766-6.429687 6.009766-3.339997 0.02-6.318828-2.759769-6.548828-6.009766-0.03-0.15-0.03125-0.30875-0.03125-0.46875 0.03-3.389996 3.001175-6.310078 6.451172-6.330078zm344.749999 0c3.56 0.01 6.5407 2.978754 6.4707 6.46875 0 0.11-0.01148 0.220078-0.02148 0.330078-0.23 3.259997-3.11969 5.989766-6.42969 6.009766-3.34999 0.01-6.31859-2.749769-6.55859-6.009766-0.02-0.14-0.03125-0.279922-0.03125-0.419922-0.03-3.419996 3.04031-6.388906 6.57031-6.378906zm-103.19727 2.439453h7.28516v9.447266c0 0.966999 0.79667 1.763672 1.76367 1.763672h24.28907v0.001953 0.853515c0 2.560998-2.10502 4.609376-4.66602 4.609376h-24.00586c-2.561 0-4.66601-2.048378-4.66602-4.609376v-12.066406zm-119.02343 0.019532h9.93945v7.589843c0.01 3.119997 0.29961 3.419922 3.34961 3.419922h15.08984c0.41 0 0.82047 0.010469 1.23047-0.019531 1.16-0.08 2.14008-0.649142 1.83008-1.869141-0.17-0.669999-1.17938-1.549844-1.85937-1.589843-3.05-0.18-6.11969-0.091797-9.17969-0.091797h-2.70117v-4.769532c0.11-0.09 0.22054-0.25 0.31054-0.25 6.05 0 12.10087-0.180156 18.13086 0.089844 1.4 0.06 2.65868 0.770079 3.63867 1.830078 1.33 1.439999 2.13 3.530784 2 5.550781-0.21 3.599997-3.1293 6.54961-6.77929 6.59961-5.37 0.09-10.73938 0.041015-16.10938 0.041016-4.01999 0-8.03102 0.028515-12.04101-0.021485-4.31-0.04-6.82961-2.609379-6.84961-6.859375v-9.65039zm-99.759768 0.099609h9.689453v16.28125h-9.689453v-16.28125zm176.109378 0.041015h9.88086v16.21875h-9.73047c-0.06-1.509998-0.13094-2.968751-0.21094-4.71875h-17.64844v-6.630859h17.70899v-4.869141zm78.93164 0h9.77929v16.21875h-9.77929v-16.21875zm-108.56055 0.009766h9.83008v16.230469h-9.83008v-16.230469zm-87.14062 0.009766h9.77929c0.51 1.889998 2.03102 2.109609 3.79102 2.099609 5.70999-0.05 11.43039-0.019531 17.15039-0.019531h2.83984v5.130859h-23.38086c-0.36 2.749997 0.33024 3.618907 2.74024 3.628907 6.53999 0.029999 13.06961 0.009765 19.59961 0.009765h2.60937v5.390625c-0.71 0.04-1.41844 0.119141-2.14844 0.119141-8.50999 0.01-17.01149 0.02-25.52148 0-5.14999-0.01-7.47898-2.378521-7.45898-7.478516 0.01-1.559998 0-3.121173 0-4.701172v-4.179687zm-37.410161 0.009765h9.640625v16.240235h-9.640625v-16.240235zm21.750001 0h9.92969v16.201172h-9.92969v-16.201172zm242.73047 0h10.00976c0 1.359999 0.01 2.750627 0 4.140625v0.029297c-0.02 1.889998-0.05007 3.791408-0.08007 5.691407-0.05 3.439996-2.23938 6.28914-5.60938 6.36914-8.00999 0.2-16.03079 0.060547-24.30078 0.060547v-5.310547c0.89-0.05 1.6807-0.130859 2.4707-0.130859 4.9-0.01 9.78923 0.010234 14.69922-0.009766 2.27-0.02 2.78078-0.520002 2.80078-2.75 0.01-1.299999 0.01953-2.599923 0.01953-3.919922 0-1.359998-0.00976-2.739923-0.00976-4.169922z"/>
</svg>
