<?xml version="1.0" encoding="UTF-8" standalone="no"?>
<svg xmlns="http://www.w3.org/2000/svg" viewBox="159.3 374.4 399.99999 219.5704">
  <path fill="#FFF" d="M 228.51953 60.355469 C 206.50956 60.483117 175.76008 74.581534 147.9707 99.283203 C 144.83407 102.12111 141.87617 105.0219 139.00391 107.94336 C 140.44501 106.89434 142.35828 106.44336 144.63086 106.44336 L 190.93164 106.44336 L 190.93164 137.94727 L 172.79297 137.94727 L 172.79297 121.71875 L 154.17578 121.71875 L 154.17578 169.45117 L 173.26953 169.45117 L 173.26953 156.5625 L 191.4082 156.5625 L 191.4082 183.88281 C 197.6829 179.46159 203.93009 174.48764 210.02344 168.97461 C 221.00196 159.42807 230.07175 148.92697 237.70898 138.42578 L 197.61328 168.49609 L 252.50586 114.08203 C 252.50586 113.6047 252.98242 113.12577 252.98242 112.64844 L 197.61328 154.6543 L 253.9375 95.943359 L 197.61328 138.90234 L 251.55078 81.623047 L 197.61328 125.53711 L 249.64258 66.826172 C 244.4069 62.395981 237.13213 60.305519 228.51953 60.355469 z M 137.54883 109.45508 C 104.74401 143.50604 90.358467 181.74728 105.9668 199.52344 C 120.17731 215.31289 154.62672 208.88649 188.79883 185.67969 L 145.10742 185.67969 C 140.33415 185.67969 136.03906 180.90728 136.03906 176.61133 L 136.03906 115.51367 C 136.03906 112.84825 136.57656 110.87477 137.54883 109.45508 z " transform="translate(159.3,374.4)" />
  <path fill="#FFF" d="M 361.5293 9.9335938 C 339.43475 10.113056 308.71212 24.223728 281.14648 49.164062 C 270.16796 58.710602 261.09817 69.211691 253.46094 79.712891 L 293.55664 49.642578 L 238.66406 104.05664 C 238.66406 104.53397 238.18555 105.01096 238.18555 105.48828 L 293.55664 63.484375 L 237.23242 122.19531 L 293.55664 79.236328 L 239.61719 136.51562 L 293.55664 92.601562 L 241.52734 151.3125 C 260.14309 167.06429 304.53379 153.22106 343.19727 118.85352 C 345.5335 116.73978 347.78401 114.59396 349.97461 112.43164 C 349.00498 112.86817 348.00008 113.12695 347.01758 113.12695 L 300.7168 113.12695 L 300.7168 34.367188 L 347.01758 34.367188 C 351.31352 34.844508 356.08594 38.66423 356.08594 43.4375 L 356.08594 104.05664 C 356.08594 104.93005 355.87978 105.82266 355.5293 106.69141 C 386.9853 73.152142 400.50753 36.045249 385.20312 18.615234 C 379.8332 12.648647 371.57227 9.8520202 361.5293 9.9335938 z M 319.33203 49.164062 L 319.33203 96.896484 L 338.42578 96.896484 L 338.42578 49.164062 L 319.33203 49.164062 z " transform="translate(159.3,374.4)" />
  <path fill="#FFF" d="M195.57685 390.62911c1.43198-2.38663 3.81862-4.29594 6.68258-4.29594h16.70644v5.72792c2.38664-2.38663 4.77327-5.72792 8.11456-5.25059h22.91169v44.3914h-15.27446V399.221c-2.86396-.47733-4.29594 2.38663-5.72792 4.77327-5.72793 9.06921-11.45585 18.13842-16.70645 27.20763h-16.22911c6.68257-10.97852 13.36515-21.47971 20.04773-32.45823-3.34129 0-7.63723-.95465-10.50119 1.90931-6.20525 10.02386-12.41051 20.52506-19.09308 30.54892h-16.22912c8.11456-13.84248 16.70644-27.20763 25.29833-40.57279zm60.62052.95466c1.90931-2.86397 6.20526-5.72793 10.02387-5.2506h34.36754v10.02386c-8.59188.47733-17.18377 0-25.29833 0-3.34129.95466-3.81861 5.2506-5.72792 7.63724h31.98091c-1.90931 2.86396-4.29595 5.72792-6.20525 8.59188h-25.77566v8.59189h31.50358v9.54654h-47.25537v-27.20764c-.95465-4.77327 0-8.59189 2.38663-11.93317zm51.55132-1.43199c1.43198-1.9093 5.25059-4.29594 8.11456-4.29594h36.75417v10.02387h-23.86635c-5.25059-.47733-7.63723 5.72792-9.06921 10.02386 0 6.68258-1.43198 6.68258-.47733 14.79714 9.06922.47733 10.97852.47733 22.43437 0 .47733-2.38663 0-4.77327.47733-7.1599-3.81862-.47733-2.86396-.47733-10.50119-.47733 1.9093-3.34129 3.81861-6.20525 5.25059-9.54654h19.09308v22.43437c0 1.43198-.47733 2.86396-.95465 4.29594-14.79714.47733-29.11695 0-43.91408.47733-3.81862.47732-6.20525-3.34129-6.20525-6.68258v-24.34368c-.95466-4.29594.95465-6.68257 2.86396-9.54654zM359.3 385.85584h24.821c4.29595-.47733 7.63723 3.34129 9.54654 6.68258 7.63723 12.88783 15.75179 25.29833 23.38902 38.18616h-16.70644c-2.38664-2.86397-3.81862-6.20525-6.68258-8.59189h-14.79713l-4.29595-7.1599v15.75179H359.3v-44.86874zm15.75179 10.02387v16.70644h13.36516c-2.86397-4.29594-5.2506-9.54654-8.11456-13.84248-1.43198-1.90931-3.34129-2.38664-5.2506-2.86396zm126.96897 188.06682v-25.77565h-9.06921v-5.2506h24.34368v5.2506h-9.06922v25.77565h-6.20525zm19.09308 0v-30.54892h9.06921l5.72793 21.00238 5.72792-21.00238h9.54654v30.54892h-5.72792v-24.34367l-6.20525 24.34367h-6.20525l-6.20525-24.34367v24.34367h-5.72793z"/>
</svg>
