<svg enable-background="new 0 0 414.692 74.376" version="1.1" viewBox="0 0 414.692 74.376" xmlns="http://www.w3.org/2000/svg">
 <radialGradient id="a" cx="204.3308" cy="39.1296" r="143.0348" gradientUnits="userSpaceOnUse">
  <stop stop-color="#aebadc" offset="0"/>
  <stop stop-color="#b2bdde" offset=".2354"/>
  <stop stop-color="#bdc7e2" offset=".4525"/>
  <stop stop-color="#d0d7ea" offset=".6625"/>
  <stop stop-color="#eaedf6" offset=".8668"/>
  <stop stop-color="#fff" offset="1"/>
 </radialGradient>
 <linearGradient id="b" x1="204.3516" x2="204.3516" y1="72.547" y2="51.7413" gradientUnits="userSpaceOnUse">
  <stop stop-color="#fff" offset="0"/>
  <stop stop-color="#faf0c2" offset=".4206"/>
  <stop stop-color="#f4dc72" offset="1"/>
 </linearGradient>
 <linearGradient id="c" x1="2.2276" x2="406.4709" y1="62.1441" y2="62.1441" gradientUnits="userSpaceOnUse">
  <stop stop-color="#fff" offset="0"/>
  <stop stop-color="#fefefc" offset=".0836"/>
  <stop stop-color="#fafbf2" offset=".1514"/>
  <stop stop-color="#f4f7e1" offset=".2136"/>
  <stop stop-color="#ecf0c9" offset=".2725"/>
  <stop stop-color="#e1e8aa" offset=".3291"/>
  <stop stop-color="#d3de84" offset=".3839"/>
  <stop stop-color="#c3d258" offset=".4364"/>
  <stop stop-color="#b4c62d" offset=".4798"/>
  <stop stop-color="#b8c939" offset=".4905"/>
  <stop stop-color="#c9d667" offset=".5369"/>
  <stop stop-color="#d7e190" offset=".5864"/>
  <stop stop-color="#e4eab2" offset=".6381"/>
  <stop stop-color="#eef2ce" offset=".6927"/>
  <stop stop-color="#f5f8e4" offset=".7514"/>
  <stop stop-color="#fbfcf3" offset=".8158"/>
  <stop stop-color="#fefefc" offset=".8906"/>
  <stop stop-color="#fff" offset="1"/>
 </linearGradient>
 <path d="m406.212 49.108c-.008.281-.024.561-.055.833-.071.624-.188 1.222-.345 1.801h-402.921c-.173-.606-.298-1.204-.369-1.801-.408-3.33.753-6.543 3.414-9.185 3.531-3.484 7.667-5.746 12.014-7.565 9.26-3.891 18.904-5.765 28.674-6.136 11.464-.426 22.945-.137 34.425-.055 15.294.118 218.826-.642 229.624-.443 12.006.226 24.02.081 36.026-.027 12.422-.118 24.758.67 36.866 4.118 6.34 1.81 12.461 4.326 17.821 8.841 2.833 2.379 4.968 5.257 4.826 9.619z" fill="url(#a)"/>
 <path d="m405.812 51.741c-.447 1.602-1.216 3.041-2.127 4.407-2.621 3.946-6.278 6.217-10.06 8.289-6.749 3.692-13.984 5.095-21.282 6.335-12.43 2.109-24.938 1.566-37.415 1.638-28.093.154-56.186.091-84.271.109h-46.463v.018c-37.604 0-75.2.027-112.795-.009-13.246-.018-26.492-.009-39.73-.353-11.119-.29-22.16-1.629-32.746-5.927-4.026-1.629-7.957-3.647-11.222-6.941-1.271-1.276-2.456-2.76-3.414-4.362-.628-1.059-1.091-2.136-1.397-3.204z" fill="url(#b)" stroke="url(#c)" stroke-miterlimit="10"/>
 <path d="m338.84375 23.525391c-15.29998 0.12-30.61017 0.279296-45.91016 0.029297-13.75998-0.22-173.27173 0.620234-192.76171 0.490234-14.62999-0.09-29.261113-0.409453-43.871099 0.060547-12.449987 0.409999-24.739074 2.479301-36.539062 6.779297-5.539995 2.009998-10.8105516 4.509378-15.3105471 8.359375-3.3899966 2.919997-4.86960888 6.470394-4.3496094 10.15039 0.24999975 1.829998 1.0000012 3.701252 2.25 5.53125 1.2199988 1.769998 2.729611 3.408361 4.3496094 4.81836 4.1599961 3.639996 9.1707861 5.869923 14.3007811 7.669921 13.489987 4.749996 27.55853 6.230782 41.728516 6.550782 16.869983 0.379999 33.750876 0.370625 50.630861 0.390625 47.90995 0.04 95.82028 0.009765 143.74023 0.009765v-0.019531h59.20899c35.78996-0.02-28.26676 0.048906 7.5332-0.121094 15.89998-0.08 31.8397 0.519451 47.67969-1.810547 9.29999-1.369998 18.51915-2.920004 27.11914-7 4.81999-2.289997 9.48031-4.798207 12.82031-9.158203 1.58-2.059998 2.83039-4.27133 3.15039-6.861328 0.04-0.299999 0.06031-0.609922 0.07031-0.919922 0.18-4.819995-2.54039-7.998909-6.15039-10.628906-6.82999-4.989995-14.63094-7.771486-22.71093-9.771484-15.42999-3.809996-31.14854-4.678828-46.97852-4.548828zm-227.12305 5.080078 232.43164 0.11914c12.53999 0.11 24.99088 1.149535 37.13086 4.519532 5.99 1.659998 11.75032 3.931254 16.57032 8.03125 3.07999 2.619997 4.49882 5.369143 4.29882 8.11914-0.18 2.479998-1.67875 4.950081-4.46875 7.330078-5.54999 4.729996-12.24008 6.960315-19.08007 8.820313-10.41999 2.829997-21.09134 4.100625-31.86133 4.140625-56.82995 0.22-13.80068 0.32875-70.64063 0.46875-43.41995 0.11-86.85153 0.321484-130.27148 0.271484-26.60998-0.03-53.218153-0.290547-79.828127-0.810547-13.019987-0.239999-25.91009-2.109536-38.080078-7.019531-4.019996-1.629998-7.83141-4.150159-11.191406-6.910156-2.259998-1.849998-3.409766-4.041018-3.509766-6.291016-0.11-2.439997 1.020549-4.949689 3.310547-7.179687 4.779995-4.629996 10.809303-6.990315 17.029297-8.820313 8.849991-2.599997 17.950868-3.998984 27.130859-4.208984 17.009983-0.38 34.029314-0.230079 51.029294-0.580078zm-35.513669 4.685547c-3.132497-0.00875-6.264534 0.008281-9.394531 0.113281-10.33999 0.35-20.610947 1.321332-30.460938 4.861328-4.079995 1.469999-7.979456 3.188519-10.939453 6.478516-1.419998 1.579998-2.090234 3.110392-1.990234 4.65039 0.07 1.339999 0.71922 2.68008 1.949219 4.080078 2.929997 3.329997 6.540004 5.680392 10.75 7.150391 7.759992 2.709997 15.800711 4.04086 23.970703 4.380859 8.429991 0.36 16.870555 0.46875 25.310547 0.46875 57.239946 0.04 114.480526 0.019532 171.730466 0.019532h25.51953c53.29995-0.01 8.11021 0.021406 61.41016-0.058594 10.80999-0.01 21.60134-0.631097 32.11133-3.621094 5.40999-1.539998 10.36946-3.76977 14.18945-8.009765 1.36-1.499999 2.12047-2.980158 2.23047-4.410157 0.16-1.749998-0.65172-3.429533-2.51172-5.019531-2.49-2.129998-5.37891-3.970236-8.37891-5.240234-8.21999-3.509997-16.96032-4.940079-25.82031-5.330078-8.48999-0.36-16.99977-0.449219-25.50976-0.449219-114.41989-0.03-130.3516-0.019531-244.771488-0.019531-3.129996 0-6.262034-0.036172-9.394531-0.044922zm205.476559 4.404296h24.00391c2.56 0 4.66602 2.105019 4.66602 4.666016v0.853516h-33.3379v-0.853516c0-2.560997 2.10698-4.666016 4.66797-4.666016zm-106.39062 0.019532h24.39844v5.621094h-41.49024c-0.36-3.209997 1.81001-5.551563 5.25-5.601563 3.95-0.07 7.8918-0.019531 11.8418-0.019531zm-115.371095 0.009765c15.439985-0.01 30.880328-0.02 46.320315 0 3.55999 0.01 5.71078 2.21016 5.55078 5.660157h-53.560548v-5.5c0.639999-0.06 1.169454-0.160157 1.689453-0.160157zm254.810545 0c11.41999-0.01 22.85126-0.030234 34.28125 0.009766 3.44 0 5.56844 2.210628 5.39844 5.640625h-41.11914c-0.05-0.749999-0.12063-1.339454-0.14063-1.939453-0.01-1.139999 0-2.280001 0-3.5 0.67-0.09 1.12008-0.210938 1.58008-0.210938zm-104.84961 0.03125c9.77999-0.08 19.55986-0.08 29.33985 0 3.07999 0.02 5.12945 2.449847 4.93945 5.589844h-39.33984c0.06-3.379996 1.95055-5.569844 5.06054-5.589844zm-92.25 0.109375h35.09961v5.5h-35.09961v-5.5zm-82.169919 4.730469c3.599996-0.02 6.600078 2.90016 6.580078 6.410156 0 0.13-0.011485 0.258672-0.021485 0.388672-0.229999 3.239997-3.13969 5.989766-6.429687 6.009766-3.339997 0.02-6.318828-2.759769-6.548828-6.009766-0.03-0.15-0.03125-0.30875-0.03125-0.46875 0.03-3.389996 3.001175-6.310078 6.451172-6.330078zm344.749999 0c3.56 0.01 6.5407 2.978754 6.4707 6.46875 0 0.11-0.01148 0.220078-0.02148 0.330078-0.23 3.259997-3.11969 5.989766-6.42969 6.009766-3.34999 0.01-6.31859-2.749769-6.55859-6.009766-0.02-0.14-0.03125-0.279922-0.03125-0.419922-0.03-3.419996 3.04031-6.388906 6.57031-6.378906zm-103.19727 2.439453h7.28516v9.447266c0 0.966999 0.79667 1.763672 1.76367 1.763672h24.28907v0.001953 0.853515c0 2.560998-2.10502 4.609376-4.66602 4.609376h-24.00586c-2.561 0-4.66601-2.048378-4.66602-4.609376v-12.066406zm-119.02343 0.019532h9.93945v7.589843c0.01 3.119997 0.29961 3.419922 3.34961 3.419922h15.08984c0.41 0 0.82047 0.010469 1.23047-0.019531 1.16-0.08 2.14008-0.649142 1.83008-1.869141-0.17-0.669999-1.17938-1.549844-1.85937-1.589843-3.05-0.18-6.11969-0.091797-9.17969-0.091797h-2.70117v-4.769532c0.11-0.09 0.22054-0.25 0.31054-0.25 6.05 0 12.10087-0.180156 18.13086 0.089844 1.4 0.06 2.65868 0.770079 3.63867 1.830078 1.33 1.439999 2.13 3.530784 2 5.550781-0.21 3.599997-3.1293 6.54961-6.77929 6.59961-5.37 0.09-10.73938 0.041015-16.10938 0.041016-4.01999 0-8.03102 0.028515-12.04101-0.021485-4.31-0.04-6.82961-2.609379-6.84961-6.859375v-9.65039zm-99.759768 0.099609h9.689453v16.28125h-9.689453v-16.28125zm176.109378 0.041015h9.88086v16.21875h-9.73047c-0.06-1.509998-0.13094-2.968751-0.21094-4.71875h-17.64844v-6.630859h17.70899v-4.869141zm78.93164 0h9.77929v16.21875h-9.77929v-16.21875zm-108.56055 0.009766h9.83008v16.230469h-9.83008v-16.230469zm-87.14062 0.009766h9.77929c0.51 1.889998 2.03102 2.109609 3.79102 2.099609 5.70999-0.05 11.43039-0.019531 17.15039-0.019531h2.83984v5.130859h-23.38086c-0.36 2.749997 0.33024 3.618907 2.74024 3.628907 6.53999 0.029999 13.06961 0.009765 19.59961 0.009765h2.60937v5.390625c-0.71 0.04-1.41844 0.119141-2.14844 0.119141-8.50999 0.01-17.01149 0.02-25.52148 0-5.14999-0.01-7.47898-2.378521-7.45898-7.478516 0.01-1.559998 0-3.121173 0-4.701172v-4.179687zm-37.410161 0.009765h9.640625v16.240235h-9.640625v-16.240235zm21.750001 0h9.92969v16.201172h-9.92969v-16.201172zm242.73047 0h10.00976c0 1.359999 0.01 2.750627 0 4.140625v0.029297c-0.02 1.889998-0.05007 3.791408-0.08007 5.691407-0.05 3.439996-2.23938 6.28914-5.60938 6.36914-8.00999 0.2-16.03079 0.060547-24.30078 0.060547v-5.310547c0.89-0.05 1.6807-0.130859 2.4707-0.130859 4.9-0.01 9.78923 0.010234 14.69922-0.009766 2.27-0.02 2.78078-0.520002 2.80078-2.75 0.01-1.299999 0.01953-2.599923 0.01953-3.919922 0-1.359998-0.00976-2.739923-0.00976-4.169922z"/>
 <path d="m191.87 4.231c-.522.696-.677 2.231-.37 3.12.359 1.04 1.227 1.732 2.578 1.948.888.142 1.939-.008 2.859.172 1.42.28 2.323 1.15 2.273 2.61-.06 1.46-.94 2.45-2.46 2.49-2.51.08-5.02.02-7.72.02-.07-.68-.12-1.23-.19-2.07h7.8c.03-.21.027-.684.047-.894-.727 0-1.247-.006-1.897-.036-3.38-.14-5.89-2.43-5.95-5.46-.06-3.13 2.25-5.59 5.64-5.76 2.49-.13 4.99-.03 7.6-.03v2.26c-2.25 0-4.49-.18-6.69.07-1.24.13-2.703.471-3.52 1.56zm4.83 2.25c-.77-.09-1.534.059-2.294-.041.01-.2.014-.649.034-.859h7.71c-.04-.87-.1-2.04-.1-2.04s-5.29-.18-7.83.11c-.83.09-2.069.602-2.15 2.15-.086 1.657.273 2.014 1.023 2.514.366.244 1.077.366 1.467.396.61.05 1.22.01 1.84.02 2.09.05 3.46 1.26 3.52 3.13.07 1.92-1.33 3.43-3.43 3.51-2.49.09-4.99.02-7.66.02.05.92.09 1.55.13 2.31 2.9 0 5.61.12 8.31-.03 2.83-.16 4.94-2.64 4.95-5.5.02-3.03-2.19-5.31-5.52-5.69zm12.04 8.88c-1.86.02-2.77-.93-2.79-2.73-.04-2.24-.05-4.49-.03-6.73.02-2.56.74-3.28 3.26-3.3 2.36-.02 4.72 0 7.16 0v-2.23c-2.99 0-5.84-.13-8.67.04-2.24.13-3.7 1.53-3.84 3.78-.21 3.17-.22 6.38-.06 9.56.11 2.16 1.53 3.69 3.58 3.82 2.96.19 5.94.04 9.03.04v-2.25c-2.64 0-5.14-.01-7.64 0zm7.59-11.82c-2.66 0-5.17-.14-7.65.09-.67.06-1.8.465-1.8 1.91 0 .713-.06 1.7-.06 2.85h7.92c-.04-.72-.07-1.26-.11-2.04h-5.06c0-.21 0-.42-.01-.62h6.77zm-6.84 8.76c0-.24.01-.47.02-.71h5.25c-.04-.78-.07-1.28-.1-1.8h-7.85c0 1 .05 1.828.05 2.6 0 1.268.89 1.99 1.44 2.03 2.66.22 5.35.1 8.1.1v-2.22zm21.13-6.66v-2.12c-2.69 0-5.13.02-7.57 0-1.33-.02-2.08.69-2.13 1.94-.09 2.36-.18 4.75.02 7.1.05.71.97 1.78 1.63 1.91 1.54.28 3.17.09 4.86.09v-5.15c-1.21 0-1.04 0-2.54 0 0 1.11-.05 1.62-.05 2.77-.55-.09-1 .03-1.52-.05v-6.49zm16.64 10.34c-1.4-4.26-2.84-8.5-4.21-12.77-.64-1.97-1.89-3.24-3.96-3.21-1.96.04-3.16 1.27-3.77 3.18-1.15 3.62-2.38 7.22-3.6 10.82-.15.43-.41.83-.62 1.25-.14-.05-.29-.08-.43-.12v-8.58h-6.64l-.057 1.941 4.377.019s-.05 4.57-.05 6.89c-1.96 0-3.78-.02-5.6 0-1.8.03-2.59-.87-2.58-2.64.03-2.38-.01-4.76 0-7.15.03-2.32.7-2.98 3.07-3.01 2.44-.02 4.87 0 7.42 0v-2.24c-3.05 0-5.9-.12-8.74.04-2.39.13-3.95 1.81-4 4.1-.08 3.07-.08 6.13-.01 9.19.05 2.12 1.61 3.9 3.65 3.97 3.73.13 7.47.04 11.23.04.33-.9.63-1.66.89-2.43 1.32-3.85 2.59-7.72 3.98-11.55.21-.6.73-1.387 1.42-1.46.672-.071 1.28.37 1.43.77 1.48 4.05 2.85 8.14 4.4 12.64h-6.56c.04.84.06 1.35.09 1.95h9.22c-.13-.63-.19-1.15-.35-1.64zm-7.63-13.3-.9.03c-1.69 4.91-3.38 9.81-5.14 14.9h2.65c.54-1.44 1.05-2.81 1.7-4.55.26.82.4 1.27.53 1.69h5.31c-1.43-4.16-2.79-8.11-4.15-12.07zm-1.36 9.4c.26-.82.79-2.48.79-2.48s.834 1.69 1.174 2.48c-.66.06-1.284-.06-1.964 0z" fill="#4070a7"/>
</svg>
