<svg enable-background="new 0 0 3839 603" version="1.1" viewBox="0 0 3839 603" xml:space="preserve" xmlns="http://www.w3.org/2000/svg">
<path d="m0 0v603h3839v-603h-3839zm27.099609 27.099609h3784.800791v548.800781h-3784.800791v-548.800781zm49.701172 49.701172v449.298829h3685.298819v-449.298829h-3685.298819zm1048.798819 15.199219h9.4004v90.09961h-9.4004c0-9.79999-6.6992-14.09961-22.6992-14.09961h-321.4004v96.5h209.80078c16.00002 0 22.69922-4.29962 22.69922-14.09961h9.4004v91.19922h-9.4004c0-8.69999-6.6992-13-22.69922-13h-209.80078v106.40039h327.4004c16.1 0 22.6992-4.29962 22.6992-13.09961h9.4004v89h-9.4004c0-7.59999-6.6992-11.90039-22.6992-11.90039h-439.70118v-7.59961c14.69998 0 17.40039-4.40079 17.40039-16.30078v-347.29883c0-11.99999-2.70041-16.30078-17.40039-16.30078v-7.59961h433.70118c16 0 22.6992-4.300398 22.6992-11.90039zm341.5996 6.400391c54.8 0 106.9001 10.299619 145 20.099609 35.5 12.49999 61.5012 22.30078 66.2012 22.30078 6 0 11.9992-2.7 14.6992-6l9.4004 3.29883-64.8008 89-9.3984-4.90039c0.6-2.1 1.2988-5.39922 1.2988-9.19922 0-16.89998-72.1997-50.5-161.0996-50.5-112.2999 0-203.1992 45.10087-203.1992 136.80078 0 96.09991 90.8989 141.09961 193.7988 141.09961 84.1999 0 133.7012-23.40079 153.7012-35.30078v-45h-114.9004c-13.4 0-21.4004 5.40001-21.4004 13h-9.4004v-95.5h9.4004c0 7.59999 8 13 21.5 13h222.5v7.59961c-6.7 1.1-12.6992 5.5004-12.6992 17.40039v106.80078c0 8.69999 3.3 11.99961 12 13.59961v7.59961c-42.1 19.59998-145.0017 60.80078-260.6016 60.80078-153.6998 0-288.6992-61.90014-288.6992-203s157.6994-202.999999 296.6992-202.999999zm-1089.99998 0.199218c116.19988 0 197.80079 41.201171 205.80078 41.201171 8.69999 0 10-2.20078 12-3.80078l10.69922 2.69922-51.5 81.40039-10.69922-4.90039c0.6-2.2 1.30078-4.89961 1.30078-7.59961 0-6.99999-62.80128-45-171.70117-45-104.1999 0-149 26.1012-149 59.70117 0 88.99991 393.59961-41.30136 393.59961 155.39844 0 71.59993-85.49978 127-256.59961 127-162.99984 0-209.79923-42.29883-225.19922-42.29883-4.1 0-6.10039 2.69883-9.40039 4.29883l-8.69922-1.59961 55.5-92.29883 10.69922 4.29883c0 2.2-1.30078 4.40118-1.30078 8.70117 0 31.99997 86.30087 54.79883 171.80078 54.79883 121.69988 0 163.09961-28.29964 163.09961-58.09961 0-106.39989-388.29883 25.5006-388.29883-154.69922 0-91.19991 118.29857-129.201171 247.89844-129.201171zm1577.80078 5.400391h145.6992v7.59961c-10 1-14 4.29961-14 8.09961 0 4.29999 2.7 8.70157 6 14.10156l193.8008 337c9.4 16.79998 11.9996 20.59922 26.0996 20.69922v7.59961h-133v-7.59961c8.7 0 12-2.70039 12-5.40039 0-5.99999-5.9989-13.5993-50.7988-91.19922h-229.2012c-38.8 70.59993-48.7988 81.40001-48.7988 88.5 0 4.8 4 7.59961 10 8.09961v7.59961h-119v-7.59961c12-0.5 15.9984-3.19963 25.3984-20.59961l182.4004-333.20117c3.4-5.4 7.4004-11.39883 7.4004-16.29883 0-5.99999-5.3-8.70078-14-9.80078v-7.59961zm479.6992 0h1300.3008v395h-1300.3008v-395zm964.9278 36.96289c-86.9767-0.61861-189.2404 5.87111-299.9278 20.13672-1.7 0.2-2.8992 1.8-2.6992 3.5s1.7 2.90078 3.5 2.80078c190.7998-20.49998 347.6 15.59929 357 82.19922 8.4 59.29994-105.3002 117.90043-297 152.90039-11.9-12.09999-28.1-88.60084-38.5-151.80078-0.3-1.9-2.0004-3.2-3.9004-3s-3.2988 1.70156-3.2988 3.60156v182.69922c0 0.9 0.3996 1.80039 1.0996 2.40039 0.6 0.5 1.2996 0.79883 2.0996 0.79883h0.5c327.0997-48.29995 575.1004-144.69969 564.4004-219.59961-6.8906-48.36558-117.227-75.45573-283.2734-76.63672zm-369.7266 30.53711c-314.4997 48.89995-552.7996 143.50007-542.5996 215.5 6.9 48.89995 122.7986 75.90039 295.3984 75.90039 80.1999 0 172.6001-5.89962 272-18.09961 1.4-0.2 2.3012-1.40078 2.2012-2.80078-0.1-1.1-1.3012-2.1-2.7012-2-188.2998 18.29998-337.3988-17.89968-346.7988-84.09961-9.6-67.39993 132.5006-146.20042 323.4004-179.40039 1.4-0.2 2.3-1.50039 2-2.90039-0.2-1.4-1.5004-2.29961-2.9004-2.09961zm-1008 19.30078-78.9004 142.19922h159.0996l-80.1992-142.19922z"/>
</svg>
