<svg enable-background="new 0 0 3839 482.9" version="1.1" viewBox="0 0 3839 482.9" xml:space="preserve" xmlns="http://www.w3.org/2000/svg">
<path d="m971.40039 0c-11.39999 0-22.10001 6.4992295-28.5 17.199219l-66.30078 111.900391v353.80078h452.59959v-102.40039h-314.3984v-87.09961h253.7988l60.5996-102.40039h-314.3984v-14l33.5-56.5c6.4-10.79999 17.1-17.30078 28.5-17.30078h252.3984v-102.2988294l-209.5-0.90039062h-148.29881zm518.59961 0c-14.8 0-28.7 8.4004046-37 22.400391l-79.9004 134.999999v270.90039c0 30.19997 21.4996 54.69922 48.0996 54.69922h54.7012 35.4004 230.7988 90.0996c26.6 0 48.1016-24.49925 48.1016-54.69922v-47.70117-189.09961h-0.6016-14.6992-122.9004-43.9004l-60.3984 102h59v0.40039h45.2988v86.69922h-230.7988v-175.40039l50.0996-84.69922c6.4-10.79999 17.1-17.30078 28.5-17.30078h262.6992v-102.2988294h-220.4004l0.5-0.90039062h-142.6992zm-1168.09961 0.90039062c-22.69998 0-44.00118 12.89884938-56.70117 34.29882838l-265.19922 447.701171h166.5l213-359.70117h84.30078l-213 359.70117h166.5l222.39844-375.5c2.8-4.79999 9.40039-2.50077 9.40039 3.19922v372.30078h138.20117v-481.9999994h-214.60156c-22.69998 0-43.99923 12.79884938-56.69922 34.29882838l-28.30078 47.800781v-82.09960938h-165.79883zm1629.40041 0v482.0996094h138.1992v-189.09961-0.09961-190.60156h23c13.4 0 26 7.60079 33.5 20.30078l100.9004 170.30078h-157.4004l60.5996 102.39844h0.2012 157.1992l51.3008 86.70117h166.5996l-264.9004-447.300781c-12.8-21.699978-34.4004-34.69921837-57.4004-34.69921838h-251.7988zm914.5996 0c-30 0-58.1004 16.99885638-74.9004 45.29882838l-98 165.601561c-3.6 6-5.5 13.09884-5.5 20.29883v19.59961c0 7.19999 1.9 14.30079 5.5 20.30078l98.0996 165.59961c16.8 28.29997 44.9004 45.30078 74.9004 45.30078h29.8008 348.1992v-102.40039h-138.3008-74.7988-107.2012l-69.1992-116.80078c-7.8-13.19999-7.8-30.39962 0-43.59961l69.1992-116.79883h107.2012 74.7988 138.2012v-102.4003894h-259.5-118.5zm416.6992 0v482.0996094h348.2012 29.7988c30 0 58.1004-17.00081 74.9004-45.30078l98.0996-165.59961c3.6-5.99999 5.5-13.09884 5.5-20.29883v-19.60156c0-7.19999-1.9-14.29884-5.5-20.29883l-98.0996-165.701171c-16.8-28.299972-44.9004-45.29882837-74.9004-45.29882838h-118.5-259.5zm138.2012 102.4003894h182l69.1992 116.79883c7.8 13.19999 7.8 30.39962 0 43.59961l-69.1992 116.80078h-182v-277.19922zm-968.9004 73.59961v132.5h171.4004v-132.5h-171.4004z"/>
</svg>
