<?xml version="1.0" encoding="utf-8"?>
<!-- Generator: Adobe Illustrator 25.2.1, SVG Export Plug-In . SVG Version: 6.00 Build 0)  -->
<svg version="1.1" id="Layer_1" xmlns="http://www.w3.org/2000/svg" xmlns:xlink="http://www.w3.org/1999/xlink" x="0px" y="0px"
	 viewBox="0 0 3839 482.9" style="enable-background:new 0 0 3839 482.9;" xml:space="preserve">
<style type="text/css">
	.st0{fill:#3852A0;}
	.st1{fill:#FFFFFF;}
	.st2{fill:#010101;}
</style>
<g>
	<rect x="2451.9" y="176.9" class="st2" width="171.4" height="132.5"/>
	<path class="st2" d="M3735.5,46.2c-16.8-28.3-44.9-45.3-74.9-45.3l-118.5,0h-259.5v482.1l348.2,0h29.8c30,0,58.1-17,74.9-45.3
		l98.1-165.6c3.6-6,5.5-13.1,5.5-20.3v-19.6c0-7.2-1.9-14.3-5.5-20.3L3735.5,46.2z M3602.8,380.5h-182V103.3h182l69.2,116.8
		c7.8,13.2,7.8,30.4,0,43.6L3602.8,380.5z"/>
	<path class="st2" d="M516,35.2L487.7,83V0.9H321.9c-22.7,0-44,12.9-56.7,34.3L0,482.9h166.5l213-359.7h84.3l-213,359.7h166.5
		l222.4-375.5c2.8-4.8,9.4-2.5,9.4,3.2v372.3h138.2V0.9H572.7C550,0.9,528.7,13.7,516,35.2z"/>
	<path class="st2" d="M1076.8,103.2h252.4V0.9L1119.7,0H971.4c-11.4,0-22.1,6.5-28.5,17.2l-66.3,111.9v353.8h452.6V380.5h-314.4
		v-87.1h253.8l60.6-102.4h-314.4v-14l33.5-56.5C1054.7,109.7,1065.4,103.2,1076.8,103.2z"/>
	<path class="st2" d="M2525.4,482.9L2260.5,35.6c-12.8-21.7-34.4-34.7-57.4-34.7h-251.8v482.1h138.2V293.9V103.2h23
		c13.4,0,26,7.6,33.5,20.3l100.9,170.3h-157.4l60.6,102.4h0.2h157.2l51.3,86.7H2525.4z"/>
	<path class="st2" d="M1879.7,191.5H1865h-122.9h-43.9l-60.4,102h59v0.4h45.3v86.7h-230.8V205.2l50.1-84.7
		c6.4-10.8,17.1-17.3,28.5-17.3h262.7V0.9h-220.4l0.5-0.9H1490c-14.8,0-28.7,8.4-37,22.4l-79.9,135v270.9
		c0,30.2,21.5,54.7,48.1,54.7h54.7h35.4h230.8h90.1c26.6,0,48.1-24.5,48.1-54.7v-47.7V191.5H1879.7z"/>
	<path class="st2" d="M3105.7,380.5h-74.8h-107.2l-69.2-116.8c-7.8-13.2-7.8-30.4,0-43.6l69.2-116.8h107.2h74.8h138.2V0.9h-259.5
		l-118.5,0c-30,0-58.1,17-74.9,45.3L2693,211.8c-3.6,6-5.5,13.1-5.5,20.3v19.6c0,7.2,1.9,14.3,5.5,20.3l98.1,165.6
		c16.8,28.3,44.9,45.3,74.9,45.3h29.8l348.2,0V380.5H3105.7z"/>
</g>
</svg>
