<svg enable-background="new 0 0 3839 603" version="1.1" viewBox="0 0 3839 603" xml:space="preserve" xmlns="http://www.w3.org/2000/svg">
<path transform="rotate(-90)" d="m-603.00073-5.5e-4h602.9999976v3839.00005h-602.9999976z"/><path d="m27.099609 27.099609v548.800781h3784.800791v-548.800781h-3784.800791zm49.701172 49.701172h3685.298819v449.298829h-3685.298819v-449.298829zm1048.798819 15.199219c0 7.599976-6.6992 11.90039-22.6992 11.90039h-433.70118v7.59961c14.69994 0 17.40039 4.30081 17.40039 16.30078v347.29883c0 11.89997-2.70045 16.30078-17.40039 16.30078v7.59961h439.70118c16 0 22.6992 4.30042 22.6992 11.90039h9.4004v-89h-9.4004c0 8.79997-6.5992 13.09961-22.6992 13.09961h-327.4004v-106.40039h209.80078c16.00002 0 22.69922 4.30003 22.69922 13h9.4004v-91.19922h-9.4004c0 9.79997-6.6992 14.09961-22.69922 14.09961h-209.80078v-96.5h321.4004c16 0 22.6992 4.29964 22.6992 14.09961h9.4004v-90.09961h-9.4004zm341.5996 6.5c-138.9994 0-296.6992 61.90042-296.6992 203s134.9998 203 288.6992 203c115.5997 0 218.5016-41.20084 260.6016-60.80078v-7.59961c-8.7-1.6-12-4.89964-12-13.59961v-106.90039c0-11.89997 5.9992-16.30039 12.6992-17.40039v-7.59961h-222.5c-13.5 0-21.5-5.40003-21.5-13h-9.4004v95.5h9.4004c0-7.59997 8.0004-13 21.4004-13h114.9004v45c-20 11.89997-69.5015 35.30078-153.7012 35.30078-102.8997 0-193.7988-44.99988-193.7988-141.09961 0-91.69973 90.8995-136.80078 203.1992-136.80078 88.8997 0 161.0996 33.60006 161.0996 50.5 0 3.8-0.6988 7.09922-1.2988 9.19922l9.3984 4.90039 64.8008-89-9.4004-3.29883c-2.7 3.3-8.6992 6-14.6992 6-4.7 0-30.7012-9.8012-66.2012-22.20117-38.0997-9.79997-90.2-20.09961-145-20.09961zm-1089.99998 0.099609c-129.59961 0-247.89844 38.001441-247.89844 129.201171 0 180.19946 388.29883 48.29955 388.29883 154.69922 0 29.79991-41.39997 58.09961-163.09961 58.09961-85.49973 0-171.80078-22.79892-171.80078-54.79883 0-4.29997 1.30078-6.50117 1.30078-8.70117l-10.69922-4.29883-55.5 92.29883 8.69922 1.59961c3.3-1.6 5.30039-4.29883 9.40039-4.29883 15.39997 0 62.1997 42.29883 225.19922 42.29883 171.09949 0 256.59961-55.40021 256.59961-127 0-196.6994-393.59961-66.39871-393.59961-155.39844 0-33.59991 44.8003-59.70117 149-59.70117 108.89967 0 171.70117 38.00003 171.70117 45 0 2.7-0.70078 5.39961-1.30078 7.59961l10.69922 4.90039 51.5-81.40039-10.69922-2.69922c-2 1.6-3.30003 3.80078-12 3.80078-7.99997 0-89.60114-41.201171-205.80078-41.201171zm1577.80078 5.400391v7.59961c8.7 1.1 14 3.80081 14 9.80078 0 4.9-4.0004 10.89883-7.4004 16.29883l-182.4004 333.20117c-9.4 17.39994-13.3984 20.09961-25.3984 20.59961v7.59961h119v-7.59961c-6-0.5-10-3.29961-10-8.09961 0-7.09997 9.9988-17.90021 48.7988-88.5h229.2012c44.7997 77.59976 50.7988 85.19925 50.7988 91.19922 0 2.7-3.3 5.40039-12 5.40039v7.59961h133v-7.59961c-14.1-0.1-16.6996-3.89928-26.0996-20.69922l-193.8008-337c-3.3-5.39997-6-9.80159-6-14.10156 0-3.8 4-7.09961 14-8.09961v-7.59961h-145.6992zm479.6992 0v395h1300.3008v-395h-1300.3008zm964.9278 36.96289c166.046 1.18099 276.3828 28.27124 283.2734 76.63672 10.7 74.89976-237.3013 171.29976-564.4004 219.59961h-0.5c-0.8 0-1.4996-0.29883-2.0996-0.79883-0.7-0.6-1.0996-1.50039-1.0996-2.40039v-182.69922c0-1.9 1.3988-3.40156 3.2988-3.60156s3.6004 1.1 3.9004 3c10.4 63.19982 26.6 139.70081 38.5 151.80078 191.6994-34.9999 305.4-93.60057 297-152.90039-9.4-66.59979-166.2006-102.69916-357-82.19922-1.8 0.1-3.3-1.10078-3.5-2.80078s0.9992-3.3 2.6992-3.5c110.6872-14.26559 212.9511-20.75533 299.9278-20.13672zm-369.7266 30.53711c1.4-0.2 2.7004 0.69961 2.9004 2.09961 0.3 1.4-0.6 2.70039-2 2.90039-190.8994 33.19991-333.0004 112.0006-323.4004 179.40039 9.4 66.19979 158.4994 102.39955 346.7988 84.09961 1.4-0.1 2.6012 0.9 2.7012 2 0.1 1.4-0.8012 2.60078-2.2012 2.80078-99.3997 12.19997-191.8003 18.09961-272 18.09961-172.5994 0-288.4984-27.00054-295.3984-75.90039-10.2-71.99979 228.1005-166.60015 542.5996-215.5zm-1008 19.30078 80.1992 142.19922h-159.0996l78.9004-142.19922z" fill="#b2ae85"/>
</svg>
