<svg enable-background="new 0 0 3839 659.2" version="1.1" viewBox="0 0 3839 659.2" xml:space="preserve" xmlns="http://www.w3.org/2000/svg">
<path d="m347.90039-0.099609375c-16.19998-0.999999025-31.69962 4.000391475-47.09961 4.900390575-7.99999 3.0999969-30.5008 6.2984428-46.80078 11.8984378-27.79997 11.599988-38.00003 16.300795-66 30.300781-13.99999 10.39999-26.70041 14.600402-41.40039 25.900391-8.89999 3.299996-17.39922 12.998829-18.69922 13.798828-12.69999 11.399988-19.40118 13.100402-30.701171 24.400391-4.699996 5.39999-18.799224 21.3004-23.699219 27.90039-17.299983 21.19998-28.600401 45.7008-39.400391 66.80078-7.499992 13.59999-8.999224 23.59884-14.699218 35.79883-1.999998 7.39999-9.100392 24.09961-9.900391 29.59961-0.8999991 12.99999-4.4992214 18.90118-7.1992188 33.20117-3.09999685 16.89998-0.8000017 31.59963-2.49999995 47.09961 1.29999875 6.79999 2.59882785 19.50079 2.29882815 24.80078 2.5999974 22.59998 9.3011756 37.19846 13.2011716 59.89844 3.699997 9.59999 10.099228 32.30158 19.199219 51.10156 3.499997 11.09999 19.299223 36.49845 23.699219 44.89844 20.09998 27.29997 51.201181 56.60118 65.201171 65.20117 3.4 3.4 23.69883 17.19883 29.79883 20.29883 9.29999 5.19999 31.50001 14.40117 43 18.70117 20.79998 6.29999 55.90003 16.2004 91 20.40039 35.09996 4.2 67.20003 1.49961 98.5-1.40039 16.09998-3.3 31.10001-8.29961 43-12.09961 29.29997-11.49999 45.10041-19.40079 65.90039-31.80078 15.29998-9.19999 23.80079-14.10079 33.80078-22.30078 12.99999-10.49999 24.19884-20.29884 34.79883-32.79883 24.79997-28.29997 37.40157-57.7008 44.60156-81.80078 3.2-12.79999 8.69883-54.90002 5.29883-75.5-1.9-23.99998-6.60039-49.59884-9.40039-63.29883-3.1-13.19999-4.39922-23.60079-7.19922-35.30078-2.2-7.39999-5.49961-20.0004-6.59961-24.40039-2.4-8.69999-17.10039-40.3-19.40039-43.5-12.39999-19.29998-22.29963-35.00041-42.59961-49.90039-7.89999-7.39999-19.90118-16.40001-30.20117-23-12.39999-7.49999-21.09884-14.30001-36.29883-18.5-14.19999-4-26.19963-8.99883-47.09961-11.79883-11.29999-2.1-34.20001-7.10117-50-7.20117-34.99996-0.6-46.0016-3.6996-83.10156 11.40039-29.89997 14.19999-51.79925 25.40041-78.19922 46.90039-10.19999 7.39999-17.89962 18.00079-28.59961 30.80078-6.99999 8.29999-11.00079 15.70001-19.30078 27.5-4.6 6.1-8.6004 17.49884-15.40039 30.29883-11.99999 32.09997-13.49922 82.30079-11.19922 94.30078 2 10.69999 3.40039 26.29884 6.40039 33.29883 2.2 5.09999 4.89884 29.40042 18.29883 55.40039 2.6 3.6 11.90079 21.5004 21.30078 31.40039 16.89998 17.99998 39.19963 32.79962 59.09961 41.09961 29.19997 12.89999 78.00041 16.0996 95.90039 11.59961 17.99998-2.6 29.09962-2.89962 43.59961-8.59961 13.29999-3.7 23.60079-8.4 32.30078-12.5 9.99999-5.1 16.50001-8.2004 26-13.90039 6.69999-3.5 14.99922-9.59844 20.19922-14.39844 12.99999-9.49999 21.80118-22.30079 26.70117-32.80078 5.3-11.49999 8.09961-19.8004 8.59961-28.40039 6.99999-51.09995-2.60119-88.79886-19.20117-122.79883-7.79999-13.19999-21.79923-29.00157-35.69922-37.60156-16.49998-10.39999-22.3008-11.80001-42.30078-19-11.69999-3.9-29.39845-5.79922-44.39844-7.19922-18.49998-1.1-38.80001 1.10079-50.5 7.30078-13.19999 6-26.7004 18.89923-37.40039 29.69922-8.19999 11.09999-13.20078 20.79962-17.30078 33.59961-2 11.29999-4.09883 14.60079-4.79883 22.30078-1 11.39999 1.69844 22.79883 2.89844 28.79883 1.1 5.09999 3.20039 10.80001 7.40039 18.5 3.4 6.29999 8.30118 15 12.70117 19 6 5.39999 14.79844 13.50039 20.39844 16.90039 8.39999 6.29999 46.90158 13.80117 62.10156 11.20117 16.89998-1.2 32.79883-3.3008 35.29883-19.80078 3.4-8.59999-0.19962-21.00001-10.09961-26.5-6.59999-2.9-26.49924 2.19961-43.69922-1.40039-24.99997 1.3-31.50079-16.49924-36.80078-33.19922-5.99999-18.39998 8.9004-36.3004 16.40039-44.90039 8.69999-8.89999 23.00002-16.69961 40-14.59961 8.89999 1 30.19962 5.10001 39.09961 9.5 15.99998 7.89999 29.90001 17.7004 36.5 27.90039 6.49999 9.99999 12.40039 26.19884 15.90039 40.29883 3.6 13.99999 1 23.70119 1.5 40.70117 1 12.49999-4.69961 32.59883-8.09961 36.79883-6.29999 8.09999-20.30078 19-20.30078 19-10.19999 7.49999-20.09923 9.90118-34.69922 16.70117-16.29998 7.09999-19.20001 7.20001-35 11-7.79999 1.9-22.6 2.69961-28.5 3.09961-11.79999 0-33.30001-1.20118-46-8.20117-14.19998-4-33.0004-14.49923-42.90039-25.19922-13.19999-12.89999-21.10118-25.49923-25.20117-34.19922-1-2.1-8.3-17.00078-9-19.80078-0.6-2.7-3.69844-16.80079-4.89844-21.30078-1.2-4.5-4.30078-25.09845-4.30078-36.39844-1.1-14.79998 1.1004-37.90119 7.90039-54.20117 6.19999-16.39998 15.60001-31.69962 24-43.09961 6.19999-6.99999 11.49962-18.9004 19.09961-25.90039 9.49999-8.89999 16.60079-13.1004 25.80078-18.40039 19.89998-12.19999 27.09963-16.49845 46.59961-23.39844 6.59999-2.4 24.79962-6.10039 32.59961-7.40039 22.69998-1.7 26.6008-3.30078 50.30078-0.80078 11.09999 1.9 28.49923 5.99961 39.19922 9.59961 37.99996 14.89998 65.29962 38.80001 74.09961 49 14.09999 16.29998 33.09962 39.2008 39.59961 63.80078 6.79999 21.99998 11.40118 39.00041 16.70117 61.90039 4 16.99998 2.9 32.29924 6 49.69922 1 3.3 2.29961 22.10118 1.09961 27.70117-1.4 19.29998-0.20001 18.29963-7 36.59961-5.69999 12.29999-8.99922 22.29923-14.69922 31.69922-5.29999 6.79999-10.80078 14.5-14.30078 19.5-6.19999 8.89999-11.2004 13.00118-19.40039 20.20117-5.6 6-11.40001 8.30001-21 14.5-4.9 4.1-20.9004 13.59884-31.40039 19.29883 0.4-0.4-25.69885 11.40118-48.29883 19.70117-20.89998 7.69999-55.19963 11.09961-80.09961 10.59961-23.59998-0.5-48.20041-2.69961-66.90039-6.09961-10.99999-2.9-48.90001-13.00118-61-19.20117-42.99996-19.29998-81.5012-46.10006-110.201171-108-6.299994-8.59999-16.499221-45.30001-18.699219-56-2.499998-15.39999-8.700781-28.39885-8.800781-47.29883-1.899998-20.89998 0.300781-26.20081-0.199219-51.80078-1.199999-14.29999 5.400394-43.70002 8.900391-59.5 4.999995-15.59998 17.499616-37.49962 24.099609-51.59961 14.69999-28.69997 25.30002-40.89963 46.5-63.59961 21.09998-20.09998 52.9008-43.50001 73.80078-54.999999 19.49998-11.499988 39.29962-20.801178 53.59961-26.701172 17.69998-6.799993 37.29923-8.100003 49.69922-11.5 32.59997-3.799996 44.80002-1.498826 70 0.201172 20.39998 1.399999 34.40002 4.898831 56 7.298828 15.89998 2.099998 41.30079 9.500002 47.30078 11.5 18.69998 5.699995 44.69924 16.70001 60.69922 26.5 17.29998 11.599991 35.5004 27.800791 45.40039 39.800781 11.09999 14.19999 29.69963 36.09964 47.59961 63.59961l10.09961 17c12.79999 19.49998 16.3004 46.49963 24.40039 65.09961 10.39999 22.99998 9.20079 43.10079 18.30078 57.30078 6.59999 10.09999 20.59884 17.1 35.79883 13.5 15.19998-3.7 14.50117-29.40001 13.70117-36.5l-9.09961-40.70117c-4.09999-23.09998-5.1004-31.19886-18.90039-58.79883-12.39999-24.69997-26.90079-51.60119-39.30078-69.70117-7.69999-10.79999-19.89884-28.59884-26.29883-36.79883-6.59999-8.39999-23.50001-25.100006-31.5-31.499999-16.99998-13.499987-65.0012-41.701181-94.70117-50.701172-14.69999-4.499996-42.90003-14.198832-70.5-18.2988284-21.69998-4.6999953-37.69962-5.3011727-50.09961-6.2011718-18.19998-1.69999835-36.39963-2.99882798-54.59961-2.798828175zm495.59961 87.09960938c7.39999 9.099991 10.59961 30.80002 10.59961 47.5v395.90039c0 17.99998-5.4004 40.80002-14.40039 57.5 44.29995 0 169.20038 0.40039 201.90038 0.40039 149.1999 0 259.2012-106.80092 259.2012-250.30078 0-193.29981-155.9013-250.699219-259.2012-250.699219-44.89995 0-149.69965-0.300781-198.0996-0.300781zm174.6055 43.47266c9.9765 0.07812 19.9937 0.42734 30.0937 1.02734 77.4999 4.5 178.2004 41.79938 178.9004 204.69922 0.8 171.89983-128.6992 199.80079-167.1992 205.30078-39.8 5.69999-83.80006 3.7996-131.50001-2.40039v-401.40039c30.22497-5.25 59.77542-7.46094 89.70511-7.22656zm2729.1953 4.72656-68.4004 18.90039c9.4 8.79999 12.5 34.59963 12.5 51.59961 0 0-0.0996 31.50078-0.0996 35.30078-3.1 0-37.8 0.19922-43.5 0.19922v34.80078c5.9 0.2 42.1992 0.19922 42.1992 0.19922v225.5c0 70.79993 48.8 89.70117 85 89.70117 15.3 0.7 37-2.90117 52-6.20117l9.3008-43.69922c-17.7 6.79999-38.1004 8.30078-50.4004 8.30078-22.7 0-39.0996-15.10158-39.0996-38.60156 0-21.09998-0.5-228.09923 0-234.69922 3.3174-0.00149 49.8177-0.19925 54.5996 0 15.4 0.5 27.3 1.4 37.5 5.5l0.0996-41.19922s-90.1996-0.10156-92.0996-0.10156l0.4004-105.5zm-225 92.80078c-58 0-118.9004 25.59929-118.9004 93.69922 0 100.6999 181 87.60047 181 166.90039 0 42.99996-33.6997 65.80078-80.5996 65.80078-33.9 0-80.0004-18.59963-109.4004-39.59961l13.7988 61.59961c29.3 8.39999 64.6004 14.40039 98.4004 14.40039 69.4999 0 132.5-33.90124 132.5-106.70117 0-112.59989-180.7988-109.39927-180.7988-164.19922 0-37.39996 28.7992-56.5 67.1992-56.5 24.1 0 60.9004 5.09963 84.9004 25.59961l0.1992-46.5c-27.1-10.49999-69.5988-14.5-88.2988-14.5zm-2104.7012 1.19922-74.1992 11.60156c11.6 9.19999 15.4 37.89846 15.5 56.39844v254.60156c0 8.39999-3.6004 26.69923-11.4004 36.19922h77.0996c-5.1-10.79999-6.9004-27.79923-6.9004-36.19922v-176.5c0-85.59991 65.6013-117.60152 142.7012-81.10156l19.6992-51.69922c-84.1999-32.79997-143.4 5.09966-162.5 52.09961v-65.40039zm628.7012 0.10156c-31.1 0-80.7004 5.70001-111.4004 18h0.1992v51.5c29.5-17.69998 64.8004-30.80078 107.9004-30.80078 58.6999 0 87.3996 30.20082 79.0996 70.30078-5.1 24.29998-38.3988 31.59883-64.2988 35.29883-46.8 6.59999-154.7012 8.00089-154.7012 121.30078 0 31.69997 21.1009 97.79883 117.8008 97.79883 48.8999 0 77.9-13.99925 102-45.19922l2.2988 40.19922h63.8008c-10.1-18.79998-10.5-45.59847-10.5-73.89844v-152.70117c0-92.19991-52.7993-131.79883-132.1992-131.79883zm1181.5996 0c-31 0-80.7004 5.70001-111.4004 18l0.0996 51.5c29.6-17.69998 64.8004-30.80078 107.9004-30.80078 58.6999 0 87.3996 30.20082 79.0996 70.30078-5 24.29998-38.2988 31.59883-64.2988 35.29883-46.8 6.59999-154.7012 8.00089-154.7012 121.30078 0 31.69997 21.1009 97.79883 117.8008 97.79883 48.9999 0 77.8-13.99925 102-45.19922l2.4004 40.19922h63.6992c-16.7-19.39998-10.5-45.59847-10.5-73.89844v-152.70117c0-92.19991-52.7997-131.79883-132.0996-131.79883zm-832.5 1c-49.6 0-78.8996 28.99963-93.0996 46.59961 0-4.1 0.0996-41.00118 0.0996-45.70117l-75.0996 11.60156c9 9.39999 16 39.09885 16 60.29883v246.20117c0 8.39999-3.6004 28.79845-11.4004 38.39844h81.9004c-7.8-9.49999-11.4004-29.99845-11.4004-38.39844v-185.20117c0-67.69993 41.9993-91.59961 83.6992-91.59961 37.8 0 72 16.29968 72 91.59961v185.30078c0 8.39999-3.6004 28.8004-11.4004 38.40039h79.4004c-7.8-9.49999-11.4004-30.0004-11.4004-38.40039v-185.30078c0-75.09993 46.4008-91.59961 84.3008-91.59961 37.8 0 77.3008 23.69968 77.3008 91.59961v185.30078c0 8.39999-3.6004 28.8004-11.4004 38.40039h76.5996c-7.8-9.49999-11.4004-30.0004-11.4004-38.40039v-220.5c0-37.59996-38.4005-97.80078-127.9004-97.80078-52.0999 0-82.2 23.19963-105 43.09961-19.4-22.69998-50.9989-43.89844-101.7988-43.89844zm-665 0.29883c-104.0999 0-165.8008 81.40128-165.8008 185.20117 0 93.79991 68.8001 177.69922 186.5 177.69922 37.3 0 68.4-9.1004 102-20.90039l11.8008-60c-28.7 23.69998-75.1997 37.70117-117.0996 37.70117-75.3999-0.3-123.5016-54.80008-123.1016-138 0.1-8.59999 1.2012-16.70157 2.2012-24.60156h246.0996c0-84.59992-42.2997-157.09961-142.5996-157.09961zm1222.5996 0.30078c-108.1999 0-188.1992 72.89932-188.1992 176.69922 0 93.89991 59.5989 184.09961 186.7988 184.09961 37.1 0 65.1997-4.69923 98.5996-14.69922l13.3008-59.69922c-32.7 20.09998-75 34.09961-106 34.09961-90.4999 0-132-62.20047-132-143.40039 0-81.99992 42.4001-138.90039 135-138.90039 26.4 0 64.1996 11.00001 88.0996 25l0.2012-47.59961c-14-4-48.5008-15.59961-95.8008-15.59961zm-1226.6992 36.09961c69.6999 0 89.7988 54.39964 89.7988 83.09961-0.1 0-181.5 0.1-181.5 0 8-41.19996 46.1012-83.09961 91.7012-83.09961zm398.7988 125.5v57.40039c0 45.79995-20.7989 103.90039-101.2988 103.90039-30.4 0-68.8008-27.70042-68.8008-62.90039 0-59.29994 52.7993-69.4004 113.6992-77.40039 23.2-3 45.7004-10.90001 56.4004-21zm1181.5 0 0.0996 57.40039c0 45.79995-20.7989 103.90039-101.2988 103.90039-30.4 0-68.8008-27.70042-68.8008-62.90039 0-59.29994 52.6997-69.4004 113.5996-77.40039 23.2-3 45.7004-10.90001 56.4004-21z"/>
</svg>
