<svg enable-background="new 0 0 3839 659.2" version="1.1" viewBox="0 0 3839 659.2" xml:space="preserve" xmlns="http://www.w3.org/2000/svg">
<path d="m843.5 87c7.39999 9.099991 10.59961 30.80002 10.59961 47.5v395.90039c0 17.99998-5.4004 40.80002-14.40039 57.5 44.29995 0 169.20038 0.40039 201.90038 0.40039 149.1999 0 259.2012-106.80092 259.2012-250.30078 0-193.29981-155.9013-250.699219-259.2012-250.699219-44.89995 0-149.69965-0.300781-198.0996-0.300781zm174.6055 43.47266c9.9765 0.07812 19.9937 0.42734 30.0937 1.02734 77.4999 4.5 178.2004 41.79938 178.9004 204.69922 0.8 171.89983-128.6992 199.80079-167.1992 205.30078-39.8 5.69999-83.80006 3.7996-131.50001-2.40039v-401.40039c30.22497-5.25 59.77542-7.46094 89.70511-7.22656zm2729.1953 4.72656-68.4004 18.90039c9.4 8.79999 12.5 34.59963 12.5 51.59961 0 0-0.0996 31.50078-0.0996 35.30078-3.1 0-37.8 0.19922-43.5 0.19922v34.80078c5.9 0.2 42.1992 0.19922 42.1992 0.19922v225.5c0 70.79993 48.8 89.70117 85 89.70117 15.3 0.7 37-2.90117 52-6.20117l9.3008-43.69922c-17.7 6.79999-38.1004 8.30078-50.4004 8.30078-22.7 0-39.0996-15.10158-39.0996-38.60156 0-21.09998-0.5-228.09923 0-234.69922 3.3174-0.00149 49.8177-0.19925 54.5996 0 15.4 0.5 27.3 1.4 37.5 5.5l0.0996-41.19922s-90.1996-0.10156-92.0996-0.10156l0.4004-105.5zm-225 92.80078c-58 0-118.9004 25.59929-118.9004 93.69922 0 100.6999 181 87.60047 181 166.90039 0 42.99996-33.6997 65.80078-80.5996 65.80078-33.9 0-80.0004-18.59963-109.4004-39.59961l13.7988 61.59961c29.3 8.39999 64.6004 14.40039 98.4004 14.40039 69.4999 0 132.5-33.90124 132.5-106.70117 0-112.59989-180.7988-109.39927-180.7988-164.19922 0-37.39996 28.7992-56.5 67.1992-56.5 24.1 0 60.9004 5.09963 84.9004 25.59961l0.1992-46.5c-27.1-10.49999-69.5988-14.5-88.2988-14.5zm-2104.7012 1.19922-74.1992 11.60156c11.6 9.19999 15.4 37.89846 15.5 56.39844v254.60156c0 8.39999-3.6004 26.69923-11.4004 36.19922h77.0996c-5.1-10.79999-6.9004-27.79923-6.9004-36.19922v-176.5c0-85.59991 65.6013-117.60152 142.7012-81.10156l19.6992-51.69922c-84.1999-32.79997-143.4 5.09966-162.5 52.09961v-65.40039zm628.7012 0.10156c-31.1 0-80.7004 5.70001-111.4004 18h0.1992v51.5c29.5-17.69998 64.8004-30.80078 107.9004-30.80078 58.6999 0 87.3996 30.20082 79.0996 70.30078-5.1 24.29998-38.3988 31.59883-64.2988 35.29883-46.8 6.59999-154.7012 8.00089-154.7012 121.30078 0 31.69997 21.1009 97.79883 117.8008 97.79883 48.8999 0 77.9-13.99925 102-45.19922l2.2988 40.19922h63.8008c-10.1-18.79998-10.5-45.59847-10.5-73.89844v-152.70117c0-92.19991-52.7993-131.79883-132.1992-131.79883zm1181.5996 0c-31 0-80.7004 5.70001-111.4004 18l0.0996 51.5c29.6-17.69998 64.8004-30.80078 107.9004-30.80078 58.6999 0 87.3996 30.20082 79.0996 70.30078-5 24.29998-38.2988 31.59883-64.2988 35.29883-46.8 6.59999-154.7012 8.00089-154.7012 121.30078 0 31.69997 21.1009 97.79883 117.8008 97.79883 48.9999 0 77.8-13.99925 102-45.19922l2.4004 40.19922h63.6992c-16.7-19.39998-10.5-45.59847-10.5-73.89844v-152.70117c0-92.19991-52.7997-131.79883-132.0996-131.79883zm-832.5 1c-49.6 0-78.8996 28.99963-93.0996 46.59961 0-4.1 0.0996-41.00118 0.0996-45.70117l-75.0996 11.60156c9 9.39999 16 39.09885 16 60.29883v246.20117c0 8.39999-3.6004 28.79845-11.4004 38.39844h81.9004c-7.8-9.49999-11.4004-29.99845-11.4004-38.39844v-185.20117c0-67.69993 41.9993-91.59961 83.6992-91.59961 37.8 0 72 16.29968 72 91.59961v185.30078c0 8.39999-3.6004 28.8004-11.4004 38.40039h79.4004c-7.8-9.49999-11.4004-30.0004-11.4004-38.40039v-185.30078c0-75.09993 46.4008-91.59961 84.3008-91.59961 37.8 0 77.3008 23.69968 77.3008 91.59961v185.30078c0 8.39999-3.6004 28.8004-11.4004 38.40039h76.5996c-7.8-9.49999-11.4004-30.0004-11.4004-38.40039v-220.5c0-37.59996-38.4005-97.80078-127.9004-97.80078-52.0999 0-82.2 23.19963-105 43.09961-19.4-22.69998-50.9989-43.89844-101.7988-43.89844zm-665 0.29883c-104.0999 0-165.8008 81.40128-165.8008 185.20117 0 93.79991 68.8001 177.69922 186.5 177.69922 37.3 0 68.4-9.1004 102-20.90039l11.8008-60c-28.7 23.69998-75.1997 37.70117-117.0996 37.70117-75.3999-0.3-123.5016-54.80008-123.1016-138 0.1-8.59999 1.2012-16.70157 2.2012-24.60156h246.0996c0-84.59992-42.2997-157.09961-142.5996-157.09961zm1222.5996 0.30078c-108.1999 0-188.1992 72.89932-188.1992 176.69922 0 93.89991 59.5989 184.09961 186.7988 184.09961 37.1 0 65.1997-4.69923 98.5996-14.69922l13.3008-59.69922c-32.7 20.09998-75 34.09961-106 34.09961-90.4999 0-132-62.20047-132-143.40039 0-81.99992 42.4001-138.90039 135-138.90039 26.4 0 64.1996 11.00001 88.0996 25l0.2012-47.59961c-14-4-48.5008-15.59961-95.8008-15.59961zm-1226.6992 36.09961c69.6999 0 89.7988 54.39964 89.7988 83.09961-0.1 0-181.5 0.1-181.5 0 8-41.19996 46.1012-83.09961 91.7012-83.09961zm398.7988 125.5v57.40039c0 45.79995-20.7989 103.90039-101.2988 103.90039-30.4 0-68.8008-27.70042-68.8008-62.90039 0-59.29994 52.7993-69.4004 113.6992-77.40039 23.2-3 45.7004-10.90001 56.4004-21zm1181.5 0 0.0996 57.40039c0 45.79995-20.7989 103.90039-101.2988 103.90039-30.4 0-68.8008-27.70042-68.8008-62.90039 0-59.29994 52.6997-69.4004 113.5996-77.40039 23.2-3 45.7004-10.90001 56.4004-21z"/><path fill="#CF3312" d="m452.6 8.9c27.6 4.1 55.8 13.8 70.5 18.3 29.7 9 77.7 37.2 94.7 50.7 8 6.4 24.9 23.1 31.5 31.5 6.4 8.2 18.6 26 26.3 36.8 12.4 18.1 26.9 45 39.3 69.7 13.8 27.6 14.8 35.7 18.9 58.8l9.1 40.7c0.8 7.1 1.5 32.8-13.7 36.5-15.2 3.6-29.2-3.4-35.8-13.5-9.1-14.2-7.9-34.3-18.3-57.3-8.1-18.6-11.6-45.6-24.4-65.1l-10.1-17c-17.9-27.5-36.5-49.4-47.6-63.6-9.9-12-28.1-28.2-45.4-39.8-16-9.8-42-20.8-60.7-26.5-6-2-31.4-9.4-47.3-11.5-21.6-2.4-35.6-5.9-56-7.3-25.2-1.7-37.4-4-70-0.2-12.4 3.4-32 4.7-49.7 11.5-14.3 5.9-34.1 15.2-53.6 26.7-20.9 11.5-52.7 34.9-73.8 55-21.2 22.7-31.8 34.9-46.5 63.6-6.6 14.1-19.1 36-24.1 51.6-3.5 15.8-10.1 45.2-8.9 59.5 0.5 25.6-1.7 30.9 0.2 51.8 0.1 18.9 6.3 31.9 8.8 47.3 2.2 10.7 12.4 47.4 18.7 56 28.7 61.9 67.2 88.7 110.2 108 12.1 6.2 50 16.3 61 19.2 18.7 3.4 43.3 5.6 66.9 6.1 24.9 0.5 59.2-2.9 80.1-10.6 22.6-8.3 48.7-20.1 48.3-19.7 10.5-5.7 26.5-15.2 31.4-19.3 9.6-6.2 15.4-8.5 21-14.5 8.2-7.2 13.2-11.3 19.4-20.2 3.5-5 9-12.7 14.3-19.5 5.7-9.4 9-19.4 14.7-31.7 6.8-18.3 5.6-17.3 7-36.6 1.2-5.6-0.1-24.4-1.1-27.7-3.1-17.4-2-32.7-6-49.7-5.3-22.9-9.9-39.9-16.7-61.9-6.5-24.6-25.5-47.5-39.6-63.8-8.8-10.2-36.1-34.1-74.1-49-10.7-3.6-28.1-7.7-39.2-9.6-23.7-2.5-27.6-0.9-50.3 0.8-7.8 1.3-26 5-32.6 7.4-19.5 6.9-26.7 11.2-46.6 23.4-9.2 5.3-16.3 9.5-25.8 18.4-7.6 7-12.9 18.9-19.1 25.9-8.4 11.4-17.8 26.7-24 43.1-6.8 16.3-9 39.4-7.9 54.2 0 11.3 3.1 31.9 4.3 36.4s4.3 18.6 4.9 21.3c0.7 2.8 8 17.7 9 19.8 4.1 8.7 12 21.3 25.2 34.2 9.9 10.7 28.7 21.2 42.9 25.2 12.7 7 34.2 8.2 46 8.2 5.9-0.4 20.7-1.2 28.5-3.1 15.8-3.8 18.7-3.9 35-11 14.6-6.8 24.5-9.2 34.7-16.7 0 0 14-10.9 20.3-19 3.4-4.2 9.1-24.3 8.1-36.8-0.5-17 2.1-26.7-1.5-40.7-3.5-14.1-9.4-30.3-15.9-40.3-6.6-10.2-20.5-20-36.5-27.9-8.9-4.4-30.2-8.5-39.1-9.5-17-2.1-31.3 5.7-40 14.6-7.5 8.6-22.4 26.5-16.4 44.9 5.3 16.7 11.8 34.5 36.8 33.2 17.2 3.6 37.1-1.5 43.7 1.4 9.9 5.5 13.5 17.9 10.1 26.5-2.5 16.5-18.4 18.6-35.3 19.8-15.2 2.6-53.7-4.9-62.1-11.2-5.6-3.4-14.4-11.5-20.4-16.9-4.4-4-9.3-12.7-12.7-19-4.2-7.7-6.3-13.4-7.4-18.5-1.2-6-3.9-17.4-2.9-28.8 0.7-7.7 2.8-11 4.8-22.3 4.1-12.8 9.1-22.5 17.3-33.6 10.7-10.8 24.2-23.7 37.4-29.7 11.7-6.2 32-8.4 50.5-7.3 15 1.4 32.7 3.3 44.4 7.2 20 7.2 25.8 8.6 42.3 19 13.9 8.6 27.9 24.4 35.7 37.6 16.6 34 26.2 71.7 19.2 122.8-0.5 8.6-3.3 16.9-8.6 28.4-4.9 10.5-13.7 23.3-26.7 32.8-5.2 4.8-13.5 10.9-20.2 14.4-9.5 5.7-16 8.8-26 13.9-8.7 4.1-19 8.8-32.3 12.5-14.5 5.7-25.6 6-43.6 8.6-17.9 4.5-66.7 1.3-95.9-11.6-19.9-8.3-42.2-23.1-59.1-41.1-9.4-9.9-18.7-27.8-21.3-31.4-13.4-26-16.1-50.3-18.3-55.4-3-7-4.4-22.6-6.4-33.3-2.3-12-0.8-62.2 11.2-94.3 6.8-12.8 10.8-24.2 15.4-30.3 8.3-11.8 12.3-19.2 19.3-27.5 10.7-12.8 18.4-23.4 28.6-30.8 26.4-21.5 48.3-32.7 78.2-46.9 37.1-15.1 48.1-12 83.1-11.4 15.8 0.1 38.7 5.1 50 7.2 20.9 2.8 32.9 7.8 47.1 11.8 15.2 4.2 23.9 11 36.3 18.5 10.3 6.6 22.3 15.6 30.2 23 20.3 14.9 30.2 30.6 42.6 49.9 2.3 3.2 17 34.8 19.4 43.5 1.1 4.4 4.4 17 6.6 24.4 2.8 11.7 4.1 22.1 7.2 35.3 2.8 13.7 7.5 39.3 9.4 63.3 3.4 20.6-2.1 62.7-5.3 75.5-7.2 24.1-19.8 53.5-44.6 81.8-10.6 12.5-21.8 22.3-34.8 32.8-10 8.2-18.5 13.1-33.8 22.3-20.8 12.4-36.6 20.3-65.9 31.8-11.9 3.8-26.9 8.8-43 12.1-31.3 2.9-63.4 5.6-98.5 1.4s-70.2-14.1-91-20.4c-11.5-4.3-33.7-13.5-43-18.7-6.1-3.1-26.4-16.9-29.8-20.3-14-8.6-45.1-37.9-65.2-65.2-4.4-8.4-20.2-33.8-23.7-44.9-9.1-18.8-15.5-41.5-19.2-51.1-3.9-22.7-10.6-37.3-13.2-59.9 0.3-5.3-1-18-2.3-24.8 1.7-15.5-0.6-30.2 2.5-47.1 2.7-14.3 6.3-20.2 7.2-33.2 0.8-5.5 7.9-22.2 9.9-29.6 5.7-12.2 7.2-22.2 14.7-35.8 10.8-21.1 22.1-45.6 39.4-66.8 4.9-6.6 19-22.5 23.7-27.9 11.3-11.3 18-13 30.7-24.4 1.3-0.8 9.8-10.5 18.7-13.8 14.7-11.3 27.4-15.5 41.4-25.9 28-14 38.2-18.7 66-30.3 16.3-5.6 38.8-8.8 46.8-11.9 15.4-0.9 30.9-5.9 47.1-4.9 18.2-0.2 36.4 1.1 54.6 2.8 12.4 0.9 28.4 1.5 50.1 6.2z"/>
</svg>
