<svg enable-background="new 0 0 3840 555.2" version="1.1" viewBox="0 0 3840 555.2" xml:space="preserve" xmlns="http://www.w3.org/2000/svg">
<style type="text/css">
	.st0{fill:#334FA2;}
	.st1{fill:#F01B25;}
	.st2{fill:#354EA2;}
	.st3{fill:#23B057;}
	.st4{fill:#FFA623;}
	.st5{fill:#FFFFFF;}
</style>
<path d="m3500.7168-0.0859375c-2.9234 0.023437477-6.1418 0.110156425-9.7168 0.28515625-54.0999 1.39999855-98.2996 17.40159425-132.5996 49.10156225-36 33.799966-58 86.199669-58 148.099609 0 76.19992 40.5001 147.19922 133.5 147.19922 70.4999 0 123.0996-53.29929 123.0996-121.69922 0-71.59993-47.9008-109.5-100.3008-109.5-27.3 0-47.6 6.60002-64 21h-1.5996c9.1-31.89997 35.7009-59.899612 101.8008-63.099609 11.3-0.499999 19.3992-0.701562 27.6992-0.101562h0.0996v-70.39843775c-5.1-0.44999955-11.2121-0.95703118-19.9824-0.88671875zm192.6836 5.1855469-111.8008 199.3007806v59.79883h139.3008v74.90039h83.7988v-74.90039h35.4004v-68.59961h-35.4004v-190.5000006h-111.2988zm28 66.5996096h1.7988c-1.1 23.199977-2.2988 45.300021-2.2988 66.500001v57.40039h-58.4004l0.3008-1.09961 27.3984-55.59961c11.7-23.19998 20.7012-44.601194 31.2012-67.201171zm-685.3008 44.000001c-136.2999 0-204.2988 89.6013-204.2988 219.70117s67.8989 219.69922 204.2988 219.69922 204.3008-89.59935 204.3008-219.69922-67.9009-219.70117-204.3008-219.70117zm-3036.0996 11v417.40039h127v-240.90039h1.19922l83.80078 240.90039h187.80078v-417.40039h-127.10156v239.30078h-1l-83.79883-239.30078h-187.90039zm476.5 0v417.40039h156.69922v-417.40039h-156.69922zm232.30078 0v417.40039h127v-240.90039h1l83.79883 240.90039h187.90039v-417.40039h-127v239.30078h-1.19922l-83.70117-239.30078h-187.79883zm445.09962 0v113.5h99.5996v303.90039h156.6992v-303.90039h99.8008v-113.5h-356.0996zm402.4004 0v417.30078h314.7988v-109.5h-160.5v-46.80078h143.2012v-107h-143.2012v-43.69922h155.5996v-110.30078h-309.8984zm372.6992 0v417.40039h127.0996v-240.90039h1l83.8008 240.90039h187.9004v-417.40039h-127v239.30078h-1.2012l-83.7988-239.30078h-187.8008zm467.1992 0v417.40039h194.9004c121.5999 0 199.4004-78.09974 199.4004-204.09961 0-123.69988-50.3994-213.30078-208.6992-213.30078h-185.6016zm1030.9004 51.5c28.9 0 39.7008 25.6008 39.8008 49.30078 0 27.99997-12.9004 49.90039-34.4004 49.90039v-0.09961h-0.5996c-29.2 0-42.1004-28.0012-43.9004-54.70117 0-9.89999 0.8008-15.8004 2.8008-19.90039 5.1-13.49999 18.7988-24.5 36.2988-24.5zm-877.5 43.30078h15.3008c25.2 0 42.1004 7.79963 51.9004 24.59961 10.5 17.29998 11.5996 48.90043 11.5996 89.40039 0 40.39996-1.0996 72.0008-11.5996 89.30078-9.8 16.79998-26.7004 24.5-51.9004 24.5h-15.3008v-227.80078zm486.5 0.09961c25.2 0 42.0996 14.10049 42.0996 113.90039 0 102.0999-17.9996 113.90039-42.0996 113.90039-24 0-42.1992-11.80049-42.1992-113.90039 0-99.7999 16.9992-113.90039 42.1992-113.90039z"/>
</svg>
