<?xml version="1.0" encoding="utf-8"?>
<!-- Generator: Adobe Illustrator 25.1.0, SVG Export Plug-In . SVG Version: 6.00 Build 0)  -->
<svg version="1.1" id="Layer_1" xmlns="http://www.w3.org/2000/svg" xmlns:xlink="http://www.w3.org/1999/xlink" x="0px" y="0px"
	 viewBox="0 0 3840 857.9" style="enable-background:new 0 0 3840 857.9;" xml:space="preserve">
<style type="text/css">
	.st0{fill:#334FA2;}
	.st1{fill:#F01B25;}
	.st2{fill:#354EA2;}
	.st3{fill:#23B057;}
	.st4{fill:#FFA623;}
	.st5{fill:#FFFFFF;}
</style>
<g>
	<g>
		<g>
			<polyline class="st0" points="1145.7,626.9 1285.1,626.9 1285.1,316.9 1190.8,316.9 1190.8,494.7 1190,494.7 1127.8,316.9 
				988.3,316.9 988.3,626.9 1082.6,626.9 1082.6,448 1083.4,448 1145.7,626.9 			"/>
		</g>
		<g>
			<polyline class="st0" points="1672,626.9 1811.5,626.9 1811.5,316.9 1717.1,316.9 1717.1,494.7 1716.3,494.7 1654.1,316.9 
				1514.6,316.9 1514.6,626.9 1609,626.9 1609,448 1609.7,448 1672,626.9 			"/>
		</g>
		<g>
			<polyline class="st0" points="2578.2,626.9 2717.7,626.9 2717.7,316.9 2623.4,316.9 2623.4,494.7 2622.5,494.7 2560.3,316.9 
				2420.8,316.9 2420.8,626.9 2515.2,626.9 2515.2,448 2515.9,448 2578.2,626.9 			"/>
		</g>
		<g>
			<rect x="1342.2" y="316.9" class="st0" width="116.3" height="310"/>
		</g>
		<g>
			<polyline class="st0" points="1919.2,401.2 1845.2,401.2 1845.2,316.9 2109.7,316.9 2109.7,401.2 2035.5,401.2 2035.5,626.9 
				1919.2,626.9 1919.2,401.2 			"/>
		</g>
		<g>
			<path class="st0" d="M2881.7,556.5h11.4c18.7,0,31.3-5.7,38.6-18.2c7.8-12.9,8.6-36.3,8.6-66.3c0-30.1-0.8-53.5-8.6-66.4
				c-7.3-12.4-19.8-18.2-38.6-18.2h-11.4V556.5 M2767.8,316.9h137.9c117.6,0,155,66.5,155,158.4c0,93.6-57.8,151.6-148.1,151.6
				h-144.8V316.9z"/>
		</g>
		<g>
			<path class="st0" d="M3243,556.5c17.9,0,31.3-8.8,31.3-84.6c0-74.1-12.6-84.6-31.3-84.6c-18.7,0-31.4,10.5-31.4,84.6
				C3211.7,547.8,3225.2,556.5,3243,556.5 M3243,308.7c101.3,0,151.7,66.5,151.7,163.2c0,96.6-50.4,163.2-151.7,163.2
				c-101.3,0-151.8-66.5-151.8-163.2C3091.3,375.3,3141.8,308.7,3243,308.7z"/>
		</g>
		<g>
			<path class="st1" d="M3537.4,428.8c16,0,25.6-16.2,25.6-37c-0.1-17.6-8.1-36.6-29.5-36.6c-13,0-23.2,8.2-27,18.2
				c-1.5,3.1-2,7.5-2,14.8c1.4,19.8,10.9,40.6,32.6,40.6H3537.4 M3602.8,275.7c-6.2-0.4-12.2-0.3-20.6,0.1
				c-49.1,2.3-68.9,23.2-75.6,46.8h1.2c12.2-10.7,27.3-15.6,47.6-15.6c38.9,0,74.5,28.2,74.5,81.3c0,50.8-39.1,90.4-91.4,90.4
				c-69.1,0-99.2-52.7-99.2-109.3c0-46,16.3-84.9,43-110c25.5-23.6,58.3-35.5,98.5-36.4c10.7-0.6,17,0,22.1,0.5V275.7z"/>
		</g>
		<g>
			<path class="st1" d="M3751.5,368v-42.7c0-15.7,0.9-32.1,1.7-49.4h-1.3c-7.8,16.8-14.5,32.7-23.1,49.9l-20.4,41.3l-0.3,0.8H3751.5
				 M3751.5,474.6V419h-103.4v-44.4l83-148h82.6V368h26.3V419h-26.3v55.6H3751.5z"/>
		</g>
		<g>
			<polyline class="st0" points="2144,316.9 2374.2,316.9 2374.2,398.8 2258.6,398.8 2258.6,431.2 2365,431.2 2365,510.7 
				2258.6,510.7 2258.6,545.5 2377.8,545.5 2377.8,626.8 2144,626.8 2144,316.9 			"/>
		</g>
	</g>
	<g>
		<g id="layer2_57_">
			<g id="polygon3542_57_">
				<polygon class="st2" points="429.5,92.8 330.5,269.6 429.5,231.7 524.1,267.9 549.4,239.5 549.4,46.3 				"/>
			</g>
			<g id="polygon3558_57_">
				<polygon class="st2" points="737.4,728.2 558.4,494.6 558.4,803.4 429.5,857.9 429.5,330.4 558.4,281 737.4,536.8 737.4,211.6 
					859.1,164.7 859.1,677 				"/>
			</g>
			<g id="polygon3560_57_">
				<polygon class="st2" points="121.7,728.2 235.9,677.6 121.7,455.9 				"/>
			</g>
		</g>
		<g id="layer3_57_">
			<g id="polygon3538_57_">
				<polygon class="st3" points="243.4,164.7 300.7,281 330.5,269.6 429.5,92.8 309.6,46.2 				"/>
			</g>
			<g id="polygon3540_57_">
				<polygon class="st3" points="524.1,267.9 615.7,164.7 737.4,211.6 737.4,536.8 558.4,281 				"/>
			</g>
			<g id="polygon3552_57_">
				<polygon class="st3" points="121.7,211.6 0,164.7 0,677 121.7,728.2 121.7,455.9 300.7,803.4 429.5,857.9 429.5,330.4 
					300.7,281 300.7,548.8 				"/>
			</g>
		</g>
		<g id="layer4_57_">
			<g id="polygon3554_57_">
				<polygon class="st1" points="300.7,281 300.7,548.8 121.7,211.6 243.4,164.7 				"/>
			</g>
			<g id="polygon3556_57_">
				<polygon class="st1" points="737.4,728.2 558.4,494.6 558.4,622.2 595,673.5 				"/>
			</g>
		</g>
		<g id="layer5_57_">
			<g id="polygon3544_57_">
				<polygon class="st4" points="558.4,281 429.5,330.4 300.7,281 429.5,231.7 				"/>
			</g>
			<g id="polygon3546_57_">
				<polygon class="st4" points="615.7,164.7 737.4,117.9 859.1,164.7 737.4,211.6 				"/>
			</g>
			<g id="polygon3548_57_">
				<polygon class="st4" points="0,164.7 121.7,117.9 243.4,164.7 121.7,211.6 				"/>
			</g>
			<g id="polygon3550_57_">
				<polygon class="st4" points="549.4,46.3 429.5,0 309.6,46.2 429.5,92.8 				"/>
			</g>
		</g>
	</g>
</g>
</svg>
