<svg enable-background="new 0 0 3840 857.9" version="1.1" viewBox="0 0 3840 857.9" xml:space="preserve" xmlns="http://www.w3.org/2000/svg">
<path d="m3243 308.69922c-101.1999 0-151.7008 66.60127-151.8008 163.20117 0 96.6999 50.5009 163.19922 151.8008 163.19922s151.6992-66.59932 151.6992-163.19922c0-96.6999-50.3993-163.20117-151.6992-163.20117zm-2254.69922 8.20117v310h94.29882v-178.90039h0.8008l62.2988 178.90039h139.4004v-310h-94.2988v177.79883h-0.8008l-62.1992-177.79883h-139.50002zm353.89842 0v310h116.3008v-310h-116.3008zm172.4004 0v310h94.4004v-178.90039h0.6992l62.3008 178.90039h139.5v-310h-94.4004v177.79883h-0.7988l-62.2012-177.79883h-139.5zm330.5996 0v84.29883h74v225.70117h116.3008v-225.70117h74.1992v-84.29883h-264.5zm298.8008 0v309.90039h233.8008v-81.30078h-119.2012v-34.80078h106.4004v-79.5h-106.4004v-32.39844h115.5996v-81.90039h-230.1992zm276.8008 0v310h94.3984v-178.90039h0.7012l62.2988 178.90039h139.5v-310h-94.2988v177.79883h-0.9004l-62.1992-177.79883h-139.5zm347 0v310h144.7988c90.2999 0 148.0996-57.9997 148.0996-151.59961 0-91.89991-37.4001-158.40039-155-158.40039h-137.8984zm475.1992 70.40039c18.7 0 31.3008 10.49968 31.3008 84.59961 0 75.79992-13.4008 84.59961-31.3008 84.59961-17.8 0-31.3004-8.69969-31.4004-84.59961 0-74.09993 12.7004-84.59961 31.4004-84.59961zm-361.3008 0.09961h11.4004c18.8 0 31.2996 5.79923 38.5996 18.19922 7.8 12.89999 8.6016 36.30042 8.6016 66.40039 0 29.99997-0.8016 53.40079-8.6016 66.30078-7.3 12.49999-19.8996 18.19922-38.5996 18.19922h-11.4004v-169.09961z" fill="#334fa2"/><path fill="#F01B25" d="m243.40039 164.69922-121.70117 46.90039 179 337.20117v-267.80078l-57.29883-116.30078zm3344.65041 58.05469c-2.175 0.02031-4.575 0.09609-7.25 0.24609-40.2 0.9-73 12.80041-98.5 36.40039-26.7 25.09998-43 64.00005-43 110 0 56.59994 30.0993 109.29883 99.1992 109.29883 52.2999 0 91.4004-39.59849 91.4004-90.39844 0-53.09995-35.6-81.30078-74.5-81.30078-20.3 0-35.3996 4.89962-47.5996 15.59961h-1.2012c6.7-23.59998 26.4997-44.49883 75.5996-46.79883 8.4-0.4 14.4016-0.50156 20.6016-0.10156h0.0996v-52.19922c-3.825-0.375-8.3246-0.80703-14.8496-0.74609zm143.0488 3.8457-83 148v44.40039h103.4004v55.59961h62.1992v-55.59961h26.3008v-51h-26.3008v-141.40039h-82.5996zm20.8008 49.30078h1.2988c-0.8 17.29998-1.6992 33.70041-1.6992 49.40039v42.59961h-43.4004l0.3008-0.80078 20.4004-41.29883c8.6-17.19998 15.2996-33.10041 23.0996-49.90039zm-218.4004 79.29883c21.4 0 29.4 19.00158 29.5 36.60156 0 20.79998-9.5996 37-25.5996 37h-0.3008c-21.7 0-31.1996-20.80158-32.5996-40.60156 0-7.29999 0.5-11.69883 2-14.79883 3.8-9.99999 14-18.20117 27-18.20117zm-2975.09961 139.40039v127.59961l36.59961 51.30078 142.40039 54.69922-179-233.59961z"/><path d="m549.40039 46.300781-119.90039 46.5-99 176.798829 99-37.90039 94.59961 36.20117 25.30078-28.40039v-193.199219zm309.69922 118.398439-121.69922 46.90039v325.20117l-179-255.80078-128.90039 49.40039v527.5l128.90039-54.5v-308.80078l179 233.59961 121.69922-51.19922v-512.30078zm-737.40039 291.20117v272.29883l114.20117-50.59961-114.20117-221.69922z" fill="#354ea2"/><path d="m309.59961 46.199219-66.19922 118.500001 57.29883 116.30078 29.80078-11.40039 99-176.798829-119.90039-46.601562zm-8.90039 234.800781v267.80078l-179-337.20117-121.69922-46.90039v512.30078l121.69922 51.19922v-272.29883l179 347.5 128.80078 54.5v-527.5l-128.80078-49.40039zm315-116.30078-91.59961 103.20117 34.30078 13.09961 179 255.80078v-325.20117l-121.70117-46.90039z" fill="#23b057"/><path d="m429.5 0-119.90039 46.199219 119.90039 46.601562 119.90039-46.5-119.90039-46.300781zm-307.80078 117.90039-121.69922 46.79883 121.69922 46.90039 121.70117-46.90039-121.70117-46.79883zm615.70117 0-121.70117 46.79883 121.70117 46.90039 121.69922-46.90039-121.69922-46.79883zm-307.90039 113.79883-128.80078 49.30078 128.80078 49.40039 128.90039-49.40039-128.90039-49.30078z" fill="#ffa623"/>
</svg>
