<?xml version="1.0" encoding="utf-8"?>
<!-- Generator: Adobe Illustrator 25.1.0, SVG Export Plug-In . SVG Version: 6.00 Build 0)  -->
<svg version="1.1" id="Layer_1" xmlns="http://www.w3.org/2000/svg" xmlns:xlink="http://www.w3.org/1999/xlink" x="0px" y="0px"
	 viewBox="0 0 3840 555.2" style="enable-background:new 0 0 3840 555.2;" xml:space="preserve">
<style type="text/css">
	.st0{fill:#334FA2;}
	.st1{fill:#F01B25;}
	.st2{fill:#354EA2;}
	.st3{fill:#23B057;}
	.st4{fill:#FFA623;}
	.st5{fill:#FFFFFF;}
</style>
<g>
	<g>
		<g>
			<polyline points="212,544.1 399.8,544.1 399.8,126.7 272.7,126.7 272.7,366 271.7,366 187.9,126.7 0,126.7 0,544.1 127,544.1 
				127,303.2 128.2,303.2 212,544.1 			"/>
		</g>
		<g>
			<polyline points="920.6,544.1 1108.5,544.1 1108.5,126.7 981.5,126.7 981.5,366 980.3,366 896.6,126.7 708.8,126.7 708.8,544.1 
				835.8,544.1 835.8,303.2 836.8,303.2 920.6,544.1 			"/>
		</g>
		<g>
			<polyline points="2140.9,544.1 2328.8,544.1 2328.8,126.7 2201.8,126.7 2201.8,366 2200.6,366 2116.8,126.7 1929,126.7 
				1929,544.1 2056.1,544.1 2056.1,303.2 2057.1,303.2 2140.9,544.1 			"/>
		</g>
		<g>
			<rect x="476.5" y="126.7" width="156.7" height="417.4"/>
		</g>
		<g>
			<polyline points="1253.5,240.2 1153.9,240.2 1153.9,126.7 1510,126.7 1510,240.2 1410.2,240.2 1410.2,544.1 1253.5,544.1 
				1253.5,240.2 			"/>
		</g>
		<g>
			<path d="M2549.6,449.3h15.3c25.2,0,42.1-7.7,51.9-24.5c10.5-17.3,11.6-48.9,11.6-89.3c0-40.5-1.1-72.1-11.6-89.4
				c-9.8-16.8-26.7-24.6-51.9-24.6h-15.3V449.3 M2396.2,126.7h185.6c158.3,0,208.7,89.6,208.7,213.3c0,126-77.8,204.1-199.4,204.1
				h-194.9V126.7z"/>
		</g>
		<g>
			<path d="M3036.1,449.4c24.1,0,42.1-11.8,42.1-113.9c0-99.8-16.9-113.9-42.1-113.9c-25.2,0-42.2,14.1-42.2,113.9
				C2993.9,437.6,3012.1,449.4,3036.1,449.4 M3036.1,115.7c136.4,0,204.3,89.6,204.3,219.7c0,130.1-67.9,219.7-204.3,219.7
				c-136.4,0-204.3-89.6-204.3-219.7C2831.8,205.3,2899.8,115.7,3036.1,115.7z"/>
		</g>
		<g>
			<path d="M3432.5,277.4c21.5,0,34.4-21.9,34.4-49.9c-0.1-23.7-10.9-49.3-39.8-49.3c-17.5,0-31.2,11-36.3,24.5
				c-2,4.1-2.8,10-2.8,19.9c1.8,26.7,14.7,54.7,43.9,54.7H3432.5 M3520.6,71.2c-8.3-0.6-16.4-0.4-27.7,0.1
				c-66.1,3.2-92.7,31.2-101.8,63.1h1.6c16.4-14.4,36.7-21,64-21c52.4,0,100.3,37.9,100.3,109.5c0,68.4-52.6,121.7-123.1,121.7
				c-93,0-133.5-71-133.5-147.2c0-61.9,22-114.3,58-148.1c34.3-31.7,78.5-47.7,132.6-49.1c14.3-0.7,22.9,0,29.7,0.6V71.2z"/>
		</g>
		<g>
			<path d="M3720.9,195.6v-57.4c0-21.2,1.2-43.3,2.3-66.5h-1.8c-10.5,22.6-19.5,44-31.2,67.2l-27.4,55.6l-0.3,1.1H3720.9
				 M3720.9,339.1v-74.9h-139.3v-59.8L3693.4,5.1h111.3v190.5h35.4v68.6h-35.4v74.9H3720.9z"/>
		</g>
		<g>
			<polyline points="1556.3,126.7 1866.2,126.7 1866.2,237 1710.6,237 1710.6,280.7 1853.8,280.7 1853.8,387.7 1710.6,387.7 
				1710.6,434.5 1871.1,434.5 1871.1,544 1556.3,544 1556.3,126.7 			"/>
		</g>
	</g>
</g>
</svg>
