<svg enable-background="new 0 0 3739.2 939.8" version="1.1" viewBox="0 0 3739.2 939.8" xml:space="preserve" xmlns="http://www.w3.org/2000/svg">
<path d="m123.80078-0.19921875c20.49998 22.19997775 40.10002 43.39923875 59 63.69921875 5.7 6.099994 11.29844 12.199615 16.89844 18.099609 20.49998 21.699981 268.70117 278.300781 268.70117 278.300781v236.09961l-25-199.90039c-71.39993 102.9999-130.30005 184.90045-177.5 245.90039-22.29998 28.69997-45.20002 57.20042-69 85.40039-5.29999 6.29999-10.6004 12.49884-15.90039 18.79883-50.79995 59.49994-104.899667 117.90045-162.599609 175.40039-6.099994 6.09999-12.2003972 12.09961-18.400391 18.09961 34.199966-20.99998 66.900031-41.39924 98-61.19922-31.099969 19.79998-12.900743 8.49997 25.69922-16.5 6.39999-4.2 12.70157-8.50079 19.10156-12.80078l0.09961-0.09961c111.39989-74.59993 226.7001-157.89891 325.5-236.79883 51.69995-41.29996 101.79966-83.20004 150.09961-126l-15.69922-257.70117c-93.49991-35.79996-173.50046-68.30042-239.90039-97.90039-1.9-0.9-3.80117-1.69961-5.70117-2.59961-20.39998-9.19999-39.59846-17.99962-57.39844-26.59961-4.49999-2.199998-9.00078-4.300002-13.30078-6.5-3.6-1.799998-7.09961-3.500783-10.59961-5.300781-6.99999-3.499997-13.70118-6.998441-20.20117-10.398438-5-2.499997-9.89922-5.001565-14.69922-7.601562-27.29997-14.299986-51.89963-28.398452-74.09961-42.398438-1.3-0.799999-2.60039-1.600001-3.90039-2.5-4.4-2.799997-8.60079-5.600393-12.80078-8.40039-9.29999-6.199994-18.09845-12.3996159-26.39844-18.59960975zm989.19922 0.298828125c-8.3 6.199993825-17.1004 12.29961562-26.4004 18.59960962-4.2 2.799997-8.3988 5.600393-12.7988 8.40039-1.3 0.8-2.6004 1.600001-3.9004 2.5-22.1 13.999986-46.7996 28.100405-74.09962 42.400391-4.79999 2.499998-9.70118 4.999612-14.70117 7.599609-6.49999 3.399997-13.19923 6.900395-20.19922 10.400391-3.5 1.699998-6.99961 3.500783-10.59961 5.300781-4.39999 2.099998-8.80078 4.300002-13.30078 6.499999-17.79998 8.59999-37.00041 17.49962-57.40039 26.59961-1.9 0.8-3.79922 1.69961-5.69922 2.59961-66.39993 29.59997-146.30126 62.10004-239.70117 98l-15.69922 257.69922c48.29995 42.79996 98.39966 84.70004 150.09961 126 98.7999 78.89992 214.10011 162.20085 325.49999 236.80078l0.0996 0.09961c6.4 4.2 12.6016 8.50078 19.1016 12.80078 15.9 10.29999 33.2992 21.3 25.6992 16.5 30.8 19.49998 63.4993 39.90041 97.6992 60.90039-6.2-5.99999-12.2984-12.10157-18.3984-18.10156-57.7-57.49994-111.9016-115.9985-162.6016-175.39844-5.3-6.29999-10.6984-12.50079-15.8984-18.80078-23.7-28.19997-46.70004-56.70042-69.00002-85.40039-47.19995-60.99994-106.20046-142.89971-177.40039-245.59961l-25 199.90039v-236.20117s248.19921-256.59885 268.69921-278.298829c5.6-5.999994 11.2004-11.999616 16.9004-18.09961 18.9-20.299979 38.5-41.501194 59-63.70117162zm-494.67578 234.7011706h0.07617-0.07617zm666.87498 42.89844 250.7012 204.20117-250.7012 204.19922h109l197.2012-160.59961 196.1992 160.59961h111.0996l-251.7988-204.19922 251.7988-204.20117h-111.0996l-196.1992 159.60156-197.2012-159.60156h-109zm717.5 0c-38.6999 36.69996-62.3984 94.20008-68.3984 170.5h-65.4004v67.40039h65.4004c6 76.29992 29.6985 132.80004 68.3984 170.5h403.4004c38.7-38.69996 61.4004-95.20008 68.4004-170.5l-29.6992-16.79883v-33.80078l29.6992-15.80078c-7-76.29992-29.7004-133.80004-68.4004-171.5h-403.4004zm616.5 0c-47.5999 45.59995-71.3984 113.00126-71.3984 204.20117s23.7985 158.59926 71.3984 204.19922h403.4004c45.6-45.59996 69.4004-113.99931 69.4004-204.19922 0-91.19991-23.8004-158.60122-69.4004-204.20117h-403.4004zm505.5 0 252.7012 204.20117-252.7012 204.19922h111l196.2012-160.59961 197.2988 160.59961h110l-251.7988-204.19922 251.7988-204.20117h-110l-197.2988 159.60156-196.2012-159.60156h-111zm-469.7988 67.30078h331c25.8 42.59996 38.6992 88.20083 38.6992 136.80078 0 30.79997-6.9004 62.49925-19.9004 95.19922l-18.7988 42.59961h-331l-18.9004-42.59961c-13.9-32.69997-19.8008-64.39925-19.8008-95.19922 0-48.59995 12.9012-94.20082 38.7012-136.80078zm-615.5 0.09961h330.0996c17.8 30.69997 30.6992 64.39965 36.6992 103.09961h-403.5c6-38.59996 17.8012-72.29964 36.7012-103.09961zm-36.7012 170.5h403.4004c-5.9 38.59996-18.7996 73.29964-36.5996 104.09961h-330.0996c-18.8-30.69997-30.7012-65.39965-36.7012-104.09961z"/>
</svg>
