<svg width="44" height="44" xmlns="http://www.w3.org/2000/svg"><path d="M 22,0 A 22,22 0 0 0 0,22 22,22 0 0 0 22,44 22,22 0 0 0 44,22 22,22 0 0 0 22,0 Z M 10.98312,9.413226 a 1.5715857,1.5715857 0 0 1 1.127929,0.475725 L 22,19.777902 31.888951,9.888951 a 1.5715857,1.5715857 0 0 1 1.080357,-0.475725 1.5715857,1.5715857 0 0 1 1.141741,2.697823 L 24.222098,22 l 9.888951,9.888951 a 1.5715857,1.5715857 0 1 1 -2.222098,2.222098 L 22,24.222098 12.111049,34.111049 A 1.5715857,1.5715857 0 1 1 9.888951,31.888951 L 19.777902,22 9.888951,12.111049 A 1.5715857,1.5715857 0 0 1 10.98312,9.413226 Z"/></svg>
