<?xml version="1.0" encoding="UTF-8" standalone="no"?>
<!-- Generator: Adobe Illustrator 16.0.0, SVG Export Plug-In . SVG Version: 6.00 Build 0)  -->

<svg
   version="1.1"
   id="Capa_1"
   x="0px"
   y="0px"
   width="65.999413"
   height="42.292999"
   viewBox="0 0 65.999414 42.293001"
   enable-background="new 0 0 20.001 12.591"
   xml:space="preserve"
   sodipodi:docname="PlayStation_4_button_L1.svg"
   inkscape:version="1.1.1 (3bf5ae0d25, 2021-09-20, custom)"
   xmlns:inkscape="http://www.inkscape.org/namespaces/inkscape"
   xmlns:sodipodi="http://sodipodi.sourceforge.net/DTD/sodipodi-0.dtd"
   xmlns="http://www.w3.org/2000/svg"
   xmlns:svg="http://www.w3.org/2000/svg"><defs
   id="defs51" /><sodipodi:namedview
   id="namedview49"
   pagecolor="#ffffff"
   bordercolor="#666666"
   borderopacity="1.0"
   inkscape:pageshadow="2"
   inkscape:pageopacity="0.0"
   inkscape:pagecheckerboard="true"
   showgrid="false"
   fit-margin-top="1"
   fit-margin-left="1"
   fit-margin-right="1"
   fit-margin-bottom="1"
   inkscape:zoom="16.774162"
   inkscape:cx="45.516432"
   inkscape:cy="19.73273"
   inkscape:window-width="1920"
   inkscape:window-height="1011"
   inkscape:window-x="0"
   inkscape:window-y="0"
   inkscape:window-maximized="1"
   inkscape:current-layer="Capa_1" />
<g
   id="g578"><path
     id="path13"
     style="fill:#ffffff;stroke-width:3.19989"
     d="M 8.8242188 1 C 4.1427814 1 1.0546875 4.0841877 1.0546875 8.765625 C 1.0546875 8.765625 -1.7512088 41.289769 33.050781 41.292969 C 67.846372 41.292969 64.939453 8.765625 64.939453 8.765625 C 64.939453 4.0841877 61.851359 1 57.169922 1 L 8.8242188 1 z M 19.789062 7.8769531 L 24.732422 7.8769531 L 24.732422 27.1875 L 36.435547 27.1875 L 36.435547 31.484375 L 19.789062 31.484375 L 19.789062 7.8769531 z M 42.441406 7.8769531 L 46.216797 7.8769531 L 46.216797 31.484375 L 41.589844 31.484375 L 41.589844 15.166016 L 36.751953 15.166016 L 36.751953 11.962891 C 37.769517 11.962891 38.626476 11.882482 39.314453 11.712891 C 40.002429 11.549696 40.566768 11.29356 41.001953 10.951172 C 41.437138 10.608784 41.768902 10.183857 41.996094 9.671875 C 42.220087 9.1630927 42.371008 8.5649292 42.441406 7.8769531 z " /></g>
</svg>
