<?xml version="1.0" encoding="UTF-8" standalone="no"?>
<!-- Generator: Adobe Illustrator 16.0.0, SVG Export Plug-In . SVG Version: 6.00 Build 0)  -->

<svg
   version="1.1"
   id="Capa_1"
   x="0px"
   y="0px"
   width="66"
   height="42.303696"
   viewBox="0 0 66.000003 42.303696"
   enable-background="new 0 0 19.998 12.594"
   xml:space="preserve"
   sodipodi:docname="PlayStation_4_button_R1.svg"
   inkscape:version="1.1.1 (3bf5ae0d25, 2021-09-20, custom)"
   xmlns:inkscape="http://www.inkscape.org/namespaces/inkscape"
   xmlns:sodipodi="http://sodipodi.sourceforge.net/DTD/sodipodi-0.dtd"
   xmlns="http://www.w3.org/2000/svg"
   xmlns:svg="http://www.w3.org/2000/svg"><defs
   id="defs51" /><sodipodi:namedview
   id="namedview49"
   pagecolor="#ffffff"
   bordercolor="#666666"
   borderopacity="1.0"
   inkscape:pageshadow="2"
   inkscape:pageopacity="0.0"
   inkscape:pagecheckerboard="true"
   showgrid="false"
   fit-margin-top="1"
   fit-margin-left="1"
   fit-margin-right="1"
   fit-margin-bottom="1"
   inkscape:zoom="16.776678"
   inkscape:cx="32.157736"
   inkscape:cy="23.306163"
   inkscape:window-width="1920"
   inkscape:window-height="1011"
   inkscape:window-x="0"
   inkscape:window-y="0"
   inkscape:window-maximized="1"
   inkscape:current-layer="Capa_1" />
<g
   id="g460"><path
     id="path13"
     style="fill:#ffffff;stroke-width:3.20023"
     d="M 8.8242188 1 C 4.1422825 1 1.0585936 4.0856419 1.0585938 8.7675781 C 1.0585938 8.7675781 -1.8454676 41.302734 32.957031 41.302734 C 67.75313 41.302734 64.943359 8.7675781 64.943359 8.7675781 C 64.943359 4.0856419 61.858424 1 57.179688 1 L 8.8242188 1 z M 18.023438 7.8769531 L 30.005859 7.8769531 C 31.100338 7.8769531 32.089558 8.0501535 32.982422 8.3925781 C 33.868886 8.7350027 34.633392 9.2115628 35.273438 9.8164062 C 35.913483 10.418049 36.406328 11.141467 36.751953 11.986328 C 37.094377 12.827988 37.263672 13.734161 37.263672 14.707031 C 37.263672 15.987123 36.962266 17.119799 36.357422 18.105469 C 35.755779 19.08794 34.882175 19.781613 33.746094 20.181641 C 34.789369 20.517666 35.531566 21.026795 35.966797 21.714844 C 36.408429 22.402894 36.626953 23.434448 36.626953 24.810547 L 36.626953 31.501953 L 31.789062 31.501953 L 31.789062 31.494141 L 31.789062 25.408203 C 31.789062 24.272121 31.52625 23.458385 31.007812 22.96875 C 30.482975 22.488715 29.511993 22.240234 28.087891 22.240234 L 22.824219 22.240234 L 22.824219 31.494141 L 18.023438 31.494141 L 18.023438 7.8769531 z M 44.201172 7.8769531 L 47.970703 7.8769531 L 47.970703 31.494141 L 43.34375 31.494141 L 43.34375 15.167969 L 38.507812 15.167969 L 38.507812 11.966797 C 39.522286 11.966797 40.380309 11.886405 41.068359 11.716797 C 41.756408 11.553585 42.320627 11.297502 42.755859 10.955078 C 43.200691 10.612653 43.527397 10.184618 43.757812 9.6757812 C 43.981828 9.1637445 44.127566 8.5650025 44.201172 7.8769531 z M 22.824219 11.966797 L 22.824219 18.261719 L 29.013672 18.261719 C 30.344968 18.261719 31.275732 17.967042 31.826172 17.375 C 32.370211 16.779757 32.642578 16.035278 32.642578 15.132812 C 32.642578 14.211146 32.376235 13.452665 31.841797 12.857422 C 31.307359 12.26218 30.4242 11.966797 29.195312 11.966797 L 22.824219 11.966797 z " /></g>
</svg>
