<svg width="44" height="44" xmlns="http://www.w3.org/2000/svg"><path d="M 22,0 A 22,22 0 0 0 0,22 22,22 0 0 0 22,44 22,22 0 0 0 44,22 22,22 0 0 0 22,0 Z m 0,7.071429 c 8.226421,0 14.928571,6.702386 14.928571,14.928571 0,8.226185 -6.702386,14.928571 -14.928571,14.928571 C 13.773815,36.928571 7.071429,30.226185 7.071429,22 7.071429,13.773815 13.773815,7.071429 22,7.071429 Z m 0,3.142857 c -6.527708,0 -11.785714,5.258006 -11.785714,11.785714 0,6.527708 5.258006,11.785714 11.785714,11.785714 6.527708,0 11.785714,-5.258006 11.785714,-11.785714 0,-6.527708 -5.258006,-11.785714 -11.785714,-11.785714 z"/></svg>
