<?xml version="1.0" encoding="UTF-8" standalone="no"?>
<!-- Generator: Adobe Illustrator 16.0.0, SVG Export Plug-In . SVG Version: 6.00 Build 0)  -->

<svg
   version="1.1"
   id="Capa_1"
   x="0px"
   y="0px"
   width="62.741173"
   height="66"
   viewBox="0 0 62.741175 65.999999"
   enable-background="new 0 0 20.005 21.079"
   xml:space="preserve"
   sodipodi:docname="PlayStation_4_button_R2.svg"
   inkscape:version="1.1.1 (3bf5ae0d25, 2021-09-20, custom)"
   xmlns:inkscape="http://www.inkscape.org/namespaces/inkscape"
   xmlns:sodipodi="http://sodipodi.sourceforge.net/DTD/sodipodi-0.dtd"
   xmlns="http://www.w3.org/2000/svg"
   xmlns:svg="http://www.w3.org/2000/svg"><defs
   id="defs49" /><sodipodi:namedview
   id="namedview47"
   pagecolor="#ffffff"
   bordercolor="#666666"
   borderopacity="1.0"
   inkscape:pageshadow="2"
   inkscape:pageopacity="0.0"
   inkscape:pagecheckerboard="true"
   showgrid="false"
   fit-margin-left="1"
   fit-margin-top="1"
   fit-margin-right="1"
   fit-margin-bottom="1"
   inkscape:zoom="10.353907"
   inkscape:cx="34.238285"
   inkscape:cy="34.962649"
   inkscape:window-width="1920"
   inkscape:window-height="1011"
   inkscape:window-x="0"
   inkscape:window-y="0"
   inkscape:window-maximized="1"
   inkscape:current-layer="Capa_1" />
<g
   id="g380"><g
     id="g376"><path
       id="path13"
       style="fill:#ffffff;stroke-width:3.0362"
       d="M 23.857422 1 C 16.913639 1 9.7654365 5.2836727 6.1796875 12.925781 C 0.9938631 23.962357 1 39.632812 1 39.632812 L 1.0058594 57.558594 C 1.0058594 62.468125 4.9771877 65 9.8867188 65 L 54.269531 65 C 59.179062 65 62.185436 61.268827 61.6875 57.558594 C 61.396025 55.427184 60.405922 51.330955 57.269531 41.117188 C 55.040962 33.845495 51.043129 22.419746 46.667969 15.882812 C 41.312117 7.882433 33.524673 1 23.857422 1 z M 37.671875 26.136719 C 38.804376 26.136719 39.835465 26.27383 40.767578 26.541016 C 41.705763 26.814274 42.504995 27.217369 43.169922 27.757812 C 43.840921 28.301292 44.357017 28.980795 44.730469 29.806641 C 45.103922 30.62945 45.289063 31.59209 45.289062 32.697266 C 45.289062 33.553473 45.17585 34.334878 44.951172 35.033203 C 44.726493 35.731529 44.359478 36.42362 43.855469 37.097656 C 43.345388 37.774727 42.674798 38.460747 41.839844 39.162109 C 41.004889 39.86347 39.990313 40.63772 38.791016 41.5 C 37.937844 42.128493 37.212727 42.812116 36.632812 43.546875 C 36.040754 44.281635 35.724147 44.939405 35.681641 45.525391 L 45.361328 45.525391 L 45.361328 49.345703 L 30.058594 49.345703 C 30.058594 48.313396 30.140522 47.341204 30.310547 46.439453 C 30.480574 45.537703 30.807178 44.649158 31.292969 43.765625 C 31.778761 42.888164 32.46043 41.991594 33.337891 41.089844 C 34.218389 40.188093 35.377906 39.221974 36.826172 38.183594 C 37.639873 37.618861 38.309592 37.109513 38.837891 36.660156 C 39.366189 36.207763 39.789704 35.779897 40.105469 35.373047 C 40.421233 34.969232 40.646574 34.558981 40.783203 34.158203 C 40.919832 33.751352 40.984375 33.310667 40.984375 32.833984 C 40.984375 32.269251 40.907017 31.79554 40.746094 31.416016 C 40.591247 31.030419 40.373293 30.726632 40.087891 30.501953 C 39.808561 30.277275 39.471322 30.117347 39.091797 30.029297 C 38.7062 29.941247 38.302021 29.892578 37.876953 29.892578 C 36.856791 29.892578 36.056689 30.180064 35.470703 30.753906 C 34.884717 31.327747 34.591797 32.373823 34.591797 33.882812 L 30.363281 33.882812 C 30.363281 31.444745 31.001271 29.546846 32.273438 28.183594 C 33.54864 26.820341 35.346148 26.136719 37.671875 26.136719 z M 11.314453 26.880859 L 22.71875 26.880859 C 23.754093 26.880859 24.690881 27.048174 25.541016 27.373047 C 26.385079 27.69792 27.117369 28.148814 27.724609 28.722656 C 28.334884 29.296497 28.80295 29.987507 29.130859 30.789062 C 29.458768 31.590619 29.619141 32.454819 29.619141 33.380859 C 29.619141 34.595338 29.331653 35.677262 28.757812 36.609375 C 28.183971 37.54756 27.351287 38.202294 26.273438 38.587891 C 27.263238 38.903656 27.969889 39.390186 28.382812 40.042969 C 28.804844 40.701824 29.011719 41.678597 29.011719 42.990234 L 29.011719 49.347656 L 24.408203 49.347656 L 24.408203 49.345703 L 24.408203 43.564453 C 24.408203 42.48053 24.160045 41.708679 23.662109 41.244141 C 23.170245 40.782639 22.243686 40.548828 20.892578 40.548828 L 15.882812 40.548828 L 15.882812 49.341797 L 11.314453 49.341797 L 11.314453 26.880859 z M 15.880859 30.769531 L 15.880859 36.759766 L 21.767578 36.759766 C 23.030636 36.759766 23.921133 36.480748 24.443359 35.916016 C 24.959512 35.351283 25.220703 34.637458 25.220703 33.78125 C 25.220703 32.903789 24.964075 32.181919 24.457031 31.617188 C 23.949986 31.052454 23.109472 30.769531 21.9375 30.769531 L 15.880859 30.769531 z " /></g></g>
</svg>
