<svg width="64" height="40" xmlns="http://www.w3.org/2000/svg"><path d="M 7.8236319,0 C 3.1421991,0 0.05410058,3.0841924 0.05410058,7.765625 c 0,0 -2.80586138,32.524144 31.99609342,32.527344 34.795556,0 31.888672,-32.527344 31.888672,-32.527344 C 63.938866,3.0841924 60.850767,0 56.169335,0 Z M 18.788475,6.8769531 h 4.94336 V 26.1875 H 35.43496 v 4.296875 H 18.788475 Z m 22.652344,0 H 45.21621 V 30.484375 H 40.589257 V 14.166016 h -4.837891 v -3.203125 c 1.017563,0 1.874524,-0.08041 2.5625,-0.25 0.687975,-0.163195 1.252316,-0.419331 1.6875,-0.7617191 C 40.436551,9.6087842 40.768315,9.1838565 40.995507,8.671875 41.2195,8.1630932 41.370421,7.5649285 41.440819,6.8769531 Z"/></svg>
