<?xml version="1.0" encoding="UTF-8" standalone="no"?>
<!-- Generator: Adobe Illustrator 16.0.0, SVG Export Plug-In . SVG Version: 6.00 Build 0)  -->

<svg
   version="1.1"
   id="Capa_1"
   x="0px"
   y="0px"
   width="62.732876"
   height="66"
   viewBox="0 0 62.732877 66"
   enable-background="new 0 0 20.004 21.08"
   xml:space="preserve"
   sodipodi:docname="PlayStation_4_button_L2.svg"
   inkscape:version="1.1.1 (3bf5ae0d25, 2021-09-20, custom)"
   xmlns:inkscape="http://www.inkscape.org/namespaces/inkscape"
   xmlns:sodipodi="http://sodipodi.sourceforge.net/DTD/sodipodi-0.dtd"
   xmlns="http://www.w3.org/2000/svg"
   xmlns:svg="http://www.w3.org/2000/svg"><defs
   id="defs49" /><sodipodi:namedview
   id="namedview47"
   pagecolor="#ffffff"
   bordercolor="#666666"
   borderopacity="1.0"
   inkscape:pageshadow="2"
   inkscape:pageopacity="0.0"
   inkscape:pagecheckerboard="true"
   showgrid="false"
   fit-margin-left="1"
   fit-margin-top="1"
   fit-margin-right="1"
   fit-margin-bottom="1"
   inkscape:zoom="10.353416"
   inkscape:cx="7.9683848"
   inkscape:cy="34.771134"
   inkscape:window-width="1920"
   inkscape:window-height="1011"
   inkscape:window-x="0"
   inkscape:window-y="0"
   inkscape:window-maximized="1"
   inkscape:current-layer="Capa_1" />
<g
   id="g376"><path
     id="path13"
     style="fill:#ffffff;stroke-width:3.03605"
     d="M 38.880859 1 C 29.21103 1 21.42678 7.8819426 16.074219 15.878906 C 11.699266 22.418565 7.6993787 33.843886 5.4648438 41.115234 C 2.3286009 51.328516 1.3461486 55.423379 1.0546875 57.554688 C 0.5537388 61.264744 3.5555453 64.996094 8.4648438 64.996094 L 52.849609 64.996094 C 57.758907 64.996094 61.730469 62.460949 61.730469 57.554688 L 61.732422 39.626953 C 61.732422 39.626953 61.739183 23.961834 56.556641 12.925781 C 52.971062 5.2840355 45.824313 1 38.880859 1 z M 42.867188 26.138672 C 43.993564 26.138672 45.024751 26.277749 45.962891 26.544922 C 46.89496 26.818167 47.700339 27.223255 48.365234 27.763672 C 49.03013 28.30409 49.546488 28.986693 49.919922 29.8125 C 50.293357 30.638306 50.478516 31.598002 50.478516 32.703125 C 50.478516 33.559292 50.365293 34.335781 50.140625 35.037109 C 49.915957 35.738438 49.548907 36.424523 49.044922 37.101562 C 48.534865 37.781638 47.864212 38.467723 47.029297 39.166016 C 46.200454 39.864308 45.179497 40.644703 43.986328 41.503906 C 43.127125 42.132369 42.408224 42.819092 41.822266 43.550781 C 41.236308 44.285506 40.921624 44.943339 40.873047 45.529297 L 50.550781 45.529297 L 50.550781 49.351562 L 35.251953 49.351562 L 35.251953 49.345703 C 35.251953 48.307372 35.334755 47.339207 35.507812 46.4375 C 35.674796 45.535792 35.998606 44.644127 36.484375 43.763672 C 36.970143 42.886253 37.653831 41.996541 38.53125 41.091797 C 39.414742 40.190089 40.572417 39.219971 42.017578 38.181641 C 42.83124 37.616935 43.499071 37.107539 44.027344 36.658203 C 44.56169 36.208867 44.979172 35.780961 45.294922 35.371094 C 45.613707 34.967299 45.841893 34.557009 45.978516 34.15625 C 46.109066 33.746383 46.179688 33.309562 46.179688 32.835938 C 46.179688 32.268195 46.096248 31.795523 45.941406 31.416016 C 45.780495 31.030437 45.56252 30.726621 45.283203 30.501953 C 44.997814 30.277285 44.666829 30.115389 44.28125 30.027344 C 43.901743 29.939294 43.491453 29.890625 43.066406 29.890625 C 42.052364 29.890625 41.251974 30.180092 40.666016 30.753906 C 40.080057 31.32772 39.78125 32.371941 39.78125 33.880859 L 35.552734 33.880859 C 35.552734 31.445944 36.193607 29.544829 37.46875 28.181641 C 38.743892 26.818454 40.54157 26.138672 42.867188 26.138672 z M 18.269531 26.882812 L 22.970703 26.882812 L 22.970703 45.253906 L 34.101562 45.253906 L 34.101562 49.349609 L 18.269531 49.349609 L 18.269531 49.345703 L 18.269531 26.882812 z " /></g>
</svg>
