<?xml version="1.0" encoding="utf-8"?>
<!-- Generator: Adobe Illustrator 25.0.0, SVG Export Plug-In . SVG Version: 6.00 Build 0)  -->
<svg version="1.1" id="Layer_1" xmlns="http://www.w3.org/2000/svg" xmlns:xlink="http://www.w3.org/1999/xlink" x="0px" y="0px"
	 viewBox="0 0 3840 444.8" style="enable-background:new 0 0 3840 444.8;" xml:space="preserve">
<style type="text/css">
	.st0{fill:#E31E26;}
	.st1{fill:#FFFFFF;}
</style>
<g>
	<g>
		<g>
			<g>
				<g id="path68_6_">
					<path class="st0" d="M341.5,140c-27.4-38.9-72.7-64.3-123.9-64.3C133.8,75.7,66,143.6,66,227.3s67.9,151.6,151.6,151.6
						c60.8,0,113.2-35.8,137.4-87.5H221.1v-69h213.8c0.1,1.6,0.1,3.2,0.1,4.8c0,22.3-3.3,43.8-9.6,64.1
						C398,380.1,315.3,444.8,217.5,444.8C97.4,445,0,347.5,0,227.4C0,107.2,97.4,9.9,217.6,9.9c89,0,165.5,53.6,199.2,130.2
						L341.5,140L341.5,140z"/>
				</g>
				<g id="path70_6_">
					<path class="st0" d="M665.8,14.1L665.8,14.1L391,428.1h85.1l58.7-88.4h131.1v88.6h70.9V14.1H665.8L665.8,14.1z M581.8,268.8
						l84-126.5v126.5H581.8z"/>
				</g>
				<g id="path72_6_">
					<path class="st0" d="M1291.9,14.1L1291.9,14.1l-189.6,285.4V14.1h-70.9l0,0l-274.9,414h85.2l189.7-285.8v286h70.9v-0.5
						l189.6-285.5v286h70.9V14.1H1291.9L1291.9,14.1z"/>
				</g>
				<g id="path74_6_">
					<path class="st0" d="M1635.5,85V14.1h-215.4v414.2l70.9-0.3h144.5v-70.9H1491v-96.5h144.5v-70.9H1491V85H1635.5z"/>
				</g>
				<g id="path86_6_">
					<path class="st0" d="M2014.4,285.9c22.7-51.2,56.8-128,56.8-128h-69.6l-36.6,82.5l-54.5-50.3c25-20.1,46.9-45.4,46.9-87.7
						c0-22.7-9-44.2-25.2-60.4c-18.5-18.5-44.6-29.1-71.6-29.1c-46.8,0-95.2,33.5-95.2,89.5c0,39,21.5,64.2,42.8,82.9
						c-39.5,28-73.9,57.8-73.9,119.2c0,34.9,12.6,66.6,35.5,89.5c23.1,23.1,55.3,35.8,90.8,35.8c67.2,0,100.6-32.5,126.1-82.8
						l82.4,76.2l43.2-46.7L2014.4,285.9L2014.4,285.9z M1835.7,86.1c6-6,15.6-9.7,25-9.7c10,0,20.2,4,26.6,10.4
						c4.5,4.4,6.6,9.5,6.6,15.5c0,17.8-8.6,27.6-31.9,44.9c-20.4-16.4-32.9-27.8-32.9-44.9C1829,95.9,1831.2,90.6,1835.7,86.1
						 M1936.5,304.6c-21.9,48.9-37.5,61.5-75.8,61.5c-18.8,0-34.7-6-45.9-17.1c-11.1-11.1-16.9-26.5-16.9-44.6
						c0-33.4,17.2-46.7,59.4-76c0.2-0.1,0.5-0.3,0.6-0.5l79.8,73.7L1936.5,304.6L1936.5,304.6z"/>
				</g>
				<g id="path76_6_">
					<path class="st0" d="M2829.7,14.2L2829.7,14.2l-274.9,414h85.1l58.7-88.4h131.1v88.6h70.9V14.2H2829.7L2829.7,14.2z
						 M2745.7,268.9l84-126.4v126.4H2745.7z"/>
				</g>
				<g id="path78_6_">
					<path class="st0" d="M2249.7,428.4L2249.7,428.4l189.5-285.5v285.5h70.9l0,0l0,0l274.9-414h-85.1l-189.8,285.7V14.2h-70.9v0.5
						l-189.5,285.4V14.2h-70.9v414.2L2249.7,428.4L2249.7,428.4z"/>
				</g>
				<g id="path80_6_">
					<path class="st0" d="M3769.1,14.2v166.7h-128V14.2h-70.9v414.1h70.9V251.9h128v176.4h70.9V14.2H3769.1z"/>
				</g>
				<g id="path82_6_">
					<path class="st0" d="M3159.7,14.2h-231.4v70.9h80.3v343.2h70.9V85.1h80.2V14.2L3159.7,14.2z"/>
				</g>
				<g id="path84_6_">
					<path class="st0" d="M3470,316.7c-27.2,30.3-66.6,49.2-110.5,49.2c-82.2,0-148.8-66.6-148.8-148.7s66.6-148.7,148.8-148.7
						c43.2,0,82.1,19.4,109.3,49.3h83.1C3515.6,48.8,3443.1,0,3359.6,0c-120,0-217.3,97.3-217.3,217.3s97.3,217.3,217.3,217.3
						c84.1,0,157-48,193.1-117.9H3470L3470,316.7z"/>
				</g>
			</g>
		</g>
	</g>
</g>
</svg>
