<?xml version="1.0" encoding="utf-8"?>
<!-- Generator: Adobe Illustrator 25.0.0, SVG Export Plug-In . SVG Version: 6.00 Build 0)  -->
<svg version="1.1" id="Layer_1" xmlns="http://www.w3.org/2000/svg" xmlns:xlink="http://www.w3.org/1999/xlink" x="0px" y="0px"
	 viewBox="0 0 3839 811.3" style="enable-background:new 0 0 3839 811.3;" xml:space="preserve">
<style type="text/css">
	.st0{fill:#0078D4;}
	.st1{fill:#FFFFFF;}
</style>
<g transform="translate(271.22 -22.579)">
	<path d="M1319,669.7h-100.1l-97.6-371.6l-98.7,371.6H920.3L786,186.7h90.8l96.8,384.2l105.7-384.2h91.7l99.3,386.5l91.9-386.5h87.7
		L1319,669.7z"/>
	<path d="M1578.3,222.1c0,13.1-4.8,23.9-14.4,32.6c-9.4,8.7-20.8,13.1-34.4,13.1c-13.5,0-25-4.4-34.4-13.1
		c-9.4-8.7-14.1-19.6-14.1-32.6c0-13.3,4.7-24.4,14.1-33.3c9.6-8.9,21.1-13.4,34.4-13.4c14,0,25.5,4.6,34.7,13.7
		C1573.6,198.2,1578.3,209.2,1578.3,222.1L1578.3,222.1z M1487.8,669.7V321.6h81.2v348.1H1487.8z"/>
	<path d="M1881.2,669.7V475.9c0-50.8-15.8-94.6-66.9-94.6c-50.9,0-83.2,45.8-83.2,92.2v196.2h-79.4V321.6h79.4v49.2h1.4
		c26.3-40.8,64.4-55.1,114.1-55.1c37.3,0,66.2,9.2,86.6,33c20.6,23.8,29.7,60,29.7,108.6v212.4L1881.2,669.7z"/>
	<path d="M2279.8,669.7v-44.8h-1.4c-25.2,42.4-76.6,52.2-112.5,52.2c-106.6,0-145.7-82.8-145.7-170.9c0-58.4,14.5-105.2,43.6-140.2
		c29.3-35.3,68.5-50.6,117.5-50.6c76.3,0,97,42.5,97,42.5h1.4V156.4h82.3v513.3L2279.8,669.7z M2280.5,471.4c0-42-27-89.8-84.1-89.8
		c-65.2,0-90.6,56.8-90.6,122.2c0,57.1,23.9,109,86.1,109.8c60.9,0,88.1-58.1,88.6-106.1L2280.5,471.4z"/>
	<path d="M2777.6,494.2c0,120.6-72.1,185.9-180.3,185.9c-117.7,0-178-70.4-178-178.3c0-123.4,72.3-187.6,186.6-187.6
		C2710.6,314.1,2777.6,381.1,2777.6,494.2z M2693,496.9c0-53.6-19-113.3-91.6-113.3c-69.6,0-96.7,51.8-96.7,115.3
		c0,69,32.5,112.9,96.2,112.9C2669.2,611.9,2692.5,559.5,2693,496.9L2693,496.9z"/>
	<path d="M3213.1,669.7h-89.6l-68.5-251.9l-73.4,251.9h-86.9l-101.3-347h85l66.1,269.6l77.3-269.6h79.7l68.9,268.9l64.5-268.9h77.9
		L3213.1,669.7z"/>
	<path d="M3567.8,572.9c0,77.5-70.3,107.7-140.7,107.7c-45.9,0-91.6-17.7-91.6-17.7v-82.4c0,0,39.7,34.6,95.2,35
		c38,0,55.2-12,55.2-34.8c0.9-18.3-10.2-28.4-23.5-36c-9.2-5.5-23.5-12.3-43-20.3c-22.9-9.9-40-19.4-51.2-28.5
		c-11-9.2-19.2-19.9-24.7-32.3c-5.3-12.4-9.2-26-9.2-42.5c0-62.6,52.2-106.8,135.6-106.8c55.1,0,79,13.5,79,13.5v78.3
		c0,0-39.2-27.1-79.9-27.3c-29.2,0-51.2,10.6-51.6,34.7c-0.2,31,37.7,46.1,60.4,55.3c33,13.3,57.1,27.5,70.6,43.7
		C3561.9,528.7,3567.8,545.1,3567.8,572.9L3567.8,572.9z"/>
	<rect x="-271.2" y="22.6" width="384.5" height="384.5"/>
	<rect x="155.5" y="22.6" width="384.5" height="384.5"/>
	<rect x="-271.2" y="449.3" width="384.5" height="384.5"/>
	<rect x="155.5" y="449.3" width="384.5" height="384.5"/>
</g>
</svg>
