<svg enable-background="new 0 0 3839 811.3" version="1.1" viewBox="0 0 3839 811.3" xml:space="preserve" xmlns="http://www.w3.org/2000/svg">
<path d="m0.01953125 0.021484375v384.4999956h384.4999988v-384.4999956h-384.4999988zm426.7011688 0v384.4999956h384.5v-384.4999956h-384.5zm2124.1992 133.7988256v201.5h-1.4004s-20.7-42.5-97-42.5c-48.9999 0-88.2 15.3016-117.5 50.60157-29.0999 34.99996-43.5996 81.79927-43.5996 140.19921 0 88.09992 39.0993 170.90039 145.6992 170.90039 35.9 0 87.3001-9.80121 112.5-52.20117h1.4004v44.80078h82.2012v-513.30078h-82.3008zm-750.1992 19c-13.3 0-24.8004 4.5004-34.4004 13.40039-9.4 8.89999-14.0996 20.0008-14.0996 33.30078 0 12.99999 4.6996 23.89962 14.0996 32.59961 9.4 8.7 20.9004 13.09961 34.4004 13.09961 13.6 0 24.9985-4.39961 34.3984-13.09961 9.6-8.69999 14.4004-19.49962 14.4004-32.59961 0-12.89998-4.6996-23.9-14.0996-33-9.2-9.09999-20.6992-13.70117-34.6992-13.70117zm-743.5 11.30078 134.2988 483h102.3008l98.6992-371.59961 97.5996 371.59961h100.1016l130.8984-483h-87.6992l-91.9004 386.5-99.2988-386.5h-91.7012l-105.6992 384.19922-96.8008-384.19922h-90.7988zm1819.8984 127.5c-114.2998 0-186.5996 64.19974-186.5996 187.59961 0 107.8999 60.3001 178.30078 178 178.30078 108.1999 0 180.3008-65.30051 180.3008-185.90039 0-113.09988-67.0013-180.1-171.7012-180zm864 0.09961c-83.3999 0-135.5996 44.20085-135.5996 106.80078 0 16.49999 3.9012 30.10002 9.2012 42.5 5.5 12.39999 13.6992 23.09884 24.6992 32.29883 11.2 9.09999 28.2993 18.60001 51.1992 28.5 19.5 7.99999 33.8 14.80079 43 20.30078 13.3 7.6 24.4 17.70002 23.5 36 0 22.79998-17.1992 34.80079-55.1992 34.80079-55.4999-0.4-95.1992-35-95.1992-35v82.39843s45.6997 17.70117 91.5996 17.70117c70.3999 0 140.6992-30.20124 140.6992-107.70117 0-27.79997-5.9004-44.19845-19.4004-60.39843-13.4999-16.19999-37.5996-30.40119-70.5996-43.70118-22.6999-9.19999-60.6004-24.29886-60.4004-55.29882 0.4-24.09998 22.4016-34.70118 51.6016-34.70118 40.7 0.2 79.8984 27.30078 79.8984 27.30078v-78.30078s-23.9-13.5-79-13.5zm-1623.2988 1.40039c-49.6999 0-87.7996 14.29965-114.0996 55.09961h-1.4004v-49.19922h-79.4004v348.09961h79.4004v-196.19921c0-46.39996 32.2993-92.20118 83.1992-92.20118 51.1 0 66.9004 43.79966 66.9004 94.59961v193.80078h81.6992v-212.40039c0-48.59995-9.0992-84.79963-29.6992-108.59961-20.4-23.79997-49.2996-33-86.5996-33zm-358.8008 5.90039v348.09961h81.2012v-348.09961h-81.2012zm1305.5996 1.09961 101.3008 347h86.9004l73.4004-251.90039 68.5 251.90039h89.5996l99.6992-347h-77.9004l-64.5 268.90039-68.8984-268.90039h-79.7012l-77.2988 269.59961-66.1016-269.59961h-85zm-597 58.90039c57.1 0 84.1016 47.79887 84.1016 89.79883v36.10157c-0.5 47.99995-27.7016 106.0996-88.6016 106.0996-62.1999-0.79999-86.0996-52.70083-86.0996-109.80078 0-65.39993 25.3997-122.19922 90.5996-122.19922zm405 2c72.6 0 91.6016 59.69889 91.6016 113.29883-0.5 62.59994-23.8016 115.00039-92.1016 114.90039-63.6999 0-96.1992-43.90046-96.1992-112.90039 0-63.49993 27.0993-115.29883 96.6992-115.29883zm-2872.599569 65.69922v384.5h384.4999988v-384.5h-384.4999988zm426.7011688 0v384.5h384.5v-384.5h-384.5z"/>
</svg>
