<svg version="1.1" viewBox="0 0 787.828 89.12" xmlns="http://www.w3.org/2000/svg"><path d="m685.71484 0.001953125c-7.14399 0-14.55078 4.218460375-14.55078 11.43945288v6.675782h14.08203v-1.355469c0-3.238997 2.34951-5.615235 5.5625-5.615235h14.90039c3.097 0 5.3946 0.575816 5.5586 3.632813-0.163 3.061997-2.46065 5.259766-5.55664 5.259765l-12.11328 0.007813v9.072266h13.71289c3.09599 0 5.38873 2.204581 5.55273 5.267578-0.163 3.055997-2.45674 3.625-5.55273 3.625h-16.50196c-3.21299 0-5.5625-2.370378-5.5625-5.609375v-1.359375h-14.08007v6.68164c0 7.211993 7.40378 11.433594 14.55078 11.433594h26.8789c8.15899-0.144 12.95117-4.219601 12.95118-11.433594v-5.044921c0-6.538994-4.76462-7.930813-10.97461-8.132813l-0.00782-0.009766c5.41-0.405999 9.37891-2.094646 9.37891-8.05664v-6.6796878c0-7.2129927-5.80223-9.798828075-12.94922-9.798828075h-25.2793zm60.69532 0c-7.153 0-14.55078 4.219413475-14.55078 11.44140588v6.673829h14.07226v-1.353516c0-3.238997 2.35632-5.617188 5.57031-5.617188h18.0918c3.095 0 5.39269 2.207488 5.55469 5.271485-0.163 3.054997-2.46069 5.259765-5.55469 5.259765l-23.29492 0.00586 0.01172 0.005859c-7.153 0-14.44141 3.775242-14.44141 10.990235v6.673828l0.07227 0.005859v9.650391h55.88671v-10.335938h-40.27343c-5.19-1.321999 0.49872-5.550422 3.13672-5.857422h24.18164c7.15299 0 12.94922-5.857413 12.94922-13.066406v-6.681641c0-7.2119924-5.79623-13.06640588-12.94922-13.06640588h-28.46289zm-391.14649 11.45898488c-5.24699 0-9.0117 0.353515-10.4707 0.353515-15.37899 0.753999-28.78098 3.807882-40.66797 10.796875-15.16598 9.012991-22.40394 20.472155-21.71094 34.369141 0.327 6.515993 2.54698 12.324692 6.66797 17.429687 4.113 5.102995 9.17693 8.826643 15.16992 11.181641 5.998 2.348998 13.17556 3.527344 21.56055 3.527344 10.86399 0 21.1336-1.588675 30.80859-4.763672l6.84571-21.91211c0.812-2.950997 1.42556-4.791047 1.85156-5.498047 0.713-1.197998 1.73383-2.107703 3.04883-2.720703 1.321-0.621999 3.16711-0.981609 5.53711-1.099609l0.50976-2.107422h-39.9375l-0.57422 2.107422c3.52 0 6.01877 0.46472 7.50977 1.386719 1.486 0.922999 2.25908 2.054485 2.33008 3.396484 0.046 1.013999-0.43785 3.146113-1.46485 6.412109l-6.06445 19.451172c-3.444 1.052999-6.38989 1.578125-8.83789 1.578125-5.79599 0-10.94532-1.905707-15.44531-5.720703-4.502-3.810996-6.93769-9.338366-7.30469-16.568359-0.418-8.425992 2.16746-16.465289 6.43945-24.113281 4.28-7.648993 12.2547-13.309473 18.67969-16.980469 6.43299-3.671996 14.79416-5.6875 21.41016-5.6875 6.42399 0 8.34092 1.679737 12.04492 4.677734 3.71 2.998997 3.96002 7.908523 4.66601 14.728516h2.38868l4.41797-20.230469s-0.18943-2.028532-0.85743-2.644531l-0.0039 0.005859c-0.817-0.758999-1.45899-0.68164-1.45899-0.68164-7.47199-0.531-12.63089-0.673828-17.08789-0.673828zm-274.746092 0.646484-62.865234 62.271484c-4.564996 4.584996-8.0911277 7.606127-10.5781252 9.078125-1.8719982 1.059999-4.0305181 1.761844-6.47851568 2.089844l-0.59570312 1.890625h27.800781l-0.091797-1.890625c-2.702997-0.111-4.657282-0.543876-5.863281-1.296875-1.202999-0.753999-1.824141-1.570126-1.869141-2.453125-0.038999-0.843999 0.142501-1.689204 0.5625-2.533203 0.536-1.099999 1.412049-2.329408 2.623047-3.691406l6.302735-6.208985 5.595703-5.708984h28.658203l-0.089844 9.439453c-0.026 4.027996-0.531001 6.847564-1.5 8.476562-0.974999 1.621999-2.089564 2.695032-3.351562 3.207032-0.582 0.216-2.860035 0.471578-6.832032 0.767578l-0.662109 1.888672h40.240235l0.589843-1.888672c-2.904997-0.184-5.000735-0.845236-6.302734-1.990234-1.295999-1.138999-2.002813-2.957847-2.132813-5.464844-0.032-0.66-0.059125-2.562894-0.078125-5.712891l0.00586-60.269531h-3.087891zm361.033202 0-62.86328 62.271484c-4.569 4.584996-8.10189 7.606127-10.58789 9.078125-1.867 1.059999-4.02647 1.761844-6.48047 2.089844l-0.58984 1.890625h27.80078l-0.0918-1.890625c-2.71-0.111-4.65833-0.543876-5.86133-1.296875-1.205-0.753999-1.82804-1.570126-1.87304-2.453125-0.046-0.843999 0.14364-1.689204 0.55664-2.533203 0.54-1.099999 1.41986-2.329408 2.63086-3.691406l6.30078-6.208985 5.5957-5.708984h28.6543l0.0039-0.001953-0.08398 9.441406c-0.033 4.027996-0.52986 6.847564-1.50586 8.476562-0.968 1.621999-2.08775 2.695032-3.34375 3.207032-0.583 0.216-2.86704 0.471578-6.83203 0.767578l-0.66797 1.888672h40.24023l0.58789-1.888672c-2.89899-0.184-4.99792-0.845236-6.29492-1.990234-1.295-1.138999-2.00781-2.957847-2.13281-5.464844-0.033-0.66-0.05994-2.562894-0.08594-5.712891l0.01367-60.269531h-3.08984zm73.58984 0.921875c-9.91799 0-17.96679 8.232916-17.96679 18.378906l0.00586-0.001953v36.753906c0 10.14399 8.05076 18.378906 17.96875 18.378906h39.38476c9.91799 0 17.9668-8.230916 17.9668-18.378906l-0.00586-9.388672h-17.82422v3.533204c0 4.561995-3.26471 7.90039-7.7207 7.90039h-24.49219c-4.45099 0-7.71484-3.337395-7.71484-7.90039v-23.402344c0-4.561996 3.26285-7.898438 7.71484-7.898438h22.89258c4.45599 0 7.7207 3.335442 7.7207 7.898438v1.904297h17.82617l0.00586-9.398438c0-10.14399-8.0498-18.378906-17.96679-18.378906h-37.79493zm68.28321 0.066406v73.509766h57.35351c10.63799 0 19.56641-9.138777 19.56641-20.009766v-33.490234c0-10.871989-8.92942-20.009766-19.56641-20.009766h-57.35351zm-340.20508 0.671875-0.66016 1.892578c4.85164 0.25704 7.94594 0.766189 9.26172 1.539063 1.315 0.764999 2.01103 1.832642 2.08203 3.18164 0.072 1.503999-0.34114 3.716441-1.24414 6.648438l-14.72461 47.150391c-1.49799 4.759995-3.29319 7.84786-5.36718 9.255859-2.079 1.405998-5.42298 2.113281-10.04297 2.113281l-0.66016 1.890625h46.03516l0.5957-1.890625c-4.57899-0.072-7.71225-0.589063-9.40625-1.539062-1.317-0.733-2.01017-1.755174-2.07617-3.076172-0.053-1.131999 0.45058-3.381957 1.51758-6.751953l14.72656-47.150391c1.414-4.656995 3.16658-7.711876 5.26758-9.171875 2.098-1.465999 5.20527-2.201172 9.32226-2.201172l0.79883-1.890625h-45.42578zm-92.63281 0.048828 0.00195 0.00586h0.00977l-0.01172-0.00586zm0.00195 0.00586h-33.16797l-0.7207 1.890625c3.605 0 6.18923 0.256766 7.74023 0.759765 1.557 0.511 3.33785 1.595627 5.33985 3.265625l-17.32227 54.519531c-1.349 4.256996-3.70227 7.410846-7.07226 9.464844-1.913 1.138999-4.71316 1.763047-8.410161 1.873047l-0.52539 1.890625h30.724611l0.58984-1.890625c-3.80199-0.11-6.5173-0.729657-8.15429-1.847656-1.629-1.119999-2.49394-2.59183-2.58594-4.423828-0.065-1.360999 0.2177-3.049455 0.8457-5.064453l15.31055-49.027344 11.52734 62.251953h2.88086l50.05664-61.054687-14.93555 47.830078c-1.41999 4.503995-3.28403 7.520923-5.58203 9.044922-2.30199 1.525998-5.94564 2.287109-10.93164 2.287109l-0.72656 1.888672h46.38086l0.52344-1.890625c-4.024-0.073-6.74421-0.522657-8.15821-1.347656-1.41399-0.825-2.1557-1.917486-2.2207-3.271485-0.082-1.463998 0.3606-3.704847 1.30859-6.714844l14.75196-47.226562c1.42-4.502996 3.25977-7.512111 5.50976-9.037109 2.255-1.524999 5.62557-2.285157 10.10157-2.285157l0.73242-1.890625h-32.6836l-41.66406 50.708985-9.46289-50.703125zm450.40039 15.607422h31.54492c5.51 0 9.97657 4.573708 9.97657 10.220703v20.419921c0 5.633995-4.47057 10.210938-9.97657 10.210938h-31.54492v-0.007812-0.001954-40.841796zm-536.867186 5.742187-0.619141 24.041016h-23.929687l24.548828-24.041016zm361.027346 0-0.62696 24.041016h-23.92382l24.55078-24.041016z"/></svg>
