<svg enable-background="new 0 0 3839 1141.3" version="1.1" viewBox="0 0 3839 1141.3" xml:space="preserve" xmlns="http://www.w3.org/2000/svg">
<path d="m3433.5 593c0-22 0.9-43.4 2.8-64.1h178.1c17.2 0 24.8 16.5 13.7 27.3 29.8-24.1 59.1-52.8 86-84.1h-269.4c21.9-104.6 78.4-178.5 190.8-178.5 130.8 0 127.9 114.4 127.9 114.4 38.3-56.1 66.5-115 75.6-165.9 0 0-12.6 15.8-26.1 15.8h-478.7v6.3c5.8 0 11.4 0.8 16.6 2.2 18 5 24.6 27.1 12.6 41.3-25.9 30.6-66.2 103.4-66.2 207.8 0 394.7 252 534.3 483.3 550.1-252.8-44-347-242.2-347-472.6zm-967.4-328.7c28.8 0 52.1 19.2 52.1 42.9v165.1h-232.9v-165.2c0-23.7 23.3-42.9 52.1-42.9v-6.2h-224.9v6.3c28.8 0 52.1 19.2 52.1 42.9v709.4c0 23.7-23.3 42.9-52.1 42.9v6.3h224.9v-6.3c-28.8 0-52.1-19.2-52.1-42.9v-487.7h232.9v487.6c0 23.7-23.3 42.9-52.1 42.9v6.3h224.9v-6.3c-28.8 0-52.1-19.2-52.1-42.9v-709.4c0-23.7 23.3-42.9 52.1-42.9v-6.2h-224.9zm657.7 0c28.8 0 52.1 19.2 52.1 42.8v218.4c-56.8-125.2-170.4-234-363.1-284.8l-107.2 126.3c17.6-1.4 32.4 0 44.4 4.2 17.6 5.6 22.1 15.7 22.1 30.4v614.9c0 23.7-23.3 42.9-52.1 42.9v6.3h150v-6.3c-28.8 0-52.1-19.2-52.1-42.9v-624.1c165.7 0 522 352 251.3 720.6 90.5-66.7 152.3-164.5 152.3-376.7v-429.2c0-23.7 23.3-42.8 52.1-42.8v-6.3h-150v6.3zm-1252.4-17.9c-55.4 0-121.4 16.2-182.5 36.6-104.5 34.9-195 82.1-195 82.1l3 5.9c38-16 54.7-1.4 54.7 12.5v633.1c0 23.7-23.3 42.9-52.1 42.9v6.3h224.9v-6.3c-28.8 0-52.1-19.2-52.1-42.9v-564.4c0.7-48.3 16.5-87.1 42.5-116.5 26.1-29.4 63.5-44.1 112.1-44.1 73.9 0 123.7 76.7 123.7 76.7l-83.3 128.4-153.5 96.3 239.4-75.7s152.2-144.9 159.3-153.3c0.1 0-82.8-117.6-241.1-117.6zm-889.6 17.9c16.4 0 31.1 6.3 40.7 16.1 9.8 10.1 9.1 26.4-1.1 36.1-86.6 82.5-297.1 601.7 89.3 824.9-199.6-242.9-123.8-823.7 192.5-833.9v164.8h-174.8c-15.4 25.7-28.4 54-39 84.1 0 0 12.6-27.3 52.1-27.3h161.7v487.6c0 23.7-23.3 42.9-52.1 42.9v6.3h224.9v-6.3c-28.8 0-52.1-19.2-52.1-42.9v-709.6c0-23.7 23.3-42.9 52.1-42.9v-6.2h-494.2zm-102.2-114.3c-42.3-47.4-237.8-149.6-434.7-150-200.3-0.4-401.9 101.8-444.9 150v6.3c37.4 0 67.8 24.9 67.9 55.7v804.5c0 30.9-14.6 40.9-52.1 40.9v8.2h300s50.4-20.3 129.8-54.6c288.8-124.5 426.8-433.9 428.1-622 0.4-61.5-14.7-130.6-39.5-218.2 12.1-9 28-14.5 45.5-14.5zm-181 300.6c-18.2 169.2-146.7 406.1-435.9 532.4-22.7 9.9-37.2-11.4-37.2-34.2v-650.2c0-83.1 21.5-224.7 218.9-224.7 254.2 0 267.1 256.9 254.2 376.7z"/>
</svg>
