<svg height="74.332" width="248.032" xmlns="http://www.w3.org/2000/svg"><path d="M21.355 14.173h12.662l-4.536 26.646H17.198l4.157-26.646m-4.914 30.616h12.473l-.378 3.024H38.93l-1.512 10.772H14.173l2.268-13.796m162.525-28.348h11.527l-1.133 7.56h-11.53l1.136-7.56m-1.607 10.772h11.527l-2.077 13.984H175.28l2.079-13.984m-2.645 17.576h11.527l-2.078 13.796h-11.53l2.08-13.796m-52.725 0h11.527l-2.079 13.796H119.91l2.079-13.796m-70.493 0c-.097.893-.164 2.028-.063 3.048.136 1.245.62 2.24 1.802 2.24 1.556 0 2.493-1.368 3.031-2.986.304-.84.522-1.538.68-2.331l10.741-.029L65.5 58.623h-9.55l.56-2.767c-2.366 3.012-4.262 3.736-8.244 3.736-7.606 0-8.82-8.438-8.339-14.8l11.57-.003m5.927-3.591c.008-.792-.002-1.26-.04-1.815-.11-1.43-.56-2.675-1.99-2.675-1.494 0-2.387 1.493-3.012 3.298-.09.281-.168.551-.52 1.188l-11.67-.009c1.55-6.651 5.037-14.434 12.633-14.59 2.074-.043 5.948.24 7.463 3.203l.331.064.49-2.677h9.36l-2.156 14.012H57.424m13.728 0c-.697-1.39-.988-3.056-.711-5.038.948-6.783 6.047-10.226 13.7-10.226 3.299 0 5.592.774 8.228 2.393l-1.256 8.709c-1.914-1.601-5.38-2.452-7.434-2.452-.87 0-1.953.205-2.22 1.24-.387 1.5 1.295 2.326 3.34 3.048 1.691.597 3.13 1.34 4.276 2.313l-17.923.013m20.538 3.622c.52 1.428.676 3.146.423 4.96-1.036 7.406-7.39 10.19-14.173 10.19-4.48 0-6.365-.834-9.927-2.95l1.593-9.747c1.213 1.556 5.325 4.036 8.076 3.895 1.057-.054 3.19-.781 3.356-1.964.165-1.182-.343-2.052-2.997-2.897-1.243-.395-2.423-.811-3.469-1.455l17.118-.032m12.618-.025c-.459 2.78-.564 7.142 1.97 7.45 1.63.198 3.331-1.125 3.847-4.476h10.246c-1.785 10.532-7.958 12.444-15.3 12.39-8-.058-12.79-6.571-12.203-15.377l11.44.013m107.533-3.597c1.504-8.257 5.526-15 17.027-15.263a9.718 9.718 0 0 1 4.99 1.257l-1.487 8.941c-4.564-1.85-7.046 1.782-7.923 5.078zm12.344 3.598c.307 2.057 1.491 3.976 3.8 3.976l2.51-.19-1.463 10.006c-1.782.47-3.482.753-5.79.72-8.78-.122-12.378-6.579-11.867-14.524l12.81.012m-64.865-.001c-1.375 2.226-2.749 3.869-5.866 3.585l.538-3.594-12.14.007-2.194 13.792h12.283c10.165 0 17.143-4.448 20.564-13.822l-13.185.032m-4.871-3.588 2.406-15.503c4.913 0 6.046 3.778 5.103 10.582-.237 1.7-.567 3.496-1.01 4.949l12.78.013c.463-1.913.667-4.039.89-6.285 1.702-17.008-7.558-20.788-16.818-20.788h-11.529l-1.606 12.095c-1.89.377-6.52.945-8.976 4.252-.473.472-.756.284-.661-.283l.472-3.024h-10.867l-2.078 13.984h11.528c.472-1.984 5.67-4.913 8.88-3.402l-.538 3.391 12.024.019m35.006-.009c-.698-1.39-.989-3.056-.711-5.038.947-6.783 6.046-10.226 13.701-10.226 3.297 0 5.591.774 8.227 2.393l-1.256 8.709c-1.915-1.601-5.38-2.452-7.434-2.452-.87 0-1.953.205-2.22 1.24-.387 1.5 1.295 2.326 3.34 3.048 1.69.597 3.13 1.34 4.277 2.313l-17.924.013m20.539 3.622c.52 1.428.675 3.146.421 4.96-1.034 7.406-7.389 10.19-14.171 10.19-4.48 0-6.365-.834-9.927-2.95l1.592-9.747c1.214 1.556 5.325 4.036 8.076 3.895 1.058-.054 3.19-.781 3.357-1.964.165-1.182-.344-2.052-2.998-2.897-1.244-.395-2.422-.811-3.469-1.455l17.12-.032m17.615-24.693h2.379v.351h-.992v2.579h-.396v-2.579h-.991zm5.158 2.93v-1.73c0-.086.009-.456.009-.73h-.009l-.824 2.46h-.392l-.824-2.456h-.007c0 .27.007.64.007.726v1.73h-.384v-2.93h.568l.836 2.476h.007l.833-2.476h.563v2.93h-.383m-123.831 2.877c-9.25.062-13.801 6.554-15.598 15.26l27.929.006c.31-4.038.163-7.95-1.058-9.726-2.129-3.097-4.931-5.582-11.273-5.54zm.18 7.292c2.178 0 2.533 2.364 2.342 4.17h-5.662c.173-1.68 1.267-4.17 3.32-4.17" fill="#fff" fill-rule="evenodd"/></svg>