<svg width="44" height="44" xmlns="http://www.w3.org/2000/svg"><path d="M 22,0 C 17.592872,0 14,3.5905204 14,7.9960938 14,12.401667 17.591601,16 22,16 26.408396,16 30,12.401667 30,7.9960938 30,3.5905197 26.407125,0 22,0 Z m 0,2 c 3.327669,0 6,2.6711084 6,5.9960938 C 28,11.321078 25.326397,14 22,14 18.673598,14 16,11.321079 16,7.9960938 16,4.6711078 18.672327,2 22,2 Z M 8,14 C 3.5928728,14 0,17.590519 0,21.996094 0,26.401665 3.5916013,30 8,30 12.408396,30 16,26.401666 16,21.996094 16,17.590519 12.407125,14 8,14 Z m 28,0 c -4.407128,0 -8,3.590519 -8,7.996094 C 28,26.401665 31.591601,30 36,30 40.408396,30 44,26.401666 44,21.996094 44,17.590519 40.407125,14 36,14 Z M 8,16 c 3.327669,0 6,2.671107 6,5.996094 C 14,25.321077 11.326397,28 8,28 4.6735991,28 2,25.321077 2,21.996094 2,18.671107 4.6723276,16 8,16 Z m 28,0 c 3.327669,0 6,2.671107 6,5.996094 C 42,25.321077 39.326397,28 36,28 32.673598,28 30,25.321077 30,21.996094 30,18.671107 32.672327,16 36,16 Z M 21.425781,26.960938 c -4.417465,0 -8.003906,3.580109 -8.003906,8 0,1.620882 0.483684,3.126867 1.3125,4.386718 C 16.00293,42.093952 18.781592,44 22.003906,44 26.421372,44 30,40.419886 30,36 30,34.375996 29.515853,32.866787 28.685547,31.605469 27.41812,28.862459 24.645704,26.960937 21.425781,26.960938 Z"/></svg>
