<svg width="44" height="66" xmlns="http://www.w3.org/2000/svg"><path d="m 15.263309,0 1.850069,0.475973 c 9.274764,2.374352 9.547416,2.487667 18.919202,3.069078 l 1.529337,0.09519 -0.02738,1.488846 c -0.155082,8.625273 -0.158306,19.501294 0,29.582709 l 0.02738,1.72112 -1.760107,-0.140889 C 25.176052,35.440835 24.283812,35.246923 16.026022,31.467564 l -0.848763,-0.384588 -0.06649,-0.910061 c -0.828206,-10.785112 -0.795305,-18.633062 0,-28.314714 z m 2.95698,3.937253 c -0.613824,8.376551 -0.639291,15.642581 0.04694,25.059056 6.397557,2.918508 8.356065,3.359382 16.063915,3.986755 -0.124362,-9.092386 -0.125704,-18.5479 0,-26.4641303 C 27.570725,6.072554 24.632226,5.562724 18.220291,3.937253 Z m -13.1812498,33.641812 1.024774,0.37697 c 12.4083248,4.600483 35.7262738,6.214311 35.7262738,6.214311 l 1.4472,0.09139 L 44,66.000401 42.271183,65.928051 C 28.637875,65.347756 21.91845,64.23871 3.4940562,59.641391 L 3.0833632,59.538589 2.7782792,59.253006 C 1.9369702,58.463142 1.5608062,57.531134 1.0768402,56.14585 0.59287325,54.760567 0.18603125,53.017715 0.04815525,51.062453 c -0.275752,-3.910528 0.566433,-8.733906 4.25946195,-12.695166 z"/></svg>
