<svg width="44" height="44" xmlns="http://www.w3.org/2000/svg"><path d="M 21.996094,0 C 17.590519,0 14,3.5928728 14,8 c 0,4.407125 3.590519,8 7.996094,8 C 26.401666,16 30,12.408396 30,8 30,3.5916013 26.401665,0 21.996094,0 Z m 0,2 C 25.321077,2 28,4.6735991 28,8 28,11.326397 25.321077,14 21.996094,14 18.671107,14 16,11.327669 16,8 16,4.6723276 18.671107,2 21.996094,2 Z M 7.9960938,14 C 3.5905204,14 0,17.592872 0,22 0,26.407125 3.5905197,30 7.9960938,30 12.401667,30 16,26.408396 16,22 16,17.591601 12.401667,14 7.9960938,14 Z M 36,14 c -4.419891,0 -8,3.586441 -8,8.003906 C 28,26.421372 31.580109,30 36,30 40.419886,30 44,26.421372 44,22.003906 44,17.586441 40.419886,14 36,14 Z M 7.9960938,16 C 11.321079,16 14,18.673598 14,22 14,25.326397 11.321078,28 7.9960938,28 4.6711084,28 2,25.327669 2,22 2,18.672327 4.6711078,16 7.9960938,16 Z M 21.996094,28 C 17.590519,28 14,31.592872 14,36 c 0,4.407125 3.590519,8 7.996094,8 C 26.401666,44 30,40.408396 30,36 30,31.591601 26.401665,28 21.996094,28 Z m 0,2 C 25.321077,30 28,32.673598 28,36 28,39.326397 25.321077,42 21.996094,42 18.671107,42 16,39.327669 16,36 c 0,-3.327673 2.671107,-6 5.996094,-6 z"/></svg>