<svg width="44" height="44" xmlns="http://www.w3.org/2000/svg"><path d="M 22.003906,0 C 17.586441,0 14,3.5801144 14,8 c 0,4.419891 3.586441,8 8.003906,8 C 26.421372,16 30,12.419891 30,8 30,3.5801144 26.421372,0 22.003906,0 Z M 8,14 C 3.5916013,14 0,17.598335 0,22.003906 0,26.409481 3.5928728,30 8,30 12.407125,30 16,26.409481 16,22.003906 16,17.598334 12.408396,14 8,14 Z m 28,0 c -4.408399,0 -8,3.598335 -8,8.003906 C 28,26.409481 31.592872,30 36,30 40.407125,30 44,26.409481 44,22.003906 44,17.598334 40.408396,14 36,14 Z M 8,16 c 3.326397,0 6,2.678923 6,6.003906 C 14,25.328893 11.327669,28 8,28 4.6723276,28 2,25.328893 2,22.003906 2,18.678923 4.6735991,16 8,16 Z m 28,0 c 3.326397,0 6,2.678923 6,6.003906 C 42,25.328893 39.327669,28 36,28 32.672327,28 30,25.328893 30,22.003906 30,18.678923 32.673598,16 36,16 Z M 22,28 c -4.408399,0 -8,3.598334 -8,8.003906 C 14,40.40948 17.592872,44 22,44 26.407125,44 30,40.409481 30,36.003906 30,31.598334 26.408396,28 22,28 Z m 0,2 c 3.326397,0 6,2.678923 6,6.003906 C 28,39.328893 25.327669,42 22,42 18.672327,42 16,39.328892 16,36.003906 16,32.678921 18.673598,30 22,30 Z"/></svg>