<svg width="566.93" height="128.21" version="1.1" viewBox="0 0 566.929 128.211" xmlns="http://www.w3.org/2000/svg"><path d="m129.7698 0-58.088343 88.207715-19.302884-28.814677h-23.886904l31.422118 46.682002-2.355487 3.57815-33.670182-50.260152h-23.8888573l45.1468343 67.066922h23.670105 0.246096l2.277361-3.41213 2.296893 3.41213h23.670105 0.246096l84.377609-126.4580069h-23.67011l-72.211495 109.6512369-2.8926-4.31644 70.283745-105.33675h-23.6701zm334.36001 36.898723 0.00391 0.003907c-29.86997 0-64.01044 18.06231-75.34043 39.334289-7.64099 14.300985-4.27342 35.988161 14.43956 47.426151 4.991 3.02299 12.73872 4.18362 20.81071 4.18362 10.05899 0 20.62083-1.79953 26.97482-4.06253 2.044-0.578 8.31851-3.32213 9.64851-6.20512 3.74-8.05 5.81411-16.63653 8.12311-24.486522 0.572-2.210998 2.95091-3.35694 8.9239-4.253939 0.984-0.487 1.06789-0.901777 0.08789-1.384776-3.496 0.042999-6.82635 0.060547-10.07234 0.060547-3.549 0-6.99974-0.017157-10.47274-0.035157-3.697-0.018-7.41792-0.039062-11.29892-0.039062-1.69599 0-3.41754 0.006578-5.18754 0.017578-0.332-0.013-0.64255-0.019532-0.93555-0.019532-5.511 0-4.56624 1.91358-1.61525 2.22658 4.209 0.779999 6.42421 1.218293 6.41021 6.865288 0.324 4.656995-1.35359 14.845535-4.81059 23.152525-1.06799 2.254-4.1524 3.22268-7.9024 3.22268-6.38699 0-14.6951-2.80711-18.2521-6.8731-5.21699-5.969-8.86451-23.471434-1.47852-39.662418 7.55399-16.829983 19.01043-26.686382 37.07841-32.453376 4.742-1.510999 10.06681-2.39455 15.42981-2.39455a46.972 46.972 0 0 1 2.54299 0.066407c3.34299 0.188 2.9515 8.956669 3.1465 11.392666 0.344 4.451996 1.45681 6.244189 2.55081 6.244189 0.78699 0 1.56426-0.928911 2.03126-2.462909l5.9063-15.056758c0.737-2.125998-2.27732-3.250123-4.73832-3.746123-3.871-0.721999-7.899-1.060555-12.004-1.060555zm-270.39077 1.18165c-1.82 0-3.68949 0.736876-4.56449 2.005875l-52.97892 73.900962c-4.424 6.28899-11.96496 10.95758-18.25796 11.77158-1.23099 0.331-1.23395 1.79887-0.00195 1.88087l13.02354-1.834a35.95 35.95 0 0 1 3.9473-0.21289c3.62199 0 6.5922 0.50707 8.2442 0.66407 6.17399 0.577 8.88927 1.7085 9.03327 1.7715 0.126 0.042 0.24071 0.0625 0.34571 0.0625 0.963 0 1.07602-1.65208 0.41602-2.16408-7.20099-1.314-13.73137-6.95362-10.27938-12.35361l11.64267-16.509898 26.58614 0.162111c0.156 5.803997 0.46664 11.441407-0.69336 18.072407-1.075 6.02999-3.49265 8.48778-8.39264 9.84578-0.438 0.117-1.80899 0.55485-1.91799 1.46485 0.098 0.789 0.55159 0.91068 1.01759 0.88868 12.26399-0.544 10.83244-0.59016 13.86143-0.91016 2.419-0.257 4.14767-0.37305 5.64067-0.37305 1.726 0 3.13835 0.15488 4.94535 0.42188 7.721 1.148 14.1816 1.24691 14.5216 1.25391 0.497-0.168 0.81794-1.15149 0.08594-1.64649-5.238-1.465-9.39502-4.08806-9.96102-10.29305l-1.7461-73.982998c-0.043-2.728997-2.23862-3.886749-4.51762-3.886749zm341.44405 0.125001c-1.81899 0-3.68753 0.737736-4.56253 2.011734l-52.97893 73.887292c-4.43599 6.29899-11.96468 10.95758-18.26967 11.77158-1.223 0.32999-1.22686 1.79687-0.00586 1.88087l13.03526-1.834c1.375-0.154 2.69734-0.21289 3.94534-0.21289 3.621 0 6.59616 0.50416 8.24616 0.66016 6.16199 0.59 8.87655 1.71345 9.02155 1.77345a1.14 1.14 0 0 0 0.35157 0.0625c0.961 0 1.08388-1.64698 0.42188-2.16798-7.199-1.314-13.72814-6.946-10.28915-12.33799l11.64463-16.511847 26.58809 0.154298c0.154 5.812999 0.4744 11.450509-0.6836 18.068499-1.078 6.02999-3.49636 8.49778-8.40436 9.84578-0.426 0.129-1.79926 0.55781-1.90626 1.46681 0.098 0.789 0.54496 0.90772 1.00196 0.88672 12.27899-0.545 10.83606-0.59216 13.87706-0.91016 2.395-0.253 4.10503-0.36524 5.58403-0.36524 1.74799 0 3.16799 0.15674 5.00199 0.42774 7.71999 1.133 14.18159 1.23424 14.52159 1.24024 0.48342-0.16779 0.81643-1.14824 0.0879-1.63087-5.23217-1.47088-9.39358-4.09137-9.96297-10.30476l-1.74416-73.971281c-0.041-2.727997-2.24052-3.890655-4.52152-3.890655zm-175.76308 2.722677 0.00782 0.011719c-0.97 0.083-1.19063 2.376176-0.14063 2.535176 4.906 1.145999 9.23094 3.437818 7.92194 8.093813l-20.90056 64.691911c-1.72599 5.55699-10.76997 9.06588-13.88096 9.63288-1.05 0.166-1.3863 1.79494-0.1543 1.79494l22.69744-0.6836 23.63104 0.9043c0.982 0 0.98292-1.62996-0.08008-1.87696-6.45699-0.486-8.95389-6.22905-8.04889-9.66805l18.74624-64.799327c0.988-3.425997 5.19197-6.28863 9.21296-6.64263 3.765-0.332 2.88201-3.664091 1.00001-3.664091l-40.01203-0.330081zm-44.96909 0.212893c-0.5 0.980999-1.48916 2.529103-1.86916 3.205103l-33.14869 49.174209-2.5469 3.099633-3.48245-54.756283-34.73659 0.283205c-1.217 0-1.06496 1.548872-0.00196 1.630872l6.05669 1.228525c2.376 0.567999 3.67258 3.428735 2.85158 5.804733l-19.57241 62.896969c-2.379 6.629-7.62523 11.28672-12.20322 12.26572-1.397 0.252-1.56491 1.79883-0.00391 1.88283l13.29307-0.49805 15.82239 0.66211c1.632-0.084 1.71791-1.797 0.00391-2.209-4.411-0.898-8.17575-4.09022-9.63875-6.70122-1.472-2.541-1.38544-6.05261-0.14844-9.64461l15.10754-47.269896 2.95901 4.443394 4.1348 55.566832c0.166 3.854 1.74315 5.37505 3.57815 5.37505 1.698 0 3.61793-1.30452 4.83793-3.27151l44.04135-63.912608 1.43556 2.160173-15.19738 54.480895c-1.07 3.76199-5.98692 8.34518-11.54892 8.91217-1.88 0.331-1.81198 2.12502-0.08398 2.12502l23.7951-0.80274 19.58609 0.72266c1.55-0.085 1.4712-1.47884 0.15821-1.79884-5.803-1.559-10.29115-6.53288-8.95515-12.30088l16.08606-64.574715c1.335-5.317995 4.67974-4.917517 8.76374-5.980515 5.11199-1.335999 1.02113-1.998063 0.45313-1.998063l-29.80687-0.189454-0.01953-0.011719zm-3.37503 18.609519c0.00965 0.004515 0.01978 0.006784 0.0293 0.011719-0.00952-0.004885-0.01963-0.007248-0.0293-0.011719zm0.29102 0.23047c0.01149 0.013742 0.02223 0.026347 0.0332 0.041016-0.0107-0.014336-0.02197-0.027562-0.0332-0.041016zm-59.44968 1.283214c0.03089 0.012225 0.05964 0.024566 0.08984 0.039062-0.02951-0.014276-0.05968-0.026954-0.08984-0.039062zm-72.62556 0.138672c0.206 0 0.38458 0.205474 0.51758 0.605474l0.70117 30.797113c-1.88996-0.040977-4.4268-0.056624-7.12114-0.056641h-0.00196-0.00195c-2.68886 1.8e-5 -5.54723 0.018119-8.086 0.03711-2.535 0.011-4.74767 0.025391-6.14067 0.025391-0.81 0-1.34106-0.002578-1.49806-0.017578-0.981 0-1.39548-0.250477-0.98048-0.980477 6.475-9.24299 15.50663-20.657944 22.06463-29.970935 0.189-0.294 0.37788-0.439457 0.54688-0.439457zm341.44014 0.109376c0.203 0 0.38449 0.205474 0.52149 0.605474l0.68946 30.810785c-1.896-0.041-4.4474-0.054688-7.1524-0.054688h-0.00195c-2.71 0-5.56968 0.013344-8.09968 0.027344-2.19599 0.01-4.14062 0.023438-5.51762 0.023438-1.133 0-1.88519-0.005438-2.07619-0.023438-0.98099 0-1.38447-0.246524-0.98047-0.978523 6.48599-9.229991 15.5103-20.645944 22.07829-29.970935 0.184-0.296 0.36707-0.439457 0.53907-0.439457zm-268.3302 0.056641c0.01913 0.018209 0.03247 0.041308 0.05078 0.060548-0.01811-0.018903-0.03191-0.042627-0.05078-0.060548zm303.91641 60.244604v0.66798h1.86135v4.97855h0.75v-4.97855h1.8672v-0.66798h-4.47855zm5.2227 0v5.64653h0.72071v-4.80863l1.63282 4.80863h0.67384l1.64454-4.7266v4.7266h0.71876v-5.64653h-1.00587l-1.35157 3.92972c-0.135 0.398-0.23779 0.70026-0.30079 0.90626-0.058-0.186-0.14653-0.46495-0.26953-0.83595l-1.3379-4.00003h-1.12501z"/></svg>
