<svg enable-background="new 0 0 566.929 128.211" version="1.1" viewBox="0 0 566.929 128.211" xml:space="preserve" xmlns="http://www.w3.org/2000/svg"><defs><linearGradient id="SVGID_2_" x1="54.548801" x2="54.548801" y1="1333.5625" y2="1266.4971" gradientTransform="translate(8.3501,-1207.1035)" gradientUnits="userSpaceOnUse">
					<stop stop-color="#53B848" offset=".0604"/>
					<stop stop-color="#65CCEC" offset=".5549"/>
					<stop stop-color="#61C3E7" offset=".5832"/>
					<stop stop-color="#55A7D8" offset=".6882"/>
					<stop stop-color="#4D92CD" offset=".7933"/>
					<stop stop-color="#4886C6" offset=".8976"/>
					<stop stop-color="#4682C4" offset="1"/>
				</linearGradient><linearGradient id="SVGID_4_" x1="66.555702" x2="173.01289" y1="1333.5" y2="1206.6292" gradientTransform="translate(8.3501,-1207.1035)" gradientUnits="userSpaceOnUse">
					<stop stop-color="#6EBE44" offset="0"/>
					<stop stop-color="#6EBE44" offset=".0011"/>
					<stop stop-color="#BCDA20" offset=".2454"/>
					<stop stop-color="#ECEB09" offset=".4194"/>
					<stop stop-color="#FFF200" offset=".5055"/>
					<stop stop-color="#FBCA08" offset=".5783"/>
					<stop stop-color="#F79A11" offset=".6794"/>
					<stop stop-color="#F47419" offset=".7753"/>
					<stop stop-color="#F1581F" offset=".8635"/>
					<stop stop-color="#F04822" offset=".9411"/>
					<stop stop-color="#EF4223" offset="1"/>
				</linearGradient><linearGradient id="SVGID_6_" x1="38.063499" x2="144.5208" y1="1333.498" y2="1206.6272" gradientTransform="translate(8.3501,-1207.1035)" gradientUnits="userSpaceOnUse">
					<stop stop-color="#6EBE44" offset="0"/>
					<stop stop-color="#6EBE44" offset=".0011"/>
					<stop stop-color="#BCDA20" offset=".2454"/>
					<stop stop-color="#ECEB09" offset=".4194"/>
					<stop stop-color="#FFF200" offset=".5055"/>
					<stop stop-color="#FBCA08" offset=".5783"/>
					<stop stop-color="#F79A11" offset=".6794"/>
					<stop stop-color="#F47419" offset=".7753"/>
					<stop stop-color="#F1581F" offset=".8635"/>
					<stop stop-color="#F04822" offset=".9411"/>
					<stop stop-color="#EF4223" offset="1"/>
				</linearGradient></defs>

<path id="SVGID_1_" d="m464.12891 36.898438c-29.86697 0-64.00495 18.061911-75.33594 39.33789-7.64099 14.300986-4.27548 35.989742 14.4375 47.427732 4.99099 3.023 12.74051 4.1836 20.8125 4.1836 10.05899 0 20.62061-1.80146 26.97461-4.06446 2.044-0.578 8.31648-3.32012 9.64648-6.20312 3.74-8.04999 5.81405-16.63829 8.12305-24.488283 0.572-2.210998 2.95279-3.356907 8.92578-4.253906 0.984-0.487 1.06789-0.901766 0.08789-1.384766-3.496 0.043-6.82627 0.060547-10.07226 0.060547-3.549 0-6.99966-0.017156-10.47266-0.035156-3.697-0.018-7.41979-0.039063-11.30078-0.039063-1.696 0-3.4175 0.006578-5.1875 0.017578-0.332-0.013-0.64255-0.019531-0.93555-0.019531-5.51099 0-4.56623 1.913563-1.61523 2.226562 4.20899 0.78 6.42415 1.220194 6.41015 6.867188 0.324 4.657-1.35159 14.8434-4.80859 23.15039-1.068 2.254-4.1543 3.22461-7.9043 3.22461-6.38699 0-14.69495-2.809-18.25195-6.875-5.217-5.96899-8.86451-23.471126-1.47852-39.662109 7.554-16.829984 19.0121-26.684178 37.08008-32.451172 4.742-1.510999 10.06669-2.396485 15.42969-2.396485 0.848 0 1.69297 0.020407 2.54297 0.066407 3.34299 0.187999 2.95148 8.95658 3.14648 11.392578 0.344 4.451995 1.45678 6.24414 2.55078 6.24414 0.787 0 1.56425-0.926939 2.03125-2.460937l5.9043-15.058594c0.737-2.125998-2.27533-3.248141-4.73633-3.74414-3.87099-0.722-7.89891-1.0625-12.0039-1.0625zm-270.38672 1.18164c-1.82 0-3.68946 0.738814-4.56446 2.007813l-52.97851 73.900389c-4.424 6.28899-11.96677 10.95749-18.25977 11.77149-1.231 0.331-1.23395 1.79886-0.00195 1.88085l13.02539-1.83398c1.376-0.152 2.69731-0.21289 3.94531-0.21289 3.622 0 6.5941 0.50511 8.2461 0.66211 6.17399 0.577 8.8892 1.70848 9.0332 1.77148 0.126 0.042 0.2407 0.0625 0.3457 0.0625 0.963 0 1.07406-1.65011 0.41407-2.16211-7.201-1.31399-13.72934-6.95547-10.27735-12.35546l11.64258-16.50977 26.58594 0.164062c0.156 5.803998 0.46468 11.441268-0.69532 18.072268-1.07499 6.02999-3.49062 8.4877-8.39062 9.8457-0.438 0.117-1.80897 0.55485-1.91797 1.46485 0.098 0.78899 0.54963 0.90871 1.01563 0.88671 12.26398-0.544 10.83428-0.5882 13.86328-0.9082 2.419-0.257 4.14567-0.37305 5.63867-0.37305 1.726 0 3.14027 0.15293 4.94727 0.41993 7.72099 1.14799 14.18148 1.2469 14.52148 1.2539 0.497-0.168 0.81794-1.14953 0.08594-1.64453-5.238-1.465-9.39494-4.08993-9.96094-10.29492l-1.74609-73.982423c-0.043-2.728997-2.23858-3.886719-4.51758-3.886719zm341.4375 0.128906c-1.819 0-3.6875 0.739674-4.5625 2.013672l-52.98047 73.884764c-4.436 6.299-11.96454 10.95749-18.26953 11.77149-1.223 0.33-1.22491 1.79686-0.00391 1.88086l13.03516-1.83399c1.375-0.154 2.69731-0.21289 3.94531-0.21289 3.621 0 6.5961 0.50611 8.24609 0.66211 6.162 0.59 8.87454 1.71344 9.01954 1.77344 0.12899 0.042 0.24651 0.0625 0.35351 0.0625 0.961 0 1.08387-1.64697 0.42188-2.16797-7.199-1.314-13.72806-6.9459-10.28907-12.33789l11.64453-16.511721 26.58789 0.152344c0.154 5.812997 0.47441 11.450367-0.68359 18.068357-1.078 6.03-3.4963 8.49771-8.4043 9.84571-0.426 0.129-1.79925 0.55779-1.90625 1.46679 0.098 0.789 0.54496 0.90772 1.00196 0.88672 12.27899-0.545 10.83595-0.59216 13.87695-0.91016 2.395-0.25299 4.10499-0.36523 5.58399-0.36523 1.74799 0 3.16795 0.15869 5.00195 0.42969 7.71999 1.133 14.18148 1.23228 14.52148 1.23828 0.484-0.168 0.81794-1.15081 0.08594-1.63281-5.23699-1.478-9.40689-4.08979-9.96289-10.30078l-1.74414-73.972661c-0.041-2.727997-2.23853-3.890625-4.51953-3.890625zm-175.75391 2.71875c-0.978 0.083-1.19481 2.376876-0.13281 2.546875 4.90599 1.145999 9.23087 3.437755 7.92187 8.09375l-20.90234 64.693361c-1.726 5.55699-10.76791 9.06581-13.87891 9.63281-1.05 0.166-1.38629 1.79492-0.15429 1.79492l22.69726-0.68554 23.62891 0.90625c0.982 0 0.98487-1.62996-0.07813-1.87696-6.45699-0.486-8.95578-6.23092-8.05078-9.66992l18.74805-64.798827c0.988-3.425996 5.19189-6.286625 9.21289-6.640625 3.765-0.332 2.882-3.664062 1-3.664062l-40.01172-0.332032zm-44.95898 0.22461c-0.498 0.980999-1.48363 2.531313-1.89063 3.195312l-33.14648 49.171875-2.54688 3.09961-3.48242-54.75586-34.73633 0.283203c-1.217 0-1.06495 1.54886-0.00195 1.63086l6.05469 1.230468c2.37599 0.568 3.67256 3.426737 2.85156 5.802735l-19.57031 62.896483c-2.379 6.62899-7.62709 11.28858-12.20508 12.26758-1.397 0.252-1.56491 1.79881-0.00391 1.88281l13.29297-0.49804 15.82422 0.6621c1.632-0.084 1.7179-1.79698 0.00391-2.20898-4.411-0.898-8.17763-4.09017-9.64063-6.70117-1.472-2.541-1.38348-6.05254-0.14648-9.64453l15.10742-47.273441 2.95898 4.441407 4.13282 55.570314c0.166 3.85399 1.74312 5.375 3.57812 5.375 1.698 0 3.61789-1.30254 4.83789-3.26953l44.04492-63.916019 1.43555 2.15625-15.19922 54.486329c-1.07 3.762-5.98683 8.34706-11.54883 8.91406-1.87999 0.331-1.81198 2.125-0.08398 2.125l23.79492-0.80469 19.58594 0.72266c1.55-0.085 1.4712-1.47883 0.1582-1.79883-5.80299-1.559-10.29108-6.53278-8.95508-12.30078l16.08594-64.574218c1.335-5.317994 4.67968-4.915516 8.76367-5.978515 5.112-1.335999 1.02113-2 0.45313-2l-29.80664-0.189453zm-3.71875 18.521484c0.00399 0 0.00773 0.001892 0.01172 0.001953-0.00391-4.5e-5 -0.00781-1.5e-5 -0.01172 0-0.00467 0-0.00901-8.3e-5 -0.01367 0 0.00452-7.8e-5 0.00915-0.001953 0.01367-0.001953zm0.33398 0.080078c0.00643 0.003115 0.01317 0.00451 0.01953 0.007813-0.00622-0.003215-0.01325-0.004778-0.01953-0.007813zm-0.84375 0.089844c-0.00472 0.003263-0.00897 0.006408-0.01367 0.009766 0.00486-0.003477 0.00879-0.006391 0.01367-0.009766zm-130.9414 1.550781c0.20599 0 0.38653 0.205469 0.51953 0.605469l0.70117 30.796875c-1.891-0.041-4.429-0.056641-7.125-0.056641-2.697 0-5.55194 0.01811-8.08594 0.03711-2.535 0.011-4.74958 0.027344-6.14258 0.027344-0.81 0-1.34104-0.004532-1.49804-0.019532-0.981 0-1.39547-0.248516-0.98047-0.978515 6.47499-9.242991 15.50841-20.659666 22.0664-29.972657 0.189-0.293999 0.37593-0.439453 0.54493-0.439453zm341.4375 0.117188c0.20299 0 0.38448 0.205469 0.52148 0.605469l0.6875 30.8125c-1.896-0.041-4.44539-0.056641-7.15039-0.056641-2.709 0-5.57552 0.015297-8.10352 0.029297-2.19599 0.01-4.13862 0.021484-5.51562 0.021484-1.133 0-1.88713-0.003484-2.07813-0.021484-0.981 0-1.38251-0.24847-0.97851-0.980469 6.48599-9.229991 15.51013-20.645712 22.07812-29.970703 0.184-0.296 0.36707-0.439453 0.53907-0.439453zm35.58593 60.306641v0.66797h1.86133v4.97851h0.74805v-4.97851h1.86719v-0.66797h-4.47657zm5.21875 0v5.64648h0.72266v-4.80859l1.63281 4.80859h0.67383l1.64258-4.72656v4.72656h0.71875v-5.64648h-1.00586l-1.35156 3.92969c-0.135 0.398-0.23583 0.70025-0.29883 0.90625-0.058-0.186-0.14849-0.46494-0.27149-0.83594l-1.33789-4h-1.125z"/><path d="m0 59.392578 45.146484 67.064452h23.669922l-44.927734-67.064452h-23.888672zm28.490234 0 45.146485 67.066402h23.669922l-44.927735-67.066402h-23.888672z" fill="url(#SVGID_2_)"/><polygon points="158.261 1e-3 181.93 1e-3 97.553 126.459 74.98 126.459" fill="url(#SVGID_4_)"/><polygon points="129.769 0 153.438 0 69.063 126.458 46.489 126.458" fill="url(#SVGID_6_)"/>
</svg>
