<svg version="1.1" viewBox="0 0 188.80286 27.880148" xmlns="http://www.w3.org/2000/svg"><path d="m28.110553 0.6004647h-4.159946l-1.013833 2.119973c-0.5399-0.988295-1.327528-1.691619-2.362887-2.109973-1.035407-0.418302-2.461197-0.621632-4.277375-0.6099919959-4.145249 0.05835999594-7.6515062 1.341674996-10.5187832 3.849949996-2.867295 2.508322-4.703895 5.891608-5.50980596 10.1498683-0.408713 2.379146-0.349811 4.530783 0.176706 6.454916 0.526509 1.924148 1.47591396 3.505792 2.84821796 4.744939 2.03039 1.79331 4.939483 2.686631 8.7272892 2.679965 1.776038 0.0033 3.332653-0.22333 4.669851-0.679991 1.337158-0.456661 2.478424-1.163317 3.423803-2.119972l0.412041 2.199971h3.519954l1.163846-6.599914c0.25435-1.371641 0.430415-2.228296 0.528193-2.569967 0.09772-0.341653 0.234453-0.578317 0.410199-0.709991 0.142349-0.159988 0.355173-0.279986 0.638474-0.359995 0.28324-0.07999 0.671955-0.119988 1.166147-0.119998h1.199984l0.641879-3.639953h-14.559811l-0.641879 3.639953h1.679978c0.49458-0.0025 0.870069 0.03251 1.126469 0.104999 0.256358 0.07251 0.42598 0.197507 0.508866 0.374994 0.129258 0.131675 0.182522 0.368339 0.159794 0.709991-0.02277 0.341671-0.148836 1.198326-0.378195 2.569967l-0.04938 0.279996c-0.184587 1.074991-0.583892 1.86498-1.197917 2.369969-0.614064 0.504997-1.478138 0.754994-2.592222 0.749991-0.743194-8.31e-4 -1.422124-0.139162-2.036793-0.414995-0.614699-0.275826-1.146018-0.684153-1.593958-1.224984-0.7555612-0.90415-1.2295202-2.015801-1.4218802-3.334958-0.192385-1.31914-0.116416-2.940783 0.227905-4.864936 0.605721-3.392439 1.6265522-5.9774033 3.0624962-7.7548993 1.435913-1.777455 3.228715-2.672442 5.378411-2.684965 1.005896 0.0042 1.866988 0.205854 2.583278 0.604992 0.716243 0.399184 1.252094 0.970843 1.607553 1.714978 0.289748 0.568347 0.469825 1.191671 0.540231 1.869975 0.07035 0.678343 0.05753 1.601664-0.03847 2.7699643h4.159946z"/><path d="m43.115138 0.6004647-10.340825 20.0797403c-0.600578 1.208322-1.137232 2.011644-1.609966 2.409968-0.472739 0.398332-1.11006 0.581663-1.911963 0.549993h-1.279983l-0.641879 3.639953h12.159842l0.641879-3.639953h-1.719978c-0.673922 0.0033-1.14373-0.07333-1.409423-0.229997-0.265712-0.15666-0.363782-0.413323-0.294212-0.76999 0.0058-0.09916 0.05589-0.250826 0.150234-0.454995 0.09433-0.204158 0.346122-0.705817 0.755386-1.504979l1.046779-2.079973h8.199894l0.313203 2.079973c0.108513 0.797495 0.171126 1.302488 0.187839 1.51498 0.01667 0.212503 0.0075 0.3875-0.02758 0.524993-0.04791 0.370833-0.216702 0.619162-0.50637 0.74499-0.289704 0.125835-0.814983 0.184168-1.575838 0.174998h-1.55998l-0.641879 3.639953h15.199803l0.64188-3.639953h-1.319984c-0.387231-0.0017-0.735761-0.03833-1.045591-0.109998-0.309886-0.07166-0.537836-0.168327-0.68385-0.289996-0.142006-0.154162-0.288711-0.465824-0.440114-0.934989-0.151458-0.469155-0.267604-1.010814-0.348438-1.624978l-2.659006-20.0797403zm3.272409 14.5598113h-6.039921l4.707022-8.9998833z"/><path d="m90.168101 4.9204087-2.63805 14.9598063c-0.25441 1.371655-0.43047 2.22831-0.52819 2.569967-0.0978 0.341666-0.23451 0.57833-0.4102 0.709991-0.14241 0.160002-0.35523 0.28-0.63848 0.359995-0.28329 0.08-0.67201 0.120002-1.16614 0.119998h-1.35998l-0.64188 3.639953h15.5598l0.64188-3.639953h-2.23998c-0.49419 4e-6 -0.8688-0.03999-1.12382-0.119998-0.25509-0.07999-0.4256-0.199993-0.51151-0.359995-0.12579-0.151661-0.17729-0.398325-0.15451-0.739991 0.0227-0.341657 0.14702-1.188312 0.37291-2.539967l2.09492-11.8798463c0.25434-1.371628 0.43041-2.228283 0.5282-2.569967 0.0977-0.34164 0.23444-0.578303 0.4102-0.70999 0.14233-0.159975 0.35516-0.279974 0.63847-0.359996 0.28323-0.07998 0.67195-0.119975 1.166149-0.119998h2.23997l0.64188-3.639953h-15.559799l-7.09666 16.1997903-1.34323-16.1997903h-15.5598l-0.64188 3.639953h2.23997c0.49415 2.3e-5 0.86876 0.04002 1.12383 0.119998 0.25504 0.08002 0.42555 0.200021 0.51151 0.359996 0.12927 0.131687 0.18253 0.368351 0.15979 0.709991-0.0228 0.341683-0.14882 1.198338-0.37819 2.569966l-2.09493 11.8798463c-0.25086 1.351655-0.42516 2.19831-0.5229 2.539967-0.0978 0.341666-0.23625 0.58833-0.41549 0.739991-0.14239 0.160002-0.35521 0.28-0.63848 0.359995-0.28327 0.08-0.67199 0.120002-1.16614 0.119998h-2.23997l-0.64188 3.639953h12.27984l0.64188-3.639953h-1.35998c-0.49418 4e-6 -0.86878-0.03999-1.12383-0.119998-0.25507-0.07999-0.42557-0.199993-0.51151-0.359995-0.12929-0.131661-0.18255-0.368325-0.15979-0.709992 0.0227-0.341657 0.1488-1.198312 0.37819-2.569966l2.63806-14.9598063 2.25695 22.3597103h6.27991z"/><path d="m114.67763 0.6004647-10.34082 20.0797403c-0.60058 1.208322-1.13723 2.011644-1.60997 2.409968-0.47274 0.398332-1.11006 0.581663-1.91196 0.549993h-1.279979l-0.64188 3.639953h12.159839l0.64188-3.639953h-1.71998c-0.67392 0.0033-1.14373-0.07333-1.40942-0.229997-0.26571-0.15666-0.36379-0.413323-0.29421-0.76999 6e-3 -0.09916 0.0559-0.250826 0.15023-0.454995 0.0943-0.204158 0.34612-0.705817 0.75539-1.504979l1.04677-2.079973h8.1999l0.3132 2.079973c0.10851 0.797495 0.17113 1.302488 0.18784 1.51498 0.0167 0.212503 7e-3 0.3875-0.0276 0.524993-0.0479 0.370833-0.2167 0.619162-0.50637 0.74499-0.2897 0.125835-0.81498 0.184168-1.57584 0.174998h-1.55998l-0.64188 3.639953h15.19981l0.64187-3.639953h-1.31998c-0.38723-0.0017-0.73576-0.03833-1.04559-0.109998-0.30988-0.07166-0.53783-0.168327-0.68385-0.289996-0.14201-0.154162-0.28871-0.465824-0.44011-0.934989-0.15146-0.469155-0.26761-1.010814-0.34844-1.624978l-2.65901-20.0797403zm3.27241 14.5598113h-6.03992l4.70702-8.9998833z"/><path d="m135.15824 0.6004647-3.19661 8.584027 3.85714 1.8158383c0.38993-2.3341173 1.11686-4.0557593 2.18078-5.1649323 1.0639-1.10913 2.48097-1.64079 4.25121-1.59498l-2.75796 15.6397973c-0.25439 1.371655-0.43046 2.22831-0.52819 2.569967-0.0978 0.341666-0.2345 0.57833-0.4102 0.709991-0.14239 0.160002-0.35522 0.28-0.63848 0.359995-0.28328 0.08-0.67199 0.120002-1.16614 0.119998h-2.23997l-0.64188 3.639953h16.59978l0.64188-3.639953h-2.23997c-0.49418 4e-6 -0.86879-0.03999-1.12383-0.119998-0.25507-0.07999-0.42557-0.199993-0.5115-0.359995-0.1293-0.131661-0.18257-0.368325-0.1598-0.709992 0.0227-0.341657 0.1488-1.198312 0.3782-2.569966l2.75796-15.6397973h0.83999c1.48133 0.0017 2.51216 0.488349 3.0925 1.459981 0.58028 0.971674 0.70184 2.418321 0.36467 4.3399443l-0.16929 0.959987 4.37624-1.1392263-1.1942-9.391066z"/><path d="m188.05321 0.6004647h-26.51609l-0.64188 3.639953h2.23997c0.49415 2.3e-5 0.86876 0.04002 1.12382 0.119998 0.25505 0.08002 0.42555 0.200021 0.51151 0.359996 0.12927 0.131687 0.18254 0.368351 0.1598 0.709991-0.0228 0.341683-0.14883 1.198338-0.3782 2.569966l-2.09492 11.8798463c-0.25439 1.371655-0.43045 2.22831-0.52819 2.569967-0.0978 0.341666-0.23449 0.57833-0.4102 0.709991-0.14239 0.160002-0.35521 0.28-0.63848 0.359995-0.28327 0.08-0.67199 0.120002-1.16614 0.119998h-2.23997l-0.64188 3.639953h26.51609l4.17393-9.493201-5.48469-1.426657c-0.22645 1.080829-0.41733 1.88915-0.57262 2.424968-0.15535 0.535835-0.34156 1.034161-0.55863 1.494981-0.34634 0.754162-0.82635 1.415819-1.44002 1.984973-0.61372 0.569164-1.26611 0.960826-1.95717 1.174986-0.32442 0.09583-0.6697 0.154168-1.03585 0.174997-0.36619 0.02084-1.19265 0.02917-2.47938 0.025h-4.39994l1.4601-8.279892h1.23998c1.1134-0.01 1.87244 0.260008 2.27713 0.809989 0.40466 0.550004 0.49438 1.439991 0.26917 2.669966l-0.14108 0.799989h3.51996l2.11608-11.9998443h-3.51995c-0.13233 0.755009-0.25098 1.305001-0.35596 1.649979-0.10503 0.345013-0.22783 0.635009-0.36842 0.8699883-0.29847 0.558343-0.70135 0.971671-1.20865 1.239984-0.50733 0.268346-1.12083 0.401677-1.84051 0.399995h-1.35998l1.33313-7.5599023h5.27993c0.66178-8.1e-4 1.15639 0.01086 1.48381 0.035 0.32738 0.02419 0.59669 0.06585 0.80795 0.124998 0.4817 0.122521 0.90064 0.317519 1.25682 0.584993 0.35613 0.267518 0.63215 0.592514 0.82806 0.974987 0.2921 0.611679 0.46748 1.318336 0.52614 2.119972 0.0586 0.801675-8e-3 1.748328-0.20081 2.8399633l5.80587-1.1413263z"/></svg>
