<svg version="1.1" viewBox="0 0 1680 869.2" xmlns="http://www.w3.org/2000/svg">
 <path d="m0 0 71.195 53.33 0.09375 815.87 388.15-291.25-12.168-8.8125-0.03906-533.5-45.93-35.086zm1233.7 0.017578 0.5273 569.31-11.558 8.668 152.49 114.37 0.2832-222.03 46.707 162.66 46.766-163.41 0.291 292.5 140.34 105.81 0.1231-814.43 70.365-52.576-214.43-0.69727-43.514 152.4-43.449-152.2zm-340.03 0.17383-46.92 35.24 0.3418 598.8 134.21 99.523 241.34-182.45 0.3242-515.56-47.219-35.279zm-105.82 0.091797-281.7 0.015625-47.074 35.277 0.07226 516.75 242.63 181.54 133.22-100.2-0.17382-597.96zm281.99 152.1 11.873 9.0723 0.029 308.03-93.539 69.242-0.70508-377.33 11.406-8.7812zm-387.56 0.17969 11.582 9.1894-0.25 377.93-93.32-69.994-0.15821-308.1 11.098-8.5273zm-386.44 0.30664 10.758 8.7832 0.15234 307.89-94.541 70.898 0.18359-387.17z"/>
</svg>
