<?xml version="1.0" encoding="utf-8"?>
<!-- Generator: Adobe Illustrator 26.0.1, SVG Export Plug-In . SVG Version: 6.00 Build 0)  -->
<svg version="1.1" id="Layer_1" xmlns="http://www.w3.org/2000/svg" xmlns:xlink="http://www.w3.org/1999/xlink" x="0px" y="0px"
	 viewBox="0 0 3839 1232.6" style="enable-background:new 0 0 3839 1232.6;" xml:space="preserve">
<style type="text/css">
	.st0{fill:#FFFFFF;}
	.st1{fill:#034693;}
	.st2{fill:#F05100;}
	.st3{fill:#CF3312;}
	.st4{fill:#1281C4;}
</style>
<g>
	<rect x="29.9" y="936.5" class="st0" width="3781.9" height="277.7"/>
	<rect x="838.8" y="511.2" width="611.1" height="120.1"/>
	<rect x="3717.9" y="48.6" width="120.1" height="722.6"/>
	<polygon points="3463.2,48.6 3037.4,541.7 2611.7,48.6 2611.7,771.2 2731.8,771.2 2731.8,371.3 3037.4,725.5 3343.2,371.3 
		3343.2,771.2 3463.2,771.2 	"/>
	<rect x="590.8" y="48.7" width="120.1" height="600.3"/>
	<rect y="164.1" width="120.1" height="607.2"/>
	<polygon points="710.8,616.1 710.8,771.2 0,188.9 0,33.7 	"/>
	<path class="st2" d="M2078.9,0c-230.6,0-417.6,186.9-417.6,417.6s186.9,417.6,417.6,417.6c230.6,0,417.6-186.9,417.6-417.6
		S2309.6,0,2078.9,0z M2078.9,120.1c-164.4,0-297.5,133.2-297.5,297.5s133.2,297.5,297.5,297.5s297.5-133.2,297.5-297.5
		S2243.2,120.1,2078.9,120.1z M2078.9,693.5c-152.2,0-276-123.8-276-276c0-152.2,123.8-276,276-276c152.2,0,276,123.8,276,276
		C2355,569.7,2231.1,693.5,2078.9,693.5z M2078.9,715.1c-164.4,0-297.5-133.2-297.5-297.5s133.2-297.5,297.5-297.5
		s297.5,133.2,297.5,297.5C2376.4,581.8,2243.2,715.1,2078.9,715.1z"/>
	<polygon points="974.9,771.2 1242.3,282.5 1509.8,771.2 1646.7,771.2 1242.3,32.5 838.1,771.2 	"/>
	<g>
		<path class="st2" d="M535.8,1017.3h-93.1v104.9h89.9c7.6,0,15-0.3,22.5-0.7c8.9-0.3,23.2-0.7,30.6-6.7c9.9-8.2,9.5-32.1,9.5-43.9
			C595.3,1017.3,585.7,1017.3,535.8,1017.3z"/>
		<path class="st2" d="M1347,1033.9c-3.5-11.5-10.8-14.3-21.9-15.9c-15-2-30.2-1.6-45.1-1.6h-40.6c-51.5,0-50.5,10.2-50.5,59.5
			c0,12-1.3,32.4,9.5,41c12,9.5,56.6,7.6,71.2,7.6c10.2,0,20.7-0.3,30.9-0.3c11.7,0,30.9,0,40.6-7.3c10.5-7.9,9.5-29.3,9.5-41
			C1350.6,1064.3,1350.6,1045,1347,1033.9z"/>
		<path class="st2" d="M989.4,1017.3h-108v52.1h90.9c4.8,0,9.5-0.3,14.3-0.3c23.2-0.7,29.6-1.3,29.6-26.7
			C1016.1,1020.9,1010.7,1017.3,989.4,1017.3z"/>
		<path class="st2" d="M0,907.9v324.7h3839V907.9L0,907.9L0,907.9z M327.5,1090.4c-0.3,9.2-0.3,18.4-1,27.3
			c-1,16.8-2,30.9-14.6,42.9c-7.6,7.3-17.4,10.8-27.6,13c-31.7,6.7-69.2,5.7-101.7,5.7c-14,0-28,0-41.9-0.7
			c-21.9-0.7-52.1-1.3-70.9-14c-8.6-5.7-13.3-12.7-16.8-22.5c-6.6-19.7-5.7-54.9-5.7-75.3c0-13.3,0.3-26.7,1.3-40.1
			c2.3-31.4,12.4-53.7,45.4-60c30.9-6.1,69-5.7,100.1-5.7c15.6,0,30.9,0,46,1c22.9,1,59.8,2.3,76,21c12,13.7,11.4,37.5,11.7,54.6
			h-64.5c0-6.1,0.3-13.7-5.1-17.8c-3.1-2.3-6.1-3.1-9.9-3.8c-5.7-1-12.1-1-17.8-1.3c-14-0.7-28-0.7-41.9-0.7
			c-11.5,0-23.2,0.3-34.7,0.7c-9.2,0.3-25.5,0.7-33,6.7c-10.5,8.2-8.9,36.2-8.9,48c0,12.4-0.7,29.3,2.5,41.3
			c1.3,4.8,2.6,7.6,6.4,11.2c7.6,7,27,6.4,36.5,6.4c10.2,0,20.4,0.3,30.6,0.3c11.7,0,23.5-0.3,35.3-0.3c9.5,0,34,1.3,39.8-8.9
			c2.3-4.1,2.3-9.9,2.3-14.3v-6.7h-84.8v-42.3H328c0,2,0.3,4.1,0.3,6.1L327.5,1090.4z M657.6,1108.5c-1.3,17.1-6.1,37.8-19.1,49.8
			c-21.9,20-72.8,17.8-100.4,17.8H379.1V964.2h158c12.1,0,24.2,0,36.2,0.3c33,0.7,67.4,3.5,79.4,39.8c6.6,20,6.1,42.3,6.1,63
			C658.8,1080.9,658.4,1094.9,657.6,1108.5z M788.2,1121.5H682.4v-43.2h105.9V1121.5z M1078.4,1141.6v34.7h-63.6
			c0-12.7,0.7-26.1-2-38.5c-2.8-14-12.7-15.3-25.5-15.3H881.2v53.7h-64.6V964.3h156c11.4,0,23.2,0.3,34.7,0.3
			c24.2,0.3,51.1-2.3,65.4,21.6c8.2,13.7,7.6,32.7,7.6,48c0,14,0.3,30.6-7,42.9c-7,12-19.4,15-32.4,17.1
			C1073.3,1096.5,1078.4,1112,1078.4,1141.6z M1414.1,1107.5c-1,19.7-2.8,44.2-20,57.2c-8.9,7-19.1,9.5-30.2,11.2
			c-30.9,4.4-63.3,3.5-94.4,3.5c-16.6,0-33.4,0-49.8-0.3c-22.2-0.3-55.9-0.3-74.7-14.3c-17.1-12.4-19.1-37.8-20-57.2
			c-1-12.4-1-24.8-1-37.2c0-12.4,0-24.8,1-37.2c1.3-19.4,3.1-44.2,20-57.2c8.9-6.7,19.4-9.9,30.2-11.5c29.9-4.8,64.3-3.5,94.4-3.5
			c16.8,0,33.4,0.3,50.2,0.7c22.2,0.3,55.6,0.3,74.3,14.3c17.1,12.7,18.7,37.8,20,57.2c1,12.4,1,24.8,1,37.2
			C1415,1082.8,1415,1095.2,1414.1,1107.5z M1826.3,1176.2h-63.5l1.6-158.6h-10.8l-79.7,158.6h-53.7l-79.7-158.6h-11.5l1.6,158.6
			h-63.6V964.3h116.9l63,137.6l63.3-137.6h116.3L1826.3,1176.2L1826.3,1176.2z M2215.5,1162.6c-15.3,16.6-48.6,15.9-69.2,16.3
			c-16.6,0.7-33,0.7-49.6,0.7c-27.6,0-61,1-88-5.1c-10.2-2.3-19.1-6.4-26.3-13.7c-10.8-10.5-12.1-24.2-12.1-38.5
			c0-5.4,0.3-10.8,0.7-16.3h62.3c0,4.8,0,9.2,1.6,13.7c1,2.8,2.3,4.8,4.8,6.7c6.1,4.8,24.2,4.1,31.1,4.1c9.2,0,18.1,0.3,27.3,0.3
			c11.5,0,22.5-0.3,34-0.3c7.9,0,28,1,33.4-6.7c2.2-3.5,2.2-8.2,2.2-12.1c0-16.3-12.7-15.6-25.8-15.9c-34-1-68-2.8-102.1-4.1
			c-18.4-0.7-41.9-1.3-55.3-16.3c-11.2-12.4-12-30.2-12-46c0-37.8,9.9-61.7,50.5-65.8c27.3-2.8,55.6-2.5,83.2-2.5
			c26.7,0,55-0.7,81,5.7c28.9,7.4,35,26.3,35,54.1v10.2h-62.6v-3.1c0-6.1-0.6-10.5-6.1-14c-6.1-4.1-20.4-3.8-27.3-3.8h-54.9
			c-6.6,0-25.5-0.3-31.1,3.8c-4.1,2.8-5.1,7.9-5.1,12.7c0,3.8,1,8.9,4.1,11.5c2.2,2,5.4,2.5,8.2,2.8c7.4,1.3,15,1.3,22.2,1.6
			c14.3,0.7,28.6,1.3,42.9,1.6c24.5,0.7,59.4,0.3,83.3,6.7c7.6,2.3,14.3,5.4,20.4,10.8c13,11.5,13.7,33.4,13.7,49.3
			C2229.8,1128.6,2228.2,1148.9,2215.5,1162.6z M2435.8,1101.3v75H2369v-75l-121.7-137h85.2l68.9,85.2l66.1-85.2h83.9L2435.8,1101.3
			z M2814.7,1162.6c-15.3,16.6-48.6,15.9-69.2,16.3c-16.6,0.7-33,0.7-49.6,0.7c-27.6,0-61,1-88-5.1c-10.2-2.3-19.1-6.4-26.3-13.7
			c-10.8-10.5-12.1-24.2-12.1-38.5c0-5.4,0.3-10.8,0.7-16.3h62.3c0,4.8,0,9.2,1.6,13.7c1,2.8,2.3,4.8,4.8,6.7
			c6.1,4.8,24.2,4.1,31.1,4.1c9.2,0,18.1,0.3,27.3,0.3c11.5,0,22.5-0.3,34-0.3c7.9,0,28,1,33.4-6.7c2.2-3.5,2.2-8.2,2.2-12.1
			c0-16.3-12.7-15.6-25.8-15.9c-34-1-68-2.8-102.1-4.1c-18.4-0.7-41.9-1.3-55.3-16.3c-11.2-12.4-12-30.2-12-46
			c0-37.8,9.9-61.7,50.5-65.8c27.3-2.8,55.6-2.5,83.2-2.5c26.7,0,55-0.7,81,5.7c28.9,7.4,35,26.3,35,54.1v10.2h-62.6v-3.1
			c0-6.1-0.7-10.5-6.1-14c-6.1-4.1-20.4-3.8-27.3-3.8h-54.9c-6.6,0-25.5-0.3-31.1,3.8c-4.1,2.8-5.1,7.9-5.1,12.7
			c0,3.8,1,8.9,4.1,11.5c2.2,2,5.4,2.5,8.2,2.8c7.4,1.3,15,1.3,22.2,1.6c14.3,0.7,28.6,1.3,42.9,1.6c24.5,0.7,59.4,0.3,83.3,6.7
			c7.6,2.3,14.3,5.4,20.4,10.8c13,11.5,13.7,33.4,13.7,49.3C2829,1128.6,2827.4,1148.9,2814.7,1162.6z M3117,1018.3h-94.4v158h-67.7
			v-158h-94.4v-54.1H3117L3117,1018.3L3117,1018.3z M3385.6,1176.2h-235.8V964.3h234.6v49.9h-171v30.9h162.4v46.4h-162.4v34h172.3
			v50.7H3385.6z M3791.9,1176.2h-63.6l1.6-158.6h-10.8l-79.7,158.6h-53.7l-79.7-158.6h-11.5l1.6,158.6h-63.6V964.3h116.9l63,137.6
			l63.3-137.6h116.3v211.9H3791.9z"/>
	</g>
</g>
</svg>
