<svg enable-background="new 0 0 3839 1232.6" version="1.1" viewBox="0 0 3839 1232.6" xml:space="preserve" xmlns="http://www.w3.org/2000/svg">
<path d="m2078.9004 0c-230.5998 0-417.5996 186.89984-417.5996 417.59961s186.8998 417.59961 417.5996 417.59961c230.5998 0 417.5996-186.89984 417.5996-417.59961s-186.8998-417.59961-417.5996-417.59961zm-836.5996 32.5-261.93361 478.69922h-141.56641v120.10156h75.84766l-76.54883 139.89844h136.80078l76.54881-139.89844h381.7754l76.5762 139.89844h136.8984l-404.3984-738.69922zm-1242.3008 1.199219v155.201171 582.40039h120.09961v-484.01367l590.70117 483.91211v-122.19922h0.09961v-600.300781h-120.09961v469.078121l-590.80078-484.078121zm2611.6992 14.90039v722.599611h120.1016v-399.89844l305.5996 354.19922 305.7988-354.19922v399.89844h120v-722.599611l-425.7988 493.099611-425.7012-493.099611zm1106.2012 0v722.599611h120.0996v-722.599611h-120.0996zm-1639 92.900391c152.1998 0 276 123.80015 276 276 0.1 152.19985-123.8002 276-276 276-152.1999 0-276-123.80015-276-276s123.8001-276 276-276zm-836.5996 141 125.1836 228.69922h-250.3203l125.1367-228.69922zm540.6347 165.51758c14.7273 145.00903 133.6062 259.23658 280.6465 266.69531-147.1244-7.45416-265.9291-121.68307-280.6465-266.69531zm-1782.9355 459.88281v324.69921h3839v-324.69921h-3839zm1222.3242 53.04883c16.1-0.275 32.2254 0.05078 47.2754 0.05078 16.8 0 33.4012 0.29922 50.2012 0.69922 22.2 0.3 55.5988 0.30079 74.2988 14.30078 17.1 12.69999 18.7 37.7992 20 57.1992 1 12.4 1 24.8012 1 37.2012-0.1 12.4-0.1 24.7996-1 37.0996-1 19.7-2.8 44.1992-20 57.1992-8.9 7-19.0992 9.5012-30.1992 11.2012-30.9 4.4-63.3004 3.5-94.4004 3.5-16.6 0-33.4008-8e-4 -49.8008-0.3008-22.2-0.3-55.8992-0.2988-74.6992-14.2988-17.1-12.4-19.1-37.8012-20-57.2012-1-12.4-1-24.7992-1-37.1992s0-24.8012 1-37.2012c1.3-19.4 3.1-44.19921 20-57.1992 8.9-6.69999 19.3992-9.9 30.1992-11.5 14.95-2.4 31.025-3.27578 47.125-3.55078zm-1028.22459 0.05078c15.59998 0 30.90001 0 46 1 22.89998 1 59.80002 2.30002 76 21 11.99999 13.69999 11.40117 37.4996 11.70117 54.5996h-64.5c0-6.1 0.29843-13.6988-5.10156-17.7988-3.1-2.3-6.09844-3.1008-9.89844-3.8008-5.69999-1-12.10079-1.0008-17.80078-1.3008-13.99999-0.7-28.0004-0.6992-41.90039-0.6992-11.49999 0-23.19923 0.2992-34.69922 0.6992-9.19999 0.3-25.50001 0.7012-33 6.7012-10.49999 8.2-8.90039 36.2-8.90039 48 0 12.4-0.7 29.2988 2.5 41.2988 1.3 4.8 2.60039 7.6012 6.40039 11.2012 7.59999 7 27.00001 6.4004 36.5 6.4004 10.19999 0 20.39962 0.2988 30.59961 0.2988 11.69999 0 23.50079-0.2988 35.30078-0.2988 9.49999 0 33.99884 1.2996 39.79883-8.9004 2.3-4.1 2.30078-9.9008 2.30078-14.3008v-6.6992h-84.80078v-42.3008h147.40039c0 2 0.30078 4.0996 0.30078 6.0996l-0.80078 28.2012c-0.3 9.2-0.3 18.3988-1 27.2988-1 16.8-1.99962 30.9004-14.59961 42.9004-7.59999 7.3-17.39962 10.8-27.59961 13-31.69997 6.7-69.2012 5.7012-101.70117 5.7012-13.99999 0-28.00041-0.0012-41.90039-0.7012-21.89998-0.7-52.098458-1.3-70.898439-14-8.599991-5.7-13.300785-12.7-16.800781-22.5-6.599993-19.7-5.699219-54.8988-5.699219-75.2988 0-13.3 0.298829-26.7016 1.298828-40.1016 2.299998-31.39995 12.400424-53.69999 45.400391-59.99998 30.89997-6.1 68.99964-5.69922 100.09961-5.69922zm1912.09959 0.09961c26.7 0 55-0.69882 81 5.70117 28.9 7.39999 35 26.29964 35 54.09962v10.1992h-62.5996v-3.0996c0-6.1-0.5996-10.5-6.0996-14-6.1-4.1-20.4008-3.8008-27.3008-3.8008h-54.8984c-6.6 0-25.5016-0.2992-31.1016 3.8008-4.1 2.8-5.0996 7.8992-5.0996 12.6992 0 3.8 0.9996 8.9 4.0996 11.5 2.2 2 5.4012 2.5008 8.2012 2.8008 7.4 1.3 14.9992 1.2996 22.1992 1.5996 14.3 0.7 28.6004 1.2996 42.9004 1.5996 24.5 0.7 59.4008 0.3012 83.3008 6.7012 7.6 2.3 14.2984 5.3988 20.3984 10.7988 13 11.5 13.7012 33.4008 13.7012 49.3008-0.1 17.6-1.7004 37.8996-14.4004 51.5996-15.3 16.6-48.5992 15.9008-69.1992 16.3008-16.6 0.7-33.0016 0.6992-49.6016 0.6992-27.6 0-61 1.0004-88-5.0996-10.2-2.3-19.0988-6.3992-26.2988-13.6992-10.8-10.5-12.0996-24.2-12.0996-38.5 0-5.4 0.2992-10.8008 0.6992-16.3008h62.3008c0 4.8-4e-4 9.1992 1.5996 13.6992 1 2.8 2.2988 4.8012 4.7988 6.7012 6.1 4.8 24.2016 4.0996 31.1016 4.0996 9.2 0 18.0988 0.3008 27.2988 0.3008 11.5 0 22.5-0.3008 34-0.3008 7.9 0 28.0004 1.0008 33.4004-6.6992 2.2-3.5 2.1992-8.2016 2.1992-12.1016 0-16.3-12.6988-15.5984-25.7988-15.8984-34-1-67.9997-2.8016-102.0996-4.1016-18.4-0.7-41.9008-1.2988-55.3008-16.2988-11.2-12.4-12-30.2-12-46 0-37.79997 9.9-61.70079 50.5-65.80079 27.3-2.8 55.5992-2.5 83.1992-2.5zm599.2012 0c26.7 0 55-0.69882 81 5.70117 28.9 7.39999 35 26.29964 35 54.09962v10.1992h-62.5996v-3.0996c0-6.1-0.7016-10.5-6.1016-14-6.1-4.1-20.3988-3.8008-27.2988-3.8008h-54.9004c-6.6 0-25.4996-0.2992-31.0996 3.8008-4.1 2.8-5.0996 7.8992-5.0996 12.6992 0 3.8 0.9996 8.9 4.0996 11.5 2.2 2 5.3992 2.5008 8.1992 2.8008 7.4 1.3 15.0012 1.2996 22.2012 1.5996 14.3 0.7 28.5984 1.2996 42.8984 1.5996 24.5 0.7 59.4008 0.3012 83.3008 6.7012 7.6 2.3 14.3004 5.3988 20.4004 10.7988 13 11.5 13.6992 33.4008 13.6992 49.3008-0.1 17.6-1.7004 37.8996-14.4004 51.5996-15.3 16.6-48.5992 15.9008-69.1992 16.3008-16.6 0.7-32.9996 0.6992-49.5996 0.6992-27.6 0-61 1.0004-88-5.0996-10.2-2.3-19.1008-6.3992-26.3008-13.6992-10.8-10.5-12.0996-24.2-12.0996-38.5 0-5.4 0.2992-10.8008 0.6992-16.3008h62.3008c0 4.8-4e-4 9.1992 1.5996 13.6992 1 2.8 2.3008 4.8012 4.8008 6.7012 6.1 4.8 24.1996 4.0996 31.0996 4.0996 9.2 0 18.1008 0.3008 27.3008 0.3008 11.5 0 22.5-0.3008 34-0.3008 7.9 0 27.9984 1.0008 33.3984-6.6992 2.2-3.5 2.2012-8.2016 2.2012-12.1016 0-16.3-12.7008-15.5984-25.8008-15.8984-34-1-67.9996-2.8016-102.0996-4.1016-18.4-0.7-41.9008-1.2988-55.3008-16.2988-11.2-12.4-12-30.2-12-46 0-37.79997 9.9001-61.70079 50.5-65.80079 27.3-2.8 55.6012-2.5 83.2012-2.5zm-2326.30079 3.09961h158c12.09999 0 24.20118 7.8e-4 36.20117 0.30078 32.99997 0.7 67.39845 3.50082 79.39844 39.8008 6.59999 20 6.10156 42.3 6.10156 63 0 13.6-0.40117 27.5992-1.20117 41.1992-1.3 17.1-6.09962 37.8008-19.09961 49.8008-21.89998 20-72.80042 17.7988-100.40039 17.7988h-159v-211.90038zm2481.40039 0h256.5v54.10158h-94.4004v158h-67.6992v-158h-94.4004v-54.10158zm-2043.90039 0.10156h156c11.39999 0 23.20118 0.29883 34.70119 0.29883 24.2 0.3 51.0984-2.30037 65.3984 21.59961 8.2 13.69999 7.6016 32.69998 7.6016 47.99998 0 14 0.3 30.6004-7 42.9004-7 12-19.4004 14.9996-32.4004 17.0996 32.4 2.3 37.5 17.8004 37.5 47.4004v34.7012h-63.5996c0-12.7 0.7-26.1-2-38.5-2.8-14-12.7-15.3008-25.50002-15.3008h-106.10156v53.6992h-64.59961v-211.89842zm650.40039 0h116.9004l63 137.59962 63.2988-137.59962h116.3008l-0.1992 211.89842h-63.5l1.5996-158.5996h-10.8008l-79.6992 158.5996h-53.7012l-79.6992-158.5996h-11.5l1.5996 158.5996h-63.5996v-211.89842zm780.3008 0h85.1992l68.9004 85.19922 66.0996-85.19922h83.9004l-115.5996 137.00002v75h-66.8008v-75l-121.6992-137.00002zm902.5 0h234.5996v49.89842h-171v30.9004h162.4004v46.4004h-162.4004v34h172.2988v50.6992h-0.0996-235.7988v-211.89842zm282.6992 0h116.9004l63 137.59962 63.2988-137.59962h116.3008v211.89842h-0.0996-63.5996l1.5996-158.5996h-10.8008l-79.6992 158.5996h-53.7012l-79.6992-158.5996h-11.5l1.5996 158.5996h-63.5996v-211.89842zm-2141.2773 52.06832c-3.7547 0.0063-7.4977 0.0313-11.2227 0.0313h-40.5996c-51.5 0-50.5 10.2-50.5 59.5 0 12-1.3 32.4 9.5 41 12 9.5 56.5992 7.5996 71.1992 7.5996 10.2 0 20.7004-0.3008 30.9004-0.3008 11.7 0 30.8996 0.0012 40.5996-7.2988 10.5-7.9 9.5-29.3 9.5-41 0-11.6 4e-4 -30.9-3.5996-42-3.5-11.5-10.8004-14.3004-21.9004-15.9004-11.25-1.5-22.6129-1.6496-33.8769-1.6309zm-848.52348 0.9317v104.8984h89.90039c7.59999 0 15.00001-0.2992 22.5-0.6992 8.89999-0.3 23.19962-0.6992 30.59961-6.6992 9.89999-8.2 9.5-32.1004 9.5-43.9004 0.1-53.6-9.49849-53.5996-59.39844-53.5996h-93.10156zm438.70117 0v52.0996h90.90039c4.8 0 9.49883-0.3008 14.29883-0.3008 23.19999-0.7 29.59959-1.2992 29.59959-26.6992-0.1-21.5-5.4988-25.0996-26.79881-25.0996h-108zm-199 61h105.90039v43.1992h-0.10156-105.79883v-43.1992z"/></svg>
