<svg width="545px" height="82px" version="1.2" viewBox="14.968 80.666 545 82" xml:space="preserve" xmlns="http://www.w3.org/2000/svg">
<path d="m92.62425 93.542953c-0.29299-0.004844-0.595094 0.017094-0.90625 0.066406l-6.503906 1.03125c-3.316997 0.527-6.866579 4.134629-7.517578 7.640621l-1.808594 9.73047c-0.650999 3.508 1.731784 6.17153 5.050781 5.64453l2.173828-0.34179 6.640625-5.10547-0.86914-3.44141-0.488282 0.06055-0.158203 0.84766c-0.109 0.589-0.582672 1.0682-1.138672 1.1582l-3.361328 0.53125c-0.554999 0.089-0.873672-0.26652-0.763672-0.85352l1.69336-9.11523c0.109-0.586 0.582719-1.06435 1.136719-1.15235l3.363281-0.533198c0.554999-0.088 0.873672 0.267516 0.763672 0.853518l-0.216797 1.16015 6.796875-1.08007 0.259765-1.388676c0.589969-3.178216-1.314247-5.666068-4.146484-5.712891zm-20.347656 3.1875c-0.190099 0.007478-0.383141 0.027344-0.580078 0.058594l-12.935547 2.052734-2.757813 14.828129-11.912109 1.89257c-1.007999 0.159-1.988547 1.15276-2.185547 2.21875l-4.453125 23.94336c-0.198 1.066 0.459751 1.80058 1.46875 1.64258l22.728516-3.60742 1.839843-9.88672 0.923829-0.14648c1.018998-0.16 0.869874-0.34311 0.671875 0.71289l-1.681641 9.04297 8.1875-1.30469 0.050781-0.27149c0.209 0.016 0.488422 0.09755 0.732422 0.06055l6.320313-0.99023c-0.235 1.26-1.899409 1.57451-4.441407 1.97851l-2.892578 0.46094-1.550781 8.33984 3.798828-0.60156c9.355991-0.924 12.915595-5.75944 14.058594-11.52344l11.402344-1.81054 1.835937-9.88672 0.92773-0.14649c1.016-0.161 0.86493-0.34606 0.66993 0.71094l-1.68164 9.04492 8.18554-1.29883 0.11133-0.5996c0.617 0.272 1.34047 0.36804 2.10547 0.24804l14.1543-2.24414 1.32031-7.10547-0.91797-0.65234c0.795-0.941 1.41475-2.0955 1.59375-3.0625l0.22461-1.11914c0.706-4.19-3.15888-5.30444-4.92188-5.02344l-8.12304 1.28906c-1.438 0.229-3.02278 1.2296-4.17578 2.5586-1.066-1.056-2.71097-1.4645-3.66797-1.3125l-9.042971 1.43359 1.011719 2.23828 8.156252-1.29297c1.176-0.188 1.96273 0.2819 2.17773 1.21289-0.086 0.246-2.17773 11.37891-2.17773 11.37891l-2.92578 0.46484 1.56836-8.42773c0.194-1.056-0.12463-1.39537-1.14063-1.23438l-5.603515 0.89063-1.839844 9.88477-3.214843 0.51171 2.103515-11.3164-2.644531-3.12305-9.527344 3.44336 4.515625-0.7168 0.072266-0.00976-2.871094 15.44531c-0.729999 3.923-4.91591 7.67463-8.628906 8.26563l-3.800781 0.60156 0.576171-3.08985 2.890625-0.45703c2.540998-0.405 5.402485-2.94742 5.896485-5.60742l0.3125-1.67383-7.527344 1.19336c-1.613998 0.257-2.490828-0.72469-2.173828-2.42969l1.351562-7.26171c0.239-1.289 1.044095-2.35997 2.121094-2.91797l0.017578-0.19336 3.777344-2.90625-2.207031 0.37109c-1.172999 0.186-3.349424 1.06508-4.732422 2.83008-1.045999-1.247-2.876251-1.73722-3.90625-1.57422l-8.111328 1.28906 1.320312-7.10547 5.919922-0.93945c3.150997-0.499 6.638813-4.0421 7.257813-7.37109l0.888672-4.78906c0.581249-3.123751-1.441489-5.61998-4.292969-5.507817zm-3.498047 6.212887c0.536999-0.085 0.810125 0.22211 0.703125 0.78711l-0.746094 4.01758c-0.107 0.567-0.511829 0.98041-1.048828 1.06641l-4.091797 0.64843 1.091797-5.87109 4.091797-0.64844zm17.0625 0.61133c-0.285-0.012-0.536781 0.21-0.550781 0.5-0.015 0.291 0.209 0.53774 0.5 0.55274 5.998994 0.286 11.85249 0.89273 17.396484 1.80273 0.028 5e-3 0.05694 0.00781 0.08594 0.00781 0.253 0 0.47653-0.1824 0.51953-0.4414 0.048-0.286-0.1476-0.55847-0.43359-0.60547-5.584999-0.917-11.477589-1.52741-17.517583-1.81641zm24.289063 0.81836-16.316407 6.51367-4.585937-4.77343 1.46289 6.61523-13.894531 10.58789 16.320313-6.51562 4.583984 4.77343-1.462891-6.61133 13.892579-10.58984zm-54.025391 0.61524c-0.035006-0.00152-0.071422 1.1e-4 -0.107422 0.00585-8.613992 1.352-15.894646 3.49441-21.056641 6.19141-5.441994 2.844-8.393156 6.25705-8.535156 9.87305-0.173 4.39199 3.702992 8.6392 11.208984 12.2832 0.073 0.035 0.151516 0.05274 0.228516 0.05274 0.196 0 0.382609-0.10993 0.474609-0.29493 0.127-0.264 0.017859-0.57612-0.24414-0.70312-6.998993-3.398-10.768234-7.40893-10.615235-11.29492 0.256-6.553 11.254143-12.32641 28.703125-15.06641 0.287-0.045 0.484453-0.31556 0.439454-0.60156-0.039375-0.252-0.251053-0.43468-0.496094-0.44531zm52.560551 1.47265c-0.20138 0.03891-0.36907 0.19325-0.41407 0.40625-0.059 0.284 0.12225 0.563 0.40625 0.625 8.70399 1.846 15.99313 4.41469 21.07813 7.42969 5.10899 3.025 7.75339 6.36325 7.65039 9.65625-0.293 9.40999-22.51476 16.73047-50.677736 16.73047h-0.4375-0.001953c-0.289999 0-0.52439 0.23344-0.52539 0.52344s0.232437 0.52634 0.523437 0.52734c0.148 1e-3 0.294407 0 0.441406 0 13.785986 0 26.614026-1.74025 36.166016-4.90625 9.87999-3.277 15.40845-7.83685 15.56445-12.83984 0.115-3.7-2.70802-7.36366-8.16601-10.59766-5.184-3.073-12.58445-5.68474-21.39844-7.55274-0.071-0.01499-0.14186-0.01492-0.20898-0.00195zm-13.472661 1.28711-2.705078 0.42969 2.083985 1.95508c0.176999-0.477 0.299625-0.65849 0.390625-1.14649l0.230468-1.23828zm28.146481 7.29883c1.0137 0.15446 1.65935 1.39077 1.4336 2.60351l-0.36914 1.92969c-0.259 1.386-1.67346 2.8576-2.93946 3.0586l-7.80468 1.24023-0.11328 0.70117c-0.148 0.796 0.38032 1.41974 1.11132 1.30274l8.72461-1.39063-0.58789 3.16602-9.84179 1.56054c-1.739 0.274-3.18694-1.03554-2.83594-2.93554l1.11523-6.00196c0.354-1.89899 2.39482-3.76306 4.13281-4.03906l7.51954-1.1914c0.15837-0.02525 0.31026-0.02598 0.45507-0.00391zm-67.851559 1.39648-0.574218 3.08985-7.892579 1.2539-1.205078 6.48633 6.429688-1.01953-0.574219 3.08789-6.431641 1.01953-1.207031 6.49024 10.234375-1.62305-0.630859 3.39844-13.447266 2.13281 4.189453-22.55469 11.109375-1.76172zm65.134769 1.72071-1.5625 0.24609-2.49219 0.39648-0.63086 0.09961c-0.73 0.117-1.53169 0.9491-1.67969 1.7461l-0.06836 0.375 6.08203-0.96485c0.48-0.078 0.94793-0.56289 1.04493-1.08789 0.096-0.524-0.21236-0.88654-0.69336-0.81054zm-26.865237 1.50586-2.41211 12.97656-3.216797 0.50976 2.410157-12.97461 0.074218-0.01367 3.144532-0.49804zm-36.966797 1.96484-2.064453 11.12305-7.59961 1.20507 0.285156-1.54296 6.138672-0.97657 1.494141-8.0332-6.138672 0.97656 0.285156-1.54492 7.59961-1.20703zm13.201172 1.85742c1.244576 0.03808 1.879812 0.97513 1.601562 2.46875l-1.880859 10.11719-3.216797 0.50976 1.568359-8.42773c0.197-1.056-0.124579-1.39633-1.142578-1.23633l-5.603516 0.88867-1.835937 9.88672-3.216797 0.51172 2.412109-12.97656 0.074219-0.01172 10.669922-1.69141c0.20175-0.03225 0.392516-0.0445 0.570313-0.03906zm14.421875 0.6582-5.894532 0.93555c-1.019999 0.161-1.490547 0.6256-1.685547 1.6836l-0.720703 3.875c-0.198 1.05899 0.122626 1.39928 1.140625 1.23828l5.896485-0.93555 1.263672-6.79688zm-3.091797 2.89258-0.289063 1.54102-0.923828 0.14844c-0.993999 0.158-1.432531 0.42417-1.269531-0.54883 0.199-0.979 0.562641-0.8381 1.55664-0.9961l0.925782-0.14453z" fill="#c61717"/>
<path d="m525.59886 91.785141v6.041015h11.89648c1.696 0 3.59766 0.280612 3.59766 2.349614 0 1.95799-1.51172 2.68554-3.26172 2.68554h-4.91601c-8.827 0-9.89649 6.29876-9.89649 11.21875v3.88477h26.30469v-6.48047h-17.50391c-2e-3 -3.02 3.35436-2.58203 5.94336-2.58203h2.9375c5.259 0 9.0625-2.68557 9.0625-8.72656 0-3.883-2.46158-8.390629-7.76758-8.390629zm-350.80078 10.451169c-15.78399 0-27.6211 10.2588-27.6211 23.67578 0 13.41599 11.83711 23.67774 27.6211 23.67774h35.51562v-7.89258h-35.51562c-11.83799 0-19.72852-7.95916-19.72852-15.78516 0-7.82599 7.89053-15.7832 19.72852-15.7832h35.51562v-7.89258zm43.40625 0v47.35352h35.51562c15.78399 0 27.6211-10.26175 27.6211-23.67774 0-13.41698-11.83711-23.67578-27.6211-23.67578zm82.86719 0v47.35352h7.89257v-19.73047h35.51368c3.94599 0 7.89257 3.94853 7.89257 7.89453v11.83789h7.89258v-11.83789c0-7.89299-7.89453-11.8418-7.89453-11.8418 3.946 0 7.89453-5.69853 7.89453-9.64453 0-7.89199-3.94685-14.03125-11.83984-14.03125zm93.82812 0c-15.78498 0-27.62305 10.2588-27.62305 23.67578 0 13.41599 11.83807 23.67774 27.62305 23.67774h23.67578c15.78399 0 27.6211-10.26175 27.6211-23.67774 0-13.41698-11.83711-23.67578-27.6211-23.67578zm74.97461 0c-7.89299 0-15.7832 3.9449-15.7832 11.83789v35.51563h7.89258v-31.56836c0-7.89199 7.89189-7.89258 11.83789-7.89258h7.89062v39.46094h7.89258v-39.46094h7.89258c3.94499 0 11.83593 5.9e-4 11.83593 7.89258v31.56836h7.89454v-35.51563c0-7.89299-7.89417-11.83789-15.78516-11.83789zm-243.77539 7.89258h27.62109c11.83799 0 19.72852 7.95721 19.72852 15.7832 0 7.826-7.89053 15.78516-19.72852 15.78516h-27.62109zm82.86523 0h35.51368c3.94499 0 7.89257 2.19268 7.89257 6.13867-1e-3 3.946-3.94758 5.69922-7.89257 5.69922h-35.51368zm85.93555 0h23.67578c11.83799 0 19.72852 7.95721 19.72852 15.7832 0 7.826-7.89053 15.78516-19.72852 15.78516h-23.67578c-11.83799 0-19.73047-7.95916-19.73047-15.78516 0-7.82599 7.89348-15.7832 19.73047-15.7832zm-105.00781 11.83789c-2.179 0-3.94531 1.76732-3.94531 3.94531 0 2.178 1.76531 3.94532 3.94531 3.94532h2.95898c2.179 0 3.94532-1.76732 3.94532-3.94532-1e-5 -2.17799-1.76532-3.94531-3.94532-3.94531z" fill="#fff"/><path d="m524.71995 90.910141v7.794921h12.77149c0.799-4e-3 1.59664 0.0835 2.05664 0.3125 0.445 0.257 0.62506 0.403158 0.66406 1.160158-0.018 0.756-0.23647 1.07833-0.60547 1.36133-0.378 0.276-1.01934 0.44831-1.77734 0.44531h-4.91797c-4.609-0.025-7.486 1.71678-9 4.17578-1.517 2.441-1.76649 5.39993-1.77149 7.91992v4.75977h28.0586v-8.23242h-17.32617c0.121-0.23 0.31093-0.35482 0.58593-0.50782 0.53-0.259 1.46633-0.35075 2.48633-0.34375 0.549 0 1.12741 0.0185 1.69141 0.0215h3.06246c2.772 0 5.26398-0.70541 7.08398-2.31641 1.824-1.609 2.86347-4.08916 2.85547-7.28515-3e-3 -2.124002-0.66394-4.395319-2.08594-6.195317-1.41299-1.799998-3.65459-3.080312-6.55859-3.070312h-16.39648zm1.75391 1.751953h15.52148c2.399 0.01 4.04255 0.982251 5.18555 2.40625 1.135 1.424998 1.70617 3.347423 1.70117 5.107426-7e-3 2.84399-0.86872 4.7287-2.26172 5.9707-1.39699 1.242-3.43387 1.87695-5.92187 1.87695h-2.93555c-0.562 0-1.18436-0.0215-1.81836-0.0215-1.094 7e-3 -2.21956 0.0488-3.22656 0.50781-1.029 0.435-1.82034 1.55161-1.77734 2.97461v0.87695h17.50586v4.72656h-24.55274v-3.00781c-6e-3 -2.399 0.27991-5.05028 1.50391-6.98828 1.227-1.92 3.29667-3.32847 7.51367-3.35547h4.91797c0.992-4e-3 1.98187-0.19548 2.79687-0.77148 0.822-0.569 1.35685-1.58707 1.33985-2.78906 0.037-1.311003-0.73116-2.341192-1.66016-2.742192-0.917-0.425999-1.9165-0.479375-2.8125-0.484375h-11.01953zm-226.9375 8.037106v50.42188h10.96094v-19.72852h33.98047c1.45199-0.01 3.09884 0.76858 4.33984 2.01758 1.25 1.241 2.02758 2.8898 2.01758 4.3418-2e-3 3.94499-2e-3 11.83789 0 11.83789v1.53125h10.96094v-13.3711c0-4.48499-2.25154-7.82784-4.39454-9.96484-0.528-0.528-1.05197-0.98486-1.54296-1.38086 1.20999-0.725 2.26534-1.76344 3.15234-2.89844 1.644-2.15899 2.76416-4.76423 2.78516-7.24023-3e-3 -4.195-1.03821-8.03993-3.28321-10.91992-2.235-2.888-5.74585-4.66649-10.08984-4.64649h-47.35156zm-124.73828 2e-3c-8.22299 0-15.48852 2.67569-20.72852 7.17968-5.23899 4.496-8.43178 10.86326-8.42578 18.03125-6e-3 7.167 3.18679 13.53721 8.42578 18.03321 5.239 4.50399 12.50453 7.17773 20.72852 7.17773h37.05078v-10.96094h-37.05078c-5.574-1e-3 -10.13774-1.86794-13.30274-4.58593-3.16699-2.723-4.89562-6.27607-4.89062-9.66407-5e-3 -3.38899 1.72363-6.94106 4.89062-9.66406 3.164-2.717 7.72874-4.58494 13.30274-4.58594h37.05078v-10.96093h-1.53516zm41.87304 0v50.42187h14.25977c7.20099 0 16.08107-9.5e-4 22.78906-2e-3 8.22299 0 15.49152-2.67374 20.72852-7.17774 5.24199-4.49599 8.43373-10.86425 8.42773-18.03125 6e-3 -7.16799-3.18574-13.5372-8.42773-18.0332-5.236-4.50399-12.50453-7.17873-20.72852-7.17773v3.06836c7.561 1e-3 14.10352 2.45655 18.72852 6.43554 4.62699 3.988 7.35342 9.45804 7.35742 15.70703-4e-3 6.249-2.73143 11.71709-7.35742 15.70508-4.626 3.979-11.16752 6.4365-18.72852 6.4375-6.70799-1e-3 -15.58807-1e-3 -22.78906 0-4.92999 0-9.06741-9.5e-4 -11.19141-2e-3v-44.2832c1.832 0 5.19868 9.5e-4 9.51368 2e-3 6.64199-1e-3 15.52085-1e-3 24.46484 0v-3.07031h-35.51172zm178.22852 0c-8.22299 0-15.49347 2.67569-20.73047 7.17968-5.24099 4.496-8.43178 10.86326-8.42578 18.03125-6e-3 7.167 3.18479 13.53721 8.42578 18.03321 5.237 4.50499 12.50648 7.17773 20.73047 7.17773h23.67578c8.22199 0 15.49148-2.67274 20.73047-7.17773 5.239-4.496 8.43078-10.86621 8.42578-18.03321 5e-3 -7.16799-3.18678-13.53525-8.42578-18.03125-5.23899-4.50399-12.50748-7.17968-20.73047-7.17968zm74.97266 2e-3c-4.199 5e-3 -8.41213 1.0318-11.70313 3.2168-3.28999 2.16299-5.63523 5.67325-5.61523 10.15625v37.04687h10.96094v-33.10156c6e-3 -1.723 0.41485-2.84006 1.00585-3.66406 0.876-1.223 2.36368-1.93455 4.13868-2.31055 1.75799-0.375 3.68715-0.38581 5.16015-0.38281h6.35742v39.45898h10.96094v-39.45898h6.35742c1.957-0.011 4.75013 0.0339 6.82813 0.87695 1.042 0.419 1.8767 0.99641 2.4707 1.81641 0.59 0.824 0.99991 1.94106 1.00391 3.66406v33.10156h10.96094v-37.04687c0.021-4.483-2.32524-7.99326-5.61524-10.15625-3.292-2.185-7.50513-3.2118-11.70312-3.2168-3.945-1e-3 -27.62337-1e-3 -31.56836 0zm-295.07422 3.06836c11.29499 0 28.74547 9.5e-4 33.98047 2e-3v4.82227h-33.98047c-12.51399 1e-3 -21.21867 8.43237-21.26367 17.31836 0.045 8.88499 8.74968 17.31736 21.26367 17.31836h33.98047v4.82226h-33.98047c-7.55999 0-14.10252-2.45655-18.72852-6.43555-4.62499-3.98799-7.35337-9.45803-7.35937-15.70703 6e-3 -6.24899 2.73438-11.71708 7.35937-15.70507 4.626-3.978 11.16853-6.43655 18.72852-6.43555zm127.80859 0h45.81641c3.54999 0.021 5.95992 1.31475 7.66992 3.46875 1.701 2.162 2.63677 5.33135 2.63477 9.02734 0.021 1.471-0.83249 3.68919-2.14649 5.36719-1.303 1.72-3.00894 2.78614-4.21094 2.74414l-0.68554 2.90625s7e-3 5e-3 0.0527 0.0293c0.341 0.177 2.16213 1.20728 3.82813 2.98828 1.67499 1.795 3.16111 4.25122 3.16211 7.44922-1e-3 5.05099 0 8.48373 0 10.30273v2e-3h-4.82422v-10.30273c-0.011-2.493-1.20307-4.79467-2.91407-6.51367-1.71899-1.709-4.01872-2.90306-6.51171-2.91406h-37.04883v19.73046h-4.82227zm92.29297 0h23.67578c7.55899 0 14.10252 2.4556 18.72852 6.43359 4.62499 3.989 7.35142 9.45704 7.35742 15.70703-5e-3 6.249-2.73243 11.71904-7.35742 15.70703-4.625 3.979-11.16853 6.43555-18.72852 6.43555h-23.67578c-7.56199 0-14.10447-2.45655-18.73047-6.43555-4.62499-3.98799-7.35142-9.45803-7.35742-15.70703 5e-3 -6.24999 2.73243-11.71803 7.35742-15.70703 4.626-3.97799 11.16748-6.43359 18.73047-6.43359zm74.97266 0h31.56836c3.69199-4e-3 7.372 0.94017 10 2.70117 2.62899 1.786 4.228 4.19352 4.25 7.60352v33.97851h-4.82422v-30.0332c6e-3 -2.224-0.57099-4.06594-1.58399-5.46094-1.529-2.107-3.83523-3.06058-5.99023-3.51758-2.173-0.457-4.31288-0.44626-5.79688-0.44726h-9.42773v39.45898h-4.82227v-39.45898h-9.42773c-1.987 0.01-5.1118-0.0333-7.9668 1.0957-1.425 0.568-2.80931 1.47014-3.82031 2.86914-1.012 1.395-1.58998 3.23694-1.58398 5.46094-2e-3 6.67899-2e-3 24.66121 0 30.0332h-4.82422v-33.97851c0.02-3.411 1.62-5.81852 4.25-7.60352 2.62699-1.761 6.306-2.70517 10-2.70117zm-245.3086 4.82226v34.63672h1.53516c11.67499 0 20.3601 1e-3 27.62109 0 12.51599-1e-3 21.21868-8.43237 21.26368-17.31836-0.045-8.88499-8.74769-17.31736-21.26368-17.31836h-27.62109zm82.86524 0v14.90821h37.04883c2.19699-6e-3 4.42214-0.46747 6.24414-1.60547 1.81999-1.108 3.20964-3.11691 3.18164-5.62891 0.017-2.50799-1.31819-4.56473-3.11719-5.80273-1.803-1.262-4.0536-1.8661-6.30859-1.8711h-35.51368zm87.4707 0c-12.51399 2e-3 -21.22258 8.43237-21.26758 17.31836 0.045 8.88399 8.75359 17.31736 21.26758 17.31836h23.67578c12.51399-1e-3 21.21867-8.43337 21.26367-17.31836-0.045-8.88499-8.74968-17.31636-21.26367-17.31836zm-167.26758 3.06836h26.08789c5.574 1e-3 10.13974 1.86894 13.30274 4.58594 3.16699 2.723 4.89658 6.27507 4.89258 9.66406 4e-3 3.388-1.72559 6.93912-4.89258 9.66211-3.162 2.718-7.72874 4.58494-13.30274 4.58594h-26.08789zm82.86524 0h33.98047c1.69099-4e-3 3.38497 0.4895 4.54296 1.3125 1.16 0.844 1.79746 1.85497 1.81446 3.29297-0.026 1.434-0.61 2.27625-1.75 3.03125-1.137 0.726-2.85943 1.13977-4.60742 1.13477h-33.98047zm84.40234 0h23.67578c5.574 1e-3 10.13974 1.86894 13.30274 4.58594 3.16799 2.723 4.89757 6.27507 4.89257 9.66406 4e-3 3.388-1.72458 6.94207-4.89257 9.66407-3.163 2.71799-7.72974 4.58493-13.30274 4.58593h-23.67578c-5.57599-1e-3 -10.14069-1.86794-13.30469-4.58593-3.16699-2.722-4.89757-6.27607-4.89257-9.66407-4e-3 -3.38899 1.72558-6.94106 4.89257-9.66406 3.164-2.717 7.7297-4.58494 13.30469-4.58594zm-105.00781 8.77149c-3.027 0-5.48047 2.45347-5.48047 5.48047 0 3.02699 2.45347 5.47851 5.48047 5.47851h2.95898c3.027 0 5.47947-2.45152 5.48047-5.47851-1e-3 -3.027-2.45347-5.48047-5.48047-5.48047zm2.95898 3.06836c1.331 2e-3 2.41011 1.08011 2.41211 2.41211-2e-3 1.331-1.08111 2.40915-2.41211 2.41015h-2.95898c-1.331-1e-3 -2.40911-1.07915-2.41211-2.41015 3e-3 -1.332 1.08111-2.40916 2.41211-2.41016z"/>
</svg>
