<svg version="1.1" viewBox="373.5 287.587 691.322 126.382" xmlns="http://www.w3.org/2000/svg"><path d="m373.5 287.587v10.26953h9.93945v112.81641h11.94141v-112.81641h9.93945v-10.26953h-31.82031zm319.63281 0.08203c-4.22299 0.075-8.44606-0.09169-12.66406 0.07031-5.16699 0.799-9.39592 5.80951-9.16992 11.0625 0.018 32.77997 0.00581 65.55988 0.00781 98.33985 0.04 2.227-0.24858 4.55278 0.60742 6.67578 1.603 4.06099 5.9071 6.82059 10.2461 6.80859 7.45699 6e-3 14.9141-0.03233 22.37109 0.01367 0.075-23.10097 0.04658-46.20942 0.01758-69.3164-5.345 0.04-10.69126 0.00558-16.03125 0.01758v9.83593h5.49609c0.017 16.47699-0.0347 32.95271 0.0293 49.42969-4.16 0.07-8.31476 0.01816-12.46875 0.03516 0.017-34.04097-0.02856-68.08794 0.02344-102.12891 4.03199 0.023 8.06566 0.03414 12.09765-0.00586 0.064 6.133 0.0123 12.25763 0.0293 18.39063 3.621-5e-3 7.23542 0.01937 10.85742-0.01563-0.029-6.02899-0.01186-12.06366-0.00586-18.09765 0.324-6.017-5.36336-11.75724-11.44336-11.11524zm316.84769 17.80664c-2.7238 0.02663-5.4465 0.26003-8.1367 0.70703-18.07403 2.742-34.17362 15.4245-41.22661 32.27149-7.139 16.52298-5.31749 36.56967 4.8125 51.47265 9.72499 14.75299 27.06445 24.19521 44.77341 24.03321 11.831 0.231 23.6385-3.76182 33.0625-10.88282 8.623-6.50899 15.2873-15.63154 18.6953-25.89453 3.975-11.61099 3.7787-24.56499-0.4043-36.08398-3.616-9.82399-10.0839-18.60104-18.5019-24.83203-9.4339-7.13537-21.2711-10.90639-33.0742-10.79102zm-560.22073 2.85938c-0.081 30.67397-0.01216 61.34361-0.03516 92.01757h-11.86133c-0.023-30.66896 0.04166-61.34274-0.02734-92.01171-3.512 0.046-7.01926 0.01143-10.53125 0.02343 0.017 30.54697-0.04075 61.09466 0.03125 91.64063-0.145 5.50199 4.55957 10.646 10.10156 10.75 4.241 0.029 8.48557 0.01172 12.72656 0.01172 4.565 0.018 8.91683-3.36799 9.92383-7.83399 0.526-2.07699 0.29984-4.24628 0.33984-6.36328 5e-3 -29.39497-0.02242-58.79153 0.01758-88.1875-3.56399-0.046-7.12155 0.01713-10.68554-0.04687zm170.2832 0.01172c-1.609 0.02025-3.20717 0.14134-4.76367 0.58984-2.893 1.024-5.30577 3.32081-6.50977 6.13281-0.885 1.984-0.65278 4.21222-0.67578 6.32422 0.012 26.22497 6e-3 52.44995 0 78.66992-0.133 4.507 3.21049 8.50847 7.27148 10.10547 1.921 0.787 4.03151 0.58652 6.0625 0.60352 3.465-0.046 6.93721 0.0517 10.40821-0.0293 3.87099-0.376 7.11705-3.29208 8.74804-6.70508 1.053-2.124 0.74711-4.54898 0.78711-6.83398-6e-3 -26.24898-0.012-52.49712 0-78.7461 0.105-3.81199-2.74227-7.05095-5.94726-8.75195-3.223-1.776-7.02974-1.2728-10.55274-1.3418-1.59949 0.0435-3.21912-0.03782-4.82812-0.01757zm-121.90235 0.00976c-3.65349 0.00788-7.30653 0.02781-10.95703 0.00781v102.40039h10.11914c0.012-15.95598-1.4e-4 -31.91692 0.00586-47.8789 1.209 6e-3 2.42382 0.00572 3.63282 0.01172 3.65699 15.96198 7.3712 31.90715 11.0332 47.86914 3.309 0 6.61874 0.00614 9.92773-0.00586-3.45999-16.15299-6.85083-32.31758-10.29882-48.47656 4.98099-0.897 8.21586-5.94317 8.25586-10.78516 0.01699-11.18899 0.01699-22.38328 0-33.57227-0.052-5.51899-5.58778-9.4349-10.75977-9.5039-3.6505-0.0695-7.30549-0.07428-10.95899-0.06641zm234.48438 0.01367c6e-3 34.12797 0.01695 68.25776 0.00195 102.38672 3.366 0.023 6.73833-0.00137 10.11133 0.01563 0.034-16.05499 0.00558-32.10908 0.01758-48.16407 1.174-6e-3 2.3493-0.01143 3.5293-0.02343 3.68499 16.01398 7.39812 32.01712 11.07812 48.03711 3.303 0 6.60702 1.4e-4 9.91602-0.00586-3.408-16.18799-6.80274-32.37603-10.30274-48.54102 4.715-0.793 7.95441-5.45525 8.19141-10.03125 0.017-10.79599-0.01142-21.59073 0.01758-32.38672-0.03-1.643 0.16829-3.38425-0.59571-4.90625-1.86299-4.03799-6.32927-6.41528-10.69726-6.36328-7.08699-0.052-14.18059-0.01158-21.26758-0.01758zm-183.99414 0.01758c0.069 34.12797-0.02313 68.26157 0.04687 102.39453 7.66-0.046 15.31462 0.00138 22.97461-0.01562 3.46-0.028 7.01165-1.86865 8.55664-5.05664 1.429-2.638 0.89529-5.70437 0.98829-8.56836 0.272-6.74 0.09448-13.48657 0.14648-20.22657-0.058-4.41399 0.14403-8.83333-0.16797-13.23632-0.191-2.777-2.16517-4.98079-4.20117-6.67578 2.106-1.874 4.25166-4.24505 4.22266-7.24805-0.012-10.80699 0.01728-21.61503-0.01172-32.41602-0.174-4.92299-4.74966-8.93973-9.59766-8.92773-7.64899-0.104-15.30304-0.04044-22.95703-0.02344zm266.59375 0.10938c-4.646 0.041-9.29151-0.02885-13.9375 0.03515-4.732 0.22-8.60395 4.6869-8.62695 9.33789-0.018 30.91697 0.00109 61.83403-0.00391 92.75 3.373 0 6.74028-0.00614 10.11328 0.00586 0.029-16.20498-0.00556-32.40829 0.02344-48.61328 4.13599 0.018 8.27792 0.01186 12.41992 0.00586 0.012 16.19898-1.4e-4 32.40258 0.00586 48.60156h9.98047c0-30.91697-6e-3 -61.83498 0-92.75195 5e-3 -2.742-1.12339-5.53549-3.27539-7.27148-1.863-1.533-4.32722-2.13961-6.69922-2.09961zm61.0293 0.01171c-5.698 0.012-11.39085-0.01714-17.08985 0.00586-4.54699 0.069-8.47476 4.29907-8.50976 8.78907 0 31.10197 5e-3 62.21039 0 93.31836h10.26953c6e-3 -16.19899-0.01114-32.40454 0.00586-48.60352 4.19399 6e-3 8.38999 0.012 12.58398 0-0.018-3.373-0.00586-6.74614-0.00586-10.11914-4.19499 0-8.38913-0.00614-12.57812 0.00586 6e-3 -11.43799-0.04252-22.86865 0.02148-34.30664 5.096 0.046 10.19974 0.00948 15.30274 0.02148v-9.11133zm25.45703 0c0.087 9.095-0.1731 18.20708 0.1289 27.28907 2.065 7.45799 6.70973 13.85772 10.88672 20.26172-3.11899 4.64599-6.03334 9.44117-8.52734 14.45117-1.152 2.586-2.54014 5.24249-2.49414 8.14648 0.018 10.70299-1.4e-4 21.40639 0.00586 32.10938 3.50599 0.011 7.01144-0.03052 10.52344 0.02148 0.07499-11.52499 0.01743-23.04728 0.02343-34.57226 2.082-3.158 4.25908-6.25579 6.33008-9.42579 2.013 3.28 4.54075 6.29991 6.21875 9.75391 0.115 11.40299 0.00992 22.81367 0.04492 34.22266 3.321 6e-3 6.63604-0.01128 9.95703 0.01172-0.017-11.35699 0.13978-22.73105-0.07421-34.08204-1.852-7.48699-6.22582-14.04735-10.25782-20.52734 3.546-5.70999 7.11629-11.48951 9.48828-17.8125 1.169-3.02 0.82619-6.28436 0.86719-9.44336 6e-3 -6.79799-0.02328-13.59458 0.01172-20.39258-3.575-0.023-7.15157-0.017-10.72656 0-0.023 9.51199 0.10536 19.03408-0.05664 28.53907-1.678 3.04299-3.85966 5.78003-5.72266 8.70703-1.898-2.991-4.01503-5.84301-5.83203-8.875-0.226-9.45299-0.02975-18.92382-0.09375-28.38282h-10.70117zm-158.81055 9.83594h11.85938c0 11.09099 0.01114 22.1805-0.00586 33.27149-3.951-0.012-7.90252 1.4e-4 -11.85352-0.00586v-33.26563zm-233.44336 0.14453c-6e-3 11.14299 0.01728 22.28475-0.01172 33.42774-3.90499-0.034-7.80413-0.01158-11.70312-0.01758-6e-3 -11.13699 0.00614-22.26731-0.00586-33.4043 3.90599-0.012 7.80971 1.4e-4 11.7207-0.00586zm49.75586 0c3.911 6e-3 7.81557-0.01228 11.72656 0.01172-0.024 11.13099-0.00572 22.26145-0.01172 33.39844-3.90499 6e-3 -7.80398-0.00614-11.70898 0.00586-0.012-11.13699-0.00586-22.27903-0.00586-33.41602zm60.02344 0.14453h11.28125c6e-3 27.13898-0.00614 54.27886 0.00586 81.42383-3.766 0.012-7.53198 0.012-11.29297 0 0.012-27.13897-1.4e-4 -54.28485 0.00586-81.42383zm195.68164 0.28321c0.024 10.94599 0.00572 21.8919 0.01172 32.83789-3.946 6e-3 -7.8919-0.02256-11.83789 0.02344-0.058-10.95099-0.00644-21.90348-0.02344-32.85547 3.951-6e-3 7.89861 0.00614 11.84961-0.00586zm184.88867 17.49023c1.33096 1.331 2.50956 2.43335 3.85356 3.77735v8.79296h-6.40043a336.087 336.087 0 0 1 0-5.11914h-15.36133v32.00196h15.36133a336.087 336.087 0 0 1 0-5.1211h6.40043v8.79493c-1.344 1.34399-2.5001 2.41967-3.83208 3.76367h-21.67968l-3.67383-3.61133-0.02539-39.61914 3.69922-3.64844 21.6582-0.01172zm11.53316 0h31.9004l3.711 3.64844v39.59375l-3.6973 3.64844h-31.9922c-0.012-2.56 0.0671-4.87751 0.0801-7.4375h3.8398v-32.00196h-3.8418v-7.45117zm11.5215 7.45117v32.00196h16.6407v-32.00196h-16.6407zm-463.63669 18.73243c3.899 0.023 7.80513 0.00572 11.70312 0.01171 6e-3 12.67499-0.01114 25.35122 0.00586 38.03321-3.90499 0.018-7.8157-1.4e-4 -11.7207 0.00586 6e-3 -12.68199-0.01728-25.3688 0.01172-38.05078z"/></svg>
