<svg version="1.2" baseProfile="tiny" xmlns="http://www.w3.org/2000/svg" width="545" height="82" viewBox="14.968 80.666 545 82" xml:space="preserve"><path fill="#fff" d="M37.843 133.394a.533.533 0 0 1-.229-.053c-7.506-3.644-11.381-7.89-11.208-12.282.142-3.616 3.092-7.03 8.534-9.874 5.162-2.697 12.444-4.838 21.058-6.19a.527.527 0 0 1 .164 1.04c-17.449 2.74-28.447 8.514-28.703 15.067-.153 3.886 3.616 7.896 10.615 11.294a.525.525 0 0 1-.231.998zm65.43-26.976a.49.49 0 0 1-.086-.007c-5.544-.91-11.397-1.518-17.396-1.804a.526.526 0 0 1 .05-1.052c6.04.289 11.933.9 17.518 1.817a.525.525 0 0 1-.086 1.046zM86.708 142.36l-.441-.001a.525.525 0 0 1 .001-1.051h.44c28.163 0 50.385-7.319 50.678-16.729.103-3.293-2.541-6.633-7.65-9.658-5.085-3.015-12.375-5.583-21.079-7.429a.526.526 0 1 1 .218-1.029c8.814 1.868 16.213 4.48 21.397 7.553 5.458 3.234 8.281 6.897 8.166 10.597-.156 5.003-5.683 9.564-15.563 12.841-9.552 3.166-22.381 4.906-36.167 4.906z"/><path fill="#fff" d="m96.238 114.963 13.893-10.59-16.317 6.514-4.586-4.773 1.462 6.614-13.893 10.589 16.319-6.516 4.584 4.774z"/><g fill="#fff"><path d="M78.839 128.183c.199-.979.563-.838 1.557-.996l.926-.145-.289 1.542-.925.148c-.994.158-1.432.424-1.269-.549zm-2.006-1.413-.72 3.875c-.198 1.059.123 1.399 1.141 1.238l5.895-.936 1.264-6.796-5.895.935c-1.02.161-1.49.626-1.685 1.684zm37.424-6.117-.069.374 6.082-.964c.48-.078.948-.563 1.045-1.088.096-.524-.212-.887-.693-.811l-1.562.246-2.492.397-.631.099c-.73.117-1.532.95-1.68 1.747zm-42.665 17.525.049-.271c.209.016.49.097.734.06l6.32-.99c-.235 1.26-1.9 1.575-4.442 1.979l-2.893.46-1.551 8.34 3.8-.602c9.356-.924 12.916-5.76 14.059-11.524l11.401-1.809 1.837-9.887.927-.147c1.016-.161.866-.346.671.711l-1.682 9.044 8.185-1.298.112-.6c.617.272 1.339.368 2.104.248l14.155-2.244 1.32-7.106-.917-.652c.795-.941 1.415-2.094 1.594-3.061l.223-1.121c.706-4.19-3.158-5.304-4.921-5.023l-8.123 1.289c-1.438.229-3.023 1.231-4.176 2.56-1.066-1.056-2.711-1.466-3.668-1.314l-9.043 1.435 1.012 2.237 8.156-1.292c1.176-.188 1.962.282 2.177 1.213-.086.246-2.177 11.379-2.177 11.379l-2.925.465 1.568-8.428c.194-1.056-.125-1.396-1.141-1.235l-5.604.89-1.839 9.886-3.215.512 2.104-11.318-2.646-3.122-9.526 3.443 4.515-.717.073-.01-2.871 15.446c-.73 3.923-4.917 7.675-8.63 8.266l-3.8.602.576-3.09 2.891-.458c2.541-.405 5.402-2.947 5.896-5.607l.312-1.674-7.527 1.193c-1.614.257-2.49-.724-2.173-2.429l1.35-7.262c.239-1.289 1.044-2.36 2.121-2.918l.019-.193 3.776-2.906-2.206.37c-1.173.186-3.35 1.065-4.733 2.83-1.046-1.247-2.875-1.736-3.905-1.573l-8.113 1.289 1.322-7.107 5.919-.938c3.151-.499 6.638-4.043 7.257-7.372l.89-4.788c.62-3.332-1.723-5.95-4.874-5.45L58.76 98.841l-2.757 14.829-11.912 1.892c-1.008.159-1.989 1.154-2.186 2.22l-4.452 23.942c-.198 1.066.459 1.801 1.468 1.643l22.729-3.607 1.839-9.886.925-.147c1.019-.16.869-.343.671.713l-1.681 9.043 8.188-1.305zm-16.866-5.421-7.6 1.206.286-1.543 6.138-.977 1.494-8.032-6.139.975.286-1.545 7.6-1.206-2.065 11.122zm-.46 2.472-.631 3.397-13.447 2.134 4.191-22.554 11.109-1.763-.575 3.09-7.893 1.254-1.205 6.487 6.43-1.02-.574 3.088-6.431 1.02-1.208 6.49 10.234-1.623zm15.446.849-3.216.509 1.567-8.427c.197-1.056-.123-1.397-1.141-1.237l-5.604.89-1.836 9.887-3.217.511 2.412-12.976.075-.012 10.669-1.691c1.614-.258 2.49.722 2.172 2.429l-1.881 10.117zm20.901-15.91 3.144-.498-2.413 12.976-3.215.51 2.41-12.974.074-.014zm19.503 6.115 1.116-6.002c.354-1.899 2.394-3.763 4.132-4.039l7.52-1.191c1.267-.202 2.147 1.213 1.889 2.599l-.369 1.931c-.259 1.386-1.673 2.857-2.939 3.058l-7.806 1.24-.112.701c-.148.796.38 1.419 1.111 1.302l8.724-1.389-.588 3.166-9.842 1.56c-1.739.274-3.187-1.036-2.836-2.936zm-46.521-16.821 1.091-5.871 4.092-.647c.537-.085.811.221.704.786l-.746 4.019c-.107.567-.513.979-1.05 1.065l-4.091.648z"/><path d="m89.753 112.208-.869-3.44-.489.06-.158.848c-.109.589-.582 1.067-1.138 1.157l-3.362.532c-.555.089-.873-.267-.763-.854l1.694-9.114c.109-.586.582-1.065 1.136-1.153l3.364-.533c.555-.088.872.267.762.853l-.216 1.16 6.797-1.08.259-1.389c.651-3.507-1.733-6.172-5.052-5.646l-6.503 1.031c-3.317.527-6.868 4.135-7.519 7.641l-1.809 9.73c-.651 3.508 1.732 6.173 5.051 5.646l2.174-.343 6.641-5.106zm4.818-2.076c.177-.477.3-.658.391-1.146l.231-1.238-2.705.43 2.083 1.954z"/></g><path fill="#fff" d="M210.313 141.697h-35.514c-11.838 0-19.73-7.958-19.73-15.784s7.892-15.784 19.73-15.784h35.514v-7.893h-35.514c-15.784 0-27.622 10.26-27.622 23.677 0 13.416 11.838 23.676 27.622 23.676h35.514v-7.892zm208.262-39.461h-23.676c-15.785 0-27.622 10.26-27.622 23.677 0 13.416 11.837 23.676 27.622 23.676h23.676c15.784 0 27.621-10.26 27.621-23.676 0-13.417-11.837-23.677-27.621-23.677zm0 39.461h-23.676c-11.838 0-19.73-7.958-19.73-15.784s7.893-15.784 19.73-15.784h23.676c11.838 0 19.729 7.958 19.729 15.784s-7.891 15.784-19.729 15.784zM253.72 102.236h-35.515v47.353h35.515c15.784 0 27.621-10.26 27.621-23.676 0-13.417-11.837-23.677-27.621-23.677zm0 39.461h-27.622v-31.568h27.622c11.838 0 19.729 7.958 19.729 15.784s-7.891 15.784-19.729 15.784zm98.649-15.784c3.946 0 7.893-5.7 7.893-9.646 0-7.892-3.946-14.03-11.839-14.03h-47.352v47.353h7.893v-19.73h35.514c3.946 0 7.892 3.947 7.892 7.893v11.838h7.893v-11.838c0-7.893-7.894-11.84-7.894-11.84zm-7.891-3.946h-35.514v-11.838h35.514c3.945 0 7.892 2.192 7.892 6.138-.001 3.946-3.947 5.7-7.892 5.7zm-54.586 7.891a3.946 3.946 0 1 1 0-7.891h2.959a3.946 3.946 0 0 1 0 7.891h-2.959zm191.82-19.729v39.46h7.892v-39.46h7.893c3.945 0 11.837 0 11.837 7.892v31.568h7.893v-35.514c0-7.893-7.893-11.839-15.784-11.839h-31.568c-7.893 0-15.784 3.946-15.784 11.839v35.514h7.892v-31.568c0-7.892 7.893-7.892 11.839-7.892h7.89zm56.051-1.227h2.937c5.259 0 9.062-2.685 9.062-8.726 0-3.883-2.46-8.39-7.766-8.39h-16.397v6.04h11.896c1.696 0 3.598.281 3.598 2.35 0 1.958-1.512 2.685-3.262 2.685h-4.916c-8.827 0-9.896 6.299-9.896 11.219v3.884h26.305v-6.479H531.82c-.002-3.02 3.354-2.583 5.943-2.583z"/></svg>