<?xml version="1.0" encoding="utf-8"?>
<!-- Generator: Adobe Illustrator 25.4.1, SVG Export Plug-In . SVG Version: 6.00 Build 0)  -->
<svg version="1.1" id="Layer_1" xmlns="http://www.w3.org/2000/svg" xmlns:xlink="http://www.w3.org/1999/xlink" x="0px" y="0px"
	 viewBox="0 0 3839 458.2" style="enable-background:new 0 0 3839 458.2;" xml:space="preserve">
<style type="text/css">
	.st0{fill:#FFFFFF;}
	.st1{fill:#7B9A99;}
	.st2{fill:url(#SVGID_1_);}
	.st3{clip-path:url(#SVGID_00000084510726850371484800000002832148298520294548_);}
	.st4{fill:#606161;}
	.st5{clip-path:url(#SVGID_00000049197680169252302210000001071637542070276799_);}
	.st6{clip-path:url(#SVGID_00000020390592019570887070000016082966942074464689_);}
	.st7{fill:url(#SVGID_00000074437809741520058950000005969317621335551400_);}
	.st8{fill:url(#SVGID_00000099628106105452428810000017067763205428287924_);}
	.st9{fill:url(#SVGID_00000101786704670823598010000005936393706779115954_);}
	.st10{fill:url(#SVGID_00000173156791365028205110000007652414788257980550_);}
	.st11{fill:#F58746;}
	.st12{fill:url(#SVGID_00000136392099470358456290000016174882021820045488_);}
	.st13{fill:url(#SVGID_00000079468838366568768780000000806105223391859892_);}
	.st14{fill:url(#SVGID_00000090999176647857295790000015717139628268298681_);}
	.st15{fill:url(#SVGID_00000067920247422499480880000007693163556461300359_);}
	.st16{fill:url(#SVGID_00000052091785976982692150000008186579695681248436_);}
	.st17{fill:url(#SVGID_00000039116183032157988230000016391591926753813670_);}
	.st18{fill:url(#SVGID_00000169525861594894843800000014093398559009307062_);}
	.st19{fill:url(#SVGID_00000125582433410671949850000015885832070204475816_);}
	.st20{fill:url(#SVGID_00000152239312945903064540000006265237327331583629_);}
	.st21{fill:url(#SVGID_00000020369310940618782890000012016268736893840562_);}
	.st22{fill:url(#SVGID_00000122708406113135702490000003041438955369571759_);}
	.st23{fill:url(#SVGID_00000046323751232142126920000001964262176463075223_);}
	.st24{opacity:0.25;fill:url(#SVGID_00000138532944070093411440000008548925860061887931_);}
	.st25{fill:url(#SVGID_00000055704568678825199870000010669212737167830675_);}
	.st26{fill:url(#SVGID_00000108271980982877589530000003981552973311700414_);}
	.st27{fill:url(#SVGID_00000078763745326102743220000013381321137591723654_);}
	.st28{fill:url(#SVGID_00000112604993563730293440000001396036639898337922_);}
	.st29{fill:url(#SVGID_00000149351097316797939850000014712473914520463027_);}
	.st30{fill:url(#SVGID_00000106110457649899450340000008355412306758073515_);}
	.st31{fill:url(#SVGID_00000019661984742899635930000017308310905414569137_);}
	.st32{fill:url(#SVGID_00000160882254269938470190000015144339864389133494_);}
	.st33{fill:url(#SVGID_00000150085174922552619230000011324432359315422354_);}
	.st34{fill:url(#SVGID_00000044147813765908105920000009533464211593070998_);}
	.st35{fill:url(#SVGID_00000128452158055162800790000000473646459766255781_);}
	.st36{fill:url(#SVGID_00000070090631365300387060000007007086356394799491_);}
	.st37{fill:url(#SVGID_00000138570975751613234720000001293941649466465446_);}
	.st38{fill:url(#SVGID_00000057128857801181684320000015227234196676844691_);}
	.st39{fill:url(#SVGID_00000135673024549499942410000016786029117094097295_);}
	.st40{opacity:0.25;fill:url(#SVGID_00000152234860050693920600000004224682982096548524_);}
	.st41{fill:url(#SVGID_00000065773779777408189600000006245019252881493684_);}
	.st42{fill:url(#SVGID_00000019644382801473756580000012705378950057835661_);}
	.st43{fill:url(#SVGID_00000065786587515666880080000002707272750637426608_);}
	.st44{fill:url(#SVGID_00000173131733846562441920000017870582179939704715_);}
	.st45{fill:url(#SVGID_00000036944911784961849670000011978442347269346216_);}
	.st46{fill:url(#SVGID_00000088130705138598441120000014021598287335425427_);}
	.st47{fill:url(#SVGID_00000019659053360192849900000013589872624373521848_);}
	.st48{fill:url(#SVGID_00000153670737701531198040000017476307986420559238_);}
	.st49{clip-path:url(#SVGID_00000057132448559762398280000011031038080667195778_);}
	.st50{clip-path:url(#SVGID_00000106137847526472149420000008866420710160764594_);}
	.st51{clip-path:url(#SVGID_00000056396651918883776970000014232852915895361949_);}
	.st52{fill:url(#SVGID_00000031169393748374972670000017517181855902520228_);}
	.st53{fill:url(#SVGID_00000111910894728362079450000008413030811487337132_);}
	.st54{fill:url(#SVGID_00000170961585090659954560000014838664051508374429_);}
	.st55{fill:url(#SVGID_00000031898466314608359240000009126275547795106236_);}
	.st56{fill:url(#SVGID_00000178204491890765473430000004270824429333547151_);}
	.st57{fill:url(#SVGID_00000047019373837441107210000017183573518311342012_);}
	.st58{fill:url(#SVGID_00000111914430052092503950000012578919892395924385_);}
	.st59{clip-path:url(#SVGID_00000027573144090165960420000005708053189441256324_);}
	.st60{clip-path:url(#SVGID_00000073684309960069359090000012379587411981031051_);}
	.st61{clip-path:url(#SVGID_00000099622403606509424360000015768746621878511538_);}
	.st62{fill:url(#SVGID_00000016776364872518851760000012899193011918460835_);}
	.st63{clip-path:url(#SVGID_00000057125605652912125520000008580490466350591913_);}
	.st64{clip-path:url(#SVGID_00000055669055203720721050000015761573040839459753_);}
	.st65{clip-path:url(#SVGID_00000000212812090321724040000002210589735901886900_);}
	.st66{fill:url(#SVGID_00000072987451075764357320000008808087021838189459_);}
	.st67{fill:url(#SVGID_00000062175117222762560080000002044782348051694520_);}
	.st68{fill:url(#SVGID_00000147215204207013301360000004899518660761728178_);}
	.st69{fill:url(#SVGID_00000122679637284360553720000017552247050403572406_);}
	.st70{fill:url(#SVGID_00000134959993728768098260000000751637670134795444_);}
	.st71{fill:url(#SVGID_00000112615285199496248700000000668528565599240577_);}
	.st72{fill:url(#SVGID_00000008848555770265772770000003444177084476712606_);}
	.st73{fill:url(#SVGID_00000174571709118530180970000007633045835847639427_);}
	.st74{fill:url(#SVGID_00000005955182823292483640000009676214043877297575_);}
	.st75{fill:url(#SVGID_00000164498758869455859310000002884273623294328716_);}
	.st76{fill:url(#SVGID_00000032627844652393023920000018008122843256746414_);}
	.st77{fill:url(#SVGID_00000008133555588377434330000011062622053033861049_);}
	.st78{opacity:0.25;fill:url(#SVGID_00000168096640708057051990000002193657787524092833_);}
	.st79{fill:url(#SVGID_00000019646778111811950070000003859705526864433343_);}
	.st80{fill:url(#SVGID_00000028317146578973867750000006138160863751081870_);}
	.st81{fill:url(#SVGID_00000183942548324523481630000015420462877938816157_);}
	.st82{fill:url(#SVGID_00000022529528787001500010000007933116585102590608_);}
	.st83{fill:url(#SVGID_00000042733460685983157870000017894318054921943684_);}
	.st84{fill:url(#SVGID_00000058588503248025092220000003469153457054523056_);}
	.st85{fill:url(#SVGID_00000042733925471722411610000005402746997351672467_);}
	.st86{fill:url(#SVGID_00000037650578876754244920000016256420104077148570_);}
	.st87{fill:url(#SVGID_00000104692413142386185260000015052240032720527798_);}
	.st88{fill:url(#SVGID_00000026849595821433608290000010840273588464511141_);}
	.st89{fill:url(#SVGID_00000119086489473399175400000003913490416147381928_);}
	.st90{fill:url(#SVGID_00000067945525806255768310000000881100610879559056_);}
	.st91{fill:url(#SVGID_00000143597822144469962280000015201844217267712681_);}
	.st92{fill:url(#SVGID_00000052102474992606551850000001562497801981116833_);}
	.st93{fill:url(#SVGID_00000101791228407827329500000017648588328384159876_);}
	.st94{opacity:0.25;fill:url(#SVGID_00000136401888807690402760000009421113452098612391_);}
	.st95{fill:url(#SVGID_00000143584643316874561110000005723968175885360305_);}
	.st96{fill:url(#SVGID_00000079461563588982015390000005136809813134083746_);}
	.st97{fill:url(#SVGID_00000133528022378016669880000010855789909201528725_);}
	.st98{fill:url(#SVGID_00000064346345242041152190000005903009623039807408_);}
	.st99{fill:url(#SVGID_00000005947596404634731060000003835729480747474862_);}
	.st100{fill:url(#SVGID_00000144306345163955566210000007490638333660253335_);}
	.st101{fill:url(#SVGID_00000023255258794960005920000002649439003900614825_);}
	.st102{fill:url(#SVGID_00000022549574612434367120000010936202327382532506_);}
	.st103{fill:url(#SVGID_00000152979855125019852410000010561937855707968932_);}
	.st104{fill:url(#SVGID_00000168832578381627200110000017384854711311027884_);}
	.st105{fill:url(#SVGID_00000140004521459243678740000007267659376605301675_);}
	.st106{fill:url(#SVGID_00000144297059809319182160000009888891000676443828_);}
	.st107{fill:url(#SVGID_00000088093842569626743610000008799188429920975528_);}
	.st108{fill:url(#SVGID_00000121237120268440201530000017324561410170953390_);}
	.st109{fill:url(#SVGID_00000124858460394788115520000014371817268011701691_);}
	.st110{fill:url(#SVGID_00000037680625701091028270000012650482657942772414_);}
	.st111{fill:url(#SVGID_00000069363011492271268960000002987252202472754570_);}
	.st112{opacity:0.25;fill:url(#SVGID_00000165955115271856181930000010502068087355592100_);}
	.st113{fill:url(#SVGID_00000116237044346097385780000008649501119790519702_);}
	.st114{fill:url(#SVGID_00000001622516348275888120000017686322720600576897_);}
	.st115{fill:url(#SVGID_00000067229449199809966720000003329969617913474495_);}
	.st116{fill:url(#SVGID_00000062154666842569021720000010219770241095409541_);}
	.st117{fill:url(#SVGID_00000032606079024642600370000012696852012417315773_);}
	.st118{fill:url(#SVGID_00000101811412992637916190000011920969134811852964_);}
	.st119{fill:url(#SVGID_00000085219481825089435200000014532228508869129872_);}
	.st120{fill:url(#SVGID_00000005963831376347430090000014126602043920760739_);}
	.st121{fill:url(#SVGID_00000016055950830417701630000005453884562535512757_);}
	.st122{fill:url(#SVGID_00000109027613356491393360000011078300832674129311_);}
	.st123{fill:url(#SVGID_00000176021927463178558020000003976154910035143345_);}
	.st124{fill:url(#SVGID_00000112616750529503433970000004840853491026044290_);}
	.st125{fill:url(#SVGID_00000024698969084013219510000008364353330322131371_);}
	.st126{fill:url(#SVGID_00000051354928610716128380000002166061552351118730_);}
	.st127{fill:url(#SVGID_00000131328424469277830860000012027090975822021279_);}
	.st128{opacity:0.25;fill:url(#SVGID_00000098914332728137137830000002131801956762268342_);}
	.st129{fill:url(#SVGID_00000173873510700945238220000013682999500706513813_);}
	.st130{fill:url(#SVGID_00000178180503405896147050000004864401195658875023_);}
	.st131{fill:url(#SVGID_00000096037967649446784380000009433282406785192605_);}
	.st132{fill:url(#SVGID_00000168095016493604405810000009866911536728880297_);}
	.st133{fill:url(#SVGID_00000098934190065186386220000000522172535821814703_);}
	.st134{fill:url(#SVGID_00000153701447418349916830000005778820125675731081_);}
	.st135{fill:url(#SVGID_00000172434524881951833760000008216542401753040050_);}
	.st136{fill:url(#SVGID_00000067195446285994370160000007827735219399346607_);}
	.st137{fill:url(#SVGID_00000163056267523033016280000009861932851822036139_);}
</style>
<g>
	<g>
		<path d="M686.9,117h169.3v44.5H735.8v47.3h106.1v44.5H735.8v86.1h-48.9V117z"/>
		<path d="M889.5,117h48.9v222.3h-48.9V117z"/>
		<path d="M986,117h45.1l104.2,136.9V117h48.3v222.3H1142L1034.3,198v141.3H986V117z"/>
		<path d="M1305.2,115.4h45.1l95.3,223.9h-51.1l-20.3-49.9h-94l-20.3,49.9h-49.9L1305.2,115.4z M1356.6,246.3l-29.5-72.1l-29.5,72.1
			H1356.6z"/>
		<path d="M1471.9,117h48.9v177.8h110.8v44.5h-159.7V117z"/>
		<path d="M1747.9,117h103.2c25.4,0,45.4,7,58.1,19.7c10.2,10.2,15.2,22.5,15.2,37.8v0.6c0,25.1-13.3,39.1-29.2,48
			c25.7,9.8,41.6,24.8,41.6,54.6v0.6c0,40.6-33,61-83.2,61h-105.8V117z M1840.6,206.9c21.6,0,35.2-7,35.2-23.5v-0.6
			c0-14.6-11.4-22.9-32.1-22.9h-48.3v47H1840.6z M1853.6,296.4c21.6,0,34.6-7.6,34.6-24.1v-0.6c0-14.9-11.1-24.1-36.2-24.1h-56.5
			v48.9H1853.6z"/>
		<path d="M1965.7,244V117h48.9v125.8c0,36.2,18.1,54.9,48,54.9s48-18.1,48-53.4V117h48.9v125.4c0,67.3-37.8,100.4-97.5,100.4
			C2002.2,342.8,1965.7,309.5,1965.7,244z"/>
		<path d="M2201.3,117H2303c28.3,0,50.2,7.9,64.8,22.5c12.4,12.4,19.1,29.9,19.1,50.8v0.6c0,35.9-19.4,58.4-47.6,68.9l54.3,79.4
			h-57.2l-47.6-71.1h-38.4v71.1h-48.9V117z M2299.8,225c23.8,0,37.5-12.7,37.5-31.4v-0.6c0-21-14.6-31.8-38.4-31.8h-48.6V225H2299.8
			z"/>
		<path d="M2423,117h45.1l104.2,136.9V117h48.3v222.3h-41.6L2471.3,198v141.3H2423V117z"/>
		<path d="M2829.5,115.4h45.1l95.3,223.9h-51.1l-20.3-49.9h-94l-20.3,49.9h-49.9L2829.5,115.4z M2880.9,246.3l-29.5-72.1l-29.5,72.1
			H2880.9z"/>
		<path d="M2996.2,117h48.9v177.8h110.8v44.5h-159.7V117z"/>
		<path d="M3184.8,117h90.8c53,0,85.1,31.4,85.1,76.9v0.6c0,51.4-40,78.1-89.9,78.1h-37.2v66.7h-48.9V117z M3272.5,229.1
			c24.5,0,38.7-14.6,38.7-33.7v-0.6c0-21.9-15.2-33.7-39.7-33.7h-37.8v68H3272.5z"/>
		<path d="M3389,117h48.9v88h90.2v-88h48.9v222.3h-48.9v-89.2h-90.2v89.2H3389V117z"/>
		<path d="M3698.6,115.4h45.1l95.3,223.9h-51.1l-20.3-49.9h-94l-20.3,49.9h-49.9L3698.6,115.4z M3750.1,246.3l-29.5-72.1l-29.5,72.1
			H3750.1z"/>
	</g>
	<g>
		<g>
			<g>
				<path d="M433.7,0H0v58.4l352.8,124.1H554v-62.3C554,53.8,500.1,0,433.7,0z M336.7,193l-152-53.4v218.2L117.1,382v76.2h268.6V330
					h-49V193z M352.8,313.8H554V198.7H352.8V313.8z"/>
			</g>
		</g>
	</g>
</g>
</svg>
