<svg height="458.929" width="566.929" xmlns="http://www.w3.org/2000/svg"><g clip-rule="evenodd" fill="#fff" fill-rule="evenodd"><path d="M564.898 182.695c.103-1.35 0-2.745 0-3.875.015-25.821.018-51.642-.007-77.463-.001-1.341-.074-2.729-.417-4.015-7.45-27.979-20.942-52.36-43.296-71.218-18.353-15.481-39.435-24.117-63.727-24.113-64.021.011-128.042.004-192.064.004-86.168 0-172.335-.001-258.502.01-1.591 0-3.182-.08-4.898 0v58.69c1.204.469 2.251.942 3.338 1.29 7.92 2.53 15.849 5.035 23.776 7.545 79.821 25.273 159.644 50.542 239.464 75.823 37.698 11.939 75.383 23.919 113.091 35.826 2.366.747 4.884 1.441 7.333 1.444 57.348.081 114.696.064 172.045.052 1.128 0 2.515.104 3.864 0zm-222.241-3.722-154.027-48.82v226.685l-65.864 33.224v66.882h269.52V326.959h-49.629V178.973zm17.448 17.717v114.012h204.543V196.69H360.105z"/><path d="m564.898 182.695-178.77-.052L1.986 60.904V2.024c1.717-.08 177.233-.01 263.401-.01 64.021 0 128.043.007 192.064-.003 24.292-.004 45.374 8.632 63.727 24.113 22.354 18.858 35.846 43.239 43.296 71.218.343 1.286.416 2.673.417 4.015.025 25.822.007 81.338.007 81.338zm-222.241-3.722v147.984h49.629v129.985h-269.52V390.06l65.864-33.224V130.151l154.027 48.822z"/></g></svg>