<svg enable-background="new 0 0 3839 458.2" version="1.1" viewBox="0 0 3839 458.2" xml:space="preserve" xmlns="http://www.w3.org/2000/svg">
<path d="m1305.1992 115.40039-95.1992 223.90039h49.9004l20.2988-49.90039h94l20.3008 49.90039h51.0996l-95.2988-223.90039h-45.1016zm1524.3008 0-95.1992 223.90039h49.8984l20.3008-49.90039h94l20.3008 49.90039h51.0996l-95.3008-223.90039h-45.0996zm869.0996 0-95.1992 223.90039h49.9004l20.2988-49.90039h94l20.3008 49.90039h51.0996l-95.3008-223.90039h-45.0996zm-3011.69921 1.59961v222.40039h48.90039v-86.09961h106.09961v-44.5h-106.09961v-47.30078h120.39844v-44.5h-169.29883zm202.59961 0v222.30078h48.90039v-222.30078h-48.90039zm96.5 0v222.30078h48.3008v-141.30078l107.6992 141.30078h41.5996v-222.30078h-48.2988v136.90039l-104.2012-136.90039h-45.0996zm485.9004 0v222.30078h159.6992v-44.5h-110.7988v-177.80078h-48.9004zm275.9004 0v222.30078h105.7988c50.2 0 83.2012-20.40004 83.2012-61v-0.60156c0-29.79997-15.9016-44.79962-41.6016-54.59961 15.9-8.89999 29.2012-22.90003 29.2012-48v-0.59961c0-15.29998-5.0012-27.60079-15.2012-37.80078-12.7-12.69999-32.6996-19.69922-58.0996-19.69922h-103.1992-0.0996zm217.8984 0v127c0 65.49993 36.5009 98.80078 96.3008 98.80078 59.6999 0 97.5-33.10046 97.5-100.40039v-125.40039h-48.9004v127.30078c0 35.29997-18.1 53.39844-48 53.39844s-48-18.69847-48-54.89844v-125.80078h-48.9004zm235.8008 0v222.19922h48.9004v-71.09961h38.4004l47.5996 71.09961h57.1992l-54.2988-79.39844c28.2-10.49999 47.5996-33.00043 47.5996-68.90039v-0.59961c0-20.89998-6.6996-38.40079-19.0996-50.80078-14.6-14.59999-36.5008-22.5-64.8008-22.5h-101.5zm221.5 0v222.30078h48.3008v-141.30078l107.6992 141.30078h41.5996v-222.30078h-48.2988v136.90039l-104.2012-136.90039h-45.0996zm573.1992 0v222.30078h159.7012v-44.5h-110.8008v-177.80078h-48.9004zm188.5 0v222.30078h48.9004v-66.70117h37.2012c49.8999 0 89.8984-26.69966 89.8984-78.09961v-0.59961c0-45.49995-32.0996-76.90039-85.0996-76.90039h-90.7988-0.1016zm204.3008 0v222.30078h48.9004v-89.20117h90.1992v89.20117h48.9004v-222.30078h-48.9004v88h-90.1992v-88h-48.9004zm-1593.5996 42.90039h48.2988c20.7 0 32.1016 8.30041 32.1016 22.90039v0.59961c0 16.49998-13.6012 23.5-35.2012 23.5h-45.1992v-47zm1438.2988 1.19922h37.8008c24.5 0 39.6992 11.80119 39.6992 33.70117v0.59961c0 19.09998-14.1992 33.69922-38.6992 33.69922h-38.8008v-68zm-983.3984 0.09961h48.5996c23.8 0 38.4004 10.8008 38.4004 31.80078v0.59961c0 18.69998-13.7 31.40039-37.5 31.40039h-49.5v-63.80078zm-923.2012 13 29.5 72.10156h-59l29.5-72.10156zm1524.3008 0 29.5 72.10156h-59l29.5-72.10156zm869.1992 0 29.5 72.10156h-59l29.5-72.10156zm-1925.0996 73.40039h56.5c25.1 0 36.1992 9.19962 36.1992 24.09961v0.60156c0 16.49998-12.9996 24.09961-34.5996 24.09961v0.09961h-58.0996v-48.90039z"/><path fill="#F58746" d="m433.7 0h-433.7v58.4l352.8 124.1h201.2v-62.3c0-66.4-53.9-120.2-120.3-120.2zm-97 193-152-53.4v218.2l-67.6 24.2v76.2h268.6v-128.2h-49zm16.1 120.8h201.2v-115.1h-201.2z"/>
</svg>
