<?xml version="1.0" encoding="utf-8"?>
<!-- Generator: Adobe Illustrator 25.4.1, SVG Export Plug-In . SVG Version: 6.00 Build 0)  -->
<svg version="1.1" id="Layer_1" xmlns="http://www.w3.org/2000/svg" xmlns:xlink="http://www.w3.org/1999/xlink" x="0px" y="0px"
	 viewBox="0 0 3839 458.2" style="enable-background:new 0 0 3839 458.2;" xml:space="preserve">
<style type="text/css">
	.st0{fill:#FFFFFF;}
	.st1{fill:#7B9A99;}
	.st2{fill:url(#SVGID_1_);}
	.st3{clip-path:url(#SVGID_00000076594865850787808990000005535464548744715428_);}
	.st4{fill:#606161;}
	.st5{clip-path:url(#SVGID_00000081646724917342750740000013670502752530810537_);}
	.st6{clip-path:url(#SVGID_00000075871935249312002450000018429113746082899378_);}
	.st7{fill:url(#SVGID_00000164510170168850686470000003894036667598737038_);}
	.st8{fill:url(#SVGID_00000057106736898089022100000002613949170462072454_);}
	.st9{fill:url(#SVGID_00000106843223778937874510000001402009919998449544_);}
	.st10{fill:url(#SVGID_00000131366683022716397080000003886868917641365401_);}
	.st11{fill:#F58746;}
	.st12{fill:url(#SVGID_00000132810886364191155320000005889932847149036672_);}
	.st13{fill:url(#SVGID_00000146492967909803215390000006388846193088651957_);}
	.st14{fill:url(#SVGID_00000013184960558106114990000013133624649041717913_);}
	.st15{fill:url(#SVGID_00000042720795206184029330000015083652975350070920_);}
	.st16{fill:url(#SVGID_00000083803380655410205750000017353869150269482670_);}
	.st17{fill:url(#SVGID_00000095324967925751035700000006405201162320352654_);}
	.st18{fill:url(#SVGID_00000020357468050910364660000000539705095915854744_);}
	.st19{fill:url(#SVGID_00000031183184149538684850000017461696871423308166_);}
	.st20{fill:url(#SVGID_00000120526487892653366540000006344979087954700477_);}
	.st21{fill:url(#SVGID_00000140709453625249396020000011943093158810295964_);}
	.st22{fill:url(#SVGID_00000121257886475865612010000014474906470323545488_);}
	.st23{fill:url(#SVGID_00000159440477322108716790000011932275920445377929_);}
	.st24{opacity:0.25;fill:url(#SVGID_00000057835678779725848800000016431498569525578421_);}
	.st25{fill:url(#SVGID_00000072252452627209839980000000437930963781755822_);}
	.st26{fill:url(#SVGID_00000065764594868512245280000017944520267670160564_);}
	.st27{fill:url(#SVGID_00000101078814748357815530000004198189838876949692_);}
	.st28{fill:url(#SVGID_00000052076238414788493900000001328485743241254528_);}
	.st29{fill:url(#SVGID_00000079447631262588277890000016634410510712822403_);}
	.st30{fill:url(#SVGID_00000076564501360370385500000009111855205486671282_);}
	.st31{fill:url(#SVGID_00000078039022882386830010000002168164638095574919_);}
	.st32{fill:url(#SVGID_00000157286911061060085970000011243456001053374609_);}
	.st33{fill:url(#SVGID_00000101070749779303677860000000555573684318491315_);}
	.st34{fill:url(#SVGID_00000043426364959018442950000009402033988621417603_);}
	.st35{fill:url(#SVGID_00000054226494912592426750000012127881219448690847_);}
	.st36{fill:url(#SVGID_00000021086896718021450010000010980516970861025955_);}
	.st37{fill:url(#SVGID_00000132059472973203004720000000155445712507435961_);}
	.st38{fill:url(#SVGID_00000155115281196554344090000004166551239185640067_);}
	.st39{fill:url(#SVGID_00000059290895368259029470000007730126468103405752_);}
	.st40{opacity:0.25;fill:url(#SVGID_00000123409130989414221730000004338431697290433446_);}
	.st41{fill:url(#SVGID_00000157999577733515170390000013254773177421196978_);}
	.st42{fill:url(#SVGID_00000023999380827903628340000002621455835312337587_);}
	.st43{fill:url(#SVGID_00000008850416585934443810000005350984537995868803_);}
	.st44{fill:url(#SVGID_00000119834773267528844770000004993691690600224691_);}
	.st45{fill:url(#SVGID_00000054978840927616597240000015310439527467621513_);}
	.st46{fill:url(#SVGID_00000127041535445873260110000003312366268427094405_);}
	.st47{fill:url(#SVGID_00000119106979913143283320000003654431542610694279_);}
	.st48{fill:url(#SVGID_00000147202293603728835750000016439603478325625488_);}
	.st49{clip-path:url(#SVGID_00000147190906715425582730000010456318139952331415_);}
	.st50{clip-path:url(#SVGID_00000111158164973696431070000013258705585441151389_);}
	.st51{clip-path:url(#SVGID_00000134250170425570762050000018102314892149914299_);}
	.st52{fill:url(#SVGID_00000176034368386170957880000017926611760996203697_);}
	.st53{fill:url(#SVGID_00000134228143793363929690000000499132330236901015_);}
	.st54{fill:url(#SVGID_00000008841899180297991490000008443940068143315100_);}
	.st55{fill:url(#SVGID_00000150075815202380926780000013809641729759344778_);}
	.st56{fill:url(#SVGID_00000093886074409955438320000013313875628475583647_);}
	.st57{fill:url(#SVGID_00000161607909490421306890000010716315915621120141_);}
	.st58{fill:url(#SVGID_00000144336085089193350970000016491658185688552577_);}
	.st59{clip-path:url(#SVGID_00000168828085600335278760000003491824794181764276_);}
	.st60{clip-path:url(#SVGID_00000139281961616097270460000003674884875148048271_);}
	.st61{clip-path:url(#SVGID_00000159433951270986654750000007926348266320506557_);}
	.st62{fill:url(#SVGID_00000121270278133464372480000008329159194995256449_);}
	.st63{clip-path:url(#SVGID_00000104668685749487936730000001495857322754957744_);}
	.st64{clip-path:url(#SVGID_00000100345564818905938910000013685155926922959265_);}
	.st65{clip-path:url(#SVGID_00000160174357623788143160000001939631405477729417_);}
	.st66{fill:url(#SVGID_00000130636973410055833460000006522970351922325911_);}
	.st67{fill:url(#SVGID_00000021083053518381230920000015237824875464694411_);}
	.st68{fill:url(#SVGID_00000086678738707386835000000003161807126038864821_);}
	.st69{fill:url(#SVGID_00000112632255442160729860000002859580416847554973_);}
	.st70{fill:url(#SVGID_00000013906186565388707000000015742582182489233315_);}
	.st71{fill:url(#SVGID_00000049216674529831474600000002503132625827930507_);}
	.st72{fill:url(#SVGID_00000015328928102926368460000018076167991131361440_);}
	.st73{fill:url(#SVGID_00000152985141265595636820000000061430832862435259_);}
	.st74{fill:url(#SVGID_00000010297807346196700520000016856299253598794429_);}
	.st75{fill:url(#SVGID_00000071527573499332488010000002684285226527098762_);}
	.st76{fill:url(#SVGID_00000142880553133894237600000017894958946734587309_);}
	.st77{fill:url(#SVGID_00000103951994062339791670000015936079495390687398_);}
	.st78{opacity:0.25;fill:url(#SVGID_00000080919822546796766920000003181689524281236637_);}
	.st79{fill:url(#SVGID_00000087370308785767706230000009351229044065418370_);}
	.st80{fill:url(#SVGID_00000121997548366952184670000013504620582779902366_);}
	.st81{fill:url(#SVGID_00000098204109552666070900000011094354764083526335_);}
	.st82{fill:url(#SVGID_00000022546535856725014150000017173045386409806771_);}
	.st83{fill:url(#SVGID_00000019638542061863328840000008787927099058792334_);}
	.st84{fill:url(#SVGID_00000148659155667734344780000006819926463663729827_);}
	.st85{fill:url(#SVGID_00000118390179984374103920000014286055869863075743_);}
	.st86{fill:url(#SVGID_00000058574962273397623250000012685552178174269606_);}
	.st87{fill:url(#SVGID_00000032616697883035933140000016913335159804138144_);}
	.st88{fill:url(#SVGID_00000176741865902967893200000018213551376676311182_);}
	.st89{fill:url(#SVGID_00000125568522579561320060000012245688795764511138_);}
	.st90{fill:url(#SVGID_00000001646742585013060140000000057288001831212450_);}
	.st91{fill:url(#SVGID_00000181056658348321566460000003167304145480902543_);}
	.st92{fill:url(#SVGID_00000136369708826875265410000010235884456054558135_);}
	.st93{fill:url(#SVGID_00000083085889235653005970000011018401684191716011_);}
	.st94{opacity:0.25;fill:url(#SVGID_00000005970121597334826000000004696184732757509505_);}
	.st95{fill:url(#SVGID_00000012437187835372421440000015832506737834652551_);}
	.st96{fill:url(#SVGID_00000058576195880458594740000001270817496759088062_);}
	.st97{fill:url(#SVGID_00000176754272969896571840000004871084067496019615_);}
	.st98{fill:url(#SVGID_00000166645102506373655070000004276977680572086168_);}
	.st99{fill:url(#SVGID_00000132780707338470555120000011170350945507392159_);}
	.st100{fill:url(#SVGID_00000109021279322517818200000013328640423464641461_);}
	.st101{fill:url(#SVGID_00000048468424147221331470000017814719541383761542_);}
	.st102{fill:url(#SVGID_00000031179490732020395370000000231913595358337159_);}
	.st103{fill:url(#SVGID_00000170969747735306314510000013732922123767027646_);}
	.st104{fill:url(#SVGID_00000173138376747245836880000000096727930851783302_);}
	.st105{fill:url(#SVGID_00000181081183254900603580000008671348294263874710_);}
	.st106{fill:url(#SVGID_00000176038589523600512710000014406959306498007181_);}
	.st107{fill:url(#SVGID_00000155131706344861697220000012695603419203897278_);}
	.st108{fill:url(#SVGID_00000030464083105097950670000003797931194659980199_);}
	.st109{fill:url(#SVGID_00000070802456647546194780000015003397599358288049_);}
	.st110{fill:url(#SVGID_00000149378312584947666340000003768053186461493682_);}
	.st111{fill:url(#SVGID_00000153678097086144213650000008959333436770667711_);}
	.st112{opacity:0.25;fill:url(#SVGID_00000118398407944725890450000013076860963504115330_);}
	.st113{fill:url(#SVGID_00000043437678374803116700000011884238931029532860_);}
	.st114{fill:url(#SVGID_00000048470877894530342170000014060100262085381030_);}
	.st115{fill:url(#SVGID_00000134213653839092914180000001254990934124276920_);}
	.st116{fill:url(#SVGID_00000007392752745554318530000008211757747128871316_);}
	.st117{fill:url(#SVGID_00000085943932785888744880000012564187424913440163_);}
	.st118{fill:url(#SVGID_00000017484957081428745060000005289223548128635274_);}
	.st119{fill:url(#SVGID_00000098933433755811006220000016183985481432103558_);}
	.st120{fill:url(#SVGID_00000047767151401931510740000001933495927587492994_);}
	.st121{fill:url(#SVGID_00000061430450053962191150000001910397782464078523_);}
	.st122{fill:url(#SVGID_00000057142264059402921460000012392046412086394017_);}
	.st123{fill:url(#SVGID_00000036948680297372572780000014929307852675411377_);}
	.st124{fill:url(#SVGID_00000005971191034519562390000008462662442074710462_);}
	.st125{fill:url(#SVGID_00000081627132240694595380000012710466924720056973_);}
	.st126{fill:url(#SVGID_00000109711744347643571180000018258463044224110996_);}
	.st127{fill:url(#SVGID_00000166658978581093769710000012560974591007524492_);}
	.st128{opacity:0.25;fill:url(#SVGID_00000041262777290178148240000014196250420850165407_);}
	.st129{fill:url(#SVGID_00000061469044931233187200000003643078922836160423_);}
	.st130{fill:url(#SVGID_00000083770360336739966140000004455219493849767063_);}
	.st131{fill:url(#SVGID_00000136406421487852161510000017752538263951040181_);}
	.st132{fill:url(#SVGID_00000178892422377020477940000003617950012961603752_);}
	.st133{fill:url(#SVGID_00000023246792684873479850000006297281493716101027_);}
	.st134{fill:url(#SVGID_00000139999268538683690410000000230471657430850200_);}
	.st135{fill:url(#SVGID_00000166647915719816737370000012350411273499477182_);}
	.st136{fill:url(#SVGID_00000134941522461263806840000017525760008642552728_);}
	.st137{fill:url(#SVGID_00000127765186206051916880000012565981674949990290_);}
</style>
<g>
	<g>
		<path d="M686.9,117h169.3v44.5H735.8v47.3h106.1v44.5H735.8v86.1h-48.9V117z"/>
		<path d="M889.5,117h48.9v222.3h-48.9V117z"/>
		<path d="M986,117h45.1l104.2,136.9V117h48.3v222.3H1142L1034.3,198v141.3H986V117z"/>
		<path d="M1305.2,115.4h45.1l95.3,223.9h-51.1l-20.3-49.9h-94l-20.3,49.9h-49.9L1305.2,115.4z M1356.6,246.3l-29.5-72.1l-29.5,72.1
			H1356.6z"/>
		<path d="M1471.9,117h48.9v177.8h110.8v44.5h-159.7V117z"/>
		<path d="M1747.9,117h103.2c25.4,0,45.4,7,58.1,19.7c10.2,10.2,15.2,22.5,15.2,37.8v0.6c0,25.1-13.3,39.1-29.2,48
			c25.7,9.8,41.6,24.8,41.6,54.6v0.6c0,40.6-33,61-83.2,61h-105.8V117z M1840.6,206.9c21.6,0,35.2-7,35.2-23.5v-0.6
			c0-14.6-11.4-22.9-32.1-22.9h-48.3v47H1840.6z M1853.6,296.4c21.6,0,34.6-7.6,34.6-24.1v-0.6c0-14.9-11.1-24.1-36.2-24.1h-56.5
			v48.9H1853.6z"/>
		<path d="M1965.7,244V117h48.9v125.8c0,36.2,18.1,54.9,48,54.9s48-18.1,48-53.4V117h48.9v125.4c0,67.3-37.8,100.4-97.5,100.4
			C2002.2,342.8,1965.7,309.5,1965.7,244z"/>
		<path d="M2201.3,117H2303c28.3,0,50.2,7.9,64.8,22.5c12.4,12.4,19.1,29.9,19.1,50.8v0.6c0,35.9-19.4,58.4-47.6,68.9l54.3,79.4
			h-57.2l-47.6-71.1h-38.4v71.1h-48.9V117z M2299.8,225c23.8,0,37.5-12.7,37.5-31.4v-0.6c0-21-14.6-31.8-38.4-31.8h-48.6V225H2299.8
			z"/>
		<path d="M2423,117h45.1l104.2,136.9V117h48.3v222.3h-41.6L2471.3,198v141.3H2423V117z"/>
		<path d="M2829.5,115.4h45.1l95.3,223.9h-51.1l-20.3-49.9h-94l-20.3,49.9h-49.9L2829.5,115.4z M2880.9,246.3l-29.5-72.1l-29.5,72.1
			H2880.9z"/>
		<path d="M2996.2,117h48.9v177.8h110.8v44.5h-159.7V117z"/>
		<path d="M3184.8,117h90.8c53,0,85.1,31.4,85.1,76.9v0.6c0,51.4-40,78.1-89.9,78.1h-37.2v66.7h-48.9V117z M3272.5,229.1
			c24.5,0,38.7-14.6,38.7-33.7v-0.6c0-21.9-15.2-33.7-39.7-33.7h-37.8v68H3272.5z"/>
		<path d="M3389,117h48.9v88h90.2v-88h48.9v222.3h-48.9v-89.2h-90.2v89.2H3389V117z"/>
		<path d="M3698.6,115.4h45.1l95.3,223.9h-51.1l-20.3-49.9h-94l-20.3,49.9h-49.9L3698.6,115.4z M3750.1,246.3l-29.5-72.1l-29.5,72.1
			H3750.1z"/>
	</g>
	<g>
		<g>
			<g>
				<path class="st11" d="M433.7,0H0v58.4l352.8,124.1H554v-62.3C554,53.8,500.1,0,433.7,0z M336.7,193l-152-53.4v218.2L117.1,382
					v76.2h268.6V330h-49V193z M352.8,313.8H554V198.7H352.8V313.8z"/>
			</g>
		</g>
	</g>
</g>
</svg>
