<svg height="170.079" viewBox="0 -13.883 566.929 170.079" width="566.929" xmlns="http://www.w3.org/2000/svg"><g fill="#fff"><path d="M240.575 77.262c-14.877 14.885-14.877 39.008 0 53.894 14.885 14.877 39.008 14.877 53.893 0 12.871-12.871 14.605-32.655 5.219-47.392l-20.5 20.5a11.625 11.625 0 0 1-3.414 8.194c-4.557 4.55-11.945 4.55-16.502 0-4.55-4.557-4.55-11.942 0-16.501 4.557-4.55 11.945-4.55 16.502 0l.35.372 18.705-18.703-.356-.364c-14.889-14.877-39.012-14.877-53.897 0zM92.1 142.16l92.101-104.839h-38.433l-58.87 59.936a4.55 4.55 0 0 1-6.509 0c-1.796-1.826-1.796-4.798 0-6.634l52.361-53.301H0zm411.034-38.123-31.893 37.501h26.061l24.832-25.282a3.642 3.642 0 0 1 5.211 0c1.438 1.462 1.438 3.834 0 5.306l-19.621 19.979h59.205l-31.893-37.501 31.893-37.499h-26.061l-24.832 25.282a3.63 3.63 0 0 1-5.211 0c-1.439-1.462-1.439-3.833 0-5.304l19.621-19.979h-59.205zM356.339 66.539v75h23.938V92.793h18.15l22.326-26.254h-26.061l-24.839 25.282a3.62 3.62 0 0 1-5.202 0c-1.439-1.462-1.439-3.833 0-5.304l19.62-19.979z"/><path d="M338.494 66.857h14.465l23.892-24.691h-38.354V0l-58.35 66.857h25.518l17.473-16.23a3.634 3.634 0 0 1 5.203 0c1.438 1.472 1.438 3.842 0 5.306L314.56 69.969v71.57h23.938V66.857zM158.919 77.262c-14.877 14.885-14.877 39.008 0 53.894 14.885 14.877 39.008 14.877 53.893 0 12.871-12.871 14.605-32.655 5.218-47.392l-20.5 20.5a11.625 11.625 0 0 1-3.414 8.194c-3.741 3.733-9.379 4.401-13.796 2.017l34.747-34.747c-.599-.715-4.425-4.512-5.576-5.42-14.954-11.852-36.753-10.865-50.572 2.954zm16.175 31.442c-1.765-4.229-.925-9.301 2.52-12.745s8.516-4.286 12.746-2.521zm243.57-31.442c-14.877 14.885-14.877 39.008 0 53.894 14.887 14.877 39.01 14.877 53.895 0 12.871-12.871 14.605-32.655 5.221-47.392l-20.5 20.5a11.63 11.63 0 0 1-3.414 8.194c-3.74 3.733-9.379 4.401-13.795 2.017l34.746-34.747c-.602-.715-4.428-4.512-5.576-5.42-14.958-11.852-36.757-10.865-50.577 2.954zm16.175 31.442c-1.766-4.229-.926-9.301 2.52-12.745s8.518-4.286 12.746-2.521z"/></g></svg>