<svg enable-background="new 0 0 3839 658.2" version="1.1" viewBox="0 0 3839 658.2" xml:space="preserve" xmlns="http://www.w3.org/2000/svg">
<path fill="#204492" d="m3699 328.3 124.3-177.6c18.5-26.5 20.8-61.1 5.9-89.7-14.9-28.7-44.6-46.7-76.9-46.7h-1042c-38.5 0-71.1 25.1-82.4 59.8-41.3-37.2-95.9-59.8-155.7-59.8h-775.6c-29.6 0-56.1 15-71.8 38.3-52.5-34.1-114.1-52.6-178.9-52.6-87.8 0-167.6 34.6-226.7 90.8l-1.4-7.1c-8.2-40.4-43.7-69.4-85-69.4h-1046.1c-32.3 0-62 18-76.9 46.7s-12.7 63.3 5.9 89.7l313.3 447.4c16.2 23.2 42.7 37 71 37s54.8-13.8 71-37l188.9-269.8v227.2c0 23 9.1 45 25.4 61.3s38.3 25.4 61.3 25.4h396.3c40.5 0 75.4-28 84.4-67.3 58.2 51.8 134.7 83.3 218.6 83.3 102.7 0 197.3-46.4 260.2-127.5 4.3-5.2 7.8-10.9 10.7-16.8v41.6c0 23 9.1 45 25.4 61.3s38.3 25.4 61.3 25.4h1948.8c32.3 0 62-18 76.9-46.7s12.7-63.3-5.9-89.7z"/><path d="m1445.9004 70.646484c-142.5714 0-258.5527 115.873736-258.5527 258.453126 0 142.5714 115.8816 258.45312 258.4531 258.45312 83.9997 0 158.7636-40.10167 205.9804-102.24023a16.054206 16.054206 0 0 0-1.4296-21.0625l-95.1016-95.10156-9.7988-9.79883c-13.5331-13.53311-37.0807-11.8436-47.9824 4.40625a16.054206 16.054206 0 0 0-0.0098 0.00976c-11.1171 16.59618-30.0117 27.58204-51.6621 27.58204-35.0509 0-63.1947-28.62218-62.1543-64.07618 0.9472-31.89729 27.9489-59.22614 59.9062-60.32812a16.054206 16.054206 0 0 0 0.0137 0c22.681-0.80145 42.4688 10.33961 53.9863 27.57617a16.054206 16.054206 0 0 0 0.0176 0.02344c10.9367 16.30189 34.5038 17.78523 47.9805 4.30859l104.9004-104.90039a16.054206 16.054206 0 0 0 1.4297-21.0625c-47.2205-62.14803-122.0704-102.242186-205.9766-102.242186zm732.9004 14.201172a16.054206 16.054206 0 0 0-16.0528 16.052734v454.59961a16.054206 16.054206 0 0 0 16.0528 16.05273h177.2988a16.054206 16.054206 0 0 0 16.0527-16.05273v-311.34766h35.2481c7.9612 0 13.9473 5.98604 13.9473 13.94727s-5.9861 13.94727-13.9473 13.94727a16.054206 16.054206 0 0 0-16.0527 16.05273v189.40039a16.054206 16.054206 0 0 0 2.9062 9.21289l54.6016 77.90039a16.054206 16.054206 0 0 0 13.1445 6.83984h206.4004a16.054206 16.054206 0 0 0 13.1484-25.25976l-116.2226-165.98438c41.9567-29.34964 69.4258-78.04069 69.4258-133.00976 0-89.47511-72.8765-162.351564-162.3516-162.351564h-177-72.7012-43.8984zm-2092.101581 0.09961a16.054206 16.054206 0 0 0-13.148438 25.259764l313.300779 447.40039a16.054206 16.054206 0 0 0 26.29688 0l313.30078-447.40039a16.054206 16.054206 0 0 0-13.14844-25.259764h-216.5a16.054206 16.054206 0 0 0-13.14844 6.84375l-83.65234 119.427734-83.65234-119.427734a16.054206 16.054206 0 0 0-13.14844-6.84375h-216.500001zm659.900391 0a16.054206 16.054206 0 0 0-16.05273 16.052734v454.5a16.054206 16.054206 0 0 0 16.05273 16.05273h167.59961 9.70117 219.00001a16.054206 16.054206 0 0 0 15.7305-12.85937l25.8007-127.09961a16.054206 16.054206 0 0 0-15.7324-19.24609h-228.74608v-16.89454h87.14648a16.054206 16.054206 0 0 0 16.0527-16.05273v-102.30078a16.054206 16.054206 0 0 0-16.0527-16.05273h-87.14648v-16.89454h218.64648a16.054206 16.054206 0 0 0 15.7324-19.24609l-25.8008-127.099609a16.054206 16.054206 0 0 0-15.7304-12.859375h-208.90041-19.70117-157.59961zm949.99999 0a16.054206 16.054206 0 0 0-15.7324 12.865234l-31.4004 155a16.054206 16.054206 0 0 0 15.7324 19.24023h122.2481v283.44727a16.054206 16.054206 0 0 0 16.0527 16.05273h177.3008a16.054206 16.054206 0 0 0 16.0527-16.05273v-283.44727h122.2461a16.054206 16.054206 0 0 0 15.7344-19.24023l-31.4004-155a16.054206 16.054206 0 0 0-15.7344-12.865234h-106.8984-55.5-66.3008-55.5-106.9004zm1013.7012 0a16.054206 16.054206 0 0 0-16.0528 16.052734v454.5a16.054206 16.054206 0 0 0 16.0528 16.05273h167.6992 9.5996 219a16.054206 16.054206 0 0 0 15.7324-12.85937l25.7989-127.09961a16.054206 16.054206 0 0 0-15.7305-19.24609h-228.7481v-16.89454h87.1485a16.054206 16.054206 0 0 0 16.0527-16.05273v-102.30078a16.054206 16.054206 0 0 0-16.0527-16.05273h-87.1485v-16.89454h218.7481a16.054206 16.054206 0 0 0 15.7305-19.24609l-25.7989-127.099609a16.054206 16.054206 0 0 0-15.7324-12.859375h-209-19.6992-157.5996zm447.5 0a16.054206 16.054206 0 0 0-13.1485 25.261714l152.7481 218.08985-152.7461 217.99023a16.054206 16.054206 0 0 0 13.1465 25.26367h216.5a16.054206 16.054206 0 0 0 13.1445-6.83984l67.6465-96.53125 67.5566 96.52344a16.054206 16.054206 0 0 0 13.1524 6.84765h216.5a16.054206 16.054206 0 0 0 13.1484-25.25976l-152.6543-217.99414 152.6563-218.09375a16.054206 16.054206 0 0 0-13.1504-25.257814h-216.5a16.054206 16.054206 0 0 0-13.1524 6.847656l-67.5566 96.523438-67.6465-96.531251a16.054206 16.054206 0 0 0-13.1445-6.839843h-216.5zm-1711.9004 17.804684h0.0019 2e-3c68.6744 0.00117 130.0805 30.50972 171.6133 78.73047l-94.1055 94.10352c-17.5951-25.50684-47.5478-41.90452-80.9648-40.72852-49.2394 1.7-89.4339 42.36725-90.8887 91.4668a16.054206 16.054206 0 0 0 0 0.00586c-1.5596 53.14583 41.4971 97.12305 94.2461 97.12304 32.0885 0 60.5788-16.18958 77.5566-40.79492l9.1914 9.19336 84.8672 84.86719c-41.5262 48.22751-102.8405 78.72852-171.6152 78.72852-125.2281 0-226.3477-101.1196-226.3477-226.34766 0-125.21877 101.2171-226.34554 226.4434-226.34766zm748.9531 14.20117h27.8457 72.7012 177c72.1245 0 130.2461 58.12153 130.2461 130.2461 0 49.4502-27.4409 92.24323-67.8418 114.3125a16.054206 16.054206 0 0 0-5.4551 23.29492l108.2129 154.54102h-167.2109l-46.8985-66.91407v-171.36523c17.4081-6.59815 30-23.38408 30-42.96875 0-25.2387-20.814-46.05273-46.0527-46.05273h-51.3008-0.1992a16.052601 16.052601 0 0 0-16.0527 16.05273 16.052601 16.052601 0 0 0 0.1992 0.74414v310.60352h-145.1934v-422.49415zm-2077.31444 0.09961h177.30664l92.00586 131.35743a16.054206 16.054206 0 0 0 26.29688 0l92.00586-131.35743h177.30664l-282.46094 403.36329-282.46094-403.36329zm645.11328 0h141.54688 19.70117 195.77731l19.2852 94.99415h-215.06251a16.054206 16.054206 0 0 0-16.05273 16.05273v49a16.054206 16.054206 0 0 0 16.05273 16.05273h87.14651v70.19532h-87.14651a16.054206 16.054206 0 0 0-16.05273 16.05273v49a16.054206 16.054206 0 0 0 16.05273 16.05273h225.16211l-19.2832 94.99415h-205.87891-9.70117-151.54688v-422.39454zm947.07426 0h93.7734 55.5 66.3008 55.5 93.7715l24.8965 122.89454h-118.668a16.054206 16.054206 0 0 0-16.0528 16.05273v283.44727h-145.1953v-283.44727a16.054206 16.054206 0 0 0-16.0527-16.05273h-118.668l24.8946-122.89454zm1016.6269 0h141.5469 19.6992 195.8789l19.2832 94.99415h-215.1621a16.054206 16.054206 0 0 0-16.0527 16.05273v49a16.054206 16.054206 0 0 0 16.0527 16.05273h87.1484v70.19532h-87.1484a16.054206 16.054206 0 0 0-16.0527 16.05273v49a16.054206 16.054206 0 0 0 16.0527 16.05273h225.1621l-19.2832 94.99415h-205.8789-9.5996-151.6465v-422.39454zm462.2891 0h177.3047l76.0058 108.45899a16.054206 16.054206 0 0 0 26.2989-0.00781l75.9062-108.45118h177.3106l-141.42 202.04297a16.054206 16.054206 0 0 0 0 18.41211l141.4102 201.93946h-177.3008l-75.9062-108.45118a16.054206 16.054206 0 0 0-26.2989-0.00781l-76.0058 108.45899h-177.2969l141.4961-201.93555a16.054206 16.054206 0 0 0 0-18.41992l-141.5039-202.03907zm-1664.4199 159.60157h0.0039v0.00195l0.0175 0.02539c-0.01-0.01-0.0154-0.01774-0.0214-0.02734z" color="#000000" fill="#fff" stroke-linecap="round" stroke-linejoin="round" stroke-miterlimit="8.3471" style="-inkscape-stroke:none"/>
</svg>
