<svg enable-background="new 0 0 3839 1000.4" version="1.1" viewBox="0 0 3839 1000.4" xml:space="preserve" xmlns="http://www.w3.org/2000/svg">
<path d="m2291.1992 0-406.0996 465c-24.1-7.09999-49.6992-11-76.1992-11-148.0999 0-268.0996 119.99976-268.0996 268.09961s119.9997 268.09961 268.0996 268.09961c148.0998 0 268.0996-119.99976 268.0996-268.09961 0-55.29995-16.8-106.80004-45.5-149.5l-162.5 185.5-9.5 10.90039h-0.0996c-12.6 13.59999-30.6 22.09961-50.5 22.09961-38.1 0-69-30.90004-69-69s30.9-69 69-69c26.2 0 48.9996 14.59963 60.5996 36.09961l133.3008-152.19922c-27.3-28.59997-60.8004-51.10001-98.4004-65.5h155.6992l110.3008-126c8.2-9.39999 22.3988-10.2996 31.7988-2.09961s10.3016 22.39884 2.1016 31.79883l-84.3008 96.30078-9.0996 10.40039v503.90039h179.5v-514.30078h99.5v514.30078h179.5v-334.80078h110.6992l158.4004-179.5h-200.5l-148 169.09961c-8.2 9.39999-22.4008 10.2996-31.8008 2.09961s-10.2996-22.39884-2.0996-31.79883l122.0996-139.5h-8.7988-111.0996-68.3125l158.3125-179.40039h-257.1016v-292zm-2291.1992 292 620.09961 708.4004 620.20119-708.4004h-297.70119l-347 396.30078c-11.89999 13.59999-32.49962 14.8996-46.09961 3.09961-13.59999-11.89999-14.8996-32.49962-3.09961-46.09961l309.40039-353.30078h-855.80078zm1251.3008 162.09961c-148.0999 0-268.10158 119.99976-268.10158 268.09961s120.00168 268.10156 268.10158 268.10156c148.0998 0 268.0996-120.00171 268.0996-268.10156 0-55.29995-16.8-106.80004-45.5-149.5l-162.5 185.40039-9.5 10.90039h-0.0996c-12.6 13.59999-30.6 22.09961-50.5 22.09961-8.7 0-16.9016-1.6-24.6016-4.5l85.2012-97.29883 133.2988-152.20117c-48.7999-51.09995-117.5985-83-193.8984-83zm1750.5996 0c-148.0999 0-268.0996 119.99976-268.0996 268.09961s119.9997 268.10156 268.0996 268.10156c148.0998-0.2 268.0996-120.20132 268.0996-268.20117 0-55.29995-16.8-106.80004-45.5-149.5l-162.5 185.5-9.5 10.90039h-0.0996c-12.6 13.59999-30.6 22.09961-50.5 22.09961-8.7 0-16.8996-1.6-24.5996-4.5l85.1992-97.29883 133.3008-152.20117c-48.8-51.09995-117.6005-83-193.9004-83zm174.5996 17.30078 226.4004 258.59961-223.9004 255.80078h209.8008l145.5996-166.30078c8.2-9.39999 22.3988-10.2996 31.7988-2.09961s10.3016 22.39884 2.1016 31.79883l-119.7012 136.70117h388l-224-255.90039 226.4004-258.5h-209.8008l-148.0996 169.09961c-8.2 9.39999-22.3988 10.2996-31.7988 2.09961s-10.3016-22.39884-2.1016-31.79883l122.1016-139.5h-392.8008zm-1925.1992 181.69922c9.7 0 18.9984 2.00117 27.3984 5.70117l-86.5 98.79883c-6.3-10.39999-9.8984-22.50001-9.8984-35.5 0-38.09996 30.9-69 69-69zm1750.6992 0c9.7 0 19.0004 2.00117 27.4004 5.70117l-86.5 98.79883c-6.3-10.39999-9.9004-22.50001-9.9004-35.5 0-38.09996 30.9-69 69-69z"/>
</svg>
