<?xml version="1.0" encoding="utf-8"?>
<!-- Generator: Adobe Illustrator 25.2.1, SVG Export Plug-In . SVG Version: 6.00 Build 0)  -->
<svg version="1.1" id="Layer_1" xmlns="http://www.w3.org/2000/svg" xmlns:xlink="http://www.w3.org/1999/xlink" x="0px" y="0px"
	 viewBox="0 0 3839 710.6" style="enable-background:new 0 0 3839 710.6;" xml:space="preserve">
<style type="text/css">
	.st0{fill:#333333;}
	.st1{fill:#111111;}
	.st2{fill:#204492;}
	.st3{fill:none;stroke:#FFFFFF;stroke-width:32.1052;stroke-linecap:round;stroke-linejoin:round;stroke-miterlimit:8.3471;}
	.st4{fill:#FFFFFF;}
	.st5{fill:none;stroke:#FFFFFF;stroke-width:31.5771;stroke-linecap:round;stroke-linejoin:round;stroke-miterlimit:8.3471;}
	.st6{fill:none;stroke:#000000;stroke-width:31.5771;stroke-linecap:round;stroke-linejoin:round;stroke-miterlimit:8.3471;}
	.st7{fill:#CCCCCC;}
</style>
<g>
	<g>
		<path d="M1453.7,31.6c63.8,0,124.4,18.2,175.9,51.7c15.5-22.9,41.6-37.7,70.7-37.7h762.9c58.8,0,112.5,22.3,153.1,58.8
			c11.1-34.1,43.2-58.8,81-58.8h1024.9c31.8,0,60.9,17.7,75.6,45.9c14.7,28.2,12.5,62.2-5.8,88.3l-122.3,174.6L3792,529.1
			c18.2,26,20.5,60.1,5.8,88.3c-14.7,28.2-43.8,45.9-75.6,45.9H1805.4c-22.6,0-44.3-9-60.3-25c-16-16-25-37.7-25-60.3v-40.9
			c-2.8,5.8-6.3,11.3-10.5,16.5c-61.8,79.8-154.9,125.4-255.9,125.4c-82.5,0-157.8-31-215-82c-8.9,38.6-43.2,66.2-83,66.2H765.8
			c-22.6,0-44.3-9-60.3-25c-16-16-25-37.7-25-60.3l0-223.5L494.8,619.8c-16,22.8-42,36.4-69.8,36.4c-27.8,0-53.9-13.6-69.8-36.4
			L47,179.8c-18.2-26-20.5-60.1-5.8-88.3C55.9,63.3,85,45.6,116.8,45.6h1028.9c40.6,0,75.5,28.6,83.6,68.3l1.4,7
			C1288.8,65.6,1367.3,31.6,1453.7,31.6 M1453.7,0c-75.9,0-148.7,24-209.2,68.4c-6.7-10.5-15-20-24.7-27.9
			c-20.8-17-47.1-26.4-73.9-26.4H116.8c-21.4,0-42.3,5.9-60.6,17c-18.3,11.1-33.2,27-43,45.9c-9.9,19-14.3,40.3-13,61.6
			c1.4,21.3,8.6,41.9,20.9,59.4L329.3,638c21.8,31.2,57.6,49.8,95.7,49.8s73.9-18.6,95.7-49.8L649,454.7l0,123.3
			c0,15.4,3,30.5,8.9,44.7c5.9,14.2,14.4,27,25.3,37.9c10.9,10.9,23.7,19.4,37.9,25.3c14.2,5.9,29.3,8.9,44.7,8.9h389.8
			c26.4,0,52.2-9.1,72.8-25.5c8.3-6.6,15.6-14.4,21.8-22.9c59.4,41.6,130.3,64.2,203.4,64.2c90.9,0,176.1-33.8,241.3-94.4
			c0.8,2.2,1.6,4.3,2.5,6.5c5.9,14.2,14.4,27,25.3,37.9c10.9,10.9,23.7,19.4,37.9,25.3c14.2,5.9,29.3,8.9,44.7,8.9h1916.8
			c21.4,0,42.3-5.9,60.6-17c18.3-11.1,33.2-27,43-45.9c9.9-19,14.3-40.3,13-61.6c-1.4-21.3-8.6-41.9-20.9-59.4l-109.6-156.5
			l109.6-156.5c12.3-17.5,19.5-38,20.9-59.4c1.4-21.3-3.1-42.6-13-61.6c-9.9-19-24.7-34.8-43-45.9c-18.3-11.1-39.2-17-60.6-17
			H2697.3c-25.2,0-49.1,7.9-69.3,22.8c-8,5.9-15.2,12.8-21.4,20.4c-42.4-28-92.1-43.1-143.5-43.1h-762.9
			c-28.6,0-55.8,10.5-76.8,28.9C1571.7,14.8,1513.6,0,1453.7,0L1453.7,0z"/>
		<path class="st6" d="M1643.7,211.2l-103.2,103.2c0,0,0,0,0,0c-6.6,6.6-17.7,5.9-22.9-1.8c-14.3-21.3-39-35.1-66.8-34.1
			c-39.9,1.4-73,34.8-74.1,74.7c-1.2,43.5,33.7,79.2,77,79.2c26.6,0,50.1-13.5,63.9-34.1c5.2-7.7,16.3-8.6,22.9-2l9.6,9.6l93.6,93.6
			l0,0c-43.5,57.3-112.5,94.3-190,94.3c-131.7,0-238.5-106.8-238.5-238.5s106.8-238.5,238.5-238.5
			C1531.2,116.8,1600.1,153.9,1643.7,211.2L1643.7,211.2z"/>
	</g>
	<polygon class="st6" points="520.2,130.9 425,266.9 329.8,130.9 116.8,130.9 425,570.9 733.1,130.9 	"/>
	<polygon class="st6" points="940.3,452.9 940.3,404.7 1041.7,404.7 1041.7,304.1 940.3,304.1 940.3,256 1171.1,256 1145.8,130.9 
		940.3,130.9 920.9,130.9 765.9,130.9 765.8,578 930.8,578 940.3,578 1155.7,578 1181,452.9 	"/>
	<polygon class="st6" points="2871.7,404.7 2973.2,404.7 2973.2,304.1 2871.7,304.1 2871.7,256 3102.6,256 3077.2,130.9 
		2871.7,130.9 2852.3,130.9 2697.3,130.9 2697.3,578 2862.2,578 2871.7,578 3087.1,578 3112.5,452.9 2871.7,452.9 	"/>
	<polygon class="st6" points="3722.2,130.9 3509.2,130.9 3429.8,244.3 3350.4,130.9 3137.5,130.9 3294,354.4 3137.5,578 3350.4,578 
		3429.8,464.6 3509.2,578 3722.2,578 3565.6,354.4 	"/>
	<polygon class="st6" points="2084.9,130.9 1979.8,130.9 1925.2,130.9 1860,130.9 1805.4,130.9 1700.3,130.9 1669.4,283.3 
		1805.4,283.3 1805.4,578 1979.8,578 1979.8,283.3 2115.8,283.3 	"/>
	<path class="st6" d="M2348.7,256h50.6c16.3,0,29.5,13.2,29.5,29.5v0c0,16.3-13.2,29.5-29.5,29.5v186.3L2453,578h203l-123.8-176.9
		c44.6-24.4,74.9-71.8,74.9-126.3c0-79.5-64.4-143.9-143.9-143.9H2289h-71.5h-43.2l0,447.1h174.4V256"/>
</g>
</svg>
