<svg enable-background="new 0 0 3839 710.6" version="1.1" viewBox="0 0 3839 710.6" xml:space="preserve" xmlns="http://www.w3.org/2000/svg">
<path d="m1453.6992 0c-75.8999 0-148.6993 24.000435-209.1992 68.400391-6.7-10.49999-14.9992-20.000399-24.6992-27.900391-20.8-16.999983-47.1004-26.400391-73.9004-26.400391h-1029.09962c-21.399977 0-42.30158 5.900011-60.601561 17-18.299982 11.099989-33.20001 27.00041-43 45.900391-9.8999903 18.999981-14.299999 40.29963-13.00000025 61.59961 1.39999855 21.29998 8.60040295 41.90041 20.90039025 59.40039l308.201171 440c21.79998 31.19997 57.59926 49.80078 95.69922 49.80078s73.89924-18.60081 95.69922-49.80078l128.30078-183.30078v123.30078c0 15.39998 3.0004 30.49923 8.90039 44.69922 5.89999 14.19998 14.39884 27.0004 25.29883 37.90039s23.7004 19.40079 37.90039 25.30078 29.30119 8.90039 44.70117 8.90039h389.79882c26.4 0 52.2008-9.10002 72.8008-25.5 8.3-6.59999 15.5988-14.4004 21.7988-22.90039 59.4 41.59996 130.3005 64.19922 203.4004 64.19922 90.8999 0 176.1009-33.80045 241.3008-94.40039 0.8 2.2 1.6 4.3 2.5 6.5 5.9 14.19998 14.3988 27.0004 25.2988 37.90039s23.7004 19.40079 37.9004 25.30078 29.3012 8.90039 44.7012 8.90039h1916.7988c21.4 0 42.2996-5.90001 60.5996-17s33.2-27.00041 43-45.90039c9.9-18.99998 14.3-40.29963 13-61.59961-1.4-21.29998-8.5984-41.90041-20.8984-59.40039l-109.6016-156.5 109.6016-156.5c12.3-17.49998 19.4984-38.00041 20.8984-59.40039 1.4-21.29998-3.1-42.599628-13-61.599609s-24.7-34.800402-43-45.900391-39.1996-17-60.5996-17h-1024.7988c-25.2 0-49.1008 7.900796-69.3008 22.800781-8 5.899994-15.2004 12.798445-21.4004 20.398438-42.3999-27.999972-92.1-43.09961-143.5-43.09961h-762.9004c-28.6 0-55.7988 10.500409-76.7988 28.900391-51.7-28.199972-109.8012-43-169.7012-43zm0 31.599609c63.8 0 124.4005 18.201206 175.9004 51.701172 15.5-22.899977 41.6012-37.701172 70.7012-37.701172h762.8984c58.8 0 112.5016 22.300818 153.1016 58.800781 11.1-34.099965 43.2-58.800781 81-58.800781h1024.8984c31.8 0 60.9016 17.700419 75.6016 45.900391 14.7 28.19997 12.4992 62.20081-5.8008 88.30078l-122.3008 174.59961 122.3008 174.69922c18.2 25.99997 20.5008 60.10081 5.8008 88.30078s-43.8016 45.90039-75.6016 45.90039h-1916.7988c-22.6 0-44.3008-9.00001-60.3008-25-16-15.99998-25-37.7008-25-60.30078v-40.90039c-2.8 5.79999-6.3 11.3-10.5 16.5-61.7999 79.79992-154.9005 125.40039-255.9004 125.40039-82.4999 0-157.8-31.00005-215-82-8.9 38.59996-43.2 66.19922-83 66.19922h-389.89842c-22.59998 0-44.3008-9.00002-60.30078-25-15.99998-15.99999-25-37.69885-25-60.29883v-223.5l-185.69922 265.40039c-15.99998 22.79998-42.00081 36.39844-69.80078 36.39844s-53.9008-13.59846-69.80078-36.39844l-308.19922-440c-18.199982-25.99997-20.500767-60.10081-5.800781-88.30078 14.699985-28.199972 43.801594-45.900391 75.601561-45.900391h1028.89842c40.6 0 75.5016 28.600821 83.6016 68.300781l1.3984 7c58.1-55.299944 136.6001-89.300781 223-89.300781zm0 69.412111c-140.2351 0-254.289 114.0538-254.289 254.28906s114.0539 254.28906 254.289 254.28906c82.525 0 156.1936-39.44595 202.5762-100.54296a15.790129 15.790129 0 0 0-1.4121-20.71094l-93.5996-93.59961-9.5996-9.59961c-13.3664-13.36637-36.4355-11.53527-47.1485 4.32812a15.790129 15.790129 0 0 0-0.0332 0.04883c-10.9622 16.3639-29.525 27.09766-50.7832 27.09766-34.6212 0-62.1775-28.14987-61.2168-62.97656 0.8662-31.4202 27.4599-58.25332 58.8711-59.35547a15.790129 15.790129 0 0 0 0.0156 0c22.2496-0.80035 41.7516 10.18609 53.1211 27.12109a15.790129 15.790129 0 0 0 0.0254 0.03516c10.7837 15.96807 33.8944 17.38294 47.1485 4.1289l103.1992-103.20117a15.790129 15.790129 0 0 0 1.4004-20.72461c-46.4653-61.06535-120.0262-100.62695-202.5645-100.62695zm-1336.89842 14.09961a15.790129 15.790129 0 0 0-12.93164 24.84765l308.19922 440a15.790129 15.790129 0 0 0 25.86523-0.00195l308.09961-440a15.790129 15.790129 0 0 0-12.93359-24.8457h-212.90039a15.790129 15.790129 0 0 0-12.9336 6.73437l-82.26562 117.52344-82.26562-117.52344a15.790129 15.790129 0 0 0-12.9336-6.73437h-213zm649.09961 0a15.790129 15.790129 0 0 0-15.78906 15.78515l-0.09961 447.09961a15.790129 15.790129 0 0 0 15.78906 15.79297h165 9.5 215.39842a15.790129 15.790129 0 0 0 15.4746-12.66015l25.3008-125.09961a15.790129 15.790129 0 0 0-15.4746-18.91797h-224.91016v-16.62305h85.60936a15.790129 15.790129 0 0 0 15.7891-15.78906v-100.59961a15.790129 15.790129 0 0 0-15.7891-15.78906h-85.60936v-16.52149h215.00976a15.790129 15.790129 0 0 0 15.4746-18.91797l-25.2988-125.09961a15.790129 15.790129 0 0 0-15.4746-12.66015h-205.50002-19.40039-155zm934.40041 0a15.790129 15.790129 0 0 0-15.4746 12.65234l-30.9004 152.40039a15.790129 15.790129 0 0 0 15.4746 18.92578h120.2109v278.91016a15.790129 15.790129 0 0 0 15.7891 15.78906h174.4004a15.790129 15.790129 0 0 0 15.789-15.78906v-278.91016h120.211a15.790129 15.790129 0 0 0 15.4746-18.92578l-30.9004-152.40039a15.790129 15.790129 0 0 0-15.4746-12.65234h-105.0996-54.6016-65.1992-54.5996-105.0996zm474 0a15.790129 15.790129 0 0 0-15.7891 15.78906v447.09961a15.790129 15.790129 0 0 0 15.7891 15.78906h174.3984a15.790129 15.790129 0 0 0 15.7891-15.78906v-306.21094h34.8125c7.7761 0 13.7109 5.93487 13.7109 13.71094s-5.9348 13.71094-13.7109 13.71094a15.790129 15.790129 0 0 0-15.7891 15.78906v186.30078a15.790129 15.790129 0 0 0 2.8555 9.05469l53.6992 76.69922a15.790129 15.790129 0 0 0 12.9336 6.73437h203a15.790129 15.790129 0 0 0 12.9355-24.84179l-114.2968-163.32032c41.2266-28.87093 68.25-76.74988 68.25-130.82617 0-88.02629-71.6632-159.68945-159.6895-159.68945h-174.1992-71.5-43.1992zm523 0a15.790129 15.790129 0 0 0-15.7891 15.78906v447.09961a15.790129 15.790129 0 0 0 15.7891 15.78906h164.8984 9.5 215.4004a15.790129 15.790129 0 0 0 15.4727-12.64648l25.4004-125.09961a15.790129 15.790129 0 0 0-15.4727-18.93164h-225.0117v-16.62305h85.7109a15.790129 15.790129 0 0 0 15.7891-15.78906v-100.59961a15.790129 15.790129 0 0 0-15.7891-15.78906h-85.7109v-16.52149h215.1113a15.790129 15.790129 0 0 0 15.4727-18.93164l-25.4004-125.09961a15.790129 15.790129 0 0 0-15.4727-12.64648h-205.5-19.3984-155zm440.1992 0a15.790129 15.790129 0 0 0-12.9336 24.8457l150.1602 214.44531-150.1621 214.54493a15.790129 15.790129 0 0 0 12.9355 24.84179h212.9004a15.790129 15.790129 0 0 0 12.9336-6.73242l66.4668-94.92969 66.4648 94.92774a15.790129 15.790129 0 0 0 12.9336 6.73437h213a15.790129 15.790129 0 0 0 12.9317-24.8457l-150.2539-214.54102 150.2519-214.4414a15.790129 15.790129 0 0 0-12.9297-24.84961h-213a15.790129 15.790129 0 0 0-12.9336 6.73437l-66.4648 94.92774-66.4668-94.92969a15.790129 15.790129 0 0 0-12.9336-6.73242h-212.9004zm-1683.8008 17.47851h2e-3 0.0019c67.523 0.00118 127.8848 30.09714 168.7617 77.51563l-92.5957 92.59765c-17.3406-25.0105-46.7741-41.15845-79.6211-39.98242-48.3867 1.69987-87.9943 41.66472-89.3281 90.04297-1.4392 52.17305 40.8049 95.42578 92.7832 95.42578 31.494 0 59.5288-15.85423 76.2578-40.10351l8.9786 8.97851 83.539 83.53907c-40.7938 47.38309-101.2395 77.4082-168.7754 77.4082-123.1639 0-222.7109-99.54698-222.7109-222.71094 0-123.16263 99.545-222.70881 222.707-222.71094zm-1306.56248 14.09961h174.44336l90.48633 129.26563a15.790129 15.790129 0 0 0 25.86718 0l90.48633-129.26563h174.34766l-277.76953 396.6875-277.86133-396.6875zm634.54883 0h139.21484 19.40039 192.58402l18.914 93.52149h-211.49802a15.790129 15.790129 0 0 0-15.78906 15.78906v48.09961a15.790129 15.790129 0 0 0 15.78906 15.78906h85.60942v69.02149h-85.60942a15.790129 15.790129 0 0 0-15.78906 15.78906v48.20117a15.790129 15.790129 0 0 0 15.78906 15.78906h221.39842l-18.916 93.52149h-202.48242-9.5-149.20703l0.0918-415.52149zm931.52535 0h92.1895 54.5996 65.1992 54.6016 92.1914l24.4961 120.82227h-116.6875a15.790129 15.790129 0 0 0-15.7891 15.78906v278.91016h-142.8222v-278.91016a15.790129 15.790129 0 0 0-15.7891-15.78906h-116.6875l24.498-120.82227zm476.8789 0h27.4102 71.5 174.1992c70.9732 0 128.1113 57.13811 128.1113 128.11133 0 48.64787-27.0009 90.73432-66.6894 112.44727a15.790129 15.790129 0 0 0-5.3574 22.90429l106.416 152.0586h-164.4609l-46.129-65.88867v-168.56641c17.1192-6.48821 29.5-22.99371 29.5-42.25586 0-24.82383-20.4652-45.28906-45.289-45.28906h-50.6016a15.790129 15.790129 0 0 0-15.789 15.78906v306.21094h-142.8204v-415.52149zm523 0h139.211 19.3984 192.5957l18.9883 93.52149h-211.584a15.790129 15.790129 0 0 0-15.789 15.78906v48.09961a15.790129 15.790129 0 0 0 15.789 15.78906h85.711v69.02149h-85.711a15.790129 15.790129 0 0 0-15.789 15.78906v48.20117a15.790129 15.790129 0 0 0 15.789 15.78906h221.4844l-18.9883 93.52149h-202.4961-9.5-149.1094v-415.52149zm454.7422 0h174.3496l74.6856 106.66797a15.790129 15.790129 0 0 0 25.8672-0.00195l74.6836-106.66602h174.4394l-139.1875 198.65039a15.790129 15.790129 0 0 0 0 18.11719l139.1992 198.75391h-174.4511l-74.6836-106.66602a15.790129 15.790129 0 0 0-25.8672-0.00195l-74.6856 106.66797h-174.3593l139.1132-198.75782a15.790129 15.790129 0 0 0 0-18.10937l-139.1035-198.6543zm-1637.1484 157.07227c0.0014 4.2e-4 -2e-4 0.00112 0.0039 0.00195l0.0234 0.03516c-0.0094-0.01275-0.0187-0.02443-0.0273-0.03711zm0.0312 103.32617h2e-3l-0.0332 0.04883c0 2e-3 -0.0098 9.1e-4 -0.0098 0.0039 0.012-0.01849 0.029-0.03423 0.041-0.05273z"/>
</svg>
