<?xml version="1.0" encoding="utf-8"?>
<!-- Generator: Adobe Illustrator 25.2.1, SVG Export Plug-In . SVG Version: 6.00 Build 0)  -->
<svg version="1.1" id="Layer_1" xmlns="http://www.w3.org/2000/svg" xmlns:xlink="http://www.w3.org/1999/xlink" x="0px" y="0px"
	 viewBox="0 0 3839 658.2" style="enable-background:new 0 0 3839 658.2;" xml:space="preserve">
<style type="text/css">
	.st0{fill:#333333;}
	.st1{fill:#111111;}
	.st2{fill:#204492;}
	.st3{fill:none;stroke:#FFFFFF;stroke-width:32.1052;stroke-linecap:round;stroke-linejoin:round;stroke-miterlimit:8.3471;}
	.st4{fill:#FFFFFF;}
	.st5{fill:none;stroke:#FFFFFF;stroke-width:31.5771;stroke-linecap:round;stroke-linejoin:round;stroke-miterlimit:8.3471;}
	.st6{fill:none;stroke:#000000;stroke-width:31.5771;stroke-linecap:round;stroke-linejoin:round;stroke-miterlimit:8.3471;}
	.st7{fill:#CCCCCC;}
</style>
<g>
	<g>
		<path class="st2" d="M3699,328.3l124.3-177.6c18.5-26.5,20.8-61.1,5.9-89.7c-14.9-28.7-44.6-46.7-76.9-46.7h-1042
			c-38.5,0-71.1,25.1-82.4,59.8c-41.3-37.2-95.9-59.8-155.7-59.8h-775.6c-29.6,0-56.1,15-71.8,38.3C1572.3,18.5,1510.7,0,1445.9,0
			c-87.8,0-167.6,34.6-226.7,90.8l-1.4-7.1c-8.2-40.4-43.7-69.4-85-69.4H86.7c-32.3,0-62,18-76.9,46.7
			c-14.9,28.7-12.7,63.3,5.9,89.7L329,598.1c16.2,23.2,42.7,37,71,37c28.3,0,54.8-13.8,71-37l188.9-269.8l0,227.2
			c0,23,9.1,45,25.4,61.3s38.3,25.4,61.3,25.4h396.3c40.5,0,75.4-28,84.4-67.3c58.2,51.8,134.7,83.3,218.6,83.3
			c102.7,0,197.3-46.4,260.2-127.5c4.3-5.2,7.8-10.9,10.7-16.8v41.6c0,23,9.1,45,25.4,61.3c16.3,16.3,38.3,25.4,61.3,25.4h1948.8
			c32.3,0,62-18,76.9-46.7c14.9-28.7,12.7-63.3-5.9-89.7L3699,328.3z"/>
		<path class="st3" d="M1639.1,182.6l-104.9,104.9c0,0,0,0,0,0c-6.7,6.7-18,6-23.3-1.9c-14.5-21.7-39.6-35.7-67.9-34.7
			c-40.6,1.4-74.2,35.4-75.4,75.9c-1.3,44.3,34.3,80.6,78.2,80.6c27.1,0,51-13.8,65-34.7c5.3-7.9,16.6-8.7,23.3-2l9.8,9.8l95.1,95.1
			l0,0c-44.3,58.3-114.3,95.9-193.2,95.9c-133.9,0-242.4-108.5-242.4-242.4S1312,86.7,1445.9,86.7
			C1524.7,86.7,1594.8,124.3,1639.1,182.6L1639.1,182.6z"/>
	</g>
	<polygon class="st3" points="496.8,101 400,239.2 303.2,101 86.7,101 400,548.4 713.3,101 	"/>
	<polygon class="st3" points="923.9,428.4 923.9,379.4 1027.1,379.4 1027.1,277.1 923.9,277.1 923.9,228.1 1158.6,228.1 1132.8,101 
		923.9,101 904.2,101 746.6,101 746.6,555.5 914.2,555.5 923.9,555.5 1142.9,555.5 1168.7,428.4 	"/>
	<polygon class="st3" points="2887.6,379.4 2990.8,379.4 2990.8,277.1 2887.6,277.1 2887.6,228.1 3122.4,228.1 3096.6,101 
		2887.6,101 2867.9,101 2710.3,101 2710.3,555.5 2878,555.5 2887.6,555.5 3106.6,555.5 3132.4,428.4 2887.6,428.4 	"/>
	<polygon class="st3" points="3752.3,101 3535.8,101 3455.1,216.3 3374.3,101 3157.8,101 3317,328.3 3157.8,555.5 3374.3,555.5 
		3455.1,440.2 3535.8,555.5 3752.3,555.5 3593.2,328.3 	"/>
	<polygon class="st3" points="2087.7,101 1980.8,101 1925.3,101 1859,101 1803.5,101 1696.6,101 1665.2,256 1803.5,256 
		1803.5,555.5 1980.8,555.5 1980.8,256 2119.1,256 	"/>
	<path class="st3" d="M2355.9,228.1h51.5c16.6,0,30,13.4,30,30v0c0,16.6-13.4,30-30,30v189.4l54.6,77.9h206.4l-125.9-179.8
		c45.4-24.8,76.2-73,76.2-128.4c0-80.8-65.5-146.3-146.3-146.3h-177h-72.7h-43.9l0,454.6h177.3V228.1"/>
</g>
</svg>
