<svg enable-background="new 0 0 3840 1547.4" version="1.1" viewBox="0 0 3840 1547.4" xml:space="preserve" xmlns="http://www.w3.org/2000/svg">
<path d="m3292.5996 0c-150.7998 0-279.6005 54.899329-386.4004 164.69922-51.5494 52.99741-90.5313 110.25547-117.1992 171.70898v-158.00781c0-49.69995-14.3992-90.10003-43.1992-120.999999s-64.8012-46.400391-107.7012-46.400391c-42.9999 0-78.6004 15.500422-106.9004 46.400391s-42.3984 71.200049-42.3984 120.999999v456.76367c-4.0271-17.13599-9.045-33.7201-15.2012-49.66406-17.8-46.09995-44.6-86.79925-80.5-122.19922-35.9-35.39996-70.5996-59.60118-104.0996-72.70117-33.6-13.09999-68.6008-22.69923-105.3008-28.69922-36.6999-5.99999-59.0992-11.00039-67.1992-14.90039-8.2-4-12.1992-11.90001-12.1992-24 0-7.89999 3.4992-15.2004 10.6992-21.90039 7-6.79999 13.7-10.19922 20-10.19922 17.8 0 39.6996 3.8004 65.5996 11.40039s45.7008 11.39844 59.3008 11.39844c40.3 0 75.1-14.79847 104.5-44.39844 29.3-29.59997 44-59.90081 44-90.80078 0-60.79994-21.3001-105.400029-64-134-42.7-28.499971-109.4001-42.8007812-200-42.8007812-101.0999 0-182.4001 31.6012352-244 94.7011722-61.4999 63.199939-92.3008 136.100469-92.3008 218.900389 0 87.49991 25.0001 161.09889 75 220.79883 50 59.79994 116.7001 95.60118 200 107.70117 79.6999 11.99999 119.5 35.59926 119.5 70.69922 0 52.39995-22.5996 78.59961-67.5996 78.59961-23 0-48.3992-15.30003-76.1992-46s-51.3004-49.89884-70.4004-57.79883-39.7012-11.80078-61.7012-11.80078c-41.9999 0-77.7992 14.30081-107.6992 42.80078-8.3307 7.96854-15.3729 16.34872-21.377 25.0625l-289.9238-628.5625c-15.2-32.399966-36.5996-58.200799-64.0996-77.30078-27.5-18.999981-56.7992-28.599609-87.6992-28.599609-30.4 0-59.3008 9.500409-86.8008 28.40039s-48.8996 44.900033-64.0996 77.999999l-296.66016 636.88867c-27.1248-22.26395-57.50831-33.49023-91.14062-33.49023-26.29997 0-59.29926 9.10041-99.19922 27.40039-58.19994 26.69997-115.40006 40.09961-171.5 40.09961-65.59993 0-123.00083-24.39966-172.30078-73.09961-49.39995-48.69995-74-104.19967-74-166.59961 0-63.39994 24.70083-119.20044 74.30078-167.40039 49.49995-48.19995 106.90046-72.29883 171.90039-72.29883 56.59994 0 113.80006 13.09886 171.5 39.29883 39.39996 17.79998 72.39925 26.70117 99.19922 26.70117 42.49996 0 78.10003-15.80003 107-47.5s43.30078-62.40081 43.30078-92.30078c0-80.19992-43.0997-139.100819-129.59961-176.800781-86.49991-37.699963-183.40089-56.5996096-290.80078-56.5996096-146.69985 0-274.50011 53.8001076-383.5 161.5000006-108.999891 107.69989-163.5 236.20015-163.5 385.5 0 148.79985 54.000499 277.09972 161.90039 385.09961 107.89989 107.89988 236.29976 161.90038 385.09961 161.90038 103.6999 0 199.70009-19.1004 288-57.4004 11.71721-5.069 22.60088-10.5237 32.76172-16.3144 4.74779 6.5955 9.91281 13.0946 15.83789 19.416 29.89997 31.8999 66.10004 47.8984 108.5 47.8984 60.29989 0 106.40039-31.1 138.40039-93.49998l34.0996-67.59961v-0.09961h380.7012l35.8984 67.59961c32.5 62.29989 78.6005 93.49999 138.4004 93.49999 42.4 0 78.3012-15.8 107.7012-47.5 13.5388-14.5979 23.8111-30.0404 31.1152-46.24999 6.8967 6.13609 14.141 12.16909 21.8848 18.05079 70.6999 53.7999 157.0989 80.5996 259.2988 80.5996 95.3999 0 179.4005-37.0005 251.9004-110.90039 49.0036-49.94984 81.4045-103.33868 97.3008-160.20313v95.80274c0 49.69995 14 89.80118 42 120.20118 28.1 30.4 63.7989 45.5996 107.2988 45.5996 44 0 80.2-15.1996 108.5-45.5996 28.3-30.3 42.4004-70.40123 42.4004-120.20118v-158.22266c26.6679 61.30517 65.65 118.36712 117.1992 171.12305 106.7999 109.29989 235.6006 163.90039 386.4004 163.90039 151.3999 0 280.4013-54.7005 387.2012-163.90039s160.1992-236.89976 160.1992-383.09961-53.5997-274.1005-160.5996-383.90039c-107.0999-109.699891-236.0009-164.59961-386.8008-164.59961zm-0.0996 301c67.6999 0 125.9004 25.20083 174.4004 75.80078 48.4999 50.49995 72.7988 107.79928 72.7988 171.69922 0 66.49993-24 124.20044-72 172.90039-47.9999 48.69995-106.3997 73.09961-175.0996 73.09961-68.1999 0-126.3-24.40005-174.5-73.5-47.9999-48.99995-72-106.50007-72-172.5 0-64.39994 25.0008-121.79966 74.8008-172.09961 49.8999-50.19995 107.0997-75.40039 171.5996-75.40039zm-1937 184.69922 70.4004 153.20117h-140.5996l70.1992-153.20117zm-219.0996 656.60158c-15.4 0-28.2996 5.8-38.5996 17.5-7.1199 8.0876-11.6954 16.8105-13.8789 26.1074-2.1604-2.592-4.414-5.1371-6.8223-7.6074-23.4-23.9-53.5989-35.9004-90.79882-35.9004h-91.10156c-16.79998 0-30.99962 5.1004-42.59961 15.4004-11.49999 10.3-17.29883 22.3992-17.29883 36.1992v290.9004c0 18.8 5.29845 33.9004 15.89844 45.4004s24.10002 17.1992 40.5 17.1992c16.59998 0 30.2004-5.6992 40.90039-17.1992s16-26.6004 16-45.4004v-95.0996h55.80079c26.9 0 51.6-13.1008 74-39.3008 20.672-24.0714 31.7766-49.4976 33.4492-76.3477l108.6504 233.8477c5.5 12.1 13.5008 21.7008 23.8008 28.8008 10.4 7.1 20.9988 10.6992 31.7988 10.6992 11.8 0 22.8996-3.5004 33.0996-10.4004 10.3-6.9 18.3-16.5996 24-29.0996l134.4004-289.6992c2.6-5.4 3.9004-11.9016 3.9004-19.6016 0-16-5.6-29.3992-17-40.1992s-26.8996-16.1992-46.5996-16.1992c-8.6 0-17.4008 3.2992-26.3008 9.6992-8.8 6.5-15.3988 14.5-19.7988 24l-84.3008 192.3008-85-192.5c-9.9-22.3-28.5996-33.5-56.0996-33.5zm666.0996 0c-9.8 0-19.3004 3.0992-28.4004 9.1992l-85 54.5996c-13.6 8.9-20.4004 25.0996-20.4004 48.5996 0 13.9 5.6004 26 16.9004 36.5s22.8012 15.7012 34.7012 15.7012c2.8 0 12.4996-2.2008 29.0996-6.8008v184.8008c0 18.8 5.3996 33.9004 16.0996 45.4004 10.8 11.5 24.3992 17.1992 40.6992 17.1992s29.9-5.6992 40.5-17.1992c10.7-11.5 16-26.6004 16-45.4004h-0.0996v-34.9453c8.2069 12.7099 18.0022 24.9038 29.5 36.5449 40.1 40.6 88.9012 60.9004 146.2012 60.9004 57.2999 0 105.9992-20.3004 146.1992-60.9004 16.8772-17.0876 30.165-35.342 39.9492-54.7324 9.7843 19.3907 23.0738 37.6445 39.9512 54.7324 40.1 40.6 88.8993 60.9004 146.1992 60.9004 57.3 0 106.0012-20.3004 146.2012-60.9004 16.8768-17.0872 30.1651-35.3405 39.9492-54.7305 9.7841 19.39 23.0724 37.6433 39.9492 54.7305 40.1 40.6 88.9012 60.9004 146.2012 60.9004 57.2999 0 105.9992-20.3004 146.1992-60.9004 40.1-40.6 60.2012-87.7008 60.2012-141.3008 0-53.7999-20.1012-101.0989-60.2012-141.7988-40.1-40.7-88.8993-61.0996-146.1992-61.0996-57.6 0-106.3008 20.3996-146.3008 61.0996-16.8536 17.1478-30.1092 35.4415-39.8691 54.8652-9.7825-19.4462-23.0636-37.7467-39.9297-54.8652-40.1-40.7-88.9012-61.0996-146.2012-61.0996-57.4999 0-106.2989 20.3996-146.2988 61.0996-16.8536 17.1478-30.1092 35.4416-39.8692 54.8652-9.7824-19.4464-23.0653-37.7466-39.9316-54.8652-40.1-40.7-88.8993-61.0996-146.1992-61.0996-57.5 0-106.3008 20.3996-146.3008 61.0996-11.4598 11.6598-21.2214 23.8604-29.4004 36.5703v-44.8711c0-12.7-5.4996-24.6004-16.5996-35.9004-11-11.3-25.5-16.8984-43.5-16.8984zm-853.90039 105.5996h39.5c4.99999 0 9.00117 1.8988 12.20119 5.7988 3.1 3.9 4.6992 8.1016 4.6992 12.6016 0 4.6-1.5992 8.7-4.6992 12.5-3.20002 3.7-7.3012 5.5996-12.20119 5.5996h-39.5v-36.5zm1089.80079 6.1992c25.4 0 47.2996 8.8 65.5996 26.5s27.5 39.2 27.5 64.5c0 24.8-9.2992 46.0008-27.6992 63.8008-18.5 17.8-40.3 26.6992-65.5 26.6992-25.6 0-47.5016-8.7996-65.6016-26.5996-18.3-17.7-27.3984-39.0004-27.3984-63.9004 0-24.5 8.8-45.8004 26.5-63.9004 17.6-18.1 39.7996-27.0996 66.5996-27.0996zm372.2988 0c25.4 0 47.3016 8.8 65.6016 26.5s27.5 39.2 27.5 64.5c0 24.8-9.3012 46.0008-27.7012 63.8008-18.5 17.8-40.3 26.6992-65.5 26.6992-25.6 0-47.4996-8.7996-65.5996-26.5996-18.3-17.7-27.4004-39.0004-27.4004-63.9004 0-24.5 8.8-45.8004 26.5-63.9004 17.6-18.1 39.7996-27.0996 66.5996-27.0996zm372.3008 0c25.4 0 47.2996 8.8 65.5996 26.5s27.5 39.2 27.5 64.5c0 24.8-9.2992 46.0008-27.6992 63.8008-18.5 17.8-40.3 26.6992-65.5 26.6992-25.6 0-47.4996-8.7996-65.5996-26.5996-18.3-17.7-27.4004-39.0004-27.4004-63.9004 0-24.5 8.8-45.8004 26.5-63.9004 17.6-18.1 39.7996-27.0996 66.5996-27.0996zm-1283 42.4004c-30.9 0-55.9004 25.0004-55.9004 55.9004s25.0004 55.9004 55.9004 55.9004h96c30.9 0 55.9004-25.0004 55.9004-55.9004s-25.0004-55.9004-55.9004-55.9004h-96z"/>
</svg>
