<svg enable-background="new 0 0 3840 693.7" version="1.1" viewBox="0 0 3840 693.7" xml:space="preserve" xmlns="http://www.w3.org/2000/svg">
<path transform="rotate(90)" d="m0.037109375-871.84375c-0.590426045 102.62543 64.50910062 227.54415 180.6621106 233.74414 59.79994 3.1 179.49995-54.70093 128-202.80078l-120-62.09961c-3.4-1.8-4.69922 1-2.19922 4 97.8999 118.19988 9.00033 197.1996-49.09961 185.59961-63.499936-12.79999-95.10001-63.00044-105.499999-109.40039l62.40039-48.5-21.300781-43.69922-72.69921875 33.30078c-0.15624984 3.25937-0.244625874 6.54497-0.263671875 9.85547zm0.763671875-1577.05665c0 116.0999 94.09933475 210.2012 210.1992188 210.2012 44.49996 0 85.69925-13.9004 119.69922-37.4004 37.89996 30.7 86.10161 49.0996 138.60156 49.0996 121.69988 0 220.29883-98.6009 220.29883-220.3008s-98.59895-220.2988-220.29883-220.2988c-51.49995 0-98.80043 17.8004-136.40039 47.4004-34.39996-24.5-76.40044-39-121.90039-39-115.999884 0.1-210.1992188 94.1989-210.1992188 210.2988zm0-472.0996c0 116.0999 94.09933475 210.1992 210.1992188 210.1992 44.49996 0 85.69925-13.8984 119.69922-37.3984 37.89996 30.7 86.10161 49.0996 138.60156 49.0996 121.69988 0 220.29883-98.6009 220.29883-220.3008s-98.59895-220.2988-220.29883-220.2988c-51.49995 0.1-98.80043 17.8-136.40039 47.5-34.39996-24.5-76.40044-39-121.90039-39-115.999884 0-210.1992188 94.0993-210.1992188 210.1992zm0-486.5c0 129.7999 116.0986688 234.9004 344.3984388 234.9004s344.40039-105.2005 344.40039-234.9004c0-129.7999-116.10062-234.9004-344.40039-234.9004-228.19977-0.1-344.3984388 105.1005-344.3984388 234.9004zm0-295.9004h680.9999988v-136.5996h-680.9999988v136.5996zm0.39843755 1779.5996c0.0999999 183.7998 154.9005812 332.8008 345.9003912 332.8008s345.80078-149.0006 345.80078-332.9004c0-25.7-3.1004-50.6988-8.90039-74.7988h-167.30078v0.0996c11.59999 22.7 18.10156 47.9988 18.10156 74.7988 0 96.3999-84.20127 174.8008-187.70117 174.8008s-187.69922-78.4009-187.69922-174.8008c0-26.7 6.49962-52.0988 18.09961-74.7988h-167.400391c-5.6999939 24-8.9003903 49.0988-8.9003902 74.7988zm1.3007812 1644.20119 179.69922 37.69922-177.0996106 158.599609 83.8007816 74.2011716 2.099609-22.7011716 17.90039-16.09961 227.90039 47.900391-44.5-87.800781-37.60156 41.201172-119.29883-25 189.5-169.701171-245.90039-51.5-33.800781-59.59961-42.699219 72.80078zm10-77.20117c0 2.3 3.100391 2.80117 3.900391 0.70117 7.299992-20.59998 18.398838-36.40078 28.298828-34.30078l94.000001 19.70117c11.49999 2.4 16.50156 21.89846 18.60156 39.89844 0.3 2.9 4.5 2.90156 5 0.10156 3.7-23.09998 8.5-31.40156 11.5-32.60156l103.19922 21.60156c16.49998 3.5 20.50079 27.19885 27.80078 47.79883 0.8 2.1 3.89844 1.60078 3.89844-0.69922v-40.40039-24.19922-73.5-99.30078-44.69922-1l-94.59961-19.80078c-3.1-0.7-4.79961 3.49922-2.09961 5.19922 26.29997 16.39998 77.59961 53.10082 77.59961 89.80078v65.69922l-122.59961-25.69922v-16.59961-0.09961c0-25.69997 39.60041-43.70118 54.90039-49.70117 1.7-0.7 1.49922-3.1-0.30078-3.5l-124.699219-26.19922c-1.899998-0.4-2.999999 1.99922-1.5 3.19922 15.399989 11.99999 52.499999 43.9012 52.499999 73.20117v15.59961l-116.099609-24.30078v-68.69922c0-35.59996 38.000047-47.20118 84.999999-51.70117 3.8-0.4 4.19843-5.79961 0.39844-6.59961l-104.500001-21.90039v23.10156h-0.199219v217.39844 2.10156 40.39844zm13.699219-783.79882h655.601561v-158.0996h-519.10156v-66.8008c0-95.4999 143.30078-95.4999 143.30078 0v35.8008h136.59961v-35.7012-7.7988h-0.19922c-7.59999-267.1998-408.300007-267.1998-415.999999 0h-0.201172v7.7988 66.8008 133.0996 24.9004zm111.101561-2266.9004c0-15.5 3.49925-35.9008 31.19922-56.3008 21.29998-15.7 72.49932-42.0996 176.69922-42.0996 104.19989 0 155.40119 26.3996 176.70117 42.0996 27.59997 20.4 31.19922 40.8008 31.19922 56.3008s-3.49925 35.9008-31.19922 56.3008c-21.29998 15.7-72.50128 42.0996-176.70117 42.0996-104.1999 0-155.39924-26.3996-176.69922-42.0996-27.59997-20.4-31.19922-40.8008-31.19922-56.3008zm0.09961 958.5996c0-40.6 32.99926-73.6992 73.69922-73.6992s73.70117 32.9993 73.70117 73.6992c0 40.6-33.00121 73.7012-73.70117 73.7012s-73.69922-33.1012-73.69922-73.7012zm0-472.0996c0-40.6 32.99926-73.6992 73.69922-73.6992s73.70117 32.9992 73.70117 73.6992c0 40.6-33.00121 73.6992-73.70117 73.6992s-73.69922-33.0992-73.69922-73.6992zm159.6543 932.4277h113.40039v-207.8007h-113.40039v207.8007zm88.64453-458.7285c0-46.0999 37.50122-83.6992 83.70117-83.6992 46.09995 0 83.69922 37.5993 83.69922 83.6992 0 46.1-37.49927 83.7012-83.69922 83.7012s-83.70117-37.5012-83.70117-83.7012zm0-472.0996c0-46.0999 37.50122-83.6992 83.70117-83.6992 46.09995 0 83.69922 37.5993 83.69922 83.6992 0 46.1-37.49927 83.7012-83.69922 83.7012s-83.70117-37.5012-83.70117-83.7012zm74.99023 2680.19337h116.5v-43h-116.5v43zm0.00977-372.89258h43v-138.20117c0-12.99999 15.7004-19.49882 24.90039-10.29883l112.90039 113c5.89999 5.89999 9.19922 13.89923 9.19922 22.19922v13.30078h43v-31.09961c0-8.29999-3.29923-16.30118-9.19922-22.20117l-66-66c19.29998-18.49998 44.79925-33.79884 75.19922-42.79883v-54.70117c-45.69996 11.69999-82.99964 34.90003-109.59961 63l-34.40039-34.40039c-32.79997-32.79997-89-9.59917-89 36.80078v151.40039zm0.0332 249.98633h154.09961v-43h-154.09961v43zm0.06836-481.28711a19.799999 19.799999 0 0 0 19.79883 19.80078 19.799999 19.799999 0 0 0 19.80078-19.80078 19.799999 19.799999 0 0 0-19.80078-19.79883 19.799999 19.799999 0 0 0-19.79883 19.79883zm0-51.69922a19.799999 19.799999 0 0 0 19.79883 19.79883 19.799999 19.799999 0 0 0 19.80078-19.79883 19.799999 19.799999 0 0 0-19.80078-19.80078 19.799999 19.799999 0 0 0-19.79883 19.80078zm3.4707 895.1171881h43v-110.3007781h-43v110.3007781zm9.53907-161.8398481h141.08984v0.02149c15.39999 0 30.79883 10.2008 30.79883 30.80078h43c0-49.19561-36.89236-73.79644-73.78906-73.80078v-0.02149h-141.09961v43zm62.98047 161.8203169h43v-110.3007769h-43v110.3007769zm18.95117-432.6249969h43v-189.59961h-43v189.59961zm59.1582 70.52734c15.39999 0 30.79883 10.19885 30.79883 30.79883h43c0-49.19995-36.89887-73.79883-73.79883-73.79883v43z"/>
</svg>
