<?xml version="1.0" encoding="utf-8"?>
<!-- Generator: Adobe Illustrator 25.0.0, SVG Export Plug-In . SVG Version: 6.00 Build 0)  -->
<svg version="1.1" id="Layer_1" xmlns="http://www.w3.org/2000/svg" xmlns:xlink="http://www.w3.org/1999/xlink" x="0px" y="0px"
	 viewBox="0 0 3840 693.7" style="enable-background:new 0 0 3840 693.7;" xml:space="preserve">
<style type="text/css">
	.st0{fill:#C30207;}
	.st1{fill:#FFFFFF;}
</style>
<g>
	<g>
		
			<rect x="2035.8" y="249.8" transform="matrix(-1.836970e-16 1 -1 -1.836970e-16 2446.1726 -1738.7458)" width="113.4" height="207.8"/>
		<path d="M1373.2,26.4v-0.2h-7.8c0,0,0,0,0,0l0,0h-66.8h-133.1h-24.9l0,655.6h158.1l0-519.1h66.8c95.5,0,95.5,143.3,0,143.3h-35.8
			v136.6h35.7l0,0c0,0,0,0,0,0h7.8v-0.2C1640.4,434.8,1640.4,34.1,1373.2,26.4z"/>
		<path d="M1998.6,516.7c-22.7,11.6-48,18.1-74.8,18.1c-96.4,0-174.8-84.2-174.8-187.7s78.4-187.7,174.8-187.7
			c26.7,0,52.1,6.5,74.8,18.1V10.1c-24-5.7-49.1-8.9-74.8-8.9C1740,1.3,1591,156.1,1591,347.1s149,345.8,332.9,345.8
			c25.7,0,50.7-3.1,74.8-8.9V516.7z"/>
		<path d="M3092.2,332.9c24.5-34.4,39-76.4,39-121.9C3131.2,95,3037.1,0.8,2921,0.8c-116.1,0-210.2,94.1-210.2,210.2
			c0,44.5,13.9,85.7,37.4,119.7c-30.7,37.9-49.1,86.1-49.1,138.6c0,121.7,98.6,220.3,220.3,220.3s220.3-98.6,220.3-220.3
			C3139.6,417.8,3121.9,370.5,3092.2,332.9z M2921,137.4c40.6,0,73.7,33,73.7,73.7s-33,73.7-73.7,73.7c-40.6,0-73.7-33-73.7-73.7
			S2880.4,137.4,2921,137.4z M2919.4,553.1c-46.1,0-83.7-37.5-83.7-83.7c0-46.2,37.5-83.7,83.7-83.7c46.1,0,83.7,37.5,83.7,83.7
			C3003.1,515.5,2965.5,553.1,2919.4,553.1z"/>
		<path d="M2620.2,332.9c24.5-34.4,39-76.4,39-121.9C2659.1,95,2565,0.8,2448.9,0.8c-116.1,0-210.2,94.1-210.2,210.2
			c0,44.5,13.9,85.7,37.4,119.7c-30.7,37.9-49.1,86.1-49.1,138.6c0,121.7,98.6,220.3,220.3,220.3s220.3-98.6,220.3-220.3
			C2667.6,417.8,2649.8,370.5,2620.2,332.9z M2448.9,137.4c40.6,0,73.7,33,73.7,73.7s-33,73.7-73.7,73.7c-40.6,0-73.7-33-73.7-73.7
			S2408.3,137.4,2448.9,137.4z M2447.3,553.1c-46.1,0-83.7-37.5-83.7-83.7c0-46.2,37.5-83.7,83.7-83.7c46.1,0,83.7,37.5,83.7,83.7
			C2531,515.5,2493.4,553.1,2447.3,553.1z"/>
		<path d="M3407.5,0.8c-129.8,0-234.9,116.1-234.9,344.4c0,228.3,105.2,344.4,234.9,344.4c129.8,0,234.9-116.1,234.9-344.4
			C3642.5,117,3537.3,0.8,3407.5,0.8z M3463.8,521.9c-20.4,27.6-40.8,31.2-56.3,31.2c-15.5,0-35.9-3.5-56.3-31.2
			c-15.7-21.3-42.1-72.5-42.1-176.7s26.4-155.4,42.1-176.7c20.4-27.6,40.8-31.2,56.3-31.2c15.5,0,35.9,3.5,56.3,31.2
			c15.7,21.3,42.1,72.5,42.1,176.7S3479.5,500.6,3463.8,521.9z"/>
		<rect x="3703.4" y="0.8" width="136.6" height="681"/>
	</g>
	<g>
		<g>
			<rect x="33.7" y="430.6" transform="matrix(-1.836970e-16 1 -1 -1.836970e-16 540.8827 430.5714)" width="43" height="110.3"/>
			<rect x="33.7" y="503.1" transform="matrix(-1.836970e-16 1 -1 -1.836970e-16 613.4022 503.0908)" width="43" height="110.3"/>
			<rect x="505.9" y="482.4" transform="matrix(-1.836970e-16 1 -1 -1.836970e-16 1104.6271 49.8424)" width="43" height="189.6"/>
			<rect x="161.8" y="473.7" transform="matrix(-1 -1.224647e-16 1.224647e-16 -1 366.623 1088.6096)" width="43" height="141.1"/>
			<path d="M204.8,614.9c0,36.9-24.6,73.8-73.8,73.8c0-14.3,0-28.6,0-43c20.6,0,30.8-15.4,30.8-30.8"/>
			<rect x="362.2" y="460.8" transform="matrix(-1 -1.224647e-16 1.224647e-16 -1 767.3127 1075.6318)" width="43" height="154.1"/>
			<path d="M405.1,614.9c0,36.9-24.6,73.8-73.8,73.8c0-14.3,0-28.6,0-43c20.6,0,30.8-15.4,30.8-30.8"/>
			<rect x="239.2" y="460.8" transform="matrix(-1 -1.224647e-16 1.224647e-16 -1 521.4078 1037.9897)" width="43" height="116.5"/>
			<g>
				<path d="M765.9,584.1l34.4-34.4c32.8-32.8,9.6-89-36.8-89H612.1v43h138.2c13,0,19.5,15.7,10.3,24.9l-113,112.9
					c-5.9,5.9-13.9,9.2-22.2,9.2h-13.3v43h31.1c8.3,0,16.3-3.3,22.2-9.2l66-66c18.5,19.3,33.8,44.8,42.8,75.2h54.7
					C817.2,648,794,610.7,765.9,584.1z"/>
				<circle cx="843.4" cy="480.6" r="19.8"/>
				<circle cx="895.1" cy="480.6" r="19.8"/>
			</g>
		</g>
		<g>
			<polygon points="292.8,79 352.4,45.2 279.6,2.5 241.9,182.2 83.3,5.1 9.1,88.9 31.8,91 47.9,108.9 0,336.8 87.8,292.3 
				46.6,254.7 71.6,135.4 241.3,324.9 			"/>
			<path d="M616.7,12.5H399.3h-2.1l-40.4,0c-2.3,0-2.8,3.1-0.7,3.9c20.6,7.3,36.4,18.4,34.3,28.3l-19.7,94
				c-2.4,11.5-21.9,16.5-39.9,18.6c-2.9,0.3-2.9,4.5-0.1,5c23.1,3.7,31.4,8.5,32.6,11.5L341.7,277c-3.5,16.5-27.2,20.5-47.8,27.8
				c-2.1,0.8-1.6,3.9,0.7,3.9l40.4,0h24.2h73.5H532h44.7h1l19.8-94.6c0.7-3.1-3.5-4.8-5.2-2.1c-16.4,26.3-53.1,77.6-89.8,77.6h-65.7
				l25.7-122.6h16.6h0.1c25.7,0,43.7,39.6,49.7,54.9c0.7,1.7,3.1,1.5,3.5-0.3l26.2-124.7c0.4-1.9-2-3-3.2-1.5
				c-12,15.4-43.9,52.5-73.2,52.5h-15.6l24.3-116.1h68.7c35.6,0,47.2,38,51.7,85c0.4,3.8,5.8,4.2,6.6,0.4l21.9-104.5H616.7z"/>
			<path d="M840.9,308.7l62.1-120c1.8-3.4-1-4.7-4-2.2c-118.2,97.9-197.2,9-185.6-49.1c12.8-63.5,63-95.1,109.4-105.5l48.5,62.4
				L915,73L881.7,0.3C777.4-4.7,644.5,60.8,638.1,180.7C635,240.5,692.8,360.2,840.9,308.7z"/>
		</g>
	</g>
</g>
</svg>
