<svg enable-background="new 0 0 3840 693.7" version="1.1" viewBox="0 0 3840 693.7" xml:space="preserve" xmlns="http://www.w3.org/2000/svg">
<path d="m2448.9004 0.80078125c-116.0998 0-210.2012 94.09943475-210.2012 210.1992188 0 44.49996 13.9004 85.69935 37.4004 119.69922-30.7 37.89996-49.0996 86.10161-49.0996 138.60156 0 121.69978 98.601 220.29883 220.3008 220.29883s220.2988-98.59905 220.2988-220.29883c0-51.49995-17.8004-98.80043-47.4004-136.40039 24.5-34.39996 39-76.40044 39-121.90039-0.1-115.999784-94.199-210.1992188-210.2988-210.1992188zm472.0996 0c-116.0998 0-210.1992 94.09943475-210.1992 210.1992188 0 44.49996 13.8984 85.69935 37.3984 119.69922-30.7 37.89996-49.0996 86.10161-49.0996 138.60156 0 121.69978 98.601 220.29883 220.3008 220.29883s220.2988-98.59905 220.2988-220.29883c-0.1-51.49995-17.8-98.80043-47.5-136.40039 24.5-34.39996 39-76.40044 39-121.90039 0-115.999784-94.0994-210.1992188-210.1992-210.1992188zm486.5 0c-129.7998 0-234.9004 116.0988688-234.9004 344.3984388s105.2006 344.40039 234.9004 344.40039c129.7998 0 234.9004-116.10082 234.9004-344.40039 0.1-228.19957-105.1006-344.3984388-234.9004-344.3984388zm295.9004 0v680.9999988h136.5996v-680.9999988h-136.5996zm-1779.5996 0.39843755c-183.7996 0.0999998-332.8008 154.9007812-332.8008 345.9003912s149.0008 345.80078 332.9004 345.80078c25.7 0 50.6988-3.1004 74.7988-8.90039v-167.30078h-0.0996c-22.7 11.59999-47.9988 18.10156-74.7988 18.10156-96.3998 0-174.8008-84.20137-174.8008-187.70117s78.401-187.69922 174.8008-187.69922c26.7 0 52.0988 6.49962 74.7988 18.09961v-167.400391c-24-5.6999939-49.0988-8.9003902-74.7988-8.9003902zm-783.2012 25.0000002v655.601561h158.0996v-519.10156h66.8008c95.4998 0 95.4998 143.30078 0 143.30078h-35.8008v136.59961h35.7012 7.7988v-0.19922c267.1995-7.59999 267.1995-408.300007 0-415.999999v-0.201172h-7.7988-66.8008-133.0996-24.9004zm2266.9004 111.101561c15.5 0 35.9008 3.49925 56.3008 31.19922 15.7 21.29998 42.0996 72.49942 42.0996 176.69922 0 104.19979-26.3996 155.40119-42.0996 176.70117-20.4 27.59997-40.8008 31.19922-56.3008 31.19922s-35.9008-3.49925-56.3008-31.19922c-15.7-21.29998-42.0996-72.50138-42.0996-176.70117 0-104.1998 26.3996-155.39924 42.0996-176.69922 20.4-27.59997 40.8008-31.19922 56.3008-31.19922zm-958.5996 0.09961c40.6 0 73.6992 32.99936 73.6992 73.69922 0 40.69996-32.9993 73.70117-73.6992 73.70117-40.6 0-73.7012-33.00121-73.7012-73.70117 0-40.69986 33.1012-73.69922 73.7012-73.69922zm472.0996 0c40.6 0 73.6992 32.99936 73.6992 73.69922 0 40.69996-32.9992 73.70117-73.6992 73.70117-40.6 0-73.6992-33.00121-73.6992-73.70117 0-40.69986 33.0992-73.69922 73.6992-73.69922zm-932.4277 159.6543v113.40039h207.8007v-113.40039h-207.8007zm458.7285 88.64453c46.0998 0 83.6992 37.50122 83.6992 83.70117 0 46.09985-37.5994 83.69922-83.6992 83.69922-46.1 0-83.7012-37.49937-83.7012-83.69922 0-46.19995 37.5012-83.70117 83.7012-83.70117zm472.0996 0c46.0998 0 83.6992 37.50122 83.6992 83.70117 0 46.09985-37.5994 83.69922-83.6992 83.69922-46.1 0-83.7012-37.49937-83.7012-83.69922 0-46.19995 37.5012-83.70117 83.7012-83.70117zm-2680.19337 74.99023v116.5h43v-116.5h-43zm372.89258 0.00977v43h138.20117c12.99998 0 19.49881 15.70041 10.29883 24.90039l-113 112.90039c-5.89998 5.89998-13.89924 9.19922-22.19922 9.19922h-13.30078v43h31.09961c8.29998 0 16.30119-3.29924 22.20117-9.19922l66-66c18.49996 19.29996 33.79885 44.79928 42.79883 75.19922h54.70117c-11.69998-45.69992-34.90006-82.99967-63-109.59961l34.40039-34.40039c32.79994-32.79993 9.59912-89-36.80078-89h-151.40039zm-249.98633 0.0332v154.09961h43v-154.09961h-43zm481.28711 0.06836a19.799999 19.799999 0 0 0-19.80078 19.79883 19.799999 19.799999 0 0 0 19.80078 19.80078 19.799999 19.799999 0 0 0 19.79883-19.80078 19.799999 19.799999 0 0 0-19.79883-19.79883zm51.69922 0a19.799999 19.799999 0 0 0-19.79883 19.79883 19.799999 19.799999 0 0 0 19.79883 19.80078 19.799999 19.799999 0 0 0 19.80078-19.80078 19.799999 19.799999 0 0 0-19.80078-19.79883zm-895.1171881 3.4707v43h110.3007781v-43h-110.3007781zm161.8398481 9.53907v141.08984h-0.02149c0 15.39998-10.20082 30.79883-30.80078 30.79883v43c49.19556 0 73.79644-36.8924 73.80078-73.78906h0.02149v-141.09961h-43zm-161.8203169 62.98047v43h110.3007769v-43h-110.3007769zm432.6249969 18.95117v43h189.59961v-43h-189.59961zm-70.52734 59.1582c0 15.39998-10.19887 30.79883-30.79883 30.79883v43c49.1999 0 73.79883-36.89891 73.79883-73.79883h-43z"/><path fill="#C30207" d="m871.84375 0.03710937c-102.62543-0.59042604-227.54415 64.50910063-233.74414 180.6621106-3.1 59.79994 54.70093 179.49995 202.80078 128l62.09961-120c1.8-3.4-1-4.69922-4-2.19922-118.19988 97.8999-197.1996 9.00033-185.59961-49.09961 12.79999-63.499936 63.00044-95.10001 109.40039-105.499999l48.5 62.40039 43.69922-21.300781-33.30078-72.69921875c-3.25937-0.15624984-6.54497-0.24462587-9.85547-0.26367188zm-592.24414 2.46289063-37.69922 179.69922-158.599609-177.0996106-74.2011716 83.8007816 22.7011716 2.099609 16.09961 17.90039-47.900391 227.90039 87.800781-44.5-41.201172-37.60156 25-119.29883 169.701171 189.5 51.5-245.90039 59.59961-33.800781zm77.20117 10c-2.3 0-2.80117 3.100391-0.70117 3.900391 20.59998 7.299992 36.40078 18.398838 34.30078 28.298828l-19.70117 94.000001c-2.4 11.49999-21.89846 16.50156-39.89844 18.60156-2.9 0.3-2.90156 4.5-0.10156 5 23.09998 3.7 31.40156 8.5 32.60156 11.5l-21.60156 103.19922c-3.5 16.49998-27.19885 20.50079-47.79883 27.80078-2.1 0.8-1.60078 3.89844 0.69922 3.89844h283.09961l19.80078-94.59961c0.7-3.1-3.49922-4.79961-5.19922-2.09961-16.39998 26.29997-53.10082 77.59961-89.80078 77.59961h-65.69922l25.69922-122.59961h16.69921c25.69997 0 43.70118 39.60041 49.70117 54.90039 0.7 1.7 3.1 1.49922 3.5-0.30078l26.19923-124.699219c0.4-1.899998-1.99922-2.999999-3.19922-1.5-11.99999 15.399989-43.9012 52.499999-73.20117 52.499999h-15.59961l24.30078-116.099609h68.69922c35.59996 0 47.20118 38.000047 51.70117 84.999999 0.4 3.8 5.79961 4.19843 6.59961 0.39844l21.90039-104.500001h-23.10156v-0.199219h-219.5z"/>
</svg>
