<svg enable-background="new 0 0 371.073 84.825" version="1.1" viewBox="0 0 371.073 84.825" xmlns="http://www.w3.org/2000/svg"><path d="m65.925781 0v8.9746094h11.966797v-8.9746094h-11.966797zm149.583989 0v44.871094h11.96875v-44.871094h-11.96875zm77.78515 0v8.9746094h11.96094v-8.9746094h-11.96094zm-293.1796856 11.96875v20.935547h47.86523462v2.992187h-47.86523462v8.97461h59.83203162v-20.941406h-47.871094v-2.992188h47.871094v-8.96875h-59.83203162zm65.81054662 0v32.902344h11.966797v-32.902344h-11.966797zm17.951172 0v32.902344h11.96875v-23.935547h35.894527v23.935547h11.96875v-32.902344h-59.832027zm65.816407 0v32.902344h59.83203v-8.97461h-47.86523v-14.960937h47.86523v-8.966797h-59.83203zm83.76953 0v8.966797h41.88086v2.992187h-41.88086v20.94336h53.84766v-32.902344h-53.84766zm59.83203 0v32.902344h11.96094v-32.902344h-11.96094zm17.94531 0v32.902344h11.9668v-23.935547h47.86524v-8.966797h-59.83204zm-65.8164 20.935547h29.91992v2.992187h-29.91992v-2.992187zm-244.4121112 23.400391v5.396484h8.0195312c0.5489995 0 1.161938-0.005578 1.835938-0.017578 0.674999-0.012 1.312109-0.030641 1.912109-0.056641 0.698999-0.025 1.411719-0.062281 2.136719-0.113281v0.113281c-0.575 0.55-1.137548 1.111548-1.685547 1.685547-0.475 0.5-0.975001 1.028797-1.5 1.591797-0.525 0.562999-0.999829 1.09375-1.423828 1.59375l-10.306641 12.517578v5.171875h22.974609v-5.470703h-9.294921c-0.575 0-1.217689 0.012109-1.929688 0.037109s-1.393969 0.049219-2.0429688 0.074219c-0.7499992 0.05-1.5010007 0.089281-2.25 0.113281v-0.113281l1.8378907-1.835937c0.5249994-0.525 1.0734381-1.099611 1.6484371-1.72461 0.574-0.623999 1.09922-1.223829 1.574219-1.798828l9.931641-12.142578v-5.021484h-21.4375002zm24.7714842 0 8.582031 13.304687-9.36914 14.578125h7.271484l2.884766-4.908203c0.323999-0.549 0.657141-1.15536 0.99414-1.818359 0.337-0.661 0.642969-1.28047 0.917969-1.855469 0.324-0.674 0.6375-1.348438 0.9375-2.023438h0.074219c0.3 0.674 0.600391 1.348438 0.90039 2.023438 0.275 0.574999 0.56786 1.194469 0.88086 1.855469 0.312 0.662999 0.630078 1.269359 0.955078 1.818359l2.810547 4.908203h7.570312l-9.292968-14.615234 8.43164-13.267578h-6.972656l-2.285156 3.785156c-0.325 0.549999-0.657141 1.142297-0.994141 1.779297-0.337 0.636999-0.642969 1.24336-0.917969 1.818359-0.324999 0.649999-0.635547 1.326391-0.935547 2.025391h-0.076171c-0.325-0.699-0.635548-1.374392-0.935547-2.025391-0.275-0.574999-0.575391-1.18136-0.900391-1.818359-0.325-0.637-0.65061-1.229298-0.974609-1.779297l-2.248047-3.785156h-7.308594zm52.617188 0v27.882812h6.408203v-27.882812h-6.408203zm-14.464844 0.636718c-1.499999 0-2.859986 0.175391-4.083985 0.525391-1.223998 0.35-2.26786 0.850001-3.130859 1.5-0.861999 0.649999-1.523328 1.429798-1.986328 2.341797-0.462 0.911999-0.693359 1.917626-0.693359 3.015625 0 1.249999 0.337719 2.343298 1.011718 3.279297 0.675 0.936999 1.724439 1.65725 3.148438 2.15625v0.111328c-1.723998 0.524999-3.036548 1.38236-3.935547 2.568359-0.899999 1.186999-1.347656 2.566627-1.347656 4.140625 0 1.298999 0.274219 2.454798 0.824219 3.466797 0.548999 1.011999 1.316688 1.873938 2.304687 2.585937 0.986999 0.711 2.154908 1.25686 3.503906 1.63086 1.348999 0.375 2.822877 0.560547 4.421875 0.560547 1.597999 0 3.067298-0.185548 4.404297-0.560547 1.335999-0.374 2.490845-0.91886 3.464844-1.63086 0.973999-0.711999 1.73611-1.593579 2.287109-2.642578 0.549-1.049999 0.824219-2.234595 0.824219-3.558593 0-1.573999-0.444079-2.961158-1.330078-4.160157-0.886999-1.199998-2.217236-2.048828-3.990235-2.548828v-0.113281c1.398999-0.5 2.434376-1.223829 3.109376-2.173828 0.674999-0.948999 1.013671-2.023658 1.013671-3.222656 0-1.124999-0.233313-2.135158-0.695312-3.035157-0.462-0.899999-1.117798-1.66211-1.966797-2.287109-0.848999-0.623999-1.879798-1.10536-3.091797-1.443359-1.212999-0.337-2.567408-0.50586-4.066406-0.50586zm-0.037109 4.234375c1.323998 0 2.335156 0.312501 3.035156 0.9375 0.698999 0.624 1.048828 1.459767 1.048828 2.509766 0 1.024999-0.349829 1.843079-1.048828 2.455078-0.7 0.612999-1.711158 0.917969-3.035156 0.917969-1.299999 1e-3 -2.305579-0.30397-3.017579-0.917969-0.711999-0.611999-1.068359-1.429079-1.068359-2.455078 0-1.048999 0.35636-1.884766 1.068359-2.509766 0.712-0.624999 1.71858-0.9375 3.017579-0.9375zm0.074218 10.832031c1.498999 0 2.671485 0.376001 3.521485 1.125 0.848999 0.749 1.27539 1.773267 1.27539 3.072266 0 1.224999-0.437501 2.205407-1.3125 2.941406-0.874999 0.737-2.037329 1.105469-3.486328 1.105469-1.522998 1e-3 -2.716126-0.360938-3.578125-1.085937-0.860999-0.724-1.292969-1.710939-1.292969-2.960938 0-1.298999 0.437501-2.323266 1.3125-3.072266 0.875-0.748999 2.061549-1.125 3.560547-1.125z"/></svg>
