<svg version="1.1" viewBox="0 0 239.76 78.762" xmlns="http://www.w3.org/2000/svg"><path d="m39.630859 0c-0.741874-1.2499988e-4 -1.483266 0.35631321-2.197265 1.0703125l-9.111328 9.1171875c-0.767 0.768999-1.492548 1.584969-2.310547 2.292969-1.018999 0.879999-1.33736 1.92286-1.31836 3.255859 0.067 4.607996 0.027344 9.217177 0.027344 13.826172 0 4.788995-0.002094 9.579145 0.003906 14.369141 0 0.357999 0.007657 0.729266 0.097657 1.072265 0.289999 1.109999 0.996875 1.29514 1.796875 0.494141 4.314995-4.316996 8.629363-8.635083 12.943359-12.955078 4.886995-4.889995 9.773208-9.78088 14.658203-14.671875 1.417999-1.419999 1.419999-2.980392 0-4.400391l-12.392578-12.4003905c-0.713499-0.71349929-1.455391-1.0701875-2.197266-1.0703125zm119.722661 16.816406v0.001953h-1.26172c-0.08 0.011-0.16119 0.02625-0.24219 0.03125-0.493 0.03-0.98647 0.047938-1.48047 0.085938a22.59 22.59 0 0 0-4.58008 0.84375c-4.91299 1.426998-8.72086 4.379301-11.63086 8.529297-2.48699 3.546996-3.61603 7.548942-3.83203 11.835937a25.67 25.67 0 0 0 0.40039 6.070313c0.336 1.773998 0.84171 3.497626 1.59571 5.140625 1.48199 3.234997 3.65664 5.928721 6.43164 8.136719 3.51699 2.798997 7.57549 4.17214 12.02148 4.49414 0.37 0.028 0.74228 0.053078 1.11328 0.080078h1.70899c0.066-0.011 0.13031-0.030203 0.19531-0.033203 1.452-0.044 2.88564-0.233203 4.30664-0.533203 3.84-0.814999 7.18121-2.571675 10.0332-5.263672 1.778-1.679998 3.27293-3.57819 4.41992-5.742187 1.644-3.101997 2.41455-6.433926 2.56055-9.919922 0.091-2.172998-0.05958-4.330846-0.51758-6.464844-0.375-1.738998-0.91631-3.422392-1.69531-5.025391-1.06-2.183997-2.46692-4.119658-4.16992-5.847656-1.569-1.589998-3.3266-2.924079-5.30859-3.955078-2.775-1.441999-5.74652-2.171766-8.85352-2.384766-0.405-0.03-0.81084-0.054078-1.21484-0.080078zm-59.17774 0.53125c-0.534998 0-0.730468 0.198282-0.730468 0.738282v42.822265c9e-3 0.4 0.218235 0.623 0.615238 0.625a755.42 755.42 0 0 0 4.70117 0c0.41-2e-3 0.61791-0.224766 0.6289-0.634765 2e-3 -0.055 0-0.10811 0-0.16211 0-4.476995 0.00205-8.953739-0.00195-13.427734a0.448 0.448 0 0 1 0.16016-0.365235c0.887-0.818999 1.76939-1.643797 2.65039-2.466797l4.79687-4.488281 0.71485-0.664062c0.028 0.033 0.0465 0.052219 0.0625 0.074219l5.91797 7.882812c3.47299 4.629995 6.94806 9.25863 10.41406 13.890625a0.85 0.85 0 0 0 0.74219 0.365234c1.83799-2e-3 3.67567-0.001953 5.51367-0.001953 0.109 0 0.21622 0.005047 0.32422-0.001953 0.235-0.012 0.44473-0.0845 0.55273-0.3125 0.105-0.227 0.04158-0.426094-0.10742-0.621094-1.995-2.644997-3.98457-5.293409-5.97656-7.941406l-6.09961-8.103515-4.74219-6.302735-2.24219-2.980469c1.083-1.020999 2.14889-2.022298 3.21289-3.029296 1.597-1.505999 3.19302-3.014486 4.79102-4.521485 1.557-1.470998 3.11773-2.939204 4.67773-4.408203 1.124-1.060999 2.25-2.119689 3.375-3.179688 0.636-0.599999 1.2693-1.203641 1.9043-1.80664 0.161-0.154 0.25055-0.3325 0.18555-0.5625-0.079-0.28-0.29107-0.416016-0.66407-0.416016h-6.57226a0.89 0.89 0 0 0-0.63672 0.25586c-0.873 0.823999-1.75095 1.642844-2.62695 2.464843l-6.22852 5.84375-7.43555 6.966797c-1.89099 1.771998-3.77797 3.544408-5.66796 5.316406-0.318 0.3-0.63915 0.596735-0.99415 0.927735v-20.955078c1e-5 -0.061 3e-3 -0.122594 0-0.183594-0.01799-0.412-0.22076-0.616719-0.63476-0.636719-0.095-3e-3 -0.19016 0-0.28516 0h-4.29492zm88.3457 0c-0.399 0.023-0.60332 0.232766-0.61132 0.634766v0.183594 21.28125 21.341796a1.938 1.938 0 0 0 0.03125 0.341797 0.44 0.44 0 0 0 0.39062 0.382813c0.099 0.014 0.20274 0.021484 0.30274 0.021484 5.89499 1e-3 11.78864-0.004093 17.68164 0.003906a21.1 21.1 0 0 0 5.00976-0.574218c3.817-0.923999 7.07391-2.811597 9.75391-5.683594 1.748-1.869998 3.13551-3.978565 4.10351-6.351562 1.159-2.842998 1.69086-5.81305 1.75586-8.873047 0.047-2.276998-0.1675-4.527003-0.6875-6.75-0.901-3.860997-2.736-7.209878-5.5-10.046875a18.894 18.894 0 0 0-5.86914-4.123047c-2.55599-1.141999-5.2313-1.769297-8.02929-1.779297-6.084-0.024-12.16696-0.009766-18.25196-0.009766h-0.08008zm46.03907 0c-0.556 0-0.74805 0.192235-0.74805 0.740235v42.724609c0 0.527999 0.1918 0.722656 0.7168 0.722656h4.47851c0.457 0 0.58396-0.080375 0.75196-0.484375v-43.177734c-0.057-0.12-0.08665-0.287656-0.18165-0.347656-0.15799-0.097-0.35796-0.168922-0.54296-0.169922-1.491-0.014-2.98261-0.007813-4.47461-0.007813zm-75.8711 5.296875c0.40121-1.09e-4 0.80453 0.01125 1.20703 0.03125 2.945 0.146 5.70579 0.900783 8.17579 2.550781 3.29899 2.207998 5.44709 5.258036 6.49609 9.082032 0.335 1.224999 0.50117 2.478142 0.57617 3.74414 0.07 1.166999 0.05817 2.333095-0.04883 3.496094-0.311 3.397997-1.45806 6.461612-3.66406 9.09961-2.16 2.584997-4.87653 4.280891-8.14453 5.08789-1.5 0.371-3.02938 0.499719-4.60938 0.511719-1.96299-0.021-3.93189-0.240673-5.83789-0.888672a15.101 15.101 0 0 1-6.26367-4.054687c-1.985-2.126998-3.25667-4.625128-3.88867-7.453126-0.348-1.565998-0.4615-3.15872-0.4375-4.761718 0.029-2.063998 0.30881-4.087065 1.00781-6.039063a15.589 15.589 0 0 1 4.47461-6.583984c2.127-1.861998 4.59419-3.006766 7.36719-3.509766 1.19025-0.21675 2.38623-0.312172 3.58984-0.3125zm35.17188 0.394531h0.2207c4.238 1e-3 8.4788-0.012187 12.7168 0.007813 2.722 0.013 5.24619 0.742548 7.49219 2.310547 1.87599 1.309999 3.3387 3.00633 4.4707 4.986328a16.427 16.427 0 0 1 1.98437 5.71875 22.66 22.66 0 0 1 0.18164 5.167969c-0.145 1.898998-0.54043 3.733189-1.27343 5.492187a16.208 16.208 0 0 1-2.80469 4.496094c-1.268 1.445999-2.7421 2.61597-4.49609 3.417969a12.39 12.39 0 0 1-4.21485 1.123047c-0.708 0.054-1.42086 0.082937-2.13086 0.085937-3.96099 7e-3 -7.92281 0.001953-11.88281 0.001953h-0.26172-0.00195v-32.808594zm-130.429689 0.783204c-0.734875 2.5e-4 -1.469532 0.339125-2.144532 1.015625-4.153995 4.155995-8.308941 8.31266-12.460937 12.472656-1.409999 1.410998-1.410905 2.94847-0.003906 4.355469 4.127995 4.134995 8.259629 8.269348 12.390625 12.402343 1.446998 1.449999 2.988642 1.453765 4.43164 0.009766 4.001996-4.003996 7.99977-8.015723 12.009766-12.011719 0.598999-0.596999 1.15611-1.202297 1.412109-2.029297v-1.085937c-0.251999-0.828999-0.809203-1.437204-1.408203-2.033203-4.033996-4.020996-8.055035-8.054036-12.082031-12.082031-0.675499-0.6755-1.409657-1.013922-2.144531-1.013672zm-49.66211 1.103515c-0.281531 0.044297-0.478844 0.306672-0.683593 0.513672l-12.39453175 12.53125c-0.92499907 0.935999-0.92118657 2.227204 0.0078125 3.158203 2.24199775 2.249998 4.48742415 4.496143 6.73242185 6.744141 1.9409981 1.944998 3.8811734 3.891986 5.8261714 5.833984 0.554 0.553 1.083235 0.462515 1.365235-0.271484a3.445 3.445 0 0 0 0.208984-1.199219c0.015-4.227996 0.009766-8.459504 0.009766-12.6875h-0.003906c0-4.247996 0.001093-8.492285-0.003907-12.738281 0-0.278-0.030312-0.558985-0.070312-0.833985-0.063-0.443999-0.237641-0.843718-0.681641-1.011718-0.11625-0.04375-0.218656-0.053828-0.3125-0.039063zm26.056641 22.521485c-0.737749 0.002125-1.477016 0.34711-2.166016 1.037109-4.141996 4.142996-8.284785 8.289598-12.425781 12.433594-1.428999 1.429998-1.426139 2.958579 0.005859 4.392578 4.001996 4.006996 8.007004 8.007488 12 12.021484 0.594 0.597 1.190673 1.167688 2.013672 1.429688h1.087891c0.801999-0.226 1.394704-0.748173 1.970703-1.326172 4.026996-4.048996 8.071426-8.084957 12.107422-12.126953 1.416998-1.415999 1.41128-2.976345-0.011719-4.402344l-12.423828-12.433594c-0.684999-0.685499-1.420454-1.027515-2.158203-1.02539z"/></svg>
