<svg enable-background="new 0 0 322.364 102" version="1.1" viewBox="0 0 322.364 102" xmlns="http://www.w3.org/2000/svg"><path d="m204.73047 21.779297c-0.104 0.014-0.20555 0.03306-0.31055 0.03906-0.638 0.039-1.27897 0.06523-1.91797 0.115235-2.01498 0.155-3.99164 0.528797-5.93164 1.091797-6.36298 1.847996-11.2935 5.670933-15.0625 11.044921-3.22098 4.593992-4.68295 9.776136-4.96093 15.328126-0.132 2.635994 0.0246 5.262332 0.51757 7.861328 0.435 2.298994 1.08846 4.529207 2.06446 6.658203 1.92098 4.187992 4.73312 7.677115 8.32812 10.537109 4.555 3.622994 9.81133 5.403313 15.57031 5.820313 0.48 0.036 0.96041 0.06852 1.44141 0.103515h2.21289c0.085-0.015 0.16791-0.03802 0.25391-0.04102 1.87998-0.06 3.73617-0.30436 5.57617-0.69336 4.97198-1.053998 9.29919-3.329412 12.99219-6.816406 2.30398-2.174996 4.23961-4.633553 5.72461-7.435547 2.12798-4.016992 3.12836-8.331713 3.31836-12.845703 0.11698-2.813994-0.0798-5.611053-0.67383-8.373047-0.485-2.252996-1.18341-4.43377-2.19141-6.509766-1.374-2.828994-3.19736-5.335269-5.40234-7.572265-2.032-2.059996-4.30802-3.786096-6.875-5.121094-3.595-1.866996-7.4418-2.811844-11.4668-3.089844-0.524-0.037-1.04827-0.06856-1.57227-0.101562zm51.33203 0.679687c-3.93912 1e-3 -7.87836 0.0064-11.81836 0.0059-0.034 0-0.0705-4.7e-5 -0.10547 2e-3 -0.516 0.03-0.77806 0.300314-0.78906 0.820312-1e-3 0.079 0 0.158282 0 0.238282v27.560547c0 9.21298-5e-5 18.424691 2e-3 27.638671 0 0.147 0.0101 0.29736 0.0371 0.44336 0.05 0.279998 0.22581 0.44814 0.50781 0.49414 0.128 0.02 0.25963 0.0293 0.39063 0.0293 7.63398 1e-3 15.26644-0.0061 22.89844 0.0059 2.19498 2e-3 4.35528-0.228143 6.48828-0.744141 4.94298-1.197998 9.16081-3.642336 12.63281-7.361328 2.263-2.422996 4.0585-5.152569 5.3125-8.226563 1.502-3.680992 2.1895-7.526289 2.27148-11.488281 0.061-2.949994-0.21567-5.865145-0.88867-8.744141-1.168-4.999989-3.54506-9.337726-7.12304-13.011718-2.195-2.257996-4.72357-4.050893-7.60157-5.337891-3.30698-1.477996-6.77248-2.293641-10.39648-2.306641-3.9395-0.0155-7.87924-0.01858-11.81836-0.01758zm-120.77148 0.0059c-1.853 0-3.7056 9.53e-4 -5.5586 2e-3 -0.694 0-0.94726 0.254127-0.94726 0.953125v55.27734c0 0.061-1e-3 0.125548 0 0.185546 0.01 0.516 0.28187 0.804641 0.79687 0.806641 2.029 5e-3 4.05694 8e-3 6.08594 0 0.531-2e-3 0.80141-0.291267 0.81641-0.822265 2e-3 -0.071 0-0.140938 0-0.210938 0-5.795988 1e-3 -11.592684-4e-3 -17.388672 0-0.202 0.061-0.338609 0.20898-0.474609 1.148-1.058998 2.28964-2.127362 3.43164-3.19336 2.071-1.937996 4.14091-3.876504 6.21289-5.8125 0.307-0.284998 0.61579-0.570375 0.92579-0.859375 0.036 0.043 0.0601 0.0667 0.0801 0.0957 2.556 3.402992 5.11202 6.80599 7.66602 10.208984 4.49798 5.994988 8.99539 11.98734 13.48437 17.986328 0.255 0.339 0.55199 0.475609 0.95899 0.474609 2.38-5e-3 4.76064-2e-3 7.14062-2e-3 0.141 0 0.28288 6e-3 0.42188-2e-3 0.305-0.018 0.57389-0.112203 0.71289-0.408203 0.137-0.292 0.0553-0.550736-0.13672-0.802734-2.583-3.425994-5.16025-6.85421-7.74023-10.283204-2.634-3.497992-5.26544-6.996101-7.89844-10.496093-2.047-2.721996-4.09463-5.442114-6.14063-8.16211-0.965-1.282996-1.93125-2.565377-2.90625-3.859375 1.403-1.319996 2.78597-2.618924 4.16797-3.919922 2.069-1.950996 4.13413-3.905425 6.20313-5.857421 2.017-1.905996 4.0347-3.807942 6.05468-5.710938 1.456-1.372998 2.91705-2.744191 4.37305-4.117187 0.823-0.777 1.6448-1.556893 2.4668-2.337891 0.209-0.199 0.32328-0.429516 0.23828-0.728516-0.102-0.360998-0.37442-0.537109-0.85742-0.537109-2.837-1e-3 -5.67572-9.53e-4 -8.51172-2e-3 -0.323 0-0.59213 0.109031-0.82813 0.332031-1.12998 1.065998-2.26639 2.125455-3.40039 3.189453-2.68898 2.522996-5.37836 5.047317-8.06836 7.570313-3.20998 3.007994-6.41992 6.01449-9.6289 9.021484-2.448 2.293996-4.89189 4.58977-7.33789 6.884766-0.413 0.387998-0.82908 0.774125-1.28906 1.203125v-27.142516c-1e-5 -0.078 4e-3 -0.156329 0-0.236329-0.024-0.533998-0.28722-0.797265-0.82422-0.822265-0.123-5e-3 -0.24714-2e-3 -0.36914-2e-3zm168.47265 0c-0.72 0-0.9707 0.248986-0.9707 0.958984v55.330078c0 0.685 0.25164 0.935547 0.93164 0.935547 1.933 1e-3 3.86489 0 5.79687 0 0.592 0 0.75566-0.105908 0.97266-0.628906h2e-3v-55.912149c-0.075-0.156-0.11137-0.374172-0.23437-0.451172-0.204-0.126-0.46413-0.220657-0.70313-0.222657-1.92998-0.017-3.86292-0.0098-5.79492-0.0098zm-98.25586 6.859375c0.51956-2.97e-4 1.04125 0.01356 1.5625 0.03906 3.814 0.189 7.38894 1.168692 10.58594 3.304688 4.273 2.858994 7.05506 6.809727 8.41406 11.761719 0.435 1.585996 0.65005 3.208658 0.74805 4.847656 0.09 1.510996 0.0735 3.021346-0.0645 4.527344-0.402 4.40099-1.88816 8.371115-4.74414 11.787109-2.797 3.347994-6.31588 5.542893-10.54688 6.587891-1.943 0.480998-3.92566 0.647062-5.97266 0.664062-2.54198-0.027-5.09059-0.312252-7.55859-1.15625-3.143-1.070998-5.84233-2.820004-8.11133-5.25-2.56998-2.755994-4.21615-5.988397-5.03515-9.650391-0.452-2.027996-0.59741-4.090972-0.56641-6.167968 0.037-2.672996 0.39969-5.291317 1.30469-7.820313 1.194-3.341994 3.12297-6.183443 5.79297-8.523437 2.75398-2.411996 5.94903-3.894877 9.54101-4.546875 1.54125-0.27975 3.09171-0.403407 4.65039-0.404297zm45.54883 0.513672h0.28516c5.48898 1e-3 10.97681-0.01623 16.46679 0.0098 3.526 0.017 6.79413 0.961192 9.70313 2.992188 2.43 1.695996 4.32306 3.893037 5.78906 6.457031 1.319 2.305996 2.17227 4.780301 2.57227 7.404297 0.338 2.220996 0.40737 4.452318 0.23437 6.695312-0.188 2.457996-0.69944 4.835286-1.64844 7.113282-0.89098 2.138994-2.10081 4.078269-3.63281 5.822265-1.643 1.870996-3.55128 3.385785-5.82226 4.425781-1.738 0.795-3.55299 1.299219-5.45899 1.449219-0.917 0.071-1.84172 0.109328-2.76172 0.111328-5.12898 0.01-10.25672 0.0059-15.38672 0.0059h-0.33984z" fill="#070308"/><path d="m51.322266 0c-0.961124-2.4999975e-4 -1.923158 0.46221967-2.847657 1.3867188-3.932996 3.934996-7.862925 7.8706445-11.794921 11.8066402-0.994 0.995999-1.936095 2.053704-2.996094 2.970703-1.319999 1.138999-1.732031 2.487846-1.707032 4.214844 0.089 5.967994 0.035157 11.935303 0.035157 17.904297 0 6.201994-0.002094 12.406381 0.003906 18.609375 0 0.464 0.010953 0.944672 0.126953 1.388672 0.376 1.435999 1.293126 1.677624 2.328125 0.640625 5.587995-5.591994 11.174724-11.185302 16.761719-16.779297 6.326994-6.331994 12.657428-12.664053 18.982422-18.998047 1.836998-1.838998 1.837998-3.861173 0-5.701172-5.348995-5.352994-10.696881-10.7036925-16.046875-16.0546871-0.923999-0.9244991-1.884579-1.3884219-2.845703-1.3886719zm30.824218 30.851562c-0.951749 3.75e-4 -1.904297 0.440408-2.779296 1.316407-5.378995 5.381994-10.757772 10.764396-16.134766 16.15039-1.825998 1.827999-1.825905 3.81958-0.003906 5.642579 5.345994 5.353994 10.695927 10.707552 16.044922 16.060546 1.874998 1.876998 3.871283 1.879717 5.738281 0.011719 5.182995-5.185995 10.358739-10.378693 15.552731-15.554687 0.775-0.773 1.50008-1.556908 1.83008-2.628907v-1.40625c-0.326-1.071999-1.04922-1.860813-1.82422-2.632812-5.223992-5.206995-10.429534-10.43049-15.644529-15.646485-0.874999-0.875499-1.827548-1.312874-2.779297-1.3125zm-64.125 1.425782c-0.47187-0.05436-0.764469 0.355594-1.074218 0.667968-5.351995 5.408995-10.7037401 10.818522-16.05273475 16.228516-1.1969988 1.211999-1.19223317 2.883845 0.00976563 4.089844 2.90499712 2.911997 5.81275292 5.823378 8.71875002 8.734375 2.5139971 2.517997 5.0259241 5.04069 7.5449221 7.554687 0.717999 0.716 1.404531 0.598437 1.769531-0.351562 0.186-0.483 0.267531-1.034688 0.269531-1.554688 0.02-5.476994 0.013672-10.954646 0.013672-16.43164h-0.005859c0-5.499995 0.001093-10.997099-0.003906-16.496094 0-0.359-0.039797-0.722125-0.091797-1.078125-0.081-0.573999-0.307813-1.093547-0.882813-1.310547-0.07525-0.028375-0.147434-0.044969-0.214844-0.052734zm33.554688 29.167968c-0.955624 0.002875-1.913189 0.449798-2.804688 1.341797-5.365994 5.366995-10.728802 10.736521-16.091796 16.103516-1.849999 1.852998-1.848139 3.832455 0.005859 5.689453 5.182995 5.188995 10.370974 10.369365 15.542969 15.568362 0.768999 0.773 1.540423 1.51061 2.607422 1.84961l1.408203 0.00195c1.039999-0.294 1.808688-0.96875 2.554687-1.71875 5.215995-5.243995 10.45074-10.471083 15.677734-15.705078 1.833999-1.834998 1.828327-3.854221-0.013671-5.699219-5.361995-5.368995-10.725849-10.739474-16.089844-16.105469-0.886999-0.887499-1.841251-1.329046-2.796875-1.326172z" fill="#36a2cd"/></svg>
