<svg width="1897.0583" height="456.54465" enable-background="new 0 0 1897.282 456.502" version="1.0" viewBox="0 0 1897.0403 456.54665" xml:space="preserve" xmlns="http://www.w3.org/2000/svg">
<path d="m1514.9248 14.52322c-2.6755-0.02875-5.3623 0.957312-7.4298 2.96681l-35.5001 34.500151c-2.013 1.955998-3.1626 4.652067-3.1836 7.457064-0.022 2.805997 1.0902 5.515082 3.0762 7.49808l35.4982 35.502115-0.07-6e-3c1.9 1.96999 4.6 3.07009 7.5 3.08009h0.033c2.805-0.011 5.4715-1.12892 7.4395-3.12892l34.5001-35.000158c4.026-4.084996 4.026-10.659256 0-14.742252l-34.5002-35.000013c-2.0235-2.053498-4.6878-3.098217-7.3633-3.126967zm-0.3535 25.295033 19.9141 20.20126-19.8087 20.099697-20.4903-20.492277h-0.016zm-766.26118 32.142719c-2.76399 0-5.46981 1.120187-7.42581 3.076185-1.956 1.954998-3.07619 4.658816-3.07619 7.425814v25.513789c0 2.76399 1.12019 5.46981 3.07619 7.42581 1.955 1.955 4.66082 3.07423 7.42581 3.07423h83.99842v210.99897h-43.49824v-13.49615c0-2.768-1.12214-5.46981-3.07814-7.42581-1.955-1.955-4.65886-3.07619-7.42386-3.07619h-76.00033v-36.00211l76.00033 2e-3c2.764 0 5.46786-1.11818 7.42386-3.07618 1.956-1.956 3.07814-4.65886 3.07814-7.42386v-23.49815c0-2.767-1.12214-5.47082-3.07814-7.42581-1.955-1.955-4.65886-3.07619-7.42386-3.07619h-76.50033v-32.50014h77.00229c2.76499 0 5.46591-1.12119 7.4219-3.07619 1.955-1.953 3.07619-4.65691 3.07619-7.42191v-24.00205c0-2.765-1.12119-5.46891-3.07619-7.42191-1.95599-1.956-4.65691-3.07814-7.4219-3.07814h-112.5005c-2.76699 0-5.46786 1.12214-7.42386 3.07814-1.956 1.953-3.07814 4.65691-3.07814 7.42191v171.50075c-18.19598-1e-3 -53.89929-5e-5 -56.49829 2e-3 -0.018 0-0.0357-9.5e-4 -0.0527-2e-3 -0.32999-0.211-0.80883-0.5246-1.42383-0.9336-0.3-0.416-0.7196-1.01199-1.1836-1.70899-3.37399-5.014-9.94119-15.721-17.66219-28.63099-11.61598-19.41198-26.02189-44.04789-37.51188-63.80887-4.12099-7.08499-7.86466-13.54506-10.97466-18.91805h73.80892c2.764 0 5.46891-1.12124 7.42191-3.07423 1.956-1.955 3.07618-4.65887 3.07618-7.42386v-121.000588c0-2.763997-1.12018-5.469815-3.07618-7.425813-1.953-1.954998-4.65691-3.074233-7.42191-3.074233h-120.50057c-5.76799 0-10.46609 4.671505-10.49809 10.439499l-1.44141 245.620215c-7.96899 0.048-19.5647 0.11751-31.31069 0.18751-21.03597 0.124-42.61624 0.25-44.24824 0.25-1.72099-0.013-2.70895-0.49332-3.46095-0.94532-0.357-0.223-0.60999-0.44216-0.70899-0.53516l-76.74447-92.7133c-3.698-4.46899-10.31528-5.09348-14.78327-1.39649-4.46754 3.69462-5.09126 10.31529-1.39454 14.78327v2e-3l76.87729 92.87345c0.619 0.745 2.37686 2.73607 5.54885 4.74807 3.31 2.10999 8.38314 4.19566 14.66413 4.18166 3.627 0 86.03288-0.50001 86.06288-0.50001 5.73499-0.036 10.40354-4.7045 10.43754-10.4395l1.43751-245.559668h99.57856v100.000398l-81.4984 2e-3c-3.75 0-7.21289 1.99621-9.08989 5.24221-1.877 3.24799-1.88081 7.24509-8e-3 10.49809 9e-3 0.011 18.5147 32.15063 37.60368 64.6956 9.54599 16.27598 19.23259 32.64642 26.85559 45.19941 3.81399 6.281 7.10339 11.59695 9.65238 15.54695 1.278 1.97999 2.36347 3.60838 3.31447 4.94338 0.484 0.675 0.92255 1.26849 1.43555 1.89649 0.264 0.317 0.53774 0.64388 0.92774 1.04688 0.415 0.408 0.84239 0.88302 1.98439 1.66602 2.18899 1.421 3.50862 2.48544 6.18362 3.73244 1.314 0.596 2.93806 1.07421 4.37306 1.28321 1.447 0.22 2.65355 0.24109 3.76955 0.24609h66.99834c2.765 0 5.46786-1.11818 7.42386-3.07618 1.955-1.956 3.07619-4.65691 3.07619-7.42191v-171.50079h91.5004v3.00197h-77.00034c-2.764 0-5.46981 1.12018-7.42581 3.07618-1.955 1.955-3.07424 4.65886-3.07424 7.42386v53.50024c0 2.76499 1.11924 5.46981 3.07424 7.42581 1.955 1.953 4.66081 3.07423 7.42581 3.07423h76.50034v2.49806l-76.00034 2e-3c-2.76499 0-5.46981 1.11824-7.42581 3.07424-1.953 1.95499-3.07423 4.65781-3.07423 7.42581v57.00025c0 2.765 1.12214 5.47086 3.07814 7.42386 1.95299 1.955 4.65691 3.07228 7.4219 3.07228h76.00034v13.50396c0 2.765 1.12018 5.46887 3.07618 7.42386 1.955 1.956 4.65691 3.07424 7.42191 3.07424h64.50419c2.76499 0 5.47086-1.11819 7.42386-3.07619 1.955-1.956 3.07618-4.65691 3.07618-7.42191v-232.00106c0-2.764-1.12118-5.46787-3.07618-7.42386-1.953-1.953004-4.65887-3.074239-7.42386-3.074239h-84.00037v-4.500019h195.42078v4.500019h-85.49647c-2.767 0-5.46982 1.121235-7.42581 3.074239-1.955 1.95499-3.07619 4.65886-3.07619 7.42386v232.04008c0 2.76499 1.12019 5.46786 3.07619 7.42386 1.95499 1.955 4.65881 3.07618 7.42581 3.07618h63.99833c2.76499 0 5.47086-1.12118 7.42386-3.07618 1.955-1.956 3.07618-4.65887 3.07618-7.42386v-169.9988h87.99841v73.49837h-68.99832c-4.118 0-7.86255 2.41214-9.56255 6.16214-1.70099 3.748-1.05378 8.15401 1.65821 11.252 3e-3 4e-3 17.44877 19.94539 35.30875 40.24237 8.92899 10.14799 17.96051 20.38261 24.98051 28.2716 3.509 3.947 6.5155 7.30302 8.7735 9.79302 1.13 1.24699 2.0703 2.27118 2.8223 3.07618 0.38 0.405 0.7114 0.75323 1.0234 1.07422 0.343 0.341 0.5415 0.56296 1.1895 1.12696 3.716 3.207 8.0974 5.21497 12.1114 6.08597 4.032 0.896 7.5604 0.90102 10.6914 0.91602h111.5005c2.765 0 5.4659-1.12124 7.4219-3.07424 1.955-1.95599 3.0762-4.66081 3.0762-7.42581v-36.00016c0-2.76499-1.1182-5.47081-3.0742-7.42581-1.955-1.955-4.6589-3.07423-7.4239-3.07423h-45.5022v-125.4986h124.0006v125.4986l-47.5002 2e-3c-2.767 0-5.4689 1.11923-7.4239 3.07423-1.956 1.955-3.0762 4.66082-3.0762 7.42582v36.00015c0 2.765 1.1202 5.46982 3.0762 7.42582 1.955 1.955 4.6569 3.07423 7.4239 3.07423h122.5005c2.765 0 5.4689-1.12123 7.4219-3.07423 1.955-1.956 3.0762-4.66082 3.0762-7.42582v-246.501129h101.5005v99.500439h-81.9985c-2.7669 0-5.4688 1.12019-7.4238 3.07619-1.955 1.95499-3.0762 4.66081-3.0762 7.42581v135.49864c0 2.765 1.1212 5.47082 3.0762 7.42581 1.955 1.956 4.6569 3.07424 7.4238 3.07424h157.5007c2.765 0 5.4689-1.12119 7.4239-3.07619 1.956-1.956 3.0723-4.65886 3.0723-7.42386v-189.49888h4.5v189.49888c0 2.765 1.1212 5.47082 3.0742 7.42581 1.955 1.956 4.6608 3.07424 7.4258 3.07424h64.5003c2.765 0 5.4689-1.12119 7.4239-3.07619 1.956-1.956 3.0742-4.65886 3.0742-7.42386v-169.49879h90.0004v1.99806l-74.9984 2e-3c-2.765 0-5.4708 1.11823-7.4258 3.07423-1.953 1.955-3.0742 4.66082-3.0742 7.42581v53.99829c0 2.765 1.1212 5.47081 3.0742 7.42581 1.955 1.955 4.6608 3.07423 7.4258 3.07423h77.0004v1.99806l-75.0004 2e-3c-2.7669 0-5.4688 1.11924-7.4238 3.07424-1.955 1.95499-3.0762 4.66081-3.0762 7.42581v57.00025c0 2.765 1.1212 5.47081 3.0762 7.42581 1.955 1.953 4.6569 3.07423 7.4238 3.07423h74.0004v12.50006c0 2.765 1.1192 5.47082 3.0742 7.42581 1.953 1.956 4.6589 3.07424 7.4239 3.07424h85.0003c1.992 0 3.1548 0.21125 3.8028 0.40625 0.935 0.33 1.1233 0.3939 2.3633 1.58789 1.179 1.174 2.9741 3.5658 5.4941 6.8848 1.813 2.368 6.9662 8.81207 13.9142 17.45906 20.7663 25.83219 56.7656 70.26214 56.7678 70.26984 2.0967 2.51961 5.0566 3.83205 8.2246 3.83205 2.322 0 4.6605-0.76681 6.6055-2.34181 4.505-3.65099 5.1979-10.2626 1.5489-14.76959-0.011-0.014-3.9997-4.93572-10.0997-12.47272-9.15-11.30598-23.0288-28.46509-35.2247-43.58808-6.098-7.56099-11.7738-14.61411-16.2228-20.1661-4.433-5.529-7.7125-9.65302-8.7715-11.04302-3.15-4.02299-5.6378-7.91419-10.3008-11.61919-2.313-1.803-5.1864-3.33339-8.2794-4.23439-3.104-0.917-6.3367-1.26459-9.7617-1.26759-3.485 0-52.5394 9.6e-4 -74.5003 2e-3v-12.50006c0-2.767-1.1193-5.47081-3.0743-7.42581-1.956-1.956-4.6608-3.07423-7.4258-3.07423h-74.0023v-36.00016h75.0043c2.765 0 5.4669-1.12124 7.4219-3.07423 1.956-1.956 3.0762-4.66082 3.0762-7.42582v-23.0001c0-2.765-1.1193-5.46981-3.0723-7.42581-1.956-1.955-4.6608-3.07423-7.4258-3.07423h-77.0023v-33.00029h75.0003c2.765 0 5.4708-1.12123 7.4258-3.07423 1.956-1.955 3.0743-4.66082 3.0743-7.42582v-23.0001c0-2.76399-1.1183-5.46786-3.0743-7.42386-1.955-1.95499-4.6608-3.07423-7.4258-3.07423h-110.9983c-2.767 0-5.4698 1.11924-7.4258 3.07423-1.955 1.955-3.0762 4.65887-3.0762 7.42386v169.50075h-43.5002v-189.50083c0-2.765-1.1182-5.46691-3.0742-7.42191-1.955-1.956-4.6609-3.07619-7.4259-3.07619h-25.4981c-2.767 0-5.4708 1.12019-7.4258 3.07619-1.955 1.953-3.0762 4.65691-3.0762 7.42191v189.50083h-136.4987v-114.50051h82.0004c2.765 0 5.4708-1.12118 7.4258-3.07618 1.956-1.953 3.0742-4.65691 3.0742-7.42191v-120.500529c0-2.763997-1.1182-5.467863-3.0742-7.423861-1.955-1.954998-4.6608-3.074232-7.4258-3.074232h-122.4986c-2.765 0-5.4698 1.118234-7.4258 3.074232-1.955 1.954998-3.0742 4.658864-3.0742 7.423861v246.501079h-101.5005v-15.00006h47.5022c2.765 0 5.4688-1.12124 7.4238-3.07423 1.956-1.956 3.0762-4.66082 3.0762-7.42582v-146.50064c0-2.767-1.1202-5.46786-3.0762-7.42386-1.953-1.955-4.6588-3.07619-7.4238-3.07619h-144.9987c-2.765 0-5.4709 1.12019-7.4239 3.07619-1.956 1.955-3.0761 4.65686-3.0761 7.42386v146.50064c0 2.765 1.1201 5.46982 3.0761 7.42582 1.953 1.95299 4.6589 3.07423 7.4239 3.07423h45.5022v15.00006c-26.833-1e-3 -96.1695-4e-5 -101.0005 2e-3 -2.871 0.012-4.8406-0.10744-6.0586-0.39844-1.18-0.303-1.8007-0.53581-2.9727-1.46681-0.209-0.216-0.6366-0.66394-1.1406-1.21094-5.625-6.06999-23.4937-26.30062-39.7717-44.8166-5.66192-6.44099-11.14844-12.69051-15.89844-18.1075h56.34204c2.765 0 5.4708-1.12119 7.4238-3.07619 1.955-1.955 3.0762-4.65886 3.0762-7.42386v-94.50041c0-2.764-1.1192-5.46786-3.0742-7.42386-1.955-1.955-4.6608-3.07619-7.4258-3.07619h-108.99852c-2.76399 0-5.46981 1.12019-7.42581 3.07619-1.955 1.955-3.07619 4.65886-3.07619 7.42386v170.0007h-43.00018v-210.99897h85.49842c2.76499 0 5.47081-1.12119 7.42581-3.07618 1.956-1.955 3.07423-4.66082 3.07423-7.42582v-25.498159c0-2.766998-1.11823-5.470816-3.07423-7.425814-1.955-1.955998-4.66082-3.076185-7.42581-3.076185z" fill="#fee600"/><path d="m1514.7822 9.025149c-4.001-7e-3 -8.0525 1.51346-11.1465 4.523457l-35.5022 34.500151c-3.0309 2.948997-4.7667 6.966601-4.8437 11.185596-0.01 0.084-0.012 0.152126-0.012 0.203126v0.105469c0.01 4.235996 1.6904 8.296928 4.6894 11.296925l35.5002 35.490397v2e-3c3 3.002 7.0774 4.68757 11.3184 4.68557l0.09 6e-3c4.2568-0.027 8.3271-1.74109 11.3048-4.77151l34.4982-34.99625c3.059-3.102997 4.6116-7.192475 4.6016-11.232471 0.01-4.039996-1.5406-8.131474-4.6016-11.232471l-34.5002-35.002106c-3.119-3.164997-7.2815-4.769693-11.3965-4.763693zm0.094 101.998501c-0.018 1.1e-4 -0.035 2e-3 -0.053 2e-3h0.1zm-0.096-91.008219c1.311 7e-3 2.5706 0.487242 3.5626 1.490241l34.4982 35.000154c0.9659 0.981999 1.4375 2.218782 1.4375 3.509781-0.01 1.285998-0.4716 2.525735-1.4375 3.511734l-34.5002 34.9982c-0.9419 0.953815-2.177 1.473808-3.5215 1.490239-1.3888-6e-3 -2.5824-0.517773-3.5762-1.466801l-35.4962-35.500156c-0.91-0.903999-1.4408-2.152751-1.4668-3.427749v-0.142579c0.01-1.327999 0.5636-2.629798 1.5156-3.550797l35.5022-34.500151c0.981-0.951999 2.2084-1.408116 3.4804-1.412116zm-0.1386 12.052788-28.3009 27.502073 3.9453 3.94533h-0.092l24.5001 24.40831 27.5021-27.904419zm-0.1153 15.498114 12.2755 12.45318-12.0802 12.25396-12.6621-12.589899zm-766.47985 18.994224c-4.254 9e-3 -8.30151 1.689477-11.3145 4.689474-2.998 3.007997-4.68048 7.058554-4.68948 11.31255v25.504019c9e-3 4.252 1.69148 8.30051 4.68948 11.3145 3.01599 3 7.0645 4.67357 11.3145 4.68557h78.49644v200.00088h-32.49624v-8.00004c-9e-3 -4.25299-1.69252-8.30355-4.68752-11.31255-3.014-2.99999-7.06446-4.67947-11.31646-4.68947h-70.49835v-25.00206h70.50031c4.24699-8e-3 8.30046-1.68248 11.31645-4.68948 2.993-3.00699 4.67552-7.05769 4.68752-11.30669l-2e-3 -23.50205c-9e-3 -4.253-1.68948-8.30356-4.68947-11.31255-3.011-3-7.06056-4.67852-11.31255-4.68752h-70.99836v-21.5001h71.50031c4.252-9e-3 8.3016-1.68952 11.3106-4.68752 3-3.00999 4.68047-7.06055 4.68947-11.31255v-24.0001c-9e-3 -4.251-1.68947-8.30351-4.68947-11.31451-3.009-2.99599-7.0586-4.67656-11.3106-4.68556h-112.50044c-4.254 9e-3 -8.30355 1.68947-11.31255 4.68947-3 3.01-4.68047 7.0586-4.68947 11.3106v165.94994c-3.676-1e-3 -7.74084 0-11.92584 0-14.84898 0-31.20656 2e-3 -37.02555 4e-3 -0.042-0.062-0.0849-0.12645-0.12695-0.18945-3.245-4.816-9.83153-15.54539-17.52352-28.40638-11.59299-19.37498-25.99178-44.0013-37.47477-63.75028-2.181-3.74899-4.25458-7.32239-6.18557-10.65239h64.26395c4.25199-0.012 8.2996-1.68757 11.31059-4.68557 3-3.01399 4.67853-7.06446 4.68753-11.31645v-121.000625c-9e-3 -4.251996-1.68753-8.300506-4.68753-11.314503-3.00899-2.999997-7.0606-4.67652-11.31059-4.68752h-120.50053c-8.79999 9e-3 -15.94007 7.106281-16.00007 15.908273l-1.40821 240.188555c-7.38399 0.045-16.58312 0.0992-25.87511 0.15625-21.02198 0.123-42.64404 0.25-44.21504 0.25-0.235-0.025-0.33777-0.0292-0.38477-0.0332l-76.29135-92.16837c-3.15599-3.815-7.75209-5.80881-12.33208-5.80081-3.583-5e-3 -7.22932 1.21675-10.19731 3.67775-1.344 1.109-2.45977 2.3968-3.34377 3.8008l-0.043-0.0508v0.11914c-1.59699 2.56799-2.41807 5.51897-2.41407 8.46097-5e-3 3.582 1.2158 7.22632 3.6758 10.19731l9.73637 11.76177 70.9925 85.766 0.50586-0.50586c0.737 0.569 1.56539 1.15529 2.48438 1.73829 4.027 2.559 10.05196 5.02618 17.54696 5.03518h0.0625c1.874 0 23.34032-0.126 44.4123-0.25 10.52899-0.062 20.94656-0.12588 28.73255-0.17188 3.89199-0.024 7.12667-0.0446 9.39066-0.0586 1.131-7e-3 2.02197-0.0116 2.62697-0.0156 0.303 0 0.53536-2e-3 0.69336-2e-3 0.078-2e-3 0.13678-2e-3 0.17578-2e-3h0.0449c8.78799-0.077 15.85399-7.15029 15.91999-15.90828l0.73828-126.05914c3.305 5.73199 19.93462 34.55376 37.0236 63.68973 9.55399 16.28998 19.25152 32.6737 26.90051 45.27168 3.827 6.305 7.13347 11.6489 9.73246 15.6739 1.303 2.02 2.4261 3.70732 3.4551 5.15432 0.516 0.72 1.03726 1.42656 1.65626 2.18556 0.309 0.37399 0.70947 0.84972 1.23047 1.38672l0.0488 0.0527 0.0508 0.0469c0.248 0.255 1.29258 1.32331 2.72657 2.27931l0.0566 0.041 0.0606 0.0371c1.908 1.231 3.67646 2.62644 6.85745 4.10744 1.91 0.855 3.87742 1.43529 5.90042 1.73829 1.808 0.275 3.36708 0.29969 4.53908 0.30469h67.02373c4.247-8e-3 8.29856-1.68448 11.31255-4.68947 2.996-3.009 4.67657-7.05665 4.68557-11.30865v-11.13091c2.736 2.018 6.05305 3.12092 9.50004 3.12892h70.50031v8.00199c9e-3 4.251 1.68952 8.30056 4.68752 11.31255 3.012 3 7.06456 4.67657 11.31255 4.68557h64.73857c4.24599-8e-3 8.30046-1.68243 11.31645-4.69143 0.618-0.621 1.17965-1.28629 1.68165-1.98829 0.504 0.703 1.06751 1.3692 1.68751 1.9922 3.01099 2.998 7.0625 4.68047 11.3145 4.68947h64.00028c4.249-9e-3 8.2996-1.69047 11.3106-4.68947 2.99599-3.012 4.67852-7.0586 4.68752-11.3106v-77.4144c0.432 0.679 0.91704 1.33123 1.45704 1.94923 5e-3 4e-3 17.45057 19.94815 35.31656 40.25213 8.93399 10.15299 17.97106 20.39405 25.00206 28.29504 3.516 3.956 6.5297 7.32008 8.8067 9.83208 1.145 1.264 2.1068 2.30673 2.8848 3.13673 0.403 0.431 0.7528 0.80144 1.0898 1.14844l0.037 0.0391 0.039 0.0391c0.216 0.213 0.6912 0.71515 1.4512 1.36914 4.506 3.874 9.6546 6.23958 14.5586 7.31058 4.667 1.039 8.7162 1.02202 11.8302 1.04102h111.5297c4.252-0.01 8.2997-1.68971 11.3087-4.6797 2.051-2.063 3.4864-4.60623 4.1914-7.36722 0.706 2.75899 2.1375 5.30136 4.1875 7.36136 3.011 2.99999 7.0636 4.67556 11.3126 4.68556h122.5005c4.252-0.01 8.3006-1.68857 11.3126-4.68556 1.779-1.788 3.0931-3.94119 3.8691-6.28519 0.797 1.957 1.981 3.75518 3.5039 5.28518 3.013 3.002 7.0646 4.67657 11.3126 4.68557h157.5007c4.252-9e-3 8.3005-1.69052 11.3125-4.68752 0.519-0.521 0.9976-1.07335 1.4356-1.65235 0.438 0.578 0.9165 1.13135 1.4355 1.65235 3.015 3.004 7.0685 4.67852 11.3165 4.68752h64.5003c4.252-9e-3 8.3005-1.69052 11.3125-4.68752 3-3.012 4.6756-7.06555 4.6856-11.31255v-11.87701c0.063 0.064 0.1245 0.12841 0.1875 0.19141 3.013 2.996 7.0615 4.67357 11.3145 4.68557h68.4984v7.00003c0.011 4.251 1.6875 8.30055 4.6875 11.31255 3.011 3.002 7.0645 4.67852 11.3125 4.68752h85.0023c0.788-2e-3 1.3326 0.04 1.6856 0.084 0.134 0.017 0.2413 0.0338 0.3223 0.0488 0.09 0.083 0.201 0.18746 0.334 0.31446 0.664 0.66 2.5245 3.05689 4.9355 6.25588 1.92 2.507 7.0469 8.91317 14.0098 17.58016 20.726 25.78097 56.5856 70.04746 56.7796 70.28546v2e-3c3.1474 3.88948 7.7913 5.92709 12.4239 5.92385 3.4568-0.0414 6.9634-1.18987 9.8536-3.53126 3.887-3.158 5.9397-7.80147 5.9297-12.44147 0-3.52345-1.1772-7.11385-3.5664-10.06059v6e-3c-0.089-0.111-4.0505-4.99953-10.1055-12.48052-9.149-11.30499-23.025-28.46033-35.2189-43.57832-6.093-7.55699-11.7671-14.61039-16.2111-20.15438-4.4149-5.507-7.7274-9.66964-8.6914-10.93364-2.977-3.776-5.8331-8.28472-11.25-12.59771-2.908-2.26-6.3462-4.09001-10.1642-5.20901-3.7229-1.098-7.5059-1.48138-11.2969-1.48438h-69.0022v-6.99808c-0.012-4.252-1.6896-8.30246-4.6876-11.31646-3.0129-2.99899-7.0655-4.67556-11.3145-4.68556h-68.5022v-25.00011h69.5042c4.252-9e-3 8.2996-1.68862 11.3086-4.68362 3.002-3.016 4.6815-7.06646 4.6915-11.31645v-22.99815c-0.012-4.249-1.6867-8.2976-4.6817-11.3106-3.018-3.00499-7.0684-4.68047-11.3184-4.68947h-71.5023v-22.0001h69.5023c4.252-0.011 8.2985-1.68862 11.3125-4.68361 3.004-3.016 4.6756-7.06846 4.6876-11.31646v-23.0001c-0.01-4.24799-1.6816-8.3005-4.6856-11.3145-3.014-3-7.0656-4.67357-11.3126-4.68557h-111.0004c-4.25 0.01-8.3016 1.68557-11.3126 4.68557-3 3.014-4.6775 7.06251-4.6875 11.3145v164.00072h-32.5002v-184.00092c-0.01-4.24999-1.6845-8.3005-4.6875-11.3145-3.009-2.998-7.0586-4.67852-11.3106-4.68752h-25.5001c-4.254 9e-3 -8.3044 1.68952-11.3164 4.68752-2.998 3.012-4.6756 7.06251-4.6856 11.3145v184.00081h-125.5024v-103.50045h76.5043c4.251-0.01 8.3005-1.68757 11.3145-4.68557 3.002-3.011 4.6756-7.06756 4.6856-11.31255v-120.498579c-0.01-4.249995-1.6806-8.300458-4.6856-11.316455-3.011-2.999997-7.0656-4.674568-11.3126-4.685568l-122.4985 2e-3c-4.25 0.01-8.3005 1.683618-11.3165 4.683615-3 3.015997-4.6756 7.06646-4.6856 11.316455v240.999062h-90.5023v-4.00002h42.0021c4.252-9e-3 8.3006-1.68666 11.3126-4.68166 2.999-3.013 4.6784-7.06446 4.6894-11.31646v-146.50064c-0.01-4.25399-1.6904-8.30446-4.6894-11.31646-3.01-2.99999-7.0606-4.67656-11.3126-4.68556h-144.9987c-4.252 9e-3 -8.3024 1.68552-11.3164 4.68752-2.997 3.009-4.6756 7.06051-4.6856 11.3145v146.52017c0.01 4.251 1.6895 8.30156 4.6875 11.31255 3.011 2.998 7.0605 4.67657 11.3145 4.68557h39.9983v4.00002c-11.161-1e-3 -26.7505-2e-3 -42.1155-2e-3 -25.2569 0-49.8969 2e-3 -53.2639 4e-3 -0.262-4e-3 -0.437 2e-3 -0.5 2e-3 -2.278 0.011-3.8645-0.13451-4.3125-0.22851-0.243-0.062-0.3949-0.10496-0.4609-0.12696-0.053-0.017-0.053-0.0196-0.053-0.0176l-0.01-0.01c-0.026-0.016-0.074-0.0457-0.1426-0.0957-0.203-0.214-0.4735-0.50418-0.7715-0.82618-5.513-5.94999-23.4317-26.23387-39.6877-44.72285-2.689-3.058-5.33668-6.07361-7.88668-8.9766h44.20128c4.25-9e-3 8.2986-1.68753 11.3126-4.68752 2.996-3.009 4.6765-7.05956 4.6875-11.31255v-94.49651c-0.011-4.25-1.6875-8.30046-4.6875-11.31646-3.013-2.99999-7.0626-4.67652-11.3126-4.68752l-109.00039 2e-3c-4.25199 0.01-8.3005 1.68557-11.3145 4.68556-3 3.014-4.67848 7.06446-4.68948 11.31646v164.489h-31.99964v-199.9988h80.00231c4.25199-0.012 8.3005-1.68753 11.3145-4.68752 3.002-3.014 4.67557-7.06651 4.68557-11.3145v-25.500119c-0.01-4.249996-1.68657-8.300506-4.68557-11.314503-3.011-2.997997-7.06151-4.678521-11.3145-4.687521zm1133.22365 389.952883c-0.013 1.5e-4 -0.024 8e-3 -0.037 8e-3l0.053-4e-3c-0.01 1e-5 -0.01-4e-3 -0.016-4e-3zm-0.037 8e-3 -0.4551 0.0254h0.3008c0.052 2e-5 0.1025-0.0249 0.1543-0.0254zm-1132.88196-379.042866h216.51071c1.277-0.01 2.63722 0.551851 3.53322 1.46485 0.913 0.898999 1.47685 2.253126 1.46485 3.537125v25.504021c0.012 1.28-0.55294 2.64117-1.46094 3.53517-0.899 0.913-2.26013 1.47585-3.53713 1.46485h-91.00235v222.03027h54.00024v-175.49881c-9e-3 -1.279 0.5538-2.64113 1.4668-3.53713 0.897-0.913 2.25713-1.47385 3.53713-1.46485h108.91843c1.277-0.01 2.6391 0.5519 3.5351 1.4629 0.911 0.897 1.4729 2.25708 1.4629 3.53908v94.4965c0.01 1.278-0.5518 2.63618-1.4648 3.53518-0.896 0.90999-2.2562 1.47485-3.5332 1.46485h-68.4788l8.00198 9.12504c4.752 5.41899 10.23942 11.67136 15.90242 18.11336 16.3019 18.54098 34.1223 38.72198 39.8693 44.92597 0.53 0.575 0.9796 1.04488 1.2226 1.29688l0.2539 0.26172 0.2793 0.22071c1.439 1.263 3.6985 2.23234 5.0235 2.48634l0.039 0.01 0.051 0.0137c2.06 0.46499 4.1002 0.53287 6.9552 0.54687h0.2539l0.064 2e-3h0.064c2.823-2e-3 27.7911-2e-3 53.3811-2e-3 18.0939 0 36.5014-4e-5 47.6174 2e-3h5.5v-26.00237h-51.0002c-1.277 9e-3 -2.6402-0.5549-3.5352-1.4629-0.913-0.899-1.4759-2.26012-1.4649-3.53712v-146.49869c-0.011-1.283 0.5499-2.63613 1.4629-3.53713 0.898-0.913 2.2582-1.4758 3.5372-1.4668h144.9986c1.277-9e-3 2.6373 0.5519 3.5313 1.4629 0.916 0.904 1.4788 2.25708 1.4688 3.53908v146.50064c0.01 1.277-0.5519 2.63812-1.4649 3.53712-0.896 0.91-2.2582 1.4719-3.5352 1.4629h-53.0041v25.99816h112.5005v-251.999154c-0.01-1.279999 0.5549-2.640079 1.4629-3.539078 0.897-0.907999 2.2571-1.469944 3.5391-1.460944h122.5005c1.279-9e-3 2.6362 0.552945 3.5332 1.460944 0.91 0.898999 1.4729 2.257079 1.4629 3.539078v120.498574c0.01 1.279-0.5549 2.63732-1.4609 3.52932-0.901 0.91499-2.2632 1.48075-3.5371 1.46875h-87.5043v125.51032h147.5006v-195.00086c-0.01-1.28 0.5549-2.63922 1.4629-3.53322 0.901-0.91499 2.2591-1.4778 3.5391-1.4668h25.4981c1.274-0.012 2.6382 0.5519 3.5352 1.4629 0.912 0.899 1.4729 2.25512 1.4629 3.53712v195.00086h54.5022v-175.00077c-0.01-1.278 0.5539-2.63812 1.4649-3.53712 0.898-0.911 2.2531-1.46995 3.5371-1.46095h110.9985c1.279-0.012 2.6402 0.55295 3.5352 1.46095 0.91 0.897 1.4729 2.25712 1.4629 3.53712v23.00205c0.01 1.282-0.553 2.63822-1.461 3.53322-0.896 0.91-2.2621 1.4739-3.5371 1.4629h-80.5023v44.00215h82.5023c1.279-0.01 2.6401 0.55289 3.5391 1.46289 0.905 0.894 1.4709 2.25618 1.4609 3.53518v23.0001c0.01 1.27999-0.5548 2.63812-1.4648 3.53712-0.899 0.91-2.2582 1.4719-3.5352 1.4629h-80.5023v47.0002h79.5004c1.279-0.01 2.6381 0.55185 3.5371 1.46485 0.91 0.896 1.4729 2.25313 1.4629 3.53713v17.99812h5.502c21.9599-2e-3 71.0153-2e-3 74.5003-2e-3 3.056 2e-3 5.7372 0.31398 8.2031 1.04297 2.387 0.689 4.6952 1.9189 6.4552 3.29689 3.87 3.067 5.9856 6.34188 9.3496 10.67388 1.113 1.459 4.3625 5.5408 8.8145 11.0938 4.454 5.55699 10.1305 12.61483 16.2325 20.17782 12.198 15.12799 26.0777 32.28695 35.2287 43.59394 3.05 3.771 5.57 6.88659 7.334 9.06059 0.881 1.088 1.572 1.93949 2.043 2.52149 0.236 0.289 0.415 0.51112 0.539 0.66212 0.058 0.074 0.1038 0.13197 0.1348 0.16797 0.808 1.00499 1.1521 2.08214 1.1621 3.20313-0.01 1.472-0.6234 2.89251-1.8574 3.89651-0.933 0.75499-2.0158 1.10438-3.1348 1.10938-1.48-7e-3 -2.8956-0.62453-3.8926-1.85353 0 0-35.9982-44.43724-56.7542-70.25421-6.932-8.62799-12.113-15.1095-13.834-17.3575-2.539-3.321-4.2285-5.65853-5.9785-7.43753l-0.066-0.0645c-0.679-0.644-1.212-1.17049-2.123-1.77149-0.945-0.615-1.8346-0.90102-2.2266-1.04102l-0.1152-0.0391-0.127-0.0391c-1.34-0.4-3.0097-0.63863-5.3887-0.64063h-44.1877l0.078-0.0176h-40.799c-1.282 9e-3 -2.6394-0.55294-3.5294-1.46094-0.915-0.901-1.4807-2.26208-1.4687-3.53908v-18.00203h-79.5004c-1.28 0.01-2.6381-0.55285-3.5371-1.46485-0.91-0.894-1.4749-2.25627-1.4629-3.53127v-57.0022c-0.012-1.277 0.5538-2.63913 1.4668-3.53713 0.896-0.911 2.2512-1.47189 3.5332-1.46289h80.4984v-13.00006h-82.4984c-1.28 9e-3 -2.6401-0.55385-3.5371-1.46485-0.908-0.894-1.4729-2.25817-1.4629-3.53517v-53.99829c-0.01-1.278 0.5558-2.64008 1.4668-3.53907 0.894-0.908 2.2512-1.46995 3.5332-1.46095l80.4965-2e-3v-13.00006h-101.0005v175.00077c0.01 1.282-0.5509 2.63422-1.4629 3.53322-0.899 0.913-2.2562 1.47385-3.5312 1.46485h-64.5023c-1.282 9e-3 -2.6392-0.5519-3.5332-1.4629-0.911-0.896-1.4768-2.25817-1.4668-3.53517v-195.00062h-15.502v195.00086c0.01 1.282-0.5509 2.63422-1.4629 3.53322-0.899 0.913-2.2563 1.47385-3.5313 1.46485h-157.5007c-1.285 9e-3 -2.6372-0.5519-3.5332-1.4629-0.913-0.898-1.4788-2.25817-1.4668-3.53517v-135.5006c-0.01-1.27799 0.5538-2.64007 1.4668-3.53907 0.898-0.91 2.2532-1.4719 3.5332-1.4629h87.4985v-110.500488h-112.5001v251.999158c0.01 1.274-0.5538 2.63812-1.4668 3.53712-0.894 0.908-2.2563 1.4729-3.5313 1.4629h-122.5005c-1.281 0.01-2.6362-0.5529-3.5352-1.4629-0.91-0.899-1.4749-2.26012-1.4629-3.53712v-36.00016c-0.01-1.279 0.5549-2.63722 1.4649-3.53322 0.899-0.913 2.2561-1.4758 3.5371-1.4668h53.0002v-136.5006h-135.0006v136.48107h51.0022c1.279-9e-3 2.6392 0.55189 3.5352 1.46289 0.91 0.896 1.4729 2.25513 1.4629 3.53713v36.00016c0.01 1.27399-0.5529 2.63812-1.4649 3.53712-0.899 0.91-2.2562 1.4729-3.5332 1.4629h-111.5005c-3.124-0.011-6.131-0.0372-9.5-0.78516-3.151-0.677-6.7651-2.32393-9.7091-4.87893-0.498-0.438-0.4515-0.4086-0.8535-0.8086-0.282-0.292-0.5882-0.61405-0.9492-0.99805-0.716-0.766-1.6419-1.77297-2.7559-3.00197-2.238-2.46999-5.2363-5.81595-8.7383-9.75394-7.009-7.876-16.035-18.10514-24.961-28.25013-8.92599-10.14399-17.75186-20.20374-24.34386-27.72473-3.29599-3.76-6.03425-6.88631-7.94925-9.0723-0.956-1.095-1.70871-1.95408-2.22071-2.53908-0.257-0.291-0.45099-0.51697-0.58399-0.66797-0.064-0.075-0.11444-0.12897-0.14844-0.16797-0.015-0.021-0.0301-0.0359-0.0371-0.0449l-6e-3 -0.01-2e-3 2e-3c-0.831-0.971-1.24114-2.12671-1.24414-3.30471 0-0.70699 0.14736-1.40174 0.44336-2.05274 0.81-1.791 2.60061-2.94532 4.55861-2.94532l74.49842 4e-3v-84.50037h-99.00048v175.50077c0.01 1.277-0.55185 2.63222-1.46485 3.53322-0.897 0.91-2.25427 1.4758-3.53127 1.4668h-64.00223c-1.28 9e-3 -2.63417-0.5538-3.53517-1.4668-0.913-0.901-1.47385-2.25622-1.46485-3.53322v-232.00095c-0.012-1.27999 0.55385-2.63617 1.46485-3.53517 0.899-0.91 2.25517-1.47189 3.53517-1.46289h90.99845v-15.500075h-206.51049v15.500075h89.50234c1.278-0.01 2.63627 0.55489 3.53127 1.46289 0.912 0.899 1.47385 2.25818 1.46485 3.53517v232.00102c0.01 1.277-0.55185 2.63222-1.46485 3.53322-0.897 0.913-2.25127 1.4758-3.53127 1.4668h-64.50419c-1.282 9e-3 -2.63426-0.55385-3.53126-1.46485-0.912-0.898-1.47585-2.25817-1.46485-3.53517v-19.00399h-81.50036c-1.282 9e-3 -2.63927-0.55299-3.53127-1.45899-0.915-0.898-1.47775-2.26013-1.46875-3.53712v-56.9983c-0.01-1.285 0.55185-2.64108 1.46485-3.53908 0.894-0.911 2.25317-1.47094 3.53517-1.46094l81.4984-4e-3v-13.49811h-81.9984c-1.278 0.01-2.64008-0.5558-3.53908-1.4668-0.908-0.893-1.46994-2.25322-1.46094-3.53322v-53.49828c-9e-3 -1.283 0.55289-2.64012 1.46289-3.53712 0.9-0.91 2.25713-1.47385 3.53713-1.46485h82.49841v-14.00193h-102.51022v177.02031c9e-3 1.277-0.55376 2.63222-1.46876 3.53322-0.89899 0.913-2.24926 1.4758-3.53126 1.4668h-67.00225c-1.036-5e-3 -1.88842-0.0265-2.94142-0.1875-0.881-0.117-2.15789-0.49457-2.92188-0.85157-2.088-0.975-2.96864-1.70173-5.34964-3.26173v-2e-3c-0.821-0.59-0.66664-0.4961-1.18164-0.9961-0.233-0.244-0.37924-0.42018-0.61524-0.70118-0.374-0.456-0.73146-0.93517-1.18946-1.57617-0.867-1.213-1.91103-2.78359-3.16603-4.72659-2.5-3.87299-5.77231-9.15804-9.57231-15.41803-7.59599-12.50799-17.27558-28.86317-26.81457-45.12715-9.53599-16.25999-18.92857-32.4237-25.93956-44.52168-3.505-6.05-6.41526-11.08059-8.44926-14.60358-1.016-1.759-1.81638-3.14291-2.35938-4.08791-0.271-0.471-0.4791-0.83318-0.6211-1.07618-0.071-0.122-0.12316-0.2153-0.16016-0.2793-0.018-0.031-0.031-0.0552-0.043-0.0742-4e-3 -9e-3 -0.0106-0.0164-0.0176-0.0254-2e-3 -7e-3 -3e-3 -0.0124-0.01-0.0234-5e-3 -7e-3 -9e-3 -0.0151-0.0234-0.0371-0.419-0.76-0.62695-1.58884-0.62695-2.42384 0-0.868 0.22383-1.72506 0.67383-2.49806 0.896-1.553 2.53614-2.50001 4.32814-2.50001l86.99843-2e-3v-111.000444h-110.5393l-1.47071 251.030404c0 2.70899-2.26077 4.96967-4.96877 4.97267-0.053 0-82.44972 0.49805-86.02772 0.49805h-0.0625c-5.00799 8e-3 -9.08649-1.68628-11.64849-3.32228-2.578-1.637-3.87641-3.14806-4.27541-3.62306l-0.53711-0.64649-76.37924-92.27384c-0.75-0.937-1.09757-2.01497-1.10157-3.12697 0.01-1.46399 0.60661-2.85753 1.8086-3.85353 0.954-0.786 2.05447-1.14739 3.18947-1.15039 1.458 7e-3 2.85349 0.60551 3.85549 1.8125l76.96322 92.97893 0.25001 0.23437c0.333 0.309 0.80969 0.71846 1.55469 1.18946l0.0508 0.0293 0.0371 0.0234c1.101 0.724 3.54798 1.77447 6.25198 1.73047 1.736 0 23.27348-0.126 44.32246-0.25 11.74699-0.071 23.3446-0.1385 31.31459-0.1875l5.43557-0.0312 1.46876-251.059696c7e-3 -2.733998 2.26602-4.979725 5.00002-4.970725h120.50053c1.282-9e-3 2.63822 0.552944 3.53322 1.460944 0.915 0.898999 1.4758 2.262079 1.4668 3.539078v120.980989c0.01 1.278-0.55185 2.63617-1.46485 3.53517-0.894 0.908-2.25622 1.47685-3.53322 1.46485h-83.34802l4.77736 8.2559c3.112 5.37299 6.85848 11.83882 10.98247 18.92782 11.49499 19.76898 25.9081 44.41453 37.54509 63.86551 7.74999 12.95599 14.29744 23.64404 17.81844 28.87903 0.491 0.739 0.94511 1.38548 1.28711 1.85548l0.58399 0.80665 0.82813 0.55469c0.637 0.42499 1.13777 0.75123 1.50977 0.99023l1.2129 0.77149 1.4375 0.084c0.227 0.011 0.34924 8e-3 0.36524 8e-3 1.899-2e-3 21.54645-2e-3 39.07244-2e-3h17.42195l5.50393 4e-3v-176.99907c-9e-3 -1.277 0.5519-2.63822 1.4629-3.53322 0.90399-0.915 2.25907-1.4758 3.53907-1.4668h112.51026c1.277-9e-3 2.63422 0.55185 3.53322 1.46485 0.91 0.896 1.47385 2.25817 1.46485 3.53517v24.0001c0.01 1.277-0.5549 2.63822-1.4629 3.53322-0.901 0.915-2.25817 1.47581-3.53517 1.46681h-82.50231v43.49628h81.9984c1.278-9e-3 2.63813 0.55681 3.53713 1.4668 0.912 0.899 1.47385 2.25813 1.46485 3.53713v23.5001c0.01 1.274-0.54985 2.63117-1.46485 3.53517-0.9 0.91-2.25513 1.4719-3.53713 1.4629l-81.4984-2e-3v47.00216h81.4984c1.278-9e-3 2.63813 0.55385 3.53713 1.46485 0.915 0.901 1.47385 2.25512 1.46485 3.53712v18.99618h54.49828v-221.99897h-89.49649c-1.282 0.012-2.64013-0.5519-3.53713-1.4629-0.91-0.896-1.47585-2.25717-1.46485-3.53517v-25.498161c-9e-3 -1.282999 0.55185-2.636126 1.46485-3.537125 0.899-0.911999 2.25913-1.47385 3.53713-1.46485zm107.28562 21.043061h0.25782c-0.043 0.059-0.0869 0.117735-0.12891 0.177735-0.04-0.06-0.0789-0.119735-0.12891-0.177735zm-355.96835 1.498055h88.59414v89.00039l-76.00034 2e-3c-5.27899 0-10.18631 2.59857-13.1563 6.89457l-8e-3 2e-3zm832.61689 4e-3h90.5004v88.49843l-76.4984 2e-3c-4.252 8e-3 -8.3025 1.68757-11.3145 4.68556-1.069 1.074-1.9695 2.27914-2.6875 3.57814zm-209.499 74.50228h113.0005v114.48878l-41.9982 2e-3c-4.249 9e-3 -8.3006 1.68753-11.3126 4.68752-2.05 2.057-3.4825 4.59841-4.1875 7.35941-0.705-2.759-2.1345-5.30136-4.1855-7.36136-3.013-2.998-7.0655-4.67657-11.3145-4.68557h-40.0022zm-174.02022 1.00195h76.99832v62.49637h-63.49826c-5.522 4e-3 -10.59206 2.83715-13.50006 7.41214h-0.0195l0.0195-4e-3zm9.74809 81.79333 0.0137 0.0137c2e-3 3e-3 8e-3 9e-3 0.0176 0.0234h-6e-3c-9e-3 -9e-3 -0.0165-0.0211-0.0254-0.0371z"/>

<path d="m140.19829 379.03882c-21.68261 0-42.786788-4.11223-59.41962-11.57932-18.153798-8.15121-30.562049-19.98811-35.882308-34.22943-2.371541-6.35143-19.035583-50.95963-27.561314-73.78868 0.395326 0.092 0.814788 0.17394 1.258386 0.2451 0.544301 0.0861 1.082361 0.15938 1.615844 0.23262 2.026567 0.27756 3.776822 0.51559 5.413473 1.39363 2.194685 1.17599 2.866739 2.95912 3.86629 6.00979l2.807649 8.47538c0.61879 1.87093 2.811394 2.59875 7.822882 2.59875 0.554289 0 0.991645-0.01 1.217605-0.0187 0.434859-0.0129 0.867221-0.0291 1.29667-0.0458 1.01911-0.0391 1.980377-0.0741 2.942892-0.0741 1.667861 0 3.024454 0.11901 4.267859 0.37618 2.89795 0.59757 5.289466 1.71488 6.914048 3.22961 0.903841 0.841 1.235499 1.76066 1.693661 3.03402 0.265077 0.73448 0.565109 1.56841 1.012868 2.43854 2.144333 4.16008 7.142921 6.54702 13.715324 6.54702 1.148111 0 2.298718-0.0732 3.421861-0.21972 1.543437-0.20016 3.021957-0.53514 4.452206-0.85848 1.864691-0.42362 3.626598-0.8202 5.429702-0.91591 0.518918-0.0275 1.039916-0.0429 1.560914-0.0429 2.44811 0 4.822565 0.30586 7.059279 0.90342 2.939147 0.78816 5.285719 1.95791 6.974809 3.48345 0.43444 0.38493 0.83018 0.76486 1.21885 1.13563 1.27462 1.21594 2.59126 2.47183 4.5088 3.40938 2.83886 1.38863 6.15086 2.12103 9.5773 2.12103 3.57042 0 7.13418-0.77817 10.30553-2.25503l0.61421-0.28505c2.81639-1.31456 5.2491-2.45102 8.1483-2.96079 1.7128-0.29961 3.47721-0.45316 5.24328-0.45316 1.24423 0 2.50387 0.077 3.74186 0.22762 2.86633 0.34664 5.50336 1.44523 8.29478 2.60541 3.06107 1.27337 6.22701 2.59001 9.83738 2.93457 0.80064 0.0753 1.61044 0.11443 2.40442 0.11443 2.73566 0 5.33732-0.44234 7.73091-1.31747 3.02529-1.10151 4.90954-2.87881 6.90448-4.76264l0.521-0.49021c4.16299-3.90332 10.48821-4.48716 13.88885-4.48716 0.58217 0 1.1735 0.0167 1.7565 0.0508 2.03822 0.11444 4.00569 0.49728 6.09052 0.90218 2.48431 0.48229 5.05352 0.98332 7.72967 0.98332 1.94126 0 3.73146-0.26092 5.47589-0.79606 3.93246-1.20096 6.70806-3.55877 7.81331-6.63566l0.03-0.0861 0.0233-0.0878c0.70035-2.62913 1.59046-4.04606 3.28037-5.22538 1.9679-1.37907 4.49757-2.25877 7.52161-2.62123 0.63085-0.0741 1.32247-0.11152 2.11312-0.11152 0.82602 0 1.6508 0.0391 2.52509 0.0791 0.8822 0.0412 1.79603 0.0832 2.7211 0.0832 0.64708 0 1.23383-0.0216 1.79644-0.0637l0.36037-0.0233c1.75525-0.11818 5.02314-0.33582 5.95528-3.07522l1.60045-4.71479c0.2476-0.72948 0.47106-1.51472 0.6862-2.27458 0.583-2.05278 1.1864-4.17756 2.30163-5.43261 1.68243-1.89632 4.48259-2.57337 6.53495-2.80973l0.45109-0.0499c0.92049-0.10362 1.92545-0.21389 2.93915-0.42862l-27.99784 73.57646c-5.42055 14.2459-18.02064 26.12316-36.43493 34.34262-16.90831 7.54865-38.24719 11.70165-60.08543 11.70165" fill="#991a37" stroke-width=".416133"/><path d="m268.17996 255.4307c-0.0146 0.0129-0.0275 0.0275-0.0416 0.0412-0.037 0.037-0.0682 0.0695-0.0732 0.0741 0.0374-0.0375 0.0749-0.0749 0.11652-0.11652m4e-3 -4e-3 -3e-3 5e-3 4e-3 -4e-3zm4e-3 -4e-3c-2e-3 8.3e-4 -4e-3 3e-3 -6e-3 5e-3l4e-3 -4e-3zm0.0208-0.0208c-0.0171 0.0166-0.0487 0.0499-0.0891 0.0891l0.0187-0.0175c0.025-0.025 0.0499-0.0499 0.0707-0.0708m0.0125-0.0166c-5e-3 7e-3 -9e-3 0.01-0.0137 0.0158 3e-3 -4e-3 8e-3 -8e-3 0.0104-0.01v-8e-3m4e-3 -4e-3 -8e-3 0.01c-0.0108 0.01-0.0208 0.0204-0.03 0.0304 0.0291-0.0208 0.0374-0.0375 0.0374-0.0375m-255.184488-1.30747c7.347658 19.66893 27.240892 72.92313 29.849213 79.91 11.787796 31.55577 54.475958 47.20611 97.312685 47.20611 43.19043 0 86.52651-15.89669 98.52778-47.42666 2.79766-7.34974 23.01007-60.44331 30.31903-79.63952-0.18268 0.47647-0.47023 0.90426-0.82186 1.26838 0.0395-0.0383 0.0707-0.0703 0.0707-0.0703s-0.0304 0.032-0.11319 0.1161c-0.0845 0.0849-0.11568 0.1161-0.11568 0.1161s0-8.3e-4 8.3e-4 -8.3e-4c-0.46565 0.47065-0.62586 0.63294-0.62586 0.63294-2e-3 0 0.46482-0.47065 0.68079-0.68954-1.8493 1.81351-4.60451 2.01367-7.03057 2.29206-2.853 0.32709-5.93031 1.30375-7.89404 3.51466-1.92753 2.16972-2.50262 5.75471-3.41562 8.44334-0.53389 1.57132-1.06779 3.14347-1.60003 4.71395-0.51226 1.5089-2.98617 1.54011-4.44471 1.64955-0.54555 0.0412-1.09152 0.0574-1.63624 0.0574-1.75067 0-3.49468-0.16104-5.24619-0.16104-0.78649 0-1.57547 0.0312-2.36738 0.12484-2.98408 0.35746-6.01228 1.25381-8.49493 2.99116-2.37362 1.65704-3.40022 3.71274-4.12596 6.43466-1.00454 2.79975-3.69568 4.47759-6.42176 5.30944-1.65538 0.50769-3.26332 0.70119-4.84753 0.70119-4.58163 0-8.96059-1.61335-13.69827-1.88176-0.61504-0.0362-1.24299-0.0545-1.87759-0.0545-5.42138 0-11.37416 1.33495-15.35655 5.06725-2.13976 2.00701-3.8459 3.76767-6.69183 4.80384-2.23089 0.81437-4.61866 1.18764-6.99728 1.18764-0.73531 0-1.47186-0.037-2.20051-0.10528-6.44132-0.61338-11.62218-4.75016-18.07681-5.53498-1.32705-0.16021-2.66325-0.24136-4.00029-0.24136-1.88175 0-3.76267 0.16021-5.61446 0.48438-3.40522 0.59965-6.20621 1.97871-9.29641 3.41603-2.87298 1.33704-6.14545 2.0557-9.40128 2.0557-2.99907 0-5.98482-0.61047-8.63476-1.9063-2.16472-1.05865-3.48594-2.65701-5.23203-4.21002-2.19386-1.97955-5.031054-3.20589-7.857845-3.96283-2.476407-0.6629-5.048524-0.97376-7.612735-0.97376-0.557618 0-1.117317 0.0146-1.673271 0.0429-3.45307 0.18185-6.64689 1.3466-10.045448 1.7902-0.979993 0.12609-2.045709 0.20099-3.146797 0.20099-4.545836 0-9.688406-1.27336-11.806938-5.38476-1.132298-2.19635-1.209283-4.24913-3.150959-6.06139-2.168884-2.01949-5.075989-3.16594-7.943977-3.75685-1.587547-0.32916-3.142636-0.42279-4.701053-0.42279-1.42151 0-2.847182 0.077-4.30864 0.12401-0.21306 7e-3 -0.62628 0.0166-1.149775 0.0166-1.958322 0-5.46008-0.14148-5.786745-1.12896-0.868469-2.62289-1.740267-5.24994-2.609569-7.87698-1.064468-3.2138-1.824743-6.07638-5.086809-7.82538-2.459761-1.31748-5.019395-1.42859-7.706365-1.85346-2.201343-0.34955-5.056014-1.21095-5.913248-3.49968m-0.0083-0.0166c0.0021 5e-3 0.0029 9e-3 5e-3 0.0137 0 0 0-8e-3 -0.0042-0.0125m248.398054 8.00639-10.6322 27.92876-16.0827 42.23749c-5.21373 13.70035-17.42224 25.16231-35.30472 33.1454-16.63865 7.42881-37.66751 11.51648-59.21155 11.51648-21.38673 0-42.179229-4.04606-58.541575-11.39164-17.619018-7.91026-29.635688-19.33019-34.751209-33.02346-2.256689-6.04308-17.458024-46.74005-26.271303-70.33478 1.564244 0.22055 2.846349 0.45317 3.973653 1.05656 1.418598 0.76069 1.88217 1.85761 2.842604 4.78719l0.19808 0.60839 1.569653 4.73351 1.039916 3.14055c1.347022 4.07145 6.885335 4.07145 9.859853 4.07145 0.586331 0 1.048239-0.0116 1.286267-0.0187 0.439436-0.0146 0.876376-0.0304 1.311651-0.0487 0.997886-0.0362 1.940011-0.0724 2.860913-0.0724 1.539692 0 2.721509 0.10237 3.833833 0.3329 2.51261 0.51642 4.548332 1.45106 5.886616 2.69738 0.479385 0.44734 0.682458 0.92964 1.136875 2.19135 0.287132 0.79773 0.612131 1.69824 1.123975 2.69446 2.523846 4.90038 8.218208 7.71011 15.621629 7.71011 1.240908 0 2.484729-0.0811 3.70067-0.23844 1.641228-0.21181 3.169268-0.55845 4.647372-0.89344 1.77231-0.40157 3.447245-0.77941 5.068499-0.86514 0.482714-0.0275 0.970005-0.037 1.449391-0.037 2.259601 0 4.448044 0.27714 6.503741 0.8281 2.607905 0.69619 4.656943 1.70698 6.117986 3.02529 0.38326 0.34289 0.7557 0.69744 1.14978 1.07029 1.32705 1.26962 2.8322 2.70403 5.04478 3.78515 3.13223 1.53303 6.76965 2.34199 10.52067 2.34199 3.88127 0 7.75713-0.84849 11.21104-2.45393l0.61754-0.28922c2.67823-1.25089 4.99151-2.33117 7.61315-2.79183 1.58879-0.2784 3.22752-0.42071 4.87-0.42071 1.15935 0 2.33076 0.0712 3.48303 0.21181 2.57379 0.31251 5.07807 1.35534 7.73009 2.45685 3.20838 1.33578 6.52538 2.71568 10.45783 3.0877 0.86723 0.0857 1.74443 0.12609 2.60708 0.12609 2.98783 0 5.83626-0.48729 8.46539-1.44523 3.44142-1.25381 5.57743-3.27163 7.64311-5.21955l0.51517-0.48646c2.64786-2.48223 7.17622-3.90707 12.42157-3.90707 0.54305 0 1.09277 0.0175 1.63415 0.0479 1.89424 0.10653 3.79181 0.47647 5.80339 0.86722 2.58419 0.50311 5.25701 1.02161 8.13873 1.02161 2.15807 0 4.15426-0.29088 6.10176-0.88761 4.59827-1.40612 7.86824-4.23457 9.20694-7.96687l0.0603-0.16811 0.0462-0.17478c0.56844-2.13102 1.1839-3.14472 2.43854-4.02234 1.6508-1.15519 3.91373-1.93169 6.54452-2.24629 0.54597-0.0645 1.15435-0.0965 1.85928-0.0965 0.77734 0 1.57798 0.037 2.42564 0.0761 0.908 0.042 1.84638 0.0849 2.82013 0.0849 0.70119 0 1.34162-0.0225 1.95541-0.0674l0.34414-0.0254c1.93003-0.12776 6.45131-0.42779 7.84411-4.52628l0.74321-2.18928 0.8564-2.52343c0.26508-0.78108 0.49562-1.5917 0.71908-2.37778 0.49229-1.73735 1.05157-3.70525 1.84264-4.59577 0.94462-1.05282 2.72567-1.79353 5.03104-2.0765" fill="#010101" stroke-width=".416133"/><path d="m130.44413 168.55047c-4.14551 0-7.8932 1.59171-11.95716 1.85596-3.96158 0.25675-7.91609-0.42155-11.88434-0.11652-5.06101 0.38867-9.362991 3.13431-14.505978 3.13431-4.733511 0-9.657612-0.0849-13.99122 2.16847-7.07634 3.67861-17.553734 1.36034-23.403314 7.40925-4.725189 4.88748-13.63834 2.42772-19.036416 7.53575-1.39779 1.3233-1.612515 3.5313-3.387738 4.14094-1.994109 0.68911-4.074357 1.11273-6.07554 1.78521-3.924966 1.32039-8.112927 3.59538-9.63847 7.7176-0.979161 2.64286 0.342477 2.99282-2.329929 4.09141-1.845133 0.75986-3.644075 1.65372-5.2278768 2.88214-2.9016947 2.25086-3.6761181 5.34606-4.09558 9.02842-0.032042 0.27506 0.039116 4.99318 0.04411 4.98819-1.3969582 1.13396-2.627047 2.50012-3.519236 4.07019-2.11187444 3.72356-1.70115127 7.68847-0.1344109 11.55851 1.700319 4.19628 3.1384743 5.78217 3.309505 10.10246-0.1822663 2.07026 0.8164527 4.22375 1.5713178 6.07512 3.2154589 7.89654 5.0464429 13.92464 14.6358099 14.12813 1.937931 0.0412 2.849678 7.65352 3.570836 9.57022 1.778969 4.73227 6.041002 7.98809 10.842759 9.27353 6.494586 1.74234 16.740195-2.10564 19.641889 5.47256 3.290363 8.5919 13.502264 11.76949 21.932285 11.0812 6.810015-0.55762 16.815098-4.87 22.37713 1.45314 6.430087 7.30771 17.352747 9.15243 26.451487 6.75675 8.34139-2.19427 14.46229-7.25778 23.47864-3.78723 9.95307 3.833 19.15626 7.217 29.42351 1.63166 7.2249-3.93079 9.90188-9.40419 19.29899-7.81539 8.28812 1.40902 16.20963 3.16011 23.87105-1.65038 5.59033-3.50592 5.74055-11.60054 12.43364-12.39161 5.89244-0.69536 11.61884 0.70202 17.20584-2.20883 6.75384-3.51466 8.32516-11.15237 9.82656-17.98735 5.9453-0.88262 11.09369-2.49596 13.2684-8.8449 1.36034-3.00282 2.75189-6.242 3.19632-9.53819 0.19808-1.31331 0.13857-2.65534-0.15272-3.9491 0.97791-1.26754 1.9604-2.39651 2.65534-3.86046 3.35195-7.06635 2.57462-15.31328-4.25371-19.84746 1.80602-6.47087-0.22263-11.04625-6.11882-14.4627-2.97992-1.72612-4.61907-1.44356-5.51209-4.69772-0.84101-3.01572-2.22215-5.38102-4.87125-6.93486-3.41437-2.00201-7.28275-2.37487-10.87356-3.85838-1.47519-3.84091-5.22954-6.11508-8.96683-7.34766-3.09228-1.01953-6.31939-1.15435-9.44205-1.98787-3.21005-0.86098-5.02356-3.85589-8.31642-5.0531-3.56792-1.29667-7.35557-1.41485-11.08869-1.80768-4.01985-0.42279-6.81293-2.86258-10.61722-3.84881-4.01818-1.05615-7.9652-0.78358-12.03789-1.02993-4.09392-0.24552-7.55947-2.38611-11.59513-2.9017-3.20256-0.40906-6.40928-0.13732-9.61766-9e-3 -4.38521 0.17228-8.33847-1.21053-12.63879-1.74651-4.05355-0.50477-8.01555 0.25384-12.03997 0.64875-3.99072 0.41613-7.71927-0.87388-11.70166-0.87388" fill="#010101" stroke-width=".416133"/><path d="m117.93934 310.36857c-5.36187 0-11.02627-1.7744-14.71321-6.04974-2.88671-3.34779-7.258609-4.75599-11.435335-5.19709-5.99273-0.63294-11.396632 1.95999-17.308632 1.95999-5.237865 0-11.331715-1.78438-14.12147-6.85662-1.061555-1.94335-1.054481-4.23541-2.690716-5.81921-2.145165-2.10147-5.24369-3.049-8.093368-3.40438-5.618211-0.69619-11.139046 1.08486-16.344868-2.21591-2.077752-1.31539-3.663218-3.39065-4.195868-5.9199-0.356626-1.32123-2.553392-8.91524-2.859666-10.52733-0.450672-2.37488-7.676403-0.75487-10.104123-2.14059-2.204256-1.25797-3.309088-4.60659-4.015266-6.17084-0.706594-1.56341-2.8750617-6.43175-3.0152985-7.95979 0.3612033-0.72573 8.2922795-2.3653 8.2922795-2.3653s-1.386138-0.3895-3.810112-1.22468c-2.424807-0.83393-5.2574231-3.25582-5.9648491-4.61616-0.7086743-1.36242-4.0610409-7.21366-3.0227893-10.18152 1.5351142-1.92004 9.2822604-1.71863 10.9913174-3.1493-0.397823-0.48437-4.719363-3.69526-5.206238-4.36024-1.6674444-2.27624-1.2808569-7.30937 0.444846-9.36507 1.816004-2.16389 9.736261-1.07487 12.530178-2.71818 1.080697-0.63668-3.879607-0.33332-2.906273-1.15726 1.255057-1.06114 0.75653-4.60243 0.946287-6.11965 0.778168-6.23034 11.24183-4.2612 15.232544-5.84334 1.190557-0.47314 2.322438 0.57052 3.321157-0.27007 0.606306-0.51351 0.549296-2.32244 1.081113-3.16011 1.391965-2.1976 6.742186-5.06101 9.057549-5.76761 2.589179-0.7894 2.580856 0.8202 5.161296-0.0112 1.235915-0.39824 2.568373-0.87679 3.613282-1.70407 0.864308-0.6708 1.277945-1.98037 2.280825-2.69529 2.482233-1.77023 5.177941-3.02529 7.99641-3.61619 2.8709-0.60173 5.868722-0.52183 8.958093-0.52059 2.088987 0 3.285369-2.37403 5.298204-3.09478 2.891291-1.41069 4.847948-1.86635 7.685974-2.19926 2.54923 0.14065 6.114241 0.92007 8.577748 0.21181 2.200509-0.63002 4.036909-1.94375 6.328139-2.39193 5.08264-0.99123 10.12493 0.54014 15.22255-0.34248 2.23006-0.38658 4.26329-1.37615 6.51997-1.66078 2.66991-0.33582 5.46882-0.25717 8.07881 0.43985 5.28572 1.43316 10.19609-0.64875 15.44768-0.58633 3.91581 0.0462 7.31729 1.74984 11.1557 2.11728 4.69481 0.44485 9.27185-0.8281 13.94835 0.27049 2.13477 0.5031 3.8896 1.78022 5.9815 2.34532 2.61331 0.70077 5.29196-0.23636 7.96936-0.30044 2.33118 0.20598 3.90707 1.10774 6.99769 2.48389 2.72109 1.13563 4.38479 2.21341 6.8354 3.05067 2.83012 0.96585 3.37692-0.43985 6.46712-0.10237 3.27996 0.35788 8.2619 2.5767 10.51901 4.5371 0.91008 0.78941 1.2484 1.98454 2.25794 2.59667 1.04699 0.63835 2.2209 1.0757 3.38024 1.43358 2.0195 0.61962 0.46815-1.24133 2.54008-0.88262 3.17426 0.64293 8.43792 3.60454 10.27682 5.29196 0.97416 0.89219 1.72736 2.08275 1.87467 3.4564 0.12942 1.2484 1.25839 1.58755 2.40525 1.36284 0.43653-0.0853 0.89094-0.22638 1.56258-0.062 2.47558 0.80148 8.54113-0.47314 11.12115 1.77481 1.82766 1.59379 3.30243 1.63291 3.67196 4.33902 0.16687 1.22426 0.61338 7.06427 1.55717 6.954 2.43521 1.09359 7.0289 0.13607 9.23524 2.78226 0.96667 1.16101 1.74359 2.18345 1.2201 4.16507-0.52474 1.98163-2.31328 8.09504-1.83307 8.46415 2.30538 1.76066 5.9532 1.19638 6.97314 3.74395 1.09318 2.73649-0.40864 8.88277-2.02116 10.69128-0.48104 0.53723-3.02445 3.81927-3.10268 4.45013 1.19638 1.64164 1.1402 2.02948 1.08527 3.19715-0.0562 1.16891-0.90509 4.36814-2.93831 8.90316-1.89299 6.13671-9.11706 4.87292-13.71824 6.47087-0.44485 2.44727-2.61082 12.87598-4.50797 15.32409-3.76475 4.85461-10.05793 4.48258-15.38651 4.30947-2.70278-0.087-5.48047 0.30752-7.98726 1.39863-1.15809 0.5031-2.27499 1.16891-3.19673 2.06443-1.22717 1.18931-1.43233 2.46101-1.91463 4.04398-1.70864 5.59199-7.47416 8.1329-12.62256 8.61603-4.30905 0.40032-8.08254-0.90051-12.2601-1.62292-4.06021-0.70326-8.36802-0.45608-12.28008 0.92382-1.8468 0.65125-3.66614 1.5838-5.11761 2.96495-1.36283 1.29999-2.44228 2.74814-4.01235 3.8201-3.43143 2.34782-7.60192 3.34945-11.66587 3.34945-4.15592 0-8.34263-1.05157-11.97464-3.18758-3.57583-2.0919-7.80915-2.88963-11.86603-2.88963-4.05646 5e-3 -8.29935 0.79315-11.86686 2.90336-3.637 2.1306-7.83995 3.19174-12.0096 3.19174" fill="#991a37" stroke-width=".416133"/><path d="m117.40253 296.95244c-5.48671 0-11.28303-1.61251-15.05486-5.49212-2.955376-3.03819-7.428388-4.31738-11.700825-4.7177-6.133799-0.57343-11.662956 1.78022-17.713945 1.78022-5.356879 0-11.593046-1.62126-14.44855-6.22577-1.08694-1.76357-1.078201-3.8459-2.753968-5.28322-2.193436-1.90839-5.364785-2.7677-8.280212-3.08771-5.748876-0.63585-11.397464 0.98332-16.722717-2.01575-2.128104-1.19346-3.809281-3.06648-4.295324-5.3731-0.230121-1.11524-0.174776-2.2596 0.115685-3.3582 0.291709-1.08485 0.912579-2.06818 0.405313-3.18924-0.920485-2.03697-3.832167-2.88588-5.953613-3.21879-2.71818-0.42986-5.347308-0.47356-7.831621-1.73319-2.255024-1.1427-3.9973723-3.13847-4.1097282-5.60073-0.1256721-2.77353 1.6503822-4.61242 3.4114572-6.60153 1.784378-2.01284 0.602144-3.40522-1.816836-3.9953-2.5654593-0.62503-5.1821029-2.01075-5.983991-4.52919-0.8410046-2.6258 0.7523682-5.14465 2.8014066-6.84455 1.7677326-1.46396 4.5029734-2.31162 5.6581584-4.34068 0.394078-0.69328-1.945837-1.72529-2.444364-2.32868-1.7061449-2.06735-1.1818174-4.72852 0.583418-6.5928 1.857617-1.96498 4.430151-2.93831 6.948587-3.9362 1.172246-0.46191 2.326183-1.02701 3.322405-1.77605 1.282522-0.96418 0.347471-1.12398 0.08989-2.49222-1.131049-6.00647 8.337223-7.279 12.420319-8.71591 1.218853-0.42778 2.467252-0.94712 3.489274-1.71114 0.622119-0.46523 0.565108-2.10812 1.107746-2.86882 1.424423-1.99577 4.120548-3.00281 6.490425-3.64532 2.647437-0.71492 5.418882-0.84433 8.057165-1.60003 1.266708-0.36287 2.62996-0.79648 3.698589-1.54718 0.884282-0.61005 1.307073-1.79853 2.333673-2.44728 5.126341-3.24334 11.749929-1.84305 17.348165-3.75477 1.996605-0.68162 3.360689-2.15473 5.420131-2.80973 2.795997-0.88594 5.869138-1.16683 8.80662-1.02784 2.607905 0.12858 5.317347-0.13275 7.83828-0.77651 2.250447-0.57177 4.130537-1.7644 6.474197-2.17138 5.20124-0.90051 10.36046 0.49104 15.57627-0.31002 2.28082-0.35122 4.36024-1.25006 6.67227-1.50931 2.73108-0.30336 5.59574-0.23304 8.26399 0.40032 5.40931 1.30124 10.43411-0.588 15.80597-0.53224 4.00819 0.0416 7.48748 1.58797 11.41536 1.92046 4.80467 0.40448 9.48866-0.74946 14.27377 0.24801 2.18304 0.45525 3.97948 1.6146 6.12215 2.12727 2.67157 0.63627 5.37977 0.75362 8.11917 0.69494 2.46475-0.052 4.97695 0.18851 7.34974 0.82478 2.59958 0.68787 4.33069 2.47225 6.83789 3.23335 5.57868 1.68909 12.58095 0.32459 17.38104 4.02526 0.93173 0.71574 1.27753 1.80144 2.31121 2.35531 1.07195 0.58009 2.27167 0.97749 3.45764 1.30333 2.06735 0.56261 4.20461 0.72448 6.29485 1.17391 2.39401 0.51517 4.93949 1.29708 6.82041 2.82928 0.99706 0.81063 1.76899 1.89008 1.91838 3.13848 0.1315 1.13188 1.39071 1.57173 2.45893 2.04446 3.41395 1.50307 7.2095 1.76399 10.44661 3.69942 2.05653 1.23175 3.91413 3.26332 3.38857 5.69977-0.21348 0.98374-1.03243 1.33163-0.14898 2.06735 1.0653 0.8872 2.37653 1.52471 3.68694 2.04363 3.89001 1.54052 11.15319 4.95989 7.92399 10.03213-0.59757 0.93838-1.51513 1.65621-2.54257 2.16389-0.7303 0.36121 0.12151 1.0291 0.52849 1.44024 1.82724 1.84097 4.47218 2.69238 6.23825 4.63572 1.70032 1.85346 2.50179 4.42391 1.21927 6.68476-1.4419 2.54382-4.10432 2.81639-6.629 3.89958-2.75355 1.18348-0.90592 3.11143 0.46856 4.53918 1.88966 1.96206 3.14056 4.64154 2.22257 7.27733-1.93668 5.5741-8.68469 4.65528-13.39199 6.10633-2.21174 0.68163-4.86126 2.30746-3.78431 4.81341 1.13271 2.63204 0.81437 5.58118-1.12647 7.80458-3.85006 4.40643-10.2918 4.06728-15.74397 3.91123-2.76562-0.077-5.60906 0.27922-8.17369 1.26962-1.18348 0.45816-2.32618 1.06156-3.26997 1.87302-1.25506 1.08111-1.46396 2.23546-1.95915 3.67278-1.74776 5.07599-7.64811 7.3847-12.91718 7.82122-4.40852 0.36329-8.26898-0.81728-12.54142-1.47477-4.15758-0.63585-8.56443-0.41489-12.56888 0.83892-1.88924 0.59174-3.75102 1.4394-5.23578 2.69238-1.39613 1.18057-2.49971 2.49513-4.10557 3.46888-3.51216 2.13102-7.78043 3.0411-11.93635 3.0411-4.25205 0-8.53697-0.95585-12.25429-2.89628-3.65822-1.89549-7.99016-2.62122-12.14026-2.62122-4.15217 3e-3 -8.49369 0.71866-12.14317 2.6387-3.7323 1.95499-8.0322 2.91792-12.30089 2.91792" fill="#cb2027" stroke-width=".416133"/><path d="m174.28332 209.85582c0 8.77375-15.6079 15.88671-34.8607 15.88671-19.25322 0-34.86237-7.11296-34.86237-15.88671 0-8.77457 15.60873-15.8892 34.86237-15.88878 19.25114 0 34.85903 7.11587 34.85903 15.87963" fill="#010101" stroke-width=".416133"/><path d="m177.60489 267.32794c-3.88834 0-7.76254-0.70118-11.20521-2.02823-4.20211-1.62126-7.28232-4.03899-8.91065-6.99312-0.17977-0.32416-0.32375-0.56552-0.43985-0.76069-0.67248-1.12314-0.78608-1.54968-0.86931-3.25957l-0.15729-3.19132-0.23387-5.02522 3.78806 3.30951c1.0782 0.94129 2.32576 1.78021 3.70982 2.49305 4.12513 2.12394 9.03633 3.24334 14.20262 3.24334 4.87583 0 9.56648-1.00288 13.56593-2.90544 1.57881-0.75112 3.00781-1.67868 4.24705-2.75896l3.83217-3.33614-0.28089 5.07224c-0.0533 0.94712-0.10903 1.35243-0.15855 1.70906-0.0429 0.3146-0.0811 0.58592-0.12317 1.36616-0.26425 5.15922-4.63864 8.31642-7.22199 9.73835-3.95534 2.18053-8.708 3.32906-13.74695 3.32906" fill="#ffcd05" stroke-width=".416133"/><path d="m153.41051 241.14486 0.46815 10.05002c0.0304 0.64376 0.0616 1.28502 0.0936 1.92587l0.0624 1.26837c0.0953 1.94043 0.26133 2.73524 1.17141 4.2587 0.10695 0.17769 0.23928 0.39741 0.40532 0.70035 1.87176 3.39648 5.33607 6.14754 10.01257 7.95314 3.6886 1.42109 7.83037 2.17179 11.9788 2.17179 5.39974 0 10.51069-1.24215 14.77979-3.59289 5.13633-2.82512 8.09462-6.91613 8.33057-11.51356 0.0362-0.67871 0.0658-0.8976 0.10486-1.17391 0.0641-0.46566 0.12193-0.92756 0.1752-1.88592l0.56261-10.14657-7.66392 6.67186c-1.09277 0.95295-2.3574 1.77356-3.75893 2.43854-3.71274 1.76773-8.08588 2.70029-12.64545 2.70029-4.82631 0-9.39878-1.04117-13.22179-3.00573-1.22884-0.63294-2.33284-1.37407-3.27996-2.20134l-7.56737-6.62068zm4.75473 9.84986c1.17516 1.02535 2.5509 1.96498 4.14011 2.7831 4.42557 2.2775 9.67426 3.48345 15.18427 3.48345 5.19251 0 10.2015-1.0782 14.48725-3.11517 1.84098-0.87513 3.40813-1.9217 4.73435-3.07814-0.0953 1.72862-0.18809 1.34869-0.28089 3.07814-0.18601 3.61994-3.13972 6.33895-6.11591 7.97643-3.76642 2.07318-8.24359 3.06066-12.70994 3.06066-3.61287 0-7.21991-0.64667-10.43412-1.88675-3.05317-1.17682-6.17833-3.07896-7.80291-6.02643-0.91716-1.65704-0.9571-1.27046-1.04574-3.08979-0.052-1.06114-0.1057-2.12644-0.15647-3.18758" fill="#1d1d1b" stroke-width=".416133"/><path d="m177.48588 254.81898c-5.07766 0-9.91312-0.9804-13.98332-2.83511-5.68812-2.5871-8.66472-6.60653-8.16327-11.03335 0.4386-3.89458 3.54794-7.24404 8.75377-9.43082 3.94202-1.65413 8.55194-2.52842 13.33206-2.52842 4.813 0 9.43831 0.88761 13.38409 2.56754 0.35204 0.12401 0.83684 0.31917 1.32579 0.60464 4.84462 2.41024 7.50621 5.8837 7.49622 9.79202-4e-3 4.21793-3.21254 7.98518-8.80412 10.33217-3.95118 1.65621-8.56443 2.53009-13.3433 2.53009" fill="#ffcd05" stroke-width=".416133"/><path d="m177.42595 226.84653c-5.06267 0-9.96014 0.93255-14.16266 2.69737-5.95403 2.50013-9.5257 6.46796-10.05502 11.17192-0.60381 5.32526 2.91376 10.2685 9.40876 13.22346 4.34485 1.97871 9.48825 3.02653 14.8701 3.02653 5.061 0 9.9618-0.93255 14.16932-2.69737 6.42759-2.69821 10.11619-7.18537 10.12119-12.31171 0.0121-4.74599-3.04901-8.88984-8.62436-11.68085-0.57759-0.33207-1.13979-0.56552-1.56466-0.71783-4.19379-1.77272-9.08709-2.70902-14.161-2.70902m0 4.29033c4.55998 0 8.90732 0.83601 12.61299 2.42397 0.34747 0.11902 0.73572 0.28713 1.07196 0.49021 2.61373 1.28793 6.3868 3.84465 6.37682 7.90028-4e-3 3.31533-2.73358 6.3635-7.48873 8.36053-3.68819 1.54593-8.0143 2.36238-12.51187 2.36238-4.76597 0-9.29724-0.91008-13.09529-2.64161-4.78428-2.17596-7.31062-5.3935-6.91945-8.83866 0.34664-3.08979 2.99865-5.82503 7.4521-7.69347 3.68819-1.54385 8.01264-2.35947 12.50147-2.35947" fill="#1d1d1b" stroke-width=".416133"/><path d="m220.65259 245.36028c-3.88834 0-7.76212-0.70035-11.20646-2.02948-4.20003-1.62-7.28066-4.03607-8.90982-6.9902-0.17977-0.32333-0.32333-0.56427-0.43902-0.75861-0.67247-1.12397-0.78566-1.55176-0.87138-3.25873l-0.40864-8.22737 3.80304 3.31658c1.08194 0.94337 2.33242 1.78313 3.71481 2.4943 4.12138 2.12103 9.03258 3.24334 14.20179 3.24334 4.87333 0 9.56398-1.00496 13.56635-2.9071 1.57423-0.74821 3.00156-1.6766 4.24372-2.75772l3.82384-3.33197-0.27256 5.06434c-0.0516 0.9571-0.10778 1.36242-0.1573 1.71862-0.0433 0.31751-0.0807 0.58675-0.12359 1.36242-0.26092 5.15215-4.63447 8.31143-7.21741 9.7371-3.95243 2.1847-8.70509 3.33322-13.74404 3.33322" fill="#669a40" stroke-width=".416133"/><path d="m196.42201 219.16472 0.50352 10.07874c0.0533 1.05864 0.10486 2.1152 0.15605 3.17675 0.0982 1.94543 0.26382 2.73816 1.17266 4.26287 0.10736 0.17686 0.23969 0.39824 0.40531 0.6991 1.87385 3.39731 5.33691 6.14837 10.01424 7.95314 3.68694 1.42109 7.82996 2.17096 11.97839 2.17096 5.39932 0 10.51026-1.24132 14.7802-3.58998 5.138-2.83511 8.09421-6.92278 8.32724-11.51939 0.0362-0.66706 0.067-0.88761 0.10528-1.16517 0.0666-0.48438 0.12276-0.92964 0.17478-1.89757l0.54596-10.13117-7.64894 6.66437c-1.09484 0.95294-2.35697 1.77231-3.75435 2.43771-3.71565 1.76565-8.09004 2.69903-12.64586 2.69903-4.82922 0-9.40044-1.04116-13.21971-3.00572-1.22967-0.63169-2.33534-1.37324-3.28703-2.20301l-7.60733-6.629zm4.78927 9.86235c1.17433 1.02327 2.54923 1.96373 4.14177 2.78434 4.42266 2.27625 9.67301 3.48054 15.18427 3.48054 5.19293 0 10.20067-1.07695 14.48684-3.11434 1.84139-0.87513 3.40563-1.92378 4.73226-3.07897-0.0936 1.73028-0.18684 1.34952-0.28089 3.07897-0.18351 3.61827-3.13764 6.33687-6.11133 7.97768-3.76766 2.07318-8.24525 3.05775-12.71161 3.05775-3.61328 0-7.22032-0.64542-10.43495-1.88467-3.05358-1.17599-6.17999-3.08188-7.80374-6.02519-0.91549-1.65621-0.95502-1.27128-1.04574-3.08978-0.0537-1.06114-0.10611-2.12228-0.15855-3.18342" fill="#1d1d1b" stroke-width=".416133"/><path d="m220.53275 232.85133c-5.07766 0-9.91229-0.97958-13.98373-2.83303-5.68438-2.58585-8.65973-6.60528-8.1637-11.03044 0.4411-3.89958 3.55086-7.24945 8.75669-9.43415 3.94494-1.65537 8.55361-2.52925 13.32956-2.52925 4.80842 0 9.4354 0.88678 13.38658 2.5667 0.34747 0.12193 0.82852 0.31793 1.32081 0.60465 4.84628 2.40816 7.50787 5.8837 7.49955 9.79285-5e-3 4.21668-3.21255 7.98351-8.80163 10.33216-3.95368 1.66037-8.56693 2.53425-13.34497 2.53425" fill="#669a40" stroke-width=".416133"/><path d="m220.47199 204.87887c-5.05768 0-9.9539 0.93297-14.16017 2.69613-5.95403 2.49971-9.5257 6.46587-10.05668 11.17234-0.59882 5.33066 2.9175 10.27182 9.40668 13.22512 4.34651 1.97871 9.48991 3.02445 14.87093 3.02445 5.05976 0 9.96014-0.93255 14.16974-2.69529 6.42925-2.70112 10.11619-7.18745 10.12118-12.31254 0.01-4.74642-3.05275-8.8936-8.62935-11.68377-0.57925-0.33041-1.1377-0.56344-1.55675-0.7145-4.19961-1.75192-9.09417-2.70902-14.16433-2.70902m0 4.29033c4.5604 0 8.90774 0.83559 12.61424 2.4248 0.3483 0.11819 0.73447 0.28714 1.07029 0.49021 2.6129 1.28627 6.38556 3.84423 6.37724 7.89945-3e-3 3.31367-2.73649 6.36309-7.4879 8.36053-3.69027 1.5451-8.01763 2.3603-12.51312 2.3603-4.7668 0-9.29557-0.908-13.09403-2.6387-4.7847-2.17471-7.3073-5.39641-6.91988-8.83824 0.34914-3.09229 2.99866-5.82586 7.45294-7.69597 3.68985-1.54801 8.01306-2.36363 12.50188-2.36363" fill="#1d1d1b" stroke-width=".416133"/><path d="m139.60322 215.91472c-4.93783 0-13.37243-1.94542-13.6579-9.23565-0.56053-14.35867-6.59779-86.34758-7.96229-102.53099l43.55247 0.16729c-2.36904 30.62114-7.84285 100.82068-8.27646 103.70031-0.36495 2.24712-2.15973 4.4106-4.92535 5.93323-2.30954 1.28169-5.40973 1.98079-8.73047 1.98079" fill="#fff" stroke-width=".416133"/><path d="m114.86828 101.26178s7.59443 89.54348 8.21862 105.51466c0.32376 8.27897 8.52698 11.9838 16.51549 11.9838 3.79055 0 7.38219-0.82436 10.11078-2.32369 3.54087-1.94833 5.86248-4.85835 6.37058-7.98476 0.52308-3.20131 8.54071-107.00025 8.54071-107.00025l-49.75701-0.20807zm6.22951 5.74264 37.35126 0.14398c-3.14971 40.69988-7.56905 96.97561-8.01514 100.42119-0.23262 1.32705-1.5605 2.80266-3.47055 3.85506-1.8726 1.02743-4.55416 1.61626-7.35723 1.61626-0.4307 0-10.54938-0.0732-10.79865-6.48752-0.53681-13.59506-5.9715-78.76147-7.71094-99.5265" fill="#010101" stroke-width=".416133"/><path d="m196.82815 57.026853c0 31.493354-25.53558 57.026857-57.02269 57.026857-31.49793 0-57.031017-25.534752-57.031017-57.026857 0-31.492938 25.532667-57.026853 57.031017-57.026853 31.48545 0 57.02269 25.55056 57.02269 57.010207" fill="#1d1d1b" stroke-width=".416133"/><path d="m177.43303 91.14975c-20.30812 20.3102-53.0403 20.50828-73.10623 0.445679-20.066346-20.069258-19.869099-52.803104 0.43985-73.110389 20.30937-20.3101989 53.04446-20.5074459 73.11039-0.439853 20.0626 20.057606 19.86411 52.807265-0.44609 73.114551" fill="#cb2027" stroke-width=".416133"/><path d="m170.90973 21.364263c8.2386 9.109982 9.38421 19.971882 5.27532 22.1932-4.14219 2.300383-11.76907-2.307041-18.84625-8.40422-6.95399-6.171251-11.45697-13.714908-8.51199-18.954021 2.86715-5.201662 13.83184-3.994876 22.085 5.160047" fill="#fff" stroke-width=".416133"/>
</svg>
