<svg xmlns="http://www.w3.org/2000/svg" height="309.494" width="340.69mm" viewBox="0 0 1207.157 290.15"><g stroke-linejoin="round" stroke-linecap="round" stroke-miterlimit="10" clip-rule="evenodd"><path d="m1187.94 265.92-43.586-54.013c-1.727-2.14-5.39-3.891-8.14-3.891h-45.201c-2.749 0-5-2.25-5-5v-3.76c0-2.75-2.249-5-5-5h-41.275c-2.75 0-5-2.25-5-5v-23.455c0-2.75 2.25-5 5-5h41.275c2.751 0 5-2.25 5-5v-3.756c0-2.75-2.249-5-5-5h-41.275c-2.75 0-5-2.25-5-5v-21.854c0-2.75 2.25-5 5-5h41.275c2.751 0 5-2.25 5-5v-3.751c0-2.75-2.249-5-5-5h-55.035c-2.75 0-5 2.25-5 5v96.576c0 2.75-2.25 5-5 5h-27.731c-2.75 0-5-2.25-5-5V95.436c0-2.75-2.25-5-5-5h-5.48c-2.75 0-5 2.25-5 5v107.58c0 2.75-2.25 5-5 5h-82.175c-2.75 0-5-2.25-5-5v-69.065c0-2.75 2.25-5 5-5h44.713c2.75 0 5-2.25 5-5V62.899c0-2.75-2.25-5-5-5H864.25c-2.749 0-5 2.25-5 5v140.12c0 2.75-2.249 5-5 5h-61.775c-2.75 0-5-2.25-5-5v-11.77c0-2.75 2.25-5 5-5h24.32c2.75 0 5-2.25 5-5v-74.806c0-2.75-2.25-5-5-5l-74.813-.002c-2.75 0-5 2.25-5 5v74.808c0 2.75 2.25 5 5 5h23.523c2.75 0 5 2.25 5 5v11.77c0 2.75-2.25 5-5 5h-61.771c-2.75 0-6.51-1.668-8.357-3.706l-39.167-43.237c-1.847-2.038-1.106-3.706 1.643-3.706h37.671c2.749 0 5-2.25 5-5v-45.929c0-2.75-2.251-5-5-5h-53.638c-2.75 0-5 2.25-5 5v96.578c0 2.75-2.25 5-5 5h-28.303c-2.75 0-5-2.25-5-5V76.659c0-2.75 2.25-5 5-5h47.293c2.75 0 5-2.25 5-5v-3.755c0-2.75-2.25-5-5-5h-118.35c-2.75 0-5 2.25-5 5v3.755c0 2.75 2.25 5 5 5h46.292c2.75 0 5 2.25 5 5v126.36c0 2.75-2.25 5-5 5l-27.16-.002c-2.749 0-5-2.25-5-5v-3.756c0-2.75-2.249-5-5-5H500.39c-2.751 0-5-2.25-5-5v-23.459c0-2.75 2.249-5 5-5h41.268c2.751 0 5-2.25 5-5v-3.754c0-2.75-2.249-5-5-5H500.39c-2.751 0-5-2.25-5-5v-21.854c0-2.75 2.249-5 5-5h41.268c2.751 0 5-2.25 5-5v-3.753c0-2.75-2.249-5-5-5h-55.027c-2.75 0-5 2.25-5 5v96.576c0 2.75-2.25 5-5 5h-34.474c-2.749 0-6.151-1.934-7.556-4.296l-41.959-70.473c-1.406-2.362-.307-4.296 2.444-4.296h45.083c2.75 0 5-2.25 5-5v-61.05c0-2.75-2.25-5-5-5h-61.051c-2.75 0-5 2.25-5 5v140.12c0 2.75-2.25 5-5 5h-45.032c-2.751 0-6.438-1.732-8.193-3.849l-44.294-53.399" stroke="#fff" stroke-width="10" fill="none"/><path d="m974.83 69.51-.251-.003-.251-.009-.249-.015-.249-.021-.25-.026-.251-.033-.248-.039-.246-.044-.25-.051-.245-.057-.245-.063-.245-.069-.243-.074-.241-.081-.241-.087-.237-.093-.222-.092-.135-.06-.117-.053-.115-.054-.116-.056-.116-.058-.116-.06-.115-.061-.114-.063-.113-.063-.112-.066-.112-.066-.113-.07-.109-.069-.111-.072-.11-.073-.107-.074-.11-.077-.108-.079-.103-.076-.103-.079-.107-.083-.106-.086-.103-.084-.1-.085-.102-.089-.097-.087-.101-.091-.099-.094-.094-.09-.083-.082-14.701-14.702-.083-.084-.089-.092-.093-.099-.093-.101-.089-.101-.088-.101-.083-.098-.086-.104-.084-.105-.081-.103-.08-.105-.08-.108-.079-.11-.074-.105-.074-.107-.073-.111-.072-.11-.07-.11-.066-.109-.071-.117-.063-.111-.063-.111-.064-.116-.061-.115-.061-.118-.056-.113-.055-.113-.056-.119-.054-.119-.058-.132-.091-.219-.094-.24-.087-.242-.08-.239-.076-.245-.069-.245-.062-.244-.056-.246-.051-.246-.044-.247-.039-.251-.033-.25-.027-.249-.02-.249-.015-.249-.01-.25v-.505l.01-.249.014-.249.021-.249.027-.249.033-.251.039-.251.044-.246.051-.246.056-.246.063-.245.069-.245.075-.245.08-.238.087-.242.094-.24.092-.22.057-.131.054-.119.056-.118.055-.114.056-.114.06-.117.063-.117.063-.115.063-.111.063-.11.071-.118.067-.11.068-.107.073-.112.074-.112.073-.106.074-.105.078-.108.081-.109.081-.107.08-.101.084-.106.086-.104.082-.096.089-.103.091-.102.09-.098.094-.101.089-.092.081-.083 14.699-14.698.082-.082.099-.095.098-.091.1-.092.1-.089.097-.084.104-.089.104-.085.102-.082.105-.083.105-.08.108-.08.104-.076.108-.076.111-.076.108-.072.109-.07.111-.071.113-.069.112-.067.11-.064.117-.066.114-.063.111-.058.118-.061.117-.059.115-.055.113-.054.119-.054.135-.059.221-.093.239-.093.24-.087.241-.08.243-.075.245-.069.245-.063.247-.056.246-.051.247-.044.249-.039.251-.033.249-.027.248-.021.251-.015.251-.009.251-.003.25.003.251.009.25.015.249.021.25.027.25.032.248.039.248.045.248.05.246.057.244.063.244.068.244.075.243.081.24.087.236.092.223.093.133.059.117.053.118.055.115.056.116.058.116.06.113.06.114.062.113.064.113.065.113.068.111.068.112.071.108.07.11.073.111.077.106.074.107.078.105.078.105.079.106.083.106.086.101.084.099.083.101.088.102.09.102.094.094.088.096.092.087.086 14.696 14.694.082.083.095.099.093.099.087.096.091.101.089.103.083.098.086.104.083.104.08.102.082.108.08.107.079.109.074.106.072.105.075.111.073.113.068.108.067.109.068.113.066.114.066.117.06.111.062.116.061.118.054.108.057.118.058.124.052.113.056.129.094.223.093.24.088.242.08.241.074.242.07.245.061.243.058.248.05.248.044.245.04.25.032.251.027.246.021.252.015.252.01.246v.505l-.01.247-.015.252-.021.252-.027.246-.032.251-.04.25-.044.244-.05.249-.058.248-.061.242-.069.246-.075.242-.08.241-.088.242-.093.24-.093.222-.057.129-.052.115-.058.123-.057.117-.054.109-.06.117-.063.117-.06.111-.065.115-.067.115-.067.113-.068.11-.068.108-.072.111-.075.112-.073.106-.073.105-.079.109-.08.107-.082.108-.081.103-.083.104-.086.104-.082.097-.089.103-.09.101-.088.096-.094.1-.094.098-.081.082-14.696 14.7-.083.082-.099.095-.097.092-.1.091-.101.089-.097.085-.102.087-.105.087-.104.083-.104.081-.105.081-.106.078-.106.077-.11.077-.107.074-.11.073-.11.072-.11.069-.113.07-.111.066-.11.064-.114.064-.118.065-.115.061-.114.059-.116.058-.116.056-.113.053-.119.054-.136.06-.22.092-.238.093-.24.087-.243.081-.242.074-.244.069-.246.063-.245.057-.249.051-.247.044-.248.039-.251.033-.25.026-.249.021-.249.015-.251.009-.251.003zm0-11.203 13.964-13.968-13.965-13.964-13.966 13.966 13.967 13.966z" fill-rule="evenodd" fill="#fff"/><g fill-rule="evenodd" fill="#fff"><g fill-rule="nonzero"><path d="m32.927 214.86 10.72 28.7c8.096 21.674 37.418 32.421 66.837 32.421 29.665 0 59.43-10.92 67.67-32.575l10.781-28.32c-3.322.884-6.713.298-10.182.708-4.867.575-4.976 6.46-9.041 9.011-5.572 3.497-11.331 2.223-17.358 1.198-6.832-1.155-8.778 2.825-14.032 5.683-7.465 4.061-14.156 1.6-21.393-1.186-6.556-2.524-11.007 1.158-17.072 2.755-6.616 1.742-14.558.399-19.234-4.914-4.044-4.598-11.319-1.462-16.27-1.058-6.13.501-13.555-1.81-15.947-8.056-2.11-5.51-9.56-2.714-14.282-3.98a13.15 13.15 0 0 1-1.2-.387z"/><path d="M89.455 131.09a21.679 21.679 0 0 0-2.043.051c-3.477.267-6.433 2.152-9.965 2.152-3.252 0-6.634-.059-9.61 1.489-4.86 2.527-12.056.935-16.075 5.09-3.245 3.356-9.368 1.669-13.076 5.177-.96.909-1.107 2.425-2.326 2.844-1.37.473-2.797.762-4.172 1.225-2.696.906-5.574 2.47-6.621 5.3-.673 1.817.235 2.056-1.6 2.812-1.267.521-2.504 1.136-3.592 1.98-1.993 1.546-2.524 3.673-2.813 6.201-.022.19.026 3.429.03 3.426-.96.78-1.804 1.718-2.416 2.797-1.451 2.557-1.17 5.28-.094 7.938 1.168 2.883 2.157 3.97 2.273 6.938-.124 1.423.562 2.9 1.08 4.174 2.21 5.422 3.467 9.565 10.054 9.705 1.331.028 1.957 5.255 2.453 6.572 1.222 3.25 4.15 5.486 7.447 6.37 4.462 1.196 11.498-1.447 13.49 3.758 2.26 5.9 9.276 8.084 15.065 7.611 4.678-.382 11.55-3.344 15.37 1 4.417 5.019 11.919 6.287 18.168 4.64 5.73-1.507 9.935-4.985 16.128-2.6 6.836 2.631 13.157 4.957 20.21 1.12 4.962-2.7 6.8-6.46 13.253-5.369 5.693.969 11.135 2.17 16.397-1.133 3.84-2.41 3.944-7.968 8.541-8.512 4.047-.478 7.98.483 11.818-1.515 4.64-2.415 5.717-7.662 6.749-12.356 4.083-.606 7.619-1.715 9.113-6.076.934-2.063 1.89-4.286 2.195-6.55a7.37 7.37 0 0 0-.103-2.712c.671-.87 1.345-1.646 1.822-2.652 2.303-4.855 1.768-10.52-2.922-13.634 1.241-4.444-.153-7.586-4.203-9.934-2.047-1.185-3.172-.991-3.785-3.226-.578-2.072-1.526-3.696-3.346-4.764-2.345-1.374-5.002-1.632-7.469-2.65-1.013-2.64-3.592-4.201-6.158-5.048-2.125-.7-4.34-.791-6.485-1.363-2.204-.592-3.451-2.649-5.713-3.47-2.45-.891-5.051-.974-7.615-1.243-2.762-.29-4.68-1.967-7.294-2.645-2.759-.724-5.472-.538-8.27-.707-2.812-.169-5.19-1.638-7.962-1.992-2.2-.28-4.402-.094-6.606-.008-1.041.041-2.043-.065-3.035-.21a8100.96 8100.96 0 0 1-1.479 18.486c5.838 1.99 9.635 5.156 9.635 8.734 0 6.027-10.721 10.913-23.945 10.913s-23.944-4.886-23.944-10.913c0-3.691 4.033-6.95 10.19-8.924-.364-5.125-.856-11.516-1.376-18.154-1.79.046-3.578-.113-5.37-.143zm76.168 23.802c3.482 0 6.845.646 9.73 1.865.288.104.671.263 1.069.49 3.83 1.917 5.935 4.764 5.928 8.024 0 .701-.107 1.385-.303 2.045l-.236 4.373c-.036.665-.074.973-.12 1.305-.026.19-.047.34-.072.799-.16 3.156-2.19 5.965-5.719 7.912-2.932 1.613-6.444 2.467-10.152 2.467-2.85 0-5.696-.517-8.229-1.492-1.897-.732-3.493-1.696-4.756-2.838a7.158 7.158 0 0 1-.273 2.533l-.244 4.408c-.037.659-.077.976-.121 1.295-.027.19-.048.341-.073.807-.162 3.158-2.193 5.967-5.72 7.908-2.933 1.615-6.442 2.469-10.15 2.469-2.85 0-5.696-.518-8.23-1.494-3.212-1.24-5.59-3.128-6.877-5.461a11.533 11.533 0 0 0-.28-.48c-.625-1.047-.738-1.593-.804-2.927l-.043-.87c-.022-.441-.044-.882-.064-1.323l-.203-4.367a7.044 7.044 0 0 1-.258-2.832c.364-3.232 2.816-5.955 6.906-7.672 2.887-1.212 6.252-1.852 9.729-1.852 3.485 0 6.845.643 9.727 1.861.291.105.68.265 1.076.492a14.123 14.123 0 0 1 2.719 1.754c-.006-.098-.016-.175-.022-.283a775.89 775.89 0 0 0-.107-2.18l-.223-4.44a7.06 7.06 0 0 1-.238-2.769c.364-3.232 2.819-5.957 6.908-7.674 2.89-1.21 6.251-1.853 9.725-1.853zm0 2.95c-3.083 0-6.052.56-8.585 1.622-3.06 1.284-4.881 3.161-5.12 5.285-.01.081.001.16-.003.24h-.017l.013.202c0 .23.015.456.051.682l.492 6.842.047.953c.063 1.25.09.985.719 2.123 1.115 2.022 3.262 3.33 5.36 4.139 2.208.85 4.686 1.294 7.168 1.294 3.068 0 6.143-.677 8.73-2.101 2.043-1.126 4.072-2.994 4.198-5.479.06-1.095.12-1.005.18-1.906-.008.006-.018.011-.026.018l.533-6.005h-.004c.02-.16.043-.32.043-.482.006-2.785-2.584-4.544-4.379-5.428a3.879 3.879 0 0 0-.734-.336c-2.546-1.091-5.534-1.664-8.666-1.664zm-29.565 15.087c-3.083 0-6.055.56-8.588 1.624-3.06 1.283-4.88 3.162-5.12 5.285-.05.446-.008.884.082 1.314l.522 8.104h.016c.057.66.166.688.683 1.623 1.116 2.025 3.262 3.332 5.36 4.14 2.208.852 4.686 1.296 7.168 1.296 3.068 0 6.141-.678 8.729-2.102 2.043-1.125 4.073-2.992 4.2-5.479l.005-.052h.006l.098-1.176c.022-.178.047-.332.07-.68l-.014.01.479-5.695c.05-.258.081-.52.082-.784.007-2.785-2.584-4.542-4.38-5.425a3.806 3.806 0 0 0-.736-.336c-2.545-1.093-5.53-1.666-8.662-1.666z"/><path d="M93.734 91.434c1.338 15.965 4.653 55.955 4.997 64.766.222 5.686 5.857 8.23 11.344 8.23 2.604 0 5.071-.565 6.945-1.595 2.433-1.338 4.027-3.338 4.376-5.485.321-1.967 4.342-53.847 5.276-65.912a41.337 41.337 0 0 1-16.46 3.402 41.35 41.35 0 0 1-16.478-3.409z"/><path d="M110.215 14.176c-21.634 0-39.172 17.538-39.172 39.17 0 21.63 17.538 39.168 39.172 39.168 21.628 0 39.166-17.537 39.166-39.168 0-21.632-17.539-39.17-39.166-39.17zm10.408 9.033c-85.136 182.685-42.568 91.343 0 0z"/></g><path d="M134.527 185.364h.357v1.428h-.357z"/></g></g></svg>