<svg width="1257.3475" height="279.25977" version="1.1" viewBox="0 0 1178.7513 261.80548" xmlns="http://www.w3.org/2000/svg"><path d="m96.030497 0c-21.633981 0-39.171672 17.537861-39.171672 39.169839 0 21.629979 17.537691 39.168008 39.171672 39.168008 21.627983 0 39.166173-17.537029 39.166173-39.168008 0-21.631978-17.53919-39.169839-39.166173-39.169839zm864.613043 4.996938-0.25086 0.0037-0.25085 0.0092-0.25086 0.01465-0.24902 0.02014-0.24902 0.02747-0.25085 0.03296-0.24903 0.03845-0.24719 0.04394-0.24536 0.05127-0.24719 0.05676-0.24536 0.06226-0.24536 0.06958-0.2417 0.07507-0.2417 0.08057-0.23987 0.08606-0.23987 0.09338-0.21972 0.09338-0.1355 0.05859-0.11902 0.0531-0.11352 0.05493-0.11353 0.05493-0.11719 0.05859-0.11901 0.06042-0.10987 0.05859-0.11535 0.06226-0.11719 0.06775-0.10986 0.06226-0.1117 0.06775-0.11352 0.06958-0.10987 0.07141-0.10986 0.06958-0.10803 0.07141-0.10986 0.0769-0.10804 0.07507-0.10437 0.0769-0.10803 0.07874-0.10437 0.08057-0.1062 0.0824-0.10071 0.0824-0.10437 0.08606-0.10437 0.08789-0.097 0.08423-0.10071 0.08972-0.1978 0.1831-0.0989 0.09338-0.0824 0.0824-14.69784 14.697845-0.0824 0.08423-0.0879 0.09155-0.0934 0.100708-0.0916 0.09888-0.0897 0.100708-0.0897 0.10437-0.0824 0.09521-0.0861 0.10437-0.0842 0.1062-0.0787 0.100708-0.0806 0.106201-0.0824 0.109863-0.0769 0.108032-0.0751 0.10437-0.0732 0.106201-0.0732 0.111694-0.0733 0.111694-0.0677 0.108032-0.0677 0.109863-0.0696 0.117188-0.0641 0.109863-0.0623 0.111694-0.0641 0.115356-0.0623 0.117187-0.0604 0.117187-0.0549 0.113526-0.0549 0.113525-0.0568 0.119018-0.0531 0.119018-0.0586 0.130005-0.0916 0.219726-0.0934 0.239868-0.0879 0.241698-0.0787 0.238037-0.0751 0.245361-0.0696 0.245361-0.0623 0.24536-0.0568 0.245361-0.0513 0.247192-0.0439 0.245361-0.0385 0.250854-0.033 0.250854-0.0275 0.249023-0.0201 0.249023-0.0146 0.249023-0.011 0.249023v0.50537l0.011 0.249022 0.0146 0.249023 0.0201 0.249023 0.0275 0.249023 0.033 0.250854 0.0385 0.250854 0.0439 0.247192 0.0513 0.245361 0.0568 0.245361 0.0604 0.24536 0.0696 0.245361 0.0769 0.24353 0.0787 0.239868 0.0879 0.241698 0.0934 0.239868 0.0916 0.219726 0.0586 0.131836 0.0531 0.119018 0.0568 0.119018 0.0549 0.111694 0.0549 0.113526 0.0622 0.119018 0.0604 0.113525 0.0641 0.117187 0.0623 0.109863 0.0641 0.111694 0.0696 0.117188 0.0659 0.108032 0.0714 0.111694 0.0714 0.109863 0.0732 0.109863 0.0732 0.108032 0.0751 0.10437 0.0787 0.109863 0.0806 0.108032 0.0787 0.10437 0.0806 0.10437 0.0842 0.10437 0.0861 0.104369 0.0842 0.09705 0.0879 0.100708 0.0879 0.102539 0.0934 0.100708 0.0934 0.09888 0.0879 0.09155 0.0842 0.08423 14.70151 14.701507 0.0824 0.0824 0.0934 0.08972 0.0989 0.09521 0.10071 0.08972 0.0971 0.08789 0.10254 0.08789 0.1007 0.08606 0.10254 0.08423 0.1062 0.08606 0.1062 0.0824 0.10437 0.07874 0.10254 0.0769 0.10803 0.07874 0.10987 0.0769 0.1062 0.07324 0.10986 0.07324 0.1117 0.07141 0.10986 0.06958 0.11169 0.06958 0.1117 0.06592 0.11352 0.06592 0.1117 0.06409 0.11535 0.06226 0.11353 0.06226 0.11718 0.05859 0.11536 0.05859 0.11536 0.05676 0.11535 0.0531 0.11719 0.0531 0.1355 0.06042 0.22156 0.09155 0.23803 0.09338 0.23987 0.08606 0.2417 0.0824 0.2417 0.07324 0.24536 0.06958 0.24536 0.06226 0.24536 0.05676 0.24902 0.05127 0.24719 0.04394 0.2472 0.03845 0.25085 0.03296 0.25085 0.02747 0.24903 0.02014 0.24902 0.01465 0.25085 0.0092 0.25086 0.0037 0.25085-0.0037 0.25086-0.0092 0.24902-0.01465 0.24902-0.02014 0.25086-0.02747 0.25085-0.03296 0.24719-0.03845 0.24719-0.04394 0.24903-0.05127 0.24536-0.05676 0.24536-0.06226 0.24353-0.06958 0.24353-0.07324 0.2417-0.0824 0.23986-0.08606 0.23804-0.09338 0.21973-0.09155 0.13733-0.06042 0.11901-0.0531 0.1117-0.0531 0.11718-0.05676 0.11536-0.05859 0.11353-0.05859 0.11535-0.06042 0.11902-0.06592 0.11353-0.06409 0.10986-0.06409 0.11169-0.06592 0.1117-0.06958 0.10986-0.06958 0.11169-0.07141 0.10987-0.07324 0.1062-0.07324 0.10986-0.0769 0.1062-0.0769 0.1062-0.07874 0.20874-0.16114 0.10437-0.08423 0.10437-0.08606 0.10254-0.08789 0.097-0.08423 0.10071-0.08972 0.1007-0.08972 0.097-0.09338 0.0989-0.09521 0.0824-0.08057 14.69602-14.701507 0.0806-0.08057 0.0952-0.09888 0.0934-0.09888 0.0879-0.09705 0.0897-0.100708 0.0897-0.102539 0.0806-0.09705 0.0861-0.10437 0.0842-0.104369 0.0806-0.102539 0.0824-0.108032 0.0787-0.108032 0.0806-0.108032 0.0733-0.10437 0.0714-0.106201 0.0751-0.111694 0.0732-0.111694 0.0678-0.108032 0.0678-0.109863 0.0677-0.113526 0.0659-0.115356 0.0659-0.113525 0.0586-0.111694 0.0641-0.117187 0.0604-0.117187 0.0531-0.108032 0.0568-0.117188 0.0586-0.12268 0.0513-0.115356 0.0568-0.130005 0.0934-0.221557 0.0934-0.239868 0.0879-0.241698 0.0806-0.241699 0.0751-0.241699 0.0678-0.245361 0.0623-0.243529 0.0568-0.247192 0.0513-0.249023 0.0439-0.24353 0.0403-0.250854 0.0311-0.250854 0.0275-0.245361 0.0201-0.252685 0.0146-0.250854 0.011-0.247192v-0.50537l-0.011-0.24536-0.0146-0.252685-0.0201-0.252685-0.0275-0.245361-0.0311-0.250854-0.0403-0.250854-0.0439-0.24353-0.0513-0.249023-0.0568-0.247192-0.0623-0.243529-0.0696-0.245361-0.0732-0.241699-0.0806-0.241699-0.0879-0.241698-0.0934-0.239868-0.0934-0.223388-0.0568-0.128174-0.0513-0.113525-0.0586-0.124511-0.0568-0.117188-0.0531-0.108032-0.1246-0.234374-0.0586-0.109863-0.0659-0.117187-0.0659-0.115357-0.0696-0.111694-0.0659-0.109863-0.0678-0.108032-0.0732-0.113525-0.0751-0.109863-0.0714-0.10437-0.0751-0.106201-0.0787-0.109863-0.0806-0.106201-0.0824-0.108032-0.0787-0.102539-0.0842-0.10437-0.0861-0.104369-0.0824-0.09705-0.0879-0.102539-0.0915-0.102539-0.0879-0.09521-0.0915-0.09888-0.0952-0.09888-0.0824-0.0824-14.69602-14.694183-0.0879-0.08606-0.0952-0.09338-0.0934-0.08789-0.10254-0.09338-0.10253-0.08972-0.10071-0.08789-0.0989-0.0824-0.10071-0.08423-0.1062-0.08606-0.1062-0.08423-0.10437-0.07873-0.1062-0.07691-0.1062-0.07874-0.1062-0.07324-0.1117-0.0769-0.10986-0.07324-0.10803-0.07141-0.11169-0.06958-0.10987-0.06775-0.11352-0.06958-0.11353-0.06409-0.11352-0.06409-0.11353-0.06226-0.11352-0.06043-0.23072-0.11718-0.11535-0.05676-0.11902-0.05493-0.11536-0.0531-0.13366-0.05859-0.22339-0.09338-0.23621-0.09155-0.23986-0.08606-0.24353-0.0824-0.24353-0.07507-0.24353-0.06775-0.24353-0.06226-0.2472-0.05676-0.24719-0.05127-0.24902-0.04394-0.24719-0.04028-0.24903-0.03113-0.25085-0.02747-0.24902-0.02014-0.25086-0.01465-0.25085-0.0092zm0 11.202369 13.96542 13.963593-13.96359 13.967256-13.96726-13.965424zm-110.57899 22.523756c-5.47726 0-9.99937 4.520895-9.99937 9.999369v140.121158h-61.77599v-11.77183h24.32184c5.47727 0 9.99937-4.52211 9.99937-9.99936v-74.805745c0-5.47727-4.5221-9.999373-9.99937-9.999373l-74.81307-0.0018c-5.47726 0-10.0012 4.522104-10.0012 9.999364v74.807594c0 5.47725 4.52394 9.99936 10.0012 9.99936h23.52351v11.77183h-61.77233c-0.72818 0-4.16154-1.52348-4.6527-2.06543l-34.95293-38.58573h31.3952c5.47725 0 9.99937-4.52089 9.99937-9.99937v-45.928254c0-5.47847-4.52212-9.999364-9.99937-9.999364h-53.63697c-5.47727 0-9.99937 4.522104-9.99937 9.999364v96.578784h-28.30439v-126.360852h47.29422c5.47726 0 9.99936-4.523938 9.99936-10.001199v-3.753654c0-5.477262-4.5221-9.999369-9.99936-9.999369h-118.3518c-5.47727 0-9.99937 4.522107-9.99937 9.999369v3.753654c0 5.477261 4.5221 10.001199 9.99937 10.001199h46.29262v126.360812l-27.15997-2e-3v-3.75549c0-5.47605-4.5221-10.0012-9.99937-10.0012h-41.26823v-23.45759h41.26823c5.47727 0 9.99937-4.52514 9.99937-10.0012v-3.75365c0-5.47606-4.5221-9.99937-9.99937-9.99937h-41.26823v-21.85542h41.26823c5.47727 0 9.99937-4.52516 9.99937-10.001195v-3.75183c0-5.47605-4.5221-9.999364-9.99937-9.999364h-55.02674c-5.47727 0-10.0012 4.522104-10.0012 9.999364v96.576945h-34.47503c-0.4039 0-3.05233-1.50819-3.25744-1.85302a5.0005 5.0005 0 0 0-2e-3 0l-40.01761-67.21422h41.29202c5.47727 0 9.99937-4.5221 9.99937-9.99937v-61.048886c0-5.477262-4.5221-9.999369-9.99937-9.999369h-61.05272c-5.47727 0-10.0012 4.522106-10.0012 9.999369v140.119326h-45.03104c-0.65236 0-3.92902-1.54011-4.34325-2.03979a5.0005 5.0005 0 0 0 0-2e-3l-44.29495-53.3971a5 5 0 0 0-7.04039-0.65735 5 5 0 0 0-0.65735 7.04222l44.29312 53.39527c3.09576 3.73432 7.1932 5.65795 12.04282 5.65795h45.03104c5.47725 0 10.0012-4.5221 10.0012-9.99937v-140.119156h61.05272v61.049056h-45.08413c-2.5472 0-5.58611 1.07855-7.12828 3.79028-1.54216 2.71173-0.91449 5.87554 0.38818 8.06395a5.0005 5.0005 0 0 0 0 2e-3l41.95853 70.47165c2.60493 4.37827 6.75702 6.73827 11.85056 6.73827h34.47503c5.47726 0 10.0012-4.52211 10.0012-9.99937v-96.576945h55.02674v3.75183h-41.26806c-5.47726 0-9.99935 4.525135-9.99936 10.001195v21.85542c0 5.47604 4.5221 9.99937 9.99936 9.99937h41.26823v3.75365h-41.26823c-5.47726 0-9.99935 4.52516-9.99936 10.0012v23.45759c0 5.47605 4.5221 10.0012 9.99936 10.0012h41.26823v3.75549c0 5.47847 4.52211 9.99937 9.99937 9.99937l27.15997 2e-3c5.47727 0 10.0012-4.52211 10.0012-9.99937v-126.361152c0-5.477261-4.52393-10.001199-10.0012-10.001199h-46.29262v-3.753654h118.3518v3.753654h-47.29422c-5.47726 0-10.0012 4.523938-10.0012 10.001199v126.360812c0 5.47726 4.52394 9.99937 10.0012 9.99937h28.30439c5.47726 0 9.99937-4.52211 9.99937-9.99937v-96.578775h53.63697v45.928245h-37.67021c-2.38578 0-5.66155 0.78569-7.11546 4.0631-1.45392 3.27742 0.16606 6.23323 1.76879 8.0017h-4e-3l39.16801 43.2366c3.20283 3.53405 7.29115 5.3485 12.06296 5.3485h61.77233c5.47726 0 9.99937-4.52211 9.99937-9.99937v-11.77183c0-5.47726-4.52211-9.99936-9.99937-9.99936h-23.52351v-74.807585l74.81124 2e-3v74.805745h-24.32001c-5.47727 0-9.99937 4.5221-9.99937 9.99936v11.77183c0 5.47726 4.5221 9.99937 9.99937 9.99937h61.77599c5.47727 0 9.99937-4.52332 9.99937-9.99937v-140.121318h61.05456v61.052718h-44.71243c-5.47727 0-9.99937 4.52211-9.99937 9.99937v69.06541c0 5.47726 4.5221 9.99937 9.99937 9.99937h82.17573c5.47726 0 10.00119-4.52211 10.00119-9.99937v-107.579726h5.47851v107.579726c0 5.47726 4.52211 9.99937 9.99937 9.99937h27.73306c5.4773 0 9.9994-4.52211 9.9994-9.99937v-96.576945h55.0359v3.75183h-41.2756c-5.4773 0-10.0012 4.523925-10.0012 10.001195v21.85359c0 5.47726 4.5239 9.99937 10.0012 9.99937h41.2756v3.75548h-41.2756c-5.4773 0-10.0012 4.52394-10.0012 10.0012v23.45393c0 5.47727 4.5239 9.99937 10.0012 9.99937h41.2756v3.76098c0 5.47847 4.5221 9.99937 9.9994 9.99937h45.2013c0.6276 0 3.8539 1.54408 4.248 2.03246l43.5863 54.01234a5 5 0 0 0 7.0313 0.75073 5 5 0 0 0 0.7507-7.03123l-43.5882-54.01234c-3.0597-3.79161-7.1556-5.75133-12.0281-5.75133h-45.2013v-3.76098c0-5.47605-4.5222-9.99937-9.9994-9.99937h-41.2756v-23.45393h41.2756c5.4772 0 9.9994-4.52514 9.9994-10.0012v-3.75548c0-5.47605-4.5222-9.99937-9.9994-9.99937h-41.2756v-21.85359h41.2756c5.4772 0 9.9994-4.52516 9.9994-10.001195v-3.75183c0-5.47604-4.5222-9.999365-9.9994-9.999365h-55.0359c-5.4773 0-9.9994 4.522115-9.9994 9.999365v96.576945h-27.73272v-107.579726c0-5.477261-4.52211-10.001199-9.99937-10.001199h-5.47851c-5.47726 0-10.00119 4.523938-10.00119 10.001199v107.579726h-82.17573v-69.06541h44.71243c5.47725 0 10.0012-4.5221 10.0012-9.99937v-61.052718c0-5.477262-4.52395-9.999369-10.0012-9.999369zm-770.515344 38.532633v0.0018c1.337999 15.964988 4.652938 55.955104 4.996938 64.766094 0.222 5.686 5.856363 8.23057 11.343363 8.23057 2.60399 0 5.071173-0.56484 6.945173-1.59484 2.433-1.338 4.02721-3.33883 4.37621-5.48583 0.321-1.967 4.34309-53.847346 5.27709-65.912331a41.337 41.337 0 0 1-16.461143 3.402092 41.35 41.35 0 0 1-16.477631-3.407586zm-4.280996 39.658724a21.679 21.679 0 0 0-2.041622 0.0513c-3.476997 0.267-6.432582 2.15149-9.964579 2.15149-3.251996 0-6.633357-0.0594-9.609354 1.48864-4.859995 2.527-12.055799 0.93532-16.074795 5.09032-3.244997 3.356-9.369369 1.66838-13.077365 5.17638-0.959999 0.909-1.106436 2.42462-2.325435 2.84362-1.369999 0.473-2.796135 0.76198-4.171134 1.22498-2.695997 0.906-5.57408 2.47089-6.621079 5.30089-0.673 1.817 0.234659 2.05649-1.600339 2.81249-1.266999 0.521-2.504523 1.13537-3.592521 1.97937-1.992998 1.546-2.523495 3.67377-2.812495 6.20177-0.022 0.19 0.0253 3.42889 0.0293 3.42589-0.959999 0.78-1.803156 1.71702-2.41515596 2.79602-1.450998 2.557-1.171213 5.27961-0.09521 7.9376 1.16799796 2.883 2.15816496 3.97169 2.27416496 6.93969-0.124 1.42299 0.56232 2.89896 1.08032 4.17296 2.209997 5.422 3.465475 9.56457 10.052469 9.70457 1.330998 0.028 1.957608 5.25647 2.453608 6.57347 1.221999 3.25 4.149887 5.4844 7.446883 6.3684 4.461996 1.196 11.499185-1.44585 13.491183 3.75914 2.259998 5.9 9.275061 8.08285 15.064055 7.60985 4.677995-0.382 11.549844-3.34241 15.36984 1.00159 4.416996 5.01899 11.918693 6.28688 18.167685 4.63988 5.73-1.507 9.9349-4.98509 16.127896-2.60009 6.83599 2.63099 13.15814 4.95577 20.21114 1.11877 4.96199-2.7 6.80015-6.45964 13.25314-5.36864 5.693 0.969 11.13507 2.16957 16.39706-1.13342 3.84-2.41 3.94303-7.96673 8.54002-8.51073 4.047-0.478 7.97961 0.48189 11.8176-1.51611 4.64-2.41499 5.71726-7.66193 6.74926-12.35593 4.08299-0.606 7.61914-1.71443 9.11314-6.07542 0.934-2.063 1.89043-4.28568 2.19543-6.54967a7.37 7.37 0 0 0-0.10254-2.71179c0.671-0.87 1.3449-1.64719 1.82189-2.65319 2.303-4.855 1.76764-10.52001-2.92235-13.63401 1.241-4.44399-0.15227-7.58545-4.20226-9.93345-2.047-1.185-3.17362-0.99131-3.78662-3.22631-0.578-2.072-1.52533-3.69639-3.34533-4.76439-2.34499-1.374-5.00186-1.63153-7.46885-2.64953-1.013-2.64-3.59183-4.20121-6.15783-5.04821-2.125-0.7-4.34058-0.7903-6.48558-1.3623-2.204-0.592-3.45088-2.64884-5.71288-3.46984-2.45-0.891-5.05134-0.97429-7.61534-1.24329-2.762-0.29-4.67908-1.96787-7.29307-2.64587-2.759-0.72399-5.47286-0.53778-8.27086-0.70678-2.812-0.169-5.18941-1.63818-7.96141-1.99218-2.2-0.28-4.40243-0.0933-6.60643-7e-3 -1.041 0.041-2.04205-0.0656-3.03405-0.21057a8100.96 8100.96 0 0 1-1.47949 18.48629c5.83799 1.99 9.63499 5.15612 9.63499 8.73411 0 6.027-10.72067 10.91307-23.944646 10.91307-13.223989 0-23.944654-4.88607-23.944654-10.91307 0-3.69099 4.032804-6.95054 10.189798-8.92454-0.364-5.12499-0.85512-11.51504-1.375119-18.15304-1.789389 0.046-3.577256-0.11274-5.368641-0.14282zm76.16989 23.80183c3.48199 0 6.8452 0.64501 9.7302 1.86401 0.288 0.104 0.67133 0.26372 1.06933 0.49072 3.83 1.917 5.93411 4.76367 5.92711 8.02367 0 0.701-0.10612 1.38528-0.30212 2.04528l-0.2362 4.37255c-0.036 0.665-0.0748 0.97354-0.12085 1.30554-0.026 0.19-0.0464 0.33934-0.0714 0.79834-0.16 3.15599-2.18938 5.96497-5.71838 7.91197-2.93199 1.613-6.44518 2.46825-10.15317 2.46825-2.85 0-5.69575-0.5173-8.22875-1.4923-1.89699-0.732-3.49224-1.69613-4.75523-2.83813a7.158 7.158 0 0 1-0.27283 2.53234l-0.24536 4.40917c-0.037 0.659-0.0769 0.97556-0.12085 1.29456-0.027 0.19-0.0482 0.34149-0.0732 0.80749-0.162 3.158-2.19138 5.96548-5.71837 7.90648-2.933 1.61499-6.44335 2.47008-10.15135 2.47008-2.85 0-5.69475-0.51813-8.22874-1.49413-3.212-1.24-5.59043-3.12903-6.87743-5.46203a11.533 11.533 0 0 0-0.28015-0.47973c-0.625-1.047-0.73783-1.59202-0.80383-2.92602l-0.0439-0.86975c-0.022-0.441-0.0441-0.88285-0.0641-1.32385l-0.20142-4.36706a7.044 7.044 0 0 1-0.25818-2.8308c0.364-3.232 2.8149-5.95511 6.90489-7.67211 2.887-1.21199 6.25321-1.85302 9.73021-1.85302 3.485 0 6.84454 0.64235 9.72654 1.86035 0.291 0.105 0.68066 0.26555 1.07666 0.49255a14.123 14.123 0 0 1 2.71728 1.75415c-6e-3 -0.098-0.016-0.17398-0.022-0.28198a775.89 775.89 0 0 0-0.10621-2.18079l-0.22338-4.44029a7.06 7.06 0 0 1-0.23804-2.76855c0.364-3.232 2.81956-5.95694 6.90855-7.67394 2.89-1.20999 6.25072-1.85302 9.72472-1.85302zm0 2.94799v2e-3c-3.083 0-6.05097 0.56032-8.58397 1.62231-3.06 1.284-4.88245 3.16042-5.12145 5.28442-0.01 0.081 2e-3 0.15986-2e-3 0.23986h-0.0183l0.0128 0.20325c0 0.23 0.0153 0.45515 0.0513 0.68115l0.49255 6.84264 0.0476 0.95215c0.063 1.24999 0.0888 0.98602 0.71777 2.12401 1.115 2.022 3.26332 3.32918 5.36131 4.13818 2.208 0.85 4.68474 1.29455 7.16674 1.29455 3.06799 0 6.14345-0.67805 8.73045-2.10204 2.043-1.126 4.0726-2.99351 4.1986-5.47851 0.06-1.095 0.11944-1.00512 0.17944-1.90612-8e-3 6e-3 -0.0176 0.0113-0.0256 0.0183l0.53284-6.00585h-4e-3c0.02-0.16 0.0421-0.31956 0.0421-0.48156 6e-3 -2.785-2.58304-4.54324-4.37804-5.42724a3.879 3.879 0 0 0-0.73425-0.33691c-2.546-1.091-5.53437-1.66443-8.66636-1.66443zm-29.56415 15.08786c-3.083 0-6.05646 0.56014-8.58946 1.62414-3.06 1.283-4.87962 3.16325-5.11962 5.28625-0.05 0.446-8e-3 0.88286 0.0824 1.31286l0.52185 8.10423h0.0165c0.057 0.66 0.16598 0.68914 0.68298 1.62414 1.116 2.025 3.26149 3.33201 5.35949 4.14001 2.20799 0.852 4.68656 1.29455 7.16856 1.29455 3.068 0 6.14062-0.67805 8.72862-2.10204 2.043-1.125 4.07343-2.99151 4.20043-5.47851l4e-3 -0.0513h7e-3l0.097-1.17736c0.022-0.178 0.0484-0.33132 0.0714-0.67932l-0.0147 0.011 0.47791-5.6964c0.05-0.258 0.0814-0.51969 0.0824-0.78369 7e-3 -2.78499-2.58388-4.5424-4.37988-5.4254a3.806 3.806 0 0 0-0.73608-0.33508c-2.545-1.093-5.52887-1.66626-8.66087-1.66626zm-103.13211 41.93106 10.720802 28.70173c8.095992 21.67397 37.418047 32.42058 66.837015 32.42058 29.664973 0 59.430163-10.92124 67.670153-32.57622l10.78122-28.31904c-3.32199 0.884-6.71347 0.29862-10.18247 0.70862-4.86699 0.575-4.97673 6.45961-9.04173 9.0106-5.57199 3.497-11.33137 2.22251-17.35836 1.19751-6.83199-1.155-8.77735 2.82558-14.03134 5.68358-7.46499 4.061-14.15518 1.59948-21.39217-1.18652-6.555993-2.524-11.007723 1.15873-17.07272 2.75573-6.615993 1.742-14.557362 0.39846-19.233358-4.91454-4.043995-4.59799-11.319722-1.46235-16.270717-1.05835-6.129994 0.501-13.554624-1.81063-15.946622-8.05662-2.109997-5.50999-9.560201-2.71287-14.282196-3.97887a13.15 13.15 0 0 1-1.197507-0.38819z" clip-rule="evenodd" color="#000000" stroke-linecap="round" stroke-linejoin="round" stroke-miterlimit="10" style="-inkscape-stroke:none"/></svg>
