<?xml version="1.0" encoding="UTF-8" standalone="no"?>
<!DOCTYPE svg PUBLIC "-//W3C//DTD SVG 1.1//EN" "http://www.w3.org/Graphics/SVG/1.1/DTD/svg11.dtd">
<svg width="100%" height="100%" viewBox="0 0 83 50" version="1.1" xmlns="http://www.w3.org/2000/svg" xmlns:xlink="http://www.w3.org/1999/xlink" xml:space="preserve" xmlns:serif="http://www.serif.com/" style="fill-rule:evenodd;clip-rule:evenodd;stroke-linejoin:round;stroke-miterlimit:2;">
    <g transform="matrix(1,0,0,1,-5174.04,-57.9595)">
        <g transform="matrix(1,0,0,1,-1752.39,-116.404)">
            <g transform="matrix(1.06819,0,0,1.03988,1399.37,110.989)">
                <path d="M5251.16,77.627C5251.16,68.419 5243.88,60.944 5234.92,60.944L5190.46,60.944C5181.5,60.944 5174.22,68.419 5174.22,77.627L5174.22,91.926C5174.22,101.134 5181.5,108.609 5190.46,108.609L5234.92,108.609C5243.88,108.609 5251.16,101.134 5251.16,91.926L5251.16,77.627Z" fill="white"/>
            </g>
        </g>
        <g transform="matrix(1,0,0,1,-1752.39,-116.404)">
            <g transform="matrix(1.06819,0,0,1.03988,1399.37,110.989)">
                <path d="M5251.16,77.627C5251.16,68.419 5243.88,60.944 5234.92,60.944L5190.46,60.944C5181.5,60.944 5174.22,68.419 5174.22,77.627L5174.22,91.926C5174.22,101.134 5181.5,108.609 5190.46,108.609L5234.92,108.609C5243.88,108.609 5251.16,101.134 5251.16,91.926L5251.16,77.627ZM5247.41,77.627L5247.41,91.926C5247.41,99.011 5241.81,104.762 5234.92,104.762L5190.46,104.762C5183.57,104.762 5177.97,99.011 5177.97,91.926C5177.97,91.926 5177.97,77.627 5177.97,77.627C5177.97,70.542 5183.57,64.791 5190.46,64.791C5190.46,64.791 5234.92,64.791 5234.92,64.791C5241.81,64.791 5247.41,70.542 5247.41,77.627Z"/>
            </g>
        </g>
        <g transform="matrix(1,0,0,1,-1752.39,-116.404)">
            <g transform="matrix(1.18571,0,0,1.18571,-790.352,99.3051)">
                <path d="M6536.38,87.056L6533.8,87.056L6533.8,92.826L6530.55,92.826L6530.55,77.064L6536.4,77.064C6538.27,77.064 6539.7,77.479 6540.71,78.309C6541.72,79.139 6542.23,80.312 6542.23,81.828C6542.23,82.903 6541.99,83.8 6541.53,84.518C6541.06,85.236 6540.36,85.808 6539.41,86.234L6542.82,92.675L6542.82,92.826L6539.34,92.826L6536.38,87.056ZM6544.7,92.826L6544.7,77.064L6550.22,77.064C6552.13,77.064 6553.58,77.431 6554.57,78.163C6555.56,78.896 6556.05,79.969 6556.05,81.384C6556.05,82.156 6555.85,82.836 6555.46,83.424C6555.06,84.013 6554.51,84.444 6553.8,84.718C6554.61,84.92 6555.25,85.328 6555.71,85.941C6556.18,86.555 6556.41,87.305 6556.41,88.193C6556.41,89.709 6555.93,90.856 6554.96,91.636C6553.99,92.415 6552.61,92.812 6550.82,92.826L6544.7,92.826ZM6547.94,85.963L6547.94,90.218L6550.73,90.218C6551.49,90.218 6552.09,90.035 6552.52,89.671C6552.95,89.306 6553.16,88.803 6553.16,88.161C6553.16,86.717 6552.41,85.985 6550.92,85.963L6547.94,85.963ZM6533.8,84.426L6536.41,84.426C6537.23,84.426 6537.86,84.218 6538.31,83.803C6538.76,83.388 6538.98,82.816 6538.98,82.088C6538.98,81.344 6538.77,80.76 6538.35,80.334C6537.93,79.908 6537.28,79.695 6536.4,79.695L6533.8,79.695L6533.8,84.426ZM6547.94,83.668L6550.35,83.668C6551.99,83.639 6552.81,82.986 6552.81,81.709C6552.81,80.994 6552.6,80.48 6552.18,80.166C6551.77,79.852 6551.11,79.695 6550.22,79.695L6547.94,79.695L6547.94,83.668Z" />
            </g>
        </g>
    </g>
</svg>
