<?xml version="1.0" encoding="UTF-8" standalone="no"?>
<!DOCTYPE svg PUBLIC "-//W3C//DTD SVG 1.1//EN" "http://www.w3.org/Graphics/SVG/1.1/DTD/svg11.dtd">
<svg width="100%" height="100%" viewBox="0 0 27 27" version="1.1" xmlns="http://www.w3.org/2000/svg" xmlns:xlink="http://www.w3.org/1999/xlink" xml:space="preserve" xmlns:serif="http://www.serif.com/" style="fill-rule:evenodd;clip-rule:evenodd;stroke-linejoin:round;stroke-miterlimit:2;">
    <g transform="matrix(1,0,0,1,-5309.22,-1352.71)">
        <g transform="matrix(0.295656,0,0,0.295656,3991.07,983.369)">
            <circle cx="4503.72" cy="1294.54" r="45.325" fill="white"/>
        </g>
        <g transform="matrix(0.295656,0,0,0.295656,3991.07,983.369)">
            <g transform="matrix(63.1165,0,0,63.1165,4482.94,1316.98)">
                <path d="M0.054,-0L0.054,-0.711L0.309,-0.711C0.401,-0.711 0.47,-0.694 0.518,-0.661C0.566,-0.627 0.589,-0.578 0.589,-0.515C0.589,-0.478 0.581,-0.446 0.564,-0.42C0.547,-0.394 0.522,-0.375 0.489,-0.363C0.526,-0.353 0.555,-0.335 0.575,-0.308C0.595,-0.281 0.604,-0.249 0.604,-0.21C0.604,-0.141 0.582,-0.088 0.538,-0.053C0.494,-0.018 0.429,-0.001 0.342,-0L0.054,-0ZM0.225,-0.302L0.225,-0.132L0.337,-0.132C0.368,-0.132 0.392,-0.139 0.409,-0.153C0.425,-0.167 0.434,-0.187 0.434,-0.213C0.434,-0.272 0.404,-0.302 0.345,-0.302L0.225,-0.302ZM0.225,-0.415L0.314,-0.415C0.352,-0.415 0.379,-0.422 0.395,-0.435C0.41,-0.449 0.418,-0.468 0.418,-0.494C0.418,-0.524 0.41,-0.546 0.393,-0.559C0.375,-0.572 0.347,-0.579 0.309,-0.579L0.225,-0.579L0.225,-0.415Z" fill="rgb(230,20,13)"/>
            </g>
        </g>
    </g>
</svg>
