<?xml version="1.0" encoding="UTF-8" standalone="no"?>
<!DOCTYPE svg PUBLIC "-//W3C//DTD SVG 1.1//EN" "http://www.w3.org/Graphics/SVG/1.1/DTD/svg11.dtd">
<svg width="100%" height="100%" viewBox="0 0 83 50" version="1.1" xmlns="http://www.w3.org/2000/svg" xmlns:xlink="http://www.w3.org/1999/xlink" xml:space="preserve" xmlns:serif="http://www.serif.com/" style="fill-rule:evenodd;clip-rule:evenodd;stroke-linejoin:round;stroke-miterlimit:2;">
    <g transform="matrix(1,0,0,1,-5277.85,-57.9595)">
        <g transform="matrix(1,0,0,1,-1555.29,-117.32)">
            <g transform="matrix(1.06819,0,0,1.03988,1306.07,111.905)">
                <path d="M5251.16,77.627C5251.16,68.419 5243.88,60.944 5234.92,60.944L5190.46,60.944C5181.5,60.944 5174.22,68.419 5174.22,77.627L5174.22,91.926C5174.22,101.134 5181.5,108.609 5190.46,108.609L5234.92,108.609C5243.88,108.609 5251.16,101.134 5251.16,91.926L5251.16,77.627Z" fill="white"/>
            </g>
        </g>
        <g transform="matrix(1,0,0,1,-1555.29,-117.32)">
            <g transform="matrix(1.06819,0,0,1.03988,1306.07,111.905)">
                <path d="M5251.16,77.627C5251.16,68.419 5243.88,60.944 5234.92,60.944L5190.46,60.944C5181.5,60.944 5174.22,68.419 5174.22,77.627L5174.22,91.926C5174.22,101.134 5181.5,108.609 5190.46,108.609L5234.92,108.609C5243.88,108.609 5251.16,101.134 5251.16,91.926L5251.16,77.627ZM5247.41,77.627L5247.41,91.926C5247.41,99.011 5241.81,104.762 5234.92,104.762L5190.46,104.762C5183.57,104.762 5177.97,99.011 5177.97,91.926C5177.97,91.926 5177.97,77.627 5177.97,77.627C5177.97,70.542 5183.57,64.791 5190.46,64.791C5190.46,64.791 5234.92,64.791 5234.92,64.791C5241.81,64.791 5247.41,70.542 5247.41,77.627Z"/>
            </g>
        </g>
        <g transform="matrix(1,0,0,1,-1555.29,-117.32)">
            <g transform="matrix(1,0,0,1,256.112,107.939)">
                <path d="M6610.27,98.886L6618.12,98.886L6618.12,102.355L6605.76,102.355L6605.76,83.65L6610.27,83.65L6610.27,98.886ZM6620.02,102.355L6620.02,83.65L6626.74,83.65C6629.15,83.65 6630.98,84.091 6632.23,84.974C6633.49,85.856 6634.11,87.136 6634.11,88.815C6634.11,89.782 6633.89,90.609 6633.44,91.294C6633,91.979 6632.35,92.484 6631.48,92.81C6632.46,93.067 6633.21,93.546 6633.73,94.249C6634.25,94.951 6634.51,95.807 6634.51,96.818C6634.51,98.651 6633.93,100.028 6632.77,100.948C6631.61,101.869 6629.89,102.338 6627.61,102.355L6620.02,102.355ZM6624.53,94.403L6624.53,98.886L6627.49,98.886C6628.3,98.886 6628.92,98.7 6629.36,98.328C6629.8,97.955 6630.02,97.43 6630.02,96.754C6630.02,95.195 6629.24,94.411 6627.69,94.403L6624.53,94.403ZM6624.53,91.448L6626.88,91.448C6627.87,91.44 6628.57,91.259 6628.99,90.907C6629.41,90.555 6629.62,90.035 6629.62,89.348C6629.62,88.558 6629.39,87.989 6628.94,87.641C6628.48,87.293 6627.75,87.119 6626.74,87.119L6624.53,87.119L6624.53,91.448Z" />
            </g>
        </g>
    </g>
</svg>
