<?xml version="1.0" encoding="UTF-8" standalone="no"?>
<!DOCTYPE svg PUBLIC "-//W3C//DTD SVG 1.1//EN" "http://www.w3.org/Graphics/SVG/1.1/DTD/svg11.dtd">
<svg width="100%" height="100%" viewBox="0 0 48 33" version="1.1" xmlns="http://www.w3.org/2000/svg" xmlns:xlink="http://www.w3.org/1999/xlink" xml:space="preserve" xmlns:serif="http://www.serif.com/" style="fill-rule:evenodd;clip-rule:evenodd;stroke-linejoin:round;stroke-miterlimit:2;">
    <g transform="matrix(1,0,0,1,-6159.96,-1356.05)">
        <g transform="matrix(0.940629,0,0,0.940629,2648.41,1249.94)">
            <g transform="matrix(1.06312,0,0,1.06312,-2815.57,-1328.83)">
                <path d="M6174.84,1356.14C6175.06,1356.15 6175.27,1356.16 6175.49,1356.17C6176.35,1356.23 6177.2,1356.3 6178.05,1356.38L6178.48,1356.43C6180.32,1356.63 6182.11,1356.9 6183.85,1357.25C6185.11,1357.51 6186.35,1357.8 6187.55,1358.13C6194.89,1360.14 6201.12,1363.54 6205.74,1368C6205.93,1368.18 6206.12,1368.45 6206.27,1368.85C6206.48,1369.37 6206.66,1370.21 6206.78,1371.25C6206.84,1371.68 6206.88,1372.14 6206.92,1372.64C6206.95,1373.09 6206.98,1373.57 6207,1374.07C6207.05,1375.08 6207.07,1376.17 6207.07,1377.26C6207.07,1379.32 6207,1381.41 6206.87,1383.15C6206.85,1383.41 6206.82,1383.66 6206.8,1383.91C6206.66,1385.44 6206.46,1386.63 6206.24,1387.19L6206.23,1387.23C6206.07,1387.63 6205.85,1387.88 6205.67,1388C6205.64,1388.03 6205.59,1388.06 6205.53,1388.09C6205.35,1388.19 6205.06,1388.31 6204.67,1388.38C6204.63,1388.39 6204.59,1388.4 6204.55,1388.41C6204.28,1388.45 6203.93,1388.49 6203.52,1388.53C6203.19,1388.56 6202.83,1388.58 6202.42,1388.6C6201.89,1388.63 6201.3,1388.65 6200.65,1388.66C6199.76,1388.68 6198.77,1388.69 6197.69,1388.69C6191.23,1388.67 6181.86,1388.29 6175.2,1387.82C6173.33,1387.69 6171.67,1387.55 6170.35,1387.41L6169.99,1387.37C6168.26,1387.17 6167.11,1386.92 6166.77,1386.73C6166.59,1386.63 6166.39,1386.48 6166.19,1386.29C6166.01,1386.11 6165.83,1385.9 6165.65,1385.65L6165.63,1385.63C6165.03,1384.77 6164.39,1383.39 6163.79,1381.73L6163.66,1381.4C6161.63,1375.65 6159.89,1366.78 6159.96,1365.38L6159.97,1365.35C6159.99,1365 6160.16,1364.52 6160.5,1363.99C6160.61,1363.83 6160.73,1363.65 6160.87,1363.47C6161.45,1362.72 6162.33,1361.81 6163.36,1360.89C6165.22,1359.25 6167.56,1357.57 6169.42,1356.71C6170.2,1356.35 6170.9,1356.14 6171.49,1356.07L6171.88,1356.05C6172.88,1356.06 6173.86,1356.09 6174.84,1356.14Z" fill="rgb(65,65,65)"/>
            </g>
            <g transform="matrix(1.06312,0,0,1.06312,-2815.57,-1328.83)">
                <path d="M6204.09,1369.61C6196.8,1362.61 6185.33,1358.47 6171.86,1358.36C6171.3,1358.36 6170.54,1358.7 6169.67,1359.17C6168.12,1360.02 6166.35,1361.33 6164.9,1362.62C6163.95,1363.46 6163.15,1364.29 6162.64,1364.96C6162.48,1365.18 6162.3,1365.51 6162.27,1365.57C6162.21,1366.93 6163.93,1375.23 6165.84,1380.63C6166.33,1381.98 6166.82,1383.15 6167.31,1383.96C6167.51,1384.3 6167.67,1384.57 6167.86,1384.69C6167.98,1384.72 6168.99,1384.92 6169.99,1385.04C6175.39,1385.67 6187.98,1386.3 6196.51,1386.37C6199.86,1386.4 6203.22,1386.16 6204.16,1386.09C6204.19,1385.99 6204.22,1385.86 6204.24,1385.75C6204.37,1385.06 6204.48,1384.1 6204.56,1382.98C6204.82,1379.5 6204.85,1374.53 6204.49,1371.53C6204.39,1370.67 6204.12,1369.74 6204.09,1369.61Z" fill="white"/>
            </g>
            <g transform="matrix(1.06312,0,0,1.06312,-2815.57,-1328.83)">
                <path d="M6178.45,1376.36L6176.73,1376.36L6176.73,1381.04L6173.54,1381.04L6173.54,1367.81L6178.74,1367.81C6180.31,1367.81 6181.54,1368.15 6182.43,1368.85C6183.31,1369.55 6183.75,1370.53 6183.75,1371.8C6183.75,1372.72 6183.57,1373.48 6183.19,1374.09C6182.82,1374.69 6182.24,1375.18 6181.44,1375.56L6184.21,1380.9L6184.21,1381.04L6180.79,1381.04L6178.45,1376.36Z" fill="rgb(65,65,65)"/>
            </g>
            <g transform="matrix(1.06312,0,0,1.06312,-2815.57,-1328.83)">
                <path d="M6195.61,1370.27L6191.64,1370.27L6191.64,1381.04L6188.45,1381.04L6188.45,1370.27L6184.55,1370.27L6184.55,1367.81L6195.61,1367.81L6195.61,1370.27Z" fill="rgb(65,65,65)"/>
            </g>
            <g transform="matrix(1.06312,0,0,1.06312,-2815.57,-1328.83)">
                <path d="M6176.73,1373.9L6178.74,1373.9C6179.35,1373.9 6179.81,1373.74 6180.11,1373.42C6180.42,1373.11 6180.57,1372.66 6180.57,1372.09C6180.57,1371.52 6180.42,1371.07 6180.11,1370.75C6179.8,1370.42 6179.34,1370.26 6178.74,1370.26L6176.73,1370.26L6176.73,1373.9Z" fill="white"/>
            </g>
        </g>
    </g>
</svg>
