<?xml version="1.0" encoding="UTF-8" standalone="no"?>
<!-- Created with Inkscape (http://www.inkscape.org/) -->

<svg
   version="1.1"
   viewBox="0 0 219.7 19.4"
   id="svg54"
   sodipodi:docname="logo_mono.svg"
   inkscape:version="1.2.1 (9c6d41e410, 2022-07-14)"
   xmlns:inkscape="http://www.inkscape.org/namespaces/inkscape"
   xmlns:sodipodi="http://sodipodi.sourceforge.net/DTD/sodipodi-0.dtd"
   xmlns="http://www.w3.org/2000/svg"
   xmlns:svg="http://www.w3.org/2000/svg"
   xmlns:rdf="http://www.w3.org/1999/02/22-rdf-syntax-ns#"
   xmlns:cc="http://creativecommons.org/ns#"
   xmlns:dc="http://purl.org/dc/elements/1.1/">
  <defs
     id="defs58" />
  <sodipodi:namedview
     id="namedview56"
     pagecolor="#ffffff"
     bordercolor="#666666"
     borderopacity="1.0"
     inkscape:showpageshadow="2"
     inkscape:pageopacity="0.0"
     inkscape:pagecheckerboard="0"
     inkscape:deskcolor="#d1d1d1"
     showgrid="false"
     inkscape:zoom="5.5075103"
     inkscape:cx="109.85"
     inkscape:cy="9.623223"
     inkscape:window-width="1920"
     inkscape:window-height="1017"
     inkscape:window-x="-8"
     inkscape:window-y="-8"
     inkscape:window-maximized="1"
     inkscape:current-layer="svg54" />
  <metadata
     id="metadata2">
    <rdf:RDF>
      <cc:Work
         rdf:about="">
        <dc:format>image/svg+xml</dc:format>
        <dc:type
           rdf:resource="http://purl.org/dc/dcmitype/StillImage" />
        <dc:title />
      </cc:Work>
    </rdf:RDF>
  </metadata>
  <path
     d="m 36.67924,3.791655 h 5.594026 l 8.585553,14.874074 H 45.852514 L 39.527783,7.7005097 33.514089,18.665729 h -5.002591 l 8.16867,-14.874074"
     fill-rule="evenodd"
     id="path4"
     style="fill:#231f20;stroke-width:0.928469" />
  <path
     d="m 69.825584,3.791655 h 17.390225 l 0.0104,3.7417303 H 69.826699 V 3.791655"
     fill-rule="evenodd"
     id="path6"
     style="fill:#231f20;stroke-width:0.928469" />
  <path
     d="m 76.139174,18.64716 h 4.707338 V 8.6104094 h -4.707338 z"
     fill-rule="evenodd"
     id="path8"
     style="fill:#231f20;stroke-width:0.928469" />
  <path
     d="m 51.256204,3.791655 h 17.390225 l 0.01049,3.7417303 H 51.257411 V 3.791655"
     fill-rule="evenodd"
     id="path10"
     style="fill:#231f20;stroke-width:0.928469" />
  <path
     d="M 57.569793,18.64716 H 62.27806 V 8.6104094 h -4.708267 z"
     fill-rule="evenodd"
     id="path12"
     style="fill:#231f20;stroke-width:0.928469" />
  <path
     d="m 124.23387,3.791655 h 17.39023 l 0.0105,3.7417303 H 124.23508 V 3.791655"
     fill-rule="evenodd"
     id="path14"
     style="fill:#231f20;stroke-width:0.928469" />
  <path
     d="m 130.54746,18.64716 h 4.70734 V 8.6104094 h -4.70734 z"
     fill-rule="evenodd"
     id="path16"
     style="fill:#231f20;stroke-width:0.928469" />
  <path
     d="m 89.13774,18.64716 h 4.80947 V 3.7730857 h -4.80947 z"
     fill-rule="evenodd"
     id="path18"
     style="fill:#231f20;stroke-width:0.928469" />
  <path
     d="m 94.801402,18.64716 h 9.368248 v -3.959921 h -9.368248 z"
     fill-rule="evenodd"
     id="path20"
     style="fill:#231f20;stroke-width:0.928469" />
  <path
     d="m 7.8966994,3.791655 v 14.874074 h 4.7184796 v -5.9552 h 8.313512 c 1.992494,0 2.012921,2.356454 0,2.356454 h -7.074934 v 3.598746 h 8.149173 c 1.309141,0 2.329528,-0.08793 3.071375,-0.364981 1.911718,-0.714457 2.512437,-3.005454 2.090912,-4.982165 -0.24038,-1.125304 -0.796997,-1.568184 -1.495763,-1.900576 -0.07976,-0.03807 -0.910828,-0.386707 -1.023173,-0.34864 0.324964,-0.128686 1.126233,-0.373988 1.579326,-1.035243 C 26.713889,9.3209667 26.792344,7.8726479 26.644903,6.8847568 26.404244,5.2701491 25.00337,3.7957403 21.836362,3.7957403 h -7.98112 v 3.5309678 h 6.551278 c 2.048203,0 2.048203,2.2719637 0,2.2719637 H 12.616665 V 3.7957403 h -4.71848"
     fill-rule="evenodd"
     id="path22"
     style="fill:#231f20;stroke-width:0.928469" />
  <path
     d="m 105.85018,3.791655 h 4.91439 v 5.8029315 h 10.96522 v 3.1131565 h -10.96522 v 5.955201 h -4.91439 V 3.7888696"
     fill-rule="evenodd"
     id="path24"
     style="fill:#231f20;stroke-width:0.928469" />
  <path
     d="m 111.97808,7.3198374 h 10.371 V 3.7879412 h -10.371 z"
     fill-rule="evenodd"
     id="path26"
     style="fill:#231f20;stroke-width:0.928469" />
  <path
     d="m 111.97808,18.64716 h 10.68668 v -3.598746 h -10.68668 z"
     fill-rule="evenodd"
     id="path28"
     style="fill:#231f20;stroke-width:0.928469" />
  <path
     d="M 207.61039,3.3274205 V 1.1269489 h -0.78456 V 0.67896258 h 2.10391 V 1.1269489 h -0.78344 v 2.2004716 h -0.53619"
     fill-rule="nonzero"
     id="path30"
     style="fill:#231f20;stroke-width:0.928469" />
  <path
     d="M 209.28163,3.3274205 V 0.67942682 h 0.80081 l 0.48048,1.80680078 0.47463,-1.80680078 h 0.80202 V 3.3274205 h -0.49673 V 1.2420791 l -0.5257,2.0853414 h -0.5153 l -0.52347,-2.0853414 v 2.0853414 h -0.49674"
     fill-rule="nonzero"
     id="path32"
     style="fill:#231f20;stroke-width:0.928469" />
  <path
     d="m 143.82457,3.791655 h 4.91531 v 5.8029315 h 10.96522 v 3.1131565 h -10.96522 v 5.955201 h -4.91531 V 3.7888696"
     fill-rule="evenodd"
     id="path34"
     style="fill:#231f20;stroke-width:0.928469" />
  <path
     d="m 149.85962,7.3198374 h 10.37099 V 3.7879412 h -10.37099 z"
     fill-rule="evenodd"
     id="path36"
     style="fill:#231f20;stroke-width:0.928469" />
  <path
     d="m 149.85962,18.64716 h 10.68667 v -3.598746 h -10.68667 z"
     fill-rule="evenodd"
     id="path38"
     style="fill:#231f20;stroke-width:0.928469" />
  <path
     d="m 162.85818,11.497948 h 4.98588 v 1.217223 c 0,2.12248 1.79009,2.12248 4.79926,2.12248 h 0.30286 c 4.36567,0 4.80483,0 4.80483,-2.12248 h 4.81504 v 1.994351 c 0,3.959921 -3.57275,4.036984 -7.92355,4.036984 h -4.582 c -5.34891,0 -7.20306,-1.179156 -7.20306,-6.714688 v -0.534891"
     fill-rule="evenodd"
     id="path40"
     style="fill:#231f20;stroke-width:0.928469" />
  <path
     d="M 167.77907,10.012398 V 9.627083 c 0,-2.1224803 1.79009,-2.1224803 4.79925,-2.1224803 h 0.30287 c 4.05927,0 4.80483,0.016341 4.80483,1.7232386 h 4.53278 l -0.005,-1.5941814 c -0.004,-2.1364072 -1.42798,-3.2867804 -2.6842,-3.6748804 -1.31379,-0.4062052 -3.04909,-0.3632171 -4.95246,-0.3632171 h -4.58199 c -5.25606,0 -7.20306,1.1271614 -7.20306,6.4175776 l 4.98588,-4.64e-4"
     fill-rule="evenodd"
     id="path42"
     style="fill:#231f20;stroke-width:0.928469" />
  <path
     d="m 190.8051,9.0839286 v 3.7055204 h 7.4881 l 9.3e-4,-3.7055204 h -7.48903"
     fill-rule="evenodd"
     id="path44"
     style="fill:#231f20;stroke-width:0.928469" />
  <path
     d="m 185.04859,18.64716 h 4.67763 V 3.7730857 h -4.67763 z"
     fill-rule="evenodd"
     id="path46"
     style="fill:#231f20;stroke-width:0.928469" />
  <path
     d="m 199.43986,18.64716 h 4.67763 V 3.7730857 h -4.67763 z"
     fill-rule="evenodd"
     id="path48"
     style="fill:#231f20;stroke-width:0.928469" />
</svg>
