<svg id="svg" version="1.1" viewBox="0 0 400 51.25125125" xmlns="http://www.w3.org/2000/svg"><path d="m26.043 5.875c-0.091 0.115-0.482 1.146-0.869 2.292s-0.892 2.608-1.122 3.25c-0.542 1.509-1.544 4.239-1.714 4.666-1.109 2.806-1.356 3.635-1.126 3.782 0.234 0.149 22.682 0.181 23.233 0.034 0.198-0.054 0.436-0.297 0.527-0.54 0.312-0.828 1.002-2.772 1.608-4.526 0.611-1.769 0.938-2.637 1.368-3.626l0.236-0.544 7.531 0.044c8.279 0.047 7.972 5e-3 7.481 1.023-0.094 0.194-0.301 0.728-0.461 1.187-0.159 0.458-0.353 0.904-0.429 0.991-0.077 0.087-0.139 0.295-0.139 0.461s-0.071 0.432-0.158 0.592c-0.087 0.159-0.306 0.739-0.488 1.289-0.388 1.174-1.905 5.469-2.159 6.109-0.096 0.243-0.273 0.505-0.393 0.583-0.121 0.078-8.982 0.179-19.692 0.225l-19.474 0.083-0.662 1.833c-1.286 3.556-1.828 5.003-1.984 5.29-0.086 0.159-0.157 0.373-0.157 0.475s-0.107 0.421-0.237 0.71c-0.131 0.289-0.511 1.35-0.844 2.359-0.334 1.008-0.79 2.339-1.013 2.958s-0.6 1.669-0.836 2.333c-0.441 1.24-0.544 1.51-0.902 2.375-0.433 1.044-0.484 1.388-0.223 1.488 0.137 0.053 14.262 0.096 31.39 0.096 33.459 0 31.665 0.043 31.665-0.764 0-0.133 0.071-0.371 0.158-0.53s0.32-0.777 0.519-1.373c0.672-2.017 1.618-4.687 3.146-8.876 0.159-0.435 0.339-0.841 0.4-0.902s0.111-0.23 0.111-0.375c1e-3 -0.145 0.113-0.478 0.25-0.741s0.249-0.582 0.249-0.711c0-0.128 0.074-0.363 0.164-0.522 0.089-0.159 0.385-0.965 0.657-1.79 0.666-2.018 2.726-7.739 3.001-8.333 0.177-0.381 0.65-1.703 1.341-3.75 0.264-0.779 0.788-2.279 1.165-3.333 0.377-1.055 0.842-2.367 1.033-2.917s0.413-1.071 0.493-1.158c0.081-0.087 0.146-0.327 0.146-0.532 0-0.206 0.075-0.42 0.167-0.477 0.092-0.056 0.167-0.173 0.167-0.26 0-0.259-62.919-0.208-63.124 0.052m72.344 0c-0.085 0.115-0.325 0.733-0.535 1.375-0.577 1.764-1.683 4.957-1.847 5.333-0.08 0.184-0.344 0.896-0.588 1.584-0.244 0.687-0.504 1.4-0.577 1.583-0.462 1.154-0.72 1.851-1.235 3.333-1.052 3.029-1.997 5.677-3.508 9.834-0.234 0.641-0.501 1.297-0.594 1.456s-0.17 0.404-0.17 0.544-0.071 0.384-0.159 0.544c-0.088 0.159-0.355 0.889-0.594 1.622-0.239 0.734-0.617 1.84-0.84 2.459-0.224 0.618-0.6 1.668-0.837 2.333-0.236 0.665-0.493 1.358-0.57 1.542-0.077 0.183-0.271 0.708-0.431 1.166-0.16 0.459-0.353 0.905-0.43 0.992-0.076 0.087-0.139 0.316-0.139 0.508 0 0.193-0.088 0.439-0.197 0.548-0.108 0.108-0.14 0.254-0.069 0.325 0.148 0.148 22.421 0.272 23.212 0.129 0.578-0.104 0.75-0.484 2.421-5.335 0.095-0.275 0.265-0.725 0.378-1s0.299-0.763 0.414-1.083c0.114-0.321 0.27-0.734 0.345-0.917 0.123-0.302 0.809-2.21 1.168-3.25 0.079-0.229 0.454-1.317 0.833-2.417s0.81-2.093 0.958-2.208c0.21-0.164 4.265-0.208 18.986-0.208 18.04 0 18.718-0.011 18.718-0.306 0-0.168 0.051-0.357 0.114-0.42 0.127-0.126 0.335-0.679 1.047-2.774 0.79-2.325 2.678-7.627 2.998-8.417 0.074-0.183 0.264-0.671 0.421-1.083 0.158-0.413 0.355-0.881 0.437-1.04s0.15-0.436 0.15-0.615 0.066-0.366 0.146-0.416c0.081-0.05 0.185-0.261 0.232-0.469 0.047-0.207 0.464-1.46 0.926-2.785 0.463-1.324 0.804-2.468 0.759-2.541-0.149-0.241-61.165-0.167-61.343 0.074m68.06 0.583c-1.404 4.115-1.991 5.797-2.369 6.792-0.243 0.642-0.595 1.617-0.782 2.167s-0.405 1.071-0.485 1.158c-0.079 0.087-0.144 0.294-0.144 0.461 0 0.166-0.071 0.432-0.156 0.591-0.397 0.736-0.678 1.45-0.678 1.722 0 0.164-0.066 0.339-0.147 0.389s-0.185 0.298-0.231 0.552c-0.046 0.253-0.458 1.51-0.917 2.793-0.459 1.284-1.072 3.009-1.363 3.834s-0.626 1.725-0.744 2-0.308 0.762-0.423 1.083c-0.114 0.321-0.27 0.733-0.345 0.917-0.186 0.453-0.863 2.382-1.405 4-0.245 0.733-0.637 1.858-0.869 2.5-0.882 2.435-1.591 4.345-1.731 4.666-0.475 1.093-1.537 0.996 11.393 1.043 11.477 0.042 12.282 0.01 12.282-0.488 0-0.1 0.267-0.941 0.592-1.869 0.525-1.493 0.736-2.062 1.247-3.352 0.265-0.67 1.311-3.521 1.559-4.25 1.536-4.51 2.144-6.116 2.383-6.292 0.223-0.164 4.499-0.208 20.052-0.208h19.768l0.621-1.792c0.342-0.985 0.694-1.922 0.783-2.081s0.162-0.365 0.162-0.458c0-0.114-6.485-0.169-19.646-0.169-16.595 0-19.676-0.036-19.839-0.233-0.187-0.225-0.111-0.543 0.484-2.017 0.074-0.184 0.334-0.934 0.579-1.667 0.244-0.733 0.626-1.84 0.85-2.458 0.223-0.619 0.599-1.669 0.835-2.334 0.504-1.416 0.6-1.666 0.961-2.5l0.271-0.625h19.924c18.829 0 19.93-0.016 20.018-0.291 0.051-0.161 0.152-0.442 0.225-0.625 0.172-0.437 0.677-1.744 0.837-2.167 0.069-0.183 0.211-0.543 0.314-0.8 0.103-0.256 0.187-0.537 0.187-0.625 0-0.1-11.791-0.158-31.891-0.158h-31.892l-0.27 0.791m-32.283 4.25c-1e-3 0.207-0.122 0.713-0.268 1.125-0.146 0.413-0.553 1.575-0.903 2.584-0.884 2.541-1.632 4.604-1.813 5-0.084 0.183-0.356 0.896-0.604 1.583-0.65 1.802-0.047 1.667-7.421 1.667-7.079 0-7.015 9e-3 -6.638-0.938 0.105-0.264 0.699-1.942 1.32-3.729 1.531-4.403 2.285-6.479 2.59-7.125l0.255-0.542h13.485l-3e-3 0.375m109.447 5.903c-0.216 0.217-0.129 24.471 0.089 24.689 0.33 0.33 5.534 0.275 5.871-0.062 0.232-0.231 0.262-1.238 0.262-8.555 0-4.562 0.045-8.339 0.1-8.394 0.265-0.265 0.596 0.22 1.316 1.93 0.432 1.026 0.965 2.26 1.185 2.744 0.219 0.484 0.399 0.913 0.399 0.953 0 0.074 0.377 0.917 1.454 3.251 0.317 0.687 0.988 2.225 1.49 3.416 1.181 2.802 1.386 3.273 1.57 3.623 0.084 0.159 0.153 0.391 0.153 0.516 0 0.631 0.54 0.778 2.851 0.778 2.293 0 2.982-0.171 2.982-0.738 0-0.23 0.369-1.129 1.184-2.887 0.266-0.574 0.483-1.081 0.483-1.127 0-0.047 0.271-0.666 0.603-1.375 1.207-2.584 1.384-2.987 2.071-4.706 0.385-0.963 0.851-2.088 1.036-2.5 0.184-0.413 0.516-1.163 0.736-1.667s0.472-1.047 0.56-1.206c0.089-0.159 0.161-0.39 0.161-0.513 0-0.218 0.797-1.075 0.869-0.935 0.021 0.039 0.077 4.008 0.125 8.821l0.089 8.75 2.821 0.045c2.145 0.035 2.853-5e-3 2.956-0.166 0.074-0.117 0.136-5.744 0.137-12.504l3e-3 -12.292h-9.326l-0.337 0.698c-0.186 0.384-0.337 0.757-0.337 0.829s-0.196 0.564-0.434 1.093c-0.545 1.209-0.573 1.278-1.322 3.297-0.606 1.63-0.82 2.166-1.328 3.317-0.137 0.311-0.25 0.612-0.25 0.668s-0.158 0.457-0.352 0.891c-0.194 0.435-0.462 1.053-0.595 1.374-0.471 1.136-0.523 1.258-0.862 2.023-0.188 0.425-0.391 0.97-0.451 1.21-0.061 0.24-0.177 0.478-0.258 0.528-0.082 0.05-0.148 0.226-0.148 0.389 0 0.287-0.604 0.975-0.731 0.835-0.12-0.132-0.904-1.928-1.847-4.229-0.523-1.276-1.104-2.663-1.292-3.08-1.307-2.915-1.537-3.445-2.781-6.422-0.651-1.556-1.183-2.917-1.183-3.024 0-0.379-9.353-0.655-9.722-0.286m73.889 0.079c-5.441 1.193-7.882 3.789-8.754 9.31-1.21 7.659 1.726 14.159 6.921 15.323 0.504 0.113 1.188 0.274 1.519 0.358 1.362 0.344 4.391 0.171 6.564-0.375 2.736-0.688 5.263-3.283 6.302-6.473 0.968-2.973 0.93-8.931-0.075-11.458-0.849-2.138-2.414-4.238-3.774-5.064-0.341-0.207-0.657-0.42-0.703-0.474-0.113-0.132-2.776-0.963-3.5-1.092-1.06-0.19-3.737-0.222-4.5-0.055m24.917-0.031c-0.184 0.083-0.549 0.156-0.811 0.163-0.468 0.011-1.906 0.418-2.479 0.701-0.159 0.079-0.362 0.144-0.45 0.144-0.355 0-2.379 1.572-2.967 2.303-0.345 0.429-0.667 0.817-0.716 0.863-0.315 0.293-1.229 2.465-1.474 3.5-1.922 8.143 1.053 15.75 6.647 16.992 0.504 0.112 1.188 0.272 1.519 0.356 2.006 0.507 6.523-0.068 8.314-1.059 3.527-1.95 4.98-5.009 5.124-10.792 0.196-7.852-2.403-11.896-8.374-13.029-1.204-0.229-3.943-0.318-4.333-0.142m24.5 0c-0.184 0.083-0.549 0.156-0.811 0.163-0.468 0.011-1.906 0.418-2.479 0.701-0.159 0.079-0.396 0.144-0.528 0.144-0.131 0-0.263 0.056-0.293 0.125-0.031 0.068-0.485 0.405-1.009 0.748-5.749 3.759-5.704 17.93 0.067 21.509 1.085 0.673 1.759 1.01 2.303 1.149 4.009 1.033 7.456 0.836 10.302-0.588 6.828-3.416 7.344-17.822 0.798-22.272-1.866-1.268-6.983-2.297-8.35-1.679m-71.686 0.795c-0.828 2.573-3.046 3.969-6.994 4.402l-1.904 0.209v3.429l3.792 0.045 3.792 0.044 0.166 15.834 2.768 0.045c2.197 0.036 2.808-2e-3 2.96-0.185 0.141-0.17 0.18-3.359 0.148-12.129l-0.042-11.898-2.295-0.046c-2.077-0.042-2.305-0.019-2.391 0.25m25.868 3.141c0.496 0.144 0.901 0.332 0.901 0.417s0.111 0.155 0.248 0.155c1.84 0 3.252 7.13 2.344 11.833-0.695 3.597-2.087 5-4.958 5-3.633 0-5.295-2.773-5.294-8.833 0-6.654 2.492-9.813 6.759-8.572m24.523 7e-3c1.515 0.44 2.7 1.914 3.401 4.231 0.527 1.743 0.267 8.643-0.373 9.873-0.082 0.159-0.153 0.384-0.157 0.5-3e-3 0.116-0.322 0.612-0.708 1.102-0.626 0.796-0.927 1.03-1.991 1.551-0.159 0.077-0.891 0.141-1.627 0.141-2.901 0-4.285-1.429-5.003-5.167-0.202-1.048-0.185-6.426 0.022-7.333 0.094-0.413 0.212-0.994 0.261-1.293s0.157-0.585 0.238-0.635c0.082-0.05 0.15-0.218 0.153-0.374 0.029-1.775 3.402-3.289 5.784-2.596m24.275-0.073c3.092 0.884 4.4 4.44 3.927 10.674-0.274 3.607-1.678 6.464-3.177 6.464-0.162 0-0.34 0.075-0.397 0.166-0.057 0.092-0.737 0.167-1.512 0.167-4.144 0-5.72-3.29-5.226-10.908 0.326-5.019 2.819-7.582 6.385-6.563m-312.451 6.317c0.128 0.128 0.093 0.426-0.123 1.042-0.167 0.474-0.684 1.987-1.15 3.362-0.465 1.375-0.919 2.63-1.009 2.789-0.09 0.16-0.164 0.373-0.164 0.475s-0.104 0.422-0.23 0.711c-0.127 0.289-0.322 0.787-0.434 1.108-0.212 0.609-0.338 0.943-0.645 1.709l-0.184 0.458h-7.509c-6.771 0-7.519-0.027-7.612-0.27-0.103-0.269 0.364-1.836 0.637-2.138 0.079-0.087 0.144-0.316 0.144-0.509 0-0.192 0.066-0.421 0.148-0.508 0.081-0.087 0.378-0.833 0.658-1.658 1.63-4.796 2.22-6.356 2.473-6.542 0.378-0.277 14.724-0.305 15-0.029" fill-rule="evenodd"/></svg>
