<svg id="svg" version="1.1" viewBox="0 0 400 51.25125125" xmlns="http://www.w3.org/2000/svg"><path d="m24.019 3.982c-0.597 0.575-1.019 1.123-1.019 1.323 0 0.188-0.075 0.388-0.167 0.445-0.091 0.057-0.166 0.25-0.166 0.429 0 0.326-0.04 0.431-0.555 1.46-0.153 0.305-0.279 0.694-0.279 0.865 0 0.17-0.075 0.356-0.166 0.413-0.092 0.056-0.169 0.267-0.172 0.468s-0.116 0.511-0.25 0.689c-0.135 0.177-0.245 0.496-0.245 0.708s-0.075 0.385-0.167 0.385c-0.091 0-0.166 0.151-0.166 0.335 0 0.185-0.065 0.466-0.145 0.625-0.234 0.471-0.554 1.422-0.644 1.917-0.046 0.253-0.149 0.501-0.231 0.551-0.081 0.05-0.147 0.317-0.147 0.593 0 0.277-0.113 0.615-0.25 0.752-0.138 0.138-0.25 0.391-0.25 0.562s-0.075 0.358-0.167 0.415c-0.091 0.056-0.166 0.237-0.166 0.401 0 0.163-0.117 0.531-0.26 0.817-0.142 0.286-0.304 1.054-0.358 1.707-0.065 0.767-0.179 1.219-0.324 1.274-0.124 0.048-0.225 0.159-0.225 0.247s-0.094 0.265-0.208 0.393c-0.531 0.592-0.625 0.752-0.625 1.06 0 0.182-0.075 0.377-0.167 0.434s-0.167 0.23-0.168 0.385c0 0.155-0.113 0.496-0.25 0.759s-0.249 0.614-0.249 0.782c0 0.167-0.075 0.351-0.166 0.407-0.092 0.057-0.169 0.305-0.172 0.552s-0.116 0.594-0.25 0.772c-0.135 0.178-0.245 0.492-0.245 0.698 0 0.207-0.075 0.422-0.167 0.478-0.091 0.057-0.166 0.324-0.166 0.594 0 0.269-0.069 0.49-0.154 0.49-0.084 0-0.206 0.241-0.271 0.536-0.111 0.507-0.171 0.658-0.575 1.461-0.092 0.182-0.167 0.488-0.167 0.679s-0.113 0.46-0.25 0.597c-0.138 0.138-0.25 0.433-0.25 0.655 0 0.223-0.075 0.405-0.167 0.405-0.091 0-0.166 0.151-0.166 0.336 0 0.184-0.066 0.465-0.147 0.625-0.39 0.773-0.687 1.582-0.687 1.878 0 0.18-0.075 0.328-0.166 0.328-0.092 0-0.167 0.141-0.167 0.314s-0.112 0.529-0.249 0.792c-0.137 0.262-0.249 0.604-0.25 0.759s-0.076 0.328-0.168 0.385c-0.091 0.056-0.166 0.315-0.166 0.574s-0.112 0.686-0.249 0.948c-0.137 0.263-0.25 0.604-0.25 0.759-1e-3 0.156-0.076 0.329-0.168 0.385-0.39 0.241-0.194 2.371 0.25 2.721 0.229 0.18 0.417 0.41 0.417 0.512 0 0.101 0.061 0.184 0.135 0.184s0.316 0.169 0.538 0.375l0.402 0.375h65.084l0.921-0.989c0.506-0.544 0.92-1.125 0.92-1.291 0-0.167 0.075-0.303 0.166-0.303 0.092 0 0.167-0.21 0.167-0.467s0.088-0.554 0.195-0.661c0.231-0.232 0.632-1.334 0.636-1.747 1e-3 -0.161 0.077-0.292 0.169-0.292s0.167-0.12 0.167-0.266c0-0.147 0.102-0.503 0.226-0.792 0.502-1.164 0.607-1.472 0.607-1.783 0-0.179 0.072-0.326 0.159-0.326 0.088 0 0.209-0.263 0.269-0.585s0.176-0.626 0.258-0.676c0.081-0.051 0.147-0.308 0.147-0.572s0.075-0.527 0.167-0.583c0.092-0.057 0.167-0.23 0.168-0.385 0-0.155 0.113-0.497 0.25-0.759 0.137-0.263 0.249-0.657 0.249-0.875 0-0.219 0.075-0.398 0.166-0.398 0.092 0 0.167-0.23 0.167-0.512 0-0.281 0.112-0.624 0.25-0.762 0.137-0.137 0.25-0.39 0.25-0.561 0-0.172 0.075-0.358 0.167-0.415 0.091-0.057 0.166-0.286 0.166-0.51s0.072-0.407 0.159-0.407c0.088 0 0.209-0.263 0.269-0.585 0.061-0.322 0.177-0.626 0.258-0.676 0.081-0.051 0.148-0.27 0.148-0.489 0-0.218 0.075-0.443 0.166-0.5 0.092-0.056 0.167-0.286 0.167-0.51 0-0.223 0.072-0.406 0.159-0.406 0.088 0 0.209-0.264 0.269-0.586 0.06-0.321 0.176-0.626 0.258-0.676 0.081-0.05 0.147-0.238 0.147-0.417s0.066-0.456 0.147-0.615c0.387-0.766 0.687-1.582 0.687-1.869 0-0.175 0.075-0.364 0.166-0.421 0.092-0.056 0.167-0.317 0.167-0.579s0.125-0.727 0.278-1.032c0.516-1.03 0.555-1.133 0.555-1.47 0-0.184 0.072-0.335 0.159-0.335 0.088 0 0.209-0.264 0.269-0.586 0.061-0.321 0.177-0.626 0.258-0.676s0.148-0.27 0.148-0.488c0-0.219 0.075-0.444 0.166-0.5 0.092-0.057 0.167-0.254 0.167-0.439 0-0.184 0.112-0.448 0.25-0.585 0.138-0.138 0.25-0.428 0.25-0.645s0.075-0.441 0.167-0.498c0.091-0.057 0.166-0.274 0.166-0.482 0-0.209 0.054-0.433 0.119-0.498 0.184-0.184 0.714-1.652 0.715-1.978 0-0.161 0.075-0.292 0.166-0.292 0.092 0 0.169-0.206 0.172-0.458s0.116-0.604 0.25-0.782c0.135-0.178 0.245-0.53 0.245-0.782s0.075-0.505 0.167-0.561c0.091-0.057 0.166-0.668 0.166-1.358v-1.255l-1.848-1.804h-64.947l-1.019 0.982m73.184-0.68c-0.192 0.166-0.541 0.446-0.776 0.623-0.235 0.176-0.427 0.407-0.427 0.513s-0.112 0.236-0.25 0.289-0.25 0.248-0.25 0.434c0 0.187-0.075 0.339-0.167 0.339-0.091 0-0.166 0.144-0.166 0.32s-0.126 0.569-0.279 0.875c-0.522 1.042-0.555 1.134-0.555 1.553 0 0.23-0.075 0.419-0.166 0.419-0.092 0-0.167 0.11-0.167 0.244 0 0.225-0.333 1.095-0.687 1.795-0.08 0.159-0.149 0.459-0.152 0.667-3e-3 0.207-0.115 0.523-0.25 0.701-0.134 0.177-0.244 0.496-0.244 0.708s-0.075 0.385-0.167 0.385-0.167 0.262-0.167 0.583-0.075 0.583-0.166 0.583c-0.092 0-0.167 0.173-0.167 0.385s-0.11 0.531-0.245 0.708c-0.134 0.178-0.247 0.526-0.25 0.772-3e-3 0.247-0.08 0.495-0.172 0.552-0.091 0.057-0.166 0.277-0.166 0.489 0 0.213-0.113 0.48-0.25 0.594-0.138 0.114-0.25 0.344-0.25 0.511s-0.075 0.349-0.167 0.406-0.167 0.272-0.167 0.479c0 0.206-0.187 0.764-0.416 1.239s-0.417 0.972-0.417 1.105c0 0.132-0.075 0.287-0.167 0.344-0.091 0.056-0.167 0.267-0.168 0.468s-0.186 0.74-0.411 1.198c-0.226 0.459-0.413 0.998-0.415 1.199-3e-3 0.201-0.072 0.406-0.153 0.456s-0.185 0.298-0.231 0.552c-0.09 0.494-0.409 1.446-0.644 1.916-0.079 0.159-0.144 0.469-0.144 0.688s-0.113 0.492-0.25 0.606c-0.138 0.114-0.25 0.381-0.25 0.594 0 0.212-0.075 0.433-0.167 0.489-0.092 0.057-0.167 0.237-0.167 0.401 0 0.272-0.281 0.986-0.677 1.722-0.086 0.159-0.156 0.44-0.156 0.625s-0.075 0.336-0.167 0.336c-0.091 0-0.166 0.181-0.166 0.403s-0.126 0.653-0.279 0.958c-0.516 1.03-0.555 1.133-0.555 1.47 0 0.184-0.066 0.335-0.147 0.335-0.082 0-0.186 0.207-0.231 0.459-0.09 0.493-0.41 1.445-0.644 1.914-0.079 0.159-0.147 0.459-0.15 0.667-3e-3 0.207-0.115 0.523-0.25 0.701-0.134 0.177-0.244 0.492-0.244 0.698s-0.075 0.421-0.167 0.478-0.167 0.319-0.167 0.583c0 0.265-0.075 0.527-0.166 0.584-0.092 0.056-0.167 0.281-0.167 0.5 0 0.218 0.075 0.443 0.167 0.5 0.091 0.056 0.166 0.236 0.166 0.398 0 0.336 1.114 1.518 1.431 1.518 0.114 0 0.239 0.094 0.278 0.209 0.054 0.164 2.802 0.208 12.994 0.208h12.925l0.936-0.944c0.515-0.519 0.936-1.057 0.936-1.195s0.126-0.5 0.279-0.806c0.522-1.042 0.555-1.134 0.555-1.553 0-0.23 0.075-0.419 0.166-0.419 0.092 0 0.167-0.131 0.168-0.291 1e-3 -0.161 0.113-0.507 0.25-0.769 0.137-0.263 0.249-0.615 0.249-0.782 0-0.168 0.075-0.351 0.167-0.408 0.091-0.056 0.166-0.323 0.166-0.593 0-0.269 0.074-0.49 0.165-0.49s0.213-0.302 0.272-0.67c0.059-0.369 0.172-0.711 0.252-0.76s0.145-0.348 0.145-0.663c0-0.316 0.069-0.574 0.153-0.574s0.203-0.224 0.263-0.498 0.179-0.541 0.263-0.593c0.085-0.052 0.154-0.278 0.154-0.502s0.075-0.407 0.167-0.407c0.091 0 0.166-0.144 0.166-0.319 0-0.176 0.126-0.57 0.279-0.875 0.522-1.042 0.555-1.135 0.555-1.553v-0.419h35.837l0.767-0.361c0.862-0.405 2.229-1.99 2.229-2.584 0-0.199 0.106-0.574 0.235-0.833 0.129-0.26 0.325-0.697 0.436-0.972s0.267-0.631 0.348-0.79 0.148-0.436 0.148-0.615 0.066-0.366 0.146-0.416c0.169-0.105 0.687-1.614 0.687-2.002 0-0.144 0.069-0.261 0.153-0.261 0.085 0 0.203-0.224 0.263-0.498s0.179-0.541 0.263-0.593c0.085-0.052 0.154-0.311 0.154-0.575 0-0.265 0.075-0.527 0.167-0.584 0.092-0.056 0.169-0.267 0.172-0.468s0.115-0.511 0.25-0.689c0.135-0.177 0.245-0.492 0.245-0.698s0.075-0.421 0.166-0.478c0.092-0.057 0.167-0.278 0.167-0.491s0.112-0.602 0.249-0.865 0.249-0.604 0.25-0.759 0.076-0.328 0.168-0.385c0.091-0.057 0.166-0.286 0.166-0.51s0.075-0.407 0.167-0.407 0.167-0.215 0.167-0.479 0.112-0.573 0.25-0.687c0.137-0.114 0.25-0.382 0.25-0.594 0-0.213 0.075-0.433 0.166-0.49 0.092-0.056 0.167-0.286 0.167-0.51 0-0.223 0.069-0.406 0.153-0.406 0.085 0 0.203-0.224 0.263-0.498s0.179-0.541 0.263-0.594c0.085-0.052 0.154-0.311 0.154-0.575s0.075-0.527 0.167-0.583c0.092-0.057 0.167-0.282 0.167-0.5 0-0.219 0.075-0.444 0.166-0.5 0.272-0.168 0.191-0.864-0.175-1.516-0.385-0.685-0.49-0.797-1.355-1.443l-0.614-0.458h-31.569c-30.24 0-31.584 0.013-31.917 0.302m68.278-0.016c-0.149 0.142-0.524 0.496-0.834 0.787-0.31 0.29-0.664 0.749-0.787 1.019s-0.33 0.704-0.459 0.963c-0.129 0.26-0.234 0.612-0.234 0.782s-0.075 0.356-0.167 0.413-0.167 0.291-0.167 0.522c0 0.23-0.112 0.531-0.25 0.668-0.137 0.138-0.25 0.391-0.25 0.562s-0.075 0.358-0.166 0.415c-0.092 0.056-0.167 0.286-0.167 0.51 0 0.223-0.075 0.406-0.167 0.406-0.091 0-0.166 0.216-0.166 0.48s-0.113 0.573-0.25 0.687c-0.138 0.114-0.25 0.381-0.25 0.594 0 0.212-0.075 0.433-0.167 0.489-0.092 0.057-0.167 0.311-0.167 0.566 0 0.254-0.053 0.516-0.118 0.581-0.228 0.227-0.715 1.69-0.715 2.145 0 0.252-0.075 0.458-0.167 0.458-0.091 0-0.166 0.136-0.166 0.302s-0.11 0.447-0.245 0.625-0.247 0.488-0.25 0.688c-3e-3 0.201-0.08 0.412-0.172 0.469-0.092 0.056-0.167 0.291-0.167 0.521 0 0.231-0.112 0.532-0.25 0.669-0.137 0.138-0.25 0.39-0.25 0.562 0 0.171-0.075 0.358-0.166 0.414-0.092 0.057-0.167 0.25-0.167 0.429 0 0.327-0.04 0.431-0.555 1.46-0.153 0.305-0.278 0.695-0.278 0.865s-0.075 0.356-0.167 0.413-0.167 0.28-0.167 0.496c0 0.217-0.125 0.643-0.278 0.949-0.522 1.042-0.555 1.134-0.555 1.553 0 0.23-0.075 0.419-0.167 0.419-0.091 0-0.167 0.168-0.167 0.375-1e-3 0.206-0.113 0.589-0.25 0.852s-0.249 0.614-0.249 0.782c0 0.167-0.075 0.351-0.167 0.407-0.092 0.057-0.167 0.292-0.167 0.522s-0.112 0.531-0.25 0.669c-0.137 0.137-0.25 0.39-0.25 0.561 0 0.172-0.075 0.358-0.166 0.415-0.092 0.057-0.167 0.25-0.167 0.429 0 0.326-0.04 0.431-0.555 1.46-0.153 0.305-0.278 0.694-0.278 0.865 0 0.17-0.075 0.356-0.167 0.413-0.092 0.056-0.169 0.267-0.172 0.468s-0.115 0.511-0.25 0.689c-0.135 0.177-0.245 0.492-0.245 0.698s-0.075 0.421-0.166 0.478c-0.092 0.057-0.167 0.324-0.167 0.593 0 0.27-0.057 0.49-0.126 0.49-0.153 0-0.536 1.047-0.656 1.792-0.049 0.298-0.155 0.542-0.236 0.542-0.082 0-0.149 0.23-0.149 0.512 0 0.281-0.112 0.624-0.25 0.761-0.145 0.146-0.25 0.553-0.25 0.977 0 0.423 0.105 0.83 0.25 0.976 0.138 0.137 0.25 0.304 0.25 0.371 0 0.066 0.308 0.405 0.684 0.752 0.936 0.864 0.577 0.844 14.487 0.785l12.087-0.051 0.403-0.375c0.221-0.206 0.457-0.375 0.523-0.375 0.202 0 1.316-1.608 1.316-1.9 0-0.272 0.054-0.405 0.56-1.376 0.15-0.289 0.274-0.678 0.274-0.865s0.075-0.386 0.166-0.442c0.092-0.057 0.167-0.292 0.167-0.522s0.112-0.531 0.25-0.669c0.137-0.137 0.25-0.465 0.25-0.728s0.075-0.525 0.167-0.581c0.091-0.057 0.166-0.324 0.166-0.594 0-0.269 0.075-0.49 0.167-0.49s0.167-0.131 0.168-0.291c0-0.161 0.113-0.507 0.25-0.769 0.137-0.263 0.249-0.615 0.249-0.782 0-0.168 0.075-0.351 0.166-0.408 0.092-0.056 0.167-0.254 0.167-0.438 0-0.185 0.112-0.448 0.25-0.585 0.137-0.138 0.25-0.428 0.25-0.645 0-0.218 0.075-0.442 0.167-0.498 0.091-0.057 0.166-0.235 0.166-0.396 0-0.16 0.188-0.681 0.417-1.156s0.417-0.939 0.417-1.031c0-0.111 6.379-0.167 18.99-0.167 12.48 0 19.025-0.057 19.093-0.167 0.057-0.092 0.286-0.167 0.51-0.167 0.483 0 2.24-1.709 2.24-2.179 0-0.165 0.075-0.347 0.167-0.404 0.091-0.057 0.166-0.291 0.166-0.522 0-0.23 0.113-0.531 0.25-0.668 0.138-0.138 0.25-0.428 0.25-0.645 0-0.218 0.075-0.442 0.167-0.498 0.092-0.057 0.167-0.319 0.167-0.584 0-0.264 0.075-0.526 0.166-0.583 0.808-0.499-0.128-2.654-1.611-3.711l-0.523-0.372h-36.032v-0.49c0-0.27 0.075-0.537 0.166-0.594 0.092-0.056 0.167-0.281 0.167-0.5 0-0.218 0.066-0.437 0.147-0.487 0.169-0.105 0.686-1.614 0.686-2.002 0-0.144 0.06-0.261 0.132-0.261 0.073 0 0.223-0.337 0.333-0.75l0.201-0.75h19.058c17.346 0 19.109-0.024 19.626-0.274 0.75-0.362 2.131-1.821 2.246-2.372 0.05-0.24 0.162-0.567 0.248-0.726 0.086-0.16 0.156-0.401 0.156-0.536 0-0.227 0.332-1.095 0.687-1.798 0.081-0.159 0.147-0.511 0.147-0.782 0-0.27 0.075-0.538 0.166-0.595 0.493-0.305-0.277-1.928-1.208-2.546-0.344-0.228-0.625-0.48-0.625-0.559 0-0.293-65.714-0.152-66.019 0.141m-76.148 2.623c0 0.225-0.084 0.618-0.187 0.875-0.4 0.996-0.454 1.143-0.533 1.466-0.1 0.408-1.24 3.705-1.441 4.167-0.08 0.183-0.345 0.896-0.589 1.583-0.244 0.688-0.503 1.4-0.576 1.583-0.074 0.184-0.263 0.671-0.421 1.084-0.158 0.412-0.354 0.88-0.436 1.039-0.083 0.159-0.15 0.404-0.15 0.544s-0.07 0.385-0.156 0.544-0.354 0.889-0.597 1.623c-0.242 0.733-0.622 1.839-0.844 2.458s-0.597 1.669-0.833 2.333c-0.237 0.665-0.49 1.359-0.563 1.542-0.074 0.183-0.263 0.671-0.421 1.083-0.158 0.413-0.354 0.881-0.436 1.04-0.083 0.159-0.15 0.425-0.15 0.591 0 0.167-0.066 0.374-0.146 0.461s-0.461 1.096-0.845 2.242c-0.385 1.146-0.762 2.233-0.838 2.416-0.076 0.184-0.338 0.934-0.582 1.667-0.45 1.351-1.172 3.391-1.416 4-0.073 0.183-0.262 0.671-0.42 1.083-0.158 0.413-0.355 0.881-0.437 1.04s-0.149 0.395-0.149 0.524c0 0.431-0.407 0.436-32.103 0.436-34.255 0-32.157 0.055-31.611-0.819 0.094-0.151 0.224-0.515 0.289-0.809 0.064-0.294 0.186-0.577 0.271-0.63 0.084-0.052 0.154-0.273 0.154-0.492 0-0.218 0.075-0.443 0.166-0.5 0.092-0.056 0.167-0.228 0.167-0.381s0.187-0.786 0.417-1.407c0.229-0.62 0.61-1.672 0.846-2.337 0.237-0.664 0.493-1.358 0.57-1.541 0.077-0.184 0.34-0.896 0.584-1.584 0.244-0.687 0.503-1.4 0.576-1.583 0.122-0.304 0.519-1.327 0.842-2.167 0.07-0.183 0.412-1.196 0.759-2.25 1.02-3.091 1.183-3.521 1.467-3.852 0.261-0.305 0.868-0.314 19.743-0.314h19.473l0.178-0.375c0.098-0.207 0.378-0.975 0.623-1.709 0.47-1.412 1.191-3.443 1.419-4 0.075-0.183 0.23-0.596 0.345-0.916 0.114-0.321 0.303-0.809 0.418-1.084 0.48-1.14 0.951-2.534 1.028-3.041l0.082-0.542-7.143 3e-3c-7.689 2e-3 -7.388-0.03-7.669 0.83-0.279 0.857-1.556 4.529-1.709 4.917-0.073 0.183-0.225 0.596-0.338 0.917-0.441 1.248-0.772 2.092-0.898 2.291-0.104 0.164-2.746 0.209-12.29 0.209h-12.156v-0.35c0-0.32 0.296-1.127 0.68-1.856 0.084-0.16 0.153-0.401 0.153-0.536 0-0.136 0.123-0.531 0.273-0.878 0.371-0.856 0.482-1.16 0.779-2.13 0.14-0.459 0.564-1.696 0.942-2.75 0.377-1.055 0.843-2.367 1.035-2.917s0.4-1.075 0.463-1.167c0.063-0.091 0.217-0.504 0.341-0.916 0.125-0.413 0.298-0.844 0.384-0.959 0.125-0.165 6.698-0.208 31.887-0.208h31.729v0.409m70.91-0.253c0.053 0.085-0.011 0.442-0.142 0.791-0.131 0.35-0.439 1.199-0.683 1.886-0.245 0.688-0.506 1.4-0.581 1.584-0.075 0.183-0.231 0.595-0.345 0.916-0.115 0.321-0.318 0.846-0.451 1.167-0.42 1.012-0.529 1.323-1.553 4.417-0.365 1.1-0.728 2.15-0.808 2.333-0.079 0.183-0.271 0.708-0.425 1.167-0.155 0.458-0.344 0.983-0.422 1.166-0.077 0.184-0.271 0.709-0.431 1.167s-0.353 0.905-0.43 0.992c-0.076 0.087-0.139 0.294-0.139 0.46 0 0.167-0.067 0.433-0.149 0.592s-0.278 0.627-0.434 1.039c-0.157 0.413-0.384 0.938-0.507 1.167l-0.222 0.417-18.741 0.042-18.74 0.042-0.173 0.458c-0.095 0.252-0.372 1.02-0.615 1.708-0.392 1.106-0.608 1.683-1.088 2.916-0.072 0.184-0.222 0.596-0.333 0.917-0.112 0.321-0.307 0.82-0.434 1.109-0.127 0.288-0.23 0.608-0.23 0.71s-0.072 0.316-0.159 0.475c-0.088 0.159-0.473 1.227-0.857 2.373s-0.919 2.683-1.19 3.416c-0.27 0.734-0.531 1.503-0.579 1.71-0.131 0.562 0.101 0.552-12.715 0.503l-11.917-0.046 0.042-0.417c0.023-0.229 0.115-0.566 0.204-0.75 0.089-0.183 0.385-1.008 0.656-1.833 0.552-1.674 1.365-3.997 2.276-6.5 0.922-2.533 1.001-2.735 1.124-2.858 0.063-0.063 0.115-0.274 0.115-0.47 0-0.195 0.07-0.427 0.155-0.514 0.086-0.087 0.354-0.758 0.597-1.491 0.641-1.935 1.741-5.113 1.905-5.5 0.077-0.184 0.267-0.709 0.421-1.167 0.155-0.458 0.345-0.983 0.423-1.167 0.258-0.606 0.862-2.327 0.95-2.708 0.048-0.206 0.145-0.375 0.216-0.375 0.07 0 0.165-0.206 0.21-0.458s0.47-1.546 0.944-2.875 1.01-2.867 1.192-3.417c0.183-0.55 0.4-1.15 0.484-1.333 0.084-0.184 0.262-0.671 0.395-1.084 0.24-0.74 0.43-1.231 0.889-2.291l0.234-0.542h30.983c19.017 0 31.019 0.06 31.078 0.156m70.528 0.088c0.051 0.134-0.026 0.483-0.172 0.775-0.146 0.293-0.266 0.634-0.266 0.759s-0.066 0.357-0.146 0.516c-0.378 0.748-0.687 1.578-0.687 1.847 0 0.163-0.153 0.46-0.34 0.661l-0.34 0.365h-39.592l-0.28 0.589c-0.155 0.324-0.281 0.7-0.281 0.835 0 0.136-0.069 0.377-0.152 0.536-0.084 0.159-0.266 0.627-0.404 1.04-0.52 1.544-1.468 4.262-1.601 4.583-0.075 0.183-0.267 0.671-0.427 1.083-0.159 0.413-0.349 0.9-0.423 1.084-0.073 0.183-0.21 0.577-0.304 0.875l-0.172 0.541h19.708c14.253 0 19.759 0.052 19.894 0.186 0.136 0.136 7e-3 0.678-0.487 2.042-0.369 1.02-0.709 2.026-0.755 2.233-0.14 0.63 0.149 0.62-20.288 0.706l-19.827 0.083-0.204 0.417c-0.113 0.229-0.366 0.867-0.563 1.417-0.55 1.532-0.848 2.305-1.012 2.622-0.083 0.16-0.15 0.426-0.15 0.592s-0.063 0.374-0.139 0.461c-0.077 0.087-0.27 0.533-0.43 0.991-0.16 0.459-0.354 0.984-0.431 1.167s-0.267 0.708-0.421 1.167c-0.155 0.458-0.342 0.983-0.416 1.166-0.074 0.184-0.171 0.484-0.215 0.667-0.045 0.183-0.395 1.196-0.78 2.25-0.384 1.054-0.764 2.13-0.843 2.391-0.305 1.005 0.522 0.943-12.47 0.94-6.707-2e-3 -12.041-0.068-12.173-0.151-0.239-0.151-0.21-0.295 0.321-1.597 0.075-0.183 0.173-0.483 0.218-0.666 0.045-0.184 0.469-1.421 0.942-2.75 0.474-1.33 1.015-2.867 1.203-3.417s0.408-1.071 0.488-1.158 0.146-0.295 0.146-0.461 0.067-0.432 0.15-0.592c0.082-0.159 0.278-0.627 0.436-1.039 0.158-0.413 0.349-0.9 0.426-1.083 0.076-0.184 0.25-0.671 0.386-1.084 0.718-2.169 2.188-6.335 2.44-6.916 0.08-0.184 0.254-0.671 0.388-1.084 0.133-0.412 0.334-0.975 0.446-1.25 0.39-0.96 0.471-1.175 0.911-2.416 0.244-0.688 0.506-1.4 0.583-1.584 0.077-0.183 0.177-0.483 0.223-0.666 0.111-0.444 1.31-3.868 1.867-5.334 0.244-0.641 0.482-1.336 0.53-1.544 0.048-0.207 0.153-0.418 0.234-0.468s0.147-0.237 0.147-0.416c0-0.18 0.073-0.456 0.162-0.616 0.089-0.159 0.273-0.57 0.408-0.914l0.246-0.625h32.097c28.004 0 32.109 0.031 32.191 0.244m-109.864 5.05c-0.097 0.068-0.335 0.61-0.529 1.206-0.454 1.392-1.859 5.341-2.549 7.167-0.295 0.779-0.625 1.659-0.735 1.955-0.109 0.296-0.25 0.59-0.313 0.653-0.063 0.062-0.114 0.215-0.114 0.338 0 0.354 12.993 0.243 13.173-0.113 0.069-0.137 0.255-0.588 0.413-1 0.158-0.413 0.347-0.9 0.42-1.083 0.073-0.184 0.169-0.484 0.213-0.667 0.094-0.386 1.56-4.67 1.768-5.167 0.504-1.2 1.013-2.731 1.013-3.045v-0.371l-6.292 2e-3c-3.46 2e-3 -6.371 0.058-6.468 0.125m9.093 2.968c0 0.236-0.113 0.541-0.25 0.678-0.138 0.138-0.25 0.391-0.25 0.562s-0.075 0.358-0.167 0.415c-0.091 0.056-0.166 0.319-0.166 0.583s-0.075 0.527-0.167 0.583c-0.092 0.057-0.169 0.268-0.172 0.469-3e-3 0.2-0.115 0.51-0.25 0.688s-0.245 0.492-0.245 0.699c0 0.206-0.075 0.421-0.166 0.478-0.092 0.056-0.167 0.286-0.167 0.51v0.406h-3.833c-3.519 0-4.214-0.079-3.667-0.416 0.092-0.057 0.167-0.286 0.167-0.51s0.059-0.407 0.132-0.407 0.267-0.431 0.433-0.958 0.369-1.089 0.451-1.248c0.083-0.159 0.15-0.397 0.15-0.528 0-0.132 0.126-0.489 0.279-0.794 0.506-1.012 0.555-1.132 0.555-1.386 0-0.218 0.504-0.253 3.666-0.253h3.667v0.429m-70.833 0.206c0 0.166-0.11 0.447-0.245 0.625s-0.247 0.488-0.25 0.689-0.08 0.411-0.172 0.468-0.167 0.243-0.167 0.413-0.125 0.56-0.278 0.865c-0.507 1.012-0.555 1.132-0.555 1.389 0 0.14-0.07 0.384-0.157 0.544-0.086 0.159-0.2 0.495-0.253 0.747l-0.096 0.459h-4.614c-3.588 0-4.569-0.045-4.413-0.2 0.11-0.11 0.2-0.41 0.2-0.667s0.073-0.467 0.163-0.467 0.208-0.206 0.263-0.458 0.169-0.627 0.253-0.833c0.085-0.207 0.223-0.544 0.307-0.75 0.083-0.207 0.286-0.788 0.45-1.292s0.357-0.988 0.431-1.075c0.073-0.087 0.133-0.293 0.133-0.458 0-0.282 0.277-0.3 4.5-0.3 4.23 0 4.5 0.018 4.5 0.301m182.541 0.799-0.875 0.917v13.33c0 11.695 0.031 13.342 0.25 13.426 0.138 0.052 0.25 0.188 0.25 0.3 0 0.302 1.179 1.427 1.495 1.427 0.149 0 0.35 0.078 0.446 0.173 0.202 0.203 6.351 0.128 7.143-0.087 0.275-0.074 0.679-0.312 0.897-0.528 0.219-0.215 0.463-0.392 0.542-0.392s0.144-0.078 0.144-0.174 0.188-0.362 0.417-0.591c0.402-0.402 0.416-0.493 0.416-2.596 0-1.918 0.03-2.155 0.25-1.972 0.138 0.114 0.25 0.348 0.25 0.52 0 0.173 0.075 0.313 0.167 0.313s0.167 0.152 0.167 0.337 0.187 0.634 0.416 0.997c0.23 0.363 0.417 0.762 0.417 0.887 0 0.847 1.748 2.802 2.847 3.185 0.862 0.3 5.728 0.378 5.903 0.094 0.057-0.091 0.278-0.166 0.492-0.166 0.403 0 2.258-1.718 2.258-2.092 0-0.106 0.188-0.545 0.417-0.976s0.416-0.929 0.416-1.108c0-0.178 0.075-0.324 0.167-0.324s0.167-0.141 0.167-0.313 0.112-0.407 0.25-0.521c0.137-0.114 0.25-0.37 0.25-0.57s0.067-0.434 0.15-0.521 0.187-0.309 0.231-0.492 0.089 0.884 0.099 2.371l0.02 2.705 0.893 0.879c1.251 1.229 1.706 1.335 5.477 1.267l3.07-0.055 0.854-0.584c0.469-0.321 0.946-0.752 1.058-0.958s0.266-0.375 0.342-0.375c0.077 0 0.139-0.221 0.139-0.49 0-0.27 0.075-0.537 0.167-0.593 0.108-0.068 0.166-4.415 0.166-12.5s-0.058-12.433-0.166-12.5c-0.092-0.057-0.167-0.286-0.167-0.51s-0.075-0.407-0.167-0.407c-0.091 0-0.166-0.096-0.166-0.213 0-0.231-0.94-1.12-1.184-1.12-0.082 0-0.15-0.075-0.15-0.167 0-0.108-2.038-0.165-5.791-0.161-5.855 5e-3 -6.375 0.055-6.375 0.618 0 0.094-0.156 0.211-0.346 0.261s-0.386 0.246-0.436 0.436-0.155 0.346-0.233 0.346c-0.202 0-0.652 0.916-0.652 1.325 0 0.188-0.075 0.342-0.167 0.342-0.091 0-0.166 0.154-0.166 0.343 0 0.188-0.188 0.678-0.417 1.089-0.229 0.41-0.417 0.836-0.417 0.946s-0.197 0.614-0.438 1.119c-0.241 0.506-0.514 1.107-0.607 1.336-0.253 0.626-0.652 1.546-0.813 1.873-0.078 0.159-0.142 0.379-0.142 0.489 0 0.285-0.673 1.638-0.815 1.638-0.214 0-0.518-0.395-0.518-0.674 0-0.252-0.291-0.981-0.677-1.699-0.086-0.159-0.156-0.44-0.156-0.625 0-0.184-0.075-0.335-0.167-0.335s-0.167-0.131-0.167-0.29-0.197-0.702-0.438-1.208c-0.241-0.505-0.514-1.106-0.607-1.336-0.253-0.626-0.652-1.546-0.813-1.872-0.078-0.16-0.142-0.403-0.142-0.542s-0.067-0.252-0.148-0.252c-0.082 0-0.196-0.188-0.253-0.417-0.058-0.229-0.179-0.417-0.269-0.417-0.089 0-0.163-0.159-0.163-0.355 0-0.212-0.373-0.712-0.932-1.25l-0.931-0.895-5.777 9e-3 -5.777 8e-3 -0.875 0.917m74.389-0.789c-0.05 0.08-0.482 0.183-0.961 0.229-0.48 0.046-0.9 0.169-0.935 0.272-0.034 0.103-0.245 0.188-0.468 0.188-0.379 0-1.747 0.761-1.872 1.041-0.03 0.069-0.143 0.127-0.25 0.128-0.666 9e-3 -4.278 3.871-4.278 4.574 0 0.141-0.075 0.257-0.166 0.257-0.092 0-0.167 0.179-0.167 0.399 0 0.219-0.113 0.442-0.25 0.494-0.138 0.053-0.25 0.282-0.25 0.508 0 0.227-0.075 0.459-0.167 0.515-0.091 0.057-0.166 0.319-0.166 0.584 0 0.264-0.063 0.519-0.139 0.566-0.724 0.447-0.726 10.585-3e-3 11.033 0.078 0.048 0.142 0.266 0.142 0.484s0.075 0.443 0.166 0.5c0.092 0.057 0.167 0.277 0.167 0.489 0 0.213 0.112 0.48 0.25 0.594 0.137 0.114 0.25 0.347 0.25 0.518 0 1.138 4.64 5.982 5.731 5.982 0.148 0 0.269 0.075 0.269 0.167s0.131 0.169 0.292 0.172c0.16 3e-3 0.437 0.115 0.615 0.25s0.53 0.245 0.782 0.245 0.504 0.075 0.561 0.166c0.057 0.092 0.769 0.167 1.583 0.167 0.815 0 1.527 0.075 1.584 0.167 0.056 0.091 0.544 0.166 1.083 0.166s1.027-0.075 1.083-0.166c0.057-0.092 0.804-0.167 1.667-0.167s1.61-0.075 1.667-0.167c0.056-0.091 0.266-0.166 0.465-0.166 0.409 0 3.024-1.185 3.285-1.489 0.045-0.053 0.383-0.319 0.75-0.59 0.861-0.637 2.416-2.183 2.416-2.402 0-0.093 0.188-0.371 0.417-0.618 0.229-0.248 0.417-0.552 0.417-0.676s0.112-0.225 0.25-0.225c0.137 0 0.25 0.086 0.25 0.192s0.187 0.439 0.416 0.739c0.23 0.301 0.418 0.608 0.418 0.683 4e-3 0.446 3.702 3.552 4.23 3.552 0.148 0 0.269 0.075 0.269 0.167s0.136 0.167 0.301 0.167c0.166 0 0.448 0.11 0.625 0.244 0.178 0.135 0.526 0.247 0.772 0.25 0.247 3e-3 0.495 0.081 0.552 0.172 0.057 0.093 0.832 0.167 1.75 0.167s1.693 0.074 1.75 0.167c0.057 0.091 0.469 0.166 0.917 0.166 0.447 0 0.86-0.075 0.916-0.166 0.058-0.093 0.832-0.167 1.75-0.167 0.919 0 1.693-0.074 1.75-0.167 0.057-0.091 0.262-0.166 0.455-0.166 1.234 0 6.295-3.655 6.295-4.546 0-0.08 0.111-0.256 0.247-0.391 0.135-0.136 0.359-0.408 0.497-0.605l0.252-0.359 0.335 0.36c0.185 0.198 0.336 0.431 0.336 0.518 0 0.341 3.146 3.356 3.501 3.356 0.091 0 0.166 0.064 0.166 0.143 0 0.196 2.617 1.524 3.003 1.524 0.171 0 0.357 0.075 0.413 0.166 0.058 0.093 0.832 0.167 1.75 0.167 0.919 0 1.693 0.074 1.75 0.167 0.131 0.21 1.63 0.219 1.842 0.01 0.087-0.085 0.908-0.191 1.825-0.234 2.03-0.095 2.844-0.238 3.098-0.544 0.106-0.128 0.292-0.232 0.414-0.232 1.078 0 5.738-3.995 5.738-4.918 0-0.137 0.061-0.249 0.135-0.249 0.147 0 0.698-1.162 0.698-1.473 0-0.106 0.06-0.194 0.133-0.194 0.145 0 0.461-0.962 0.737-2.25 0.245-1.138 0.362-9.752 0.136-9.978-0.095-0.094-0.172-0.454-0.172-0.799 0-0.346-0.123-0.912-0.273-1.259-0.151-0.347-0.332-0.78-0.404-0.964-0.474-1.209-0.738-1.75-0.855-1.75-0.074 0-0.135-0.112-0.135-0.248 0-0.329-3.417-3.752-3.745-3.752-0.14 0-0.255-0.075-0.255-0.166 0-0.092-0.107-0.167-0.238-0.167s-0.34-0.094-0.465-0.208c-0.368-0.338-0.938-0.625-1.253-0.631-0.162-3e-3 -0.44-0.115-0.618-0.25-0.177-0.134-0.604-0.244-0.948-0.244s-0.671-0.075-0.728-0.167c-0.139-0.225-7.027-0.225-7.167 0-0.056 0.092-0.342 0.167-0.635 0.168-0.292 0-0.746 0.113-1.009 0.25-0.262 0.137-0.572 0.249-0.689 0.249-0.263 0-0.842 0.3-1.528 0.791-0.288 0.207-0.6 0.375-0.694 0.375s-0.318 0.188-0.498 0.417-0.398 0.417-0.484 0.417c-0.187 0-1.927 1.744-2.327 2.333-0.156 0.229-0.33 0.454-0.388 0.5s-0.154 0.215-0.213 0.375c-0.144 0.39-0.404 0.369-0.535-0.042-0.058-0.183-0.175-0.333-0.261-0.333-0.085 0-0.155-0.072-0.155-0.161 0-0.405-3.089-3.506-3.493-3.506-0.096 0-0.174-0.066-0.174-0.147s-0.131-0.192-0.292-0.248c-0.16-0.055-0.516-0.246-0.791-0.424s-0.623-0.328-0.773-0.335-0.487-0.124-0.75-0.261-0.717-0.25-1.009-0.25c-0.293-1e-3 -0.578-0.076-0.635-0.168-0.128-0.208-7.025-0.229-7.153-0.022-0.05 0.08-0.482 0.183-0.961 0.229-0.48 0.046-0.9 0.169-0.935 0.272-0.034 0.103-0.243 0.188-0.465 0.188-0.221 0-0.403 0.075-0.403 0.166 0 0.092-0.14 0.167-0.313 0.167-0.172 0-0.406 0.112-0.52 0.25-0.114 0.137-0.279 0.25-0.365 0.25-0.476 0-3.635 2.765-3.635 3.181 0 0.074-0.187 0.337-0.417 0.585-0.229 0.247-0.416 0.543-0.416 0.657s-0.113 0.251-0.25 0.304c-0.164 0.063-0.25-5e-3 -0.25-0.195 0-0.16-0.244-0.585-0.542-0.943-0.835-1.005-3.182-3.256-3.396-3.256-0.063 0-0.36-0.187-0.66-0.416-0.301-0.229-0.664-0.417-0.808-0.417-0.143 0-0.261-0.075-0.261-0.167 0-0.091-0.141-0.166-0.314-0.166s-0.529-0.112-0.792-0.249-0.759-0.25-1.102-0.25c-0.344-1e-3 -0.625-0.076-0.625-0.168 0-0.209-6.941-0.23-7.07-0.022m-21.784 0.393c-0.126 0.123-0.473 0.395-0.771 0.604-0.298 0.21-0.542 0.447-0.542 0.528 0 0.08-0.187 0.349-0.417 0.596-0.233 0.252-0.416 0.65-0.416 0.906 0 0.387-0.138 0.523-0.914 0.903-0.502 0.246-0.957 0.517-1.01 0.603-0.053 0.085-0.537 0.156-1.076 0.156-0.54 0-1.027 0.075-1.084 0.166-0.056 0.092-0.644 0.167-1.306 0.167-1.262 0-1.591 0.133-2.451 0.993-0.968 0.968-0.993 1.062-0.993 3.761v2.513l0.913 0.928c1.076 1.094 1.231 1.134 4.365 1.136 1.207 2e-3 2.314 0.048 2.459 0.103 0.234 0.09 0.263 0.863 0.263 6.999v6.898l0.375 0.45c1.353 1.621 1.654 1.719 5.303 1.719 1.8 0 3.01-0.066 3.072-0.167 0.057-0.091 0.281-0.166 0.499-0.166 0.256 0 0.725-0.324 1.324-0.913l0.927-0.913v-26.219l-0.416-0.387c-0.229-0.212-0.417-0.464-0.417-0.56s-0.061-0.175-0.135-0.175c-0.075 0-0.316-0.169-0.538-0.375-0.5-0.467-6.569-0.687-7.014-0.254m-40.627 2.592c0.148 0.341 0.466 1.054 0.708 1.583 0.242 0.53 0.439 0.997 0.439 1.038s0.225 0.566 0.5 1.166 0.5 1.135 0.5 1.187c0 0.053 0.109 0.332 0.243 0.621 0.133 0.289 0.401 0.938 0.596 1.442 0.454 1.176 0.798 1.97 1.093 2.526 0.129 0.243 0.235 0.562 0.235 0.708s0.075 0.266 0.167 0.266c0.091 0 0.166 0.098 0.166 0.219 0 0.12 0.177 0.589 0.393 1.041 0.216 0.453 0.685 1.553 1.042 2.446 0.624 1.562 0.969 1.954 1.171 1.336 0.053-0.161 0.276-0.688 0.495-1.172 0.22-0.483 0.399-0.99 0.399-1.125s0.075-0.245 0.167-0.245 0.167-0.151 0.167-0.336c0-0.184 0.073-0.465 0.163-0.625 0.09-0.159 0.656-1.564 1.258-3.122 0.602-1.559 1.163-2.984 1.247-3.167 0.554-1.202 0.998-2.325 0.998-2.521 0-0.126 0.075-0.229 0.167-0.229s0.167-0.113 0.167-0.251 0.187-0.639 0.416-1.114c0.23-0.475 0.417-0.951 0.417-1.057 0-0.107 0.119-0.431 0.263-0.721l0.264-0.529 5.028 0.045 5.028 0.044v25.166h-6.833l-0.083-8.333c-0.091-9.114-0.029-8.618-0.839-6.667-0.077 0.184-0.247 0.596-0.38 0.917-0.255 0.614-0.512 1.211-1.115 2.583-0.201 0.459-0.427 0.984-0.501 1.167-0.075 0.183-0.449 1.008-0.832 1.833-0.763 1.644-0.739 1.589-1.506 3.5-0.512 1.277-0.729 1.784-1.512 3.537-0.193 0.432-0.417 0.959-0.497 1.17-0.186 0.49-5.744 0.53-5.994 0.043-0.183-0.355-1.059-2.252-1.539-3.333-0.224-0.504-0.56-1.254-0.746-1.667-0.186-0.412-0.69-1.612-1.12-2.666-0.43-1.055-0.954-2.292-1.165-2.75-0.21-0.459-0.606-1.321-0.88-1.917s-0.612-1.346-0.75-1.667c-0.805-1.863-0.94-2.096-0.969-1.666-0.015 0.229-0.011 3.812 9e-3 7.962 0.028 5.753-0.012 7.604-0.168 7.792-0.167 0.201-0.799 0.246-3.517 0.246h-3.313v-25.334l5.042 5e-3 5.042 4e-3 0.269 0.621m69.389-0.322c4.374 1.034 7.083 4.226 7.871 9.276 0.296 1.896 0.073 7.782-0.304 8.015-0.078 0.048-0.142 0.241-0.142 0.428 0 0.937-1.6 3.9-2.676 4.957-3.085 3.027-9.798 3.811-14.108 1.647-7.506-3.769-7.635-19.517-0.19-23.338 1.156-0.594 2.231-0.959 2.818-0.959 0.259 0 0.518-0.079 0.577-0.175 0.144-0.231 5.047-0.113 6.154 0.149m24.797 0.068c4.857 1.177 7.478 5.057 7.74 11.458 0.436 10.665-5.416 15.758-15.554 13.535-2.316-0.507-6.225-4.009-6.225-5.576 0-0.124-0.061-0.297-0.137-0.384-0.173-0.2-0.621-1.714-0.853-2.88-0.541-2.722 0.026-9.287 0.876-10.137 0.063-0.062 0.114-0.211 0.114-0.33 0-1.898 4.689-5.728 7.011-5.728 0.259 0 0.518-0.079 0.577-0.175 0.17-0.274 5.108-0.108 6.451 0.217m23.533-0.224c0.281 0.084 0.884 0.238 1.338 0.342 0.778 0.179 1.906 0.627 2.09 0.831 0.046 0.051 0.283 0.204 0.527 0.342 1.198 0.675 3.473 3.244 3.473 3.921 0 0.061 0.103 0.348 0.229 0.637 0.229 0.527 0.407 1.154 0.761 2.678 0.56 2.41 0.362 6.627-0.461 9.814-1.164 4.507-5.005 7.033-10.695 7.033-6.155 0-9.49-2.431-10.972-8-0.575-2.157-0.578-9.327-5e-3 -9.681 0.079-0.048 0.143-0.266 0.143-0.484 0-0.464 0.723-2.214 1.308-3.168 1.203-1.961 4.432-4.083 6.212-4.083 0.253 0 0.507-0.075 0.564-0.167 0.13-0.211 4.785-0.223 5.488-0.015m-71.447 0.287 0.375 0.1v24.795h-6.5v-7.813c0-6.295-0.043-7.849-0.221-7.997-0.143-0.119-1.544-0.2-3.958-0.229l-3.737-0.045-0.047-1.774c-0.06-2.227 0-2.309 1.684-2.309 2.23 0 4.849-0.846 6.031-1.949 0.461-0.431 0.634-0.72 1.272-2.134 0.124-0.275 0.301-0.555 0.393-0.623 0.2-0.147 4.174-0.166 4.708-0.022m17.35 4.573c-3.088 2.019-3.573 12.334-0.714 15.193 2.137 2.138 5.691 1.474 6.897-1.288 1.366-3.131 1.294-9.647-0.136-12.249-1.194-2.174-4.057-2.958-6.047-1.656m24.592-0.034c-1.029 0.756-1.46 1.325-2.035 2.689-0.71 1.685-0.735 8.57-0.037 10.25 0.076 0.183 0.234 0.587 0.352 0.898 0.311 0.824 1.856 2.352 2.379 2.352 0.232 0 0.468 0.075 0.524 0.167 0.748 1.21 5.25-1.388 5.25-3.03 0-0.156 0.066-0.324 0.145-0.374 0.276-0.17 0.411-1.858 0.407-5.096-5e-3 -3.961-0.053-4.278-0.936-6.167-0.934-1.999-4.334-2.949-6.049-1.689m24.524-0.027c-1.651 1.079-2.328 2.809-2.505 6.406-0.34 6.893 1.14 10.016 4.748 10.016 0.994 0 2-0.178 2-0.354 0-0.06 0.243-0.241 0.541-0.402 3.015-1.627 3.123-12.84 0.148-15.317-1.155-0.961-3.718-1.143-4.932-0.349m-45.792 2.324c0.392 0.392 0.701 1.037 0.701 1.461 0 0.2 0.087 0.451 0.194 0.558 0.798 0.798 0.151 8.148-0.807 9.165-0.739 0.783-2.72 0-2.72-1.076 0-0.174-0.091-0.407-0.202-0.518-0.268-0.268-0.29-7.718-0.023-8.055 0.098-0.124 0.229-0.434 0.289-0.687 0.257-1.074 1.824-1.591 2.568-0.848m24.714 0.213c0.268 0.267 0.487 0.638 0.487 0.823s0.065 0.376 0.143 0.425c0.392 0.242 0.336 7.032-0.071 8.681-0.402 1.628-3.405 1.709-3.405 0.092 0-0.177-0.064-0.362-0.143-0.411-0.078-0.048-0.187-0.513-0.24-1.033-0.054-0.52-0.177-1.025-0.274-1.122-0.221-0.22-0.238-4.051-0.019-4.187 0.086-0.053 0.205-0.451 0.265-0.885 0.362-2.634 1.889-3.752 3.257-2.383m24.426-0.029c0.217 0.252 0.394 0.573 0.394 0.713 1e-3 0.14 0.106 0.405 0.236 0.59 0.631 0.901 0.564 6.918-0.096 8.572-0.511 1.28-0.573 1.333-1.574 1.333-1.122 0-1.53-0.368-1.807-1.629-0.065-0.293-0.187-0.577-0.271-0.629-0.188-0.116-0.209-7.075-0.022-7.075 0.073 0 0.261-0.416 0.417-0.924 0.476-1.546 1.811-2.012 2.723-0.951m-327.311 3.833c-0.245 0.594-0.527 1.364-1.542 4.208-0.245 0.688-0.509 1.4-0.586 1.584-0.077 0.183-0.271 0.708-0.431 1.166-0.16 0.459-0.353 0.905-0.43 0.992-0.076 0.087-0.139 0.318-0.139 0.514 0 0.195-0.051 0.407-0.114 0.47-0.192 0.192-0.539 1.327-0.45 1.472 0.148 0.239 14.331 0.168 14.523-0.073 0.092-0.114 0.664-1.671 1.272-3.458 0.608-1.788 1.176-3.4 1.262-3.583 0.087-0.184 0.271-0.671 0.41-1.084 0.474-1.404 0.702-1.993 0.816-2.108 0.704-0.703 0.493-0.725-7.11-0.725h-7.225l-0.256 0.625m11.039 2.127c0 0.091-0.105 0.322-0.555 1.22-0.153 0.305-0.278 0.736-0.278 0.958s-0.075 0.403-0.167 0.403-0.167 0.142-0.167 0.315c0 0.172-0.112 0.529-0.249 0.791-0.137 0.263-0.249 0.604-0.25 0.759 0 0.156-0.076 0.329-0.167 0.385-0.092 0.057-0.167 0.286-0.167 0.51v0.407h-4.679c-4.253 0-4.654-0.024-4.416-0.262 0.144-0.144 0.262-0.402 0.262-0.573 0-0.172 0.075-0.358 0.166-0.415 0.092-0.057 0.167-0.282 0.167-0.5s0.075-0.443 0.167-0.5c0.091-0.057 0.166-0.218 0.166-0.36 0-0.24 0.335-1.106 0.681-1.763 0.084-0.159 0.153-0.443 0.153-0.632 0-0.794 0.127-0.815 4.875-0.822 2.452-3e-3 4.458 0.032 4.458 0.079" fill="#0e0e0e" fill-rule="evenodd"/><path d="m26.043 5.875c-0.091 0.115-0.482 1.146-0.869 2.292s-0.892 2.608-1.122 3.25c-0.542 1.509-1.544 4.239-1.714 4.666-1.109 2.806-1.356 3.635-1.126 3.782 0.234 0.149 22.682 0.181 23.233 0.034 0.198-0.054 0.436-0.297 0.527-0.54 0.312-0.828 1.002-2.772 1.608-4.526 0.611-1.769 0.938-2.637 1.368-3.626l0.236-0.544 7.531 0.044c8.279 0.047 7.972 5e-3 7.481 1.023-0.094 0.194-0.301 0.728-0.461 1.187-0.159 0.458-0.353 0.904-0.429 0.991-0.077 0.087-0.139 0.295-0.139 0.461s-0.071 0.432-0.158 0.592c-0.087 0.159-0.306 0.739-0.488 1.289-0.388 1.174-1.905 5.469-2.159 6.109-0.096 0.243-0.273 0.505-0.393 0.583-0.121 0.078-8.982 0.179-19.692 0.225l-19.474 0.083-0.662 1.833c-1.286 3.556-1.828 5.003-1.984 5.29-0.086 0.159-0.157 0.373-0.157 0.475s-0.107 0.421-0.237 0.71c-0.131 0.289-0.511 1.35-0.844 2.359-0.334 1.008-0.79 2.339-1.013 2.958s-0.6 1.669-0.836 2.333c-0.441 1.24-0.544 1.51-0.902 2.375-0.433 1.044-0.484 1.388-0.223 1.488 0.137 0.053 14.262 0.096 31.39 0.096 33.459 0 31.665 0.043 31.665-0.764 0-0.133 0.071-0.371 0.158-0.53s0.32-0.777 0.519-1.373c0.672-2.017 1.618-4.687 3.146-8.876 0.159-0.435 0.339-0.841 0.4-0.902s0.111-0.23 0.111-0.375c1e-3 -0.145 0.113-0.478 0.25-0.741s0.249-0.582 0.249-0.711c0-0.128 0.074-0.363 0.164-0.522 0.089-0.159 0.385-0.965 0.657-1.79 0.666-2.018 2.726-7.739 3.001-8.333 0.177-0.381 0.65-1.703 1.341-3.75 0.264-0.779 0.788-2.279 1.165-3.333 0.377-1.055 0.842-2.367 1.033-2.917s0.413-1.071 0.493-1.158c0.081-0.087 0.146-0.327 0.146-0.532 0-0.206 0.075-0.42 0.167-0.477 0.092-0.056 0.167-0.173 0.167-0.26 0-0.259-62.919-0.208-63.124 0.052m72.344 0c-0.085 0.115-0.325 0.733-0.535 1.375-0.577 1.764-1.683 4.957-1.847 5.333-0.08 0.184-0.344 0.896-0.588 1.584-0.244 0.687-0.504 1.4-0.577 1.583-0.462 1.154-0.72 1.851-1.235 3.333-1.052 3.029-1.997 5.677-3.508 9.834-0.234 0.641-0.501 1.297-0.594 1.456s-0.17 0.404-0.17 0.544-0.071 0.384-0.159 0.544c-0.088 0.159-0.355 0.889-0.594 1.622-0.239 0.734-0.617 1.84-0.84 2.459-0.224 0.618-0.6 1.668-0.837 2.333-0.236 0.665-0.493 1.358-0.57 1.542-0.077 0.183-0.271 0.708-0.431 1.166-0.16 0.459-0.353 0.905-0.43 0.992-0.076 0.087-0.139 0.316-0.139 0.508 0 0.193-0.088 0.439-0.197 0.548-0.108 0.108-0.14 0.254-0.069 0.325 0.148 0.148 22.421 0.272 23.212 0.129 0.578-0.104 0.75-0.484 2.421-5.335 0.095-0.275 0.265-0.725 0.378-1s0.299-0.763 0.414-1.083c0.114-0.321 0.27-0.734 0.345-0.917 0.123-0.302 0.809-2.21 1.168-3.25 0.079-0.229 0.454-1.317 0.833-2.417s0.81-2.093 0.958-2.208c0.21-0.164 4.265-0.208 18.986-0.208 18.04 0 18.718-0.011 18.718-0.306 0-0.168 0.051-0.357 0.114-0.42 0.127-0.126 0.335-0.679 1.047-2.774 0.79-2.325 2.678-7.627 2.998-8.417 0.074-0.183 0.264-0.671 0.421-1.083 0.158-0.413 0.355-0.881 0.437-1.04s0.15-0.436 0.15-0.615 0.066-0.366 0.146-0.416c0.081-0.05 0.185-0.261 0.232-0.469 0.047-0.207 0.464-1.46 0.926-2.785 0.463-1.324 0.804-2.468 0.759-2.541-0.149-0.241-61.165-0.167-61.343 0.074m68.06 0.583c-1.404 4.115-1.991 5.797-2.369 6.792-0.243 0.642-0.595 1.617-0.782 2.167s-0.405 1.071-0.485 1.158c-0.079 0.087-0.144 0.294-0.144 0.461 0 0.166-0.071 0.432-0.156 0.591-0.397 0.736-0.678 1.45-0.678 1.722 0 0.164-0.066 0.339-0.147 0.389s-0.185 0.298-0.231 0.552c-0.046 0.253-0.458 1.51-0.917 2.793-0.459 1.284-1.072 3.009-1.363 3.834s-0.626 1.725-0.744 2-0.308 0.762-0.423 1.083c-0.114 0.321-0.27 0.733-0.345 0.917-0.186 0.453-0.863 2.382-1.405 4-0.245 0.733-0.637 1.858-0.869 2.5-0.882 2.435-1.591 4.345-1.731 4.666-0.475 1.093-1.537 0.996 11.393 1.043 11.477 0.042 12.282 0.01 12.282-0.488 0-0.1 0.267-0.941 0.592-1.869 0.525-1.493 0.736-2.062 1.247-3.352 0.265-0.67 1.311-3.521 1.559-4.25 1.536-4.51 2.144-6.116 2.383-6.292 0.223-0.164 4.499-0.208 20.052-0.208h19.768l0.621-1.792c0.342-0.985 0.694-1.922 0.783-2.081s0.162-0.365 0.162-0.458c0-0.114-6.485-0.169-19.646-0.169-16.595 0-19.676-0.036-19.839-0.233-0.187-0.225-0.111-0.543 0.484-2.017 0.074-0.184 0.334-0.934 0.579-1.667 0.244-0.733 0.626-1.84 0.85-2.458 0.223-0.619 0.599-1.669 0.835-2.334 0.504-1.416 0.6-1.666 0.961-2.5l0.271-0.625h19.924c18.829 0 19.93-0.016 20.018-0.291 0.051-0.161 0.152-0.442 0.225-0.625 0.172-0.437 0.677-1.744 0.837-2.167 0.069-0.183 0.211-0.543 0.314-0.8 0.103-0.256 0.187-0.537 0.187-0.625 0-0.1-11.791-0.158-31.891-0.158h-31.892l-0.27 0.791m-32.283 4.25c-1e-3 0.207-0.122 0.713-0.268 1.125-0.146 0.413-0.553 1.575-0.903 2.584-0.884 2.541-1.632 4.604-1.813 5-0.084 0.183-0.356 0.896-0.604 1.583-0.65 1.802-0.047 1.667-7.421 1.667-7.079 0-7.015 9e-3 -6.638-0.938 0.105-0.264 0.699-1.942 1.32-3.729 1.531-4.403 2.285-6.479 2.59-7.125l0.255-0.542h13.485l-3e-3 0.375m109.447 5.903c-0.216 0.217-0.129 24.471 0.089 24.689 0.33 0.33 5.534 0.275 5.871-0.062 0.232-0.231 0.262-1.238 0.262-8.555 0-4.562 0.045-8.339 0.1-8.394 0.265-0.265 0.596 0.22 1.316 1.93 0.432 1.026 0.965 2.26 1.185 2.744 0.219 0.484 0.399 0.913 0.399 0.953 0 0.074 0.377 0.917 1.454 3.251 0.317 0.687 0.988 2.225 1.49 3.416 1.181 2.802 1.386 3.273 1.57 3.623 0.084 0.159 0.153 0.391 0.153 0.516 0 0.631 0.54 0.778 2.851 0.778 2.293 0 2.982-0.171 2.982-0.738 0-0.23 0.369-1.129 1.184-2.887 0.266-0.574 0.483-1.081 0.483-1.127 0-0.047 0.271-0.666 0.603-1.375 1.207-2.584 1.384-2.987 2.071-4.706 0.385-0.963 0.851-2.088 1.036-2.5 0.184-0.413 0.516-1.163 0.736-1.667s0.472-1.047 0.56-1.206c0.089-0.159 0.161-0.39 0.161-0.513 0-0.218 0.797-1.075 0.869-0.935 0.021 0.039 0.077 4.008 0.125 8.821l0.089 8.75 2.821 0.045c2.145 0.035 2.853-5e-3 2.956-0.166 0.074-0.117 0.136-5.744 0.137-12.504l3e-3 -12.292h-9.326l-0.337 0.698c-0.186 0.384-0.337 0.757-0.337 0.829s-0.196 0.564-0.434 1.093c-0.545 1.209-0.573 1.278-1.322 3.297-0.606 1.63-0.82 2.166-1.328 3.317-0.137 0.311-0.25 0.612-0.25 0.668s-0.158 0.457-0.352 0.891c-0.194 0.435-0.462 1.053-0.595 1.374-0.471 1.136-0.523 1.258-0.862 2.023-0.188 0.425-0.391 0.97-0.451 1.21-0.061 0.24-0.177 0.478-0.258 0.528-0.082 0.05-0.148 0.226-0.148 0.389 0 0.287-0.604 0.975-0.731 0.835-0.12-0.132-0.904-1.928-1.847-4.229-0.523-1.276-1.104-2.663-1.292-3.08-1.307-2.915-1.537-3.445-2.781-6.422-0.651-1.556-1.183-2.917-1.183-3.024 0-0.379-9.353-0.655-9.722-0.286m73.889 0.079c-5.441 1.193-7.882 3.789-8.754 9.31-1.21 7.659 1.726 14.159 6.921 15.323 0.504 0.113 1.188 0.274 1.519 0.358 1.362 0.344 4.391 0.171 6.564-0.375 2.736-0.688 5.263-3.283 6.302-6.473 0.968-2.973 0.93-8.931-0.075-11.458-0.849-2.138-2.414-4.238-3.774-5.064-0.341-0.207-0.657-0.42-0.703-0.474-0.113-0.132-2.776-0.963-3.5-1.092-1.06-0.19-3.737-0.222-4.5-0.055m24.917-0.031c-0.184 0.083-0.549 0.156-0.811 0.163-0.468 0.011-1.906 0.418-2.479 0.701-0.159 0.079-0.362 0.144-0.45 0.144-0.355 0-2.379 1.572-2.967 2.303-0.345 0.429-0.667 0.817-0.716 0.863-0.315 0.293-1.229 2.465-1.474 3.5-1.922 8.143 1.053 15.75 6.647 16.992 0.504 0.112 1.188 0.272 1.519 0.356 2.006 0.507 6.523-0.068 8.314-1.059 3.527-1.95 4.98-5.009 5.124-10.792 0.196-7.852-2.403-11.896-8.374-13.029-1.204-0.229-3.943-0.318-4.333-0.142m24.5 0c-0.184 0.083-0.549 0.156-0.811 0.163-0.468 0.011-1.906 0.418-2.479 0.701-0.159 0.079-0.396 0.144-0.528 0.144-0.131 0-0.263 0.056-0.293 0.125-0.031 0.068-0.485 0.405-1.009 0.748-5.749 3.759-5.704 17.93 0.067 21.509 1.085 0.673 1.759 1.01 2.303 1.149 4.009 1.033 7.456 0.836 10.302-0.588 6.828-3.416 7.344-17.822 0.798-22.272-1.866-1.268-6.983-2.297-8.35-1.679m-71.686 0.795c-0.828 2.573-3.046 3.969-6.994 4.402l-1.904 0.209v3.429l3.792 0.045 3.792 0.044 0.166 15.834 2.768 0.045c2.197 0.036 2.808-2e-3 2.96-0.185 0.141-0.17 0.18-3.359 0.148-12.129l-0.042-11.898-2.295-0.046c-2.077-0.042-2.305-0.019-2.391 0.25m25.868 3.141c0.496 0.144 0.901 0.332 0.901 0.417s0.111 0.155 0.248 0.155c1.84 0 3.252 7.13 2.344 11.833-0.695 3.597-2.087 5-4.958 5-3.633 0-5.295-2.773-5.294-8.833 0-6.654 2.492-9.813 6.759-8.572m24.523 7e-3c1.515 0.44 2.7 1.914 3.401 4.231 0.527 1.743 0.267 8.643-0.373 9.873-0.082 0.159-0.153 0.384-0.157 0.5-3e-3 0.116-0.322 0.612-0.708 1.102-0.626 0.796-0.927 1.03-1.991 1.551-0.159 0.077-0.891 0.141-1.627 0.141-2.901 0-4.285-1.429-5.003-5.167-0.202-1.048-0.185-6.426 0.022-7.333 0.094-0.413 0.212-0.994 0.261-1.293s0.157-0.585 0.238-0.635c0.082-0.05 0.15-0.218 0.153-0.374 0.029-1.775 3.402-3.289 5.784-2.596m24.275-0.073c3.092 0.884 4.4 4.44 3.927 10.674-0.274 3.607-1.678 6.464-3.177 6.464-0.162 0-0.34 0.075-0.397 0.166-0.057 0.092-0.737 0.167-1.512 0.167-4.144 0-5.72-3.29-5.226-10.908 0.326-5.019 2.819-7.582 6.385-6.563m-312.451 6.317c0.128 0.128 0.093 0.426-0.123 1.042-0.167 0.474-0.684 1.987-1.15 3.362-0.465 1.375-0.919 2.63-1.009 2.789-0.09 0.16-0.164 0.373-0.164 0.475s-0.104 0.422-0.23 0.711c-0.127 0.289-0.322 0.787-0.434 1.108-0.212 0.609-0.338 0.943-0.645 1.709l-0.184 0.458h-7.509c-6.771 0-7.519-0.027-7.612-0.27-0.103-0.269 0.364-1.836 0.637-2.138 0.079-0.087 0.144-0.316 0.144-0.509 0-0.192 0.066-0.421 0.148-0.508 0.081-0.087 0.378-0.833 0.658-1.658 1.63-4.796 2.22-6.356 2.473-6.542 0.378-0.277 14.724-0.305 15-0.029" fill="#ebebeb" fill-rule="evenodd"/><path d="m25.671 5.744c-0.111 0.135-0.164 0.341-0.117 0.459 0.056 0.138 0.091 0.113 0.1-0.07 7e-3 -0.156 0.144-0.36 0.304-0.453 0.161-0.093 0.207-0.172 0.104-0.175s-0.279 0.105-0.391 0.239m134.211-0.128c0.221 0.058 0.269 0.172 0.185 0.439-0.235 0.753-0.23 0.844 0.018 0.311 0.282-0.606 0.212-0.876-0.22-0.847-0.247 0.017-0.245 0.029 0.017 0.097m5.979 1.383c-0.122 0.275-0.184 0.595-0.138 0.709 0.046 0.115 0.09 0.055 0.097-0.133s0.097-0.425 0.199-0.527 0.158-0.268 0.124-0.368c-0.033-0.1-0.16 0.043-0.282 0.319m-68.505 0.496c-0.104 0.278-0.274 0.732-0.378 1.01s-0.156 0.539-0.115 0.58 0.235-0.39 0.431-0.958c0.361-1.042 0.412-1.567 0.062-0.632m62.182 0.047c-0.284 0.784-0.245 0.997 0.056 0.304 0.136-0.314 0.225-0.638 0.198-0.72s-0.142 0.105-0.254 0.416m-134.642 0.226c-0.062 0.173-0.213 0.568-0.337 0.877s-0.222 0.647-0.219 0.75c4e-3 0.104 0.192-0.255 0.417-0.798 0.225-0.542 0.374-1.022 0.33-1.065-0.043-0.044-0.129 0.062-0.191 0.236m63.568 0.399c-0.057 0.229-0.151 0.604-0.21 0.833-0.066 0.259-5e-3 0.199 0.159-0.158 0.146-0.316 0.24-0.691 0.21-0.833-0.035-0.163-0.095-0.104-0.159 0.158m141.334 0.087c-0.051 0.181-0.144 0.479-0.206 0.663-0.062 0.183 9e-3 0.122 0.158-0.135 0.149-0.258 0.242-0.556 0.206-0.663-0.035-0.106-0.106-0.046-0.158 0.135m-64.771 1.003c-0.106 0.234-0.191 0.516-0.187 0.626 3e-3 0.11 0.117-0.055 0.252-0.367 0.285-0.656 0.225-0.895-0.065-0.259m64.175 0.649c-0.279 0.612-0.253 0.741 0.06 0.293 0.145-0.206 0.236-0.456 0.202-0.556-0.033-0.099-0.151 0.019-0.262 0.263m-205.344 0.689c-0.197 0.514-0.353 1.022-0.346 1.128 6e-3 0.107 0.196-0.285 0.422-0.87s0.382-1.093 0.346-1.128c-0.035-0.036-0.225 0.356-0.422 0.87m72.338 0.059c-0.277 0.794-0.232 1.042 0.065 0.359 0.136-0.314 0.221-0.65 0.189-0.746s-0.146 0.078-0.254 0.387m62.175 0.054c-0.284 0.785-0.244 0.998 0.056 0.305 0.137-0.314 0.226-0.638 0.198-0.721-0.027-0.082-0.142 0.105-0.254 0.416m6.296-0.511c0 0.047-0.227 0.712-0.503 1.477-0.277 0.766-0.48 1.461-0.452 1.545s0.292-0.543 0.588-1.393c0.295-0.849 0.499-1.583 0.452-1.63s-0.085-0.046-0.085 1e-3m-77.304 1.166c-0.202 0.562-0.331 1.058-0.286 1.103s0.115-0.023 0.155-0.15c0.04-0.128 0.203-0.591 0.361-1.028 0.159-0.438 0.254-0.829 0.213-0.871-0.042-0.042-0.241 0.384-0.443 0.946m33.413-0.738c-0.043 0.069 2.84 0.104 6.406 0.078l6.485-0.048 0.011 0.464c0.012 0.477 0.28 0.122 0.31-0.411 0.013-0.234-13.068-0.317-13.212-0.083m68.133 0.39c-0.147 0.284-0.234 0.549-0.194 0.589 0.041 0.04 0.168-0.154 0.283-0.431l0.209-0.505 39.71-0.086-39.742-0.082-0.266 0.515m-140.518-0.054c-0.106 0.067 3.094 0.101 7.112 0.076l7.306-0.047 0.066 0.38c0.061 0.347 0.078 0.353 0.203 0.072 0.092-0.206 0.06-0.358-0.095-0.456-0.279-0.177-14.316-0.201-14.592-0.025m71.98 0.581c-0.284 0.784-0.244 0.997 0.056 0.304 0.137-0.314 0.226-0.638 0.198-0.72-0.027-0.082-0.142 0.105-0.254 0.416m-73.034 1.919c-0.398 1.167-0.761 2.235-0.807 2.372-0.046 0.138-0.035 0.208 0.024 0.156 0.156-0.137 1.656-4.501 1.575-4.582-0.038-0.038-0.394 0.886-0.792 2.054m48.173-0.785c-0.204 0.56-0.338 1.051-0.298 1.092 0.041 0.04 0.241-0.385 0.445-0.944 0.204-0.56 0.338-1.051 0.297-1.092-0.04-0.04-0.24 0.385-0.444 0.944m-72.177-0.642c0 0.049-0.232 0.742-0.515 1.54-0.284 0.798-0.481 1.485-0.439 1.527 0.041 0.042 0.315-0.61 0.608-1.448 0.292-0.838 0.49-1.565 0.439-1.616s-0.093-0.052-0.093-3e-3m39.194 0.39c-0.106 0.234-0.191 0.515-0.187 0.626 3e-3 0.11 0.117-0.055 0.252-0.367 0.285-0.656 0.225-0.895-0.065-0.259m56.986 1.589c-0.292 0.838-0.5 1.555-0.462 1.594 0.039 0.038 0.31-0.616 0.602-1.454 0.293-0.838 0.501-1.555 0.462-1.593-0.038-0.039-0.309 0.615-0.602 1.453m13.516-1.025c-0.276 0.793-0.231 1.041 0.065 0.358 0.136-0.314 0.221-0.65 0.189-0.746s-0.146 0.079-0.254 0.388m-46.325 0.22c-0.283 0.785-0.244 0.998 0.057 0.305 0.136-0.314 0.225-0.638 0.198-0.721-0.028-0.082-0.142 0.105-0.255 0.416m101.313 0.225c-0.118 0.326-0.177 0.629-0.132 0.674s0.172-0.191 0.282-0.524c0.26-0.789 0.128-0.921-0.15-0.15m-30.719 0.155c-0.051 0.181-0.144 0.479-0.206 0.662s9e-3 0.123 0.158-0.135 0.242-0.556 0.206-0.662c-0.035-0.107-0.106-0.046-0.158 0.135m5.89 0.891c-0.208 0.569-0.341 1.126-0.296 1.236 0.048 0.118 0.087 0.085 0.095-0.076 7e-3 -0.153 0.165-0.633 0.352-1.068 0.186-0.434 0.313-0.865 0.282-0.958s-0.226 0.297-0.433 0.866m-68.271-0.146c-0.063 0.197-0.077 0.396-0.031 0.442s0.135-0.078 0.197-0.275c0.063-0.197 0.077-0.396 0.031-0.442s-0.135 0.078-0.197 0.275m92.263 1.514c-0.293 0.838-0.501 1.555-0.462 1.593 0.038 0.039 0.309-0.615 0.602-1.453s0.501-1.555 0.462-1.594c-0.038-0.038-0.309 0.616-0.602 1.454m-54.984-0.526c-0.277 0.793-0.232 1.041 0.065 0.358 0.136-0.314 0.221-0.649 0.189-0.745s-0.146 0.078-0.254 0.387m-70.825 0.221c-0.284 0.784-0.244 0.997 0.056 0.304 0.137-0.314 0.226-0.638 0.198-0.72-0.027-0.082-0.142 0.105-0.254 0.416m24.26 0.546c-0.051 0.181-0.144 0.479-0.206 0.662s9e-3 0.123 0.158-0.135 0.242-0.556 0.207-0.662c-0.036-0.107-0.107-0.046-0.159 0.135m8.573 0.287c-0.283 0.785-0.244 0.997 0.057 0.304 0.136-0.314 0.225-0.638 0.198-0.72-0.028-0.082-0.142 0.105-0.255 0.416m24.306 0.468c-0.204 0.56-0.338 1.051-0.298 1.091 0.041 0.041 0.241-0.384 0.445-0.944s0.338-1.051 0.297-1.091c-0.04-0.041-0.24 0.384-0.444 0.944m-96.816-0.086c-0.107 0.234-0.191 0.516-0.187 0.626 3e-3 0.11 0.117-0.055 0.252-0.367 0.285-0.656 0.225-0.895-0.065-0.259m109.909 0.346c-0.148 0.433-0.24 0.816-0.205 0.851 0.036 0.035 0.185-0.29 0.333-0.723 0.147-0.433 0.239-0.816 0.204-0.852-0.035-0.035-0.185 0.291-0.332 0.724m145.857 11.769c0.035 9.935 1e-3 12.553-0.166 12.671-0.158 0.112-0.148 0.132 0.039 0.081 0.273-0.075 0.48-24.878 0.21-25.148-0.07-0.069-0.107 5.509-0.083 12.396m39.453-12.365c-0.071 0.113 0.055 0.134 0.365 0.06 0.638-0.154 0.699-0.234 0.176-0.234-0.239 0-0.483 0.078-0.541 0.174m4.754-7e-3c0.642 0.206 0.985 0.206 0.666 0-0.137-0.089-0.437-0.155-0.666-0.148l-0.417 0.015 0.417 0.133m19.746 7e-3c-0.071 0.113 0.055 0.134 0.365 0.06 0.638-0.154 0.699-0.234 0.176-0.234-0.239 0-0.483 0.078-0.541 0.174m4.837-7e-3c0.498 0.214 0.915 0.214 0.583 0-0.137-0.089-0.4-0.157-0.583-0.152l-0.333 9e-3 0.333 0.143m19.663 7e-3c-0.071 0.113 0.055 0.134 0.365 0.06 0.638-0.154 0.699-0.234 0.176-0.234-0.239 0-0.483 0.078-0.541 0.174m4.601-0.114c0.038 0.033 0.294 0.11 0.569 0.172 0.365 0.082 0.433 0.066 0.25-0.057-0.225-0.153-0.986-0.259-0.819-0.115m-214.497 0.874c-0.118 0.325-0.177 0.628-0.132 0.673s0.172-0.19 0.282-0.523c0.26-0.79 0.128-0.921-0.15-0.15m139.191-0.49c-0.114 0.046-0.208 0.162-0.208 0.257 0 0.116 0.073 0.113 0.219-9e-3 0.127-0.105 1.164-0.203 2.459-0.234l2.239-0.052-2.25-0.023c-1.238-0.013-2.344 0.015-2.459 0.061m19.959 0.14c-0.763 0.293-0.468 0.295 0.583 4e-3 0.482-0.134 0.658-0.231 0.417-0.23-0.229 0-0.68 0.102-1 0.226m24.5 0c-0.763 0.293-0.468 0.295 0.583 4e-3 0.482-0.134 0.658-0.231 0.417-0.23-0.229 0-0.68 0.102-1 0.226m24.5 0c-0.763 0.293-0.468 0.295 0.583 4e-3 0.482-0.134 0.658-0.231 0.417-0.23-0.229 0-0.679 0.102-1 0.226m8.166-0.057c1.077 0.293 1.456 0.325 0.834 0.071-0.321-0.132-0.771-0.237-1-0.235-0.334 4e-3 -0.3 0.037 0.166 0.164m-118.833 6e-3c0 0.053 0.112 0.311 0.249 0.573 0.137 0.263 0.247 0.365 0.245 0.228-3e-3 -0.138-0.115-0.396-0.249-0.574-0.135-0.178-0.245-0.28-0.245-0.227m70.333 0.134c0.138 0.089 0.363 0.162 0.5 0.162 0.223 0 0.223-0.018 0-0.162-0.137-0.089-0.362-0.162-0.5-0.162-0.222 0-0.222 0.018 0 0.162m24.5 0c0.138 0.089 0.4 0.157 0.584 0.152l0.333-9e-3 -0.333-0.143c-0.499-0.214-0.915-0.214-0.584 0m-302.477 0.584c-0.121 0.334-0.186 0.642-0.144 0.684 0.113 0.113 0.498-0.887 0.426-1.105-0.034-0.102-0.161 0.087-0.282 0.421m197.556 11.333c0 6.508 0.021 9.195 0.046 5.97 0.026-3.224 0.026-8.549 0-11.833-0.025-3.284-0.046-0.646-0.046 5.863m-183.069-10.574c-0.204 0.56-0.338 1.051-0.297 1.091 0.04 0.041 0.24-0.384 0.444-0.944s0.338-1.051 0.298-1.091c-0.041-0.041-0.241 0.384-0.445 0.944m234.445-0.909c-0.067 0.067-0.121 0.237-0.121 0.377 0 0.188 0.049 0.206 0.185 0.07 0.102-0.102 0.157-0.271 0.122-0.377-0.036-0.105-0.119-0.137-0.186-0.07m18.087 0.535c-0.39 0.244-0.708 0.505-0.708 0.579 0 0.102 1.166-0.597 1.652-0.992 0.289-0.234-0.372 0.055-0.944 0.413m12.625-0.412c0 0.043 0.324 0.268 0.72 0.5 0.973 0.57 2.036 1.653 2.805 2.86 0.351 0.55 0.639 0.94 0.64 0.867 4e-3 -0.317-1.276-2.097-2.002-2.784-0.71-0.673-2.163-1.642-2.163-1.443m11.917 0.398c-0.927 0.605-2.106 1.75-2.482 2.409-0.367 0.642-0.214 0.505 0.559-0.501 0.305-0.397 1.08-1.091 1.723-1.542 1.216-0.854 1.365-1.127 0.2-0.366m13.169-0.015c0.365 0.242 0.875 0.636 1.133 0.875s0.425 0.322 0.371 0.185c-0.099-0.256-1.785-1.5-2.031-1.5-0.075 0 0.162 0.198 0.527 0.44m11.414 0.012c-0.636 0.38-1.766 1.292-1.234 0.995 0.238-0.132 1.964-1.292 2.053-1.379 0.176-0.172-0.131-0.028-0.819 0.384m-200.035-0.031c-0.052 0.181-0.145 0.479-0.207 0.662-0.062 0.184 9e-3 0.123 0.159-0.135 0.149-0.257 0.242-0.555 0.206-0.662-0.035-0.107-0.107-0.046-0.158 0.135m213.675 0.412c0.38 0.275 0.742 0.5 0.805 0.5 0.169 0-1.169-0.99-1.345-0.995-0.083-3e-3 0.161 0.22 0.54 0.495m-282.271 0.239c-0.292 0.64-0.247 0.935 0.053 0.358 0.14-0.267 0.23-0.557 0.201-0.643-0.029-0.087-0.143 0.041-0.254 0.285m37.669 0.136c-0.284 0.785-0.245 0.998 0.056 0.305 0.136-0.314 0.225-0.638 0.198-0.721-0.027-0.082-0.142 0.105-0.254 0.416m55.093 0.046c-0.051 0.181-0.144 0.479-0.206 0.663-0.062 0.183 9e-3 0.122 0.158-0.135 0.149-0.258 0.242-0.556 0.207-0.663-0.036-0.106-0.107-0.046-0.159 0.135m68.213-0.061c-0.015 0.149 1.468 3.677 1.596 3.795 0.165 0.155-0.118-0.661-0.633-1.821-0.714-1.61-0.951-2.096-0.963-1.974m12.016 0.397c-0.279 0.613-0.226 0.744 0.076 0.187 0.141-0.26 0.226-0.504 0.187-0.542-0.038-0.039-0.156 0.122-0.263 0.355m44.882 0.275-0.659 0.699 0.611-0.49c0.509-0.409 0.922-0.907 0.751-0.907-0.024 0-0.34 0.314-0.703 0.698m-226.892 0.235c-0.118 0.325-0.177 0.629-0.132 0.674s0.172-0.191 0.282-0.524c0.26-0.789 0.129-0.921-0.15-0.15m33.188-0.058c-0.284 0.784-0.245 0.997 0.056 0.304 0.136-0.314 0.225-0.638 0.198-0.72s-0.142 0.105-0.254 0.416m37.645 0.058c-0.117 0.325-0.177 0.629-0.132 0.674 0.046 0.045 0.172-0.191 0.282-0.524 0.261-0.789 0.129-0.921-0.15-0.15m221.512-0.428c0.488 0.285 1.498 1.809 2.075 3.13 0.308 0.705 0.56 1.117 0.561 0.916s-0.064-0.406-0.146-0.457c-0.081-0.05-0.198-0.289-0.258-0.531-0.227-0.904-1.915-3.237-2.333-3.225-0.098 3e-3 -0.052 0.078 0.101 0.167m-24.355 0.097c4e-3 0.081 0.315 0.485 0.691 0.898 0.376 0.412 0.601 0.6 0.499 0.416-0.248-0.45-1.198-1.499-1.19-1.314m-331.673 0.481c0 0.229 0.064 0.417 0.143 0.417s0.108-0.188 0.064-0.417-0.108-0.417-0.143-0.417c-0.036 0-0.064 0.188-0.064 0.417m24.513-0.217c-7e-3 0.156-0.145 0.36-0.305 0.454-0.16 0.093-0.207 0.172-0.104 0.175 0.275 7e-3 0.608-0.45 0.508-0.698-0.055-0.138-0.091-0.113-0.099 0.069m247.936 0.389c-0.257 0.226-0.402 0.411-0.321 0.411s0.323-0.187 0.538-0.416c0.498-0.531 0.388-0.528-0.217 5e-3m-233.587 0.738c-0.489 1.446-0.445 1.691 0.06 0.34 0.223-0.596 0.382-1.157 0.353-1.248-0.028-0.09-0.214 0.318-0.413 0.908m101.498-0.236c-0.106 0.234-0.191 0.515-0.187 0.626 3e-3 0.11 0.117-0.055 0.252-0.367 0.285-0.656 0.225-0.895-0.065-0.259m198.089 0.346c-0.256 0.423-0.436 0.799-0.4 0.835s0.299-0.311 0.584-0.77c0.286-0.459 0.466-0.835 0.4-0.835-0.065 0-0.328 0.346-0.584 0.77m-49.042 0.048c-0.5 0.756-1.412 2.923-1.398 3.324 5e-3 0.151 0.22-0.308 0.477-1.019 0.257-0.712 0.699-1.668 0.983-2.125 0.61-0.981 0.561-1.122-0.062-0.18m-226.561 1.195c-0.292 0.838-0.49 1.566-0.439 1.617s0.093 0.052 0.093 3e-3 0.232-0.742 0.515-1.54c0.284-0.798 0.481-1.485 0.439-1.527-0.041-0.042-0.315 0.609-0.608 1.447m46.681-0.923c-0.107 0.234-0.191 0.516-0.187 0.626 3e-3 0.11 0.117-0.054 0.252-0.366 0.285-0.656 0.225-0.896-0.065-0.26m55.068 5e-3c-0.061 0.244-0.079 0.476-0.04 0.516 0.039 0.039 0.121-0.129 0.183-0.373 0.061-0.244 0.079-0.476 0.04-0.515-0.039-0.04-0.122 0.128-0.183 0.372m80.265-5e-3c-0.279 0.613-0.226 0.744 0.076 0.187 0.141-0.26 0.225-0.504 0.187-0.542-0.038-0.039-0.156 0.122-0.263 0.355m25.64-0.173c-0.229 0.131-0.342 0.238-0.25 0.238 0.091 0 0.354-0.107 0.583-0.238s0.342-0.239 0.25-0.239-0.354 0.108-0.583 0.239m27.788-0.13c0.295 0.037 0.82 0.037 1.166 1e-3s0.104-0.066-0.538-0.067c-0.641 0-0.924 0.029-0.628 0.066m24.5 0c0.295 0.037 0.82 0.037 1.166 1e-3s0.104-0.066-0.538-0.067c-0.641 0-0.924 0.029-0.628 0.066m24.587 1e-3c0.343 0.036 0.906 0.036 1.25 0 0.343-0.036 0.062-0.065-0.625-0.065-0.688 0-0.969 0.029-0.625 0.065m-50.792 0.477-0.5 0.429 0.583-0.376c0.749-0.483 0.751-0.485 0.57-0.484-0.084 1e-3 -0.378 0.194-0.653 0.431m24.33 0.107c-0.801 0.651-1.012 0.894-1.336 1.545-0.137 0.275-0.154 0.358-0.038 0.186 0.487-0.727 1.072-1.349 1.688-1.794 0.361-0.262 0.587-0.476 0.502-0.476-0.084 0-0.452 0.243-0.816 0.539m24.67-0.118-0.5 0.419 0.625-0.353c0.344-0.194 0.625-0.383 0.625-0.42 0-0.168-0.291-0.03-0.75 0.354m-76.75 0.079-0.417 0.134 0.417 5e-3c0.229 2e-3 0.567-0.06 0.75-0.139l0.333-0.143-0.333 5e-3c-0.183 3e-3 -0.521 0.065-0.75 0.138m-197.304 0.488c-0.277 0.793-0.232 1.041 0.065 0.358 0.136-0.314 0.221-0.649 0.189-0.745s-0.146 0.078-0.254 0.387m62.175 0.054c-0.284 0.785-0.244 0.997 0.056 0.304 0.137-0.314 0.226-0.638 0.198-0.72-0.027-0.082-0.142 0.105-0.254 0.416m167.796-0.487c0 0.161 0.681 0.82 0.763 0.738 0.038-0.038-0.119-0.245-0.347-0.46-0.229-0.215-0.416-0.34-0.416-0.278m24.505 0.07c3e-3 0.069 0.209 0.269 0.458 0.445l0.453 0.32-0.404-0.445c-0.424-0.467-0.516-0.525-0.507-0.32m24.501-0.096c-3e-3 0.062 0.201 0.324 0.454 0.584 0.253 0.259 0.586 0.658 0.741 0.887 0.155 0.23 0.285 0.331 0.29 0.225s-0.326-0.556-0.735-1-0.746-0.758-0.75-0.696m-85.083 0.405c-0.375 0.375-0.308 3.748 0.077 3.865 0.201 0.062 0.209 0.034 0.041-0.144-0.135-0.144-0.208-0.754-0.208-1.739 0-1.946 0.081-2.055 1.583-2.127l1.167-0.057-1.196-0.032c-0.909-0.025-1.261 0.031-1.464 0.234m30.217 0.191c-0.695 0.829-1.487 2.835-1.46 3.695 8e-3 0.236 0.121-0.02 0.252-0.57 0.315-1.325 0.533-1.859 1.106-2.708 0.488-0.724 0.541-0.94 0.102-0.417m-91.691 0.2c0.05 0.19-4e-3 0.571-0.119 0.849-0.115 0.277-0.169 0.543-0.122 0.591 0.048 0.048 0.202-0.251 0.343-0.663 0.213-0.625 0.218-0.78 0.032-0.935-0.178-0.148-0.205-0.115-0.134 0.158m133.556 0.579c-0.204 0.503-0.332 1.012-0.285 1.131 0.055 0.137 0.091 0.108 0.1-0.078 7e-3 -0.162 0.173-0.633 0.368-1.048s0.317-0.792 0.271-0.838c-0.045-0.045-0.25 0.329-0.454 0.833m6.846-0.317c-0.414 0.609-1.027 2.27-1.006 2.731 6e-3 0.146 0.121-0.109 0.256-0.568 0.308-1.048 0.53-1.525 1.024-2.208 0.215-0.298 0.332-0.541 0.258-0.541-0.073 1e-3 -0.313 0.265-0.532 0.586m-306.1-0.045c-0.114 0.275-1.205 0.292-19.596 0.292h-19.476l-0.34 0.364c-0.186 0.201-0.339 0.482-0.339 0.625 1e-3 0.144 0.15 0.017 0.331-0.281l0.33-0.542 19.461-2e-3c18.878-3e-3 20.015-0.032 19.834-0.52-0.064-0.173-0.113-0.157-0.205 0.064m264.432 0.62c0.197 0.377 0.392 0.652 0.433 0.611 0.098-0.099-0.398-1.055-0.619-1.191-0.094-0.058-0.01 0.203 0.186 0.58m-67.312-0.162c0.372 1.019 1.014 2.504 1.061 2.457 0.08-0.08-0.841-2.424-1.013-2.58-0.077-0.07-0.098-0.014-0.048 0.123m91.795-0.081c0 0.047 0.075 0.216 0.167 0.375s0.244 0.506 0.338 0.771 0.211 0.442 0.259 0.393c0.049-0.048-0.074-0.433-0.273-0.856-0.325-0.692-0.491-0.923-0.491-0.683m-188.157 1.424c-0.204 0.56-0.338 1.051-0.297 1.092 0.04 0.04 0.24-0.385 0.445-0.944 0.204-0.56 0.338-1.051 0.297-1.092-0.04-0.04-0.24 0.385-0.445 0.944m213.081-0.509c0.062 0.229 0.247 1.016 0.411 1.75 0.164 0.733 0.306 1.119 0.315 0.857 0.019-0.545-0.433-2.401-0.676-2.774-0.119-0.182-0.132-0.136-0.05 0.167m-108.828 1.346c-0.336 0.84-0.578 1.56-0.538 1.6s0.343-0.619 0.673-1.466c0.33-0.846 0.573-1.566 0.539-1.6s-0.337 0.626-0.674 1.466m90.904-1.468c0 0.056 0.128 0.612 0.284 1.236 0.505 2.02 0.374 7.943-0.218 9.842-0.084 0.271-0.077 0.272 0.091 0.011 0.669-1.034 0.851-7.425 0.285-9.935-0.2-0.885-0.442-1.517-0.442-1.154m-263.647 1.141c-0.456 1.35-0.345 1.461 0.138 0.138 0.204-0.56 0.335-1.054 0.292-1.097-0.044-0.043-0.237 0.388-0.43 0.959m288.249-0.603c0.137 0.613 0.233 0.746 0.229 0.32-1e-3 -0.176-0.079-0.432-0.172-0.57-0.123-0.182-0.139-0.115-0.057 0.25m-296.906 0.78c-0.202 0.562-0.339 1.049-0.305 1.083s0.229-0.396 0.433-0.956 0.341-1.047 0.305-1.083-0.23 0.394-0.433 0.956m141.324-0.01c-0.456 1.35-0.345 1.46 0.137 0.137 0.204-0.56 0.336-1.053 0.292-1.096-0.043-0.044-0.236 0.388-0.429 0.959m100.086-0.603c0.059 0.275 0.164 0.762 0.232 1.083 0.121 0.567 0.124 0.57 0.13 0.084 4e-3 -0.275-0.1-0.763-0.232-1.084-0.217-0.531-0.229-0.538-0.13-0.083m-305.419 1.27c-0.284 0.847-0.49 1.566-0.457 1.598 0.032 0.032 0.298-0.627 0.59-1.465 0.293-0.838 0.499-1.557 0.458-1.598s-0.307 0.618-0.591 1.465m312.088-0.687c0.131 0.719 0.226 0.855 0.223 0.32-2e-3 -0.222-0.077-0.516-0.167-0.653-0.115-0.176-0.132-0.077-0.056 0.333m27.003-0.389c-0.061 0.062-0.105 0.305-0.097 0.542 0.014 0.423 0.017 0.422 0.161-0.061 0.152-0.507 0.13-0.674-0.064-0.481m-204.313 0.31c-0.051 0.181-0.144 0.479-0.206 0.663-0.062 0.183 9e-3 0.122 0.158-0.135 0.149-0.258 0.242-0.556 0.206-0.663-0.035-0.106-0.106-0.046-0.158 0.135m155.064 0.808c-0.275 1.49-0.239 6.108 0.056 7.355 0.131 0.55 0.197 0.7 0.148 0.333-0.224-1.654-0.259-6.373-0.056-7.459 0.116-0.619 0.174-1.163 0.129-1.208s-0.17 0.396-0.277 0.979m-38.117-0.385c-0.148 0.286-0.229 0.562-0.179 0.612s0.187-0.126 0.304-0.391c0.178-0.402 0.227 0.895 0.297 7.838 0.065 6.556 0.128 8.329 0.295 8.363 0.117 0.023 0.136 5e-3 0.042-0.042-0.113-0.056-0.171-2.886-0.171-8.394 0-8.396-0.047-9.033-0.588-7.986m69.193 0.011c-0.139 0.694-5e-3 0.829 0.145 0.145 0.064-0.288 0.081-0.558 0.038-0.601-0.042-0.042-0.125 0.163-0.183 0.456m9.248-0.021c-8e-3 0.229 0.058 0.529 0.147 0.666 0.206 0.319 0.206-0.024 0-0.666l-0.133-0.417-0.014 0.417m-98.686 8.083c0 6.175-0.049 8.25-0.194 8.25-0.107 0-0.147 0.048-0.088 0.107 0.59 0.59 0.649-0.184 0.613-7.933-0.043-8.96-0.055-8.617 0.274-7.863 0.135 0.309 0.282 0.524 0.327 0.479 0.146-0.146-0.486-1.29-0.713-1.29-0.178 0-0.219 1.544-0.219 8.25m129.695-7.917c8e-3 0.433 0.271 1.145 0.277 0.75 2e-3 -0.183-0.06-0.483-0.139-0.666-0.087-0.205-0.141-0.237-0.138-0.084m-46.923 0.515c-0.058 0.29-0.094 1.099-0.079 1.798 0.025 1.241 0.029 1.229 0.142-0.479 0.123-1.855 0.108-2.174-0.063-1.319m-173.743 0.14c-0.276 0.793-0.231 1.041 0.065 0.358 0.136-0.314 0.221-0.65 0.189-0.746s-0.146 0.079-0.254 0.388m204.746 0.637c-0.461 4.889 0.358 9.033 2.034 10.289 0.317 0.237 0.246 0.096-0.254-0.5-1.317-1.573-1.849-4.403-1.637-8.706 0.116-2.345 0.035-2.96-0.143-1.083m-273.237-0.083c-0.284 0.784-0.245 0.997 0.056 0.304 0.136-0.314 0.225-0.638 0.198-0.72s-0.142 0.105-0.254 0.416m178.984 0.314c-0.197 0.474-0.322 0.899-0.278 0.943s0.159-0.136 0.255-0.401 0.261-0.65 0.366-0.856 0.152-0.414 0.104-0.462c-0.049-0.048-0.249 0.301-0.447 0.776m54.888 2.394c-3e-3 2.004 0.04 2.935 0.108 2.333 0.144-1.281 0.147-3.574 6e-3 -4.75-0.063-0.526-0.112 0.504-0.114 2.417m14.816-1.833c-1e-3 0.825 0.028 1.183 0.062 0.796 0.035-0.386 0.036-1.061 1e-3 -1.5-0.034-0.438-0.063-0.121-0.063 0.704m-8.309 1.857c0 1.719 0.047 2.904 0.105 2.634 0.139-0.649 0.142-4.885 3e-3 -5.375-0.06-0.211-0.108 1.022-0.108 2.741m26.355-2.592c-0.058 0.289-0.095 0.911-0.083 1.381 0.019 0.735 0.041 0.669 0.162-0.471 0.144-1.372 0.105-1.828-0.079-0.91m-99.767-0.326c-3e-3 0.058 0.107 0.321 0.244 0.583 0.137 0.263 0.249 0.361 0.25 0.218 1e-3 -0.245-0.482-1.029-0.494-0.801m57.23 2.811c0 1.604 0.025 2.26 0.056 1.458 0.03-0.802 0.03-2.115 0-2.917-0.031-0.802-0.056-0.145-0.056 1.459m-63.721-2.573c-8e-3 0.097 0.17 0.547 0.394 1 0.224 0.452 0.407 0.748 0.406 0.656-2e-3 -0.246-0.784-1.864-0.8-1.656m98.054 2.573c0 1.512 0.025 2.131 0.056 1.375 0.031-0.757 0.031-1.994 0-2.75-0.031-0.757-0.056-0.138-0.056 1.375m-215.271-2.375-18.786 0.043-0.186 0.347c-0.102 0.19-0.149 0.383-0.104 0.428s0.131-0.074 0.192-0.264l0.109-0.346h18.729c12.307 0 18.765-0.057 18.832-0.167 0.057-0.091 0.08-0.148 0.052-0.125-0.028 0.022-8.505 0.06-18.838 0.084m-91.371 0.466c-0.154 0.236-0.253 0.512-0.219 0.614s0.161-0.053 0.281-0.343l0.219-0.529h7.218c6.73 0 7.223 0.02 7.303 0.292 0.067 0.226 0.079 0.217 0.052-0.042-0.034-0.327-0.173-0.334-7.304-0.377l-7.269-0.043-0.281 0.428m140.784-0.216c-0.195 0.249-0.899 2.324-0.816 2.407 0.032 0.032 0.184-0.299 0.339-0.737 0.154-0.437 0.374-0.983 0.489-1.212l0.207-0.417 39.654-0.168-19.854-0.041c-15.724-0.032-19.889 3e-3 -20.019 0.168m-101.579 0.212c-0.051 0.181-0.144 0.479-0.206 0.663-0.062 0.183 9e-3 0.122 0.158-0.135 0.149-0.258 0.242-0.556 0.207-0.663-0.036-0.106-0.107-0.046-0.159 0.135m76.726 0.717c-0.492 1.35-0.429 1.525 0.077 0.215 0.226-0.584 0.382-1.093 0.346-1.129s-0.226 0.376-0.423 0.914m-140.653-0.096c-0.283 0.785-0.244 0.997 0.057 0.304 0.136-0.314 0.225-0.638 0.198-0.72-0.028-0.082-0.142 0.105-0.255 0.416m355.859 1.292c0 1.054 0.027 1.485 0.06 0.958s0.033-1.39 0-1.917-0.06-0.095-0.06 0.959m6.5 0c0 1.054 0.027 1.485 0.06 0.958s0.033-1.39 0-1.917-0.06-0.095-0.06 0.959m-265.867-0.304c-0.202 0.562-0.34 1.049-0.305 1.083 0.034 0.034 0.228-0.396 0.433-0.956 0.204-0.56 0.341-1.047 0.305-1.083s-0.231 0.394-0.433 0.956m154.493-7e-3c-0.466 1.121-0.361 1.227 0.133 0.133 0.209-0.463 0.346-0.877 0.303-0.919-0.042-0.043-0.239 0.311-0.436 0.786m-226.839-0.089c-0.118 0.325-0.177 0.628-0.132 0.673s0.172-0.19 0.282-0.523c0.26-0.79 0.129-0.921-0.15-0.15m14.672 0.228c-0.104 0.278-0.274 0.732-0.378 1.01s-0.155 0.539-0.114 0.58 0.235-0.39 0.431-0.958c0.36-1.042 0.411-1.567 0.061-0.632m205.853-0.04c-0.297 0.633-0.257 0.892 0.047 0.309 0.14-0.268 0.233-0.546 0.208-0.62-0.026-0.073-0.14 0.067-0.255 0.311m-3.697-0.038c0 0.091 0.108 0.354 0.239 0.583s0.238 0.342 0.238 0.25-0.107-0.354-0.238-0.583-0.239-0.342-0.239-0.25m-177.97 0.872c-0.296 0.632-0.257 0.891 0.048 0.308 0.139-0.267 0.232-0.546 0.207-0.619-0.026-0.074-0.14 0.066-0.255 0.311m8.661 0.05c-0.111 0.178-0.202 0.418-0.201 0.534 0 0.116 0.114-7e-3 0.253-0.273 0.288-0.554 0.25-0.746-0.052-0.261m243.327 0.994c2e-3 0.78 0.059 1.605 0.127 1.834 0.067 0.229 0.091-0.334 0.053-1.25-0.087-2.116-0.184-2.429-0.18-0.584m6.53 0.084c-1e-3 0.825 0.028 1.183 0.062 0.796 0.035-0.386 0.036-1.061 1e-3 -1.5-0.034-0.438-0.063-0.121-0.063 0.704m17.957-0.486c9e-3 0.542 0.077 1.173 0.151 1.402 0.077 0.241 0.096-0.147 0.043-0.916-0.108-1.593-0.217-1.866-0.194-0.486m-175.052-0.51c-0.051 0.181-0.144 0.479-0.206 0.662-0.062 0.184 9e-3 0.123 0.158-0.135 0.149-0.257 0.242-0.555 0.207-0.662-0.036-0.107-0.107-0.046-0.159 0.135m-165.271 0.336c-0.106 0.234-0.19 0.516-0.187 0.626 4e-3 0.11 0.117-0.055 0.253-0.367 0.285-0.656 0.224-0.895-0.066-0.259m235.646-0.257c3e-3 0.137 0.115 0.396 0.249 0.574 0.315 0.416 0.313 0.261-4e-3 -0.347-0.137-0.262-0.247-0.364-0.245-0.227m6.699 0.167c0.39 1.069 1.015 2.502 1.067 2.45 0.074-0.074-0.891-2.465-1.052-2.607-0.059-0.051-0.065 0.019-0.015 0.157m-145.574 0.254c-0.051 0.181-0.144 0.479-0.206 0.662-0.062 0.184 9e-3 0.123 0.158-0.135 0.149-0.257 0.242-0.555 0.207-0.662-0.036-0.107-0.107-0.046-0.159 0.135m-72.593 0.621c-0.284 0.784-0.245 0.997 0.056 0.304 0.136-0.314 0.225-0.638 0.198-0.72s-0.142 0.105-0.254 0.416m226.67 0.08c-0.296 0.633-0.257 0.892 0.048 0.308 0.139-0.267 0.232-0.546 0.207-0.619-0.026-0.073-0.14 0.067-0.255 0.311m-211.951-0.104c-0.599 1.654-1.425 4.203-1.377 4.251 0.034 0.034 0.407-0.931 0.828-2.144 0.422-1.213 0.737-2.236 0.7-2.272-0.037-0.037-0.105 0.037-0.151 0.165m101.27 0.572c-0.106 0.234-0.191 0.516-0.187 0.626 3e-3 0.11 0.117-0.054 0.252-0.366 0.285-0.656 0.225-0.896-0.065-0.26m-68.605 0.778c-0.454 1.134-0.785 2.158-0.718 2.225 0.034 0.034 0.299-0.589 0.588-1.385 0.542-1.493 0.637-2.106 0.13-0.84m164.924-0.535c-1e-3 0.241 0.469 1.195 0.481 0.978 4e-3 -0.058-0.103-0.358-0.237-0.667-0.134-0.308-0.244-0.448-0.244-0.311m119.911 0.803c-0.068 0.487-0.085 0.925-0.037 0.973 0.119 0.119 0.335-1.365 0.238-1.64-0.041-0.121-0.132 0.18-0.201 0.667m6.597-0.469c-0.014 0.137-0.067 0.437-0.118 0.666-0.08 0.36-0.067 0.377 0.097 0.121 0.104-0.164 0.157-0.464 0.117-0.667-0.039-0.204-0.083-0.258-0.096-0.12m-31.113 0.74c-0.063 0.335-0.077 0.646-0.031 0.692s0.135-0.19 0.197-0.525c0.063-0.334 0.077-0.646 0.031-0.691-0.046-0.046-0.135 0.19-0.197 0.524m-269.203 0.135c-0.284 0.784-0.245 0.997 0.056 0.304 0.136-0.314 0.225-0.638 0.198-0.72s-0.142 0.105-0.254 0.416m235.314-0.125c-7e-3 0.275 0.059 0.612 0.148 0.75 0.204 0.315 0.204-0.196 0-0.834-0.131-0.408-0.134-0.406-0.148 0.084m24.591 0.166c0.056 0.367 0.129 0.698 0.162 0.736 0.127 0.144 0.032-0.749-0.113-1.069-0.105-0.232-0.12-0.131-0.049 0.333m-78.818-0.29c-0.16 0.036-0.292 0.134-0.292 0.219 0 0.213 0.456 0.195 0.591-0.023 0.14-0.228 0.065-0.277-0.299-0.196m70.067 0.318c-0.014 0.199-0.074 0.499-0.133 0.667-0.083 0.235-0.061 0.262 0.096 0.117 0.112-0.103 0.172-0.403 0.133-0.666-0.05-0.338-0.079-0.372-0.096-0.118m-76.859-0.07c0 0.098 0.894 2.229 1.538 3.666 0.749 1.673 0.421 0.575-0.429-1.434-0.805-1.903-1.109-2.515-1.109-2.232m103.686 0.292c-8e-3 0.23 0.059 0.529 0.148 0.667 0.205 0.318 0.205-0.024 0-0.667l-0.134-0.416-0.014 0.416m-24.492 0.25c-7e-3 0.275 0.098 0.725 0.232 1 0.207 0.423 0.229 0.436 0.145 0.084-0.055-0.229-0.16-0.68-0.233-1-0.131-0.576-0.133-0.578-0.144-0.084m-220.652 0.206c-0.297 0.632-0.257 0.891 0.047 0.308 0.14-0.267 0.233-0.546 0.208-0.619-0.026-0.074-0.14 0.066-0.255 0.311m43.817 0.063c-0.324 0.859-1.565 4.417-1.651 4.731-0.264 0.973 0.21-0.11 0.791-1.808 0.367-1.072 0.78-2.221 0.919-2.554 0.14-0.333 0.217-0.642 0.173-0.686-0.045-0.045-0.149 0.098-0.232 0.317m-116.321 0.356c-0.284 0.785-0.244 0.998 0.056 0.305 0.137-0.314 0.226-0.638 0.198-0.721-0.027-0.082-0.142 0.105-0.254 0.416m284.076-0.311c-0.062 0.163-0.109 0.422-0.103 0.575 7e-3 0.184 0.065 0.142 0.171-0.124 0.089-0.222 0.135-0.48 0.104-0.575-0.032-0.095-0.109-0.039-0.172 0.124m48.903 0.536c-0.118 0.326-0.177 0.629-0.132 0.674s0.172-0.191 0.282-0.524c0.26-0.789 0.129-0.921-0.15-0.15m-64.169-0.183c-5e-3 0.183 0.063 0.446 0.152 0.583 0.214 0.332 0.214-0.085 0-0.583l-0.143-0.333-9e-3 0.333m6.499 0c-1e-3 0.183 0.106 0.521 0.237 0.75 0.304 0.532 0.305 0.418 4e-3 -0.417-0.132-0.366-0.24-0.516-0.241-0.333m42.66 0.356c-4e-3 0.104 0.103 0.441 0.237 0.75 0.134 0.308 0.246 0.476 0.25 0.371 3e-3 -0.104-0.103-0.441-0.237-0.75-0.134-0.308-0.247-0.475-0.25-0.371m-279.674 2.347c-0.802 2.273-0.927 2.686-0.768 2.534 0.158-0.152 1.616-4.362 1.564-4.519-0.026-0.077-0.384 0.817-0.796 1.985m9.2-1.667c-0.665 1.724-1.377 3.925-1.296 4.006 0.053 0.053 0.097 0.056 0.097 6e-3s0.335-1.052 0.744-2.227c0.41-1.175 0.72-2.162 0.69-2.193-0.031-0.03-0.137 0.153-0.235 0.408m236.079 0.087c-0.252 0.604-0.909 1.348-1.612 1.827-0.229 0.155-0.34 0.286-0.246 0.291 0.525 0.027 2.49-2.303 2.193-2.6-0.052-0.051-0.202 0.166-0.335 0.482m-143.407 0.169c-0.284 0.784-0.245 0.997 0.056 0.304 0.136-0.314 0.225-0.638 0.198-0.72s-0.142 0.105-0.254 0.416m167.725 0.23c-0.262 0.415-0.768 0.947-1.123 1.182-0.356 0.236-0.613 0.462-0.571 0.504 0.15 0.15 1.298-0.864 1.792-1.582 0.278-0.403 0.476-0.761 0.442-0.795-0.035-0.035-0.277 0.277-0.54 0.691m6.627 0.146c-0.198 0.504-0.329 0.915-0.292 0.915 0.129 0 0.766-1.49 0.709-1.659-0.031-0.094-0.219 0.241-0.417 0.744m24.79-0.785c-7e-3 0.119-0.163 0.526-0.346 0.904-0.182 0.378-0.297 0.723-0.254 0.766 0.121 0.12 0.774-1.497 0.688-1.704-0.045-0.11-0.08-0.097-0.088 0.034m-364.504 1.043c-0.204 0.56-0.335 1.054-0.292 1.097 0.044 0.043 0.237-0.388 0.43-0.959s0.324-1.065 0.292-1.097-0.225 0.4-0.43 0.959m250.487 0.773c-0.897 2.119-0.921 2.185-0.71 1.968 0.214-0.22 1.609-3.578 1.522-3.664-0.036-0.037-0.402 0.726-0.812 1.696m43.85-1.671c-0.016 0.238 0.609 1.722 0.725 1.722 0.046 0-0.052-0.319-0.218-0.708-0.166-0.39-0.345-0.821-0.398-0.959-0.052-0.137-0.102-0.162-0.109-0.055m63.391 0.253c-0.072 0.12-0.238 0.388-0.369 0.594-0.132 0.206-0.199 0.375-0.149 0.375 0.152 0 0.823-1.013 0.732-1.104-0.046-0.047-0.143 0.014-0.214 0.135m-318.321 0.302c-0.062 0.197-0.076 0.396-0.03 0.442s0.134-0.078 0.197-0.275 0.076-0.396 0.03-0.442c-0.045-0.046-0.134 0.078-0.197 0.275m57.269 0.769c-0.207 0.603-0.341 1.131-0.299 1.174 0.043 0.042 0.24-0.423 0.438-1.035 0.468-1.449 0.35-1.566-0.139-0.139m204.47-0.825c0.224 0.463 1.105 1.344 1.568 1.568 0.215 0.104 0.162 0.02-0.134-0.209-0.478-0.37-0.781-0.683-1.342-1.386-0.262-0.328-0.263-0.328-0.092 0.027m24.658 0.181c0.087 0.161 0.402 0.517 0.701 0.792 0.499 0.46 0.491 0.436-0.104-0.292-0.683-0.835-0.859-0.982-0.597-0.5m-6.635 0.209c-1e-3 0.137 0.109 0.395 0.244 0.573 0.311 0.412 0.307 0.141-6e-3 -0.407-0.138-0.241-0.238-0.311-0.238-0.166m-4.765 1.279c-0.287 0.534-0.991 1.387-1.663 2.015-0.642 0.599-1.007 1.004-0.811 0.901 0.949-0.498 3.336-3.475 3.032-3.78-0.034-0.034-0.286 0.355-0.558 0.864m29.588-0.731c-7e-3 0.623 2.658 3.785 3.191 3.785 0.084 0-0.131-0.242-0.478-0.537-1.011-0.862-1.703-1.653-2.224-2.546-0.268-0.459-0.488-0.774-0.489-0.702m12.457 0.259c-0.252 0.152-0.458 0.337-0.458 0.412s0.225-0.024 0.5-0.219c0.74-0.528 0.714-0.65-0.042-0.193m-332.431 0.43c-0.346 0.957-0.565 0.929 7.221 0.929 7.712 0 7.756-4e-3 7.749-0.803-1e-3 -0.192-0.069-0.149-0.213 0.137l-0.211 0.416-7.151 0.044c-7.335 0.044-7.603 0.022-7.26-0.618 0.106-0.199 0.167-0.437 0.136-0.53s-0.153 0.098-0.271 0.425m314.745 0.353c-0.257 0.407-0.959 1.19-1.561 1.741-0.601 0.551-1.022 1.002-0.936 1.002 0.391 0 3.234-3.213 3.026-3.421-0.033-0.033-0.272 0.272-0.529 0.678m24.478 0.035c-0.274 0.435-0.874 1.159-1.333 1.607-0.699 0.684-0.733 0.742-0.207 0.354 0.823-0.607 2.447-2.755 2.081-2.753-0.023 0-0.266 0.357-0.541 0.792m-68.074-0.564c-0.014 0.209 1.048 1.617 1.587 2.105 0.253 0.23 0.092-0.041-0.36-0.6-0.451-0.559-0.909-1.159-1.019-1.333-0.109-0.174-0.202-0.252-0.208-0.172m-295.977 1.22c-0.201 0.551-0.362 1.108-0.357 1.236 4e-3 0.128 0.191-0.255 0.413-0.851 0.223-0.596 0.384-1.152 0.358-1.236-0.027-0.084-0.213 0.299-0.414 0.851m165.144 0.062c-0.204 0.56-0.338 1.051-0.298 1.091 0.041 0.041 0.241-0.384 0.445-0.944s0.338-1.051 0.297-1.091c-0.04-0.041-0.24 0.384-0.444 0.944m139.157-0.843c0.137 0.089 0.362 0.161 0.5 0.161 0.222 0 0.222-0.018 0-0.161-0.138-0.089-0.363-0.162-0.5-0.162-0.223 0-0.223 0.018 0 0.162m49 0c0.137 0.089 0.362 0.161 0.5 0.161 0.222 0 0.222-0.018 0-0.161-0.138-0.089-0.363-0.162-0.5-0.162-0.223 0-0.223 0.018 0 0.162m-32.028 0.708c0.269 0.39 0.662 0.858 0.874 1.042 0.212 0.183 0.022-0.136-0.422-0.709-0.926-1.195-1.171-1.375-0.452-0.333m-15.764-0.427c0.16 0.042 0.423 0.042 0.583 0 0.161-0.042 0.029-0.076-0.291-0.076-0.321 0-0.452 0.034-0.292 0.076m24.419 3e-3c0.207 0.04 0.507 0.039 0.666-3e-3 0.16-0.042-0.01-0.074-0.377-0.073-0.366 2e-3 -0.497 0.036-0.289 0.076m24.581-3e-3c0.16 0.042 0.423 0.042 0.583 0 0.161-0.042 0.03-0.076-0.291-0.076s-0.452 0.034-0.292 0.076m-257.542 0.087c0 0.05-0.335 1.052-0.744 2.228-0.41 1.175-0.72 2.161-0.69 2.192 0.067 0.067 0.223-0.329 1.021-2.595 0.333-0.947 0.563-1.766 0.51-1.819s-0.097-0.056-0.097-6e-3m145.342 0.326c-0.016 0.211 0.667 1.686 0.745 1.608 0.043-0.043-0.105-0.447-0.329-0.898-0.224-0.452-0.411-0.771-0.416-0.71m-102.165 1.649c-0.204 0.56-0.338 1.051-0.298 1.091 0.041 0.041 0.241-0.384 0.445-0.944s0.338-1.051 0.297-1.091c-0.04-0.041-0.24 0.384-0.444 0.944m109.846 0.012c-0.467 1.122-0.361 1.227 0.133 0.134 0.209-0.463 0.345-0.877 0.303-0.92-0.043-0.042-0.239 0.311-0.436 0.786m-178.106-0.189c-0.063 0.197-0.076 0.396-0.03 0.442 0.045 0.046 0.134-0.078 0.197-0.275 0.062-0.197 0.076-0.396 0.03-0.442s-0.134 0.078-0.197 0.275m226.583 0.199c0.5 0.527 2.755 1.695 3.045 1.577 0.147-0.059 0.14-0.086-0.025-0.096-0.343-0.019-2.54-1.159-3.02-1.567l-0.416-0.353 0.416 0.439m24.5 0c0.488 0.514 2.647 1.641 3.103 1.62 0.207-9e-3 0.154-0.062-0.154-0.155-0.678-0.203-2.463-1.143-2.949-1.553l-0.416-0.351 0.416 0.439m-158.647 0.821c-0.456 1.35-0.345 1.46 0.138 0.137 0.204-0.56 0.335-1.053 0.292-1.096-0.044-0.044-0.237 0.388-0.43 0.959m-101.388-0.099c-0.051 0.181-0.144 0.479-0.206 0.663-0.062 0.183 9e-3 0.122 0.158-0.135 0.149-0.258 0.242-0.556 0.206-0.663-0.035-0.106-0.106-0.046-0.158 0.135m285.369-0.179c0 0.046 0.225 0.199 0.5 0.342 0.275 0.142 0.5 0.221 0.5 0.175s-0.225-0.2-0.5-0.342-0.5-0.221-0.5-0.175m-104.823 0.446c-0.012 0.309 0.442 0.749 0.604 0.586 0.059-0.059 0.018-0.107-0.092-0.107s-0.268-0.169-0.351-0.375c-0.102-0.254-0.154-0.287-0.161-0.104m42.823 0.215c0 0.13-0.094 0.274-0.209 0.32-0.124 0.051-0.091 0.09 0.084 0.098 0.185 8e-3 0.291-0.109 0.291-0.321 0-0.183-0.037-0.333-0.083-0.333s-0.083 0.106-0.083 0.236m48.25 0.264c-0.322 0.138-0.321 0.144 0.031 0.155 0.201 6e-3 0.412-0.063 0.469-0.155 0.122-0.197-0.042-0.197-0.5 0m24.5 0c-0.322 0.138-0.321 0.144 0.031 0.155 0.201 6e-3 0.412-0.063 0.469-0.155 0.122-0.197-0.042-0.197-0.5 0m-56.834 0.333c0.494 0.212 1.078 0.212 0.75 0-0.137-0.089-0.437-0.157-0.666-0.152-0.382 8e-3 -0.389 0.021-0.084 0.152m6.334 0-0.334 0.144h0.334c0.183 0 0.483-0.065 0.666-0.144l0.334-0.143h-0.334c-0.183 0-0.483 0.065-0.666 0.143m18.25 0c0.137 0.089 0.437 0.158 0.666 0.153 0.382-9e-3 0.389-0.021 0.084-0.153-0.494-0.212-1.078-0.212-0.75 0m6.25 0-0.334 0.144h0.334c0.183 0 0.483-0.065 0.666-0.144l0.334-0.143h-0.334c-0.183 0-0.483 0.065-0.666 0.143m18.333 0c0.498 0.214 0.915 0.214 0.583 0-0.137-0.089-0.4-0.157-0.583-0.152l-0.333 9e-3 0.333 0.143m6.167 0-0.334 0.144h0.334c0.183 0 0.483-0.065 0.666-0.144l0.334-0.143h-0.334c-0.183 0-0.483 0.065-0.666 0.143m-52.785 0.291c0.576 0.032 1.476 0.032 2-1e-3 0.523-0.033 0.051-0.06-1.049-0.059-1.1 0-1.528 0.027-0.951 0.06m24.576-1e-3c0.527 0.033 1.39 0.033 1.917 0s0.096-0.06-0.958-0.06-1.486 0.027-0.959 0.06m24.5 0c0.527 0.033 1.39 0.033 1.917 0s0.096-0.06-0.958-0.06-1.486 0.027-0.959 0.06m-190.17 0.505-0.187 0.536-12.05 0.044-12.051 0.044 12.038 0.041 12.038 0.04 0.269-0.411c0.148-0.226 0.238-0.505 0.2-0.621-0.038-0.115-0.154 0.033-0.257 0.327m-68.419 0.255c-0.13 0.339-24.176 0.45-24.343 0.113-0.046-0.094-0.065-0.075-0.041 0.042 0.051 0.252 24.018 0.396 24.41 0.146 0.126-0.08 0.196-0.244 0.156-0.365-0.053-0.157-0.104-0.139-0.182 0.064m-96.644 0.326c0.069 0.069 14.372 0.106 31.784 0.083l31.658-0.042-31.784-0.083c-17.481-0.046-31.727-0.027-31.658 0.042" fill="#6c6c6c" fill-rule="evenodd"/><path d="m25.588 6.427c-0.159 0.418-0.252 0.798-0.206 0.844 0.047 0.047 0.177-0.202 0.29-0.551 0.113-0.35 0.279-0.73 0.37-0.845 0.108-0.136 0.109-0.208 1e-3 -0.208-0.09 0-0.295 0.342-0.455 0.76m63.447-0.422c-0.111 0.178-0.199 0.456-0.195 0.618 4e-3 0.166 0.113 0.047 0.252-0.273 0.279-0.641 0.247-0.831-0.057-0.345m70.695-0.204c0.045 0.073-0.296 1.217-0.759 2.541-0.462 1.325-0.879 2.578-0.926 2.785-0.047 0.208-0.151 0.419-0.232 0.469-0.08 0.05-0.142 0.255-0.138 0.456 0.01 0.427 0.074 0.275 1.293-3.062 0.959-2.628 1.141-3.323 0.869-3.323-0.105 0-0.153 0.06-0.107 0.134m6.601 0.573c-0.122 0.39-0.284 0.781-0.36 0.868s-0.135 0.274-0.133 0.416c5e-3 0.23 0.022 0.23 0.159-4e-3 0.233-0.398 0.703-1.843 0.625-1.921-0.037-0.037-0.168 0.251-0.291 0.641m64.04-0.166c-0.284 0.785-0.244 0.998 0.056 0.305 0.137-0.314 0.226-0.638 0.198-0.721-0.027-0.082-0.142 0.105-0.254 0.416m-132.371-0.015c0 0.045-0.196 0.639-0.436 1.32-0.239 0.68-0.87 2.474-1.401 3.987-0.531 1.512-1.195 3.383-1.476 4.158-0.281 0.774-0.485 1.433-0.454 1.463 0.03 0.031 0.148-0.19 0.261-0.491 0.114-0.301 0.268-0.697 0.343-0.88s0.336-0.896 0.58-1.583c0.244-0.688 0.508-1.4 0.588-1.584 0.08-0.183 0.454-1.233 0.832-2.333s0.839-2.437 1.024-2.971 0.292-1.015 0.238-1.069c-0.055-0.055-0.099-0.062-0.099-0.017m-9.411 0.991c-0.479 1.305-1.206 3.33-1.609 4.483-1.069 3.056-1.331 3.871-1.264 3.938 0.074 0.074 0.177-0.204 1.777-4.772 0.562-1.604 1.096-3.095 1.187-3.313s0.127-0.435 0.08-0.482-0.124 0.019-0.171 0.146m-63.422 0.343c0 0.045-0.184 0.601-0.407 1.236-1.039 2.943-2.106 5.944-2.573 7.228-0.281 0.774-0.485 1.433-0.454 1.464 0.03 0.031 0.148-0.19 0.261-0.491 0.114-0.301 0.267-0.697 0.341-0.881 0.167-0.411 1.153-3.093 1.715-4.666 0.987-2.76 1.308-3.782 1.215-3.874-0.054-0.054-0.098-0.062-0.098-0.016m140.284 1.172c-0.14 0.395-0.632 1.805-1.094 3.134s-1.029 2.937-1.261 3.573-0.388 1.191-0.346 1.232c0.041 0.042 0.111-0.028 0.154-0.156 0.274-0.805 1.308-3.636 1.455-3.982 0.391-0.925 1.495-4.369 1.423-4.441-0.043-0.042-0.192 0.246-0.331 0.64m64.055-0.163c-0.114 0.301-0.267 0.697-0.341 0.881-0.074 0.183-0.177 0.464-0.228 0.625-0.088 0.275-1.189 0.291-20.018 0.291h-19.924l-0.271 0.625c-0.361 0.834-0.457 1.084-0.961 2.5-0.236 0.665-0.612 1.715-0.835 2.334-0.224 0.618-0.606 1.725-0.85 2.458-0.245 0.733-0.505 1.483-0.579 1.667-0.595 1.474-0.671 1.792-0.484 2.017 0.163 0.197 3.244 0.233 19.839 0.233 13.161 0 19.646 0.055 19.646 0.169 0 0.093-0.073 0.299-0.162 0.458s-0.441 1.096-0.783 2.081l-0.621 1.792h-19.768c-15.555 0-19.829 0.044-20.049 0.208-0.285 0.212-1.829 4.406-1.731 4.701 0.03 0.089 0.366-0.736 0.748-1.832 0.381-1.097 0.791-2.181 0.911-2.411l0.218-0.416 19.849-0.043c15.607-0.033 19.883-0.086 20.009-0.25 0.181-0.234 1.546-4.154 1.546-4.439 0-0.134-5.386-0.185-19.723-0.185-10.847 0-19.767-0.046-19.823-0.101-0.094-0.094 0.143-0.843 1.129-3.566 0.216-0.596 0.666-1.871 1-2.833 0.641-1.845 1.328-3.775 1.618-4.542l0.172-0.458h19.876c15.705 0 19.91-0.044 20.036-0.208 0.087-0.115 0.254-0.471 0.37-0.792 0.117-0.321 0.292-0.752 0.39-0.958 0.097-0.206 0.137-0.415 0.088-0.464-0.048-0.049-0.181 0.157-0.294 0.458m-108.93 1.975c-0.06 0.098-0.064 0.223-9e-3 0.278s0.1 0.012 0.1-0.095c0-0.144 1.698-0.194 6.666-0.194 5.394 0 6.667 0.042 6.667 0.219 0 0.12-0.382 1.301-0.85 2.625-0.467 1.323-1.099 3.118-1.403 3.989-0.305 0.871-0.609 1.734-0.675 1.917-0.082 0.226-0.066 0.28 0.05 0.167 0.093-0.092 0.326-0.617 0.516-1.167s0.507-1.45 0.705-2c1.119-3.107 1.824-5.257 1.824-5.566v-0.351h-6.74c-4.594 0-6.776 0.057-6.851 0.178m-72.498 0.332c-0.061 0.098-0.066 0.224-0.011 0.279s0.1 0.013 0.1-0.094c0-0.145 1.896-0.195 7.5-0.195 5.902 0 7.5 0.045 7.5 0.209 0 0.177-0.271 0.97-0.924 2.708-0.082 0.219-0.069 0.276 0.038 0.167 0.09-0.092 0.295-0.542 0.454-1 0.16-0.459 0.367-0.993 0.461-1.187 0.491-1.018 0.798-0.976-7.479-1.023-5.241-0.031-7.562 0.011-7.639 0.136m72.177 0.341c-0.598 1.613-1.581 4.402-3.664 10.399-0.108 0.31-0.102 0.312 0.078 0.029 0.167-0.261 1.07-2.636 1.5-3.945 0.075-0.229 0.523-1.505 0.996-2.834 1.303-3.663 1.325-3.731 1.248-3.809-0.039-0.039-0.111 0.033-0.158 0.16m-72.889 1.436c-0.098 0.255-0.451 1.251-0.785 2.213-0.62 1.791-1.31 3.732-1.611 4.533-0.093 0.247-0.293 0.482-0.445 0.522-0.25 0.067-0.25 0.075-4e-3 0.093 0.352 0.025 0.524-0.214 0.882-1.231 0.162-0.458 0.47-1.321 0.684-1.917 1.218-3.395 1.598-4.536 1.532-4.603-0.041-0.041-0.155 0.135-0.253 0.39m109.64 1.25c-0.114 0.301-0.268 0.697-0.344 0.88-0.189 0.456-0.712 1.901-1.691 4.667-1.314 3.715-1.663 4.78-1.588 4.855s0.219-0.31 1.844-4.939c0.595-1.696 1.311-3.716 1.589-4.491 0.279-0.774 0.482-1.433 0.451-1.463-0.03-0.031-0.148 0.19-0.261 0.491m-95.146 0.91c-0.118 0.35-0.281 0.787-0.36 0.97-0.08 0.183-0.666 1.833-1.302 3.667l-1.156 3.333-19.596 0.083c-12.75 0.055-19.647 0.142-19.743 0.25-0.08 0.092-0.501 1.179-0.936 2.417-0.932 2.655-1.576 4.454-1.76 4.917-0.073 0.183-0.219 0.549-0.326 0.813-0.106 0.264-0.155 0.518-0.109 0.565 0.087 0.087 0.428-0.69 0.428-0.975 0-0.087 0.071-0.288 0.157-0.447 0.156-0.287 0.698-1.734 1.984-5.29l0.662-1.833 19.474-0.083c10.71-0.046 19.571-0.147 19.692-0.225 0.12-0.078 0.297-0.34 0.393-0.583 0.24-0.605 1.752-4.879 2.162-6.109 0.183-0.55 0.412-1.161 0.507-1.359 0.096-0.197 0.145-0.446 0.109-0.553-0.035-0.107-0.161 0.092-0.28 0.442m23.64 1.07c0 0.039-0.15 0.482-0.333 0.983-0.184 0.502-0.33 0.988-0.325 1.081s0.124-0.131 0.265-0.497c0.141-0.367 0.338-0.836 0.436-1.042 0.099-0.206 0.13-0.425 0.068-0.486-0.061-0.061-0.111-0.079-0.111-0.039m158.109 0.608c-0.043 0.069 1.959 0.104 4.448 0.077 4.669-0.049 5.276-9e-3 5.276 0.348 0 0.185 1.868 4.763 2.665 6.534 0.166 0.366 0.422 0.959 0.57 1.317s0.312 0.608 0.363 0.557c0.052-0.051-0.015-0.307-0.148-0.567-0.133-0.261-0.938-2.161-1.789-4.224-0.851-2.062-1.662-3.844-1.802-3.958-0.286-0.233-9.441-0.313-9.583-0.084m24.091 0.075c-0.11 0.11-0.198 0.279-0.195 0.375 3e-3 0.097 0.082 0.044 0.175-0.116 0.155-0.267 0.568-0.292 4.831-0.292h4.662l-0.045 12.5c-0.041 11.565-0.01 12.969 0.271 12.236 0.209-0.544 0.113-24.491-0.099-24.703-0.285-0.285-9.315-0.285-9.6 0m49.717 0.061c-0.723 0.198-0.745 0.215-0.167 0.131 0.367-0.054 1.379-0.152 2.25-0.217l1.583-0.12-1.416-0.011c-0.78-7e-3 -1.792 0.091-2.25 0.217m24.5-1e-3 -0.834 0.228 0.75-0.099c0.413-0.054 1.425-0.151 2.25-0.215l1.5-0.115-1.416-0.013c-0.78-8e-3 -1.792 0.089-2.25 0.214m24.676-0.072c-0.876 0.205-1.023 0.395-0.176 0.227 0.366-0.072 1.341-0.182 2.166-0.244l1.5-0.112-1.416-0.013c-0.78-7e-3 -1.713 0.057-2.074 0.142m-45.176 0.146c0.183 0.078 0.521 0.141 0.75 0.138l0.416-5e-3 -0.416-0.133c-0.229-0.074-0.567-0.136-0.75-0.139l-0.334-5e-3 0.334 0.144m24.5 0c0.183 0.078 0.521 0.141 0.75 0.138l0.416-5e-3 -0.416-0.133c-0.229-0.074-0.567-0.136-0.75-0.139l-0.334-5e-3 0.334 0.144m24.5 0c0.183 0.078 0.521 0.143 0.75 0.143 0.379 0 0.387-0.013 0.083-0.143-0.183-0.079-0.521-0.144-0.75-0.144-0.38 0-0.387 0.013-0.083 0.144m-208.042 0.696c-0.285 0.79-0.26 0.99 0.049 0.398 0.14-0.27 0.234-0.599 0.207-0.733-0.026-0.134-0.141 0.017-0.256 0.335m133.097-0.417c-0.156 0.041-0.414 0.455-0.584 0.935-0.559 1.58-2.305 2.882-4.721 3.521-0.537 0.142-0.743 0.247-0.498 0.254 0.439 0.011 1.616-0.38 2.748-0.913 1.249-0.588 2.364-1.891 2.814-3.289 0.086-0.269 0.314-0.292 2.391-0.25l2.295 0.046 0.042 11.898c0.032 8.651-8e-3 11.96-0.145 12.125-0.146 0.176-0.127 0.227 0.082 0.227 0.461 0 0.409-24.247-0.052-24.494-0.308-0.165-3.794-0.213-4.372-0.06m19.611 0.196c-4.435 1.517-6.75 5.639-6.75 12.022 0 5.244 1.515 9.015 4.417 11 0.829 0.567 1.759 1.049 1.849 0.959 0.037-0.037-0.356-0.286-0.875-0.554-4.397-2.267-6.426-9.616-4.588-16.62 0.778-2.967 4.043-6.571 6-6.623 0.36-0.01 1.364-0.465 1.031-0.467-0.138-1e-3 -0.625 0.126-1.084 0.283m7.917-0.24c0 0.105 2.195 0.792 2.275 0.712 0.069-0.069-0.338-0.235-1.453-0.591-0.638-0.203-0.822-0.23-0.822-0.121m16.535 0.255c-0.95 0.324-1.25 0.51-0.823 0.51 0.148 0 0.315-0.075 0.371-0.167 0.057-0.092 0.268-0.17 0.469-0.174 0.413-9e-3 1.501-0.465 1.115-0.467-0.138-1e-3 -0.647 0.133-1.132 0.298m7.965-0.274c0 0.048 0.494 0.248 1.097 0.443 4.646 1.5 6.703 5.442 6.527 12.504-0.133 5.363-1.389 8.353-4.322 10.294-0.778 0.515-0.823 0.648-0.094 0.273 5.395-2.767 6.517-15.642 1.809-20.766-0.927-1.008-2.76-2.225-3.721-2.47-0.3-0.076-0.715-0.19-0.921-0.253-0.206-0.062-0.375-0.074-0.375-0.025m16.535 0.274c-0.95 0.324-1.25 0.51-0.823 0.51 0.148 0 0.315-0.075 0.371-0.167 0.057-0.092 0.268-0.17 0.469-0.174 0.413-9e-3 1.501-0.465 1.115-0.467-0.138-1e-3 -0.647 0.133-1.132 0.298m7.965-0.274c0 0.048 0.506 0.25 1.125 0.449 2.902 0.93 5.169 3.428 6.036 6.649 0.107 0.395 0.238 0.676 0.29 0.623 0.124-0.124-0.526-1.918-1.134-3.13-0.923-1.839-3.299-3.871-5.053-4.32-0.283-0.072-0.683-0.183-0.889-0.246-0.206-0.062-0.375-0.074-0.375-0.025m-278.137 0.909c-0.098 0.252-0.289 0.795-0.426 1.208-0.136 0.412-0.559 1.612-0.941 2.667-0.381 1.054-0.755 2.104-0.829 2.333-0.075 0.229-0.443 1.27-0.818 2.313-0.375 1.044-0.68 1.944-0.677 2 0.013 0.27 0.4-0.646 1.094-2.594 1.594-4.473 2.772-7.813 2.854-8.094 0.137-0.466-0.062-0.337-0.257 0.167m-72.659 0.849c-0.447 1.152-0.459 1.36-0.079 1.356 0.204-1e-3 0.23-0.041 0.087-0.132-0.157-0.1-0.124-0.355 0.141-1.092 0.453-1.259 0.33-1.368-0.149-0.132m304.296-0.84c0 0.068 0.27 0.269 0.601 0.447 1.368 0.737 3.086 3.051 3.96 5.335 0.14 0.367 0.259 0.535 0.264 0.373 4e-3 -0.162-0.054-0.424-0.131-0.583-1.256-2.611-1.506-3.018-2.435-3.955-0.944-0.952-2.259-1.893-2.259-1.617m12 0.343c-0.796 0.5-2.748 2.497-2.592 2.653 0.051 0.05 0.113 0.061 0.139 0.022 0.578-0.844 1.521-1.799 2.3-2.328 0.542-0.369 0.986-0.705 0.986-0.747 0-0.119-0.031-0.103-0.833 0.4m24.583-0.041c-1.684 0.965-4.638 5.231-4.037 5.832 0.048 0.048 0.174-0.176 0.281-0.498 0.679-2.057 2.026-3.956 3.47-4.891 0.524-0.34 0.984-0.639 1.022-0.665 0.362-0.248-0.221-0.072-0.736 0.222m-95.231 0.249c-0.122 0.275-0.186 0.536-0.143 0.58 0.044 0.043 0.175-0.151 0.291-0.432 0.276-0.666 0.141-0.801-0.148-0.148m-182.263-1e-3c-1.356 3.694-2.436 6.719-2.938 8.232-0.274 0.825-0.578 1.662-0.677 1.859s-0.148 0.452-0.11 0.566c0.038 0.115 0.191-0.159 0.341-0.608 0.149-0.449 0.543-1.567 0.875-2.483 0.332-0.917 0.837-2.342 1.122-3.167 0.284-0.825 0.766-2.171 1.069-2.991 0.304-0.82 0.519-1.525 0.478-1.566s-0.113 0.03-0.16 0.158m76.944 1.269c-0.099 0.255-0.452 1.251-0.785 2.213-0.604 1.745-0.768 2.203-2.083 5.834-0.731 2.017-0.993 2.903-0.641 2.166 0.363-0.76 0.616-1.402 1.151-2.916 0.291-0.825 0.902-2.55 1.358-3.834 0.456-1.283 0.867-2.483 0.912-2.666 0.046-0.184 0.164-0.502 0.264-0.708 0.099-0.207 0.14-0.415 0.091-0.464-0.048-0.049-0.169 0.12-0.267 0.375m-30.829 0.588c-0.283 0.785-0.244 0.998 0.057 0.305 0.136-0.314 0.225-0.638 0.198-0.721-0.028-0.082-0.142 0.105-0.255 0.416m135.316 0.176c-0.121 0.293-0.319 0.758-0.44 1.033s-0.518 1.287-0.884 2.25c-0.366 0.962-1.047 2.68-1.515 3.817-0.468 1.138-0.815 2.104-0.771 2.148 0.044 0.045 0.159-0.136 0.255-0.401 0.097-0.264 0.241-0.631 0.322-0.814 0.08-0.184 0.304-0.689 0.496-1.124 0.193-0.434 0.35-0.835 0.35-0.891s0.113-0.357 0.25-0.668c0.508-1.151 0.722-1.687 1.328-3.317 0.34-0.917 0.7-1.836 0.799-2.042 0.098-0.206 0.146-0.408 0.105-0.449s-0.174 0.165-0.295 0.458m52.128 0.194c-2.693 0.992-3.808 3.505-3.808 8.589-1e-3 5.192 1.731 8.834 4.2 8.833 0.115 0-0.243-0.215-0.797-0.477-2.054-0.971-2.816-2.536-3.063-6.283-0.441-6.693 0.804-9.97 4.019-10.579 0.912-0.173 2.692 0.042 3.093 0.374 0.144 0.119 0.208 0.118 0.208-3e-3 0-0.53-2.761-0.855-3.852-0.454m24.485 6e-3c-1.272 0.467-2.783 1.881-2.795 2.614-3e-3 0.156-0.08 0.329-0.171 0.385-0.092 0.057-0.163 0.268-0.158 0.469 6e-3 0.261 0.085 0.175 0.278-0.302 1.327-3.28 4.872-4.258 7.338-2.023 0.753 0.681 0.869 0.747 0.57 0.321-0.999-1.424-3.333-2.1-5.062-1.464m24.486 4e-3c-2.927 1.075-4.021 4.294-3.602 10.601 0.204 3.08 0.623 4.395 1.761 5.533 0.621 0.622 1.953 1.34 2.28 1.23 0.106-0.035-0.108-0.162-0.475-0.281-2.352-0.766-3.245-2.788-3.376-7.643-0.193-7.187 1.643-10.114 5.864-9.349 2.982 0.541 4.014 2.746 4.01 8.571-4e-3 4.922-0.537 6.675-2.418 7.938-0.392 0.263-0.603 0.479-0.468 0.479 2.557 0 4.208-8.462 2.641-13.536-0.891-2.886-3.678-4.474-6.217-3.543m-32.756 1.062c-0.2 0.355-0.362 0.71-0.361 0.789 1e-3 0.08 0.19-0.185 0.421-0.588 0.23-0.403 0.392-0.758 0.361-0.79-0.032-0.031-0.221 0.233-0.421 0.589m-11.502 0.323c1.24 1.379 1.806 3.659 1.806 7.277 0 4.545-0.773 6.768-2.829 8.141-0.504 0.337-0.32 0.362 0.295 0.041 2.548-1.331 3.602-8.119 2.09-13.46-0.265-0.936-1.536-2.805-1.908-2.805-0.098 0 0.147 0.363 0.546 0.806m-36.194-0.157c-0.412 0.114-0.417 0.136-0.417 1.942v1.825l7.58 0.09 0.092 15.41-3e-3 -7.75-2e-3 -7.75-3.792-0.044-3.792-0.045v-3.443l1.459-0.166 1.458-0.166-1.083-9e-3c-0.596-6e-3 -1.271 0.042-1.5 0.106m-170.329 0.276c-0.015 0.542 0.376 0.575 6.79 0.575 6.206 0 7.039-0.062 7.039-0.518 0-0.095-0.118-0.055-0.262 0.089-0.422 0.422-13.145 0.394-13.392-0.03-0.093-0.16-0.172-0.213-0.175-0.116m217.367 1.028c-0.338 0.903-0.4 1.144-0.634 2.463-0.306 1.72-0.304 5.461 3e-3 7.167 0.317 1.763 0.997 3.901 1.183 3.715 0.044-0.044-0.042-0.373-0.191-0.731-1.306-3.122-1.409-9.975-0.189-12.525 0.098-0.207 0.139-0.415 0.09-0.464s-0.167 0.12-0.262 0.375m14.685 0.462c0.198 0.503 0.386 0.838 0.417 0.744 0.057-0.169-0.58-1.659-0.709-1.659-0.037 0 0.094 0.411 0.292 0.915m-77.862 0.638c-0.199 0.212-0.361 0.46-0.361 0.551 0 0.092-0.156 0.488-0.345 0.88-0.19 0.393-0.305 0.755-0.255 0.805s0.161-0.089 0.247-0.308c1.022-2.593 1.019-2.608 1.019 6.588 0 7.715 0.037 8.764 0.31 8.764 0.132 0-0.022-17.435-0.156-17.569-0.053-0.053-0.26 0.077-0.459 0.289m-20.595 0.069c-0.055 0.055-0.1 3.832-0.1 8.394 0 7.543-0.025 8.319-0.28 8.573-0.262 0.262-0.259 0.276 0.042 0.218 0.312-0.06 0.323-0.314 0.365-8.351 0.049-9.504 0.026-9.386 1.29-6.415 0.439 1.032 0.967 2.25 1.174 2.709 0.206 0.458 0.497 1.126 0.645 1.484 0.148 0.357 0.316 0.603 0.374 0.545 0.057-0.057 0.031-0.2-0.06-0.317-0.09-0.117-0.286-0.528-0.436-0.914-0.149-0.385-0.416-1.023-0.592-1.416-0.176-0.394-0.674-1.554-1.105-2.58-0.721-1.71-1.052-2.195-1.317-1.93m107.826 0.47c-0.062 0.335-0.076 0.646-0.03 0.692 0.045 0.046 0.134-0.191 0.197-0.525 0.063-0.335 0.077-0.646 0.031-0.692-0.046-0.045-0.135 0.191-0.198 0.525m-27.397-0.176c2e-3 0.184 0.065 0.521 0.138 0.75l0.133 0.417 5e-3 -0.417c3e-3 -0.229-0.059-0.566-0.138-0.75l-0.143-0.333 5e-3 0.333m-177.356 0.453c-0.114 0.301-0.286 0.716-0.384 0.922s-0.138 0.415-0.089 0.464 0.181-0.157 0.295-0.458c0.113-0.301 0.286-0.716 0.384-0.922 0.097-0.206 0.137-0.415 0.088-0.464-0.048-0.049-0.181 0.157-0.294 0.458m186.275-0.139c-0.063 0.163-0.11 0.422-0.104 0.575 7e-3 0.184 0.065 0.142 0.172-0.124 0.088-0.222 0.135-0.48 0.103-0.575s-0.109-0.039-0.171 0.124m9.652 0.353c0.138 0.827 0.234 0.96 0.231 0.319-1e-3 -0.267-0.079-0.598-0.173-0.736-0.122-0.179-0.138-0.061-0.058 0.417m30.688 0.5c0.15 1.345 0.154 5.592 7e-3 6.833l-0.118 1 0.235-1.166c0.302-1.5 0.302-5 0-6.5l-0.235-1.167 0.111 1m-122.612-0.075c-5e-3 0.142 0.056 0.33 0.136 0.417s0.652 1.396 1.273 2.908c1.11 2.706 1.896 4.517 2.018 4.652 0.114 0.125 0.731-0.533 0.731-0.78 0-0.159-0.109-0.108-0.319 0.151-0.401 0.495-0.245 0.753-1.745-2.881-1.431-3.466-2.081-4.853-2.094-4.467m100.404 1.742c-0.141 2.067 0.024 4.913 0.35 6.035 0.174 0.596 0.211 0.651 0.149 0.215-0.329-2.305-0.425-4.019-0.331-5.875 0.059-1.169 0.072-2.125 0.029-2.125s-0.132 0.787-0.197 1.75m-26.676 1.75c-1e-3 2.039 0.045 3.047 0.114 2.5 0.148-1.173 0.149-3.817 2e-3 -5-0.068-0.542-0.115 0.479-0.116 2.5m8.333 0c0 1.787 0.024 2.518 0.054 1.625 0.03-0.894 0.03-2.357 0-3.25-0.03-0.894-0.054-0.163-0.054 1.625m10.165 0c0 1.512 0.025 2.131 0.056 1.375 0.031-0.757 0.031-1.994 0-2.75-0.031-0.757-0.056-0.138-0.056 1.375m-306.789-2.292c-0.156 0.115-0.662 1.296-1.125 2.625s-0.955 2.743-1.093 3.141c-0.139 0.398-0.22 0.756-0.18 0.795 0.039 0.04 0.225-0.361 0.413-0.89 1.588-4.466 1.899-5.294 2.062-5.49 0.149-0.18 1.596-0.223 7.497-0.223h7.313l3e-3 0.375c2e-3 0.296 0.035 0.323 0.157 0.131 0.407-0.643 0.083-0.672-7.482-0.672-5.562 0-7.348 0.049-7.565 0.208m72.35 0c-0.148 0.115-0.58 1.108-0.961 2.208s-0.921 2.638-1.2 3.417-0.545 1.587-0.591 1.794c-0.046 0.208-0.15 0.418-0.231 0.468-0.08 0.05-0.146 0.212-0.146 0.359 0 0.632 0.319-0.163 2.018-5.023 0.542-1.55 1.068-2.918 1.17-3.041 0.152-0.182 3.54-0.23 18.956-0.265l18.772-0.043-18.759-0.041c-14.805-0.033-18.817 3e-3 -19.028 0.167m154.416 0.167c-0.656 1.382-2.211 5.17-2.207 5.375 4e-3 0.241 0.359-0.527 1.493-3.235 0.553-1.32 0.98-2.426 0.948-2.458-0.031-0.031-0.137 0.112-0.234 0.318m-212.341 1.579c-1.94 5.442-2.383 6.756-2.305 6.834 0.103 0.103 0.434-0.689 0.434-1.039 0-0.126 0.066-0.27 0.147-0.32 0.08-0.05 0.184-0.261 0.23-0.469 0.046-0.207 0.509-1.604 1.03-3.103 0.52-1.5 0.914-2.758 0.876-2.796s-0.223 0.364-0.412 0.893m32.915 0.578c-0.138 0.395-0.307 0.868-0.376 1.051-0.083 0.219-0.07 0.276 0.038 0.167 0.222-0.226 0.774-1.75 0.672-1.853-0.046-0.045-0.196 0.241-0.334 0.635m-9.281 0.539c-0.095 0.248-0.172 0.545-0.172 0.662 0 0.116-0.049 0.261-0.11 0.322s-0.241 0.467-0.4 0.902c-1.528 4.189-2.474 6.859-3.146 8.876-0.199 0.596-0.432 1.214-0.519 1.373s-0.158 0.397-0.158 0.53c0 0.132-0.118 0.358-0.262 0.502s-0.184 0.262-0.089 0.262c0.208 0 0.395-0.338 0.739-1.334 0.142-0.412 0.646-1.837 1.119-3.166 0.473-1.33 0.92-2.604 0.994-2.834 0.135-0.418 1.1-3.083 1.898-5.239 0.235-0.636 0.393-1.19 0.352-1.232-0.041-0.041-0.152 0.128-0.246 0.376m181.247 1.213c-0.251 0.623-0.498 1.238-0.549 1.368-0.055 0.139-0.021 0.191 0.084 0.127 0.097-0.06 0.225-0.306 0.286-0.546 0.06-0.24 0.265-0.769 0.456-1.175s0.309-0.776 0.263-0.822-0.289 0.425-0.54 1.048m-104.219-0.165c-0.349 0.911-1.688 4.665-2.364 6.631-0.378 1.1-0.843 2.396-1.033 2.881-0.191 0.484-0.307 0.92-0.26 0.967 0.048 0.048 0.201-0.236 0.341-0.631s0.529-1.467 0.864-2.384 0.837-2.342 1.114-3.167c0.753-2.239 1.31-3.788 1.513-4.208 0.1-0.206 0.141-0.415 0.092-0.463-0.048-0.049-0.169 0.119-0.267 0.374m-68.572 0.647c-0.15 0.45-0.435 1.267-0.634 1.817-1.165 3.218-2.146 6.153-2.079 6.22 0.043 0.043 0.11-0.027 0.15-0.154 0.079-0.252 0.692-1.976 1.342-3.774 0.223-0.619 0.603-1.725 0.843-2.459 0.241-0.733 0.517-1.494 0.613-1.692 0.097-0.197 0.145-0.452 0.107-0.566-0.038-0.115-0.192 0.159-0.342 0.608m164.548 0.258c-8e-3 0.094 2.043 4.933 3.062 7.226 0.203 0.458 0.468 1.079 0.589 1.38 0.12 0.301 0.258 0.507 0.307 0.458s9e-3 -0.257-0.089-0.464c-0.211-0.445-0.33-0.721-1.857-4.291-1.182-2.766-1.996-4.509-2.012-4.309m-72.329 0.145c-7e-3 0.047-0.163 0.496-0.347 0.997-0.466 1.277-0.403 1.453 0.093 0.258 0.227-0.546 0.38-1.071 0.34-1.167s-0.079-0.135-0.086-0.088m-165.131 1.132c-0.198 0.522-0.67 1.849-1.051 2.949-1.604 4.636-1.859 5.351-2.036 5.708-0.101 0.206-0.145 0.415-0.096 0.463 0.049 0.049 0.182-0.157 0.295-0.458s0.267-0.697 0.342-0.88c0.076-0.183 0.33-0.877 0.567-1.542 0.236-0.664 0.613-1.714 0.836-2.333 0.8-2.216 1.621-4.737 1.562-4.796-0.033-0.033-0.222 0.367-0.419 0.889m332.89 0.091c-0.07 0.353-0.088 0.68-0.041 0.728 0.126 0.126 0.309-0.71 0.233-1.065-0.039-0.184-0.116-0.051-0.192 0.337m-9.753-0.059c-8e-3 0.229 0.058 0.529 0.147 0.667 0.206 0.318 0.206-0.025 0-0.667l-0.133-0.417-0.014 0.417m-8.769 0.333c-0.064 0.288-0.078 0.562-0.032 0.608 0.046 0.045 0.135-0.153 0.198-0.441 0.064-0.288 0.078-0.561 0.032-0.607s-0.135 0.152-0.198 0.44m-64.048 0.339c-0.111 0.178-0.202 0.418-0.201 0.534 0 0.116 0.114-7e-3 0.253-0.272 0.288-0.554 0.25-0.747-0.052-0.262m112.878 0.433c-0.494 2.293-2.535 5.345-4.122 6.166-0.252 0.131-0.458 0.275-0.458 0.321 0 0.259 1.229-0.622 2.134-1.53 1.279-1.284 3.068-4.915 2.635-5.348-0.048-0.048-0.133 0.128-0.189 0.391m-39.734 0.114c-0.057 1.32 2.282 3.823 3.527 3.772 0.115-4e-3 -0.09-0.129-0.457-0.277-1.382-0.557-2.261-1.516-2.795-3.047-0.144-0.413-0.268-0.614-0.275-0.448m8.873 0.705c-0.255 0.653-0.293 0.873-0.125 0.734 0.131-0.109 0.239-0.325 0.239-0.478 0-0.154 0.082-0.362 0.182-0.462 0.101-0.101 0.157-0.305 0.125-0.454-0.031-0.15-0.221 0.147-0.421 0.66m-18.348-0.049c-0.284 0.785-0.245 0.997 0.056 0.304 0.136-0.314 0.225-0.638 0.198-0.72s-0.142 0.105-0.254 0.416m27.962-0.289c0 0.138 0.066 0.382 0.146 0.541 0.081 0.159 0.457 0.939 0.837 1.732 0.873 1.824 4.093 4.788 4.624 4.256 0.033-0.032-0.147-0.164-0.399-0.292-2.315-1.179-3.768-2.875-4.736-5.53-0.358-0.982-0.472-1.153-0.472-0.707m-318.625 0.369c-0.115 0.245-0.205 0.561-0.202 0.703 4e-3 0.142 0.118 2e-3 0.254-0.312 0.295-0.68 0.248-1.031-0.052-0.391m140.324 0.993c-0.491 1.347-0.452 1.545 0.06 0.309 0.227-0.546 0.389-1.064 0.359-1.152-0.029-0.088-0.218 0.291-0.419 0.843m85.648-0.024c-0.191 0.432-0.347 0.813-0.347 0.847s-0.217 0.53-0.483 1.104c-0.815 1.758-1.184 2.657-1.184 2.887 0 0.12-0.168 0.342-0.375 0.492-0.321 0.234-0.33 0.265-0.06 0.218 0.229-0.041 0.578-0.684 1.296-2.389 0.54-1.283 1.134-2.66 1.32-3.06 0.186-0.399 0.303-0.762 0.259-0.805-0.043-0.044-0.235 0.274-0.426 0.706m-211.33 0.78c-0.2 0.575-0.425 1.158-0.5 1.296-0.118 0.215-1.165 0.256-7.577 0.293-8.454 0.05-7.775 0.182-7.102-1.386 0.185-0.433 0.3-0.825 0.254-0.87-0.081-0.081-0.154 0.08-0.595 1.317-0.433 1.213-0.872 1.146 7.501 1.146h7.509l0.184-0.458c0.68-1.697 0.855-2.218 0.772-2.301-0.045-0.045-0.246 0.388-0.446 0.963m293.389-0.183c-0.269 0.287-0.714 0.661-0.989 0.833-0.275 0.171-0.399 0.312-0.276 0.312 0.332 1e-3 1.13-0.61 1.53-1.173 0.455-0.638 0.351-0.627-0.265 0.028m-236.348 0.28c-0.1 0.247-0.261 0.674-0.356 0.949-1.453 4.177-1.882 5.227-2.171 5.312-0.156 0.046-0.103 0.069 0.119 0.052 0.352-0.027 0.476-0.248 1.039-1.864 0.351-1.008 0.872-2.496 1.156-3.305 0.479-1.364 0.629-2.17 0.213-1.144m217.721 0.673c-0.783 1.27-1.775 2.236-3.066 2.988-0.57 0.332-1.012 0.628-0.982 0.658 0.396 0.396 3.535-2.287 4.321-3.694 0.645-1.153 0.447-1.118-0.273 0.048m5.554-0.744c0 0.964 4.261 4.899 4.761 4.398 0.04-0.04-0.134-0.176-0.386-0.303-1.496-0.756-2.685-1.796-3.685-3.228-0.379-0.542-0.69-0.932-0.69-0.867m-13.583 1.103c-0.321 0.138-0.32 0.144 0.032 0.155 0.201 7e-3 0.411-0.063 0.468-0.155 0.122-0.197-0.041-0.197-0.5 0m24.5 0c-0.321 0.138-0.32 0.144 0.032 0.155 0.201 7e-3 0.411-0.063 0.468-0.155 0.122-0.197-0.041-0.197-0.5 0m24.5 0c-0.321 0.138-0.32 0.144 0.032 0.155 0.201 7e-3 0.411-0.063 0.468-0.155 0.122-0.197-0.041-0.197-0.5 0m-191.051 0.787c-0.464 1.203-1.366 3.855-1.366 4.016 0 0.099-0.131 0.257-0.291 0.351-0.259 0.15-0.261 0.17-0.018 0.175 0.15 2e-3 0.326-0.127 0.391-0.287 0.407-1.012 1.586-4.596 1.531-4.652-0.037-0.037-0.148 0.142-0.247 0.397m-92.913 1.746c-0.138 0.395-0.307 0.867-0.376 1.051-0.083 0.219-0.07 0.276 0.038 0.166 0.222-0.226 0.774-1.749 0.672-1.852-0.046-0.045-0.196 0.24-0.334 0.635m263.789 0.446c-0.198 0.181-1.672 0.604-2.998 0.858-0.593 0.114-1.79 0.16-2.916 0.111-1.736-0.075-2.387-0.161-3.911-0.518-0.35-0.082-0.425-0.069-0.25 0.045 1.669 1.082 10.5 0.597 10.5-0.576 0-0.118-0.264-0.068-0.425 0.08m-91.841 0.48c0.175 0.206 0.437 0.369 0.583 0.362 0.226-0.012 0.229-0.028 0.016-0.106-0.137-0.05-0.4-0.213-0.583-0.361-0.33-0.268-0.331-0.267-0.016 0.105m57.266 0.015c0.907 0.591 5.742 0.886 7.417 0.452 0.976-0.254 0.98-0.257 0.166-0.138-0.458 0.066-1.808 0.12-3 0.119-1.906-2e-3 -2.768-0.099-4.416-0.496-0.308-0.074-0.352-0.058-0.167 0.063m8.667 0.026c-0.332 0.214 0.085 0.214 0.583 0l0.333-0.143-0.333-9e-3c-0.183-5e-3 -0.446 0.063-0.583 0.152m40.333-0.025c0.575 0.37 2.371 0.602 4.667 0.602 2.295 0 4.092-0.232 4.666-0.602 0.263-0.17-1e-3 -0.131-1.5 0.218-1.407 0.328-4.657 0.359-6.012 0.058-1.979-0.44-2.104-0.459-1.821-0.276m-210.452 0.622c-0.329 0.875-0.369 1.058-0.243 1.136 0.068 0.042 0.14-0.117 0.16-0.353 0.019-0.236 0.117-0.528 0.218-0.649 0.1-0.121 0.152-0.31 0.115-0.42-0.037-0.111-0.15 0.018-0.25 0.286m-68.513 0.476c-0.286 0.627-0.254 0.763 0.173 0.741 0.283-0.014 0.303-0.038 0.084-0.095-0.337-0.088-0.369-0.241-0.107-0.504 0.102-0.102 0.156-0.276 0.119-0.386s-0.158 0-0.269 0.244m-72.434 0.191c-0.165 0.431-0.118 0.57 0.191 0.557 0.16-8e-3 0.206-0.049 0.101-0.092s-0.153-0.224-0.106-0.403c0.102-0.389-0.042-0.437-0.186-0.062" fill="#939393" fill-rule="evenodd"/><path d="m41.875 5.625c8.685 0.024 22.898 0.024 31.583 0 8.686-0.024 1.579-0.043-15.791-0.043-17.371 0-24.477 0.019-15.792 0.043m71.93 0c8.463 0.024 22.263 0.024 30.667 0 8.403-0.024 1.478-0.043-15.389-0.043-16.866 0-23.742 0.019-15.278 0.043m68.833 0c8.83 0.024 23.23 0.024 32 0s1.545-0.043-16.055-0.043-24.775 0.019-15.945 0.043m117.608 23.542c0 6.554 0.02 9.235 0.046 5.958 0.025-3.277 0.025-8.64 0-11.917-0.026-3.277-0.046-0.595-0.046 5.959m35.66-9.792-0.489 0.542 0.541-0.49c0.505-0.456 0.619-0.594 0.49-0.594-0.029 0-0.273 0.244-0.542 0.542m-309.031 0.75c3.277 0.025 8.64 0.025 11.917 0s0.595-0.046-5.959-0.046-9.235 0.021-5.958 0.046m158.267 1.751c0.069 0.069 8.972 0.106 19.784 0.083l19.657-0.042-19.783-0.084c-10.881-0.046-19.727-0.026-19.658 0.043m100.919 1.874c0 0.917 0.028 1.27 0.062 0.786s0.033-1.234-1e-3 -1.667c-0.034-0.432-0.062-0.036-0.061 0.881m-166.186-1.292c1.81 0.027 4.773 0.027 6.583 0 1.811-0.027 0.329-0.049-3.291-0.049-3.621 0-5.102 0.022-3.292 0.049m253.664 4.375c0 0.321 0.034 0.452 0.076 0.292s0.042-0.423 0-0.583c-0.042-0.161-0.076-0.03-0.076 0.291m-58.997 2.25c2e-3 0.367 0.036 0.497 0.076 0.29s0.038-0.507-3e-3 -0.667c-0.042-0.159-0.075 0.011-0.073 0.377m58.997 2.417c0 0.321 0.034 0.452 0.076 0.292 0.042-0.161 0.042-0.423 0-0.584-0.042-0.16-0.076-0.029-0.076 0.292m-128.414 10.124c0.848 0.03 2.235 0.03 3.083 0s0.154-0.055-1.541-0.055c-1.696 0-2.39 0.025-1.542 0.055m14.25-1e-3c0.527 0.033 1.39 0.033 1.917 0s0.095-0.06-0.959-0.06-1.485 0.027-0.958 0.06m13.674 1e-3c0.622 0.032 1.597 0.032 2.166-1e-3 0.569-0.032 0.06-0.059-1.132-0.058-1.191 0-1.657 0.027-1.034 0.059m22.833 0c0.622 0.032 1.597 0.032 2.167-1e-3 0.569-0.032 0.059-0.059-1.132-0.058-1.192 0-1.658 0.027-1.035 0.059" fill="#747474" fill-rule="evenodd"/></svg>
