<svg enable-background="new 0 0 3839 513.2" version="1.1" viewBox="0 0 3839 513.2" xml:space="preserve" xmlns="http://www.w3.org/2000/svg">
<path d="m0 0v65.400391l395.19922 138.999999h225.30078v-69.80078c0-74.299926-60.29929-134.59961-134.69922-134.59961h-485.80078zm3707 126.69922c-76.8999 0-132.6992 58.00085-132.6992 128.80078v0.69922c0 70.79993 55.2001 128.10156 132 128.10156 76.8999 0 132.6992-58.00085 132.6992-128.80078v-0.69922c0-70.79993-55.2001-128.10156-132-128.10156zm-2245.0996 2.5-106.7012 250.80078h55.8008l22.6992-55.80078h105.3008l22.8008 55.80078h57.2988l-106.6992-250.80078h-50.5zm-692.59962 1.80078v249h54.79883v-96.40039h118.80078v-49.79883h-118.80078v-53h134.80078v-49.80078h-189.59961zm227 0v249h54.79882v-249h-54.79882zm108.00002 0v249h54.0996v-158.30078l120.5996 158.30078h46.5996v-249h-54.0996v153.30078l-116.6992-153.30078h-50.5zm544.2988 0v249h178.9004v-49.80078h-124.0996v-199.19922h-54.8008zm309.2012 0v249h118.3984c56.2 0 93.1008-22.70083 93.3008-68.30078v-0.69922c0-33.49997-17.7996-50.19923-46.5996-61.19922 17.8-9.89999 32.6992-25.6012 32.6992-53.70117v-0.69922c0-39.09996-31.2993-64.40039-82.1992-64.40039h-115.5996zm243.8984 0v142.30078c0 73.29993 40.9009 110.59961 107.8008 110.59961s109.1992-36.90047 109.1992-112.40039v-140.5h-54.7988v142.59961c0 39.49996-20.3012 59.80078-53.7012 59.80078-33.3999 0-53.6992-21.00004-53.6992-61.5v-140.90039h-54.8008zm263.9004 0v249h54.8008v-79.69922h43l53.4004 79.69922h63.8984l-60.7988-88.90039c31.7-11.79999 53.4004-36.99926 53.4004-77.19922v-0.70117c0-51.29995-35.2005-82.19922-93.9004-82.19922h-113.8008zm248.3008 0v249h54.0996v-158.30078l120.5996 158.30078h46.5996v-249h-54.0996v153.30078l-116.6992-153.30078h-50.5zm369.9004 0v249h54.0996v-158.30078l120.5996 158.30078h46.5996v-249h-54.0996v153.40039l-116.6992-153.40039h-50.5zm272.1992 0v249h189.5996v-48.69922h-135.1992v-52.30078h117.4004v-48.80078h-117.4004v-50.5h133.4004v-48.69922h-187.8008zm-3149.09961 25.30078v244.39844l-75.70117 27.10156v85.39844h300.80078v-143.59961h-54.90039v-153.40039l-170.19922-59.89844zm3499.40041 20.89844c44.0999 0 75.3984 35.60082 75.3984 78.30078v0.69922c0 42.59996-30.5992 77.5-74.6992 77.5s-75.4004-35.59887-75.4004-78.29883v-0.70117c0-42.59996 30.6012-77.5 74.7012-77.5zm-1695.2012 1.90039h54.0996c23.1 0 35.9004 9.19963 35.9004 25.59961v0.70117c0 18.49998-15.3 26.29883-39.5 26.29883h-50.5v-52.59961zm509.4004 1.40039h54.4004c26.6 0 43 12.09963 43 35.59961h0.0996v0.70117c0 20.99998-15.3 35.19922-42 35.19922h-55.5v-71.5zm-1034.0996 14.59961 33.0996 80.70117h-66.1992l33.0996-80.70117zm-1091.20118 27.40039v129h225.30078v-129h-225.30078zm1615.80078 54.80078h63.3008c28.2 0 40.5996 10.30002 40.5996 27v0.69922c0 18.49998-14.6008 27-38.8008 27h-65.0996v-54.69922z"/>
</svg>
