<svg width="328.76434" height="102.59003" version="1.1" viewBox="0 0 328.76435 102.59003" xmlns="http://www.w3.org/2000/svg">
 <path d="m276.66129 27.552108h-44.959a0.284 0.284 0 0 0-0.277 0.225l-9.38 44.267a0.283 0.283 0 0 0 0.277 0.342h44.959a0.284 0.284 0 0 0 0.277-0.225l9.38-44.267a0.283 0.283 0 0 0-0.277-0.342zm-20.162 34.112a0.28 0.28 0 0 1-0.273 0.222h-18.4a0.279 0.279 0 0 1-0.273-0.337l4.932-23.274a0.28 0.28 0 0 1 0.273-0.222h18.4c0.178 0 0.31 0.164 0.273 0.337zm-33.227-29.101-5.087-4.93a0.29 0.29 0 0 0-0.201-0.081h-38.714a0.288 0.288 0 0 0-0.282 0.229l-9.378 44.257a0.288 0.288 0 0 0 0.282 0.348h38.616c0.06 0 0.118-0.019 0.167-0.054l7.338-5.231a0.287 0.287 0 0 0 0.115-0.175l2.584-12.193a0.288 0.288 0 0 0-0.081-0.267l-5.29-5.127a0.29 0.29 0 0 1 0.033-0.442l7.653-5.455a0.287 0.287 0 0 0 0.115-0.175l2.212-10.438a0.287 0.287 0 0 0-0.082-0.266zm-19.419 29.093a0.289 0.289 0 0 1-0.282 0.229h-18.734a0.288 0.288 0 0 1-0.282-0.349l1.306-6.14a0.288 0.288 0 0 1 0.282-0.228h18.726c0.183 0 0.32 0.169 0.282 0.348zm3.627-17.116a0.289 0.289 0 0 1-0.282 0.229h-18.734a0.289 0.289 0 0 1-0.282-0.349l1.306-6.14a0.288 0.288 0 0 1 0.282-0.228h18.726c0.183 0 0.32 0.169 0.282 0.348zm-156.197003 7.808-4.199 19.815a0.28 0.28 0 0 1-0.274 0.222h-45.2590003a0.28 0.28 0 0 1-0.274-0.339l9.3810003-44.272a0.28 0.28 0 0 1 0.274-0.222h12.843a0.28 0.28 0 0 1 0.274 0.339l-7.13 33.651a0.28 0.28 0 0 0 0.274 0.339h18.426a0.28 0.28 0 0 0 0.274-0.222l7.18-33.883a0.28 0.28 0 0 1 0.274-0.222h12.843a0.28 0.28 0 0 1 0.274 0.339l-2.69 12.694a0.28 0.28 0 0 0 0.392 0.313l84.590003-38.8729998c0.266-0.122 0.518 0.194 0.34 0.426l-48.702003 63.4499998c-0.178 0.232 0.074 0.548 0.34 0.426l30.373003-13.957a0.278 0.278 0 0 0 0.157-0.197l5.17-24.4a0.28 0.28 0 0 1 0.274-0.222h44.611a0.28 0.28 0 0 1 0.274 0.339l-2.106 9.939a0.28 0.28 0 0 1-0.274 0.222h-31.456a0.28 0.28 0 0 0-0.274 0.222l-1.304 6.156a0.28 0.28 0 0 0 0.274 0.339h20.307a0.28 0.28 0 0 1 0.274 0.339l-2.085 9.839a0.28 0.28 0 0 1-0.274 0.222h-20.545a0.28 0.28 0 0 0-0.274 0.222l-1.304 6.156a0.28 0.28 0 0 0 0.274 0.339h31.218a0.28 0.28 0 0 1 0.274 0.339l-2.106 9.939a0.28 0.28 0 0 1-0.274 0.222h-44.611a0.28 0.28 0 0 1-0.274-0.339l1.717-8.103a0.28 0.28 0 0 0-0.392-0.313l-84.729003 38.931002c-0.263 0.121-0.513-0.192-0.336-0.421l48.71-63.461002c0.178-0.232-0.074-0.548-0.34-0.426l-30.242 13.896a0.282 0.282 0 0 0-0.158 0.197zm222.245003 19.689 1.215-5.733a0.288 0.288 0 0 1 0.083-0.149l16.838-16.023a0.29 0.29 0 0 0 0.046-0.362l-9.983-16.037a0.287 0.287 0 0 1-0.037-0.212l1.216-5.738a0.29 0.29 0 0 1 0.283-0.229h13.044a0.29 0.29 0 0 1 0.245 0.135l6.828 10.889a0.289 0.289 0 0 0 0.444 0.056l11.56-11a0.29 0.29 0 0 1 0.199-0.08h12.966a0.29 0.29 0 0 1 0.283 0.349l-1.196 5.645a0.288 0.288 0 0 1-0.083 0.149l-16.86 16.109a0.288 0.288 0 0 0-0.045 0.362l10.001 15.948a0.29 0.29 0 0 1 0.038 0.213l-1.235 5.826a0.29 0.29 0 0 1-0.283 0.229h-13.044a0.29 0.29 0 0 1-0.245-0.135l-6.828-10.889a0.289 0.289 0 0 0-0.444-0.056l-11.56 11a0.29 0.29 0 0 1-0.199 0.08h-12.966a0.287 0.287 0 0 1-0.281-0.347z" fill="#040006"/>
 <linearGradient id="a" x1="248.22099" x2="248.22099" y1="70.387001" y2="25.554001" gradientTransform="translate(-.00071332416 -.00189177)" gradientUnits="userSpaceOnUse">
  <stop stop-color="#d9d9d9" offset="0"/>
  <stop stop-color="#bfbfbf" offset=".1"/>
  <stop stop-color="#d9d9d9" offset=".2"/>
  <stop stop-color="#bfbfbf" offset=".3"/>
  <stop stop-color="#d9d9d9" offset=".4"/>
  <stop stop-color="#bfbfbf" offset=".5"/>
  <stop stop-color="#d9d9d9" offset=".6"/>
  <stop stop-color="#bfbfbf" offset=".7"/>
  <stop stop-color="#d9d9d9" offset=".8"/>
  <stop stop-color="#bfbfbf" offset=".9"/>
  <stop stop-color="#d9d9d9" offset="1"/>
 </linearGradient>
 <path d="m275.39029 25.552108h-44.959a0.284 0.284 0 0 0-0.277 0.225l-9.38 44.267a0.283 0.283 0 0 0 0.277 0.342h44.959a0.284 0.284 0 0 0 0.277-0.225l9.38-44.267a0.283 0.283 0 0 0-0.277-0.342zm-20.162 34.112a0.28 0.28 0 0 1-0.273 0.222h-18.4a0.279 0.279 0 0 1-0.273-0.337l4.932-23.274a0.28 0.28 0 0 1 0.273-0.222h18.4c0.178 0 0.31 0.164 0.273 0.337z" fill="url(#a)"/>
 <linearGradient id="b" x1="195.213" x2="195.213" y1="70.387001" y2="25.554001" gradientTransform="translate(-.00071332416 -.00189177)" gradientUnits="userSpaceOnUse">
  <stop stop-color="#d9d9d9" offset="0"/>
  <stop stop-color="#bfbfbf" offset=".1"/>
  <stop stop-color="#d9d9d9" offset=".2"/>
  <stop stop-color="#bfbfbf" offset=".3"/>
  <stop stop-color="#d9d9d9" offset=".4"/>
  <stop stop-color="#bfbfbf" offset=".5"/>
  <stop stop-color="#d9d9d9" offset=".6"/>
  <stop stop-color="#bfbfbf" offset=".7"/>
  <stop stop-color="#d9d9d9" offset=".8"/>
  <stop stop-color="#bfbfbf" offset=".9"/>
  <stop stop-color="#d9d9d9" offset="1"/>
 </linearGradient>
 <path d="m222.00129 30.563108-5.087-4.93a0.29 0.29 0 0 0-0.201-0.081h-38.714a0.288 0.288 0 0 0-0.282 0.229l-9.378 44.257a0.288 0.288 0 0 0 0.282 0.348h38.616c0.06 0 0.118-0.019 0.167-0.054l7.338-5.231a0.287 0.287 0 0 0 0.115-0.175l2.584-12.193a0.288 0.288 0 0 0-0.081-0.267l-5.29-5.127a0.29 0.29 0 0 1 0.033-0.442l7.653-5.455a0.287 0.287 0 0 0 0.115-0.175l2.212-10.438a0.287 0.287 0 0 0-0.082-0.266zm-19.419 29.093a0.289 0.289 0 0 1-0.282 0.229h-18.734a0.288 0.288 0 0 1-0.282-0.349l1.306-6.14a0.288 0.288 0 0 1 0.282-0.228h18.726c0.183 0 0.32 0.169 0.282 0.348zm3.627-17.116a0.289 0.289 0 0 1-0.282 0.229h-18.734a0.289 0.289 0 0 1-0.282-0.349l1.306-6.14a0.288 0.288 0 0 1 0.282-0.228h18.726c0.183 0 0.32 0.169 0.282 0.348z" fill="url(#b)"/>
 <linearGradient id="c" x1="85.165001" x2="85.165001" y1="100.58" gradientTransform="translate(-.00071332416 -.00189177)" gradientUnits="userSpaceOnUse">
  <stop stop-color="#d9d9d9" offset="0"/>
  <stop stop-color="#bfbfbf" offset=".1"/>
  <stop stop-color="#d9d9d9" offset=".2"/>
  <stop stop-color="#bfbfbf" offset=".3"/>
  <stop stop-color="#d9d9d9" offset=".4"/>
  <stop stop-color="#bfbfbf" offset=".5"/>
  <stop stop-color="#d9d9d9" offset=".6"/>
  <stop stop-color="#bfbfbf" offset=".7"/>
  <stop stop-color="#d9d9d9" offset=".8"/>
  <stop stop-color="#bfbfbf" offset=".9"/>
  <stop stop-color="#d9d9d9" offset="1"/>
 </linearGradient>
 <path d="m50.013287 50.348108-4.199 19.815a0.28 0.28 0 0 1-0.274 0.222h-45.26000032a0.28 0.28 0 0 1-0.274-0.339l9.38100002-44.272a0.28 0.28 0 0 1 0.274-0.222h12.8430003a0.28 0.28 0 0 1 0.274 0.339l-7.13 33.651a0.28 0.28 0 0 0 0.274 0.339h18.427a0.28 0.28 0 0 0 0.274-0.222l7.18-33.883a0.28 0.28 0 0 1 0.274-0.222h12.843a0.28 0.28 0 0 1 0.274 0.339l-2.69 12.694a0.28 0.28 0 0 0 0.392 0.313l84.590003-38.87299977c0.266-0.122 0.518 0.194 0.34 0.426l-48.703003 63.44999977c-0.178 0.232 0.074 0.548 0.34 0.426l30.373003-13.957a0.278 0.278 0 0 0 0.157-0.197l5.17-24.4a0.28 0.28 0 0 1 0.274-0.222h44.611a0.28 0.28 0 0 1 0.274 0.339l-2.106 9.939a0.28 0.28 0 0 1-0.274 0.222h-31.456a0.28 0.28 0 0 0-0.274 0.222l-1.304 6.156a0.28 0.28 0 0 0 0.274 0.339h20.307a0.28 0.28 0 0 1 0.274 0.339l-2.085 9.839a0.28 0.28 0 0 1-0.274 0.222h-20.545a0.28 0.28 0 0 0-0.274 0.222l-1.304 6.156a0.28 0.28 0 0 0 0.274 0.339h31.218a0.28 0.28 0 0 1 0.274 0.339l-2.106 9.939a0.28 0.28 0 0 1-0.274 0.222h-44.611a0.28 0.28 0 0 1-0.274-0.339l1.717-8.103a0.28 0.28 0 0 0-0.392-0.313l-84.705003 38.920002c-0.27 0.124-0.525-0.196-0.344-0.431l48.694-63.440002c0.178-0.232-0.074-0.548-0.34-0.426l-30.242 13.896a0.278 0.278 0 0 0-0.157 0.197z" fill="url(#c)"/>
 <linearGradient id="d" x1="299.87201" x2="299.87201" y1="70.387001" y2="25.554001" gradientTransform="translate(-.00071332416 -.00189177)" gradientUnits="userSpaceOnUse">
  <stop stop-color="#d9d9d9" offset="0"/>
  <stop stop-color="#bfbfbf" offset=".1"/>
  <stop stop-color="#d9d9d9" offset=".2"/>
  <stop stop-color="#bfbfbf" offset=".3"/>
  <stop stop-color="#d9d9d9" offset=".4"/>
  <stop stop-color="#bfbfbf" offset=".5"/>
  <stop stop-color="#d9d9d9" offset=".6"/>
  <stop stop-color="#bfbfbf" offset=".7"/>
  <stop stop-color="#d9d9d9" offset=".8"/>
  <stop stop-color="#bfbfbf" offset=".9"/>
  <stop stop-color="#d9d9d9" offset="1"/>
 </linearGradient>
 <path d="m272.25729 70.037108 1.215-5.733a0.288 0.288 0 0 1 0.083-0.149l16.838-16.023a0.29 0.29 0 0 0 0.046-0.362l-9.983-16.037a0.287 0.287 0 0 1-0.037-0.212l1.216-5.738a0.29 0.29 0 0 1 0.283-0.229h13.044a0.29 0.29 0 0 1 0.245 0.135l6.828 10.889a0.289 0.289 0 0 0 0.444 0.056l11.56-11a0.29 0.29 0 0 1 0.199-0.08h12.966a0.29 0.29 0 0 1 0.283 0.349l-1.196 5.645a0.288 0.288 0 0 1-0.083 0.149l-16.857 16.111a0.288 0.288 0 0 0-0.045 0.362l10.001 15.948a0.29 0.29 0 0 1 0.038 0.213l-1.235 5.826a0.29 0.29 0 0 1-0.283 0.229h-13.044a0.29 0.29 0 0 1-0.245-0.135l-6.828-10.889a0.289 0.289 0 0 0-0.444-0.056l-11.56 11a0.29 0.29 0 0 1-0.199 0.08h-12.966a0.29 0.29 0 0 1-0.284-0.349z" fill="url(#d)"/>
</svg>
