<svg width="347.86737" height="100.58012" version="1.1" viewBox="0 0 347.86738 100.58013" xmlns="http://www.w3.org/2000/svg">
 <path d="m137.67597 0.00956136c-0.0582-0.01609373-0.1249-0.01292184-0.1914 0.01757813l-84.589848 38.87304751a0.28 0.28 0 0 1-0.390625-0.3125l2.689453-12.695313a0.28 0.28 0 0 0-0.273437-0.33789h-12.84375a0.28 0.28 0 0 0-0.273437 0.220703l-7.181641 33.882812a0.28 0.28 0 0 1-0.273438 0.222656h-18.425781a0.28 0.28 0 0 1-0.27539-0.33789l7.130859-33.652344a0.28 0.28 0 0 0-0.273438-0.33789h-12.8437501a0.28 0.28 0 0 0-0.2734375 0.220703l-9.38085935 44.273437a0.28 0.28 0 0 0 0.2734375 0.337891h45.25976645a0.28 0.28 0 0 0 0.273437-0.222657l4.199219-19.814453a0.278 0.278 0 0 1 0.158203-0.197265l30.240234-13.894532c0.266-0.121999 0.519797 0.193782 0.341797 0.425782l-48.695312 63.439453c-0.181 0.235 0.07375 0.55564 0.34375 0.43164l84.705078-38.919921a0.28 0.28 0 0 1 0.39258 0.3125l-1.7168 8.103515a0.28 0.28 0 0 0 0.27344 0.337891h44.61133a0.28 0.28 0 0 0 0.27344-0.220703l2.10742-9.939453a0.28 0.28 0 0 0-0.27539-0.339844h-31.2168a0.28 0.28 0 0 1-0.27539-0.337891l1.30469-6.15625a0.28 0.28 0 0 1 0.27344-0.222656h20.54492a0.28 0.28 0 0 0 0.27539-0.222656l2.08398-9.837891a0.28 0.28 0 0 0-0.27344-0.339844h-20.30664a0.28 0.28 0 0 1-0.27539-0.33789l1.30469-6.15625a0.28 0.28 0 0 1 0.27344-0.222656h31.45703a0.28 0.28 0 0 0 0.27344-0.222657l2.10547-9.9375a0.28 0.28 0 0 0-0.27344-0.339843h-44.61133a0.28 0.28 0 0 0-0.27344 0.222656l-5.16992 24.40039a0.278 0.278 0 0 1-0.15625 0.195313l-30.373048 13.957031c-0.266 0.122-0.519797-0.193781-0.341797-0.425781l48.703125-63.44921927c0.1335-0.17399982 0.0263-0.39507817-0.14844-0.44335937zm194.5 25.29492264-0.375 1.576171h2.73633l-1.14648 5.550782h1.625l1.14648-5.550782h2.73828l0.375-1.576171zm8.14844 0.0078-1.25586 7.125h1.74024l0.84765-4.777344 1.54492 1.871094h0.26563l2.24609-1.871094-0.87304 4.777344h1.77148l1.25586-7.125h-1.53711l-2.60156 1.84375-1.85352-1.84375zm-162.32617 0.240247a0.288 0.288 0 0 0-0.28125 0.228515l-9.37891 44.255859a0.288 0.288 0 0 0 0.28125 0.34961h38.61719c0.06 0 0.11702-0.01969 0.16602-0.05469l7.33789-5.230468a0.287 0.287 0 0 0 0.11523-0.175782l2.58399-12.193359a0.288 0.288 0 0 0-0.0801-0.265625l-5.29102-5.126953a0.29 0.29 0 0 1 0.0332-0.443359l7.65429-5.455079a0.287 0.287 0 0 0 0.11328-0.173828l2.21289-10.439453a0.287 0.287 0 0 0-0.082-0.265625l-5.08789-4.929687a0.29 0.29 0 0 0-0.19922-0.08008zm52.43164 0a0.284 0.284 0 0 0-0.27734 0.224609l-9.37891 44.267578a0.283 0.283 0 0 0 0.27734 0.341797h44.95899a0.284 0.284 0 0 0 0.27539-0.226563l9.38086-44.265625a0.283 0.283 0 0 0-0.27735-0.341796zm51.48828 2e-3a0.29 0.29 0 0 0-0.2832 0.228515l-1.2168 5.738282a0.287 0.287 0 0 0 0.0371 0.210937l9.98242 16.037109a0.29 0.29 0 0 1-0.0449 0.363282l-16.8379 16.021437a0.288 0.288 0 0 0-0.084 0.150391l-1.21485 5.732421a0.29 0.29 0 0 0 0.28516 0.34961h12.96484a0.29 0.29 0 0 0 0.19922-0.08008l11.56055-11a0.289 0.289 0 0 1 0.44336 0.05469l6.82812 10.890625a0.29 0.29 0 0 0 0.24414 0.134766h13.04492a0.29 0.29 0 0 0 0.28321-0.230469l1.23437-5.826172a0.29 0.29 0 0 0-0.0371-0.21289l-10.00194-15.947267a0.288 0.288 0 0 1 0.0449-0.361328l16.85742-16.111328a0.288 0.288 0 0 0 0.084-0.148438l1.19531-5.646484a0.29 0.29 0 0 0-0.2832-0.347656h-12.9668a0.29 0.29 0 0 0-0.19922 0.08008l-11.55859 11a0.289 0.289 0 0 1-0.44531-0.05664l-6.82813-10.888672a0.29 0.29 0 0 0-0.24414-0.134765zm-93.41992 10.498h18.72656c0.183 0 0.31925 0.168656 0.28125 0.347656l-1.29687 6.140625a0.289 0.289 0 0 1-0.28321 0.228515h-18.73437a0.289 0.289 0 0 1-0.28125-0.349609l1.30664-6.140625a0.288 0.288 0 0 1 0.28125-0.226562zm52.98828 0h18.40039c0.178 0 0.30849 0.16489 0.27149 0.33789l-4.93164 23.273438a0.28 0.28 0 0 1-0.27344 0.222656h-18.39844a0.279 0.279 0 0 1-0.27344-0.337891l4.93164-23.273437a0.28 0.28 0 0 1 0.27344-0.222656zm-56.61523 17.115234h18.72656c0.183 0 0.31925 0.168656 0.28125 0.347656l-1.29883 6.140625a0.289 0.289 0 0 1-0.28125 0.228516h-18.73437a0.288 0.288 0 0 1-0.28125-0.34961l1.30664-6.138671a0.288 0.288 0 0 1 0.28125-0.228516z"/>
</svg>
