<svg width="44" height="66" xmlns="http://www.w3.org/2000/svg"><path d="M 28.736691,0 26.886622,0.475973 C 17.611858,2.850325 17.339206,2.96364 7.9674207,3.545051 l -1.5293378,0.09519 0.02738,1.488846 c 0.1550822,8.625273 0.1583064,19.501294 0,29.582709 l -0.02738,1.72112 1.7601076,-0.140889 C 18.823948,35.440835 19.716188,35.246923 27.973978,31.467564 l 0.848763,-0.384588 0.06649,-0.910061 c 0.828206,-10.785112 0.795305,-18.633062 0,-28.314714 z m -2.95698,3.937253 c 0.613824,8.376551 0.639291,15.642581 -0.04694,25.059056 -6.397557,2.918508 -8.356065,3.359382 -16.0639148,3.986755 0.1243622,-9.092386 0.1257039,-18.5479 0,-26.4641303 C 16.429275,6.072554 19.367774,5.562724 25.779709,3.937253 Z m 13.18125,33.641812 -1.024774,0.37697 C 25.527862,42.556518 2.209913,44.170346 2.209913,44.170346 l -1.4472,0.09139 L 0,66.000401 1.728817,65.928051 C 15.362125,65.347756 22.08155,64.23871 40.505944,59.641391 l 0.410693,-0.102802 0.305084,-0.285583 c 0.841309,-0.789864 1.217473,-1.721872 1.701439,-3.107156 0.483967,-1.385283 0.890809,-3.128135 1.028685,-5.083397 0.275752,-3.910528 -0.566433,-8.733906 -4.259462,-12.695166 z"/></svg>

