<svg width="44" height="66" xmlns="http://www.w3.org/2000/svg"><path d="m 28.720171,0 -1.81393,0.4639805 C 17.622472,2.8369831 17.337974,2.9548971 7.956396,3.5360196 l -1.508761,0.092796 0.02685,1.5115994 c 0.155212,8.619449 0.158455,19.490326 0,29.565324 l -0.02685,1.738706 1.733366,-0.136753 c 10.63605,-0.850709 11.509449,-1.038524 19.775024,-4.815629 l 0.847153,-0.388278 0.0708,-0.927961 c 0.829213,-10.781608 0.796306,-18.631197 0,-28.3101341 z m -2.914985,3.965812 c 0.612794,8.356137 0.643008,15.60749 -0.0415,24.998779 -6.419887,2.923909 -8.372334,3.364966 -16.127631,3.995116 0.124109,-9.073037 0.125371,-18.502817 0,-26.4053724 C 16.431821,6.1068088 19.347378,5.6011769 25.805186,3.965812 Z M 27.29856,1.9955663 C 18.016678,4.368087 17.450554,4.531148 8.054696,5.1131551 c 0.155636,8.6429719 0.158742,19.5238849 0,29.6170899 10.633594,-0.850513 10.988725,-0.904046 19.243864,-4.676383 0.824507,-10.720428 0.79093,-18.444705 0,-28.0582957 z m 11.663121,35.5624307 -0.98631,0.366301 C 25.539187,42.528019 2.194784,44.13431 2.194784,44.13431 L 0.766587,44.22711 0,66.000004 1.706511,65.926743 c 13.64396,-0.579858 20.36167,-1.686367 38.802993,-6.280833 l 0.400384,-0.09769 0.297845,-0.283272 c 0.841089,-0.788445 1.225424,-1.727111 1.711394,-3.115995 0.485971,-1.388884 0.894229,-3.13829 1.032696,-5.098901 0.276932,-3.921222 -0.574492,-8.762455 -4.272381,-12.722833 z m -1.064434,3.650794 c 2.472454,3.052166 3.116741,6.554881 2.900338,9.619048 -0.116611,1.651178 -0.470389,3.150329 -0.864242,4.275946 -0.340458,0.973016 -0.713538,1.486376 -0.766588,1.601954 -16.907955,4.198484 -23.848369,5.314288 -35.883124,5.90232 l 0.544423,-15.46276 c 2.210823,-0.147973 21.291012,-1.538805 34.069193,-5.936508 z"/></svg>
