<svg width="44" height="44" xmlns="http://www.w3.org/2000/svg"><path d="M 22.003906,0 C 26.409481,0 30,3.5928728 30,8 30,12.407125 26.409481,16 22.003906,16 17.598334,16 14,12.408396 14,8 14,3.5916013 17.598335,0 22.003906,0 Z m 0,2 C 18.678923,2 16,4.6735991 16,8 c 0,3.326397 2.678923,6 6.003906,6 C 25.328893,14 28,11.327669 28,8 28,4.6723276 25.328893,2 22.003906,2 Z m 14,12 C 40.40948,14 44,17.592872 44,22 44,26.407125 40.40948,30 36.003906,30 31.598333,30 28,26.408396 28,22 c 0,-4.408399 3.598333,-8 8.003906,-8 z M 8,14 c 4.419891,0 8,3.586441 8,8.003906 C 16,26.421372 12.419891,30 8,30 3.580114,30 0,26.421372 0,22.003906 0,17.586441 3.580114,14 8,14 Z m 28.003906,2 C 32.678921,16 30,18.673598 30,22 c 0,3.326397 2.678922,6 6.003906,6 C 39.328892,28 42,25.327669 42,22 42,18.672327 39.328892,16 36.003906,16 Z m -14,12 C 26.409481,28 30,31.592872 30,36 30,40.407125 26.409481,44 22.003906,44 17.598334,44 14,40.408396 14,36 c 0,-4.408399 3.598335,-8 8.003906,-8 z m 0,2 C 18.678923,30 16,32.673598 16,36 c 0,3.326397 2.678923,6 6.003906,6 C 25.328893,42 28,39.327669 28,36 28,32.672327 25.328893,30 22.003906,30 Z"/></svg>
