<svg width="44" height="44" xmlns="http://www.w3.org/2000/svg"><path d="m 22.004884,0 c -4.417565,0 -8.00555,3.5806822 -8.00555,8.0006658 0,4.4199892 3.587985,8.0006652 8.00555,8.0006652 4.417563,0 7.995782,-3.580676 7.995782,-8.0006652 C 30.000666,3.5806822 26.422447,0 22.004884,0 Z M 8.0006658,13.999334 C 3.5921693,13.999334 0,17.599212 0,22.004883 c 0,4.40567 3.593441,7.995782 8.0006658,7.995782 4.4072222,0 8.0006652,-3.590111 8.0006652,-7.995782 0,-4.405672 -3.592172,-8.005549 -8.0006652,-8.005549 z m 28.0011092,0 c -4.408495,0 -8.000664,3.599878 -8.000664,8.005549 0,4.40567 3.593441,7.995782 8.000664,7.995782 C 40.408997,30.000665 44,26.410554 44,22.004883 44,17.599211 40.410269,13.999334 36.001775,13.999334 Z M 8.0006658,16.001331 c 3.3264702,0 5.9986682,2.678494 5.9986682,6.003553 0,3.325059 -2.670926,5.996227 -5.9986682,5.996227 -3.3277461,0 -6.0011097,-2.671168 -6.0011097,-5.996227 0,-3.325061 2.6746351,-6.003552 6.0011097,-6.003553 z m 28.0011092,0 c 3.326471,0 5.998669,2.678494 5.998669,6.003553 0,3.325059 -2.670926,5.996227 -5.998669,5.996227 -3.327745,0 -6.00111,-2.671168 -6.00111,-5.996227 0,-3.325061 2.674637,-6.003552 6.00111,-6.003553 z M 22,28.00111 c -4.408496,0 -8.000666,3.597437 -8.000666,8.003106 C 13.999334,40.409889 17.592776,44 22,44 c 4.407223,0 8.000666,-3.590111 8.000666,-7.995784 0,-4.40567 -3.592172,-8.003105 -8.000666,-8.003106 z m 0,1.999555 c 3.326471,0 6.001111,2.678496 6.001111,6.003551 0,3.32506 -2.673369,5.996227 -6.001111,5.996227 -3.327746,0 -5.998669,-2.671166 -5.998669,-5.996227 0,-3.325058 2.672194,-6.003551 5.998669,-6.003551 z"/></svg>
