<svg width="44" height="66" xmlns="http://www.w3.org/2000/svg"><path d="m 15.279829,0 1.81393,0.4639805 c 9.283769,2.3730026 9.568267,2.4909166 18.949845,3.0720391 l 1.508761,0.092796 -0.02685,1.5115994 c -0.155212,8.619449 -0.158455,19.490326 0,29.565324 l 0.02685,1.738706 -1.733366,-0.136753 C 25.182949,35.456983 24.30955,35.269168 16.043975,31.492063 l -0.847153,-0.388278 -0.0708,-0.927961 c -0.829213,-10.781608 -0.796306,-18.631197 0,-28.3101341 z m 2.914985,3.965812 c -0.612794,8.356137 -0.643008,15.60749 0.0415,24.998779 6.419887,2.923909 8.372334,3.364966 16.127631,3.995116 -0.124109,-9.073037 -0.125371,-18.502817 0,-26.4053724 C 27.568179,6.1068088 24.652622,5.6011769 18.194814,3.965812 Z M 16.70144,1.9955663 c 9.281882,2.3725207 9.848006,2.5355817 19.243864,3.1175888 -0.155636,8.6429719 -0.158742,19.5238849 0,29.6170899 C 25.31171,33.879732 24.956579,33.826199 16.70144,30.053862 c -0.824507,-10.720428 -0.79093,-18.444705 0,-28.0582957 z M 5.0383189,37.557997 6.024629,37.924298 c 12.436184,4.603721 35.780587,6.210012 35.780587,6.210012 l 1.428197,0.0928 L 44,66.000004 42.293489,65.926743 C 28.649529,65.346885 21.931819,64.240376 3.4904959,59.64591 L 3.090112,59.54822 2.792267,59.264948 C 1.951178,58.476503 1.566843,57.537837 1.080873,56.148953 0.59490196,54.760069 0.18664396,53.010663 0.04817696,51.050052 -0.22875504,47.12883 0.62266896,42.287597 4.3205579,38.327219 Z m 1.0644341,3.650794 c -2.4724541,3.052166 -3.116741,6.554881 -2.900338,9.619048 0.116611,1.651178 0.4703889,3.150329 0.8642419,4.275946 0.340458,0.973016 0.713538,1.486376 0.766588,1.601954 16.9079551,4.198484 23.8483691,5.314288 35.8831241,5.90232 L 40.171946,47.145299 C 37.961123,46.997326 18.880934,45.606494 6.102753,41.208791 Z"/></svg>
