<svg version="1.1" viewBox="0 0 391.48 100" xml:space="preserve" xmlns="http://www.w3.org/2000/svg">
  <path d="m313.72 0-39.092 36.498h0.084l-0.084 0.08789h0.25782c6.199 2.334 11.634 5.1202 16.301 8.3652 11.096 7.745 17.073 17.135 17.926 28.178 0.171-1.647 0.25781-3.2693 0.25781-4.8613 0-10.753-3.0178-19.571-9.0508-26.455-3.472-3.981-7.4552-6.8841-11.951-8.7031 8.195-10.581 16.644-21.618 25.352-33.109zm-118.22 2.4004-5.0371 13.152c-0.90999 2.163-2.7868 6.5484-5.6328 13.152-0.739 1.767-3.1858 7.2045-7.3398 16.314-2.788 6.093-5.148 10.848-7.084 14.264-3.585 6.491-6.6298 10.304-9.1328 11.443h13.656c-2.221-0.397-3.5008-1.6798-3.8438-3.8398l0.51367-2.9883c1.308-4.496 2.9292-8.3903 4.8672-11.695 1.818-2.446 5.1184-3.668 9.8984-3.668-3.622-0.171-5.4316-1.5646-5.4316-4.1836 0-0.74 0.1987-1.6225 0.5957-2.6465l2.8965-7.4258c0.567-1.422 1.871-4.2112 3.918-8.3672 1.93-3.867 3.3208-5.5731 4.1738-5.1191 1.08 0.626 2.6675 3.3843 4.7695 8.2773 1.079 2.729 2.7534 6.8 5.0274 12.207 0.452 1.082 0.68164 1.9365 0.68164 2.5625 0 1.994-1.4757 3.4136-4.4277 4.2676l-1.4473 0.42773c0.114 0 0.42745 0.02894 0.93945 0.08594 1.934 0.114 3.4694 0.22884 4.6074 0.33984 3.244 1.024 5.8335 3.927 7.7695 8.707l3.416 8.3652c0.341 2.958-1.0546 4.5244-4.1836 4.6934h20.061c-3.131-1.535-5.8614-4.8354-8.1934-9.8984-4.668-10.016-8.5074-18.18-11.523-24.496-0.343-0.74-1.1975-2.5589-2.5625-5.4609h0.0859zm136.14 0c2.522 0.856 4.271 3.3017 5.248 7.3457v40.314c0 5.522 2.7017 10.334 8.0977 14.434 4.885 3.815 10.168 5.8095 15.848 5.9805-3.695-0.23-6.9367-1.9669-9.7207-5.2109-1.254-1.48-2.2494-3.0473-2.9824-4.6973-0.97-5.295-1.4531-8.7949-1.4531-10.504v-5.8965c0-2.219 0.79568-3.9559 2.3887-5.2109 2.503-1.593 6.3097-2.4755 11.428-2.6445-7.735-0.343-11.629-0.79724-11.682-1.3652-1.422-1.14-2.1328-3.0207-2.1328-5.6387v-19.305c0-4.27 1.6705-6.8046 5.0215-7.6016zm33.123 0c6.486 1.369 11.694 3.8485 15.617 7.4395 4.385 4.047 6.9127 9.2345 7.5977 15.562l-0.084-23.002zm-233.32 0.44336c4.138 1.257 5.9784 3.6225 5.5234 7.1035v45.355c0 3.026-0.42915 5.3945-1.2852 7.1035-3.257 6.449-7.9147 9.7867-13.971 10.014 4.731-0.115 8.7776-1.0273 12.141-2.7363 1.768-0.912 3.7923-2.3672 6.0723-4.3652 4.73-4.164 7.0977-9.6406 7.0977-16.432v-38.939c0.506-3.993 2.2869-6.3585 5.3359-7.1035zm-46.43 0.00195c2.844 0.798 4.5182 3.1831 5.0312 7.1621l2e-3 38.795c0 6.083 2.3889 11.595 7.1699 16.541 4.325 4.49 10.387 6.8472 18.182 7.0762-6.203-0.286-10.899-3.6105-14.084-9.9785-0.799-2.273-1.1953-4.9726-1.1953-8.0996v-44.162c-0.455-3.467 1.4208-5.911 5.6328-7.334zm161.79 0.0918c3.085 0.683 4.6289 2.9581 4.6289 6.8301v54.045c-0.403 3.758-1.9738 5.9762-4.7168 6.6602h19.119c-3.195-0.683-4.7969-2.9022-4.7969-6.6602v-18.355c0-5.065 2.402-8.1137 7.207-9.1367-4.805-1.537-7.207-4.1235-7.207-7.7695v-19.041c0.915-3.871 2.5428-6.0593 4.8828-6.5723zm-198.06 0.61523c4.95 2.848 8.8474 6.6176 11.693 11.311 2.844 4.694 4.2676 9.8562 4.2676 15.49 0 8.251-2.6715 15.277-8.0215 21.082-3.813 4.097-8.0228 6.7425-12.633 7.9355-1.082 0.287-3.0726 0.73919-5.9766 1.3672v-8.793c0-1.194 0.08481-2.2462 0.25781-3.1582 0.34-1.82 1.563-2.9012 3.668-3.2422 0.057-0.114-0.11277-0.17188-0.50977-0.17188h-15.449c0.169 0 0.31378 0.05788 0.42578 0.17188 1.765 0.284 2.8471 1.3662 3.2441 3.2422 0.056 1.137 0.08398 2.1633 0.08398 3.0723v8.8789c-1.309-0.054-3.1858-0.51319-5.6328-1.3672-4.724-1.136-9.0187-3.8943-12.887-8.2773-3.757-4.208-6.1199-8.7593-7.0859-13.652-0.457-2.333-0.68555-4.695-0.68555-7.084-1e-7 -6.541 1.8499-12.376 5.5469-17.496 2.733-3.755 6.1771-6.8577 10.33-9.3027-3.925 1.423-7.455 3.9846-10.584 7.6816-2.902 3.359-5.0663 7.1416-6.4883 11.352-1.536 4.438-2.3047 8.9873-2.3047 13.652-1e-7 11.152 4.3246 20.315 12.977 27.482 5.006 4.151 10.612 6.542 16.812 7.168v8.9609c0.285 0.797 1.8513 7.5105 4.6973 20.145 0.853-6.031 1.7905-11.411 2.8145-16.133 0.512-2.391 0.76953-3.7537 0.76953-4.0957v-8.791c6.373-0.682 12.122-3.1298 17.244-7.3398 4.949-4.096 8.5618-9.2163 10.84-15.361 1.364-3.64 2.0469-7.6532 2.0469-12.035 0-5.008-0.88349-9.9007-2.6465-14.68-3.415-9.044-9.0185-15.046-16.814-18.012zm342.74 44.982c-7.283 14.172-14.852 21.568-22.701 22.193 5.632 0 9.5574-0.3843 11.775-1.1543 2.218-0.765 4.1556-1.1504 5.8066-1.1504 2.332 0 4.0392 0.76669 5.1192 2.3047z"/>
</svg>
