<svg height="150.848" width="566.929" xmlns="http://www.w3.org/2000/svg"><path d="M79.797 76.046c8.316-9.721 20.664-15.885 34.457-15.885 2.767 0 5.474.262 8.103.734a45.208 45.208 0 0 0 2.742-15.557C125.098 20.299 104.794 0 79.755 0 54.712 0 34.413 20.299 34.413 45.341c0 5.473.975 10.716 2.751 15.57a45.62 45.62 0 0 1 8.179-.75c13.793.002 26.137 6.167 34.454 15.885zm42.559-15.148c-5.442 14.897-18.476 26.131-34.415 29.042a45.264 45.264 0 0 1 2.744 15.563c0 11.251-4.105 21.533-10.886 29.456 8.315 9.721 20.661 15.889 34.454 15.889 25.043 0 45.343-20.301 45.343-45.345 0-22.274-16.065-40.783-37.24-44.605zM71.654 89.949c-15.973-2.884-29.035-14.128-34.49-29.036C16.029 64.764 0 83.257 0 105.503c0 25.044 20.302 45.345 45.342 45.345 13.794 0 26.14-6.168 34.456-15.886-6.78-7.926-10.885-18.208-10.885-29.456a45.27 45.27 0 0 1 2.741-15.557zm0 0a45.432 45.432 0 0 0 16.288-.011 45.289 45.289 0 0 0-8.144-13.895 45.338 45.338 0 0 0-8.144 13.906zm181.542-34.024c0 8.903-3.024 15.729-9.072 20.476-6.048 4.746-14.615 7.119-25.703 7.119h-14.237v38.05h-6.426V29.466h22.553c21.924 0 32.885 8.819 32.885 26.459zm-49.012 22.05h12.663c10.373 0 17.87-1.711 22.49-5.135 4.619-3.423 6.929-8.979 6.929-16.663 0-7.097-2.184-12.357-6.551-15.781-4.369-3.422-11.13-5.134-20.286-5.134h-15.245zm146.47-2.583c0 14.616-3.652 26.177-10.962 34.681-7.31 8.508-17.387 12.76-30.237 12.76-12.812 0-22.869-4.252-30.178-12.76-7.308-8.504-10.961-20.104-10.961-34.807 0-14.656 3.686-26.196 11.056-34.618 7.372-8.42 17.44-12.631 30.208-12.631 12.854 0 22.91 4.232 30.178 12.694 7.263 8.464 10.896 20.024 10.896 34.681zm-75.345 0c0 13.188 2.939 23.381 8.819 30.587 5.879 7.202 14.322 10.805 25.326 10.805 11.088 0 19.562-3.567 25.42-10.711 5.855-7.14 8.787-17.363 8.787-30.681 0-13.271-2.932-23.444-8.787-30.521-5.858-7.077-14.291-10.615-25.295-10.615-10.961 0-19.414 3.569-25.355 10.71-5.944 7.138-8.915 17.282-8.915 30.426zm102.939 6.048v40.13h-6.428V29.466h21.924c11.426 0 19.868 2.11 25.33 6.331 5.459 4.221 8.188 10.574 8.188 19.057 0 6.175-1.627 11.383-4.881 15.624-3.256 4.243-8.196 7.288-14.836 9.137l25.01 41.956h-7.684L401.115 81.44zm0-5.544h17.576c7.77 0 13.797-1.73 18.082-5.196 4.284-3.466 6.428-8.577 6.428-15.341 0-7.014-2.103-12.115-6.299-15.309-4.201-3.19-11.051-4.788-20.543-4.788h-15.244zm94.246 45.674h-6.488V35.514H436.08v-6.048h66.338v6.048h-29.924zm94.435-23.751c0 7.688-2.826 13.777-8.477 18.271-5.648 4.493-13.154 6.74-22.521 6.74-11.256 0-19.887-1.24-25.893-3.72v-6.426c6.637 2.814 15.098 4.223 25.387 4.223 7.563 0 13.557-1.732 17.988-5.195 4.43-3.467 6.645-8.014 6.645-13.643 0-3.482-.734-6.372-2.209-8.661-1.467-2.287-3.859-4.378-7.178-6.269-3.32-1.891-8.188-3.929-14.617-6.111-9.406-3.231-15.904-6.729-19.498-10.486-3.592-3.759-5.387-8.77-5.387-15.026 0-6.887 2.697-12.504 8.098-16.851 5.396-4.349 12.334-6.521 20.818-6.521 8.652 0 16.777 1.639 24.381 4.913l-2.332 5.544c-7.645-3.19-14.951-4.788-21.922-4.788-6.803 0-12.221 1.576-16.252 4.728-4.035 3.148-6.049 7.434-6.049 12.852 0 3.401.617 6.195 1.854 8.379 1.238 2.186 3.27 4.147 6.078 5.892 2.814 1.741 7.646 3.832 14.49 6.269 7.182 2.479 12.578 4.881 16.191 7.213 3.605 2.33 6.244 4.978 7.902 7.938 1.671 2.956 2.503 6.535 2.503 10.735z" fill="#fff"/></svg>