<?xml version="1.0" encoding="utf-8"?>
<!-- Generator: Adobe Illustrator 25.2.1, SVG Export Plug-In . SVG Version: 6.00 Build 0)  -->
<svg version="1.1" id="Layer_1" xmlns="http://www.w3.org/2000/svg" xmlns:xlink="http://www.w3.org/1999/xlink" x="0px" y="0px"
	 viewBox="0 0 3839 624.6" style="enable-background:new 0 0 3839 624.6;" xml:space="preserve">
<style type="text/css">
	.st0{clip-path:url(#SVGID_2_);}
	.st1{fill:url(#SVGID_3_);}
	.st2{fill:#FE0000;}
	.st3{fill:#F36600;}
	.st4{fill:url(#SVGID_4_);}
	.st5{clip-path:url(#SVGID_6_);}
	.st6{fill:url(#SVGID_7_);}
	.st7{fill:url(#SVGID_8_);}
	.st8{fill:url(#SVGID_9_);}
	.st9{fill:url(#SVGID_10_);}
	.st10{clip-path:url(#SVGID_12_);}
	.st11{fill:url(#SVGID_13_);}
	.st12{fill:#E4E4E4;}
	.st13{clip-path:url(#SVGID_15_);}
	.st14{fill:url(#SVGID_16_);}
	.st15{clip-path:url(#SVGID_18_);}
	.st16{fill:url(#SVGID_19_);}
	.st17{fill:url(#SVGID_20_);}
	.st18{fill:#FE0000;stroke:url(#SVGID_21_);stroke-width:3.6108;stroke-miterlimit:10;}
	.st19{fill:#FE0000;stroke:url(#SVGID_22_);stroke-width:3.6108;stroke-miterlimit:10;}
	.st20{fill:#FE0000;stroke:url(#SVGID_23_);stroke-width:3.6108;stroke-miterlimit:10;}
	.st21{fill:url(#SVGID_24_);}
	.st22{fill:url(#SVGID_25_);}
	.st23{fill:#FE0000;stroke:url(#SVGID_26_);stroke-width:3.6108;stroke-miterlimit:10;}
	.st24{fill:#FE0000;stroke:url(#SVGID_27_);stroke-width:3.6108;stroke-miterlimit:10;}
	.st25{fill:#E5E5E5;}
	.st26{fill:#FE0000;stroke:url(#SVGID_28_);stroke-width:3.6108;stroke-miterlimit:10;}
	.st27{fill:url(#SVGID_29_);}
	.st28{fill:url(#SVGID_30_);}
	.st29{fill:#FE0000;stroke:url(#SVGID_31_);stroke-width:3.6108;stroke-miterlimit:10;}
	.st30{fill:#FFE600;}
	.st31{clip-path:url(#SVGID_33_);}
	.st32{fill:url(#SVGID_34_);}
	.st33{fill:url(#SVGID_35_);}
	.st34{clip-path:url(#SVGID_37_);}
	.st35{fill:url(#SVGID_38_);}
	.st36{fill:url(#SVGID_39_);}
	.st37{fill:url(#SVGID_40_);}
	.st38{fill:url(#SVGID_41_);}
	.st39{clip-path:url(#SVGID_43_);}
	.st40{fill:url(#SVGID_44_);}
	.st41{clip-path:url(#SVGID_46_);}
	.st42{fill:url(#SVGID_47_);}
	.st43{fill:url(#SVGID_48_);}
	.st44{fill:#FE0000;stroke:url(#SVGID_49_);stroke-width:3.6108;stroke-miterlimit:10;}
	.st45{fill:#FE0000;stroke:url(#SVGID_50_);stroke-width:3.6108;stroke-miterlimit:10;}
	.st46{fill:#FE0000;stroke:url(#SVGID_51_);stroke-width:3.6108;stroke-miterlimit:10;}
	.st47{fill:url(#SVGID_52_);}
	.st48{fill:#FFF200;}
	.st49{fill:url(#SVGID_53_);}
	.st50{fill:#FE0000;stroke:url(#SVGID_54_);stroke-width:3.6108;stroke-miterlimit:10;}
	.st51{fill:#FE0000;stroke:url(#SVGID_55_);stroke-width:3.6108;stroke-miterlimit:10;}
	.st52{fill:#FE0000;stroke:url(#SVGID_56_);stroke-width:3.6108;stroke-miterlimit:10;}
	.st53{fill:url(#SVGID_57_);}
	.st54{fill:#FEEE00;}
	.st55{fill:url(#SVGID_58_);}
	.st56{fill:#FE0000;stroke:url(#SVGID_59_);stroke-width:3.6108;stroke-miterlimit:10;}
	.st57{clip-path:url(#SVGID_61_);}
	.st58{fill:url(#SVGID_62_);}
	.st59{fill:url(#SVGID_63_);}
	.st60{clip-path:url(#SVGID_65_);}
	.st61{fill:url(#SVGID_66_);}
	.st62{fill:url(#SVGID_67_);}
	.st63{fill:url(#SVGID_68_);}
	.st64{fill:url(#SVGID_69_);}
	.st65{clip-path:url(#SVGID_71_);}
	.st66{fill:url(#SVGID_72_);}
	.st67{fill:url(#SVGID_73_);}
	.st68{fill:url(#SVGID_74_);}
	.st69{fill:url(#SVGID_75_);}
	.st70{fill:#FE0000;stroke:url(#SVGID_76_);stroke-width:3.6108;stroke-miterlimit:10;}
	.st71{fill:#FE0000;stroke:url(#SVGID_77_);stroke-width:3.6108;stroke-miterlimit:10;}
	.st72{fill:#FE0000;stroke:url(#SVGID_78_);stroke-width:3.6108;stroke-miterlimit:10;}
	.st73{fill:url(#SVGID_79_);}
	.st74{fill:url(#SVGID_80_);}
	.st75{fill:#FE0000;stroke:url(#SVGID_81_);stroke-width:3.6108;stroke-miterlimit:10;}
	.st76{fill:#FE0000;stroke:url(#SVGID_82_);stroke-width:3.6108;stroke-miterlimit:10;}
	.st77{fill:#FE0000;stroke:url(#SVGID_83_);stroke-width:3.6108;stroke-miterlimit:10;}
	.st78{fill:url(#SVGID_84_);}
	.st79{fill:url(#SVGID_85_);}
	.st80{fill:#FE0000;stroke:url(#SVGID_86_);stroke-width:3.6108;stroke-miterlimit:10;}
</style>
<g>
	<g>
		<g>
			
				<linearGradient id="SVGID_2_" gradientUnits="userSpaceOnUse" x1="-2062.856" y1="748.455" x2="-2062.856" y2="123.9047" gradientTransform="matrix(1 0 0 1 3982.356 -123.9049)">
				<stop  offset="0" style="stop-color:#FEEE00"/>
				<stop  offset="0.5005" style="stop-color:#F36600"/>
			</linearGradient>
			<path style="fill:url(#SVGID_2_);" d="M3769.5,0h-105.5l-46,52.2h151.6c23.1,0,23.1,34.6,0,34.6h-136.2l-46,52.2l-39.1,44.3
				l-54.9,62.2h219.2l54.9-62.2h-148.2l39.1-44.3h111.2C3862.2,139.1,3862.2,0,3769.5,0z M1404.4,93.8h-178.5l57.3,176.1
				c6.3,19.3-8.1,39.2-28.4,39.2h-4.7c-12.5,0-23.7-7.8-28-19.5l-72.4-195.7H961l138.1,301c14.9,32.5,47.4,53.3,83.1,53.3l35.3,0
				l69.8,176.4h153.6l-51.8-176.4l40.2,0c30,0,52.1-28,45.2-57.2L1404.4,93.8z M3346.1,93.8l-165.9,214.8
				c-5.7,7.3-14.4,11.6-23.7,11.6c-24.5,0-38.6-27.8-24.1-47.6l130.9-178.9H3040l-184.4,302.3c-16.9,27.7,3,63.3,35.5,63.3h49.4
				l-114.2,165.2h180.5l136.6-165.2h65.7c11.9,0,23.3-5.1,31.2-14.1L3550,93.8H3346.1z M2591.2,448.1h187.9l80.2-139.1h-158.1
				c-21.8,0-36.2-22.5-27.2-42.3l5.1-11.1h214.2l90.2-161.8l-484.6,0l-171.6,530.7h350.1l70.9-123h-134.9
				c-21.8,0-36.2-22.5-27.2-42.3L2591.2,448.1z M2306.5,309.1h-124.6c-18.4,0-32.4-16.4-29.5-34.6l3-18.8h233l47-161.8h-357.6
				c-45.7,0-83.6,35.4-86.6,81l-14.3,212.7c-2.2,32.8,23.8,60.6,56.7,60.6h133l-5.4,29c-2.6,14.2-15,24.5-29.4,24.5H1969l-8.3,123
				H2250c18.5,0,34.8-12.2,39.9-30l64.4-221.8C2363.6,340.9,2339.7,309.1,2306.5,309.1z M1477.4,198.4l41.3,196.1
				c6.6,31.3,34.2,53.7,66.1,53.7h191.7l1.2,21.8c1,17.2-12.7,31.6-29.8,31.6h-206.7l25.9,123h304.1c22.5,0,40.9-17.9,41.6-40.4
				l5.5-196c1.2-43.3-33.6-79.1-76.9-79.1h-154.9c-15.2,0-27.9-11.3-29.7-26.4l-3.2-27.1H1922l4.6-161.8l-364.4,0
				C1507.2,93.8,1466,144.5,1477.4,198.4z M935.3,152.5c-17.4-35.9-53.7-58.7-93.6-58.7H485.4l111.8,161.8h229.5
				c10.8,0,20.8,5.9,26.1,15.3l104.1,186.2c11.1,19.9-3.3,44.5-26.1,44.5h-26.6L786.9,309.1H634.1L852,624.6h245.4
				c30.7,0,50.8-32.1,37.4-59.7L935.3,152.5z M463.8,146.9c-24.1-33.3-62.7-53.1-103.8-53.1H29.6c-26,0-39.3,31-21.5,49.9L431.4,592
				c19.6,20.8,46.9,32.5,75.4,32.5h220.5c33.9,0,53.6-38.4,33.7-65.9L463.8,146.9z M525,501.6c-18.9,0-36.9-8.3-49.2-22.6L326.6,305
				c-16.6-19.4-2.9-49.4,22.7-49.4H360c19.7,0,38.4,9,50.7,24.4l137.7,173C564,472.6,550.1,501.6,525,501.6z"/>
		</g>
	</g>
</g>
</svg>
