<svg enable-background="new 0 0 3839 624.6" version="1.1" viewBox="0 0 3839 624.6" xml:space="preserve" xmlns="http://www.w3.org/2000/svg"><defs><linearGradient id="SVGID_2_" x1="-2062.856" x2="-2062.856" y1="748.45502" y2="123.9047" gradientTransform="translate(3982.356,-123.9049)" gradientUnits="userSpaceOnUse">
				<stop stop-color="#FEEE00" offset="0"/>
				<stop stop-color="#F36600" offset=".5005"/>
			</linearGradient></defs>
<path d="m3769.5 0h-105.5l-46 52.2h151.6c23.1 0 23.1 34.6 0 34.6h-136.2l-46 52.2-39.1 44.3-54.9 62.2h219.2l54.9-62.2h-148.2l39.1-44.3h111.2c92.6 0.1 92.6-139-0.1-139zm-2365.1 93.8h-178.5l57.3 176.1c6.3 19.3-8.1 39.2-28.4 39.2h-4.7c-12.5 0-23.7-7.8-28-19.5l-72.4-195.7h-188.7l138.1 301c14.9 32.5 47.4 53.3 83.1 53.3h35.3l69.8 176.4h153.6l-51.8-176.4h40.2c30 0 52.1-28 45.2-57.2zm1941.7 0-165.9 214.8c-5.7 7.3-14.4 11.6-23.7 11.6-24.5 0-38.6-27.8-24.1-47.6l130.9-178.9h-223.3l-184.4 302.3c-16.9 27.7 3 63.3 35.5 63.3h49.4l-114.2 165.2h180.5l136.6-165.2h65.7c11.9 0 23.3-5.1 31.2-14.1l309.7-351.4zm-754.9 354.3h187.9l80.2-139.1h-158.1c-21.8 0-36.2-22.5-27.2-42.3l5.1-11.1h214.2l90.2-161.8h-484.6l-171.6 530.7h350.1l70.9-123h-134.9c-21.8 0-36.2-22.5-27.2-42.3zm-284.7-139h-124.6c-18.4 0-32.4-16.4-29.5-34.6l3-18.8h233l47-161.8h-357.6c-45.7 0-83.6 35.4-86.6 81l-14.3 212.7c-2.2 32.8 23.8 60.6 56.7 60.6h133l-5.4 29c-2.6 14.2-15 24.5-29.4 24.5h-162.8l-8.3 123h289.3c18.5 0 34.8-12.2 39.9-30l64.4-221.8c9.3-32-14.6-63.8-47.8-63.8zm-829.1-110.7 41.3 196.1c6.6 31.3 34.2 53.7 66.1 53.7h191.7l1.2 21.8c1 17.2-12.7 31.6-29.8 31.6h-206.7l25.9 123h304.1c22.5 0 40.9-17.9 41.6-40.4l5.5-196c1.2-43.3-33.6-79.1-76.9-79.1h-154.9c-15.2 0-27.9-11.3-29.7-26.4l-3.2-27.1h268.4l4.6-161.8h-364.4c-55 0-96.2 50.7-84.8 104.6zm-542.1-45.9c-17.4-35.9-53.7-58.7-93.6-58.7h-356.3l111.8 161.8h229.5c10.8 0 20.8 5.9 26.1 15.3l104.1 186.2c11.1 19.9-3.3 44.5-26.1 44.5h-26.6l-117.3-192.5h-152.8l217.9 315.5h245.4c30.7 0 50.8-32.1 37.4-59.7zm-471.5-5.6c-24.1-33.3-62.7-53.1-103.8-53.1h-330.4c-26 0-39.3 31-21.5 49.9l423.3 448.3c19.6 20.8 46.9 32.5 75.4 32.5h220.5c33.9 0 53.6-38.4 33.7-65.9zm61.2 354.7c-18.9 0-36.9-8.3-49.2-22.6l-149.2-174c-16.6-19.4-2.9-49.4 22.7-49.4h10.7c19.7 0 38.4 9 50.7 24.4l137.7 173c15.6 19.6 1.7 48.6-23.4 48.6z" fill="url(#SVGID_2_)"/>
</svg>
