<svg enable-background="new 0 0 3839 624.6" version="1.1" viewBox="0 0 3839 624.6" xml:space="preserve" xmlns="http://www.w3.org/2000/svg">
<path d="m3664 0-46 52.199219h151.5996c23.1 0 23.1 34.601562 0 34.601562h-136.1992l-46 52.199219-39.0996 44.30078-54.9004 62.19922h219.1992l54.9004-62.19922h-148.1992l39.0996-44.30078h111.1992c92.5999 0.1 92.6003-139-0.0996-139h-105.5zm-2438.1992 93.699219 57.2988 176.101561c6.3 19.39998-8.1004 39.19922-28.4004 39.19922h-4.6992c-12.5 0-23.7-7.80001-28-19.5l-72.4004-195.699219h-188.5996l138 300.999999c14.9 32.49997 47.3996 53.29883 83.0996 53.29883h35.3008l69.7988 176.40039 153.7012-0.09961-51.8008-176.40039h40.2012c30 0 52.0992-27.99925 45.1992-57.19922l-70.1992-297.101561h-178.5zm1814.1992 0-184.4004 302.300781c-16.9 27.69997 3 63.30078 35.5 63.30078h49.4004l-114.1992 165.19922h180.5l136.5996-165.19922h65.6992c11.9 0 23.3012-5.10157 31.2012-14.10156l309.6992-351.398439h-203.9004l-165.9004 214.798829c-5.7 7.29999-14.3992 11.59961-23.6992 11.59961-24.5 0-38.5996-27.79963-24.0996-47.59961l130.9004-178.900391h-223.3008zm-3010.400391 0.101562c-25.9999736 0-39.2999818 30.998459-21.4999996 49.898439l423.3007806 448.30078c19.59998 20.79998 46.90042 32.5 75.40039 32.5h220.5c33.89997 0 53.5992-38.40042 33.69922-65.90039l-297.19922-411.69922c-24.09997-33.29997-62.70082-53.099609-103.80078-53.099609h-330.400391zm455.800781 0 111.79883 161.798829h229.5c10.79999 0 20.80157 5.90079 26.10156 15.30078l104.09961 186.19922c11.09999 19.89998-3.29963 44.5-26.09961 44.5h-26.60156l-117.29883-192.5h-152.80078l217.90039 315.5h245.4004c30.7 0 50.8004-32.09925 37.4004-59.69922l-199.50002-412.40039c-17.39998-35.89996-53.7016-58.699219-93.60156-58.699219h-356.29883zm1076.79881 0c-54.9999 0-96.1988 50.699659-84.7988 104.599609l41.2988 196.09961c6.6 31.29997 34.2016 53.69922 66.1016 53.69922h191.6992l1.1992 21.80078c1 17.19998-12.6988 31.59961-29.7988 31.59961h-206.7012l25.9004 123h304.0996c22.5 0 40.9016-17.90041 41.6016-40.40039l5.5-196c1.2-43.29996-33.6005-79.09961-76.9004-79.09961h-154.9004c-15.2 0-27.8992-11.30041-29.6992-26.40039l-3.2012-27.09961h268.4004l4.5996-161.798829h-364.4004zm515.6016 0.09961c-45.8-0.1-83.7008 35.300439-86.8008 80.900389l-14.3008 212.69922c-2.2 32.79997 23.8012 60.59961 56.7012 60.59961h133l-5.4004 29c-2.6 14.19999-15.0004 24.5-29.4004 24.5h-162.5996l-8.3008 123h289.3008c18.5 0 34.8004-12.20002 39.9004-30l64.4004-221.79883c9.3-31.89997-14.7008-63.70117-47.8008-63.70117h-124.5996c-18.4 0-32.4-16.39963-29.5-34.59961l3-18.80078h233l47-161.798829h-357.5996zm421.0996 0-171.7012 530.699219h350.1016l70.8984-123h-134.8984c-21.8 0-36.2012-22.49885-27.2012-42.29883l5.0996-11.10156h187.9004l80.2012-139.09961h-158.1016c-21.8 0-36.1992-22.49885-27.1992-42.29883l5.0996-11.10156h214.2012l90.1992-161.798829h-484.5996zm-2149.59962 161.699219h10.69922c19.69998 0 38.39923 9.00041 50.69922 24.40039l137.70117 173c15.59999 19.59998 1.69958 48.59961-23.40039 48.59961-18.89998 0-36.89923-8.29962-49.19922-22.59961l-149.20117-174c-16.59998-19.39998-2.8988-49.40039 22.70117-49.40039z"/>
</svg>
