<svg version="1.1" viewBox="0 0 120.35 22" xmlns="http://www.w3.org/2000/svg">
 <path fill="#CC8F00" d="m18 0-1.25 2.75-2.75 1.25 2.75 1.25 1.25 2.75 1.25-2.75 2.75-1.25-2.75-1.25zm-10 3-2.5 5.5-5.5 2.5 5.5 2.5 2.5 5.5 2.5-5.5 5.5-2.5-5.5-2.5zm57.586 1.5898c-3.6773 0-6.123 2.6878-6.123 6.7012 0 3.9387 2.3702 6.5527 5.9355 6.5527 3.7333 0 6.2344-2.708 6.2344-6.7773 0-3.8827-2.4255-6.4766-6.0469-6.4766zm50.697 0c-2.8933 0-4.7773 1.4366-4.7773 3.6953 0 4.4427 7.2422 2.7819 7.2422 6.0859 0 1.3067-1.1201 2.1465-3.0801 2.1465-1.176 0-2.633-0.31718-3.9024-0.83984l-0.46484 1.2129c1.4373 0.65333 2.8921 1.0078 4.2734 1.0078 2.8933 0 4.7793-1.4746 4.7793-3.752 0-4.592-7.2617-2.7622-7.2617-6.1035 0-1.3627 1.1014-2.1094 3.0801-2.1094 1.1013 0 2.2952 0.22323 3.2285 0.61523l0.4668-1.2129c-1.1013-0.48533-2.352-0.74609-3.584-0.74609zm-89.562 0.16797v12.955h1.5488v-6.0117h5.9551v-1.3438h-5.9551v-4.2559h6.4961v-1.3438h-8.0449zm13.775 0-4.8516 12.955h1.623l1.3809-3.8457h5.3945l1.2891 3.8457h1.7363l-4.5547-12.955h-2.0176zm6.8516 0 4.7227 12.955h1.5117l4.7227-12.955h-1.5684l-3.8438 11.051-3.7715-11.051zm27.012 0v12.955h1.5488v-5.2461h2.5566c0.13067 0 0.26082 0.0011 0.41016-0.01758l3.0059 5.2637h1.8477l-3.2852-5.5996c1.568-0.616 2.5391-1.9984 2.5391-3.7344 0-2.2773-1.6794-3.6211-4.3301-3.6211h-4.293zm11.572 0v12.955h1.5488v-12.955zm3.4531 0v1.3438h4.3125v11.611h1.5488v-11.611h4.3301v-1.3438h-10.191zm12.096 0v12.955h8.1387v-1.3438h-6.5879v-4.6855h6.084v-1.3438h-6.084v-4.2383h6.5879v-1.3438h-8.1387zm-36.082 1.1953c2.7813 0 4.6484 2.1272 4.6484 5.3379 0 3.1173-1.7916 5.209-4.4609 5.209-2.7253 0-4.5371-2.1669-4.5371-5.4336 0-3.0613 1.7363-5.1133 4.3496-5.1133zm-23.986 0.13086 2.1641 6.4395h-4.4609l2.2969-6.4395zm34.496 0.017578h2.5566c1.848 0 2.9316 0.95131 2.9316 2.5566 0 1.5867-0.97081 2.502-2.7441 2.502h-2.7441zm-57.908 7.8984-1.25 2.75-2.75 1.25 2.75 1.25 1.25 2.75 1.25-2.75 2.75-1.25-2.75-1.25z"/>
</svg>
