<svg version="1.1" viewBox="0 0 712 860" xml:space="preserve" xmlns="http://www.w3.org/2000/svg"><path d="m373.35156 0.99804688-0.00195 0.00195312c-5.51-0.00999999-11.26001 0.2192192-17.25 0.6992188-151.43985 12.1899882-111.26953 172.1917712-113.51953 225.7617212-2.77 39.17996-10.71019 70.05741-37.66016 108.35937-31.64997 37.63996-76.22986 98.57007-97.33984 162-9.959992 29.92997-14.700076 60.43644-10.33008 89.31641a67.752 67.752 0 0 0-3.919922 3.8418c-9.289991 9.92999-16.160554 21.94907-23.810547 30.03906-7.149993 7.14099-17.329308 9.85038-28.529297 13.85937-11.199988 4.021-23.491179 9.93978-30.951172 24.25977 0 0 2.35e-4 0.01172-0.009765 0.01172-0.01 0.02-0.019063 0.05036-0.0390626 0.06836-3.5099965 6.54999-4.6503906 13.62102-4.6503906 20.79101 0 6.63 0.9807041 13.35037 1.9707031 19.81836 2.0599979 13.45999 4.1489031 26.18956 1.3789062 34.81055-8.85999111 24.22997-9.9997594 40.97964-3.7597656 53.14062 6.2599935 12.17999 19.1106395 17.54985 33.6406245 20.58985 29.059971 6.05999 68.409958 4.56001 99.419918 21l2.66993-5.0293-2.64063 5.04297c33.19997 17.35998 66.86097 23.51967 93.71094 17.38867 19.47998-4.43999 35.2804-16.03888 43.40039-33.88086 20.99998-0.1 44.04879-8.99934 80.96875-11.02734 25.04997-2.021 56.34011 8.89843 92.33008 6.89844 0.94 3.89999 2.30116 7.65851 4.16015 11.22851 0.021 0.03 0.04055 0.07056 0.06055 0.10156 13.94999 27.89998 39.87003 40.65852 67.5 38.47852 27.65997-2.181 57.07254-18.49128 80.85352-46.78125l-4.36329-3.65625 4.39063 3.61719c22.65998-27.47998 60.27268-38.86822 85.22266-53.90821 12.46998-7.51999 22.57718-16.9391 23.36718-30.62109 0.778-13.66999-7.24995-28.99049-25.71093-49.48047-0.01-0.01-0.01954-0.01834-0.01954-0.02734-6.06999-6.85-8.96036-19.55009-12.06835-33.08008-3.101-13.51999-6.56994-28.10079-17.66993-37.55078-0.021-0.022-0.05231-0.03955-0.07031-0.06055a46 46 0 0 0-6.73047-4.89062 43.923 43.923 0 0 0-6.90039-3.32032c15.42999-45.75995 9.38272-91.32904-6.19726-132.5-19.10998-50.53995-52.48073-94.57043-77.97071-124.6914-28.52997-35.98997-56.43381-70.14843-55.88281-120.60938 0.85-77.00992 8.47104-219.8197633-127.04883-220.0097631zm17.97656 118.6425731h0.00196 0.36914c7.67999 0 14.25001 2.25649 21 7.14649 6.84999 4.97999 11.79149 11.2004 15.77148 19.90039 3.9 8.47999 5.77875 16.76962 5.96875 26.59961 0 0.26 3.2e-4 0.48023 0.07032 0.74023 0.08 10.08999-1.66024 18.68314-5.49024 27.45313-2.18 4.99999-4.69117 9.19985-7.70117 12.83984a58.494 58.494 0 0 0-3.17774-1.41015c-3.80999-1.63-7.18022-2.96938-10.19921-4.10938-3.02-1.14-5.3776-1.92172-7.8086-2.76172 1.76-2.13 5.22854-4.63711 6.51953-7.78711 1.96-4.74999 2.92157-9.39383 3.10157-14.92383 0-0.21999 0.06836-0.40992 0.06836-0.66992 0.11-5.29999-0.58868-9.82875-2.13868-14.46875-1.61999-4.86999-3.68016-8.3703-6.66015-11.27929-2.99-2.91-5.97079-4.22961-9.55078-4.34961-0.17-0.01-0.33-0.00977-0.5-0.00977-3.36 0.01-6.27879 1.16946-9.30078 3.68945-3.17 2.65-5.51952 6.04073-7.47852 10.76172-1.95 4.72-2.90956 9.39899-3.10156 14.95899-0.029 0.22-0.0293 0.41086-0.0293 0.63086-0.07 3.05999 0.13156 5.86008 0.60156 8.58008-6.87999-3.43-15.68368-5.93477-21.76367-7.38477-0.35-2.63-0.55133-5.33969-0.61133-8.17969v-0.76758c-0.11-10.05999 1.54016-18.68922 5.41016-27.44922 3.86999-8.76999 8.66044-15.07117 15.39844-20.20117 6.74999-5.11999 13.38147-7.46883 21.23046-7.54883zm-104.88867 8.3379v0.00195c5.11 0.01 9.66963 1.71047 14.39063 5.48047 5.11999 4.08999 8.99047 9.31946 12.23047 16.68945 3.24999 7.36999 4.97898 14.73751 5.45898 23.4375v0.07031c0.23 3.65 0.20016 7.08993-0.08984 10.41992-1.01 0.29-1.98899 0.59969-2.95899 0.92969-5.49999 1.9-9.86789 3.99711-14.08789 6.78711 0.41-2.92 0.47039-5.87945 0.15039-9.18945-0.03-0.18-0.02929-0.32977-0.02929-0.50977-0.44-4.38999-1.36993-8.06906-2.91993-11.78906-1.64999-3.87-3.50164-6.60117-5.93164-8.70117-2.19999-1.9-4.28008-2.77977-6.58007-2.75977-0.23 0-0.46899 0.01125-0.70899 0.03125-2.58 0.22-4.72 1.47727-6.75 3.94727-2.02 2.46-3.35055 5.52008-4.31055 9.58008-0.95999 4.04999-1.21054 8.03252-0.81054 12.60351 0 0.18 0.04101 0.32977 0.04101 0.50977 0.44 4.42999 1.33016 8.11008 2.91016 11.83008 1.62 3.82999 3.49969 6.56015 5.92969 8.66015 0.41 0.35 0.81093 0.66727 1.21093 0.94727-2.51999 1.95-4.21492 3.33352-6.29492 4.85351-1.33 0.97-2.91 2.13024-4.75 3.49024-4.00999-3.76-7.13891-8.47899-9.8789-14.70899-3.24-7.35999-4.96829-14.73165-5.48828-23.43164v-0.06836c-0.48-8.69999 0.36976-16.17993 2.75976-23.91992 2.4-7.73999 5.60001-13.34141 10.25-17.9414 4.64-4.61 9.31899-6.92875 14.95898-7.21875 0.44-0.02 0.86883-0.03125 1.29883-0.03125zm47.8711 60.33203c11.85999-0.05 26.1304 3.83851 43.40039 14.9375 10.60999 6.89999 18.85916 7.47915 37.86914 15.61914l0.0293 0.01367 0.02148 0.00976c9.13999 3.75 14.50867 8.64689 17.13867 13.79688 2.62 5.14999 2.69023 10.73133 0.49024 16.61133-4.389 11.74999-18.40938 24.11977-38.06836 30.25976l-0.01953 0.00977-0.02149 0.00976c-9.59099 3.11-17.95032 10.00087-27.82031 15.63086-9.84999 5.64-21.00994 10.19055-36.16992 9.31055-6.46-0.38-11.62102-1.66078-16.04102-3.55078-4.41999-1.89-8.09008-4.38946-11.58008-7.18945-6.97999-5.61-13.05899-12.66063-21.95898-17.89063l-0.0293-0.00976-0.01953-0.02149c-14.33999-8.10999-22.18086-17.48915-24.63086-25.61914-2.46-8.12999-0.14905-15.06844 6.96094-20.39844 7.99999-5.99999 13.55953-10.07906 17.26953-12.78906 3.68-2.7 5.20086-3.71984 6.38086-4.83984 0-0.01 0.00781-0.01149 0.00781-0.02149l0.00977-0.00976c6.00999-5.69 15.60079-16.06126 30.05078-21.03125a51.227 51.227 0 0 1 16.73047-2.83789zm-14.44336 13.85156c-1.99693-0.10156-4.11743 0.38477-5.91992 1.08789-2.243 0.874-5.72511 2.38939-5.41211 4.77539 0.237 1.806 3.07062 2.4895 4.89062 2.4375 1.908-0.055 3.27175-1.9717 4.96875-2.8457 1.933-0.996 5.27878-0.65057 5.92578-2.72657 0.211-0.67699-0.46594-1.48607-1.08593-1.83007-1.01475-0.56438-2.16903-0.8375-3.36719-0.89844zm28.67578 0c-1.19816 0.06094-2.35244 0.33406-3.36719 0.89844-0.62 0.344-1.29694 1.15308-1.08594 1.83007 0.647 2.076 3.99279 1.73057 5.92578 2.72657 1.697 0.874 3.06076 2.7907 4.96876 2.8457 1.81999 0.052 4.65362-0.6315 4.89062-2.4375 0.313-2.386-3.16911-3.90139-5.41211-4.77539-1.8025-0.70312-3.92299-1.18945-5.91992-1.08789zm63.53906 31.04101c-3.795 0.11367-3.94454 4.68837-9.17578 8.5293-7.29499 5.354-16.23187 12.41743-23.25586 16.35742-12.39799 6.955-32.71134 17.16993-50.11133 17.16993-17.42998 0-31.34907-8.05033-41.78906-16.32032-5.21999-4.13999-9.53071-8.3093-12.9707-11.52929-2.543-2.378-3.15341-7.69522-7.19141-8.19922-2.41-0.192-3.11204 6.30069 2.75195 10.92968 3.38 3.16 7.86087 7.50892 13.38086 11.87891 11.03999 8.74999 26.38838 17.73047 45.81836 17.73047 19.43998 0 37.71058-9.88607 53.35156-18.03906 8.2-4.274 18.29506-11.74791 24.74805-17.37891 6.454-5.63199 9.8619-10.5548 5.25391-11.0918-0.288-0.03362-0.55755-0.04468-0.81055-0.03711zm22.42969 27.41602c12.91999 50.91995 42.95855 124.47136 62.26953 160.36133 10.26999 19.03998 30.69073 59.50005 39.51172 108.25 5.58999-0.17 11.74985 0.64208 18.33984 2.33008 23.06998-59.80994-19.56252-124.22018-39.0625-142.16016-7.86999-7.63999-8.24984-11.06039-4.33984-10.90039 21.13998 18.70998 48.90977 56.31934 59.00976 98.7793 4.61 19.35898 5.59239 39.72056 0.65039 59.81054 2.41 1 4.87134 2.09049 7.36133 3.27149 37.02997 18.02998 50.72062 33.71135 44.14063 55.11133-2.17-0.08-4.31063-0.07244-6.39063-0.02344-0.19 0.01-0.38008 0.01367-0.58007 0.01367 5.36999-16.95998-6.50996-29.47103-38.16993-43.79101-32.82996-14.43999-58.99016-13.01091-63.41015 16.28906-0.28 1.53-0.50969 3.09969-0.67969 4.67968a49.79 49.79 0 0 0-7.40039 3.29102c-15.40999 8.43999-23.82977 23.73955-28.50977 42.51953-4.66999 18.75998-6.02273 41.42995-7.30273 66.91992v0.01953c-0.79 12.81099-6.07016 30.15074-11.41016 48.51172-53.77994 38.36897-128.41889 54.99043-191.79883 11.73047-4.28999-6.78999-9.22102-13.52016-14.29101-20.16015-3.24-4.239-6.56915-8.45038-9.86914-12.60938 6.49999 0.01 12.03-1.06108 16.5-3.08008 5.55999-2.52999 9.46039-6.56853 11.40039-11.76953 3.85999-10.38999-0.02064-25.0508-12.39063-41.80078-12.36998-16.73998-33.31964-35.63174-64.09961-54.51172v-0.00976c-22.61997-14.06999-35.25969-31.31132-41.17968-50.0293-5.93-18.72998-5.1032-38.98072-0.53321-58.9707 8.75999-38.36997 31.26111-75.6894 45.6211-99.10938 3.85999-2.84 1.38092 5.28083-14.53906 34.8418-14.25999 27.02097-40.92989 89.37864-4.41993 138.05859 0.98-34.63996 9.24869-69.96956 23.13867-103.01953 20.22998-45.84995 62.5404-125.37983 65.9004-188.75977 1.73999 1.26 7.68984 5.27907 10.33984 6.78907 0.01 0.01 0.01148 0.01172 0.02148 0.01172 7.76 4.56999 13.58868 11.24836 21.13868 17.31836 7.56999 6.07999 17.02079 11.33015 31.30078 12.16015 1.37 0.08 2.71148 0.1211 4.02148 0.1211 14.71999 0 26.19978-4.80149 35.75977-10.27149 10.39099-5.93999 18.68955-12.51813 26.56054-15.07812 0.01-0.01 0.0193-0.01172 0.0293-0.01172 16.62998-5.2 29.84038-14.39915 37.35938-25.11914l0.00195-0.00391zm78.3789 324.44141c1.351 22.02997 12.26009 44.5121 31.53907 49.37109 21.10098 5.56 51.51157-12.54056 64.35156-27.31055 2.569-0.101 5.069-0.23101 7.5-0.29101 11.26999-0.271 20.70915 0.38032 30.36914 8.82031l0.0293 0.0293 0.02929 0.01953c7.42 6.28999 10.95173 18.17267 14.01172 31.47266 3.06 13.30998 5.4977 27.79891 14.67969 38.1289l0.00977 0.00977 0.01172 0.02148c17.64098 19.56998 23.31031 32.79024 22.82031 41.24024-0.48 8.43999-6.59087 14.70977-17.88086 21.50976-22.56198 13.60999-62.55211 25.45089-88.08008 56.38086-22.18198 26.38997-49.21932 40.87977-73.0293 42.75977-23.80997 1.87999-44.35071-8.00057-56.4707-32.31055l-0.01953-0.05078-0.0293-0.06055c-7.51999-14.29998-4.39054-36.85046 1.93946-60.64844 6.32999-23.78997 15.42843-48.23009 16.64843-68.08007v-0.0586c1.279-25.43997 2.71148-47.66252 6.98047-64.8125 4.28-17.14998 11.0097-28.7493 22.92969-35.27929 0.56-0.3 1.11016-0.59133 1.66015-0.86133zm-387.58203 1.66015h0.00196c0.12 0.011 0.22961 0.011 0.34961 0 1.77999 0.011 3.66992 0.16071 5.66992 0.47071 13.49998 2.03999 25.26938 11.47939 36.60937 26.85937l32.74024 59.66992 0.00976 0.0293 0.01953 0.02148c8.71 18.18999 27.10924 38.1994 42.69922 58.60938 15.58999 20.39998 27.65008 40.89033 26.08008 56.57031l-0.00976 0.06055v0.06836c-2.04 26.73997-17.12128 41.3018-40.28125 46.5918-23.13998 5.28999-54.52918 0.02184-85.86915-16.36915-0.00999 0-0.01929-0.01171-0.02929-0.01171-34.67997-18.36999-75.930419-16.53837-102.400392-22.06836-13.229987-2.76-21.870083-6.92064-25.830079-14.64063-3.959996-7.72999-4.048897-21.19994 4.371094-44.16992l0.039063-0.10156 0.03125-0.09961c4.169995-12.84999 1.078591-26.90939-0.941407-40.10938-2.019998-13.18898-3.009995-25.20055 1.5-33.56054l0.041016-0.08008c5.769994-11.11999 14.230479-15.09938 24.730469-18.85938 10.509989-3.76999 22.959072-6.72785 32.789062-16.58984l0.060547-0.05078 0.048828-0.05078c9.089991-9.58999 15.920164-21.61845 23.910159-30.14844 6.73999-7.19999 13.49016-11.97102 23.66015-12.04102z"/></svg>
