<svg enable-background="new 0 0 3839 537.6" version="1.1" viewBox="0 0 3839 537.6" xml:space="preserve" xmlns="http://www.w3.org/2000/svg"><defs><linearGradient id="SVGID_1_" x1="130.7495" x2="130.7495" y1="537.59491" gradientUnits="userSpaceOnUse">
			<stop stop-color="#EF5023" offset="0"/>
			<stop stop-color="#E04620" offset=".2217"/>
			<stop stop-color="#B82C16" offset=".6488"/>
			<stop stop-color="#92140E" offset="1"/>
		</linearGradient><linearGradient id="SVGID_2_" x1="357.3204" x2="357.3204" y1="444.53561" y2="51.2813" gradientUnits="userSpaceOnUse">
			<stop stop-color="#EF5023" offset="0"/>
			<stop stop-color="#E04620" offset=".2217"/>
			<stop stop-color="#B82C16" offset=".6488"/>
			<stop stop-color="#92140E" offset="1"/>
		</linearGradient><linearGradient id="SVGID_3_" x1="527.81281" x2="527.81281" y1="393.26669" y2="102.5609" gradientUnits="userSpaceOnUse">
			<stop stop-color="#EF5023" offset="0"/>
			<stop stop-color="#E04620" offset=".2217"/>
			<stop stop-color="#B82C16" offset=".6488"/>
			<stop stop-color="#92140E" offset="1"/>
		</linearGradient><linearGradient id="SVGID_4_" x1="252.5672" x2="252.5672" y1="444.53561" y2=".001777428" gradientUnits="userSpaceOnUse">
			<stop stop-color="#008039" offset="0"/>
			<stop stop-color="#06833D" offset=".1163"/>
			<stop stop-color="#168B47" offset=".266"/>
			<stop stop-color="#309859" offset=".4338"/>
			<stop stop-color="#55AA72" offset=".615"/>
			<stop stop-color="#84C191" offset=".8068"/>
			<stop stop-color="#BCDCB6" offset="1"/>
		</linearGradient><linearGradient id="SVGID_5_" x1="448.62781" x2="448.62781" y1="393.26141" y2="51.2813" gradientUnits="userSpaceOnUse">
			<stop stop-color="#008039" offset="0"/>
			<stop stop-color="#06833D" offset=".1163"/>
			<stop stop-color="#168B47" offset=".266"/>
			<stop stop-color="#309859" offset=".4338"/>
			<stop stop-color="#55AA72" offset=".615"/>
			<stop stop-color="#84C191" offset=".8068"/>
			<stop stop-color="#BCDCB6" offset="1"/>
		</linearGradient></defs>
<path class="st1" d="M 134.4,537.6 H 0 L 127.1,0 h 134.4 z" fill="url(#SVGID_1_)"/><path class="st2" d="m336.6 51.3-93 393.2h134.4l93-393.2z" fill="url(#SVGID_2_)"/><path class="st3" d="m495 102.6-68.7 290.7h134.3l68.8-290.7z" fill="url(#SVGID_3_)"/><path class="st4" d="m261.5 0h-134.4l116.5 444.5h134.4z" fill="url(#SVGID_4_)"/><path class="st5" d="m560.6 393.3-89.6-342h-134.4l89.7 342z" fill="url(#SVGID_5_)"/><path d="m740.19922 102.59961-68.69922 290.40039h97.09961l17.80078-75.5h94.09961l6.90039 75.5h94.90039l-24.10156-263.90039c-1.4-14.99999-13.99963-26.5-29.09961-26.5h-188.90039zm247.30078 0 3.5 37.20117h100.0996l-51.4004 217.29883c-4.3 18.29998 9.6004 35.90039 28.4004 35.90039h60.2012l59.8984-253.19922h100.9004l10-37.20117h-311.5996zm571.3008 0-224.4004 0.30078-60.2012 254.5c-4.3 18.29998 9.6004 35.90039 28.4004 35.90039l224.4004-0.30078 60.1992-254.5c4.3-18.29998-9.5984-35.90039-28.3984-35.90039zm83.5 0-68.7012 290.40039h97.0996l59.9004-253.19922h46.5996l-59.8984 253.29883h97.0996l59.9004-253.29883h46.5996l-59.9004 253.39844h97.0996l60.2012-254.59961c4.3-18.29998-9.6004-35.90039-28.4004-35.90039l-347.5996-0.09961zm836.0996 0-261.3008 0.30078-24.9004 105.19922c-4.3 18.29998 9.6004 35.90039 28.4004 35.90039h127.0996l-26.3984 111.80078h-164l-8.9004 37.19922h261.2988l35.5-150.30078c4.3-18.29998-9.5984-35.89844-28.3984-35.89844h-127l15.7988-67h164l8.8008-37.20117zm46.6992 0-60.1992 254.59961c-4.3 18.29998 9.6004 35.90039 28.4004 35.90039l347.6992 0.09961 68.6992-290.39844h-97.1992l-59.8008 253h-46.5996l59.8008-253.10156h-97.0996l-59.9004 253.10156h-46.5996l59.8984-253.20117h-97.0996zm431.5 0-68.6992 290.40039h97.0996l17.9004-75.5h94.0996l6.9004 75.5h94.9004l-24.1016-263.90039c-1.4-14.99999-13.9996-26.5-29.0996-26.5h-189zm265.4004 0 24.0996 263.90039c1.4 14.99998 14 26.5 29 26.5l189.0996 0.19922 68.7012-290.39844h-97.2012v-0.10156l-59.7988 253.10156h-35.9004l-23.0996-253.20117h-94.9004zm399.9004 0-42.4004 0.20117-60.1992 254.5c-4.3 18.29998 9.5984 35.89844 28.3984 35.89844h60.2012l162.4004-0.19922 8.7988-37.19922h-162.4004l26.4004-111.80078h143.7012l8.7988-37.19922h-143.5996l15.8008-67h162.3984l8.8008-37.10156-217.0996-0.09961zm-1548.4004 0.20117-60.1992 254.5c-4.3 18.29998 9.5984 35.89844 28.3984 35.89844h60.2012l68.6992-290.39844h-97.0996zm-1245 36.89844h35.90039l12.79883 140.5h-81.89844l33.19922-140.5zm2216.4004 0h35.9004l12.7988 140.5h-81.9004l33.2012-140.5zm-1622.0996 0.10156h66.8984l-51.0996 216h-66.9004l51.1016-216z"/>
</svg>
