<svg enable-background="new 0 0 3839 537.6" version="1.1" viewBox="0 0 3839 537.6" xml:space="preserve" xmlns="http://www.w3.org/2000/svg">
<path d="m127.09961 0-127.09961 537.59961h134.40039l63.375-267.94336 45.82422 174.84375h0.14648l-0.04687 0.19922h131.30078c-0.02149-0.06716-0.04488-0.13213-0.06641-0.19922h3.06641 0.09961l29.17773-123.42383 18.92188 72.22461h134.40039 0.20117l68.69922-290.70117h-134.5l-5.01172 21.18164-18.93555-72.28125 0.04688-0.199219h-0.09961-134.40039l-29.22266 123.738279-45.87695-175.03906h-134.40039zm14.70117 11.300781h100.59961 10.40039l110.59961 421.999999h-111l-110.59961-421.999999zm-8.56445 12.109375 58.47461 223.107424-66.21094 279.7832h-111.199219l118.935549-502.890624zm218.06445 39.189453h111l83.69922 319.400391h-111l-83.69922-319.400391zm-8.6289 11.875 58.52539 223.392581-29.23438 123.60156-58.51758-223.27539 29.22657-123.718751zm397.52734 28.125001-68.69922 290.40039h97.09961l17.80078-75.5h94.09961l6.90039 75.5h94.90039l-24.10156-263.90039c-1.4-14.99999-13.99963-26.5-29.09961-26.5h-188.90039zm247.30078 0 3.5 37.20117h100.0996l-51.4004 217.29883c-4.3 18.29998 9.6004 35.90039 28.4004 35.90039h60.2012l59.8984-253.19922h100.9004l10-37.20117h-311.5996zm571.3008 0-224.4004 0.30078-60.2012 254.5c-4.3 18.29998 9.6004 35.90039 28.4004 35.90039l224.4004-0.30078 60.1992-254.5c4.3-18.29998-9.5984-35.90039-28.3984-35.90039zm83.5 0-68.7012 290.40039h97.0996l59.9004-253.19922h46.5996l-59.8984 253.29883h97.0996l59.9004-253.29883h46.5996l-59.9004 253.39844h97.0996l60.2012-254.59961c4.3-18.29998-9.6004-35.90039-28.4004-35.90039l-347.5996-0.09961zm836.0996 0-261.3008 0.30078-24.9004 105.19922c-4.3 18.29998 9.6004 35.90039 28.4004 35.90039h127.0996l-26.3984 111.80078h-164l-8.9004 37.19922h261.2988l35.5-150.30078c4.3-18.29998-9.5984-35.89844-28.3984-35.89844h-127l15.7988-67h164l8.8008-37.20117zm46.6992 0-60.1992 254.59961c-4.3 18.29998 9.6004 35.90039 28.4004 35.90039l347.6992 0.09961 68.6992-290.39844h-97.1992l-59.8008 253h-46.5996l59.8008-253.10156h-97.0996l-59.9004 253.10156h-46.5996l59.8984-253.20117h-97.0996zm431.5 0-68.6992 290.40039h97.0996l17.9004-75.5h94.0996l6.9004 75.5h94.9004l-24.1016-263.90039c-1.4-14.99999-13.9996-26.5-29.0996-26.5h-189zm265.4004 0 24.0996 263.90039c1.4 14.99998 14 26.5 29 26.5l189.0996 0.19922 68.7012-290.39844h-97.2012v-0.10156l-59.7988 253.10156h-35.9004l-23.0996-253.20117h-94.9004zm399.9004 0-42.4004 0.20117-60.1992 254.5c-4.3 18.29998 9.5984 35.89844 28.3984 35.89844h60.2012l162.4004-0.19922 8.7988-37.19922h-162.4004l26.4004-111.80078h143.7012l8.7988-37.19922h-143.5996l15.8008-67h162.3984l8.8008-37.10156-217.0996-0.09961zm-1548.4004 0.20117-60.1992 254.5c-4.3 18.29998 9.5984 35.89844 28.3984 35.89844h60.2012l68.6992-290.39844h-97.0996zm-1569.59961 11.09961h111.19922l-60.58203 256.18359-58.43555-223.04492 7.81836-33.13867zm324.59961 25.90039h35.90039l12.79883 140.5h-81.89844l33.19922-140.5zm594.3008 0h66.8984l-51.0996 216h-66.9004l51.1016-216zm1622.0996 0h35.9004l12.7988 140.5h-81.9004l33.2012-140.5z"/>
</svg>
