<?xml version="1.0" encoding="utf-8"?>
<!-- Generator: Adobe Illustrator 25.0.0, SVG Export Plug-In . SVG Version: 6.00 Build 0)  -->
<svg version="1.1" id="Layer_1" xmlns="http://www.w3.org/2000/svg" xmlns:xlink="http://www.w3.org/1999/xlink" x="0px" y="0px"
	 viewBox="0 0 3839 537.6" style="enable-background:new 0 0 3839 537.6;" xml:space="preserve">
<style type="text/css">
	.st0{fill:#FFFFFF;}
	.st1{fill:url(#SVGID_1_);}
</style>
<g>
	<g>
		<path d="M495,102.6l-9.7,41c1.1,4.8,2.7,9.5,4.5,14.1c0.8,2,1.6,3.9,2.4,5.8l11.7-49.6h111.2L551.7,382H450.5
			c-0.8,0.4-1.5,0.8-2.3,1.2c-2.7,1.3-5.6,2.6-8.6,3.1c-2.4,0.4-5.1,0.1-6.8-1.7c-1-1-1.5-2.3-1.9-3.7c-0.3-1.2-0.6-2.4-0.7-3.6
			l-3.8,16h134.4l68.7-290.7H495z"/>
		<path d="M127.1,0L0,537.6h134.4l66.7-282c-0.7-1.5-1.4-2.9-2-4.4c-1.3-2.9-2.5-5.8-3.4-8.8c-0.6-2.1-1.1-4.3-1.5-6.4l-68.7,290.3
			H14.3l121.8-515h106.3c0.7-1,1.5-2,2.5-2.8c1.5-1.2,3.3-1.9,5.2-2c2.5-0.1,4.8,0.7,6.7,2.3c0.8,0.6,1.5,1.4,2.2,2.1L261.5,0H127.1
			z"/>
		<path d="M447.4,59.1c2.5-1.9,5.8-2.8,8.9-2.5c3,0.3,5.8,1.3,7.8,3.7c1.4,1.6,2.4,3.5,3.6,5.2l3.4-14.2H336.6L305,185.1
			c0.8,1.3,1.5,2.7,2,4.1c1.9,4.9,2.6,10.2,3.6,15.4c0.2,1,0.4,2.1,0.6,3.1l34.3-145.2H444C445,61.3,446.1,60.1,447.4,59.1z"/>
		<path d="M406.5,312.1c-1.4-6.2-2-12.6-2.8-18.9c-0.2-1.3-0.3-2.5-0.5-3.8l-32.9,139.1c0.4,0.9,0.7,1.7,1.1,2.6
			c1.7,4.4,3.3,8.9,4.7,13.4h2l30-126.9C407.4,315.8,406.9,314,406.5,312.1z"/>
		<path d="M369.8,430.2l-0.7,3.1h-92.9c-6,4.2-13.4,7-20.5,4.4c-3-1.1-5-3.4-6.8-5.9c-0.5-0.8-1.1-1.6-1.6-2.3l-3.6,15.2h131.3
			C373.4,439.7,371.7,434.9,369.8,430.2z"/>
		<path d="M252.8,11.3l110.6,422h-111l-110.6-422H252.8 M261.5,0H127.1l116.5,444.5H378L261.5,0L261.5,0z"/>
		<path d="M462.3,62.6L546,382H435L351.3,62.6H462.3 M471,51.3H336.6l89.6,342h134.4L471,51.3L471,51.3z"/>
	</g>
	<g>
		<g>
			<path d="M1289.1,139.8l10-37.2H987.5l3.5,37.2h100.1l-51.4,217.3c-4.3,18.3,9.6,35.9,28.4,35.9h60.2l59.9-253.2H1289.1z"/>
			<path d="M2812.5,102.8l-59.8,253h-46.6l59.8-253.1h-97.1l-59.9,253.1h-46.6l59.9-253.2h-97.1l-60.2,254.6
				c-4.3,18.3,9.6,35.9,28.4,35.9l347.7,0.1l68.7-290.4H2812.5z"/>
			<path d="M3435.7,102.7l-59.8,253.1H3340l-23.1-253.2h-94.9l24.1,263.9c1.4,15,14,26.5,29,26.5l189.1,0.2l68.7-290.4H3435.7z"/>
			<path d="M3621.9,102.6l-42.4,0.2l-60.2,254.5c-4.3,18.3,9.6,35.9,28.4,35.9h60.2l162.4-0.2l8.8-37.2h-162.4l26.4-111.8h143.7
				l8.8-37.2H3652l15.8-67h162.4l8.8-37.1L3621.9,102.6z"/>
			<path d="M1334.4,102.9l-60.2,254.5c-4.3,18.3,9.6,35.9,28.4,35.9L1527,393l60.2-254.5c4.3-18.3-9.6-35.9-28.4-35.9L1334.4,102.9z
				 M1371.7,355.8l51.1-216h66.9l-51.1,216H1371.7z"/>
			<path d="M1642.3,102.6L1573.6,393h97.1l59.9-253.2h46.6l-59.9,253.3h97.1l59.9-253.3h46.6l-59.9,253.4h97.1l60.2-254.6
				c4.3-18.3-9.6-35.9-28.4-35.9L1642.3,102.6z"/>
			<path d="M2073.5,102.8l-60.2,254.5c-4.3,18.3,9.6,35.9,28.4,35.9h60.2l68.7-290.4H2073.5z"/>
			<path d="M740.2,102.6L671.5,393h97.1l17.8-75.5h94.1l6.9,75.5h94.9l-24.1-263.9c-1.4-15-14-26.5-29.1-26.5H740.2z M795.3,280.3
				l33.2-140.5h35.9l12.8,140.5H795.3z"/>
			<path d="M2956.6,102.6L2887.9,393h97.1l17.9-75.5h94.1l6.9,75.5h94.9l-24.1-263.9c-1.4-15-14-26.5-29.1-26.5H2956.6z
				 M3011.7,280.3l33.2-140.5h35.9l12.8,140.5H3011.7z"/>
			<path d="M2289.8,206.8l15.8-67h164l8.8-37.2l-261.3,0.3l-24.9,105.2c-4.3,18.3,9.6,35.9,28.4,35.9h127.1l-26.4,111.8h-164
				l-8.9,37.2h261.3l35.5-150.3c4.3-18.3-9.6-35.9-28.4-35.9H2289.8z"/>
		</g>
	</g>
</g>
</svg>
