<?xml version="1.0" encoding="utf-8"?>
<!-- Generator: Adobe Illustrator 25.0.0, SVG Export Plug-In . SVG Version: 6.00 Build 0)  -->
<svg version="1.1" id="Layer_1" xmlns="http://www.w3.org/2000/svg" xmlns:xlink="http://www.w3.org/1999/xlink" x="0px" y="0px"
	 viewBox="0 0 3839 537.6" style="enable-background:new 0 0 3839 537.6;" xml:space="preserve">
<style type="text/css">
	.st0{fill:#FFFFFF;}
	.st1{fill:url(#SVGID_1_);}
	.st2{fill:url(#SVGID_2_);}
	.st3{fill:url(#SVGID_3_);}
	.st4{fill:url(#SVGID_4_);}
	.st5{fill:url(#SVGID_5_);}
	.st6{fill:url(#SVGID_6_);}
	.st7{fill:url(#SVGID_7_);}
	.st8{fill:url(#SVGID_8_);}
	.st9{fill:url(#SVGID_9_);}
	.st10{fill:url(#SVGID_10_);}
	.st11{fill:url(#SVGID_11_);}
	.st12{fill:url(#SVGID_12_);}
	.st13{fill:url(#SVGID_13_);}
	.st14{fill:url(#SVGID_14_);}
	.st15{fill:url(#SVGID_15_);}
	.st16{fill:url(#SVGID_16_);}
	.st17{fill:url(#SVGID_17_);}
	.st18{fill:url(#SVGID_18_);}
	.st19{fill:url(#SVGID_19_);}
	.st20{fill:url(#SVGID_20_);}
	.st21{fill:url(#SVGID_21_);}
	.st22{fill:url(#SVGID_22_);}
	.st23{fill:url(#SVGID_23_);}
	.st24{fill:url(#SVGID_24_);}
	.st25{fill:url(#SVGID_25_);}
	.st26{fill:url(#SVGID_26_);}
	.st27{fill:url(#SVGID_27_);}
	.st28{fill:url(#SVGID_28_);}
	.st29{fill:url(#SVGID_29_);}
	.st30{fill:url(#SVGID_30_);}
	.st31{fill:url(#SVGID_31_);}
	.st32{fill:url(#SVGID_32_);}
	.st33{fill:url(#SVGID_33_);}
	.st34{fill:url(#SVGID_34_);}
	.st35{fill:url(#SVGID_35_);}
	.st36{fill:url(#SVGID_36_);}
	.st37{fill:url(#SVGID_37_);}
	.st38{fill:url(#SVGID_38_);}
	.st39{fill:url(#SVGID_39_);}
	.st40{fill:url(#SVGID_40_);}
	.st41{fill:url(#SVGID_41_);}
	.st42{fill:url(#SVGID_42_);}
	.st43{fill:url(#SVGID_43_);}
	.st44{fill:url(#SVGID_44_);}
	.st45{fill:url(#SVGID_45_);}
	.st46{fill:url(#SVGID_46_);}
	.st47{fill:url(#SVGID_47_);}
	.st48{fill:url(#SVGID_48_);}
	.st49{fill:url(#SVGID_49_);}
	.st50{fill:url(#SVGID_50_);}
	.st51{fill:url(#SVGID_51_);}
	.st52{fill:url(#SVGID_52_);}
	.st53{fill:url(#SVGID_53_);}
	.st54{fill:url(#SVGID_54_);}
	.st55{fill:url(#SVGID_55_);}
	.st56{fill:url(#SVGID_56_);}
	.st57{fill:url(#SVGID_57_);}
	.st58{fill:url(#SVGID_58_);}
	.st59{fill:url(#SVGID_59_);}
	.st60{fill:url(#SVGID_60_);}
	.st61{fill:url(#SVGID_61_);}
	.st62{fill:url(#SVGID_62_);}
	.st63{fill:url(#SVGID_63_);}
	.st64{fill:url(#SVGID_64_);}
	.st65{fill:url(#SVGID_65_);}
	.st66{fill:url(#SVGID_66_);}
	.st67{fill:url(#SVGID_67_);}
	.st68{fill:url(#SVGID_68_);}
	.st69{fill:url(#SVGID_69_);}
	.st70{fill:url(#SVGID_70_);}
	.st71{fill:url(#SVGID_71_);}
	.st72{fill:url(#SVGID_72_);}
	.st73{fill:url(#SVGID_73_);}
	.st74{fill:url(#SVGID_74_);}
	.st75{fill:url(#SVGID_75_);}
	.st76{fill:url(#SVGID_76_);}
	.st77{fill:url(#SVGID_77_);}
	.st78{fill:url(#SVGID_78_);}
	.st79{fill:url(#SVGID_79_);}
	.st80{fill:url(#SVGID_80_);}
	.st81{fill:url(#SVGID_81_);}
	.st82{fill:url(#SVGID_82_);}
	.st83{fill:url(#SVGID_83_);}
	.st84{fill:url(#SVGID_84_);}
	.st85{fill:url(#SVGID_85_);}
	.st86{fill:url(#SVGID_86_);}
	.st87{fill:url(#SVGID_87_);}
	.st88{fill:url(#SVGID_88_);}
	.st89{fill:url(#SVGID_89_);}
	.st90{fill:url(#SVGID_90_);}
	.st91{fill:url(#SVGID_91_);}
	.st92{fill:url(#SVGID_92_);}
	.st93{fill:url(#SVGID_93_);}
	.st94{fill:url(#SVGID_94_);}
	.st95{fill:url(#SVGID_95_);}
	.st96{fill:url(#SVGID_96_);}
	.st97{fill:url(#SVGID_97_);}
	.st98{fill:url(#SVGID_98_);}
	.st99{fill:url(#SVGID_99_);}
	.st100{fill:url(#SVGID_100_);}
</style>
<g>
	<g>
		<linearGradient id="SVGID_1_" gradientUnits="userSpaceOnUse" x1="130.7495" y1="537.5949" x2="130.7495" y2="0">
			<stop  offset="0" style="stop-color:#EF5023"/>
			<stop  offset="0.2217" style="stop-color:#E04620"/>
			<stop  offset="0.6488" style="stop-color:#B82C16"/>
			<stop  offset="1" style="stop-color:#92140E"/>
		</linearGradient>
		<polygon class="st1" points="134.4,537.6 0,537.6 127.1,0 261.5,0 		"/>
		<linearGradient id="SVGID_2_" gradientUnits="userSpaceOnUse" x1="357.3204" y1="444.5356" x2="357.3204" y2="51.2813">
			<stop  offset="0" style="stop-color:#EF5023"/>
			<stop  offset="0.2217" style="stop-color:#E04620"/>
			<stop  offset="0.6488" style="stop-color:#B82C16"/>
			<stop  offset="1" style="stop-color:#92140E"/>
		</linearGradient>
		<polygon class="st2" points="336.6,51.3 243.6,444.5 378,444.5 471,51.3 		"/>
		<linearGradient id="SVGID_3_" gradientUnits="userSpaceOnUse" x1="527.8128" y1="393.2667" x2="527.8128" y2="102.5609">
			<stop  offset="0" style="stop-color:#EF5023"/>
			<stop  offset="0.2217" style="stop-color:#E04620"/>
			<stop  offset="0.6488" style="stop-color:#B82C16"/>
			<stop  offset="1" style="stop-color:#92140E"/>
		</linearGradient>
		<polygon class="st3" points="495,102.6 426.3,393.3 560.6,393.3 629.4,102.6 		"/>
		<linearGradient id="SVGID_4_" gradientUnits="userSpaceOnUse" x1="252.5672" y1="444.5356" x2="252.5672" y2="1.777428e-03">
			<stop  offset="0" style="stop-color:#008039"/>
			<stop  offset="0.1163" style="stop-color:#06833D"/>
			<stop  offset="0.266" style="stop-color:#168B47"/>
			<stop  offset="0.4338" style="stop-color:#309859"/>
			<stop  offset="0.615" style="stop-color:#55AA72"/>
			<stop  offset="0.8068" style="stop-color:#84C191"/>
			<stop  offset="1" style="stop-color:#BCDCB6"/>
		</linearGradient>
		<polygon class="st4" points="261.5,0 127.1,0 243.6,444.5 378,444.5 		"/>
		<linearGradient id="SVGID_5_" gradientUnits="userSpaceOnUse" x1="448.6278" y1="393.2614" x2="448.6278" y2="51.2813">
			<stop  offset="0" style="stop-color:#008039"/>
			<stop  offset="0.1163" style="stop-color:#06833D"/>
			<stop  offset="0.266" style="stop-color:#168B47"/>
			<stop  offset="0.4338" style="stop-color:#309859"/>
			<stop  offset="0.615" style="stop-color:#55AA72"/>
			<stop  offset="0.8068" style="stop-color:#84C191"/>
			<stop  offset="1" style="stop-color:#BCDCB6"/>
		</linearGradient>
		<polygon class="st5" points="560.6,393.3 471,51.3 336.6,51.3 426.3,393.3 		"/>
	</g>
	<g>
		<g>
			<path d="M1289.1,139.8l10-37.2H987.5l3.5,37.2h100.1l-51.4,217.3c-4.3,18.3,9.6,35.9,28.4,35.9h60.2l59.9-253.2H1289.1z"/>
			<path d="M2812.5,102.8l-59.8,253h-46.6l59.8-253.1h-97.1l-59.9,253.1h-46.6l59.9-253.2h-97.1l-60.2,254.6
				c-4.3,18.3,9.6,35.9,28.4,35.9l347.7,0.1l68.7-290.4H2812.5z"/>
			<path d="M3435.7,102.7l-59.8,253.1H3340l-23.1-253.2h-94.9l24.1,263.9c1.4,15,14,26.5,29,26.5l189.1,0.2l68.7-290.4H3435.7z"/>
			<path d="M3621.9,102.6l-42.4,0.2l-60.2,254.5c-4.3,18.3,9.6,35.9,28.4,35.9h60.2l162.4-0.2l8.8-37.2h-162.4l26.4-111.8h143.7
				l8.8-37.2H3652l15.8-67h162.4l8.8-37.1L3621.9,102.6z"/>
			<path d="M1334.4,102.9l-60.2,254.5c-4.3,18.3,9.6,35.9,28.4,35.9L1527,393l60.2-254.5c4.3-18.3-9.6-35.9-28.4-35.9L1334.4,102.9z
				 M1371.7,355.8l51.1-216h66.9l-51.1,216H1371.7z"/>
			<path d="M1642.3,102.6L1573.6,393h97.1l59.9-253.2h46.6l-59.9,253.3h97.1l59.9-253.3h46.6l-59.9,253.4h97.1l60.2-254.6
				c4.3-18.3-9.6-35.9-28.4-35.9L1642.3,102.6z"/>
			<path d="M2073.5,102.8l-60.2,254.5c-4.3,18.3,9.6,35.9,28.4,35.9h60.2l68.7-290.4H2073.5z"/>
			<path d="M740.2,102.6L671.5,393h97.1l17.8-75.5h94.1l6.9,75.5h94.9l-24.1-263.9c-1.4-15-14-26.5-29.1-26.5H740.2z M795.3,280.2
				l33.2-140.5h35.9l12.8,140.5H795.3z"/>
			<path d="M2956.6,102.6L2887.9,393h97.1l17.9-75.5h94.1l6.9,75.5h94.9l-24.1-263.9c-1.4-15-14-26.5-29.1-26.5H2956.6z
				 M3011.7,280.2l33.2-140.5h35.9l12.8,140.5H3011.7z"/>
			<path d="M2289.8,206.8l15.8-67h164l8.8-37.2l-261.3,0.3l-24.9,105.2c-4.3,18.3,9.6,35.9,28.4,35.9h127.1l-26.4,111.8h-164
				l-8.9,37.2h261.3l35.5-150.3c4.3-18.3-9.6-35.9-28.4-35.9H2289.8z"/>
		</g>
	</g>
</g>
</svg>
