<svg enable-background="new 0 0 3839 793.5" version="1.1" viewBox="0 0 3839 793.5" xml:space="preserve" xmlns="http://www.w3.org/2000/svg" xmlns:xlink="http://www.w3.org/1999/xlink"><defs><linearGradient id="SVGID_00000029725845097684005360000001660880135162137504_" x1="1980.522" x2="1980.522" y1="793.5215" gradientUnits="userSpaceOnUse">
			<stop offset=".3079"/>
			<stop stop-color="#1B0007" offset=".3997"/>
			<stop stop-color="#610018" offset=".5976"/>
			<stop stop-color="#CE0033" offset=".8838"/>
			<stop stop-color="#FD003E" offset="1"/>
</linearGradient><clipPath id="SVGID_00000126321013592003222760000013295353828220164492_">
	<use xlink:href="#SVGID_00000103238855629611091690000007449307792859065775_"/>
</clipPath><radialGradient id="SVGID_00000091736067609909437440000001882630711163093888_" cx="4565.3945" cy="10807.459" r="224.4259" fx="4567.188" fy="10804.3223" gradientTransform="matrix(1,0,0,-1,-4213.2275,11144.49)" gradientUnits="userSpaceOnUse">
		<stop stop-color="#fff" offset="0"/>
		<stop stop-color="#E1E7F2" offset=".1072"/>
		<stop stop-color="#88A1CC" offset=".4368"/>
		<stop stop-color="#476EB0" offset=".7055"/>
		<stop stop-color="#1E4E9F" offset=".8997"/>
		<stop stop-color="#0F4298" offset="1"/>
	</radialGradient></defs>
	<path d="m2044.6 6.3c3-1.5 6.5-3.2 10.5-5 13.2-6.2 23.7 12.3 11.6 20.5-4.2 2.9-8 5.5-11.1 7.6-38.8 27.2-72.7 59.2-72.7 167.4 0 135.9 112.5 268.4 112.5 366.9 0 76.4-21.6 146.5-191.1 228.7-5.6 2.7-12.2 0.6-15.3-4.7-3.3-5.7-1.1-13 4.6-16.1 67.7-36.2 87.6-111.2 84.7-175.6-6-134-114.5-249.2-112.5-359.1 1.2-65.6 27.2-154.3 178.8-230.6z" fill="url(#SVGID_00000029725845097684005360000001660880135162137504_)"/><path d="m2268.1758 203.27539c-5.95-0.175-11.9758 2.77383-15.1758 8.92383l-139.6992 265.10156-40.3008 76.39844 2.8008 14.60156h135.6992c7.5 0 11.1-9.40039 5.5-14.40039 0 0-0.0996 3.8e-4 -0.0996-0.09961-2.5-2.2-4.6012-4.10156-6.2012-5.60156-11.9-10.69998-11.4988-18.09846-11.7988-24.39844s1.0004-12.60158 3.9004-18.10156l89.6992-170.19922 76.5 169.90039c2.6 5.69998 3.8008 11.89963 3.3008 18.09961-0.1 0.8-0.1012 1.49961-0.2012 2.09961-1.4 7.99998-8.5996 24.20117-22.0996 24.20117h-0.1992c-2.7 0-5.4 0.8-7.5 2.5-8.8 6.79998-4.1008 15.89844 2.6992 15.89844h288.9004c4.6 0 8.5988-3.49963 8.7988-8.09961 0.2-3.7-2.1-7.20039-5.5-8.40039-11.3-4.3-36.2988-17.1985-36.2988-45.39844v-246.80078c0-6.99998 5.6992-12.3 12.6992-12 47.9 1.9 84.2012 14.00041 109.7012 27.40039 4.1 2.2 6.6992 6.40002 6.6992 11v159.09961h0.4004c4.1 73.09986 38.8006 129.19922 165.9004 129.19922 73.6998 0 142.6992-38.59936 142.6992-109.69922v-182.30078c0-10.79998 3.3992-18.39924 7.6992-23.69922 6.3-7.69998 15.9004-11.80078 25.9004-11.80078h15c10 0 19.7004 4.1008 25.9004 11.80078 4.3 5.39998 7.6992 12.99924 7.6992 23.69922v220.70117c0 32.79994-25.9992 45.19922-38.1992 49.19922-2.9 0.9-5.2004 3.30039-5.9004 6.40039-1 5.39998 3.0012 10.09961 8.2012 10.09961h172.3984c3.5 0 6.8-2.10039 8-5.40039 1.7-4.7-0.7996-9.6-5.0996-11-11.9-3.9-38.5-16.29889-38.5-49.29883v-234.20117c0-18.69996 16.0996-25.5 27.0996-25.5h31.6016c29.4 0 58.5996 24.80125 58.5996 66.20117 0 60.69988-39.5012 75.40039-55.7012 75.40039-10.8 0-19.1992 0.19844-28.1992-3.10156 0 0-0.0996 3.8e-4 -0.0996-0.09961-5.7-2.7-11.7004 2.60002-9.9004 8.5 0.1 0.3 0.099 0.5 0.1992 0.5 9.5 32.09994 26.5008 81.20006 49.8008 112.5 36.1 48.6999 104.5998 87.5 219.5996 87.5h49.4004c3.1 0 6.0004-1.89922 6.9004-4.69922 1.3-4-0.8996-8.00117-4.5996-9.20117-9.9-3-30.9004-11.89887-30.9004-34.29883v-161.5c0-5.49999 6.3996-8.40039 10.5996-4.90039l238.6992 198.19922c6.9 5.69998 17.2012 0.80037 17.2012-8.09961v-289.40039c0-23.89996 22.6992-33.89844 32.1992-36.89844 3.3-1 5.1996-4.30117 4.0996-7.70117-0.8-2.4-3.1988-3.90039-5.7988-3.90039h-102.0996c-2.6 0-4.9008 1.50039-5.8008 3.90039-1.1 3.3 0.6992 6.59961 3.6992 7.59961 9.5 3.1 32.2012 13.10043 32.2012 36.90039v143.09961c0 5.49998-6.3996 8.40039-10.5996 4.90039l-150.4004-124.79883c-46.9-38.99992-113.4008-64.9016-157.3008-79.10156-9.7-3.1-16.3992 9.7008-8.1992 15.80078 1.4 1.1 2.9004 2.20078 4.4004 3.30078 50.0998 37.69992 55.5 91.69885 55.5 97.79883v201.70117c0 7.19998-5.9016 13.09961-13.1016 13.09961-16.8 0-54.3-27.30082-73.5-47.30078-18-18.79996-26.5988-44.80004-46.7988-68.5-16.1-18.79996-29.7012-25.79883-29.7012-25.79883 101.0998 0 104.1016-82.00119 104.1016-91.20117 0-13.69998-1e-4 -91.59961-126.6016-91.59961h-341.7988c-2.6 0-4.9008 1.50039-5.8008 3.90039-1.1 3.3 0.7012 6.69961 3.7012 7.59961 9.5 3.1 32.1992 13.10043 32.1992 36.90039v180.09961c0 62.19988-43.5004 83-78.4004 83-63.5998 0-88-37.49971-88-84.59961v-178.5c0-23.89996 22.7012-33.90039 32.2012-36.90039 2.5-0.8 4.0996-2.99961 4.0996-5.59961v-0.09961c0-3.2-2.6004-5.90039-5.9004-5.90039h-478.5c-7.1 0-13.7008 4.10002-16.8008 10.5l-18.7988 39c-3.2 6.69998 4.3996 13.29922 10.5996 9.19922 25.2-17.09996 67.5998-36.69961 129.5996-39.09961 6.8-0.2 12.4004 5.20002 12.4004 12v246.90039c0 11.69998-4.2992 20.79924-10.1992 27.69922-4.5 5.39998-11.3004 8.40039-18.4004 8.40039h-15.2012c-4.9 0-9.8996-1.29961-14.0996-4.09961-9.7-6.29998-18.8004-15.10002-24.4004-27.5l-134.2988-297.80078c-2.9-6.34998-8.7746-9.64922-14.7246-9.82422zm-519.8633 0.29883c-5.9625-0.175-12.0129 2.7758-15.2129 8.92578l-99.4004 188.69922c-5.1 9.79998-15.2988 15.90039-26.2988 15.90039h-123.2012c-4 0-7.9996 3.19961-8.5996 7.09961-0.8 5.09998 2.9008 9.50039 7.8008 9.90039 33.1 3 52.9992 25.10086 52.6992 60.80078-0.2 32.89994-27.6992 59.90039-60.6992 59.90039h-8.5996c-88.2998 0-92.1016-101.4016-92.1016-123.60156v-77.59961c0-38.09992 15.3014-104.90039 89.7012-104.90039 69.4998 0 108.499 32.00047 140.2988 74.40039 5.2 6.99998 16.3016 1.20037 13.6016-7.09961l-27.9004-87.40039c-2.7-8.39998-12.6012-12.1-20.2012-7.5-20.5 12.59998-32.5 10.5-32.5 10.5-10.1 0.3-42.1992-8.79883-81.1992-8.79883-62.1998 0-112.5004 24.6985-146.9004 57.89844-3.4 3.3-9.0988 2.20117-10.7988-2.29883l-15.4004-37.5c-3.2-7.79998-7.3012-12.80078-15.7012-12.80078h-177.1992v-0.09961h-92.19922c-5.89998 0-11.6-0.2-17.5-0.5-31.59994-1.7-142.60051-7.5-199.40039-7.5-71.19986 0-126.99961 22.30088-132.59961 74.80078-4.19998 39.49992 23.19846 60.10004 38.89844 74.5 8.49998 7.79998 48.50004 33.09963 69 42.59961 21.39996 9.89998 106.79998 52.69967 98 86.59961-8.79998 33.59994-37.70006 41.90039-71 41.90039-52.2999 0-108.40008-43.29969-150-82.09961-7.19998-6.79998-18.39842 1.60002-13.89844 10.5 17.19996 33.59994 39.19965 74.49965 53.59961 96.09961 4.1 6.09998 11.49924 9.09922 18.69922 7.19922 15.49996-3.9 35.6008-6.00039 47.80078-5.40039 15.69996 0.7 48.60004 5 63 5 119.79976 0 157.29922-31.49973 161.19922-86.09961 5.39998-75.09986-84.30051-125.10004-138.90039-147-48.7999-19.69996-67.69961-49.30004-65.59961-64 3.4-25.49996 27.70004-29.8 48-29 62.99988 2.4 181.80078 33.10086 181.80078 76.30078v200.5c0 11.19998-12.20121 31.40039-27.70117 31.40039h-0.29883c-2.8 0-5.59961 1-7.59961 3-5.39998 5.4-1.59998 11.69922 3.5 11.69922h322.29882c6.1 0 11.4008-3.6008 13.8008-9.30078l10.2988-25.09961c2-4.8 8.1-6.29883 12-2.79883 33.7 30.49994 83.1016 49.59961 150.6016 49.59961 15.7 0 48.3996-4.30041 63.5996-9.90039 4.8-1.7 9.9996-2.69922 15.0996-2.69922h146.9004c7.5 0 11.1-9.40039 5.5-14.40039-2.5-2.2-4.7008-4.20117-6.3008-5.70117-12-10.89998-11.4988-18.29963-11.7988-24.59961-0.3-6.19998 0.9984-12.30041 3.8984-17.90039l89.6016-170.19922 76.5 169.90039c2.6 5.69998 3.7988 11.89963 3.2988 18.09961-0.1 0.8-0.099 1.49961-0.1992 2.09961-1.4 7.99998-8.5996 24.20117-22.0996 24.20117h-2.2012c-3.3 0-6.5996 1.09883-9.0996 3.29883-7.5 6.69998-2.9008 15.09961 3.6992 15.09961h113.3008c5.2 0 9.4008-4.69963 8.3008-10.09961-0.5-2.4-2.7016-4.79883-5.6016-5.79883-9.6-3.6-29.0984-13.90162-41.3984-41.10156l-134.3008-297.79883c-2.85-6.34998-8.725-9.65117-14.6875-9.82617zm-1237.64258 23.7793c-31.26478-0.01504-69.995 3.84572-112.16992 10.8457 18.79996 10.79998 35.59924 24.80121 49.69922 41.20117 27.89994-3.3 53.00004-4.70039 73.5-3.90039 13.29998 0.5 24.40039-9.80002 24.90039-23 0.5-13.29998-9.80002-24.40039-23-24.90039-4.15-0.1625-8.46329-0.24395-12.92969-0.24609zm605.92968 25.54687h33.5c54.9 0 104.9996 31.49887 129.0996 52.29883 3.1 2.5 3.8016 7.20156 1.6016 10.60156-15.4 24.29996-23.8008 49.99965-23.8008 72.59961 0 30.09994 5.6008 59.60006 17.3008 86 2.6 5.79998 1.4 12.59961-3 17.09961-21.7 21.99996-69.1006 52.69922-136.9004 52.69922h-16.5996c-15.1 0-27.4004-12.19846-27.4004-27.39844v-97.20117c0-5.1 7.7004-11.49883 16.4004-9.79883 13.3 2.6 36.5988 10.89924 55.2988 21.69922 13.1 7.59998 24.9 15.5008 38.5 26.80078 6 4.9 15 0.59842 15-7.10156v-115.29883c0-7.69998-9.1-11.99959-15-7.09961-13.6 11.19998-25.4 19.09885-38.5 26.79883-18.6 10.69998-42.7004 21.99961-55.9004 25.09961-10.2 2.4-13.7992-1.60002-15.6992-5.5v-96.19922c0-14.39998 11.6996-26.09961 26.0996-26.09961zm-979.90038 59.69922c-50.9999 21.89996-100.298483 49.90045-122.898439 82.40039-18.299963 26.39994-15.1011598 49.10041-9.2011716 63.40039 14.9999696 36.29992 66.3997046 29.7992 114.5996106 18.69922 2.9-0.7 5.80078-1.39961 8.80078-2.09961-5.99998-14.59998-10.20039-30.20043-12.40039-46.40039-31.299938 7.99998-49.098847 10.10117-58.798829 9.20117-6.999986-0.6-8.601558-7.1-6.601562-11 0.699998-1.4 1.600783-3.00156 2.800781-4.60156 10.09998-14.59998 32.100452-30.69846 62.90039-46.89844 3.3-22.39996 10.39885-43.50121 20.79883-62.70117zm400.11328 0.0625c-17.31246-0.2625-37.96176 2.33789-62.01172 7.33789 6.99998 14.39998 12.19844 29.80043 15.39844 45.90039 32.19994-6.29998 48.70041-5.9 56.90039-4.5 4.59998 0.8 7.40039 5.60002 5.90039 10-2.3 6.49998-7.40039 12.89883-10.90039 16.79883-10.99998 12.29998-27.99965 25.10158-49.59961 37.60156-2.7 22.69996-9.40041 44.19926-19.40039 63.69922 47.0999-21.89996 83.40004-45.70043 104.5-69.40039 19.09996-21.39996 27-43.09965 23.5-64.59961-2.3-14.19998-9.99885-25.60002-22.29883-33-10.69998-6.44998-24.67582-9.57539-41.98828-9.83789zm-379.91211 210.53711c-29.59994 2.7-57.400831 3.50117-82.300781 2.20117-13.399972-0.7-24.69922 9.70002-25.199218 23-0.5 13.29998 9.999635 24.30039 23.099609 24.90039 8.699982 0.4 17.700409 0.59961 26.900391 0.59961 33.099939 0 69.198909-2.80119 106.798829-8.20117-18.79996-11.09998-35.39885-25.60004-49.29883-42.5z"/>
	<path d="m493.79999 402.89999a189.89999 189.89999 0 0 1-189.9 189.9 189.89999 189.89999 0 0 1-189.89999-189.9 189.89999 189.89999 0 0 1 189.89999-189.89999 189.89999 189.89999 0 0 1 189.9 189.89999z" fill="url(#SVGID_00000091736067609909437440000001882630711163093888_)"/>
	<defs><path id="SVGID_00000109720088547363056450000015815829782206789289_" d="m209.1 479.9c25.3-6.2 50.6-12 75.9-18 25.4-6 50.3-13.6 75-22 24.4-8.3 48.5-17.7 72.9-25.5 20.3-6.5 40.9-12.4 60.5-21-1.6-33.6-12-64.9-29-91.7-21.8 6.3-44 11.6-66.1 17.3-25.2 6.6-50.3 13.6-75.4 20.6-24.6 6.8-49.3 13.6-73.8 20.5-26.2 7.4-52.4 15.3-78.1 24.3-11 3.8-22 7.4-33.1 10.8-5.9 1.7-11.7 3.7-17.5 5.8-2.2 0.7-4.3 1.4-6.5 2.2 0 35 9.5 67.7 26 95.9 22.9-7.4 46-13.6 69.2-19.2z"/></defs>
	<clipPath id="SVGID_00000036216515100532978220000018007039294139945640_">
		<use xlink:href="#SVGID_00000109720088547363056450000015815829782206789289_"/>
	</clipPath>
	<path d="m99.4 574c-9.2 0-18.1-0.2-26.9-0.6-13.2-0.6-23.7-11.6-23.1-24.9 0.5-13.4 11.8-23.8 25.2-23 74.9 3.8 176.3-11 271.4-39.5 92.9-28 166.2-64.5 196-97.8 3.5-3.9 8.6-10.3 10.9-16.8 1.5-4.4-1.2-9.2-5.9-10-10-1.6-32.3-1.9-80.4 9.7-51 12.2-114.5 33.3-175.8 53.8-63.5 21.1-123.5 41.1-171.5 52.2-48.3 11.1-99.6 17.6-114.6-18.7-6-14.3-9.2-36.9 9.2-63.4 39.6-56.9 160.9-100 229.6-120.6 103.1-31.1 213.1-49.4 280.1-46.8 13.3 0.5 23.6 11.6 23 24.9-0.5 13.3-11.6 23.6-24.9 23-62.1-2.4-166 15.1-264.6 44.7-103.7 31.1-181.9 70.2-204 102-1.1 1.6-2.1 3.2-2.8 4.6-2.1 3.9-0.4 10.4 6.6 11 10.5 0.9 30.5-1.5 66.8-11.3 43.6-11.6 96.2-28.7 152-47.3 159.3-53.1 259.2-83.3 303.2-56.7 12.3 7.4 20.1 18.8 22.3 33 3.5 21.5-4.4 43.2-23.6 64.5-36 40.2-115.4 81-217.9 111.7-90.5 27.3-183.6 42.3-260.3 42.3z" clip-path="url(#SVGID_00000036216515100532978220000018007039294139945640_)"/>
	<path d="m303.80078 213c-72.19986 0-135.00162 40.29973-167.10156 99.59961 38.19992-16.39996 77.30123-29.29924 106.70117-38.19922 52.0999-15.69996 105.9001-28.10119 155-36.20117-27.79994-15.99998-60.09967-25.19922-94.59961-25.19922zm185.59961 23.30078-40.30078 11.59961c-14.19999 4.1-28.59884 7.79961-43.79883 11.59961-6.99999 1.8-13.90079 3.70039-20.80078 5.40039-21.69998 5.69999-43.3008 11.60001-64.30078 17.5l-12 3.29883c-7.39999 2-14.69962 4.00156-22.09961 6.10156-17.29998 4.7-35.20041 9.79922-52.90039 14.69922-22.89998 6.49999-49.79886 14.30079-76.79883 23.80078-11.39999 4-23.0004 7.79883-34.40039 11.29883-6.39999 2-13.20079 4.09961-20.30078 6.59961-0.8 0.3-1.59844 0.50078-2.398439 0.80078-0.899999 0.4-2.000001 0.7-3 1l-38.101562 12.80078v40.19922c0 43.59996 11.601584 86.49965 33.601562 124.09961l22.798829 38.30078 42.40039-13.40039c18.69998-5.89999 39.59964-11.60001 65.59961-18 16.59998-4.1 33.50002-8.10039 50-11.90039 8.49999-2 17.00001-3.9 25.5-6 24.69997-5.89999 50.89964-13.60001 80.09961-23.5 10.79999-3.6 21.50079-7.49922 31.80078-11.19922 13.89999-4.89999 27.00079-9.8 40.30078-14 3.7-1.1 7.3-2.4 11-3.5 17.69998-5.59999 36.09924-11.40001 54.69922-19.5l35.40039-15.40039-2-38.5c-2.1-41.99996-15.19963-83.09925-37.59961-118.69922l-22.40039-35.5zm-16.5 253.19922c-32.89994 15.29996-71.20047 29.7008-113.40039 42.30078-51.2999 15.39998-103.60088 26.99963-153.30078 34.09961 28.49994 17.09996 61.90164 27 97.60156 27 73.69986 0 137.69967-42.00051 169.09961-103.40039z" clip-path="url(#SVGID_00000126321013592003222760000013295353828220164492_)" fill="none"/>
</svg>
