<svg enable-background="new 0 0 3839 474.8" version="1.1" viewBox="0 0 3839 474.8" xml:space="preserve" xmlns="http://www.w3.org/2000/svg">
<path d="m380.30078 0c-90.04271 0-168.38367 50.14736-208.62305 124.03125-63.94747 27.37266-126.013203 62.3835-154.376949 103.16797-22.9999767 32.99997-18.8999924 61.30119-11.4999998 79.20117 18.8999808 45.49996 83.0984978 37.39999 143.3984388 23.5 3.65523-0.84679 7.53591-1.85816 11.30078-2.78516 9.05567 22.1586 21.32523 42.65977 36.29297 60.87696-37.04839 3.38532-72.0443 4.42819-103.29297 2.80859-16.699983-0.9-30.800001 12.09885-31.5 28.79883-0.599999 16.49998 12.500016 30.19961 29 31.09961 10.89999 0.5 22.09962 0.80078 33.59961 0.80078 41.45786 0 86.81541-3.53166 134.01172-10.26367 35.59054 21.29536 77.20338 33.56445 121.68945 33.56445 92.12047 0 171.93466-52.5235 211.28906-129.21875 58.86458-27.41671 104.31689-57.18211 130.81055-86.78125 23.99998-26.59997 33.99961-53.70003 29.59961-80.5-2.9-17.69998-12.50041-31.90118-27.90039-41.20117-26.7158-16.19433-69.99572-15.51727-130.04297-3.06641-8.95896-18.48996-20.28299-35.605318-33.51758-51.039059 35.01115-4.091227 66.4013-5.867813 92.06055-4.894532 16.49998 0.7 30.49961-12.198844 31.09961-28.798828 0.6-16.499983-12.19885-30.501563-28.79883-31.101562-41.49155-1.585071-96.2043 3.267433-156.58594 13.251953-34.77279-19.971559-75.0417-31.451172-118.01367-31.451172zm0 20c29.39997 0 57.79964 5.699621 84.59961 17.099609 25.89997 10.999989 49.09963 26.59963 69.09961 46.59961 16.24133 16.241327 29.59225 34.626251 39.89453 54.820311-60.79562 14.28157-136.84277 38.76335-228.99414 69.48047-65.7471 21.88426-127.67775 41.95699-180.27344 56.35742-1.10409-8.89558-1.72656-17.88118-1.72656-26.95703 0-29.29997 5.69962-57.79964 17.09961-84.59961 10.99999-25.89997 26.59963-49.10158 46.59961-69.101561 19.99998-19.99998 43.19963-35.699621 69.09961-46.59961 26.69997-11.299988 55.20159-17.099609 84.60156-17.099609zm1480.39842 57.099609c-31.6999 0-60.6996 26.500031-75.5996 57.000001-26 52.99995-50.5992 121.6997-75.1992 210.09961-4.3 15.59998 4.7988 31.7 20.2988 36 2.6 0.7 5.3004 1.10156 7.9004 1.10156 12.8 0 24.6012-8.5004 28.2012-21.40039 5.4-19.49998 10.8988-37.90041 16.2988-55.40039h156.2012c5.4 17.49998 10.7988 35.90041 16.2988 55.40039 4.3 15.59999 20.5 24.69882 36 20.29883 15.6-4.3 24.7008-20.50002 20.3008-36-24.6-88.39991-49.1996-157.09966-75.0996-210.09961-14.9-30.49997-43.9016-57.000001-75.6016-57.000001zm723.6016 0c-31.7 0-60.7016 26.500031-75.6016 57.000001-26 52.99995-50.5992 121.6997-75.1992 210.09961-4.3 15.59998 4.8008 31.7 20.3008 36 2.6 0.7 5.2984 1.10156 7.8984 1.10156 12.8 0 24.6012-8.5004 28.2012-21.40039 5.4-19.49998 10.8988-37.90041 16.2988-55.40039h156.3008c5.4 17.49998 10.8008 35.90041 16.3008 55.40039 4.3 15.59999 20.5 24.69882 36 20.29883 15.6-4.3 24.6988-20.50002 20.2988-36-24.7-88.39991-49.2992-157.09966-75.1992-210.09961-14.9-30.49997-43.8997-57.000001-75.5996-57.000001zm403.3984 0.59961c-15.7 0-28.3984 12.700406-28.3984 28.400391v175.40039c0 30.09997 16.1984 58.99963 44.3984 79.09961 25.7 18.39998 59.5001 28.5 95 28.5 35.5 0 69.2-10.10002 95-28.5 28.2-20.09998 44.4004-48.99964 44.4004-79.09961v-175.40039c0.2-15.699985-12.4992-28.400391-28.1992-28.400391s-28.4004 12.700406-28.4004 28.400391v175.40039c0 27.09997-38.5993 50.90039-82.6992 50.90039-44 0-82.7012-23.80042-82.7012-50.90039v-175.40039c0-15.699985-12.7004-28.400391-28.4004-28.400391zm-1432.2988 2.701172c-40.9 0-80.0008 15.400028-110.3008 43.499999-30.2 27.89997-47.5 65.59926-47.5 103.19922 0 48.39995 16.0996 90.30003 46.5996 121 28.9 29.09997 68.4012 45.09961 111.2012 45.09961 40.2 0 75.4992-11.60002 102.1992-33.5 22.2-18.19998 42.8-52.79967 45-114.59961v-0.79883-0.20117c-0.3 0-0.2988-0.09883-0.2988-0.29883 0-0.8-0.0016-1.60078-0.1016-2.30078 0-0.2 4e-4 -0.39961-0.0996-0.59961-0.1-0.8-0.1988-1.50078-0.2988-2.30078 0-0.2-0.1016-0.39961-0.1016-0.59961-0.2-0.7-0.2996-1.49922-0.5996-2.19922-0.1-0.2-0.0992-0.40156-0.1992-0.60156-0.2-0.7-0.5008-1.39961-0.8008-2.09961-0.1-0.2-0.1992-0.39961-0.1992-0.59961-0.3-0.7-0.6004-1.3-0.9004-2l-0.3008-0.59961c-0.4-0.6-0.6996-1.20078-1.0996-1.80078-0.1-0.2-0.2004-0.4-0.4004-0.5-0.4-0.6-0.7988-1.09922-1.2988-1.69922-0.1-0.2-0.3004-0.3-0.4004-0.5-0.5-0.5-0.9004-1.09961-1.4004-1.59961l-0.5-0.5c-0.5-0.5-1-1.00039-1.5-1.40039-0.2-0.1-0.4-0.30039-0.5-0.40039-0.5-0.4-1.0992-0.79922-1.6992-1.19922-0.2-0.1-0.3996-0.30039-0.5996-0.40039-0.6-0.4-1.1012-0.69961-1.7012-1.09961-0.2-0.1-0.4992-0.20039-0.6992-0.40039l-1.8008-0.90039c-0.3-0.1-0.5988-0.20078-0.7988-0.30078-0.6-0.2-1.2008-0.49961-1.8008-0.59961-0.3-0.1-0.6-0.19883-1-0.29883-0.6-0.2-1.1992-0.30039-1.6992-0.40039-0.4-0.1-0.7016-0.10117-1.1016-0.20117-0.6-0.1-1.0992-0.19883-1.6992-0.29883-0.4 0-0.7992-0.09961-1.1992-0.09961s-0.7016-0.10156-1.1016-0.10156h-0.5996-0.4004-109.1992c-15.9 0-28.9004 12.90041-28.9004 28.90039 0 15.89998 12.9004 28.90039 28.9004 28.90039h76.4004c-13.2 53.59995-55.8996 62.5-85.5996 62.5-58.9 0-100.1016-44.60045-100.1016-108.40039 0-46.59995 47.7016-89 100.1016-89 32.0999 0 55.8996 7.29963 82.0996 25.09961 13.2 8.99999 31.0996 5.50038 40.0996-7.59961 9-13.19999 5.5004-31.09962-7.5996-40.09961-35.7-24.299976-71.0001-35.099609-114.5-35.099609zm-537.5801 2.410156c-29.8419 0.178076-59.04454 3.057818-79.51952 8.789062-36.09996 8.599991-61.1 46.600821-58 88.800781v0.29883c3.8 46.89995 41.69927 82.60156 87.19922 82.60156h2.90039 26.29883 0.5 63.90038 1.2012c16-0.6 29.4984 12.19885 30.8984 29.29883 0.9 13.29999-5.6 26.6-14 28.5l-1.5996 0.40039c-37.6 10.69999-117.80041 7.89921-145.90038-2.30078-14.99999-5.4-31.49844 2.4004-36.89844 17.40039-5.39999 14.99998 2.39845 31.5004 17.39844 36.90039 22.69998 8.19999 60.80082 12.40039 98.30078 12.40039 30.8 0 61.2008-2.90079 82.3008-8.80078 36.0999-8.59999 61.1-46.59887 58-88.79883v-0.30078c-3.8-46.89995-41.7012-82.59961-87.2012-82.59961h-2.9004-26.2988-0.5-63.9004-1.19922c-15.99998 0.6-29.50039-12.2008-30.90039-29.30078-0.9-13.29999 5.60001-26.6 14-28.5l1.59961-0.40039c37.59996-10.69999 117.8004-7.89921 145.9004 2.30078 15 5.39999 31.5004-2.40041 36.9004-17.40039 5.4-14.99999-2.4004-31.5004-17.4004-36.900391-23.2875-8.381242-62.7119-12.617627-101.0801-12.388672zm1279.4004 0c-29.8419 0.178076-59.0465 3.057818-79.5215 8.789062-36.0999 8.599991-61.1 46.600821-58 88.800781v0.29883c3.8 46.89995 41.7012 82.60156 87.2012 82.60156h2.9004 26.2988 0.5 63.9004 1.1992c16-0.6 29.5004 12.19885 30.9004 29.29883 0.9 13.29999-5.6 26.6-14 28.5l-1.5996 0.40039c-37.6 10.69999-117.8004 7.89921-145.9004-2.30078-15-5.4-31.5004 2.4004-36.9004 17.40039-5.4 14.99998 2.4004 31.5004 17.4004 36.90039 22.7 8.19999 60.8008 12.40039 98.3008 12.40039 30.8 0 61.1988-2.90079 82.2988-8.80078 36.1-8.59999 61.1-46.59887 58-88.79883v-0.30078c-3.8-46.89995-41.6992-82.59961-87.1992-82.59961h-2.9004-26.2988-0.5-63.9004-1.2012c-16 0.6-29.4984-12.2008-30.8984-29.30078-0.9-13.29999 5.6-26.6 14-28.5l1.5996-0.40039c37.6-10.69999 117.8004-7.89921 145.9004 2.30078 15 5.39999 31.4984-2.40041 36.8984-17.40039 5.4-14.99999-2.3984-31.5004-17.3984-36.900391-23.2875-8.381242-62.7119-12.617627-101.0801-12.388672zm-1092.7207 7.089844c-15.9 0-28.9004 12.900409-28.9004 28.900389v235.89844c0 15.89998 12.9004 28.90039 28.9004 28.90039h164.4004c15.9 0 28.9004-12.90041 28.9004-28.90039-0.1-15.79999-13.0004-28.69922-28.9004-28.69922h-135.5v-65.19922h94.7988c15.9 0 28.9004-12.90041 28.9004-28.90039 0-15.89998-12.9004-28.90039-28.9004-28.90039h-94.7988v-55.30078h135.5c15.9 0 28.9004-12.89845 28.9004-28.89844 0-15.89998-12.9004-28.900389-28.9004-28.900389h-164.4004zm1514.6992 0.199218c-15.9 0-28.8984 12.900411-28.8984 28.900391 0 15.89998 12.8984 28.90039 28.8984 28.90039h67.1016v207c0 15.89998 12.8984 28.90039 28.8984 28.90039s28.9004-12.90041 28.9004-28.90039v-207h67.0996c15.9 0 28.9004-12.90041 28.9004-28.90039-0.1-15.89998-13-28.900391-29-28.900391h-191.9004zm717.7012 0c-30.4 0-64.6012 0.500392-93.7012 1.400391-47.7999 1.499999-51.1992 2.700392-55.6992 4.400391-11.4 4.099999-19 14.900009-19 26.999999v230.40039c0 16.39998 13.6992 29.59883 30.1992 28.79883 15.5-0.7 27.5-14.09963 27.5-29.59961v-202.59961c25.3-1 67.2012-2.09961 110.7012-2.09961 16.2 0 28.4996 4.39962 36.5996 13.09961 8.2 8.79999 9.8 19.19961 9.5 24.09961-0.7 8.89999-3.1008 35.19922-50.3008 35.19922h-24.6992c-12.7 0-24.4996 7.20079-29.5996 18.80078-5.4 12.29999-2.5012 26.49962 7.2988 35.59961l108.6016 101.80078c5.6 5.2 12.6992 7.79883 19.6992 7.79883 7.7 0 15.3996-3.09962 21.0996-9.09961 10.9-11.59999 10.3012-29.89884-1.2988-40.79883l-66.2012-63.10156c-1.9-1.8-0.7996-5.09883 1.9004-5.29883 52.6999-3.3 68.3996-42.80042 71.0996-76.40039v-0.30078c1.7-23.79998-7.5988-49.09963-24.7988-67.59961-13.4-14.39999-37.9005-31.500001-78.9004-31.500001zm373.6992 0.5c-15.7 0-28.4004 12.700411-28.4004 28.400391v161.69922l-162.5-180.69922c-7.9-8.799991-20.2988-11.799996-31.2988-7.5-11 4.199996-18.2012 14.80001-18.2012 26.5v235.90039c0 15.69998 12.7004 28.40039 28.4004 28.40039s28.4004-12.70041 28.4004-28.40039v-161.70117l162.5 180.70117c5.5 6.09999 13.1996 9.40039 21.0996 9.40039 3.4 0 6.9012-0.60039 10.2012-1.90039 11-4.2 18.1992-14.80001 18.1992-26.5v-235.90039c0-15.69998-12.7004-28.400391-28.4004-28.400391zm-1950 45.000001c9.5 0 17.8996 13.60118 23.0996 24.20117 12.2 24.89998 24.1 53.69847 36 86.89844h-118.0996c11.9-33.19997 23.8-62.09846 36-86.89844 5.2-10.59999 13.6-24.20117 23-24.20117zm723.7012 0.09961c9.5 0 17.8996 13.60118 23.0996 24.20117 12.2 24.89998 24.1 53.70042 36 86.90039h-118.0996c11.9-33.19997 23.8-62.10041 36-86.90039 5.2-10.59999 13.6-24.20117 23-24.20117zm-1912.68361 48.66406c5.3078 0.09844 9.38242 0.51211 12.48242 1.03711 5.79999 1 9.30078 7.00001 7.30078 12.5-2.9 7.99999-9.19961 16.0004-13.59961 20.90039-13.70053 15.31236-35.03009 31.09626-61.8164 46.72461 1.09059-9.23027 1.71484-18.60177 1.71484-28.125 0-15.87073-1.58751-31.36794-4.5586-46.36719 27.72365-5.35777 46.43972-6.89315 58.47657-6.66992zm-78.05469 10.79688c2.73091 13.82083 4.13672 27.93311 4.13672 42.24023 0 29.29997-5.69962 57.79964-17.09961 84.59961-10.99999 25.89997-26.59963 49.09963-46.59961 69.09961s-43.19964 35.69962-69.09961 46.59961c-26.79997 11.29999-55.29964 17.10156-84.59961 17.10156s-57.80159-5.70157-84.60156-17.10156c-25.89998-10.99999-49.09963-26.59963-69.09961-46.59961-19.97191-19.97191-35.65264-43.13613-46.55078-68.99219 54.05218-14.44581 117.2823-35.44084 183.65039-57.50781 76.69992-25.59998 156.00045-51.99923 219.90039-67.19922 3.5532-0.85135 6.63068-1.48898 9.96289-2.24023zm-448.13281 7.69922c-1.64513 11.27962-2.5293 22.80547-2.5293 34.54101 0 10.89516 0.79915 21.5977 2.2207 32.10352-38.77315 9.82125-61.675721 12.70672-73.720699 11.69531-8.699992-0.8-10.800779-8.79883-8.300782-13.79883 0.899999-1.8 2.100002-3.70078 3.5-5.80078 12.714107-18.31543 40.276401-38.52807 78.830081-58.74023z"/>
</svg>
