<svg xmlns="http://www.w3.org/2000/svg" width="566.93" height="64.168" viewBox="-110.047 5.731 566.93 64.168" xml:space="preserve"><path fill="#fff" d="M-96.884 37.078a56.354 56.354 0 0 1 8.511-5.267c3.43-1.837 7.289-3.489 11.575-5.143v.062a155.033 155.033 0 0 1 13.348-4.348c4.716-1.348 9.368-2.45 14.022-3.245a101.05 101.05 0 0 1 13.533-1.716c4.409-.367 9.435-.025 10.701.062 1.267.087 3.075-.183 3.871-.795.797-.673 1.225-1.471 1.347-2.449a3.477 3.477 0 0 0-.794-2.696c-.674-.795-2.143-1.284-3.123-1.346-3.92-.43-7.654-.43-12.491-.124-4.533.306-9.309.918-14.39 1.837-4.838.857-9.738 2.021-14.636 3.368a163.528 163.528 0 0 0-13.96 4.53c-4.592 1.778-9.555 4.026-12.37 5.452-2.815 1.425-6.441 3.472-9.506 6-3.064 2.527-4.362 3.736-6.415 6.918s-2.524 6.79-1.26 8.951c3.253 5.562 14.854 3.739 19.264 2.882a186.836 186.836 0 0 0 13.104-3.199 621.408 621.408 0 0 0 14.511-4.654l14.574-4.775c5.327-1.775 9.673-3.124 13.043-4.042 4.103-1.225 11.39-2.961 15.14-2.281-.188 2.35-3.106 8.643-16.123 14.466-4.838 2.205-10.225 4.226-16.166 6.185h-.061c-4.59 1.469-9.305 2.756-14.144 3.919-4.715 1.104-9.125 1.899-13.35 2.573l.062-.062c-6.645.927-16.2.102-18.088.349-3.737.238-4.646 2.591-4.686 3.612-.04 1.018-.09 3.406 4.887 3.715 4.978.309 9.625.721 18.929-.39 5.774-.851 9.062-1.53 13.899-2.632h.062c5.022-1.225 9.92-2.573 14.696-4.104 6.246-1.958 11.941-4.163 17.021-6.489 11.423-5.124 15.536-9.808 18.213-13.834 2.678-4.026 3.654-9.559.876-12.157-3.182-2.977-9.235-2.445-11.314-2.248-2.971.283-7.407.991-11.876 2.276-3.428.98-7.839 2.328-13.35 4.166L-64.37 35.18c-5.817 1.899-10.533 3.43-14.267 4.531-4.96 1.472-9.063 2.573-12.494 3.247-7.83 1.803-10.348.794-10.348.794-.105-2.243 2.502-5.092 4.595-6.674z"/><path fill="#fff" d="M-60.065 69.899c-17.691 0-32.083-14.393-32.083-32.084 0-17.692 14.393-32.084 32.083-32.084S-27.98 20.124-27.98 37.815c0 17.691-14.394 32.084-32.085 32.084zm0-62.457c-16.748 0-30.373 13.625-30.373 30.374 0 16.748 13.625 30.373 30.373 30.373s30.373-13.625 30.373-30.373c0-16.75-13.625-30.374-30.373-30.374zM44.927 22.673a4.077 4.077 0 0 0-2.308-1.849c-17.517-4.916-28.813-4.21-33.816 2.236-1.798 2.107-2.889 4.15-3.21 6.255-.387 2.105-.13 4.085.832 6.002h-.066c.708 1.465 1.798 2.805 3.211 4.02h.064a16.5 16.5 0 0 0 3.785 2.364c.96.509 3.209.828 6.801.891.708.065 2.056.065 4.107.065 1.797.065 3.211.065 4.235.127h.065c3.209.066 6.467.377 7.51.7 1.039.326 2.868 2.22 3.011 3.07.148.842 0 0 0 0 .194.508.387.645.204 1.937-.188 1.292-.584 1.062-1.099 1.701v-.068c-.58.511-1.541.893-2.888 1.279-1.922.451-4.236.767-6.93.831-2.696.064-5.39 0-8.149-.319-2.631-.321-4.94-.771-6.867-1.342-.961-.316-1.987-.254-2.889.258-.96.447-1.604 1.212-1.923 2.233-.321.956-.192 1.977.253 2.934a4.06 4.06 0 0 0 2.249 1.853c2.309.762 5.068 1.271 8.277 1.659 3.147.318 6.223.447 9.305.381 3.339-.129 6.227-.508 8.6-1.083 3.335-.833 5.648-2.109 6.866-3.768h.064c1.025-1.28 1.794-2.431 2.244-3.453v-.065c.516-1.272.772-2.552.772-3.889v-.131c-.064-.956.017-2.356-.497-3.698-.193-.7-.381-1.087-1.413-3.317-1.035-2.223-3.42-3.646-7.592-4.537h-.063c-2.054-.386-5.005-.705-8.79-.831-1.09-.066-2.567-.066-4.492-.131-1.923 0-3.27 0-3.979-.064-2.052-.06-3.399-.127-3.913-.252-.708-.321-1.348-.703-1.863-1.15-.574-.511-1.025-1.021-1.283-1.529v-.066a1.493 1.493 0 0 1-.194-1.28c.194-.829.644-1.719 1.477-2.551 3.849-3.701 12.449-3.701 25.86.129 1.031.253 1.992.192 2.888-.382.966-.508 1.605-1.277 1.863-2.298.325-.952.198-1.913-.319-2.872zm37.758-3.236c-.772-.703-1.669-1.086-2.759-1.086h-25.67a3.801 3.801 0 0 0-2.696 1.086c-.769.763-1.153 1.662-1.153 2.745v31.921c0 1.021.386 1.982 1.153 2.682.708.772 1.668 1.151 2.696 1.151h25.67c1.09 0 1.987-.381 2.759-1.151.705-.7 1.091-1.661 1.091-2.682 0-1.088-.386-1.978-1.091-2.749-.772-.7-1.669-1.086-2.759-1.086H58.109v-8.295h16.04c1.09 0 1.987-.381 2.759-1.149A3.773 3.773 0 0 0 78 38.141c0-1.084-.387-1.978-1.092-2.745-.772-.709-1.669-1.09-2.759-1.09h-16.04V26.01h21.816c1.09 0 1.987-.387 2.759-1.151.705-.705 1.091-1.593 1.091-2.682 0-1.079-.386-1.977-1.09-2.74zM127 23.954a4.089 4.089 0 0 0-1.598-2.63c-7.044-5.06-14.765-6.021-22.228-4.71-2.943.69-3.896.621-7.111 2.215-3.209 1.588-5.445 4.54-5.445 4.54-1.536 1.666-2.369 3.699-3.395 6.394s-1.021 4.032-1.149 7.357c-.128 3.329.317 6.38 1.277 9.286.96 2.915 2.433 5.481 4.421 7.629v-.075a18.324 18.324 0 0 0 7.044 5.058c2.754 1.18 5.765 1.805 9.029 1.805 7.684 0 13.262-1.739 16.72-5.2 4.035-3.533 5.698-8.865 5.059-16.001-.064-1.109-.509-1.946-1.218-2.704-.767-.695-1.599-1.042-2.627-1.042h-16.651a3.653 3.653 0 0 0-2.695 1.177c-.767.831-1.151 1.797-1.151 2.979 0 1.109.384 2.147 1.151 2.908a3.493 3.493 0 0 0 2.695 1.245h12.813c-.258 2.08-1.092 3.818-2.374 5.129-2.496 2.148-6.401 3.187-11.718 3.187-2.244 0-4.358-.414-6.213-1.177l-.065-.068c-1.668-.695-3.074-1.666-4.294-3.051-1.214-1.315-2.115-2.911-2.689-4.64-.64-1.871-.897-3.949-.831-6.167.063-2.354.321-3.633.766-5.224.324-1.182.833-2.148 1.538-2.911 0 0 1.146-1.779 3.077-2.74 1.932-.966 3.33-1.247 5.7-1.872h.065c5.64-1.385 11.018-.208 16.208 3.601.893.625 1.854.831 2.875.625 1.028-.276 1.858-.833 2.437-1.802.577-.901.77-1.94.577-3.121zm48.494 33.673c.642-.893.895-1.784.769-2.871-4.042-26.623-11.292-39.648-21.816-39.008-10.519-.64-17.839 11.939-21.755 37.729-.131 1.021.066 1.979.71 2.813.64.891 1.473 1.4 2.499 1.531 1.029.187 1.99-.069 2.888-.709.832-.637 1.351-1.465 1.542-2.491a156.442 156.442 0 0 1 1.58-8.874h24.915c.647 3.069 1.25 6.45 1.803 10.146.192 1.021.643 1.854 1.539 2.494.832.64 1.797.891 2.824.698 1.025-.115 1.858-.625 2.502-1.458zm-31.676-19.532c2.808-9.447 6.36-14.34 10.625-14.684 4.137.339 7.647 5.237 10.461 14.684h-21.086zm92.857-15.763c-.578-.964-1.358-1.543-2.328-1.865-17.665-4.957-29.056-4.249-34.102 2.255-1.813 2.123-2.913 4.183-3.238 6.308-.39 2.123-.13 4.117.84 6.05h-.065c.714 1.48 1.814 2.829 3.238 4.054h.064a16.592 16.592 0 0 0 3.818 2.383c.969.517 3.236.838 6.857.901.716.063 2.075.063 4.141.063 1.815.066 3.239.066 4.272.132h.065c3.236.067 6.521.379 7.574.703 1.047.333 2.895 2.241 3.038 3.099.149.853 0 0 0 0 .193.513.391.648.202 1.951-.188 1.309-.589 1.073-1.107 1.718v-.065c-.585.512-1.555.895-2.913 1.287-1.938.452-4.271.773-6.99.836-2.719.069-5.435 0-8.218-.319-2.65-.323-4.979-.774-6.922-1.354-.972-.321-2.005-.252-2.913.258-.972.455-1.619 1.221-1.94 2.251-.323.964-.193 1.994.255 2.958a4.08 4.08 0 0 0 2.269 1.87c2.326.77 5.11 1.286 8.349 1.675 3.171.319 6.273.45 9.381.385 3.368-.129 6.28-.517 8.674-1.096 3.36-.84 5.695-2.123 6.924-3.798h.065c1.035-1.288 1.81-2.451 2.265-3.48v-.066c.52-1.286.778-2.572.778-3.924v-.129c-.064-.964.02-2.374-.5-3.731-.195-.707-.386-1.096-1.424-3.341-1.046-2.245-3.452-3.681-7.657-4.578h-.066c-2.068-.39-5.046-.708-8.861-.836-1.101-.063-2.588-.063-4.531-.133-1.939 0-3.298 0-4.013-.065-2.068-.058-3.428-.128-3.946-.253-.714-.327-1.358-.711-1.879-1.16-.58-.514-1.034-1.03-1.294-1.542v-.066a1.504 1.504 0 0 1-.194-1.288c.194-.836.649-1.736 1.488-2.572 3.883-3.736 12.555-3.736 26.077.131 1.041.253 2.01.192 2.913-.387.975-.513 1.619-1.291 1.88-2.32.323-.967.194-1.936-.326-2.9zm10.515 37.579c.842-.646 1.362-1.483 1.554-2.513.49-3.229 1.023-6.215 1.594-8.944h25.132c.654 3.095 1.257 6.504 1.813 10.232.194 1.03.645 1.87 1.553 2.511.841.643 1.81.902 2.848.708 1.035-.13 1.875-.646 2.522-1.479.645-.905.906-1.807.776-2.898-4.075-26.844-11.391-39.977-22.002-39.332-10.612-.645-17.925 12.04-21.938 38.046-.193 1.03.065 1.994.71 2.833.65.904 1.488 1.42 2.528 1.543 1.101.194 2.004-.061 2.91-.707zm5.074-19.186c2.835-9.525 6.42-14.456 10.72-14.803 4.21.336 7.739 5.277 10.559 14.803h-21.279zm65.916-19.507c-.775-.706-1.684-1.093-2.782-1.093H281.75c-1.038 0-2.008.387-2.722 1.093-.774.774-1.163 1.675-1.163 2.769 0 1.03.39 1.994 1.163 2.705.714.778 1.684 1.161 2.722 1.161h12.939v29.609c0 1.033.39 1.999 1.164 2.708.714.774 1.684 1.16 2.719 1.16 1.104 0 2.009-.387 2.781-1.16.715-.709 1.104-1.675 1.104-2.708V27.851h12.94c1.099 0 2.007-.385 2.781-1.159.714-.711 1.1-1.675 1.1-2.705.002-1.093-.384-1.994-1.098-2.769zm45.34-.769c-.775-.774-1.682-1.158-2.783-1.158-1.035 0-2.004.384-2.717 1.158-.776.704-1.166 1.673-1.166 2.703v19.117c0 1.485-.258 2.9-.836 4.188-.52 1.349-1.361 2.445-2.334 3.475-1.035.964-2.134 1.804-3.491 2.318-1.293.58-2.719.834-4.207.834h-5.76c-1.487 0-2.847-.251-4.205-.834-1.359-.514-2.456-1.354-3.492-2.318-.974-1.03-1.749-2.125-2.333-3.414v-.061c-.512-1.288-.836-2.703-.836-4.188V23.151c0-1.03-.391-1.999-1.102-2.703-.781-.774-1.68-1.158-2.782-1.158-1.032 0-2.008.384-2.717 1.158-.78.704-1.165 1.673-1.165 2.703v19.117c0 2.516.515 4.895 1.425 7.212h.063c.906 2.255 2.265 4.183 3.948 5.924 1.744 1.673 3.688 3.024 5.949 3.993 2.27.964 4.663 1.415 7.252 1.415h5.759c2.588 0 4.983-.451 7.313-1.415h-.066c2.263-.969 4.205-2.32 5.957-3.993 1.678-1.741 3.038-3.669 4.012-5.924v.066c.97-2.32 1.427-4.699 1.427-7.278V23.151c-.011-1.029-.4-1.999-1.113-2.702zm5.215.038c-.686.704-1.099 1.534-1.099 2.554v33.25c0 1.02.413 1.979 1.168 2.685a4.3 4.3 0 0 0 2.961 1.149c1.168 0 2.131-.385 2.89-1.149a3.46 3.46 0 0 0 1.238-2.685v-29.67c8.881-.508 15.687-.061 20.435 1.281 3.579 1.085 5.506 2.875 5.709 5.37.07 1.981-.754 3.39-2.476 4.225-2.755 1.151-6.814 1.47-12.176.892-.964-.066-1.792.065-2.619.574-.826.445-1.377 1.085-1.721 1.92-.345.767-.345 1.593-.136 2.427.273.835.828 1.47 1.586 1.98l20.647 14.067c.894.631 1.923.892 3.027.701 1.169-.13 2.064-.64 2.751-1.54.621-.83.896-1.789.761-2.811-.209-1.088-.761-1.916-1.655-2.558l-10.941-7.417c1.586-.379 2.958-.834 4.131-1.404 4.681-2.18 7.022-5.881 7.095-11.063.272-6.134-3.583-10.354-11.422-12.66-6.127-1.916-15.282-2.366-27.462-1.404-1.034.069-1.929.514-2.692 1.286zm47.804.665c-.456.646-.71 1.356-.71 2.189v33.478c0 1.032.385 1.999 1.162 2.703.711.774 1.681 1.159 2.718 1.159 1.101 0 2.005-.384 2.779-1.159.713-.704 1.103-1.67 1.103-2.703v-23.88l25.688 26.521c.585.577 1.227.966 2.01 1.156.774.129 1.485.063 2.262-.19.716-.327 1.293-.774 1.75-1.48.454-.645.648-1.354.648-2.128V23.341c0-1.093-.39-1.994-1.105-2.768-.775-.704-1.677-1.097-2.78-1.097a3.857 3.857 0 0 0-2.718 1.097c-.775.774-1.164 1.675-1.164 2.768v23.885l-25.623-26.587c-.585-.512-1.23-.897-2.01-1.095-.773-.125-1.553-.063-2.262.26-.715.256-1.358.708-1.748 1.348z"/></svg>