<svg width="566.93" height="64.168" version="1.1" viewBox="-110.047 5.731 566.93 64.168" xmlns="http://www.w3.org/2000/svg">
 <defs>
  <linearGradient id="d" x1="5.563" x2="46.188" y1="-255.808" y2="-215.183" gradientTransform="matrix(1 0 0 -1 -.135 -195.72)" gradientUnits="userSpaceOnUse">
   <stop stop-color="#999" offset="0"/>
   <stop stop-color="#f3f3f3" offset=".98"/>
  </linearGradient>
  <linearGradient id="e" x1="48.721" x2="88.273" y1="-252.367" y2="-212.815" gradientTransform="matrix(1 0 0 -1 -.135 -195.72)" gradientUnits="userSpaceOnUse">
   <stop stop-color="#999" offset="0"/>
   <stop stop-color="#f3f3f3" offset=".98"/>
  </linearGradient>
  <linearGradient id="f" x1="86.33" x2="129.864" y1="-256.558" y2="-213.023" gradientTransform="matrix(1 0 0 -1 -.135 -195.72)" gradientUnits="userSpaceOnUse">
   <stop stop-color="#999" offset="0"/>
   <stop stop-color="#f3f3f3" offset=".98"/>
  </linearGradient>
  <linearGradient id="g" x1="136.455" x2="179.076" y1="-258.244" y2="-215.624" gradientTransform="matrix(1 0 0 -1 -.135 -195.72)" gradientUnits="userSpaceOnUse">
   <stop stop-color="#999" offset="0"/>
   <stop stop-color="#f3f3f3" offset=".98"/>
  </linearGradient>
  <linearGradient id="h" x1="196.219" x2="237.957" y1="-256.54" y2="-214.802" gradientTransform="matrix(1 0 0 -1 -.135 -195.72)" gradientUnits="userSpaceOnUse">
   <stop stop-color="#999" offset="0"/>
   <stop stop-color="#f3f3f3" offset=".98"/>
  </linearGradient>
  <linearGradient id="i" x1="244.29" x2="289.43" y1="-261.638" y2="-216.497" gradientTransform="matrix(1 0 0 -1 -.135 -195.72)" gradientUnits="userSpaceOnUse">
   <stop stop-color="#999" offset="0"/>
   <stop stop-color="#f3f3f3" offset=".98"/>
  </linearGradient>
  <linearGradient id="j" x1="275.256" x2="317.46" y1="-251.484" y2="-209.28" gradientTransform="matrix(1 0 0 -1 -.135 -195.72)" gradientUnits="userSpaceOnUse">
   <stop stop-color="#999" offset="0"/>
   <stop stop-color="#f3f3f3" offset=".98"/>
  </linearGradient>
  <linearGradient id="k" x1="319.359" x2="362.029" y1="-255.396" y2="-212.727" gradientTransform="matrix(1 0 0 -1 -.135 -195.72)" gradientUnits="userSpaceOnUse">
   <stop stop-color="#999" offset="0"/>
   <stop stop-color="#f3f3f3" offset=".98"/>
  </linearGradient>
  <linearGradient id="l" x1="367.937" x2="410.911" y1="-257.279" y2="-214.305" gradientTransform="matrix(1 0 0 -1 -.135 -195.72)" gradientUnits="userSpaceOnUse">
   <stop stop-color="#999" offset="0"/>
   <stop stop-color="#f3f3f3" offset=".98"/>
  </linearGradient>
  <linearGradient id="m" x1="414.898" x2="456.637" y1="-256.934" y2="-215.196" gradientTransform="matrix(1 0 0 -1 -.135 -195.72)" gradientUnits="userSpaceOnUse">
   <stop stop-color="#999" offset="0"/>
   <stop stop-color="#f3f3f3" offset=".98"/>
  </linearGradient>
 </defs>
 <radialGradient id="a" cx="-90.552" cy="191.281" r="110.801" gradientTransform="matrix(1 0 0 -1 -.045 199.76)" gradientUnits="userSpaceOnUse">
  <stop stop-color="#fff" offset="0"/>
  <stop offset="1"/>
 </radialGradient>
 <path d="M-96.884 37.078a56.354 56.354 0 0 1 8.511-5.267c3.43-1.837 7.289-3.489 11.575-5.143v.062a155.033 155.033 0 0 1 13.348-4.348c4.716-1.348 9.368-2.45 14.022-3.245a101.05 101.05 0 0 1 13.533-1.716c4.409-.367 9.435-.025 10.701.062 1.267.087 3.075-.183 3.871-.795.797-.673 1.225-1.471 1.347-2.449a3.477 3.477 0 0 0-.794-2.696c-.674-.795-2.143-1.284-3.123-1.346-3.92-.43-7.654-.43-12.491-.124-4.533.306-9.309.918-14.39 1.837-4.838.857-9.738 2.021-14.636 3.368a163.528 163.528 0 0 0-13.96 4.53c-4.592 1.778-9.555 4.026-12.37 5.452-2.815 1.425-6.441 3.472-9.506 6-3.064 2.527-4.362 3.736-6.415 6.918s-2.524 6.79-1.26 8.951c3.253 5.562 14.854 3.739 19.264 2.882a186.836 186.836 0 0 0 13.104-3.199 621.408 621.408 0 0 0 14.511-4.654l14.574-4.775c5.327-1.775 9.673-3.124 13.043-4.042 4.103-1.225 11.39-2.961 15.14-2.281-.188 2.35-3.106 8.643-16.123 14.466-4.838 2.205-10.225 4.226-16.166 6.185h-.061c-4.59 1.469-9.305 2.756-14.144 3.919-4.715 1.104-9.125 1.899-13.35 2.573l.062-.062c-6.645.927-16.2.102-18.088.349-3.737.238-4.646 2.591-4.686 3.612-.04 1.018-.09 3.406 4.887 3.715 4.978.309 9.625.721 18.929-.39 5.774-.851 9.062-1.53 13.899-2.632h.062c5.022-1.225 9.92-2.573 14.696-4.104 6.246-1.958 11.941-4.163 17.021-6.489 11.423-5.124 15.536-9.808 18.213-13.834 2.678-4.026 3.654-9.559.876-12.157-3.182-2.977-9.235-2.445-11.314-2.248-2.971.283-7.407.991-11.876 2.276-3.428.98-7.839 2.328-13.35 4.166L-64.37 35.18c-5.817 1.899-10.533 3.43-14.267 4.531-4.96 1.472-9.063 2.573-12.494 3.247-7.83 1.803-10.348.794-10.348.794-.105-2.243 2.502-5.092 4.595-6.674z" fill="url(#a)"/>
 <path d="M-89.039 66.582c-2.612 0-4.834-.14-6.982-.277l-.958-.06c-5.437-.338-5.325-3.213-5.288-4.158.05-1.282 1.178-3.774 5.086-4.023.244-.033.653-.049 1.261-.049.772 0 1.793.027 2.976.058 1.584.042 3.554.094 5.569.094 3.388 0 6.086-.147 8.25-.449a.446.446 0 0 1 .2.02c4.92-.79 9.074-1.593 13.05-2.524 5.12-1.231 9.737-2.51 14.11-3.91a.435.435 0 0 1 .123-.021c6.267-2.067 11.52-4.079 16.057-6.146 11.518-5.152 15.31-10.859 15.822-13.718a12.083 12.083 0 0 0-1.499-.084c-3.648 0-9.128 1.248-13.042 2.416-3.333.908-7.713 2.266-13.029 4.037l-14.577 4.777a622.037 622.037 0 0 1-14.519 4.657 188.167 188.167 0 0 1-13.142 3.208c-3.388.658-6.46.992-9.137.992-5.439 0-9-1.372-10.583-4.077-1.363-2.331-.854-6.107 1.27-9.398 2.082-3.228 3.438-4.488 6.502-7.016 2.497-2.059 5.721-4.095 9.584-6.052 2.685-1.359 7.712-3.65 12.409-5.468a164.752 164.752 0 0 1 14.001-4.544c5.355-1.472 10.155-2.576 14.674-3.377 5.152-.931 9.875-1.534 14.437-1.842a96.909 96.909 0 0 1 6.101-.217c2.25 0 4.365.112 6.466.342 1.083.068 2.658.615 3.402 1.494a3.904 3.904 0 0 1 .893 3.022c-.138 1.102-.627 1.993-1.496 2.726-.941.726-2.879.985-4.175.896a90.824 90.824 0 0 0-6.196-.228c-1.632 0-3.126.056-4.441.165-4.425.253-8.958.828-13.487 1.709-4.464.763-9.036 1.821-13.986 3.236a154.638 154.638 0 0 0-13.315 4.337.414.414 0 0 1-.217.022c-4.686 1.814-8.283 3.417-11.306 5.036a55.854 55.854 0 0 0-8.455 5.231c-2.085 1.577-4.284 4.076-4.419 6.008.336.074 1.003.178 2.087.178 2.064 0 4.666-.359 7.733-1.064 3.173-.624 7.014-1.622 12.468-3.24 3.711-1.095 8.448-2.632 14.255-4.527L-49.929 30c4.874-1.625 9.371-3.028 13.366-4.17 5.406-1.554 10.16-2.119 11.953-2.291a32.827 32.827 0 0 1 3.149-.168c3.845 0 6.704.851 8.499 2.529 3.058 2.862 1.864 8.683-.813 12.707-2.825 4.246-7.008 8.88-18.395 13.987-5.313 2.432-11.056 4.622-17.068 6.507-4.572 1.465-9.389 2.81-14.724 4.11a.383.383 0 0 1-.101.013h-.015c-5.003 1.14-8.206 1.791-13.885 2.627-4.183.499-7.699.731-11.076.731zm-6.881-7.713c-.562 0-.948.015-1.179.045-3.328.213-4.274 2.189-4.314 3.206-.037.969-.116 2.985 4.486 3.27l.959.062c2.135.136 4.342.276 6.928.276 3.342 0 6.827-.231 10.964-.725 5.657-.833 8.847-1.484 13.854-2.625a.432.432 0 0 1 .095-.01h.011c5.295-1.292 10.076-2.627 14.618-4.083 5.981-1.875 11.691-4.052 16.974-6.471 11.192-5.02 15.282-9.542 18.035-13.682 2.517-3.784 3.557-9.16.941-11.608-1.631-1.525-4.293-2.299-7.914-2.299-1.335 0-2.506.112-3.068.165-1.769.169-6.461.727-11.798 2.261-3.984 1.139-8.47 2.538-13.333 4.16l-14.575 4.776c-5.814 1.898-10.557 3.438-14.279 4.535-5.48 1.626-9.345 2.63-12.532 3.256-3.117.717-5.784 1.083-7.912 1.083-1.845 0-2.597-.279-2.677-.312a.43.43 0 0 1-.268-.376c-.125-2.616 2.934-5.653 4.762-7.036a56.732 56.732 0 0 1 8.578-5.308c3.092-1.656 6.785-3.297 11.612-5.16a.435.435 0 0 1 .225-.023 155.6 155.6 0 0 1 13.164-4.276c4.978-1.423 9.578-2.487 14.064-3.254a101.696 101.696 0 0 1 13.581-1.721 54.769 54.769 0 0 1 4.501-.167c2.904 0 5.425.173 6.253.229.146.01.298.015.456.015 1.267 0 2.581-.304 3.124-.722.691-.584 1.073-1.276 1.185-2.164a3.063 3.063 0 0 0-.7-2.37c-.56-.661-1.901-1.134-2.82-1.192-3.794-.416-7.257-.452-12.438-.124-4.528.306-9.219.904-14.341 1.831-4.495.796-9.269 1.895-14.598 3.359a163.664 163.664 0 0 0-13.924 4.519c-4.665 1.806-9.66 4.082-12.326 5.432-3.807 1.928-6.979 3.93-9.427 5.949-3.053 2.519-4.302 3.68-6.328 6.82-1.922 2.98-2.436 6.476-1.25 8.503 1.418 2.425 4.73 3.654 9.844 3.654 2.622 0 5.639-.328 8.969-.975 4.414-.912 8.69-1.955 13.069-3.191a623.681 623.681 0 0 0 14.492-4.648l14.576-4.776c5.329-1.776 9.726-3.139 13.063-4.048 1.917-.572 8.57-2.449 13.276-2.449.778 0 1.469.053 2.053.16.216.04.368.236.35.455-.063.796-1.062 7.972-16.374 14.822-4.579 2.086-9.88 4.116-16.206 6.2a.4.4 0 0 1-.129.021c-4.375 1.398-8.991 2.677-14.109 3.907-4.071.953-8.324 1.772-13.383 2.58a.42.42 0 0 1-.222-.023c-2.155.282-4.807.42-8.093.42-2.026 0-4.003-.052-5.593-.095-1.173-.031-2.185-.058-2.952-.058z" fill="#333"/>
 <radialGradient id="b" cx="-54.785" cy="815.398" r="28.279" gradientTransform="translate(-.18 -790.96)" gradientUnits="userSpaceOnUse">
  <stop stop-color="#fff" offset=".04"/>
  <stop stop-color="#6e93e1" offset=".23"/>
  <stop stop-color="#363499" offset="1"/>
 </radialGradient>
 <path d="m-28.835999 37.814999a31.229 31.229 0 0 1-31.229 31.229 31.229 31.229 0 0 1-31.229-31.229 31.229 31.229 0 0 1 31.229-31.2290005 31.229 31.229 0 0 1 31.229 31.2290005z" fill="url(#b)"/>
 <path d="m-60.065 69.899c-17.691 0-32.083-14.393-32.083-32.084 0-17.692 14.393-32.084 32.083-32.084s32.085 14.393 32.085 32.084-14.394 32.084-32.085 32.084zm0-62.457c-16.748 0-30.373 13.625-30.373 30.374 0 16.748 13.625 30.373 30.373 30.373s30.373-13.625 30.373-30.373c0-16.75-13.625-30.374-30.373-30.374z" fill="#33317A"/>
 <radialGradient id="c" cx="-140.028" cy="512.749" r="244.988" gradientTransform="translate(-.09 -395.48)" gradientUnits="userSpaceOnUse">
  <stop stop-color="#fff" offset="0"/>
  <stop offset="1"/>
 </radialGradient>
 <path d="M-89.657 50.012a186.836 186.836 0 0 0 13.104-3.199c3.795-1.163 14.511-4.654 14.511-4.654l14.574-4.775c5.327-1.775 9.673-3.124 13.043-4.042 0 0 5.039-1.327 5.895-1.48-.306-3.179-2.131-7.001-2.131-7.001-1.84.356-3.809.811-5.785 1.379-3.428.98-7.839 2.328-13.35 4.165l-14.572 4.775c-5.817 1.899-10.533 3.43-14.267 4.531-7.69 2.397-12.921 3.343-13.128 3.389-.001 0 .693 4.555 2.106 6.912z" fill="url(#c)"/>
 <path d="m-98.956 44.459c-1.863 0-2.623-0.288-2.68-0.311a0.428 0.428 0 0 1 0.318-0.794c0.021 7e-3 2.563 0.919 10.093-0.813 3.173-0.623 7.014-1.622 12.468-3.24 3.712-1.095 8.448-2.632 14.255-4.528l14.571-4.774c4.874-1.625 9.372-3.029 13.367-4.17 5.406-1.554 10.16-2.119 11.953-2.29a0.42742309 0.42742309 0 0 1 0.081 0.851c-1.769 0.168-6.461 0.727-11.798 2.261-3.984 1.138-8.47 2.538-13.333 4.16l-14.575 4.776c-5.814 1.898-10.557 3.437-14.279 4.535-5.48 1.626-9.345 2.63-12.532 3.256-3.704 0.852-6.245 1.081-7.909 1.081z" fill="#333"/>
 <path d="m-98.664 51.409c-4.477 0-8.793-0.929-10.627-4.063a0.428 0.428 0 0 1 0.738-0.432c2.895 4.95 13.029 3.802 18.813 2.679a187.086 187.086 0 0 0 13.069-3.191c3.739-1.146 14.388-4.615 14.495-4.649l14.573-4.775c5.329-1.776 9.725-3.139 13.063-4.048 0.017-5e-3 2.057-0.577 5.91-1.483 3.625-0.854 6.6-1.168 8.604-0.911a0.428 0.428 0 1 1-0.109 0.849c-1.327-0.172-3.844-0.154-8.299 0.895-3.833 0.902-5.858 1.47-5.878 1.475-3.327 0.906-7.708 2.264-13.024 4.036l-14.574 4.777c-0.108 0.035-10.763 3.506-14.519 4.657a188.167 188.167 0 0 1-13.142 3.208c-2.524 0.488-5.851 0.976-9.093 0.976z" fill="#333"/>
 <path d="m44.927 22.673a4.077 4.077 0 0 0-2.308-1.849c-17.517-4.916-28.813-4.21-33.816 2.236-1.798 2.107-2.889 4.15-3.21 6.255-0.387 2.105-0.13 4.085 0.832 6.002h-0.066c0.708 1.465 1.798 2.805 3.211 4.02h0.064a16.5 16.5 0 0 0 3.785 2.364c0.96 0.509 3.209 0.828 6.801 0.891 0.708 0.065 2.056 0.065 4.107 0.065 1.797 0.065 3.211 0.065 4.235 0.127h0.065c3.209 0.066 6.467 0.377 7.51 0.7 1.039 0.326 2.868 2.22 3.011 3.07 0.148 0.842 0 0 0 0 0.194 0.508 0.387 0.645 0.204 1.937-0.188 1.292-0.584 1.062-1.099 1.701v-0.068c-0.58 0.511-1.541 0.893-2.888 1.279-1.922 0.451-4.236 0.767-6.93 0.831-2.696 0.064-5.39 0-8.149-0.319-2.631-0.321-4.94-0.771-6.867-1.342-0.961-0.316-1.987-0.254-2.889 0.258-0.96 0.447-1.604 1.212-1.923 2.233-0.321 0.956-0.192 1.977 0.253 2.934a4.06 4.06 0 0 0 2.249 1.853c2.309 0.762 5.068 1.271 8.277 1.659 3.147 0.318 6.223 0.447 9.305 0.381 3.339-0.129 6.227-0.508 8.6-1.083 3.335-0.833 5.648-2.109 6.866-3.768h0.064c1.025-1.28 1.794-2.431 2.244-3.453v-0.065c0.516-1.272 0.772-2.552 0.772-3.889v-0.131c-0.064-0.956 0.017-2.356-0.497-3.698-0.193-0.7-0.381-1.087-1.413-3.317-1.035-2.223-3.42-3.646-7.592-4.537h-0.063c-2.054-0.386-5.005-0.705-8.79-0.831-1.09-0.066-2.567-0.066-4.492-0.131-1.923 0-3.27 0-3.979-0.064-2.052-0.06-3.399-0.127-3.913-0.252-0.708-0.321-1.348-0.703-1.863-1.15-0.574-0.511-1.025-1.021-1.283-1.529v-0.066a1.493 1.493 0 0 1-0.194-1.28c0.194-0.829 0.644-1.719 1.477-2.551 3.849-3.701 12.449-3.701 25.86 0.129 1.031 0.253 1.992 0.192 2.888-0.382 0.966-0.508 1.605-1.277 1.863-2.298 0.325-0.952 0.198-1.913-0.319-2.872z" fill="url(#d)"/>
 <path d="m82.685 19.437c-0.772-0.703-1.669-1.086-2.759-1.086h-25.67a3.801 3.801 0 0 0-2.696 1.086c-0.769 0.763-1.153 1.662-1.153 2.745v31.921c0 1.021 0.386 1.982 1.153 2.682 0.708 0.772 1.668 1.151 2.696 1.151h25.67c1.09 0 1.987-0.381 2.759-1.151 0.705-0.7 1.091-1.661 1.091-2.682 0-1.088-0.386-1.978-1.091-2.749-0.772-0.7-1.669-1.086-2.759-1.086h-21.817v-8.295h16.04c1.09 0 1.987-0.381 2.759-1.149a3.773 3.773 0 0 0 1.092-2.683c0-1.084-0.387-1.978-1.092-2.745-0.772-0.709-1.669-1.09-2.759-1.09h-16.04v-8.296h21.816c1.09 0 1.987-0.387 2.759-1.151 0.705-0.705 1.091-1.593 1.091-2.682 0-1.079-0.386-1.977-1.09-2.74z" fill="url(#e)"/>
 <path d="m127 23.954a4.089 4.089 0 0 0-1.598-2.63c-7.044-5.06-14.765-6.021-22.228-4.71-2.943 0.69-3.896 0.621-7.111 2.215-3.209 1.588-5.445 4.54-5.445 4.54-1.536 1.666-2.369 3.699-3.395 6.394s-1.021 4.032-1.149 7.357c-0.128 3.329 0.317 6.38 1.277 9.286 0.96 2.915 2.433 5.481 4.421 7.629v-0.075a18.324 18.324 0 0 0 7.044 5.058c2.754 1.18 5.765 1.805 9.029 1.805 7.684 0 13.262-1.739 16.72-5.2 4.035-3.533 5.698-8.865 5.059-16.001-0.064-1.109-0.509-1.946-1.218-2.704-0.767-0.695-1.599-1.042-2.627-1.042h-16.651a3.653 3.653 0 0 0-2.695 1.177c-0.767 0.831-1.151 1.797-1.151 2.979 0 1.109 0.384 2.147 1.151 2.908a3.493 3.493 0 0 0 2.695 1.245h12.813c-0.258 2.08-1.092 3.818-2.374 5.129-2.496 2.148-6.401 3.187-11.718 3.187-2.244 0-4.358-0.414-6.213-1.177l-0.065-0.068c-1.668-0.695-3.074-1.666-4.294-3.051-1.214-1.315-2.115-2.911-2.689-4.64-0.64-1.871-0.897-3.949-0.831-6.167 0.063-2.354 0.321-3.633 0.766-5.224 0.324-1.182 0.833-2.148 1.538-2.911 0 0 1.146-1.779 3.077-2.74 1.932-0.966 3.33-1.247 5.7-1.872h0.065c5.64-1.385 11.018-0.208 16.208 3.601 0.893 0.625 1.854 0.831 2.875 0.625 1.028-0.276 1.858-0.833 2.437-1.802 0.577-0.901 0.77-1.94 0.577-3.121z" fill="url(#f)"/>
 <path d="m175.494 57.627c0.642-0.893 0.895-1.784 0.769-2.871-4.042-26.623-11.292-39.648-21.816-39.008-10.519-0.64-17.839 11.939-21.755 37.729-0.131 1.021 0.066 1.979 0.71 2.813 0.64 0.891 1.473 1.4 2.499 1.531 1.029 0.187 1.99-0.069 2.888-0.709 0.832-0.637 1.351-1.465 1.542-2.491a156.442 156.442 0 0 1 1.58-8.874h24.915c0.647 3.069 1.25 6.45 1.803 10.146 0.192 1.021 0.643 1.854 1.539 2.494 0.832 0.64 1.797 0.891 2.824 0.698 1.025-0.115 1.858-0.625 2.502-1.458zm-31.676-19.532c2.808-9.447 6.36-14.34 10.625-14.684 4.137 0.339 7.647 5.237 10.461 14.684z" fill="url(#g)"/>
 <path d="m236.675 22.332c-0.578-0.964-1.358-1.543-2.328-1.865-17.665-4.957-29.056-4.249-34.102 2.255-1.813 2.123-2.913 4.183-3.238 6.308-0.39 2.123-0.13 4.117 0.84 6.05h-0.065c0.714 1.48 1.814 2.829 3.238 4.054h0.064a16.592 16.592 0 0 0 3.818 2.383c0.969 0.517 3.236 0.838 6.857 0.901 0.716 0.063 2.075 0.063 4.141 0.063 1.815 0.066 3.239 0.066 4.272 0.132h0.065c3.236 0.067 6.521 0.379 7.574 0.703 1.047 0.333 2.895 2.241 3.038 3.099 0.149 0.853 0 0 0 0 0.193 0.513 0.391 0.648 0.202 1.951-0.188 1.309-0.589 1.073-1.107 1.718v-0.065c-0.585 0.512-1.555 0.895-2.913 1.287-1.938 0.452-4.271 0.773-6.99 0.836-2.719 0.069-5.435 0-8.218-0.319-2.65-0.323-4.979-0.774-6.922-1.354-0.972-0.321-2.005-0.252-2.913 0.258-0.972 0.455-1.619 1.221-1.94 2.251-0.323 0.964-0.193 1.994 0.255 2.958a4.08 4.08 0 0 0 2.269 1.87c2.326 0.77 5.11 1.286 8.349 1.675 3.171 0.319 6.273 0.45 9.381 0.385 3.368-0.129 6.28-0.517 8.674-1.096 3.36-0.84 5.695-2.123 6.924-3.798h0.065c1.035-1.288 1.81-2.451 2.265-3.48v-0.066c0.52-1.286 0.778-2.572 0.778-3.924v-0.129c-0.064-0.964 0.02-2.374-0.5-3.731-0.195-0.707-0.386-1.096-1.424-3.341-1.046-2.245-3.452-3.681-7.657-4.578h-0.066c-2.068-0.39-5.046-0.708-8.861-0.836-1.101-0.063-2.588-0.063-4.531-0.133-1.939 0-3.298 0-4.013-0.065-2.068-0.058-3.428-0.128-3.946-0.253-0.714-0.327-1.358-0.711-1.879-1.16-0.58-0.514-1.034-1.03-1.294-1.542v-0.066a1.504 1.504 0 0 1-0.194-1.288c0.194-0.836 0.649-1.736 1.488-2.572 3.883-3.736 12.555-3.736 26.077 0.131 1.041 0.253 2.01 0.192 2.913-0.387 0.975-0.513 1.619-1.291 1.88-2.32 0.323-0.967 0.194-1.936-0.326-2.9z" fill="url(#h)"/>
 <path d="m247.19 59.911c0.842-0.646 1.362-1.483 1.554-2.513 0.49-3.229 1.023-6.215 1.594-8.944h25.132c0.654 3.095 1.257 6.504 1.813 10.232 0.194 1.03 0.645 1.87 1.553 2.511 0.841 0.643 1.81 0.902 2.848 0.708 1.035-0.13 1.875-0.646 2.522-1.479 0.645-0.905 0.906-1.807 0.776-2.898-4.075-26.844-11.391-39.977-22.002-39.332-10.612-0.645-17.925 12.04-21.938 38.046-0.193 1.03 0.065 1.994 0.71 2.833 0.65 0.904 1.488 1.42 2.528 1.543 1.101 0.194 2.004-0.061 2.91-0.707zm5.074-19.186c2.835-9.525 6.42-14.456 10.72-14.803 4.21 0.336 7.739 5.277 10.559 14.803z" fill="url(#i)"/>
 <path d="m318.18 21.218c-0.775-0.706-1.684-1.093-2.782-1.093h-33.648c-1.038 0-2.008 0.387-2.722 1.093-0.774 0.774-1.163 1.675-1.163 2.769 0 1.03 0.39 1.994 1.163 2.705 0.714 0.778 1.684 1.161 2.722 1.161h12.939v29.609c0 1.033 0.39 1.999 1.164 2.708 0.714 0.774 1.684 1.16 2.719 1.16 1.104 0 2.009-0.387 2.781-1.16 0.715-0.709 1.104-1.675 1.104-2.708v-29.611h12.94c1.099 0 2.007-0.385 2.781-1.159 0.714-0.711 1.1-1.675 1.1-2.705 2e-3 -1.093-0.384-1.994-1.098-2.769z" fill="url(#j)"/>
 <path d="m363.52 20.449c-0.775-0.774-1.682-1.158-2.783-1.158-1.035 0-2.004 0.384-2.717 1.158-0.776 0.704-1.166 1.673-1.166 2.703v19.117c0 1.485-0.258 2.9-0.836 4.188-0.52 1.349-1.361 2.445-2.334 3.475-1.035 0.964-2.134 1.804-3.491 2.318-1.293 0.58-2.719 0.834-4.207 0.834h-5.76c-1.487 0-2.847-0.251-4.205-0.834-1.359-0.514-2.456-1.354-3.492-2.318-0.974-1.03-1.749-2.125-2.333-3.414v-0.061c-0.512-1.288-0.836-2.703-0.836-4.188v-19.118c0-1.03-0.391-1.999-1.102-2.703-0.781-0.774-1.68-1.158-2.782-1.158-1.032 0-2.008 0.384-2.717 1.158-0.78 0.704-1.165 1.673-1.165 2.703v19.117c0 2.516 0.515 4.895 1.425 7.212h0.063c0.906 2.255 2.265 4.183 3.948 5.924 1.744 1.673 3.688 3.024 5.949 3.993 2.27 0.964 4.663 1.415 7.252 1.415h5.759c2.588 0 4.983-0.451 7.313-1.415h-0.066c2.263-0.969 4.205-2.32 5.957-3.993 1.678-1.741 3.038-3.669 4.012-5.924v0.066c0.97-2.32 1.427-4.699 1.427-7.278v-19.117c-0.011-1.029-0.4-1.999-1.113-2.702z" fill="url(#k)"/>
 <path d="m368.735 20.487c-0.686 0.704-1.099 1.534-1.099 2.554v33.25c0 1.02 0.413 1.979 1.168 2.685a4.3 4.3 0 0 0 2.961 1.149c1.168 0 2.131-0.385 2.89-1.149a3.46 3.46 0 0 0 1.238-2.685v-29.67c8.881-0.508 15.687-0.061 20.435 1.281 3.579 1.085 5.506 2.875 5.709 5.37 0.07 1.981-0.754 3.39-2.476 4.225-2.755 1.151-6.814 1.47-12.176 0.892-0.964-0.066-1.792 0.065-2.619 0.574-0.826 0.445-1.377 1.085-1.721 1.92-0.345 0.767-0.345 1.593-0.136 2.427 0.273 0.835 0.828 1.47 1.586 1.98l20.647 14.067c0.894 0.631 1.923 0.892 3.027 0.701 1.169-0.13 2.064-0.64 2.751-1.54 0.621-0.83 0.896-1.789 0.761-2.811-0.209-1.088-0.761-1.916-1.655-2.558l-10.941-7.417c1.586-0.379 2.958-0.834 4.131-1.404 4.681-2.18 7.022-5.881 7.095-11.063 0.272-6.134-3.583-10.354-11.422-12.66-6.127-1.916-15.282-2.366-27.462-1.404-1.034 0.069-1.929 0.514-2.692 1.286z" fill="url(#l)"/>
 <path d="m416.539 21.152c-0.456 0.646-0.71 1.356-0.71 2.189v33.478c0 1.032 0.385 1.999 1.162 2.703 0.711 0.774 1.681 1.159 2.718 1.159 1.101 0 2.005-0.384 2.779-1.159 0.713-0.704 1.103-1.67 1.103-2.703v-23.88l25.688 26.521c0.585 0.577 1.227 0.966 2.01 1.156 0.774 0.129 1.485 0.063 2.262-0.19 0.716-0.327 1.293-0.774 1.75-1.48 0.454-0.645 0.648-1.354 0.648-2.128v-33.477c0-1.093-0.39-1.994-1.105-2.768-0.775-0.704-1.677-1.097-2.78-1.097a3.857 3.857 0 0 0-2.718 1.097c-0.775 0.774-1.164 1.675-1.164 2.768v23.885l-25.623-26.587c-0.585-0.512-1.23-0.897-2.01-1.095-0.773-0.125-1.553-0.063-2.262 0.26-0.715 0.256-1.358 0.708-1.748 1.348z" fill="url(#m)"/>
 <path d="m155.17956 14.799359c-0.262 0-0.52573 0.009391-0.67773 0.025391-11.12399-0.666999-18.74747 12.296182-22.73047 38.535156-0.171 1.329999 0.13195 2.505751 0.87695 3.46875 0.794 1.102999 1.84794 1.745391 3.08594 1.900391 1.267 0.232 2.46424-0.061767 3.61523-0.884766a4.875 4.875 0 0 0 1.89258-3.085937 160.208 160.208 0 0 1 1.41992-8.085938h23.40821a177.157 177.157 0 0 1 1.64648 9.392578c0.251 1.331999 0.87677 2.338642 1.88477 3.056641 0.81 0.622999 1.74975 0.953125 2.71875 0.953125 0.277 0 0.55748-0.027313 0.77148-0.070312 1.258-0.142 2.31135-0.751892 3.15235-1.837891 0.78899-1.097999 1.08664-2.217783 0.93164-3.550781-4.067-26.791974-11.26111-39.816407-21.9961-39.816407zm-46.12304 0.359375a34.986 34.986 0 0 0-6.0918 0.554688c-0.652 0.154-1.20508 0.269047-1.70508 0.373047-1.810998 0.376999-3.005471 0.624064-5.605468 1.914062-3.365997 1.665999-5.675844 4.683188-5.714844 4.742188-1.631998 1.768998-2.511126 3.888456-3.578125 6.689453-1.022999 2.685997-1.079453 4.165331-1.189453 7.111328l-0.019531 0.541016c-0.131 3.376996 0.301266 6.521331 1.322265 9.611328 1.010999 3.065997 2.567096 5.745799 4.621094 7.966797a0.819 0.819 0 0 0 0.207031 0.162109 19.14 19.14 0 0 0 7.152344 5.042969c2.910997 1.244999 6.070577 1.878906 9.392577 1.878906 7.90299 0 13.74813-1.840738 17.32813-5.427734 4.22899-3.703997 6.03604-9.349008 5.37304-16.75-0.073-1.247999-0.53848-2.289939-1.52148-3.335938-0.953-0.861999-2.01505-1.28125-3.24805-1.28125h-16.65039a4.555 4.555 0 0 0-3.37305 1.472656c-0.94099 1.015999-1.39843 2.198424-1.39843 3.607422 0 1.387999 0.50504 2.654767 1.37304 3.509766a4.416 4.416 0 0 0 3.39844 1.566406h11.70899c-0.334 1.392999-0.97201 2.577907-1.875 3.503906-2.284 1.964998-6.02329 2.962891-11.11329 2.962891-2.01199 0-3.97817-0.360923-5.70117-1.044922-0.068-0.052-0.1417-0.094906-0.2207-0.128906-1.576-0.655999-2.868752-1.57422-3.968751-2.824219-1.100999-1.190999-1.939094-2.641502-2.496093-4.3125-0.582-1.706998-0.84625-3.671752-0.78125-5.84375 0.059-2.224998 0.292422-3.427908 0.732422-5.003906 0.285999-1.045999 0.719219-1.874298 1.324218-2.529297a0.866 0.866 0 0 0 0.09961-0.126953c0.01-0.016 1.028845-1.575063 2.714843-2.414063 1.563001-0.781999 2.749021-1.085828 4.541021-1.548828l0.87109-0.226562a1.079 1.079 0 0 0 0.16016-0.025391c5.36399-1.315999 10.51303-0.170059 15.45703 3.460938 0.824 0.577999 1.71634 0.86914 2.65234 0.86914a4.758 4.758 0 0 0 0.99219-0.109375c1.317-0.351999 2.32261-1.09936 2.97461-2.193359 0.702-1.093999 0.94289-2.361392 0.71289-3.775391a5 5 0 0 0-1.97266-3.224609c-4.99899-3.591997-10.68177-5.414063-16.88476-5.414063zm105.79492 1.132813c-7.164 0-12.32451 1.971222-15.3125 5.824219-1.979 2.318997-3.10832 4.535096-3.44531 6.746093-0.411 2.236998-0.16229 4.30269 0.76171 6.304688a0.917 0.917 0 0 0 0.08985 0.318359c0.751 1.555999 1.9177 3.02147 3.4707 4.355469a0.921 0.921 0 0 0 0.22852 0.136719 17.458 17.458 0 0 0 3.82226 2.363281c1.152 0.612999 3.53485 0.943859 7.21485 1.005859 0.75599 0.068 2.13745 0.071407 4.18945 0.066407 0.79 0.028 1.50544 0.045547 2.14844 0.060547 0.822 0.018999 1.51917 0.034265 2.20117 0.072265 3.42099 0.071 6.4625 0.399157 7.3125 0.660156 0.767 0.244 2.28039 1.876282 2.40039 2.363282a0.314 0.314 0 0 0 0.00391 0.027343l0.0625 0.359375a0.916 0.916 0 0 0 0.19335 0.423829c0.014 0.171999 5e-4 0.419516-0.0625 0.853515-0.073 0.516-0.11996 0.552594-0.29296 0.683594-0.099 0.074-0.21666 0.164063-0.34766 0.289062-0.055 0.031-0.1062 0.067329-0.1582 0.111329-0.532 0.466999-1.64772 0.829078-2.51172 1.080078-2.069 0.481999-4.35579 0.7555-6.80078 0.8125-2.83 0.069-5.55808-0.024454-8.08008-0.314453-2.628-0.32-4.90614-0.764501-6.74414-1.3125-1.239-0.411-2.58757-0.272172-3.60156 0.298828a4.48 4.48 0 0 0-2.42774 2.798828c-0.387 1.148999-0.28297 2.409704 0.33203 3.720703a5.005 5.005 0 0 0 2.78125 2.291016c2.238 0.738999 4.94688 1.282797 8.54688 1.716796 2.71699 0.272 5.30602 0.404297 7.91601 0.404297 0.528 0 1.05366-0.003625 1.59766-0.015625 3.332-0.128 6.31324-0.506 8.86523-1.125 3.429-0.855999 5.87444-2.173876 7.27344-3.921875a0.928 0.928 0 0 0 0.21484-0.197265c1.138-1.416999 1.92158-2.622548 2.39258-3.685547a0.968 0.968 0 0 0 0.05664-0.210938 11.217 11.217 0 0 0 0.79688-4.347656c-0.012-0.194-0.01444-0.405813-0.02344-0.632812-0.03-0.958-0.06981-2.153158-0.50781-3.285157-0.201-0.730999-0.38349-1.12897-1.27149-3.042968l-0.20507-0.44336c-1.172-2.517997-3.81165-4.136704-8.30664-5.095703-0.039-8e-3 -0.0983-0.015578-0.1543-0.017578-2.318-0.432-5.40607-0.719891-8.91406-0.837891-0.61-0.035-1.33936-0.052312-2.19336-0.070312-0.698-0.015-1.48158-0.033453-2.39258-0.064453-1.89 0-3.25438-4.07e-4 -3.98438-0.066407-0.836-0.024-2.99878-0.084937-3.67578-0.210937-0.634-0.296-1.16159-0.621797-1.55859-0.966797-0.465-0.412-0.80381-0.792813-1.00781-1.132812-0.025-0.106-0.07086-0.207829-0.13086-0.298829-0.104-0.151999-0.12655-0.318687-0.06055-0.554687 0.18-0.767999 0.59356-1.481329 1.22656-2.111328 3.595-3.459997 12.18395-3.356762 25.21094 0.365234 0.465 0.114 0.89636 0.167969 1.31836 0.167969 0.838 0 1.617-0.227719 2.25-0.636719 1.217-0.640999 2.02812-1.648704 2.32812-2.845703 0.403-1.191999 0.2708-2.416736-0.4082-3.677734-0.673-1.115999-1.59895-1.858251-2.87695-2.28125-7.74799-2.172998-14.39401-3.277344-19.75-3.277344zm-61.16211 0.359375a19.942 19.942 0 0 1 0.81445 0.019531c9.86699-0.618999 16.90085 12.250385 20.83985 38.19336 0.09799 0.837999-0.08404 1.502266-0.58204 2.197265-0.51 0.657999-1.12436 1.018281-1.94336 1.113281-0.74699 0.146-1.44523-0.026016-2.11523-0.541015-0.643-0.461-1.00411-1.048954-1.16211-1.876953a173.963 173.963 0 0 0-1.8125-10.201172c-0.09-0.427-0.4663-0.732422-0.9043-0.732422h-24.91406a0.928 0.928 0 0 0-0.90625 0.734375 157.48 157.48 0 0 0-1.58398 8.894531 3.01 3.01 0 0 1-1.16797 1.90625c-0.563 0.403-1.12017 0.597656-1.70117 0.597656-0.159 0-0.32021-0.014781-0.53321-0.050781-0.769-0.098-1.37776-0.477641-1.88476-1.18164-0.46-0.595-0.63135-1.292423-0.52735-2.107422 3.725-24.528976 10.482-36.964844 20.08399-36.964844zm-130.400392 0.037109c-7.104993 0-12.223503 1.953442-15.1875005 5.773438-1.962998 2.299997-3.0849691 4.497455-3.4179687 6.689453-0.4089996 2.220998-0.1611398 4.268908 0.7558593 6.253906a0.928 0.928 0 0 0 0.0878907 0.316406c0.7469992 1.543999 1.9044077 2.998361 3.4414062 4.31836a0.82 0.82 0 0 0 0.2285156 0.134765 17.23 17.23 0 0 0 3.7890624 2.34375c1.144999 0.607 3.506394 0.934094 7.150391 0.996094 0.750999 0.07 2.127205 0.073359 4.158203 0.06836a144.06 144.06 0 0 0 2.171875 0.058593c0.797999 0.019 1.478626 0.035313 2.140625 0.070313 3.391996 0.069 6.406954 0.39425 7.251953 0.65625 0.760999 0.24 2.26 1.855844 2.375 2.339844 3e-3 0.008999 0.003859 0.019296 0.005859 0.029296l0.0625 0.353516a0.96 0.96 0 0 0 0.126954 0.328125v0.001953 0.001953l0.001953 0.001953h0.001953v0.001954l0.001953 0.001953a0.827 0.827 0 0 0 0.058594 0.083984c0.017 0.171 0.004406 0.415657-0.058594 0.847656-0.072 0.509-0.119969 0.543782-0.292969 0.675782-0.093 0.070999-0.207984 0.158343-0.333984 0.277343a1 1 0 0 0-0.167969 0.117188c-0.414 0.367999-1.193329 0.702219-2.486328 1.074219-2.036998 0.477999-4.30519 0.74864-6.742188 0.80664-2.834997 0.064-5.548674-0.0275-8.013671-0.3125-2.590998-0.317-4.850455-0.758735-6.689454-1.302734-1.238998-0.411-2.58236-0.269125-3.568359 0.296875-1.1819988 0.549999-2.0171566 1.516345-2.4101562 2.777344-0.3819997 1.138998-0.2799213 2.390407 0.3300781 3.691406a4.97 4.97 0 0 0 2.7578121 2.267578c2.202998 0.727999 4.891613 1.269172 8.47461 1.701172a77.29 77.29 0 0 0 7.835937 0.402344c0.527-1e-6 1.054657-0.003719 1.597657-0.011719 3.324996-0.129 6.280065-0.502329 8.789062-1.111328 3.400997-0.85 5.824845-2.15758 7.214844-3.892578a0.893 0.893 0 0 0 0.21289-0.195313c1.129999-1.410999 1.904141-2.606251 2.369141-3.65625a0.975 0.975 0 0 0 0.058594-0.208984c0.532999-1.355999 0.792969-2.705142 0.792969-4.119141l-0.003907-0.193359c-0.013-0.192-0.01939-0.40486-0.02539-0.63086-0.031-0.948999-0.068954-2.132001-0.501953-3.25-0.2-0.726999-0.385533-1.124205-1.269532-3.033203l-0.195312-0.429687c-1.157999-2.492998-3.778286-4.097783-8.238281-5.050782-0.037-7e-3 -0.095344-0.013625-0.152344-0.015625-2.309998-0.429999-5.375894-0.719984-8.837891-0.833984-0.636999-0.038-1.401595-0.054219-2.308594-0.074219-0.657999-0.014-1.392235-0.030594-2.240234-0.058593-1.873998 0-3.229126-4.54e-4 -3.953125-0.064454-0.910999-0.026-2.995532-0.086984-3.644531-0.208984-0.628-0.293-1.147969-0.615985-1.542969-0.958984-0.463-0.412-0.798047-0.790048-0.998047-1.123047a0.97 0.97 0 0 0-0.134765-0.302735c-0.101-0.148999-0.123641-0.312828-0.056641-0.548828 0.176-0.758999 0.590797-1.469704 1.216797-2.095703 3.565996-3.428996 12.08206-3.326668 24.998047 0.361328 0.456999 0.111 0.8975 0.169922 1.3125 0.169922a4.113 4.113 0 0 0 2.228515-0.630859c1.205999-0.636 2.012641-1.636361 2.306641-2.81836 0.403999-1.177998 0.275655-2.392485-0.402344-3.646484-0.664999-1.107999-1.582611-1.844672-2.849609-2.263672-7.680993-2.154998-14.271037-3.248047-19.582031-3.248047zm85.947262 0.328125c5.74392 0.04261 10.99959 1.736832 15.61133 5.048828a3.174 3.174 0 0 1 1.24024 2.039063c0.156 0.954999 0.01101 1.763094-0.45899 2.496094-0.426 0.712999-1.02322 1.15214-1.82422 1.36914-0.192 0.039-0.38231 0.058594-0.57031 0.058594-0.556 0-1.07817-0.173485-1.57617-0.521484-5.336-3.917996-11.0131-5.188296-16.8711-3.779297a0.941 0.941 0 0 0-0.18359 0.029297l-0.97266 0.251953c-1.83799 0.473999-3.16725 0.815547-4.906246 1.685547-1.928998 0.959999-3.140531 2.626094-3.394531 2.996093-0.772999 0.857-1.344266 1.946377-1.697265 3.234375-0.469 1.677999-0.734829 3.045315-0.798829 5.445313-0.071 2.390997 0.224954 4.577283 0.876954 6.488281 0.637999 1.915998 1.607048 3.588033 2.873046 4.957031 1.236999 1.405999 2.700752 2.461611 4.468751 3.22461a0.91 0.91 0 0 0 0.23242 0.138672c2.01 0.826999 4.21846 1.246093 6.56445 1.246093 5.623 0 9.65391-1.115846 12.37891-3.464843 1.445-1.478999 2.35586-3.435112 2.63086-5.66211a0.922 0.922 0 0 0-0.22656-0.726562 0.92 0.92 0 0 0-0.69141-0.3125h-12.8125c-0.786 0-1.47592-0.318563-2.04492-0.976563-0.565-0.560999-0.87695-1.359001-0.87695-2.25 0-0.934999 0.28734-1.68261 0.90234-2.349609 0.53-0.568 1.24853-0.882813 2.01953-0.882813h16.65039c0.774 0 1.39117 0.248001 1.95117 0.75 0.624 0.666 0.92366 1.322298 0.97266 2.154297 0.618 6.903993-0.93397 11.884629-4.79297 15.265625-3.265 3.268997-8.67046 4.927735-16.06445 4.927735-3.07 0-5.98365-0.582283-8.681642-1.738282-2.583998-1.040999-4.837409-2.658689-6.691407-4.804687-0.071-0.081-0.151234-0.143406-0.240234-0.191406-1.764998-1.975998-3.110907-4.344925-4.003906-7.044922-0.948999-2.875997-1.351469-5.807941-1.230469-8.960938l0.021484-0.542968c0.109-2.913998 0.154314-4.120487 1.070313-6.521485 1.022999-2.688997 1.800673-4.566111 3.263672-6.162109 0.023-0.028 2.154096-2.802486 5.121093-4.271485 2.386998-1.183998 3.433111-1.401719 5.162106-1.761718 0.514-0.107 1.08022-0.224094 1.69922-0.371094 2.0175-0.35425 3.98575-0.523969 5.90039-0.509766zm152.75586 0.22461c-10.69056 0.149323-17.86428 12.894729-21.86328 38.830078-0.24 1.272998 0.06714 2.506829 0.86914 3.548828 0.807 1.123999 1.87405 1.771969 3.12305 1.917969a5.05 5.05 0 0 0 0.85547 0.076172c0.963 0 1.8672-0.307939 2.7832-0.960938a4.928 4.928 0 0 0 1.90625-3.113281 170.318 170.318 0 0 1 1.43359-8.152344h23.61329a177.72 177.72 0 0 1 1.65234 9.472656c0.256 1.347999 0.8863 2.362126 1.9043 3.078125 0.835 0.64 1.75804 0.964844 2.74804 0.964844 0.273 0 0.55316-0.026313 0.78516-0.070312 1.263-0.158 2.31906-0.775283 3.16406-1.863282 0.798-1.116999 1.09845-2.245079 0.93945-3.580078-4.10199-27.014973-11.36055-40.146484-22.18554-40.146484-0.262 0-0.5296 0.007437-0.6836 0.023437-0.35218-0.021375-0.70006-0.030207-1.04492-0.02539zm-207.736326 0.185547c-1.277998 0-2.465657 0.480469-3.347656 1.355468-0.947999 0.939999-1.427734 2.083392-1.427734 3.400391v31.919922c0 1.312998 0.518438 2.509594 1.398437 3.308594 0.857999 0.934999 2.056955 1.451171 3.376953 1.451171h25.669922c1.316999 0 2.465111-0.477969 3.41211-1.417968 0.880999-0.875 1.365234-2.061845 1.365234-3.339844 0-1.268999-0.448532-2.402548-1.394531-3.435547-0.973999-0.879999-2.111814-1.324219-3.382813-1.324219h-20.892578v-6.445312h15.115235c1.315998 0 2.462063-0.478876 3.414062-1.421875a4.684 4.684 0 0 0 1.363281-3.335938c0-1.270998-0.449579-2.405735-1.392578-3.427734-0.964999-0.884999-2.103767-1.332031-3.384765-1.332031h-15.115235v-6.447266h20.892578c1.310999 0 2.458064-0.474923 3.414063-1.419922 0.903999-0.903999 1.363281-2.026939 1.363281-3.335937 0-1.273999-0.450532-2.406783-1.394531-3.425782-0.968999-0.879999-2.107814-1.326171-3.382813-1.326171h-25.669922zm329.673826 0.363281c-3.76601-0.044584-7.95721 0.113563-12.56445 0.476562-1.244 0.086-2.35388 0.611361-3.29688 1.56836-0.90399 0.928999-1.36328 2.007079-1.36328 3.205078v33.25a4.57 4.57 0 0 0 1.4668 3.371094 5.209 5.209 0 0 0 3.59375 1.394531c1.419 0 2.61409-0.479142 3.49609-1.369141 1.009-0.859999 1.56446-2.066486 1.56446-3.396484v-28.783203c8.25099-0.424 14.74047 0.018063 19.23047 1.289062 3.22899 0.978999 4.88182 2.465815 5.04882 4.507813 0.058 1.613998-0.56039 2.681032-1.90039 3.332031-2.62199 1.093999-6.53286 1.383312-11.75586 0.820312-1.217-0.079-2.237 0.139548-3.125 0.685547a4.638 4.638 0 0 0-2.1289 2.359375c-0.403 0.900999-0.46788 1.920658-0.17188 3.097657 0.326 0.991999 0.96327 1.797938 1.94727 2.460937l20.63281 14.056641c0.877 0.620999 1.84128 0.933593 2.86328 0.933593a4.9 4.9 0 0 0 0.80664-0.066406c1.405-0.158 2.54453-0.797204 3.39453-1.908203a4.731 4.731 0 0 0 0.93164-3.546875c-0.249-1.295999-0.93182-2.352298-2.04882-3.154297l-9.27149-6.283203a17.51 17.51 0 0 0 2.33203-0.919922c4.987-2.322998 7.55482-6.325193 7.63282-11.867187 0.291-6.575994-3.77518-11.1498-12.07618-13.591797-3.86687-1.206874-8.96159-1.847569-15.23828-1.921875zm-169.07812 0.367187c5.18599 0 11.66113 1.079315 19.20312 3.195313 0.807 0.266999 1.38474 0.729875 1.80274 1.421875 0.409 0.759999 0.49423 1.465563 0.24023 2.226562-0.193 0.760999-0.65452 1.325673-1.47851 1.763672-0.627 0.401-1.36935 0.465391-2.15235 0.275391-13.80098-3.948996-22.79814-3.933527-26.99414 0.105469-0.882 0.878999-1.48261 1.924563-1.72461 2.976562a2.419 2.419 0 0 0 0.19141 1.857422 0.79 0.79 0 0 0 0.0664 0.175781c0.3 0.593 0.79263 1.18522 1.51563 1.824219 0.561 0.482999 1.26756 0.922688 2.10156 1.304687a0.905 0.905 0 0 0 0.16797 0.058594c0.554 0.132 1.67803 0.207438 4.08203 0.273438 0.756 0.071 2.0925 0.071312 4.0625 0.070312 0.886 0.031 1.67977 0.049453 2.38477 0.064453a59.344 59.344 0 0 1 2.15039 0.06836c4.38599 0.146999 7.1617 0.527312 8.7207 0.820312a1.277 1.277 0 0 0 0.11914 0.011719c3.828 0.826999 6.03174 2.113017 6.92774 4.041016l0.20507 0.441406c0.863 1.861998 1.01036 2.188844 1.19336 2.839844 0.354 0.924999 0.38707 1.901672 0.41407 2.763671 7e-3 0.249 0.01434 0.483673 0.02734 0.763672a9.399 9.399 0 0 1-0.71094 3.576172 0.828 0.828 0 0 0-0.04687 0.160156c-0.386 0.837-1.01693 1.803267-1.91992 2.947266a0.905 0.905 0 0 0-0.25 0.236328c-1.102 1.498999-3.25359 2.65836-6.39258 3.44336-2.424 0.587999-5.28362 0.945359-8.47461 1.068359-3.058 0.06-6.08301-0.058954-9.25-0.376953-3.456-0.417-6.05207-0.936767-8.16406-1.634766a3.099 3.099 0 0 1-1.71875-1.378906c-0.259-0.556-0.50694-1.40211-0.21094-2.287109 0.249-0.794 0.71986-1.343845 1.50586-1.714844 0.395-0.221 0.82148-0.332031 1.27148-0.332031a2.965 2.965 0 0 1 0.91992 0.154296c1.965 0.585 4.34699 1.050766 7.08399 1.384766 2.052 0.236 4.16113 0.349609 6.45312 0.349609 0.632 0 1.26358-0.006437 1.89258-0.023437 2.571-0.06 4.98657-0.350048 7.22656-0.873047 1.422-0.41 2.32104-0.782375 2.95704-1.234375a0.938 0.938 0 0 0 0.42578-0.298828 1.39 1.39 0 0 1 0.29101-0.265625c0.452-0.345 0.84372-0.727298 1.01172-1.904297 0.181-1.264999 0.04827-1.704422-0.17773-2.232422l-0.05469-0.126953c-0.328-1.313999-2.42421-3.321844-3.6582-3.714844-0.537-0.165-6.76152-0.721187-7.85352-0.742187-0.598-0.038-1.32183-0.053266-2.17383-0.072266-0.635-0.015-1.3422-0.031547-2.1582-0.060547-2.039 0-3.38505 5e-4 -4.12305-0.0625-4.45399-0.079-5.94423-0.528359-6.49023-0.818359a15.514 15.514 0 0 1-3.60742-2.251953 0.84 0.84 0 0 0-0.20118-0.119141c-1.181-1.040999-2.08907-2.156267-2.70507-3.322265a0.917 0.917 0 0 0-0.09375-0.310547c-0.864-1.729999-1.113-3.517143-0.75-5.494141 0.289-1.883998 1.27773-3.795002 3.05273-5.875 2.643-3.408997 7.30919-5.136719 13.86719-5.136719zm110.625 0.201172c-1.33 0-2.5388 0.518439-3.3418 1.398438-0.95 0.855999-1.47461 2.061532-1.47461 3.394531v19.117187c0 2.530998 0.48828 5.000737 1.48828 7.552735a0.828 0.828 0 0 0 0.17774 0.269531c0.896 2.129998 2.21759 4.08333 4.05859 5.986328 1.914 1.835998 3.95147 3.202689 6.23047 4.179688 2.357 1.000999 4.84824 1.488281 7.61523 1.488281h5.75977c2.744 0 5.25288-0.487329 7.67187-1.486328a0.83 0.83 0 0 0 0.20118-0.115235c2.16999-0.965999 4.1269-2.298798 6.0039-4.091796 1.78-1.847999 3.11708-3.79155 4.08008-5.935547a0.916 0.916 0 0 0 0.12109-0.208985c1.008-2.411997 1.49805-4.912674 1.49805-7.638672v-19.125c-0.013-1.295998-0.50672-2.488516-1.38672-3.353515-0.95-0.950999-2.10741-1.431641-3.4414-1.431641-1.327 0-2.53575 0.517392-3.34375 1.400391-0.949 0.860999-1.47266 2.065579-1.47266 3.392578v19.117187c0 1.410999-0.25344 2.692517-0.77344 3.853516-0.407 1.053999-1.06756 2.030954-2.10156 3.126953-1.151 1.073999-2.13533 1.729485-3.23633 2.146485-1.113 0.499999-2.40222 0.755859-3.82422 0.755859h-5.75976c-1.409 0-2.629-0.241391-3.875-0.775391-1.061-0.398999-2.01258-1.035938-3.14258-2.085937-0.918-0.968999-1.58766-1.931626-2.09766-3.015625-0.012-0.055-0.02783-0.10911-0.04883-0.16211-0.51199-1.283998-0.76953-2.577751-0.76953-3.84375v-19.117187c0-1.290999-0.4899-2.485282-1.3789-3.363281-0.968-0.962999-2.0925-1.429688-3.4375-1.429688zm-302.189456 0.179688c5.143995 0 11.563023 1.07097 19.041016 3.167968 0.798999 0.265 1.372157 0.723157 1.785156 1.410157 0.405 0.753999 0.490375 1.453032 0.234375 2.207031-0.189 0.752999-0.645891 1.310141-1.46289 1.744141-0.62 0.394999-1.357767 0.460484-2.134766 0.271484-13.686986-3.908996-22.607535-3.895527-26.769531 0.105469-0.885999 0.885999-1.466938 1.892266-1.710938 2.947265a2.42 2.42 0 0 0 0.189453 1.84961 0.97 0.97 0 0 0 0.06836 0.171875c0.293999 0.580999 0.782 1.170594 1.5 1.808593 0.553999 0.482 1.256891 0.91697 2.08789 1.292969a0.926 0.926 0 0 0 0.16211 0.058594c0.541999 0.132 1.616783 0.204437 4.050781 0.273437 0.750999 0.069 2.074299 0.07636 4.029297 0.06836 0.823999 0.028 1.568376 0.04364 2.234375 0.05664 0.877999 0.019 1.618766 0.035219 2.259766 0.074219 4.333995 0.143 7.096439 0.523407 8.648437 0.816406a1.341 1.341 0 0 0 0.119141 0.011719c3.799996 0.820999 5.983094 2.092955 6.871093 4.001953l0.195313 0.425782c0.860999 1.860998 1.008406 2.185985 1.191406 2.833984 0.349 0.911999 0.382203 1.882329 0.408203 2.736328 9e-3 0.249 0.016344 0.48086 0.027344 0.630859v0.13086a9.28 9.28 0 0 1-0.703125 3.542969 0.952 0.952 0 0 0-0.044922 0.158203c-0.382999 0.825999-1.010251 1.787735-1.90625 2.927734a0.907 0.907 0 0 0-0.246094 0.232422c-1.093999 1.488998-3.227846 2.638016-6.339843 3.416016-2.382998 0.578999-5.215394 0.935593-8.400391 1.058593-3.046997 0.067-6.052831-0.06-9.173828-0.375-3.439997-0.415999-6.012799-0.931141-8.091797-1.61914a3.077 3.077 0 0 1-1.7070312-1.367188c-0.2579998-0.550999-0.5029841-1.388626-0.2089844-2.265625 0.2469997-0.791999 0.7160476-1.338078 1.4980466-1.705078 0.386-0.22 0.807954-0.332031 1.251953-0.332031a2.878 2.878 0 0 1 0.917969 0.158203c1.962998 0.581999 4.324393 1.044047 7.025391 1.373047 2.021998 0.235 4.126549 0.347656 6.435547 0.347656a75.42 75.42 0 0 0 1.841797-0.021484c2.561997-0.059 4.958064-0.348235 7.164062-0.865235 1.402999-0.402999 2.292782-0.77261 2.925781-1.224609a0.921 0.921 0 0 0 0.429688-0.296875 1.444 1.444 0 0 1 0.289062-0.267578c0.447-0.341 0.833954-0.717814 1.001953-1.882813 0.177-1.254998 0.046313-1.692797-0.179687-2.216797l-0.052734-0.125c-0.324-1.305998-2.406002-3.296688-3.625-3.679687-1.148999-0.356-4.487019-0.674235-7.791016-0.740234-0.583-0.035-1.286282-0.051313-2.113281-0.070313-0.64-0.014-1.355689-0.029594-2.179688-0.058594-2.021998 0-3.357797 5.47e-4 -4.091797-0.064453-4.414995-0.078-5.893547-0.523594-6.435547-0.808594a15.4 15.4 0 0 1-3.576171-2.234375 0.788 0.788 0 0 0-0.201172-0.117187c-1.1679992-1.029999-2.0686416-2.13497-2.681641-3.292969-0.012-0.107-0.0417969-0.212547-0.0917969-0.310547-0.8589991-1.713998-1.1041402-3.48722-0.7441406-5.449218 0.2839997-1.868999 1.2653924-3.764128 3.0253906-5.828125 2.6219979-3.377997 7.2499129-5.091797 13.7539059-5.091797zm428.777346 0.005859a4.772 4.772 0 0 0-3.37696 1.371094c-0.95499 0.951999-1.4375 2.104782-1.4375 3.425781v21.574219l-24.07617-24.978516c-0.746-0.652999-1.52756-1.076453-2.47656-1.314453-0.988-0.158-1.99461-0.037265-2.72461 0.302734-0.965 0.344-1.75731 0.963454-2.19531 1.689454-0.594 0.838999-0.88086 1.730563-0.88086 2.726562v33.478516c0 1.331998 0.5202 2.537985 1.4082 3.333984 0.865 0.940999 2.0733 1.460938 3.4043 1.460938s2.48659-0.481736 3.43359-1.427735c0.89-0.879999 1.38086-2.075189 1.38086-3.367187v-21.576172l24.10156 24.882812c0.729 0.719 1.52972 1.17611 2.51172 1.41211 0.31 0.051 0.61116 0.076172 0.91016 0.076172 0.586 0 1.17258-0.095938 1.89258-0.335938 0.936-0.428 1.618-1.00697 2.125-1.792969 0.543-0.771999 0.81836-1.670016 0.81836-2.666015v-33.478516c0-1.285999-0.45511-2.429985-1.41211-3.458984-0.979-0.887999-2.12525-1.337891-3.40625-1.337891zm-189.84961 0.564453c0.233 0 0.47031 0.007485 0.82031 0.021485 10.00399-0.624 17.04654 12.350791 21.01953 38.509765 0.101 0.837999-0.08194 1.507845-0.58594 2.214844-0.51399 0.660999-1.13507 1.031719-1.95507 1.136719-0.759 0.139999-1.45668-0.033688-2.13868-0.554688-0.64799-0.457999-1.01092-1.049719-1.16992-1.886719-0.561-3.758996-1.17426-7.222065-1.82226-10.289062-0.093-0.43-0.47211-0.738281-0.91211-0.738281h-25.13281a0.933 0.933 0 0 0-0.91211 0.74414 165.6 165.6 0 0 0-1.60157 8.964844 3.023 3.023 0 0 1-1.17578 1.921875c-0.58 0.413-1.09683 0.597656-1.67383 0.597656-0.171 0-0.34793-0.01664-0.58593-0.05664-0.768-0.092-1.38444-0.470548-1.89844-1.185547-0.493-0.642-0.67139-1.346048-0.52539-2.123047 3.81599-24.735975 10.62901-37.277344 20.25-37.277344zm19.53515 0.085938a4.776 4.776 0 0 0-3.38281 1.365234c-0.953 0.952999-1.43554 2.107689-1.43554 3.429688 0 1.317998 0.5192 2.522938 1.4082 3.335937 0.866 0.941999 2.07916 1.460938 3.41015 1.460938h12.00586v28.677734c0 1.323999 0.52211 2.528844 1.41211 3.339844 0.868 0.939999 2.07635 1.458984 3.40235 1.458984 1.332 0 2.49145-0.481688 3.43945-1.429687 0.892-0.883 1.38086-2.078142 1.38086-3.369141v-28.679688h12.00781c1.334 0 2.49146-0.482641 3.43946-1.43164 0.88499-0.881999 1.37304-2.076283 1.37304-3.363281 3e-3 -1.286999-0.45134-2.431986-1.40234-3.458985-0.974-0.886999-2.11916-1.335937-3.41016-1.335937h-33.64844zm-227.494136 0.082031h25.669922c0.822999 0 1.501126 0.26811 2.078125 0.787109 0.57 0.617 0.845703 1.307282 0.845703 2.113282 0 0.811999-0.267406 1.475438-0.816406 2.023437-0.608999 0.603999-1.277423 0.884766-2.107422 0.884766h-21.816406c-0.511999 0-0.925781 0.414781-0.925781 0.925781v8.294922a0.925 0.925 0 0 0 0.925781 0.925781h16.039063c0.825999 0 1.505125 0.268063 2.078125 0.789063 0.577999 0.631999 0.845703 1.305094 0.845703 2.121093a2.85 2.85 0 0 1-0.814453 2.027344c-0.606 0.601999-1.276376 0.880859-2.109375 0.880859h-16.039063c-0.511999 0-0.925781 0.412829-0.925781 0.923829v8.294921a0.925 0.925 0 0 0 0.925781 0.925782h21.816406a2.995 2.995 0 0 1 2.078125 0.785156c0.579 0.633999 0.847657 1.309001 0.847657 2.125 0 0.780999-0.29036 1.501391-0.81836 2.025391-0.604999 0.600999-1.274423 0.882812-2.107422 0.882812h-25.669922c-0.807999 0-1.503266-0.295157-2.072265-0.910156-0.55-0.501-0.851563-1.212001-0.851563-2v-31.919922c0-0.828999 0.278907-1.492891 0.878907-2.087891a2.88 2.88 0 0 1 2.044921-0.818359zm328.498046 0.367187c6.59299 0 11.93105 0.62247 15.87305 1.855469 7.48699 2.201998 11.004 6.036959 10.75 11.751953-0.068 4.860995-2.21232 8.208284-6.57031 10.238282-1.068 0.519999-2.35746 0.955984-3.93946 1.333984a0.932 0.932 0 0 0-0.30469 1.679687l10.91993 7.402344c0.715 0.514 1.12439 1.140876 1.27539 1.921875 0.1 0.763999-0.09713 1.481001-0.57813 2.125-0.537 0.702999-1.20797 1.077547-2.16797 1.185547-0.83 0.146-1.61475-0.037735-2.34375-0.552734l-20.65234-14.06836c-0.638-0.431999-1.02717-0.907594-1.20117-1.433593-0.177-0.707-0.15125-1.302704 0.09375-1.845704 0.272-0.661999 0.68766-1.124422 1.34765-1.482421 0.508-0.312 1.02946-0.451172 1.68946-0.451172a6.573 6.573 0 0 1 0.33984 0.009765c5.449 0.59 9.68655 0.277483 12.68555-0.978515 2.045-0.989999 3.08209-2.752675 2.99609-5.138672-0.235-2.894997-2.37677-4.977361-6.38476-6.19336-4.878-1.375998-11.87725-1.819499-20.74024-1.3125-0.494 0.028-0.88086 0.436641-0.88086 0.931641v29.669922c0 0.783999-0.31575 1.466344-0.96875 2.027344-0.584 0.586999-1.31156 0.873047-2.22656 0.873047a3.37 3.37 0 0 1-2.32422-0.896485c-0.562-0.526999-0.87305-1.238907-0.87305-2.003906v-33.25c0-0.713999 0.26804-1.318438 0.83204-1.898438 0.62-0.627999 1.30256-0.959672 2.10156-1.013671 4.08499-0.323 7.87195-0.486329 11.25195-0.486329zm-57.27734 0.578125c0.838 0 1.514 0.283626 2.125 0.890625 0.532 0.527 0.82617 1.251064 0.82617 2.039063v19.117187c0 1.455999 0.28466 2.93258 0.84766 4.392579a0.927 0.927 0 0 0 0.07031 0.242187c0.598 1.317999 1.41583 2.517939 2.54883 3.710938 0.903 0.840999 2.15181 1.887188 3.75781 2.492187 1.428 0.612999 2.92622 0.910156 4.57422 0.910156h5.75976c1.687 0 3.23011-0.307532 4.53711-0.894531 1.647-0.623999 2.89489-1.669782 3.83789-2.550781 1.25-1.320999 2.02982-2.487423 2.50782-3.732422 0.609-1.356999 0.91796-2.895314 0.91796-4.570313v-19.117187a2.734 2.734 0 0 1 0.91993-2.070313c0.517-0.560999 1.21629-0.859375 2.02929-0.859375 0.845 0 1.51891 0.283579 2.12891 0.892579 0.529 0.520999 0.82694 1.24911 0.83594 2.037109v19.117187c0 2.379998-0.41191 4.563971-1.25391 6.667969a0.986 0.986 0 0 0-0.09766 0.175781c-0.87999 2.040998-2.13183 3.88519-3.79882 5.617188-1.76 1.680998-3.61769 2.927548-5.67969 3.810547a0.844 0.844 0 0 0-0.16602 0.095703c-2.11199 0.837999-4.31184 1.244141-6.71484 1.244141h-5.75977c-2.51199-1e-6 -4.76381-0.438845-6.88281-1.339844-2.067-0.885999-3.92344-2.131205-5.64844-3.783203-1.71999-1.779999-2.946-3.618049-3.75-5.623047a0.816 0.816 0 0 0-0.16015-0.251953c-0.847-2.238998-1.26077-4.405237-1.25977-6.615235v-19.115234c0-0.565 0.14602-1.372266 0.91602-2.072266 0.507-0.550999 1.22925-0.857422 2.03125-0.857422zm126.58789 0.1875a3.016 3.016 0 0 1 2.0957 0.798829c0.583 0.632999 0.85742 1.309813 0.85742 2.132812v33.478516c0 0.621999-0.15204 1.128047-0.49804 1.623047a2.955 2.955 0 0 1-1.25586 1.097656c-0.656 0.214-1.33991 0.233922-1.75391 0.169922-0.585-0.142-1.08855-0.431438-1.56055-0.898438l-25.6875-26.519531c-0.181-0.185-0.42192-0.285156-0.66992-0.285156a0.93 0.93 0 0 0-0.93164 0.93164v23.88086c0 0.789999-0.29312 1.513969-0.82812 2.042968-0.607 0.605-1.2801 0.886719-2.1211 0.886719-0.814 0-1.51575-0.295969-2.09375-0.917969-0.559-0.505999-0.85351-1.199766-0.85351-2.009765v-33.478516c0-0.604999 0.17122-1.131079 0.57422-1.705078 0.251-0.414 0.69984-0.750422 1.33984-0.982422 0.342-0.157 0.72558-0.238281 1.14258-0.238281a4.331 4.331 0 0 1 0.5 0.03125 3.823 3.823 0 0 1 1.56836 0.839844l25.62304 26.58789a0.936 0.936 0 0 0 1.01953 0.216797 0.93 0.93 0 0 0 0.58204-0.865234v-23.884766c0-0.831999 0.28467-1.501516 0.88867-2.103515 0.543-0.536 1.2755-0.830079 2.0625-0.830079zm-170.31446 0.648438h33.64649c0.833 0 1.5177 0.270969 2.0957 0.792969 0.581 0.631999 0.85352 1.310719 0.85352 2.136718a2.854 2.854 0 0 1-0.82813 2.046875c-0.601 0.603-1.27809 0.884766-2.12109 0.884766h-12.93945c-0.514 0-0.9336 0.416641-0.9336 0.931641v29.613281c0 0.788999-0.29408 1.514829-0.83008 2.048828-0.603 0.604999-1.28104 0.888672-2.12304 0.888672a2.745 2.745 0 0 1-2.08789-0.916016c-0.562-0.516999-0.85938-1.215485-0.85938-2.021484v-29.609375c0-0.515-0.41855-0.933594-0.93555-0.933594h-12.9375c-0.81599 0-1.52179-0.298016-2.09179-0.916015-0.564-0.519-0.85938-1.215579-0.85938-2.017579 0-0.830999 0.28077-1.501469 0.88477-2.105468 0.537-0.531 1.27041-0.824219 2.0664-0.824219zm-127.38281 1.431641c-4.74199 0.382999-8.4825 5.401759-11.4375 15.34375a0.92 0.92 0 0 0 0.14649 0.816406 0.923 0.923 0 0 0 0.74218 0.371094h21.08594a0.926 0.926 0 0 0 0.88672-1.1875c-2.962-9.945991-6.65044-14.964751-11.27344-15.34375-0.05-3e-3 -0.10339-3e-3 -0.15039 0zm0.07227 1.849609c3.47499 0.344 6.64989 4.770039 9.21289 12.832031h-18.58399c2.591-8.167992 5.7411-12.483031 9.3711-12.832031zm108.46679 0.654297c-4.77999 0.385999-8.55415 5.445807-11.53515 15.466797a0.933 0.933 0 0 0 0.89258 1.199218h21.27929a0.936 0.936 0 0 0 0.74805-0.375 0.938 0.938 0 0 0 0.14648-0.822265c-2.96899-10.03399-6.69286-15.094751-11.38085-15.46875-0.051-6e-3 -0.0984-1e-3 -0.1504 0zm0.07618 1.867187c3.57299 0.341 6.69983 4.690602 9.29882 12.933594h-18.75585c2.61499-8.233992 5.79203-12.583594 9.45703-12.933594z" fill="#484848"/>
</svg>
