<?xml version="1.0" encoding="utf-8"?>
<!-- Generator: Adobe Illustrator 26.0.3, SVG Export Plug-In . SVG Version: 6.00 Build 0)  -->
<svg version="1.1" id="Layer_1" xmlns="http://www.w3.org/2000/svg" xmlns:xlink="http://www.w3.org/1999/xlink" x="0px" y="0px"
	 viewBox="0 0 3839 793.5" style="enable-background:new 0 0 3839 793.5;" xml:space="preserve">
<style type="text/css">
	.st0{display:none;}
	.st1{display:inline;}
	.st2{fill:url(#SVGID_1_);}
	.st3{fill:url(#SVGID_00000117650088007288170220000013151952559613500302_);}
	.st4{clip-path:url(#SVGID_00000116944113304281867890000006667766977982397342_);}
	.st5{clip-path:url(#SVGID_00000146479953731632322280000002953225777922023849_);fill:none;}
	.st6{fill:none;}
	.st7{fill:url(#SVGID_00000085250591559007028780000007627274449975368635_);}
	.st8{clip-path:url(#SVGID_00000102523733067031137170000012871962226037372591_);}
	.st9{clip-path:url(#SVGID_00000005989698796501578530000014723707109217616301_);}
	.st10{clip-path:url(#SVGID_00000132780696690113987320000014250789957325230239_);}
	.st11{fill:url(#SVGID_00000057848439325555431300000007333400355659440026_);}
	.st12{fill:url(#SVGID_00000178174211459498004930000002837659762938554015_);}
	.st13{clip-path:url(#SVGID_00000054255756745357651380000000250511291884894869_);}
	.st14{clip-path:url(#SVGID_00000131333765575342355410000007533534513814390948_);fill:none;}
	.st15{fill:url(#SVGID_00000145058569732670869830000011772828420236441497_);}
	.st16{clip-path:url(#SVGID_00000033367373364186864230000018141994185170124190_);}
	.st17{clip-path:url(#SVGID_00000020394044684395445240000012674934700577595776_);}
	.st18{clip-path:url(#SVGID_00000031927294331490452820000001313612686042038941_);}
	.st19{fill:#FFFFFF;}
	.st20{fill:url(#SVGID_00000024001768302726143390000006830442317169451421_);}
	.st21{fill:url(#SVGID_00000170251326659875515720000005653852287783135645_);}
	.st22{clip-path:url(#SVGID_00000113335044676024320920000000295302985156211115_);fill:#FFFFFF;}
	.st23{clip-path:url(#SVGID_00000133521673782330721720000009667498787671456644_);fill:none;}
	.st24{fill:url(#SVGID_00000137096864077702482110000000088736716037674392_);}
	.st25{clip-path:url(#SVGID_00000015345599556977930600000012646988029881432459_);fill:#FFFFFF;}
	.st26{clip-path:url(#SVGID_00000183234864988291409690000004912717130948924047_);fill:#FFFFFF;}
	.st27{clip-path:url(#SVGID_00000014620561303647219180000006280468177975798460_);}
	.st28{clip-path:url(#SVGID_00000014620561303647219180000006280468177975798460_);fill:#FFFFFF;}
	.st29{fill:url(#SVGID_00000150085448700725268070000014407030568081520277_);}
	.st30{fill:url(#SVGID_00000113334192969242814640000001930253657125668785_);}
	.st31{clip-path:url(#SVGID_00000103949748914405817060000012964325705182865821_);fill:#FFFFFF;}
	.st32{clip-path:url(#SVGID_00000078028133156752277350000006774237706034698385_);fill:none;}
	.st33{fill:url(#SVGID_00000103241220332067618230000016355010240667159989_);}
	.st34{clip-path:url(#SVGID_00000072970053270299817190000015825313130903556249_);fill:#FFFFFF;}
	.st35{clip-path:url(#SVGID_00000129204527859769991220000002724685957499221152_);fill:#FFFFFF;}
	.st36{clip-path:url(#SVGID_00000068674067000781910950000007494284093615531692_);}
	.st37{clip-path:url(#SVGID_00000068674067000781910950000007494284093615531692_);fill:#FFFFFF;}
	.st38{clip-path:url(#SVGID_00000103263666387977723680000017900840077660013494_);}
	.st39{clip-path:url(#SVGID_00000065784692180014485990000003541675274244391074_);}
	.st40{clip-path:url(#SVGID_00000092421027211922471940000017186970371641695912_);}
	.st41{clip-path:url(#SVGID_00000114752070421794762460000013411581992653097885_);}
	.st42{clip-path:url(#SVGID_00000077321737336527692580000001963059600647959999_);}
	.st43{clip-path:url(#SVGID_00000050649349783186624840000001198679000638931338_);}
	.st44{clip-path:url(#SVGID_00000113342175079679633860000005438717176435068564_);fill:#FFFFFF;}
	.st45{clip-path:url(#SVGID_00000121963012236498609820000013743091353681414543_);fill:#FFFFFF;}
	.st46{clip-path:url(#SVGID_00000030463795277072835180000003869381326820051864_);}
	.st47{clip-path:url(#SVGID_00000030463795277072835180000003869381326820051864_);fill:#FFFFFF;}
	.st48{clip-path:url(#SVGID_00000117662060975493075120000011371329760122102202_);fill:#FFFFFF;}
	.st49{clip-path:url(#SVGID_00000072266045980810970850000017644421860284363917_);fill:#FFFFFF;}
	.st50{clip-path:url(#SVGID_00000124872591105618128640000003435732941937753249_);}
	.st51{clip-path:url(#SVGID_00000124872591105618128640000003435732941937753249_);fill:#FFFFFF;}
	.st52{fill:url(#SVGID_00000161624422968884010250000002149153215964493707_);}
	.st53{fill:url(#SVGID_00000181052447178703133570000016772340705694635443_);}
	.st54{clip-path:url(#SVGID_00000055708631575516067860000013343943564830934703_);}
	.st55{clip-path:url(#SVGID_00000026144785728228562590000013159733853011136171_);fill:none;}
	.st56{fill:url(#SVGID_00000031926688965498849630000013074980279006585744_);}
	.st57{fill:url(#SVGID_00000097471032965173569190000015702121258081452932_);}
	.st58{clip-path:url(#SVGID_00000074403066035308925090000017147431545240906673_);}
	.st59{clip-path:url(#SVGID_00000054953566431109032660000001859058317388238758_);fill:none;}
	.st60{fill:url(#SVGID_00000154404337005358494040000014270329121510108843_);}
	.st61{clip-path:url(#SVGID_00000008131868239191056560000002968258671247717273_);}
	.st62{clip-path:url(#SVGID_00000152232950082246127600000008068297562164779186_);}
	.st63{clip-path:url(#SVGID_00000097469452539056060470000008093426429666810518_);}
	.st64{fill:url(#SVGID_00000108284634164239885090000012431392837099050928_);}
	.st65{clip-path:url(#SVGID_00000162347227742482962300000012019022252052313487_);}
	.st66{clip-path:url(#SVGID_00000111900444496976723930000012713648171234909612_);}
	.st67{clip-path:url(#SVGID_00000011010519260631929320000007751046133093559978_);}
	.st68{clip-path:url(#SVGID_00000164489321871502845840000003714065241691916452_);}
	.st69{clip-path:url(#SVGID_00000155828242251128148780000000383309014791389882_);}
	.st70{clip-path:url(#SVGID_00000112595865859901859370000014039510904197089677_);}
	.st71{fill:url(#SVGID_00000112624162405150025770000005089971928750400150_);}
	.st72{clip-path:url(#SVGID_00000024687229806246909710000005136406261680336288_);}
	.st73{clip-path:url(#SVGID_00000052805748602053877610000014550489780626236348_);}
	.st74{clip-path:url(#SVGID_00000045615914957795073830000009032768906260573362_);}
	.st75{fill:url(#SVGID_00000083808744581930813420000008181970359119893174_);}
	.st76{fill:url(#SVGID_00000048496756813300831420000011144709988830483130_);}
	.st77{clip-path:url(#SVGID_00000067940890791118120740000006770107145842262414_);}
	.st78{clip-path:url(#SVGID_00000039825226280046334650000011582468929462734226_);fill:none;}
	.st79{clip-path:url(#SVGID_00000140006789987028496950000007359052471351454399_);}
	.st80{clip-path:url(#SVGID_00000072256244504220229540000014420218826926138784_);}
	.st81{clip-path:url(#SVGID_00000158012624840141205060000017559315058629068941_);}
	.st82{fill:url(#SVGID_00000171699599659408677530000002588528593740566205_);}
	.st83{clip-path:url(#SVGID_00000030470087993838080400000005495308959280809128_);}
	.st84{clip-path:url(#SVGID_00000128455139061853745830000002361269774901419650_);}
	.st85{clip-path:url(#SVGID_00000026854190822530256600000006792134184555158944_);}
	.st86{clip-path:url(#SVGID_00000065075960319383043950000007648249480771124919_);}
	.st87{clip-path:url(#SVGID_00000109746404436706670840000000257506654551254919_);}
	.st88{clip-path:url(#SVGID_00000103252290999045282900000013039394118420205470_);}
	.st89{clip-path:url(#SVGID_00000066509533660958511210000005064751924459296144_);}
	.st90{clip-path:url(#SVGID_00000106106981923574071240000009238488661471946169_);}
	.st91{clip-path:url(#SVGID_00000000905385575293646520000002699475466079563404_);}
	.st92{fill:url(#SVGID_00000054966163112145442460000009376677081034996917_);}
	.st93{clip-path:url(#SVGID_00000082338239038538349660000008562889046317976465_);}
	.st94{clip-path:url(#SVGID_00000028286532137231509690000017967712113815394705_);}
	.st95{clip-path:url(#SVGID_00000120528662632789291210000010083123364382823603_);}
	.st96{clip-path:url(#SVGID_00000017476598256946949840000006463481928994695297_);}
	.st97{clip-path:url(#SVGID_00000127041897504207898420000007941733556541266065_);fill:#FFFFFF;}
	.st98{clip-path:url(#SVGID_00000175305402686978106240000012637446800830768262_);}
	.st99{clip-path:url(#SVGID_00000137132815589521393360000012540606849587541670_);}
	.st100{clip-path:url(#SVGID_00000156588277820343548610000009442158509723852223_);fill:#FFFFFF;}
	.st101{clip-path:url(#SVGID_00000142173975477381540110000012030698559052811180_);}
	.st102{fill:url(#SVGID_00000048472541895430708800000000539318194206664078_);}
	.st103{fill:url(#SVGID_00000111888941698430004680000005887712404021491645_);}
	.st104{clip-path:url(#SVGID_00000166655650526849623250000013029600645844601520_);}
	.st105{clip-path:url(#SVGID_00000165925450686426338220000009759786444306862223_);fill:none;}
	.st106{clip-path:url(#SVGID_00000139977836136516052350000000004989208256127147_);}
	.st107{clip-path:url(#SVGID_00000071543535077614750030000012194455540952125312_);}
	.st108{clip-path:url(#SVGID_00000145054930786090645920000015772824694605547674_);}
	.st109{fill:url(#SVGID_00000011738662879024255830000014064440815860914588_);}
	.st110{fill:url(#SVGID_00000108295886243900750140000015735940254977574302_);}
	.st111{fill:url(#SVGID_00000013898810030864233970000005626210264058121373_);}
	.st112{clip-path:url(#SVGID_00000117637601662611378020000004127779564556656768_);}
	.st113{clip-path:url(#SVGID_00000070098276605375822950000011565321105657274264_);fill:none;}
	.st114{fill:url(#SVGID_00000124876891087547681090000018216907445928691876_);}
	.st115{fill:url(#SVGID_00000165952868478751350190000011205498342407403930_);}
	.st116{clip-path:url(#SVGID_00000074400428793284648520000013360105128757199254_);}
	.st117{clip-path:url(#SVGID_00000084500626614111179320000005952122901514803330_);fill:none;}
	.st118{clip-path:url(#SVGID_00000023995105530519870300000006994993859566946983_);}
	.st119{clip-path:url(#SVGID_00000110443231573156964880000014902881666099689093_);}
	.st120{clip-path:url(#SVGID_00000065773770214608893310000000048613431945039791_);}
	.st121{fill:url(#SVGID_00000011027640385998041610000005557471891231284896_);}
	.st122{fill:url(#SVGID_00000059994438371095781740000004466387475078491804_);}
	.st123{fill:url(#SVGID_00000003099682808343210480000004975077245774735798_);}
	.st124{clip-path:url(#SVGID_00000121266403536436490650000014823870431646017671_);}
	.st125{clip-path:url(#SVGID_00000043452600298263853890000007597560510508913315_);fill:none;}
	.st126{clip-path:url(#SVGID_00000116200692460198048630000000679074559247619725_);}
	.st127{clip-path:url(#SVGID_00000151526730265066384400000004475694582431688344_);}
	.st128{clip-path:url(#SVGID_00000067928321999548054610000002753336417754378401_);}
	.st129{fill:url(#SVGID_00000008110716726612701350000018227184699597362094_);}
	.st130{fill:url(#SVGID_00000054260870302704735230000009730543251397751182_);}
	.st131{fill:url(#SVGID_00000168112350580784736080000001290405761793142941_);}
	.st132{clip-path:url(#SVGID_00000145743874724956040880000011836451054572254366_);}
	.st133{clip-path:url(#SVGID_00000065760523819777527480000012306693072241741971_);fill:none;}
	.st134{clip-path:url(#SVGID_00000143615366794104864310000009921999741436909723_);}
	.st135{clip-path:url(#SVGID_00000132070755674583580930000012529833622562238348_);}
	.st136{clip-path:url(#SVGID_00000096041253904350152550000003150284004827615131_);}
	.st137{fill:url(#SVGID_00000047761587755783801800000015724206873355163782_);}
	.st138{fill:url(#SVGID_00000066513972889853744090000017992180482495382968_);}
	.st139{fill:url(#SVGID_00000094620431349494967850000015796878260125767605_);}
	.st140{clip-path:url(#SVGID_00000111901169163427833280000011023509128955417480_);}
	.st141{clip-path:url(#SVGID_00000152967863242432251570000006505851254200256134_);fill:none;}
	.st142{clip-path:url(#SVGID_00000021809594894104904200000006032208128163472059_);}
	.st143{clip-path:url(#SVGID_00000145027151301759656290000007138761708133629342_);}
	.st144{clip-path:url(#SVGID_00000163781217435985196840000012482665494295639936_);}
	.st145{fill:url(#SVGID_00000125582662220207230710000006428761132791313561_);}
	.st146{fill:url(#SVGID_00000107586165893351560740000004206705175308210847_);}
	.st147{fill:url(#SVGID_00000109015267061470555830000007310982991501459618_);}
	.st148{clip-path:url(#SVGID_00000078022344845233710910000012808310163092852365_);}
	.st149{clip-path:url(#SVGID_00000024683530487132505070000011061014492352169089_);fill:none;}
	.st150{clip-path:url(#SVGID_00000102508983094231850900000011276655575385202357_);}
	.st151{clip-path:url(#SVGID_00000029738077916821604030000003204946406275027843_);fill:#FFFFFF;}
	.st152{clip-path:url(#SVGID_00000008116757932854571020000010959645691154939525_);}
	.st153{fill:url(#SVGID_00000020377966221899293090000010560307082194219431_);}
	.st154{fill:url(#SVGID_00000147925977224130797870000001803698310559820960_);}
	.st155{fill:url(#SVGID_00000062882099188917507850000014785787950524230552_);}
	.st156{clip-path:url(#SVGID_00000016764281447069286130000002454823432065024661_);fill:#FFFFFF;}
	.st157{clip-path:url(#SVGID_00000012434321429969363530000013890118886455690135_);fill:none;}
	.st158{clip-path:url(#SVGID_00000081622332103554373330000008684644598636130719_);}
	.st159{clip-path:url(#SVGID_00000116204585066749694260000004315395590764722580_);fill:#FFFFFF;}
	.st160{clip-path:url(#SVGID_00000118365167244657805580000014001428704734371736_);}
	.st161{fill:url(#SVGID_00000163760230305674467370000017898565729772567684_);}
	.st162{fill:url(#SVGID_00000168098145881576355090000010813942281455660930_);}
	.st163{fill:url(#SVGID_00000124860470000543262120000007586944804960531089_);}
	.st164{clip-path:url(#SVGID_00000083786991299658103250000005222623555540934283_);fill:#FFFFFF;}
	.st165{clip-path:url(#SVGID_00000080183978962486171690000008990516967857802121_);fill:none;}
</style>
<g class="st0">
	<g class="st1">
		<g>
			<g>
				<g>
					<path d="M2074.2-123.8c3-1.5,6.5-3.2,10.5-5c13.2-6.2,23.7,12.3,11.6,20.5c-4.2,2.9-8,5.5-11.1,7.6
						c-38.8,27.2-72.7,59.2-72.7,167.4c0,135.9,112.5,268.4,112.5,366.9c0,76.4-21.6,146.5-191.1,228.7c-5.6,2.7-12.2,0.6-15.3-4.7
						l0,0c-3.3-5.7-1.1-13,4.6-16.1c67.7-36.2,87.6-111.2,84.7-175.6c-6-134-114.5-249.2-112.5-359.1
						C1896.7,41.2,1922.7-47.5,2074.2-123.8z"/>
					<path d="M1968.4,422.2c-9.6-3.6-29.1-13.9-41.4-41.1L1792.7,83.4c-5.7-12.7-23.5-13.2-29.9-0.9l-99.4,188.7
						c-5.1,9.8-15.3,15.9-26.3,15.9h-119.2h-4c-4,0-8,3.2-8.6,7.1c-0.8,5.1,2.9,9.5,7.8,9.9c33.1,3,53,25.1,52.7,60.8
						c-0.2,32.9-27.7,59.9-60.7,59.9h-8.6c-88.3,0-92.1-101.4-92.1-123.6c0-25.8,0-77.6,0-77.6c0-38.1,15.3-104.9,89.7-104.9
						c69.5,0,108.5,32,140.3,74.4c5.2,7,16.3,1.2,13.6-7.1L1620,98.6c-2.7-8.4-12.6-12.1-20.2-7.5c-20.5,12.6-32.5,10.5-32.5,10.5
						c-10.1,0.3-42.2-8.8-81.2-8.8c-62.2,0-112.5,24.7-146.9,57.9c-3.4,3.3-9.1,2.2-10.8-2.3l-20.7-50.3H1120V98h-92.2
						c-5.9,0-11.6-0.2-17.5-0.5C978.8,95.7,867.8,90,811,90c-71.2,0-127,22.3-132.6,74.8c-4.2,39.5,23.2,60.1,38.9,74.5
						c8.5,7.8,48.5,33.1,69,42.6c21.4,9.9,106.8,52.7,98,86.6c-8.8,33.6-37.7,41.9-71,41.9c-52.3,0-108.4-43.3-150-82.1
						c-7.2-6.8-18.4,1.6-13.9,10.5c17.2,33.6,39.2,74.5,53.6,96.1c4.1,6.1,11.5,9.1,18.7,7.2c15.5-3.9,35.6-6,47.8-5.4
						c15.7,0.7,48.6,5,63,5c119.8,0,157.3-31.5,161.2-86.1c5.4-75.1-84.3-125.1-138.9-147c-48.8-19.7-67.7-49.3-65.6-64
						c3.4-25.5,27.7-29.8,48-29c63,2.4,181.8,33.1,181.8,76.3c0,0,0,192.1,0,200.5c0,11.2-12.2,31.4-27.7,31.4H991
						c-2.8,0-5.6,1-7.6,3c-5.4,5.4-1.6,11.7,3.5,11.7h66.9l0,0h66.3h189.1c6.1,0,11.4-3.6,13.8-9.3l10.3-25.1c2-4.8,8.1-6.3,12-2.8
						c33.7,30.5,83.1,49.6,150.6,49.6c15.7,0,48.4-4.3,63.6-9.9c4.8-1.7,10-2.7,15.1-2.7h126.5h20.4c7.5,0,11.1-9.4,5.5-14.4
						c-2.5-2.2-4.7-4.2-6.3-5.7c-12-10.9-11.5-18.3-11.8-24.6c-0.3-6.2,1-12.3,3.9-17.9l89.6-170.2l76.6,169.9
						c2.6,5.7,3.8,11.9,3.3,18.1c-0.1,0.8-0.1,1.5-0.2,2.1c-1.4,8-8.6,24.2-22.1,24.2h-2.2c-3.3,0-6.6,1.1-9.1,3.3
						c-7.5,6.7-2.9,15.1,3.7,15.1h113.3c5.2,0,9.4-4.7,8.3-10.1C1973.4,425.6,1971.3,423.2,1968.4,422.2z M1310.5,185.7
						c-15.4,24.3-23.8,50-23.8,72.6c0,30.1,5.6,59.6,17.3,86c2.6,5.8,1.4,12.6-3,17.1c-21.7,22-69.1,52.7-136.9,52.7h-16.6
						c-15.1,0-27.4-12.2-27.4-27.4v-92.3v-4.9c0-5.1,7.7-11.5,16.4-9.8c13.3,2.6,36.6,10.9,55.3,21.7c13.1,7.6,24.9,15.5,38.5,26.8
						c6,4.9,15,0.6,15-7.1v-29v-57.3v-29c0-7.7-9.1-12-15-7.1c-13.6,11.2-25.4,19.1-38.5,26.8c-18.6,10.7-42.7,22-55.9,25.1
						c-10.2,2.4-13.8-1.6-15.7-5.5v-5.6v-90.5c0-14.4,11.7-26.1,26.1-26.1h33.5c54.9,0,105.1,31.5,129.1,52.3
						C1311.9,177.6,1312.7,182.3,1310.5,185.7z"/>
					<path d="M3868.3,102c-0.8-2.4-3.2-3.9-5.8-3.9h-26.3h-49.5h-26.3c-2.6,0-4.9,1.5-5.8,3.9c-1.1,3.3,0.7,6.6,3.7,7.6
						c9.5,3.1,32.2,13.1,32.2,36.9v143.1c0,5.5-6.4,8.4-10.6,4.9l-150.4-124.8c-46.9-39-113.4-64.9-157.3-79.1
						c-9.7-3.1-16.4,9.7-8.2,15.8c1.4,1.1,2.9,2.2,4.4,3.3c50.1,37.7,55.5,91.7,55.5,97.8v192.2v9.3c0,7.2-5.9,13.1-13.1,13.1
						c-16.8,0-54.3-27.3-73.5-47.3c-18-18.8-26.6-44.8-46.8-68.5c-16.1-18.8-29.7-25.8-29.7-25.8c101.1,0,104.1-82,104.1-91.2
						c0-13.7,0-91.6-126.6-91.6h-292.1h-49.7c-2.6,0-4.9,1.5-5.8,3.9c-1.1,3.3,0.7,6.7,3.7,7.6c9.5,3.1,32.2,13.1,32.2,36.9v180.1
						c0,62.2-43.5,83-78.4,83c-63.6,0-88-37.5-88-84.6v-27.3l0,0V146.3c0-23.9,22.7-33.9,32.2-36.9c2.5-0.8,4.1-3,4.1-5.6v-0.1
						c0-3.2-2.6-5.9-5.9-5.9h-114.1h-17.5h-229.9h-117.1c-7.1,0-13.7,4.1-16.8,10.5l-18.8,39c-3.2,6.7,4.4,13.3,10.6,9.2
						c25.2-17.1,67.6-36.7,129.6-39.1c6.8-0.2,12.4,5.2,12.4,12v246.9c0,11.7-4.3,20.8-10.2,27.7c-4.5,5.4-11.3,8.4-18.4,8.4h-15.2
						c-4.9,0-9.9-1.3-14.1-4.1c-9.7-6.3-18.8-15.1-24.4-27.5L2312.7,83.1c-5.8-12.7-23.5-13.2-29.9-0.9l-139.7,265.1l-40.3,76.4
						l2.8,14.6h40.5h7.2h88l0,0c7.5,0,11.1-9.4,5.5-14.4c0,0-0.1,0-0.1-0.1c-2.5-2.2-4.6-4.1-6.2-5.6
						c-11.9-10.7-11.5-18.1-11.8-24.4c-0.3-6.3,1-12.6,3.9-18.1l89.7-170.2l76.6,169.9c2.6,5.7,3.8,11.9,3.3,18.1
						c-0.1,0.8-0.1,1.5-0.2,2.1c-1.4,8-8.6,24.2-22.1,24.2h-0.2c-2.7,0-5.4,0.8-7.5,2.5c-8.8,6.8-4.1,15.9,2.7,15.9h112.9h6.6h89.2
						h26.3h53.9c4.6,0,8.6-3.5,8.8-8.1c0.2-3.7-2.1-7.2-5.5-8.4c-11.3-4.3-36.3-17.2-36.3-45.4V129.4c0-7,5.7-12.3,12.7-12
						c47.9,1.9,84.2,14,109.7,27.4c4.1,2.2,6.7,6.4,6.7,11v159.1h0.4c4.1,73.1,38.8,129.2,165.9,129.2
						c73.7,0,142.7-38.6,142.7-109.7c0-8.7,0-182.3,0-182.3c0-10.8,3.4-18.4,7.7-23.7c6.3-7.7,15.9-11.8,25.9-11.8h15
						c10,0,19.7,4.1,25.9,11.8c4.3,5.4,7.7,13,7.7,23.7v221c0,32.8-26,45.2-38.2,49.2c-2.9,0.9-5.2,3.3-5.9,6.4
						c-1,5.4,3,10.1,8.2,10.1h54.3h61.3h56.8c3.5,0,6.8-2.1,8-5.4c1.7-4.7-0.8-9.6-5.1-11c-11.9-3.9-38.5-16.3-38.5-49.3V163.5
						v-24.9c0-18.7,16.1-25.5,27.1-25.5h31.6c29.4,0,58.6,24.8,58.6,66.2c0,60.7-39.5,75.4-55.7,75.4c-10.8,0-19.2,0.2-28.2-3.1
						c0,0-0.1,0-0.1-0.1c-5.7-2.7-11.7,2.6-9.9,8.5c0.1,0.3,0.1,0.5,0.2,0.5c9.5,32.1,26.5,81.2,49.8,112.5
						c36.1,48.7,104.6,87.5,219.6,87.5h49.4c3.1,0,6-1.9,6.9-4.7c1.3-4-0.9-8-4.6-9.2c-9.9-3-30.9-11.9-30.9-34.3V250.8
						c0-5.5,6.4-8.4,10.6-4.9L3815.1,444c6.9,5.7,17.2,0.8,17.2-8.1V146.6c0-23.9,22.7-33.9,32.2-36.9
						C3867.6,108.7,3869.5,105.4,3868.3,102z"/>
				</g>
			</g>
		</g>
		<g>
			<g>
				<path d="M228.7,427.6c-7.3-5.8-14.1-12.1-20.8-18.6c-3.3-3.2-6.5-6.5-9.8-9.7c-2.2-2.2-4.7-4.2-6.8-6.5c-31.3,3-60.7,4-87,2.6
					c-13.3-0.7-24.6,9.7-25.2,23c-0.5,13.2,10,24.1,23.2,24.9c8.7,0.4,17.7,0.6,26.9,0.6c34.1,0,71.4-3,110.2-8.6
					C235.8,432.8,232.2,430.3,228.7,427.6z"/>
				<path d="M630.8,225.6c-2.3-14.1-10-25.5-22.3-32.9c-44-26.7-143.9,3.6-303.1,56.7c-55.7,18.5-108.3,35.7-151.9,47.2
					c-36.3,9.7-56.3,12.1-66.7,11.3c-7-0.6-8.6-7-6.6-11c0.7-1.4,1.7-3,2.8-4.6c11.4-16.5,37.8-34.9,74.9-53
					c0.8-4.8,1.8-9.6,2.8-14.3c1.3-5.5,2.8-11,4.3-16.5c0.8-2.6,1.6-5.2,2.6-7.8c1-2.4,2-4.7,3.1-7c2.6-5.6,5.7-11,8.4-16.5
					c-55.2,22.5-111,52.4-135.5,87.6c-18.4,26.4-15.1,49-9.2,63.3c15.1,36.4,66.4,29.9,114.6,18.8c48-11.1,108-31.1,171.5-52.2
					c61.3-20.5,124.7-41.6,175.8-53.7c48-11.5,70.4-11.3,80.3-9.6c4.6,0.8,7.4,5.6,5.8,10c-2.3,6.4-7.4,12.8-10.9,16.7
					c-12.2,13.7-31.7,27.8-56.8,41.7c-0.4,3.9-1,7.8-1.8,11.6c-1.1,5.4-2.6,10.8-4.2,16.1c-1.4,4.6-3,9-4.2,13.6
					c-1.3,4.8-2.5,9.7-4,14.5c-0.6,2-1.4,4-2.2,5.9c49.2-22.5,87-47,108.8-71.4C626.3,268.7,634.3,247,630.8,225.6z"/>
				<path d="M424.4,114.3c5.4,3.4,10.8,6.9,16,10.6c1.2,0.8,2.4,1.7,3.5,2.6c1,0.9,2.1,1.8,3,2.6c1.9,1.8,3.8,3.8,5.6,5.7
					c3.7,3.9,7.1,8,10.9,11.8c1,1.1,2.2,2.2,3.3,3.2c32.5-4.2,61.5-6.2,84.6-5.3c13.2,0.6,24.4-9.8,24.9-23
					c0.5-13.2-9.8-24.4-23-24.9c-35.6-1.4-83.3,3.2-135.7,12.4C419.8,111.4,422.1,112.9,424.4,114.3z"/>
				<g>
					<path d="M333.7,99c23.5,0,46.2,4.6,67.6,13.7c20.7,8.8,39.2,21.3,55.2,37.2s28.5,34.5,37.2,55.2c9,21.4,13.7,44.2,13.7,67.6
						s-4.6,46.2-13.7,67.6c-8.8,20.7-21.3,39.2-37.2,55.2s-34.5,28.5-55.2,37.2c-21.4,9-44.2,13.7-67.6,13.7s-46.2-4.6-67.6-13.7
						c-20.7-8.8-39.2-21.3-55.2-37.2s-28.5-34.5-37.2-55.2c-9-21.4-13.7-44.2-13.7-67.6c0-23.4,4.6-46.2,13.7-67.6
						c8.8-20.7,21.3-39.2,37.2-55.2s34.5-28.5,55.2-37.2C287.4,103.7,310.2,99,333.7,99 M333.7,83.1c-104.8,0-189.8,85-189.8,189.8
						s85,189.8,189.8,189.8s189.8-85,189.8-189.8S438.5,83.1,333.7,83.1L333.7,83.1z"/>
				</g>
			</g>
		</g>
	</g>
</g>
<g>
	<g>
		<g>
			<path d="M199.1,557.7c-7.3-5.8-14.1-12.1-20.8-18.6c-3.3-3.2-6.5-6.5-9.8-9.7c-2.2-2.2-4.7-4.2-6.8-6.5c-31.3,3-60.7,4-87,2.6
				c-13.3-0.7-24.6,9.7-25.2,23c-0.5,13.2,10,24.1,23.2,24.9c8.7,0.4,17.7,0.6,26.9,0.6c34.1,0,71.4-3,110.2-8.6
				C206.1,562.9,202.5,560.4,199.1,557.7z"/>
			<path d="M601.1,355.7c-2.3-14.1-10-25.5-22.3-32.9c-44-26.7-143.9,3.6-303.1,56.7C220,398,167.4,415.1,123.8,426.7
				c-36.3,9.7-56.3,12.1-66.7,11.3c-7-0.6-8.6-7-6.6-11c0.7-1.4,1.7-3,2.8-4.6c11.4-16.5,37.8-34.9,74.9-53
				c0.8-4.8,1.8-9.6,2.8-14.3c1.3-5.5,2.8-11,4.3-16.5c0.8-2.6,1.6-5.2,2.6-7.8c1-2.4,2-4.7,3.1-7c2.6-5.6,5.7-11,8.4-16.5
				c-55.2,22.5-111,52.4-135.5,87.6c-18.4,26.4-15.1,49-9.2,63.3c15.1,36.4,66.4,29.9,114.6,18.8c48-11.1,108-31.1,171.5-52.2
				c61.3-20.5,124.7-41.6,175.8-53.7c48-11.5,70.4-11.3,80.3-9.6c4.6,0.8,7.4,5.6,5.8,10c-2.3,6.4-7.4,12.8-10.9,16.7
				c-12.2,13.7-31.7,27.8-56.8,41.7c-0.4,3.9-1,7.8-1.8,11.6c-1.1,5.4-2.6,10.8-4.2,16.1c-1.4,4.6-3,9-4.2,13.6
				c-1.3,4.8-2.5,9.7-4,14.5c-0.6,2-1.4,4-2.2,5.9c49.2-22.5,87-47,108.8-71.4C596.6,398.8,604.6,377.1,601.1,355.7z"/>
			<path d="M394.7,244.4c5.4,3.4,10.8,6.9,16,10.6c1.2,0.8,2.4,1.7,3.5,2.6c1,0.9,2.1,1.8,3,2.6c1.9,1.8,3.8,3.8,5.6,5.7
				c3.7,3.9,7.1,8,10.9,11.8c1,1.1,2.2,2.2,3.3,3.2c32.5-4.2,61.5-6.2,84.6-5.3c13.2,0.6,24.4-9.8,24.9-23
				c0.5-13.2-9.8-24.4-23-24.9c-35.6-1.4-83.3,3.2-135.7,12.4C390.1,241.5,392.4,243,394.7,244.4z"/>
			<g>
				<path d="M304,229.1c23.5,0,46.2,4.6,67.6,13.7c20.7,8.8,39.2,21.3,55.2,37.2c16,16,28.5,34.5,37.2,55.2
					c9,21.4,13.7,44.2,13.7,67.6c0,23.4-4.6,46.2-13.7,67.6c-8.8,20.7-21.3,39.2-37.2,55.2c-16,16-34.5,28.5-55.2,37.2
					c-21.4,9-44.2,13.7-67.6,13.7c-23.4,0-46.2-4.6-67.6-13.7c-20.7-8.8-39.2-21.3-55.2-37.2s-28.5-34.5-37.2-55.2
					c-9-21.4-13.7-44.2-13.7-67.6c0-23.4,4.6-46.2,13.7-67.6c8.8-20.7,21.3-39.2,37.2-55.2c16-16,34.5-28.5,55.2-37.2
					C257.7,233.8,280.5,229.1,304,229.1 M304,213.2c-104.8,0-189.8,85-189.8,189.8s85,189.8,189.8,189.8s189.8-85,189.8-189.8
					S408.8,213.2,304,213.2L304,213.2z"/>
			</g>
		</g>
	</g>
	<g>
		<g>
			<g>
				<path d="M2044.6,6.3c3-1.5,6.5-3.2,10.5-5c13.2-6.2,23.7,12.3,11.6,20.5c-4.2,2.9-8,5.5-11.1,7.6
					c-38.8,27.2-72.7,59.2-72.7,167.4c0,135.9,112.5,268.4,112.5,366.9c0,76.4-21.6,146.5-191.1,228.7c-5.6,2.7-12.2,0.6-15.3-4.7
					l0,0c-3.3-5.7-1.1-13,4.6-16.1c67.7-36.2,87.6-111.2,84.7-175.6c-6-134-114.5-249.2-112.5-359.1
					C1867,171.3,1893,82.6,2044.6,6.3z"/>
				<path d="M1938.7,552.3c-9.6-3.6-29.1-13.9-41.4-41.1l-134.3-297.8c-5.7-12.7-23.5-13.2-29.9-0.9l-99.4,188.7
					c-5.1,9.8-15.3,15.9-26.3,15.9h-119.2h-4c-4,0-8,3.2-8.6,7.1c-0.8,5.1,2.9,9.5,7.8,9.9c33.1,3,53,25.1,52.7,60.8
					c-0.2,32.9-27.7,59.9-60.7,59.9h-8.6c-88.3,0-92.1-101.4-92.1-123.6c0-25.8,0-77.6,0-77.6c0-38.1,15.3-104.9,89.7-104.9
					c69.5,0,108.5,32,140.3,74.4c5.2,7,16.3,1.2,13.6-7.1l-27.9-87.4c-2.7-8.4-12.6-12.1-20.2-7.5c-20.5,12.6-32.5,10.5-32.5,10.5
					c-10.1,0.3-42.2-8.8-81.2-8.8c-62.2,0-112.5,24.7-146.9,57.9c-3.4,3.3-9.1,2.2-10.8-2.3l-15.4-37.5c-3.2-7.8-7.3-12.8-15.7-12.8
					h-177.2v-0.1h-92.2c-5.9,0-11.6-0.2-17.5-0.5c-31.6-1.7-142.6-7.5-199.4-7.5c-71.2,0-127,22.3-132.6,74.8
					c-4.2,39.5,23.2,60.1,38.9,74.5c8.5,7.8,48.5,33.1,69,42.6c21.4,9.9,106.8,52.7,98,86.6c-8.8,33.6-37.7,41.9-71,41.9
					c-52.3,0-108.4-43.3-150-82.1c-7.2-6.8-18.4,1.6-13.9,10.5c17.2,33.6,39.2,74.5,53.6,96.1c4.1,6.1,11.5,9.1,18.7,7.2
					c15.5-3.9,35.6-6,47.8-5.4c15.7,0.7,48.6,5,63,5c119.8,0,157.3-31.5,161.2-86.1c5.4-75.1-84.3-125.1-138.9-147
					c-48.8-19.7-67.7-49.3-65.6-64c3.4-25.5,27.7-29.8,48-29c63,2.4,181.8,33.1,181.8,76.3c0,0,0,192.1,0,200.5
					c0,11.2-12.2,31.4-27.7,31.4h-0.3c-2.8,0-5.6,1-7.6,3c-5.4,5.4-1.6,11.7,3.5,11.7h66.9l0,0h66.3h189.1c6.1,0,11.4-3.6,13.8-9.3
					l10.3-25.1c2-4.8,8.1-6.3,12-2.8c33.7,30.5,83.1,49.6,150.6,49.6c15.7,0,48.4-4.3,63.6-9.9c4.8-1.7,10-2.7,15.1-2.7h126.5h20.4
					c7.5,0,11.1-9.4,5.5-14.4c-2.5-2.2-4.7-4.2-6.3-5.7c-12-10.9-11.5-18.3-11.8-24.6c-0.3-6.2,1-12.3,3.9-17.9l89.6-170.2
					l76.6,169.9c2.6,5.7,3.8,11.9,3.3,18.1c-0.1,0.8-0.1,1.5-0.2,2.1c-1.4,8-8.6,24.2-22.1,24.2h-2.2c-3.3,0-6.6,1.1-9.1,3.3
					c-7.5,6.7-2.9,15.1,3.7,15.1h113.3c5.2,0,9.4-4.7,8.3-10.1C1943.7,555.7,1941.6,553.3,1938.7,552.3z M1280.8,315.8
					c-15.4,24.3-23.8,50-23.8,72.6c0,30.1,5.6,59.6,17.3,86c2.6,5.8,1.4,12.6-3,17.1c-21.7,22-69.1,52.7-136.9,52.7h-16.6
					c-15.1,0-27.4-12.2-27.4-27.4v-92.3v-4.9c0-5.1,7.7-11.5,16.4-9.8c13.3,2.6,36.6,10.9,55.3,21.7c13.1,7.6,24.9,15.5,38.5,26.8
					c6,4.9,15,0.6,15-7.1v-29v-57.3v-29c0-7.7-9.1-12-15-7.1c-13.6,11.2-25.4,19.1-38.5,26.8c-18.6,10.7-42.7,22-55.9,25.1
					c-10.2,2.4-13.8-1.6-15.7-5.5v-5.6V279c0-14.4,11.7-26.1,26.1-26.1h33.5c54.9,0,105.1,31.5,129.1,52.3
					C1282.3,307.7,1283,312.4,1280.8,315.8z"/>
				<path d="M3838.7,232.1c-0.8-2.4-3.2-3.9-5.8-3.9h-26.3h-49.5h-26.3c-2.6,0-4.9,1.5-5.8,3.9c-1.1,3.3,0.7,6.6,3.7,7.6
					c9.5,3.1,32.2,13.1,32.2,36.9v143.1c0,5.5-6.4,8.4-10.6,4.9l-150.4-124.8c-46.9-39-113.4-64.9-157.3-79.1
					c-9.7-3.1-16.4,9.7-8.2,15.8c1.4,1.1,2.9,2.2,4.4,3.3c50.1,37.7,55.5,91.7,55.5,97.8V530v9.3c0,7.2-5.9,13.1-13.1,13.1
					c-16.8,0-54.3-27.3-73.5-47.3c-18-18.8-26.6-44.8-46.8-68.5c-16.1-18.8-29.7-25.8-29.7-25.8c101.1,0,104.1-82,104.1-91.2
					c0-13.7,0-91.6-126.6-91.6h-292.1h-49.7c-2.6,0-4.9,1.5-5.8,3.9c-1.1,3.3,0.7,6.7,3.7,7.6c9.5,3.1,32.2,13.1,32.2,36.9v180.1
					c0,62.2-43.5,83-78.4,83c-63.6,0-88-37.5-88-84.6v-27.3l0,0V276.4c0-23.9,22.7-33.9,32.2-36.9c2.5-0.8,4.1-3,4.1-5.6v-0.1
					c0-3.2-2.6-5.9-5.9-5.9H2747h-17.5h-229.9h-117.1c-7.1,0-13.7,4.1-16.8,10.5l-18.8,39c-3.2,6.7,4.4,13.3,10.6,9.2
					c25.2-17.1,67.6-36.7,129.6-39.1c6.8-0.2,12.4,5.2,12.4,12v246.9c0,11.7-4.3,20.8-10.2,27.7c-4.5,5.4-11.3,8.4-18.4,8.4h-15.2
					c-4.9,0-9.9-1.3-14.1-4.1c-9.7-6.3-18.8-15.1-24.4-27.5l-134.3-297.8c-5.8-12.7-23.5-13.2-29.9-0.9l-139.7,265.1l-40.3,76.4
					l2.8,14.6h40.5h7.2h88l0,0c7.5,0,11.1-9.4,5.5-14.4c0,0-0.1,0-0.1-0.1c-2.5-2.2-4.6-4.1-6.2-5.6c-11.9-10.7-11.5-18.1-11.8-24.4
					c-0.3-6.3,1-12.6,3.9-18.1l89.7-170.2l76.6,169.9c2.6,5.7,3.8,11.9,3.3,18.1c-0.1,0.8-0.1,1.5-0.2,2.1
					c-1.4,8-8.6,24.2-22.1,24.2h-0.2c-2.7,0-5.4,0.8-7.5,2.5c-8.8,6.8-4.1,15.9,2.7,15.9h112.9h6.6h89.2h26.3h53.9
					c4.6,0,8.6-3.5,8.8-8.1c0.2-3.7-2.1-7.2-5.5-8.4c-11.3-4.3-36.3-17.2-36.3-45.4V259.5c0-7,5.7-12.3,12.7-12
					c47.9,1.9,84.2,14,109.7,27.4c4.1,2.2,6.7,6.4,6.7,11v159.1h0.4c4.1,73.1,38.8,129.2,165.9,129.2c73.7,0,142.7-38.6,142.7-109.7
					c0-8.7,0-182.3,0-182.3c0-10.8,3.4-18.4,7.7-23.7c6.3-7.7,15.9-11.8,25.9-11.8h15c10,0,19.7,4.1,25.9,11.8
					c4.3,5.4,7.7,13,7.7,23.7v220.7c0,32.8-26,45.2-38.2,49.2c-2.9,0.9-5.2,3.3-5.9,6.4c-1,5.4,3,10.1,8.2,10.1h54.3h61.3h56.8
					c3.5,0,6.8-2.1,8-5.4c1.7-4.7-0.8-9.6-5.1-11c-11.9-3.9-38.5-16.3-38.5-49.3V293.7v-24.9c0-18.7,16.1-25.5,27.1-25.5h31.6
					c29.4,0,58.6,24.8,58.6,66.2c0,60.7-39.5,75.4-55.7,75.4c-10.8,0-19.2,0.2-28.2-3.1c0,0-0.1,0-0.1-0.1
					c-5.7-2.7-11.7,2.6-9.9,8.5c0.1,0.3,0.1,0.5,0.2,0.5c9.5,32.1,26.5,81.2,49.8,112.5c36.1,48.7,104.6,87.5,219.6,87.5h49.4
					c3.1,0,6-1.9,6.9-4.7c1.3-4-0.9-8-4.6-9.2c-9.9-3-30.9-11.9-30.9-34.3V380.9c0-5.5,6.4-8.4,10.6-4.9l238.7,198.2
					c6.9,5.7,17.2,0.8,17.2-8.1V276.7c0-23.9,22.7-33.9,32.2-36.9C3837.9,238.8,3839.8,235.5,3838.7,232.1z"/>
			</g>
		</g>
	</g>
</g>
</svg>
