<?xml version="1.0" encoding="utf-8"?>
<!-- Generator: Adobe Illustrator 26.0.3, SVG Export Plug-In . SVG Version: 6.00 Build 0)  -->
<svg version="1.1" id="Layer_1" xmlns="http://www.w3.org/2000/svg" xmlns:xlink="http://www.w3.org/1999/xlink" x="0px" y="0px"
	 viewBox="0 0 3839 474.8" style="enable-background:new 0 0 3839 474.8;" xml:space="preserve">
<style type="text/css">
	.st0{fill:#FFFFFF;}
	.st1{clip-path:url(#SVGID_00000156569874161910885130000014287885085498876845_);}
	.st2{clip-path:url(#SVGID_00000029734933873299183690000008831080389715405726_);}
	.st3{fill:none;}
	.st4{clip-path:url(#SVGID_00000084490560370785788980000014897146510010578049_);}
	.st5{clip-path:url(#SVGID_00000097479803643796361890000013230788637544967822_);}
	.st6{clip-path:url(#SVGID_00000027598822097100772020000017549605178586417064_);}
	.st7{clip-path:url(#SVGID_00000179637048197407546490000007697531567398045878_);}
	.st8{clip-path:url(#SVGID_00000144314406538960314710000009020876279117905563_);fill:#FFFFFF;}
	.st9{clip-path:url(#SVGID_00000096027942280798199420000006752717778721146781_);}
	.st10{clip-path:url(#SVGID_00000086673305091451905410000011953748337241037701_);}
	.st11{clip-path:url(#SVGID_00000072258207351248885150000009626453066821571207_);}
	.st12{clip-path:url(#SVGID_00000084491577302832568050000000802039362739048602_);fill:#FFFFFF;}
	.st13{clip-path:url(#SVGID_00000125567035371409284590000015999529360726609543_);fill:#FFFFFF;}
	.st14{clip-path:url(#SVGID_00000079459876631347189400000005398742442235537584_);}
	.st15{clip-path:url(#SVGID_00000074440516431152490770000004826117914374929036_);}
	.st16{display:none;}
	.st17{display:inline;}
	.st18{clip-path:url(#SVGID_00000149351543462287451120000016155100087206812826_);fill:#FFFFFF;}
	.st19{clip-path:url(#SVGID_00000097475179274053378420000004157265670719580070_);}
	.st20{clip-path:url(#SVGID_00000141415166131736639880000014305951535312409522_);}
	.st21{clip-path:url(#SVGID_00000037650245432111335600000009295087533121504937_);}
	.st22{clip-path:url(#SVGID_00000176765541437575610470000011534669939299358380_);}
	.st23{clip-path:url(#SVGID_00000109006525968157934870000002588013203257130422_);}
	.st24{clip-path:url(#SVGID_00000018948694666641950010000007924377442758277053_);}
	.st25{clip-path:url(#SVGID_00000125582917722542025140000017004926386973346991_);fill:#FFFFFF;}
	.st26{clip-path:url(#SVGID_00000061430248644742497920000011008251102452799142_);}
	.st27{clip-path:url(#SVGID_00000098186823152072104280000000888149382121181107_);}
	.st28{clip-path:url(#SVGID_00000178886211309336362350000002299525776191564170_);}
</style>
<g>
	<g>
		<path d="M2911.1,90.1h-191.9c-15.9,0-28.9,12.9-28.9,28.9c0,15.9,12.9,28.9,28.9,28.9h67.1v207c0,15.9,12.9,28.9,28.9,28.9
			s28.9-12.9,28.9-28.9v-207h67.1c15.9,0,28.9-12.9,28.9-28.9C2940,103.1,2927.1,90.1,2911.1,90.1z"/>
		<path d="M2659.9,134.1c-14.9-30.5-43.9-57-75.6-57c-31.7,0-60.7,26.5-75.6,57c-26,53-50.6,121.7-75.2,210.1
			c-4.3,15.6,4.8,31.7,20.3,36c2.6,0.7,5.3,1.1,7.9,1.1c12.8,0,24.6-8.5,28.2-21.4c5.4-19.5,10.9-37.9,16.3-55.4h156.3
			c5.4,17.5,10.8,35.9,16.3,55.4c4.3,15.6,20.5,24.7,36,20.3c15.6-4.3,24.7-20.5,20.3-36C2710.4,255.8,2685.8,187.1,2659.9,134.1z
			 M2525.3,246.8c11.9-33.2,23.8-62.1,36-86.9c5.2-10.6,13.6-24.2,23-24.2c9.5,0,17.9,13.6,23.1,24.2c12.2,24.9,24.1,53.7,36,86.9
			L2525.3,246.8L2525.3,246.8z"/>
		<path d="M1936.3,134.1c-14.9-30.5-43.9-57-75.6-57c-31.7,0-60.7,26.5-75.6,57c-26,53-50.6,121.7-75.2,210.1
			c-4.3,15.6,4.8,31.7,20.3,36c2.6,0.7,5.3,1.1,7.9,1.1c12.8,0,24.6-8.5,28.2-21.4c5.4-19.5,10.9-37.9,16.3-55.4h156.2
			c5.4,17.5,10.8,35.9,16.3,55.4c4.3,15.6,20.5,24.7,36,20.3c15.6-4.3,24.7-20.5,20.3-36C1986.8,255.8,1962.2,187.1,1936.3,134.1z
			 M1801.6,246.7c11.9-33.2,23.8-62.1,36-86.9c5.2-10.6,13.6-24.2,23-24.2c9.5,0,17.9,13.6,23.1,24.2c12.2,24.9,24.1,53.7,36,86.9
			L1801.6,246.7L1801.6,246.7z"/>
		<path d="M1702.3,243.8c0-0.8,0-1.6-0.1-2.3c0-0.2,0-0.4-0.1-0.6c-0.1-0.8-0.2-1.5-0.3-2.3c0-0.2-0.1-0.4-0.1-0.6
			c-0.2-0.7-0.3-1.5-0.6-2.2c-0.1-0.2-0.1-0.4-0.2-0.6c-0.2-0.7-0.5-1.4-0.8-2.1c-0.1-0.2-0.2-0.4-0.2-0.6c-0.3-0.7-0.6-1.3-0.9-2
			c-0.1-0.2-0.2-0.4-0.3-0.6c-0.4-0.6-0.7-1.2-1.1-1.8c-0.1-0.2-0.2-0.4-0.4-0.5c-0.4-0.6-0.8-1.1-1.3-1.7c-0.1-0.2-0.3-0.3-0.4-0.5
			c-0.5-0.5-0.9-1.1-1.4-1.6c-0.2-0.2-0.3-0.3-0.5-0.5c-0.5-0.5-1-1-1.5-1.4c-0.2-0.1-0.4-0.3-0.5-0.4c-0.5-0.4-1.1-0.8-1.7-1.2
			c-0.2-0.1-0.4-0.3-0.6-0.4c-0.6-0.4-1.1-0.7-1.7-1.1c-0.2-0.1-0.5-0.2-0.7-0.4c-0.6-0.3-1.2-0.6-1.8-0.9c-0.3-0.1-0.6-0.2-0.8-0.3
			c-0.6-0.2-1.2-0.5-1.8-0.6c-0.3-0.1-0.6-0.2-1-0.3c-0.6-0.2-1.2-0.3-1.7-0.4c-0.4-0.1-0.7-0.1-1.1-0.2c-0.6-0.1-1.1-0.2-1.7-0.3
			c-0.4,0-0.8-0.1-1.2-0.1s-0.7-0.1-1.1-0.1c-0.2,0-0.4,0-0.6,0c-0.1,0-0.3,0-0.4,0h-109.2c-15.9,0-28.9,12.9-28.9,28.9
			c0,15.9,12.9,28.9,28.9,28.9h76.4c-13.2,53.6-55.9,62.5-85.6,62.5c-58.9,0-100.1-44.6-100.1-108.4c0-46.6,47.7-89,100.1-89
			c32.1,0,55.9,7.3,82.1,25.1c13.2,9,31.1,5.5,40.1-7.6c9-13.2,5.5-31.1-7.6-40.1c-35.7-24.3-71-35.1-114.5-35.1
			c-40.9,0-80,15.4-110.3,43.5c-30.2,27.9-47.5,65.6-47.5,103.2c0,48.4,16.1,90.3,46.6,121c28.9,29.1,68.4,45.1,111.2,45.1
			c40.2,0,75.5-11.6,102.2-33.5c22.2-18.2,42.8-52.8,45-114.6c0-0.3,0-0.5,0-0.8c0-0.1,0-0.2,0-0.2
			C1702.3,244.1,1702.3,244,1702.3,243.8z"/>
		<path d="M1368.9,326h-135.5v-65.2h94.8c15.9,0,28.9-12.9,28.9-28.9c0-15.9-12.9-28.9-28.9-28.9h-94.8v-55.3h135.5
			c15.9,0,28.9-12.9,28.9-28.9c0-15.9-12.9-28.9-28.9-28.9h-164.4c-15.9,0-28.9,12.9-28.9,28.9v235.9c0,15.9,12.9,28.9,28.9,28.9
			h164.4c15.9,0,28.9-12.9,28.9-28.9C1397.7,338.9,1384.8,326,1368.9,326z"/>
		<path d="M2430.2,288c-3.8-46.9-41.7-82.6-87.2-82.6c-1,0-1.9,0-2.9,0h-26.3c-0.2,0-0.4,0-0.5,0h-63.9h-1.2
			c-16,0.6-29.5-12.2-30.9-29.3c-0.9-13.3,5.6-26.6,14-28.5l1.6-0.4c37.6-10.7,117.8-7.9,145.9,2.3c15,5.4,31.5-2.4,36.9-17.4
			s-2.4-31.5-17.4-36.9c-41.4-14.9-133.8-16.7-180.6-3.6c-36.1,8.6-61.1,46.6-58,88.8v0.3c3.8,46.9,41.7,82.6,87.2,82.6
			c1,0,1.9,0,2.9,0h26.3c0.2,0,0.4,0,0.5,0h63.9h1.2c16-0.6,29.5,12.2,30.9,29.3c0.9,13.3-5.6,26.6-14,28.5l-1.6,0.4
			c-37.6,10.7-117.8,7.9-145.9-2.3c-15-5.4-31.5,2.4-36.9,17.4c-5.4,15,2.4,31.5,17.4,36.9c22.7,8.2,60.8,12.4,98.3,12.4
			c30.8,0,61.2-2.9,82.3-8.8c36.1-8.6,61.1-46.6,58-88.8V288z"/>
		<path d="M1150.8,288c-3.8-46.9-41.7-82.6-87.2-82.6c-1,0-1.9,0-2.9,0h-26.3c-0.2,0-0.4,0-0.5,0H970h-1.2
			c-16,0.6-29.5-12.2-30.9-29.3c-0.9-13.3,5.6-26.6,14-28.5l1.6-0.4c37.6-10.7,117.8-7.9,145.9,2.3c15,5.4,31.5-2.4,36.9-17.4
			c5.4-15-2.4-31.5-17.4-36.9c-41.4-14.9-133.8-16.7-180.6-3.6c-36.1,8.6-61.1,46.6-58,88.8v0.3c3.8,46.9,41.7,82.6,87.2,82.6
			c1,0,1.9,0,2.9,0h26.3c0.2,0,0.4,0,0.5,0h63.9h1.2c16-0.6,29.5,12.2,30.9,29.3c0.9,13.3-5.6,26.6-14,28.5l-1.6,0.4
			c-37.6,10.7-117.8,7.9-145.9-2.3c-15-5.4-31.5,2.4-36.9,17.4s2.4,31.5,17.4,36.9c22.7,8.2,60.8,12.4,98.3,12.4
			c30.8,0,61.2-2.9,82.3-8.8c36.1-8.6,61.1-46.6,58-88.8L1150.8,288z"/>
		<path d="M3209.9,77.7c-15.7,0-28.4,12.7-28.4,28.4v175.4c0,27.1-38.6,50.9-82.7,50.9c-44,0-82.7-23.8-82.7-50.9V106.1
			c0-15.7-12.7-28.4-28.4-28.4s-28.4,12.7-28.4,28.4v175.4c0,30.1,16.2,59,44.4,79.1c25.7,18.4,59.5,28.5,95,28.5
			c35.5,0,69.2-10.1,95-28.5c28.2-20.1,44.4-49,44.4-79.1V106.1C3238.3,90.4,3225.6,77.7,3209.9,77.7z"/>
		<path d="M3467.6,271.2c-1.9-1.8-0.8-5.1,1.9-5.3c52.7-3.3,68.4-42.8,71.1-76.4c0-0.1,0-0.2,0-0.3c1.7-23.8-7.6-49.1-24.8-67.6
			c-13.4-14.4-37.9-31.5-78.9-31.5c-30.4,0-64.6,0.5-93.7,1.4c-47.8,1.5-51.2,2.7-55.7,4.4c-11.4,4.1-19,14.9-19,27v230.4
			c0,16.4,13.7,29.6,30.2,28.8c15.5-0.7,27.5-14.1,27.5-29.6V149.9c25.3-1,67.2-2.1,110.7-2.1c16.2,0,28.5,4.4,36.6,13.1
			c8.2,8.8,9.8,19.2,9.5,24.1c-0.7,8.9-3.1,35.2-50.3,35.2H3408c-12.7,0-24.5,7.2-29.6,18.8c-5.4,12.3-2.5,26.5,7.3,35.6
			l108.6,101.8c5.6,5.2,12.7,7.8,19.7,7.8c7.7,0,15.4-3.1,21.1-9.1c10.9-11.6,10.3-29.9-1.3-40.8L3467.6,271.2z"/>
		<path d="M3810.6,90.6c-15.7,0-28.4,12.7-28.4,28.4v161.7L3619.7,100c-7.9-8.8-20.3-11.8-31.3-7.5c-11,4.2-18.2,14.8-18.2,26.5
			v235.9c0,15.7,12.7,28.4,28.4,28.4s28.4-12.7,28.4-28.4V193.2l162.5,180.7c5.5,6.1,13.2,9.4,21.1,9.4c3.4,0,6.9-0.6,10.2-1.9
			c11-4.2,18.2-14.8,18.2-26.5V119C3839,103.3,3826.3,90.6,3810.6,90.6z"/>
	</g>
	<path d="M249,431c-9.1-7.2-17.7-15.2-26-23.3c-4.1-4-8.1-8.1-12.2-12.1c-2.8-2.7-5.9-5.2-8.5-8.1c-39.1,3.8-76,5-108.8,3.3
		c-16.7-0.9-30.8,12.1-31.5,28.8c-0.6,16.5,12.5,30.2,29,31.1c10.9,0.5,22.1,0.8,33.6,0.8c42.6,0,89.3-3.7,137.9-10.8
		C257.8,437.6,253.3,434.4,249,431z"/>
	<path d="M752,178.3c-2.9-17.7-12.5-31.9-27.9-41.2c-55.1-33.4-180,4.5-379.2,70.9c-69.7,23.2-135.5,44.6-190,59.1
		c-45.4,12.1-70.4,15.2-83.5,14.1c-8.7-0.8-10.8-8.8-8.3-13.8c0.9-1.8,2.1-3.7,3.5-5.8c14.3-20.6,47.3-43.6,93.7-66.3
		c1-6,2.2-12,3.5-17.9c1.6-6.9,3.5-13.7,5.4-20.6c1-3.3,2-6.5,3.2-9.7c1.2-3,2.5-5.9,3.9-8.8c3.3-7,7.1-13.7,10.5-20.7
		c-69.1,28.2-138.9,65.6-169.5,109.6c-23,33-18.9,61.3-11.5,79.2c18.9,45.5,83.1,37.4,143.4,23.5c60-13.9,135.1-38.9,214.5-65.3
		c76.7-25.6,156-52,219.9-67.2c60.1-14.4,88.1-14.1,100.5-12c5.8,1,9.3,7,7.3,12.5c-2.9,8-9.2,16-13.6,20.9
		c-15.3,17.1-39.7,34.8-71.1,52.2c-0.5,4.9-1.3,9.7-2.3,14.5c-1.4,6.8-3.2,13.5-5.2,20.1c-1.7,5.7-3.7,11.3-5.2,17
		c-1.6,6-3.1,12.1-5,18.1c-0.8,2.5-1.7,5-2.7,7.4c61.5-28.1,108.8-58.8,136.1-89.3C746.4,232.2,756.4,205.1,752,178.3z"/>
	<path d="M493.8,39.1c6.8,4.2,13.5,8.6,20,13.2c1.5,1,3,2.1,4.4,3.2c1.3,1.1,2.6,2.2,3.8,3.3c2.4,2.3,4.8,4.7,7,7.1
		c4.6,4.9,8.9,10,13.6,14.8c1.3,1.4,2.7,2.7,4.1,4c40.6-5.3,76.9-7.7,105.9-6.6c16.5,0.7,30.5-12.2,31.1-28.8
		c0.6-16.5-12.2-30.5-28.8-31.1c-44.5-1.7-104.2,4-169.8,15.5C488,35.5,490.9,37.3,493.8,39.1z"/>
	<g>
		<path d="M380.3,20c29.4,0,57.8,5.7,84.6,17.1c25.9,11,49.1,26.6,69.1,46.6s35.7,43.2,46.6,69.1c11.3,26.8,17.1,55.3,17.1,84.6
			s-5.7,57.8-17.1,84.6c-11,25.9-26.6,49.1-46.6,69.1s-43.2,35.7-69.1,46.6c-26.8,11.3-55.3,17.1-84.6,17.1
			c-29.3,0-57.8-5.7-84.6-17.1c-25.9-11-49.1-26.6-69.1-46.6S190.9,347.9,180,322c-11.3-26.8-17.1-55.3-17.1-84.6
			s5.7-57.8,17.1-84.6c11-25.9,26.6-49.1,46.6-69.1s43.2-35.7,69.1-46.6C322.4,25.8,350.9,20,380.3,20 M380.3,0
			C249.2,0,142.9,106.3,142.9,237.4s106.3,237.4,237.4,237.4s237.4-106.3,237.4-237.4S511.4,0,380.3,0L380.3,0z"/>
	</g>
</g>
</svg>
