<svg enable-background="new 0 0 3839 793.5" version="1.1" viewBox="0 0 3839 793.5" xml:space="preserve" xmlns="http://www.w3.org/2000/svg">
<style type="text/css">
	.st0{display:none;}
	.st1{display:inline;}
	.st2{fill:url(#SVGID_1_);}
	.st3{fill:url(#SVGID_00000117650088007288170220000013151952559613500302_);}
	.st4{clip-path:url(#SVGID_00000116944113304281867890000006667766977982397342_);}
	.st5{clip-path:url(#SVGID_00000146479953731632322280000002953225777922023849_);fill:none;}
	.st6{fill:none;}
	.st7{fill:url(#SVGID_00000085250591559007028780000007627274449975368635_);}
	.st8{clip-path:url(#SVGID_00000102523733067031137170000012871962226037372591_);}
	.st9{clip-path:url(#SVGID_00000005989698796501578530000014723707109217616301_);}
	.st10{clip-path:url(#SVGID_00000132780696690113987320000014250789957325230239_);}
	.st11{fill:url(#SVGID_00000057848439325555431300000007333400355659440026_);}
	.st12{fill:url(#SVGID_00000178174211459498004930000002837659762938554015_);}
	.st13{clip-path:url(#SVGID_00000054255756745357651380000000250511291884894869_);}
	.st14{clip-path:url(#SVGID_00000131333765575342355410000007533534513814390948_);fill:none;}
	.st15{fill:url(#SVGID_00000145058569732670869830000011772828420236441497_);}
	.st16{clip-path:url(#SVGID_00000033367373364186864230000018141994185170124190_);}
	.st17{clip-path:url(#SVGID_00000020394044684395445240000012674934700577595776_);}
	.st18{clip-path:url(#SVGID_00000031927294331490452820000001313612686042038941_);}
	.st19{fill:#FFFFFF;}
	.st20{fill:url(#SVGID_00000024001768302726143390000006830442317169451421_);}
	.st21{fill:url(#SVGID_00000170251326659875515720000005653852287783135645_);}
	.st22{clip-path:url(#SVGID_00000113335044676024320920000000295302985156211115_);fill:#FFFFFF;}
	.st23{clip-path:url(#SVGID_00000133521673782330721720000009667498787671456644_);fill:none;}
	.st24{fill:url(#SVGID_00000137096864077702482110000000088736716037674392_);}
	.st25{clip-path:url(#SVGID_00000015345599556977930600000012646988029881432459_);fill:#FFFFFF;}
	.st26{clip-path:url(#SVGID_00000183234864988291409690000004912717130948924047_);fill:#FFFFFF;}
	.st27{clip-path:url(#SVGID_00000014620561303647219180000006280468177975798460_);}
	.st28{clip-path:url(#SVGID_00000014620561303647219180000006280468177975798460_);fill:#FFFFFF;}
	.st29{fill:url(#SVGID_00000150085448700725268070000014407030568081520277_);}
	.st30{fill:url(#SVGID_00000113334192969242814640000001930253657125668785_);}
	.st31{clip-path:url(#SVGID_00000103949748914405817060000012964325705182865821_);fill:#FFFFFF;}
	.st32{clip-path:url(#SVGID_00000078028133156752277350000006774237706034698385_);fill:none;}
	.st33{fill:url(#SVGID_00000103241220332067618230000016355010240667159989_);}
	.st34{clip-path:url(#SVGID_00000072970053270299817190000015825313130903556249_);fill:#FFFFFF;}
	.st35{clip-path:url(#SVGID_00000129204527859769991220000002724685957499221152_);fill:#FFFFFF;}
	.st36{clip-path:url(#SVGID_00000068674067000781910950000007494284093615531692_);}
	.st37{clip-path:url(#SVGID_00000068674067000781910950000007494284093615531692_);fill:#FFFFFF;}
	.st38{clip-path:url(#SVGID_00000103263666387977723680000017900840077660013494_);}
	.st39{clip-path:url(#SVGID_00000065784692180014485990000003541675274244391074_);}
	.st40{clip-path:url(#SVGID_00000092421027211922471940000017186970371641695912_);}
	.st41{clip-path:url(#SVGID_00000114752070421794762460000013411581992653097885_);}
	.st42{clip-path:url(#SVGID_00000077321737336527692580000001963059600647959999_);}
	.st43{clip-path:url(#SVGID_00000050649349783186624840000001198679000638931338_);}
	.st44{clip-path:url(#SVGID_00000113342175079679633860000005438717176435068564_);fill:#FFFFFF;}
	.st45{clip-path:url(#SVGID_00000121963012236498609820000013743091353681414543_);fill:#FFFFFF;}
	.st46{clip-path:url(#SVGID_00000030463795277072835180000003869381326820051864_);}
	.st47{clip-path:url(#SVGID_00000030463795277072835180000003869381326820051864_);fill:#FFFFFF;}
	.st48{clip-path:url(#SVGID_00000117662060975493075120000011371329760122102202_);fill:#FFFFFF;}
	.st49{clip-path:url(#SVGID_00000072266045980810970850000017644421860284363917_);fill:#FFFFFF;}
	.st50{clip-path:url(#SVGID_00000124872591105618128640000003435732941937753249_);}
	.st51{clip-path:url(#SVGID_00000124872591105618128640000003435732941937753249_);fill:#FFFFFF;}
	.st52{fill:url(#SVGID_00000161624422968884010250000002149153215964493707_);}
	.st53{fill:url(#SVGID_00000181052447178703133570000016772340705694635443_);}
	.st54{clip-path:url(#SVGID_00000055708631575516067860000013343943564830934703_);}
	.st55{clip-path:url(#SVGID_00000026144785728228562590000013159733853011136171_);fill:none;}
	.st56{fill:url(#SVGID_00000031926688965498849630000013074980279006585744_);}
	.st57{fill:url(#SVGID_00000097471032965173569190000015702121258081452932_);}
	.st58{clip-path:url(#SVGID_00000074403066035308925090000017147431545240906673_);}
	.st59{clip-path:url(#SVGID_00000054953566431109032660000001859058317388238758_);fill:none;}
	.st60{fill:url(#SVGID_00000154404337005358494040000014270329121510108843_);}
	.st61{clip-path:url(#SVGID_00000008131868239191056560000002968258671247717273_);}
	.st62{clip-path:url(#SVGID_00000152232950082246127600000008068297562164779186_);}
	.st63{clip-path:url(#SVGID_00000097469452539056060470000008093426429666810518_);}
	.st64{fill:url(#SVGID_00000108284634164239885090000012431392837099050928_);}
	.st65{clip-path:url(#SVGID_00000162347227742482962300000012019022252052313487_);}
	.st66{clip-path:url(#SVGID_00000111900444496976723930000012713648171234909612_);}
	.st67{clip-path:url(#SVGID_00000011010519260631929320000007751046133093559978_);}
	.st68{clip-path:url(#SVGID_00000164489321871502845840000003714065241691916452_);}
	.st69{clip-path:url(#SVGID_00000155828242251128148780000000383309014791389882_);}
	.st70{clip-path:url(#SVGID_00000112595865859901859370000014039510904197089677_);}
	.st71{fill:url(#SVGID_00000112624162405150025770000005089971928750400150_);}
	.st72{clip-path:url(#SVGID_00000024687229806246909710000005136406261680336288_);}
	.st73{clip-path:url(#SVGID_00000052805748602053877610000014550489780626236348_);}
	.st74{clip-path:url(#SVGID_00000045615914957795073830000009032768906260573362_);}
	.st75{fill:url(#SVGID_00000083808744581930813420000008181970359119893174_);}
	.st76{fill:url(#SVGID_00000048496756813300831420000011144709988830483130_);}
	.st77{clip-path:url(#SVGID_00000067940890791118120740000006770107145842262414_);}
	.st78{clip-path:url(#SVGID_00000039825226280046334650000011582468929462734226_);fill:none;}
	.st79{clip-path:url(#SVGID_00000140006789987028496950000007359052471351454399_);}
	.st80{clip-path:url(#SVGID_00000072256244504220229540000014420218826926138784_);}
	.st81{clip-path:url(#SVGID_00000158012624840141205060000017559315058629068941_);}
	.st82{fill:url(#SVGID_00000171699599659408677530000002588528593740566205_);}
	.st83{clip-path:url(#SVGID_00000030470087993838080400000005495308959280809128_);}
	.st84{clip-path:url(#SVGID_00000128455139061853745830000002361269774901419650_);}
	.st85{clip-path:url(#SVGID_00000026854190822530256600000006792134184555158944_);}
	.st86{clip-path:url(#SVGID_00000065075960319383043950000007648249480771124919_);}
	.st87{clip-path:url(#SVGID_00000109746404436706670840000000257506654551254919_);}
	.st88{clip-path:url(#SVGID_00000103252290999045282900000013039394118420205470_);}
	.st89{clip-path:url(#SVGID_00000066509533660958511210000005064751924459296144_);}
	.st90{clip-path:url(#SVGID_00000106106981923574071240000009238488661471946169_);}
	.st91{clip-path:url(#SVGID_00000000905385575293646520000002699475466079563404_);}
	.st92{fill:url(#SVGID_00000054966163112145442460000009376677081034996917_);}
	.st93{clip-path:url(#SVGID_00000082338239038538349660000008562889046317976465_);}
	.st94{clip-path:url(#SVGID_00000028286532137231509690000017967712113815394705_);}
	.st95{clip-path:url(#SVGID_00000120528662632789291210000010083123364382823603_);}
	.st96{clip-path:url(#SVGID_00000017476598256946949840000006463481928994695297_);}
	.st97{clip-path:url(#SVGID_00000127041897504207898420000007941733556541266065_);fill:#FFFFFF;}
	.st98{clip-path:url(#SVGID_00000175305402686978106240000012637446800830768262_);}
	.st99{clip-path:url(#SVGID_00000137132815589521393360000012540606849587541670_);}
	.st100{clip-path:url(#SVGID_00000156588277820343548610000009442158509723852223_);fill:#FFFFFF;}
	.st101{clip-path:url(#SVGID_00000142173975477381540110000012030698559052811180_);}
	.st102{fill:url(#SVGID_00000048472541895430708800000000539318194206664078_);}
	.st103{fill:url(#SVGID_00000111888941698430004680000005887712404021491645_);}
	.st104{clip-path:url(#SVGID_00000166655650526849623250000013029600645844601520_);}
	.st105{clip-path:url(#SVGID_00000165925450686426338220000009759786444306862223_);fill:none;}
	.st106{clip-path:url(#SVGID_00000139977836136516052350000000004989208256127147_);}
	.st107{clip-path:url(#SVGID_00000071543535077614750030000012194455540952125312_);}
	.st108{clip-path:url(#SVGID_00000145054930786090645920000015772824694605547674_);}
	.st109{fill:url(#SVGID_00000011738662879024255830000014064440815860914588_);}
	.st110{fill:url(#SVGID_00000108295886243900750140000015735940254977574302_);}
	.st111{fill:url(#SVGID_00000013898810030864233970000005626210264058121373_);}
	.st112{clip-path:url(#SVGID_00000117637601662611378020000004127779564556656768_);}
	.st113{clip-path:url(#SVGID_00000070098276605375822950000011565321105657274264_);fill:none;}
	.st114{fill:url(#SVGID_00000124876891087547681090000018216907445928691876_);}
	.st115{fill:url(#SVGID_00000165952868478751350190000011205498342407403930_);}
	.st116{clip-path:url(#SVGID_00000074400428793284648520000013360105128757199254_);}
	.st117{clip-path:url(#SVGID_00000084500626614111179320000005952122901514803330_);fill:none;}
	.st118{clip-path:url(#SVGID_00000023995105530519870300000006994993859566946983_);}
	.st119{clip-path:url(#SVGID_00000110443231573156964880000014902881666099689093_);}
	.st120{clip-path:url(#SVGID_00000065773770214608893310000000048613431945039791_);}
	.st121{fill:url(#SVGID_00000011027640385998041610000005557471891231284896_);}
	.st122{fill:url(#SVGID_00000059994438371095781740000004466387475078491804_);}
	.st123{fill:url(#SVGID_00000003099682808343210480000004975077245774735798_);}
	.st124{clip-path:url(#SVGID_00000121266403536436490650000014823870431646017671_);}
	.st125{clip-path:url(#SVGID_00000043452600298263853890000007597560510508913315_);fill:none;}
	.st126{clip-path:url(#SVGID_00000116200692460198048630000000679074559247619725_);}
	.st127{clip-path:url(#SVGID_00000151526730265066384400000004475694582431688344_);}
	.st128{clip-path:url(#SVGID_00000067928321999548054610000002753336417754378401_);}
	.st129{fill:url(#SVGID_00000008110716726612701350000018227184699597362094_);}
	.st130{fill:url(#SVGID_00000054260870302704735230000009730543251397751182_);}
	.st131{fill:url(#SVGID_00000168112350580784736080000001290405761793142941_);}
	.st132{clip-path:url(#SVGID_00000145743874724956040880000011836451054572254366_);}
	.st133{clip-path:url(#SVGID_00000065760523819777527480000012306693072241741971_);fill:none;}
	.st134{clip-path:url(#SVGID_00000143615366794104864310000009921999741436909723_);}
	.st135{clip-path:url(#SVGID_00000132070755674583580930000012529833622562238348_);}
	.st136{clip-path:url(#SVGID_00000096041253904350152550000003150284004827615131_);}
	.st137{fill:url(#SVGID_00000047761587755783801800000015724206873355163782_);}
	.st138{fill:url(#SVGID_00000066513972889853744090000017992180482495382968_);}
	.st139{fill:url(#SVGID_00000094620431349494967850000015796878260125767605_);}
	.st140{clip-path:url(#SVGID_00000111901169163427833280000011023509128955417480_);}
	.st141{clip-path:url(#SVGID_00000152967863242432251570000006505851254200256134_);fill:none;}
	.st142{clip-path:url(#SVGID_00000021809594894104904200000006032208128163472059_);}
	.st143{clip-path:url(#SVGID_00000145027151301759656290000007138761708133629342_);}
	.st144{clip-path:url(#SVGID_00000163781217435985196840000012482665494295639936_);}
	.st145{fill:url(#SVGID_00000125582662220207230710000006428761132791313561_);}
	.st146{fill:url(#SVGID_00000107586165893351560740000004206705175308210847_);}
	.st147{fill:url(#SVGID_00000109015267061470555830000007310982991501459618_);}
	.st148{clip-path:url(#SVGID_00000078022344845233710910000012808310163092852365_);}
	.st149{clip-path:url(#SVGID_00000024683530487132505070000011061014492352169089_);fill:none;}
	.st150{clip-path:url(#SVGID_00000102508983094231850900000011276655575385202357_);}
	.st151{clip-path:url(#SVGID_00000029738077916821604030000003204946406275027843_);fill:#FFFFFF;}
	.st152{clip-path:url(#SVGID_00000008116757932854571020000010959645691154939525_);}
	.st153{fill:url(#SVGID_00000020377966221899293090000010560307082194219431_);}
	.st154{fill:url(#SVGID_00000147925977224130797870000001803698310559820960_);}
	.st155{fill:url(#SVGID_00000062882099188917507850000014785787950524230552_);}
	.st156{clip-path:url(#SVGID_00000016764281447069286130000002454823432065024661_);fill:#FFFFFF;}
	.st157{clip-path:url(#SVGID_00000012434321429969363530000013890118886455690135_);fill:none;}
	.st158{clip-path:url(#SVGID_00000081622332103554373330000008684644598636130719_);}
	.st159{clip-path:url(#SVGID_00000116204585066749694260000004315395590764722580_);fill:#FFFFFF;}
	.st160{clip-path:url(#SVGID_00000118365167244657805580000014001428704734371736_);}
	.st161{fill:url(#SVGID_00000163760230305674467370000017898565729772567684_);}
	.st162{fill:url(#SVGID_00000168098145881576355090000010813942281455660930_);}
	.st163{fill:url(#SVGID_00000124860470000543262120000007586944804960531089_);}
	.st164{clip-path:url(#SVGID_00000083786991299658103250000005222623555540934283_);fill:#FFFFFF;}
	.st165{clip-path:url(#SVGID_00000080183978962486171690000008990516967857802121_);fill:none;}
</style>

<path d="m2059.8848 0.064453125c-1.5268 0.071484305-3.1352 0.461328895-4.7852 1.236328075-4 1.7999983-7.5 3.5000015-10.5 5-151.5998 76.2999238-177.5988 164.9996788-178.7988 230.5996088-2 109.89989 106.5 225.09974 112.5 359.09961 2.9 64.39994-17.0013 139.39965-84.7012 175.59961-5.7 3.1-7.8996 10.39961-4.5996 16.09961 3.1 5.29999 9.7008 7.40117 15.3008 4.70117 166.0803-80.54162 190.1035-149.4827 191.0078-224.09961h20.9922 7.1992 88c7.5 0 11.1-9.40039 5.5-14.40039 0 0-0.0996 3.9e-4 -0.0996-0.09961-2.5-2.2-4.6012-4.10156-6.2012-5.60156-11.9-10.69999-11.4988-18.09845-11.7988-24.39844s1.0004-12.60157 3.9004-18.10156l89.6992-170.19922 76.5996 169.90039c2.6 5.69999 3.8008 11.89962 3.3008 18.09961-0.1 0.8-0.1012 1.49961-0.2012 2.09961-1.4 7.99999-8.5996 24.20117-22.0996 24.20117h-0.1992c-2.7 0-5.4 0.8-7.5 2.5-8.8 6.79999-4.1008 15.89844 2.6992 15.89844h112.9004 6.5996 89.2012 26.2988 53.9004c4.6 0 8.6008-3.49962 8.8008-8.09961 0.2-3.7-2.1-7.20039-5.5-8.40039-11.3-4.3-36.3008-17.19847-36.3008-45.39844v-246.80078c0-6.99999 5.6992-12.3 12.6992-12 47.9 1.9 84.2012 14.0004 109.7012 27.40039 4.1 2.2 6.6992 6.40001 6.6992 11v159.09961h0.4004c4.1 73.09993 38.8005 129.19922 165.9004 129.19922 73.6999 0 142.6992-38.59929 142.6992-109.69922v-182.30078c0-10.79999 3.4012-18.39923 7.7012-23.69922 6.3-7.69999 15.8984-11.80078 25.8984-11.80078h15c10 0 19.7004 4.10079 25.9004 11.80078 4.3 5.39999 7.7012 12.99923 7.7012 23.69922v220.70117c0 32.79997-26.0012 45.19922-38.2012 49.19922-2.9 0.9-5.2004 3.30039-5.9004 6.40039-1 5.39999 3.0012 10.09961 8.2012 10.09961h54.2988 61.3008 56.8008c3.5 0 6.8-2.10039 8-5.40039 1.7-4.7-0.8016-9.6-5.1016-11-11.9-3.9-38.5-16.29886-38.5-49.29883v-209.20117-24.89844c0-18.69998 16.1016-25.5 27.1016-25.5h31.5996c29.4 0 58.5996 24.79926 58.5996 66.19922 0 60.69994-39.4992 75.40039-55.6992 75.40039-10.8 0-19.2012 0.20039-28.2012-3.09961 0 0-0.0996-0.00156-0.0996-0.10156-5.7-2.7-11.7004 2.6-9.9004 8.5 0.1 0.3 0.1012 0.5 0.2012 0.5 9.5 32.09997 26.4988 81.20003 49.7988 112.5 36.1 48.69995 104.5997 87.5 219.5996 87.5h49.4004c3.1 0 6.0004-1.89922 6.9004-4.69922 1.3-4-0.8996-7.99922-4.5996-9.19922-9.9-3-30.9004-11.9008-30.9004-34.30078v-161.59961c0-5.49999 6.3996-8.40039 10.5996-4.90039l238.7012 198.19922c6.9 5.69999 17.1992 0.80038 17.1992-8.09961v-289.40039c0-23.89998 22.6992-33.89844 32.1992-36.89844 3.2-1 5.1-4.30117 4-7.70117-0.8-2.4-3.1988-3.90039-5.7988-3.90039h-26.3008-49.5-26.2988c-2.6 0-4.9008 1.50039-5.8008 3.90039-1.1 3.3 0.6992 6.59961 3.6992 7.59961 9.5 3.1 32.2012 13.10041 32.2012 36.90039v143.09961c0 5.49999-6.3996 8.40039-10.5996 4.90039l-150.4004-124.79883c-46.9-38.99996-113.4008-64.90158-157.3008-79.10156-9.7-3.1-16.3992 9.70079-8.1992 15.80078 1.4 1.1 2.9004 2.20078 4.4004 3.30078 50.0999 37.69996 55.5 91.69884 55.5 97.79883v192.40039 9.30078c0 7.19999-5.9016 13.09961-13.1016 13.09961-16.8 0-54.3-27.3008-73.5-47.30078-18-18.79998-26.5988-44.80002-46.7988-68.5-16.1-18.79998-29.7012-25.79883-29.7012-25.79883 101.0999 0 104.1016-82.00118 104.1016-91.20117 0-13.69999-0.0017-91.59961-126.6016-91.59961h-292.0996-49.6992c-2.6 0-4.9008 1.50039-5.8008 3.90039-1.1 3.3 0.7012 6.69961 3.7012 7.59961 9.5 3.1 32.1992 13.10041 32.1992 36.90039v180.09961c0 62.19994-43.5004 83-78.4004 83-63.5999 0-88-37.49966-88-84.59961v-27.30078-151.19922c0-23.89998 22.7012-33.90039 32.2012-36.90039 2.5-0.8 4.0996-2.99961 4.0996-5.59961v-0.09961c0-3.2-2.6004-5.90039-5.9004-5.90039h-114-17.5-229.9004-117.0996c-7.1 0-13.7008 4.10001-16.8008 10.5l-18.7988 39c-3.2 6.69999 4.3996 13.29922 10.5996 9.19922 25.2-17.09998 67.5997-36.69961 129.5996-39.09961 6.8-0.2 12.4004 5.20001 12.4004 12v246.90039c0 11.69999-4.2992 20.79923-10.1992 27.69922-4.5 5.39999-11.3004 8.40039-18.4004 8.40039h-15.2012c-4.9 0-9.8996-1.29961-14.0996-4.09961-9.7-6.29999-18.8004-15.10001-24.4004-27.5l-134.2988-297.80078c-5.8-12.69999-23.5004-13.20038-29.9004-0.90039l-139.6992 265.10156-23.6035 44.7461c-22.7027-92.67252-106.7969-207.66377-106.7969-325.2461 0-108.199891 33.8992-140.200417 72.6992-167.400389 3.1-2.099998 6.8996-4.699613 11.0996-7.59961 10.5875-7.174993 3.8729-22.236718-6.8144-21.73632788zm-311.5723 203.5097669c-5.9625-0.175-12.0129 2.77579-15.2129 8.92578l-99.4004 188.69922c-5.1 9.79999-15.2988 15.90039-26.2988 15.90039h-119.2012-4c-4 0-7.9996 3.19961-8.5996 7.09961-0.8 5.09999 2.9008 9.50039 7.8008 9.90039 33.1 3 52.9992 25.10082 52.6992 60.80078-0.2 32.89997-27.6992 59.90039-60.6992 59.90039h-8.5996c-88.2999 0-92.1016-101.40158-92.1016-123.60156v-77.59961c0-38.09996 15.3013-104.90039 89.7012-104.90039 69.4999 0 108.4989 32.00043 140.2988 74.40039 5.2 6.99999 16.3016 1.20038 13.6016-7.09961l-27.9004-87.40039c-2.7-8.39999-12.6012-12.1-20.2012-7.5-20.5 12.59999-32.5 10.5-32.5 10.5-10.1 0.3-42.1992-8.79883-81.1992-8.79883-62.1999 0-112.5004 24.69847-146.9004 57.89844-3.4 3.3-9.0988 2.20117-10.7988-2.29883l-15.4004-37.5c-3.2-7.79999-7.3012-12.80078-15.7012-12.80078h-177.1992v-0.09961h-92.19922c-5.89999 0-11.6-0.2-17.5-0.5-31.59997-1.7-142.60045-7.5-199.40039-7.5-71.19993 0-126.99961 22.30083-132.59961 74.80078-4.19999 39.49996 23.19845 60.10002 38.89844 74.5 8.49999 7.79999 48.50002 33.09962 69 42.59961 21.39998 9.89999 106.79999 52.69964 98 86.59961-8.79999 33.59997-37.70003 41.90039-71 41.90039-52.29995 0-108.40004-43.29965-150-82.09961-7.19999-6.79999-18.39843 1.60001-13.89844 10.5 17.19998 33.59997 39.19963 74.49963 53.59961 96.09961 4.1 6.09999 11.49923 9.09922 18.69922 7.19922 15.49998-3.9 35.60079-6.00039 47.80078-5.40039 15.69998 0.7 48.60002 5 63 5 119.79988 0 157.29922-31.49967 161.19922-86.09961 5.39999-75.09993-84.30045-125.10002-138.90039-147-48.79995-19.69998-67.69961-49.30002-65.59961-64 3.4-25.49998 27.70002-29.8 48-29 62.99994 2.4 181.80078 33.10082 181.80078 76.30078v200.5c0 11.19999-12.20119 31.40039-27.70117 31.40039h-0.29883c-2.8 0-5.59961 1-7.59961 3-5.39999 5.4-1.59999 11.69922 3.5 11.69922h66.89842 66.3008 189.0996c6.1 0 11.4008-3.60079 13.8008-9.30078l10.2988-25.09961c2-4.8 8.1-6.29883 12-2.79883 33.7 30.49997 83.1016 49.59961 150.6016 49.59961 15.7 0 48.3996-4.3004 63.5996-9.90039 4.8-1.7 9.9996-2.69922 15.0996-2.69922h126.5 20.4004c7.5 0 11.1-9.40039 5.5-14.40039-2.5-2.2-4.7008-4.20117-6.3008-5.70117-12-10.89999-11.4988-18.29962-11.7988-24.59961-0.3-6.19999 0.9984-12.3004 3.8984-17.90039l89.6016-170.19922 76.5996 169.90039c2.6 5.69999 3.7988 11.89962 3.2988 18.09961-0.1 0.8-0.0992 1.49961-0.1992 2.09961-1.4 7.99999-8.5996 24.20117-22.0996 24.20117h-2.2012c-3.3 0-6.5996 1.09883-9.0996 3.29883-7.5 6.69999-2.8988 15.09961 3.7012 15.09961h113.2988c5.2 0 9.4008-4.69962 8.3008-10.09961-0.7-2.4-2.8012-4.79883-5.7012-5.79883-9.6-3.6-29.0984-13.90159-41.3984-41.10156l-134.3008-297.79883c-2.85-6.34999-8.725-9.65117-14.6875-9.82617zm-1444.3125 9.625c-72.03868 0-134.72061 40.16493-166.87109 99.31445-51.022519 21.8362-100.547041 49.79945-123.228519 82.38672-18.399982 26.39997-15.1011664 48.99884-9.2011722 63.29883 15.0999852 36.39996 66.4016102 29.90077 114.6015612 18.80078 2.91063-0.67308 5.99911-1.47805 8.9961-2.21484 7.22265 17.65267 16.99978 33.98764 28.91796 48.51172-29.61647 2.67141-57.481684 3.53573-82.515621 2.20312-13.299987-0.7-24.59922 9.70001-25.199219 23-0.5 13.19999 9.999232 24.10039 23.199219 24.90039 8.699991 0.4 17.7004 0.59961 26.90039 0.59961 33.133221 0 69.301971-2.85271 106.917971-8.15039 28.49761 17.0995 61.83904 26.95117 97.48242 26.95117 73.61074 0 137.40466-41.96545 168.88477-103.24219 47.0625-21.94115 83.36778-45.68931 104.51562-69.35937 19.19998-21.39998 27.19922-43.10002 23.69922-64.5-2.3-14.09999-9.99884-25.49845-22.29883-32.89844-21.3301-12.94349-55.92281-12.40418-103.91406-2.45312-7.16477-14.78126-16.22201-28.46439-26.80469-40.80274 28.01239-3.25907 53.07987-4.74159 73.51758-3.94531 13.19999 0.6 24.40039-9.80001 24.90039-23s-9.80001-24.40039-23-24.90039c-33.20966-1.306-76.9531 2.61509-125.21484 10.61523-27.78692-15.94726-59.95861-25.11523-94.28516-25.11523zm0 15.90039c23.49998 0 46.19963 4.60118 67.59961 13.70117 20.69998 8.79999 39.20119 21.29924 55.20117 37.19922 13.03405 13.03405 23.7012 27.75339 31.92774 43.94336-48.60017 11.42048-109.38974 30.9947-183.0293 55.55664-52.48803 17.43319-101.94288 33.45278-143.98828 44.96875-0.90086-7.15179-1.41016-14.37541-1.41016-21.66797 0-23.39998 4.59923-46.20158 13.69922-67.60156 8.79999-20.69998 21.29923-39.19924 37.19922-55.19922 15.99998-15.99998 34.50119-28.49923 55.20117-37.19922 21.29998-8.99999 44.09963-13.70117 67.59961-13.70117zm812.5996 23.80078h33.5c54.9 0 105.0996 31.49885 129.0996 52.29883 3.1 2.5 3.8016 7.20156 1.6016 10.60156-15.4 24.29998-23.8008 49.99963-23.8008 72.59961 0 30.09997 5.6008 59.60003 17.3008 86 2.6 5.79999 1.4 12.59961-3 17.09961-21.7 21.99998-69.1005 52.69922-136.9004 52.69922h-16.5996c-15.1 0-27.4004-12.19845-27.4004-27.39844v-92.30078-4.90039c0-5.1 7.7004-11.49883 16.4004-9.79883 13.3 2.6 36.5988 10.89923 55.2988 21.69922 13.1 7.59999 24.9 15.50079 38.5 26.80078 6 4.9 15 0.59843 15-7.10156v-29-57.29883-29c0-7.69999-9.1-11.9996-15-7.09961-13.6 11.19999-25.4 19.09884-38.5 26.79883-18.6 10.69999-42.7004 21.99961-55.9004 25.09961-10.2 2.4-13.7992-1.60001-15.6992-5.5v-5.59961-90.59961c0-14.39999 11.6996-26.09961 26.0996-26.09961zm-579.67382 107.76563c4.24218 0.07812 7.49961 0.40898 9.97461 0.83398 4.6 0.8 7.39883 5.6 5.79883 10-2.3 6.39999-7.39844 12.79922-10.89844 16.69922-10.9243 12.26746-27.96684 24.85195-49.37695 37.33008 0.87557-7.39341 1.37695-14.90093 1.37695-22.5293 0-12.6579-1.2677-25.0171-3.63281-36.98242 22.16445-4.28969 37.13335-5.52881 46.75781-5.35156zm-62.50781 8.67578c2.1565 10.9534 3.28125 22.1338 3.28125 33.45898 0 23.39998-4.59923 46.19963-13.69922 67.59961-8.79999 20.69998-21.29923 39.19924-37.19922 55.19922-15.99998 15.99998-34.50119 28.50118-55.20117 37.20117-21.39998 8.99999-44.19963 13.69922-67.59961 13.69922s-46.19963-4.59923-67.59961-13.69922c-20.69998-8.79999-39.20119-21.30119-55.20117-37.20117-15.91484-15.81537-28.35882-34.30547-37.05274-54.87305 43.18511-11.54329 93.64719-28.31239 146.6543-45.92578 61.29994-20.49998 124.69888-41.60118 175.79883-53.70117 2.78792-0.66794 5.20059-1.16681 7.81836-1.75781zm-358.20703 6.13867c-1.3067 8.98795-2.01172 18.17012-2.01172 27.51953 0 8.69606 0.63823 17.23885 1.77148 25.625-30.995669 7.85981-49.309797 10.11048-58.871091 9.375-6.999993-0.6-8.599607-7-6.599609-11 0.699999-1.4 1.700782-2.99961 2.800781-4.59961 10.125326-14.65508 32.131432-30.80859 62.910159-46.91992z"/>
</svg>
