<svg enable-background="new 0 0 3840 363.07" version="1.1" viewBox="0 0 3840 363.07" xml:space="preserve" xmlns="http://www.w3.org/2000/svg">
<path d="m3553.7305 0-147.67 54.050781 129.6797 56.660159 304.2598-110.71094h-286.2695zm-2949.74027 0.0390625v256.0214875h206.70899v-256.0214875h-206.70899zm463.24027 0 332.8593 230.8710975 142.2305-91.38086-185.1211-139.4902375h-289.9687zm755.3886 0-400.08 257.0507775v105.98047h208.5918v-115.25l357.7382-247.7812475h-166.25zm257.42 0 565.041 363.0410175h116.8906v-363.0410175h-103.3613v253.2812475l-381.3086-253.2812475h-197.2617zm-2.5586 38.8417965-0.961 324.199221h224.9805v-180.25977l-224.0195-143.939451zm1079.1504 97.789061-97.2305 35.59961 436.6699 190.80078v-0.00976h3.0391 313.3515l-420.1113-183.56055-74.8789 27.41016-160.8398-70.24024zm-2553.56059 148.66016v77.75h523.17969v-77.75h-523.17969z" fill="#fc0"/><path fill-rule="evenodd" clip-rule="evenodd" fill="#FF0000" d="m2897.4707 0 420.0996 183.57031 74.8789-27.41015 160.8399 70.24023 97.2304-35.59961-436.6699-190.80078h-3.0293-313.3496zm-2708.83984 0.80078125c-9.14999 0.01999998-18.31095-0.01046872-27.46094 0.01953125-0.03 10.6799895 0.06094 21.3690735-0.03906 32.0390625-0.73 31.519968-2.70016 63.069797-7.41016 94.259765-3.75999 24.53998-9.29087 49.04049-19.63086 71.73047-8.77999 19.72998-20.33962 38.31134-34.849606 54.36133-14.049986 15.54998-30.751034 28.73907-49.291015 38.53906-15.619985 8.19999-32.449237 14.40907-49.949219 17.03906 0.00999999 18.04998 0.00999999 36.12018 0 54.16016 14.539985-2.05 28.809467-5.73977 42.689453-10.50977 24.519976-8.46999 47.840879-20.9897 67.380857-38.17968 21.83998-18.54999 41.26892-40.60019 53.62891-66.66016 7.57999-16.16998 13.69063-33.20916 16.64062-50.86914 4.29-25.61998 5.91063-51.58003 7.14063-77.5 0.75-17.93998 1.26015-35.901113 1.16015-53.871095-0.00999-21.509978 0.03024-43.038615-0.00976-64.55859375zm61.59961 0.00976563c-16.84998 0.02999997-33.7008-0.06117177-50.55078 0.04882812 0.06 82.229918-4.7e-4 164.449765 0.01953 246.679685 0.06 38.48996-0.12016 76.99051 0.08984 115.48047 16.80999-0.14 33.63143-0.01859 50.44141-0.05859 0.01-120.71988 0.01-241.44051 0-362.1503931zm11.25 0c-0.01 19.77998012-4.7e-4 39.56916012 0.01953 59.36914112-0.23 34.959965 0.94914 69.970582 4.11914 104.810542 1.63 16.11999 3.4304 32.32002 7.65039 48 4.6 15.60999 10.47126 30.90057 18.53125 45.06055 10.29999 18.16998 24.01009 34.22939 39.33008 48.35938 9.29999 8.53999 18.96939 16.72032 29.60937 23.57031 14.56999 9.48999 30.43986 16.87008 46.83985 22.58008 13.77998 4.67999 27.92915 8.39937 42.36914 10.35937-0.02-18.02998-0.01-36.07916 0-54.11914-7.33999-1.07-14.56868-2.84156-21.63867-5.10156-25.32998-8.11999-48.64088-22.22838-67.88086-40.56836-20.14998-19.17998-35.61009-42.9801-46.33008-68.58008-11.31999-26.46997-16.37875-55.0805-19.96875-83.48047-4.39-36.569961-5.64156-73.440034-5.35156-110.2499975-9.09999-0.02999997-18.19884-0.01976561-27.29883-0.00976562zm2912.69923 251.5488331-304.2598 110.71093h286.2696l147.6699-54.05078-129.6797-56.66015z"/>
</svg>
