<?xml version="1.0" encoding="utf-8"?>
<!-- Generator: Adobe Illustrator 25.0.0, SVG Export Plug-In . SVG Version: 6.00 Build 0)  -->
<svg version="1.1" id="Layer_1" xmlns="http://www.w3.org/2000/svg" xmlns:xlink="http://www.w3.org/1999/xlink" x="0px" y="0px"
	 viewBox="0 0 3840 363.1" style="enable-background:new 0 0 3840 363.1;" xml:space="preserve">
<style type="text/css">
	.st0{fill:#FFFFFF;}
	.st1{fill-rule:evenodd;clip-rule:evenodd;fill:#FFFFFF;}
	.st2{fill-rule:evenodd;clip-rule:evenodd;}
</style>
<g>
	<g>
		<rect id="rect5539_2_" x="604" y="0" width="206.7" height="256"/>
		<rect id="rect5541_2_" x="603.1" y="285.3" width="523.2" height="77.8"/>
		<path id="path5543_2_" class="st2" d="M1067.2,0h290l185.1,139.5l-142.2,91.4L1067.2,0z"/>
		<path id="path5547_2_" class="st2" d="M2080,0l565,363H2762V0h-103.4v253.3L2277.3,0H2080z"/>
		<path id="path5549_6_" class="st2" d="M2077.5,38.9l224,143.9v180.3h-225L2077.5,38.9z"/>
		<path id="path5549_5_" class="st2" d="M1822.6,0l-400.1,257v106h208.6V247.8L1988.9,0H1822.6z"/>
		<path id="path5549_4_" class="st2" d="M2087,4.5l224,143.9"/>
		<g>
			<path id="path5551-7_4_" class="st2" d="M3496.1,363.1l-436.7-190.8l97.2-35.6l160.8,70.2l74.9-27.4l420.1,183.6h-313.4
				L3496.1,363.1L3496.1,363.1z"/>
			<path id="path5553-8_4_" class="st2" d="M3303.9,309l-129.7-56.7l-304.3,110.7h286.3L3303.9,309z"/>
		</g>
		<g>
			<path id="path5551-7_3_" class="st2" d="M3213.9,0l436.7,190.8l-97.2,35.6l-160.8-70.2l-74.9,27.4L2897.5,0h313.4H3213.9z"/>
			<path id="path5553-8_3_" class="st2" d="M3406.1,54l129.7,56.7L3840,0h-286.3L3406.1,54z"/>
		</g>
	</g>
	<g>
		<path d="M161.2,0.8c9.1,0,18.3,0,27.5,0c0,21.5,0,43,0,64.6c0.1,18-0.4,35.9-1.2,53.9c-1.2,25.9-2.9,51.9-7.1,77.5
			c-2.9,17.7-9.1,34.7-16.6,50.9c-12.4,26.1-31.8,48.1-53.6,66.7c-19.5,17.2-42.9,29.7-67.4,38.2C28.8,357.2,14.5,360.9,0,363
			c0-18,0-36.1,0-54.2c17.5-2.6,34.3-8.8,50-17c18.5-9.8,35.2-23,49.3-38.5c14.5-16.1,26.1-34.6,34.8-54.4
			c10.3-22.7,15.9-47.2,19.6-71.7c4.7-31.2,6.7-62.7,7.4-94.3C161.2,22.2,161.1,11.5,161.2,0.8z"/>
		<path d="M199.7,0.9c16.9-0.1,33.7,0,50.6-0.1c0,120.7,0,241.4,0,362.1c-16.8,0-33.6-0.1-50.4,0.1c-0.2-38.5,0-77-0.1-115.5
			C199.7,165.3,199.7,83.1,199.7,0.9z"/>
		<path d="M261.5,0.8c9.1,0,18.2,0,27.3,0c-0.3,36.8,1,73.7,5.4,110.2c3.6,28.4,8.6,57,20,83.5c10.7,25.6,26.2,49.4,46.3,68.6
			c19.2,18.3,42.5,32.5,67.9,40.6c7.1,2.3,14.3,4,21.6,5.1c0,18,0,36.1,0,54.1c-14.4-2-28.6-5.7-42.4-10.4
			c-16.4-5.7-32.3-13.1-46.8-22.6c-10.6-6.9-20.3-15-29.6-23.6c-15.3-14.1-29-30.2-39.3-48.4c-8.1-14.2-13.9-29.4-18.5-45.1
			c-4.2-15.7-6-31.9-7.6-48c-3.2-34.8-4.4-69.8-4.1-104.8C261.5,40.4,261.5,20.6,261.5,0.8z"/>
	</g>
</g>
</svg>
