<svg enable-background="new 0 0 3840 363.1" version="1.1" viewBox="0 0 3840 363.1" xml:space="preserve" xmlns="http://www.w3.org/2000/svg">
<path d="m604 0v256h206.69922v-256h-206.69922zm463.1992 0 332.9004 230.90039 142.2012-91.40039-185.1016-139.5h-290zm755.4004 0-400.0996 257v106h208.5996v-115.19922l357.8008-247.80078h-166.3008zm257.4004 0 565 363h117v-363h-103.4004v253.30078l-381.2988-253.30078h-197.3008zm817.5 0 420.1992 183.59961 74.9004-27.40039 160.8008 70.20117 97.1992-35.59961-436.6992-190.80078h-3-313.4004zm656.1992 0-147.5996 54 129.7012 56.69922 304.1992-110.69922h-286.3008zm-3392.49998 0.80078125c-0.1 10.69998975 3.9e-4 21.39961975-0.09961 32.09960975-0.7 31.599968-2.7004 63.098859-7.40039 94.298829-3.7 24.49997-9.29962 49.00119-19.59961 71.70117-8.69999 19.79998-20.29884 38.30041-34.798829 54.40039-14.099986 15.49999-30.8008 28.70001-49.300781 38.5-15.699984 8.19999-32.500018 14.4-50 17v54.19922c14.499985-2.1 28.800795-5.8004 42.800781-10.40039 24.499976-8.49999 47.898457-20.99924 67.398439-38.19922 21.79998-18.59998 41.20157-40.6012 53.60156-66.70117 7.49999-16.19999 13.69961-33.19846 16.59961-50.89844 4.2-25.59997 5.89961-51.60002 7.09961-77.5 0.8-17.99998 1.29922-35.900407 1.19922-53.900389v-64.59960975h-27.5zm89.10156 0c-16.89998 0.0999999-33.70158-3.9053e-4 -50.60156 0.09960937 0 82.19991738 0.00156 164.3996894 0.10156 246.5996094 0.1 38.49996-0.10039 77.00004 0.09961 115.5 16.79998-0.2 33.60041-0.09961 50.40039-0.09961v-362.0996088zm11.19922 0c0 19.79997975-7.8e-4 39.59923875 0.19922 59.19921875-0.3 34.999965 0.90156 70.00082 4.10156 104.80078 1.6 16.09999 3.39961 32.30002 7.59961 48 4.6 15.69999 10.40001 30.89962 18.5 45.09961 10.29999 18.19998 23.99884 34.30041 39.29883 48.40039 9.29999 8.59999 19.00157 16.69962 29.60156 23.59961 14.49999 9.49999 30.39885 16.89962 46.79883 22.59961 13.79999 4.7 28.0004 8.40039 42.40039 10.40039v-54.09961c-7.29999-1.1-14.49962-2.80156-21.59961-5.10156-25.39997-8.09999-48.70041-22.29963-67.90039-40.59961-20.09998-19.19998-35.60079-42.99964-46.30078-68.59961-11.39999-26.49997-16.4-55.10003-20-83.5-4.4-36.499963-5.69844-73.399256-5.39844-110.1992188h-27.30078zm1816 38.09960975-1 324.199219h225v-180.29883l-224-143.900389zm1079.0996 97.798829-97.1992 35.60156 436.6992 190.79883h2.9004 313.4004l-420.0996-183.59961-74.9004 27.40039-160.8008-70.20117zm17.5996 115.60156-304.2988 110.69922h286.2988l147.7012-54-129.7012-56.69922zm-2571.09959 33v77.79883h523.20119v-77.79883h-523.20119z"/>
</svg>
