<?xml version="1.0" encoding="utf-8"?>
<!-- Generator: Adobe Illustrator 25.0.0, SVG Export Plug-In . SVG Version: 6.00 Build 0)  -->
<svg version="1.1" id="Layer_1" xmlns="http://www.w3.org/2000/svg" xmlns:xlink="http://www.w3.org/1999/xlink" x="0px" y="0px"
	 viewBox="0 0 3840 363.07" style="enable-background:new 0 0 3840 363.07;" xml:space="preserve">
<style type="text/css">
	.st0{fill:#FFCC00;}
	.st1{fill-rule:evenodd;clip-rule:evenodd;fill:#FFCC00;}
	.st2{fill-rule:evenodd;clip-rule:evenodd;fill:#FF0000;}
	.st3{fill:#FF0000;}
</style>
<g>
	<g>
		<rect id="rect5539_1_" x="603.99" y="0.04" class="st0" width="206.71" height="256.02"/>
		<rect id="rect5541_1_" x="603.07" y="285.33" class="st0" width="523.18" height="77.75"/>
		<path id="path5543_1_" class="st1" d="M1067.23,0.04h289.97l185.12,139.49l-142.23,91.38L1067.23,0.04z"/>
		<path id="path5547_1_" class="st1" d="M2080.04,0.04l565.04,363.04h116.89V0.04h-103.36v253.28L2277.3,0.04H2080.04z"/>
		<path id="path5549_3_" class="st1" d="M2077.48,38.88l224.02,143.94v180.26h-224.98L2077.48,38.88z"/>
		<path id="path5549_2_" class="st1" d="M1822.62,0.04l-400.08,257.05v105.98h208.59V247.82L1988.87,0.04H1822.62z"/>
		<path id="path5549_1_" class="st1" d="M2087.03,4.53l224.02,143.94"/>
		<g>
			<path id="path5551-7_2_" class="st1" d="M3496.07,363.07l-436.67-190.8l97.23-35.6l160.84,70.24l74.88-27.41l420.11,183.56
				h-313.35H3496.07z"/>
			<path id="path5553-8_2_" class="st2" d="M3303.86,309.02l-129.68-56.66l-304.26,110.71h286.27L3303.86,309.02z"/>
		</g>
		<g>
			<path id="path5551-7_1_" class="st2" d="M3213.85,0l436.67,190.8l-97.23,35.6l-160.84-70.24l-74.88,27.41L2897.47,0l313.35,0
				L3213.85,0z"/>
			<path id="path5553-8_1_" class="st1" d="M3406.06,54.05l129.68,56.66L3840,0l-286.27,0L3406.06,54.05z"/>
		</g>
	</g>
	<g>
		<path class="st3" d="M161.17,0.82c9.15-0.03,18.31,0,27.46-0.02c0.04,21.52,0,43.05,0.01,64.56c0.1,17.97-0.41,35.93-1.16,53.87
			c-1.23,25.92-2.85,51.88-7.14,77.5c-2.95,17.66-9.06,34.7-16.64,50.87c-12.36,26.06-31.79,48.11-53.63,66.66
			c-19.54,17.19-42.86,29.71-67.38,38.18c-13.88,4.77-28.15,8.46-42.69,10.51c0.01-18.04,0.01-36.11,0-54.16
			c17.5-2.63,34.33-8.84,49.95-17.04c18.54-9.8,35.24-22.99,49.29-38.54c14.51-16.05,26.07-34.63,34.85-54.36
			c10.34-22.69,15.87-47.19,19.63-71.73c4.71-31.19,6.68-62.74,7.41-94.26C161.23,22.19,161.14,11.5,161.17,0.82z"/>
		<path class="st3" d="M199.68,0.86c16.85-0.11,33.7-0.02,50.55-0.05c0.01,120.71,0.01,241.43,0,362.15
			c-16.81,0.04-33.63-0.08-50.44,0.06c-0.21-38.49-0.03-76.99-0.09-115.48C199.68,165.31,199.74,83.09,199.68,0.86z"/>
		<path class="st3" d="M261.48,0.81c9.1-0.01,18.2-0.02,27.3,0.01c-0.29,36.81,0.96,73.68,5.35,110.25
			c3.59,28.4,8.65,57.01,19.97,83.48c10.72,25.6,26.18,49.4,46.33,68.58c19.24,18.34,42.55,32.45,67.88,40.57
			c7.07,2.26,14.3,4.03,21.64,5.1c-0.01,18.04-0.02,36.09,0,54.12c-14.44-1.96-28.59-5.68-42.37-10.36
			c-16.4-5.71-32.27-13.09-46.84-22.58c-10.64-6.85-20.31-15.03-29.61-23.57c-15.32-14.13-29.03-30.19-39.33-48.36
			c-8.06-14.16-13.93-29.45-18.53-45.06c-4.22-15.68-6.02-31.88-7.65-48c-3.17-34.84-4.35-69.85-4.12-104.81
			C261.48,40.38,261.47,20.59,261.48,0.81z"/>
	</g>
</g>
</svg>
