<svg height="104.51" viewBox="0 0 566.929 104.51" width="566.93" xmlns="http://www.w3.org/2000/svg"><g fill="#fff"><path d="m432.61 68.958-48.48 17.581h48.79l18.56-10.243zm-45.27-50.737h57.59l76.69 38.876h-30.08l-21.14-9.72-13.04 5.304zm107.26 17.81 48.49-17.573H494.3l-18.55 10.235z"/><path d="M539.89 86.768h-57.6L405.6 47.892h30.08l21.14 9.721 13.04-5.305zM23.837 17.749h38.175v46.65H23.837zm0 52.361h97.824v14.281H23.837zM85.87 17.749h45.34l31.02 26.177-22.42 16.449zm57.27 45.218v21.425h35.79V62.967l69.19-45.218h-33.4l-69.19 45.218zM252.9 24.885l38.17 23.801v35.706H252.9zm4.77-7.136 97.83 66.643h21.47v-66.65h-18.61v46.871l-69.67-46.864z"/></g></svg>