<svg enable-background="new 0 0 3839 667.7" version="1.1" viewBox="0 0 3839 667.7" xml:space="preserve" xmlns="http://www.w3.org/2000/svg">
<path d="m3377.5996 0c-101.8999 0-265.7997 7.4000291-370.5996 36.5-27.9 7.699992-49.5992 29.800809-57.1992 57.800781-13.7 50.699949-33.6016 140.900099-33.6016 239.499999s19.8016 188.99966 33.6016 239.59961c7.6 27.99997 29.1992 49.99884 57.1992 57.79883 104.7999 29.09997 268.7997 36.5 370.5996 36.5 101.8999 0 265.7997-7.40003 370.5996-36.5 27.9-7.69999 49.6012-29.79886 57.2012-57.79883 13.8-50.69995 33.5996-140.89971 33.5996-239.59961s-19.7996-188.90005-33.5996-239.499999c-7.6-27.999972-29.2012-50.000789-57.2012-57.800781-104.6999-29.0999709-268.6997-36.5-370.5996-36.5zm-159.9004 55.400391h128.1016 191.6992v128.099609h-191.6992v90.5h191.7988v128h-191.7988v210.30078h-128.1016v-428.80078-128.099609zm-2960.09959 21.5c-68.49993 0-137.79927 29.800049-185.699219 78.999999-46.699954 47.79995-71.900391 111.89968-71.900391 178.59961 0 72.49993 24.600835 135.90005 78.300781 184.5 50.499949 45.99995 115.199289 71.90039 183.199219 71.90039 39.49996 0 69.90004-9.70118 112-22.70117v-152.09961c-26.49997 31.69997-68.00043 51.80078-109.40039 51.80078-78.99992 0-132.09961-55.70125-132.09961-132.70117 0-75.69993 52.39969-135.29883 130.09961-135.29883 43.39996 0 85.50042 18.69925 111.40039 53.69922h0.09961v-152.09961c-37.69996-15.499984-75.20004-24.599609-116-24.599609zm158 6.099609v503.69922h127.70117v-191.89844h143.29883v191.89844h91.30078v0.10156h142.59961l87.3008-184h109.2988v183.89844h127.8008v-503.69922h-85.3008-42.6992-100.0996l-202.50002 426.80078v-426.80078h-127.80078v184h-143.19922v-184h-127.70117zm871.20119 0v503.69922h127.6992v-252.79883l185.3008 252.79883h116.2988v-503.69922h-127.7988v272l-199.4004-272h-102.0996zm471.3984 0v503.69922h127.7012v-252.79883l185.2988 252.79883h116.2012v-503.69922h-127.7012v272l-199.3984-272h-102.1016zm471.4004 0v503.59961h26v0.09961h255v-127.69922h-153.1992v-56.19922h153.1992v-127.80078h-153.1992v-64.30078h153.1992v-127.69922h-153.1992-101.8008-26zm323.2012 0v503.59961h15.7988v0.09961h255.0996v-127.69922h-143.0996v-376h-127.7988zm-1435.9004 89.5v102.5h-48.5996l48.5996-102.5z"/>
</svg>
