<?xml version="1.0" encoding="utf-8"?>
<!-- Generator: Adobe Illustrator 26.0.1, SVG Export Plug-In . SVG Version: 6.00 Build 0)  -->
<svg version="1.1" id="Layer_1" xmlns="http://www.w3.org/2000/svg" xmlns:xlink="http://www.w3.org/1999/xlink" x="0px" y="0px"
	 viewBox="0 0 3839 667.7" style="enable-background:new 0 0 3839 667.7;" xml:space="preserve">
<style type="text/css">
	.st0{fill:#FFE000;}
	.st1{fill:#FFFFFF;}
	.st2{fill:#FF001F;}
</style>
<g>
	<polygon points="2059.7,355 1860.3,83 1758.2,83 1758.2,586.7 1885.9,586.7 1885.9,333.9 2071.2,586.7 2187.4,586.7 2187.4,83 
		2059.7,83 	"/>
	<polygon points="1588.3,355 1388.9,83 1286.8,83 1286.8,586.7 1414.5,586.7 1414.5,333.9 1599.8,586.7 1716.1,586.7 1716.1,83 
		1588.3,83 	"/>
	<polygon points="2680.6,83 2552.8,83 2552.8,586.6 2568.6,586.6 2568.6,586.7 2823.7,586.7 2823.7,459 2680.6,459 	"/>
	<polygon points="2255.6,83 2229.6,83 2229.6,586.6 2255.6,586.6 2255.6,586.7 2510.6,586.7 2510.6,459 2357.4,459 2357.4,402.8 
		2510.6,402.8 2510.6,275 2357.4,275 2357.4,210.7 2510.6,210.7 2510.6,83 2357.4,83 	"/>
	<path d="M1116.9,83h-100.1L814.3,509.8V83H686.5V267H543.3V83H415.6v503.7h127.7V394.8h143.3v191.9h91.3l0,0.1h142.6l87.3-184
		h109.3v183.9h127.8V83h-85.3H1116.9z M1068.3,275l48.6-102.5V275H1068.3z"/>
	<path d="M71.9,155.9C25.2,203.7,0,267.8,0,334.5C0,407,24.6,470.4,78.3,519c50.5,46,115.2,71.9,183.2,71.9
		c39.5,0,69.9-9.7,112-22.7V416.1c-26.5,31.7-68,51.8-109.4,51.8c-79,0-132.1-55.7-132.1-132.7c0-75.7,52.4-135.3,130.1-135.3
		c43.4,0,85.5,18.7,111.4,53.7h0.1V101.5C335.9,86,298.4,76.9,257.6,76.9C189.1,76.9,119.8,106.7,71.9,155.9z"/>
	<path d="M3805.4,94.3c-7.6-28-29.2-50-57.2-57.8C3643.5,7.4,3479.5,0,3377.6,0c-101.9,0-265.8,7.4-370.6,36.5
		c-27.9,7.7-49.6,29.8-57.2,57.8c-13.7,50.7-33.6,140.9-33.6,239.5s19.8,189,33.6,239.6c7.6,28,29.2,50,57.2,57.8
		c104.8,29.1,268.8,36.5,370.6,36.5c101.9,0,265.8-7.4,370.6-36.5c27.9-7.7,49.6-29.8,57.2-57.8c13.8-50.7,33.6-140.9,33.6-239.6
		C3839,235.1,3819.2,144.9,3805.4,94.3z M3537.6,402h-191.8v210.3h-128.1V183.5V55.4h128.1h191.7v128.1h-191.7v90.5h191.8V402z"/>
</g>
</svg>
