<svg enable-background="new 0 0 3839 689.6" version="1.1" viewBox="0 0 3839 689.6" xml:space="preserve" xmlns="http://www.w3.org/2000/svg">
<path d="m256.80078 88.800781c-68.39993 0-137.40122 29.599269-185.201171 78.699219-46.399953 47.59995-71.599609 111.50007-71.599609 178 9.4738937e-15 72.29993 24.499272 135.50005 78.199219 184 50.299951 45.79995 114.801631 71.59961 182.601561 71.59961 39.29996 0 69.59965-9.69962 111.59961-22.59961v-151.69922c-26.49997 31.59997-67.79965 51.59961-109.09961 51.59961-78.79992 0-131.70117-55.50086-131.70117-132.30078 0-75.49993 52.30125-134.90039 129.70117-134.90039 43.19996 0 85.20003 18.7016 111 53.60156v-151.5c-37.39996-15.499983-74.90004-24.499999-115.5-24.499999zm157.5 6v502.099609h127.39844v-191.5h142.60156v191.5h127.29883v-0.09961h106l86.97659-183.30078h108.8242v183.40039h127.2988v-502.099609h-84.8984-142.2012l-201.99999 425.710939v-425.710939h-127.29883v183.298829h-142.60156v-183.298829h-127.39844zm868.50002 0v501.999999h127.1992v-251.90039l184.8008 251.90039h115.8984v-501.999999h-127.2988v271.199219l-198.9004-271.199219h-101.6992zm469.8984 0v501.999999h127.3008v-251.90039l184.6992 251.90039h115.8008v-501.999999h-127.1992v271.199219l-198.8008-271.199219h-101.8008zm469.9004 0v502.099609h26v0.09961h254.2012v-127.40039h-152.8008v-56h152.8008v-127.40039h-152.8008v-64h152.8008v-127.398439h-152.8008-101.4004-26zm322.2012 0v502.099609h15.6992v0.09961h254.1992v-127.40039h-142.5v-374.798829h-127.3984zm-1431.4004 89.355469v102.04297h-48.4199l48.4199-102.04297z" fill="#ffe000"/><path fill="#FFF" d="m3827 344.8c0-98.4-19.8-188.4-33.5-238.8-7.6-27.9-29.1-49.9-57-57.6-104.4-29-267.9-36.4-369.5-36.4s-265 7.4-369.5 36.4c-27.8 7.7-49.4 29.7-57 57.6-13.7 50.5-33.5 140.5-33.5 238.8 0 98.4 19.8 188.4 33.5 238.8 7.6 27.9 29.1 49.9 57 57.6 104.5 29 267.9 36.4 369.5 36.4s265-7.4 369.5-36.4c27.8-7.7 49.4-29.7 57-57.6 13.7-50.4 33.5-140.4 33.5-238.8z"/><path d="m3367 689.6c-56.3 0-249.4-2.7-372.7-36.8-31.7-8.8-56.7-34.1-65.4-66.1-12.7-46.7-33.9-140.2-33.9-241.9s21.2-195.3 33.9-242c8.7-32 33.7-57.3 65.4-66.1 123.3-34 316.4-36.7 372.7-36.7s249.5 2.7 372.7 36.8c31.7 8.8 56.7 34.1 65.4 66.1 12.6 46.7 33.9 140.2 33.9 242s-21.2 195.3-33.9 242c-8.7 32-33.7 57.3-65.4 66-123.1 34.1-316.4 36.7-372.7 36.7zm0-665.6c-219.5 0-335.8 27.6-366.2 36-23.5 6.5-42.1 25.4-48.6 49.2-12.3 45.5-33.1 136.7-33.1 235.7s20.7 190.2 33.1 235.7c6.4 23.8 25.1 42.7 48.6 49.2 30.4 8.4 146.8 36 366.3 36s335.8-27.5 366.3-36c23.5-6.5 42.1-25.4 48.6-49.2 12.3-45.5 33.1-136.7 33.1-235.7s-20.7-190.2-33.1-235.7c-6.5-23.8-25.1-42.7-48.6-49.2-30.5-8.4-146.7-36-366.4-36z"/><path d="m3207.6992 67.199219v127.701171 427.59961h127.7012v-209.80078h191v-127.69922h-191v-90.09961h191v-127.701171h-191-127.7012z" fill="#ff001f"/>
</svg>
