<?xml version="1.0" encoding="utf-8"?>
<!-- Generator: Adobe Illustrator 26.0.1, SVG Export Plug-In . SVG Version: 6.00 Build 0)  -->
<svg version="1.1" id="Layer_1" xmlns="http://www.w3.org/2000/svg" xmlns:xlink="http://www.w3.org/1999/xlink" x="0px" y="0px"
	 viewBox="0 0 3839 689.6" style="enable-background:new 0 0 3839 689.6;" xml:space="preserve">
<style type="text/css">
	.st0{fill:#FFE000;}
	.st1{fill:#FFFFFF;}
	.st2{fill:#FF001F;}
</style>
<g>
	<g>
		<g>
			<g>
				<rect x="2222.6" y="94.8" class="st0" width="127.4" height="502.1"/>
			</g>
			<g>
				<polygon class="st0" points="2053.3,94.8 2053.3,366 1854.5,94.8 1752.7,94.8 1752.7,596.8 1880,596.8 1880,344.9 2064.7,596.8 
					2180.5,596.8 2180.5,94.8 				"/>
			</g>
			<g>
				<polygon class="st0" points="1583.4,94.8 1583.4,366 1384.5,94.8 1282.8,94.8 1282.8,596.8 1410,596.8 1410,344.9 1594.8,596.8 
					1710.7,596.8 1710.7,94.8 				"/>
			</g>
			<g>
				<rect x="2544.8" y="94.8" class="st0" width="127.4" height="502.1"/>
			</g>
			<g>
				<rect x="2248.6" y="286.2" class="st0" width="254.2" height="127.4"/>
			</g>
			<g>
				<rect x="2248.6" y="94.8" class="st0" width="254.2" height="127.4"/>
			</g>
			<g>
				<rect x="2248.6" y="469.6" class="st0" width="254.2" height="127.4"/>
			</g>
			<g>
				<rect x="2560.5" y="469.6" class="st0" width="254.2" height="127.4"/>
			</g>
			<g>
				<g>
					<rect x="493.8" y="278.1" class="st0" width="254.2" height="127.3"/>
				</g>
				<g>
					<rect x="1113.4" y="94.8" class="st0" width="127.3" height="502.1"/>
				</g>
				<g>
					<rect x="684.3" y="94.8" class="st0" width="127.3" height="502.1"/>
				</g>
				<g>
					<rect x="414.3" y="94.8" class="st0" width="127.4" height="502.1"/>
				</g>
				<g>
					<rect x="972.7" y="286.2" class="st0" width="254.2" height="127.3"/>
				</g>
				<g>
					<g>
						<polygon class="st0" points="1155.8,94.8 1013.6,94.8 775.4,596.8 917.6,596.8 						"/>
					</g>
				</g>
			</g>
			<g>
				<g>
					<path class="st0" d="M372.3,264.8c-25.8-34.9-67.8-53.6-111-53.6c-77.4,0-129.7,59.4-129.7,134.9
						c0,76.8,52.9,132.3,131.7,132.3c41.3,0,82.6-20,109.1-51.6v151.7c-42,12.9-72.3,22.6-111.6,22.6c-67.8,0-132.3-25.8-182.6-71.6
						C24.5,481,0,417.8,0,345.5C0,279,25.2,215.1,71.6,167.5c47.8-49.1,116.8-78.7,185.2-78.7c40.6,0,78.1,9,115.5,24.5L372.3,264.8
						L372.3,264.8z"/>
				</g>
			</g>
		</g>
		<g>
			<g>
				<path class="st1" d="M3827,344.8c0-98.4-19.8-188.4-33.5-238.8c-7.6-27.9-29.1-49.9-57-57.6C3632.1,19.4,3468.6,12,3367,12l0,0
					c-101.6,0-265,7.4-369.5,36.4c-27.8,7.7-49.4,29.7-57,57.6c-13.7,50.5-33.5,140.5-33.5,238.8l0,0c0,98.4,19.8,188.4,33.5,238.8
					c7.6,27.9,29.1,49.9,57,57.6c104.5,29,267.9,36.4,369.5,36.4l0,0c101.6,0,265-7.4,369.5-36.4c27.8-7.7,49.4-29.7,57-57.6
					C3807.2,533.2,3827,443.2,3827,344.8L3827,344.8z"/>
				<path d="M3367,689.6c-56.3,0-249.4-2.7-372.7-36.8c-31.7-8.8-56.7-34.1-65.4-66.1c-12.7-46.7-33.9-140.2-33.9-241.9
					s21.2-195.3,33.9-242c8.7-32,33.7-57.3,65.4-66.1C3117.6,2.7,3310.7,0,3367,0s249.5,2.7,372.7,36.8
					c31.7,8.8,56.7,34.1,65.4,66.1c12.6,46.7,33.9,140.2,33.9,242s-21.2,195.3-33.9,242c-8.7,32-33.7,57.3-65.4,66
					C3616.6,687,3423.3,689.6,3367,689.6z M3367,24c-219.5,0-335.8,27.6-366.2,36c-23.5,6.5-42.1,25.4-48.6,49.2
					c-12.3,45.5-33.1,136.7-33.1,235.7s20.7,190.2,33.1,235.7c6.4,23.8,25.1,42.7,48.6,49.2c30.4,8.4,146.8,36,366.3,36
					c219.5,0,335.8-27.5,366.3-36c23.5-6.5,42.1-25.4,48.6-49.2c12.3-45.5,33.1-136.7,33.1-235.7s-20.7-190.2-33.1-235.7
					c-6.5-23.8-25.1-42.7-48.6-49.2C3702.9,51.6,3586.7,24,3367,24z"/>
			</g>
			<g>
				<g>
					<rect x="3207.7" y="67.2" class="st2" width="127.7" height="555.3"/>
				</g>
				<g>
					<rect x="3271.5" y="285" class="st2" width="254.9" height="127.7"/>
				</g>
				<g>
					<rect x="3207.7" y="67.2" class="st2" width="318.7" height="127.7"/>
				</g>
			</g>
		</g>
	</g>
</g>
</svg>
