<?xml version="1.0" encoding="utf-8"?>
<!-- Generator: Adobe Illustrator 25.1.0, SVG Export Plug-In . SVG Version: 6.00 Build 0)  -->
<svg version="1.1" id="Layer_1" xmlns="http://www.w3.org/2000/svg" xmlns:xlink="http://www.w3.org/1999/xlink" x="0px" y="0px"
	 viewBox="0 0 3839.5 430.6" style="enable-background:new 0 0 3839.5 430.6;" xml:space="preserve">
<style type="text/css">
	.st0{fill:#3852A1;}
	.st1{fill:#FF0000;}
	.st2{fill:#FFFFFF;}
</style>
<g>
	<rect x="1232.2" y="178.9" width="179.1" height="78.1"/>
	<polygon points="1713.4,352.5 1713.4,78.1 1713.4,0 1515.4,0 1515.4,78.1 1616.7,78.1 1616.7,352.5 1487.6,352.5 1487.6,430.6 
		1830.9,430.6 1830.9,352.5 	"/>
	<path d="M716.1,352.5V78.1h468.5V0H685.9c-36.8,0-66.6,29.8-66.6,66.6V364c0,36.8,29.8,66.6,66.6,66.6h498.7V178.9H881.1V257h206.7
		v95.5H716.1z"/>
	<path d="M1885,66.6V364c0,36.8,29.8,66.6,66.6,66.6h482.3c36.8,0,66.6-29.8,66.6-66.6V66.6c0-36.8-29.8-66.6-66.6-66.6h-482.3
		C1914.8,0,1885,29.8,1885,66.6z M1981.8,352.5V78.1h421.9v274.4H1981.8z"/>
	<path d="M2554.5,66.6V364c0,36.8,29.8,66.6,66.6,66.6h482.3c36.8,0,66.6-29.8,66.6-66.6V66.6c0-36.8-29.8-66.6-66.6-66.6h-482.3
		C2584.3,0,2554.5,29.8,2554.5,66.6z M2651.3,352.5V78.1h421.9v274.4H2651.3z"/>
	<path d="M3224.1,66.6V364c0,36.8,29.8,66.6,66.6,66.6h482.3c36.8,0,66.6-29.8,66.6-66.6V66.6c0-36.8-29.8-66.6-66.6-66.6h-482.3
		C3253.9,0,3224.1,29.8,3224.1,66.6z M3320.9,352.5V78.1h421.9v274.4H3320.9z"/>
	<path d="M498.7,178.9H96.8V78.1h468.5V0H66.6C29.8,0,0,29.8,0,66.6v123.8C0,227.2,29.8,257,66.6,257h401.9v95.5H0v78.1h498.7
		c36.8,0,66.6-29.8,66.6-66.6V245.5C565.3,208.8,535.4,178.9,498.7,178.9z"/>
</g>
</svg>
