<svg enable-background="new 0 0 3839.5 430.6" version="1.1" viewBox="0 0 3839.5 430.6" xml:space="preserve" xmlns="http://www.w3.org/2000/svg">
<path d="m66.599609 0c-36.799963 0-66.599609 29.799646-66.599609 66.599609v123.800781c0 36.79996 29.799646 66.59961 66.599609 66.59961h401.900391v95.5h-468.5v78.09961h498.69922c36.79996 0 66.60156-29.79965 66.60156-66.59961v-118.5c0-36.69996-29.9016-66.59961-66.60156-66.59961h-401.898439v-100.800781h468.499999v-78.099609h-498.701171zm619.300781 0c-36.79996 0-66.59961 29.799646-66.59961 66.599609v297.400391c0 36.79996 29.79965 66.59961 66.59961 66.59961h498.69921v-251.69922h-303.49999v78.09961h206.70119v95.5h-371.70119v-274.400391h468.49999v-78.099609h-498.69921zm829.50001 0v78.099609h101.2988v274.400391h-129.0996v78.09961h343.3008v-78.09961h-117.5v-274.400391-78.099609h-198zm436.1992 0c-36.8 0-66.5996 29.799646-66.5996 66.599609v297.400391c0 36.79996 29.7996 66.59961 66.5996 66.59961h482.3008c36.8 0 66.5996-29.79965 66.5996-66.59961v-297.400391c0-36.799963-29.7996-66.599609-66.5996-66.599609h-482.3008zm669.5 0c-36.8 0-66.5996 29.799646-66.5996 66.599609v297.400391c0 36.79996 29.7996 66.59961 66.5996 66.59961h482.3008c36.8 0 66.5996-29.79965 66.5996-66.59961v-297.400391c0-36.799963-29.7996-66.599609-66.5996-66.599609h-482.3008zm669.5996 0c-36.7999 0-66.5996 29.799646-66.5996 66.599609v297.400391c0 36.79996 29.7997 66.59961 66.5996 66.59961h482.3008c36.8 0 66.5996-29.79965 66.5996-66.59961v-297.400391c0-36.799963-29.7996-66.599609-66.5996-66.599609h-482.3008zm-1308.8984 78.099609h421.8984v274.400391h-421.8984v-274.400391zm669.5 0h421.8984v274.400391h-421.8984v-274.400391zm669.5996 0h421.9004v274.400391h-421.9004v-274.400391zm-2088.7012 100.800781v78.09961h179.1016v-78.09961h-179.1016z" fill="#f00"/>
</svg>
