<svg height="277.256" width="1924.699" xmlns="http://www.w3.org/2000/svg"><path d="M257.69 221.592c0 16.49-5.003 29.806-15.01 39.95-10.007 10.143-23.528 15.214-40.562 15.214H4.969v-55.164h197.149v-55.177H55.268c-16.226 0-29.41-5.138-39.553-15.413C5.572 140.727.5 127.476.5 111.25V55.665c0-7.84 1.488-15.14 4.463-21.9 2.975-6.76 6.964-12.573 11.965-17.443 5.001-4.87 10.816-8.724 17.443-11.563C40.998 1.92 47.964.501 55.268.5h183.766v55.165H55.268v55.586h146.85c7.84 0 15.142 1.419 21.906 4.258 6.763 2.839 12.645 6.692 17.647 11.556 5.001 4.866 8.922 10.68 11.761 17.444 2.839 6.763 4.258 14.065 4.259 21.906zm320.49 55.164H357.1c-36.784 0-55.176-18.388-55.176-55.164V55.665c0-7.84 1.487-15.14 4.463-21.9 2.975-6.76 6.965-12.573 11.97-17.443 5.006-4.87 10.82-8.724 17.444-11.563 6.623-2.84 13.723-4.258 21.3-4.259h211.756v55.165H357.101v165.927h165.505v-55.177H412.674V111.25h165.505zm207.56-110.341H620.22V111.25h165.52zm192.146 110.341H812.368v-55.164h55.573V55.665h-55.573V.5h110.75v221.092h54.768zM1069.656.5c-7.296.001-14.247 1.41-20.875 4.25-6.627 2.839-12.436 6.694-17.437 11.563-5.002 4.87-8.994 10.678-11.969 17.437-2.975 6.76-4.469 14.066-4.469 21.906v165.938c0 36.776 18.246 55.156 54.75 55.156h165.531c36.777 0 55.157-18.38 55.157-55.156V55.656c0-7.567-1.411-14.71-4.25-21.468-2.84-6.76-6.75-12.65-11.75-17.657-5.002-5.005-10.893-8.942-17.656-11.781-6.764-2.84-13.933-4.249-21.5-4.25zm0 55.156h165.531v165.938h-165.53zM1386.594.5c-7.296.001-14.248 1.41-20.875 4.25-6.627 2.839-12.436 6.694-17.438 11.563-5.001 4.87-8.993 10.678-11.968 17.437-2.976 6.76-4.47 14.066-4.47 21.906v165.938c0 36.776 18.247 55.156 54.75 55.156h165.532c36.776 0 55.156-18.38 55.156-55.156V55.656c0-7.567-1.411-14.71-4.25-21.468-2.84-6.76-6.78-12.65-11.781-17.657-5.002-5.005-10.893-8.942-17.656-11.781-6.764-2.84-13.901-4.249-21.469-4.25zm0 55.156h165.531v165.938h-165.531zM1703.531.5c-7.296.001-14.279 1.41-20.906 4.25-6.627 2.839-12.436 6.694-17.438 11.563-5 4.87-8.993 10.678-11.968 17.437-2.975 6.76-4.469 14.066-4.469 21.906v165.938c0 36.776 18.277 55.156 54.781 55.156h165.5c36.776 0 55.156-18.38 55.156-55.156V55.656c0-7.567-1.41-14.71-4.25-21.468-2.839-6.76-6.748-12.65-11.75-17.657-5.001-5.005-10.892-8.942-17.656-11.781-6.763-2.84-13.932-4.249-21.5-4.25zm0 55.156h165.5v165.938h-165.5z" fill="#fff" stroke="#fff"/></svg>