<svg enable-background="new 0 0 373.831 120.104" version="1.1" viewBox="0 0 373.831 120.104" xml:space="preserve" xmlns="http://www.w3.org/2000/svg"><path d="m139.61133 0a10 10 0 0 0-10 10 10 10 0 0 0 10 10 10 10 0 0 0 10-10 10 10 0 0 0-10-10zm-25.33203 0.3359375a10 10 0 0 0-10 10.0000005 10 10 0 0 0 10 10 10 10 0 0 0 10-10 10 10 0 0 0-10-10.0000005zm-103.738284 24.1328125c-1.8953012 0.106787-3.7493918 1.157784-4.541016 3.425781-8.1999918 23.497977-9.6617184 51.775333 6.322266 72.445309 14.665985 18.96498 39.169991 23.08934 61.417968 17.40235 6.243994-1.596 3.593791-11.23958-2.658203-9.64258-18.686981 4.77599-39.448309 1.68892-51.529297-14.664063-13.4129862-18.156982-10.9241489-42.781833-3.910156-62.882813 1.331249-3.815621-1.942728-6.261962-5.101562-6.083984zm168.500004 0.298828c-3.21555-0.017177-6.73263 3.645051-4.96094 7.66211 9.58599 21.735978 18.65682 43.999192 30.38281 64.701171 5.241 9.254991 12.59286 21.892781 24.46484 22.800781 11.56899 0.885 20.02045-12.92132 25.14844-21.195312 12.93899-20.875979 22.5627-43.99371 32.67969-66.304687 2.642-5.824995-5.97477-10.91287-8.63477-5.046875-9.59199 21.153978-18.92623 42.654176-30.57421 62.785156-3.169 5.475994-6.56662 10.958158-10.97461 15.535158-1.543 1.604-2.54458 2.42511-4.26758 3.41211-1.201 0.688-2.06491 0.85645-3.37891 0.81445-0.02737-0.0024-0.01438-0.00178-0.03906-0.00391-0.38161-0.07145-0.75722-0.17392-1.12891-0.28515-0.165-0.049-0.75351-0.288-1.72851-0.875-1.604-0.966-2.99125-2.42435-4.53125-4.15235-4.226-4.743991-7.35882-10.550704-10.38282-16.095699-10.74398-19.70298-19.3554-40.624786-28.40039-61.134765-0.81156-1.840936-2.21221-2.60938-3.67382-2.617188zm-52.6211 0.138672c-16.06098 0.162-30.552335 7.195076-39.236326 20.914062-7.669993 12.115988-9.1122 27.83753-5.283203 41.478516 4.059996 14.460982 14.837764 25.803892 29.093749 30.462892 15.52999 5.07599 33.61683 1.68018 46.00781-8.88281 14.37399-12.251991 18.57873-33.67724 13.67774-51.324222-5.627-20.26298-23.63579-32.441438-44.25977-32.648438zm205.1582 0.126953c-11.43387 0.265254-22.56368 4.838759-30.88867 13.5625-13.14498 13.772986-17.3561 35.849908-9.78711 53.337891 4.761 10.998986 12.66741 20.206516 24.02539 24.603516 10.20799 3.952 21.32189 3.82778 32.04688 2.67578 6.34199-0.682 6.40799-10.688 0-10-9.53999 1.025-19.15032 1.3327-28.32031-1.9043-10.21399-3.60499-17.0658-13.444178-20.0918-23.451168-5.27799-17.455983 3.68214-39.335289 20.82812-46.488281 13.84399-5.773995 32.80228-1.286269 41.32227 11.511718 9.10699 13.678987-4.02703 24.853411-16.16601 29.691407-4.179 1.664998-8.54498 2.837329-12.91797 3.861328-6.278 1.467998-3.61579 11.110576 2.6582 9.642578 16.11898-3.770996 37.56569-12.265801 39.42969-31.425781 1.37-14.086986-9.76155-25.942209-21.76953-31.408203-6.53925-2.976748-13.50882-4.368137-20.36915-4.208985zm-205.1582 9.873047c14.63899 0.147 27.71088 7.472498 33.29688 21.396484 5.00399 12.473988 3.67169 27.056918-3.5293 38.378907-8.20999 12.907989-24.44464 17.365389-38.89062 14.400389-14.07299-2.889-23.503461-13.992262-26.564458-27.656249-2.374998-10.604989-0.263604-22.109915 5.52539-31.253906 6.571998-10.38099 18.227118-15.145625 30.162108-15.265625z" fill="#0080e8"/></svg>
