<svg width="270" height="82.35" version="1.1" viewBox="3 136.909 270 82.35" xmlns="http://www.w3.org/2000/svg"><path d="m93.587891 139.99884a6.4109998 6.4109998 0 0 0-6.41211 6.41211 6.4109998 6.4109998 0 0 0 6.41211 6.41016 6.4109998 6.4109998 0 0 0 6.410156-6.41016 6.4109998 6.4109998 0 0 0-6.410156-6.41211zm15.724609 0a6.4109998 6.4109998 0 0 0-6.41211 6.41211 6.4109998 6.4109998 0 0 0 6.41211 6.41016 6.4109998 6.4109998 0 0 0 6.41016-6.41016 6.4109998 6.4109998 0 0 0-6.41016-6.41211zm-80.175781 11.63868a5.617 5.617 0 0 0-4.322266 3.58789c-2.743997 7.41299-4.105422 14.80274-4.107422 21.80273-1e-3 10.48699 3.079678 20.21251 9.388672 27.4375 6.244994 7.20699 15.714214 11.54097 26.908203 11.54297l0.185547-0.00195c3.681996 0 7.55352-0.43899 11.603516-1.33399a5.617 5.617 0 0 0 4.273437-6.69726 5.62 5.62 0 0 0-6.697265-4.27539c-3.334997 0.73799-6.393691 1.07031-9.179688 1.07031-8.552991-0.049-14.443676-2.97513-18.638672-7.70313-4.164996-4.75299-6.603469-11.70407-6.605469-20.03906-0.001999-5.53599 1.088206-11.6354 3.408204-17.90039a5.617 5.617 0 0 0-3.320313-7.2207 5.617 5.617 0 0 0-2.896484-0.26953zm103.919921 0.19726a5.62 5.62 0 0 0-2.87695 0.42774 5.62 5.62 0 0 0-2.91992 7.38867c6.27199 14.46398 11.64727 27.62679 16.94726 37.55078 2.671 4.97099 5.28964 9.14606 8.30664 12.41406 1.519 1.629 3.15622 3.04686 5.07422 4.13086 1.892 1.074 4.13424 1.7842 6.49023 1.7832h0.0254c2.91999-0.017 5.32764-1.17626 7.30664-2.57226 3.46199-2.498 6.22458-6.02108 9.01757-10.20508 4.135-6.26799 8.08155-14.09002 11.68555-21.79102 3.594-7.69199 6.81997-15.25777 9.29297-20.75976a5.6190502 5.6190502 0 0 0-10.25195-4.60352c-3.861 8.60899-9.26682 21.49684-14.88282 32.04883-2.79299 5.257-5.66392 9.92175-8.16992 12.96875-1.24 1.522-2.3934 2.62078-3.1914 3.17578-0.395 0.283-0.69204 0.42552-0.83204 0.47852l-0.04882 0.01953c-0.175-0.013-0.43355-0.06384-0.93555-0.33984-1.006-0.53-2.76239-2.15915-4.65039-4.86915-2.868-4.04299-6.09107-10.29147-9.53906-17.85546-3.46-7.57-7.18999-16.47798-11.33399-26.04297a5.62 5.62 0 0 0-4.51367-3.34766zm93.39063 0.90039a26.87 26.87 0 0 0-1.4375 0.03906c-6.813 0.417-13.39229 4.02857-18.73829 9.47657-5.28399 5.45999-9.30826 13.11958-9.32226 22.01757 2e-3 7.457 2.04102 15.30085 7.41601 21.46485 5.319 6.14899 13.84702 9.99519 24.75 9.99219h0.24415a58.109 58.109 0 0 0 7.30273-0.48438 5.619 5.619 0 0 0-1.41797-11.14453 47.18 47.18 0 0 1-5.88281 0.39258c-8.63699-0.056-13.41702-2.65826-16.54102-6.15625-3.10799-3.523-4.63581-8.60146-4.63281-14.06446-0.015-5.37599 2.49516-10.41508 6.16016-14.20507 3.60499-3.808 8.39719-6.00341 11.24218-6.06641 0.273-0.015 0.55743-0.02344 0.85743-0.02344 3.71699-0.031 8.74233 1.23772 12.23632 3.38672 1.761 1.059 3.12785 2.29596 3.96485 3.50195 0.837 1.224 1.21747 2.32848 1.23047 3.73047-3e-3 2.133-0.33339 3.43415-0.77539 4.36914-0.656 1.34-1.76615 2.5023-4.61914 4.0293-2.802 1.486-7.07495 3.02602-12.58594 4.91602a5.62 5.62 0 1 0 3.6582 10.625c7.39999-2.586 13.16665-4.4786 17.93164-7.9336 2.359-1.731 4.43586-4.00492 5.75586-6.79492 1.333-2.786 1.88005-5.90094 1.87305-9.21094 0.014-3.83199-1.27977-7.37383-3.25977-10.17382-2.988-4.227-7.26357-7.00401-11.72656-8.875-4.487-1.852-9.2376-2.7976-13.68359-2.8086zm-125.60157 0.03125c-17.601979 3e-3 -31.863184 14.26525-31.867184 31.86524 4e-3 17.60298 14.265205 31.86318 31.867184 31.86718 17.59899-4e-3 31.86024-14.2632 31.86524-31.86718-5e-3 -17.59999-14.26525-31.86224-31.86524-31.86524zm0 11.23633c11.38899 0.022 20.60796 9.23892 20.62696 20.62891h0.00195c-0.022 11.39198-9.23892 20.61086-20.62891 20.63086-11.392985-0.021-20.610856-9.23788-20.630856-20.63086 0.02-11.38799 9.240871-20.60691 20.630856-20.62891z"/></svg>
