<svg enable-background="new 0 0 3839 790.7" version="1.1" viewBox="0 0 3839 790.7" xml:space="preserve" xmlns="http://www.w3.org/2000/svg">
<path d="m395.40039 0c-72.59993 9.4738937e-15 -140.60006 19.599253-199 53.699219-0.6 0.399999-0.99961 1.3-0.59961 2 0.3 0.699999 1.09844 0.901171 1.89844 0.701172 69.09993-15.599985 185.9004 57.098839 196.90039 63.798829 0.2 0.1 0.50078 0.30078 0.80078 0.30078s0.59883-0.20078 0.79883-0.30078c11.09999-6.59999 127.90007-79.298814 197-63.798829 0.8 0.1 1.60039-0.001173 1.90039-0.701172 0.4-0.799999 0.10039-1.600001-0.59961-2-58.49994-34.099966-126.49968-53.699219-199.09961-53.699219zm-267.14648 110.51953c-8.04516 0.42358-10.87891 3.63672-10.75391 3.48047l0.5-0.30078c-0.3 0.2-0.40039 0.40078-0.40039 0.30078-72.599928 71.69993-117.59961 171.3005-117.59961 281.40039 0 90.09991 30.100832 173.10007 80.800781 239.5 0.5 0.6 1.39961 0.99961 2.09961 0.59961 0.699999-0.4 0.70039-1.29961 0.40039-2.09961-29.99997-93.09991 118.298519-322.40127 197.898439-417.20117 0.3-0.3 0.5-0.69961 0.5-1.09961 0-0.5-0.29922-0.99883-0.69922-1.29883-92.12491-91.64366-135.04675-104.21313-152.74609-103.28125zm534.09179 0c-17.69934-0.93188-60.62118 11.63759-152.74609 103.28125-0.4 0.3-0.69922 0.79883-0.69922 1.29883 0 0.4 0.29961 0.79961 0.59961 1.09961 79.49992 94.7999 227.90075 324.10165 197.80078 417.10156-0.3 0.8-0.30156 1.69961 0.39844 2.09961s1.60156 3.9e-4 2.10156-0.59961c50.79995-66.39993 80.89844-149.40009 80.89844-239.5 0-110.09989-44.99968-209.60085-117.59961-281.30078 0.125 0.15625-2.70875-3.05689-10.75391-3.48047zm2235.7539 40.48047c-84.5999 0-142.9 50.40008-152 131.5l-1.2988 11.5h45.8984l1.4004-8.59961c9.4-55.59994 50.9001-91.5 106-91.5 55.5 0 111.9004 29.00045 111.9004 84.40039 0 23.69998-7.5992 42.89845-22.1992 56.89844-23.7 22.79998-67.6016 28.5-90.1016 28.5-8.1 0-20.3 0.10117-32 0.20117-0.2 11.59999-0.2 33.89962 0 45.09961h32.2012c42.3999 0.4 75.9988 9.3008 96.7988 28.80078 17.3 16.09999 25.9004 38.49925 25.9004 66.69922 0 68.09993-61.5001 103.90039-122.5 103.90039-39.5 0-72.1996-12.20041-94.0996-34.90039-21.6-22.39998-32.1-54.80043-30.5-93.40039l0.3008-10.69922h-46.2012l-0.4004 9.79883c-2.3 51.19995 11.7012 94.10003 40.2012 124 29.9 31.39997 75.0993 47.90039 130.6992 47.90039 102.4999 0 168.8008-57.4997 168.8008-146.59961 0-56.29994-29.2008-100.99963-76.8008-120.09961 40.3-18.59998 66-58.80122 66-106.20117 0-33.49997-11.1004-61.49846-32.9004-83.39844-27.8-27.79997-73.4996-43.80078-125.0996-43.80078zm762.8008 0.90039c-113.2999 0-178.2012 91.09977-178.2012 250.09961 0 158.79984 65.0013 249.90039 178.2012 249.90039 64.4999 0 112.5-28.10045 143-83.40039 28.9-52.69995 35.0996-119.70005 35.0996-166.5 0-75.19992-17.3998-250.09961-178.0996-250.09961zm-377.0996 0.09961c-149.5999 0-180.9004 148.40091-180.9004 272.80078 0 148.69985 60.6005 227.19922 175.4004 227.19922 94.2999 0 165.5996-71.40009 165.5996-166-0.1-97.9999-69.8013-168.90039-165.7012-168.90039-51.6999 0-98.9 25.20082-128 66.80078 6.1-90.49991 35.2001-189.09961 133.5-189.09961 54.9 0 96.5004 35.89849 105.9004 91.39844l1.4004 8.70117h45.6992l-1.1992-11.59961c-9-80.99992-67.1993-131.30078-151.6992-131.30078zm-1277.5 0.19922c-133.9999 0-227.6016 102.40171-227.6016 249.10156 0 146.79985 93.6017 249.19922 227.6016 249.19922 133.6998 0 227.0996-102.39937 227.0996-249.19922 0-146.69985-93.2998-249.10156-227.0996-249.10156zm-1055.40041 10.90039 167.19921 227-183.29882 249.90039h62.69922l152.1992-206.80078 152.2012 206.80078h62.6992l-183.1992-249.90039 167.1992-227h-62.5996l-136.3008 185.30078-136.1992-185.30078h-62.59961zm439.79881 0v205.70117h-64.5996c-8.3 10.89999-27.3 37.09884-34.5 47.79883h99.0996v223.40039h193.6016c104.9999 0 170.0996-53.30087 170.0996-139.30078 0-37.49996-14.1996-69.40002-41.0996-92.5-10-8.49999-20.7008-15.09844-31.3008-19.89844 34.7-18.69998 57.3008-54.20043 57.3008-95.40039 0-30.59997-11.2002-129.80078-155-129.80078h-193.6016zm809.8008 0 167.1992 227.09961-183.1992 249.80078h62.6992l152.2012-206.80078 152.2988 206.80078h62.6016l-183.1016-249.90039 167.2012-227h-62.7012l-136.1992 185.09961-136.3008-185.09961h-62.6992zm1460.4004 31.70117c119.0999 0 131.9004 144.89889 131.9004 207.29883 0 62.19994-12.8005 207.09961-131.9004 207.09961-32.3 0-59.1008-10.50002-79.8008-31-45.3999-45.59996-52.2988-129.89966-52.2988-176.09961 0-62.39994 12.8997-207.29883 132.0996-207.29883zm-1654.5996 7.79883c101.7999 0 173 81.60129 173 198.70117s-71.2001 198.79883-173 198.79883c-102.0999 0-173.6016-81.79895-173.6016-198.79883s71.6017-198.70117 173.6016-198.70117zm-562.1016 10.30078h140c38 0 101.5 9.60046 101.5 75.90039 0 50.09995-37 80-101.5 80h-140v-155.90039zm-1048.79881 98.40039c-0.5 0-1.00117 0.39961-1.20117 0.59961-118.29988 89.99991-320.799939 318.20006-259 381 69.49993 60.89994 160.50127 97.79883 260.20117 97.79883 99.5999 0 190.59929-36.89889 260.19922-97.79883 61.79994-62.89994-140.70051-291.10009-258.90039-381-0.3-0.2-0.89883-0.59961-1.29883-0.59961zm2882.79881 48.69922c30.9 0 60.1008 12.00041 81.8008 33.90039 23.9 23.69998 37.4004 57.29964 37.4004 92.09961 0 68.99993-52.3012 123.19922-119.2012 123.19922-67.5999 0-120.5996-54.19929-120.5996-123.19922 0-71.89993 51.9997-126 120.5996-126zm-1833.8984 56.59961h140c53.2999 0 116.6992 14.69968 116.6992 83.09961 0 78.69992-73.0993 90.6-116.6992 90.5h-140v-173.59961z"/>
</svg>
