<?xml version="1.0" encoding="utf-8"?>
<!-- Generator: Adobe Illustrator 25.4.1, SVG Export Plug-In . SVG Version: 6.00 Build 0)  -->
<svg version="1.1" id="Layer_1" xmlns="http://www.w3.org/2000/svg" xmlns:xlink="http://www.w3.org/1999/xlink" x="0px" y="0px"
	 viewBox="0 0 3839 790.7" style="enable-background:new 0 0 3839 790.7;" xml:space="preserve">
<style type="text/css">
	.st0{fill:#FFFFFF;}
	.st1{fill:#666666;}
	.st2{fill:#91C93D;}
	.st3{fill:#999999;}
	.st4{clip-path:url(#SVGID_00000116936783918555293750000007469767993559255974_);}
	.st5{clip-path:url(#SVGID_00000158740534648164909140000001295847137466387621_);}
	.st6{clip-path:url(#SVGID_00000155842778396752356890000010572617078912532369_);}
	.st7{clip-path:url(#SVGID_00000155144553101945258850000012559315686549043378_);}
	.st8{fill:url(#SVGID_00000010292549517162298780000013377369793622022845_);}
	.st9{fill:url(#SVGID_00000036231710623331604260000005869396906459459469_);}
	.st10{fill:url(#SVGID_00000083797390130019649950000016993630063187283634_);}
	.st11{fill:url(#SVGID_00000071546227830214281760000007375249739212027046_);}
	.st12{opacity:0.8;fill:url(#SVGID_00000139976072570819599400000014907709301721782916_);}
	.st13{opacity:0.55;fill:url(#SVGID_00000020388828007938614210000003075296111492721296_);}
	.st14{fill:url(#SVGID_00000036240156864560620200000006081263453251876748_);}
	.st15{fill:url(#SVGID_00000067220738065300702300000002508356615530431876_);}
	.st16{clip-path:url(#SVGID_00000040539322555364225810000013668476463417864856_);}
	.st17{fill:url(#SVGID_00000069400412844419943700000011381320808495491247_);}
	.st18{fill:url(#SVGID_00000150820882399001585030000002818148137064195495_);}
	.st19{fill:url(#SVGID_00000093896032315545902600000017490705668257020565_);}
	.st20{opacity:0.8;fill:url(#SVGID_00000122701113884174718220000005988537363528600704_);}
	.st21{opacity:0.55;fill:url(#SVGID_00000173142782469316259970000016849888242107634586_);}
	.st22{fill:url(#SVGID_00000129187186500082503560000000922680786672071817_);}
	.st23{fill:url(#SVGID_00000057119313518697747600000017593682247445280701_);}
	.st24{clip-path:url(#SVGID_00000101816359812842285540000015732616889665004441_);}
	.st25{fill:#BFBDBE;}
	.st26{fill:url(#SVGID_00000049911932759493640890000006240449924929436088_);}
	.st27{fill:url(#SVGID_00000134220466912409252970000001112239715534358671_);}
	.st28{opacity:0.8;fill:url(#SVGID_00000140698251357615779220000009557682369471754654_);}
	.st29{opacity:0.55;fill:url(#SVGID_00000142153463038138063270000009067320057240581771_);}
	.st30{fill:url(#SVGID_00000036973502282975893160000012567794615475651214_);}
	.st31{fill:url(#SVGID_00000080198947375386675350000005529994955410116778_);}
	.st32{clip-path:url(#SVGID_00000090256341839794483940000004767460189889961361_);}
	.st33{clip-path:url(#SVGID_00000134962319792858629060000012164386051026153399_);}
	.st34{fill:url(#SVGID_00000078743987372971775520000010702288087983658643_);}
	.st35{fill:url(#SVGID_00000142168026558616452050000016146205114568647313_);}
	.st36{fill:url(#SVGID_00000062885077398604381360000005621743981034078885_);}
	.st37{opacity:0.8;fill:url(#SVGID_00000149368303877338138860000012849009508891704977_);}
	.st38{opacity:0.55;fill:url(#SVGID_00000005983553496142048750000010640488831535781803_);}
	.st39{fill:url(#SVGID_00000011001271228307392950000016236184763238329529_);}
	.st40{fill:url(#SVGID_00000176002769669134528240000017120841940449353365_);}
	.st41{clip-path:url(#SVGID_00000007404035481829726280000012194682281490223029_);}
	.st42{clip-path:url(#SVGID_00000129924204718347789120000013857945008612493959_);}
	.st43{opacity:0.5;fill:url(#SVGID_00000041255728038578157030000017801029453341060490_);}
	.st44{opacity:0.5;fill:url(#SVGID_00000072998297353307880780000003427654193123052707_);}
	.st45{opacity:0.5;fill:url(#SVGID_00000177454978995441807530000017717080464331832200_);}
	.st46{clip-path:url(#SVGID_00000068651208963413037180000008343835353743787189_);}
	.st47{opacity:0.5;fill:url(#SVGID_00000118381279568474213600000001854946862919699329_);}
	.st48{clip-path:url(#SVGID_00000135668409699139954380000008492640851960668316_);}
	.st49{clip-path:url(#SVGID_00000016759269871158597700000006306697208360290701_);}
	.st50{clip-path:url(#SVGID_00000106855417885667242520000011089618293728599175_);}
	.st51{clip-path:url(#SVGID_00000085230015562224633710000015436784607507745456_);}
	.st52{fill:url(#SVGID_00000178194653221854520770000010148760915726819219_);}
	.st53{fill:url(#SVGID_00000013162311001772068310000004902833989218557314_);}
	.st54{fill:url(#SVGID_00000032613153920580627630000011352194114006113711_);}
	.st55{fill:url(#SVGID_00000047763188103070923870000009595432510233364666_);}
	.st56{opacity:0.8;fill:url(#SVGID_00000148645963669847124910000017072502973787078814_);}
	.st57{opacity:0.55;fill:url(#SVGID_00000101094263498537051600000014138221375547412358_);}
	.st58{fill:url(#SVGID_00000095315656870443474850000012180467342437196438_);}
	.st59{fill:url(#SVGID_00000159429316801266379440000002294363133212291230_);}
	.st60{clip-path:url(#SVGID_00000150087786589247467770000011392681847654414739_);}
	.st61{fill:url(#SVGID_00000131328426440563200240000011694553827474883222_);}
	.st62{fill:url(#SVGID_00000025420536956556976500000016819937580459858321_);}
	.st63{fill:url(#SVGID_00000064321203985993779410000005545467103104882331_);}
	.st64{opacity:0.8;fill:url(#SVGID_00000015352158939272109590000016273119411202081967_);}
	.st65{opacity:0.55;fill:url(#SVGID_00000021101158477917598240000000627391570033336255_);}
	.st66{fill:url(#SVGID_00000183232461691121441580000001046752565799712649_);}
	.st67{fill:url(#SVGID_00000003099203320768906680000010646111362605277357_);}
	.st68{clip-path:url(#SVGID_00000076561835877998846960000011402132618634769325_);}
	.st69{fill:url(#SVGID_00000150817945971739035430000007044431036206264733_);}
	.st70{fill:url(#SVGID_00000007391137620575921190000010795756530481703574_);}
	.st71{opacity:0.8;fill:url(#SVGID_00000099638381137515200560000013584445996416364433_);}
	.st72{opacity:0.55;fill:url(#SVGID_00000120548205482017972230000002960479390994068364_);}
	.st73{fill:url(#SVGID_00000169529297123501752530000001827790950952863122_);}
	.st74{fill:url(#SVGID_00000042709919437991133180000015338200966945736369_);}
	.st75{clip-path:url(#SVGID_00000183950060981909101950000014221256695177617067_);}
	.st76{clip-path:url(#SVGID_00000057120744196707087970000012392617450399533700_);}
	.st77{clip-path:url(#SVGID_00000157303899002733466640000015399597897894427063_);}
	.st78{clip-path:url(#SVGID_00000036932503163203648990000016011280510529313448_);}
	.st79{clip-path:url(#SVGID_00000057830163329268315310000005087222767786817411_);}
	.st80{fill:url(#SVGID_00000003809162164806743160000012714894924322133889_);}
	.st81{fill:url(#SVGID_00000141451055723967978550000013845159567332142769_);}
	.st82{fill:url(#SVGID_00000056408563687139679960000012628171087518621090_);}
	.st83{fill:url(#SVGID_00000177471385576139530050000015560517711674009503_);}
	.st84{opacity:0.8;fill:url(#SVGID_00000124873107969691844060000011284801181780778936_);}
	.st85{opacity:0.55;fill:url(#SVGID_00000137124147100894737580000014559738347691752893_);}
	.st86{fill:url(#SVGID_00000085242973802111070200000002237040996692308669_);}
	.st87{fill:url(#SVGID_00000098899964120334019590000009193444991896154799_);}
	.st88{clip-path:url(#SVGID_00000057840470307519953610000000034798729358450833_);}
	.st89{fill:url(#SVGID_00000158006162043622190240000007644279765534771109_);}
	.st90{fill:url(#SVGID_00000134947079877877133260000009332767779322859671_);}
	.st91{fill:url(#SVGID_00000031185766654008222270000004586653168630461356_);}
	.st92{opacity:0.8;fill:url(#SVGID_00000022526576154737631350000007162282661988700594_);}
	.st93{opacity:0.55;fill:url(#SVGID_00000127737045960989813140000014515283786322823819_);}
	.st94{fill:url(#SVGID_00000152985458504375317470000005590153622121142435_);}
	.st95{fill:url(#SVGID_00000116205044758928417170000011819158513091113345_);}
	.st96{clip-path:url(#SVGID_00000042004448277783542100000011941666492006226069_);}
	.st97{fill:url(#SVGID_00000114768226173243903660000001683156435584240785_);}
	.st98{fill:url(#SVGID_00000018937000335540022780000012676131677270427318_);}
	.st99{opacity:0.8;fill:url(#SVGID_00000026856270168027361250000018212645450605727405_);}
	.st100{opacity:0.55;fill:url(#SVGID_00000139255709901624971830000014129664296553917858_);}
	.st101{fill:url(#SVGID_00000072259448570895516300000011548842194258753718_);}
	.st102{fill:url(#SVGID_00000054237210800003764220000001850947912984438968_);}
	.st103{clip-path:url(#SVGID_00000061468896121099905750000005594066800896378018_);}
	.st104{clip-path:url(#SVGID_00000113313807160028400700000001721218963280401584_);}
	.st105{fill:url(#SVGID_00000045604004885239969240000006576240832466179738_);}
	.st106{fill:url(#SVGID_00000090255215485557273480000000931400736113114545_);}
	.st107{fill:url(#SVGID_00000069385385895207637440000001507111524210314402_);}
	.st108{opacity:0.8;fill:url(#SVGID_00000144330620765285905890000008602834579046853767_);}
	.st109{opacity:0.55;fill:url(#SVGID_00000099629018036278859340000000653572724619238793_);}
	.st110{fill:url(#SVGID_00000065051784446084755450000018156599181199387782_);}
	.st111{fill:url(#SVGID_00000026155897392870420500000014333312585948271496_);}
	.st112{clip-path:url(#SVGID_00000034798748419867977370000009892896875291891374_);}
	.st113{clip-path:url(#SVGID_00000041292312560003772870000015029777320771904685_);}
	.st114{opacity:0.5;fill:url(#SVGID_00000070803276923873632020000007446841990270517171_);}
	.st115{opacity:0.5;fill:url(#SVGID_00000002342026837621636880000001917485599823705472_);}
	.st116{opacity:0.5;fill:url(#SVGID_00000036940386015251520400000002376730868508778649_);}
	.st117{clip-path:url(#SVGID_00000051353632734183503050000013672839173013426612_);}
	.st118{opacity:0.5;fill:url(#SVGID_00000002358578229125154230000014866425501304673183_);}
	.st119{clip-path:url(#SVGID_00000099635098058869241590000004822549567342441105_);}
	.st120{clip-path:url(#SVGID_00000093168876972140761490000005807615533367449245_);}
	.st121{clip-path:url(#SVGID_00000036949996485530839640000010141628028239255976_);}
	.st122{clip-path:url(#SVGID_00000126302940712844822240000017614237738718426278_);}
	.st123{fill:url(#SVGID_00000057112496841886013800000004195521125999568554_);}
	.st124{fill:url(#SVGID_00000090278772992734942070000006801590952641113242_);}
	.st125{fill:url(#SVGID_00000031198293672836328830000012278078160203467959_);}
	.st126{fill:url(#SVGID_00000072966107591756489440000018009075871020142235_);}
	.st127{opacity:0.8;fill:url(#SVGID_00000162339836511765441000000002386075822253384329_);}
	.st128{opacity:0.55;fill:url(#SVGID_00000131345225278491974000000011552783519622267321_);}
	.st129{fill:url(#SVGID_00000036948370959557329610000013772979812736568486_);}
	.st130{fill:url(#SVGID_00000168106311239672872670000010038868394726045117_);}
	.st131{clip-path:url(#SVGID_00000119099659743943287100000003720650806449316013_);}
	.st132{fill:url(#SVGID_00000003065727789366524270000016633110604183846278_);}
	.st133{fill:url(#SVGID_00000132086332849069277650000007526530558024454814_);}
	.st134{fill:url(#SVGID_00000062157000306046819180000005156995132083925906_);}
	.st135{opacity:0.8;fill:url(#SVGID_00000078726135815038840990000017872928536190194617_);}
	.st136{opacity:0.55;fill:url(#SVGID_00000137103402768438035350000016001364530453667482_);}
	.st137{fill:url(#SVGID_00000086666314139859450690000012407640080326764474_);}
	.st138{fill:url(#SVGID_00000054968171191225937160000009092525952926277011_);}
	.st139{clip-path:url(#SVGID_00000023242618342471974460000015680593381603094970_);}
	.st140{fill:url(#SVGID_00000119813551556052231640000007838365647365671596_);}
	.st141{fill:url(#SVGID_00000029739379124246424990000008810376464220722855_);}
	.st142{opacity:0.8;fill:url(#SVGID_00000033329197923852075260000000454729088034798467_);}
	.st143{opacity:0.55;fill:url(#SVGID_00000140701430040543691370000017663806799717031057_);}
	.st144{fill:url(#SVGID_00000114782142379666389470000014254234469512225154_);}
	.st145{fill:url(#SVGID_00000112632314095804040010000010231495088979309208_);}
	.st146{clip-path:url(#SVGID_00000132768246559449515460000006223082410507254686_);}
	.st147{clip-path:url(#SVGID_00000124875937587758720750000012554846703926856607_);}
	.st148{fill:url(#SVGID_00000040535494224943700640000003068533406835400856_);}
	.st149{fill:url(#SVGID_00000032651022993604532690000005715308548821962641_);}
	.st150{fill:url(#SVGID_00000179612844593605094480000015759273307897751434_);}
	.st151{opacity:0.8;fill:url(#SVGID_00000140711033173050650280000000870167502999700122_);}
	.st152{opacity:0.55;fill:url(#SVGID_00000092432808271449871630000011343029579094777263_);}
	.st153{fill:url(#SVGID_00000035489905088623973450000007507032702061640847_);}
	.st154{fill:url(#SVGID_00000165949500959830667480000008234552723145638586_);}
	.st155{clip-path:url(#SVGID_00000058578898747491943980000003368276319902224545_);}
	.st156{clip-path:url(#SVGID_00000182486943312598648010000009796096405179728004_);}
	.st157{opacity:0.5;fill:url(#SVGID_00000013886416532261489280000011424716289084092083_);}
	.st158{opacity:0.5;fill:url(#SVGID_00000049903412914695349490000010498772595391870628_);}
	.st159{opacity:0.5;fill:url(#SVGID_00000111169672788498502080000011343344332890416267_);}
	.st160{clip-path:url(#SVGID_00000099625272862552615820000018177511430231653308_);}
	.st161{opacity:0.5;fill:url(#SVGID_00000088131768966626574290000012032157430044488606_);}
	.st162{clip-path:url(#SVGID_00000153701878551876932960000007837190477616574600_);}
	.st163{fill:url(#SVGID_00000105407134495153463940000006144570473574124981_);}
	.st164{fill:url(#SVGID_00000040557553447062077990000003231211450321134007_);}
	.st165{fill:url(#SVGID_00000094610194816125460100000000933022961513273012_);}
	.st166{opacity:0.8;fill:url(#SVGID_00000117644243036362007140000009133000296335978671_);}
	.st167{opacity:0.55;fill:url(#SVGID_00000118383670127868815400000016405390337328871079_);}
	.st168{fill:url(#SVGID_00000154386101158569137170000016798424068277512576_);}
	.st169{fill:url(#SVGID_00000134953476779167071310000000597168918971184263_);}
	.st170{clip-path:url(#SVGID_00000054236012261286668700000007504942038173919421_);}
	.st171{clip-path:url(#SVGID_00000068648032108102249200000012093060860740307841_);}
	.st172{opacity:0.5;fill:url(#SVGID_00000046323686379240725850000008826286650127661244_);}
	.st173{opacity:0.5;fill:url(#SVGID_00000001664415526818296470000011227188206175633548_);}
	.st174{opacity:0.5;fill:url(#SVGID_00000079470403591049530170000003524734392490627515_);}
	.st175{clip-path:url(#SVGID_00000122691219135280973290000000276769374408621478_);}
	.st176{opacity:0.5;fill:url(#SVGID_00000110446410661677272880000014208869792500506002_);}
	.st177{fill:#9DA0A3;}
	.st178{fill:#107C10;}
	.st179{opacity:0.49;}
	.st180{clip-path:url(#SVGID_00000078018381154524499510000018076933478596286360_);}
	.st181{clip-path:url(#SVGID_00000072995060720077869630000009679947625423038625_);}
	.st182{fill:url(#SVGID_00000069358608158268653760000000135448547127824292_);}
	.st183{opacity:0.15;fill:#FFFFFF;}
	.st184{opacity:7.000000e-02;fill:#FFFFFF;}
	.st185{clip-path:url(#SVGID_00000001645998920465145500000002501467456834720653_);}
	.st186{fill:url(#SVGID_00000140705418781306602200000002212125100563969696_);}
	.st187{clip-path:url(#SVGID_00000092429006134292841950000008618241210049530038_);}
	.st188{fill:url(#SVGID_00000111176468199304223740000001525665852802451328_);}
	.st189{opacity:7.000000e-02;fill:url(#SVGID_00000134221093714847550520000007314372534682804920_);}
	.st190{clip-path:url(#SVGID_00000023246388595363816300000015412945665440000656_);}
	.st191{fill:url(#SVGID_00000000926317889482298340000008873479745467291069_);}
	.st192{fill:url(#SVGID_00000164515508944821701340000001262655799613418431_);}
	.st193{fill:url(#SVGID_00000057837439514880674580000004920004195689788558_);}
	.st194{fill:url(#SVGID_00000122722866922629867320000012970355642301654445_);}
	.st195{fill:url(#SVGID_00000084511500700646425410000018320712484470881678_);}
	.st196{fill:url(#SVGID_00000005973489201754534950000016361937817207380628_);}
	.st197{fill:url(#SVGID_00000101814502878768468240000004556285684312153231_);}
	.st198{fill:url(#SVGID_00000110450812542666857060000006600968587896651694_);}
	.st199{clip-path:url(#SVGID_00000165221564088780288550000002029028468404559803_);}
	.st200{clip-path:url(#SVGID_00000033359389139598409470000009738305751546482319_);}
	.st201{fill:url(#SVGID_00000147178484632317302720000004138957778948186535_);}
	.st202{clip-path:url(#SVGID_00000072244423338221732780000005259798814507892924_);}
	.st203{fill:url(#SVGID_00000165943395460085336520000002530248066252990848_);}
	.st204{clip-path:url(#SVGID_00000017491939672469041790000001915170550188903828_);}
	.st205{fill:url(#SVGID_00000055697973795640559730000010158100167775643010_);}
	.st206{opacity:7.000000e-02;fill:url(#SVGID_00000036971418207743053650000016940984245055143595_);}
	.st207{clip-path:url(#SVGID_00000027602392829443704190000001202149199515662238_);}
	.st208{fill:url(#SVGID_00000088097090739624445650000018279727374007963044_);}
	.st209{fill:url(#SVGID_00000054245911430200764640000001306899183298362811_);}
	.st210{fill:url(#SVGID_00000142896027599948911730000000973493469245087421_);}
	.st211{fill:url(#SVGID_00000049199357648690220450000018440991971871676088_);}
	.st212{fill:url(#SVGID_00000150811118801147181730000006999067454905583774_);}
	.st213{fill:url(#SVGID_00000114784014309322987430000012603711664264672441_);}
	.st214{fill:url(#SVGID_00000073679570883925250000000008972797959163209909_);}
	.st215{fill:url(#SVGID_00000040538126994965933050000008293844121882298253_);}
	.st216{clip-path:url(#SVGID_00000029026150696311030530000007292036025988488072_);}
	.st217{clip-path:url(#SVGID_00000065788948063208974960000005351455060344796326_);}
	.st218{fill:url(#SVGID_00000112630033393689207430000012669848990023085499_);}
	.st219{clip-path:url(#SVGID_00000002345720288083070290000006183894083479604137_);}
	.st220{fill:url(#SVGID_00000026158545459881301730000011764772156302000807_);}
	.st221{clip-path:url(#SVGID_00000078736496415392903290000005045244596913134500_);}
	.st222{fill:url(#SVGID_00000144299643156313450320000015329817907331295385_);}
	.st223{opacity:7.000000e-02;fill:url(#SVGID_00000061440666512545240730000013052388745934027144_);}
	.st224{clip-path:url(#SVGID_00000065071280627422512660000003446178943775899578_);}
	.st225{fill:url(#SVGID_00000133520769777846871470000011229856877206757815_);}
	.st226{fill:url(#SVGID_00000083067993648122447030000005700418886940234638_);}
	.st227{fill:url(#SVGID_00000121969135925480210040000012818647407017853865_);}
	.st228{fill:url(#SVGID_00000126296576746353094030000009705574668692100004_);}
	.st229{fill:url(#SVGID_00000011020855464008935420000003804431840243144863_);}
	.st230{fill:url(#SVGID_00000044150879009265572230000013043678912328990083_);}
	.st231{fill:url(#SVGID_00000075843879342301602580000018385224346903061640_);}
	.st232{fill:url(#SVGID_00000001622143232993498560000002565739937859088539_);}
	.st233{clip-path:url(#SVGID_00000142173110663425500070000001965037227717121193_);}
	.st234{clip-path:url(#SVGID_00000085243402515984210030000013133161705383385731_);}
	.st235{fill:url(#SVGID_00000133499328329960032730000001216106085451752846_);}
	.st236{clip-path:url(#SVGID_00000098202847618227867990000003468360645697629089_);}
	.st237{fill:url(#SVGID_00000173142815913817761000000001422564006664603792_);}
	.st238{clip-path:url(#SVGID_00000056389529223490138200000002984149826180120240_);}
	.st239{fill:url(#SVGID_00000039112208714024311130000006147372210463657099_);}
	.st240{opacity:7.000000e-02;fill:url(#SVGID_00000039111014240980551570000004270350121711701148_);}
	.st241{clip-path:url(#SVGID_00000151506302821929540850000006862367099011270298_);}
	.st242{fill:url(#SVGID_00000104700707698479021980000005477482173964106931_);}
	.st243{fill:url(#SVGID_00000057838189485375581810000016864863682942625165_);}
	.st244{fill:url(#SVGID_00000125572421142210207220000009431974986472499344_);}
	.st245{fill:url(#SVGID_00000048490852953098234350000010874403515964104373_);}
	.st246{fill:url(#SVGID_00000089565106104342538740000012065371743325706157_);}
	.st247{fill:url(#SVGID_00000035533103090249817850000005763981352530214274_);}
	.st248{fill:url(#SVGID_00000137834254369387492560000012152748826775379616_);}
	.st249{fill:url(#SVGID_00000115501987777316503650000009626562220427268745_);}
</style>
<g>
	<g>
		<g>
			<circle class="st1" cx="147.9" cy="111.1" r="0"/>
		</g>
	</g>
	<path class="st2" d="M2551.7,640l-152.3-206.8L2247.2,640h-62.7l183.2-249.8l-167.2-227.1h62.7l136.3,185.1l136.2-185.1h62.7
		l-167.2,227L2614.3,640 M1364.6,640l-183.2-249.9l167.2-227h-62.6l-136.3,185.3l-136.2-185.3h-62.6l167.2,227L934.8,640h62.7
		l152.2-206.8L1301.9,640H1364.6z M1754.4,500.7c0,86-65.1,139.3-170.1,139.3l-193.6,0V416.6h-99.1c7.2-10.7,26.2-36.9,34.5-47.8
		h64.6V163.1h193.6c143.8,0,155,99.2,155,129.8c0,41.2-22.6,76.7-57.3,95.4c10.6,4.8,21.3,11.4,31.3,19.9
		C1740.2,431.3,1754.4,463.2,1754.4,500.7 M1444.2,368.8h140c64.5,0,101.5-29.9,101.5-80c0-66.3-63.5-75.9-101.5-75.9h-140V368.8z
		 M1701,499.7c0-68.4-63.4-83.1-116.7-83.1h-140v173.6h140C1627.9,590.3,1701,578.4,1701,499.7 M2233.4,401.3
		c0,146.8-93.4,249.2-227.1,249.2c-134,0-227.6-102.4-227.6-249.2c0-146.7,93.6-249.1,227.6-249.1
		C2140.1,152.2,2233.4,254.6,2233.4,401.3 M2179.3,401.3c0-117.1-71.2-198.7-173-198.7c-102,0-173.6,81.7-173.6,198.7
		c0,117,71.5,198.8,173.6,198.8C2108.1,600.1,2179.3,518.4,2179.3,401.3"/>
	<path class="st2" d="M3660.9,151.9c-113.3,0-178.2,91.1-178.2,250.1c0,158.8,65,249.9,178.2,249.9c64.5,0,112.5-28.1,143-83.4
		c28.9-52.7,35.1-119.7,35.1-166.5C3839,326.8,3821.6,151.9,3660.9,151.9 M3660.9,609.2c-32.3,0-59.1-10.5-79.8-31
		c-45.4-45.6-52.3-129.9-52.3-176.1c0-62.4,12.9-207.3,132.1-207.3c119.1,0,131.9,144.9,131.9,207.3
		C3792.8,464.3,3780,609.2,3660.9,609.2 M3278.2,317.1c-51.7,0-98.9,25.2-128,66.8c6.1-90.5,35.2-189.1,133.5-189.1
		c54.9,0,96.5,35.9,105.9,91.4l1.4,8.7h45.7l-1.2-11.6c-9-81-67.2-131.3-151.7-131.3c-149.6,0-180.9,148.4-180.9,272.8
		c0,148.7,60.6,227.2,175.4,227.2c94.3,0,165.6-71.4,165.6-166C3443.8,388,3374.1,317.1,3278.2,317.1 M3278.2,609.2
		c-67.6,0-120.6-54.2-120.6-123.2c0-71.9,52-126,120.6-126c30.9,0,60.1,12,81.8,33.9c23.9,23.7,37.4,57.3,37.4,92.1
		C3397.4,555,3345.1,609.2,3278.2,609.2 M3066.9,504.5c0,89.1-66.3,146.6-168.8,146.6c-55.6,0-100.8-16.5-130.7-47.9
		c-28.5-29.9-42.5-72.8-40.2-124l0.4-9.8h46.2l-0.3,10.7c-1.6,38.6,8.9,71,30.5,93.4c21.9,22.7,54.6,34.9,94.1,34.9
		c61,0,122.5-35.8,122.5-103.9c0-28.2-8.6-50.6-25.9-66.7c-20.8-19.5-54.4-28.4-96.8-28.8h-32.2c-0.2-11.2-0.2-33.5,0-45.1
		c11.7-0.1,23.9-0.2,32-0.2c22.5,0,66.4-5.7,90.1-28.5c14.6-14,22.2-33.2,22.2-56.9c0-55.4-56.4-84.4-111.9-84.4
		c-55.1,0-96.6,35.9-106,91.5l-1.4,8.6h-45.9l1.3-11.5c9.1-81.1,67.4-131.5,152-131.5c51.6,0,97.3,16,125.1,43.8
		c21.8,21.9,32.9,49.9,32.9,83.4c0,47.4-25.7,87.6-66,106.2C3037.7,403.5,3066.9,448.2,3066.9,504.5"/>
	<g>
		<path class="st2" d="M118,113.7c-0.3,0.2-0.4,0.4-0.4,0.3v0C45,185.7,0,285.3,0,395.4c0,90.1,30.1,173.1,80.8,239.5
			c0.5,0.6,1.4,1,2.1,0.6c0.7-0.4,0.7-1.3,0.4-2.1C53.3,540.3,201.6,311,281.2,216.2c0.3-0.3,0.5-0.7,0.5-1.1c0-0.5-0.3-1-0.7-1.3
			c-134-133.3-163.9-99.3-163.5-99.8"/>
		<path class="st2" d="M672.7,113.7c0.3,0.2,0.4,0.4,0.4,0.3v0c72.6,71.7,117.6,171.2,117.6,281.3c0,90.1-30.1,173.1-80.9,239.5
			c-0.5,0.6-1.4,1-2.1,0.6c-0.7-0.4-0.7-1.3-0.4-2.1C737.4,540.3,589,311,509.5,216.2c-0.3-0.3-0.6-0.7-0.6-1.1c0-0.5,0.3-1,0.7-1.3
			c134-133.3,163.9-99.3,163.5-99.8"/>
		<path class="st2" d="M395.4,0C468,0,536,19.6,594.5,53.7c0.7,0.4,1,1.2,0.6,2c-0.3,0.7-1.1,0.8-1.9,0.7
			c-69.1-15.5-185.9,57.2-197,63.8c-0.2,0.1-0.5,0.3-0.8,0.3c-0.3,0-0.6-0.2-0.8-0.3c-11-6.7-127.8-79.4-196.9-63.8
			c-0.8,0.2-1.6,0-1.9-0.7c-0.4-0.7,0-1.6,0.6-2C254.8,19.6,322.8,0,395.4,0"/>
		<path class="st2" d="M395.4,311.3c0.4,0,1,0.4,1.3,0.6c118.2,89.9,320.7,318.1,258.9,381l0.1-0.1c0,0,0,0.1-0.1,0.1
			c-69.6,60.9-160.6,97.8-260.2,97.8c-99.7,0-190.7-36.9-260.2-97.8c0,0,0,0-0.1-0.1l0.1,0.1c-61.8-62.8,140.7-291,259-381
			C394.4,311.7,394.9,311.3,395.4,311.3"/>
	</g>
</g>
</svg>
