<svg viewBox="0 0 545 87.001" xml:space="preserve" xmlns="http://www.w3.org/2000/svg"><g fill="#fff"><path d="M514.606 71.414h-5.02v-3.06h13.693v3.06h-5.017v13.518h-3.656V71.414m12.403-3.061h5.232l3.872 11.4 3.728-11.4h5.162v16.578h-3.441V73.175h-.072l-4.087 11.756h-2.796l-4.086-11.634h-.072V84.93h-3.441V68.353m-51.044 11.219c-5.592 0-10.324-1.833-13.909-5.407-7.958-7.911-9.105-22.563-9.105-30.589 0-10.836 2.223-35.995 23.014-35.995 20.79 0 23.084 25.16 23.084 35.995 0 10.814-2.293 35.996-23.084 35.996zm0-79.427C456.177.13 444.85 15.975 444.85 43.574c0 27.585 11.327 43.422 31.115 43.422 11.255 0 19.643-4.88 24.949-14.496 5.09-9.173 6.165-20.794 6.165-28.926 0-13.069-3.083-43.429-31.114-43.429m-66.818 79.427c-11.756 0-21.006-9.423-21.006-21.43 0-12.469 9.033-21.885 21.006-21.885 5.449 0 10.54 2.098 14.339 5.907 4.159 4.115 6.523 9.95 6.523 15.979 0 12.006-9.176 21.429-20.862 21.429zm0-50.748c-8.961 0-17.277 4.38-22.296 11.613 1.003-15.743 6.094-32.857 23.229-32.857 9.606 0 16.918 6.228 18.496 15.865l.286 1.505h7.959l-.144-1.997C435.1 8.893 424.92.133 410.08.133c-26.025 0-31.546 25.773-31.546 47.395 0 25.823 10.611 39.47 30.612 39.47 16.49 0 28.893-12.405 28.893-28.856 0-16.984-12.115-29.318-28.892-29.318m-50.252 11.698c7.025-3.217 11.47-10.208 11.47-18.44 0-5.82-1.935-10.686-5.735-14.495-4.803-4.823-12.834-7.59-21.795-7.59-14.768 0-24.948 8.738-26.526 22.828l-.215 1.982h7.958l.286-1.491c1.578-9.659 8.89-15.894 18.497-15.894 9.679 0 19.5 5.037 19.5 14.66 0 4.109-1.29 7.447-3.87 9.887-4.088 3.96-11.758 4.944-15.702 4.944-1.434 0-3.513.035-5.592.042-.072 2.012-.072 5.886 0 7.833 1.29 0 5.592.007 5.592.007 7.456.064 13.263 1.605 16.92 5 3.01 2.79 4.516 6.685 4.516 11.585 0 11.842-10.753 18.04-21.364 18.04-6.954 0-12.618-2.103-16.417-6.048-3.8-3.895-5.664-9.524-5.377-16.23l.071-1.876h-8.03l-.072 1.727c-.43 8.889 2.008 16.336 6.956 21.536 5.232 5.443 13.19 8.325 22.869 8.325 17.85 0 29.393-9.994 29.393-25.474 0-9.794-5.09-17.54-13.333-20.858m-65.6 44.408L261.25 41.523 290.5 2.074h-10.97l-23.8 32.18-23.803-32.18H221.03l29.177 39.456-31.974 43.4h10.968l26.527-35.924 26.597 35.924h10.97m-218.232 0L43.088 41.523 72.267 2.074H61.369l-23.801 32.18-23.802-32.18H2.796L32.048 41.53.001 84.93h10.97l26.597-35.924L64.094 84.93h10.969"/><path d="M113.418 76.276H88.971V46.13h24.447c9.32 0 20.361 2.532 20.361 14.417 0 13.668-12.761 15.73-20.36 15.73zm-24.447-65.55h24.447c6.596 0 17.708 1.655 17.708 13.176 0 8.717-6.452 13.896-17.708 13.896H88.971V10.726zm46.959 33.935a22.327 22.327 0 0 0-5.45-3.46c6.023-3.267 9.966-9.416 9.966-16.586 0-5.285-1.936-22.542-27.028-22.542H79.65v35.74H68.395c-1.505 1.882-4.803 6.434-6.094 8.295h17.35v38.82h33.767c18.353 0 29.753-9.265 29.753-24.189 0-6.52-2.51-12.07-7.241-16.078m51.187 33.329c-17.85 0-30.326-14.19-30.326-34.535 0-20.323 12.475-34.512 30.326-34.512 17.78 0 30.183 14.189 30.183 34.512 0 20.345-12.404 34.534-30.183 34.534zm0-77.814c-23.442 0-39.79 17.792-39.79 43.28 0 25.502 16.347 43.3 39.79 43.3 23.3 0 39.647-17.798 39.647-43.3 0-25.489-16.347-43.28-39.647-43.28"/></g></svg>