<?xml version="1.0" encoding="UTF-8" standalone="no"?>
<svg
   height="191.64284"
   width="925.07709"
   viewBox="-24.35496 -8.3394 162.71822 11.986397"  
   xmlns:xlink="http://www.w3.org/1999/xlink">
  <defs
     id="defs62">
    <linearGradient
       id="i">
      <stop
         offset="0"
         stop-color="#fff"
         id="stop2" />
      <stop
         offset="1"
         stop-color="#fff"
         stop-opacity="0"
         id="stop4" />
    </linearGradient>
    <linearGradient
       y2="16.8997"
       x2="13.2055"
       y1="21.5401"
       x1="17.1609"
       gradientUnits="userSpaceOnUse"
       id="l"
       xlink:href="#a" />
    <linearGradient
       id="a">
      <stop
         offset="0"
         stop-color="#97ca43"
         id="stop8" />
      <stop
         offset="1"
         stop-color="#97ca43"
         stop-opacity="0"
         id="stop10" />
    </linearGradient>
    <linearGradient
       y2="19.231501"
       x2="13.5862"
       y1="18.1717"
       x1="11.6562"
       gradientUnits="userSpaceOnUse"
       id="m"
       xlink:href="#b" />
    <linearGradient
       id="b">
      <stop
         offset="0"
         stop-color="#458f41"
         id="stop14" />
      <stop
         offset="1"
         stop-color="#458f41"
         stop-opacity="0"
         id="stop16" />
    </linearGradient>
    <linearGradient
       y2="17.2003"
       x2="14.9022"
       y1="19.231501"
       x1="19.9028"
       gradientUnits="userSpaceOnUse"
       id="n"
       xlink:href="#c" />
    <linearGradient
       id="c">
      <stop
         offset="0"
         stop-color="#e5edae"
         id="stop20" />
      <stop
         offset="1"
         stop-color="#e5edae"
         stop-opacity="0"
         id="stop22" />
    </linearGradient>
    <linearGradient
       y2="5.0464001"
       x2="23.287399"
       y1="13.0897"
       x1="19.6635"
       gradientUnits="userSpaceOnUse"
       id="o"
       xlink:href="#d"
       gradientTransform="matrix(1.0075,0,0,1.00084,-29.59723,-20.28835)" />
    <linearGradient
       id="d">
      <stop
         offset="0"
         stop-color="#97ca43"
         id="stop26" />
      <stop
         offset="1"
         stop-color="#97ca43"
         stop-opacity="0"
         id="stop28" />
    </linearGradient>
    <linearGradient
       y2="6.2179999"
       x2="17.3214"
       y1="4.0984001"
       x1="17.496799"
       gradientUnits="userSpaceOnUse"
       id="p"
       xlink:href="#e"
       gradientTransform="matrix(1.0075,0,0,1.00084,-29.59723,-20.28835)" />
    <linearGradient
       id="e">
      <stop
         offset="0"
         stop-color="#459743"
         id="stop32" />
      <stop
         offset="1"
         stop-color="#459743"
         stop-opacity="0"
         id="stop34" />
    </linearGradient>
    <linearGradient
       y2="6.3063002"
       x2="18.2864"
       y1="4.7165999"
       x1="19.339199"
       gradientUnits="userSpaceOnUse"
       id="q"
       xlink:href="#e"
       gradientTransform="matrix(1.0075,0,0,1.00084,-29.59723,-20.28835)" />
    <linearGradient
       y2="11.5168"
       x2="21.795601"
       y1="15.6676"
       x1="19.514601"
       gradientUnits="userSpaceOnUse"
       id="r"
       xlink:href="#f"
       gradientTransform="matrix(1.0075,0,0,1.00084,-29.59723,-20.28835)" />
    <linearGradient
       id="f">
      <stop
         offset="0"
         stop-color="#e6edae"
         id="stop39" />
      <stop
         offset="1"
         stop-color="#e6edae"
         stop-opacity="0"
         id="stop41" />
    </linearGradient>
    <linearGradient
       y2="16.8997"
       x2="13.2055"
       y1="21.5401"
       x1="17.1609"
       gradientUnits="userSpaceOnUse"
       id="s"
       xlink:href="#a" />
    <linearGradient
       y2="19.231501"
       x2="13.5862"
       y1="18.1717"
       x1="11.6562"
       gradientUnits="userSpaceOnUse"
       id="t"
       xlink:href="#b" />
    <linearGradient
       y2="17.2003"
       x2="14.9022"
       y1="19.231501"
       x1="19.9028"
       gradientUnits="userSpaceOnUse"
       id="u"
       xlink:href="#c" />
    <linearGradient
       y2="6.9877"
       x2="20.6467"
       y1="12.0309"
       x1="17.5509"
       gradientUnits="userSpaceOnUse"
       id="v"
       xlink:href="#d"
       gradientTransform="matrix(-1.00417,0,0,1.00169,14.95617,-20.29145)" />
    <linearGradient
       y2="6.3481998"
       x2="18.7596"
       y1="5.0688"
       x1="19.5518"
       gradientUnits="userSpaceOnUse"
       id="w"
       xlink:href="#g"
       gradientTransform="matrix(-1.00417,0,0,1.00169,14.95617,-20.29145)" />
    <linearGradient
       id="g">
      <stop
         offset="0"
         stop-color="#46873f"
         id="stop49" />
      <stop
         offset="1"
         stop-color="#46873f"
         stop-opacity="0"
         id="stop51" />
    </linearGradient>
    <linearGradient
       y2="10.9808"
       x2="21.972401"
       y1="15.5693"
       x1="20.123899"
       gradientUnits="userSpaceOnUse"
       id="x"
       xlink:href="#h"
       gradientTransform="matrix(-1.00417,0,0,1.00169,14.95617,-20.29145)" />
    <linearGradient
       id="h">
      <stop
         offset="0"
         stop-color="#e6eead"
         id="stop55" />
      <stop
         offset="1"
         stop-color="#e6eead"
         stop-opacity="0"
         id="stop57" />
    </linearGradient>
    <radialGradient
       r="14.35"
       fy="12.7655"
       fx="23.6898"
       cy="12.7655"
       cx="23.6898"
       gradientTransform="matrix(0,1.84582,-1.57561,0,41.6605,-29.484)"
       gradientUnits="userSpaceOnUse"
       id="j"
       xlink:href="#i" />
    <radialGradient
       r="14.35"
       fy="12.7655"
       fx="23.6898"
       cy="12.7655"
       cx="23.6898"
       gradientTransform="matrix(0,1.15253,-0.98381,0,34.1059,-13.06)"
       gradientUnits="userSpaceOnUse"
       id="k"
       xlink:href="#i" />
  </defs>
  <path
     fill="#92c83e"
     d="m 81.86217,7.8031446 -6.4424,-8.75199724 -6.4404,8.75199724 h -2.6523 l 7.747,-10.5732967 -7.0742,-9.6049979 h 2.6534 l 5.7666,7.8339984 5.7636,-7.8339984 h 2.6495 l -7.0713,9.6039979 7.75,10.5742967 h -2.6494 z m -50.2197,-0.004 -7.753,-10.5701967 7.0723,-9.6039979 h -2.6504 l -5.7666,7.8397984 -5.7607,-7.8398984 h -2.6475 l 7.0723,9.6039979 -7.752,10.5703967 h 2.6534 l 6.4375,-8.74799724 6.4404,8.74799724 h 2.6543 z m 16.4873,-5.8899983 c 0,3.6336989 -2.7539,5.8939983 -7.1943,5.8939983 l -8.1914,-0.004 v -9.451997 h -4.1914 c 0.3037,-0.4551999 1.1084,-1.5649996 1.46,-2.0229994 h 2.7314 V -12.37505 h 8.1914 c 6.083,0 6.5576,4.1991994 6.5576,5.4901991 0,1.7426995 -0.958,3.243599 -2.4248,4.0379988 0.4453,0.2037 0.9023,0.4799999 1.3223,0.8418998 1.1416,0.9759997 1.7392,2.32519914 1.7392,3.9139986 m -13.1201,-5.5849981 h 5.9258 c 2.7285,0 4.292,-1.2649997 4.292,-3.3851991 0,-2.8055992 -2.6875,-3.2099991 -4.292,-3.2099991 h -5.9258 v 6.5952982 z m 10.8603,5.5429981 c 0,-2.8959989 -2.6836,-3.5179987 -4.9345,-3.5179987 h -5.9258 v 7.3461976 h 5.9258 c 1.8447,0 4.9345,-0.5024999 4.9345,-3.8280989 m 22.5264,-4.1659985 c 0,6.212798 -3.9482,10.5438967 -9.6074,10.5438967 -5.667,0 -9.628,-4.3309987 -9.628,-10.5439967 0,-6.2049983 3.961,-10.5399978 9.628,-10.5399978 5.6592,0 9.6074,4.3349995 9.6074,10.5399978 m -2.291,0 c 0,-4.9510986 -3.0098,-8.4081978 -7.3164,-8.4081978 -4.3174,0 -7.3428,3.4569992 -7.3428,8.4081978 0,4.9511983 3.0254,8.4120973 7.3428,8.4120973 4.3066,0 7.3164,-3.460899 7.3164,-8.4119973"
     id="path64" />
  <path
     fill="#9d9fa2"
     d="m 128.78797,-12.84975 c -4.79,0 -7.54,3.8559997 -7.54,10.5781978 0,6.7176977 2.75,10.5779966 7.54,10.5779966 2.7315,0 4.7608,-1.1932996 6.0498,-3.5311989 1.2246,-2.2328994 1.4844,-5.06589842 1.4844,-7.0467977 0,-3.1791991 -0.7364,-10.5781978 -7.5342,-10.5781978 m 0,19.346195 c -1.3672,0 -2.502,-0.4462999 -3.377,-1.3139997 -1.9218,-1.9309994 -2.2109,-5.49599818 -2.2109,-7.4539975 0,-2.6371993 0.5469,-8.7660978 5.588,-8.7660978 5.04,0 5.581,6.1288985 5.581,8.7659978 -1e-4,2.63679904 -0.5411,8.7680972 -5.5811,8.7680972 m -16.1875,-12.3597962 c -2.1875,0 -4.1866,1.0668997 -5.416,2.8256992 0.2578,-3.8310989 1.4882,-7.999998 5.6455,-7.999998 2.3252,0 4.0859,1.5159998 4.4814,3.8661991 l 0.0606,0.3685999 h 1.9307 l -0.0508,-0.4896998 c -0.3819,-3.4262992 -2.8428,-5.5571992 -6.422,-5.5571992 -6.327,0 -7.6523,6.277399 -7.6523,11.5399975 0,6.2910979 2.5664,9.6162969 7.4229,9.6162969 3.9873,0 7.0039,-3.020999 7.0039,-7.025398 0,-4.1434985 -2.9492,-7.1444976 -7.0039,-7.1444976 m 0,12.3597962 c -2.8594,0 -5.1035,-2.2929993 -5.1035,-5.2152986 0,-3.0419988 2.1992,-5.3314981 5.1035,-5.3314981 1.3057,0 2.541,0.5096998 3.462,1.4344996 1.0107,1.0043997 1.581,2.42439918 1.581,3.8969985 0,2.9223993 -2.215,5.2152986 -5.043,5.2152986 m -8.9414,-4.4300987 c 0,3.7689988 -2.8047,6.2029982 -7.1407,6.2029982 -2.3515,0 -4.2627,-0.7000998 -5.5263,-2.0247995 -1.209,-1.2679995 -1.7969,-3.081999 -1.7002,-5.24999844 l 0.0147,-0.41299986 h 1.956 l -0.0137,0.4519999 c -0.0684,1.6328994 0.377,3.0019991 1.291,3.9536988 0.9258,0.9599998 2.3057,1.4749996 3.9786,1.4749996 2.581,0 5.1816,-1.5125995 5.1816,-4.3959987 0,-1.19079964 -0.3642,-2.13859932 -1.0947,-2.81979904 -0.8809,-0.82709966 -2.3008,-1.20209956 -4.0947,-1.22109956 h -1.3604 c -0.0117,-0.4726999 -0.0117,-1.4179996 0,-1.9077995 0.4961,-0.0024 1.0098,-0.0102 1.3525,-0.0102 0.9541,0 2.8096,-0.2397999 3.8135,-1.2049996 0.6133,-0.5937999 0.9365,-1.4058996 0.9365,-2.4077994 0,-2.3441993 -2.3828,-3.5692992 -4.7343,-3.5692992 -2.3291,0 -4.087,1.5179998 -4.4834,3.8699992 l -0.0596,0.3652999 h -1.9424 l 0.0566,-0.4872999 c 0.3857,-3.4247992 2.8525,-5.5589992 6.4287,-5.5589992 2.1855,0 4.1162,0.6772 5.295,1.854 0.9189,0.9242 1.3915,2.1082996 1.3915,3.5262992 0,2.0087995 -1.085,3.708999 -2.791,4.4935988 2.0071,0.8051997 3.2454,2.69529912 3.2454,5.0781983 m 34.5281,3.528299 c 0,0.3832999 -0.1308,0.7049998 -0.3925,0.9662996 -0.2579,0.2607 -0.5801,0.3919999 -0.961,0.3919999 -0.3867,0 -0.707,-0.1263999 -0.961,-0.3812999 -0.2558,-0.2548998 -0.3827,-0.5779997 -0.3827,-0.9647996 0,-0.3832999 0.1308,-0.7059998 0.3906,-0.9662998 0.2558,-0.2636999 0.5781,-0.3935998 0.9629,-0.3935998 0.377,0 0.6933,0.1249999 0.9492,0.3749999 0.2617,0.2568999 0.3945,0.5819997 0.3945,0.9726997 m -0.1621,0.0083 c 0,-0.3451999 -0.1133,-0.6313998 -0.3457,-0.8632998 -0.2285,-0.229 -0.5098,-0.3417999 -0.8399,-0.3417999 -0.3437,0 -0.6269,0.1137999 -0.8515,0.3456999 -0.2266,0.2334 -0.3379,0.5169999 -0.3379,0.8593998 0,0.3456999 0.1152,0.6356997 0.3496,0.8666997 0.2285,0.229 0.5078,0.3451999 0.8398,0.3451999 0.3282,0 0.6075,-0.1161999 0.838,-0.3471999 0.2343,-0.2329 0.3476,-0.5209998 0.3476,-0.8646997 m -0.5352,0.8509997 h -0.289 l -0.1875,-0.4169999 c -0.0937,-0.2103999 -0.1953,-0.3143999 -0.3067,-0.3143999 h -0.1582 V 6.454045 h -0.2382 V 4.7136455 h 0.4824 c 0.2129,0 0.375,0.0489 0.4843,0.1449999 0.0937,0.085 0.1407,0.1939 0.1407,0.3300999 0,0.1187001 -0.0391,0.2188 -0.1133,0.3036999 -0.0742,0.0855 -0.1836,0.1421001 -0.3203,0.1704001 v 0.0068 c 0.0937,0.022 0.1894,0.1289999 0.2832,0.3207999 l 0.2227,0.4633998 z m -0.328,-1.2371997 c 0,-0.1010999 -0.0274,-0.1709999 -0.084,-0.2167999 -0.0607,-0.0513 -0.166,-0.0762 -0.3165,-0.0762 h -0.2129 v 0.5941998 h 0.2598 c 0.2324,0 0.3535,-0.1009999 0.3535,-0.3011999"
     id="path66" />
  <g
     transform="matrix(1.1756,0,0,1.13013,-34.73983,-22.00435)"
     id="g74">
    <ellipse
       ry="14.7583"
       rx="14.35"
       cy="17.391701"
       cx="23.3333"
       fill="#666666"
       id="ellipse68" />
    <ellipse
       ry="14.7583"
       rx="14.35"
       cy="17.391701"
       cx="23.3333"
       fill="url(#j)"
       id="ellipse70"
       style="fill:url(#j)" />
    <ellipse
       ry="14.7583"
       rx="14.35"
       cy="17.391701"
       cx="23.3333"
       fill="url(#k)"
       id="ellipse72"
       style="fill:url(#k)" />
  </g>
  <path
     d="m -11.57483,-9.6544501 c -1.8616,2.2579993 -9.6646,11.4346965 -8.973,17.6397946 0.4818,0.6105999 1.0122,1.1812998 1.5742,1.7201995 -0.082,-4.7496985 5.4923,-9.83279702 9.8426003,-13.6699958 z"
     fill="#00a54d"
     id="path76" />
  <g
     fill="#97ca43"
     id="g84"
     transform="translate(-24.17903,-19.02835)">
    <path
       d="m 17.75,10.6563 c -1.8477,2.256 -9.5927,11.425 -8.9063,17.625 0.4784,0.61 1.0048,1.1803 1.5625,1.7187 -0.0812,-4.7457 5.4516,-9.8246 9.7694,-13.6584 z"
       transform="matrix(1.0075,0,0,1.00084,-5.279,-1.2914)"
       fill="url(#l)"
       id="path78"
       style="fill:url(#l)" />
    <path
       transform="matrix(1.0075,0,0,1.00084,-5.279,-1.2914)"
       d="m 17.75,10.6563 c -1.8477,2.256 -9.5927,11.425 -8.9063,17.625 0.4784,0.61 1.0048,1.1803 1.5625,1.7187 -0.0812,-4.7457 5.4516,-9.8246 9.7694,-13.6584 z"
       fill="url(#m)"
       id="path80"
       style="fill:url(#m)" />
    <path
       d="m 17.75,10.6563 c -1.8477,2.256 -9.5927,11.425 -8.9063,17.625 0.4784,0.61 1.0048,1.1803 1.5625,1.7187 -0.0812,-4.7457 5.4516,-9.8246 9.7694,-13.6584 z"
       transform="matrix(1.0075,0,0,1.00084,-5.279,-1.2914)"
       fill="url(#n)"
       id="path82"
       style="fill:url(#n)" />
  </g>
  <path
     d="m -16.15333,-16.53515 c -0.973,0.5854 -1.877,1.2734 -2.7077,2.033 2.6762,0.5084 5.3608,2.8648 6.8321,4.8164999 1.282,2.0030994 1.9781,3.8399989 2.8830003,5.7359983 0.6127,-0.5186998 1.2357,-1.0471997 1.9105,-1.5879995 l -0.004,-8.2334987 c -1.9938,-1.2388 -5.2890003,-2.8693 -8.8825003,-2.764 -0.0076,0.0046 -0.0237,-0.0046 -0.0314,0 z"
     fill="#02a74d"
     id="path86" />
  <path
     d="m -16.153351,-16.5352 c -0.972943,0.585492 -1.876973,1.273369 -2.707656,2.033007 2.676121,0.508426 5.360706,2.864804 6.832059,4.8165419 1.281943,2.0030804 1.978125,3.8399219 2.8829608,5.7360123 0.6127615,-0.5188348 1.2356988,-1.0472787 1.9105223,-1.5880325 l -0.00393,-8.2335087 c -1.9938425,-1.23884 -5.2891741,-2.869408 -8.8825231,-2.76402 -0.0077,0.0046 -0.02378,-0.0046 -0.03154,0 z"
     fill="url(#o)"
     id="path88"
     style="fill:url(#o);stroke-width:1.00416" />
  <path
     d="m -16.153351,-16.5352 c -0.972943,0.585492 -1.876973,1.273369 -2.707656,2.033007 2.676121,0.508426 5.360706,2.864804 6.832059,4.8165419 1.281943,2.0030804 1.978125,3.8399219 2.8829608,5.7360123 0.6127615,-0.5188348 1.2356988,-1.0472787 1.9105223,-1.5880325 l -0.00393,-8.2335087 c -1.9938425,-1.23884 -5.2891741,-2.869408 -8.8825231,-2.76402 -0.0077,0.0046 -0.02378,-0.0046 -0.03154,0 z"
     fill="url(#p)"
     id="path90"
     style="fill:url(#p);stroke-width:1.00416" />
  <path
     d="m -16.153351,-16.5352 c -0.972943,0.585492 -1.876973,1.273369 -2.707656,2.033007 2.676121,0.508426 5.360706,2.864804 6.832059,4.8165419 1.281943,2.0030804 1.978125,3.8399219 2.8829608,5.7360123 0.6127615,-0.5188348 1.2356988,-1.0472787 1.9105223,-1.5880325 l -0.00393,-8.2335087 c -1.9938425,-1.23884 -5.2891741,-2.869408 -8.8825231,-2.76402 -0.0077,0.0046 -0.02378,-0.0046 -0.03154,0 z"
     fill="url(#q)"
     id="path92"
     style="fill:url(#q);stroke-width:1.00416" />
  <path
     d="m -16.153351,-16.5352 c -0.972943,0.585492 -1.876973,1.273369 -2.707656,2.033007 2.676121,0.508426 5.360706,2.864804 6.832059,4.8165419 1.281943,2.0030804 1.978125,3.8399219 2.8829608,5.7360123 0.6127615,-0.5188348 1.2356988,-1.0472787 1.9105223,-1.5880325 l -0.00393,-8.2335087 c -1.9938425,-1.23884 -5.2891741,-2.869408 -8.8825231,-2.76402 -0.0077,0.0046 -0.02378,-0.0046 -0.03154,0 z"
     fill="url(#r)"
     id="path94"
     style="fill:url(#r);stroke-width:1.00416" />
  <path
     d="m -3.0271297,-9.6544501 c 1.8615,2.2579993 9.6646,11.4346965 8.973,17.6397946 -0.4819,0.6105999 -1.0122,1.1812998 -1.5742,1.7201995 0.082,-4.7496985 -5.4924,-9.83279702 -9.8426,-13.6699958 z"
     fill="#00a54d"
     id="path96" />
  <g
     fill="#97ca43"
     id="g104"
     transform="translate(-24.17903,-19.02835)">
    <path
       transform="matrix(-1.0075,0,0,1.00084,39.035,-1.2914)"
       d="m 17.75,10.6563 c -1.8477,2.256 -9.5927,11.425 -8.9063,17.625 0.4784,0.61 1.0048,1.1803 1.5625,1.7187 -0.0812,-4.7457 5.4516,-9.8246 9.7694,-13.6584 z"
       fill="url(#s)"
       id="path98"
       style="fill:url(#s)" />
    <path
       d="m 17.75,10.6563 c -1.8477,2.256 -9.5927,11.425 -8.9063,17.625 0.4784,0.61 1.0048,1.1803 1.5625,1.7187 -0.0812,-4.7457 5.4516,-9.8246 9.7694,-13.6584 z"
       transform="matrix(-1.0075,0,0,1.00084,39.035,-1.2914)"
       fill="url(#t)"
       id="path100"
       style="fill:url(#t)" />
    <path
       transform="matrix(-1.0075,0,0,1.00084,39.035,-1.2914)"
       d="m 17.75,10.6563 c -1.8477,2.256 -9.5927,11.425 -8.9063,17.625 0.4784,0.61 1.0048,1.1803 1.5625,1.7187 -0.0812,-4.7457 5.4516,-9.8246 9.7694,-13.6584 z"
       fill="url(#u)"
       id="path102"
       style="fill:url(#u)" />
  </g>
  <path
     d="m 1.5567703,-16.53515 c 0.9697,0.5859 1.8707,1.2744 2.6987,2.0347 -2.6673,0.5088 -5.343,2.8672 -6.8095,4.8205999 -1.2777,2.0047994 -1.9715,3.8431989 -2.8734,5.7408983 -0.6107,-0.5191998 -1.2316,-1.0480997 -1.9042,-1.5893995 l 0.004,-8.2403987 c 1.9872,-1.24 5.2716,-2.8718 8.853,-2.7664 0.0077,0.0046 0.0238,-0.0046 0.0314,0 z"
     fill="#02a74d"
     id="path106" />
  <path
     d="m 1.5567267,-16.535112 c 0.969727,0.585988 1.8707687,1.27445 2.6987069,2.034733 -2.6672764,0.508858 -5.3429878,2.867237 -6.8094776,4.8206329 -1.277706,2.0047814 -1.9715874,3.8431829 -2.8734325,5.7408833 -0.6107362,-0.5192758 -1.2316145,-1.0481677 -1.9042076,-1.5893805 l 0.00392,-8.2405017 c 1.9872524,-1.239892 5.2716917,-2.871845 8.8531644,-2.766367 0.00763,0.0046 0.023698,-0.0046 0.03143,0 z"
     fill="url(#v)"
     id="path108"
     style="fill:url(#v);stroke-width:1.00293" />
  <path
     d="m 1.5567267,-16.535112 c 0.969727,0.585988 1.8707687,1.27445 2.6987069,2.034733 -2.6672764,0.508858 -5.3429878,2.867237 -6.8094776,4.8206329 -1.277706,2.0047814 -1.9715874,3.8431829 -2.8734325,5.7408833 -0.6107362,-0.5192758 -1.2316145,-1.0481677 -1.9042076,-1.5893805 l 0.00392,-8.2405017 c 1.9872524,-1.239892 5.2716917,-2.871845 8.8531644,-2.766367 0.00763,0.0046 0.023698,-0.0046 0.03143,0 z"
     fill="url(#w)"
     id="path110"
     style="fill:url(#w);stroke-width:1.00293" />
  <path
     d="m 1.5567267,-16.535112 c 0.969727,0.585988 1.8707687,1.27445 2.6987069,2.034733 -2.6672764,0.508858 -5.3429878,2.867237 -6.8094776,4.8206329 -1.277706,2.0047814 -1.9715874,3.8431829 -2.8734325,5.7408833 -0.6107362,-0.5192758 -1.2316145,-1.0481677 -1.9042076,-1.5893805 l 0.00392,-8.2405017 c 1.9872524,-1.239892 5.2716917,-2.871845 8.8531644,-2.766367 0.00763,0.0046 0.023698,-0.0046 0.03143,0 z"
     fill="url(#x)"
     id="path112"
     style="fill:url(#x);stroke-width:1.00293" />
</svg>
