<?xml version="1.0" encoding="utf-8"?>
<!-- Generator: Adobe Illustrator 25.4.1, SVG Export Plug-In . SVG Version: 6.00 Build 0)  -->
<svg version="1.1" id="Layer_1" xmlns="http://www.w3.org/2000/svg" xmlns:xlink="http://www.w3.org/1999/xlink" x="0px" y="0px"
	 viewBox="0 0 3839 790.7" style="enable-background:new 0 0 3839 790.7;" xml:space="preserve">
<style type="text/css">
	.st0{fill:#FFFFFF;}
	.st1{fill:#666666;}
	.st2{fill:#91C93D;}
	.st3{fill:#999999;}
	.st4{clip-path:url(#SVGID_00000093160557304932683970000013489098912175341239_);}
	.st5{clip-path:url(#SVGID_00000018928797420276471080000001553539029341527457_);}
	.st6{clip-path:url(#SVGID_00000028302769083501993950000011702241903002909077_);}
	.st7{clip-path:url(#SVGID_00000025416116497921146300000005084252413137618873_);}
	.st8{fill:url(#SVGID_00000018951153810435326160000017327978439436120998_);}
	.st9{fill:url(#SVGID_00000003067994241222702180000006244685795380208280_);}
	.st10{fill:url(#SVGID_00000078736310570244367790000010487378715495973027_);}
	.st11{fill:url(#SVGID_00000037674024982561021710000011741744609196614017_);}
	.st12{opacity:0.8;fill:url(#SVGID_00000178204776715446394370000012129281151740201355_);}
	.st13{opacity:0.55;fill:url(#SVGID_00000176006693093663620470000010453723218736364166_);}
	.st14{fill:url(#SVGID_00000126325804335095007770000010685100420200070286_);}
	.st15{fill:url(#SVGID_00000034777625751820346020000011360131969301420977_);}
	.st16{clip-path:url(#SVGID_00000072992530477715132850000017481482255581561238_);}
	.st17{fill:url(#SVGID_00000101087303683753872860000015103101657296685738_);}
	.st18{fill:url(#SVGID_00000039130134906511930830000012987812698491655319_);}
	.st19{fill:url(#SVGID_00000180335484486640859550000012087360208238432898_);}
	.st20{opacity:0.8;fill:url(#SVGID_00000150093006427085645920000008452760481052354731_);}
	.st21{opacity:0.55;fill:url(#SVGID_00000015337709560125892150000017159226971170204607_);}
	.st22{fill:url(#SVGID_00000062158280640232552640000013125409437859134086_);}
	.st23{fill:url(#SVGID_00000052812746461264551680000005070633145869977259_);}
	.st24{clip-path:url(#SVGID_00000067917355038750021590000011378580509854782641_);}
	.st25{fill:#BFBDBE;}
	.st26{fill:url(#SVGID_00000148630113844232222170000006977360891773178780_);}
	.st27{fill:url(#SVGID_00000062159323397313880520000001978824278849488518_);}
	.st28{opacity:0.8;fill:url(#SVGID_00000054242111540851943080000010625021575653293702_);}
	.st29{opacity:0.55;fill:url(#SVGID_00000079479480264141267610000002233762602460553388_);}
	.st30{fill:url(#SVGID_00000076564552378662866040000014046802427427718816_);}
	.st31{fill:url(#SVGID_00000003078091474097305540000011955220856739314572_);}
	.st32{clip-path:url(#SVGID_00000116923385170874792000000014857905415308271779_);}
	.st33{clip-path:url(#SVGID_00000000912974772429688430000009404851823597041070_);}
	.st34{fill:url(#SVGID_00000041259272501477913470000010904599674869068443_);}
	.st35{fill:url(#SVGID_00000160157858270954791260000012097136522654051482_);}
	.st36{fill:url(#SVGID_00000022547943982293173820000011634324996096551559_);}
	.st37{opacity:0.8;fill:url(#SVGID_00000052799689256221609300000008835121116605232296_);}
	.st38{opacity:0.55;fill:url(#SVGID_00000061447018258282357160000018195465489203362187_);}
	.st39{fill:url(#SVGID_00000008119992191372472230000009636098902970019489_);}
	.st40{fill:url(#SVGID_00000038388183860828453690000002352909666318677908_);}
	.st41{clip-path:url(#SVGID_00000180361283735691990720000015105408484127576509_);}
	.st42{clip-path:url(#SVGID_00000166667218430691237900000013635777677832125348_);}
	.st43{opacity:0.5;fill:url(#SVGID_00000018930204271024264590000013725801746367561364_);}
	.st44{opacity:0.5;fill:url(#SVGID_00000158718207240245132560000006612694589513451931_);}
	.st45{opacity:0.5;fill:url(#SVGID_00000086691646459624400520000003598714991263390896_);}
	.st46{clip-path:url(#SVGID_00000000201286319024922120000011418695002460061103_);}
	.st47{opacity:0.5;fill:url(#SVGID_00000146469578129041217260000014220200806855881091_);}
	.st48{clip-path:url(#SVGID_00000032638429573958467100000006846489377490001585_);}
	.st49{clip-path:url(#SVGID_00000094616746561599124620000017728045980619554991_);}
	.st50{clip-path:url(#SVGID_00000131343605857531059980000007464358213470944675_);}
	.st51{clip-path:url(#SVGID_00000118390516351237843370000008579608158591603854_);}
	.st52{fill:url(#SVGID_00000064333932267200459490000010515662969168139930_);}
	.st53{fill:url(#SVGID_00000157997545377813593350000015801612269928732091_);}
	.st54{fill:url(#SVGID_00000176034786117143012750000012646557303021074568_);}
	.st55{fill:url(#SVGID_00000070827223923329998600000009276228570883433394_);}
	.st56{opacity:0.8;fill:url(#SVGID_00000181082718915347541530000018338910245064695957_);}
	.st57{opacity:0.55;fill:url(#SVGID_00000096032292015043787250000014029690126475302274_);}
	.st58{fill:url(#SVGID_00000011029238386836028090000017298496776711462789_);}
	.st59{fill:url(#SVGID_00000060031068817602925640000006141289648562988928_);}
	.st60{clip-path:url(#SVGID_00000019667680142340195140000004972783750321852550_);}
	.st61{fill:url(#SVGID_00000087396921190715264200000011472517664435257516_);}
	.st62{fill:url(#SVGID_00000087397524123498553120000001226159725099962274_);}
	.st63{fill:url(#SVGID_00000036940957437568291430000017992324191725800620_);}
	.st64{opacity:0.8;fill:url(#SVGID_00000132066348537279126200000010053333052592243611_);}
	.st65{opacity:0.55;fill:url(#SVGID_00000003071636972214815030000016400212297575817650_);}
	.st66{fill:url(#SVGID_00000129928220902595230950000001966333515420933045_);}
	.st67{fill:url(#SVGID_00000056388974927850813620000012059799695839904172_);}
	.st68{clip-path:url(#SVGID_00000157273934659102585820000005707366620528454280_);}
	.st69{fill:url(#SVGID_00000018204332658659396350000002727281273543108757_);}
	.st70{fill:url(#SVGID_00000121264917719176967620000008587991083509116340_);}
	.st71{opacity:0.8;fill:url(#SVGID_00000109727915806915784580000014081128802209562278_);}
	.st72{opacity:0.55;fill:url(#SVGID_00000030471235726029458460000016269317696155298721_);}
	.st73{fill:url(#SVGID_00000116206407946088370470000014761650409661945023_);}
	.st74{fill:url(#SVGID_00000179630934123429377300000011802799182209527450_);}
	.st75{clip-path:url(#SVGID_00000042008305406781098790000015016265714797427369_);}
	.st76{clip-path:url(#SVGID_00000075124607130335409730000015896092013747793032_);}
	.st77{clip-path:url(#SVGID_00000123438590805331219910000016708894067862584981_);}
	.st78{clip-path:url(#SVGID_00000080182764422482010620000003259413079713129645_);}
	.st79{clip-path:url(#SVGID_00000068642660722276234320000011703847290487347875_);}
	.st80{fill:url(#SVGID_00000016036903448544169640000004260191842764404642_);}
	.st81{fill:url(#SVGID_00000055665058332791855970000009063672903847847823_);}
	.st82{fill:url(#SVGID_00000145048462168369866760000004856049576585181342_);}
	.st83{fill:url(#SVGID_00000166665456636554797120000003719253237760909208_);}
	.st84{opacity:0.8;fill:url(#SVGID_00000044142658678577723180000017821201143302667166_);}
	.st85{opacity:0.55;fill:url(#SVGID_00000138548616557407316490000011536420984570240668_);}
	.st86{fill:url(#SVGID_00000106132620898265527400000007181753349909597824_);}
	.st87{fill:url(#SVGID_00000177455225476162799670000015925058996745953954_);}
	.st88{clip-path:url(#SVGID_00000159435904633670731520000003287788575671117238_);}
	.st89{fill:url(#SVGID_00000091701484734106173940000001381955843434305195_);}
	.st90{fill:url(#SVGID_00000125604973141969740410000004996717196199877539_);}
	.st91{fill:url(#SVGID_00000052783601674274462260000006698155069473113479_);}
	.st92{opacity:0.8;fill:url(#SVGID_00000128444708613487755370000014526043110696080570_);}
	.st93{opacity:0.55;fill:url(#SVGID_00000021834501911387681430000008813991169699456928_);}
	.st94{fill:url(#SVGID_00000170978475943736726230000004124250644535428228_);}
	.st95{fill:url(#SVGID_00000067220749764449126200000007539031615040549295_);}
	.st96{clip-path:url(#SVGID_00000150092941964807607060000000935026630603729056_);}
	.st97{fill:url(#SVGID_00000119829413823655055180000014608536191290204853_);}
	.st98{fill:url(#SVGID_00000113345811744552748910000007459773135035694251_);}
	.st99{opacity:0.8;fill:url(#SVGID_00000066485148723310363360000010033167340731694728_);}
	.st100{opacity:0.55;fill:url(#SVGID_00000081649153301642984110000007780756991165048742_);}
	.st101{fill:url(#SVGID_00000021095738611663626500000006984313975282001840_);}
	.st102{fill:url(#SVGID_00000116213681476177898340000007726102703891259779_);}
	.st103{clip-path:url(#SVGID_00000005266481020865734490000001383233651115619255_);}
	.st104{clip-path:url(#SVGID_00000181774866227706598330000007500405507735488681_);}
	.st105{fill:url(#SVGID_00000155127326323859393410000015168445671385280691_);}
	.st106{fill:url(#SVGID_00000078723395631798372970000009343930334311913391_);}
	.st107{fill:url(#SVGID_00000144318004009622644000000018294037433224873609_);}
	.st108{opacity:0.8;fill:url(#SVGID_00000118398921688565264890000014046172192157465517_);}
	.st109{opacity:0.55;fill:url(#SVGID_00000097486830890722145620000005506532414055623850_);}
	.st110{fill:url(#SVGID_00000015341851963727975130000002606599622613950652_);}
	.st111{fill:url(#SVGID_00000050635763907288761690000006745282847901280650_);}
	.st112{clip-path:url(#SVGID_00000145767296877345404130000016022368913616749726_);}
	.st113{clip-path:url(#SVGID_00000117643309957424208040000014074697956195495348_);}
	.st114{opacity:0.5;fill:url(#SVGID_00000085934476298696497160000007988023338502556092_);}
	.st115{opacity:0.5;fill:url(#SVGID_00000029760294736706062610000000377602320926986673_);}
	.st116{opacity:0.5;fill:url(#SVGID_00000114778614674908764920000012419647512470192022_);}
	.st117{clip-path:url(#SVGID_00000164487673028084002990000003345337933814219928_);}
	.st118{opacity:0.5;fill:url(#SVGID_00000168082068136735770350000008047618118841916032_);}
	.st119{clip-path:url(#SVGID_00000065067503878771721480000001791843195765402811_);}
	.st120{clip-path:url(#SVGID_00000178193305578767630150000017680317388506605759_);}
	.st121{clip-path:url(#SVGID_00000109027646424667538240000016263858068494439563_);}
	.st122{clip-path:url(#SVGID_00000028315700943654894980000013162944452297381302_);}
	.st123{fill:url(#SVGID_00000152954124309553772390000004451578179251315073_);}
	.st124{fill:url(#SVGID_00000123404126394996736850000011721032033493968028_);}
	.st125{fill:url(#SVGID_00000008119080373437093560000016996321806053664155_);}
	.st126{fill:url(#SVGID_00000100340286528782877150000017067475431996724625_);}
	.st127{opacity:0.8;fill:url(#SVGID_00000147198111982025574470000017465886436336271530_);}
	.st128{opacity:0.55;fill:url(#SVGID_00000138544188115610057530000013436970065225180588_);}
	.st129{fill:url(#SVGID_00000183235911166529288390000000711696821114308776_);}
	.st130{fill:url(#SVGID_00000048459170427864030320000002744251163696542108_);}
	.st131{clip-path:url(#SVGID_00000142146349267240122320000017865785643760182925_);}
	.st132{fill:url(#SVGID_00000027571898224314088750000011215750465683566500_);}
	.st133{fill:url(#SVGID_00000106831136770675553660000018425063939907303080_);}
	.st134{fill:url(#SVGID_00000031900447215216114810000009910556580633695385_);}
	.st135{opacity:0.8;fill:url(#SVGID_00000011741806320019603640000014439017580945363103_);}
	.st136{opacity:0.55;fill:url(#SVGID_00000079484719828985339650000001605851923159409083_);}
	.st137{fill:url(#SVGID_00000143603475260007104550000002376015184191873674_);}
	.st138{fill:url(#SVGID_00000029738124406160897480000013481437877960712340_);}
	.st139{clip-path:url(#SVGID_00000129193751118891003050000011293457600380605596_);}
	.st140{fill:url(#SVGID_00000170255234434756578660000003526898163772904357_);}
	.st141{fill:url(#SVGID_00000114060465660677594060000012822331911145341342_);}
	.st142{opacity:0.8;fill:url(#SVGID_00000039093475149008574820000017907860657197775007_);}
	.st143{opacity:0.55;fill:url(#SVGID_00000099646121983228428300000011198778884351719326_);}
	.st144{fill:url(#SVGID_00000111172133140283312900000013766736491956031365_);}
	.st145{fill:url(#SVGID_00000053522783815765593800000000671139571607061376_);}
	.st146{clip-path:url(#SVGID_00000093163631266647492770000008764855285531266192_);}
	.st147{clip-path:url(#SVGID_00000055682168519597115420000001564146497650519712_);}
	.st148{fill:url(#SVGID_00000167371764823823977900000017005748764648402585_);}
	.st149{fill:url(#SVGID_00000129176122628845939280000001525354687082905224_);}
	.st150{fill:url(#SVGID_00000084532101018142445140000014306308883677827768_);}
	.st151{opacity:0.8;fill:url(#SVGID_00000178908697544785324890000015546840092695331480_);}
	.st152{opacity:0.55;fill:url(#SVGID_00000030458591913226709030000013635008993253522048_);}
	.st153{fill:url(#SVGID_00000129193598946369636300000016933962243725441432_);}
	.st154{fill:url(#SVGID_00000135654845917099424480000004879041743147486140_);}
	.st155{clip-path:url(#SVGID_00000072275000046778683320000008333190752486153663_);}
	.st156{clip-path:url(#SVGID_00000040561158594874307760000015447049047716904851_);}
	.st157{opacity:0.5;fill:url(#SVGID_00000150077416733046328840000001393954550606635964_);}
	.st158{opacity:0.5;fill:url(#SVGID_00000151524556708143032430000013853091871492433047_);}
	.st159{opacity:0.5;fill:url(#SVGID_00000139290210208563123920000008714238847628368311_);}
	.st160{clip-path:url(#SVGID_00000090277537475982739960000004741457282009547140_);}
	.st161{opacity:0.5;fill:url(#SVGID_00000126302537793510791430000013228069070697876662_);}
	.st162{clip-path:url(#SVGID_00000109004779803323819820000008055850683512825006_);}
	.st163{fill:url(#SVGID_00000111887896224016400280000000703552693251033767_);}
	.st164{fill:url(#SVGID_00000062891247527291183000000010250824472942319235_);}
	.st165{fill:url(#SVGID_00000055708967784469761350000005230716976964971702_);}
	.st166{opacity:0.8;fill:url(#SVGID_00000044871277438906784660000007757149458922762403_);}
	.st167{opacity:0.55;fill:url(#SVGID_00000080188398628824116970000017289426304312917927_);}
	.st168{fill:url(#SVGID_00000104667640932962071470000003452650968075561127_);}
	.st169{fill:url(#SVGID_00000026882370886470803810000011732932886619634821_);}
	.st170{clip-path:url(#SVGID_00000005234606725486075340000017019094802727039382_);}
	.st171{clip-path:url(#SVGID_00000114053983414666987440000003571099840478936707_);}
	.st172{opacity:0.5;fill:url(#SVGID_00000099626749701323765630000009486033227588346514_);}
	.st173{opacity:0.5;fill:url(#SVGID_00000110435316753177302800000015029359222247286446_);}
	.st174{opacity:0.5;fill:url(#SVGID_00000000903072397631112450000000303999895747165356_);}
	.st175{clip-path:url(#SVGID_00000002353815547536082080000016551887311386557574_);}
	.st176{opacity:0.5;fill:url(#SVGID_00000075135423332784186180000016039456329805790390_);}
	.st177{fill:#9DA0A3;}
	.st178{fill:#107C10;}
	.st179{opacity:0.49;}
	.st180{clip-path:url(#SVGID_00000102541387717553619030000017023329873979622534_);}
	.st181{clip-path:url(#SVGID_00000158030928902986290050000005615830085619782577_);}
	.st182{fill:url(#SVGID_00000000932252705805886330000004937027032362693550_);}
	.st183{opacity:0.15;fill:#FFFFFF;}
	.st184{opacity:7.000000e-02;fill:#FFFFFF;}
	.st185{clip-path:url(#SVGID_00000129173706481404861460000001140597740192876933_);}
	.st186{fill:url(#SVGID_00000148648166982066534390000000366846164524148643_);}
	.st187{clip-path:url(#SVGID_00000043432206060352664930000013488209512204489344_);}
	.st188{fill:url(#SVGID_00000029019701864789766320000017875496587451271082_);}
	.st189{opacity:7.000000e-02;fill:url(#SVGID_00000154415675213962518480000009764884057554433453_);}
	.st190{clip-path:url(#SVGID_00000063598579130808289230000004853137779610265226_);}
	.st191{fill:url(#SVGID_00000072272888433680319580000015942211560744838554_);}
	.st192{fill:url(#SVGID_00000173857063780759743720000013476962080215148427_);}
	.st193{fill:url(#SVGID_00000049923705392179840590000013656313126637584570_);}
	.st194{fill:url(#SVGID_00000047044933131246226290000013633025836343721127_);}
	.st195{fill:url(#SVGID_00000031199176144042188980000001162349149426414014_);}
	.st196{fill:url(#SVGID_00000146487017094126165200000013915328449593432470_);}
	.st197{fill:url(#SVGID_00000024704587540932166050000001665735231762180759_);}
	.st198{fill:url(#SVGID_00000145020162120419598380000018005404531266296491_);}
	.st199{clip-path:url(#SVGID_00000116924421307741967390000003397110264717366698_);}
	.st200{clip-path:url(#SVGID_00000075143015885247753650000011258772365157250733_);}
	.st201{fill:url(#SVGID_00000072991010121444062850000000137207043637640078_);}
	.st202{clip-path:url(#SVGID_00000067209023335813250880000016245638741847799428_);}
	.st203{fill:url(#SVGID_00000139258637653296662540000005978318474051287741_);}
	.st204{clip-path:url(#SVGID_00000124864466076580534130000018061149727330002321_);}
	.st205{fill:url(#SVGID_00000140694008310114134780000002394411685034561451_);}
	.st206{opacity:7.000000e-02;fill:url(#SVGID_00000105398718663159682480000002761692519977377173_);}
	.st207{clip-path:url(#SVGID_00000093898356097259875030000018320184928303989645_);}
	.st208{fill:url(#SVGID_00000143605154617965728730000001363858527069016242_);}
	.st209{fill:url(#SVGID_00000151502949232768596410000018375408937338614947_);}
	.st210{fill:url(#SVGID_00000023974664116416491680000017159630401880751788_);}
	.st211{fill:url(#SVGID_00000130629841894411120990000014458972932575302544_);}
	.st212{fill:url(#SVGID_00000069399024990715401720000012945037582809993363_);}
	.st213{fill:url(#SVGID_00000078044336948025216260000018366269371822598811_);}
	.st214{fill:url(#SVGID_00000181808165645994374410000008189161561653794472_);}
	.st215{fill:url(#SVGID_00000021079843816730494890000010244532749791372948_);}
	.st216{clip-path:url(#SVGID_00000129198467101712761520000006662877031493025455_);}
	.st217{clip-path:url(#SVGID_00000074421583070471943270000000885537394690308773_);}
	.st218{fill:url(#SVGID_00000042731492679415098000000007388368908099700656_);}
	.st219{clip-path:url(#SVGID_00000095339875786261468740000017509188878073685946_);}
	.st220{fill:url(#SVGID_00000172427767631532608550000017017331010267630001_);}
	.st221{clip-path:url(#SVGID_00000043439173203987678340000010683824316852373391_);}
	.st222{fill:url(#SVGID_00000043436343630572779630000012382737574085385103_);}
	.st223{opacity:7.000000e-02;fill:url(#SVGID_00000181067129379124879320000010645989101339246513_);}
	.st224{clip-path:url(#SVGID_00000127753561889275411090000017236663862282120373_);}
	.st225{fill:url(#SVGID_00000075856252045186607930000016980648298175110588_);}
	.st226{fill:url(#SVGID_00000120544785614386342950000001811996304828281244_);}
	.st227{fill:url(#SVGID_00000121255586146073385320000000034897677927041684_);}
	.st228{fill:url(#SVGID_00000148651771723024765670000001023464498902616962_);}
	.st229{fill:url(#SVGID_00000152252542703564946680000013588329306520269470_);}
	.st230{fill:url(#SVGID_00000156579662667017982380000017202082609347601087_);}
	.st231{fill:url(#SVGID_00000177463817560096318630000001615909624871590301_);}
	.st232{fill:url(#SVGID_00000162350894511248512480000003809298513537029006_);}
	.st233{clip-path:url(#SVGID_00000069395023870675773420000002407746906540279689_);}
	.st234{clip-path:url(#SVGID_00000011711763881344347180000005427811772213824191_);}
	.st235{fill:url(#SVGID_00000094616033008615349180000015093825616854232198_);}
	.st236{clip-path:url(#SVGID_00000005956187927213407160000007026452514900940438_);}
	.st237{fill:url(#SVGID_00000097500769699594002830000008371291182956011659_);}
	.st238{clip-path:url(#SVGID_00000037687374674024347830000017495224724294375073_);}
	.st239{fill:url(#SVGID_00000003796740620275357700000012465139094594506902_);}
	.st240{opacity:7.000000e-02;fill:url(#SVGID_00000137119997315715024140000017235086134029238930_);}
	.st241{clip-path:url(#SVGID_00000018223914841109594150000009297424992495993529_);}
	.st242{fill:url(#SVGID_00000098917907401397712040000012956091387793391265_);}
	.st243{fill:url(#SVGID_00000041256097359463058660000014791767127598378143_);}
	.st244{fill:url(#SVGID_00000023240423470890299490000010004232588206912682_);}
	.st245{fill:url(#SVGID_00000044869456739954176520000004463944583195924665_);}
	.st246{fill:url(#SVGID_00000126283043535531338780000014560625354609767085_);}
	.st247{fill:url(#SVGID_00000007427588978389994870000009429408263125370522_);}
	.st248{fill:url(#SVGID_00000016075275166789998460000010644729892692834954_);}
	.st249{fill:url(#SVGID_00000089532636350350052840000002951557150546737798_);}
</style>
<g>
	<path d="M2551.7,640l-152.3-206.8L2247.2,640h-62.7l183.2-249.8l-167.2-227.1h62.7l136.3,185.1l136.2-185.1h62.7l-167.2,227
		L2614.3,640 M1364.6,640l-183.2-249.9l167.2-227h-62.6l-136.3,185.3l-136.2-185.3h-62.6l167.2,227L934.8,640h62.7l152.2-206.8
		L1301.9,640H1364.6z M1754.4,500.7c0,86-65.1,139.3-170.1,139.3l-193.6,0V416.6h-99.1c7.2-10.7,26.2-36.9,34.5-47.8h64.6V163.1
		h193.6c143.8,0,155,99.2,155,129.8c0,41.2-22.6,76.7-57.3,95.4c10.6,4.8,21.3,11.4,31.3,19.9
		C1740.2,431.3,1754.4,463.2,1754.4,500.7 M1444.2,368.8h140c64.5,0,101.5-29.9,101.5-80c0-66.3-63.5-75.9-101.5-75.9h-140V368.8z
		 M1701,499.7c0-68.4-63.4-83.1-116.7-83.1h-140v173.6h140C1627.9,590.3,1701,578.4,1701,499.7 M2233.4,401.3
		c0,146.8-93.4,249.2-227.1,249.2c-134,0-227.6-102.4-227.6-249.2c0-146.7,93.6-249.1,227.6-249.1
		C2140.1,152.2,2233.4,254.6,2233.4,401.3 M2179.3,401.3c0-117.1-71.2-198.7-173-198.7c-102,0-173.6,81.7-173.6,198.7
		c0,117,71.5,198.8,173.6,198.8C2108.1,600.1,2179.3,518.4,2179.3,401.3"/>
	<path d="M3660.9,151.9c-113.3,0-178.2,91.1-178.2,250.1c0,158.8,65,249.9,178.2,249.9c64.5,0,112.5-28.1,143-83.4
		c28.9-52.7,35.1-119.7,35.1-166.5C3839,326.8,3821.6,151.9,3660.9,151.9 M3660.9,609.2c-32.3,0-59.1-10.5-79.8-31
		c-45.4-45.6-52.3-129.9-52.3-176.1c0-62.4,12.9-207.3,132.1-207.3c119.1,0,131.9,144.9,131.9,207.3
		C3792.8,464.3,3780,609.2,3660.9,609.2 M3278.2,317.1c-51.7,0-98.9,25.2-128,66.8c6.1-90.5,35.2-189.1,133.5-189.1
		c54.9,0,96.5,35.9,105.9,91.4l1.4,8.7h45.7l-1.2-11.6c-9-81-67.2-131.3-151.7-131.3c-149.6,0-180.9,148.4-180.9,272.8
		c0,148.7,60.6,227.2,175.4,227.2c94.3,0,165.6-71.4,165.6-166C3443.8,388,3374.1,317.1,3278.2,317.1 M3278.2,609.2
		c-67.6,0-120.6-54.2-120.6-123.2c0-71.9,52-126,120.6-126c30.9,0,60.1,12,81.8,33.9c23.9,23.7,37.4,57.3,37.4,92.1
		C3397.4,555,3345.1,609.2,3278.2,609.2 M3066.9,504.5c0,89.1-66.3,146.6-168.8,146.6c-55.6,0-100.8-16.5-130.7-47.9
		c-28.5-29.9-42.5-72.8-40.2-124l0.4-9.8h46.2l-0.3,10.7c-1.6,38.6,8.9,71,30.5,93.4c21.9,22.7,54.6,34.9,94.1,34.9
		c61,0,122.5-35.8,122.5-103.9c0-28.2-8.6-50.6-25.9-66.7c-20.8-19.5-54.4-28.4-96.8-28.8h-32.2c-0.2-11.2-0.2-33.5,0-45.1
		c11.7-0.1,23.9-0.2,32-0.2c22.5,0,66.4-5.7,90.1-28.5c14.6-14,22.2-33.2,22.2-56.9c0-55.4-56.4-84.4-111.9-84.4
		c-55.1,0-96.6,35.9-106,91.5l-1.4,8.6h-45.9l1.3-11.5c9.1-81.1,67.4-131.5,152-131.5c51.6,0,97.3,16,125.1,43.8
		c21.8,21.9,32.9,49.9,32.9,83.4c0,47.4-25.7,87.6-66,106.2C3037.7,403.5,3066.9,448.2,3066.9,504.5"/>
	<path d="M118,113.7c-0.3,0.2-0.4,0.4-0.4,0.3v0C45,185.7,0,285.3,0,395.4c0,90.1,30.1,173.1,80.8,239.5c0.5,0.6,1.4,1,2.1,0.6
		c0.7-0.4,0.7-1.3,0.4-2.1C53.3,540.3,201.6,311,281.2,216.2c0.3-0.3,0.5-0.7,0.5-1.1c0-0.5-0.3-1-0.7-1.3
		c-134-133.3-163.9-99.3-163.5-99.8"/>
	<path d="M672.7,113.7c0.3,0.2,0.4,0.4,0.4,0.3v0c72.6,71.7,117.6,171.2,117.6,281.3c0,90.1-30.1,173.1-80.9,239.5
		c-0.5,0.6-1.4,1-2.1,0.6c-0.7-0.4-0.7-1.3-0.4-2.1C737.4,540.3,589,311,509.5,216.2c-0.3-0.3-0.6-0.7-0.6-1.1c0-0.5,0.3-1,0.7-1.3
		c134-133.3,163.9-99.3,163.5-99.8"/>
	<path d="M395.4,0C468,0,536,19.6,594.5,53.7c0.7,0.4,1,1.2,0.6,2c-0.3,0.7-1.1,0.8-1.9,0.7c-69.1-15.5-185.9,57.2-197,63.8
		c-0.2,0.1-0.5,0.3-0.8,0.3c-0.3,0-0.6-0.2-0.8-0.3c-11-6.7-127.8-79.4-196.9-63.8c-0.8,0.2-1.6,0-1.9-0.7c-0.4-0.7,0-1.6,0.6-2
		C254.8,19.6,322.8,0,395.4,0"/>
	<path d="M395.4,311.3c0.4,0,1,0.4,1.3,0.6c118.2,89.9,320.7,318.1,258.9,381l0.1-0.1c0,0,0,0.1-0.1,0.1
		c-69.6,60.9-160.6,97.8-260.2,97.8c-99.7,0-190.7-36.9-260.2-97.8c0,0,0,0-0.1-0.1l0.1,0.1c-61.8-62.8,140.7-291,259-381
		C394.4,311.7,394.9,311.3,395.4,311.3"/>
</g>
</svg>
