<svg width="1270.7695" height="250.00356" version="1.1" viewBox="0 0 336.22102 66.146102" xmlns="http://www.w3.org/2000/svg"><path d="m71.822793 0-12.419788 2.8669793-19.430141 4.482885-14.350916-3.3113922v6.6243349l-25.621948 5.91224v11.863755l25.621948-5.913791 7.918299-1.826743a6.6319 6.6319 0 0 1-0.098184-1.138937 6.6319 6.6319 0 0 1 6.631053-6.631053 6.6319 6.6319 0 0 1 6.370089 4.792424l18.242628-4.210036 11.549049-2.66441a51.409 40.67 0 0 0-0.229441-1.2081826 51.409 40.67 0 0 0-1.272261-3.9382208 51.409 40.67 0 0 0-1.760598-3.8193663 51.409 40.67 0 0 0-1.149272-1.8804863h-5.17e-4zm30.403007 10.058715-13.704971 38.575548h8.096064l2.59258-7.778257h14.446517l2.53987 7.778257h8.14877l-13.33445-38.575548h-8.78438zm26.08754 0v38.575548h7.40826v-38.575548h-7.40826zm14.28788 0v38.575548h7.40825v-38.575548h-7.40825zm-65.579831 7.525046-12.024983 2.775513c-0.56604 4.749295-2.726495 9.322801-6.286891 13.314297-4.574196 5.138095-11.072228 9.454261-18.75422 11.234859l-14.33283 3.321728-25.62194824 5.91379v11.863755l25.62194824-5.913791v6.052283h14.33283v-9.361608c16.088984-3.713896 29.348776-13.661133 34.604771-26.76812 1.616198-3.974696 2.449291-8.12397 2.469591-12.298865-2e-3 -0.04413-0.006717-0.088824-0.006717-0.133324l-0.001551-5.17e-4zm29.437701 1.576632 5.02703 15.081097h-10.05407l5.02704-15.081097zm75.67006 0.423226c-6.77325 0-11.8529 6.614627-11.8529 15.451612 0 8.889902 4.65642 14.816517 11.69426 14.816517 3.33371 0 5.34442-1.005823 8.09606-4.127872v3.863291c0 3.439545-2.59258 5.820774-6.29671 5.820774-2.80455 0-4.65683-1.164571-5.2389-3.334129h-7.67284c0.10583 4.974111 5.08017 8.096581 12.64716 8.096581 8.62532 0 13.59955-3.862884 13.59955-10.583226v-29.527613h-7.03826v4.392452c-2.22248-3.38663-4.65662-4.868387-7.93742-4.868387zm33.39039 0c-7.72574 0-11.7477 3.28091-12.22394 9.895419h7.14368c0.37041-2.9633 1.5877-3.916 5.2389-3.916 2.85747 0 4.286 0.952699 4.286 2.857677 0 2.804553-3.49257 2.963201-5.92671 3.333613l-2.96309 0.529161c-5.66203 0.952489-8.41387 3.862882-8.41387 8.995742s3.49267 8.572517 8.67845 8.572517c3.17496 0 6.08556-1.375925 8.67845-4.074646 0 1.481651 0.15854 2.010504 0.84645 2.857161h8.04336v-0.899161c-1.32291-1.217069-1.69342-2.011124-1.69342-3.492774v-15.874839c0-5.820768-3.96851-8.78387-11.69426-8.78387zm33.60174 0c-3.28079 0-5.39735 1.111034-7.83148 4.021419v-3.545484h-7.35555v28.574709h7.40826v-17.144515c0-3.492462 1.90478-5.60942 5.07974-5.60942 2.48704 0 4.02193 1.428738 4.02193 3.704129v19.049806h7.40826v-17.144515c0-3.492462 1.90478-5.60942 5.07974-5.60942 2.48706 0 4.02142 1.428738 4.02142 3.704129v19.049806h7.40826v-20.213548c0-5.556187-3.38623-8.837096-9.10116-8.837096-3.5983 0-6.13868 1.26999-8.36116 4.23329-1.37582-2.69872-4.23288-4.23329-7.77826-4.23329zm44.02581 0c-8.202 0-13.22904 5.926511-13.22904 15.504322 0 9.154481 4.97423 14.763807 13.07039 14.763807 6.40284 0 11.58863-3.651219 13.22903-9.260323h-7.30232c-0.89957 2.275392-2.96341 3.598193-5.66213 3.598193-4.97411 0-5.76796-3.65132-5.92671-7.514193h19.15574c0.0529-0.634994 0.05323-0.899781 0.05323-1.270194 0-12.646942-7.67326-15.821612-13.38819-15.821612zm29.8449 0c-7.2495 0-11.74748 3.651219-11.74748 9.524903 0 5.609104 4.6036 6.508581 6.244 7.037741l8.83709 2.751743c1.85206 0.582077 2.48716 1.163845 2.48716 2.327999 0 1.74623-2.06393 2.804968-5.50348 2.804968-4.65662 0-5.39745-1.746235-5.82077-3.704129h-7.2491c0.21167 6.244097 4.81537 9.524904 13.49361 9.524904 10.00113 0 12.488-5.715359 12.488-9.684065 0-3.704126-1.85186-6.08515-5.6089-7.196387l-9.36626-2.698516c-2.06373-0.634993-2.5931-1.058428-2.5931-2.222581 0-1.587482 1.69363-2.645806 4.28652-2.645806 3.54538 0 5.29141 1.269885 5.34432 3.862774h7.14368c-0.10583-6.032433-4.76246-9.683548-12.43529-9.683548zm-29.95032 5.662129c3.43954 0 5.45006 2.328209 5.76754 6.50858h-11.37696c0.47625-4.339119 2.32862-6.50858 5.60942-6.50858zm-109.32504 0.529161c3.70413 0 6.45588 3.862779 6.45588 9.154387 0 5.185776-2.69842 8.731161-6.56129 8.731161-3.49246 0-5.92671-3.545385-5.92671-8.731161 0-5.39744 2.43383-9.154387 6.03212-9.154387zm-158.094165 3.671056-25.62194824 5.913791v11.862205l25.62194824-5.912241v-11.863755zm194.341715 5.694685v2.011227c0 4.286201-2.11644 6.719935-5.87348 6.719935-2.48706 0-4.02194-1.322906-4.02194-3.439549 0-2.222476 1.16417-3.28049 4.23329-3.915483l2.54039-0.476452c1.95789-0.370413 2.27508-0.476349 3.12174-0.899678z"/></svg>
