<svg width="1339.8893" height="373.01169" version="1.1" viewBox="0 0 354.50877 98.691674" xmlns="http://www.w3.org/2000/svg"><path d="m106.25987 24.328812a47.360001 56.884998 63.91 0 1-30.260575 67.551245 47.360001 56.884998 63.91 0 1-71.9167601-17.517199 47.360001 56.884998 63.91 0 1 30.2605691-67.5512445 47.360001 56.884998 63.91 0 1 71.916766 17.5171985z" fill="#333" stroke-width="1.2262"/><path d="m90.110897 16.27326-12.420304 2.866979-19.429625 4.482885-14.351433-3.311392v6.624335l-25.621948 5.91224v11.863755l25.621948-5.913791 7.918816-1.826743a6.6319 6.6319 0 0 1-0.098701-1.138937 6.6319 6.6319 0 0 1 6.631053-6.631052 6.6319 6.6319 0 0 1 6.370089 4.792423l18.243146-4.210036 11.549048-2.66441a51.409 40.67 0 0 0-0.229958-1.208182 51.409 40.67 0 0 0-1.271744-3.938738 51.409 40.67 0 0 0-1.761115-3.819366 51.409 40.67 0 0 0-1.149272-1.87997zm30.402483 10.058715-13.70496 38.575549h8.09606l2.5931-7.778775h14.446l2.53987 7.778775h8.14929l-13.33497-38.575549h-8.78439zm26.08807 0v38.575549h7.40826v-38.575549h-7.40826zm14.28735 0v38.575549h7.40826v-38.575549h-7.40826zm-65.579823 7.525046-12.024984 2.775513c-0.566039 4.749295-2.726494 9.322285-6.286891 13.313781-4.574195 5.138095-11.072228 9.454777-18.75422 11.235376l-14.33283 3.321727-25.621948 5.913791v11.863755l25.621948-5.913791v6.052282h14.33283v-9.361607c16.088984-3.713897 29.349293-13.661134 34.605288-26.76812 1.616198-3.974696 2.449292-8.123971 2.469592-12.298866-2e-3 -0.04413-0.007235-0.088824-0.007235-0.133324l-0.00155-5.17e-4zm29.437693 1.576115 5.02704 15.081097h-10.05407l5.02703-15.081097zm75.67059 0.423743c-6.77325 0-11.85342 6.614119-11.85342 15.451096 0 8.889893 4.65643 14.816516 11.69425 14.816516 3.33372 0 5.34496-1.005309 8.09658-4.127355v3.862775c0 3.439542-2.5931 5.820774-6.29722 5.820774-2.80455 0-4.65683-1.164056-5.2389-3.333613h-7.67284c0.10583 4.974106 5.08017 8.096064 12.64716 8.096064 8.62531 0 13.59955-3.862891 13.59955-10.583225v-29.527097h-7.03775v4.391935c-2.22246-3.386625-4.65662-4.86787-7.93741-4.86787zm33.38987 0c-7.72575 0-11.74718 3.280398-12.22342 9.894902h7.14367c0.37042-2.963298 1.58719-3.915483 5.23839-3.915483 2.85747 0 4.28652 0.952185 4.28652 2.857161 0 2.804549-3.49257 2.963717-5.92671 3.334129l-2.96362 0.529162c-5.66201 0.95249-8.41335 3.862888-8.41335 8.995742s3.49216 8.571999 8.67794 8.571999c3.17495 0 6.08556-1.375411 8.67845-4.074128 0 1.48165 0.15854 2.010503 0.84645 2.857161h8.04335v-0.899678c-1.32289-1.21707-1.69342-2.01061-1.69342-3.492258v-15.874839c0-5.820763-3.96852-8.78387-11.69425-8.78387zm33.60174 0c-3.28079 0-5.39735 1.111037-7.83149 4.021419v-3.545484h-7.35554v28.57471h7.40825v-17.144516c0-3.492459 1.90531-5.60942 5.08026-5.60942 2.48706 0 4.02142 1.42874 4.02142 3.704129v19.049807h7.40826v-17.144516c0-3.492459 1.90477-5.60942 5.07974-5.60942 2.48706 0 4.02194 1.42874 4.02194 3.704129v19.049807h7.40826v-20.214065c0-5.556183-3.38675-8.83658-9.10168-8.83658-3.5983 0-6.13817 1.269993-8.36065 4.23329-1.37582-2.698717-4.2334-4.23329-7.77877-4.23329zm44.02632 0c-8.20199 0-13.22903 5.926523-13.22903 15.504322 0 9.154473 4.97371 14.76329 13.06987 14.76329 6.40284 0 11.58863-3.651224 13.22903-9.260322h-7.30232c-0.89958 2.275388-2.96341 3.59871-5.66213 3.59871-4.97411 0-5.76744-3.651323-5.92619-7.514194h19.15522c0.0529-0.634993 0.05323-0.899781 0.05323-1.270194 0-12.646929-7.67274-15.821612-13.38768-15.821612zm29.84439 0c-7.2495 0-11.74697 3.651224-11.74697 9.524903 0 5.609099 4.6036 6.50858 6.244 7.037742l8.8371 2.751742c1.85206 0.582077 2.48664 1.163846 2.48664 2.327999 0 1.746228-2.06342 2.804452-5.50297 2.804452-4.65661 0-5.39744-1.746237-5.82077-3.704129h-7.24961c0.21167 6.244092 4.81538 9.524903 13.49361 9.524903 10.00112 0 12.488-5.714848 12.488-9.683548 0-3.704122-1.85186-6.08515-5.6089-7.196387l-9.36626-2.699033c-2.06373-0.634993-2.59258-1.05791-2.59258-2.222064 0-1.587479 1.69311-2.645806 4.286-2.645806 3.54538 0 5.2914 1.269889 5.34432 3.862774h7.14368c-0.10583-6.032428-4.76246-9.683548-12.43529-9.683548zm-29.95032 5.661612c3.43954 0 5.45004 2.328733 5.76754 6.509097h-11.37696c0.47625-4.339112 2.32862-6.509097 5.60942-6.509097zm-109.32452 0.529161c3.70412 0 6.45535 3.863301 6.45535 9.154904 0 5.18577-2.69841 8.731161-6.56129 8.731161-3.49245 0-5.92671-3.545391-5.92671-8.731161 0-5.397434 2.43436-9.154904 6.03265-9.154904zm-158.094688 3.671574-25.621948 5.91379v11.862205l25.621948-5.912241v-11.863754zm194.342238 5.694685v2.010709c0 4.286198-2.11697 6.720452-5.874 6.720452-2.48706 0-4.02142-1.322909-4.02142-3.439548 0-2.222473 1.16416-3.280492 4.23329-3.915484l2.53987-0.476452c1.95789-0.370412 2.2756-0.476349 3.12226-0.899677z" fill="#ff4b4b" stroke-width=".264581" style="white-space:pre"/></svg>
