<?xml version="1.0" encoding="UTF-8" standalone="no"?>
<svg
   width="1270.7695"
   height="250.00356"
   version="1.1"
   viewBox="0 0 336.22102 66.146102"
   id="svg6"
   sodipodi:docname="all.svg"
   inkscape:version="1.1.1 (3bf5ae0d25, 2021-09-20, custom)"
   xmlns:inkscape="http://www.inkscape.org/namespaces/inkscape"
   xmlns:sodipodi="http://sodipodi.sourceforge.net/DTD/sodipodi-0.dtd"
   xmlns="http://www.w3.org/2000/svg"
   xmlns:svg="http://www.w3.org/2000/svg">
  <defs
     id="defs10">
    <rect
       x="332.4751"
       y="176.12946"
       width="210.18806"
       height="60.401272"
       id="rect124596" />
    <rect
       x="401.98865"
       y="76.883057"
       width="984.82977"
       height="255.90161"
       id="rect13038" />
  </defs>
  <sodipodi:namedview
     id="namedview8"
     pagecolor="#ffffff"
     bordercolor="#666666"
     borderopacity="1.0"
     inkscape:pageshadow="2"
     inkscape:pageopacity="0.0"
     inkscape:pagecheckerboard="true"
     showgrid="false"
     fit-margin-top="0"
     fit-margin-left="0"
     fit-margin-right="0"
     fit-margin-bottom="0"
     inkscape:zoom="0.69205136"
     inkscape:cx="111.98591"
     inkscape:cy="124.26823"
     inkscape:window-width="1280"
     inkscape:window-height="651"
     inkscape:window-x="0"
     inkscape:window-y="0"
     inkscape:window-maximized="1"
     inkscape:current-layer="svg6" />
  <g
     transform="translate(-43.637,-8.8885)"
     id="g4">
    <path
       d="m 115.46,8.8885 -12.42,2.867 -19.43,4.4829 -14.351,-3.3112 v 6.6241 l -25.622,5.9121 v 11.864 l 25.622,-5.9138 7.9185,-1.8267 a 6.6319,6.6319 0 0 1 -0.09851,-1.1389 6.6319,6.6319 0 0 1 6.631,-6.631 6.6319,6.6319 0 0 1 6.3701,4.7922 l 18.243,-4.2098 11.549,-2.6648 a 51.409,40.67 0 0 0 -0.22985,-1.208 51.409,40.67 0 0 0 -1.2719,-3.9385 51.409,40.67 0 0 0 -1.761,-3.8193 51.409,40.67 0 0 0 -1.1492,-1.8803 z m 5.1984,17.584 -12.025,2.7754 c -0.56604,4.7493 -2.7267,9.3225 -6.2871,13.314 -4.5742,5.1381 -11.072,9.4544 -18.754,11.235 l -14.333,3.3216 -25.622,5.9138 v 11.864 l 25.622,-5.9138 v 6.0521 h 14.333 v -9.3615 c 16.089,-3.7139 29.349,-13.661 34.605,-26.768 1.6162,-3.9747 2.4493,-8.1241 2.4696,-12.299 -0.002,-0.04413 -0.007,-0.08857 -0.007,-0.13307 z m -51.399,11.862 -25.622,5.9138 v 11.862 l 25.622,-5.9121 z"
       fill="#ffffff"
       id="path2" />
  </g>
  <g
     aria-label="All games"
     transform="matrix(0.26458065,0,0,0.26458065,-18.366849,-20.654684)"
     id="text13036"
     style="font-size:200px;line-height:1.25;white-space:pre;shape-inside:url(#rect13038)">
    <path
       d="m 498.98828,232.48281 9.6,29.4 h 30.8 l -50.4,-145.8 h -33.2 l -51.8,145.8 h 30.6 l 9.8,-29.4 z m -8.2,-25 h -38 l 19,-57 z"
       style="font-weight:bold;-inkscape-font-specification:'sans-serif Bold';fill:#ffffff"
       id="path35" />
    <path
       d="m 582.38838,116.08281 h -28 v 145.8 h 28 z"
       style="font-weight:bold;-inkscape-font-specification:'sans-serif Bold';fill:#ffffff"
       id="path37" />
    <path
       d="m 636.38847,116.08281 h -28 v 145.8 h 28 z"
       style="font-weight:bold;-inkscape-font-specification:'sans-serif Bold';fill:#ffffff"
       id="path39" />
    <path
       d="m 787.78853,153.88281 v 16.6 c -8.4,-12.8 -17.6,-18.4 -30,-18.4 -25.6,0 -44.8,25 -44.8,58.4 0,33.6 17.6,56 44.2,56 12.6,0 20.2,-3.8 30.6,-15.6 v 14.6 c 0,13 -9.8,22 -23.8,22 -10.6,0 -17.6,-4.4 -19.8,-12.6 h -29 c 0.4,18.8 19.2,30.6 47.8,30.6 32.6,0 51.4,-14.6 51.4,-40 v -111.6 z m -24,21.6 c 14,0 24.4,14.6 24.4,34.6 0,19.6 -10.2,33 -24.8,33 -13.2,0 -22.4,-13.4 -22.4,-33 0,-20.4 9.2,-34.6 22.8,-34.6 z"
       style="font-weight:bold;-inkscape-font-specification:'sans-serif Bold';fill:#ffffff"
       id="path41" />
    <path
       d="m 868.18843,266.48281 c 12,0 23,-5.2 32.8,-15.4 0,5.6 0.6,7.6 3.2,10.8 h 30.4 v -3.4 c -5,-4.6 -6.4,-7.6 -6.4,-13.2 v -60 c 0,-22 -15,-33.2 -44.2,-33.2 -29.2,0 -44.4,12.4 -46.2,37.4 h 27 c 1.4,-11.2 6,-14.8 19.8,-14.8 10.8,0 16.2,3.6 16.2,10.8 0,10.6 -13.2,11.2 -22.4,12.6 l -11.2,2 c -21.4,3.6 -31.8,14.6 -31.8,34 0,19.4 13.2,32.4 32.8,32.4 z m 32.6,-48 c 0,16.2 -8,25.4 -22.2,25.4 -9.4,0 -15.2,-5 -15.2,-13 0,-8.4 4.4,-12.4 16,-14.8 l 9.6,-1.8 c 7.4,-1.4 8.6,-1.8 11.8,-3.4 z"
       style="font-weight:bold;-inkscape-font-specification:'sans-serif Bold';fill:#ffffff"
       id="path43" />
    <path
       d="m 953.58844,153.88281 v 108 h 28 v -64.8 c 0,-13.2 7.2,-21.2 19.19996,-21.2 9.4,0 15.2,5.4 15.2,14 v 72 h 28 v -64.8 c 0,-13.2 7.2,-21.2 19.2,-21.2 9.4,0 15.2,5.4 15.2,14 v 72 h 28 v -76.4 c 0,-21 -12.8,-33.4 -34.4,-33.4 -13.6,0 -23.2,4.8 -31.6,16 -5.2,-10.2 -16,-16 -29.4,-16 -12.39996,0 -20.39996,4.2 -29.59996,15.2 v -13.4 z"
       style="font-weight:bold;-inkscape-font-specification:'sans-serif Bold';fill:#ffffff"
       id="path45" />
    <path
       d="m 1177.3882,152.08281 c -31,0 -50,22.4 -50,58.6 0,34.6 18.8,55.8 49.4,55.8 24.2,0 43.8,-13.8 50,-35 h -27.6 c -3.4,8.6 -11.2,13.6 -21.4,13.6 -18.8,0 -21.8,-13.8 -22.4,-28.4 h 72.4 c 0.2,-2.4 0.2,-3.4 0.2,-4.8 0,-47.8 -29,-59.8 -50.6,-59.8 z m 21.4,46 h -43 c 1.8,-16.4 8.8,-24.6 21.2,-24.6 13,0 20.6,8.8 21.8,24.6 z"
       style="font-weight:bold;-inkscape-font-specification:'sans-serif Bold';fill:#ffffff"
       id="path47" />
    <path
       d="m 1269.3883,230.48281 h -27.4 c 0.8,23.6 18.2,36 51,36 37.8,0 47.2,-21.6 47.2,-36.6 0,-14 -7,-23 -21.2,-27.2 l -35.4,-10.2 c -7.8,-2.4 -9.8,-4 -9.8,-8.4 0,-6 6.4,-10 16.2,-10 13.4,0 20,4.8 20.2,14.6 h 27 c -0.4,-22.8 -18,-36.6 -47,-36.6 -27.4,0 -44.4,13.8 -44.4,36 0,21.2 17.4,24.6 23.6,26.6 l 33.4,10.4 c 7,2.2 9.4,4.4 9.4,8.8 0,6.6 -7.8,10.6 -20.8,10.6 -17.6,0 -20.4,-6.6 -22,-14 z"
       style="font-weight:bold;-inkscape-font-specification:'sans-serif Bold';fill:#ffffff"
       id="path49" />
  </g>
  <text
     xml:space="preserve"
     transform="scale(0.26458064)"
     id="text124594"
     style="font-style:normal;font-weight:normal;font-size:40px;line-height:1.25;font-family:sans-serif;white-space:pre;shape-inside:url(#rect124596);fill:#000000;fill-opacity:1;stroke:none" />
</svg>
