<svg enable-background="new 0 0 3839 343.2" version="1.1" viewBox="0 0 3839 343.2" xml:space="preserve" xmlns="http://www.w3.org/2000/svg">
<path d="m217.375 0.12695312c-53.39963-0.50622507-96.79456 18.19845788-129.175781 38.27343788-64.199936 39.59996-95.0984295 100.200079-86.8984378 182.499999 9.4999908 95.59991 133.2997188 155.79955 238.0996088 95.09961 1-0.6 1.70039-1.00039 2.40039-1.40039l-9.90039 22.40039h70.40039l44.19922-98.09961h77.90039l17.19922 98.09961h114.59961l58.40039-183.40039 37.40039 183.40039h44.90039l87.59961-202.90039 8.90039 202.90039h67.40039l-14.10156-328h-80.89844l-76.40039 179.69922-32.90039-179.69922h-66.59961l-86.09961 265.09961-44.20117-265.09961h-83.09961l-125.90039 285.69922 18.80078-119.39844h-125l-9.59961 61.5h52.19922l-6 32.89844c-29.99997 11.89999-80.89963 7.49996-102.599609-31.5-13.699987-24.69998-26.499552-79.69888 31.400389-130.29883 47.19995-41.199958 128.80005-48.700368 176-26.90039 0 0 6.00001-34.499641 10.5-66.599609-28.31247-9.8437405-54.65322-14.04333557-78.92578-14.27343788zm1354.998 8.83007808c-65.1628 1.1046868-126.7847 56.5688298-145.0722 135.8437488-21 90.59991 22.5989 178.09846 97.2988 195.39844s152.1996-42.19853 173.0996-132.89844-22.6989-178.200407-97.2988-195.400389c-9.3375-2.1499982-18.7184-3.1011721-28.0274-2.9433598zm-653.873 0.0429688-52.40039 328h187.99999l11.2012-70.40039h-117.60158l9.40039-58.40039h102.20119l11.2988-70.39844h-103.40038l9-58.400389h117.60158l11.1992-70.400391h-186.5zm746.5996 0 79.3008 173-24.4004 155h67.4004l20.6992-137 121.3008-191h-78.5996l-66.7012 107.09961-41.9004-107.09961h-77.0996zm-367.0898 1.646484c-40.6406-0.084375-91.209 0.253907-91.209 0.253907h0.6992l-52 325.400389h151.5996c62.3999 0 153.6995-92.00164 70.5996-167.10156 85.4999-88.499913 0.8004-157.49883-44.5996-158.298829-9.1-0.15-21.543-0.225782-35.0898-0.253907zm941.9902 47.353516v190.69922l-112.9004-187.19922-2-3.300781h-58.2988l-2 3.300781-128.3008 216.5-6 10.19922h50.5v0.10156h112.1992v-50.80078h-66l66.1016-119.19922 93.2988 166.5 1.9004 3.39844h75.1992l-0.0996-0.19922h115.5c99.5999 0 150.2012-38.8993 150.2012-115.69922 0-13.29999-1.7-25.60079-5-36.80078l90.3984 149.19922 2 3.20117h44l1.9004-3.40039 125.5-216.400391 5.9004-10h-70.5l-1.9004 3.5-80.7988 146.701171-85.7012-146.80078-1.9004-3.400391h-75.7988l6.1992 10.201172 14.5996 24c-23.4-22.199978-59.1992-34.300781-105.6992-34.300781h-152.5zm767.1992 0.099609v190.900391l-113-187.599609-2-3.201172h-58.2988l-2 3.300781-128.4004 216.30078-6 10.19922h68.5l0.0996-0.19922h94.3008v-50.80078h-66.0996l66-118.90039 93.2988 166.5 2 3.40039h75.2012l-0.1016-0.09961h38v-138.59961l172.2012 137.09961 1.9004 1.5h45.1992v-229.800781h-54-6.8008v136.701171l-172.7988-135.30078-1.8008-1.400391h-45.4004zm363.9004 0c-47.2999 0-63.1992 14.600044-63.1992 58.000001v113.90039c0 43.19996 15.8993 57.90039 63.1992 57.90039h134.8008c47.2999 0 63.2988-14.60043 63.2988-57.90039v-32.30078h-6.6992l-53-0.09961h-6.8008v35.40039h-128.3984v-121.40039h128.3984v31.90039h6.8008l53 0.19922h6.8008v-27.69922c-0.1-43.799956-15.5005-57.900391-63.4004-57.900391h-134.8008zm219.7012 0v229.800781h248.1992v-53.59961h-6.8008-174.8984v-40.30078h104.3984v-50.69922h-104.3984v-33.20117h179.0996v-52.000001h-245.5996zm-2016.4492 14.867188c7.0173-0.174243 13.9734 1.151565 20.6484 4.132812 35.8 15.799985 49.8992 72.999661 31.6992 127.599611-18.2 54.59994-61.8 85.90037-97.5 69.90039-35.5999-15.99998-49.7996-73.09966-31.5996-127.59961 14.7875-44.36246 46.3435-73.27815 76.752-74.033203zm-308.8516 7.033203h43.8008c47.5999 0 37.9995 60.90039-7.4004 60.90039h-46.8008l10.4004-60.90039zm1041.0996 30.19922h86.4004c46.7 0 68.5 18.90004 68.5 59.5 0 48.29995-23.5997 64.60156-93.5996 64.60156h-61.3008v-124.10156zm-1904.69921 1.5 12.29883 63.60156h-40.79883l28.5-63.60156zm842.79881 96.10156h56.5c53.5 0 52 65.39844-7.5 65.39844h-59.3984l10.3984-65.39844z"/>
</svg>
