<?xml version="1.0" encoding="utf-8"?>
<!-- Generator: Adobe Illustrator 25.4.1, SVG Export Plug-In . SVG Version: 6.00 Build 0)  -->
<svg version="1.1" id="Layer_1" xmlns="http://www.w3.org/2000/svg" xmlns:xlink="http://www.w3.org/1999/xlink" x="0px" y="0px"
	 viewBox="0 0 3839 343.2" style="enable-background:new 0 0 3839 343.2;" xml:space="preserve">
<style type="text/css">
	.st0{fill:#232F95;}
	.st1{fill:#FFFFFF;}
	.st2{fill:url(#SVGID_1_);}
	.st3{fill:url(#SVGID_00000183215427352403016070000007003830422497307583_);}
	.st4{fill:url(#SVGID_00000025425239445676012840000002305812531370622131_);}
	.st5{fill:url(#SVGID_00000001656867074272305660000002107902824344067767_);}
	.st6{fill:url(#SVGID_00000088104795156116847460000008900083076937792147_);}
	.st7{fill:url(#SVGID_00000068671457475587349790000005341426087324018101_);}
	.st8{fill:url(#SVGID_00000141454081768445937320000005506355001263764892_);}
	.st9{fill:url(#SVGID_00000132077376792320457590000018267953987502549949_);}
	.st10{fill:url(#SVGID_00000158722736369894390530000014416048674284604349_);}
	.st11{fill:url(#SVGID_00000133520906742057007560000015003169787921373829_);}
	.st12{fill:url(#SVGID_00000142152018206079209800000000484989360589296007_);}
	.st13{fill:url(#SVGID_00000163764664120093406730000015326075930495935369_);}
	.st14{fill:url(#SVGID_00000054970894812051786730000010229844126898745477_);}
	.st15{fill:url(#SVGID_00000090982792861381432410000013704088526268890032_);}
	.st16{fill:url(#SVGID_00000024705140528816872620000002094963061929735332_);}
	.st17{fill:url(#SVGID_00000069360172869781496860000012504776016893081243_);}
	.st18{fill:url(#SVGID_00000007401587691258486870000000465481308428694189_);}
	.st19{fill:url(#SVGID_00000169521071745207213940000014459656904375149961_);}
	.st20{fill:url(#SVGID_00000029748997515928182010000017607403277310184109_);}
	.st21{fill:url(#SVGID_00000023255713897169758140000004971076789791291025_);}
	.st22{fill:url(#SVGID_00000085227299783124374400000011911876720275198612_);}
	.st23{fill:url(#SVGID_00000182509994500097962960000002421680579367453327_);}
	.st24{fill:url(#SVGID_00000119820516940870164710000016083131041924980915_);}
	.st25{fill:url(#SVGID_00000063603056747677166280000009905635862335329711_);}
	.st26{fill:url(#SVGID_00000149375113920408686700000015082166256135853982_);}
	.st27{fill:url(#SVGID_00000006709531969236080820000005227644753399921280_);}
	.st28{fill:url(#SVGID_00000070809576845484050300000003654668363857105578_);}
	.st29{fill:url(#SVGID_00000085250030708339854110000008206993210915668654_);}
	.st30{fill:url(#SVGID_00000107570002710111165970000002522188015740714634_);}
	.st31{fill:url(#SVGID_00000183243781957204457540000013276688683956326545_);}
	.st32{fill:url(#SVGID_00000014631371268923828920000004026847034226864790_);}
	.st33{fill:url(#SVGID_00000147201163993363012030000012019405117923204257_);}
	.st34{fill:url(#SVGID_00000176761361612629715090000017406381023723716526_);}
	.st35{fill:url(#SVGID_00000076571870703374272840000000742598511694764697_);}
	.st36{fill:url(#SVGID_00000013179260209467729050000017912582623683366273_);}
	.st37{fill:url(#SVGID_00000042726900171332256470000000026558436226823594_);}
	.st38{fill:url(#SVGID_00000096751417659614907070000016486297518663418766_);}
	.st39{fill:url(#SVGID_00000029757082295826570090000012488781152291623300_);}
	.st40{fill:url(#SVGID_00000183243649561289659650000003951500221597445526_);}
	.st41{fill:url(#SVGID_00000090266285653523856180000000906712116319008954_);}
	.st42{fill:url(#SVGID_00000109001673885132198530000002781094490964666502_);}
	.st43{fill:url(#SVGID_00000050660150334589424610000006768424995851022015_);}
	.st44{fill:url(#SVGID_00000155847843312989141370000008853992590326839189_);}
	.st45{fill:url(#SVGID_00000029735058747845301150000000535626047746489014_);}
	.st46{fill:url(#SVGID_00000023981131655740895390000011238788596238476467_);}
	.st47{fill:url(#SVGID_00000101066038396298321080000011634977224289080704_);}
	.st48{fill:url(#SVGID_00000076589592708392579770000005553701215354863544_);}
	.st49{fill:url(#SVGID_00000042695514259620237840000013622006718155744911_);}
	.st50{fill:url(#SVGID_00000154421411927629417600000004756699401554872762_);}
	.st51{fill:url(#SVGID_00000019658666085465646510000012297894242823326617_);}
	.st52{fill:url(#SVGID_00000160171747107274828480000001307095428001113216_);}
	.st53{fill:url(#SVGID_00000119101837285951874400000009749144433809732793_);}
	.st54{fill:url(#SVGID_00000027602878201555070210000001221274772702749877_);}
	.st55{fill:url(#SVGID_00000103980134421117035270000010944166733512246159_);}
	.st56{fill:url(#SVGID_00000177475661922735404910000000725175830574540930_);}
	.st57{fill:url(#SVGID_00000032614104903536199730000017429001987732515723_);}
	.st58{fill:url(#SVGID_00000067211709300238365480000003821979021998972850_);}
	.st59{fill:url(#SVGID_00000108269666874044868290000008827212954622006678_);}
	.st60{fill:url(#SVGID_00000119090727687652132050000002504873563252117405_);}
	.st61{fill:url(#SVGID_00000127738555454278303740000007881962670645065871_);}
	.st62{fill:url(#SVGID_00000068661122023210919320000010031459505405411241_);}
	.st63{fill:url(#SVGID_00000100362683711134667630000017729031306439717248_);}
	.st64{fill:url(#SVGID_00000136398590731296096020000005235114512462082955_);}
	.st65{fill:url(#SVGID_00000109751282593776958100000006717725014563352753_);}
	.st66{fill:url(#SVGID_00000119816018048170082680000000049978349460914086_);}
	.st67{fill:url(#SVGID_00000078036499210555685130000011797501427592452494_);}
	.st68{fill:url(#SVGID_00000013899025124512441970000005574029565662190263_);}
	.st69{fill:url(#SVGID_00000037690220029312890650000006778117679334176177_);}
	.st70{fill:url(#SVGID_00000090276896286745023920000015329948337160983743_);}
	.st71{fill:url(#SVGID_00000031187912223590782530000017632034803942984125_);}
	.st72{fill:url(#SVGID_00000178194080477118405870000009920349337155715714_);}
	.st73{fill:url(#SVGID_00000150824092550644689710000003094304383346086844_);}
	.st74{fill:url(#SVGID_00000016059395223545466650000007920896166104406166_);}
	.st75{fill:url(#SVGID_00000076584041397806961540000018154103693529571744_);}
	.st76{fill:url(#SVGID_00000158728488388015648580000007434606668358872758_);}
	.st77{fill:url(#SVGID_00000127018839179209719850000005935742459925074866_);}
	.st78{fill:url(#SVGID_00000008852792119131925490000004752333666623228584_);}
	.st79{fill:url(#SVGID_00000051368683253954242160000017674157834422199470_);}
	.st80{fill:url(#SVGID_00000093152477265563363250000003286311927079620005_);}
	.st81{fill:url(#SVGID_00000104700816730018170260000004763615997073566094_);}
	.st82{fill:url(#SVGID_00000093876367679798824010000007902872401942773383_);}
	.st83{fill:url(#SVGID_00000103255203650741761630000002631247668035468707_);}
	.st84{fill:url(#SVGID_00000015352338446131812370000013168160120370579857_);}
	.st85{fill:url(#SVGID_00000159470322645563837060000006587006092428616127_);}
	.st86{fill:url(#SVGID_00000127759548495928234680000007433557730131576453_);}
	.st87{fill:url(#SVGID_00000111912758582653600170000008738413218719784894_);}
	.st88{fill:url(#SVGID_00000139285428159399004670000015811528101696103332_);}
	.st89{fill:url(#SVGID_00000109714915882950736260000008138191825188312222_);}
	.st90{fill:url(#SVGID_00000139979338486912783680000015333557609994780320_);}
	.st91{fill:url(#SVGID_00000141430767300203015970000012144921417361746863_);}
	.st92{fill:url(#SVGID_00000085943787703282654330000018443378033305034927_);}
	.st93{fill:url(#SVGID_00000044136953119198883480000015695267019026702779_);}
	.st94{fill:url(#SVGID_00000086654937180021030570000001281490549853704362_);}
	.st95{fill:url(#SVGID_00000116950342766875761060000003731972599807000254_);}
	.st96{fill:url(#SVGID_00000067930845074443665330000005492724126920997796_);}
	.st97{fill:url(#SVGID_00000004547876365895660020000002052327561112819081_);}
	.st98{fill:url(#SVGID_00000003078615036655041920000016993941626862107575_);}
	.st99{fill:url(#SVGID_00000139294316083081262690000003654434275207358907_);}
	.st100{fill:url(#SVGID_00000045597729426181655400000000450441431329438653_);}
	.st101{fill:url(#SVGID_00000003810188642577318530000001267681412920517281_);}
	.st102{fill:#502F8E;}
	.st103{fill:url(#SVGID_00000093855524438794142790000012401906099178453166_);}
	.st104{fill:url(#SVGID_00000006683987826107016000000017273388032413181088_);}
	.st105{fill:url(#SVGID_00000173143064767325967670000001965805741150443191_);}
	.st106{fill:url(#SVGID_00000015316013979867171490000011718964840713546418_);}
	.st107{fill:url(#SVGID_00000014615905657866853430000013730773826228355971_);}
	.st108{fill:url(#SVGID_00000134958420555587026610000004189296877654973365_);}
	.st109{fill:url(#SVGID_00000034065115063460705530000006273203214120338105_);}
	.st110{fill:url(#SVGID_00000023278257766762567600000001708128886115689650_);}
	.st111{fill:url(#SVGID_00000168825669264316853030000016111765410135083675_);}
	.st112{fill:url(#SVGID_00000037665221828585047330000007560864997933439385_);}
	.st113{fill:url(#SVGID_00000090991623816432000760000008770753959114356103_);}
	.st114{fill:url(#SVGID_00000126325907014370867410000007141235732605107335_);}
	.st115{fill:url(#SVGID_00000158015026520289983780000002768845957857725085_);}
	.st116{fill:url(#SVGID_00000015334370465317417750000010314954815921413814_);}
	.st117{fill:url(#SVGID_00000021805487469048465920000005474375641593771393_);}
	.st118{fill:url(#SVGID_00000181771184275935761050000014898001436712122814_);}
	.st119{fill:url(#SVGID_00000024681013935232058770000009776019132292535949_);}
	.st120{fill:url(#SVGID_00000076566853535330665650000011550341026724753038_);}
	.st121{fill:url(#SVGID_00000132790904660473393810000017291070628539482043_);}
	.st122{fill:url(#SVGID_00000111908454054544353690000014655692599924267177_);}
	.st123{fill:url(#SVGID_00000034784674980385687630000001464476204124070819_);}
	.st124{fill:url(#SVGID_00000021825071799279097310000015760403732588835217_);}
	.st125{fill:url(#SVGID_00000176039765472758409820000012448034162619995805_);}
	.st126{fill:url(#SVGID_00000006685158706138779070000009282283079274843524_);}
	.st127{fill:url(#SVGID_00000030466813236394454200000012469190238077178501_);}
	.st128{fill:url(#SVGID_00000046323572164176140960000014593833268187584651_);}
	.st129{fill:url(#SVGID_00000028298483830866962140000011564039419329026744_);}
	.st130{fill:url(#SVGID_00000067925326288089012350000009013461514758687420_);}
	.st131{fill:url(#SVGID_00000104694188042433638040000001347914980387125632_);}
	.st132{fill:url(#SVGID_00000128453669211978136710000012812488959230250123_);}
	.st133{fill:url(#SVGID_00000003067458792228820890000000301615663777825701_);}
	.st134{fill:url(#SVGID_00000083794484572170241740000016536744354407729290_);}
	.st135{fill:url(#SVGID_00000083782184986029645360000014751528971624468397_);}
	.st136{fill:url(#SVGID_00000153681375553852776010000008461033350363291828_);}
	.st137{fill:url(#SVGID_00000006699799638974457390000002511083486294784664_);}
	.st138{fill:url(#SVGID_00000117668489741845455690000009268445584773274244_);}
	.st139{fill:url(#SVGID_00000100373099365493348280000009665271339970239928_);}
	.st140{fill:url(#SVGID_00000135656049946314413160000012130673761706357416_);}
	.st141{fill:url(#SVGID_00000011723430314924018130000008785661962234186633_);}
	.st142{fill:url(#SVGID_00000097500644339058874140000016795338344342504102_);}
	.st143{fill:url(#SVGID_00000136378596730152735510000011689250670195471807_);}
	.st144{fill:url(#SVGID_00000103980039009686535970000015343361611504953474_);}
	.st145{fill:url(#SVGID_00000178894868221171052820000002945280119498360715_);}
	.st146{fill:url(#SVGID_00000108305305584571097830000000542856367334836120_);}
	.st147{fill:url(#SVGID_00000036210790575819981180000006248733029003451020_);}
	.st148{fill:url(#SVGID_00000107588380294376457550000016745480560902987412_);}
	.st149{fill:url(#SVGID_00000160190390151006270820000014751890498149037723_);}
	.st150{fill:url(#SVGID_00000046300513869390076920000011995629830833654695_);}
	.st151{fill:url(#SVGID_00000076562779782036749630000000518427723118121090_);}
	.st152{fill:url(#SVGID_00000131346572281077988590000010452556151471517849_);}
	.st153{fill:url(#SVGID_00000003064073084667057590000016160976942733060483_);}
	.st154{fill:url(#SVGID_00000139287124888082524730000008990132982380995993_);}
	.st155{fill:url(#SVGID_00000083055779310433170870000011534460541018026142_);}
	.st156{fill:url(#SVGID_00000032616270540323865930000016046008724060721307_);}
	.st157{fill:url(#SVGID_00000168103759147181303410000014763056756794214022_);}
	.st158{fill:url(#SVGID_00000147181605234268513610000005125515748707154079_);}
	.st159{fill:url(#SVGID_00000142871191213945955430000003719509967285785231_);}
	.st160{fill:url(#SVGID_00000036935785795187299170000001243567487121025935_);}
	.st161{fill:url(#SVGID_00000172439097576218032410000018089020482179525029_);}
	.st162{fill:url(#SVGID_00000055665407446435954910000014772828716013600679_);}
	.st163{fill:url(#SVGID_00000012459352177101502480000018436238683411305919_);}
	.st164{fill:url(#SVGID_00000072272109624101491490000007428156223578941064_);}
	.st165{fill:url(#SVGID_00000003105041137049843280000000954865353950455943_);}
	.st166{fill:url(#SVGID_00000067222604797072281200000008733847046486545834_);}
	.st167{fill:url(#SVGID_00000182498203884435129110000009108643545130557586_);}
	.st168{fill:url(#SVGID_00000108988910469543008790000005390439193248801957_);}
	.st169{fill:url(#SVGID_00000115488759879985824320000000446367327935476130_);}
	.st170{fill:url(#SVGID_00000133512819831655016530000009257235590538666418_);}
</style>
<g>
	<g>
		<path d="M2794,58.1h-70.5l-1.9,3.5l-80.8,146.7l-85.7-146.8l-1.9-3.4h-75.8l6.2,10.2l14.6,24c-23.4-22.2-59.2-34.3-105.7-34.3
			H2240v190.7L2127.1,61.5l-2-3.3h-58.3l-2,3.3L1936.5,278l-6,10.2h50.5v0.1h112.2v-50.8h-66l66.1-119.2l93.3,166.5l1.9,3.4h75.2
			l-0.1-0.2h115.5c99.6,0,150.2-38.9,150.2-115.7c0-13.3-1.7-25.6-5-36.8l90.4,149.2l2,3.2h44l1.9-3.4l125.5-216.4L2794,58.1
			 M2367.9,234.3h-61.3V110.2h86.4c46.7,0,68.5,18.9,68.5,59.5C2461.5,218,2437.9,234.3,2367.9,234.3z"/>
		<polyline points="3234,58.1 3227.2,58.1 3227.2,194.8 3054.4,59.5 3052.6,58.1 3007.2,58.1 3007.2,249 2894.2,61.4 2892.2,58.2 
			2833.9,58.2 2831.9,61.5 2703.5,277.8 2697.5,288 2766,288 2766.1,287.8 2860.4,287.8 2860.4,237 2794.3,237 2860.3,118.1 
			2953.6,284.6 2955.6,288 3030.8,288 3030.7,287.9 3068.7,287.9 3068.7,149.3 3240.9,286.4 3242.8,287.9 3288,287.9 3288,58.1 
			3234,58.1 		"/>
		<path d="M3505.9,58.1h-134.8c-47.3,0-63.2,14.6-63.2,58V230c0,43.2,15.9,57.9,63.2,57.9h134.8c47.3,0,63.3-14.6,63.3-57.9v-32.3
			l-6.7,0l-53-0.1h-6.8v35.4h-128.4V111.6h128.4v31.9l6.8,0l53,0.2l6.8,0v-27.7C3569.2,72.2,3553.8,58.1,3505.9,58.1"/>
		<polyline points="3832.2,234.3 3657.3,234.3 3657.3,194 3761.7,194 3761.7,143.3 3657.3,143.3 3657.3,110.1 3836.4,110.1 
			3836.4,58.1 3590.8,58.1 3590.8,287.9 3839,287.9 3839,234.3 3832.2,234.3 		"/>
	</g>
	<g>
		<path d="M765.8,9l-76.4,179.7L656.5,9h-66.6l-86.1,265.1L459.6,9h-83.1L250.6,294.7l18.8-119.4h-125l-9.6,61.5H187l-6,32.9
			c-30,11.9-80.9,7.5-102.6-31.5c-13.7-24.7-26.5-79.7,31.4-130.3c47.2-41.2,128.8-48.7,176-26.9c0,0,6-34.5,10.5-66.6
			c-90.6-31.5-161-5.2-208.1,24C24,78-6.9,138.6,1.3,220.9c9.5,95.6,133.3,155.8,238.1,95.1c1-0.6,1.7-1,2.4-1.4l-9.9,22.4h70.4
			l44.2-98.1h77.9l17.2,98.1h114.6l58.4-183.4L652,337h44.9l87.6-202.9l8.9,202.9h67.4L846.7,9H765.8 M373.4,175.3l28.5-63.6
			l12.3,63.6H373.4z"/>
		<polyline points="866.1,337 1054.1,337 1065.3,266.6 947.7,266.6 957.1,208.2 1059.3,208.2 1070.6,137.8 967.2,137.8 976.2,79.4 
			1093.8,79.4 1105,9 918.5,9 866.1,337 		"/>
		<polyline points="1784.1,116.1 1742.2,9 1665.1,9 1744.4,182 1720,337 1787.4,337 1808.1,200 1929.4,9 1850.8,9 1784.1,116.1 		
			"/>
		<path d="M1600.4,11.9c-74.7-17.2-152.2,42.3-173.1,132.9c-21,90.6,22.6,178.1,97.3,195.4c74.7,17.3,152.2-42.2,173.1-132.9
			C1718.6,116.6,1675,29.1,1600.4,11.9 M1626.7,204.7c-18.2,54.6-61.8,85.9-97.5,69.9c-35.6-16-49.8-73.1-31.6-127.6
			c18.2-54.6,61.8-85.8,97.4-69.9C1630.8,92.9,1644.9,150.1,1626.7,204.7z"/>
		<path d="M1333.1,10.9c-36.4-0.6-126.3,0-126.3,0h0.7l-52,325.4c0,0,107.8,0,151.6,0c62.4,0,153.7-92,70.6-167.1
			C1463.2,80.7,1378.5,11.7,1333.1,10.9 M1293.7,273.2c-37.2,0-59.4,0-59.4,0l10.4-65.4c0,0,14.1,0,56.5,0
			C1354.7,207.8,1353.2,273.2,1293.7,273.2z M1301.9,140.9c-37.2,0-46.8,0-46.8,0l10.4-60.9c0,0,1.5,0,43.8,0
			C1356.9,80,1347.3,140.9,1301.9,140.9z"/>
	</g>
</g>
</svg>
