<svg enable-background="new 0 0 3839 447.1" version="1.1" viewBox="0 0 3839 447.1" xml:space="preserve" xmlns="http://www.w3.org/2000/svg">
<path fill="#232F95" d="m1348.9 9c48.3 0 78.2 20.7 106.6 54.5 10.4-9.8 21.5-18.6 33.5-26.1 30-18.7 63.1-28.2 96.1-28.4h448.8l-29.8 46.9h564.7l51.1 88.1 46.7-88.1h373.6l93.8 73.6v-73.6h705v337.8h-650.5l-94.8-73.7v73.7h-527.1l-35.9-58.1c-28.9 32.5-80.7 58-165.6 58l-516.5 0.2-7.1 46.8h-180.9l4-25.5c-1.8 1.2-3.6 2.5-5.4 3.6-41.7 26.1-89.6 34.6-134.7 24.2-34.6-8-64.6-26.5-88-51.9-30.4 30-71.4 49.6-110.4 49.6h-888.3l-14.1-80.4-36.3 80.4h-148.3c-46.7 7.9-93.7 1.7-135.4-19.7-58-29.7-96.1-83.4-102.1-143.7-10.1-100.2 28.3-180.3 111-231.4 79.4-49.2 163.7-58.8 250.7-28.7l16 5.6 6-13.7h166l12.5 75.3 24.5-75.3"/><path fill="#FFF" d="m267.25781 55.525391c-51.84711-0.503808-93.96956 17.648847-125.45703 37.173828-62.399936 38.599961-92.400381 97.400471-84.400389 177.400391 9.19999 92.79991 129.399319 151.30033 231.199219 92.40039 0.9-0.5 1.60078-1.00039 2.30078-1.40039l-9.59961 21.70117h68.29883l42.90039-95.20117h75.59961l16.70117 95.20117h111.29883l56.70117-178.10156 36.39844 178.10156h43.60156l85.09961-197 8.69922 197h65.5l-13.79883-318.400389h-78.5l-74.20117 174.499999-32-174.499999h-64.69922l-83.59961 257.400389-42.90039-257.400389h-80.70117l-122.19922 277.298829 18.19922-116h-121.39844l-9.30078 59.70117h50.69922l-5.79883 32c-29.09997 11.59999-78.49963 7.20035-99.59961-30.59961-13.29999-23.89997-25.69994-77.40005 30.5-126.5 45.79996-39.99996 125.09848-47.20115 170.89844-26.20117 0 0 5.80118-33.49925 10.20117-64.699219-27.49997-9.562491-53.07571-13.645997-76.64258-13.875zm1315.73629 8.71289c-63.2597 1.060937-123.132 54.873519-140.8945 131.960939-20.4 87.99991 22.0001 173.00119 94.5 189.70117s147.7996-40.9997 168.0996-129.09961c20.4-87.89991-22.0001-172.901187-94.5-189.701171-9.0625-2.087498-18.168-3.01289-27.2051-2.861328zm-634.89449 0.16211-50.90039 318.499999h182.49998l11-68.40039h-114.29881l9.09961-56.69922h99.3008l10.8984-68.30078h-100.29881l8.69921-56.80078h114.2012l10.8984-68.298829h-181.09959zm724.90039 0 77.0996 167.900389-23.6992 150.59961h65.4004l20.0996-133.09961 117.7988-185.400389h-76.2988l-64.7012 103.999999-40.6992-103.999999h-75zm-356.4062 1.546875c-39.4875-0.084375-88.5938 0.251953-88.5938 0.251953h0.6992l-50.5 316.000001h147.2012c60.5999 0 149.2995-89.2989 68.5996-162.29883 82.9999-85.89991 0.7992-153.001172-43.3008-153.701171-8.85-0.15-20.943-0.223828-34.1054-0.251953zm914.6054 45.953124v185.19922l-109.5996-181.79883-1.9004-3.20117h-56.5996l-1.9004 3.20117-124.6992 210.09961-5.9004 9.90039h49v0.09961h109v-49.40039h-64.0996l64.1992-115.69922 90.6016 161.69922 1.8984 3.30078h73l-0.0996-0.20117h112.2012c96.6999 0 145.7988-37.7989 145.7988-112.29883 0-12.89999-1.7004-24.90118-4.9004-35.70117l87.8008 144.90039 1.9004 3.09961h42.7988l1.9004-3.29883 121.9004-210.10156 5.8008-9.69922h-68.5l-1.9004 3.40039-78.4004 142.5-83.1992-142.59961-1.9004-3.30078h-73.5996l6 9.90039 14.0996 23.29883c-22.7-21.59998-57.4012-33.29883-102.7012-33.29883h-148zm745.2012 0.09961v185.40039l-109.8008-182.09961-1.9004-3.20117h-56.5996l-1.9004 3.20117-124.6992 210.09961-5.9004 9.90039h66.5l0.2012-0.20117h91.5v-49.40039h-64.2012l64.0996-115.39844 90.6016 161.59961 1.8984 3.40039h73.1016l-0.1016-0.10156h36.9004v-134.59961l167.2012 133.20117 1.7988 1.39844h44v-223.19922h-52.5-6.5996v132.69922l-167.8008-131.29883-1.7988-1.40039h-44zm353.2988 0c-45.8999 0-61.3984 14.20082-61.3984 56.30078v110.59961c0 41.99996 15.4985 56.19922 61.3984 56.19922h130.9004c46 0 61.5-14.19926 61.5-56.19922v-31.30078h-6.5l-51.5-0.09961h-6.5996v34.40039h-124.6992v-117.90039h124.6992v31h6.5996l51.5 0.19922h6.5996v-26.89844c-0.1-42.59996-14.9996-56.30078-61.5996-56.30078h-130.9004zm213.4004 0v223.19922h241v-52.09961h-6.5-169.9004v-39.09961h101.4004v-49.19922h-101.4004v-32.30078h173.9004v-50.5h-238.5zm-1958.1699 14.26953c6.821-0.1675 13.5828 1.125 20.0703 4.03125 34.7 15.59999 48.5008 71.10005 30.8008 124-17.7 52.99995-60.0012 83.39842-94.7012 67.89844-34.6-15.49999-48.3992-71.00005-30.6992-124 14.3-43.06246 44.9715-71.20383 74.5293-71.92969zm-299.9297 7.03125h42.5996c46.2 0 36.8007 59.19922-7.1992 59.19922h-45.5l10.0996-59.19922zm1011 29.29883h83.9004c45.3999 0 66.5 18.40121 66.5 57.70117 0 46.99995-22.9005 62.79883-90.9004 62.79883h-59.5v-120.5zm-1849.59961 1.40039 12 61.80078h-39.59961l27.59961-61.80078zm818.50001 93.40039h54.7988c51.9 0 50.5007 63.5-7.1992 63.5h-57.6992l10.0996-63.5z"/>
</svg>
