<?xml version="1.0" encoding="utf-8"?>
<!-- Generator: Adobe Illustrator 25.4.1, SVG Export Plug-In . SVG Version: 6.00 Build 0)  -->
<svg version="1.1" id="Layer_1" xmlns="http://www.w3.org/2000/svg" xmlns:xlink="http://www.w3.org/1999/xlink" x="0px" y="0px"
	 viewBox="0 0 3839 447.1" style="enable-background:new 0 0 3839 447.1;" xml:space="preserve">
<style type="text/css">
	.st0{fill:#232F95;}
	.st1{fill:#FFFFFF;}
	.st2{fill:url(#SVGID_1_);}
	.st3{fill:url(#SVGID_00000031177864340325883760000018198346995320477615_);}
	.st4{fill:url(#SVGID_00000077306554045697521040000014862057651926347657_);}
	.st5{fill:url(#SVGID_00000157293655052773840150000004048095913754004660_);}
	.st6{fill:url(#SVGID_00000126322641464604716520000004697712119385894836_);}
	.st7{fill:url(#SVGID_00000011752243778178168440000004865533557051679380_);}
	.st8{fill:url(#SVGID_00000152256897450393880980000005003888097249151926_);}
	.st9{fill:url(#SVGID_00000103235660146449029100000009480701047893171128_);}
	.st10{fill:url(#SVGID_00000015351676586980646730000017558538143836198052_);}
	.st11{fill:url(#SVGID_00000173843404184191385190000011588040615121952650_);}
	.st12{fill:url(#SVGID_00000080185906595213889900000006518194604873275026_);}
	.st13{fill:url(#SVGID_00000035530060332090122920000003458952914409005247_);}
	.st14{fill:url(#SVGID_00000134224958793449053370000017542897941572621733_);}
	.st15{fill:url(#SVGID_00000090282962740583288450000018121472694854771879_);}
	.st16{fill:url(#SVGID_00000076595297256079744580000016179865903418930356_);}
	.st17{fill:url(#SVGID_00000110459505768582756850000011444846151491140774_);}
	.st18{fill:url(#SVGID_00000013176404037946005510000005263777537333737119_);}
	.st19{fill:url(#SVGID_00000103237811259585549150000004791301777528316076_);}
	.st20{fill:url(#SVGID_00000052068756957872543270000013859974003734962358_);}
	.st21{fill:url(#SVGID_00000097497076771088658600000004224769650002279834_);}
	.st22{fill:url(#SVGID_00000098924633826494017840000015657113215716461745_);}
	.st23{fill:url(#SVGID_00000016758077711946862690000006842921789492120727_);}
	.st24{fill:url(#SVGID_00000181801996498053652350000000195856083618658953_);}
	.st25{fill:url(#SVGID_00000183230439685392926510000013488748977968398008_);}
	.st26{fill:url(#SVGID_00000031192204429060811130000008328842349604864668_);}
	.st27{fill:url(#SVGID_00000145039946612851608290000001965063853407875206_);}
	.st28{fill:url(#SVGID_00000080207606700936517740000010164549898874956677_);}
	.st29{fill:url(#SVGID_00000093155419685178671060000003242326224771820194_);}
	.st30{fill:url(#SVGID_00000062180036006405802920000000848429864445772725_);}
	.st31{fill:url(#SVGID_00000165202209686020532970000005140788951039794334_);}
	.st32{fill:url(#SVGID_00000155113970602612937360000005331340469465145482_);}
	.st33{fill:url(#SVGID_00000028288288372136441200000012148204990816606643_);}
	.st34{fill:url(#SVGID_00000181809922936381458430000002053721568941494715_);}
	.st35{fill:url(#SVGID_00000158722742465649428390000007431360310813259957_);}
	.st36{fill:url(#SVGID_00000120540888053252929670000002883377364913281195_);}
	.st37{fill:url(#SVGID_00000131332430798487195830000011554556929491190666_);}
	.st38{fill:url(#SVGID_00000165201033152833904090000014287079352421331371_);}
	.st39{fill:url(#SVGID_00000048461655322054267350000005724913079682781327_);}
	.st40{fill:url(#SVGID_00000164497131431341984610000000538131690439746748_);}
	.st41{fill:url(#SVGID_00000173148712747452676220000004561578997877299101_);}
	.st42{fill:url(#SVGID_00000090995311592126846790000005257324180402602652_);}
	.st43{fill:url(#SVGID_00000080192074409287641570000003856489607809772449_);}
	.st44{fill:url(#SVGID_00000162327362306183126720000002941417844667329419_);}
	.st45{fill:url(#SVGID_00000156572145942456075340000014879851156700024489_);}
	.st46{fill:url(#SVGID_00000157307820062130217540000011444234916379720873_);}
	.st47{fill:url(#SVGID_00000026130963376459890420000013717915497071763113_);}
	.st48{fill:url(#SVGID_00000165935039126179354830000015398752244898391183_);}
	.st49{fill:url(#SVGID_00000082329401069194308120000001863621577248632988_);}
	.st50{fill:url(#SVGID_00000152965054256506643200000001858738650942739374_);}
	.st51{fill:url(#SVGID_00000153694541886114958300000008027986760914815929_);}
	.st52{fill:url(#SVGID_00000090992695888386512930000006908531235906278813_);}
	.st53{fill:url(#SVGID_00000149365834515298238850000016129323409804723080_);}
	.st54{fill:url(#SVGID_00000033356266878934795690000018047126302236794764_);}
	.st55{fill:url(#SVGID_00000150782655499750807630000017417957649152569763_);}
	.st56{fill:url(#SVGID_00000129186075821026243100000015133566215749619897_);}
	.st57{fill:url(#SVGID_00000032614835441444894380000007091170831799964850_);}
	.st58{fill:url(#SVGID_00000098201938489229132180000011541175183789626502_);}
	.st59{fill:url(#SVGID_00000114071763306274877840000012159083268380834740_);}
	.st60{fill:url(#SVGID_00000089532505070629115800000003291716303796449169_);}
	.st61{fill:url(#SVGID_00000039847523278476634110000013548525153086135681_);}
	.st62{fill:url(#SVGID_00000179647256647928030520000002929460643579102086_);}
	.st63{fill:url(#SVGID_00000022526786401203173330000009397651829641778816_);}
	.st64{fill:url(#SVGID_00000080183791822058078170000007481614088918097854_);}
	.st65{fill:url(#SVGID_00000080179851011846897160000006669195932457480872_);}
	.st66{fill:url(#SVGID_00000104702409411705109140000015333292382087422884_);}
	.st67{fill:url(#SVGID_00000136402977602429805600000005414842045549691310_);}
	.st68{fill:url(#SVGID_00000060014694630153615560000014888741173465948089_);}
	.st69{fill:url(#SVGID_00000165226677225321172130000011438122556031847338_);}
	.st70{fill:url(#SVGID_00000007426441044465862620000016651784176313473951_);}
	.st71{fill:url(#SVGID_00000014619818173855479650000000551167508897545610_);}
	.st72{fill:url(#SVGID_00000080887181501129226690000012926323397733587374_);}
	.st73{fill:url(#SVGID_00000168830541455917314130000016958862612577881514_);}
	.st74{fill:url(#SVGID_00000023966292777417549930000016899165269776528775_);}
	.st75{fill:url(#SVGID_00000142176838944230529990000009129261171964506287_);}
	.st76{fill:url(#SVGID_00000039134611379142784340000007341092608508496559_);}
	.st77{fill:url(#SVGID_00000151532722936956418940000011166293714218572707_);}
	.st78{fill:url(#SVGID_00000129186068379183694900000000448793230967231931_);}
	.st79{fill:url(#SVGID_00000040561366555256275470000009554397923461006727_);}
	.st80{fill:url(#SVGID_00000147208005868276455890000009188345790555975552_);}
	.st81{fill:url(#SVGID_00000100368392204861429140000003968417735081883521_);}
	.st82{fill:url(#SVGID_00000104688035818063566220000000657316101437277067_);}
	.st83{fill:url(#SVGID_00000021809438253813398660000015327390342726466458_);}
	.st84{fill:url(#SVGID_00000062884378917126118330000000311351234670043566_);}
	.st85{fill:url(#SVGID_00000108273318094434217500000012755135956479336878_);}
	.st86{fill:url(#SVGID_00000085238305201700013890000006360382318624603041_);}
	.st87{fill:url(#SVGID_00000125595160645531327970000007279041171341743782_);}
	.st88{fill:url(#SVGID_00000025421814871216009190000005429484236315715763_);}
	.st89{fill:url(#SVGID_00000074410211840528379310000004645287692760387754_);}
	.st90{fill:url(#SVGID_00000047777001908415000510000003868391478360323767_);}
	.st91{fill:url(#SVGID_00000025423550090936622890000006141194199626385853_);}
	.st92{fill:url(#SVGID_00000056427662710317725330000015526947894837114778_);}
	.st93{fill:url(#SVGID_00000117647728299981443390000008922157639416065946_);}
	.st94{fill:url(#SVGID_00000132089253974196579360000002104462299250921625_);}
	.st95{fill:url(#SVGID_00000157998533272815270520000002400885975681700008_);}
	.st96{fill:url(#SVGID_00000137102629026309211180000008346266926722174385_);}
	.st97{fill:url(#SVGID_00000177460723562230754630000013817154624188392377_);}
	.st98{fill:url(#SVGID_00000031185057738972142630000001788134153544233367_);}
	.st99{fill:url(#SVGID_00000036967522654094600130000005970208354290496439_);}
	.st100{fill:url(#SVGID_00000052089528250139758830000013372740860794995366_);}
	.st101{fill:url(#SVGID_00000150089265843662614940000000865299881051209346_);}
	.st102{fill:#502F8E;}
	.st103{fill:url(#SVGID_00000024699569107530869200000016421465317352286365_);}
	.st104{fill:url(#SVGID_00000043433548175719944010000016882651152469027512_);}
	.st105{fill:url(#SVGID_00000083799573907750886320000007204380855183792312_);}
	.st106{fill:url(#SVGID_00000019678682122115154670000002089461411855760041_);}
	.st107{fill:url(#SVGID_00000018226988649243664290000007992429940284618139_);}
	.st108{fill:url(#SVGID_00000100358746069453970940000006755284004389071507_);}
	.st109{fill:url(#SVGID_00000181792621109090740650000008930998128829218948_);}
	.st110{fill:url(#SVGID_00000021811594066322103190000016513776853397082778_);}
	.st111{fill:url(#SVGID_00000002368421012645308350000009319941571516720537_);}
	.st112{fill:url(#SVGID_00000114758457742764543940000015388220471720681360_);}
	.st113{fill:url(#SVGID_00000044863443386113932620000011220132146135423105_);}
	.st114{fill:url(#SVGID_00000176733195745129359410000015115918068469310383_);}
	.st115{fill:url(#SVGID_00000106129184722127287930000015982084843702377857_);}
	.st116{fill:url(#SVGID_00000047753531010008487180000006510608164746200757_);}
	.st117{fill:url(#SVGID_00000082355445699975567420000013732973350235400865_);}
	.st118{fill:url(#SVGID_00000164488109399672038530000018266673360996058018_);}
	.st119{fill:url(#SVGID_00000052816195459792618710000001335044588656166323_);}
	.st120{fill:url(#SVGID_00000085222908140079158890000017495347334463291035_);}
	.st121{fill:url(#SVGID_00000003094385910051616420000005723347757108349859_);}
	.st122{fill:url(#SVGID_00000080166674447834367800000002757628276384783279_);}
	.st123{fill:url(#SVGID_00000132774603183267013480000007687795196524175535_);}
	.st124{fill:url(#SVGID_00000138563996803558437910000002610540932177853097_);}
	.st125{fill:url(#SVGID_00000051361607679542297570000003353632838930156190_);}
	.st126{fill:url(#SVGID_00000180353724754494411480000017830977569698092690_);}
	.st127{fill:url(#SVGID_00000121997318634199767590000016798133446923314334_);}
	.st128{fill:url(#SVGID_00000102515481481813843640000013952716258602880136_);}
	.st129{fill:url(#SVGID_00000162317656474541220170000005812544325488472489_);}
	.st130{fill:url(#SVGID_00000063626958361335265170000011253371488942038694_);}
	.st131{fill:url(#SVGID_00000003783195719854632040000009349664849844218794_);}
	.st132{fill:url(#SVGID_00000067936345859797181990000018386592041512494245_);}
	.st133{fill:url(#SVGID_00000183226503419038763800000014620350894006891916_);}
	.st134{fill:url(#SVGID_00000028288006152437517190000018286547520056347796_);}
	.st135{fill:url(#SVGID_00000034800898896046855140000005575120226301051837_);}
	.st136{fill:url(#SVGID_00000036971576252598868850000008173320639188899972_);}
	.st137{fill:url(#SVGID_00000168819241543565808660000006689237254142856085_);}
	.st138{fill:url(#SVGID_00000109719162310150735100000000955341923228655748_);}
	.st139{fill:url(#SVGID_00000024702378435474470560000009154308895884907171_);}
	.st140{fill:url(#SVGID_00000160167134123171661070000000012628938711069593_);}
	.st141{fill:url(#SVGID_00000079481259155223656860000009777957411438226618_);}
	.st142{fill:url(#SVGID_00000118365750165717813420000009043158926158924954_);}
	.st143{fill:url(#SVGID_00000129888726201773760480000003158157778392468363_);}
	.st144{fill:url(#SVGID_00000041998220183285676760000015007119141939475132_);}
	.st145{fill:url(#SVGID_00000081647690211214329950000014314546330696546211_);}
	.st146{fill:url(#SVGID_00000148621787781382835810000018334665938518380971_);}
	.st147{fill:url(#SVGID_00000167373599153250391500000011868138258379689092_);}
	.st148{fill:url(#SVGID_00000016052046506615077630000008948416376168849815_);}
	.st149{fill:url(#SVGID_00000097479710851211671260000005383191313540400285_);}
	.st150{fill:url(#SVGID_00000083804079242567337830000003504611671309188756_);}
	.st151{fill:url(#SVGID_00000034061257970885059610000001129688858307496626_);}
	.st152{fill:url(#SVGID_00000057838455755256180760000007917195639626907065_);}
	.st153{fill:url(#SVGID_00000015314749785396903200000003279863878018633887_);}
	.st154{fill:url(#SVGID_00000060732511483013614520000007031851101894164888_);}
	.st155{fill:url(#SVGID_00000015313935787965913920000004481517573504169620_);}
	.st156{fill:url(#SVGID_00000145743269943052383990000009735896423800822189_);}
	.st157{fill:url(#SVGID_00000027575561215856776280000005174317095965349020_);}
	.st158{fill:url(#SVGID_00000153665167111230549380000016854258863477828768_);}
	.st159{fill:url(#SVGID_00000036965063595022746120000009328422138832770205_);}
	.st160{fill:url(#SVGID_00000150068628667513966010000004067315998622286526_);}
	.st161{fill:url(#SVGID_00000079487372423263266180000002808792699210515616_);}
	.st162{fill:url(#SVGID_00000017485367163531415460000003563473848029241494_);}
	.st163{fill:url(#SVGID_00000019657620434205160920000016757655097019871906_);}
	.st164{fill:url(#SVGID_00000062901935209157517890000014056620137685045664_);}
	.st165{fill:url(#SVGID_00000138559264762773290980000000227959122878700721_);}
	.st166{fill:url(#SVGID_00000093140650628589792770000014303721318699433134_);}
	.st167{fill:url(#SVGID_00000039094715976919904920000017709461816662144925_);}
	.st168{fill:url(#SVGID_00000116931846507233627750000009994919734089172904_);}
	.st169{fill:url(#SVGID_00000091701902907897855420000016623541213792524209_);}
	.st170{fill:url(#SVGID_00000141436113587167072290000000017117392389600394_);}
</style>
<g>
	<path class="st0" d="M1348.9,9c48.3,0,78.2,20.7,106.6,54.5c10.4-9.8,21.5-18.6,33.5-26.1c30-18.7,63.1-28.2,96.1-28.4h448.8
		l-29.8,46.9h564.7l51.1,88.1l46.7-88.1h373.6l93.8,73.6l0-73.6H3839v337.8h-650.5l-94.8-73.7v73.7h-527.1l-35.9-58.1
		c-28.9,32.5-80.7,58-165.6,58l-516.5,0.2l-7.1,46.8h-180.9l4-25.5c-1.8,1.2-3.6,2.5-5.4,3.6c-41.7,26.1-89.6,34.6-134.7,24.2
		c-34.6-8-64.6-26.5-88-51.9c-30.4,30-71.4,49.6-110.4,49.6H437.8l-14.1-80.4l-36.3,80.4H239.1c-46.7,7.9-93.7,1.7-135.4-19.7
		C45.7,391.2,7.6,337.5,1.6,277.2C-8.5,177,29.9,96.9,112.6,45.8C192-3.4,276.3-13,363.3,17.1l16,5.6L385.3,9h166l12.5,75.3L588.3,9
		"/>
	<g>
		<path class="st1" d="M2769.3,112h-68.5l-1.9,3.4l-78.4,142.5l-83.2-142.6l-1.9-3.3h-73.6l6,9.9l14.1,23.3
			c-22.7-21.6-57.4-33.3-102.7-33.3h-148v185.2l-109.6-181.8l-1.9-3.2h-56.6l-1.9,3.2l-124.7,210.1l-5.9,9.9h49v0.1h109v-49.4h-64.1
			l64.2-115.7l90.6,161.7l1.9,3.3h73l-0.1-0.2h112.2c96.7,0,145.8-37.8,145.8-112.3c0-12.9-1.7-24.9-4.9-35.7l87.8,144.9l1.9,3.1
			h42.8l1.9-3.3l121.9-210.1L2769.3,112 M2355.5,283.1H2296V162.6h83.9c45.4,0,66.5,18.4,66.5,57.7
			C2446.4,267.3,2423.5,283.1,2355.5,283.1z"/>
		<polyline class="st1" points="3196.6,112 3190,112 3190,244.7 3022.2,113.4 3020.4,112 2976.4,112 2976.4,297.4 2866.6,115.3 
			2864.7,112.1 2808.1,112.1 2806.2,115.3 2681.5,325.4 2675.6,335.3 2742.1,335.3 2742.3,335.1 2833.8,335.1 2833.8,285.7 
			2769.6,285.7 2833.7,170.3 2924.3,331.9 2926.2,335.3 2999.3,335.3 2999.2,335.2 3036.1,335.2 3036.1,200.6 3203.3,333.8 
			3205.1,335.2 3249.1,335.2 3249.1,112 3196.6,112 		"/>
		<path class="st1" d="M3460.6,112h-130.9c-45.9,0-61.4,14.2-61.4,56.3v110.6c0,42,15.5,56.2,61.4,56.2h130.9
			c46,0,61.5-14.2,61.5-56.2v-31.3l-6.5,0l-51.5-0.1h-6.6v34.4h-124.7V164h124.7v31l6.6,0l51.5,0.2l6.6,0v-26.9
			C3522.1,125.7,3507.2,112,3460.6,112"/>
		<polyline class="st1" points="3777.6,283.1 3607.7,283.1 3607.7,244 3709.1,244 3709.1,194.8 3607.7,194.8 3607.7,162.5 
			3781.6,162.5 3781.6,112 3543.1,112 3543.1,335.2 3784.1,335.2 3784.1,283.1 3777.6,283.1 		"/>
	</g>
	<g>
		<path class="st1" d="M799.8,64.4l-74.2,174.5l-32-174.5h-64.7l-83.6,257.4L502.4,64.4h-80.7L299.5,341.7l18.2-116H196.3l-9.3,59.7
			h50.7l-5.8,32c-29.1,11.6-78.5,7.2-99.6-30.6c-13.3-23.9-25.7-77.4,30.5-126.5c45.8-40,125.1-47.2,170.9-26.2
			c0,0,5.8-33.5,10.2-64.7c-88-30.6-156.3-5.1-202.1,23.3c-62.4,38.6-92.4,97.4-84.4,177.4c9.2,92.8,129.4,151.3,231.2,92.4
			c0.9-0.5,1.6-1,2.3-1.4l-9.6,21.7h68.3l42.9-95.2h75.6l16.7,95.2h111.3l56.7-178.1l36.4,178.1h43.6l85.1-197l8.7,197h65.5
			L878.3,64.4H799.8 M418.8,225.8l27.6-61.8l12,61.8H418.8z"/>
		<polyline class="st1" points="897.2,382.9 1079.7,382.9 1090.7,314.5 976.4,314.5 985.5,257.8 1084.8,257.8 1095.7,189.5 
			995.4,189.5 1004.1,132.7 1118.3,132.7 1129.2,64.4 948.1,64.4 897.2,382.9 		"/>
		<polyline class="st1" points="1788.7,168.4 1748,64.4 1673,64.4 1750.1,232.3 1726.4,382.9 1791.8,382.9 1811.9,249.8 
			1929.7,64.4 1853.4,64.4 1788.7,168.4 		"/>
		<path class="st1" d="M1610.2,67.1c-72.5-16.7-147.8,41-168.1,129.1c-20.4,88,22,173,94.5,189.7s147.8-41,168.1-129.1
			C1725.1,168.9,1682.7,83.9,1610.2,67.1 M1635.8,254.3c-17.7,53-60,83.4-94.7,67.9c-34.6-15.5-48.4-71-30.7-124
			c17.6-53,60-83.4,94.6-67.9C1639.7,145.9,1653.5,201.4,1635.8,254.3z"/>
		<path class="st1" d="M1350.7,66.2c-35.4-0.6-122.7,0-122.7,0h0.7l-50.5,316c0,0,104.6,0,147.2,0c60.6,0,149.3-89.3,68.6-162.3
			C1477,134,1394.8,66.9,1350.7,66.2 M1312.5,320.9c-36.1,0-57.7,0-57.7,0l10.1-63.5c0,0,13.7,0,54.8,0
			C1371.6,257.4,1370.2,320.9,1312.5,320.9z M1320.4,192.5c-36.1,0-45.5,0-45.5,0l10.1-59.2c0,0,1.4,0,42.6,0
			C1373.8,133.3,1364.4,192.5,1320.4,192.5z"/>
	</g>
</g>
</svg>
