<svg width="1009.9" height="207.55" version="1.0" viewBox="-1.6118 -1.6118 261.01 53.726" xmlns="http://www.w3.org/2000/svg">
 <path d="m255.89-1.6118c-2.0556 0-3.7155 1.6602-3.7155 3.711 0 2.0557 1.6599 3.7155 3.7155 3.7155 2.0557 0 3.7161-1.6599 3.7161-3.7155 0-2.0508-1.6604-3.711-3.7161-3.711zm0.0147 0.32711c1.9043 0 3.3252 1.4794 3.3252 3.3788 0 1.875-1.4307 3.3935-3.3252 3.3935-1.8994 0-3.3495-1.5086-3.3495-3.3884 0-1.9092 1.4306-3.3839 3.3495-3.3839zm-6.6894 0.45402c-3.2666 1.4307-9.6629 3.0618-12.593 3.0618v2.041c0.6836-0.2002 1.1573-0.26897 2.1144-0.26897 2.2461 0 2.7196 0.88404 2.7196 2.1048v15.449c-2.7881-1.084-4.4238-1.4258-8.2324-1.4258-8.9844 0-15.718 7.6171-15.718 17.075 0 8.2324 6.5965 14.497 14.219 14.497 3.4668 0 6.9434-1.162 9.7315-3.1346 0.20019 1.1572 0.7519 2.7243 1.2255 3.5447 2.4512-1.0937 8.3691-3.3399 10.342-3.3399v-2.041c-0.74707 0.41015-1.294 0.679-2.041 0.679-1.2256 0-1.7675-0.61048-1.7675-1.9728zm5.3274 0.73714v4.39h0.37565v-2.0264h1.1426l1.3186 2.0264h0.41963l-1.3084-2.0168c0.62011-0.09765 1.128-0.44406 1.128-1.1618 0-0.7959-0.43471-1.2114-1.4308-1.2114zm0.37565 0.33217h1.2109c0.52734 0 1.1133 0.19527 1.1133 0.8691 0 0.7666-0.72225 0.83017-1.3863 0.83017h-0.93786zm-232.04 2.7443-14.971 36.128c-3.7402 9.1162-5.0342 9.7993-9.7315 10.073v2.041c5.791-0.20507 6.4651-0.20476 8.1692-0.20476 1.6309 0 2.3144-3.08e-4 8.1591 0.20476v-2.041c-4.2187-0.06836-5.0341-0.82034-5.0341-2.583 0-0.68359 0.14162-1.6354 1.8408-6.3962l1.9723-5.5129h15.586l2.7195 6.3967c1.4307 3.3984 1.9045 4.829 1.9045 5.5761 0 1.8408-1.0892 2.5193-4.9027 2.5193v2.041c4.7607-0.06836 7.6904-0.20476 10.415-0.20476 2.7197 0 5.7131 0.1364 10.405 0.20476v-2.041c-3.5352 0-5.1711-1.0885-6.9387-5.0387l-18.437-41.162zm123.93 7.827c-2.9932 3.7402-9.7998 9.0431-13.267 11.089v2.041h5.5124v18.779c0 6.8701 4.219 8.9842 7.7542 8.9842 0.47852 0 1.0203-0.0731 1.5623-0.20982l7.4169-4.6928-1.1522-1.904c-1.4307 1.3623-2.998 2.3146-4.4921 2.3146-2.3779 0-3.3348-1.7042-3.3348-3.7403v-19.531h8.1642l1.0936-3.1346h-9.2578zm-126.38 3.8086 7.3482 17.486h-13.603zm41.45 5.5129c-3.6084 1.8359-10.205 3.7404-11.909 4.0138v2.1725c0.74707-0.26856 1.4939-0.40497 1.904-0.40497 1.7676 0 2.2463 0.81535 2.2463 2.6513v17.417c0 2.1826-1.2255 3.2029-3.3348 3.2029h-0.54199v2.041c2.1777-0.06836 5.6445-0.20476 7.7587-0.20476 2.1045 0 5.5759 0.1364 7.7537 0.20476v-2.041h-0.54654c-2.1045 0-3.3303-1.0203-3.3303-3.2029v-18.232c2.2461-1.8359 4.6922-2.8616 6.6014-2.8616 2.9883 0 5.0296 1.5726 5.0296 4.3607v16.733c0 2.1826-1.2209 3.2029-3.3303 3.2029h-0.54654v2.041c2.1777-0.06836 5.6445-0.20476 7.7587-0.20476 2.1045 0 5.581 0.1364 7.7587 0.20476v-2.041h-0.54704c-2.1094 0-3.3348-1.0203-3.3348-3.2029v-18.232c2.6514-2.041 4.8973-2.8616 6.8016-2.8616 1.9726 0 4.8339 0.62021 4.8339 5.3809v14.493c0 3.8769-1.0251 4.4234-4.5553 4.4234v2.041c1.9678-0.06836 5.8545-0.20476 8.2324-0.20476 2.3779 0 6.2549 0.1364 8.2324 0.20476v-2.041c-2.5879 0-4.1504-0.61503-4.1504-3.0613v-17.016c0-6.3867-3.7451-8.9746-8.0322-8.9746-3.1299 0-6.8068 1.5625-11.431 5.3076-0.95215-3.1299-3.4671-5.3076-7.8275-5.3076-3.3301 0-6.2547 1.1524-11.494 5.3076zm58.73 0c-7.8906 0-11.63 4.0821-11.63 9.3164 0 10.205 15.576 10.073 15.576 15.927 0 2.5879-2.5148 4.2823-5.7814 4.2823-3.4717 0-7.1484-1.7626-8.0322-7.4169h-2.036v7.4169c3.0615 1.4307 6.7383 2.0461 8.916 2.0461 8.4326 0 12.925-4.0188 12.925-9.595 0-9.5947-15.581-9.9366-15.581-15.723 0-2.7197 2.2411-4.2186 5.0341-4.2186 4.2188 0 6.9387 3.2717 7.554 7.2122h1.904l-0.27353-7.9589c-2.9297-0.81543-5.7812-1.2892-8.5742-1.2892zm48.448 0c-3.6084 1.8359-10.215 3.7404-11.509 4.0138v2.1725c0.75195-0.26856 1.5038-0.40497 1.9091-0.40497 1.7676 0 2.2463 0.81535 2.2463 2.6513v17.417c0 2.1826-1.2255 3.2029-3.3348 3.2029h-0.54198v2.041c1.8359-0.06836 5.3073-0.20476 7.4801-0.20476 1.9775 0 5.4445 0.1364 7.6222 0.20476v-2.041h-0.54198c-2.1094 0-3.3298-1.0203-3.3298-3.2029v-14.829c2.0361-2.5195 4.2822-3.8086 6.1181-3.8086 2.3828 0 3.4031 1.2208 3.9451 2.8566h1.7675v-9.6633c-0.88379-0.27344-1.7673-0.40497-2.6462-0.40497-2.8662 0-5.7864 1.6993-9.053 8.7062h-0.13145zm32.109 0c-6.875 0-15.718 3.7403-15.718 8.9746 0 1.2305 0.27326 2.3194 1.0936 3.5401l7.6172-3.0568c-0.61035-1.2939-0.95202-2.5198-0.95202-3.2034 0-2.7197 2.0407-3.4031 4.0133-3.4031 2.5146 0 5.3127 1.4309 5.3127 5.3127v6.3279c-12.251 1.4941-17.764 4.219-17.764 10.137 0 3.335 3.5352 6.9432 7.5489 6.9432 2.5244 0 6.6748-1.0206 10.615-3.7403 0.0684 1.0156 0.41 2.6466 1.0936 3.7403 2.583-1.2305 9.2533-3.7403 10.069-3.7403v-2.0461c-1.5674 0.61035-2.0414 0.68355-2.3783 0.68355-1.0254 0-1.4354-0.27794-1.4354-1.7721v-15.449c0-6.46-5.2344-9.2482-9.1162-9.2482zm32.739 2.036c2.8564 0 5.0294 0.81549 7.5489 2.7979v21.563c-1.0889 0.47363-2.5878 1.2255-4.8339 1.2255-6.665 0-11.089-7.5488-11.089-14.224 0-6.5967 3.1299-11.363 8.374-11.363zm-31.372 14.224v7.3436c0 0.96191 0.0685 1.9826 0.13196 2.5881-1.2256 0.95703-3.13 1.4308-4.8976 1.4308-2.9248 0-4.6974-1.9043-4.6974-4.9659 0-2.9932 3.5402-5.7814 9.463-6.3967z"/>
</svg>