<svg version="1.1" viewBox="0 0 23.665 28" xmlns="http://www.w3.org/2000/svg">
 <path d="m17.292 0-0.07617 0.015625c-3.6634 0.74946-5.555 3.0454-5.623 6.8242l-2e-3 0.072266 0.07227-0.00977c1.7451-0.27322 3.0422-0.89811 3.9648-1.9102 1.0431-1.1445 1.5872-2.7523 1.6621-4.9141zm-9.9609 6.541c-2.5216 0.028186-4.6297 1.256-5.9395 3.4141h20.504v2e-3c0.24116-0.2403 0.50017-0.47805 0.7793-0.71094l0.04687-0.03906-0.03906-0.04687c-1.3593-1.6768-3.2207-2.5812-5.3828-2.6153h-0.09766c-1.0957 0-2.0654 0.20527-2.8027 0.59375-0.95618 0.50358-1.6669 0.61422-1.6738 0.61523-0.01249 0.00187-0.09198 0.00586-0.30664 0.00586-0.26056 0-0.48472-0.00604-0.51172-0.00977l-0.01758-0.00195c-0.30663-0.039669-1.0872-0.16816-1.7207-0.50586-0.86101-0.45901-1.8217-0.70117-2.7754-0.70117zm-5.9395 3.416-0.017578 0.0293c-0.62829 1.0426-1.0446 2.2485-1.2422 3.5547h0.001953l-0.007813 0.05274c-0.16623 1.1325-0.16546 2.3053-0.011718 3.4883h-0.001953l0.009766 0.07031c0.13703 1.0249 0.41768 2.269 0.95703 3.6445h0.00391l0.033203 0.08594c0.49075 1.2258 1.1273 2.4097 1.9043 3.5449l0.068359 0.09766c0.6055 0.8735 1.2987 1.7221 2.0625 2.5254 0.58171 0.61142 1.5087 0.94922 2.6094 0.94922 0.80666 0 1.6437-0.19063 2.1836-0.49609 1.1168-0.63115 1.7086-0.63214 2.1406-0.63281 0.08674 0 0.16813 4.58e-4 0.24609-0.0039l0.07031-0.0059c0.09349-0.0056 0.18998-0.01172 0.29883-0.01172 0.38308 0 0.95408 0.07436 1.9941 0.66211 0.72583 0.30444 1.4294 0.45898 2.0918 0.45898h2e-3c1.8034 0 3.3847-1.1282 4.834-3.4473l0.05859-0.0957h-2e-3c0.71233-1.1545 1.2986-2.426 1.8145-3.543l0.04102-0.08789 0.13086-0.2832-0.05469-0.02734c-1.0747-0.53206-2.5158-1.6964-3.3359-3.3691l-0.01563-0.03516h2e-3c-0.49581-1.0185-0.73891-2.1952-0.49219-3.4668l0.01367-0.07422h-2e-3c0.24807-1.1999 0.91756-2.3637 2.0098-3.4785l0.10352-0.10547z"/>
</svg>
