<?xml version="1.0" standalone="no"?>
<!DOCTYPE svg PUBLIC "-//W3C//DTD SVG 20010904//EN"
 "http://www.w3.org/TR/2001/REC-SVG-20010904/DTD/svg10.dtd">
<svg version="1.0" xmlns="http://www.w3.org/2000/svg"
 width="313.978852pt" height="511.500000pt" viewBox="0 0 313.978852 511.500000"
 preserveAspectRatio="xMidYMid meet">
<metadata>
Created by potrace 1.13, written by Peter Selinger 2001-2015
</metadata>
<g transform="translate(-99.108128,512.000000) scale(0.100000,-0.100000)"
fill="#ffffff" stroke="none">
<path d="M1208 5105 c-59 -22 -125 -72 -158 -121 -65 -93 -60 94 -58 -2439 l3
-2310 24 -50 c32 -63 93 -124 156 -156 l50 -24 1200 0 1200 0 50 24 c63 32
124 93 156 156 l24 50 3 741 c2 741 2 742 -19 800 -35 93 -94 143 -307 259
-100 55 -182 104 -182 109 0 6 29 73 65 150 63 136 67 142 108 159 149 61 214
235 143 381 -29 59 -64 94 -130 129 -58 31 -184 31 -242 0 -104 -55 -155 -136
-156 -246 0 -36 5 -81 12 -101 11 -34 8 -43 -51 -171 l-62 -135 -87 48 c-47
26 -269 148 -493 272 l-407 225 0 1133 0 1132 -402 -1 c-315 0 -411 -3 -440
-14z"/>
<path d="M2222 3983 l3 -1128 40 3 c207 17 389 307 466 742 27 147 36 461 20
621 -44 426 -197 761 -393 858 -36 19 -77 31 -100 31 l-38 0 2 -1127z"/>
<path d="M3581 4572 c-395 -165 -425 -179 -439 -208 -28 -61 10 -124 74 -124
50 0 861 334 892 367 51 56 11 144 -65 142 -25 0 -180 -60 -462 -177z"/>
<path d="M3159 4041 c-16 -16 -29 -39 -29 -51 0 -37 28 -77 61 -89 21 -7 169
-11 446 -11 441 0 457 2 483 49 18 34 12 80 -15 106 l-24 25 -446 0 -447 0
-29 -29z"/>
<path d="M3158 3700 c-26 -27 -30 -36 -25 -67 4 -20 14 -44 24 -54 10 -9 211
-96 447 -193 455 -188 456 -188 504 -144 27 26 30 86 5 116 -22 26 -856 372
-896 372 -18 0 -39 -11 -59 -30z"/>
</g>
</svg>
