<svg width="313.98pt" height="511.5pt" preserveAspectRatio="xMidYMid" version="1.0" viewBox="0 0 313.98 511.5" xmlns="http://www.w3.org/2000/svg">
 <path d="m105.9 0-40.2 0.099609c-31.5 0-41.101 0.30039-44.001 1.4004-5.9 2.2-12.5 7.1996-15.8 12.1-6.5 9.3-5.9993-9.3989-5.7993 243.9l0.30029 231 2.3994 4.9995c3.2 6.3 9.3006 12.401 15.601 15.601l4.9995 2.3994h240l4.9995-2.3994c6.3-3.2 12.401-9.3006 15.601-15.601l2.3994-4.9995 0.30029-74.101c0.2-74.1 0.2001-74.2-1.8999-80-3.5-9.3-9.4002-14.3-30.7-25.9-10-5.5-18.199-10.4-18.199-10.9 0-0.6 2.8995-7.3 6.4995-15 6.3-13.6 6.7003-14.201 10.8-15.901 14.9-6.1 21.4-23.499 14.3-38.099-2.9-5.9-6.4005-9.4009-13-12.901-5.8-3.1-18.399-3.1-24.199 0-10.4 5.5-15.501 13.601-15.601 24.601 0 3.6 0.49971 8.1001 1.1997 10.1 1.1 3.4 0.80087 4.2991-5.0991 17.099l-6.2007 13.5-8.6997-4.7988c-4.7-2.6-26.901-14.801-49.301-27.201l-40.699-22.5v-113.3zm17 1.0005 0.20069 112.7 0.30029 112.8 3.999-0.30029c20.7-1.7 38.9-30.7 46.6-74.2 2.7-14.7 3.601-46.099 2.001-62.099-4.4-42.6-19.7-76.1-39.3-85.8-3.6-1.9-7.7005-3.0996-10-3.0996zm182.3 36.1c-2.5 0-18 5.9997-46.2 17.7-39.5 16.5-42.5 17.901-43.9 20.801-2.8 6.1 1.0004 12.4 7.4004 12.4 5 0 86.1-33.4 89.2-36.7 5.1-5.6 1.099-14.4-6.501-14.2zm-85.5 67.9-2.8989 2.9004c-1.6 1.6-2.9004 3.8991-2.9004 5.0991 0 3.7 2.7996 7.7004 6.0996 8.9004 2.1 0.7 16.9 1.1001 44.6 1.1001 44.1 0 45.7-0.19991 48.3-4.8999 1.8-3.4 1.2-7.9996-1.5-10.6l-2.4009-2.5005h-44.599zm2.9004 34c-1.8 0-3.9004 1.1-5.9004 3-2.6 2.7-2.999 3.6002-2.499 6.7002 0.4 2 1.3994 4.3994 2.3994 5.3994 1 0.9 21.1 9.5993 44.7 19.299 45.5 18.8 45.601 18.801 50.401 14.401 2.7-2.6 2.9995-8.6001 0.49951-11.6-2.2-2.6-85.6-37.2-89.6-37.2z"/>
</svg>
