<svg version="1.1" viewBox="0 0 493.59 128.46" xmlns="http://www.w3.org/2000/svg">
 <path d="m376.09 0v55.508c-2.9493-3.0607-5.8157-5.2604-8.5977-6.5957-4.8413-2.3373-10.015-3.5059-15.523-3.5059-9.46 0-17.835 3.1456-25.125 9.4336-9.1813 7.902-13.773 18.473-13.773 31.717 0 13.021 4.4801 23.483 13.439 31.385 7.512 6.622 16.082 9.9336 25.709 9.9336 5.9547 0 11.268-1.3085 15.941-3.9238 2.6713-1.5027 5.3144-3.8951 7.9297-7.1777v8.5957h27.377l2e-3 -125.37zm-337.2 45.406c-9.4593 0-17.833 3.1456-25.123 9.4336-9.1813 7.902-13.773 18.473-13.773 31.717 0 13.021 4.4795 23.483 13.438 31.385 7.5127 6.622 16.082 9.9336 25.709 9.9336 5.954 0 11.267-1.3085 15.941-3.9238 2.6713-1.5027 5.3163-3.8951 7.9316-7.1777v8.5957h27.379v-77.459h-27.379v7.5977c-2.9493-3.0607-5.8157-5.2604-8.5977-6.5957-4.8413-2.3373-10.016-3.5059-15.525-3.5059zm217.86 0c-9.4593 0-17.835 3.1456-25.125 9.4336-9.1813 7.902-13.771 18.473-13.771 31.717 0 13.021 4.4788 23.483 13.438 31.385 7.5127 6.622 16.082 9.9336 25.709 9.9336 5.954 0 11.269-1.3085 15.943-3.9238 2.6713-1.5027 5.3144-3.8951 7.9297-7.1777v8.5957h27.379l-2e-3 -77.459h-27.377v7.5977c-2.9493-3.0607-5.8157-5.2604-8.5977-6.5957-4.8413-2.3373-10.016-3.5059-15.525-3.5059zm-58.4 0.08398c-14.134 0-25.347 4.7861-33.639 14.357-6.6773 7.6793-10.016 16.638-10.016 26.877 0 10.183 3.3383 19.142 10.016 26.877 8.2913 9.5713 19.505 14.357 33.639 14.357 6.232 0 12.185-1.4198 17.861-4.2578v-23.289c-4.8967 3.3387-9.6261 5.0098-14.189 5.0098-5.4527 0-9.9602-1.7538-13.521-5.2598-3.5613-3.5053-5.3418-7.9842-5.3418-13.438s1.7805-9.9341 5.3418-13.439c3.5607-3.506 8.0682-5.2578 13.521-5.2578 4.6187 0 9.3481 1.6971 14.189 5.0918v-23.289c-5.5647-2.8933-11.518-4.3398-17.861-4.3398zm253 0.25c-13.689 0-24.289 3.8689-31.801 11.604-7.5127 7.7347-11.27 17.778-11.27 30.131 0 10.406 3.0056 19.227 9.0156 26.461 8.0127 9.682 19.975 14.523 35.891 14.523 12.52 0 22.509-3.4783 29.965-10.434 4.118-3.84 7.2343-9.266 9.3496-16.277h-26.461c-3.0607 4.8973-7.4555 7.3457-13.188 7.3457-11.24 0-16.861-5.8153-16.861-17.445h57.594v-3.5059c0-9.126-2.0318-17.139-6.0938-24.039-7.234-12.242-19.28-18.363-36.141-18.363zm-300.3 1.0859c-6.1773 0-11.521 1.3371-16.027 4.0078-3.3393 2.004-6.4543 5.259-9.3477 9.7656v-12.689h-27.379v77.459h27.379v-33.137c0-4.5073 0.49995-8.0962 1.502-10.768 2.6707-7.3447 8.5127-11.018 17.527-11.018 3.9507 0 7.8475 0.91791 11.688 2.7539v-26.125c-2.1147-0.16666-3.8951-0.25-5.3418-0.25zm301.38 16.275c8.4587 0 13.662 4.2855 15.609 12.855h-31.301c0.61133-3.6727 2.0578-6.595 4.3398-8.7656 2.8933-2.7267 6.6776-4.0898 11.352-4.0898zm-406.28 5.9277c4.8967 0 9.0715 1.7238 12.521 5.1738 3.45 3.394 5.1738 7.5408 5.1738 12.438 0 4.952-1.7238 9.1249-5.1738 12.52-3.394 3.394-7.5688 5.0918-12.521 5.0918-5.5087 0-9.9875-2.0584-13.438-6.1758-2.838-3.3387-4.2578-7.1509-4.2578-11.436 1e-6 -4.2853 1.4198-8.0969 4.2578-11.436 3.5053-4.1173 7.9842-6.1758 13.438-6.1758zm217.86 0c4.8967 0 9.0695 1.7238 12.52 5.1738 3.45 3.394 5.1738 7.5408 5.1738 12.438 0 4.952-1.7238 9.1249-5.1738 12.52-3.394 3.394-7.5669 5.0918-12.52 5.0918-5.5087 0-9.9894-2.0584-13.439-6.1758-2.838-3.3387-4.2559-7.1509-4.2559-11.436 0-4.2853 1.4179-8.0969 4.2559-11.436 3.5053-4.1173 7.9861-6.1758 13.439-6.1758zm95.213 0c4.8967 0 9.0695 1.7238 12.52 5.1738 3.45 3.394 5.1758 7.5408 5.1758 12.438 0 4.952-1.7271 9.1249-5.1777 12.52-3.3933 3.394-7.5662 5.0918-12.52 5.0918-5.5087 0-9.9875-2.0584-13.438-6.1758-2.838-3.3387-4.2578-7.1509-4.2578-11.436 0-4.2853 1.4185-8.0969 4.2559-11.436 3.5067-4.1173 7.9881-6.1758 13.441-6.1758z" stroke-linecap="round" stroke-linejoin="round" stroke-width="7"/>
</svg>
