<svg width="1024" height="386.86" version="1.0" viewBox="0 0 233.91 88.334" xmlns="http://www.w3.org/2000/svg">
 <path d="m0-0.016478v88.367h233.91v-88.367zm43.656 20.875c2.8259 0 5.2139 1.762 6.1563 4.2504l16.438 40.656h-9.8128l-3.8747-10.094h-17.813l-3.6566 10.094h-9.5938l15.969-40.625v-0.03123c0.93262-2.5012 3.364-4.2504 6.1875-4.2504zm67.469 0.03123h3.4375c-0.0122 1.4258 0.25714 15.579-1.9688 23.875-2.6154 9.7552-9.5985 19.809-19.875 20.844v-11.125c2.6788-0.02564 11.666-4.1441 15.156-11.656 3.1897-6.8664 3.2501-16.9 3.2501-21.938zm5.5312 0h4.0625s8e-3 18.652 0.53136 26.344c0.90027 13.234 4.8437 18.375 4.8437 18.375h-14.313c0-3e-6 3.6482-5.1058 4.4685-18.281 0.47245-7.5641 0.40643-26.438 0.40643-26.438zm6.125 0h3.4375c0 5.0378 0.0561 15.071 3.2501 21.938 3.4869 7.5122 12.445 11.631 15.125 11.656v11.125c-10.276-1.0345-17.229-11.089-19.844-20.844-2.2254-8.2959-1.9566-22.449-1.9688-23.875zm48.246 0.27839c0.63418 0.0042 1.3842 0.01981 1.8475 0.06558 7.4383 0.45166 13.437 6.3254 13.437 13.469 0 5.3259-3.4171 9.9042-8.2188 12.093-0.40649 0.19165-1.0026 0.44081-1.3438 0.84365-0.2179 0.32592-0.37476 0.67828-0.37476 1.0939 0 0.4596 0.17033 0.87584 0.43766 1.2189l13.062 15.781h-10.688l-11.375-13.438c-0.98389-1.1749-1.5783-2.6828-1.5624-4.3436 0.0195-1.7688 0.7417-3.3792 1.8751-4.5627 1.0095-0.97046 2.0497-1.4597 4.4685-2.3123 0.3601-0.12145 0.70301-0.27155 1.0002-0.40643 0.41809-0.16969 0.8351-0.36676 1.2184-0.59381 1.8933-1.0522 3.1564-3.0553 3.1564-5.3746 0-0.24354 1e-3 -0.48541-0.0312-0.71918-0.0195-0.15015-0.0277-0.31463-0.0625-0.46845-0.0195-0.10436-0.0601-0.20959-0.0937-0.31274-0.63049-2.5183-2.7948-4.4368-5.4688-4.6559-0.32593-0.04577-1.9827-0.09413-2.5314-0.09413h-6.0309c-1.1023 0-2 0.92593-2 2.0313v35.25h-8.9687v-37.969c0-3.6407 2.9527-6.5935 6.5935-6.5935h10.5s0.51863-0.0073 1.1528-0.0031zm-107.12 0.0031h31.156c1.5649 1e-6 2.8129 1.2512 2.8129 2.8125v4.7188h-13.907v37.063h-8.9687v-37.063h-13.937v-4.7188c-2e-6 -1.5613 1.2781-2.8125 2.8437-2.8125zm133.25 0h8.9375v44.594h-8.9375zm-153.63 10.406-6.0309 16.562h12.187z"/>
</svg>
