<?xml version="1.0" encoding="UTF-8" standalone="no"?>
<!-- Created with Inkscape (http://www.inkscape.org/) by Marsupilami -->
<svg
   xmlns:svg="http://www.w3.org/2000/svg"
   xmlns="http://www.w3.org/2000/svg"
   version="1.0"
   width="1024"
   height="387"
   viewBox="0 0 233.90503 88.366699"
   id="svg7719">
  <defs
     id="defs7721" />
  <g
     transform="translate(-54.367675,-36.753537)"
     id="layer1">
    <path
       d="M 43.49414,566.59717 L 230.61816,566.59717 L 230.61816,495.90381 L 43.49414,495.90381 L 43.49414,566.59717 z "
       transform="matrix(1.25,0,0,-1.25,0,745)"
       style="fill:#fff;fill-opacity:1;fill-rule:nonzero;stroke:none"
       id="path13509" />
    <path
       d="M 43.65625,20.875 C 40.832763,20.875 38.401375,22.623775 37.46875,25.125 L 37.46875,25.15625 L 21.5,65.78125 L 31.09375,65.78125 L 34.75,55.6875 L 52.5625,55.6875 L 56.4375,65.78125 L 66.25,65.78125 L 49.8125,25.125 C 48.870125,22.6366 46.482175,20.875 43.65625,20.875 z M 111.125,20.90625 C 111.125,25.944087 111.0647,35.9773 107.875,42.84375 C 104.3844,50.355963 95.397573,54.474362 92.71875,54.5 L 92.71875,65.625 C 102.99524,64.59045 109.97838,54.536489 112.59375,44.78125 C 114.8197,36.48535 114.5503,22.332025 114.5625,20.90625 L 111.125,20.90625 z M 116.65625,20.90625 C 116.65625,20.90625 116.72241,39.779664 116.25,47.34375 C 115.42969,60.519412 111.78125,65.624997 111.78125,65.625 L 126.09375,65.625 C 126.09375,65.625 122.15027,60.483652 121.25,47.25 C 120.72631,39.55835 120.71875,20.90625 120.71875,20.90625 L 116.65625,20.90625 z M 122.78125,20.90625 C 122.79346,22.332025 122.52465,36.485351 124.75,44.78125 C 127.36474,54.536487 134.31726,64.590454 144.59375,65.625 L 144.59375,54.5 C 141.91369,54.474363 132.95569,50.355962 129.46875,42.84375 C 126.27478,35.9773 126.21875,25.944088 126.21875,20.90625 L 122.78125,20.90625 z M 63.90625,21.1875 C 62.3407,21.1875 61.062499,22.438713 61.0625,24 L 61.0625,28.71875 L 75,28.71875 L 75,65.78125 L 83.96875,65.78125 L 83.96875,28.71875 L 97.875,28.71875 L 97.875,24 C 97.875,22.438713 96.627448,21.187501 95.0625,21.1875 L 63.90625,21.1875 z M 159.375,21.1875 C 155.73426,21.187499 152.78125,24.140512 152.78125,27.78125 L 152.78125,65.75 L 161.75,65.75 L 161.75,30.5 C 161.75,29.394663 162.6477,28.46875 163.75,28.46875 L 169.78125,28.46875 C 170.32996,28.468749 171.98656,28.516725 172.3125,28.5625 C 174.98645,28.781624 177.15076,30.700438 177.78125,33.21875 C 177.81482,33.321899 177.85546,33.426888 177.875,33.53125 C 177.90979,33.685064 177.91796,33.84985 177.9375,34 C 177.96985,34.233762 177.96875,34.475212 177.96875,34.71875 C 177.96876,37.038076 176.70581,39.0415 174.8125,40.09375 C 174.4292,40.3208 174.01185,40.517812 173.59375,40.6875 C 173.29651,40.822386 172.95385,40.9723 172.59375,41.09375 C 170.17493,41.946413 169.13453,42.435788 168.125,43.40625 C 166.99158,44.589725 166.26954,46.19995 166.25,47.96875 C 166.23414,49.629514 166.82861,51.137562 167.8125,52.3125 L 179.1875,65.75 L 189.875,65.75 L 176.8125,49.96875 C 176.54517,49.625736 176.375,49.2096 176.375,48.75 C 176.375,48.33435 176.5321,47.982175 176.75,47.65625 C 177.09118,47.253412 177.68726,47.00415 178.09375,46.8125 C 182.89539,44.623174 186.3125,40.044675 186.3125,34.71875 C 186.3125,27.575188 180.31335,21.701663 172.875,21.25 C 171.94849,21.158451 169.875,21.1875 169.875,21.1875 L 159.375,21.1875 z M 197.15625,21.1875 L 197.15625,65.78125 L 206.09375,65.78125 L 206.09375,21.1875 L 197.15625,21.1875 z M 43.53125,31.59375 L 49.6875,48.15625 L 37.5,48.15625 L 43.53125,31.59375 z "
       transform="translate(54.367675,36.753537)"
       style="fill-opacity:1;fill-rule:nonzero;stroke:none"
       id="path13511" />
  </g>
</svg>
