<?xml version="1.0" encoding="UTF-8" standalone="no"?>
<!-- Created with Inkscape (http://www.inkscape.org/) by Marsupilami -->

<svg
   version="1.0"
   width="1024"
   height="387"
   viewBox="0 0 233.90503 88.366699"
   id="svg7719"
   sodipodi:docname="atari.svg"
   inkscape:version="1.1.1 (3bf5ae0d25, 2021-09-20, custom)"
   xmlns:inkscape="http://www.inkscape.org/namespaces/inkscape"
   xmlns:sodipodi="http://sodipodi.sourceforge.net/DTD/sodipodi-0.dtd"
   xmlns="http://www.w3.org/2000/svg"
   xmlns:svg="http://www.w3.org/2000/svg">
  <path
     id="path13509"
     style="fill:#ffffff;fill-opacity:1;fill-rule:nonzero;stroke:none;stroke-width:5.47231"
     d="M 0 0.072265625 L 0 386.92773 L 1024 386.92773 L 1024 0.072265625 L 0 0.072265625 z M 191.12109 91.458984 C 203.49256 91.458984 213.94669 99.172576 218.07227 110.06641 L 290.0332 288.05273 L 247.07422 288.05273 L 230.11133 243.86328 L 152.13086 243.86328 L 136.12305 288.05273 L 94.123047 288.05273 L 164.0332 110.20312 L 164.0332 110.06641 C 168.11609 99.116431 178.7603 91.458984 191.12109 91.458984 z M 486.48828 91.595703 L 501.53711 91.595703 C 501.4837 97.837525 502.66283 159.79902 492.91797 196.11719 C 481.46828 238.82411 450.89708 282.84004 405.9082 287.36914 L 405.9082 238.66406 C 417.63568 238.55182 456.97846 220.52207 472.25977 187.63477 C 486.22378 157.57451 486.48828 113.65057 486.48828 91.595703 z M 510.70312 91.595703 L 528.48828 91.595703 C 528.48828 91.595703 528.52182 173.25293 530.81445 206.92578 C 534.7557 264.86066 552.01953 287.36914 552.01953 287.36914 L 489.36133 287.36914 C 489.36133 287.36913 505.33264 265.01695 508.92383 207.33594 C 510.99214 174.22154 510.70312 91.595703 510.70312 91.595703 z M 537.51758 91.595703 L 552.56641 91.595703 C 552.56641 113.65058 552.81222 157.57451 566.79492 187.63477 C 582.06021 220.52207 621.27688 238.55181 633.00977 238.66406 L 633.00977 287.36914 C 588.02088 282.84006 557.58365 238.8241 546.13672 196.11719 C 536.39448 159.79903 537.57099 97.837525 537.51758 91.595703 z M 748.73242 92.814453 C 751.50879 92.832758 754.79225 92.901167 756.82031 93.101562 C 789.38426 95.078873 815.64648 120.793 815.64648 152.06641 C 815.64648 175.38248 800.68685 195.42524 779.66602 205.00977 C 777.88647 205.84878 775.27684 206.93956 773.7832 208.70312 C 772.82927 210.12997 772.14258 211.67254 772.14258 213.49219 C 772.14258 215.50425 772.88826 217.32646 774.05859 218.82812 L 831.24414 287.91602 L 784.45508 287.91602 L 734.65625 229.08789 C 730.34893 223.94419 727.7468 217.34283 727.81641 210.07227 C 727.90195 202.32873 731.06345 195.27873 736.02539 190.09766 C 740.44496 185.84912 744.99867 183.70744 755.58789 179.97461 C 757.16435 179.44292 758.66553 178.78582 759.9668 178.19531 C 761.79717 177.45244 763.62275 176.58969 765.30078 175.5957 C 773.5894 170.98912 779.11918 162.22006 779.11914 152.06641 C 779.11914 151.00023 779.12426 149.94134 778.98242 148.91797 C 778.89705 148.26064 778.86133 147.54056 778.70898 146.86719 C 778.62362 146.41031 778.44592 145.94962 778.29883 145.49805 C 775.53864 134.47327 766.06356 126.07453 754.35742 125.11523 C 752.93051 124.91486 745.67756 124.70312 743.27539 124.70312 L 716.87305 124.70312 C 712.04735 124.70312 708.11719 128.75671 708.11719 133.5957 L 708.11719 287.91602 L 668.85352 287.91602 L 668.85352 121.69336 C 668.85352 105.75477 681.78015 92.828121 697.71875 92.828125 L 743.68555 92.828125 C 743.68555 92.828125 745.95605 92.796148 748.73242 92.814453 z M 279.77148 92.828125 L 416.16797 92.828125 C 423.01907 92.828129 428.48242 98.305552 428.48242 105.14062 L 428.48242 125.79883 L 367.60156 125.79883 L 367.60156 288.05273 L 328.33789 288.05273 L 328.33789 125.79883 L 267.32227 125.79883 L 267.32227 105.14062 C 267.32226 98.305552 272.91775 92.828125 279.77148 92.828125 z M 863.11914 92.828125 L 902.24609 92.828125 L 902.24609 288.05273 L 863.11914 288.05273 L 863.11914 92.828125 z M 190.57227 138.38477 L 164.16992 210.89258 L 217.52344 210.89258 L 190.57227 138.38477 z "
     transform="matrix(0.22842288,0,0,0.22842288,0,-0.01647795)" />
</svg>
