<svg version="1.0" viewBox="0 0 194.37 95.559" xmlns="http://www.w3.org/2000/svg">
 <path d="m69.475 0c-11.531 8e-5 -23.38 3.8224-35.549 11.467-12.868 8.0897-22.297 18.281-28.285 30.578-1.0829 2.1658-2.0232 4.3964-2.8203 6.6894-0.79711 2.2932-1.4496 4.5868-1.959 6.8809l-0.66797 3.8203c-0.12832 1.0207-0.19337 1.8171-0.19336 2.3887-9.9988e-6 2.613 0.5421 5.0968 1.625 7.4531 1.4659 3.2506 3.6787 5.8469 6.6406 7.7891 2.9619 1.9422 6.1958 2.9141 9.7012 2.9141 2.4204 0 4.7939-0.49381 7.1191-1.4805 2.3252-0.98666 4.6356-2.5312 6.9297-4.6348 1.4639-1.3376 2.8005-2.8673 4.0117-4.5879 1.911-2.5468 3.63-5.287 5.1582-8.2188 0.38295-0.8282 1.2444-2.6418 2.582-5.4434l4.1094-9.1758 2.0059-4.3945c4.7787-10.576 8.5695-17.616 11.373-21.119 1.5922-1.9752 3.3112-3.5365 5.1582-4.6836 2.6751-1.5922 3.9821-2.6429 3.9199-3.1523-0.0642-0.63762-0.66943-0.95696-1.8164-0.95703-1.2113 7e-5 -2.6296 0.28787-4.2539 0.86133-1.6244 0.57359-3.232 1.3069-4.8242 2.1992-2.9299 1.6565-6.1786 5.191-9.7461 10.605-1.4659 2.23-3.8552 6.4348-7.168 12.613l-1.7207 3.5371-5.9238 13.666c-2.4847 5.6692-5.0336 10.223-7.6465 13.662-1.5923 2.0394-3.2314 3.584-4.9199 4.6348-1.6885 1.0508-3.4893 1.5762-5.4004 1.5762-4.0128 0-6.6563-2.0699-7.9316-6.2109-0.50939-1.847-0.76368-4.0134-0.76367-6.498-1e-5 -2.1016 0.35089-4.4889 1.0527-7.1641 1.147-4.0788 3.1528-8.5399 6.0195-13.381 2.8666-4.8409 6.275-9.5534 10.225-14.141 3.9495-4.5872 8.0587-8.6018 12.326-12.041 5.288-4.2693 10.432-7.3909 15.434-9.3652 5.0013-1.9742 10.051-2.9609 15.146-2.9609 10.767 8e-5 16.148 3.8855 16.148 11.656-9e-5 5.5428-2.4524 10.034-7.3574 13.475-1.5923 1.1452-6.1461 3.3432-13.664 6.5938-4.9052 2.1017-7.3594 4.2997-7.3594 6.5938 1.7827 2.3564 3.5668 4.6825 5.3516 6.9766 1.5922 2.1017 2.3886 4.1084 2.3887 6.0195v0.57422c-7e-5 3.2487-1.3366 6.0834-4.0117 8.5039-2.6752 2.4205-5.9574 3.9818-9.8438 4.6836 0.44516-0.70183 0.66791-1.7545 0.66797-3.1562-0.12643-1.2092-0.49211-2.2126-1.0977-3.0098-0.60566-0.79709-1.4819-1.2584-2.6289-1.3848-1.3376-0.19051-2.5007 0.24021-3.4883 1.291-0.98768 1.0508-1.4805 2.276-1.4805 3.6777-5e-5 1.0829 0.27101 2.1504 0.8125 3.2012 0.5414 1.0508 1.5438 1.9261 3.0098 2.627 1.4658 0.70086 3.5692 1.0527 6.3086 1.0527 1.528 1e-5 3.3426-0.33512 5.4453-1.0039 2.1025-0.66879 4.1103-1.6091 6.0215-2.8203 2.4846-1.5281 4.3948-3.2471 5.7324-5.1582 1.5922-2.2299 2.3886-4.5561 2.3887-6.9766v-1.5274c-8e-5 -3.3128-0.92365-5.9731-2.7715-7.9805-1.848-2.0073-4.2697-3.9027-7.2637-5.6855l-0.18945-0.76368c7.516-2.4846 15.035-4.9704 22.553-7.4551 6.9444-3.8222 10.416-9.3004 10.416-16.436-1e-4 -5.7974-2.1981-10.129-6.5938-12.996-4.3958-2.8666-10.542-4.2988-18.441-4.2988zm75.396 4.3945c-3.8243 7e-5 -8.5081 3.1857-14.049 9.5566-5.0336 5.7975-9.3665 12.518-12.998 20.162-0.63587 1.4018-1.2233 2.7551-1.7656 4.0606-0.54253 1.3055-1.0689 2.5958-1.5781 3.8711-0.9547 2.6752-1.688 5.0486-2.1973 7.1191-0.50949 2.0706-0.76378 4.2212-0.76367 6.4512-0.12843 1.0188-0.19152 1.9581-0.1914 2.8184-1.2e-4 0.86031-1.2e-4 1.7681 0 2.7227-0.50948 0.70185-1.7839 1.7999-3.8223 3.2969-2.0386 1.497-3.5358 2.2461-4.4922 2.2461-0.89248 1e-5 -1.609-0.14292-2.1504-0.42969-0.54155-0.28676-0.8126-0.74903-0.8125-1.3867-1e-4 -0.19052 0.063-0.5414 0.19141-1.0508 0.50927-1.6564 0.98827-3.0245 1.4336-4.1074 0.25457-0.70182 0.82627-2.0719 1.7188-4.1094l3.8242-8.6973c0.12626-0.44713-0.22365-0.78127-1.0508-1.0039-0.82735-0.22257-1.879-0.33394-3.1543-0.33398-2.0376 4e-5 -3.2164 0.22278-3.5352 0.66796-0.57363 1.0829-1.3691 2.5318-2.3887 4.3477-1.0198 1.8159-2.0084 3.4895-2.9629 5.0195-1.9754 3.1845-3.7909 5.6999-5.4473 7.5469-2.1017 2.3583-3.8523 3.5371-5.2539 3.5371-1.1471 1e-5 -1.8657-0.38145-2.1523-1.1465-0.28685-0.76501-0.42978-1.657-0.42969-2.6758-9e-5 -2.2941 0.55877-4.7632 1.6738-7.4062 1.1149-2.6431 2.5786-5.1427 4.3945-7.5 1.8158-2.3573 3.7437-4.3335 5.7812-5.9258 2.3582-1.8489 4.2999-2.7734 5.8281-2.7734 0.31874 4e-5 0.58979 0.0335 0.8125 0.0977 0.2225 0.0642 0.39794 0.41411 0.52539 1.0508 0.12724 0.63675 0.38252 1.1296 0.76562 1.4805 0.38289 0.35096 0.87768 0.62201 1.4824 0.8125 0.60453 0.19056 1.4482 0.28715 2.5312 0.28711 0.8281-0.0641 1.5595-0.38347 2.1973-0.95508 1.1469-1.0206 1.6575-2.1344 1.5293-3.3438-1.1e-4 -3.1864-1.9754-4.7793-5.9238-4.7793-3.2507 4e-5 -6.3881 0.73142-9.4141 2.1973-3.0262 1.4659-5.9092 3.4412-8.6484 5.9258-2.2281 2.0375-4.1541 4.1872-5.7793 6.4492-1.6254 2.2621-3.0112 4.6365-4.1562 7.1211-1.2754 3.0562-1.9141 5.6367-1.9141 7.7402-7e-5 2.2922 0.38234 4.2654 1.1465 5.9219 1.0828 2.613 3.1231 3.9199 6.1191 3.9199 1.7186 0 3.2779-0.30259 4.6797-0.9082 1.4016-0.6056 2.8663-1.61 4.3945-3.0117l1.7207-1.7168 0.86133 1.7168c0.89227 1.53 1.9755 2.7414 3.25 3.6328 1.2743 0.8914 2.7696 1.336 4.4883 1.3359 3.6957 1e-5 7.4235-1.6559 11.182-4.9688l1.8164-1.625 0.95703 1.625c0.95446 1.53 2.0692 2.7256 3.3438 3.5859 1.2743 0.86029 2.7715 1.291 4.4922 1.291 1.7185 1e-5 3.6445-0.46227 5.7793-1.3867 2.1345-0.92444 4.094-2.057 5.877-3.3945 0.50923-0.31883 1.0188-0.74761 1.5293-1.2891 0.5102-0.54144 0.9567-1.0352 1.3379-1.4805 0.57339 1.0829 1.147 1.9739 1.7207 2.6738 1.7846 2.23 3.9826 3.3457 6.5938 3.3457 1.3374 0 2.7223-0.30356 4.1562-0.9082 1.4337-0.60463 2.852-1.4168 4.2539-2.4375 1.7185-1.3376 3.0866-2.6426 4.1074-3.916 0.50921 1.7206 1.146 3.0256 1.9102 3.916 1.0186 1.2112 2.4221 1.8164 4.207 1.8164 1.7204 1e-5 3.7252-0.6052 6.0176-1.8164 1.6562-0.89042 3.0914-1.9411 4.3027-3.1523l-1.7207 3.1523-10.32 19.305c-0.70006 1.3376-1.0509 2.5164-1.0508 3.5352-1.6e-4 1.2734 0.63657 2.2926 1.9102 3.0586 0.44504 0.25467 0.89057 0.38279 1.3379 0.38281 1.0186-2e-5 2.0062-0.54212 2.9629-1.625 0.76388-0.82823 1.6569-2.2929 2.6758-4.3965l9.8418-20.26 6.6894-13.662 6.6894-13.57 2.4844-5.0644c0.25448-0.44711-8e-4 -0.78322-0.76563-1.0059-0.76522-0.22257-1.7834-0.33395-3.0566-0.33399-0.89256 4e-5 -1.7205 0.0493-2.4844 0.14453-0.76424 0.0953-1.2748 0.33384-1.5293 0.7168l-2.6758 5.543c-1.1472 2.228-2.3576 4.4743-3.6309 6.7363-1.2736 2.2621-2.6752 4.5399-4.2051 6.834-2.166 3.2487-3.95 5.4457-5.3516 6.5918-1.4019 1.1461-2.8666 1.7188-4.3945 1.7188-1.0189 1e-5 -1.5295-0.60518-1.5293-1.8144-1.7e-4 -1.4659 0.67007-3.6304 2.0078-6.4961 0.82804-1.8489 2.0049-4.175 3.5332-6.9766 1.2732-2.3582 2.5152-4.5562 3.7266-6.5938 0.95635-1.6564 1.7862-3.1211 2.4863-4.3965 0.38281-0.69985 0.60362-1.1473 0.66601-1.3398 0.25451-0.57154 0.0337-0.96779-0.66601-1.1914-0.70008-0.22353-1.6562-0.33589-2.8672-0.33593-0.76423 4e-5 -1.5774 0.0956-2.4375 0.28711-0.86047 0.19154-1.3543 0.38177-1.4824 0.57226l-3.916 6.4043c-1.2736 2.0375-2.4209 3.9497-3.4414 5.7344-1.2736 2.228-2.4524 4.4576-3.5352 6.6875l-0.57422 1.1484c-1.7188 3.3129-3.4062 5.7011-5.0625 7.166-1.6566 1.4649-3.2494 2.1973-4.7793 2.1973-1.7207 1e-5 -2.9153-0.41397-3.584-1.2422-0.66893-0.8282-1.0041-1.8474-1.0039-3.0586-1.5e-4 -0.50935 0.0334-0.89178 0.0977-1.1465 1.911-1.2112 3.63-2.5162 5.1602-3.916 1.911-1.7206 3.9177-3.9186 6.0195-6.5938 1.6563-2.1677 3.2806-4.4938 4.873-6.9766 2.2298-3.6316 4.1262-7.4057 5.6875-11.324 1.561-3.9184 2.3416-7.247 2.3418-9.9863-1.7e-4 -1.7827-0.33529-3.1212-1.0039-4.0137-0.66896-0.8923-1.8005-1.3378-3.3945-1.3379-2.4206 6e-5 -5.9237 2.3883-10.51 7.166-4.5864 4.7778-8.3772 9.9712-11.373 15.578l-2.0078 3.918c-2.1659 4.5221-3.5971 9.0463-4.2969 13.57l-0.67187 5.9219c-1.083 1.1471-2.4196 2.2313-4.0117 3.25-1.9754 1.2754-3.5998 1.9121-4.873 1.9121-1.9112 1e-5 -3.3769-0.6525-4.3965-1.959-1.0198-1.3065-1.5294-2.7554-1.5293-4.3476l5.1602-4.7774c2.3562-2.3582 4.4103-4.6045 6.1621-6.7383 1.7516-2.1337 3.4567-4.4115 5.1133-6.832 1.0205-1.53 1.8643-2.8202 2.5332-3.8711 0.66864-1.0508 1.3546-2.1813 2.0547-3.3926 2.4845-4.2052 4.4913-8.1557 6.0215-11.85 2.1015-5.0975 3.1522-9.2688 3.1524-12.518-1.5e-4 -1.911-0.39934-3.3925-1.1953-4.4434-0.79628-1.0508-2.1161-1.5761-3.9629-1.5762zm-1.1504 5.541c0.50922 7e-5 0.76353 0.38251 0.76368 1.1484-1.5e-4 1.847-1.3052 5.5413-3.916 11.084-2.2942 4.841-4.7466 9.4913-7.3574 13.951l-3.7266 5.9258c-2.5489 3.7581-5.7976 7.7086-9.7461 11.85 0.57146-4.2052 1.494-8.1557 2.7695-11.85 1.0186-2.9318 2.1974-5.8296 3.5352-8.6953 0.76392-1.6564 2.0699-4.2043 3.918-7.6445 1.8478-3.4401 4.3178-6.9284 7.4082-10.465 3.0901-3.5364 5.2063-5.3046 6.3516-5.3047zm17.586 11.943c0.69973 5e-5 1.0487 0.47907 1.0488 1.4356-1.6e-4 1.2113-0.76308 3.5374-2.291 6.9766-1.2114 2.6752-2.5499 5.4134-4.0156 8.2168l-1.9102 3.5371c-1.3377 2.228-2.9 4.3295-4.6836 6.3047-1.7839 1.9753-3.8548 3.919-6.2129 5.8301 0.447-2.6751 0.92604-4.8732 1.4356-6.5938 0.50922-1.7205 1.211-3.5677 2.1035-5.541l2.8652-5.8281c2.1015-3.5675 4.2364-6.7531 6.4023-9.5566 2.4845-3.1864 4.237-4.7812 5.2578-4.7812z"/>
</svg>
