<?xml version="1.0" encoding="UTF-8" standalone="no"?>
<!-- Created with Inkscape (http://www.inkscape.org/) -->
<svg
   xmlns:dc="http://purl.org/dc/elements/1.1/"
   xmlns:cc="http://creativecommons.org/ns#"
   xmlns:rdf="http://www.w3.org/1999/02/22-rdf-syntax-ns#"
   xmlns:svg="http://www.w3.org/2000/svg"
   xmlns="http://www.w3.org/2000/svg"
   xmlns:sodipodi="http://sodipodi.sourceforge.net/DTD/sodipodi-0.dtd"
   xmlns:inkscape="http://www.inkscape.org/namespaces/inkscape"
   width="210.41565"
   height="110.67734"
   id="svg2549"
   sodipodi:version="0.32"
   inkscape:version="0.46"
   version="1.0"
   sodipodi:docname="Bally Technologies logo.svg"
   inkscape:output_extension="org.inkscape.output.svg.inkscape">
  <defs
     id="defs2551">
    <inkscape:perspective
       sodipodi:type="inkscape:persp3d"
       inkscape:vp_x="0 : 526.18109 : 1"
       inkscape:vp_y="0 : 1000 : 0"
       inkscape:vp_z="744.09448 : 526.18109 : 1"
       inkscape:persp3d-origin="372.04724 : 350.78739 : 1"
       id="perspective2557" />
  </defs>
  <sodipodi:namedview
     id="base"
     pagecolor="#ffffff"
     bordercolor="#666666"
     borderopacity="1.0"
     gridtolerance="10000"
     guidetolerance="10"
     objecttolerance="10"
     inkscape:pageopacity="0.0"
     inkscape:pageshadow="2"
     inkscape:zoom="1.559283"
     inkscape:cx="105.20782"
     inkscape:cy="55.338669"
     inkscape:document-units="px"
     inkscape:current-layer="layer1"
     showgrid="false"
     showguides="true"
     inkscape:guide-bbox="true"
     inkscape:window-width="1024"
     inkscape:window-height="721"
     inkscape:window-x="-4"
     inkscape:window-y="-4" />
  <metadata
     id="metadata2554">
    <rdf:RDF>
      <cc:Work
         rdf:about="">
        <dc:format>image/svg+xml</dc:format>
        <dc:type
           rdf:resource="http://purl.org/dc/dcmitype/StillImage" />
      </cc:Work>
    </rdf:RDF>
  </metadata>
  <g
     inkscape:label="Layer 1"
     inkscape:groupmode="layer"
     id="layer1"
     transform="translate(-198.83313,-416.61096)">
    <path
       style="font-size:1376.05322266px;font-style:normal;font-weight:normal;text-align:start;line-height:125%;text-anchor:start;fill:#FFF;fill-opacity:1;stroke:none;stroke-width:1px;stroke-linecap:butt;stroke-linejoin:miter;stroke-opacity:1;font-family:Bitstream Vera Sans"
       d="M 277.89989,479.56175 L 277.89989,481.08985 C 277.89981,483.51035 277.10368,485.83556 275.51149,488.06549 C 274.17384,489.97661 272.26273,491.69622 269.77817,493.22432 C 267.867,494.43553 265.86014,495.37553 263.7576,496.04432 C 261.65493,496.71311 259.83958,497.04751 258.31153,497.0475 C 255.57216,497.04751 253.46955,496.69707 252.00371,495.9962 C 250.53776,495.29533 249.53409,494.41949 248.99269,493.36867 C 248.4512,492.31786 248.18047,491.251 248.18052,490.1681 C 248.18047,488.76637 248.67429,487.5401 249.66197,486.48927 C 250.64955,485.43846 251.81216,485.00832 253.14979,485.19883 C 254.29679,485.32522 255.17312,485.78695 255.77878,486.58404 C 256.38433,487.38116 256.75031,488.38435 256.87674,489.5936 C 256.87668,490.99535 256.65408,492.04714 256.20892,492.74897 C 260.09523,492.04714 263.376,490.48598 266.05122,488.06549 C 268.72631,485.64503 270.06389,482.81045 270.06396,479.56175 L 270.06396,478.98725 C 270.06389,477.07616 269.26776,475.06979 267.67556,472.96813 C 265.89076,470.67406 264.107,468.34885 262.32427,465.9925 C 262.32421,463.69843 264.77676,461.50056 269.68193,459.39888 C 277.19992,456.1483 281.75508,453.95043 283.34742,452.80527 C 288.25245,449.36416 290.705,444.87219 290.70509,439.32934 C 290.705,431.55861 285.32163,427.67322 274.55497,427.67314 C 269.45926,427.67322 264.41077,428.66036 259.40949,430.63458 C 254.40809,432.60894 249.26337,435.73077 243.97531,440.00008 C 239.70784,443.43935 235.59936,447.45257 231.64983,452.03976 C 227.70025,456.62704 224.29214,461.34114 221.42551,466.18205 C 218.55883,471.02303 216.55197,475.48293 215.40493,479.56175 C 214.70308,482.23692 214.35216,484.62532 214.35217,486.72694 C 214.35216,489.21158 214.60684,491.37737 215.11623,493.22432 C 216.39158,497.36537 219.03563,499.4359 223.04839,499.4359 C 224.95948,499.4359 226.75928,498.91049 228.4478,497.85967 C 230.13628,496.80886 231.77666,495.26374 233.36895,493.22432 C 235.98187,489.78511 238.53066,485.23093 241.01533,479.56175 L 246.9382,465.89626 L 248.65878,462.35886 C 251.97158,456.18037 254.36095,451.97614 255.82689,449.74614 C 259.39437,444.33172 262.64305,440.79627 265.57296,439.13979 C 267.16516,438.24748 268.77346,437.51453 270.39787,436.94094 C 272.02215,436.36748 273.43992,436.08072 274.6512,436.08065 C 275.79818,436.08072 276.40379,436.39956 276.46802,437.03718 C 276.53016,437.54661 275.22368,438.59743 272.5486,440.18963 C 270.70158,441.33674 268.98197,442.8979 267.38977,444.87311 C 264.58623,448.37653 260.79513,455.41632 256.01645,465.9925 L 254.01008,470.38726 L 249.9011,479.56175 C 248.56347,482.3633 247.70318,484.17816 247.32023,485.00636 C 245.79208,487.93816 244.07247,490.67748 242.16141,493.22432 C 240.95016,494.9449 239.61258,496.47398 238.14867,497.81156 C 235.85453,499.91514 233.54487,501.46025 231.21969,502.44691 C 228.89445,503.43357 226.5216,503.9269 224.10115,503.9269 C 220.59582,503.9269 217.3622,502.9558 214.40029,501.01358 C 211.43836,499.07137 209.22445,496.47495 207.75856,493.22432 C 206.67566,490.86801 206.13421,488.38337 206.13422,485.77041 C 206.13421,485.19885 206.19837,484.40271 206.32669,483.38202 L 206.99451,479.56175 C 207.50387,477.26766 208.15711,474.97404 208.95422,472.68088 C 209.75132,470.38778 210.69131,468.15832 211.77422,465.9925 C 217.76221,453.69574 227.19039,443.50253 240.0588,435.41284 C 252.22723,427.76848 264.07687,423.94627 275.60773,423.94619 C 283.50676,423.94627 289.65418,425.3796 294.05001,428.24618 C 298.44565,431.11291 300.64352,435.44498 300.64362,441.24239 C 300.64352,448.3775 297.17126,453.85614 290.22682,457.6783 C 282.70868,460.16298 275.19161,462.64761 267.67556,465.13221 L 267.86512,465.89626 C 270.85905,467.67909 273.28001,469.57415 275.12801,471.58146 C 276.97585,473.58883 277.89981,476.24892 277.89989,479.56175 L 277.89989,479.56175 z M 339.345,460.0667 C 341.95587,455.60685 344.40842,450.95643 346.70267,446.11542 C 349.31352,440.57269 350.61902,436.87782 350.61917,435.03081 C 350.61902,434.26488 350.36434,433.88188 349.85512,433.88181 C 348.70986,433.88188 346.59219,435.65009 343.5021,439.18645 C 340.41172,442.72293 337.94264,446.21123 336.09486,449.65136 C 334.2468,453.0916 332.94081,455.6399 332.17689,457.29628 C 330.83918,460.16201 329.66102,463.06074 328.64241,465.9925 C 327.36692,469.68643 326.44345,473.63598 325.87199,477.84117 C 329.82044,473.70014 333.06913,469.75058 335.61805,465.9925 L 339.345,460.0667 z M 362.18205,462.4551 C 363.64779,459.65167 364.98634,456.91235 366.19771,454.23714 C 367.72565,450.79798 368.48971,448.47277 368.48987,447.26151 C 368.48971,446.30503 368.13976,445.82677 367.44003,445.82672 C 366.41918,445.82677 364.66652,447.42001 362.18205,450.60643 C 360.0161,453.40995 357.88239,456.59545 355.78091,460.16294 L 352.91425,465.9925 C 352.02173,467.96585 351.32086,469.8128 350.81164,471.53335 C 350.30213,473.25395 349.82386,475.45182 349.37686,478.12696 C 351.73497,476.21587 353.80598,474.27269 355.5899,472.2974 C 357.37351,470.32217 358.93418,468.22053 360.27192,465.9925 L 362.18205,462.4551 z M 391.2336,479.56175 L 384.54376,493.22432 L 374.70146,513.48341 C 373.68255,515.58698 372.79115,517.05287 372.02727,517.8811 C 371.07057,518.96398 370.08294,519.50542 369.06437,519.50544 C 368.61705,519.50542 368.17086,519.37808 367.72582,519.12341 C 366.45223,518.3574 365.81552,517.33769 365.81568,516.06428 C 365.81552,515.04553 366.16547,513.86737 366.86553,512.5298 L 377.18609,493.22432 L 378.90667,490.07186 C 377.69528,491.28308 376.26147,492.3339 374.60522,493.22432 C 372.31289,494.43553 370.30652,495.04114 368.58611,495.04113 C 366.80121,495.04114 365.39947,494.43553 364.38089,493.22432 C 363.61668,492.3339 362.97997,491.0284 362.47076,489.30781 C 361.44992,490.58124 360.08026,491.88674 358.36178,493.22432 C 356.95989,494.245 355.54211,495.05766 354.10845,495.66229 C 352.67448,496.26693 351.28879,496.56924 349.95135,496.56924 C 347.34021,496.56924 345.14234,495.45427 343.35774,493.22432 C 342.78408,492.52443 342.21055,491.63303 341.63716,490.55013 C 341.25597,490.99535 340.81027,491.48868 340.30007,492.03012 C 339.78959,492.57157 339.27973,493.00172 338.7705,493.32055 C 336.98757,494.65814 335.02884,495.78915 332.89429,496.71359 C 330.75947,497.63804 328.83281,498.10027 327.1143,498.10026 C 325.3936,498.10027 323.89611,497.67012 322.62184,496.80983 C 321.34733,495.94954 320.23284,494.75437 319.27838,493.22432 L 318.32185,491.59997 L 316.50503,493.22432 C 312.74687,496.53716 309.01992,498.19359 305.32418,498.19358 C 303.60544,498.19359 302.10893,497.74789 300.83464,496.85649 C 299.56014,495.9651 298.47676,494.75437 297.58449,493.22432 L 296.7242,491.50665 L 295.00362,493.22432 C 293.47542,494.62606 292.0105,495.62973 290.60885,496.23533 C 289.20703,496.84094 287.64684,497.14374 285.92829,497.14374 C 282.93226,497.14374 280.89284,495.83727 279.81003,493.22432 C 279.04589,491.5679 278.66387,489.59361 278.66394,487.30144 C 278.66387,485.19787 279.30155,482.61798 280.577,479.56175 C 281.72203,477.07714 283.10724,474.70381 284.73263,472.44175 C 286.35787,470.17976 288.28452,468.03001 290.51261,465.9925 C 293.25184,463.5079 296.13454,461.53264 299.16072,460.0667 C 302.1867,458.60085 305.32505,457.8679 308.57579,457.86786 C 312.52426,457.8679 314.49855,459.46114 314.49866,462.64757 C 314.62687,463.85687 314.1175,464.97185 312.97056,465.9925 C 312.33276,466.56411 311.59981,466.88198 310.77171,466.9461 C 309.68871,466.94614 308.84495,466.85087 308.24042,466.66031 C 307.63568,466.46982 307.14186,466.1991 306.75897,465.84814 C 306.37587,465.49726 306.1207,465.00344 305.99346,464.36669 C 305.86601,463.73002 305.69104,463.37958 305.46854,463.31539 C 305.24583,463.25127 304.9751,463.21919 304.65636,463.21915 C 303.12815,463.21919 301.18497,464.14364 298.82681,465.9925 C 296.78923,467.58479 294.86258,469.55957 293.04682,471.91683 C 291.23089,474.27415 289.76548,476.77433 288.6506,479.41739 C 287.53554,482.06049 286.97805,484.52908 286.97814,486.82318 C 286.97805,487.84193 287.12143,488.73381 287.40828,489.49882 C 287.69496,490.26386 288.41187,490.64637 289.55901,490.64636 C 290.96065,490.64637 292.71234,489.46724 294.81406,487.10897 C 296.47039,485.26203 298.28623,482.74629 300.26159,479.56175 C 301.21608,478.03172 302.20322,476.35877 303.22303,474.5429 C 304.24264,472.72709 305.03926,471.27772 305.61289,470.19479 C 305.93163,469.74961 307.10979,469.52701 309.14737,469.52697 C 310.42263,469.52701 311.47393,469.63831 312.30128,469.86088 C 313.12841,470.08352 313.47884,470.4184 313.35258,470.86553 L 309.5294,479.56175 C 308.63692,481.59924 308.06339,482.9689 307.80882,483.67072 C 307.3635,484.75363 306.88621,486.12329 306.37694,487.7797 C 306.24852,488.28908 306.18437,488.63903 306.18447,488.82955 C 306.18437,489.46724 306.45509,489.92946 306.99664,490.21622 C 307.53799,490.50299 308.25489,490.64637 309.14737,490.64636 C 310.10379,490.64637 311.60127,489.89787 313.63983,488.40086 C 315.67817,486.90387 316.95208,485.80445 317.46156,485.1026 C 317.46144,484.14803 317.46144,483.2406 317.46156,482.38029 C 317.46144,481.52002 317.5256,480.5805 317.65403,479.56175 C 317.65392,477.33182 317.9086,475.18158 318.41809,473.11103 C 318.92734,471.04053 319.65931,468.66769 320.61401,465.9925 C 321.12326,464.71716 321.64916,463.42673 322.1917,462.12119 C 322.734,460.81573 323.32307,459.46211 323.95894,458.06033 C 327.5905,450.41595 331.92305,443.695 336.9566,437.89747 C 342.49731,431.52653 347.17981,428.34103 351.00412,428.34096 C 352.85092,428.34103 354.17246,428.86644 354.96874,429.91719 C 355.76472,430.96807 356.16279,432.44903 356.16294,434.36007 C 356.16279,437.60882 355.11197,441.78196 353.01049,446.87948 C 351.48029,450.57343 349.47294,454.52298 346.98846,458.72815 C 346.28842,459.9394 345.60407,461.07041 344.93543,462.12119 C 344.26649,463.17205 343.42176,464.46248 342.40122,465.9925 C 340.74466,468.413 339.0406,470.6901 337.28905,472.82378 C 335.53723,474.95752 333.48323,477.20351 331.12705,479.56175 L 325.96531,484.33854 C 325.96518,485.93082 326.47504,487.38019 327.49487,488.68665 C 328.51446,489.99314 329.97986,490.64637 331.8911,490.64636 C 333.16439,490.64637 334.78873,490.00869 336.76413,488.73331 C 338.35626,487.71458 339.69384,486.63169 340.77687,485.48462 L 341.44761,479.56175 C 342.14736,475.03772 343.58021,470.51464 345.74614,465.9925 L 347.75251,462.07307 C 350.74831,456.46617 354.53942,451.27381 359.12584,446.49599 C 363.71194,441.71828 367.21531,439.3294 369.63595,439.32934 C 371.22999,439.3294 372.36149,439.77559 373.03045,440.66789 C 373.69907,441.56032 374.03347,442.8979 374.03364,444.68064 C 374.03347,447.42001 373.25289,450.74889 371.6919,454.66729 C 370.13057,458.58578 368.23502,462.36085 366.00524,465.9925 C 364.41281,468.47522 362.78847,470.80043 361.13221,472.96813 C 359.03042,475.64332 357.02405,477.84119 355.11309,479.56175 C 353.58289,480.96156 351.86231,482.26706 349.95135,483.47825 C 349.88705,483.73295 349.85497,484.11498 349.85512,484.62433 C 349.85497,485.83556 350.18937,486.85527 350.8583,487.68347 C 351.52695,488.51169 352.72163,488.92579 354.44236,488.92578 C 355.97226,488.92579 357.56549,488.19333 359.22207,486.7284 C 360.87834,485.26349 362.56586,482.87461 364.28466,479.56175 L 364.85916,478.41275 C 365.94189,476.18282 367.12005,473.95385 368.39364,471.72582 C 369.41415,469.94111 370.5612,468.03001 371.8348,465.9925 L 375.7513,459.58844 C 375.87944,459.39795 376.37374,459.20694 377.23421,459.0154 C 378.09432,458.82394 378.90649,458.72819 379.67072,458.72815 C 380.88176,458.72819 381.83731,458.83998 382.53739,459.06352 C 383.2371,459.28714 383.45971,459.68472 383.2052,460.25626 C 383.14281,460.44877 382.9202,460.89495 382.53739,461.59481 C 381.83731,462.87022 381.0091,464.33611 380.05275,465.9925 C 378.84136,468.03001 377.59905,470.22787 376.3258,472.58611 C 374.79752,475.38766 373.61936,477.71287 372.79132,479.56175 C 371.45357,482.42745 370.78478,484.59324 370.78495,486.05912 C 370.78478,487.2684 371.29415,487.87303 372.31306,487.87302 C 373.841,487.87303 375.30592,487.29999 376.70783,486.1539 C 378.10939,485.00783 379.89315,482.81045 382.05912,479.56175 C 383.58899,477.26766 384.99073,474.9896 386.26434,472.72754 C 387.53757,470.46555 388.74781,468.22053 389.89505,465.9925 L 392.57216,460.44873 C 392.82665,460.06577 393.33602,459.82664 394.10026,459.73133 C 394.86413,459.63611 395.69234,459.58848 396.5849,459.58844 C 397.85813,459.58848 398.87735,459.69978 399.64257,459.92235 C 400.4074,460.14499 400.66257,460.47988 400.40809,460.92699 L 397.92345,465.9925 L 391.2336,479.56175 z"
       id="text2559" />
  </g>
</svg>
