<svg version="1.0" viewBox="0 0 1664.5 1623" xmlns="http://www.w3.org/2000/svg">
 <path d="m837.01 0.077056c-546.09-0.21474-742.59 0.0052896-748.48 0.83789-38.129 5.397-70.55 32.359-83.076 69.088-5.8686 17.208-5.4473-40.086-5.4473 741.37 0 625.82 0.18709 718.31 1.4668 725.62 7.5414 43.095 40.628 76.588 83.273 84.299 11.985 2.1668 1482 2.2782 1494.4 0.1132 41.906-7.3389 74.131-38.728 83.703-81.531 1.5612-6.981 1.6777-57.392 1.6777-728.5 0-700.34-0.054-721.23-1.8672-729-9.2919-39.818-36.643-68.668-75.133-79.25l-10-2.75zm318.59 249.03c60.088-0.24123 64.182-0.14761 65.584 1.5 2.2398 2.633 164.74 285.89 166.9 290.92 1.0229 2.3864 2.3247 4.3379 2.8925 4.3379 0.7039 0 1.1125-47.159 1.2852-148.25l0.2539-148.25h125v528l-128.44 0.51562-1.4394-2.2578c-5.8559-9.1931-161.15-274.81-163.74-280.06-1.8171-3.6849-3.6559-6.6992-4.0859-6.6992-0.4301 0-0.8958 64.688-1.0352 143.75l-0.2539 143.75h-127v-527zm-985.09 0.25781h141c151.16 0 148.76-0.0711 172.46 5.1641 25.669 5.6697 42.654 14.52 60.795 31.678 19.189 18.15 30.069 38.252 36.621 67.658 7.0899 31.818 5.3121 56.933-6.0527 85.484-11.4 28.641-24.589 44.526-45.809 55.174-6.4025 3.2127-11.523 6.2918-11.377 6.8418s3.3431 2.1983 7.1055 3.6621c16.505 6.4216 30.433 17.778 44.389 36.195 17.088 22.552 22.359 42.172 22.365 83.262 3e-3 23.004-1.2708 32.442-6.4805 48.025-9.3277 27.902-29.402 55.815-52.84 73.477-20.072 15.124-46.92 24.387-85.678 29.555-10.993 1.4658-28.385 1.7114-144.26 2.043-107.35 0.30714-131.85 0.13541-132.26-0.92187-0.27125-0.71379-0.37722-119.65-0.23633-264.3zm660.79 0.74219 64.029 0.25781 90.412 260c49.727 143 90.666 261.46 90.975 263.25l0.5605 3.25h-134.3l-0.96094-2.25c-1.7415-4.0764-104.73-342.08-106.5-349.54-0.95364-4.0116-2.1985-7.1389-2.7676-6.9492s-2.7046 6.1711-4.7441 13.293c-2.0396 7.1219-19.07 61.116-37.846 119.99s-34.139 107.8-34.139 108.74c0 1.587 4.3735 1.7233 62.75 1.9629l62.75 0.25781v114l-148.75 0.25391c-146.64 0.24968-148.75 0.22498-148.75-1.6875 0-2.3734 180.79-522.06 182.23-523.82 0.8082-0.991 14.591-1.2028 65.053-1zm-495.29 104.97-41.5 0.28906-0.25781 153c-0.14128 84.15-0.0428 153.56 0.21875 154.25 0.73624 1.9355 99.57 1.7605 112.57-0.19922 36.192-5.4558 55.939-23.83 55.939-52.051 0-26.76-17.142-45.191-47.971-51.58-9.0912-1.884-15.062-2.2581-44.5-2.7969l-34-0.62305v-98l30.5-0.59766c32.983-0.64575 37.696-1.0296 48.822-3.9883 9.2998-2.4729 14.235-5.0039 19.848-10.178 7.8804-7.2639 11.743-15.757 13.268-29.174 1.9514-17.174-1.8126-31.15-11.049-41.023-14.344-15.334-29.047-17.834-101.89-17.328zm495.21 491.03 63.959 0.25781 91.396 262.96c50.269 144.63 91.043 263.32 90.607 263.76-0.4353 0.4352-30.906 0.6766-67.711 0.5351l-66.918-0.2578-51.723-169c-28.447-92.95-52.987-173.72-54.535-179.5-1.5482-5.775-3.2595-10.333-3.8027-10.129-0.54322 0.2036-1.9998 4.18-3.2363 8.8379-1.2365 4.658-18.245 58.675-37.797 120.04-19.552 61.362-35.317 112.17-35.035 112.9 0.41838 1.0903 11.945 1.3835 62.795 1.5938l62.285 0.2578v115l-148.69 0.2539c-83.535 0.1423-148.92-0.1285-149.23-0.6172-0.57829-0.9357 181.06-523.8 182.7-525.89 0.77158-0.991 14.511-1.2029 64.936-1zm-660.71 0.25781 121 0.01c120.49 9e-3 121.06 0.0181 135 2.25 32.605 5.2199 60.064 14.782 84.049 29.27 72.692 43.908 109.68 129.15 107.17 246.97-0.69669 32.662-3.9895 56.469-11.301 81.699-13.625 47.018-40.385 87.926-76.201 116.49-32.424 25.856-69.803 41.744-114.21 48.545-9.0759 1.39-26.403 1.6601-127.76 1.998-96.015 0.32-117.35 0.1545-117.76-0.918-0.27374-0.7203-0.38307-119.44-0.24219-263.81zm921 1h126v525l-62.779 0.2578c-49.693 0.2039-62.878 0-63.256-1-0.2625-0.6916-0.3615-118.93-0.2207-262.76zm-768 109.69-30 0.30859-0.25781 150.5c-0.14129 82.775-0.0428 151.06 0.21875 151.75 0.74478 1.9578 91.618 1.7548 104.81-0.2344 24.099-3.6325 43.176-12.931 57.793-28.168 23.305-24.293 34.323-58.427 35.619-110.35 1.2432-49.806-6.556-85.146-24.744-112.13-13.044-19.352-33.217-34.018-58.283-42.371-22.893-7.6285-42.297-9.7482-85.16-9.3066z"/>
</svg>
