<?xml version="1.0" encoding="UTF-8" standalone="no"?>
<!-- Created with Inkscape (http://www.inkscape.org/) -->
<svg
   xmlns:dc="http://purl.org/dc/elements/1.1/"
   xmlns:cc="http://web.resource.org/cc/"
   xmlns:rdf="http://www.w3.org/1999/02/22-rdf-syntax-ns#"
   xmlns:svg="http://www.w3.org/2000/svg"
   xmlns="http://www.w3.org/2000/svg"
   xmlns:sodipodi="http://sodipodi.sourceforge.net/DTD/sodipodi-0.dtd"
   xmlns:inkscape="http://www.inkscape.org/namespaces/inkscape"
   id="svg2"
   sodipodi:version="0.32"
   inkscape:version="0.45.1"
   width="1666"
   height="1624"
   version="1.0"
   sodipodi:docbase="/home/frambo/Scrivania"
   sodipodi:docname="Bandai_logo.svg"
   inkscape:output_extension="org.inkscape.output.svg.inkscape">
  <metadata
     id="metadata7">
    <rdf:RDF>
      <cc:Work
         rdf:about="">
        <dc:format>image/svg+xml</dc:format>
        <dc:type
           rdf:resource="http://purl.org/dc/dcmitype/StillImage" />
      </cc:Work>
    </rdf:RDF>
  </metadata>
  <defs
     id="defs5" />
  <sodipodi:namedview
     inkscape:window-height="727"
     inkscape:window-width="945"
     inkscape:pageshadow="2"
     inkscape:pageopacity="0.0"
     guidetolerance="10.0"
     gridtolerance="10.0"
     objecttolerance="10.0"
     borderopacity="1.0"
     bordercolor="#666666"
     pagecolor="#ffffff"
     id="base"
     inkscape:zoom="0.17721211"
     inkscape:cx="333.4676"
     inkscape:cy="1107.0218"
     inkscape:window-x="193"
     inkscape:window-y="140"
     inkscape:current-layer="svg2" />
  <g
     id="g2161"
     transform="translate(0,-2)">

    <path
       style="fill:#fff"
       d="M 85.739932,1623.4175 C 43.094097,1615.7071 10.008059,1582.2137 2.4666426,1539.119 C 1.1869391,1531.8063 1,1439.3184 1,813.5 C 1,32.048397 0.57900267,89.34206 6.4476015,72.134157 C 18.973746,35.404999 51.394151,8.4436084 89.523655,3.0466182 C 95.405952,2.2140163 291.90517,1.9940642 838,2.2088085 L 1578.5,2.5 L 1588.5,5.2493669 C 1626.9898,15.831635 1654.3412,44.681962 1663.6331,84.5 C 1665.4465,92.270743 1665.5,113.16182 1665.5,813.5 C 1665.5,1484.6087 1665.3839,1535.019 1663.8227,1542 C 1654.2503,1584.8036 1622.0247,1616.1932 1580.119,1623.5322 C 1567.757,1625.6972 97.724662,1625.5843 85.739932,1623.4175 z M 417,1373.7299 C 461.41002,1366.9284 498.78779,1351.0416 531.21202,1325.186 C 567.02817,1296.6256 593.78868,1255.7181 607.41409,1208.6997 C 614.7254,1183.4699 618.01859,1159.6624 618.71528,1127 C 621.22845,1009.1763 584.24174,923.93809 511.54958,880.02995 C 487.56454,865.5423 460.10542,855.97969 427.5,850.75978 C 413.55909,848.52793 412.98933,848.51843 292.5,848.50923 L 171.5,848.5 L 171.24384,1111 C 171.10296,1255.375 171.21165,1374.0894 171.48538,1374.8097 C 171.89291,1375.8822 193.22693,1376.0487 289.24154,1375.7287 C 390.59639,1375.391 407.9241,1375.1199 417,1373.7299 z M 294.46172,1261.75 C 294.20019,1261.0625 294.10182,1192.775 294.24311,1110 L 294.5,959.5 L 324.5,959.19096 C 367.36275,958.74942 386.76712,960.87027 409.66013,968.49875 C 434.72645,976.85143 454.90033,991.5174 467.94398,1010.8698 C 486.13209,1037.8549 493.92992,1073.1935 492.68671,1123 C 491.39071,1174.9212 480.37315,1209.0543 457.06861,1233.3472 C 442.45124,1248.5844 423.37411,1257.8823 399.27479,1261.5148 C 386.07841,1263.504 295.2065,1263.7078 294.46172,1261.75 z M 882.5,1318 L 882.5,1260.5 L 820.21571,1260.2424 C 769.36547,1260.0321 757.83734,1259.7397 757.41896,1258.6494 C 757.13711,1257.9149 772.90336,1207.1085 792.45506,1145.7462 C 812.00677,1084.384 829.01531,1030.3675 830.25181,1025.7095 C 831.48831,1021.0516 832.94446,1017.0739 833.48768,1016.8703 C 834.03091,1016.6666 835.74208,1021.225 837.29028,1027 C 838.83848,1032.775 863.37979,1113.55 891.82653,1206.5 L 943.54788,1375.5 L 1010.4668,1375.7571 C 1047.2722,1375.8986 1077.7418,1375.6582 1078.1771,1375.2229 C 1078.6124,1374.7876 1037.8396,1256.0969 987.57087,1111.4658 L 896.17326,848.5 L 832.21514,848.2427 C 781.79052,848.03984 768.04992,848.25144 767.27834,849.2427 C 765.64684,851.33867 584.00617,1374.201 584.58446,1375.1367 C 584.8865,1375.6254 650.27625,1375.8956 733.81104,1375.7533 L 882.5,1375.5 L 882.5,1318 z M 1218.5,1112 L 1218.5,849.5 L 1155.5,849.5 L 1092.5,849.5 L 1092.2438,1111 C 1092.103,1254.825 1092.2026,1373.0659 1092.4653,1373.7575 C 1092.8434,1374.7529 1106.0288,1374.9614 1155.7215,1374.7575 L 1218.5,1374.5 L 1218.5,1112 z M 448,777.67487 C 486.75784,772.50708 513.60638,763.24612 533.6781,748.12162 C 557.11641,730.46033 577.18977,702.54672 586.51747,674.64427 C 591.72712,659.06037 593.0004,649.62322 592.99718,626.61901 C 592.99143,585.52928 587.72165,565.90973 570.6334,543.35807 C 556.67761,524.94037 542.75012,513.58316 526.24511,507.16151 C 522.48275,505.69768 519.28511,504.05 519.13924,503.5 C 518.99337,502.95 524.11247,499.87143 530.51502,496.65874 C 551.73485,486.01095 564.92397,470.12568 576.32445,441.48481 C 587.68926,412.93357 589.46775,387.81788 582.37782,356 C 575.8253,326.59393 564.94415,306.49158 545.75526,288.34179 C 527.61482,271.18367 510.62935,262.33307 484.96018,256.66334 C 461.25866,251.42822 463.65614,251.5 312.5,251.5 L 171.5,251.5 L 171.24385,514.5 C 171.10296,659.15 171.20959,778.084 171.4808,778.79779 C 171.88253,779.85508 196.39087,780.02571 303.73695,779.71857 C 419.61581,779.38701 437.00689,779.14064 448,777.67487 z M 295.46175,664.75 C 295.20024,664.0625 295.10186,594.65 295.24314,510.5 L 295.5,357.5 L 337,357.21158 C 409.84192,356.70534 424.54408,359.20573 438.88818,374.53962 C 448.12437,384.41313 451.88858,398.38922 449.93714,415.56316 C 448.41261,428.98006 444.5505,437.47254 436.67006,444.73648 C 431.05715,449.91028 426.12296,452.44037 416.8232,454.91328 C 405.69667,457.87196 400.98321,458.25712 368,458.90287 L 337.5,459.5 L 337.5,508.5 L 337.5,557.5 L 371.5,558.12227 C 400.93815,558.66104 406.90881,559.03648 416,560.92046 C 446.82889,567.30915 463.97044,585.74036 463.97044,612.5 C 463.97044,640.72073 444.22337,659.0955 408.03174,664.55132 C 395.03147,666.51108 296.19799,666.68552 295.46175,664.75 z M 1518.5,515.5 L 1518.5,251.5 L 1456,251.5 L 1393.5,251.5 L 1393.2467,399.75 C 1393.074,500.84072 1392.6651,548 1391.9612,548 C 1391.3934,548 1390.092,546.04753 1389.0691,543.66118 C 1386.9138,538.63308 1224.4115,255.37569 1222.1717,252.74271 C 1220.7701,251.0951 1216.6768,251.00148 1156.5884,251.24271 L 1092.5,251.5 L 1092.5,515 L 1092.5,778.5 L 1156,778.5 L 1219.5,778.5 L 1219.7534,634.75 C 1219.8928,555.6875 1220.3587,491 1220.7888,491 C 1221.2188,491 1223.0575,494.01495 1224.8746,497.69989 C 1227.4641,502.95121 1382.762,768.5642 1388.6179,777.75734 L 1390.0557,780.01468 L 1454.2779,779.75734 L 1518.5,779.5 L 1518.5,515.5 z M 882.5,721.5 L 882.5,664.5 L 819.75,664.24249 C 761.37341,664.00292 757,663.86608 757,662.27908 C 757,661.34083 772.36231,612.40671 791.13847,553.53659 C 809.91463,494.66647 826.94569,440.67298 828.98528,433.55106 C 831.02487,426.42915 833.15925,420.44692 833.72835,420.25722 C 834.29745,420.06752 835.54332,423.19454 836.49696,427.20615 C 838.27033,434.66607 941.25437,772.67361 942.99588,776.75 L 943.95712,779 L 1011.1094,779 L 1078.2617,779 L 1077.7004,775.75 C 1077.3917,773.9625 1036.4534,655.5 986.72641,512.5 L 896.31365,252.5 L 832.28533,252.2427 C 781.82388,252.03991 768.03972,252.2518 767.23152,253.2427 C 765.79178,255.00788 585,774.69317 585,777.06652 C 585,778.97901 587.11206,779.00296 733.75,778.75328 L 882.5,778.5 L 882.5,721.5 z "
       id="path2163" />
  </g>
</svg>
