<?xml version="1.0" encoding="UTF-8" standalone="no"?>
<svg
   xmlns:svg="http://www.w3.org/2000/svg"
   xmlns="http://www.w3.org/2000/svg"
   xmlns:sodipodi="http://sodipodi.sourceforge.net/DTD/sodipodi-0.dtd"
   xmlns:inkscape="http://www.inkscape.org/namespaces/inkscape"
   version="1.0"
   width="468pt"
   height="136pt"
   viewBox="0 0 468 136"
   preserveAspectRatio="xMidYMid meet"
   id="svg22"
   sodipodi:docname="BitCorp.svg"
   inkscape:version="1.0.1 (3bc2e813f5, 2020-09-07)">
  <defs
     id="defs26" />
  <sodipodi:namedview
     pagecolor="#ffffff"
     bordercolor="#666666"
     borderopacity="1"
     objecttolerance="10"
     gridtolerance="10"
     guidetolerance="10"
     inkscape:pageopacity="0"
     inkscape:pageshadow="2"
     inkscape:window-width="1366"
     inkscape:window-height="715"
     id="namedview24"
     showgrid="false"
     inkscape:snap-global="false"
     inkscape:zoom="1.7788462"
     inkscape:cx="312"
     inkscape:cy="135.63964"
     inkscape:window-x="-8"
     inkscape:window-y="-8"
     inkscape:window-maximized="1"
     inkscape:current-layer="svg22" />
  <metadata
     id="metadata2" />
  <rect
     style="opacity:0.990506;fill:#FFF;stroke-width:2.25;stop-color:#FFF"
     id="rect44"
     width="37.311398"
     height="73.175369"
     x="199.43605"
     y="28.590641" />
  <rect
     style="opacity:0.990506;fill:#FFF;stroke-width:2.25;stop-color:#FFF"
     id="rect46"
     width="37.311398"
     height="73.175369"
     x="289.8197"
     y="28.590641" />
  <path
     id="rect42"
     style="opacity:0.990506;fill:#FFF;stroke-width:2.25;stop-color:#FFF"
     d="m 348.19959,28.59064 v 0.0644 h -6.79834 v 6.76172 h 6.79834 v 66.34863 h 37.31104 V 35.41676 h 7.4414 v -6.76172 h -7.4414 v -0.0644 z" />
  <path
     id="rect42-7"
     style="opacity:0.990506;fill:#FFF;stroke-width:2.25;stop-color:#FFF"
     d="m 249.77428,28.59064 v 73.17627 c 14.53998,-0.48496 24.98413,-4.836327 25.29785,-17.58984 2.8e-4,-7.794534 -2.12796,-15.800634 -9.59186,-19.483383 4.22404,-4.013166 4.1105,-8.918019 4.11041,-14.953637 2.5e-4,-11.680495 -8.87196,-21.149518 -19.8164,-21.14941 z"
     sodipodi:nodetypes="cccccc" />
  <g
     id="g991"
     transform="translate(9.2756762,-15.599995)">
    <path
       id="rect89"
       style="opacity:0.89;fill:#FFF;fill-opacity:1;stroke:#FFF;stroke-width:2.30265;stroke-opacity:1;stop-color:#FFF;stroke-linecap:round"
       d="m 67.455971,46.585297 c -22.192203,0 -40.058765,14.962649 -40.058765,33.052433 v 4.007524 c 0,17.139896 16.043268,31.104836 36.604313,32.525106 C 70.5449,69.237919 102.85485,56.614319 128.59736,46.585297 Z"
       sodipodi:nodetypes="sssccs" />
    <path
       style="color:#FFF;font-style:normal;font-variant:normal;font-weight:normal;font-stretch:normal;font-size:medium;line-height:normal;font-family:sans-serif;font-variant-ligatures:normal;font-variant-position:normal;font-variant-caps:normal;font-variant-numeric:normal;font-variant-alternates:normal;font-variant-east-asian:normal;font-feature-settings:normal;font-variation-settings:normal;text-indent:0;text-align:start;text-decoration:none;text-decoration-line:none;text-decoration-style:solid;text-decoration-color:#FFF;letter-spacing:normal;word-spacing:normal;text-transform:none;writing-mode:lr-tb;direction:ltr;text-orientation:mixed;dominant-baseline:auto;baseline-shift:baseline;text-anchor:start;white-space:normal;shape-padding:0;shape-margin:0;inline-size:0;clip-rule:nonzero;display:inline;overflow:visible;visibility:visible;isolation:auto;mix-blend-mode:normal;color-interpolation:sRGB;color-interpolation-filters:linearRGB;solid-color:#FFF;solid-opacity:1;vector-effect:none;fill:#FFF;fill-opacity:1;fill-rule:nonzero;stroke:none;stroke-width:5.70622;stroke-linecap:butt;stroke-linejoin:round;stroke-miterlimit:4;stroke-dasharray:none;stroke-dashoffset:0;stroke-opacity:1;color-rendering:auto;image-rendering:auto;shape-rendering:auto;text-rendering:auto;enable-background:accumulate;stop-color:#FFF"
       d="m 136.58744,46.18683 c -1.44757,0.0365 -2.65301,1.049118 -2.84569,2.390501 -6.47245,35.821277 -30.18958,54.144379 -60.956923,70.091059 h 60.466433 c 23.32802,0 42.56618,-15.41452 42.56619,-34.567612 v -3.854869 c 0,-18.147761 -17.33331,-32.601261 -38.93809,-34.053512 -0.0972,-0.0064 -0.19458,-0.0082 -0.29192,-0.0056 z m 2.49023,5.883454 c 17.71548,2.20938 30.8379,14.038305 30.8379,28.175625 v 3.854869 c 0,15.664509 -18.25598,29.358032 -38.80772,28.650992 h -25.5064 c 19.49045,-8.86124 31.31748,-48.758505 33.47622,-60.681486 z"
       id="path937"
       sodipodi:nodetypes="cccsssccccssccc" />
  </g>
  <g
     aria-label="TM"
     transform="scale(1.1360092,0.88027456)"
     id="text946"
     style="font-style:normal;font-variant:normal;font-weight:normal;font-stretch:normal;font-size:22.7202px;line-height:1.25;font-family:Eurostile;-inkscape-font-specification:Eurostile;letter-spacing:0px;word-spacing:0px;fill:#FFF;fill-opacity:1;stroke:none;stroke-width:0.852007">
    <path
       d="m 361.14676,34.065663 v 13.556682 h -1.70845 V 34.065663 h -4.93676 v -1.58642 h 11.5376 v 1.58642 z"
       style="font-weight:bold;stroke-width:0.852007"
       id="path1015" />
    <path
       d="m 384.17759,32.479243 v 15.143102 h -1.70845 V 35.507864 34.598168 l 0.0111,-0.454848 0.0111,-0.454847 h -0.0444 l -0.13313,0.355003 q -0.0998,0.266252 -0.13312,0.343909 l -0.28844,0.710006 -5.15864,12.524954 h -1.70846 l -5.16973,-12.380734 -0.29953,-0.698912 -0.13313,-0.355003 q -0.0555,-0.122033 -0.13313,-0.34391 h -0.0444 l 0.0111,0.410473 0.0111,0.421566 v 0.832039 12.114481 H 367.559 V 32.479243 h 2.96206 l 4.03816,9.795867 0.64345,1.586421 0.32172,0.787663 0.31062,0.787663 h 0.0444 l 0.31063,-0.787663 q 0.23297,-0.565786 0.31063,-0.787663 l 0.65453,-1.575327 4.01598,-9.806961 z"
       style="font-weight:bold;stroke-width:0.852007"
       id="path1017" />
  </g>
</svg>
