<svg width="357.43pt" height="74.477pt" preserveAspectRatio="xMidYMid" version="1.0" viewBox="0 0 357.43 74.477" xmlns="http://www.w3.org/2000/svg">
 <path d="m163.91 0v73.175h37.312v-73.175zm50.339 0v73.176c14.54-0.48496 24.984-4.8363 25.298-17.59 2.8e-4 -7.7945-2.1279-15.801-9.5918-19.484 4.224-4.0132 4.1104-8.9175 4.1104-14.953 2.5e-4 -11.68-8.872-21.15-19.816-21.149zm40.044 0v73.175h37.311v-73.175zm58.38 0v0.06445h-6.7983v6.7617h6.7983v66.349h37.311v-66.349h7.4414v-6.7617h-7.4414v-0.064453zm-271.47 1.2437c-22.71 0-41.212 15.355-41.212 34.203v4.0078c0 17.858 16.638 32.221 37.676 33.674l1.0723 0.0747 0.14941-1.0649c3.2378-23.223 12.777-37.795 24.703-47.912 11.926-10.118 26.299-15.744 39.17-20.758l-0.41894-2.2236zm69.13 0.75293c-1.4476 0.0365-2.6535 1.0492-2.8462 2.3906-6.4724 35.821-30.189 54.143-60.957 70.09h60.466c23.328 0 42.567-15.414 42.567-34.567v-3.854c0-18.148-17.334-32.602-38.938-34.055-0.0972-0.0064-0.19417-7e-3 -0.29151-0.0044zm2.4902 5.8828c17.715 2.2094 30.838 14.039 30.838 28.176v3.854c0 15.664-18.256 29.358-38.808 28.651h-25.506c19.49-8.8612 31.317-48.758 33.476-60.681z" opacity=".99051" stroke-width="2.25"/>
</svg>
