<?xml version="1.0" standalone="no"?>
<!DOCTYPE svg PUBLIC "-//W3C//DTD SVG 20010904//EN"
 "http://www.w3.org/TR/2001/REC-SVG-20010904/DTD/svg10.dtd">
<svg version="1.0" xmlns="http://www.w3.org/2000/svg"
 width="511.500000pt" height="81.038933pt" viewBox="0 0 511.500000 81.038933"
 preserveAspectRatio="xMidYMid meet">
<metadata>
Created by potrace 1.15, written by Peter Selinger 2001-2017
</metadata>
<g transform="translate(-0.500000,297.038933) scale(0.100000,-0.100000)"
fill="#ffffff" stroke="none">
<path d="M300 2955 c-111 -32 -217 -116 -266 -212 -26 -53 -29 -67 -29 -158 0
-95 2 -103 34 -162 40 -74 118 -151 189 -187 89 -45 152 -56 324 -56 l158 0 0
100 0 100 -28 0 c-17 0 -32 -8 -40 -21 -33 -53 -179 -67 -267 -25 -63 29 -97
66 -129 136 -52 113 -41 239 27 316 40 46 82 64 149 64 92 0 146 -51 132 -125
-5 -27 -2 -35 14 -44 12 -6 23 -11 25 -11 3 0 35 34 72 76 l68 75 -34 35 c-19
19 -67 52 -107 71 -63 32 -85 37 -155 40 -52 2 -102 -3 -137 -12z"/>
<path d="M2803 2955 c-77 -21 -130 -51 -188 -106 -161 -152 -161 -377 -1 -534
110 -106 200 -135 428 -135 l158 0 0 100 c0 100 0 100 -25 100 -13 0 -29 -8
-34 -19 -29 -53 -176 -72 -262 -34 -95 42 -160 146 -167 265 -9 152 74 258
202 258 93 0 143 -44 134 -118 -5 -31 -2 -41 15 -51 18 -12 27 -6 95 62 46 47
72 79 67 87 -4 6 -34 31 -67 56 -104 76 -234 101 -355 69z"/>
<path d="M3558 2951 c-207 -67 -329 -259 -288 -456 42 -204 213 -335 435 -335
234 0 410 146 440 366 19 142 -63 304 -193 381 -107 63 -275 82 -394 44z m237
-130 c86 -40 129 -123 129 -251 0 -106 -15 -160 -60 -210 -48 -52 -107 -74
-184 -67 -110 10 -169 72 -190 201 -24 153 27 289 125 332 44 19 133 17 180
-5z"/>
<path d="M1131 2928 c-162 -448 -246 -661 -267 -675 -16 -10 -24 -25 -24 -44
l0 -29 120 0 120 0 0 26 c0 15 -7 32 -15 38 -24 17 -22 44 9 124 l28 72 117 0
117 0 32 -82 c23 -60 28 -86 21 -100 -5 -10 -14 -18 -19 -18 -6 0 -10 -13 -10
-30 l0 -30 155 0 c152 0 155 0 155 21 0 12 -15 36 -33 54 -26 25 -50 76 -111
236 -44 112 -101 261 -128 332 l-50 127 -104 0 c-99 0 -105 -1 -113 -22z m90
-356 c-35 -2 -66 -1 -68 2 -3 3 9 48 27 102 l33 97 36 -99 36 -99 -64 -3z"/>
<path d="M1750 2916 c0 -25 6 -38 20 -46 19 -10 20 -21 20 -310 0 -289 -1
-300 -20 -310 -13 -7 -20 -21 -20 -40 l0 -30 140 0 140 0 0 28 c0 16 -9 37
-20 47 -16 14 -20 31 -20 79 l0 62 87 27 c244 77 336 162 336 312 0 70 -18
110 -64 149 -67 57 -84 60 -351 64 l-248 4 0 -36z m412 -102 c32 -16 52 -71
43 -115 -10 -43 -76 -113 -147 -155 -33 -19 -60 -34 -61 -34 -1 0 -1 72 1 159
l3 160 32 3 c45 5 97 -2 129 -18z"/>
<path d="M4250 2919 c0 -22 5 -32 20 -36 12 -3 20 -14 20 -27 0 -29 -87 -567
-95 -588 -4 -10 -15 -20 -26 -23 -13 -4 -19 -16 -19 -36 l0 -29 130 0 c127 0
130 0 130 22 0 12 -12 32 -26 43 l-26 21 31 204 c17 112 32 205 34 206 2 2 27
-71 57 -162 l55 -165 79 3 80 3 57 174 c42 128 59 168 63 150 3 -13 19 -112
36 -219 l30 -195 -25 -20 c-14 -12 -25 -31 -25 -43 0 -22 2 -22 145 -22 l145
0 0 29 c0 16 -5 31 -12 33 -11 4 -97 536 -98 605 0 21 6 36 19 42 10 6 18 20
17 33 -1 23 -3 23 -153 26 l-151 3 -22 -68 c-13 -38 -36 -106 -53 -151 l-30
-84 -47 149 -48 148 -146 3 -146 3 0 -32z"/>
</g>
</svg>
