<svg width="511.5pt" height="81.039pt" version="1.0" viewBox="0 0 511.5 81.039" xmlns="http://www.w3.org/2000/svg">
 <path d="m370.17 0c-5.2605-0.10957-10.413 0.51445-14.875 1.9395-20.7 6.7-32.899 25.899-28.799 45.599 4.2 20.4 21.3 33.501 43.5 33.501 23.4 0 41-14.601 44-36.601 1.9-14.2-6.2993-30.401-19.299-38.101-6.6875-3.9375-15.758-6.1558-24.526-6.3384zm-78.875 0.19043c-3.8502-0.094971-7.7192 0.34912-11.5 1.3491-7.7 2.1-13 5.0996-18.8 10.6-16.1 15.2-16.1 37.699-0.09961 53.399 11 10.6 20 13.5 42.8 13.5h15.8v-9.999c0-10-4.9e-4 -10-2.5005-10-1.3 0-2.8999 0.7999-3.3999 1.8999-2.9 5.3-17.6 7.1999-26.2 3.3999-9.5-4.2-15.999-14.6-16.699-26.5-0.9-15.2 7.4002-25.799 20.2-25.799 9.3 0 14.299 4.3993 13.399 11.799-0.5 3.1-0.2 4.1006 1.5 5.1006 1.8 1.2 2.701 0.59931 9.501-6.2007 4.6-4.7 7.2002-7.8997 6.7002-8.6997-0.4-0.6-3.4002-3.1001-6.7002-5.6001-7.15-5.225-15.53-8.0396-24-8.2485zm-250.04 0.10547c-4.4885-0.025977-8.6987 0.45615-11.761 1.2437-11.1 3.2-21.7 11.599-26.6 21.199-2.6 5.3-2.9004 6.6998-2.9004 15.8 0 9.5 0.19991 10.3 3.3999 16.2 4 7.4 11.799 15.1 18.899 18.7 8.9 4.5 15.201 5.6001 32.401 5.6001h15.8v-9.999-10h-2.7993c-1.7 0-3.2005 0.80059-4.0005 2.1006-3.3 5.3-17.9 6.699-26.7 2.499-6.3-2.9-9.7009-6.5996-12.901-13.6-5.2-11.3-4.1003-23.9 2.6997-31.6 4-4.6 8.2004-6.3999 14.9-6.3999 9.2 0 14.6 5.0995 13.2 12.5-0.5 2.7-0.19961 3.5004 1.4004 4.4004 1.2 0.6 2.3005 1.1001 2.5005 1.1001 0.3 0 3.4997-3.4011 7.1997-7.6011l6.7998-7.5-3.3999-3.4995c-1.9-1.9-6.6992-5.2001-10.699-7.1001-6.3-3.2-8.501-3.7005-15.501-4.0005-0.65-0.025-1.2968-0.03877-1.938-0.04248zm133.24 1.5425v3.6006c0 2.5 0.60098 3.7996 2.001 4.5996 1.9 1 1.9995 2.1005 1.9995 31 0 28.9-0.09951 30-1.9995 31-1.3 0.7-2.001 2.099-2.001 3.999v3h14.001 14v-2.7993c0-1.6-0.89951-3.7007-1.9995-4.7007-1.6-1.4-2.001-3.0999-2.001-7.8999v-6.1992l8.7012-2.7012c24.4-7.7 33.599-16.2 33.599-31.2 0-7-1.7999-10.999-6.3999-14.899-6.7-5.7-8.4006-6.0014-35.101-6.4014l-24.8-0.3999zm250 0.10107v3.1992c0 2.2 0.49951 3.2006 1.9995 3.6006 1.2 0.3 2.001 1.3997 2.001 2.6997 0 2.9-8.701 56.7-9.501 58.8-0.4 1-1.5001 1.9998-2.6001 2.2998-1.3 0.4-1.8999 1.6006-1.8999 3.6006v2.8989h13c12.7 0 13-1.97e-4 13-2.2002 0-1.2-1.2001-3.1993-2.6001-4.2993l-2.6001-2.1006 3.0996-20.399c1.7-11.2 3.1999-20.5 3.3999-20.6 0.2-0.2 2.6997 7.0997 5.6997 16.2l5.5005 16.5 7.8999-0.30029 7.9995-0.29883 5.7012-17.401c4.2-12.8 5.8988-16.8 6.2988-15 0.3 1.3 1.9006 11.201 3.6006 21.901l3 19.5-2.5005 1.9995c-1.4 1.2-2.499 3.0993-2.499 4.2993 0 2.2 0.19904 2.2002 14.499 2.2002h14.5v-2.8989c0-1.6-0.49971-3.1003-1.1997-3.3003-1.1-0.4-9.6998-53.601-9.7998-60.501 0-2.1 0.5999-3.5997 1.8999-4.1997 1-0.6 1.7992-2.0003 1.6992-3.3003-0.1-2.3-0.30031-2.3001-15.3-2.6001l-15.1-0.29883-2.2002 6.7998c-1.3 3.8-3.5998 10.6-5.2998 15.1l-3 8.3994-4.6992-14.899-4.8003-14.801-14.6-0.30029-14.6-0.29883zm-300.6 0.099609c-9.9 0-10.5 0.1002-11.3 2.2002-16.2 44.8-24.6 66.1-26.7 67.5-1.6 1-2.3994 2.5004-2.3994 4.4004v2.8989h12 12v-2.6001c0-1.5-0.7-3.1998-1.5-3.7998-2.4-1.7-2.2006-4.3999 0.89941-12.4l2.8008-7.1997h11.7 11.7l3.1992 8.2002c2.3 6 2.8006 8.599 2.1006 9.999-0.5 1-1.3999 1.8003-1.8999 1.8003-0.6 0-1.0005 1.3-1.0005 3v3h15.501c15.2 0 15.5 8.77e-4 15.5-2.0991 0-1.2-1.5003-3.6009-3.3003-5.4009-2.6-2.5-4.9991-7.6001-11.099-23.6-4.4-11.2-10.101-26.099-12.801-33.199l-4.9995-12.7h-10.4zm244.73 11.104c3.7532-0.045923 7.7259 0.5584 10.37 1.7959 8.6 4 12.899 12.3 12.899 25.1 0 10.6-1.5 16-6 21-4.8 5.2-10.7 7.4002-18.4 6.7002-11-1-16.9-7.1991-19-20.099-2.4-15.3 2.701-28.901 12.501-33.201 1.925-0.83125 4.7113-1.2607 7.6304-1.2964zm-162.37 0.54199c3.5109 0.060938 7.0351 0.7541 9.4351 1.9541 3.2 1.6 5.2008 7.1005 4.3008 11.5-1 4.3-7.6012 11.3-14.701 15.5-3.3 1.9-5.9996 3.3999-6.0996 3.3999s-0.10039-7.1994 0.09961-15.899l0.30029-16 3.2007-0.30029c1.125-0.125 2.294-0.17412 3.4644-0.15381zm-85.465 6.0542 3.6006 9.9009 3.5991 9.8994-6.3999 0.30029c-3.5 0.2-6.5998 0.099317-6.7998-0.20068-0.3-0.3 0.89971-4.7997 2.6997-10.2l3.3003-9.7002z"/>
</svg>