<svg version="1.1" viewBox="0 0 288.65 164.24" xml:space="preserve" xmlns="http://www.w3.org/2000/svg"><path transform="translate(.0006988)" d="m67.689 0-42.807 50.664-0.26758-27.623-15.705 36.924-0.81641-10.885-7.7344 28.322 0.011719-0.009766v0.009766s1.0423-0.77241 2.4453-1.1953c0.11258-0.03031 0.22581-0.058597 0.33984-0.091797 0.014434 0 0.025648-0.011718 0.042969-0.011718 0.11258-0.02454 0.22581-0.04959 0.33984-0.06836 0.014434 0 0.031083-0.011718 0.052734-0.011718 0.11547-0.02021 0.22557-0.036262 0.35547-0.044922v-0.011719c0.12124-0.0101 0.23949-0.015291 0.35352-0.025391h0.074219c0.11403-0.01155 0.23626-0.01155 0.36328 0 0.00866 0 0.01439-6.66e-4 0.042969 0.009766 0.10681 0 0.21358 0.005864 0.32617 0.027344 0.023094 0.0087 0.036009 0.007812 0.060547 0.007812 0.12413 0.01588 0.23507 0.036086 0.34766 0.066406 0.030311 0 0.059785 0.011519 0.074219 0.017578 0.11836 0.03031 0.23923 0.062169 0.36914 0.10547 2.6472 0.95841 4.9004 0 4.9004 0s2.4922 1.601 2.4922 2.9434h-0.00586v0.005859s-3.2793 0.19175-3.2793-1.2617c0 0-4.1965-1.4882-10.066 0.68555l12.381 5.3242c-0.0087-0.05629-0.66125-2.361 0.054687-3.1621 0.22661-0.27713 0.62351-0.37532 1.2441-0.16602 0.22661 0.08083 0.38971 0.06105 0.49219-0.03711 0.9613-0.99305-3.7051-9.6133-3.7051-9.6133s-4.1916-0.40648-7.8203 3.3867c-0.2396 0.25115-0.49028 0.52052-0.72266 0.81641 0.36951-0.64664 1.5468-2.5202 3.5098-4.1426 1.1749-0.98728 2.6462-1.8717 4.3984-2.3711 0.48065-1.1518-0.12889-0.40159 0.86133-1.0078 0.0087 0 0.007812-0.009766 0.007812-0.009766 0.46477-3.0398 2.1859-10.869 8.1211-17.564 0.39838-0.44456 0.80874-0.89452 1.2461-1.3203 0 0-1.5215 2.8606-1.5215 4.8496 0.04316-0.05037 1.5374-2.2895 3.6035-4.3457-0.0087 0.01299-0.01619 0.02266-0.03711 0.0625-0.38683 0.82418-3.2158 6.8689-2.9199 8.6328 0.0072 0.01588 0.011718 0.025649 0.011718 0.042969l5.6816-5.2031c-0.21019 0.28641-5.3576 7.2552-5.8691 9.6562v0.015625l8.6621-6.1875-0.007813 0.009766c-0.02743 0.05052-1.0911 1.5331-1.5371 2.3457-0.31755 0.58169-0.36524 0.77727-0.36524 0.83789l0.015625 0.046874 4.6641-2.002s-0.20309 0.24403-0.5293 0.59766l-1.7344 1.7637-0.42969 0.45312-3.1523 3.1875-0.060547 0.072266-2.4004 2.4395-1.5391 1.5684s-1.2586 1.3104-1.4102 1.9902c-0.15011 0.66828 0.55859 1.082 0.55859 1.082h-0.005859c0.64086 0.35796 1.1612 0.91172 1.4629 1.5742 0.16888 0.40126 0.26172 0.83557 0.26172 1.3047 0 0.91655-0.37403 1.7492-1.002 2.3496-0.61633 0.60622-1.4864 0.98438-2.4434 0.98438-0.87036 0-1.6432-0.31368-2.248-0.82031 0.10537 0.1429 1.8102 2.2863 4.9395 0.61914l3.8691-2.8184 0.16797-0.13281 3.998-2.9238c0.94398 1.1129 1.8357 2.4552 2.6426 3.9766-2.3772 2.2574-6.4304 6.1745-10.477 10.457-2.4105 2.5461-4.8172 5.2375-6.8711 7.7793l1.4434-6.7773 0.11914-0.55859s-0.005859-6.8e-4 -0.005859 0.009766c-0.01588 0.0058-0.02556 0.005835-0.03711 0.015625 0 0.0058-0.017578 0.015625-0.017578 0.015625-0.01299 0.0087-0.031842 0.007197-0.039062 0.029297-0.0087 0-0.019531 0.005857-0.019531 0.023437-0.01588 0.0072-0.040248 0.017244-0.054688 0.027344-0.0087 0.0058-0.014522 0.028873-0.039062 0.033203-0.01299 0.0072-0.036431 0.031329-0.056641 0.037109-0.01155 0.02021-0.025728 0.027602-0.048828 0.044922-0.01588 0.01588-0.027347 0.030403-0.060547 0.039063-0.02165 0.02165-0.036007 0.04365-0.060547 0.05664-0.01876 0.01588-0.043819 0.045939-0.068359 0.048829-0.02021 0.030309-0.044243 0.057233-0.064453 0.064453-0.03175 0.02309-0.055628 0.048149-0.085938 0.068359-0.02165 0.01588-0.04374 0.044756-0.0625 0.066406-0.0332 0.02598-0.0721 0.045942-0.09375 0.082032-0.03897 0.014429-0.052827 0.041273-0.091797 0.058593-0.02165 0.03608-0.060126 0.064457-0.097656 0.097657-0.02165 0.024539-0.060894 0.051208-0.083984 0.080078-0.03753 0.03176-0.081019 0.067002-0.11133 0.10742-0.03031 0.027419-0.051376 0.054008-0.091796 0.074218-0.02887 0.04474-0.073544 0.088487-0.12695 0.12891-0.03031 0.02454-0.052568 0.043406-0.074218 0.072266-0.02454 0.02454-0.054188 0.051632-0.085938 0.076172 0 0.0101-0.005859 0.009766-0.005859 0.009766-0.0433 0.04042-0.090026 0.093498-0.13477 0.14258-0.03897 0.0231-0.070226 0.062089-0.097656 0.099609-0.05485 0.04041-0.093932 0.087046-0.13867 0.12891-0.03753 0.03608-0.077191 0.080082-0.11328 0.11328-0.03031 0.04619-0.067681 0.081955-0.087891 0.10938-0.01588 0.01299-0.037367 0.034901-0.054687 0.050781 0 0.0058-0.012987 0.017323-0.029297 0.033203-0.02887 0.02887-0.053665 0.054188-0.083985 0.085938-0.03753 0.044749-0.075751 0.08025-0.11328 0.125-0.0087 0.015879-0.012987 0.028873-0.029297 0.033203-0.01588 0.01588-0.029042 0.023182-0.044922 0.039062-0.02021 0.03608-0.045861 0.063864-0.076171 0.089844-0.04475 0.06351-0.089781 0.11215-0.15039 0.16406-0.03753 0.05774-0.083564 0.098007-0.12109 0.1543-0.04475 0.05629-0.10609 0.11791-0.15234 0.16992-0.04475 0.05774-0.087046 0.10046-0.12891 0.1582-0.05918 0.06207-0.10348 0.12788-0.16406 0.19141-0.03753 0.050519-0.085183 0.10349-0.13281 0.16406-0.04908 0.06928-0.10147 0.13005-0.16211 0.21094-0.04475 0.040409-0.082716 0.10189-0.12891 0.15234-0.05629 0.08516-0.11908 0.15744-0.17969 0.23828-0.04763 0.06062-0.082971 0.10146-0.11328 0.15625-0.07506 0.09671-0.1515 0.19287-0.22656 0.29102-0.02309 0.03753-0.061831 0.083051-0.082031 0.11914-0.10537 0.14578-0.21927 0.29283-0.32031 0.44726l-0.011719 0.015625c-0.10104 0.14723-0.20458 0.29274-0.30274 0.44141-0.02309 0.0433-0.058093 0.094435-0.089843 0.14062-0.06928 0.11258-0.15007 0.22589-0.22656 0.3457-0.04041 0.05629-0.068018 0.11359-0.11133 0.16992-0.06928 0.11403-0.13928 0.21359-0.21289 0.32617-0.03897 0.069279-0.075238 0.13135-0.11133 0.19336-0.060622 0.11258-0.13871 0.22777-0.21094 0.3418-0.031755 0.06784-0.075239 0.13336-0.11133 0.20703-0.069283 0.11258-0.13048 0.23311-0.20703 0.3457-0.038972 0.06062-0.083566 0.1416-0.12109 0.21094-0.069283 0.13279-0.1377 0.24595-0.20703 0.36719-0.031755 0.06784-0.071846 0.14471-0.10938 0.22266-0.31899 0.58602-0.62776 1.1919-0.94531 1.8457v0.013672l-1.5918 0.26562c0.31899-0.81985 0.63252-1.5637 0.97461-2.2695l-2.5957 3.6562 2.5957-0.25586c-2.2214 5.1038-3.8477 11.781-3.8477 21.291l2.1133-1.3379c1.862 10.613 10.613 15.279 10.613 15.279l-0.011719-0.06641c4.8195 3.1538 10.688 5.3616 17.154 6.2363 0.89635 0.11403 1.6245 0.17944 1.7891 0.19531 0.0058 0 0.00586 5.2e-4 0.00586-0.0039 0.11692 0.0144 0.2175 0.03516 0.33008 0.03516 3.5017 0.30599 6.905 0.17994 10.158-0.29493-0.0087 0.12269-0.015625 0.24748-0.015625 0.37305 0 2.1016 1.1667 3.8303 2.6562 3.9746-3.0585 5.1991-5.5338 12.107-5.541 12.141-0.11836 0.31754-0.36256 0.90396-0.60938 1.0801-0.75345 0.16888-0.81364 0.20844-1.6465 0.4668l0.013672-0.00977c-0.28145-0.2728-2.6968-0.72506-5.1562 0.19727 0.0058 0.013 0.005841 0.01154 0.019531 0.02344-1.3929 0.61056-2.7458 1.7267-3.6855 3.5742 1.0003-0.80686 2.8658-2.1194 4.3828-1.9375-1.7985 1.0248-4.9047 2.9803-5.2598 5.7949 0 0 10.787-7.5671 16.105-6.1699 0 0-0.77354 0.87919 1.0566 4.1484l0.83789-3.043c0.95841-2.9503-2.7379-3.3838-4.291-3.4473 0.0072-0.0216 0.00586-0.03281 0.00586-0.03711 0 0 0.17099-0.47159 0.47266-1.2539 0.91511-2.3628 3.0488-7.5866 5.3828-11.314 0.0433-0.0794 0.073116-0.16229 0.097656-0.24023l-0.4375-0.60157c0.0043 0 0.31355-0.33869 0.48242-0.58984 0.30889-0.48786 0.73887-1.319 0.74609-2.416 0-0.86026-0.20934-1.9492-0.82422-3.2988l1.3828-0.64063c0.07361 0.17609 0.14904 0.33928 0.22266 0.49805 0.02021 0.0606 0.039321 0.112 0.056641 0.1582 0.0433 0.11403 0.08603 0.22726 0.125 0.33984 0.02309 0.052 0.042943 0.1136 0.064453 0.16993 0.03753 0.12269 0.072861 0.23702 0.11328 0.34961 0.0072 0.0346 0.02989 0.08069 0.03711 0.12109l7.8945-2.3848-1.748-1.4394h-0.009765l-0.078125-0.07812-0.041016-0.03125-29.846-27.18-0.00586-0.01367c8.3009 4.0372 17.986 8.732 34.412 16.342 16.183 7.4594 26.427 11.804 31.713 13.971 0.04475 0.0274 0.09477 0.04474 0.13086 0.06054h0.005859c0.76788 0.3161 1.4267 0.58003 1.9824 0.80664 1.1316 0.44168 2.1903 0.85488 2.248 0.88086 0.08949-0.0505 0.19618-0.08077 0.28711-0.12695l-60.369-41.404 37.311-25.775-28.092 6.8535 54.895-23.756-45.252 5.543 24.225-17.693-25.955 10.133 3.9199-7.8652-18.568 13.375-0.15625-0.2832 26.324-56.908zm-47.223 72.252-1.4238 0.48438c0.08949 0.21074 0.15039 0.4372 0.15039 0.67969 0 0.20929-0.038824 0.40016-0.12109 0.58203l0.64844 0.39648c-0.11258 0.17032-0.25002 0.33902-0.41602 0.48047-0.15011 0.14145-0.33861 0.25468-0.55078 0.33984-0.24682 0.1097-0.50344 0.15039-0.76758 0.15039-0.83284 0-1.6159-0.50644-1.9551-1.332-0.03031-0.0664-0.069041-0.14726-0.082031-0.23242l-0.62109 0.20703c0.52106 1.5199 2.0918 2.3501 3.5078 1.8594 0.35652-0.12702 0.67506-0.31806 0.92188-0.56055 0.77799-0.73036 1.0958-1.9231 0.70898-3.0547zm11.562 3.7383c1.0263 2.1795 1.8887 4.6696 2.5469 7.373h-0.005859l-9 6.8457 6.4609-14.205-0.001953-0.013672zm16.211 1.4375 0.007812 0.029297-0.007812 0.001953v-0.03125zm37.93 7.1445c-3.7052 0-6.7656 1.3866-9.0938 4.1348-1.8981 2.2531-2.8574 4.841-2.8574 7.709 0 3.1884 1.1551 5.9706 3.4082 8.2324 2.2834 2.243 5.0626 3.3848 8.2871 3.3848 2.1319 0 4.1929-0.56122 6.1328-1.6582l0.13672-0.08789v-0.22656l-0.029297-0.0625-1.627-2.8145-0.14062-0.24609-0.24805 0.16016c-0.45178 0.29157-0.89619 0.52797-1.3047 0.70117-0.78809 0.36663-1.7556 0.54883-2.8887 0.54883-2.1752 0-4.041-0.77571-5.5508-2.3086-1.4997-1.5271-2.2637-3.4365-2.2637-5.668 0-2.2603 0.76397-4.2037 2.2637-5.7539 1.4997-1.5762 3.3629-2.3613 5.541-2.3613 1.4304 0 2.8447 0.41041 4.2246 1.2188l0.23828 0.13867 0.12891-0.23633 1.6172-2.791 0.13867-0.23633-0.23633-0.14258c-1.888-1.0869-3.8721-1.6348-5.877-1.6348zm106.4 0.007812c-3.2447 0-6.0666 1.1564-8.373 3.4297-2.3282 2.2733-3.5039 5.0324-3.5039 8.1992 0 3.5998 1.2938 6.5649 3.8398 8.7949 2.3036 2.0078 4.9554 3.0293 7.8652 3.0293 3.2779 0 6.1223-1.1542 8.4375-3.416 2.3181-2.2531 3.4922-5.034 3.4922-8.2773 0-3.213-1.1637-6.0159-3.4688-8.3008-2.2936-2.2964-5.0775-3.459-8.2891-3.459zm27.494 0.16016-0.44336 0.31445-3.3398 2.3496-0.11914 0.085937v12.061c0 1.8244-0.19359 3.1029-0.57031 3.8144-0.33487 0.66827-0.92714 0.98243-1.8106 0.98243-0.64664 0-1.3481-0.24583-2.1016-0.75391l-0.24805-0.16211-0.14062 0.24609-1.6484 2.8457-0.12891 0.23633 0.22657 0.14257c1.2485 0.74335 2.6063 1.1309 4.041 1.1309 1.9183 0 3.4812-0.70132 4.6445-2.0566 0.59468-0.68994 1.0131-1.542 1.2715-2.5352 0.23671-0.86027 0.36718-2.1324 0.36718-3.8789v-14.822zm35.826 0-0.43164 0.31445-3.3301 2.3398-0.11914 0.083985v20.402l0.4414-0.30078 3.332-2.3477 0.10743-0.08789v-6.8203l0.39648-0.39062 7.7598 9.5937 0.15234 0.19336 0.2168-0.14062 2.8555-1.9297 0.24804-0.17187-0.19336-0.23829-8.2656-9.957 9.8047-9.8184 0.46484-0.47461h-5.2266l-0.08985 0.085938-8.123 8.3301v-8.666zm-155.82 0.25v22.633h4.8496c2.2517 0 4.0167-0.20499 5.2695-0.625 1.325-0.42003 2.6275-1.1736 3.8457-2.2402 2.4148-2.1463 3.6543-4.9803 3.6543-8.4531 0-3.4367-1.1864-6.2708-3.5117-8.3926-1.1533-1.0479-2.4492-1.8005-3.8594-2.2422-1.3149-0.45034-3.1157-0.67969-5.3457-0.67969h-4.9024zm38.551 0v22.891l0.42969-0.30078 3.332-2.3477 0.11719-0.08789v-6.4766h1.2715c2.3498 0 4.2581-0.62549 5.6582-1.8438 1.4131-1.2384 2.123-2.9202 2.123-5.0117 0-1.9601-0.66696-3.5993-1.9805-4.8926-0.75634-0.74335-1.6409-1.26-2.6426-1.5312-0.95986-0.25692-2.393-0.39844-4.2578-0.39844h-4.0508zm21.643 0v22.891l0.41797-0.30078 3.3457-2.3477 0.11329-0.08789v-6.5527h0.18554l6.2324 8.9258 0.14844 0.22461 0.22656-0.16211 2.6738-1.9297 0.22657-0.16211-0.16211-0.22266-5.1953-7.1465c1.338-0.37672 2.4453-1.1013 3.2969-2.168 0.93677-1.1634 1.4004-2.5865 1.4004-4.2031 0-2.0698-0.75405-3.7742-2.2422-5.043-1.3351-1.1316-3.5232-1.7148-6.498-1.7148h-4.1699zm70.381 0v22.633h9.5684l0.08789-0.07422 2.9961-3.1367 0.44336-0.46289h-9.2148v-7.0293h2.832l0.07617-0.083984 3.1152-3.125 0.46289-0.47461h-6.4863v-4.5586h5.6133l0.08594-0.076172 3.0723-3.1367 0.45117-0.47461h-13.104zm43.98 0v3.6875h5.0762v19.203l0.4336-0.30078 3.3281-2.3477 0.11914-0.08789v-16.467h5.0664v-3.6875h-14.023zm-82.096 3.2656c2.2214 0 4.1077 0.78518 5.6074 2.3281 1.5199 1.5314 2.2832 3.4575 2.2832 5.7207 0 2.2315-0.77613 4.162-2.3047 5.7266-1.543 1.5401-3.4502 2.3164-5.6816 2.3164-2.0366 0-3.8797-0.76523-5.4414-2.2852-1.5848-1.5083-2.3828-3.4599-2.3828-5.8184 0-2.23 0.7765-4.1417 2.2949-5.6602 1.5199-1.543 3.4166-2.3281 5.625-2.3281zm-50.039 0.095703h1.1973c3.06 0 4.6016 1.1347 4.6016 3.3965 0 2.4148-1.5858 3.623-4.7324 3.623h-1.0664v-7.0195zm21.65 0h1.1973c3.0614 0 4.6035 1.1347 4.6035 3.3965 0 2.4148-1.583 3.623-4.7324 3.623h-1.0684v-6.6934-0.32617zm-60.191 0.32617h1.2266c2.7511 0 4.8629 0.65624 6.25 1.9395 1.5646 1.4549 2.3418 3.3608 2.3418 5.6875 0 2.3181-0.78662 4.2158-2.3613 5.6621-0.76355 0.68705-1.6365 1.2072-2.5977 1.5176-0.94541 0.31465-2.175 0.46484-3.6328 0.46484h-1.2266v-15.271zm-37.242 43.668 0.22656 1.082h-0.005859l10.52 6.2031 2.6621 1.5449-1.4551-3.7441c8.6637 2.5536 15.722 2.7006 20.422 0.49609-8.1902 2.4024-28.451-4.4238-32.367-5.582h-0.001954zm32.391 5.5723c-0.006657 0.00277-0.012964 0.00612-0.019531 0.00976 0.004084-0.00106 0.008828-0.00302 0.013672-0.0039 0-4e-3 0.005859-0.00586 0.005859-0.00586zm-66.463 1.373c-1.7378 1.5834-3.9553 3.8997-5.9414 6.0215-2.5187 2.715-4.5918 5.088-4.5918 5.0996-0.0332 0.0202-0.044422 0.06244-0.076172 0.08984-1.6455 0.45322-4.4353 1.2214-6.293 1.7266-2.7525 0.76354-5.2227 0.57509-5.2227 2.375 0 0-2.8485 1.529-2.1816 3.8066 0 0 5.7158-4.5642 10.605-5.3379 0 0-2.9882 1.9434-2.7168 4.5762 0 0 4.0259-6.0238 8.7285-2.3691 0 0-2.0959-2.848-1.2227-4.4141 0.75199-0.85303 2.3082-2.6032 4.0879-4.5215 2.3758-2.5562 5.1688-5.4406 6.8359-6.7988-0.46766-0.0404-1.2078-0.13264-2.0117-0.2539z"/>
</svg>
