<?xml version="1.0" encoding="UTF-8" standalone="no"?>
<svg
   xmlns:dc="http://purl.org/dc/elements/1.1/"
   xmlns:cc="http://creativecommons.org/ns#"
   xmlns:rdf="http://www.w3.org/1999/02/22-rdf-syntax-ns#"
   xmlns:svg="http://www.w3.org/2000/svg"
   xmlns="http://www.w3.org/2000/svg"
   viewBox="0 0 299.99999 164.242"
   height="164.242"
   width="300"
   xml:space="preserve"
   id="svg2"
   version="1.1"><metadata
     id="metadata8"><rdf:RDF><cc:Work
         rdf:about=""><dc:format>image/svg+xml</dc:format><dc:type
           rdf:resource="http://purl.org/dc/dcmitype/StillImage" /><dc:title></dc:title></cc:Work></rdf:RDF></metadata><defs
     id="defs6"><clipPath
       id="clipPath66"
       clipPathUnits="userSpaceOnUse"><path
         id="path64"
         d="M 0,0 H 841.89 V 595.276 H 0 Z" /></clipPath></defs><g
     transform="matrix(1.3333333,0,0,-1.3333333,0,164.24198)"
     id="g10"><path
       id="path56"
       style="fill:#ffffff;fill-opacity:1;fill-rule:nonzero;stroke:none"
       d="M 336.756,267.874 H 782.362 V 476.22 H 336.756 Z" /><g
       transform="matrix(1.0825432,0,0,1.0825432,-493.2467,-352.45549)"
       id="g60"><g
         clip-path="url(#clipPath66)"
         id="g62"><g
           transform="translate(474.902,337.981)"
           id="g68"><path
             id="path70"
             style="fill:#FFF;fill-opacity:1;fill-rule:nonzero;stroke:none"
             d="M 0,0 C 1.646,1.771 3.581,3.77 4.736,4.711 4.412,4.739 3.899,4.802 3.342,4.886 2.138,3.789 0.602,2.185 -0.774,0.715 -2.519,-1.166 -3.955,-2.81 -3.955,-2.818 c -0.023,-0.014 -0.031,-0.044 -0.053,-0.063 -1.14,-0.314 -3.073,-0.846 -4.36,-1.196 -1.907,-0.529 -3.618,-0.399 -3.618,-1.646 0,0 -1.974,-1.059 -1.512,-2.637 0,0 3.96,3.163 7.348,3.699 0,0 -2.07,-1.347 -1.882,-3.171 0,0 2.789,4.174 6.047,1.642 0,0 -1.452,1.973 -0.847,3.058 C -2.311,-2.541 -1.233,-1.329 0,0 m -6.272,49.279 c -0.171,-0.076 -0.349,-0.104 -0.532,-0.104 -0.577,0 -1.119,0.351 -1.354,0.923 -0.021,0.046 -0.048,0.102 -0.057,0.161 l -0.43,-0.143 c 0.361,-1.053 1.449,-1.629 2.43,-1.289 0.247,0.088 0.468,0.22 0.639,0.388 0.539,0.506 0.758,1.333 0.49,2.117 l -0.986,-0.336 c 0.062,-0.146 0.104,-0.303 0.104,-0.471 0,-0.145 -0.026,-0.277 -0.083,-0.403 l 0.449,-0.274 C -5.68,49.73 -5.775,49.612 -5.89,49.514 -5.994,49.416 -6.125,49.338 -6.272,49.279 m 39.903,3.196 -19.475,-4.75 v 0.021 l 0.006,-0.021 38.039,16.46 -31.35,-3.84 16.781,12.258 -17.982,-7.02 2.716,5.449 L 9.502,61.766 9.393,61.962 27.63,101.389 -2.026,66.288 -2.211,85.426 -13.092,59.845 l -0.565,7.541 -5.361,-19.622 0.01,0.006 v -0.006 c 0,0 0.722,0.535 1.694,0.828 0.078,0.021 0.156,0.04 0.235,0.063 0.01,0 0.019,0.008 0.031,0.008 0.078,0.017 0.156,0.035 0.235,0.048 0.01,0 0.021,0.008 0.036,0.008 0.08,0.014 0.157,0.025 0.247,0.031 v 0.008 c 0.084,0.007 0.166,0.011 0.245,0.018 h 0.051 c 0.079,0.008 0.164,0.008 0.252,0 0.006,0 0.01,0 0.03,-0.007 0.074,0 0.147,-0.004 0.225,-0.019 0.016,-0.006 0.025,-0.006 0.042,-0.006 0.086,-0.011 0.163,-0.025 0.241,-0.046 0.021,0 0.042,-0.007 0.052,-0.011 0.082,-0.021 0.166,-0.044 0.256,-0.074 1.834,-0.664 3.394,0 3.394,0 0,0 1.727,-1.109 1.727,-2.039 h -0.004 V 46.57 c 0,0 -2.272,-0.133 -2.272,0.874 0,0 -2.907,1.031 -6.974,-0.475 l 8.577,-3.688 c -0.006,0.039 -0.458,1.636 0.038,2.191 0.157,0.192 0.432,0.259 0.862,0.114 0.157,-0.056 0.271,-0.042 0.342,0.026 0.666,0.688 -2.568,6.66 -2.568,6.66 0,0 -2.903,0.282 -5.417,-2.346 -0.166,-0.174 -0.34,-0.361 -0.501,-0.566 v 0.009 -0.009 c 0.256,0.448 1.071,1.746 2.431,2.87 0.814,0.684 1.834,1.297 3.048,1.643 0.333,0.798 -0.09,0.278 0.596,0.698 0.006,0 0.006,0.007 0.006,0.007 0.322,2.106 1.514,7.53 5.626,12.168 0.276,0.308 0.56,0.619 0.863,0.914 0,0 -1.054,-1.982 -1.054,-3.36 0.03,0.035 1.071,1.596 2.509,3.024 v 0.006 c 0,0 -0.017,-0.022 -0.038,-0.062 -0.268,-0.571 -2.228,-4.757 -2.023,-5.979 0.005,-0.011 0.009,-0.018 0.009,-0.03 l 3.964,3.632 c 0,0 -0.011,-0.007 -0.017,-0.011 -0.115,-0.157 -3.721,-5.035 -4.077,-6.706 v -0.012 l 6.001,4.287 -0.006,-0.007 c -0.019,-0.035 -0.756,-1.061 -1.065,-1.624 -0.22,-0.403 -0.252,-0.539 -0.252,-0.581 l 0.01,-0.032 3.231,1.386 c 0,0 -0.14,-0.168 -0.366,-0.413 l -1.202,-1.222 -0.297,-0.314 -2.185,-2.209 -0.041,-0.05 -1.663,-1.69 -1.067,-1.087 c 0,0 -0.872,-0.908 -0.977,-1.379 -0.104,-0.463 0.387,-0.749 0.387,-0.749 h -0.005 c 0.444,-0.248 0.804,-0.631 1.013,-1.09 0.117,-0.278 0.182,-0.58 0.182,-0.905 0,-0.635 -0.26,-1.212 -0.695,-1.628 -0.427,-0.42 -1.029,-0.682 -1.692,-0.682 -0.603,0 -1.139,0.218 -1.558,0.569 0.073,-0.099 1.255,-1.584 3.423,-0.429 l 2.68,1.953 0.116,0.091 2.771,2.026 c 0.654,-0.771 1.271,-1.701 1.83,-2.755 -1.647,-1.564 -4.454,-4.277 -7.257,-7.244 -1.67,-1.764 -3.337,-3.629 -4.76,-5.39 l 1,4.695 0.082,0.388 c 0,0 -0.004,0 -0.004,-0.007 -0.011,-0.004 -0.017,-0.004 -0.025,-0.011 0,-0.004 -0.013,-0.011 -0.013,-0.011 -0.009,-0.006 -0.021,-0.006 -0.026,-0.021 -0.006,0 -0.014,-0.004 -0.014,-0.016 -0.011,-0.005 -0.028,-0.012 -0.038,-0.019 -0.006,-0.004 -0.01,-0.02 -0.027,-0.023 C -8.607,41.964 -8.623,41.948 -8.637,41.944 -8.645,41.93 -8.655,41.925 -8.671,41.913 -8.682,41.902 -8.69,41.891 -8.713,41.885 -8.728,41.87 -8.738,41.855 -8.755,41.846 -8.768,41.835 -8.785,41.815 -8.802,41.813 -8.816,41.792 -8.833,41.773 -8.847,41.768 -8.869,41.752 -8.885,41.734 -8.906,41.72 -8.921,41.709 -8.937,41.689 -8.95,41.674 -8.973,41.656 -9,41.642 -9.015,41.617 -9.042,41.607 -9.051,41.589 -9.078,41.577 -9.093,41.552 -9.12,41.533 -9.146,41.51 -9.161,41.493 -9.188,41.474 -9.204,41.454 -9.23,41.432 -9.261,41.407 -9.282,41.379 -9.303,41.36 -9.317,41.342 -9.345,41.328 c -0.02,-0.031 -0.051,-0.061 -0.088,-0.089 -0.021,-0.017 -0.037,-0.031 -0.052,-0.051 -0.017,-0.017 -0.037,-0.035 -0.059,-0.052 0,-0.007 -0.004,-0.007 -0.004,-0.007 -0.03,-0.028 -0.063,-0.064 -0.094,-0.098 -0.027,-0.016 -0.048,-0.044 -0.067,-0.07 -0.038,-0.028 -0.065,-0.06 -0.096,-0.089 -0.026,-0.025 -0.053,-0.056 -0.078,-0.079 -0.021,-0.032 -0.048,-0.056 -0.062,-0.075 -0.011,-0.009 -0.025,-0.024 -0.037,-0.035 0,-0.004 -0.01,-0.013 -0.021,-0.024 -0.02,-0.02 -0.037,-0.037 -0.058,-0.059 -0.026,-0.031 -0.052,-0.056 -0.078,-0.087 -0.006,-0.011 -0.01,-0.019 -0.021,-0.022 -0.011,-0.011 -0.02,-0.017 -0.031,-0.028 -0.014,-0.025 -0.032,-0.044 -0.053,-0.062 -0.031,-0.044 -0.062,-0.078 -0.104,-0.114 -0.026,-0.04 -0.058,-0.068 -0.084,-0.107 -0.031,-0.039 -0.073,-0.081 -0.105,-0.117 -0.031,-0.04 -0.06,-0.07 -0.089,-0.11 -0.041,-0.043 -0.072,-0.089 -0.114,-0.133 -0.026,-0.035 -0.059,-0.071 -0.092,-0.113 -0.034,-0.048 -0.07,-0.09 -0.112,-0.146 -0.031,-0.028 -0.058,-0.071 -0.09,-0.106 -0.039,-0.059 -0.082,-0.109 -0.124,-0.165 -0.033,-0.042 -0.058,-0.07 -0.079,-0.108 -0.052,-0.067 -0.105,-0.134 -0.157,-0.202 -0.016,-0.026 -0.043,-0.057 -0.057,-0.082 -0.073,-0.101 -0.151,-0.203 -0.221,-0.31 l -0.009,-0.011 c -0.07,-0.102 -0.142,-0.203 -0.21,-0.306 -0.016,-0.03 -0.039,-0.065 -0.061,-0.097 -0.048,-0.078 -0.104,-0.157 -0.157,-0.24 -0.028,-0.039 -0.048,-0.078 -0.078,-0.117 -0.048,-0.079 -0.096,-0.149 -0.147,-0.227 -0.027,-0.048 -0.052,-0.09 -0.077,-0.133 -0.042,-0.078 -0.096,-0.158 -0.146,-0.237 -0.022,-0.047 -0.053,-0.093 -0.078,-0.144 -0.048,-0.078 -0.09,-0.161 -0.143,-0.239 -0.027,-0.042 -0.058,-0.098 -0.084,-0.146 -0.048,-0.092 -0.095,-0.171 -0.143,-0.255 -0.022,-0.047 -0.05,-0.1 -0.076,-0.154 -0.221,-0.406 -0.435,-0.826 -0.655,-1.279 v -0.009 l -1.103,-0.184 c 0.221,0.568 0.439,1.083 0.676,1.572 l -1.799,-2.533 1.799,0.177 c -1.539,-3.536 -2.667,-8.161 -2.667,-14.75 l 1.465,0.927 c 1.29,-7.353 7.353,-10.586 7.353,-10.586 l -0.01,0.046 C -4.683,7.478 -0.617,5.949 3.863,5.343 4.484,5.264 4.988,5.218 5.102,5.207 c 0.004,0 0.004,0 0.004,0.003 C 5.187,5.2 5.259,5.186 5.337,5.186 7.763,4.974 10.12,5.061 12.374,5.39 12.368,5.305 12.363,5.218 12.363,5.131 12.363,3.675 13.172,2.477 14.204,2.377 12.085,-1.225 10.37,-6.01 10.365,-6.033 10.283,-6.253 10.114,-6.66 9.943,-6.782 9.421,-6.899 9.379,-6.926 8.802,-7.105 l 0.009,0.007 C 8.616,-6.909 6.943,-6.596 5.239,-7.235 5.243,-7.244 5.243,-7.244 5.253,-7.252 4.288,-7.675 3.35,-8.448 2.699,-9.728 3.392,-9.169 4.685,-8.259 5.736,-8.385 4.49,-9.095 2.338,-10.45 2.092,-12.4 c 0,0 7.473,5.243 11.158,4.275 0,0 -0.536,-0.609 0.732,-2.874 l 0.58,2.107 c 0.664,2.044 -1.896,2.345 -2.972,2.389 0.005,0.015 0.005,0.022 0.005,0.025 0,0 0.119,0.327 0.328,0.869 0.634,1.637 2.111,5.256 3.728,7.839 0.03,0.055 0.051,0.112 0.068,0.166 l -0.303,0.417 c 0.003,0 0.218,0.235 0.335,0.409 0.214,0.338 0.511,0.914 0.516,1.674 0,0.596 -0.145,1.35 -0.571,2.285 l 0.958,0.444 c 0.051,-0.122 0.103,-0.235 0.154,-0.345 0.014,-0.042 0.028,-0.078 0.04,-0.11 0.03,-0.079 0.06,-0.157 0.087,-0.235 0.016,-0.036 0.029,-0.079 0.044,-0.118 0.026,-0.085 0.05,-0.164 0.078,-0.242 0.005,-0.024 0.021,-0.056 0.026,-0.084 l 5.47,1.652 -1.212,0.998 H 21.333 L 21.279,9.195 21.251,9.217 0.564,28.057 c 0.006,0 0.011,-0.01 0.011,-0.01 L 0.57,28.057 C 6.321,25.26 13.03,22.007 24.41,16.735 35.622,11.567 42.72,8.557 46.382,7.056 46.413,7.037 46.447,7.024 46.472,7.013 h 0.006 C 47.01,6.794 47.466,6.611 47.851,6.454 48.635,6.148 49.369,5.863 49.409,5.845 49.471,5.88 49.545,5.9 49.608,5.932 L 7.783,34.618 Z M 4.685,43.634 v 0 l -6.236,-4.743 4.476,9.842 v 0.009 C 3.636,47.232 4.234,45.507 4.69,43.634 Z M 26.948,9.698 27.105,8.949 H 27.101 L 34.388,4.651 36.232,3.58 35.224,6.174 c 6.012,-1.772 10.908,-1.872 14.164,-0.337 0,0 -0.004,0 -0.004,-0.003 C 43.717,4.16 29.663,8.895 26.948,9.698" /></g><g
           transform="translate(557.4296,380.2122)"
           id="g76"><path
             id="path78"
             style="fill:#FFF;fill-opacity:1;fill-rule:nonzero;stroke:none"
             d="m 0,0 c -0.665,0.178 -1.658,0.276 -2.95,0.276 h -2.807 v -15.86 l 0.298,0.209 2.308,1.626 0.082,0.061 v 4.487 h 0.881 c 1.628,0 2.95,0.434 3.92,1.278 0.979,0.858 1.471,2.023 1.471,3.472 0,1.358 -0.463,2.494 -1.373,3.39 C 1.306,-0.546 0.694,-0.188 0,0 m -2.337,-6.916 h -0.739 v 4.862 h 0.829 c 2.12,0 3.188,-0.785 3.188,-2.352 0,-1.673 -1.098,-2.51 -3.278,-2.51 M 14.926,-8.82 c 0.927,0.261 1.695,0.763 2.285,1.502 0.649,0.806 0.971,1.792 0.971,2.912 0,1.434 -0.523,2.614 -1.554,3.493 -0.925,0.784 -2.441,1.189 -4.502,1.189 h -2.89 v -15.86 l 0.291,0.209 2.316,1.626 0.081,0.061 v 4.54 h 0.128 l 4.316,-6.184 0.104,-0.155 0.156,0.112 1.853,1.337 0.157,0.112 -0.112,0.155 z m -3.002,1.904 v 0.158 4.479 0.225 h 0.829 c 2.121,0 3.189,-0.785 3.189,-2.352 0,-1.673 -1.097,-2.51 -3.279,-2.51 z m -37.289,6.721 c -0.911,0.312 -2.159,0.471 -3.704,0.471 h -3.397 v -15.681 h 3.36 c 1.56,0 2.784,0.142 3.652,0.433 0.918,0.291 1.82,0.813 2.664,1.552 1.673,1.487 2.531,3.45 2.531,5.856 0,2.381 -0.822,4.345 -2.433,5.815 -0.799,0.726 -1.696,1.248 -2.673,1.554 m 0.753,-11.291 c -0.529,-0.476 -1.134,-0.836 -1.8,-1.051 -0.655,-0.218 -1.506,-0.322 -2.516,-0.322 h -0.85 v 10.58 h 0.85 c 1.906,0 3.369,-0.455 4.33,-1.344 1.084,-1.008 1.622,-2.329 1.622,-3.941 0,-1.606 -0.545,-2.92 -1.636,-3.922 m -17.643,9.499 c 0.991,0 1.97,-0.284 2.926,-0.844 l 0.165,-0.097 0.09,0.164 1.12,1.934 0.097,0.164 -0.164,0.098 c -1.308,0.753 -2.683,1.133 -4.072,1.133 -2.567,0 -4.687,-0.961 -6.3,-2.865 -1.315,-1.561 -1.98,-3.353 -1.98,-5.34 0,-2.209 0.8,-4.137 2.361,-5.704 1.582,-1.554 3.508,-2.345 5.742,-2.345 1.477,0 2.905,0.389 4.249,1.149 l 0.095,0.061 v 0.156 l -0.021,0.044 -1.127,1.95 -0.098,0.171 -0.171,-0.112 c -0.313,-0.202 -0.621,-0.365 -0.904,-0.485 -0.546,-0.254 -1.217,-0.38 -2.002,-0.38 -1.507,0 -2.799,0.537 -3.845,1.599 -1.039,1.058 -1.568,2.381 -1.568,3.927 0,1.566 0.529,2.912 1.568,3.986 1.039,1.092 2.33,1.636 3.839,1.636 M 88.469,-2.279 h 3.516 v -13.305 l 0.3,0.209 2.307,1.626 0.082,0.061 v 11.409 h 3.51 V 0.276 H 88.469 Z M 31.623,0.56 c -2.248,0 -4.204,-0.801 -5.802,-2.376 -1.613,-1.575 -2.427,-3.487 -2.427,-5.681 0,-2.494 0.896,-4.548 2.66,-6.093 1.596,-1.391 3.433,-2.099 5.449,-2.099 2.271,0 4.242,0.799 5.846,2.366 1.606,1.561 2.42,3.488 2.42,5.735 0,2.226 -0.807,4.168 -2.404,5.751 -1.589,1.591 -3.517,2.397 -5.742,2.397 m 3.838,-12.091 c -1.069,-1.067 -2.39,-1.604 -3.936,-1.604 -1.411,0 -2.688,0.53 -3.77,1.583 -1.098,1.045 -1.651,2.397 -1.651,4.031 0,1.545 0.538,2.869 1.59,3.921 1.053,1.069 2.368,1.613 3.898,1.613 1.539,0 2.845,-0.544 3.884,-1.613 1.053,-1.061 1.582,-2.396 1.582,-3.964 0,-1.546 -0.538,-2.883 -1.597,-3.967 M 81.12,0.216 75.492,-5.555 V 0.448 L 75.193,0.231 72.885,-1.39 72.803,-1.449 v -14.135 l 0.306,0.209 2.308,1.626 0.075,0.061 v 4.726 l 0.275,0.27 5.376,-6.646 0.105,-0.134 0.15,0.097 1.978,1.337 0.172,0.119 -0.134,0.165 -5.726,6.899 6.793,6.802 0.322,0.329 h -3.621 z m -33.07,-1.613 -0.083,-0.06 v -8.355 c 0,-1.264 -0.134,-2.15 -0.395,-2.643 -0.232,-0.463 -0.642,-0.68 -1.254,-0.68 -0.448,0 -0.934,0.17 -1.456,0.522 l -0.172,0.112 -0.097,-0.171 -1.142,-1.971 -0.09,-0.164 0.157,-0.098 c 0.865,-0.515 1.806,-0.784 2.8,-0.784 1.329,0 2.411,0.486 3.217,1.425 0.412,0.478 0.703,1.068 0.882,1.756 0.164,0.596 0.254,1.478 0.254,2.688 V 0.448 L 50.364,0.231 Z m 16.525,-0.882 0.059,0.053 2.128,2.173 0.313,0.329 h -9.078 v -15.681 h 6.629 l 0.061,0.052 2.075,2.173 0.308,0.321 h -6.385 v 4.869 h 1.963 l 0.052,0.059 2.158,2.164 0.322,0.329 h -4.495 v 3.159 z" /></g></g></g></g></svg>
