<svg width="512pt" height="148.1pt" preserveAspectRatio="xMidYMid" version="1.0" viewBox="0 0 512 148.1" xmlns="http://www.w3.org/2000/svg">
 <path d="m6.2007 0-3.1011 3.0996-3.0996 3.1011v82.6l3.4995 3.0996 3.6006 3.0996h498.1l6.7998-6.7998v-81.999l-3.4995-3.1011-3.6006-3.0996h-249.4zm185.8 20h17v45h43v12.501h-60v-28.8zm67 0h65v12h-48v12h45v10h-45v12h48v11.5h-65v-28.8zm195 0c14.2 0 26.099 0.5001 28.299 1.1001 5.1 1.4 10.401 6.3007 11.801 10.701 0.6 2.2 0.89873 9.8993 0.69873 19.299-0.3 15.3-0.39962 15.6-3.0996 19.2-5 6.6-5.3997 6.7002-37.2 6.7002-29.6 0-30.7-0.09893-35.3-4.3989-4.8-4.3-5.3009-6.7001-5.4009-23.6 0-16.9 0.50049-19.201 5.5005-23.801 4.9-4.6 8.5007-5.1002 34.701-5.2002zm-310.28 0.1377c12.775 0.0375 25.526 0.3624 27.576 0.9624 4.5 1.2 10 5.7998 11.6 9.7998 0.9 1.9 1.0994 8.2008 0.89941 19.301-0.3 16.3-0.29961 16.499-3.0996 20.099-5 6.6-5.2997 6.6002-37.2 6.7002-32.4 0.1-32.301 0.10009-38.001-7.8999-3-4.2-2.9988-4.4998-3.2988-18.8-0.3-14-0.30019-14.7 2.2998-19.9 2.6-5.4 5.899-8.0995 11.499-9.4995 2.15-0.55 14.95-0.80068 27.725-0.76318zm-101.1 0.12744c4.2469-0.07031 9.603-0.03984 16.478 0.03516l25.6 0.20068 4.0005 2.6997c4.4 2.9 8.2998 9.5991 8.2998 14.099 0 2.7-0.0011 2.7012-7.6011 2.7012-6.9 0-7.7991-0.20049-9.5991-2.5005-3.8-4.8-6.5003-5.5005-22.8-5.5005-22 0-24 1.4003-24 16.8 0 7.7 0.29951 9.9007 1.9995 12.201 3.3 4.6 6.2008 5.1988 23.801 4.7988l16.1-0.29883 3-2.9004c1.7-1.7 3.0996-3.6008 3.0996-4.3008 0-1.1 1.8006-1.3997 8.1006-1.1997l8.0991 0.20068-0.3999 4.1001c-0.7 5.5-4.8995 11.8-9.4995 14-3.1 1.5-6.901 1.6996-30.501 1.5996-30.3-0.1-30.699-0.099714-35.799-7.1997l-3-4.1001v-16.4c0-17.5 0.49981-19.6 5.2998-24.1 3.825-3.6 6.5821-4.7241 19.323-4.9351zm327.88 0.035157c23.2 0.2 25.3 0.3002 28.5 2.2002 4.5 2.7 8.7007 9.0007 9.2007 13.701l0.39991 3.7998h-8.1006c-7.9-0.1-8.0005-0.10069-10-3.2007-1.1-1.8-3.1-3.4994-4.5-3.8994s-9.3993-0.6998-17.799-0.7998c-17.4-0.1-19.901 0.59952-22.701 6.4995-1.3 2.8-1.5993 5.6-1.2993 12 0.3 7.9 0.49912 8.5001 3.5991 11.6l3.2007 3.3003 16.4 0.29883c18.3 0.4 21.3-0.29932 24.1-5.7993 1.5-2.9 1.8004-3 8.9004-3 4 0 7.5003 0.19951 7.8003 0.49951 1.2 1.2-1.4013 10.001-3.8013 13.301-4.5 5.8-6.2997 6.0992-35.7 6.1992-30 0.1-31.8-0.19962-36.7-7.5996-2.4-3.5-2.4993-4.5996-2.7993-19.6-0.3-15.5-0.29981-16 2.2002-20.2 2.7-4.7 6.2991-7.4997 11.099-8.6997 1.6-0.4 14.3-0.70059 28-0.60059zm-235.21 11.934c-7.2328 0.02812-9.8388 0.36563-11.489 1.2656-4.3 2.4-5.7993 6.401-5.7993 15.501 0 9.5 1.6002 13.1 6.7002 15.5 2.8 1.3 6.4998 1.5993 20.3 1.2993l17-0.29883 3.2007-3.3003c3.3-3.2 3.2988-3.2997 3.2988-13.2s1e-3 -10.001-3.2988-13.201l-3.2007-3.2988-17.799-0.20068c-3.575-0.05-6.5012-0.07529-8.9121-0.06592zm311 0c-7.2328 0.02812-9.8402 0.36563-11.49 1.2656-4.4 2.4-5.7993 6.3005-5.7993 16 0 8.3 0.0999 8.6003 3.3999 12.3l3.3999 3.7002h37.2l3.2007-3.3003c3.3-3.2 3.3003-3.2997 3.3003-13.2s-3e-4 -10.001-3.3003-13.201l-3.2007-3.2988-17.799-0.20068c-3.575-0.05-6.4997-0.07529-8.9106-0.06592zm37.865 73.849c-1.0041-2e-3 -2.117 5e-3 -3.3545 0.0176-6.2 0-12.8 0.59931-14.7 1.2993-5.9 2.1-7.1001 4.6008-7.1001 14.801 0 7.4 0.40059 9.6999 2.1006 12.4 2.7 4.4 4.8989 4.9003 19.399 4.8003 13.8 0 16.601-1.1001 18.601-7.1001 1-3.2 0.8998-3.801-0.7002-5.001-2.6-1.9-6.0995-1.5991-9.4995 0.90088-2.6 1.9-4.0007 2.1999-10.701 1.8999-4.2-0.1-7.7995-0.39951-7.9995-0.49951-0.1-0.2-0.50088-2.6013-0.90088-5.3013-0.5-4.3-0.19893-5.3997 1.6011-7.1997 1.7-1.7 3.2989-2.0991 8.8989-2.0991 4.5 0 7.5 0.49961 9 1.5996 3.1 2.1 7.8007 2.5994 9.2007 0.89941 1.8-2.2 0.2-7.1995-3-9.4995-2.1-1.4875-3.817-1.9038-10.846-1.9175zm-33.854 0.91699c-3.2 0-4.3008 2.9009-4.3008 11.401 0 5.9-0.29893 7.5996-1.3989 7.5996-1.3 0-9.7003-9.0993-13.8-14.799-0.7-1-2.301-2.4-3.501-3-2.8-1.6-11.599-1.5-13.099 0-1.7 1.7-1.7 28.899 0 30.599 0.7 0.7 2.3998 1.1997 3.7998 1.1997 4.3 0 4.9995-1.7002 4.9995-11.2 0-4.9 0.40049-8.7993 1.0005-8.7993 0.5 0 4.5996 4.5005 9.0996 10l8.2002 9.999h5.6997c8.9 0 8.9997-0.0988 8.6997-16.799-0.2-15.2-0.49942-16.201-5.3994-16.201zm-105.23 0.75147c-2.0984 0.0172-4.343 0.099-6.668 0.24902-5.3 0.4-8.9988 1.1998-10.799 2.2998-2.5 1.7-2.7009 2.1999-2.4009 7.8999 0.4 8.6 2.2999 9.7997 15.4 10.2 12.7 0.4 12.4 0.40098 12.4 2.001 0 2-2.6998 2.699-9.7998 2.499-4-0.1-7.1004-0.79951-8.9004-1.9995-3.2-2.2-6.3991-2.4002-8.0991-0.70019-1.9 1.9-1.4006 6.3009 0.89941 8.4009 1.9 1.7 3.8006 1.8999 17.101 1.8999h15l2.3994-2.8008c1.8-2.1 2.4009-3.9992 2.4009-7.6992 0-4.2-0.40108-5.2004-3.1011-7.4004-2.8-2.4-3.7987-2.6001-12.699-2.6001-9.8 0-13.001-0.80039-11.801-2.9004 1.1-1.8 14-1.3994 17.3 0.60059 3.3 1.9 7.6997 1.1992 8.6997-1.3008 0.7-1.9-1.6001-5.8997-4.1001-7.1997-1.95-0.975-6.9366-1.5003-13.232-1.4487zm-67.226 0.14795c-1.9992-0.0401-4.0909 0.71416-4.9409 2.2017-1.7 3.3-0.70029 28.8 1.1997 30 2 1.3 6.2992 1.0997 7.6992-0.3003 1.5-1.5 1.7007-27.1 0.20068-29.9-0.70312-1.3125-2.3947-1.9656-4.1587-2.001zm125.38 0.0439c-1.5832-0.015-3.146 0.38184-4.021 1.2568-1.5 1.5-1.7007 24.4-0.20068 28.2 0.8 2.1 1.5993 2.6001 4.2993 2.6001 1.8 0 3.8-0.49971 4.5-1.1997 1.5-1.5 1.7007-26.1 0.20068-28.9-0.675-1.2375-2.7428-1.9377-4.7783-1.957zm-155.52 0.05717c-11.9 0-14.8 0.29961-16.1 1.5996-1.3 1.2-1.6011 4.1003-1.6011 15.3 0 14.7 0.40098 16.1 5.001 16.1 3.6 0 4.8002-1.1 5.2002-4.5 0.3-2.6 0.80001-3.0994 4.5-3.8994 2.5-0.5 5.999-0.5 8.499 0 3.6 0.8 4.4002 1.4001 5.2002 4.1001 1 3.5 3.3997 4.7994 7.1997 3.8994 2.1-0.6 2.4009-1.1994 2.4009-5.3994 0-2.6-0.50049-5.3008-1.0005-5.8008-0.7-0.7-0.60049-2.1992 0.49951-4.6992 2.5-5.9 2.0001-9.4008-1.8999-13.301l-3.3999-3.3999zm56.899 0c-7.7 0-14.9 0.5001-15.8 1.1001-1.6 0.9-1.8003 2.6992-1.8003 15.199 0 9.8 0.40117 14.701 1.2012 15.501 1.3 1.3 29.099 1.7991 32.199 0.59912 2.1-0.8 2.0008-4.6987-0.19921-6.6987-1.3-1.2-4.3007-1.7014-12.201-1.9014-9-0.3-10.499-0.49913-10.799-2.0991-0.3-1.5 0.69972-1.7007 10.2-1.7007 10.4 0 10.699-0.099 11.799-2.499 1.9-4.1 6.7e-4 -4.9998-11.799-5.2998-9.1-0.3-10.5-0.60097-10.2-2.001s2.1993-1.8002 11.799-2.2002c11.1-0.5 11.499-0.59932 11.799-2.7993 0.7-4.7-0.99973-5.2002-16.2-5.2002zm-222.68 0.27246c-3.5141 3e-3 -7.6942 0.15274-12.719 0.42774-7.9 0.49999-8.0006 0.70021-8.1006 17.2-0.2 17.7-1.0994 16.899 18.601 16.299 22.8-0.6 24.699-2.0002 24.199-17.2-0.4-8.6-0.50059-9.0992-3.6006-12.199-3.3-3.225-7.8372-4.5372-18.379-4.5278zm132.07 0.32227c-3.0026-1e-3 -6.5669 0.0738-10.786 0.20507-9.9 0.3-10.301 0.40079-11.401 2.8008-1.8 4 3e-4 5.7999 6.3003 6.3999l5.4009 0.49951 0.49951 10.2c0.3 5.8 1.0007 10.701 1.7007 11.401 1.7 1.7 6.8987 1.9991 8.1987 0.59912 0.5-0.7 1.2008-5.9997 1.3008-11.7l0.30029-10.4 6.4995-1.1001c5.3-0.8 6.5998-1.4 6.7998-3 0.65-4.4687-1.8029-5.9003-14.814-5.9048zm-193.65 0.48779c-2.5031 5e-3 -3.5156 0.41719-4.6406 1.6172-1.4 1.7-1.6996 4.0006-1.5996 15.601 0 14.1 0.2 14.8 4.5 16.1 4.1 1.2 5.3994-1.6005 5.3994-11.5 0-6.5 0.29932-8.9004 1.2993-8.9004 0.6 0 3.3 2.8999 6 6.3999 2.6 3.5 6.4005 8.1004 8.5005 10.4 3.4 3.7 4.1 4.0005 9 4.0005 4 0.1 5.8008-0.3999 7.3008-1.8999 1.9-1.9 2-2.9006 1.5-15.601-0.4-7.5-0.90117-13.999-1.2012-14.399-0.8-1.3-6.7987-1.0997-8.1987 0.30029-0.7 0.7-1.2012 4.3995-1.2012 9.4995 0 10-0.89883 10.4-6.2988 3-2.1-2.9-5.5011-7.2006-7.6011-9.6006-3.6-4.2-4.2002-4.4999-9.7002-4.8999-1.225-0.075-2.2242-0.11875-3.0586-0.11719zm153.41 0c-1.051-1e-3 -2.1968 5e-3 -3.4468 0.0176-7 0-13.699 0.3998-14.799 0.7998-1.1 0.5-2.8009 1.8-3.9009 3-2.7 3-1.699 10.3 2.001 14.2 2.5 2.6 2.5998 2.9004 0.7998 2.9004-5 0-5.7 4.7996-1.5 9.0996l2.8989 2.9004h14.001c12.6 0 14.2-0.20059 16.6-2.1006 1.4-1.1 3.1006-2.8994 3.6006-3.8994 1.6-3-7.9e-4 -10.1-2.8008-12.7-2.3-2.1-3.3991-2.2998-12.599-2.2998-10.1 0-13.501-0.80039-12.201-2.9004 1.1-1.7 14.7-1.4001 17 0.3999 2.2 1.7 6.4005 1.9006 8.5005 0.60059 2-1.3 0.50059-6.6005-2.3994-8.5005-1.6625-1.1375-4.3971-1.5094-11.754-1.5176zm-168.96 3e-3c-0.045117-3e-3 -0.073926 2e-3 -0.086426 0.0147-0.1 0-1.2005 0.5001-2.5005 1.1001-2.2 1.1-2.1995 1.3997-1.9995 16.2l0.29883 15.1 3.3003 0.30029c5.8 0.6 6.2007-0.4004 6.2007-16.4v-14.4l-2.6001-1.0005c-1.225-0.525-2.2975-0.89629-2.6133-0.91406zm107.38 0.0147c-1.0875-0.025-2.2133 0.30049-3.3633 1.0005-1.6 0.9-1.8003 2.5987-1.8003 12.699 0 12.6 0.60108 14.1 6.1011 17.6 3.8 2.4 23.099 2.6003 27.599 0.3003 5.6-3 6.3003-4.9004 6.3003-17.9 0-11.7-4.9e-4 -11.899-2.5005-12.999-1.9-0.8-3.0995-0.8-4.9995 0-2.4 1.1-2.5005 1.5999-2.5005 9.3999 0 4.8-0.59932 9.4003-1.2993 10.8-1.2 2.4-1.6997 2.5002-8.6997 2.2002-4.1-0.2-8.0001-0.80078-8.6001-1.3008-0.7-0.6-1.2008-4.5997-1.3008-10.2-0.1-7.3-0.50029-9.5-1.8003-10.5-1-0.7-2.0487-1.0751-3.1362-1.1001zm134.81 8.0347c0.80645 4e-3 1.7106 0.0284 2.7232 0.0659 7.2 0.3 7.7991 0.49903 8.0991 2.499 0.4 3-3.3992 4.5001-10.699 4.1001-4.5-0.2-5.7004-0.69912-5.9004-2.0991-0.7-3.675 0.13223-4.5946 5.7773-4.5659zm-165.29 0.81591c4.5375-0.05 9.2133 0.34952 10.113 1.2495 1.8 1.8 1.5001 10.3-0.3999 11.9-1.1 0.9-4.5008 1.3989-10.301 1.3989h-8.6001l-0.29883-5.8989c-0.2-3.2-0.10078-6.5012 0.19922-7.2012 0.35-0.9 4.7496-1.3987 9.2871-1.4487zm426.23 11.084c-0.90967 0.0111-1.9055 0.31845-2.918 0.96533-1.8 1.1-2.2998 5.8992-0.79981 7.6992 1.3 1.6 4.9991 1.6996 6.5991 0.0996 0.7-0.7 1.1997-2.3998 1.1997-3.7998 0-3.0906-1.7564-4.9927-4.081-4.9644zm-346.57 0.50244c1.4471 9e-3 3.625 0.10595 6.75 0.2622 5.7 0.2 10.8 0.80079 11.3 1.3008 1.2 1.1-3.5988 2.8989-7.7988 2.8989-5.1 0-8.9005-0.99893-11.5-2.8989-1.5812-1.1688-1.9342-1.5818 1.2495-1.563zm210.83 1.4224c-1.7587 0.0409-3.5101 0.79014-4.1851 2.1401-0.8 1.4-0.79961 2.8995-0.0996 4.9995 0.7 2.2 0.70039 3.5003-0.0996 4.8003-2.3 3.7 1.9993 6.8008 5.7993 4.3008 3.2-2.1 4.7002-12.5 2.2002-15-0.87499-0.875-2.2474-1.2725-3.6152-1.2407z" fill="#fff"/>
</svg>
