<?xml version="1.0" standalone="no"?>
<!DOCTYPE svg PUBLIC "-//W3C//DTD SVG 20010904//EN"
 "http://www.w3.org/TR/2001/REC-SVG-20010904/DTD/svg10.dtd">
<svg version="1.0" xmlns="http://www.w3.org/2000/svg"
 width="512.000000pt" height="148.130231pt" viewBox="0 0 512.000000 148.130231"
 preserveAspectRatio="xMidYMid meet">
<metadata>
Created by potrace 1.15, written by Peter Selinger 2001-2017
</metadata>
<g transform="translate(0.000000,330.000000) scale(0.100000,-0.100000)"
fill="#ffffff" stroke="none">
<path d="M31 3269 l-31 -31 0 -413 0 -413 35 -31 36 -31 2490 0 2491 0 34 34
34 34 0 410 0 410 -35 31 -36 31 -2494 0 -2493 0 -31 -31z m856 -201 c44 -29
83 -96 83 -141 0 -27 0 -27 -76 -27 -69 0 -78 2 -96 25 -38 48 -65 55 -228 55
-220 0 -240 -14 -240 -168 0 -77 3 -99 20 -122 33 -46 62 -52 238 -48 l161 3
30 29 c17 17 31 36 31 43 0 11 18 14 81 12 l81 -2 -4 -41 c-7 -55 -49 -118
-95 -140 -31 -15 -69 -17 -305 -16 -303 1 -307 1 -358 72 l-30 41 0 164 c0
175 5 196 53 241 51 48 83 52 358 49 l256 -2 40 -27z m826 21 c45 -12 100 -58
116 -98 9 -19 11 -82 9 -193 -3 -163 -3 -165 -31 -201 -50 -66 -53 -66 -372
-67 -324 -1 -323 -1 -380 79 -30 42 -30 45 -33 188 -3 140 -3 147 23 199 26
54 59 81 115 95 43 11 512 10 553 -2z m377 -214 l0 -225 215 0 215 0 0 -62 0
-63 -300 0 -300 0 0 288 0 287 85 0 85 0 0 -225z m1150 165 l0 -60 -240 0
-240 0 0 -60 0 -60 225 0 225 0 0 -50 0 -50 -225 0 -225 0 0 -60 0 -60 240 0
240 0 0 -57 0 -58 -325 0 -325 0 0 288 0 287 325 0 325 0 0 -60z m750 35 c45
-27 87 -90 92 -137 l4 -38 -81 0 c-79 1 -80 1 -100 32 -11 18 -31 35 -45 39
-14 4 -94 7 -178 8 -174 1 -199 -6 -227 -65 -13 -28 -16 -56 -13 -120 3 -79 5
-85 36 -116 l32 -33 164 -3 c183 -4 213 3 241 58 15 29 18 30 89 30 40 0 75
-2 78 -5 12 -12 -14 -100 -38 -133 -45 -58 -63 -61 -357 -62 -300 -1 -318 2
-367 76 -24 35 -25 46 -28 196 -3 155 -3 160 22 202 27 47 63 75 111 87 16 4
143 7 280 6 232 -2 253 -3 285 -22z m833 14 c51 -14 104 -63 118 -107 6 -22 9
-99 7 -193 -3 -153 -4 -156 -31 -192 -50 -66 -54 -67 -372 -67 -296 0 -307 1
-353 44 -48 43 -53 67 -54 236 0 169 5 192 55 238 49 46 85 51 347 52 142 0
261 -5 283 -11z"/>
<path d="M1238 2965 c-43 -24 -58 -64 -58 -155 0 -95 16 -131 67 -155 28 -13
65 -16 203 -13 l170 3 32 33 c33 32 33 33 33 132 0 99 0 100 -33 132 l-32 33
-178 2 c-143 2 -182 0 -204 -12z"/>
<path d="M4348 2965 c-44 -24 -58 -63 -58 -160 0 -83 1 -86 34 -123 l34 -37
186 0 186 0 32 33 c33 32 33 33 33 132 0 99 0 100 -33 132 l-32 33 -178 2
c-143 2 -182 0 -204 -12z"/>
<path d="M4661 2226 c-59 -21 -71 -46 -71 -148 0 -74 4 -97 21 -124 27 -44 49
-49 194 -48 138 0 166 11 186 71 10 32 9 38 -7 50 -26 19 -61 16 -95 -9 -26
-19 -40 -22 -107 -19 -42 1 -78 4 -80 5 -1 2 -5 26 -9 53 -5 43 -2 54 16 72
17 17 33 21 89 21 45 0 75 -5 90 -16 31 -21 78 -26 92 -9 18 22 2 72 -30 95
-24 17 -43 20 -142 19 -62 0 -128 -6 -147 -13z"/>
<path d="M3384 2220 c-53 -4 -90 -12 -108 -23 -25 -17 -27 -22 -24 -79 4 -86
23 -98 154 -102 127 -4 124 -4 124 -20 0 -20 -27 -27 -98 -25 -40 1 -71 8 -89
20 -32 22 -64 24 -81 7 -19 -19 -14 -63 9 -84 19 -17 38 -19 171 -19 l150 0
24 28 c18 21 24 40 24 77 0 42 -4 52 -31 74 -28 24 -38 26 -127 26 -98 0 -130
8 -118 29 11 18 140 14 173 -6 33 -19 77 -12 87 13 7 19 -16 59 -41 72 -26 13
-106 18 -199 12z"/>
<path d="M4142 2218 c-17 -17 -17 -289 0 -306 7 -7 24 -12 38 -12 43 0 50 17
50 112 0 49 4 88 10 88 5 0 46 -45 91 -100 l82 -100 57 0 c89 0 90 1 87 168
-2 152 -5 162 -54 162 -32 0 -43 -29 -43 -114 0 -59 -3 -76 -14 -76 -13 0 -97
91 -138 148 -7 10 -23 24 -35 30 -28 16 -116 15 -131 0z"/>
<path d="M692 2213 c-79 -5 -80 -7 -81 -172 -2 -177 -11 -169 186 -163 228 6
247 20 242 172 -4 86 -5 91 -36 122 -44 43 -110 52 -311 41z m226 -105 c18
-18 15 -103 -4 -119 -11 -9 -45 -14 -103 -14 l-86 0 -3 59 c-2 32 -1 65 2 72
7 18 176 20 194 2z"/>
<path d="M2032 2212 c-99 -3 -103 -4 -114 -28 -18 -40 0 -58 63 -64 l54 -5 5
-102 c3 -58 10 -107 17 -114 17 -17 69 -20 82 -6 5 7 12 60 13 117 l3 104 65
11 c53 8 66 14 68 30 8 55 -31 64 -256 57z"/>
<path d="M2316 2204 c-13 -12 -16 -41 -16 -153 0 -147 4 -161 50 -161 36 0 48
11 52 45 3 26 8 31 45 39 25 5 60 5 85 0 36 -8 44 -14 52 -41 10 -35 34 -48
72 -39 21 6 24 12 24 54 0 26 -5 53 -10 58 -7 7 -6 22 5 47 25 59 20 94 -19
133 l-34 34 -145 0 c-119 0 -148 -3 -161 -16z m262 -101 c4 -30 -34 -45 -107
-41 -45 2 -57 7 -59 21 -8 42 4 48 85 45 72 -3 78 -5 81 -25z"/>
<path d="M2729 2199 c-17 -33 -7 -288 12 -300 20 -13 63 -11 77 3 15 15 17
271 2 299 -15 28 -75 26 -91 -2z"/>
<path d="M2888 2209 c-16 -9 -18 -27 -18 -152 0 -98 4 -147 12 -155 13 -13
291 -18 322 -6 21 8 20 47 -2 67 -13 12 -43 17 -122 19 -90 3 -105 5 -108 21
-3 15 7 17 102 17 104 0 107 1 118 25 19 41 0 50 -118 53 -91 3 -105 6 -102
20 3 14 22 18 118 22 111 5 115 6 118 28 7 47 -10 52 -162 52 -77 0 -149 -5
-158 -11z"/>
<path d="M3992 2208 c-15 -15 -17 -244 -2 -282 8 -21 16 -26 43 -26 18 0 38 5
45 12 15 15 17 261 2 289 -12 22 -68 27 -88 7z"/>
<path d="M22 2198 c-22 -11 -22 -14 -20 -162 l3 -151 33 -3 c58 -6 62 4 62
164 l0 144 -26 10 c-14 6 -26 10 -27 9 -1 0 -12 -5 -25 -11z"/>
<path d="M157 2193 c-14 -17 -17 -40 -16 -156 0 -141 2 -148 45 -161 41 -12
54 16 54 115 0 65 3 89 13 89 6 0 33 -29 60 -64 26 -35 64 -81 85 -104 34 -37
41 -40 90 -40 40 -1 58 4 73 19 19 19 20 29 15 156 -4 75 -9 140 -12 144 -8
13 -68 11 -82 -3 -7 -7 -12 -44 -12 -95 0 -100 -9 -104 -63 -30 -21 29 -55 72
-76 96 -36 42 -42 45 -97 49 -49 3 -62 1 -77 -15z"/>
<path d="M1088 2199 c-16 -9 -18 -26 -18 -127 0 -126 6 -141 61 -176 38 -24
231 -26 276 -3 56 30 63 49 63 179 0 117 0 119 -25 130 -19 8 -31 8 -50 0 -24
-11 -25 -16 -25 -94 0 -48 -6 -94 -13 -108 -12 -24 -17 -25 -87 -22 -41 2 -80
8 -86 13 -7 6 -12 46 -13 102 -1 73 -5 95 -18 105 -20 14 -42 15 -65 1z"/>
<path d="M1555 2201 c-11 -5 -28 -18 -39 -30 -27 -30 -17 -103 20 -142 25 -26
26 -29 8 -29 -50 0 -57 -48 -15 -91 l29 -29 140 0 c126 0 142 2 166 21 14 11
31 29 36 39 16 30 0 101 -28 127 -23 21 -34 23 -126 23 -101 0 -135 8 -122 29
11 17 147 14 170 -4 22 -17 64 -19 85 -6 20 13 5 66 -24 85 -19 13 -52 16
-152 15 -70 0 -137 -4 -148 -8z m239 -212 c12 -11 -36 -29 -78 -29 -51 0 -89
10 -115 29 -23 17 -20 18 80 13 57 -2 108 -8 113 -13z"/>
<path d="M5050 2000 c-18 -11 -23 -59 -8 -77 13 -16 50 -17 66 -1 7 7 12 24
12 38 0 43 -34 63 -70 40z"/>
<path d="M3680 1969 c-8 -14 -8 -29 -1 -50 7 -22 7 -35 -1 -48 -23 -37 20 -68
58 -43 32 21 47 125 22 150 -20 20 -66 15 -78 -9z"/>
</g>
</svg>
