<?xml version="1.0" standalone="no"?>
<!DOCTYPE svg PUBLIC "-//W3C//DTD SVG 20010904//EN"
 "http://www.w3.org/TR/2001/REC-SVG-20010904/DTD/svg10.dtd">
<svg version="1.0" xmlns="http://www.w3.org/2000/svg"
 width="503.060808pt" height="81.911283pt" viewBox="0 0 503.060808 81.911283"
 preserveAspectRatio="xMidYMid meet">
<metadata>
Created by potrace 1.15, written by Peter Selinger 2001-2017
</metadata>
<g transform="translate(-3.939192,295.938417) scale(0.100000,-0.100000)"
fill="#ffffff" stroke="none">
<path d="M304 2938 c-104 -40 -204 -141 -244 -246 -27 -73 -27 -201 0 -274 40
-108 146 -213 245 -243 28 -9 58 -20 67 -26 28 -14 118 -11 165 7 l43 17 0
105 c0 104 0 104 -22 97 -88 -26 -101 -28 -154 -16 -65 15 -119 58 -145 116
-53 115 17 247 145 276 53 12 66 10 154 -16 22 -7 22 -7 22 97 0 103 -1 105
-25 116 -41 19 -192 13 -251 -10z"/>
<path d="M1120 2821 c-176 -37 -261 -202 -193 -374 20 -48 91 -111 150 -131
47 -16 195 -22 241 -10 23 7 28 32 16 91 l-6 29 -86 -4 c-75 -3 -92 0 -120 18
-44 27 -65 80 -60 147 8 94 67 130 194 120 l72 -7 4 53 c3 28 1 56 -3 61 -10
11 -165 17 -209 7z"/>
<path d="M3800 2733 l0 -96 -21 19 c-31 28 -137 27 -175 -2 -94 -70 -92 -255
4 -320 52 -36 97 -39 153 -11 46 22 49 23 49 5 0 -16 8 -18 65 -18 l65 0 0
260 0 260 -70 0 -70 0 0 -97z m-25 -178 c36 -35 35 -96 -1 -124 -34 -27 -50
-26 -79 4 -40 40 -30 116 18 135 32 13 36 12 62 -15z"/>
<path d="M708 2713 l-148 -4 0 -74 0 -75 87 0 88 0 72 72 c72 71 85 90 61 86
-7 -1 -79 -4 -160 -5z"/>
<path d="M1460 2664 c-75 -32 -111 -88 -111 -169 0 -58 16 -98 53 -131 87 -80
216 -80 305 0 44 40 47 46 51 104 2 34 2 72 -2 86 -9 37 -56 87 -101 107 -49
23 -146 24 -195 3z m142 -101 c13 -12 18 -30 18 -67 0 -57 -5 -68 -38 -85 -27
-14 -53 -8 -77 18 -23 26 -23 106 1 132 21 23 71 25 96 2z"/>
<path d="M1956 2655 c-34 -23 -36 -23 -36 -5 0 18 -7 20 -60 20 l-60 0 0 -180
0 -180 64 0 64 0 4 109 c3 90 7 113 22 130 22 24 48 27 64 8 6 -7 13 -64 14
-128 l3 -114 68 -3 67 -3 0 100 c0 117 9 148 46 157 45 11 54 -14 54 -143 l0
-114 68 3 67 3 3 85 c2 47 0 114 -3 150 -6 55 -12 69 -40 97 -28 28 -40 33
-78 33 -54 0 -89 -12 -117 -40 -11 -11 -20 -15 -20 -10 0 6 -15 19 -32 30 -47
29 -116 27 -162 -5z"/>
<path d="M2618 2656 c-36 -24 -38 -24 -38 -6 0 18 -7 20 -65 20 l-65 0 2 -177
3 -178 67 -3 66 -3 4 110 c2 90 6 113 22 130 11 12 27 21 36 21 34 0 40 -21
40 -142 l0 -118 70 0 70 0 0 110 c0 97 2 112 20 130 22 22 37 25 60 10 12 -7
16 -36 18 -130 l4 -120 64 0 64 0 0 143 c0 158 -12 197 -68 218 -40 16 -118 5
-154 -21 l-30 -22 -24 23 c-17 16 -40 24 -76 27 -45 3 -59 0 -90 -22z"/>
<path d="M3205 2661 c-74 -34 -105 -85 -105 -172 0 -55 16 -93 52 -125 88 -80
221 -80 307 1 42 39 45 46 49 103 5 76 -1 102 -35 143 -56 66 -181 90 -268 50z
m147 -98 c23 -21 25 -114 3 -137 -27 -26 -56 -29 -84 -9 -21 17 -27 29 -29 73
-2 38 1 57 14 71 21 23 71 25 96 2z"/>
<path d="M4098 2670 c-124 -37 -171 -205 -85 -298 63 -68 181 -87 270 -43 142
69 137 265 -8 332 -42 19 -128 24 -177 9z m126 -105 c39 -40 26 -138 -21 -156
-29 -11 -68 3 -82 30 -16 29 -13 93 5 119 18 26 74 30 98 7z"/>
<path d="M4572 2655 c-28 -23 -30 -23 -25 -5 5 19 1 20 -61 20 l-66 0 0 -180
0 -180 70 0 70 0 0 105 c0 100 1 107 26 131 19 20 33 25 59 22 38 -4 45 7 45
75 l0 37 -44 0 c-33 0 -52 -7 -74 -25z"/>
<path d="M4795 2662 c-68 -33 -105 -92 -105 -169 0 -38 23 -98 48 -126 46 -51
141 -75 227 -57 60 12 61 13 68 77 l5 41 -40 -14 c-69 -24 -154 -12 -166 24
-3 9 25 12 117 12 l121 0 0 53 c-1 57 -31 112 -83 151 -39 29 -138 33 -192 8z
m126 -82 c10 -6 19 -17 19 -25 0 -11 -13 -15 -55 -15 -57 0 -66 8 -39 34 18
18 47 20 75 6z"/>
<path d="M560 2470 l0 -80 160 0 c88 0 160 3 160 7 0 4 -33 40 -72 80 l-72 73
-88 0 -88 0 0 -80z"/>
</g>
</svg>
