<svg width="503.02pt" height="81.91pt" preserveAspectRatio="xMidYMid" version="1.0" viewBox="0 0 503.02 81.91" xmlns="http://www.w3.org/2000/svg">
 <path d="m41.519 0.0062774c-5.5455 0.075586-11.775 0.83174-15.094 2.1255-10.4 4-20.4 14.099-24.4 24.599-2.7 7.3-2.7 20.1 0 27.4 4 10.8 14.6 21.3 24.5 24.3 2.8 0.9 5.8002 2.0001 6.7002 2.6001 2.8 1.4 11.8 1.0998 16.5-0.7002l4.3008-1.6992v-10.5c0-10.4-1.97e-4 -10.4-2.2002-9.7002-8.8 2.6-10.1 2.7996-15.4 1.5996-6.5-1.5-11.9-5.8001-14.5-11.6-5.3-11.5 1.7005-24.699 14.5-27.599 5.3-1.2 6.5999-1.0004 15.4 1.5996 2.2 0.7 2.2002 0.69979 2.2002-9.7002 0-10.3-0.10049-10.5-2.5005-11.6-1.7937-0.83125-5.6932-1.1838-10.006-1.125zm334.51 12.926v19.299l-2.0991-1.8999c-3.1-2.8-13.7-2.6993-17.5 0.20068-9.4 7-9.2001 25.5 0.3999 32 5.2 3.6 9.7003 3.9001 15.3 1.1001 4.6-2.2 4.8999-2.301 4.8999-0.50098 0 1.6 0.79951 1.8003 6.4995 1.8003h6.501v-51.999h-7.0005zm-259.72 0.39111c-3.4219-0.01699-6.6322 0.1333-8.2822 0.5083-17.6 3.7-26.101 20.2-19.301 37.4 2 4.8 9.1 11.1 15 13.1 4.7 1.6 19.5 2.199 24.1 0.99902 2.3-0.7 2.8011-3.1996 1.6011-9.0996l-0.60059-2.9004-8.6001 0.3999c-7.5 0.3-9.2 0.0012-12-1.7988-4.4-2.7-6.5-8.0012-6-14.701 0.8-9.4 6.7004-13 19.4-12l7.1997 0.7002 0.3999-5.2998c0.3-2.8 0.0997-5.5996-0.30029-6.0996-0.625-0.6875-6.9136-1.1802-12.617-1.2085zm-32.908 10.759c-0.15815-0.0053-0.35068 0.01084-0.57568 0.04834-0.7 0.1-7.899 0.40098-15.999 0.50098l-14.801 0.3999v14.9h17.5l7.1997-7.2012c6.525-6.4344 8.2041-8.597 6.6753-8.6484zm243.01 3.8027c-3.454-0.04814-6.8927 0.57178-9.8833 1.9468-7.4 3.4-10.5 8.5002-10.5 17.2 0 5.5 1.5987 9.2995 5.1987 12.5 8.8 8 22.1 8.0004 30.7-0.09961 4.2-3.9 4.4999-4.6008 4.8999-10.301 0.5-7.6-0.0995-10.2-3.4995-14.3-3.675-4.3312-10.322-6.8544-16.916-6.9463zm-126.72 0.0088c-2.8875 0.0875-5.7625 0.93711-8.0625 2.5371-3.4 2.3-3.5991 2.301-3.5991 0.50098s-0.70001-2.001-6-2.001h-6v36h12.8l0.3999-10.9c0.3-9 0.7002-11.299 2.2002-12.999 2.2-2.4 4.7999-2.7013 6.3999-0.80127 0.6 0.7 1.3004 6.4013 1.4004 12.801l0.30029 11.399 6.7998 0.30029 6.7002 0.30029v-10c0-11.7 0.89962-14.8 4.5996-15.7 4.5-1.1 5.3994 1.3998 5.3994 14.3v11.401l6.7998-0.30029 6.7002-0.30029 0.30029-8.5005c0.2-4.7-2.9e-4 -11.4-0.30029-15-0.6-5.5-1.199-6.9002-3.999-9.7002-2.8-2.8-4.0003-3.2988-7.8003-3.2988-5.4 0-8.8997 1.199-11.7 3.999-1.1 1.1-2.001 1.5005-2.001 1.0005 0-0.6-1.4992-1.9-3.1992-3-2.35-1.45-5.2512-2.1251-8.1387-2.0376zm260.94 0.03809c-3.3 0-5.2004 0.69902-7.4004 2.499-2.8 2.3-3.0005 2.301-2.5005 0.50098 0.5-1.9 0.10039-2.001-6.0996-2.001h-6.5991v36h14v-10.5c0-10 0.1001-10.7 2.6001-13.1 1.9-2 3.3004-2.5002 5.9004-2.2002 3.8 0.4 4.5-0.70001 4.5-7.5v-3.6987zm-308.85 0.09961c-3.65-0.05-7.3 0.45-9.75 1.5-7.5 3.2-11.099 8.7999-11.099 16.9 0 5.8 1.5998 9.8001 5.2998 13.1 8.7 8 21.6 8 30.5 0 4.4-4 4.7006-4.6004 5.1006-10.4 0.2-3.4 0.19931-7.2001-0.20069-8.6001-0.89999-3.7-5.6001-8.6992-10.1-10.699-2.45-1.15-6.1-1.7503-9.75-1.8003zm112.18 0.0073c-2.4375 0.06094-3.8068 0.64248-6.1318 2.2925-3.6 2.4-3.7998 2.4006-3.7998 0.60059s-0.69952-2.001-6.4995-2.001h-6.501l0.20068 17.7 0.30029 17.801 6.6987 0.30029 6.6006 0.30029 0.3999-11.001c0.2-9 0.6002-11.299 2.2002-12.999 1.1-1.2 2.7006-2.1006 3.6006-2.1006 3.4 0 3.999 2.1002 3.999 14.2v11.799h14.001v-11c0-9.7 0.19952-11.2 1.9995-13 2.2-2.2 3.7-2.499 6-0.99902 1.2 0.7 1.6003 3.599 1.8003 12.999l0.3999 12h12.8v-14.3c0-15.8-1.1998-19.7-6.7998-21.8-4-1.6-11.8-0.49941-15.4 2.1006l-3 2.1987-2.4009-2.2998c-1.7-1.6-3.9996-2.3997-7.5996-2.6997-1.125-0.075-2.0557-0.1126-2.8682-0.09229zm148.51 0.01758c-2.451 0.03164-4.8085 0.31201-6.646 0.87451-12.4 3.7-17.1 20.501-8.5005 29.801 6.3 6.8 18.1 8.6993 27 4.2993 14.2-6.9 13.7-26.499-0.7998-33.199-2.625-1.1875-6.9688-1.8281-11.054-1.7754zm71.846 0.0249c-3.2059 0.01709-6.4295 0.55566-8.792 1.6494-6.8 3.3-10.5 9.1999-10.5 16.9 0 3.8 2.2988 9.8006 4.7988 12.601 4.6 5.1 14.101 7.4997 22.701 5.6997 6-1.2 6.0998-1.2992 6.7998-7.6992l0.49951-4.1001-3.999 1.4004c-6.9 2.4-15.401 1.1991-16.601-2.4009-0.3-0.9 2.5012-1.1997 11.701-1.1997h12.1v-5.2998c-0.1-5.7-3.0998-11.2-8.2998-15.1-2.1938-1.6312-6.2859-2.4727-10.408-2.4507zm0.17578 8.9312c1.1628 0 2.4064 0.30596 3.6313 0.91846 1 0.6 1.8999 1.7005 1.8999 2.5005 0 1.1-1.299 1.5-5.499 1.5-5.7 0-6.6009-0.7999-3.9009-3.3999 1.0125-1.0125 2.3736-1.519 3.8687-1.519zm-70.469 0.9082c1.6888 0.01453 3.3504 0.504 4.4004 1.5103 3.9 4 2.6009 13.801-2.0991 15.601-2.9 1.1-6.8002-0.3-8.2002-3-1.6-2.9-1.3005-9.3004 0.49951-11.9 1.0125-1.4625 3.2281-2.2291 5.3994-2.2104zm-262.75 0.08496c1.825-0.05 3.6997 0.47598 4.9497 1.626 1.3 1.2 1.8003 3.0002 1.8003 6.7002 0 5.7-0.49981 6.799-3.7998 8.499-2.7 1.4-5.3007 0.80117-7.7007-1.7988-2.3-2.6-2.3004-10.601 0.0996-13.201 1.05-1.15 2.8259-1.7752 4.6509-1.8252zm175 0c1.825-0.05 3.6997 0.47598 4.9497 1.626 2.3 2.1 2.5003 11.399 0.30029 13.699-2.7 2.6-5.6009 2.9009-8.4009 0.90088-2.1-1.7-2.7004-2.9008-2.9004-7.3008-0.2-3.8 0.1004-5.7001 1.4004-7.1001 1.05-1.15 2.8259-1.7752 4.6509-1.8252zm43.731 0.11719c1.127-0.05078 1.8936 0.6211 3.5186 2.3086 3.6 3.5 3.4989 9.5999-0.10107 12.4-3.4 2.7-4.9999 2.6001-7.8999-0.3999-4-4-2.9997-11.6 1.8003-13.5 1.2-0.4875 2.006-0.77812 2.6821-0.80859zm-317.98 2.8081v16h16c8.8 0 16-0.3002 16-0.7002 0-0.4-3.3012-3.9995-7.2012-7.9995l-7.1997-7.3008h-8.7993z"/>
</svg>
