<?xml version="1.0" encoding="UTF-8" standalone="no"?>
<!-- Created with Inkscape (http://www.inkscape.org/) -->
<svg
   xmlns:svg="http://www.w3.org/2000/svg"
   xmlns="http://www.w3.org/2000/svg"
   version="1.0"
   width="744.09448"
   height="264.33069"
   id="svg9579">
  <defs
     id="defs9581" />
  <g
     transform="translate(-23.281871,-610.16706)"
     id="layer1">
    <g
       transform="translate(17.716542,17.771769)"
       id="g2779">
      <path
         d="M 709.91097,610.54052 L 709.91097,656.16101 L 23.705091,656.16101 L 23.705091,610.16706 L 709.91097,610.54052"
         style="fill:#FFF;fill-rule:nonzero;stroke:none"
         id="path2431" />
      <path
         d="M 76.644771,804.72329 L 76.644771,838.82974 L 119.43967,838.82974 L 119.43967,834.03744 L 81.256621,834.03744 L 81.256621,824.07933 L 117.95222,824.07933 L 117.95222,818.85131 L 81.237961,818.85131 L 81.237961,809.82684 L 119.43967,809.82684 L 119.25299,804.72329 L 76.644771,804.72329"
         style="fill:#FFF;fill-rule:nonzero;stroke:none"
         id="path2439" />
      <path
         d="M 131.68813,804.72329 L 131.68813,838.76753 L 136.21905,838.76753 L 136.21905,809.76458 L 157.39244,838.95421 L 160.74089,838.95421 L 181.6653,809.76458 L 181.6653,838.76753 L 186.42033,838.892 L 186.32697,804.72329 L 180.49522,804.72329 L 159.13515,834.22412 L 137.51365,804.72329 L 131.68813,804.72329"
         style="fill:#FFF;fill-rule:nonzero;stroke:none"
         id="path2443" />
      <path
         d="M 197.5858,804.72329 L 197.62317,838.76753 L 202.24746,838.76753 L 202.24746,804.72329 L 197.5858,804.72329"
         style="fill:#FFF;fill-rule:nonzero;stroke:none"
         id="path2447" />
      <path
         d="M 558.85921,804.72329 L 558.85921,809.07998 L 575.47675,809.07998 L 575.47675,838.95421 L 580.14463,838.95421 L 580.14463,809.14219 L 597.13562,809.07998 L 597.13562,804.72329 L 558.85921,804.72329"
         style="fill:#FFF;fill-rule:nonzero;stroke:none"
         id="path2451" />
      <path
         d="M 419.44587,804.72329 C 414.5291,804.91002 383.72123,804.72329 383.72123,804.72329 L 383.8457,838.76753 L 419.44587,838.76753 C 419.44587,838.76753 433.32495,838.58081 433.69841,821.46535 C 433.88513,809.57785 425.79415,804.47435 419.44587,804.72329 z M 419.44587,833.91297 L 388.38906,833.91297 L 388.38906,809.07998 L 419.44587,809.07998 C 419.44587,809.07998 428.40818,809.07998 428.53265,821.27862 C 428.65712,833.91297 419.44587,833.91297 419.44587,833.91297"
         style="fill:#FFF;fill-rule:nonzero;stroke:none"
         id="path2455" />
      <path
         d="M 709.72427,816.17512 C 709.72427,808.89325 707.54597,804.66103 696.59207,804.66103 L 663.54366,804.66103 L 663.54366,838.70527 L 668.33596,838.70527 L 668.46043,826.25765 L 696.59207,826.25765 L 703.74947,838.70527 L 708.97747,838.892 L 701.69557,826.25765 C 701.69557,826.25765 709.72427,824.76393 709.72427,816.17512 z M 696.71657,821.65207 L 668.33596,821.65207 L 668.33596,809.01772 L 696.59207,809.01772 C 700.63757,809.01772 705.18087,810.32471 705.18087,815.86392 C 705.18087,822.46114 696.71657,821.65207 696.71657,821.65207"
         style="fill:#FFF;fill-rule:nonzero;stroke:none"
         id="path2459" />
      <path
         d="M 547.65632,816.67299 C 547.46964,811.56949 544.85561,809.39113 541.43255,809.39113 L 513.73659,809.39113 C 510.31349,809.39113 507.51278,812.12963 507.51278,815.61494 L 507.51278,828.00035 C 507.51278,831.42341 510.31349,834.22412 513.73659,834.22412 L 541.43255,834.22412 C 544.85561,834.22412 547.59411,831.85907 547.65632,827.00451 L 552.3242,827.00451 C 552.26194,834.72204 547.65632,838.82974 541.99269,838.82974 L 513.23867,838.82974 C 507.51278,838.82974 502.84495,834.16191 502.84495,828.49823 L 502.84495,815.11706 C 502.84495,809.39113 507.51278,804.78555 513.23867,804.78555 L 541.99269,804.78555 C 547.65632,804.78555 552.26194,809.07998 552.13747,816.67299 L 547.65632,816.67299"
         style="fill:#FFF;fill-rule:nonzero;stroke:none"
         id="path2463" />
      <path
         d="M 447.76422,804.72329 L 447.76422,828.00035 C 447.76422,831.42341 450.56493,834.22412 453.98803,834.22412 L 481.68399,834.22412 C 485.10709,834.22412 487.84555,831.85907 487.90781,827.00451 L 487.84555,804.72329 L 492.57564,804.72329 L 492.57564,827.00451 C 492.45117,834.72204 487.97001,838.82974 482.24413,838.82974 L 453.49011,838.82974 C 447.76422,838.82974 443.09634,834.16191 443.09634,828.43602 L 443.09634,804.72329 L 447.76422,804.72329"
         style="fill:#FFF;fill-rule:nonzero;stroke:none"
         id="path2467" />
      <path
         d="M 369.34422,832.79266 L 339.03428,804.72329 L 332.93498,804.72329 L 332.93498,838.76753 L 337.60282,838.76753 L 337.60282,810.01352 L 368.72183,838.76753 L 374.13657,838.76753 L 374.01211,804.72329 L 369.34422,804.72329 L 369.34422,832.79266"
         style="fill:#FFF;fill-rule:nonzero;stroke:none"
         id="path2471" />
      <path
         d="M 258.075,816.67299 C 257.92564,811.6317 255.29295,809.45338 251.8574,809.45338 L 224.19882,809.45338 C 220.76328,809.45338 217.98123,812.19189 217.98123,815.6772 L 217.98123,828.06256 C 217.98123,831.48566 220.76328,834.28638 224.19882,834.28638 L 251.8574,834.28638 C 255.29295,834.28638 258.01279,831.92133 258.075,827.06677 L 262.76154,827.06677 C 262.6744,834.7843 258.12481,838.892 252.4051,838.892 L 223.65113,838.892 C 217.93146,838.892 213.30095,834.22412 213.30095,828.56049 L 213.30095,815.17927 C 213.30095,809.45338 217.93146,804.84776 223.65113,804.84776 L 252.4051,804.84776 C 258.12481,804.84776 262.6744,809.14219 262.58726,816.67299 L 258.075,816.67299"
         style="fill:#FFF;fill-rule:nonzero;stroke:none"
         id="path2475" />
      <path
         d="M 34.123751,838.64306 C 27.725651,838.70527 23.686431,834.53531 23.281871,829.36955 L 28.721451,829.36955 C 28.970431,831.7346 30.320971,833.91297 33.955691,833.91297 L 58.657991,833.91297 C 61.390221,833.91297 63.475221,831.48566 63.475221,828.74721 C 63.475221,826.00871 61.402661,823.70592 58.527301,823.70592 L 33.955691,823.70592 C 28.404031,824.07933 23.817121,820.15835 23.817121,814.61914 C 23.817121,809.07998 28.522331,804.72329 34.067711,804.72329 L 56.691281,804.78555 C 63.083111,804.72329 67.022791,809.45338 66.643121,812.68976 L 61.203541,812.68976 C 61.427591,810.2625 58.670431,809.45338 55.041941,809.45338 L 34.080151,809.76458 C 31.354141,809.76458 28.646801,810.63591 28.646801,814.43241 C 28.646801,817.04645 29.418541,818.7891 34.080151,818.85131 L 58.290801,818.85131 C 63.836191,818.85131 68.416931,823.33247 68.416931,828.87168 C 68.416931,834.41084 63.711721,838.76753 58.166291,838.76753 L 34.123751,838.64306"
         style="fill:#FFF;fill-rule:nonzero;stroke:none"
         id="path2479" />
      <path
         d="M 312.08523,804.53656 L 281.59478,804.53656 C 275.87511,804.53656 271.23838,809.14219 271.23838,814.86808 L 271.23838,828.24929 C 271.23838,833.97518 275.87511,838.58081 281.59478,838.58081 L 312.08523,838.58081 C 317.81112,838.58081 322.41674,833.97518 322.41674,828.24929 L 322.41674,814.86808 C 322.41674,809.14219 317.81112,804.53656 312.08523,804.53656 z M 317.74886,826.75557 C 317.74886,830.73881 314.51248,833.97518 310.52925,833.97518 L 283.17564,833.97518 C 279.16747,833.97518 275.92487,830.73881 275.92487,826.75557 L 275.92487,816.42406 C 275.92487,812.37856 279.16747,809.14219 283.17564,809.14219 L 310.52925,809.14219 C 314.51248,809.14219 317.74886,812.37856 317.74886,816.42406 L 317.74886,826.75557"
         style="fill:#FFF;fill-rule:nonzero;stroke:none"
         id="path2483" />
      <path
         d="M 645.05895,804.53656 L 614.56228,804.53656 C 608.83639,804.53656 604.23076,809.20445 604.23076,814.86808 L 604.23076,828.24929 C 604.23076,833.97518 608.83639,838.58081 614.56228,838.58081 L 645.05895,838.58081 C 650.78484,838.58081 655.39046,833.97518 655.39046,828.24929 L 655.39046,814.86808 C 655.39046,809.20445 650.78484,804.53656 645.05895,804.53656 z M 650.72258,826.75557 C 650.72258,830.73881 647.4862,833.97518 643.44076,833.97518 L 616.1182,833.97518 C 612.13497,833.97518 608.8986,830.73881 608.8986,826.75557 L 608.8986,816.42406 C 608.8986,812.37856 612.13497,809.14219 616.1182,809.14219 L 643.44076,809.14219 C 647.4862,809.14219 650.72258,812.37856 650.72258,816.42406 L 650.72258,826.75557"
         style="fill:#FFF;fill-rule:nonzero;stroke:none"
         id="path2487" />
      <path
         d="M 38.766701,711.61514 L 38.766701,727.85927 L 23.929141,727.85927 L 23.972691,673.33873 L 93.598441,673.33873 L 93.598441,687.90241 L 39.189921,687.90241 L 39.146331,699.10525 L 91.656621,699.10525 L 91.656621,711.98854 L 38.766701,711.61514"
         style="fill:#FFF;fill-rule:nonzero;stroke:none"
         id="path2491" />
      <path
         d="M 208.40901,727.7348 L 223.91873,727.7348 L 223.91873,673.40094 L 208.40901,673.40094 L 208.40901,727.7348 z "
         style="fill:#FFF;fill-rule:nonzero;stroke:none"
         id="path2495" />
      <path
         d="M 426.41654,673.40094 L 426.35433,727.67254 L 442.34948,727.67254 L 442.41173,707.9431 L 486.04063,707.9431 L 486.04063,727.7348 L 502.03583,727.7348 L 502.1603,673.40094 L 486.10289,673.40094 L 486.04063,694.25069 L 442.41173,694.25069 L 442.41173,673.40094 L 426.41654,673.40094"
         style="fill:#FFF;fill-rule:nonzero;stroke:none"
         id="path2499" />
      <path
         d="M 549.83469,673.33873 L 549.83469,727.67254 L 619.97697,727.67254 L 619.97697,713.17107 L 564.77183,713.17107 L 564.77183,673.33873 L 549.83469,673.33873"
         style="fill:#FFF;fill-rule:nonzero;stroke:none"
         id="path2503" />
      <path
         d="M 164.44404,673.40094 L 128.29618,673.40094 L 96.660531,727.79701 L 113.40258,727.79701 L 123.7341,711.80187 L 168.73847,711.80187 L 178.19865,727.79701 L 196.84516,727.79701 L 164.44404,673.40094 z M 130.11976,698.54512 L 137.34558,687.21781 L 156.75144,687.21781 L 162.84451,698.54512 L 130.11976,698.54512"
         style="fill:#FFF;fill-rule:nonzero;stroke:none"
         id="path2507" />
      <path
         d="M 302.00887,712.362 C 302.72457,712.362 301.32422,712.42421 302.00887,712.362"
         style="fill:#FFF;fill-rule:nonzero;stroke:none"
         id="path2511" />
      <path
         d="M 304.42368,712.54873 C 311.52504,711.55288 317.74886,705.76473 317.74886,698.35844 L 317.74886,689.58286 C 317.74886,681.42966 309.59566,673.52545 301.51095,673.52545 L 240.67945,673.52545 L 240.67945,727.7348 L 255.13738,727.7348 L 255.13738,712.0508 L 285.19833,712.0508 L 299.27659,727.7348 L 318.68244,727.7348 L 304.42368,712.54873 z M 296.93025,699.72765 L 255.09378,699.72765 L 255.09378,687.71573 L 296.9738,687.71573 C 300.41556,687.71573 303.20383,690.51645 303.20383,693.9395 C 303.20383,697.42486 300.43423,700.22557 296.93025,699.72765"
         style="fill:#FFF;fill-rule:nonzero;stroke:none"
         id="path2515" />
      <path
         d="M 412.84865,694.93534 L 397.60031,694.93534 C 396.66673,691.32551 393.11916,688.5248 389.19818,688.5248 L 356.77213,688.5248 C 352.10429,688.5248 348.30779,692.32131 348.30779,696.92694 L 348.30779,704.58221 C 348.30779,709.18783 352.10429,712.98439 356.77213,712.98439 L 389.19818,712.98439 C 393.49261,712.98439 397.10239,709.74797 397.60031,705.64026 L 412.41299,705.64026 C 412.41299,719.02147 403.20174,727.7348 391.50097,727.7348 L 352.53996,727.7348 C 340.83919,727.7348 331.379,718.33682 331.379,706.82279 L 331.379,694.25069 C 331.379,682.73665 340.83919,673.33873 352.53996,673.33873 L 391.50097,673.33873 C 403.20174,673.33873 412.84865,683.35905 412.84865,694.93534"
         style="fill:#FFF;fill-rule:nonzero;stroke:none"
         id="path2519" />
      <path
         d="M 518.96461,727.67254 L 534.46188,727.67254 L 534.46188,673.46319 L 518.96461,673.46319 L 518.96461,727.67254 z "
         style="fill:#FFF;fill-rule:nonzero;stroke:none"
         id="path2523" />
      <path
         d="M 692.48437,673.40094 L 631.61553,673.40094 L 631.61553,727.54807 L 692.85777,727.54807 C 692.85777,727.54807 709.66207,724.18723 709.72427,699.72765 C 709.78657,676.76183 694.78717,673.77439 692.48437,673.40094 z M 688.12767,713.23333 L 646.42815,713.10886 L 646.36594,687.65348 L 688.18997,687.65348 C 691.92417,688.33808 696.52977,689.02273 696.65427,699.91437 C 696.71657,712.98439 688.12767,713.23333 688.12767,713.23333"
         style="fill:#FFF;fill-rule:nonzero;stroke:none"
         id="path2527" />
      <path
         d="M 709.97317,744.16566 L 709.97317,789.78615 L 23.742421,789.78615 L 23.742421,743.79221 L 709.97317,744.16566"
         style="fill:#FFF;fill-rule:nonzero;stroke:none"
         id="path2531" />
      <path
         d="M 715.57467,813.00095 C 715.57467,808.70652 718.81107,805.40789 722.98107,805.40789 C 727.15097,805.40789 730.32507,808.70652 730.32507,813.00095 C 730.32507,817.35764 727.15097,820.71849 722.98107,820.71849 C 718.81107,820.71849 715.57467,817.35764 715.57467,813.00095 z M 713.95647,813.00095 C 713.95647,818.16671 718.06417,822.02548 722.98107,822.02548 C 727.89777,822.02548 731.94327,818.16671 731.94327,813.00095 C 731.94327,807.95967 727.89777,804.1009 722.98107,804.1009 C 718.06417,804.1009 713.95647,807.95967 713.95647,813.00095 z M 719.49567,818.29118 L 721.11387,818.29118 L 721.11387,813.74781 L 722.85647,813.74781 L 725.71947,818.29118 L 727.46217,818.29118 L 724.47467,813.62335 C 726.03067,813.49888 727.21317,812.68976 727.21317,810.82264 C 727.21317,808.76878 726.03067,807.77294 723.54117,807.77294 L 719.49567,807.77294 L 719.49567,818.29118 z M 721.11387,809.14219 L 723.29217,809.14219 C 724.41247,809.14219 725.59497,809.32892 725.59497,810.69817 C 725.59497,812.37856 724.22577,812.44082 722.79427,812.44082 L 721.11387,812.44082 L 721.11387,809.14219"
         style="fill:#FFF;fill-rule:nonzero;stroke:none"
         id="path2535" />
    </g>
  </g>
</svg>
