<svg version="1.0" viewBox="0 0 708.66 228.79" xmlns="http://www.w3.org/2000/svg">
 <path d="m0.42383 0v45.994h686.21v-45.621zm0.26758 63.172-0.04492 54.521h14.838v-16.244l52.891 0.37305v-12.885h-52.512l0.04492-11.201h54.408v-14.564zm328.57 0c-11.701 0-21.16 9.3981-21.16 20.912v12.572c0 11.514 9.4594 20.912 21.16 20.912h38.961c11.701 0 20.912-8.7145 20.912-22.096h-14.812c-0.49792 4.1077-4.1079 7.3457-8.4024 7.3457h-32.426c-4.6678 0-8.4648-3.7967-8.4648-8.4023v-7.6562c0-4.6056 3.797-8.4023 8.4648-8.4023h32.426c3.921 0 7.4688 2.8023 8.4024 6.4121h15.248c0-11.576-9.6469-21.598-21.348-21.598zm197.29 0v54.334h70.143v-14.502h-55.205v-39.832zm-421.54 0.0625-31.635 54.396h16.742l10.33-15.996h45.006l9.459 15.996h18.646l-32.4-54.396zm80.113 0v54.334h15.51v-54.334zm218.01 0-0.0625 54.271h15.994l0.0625-19.73h43.629v19.793h15.996l0.125-54.334h-16.059l-0.0625 20.85h-43.629v-20.85zm205.2 0v54.146h61.242s16.803-3.3608 16.865-27.82c0.0623-22.966-14.935-25.953-17.238-26.326zm-112.65 0.0625v54.209h15.498v-54.209zm-278.29 0.0625v54.209h14.459v-15.684h30.061l14.078 15.684h19.406l-14.26-15.186c7.1014-0.99585 13.326-6.7851 13.326-14.191v-8.7754c0-8.1532-8.1536-16.057-16.238-16.057zm-103.33 13.691h19.406l6.0938 11.328h-32.725zm509.02 0.43555h41.824c3.7342 0.6846 8.3403 1.3701 8.4648 12.262 0.0623 13.07-8.5273 13.318-8.5273 13.318l-41.699-0.125zm-391.27 0.0625h41.879c3.4418 0 6.2305 2.8016 6.2305 6.2246 0 3.4854-2.7695 6.285-6.2734 5.7871h-41.836zm-231.35 56.076v45.994h686.23v-45.621zm699.24 60.309c-4.9169 0-9.0254 3.8591-9.0254 8.9004 0 5.1658 4.1085 9.0254 9.0254 9.0254 4.9167 0 8.9629-3.8596 8.9629-9.0254 0-5.0413-4.0462-8.9004-8.9629-8.9004zm-441.39 0.43554c-5.7197 0-10.355 4.6062-10.355 10.332v13.381c0 5.7259 4.6358 10.332 10.355 10.332h30.49c5.7259 0 10.332-4.6062 10.332-10.332v-13.381c0-5.7259-4.6061-10.332-10.332-10.332zm332.97 0c-5.7259 0-10.33 4.6684-10.33 10.332v13.381c0 5.7259 4.6042 10.332 10.33 10.332h30.498c5.7259 0 10.33-4.6062 10.33-10.332v-13.381c0-5.6636-4.6042-10.332-10.33-10.332zm48.982 0.125v34.045h4.793l0.12305-12.447h28.133l7.1562 12.447 5.2285 0.18554-7.2812-12.633s8.0273-1.4952 8.0273-10.084c0-7.2819-2.177-11.514-13.131-11.514zm-243.5 0.0547c-0.20148-3e-3 -0.40123 4e-5 -0.59961 8e-3 -4.9168 0.18673-35.725 0-35.725 0l0.125 34.045h35.6s13.878-0.18729 14.252-17.303c0.18089-11.516-7.4064-16.666-13.652-16.75zm-385.98 8e-3c-5.5454 0-10.25 4.3573-10.25 9.8965 0 5.5392 4.587 9.4594 10.139 9.0859h24.572c2.8754 0 4.9473 2.3025 4.9473 5.041 0 2.7384-2.0861 5.166-4.8184 5.166h-24.701c-3.6347 0-4.9854-2.1779-5.2344-4.543h-5.4395c0.40456 5.1658 4.4437 9.3356 10.842 9.2734l24.043 0.125c5.5454 0 10.25-4.3573 10.25-9.8965 1e-6 -5.5392-4.5816-10.02-10.127-10.02h-24.209c-4.6616-0.0622-5.4336-1.8059-5.4336-4.4199 0-3.7965 2.7076-4.668 5.4336-4.668l20.961-0.31055c3.6285 0 6.3862 0.80907 6.1621 3.2363h5.4395c0.37967-3.2364-3.5613-7.9666-9.9531-7.9043zm42.578 0v34.105h42.795v-4.791h-38.184v-9.959h36.695v-5.2285h-36.715v-9.0234h38.203l-0.1875-5.1035zm55.043 0v34.045h4.5312v-29.004l21.172 29.189h3.3496l20.924-29.189v29.004l4.7559 0.12304-0.0937-34.168h-5.832l-21.359 29.5-21.621-29.5zm65.896 0 0.0391 34.045h4.623v-34.045zm135.35 0v34.045h4.668v-28.754l31.119 28.754h5.4141l-0.12304-34.045h-4.668v28.068l-30.311-28.068zm110.16 0v23.713c0 5.7259 4.6667 10.393 10.393 10.393h28.756c5.7259 0 10.206-4.1067 10.33-11.824v-22.281h-4.7305l0.0625 22.281c-0.0623 4.8546-2.7996 7.2187-6.2227 7.2187h-27.697c-3.4231 1e-5 -6.2227-2.7996-6.2227-6.2226v-23.277zm115.76 0v4.3574h16.619v29.873h4.668v-29.812l16.99-0.0605v-4.3574zm-45.619 0.0625c-5.7259 1e-5 -10.395 4.6061-10.395 10.332v13.381c0 5.6637 4.6686 10.33 10.395 10.33h28.754c5.6636 0 10.27-4.1067 10.332-11.824h-4.668c-0.0622 4.8546-2.8016 7.2187-6.2246 7.2187h-27.695c-3.4231 1e-5 -6.2246-2.7996-6.2246-6.2226v-12.387c0-3.4853 2.8015-6.2227 6.2246-6.2227h27.695c3.423 0 6.0379 2.1778 6.2246 7.2812h4.4805c0.12447-7.593-4.4809-11.887-10.145-11.887zm-289.59 0.0625c-5.7197 1e-5 -10.35 4.6042-10.35 10.33v13.383c0 5.6636 4.6299 10.33 10.35 10.33h28.754c5.7197 0 10.268-4.1067 10.355-11.824h-4.6855c-0.0622 4.8546-2.7812 7.2187-6.2168 7.2187h-27.66c-3.4355 0-6.2168-2.7996-6.2168-6.2226v-12.387c0-3.4853 2.7813-6.2227 6.2168-6.2227h27.66c3.4356 0 6.0674 2.1775 6.2168 7.2188h4.5117c0.0871-7.5308-4.4619-11.824-10.182-11.824zm499.33 0.5586c4.1699 0 7.3438 3.2993 7.3438 7.5938 0 4.3567-3.1739 7.7168-7.3438 7.7168-4.17 0-7.4062-3.3601-7.4062-7.7168 0-4.2944 3.2362-7.5938 7.4062-7.5938zm-3.4863 2.3652v10.52h1.6191v-4.5449h1.7422l2.8633 4.5449h1.7422l-2.9863-4.668c1.556-0.12447 2.7383-0.93367 2.7383-2.8008 0-2.0538-1.1824-3.0508-3.6719-3.0508zm-51.158 1.2461h28.256c4.0455 0 8.5879 1.3065 8.5879 6.8457 0 6.5972-8.4648 5.7871-8.4648 5.7871h-28.379zm-279.95 0.0625h31.057s8.9615-1e-3 9.0859 12.197c0.12447 12.634-9.0859 12.635-9.0859 12.635h-31.057zm-105.21 0.0605h27.355c3.9832 0 7.2188 3.2377 7.2188 7.2832v10.33c0 3.9832-3.2355 7.2207-7.2188 7.2207h-27.355c-4.0082 0-7.25-3.2375-7.25-7.2207v-10.33c0-4.0455 3.2418-7.2832 7.25-7.2832zm332.94 0h27.322c4.0454 0 7.2832 3.2377 7.2832 7.2832v10.33c0 3.9832-3.2378 7.2207-7.2832 7.2207h-27.322c-3.9832 0-7.2188-3.2375-7.2188-7.2207v-10.33c0-4.0455 3.2355-7.2832 7.2188-7.2832zm105 0h2.1777c1.1203 0 2.3027 0.1874 2.3027 1.5566 0 1.6804-1.3693 1.7422-2.8008 1.7422h-1.6797z"/>
</svg>
