<svg version="1.1" viewBox="0 0 498 233.19" xmlns="http://www.w3.org/2000/svg">
 <path d="m233.64 0c-10.066 0-18.834 5.2394-24.498 12.447l-0.0254 15.793c7.6119-21.041 24.523-19.48 24.523-19.48 12.141 0 21.969 9.5691 21.969 21.34 0 11.805-9.828 21.355-21.969 21.355-6.0257 0-11.545-2.3783-15.5-6.248l-10.67-11.646c-4.5501-4.4481-10.819-7.1445-17.721-7.1445-13.854 0-25.105 10.903-25.105 24.357 0 13.48 11.251 24.41 25.105 24.41 7.7862 0 14.8-3.4574 19.393-8.875l-0.0254-12.646c-7.497 14.301-19.367 12.752-19.367 12.752-8.8748 0-16.068-6.9912-16.068-15.641 0-8.6155 7.1935-15.588 16.068-15.588 4.4055 0 8.4243 1.7261 11.346 4.5625l10.658 11.646c5.592 5.4729 13.331 8.8281 21.887 8.8281 17.129 0 30.986-13.513 30.986-30.123 1e-5 -16.636-13.857-30.1-30.986-30.1zm137.98 80.533c-39.884 0-39.334 30.121-39.334 30.121s-2.6584 16.648 20.543 29.01l22.223 11.826c9.9167 5.3538 8.7774 12.744 8.7774 12.744s-0.17405 17.164-25.506 18.273c0 0-19.953-1.4247-26.82-11.299h-0.22071l6.3438 19.828c7.4163 2.7726 20.514 2.373 20.514 2.373 45.08 0 44.107-30.617 44.107-30.617s2.5556-16.389-19-27.922l-22.33-11.83c-11.222-5.8131-9.6875-14.334-9.6875-14.334s-1.0545-16.99 21.279-16.99c0 0 13.655-1.1598 19.639 8.4805h0.22851v-16.418c-2.8534-2.7854-20.756-3.2461-20.756-3.2461zm-114.67 2.1875-5.9492 19.443h0.21289c4.8308-8.4071 12.279-8.5059 12.279-8.5059h19.32l0.0117 86.746c0 4.6947-3.5931 9.7213-8.3516 10.002v0.19922h35.734v-0.19922c-4.7968-0.28066-8.4043-5.3413-8.4043-10.002l0.0254-86.746 16.146-0.03711c4.9031 0 8.7874 3.8015 8.9277 8.543h0.19531l5.9316-19.443zm-183.93 2e-3v0.23828c4.7415 0.2594 8.3438 5.302 8.3438 10.014l-0.04687 66.578c0 21.428 17.959 33.912 40.033 33.912 22.036 0 39.803-12.484 39.803-33.912v-66.578c0-4.7117 3.61-9.7543 8.377-10.014v-0.23828l-35.711 0.03516v0.20313c4.7755 0.2594 8.3594 5.302 8.3594 10.014v68.516c0 11.222-9.3892 21.051-20.922 21.051-11.545 0-20.9-9.7-20.9-20.918l-0.0176-68.648c0-4.6819 3.5895-9.7288 8.3438-10.014v-0.23828zm328.46 0v0.23828c4.767 0.2594 8.3613 5.302 8.3613 10.014l-0.0274 66.578c0 21.428 17.964 33.912 39.996 33.912 22.07 0 39.844-12.484 39.844-33.912v-66.578c0-4.7117 3.6069-9.7543 8.3398-10.014v-0.23828l-35.688 0.03516v0.20313c4.7542 0.2594 8.3438 5.302 8.3438 10.014v68.516c0 11.222-9.3981 21.051-20.918 21.051-11.55 0-20.904-9.7-20.904-20.918l-0.0254-68.648c0-4.6819 3.5933-9.7288 8.373-10.014v-0.23829zm-330.76 0.001906-70.73 0.029297v0.20898c4.7627 0.2594 8.334 5.302 8.334 10.014v87.426c0 4.6947-3.5712 9.7594-8.334 10.027v0.20508h35.688v-0.20508c-4.767-0.2679-8.3691-5.3326-8.3691-10.027l0.01563-42.477h25.219c4.7797 0 9.2439 3.4905 9.4863 8.1172h0.23047v-19.012h-34.936l-0.01563-33.375h33.705c4.801 0 9.2686 3.4798 9.5195 8.0938h0.22266zm103.4 0.0293v0.20898c4.7755 0.2594 8.3379 5.302 8.3379 10.014l0.0293 109.53s-0.39951 19.34-15.98 30.469l0.0391 0.21289c3.0745-0.50179 34.941-6.3826 34.941-37.166l-0.0254-103.05c0-4.7117 3.581-9.7543 8.3438-10.014v-0.20898zm41.369 2e-3v0.20508c4.7585 0.24239 8.3476 5.0731 8.3476 9.7891v87.613c0 4.7032-3.5892 9.7623-8.3476 10.043v0.20117h35.633v-0.20117c-4.7287-0.28066-8.3359-5.3398-8.3359-10.043v-87.613c0-4.6904 3.6072-9.5254 8.3359-9.7891v-0.20508z"/>
</svg>
