<svg enable-background="new 0 0 566.929 226.773" version="1.1" viewBox="0 0 566.93 226.77" xmlns="http://www.w3.org/2000/svg">
 <path d="m0 0v15.518h110.35v-15.518zm125.99 0v15.518h157.26s-16.064-15.518-37.338-15.518zm188.11 0v15.518h95.139l-5.6484-15.518zm163.35 0-5.6465 15.518h94.273v-15.518zm-477.44 30.174v15.516h110.35v-15.516zm125.99 0.02148v15.492h175.51s-2.052-11.94-5.625-15.492zm188.11 0v15.492h105.57l-5.2285-15.492zm152.05 0-5.2266 15.492h105.14v-15.492zm-434.43 30.15v15.535h47.791v-15.535zm125.99 0v15.535h47.789v-15.535zm94.275 0v15.535h47.789s3.0352-8.2052 3.0352-15.535zm93.83 0v15.535h84.729l-5.6465-15.535zm109.93 0-5.6699 15.535h85.15v-15.535zm-424.02 30.197v15.516h47.791v-15.516zm125.99 0v15.516h122.07s10.211-7.9596 13.465-15.516zm188.11 0v15.516h47.791v-8.6387l3.0332 8.6387h87.543l3.2558-8.6387v8.6387h47.789v-15.516h-89.711l-4.7637 13.143-4.7812-13.143zm-314.09 30.172v15.518h47.791v-15.518zm125.99 0v15.518h135.53c-3.256-7.529-13.465-15.518-13.465-15.518zm188.11 0v15.518h47.791v-15.518zm56.473 0 5.7793 15.518h65.641l5.4922-15.518zm85.15 0v15.518h47.789v-15.518zm-455.71 30.174v15.514h47.791v-15.514zm125.99 0v15.514h47.789v-15.514zm94.275 0v15.514h50.824c0-7.322-3.0352-15.514-3.0352-15.514zm93.83 0v15.514h47.791v-15.514zm67.324 0 5.6016 15.514h44.006l5.6445-15.514zm74.299 0v15.514h47.789v-15.514zm-486.56 30.174v15.537h110.35v-15.537zm125.12 0v15.537h169.88c3.573-3.561 5.625-15.537 5.625-15.537zm188.97 0v15.537h78.641v-15.537zm109.04 0 5.7578 15.537h22.389l5.4043-15.537zm63.426 0v15.537h79.502v-15.537zm-486.56 30.195v15.516h110.35v-15.516zm125.12 0v15.492h119.92c21.275 0 37.338-15.492 37.338-15.492zm188.97 0v15.516h78.641v-15.516zm119.96 0 5.5332 15.473 0.95313 0.0215 5.625-15.492zm52.508 0v15.516h79.502v-15.516z"/>
</svg>
