<svg width="509.1pt" height="36.201pt" preserveAspectRatio="xMidYMid" version="1.0" viewBox="0 0 509.1 36.201" xmlns="http://www.w3.org/2000/svg">
 <path d="m0 0 0.19922 17.801c0.3 17 0.39981 17.799 2.2998 17.799 1.9 0 2.0005-0.80001 2.5005-12l0.49951-12 3.2007-0.29883c3.4-0.3 3.2999-0.60116 4.8999 9.2988 0.9 5.3 1.9993 6.501 5.7993 6.501 4.6 0 6.0013-1.5 9.8013-10.5l3.2988-8.001 0.50098 13.5 0.49951 13.5 10.4 0.60059 3.5991-7.0005 3.501-7.1001h11v4.7007c0 8.7 0.49991 9.3996 6.3999 9.0996l5.1006-0.30029v-35l-10.601-0.30029-10.699-0.30029-5.8008 14.301-5.8989 14.3-0.50098-14.001-0.49951-14h-10.8l-3.999 9.3999c-2.3 5.2-4.3011 8.7995-4.6011 7.9995-0.2-0.8-1.1995-4.9999-1.9995-9.3999l-1.5996-7.9995-8.2998-0.30029zm286 0v36.201l11.801-0.30029c10.9-0.3 11.7-0.39981 11.7-2.2998 0-1.8-0.79952-1.9998-6.4995-2.2998-11.6-0.4-11.001 0.19931-11.001-10.701v-9.4995h7.8003c4.2 0 8.3-0.39942 9-0.89941 0.9-0.5 1.2005-2.4002 1.0005-5.2002l-0.30029-4.4004-11.7-0.30029zm-185.9 0.10107c-12 0-22.1 0.3002-22.4 0.7002-0.4 0.3-0.7002 2.5999-0.7002 4.8999 0 4.6 0.3005 4.9001 7.0005 5.6001 2.5 0.3 2.4993 0.29952 2.7993 12.5 0.3 12.3 0.29971 12.3 2.6997 12.3 2.4 0 2.4012-3.05e-4 2.7012-12.3l0.29883-12.201 7.3008-0.29883 7.1997-0.30029v11.3c0 12 0.60059 14.2 3.6006 13.6 1.7-0.3 1.9994-1.6003 2.3994-12.3l0.49951-12 3.501-0.29883c4.5-0.5 6-1.8002 6-5.2002 0-6.2 0.80007-6-22.9-6zm41 0c-5.4 0-10.1 0.3002-10.4 0.7002-0.4 0.3-0.70019 3.1988-0.70019 6.2988 0 6.5-1.299 8.8007-5.499 9.2007l-3 0.30029v18.999l14.6 0.30029c12.7 0.2 14.699-3.92e-4 15.299-1.4004 0.3-0.9 0.4-1.999 0-2.499-0.3-0.5-5.2987-0.90088-11.199-0.90088s-11.3-0.39942-12-0.89941c-0.8-0.5-1.2005-2.1997-1.0005-4.1997l0.30031-3.3999 11.2-0.50098c6.2-0.3 11.699-0.99961 12.299-1.5996 2.1-2.1 6.8e-4 -4.2996-4.2993-4.5996l-4.1997-0.30029-0.3003-4.8003-0.30029-4.6992h3.3999c4.2 0 6.9996-2.0008 6.0996-4.3008-0.5-1.4-2.0993-1.6992-10.299-1.6992zm18.3 0c-1.3 0-2.7 0.59932-3 1.2993-0.2 0.7-0.30069 8.6997-0.20069 17.7l0.3003 16.5h20l0.30029-5.1987 0.30029-5.2002-14.6-0.60059-0.3003-12.3-0.30029-12.199zm52.699 0c-5.4 0-10.099 0.3002-10.399 0.7002-0.4 0.3-0.70019 3.1988-0.70019 6.2988 0 6.5-1.3005 8.8007-5.5005 9.2007l-3 0.30029v18.999l14.6 0.30029c12.7 0.2 14.7-3.92e-4 15.3-1.4004 0.3-0.9 0.4-1.999 0-2.499-0.3-0.5-5.3002-0.90088-11.2-0.90088-5.9 0-11.3-0.39942-12-0.89941-0.8-0.5-1.2005-2.1997-1.0005-4.1997l0.3003-3.3999 11.2-0.50098c6.2-0.3 11.7-0.99961 12.3-1.5996 2.1-2.1-7.9e-4 -4.2996-4.3008-4.5996l-4.1997-0.30029-0.3003-4.8003-0.30029-4.6992h3.4014c4.2 0 6.9996-2.0008 6.0996-4.3008-0.5-1.4-2.1008-1.6992-10.301-1.6992zm18.3 0c-1.3 0-2.7 0.59932-3 1.2993-0.2 0.7-0.29922 8.6997-0.19922 17.7l0.29883 16.5h20.001l0.30029-5.1987 0.29883-5.2002-14.6-0.60059-0.29883-12.3-0.30029-12.199zm120.6 0c-8.9 0-12.201 0.29932-12.601 1.2993-0.2 0.7-0.29922 8.6997-0.19922 17.7l0.29883 16.5 4.5 0.30029c5.6 0.4 7.0005-1.299 7.0005-8.499v-5.4009l6.3003 0.30029 6.1992 0.30029 0.30029 6.7002c0.3 6.4 0.4001 6.7998 2.6001 6.7998 3 0 3.6006-1.6001 3.6006-10.1 0-5.6-0.40098-7.3004-2.001-8.9004-1.1-1.1-2.4-1.9995-3-1.9995s-0.99902-3.2-0.99902-7.5v-7.5zm36 0c-9.7 0-13.201 0.29932-13.601 1.2993-0.2 0.7-0.29922 8.6997-0.19922 17.7l0.3003 16.5h26l0.30029-17.799 0.19922-17.7zm18 0 0.19921 17.7c0.3 16.5 0.4002 17.8 2.2002 18.1 3 0.6 3.6006-1.5996 3.6006-13.6v-11.2h15v11.2c0 12 0.59912 14.2 3.5991 13.6 1.8-0.3 1.9002-1.5996 2.2002-18.1l0.20069-17.7h-13.5zm39.7 0c-1.3 0-2.7 0.3002-3 0.7002-0.4 0.3-0.70019 5.8999-0.70019 12.4v11.799l-2.6997 0.30029c-2.6 0.3-2.8008 0.59981-2.8008 5.2998v4.9995h15l0.30029-4.6992c0.3-3.9-6.9e-4 -4.9008-1.7007-5.8008-1.9-1-2.0991-1.999-2.0991-12.999 0-11.9 1.9e-4 -12-2.2998-12zm22.799 0c-8.5 0-11.7 0.29932-12.1 1.2993-0.2 0.7-0.29922 8.6997-0.19922 17.7l0.29883 16.5h11.5c11.2 0 11.501-0.09981 11.801-2.2998 0.3-2.1 0.0989-2.2002-7.6011-2.2002-5.6 0-8.2996-0.39893-9.0996-1.3989-0.79999-0.9-1.0994-4.4998-0.89941-9.7998l0.29883-8.3013 17.001-0.99902 0.30029-5.2998 0.29884-5.2002zm28.201 0c-6.3 0-11.7 0.3002-12 0.7002-0.9 0.8-0.90107 16.599-0.10107 18.699 0.5 1.2 2.0004 1.6011 5.9004 1.6011 7.4 0 8.5005 0.59961 8.5005 4.5996 0 4.4-1.9999 5.3994-10.9 5.3994-6.9 0-7.1001 0.10049-7.1001 2.5005v2.5005h29.099l-0.29883-10.301-0.30029-10.2-9.2007-0.30029-9.1992-0.30029-0.70019-3.3999c-1-5.5 0.5002-6.4995 9.7002-6.4995 7.8 0 7.8999-4.908e-4 7.8999-2.5005v-2.499zm-231.24 0.076172c-4.3266 0.004687-4.5894 0.47403-4.9644 2.124-0.2 1.3-0.6002 4.7988-0.7002 7.7988-0.3 5.5-0.29981 5.5-3.7998 6l-3.501 0.50098v18.999l14.801 0.30029 14.7 0.30029v-5.1006h-10.699c-6 0-11.401-0.39942-12.101-0.89941-0.8-0.5-1.199-2.1997-0.99902-4.1997l0.29883-3.3999 9.501-0.20068c12.6-0.4 14-0.79981 14-3.7998 0-2.1-0.49971-2.3997-4.1997-2.6997l-4.3008-0.30029-0.29883-4.8003-0.30029-4.6992h3.3003c4.2 0 6.1001-1.2006 5.6001-3.6006-0.3-1.7-1.5-1.9002-10.5-2.2002-2.5-0.075-4.3938-0.12461-5.8359-0.12305zm57.119 0.099609c-5.2787-0.024609-9.5333 0.16084-9.8833 0.42334-0.4 0.4-0.70019 2.701-0.70019 5.001 0 4.6 0.30049 4.9001 7.0005 5.6001 2.5 0.3 2.499 0.29982 2.499 11.3 0.1 13.9 7.8e-4 13.699 2.8008 13.299 2.1-0.3 2.1997-0.8003 2.6997-12.3 0.5-11.9 0.5-11.999 3-12.299 6.9-0.8 7.0998-0.90001 6.7998-6l-0.30029-4.7007-11.6-0.30029c-0.7875-0.0125-1.5618-0.019922-2.3159-0.023438zm29.417 5.8242h6.0996l-0.30029 4.6992-0.30029 4.8003h-12l-0.29883-3.3003c-0.6-5.6 0.0998-6.1992 6.7998-6.1992zm27.999 0h15v9.3999c0 10.5-0.10001 10.6-7.5 10.6s-7.5-0.09962-7.5-10.6zm-319.39 0.09668c0.73437-0.021875 1.6651 0.027539 2.8901 0.10254l5.001 0.30029v9l-6.7002 0.30029c-7.7 0.3-8.0006-0.1003-5.1006-6.3003 1.275-2.625 1.7065-3.3372 3.9097-3.4028z"/>
</svg>
