<?xml version="1.0" standalone="no"?>
<!DOCTYPE svg PUBLIC "-//W3C//DTD SVG 20010904//EN"
 "http://www.w3.org/TR/2001/REC-SVG-20010904/DTD/svg10.dtd">
<svg version="1.0" xmlns="http://www.w3.org/2000/svg"
 width="509.116447pt" height="36.183504pt" viewBox="0 0 509.116447 36.183504"
 preserveAspectRatio="xMidYMid meet">
<metadata>
Created by potrace 1.15, written by Peter Selinger 2001-2017
</metadata>
<g transform="translate(-1.953519,271.081636) scale(0.100000,-0.100000)"
fill="#ffffff" stroke="none">
<path d="M22 2533 c3 -170 4 -178 23 -178 19 0 20 8 25 120 l5 120 32 3 c34 3
33 6 49 -93 9 -53 20 -65 58 -65 46 0 60 15 98 105 l33 80 5 -135 5 -135 52
-3 52 -3 36 70 35 71 55 0 55 0 0 -47 c0 -87 5 -94 64 -91 l51 3 0 175 0 175
-106 3 -107 3 -58 -143 -59 -143 -5 140 -5 140 -54 0 -54 0 -40 -94 c-23 -52
-43 -88 -46 -80 -2 8 -12 50 -20 94 l-16 80 -83 3 -82 3 2 -178z m673 67 l0
-45 -67 -3 c-77 -3 -80 1 -51 63 17 35 19 36 68 33 l50 -3 0 -45z"/>
<path d="M797 2703 c-4 -3 -7 -26 -7 -49 0 -46 3 -49 70 -56 25 -3 25 -3 28
-125 3 -123 3 -123 27 -123 24 0 24 0 27 123 l3 122 73 3 72 3 0 -113 c0 -120
6 -142 36 -136 17 3 20 16 24 123 l5 120 35 3 c45 5 60 18 60 52 0 62 8 60
-229 60 -120 0 -221 -3 -224 -7z"/>
<path d="M1327 2703 c-4 -3 -7 -32 -7 -63 0 -65 -13 -88 -55 -92 l-30 -3 0
-95 0 -95 146 -3 c127 -2 147 0 153 14 3 9 4 20 0 25 -3 5 -53 9 -112 9 -59 0
-113 4 -120 9 -8 5 -12 22 -10 42 l3 34 112 5 c62 3 117 10 123 16 21 21 0 43
-43 46 l-42 3 -3 48 -3 47 34 0 c42 0 70 20 61 43 -5 14 -21 17 -103 17 -54 0
-101 -3 -104 -7z"/>
<path d="M1584 2697 c-2 -7 -3 -87 -2 -177 l3 -165 100 0 100 0 3 52 3 52 -73
3 -73 3 -3 123 -3 122 -25 0 c-13 0 -27 -6 -30 -13z"/>
<path d="M2037 2703 c-4 -3 -7 -32 -7 -63 0 -65 -13 -88 -55 -92 l-30 -3 0
-95 0 -95 146 -3 c127 -2 147 0 153 14 3 9 4 20 0 25 -3 5 -53 9 -112 9 -59 0
-113 4 -120 9 -8 5 -12 22 -10 42 l3 34 112 5 c62 3 117 10 123 16 21 21 0 43
-43 46 l-42 3 -3 48 -3 47 34 0 c42 0 70 20 61 43 -5 14 -21 17 -103 17 -54 0
-101 -3 -104 -7z"/>
<path d="M2294 2697 c-2 -7 -3 -87 -2 -177 l3 -165 100 0 100 0 3 52 3 52 -73
3 -73 3 -3 123 -3 122 -25 0 c-13 0 -27 -6 -30 -13z"/>
<path d="M2615 2688 c-2 -13 -6 -48 -7 -78 -3 -55 -3 -55 -38 -60 l-35 -5 0
-95 0 -95 148 -3 147 -3 0 26 0 25 -107 0 c-60 0 -114 4 -121 9 -8 5 -12 22
-10 42 l3 34 95 2 c126 4 140 8 140 38 0 21 -5 24 -42 27 l-43 3 -3 48 -3 47
33 0 c42 0 61 12 56 36 -3 17 -15 19 -105 22 -100 3 -103 2 -108 -20z"/>
<path d="M2880 2530 l0 -181 118 3 c109 3 117 4 117 23 0 18 -8 20 -65 23
-116 4 -110 -2 -110 107 l0 95 78 0 c42 0 83 4 90 9 9 5 12 24 10 52 l-3 44
-117 3 -118 3 0 -181z"/>
<path d="M3137 2704 c-4 -4 -7 -27 -7 -50 0 -46 3 -49 70 -56 25 -3 25 -3 25
-113 1 -139 0 -137 28 -133 21 3 22 8 27 123 5 119 5 120 30 123 69 8 71 9 68
60 l-3 47 -116 3 c-63 1 -118 -1 -122 -4z"/>
<path d="M3404 2697 c-2 -7 -3 -87 -2 -177 l3 -165 45 -3 c56 -4 70 13 70 85
l0 54 63 -3 62 -3 3 -67 c3 -64 4 -68 26 -68 30 0 36 16 36 101 0 56 -4 73
-20 89 -11 11 -24 20 -30 20 -6 0 -10 32 -10 75 l0 75 -120 0 c-89 0 -122 -3
-126 -13z m184 -94 l-3 -48 -60 0 -60 0 -3 33 c-6 56 1 62 68 62 l61 0 -3 -47z"/>
<path d="M3754 2697 c-2 -7 -3 -87 -2 -177 l3 -165 130 0 130 0 3 178 2 177
-130 0 c-97 0 -132 -3 -136 -13z m206 -141 c0 -105 -1 -106 -75 -106 -74 0
-75 1 -75 106 l0 94 75 0 75 0 0 -94z"/>
<path d="M4072 2533 c3 -165 4 -178 22 -181 30 -6 36 16 36 136 l0 112 75 0
75 0 0 -112 c0 -120 6 -142 36 -136 18 3 19 16 22 181 l2 177 -135 0 -135 0 2
-177z"/>
<path d="M4437 2703 c-4 -3 -7 -59 -7 -124 l0 -118 -27 -3 c-26 -3 -28 -6 -28
-53 l0 -50 75 0 75 0 3 47 c3 39 0 49 -17 58 -19 10 -21 20 -21 130 0 119 0
120 -23 120 -13 0 -27 -3 -30 -7z"/>
<path d="M4574 2697 c-2 -7 -3 -87 -2 -177 l3 -165 115 0 c112 0 115 1 118 23
3 21 1 22 -76 22 -56 0 -83 4 -91 14 -8 9 -11 45 -9 98 l3 83 85 5 85 5 3 53
3 52 -116 0 c-85 0 -117 -3 -121 -13z"/>
<path d="M4857 2703 c-9 -8 -9 -166 -1 -187 5 -12 20 -16 59 -16 74 0 85 -6
85 -46 0 -44 -20 -54 -109 -54 -69 0 -71 -1 -71 -25 l0 -25 145 0 146 0 -3
103 -3 102 -92 3 -92 3 -7 34 c-10 55 5 65 97 65 78 0 79 0 79 25 l0 25 -113
0 c-63 0 -117 -3 -120 -7z"/>
</g>
</svg>
