<svg width="1e3" height="165.67" version="1.1" viewBox="0 0 264.58 43.834" xmlns="http://www.w3.org/2000/svg">
 <path d="m241.86 0c-9.5833 0-10.57 6.9709-11.131 9.5204l-0.25166 1.0981h-5.7035l-1.5865 7.1841h5.7371l-5.4808 25.001h11.407l5.4617-25.001h6.6611l-3.715 16.946c-1.5867 7.2806 5.1276 8.0543 8.4269 8.0543h5.8389l1.6449-7.6192h-2.9652c-2.6268 0-2.1527-1.4997-1.6738-3.6525l3.0091-13.729h5.4663l1.5818-7.1841h-5.4808l1.6831-7.6967h-10.56l-1.6836 7.6967h-7.0388l0.57567-2.6221c0.76434-1.7802 2.1287-2.0314 3.9863-2.0314l1.3059-5.965zm-232.06 0.08733-9.7911 42.513h12.67l5.5588-23.23 0.7059 23.23h8.3452l11.765-23.23-5.1904 23.23h12.205l9.8252-42.513h-17.372l-11.378 23.936-0.50333-23.936zm49.363 0-1.432 6.1919h11.252l1.3643-6.1919zm113.91 9.249c-15.219 0-15.978 9.2882-15.978 11.233 0 5.5778 6.8254 8.0501 9.37 8.6403 2.5252 0.59503 7.8662 0.83188 7.8662 4.2085 0 2.8735-3.4636 3.2076-4.6488 3.2076-1.1804 5e-3 -5.3118 0.43063-5.3118-4.8085h-21.044l11.069-4.3977c2.3559-10.382-3.73-17.918-14.107-17.918-10.406 0-15.466 5.6646-17.42 8.601l2.1239-7.6677c-6.9226 0-9.7236 3.2995-10.643 4.2235l0.9188-3.7977h-10.304l-7.4306 31.943h10.981l2.7962-12.423c0.59019-2.5397 3.4735-9.8929 9.8252-9.8929-5.1085 8.998-2.2349 23.327 12.636 23.327 11.925 0 17.406-8.113 18.252-10.314 0.50795 4.5619 2.9603 10.333 16.448 10.333 14.527 0 18.112-7.9674 18.112-12.534 0-12.157-17.923-7.6773-17.923-12.839 0-2.027 2.9941-2.6076 4.3341-2.6076 1.8722 0 3.6282 0.91905 3.6282 2.4526v1.5095h11.064v-1.5095c0-1.9592 0.58515-8.969-14.615-8.969zm35.731 0.0775c-14.198 0-21.116 12.017-21.116 20.386 0 8.3594 6.7481 13.758 15.03 13.758 9.8058 0 20.85-6.4103 20.85-19.777 0-13.347-11.218-14.368-14.764-14.368zm-122.84 0.68678c-12.515 0-20.27 10.817-20.27 19.433 0 8.6206 5.2198 14.208 13.333 14.208 8.1078 0 15.935-2.9025 19.786-12.52h-12.181c-1.1223 3.546-3.7246 4.5475-5.4033 4.5475-1.6932 0-4.2039-1.1706-4.2039-5.2245 0-4.8424 3.3667-13.023 8.3736-13.023 3.7298 0 3.4587 3.9084 3.4587 5.2436h11.818c0-7.9288-4.7506-12.665-14.711-12.665zm-29.239 0.59531-7.1737 31.904h11.479l6.9805-31.904zm82.462 6.0859c4.6441 0 4.5713 4.8083 4.5713 6.4192 0 1.6109-1.6107 12.505-9.1235 12.505-3.3089 0-4.2525-3.3766-4.2525-5.9066 0-4.5764 3.73-13.018 8.8046-13.018zm68.921 0c4.6441 0 4.5765 4.8083 4.5765 6.4192 0 1.6109-1.6306 12.505-9.1483 12.505-3.2944 0-4.2184-3.3766-4.2184-5.9066 0-4.5764 3.6575-13.018 8.7902-13.018z" fill-rule="evenodd" stroke-width="4.6804"/>
</svg>
