<svg width="511pt" height="72.81pt" preserveAspectRatio="xMidYMid" version="1.0" viewBox="0 0 511 72.81" xmlns="http://www.w3.org/2000/svg">
 <path d="m260.1 0.0049747c-7.6 0-11.801 0.50068-14.701 1.7007-2.2 0.9-5.1995 2.4999-6.4995 3.3999-2.3 1.6-1.2994 1.6992 21.601 1.6992 24 0.1 24 0.1001 21.5-1.8999-4.7-3.6-10.799-4.9999-21.899-4.8999zm-186.1 0.7998-9.0996 0.30029-9 0.30029-9 21.5c-5 11.8-9.3998 21.801-9.7998 22.201-0.4 0.5-4.9001-9.3002-10.1-21.7l-9.3999-22.5h-17.6v71h15l0.20068-19.299 0.29883-19.201 8.001 19.301 7.9995 19.299 5.3994-0.29883 5.5005-0.30029 7.9995-19.4 8.1006-19.299 0.30029 19.6 0.19922 19.6h15v-35.5zm305.88 0.064453c-4.8424 0.009058-9.406 0.47305-12.075 1.4355-15.5 5.6-24.401 18.201-24.201 34.601 0.2 13.9 7.2004 25.3 19.4 31.6 4.8 2.5 6.8 2.9007 16.5 3.2007 9.4 0.3 11.801 0.09971 16.701-1.8003 7.6-2.8 15.9-10.401 19.5-17.801 2.5-5.1 2.7993-6.8002 2.7993-15.7 0-8.9-0.29932-10.599-2.7993-15.699-3.6-7.3-11.901-15.001-19.201-17.701-3.7125-1.4062-10.399-2.1474-16.625-2.1357zm-300.87 0.036621v71h15v-71h-7.5zm93 0v71h15.999v-26h4.8003c3.5 0 5.4006 0.4999 6.6006 1.8999 2.6 2.8 5.6003 11.499 6.3003 18.199l0.59912 5.9004h15.7l-0.60059-4.8003c-0.99999-8.2-3.3992-16.5-6.1992-21.7l-2.8008-4.9995 2.4009-2.5005c3.6-3.7 5.2002-8.199 5.2002-14.499 0-9.5-4.501-16.9-12.501-20.6-3.4-1.6-6.5992-1.8999-19.699-1.8999zm248.7 0 0.70019 4.5996c0.3 2.6 0.59912 18.601 0.59912 35.5v30.899h15v-29h21v-13h-21v-17h21v-12h-18.599zm39.3 0v12h18v59h15v-59h18v-12h-25.5zm-324.17 0.09082c-0.82187-0.00723-1.6978-0.00371-2.6352 0.00879-5.3 0-10.799 0.39981-12.199 0.7998-8.3 2.6-16.6 8.9002-20.6 15.7-5.1 8.7-6.5005 18.6-4.0005 28.2 2.8 10.5 8.6994 17.6 18.899 22.9 4.5 2.4 6.6012 2.8011 16.201 3.1011 13.7 0.5 19.8-1.5008 27.8-8.8008 4.7-4.3 10.699-13.8 10.699-16.9 0-0.7-2.7997-1.1001-7.1997-1.1001l-7.2993 0.09961-2.7012 3.9009c-4.4 6.4-9.8989 9.3998-17.899 9.7998-5.6 0.4-7.7003-5.88e-4 -12.3-2.1006-6.2-2.8-10.9-8.5-12.7-15-3.7-13.7 8.0998-27.7 23.3-27.7 7.1 0 11.3 1.5999 16.6 6.3999 4 3.6 4.1001 3.7014 11.6 3.4014l7.5-0.30029-2.1987-4.4004c-3.1-6.1-11.601-13.5-18.201-16-3.7625-1.4-6.9119-1.9577-12.665-2.0083zm183.85 0.17285c-2.7375 0.00469-5.0821 0.13652-5.6821 0.43652-6.9 2.8-11.3 9.8988-11.3 18.299 0 9.4 3.3003 13.5 16.8 21 7.7 4.3 11.5 7.9002 11.5 11.2 0 2.5-4.1 6.5004-7.5 7.4004-3.5 0.9-9.2007-1.8006-10.701-5.1006-0.99999-2.3-1.7005-2.499-7.0005-2.499h-5.7993v3.7002c0 5.5 3.7004 11.2 8.9004 14 6.3 3.3 18.9 3.3 25.1 0 6.5-3.4 9.2993-9.1003 8.7993-18.3-0.3-6-0.79922-7.6999-3.1992-10.9-2.8-3.6-4.4011-4.7993-16.601-11.799-6.3-3.7-8.5996-7.1006-7.5996-11.101 1.4-5.6 9.9004-6.0006 11.9-0.60058 1.1 2.8 1.3994 3 6.8994 3 5.8 0 5.8008-3e-6 5.8008-3 0-4.3-3.4012-10.4-7.2012-13.2-2.6-1.8-4.7993-2.299-10.299-2.499-0.95-0.025-1.9059-0.038184-2.8184-0.036621zm-85.481 6.7354-4.1001 4.6011c-3.9 4.5-8.1006 13.499-8.1006 17.399 0 1.8 0.70049 1.9995 7.0005 1.9995 5.6 0 6.999-0.3 6.999-1.5 0-1.2 1.5003-1.5 7.8003-1.5 6.7-0.1 8.1007-0.39903 10.701-2.499l3-2.5005h-9.3999c-9.3 0-9.4011 4.86e-4 -7.6011-1.9995 1.7-1.9 3.101-2.001 20.001-2.001s18.3 0.10098 20 2.001c1.8 2 1.7007 1.9995-7.2993 1.9995-5.5 0-9.2007 0.40049-9.2007 1.0005 0 0.5 0.60039 0.99902 1.4004 0.99902 0.7 0 1.9001 0.7 2.6001 1.5 0.9 1.1 3.2996 1.5 9.0996 1.5 6.4 0 7.8999 0.3 7.8999 1.5 0 1.2 1.4005 1.5 7.0005 1.5 6.3 0 6.999-0.19951 6.999-1.9995 0-3.9-4.1991-12.899-8.0991-17.399l-4.1001-4.6011h-26.3zm-46.201 5.001h4.5c2.5 0 6.1006 0.7 8.1006 1.5 4.8 2 6.9995 7.0989 4.9995 11.899-2 4.9-5.0993 6.6006-11.799 6.6006h-5.8008v-10zm72.501 0.09961c3.9 0 8.399 0.60039 9.999 1.4004 2.7 1.2 1.801 1.2993-9.999 1.2993s-12.7-0.09932-10-1.2993c1.7-0.8 6.2005-1.4004 10-1.4004zm121.29 0.81006c3.1101-0.03123 6.1919 0.50918 9.0044 1.6904 15.2 6.3 18.9 25.9 7.1001 37.1-10.5 9.9-28.5 7.9991-36.5-3.9009-5.4-8-5.4-16.599 0-24.599 4.3125-6.3969 12.447-10.211 20.395-10.291zm-156.5 19.09c-4.3 0-4.3008-4.85e-4 -4.3008 3.4995 0 3.5 7.9e-4 3.501 4.3008 3.501 2.4 0 8.5-0.30059 13.5-0.60059 8.6-0.7 9.1992-0.80039 9.1992-2.9004 0-2.1-0.59923-2.1989-9.1992-2.8989-5-0.3-11.1-0.60059-13.5-0.60059zm74.7 0-6.7002 0.20068c-3.8 0.1-9.8 0.29951-13.5 0.49951-6.3 0.4-6.7998 0.59971-6.7998 2.6997 0 2.2 0.39981 2.3004 9.7998 2.9004 5.3 0.4 11.4 0.7002 13.5 0.7002 3.6 0 3.7002-0.10098 3.7002-3.501zm-71 7.9995c-6.3 0-7.0005 0.20098-7.0005 2.001 0 3.9 4.2006 12.899 8.1006 17.399l4.1001 4.5996h52.6l4.1001-4.5996c3.9-4.5 8.0991-13.499 8.0991-17.399 0-1.8-0.69903-2.001-6.999-2.001-5.6 0-7.0005 0.3-7.0005 1.5 0 1.2-1.4999 1.5-7.8999 1.5-5.8 0-8.1996 0.4-9.0996 1.5-0.7 0.8-1.9001 1.5-2.6001 1.5-0.8 0-1.4004 0.40049-1.4004 1.0005 0 0.6 3.7007 1.0005 9.2007 1.0005 9 0 9.0993-4.86e-4 7.2993 1.9995-1.7 1.9-3.0995 1.9995-20 1.9995s-18.301-0.09951-20.001-1.9995c-1.8-2-1.6989-1.9995 7.6011-1.9995h9.3999l-3-2.5005c-2.6-2.1-4.0007-2.4005-10.701-2.5005-6.3 0-7.8003-0.3-7.8003-1.5 0-1.2-1.399-1.5-6.999-1.5zm31.5 16.201c11.8 0 12.699 0.09932 9.999 1.2993-3.9 1.8-16.1 1.8-20 0-2.7-1.2-1.7995-1.2993 10-1.2993zm7.916 8.8696c-2.292 0.0057-4.916 0.0168-7.916 0.0293-22.9 0-23.901 0.10068-21.601 1.7007 5.5 3.9 10.401 5.0991 21.201 5.0991 11.1 0.1 17.199-1.2999 21.899-4.8999 2.1875-1.75 2.4604-1.9688-13.584-1.9292z"/>
</svg>
