<svg width="11.973in" height="2.318in" clip-rule="evenodd" fill-rule="evenodd" image-rendering="optimizeQuality" shape-rendering="geometricPrecision" text-rendering="geometricPrecision" version="1.1" viewBox="0 0 11973 2318" xml:space="preserve" xmlns="http://www.w3.org/2000/svg">
 <path d="m10909 0c-319 0-558 211-558 553v207.01h-250v287.98h250v1231h361v-1231h539v769c0 377 181.01 500 457.01 500 138 0 264-52.999 264-52.999v-303s-64.005 58.004-163 58.004c-162 0-197-101-197-255v-716h361v-287.98h-361v-455.02l-361 109.01v346.01h-539v-173.01c0-149 46.998-288 231-288 82 0 168.01 43.009 168.01 43.009v-313.01s-70.006-28.992-202.01-28.992zm-8089 114.99c-134 0-214.01 91.011-214.01 207.01 0 137 101.01 202.01 214.01 202.01 109 0 218-68.011 218-207.01 0-116-96.997-202.01-218-202.01zm-2820 44.006v2120h343v-1380c1-156-13-352.01-13-352.01l51.005 179 639 1553h240.01l636.98-1567 46-166.99s-14.994 251.99-14.994 397.99v1337h365.01v-2120h-500l-543.01 1326-102.01 282-75.989-222.01-553-1387zm6408 562.01c0.166 0 0.3019 0.0406 0.4679 0.0407 0.1828-8e-5 0.3462-0.0407 0.529-0.0407zm0.4679 0.0407c-464.72 0.21143-807.47 269.16-807.47 807.94 0 508 319.01 787.01 774.01 787.01 473 0 793.01-301.01 793.01-826.01 0-445.85-259.87-768.73-759.54-768.94zm1510.5-0.0407c-351 0-582.01 194.99-582.01 470.99 0 520 651 411 651 683 0 114-92.987 153.99-227.99 153.99-243 0-423.01-153.99-423.01-153.99v356h0.9969s174 86.995 413 86.995c359 0 598-185.99 598-476.99 0-297-231.99-385-417.99-466-124-54-228.01-86.007-228.01-215.01 0-89 69.005-152 209-152 203 0 357.99 114.01 357.99 114.01v-338.01s-177.99-62.988-350.99-62.988zm1389 0c0.166 0 0.302 0.0406 0.4679 0.0407 0.1828-8e-5 0.3462-0.0407 0.529-0.0407zm0.4679 0.0407c-464.72 0.2114-807.47 269.16-807.47 807.94 0 508 319.01 787.01 774.01 787.01 473 0 792.99-301.01 792.99-826.01 0-445.85-259.85-768.73-759.52-768.94zm-5250.5 0.95622c-503 0-817 331.99-817 831.99 0 398 243 763 764 763 290 0 428-105 428-105v-331.99l-0.9969 0.9969s-143.01 124-365.01 139c-296 0-456.99-205-456.99-495 0-266 160-505 462-505 224 0 361 135.01 361 135.01v-356.02s-145-76.986-375-76.986zm1385 8.9925c-301 0-384.99 297.99-384.99 297.99v-268.98h-356v1519h356v-793.99c0-123 55.996-428 317-428 131 0 212 62.988 212 62.988v-364.99s-54.002-24.007-144-24.007zm-2803 27.995v1520h355v-1520zm3734 260.01h11.007c248 0 409 150.01 409 505 0 317-137.01 495-399.01 495-315 0-417.99-250-417.99-495 0-327 158.99-500 396.99-505zm2900 0h10.986c248 0 409 150.01 409 505 0 317-136.99 495-398.99 495-315 0-418.01-250-418.01-495 0-327 159.01-500 397.01-505z"/>
</svg>