<?xml version="1.0" standalone="no"?>
<!DOCTYPE svg PUBLIC "-//W3C//DTD SVG 20010904//EN"
 "http://www.w3.org/TR/2001/REC-SVG-20010904/DTD/svg10.dtd">
<svg version="1.0" xmlns="http://www.w3.org/2000/svg"
 width="511.000000pt" height="72.891863pt" viewBox="0 0 511.000000 72.891863"
 preserveAspectRatio="xMidYMid meet">
<metadata>
Created by potrace 1.15, written by Peter Selinger 2001-2017
</metadata>
<g transform="translate(-1.000000,292.945931) scale(0.100000,-0.100000)"
fill="#ffffff" stroke="none">
<path d="M2464 2912 c-22 -9 -52 -25 -65 -34 -23 -16 -13 -17 216 -17 240 -1
240 -1 215 19 -47 36 -108 50 -219 49 -76 0 -118 -5 -147 -17z"/>
<path d="M10 2565 l0 -355 75 0 75 0 2 193 3 192 80 -193 80 -193 54 3 55 3
80 194 81 193 3 -196 2 -196 75 0 75 0 0 355 0 356 -91 -3 -90 -3 -90 -215
c-50 -118 -94 -218 -98 -222 -4 -5 -49 93 -101 217 l-94 225 -88 0 -88 0 0
-355z"/>
<path d="M800 2565 l0 -355 75 0 75 0 0 355 0 355 -75 0 -75 0 0 -355z"/>
<path d="M1220 2911 c-83 -26 -166 -89 -206 -157 -51 -87 -65 -186 -40 -282
28 -105 87 -176 189 -229 45 -24 66 -28 162 -31 137 -5 198 15 278 88 47 43
107 138 107 169 0 7 -28 11 -72 11 l-73 -1 -27 -39 c-44 -64 -99 -94 -179 -98
-56 -4 -77 0 -123 21 -62 28 -109 85 -127 150 -37 137 81 277 233 277 71 0
113 -16 166 -64 40 -36 41 -37 116 -34 l75 3 -22 44 c-31 61 -116 135 -182
160 -43 16 -78 21 -153 20 -53 0 -108 -4 -122 -8z"/>
<path d="M1730 2565 l0 -355 80 0 80 0 0 130 0 130 48 0 c35 0 54 -5 66 -19
26 -28 56 -115 63 -182 l6 -59 78 0 79 0 -6 48 c-10 82 -34 165 -62 217 l-28
50 24 25 c36 37 52 82 52 145 0 95 -45 169 -125 206 -34 16 -66 19 -197 19
l-158 0 0 -355z m286 220 c48 -20 70 -71 50 -119 -20 -49 -51 -66 -118 -66
l-58 0 0 100 0 100 45 0 c25 0 61 -7 81 -15z"/>
<path d="M3150 2913 c-69 -28 -113 -99 -113 -183 0 -94 33 -135 168 -210 77
-43 115 -79 115 -112 0 -25 -41 -65 -75 -74 -35 -9 -92 18 -107 51 -10 23 -17
25 -70 25 l-58 0 0 -37 c0 -55 37 -112 89 -140 63 -33 189 -33 251 0 65 34 93
91 88 183 -3 60 -8 77 -32 109 -28 36 -44 48 -166 118 -63 37 -86 71 -76 111
14 56 99 60 119 6 11 -28 14 -30 69 -30 58 0 58 0 58 30 0 43 -34 104 -72 132
-26 18 -48 23 -103 25 -38 1 -77 0 -85 -4z"/>
<path d="M3688 2906 c-155 -56 -244 -182 -242 -346 2 -139 72 -253 194 -316
48 -25 68 -29 165 -32 94 -3 118 -1 167 18 76 28 159 104 195 178 25 51 28 68
28 157 0 89 -3 106 -28 157 -36 73 -119 150 -192 177 -66 25 -226 29 -287 7z
m230 -132 c152 -63 189 -259 71 -371 -105 -99 -285 -80 -365 39 -54 80 -54
166 0 246 60 89 194 128 294 86z"/>
<path d="M4224 2874 c3 -26 6 -186 6 -355 l0 -309 75 0 75 0 0 145 0 145 105
0 105 0 0 65 0 65 -105 0 -105 0 0 85 0 85 105 0 105 0 0 60 0 60 -186 0 -187
0 7 -46z"/>
<path d="M4610 2860 l0 -60 90 0 90 0 0 -295 0 -295 75 0 75 0 0 295 0 295 90
0 90 0 0 60 0 60 -255 0 -255 0 0 -60z"/>
<path d="M2311 2804 c-39 -45 -81 -135 -81 -174 0 -18 7 -20 70 -20 56 0 70 3
70 15 0 12 15 15 78 15 67 1 81 4 107 25 l30 25 -94 0 c-93 0 -94 0 -76 20 17
19 31 20 200 20 169 0 183 -1 200 -20 18 -20 17 -20 -73 -20 -55 0 -92 -4 -92
-10 0 -5 6 -10 14 -10 7 0 19 -7 26 -15 9 -11 33 -15 91 -15 64 0 79 -3 79
-15 0 -12 14 -15 70 -15 63 0 70 2 70 20 0 39 -42 129 -81 174 l-41 46 -263 0
-263 0 -41 -46z m404 -19 c27 -12 18 -13 -100 -13 -118 0 -127 1 -100 13 17 8
62 14 100 14 39 0 84 -6 100 -14z"/>
<path d="M2220 2565 c0 -35 0 -35 43 -35 24 0 85 3 135 6 86 7 92 8 92 29 0
21 -6 22 -92 29 -50 3 -111 6 -135 6 -43 0 -43 0 -43 -35z"/>
<path d="M2808 2593 c-63 -4 -68 -6 -68 -27 0 -22 4 -23 98 -29 53 -4 114 -7
135 -7 36 0 37 1 37 35 l0 35 -67 -2 c-38 -1 -98 -3 -135 -5z"/>
<path d="M2230 2500 c0 -39 42 -129 81 -174 l41 -46 263 0 263 0 41 46 c39 45
81 135 81 174 0 18 -7 20 -70 20 -56 0 -70 -3 -70 -15 0 -12 -15 -15 -79 -15
-58 0 -82 -4 -91 -15 -7 -8 -19 -15 -26 -15 -8 0 -14 -4 -14 -10 0 -6 37 -10
92 -10 90 0 91 0 73 -20 -17 -19 -31 -20 -200 -20 -169 0 -183 1 -200 20 -18
20 -17 20 76 20 l94 0 -30 25 c-26 21 -40 24 -107 25 -63 0 -78 3 -78 15 0 12
-14 15 -70 15 -63 0 -70 -2 -70 -20z m485 -155 c-39 -18 -161 -18 -200 0 -27
12 -18 13 100 13 118 0 127 -1 100 -13z"/>
<path d="M2399 2252 c55 -39 104 -51 212 -51 111 -1 172 13 219 49 25 20 25
20 -215 19 -229 0 -239 -1 -216 -17z"/>
</g>
</svg>
