<?xml version="1.0" encoding="UTF-8" standalone="no"?>
<!-- Created with Inkscape (http://www.inkscape.org/) -->

<svg
   xmlns:dc="http://purl.org/dc/elements/1.1/"
   xmlns:cc="http://creativecommons.org/ns#"
   xmlns:rdf="http://www.w3.org/1999/02/22-rdf-syntax-ns#"
   xmlns:svg="http://www.w3.org/2000/svg"
   xmlns="http://www.w3.org/2000/svg"
   xmlns:sodipodi="http://sodipodi.sourceforge.net/DTD/sodipodi-0.dtd"
   xmlns:inkscape="http://www.inkscape.org/namespaces/inkscape"
   width="1000"
   height="165.67021"
   viewBox="0 0 264.58333 43.833578"
   version="1.1"
   id="svg8"
   sodipodi:docname="Microsoft_(1987).svg"
   inkscape:version="0.48.5 r10040">
  <defs
     id="defs2" />
  <sodipodi:namedview
     id="base"
     pagecolor="#ffffff"
     bordercolor="#fff"
     borderopacity="1.0"
     inkscape:pageopacity="0.0"
     inkscape:pageshadow="2"
     inkscape:zoom="0.56806641"
     inkscape:cx="1268.4848"
     inkscape:cy="-94.634609"
     inkscape:document-units="px"
     inkscape:current-layer="layer1"
     showgrid="false"
     units="px"
     inkscape:window-width="1920"
     inkscape:window-height="1028"
     inkscape:window-x="-8"
     inkscape:window-y="-8"
     inkscape:window-maximized="1"
     fit-margin-top="0"
     fit-margin-left="0"
     fit-margin-right="0"
     fit-margin-bottom="0" />
  <metadata
     id="metadata5">
    <rdf:RDF>
      <cc:Work
         rdf:about="">
        <dc:format>image/svg+xml</dc:format>
        <dc:type
           rdf:resource="http://purl.org/dc/dcmitype/StillImage" />
        <dc:title />
      </cc:Work>
    </rdf:RDF>
  </metadata>
  <g
     inkscape:label="Layer 1"
     inkscape:groupmode="layer"
     id="layer1"
     transform="translate(-6.5695808e-6,-253.16642)">
    <path
       style="fill:#fff;fill-rule:evenodd;stroke-width:4.68040562"
       inkscape:connector-curvature="0"
       d="m 46.058875,295.7664 -12.205284,0 5.19075,-23.2302 -11.765068,23.2302 -8.344876,0 -0.706283,-23.2302 -5.55841,23.2302 -12.669704,0 9.791323,-42.5129 16.839713,0 0.50311,23.93649 11.378064,-23.93649 17.371845,0 z m 11.663475,-36.32076 11.252282,0 1.364197,-6.19214 -11.184543,0 z m -8.18039,36.32076 11.479645,0 6.980666,-31.90403 -11.286137,0 z m 39.305561,-19.83419 11.818279,0 c 0,-7.92885 -4.750531,-12.66487 -14.71116,-12.66487 -12.514898,0 -20.269583,10.81691 -20.269583,19.43268 0,8.62062 5.219773,14.20806 13.332452,14.20806 8.107833,0 15.935077,-2.90257 19.78582,-12.51973 l -12.181108,0 c -1.122321,3.54597 -3.724959,4.54735 -5.403603,4.54735 -1.693167,0 -4.203877,-1.1707 -4.203877,-5.22462 0,-4.84245 3.366966,-13.02284 8.373899,-13.02284 3.729793,0 3.458881,3.90879 3.458881,5.24397 z m 75.515089,9.05117 -21.04361,0 11.06845,-4.39739 c 2.35592,-10.38151 -3.72979,-17.9185 -14.10646,-17.9185 -10.40571,0 -15.46584,5.66483 -17.42024,8.60127 l 2.12372,-7.66761 c -6.92262,0 -9.7236,3.29924 -10.64275,4.22322 l 0.91915,-3.79752 -10.30411,0 -7.43056,31.94273 10.98137,0 2.79613,-12.42297 c 0.59019,-2.53974 3.47341,-9.89291 9.82519,-9.89291 -5.10851,8.99796 -2.23498,23.32694 12.63585,23.32694 11.92468,0 17.4057,-8.11267 18.25228,-10.31378 0.50796,4.56187 2.96062,10.33314 16.44786,10.33314 14.52735,0 18.11201,-7.96755 18.11201,-12.53424 0,-12.15691 -17.92333,-7.6773 -17.92333,-12.83902 0,-2.02696 2.99447,-2.60747 4.3345,-2.60747 1.87215,0 3.62821,0.91915 3.62821,2.45266 l 0,1.50934 11.0636,0 0,-1.50934 c 0,-1.95922 0.58536,-8.96893 -14.61441,-8.96893 -15.21912,0 -15.97863,9.28822 -15.97863,11.23293 0,5.57776 6.82588,8.04979 9.37045,8.63997 2.52523,0.59503 7.86597,0.83207 7.86597,4.20872 0,2.87355 -3.46374,3.20734 -4.64896,3.20734 -1.18036,0.005 -5.31168,0.43055 -5.31168,-4.80858 z m -33.98904,-2.01729 c 0,-4.57637 3.72978,-13.018 8.80445,-13.018 4.6441,0 4.57153,4.80858 4.57153,6.4195 0,1.61093 -1.61092,12.50522 -9.12373,12.50522 -3.30892,0 -4.25225,-3.37665 -4.25225,-5.90672 z m 57.3063,0 c 0,8.35939 6.74847,13.75817 15.03045,13.75817 9.80585,0 20.8501,-6.40983 20.8501,-19.77616 0,-13.34695 -11.21841,-14.36769 -14.76438,-14.36769 -14.19837,0 -21.11617,12.01662 -21.11617,20.38568 z m 11.62962,0 c 0,-4.57637 3.65723,-13.018 8.78993,-13.018 4.6441,0 4.57638,4.80858 4.57638,6.4195 0,1.61093 -1.63027,12.50522 -9.14792,12.50522 -3.2944,0 -4.21839,-3.37665 -4.21839,-5.90672 z m 23.8736,-11.99727 5.7374,0 -5.48101,25.00076 11.40708,0 5.46166,-25.00076 6.66139,0 -3.71529,16.94615 c -1.58674,7.2806 5.12787,8.05461 8.42712,8.05461 l 5.839,0 1.64479,-7.61922 -2.96547,0 c -2.62681,0 -2.15273,-1.49966 -1.6738,-3.65241 l 3.00899,-13.72913 5.4665,0 1.58189,-7.18384 -5.48101,0 1.6835,-7.69664 -10.56052,0 -1.68347,7.69664 -7.03872,0 0.57567,-2.62199 c 0.76434,-1.78024 2.12854,-2.0318 3.98618,-2.0318 l 1.30616,-5.96477 -5.51487,0 c -9.58331,0 -10.57018,6.97099 -11.13134,9.52042 l -0.25156,1.09814 -5.70353,0 z"
       id="path902"
       sodipodi:nodetypes="ccccccccccccccccccccccccccsssccsssccccscccccccccscsssssccssscsccssssssssssssssscccccccsccsccccccccccccscccc" />
  </g>
</svg>
