<?xml version="1.0" encoding="UTF-8"?>
<!DOCTYPE svg PUBLIC "-//W3C//DTD SVG 1.1//EN" "http://www.w3.org/Graphics/SVG/1.1/DTD/svg11.dtd">
<!-- Creator: CorelDRAW X6 -->
<svg xmlns="http://www.w3.org/2000/svg" xml:space="preserve" width="12.05in" height="2.4in" version="1.1" style="shape-rendering:geometricPrecision; text-rendering:geometricPrecision; image-rendering:optimizeQuality; fill-rule:evenodd; clip-rule:evenodd"
viewBox="0 0 12050 2400"
 xmlns:xlink="http://www.w3.org/1999/xlink"
 xmlns:dc="http://purl.org/dc/elements/1.1/"
 xmlns:cc="http://creativecommons.org/ns#"
 xmlns:rdf="http://www.w3.org/1999/02/22-rdf-syntax-ns#"
 xmlns:svg="http://www.w3.org/2000/svg"
 xmlns:sodipodi="http://sodipodi.sourceforge.net/DTD/sodipodi-0.dtd"
 xmlns:inkscape="http://www.inkscape.org/namespaces/inkscape"
 inkscape:version="0.48.2 r9819"
 sodipodi:docname="Microsoft.svg">
 <defs>
  <style type="text/css">
   <![CDATA[
    .fil0 {fill:#fff}
   ]]>
  </style>
 </defs>
 <g id="Layer_x0020_1">
  <metadata id="CorelCorpID_0Corel-Layer"/>
  <sodipodi:namedview id="base" pagecolor="#ffffff" bordercolor="#fff" borderopacity="1.0" inkscape:pageopacity="0.0" inkscape:pageshadow="2" inkscape:zoom="2.6375083" inkscape:cx="194.20075" inkscape:cy="15.579232" inkscape:document-units="px" inkscape:current-layer="layer1" showgrid="false" inkscape:window-width="1299" inkscape:window-height="1036" inkscape:window-x="618" inkscape:window-y="-3" inkscape:window-maximized="0" fit-margin-top="0.1" fit-margin-left="0.1" fit-margin-right="0.1" fit-margin-bottom="0.1">
   <inkscape:grid type="xygrid" id="grid2996" empspacing="5" visible="true" enabled="true" snapvisiblegridlinesonly="true"/>
  </sodipodi:namedview>
  <g id="g3074">
   <path id="path3034" class="fil0" d="M368 2311l-341 0 0 -2120 519 0 553 1387 76 222 102 -282 543 -1326 500 0 0 2120 -365 0 0 -1337c0,-146 15,-398 15,-398l-46 167 -637 1567 -240 0 -639 -1553 -51 -179c0,0 14,196 13,352l0 1380z" inkscape:connector-curvature="0" sodipodi:nodetypes="cccccccccccccccccccc"/>
   <polygon id="path3036" class="fil0" points="2667,2311 2667,791 3022,791 3022,2311 " inkscape:connector-curvature="0"/>
   <path id="path3038" class="fil0" d="M2633 354c0,-116 80,-207 214,-207 121,0 218,86 218,202 0,139 -109,207 -218,207 -113,0 -214,-65 -214,-202z" inkscape:connector-curvature="0" sodipodi:nodetypes="ccccc"/>
   <path id="path3040" class="fil0" d="M4460 1912l0 332c0,0 -138,105 -428,105 -521,0 -764,-365 -764,-763 0,-500 314,-832 817,-832 230,0 375,77 375,77l0 356c0,0 -137,-135 -361,-135 -302,0 -462,239 -462,505 0,290 161,495 457,495 222,-15 365,-139 365,-139l0 0z" inkscape:connector-curvature="0" sodipodi:nodetypes="ccccccccccc"/>
   <path id="path3042" class="fil0" d="M5085 2311l-356 0 0 -1519 356 0 0 269c0,0 84,-298 385,-298 90,0 144,24 144,24l0 365c0,0 -81,-63 -212,-63 -261,0 -317,305 -317,428l0 793z" inkscape:connector-curvature="0" sodipodi:nodetypes="ccccccccccc"/>
   <path id="path3044" class="fil0" d="M6436 753c-465,0 -808,269 -808,808 0,508 319,787 774,787 473,0 793,-301 793,-826 0,-446 -260,-769 -760,-769zm-35 298c4,0 8,0 11,0 248,0 409,150 409,505 0,317 -137,495 -399,495 -315,0 -418,-250 -418,-495 0,-327 159,-500 397,-505l0 0z" inkscape:connector-curvature="0"/>
   <path id="path3048" class="fil0" d="M9336 753c-465,0 -808,269 -808,808 0,508 319,787 774,787 473,0 793,-301 793,-826 0,-446 -260,-769 -760,-769zm-35 298c4,0 7,0 11,0 248,0 409,150 409,505 0,317 -137,495 -399,495 -315,0 -418,-250 -418,-495 0,-327 159,-500 397,-505z" inkscape:connector-curvature="0"/>
   <path id="path3052" class="fil0" d="M7364 2263l0 -356c0,0 180,154 423,154 135,0 228,-40 228,-154 0,-272 -651,-163 -651,-683 0,-276 231,-471 582,-471 173,0 351,63 351,63l0 338c0,0 -155,-114 -358,-114 -140,0 -209,63 -209,152 0,129 104,161 228,215 186,81 418,169 418,466 0,291 -239,477 -598,477 -239,0 -413,-87 -413,-87l0 0z" inkscape:connector-curvature="0" sodipodi:nodetypes="ccccccccccsccc"/>
   <path id="path3054" class="fil0" d="M10739 2311l-361 0 0 -1231 -250 0 0 -288 250 0 0 -207c0,-342 239,-553 558,-553 132,0 202,29 202,29l0 313c0,0 -86,-43 -168,-43 -184,0 -231,139 -231,288l0 173 539 0 0 -346 361 -109 0 455 361 0 0 288 -361 0 0 716c0,154 35,255 197,255 99,0 163,-58 163,-58l0 303c0,0 -126,53 -264,53 -276,0 -457,-123 -457,-500l0 -769 -539 0 0 1231z" inkscape:connector-curvature="0" sodipodi:nodetypes="ccccccccccccccccccccccccccccc"/>
  </g>
 </g>
</svg>
