<?xml version="1.0" encoding="UTF-8" standalone="no"?>
<!DOCTYPE svg PUBLIC "-//W3C//DTD SVG 1.1//EN" "http://www.w3.org/Graphics/SVG/1.1/DTD/svg11.dtd">
<svg width="100%" height="100%" viewBox="0 0 335 129" version="1.1" xmlns="http://www.w3.org/2000/svg" xmlns:xlink="http://www.w3.org/1999/xlink" xml:space="preserve" xmlns:serif="http://www.serif.com/" style="fill-rule:evenodd;clip-rule:evenodd;stroke-linejoin:round;stroke-miterlimit:2;">
    <g transform="matrix(1,0,0,1,-13.81,-6.833)">
        <path d="M148.375,12.586L248.458,12.586L241.821,50.615C241.821,50.615 238.875,29.999 226.557,21.931C223.499,20.499 215.664,20.598 196.03,20.598L188.344,65.943C203.999,69.624 221.36,45.77 221.36,45.77L211.375,98.499C211.375,98.499 205.25,74.624 186.068,75.416L177.559,122.32C205.497,122.32 204.955,122.124 211.705,117.999C218.218,114.02 233.427,94.426 234.001,91.682L227.797,130.983L126.625,130.983C127.375,125.749 137.232,125.187 141.643,122.184L149.919,76.563C149.252,72.485 141.25,75.998 139.626,72.497C141,68.748 149.046,71.206 151.382,68.5L159.779,22.213C158.28,18.714 148.375,17 148.375,12.586Z" fill="white"/>
        <path d="M337.182,9.026C341.586,18.112 345.127,28.092 348.351,38.402C342.231,40.776 333.746,44.634 333.746,44.634L317.637,22.253C300.858,20.94 278.183,45.93 276.466,61.545C274.458,80.019 285.95,98.267 303.957,99.825C322.716,101.456 345.195,85.583 345.195,85.583L324.576,130.983C282.05,146.114 250.582,118.336 248.972,85.583C246.502,35.582 291.751,8.024 337.182,9.026Z" fill="white"/>
        <path d="M104.625,74.625L119.167,6.833L146.834,23.833L124.718,36.877L104.668,134.61L40,61.833L31.143,106.897L46.875,119.875L13.81,134.611L29.875,58.5C31.625,47 23.673,43.04 16.673,40.665L45,8.026L104.625,74.625Z" fill="white"/>
    </g>
</svg>
