<svg clip-rule="evenodd" fill-rule="evenodd" stroke-linejoin="round" stroke-miterlimit="2" version="1.1" viewBox="0 0 334.54 128.39" xml:space="preserve" xmlns="http://www.w3.org/2000/svg">
    <path d="m105.36 0-14.543 67.793-59.625-66.6-28.326 32.639c7 2.375 14.951 6.3359 13.201 17.836l-16.064 76.109 33.064-14.734-15.732-12.979 8.8574-45.064 64.668 72.777 20.051-97.732 22.115-13.045zm213.76 2.1816c-43.955 0.75274-86.346 28.13-83.953 76.568 1.61 32.753 33.078 60.531 75.604 45.4l20.619-45.4s-22.479 15.873-41.238 14.242c-18.007-1.558-29.498-19.805-27.49-38.279 1.717-15.615 24.391-40.606 41.17-39.293l16.109 22.381s8.4855-3.8584 14.605-6.2324c-3.224-10.31-6.7659-20.289-11.17-29.375-1.4197-0.031312-2.8379-0.036001-4.2559-0.011719zm-184.55 3.5723c0 4.414 9.9053 6.128 11.404 9.627l-8.3965 46.287c-2.336 2.706-10.382 0.2471-11.756 3.9961 1.624 3.501 9.626-0.01159 10.293 4.0664l-8.2774 45.621c-4.411 3.003-14.268 3.5648-15.018 8.7988h101.17l6.2051-39.301c-0.574 2.744-15.784 22.337-22.297 26.316-6.75 4.125-6.2085 4.3203-34.146 4.3203l8.5098-46.904c19.182-0.792 25.307 23.084 25.307 23.084l9.9863-52.729s-17.363 23.853-33.018 20.172l7.6875-45.344c19.634 0 27.467-0.09997 30.525 1.332 12.318 8.068 15.266 28.684 15.266 28.684l6.6367-38.027z" fill="#fff"/>
</svg>
