<svg clip-rule="evenodd" fill-rule="evenodd" stroke-linejoin="round" stroke-miterlimit="2" version="1.1" viewBox="0 0 405.94 100" xml:space="preserve" xmlns="http://www.w3.org/2000/svg">
    <path d="m53.053 2.4223e-4c-31.735-0.086-53.053 22.739-53.053 50.084 0 27.359 21.276 49.902 53.098 49.916h299.75c31.821-0.014 53.088-22.557 53.088-49.916 0-27.345-21.318-50.17-53.039-50.084zm0.13672 12.293h299.55c25.203 0.043 40.668 16.898 40.668 37.725 0 20.835-15.364 37.806-40.668 37.719h-299.55c-25.283 0.087-40.66-16.884-40.66-37.719 0-20.827 15.457-37.682 40.66-37.725zm44.654 14.064v9.6309h14.195v-9.6309zm-57.58 0.01563v47.082h14.584v-32.83l20.395 32.83h14.535v-47.082h-14.549l0.0078 32.83-20.295-32.83zm266.44 0v17.338c-2.271-1.283-4.6566-2.5097-8.0156-2.8047-10.209-0.902-17.994 8.1247-17.994 16.387 0 10.901 8.3978 14.93 9.6738 15.535 4.773 2.206 10.887 2.2064 16.301-1.1816 0 0.281 8e-3 1.8008 8e-3 1.8008h13.994v-47.074zm-137.8 4.8438 8e-3 6.3359-7.6914 0.01563v4.6426h7.6914l-8e-3 31.244h14.189l-0.0156-31.244h7.6641v-4.6582h-7.6641v-6.3359zm177.07 8.8027c-11.427 0-20.691 7.8574-20.691 17.568 0 9.704 9.2644 17.576 20.691 17.576 11.434 0 20.684-7.8722 20.684-17.576 0-9.711-9.2496-17.568-20.684-17.568zm-136.26 0.16602c-11.513 0-20.844 7.8582-20.844 17.576 0 9.718 9.3308 17.568 20.844 17.568 9.553 0 17.626-5.4507 20.084-12.848l-14.107 0.01563s6e-3 0.14334 6e-3 1.9023c0 5.724-3.7625 7-5.8535 7-2.083 0-5.9258-1.276-5.9258-7 0-1.716 0.0156-6.459 0.0156-6.459s26.666 0.01433 26.666-0.01367c0-9.704-9.3708-17.742-20.885-17.742zm-64.529 0.51953c-4.672 0.13-8.58 2.1397-11.291 4.7207-0.014-0.779 0-3.2949 0-3.2949l-14.064 0.01563 0.0137 31.301h14.051s-0.0137-19.227-0.0137-20.561c0-2.732 2.8618-5.7598 6.7188-5.7598 3.864 0 6.4746 3.0278 6.4746 5.7598v20.561h14.059s-9e-3 -14.828 6e-3 -17.041c0.072-12.393-10.655-15.853-15.953-15.701zm115.04 0c-4.679 0.13-8.5802 2.1397-11.283 4.7207-0.015-0.779 0-3.2949 0-3.2949l-14.051 0.01563v31.301h14.051s-0.0137-19.227-0.0137-20.561c0-2.732 2.8539-5.7598 6.7109-5.7598 3.864 0 6.4746 3.0278 6.4746 5.7598v20.561h14.072s-0.014-14.828 0-17.041c0.072-12.393-10.669-15.853-15.961-15.701zm-162.35 1.4414v31.316h14.158v-31.316zm247.98 1.7441c2.826 0 5.7891 2.0387 5.7891 7.0137 0 1.8918-6e-3 5.3864 0.0156 6.6406h-2e-3s-0.0137 4.7298-0.0137 6.6328c0 4.989-2.9421 7.043-5.7891 7.043-2.841 0-5.8027-2.054-5.8027-7.043 0-1.903 6e-3 -6.7559 6e-3 -6.7559s8e-3 -4.6216 8e-3 -6.5176c0-4.975 2.9781-7.0137 5.7891-7.0137zm-136.02 0.16602c1.839 0.014 3.8728 0.92933 4.9688 2.8613 0.901 1.565 0.95069 3.3958 0.92969 6.1348h-11.809c-0.029-2.739 0.0287-4.5698 0.92969-6.1348 1.103-1.932 3.1355-2.8473 4.9805-2.8613zm91.414 1.918c2.199 0 5.5449 1.2253 5.5449 6.0703v11.145c0 4.852-3.3459 6.0996-5.5449 6.0996-2.257 1e-6 -5.5508-1.2476-5.5508-6.0996v-11.145c0-4.845 3.2938-6.0703 5.5508-6.0703z" fill="#fff"/>
</svg>
