<?xml version="1.0" encoding="UTF-8" standalone="no"?>
<!DOCTYPE svg PUBLIC "-//W3C//DTD SVG 1.1//EN" "http://www.w3.org/Graphics/SVG/1.1/DTD/svg11.dtd">
<svg width="100%" height="100%" viewBox="0 0 406 101" version="1.1" xmlns="http://www.w3.org/2000/svg" xmlns:xlink="http://www.w3.org/1999/xlink" xml:space="preserve" xmlns:serif="http://www.serif.com/" style="fill-rule:evenodd;clip-rule:evenodd;stroke-linejoin:round;stroke-miterlimit:2;">
    <g transform="matrix(1,0,0,1,-0.03,0.000242243)">
        <path id="path452" d="M53.127,100C21.305,99.986 0.03,77.442 0.03,50.083C0.03,22.738 21.348,-0.086 53.083,0L352.931,0C384.652,-0.086 405.97,22.738 405.97,50.083C405.97,77.442 384.702,99.986 352.881,100L53.127,100ZM53.22,12.292C28.017,12.335 12.56,29.191 12.56,50.018C12.56,70.853 27.937,87.824 53.22,87.737L352.773,87.737C378.077,87.824 393.44,70.853 393.44,50.018C393.44,29.191 377.976,12.335 352.773,12.292L53.22,12.292Z" fill="white"/>
        <path id="path456" d="M40.294,26.372L54.972,26.372L75.266,59.203L75.259,26.372L89.807,26.372L89.807,73.455L75.273,73.455L54.878,40.624L54.878,73.455L40.294,73.455L40.294,26.372Z" fill="white"/>
        <path id="path458" d="M168.929,31.216L183.102,31.216L183.102,37.553L190.766,37.553L190.766,42.21L183.102,42.21L183.117,73.455L168.929,73.455L168.936,42.21L161.244,42.21L161.244,37.568L168.936,37.553L168.929,31.216Z" fill="white"/>
        <rect id="path460" x="97.911" y="42.146" width="14.159" height="31.317" fill="white"/>
        <rect id="path462" x="97.874" y="26.357" width="14.195" height="9.632" fill="white"/>
        <path id="path464" d="M346.003,40.019C334.576,40.019 325.312,47.877 325.312,57.588C325.312,67.292 334.576,75.164 346.003,75.164C357.437,75.164 366.686,67.292 366.686,57.588C366.686,47.877 357.437,40.019 346.003,40.019M351.691,57.545C351.691,57.545 351.677,62.274 351.677,64.177C351.677,69.166 348.735,71.221 345.888,71.221C343.047,71.221 340.084,69.166 340.084,64.177C340.084,62.274 340.091,57.422 340.091,57.422C340.091,57.422 340.099,52.801 340.099,50.905C340.099,45.93 343.077,43.89 345.888,43.89C348.714,43.89 351.677,45.93 351.677,50.905C351.677,52.801 351.67,56.312 351.692,57.559L351.692,57.545L351.691,57.545Z" fill="white"/>
        <path id="path466" d="M306.828,63.189L306.828,52.044C306.828,47.199 303.483,45.974 301.284,45.974C299.027,45.974 295.733,47.199 295.733,52.044L295.733,63.189C295.733,68.041 299.027,69.288 301.284,69.288C303.483,69.288 306.828,68.041 306.828,63.189ZM306.734,26.372L320.699,26.372L320.699,73.448L306.705,73.448C306.705,73.448 306.698,71.927 306.698,71.646C301.284,75.034 295.171,75.034 290.398,72.828C289.122,72.223 280.723,68.193 280.723,57.292C280.723,49.03 288.509,40.004 298.718,40.906C302.077,41.201 304.463,42.427 306.734,43.71L306.734,26.372Z" fill="white"/>
        <path id="path468" d="M145.211,40.704C150.509,40.552 161.237,44.013 161.165,56.406C161.15,58.619 161.158,73.448 161.158,73.448L147.1,73.448L147.1,52.887C147.1,50.155 144.49,47.127 140.626,47.127C136.769,47.127 133.907,50.155 133.907,52.887C133.907,54.221 133.921,73.448 133.921,73.448L119.87,73.448L119.856,42.146L133.921,42.131C133.921,42.131 133.907,44.647 133.921,45.426C136.632,42.845 140.539,40.834 145.211,40.704" fill="white"/>
        <path id="path470" d="M260.256,40.704C265.548,40.552 276.289,44.013 276.217,56.406C276.203,58.619 276.217,73.448 276.217,73.448L262.145,73.448L262.145,52.887C262.145,50.155 259.535,47.127 255.671,47.127C251.814,47.127 248.959,50.155 248.959,52.887C248.959,54.221 248.974,73.448 248.974,73.448L234.923,73.448L234.923,42.146L248.974,42.131C248.974,42.131 248.959,44.647 248.974,45.426C251.677,42.845 255.577,40.834 260.256,40.704" fill="white"/>
        <path id="path472" d="M215.717,62.497C215.717,62.497 215.724,62.642 215.724,64.401C215.724,70.125 211.961,71.401 209.87,71.401C207.787,71.401 203.944,70.125 203.944,64.401C203.944,62.685 203.959,57.941 203.959,57.941C203.959,57.941 230.626,57.955 230.626,57.927C230.626,48.223 221.254,40.185 209.74,40.185C198.227,40.185 188.898,48.043 188.898,57.761C188.898,67.479 198.227,75.33 209.74,75.33C219.293,75.33 227.367,69.88 229.825,62.483L215.717,62.497ZM203.959,53.053C203.93,50.314 203.988,48.483 204.889,46.918C205.992,44.986 208.025,44.07 209.87,44.056C211.709,44.07 213.742,44.986 214.838,46.918C215.739,48.483 215.789,50.314 215.768,53.053L203.959,53.053Z" fill="white"/>
    </g>
</svg>
