<svg width="803.38pt" height="67.453pt" version="1.1" viewBox="0 0 1968.1 167.64" xmlns="http://www.w3.org/2000/svg">
 <path d="m1446.9 9.0118e-4c-1.7925-0.01625-3.5998 0.18959-5.3298 0.42959-2 0.43-3.401 2.3714-3.211 4.4014-0.07 42.33 0.01 84.671-0.04 127-0.14 2.19 0.3505 5.0576 2.8105 5.7776 3.45 0.71 7.1595 0.78069 10.58-0.18931 2.37-0.74 2.6494-3.4482 2.5994-5.5482-0.33-14.02-0.1683-28.032-0.058-42.052-0.21-27.32-0.1028-54.637-0.073-81.967-0.45-2.32 0.7213-5.7926-2.0387-6.9426-1.67-0.655-3.4463-0.89389-5.2388-0.91014zm37.771 0.00728c-2.6177-0.00605-5.1701 0.45884-6.9826 2.5338-0.37 15.44-0.071 30.891-0.1711 46.341 0.06 28.21-0.119 56.43 0.091 84.64 0.29 5.68 7.6289 4.7186 11.599 4.3286 3.24 0.03 4.8608-3.1898 4.5508-6.0798-0.04-41.99 0.04-83.969-0.04-125.95 0.34-2.7-1.6287-5.4009-4.4087-5.5409-1.4738-0.0975-3.0675-0.26941-4.6381-0.27304zm40.734 0.00364c-1.635-0.01625-3.2774 0.13949-4.8674 0.34949-5.35 0.98-3.6896 7.5395-3.5896 11.41 1.78 3.33 6.0398 3.1008 9.2798 3.0108 2.6-0.08 6.3513-0.71094 6.6113-3.9609 0.09-3.42 1.1597-8.2271-2.6103-10.117-1.56-0.485-3.1888-0.67546-4.8238-0.69171zm-988.69 0.018203c-1.5412-0.045-3.1017 0.08795-4.6017 0.19295-2.42 0.04-5.061 1.8889-4.831 4.5289-0.05 43.03-0.06 86.072 0 129.1 0.02 3.51 4.0016 4.737 6.9316 4.507 3.38 0.11 9.0305 0.2203 9.0905-4.4597 0.08-24.34 0.0191-48.69 0.0291-73.03 0.06-2.99-0.27055-6.0176 0.30945-8.9776 1.55-3.71 5.4492-6.3918 9.5092-6.3018 14.68-0.02 29.359-0.02908 44.029 0.01092 4.99-0.15 9.8721 4.0779 9.7021 9.2179 0.13 24.01 0.021 48.021 0.051 72.021 0.09 2.95-0.3205 5.9721 0.34949 8.8721 2.17 3.61 7.2379 2.5265 10.798 2.4865 2.93 0.21 5.1001-2.4688 4.8201-5.2788 0-25.94 0.0799-51.888-0.0401-77.828-0.05-12.78-10.757-24.672-23.667-25.222-15.35-0.11-30.702 0.01175-46.042-0.05825-3.35-0.09-6.6404 0.58747-9.7604 1.7475-0.13-8.59-0.02-17.178-0.04-25.768 0.09-1.8-0.31794-4.0593-2.1479-4.8893-1.425-0.605-2.9476-0.82874-4.4888-0.87374zm412.88 0.010922c-2.7558 0.00562-5.6738 0.35014-6.8588 3.0726-0.36 9.12-0.0701 18.277-0.12014 27.417-3.73-0.99-7.5495-1.7201-11.41-1.7001-11.68-0.01-23.36 0.01272-35.04-0.0073-4.29 0-8.6212-0.13198-12.851 0.64802-9.53 1.88-17.548 9.7204-19.568 19.24-1.28 4.6-0.82009 9.409-0.87009 14.129-0.01 16 0.0181 31.99-0.0219 47.99 0.05 8.52 4.0321 17.22 11.242 22 4.36 3.08 9.711 4.5307 15.021 4.5107 12.34-0.02 24.669-0.0173 36.999-7e-3 6.31 0.12 13.008 0.29846 18.698-2.9015 8.4-4.14 13.752-13.249 13.812-22.539-0.02-35.7-2e-3 -71.391-0.0218-107.09 0.21-3.38-3.5283-4.9191-6.3783-4.7291-0.8125 0.0025-1.7135-0.03464-2.6321-0.032765zm264.59 2.7231c-1.9988 0-3.9965 0.074356-5.9815 0.22936-2.21 0.53-2.1698 3.0502-2.2098 4.8602v126.06c0.02 1.6 0.1006 3.9504 2.1406 4.2704 3.99 0.27 8.0394 0.33175 12.039-0.0582 1.83-1.11 1.7994-3.3806 1.8094-5.2606-0.05-29.98 0.011-59.961-0.029-89.951 5.44-0.21 10.9 0.04986 16.35-0.12014 1.55 0.08 3.3282-1.2507 3.1382-2.9307 0.08-3.36 0.09-6.7207 0-10.081 0.17-1.81-1.5502-3.3691-3.3202-3.1491-5.34-0.18-10.688 0.02903-16.018-0.05097-0.37-6.89 0.072-13.778-0.2184-20.668-0.17-1.08-0.4111-2.7207-1.7111-2.9307-1.99-0.145-3.99-0.21843-5.9887-0.21843zm-174.97 23.107c-11.04-0.07-22.09-0.07908-33.14 0.01092-8.52 0.37-18.039 1.2212-24.559 7.3612-5.15 4.6-6.1987 12.01-5.9887 18.56 0.26 7.3-0.92137 14.919 1.9586 21.869 2.05 4.93 6.5706 8.571 11.541 10.321 7.41 2.67 15.389 2.8106 23.169 2.8506 11.35 0.02 22.711-0.07088 34.061 0.02913 3.93 0.04 7.2817 2.5394 9.3417 5.7594-0.1 7.78 0.3788 15.602-0.2112 23.362-1.81 4.35-6.7502 6.2307-11.18 6.0907-13.67 0-27.348 0.0191-41.018-0.0109-4.8399 0.1-10.271-2.6509-11.071-7.8309-0.66-2.06 0.6084-5.519-2.1516-6.189-3.92-0.44-7.9191-0.35097-11.839-0.051-0.85 0.64-1.59 1.4116-2.33 2.1516 0.13 6.84 0.15146 14.628 5.1914 19.918 5.83 6.3 14.999 7.5019 23.129 7.9619 12.36 0.12 24.72-2e-3 37.09 0.0583 7.36-0.15 15.09-0.8808 21.6-4.6308 5.73-3.39 9.092-10.098 8.872-16.688-0.09-8.66 0.068-17.318 0.1384-25.968 0.13-5.85-2.9089-11.57-7.7289-14.85-6.73-4.44-15.112-5.0134-22.932-5.3334-12.98-0.13-25.948 0.05991-38.918-0.08009-3.79 0.03-6.961-2.2092-9.491-4.8092-0.48-5.98-0.5901-12.03-0.08-18.01 1.97-4.4 7.0496-5.7374 11.49-5.6174 13.34-0.02 26.681-0.06272 40.021 0.0073 4.19 0.15 9.3006 2.8797 9.2106 7.6197 0.26 1.97-0.5014 4.9522 1.9186 5.8322 3.59 0.53 7.259 0.27848 10.889 0.25848 1.32 0.03 3.3704-0.37964 3.4404-2.0496 0.73-7.23-0.027-15.5-5.6975-20.7-6.69-5.99-16.153-6.841-24.723-7.201zm484.14 1.3871c-2.6517 0.08809-5.1778 0.74745-6.684 3.2037 0.23 34.84 0.14 69.692 0.04 104.53 2.4 3.96 7.5496 3.1797 11.49 2.9197 2.66 0.04 5.0418-2.3504 4.7218-5.0604 0.03-33.36 0.011-66.741 0.011-100.1 0.36-2.8-2.1002-5.3507-4.8602-5.3007-1.4887-0.09375-3.1271-0.2458-4.7182-0.19295zm346.79 2.5448c-14.68 0.06-29.348 0.0091-44.018 0.02913-6.27 0.04-12.651-0.39949-18.771 1.2305-6.62 1.69-13.04 5.3893-16.83 11.209-4.19 5.96-6.1014 13.34-5.9814 20.58 0.04 10.99 0.012 21.979 0.022 32.969 0.05 6.52-0.4313 13.153 1.2487 19.543 1.85 7.84 7.1211 14.83 14.311 18.52 6.68 3.67 14.428 4.8197 21.978 4.4597 14.04-0.02 28.081-0.0191 42.121 0.0109 1.65 0.18 3.9294-0.5201 4.1794-2.4501 0.23-3.72 0.2218-7.4593-0.018-11.169-0.69-1.65-2.5021-2.2506-4.1321-2.1406-15.38-0.04-30.76 9e-3 -46.13-0.0109-4.47 0.01-9.159-1.1385-12.509-4.2085-3.58-3.47-4.9283-8.642-4.8383-13.492 0.12-14.95-0.1517-29.908 0.1383-44.848 0.14-8.4 8.2515-14.543 16.252-14.453 18.33-0.01 36.657 0.01 54.987 0 1.76 0.2 3.7719-0.74858 3.9719-2.7086 0.43-4.13 0.5294-8.4117-0.5606-12.462-1.81-0.34-3.6209-0.62798-5.4209-0.60798zm-1857 0.010923c-2.83-0.02-5.6888 9e-3 -8.4388 0.73904-10.48 2.6-18.701 12.479-19.011 23.329-0.09 18.98 0.01903 37.962-0.05097 56.942-1.33 14.23 11.15 27.859 25.52 27.279 15.32-0.07 30.63 0.0417 45.94-0.0583 12.59-0.36 23.83-11.551 23.98-24.181 0.01-20.02 0.02-40.049 0-60.069-0.29-12.54-11.409-23.503-23.889-23.933-14.68-0.09-29.371 0.03267-44.051-0.04733zm109.98 0c-2.51-0.01-5.0414 0.12816-7.4814 0.76816-10.78 2.74-18.761 13.192-18.851 24.272 0.01 33.32 0.01 66.65 0 99.97 0.04 3-0.20792 6.0195 0.22208 8.9995 1.16 3.23 5.1776 3.579 8.1075 3.819 2.78-0.22 6.4105-0.8908 7.5505-3.8408 0.48-6.3-0.24055-12.649 0.30945-18.949 1.29-3.91 5.1325-6.6687 9.2325-6.7387 15.32-0.1 30.65 0.0199 45.98-0.0401 13.05-0.38 24.379-12.202 24.279-25.262 0.04-19.3 0.0718-38.611-0.0182-57.911 0.02-13-11.281-24.757-24.301-25.047-15.01-0.07-30.02 0.02995-45.03-0.04005zm660.02 0.0073c-3.19 0-6.4219-0.15023-9.5419 0.58977-11.06 2.54-19.351 13.141-19.601 24.421-0.08 25.66 0.0327 51.32-0.0473 76.98-0.11 2.14 0.25001 4.7495 2.37 5.8395 3.16 0.99999 6.5877 0.84318 9.8477 0.39318 2.52-0.18 4.22-2.7705 3.91-5.1805-0.03-26.02-0.0182-52.041-0.0182-78.061-0.33-5.35 5.0089-9.5588 10.099-9.2288 14.33 0.01 28.669 0.01 42.999 0 5.12-0.37 10.732 3.8189 10.372 9.2689-0.01 25.98-0.03 51.961 0 77.941-0.1 2.01 0.56854 4.2676 2.6685 4.9876 3.5 0.89 7.2906 0.82263 10.791-0.0874 2.89-0.96 2.7505-4.3324 2.7705-6.8224-0.12-25.15 0.12986-50.308-0.12014-75.458 0.02-13.11-11.18-25.35-24.45-25.55-14.02-0.06-28.039 0.01723-42.049-0.03277zm-431.04 0.01092c-9.66 0.01-18.753 6.352-22.633 15.112-2.15 4.27-2.1293 9.1587-2.5593 13.809 0 24.36-9e-3 48.732 0.0109 73.092 0.13 2.29 0.61923 5.3469 3.2692 5.9669 3.22 0.84 6.6596 0.69009 9.9096 0.0801 2.77-0.5 3.5731-3.627 3.4731-6.047-0.03-26.74-9.2e-4 -53.491-0.0109-80.231 1.9-3.07 4.811-5.9905 8.701-5.9705 14.95-0.13 29.91-0.05097 44.87-0.05097 4.86-0.12 9.9773 4.2189 9.4873 9.3089 0.01 26 0.0191 52-0.0109 78.01-0.2 1.93 0.76306 4.0109 2.6431 4.7509 2.84 0.93 5.9075 0.8106 8.8575 0.5206 2.25-0.06 4.9016-1.7804 4.5216-4.3104 0.06-26.01-0.01-52.018 0.0401-78.028 0.65-13.32-11.11-25.981-24.53-26.001-15.35-0.02-30.699-9.21e-4 -46.039-0.01092zm1342.1 0c-13.13 0.03-24.579 11.89-24.679 24.92 0.02 26.36-0.032 52.732 0.018 79.102-0.17 2.47 2.3599 4.2996 4.6599 4.3396 3.95 0.31 8.7524 0.81049 11.482-2.7195 0.08-26.89 0.038-53.78 0.018-80.66-0.53-5.94 5.9895-10.002 11.41-9.2616 14.03 0.08 28.062-0.01 42.092 0.04005 4.97-0.23 10.171 4.0907 9.6512 9.2907 0 26-0.01 51.998 0 77.988-0.03 2.1 1.0275 4.6131 3.3275 5.0131 3.25 0.67 6.6814 0.68995 9.9314-0.04 1.84-0.42 3.0395-2.1902 2.7195-4.0702 0.04-24.98-0.022-49.962 0.018-74.952 0.04-4.55 0.1933-9.3101-1.9367-13.47-3.7-9-12.932-15.59-22.732-15.52-15.33 0-30.66-0.01-45.98 0zm-535.54 0.21843c-2.175-0.01875-4.3603 0.08777-6.5203 0.03277-13.56 0.1-27.13-0.19166-40.68 0.13834-7.68 0.9-14.862 5.4813-18.862 12.101-3.09 4.89-3.868 10.841-3.768 16.521 0.12 18.31-0.1307 36.618 0.1093 54.918 0.19 12.84 11.361 24.262 24.221 24.552 17.02 0.06 34.028-0.03 51.048 0.04 1.74 0.19 4.1115-0.55019 4.4415-2.5302 0.27-3.66 0.2699-7.3709-0.04-11.031-0.88-1.61-2.6823-2.1196-4.3723-1.9696-16.38 0.02-32.748 0.0109-49.118 0.0109-5.43 0.42-10.78-4.4597-10.55-9.9497-0.01-3.7-0.1181-7.4001 0.062-11.1 0.62-5.06 5.5777-8.8209 10.598-8.6609 15.29-0.14 30.581 0.03991 45.871-0.08009 12.85-0.61 23.648-12.451 23.438-25.251-0.24-6.95 0.9301-14.19-1.5399-20.86-2.75-7.92-9.6989-14.248-17.879-16.168-2.12-0.55-4.2833-0.6948-6.4583-0.71355zm198.71 0.0036c-6.925-0.0275-13.848-0.01064-20.758 0.22936-3.17 1.12-1.989 4.9987-2.239 7.5287 0.08 2.7-0.8384 7.0898 2.9016 7.6598 17.28 0.3 34.577-0.04074 51.867 0.14926 5.67 0.09 10.061 5.6319 9.6912 11.122-0.18 4.68 0.9097 9.9099-1.8203 14.06-2.12 3.27-6.1696 4.6089-9.9096 4.5289-14.64 0.02-29.28-0.01-43.92 0-9.58 0.1-18.608 6.4394-22.338 15.199-3.27 7.33-1.9525 15.551-2.1225 23.321 0.18 12.89 11.562 24.359 24.472 24.479 12.97 0.01 25.938-0.01 38.918 0 5.82 0.04 11.98 0.46096 17.34-2.319 8.93-3.97 14.932-13.4 14.872-23.15 0.03-19.03 0.011-38.059 0.011-57.099 0.1-9.78-5.8326-19.34-14.803-23.34-6.63-3.41-14.248-2.1009-21.388-2.3409-6.92 0.07-13.848-0.0016-20.773-0.02913zm265.9 0c-3.0562-0.0625-6.1397 0.12912-9.1597 0.02913-14.22 0.12-28.472-0.22889-42.682 0.17111-4.16 1.83-2.1993 7.1277-2.5993 10.638-0.47 2.5 1.7122 4.9991 4.2922 4.6891 17.02 0.05 34.05-0.07903 51.07 0.05097 5.58 0.21 9.7199 5.7601 9.3999 11.14-0.26 4.54 0.9289 9.5594-1.711 13.619-1.87 3.44-5.9194 5.012-9.6694 4.922-15.02 0.08-30.031-0.01995-45.041 0.04005-11.26 0.44-21.019 9.6182-23.329 20.438-0.35 7.04-0.21 14.109-0.08 21.159 1.7499 11.62 12.559 21.392 24.439 21.392 13.98-0.01 27.96-0.03 41.95 0 4.55 0.15 9.2711-0.0887 13.481-2.0387 8.63-3.85 15.458-12.762 15.188-22.462-0.05-19.34-0.041-38.68-0.011-58.02 0.79-10.62-6.73-20.749-16.55-24.279-2.905-1.11-5.9323-1.4265-8.9886-1.489zm-1365.4 0.0073c-8.1175-0.01875-16.232-3e-3 -24.337 0.18203-11.99 1.37-22.143 12.409-21.953 24.559-0.1 19.34-0.0582 38.679-0.0182 58.009-0.35 10.51 6.8511 20.561 16.681 24.061 5.09 2.01 10.649 1.3899 15.989 1.4599 14.67-0.08 29.348 0.14171 44.018-0.0983 3.21-0.14 3.6222-3.931 3.4622-6.411-0.29-2.62 0.85833-5.9901-1.4417-7.9401-0.98999-1.25-2.6692-0.98033-4.0592-1.0703-16.34 0.02-32.691 0.0309-49.031 0.0109-5.76 0.3-10.617-5.3499-10.237-10.94 0.33-4.58-1.051-9.6314 1.529-13.761 1.78-3.52 5.8984-5.0876 9.6584-5.0276 14.69-0.04 29.38-0.01 44.08 0 13.16 0.09 25.219-11.971 24.639-25.211-0.09-5.33 0.11991-10.67-0.0801-16-1.51-11.93-12.488-21.78-24.548-21.8-8.115 0.05-16.234-0.0031-24.352-0.02184zm1675.5 0.0036c-7.945-0.02125-15.891-0.01253-23.831 0.16747-12.06 1.3-22.34 12.278-22.28 24.508 0.01 19.72 9e-4 39.443 0.011 59.163 0.03 10.57 7.8588 20.27 17.839 23.34 4.87 1.6 10.07 0.98853 15.13 1.0885 14.66-0.07 29.34 0.14171 44-0.0983 3.5-0.43 2.9198-4.8495 3.0398-7.4195-0.1-2.73 0.5892-7.2418-3.0508-7.8818-16.98-0.25-33.978-0.0183-50.968-0.0983-5.83 0.39-11.211-5.0726-10.521-10.933 0.37-4.84-1.1905-10.359 1.9295-14.559 2.07-3.04 5.89-4.2685 9.44-4.2485 14.67-0.04 29.341-9.22e-4 44.011-0.01092 11.36-0.04 22.07-8.9915 23.98-20.202 0.21-7.35 0.019-14.709 0.1092-22.069-1.76-11.76-13.131-21.12-25.011-20.74-7.94 0.065-15.882 0.01397-23.828-0.0073zm-1273.2 0.0073c-1.77-0.13-3.8998 0.22973-4.5798 2.1297-0.42 3.81-0.0711 7.6514-0.1711 11.471 1.13 0.77 2.1825 2.0185 3.7024 1.8785 16.68 0.07 33.368-8.76e-4 50.058 0.02912 3.71-0.19 7.3315 1.8331 9.1815 5.0531 2.06 3.35 1.389 7.4584 1.529 11.198 0.12 3.69-0.26997 7.8112-3.12 10.481-2.5 2.49-6.1583 3.0999-9.5383 3.0399-14.02-0.04-28.031 0.0072-42.041-0.03277-13.32-0.49-25.299 11.283-25.469 24.523 0.17 7.76-1.1112 15.951 2.1188 23.271 3.87 9.09 13.442 15.439 23.362 15.239 15.31-0.06 30.619 0.02 45.929-0.04 12.8-0.33 23.999-11.72 24.159-24.53 0.14-17.34 2e-3 -34.679 0.0619-52.009 0.08-5.68 0.21999-11.633-2.37-16.863-3.91-8.74-13.122-14.858-22.732-14.828-16.69 0-33.39 0.01908-50.08-0.01092zm272.96 14.511c4.89-0.23 9.8873 4.2207 9.4873 9.2507-0.01 20.38-0.08 40.748 0.04 61.118-1.69 3.72-5.0799 6.8288-9.3599 6.8188-14.71 0.13-29.428 0.0501-44.138 0.0401-6.9 0.49999-11.699-6.6078-10.459-13.008 0.07-18.27-0.0199-36.55 0.04-54.82-0.01-4.93 4.399-9.5117 9.389-9.3817 15-0.05 30.001-0.0082 45.001-0.0182zm-919.99 0.71722c14 0.06 28 0.01184 41.99 0.02184 5.27-0.3 10.502 4.131 10.452 9.531 0.04 19.3 0.02092 38.608 0.01092 57.918 0.16 5.42-5.0201 10.081-10.35 9.8113-14.72-0.01-29.433 0.0291-44.153-0.0109-5.18 0.1-9.9278-4.4676-9.8878-9.6876-0.1-19.02-0.02005-38.05-0.04005-57.08-0.21-4.14 2.3581-8.2094 6.2181-9.7494 1.8-0.81 3.8194-0.7136 5.7594-0.7536zm109.08 0.05097c14.97-0.02 29.94-0.05816 44.91 0.02184 5.38-0.05 10.088 5.0875 9.6876 10.438-0.02 19.02-7e-3 38.031-7e-3 57.051-0.05 5.42-5.2305 10.101-10.63 9.7312-14.35-0.01-28.711 7e-3 -43.061-0.0328-3.51-0.07-6.9701 0.69015-10.31 1.7002 0-23.16 0.0191-46.309-0.0109-69.469-0.42-5.06 4.4618-9.61 9.4218-9.44zm1035.9 0.21115c2.99-0.13 6.1029 0.85919 8.0529 3.2292 2.92 2.86 2.8969 7.2118 2.8469 11.002-0.09 3.33 0.2123 6.6897-0.3677 9.9897-0.82 4.4-4.9991 7.9381-9.5091 7.7981-14.35 0.02-28.703 0-43.053 0-3.98-0.04-7.907 0.67056-11.617 2.0606 0.13-7.96 0.01-15.918 0.047-23.878-0.4-5.3 4.433-10.14 9.673-10.15 14.64-0.09 29.277 9e-3 43.927-0.05097zm798.07 0c5.32-0.52 10.642 3.7579 10.882 9.1779 0.15 4.38 0.1082 8.7816 0.018 13.172 0.02 5.2-4.6978 9.8884-9.9278 9.6584-14.34 0.04-28.68 9.22e-4 -43.01 0.01092-3.93-0.04-7.7805 0.7513-11.5 1.9113 0.13-8.21-0.051-16.429 0.069-24.639 0.17-5.25 5.2393-9.5398 10.419-9.2798 14.34 0 28.69 0.02908 43.05-0.01092zm-1719 0.0182c14.66 0 29.322-0.01 43.982 0 5.53-0.3 10.347 4.78 10.397 10.19 0.04 4.05 0.0909 8.1022-0.0291 12.152-0.19 5.28-5.0311 9.9293-10.361 9.6693-14.36 0.01-28.707-0.02-43.057 0-3.84-0.05-7.622 0.70872-11.202 2.0387 0.02-7.96 2e-3 -15.918-0.0182-23.878-0.06-5.39 4.7582-10.502 10.288-10.172zm1161.7 43.261c-0.17 7.99 0.068 15.98-0.1019 23.969-0.07 5.49-5.0878 10.422-10.638 10.022-14.69-0.01-29.383 0.0282-44.073-0.0218-5.26 0.15-9.8386-4.6987-9.8586-9.8587-0.1-4.41-0.2217-8.8407 0.098-13.241 0.38-4.86 4.9304-9.0484 9.8404-8.8684 14.32-0.04 28.642 0 42.962 0 4.01 0.04 7.97-0.74231 11.77-2.0023zm-678.96 0.01092c-0.22 7.97 0.0526 15.949-0.12742 23.929-0.04 5.5-5.0523 10.442-10.612 10.052-14.69-0.02-29.368 0.0382-44.058-0.0218-4.08 0.16-7.8016-2.8002-9.2616-6.4802-1.01-3.05-0.65083-6.32-0.72083-9.48 0.05-2.97-0.20761-5.9994 0.50239-8.9194 1.22-4.04 5.2092-7.2382 9.5092-7.0882 14.67-0.05 29.33 0.02724 44-0.03276 3.68 0 7.2688-0.85863 10.769-1.9586zm913.69 0.10922c-0.15 7.96 0.03 15.922-0.08 23.882-0.1 5.34-4.8801 10.24-10.31 9.9897-14.68 0-29.371 9e-3 -44.051-0.0109-3.87 0.21-7.3397-2.2992-9.1597-5.5591-2.06-4.87-0.8095-10.302-1.1395-15.432-0.42-6.02 5.1204-11.877 11.3-11.027 13.99 0.05 27.989 0.01912 41.979 0.02912 3.89 0.01 7.7105-0.84125 11.46-1.8713z"/>
</svg>
