<?xml version="1.0" encoding="UTF-8" ?>
<!DOCTYPE svg PUBLIC "-//W3C//DTD SVG 1.1//EN" "http://www.w3.org/Graphics/SVG/1.1/DTD/svg11.dtd">
<svg width="816pt" height="68pt" viewBox="0 0 1999 169" version="1.1" xmlns="http://www.w3.org/2000/svg">
<g id="#ffffffff">
</g>
<g id="#0069aaff">
<path fill="#ffffff" opacity="1.00" d=" M 543.13 5.92 C 542.90 3.28 545.54 1.43 547.96 1.39 C 550.96 1.18 554.20 0.86 557.05 2.07 C 558.88 2.90 559.29 5.16 559.20 6.96 C 559.22 15.55 559.11 24.14 559.24 32.73 C 562.36 31.57 565.65 30.89 569.00 30.98 C 584.34 31.05 599.69 30.93 615.04 31.04 C 627.95 31.59 638.66 43.48 638.71 56.26 C 638.83 82.20 638.75 108.15 638.75 134.09 C 639.03 136.90 636.86 139.58 633.93 139.37 C 630.37 139.41 625.30 140.49 623.13 136.88 C 622.46 133.98 622.87 130.96 622.78 128.01 C 622.75 104.01 622.86 80.00 622.73 55.99 C 622.90 50.85 618.02 46.62 613.03 46.77 C 598.36 46.73 583.68 46.74 569.00 46.76 C 564.94 46.67 561.04 49.35 559.49 53.06 C 558.91 56.02 559.24 59.05 559.18 62.04 C 559.17 86.38 559.23 110.73 559.15 135.07 C 559.09 139.75 553.44 139.64 550.06 139.53 C 547.13 139.76 543.15 138.53 543.13 135.02 C 543.07 91.99 543.08 48.95 543.13 5.92 Z" />
<path fill="#ffffff" opacity="1.00" d=" M 958.58 4.28 C 960.16 0.65 964.82 1.25 968.07 1.24 C 970.92 1.05 974.66 2.59 974.45 5.97 C 974.47 41.67 974.45 77.36 974.47 113.06 C 974.41 122.35 969.06 131.46 960.66 135.60 C 954.97 138.80 948.27 138.62 941.96 138.50 C 929.63 138.49 917.30 138.49 904.96 138.51 C 899.65 138.53 894.30 137.08 889.94 134.00 C 882.73 129.22 878.75 120.52 878.70 112.00 C 878.74 96.00 878.71 80.01 878.72 64.01 C 878.77 59.29 878.31 54.48 879.59 49.88 C 881.61 40.36 889.63 32.52 899.16 30.64 C 903.39 29.86 907.72 29.99 912.01 29.99 C 923.69 30.01 935.37 29.99 947.05 30.00 C 950.91 29.98 954.73 30.71 958.46 31.70 C 958.51 22.56 958.22 13.40 958.58 4.28 M 894.57 55.15 C 894.51 73.42 894.60 91.70 894.53 109.97 C 893.29 116.37 898.09 123.48 904.99 122.98 C 919.70 122.99 934.42 123.07 949.13 122.94 C 953.41 122.95 956.80 119.84 958.49 116.12 C 958.37 95.75 958.44 75.38 958.45 55.00 C 958.85 49.97 953.85 45.52 948.96 45.75 C 933.96 45.76 918.96 45.72 903.96 45.77 C 898.97 45.64 894.56 50.22 894.57 55.15 Z" />
<path fill="#ffffff" opacity="1.00" d=" M 1457.42 1.60 C 1460.88 1.12 1464.65 0.77 1467.99 2.08 C 1470.75 3.23 1469.58 6.70 1470.03 9.02 C 1470.00 36.35 1469.89 63.67 1470.10 90.99 C 1469.99 105.01 1469.83 119.02 1470.16 133.04 C 1470.21 135.14 1469.93 137.85 1467.56 138.59 C 1464.14 139.56 1460.43 139.49 1456.98 138.78 C 1454.52 138.06 1454.03 135.19 1454.17 133.00 C 1454.22 90.67 1454.14 48.33 1454.21 6.00 C 1454.02 3.97 1455.42 2.03 1457.42 1.60 Z" />
<path fill="#ffffff" opacity="1.00" d=" M 1493.54 3.71 C 1496.44 0.39 1501.23 1.19 1505.16 1.45 C 1507.94 1.59 1509.91 4.29 1509.57 6.99 C 1509.65 48.97 1509.57 90.95 1509.61 132.94 C 1509.92 135.83 1508.30 139.05 1505.06 139.02 C 1501.09 139.41 1493.75 140.37 1493.46 134.69 C 1493.25 106.48 1493.43 78.26 1493.37 50.05 C 1493.47 34.60 1493.17 19.15 1493.54 3.71 Z" />
<path fill="#ffffff" opacity="1.00" d=" M 1536.39 1.53 C 1539.57 1.11 1542.96 0.90 1546.08 1.87 C 1549.85 3.76 1548.78 8.57 1548.69 11.99 C 1548.43 15.24 1544.68 15.87 1542.08 15.95 C 1538.84 16.04 1534.58 16.27 1532.80 12.94 C 1532.70 9.07 1531.04 2.51 1536.39 1.53 Z" />
<path fill="#ffffff" opacity="1.00" d=" M 1224.05 4.16 C 1228.02 3.85 1232.04 3.86 1236.02 4.15 C 1237.32 4.36 1237.56 6.00 1237.73 7.08 C 1238.02 13.97 1237.58 20.86 1237.95 27.75 C 1243.28 27.83 1248.63 27.62 1253.97 27.80 C 1255.74 27.58 1257.46 29.14 1257.29 30.95 C 1257.38 34.31 1257.37 37.67 1257.29 41.03 C 1257.48 42.71 1255.70 44.04 1254.15 43.96 C 1248.70 44.13 1243.24 43.87 1237.80 44.08 C 1237.84 74.07 1237.78 104.05 1237.83 134.03 C 1237.82 135.91 1237.85 138.18 1236.02 139.29 C 1232.02 139.68 1227.97 139.62 1223.98 139.35 C 1221.94 139.03 1221.86 136.68 1221.84 135.08 C 1221.84 93.06 1221.84 51.04 1221.84 9.02 C 1221.88 7.21 1221.84 4.69 1224.05 4.16 Z" />
<path fill="#ffffff" opacity="1.00" d=" M 997.36 34.41 C 1003.88 28.27 1013.40 27.42 1021.92 27.05 C 1032.97 26.96 1044.02 26.97 1055.06 27.04 C 1063.63 27.40 1073.09 28.25 1079.78 34.24 C 1085.45 39.44 1086.21 47.71 1085.48 54.94 C 1085.41 56.61 1083.36 57.02 1082.04 56.99 C 1078.41 57.01 1074.74 57.26 1071.15 56.73 C 1068.73 55.85 1069.49 52.87 1069.23 50.90 C 1069.32 46.16 1064.21 43.43 1060.02 43.28 C 1046.68 43.21 1033.34 43.25 1020.00 43.27 C 1015.56 43.15 1010.48 44.49 1008.51 48.89 C 1008.00 54.87 1008.11 60.92 1008.59 66.90 C 1011.12 69.50 1014.29 71.74 1018.08 71.71 C 1031.05 71.85 1044.02 71.66 1057.00 71.79 C 1064.82 72.11 1073.20 72.68 1079.93 77.12 C 1084.75 80.40 1087.79 86.12 1087.66 91.97 C 1087.59 100.62 1087.43 109.28 1087.52 117.94 C 1087.74 124.53 1084.38 131.24 1078.65 134.63 C 1072.14 138.38 1064.41 139.11 1057.05 139.26 C 1044.68 139.20 1032.32 139.32 1019.96 139.20 C 1011.83 138.74 1002.66 137.54 996.83 131.24 C 991.79 125.95 991.77 118.16 991.64 111.32 C 992.38 110.58 993.12 109.81 993.97 109.17 C 997.89 108.87 1001.89 108.78 1005.81 109.22 C 1008.57 109.89 1007.30 113.35 1007.96 115.41 C 1008.76 120.59 1014.19 123.34 1019.03 123.24 C 1032.70 123.27 1046.38 123.25 1060.05 123.25 C 1064.48 123.39 1069.42 121.51 1071.23 117.16 C 1071.82 109.40 1071.34 101.58 1071.44 93.80 C 1069.38 90.58 1066.03 88.08 1062.10 88.04 C 1050.75 87.94 1039.39 88.03 1028.04 88.01 C 1020.26 87.97 1012.28 87.83 1004.87 85.16 C 999.90 83.41 995.38 79.77 993.33 74.84 C 990.45 67.89 991.63 60.27 991.37 52.97 C 991.16 46.42 992.21 39.01 997.36 34.41 Z" />
<path fill="#ffffff" opacity="1.00" d=" M 1532.52 31.63 C 1534.93 27.70 1539.95 28.37 1543.92 28.62 C 1546.68 28.57 1549.14 31.12 1548.78 33.92 C 1548.78 67.28 1548.80 100.66 1548.77 134.02 C 1549.09 136.73 1546.71 139.12 1544.05 139.08 C 1540.11 139.34 1534.96 140.12 1532.56 136.16 C 1532.66 101.32 1532.75 66.47 1532.52 31.63 Z" />
<path fill="#ffffff" opacity="1.00" d=" M 20.54 31.72 C 23.29 30.99 26.15 30.96 28.98 30.98 C 43.66 31.06 58.35 30.94 73.03 31.03 C 85.51 31.46 96.63 42.42 96.92 54.96 C 96.94 74.98 96.93 95.01 96.92 115.03 C 96.77 127.66 85.53 138.85 72.94 139.21 C 57.63 139.31 42.32 139.20 27.00 139.27 C 12.63 139.85 0.15 126.22 1.48 111.99 C 1.55 93.01 1.44 74.03 1.53 55.05 C 1.84 44.20 10.06 34.32 20.54 31.72 M 23.21 47.22 C 19.35 48.76 16.78 52.83 16.99 56.97 C 17.01 76.00 16.93 95.03 17.03 114.05 C 16.99 119.27 21.74 123.84 26.92 123.74 C 41.64 123.78 56.35 123.74 71.07 123.75 C 76.40 124.02 81.58 119.36 81.42 113.94 C 81.43 94.63 81.45 75.32 81.41 56.02 C 81.46 50.62 76.23 46.19 70.96 46.49 C 56.97 46.48 42.97 46.53 28.97 46.47 C 27.03 46.51 25.01 46.41 23.21 47.22 Z" />
<path fill="#ffffff" opacity="1.00" d=" M 131.48 31.75 C 133.92 31.11 136.45 30.97 138.96 30.98 C 153.97 31.05 168.98 30.95 183.99 31.02 C 197.01 31.31 208.31 43.07 208.29 56.07 C 208.38 75.37 208.35 94.68 208.31 113.98 C 208.41 127.04 197.08 138.86 184.03 139.24 C 168.70 139.30 153.37 139.18 138.05 139.28 C 133.95 139.35 130.11 142.11 128.82 146.02 C 128.27 152.32 128.99 158.67 128.51 164.97 C 127.37 167.92 123.74 168.59 120.96 168.81 C 118.03 168.57 114.01 168.22 112.85 164.99 C 112.42 162.01 112.67 158.99 112.63 155.99 C 112.64 122.67 112.64 89.34 112.63 56.02 C 112.72 44.94 120.70 34.49 131.48 31.75 M 128.63 55.96 C 128.66 79.12 128.64 102.27 128.64 125.43 C 131.98 124.42 135.44 123.66 138.95 123.73 C 153.30 123.77 167.66 123.75 182.01 123.76 C 187.41 124.13 192.59 119.45 192.64 114.03 C 192.64 95.01 192.63 76.00 192.65 56.98 C 193.05 51.63 188.34 46.49 182.96 46.54 C 167.99 46.46 153.02 46.50 138.05 46.52 C 133.09 46.35 128.21 50.90 128.63 55.96 Z" />
<path fill="#ffffff" opacity="1.00" d=" M 249.32 31.41 C 265.53 31.04 281.78 31.35 298.01 31.25 C 310.07 31.27 321.05 41.12 322.56 53.05 C 322.76 58.38 322.55 63.72 322.64 69.05 C 323.22 82.29 311.16 94.35 298.00 94.26 C 283.30 94.25 268.61 94.22 253.92 94.26 C 250.16 94.20 246.04 95.77 244.26 99.29 C 241.68 103.42 243.06 108.47 242.73 113.05 C 242.35 118.64 247.21 124.29 252.97 123.99 C 269.31 124.01 285.66 124.00 302.00 123.98 C 303.39 124.07 305.07 123.80 306.06 125.05 C 308.36 127.00 307.21 130.37 307.50 132.99 C 307.66 135.47 307.25 139.26 304.04 139.40 C 289.37 139.64 274.69 139.42 260.02 139.50 C 254.68 139.43 249.12 140.05 244.03 138.04 C 234.20 134.54 227.00 124.49 227.35 113.98 C 227.31 94.65 227.27 75.31 227.37 55.97 C 227.18 43.82 237.33 32.78 249.32 31.41 M 242.73 56.92 C 242.75 64.88 242.77 72.84 242.75 80.80 C 246.33 79.47 250.11 78.71 253.95 78.76 C 268.30 78.74 282.65 78.77 297.01 78.76 C 302.34 79.02 307.18 74.37 307.37 69.09 C 307.49 65.04 307.44 60.99 307.40 56.94 C 307.35 51.53 302.53 46.45 297.00 46.75 C 282.34 46.74 267.68 46.75 253.02 46.75 C 247.49 46.42 242.67 51.53 242.73 56.92 Z" />
<path fill="#ffffff" opacity="1.00" d=" M 345.31 46.11 C 349.19 37.35 358.28 31.01 367.94 31.00 C 383.28 31.01 398.63 30.99 413.98 31.01 C 427.40 31.03 439.16 43.69 438.51 57.01 C 438.46 83.02 438.53 109.03 438.47 135.04 C 438.85 137.57 436.20 139.29 433.95 139.35 C 431.00 139.64 427.93 139.76 425.09 138.83 C 423.21 138.09 422.25 136.01 422.45 134.08 C 422.48 108.07 422.47 82.07 422.46 56.07 C 422.95 50.98 417.83 46.64 412.97 46.76 C 398.01 46.76 383.05 46.68 368.10 46.81 C 364.21 46.79 361.30 49.71 359.40 52.78 C 359.41 79.52 359.38 106.27 359.41 133.01 C 359.51 135.43 358.71 138.56 355.94 139.06 C 352.69 139.67 349.25 139.82 346.03 138.98 C 343.38 138.36 342.89 135.30 342.76 133.01 C 342.74 108.65 342.75 84.28 342.75 59.92 C 343.18 55.27 343.16 50.38 345.31 46.11 Z" />
<path fill="#ffffff" opacity="1.00" d=" M 671.42 33.37 C 672.10 31.47 674.23 31.11 676.00 31.24 C 692.69 31.27 709.39 31.25 726.08 31.25 C 735.69 31.22 744.90 37.34 748.81 46.08 C 751.40 51.31 751.26 57.26 751.18 62.94 C 751.12 80.27 751.26 97.61 751.12 114.95 C 750.96 127.76 739.76 139.15 726.96 139.48 C 711.65 139.54 696.34 139.46 681.03 139.52 C 671.11 139.72 661.54 133.37 657.67 124.28 C 654.44 116.96 655.72 108.77 655.55 101.01 C 655.72 87.77 667.70 76.00 681.02 76.49 C 695.03 76.53 709.04 76.48 723.06 76.52 C 726.44 76.58 730.10 75.97 732.60 73.48 C 735.45 70.81 735.84 66.69 735.72 63.00 C 735.58 59.26 736.25 55.15 734.19 51.80 C 732.34 48.58 728.72 46.56 725.01 46.75 C 708.32 46.72 691.63 46.79 674.95 46.72 C 673.43 46.86 672.38 45.61 671.25 44.84 C 671.35 41.02 671.00 37.18 671.42 33.37 M 724.99 91.98 C 710.32 92.04 695.66 91.96 680.99 92.01 C 676.69 91.86 672.70 95.06 671.48 99.10 C 670.77 102.02 671.03 105.05 670.98 108.02 C 671.05 111.18 670.69 114.45 671.70 117.50 C 673.16 121.18 676.88 124.14 680.96 123.98 C 695.65 124.04 710.33 123.98 725.02 124.00 C 730.58 124.39 735.59 119.45 735.63 113.95 C 735.81 105.97 735.54 97.99 735.76 90.02 C 732.26 91.12 728.67 91.98 724.99 91.98 Z" />
<path fill="#ffffff" opacity="1.00" d=" M 789.44 31.58 C 792.56 30.84 795.79 30.99 798.98 30.99 C 812.99 31.04 827.01 30.96 841.03 31.02 C 854.30 31.22 865.50 43.46 865.48 56.57 C 865.73 81.72 865.48 106.88 865.60 132.03 C 865.58 134.52 865.72 137.89 862.83 138.85 C 859.33 139.76 855.54 139.83 852.04 138.94 C 849.94 138.22 849.27 135.96 849.37 133.95 C 849.34 107.97 849.36 81.99 849.37 56.01 C 849.73 50.56 844.12 46.37 839.00 46.74 C 824.67 46.75 810.33 46.75 796.00 46.74 C 790.91 46.41 785.57 50.62 785.90 55.97 C 785.90 81.99 785.89 108.01 785.92 134.03 C 786.23 136.44 784.53 139.03 782.01 139.21 C 778.75 139.66 775.32 139.82 772.16 138.82 C 770.04 137.73 769.68 135.12 769.79 132.98 C 769.87 107.32 769.76 81.66 769.84 56.00 C 770.09 44.72 778.38 34.12 789.44 31.58 Z" />
<path fill="#ffffff" opacity="1.00" d=" M 1127.29 31.39 C 1140.84 31.06 1154.41 31.35 1167.97 31.25 C 1172.29 31.36 1176.71 30.83 1180.95 31.93 C 1189.13 33.85 1196.08 40.18 1198.83 48.10 C 1201.30 54.77 1200.13 62.01 1200.37 68.96 C 1200.58 81.76 1189.78 93.60 1176.93 94.21 C 1161.64 94.33 1146.35 94.15 1131.06 94.29 C 1126.04 94.13 1121.08 97.89 1120.46 102.95 C 1120.28 106.65 1120.39 110.35 1120.40 114.05 C 1120.17 119.54 1125.52 124.42 1130.95 124.00 C 1147.32 124.00 1163.69 124.01 1180.07 123.99 C 1181.76 123.84 1183.56 124.35 1184.44 125.96 C 1184.75 129.62 1184.75 133.33 1184.48 136.99 C 1184.15 138.97 1181.78 139.71 1180.04 139.52 C 1163.02 139.45 1146.01 139.54 1128.99 139.48 C 1116.13 139.19 1104.96 127.77 1104.77 114.93 C 1104.53 96.63 1104.78 78.32 1104.66 60.01 C 1104.56 54.33 1105.34 48.38 1108.43 43.49 C 1112.43 36.87 1119.61 32.29 1127.29 31.39 M 1120.39 56.93 C 1120.35 64.89 1120.47 72.85 1120.34 80.81 C 1124.05 79.42 1127.98 78.71 1131.96 78.75 C 1146.31 78.75 1160.66 78.77 1175.01 78.75 C 1179.52 78.89 1183.70 75.35 1184.52 70.95 C 1185.10 67.65 1184.80 64.29 1184.89 60.96 C 1184.94 57.17 1184.96 52.82 1182.04 49.96 C 1180.09 47.59 1176.98 46.60 1173.99 46.73 C 1159.34 46.79 1144.70 46.69 1130.06 46.78 C 1124.82 46.79 1119.99 51.63 1120.39 56.93 Z" />
<path fill="#ffffff" opacity="1.00" d=" M 1352.44 31.45 C 1366.26 30.97 1380.13 31.39 1393.97 31.25 C 1401.11 31.49 1408.73 30.18 1415.36 33.59 C 1424.33 37.59 1430.26 47.15 1430.16 56.93 C 1430.16 75.97 1430.18 95.00 1430.15 114.03 C 1430.21 123.78 1424.21 133.21 1415.28 137.18 C 1409.92 139.96 1403.76 139.54 1397.94 139.50 C 1384.96 139.49 1371.99 139.51 1359.02 139.50 C 1346.11 139.38 1334.73 127.91 1334.55 115.02 C 1334.72 107.25 1333.40 99.03 1336.67 91.70 C 1340.40 82.94 1349.43 76.60 1359.01 76.50 C 1373.65 76.49 1388.29 76.52 1402.93 76.50 C 1406.67 76.58 1410.72 75.24 1412.84 71.97 C 1415.57 67.82 1414.48 62.59 1414.66 57.91 C 1415.03 52.42 1410.64 46.88 1404.97 46.79 C 1387.68 46.60 1370.38 46.94 1353.10 46.64 C 1349.36 46.07 1350.28 41.68 1350.20 38.98 C 1350.45 36.45 1349.27 32.57 1352.44 31.45 M 1402.95 92.01 C 1388.63 92.01 1374.31 91.97 1359.99 92.01 C 1355.08 91.83 1350.53 96.02 1350.15 100.88 C 1349.83 105.28 1349.95 109.71 1350.05 114.12 C 1350.07 119.28 1354.65 124.13 1359.91 123.98 C 1374.60 124.03 1389.29 123.99 1403.98 124.00 C 1409.53 124.40 1414.55 119.47 1414.62 113.98 C 1414.79 105.99 1414.55 98.00 1414.72 90.01 C 1410.92 91.27 1406.96 92.05 1402.95 92.01 Z" />
<path fill="#ffffff" opacity="1.00" d=" M 1587.26 31.42 C 1601.47 31.02 1615.72 31.37 1629.94 31.25 C 1635.98 31.45 1642.28 30.49 1648.09 32.71 C 1657.91 36.24 1665.43 46.37 1664.64 56.99 C 1664.61 76.33 1664.60 95.67 1664.65 115.01 C 1664.92 124.71 1658.09 133.62 1649.46 137.47 C 1645.25 139.42 1640.53 139.66 1635.98 139.51 C 1621.99 139.48 1608.01 139.50 1594.03 139.51 C 1582.15 139.51 1571.34 129.74 1569.59 118.12 C 1569.46 111.07 1569.32 104.00 1569.67 96.96 C 1571.98 86.14 1581.74 76.96 1593.00 76.52 C 1608.01 76.46 1623.02 76.56 1638.04 76.48 C 1641.79 76.57 1645.84 75.00 1647.71 71.56 C 1650.35 67.50 1649.16 62.48 1649.42 57.94 C 1649.74 52.56 1645.60 47.01 1640.02 46.80 C 1623.00 46.67 1605.97 46.80 1588.95 46.75 C 1586.37 47.06 1584.19 44.56 1584.66 42.06 C 1585.06 38.55 1583.10 33.25 1587.26 31.42 M 1637.99 92.00 C 1624.00 91.99 1610.00 92.02 1596.01 91.97 C 1589.83 91.12 1584.29 96.98 1584.71 103.00 C 1585.04 108.13 1583.79 113.56 1585.85 118.43 C 1587.67 121.69 1591.14 124.20 1595.01 123.99 C 1609.69 124.01 1624.38 124.00 1639.06 124.00 C 1644.49 124.25 1649.27 119.35 1649.37 114.01 C 1649.48 106.05 1649.30 98.09 1649.45 90.13 C 1645.70 91.16 1641.88 92.01 1637.99 92.00 Z" />
<path fill="#ffffff" opacity="1.00" d=" M 1685.35 55.92 C 1685.45 42.89 1696.90 31.03 1710.03 31.00 C 1725.35 30.99 1740.68 31.00 1756.01 31.00 C 1765.81 30.93 1775.04 37.52 1778.74 46.52 C 1780.87 50.68 1780.72 55.44 1780.68 59.99 C 1780.64 84.98 1780.70 109.96 1780.66 134.94 C 1780.98 136.82 1779.78 138.59 1777.94 139.01 C 1774.69 139.74 1771.26 139.72 1768.01 139.05 C 1765.71 138.65 1764.65 136.14 1764.68 134.04 C 1764.67 108.05 1764.68 82.05 1764.68 56.05 C 1765.20 50.85 1760.00 46.53 1755.03 46.76 C 1741.00 46.71 1726.97 46.80 1712.94 46.72 C 1707.52 45.98 1701.00 50.04 1701.53 55.98 C 1701.55 82.86 1701.59 109.75 1701.51 136.64 C 1698.78 140.17 1693.98 139.67 1690.03 139.36 C 1687.73 139.32 1685.20 137.49 1685.37 135.02 C 1685.32 108.65 1685.37 82.28 1685.35 55.92 Z" />
<path fill="#ffffff" opacity="1.00" d=" M 1823.20 32.23 C 1829.32 30.60 1835.70 31.04 1841.97 31.00 C 1856.64 30.98 1871.31 31.03 1885.99 30.97 C 1887.79 30.95 1889.60 31.24 1891.41 31.58 C 1892.50 35.63 1892.40 39.91 1891.97 44.04 C 1891.77 46.00 1889.76 46.95 1888.00 46.75 C 1869.67 46.76 1851.34 46.74 1833.01 46.75 C 1825.01 46.66 1816.90 52.80 1816.76 61.20 C 1816.47 76.14 1816.74 91.10 1816.62 106.05 C 1816.53 110.90 1817.88 116.07 1821.46 119.54 C 1824.81 122.61 1829.50 123.76 1833.97 123.75 C 1849.34 123.77 1864.72 123.72 1880.10 123.76 C 1881.73 123.65 1883.54 124.25 1884.23 125.90 C 1884.47 129.61 1884.48 133.35 1884.25 137.07 C 1884.00 139.00 1881.72 139.70 1880.07 139.52 C 1866.03 139.49 1851.99 139.49 1837.95 139.51 C 1830.40 139.87 1822.65 138.72 1815.97 135.05 C 1808.78 131.36 1803.51 124.37 1801.66 116.53 C 1799.98 110.14 1800.46 103.51 1800.41 96.99 C 1800.40 86.00 1800.43 75.01 1800.39 64.02 C 1800.27 56.78 1802.18 49.40 1806.37 43.44 C 1810.16 37.62 1816.58 33.92 1823.20 32.23 Z" />
<path fill="#ffffff" opacity="1.00" d=" M 1925.34 31.40 C 1941.22 31.04 1957.12 31.37 1973.00 31.24 C 1984.88 30.86 1996.25 40.22 1998.01 51.98 C 1997.92 59.34 1998.11 66.70 1997.90 74.05 C 1995.99 85.26 1985.28 94.21 1973.92 94.25 C 1959.25 94.26 1944.58 94.22 1929.91 94.26 C 1926.36 94.24 1922.54 95.47 1920.47 98.51 C 1917.35 102.71 1918.91 108.23 1918.54 113.07 C 1917.85 118.93 1923.23 124.39 1929.06 124.00 C 1946.05 124.08 1963.05 123.85 1980.03 124.10 C 1983.67 124.74 1982.98 129.25 1983.08 131.98 C 1982.96 134.55 1983.54 138.97 1980.04 139.40 C 1965.38 139.64 1950.70 139.43 1936.04 139.50 C 1930.98 139.40 1925.78 140.01 1920.91 138.41 C 1910.93 135.34 1903.10 125.64 1903.07 115.07 C 1903.06 95.35 1903.07 75.63 1903.06 55.91 C 1903.00 43.68 1913.28 32.70 1925.34 31.40 M 1918.59 56.02 C 1918.47 64.23 1918.65 72.45 1918.52 80.66 C 1922.24 79.50 1926.09 78.71 1930.02 78.75 C 1944.35 78.74 1958.69 78.78 1973.03 78.74 C 1978.26 78.97 1982.98 74.28 1982.96 69.08 C 1983.05 64.69 1983.09 60.29 1982.94 55.91 C 1982.70 50.49 1977.38 46.21 1972.06 46.73 C 1957.70 46.77 1943.35 46.74 1929.01 46.74 C 1923.83 46.48 1918.76 50.77 1918.59 56.02 Z" />
</g>
</svg>
