<svg version="1.1" viewBox="0 0 600.02 91.699" xmlns="http://www.w3.org/2000/svg">
 <path d="m0 0v89.539h27.17v-27.578h16.43a53.6 53.6 0 0 0 12.1-1.3105 29.06 29.06 0 0 0 23.031-25.631 30.6 30.6 0 0 0-2.8105-17.02c-4.99-10.69-14.7-17.239-26.49-17.869-1.77-0.1-3.2593-0.13086-5.0293-0.13086zm505.26 0v16.9h23.91v-16.9zm-478.09 21.52h15.9a9.01 9.01 0 0 1 9.0195 8.1699c0.12 1.26 0.09992 2.3205-0.08008 3.5605a8.21 8.21 0 0 1-1.5996 3.9004 8.78 8.78 0 0 1-6.8105 3.6699c-2.02 0.11-3.7398 0.16016-5.7598 0.16016h-10.67zm166.85 1.8125a25.96 25.96 0 0 0-11.256 2.5586 39.66 39.66 0 0 0-9.9297 6.4492l-0.54102-6.7598h-23.068v63.959h24.6v-35.639a10.41 10.41 0 0 1 1.5-5.5312 9.58 9.58 0 0 1 12.08-4 7.04 7.04 0 0 1 4.1289 4.5703c0.36 1.18 0.52148 2.2405 0.52148 3.4805v37.119h25.398v-41.279a30.88 30.88 0 0 0-1.5195-9.8301 20.62 20.62 0 0 0-14.27-13.939 25.96 25.96 0 0 0-7.6445-1.1582zm282.89 0a25.96 25.96 0 0 0-11.256 2.5586 39.66 39.66 0 0 0-9.9297 6.4492l-0.54101-6.7598h-23.07v63.959h24.602v-35.639a10.41 10.41 0 0 1 1.5-5.5312 9.58 9.58 0 0 1 12.078-4 7.04 7.04 0 0 1 4.1309 4.5703c0.36 1.18 0.51953 2.2405 0.51953 3.4805v37.119h25.4v-41.279a30.88 30.88 0 0 0-1.5195-9.8301 20.62 20.62 0 0 0-14.27-13.939 25.96 25.96 0 0 0-7.6445-1.1582zm-150.17 0.43164a66.63 66.63 0 0 0-8.0625 0.03711c-3.24 0.18-5.9706 0.57836-9.1406 1.3184-4.26 1-7.6987 2.6516-11.139 5.3516a17.76 17.76 0 0 0-6.0703 8.4902 17.86 17.86 0 0 0 0.41992 12.479 17 17 0 0 0 9.8496 9.8496c2.37 0.94 4.4395 1.5603 6.9395 2.0703 4.93 1.02 9.1006 1.8102 14.061 2.6602l-0.01 0.0098c1.83 0.31 3.3591 0.70125 5.1191 1.2812a4.1 4.1 0 0 1 2.8008 3.1289 4.67 4.67 0 0 1-1.2891 4.4004 7.33 7.33 0 0 1-4.25 2.1699c-2.26 0.36-4.2604 0.18039-6.4004-0.59961a8.64 8.64 0 0 1-2.7302-1.5508 6.89 6.89 0 0 1-2.2305-3.3594 10.4 10.4 0 0 1-0.48047-3.4102h-23.42v1.3594c0 2.2 0.34133 4.0706 1.1113 6.1406 1.18 3.1 2.7888 5.4998 5.2188 7.7598a24.87 24.87 0 0 0 10.65 6 56.77 56.77 0 0 0 25.359 1.5996 35.03 35.03 0 0 0 11.371-3.6992 23 23 0 0 0 4.4004-2.9492 19.48 19.48 0 0 0 6.1602-21.301 15.54 15.54 0 0 0-4.8203-7.2891 26.96 26.96 0 0 0-10.6-5.7715l-2.5606-0.72852a113.9 113.9 0 0 0-14.48-3.0801c-1.38-0.2-2.5404-0.42023-3.9004-0.74023a9 9 0 0 1-1.7285-0.60156 2.86 2.86 0 0 1-1.4414-3.7793l0.11133-0.2207a5.58 5.58 0 0 1 3.4297-2.7188c2.68-0.77 5.1395-0.70031 7.7695 0.17969a5.81 5.81 0 0 1 3.9805 5.8301h22.58a22.28 22.28 0 0 0-1.3809-7.7207 13.73 13.73 0 0 0-4.6191-6.3984 21.94 21.94 0 0 0-6.0312-3.4414 32.78 32.78 0 0 0-6.5391-1.8203 66.63 66.63 0 0 0-8.0078-0.93555zm66.318 0.02539c-2.56 0-4.71 0.17031-7.25 0.57031a33.22 33.22 0 0 0-18.65 9.25 30.42 30.42 0 0 0-9.5996 19.961 36.59 36.59 0 0 0 1.25 13.76c2 7.22 5.7785 12.8 11.729 17.35a30.34 30.34 0 0 0 12.631 5.8594 43.8 43.8 0 0 0 9.9004 1.0605c3.5 0 6.4587-0.30055 9.8887-1.0605a30.35 30.35 0 0 0 12.631-5.8594 31.58 31.58 0 0 0 11.721-17.35c1.31-4.7 1.69-8.8998 1.25-13.76a30.4 30.4 0 0 0-9.6016-19.961 33.19 33.19 0 0 0-18.648-9.25c-2.53-0.4-4.69-0.57031-7.25-0.57031zm175.41 0.05078c-3.2962-0.08-6.6016 0.2457-10.102 0.9707-12.27 2.55-21.359 11.119-24.629 23.219-1.43 5.32-1.6695 10.101-0.76953 15.541a29.79 29.79 0 0 0 3.7793 10.58 34.24 34.24 0 0 0 9.6289 10.82 31.59 31.59 0 0 0 16.441 6.4199c4.71 0.49 8.7702 0.28961 13.41-0.65039a31.2 31.2 0 0 0 17.18-9.4902 23.13 23.13 0 0 0 6.5391-18.1h-23.049c-0.08 1.37-0.21117 2.5191-0.45117 3.8691a9.5 9.5 0 0 1-2.4004 4.9297 7.35 7.35 0 0 1-4.6191 2.4805 9.13 9.13 0 0 1-7.9004-2.5 13.26 13.26 0 0 1-3.8301-6.3398 29.54 29.54 0 0 1 0.28125-17.561 10.15 10.15 0 0 1 4.5-5.7891 8.9 8.9 0 0 1 10.27 0.5 10.68 10.68 0 0 1 4.2402 7.0605h21.869a19.24 19.24 0 0 0-2.2695-10.4 25.35 25.35 0 0 0-5.5-7.2109 27.84 27.84 0 0 0-12.57-6.8887c-3.465-0.895-6.7526-1.3809-10.049-1.4609zm-455.77 0.04883a66.75 66.75 0 0 0-13.361 1.082c-2.6 0.45-4.7707 1.0796-7.2207 2.0996a19.22 19.22 0 0 0-11.379 12.459 15.3 15.3 0 0 0-0.61133 6.6016c0.04 0.42 0.1518 0.77992 0.3418 1.1699l21.529 0.5293a9.65 9.65 0 0 1 0.58008-3.8203 6.54 6.54 0 0 1 4.0606-4.0703 12.57 12.57 0 0 1 8.5898-0.15039 5.88 5.88 0 0 1 3.8984 3.9512c0.36 1.2 0.18117 2.3997-0.54883 3.4297a5.12 5.12 0 0 1-2.4609 1.9199c-0.64 0.25-1.1996 0.41961-1.8496 0.59961a84.5 84.5 0 0 1-8.5996 1.8711c-2.42 0.4-4.4594 0.76977-6.8594 1.2598a76.94 76.94 0 0 0-9.1309 2.3789 19.15 19.15 0 0 0-7.4004 4.3203 15.61 15.61 0 0 0-5.1191 9.7109c-0.37 2.61-0.28117 4.8792 0.29883 7.4492a17.8 17.8 0 0 0 12.701 13.51 31.1 31.1 0 0 0 21.16-1.0703 20.2 20.2 0 0 0 8.3789-6.1191c0.47 1.56 0.90141 2.8604 1.4414 4.4004 0.3 0.85 0.69883 1.5097 1.2988 2.1797h23.701a10.28 10.28 0 0 1-1.6504-5.041v-0.0098c-0.36-5.27-0.55992-9.7295-0.66992-15.02-0.14-6.95-0.22149-12.8-0.27149-19.75a40.94 40.94 0 0 0-1.3789-10.539 16.68 16.68 0 0 0-8.3008-10.771 27.03 27.03 0 0 0-7.8594-2.9492 66.75 66.75 0 0 0-13.309-1.6113zm143.6 0a66.75 66.75 0 0 0-13.361 1.082c-2.6 0.45-4.7688 1.0796-7.2188 2.0996a19.22 19.22 0 0 0-11.381 12.459 15.3 15.3 0 0 0-0.60938 6.6016c0.04 0.42 0.14985 0.77992 0.33985 1.1699l21.529 0.5293a9.65 9.65 0 0 1 0.58008-3.8203 6.54 6.54 0 0 1 4.0606-4.0703 12.57 12.57 0 0 1 8.5898-0.15039 5.88 5.88 0 0 1 3.9004 3.9512c0.36 1.2 0.17922 2.3997-0.55078 3.4297a5.12 5.12 0 0 1-2.459 1.9199c-0.64 0.25-1.2016 0.41961-1.8516 0.59961a84.5 84.5 0 0 1-8.5996 1.8711c-2.42 0.4-4.4594 0.76977-6.8594 1.2598a76.94 76.94 0 0 0-9.1309 2.3789 19.15 19.15 0 0 0-7.4004 4.3203 15.61 15.61 0 0 0-5.1191 9.7109c-0.37 2.61-0.27922 4.8792 0.30078 7.4492a17.8 17.8 0 0 0 12.699 13.51 31.1 31.1 0 0 0 21.16-1.0703 20.2 20.2 0 0 0 8.3789-6.1191c0.47 1.56 0.90141 2.8604 1.4414 4.4004 0.3 0.85 0.69883 1.5097 1.2988 2.1797h23.701a10.28 10.28 0 0 1-1.6504-5.041v-0.0098c-0.36-5.27-0.55992-9.7295-0.66992-15.02-0.14-6.95-0.21954-12.8-0.26954-19.75a40.94 40.94 0 0 0-1.3808-10.539 16.68 16.68 0 0 0-8.2988-10.771 27.03 27.03 0 0 0-7.8613-2.9492 66.75 66.75 0 0 0-13.309-1.6113zm248.97 1.7012v63.961h23.91v-63.961zm-112.21 14.697a9.34 9.34 0 0 1 7.7988 4.2031 16.43 16.43 0 0 1 2.5195 6.1797c0.87 4.47 0.96125 8.3694 0.28125 12.859-0.34 2.25-0.88055 4.0999-1.8106 6.1699a9.63 9.63 0 0 1-12.74 4.8301 9.28 9.28 0 0 1-4.8301-4.8301 22.31 22.31 0 0 1-1.8086-6.1699c-0.68-4.5-0.60047-8.3994 0.26953-12.859 0.45-2.31 1.2295-4.1997 2.5195-6.1797a9.34 9.34 0 0 1 7.8008-4.2031zm-273.13 20.482c0.28 2.34 0.26944 4.3399-0.0605 6.6699-0.23 1.71-0.75946 3.1205-1.6895 4.5605a9.3 9.3 0 0 1-4.2598 3.6309c-1.7 0.75-3.2496 1.1498-5.0996 1.3398-1.55 0.15-2.8906 0.03914-4.3906-0.38086a6.23 6.23 0 0 1-3.0293-1.8203 5.41 5.41 0 0 1-1.4004-2.6895 4.28 4.28 0 0 1 1.459-4.2305 8.39 8.39 0 0 1 2.7012-1.5801 94.5 94.5 0 0 1 7.1992-2.3398c3.09-0.87 5.6403-1.8102 8.5703-3.1602zm143.6 0c0.28 2.34 0.27141 4.3399-0.0586 6.6699-0.23 1.71-0.76141 3.1205-1.6914 4.5605a9.3 9.3 0 0 1-4.2598 3.6309c-1.7 0.75-3.2496 1.1498-5.0996 1.3398-1.55 0.15-2.8906 0.03914-4.3906-0.38086a6.23 6.23 0 0 1-3.0293-1.8203 5.41 5.41 0 0 1-1.4004-2.6895 4.28 4.28 0 0 1 1.4609-4.2305 8.39 8.39 0 0 1 2.6992-1.5801 94.5 94.5 0 0 1 7.1992-2.3398c3.09-0.87 5.6403-1.8102 8.5703-3.1602z"/>
</svg>
