<?xml version="1.0" standalone="no"?>
<!DOCTYPE svg PUBLIC "-//W3C//DTD SVG 20010904//EN"
 "http://www.w3.org/TR/2001/REC-SVG-20010904/DTD/svg10.dtd">
<svg version="1.0" xmlns="http://www.w3.org/2000/svg"
 width="512.001979pt" height="321.970605pt" viewBox="0 0 512.001979 321.970605"
 preserveAspectRatio="xMidYMid meet">
<metadata>
Created by potrace 1.13, written by Peter Selinger 2001-2015
</metadata>
<g transform="translate(0.001979,416.970075) scale(0.100000,-0.100000)"
fill="#ffffff" stroke="none">
<path d="M3688 4154 c-62 -33 -58 72 -58 -1594 0 -1340 2 -1524 15 -1550 32
-62 10 -60 730 -60 711 0 692 -1 729 54 15 23 16 151 16 1556 0 1405 -1 1533
-16 1556 -37 55 -18 54 -731 54 -563 -1 -662 -3 -685 -16z m1143 -207 c19 -15
39 -50 39 -71 0 -8 -12 -28 -26 -45 l-26 -31 -442 0 -443 0 -21 23 c-35 37
-37 69 -7 105 l27 32 441 0 c332 -1 446 -4 458 -13z m28 -562 c16 -8 34 -28
40 -46 14 -41 14 -277 0 -318 -21 -61 -21 -61 -524 -61 -480 0 -502 2 -519 45
-12 33 -7 340 7 357 28 36 46 37 510 38 384 0 463 -2 486 -15z m-395 -1329
c53 -31 86 -89 86 -150 0 -159 -194 -236 -302 -120 -137 147 43 371 216 270z
m3 -670 c96 -105 -34 -262 -157 -189 -84 49 -75 185 15 224 11 5 40 7 65 5 35
-3 51 -11 77 -40z"/>
<path d="M166 4025 c-57 -20 -108 -66 -138 -125 l-28 -52 0 -944 c0 -1024 -3
-972 54 -1047 14 -19 50 -47 78 -63 l53 -29 548 -3 547 -3 0 -179 0 -180 -245
0 c-269 0 -280 -2 -311 -61 -20 -40 -20 -269 1 -309 33 -63 -15 -60 988 -60
l914 0 28 22 c43 34 55 75 55 193 0 118 -12 159 -55 193 -27 21 -36 22 -276
22 l-249 0 0 180 0 179 548 3 547 3 47 23 c61 30 114 93 133 156 23 77 22
1838 -1 1915 -18 61 -69 123 -128 154 l-41 22 -1515 2 c-1271 2 -1521 0 -1554
-12z m2984 -1120 l0 -875 -1445 0 -1445 0 0 870 0 870 568 3 c312 1 962 3
1445 5 l877 2 0 -875z"/>
</g>
</svg>
