<svg width="512pt" height="322pt" preserveAspectRatio="xMidYMid" version="1.0" viewBox="0 0 512 322" xmlns="http://www.w3.org/2000/svg">
 <path d="m437.3 1.2522e-4c-56.3 0.1-66.199 0.29961-68.499 1.5996-6.2 3.3-5.8008-7.1999-5.8008 159.4 0 134 0.20001 152.4 1.5 155 3.2 6.2 1.0006 6 73 6 71.1 0 69.199 0.10058 72.899-5.3994 1.5-2.3 1.6011-15.1 1.6011-155.6 0-140.5-0.10107-153.3-1.6011-155.6-3.7-5.5-1.8002-5.3994-73.1-5.3994zm-342.74 13.233c-60.806 0.028125-75.487 0.36562-77.962 1.2656-5.7 2-10.8 6.601-13.8 12.501l-2.8008 5.1987v94.4c0 102.4-0.29912 97.2 5.4009 104.7 1.4 1.9 5.0003 4.7003 7.8003 6.3003l5.2998 2.9004 54.8 0.3003 54.7 0.30029v35.899h-24.501c-26.9 0-28 0.20108-31.1 6.1011-2 4-1.9989 26.899 0.10107 30.899 3.3 6.3-1.5006 6 98.799 6h91.4l2.7993-2.2002c4.3-3.4 5.5005-7.4993 5.5005-19.299s-1.2005-15.901-5.5005-19.301c-2.7-2.1-3.5991-2.2002-27.599-2.2002h-24.901v-35.899l109.5-0.60059 4.7007-2.2998c6.1-3 11.399-9.3006 13.299-15.601 2.3-7.7 2.2004-183.8-0.0996-191.5-1.8-6.1-6.8998-12.301-12.8-15.401l-4.1001-2.1987-151.5-0.20068c-31.775-0.05-57.169-0.07529-77.437-0.06592zm298.64 7.7666h44.099c33.2 0.1 44.601 0.39932 45.801 1.2993 1.9 1.5 3.8994 5.0001 3.8994 7.1001 0 0.8-1.2001 2.8-2.6001 4.5l-2.6001 3.0996h-88.5l-2.0991-2.2998c-3.5-3.7-3.7002-6.9-0.7002-10.5zm-78.201 18v175h-289v-174l56.799-0.30029c31.2-0.1 96.2-0.29951 144.5-0.49951zm122.3 38c38.4 0 46.301 0.2 48.601 1.5 1.6 0.8 3.4005 2.7996 4.0005 4.5996 1.4 4.1 1.4 27.7 0 31.8-2.1 6.1-2.1004 6.0996-52.4 6.0996-48 0-50.199-0.20001-51.899-4.5-1.2-3.3-0.70127-34 0.69873-35.7 2.8-3.6 4.6-3.6998 51-3.7998zm-0.49072 131.88c3.0794-0.12641 6.348 0.62432 9.5918 2.5181 5.3 3.1 8.6001 8.9 8.6001 15 0 15.9-19.401 23.6-30.201 12-11.131-11.944-1.3352-28.97 12.009-29.518zm0.27539 65.442c0.64062 2e-3 1.291 0.0262 1.916 0.0762 3.5 0.3 5.1007 1.1005 7.7007 4.0005 9.6 10.5-3.4002 26.199-15.7 18.899-8.4-4.9-7.5-18.499 1.5-22.399 0.825-0.375 2.6616-0.58184 4.5835-0.57715z"/>
</svg>
