<svg version="1.0" viewBox="0 0 499.76 91.639" xmlns="http://www.w3.org/2000/svg">
 <defs>
  <clipPath id="clipPath30">
   <path d="m-281.62-278.32h1052.4v744.1h-1052.4z" stroke-width="1.25"/>
  </clipPath>
 </defs>
 <path transform="translate(.0078125 .0078125)" d="m32.73-0.0078125c-10.675 0-23.538 0.73788-32.738 1.8379v87.963h26.85v-20.975h9.5625c25 0 40.812-12.888 40.812-35.338 0-24.65-16.911-33.488-44.486-33.488zm345.3 0c-10.662 0-23.537 0.73788-32.725 1.8379v87.963h26.85v-20.975h9.5625c24.987 0 40.812-12.888 40.812-35.338 0-24.65-16.913-33.488-44.5-33.488zm89 0c-21.7 0-36.412 8.5625-36.412 26.5 0 30.912 41.939 24.664 41.939 39.014 0 5.5125-4.0616 8.4492-13.986 8.4492-8.8125 0-22.438-2.9383-30.525-6.9883l2.9492 20.25c8.0875 2.95 19.114 4.4141 27.951 4.4141 22.425 0 40.812-7.3639 40.812-29.451 0-29.425-42.301-23.913-42.301-37.9 0-4.7875 4.7875-7 12.5-7 8.4625 0 17.662 1.85 23.912 4.4375l-2.1992-19.146c-7-1.475-13.253-2.5762-24.641-2.5762v-0.0019531zm-379.15 1.8379v87.963h26.85v-34.6h27.949v34.6h26.85v-87.963h-26.85v34.963h-27.949v-34.963h-26.85zm101.5 0v87.963h26.85v-87.963h-26.85zm46.697 0v87.963h48.553l4.0371-17.676h-25.738v-70.287h-26.852zm62.162 0v87.963h26.838v-87.963h-26.838zm-266.99 14.725c13.237 0 19.5 6.2506 19.5 17.301 0 11.4-5.525 19.137-19.5 19.137h-4.416v-36.35c1.5625-0.0875 3.041-0.08789 4.416-0.08789zm345.3 0c13.237 0 19.5 6.2506 19.5 17.301 0 11.4-5.5125 19.137-19.5 19.137h-4.4004v-36.35c1.5625-0.0875 3.0254-0.08789 4.4004-0.08789z" clip-path="url(#clipPath30)"/>
</svg>
