<svg width="157.36mm" height="38.748mm" version="1.1" viewBox="0 0 157.36 38.748" xmlns="http://www.w3.org/2000/svg">
 <path d="m19.579 0c-7.6832 0-12.506 3.3493-12.506 7.1484 0 2.6016 2.3312 5.0115 5.3826 6.3123l7.2786-5.6865c-2.6654-0.18236-4.7563-1.3279-4.7563-2.8293 0-1.1914 1.6719-2.4557 4.5987-2.4557 1.8691 0 3.82 0.63827 4.7227 1.7172l3.1641-2.4743c-2.4648-1.1823-5.3678-1.7322-7.8843-1.7322zm4.7201 4.2065-4.5677 3.5708c4.3796 0.38903 6.5314 3.1001 6.5314 5.5072 0 2.9055-3.0089 5.27-6.6864 5.27-3.2642 0-6.5071-1.7506-7.121-5.0937l-12.455 9.7317c1.2005 7.665 8.8536 14.807 19.579 14.807 9.3488 0 18.8-6.8746 18.8-17.047 0-9.4977-7.7774-15.306-14.081-16.746zm30.773 0.31264c-5.7108 0-8.6806 3.0517-8.6806 8.5406 0 9.449 10.829 7.1484 10.829 12.576 0 1.5591-0.76622 2.8903-2.219 2.8903-1.3403 0-2.267-0.86606-2.267-3.2458v-0.72037h-6.6745v1.0304c0 5.7868 3.1854 7.8714 8.8992 7.8714 6.1332 0 9.385-2.8021 9.385-8.8046 0-9.7135-11.275-7.4187-11.275-12.926 0-1.2522 0.66865-2.2732 2.1518-2.2732 1.3312 0 1.9663 1.3675 1.9663 3.0117v0.66559h6.4492c0-5.9813-2.5588-8.6165-8.5643-8.6165zm19.819 6.3857c-3.0271 0-7.7716 1.094-7.7716 7.1148h5.8539c0.03647-2.0333 0.66858-2.9022 1.9177-2.9022 1.1002 0 1.7229 0.75665 1.7229 2.0422 0 1.2947-0.52559 1.9542-1.9875 2.3037l-2.6686 0.66869c-4.0787 0.99992-5.6286 3.3612-5.6286 6.8016 0 3.7535 1.9025 6.1423 5.6286 6.1423 2.0302 0 3.6105-0.56532 4.7563-2.0758 0.07598 0.55923 0.15536 1.0853 0.32556 1.6263h6.5314c-0.57746-1.1184-0.65061-2.641-0.65061-4.6013v-10.318c0-5.498-3.3794-6.8022-8.0295-6.8022zm21.533 0.29507c-2.0606 0-3.5285 0.84764-4.5527 2.5709v-2.2975h-5.9449v21.15h6.1541v-14.129c0-1.6351 0.46533-2.328 1.5017-2.328 1.006 0 1.5074 0.66859 1.5074 2.328v14.129h6.1547v-14.129c0-1.6625 0.50128-2.328 1.5012-2.328 1.0212 0 1.5043 0.69291 1.5043 2.328v14.129h6.1547v-14.428c0-1.0334 0.0428-1.9418-0.14263-2.9569-0.51667-2.866-2.5107-4.039-4.6746-4.039-1.8813 0-3.4919 0.6503-4.6498 2.6836-0.75981-1.7567-2.3951-2.6836-4.5134-2.6836zm27.487 0c-2.0576 0-3.5227 0.84764-4.5439 2.5709v-2.2975h-5.9542v21.15h6.1578v-14.129c0-1.6351 0.46488-2.328 1.5043-2.328 1.006 0 1.5074 0.66859 1.5074 2.328v14.129h6.1516v-14.129c0-1.6625 0.50141-2.328 1.5074-2.328 1.0151 0 1.5079 0.69291 1.5079 2.328v14.129h6.1541v-14.428c0-1.0334 0.0335-1.9418-0.15192-2.9569-0.51059-2.866-2.5071-4.039-4.671-4.039-1.8843 0-3.4986 0.6503-4.6535 2.6836-0.75678-1.7567-2.3946-2.6836-4.516-2.6836zm15.624 0.27337s3 10.844 5.3676 19.384c0.67168 2.4314 0.19131 2.9664-1.9544 3.0029-0.62 0.0121-0.97875 0.0119-0.97875 0.0119v4.8752h3.2675c3.641 0 5.5073-1.3768 6.72-6.1211 2.632-10.318 5.4033-21.153 5.4033-21.153h-6.7593s-0.63214 4.422-1.9451 14.154c-0.0122 0.0729-0.067 0.0699-0.076 0-1.4041-9.7195-2.0665-14.154-2.0665-14.154zm-62.922 10.941v2.6562c0 2.2186-0.44076 3.3492-2.1032 3.3492-1.0121 0-1.65-0.89966-1.65-2.3068 0-1.3008 0.44993-2.2825 1.3891-2.7414 0.9756-0.47108 1.7594-0.49813 2.3642-0.95705z"/>
</svg>
