<?xml version="1.0" encoding="UTF-8" standalone="no"?>
<svg
   xmlns:dc="http://purl.org/dc/elements/1.1/"
   xmlns:cc="http://creativecommons.org/ns#"
   xmlns:rdf="http://www.w3.org/1999/02/22-rdf-syntax-ns#"
   xmlns:svg="http://www.w3.org/2000/svg"
   xmlns="http://www.w3.org/2000/svg"
   xmlns:sodipodi="http://sodipodi.sourceforge.net/DTD/sodipodi-0.dtd"
   xmlns:inkscape="http://www.inkscape.org/namespaces/inkscape"
   sodipodi:docname="Sammy Corporation.svg"
   inkscape:version="1.0 (4035a4fb49, 2020-05-01)"
   id="svg1676"
   version="1.1"
   viewBox="0 0 157.36066 38.747494"
   height="38.747494mm"
   width="157.36066mm">
  <defs
     id="defs1670" />
  <sodipodi:namedview
     inkscape:window-maximized="0"
     inkscape:window-y="0"
     inkscape:window-x="26"
     inkscape:window-height="1040"
     inkscape:window-width="1274"
     fit-margin-bottom="0"
     fit-margin-right="0"
     fit-margin-left="0"
     fit-margin-top="0"
     showgrid="false"
     inkscape:document-rotation="0"
     inkscape:current-layer="layer1"
     inkscape:document-units="mm"
     inkscape:cy="234.21366"
     inkscape:cx="417.37443"
     inkscape:zoom="0.35"
     inkscape:pageshadow="2"
     inkscape:pageopacity="0.0"
     borderopacity="1.0"
     bordercolor="#ffffff"
     pagecolor="#ffffff"
     id="base" />
  <metadata
     id="metadata1673">
    <rdf:RDF>
      <cc:Work
         rdf:about="">
        <dc:format>image/svg+xml</dc:format>
        <dc:type
           rdf:resource="http://purl.org/dc/dcmitype/StillImage" />
        <dc:title></dc:title>
      </cc:Work>
    </rdf:RDF>
  </metadata>
  <g
     transform="translate(4.5969859,-86.197635)"
     id="layer1"
     inkscape:groupmode="layer"
     inkscape:label="Layer 1">
    <g
       transform="matrix(3.0392598,0,0,-3.0392598,-550.26721,2041.0582)"
       id="g1653">
      <g
         id="g1527"
         transform="translate(198.35648,638.88086)">
        <path
           d="M 0,0 V 0.219 C 0,0.76 -0.209,1.21 -0.647,1.21 c -0.488,0 -0.708,-0.336 -0.708,-0.748 0,-1.812 3.71,-1.057 3.71,-4.253 0,-1.975 -1.07,-2.897 -3.088,-2.897 -1.88,0 -2.928,0.686 -2.928,2.59 v 0.339 h 2.196 v -0.237 c 0,-0.783 0.305,-1.068 0.746,-1.068 0.478,0 0.73,0.438 0.73,0.951 0,1.786 -3.563,1.029 -3.563,4.138 0,1.806 0.977,2.81 2.856,2.81 C 1.28,2.835 2.122,1.968 2.122,0 Z m 6.392,-3.927 v 0.874 C 6.193,-3.204 5.935,-3.213 5.614,-3.368 5.305,-3.519 5.157,-3.842 5.157,-4.27 c 0,-0.463 0.21,-0.759 0.543,-0.759 0.547,0 0.692,0.372 0.692,1.102 m 0.14,-2.486 C 6.476,-6.235 6.45,-6.062 6.425,-5.878 6.048,-6.375 5.528,-6.561 4.86,-6.561 c -1.226,0 -1.852,0.786 -1.852,2.021 0,1.132 0.51,1.909 1.852,2.238 l 0.878,0.22 c 0.481,0.115 0.654,0.332 0.654,0.758 0,0.423 -0.205,0.672 -0.567,0.672 -0.411,0 -0.619,-0.286 -0.631,-0.955 H 3.268 c 0,1.981 1.561,2.341 2.557,2.341 1.53,0 2.642,-0.429 2.642,-2.238 v -3.395 c 0,-0.645 0.024,-1.146 0.214,-1.514 z m 5.939,4.65 c 0,0.546 -0.165,0.766 -0.496,0.766 -0.341,0 -0.494,-0.228 -0.494,-0.766 V -6.412 H 9.456 v 6.959 h 1.956 v -0.756 c 0.337,0.567 0.82,0.846 1.498,0.846 0.697,0 1.235,-0.305 1.485,-0.883 0.381,0.669 0.911,0.883 1.53,0.883 0.712,0 1.368,-0.386 1.538,-1.329 0.061,-0.334 0.047,-0.633 0.047,-0.973 v -4.747 h -2.025 v 4.649 c 0,0.538 -0.159,0.766 -0.495,0.766 -0.329,0 -0.494,-0.219 -0.494,-0.766 v -4.649 h -2.025 z m 9.046,0 c 0,0.546 -0.165,0.766 -0.496,0.766 -0.342,0 -0.495,-0.228 -0.495,-0.766 V -6.412 H 18.5 v 6.959 h 1.959 v -0.756 c 0.336,0.567 0.818,0.846 1.495,0.846 0.698,0 1.237,-0.305 1.486,-0.883 0.38,0.669 0.911,0.883 1.531,0.883 0.712,0 1.369,-0.386 1.537,-1.329 0.061,-0.334 0.05,-0.633 0.05,-0.973 v -4.747 h -2.025 v 4.649 c 0,0.538 -0.162,0.766 -0.496,0.766 -0.331,0 -0.496,-0.219 -0.496,-0.766 v -4.649 h -2.024 z m 6.379,-5.06 c 0,0 0.118,0 0.322,0.004 0.706,0.012 0.864,0.188 0.643,0.988 -0.779,2.81 -1.766,6.378 -1.766,6.378 h 2.296 c 0,0 0.218,-1.459 0.68,-4.657 0.003,-0.023 0.021,-0.024 0.025,0 0.432,3.202 0.64,4.657 0.64,4.657 h 2.224 c 0,0 -0.912,-3.565 -1.778,-6.96 -0.399,-1.561 -1.013,-2.014 -2.211,-2.014 h -1.075"
           style="fill:#ffffff;fill-opacity:1;fill-rule:nonzero;stroke:none"
           id="path1529" />
      </g>
      <g
         id="g1531"
         transform="translate(183.63848,638.77385)">
        <path
           d="M 0,0 2.395,1.871 C 1.518,1.931 0.83,2.308 0.83,2.802 0.83,3.194 1.38,3.61 2.343,3.61 2.958,3.61 3.6,3.4 3.897,3.045 L 4.938,3.859 C 4.127,4.248 3.172,4.429 2.344,4.429 -0.184,4.429 -1.771,3.327 -1.771,2.077 -1.771,1.221 -1.004,0.428 0,0"
           style="fill:#ffffff;fill-opacity:1;fill-rule:nonzero;stroke:none"
           id="path1533" />
      </g>
      <g
         id="g1535"
         transform="translate(187.5355,641.81887)">
        <path
           d="m 0,0 -1.503,-1.175 c 1.441,-0.128 2.149,-1.02 2.149,-1.812 0,-0.956 -0.99,-1.734 -2.2,-1.734 -1.074,0 -2.141,0.576 -2.343,1.676 l -4.098,-3.202 c 0.395,-2.522 2.913,-4.872 6.442,-4.872 3.076,0 6.186,2.262 6.186,5.609 C 4.633,-2.385 2.074,-0.474 0,0"
           style="fill:#ffffff;fill-opacity:1;fill-rule:nonzero;stroke:none"
           id="path1537" />
      </g>
    </g>
  </g>
</svg>
