<?xml version="1.0" encoding="UTF-8" standalone="no"?>
<!DOCTYPE svg PUBLIC "-//W3C//DTD SVG 1.1//EN" "http://www.w3.org/Graphics/SVG/1.1/DTD/svg11.dtd">
<svg width="100%" height="100%" viewBox="0 0 284 86" version="1.1" xmlns="http://www.w3.org/2000/svg" xmlns:xlink="http://www.w3.org/1999/xlink" xml:space="preserve" xmlns:serif="http://www.serif.com/" style="fill-rule:evenodd;clip-rule:evenodd;stroke-linejoin:round;stroke-miterlimit:2;">
    <g transform="matrix(1,0,0,1,-6.851,-6.942)">
        <path d="M6.866,92.691L44.343,92.653C59.676,92.653 72.102,80.265 72.102,65.001C72.102,49.707 59.676,37.318 44.343,37.318L34.61,37.371C33.843,37.371 33.221,36.742 33.221,35.968C33.221,35.194 33.843,34.564 34.61,34.564L72.019,34.572L72.034,22.836L34.602,22.836C27.365,22.836 21.477,28.715 21.477,35.938C21.477,43.168 27.364,49.024 34.602,49.024L44.381,49.153C53.166,49.153 60.275,56.238 60.275,64.979C60.275,73.726 53.167,80.827 44.381,80.827L6.881,80.827L6.866,92.691" fill="white"/>
        <path d="M6.881,78.072L44.381,78.072C51.641,78.072 57.513,72.216 57.513,64.978C57.513,57.748 51.641,51.899 44.381,51.899L34.602,51.793C25.832,51.793 18.716,44.7 18.716,35.937C18.716,27.198 25.832,20.104 34.602,20.104L72.034,20.096L72.019,8.315L34.61,8.315C19.293,8.315 6.851,20.689 6.851,35.968C6.851,51.247 19.293,63.628 34.61,63.628L44.29,63.643C45.026,63.643 45.648,64.243 45.648,65.001C45.648,65.745 45.026,66.344 44.29,66.344L6.866,66.374L6.881,78.072" fill="white"/>
        <path d="M101.158,80.902C94.656,80.902 89.33,75.72 89.33,69.104L89.33,31.666C89.33,25.301 94.656,20.066 101.158,20.066L141.161,20.073L141.161,8.315L101.158,8.315C88.14,8.315 77.595,18.822 77.595,31.795L77.595,69.105C77.595,82.079 88.14,92.601 101.158,92.601L140.994,92.617L140.986,80.888L101.158,80.902" fill="white"/>
        <path d="M92.198,31.795C92.198,26.834 96.189,22.813 101.158,22.813L141.161,22.813L141.161,34.587L106.696,34.587C103.935,34.587 103.897,37.326 103.897,37.326L132.65,37.326L132.65,49.047L92.184,49.047L92.198,31.795" fill="white"/>
        <path d="M101.158,78.05C96.204,78.05 92.183,74.052 92.183,69.105L92.183,51.838L132.649,51.838L132.649,63.583L103.896,63.583C103.934,66.344 106.695,66.358 106.695,66.358L140.993,66.358L140.985,78.034L101.158,78.05" fill="white"/>
        <path d="M169.194,80.872C162.715,80.872 157.42,75.592 157.42,69.104L157.42,31.794C157.42,25.3 162.677,20.065 169.163,20.065L207.908,20.065L207.908,8.315L169.073,8.315C156.061,8.315 145.516,18.822 145.516,31.795L145.516,69.105C145.516,82.079 156.152,92.601 169.163,92.601L207.908,92.617L207.908,37.326L174.611,37.326L174.611,49.047L196.141,49.047L196.141,80.872L169.194,80.872" fill="white"/>
        <path d="M160.181,69.104C160.181,74.075 164.202,78.118 169.163,78.118L193.364,78.118L193.364,51.823L174.64,51.823L174.64,63.583L181.589,63.583L181.611,66.344L174.693,66.344C173.183,66.344 171.947,65.093 171.947,63.583L171.885,37.318C171.885,37.318 171.877,34.587 174.662,34.519L207.921,34.519L207.906,22.805L169.161,22.813C164.2,22.813 160.179,26.834 160.179,31.795L160.179,69.104" fill="white"/>
        <path d="M242.844,67.753L234.414,92.607L220.531,92.607L244.315,22.638C244.837,21.144 246.256,20.067 247.933,20.067C249.611,20.067 251.044,21.144 251.552,22.638L270.36,78.201L242.82,78.201L242.844,67.753ZM243.734,65.13L252.053,65.13L247.91,52.817L243.734,65.13Z" fill="white"/>
        <path d="M274.152,80.872L242.866,80.872L242.866,92.607L290.478,92.607L265.716,19.345C263.546,12.199 256.393,6.942 247.925,6.942C239.444,6.942 232.313,12.176 230.127,19.316L205.138,92.608L217.603,92.608L241.865,21.364C242.85,19.005 245.173,17.343 247.904,17.343C250.62,17.343 252.956,19.005 253.95,21.349L274.152,80.872" fill="white"/>
    </g>
</svg>
