<svg clip-rule="evenodd" fill-rule="evenodd" stroke-linejoin="round" stroke-miterlimit="2" version="1.1" viewBox="0 0 283.63 85.748" xml:space="preserve" xmlns="http://www.w3.org/2000/svg">
    <path d="m241.07 0c-8.481 0-15.613 5.2331-17.799 12.373l-22.219 65.17v-47.158h-33.297v11.721h21.529v31.824h-26.945c-6.479 0-11.775-5.2796-11.775-11.768v-37.311c0-6.494 5.2582-11.729 11.744-11.729h38.744v-11.75h-38.834c-13.012 0-23.559 10.507-23.559 23.48v37.309c0 12.974 10.637 23.496 23.648 23.496l38.744 0.01758v-0.0098h9.6953l24.262-71.244c0.985-2.359 3.3081-4.0215 6.0391-4.0215 2.716 0 5.0529 1.6619 6.0469 4.0059l20.201 59.523h-31.285v11.734h47.611l-24.762-73.262c-2.17-7.146-9.323-12.402-17.791-12.402zm-213.31 1.373c-15.317 0-27.76 12.373-27.76 27.652s12.443 27.66 27.76 27.66l9.6797 0.01563c0.736 0 1.3574 0.59942 1.3574 1.3574 0 0.744-0.62142 1.3438-1.3574 1.3438l-37.424 0.0293 0.013672 11.699h37.5c7.26 0 13.133-5.8577 13.133-13.096 0-7.23-5.8728-13.078-13.133-13.078l-9.7773-0.10547c-8.77 0-15.887-7.0944-15.887-15.857 0-8.739 7.1167-15.832 15.887-15.832l37.432-0.0078-0.01563-11.781zm66.547 0c-13.018 0-23.562 10.507-23.562 23.48v37.309c0 12.974 10.545 23.496 23.562 23.496l39.836 0.01758-8e-3 -11.73-39.828 0.01563c-6.502 0-11.828-5.1828-11.828-11.799v-37.438c0-6.365 5.3261-11.602 11.828-11.602l40.004 0.0078v-11.758zm146.78 11.752c-1.677 0-3.0952 1.0763-3.6172 2.5703l-23.785 69.969h13.883l8.4297-24.854-0.0234 10.449h27.541l-18.809-55.564c-0.508-1.494-1.9411-2.5703-3.6191-2.5703zm-40.027 2.7383-38.744 0.0078c-4.961 0-8.9824 4.0214-8.9824 8.9824v37.309h2e-3c0 4.971 4.0214 9.0137 8.9824 9.0137h24.201v-26.295h-18.725v11.76h6.9492l0.0215 2.7617h-6.918c-1.51 0-2.7461-1.2517-2.7461-2.7617l-0.0625-26.264s-8e-3 -2.7328 2.7774-2.8008h33.26zm-106.75 0.0078c-4.969 0-8.959 4.0214-8.959 8.9824l-0.01563 17.252h40.467v-11.721h-28.752s0.03783-2.7402 2.7988-2.7402h34.465v-11.773zm-66.555 0.02344c-7.237 0-13.125 5.8786-13.125 13.102 0 7.23 5.887 13.086 13.125 13.086l9.7773 0.12891c8.785 0 15.895 7.0852 15.895 15.826 0 8.747-7.1085 15.848-15.895 15.848h-37.5l-0.013672 11.863 37.477-0.037109c15.333 0 27.76-12.388 27.76-27.652 0-15.294-12.427-27.682-27.76-27.682l-9.7324 0.05273c-0.767 0-1.3906-0.6303-1.3906-1.4043s0.62362-1.4043 1.3906-1.4043l37.408 0.0098 0.01563-11.736zm57.58 29.002v17.266c0 4.947 4.0206 8.9453 8.9746 8.9453l39.828-0.01563 8e-3 -11.676h-34.299s-2.7608-0.01439-2.7988-2.7754h28.754v-11.744zm155.73 0.97853 4.1426 12.312h-8.3184z" fill="#fff"/>
</svg>
