<svg version="1.1" viewBox="0 0 1024 145.9" xmlns="http://www.w3.org/2000/svg">
 <path d="m98.496 0.018517c-36.475-0.37253-90.235 4.6148-92.705 38.859-2.4065 33.436 45.239 41.426 76.48 48.693 30.471 7.092 59.037 9.6568 59.037 20.207 0 7.416-10.069 13.206-36.699 11.209-32.055-2.3959-59.327-11.156-86.531-24.676l-18.078 29.686c30.174 11.793 69.745 21.266 105.4 21.855 42.387 0.70653 90.246-6.1312 91.33-42.436 0.88716-30.296-30.499-40.878-85.715-51.604-26.918-5.2326-49.793-8.4833-49.793-17.217 0-9.6684 18.498-12.161 44.709-9.3828 24.787 2.6243 48.161 9.1114 69.963 18.387l16.559-27.162c-17.621-6.7095-53.937-15.304-86.91-16.281-2.2577-0.065408-4.6113-0.11384-7.043-0.13867zm621.1 0.19141c-37.909 0-62.314 2.5764-83.074 6.125v135.3h46.605v-114.77c16.787-3.3255 33.834-3.3991 40.203-3.1016 18.503 0.8181 28.921 3.6976 37.24 9.5996 8.6006 6.1357 10.937 19.698-0.21875 29.111-8.3616 7.0176-25.313 12.531-63.227 6.7461l-5.3555 8.793 71.686 63.619h63.465l-63.764-55.141c15.321-1.9868 38.552-8.1117 49.654-22.625 11.103-14.545 9.601-35.854-11.723-48.057-19.868-11.406-57.794-15.602-81.492-15.602zm202.79 0c-37.925 0-62.616 2.5758-83.377 6.1191v135.3h46.615v-49.568c14.412 2.4065 32.47 3.8024 48.094 3.6855 38.142-0.32405 66.489-9.2843 79.393-23.33 18.386-19.985 12.211-44.12-8.9317-56.609-18.981-11.236-54.514-15.602-81.793-15.602zm-433.52 4.1758-83.611 137.24h35.641l17.102-28.082h96.393l16.59 28.082h56.91l-83.59-137.24zm-275.68 0.00391v137.24h46.621v-55.141h90.215v55.141h46.615v-137.24h-46.615v52.477h-90.215v-52.477zm706.29 19.275c2.7844-0.01909 5.0619 0.02735 6.6543 0.09375 18.604 0.78622 29.457 3.9372 37.521 9.6055 8.3935 5.8914 11.193 20.033-0.20703 29.377-8.0535 6.5979-19.821 8.9359-38.393 8.8828-13.695-0.04781-27.869-2.5666-39.418-5.1855v-39.572c12.582-2.4941 25.489-3.1439 33.842-3.2012zm-412.52 9.5293 31.469 53.293h-63.934z"/>
</svg>
