<svg clip-rule="evenodd" fill-rule="evenodd" stroke-linejoin="round" stroke-miterlimit="2" version="1.1" viewBox="0 0 970.5 229.18" xml:space="preserve" xmlns="http://www.w3.org/2000/svg">
    <path d="m566.99 0v142.09l-151.1-142.02h-86.084v229.11h85.037v-134.14c-0.30874 0 152.15 134.14 152.15 134.14h80.129v-229.18zm92.346 0v229.18h82.766v-111.17l129.64 111.17h98.766l-135.75-118.4 134.28-110.78h-99.645s-116.16 92.069-127.29 100.96v-100.96zm-597.56 0.15039c-8.9298 0-61.344 7.4576-61.344 72.404 0 63.933 46.849 72.824 61.344 72.824h167.41c10.204 0 11.487 18.785 0 18.785h-229.18v65.018h255.54c10.244 0 60.926-4.5607 60.926-73.41 0-70.544-62.16-73.947-62.16-73.947h-164.01c-12.366 0-11.906-18.199 0.42773-18.199h226.17v-63.475z" fill="#fff" stroke-width="7.9165"/>    
</svg>
