<?xml version="1.0" encoding="UTF-8" standalone="no"?>
<!DOCTYPE svg PUBLIC "-//W3C//DTD SVG 1.1//EN" "http://www.w3.org/Graphics/SVG/1.1/DTD/svg11.dtd">
<svg width="100%" height="100%" viewBox="0 0 499 88" version="1.1" xmlns="http://www.w3.org/2000/svg" xmlns:xlink="http://www.w3.org/1999/xlink" xml:space="preserve" xmlns:serif="http://www.serif.com/" style="fill-rule:evenodd;clip-rule:evenodd;stroke-linejoin:round;stroke-miterlimit:2;">
    <g transform="matrix(1,0,0,1,-0.999998,-1)">
        <path id="path4258" d="M177.993,88.676C160.115,88.592 143.543,83.189 132.452,73.234C124.007,65.654 119.949,55.358 119.949,44.761C119.949,34.293 124.182,23.926 132.451,16.386C142.832,6.925 161.16,1 178.416,1C197.512,1 212.796,5.81 224.48,16.412C232.793,23.956 236.812,34.277 236.812,44.762C236.812,54.925 232.547,65.748 224.48,73.234C213.685,83.253 196.768,88.593 178.84,88.676L178.416,88.677L177.993,88.676ZM46.561,1.042C63.586,1.065 77.474,6.625 82.386,9.202C84.343,10.278 85.378,8.976 85.378,7.974L85.378,4.87L96.354,4.87L96.354,31.576L86.524,31.576C85.463,26.637 82.529,23.096 80.439,21.392C78.587,19.88 76.255,18.602 74.262,17.712C68.402,15.092 59.19,12.605 48.312,12.645C39.111,12.645 30.284,14.347 25.914,17.085C23.161,18.808 21.768,20.94 21.768,23.455C21.768,26.991 24.814,28.442 26.308,28.905C31.236,30.43 43.575,31.452 50.688,32.195C57.471,32.905 71.655,34.805 77.928,36.345C81.16,37.136 85.11,38.551 87.613,39.729C90.486,41.078 93.243,42.828 95.5,45.086C97.157,46.743 101.867,52.19 101.867,60.966C101.867,70.109 96.455,75.146 93.987,77.111C89.43,80.745 83.82,83.079 79.28,84.379C74.461,85.755 67.49,87.869 54.514,87.869C46.561,87.869 42.436,86.91 36.039,85.572C28.237,83.943 20.775,80.972 18.233,79.817C16.19,78.894 15.6,80.835 15.6,81.307L15.6,85.452L3.43,85.452L3.43,54.772L14.379,54.772C14.379,58.413 16.111,62.09 17.209,63.427C21.624,68.82 26.357,70.944 30.869,72.55C34.783,73.95 45.521,76.636 54.453,76.636C66.551,76.636 73.281,73.548 74.255,73.163C75.23,72.769 80.84,70.953 80.84,65.003C80.84,59.029 75.515,57.93 72.345,57.123C68.355,56.113 58.559,55.115 48.605,54.065C38.577,53.017 28.507,51.435 23.797,50.405C13.258,48.1 9.227,44.175 6.723,41.87C6.883,42.02 0.996,36.595 1,27.332C1,17.047 8.037,10.843 16.634,7.007C25.949,2.847 36.912,1.042 46.561,1.042L46.56,1.042L46.562,1.042L46.561,1.042ZM287.096,5.895L340.638,54.215L340.088,21.682C340.034,17.416 339.248,15.635 334.634,15.635L324.567,15.635L324.567,5.903L370.347,5.903L370.347,15.635L360.527,15.635C355.821,15.635 355.524,17.14 355.467,21.682L356.297,83.845L340.619,83.845L278.949,28.805L278.962,67.867C279.016,72.113 279.215,74.113 283.59,74.113L294.585,74.113L294.585,83.841L249.625,83.841L249.625,74.114L260.135,74.114C264.061,74.114 263.905,70.371 263.905,67.646L263.905,22.052C263.905,19.109 263.492,15.642 257.328,15.642L248.8,15.642L248.8,5.895L287.096,5.895ZM422.66,74.095C423.09,74.095 425,74.04 425.37,73.927C426.427,73.597 427.144,72.843 427.476,72.057C427.616,71.727 427.686,70.267 427.686,69.95L427.694,54.57C427.694,54.2 427.667,54.04 427.039,53.216C426.349,52.316 398.994,21.316 397.742,19.951C396.187,18.256 393.457,15.636 389.309,15.636L379.796,15.636L379.796,5.9L433.483,5.9L433.483,15.624L427.011,15.624C425.514,15.624 424.519,17.044 425.798,18.622C425.798,18.622 443.861,40.229 444.032,40.455C444.2,40.685 444.344,40.74 444.574,40.53C444.8,40.315 463.09,18.82 463.234,18.65C464.104,17.608 463.514,15.635 461.639,15.635L455,15.635L455,5.9L499,5.9L499,15.635L489.17,15.635C485.604,15.635 484.153,16.295 481.47,19.328C480.243,20.716 452.596,52.273 451.844,53.128C451.45,53.575 451.484,54.198 451.484,54.568L451.484,69.946C451.484,70.258 451.554,71.72 451.694,72.048C452.027,72.838 452.748,73.592 453.804,73.918C454.174,74.032 456.058,74.088 456.487,74.088L466.542,74.088L466.542,83.822L413.132,83.822L413.132,74.087L422.66,74.095ZM178.864,77.111C188.267,77.009 196.97,73.711 203.076,67.635C209.236,61.505 212.106,53.97 212.106,44.761C212.106,35.939 209.01,27.691 203.076,21.841C196.956,15.813 187.862,12.421 178.416,12.421C168.941,12.421 159.841,15.778 153.716,21.841C147.814,27.689 144.71,35.961 144.71,44.761C144.71,53.534 147.85,61.801 153.716,67.636C159.846,73.734 168.914,77.114 178.416,77.114L178.416,77.113L178.864,77.111Z" fill="white"/>
    </g>
</svg>
