<svg clip-rule="evenodd" fill-rule="evenodd" stroke-linejoin="round" stroke-miterlimit="2" version="1.1" viewBox="0 0 498 87.678" xml:space="preserve" xmlns="http://www.w3.org/2000/svg">
    <path d="m177.42 0c-17.256 0-35.584 5.9257-45.965 15.387-8.269 7.54-12.502 17.907-12.502 28.375 0 10.597 4.057 20.893 12.502 28.473 11.091 9.955 27.663 15.357 45.541 15.441l0.42383 2e-3 0.42382-2e-3c17.928-0.083 34.846-5.4224 45.641-15.441 8.067-7.486 12.332-18.31 12.332-28.473 0-10.485-4.019-20.806-12.332-28.35-11.684-10.602-26.968-15.412-46.064-15.412zm-131.86 0.042969c-9.649 0-20.611 1.8048-29.926 5.9648-8.597 3.836-15.635 10.039-15.635 20.324-4e-3 9.263 5.8827 14.687 5.7227 14.537 2.504 2.305 6.5352 6.2302 17.074 8.5352 4.71 1.03 14.781 2.6122 24.809 3.6602 9.954 1.05 19.75 2.0486 23.74 3.0586 3.17 0.807 8.4941 1.9069 8.4941 7.8809 0 5.95-5.609 7.7642-6.584 8.1582-0.974 0.385-7.7047 3.4746-19.803 3.4746-8.932 0-19.67-2.6859-23.584-4.0859-4.512-1.606-9.2452-3.7301-13.66-9.123-1.098-1.337-2.8301-5.0153-2.8301-8.6562h-10.949v30.68h12.17v-4.1445c0-0.472 0.58982-2.4132 2.6328-1.4902 2.542 1.155 10.005 4.1269 17.807 5.7559 6.397 1.338 10.522 2.2969 18.475 2.2969 12.976 0 19.947-2.1142 24.766-3.4902 4.54-1.3 10.15-3.6336 14.707-7.2676 2.468-1.965 7.8809-7.0015 7.8809-16.145 0-8.776-4.7102-14.224-6.3672-15.881-2.257-2.258-5.0137-4.0084-7.8867-5.3574-2.503-1.178-6.4536-2.5918-9.6855-3.3828-6.273-1.54-20.457-3.4404-27.24-4.1504-7.113-0.743-19.451-1.766-24.379-3.291-1.494-0.463-4.541-1.9132-4.541-5.4492 0-2.515 1.3935-4.6461 4.1465-6.3691 4.37-2.738 13.197-4.4414 22.398-4.4414 10.878-0.04 20.089 2.4484 25.949 5.0684 1.993 0.89 4.3257 2.1677 6.1777 3.6797 2.09 1.704 5.023 5.2446 6.084 10.184h9.8301v-26.707h-10.975v3.1055c0 1.002-1.0352 2.3026-2.9922 1.2266-4.9118-2.5769-18.8-8.1348-35.824-8.1582zm202.24 4.8516v9.748h8.5273c6.164 0 6.5762 3.4672 6.5762 6.4102v45.594c0 2.725 0.15646 6.4668-3.7695 6.4668h-10.51v9.7285h44.961v-9.7285h-10.996c-4.375 0-4.573-2.0001-4.627-6.2461l-0.0137-39.062 61.67 55.041h15.678l-0.83005-62.164c0.057-4.542 0.35455-6.0469 5.0605-6.0469h9.8203v-9.7324h-45.781v9.7324h10.068c4.614 0 5.3991 1.7809 5.4531 6.0469l0.55078 32.533-53.543-48.32zm131 0.00586v9.7363h9.5117c4.148 0 6.8786 2.6195 8.4336 4.3145 1.252 1.365 28.607 32.366 29.297 33.266 0.628 0.824 0.6543 0.98352 0.6543 1.3535l-8e-3 15.379c0 0.317-0.069 1.7774-0.20899 2.1074-0.332 0.786-1.0504 1.5411-2.1074 1.8711-0.37 0.113-2.279 0.16797-2.709 0.16797l-9.5274-0.0078v9.7344h53.41v-9.7344h-10.057c-0.429 0-2.3116-0.05592-2.6816-0.16992-1.056-0.326-1.7783-1.0791-2.1113-1.8691-0.14-0.328-0.20898-1.7915-0.20898-2.1035v-15.377c-1e-5 -0.37-0.0346-0.99245 0.35937-1.4395 0.752-0.855 28.4-32.413 29.627-33.801 2.683-3.033 4.1332-3.6934 7.6992-3.6934h9.8303v-9.7344h-44v9.7344h6.6387c1.875 0 2.4657 1.9736 1.5957 3.0156-0.144 0.17-18.434 21.664-18.66 21.879-0.23 0.21-0.37497 0.15578-0.54297-0.07422-0.171-0.226-18.232-21.834-18.232-21.834-1.279-1.578-0.28411-2.998 1.2129-2.998h6.4707v-9.7227zm-201.38 6.5215c9.446 0 18.54 3.3919 24.66 9.4199 5.934 5.85 9.0293 14.098 9.0293 22.92 0 9.209-2.8693 16.743-9.0293 22.873-6.106 6.076-14.81 9.3746-24.213 9.4766l-0.44726 2e-3c-9.502 0-18.569-3.3786-24.699-9.4766-5.866-5.835-9.0059-14.102-9.0059-22.875 0-8.8 3.1039-17.072 9.0059-22.92 6.125-6.063 15.224-9.4199 24.699-9.4199z" fill="#fff"/>
</svg>
