<svg width="1e3" height="278.57" version="1.1" viewBox="0 0 43.665 12.163" xml:space="preserve" xmlns="http://www.w3.org/2000/svg"><path class="st0" d="m0-1.2389e-4v12.164h43.665v-12.164zm3.3269 2.4951h1.3515l1.4555 5.5101 1.4554-5.5101h1.3516l-2.1832 7.2774h-1.2475zm10.084 0h1.7674l2.0793 7.2774h-1.4555l-0.44705-1.7673h-2.2248l-0.44705 1.7673h-1.4555zm7.4854 0h1.3515v6.0299h3.1189v1.2475h-4.4704zm6.3417 0h1.3516l1.4555 5.5101 1.4554-5.5101h1.3516l-2.1832 7.2774h-1.2476zm8.7329 0h3.015v0.93572h-1.9753v1.0396h1.7674v0.93563h-1.7674v1.1436h1.9753v0.93563h-3.015zm-21.728 1.1436-0.82136 3.2228h1.6426z" fill="#fff" stroke-width=".10396"/></svg>
