<?xml version="1.0" encoding="UTF-8" standalone="no"?>
<!DOCTYPE svg PUBLIC "-//W3C//DTD SVG 1.1//EN" "http://www.w3.org/Graphics/SVG/1.1/DTD/svg11.dtd">
<svg width="100%" height="100%" viewBox="0 0 526 82" version="1.1" xmlns="http://www.w3.org/2000/svg" xmlns:xlink="http://www.w3.org/1999/xlink" xml:space="preserve" xmlns:serif="http://www.serif.com/" style="fill-rule:evenodd;clip-rule:evenodd;stroke-linejoin:round;stroke-miterlimit:2;">
    <path d="M510.712,55.254C515.448,58.299 519.968,61.653 524.241,65.295C523.265,68.635 521.551,71.627 519.12,74.277C514.999,78.769 508.305,81.015 499.038,81.015C494.193,81.015 489.064,80.379 483.652,79.105C478.241,77.832 473.572,76.099 469.646,73.906L475.057,62.393C482.91,66.567 491.027,68.653 499.41,68.653C503.619,68.653 506.59,67.787 508.323,66.054C510.056,64.32 510.923,61.721 510.923,58.255L510.712,55.254ZM438.184,1.273L453.941,1.273L453.941,54.169C453.941,64.568 450.864,71.819 444.71,75.922C439.546,79.317 431.941,81.015 421.896,81.015C407.182,81.015 397.544,77.514 392.981,70.51C390.399,66.549 389.108,61.314 389.108,54.806L389.108,46.948C394.187,44.571 399.449,42.524 404.865,40.828L404.865,55.496C404.865,60.412 406.271,63.834 409.083,65.762C411.895,67.69 416.184,68.653 421.949,68.653C427.714,68.653 431.862,67.698 434.39,65.788C436.919,63.878 438.184,60.447 438.184,55.496L438.184,1.273ZM349.326,76.064C347.968,77.543 346.645,79.053 345.358,80.595C342.933,80.879 340.326,81.015 337.538,81.015C322.187,81.015 312.072,77.195 307.19,69.555C304.432,65.311 303.052,59.811 303.052,53.055L303.052,28.544C303.052,17.543 306.465,9.85 313.292,5.465C318.916,1.857 327.069,0.035 337.75,0C352.641,0 362.474,4.067 367.249,12.203C369.937,16.765 371.281,22.478 371.281,29.339L371.281,52.206C371.281,53.989 371.188,55.689 370.962,57.302L370.951,57.397C370.04,65.426 366.777,71.405 361.201,75.338C357.266,78.108 351.986,79.865 345.358,80.595C346.645,79.054 347.968,77.543 349.326,76.064ZM57.618,1.326L74.49,1.326L56.298,52.965L46.901,79.636L27.801,79.636L18.186,52.55C23.402,53.419 28.721,53.953 34.127,54.108L37.564,64.621L40.876,54.165L57.618,1.326ZM242.039,79.636L242.039,67.858L256.31,67.858L256.31,13.051L242.039,13.051L242.039,1.326L286.181,1.326L286.181,13.051L272.015,13.051L272.015,67.858L286.181,67.858L286.181,79.636L242.039,79.636ZM165.002,79.636L165.002,1.326L198.799,1.326C208.914,1.326 215.803,3.378 219.464,7.481C223.124,11.584 224.955,17.146 224.955,24.167C224.955,31.187 223.938,36.298 221.904,39.499C219.87,42.7 217.05,45.008 213.442,46.423L228.563,79.636L212.222,79.636L198.48,48.705L180.76,48.705L180.76,79.636L165.002,79.636ZM104.201,1.326L125.105,1.326L129.771,15.325C126.285,18.963 122.583,22.392 118.695,25.599L115.024,13.051L109.052,32.773L102.556,54.222L127.068,54.222L118.695,25.599C122.594,22.404 126.299,18.981 129.771,15.325L151.208,79.636L134.496,79.636L130.092,64.727L99.426,64.727L94.863,79.636L78.416,79.636L90.449,43.09L104.201,1.326ZM318.863,54.806C318.863,59.935 320.437,63.525 323.585,65.576C326.732,67.628 331.428,68.653 337.671,68.653C343.914,68.653 348.441,67.636 351.253,65.603C354.065,63.569 355.471,59.97 355.471,54.806L355.471,26.421C355.471,21.328 354.038,17.711 351.173,15.572C348.308,13.432 343.807,12.362 337.671,12.362C331.534,12.362 326.865,13.423 323.664,15.545C320.463,17.667 318.863,21.293 318.863,26.421L318.863,54.806ZM486.73,43.505C484.586,42.877 482.664,42.106 480.97,41.181L480.934,41.162C479.39,40.343 478.034,39.396 476.861,38.332C474.385,36.086 472.705,33.628 471.821,30.958C470.937,28.287 470.495,25.166 470.495,21.593C470.495,14.413 473.05,9.019 478.161,5.411C483.272,1.804 489.789,0 497.712,0C508.182,0 516.918,2.034 523.921,6.101L519.465,17.19C512.638,13.971 505.847,12.362 499.091,12.362C490.603,12.362 486.234,14.961 485.987,20.161L485.987,20.957C485.987,23.609 486.65,25.679 487.976,27.164C489.303,28.65 492.017,30.011 496.12,31.249L509.437,35.229C514.813,36.856 518.801,39.42 521.401,42.922C524.001,46.423 525.301,51.402 525.301,57.857C525.301,60.503 524.954,62.985 524.241,65.295C519.972,61.653 515.457,58.291 510.712,55.254L510.71,55.23C510.392,52.047 506.855,49.447 500.099,47.431L486.73,43.505ZM34.127,54.108C28.718,53.921 23.395,53.394 18.186,52.55L0,1.326L16.872,1.326L34.127,54.108ZM404.865,40.828C399.445,42.512 394.18,44.552 389.108,46.948L389.108,1.273L404.865,1.273L404.865,40.828ZM180.76,37.457L200.125,37.457C203.839,37.457 206.394,36.405 207.791,34.3C209.189,32.196 209.887,29.003 209.887,24.724C209.887,16.588 206.845,12.521 200.762,12.521L180.76,12.521L180.76,37.457ZM447.478,35.257L447.117,35.243C447.297,35.25 447.478,35.257 447.659,35.265L447.478,35.257Z" fill="white"/>
</svg>
