<svg clip-rule="evenodd" fill-rule="evenodd" stroke-linejoin="round" stroke-miterlimit="2" version="1.1" viewBox="0 0 525.3 81.016" xml:space="preserve" xmlns="http://www.w3.org/2000/svg">
    <path d="m337.75 0c-10.681 0.035-18.833 1.8568-24.457 5.4648-6.827 4.385-10.24 12.079-10.24 23.08v24.51c0 6.756 1.3787 12.256 4.1367 16.5 4.882 7.64 14.997 11.461 30.348 11.461 2.788 0 5.3953-0.13592 7.8203-0.41992 6.628-0.73 11.909-2.4878 15.844-5.2578 5.576-3.933 8.839-9.9124 9.75-17.941l0.0117-0.09375c0.226-1.613 0.31836-3.3147 0.31836-5.0977v-22.865c0-6.861-1.3452-12.575-4.0332-17.137-4.775-8.136-14.607-12.203-29.498-12.203zm159.96 0c-7.923 0-14.442 1.8032-19.553 5.4102-5.111 3.608-7.666 9.0036-7.666 16.184 0 3.573 0.44217 6.6923 1.3262 9.3633 0.884 2.67 2.565 5.129 5.041 7.375 1.173 1.064 2.5283 2.0111 4.0723 2.8301l0.0371 0.01953c1.694 0.925 3.6158 1.6962 5.7598 2.3242l13.369 3.9258c6.756 2.016 10.293 4.6158 10.611 7.7988l2e-3 0.02344c4.745 3.037 9.2584 6.399 13.527 10.041 0.713-2.31 1.0606-4.7915 1.0606-7.4375 0-6.455-1.3004-11.435-3.9004-14.936-2.6-3.502-6.5869-6.0664-11.963-7.6934l-13.318-3.9805c-4.103-1.238-6.8156-2.598-8.1426-4.084-1.326-1.485-1.9902-3.555-1.9902-6.207v-0.79688c0.247-5.2 4.6175-7.7988 13.105-7.7988 6.756 0 13.546 1.6091 20.373 4.8281l4.457-11.088c-7.003-4.067-15.739-6.1016-26.209-6.1016zm26.527 65.295c-4.273-3.642-8.7913-6.996-13.527-10.041l0.21094 3.002c0 3.466-0.86857 6.0648-2.6016 7.7988-1.733 1.733-4.7031 2.5977-8.9121 2.5977-8.383 0-16.501-2.0858-24.354-6.2598l-5.4102 11.514c3.926 2.193 8.5949 3.9262 14.006 5.1992 5.412 1.274 10.54 1.9102 15.385 1.9102 9.267 0 15.961-2.2463 20.082-6.7383 2.431-2.65 4.1451-5.6424 5.1211-8.9824zm-135.13-64.021v45.674c5.072-2.396 10.338-4.4351 15.758-6.1191v-39.555zm15.758 39.555c-5.416 1.696-10.679 3.7421-15.758 6.1191v7.8594c0 6.508 1.291 11.742 3.873 15.703 4.563 7.004 14.202 10.506 28.916 10.506 10.045 0 17.65-1.6988 22.814-5.0938 6.154-4.103 9.2305-11.353 9.2305-21.752v-52.896h-15.758v54.223c0 4.951-1.264 8.381-3.793 10.291-2.528 1.91-6.6764 2.8652-12.441 2.8652-5.765 0-10.055-0.96263-12.867-2.8906s-4.2168-5.3496-4.2168-10.266zm-404.87-39.502 18.186 51.225c5.209 0.844 10.532 1.3696 15.941 1.5566l-17.256-52.781zm34.127 52.781c-5.406-0.155-10.725-0.68764-15.941-1.5566l9.6152 27.086h19.1l9.3984-26.672 18.191-51.639h-16.873l-16.74 52.838-3.3125 10.457zm70.074-52.781-13.752 41.764-12.033 36.547h16.447l4.5625-14.91h30.666l4.4043 14.91h16.711l-21.436-64.312c-3.472 3.656-7.1772 7.0804-11.076 10.275l8.373 28.623h-24.512l6.4961-21.449 5.9707-19.723 3.6719 12.549c3.888-3.207 7.5902-6.6374 11.076-10.275l-4.666-13.998zm60.801 0v78.311h15.758v-30.932h17.721l13.742 30.932h16.34l-15.121-33.213c3.608-1.415 6.4289-3.7248 8.4629-6.9258s3.0508-8.3101 3.0508-15.33c0-7.021-1.8302-12.585-5.4902-16.688-3.661-4.103-10.551-6.1543-20.666-6.1543zm77.037 0v11.725h14.271v54.807h-14.271v11.779h44.143v-11.779h-14.166v-54.807h14.166v-11.725zm95.633 11.035c6.136 0 10.637 1.0709 13.502 3.2109 2.865 2.139 4.2969 5.7566 4.2969 10.85v28.385c0 5.164-1.4048 8.7629-4.2168 10.797-2.812 2.033-7.339 3.0488-13.582 3.0488s-10.939-1.0242-14.086-3.0762c-3.148-2.051-4.7227-5.6405-4.7227-10.77v-28.385c0-5.128 1.5998-8.755 4.8008-10.877s7.8708-3.1836 14.008-3.1836zm-156.91 0.16016h20.002c6.083 0 9.125 4.0671 9.125 12.203 0 4.279-0.69771 7.4722-2.0957 9.5762-1.397 2.105-3.952 3.1562-7.666 3.1562h-19.365z" fill="#fff"/>
</svg>
