<svg version="1.1" viewBox="0 0 3839 773.3" xml:space="preserve" xmlns="http://www.w3.org/2000/svg">
<path d="m368.9 0c-17.9 0-33.601 2.3996-47.301 7.0996-13.7 4.7-25.6 11.201-35.9 19.301-10.2 8.2-18.8 17.3-25.6 27.6-6.8 10.2-12.4 20.9-16.6 31.9l-243.5 687.4h104.8l227-647.9c1.6-5.2 6.2992-10.001 14.199-14.201 7.9-4.2 15.5-6.2988 22.9-6.2988 8.4 0 16 2.0988 22.9 6.2988 6.8 4.2 11.298 8.9012 13.398 14.201l112.7 301.9 112.7-301.9c2.1-5.2 6.6004-10.001 13.4-14.201 6.8-4.2 14.4-6.2988 22.9-6.2988 7.4 0 15 2.0988 22.9 6.2988 7.9 4.2 12.599 8.9012 14.199 14.201l227 647.9h104.8l-243.6-687.4c-3.7-11-9.0992-21.7-16.199-31.9s-15.8-19.4-26-27.6c-10.2-8.1-22.301-14.601-36.301-19.301-13.9-4.7-29.498-7.0996-46.898-7.0996-17.9 0-33.4 2.3996-46.5 7.0996-13.1 4.7-24.601 11.201-34.301 19.301-9.7 8.2-18.099 17.3-25.199 27.6-7.1 10.2-13.501 20.9-19.301 31.9l-23.6 47.299-23.6-47.299c-5.3-11-11.4-21.7-18.5-31.9s-15.602-19.4-25.602-27.6c-10-8.1-21.599-14.601-34.699-19.301-13.2-4.7-28.7-7.0996-46.6-7.0996zm863.8 0c-37.8 0-70.399 4.1996-97.699 12.6-27.3 8.4-50.099 22.1-68.199 41s-31.501 43.501-40.201 73.701c-8.7 30.2-13 67.099-13 110.7v297.2c0 42 4.3 78.2 13 108.4s22.101 54.9 40.201 74.1 40.899 33.201 68.199 42.201c27.3 8.9 59.899 13.4 97.699 13.4h100.9c38.4 0 71.3-4.5004 98.9-13.4s50.299-23.001 68.199-42.201 31-43.9 39.4-74.1 12.6-66.3 12.6-108.4v-297.2c0-43.6-4.1996-80.499-12.6-110.7-8.4-30.2-21.6-54.801-39.4-73.701-17.9-18.9-40.599-32.6-68.199-41-27.6-8.4-60.6-12.6-98.9-12.6zm373.6 0v104.8h313.7c20 0 36.901 2.7988 50.801 8.2988 13.9 5.5 25.198 13.301 33.898 23.301s15 21.8 18.9 35.5 5.9004 28.4 5.9004 44.1v341.3c0 15.8-2.0004 30.5-5.9004 44.1-3.9 13.7-10.2 25.5-18.9 35.5s-19.8 17.699-33.5 23.299c-13.7 5.5-30.498 8.3008-50.398 8.3008h-215.2v-405.2h-99.299v510h303.5c38.4 0 71.298-4.5004 98.898-13.4s50.301-23.001 68.201-42.201 31-43.9 39.4-74.1 12.6-66.3 12.6-108.4v-297.2c0-43.6-4.1996-80.499-12.6-110.7-8.4-30.2-21.6-54.801-39.4-73.701-17.9-18.9-40.601-32.6-68.201-41-27.6-8.4-60.598-12.6-98.898-12.6zm791.4 0c-28.4 0-55.898 6.2-82.398 18.5-26.5 12.4-49.901 29.2-70.201 50.4-20.2 21.3-36.4 46.499-48.5 75.699s-18.1 60.3-18.1 93.4v297.2c0 33.1 5.9996 64.2 18.1 93.4s28.2 54.401 48.5 75.701c20.2 21.3 43.601 38.098 70.201 50.398 26.5 12.4 53.998 18.5 82.398 18.5h298.7v-104.8h-286.1c-20 0-37.802-3.9008-53.602-11.801s-28.999-18.099-39.799-30.699-19.101-26.9-24.801-43c-5.8-16-8.6992-31.901-8.6992-47.701v-297.2c0-15.8 2.8992-31.699 8.6992-47.699 5.8-16 14.101-30.3 24.801-43 10.8-12.6 23.999-22.901 39.799-30.701 15.8-7.9 33.602-11.799 53.602-11.799h286.1v-104.8zm352.3 0v535.2c0 33.1 5.9996 64.2 18.1 93.4s28.2 54.401 48.5 75.701c20.2 21.3 43.601 38.098 70.201 50.398 26.5 12.4 53.998 18.5 82.398 18.5h650.6c28.4 0 55.798-6.2 82.398-18.5 26.5-12.3 49.901-29.198 70.201-50.398 20.2-21.3 36.4-46.501 48.5-75.701s18.1-60.3 18.1-93.4v-297.1c-0.2-33.1-6.2008-64.3-18.301-93.4-12.1-29.2-28.2-54.399-48.5-75.699-20.2-21.3-43.599-38.1-70.199-50.4-26.5-12.3-54-18.5-82.4-18.5h-575v104.8h562.3c20 0 37.8 3.8988 53.6 11.799s29.001 18.101 39.801 30.701 19.099 26.9 24.799 43c5.8 16 8.7012 31.899 8.7012 47.699v297.2c0 15.8-2.9012 31.699-8.7012 47.699s-14.099 30.3-24.799 43c-10.8 12.6-24.001 22.899-39.801 30.699-15.8 7.9-33.6 11.801-53.6 11.801h-625.2c-20 0-37.8-3.9008-53.6-11.801s-28.999-18.099-39.799-30.699-19.101-26.9-24.801-43c-5.8-16-8.6992-31.899-8.6992-47.699v-535.3zm133.1 0v519.4c0 13.7 2.2012 27.699 6.7012 42.199 4.5 14.5 11.2 27.5 20.1 39 8.9 11.6 20.2 21 33.9 28.4s29.7 11 48.1 11h604.9c18.4 0 34.4-3.7 48.1-11 13.7-7.4 25-16.8 33.9-28.4s15.6-24.6 20.1-39c4.5-14.4 6.6992-28.499 6.6992-42.199v-119.8h-324.8v104.8h228.6v10.199c0 6.3-1.6996 11.3-5.0996 15s-6.7004 5.5-9.9004 5.5h-588.3v-0.79883c-3.2 0-6.4004-1.7016-9.9004-5.1016-3.4-3.4-5.0996-8.2996-5.0996-14.6v-514.6zm-1660.6 104.8h121.4c20 0 36.899 2.7988 50.799 8.2988 13.9 5.5 25.2 13.301 33.9 23.301s15 21.8 18.9 35.5 5.9004 28.4 5.9004 44.1v341.3c0 15.8-2.0004 30.5-5.9004 44.1-3.9 13.7-10.2 25.5-18.9 35.5s-19.8 17.699-33.5 23.299c-13.7 5.5-30.5 8.3008-50.4 8.3008h-123c-20 0-36.798-2.8008-50.398-8.3008-13.7-5.5-24.8-13.299-33.5-23.299s-15-21.8-18.9-35.5-5.9004-28.4-5.9004-44.1v-341.3c0-15.8 2.0004-30.5 5.9004-44.1 3.9-13.7 10.2-25.5 18.9-35.5s19.998-17.701 33.898-23.301c13.9-5.5 30.901-8.2988 50.801-8.2988zm-853.6 28.398c-3.7 0-7.6008 1.2-11.801 3.5-4.2 2.4-6.8004 5.1008-7.9004 8.3008l-216 628.2h104.8l130.9-397.2 149 397.3 149-397.3 134.8 397.3h100.9l-216-628.3c-1.1-3.1-3.7004-5.8992-7.9004-8.1992-4.2-2.4-8.1988-3.5-11.799-3.5-3.7 0-7.5004 1.2-11.4 3.5-3.9 2.4-6.4 5.0988-7.5 8.2988l-130.1 358.6-130.1-358.7c-1.1-3.2-3.5-5.9008-7.5-8.3008-3.9-2.4-7.8004-3.5-11.4-3.5zm863.8 0c-18.4 0-33.499 2.5-45.299 7.5-11.8 5-21.2 12-28 20.9s-11.601 19.4-14.201 31.5-3.8984 25-3.8984 38.6v309.8c0 18.4 1.2984 33.8 3.8984 46.1 2.6 12.4 7.2008 22.501 13.801 30.301 6.6 7.9 15.8 13.5 27.6 16.9s26.901 5.0996 45.301 5.0996h102.5c18.4 0 33.499-1.6996 45.299-5.0996s21.002-9.1004 27.602-16.9c6.6-7.9 11.199-18.001 13.799-30.301s3.9004-27.7 3.9004-46.1v-309.8c0-13.7-1.3004-26.5-3.9004-38.6-2.7-12.1-7.3992-22.6-14.199-31.5s-16.2-15.9-28-20.9c-11.8-5-26.901-7.5-45.301-7.5zm373.6 0v104.8h275.1c6.3 0 11.4 1.8996 15.4 5.5996 3.9 3.7 5.8984 8.7 5.8984 15v256.2c0 6.3-1.9984 11.3-5.8984 15s-9.1004 5.5-15.4 5.5h-17.301c-13.1 0-19.699-6.8-19.699-20.5v-251.5h-110.4v376.7h176.6c18.4 0 33.501-1.6996 45.301-5.0996s21-9.1004 27.6-16.9c6.6-7.9 11.201-18.001 13.801-30.301s3.8984-27.7 3.8984-46.1v-309.9c0-13.7-1.2984-26.5-3.8984-38.6s-7.4012-22.6-14.201-31.5-16.2-15.9-28-20.9c-11.8-5-26.899-7.5-45.299-7.5zm814.2 0c-18.4 0-34.4 3.7-48 11-13.7 7.4-25 16.8-33.9 28.4s-15.6 24.6-20.1 39c-4.5 14.5-6.6992 28.501-6.6992 42.201v119.8h324.8v-104h-228.7v-11c0-6.3 1.6996-11.3 5.0996-15s6.7004-5.5 9.9004-5.5h273.5v-104.9zm624.1 0v104.8h549.7c3.3 0.1 6.6 1.8996 10 5.5996s5.0996 8.7 5.0996 15v11h-228.6v104h324.7v-119.8c0-13.7-2.1992-27.701-6.6992-42.201-4.5-14.4-11.202-27.5-20.102-39-8.9-11.6-20.198-21-33.898-28.4s-29.702-11-48.102-11zm-1786.7 104.8h50.4c6.3 0 10.399 1.8 12.199 5.5s2.8008 8.7 2.8008 15v256.2c0 6.3-0.9008 11.3-2.8008 15-1.8 3.7-5.8992 5.5-12.199 5.5h-50.4c-6.3 0-10.401-1.8-12.201-5.5s-2.7988-8.7-2.7988-15v-256.2c0-6.3 0.8988-11.3 2.7988-15 1.8-3.7 5.9012-5.5 12.201-5.5zm1053.9 161.6v119.8c0 13.7 2.1992 27.699 6.6992 42.199 4.5 14.5 11.2 27.5 20.1 39 8.9 11.6 20.2 21 33.9 28.4s29.7 11 48.1 11h275.9v-104.8h-273.6c-3.1 0-6.4008-1.8-9.8008-5.5s-5.0996-8.7-5.0996-15v-10.199h228.6v-104.9z"/>
</svg>
