<svg enable-background="new 0 0 3839.7 773.4" version="1.1" viewBox="0 0 3839.7 773.4" xml:space="preserve" xmlns="http://www.w3.org/2000/svg" xmlns:xlink="http://www.w3.org/1999/xlink"><defs><linearGradient id="SVGID_00000024689217751627953460000010381501564660163207_" x1="3442.6" x2="3442.6" y1="773.41" y2=".012488" gradientUnits="userSpaceOnUse">
			<stop stop-color="#131313" offset="0"/>
			<stop stop-color="#F7F8F9" offset="1"/>
		</linearGradient><linearGradient id="SVGID_00000113317523818087597320000012246929623239168427_" x1="3442.6" x2="3442.6" y1=".010927" y2="773.4" gradientUnits="userSpaceOnUse">
				<stop stop-color="#23BFD4" offset="0"/>
				<stop stop-color="#3F4DA0" offset=".7031"/>
			</linearGradient><linearGradient id="SVGID_00000085971341970486366780000017638527976503490971_" x1="3442.6" x2="3442.6" y1=".010927" y2="773.4" gradientUnits="userSpaceOnUse">
					<stop stop-color="#0094BF" offset="0"/>
					<stop stop-color="#0090BD" stop-opacity=".5" offset=".028659"/>
					<stop stop-color="#282A71" offset="1"/>
				</linearGradient><clipPath id="clipPath1218"><use xlink:href="#SVGID_12_"/></clipPath><linearGradient id="SVGID_00000012452833426670316590000017065899814058772099_" x1="517.96" x2="517.96" y2="773.39" gradientUnits="userSpaceOnUse">
						<stop stop-color="#0094BF" offset="0"/>
						<stop stop-color="#0090BD" stop-opacity=".5" offset=".028659"/>
						<stop stop-color="#282A71" offset="1"/>
					</linearGradient><linearGradient id="SVGID_00000090985600618689829880000014332691021356331451_" x1="1283.5" x2="1283.5" y2="773.39" gradientUnits="userSpaceOnUse">
						<stop stop-color="#0094BF" offset="0"/>
						<stop stop-color="#0090BD" stop-opacity=".5" offset=".028659"/>
						<stop stop-color="#282A71" offset="1"/>
					</linearGradient><linearGradient id="SVGID_00000172402243940575952540000014696131410159253644_" x1="1868" x2="1868" y2="773.39" gradientUnits="userSpaceOnUse">
						<stop stop-color="#0094BF" offset="0"/>
						<stop stop-color="#0090BD" stop-opacity=".5" offset=".028659"/>
						<stop stop-color="#282A71" offset="1"/>
					</linearGradient><linearGradient id="SVGID_00000180325949480289810850000014827251475030809984_" x1="2438" x2="2438" y2="773.39" gradientUnits="userSpaceOnUse">
						<stop stop-color="#0094BF" offset="0"/>
						<stop stop-color="#0090BD" stop-opacity=".5" offset=".028659"/>
						<stop stop-color="#282A71" offset="1"/>
					</linearGradient><linearGradient id="SVGID_00000097492786259897756620000015597803725620189332_" x1="3009.6" x2="3009.6" y2="773.39" gradientUnits="userSpaceOnUse">
						<stop stop-color="#0094BF" offset="0"/>
						<stop stop-color="#0090BD" stop-opacity=".5" offset=".028659"/>
						<stop stop-color="#282A71" offset="1"/>
					</linearGradient><clipPath id="clipPath1319"><use xlink:href="#SVGID_12_"/></clipPath><clipPath id="clipPath1327"><use xlink:href="#SVGID_12_"/></clipPath><clipPath id="clipPath1335"><use xlink:href="#SVGID_12_"/></clipPath><clipPath id="clipPath1343"><use xlink:href="#SVGID_12_"/></clipPath><clipPath id="clipPath1351"><use xlink:href="#SVGID_12_"/></clipPath><linearGradient id="SVGID_00000109708455489807313630000009387900550541974678_" x1="3839.7" x2="1013.8" y1="386.7" y2="386.7" gradientUnits="userSpaceOnUse">
						<stop stop-color="#474748" stop-opacity=".5" offset="0"/>
						<stop stop-color="#545554" offset=".2168"/>
						<stop stop-color="#2E3084" offset=".5053"/>
						<stop stop-color="#2E3286" offset=".6386"/>
						<stop stop-color="#282A71" stop-opacity=".5" offset=".8566"/>
						<stop stop-color="#282A71" stop-opacity="0" offset="1"/>
					</linearGradient><clipPath id="clipPath1373"><use xlink:href="#SVGID_11_"/></clipPath><linearGradient id="SVGID_00000177482934634232737370000014377288558037410212_" x1="517.96" x2="517.96" y2="773.39" gradientUnits="userSpaceOnUse">
						<stop stop-color="#23BFD4" offset="0"/>
						<stop stop-color="#3F4DA0" offset=".7031"/>
					</linearGradient><linearGradient id="SVGID_00000080925295366834326050000004780624894372568755_" x1="6.8257e-5" x2="1035.9" y1="386.7" y2="386.7" gradientUnits="userSpaceOnUse">
						<stop stop-color="#fff" stop-opacity="0" offset="0"/>
						<stop stop-color="#fff" stop-opacity=".5" offset=".7031"/>
					</linearGradient><linearGradient id="SVGID_00000116194392582537426950000004719029045410467759_" x1="3009.6" x2="3009.6" y2="773.39" gradientUnits="userSpaceOnUse">
						<stop stop-color="#23BFD4" offset="0"/>
						<stop stop-color="#3F4DA0" offset=".7031"/>
					</linearGradient><linearGradient id="SVGID_00000121977519019829707680000017509467339805788562_" x1="2750.6" x2="3268.6" y1="386.7" y2="386.7" gradientUnits="userSpaceOnUse">
						<stop stop-color="#fff" stop-opacity="0" offset="0"/>
						<stop stop-color="#fff" stop-opacity=".5" offset=".7031"/>
					</linearGradient><linearGradient id="SVGID_00000069375569862889999520000013088519883609780923_" x1="2438" x2="2438" y2="773.39" gradientUnits="userSpaceOnUse">
						<stop stop-color="#23BFD4" offset="0"/>
						<stop stop-color="#3F4DA0" offset=".7031"/>
					</linearGradient><linearGradient id="SVGID_00000111190819773545172140000011932130909880691349_" x1="2179" x2="2697" y1="386.7" y2="386.7" gradientUnits="userSpaceOnUse">
						<stop stop-color="#fff" stop-opacity="0" offset="0"/>
						<stop stop-color="#fff" stop-opacity=".5" offset=".7031"/>
					</linearGradient><linearGradient id="SVGID_00000036945447056429329220000003076941193550422436_" x1="1283.5" x2="1283.5" y2="773.39" gradientUnits="userSpaceOnUse">
						<stop stop-color="#23BFD4" offset="0"/>
						<stop stop-color="#3F4DA0" offset=".7031"/>
					</linearGradient><linearGradient id="SVGID_00000021103312891389285490000010459739402010888373_" x1="1013.8" x2="1553.1" y1="386.7" y2="386.7" gradientUnits="userSpaceOnUse">
						<stop stop-color="#fff" stop-opacity="0" offset="0"/>
						<stop stop-color="#fff" stop-opacity=".5" offset=".7031"/>
					</linearGradient><linearGradient id="SVGID_00000030474801778423506800000009012188669872340926_" x1="1868" x2="1868" y2="773.39" gradientUnits="userSpaceOnUse">
						<stop stop-color="#23BFD4" offset="0"/>
						<stop stop-color="#3F4DA0" offset=".7031"/>
					</linearGradient><linearGradient id="SVGID_00000090997120297726398910000004088263083969620613_" x1="1606.7" x2="2129.4" y1="386.7" y2="386.7" gradientUnits="userSpaceOnUse">
						<stop stop-color="#fff" stop-opacity="0" offset="0"/>
						<stop stop-color="#fff" stop-opacity=".5" offset=".7031"/>
					</linearGradient></defs>
<style type="text/css">
	.st0{fill:#FFFFFF;}
	.st1{fill:#034693;}
	.st2{fill:url(#SVGID_00000115498242041559051440000006347759585720157367_);}
	.st3{fill:url(#SVGID_00000169530486573901551800000005731813924318892990_);}
	.st4{fill:url(#SVGID_00000147209266451264430400000005734140193646093494_);}
	.st5{fill:url(#SVGID_00000182512920915886600910000016208119023238407306_);}
	.st6{fill:url(#SVGID_00000049921691591686739250000004767034232714509210_);}
	.st7{fill:url(#SVGID_00000026162059003515540950000005007270465179245999_);}
	.st8{fill:url(#SVGID_00000042715113334641739180000008418588745644023977_);}
	.st9{fill:url(#SVGID_00000172398973888309478300000002296877317317854364_);}
	.st10{fill:url(#SVGID_00000173133056057580610890000012184419717685641867_);}
	.st11{fill:url(#SVGID_00000128467961625067077760000001475140759574397631_);}
	.st12{fill:url(#SVGID_00000001656582868310064040000001397021967703497351_);}
	.st13{clip-path:url(#SVGID_00000146492016185009344520000005353009172514300853_);}
	.st14{fill:url(#SVGID_00000033367500670796783970000006322532922319895215_);}
	.st15{fill:url(#SVGID_00000029019187390201383540000000032755837282472350_);}
	.st16{fill:url(#SVGID_00000176743737865991686680000013340532638470771079_);}
	.st17{fill:url(#SVGID_00000016754129524502313450000008452319837090722690_);}
	.st18{fill:url(#SVGID_00000059287873326171163970000015169263914377819814_);}
	.st19{fill:url(#SVGID_00000044898521527384040000000003606669762302850436_);}
	.st20{fill:url(#SVGID_00000123408920594009232030000007569604600948537495_);}
	.st21{fill:none;}
	.st22{clip-path:url(#SVGID_00000098185600244394870040000005085862853544654464_);}
	.st23{fill:url(#SVGID_00000127014426425469945100000003235041479221778334_);}
	.st24{fill:url(#SVGID_00000176752193440304335760000017102630790953985415_);}
	.st25{fill:url(#SVGID_00000044869242082738469420000009288747113782666112_);}
	.st26{fill:url(#SVGID_00000082326155954307503160000000645729683665216642_);}
	.st27{fill:url(#SVGID_00000166672628916476872220000002041666739908012987_);}
	.st28{fill:url(#SVGID_00000106136749868017094630000017731646832976999848_);}
	.st29{fill:url(#SVGID_00000164488171626761106990000017071791681107784079_);}
	.st30{fill:url(#SVGID_00000139287870387117382630000003043665118064501410_);}
	.st31{fill:url(#SVGID_00000169559516727183749530000000214534591165936056_);}
	.st32{fill:url(#SVGID_00000096772058118025820160000009514127525558955420_);}
	.st33{fill:url(#SVGID_00000028319792175822137850000001640536472894407306_);}
	.st34{fill:url(#SVGID_00000161627452604437066360000015056678437870707377_);}
	.st35{clip-path:url(#SVGID_00000150808308902574019290000014214502497827952285_);}
	.st36{fill:url(#SVGID_00000125584339237305078930000002410799214971355052_);}
	.st37{fill:url(#SVGID_00000103243133194479061620000014812321220520257188_);}
	.st38{fill:url(#SVGID_00000119087059513770133840000004746365335420010644_);}
	.st39{fill:url(#SVGID_00000168080209064068971430000004626539074560984986_);}
	.st40{fill:url(#SVGID_00000163788637394528760760000013696466877680101556_);}
	.st41{fill:url(#SVGID_00000104673374557192392560000014409209259172062638_);}
	.st42{fill:url(#SVGID_00000075158360859868055720000009101433197773725105_);}
	.st43{clip-path:url(#SVGID_00000061429564237013859570000017304415224196385925_);}
	.st44{fill:url(#SVGID_00000054257635387407852700000008160576583235516078_);}
	.st45{fill:url(#SVGID_00000182509025049423701320000013088219093085683365_);}
	.st46{fill:url(#SVGID_00000141439977952676469340000010825188434023141540_);}
	.st47{fill:url(#SVGID_00000096768808894176131690000015114029578798918561_);}
	.st48{fill:url(#SVGID_00000152984662188182433170000001807537909432044954_);}
	.st49{fill:url(#SVGID_00000082364843744842200140000011734534024567492542_);}
	.st50{fill:url(#SVGID_00000013175700007881289580000002928749550854600109_);}
	.st51{fill:url(#SVGID_00000139281674853915191490000012819443061925118362_);}
	.st52{fill:url(#SVGID_00000131362678954899020910000008100692403567797385_);}
	.st53{fill:url(#SVGID_00000127042476579715199890000002044263284816757170_);}
	.st54{fill:url(#SVGID_00000080167063644467789180000014330538396134935973_);}
	.st55{fill:url(#SVGID_00000149363019276961351840000015742387085843918467_);}
	.st56{clip-path:url(#SVGID_00000098943565723012950600000017961387842306222729_);}
	.st57{fill:url(#SVGID_00000160183546224783940430000005441498253524844161_);}
	.st58{fill:url(#SVGID_00000123442181708742941100000012215681845511902089_);}
	.st59{fill:url(#SVGID_00000020393602154779560510000015075906466715505044_);}
	.st60{fill:url(#SVGID_00000109011895950734636460000011676155692325459883_);}
	.st61{fill:url(#SVGID_00000010307313403747709420000015511804608805291681_);}
	.st62{fill:url(#SVGID_00000119109668317194667380000008954273558437517456_);}
	.st63{fill:url(#SVGID_00000107585210306242550570000013550530610125775281_);}
	.st64{clip-path:url(#SVGID_00000021115355003674929140000009171856718310911131_);}
	.st65{fill:url(#SVGID_00000173118620971712664550000012299728765213669782_);}
	.st66{fill:url(#SVGID_00000003816708674152314100000013171887394446925207_);}
	.st67{fill:url(#SVGID_00000077286069854094703630000004835217059433119648_);}
	.st68{fill:url(#SVGID_00000040565213035552118280000004054714051243639712_);}
	.st69{fill:url(#SVGID_00000117635481332072884420000003621501145151320981_);}
	.st70{fill:url(#SVGID_00000140007617323460043960000012675350194859463605_);}
	.st71{fill:url(#SVGID_00000064354903003805004830000010761867445852786053_);}
	.st72{fill:url(#SVGID_00000042696662897572014480000012508093487761515909_);}
	.st73{fill:url(#SVGID_00000013897291224304578430000006206880929878838917_);}
	.st74{fill:url(#SVGID_00000142134453221453825330000012703270873729575833_);}
	.st75{fill:url(#SVGID_00000049940521924898482250000008847152485004827583_);}
	.st76{fill:url(#SVGID_00000156570783245268883530000014280996627182918279_);}
	.st77{fill:url(#SVGID_00000141419979466698394370000016884579841051745436_);}
	.st78{fill:url(#SVGID_00000020359424292998243630000010992542426768898960_);}
	.st79{fill:url(#SVGID_00000158751252590829026090000015670594828470001852_);}
	.st80{fill:url(#SVGID_00000174561532700516974540000009122515423470903446_);}
	.st81{fill:url(#SVGID_00000128454105013569874390000013717177374718790301_);}
	.st82{fill:url(#SVGID_00000178897635574022589570000017201242022060917641_);}
	.st83{fill:url(#SVGID_00000067957832379481032680000010577739876941539464_);}
	.st84{fill:url(#SVGID_00000052076198931948067560000001530281841359932080_);}
	.st85{fill:url(#SVGID_00000040570314792113898130000001878979973420210568_);}
	.st86{fill:url(#SVGID_00000061440032821806151100000000510036393777282203_);}
	.st87{fill:url(#SVGID_00000139264951588377820150000013624618410264505757_);}
	.st88{fill:url(#SVGID_00000114056298248813825770000000063226461924020865_);}
	.st89{fill:url(#SVGID_00000147928013929240085120000012184993280238928004_);}
	.st90{fill:url(#SVGID_00000080198499862855146600000017004110308777898919_);}
	.st91{fill:url(#SVGID_00000156574041058095182390000015632832319456343727_);}
	.st92{clip-path:url(#SVGID_00000034077593590968309640000002556586831423844747_);}
	.st93{fill:url(#SVGID_00000073001682701847980710000017752003624829582727_);}
	.st94{fill:url(#SVGID_00000025422322549263318230000013460413066166586036_);}
	.st95{fill:url(#SVGID_00000048490402167464994810000004111380950773356681_);}
	.st96{fill:url(#SVGID_00000148623035480188778180000016436450131094511254_);}
	.st97{fill:url(#SVGID_00000022543335127938795800000008760297379569455799_);}
	.st98{fill:url(#SVGID_00000156560391427653246580000006619827612004552881_);}
	.st99{fill:url(#SVGID_00000121990932407060059490000007605619480825317033_);}
	.st100{clip-path:url(#SVGID_00000124145243328146226500000001735930711087864201_);}
	.st101{fill:url(#SVGID_00000090285681514337920480000009803765188834558903_);}
	.st102{fill:url(#SVGID_00000121998823192534780050000004915785141518369200_);}
	.st103{fill:url(#SVGID_00000158023561207879510550000007838678388665072273_);}
	.st104{fill:url(#SVGID_00000147904639976522962520000012288714135071233440_);}
	.st105{fill:url(#SVGID_00000122716348120058071720000008326321430050803101_);}
	.st106{fill:url(#SVGID_00000054266626619225325030000010906194284446492605_);}
	.st107{fill:url(#SVGID_00000152974005214304074790000016134273548428763566_);}
	.st108{fill:url(#SVGID_00000075153159809456509100000007731768499341903240_);}
	.st109{fill:url(#SVGID_00000000217043222494101100000000451584417112771712_);}
	.st110{fill:url(#SVGID_00000050637783643539154510000006904290144382017459_);}
	.st111{fill:url(#SVGID_00000010303956857415669050000015911524835873556361_);}
	.st112{fill:url(#SVGID_00000047055477071407556480000003009149572055646633_);}
	.st113{fill:url(#SVGID_00000145741485387045076090000016001753982902228132_);}
	.st114{fill:url(#SVGID_00000093139731569756615950000010828341870564434622_);}
	.st115{fill:url(#SVGID_00000181082584611994411940000018202818612823023794_);}
	.st116{clip-path:url(#SVGID_00000084510139103901565880000012927084690153079472_);}
	.st117{fill:url(#SVGID_00000023275834195857358270000006264531893874363306_);}
	.st118{fill:url(#SVGID_00000150086730964716433420000009922328404075546025_);}
	.st119{fill:url(#SVGID_00000012465718356270479640000008780131192403015560_);}
	.st120{fill:url(#SVGID_00000099649615722517173300000010184597083287496584_);}
	.st121{fill:url(#SVGID_00000180363105920030696590000001373165449233335977_);}
	.st122{fill:url(#SVGID_00000098193794707801821330000003199590209036042888_);}
	.st123{fill:url(#SVGID_00000166649190292584266090000007738800032577722269_);}
	.st124{clip-path:url(#SVGID_00000160158633185773822780000001490290604002079663_);}
	.st125{fill:url(#SVGID_00000130608999504371494670000009421703519856685981_);}
	.st126{fill:url(#SVGID_00000141441251218691551340000001365444684501541529_);}
	.st127{fill:url(#SVGID_00000023991963640693537230000015503913088016930439_);}
	.st128{fill:url(#SVGID_00000108268201251324227870000012702578068409566905_);}
	.st129{fill:url(#SVGID_00000114780546508989220520000008706461894215274423_);}
	.st130{fill:url(#SVGID_00000151524901451777262100000007525145327298638777_);}
	.st131{fill:url(#SVGID_00000046314242275773177120000013444435763161031583_);}
	.st132{clip-path:url(#SVGID_00000049923907071049457180000008326934132833318323_);}
	.st133{fill:url(#SVGID_00000001646059139391056640000008124515646782624658_);}
	.st134{fill:url(#SVGID_00000074414714401301088180000009954224121481955251_);}
	.st135{fill:url(#SVGID_00000019673253907207041860000000172426274728763290_);}
	.st136{fill:url(#SVGID_00000021091155005659573760000003767764610693996470_);}
	.st137{fill:url(#SVGID_00000088121379755790052150000000328426039179171494_);}
	.st138{fill:url(#SVGID_00000142873128159447713090000001145022383784733338_);}
	.st139{fill:url(#SVGID_00000085225027640232361160000012446486466055785399_);}
	.st140{clip-path:url(#SVGID_00000015343427620993863430000010784055973483223950_);}
	.st141{fill:url(#SVGID_00000096027993776472639590000006169429719427889576_);}
	.st142{fill:url(#SVGID_00000164502660124032948570000009607016764961795512_);}
	.st143{fill:url(#SVGID_00000090287969976432842720000002151017689557856390_);}
	.st144{fill:url(#SVGID_00000157284648857054645910000005458297816567841949_);}
	.st145{fill:url(#SVGID_00000101787604544889503420000012865559315086991550_);}
	.st146{fill:url(#SVGID_00000003820484967297827680000001411851872143071914_);}
	.st147{fill:url(#SVGID_00000079459828245906026960000008592638860464581254_);}
	.st148{clip-path:url(#SVGID_00000005947143399368755810000016487432161782729895_);}
	.st149{fill:url(#SVGID_00000075859074784382179500000012624987445985881228_);}
	.st150{fill:url(#SVGID_00000150804493079168064130000011205890098893905314_);}
	.st151{fill:url(#SVGID_00000175313309783201542990000003931784144424105345_);}
	.st152{fill:url(#SVGID_00000137115212775744611860000000642634934243513780_);}
	.st153{fill:url(#SVGID_00000135662224240520574780000009075628849931692694_);}
	.st154{fill:url(#SVGID_00000143584235734608975670000012489519889948453002_);}
	.st155{fill:url(#SVGID_00000160158198394859176210000014969457090095485883_);}
	.st156{clip-path:url(#SVGID_00000157271913745685637360000016679373558490078133_);}
	.st157{fill:url(#SVGID_00000042706500057657457980000005390776181856194495_);}
	.st158{fill:url(#SVGID_00000016036263419048477590000014324654475081430162_);}
	.st159{fill:url(#SVGID_00000018935871149567968950000002581540983163429802_);}
	.st160{fill:url(#SVGID_00000026158455351945002290000004675804237454907523_);}
	.st161{fill:url(#SVGID_00000131368076329844291770000003346336543928452518_);}
	.st162{fill:url(#SVGID_00000103947085358978290340000017130229001844945852_);}
	.st163{fill:url(#SVGID_00000140737436220234990100000010662962006825191572_);}
	.st164{fill:url(#SVGID_00000070808672428868531320000009211769262482906538_);}
	.st165{fill:url(#SVGID_00000109745616511631509420000012430656309249653384_);}
	.st166{fill:url(#SVGID_00000139254161154478397860000006104138723191766205_);}
	.st167{fill:url(#SVGID_00000097495567379886529090000008197471225128563349_);}
	.st168{fill:url(#SVGID_00000095324313013805294990000014968094371795284879_);}
	.st169{fill:url(#SVGID_00000031168766172062242530000009841138455141137334_);}
	.st170{fill:url(#SVGID_00000155107238090443110540000017657828765119307967_);}
	.st171{clip-path:url(#SVGID_00000063603198276932831160000010438531450339959208_);}
	.st172{fill:url(#SVGID_00000119796850409866559030000010851748685018407303_);}
	.st173{fill:url(#SVGID_00000114770711272716927020000009144094789624347043_);}
	.st174{fill:url(#SVGID_00000013152253325236942460000002723450342825966754_);}
	.st175{fill:url(#SVGID_00000077310843431062861270000004845952940190170007_);}
	.st176{fill:url(#SVGID_00000169535234530486172420000016778508517462598827_);}
	.st177{fill:url(#SVGID_00000090973889243114001750000001247184798953416877_);}
	.st178{fill:url(#SVGID_00000078733671474156404630000005072149513905871033_);}
	.st179{clip-path:url(#SVGID_00000155848582959258579580000016418834266814433420_);}
	.st180{fill:url(#SVGID_00000044895650220453985210000013712302893510882228_);}
	.st181{fill:url(#SVGID_00000150783627768833600880000003058206848928671404_);}
	.st182{fill:url(#SVGID_00000018214807713268136360000003670962573164680356_);}
	.st183{fill:url(#SVGID_00000060012069040788258150000012050801784478021566_);}
	.st184{fill:url(#SVGID_00000108295413369752243360000013043985137383187616_);}
	.st185{fill:url(#SVGID_00000012439664674859467100000013535881043028326031_);}
	.st186{fill:url(#SVGID_00000079482406420915819850000008569004205801192596_);}
	.st187{fill:url(#SVGID_00000096768303379642731080000011117044251470900646_);}
	.st188{fill:url(#SVGID_00000121263179362780534550000003303990889074461603_);}
	.st189{fill:url(#SVGID_00000039826844606547290830000008507723142429384088_);}
	.st190{fill:url(#SVGID_00000121994588135585187370000010127699916599770523_);}
	.st191{fill:url(#SVGID_00000147914527976700602940000014350863395904929438_);}
	.st192{clip-path:url(#SVGID_00000088121054466047395330000002572902019118493586_);}
	.st193{fill:url(#SVGID_00000176747740714361304220000003315664737118988434_);}
	.st194{fill:url(#SVGID_00000021106409266151760520000000451870391413613745_);}
	.st195{fill:url(#SVGID_00000096751756457367710650000011175269216184726932_);}
	.st196{fill:url(#SVGID_00000157269853688154983370000018233536639380944024_);}
	.st197{fill:url(#SVGID_00000009573041071255842110000017629692738611086764_);}
	.st198{fill:url(#SVGID_00000089565337021951690190000010709310972720452774_);}
	.st199{fill:url(#SVGID_00000177457146752483947400000010612303400435172012_);}
	.st200{clip-path:url(#SVGID_00000060718892769663081940000003925803726537631635_);}
	.st201{fill:url(#SVGID_00000085250778478385784760000016302420512284582302_);}
	.st202{fill:url(#SVGID_00000168092766857772961610000010015913832303267968_);}
	.st203{fill:url(#SVGID_00000096016816411138438840000003717805719959532711_);}
	.st204{fill:url(#SVGID_00000125565568982640494460000003650187281695857793_);}
	.st205{fill:url(#SVGID_00000103977688468275040950000002553488603022514325_);}
	.st206{fill:url(#SVGID_00000052816007612958424420000014642239364685402766_);}
	.st207{fill:url(#SVGID_00000050648880985757871850000003624220173440755902_);}
	.st208{fill:url(#SVGID_00000134944683553891147600000010872934953325751453_);}
	.st209{fill:url(#SVGID_00000045621021804509274170000002065195273744995998_);}
	.st210{fill:url(#SVGID_00000158730352797186045040000002929204125756649868_);}
</style>
<path d="m3839.7 535.3c0 33.1-6 64.3-18.1 93.4-12.1 29.2-28.2 54.4-48.5 75.7-20.2 21.3-43.6 38.1-70.2 50.5-26.5 12.4-54 18.5-82.4 18.5h-387.7v-104.8h375.1c20 0 37.8-3.9 53.6-11.8s29-18.1 39.8-30.7 19.1-26.9 24.8-43c5.8-16 8.7-31.9 8.7-47.7v-297.3c0-15.8-2.9-31.7-8.7-47.7s-14.1-30.4-24.8-43c-10.8-12.6-24-22.9-39.8-30.7-15.8-7.9-33.6-11.8-53.6-11.8h-562.4v-104.9h575.1c28.4 0 55.9 6.2 82.4 18.5 26.5 12.4 49.9 29.2 70.2 50.5 20.2 21.3 36.4 46.5 48.5 75.7s18.1 60.3 18.1 93.4v297.2zm-458.1-161.6v-104.1h228.6v-11c0-6.3-1.7-11.3-5.1-15s-6.7-5.5-9.9-5.5h-549.8v-104.9h552.2c18.4 0 34.4 3.7 48.1 11 13.7 7.4 25 16.8 33.9 28.4s15.6 24.6 20.1 39c4.5 14.5 6.7 28.5 6.7 42.2v119.8h-324.8zm324.8 145.8c0 13.7-2.2 27.7-6.7 42.2s-11.2 27.5-20.1 39c-8.9 11.6-20.2 21-33.9 28.4s-29.7 11-48.1 11h-364.8v-104.8h362.5c3.2 0 6.4-1.8 9.9-5.5 3.4-3.7 5.1-8.7 5.1-15v-10.2h-228.6v-104.9h324.8v119.8z" fill="url(#SVGID_00000113317523818087597320000012246929623239168427_)"/><path d="m518 427.3-112.8-301.9c-2.1-5.2-6.6-10-13.4-14.2s-14.5-6.3-22.9-6.3c-7.4 0-15 2.1-22.9 6.3s-12.6 8.9-14.2 14.2l-227 648h-104.8l243.6-687.5c4.2-11 9.7-21.7 16.6-31.9 6.8-10.2 15.4-19.4 25.6-27.6 10.2-8.1 22.2-14.6 35.9-19.3 13.6-4.7 29.4-7.1 47.3-7.1s33.4 2.4 46.5 7.1 24.7 11.2 34.7 19.3c10 8.2 18.5 17.3 25.6 27.6 7.1 10.2 13.3 20.9 18.5 31.9l23.7 47.3 23.7-47.3c5.8-11 12.2-21.7 19.3-31.9s15.5-19.4 25.2-27.6c9.7-8.1 21.2-14.6 34.3-19.3s28.6-7.1 46.5-7.1c17.3 0 33 2.4 46.9 7.1s26 11.2 36.3 19.3c10.2 8.2 18.9 17.3 26 27.6 7.1 10.2 12.5 20.9 16.2 31.9l243.6 687.5h-104.9l-227-648c-1.6-5.2-6.3-10-14.2-14.2s-15.5-6.3-22.9-6.3c-8.4 0-16 2.1-22.9 6.3-6.8 4.2-11.3 8.9-13.4 14.2zm0 346.1-149-397.3-130.9 397.3h-104.9l216-628.3c1-3.2 3.7-5.9 7.9-8.3s8.1-3.5 11.8-3.5 7.5 1.2 11.4 3.5c3.9 2.4 6.4 5.1 7.5 8.3l130.2 358.7 130-358.7c1-3.2 3.5-5.9 7.5-8.3 3.9-2.4 7.7-3.5 11.4-3.5s7.6 1.2 11.8 3.5c4.2 2.4 6.8 5.1 7.9 8.3l216 628.3h-100.8l-134.8-397.3z" fill="url(#SVGID_00000177482934634232737370000014377288558037410212_)"/><path d="m667 9.6c16.2 0 31 2.2 43.8 6.6s24 10.3 33.4 17.7c9.5 7.5 17.6 16.1 24.1 25.5s11.6 19.4 15 29.5v0.2l239.1 674.7h-84.5l-224.8-641.4c-2.4-7.7-8.7-14.3-18.8-19.7-9.3-4.9-18.5-7.4-27.4-7.4-10.2 0-19.6 2.6-27.9 7.7-8.6 5.3-14.4 11.6-17.3 18.8v0.2l-103.7 277.9-103.8-277.9v-0.2c-2.9-7.2-8.7-13.5-17.3-18.8-8.3-5.1-17.7-7.7-27.9-7.7-8.9 0-18.1 2.5-27.4 7.4-10.1 5.4-16.4 12-18.8 19.7l-224.7 641.4h-84.5l239-674.6c3.9-10.3 9.1-20.3 15.5-29.9 6.2-9.3 14.2-17.9 23.6-25.4 9.4-7.4 20.5-13.4 33-17.8 12.6-4.4 27.4-6.6 44.2-6.6 16.7 0 31.2 2.2 43.3 6.5 12 4.3 22.8 10.3 31.9 17.7 9.3 7.6 17.3 16.2 23.8 25.6 6.8 9.8 12.7 20.1 17.8 30.6v0.2l23.7 47.3 8.6 17.2 32.2-64.4c5.5-10.6 11.8-21 18.7-30.8 6.6-9.5 14.5-18.1 23.5-25.7 8.8-7.4 19.4-13.3 31.4-17.6 11.9-4.3 26.5-6.5 43.2-6.5m0 133.2c2 0 4.4 0.8 7.1 2.3 2.4 1.4 3.3 2.5 3.5 3l211.6 615.6h-80.6l-132.6-390.7-8.6-25.4-9.4 25.2-140 373.3-140-373.4-9.6-25.5-8.5 25.9-128.7 390.7h-84.5l211.6-615.6c0.1-0.4 1-1.6 3.5-2.9 2.7-1.5 5.1-2.3 7.1-2.3 1.9 0 4.1 0.7 6.5 2.2 1.8 1.1 3 2.2 3.3 3.1v0.2l130.2 358.5 9 24.9 9-24.9 130.1-358.7v-0.2c0.1-0.3 0.7-1.5 3.3-3.1 2.6-1.4 4.8-2.2 6.7-2.2m0-142.8c-17.9 0-33.4 2.4-46.5 7.1s-24.6 11.2-34.3 19.3c-9.7 8.2-18.1 17.3-25.2 27.6-7.1 10.2-13.5 20.9-19.3 31.9l-23.7 47.3-23.7-47.3c-5.3-11-11.4-21.7-18.5-31.9s-15.6-19.4-25.6-27.6c-10-8.1-21.6-14.6-34.7-19.3-13.2-4.7-28.7-7.1-46.5-7.1-17.9 0-33.6 2.4-47.3 7.1s-25.7 11.2-35.9 19.3c-10.3 8.2-18.8 17.4-25.6 27.6s-12.4 20.9-16.6 31.9l-243.6 687.5h104.9l227-648c1.6-5.2 6.3-10 14.2-14.2s15.5-6.3 22.9-6.3c8.4 0 16 2.1 22.9 6.3 6.8 4.2 11.3 8.9 13.4 14.2l112.7 301.9 112.7-301.9c2.1-5.2 6.6-10 13.4-14.2s14.4-6.3 22.9-6.3c7.4 0 15 2.1 22.9 6.3s12.6 8.9 14.2 14.2l227 648h104.9l-243.7-687.5c-3.7-11-9.1-21.7-16.2-31.9s-15.8-19.4-26-27.6c-10.2-8.1-22.3-14.6-36.3-19.3-13.9-4.7-29.5-7.1-46.8-7.1zm0 133.2c-3.7 0-7.5 1.2-11.4 3.5-3.9 2.4-6.4 5.1-7.5 8.3l-130.1 358.8-130.1-358.7c-1.1-3.2-3.5-5.9-7.5-8.3-3.9-2.4-7.8-3.5-11.4-3.5-3.7 0-7.6 1.2-11.8 3.5-4.2 2.4-6.8 5.1-7.9 8.3l-216 628.3h104.9l130.8-397.3 149 397.3 149-397.3 134.8 397.3h100.9l-216-628.3c-1.1-3.2-3.7-5.9-7.9-8.3s-8.2-3.6-11.8-3.6z" fill="url(#SVGID_00000080925295366834326050000004780624894372568755_)"/><path d="m1135.2 760c-27.3-8.9-50.1-23-68.2-42.2s-31.5-43.9-40.2-74.1-13-66.3-13-108.4v-297.2c0-43.6 4.3-80.5 13-110.8 8.7-30.2 22.1-54.8 40.2-73.7s40.9-32.6 68.2-41c27.4-8.4 60-12.6 97.8-12.6h100.9c38.4 0 71.3 4.2 98.9 12.6s50.3 22.1 68.2 41 31 43.5 39.4 73.7 12.6 67.1 12.6 110.8v297.2c0 42.1-4.2 78.2-12.6 108.4s-21.6 54.9-39.4 74.1c-17.9 19.2-40.6 33.2-68.2 42.2-27.6 8.9-60.6 13.4-98.9 13.4h-100.9c-37.8 0-70.4-4.5-97.8-13.4zm209.8-91.5c20 0 36.8-2.8 50.5-8.3s24.8-13.3 33.5-23.3 15-21.8 18.9-35.5 5.9-28.4 5.9-44.1v-341.3c0-15.8-2-30.5-5.9-44.1-3.9-13.7-10.2-25.5-18.9-35.5s-20-17.7-33.9-23.3c-13.9-5.5-30.9-8.3-50.8-8.3h-121.4c-20 0-36.9 2.8-50.8 8.3s-25.2 13.3-33.9 23.3-15 21.8-18.9 35.5-5.9 28.4-5.9 44.1v341.4c0 15.8 2 30.5 5.9 44.1 3.9 13.7 10.2 25.5 18.9 35.5s19.8 17.7 33.5 23.3c13.7 5.5 30.5 8.3 50.5 8.3h122.8zm-112.8-28.3c-18.4 0-33.5-1.7-45.3-5.1s-21-9.1-27.6-17-11.2-18-13.8-30.4c-2.6-12.3-3.9-27.7-3.9-46.1v-309.8c0-13.7 1.3-26.5 3.9-38.6s7.4-22.6 14.2-31.5 16.2-15.9 28-20.9 26.9-7.5 45.3-7.5h101c18.4 0 33.5 2.5 45.3 7.5s21.2 12 28 20.9 11.6 19.5 14.2 31.5c2.6 12.1 3.9 25 3.9 38.6v309.8c0 18.4-1.3 33.8-3.9 46.1-2.6 12.4-7.2 22.5-13.8 30.4s-15.8 13.5-27.6 17c-11.8 3.4-26.9 5.1-45.3 5.1zm76.5-104.9c6.3 0 10.4-1.8 12.2-5.5s2.8-8.7 2.8-15v-256.2c0-6.3-0.9-11.3-2.8-15-1.8-3.7-5.9-5.5-12.2-5.5h-50.5c-6.3 0-10.4 1.8-12.2 5.5s-2.8 8.7-2.8 15v256.2c0 6.3 0.9 11.3 2.8 15 1.8 3.7 5.9 5.5 12.2 5.5z" fill="url(#SVGID_00000036945447056429329220000003076941193550422436_)"/><path d="m1333.9 9.6c37.2 0 69.6 4.1 96.1 12.2 25.9 7.9 47.4 20.8 64 38.4 16.7 17.7 29.2 41.1 37.2 69.7 8.1 29.3 12.3 65.7 12.3 108.2v297.2c0 41-4.1 76.6-12.3 105.8-8 28.6-20.5 52.2-37.2 70.1s-38.2 31.2-64.1 39.6c-26.5 8.6-58.8 12.9-96 12.9h-100.9c-36.7 0-68.6-4.3-94.8-12.9-25.7-8.4-47.3-21.7-64.2-39.7-17-18-29.8-41.6-38-70.2-8.4-29.2-12.6-64.8-12.6-105.8v-297c0-42.5 4.3-78.9 12.6-108.1 8.2-28.6 21-52 37.9-69.7 16.9-17.6 38.5-30.6 64.1-38.5 26.3-8.1 58.2-12.2 94.9-12.2h101m-111.9 668.5h123c21.1 0 39.3-3 54-9 15-6.1 27.5-14.8 37.2-25.9 9.6-11 16.6-24.1 20.9-39.1 4.2-14.5 6.3-30.2 6.3-46.8v-341.3c0-16.6-2.1-32.3-6.3-46.8-4.3-14.9-11.3-28.1-20.9-39.1-9.7-11.1-22.3-19.8-37.6-25.9-15-5.9-33.3-9-54.4-9h-121.4c-21.1 0-39.4 3-54.4 9-15.3 6.1-27.9 14.8-37.6 25.9-9.6 11-16.6 24.2-20.9 39.1-4.2 14.5-6.3 30.2-6.3 46.8v341.4c0 16.6 2.1 32.3 6.3 46.8 4.3 15 11.3 28.1 20.9 39.1 9.6 11.1 22.1 19.8 37.2 25.9 14.7 5.9 32.9 8.9 54 8.9m111.9-535.3c17 0 31 2.3 41.6 6.7 10.2 4.3 18.3 10.3 24.1 17.9 5.9 7.8 10.1 17.1 12.4 27.7 2.5 11.4 3.7 23.7 3.7 36.6v309.8c0 17.6-1.3 32.5-3.7 44.1-2.3 10.8-6.3 19.6-11.8 26.2-5.4 6.4-12.9 11-22.9 13.9-10.9 3.1-25.2 4.7-42.7 4.7h-102.5c-17.4 0-31.8-1.6-42.7-4.7-9.9-2.9-17.6-7.5-22.9-13.9-5.5-6.6-9.5-15.4-11.8-26.2-2.5-11.6-3.7-26.4-3.7-44.1v-309.7c0-12.9 1.3-25.3 3.7-36.6 2.3-10.6 6.5-20 12.4-27.7 5.8-7.5 13.9-13.6 24.1-17.9 10.6-4.5 24.6-6.7 41.6-6.7h101.1m-75.7 402h50.5c12.7 0 18.3-5.9 20.8-10.8 2.5-5.1 3.8-11.4 3.8-19.3v-256.2c0-7.9-1.2-14.2-3.8-19.3-2.5-4.9-8.1-10.8-20.8-10.8h-50.5c-12.7 0-18.3 5.9-20.8 10.8-2.5 5.1-3.8 11.4-3.8 19.3v256.2c0 7.9 1.2 14.2 3.8 19.3 2.5 4.9 8.1 10.8 20.8 10.8m75.7-544.9h-100.9c-37.8 0-70.4 4.2-97.8 12.6-27.3 8.4-50.1 22.1-68.2 41s-31.5 43.5-40.2 73.7-13 67.1-13 110.8v297.2c0 42.1 4.3 78.2 13 108.4s22.1 54.9 40.2 74.1 40.9 33.2 68.2 42.2c27.3 8.9 59.9 13.4 97.8 13.4h100.9c38.4 0 71.3-4.5 98.9-13.4s50.3-23 68.2-42.2 31-43.9 39.4-74.1 12.6-66.3 12.6-108.4v-297.2c0-43.6-4.2-80.5-12.6-110.8-8.4-30.2-21.6-54.8-39.4-73.7-17.9-18.9-40.6-32.6-68.2-41-27.5-8.4-60.5-12.6-98.9-12.6zm-111.9 668.5c-20 0-36.8-2.8-50.5-8.3s-24.8-13.3-33.5-23.3-15-21.8-18.9-35.5-5.9-28.4-5.9-44.1v-341.3c0-15.8 2-30.5 5.9-44.1 3.9-13.7 10.2-25.5 18.9-35.5s20-17.7 33.9-23.3c13.9-5.5 30.9-8.3 50.8-8.3h121.4c20 0 36.9 2.8 50.8 8.3s25.2 13.3 33.9 23.3 15 21.8 18.9 35.5 5.9 28.4 5.9 44.1v341.4c0 15.8-2 30.5-5.9 44.1-3.9 13.7-10.2 25.5-18.9 35.5s-19.8 17.7-33.5 23.3c-13.7 5.5-30.5 8.3-50.5 8.3h-122.8zm111.9-535.3h-100.9c-18.4 0-33.5 2.5-45.3 7.5s-21.2 12-28 20.9-11.6 19.5-14.2 31.5c-2.6 12.1-3.9 25-3.9 38.6v309.8c0 18.4 1.3 33.8 3.9 46.1 2.6 12.4 7.2 22.5 13.8 30.4s15.8 13.5 27.6 17c11.8 3.4 26.9 5.1 45.3 5.1h102.5c18.4 0 33.5-1.7 45.3-5.1s21-9.1 27.6-17 11.2-18 13.8-30.4c2.6-12.3 3.9-27.7 3.9-46.1v-309.7c0-13.7-1.3-26.5-3.9-38.6s-7.4-22.6-14.2-31.5-16.2-15.9-28-20.9c-11.8-5.1-26.9-7.6-45.3-7.6zm-75.7 402.1c-6.3 0-10.4-1.8-12.2-5.5s-2.8-8.7-2.8-15v-256.2c0-6.3 0.9-11.3 2.8-15 1.8-3.7 5.9-5.5 12.2-5.5h50.5c6.3 0 10.4 1.8 12.2 5.5s2.8 8.7 2.8 15v256.2c0 6.3-0.9 11.3-2.8 15-1.8 3.7-5.9 5.5-12.2 5.5z" fill="url(#SVGID_00000021103312891389285490000010459739402010888373_)"/><path d="m1971.7 660.3c13.7-5.5 24.8-13.3 33.5-23.3s15-21.8 18.9-35.5 5.9-28.4 5.9-44.1v-341.4c0-15.8-2-30.5-5.9-44.1-3.9-13.7-10.2-25.5-18.9-35.5s-20-17.7-33.9-23.3c-13.9-5.5-30.9-8.3-50.9-8.3h-313.8v-104.8h303.5c38.4 0 71.3 4.2 98.9 12.6s50.3 22.1 68.2 41 31 43.5 39.4 73.7 12.6 67.1 12.6 110.8v297.2c0 42.1-4.2 78.2-12.6 108.4s-21.6 54.9-39.4 74.1c-17.9 19.2-40.6 33.2-68.2 42.2-27.6 8.9-60.6 13.4-98.9 13.4h-303.5v-510.1h99.3v405.2h215.2c20.1 0 36.9-2.7 50.6-8.2zm-365-422.2v-104.9h303.5c18.4 0 33.5 2.5 45.3 7.5s21.2 12 28 20.9 11.6 19.5 14.2 31.5c2.6 12.1 3.9 25 3.9 38.6v309.8c0 18.4-1.3 33.8-3.9 46.1-2.6 12.4-7.2 22.5-13.8 30.4s-15.8 13.5-27.6 17c-11.8 3.4-26.9 5.1-45.3 5.1h-176.6v-376.8h110.4v251.5c0 13.7 6.6 20.5 19.7 20.5h17.3c6.3 0 11.4-1.8 15.4-5.5 3.9-3.7 5.9-8.7 5.9-15v-256.2c0-6.3-2-11.3-5.9-15s-9.1-5.5-15.4-5.5z" fill="url(#SVGID_00000030474801778423506800000009012188669872340926_)"/><path d="m1910.2 9.6c37.2 0 69.6 4.1 96.1 12.2 25.9 7.9 47.4 20.8 64 38.4 16.7 17.7 29.2 41.1 37.2 69.7 8.1 29.3 12.3 65.7 12.3 108.2v297.2c0 41-4.1 76.6-12.3 105.8-8 28.6-20.5 52.2-37.2 70.1s-38.2 31.2-64.1 39.6c-26.5 8.6-58.8 12.9-96 12.9h-293.9v-490.8h80.2v405.2h224.8c21.1 0 39.3-3 54-9 15-6.1 27.5-14.8 37.1-25.9 9.6-11 16.6-24.1 20.9-39.1 4.2-14.5 6.3-30.2 6.3-46.8v-341.3c0-16.6-2.1-32.3-6.3-46.8-4.3-14.9-11.3-28.1-20.9-39.1-9.7-11.1-22.3-19.8-37.6-25.9-15-5.9-33.3-9-54.4-9h-304.2v-85.6h294m0 133.2c17 0 31 2.3 41.6 6.7 10.2 4.3 18.3 10.3 24.1 17.9 5.9 7.8 10.1 17.1 12.4 27.8 2.5 11.4 3.7 23.7 3.7 36.6v309.8c0 17.6-1.3 32.5-3.7 44.1-2.3 10.8-6.3 19.6-11.8 26.2-5.4 6.4-12.9 11-22.9 13.9-10.9 3.1-25.2 4.7-42.7 4.7h-167v-357.6h91.2v241.9c0 9.4 2.6 16.8 7.6 22 5.1 5.4 12.4 8.1 21.7 8.1h17.3c8.8 0 16.2-2.7 21.9-8.1 5.9-5.5 9-13.1 9-22v-256.2c0-8.9-3.1-16.5-9-22-5.8-5.4-13.1-8.1-21.9-8.1h-265.6v-85.7h294.1m0-142.8h-303.5v104.9h313.8c20 0 36.9 2.8 50.9 8.3 13.9 5.5 25.2 13.3 33.9 23.3s15 21.8 18.9 35.5 5.9 28.4 5.9 44.1v341.4c0 15.8-2 30.5-5.9 44.1-3.9 13.7-10.2 25.5-18.9 35.5s-19.8 17.7-33.5 23.3c-13.7 5.5-30.5 8.3-50.5 8.3h-215.3v-405.4h-99.3v510.1h303.5c38.4 0 71.3-4.5 98.9-13.4s50.3-23 68.2-42.2 31-43.9 39.4-74.1 12.6-66.3 12.6-108.4v-297.2c0-43.6-4.2-80.5-12.6-110.8-8.4-30.2-21.6-54.8-39.4-73.7-17.9-18.9-40.6-32.6-68.2-41-27.5-8.4-60.5-12.6-98.9-12.6zm0 133.2h-303.5v104.9h275.1c6.3 0 11.4 1.8 15.4 5.5 3.9 3.7 5.9 8.7 5.9 15v256.2c0 6.3-2 11.3-5.9 15s-9.1 5.5-15.4 5.5h-17.3c-13.1 0-19.7-6.8-19.7-20.5v-251.5h-110.4v376.8h176.6c18.4 0 33.5-1.7 45.3-5.1s21-9.1 27.6-17 11.2-18 13.8-30.4c2.6-12.3 3.9-27.7 3.9-46.1v-309.7c0-13.7-1.3-26.5-3.9-38.6s-7.4-22.6-14.2-31.5-16.2-15.9-28-20.9c-11.8-5.1-26.9-7.6-45.3-7.6z" fill="url(#SVGID_00000090997120297726398910000004088263083969620613_)"/><path d="m2179 238.1c0-33.1 6-64.3 18.1-93.4 12.1-29.2 28.2-54.4 48.5-75.7 20.2-21.3 43.6-38.1 70.2-50.5 26.5-12.3 54-18.5 82.4-18.5h298.8v104.9h-286.2c-20 0-37.8 3.9-53.6 11.8s-29 18.1-39.8 30.7-19.1 26.9-24.8 43c-5.8 16-8.7 31.9-8.7 47.7v297.2c0 15.8 2.9 31.7 8.7 47.7s14.1 30.4 24.8 43c10.8 12.6 24 22.9 39.8 30.7 15.8 7.9 33.6 11.8 53.6 11.8h286.2v104.9h-298.8c-28.4 0-55.9-6.2-82.4-18.5s-49.9-29.2-70.2-50.5c-20.2-21.3-36.4-46.5-48.5-75.7s-18.1-60.3-18.1-93.4zm133.3 135.6v-119.8c0-13.7 2.2-27.7 6.7-42.2 4.5-14.4 11.2-27.5 20.1-39 8.9-11.6 20.2-21 33.9-28.4s29.7-11 48.1-11h275.9v104.9h-273.6c-3.2 0-6.4 1.8-9.9 5.5-3.4 3.7-5.1 8.7-5.1 15v11h228.6v104.1h-324.7zm0 26h324.8v104.9h-228.6v10.2c0 6.3 1.7 11.3 5.1 15s6.7 5.5 9.9 5.5h273.5v104.9h-275.9c-18.4 0-34.4-3.7-48.1-11-13.7-7.4-25-16.8-33.9-28.4s-15.6-24.6-20.1-39-6.7-28.5-6.7-42.2z" fill="url(#SVGID_00000069375569862889999520000013088519883609780923_)"/><path d="m2687.4 9.6v85.7h-276.6c-21.4 0-40.9 4.3-57.9 12.8-16.9 8.4-31.3 19.6-42.8 33.1-11.5 13.4-20.4 28.9-26.6 45.9-6.1 17-9.2 34.1-9.2 51v297.2c0 16.8 3.1 34 9.2 50.9 6.1 17 15.1 32.5 26.6 45.9 11.6 13.5 26 24.7 42.8 33.1 17 8.5 36.5 12.8 57.9 12.8h276.6v85.7h-289.2c-26.9 0-53.2-5.9-78.3-17.6-25.3-11.8-47.9-28-67.3-48.4-19.3-20.3-35-44.8-46.6-72.7-11.5-27.8-17.4-58-17.4-89.7v-297.2c0-31.7 5.9-61.9 17.4-89.8 11.6-27.9 27.2-52.4 46.6-72.7 19.3-20.3 41.9-36.6 67.3-48.4 25.2-11.7 51.5-17.6 78.3-17.6h289.2m0 133.2v85.7h-264c-5.9 0-11.6 2.9-16.9 8.6-5.1 5.5-7.7 12.7-7.7 21.5v20.6h228.6v84.9h-305.6v-110.2c0-12.6 2.1-25.9 6.3-39.3 4.1-13.3 10.3-25.4 18.5-36 8.1-10.4 18.4-19.1 30.9-25.8 12.2-6.6 26.8-9.9 43.5-9.9h266.4m-59.9 266.4v85.7h-228.6v19.8c0 8.8 2.6 16 7.7 21.5 5.3 5.7 11 8.6 16.9 8.6h264v85.7h-266.3c-16.7 0-31.4-3.3-43.5-9.9-12.4-6.7-22.8-15.4-30.9-25.8-8.2-10.6-14.4-22.7-18.5-36-4.2-13.4-6.3-26.7-6.3-39.3v-110.3h305.5m69.5-409.3h-298.8c-28.4 0-55.9 6.2-82.4 18.5-26.5 12.4-49.9 29.2-70.2 50.5-20.2 21.3-36.4 46.5-48.5 75.7s-18.1 60.3-18.1 93.4v297.2c0 33.1 6 64.3 18.1 93.4 12.1 29.2 28.2 54.4 48.5 75.7 20.2 21.3 43.6 38.1 70.2 50.5 26.5 12.4 54 18.5 82.4 18.5h298.8v-104.9h-286.2c-20 0-37.8-3.9-53.6-11.8s-29-18.1-39.8-30.7-19.1-26.9-24.8-43c-5.8-16-8.7-31.9-8.7-47.7v-297.2c0-15.8 2.9-31.7 8.7-47.7s14.1-30.4 24.8-43c10.8-12.6 24-22.9 39.8-30.7 15.8-7.9 33.6-11.8 53.6-11.8h286.2zm0 133.2h-275.9c-18.4 0-34.4 3.7-48.1 11-13.7 7.4-25 16.8-33.9 28.4s-15.6 24.6-20.1 39c-4.5 14.5-6.7 28.5-6.7 42.2v119.8h324.8v-104h-228.6v-11c0-6.3 1.7-11.3 5.1-15s6.7-5.5 9.9-5.5h273.5zm-59.9 266.5h-324.8v119.8c0 13.7 2.2 27.7 6.7 42.2s11.2 27.5 20.1 39c8.9 11.6 20.2 21 33.9 28.4s29.7 11 48.1 11h275.9v-104.8h-273.6c-3.2 0-6.4-1.8-9.9-5.5-3.4-3.7-5.1-8.7-5.1-15v-10.2h228.6v-104.9z" fill="url(#SVGID_00000111190819773545172140000011932130909880691349_)"/><path d="m3268.6 773.4h-298.8c-28.4 0-55.9-6.2-82.4-18.5s-49.9-29.2-70.2-50.5c-20.2-21.3-36.4-46.5-48.5-75.7s-18.1-60.3-18.1-93.4v-535.3h104.9v535.3c0 15.8 2.9 31.7 8.7 47.7s14.1 30.4 24.8 43c10.8 12.6 24 22.9 39.8 30.7 15.8 7.9 33.6 11.8 53.6 11.8h286.2zm-261.8-238.1h261.7v104.9h-275.9c-18.4 0-34.4-3.7-48.1-11-13.7-7.4-25-16.8-33.9-28.4s-15.6-24.6-20.1-39-6.7-28.5-6.7-42.2v-519.6h108v514.8c0 6.3 1.7 11.2 5.1 14.6s6.7 5.1 9.9 5.1z" fill="url(#SVGID_00000116194392582537426950000004719029045410467759_)"/><path d="m2982.3 9.6v505.2c0 8.9 2.7 16.1 7.9 21.4 2.3 2.3 4.6 4.1 7.1 5.4v3.3h261.7v85.7h-266.3c-16.7 0-31.4-3.3-43.5-9.9-12.4-6.7-22.8-15.4-30.9-25.8-8.2-10.6-14.4-22.7-18.5-36-4.2-13.4-6.3-26.7-6.3-39.3v-510h88.8m-136.4 0v525.7c0 16.8 3.1 34 9.2 50.9 6.1 17 15.1 32.5 26.6 45.9 11.6 13.5 26 24.7 42.8 33.1 17 8.5 36.5 12.8 57.9 12.8h276.6v85.7h-289.2c-26.9 0-53.2-5.9-78.3-17.6-25.3-11.8-47.9-28-67.3-48.4-19.3-20.3-35-44.8-46.6-72.7-11.5-27.8-17.4-58-17.4-89.7v-525.7h85.7m145.9-9.6h-108v519.5c0 13.7 2.2 27.7 6.7 42.2s11.2 27.5 20.1 39c8.9 11.6 20.2 21 33.9 28.4s29.7 11 48.1 11h275.9v-104.8h-261.7v-0.8c-3.2 0-6.4-1.7-9.9-5.1-3.4-3.4-5.1-8.3-5.1-14.6zm-136.3 0h-104.9v535.3c0 33.1 6 64.3 18.1 93.4 12.1 29.2 28.2 54.4 48.5 75.7 20.2 21.3 43.6 38.1 70.2 50.5 26.5 12.4 54 18.5 82.4 18.5h298.8v-104.9h-286.2c-20 0-37.8-3.9-53.6-11.8s-29-18.1-39.8-30.7-19.1-26.9-24.8-43c-5.8-16-8.7-31.9-8.7-47.7z" fill="url(#SVGID_00000121977519019829707680000017509467339805788562_)"/><path d="m3839.7 535.3c0 33.1-6 64.3-18.1 93.4-12.1 29.2-28.2 54.4-48.5 75.7-20.2 21.3-43.6 38.1-70.2 50.5-26.5 12.4-54 18.5-82.4 18.5h-387.7v-104.8h375.1c20 0 37.8-3.9 53.6-11.8s29-18.1 39.8-30.7 19.1-26.9 24.8-43c5.8-16 8.7-31.9 8.7-47.7v-297.3c0-15.8-2.9-31.7-8.7-47.7s-14.1-30.4-24.8-43c-10.8-12.6-24-22.9-39.8-30.7-15.8-7.9-33.6-11.8-53.6-11.8h-562.4v-104.9h575.1c28.4 0 55.9 6.2 82.4 18.5 26.5 12.4 49.9 29.2 70.2 50.5 20.2 21.3 36.4 46.5 48.5 75.7s18.1 60.3 18.1 93.4v297.2zm-458.1-161.6v-104.1h228.6v-11c0-6.3-1.7-11.3-5.1-15s-6.7-5.5-9.9-5.5h-549.8v-104.9h552.2c18.4 0 34.4 3.7 48.1 11 13.7 7.4 25 16.8 33.9 28.4s15.6 24.6 20.1 39c4.5 14.5 6.7 28.5 6.7 42.2v119.8h-324.8zm324.8 145.8c0 13.7-2.2 27.7-6.7 42.2s-11.2 27.5-20.1 39c-8.9 11.6-20.2 21-33.9 28.4s-29.7 11-48.1 11h-364.8v-104.8h362.5c3.2 0 6.4-1.8 9.9-5.5 3.4-3.7 5.1-8.7 5.1-15v-10.2h-228.6v-104.9h324.8v119.8z" clip-path="url(#clipPath1218)" fill="url(#SVGID_00000085971341970486366780000017638527976503490971_)"/><path d="m518 427.3-112.8-301.9c-2.1-5.2-6.6-10-13.4-14.2s-14.5-6.3-22.9-6.3c-7.4 0-15 2.1-22.9 6.3s-12.6 8.9-14.2 14.2l-227 648h-104.8l243.6-687.5c4.2-11 9.7-21.7 16.6-31.9 6.8-10.2 15.4-19.4 25.6-27.6 10.2-8.1 22.2-14.6 35.9-19.3 13.6-4.7 29.4-7.1 47.3-7.1s33.4 2.4 46.5 7.1 24.7 11.2 34.7 19.3c10 8.2 18.5 17.3 25.6 27.6 7.1 10.2 13.3 20.9 18.5 31.9l23.7 47.3 23.7-47.3c5.8-11 12.2-21.7 19.3-31.9s15.5-19.4 25.2-27.6c9.7-8.1 21.2-14.6 34.3-19.3s28.6-7.1 46.5-7.1c17.3 0 33 2.4 46.9 7.1s26 11.2 36.3 19.3c10.2 8.2 18.9 17.3 26 27.6 7.1 10.2 12.5 20.9 16.2 31.9l243.6 687.5h-104.9l-227-648c-1.6-5.2-6.3-10-14.2-14.2s-15.5-6.3-22.9-6.3c-8.4 0-16 2.1-22.9 6.3-6.8 4.2-11.3 8.9-13.4 14.2zm0 346.1-149-397.3-130.9 397.3h-104.9l216-628.3c1-3.2 3.7-5.9 7.9-8.3s8.1-3.5 11.8-3.5 7.5 1.2 11.4 3.5c3.9 2.4 6.4 5.1 7.5 8.3l130.2 358.7 130-358.7c1-3.2 3.5-5.9 7.5-8.3 3.9-2.4 7.7-3.5 11.4-3.5s7.6 1.2 11.8 3.5c4.2 2.4 6.8 5.1 7.9 8.3l216 628.3h-100.8l-134.8-397.3z" clip-path="url(#clipPath1351)" fill="url(#SVGID_00000012452833426670316590000017065899814058772099_)"/><path d="m1135.2 760c-27.3-8.9-50.1-23-68.2-42.2s-31.5-43.9-40.2-74.1-13-66.3-13-108.4v-297.2c0-43.6 4.3-80.5 13-110.8 8.7-30.2 22.1-54.8 40.2-73.7s40.9-32.6 68.2-41c27.4-8.4 60-12.6 97.8-12.6h100.9c38.4 0 71.3 4.2 98.9 12.6s50.3 22.1 68.2 41 31 43.5 39.4 73.7 12.6 67.1 12.6 110.8v297.2c0 42.1-4.2 78.2-12.6 108.4s-21.6 54.9-39.4 74.1c-17.9 19.2-40.6 33.2-68.2 42.2-27.6 8.9-60.6 13.4-98.9 13.4h-100.9c-37.8 0-70.4-4.5-97.8-13.4zm209.8-91.5c20 0 36.8-2.8 50.5-8.3s24.8-13.3 33.5-23.3 15-21.8 18.9-35.5 5.9-28.4 5.9-44.1v-341.3c0-15.8-2-30.5-5.9-44.1-3.9-13.7-10.2-25.5-18.9-35.5s-20-17.7-33.9-23.3c-13.9-5.5-30.9-8.3-50.8-8.3h-121.4c-20 0-36.9 2.8-50.8 8.3s-25.2 13.3-33.9 23.3-15 21.8-18.9 35.5-5.9 28.4-5.9 44.1v341.4c0 15.8 2 30.5 5.9 44.1 3.9 13.7 10.2 25.5 18.9 35.5s19.8 17.7 33.5 23.3c13.7 5.5 30.5 8.3 50.5 8.3h122.8zm-112.8-28.3c-18.4 0-33.5-1.7-45.3-5.1s-21-9.1-27.6-17-11.2-18-13.8-30.4c-2.6-12.3-3.9-27.7-3.9-46.1v-309.8c0-13.7 1.3-26.5 3.9-38.6s7.4-22.6 14.2-31.5 16.2-15.9 28-20.9 26.9-7.5 45.3-7.5h101c18.4 0 33.5 2.5 45.3 7.5s21.2 12 28 20.9 11.6 19.5 14.2 31.5c2.6 12.1 3.9 25 3.9 38.6v309.8c0 18.4-1.3 33.8-3.9 46.1-2.6 12.4-7.2 22.5-13.8 30.4s-15.8 13.5-27.6 17c-11.8 3.4-26.9 5.1-45.3 5.1zm76.5-104.9c6.3 0 10.4-1.8 12.2-5.5s2.8-8.7 2.8-15v-256.2c0-6.3-0.9-11.3-2.8-15-1.8-3.7-5.9-5.5-12.2-5.5h-50.5c-6.3 0-10.4 1.8-12.2 5.5s-2.8 8.7-2.8 15v256.2c0 6.3 0.9 11.3 2.8 15 1.8 3.7 5.9 5.5 12.2 5.5z" clip-path="url(#clipPath1343)" fill="url(#SVGID_00000090985600618689829880000014332691021356331451_)"/><path d="m1971.7 660.3c13.7-5.5 24.8-13.3 33.5-23.3s15-21.8 18.9-35.5 5.9-28.4 5.9-44.1v-341.4c0-15.8-2-30.5-5.9-44.1-3.9-13.7-10.2-25.5-18.9-35.5s-20-17.7-33.9-23.3c-13.9-5.5-30.9-8.3-50.9-8.3h-313.8v-104.8h303.5c38.4 0 71.3 4.2 98.9 12.6s50.3 22.1 68.2 41 31 43.5 39.4 73.7 12.6 67.1 12.6 110.8v297.2c0 42.1-4.2 78.2-12.6 108.4s-21.6 54.9-39.4 74.1c-17.9 19.2-40.6 33.2-68.2 42.2-27.6 8.9-60.6 13.4-98.9 13.4h-303.5v-510.1h99.3v405.2h215.2c20.1 0 36.9-2.7 50.6-8.2zm-365-422.2v-104.9h303.5c18.4 0 33.5 2.5 45.3 7.5s21.2 12 28 20.9 11.6 19.5 14.2 31.5c2.6 12.1 3.9 25 3.9 38.6v309.8c0 18.4-1.3 33.8-3.9 46.1-2.6 12.4-7.2 22.5-13.8 30.4s-15.8 13.5-27.6 17c-11.8 3.4-26.9 5.1-45.3 5.1h-176.6v-376.8h110.4v251.5c0 13.7 6.6 20.5 19.7 20.5h17.3c6.3 0 11.4-1.8 15.4-5.5 3.9-3.7 5.9-8.7 5.9-15v-256.2c0-6.3-2-11.3-5.9-15s-9.1-5.5-15.4-5.5z" clip-path="url(#clipPath1335)" fill="url(#SVGID_00000172402243940575952540000014696131410159253644_)"/><path d="m2179 238.1c0-33.1 6-64.3 18.1-93.4 12.1-29.2 28.2-54.4 48.5-75.7 20.2-21.3 43.6-38.1 70.2-50.5 26.5-12.3 54-18.5 82.4-18.5h298.8v104.9h-286.2c-20 0-37.8 3.9-53.6 11.8s-29 18.1-39.8 30.7-19.1 26.9-24.8 43c-5.8 16-8.7 31.9-8.7 47.7v297.2c0 15.8 2.9 31.7 8.7 47.7s14.1 30.4 24.8 43c10.8 12.6 24 22.9 39.8 30.7 15.8 7.9 33.6 11.8 53.6 11.8h286.2v104.9h-298.8c-28.4 0-55.9-6.2-82.4-18.5s-49.9-29.2-70.2-50.5c-20.2-21.3-36.4-46.5-48.5-75.7s-18.1-60.3-18.1-93.4zm133.3 135.6v-119.8c0-13.7 2.2-27.7 6.7-42.2 4.5-14.4 11.2-27.5 20.1-39 8.9-11.6 20.2-21 33.9-28.4s29.7-11 48.1-11h275.9v104.9h-273.6c-3.2 0-6.4 1.8-9.9 5.5-3.4 3.7-5.1 8.7-5.1 15v11h228.6v104.1h-324.7zm0 26h324.8v104.9h-228.6v10.2c0 6.3 1.7 11.3 5.1 15s6.7 5.5 9.9 5.5h273.5v104.9h-275.9c-18.4 0-34.4-3.7-48.1-11-13.7-7.4-25-16.8-33.9-28.4s-15.6-24.6-20.1-39-6.7-28.5-6.7-42.2z" clip-path="url(#clipPath1327)" fill="url(#SVGID_00000180325949480289810850000014827251475030809984_)"/><path d="m3268.6 773.4h-298.8c-28.4 0-55.9-6.2-82.4-18.5s-49.9-29.2-70.2-50.5c-20.2-21.3-36.4-46.5-48.5-75.7s-18.1-60.3-18.1-93.4v-535.3h104.9v535.3c0 15.8 2.9 31.7 8.7 47.7s14.1 30.4 24.8 43c10.8 12.6 24 22.9 39.8 30.7 15.8 7.9 33.6 11.8 53.6 11.8h286.2zm-261.8-238.1h261.7v104.9h-275.9c-18.4 0-34.4-3.7-48.1-11-13.7-7.4-25-16.8-33.9-28.4s-15.6-24.6-20.1-39-6.7-28.5-6.7-42.2v-519.6h108v514.8c0 6.3 1.7 11.2 5.1 14.6s6.7 5.1 9.9 5.1z" clip-path="url(#clipPath1319)" fill="url(#SVGID_00000097492786259897756620000015597803725620189332_)"/>
				
			<path d="m3839.7 535.3c0 33.1-6 64.3-18.1 93.4-12.1 29.2-28.2 54.4-48.5 75.7-20.2 21.3-43.6 38.1-70.2 50.5-26.5 12.4-54 18.5-82.4 18.5h-387.7v-104.8h375.1c20 0 37.8-3.9 53.6-11.8s29-18.1 39.8-30.7 19.1-26.9 24.8-43c5.8-16 8.7-31.9 8.7-47.7v-297.3c0-15.8-2.9-31.7-8.7-47.7s-14.1-30.4-24.8-43c-10.8-12.6-24-22.9-39.8-30.7-15.8-7.9-33.6-11.8-53.6-11.8h-562.4v-104.9h575.1c28.4 0 55.9 6.2 82.4 18.5 26.5 12.4 49.9 29.2 70.2 50.5 20.2 21.3 36.4 46.5 48.5 75.7s18.1 60.3 18.1 93.4v297.2zm-458.1-161.6v-104.1h228.6v-11c0-6.3-1.7-11.3-5.1-15s-6.7-5.5-9.9-5.5h-549.8v-104.9h552.2c18.4 0 34.4 3.7 48.1 11 13.7 7.4 25 16.8 33.9 28.4s15.6 24.6 20.1 39c4.5 14.5 6.7 28.5 6.7 42.2v119.8h-324.8zm324.8 145.9c0 13.7-2.2 27.7-6.7 42.2s-11.2 27.5-20.1 39c-8.9 11.6-20.2 21-33.9 28.4s-29.7 11-48.1 11h-364.8v-104.9h362.5c3.2 0 6.4-1.8 9.9-5.5 3.4-3.7 5.1-8.7 5.1-15v-10.2h-228.6v-104.9h324.8v119.9z" fill="url(#SVGID_00000024689217751627953460000010381501564660163207_)"/><path class="st21" d="m3801.2 725.4c-747-379.9-1434.4-249.9-2840.5 114.4l2877.4 34z"/><path d="m3821.5 144.7c-12.1-29.2-28.2-54.4-48.5-75.7-20.2-21.3-43.6-38.1-70.2-50.5-26.5-12.3-54-18.5-82.4-18.5h-575.1v104.9h562.4c20 0 37.8 3.9 53.6 11.8s29 18.1 39.8 30.7 19.1 26.9 24.8 43c5.8 16 8.7 31.9 8.7 47.7v297.2c0 15.8-2.9 31.7-8.7 47.7s-14.1 30.4-24.8 43c-10.8 12.6-24 22.9-39.8 30.7-15.8 7.9-33.6 11.8-53.6 11.8h-625.5c-20 0-37.8-3.9-53.6-11.8s-29-18.1-39.8-30.7-19.1-26.9-24.8-43c-5.8-16-8.7-31.9-8.7-47.7v-535.3h-104.9v535.3c0 33.1 6 64.3 18.1 93.4 12.1 29.2 28.2 54.4 48.5 75.7 20.2 21.3 43.6 38.1 70.2 50.5 26.5 12.4 54 18.5 82.4 18.5h650.7c28.4 0 55.9-6.2 82.4-18.5s49.9-29.2 70.2-50.5c20.2-21.3 36.4-46.5 48.5-75.7s18.1-60.3 18.1-93.4v-297.2c0.2-33.1-5.9-64.3-18-93.4zm-216.4 98.9c3.4 3.7 5.1 8.7 5.1 15v11h-228.6v104.1h324.8v-119.8c0-13.7-2.2-27.7-6.7-42.2-4.5-14.4-11.2-27.5-20.1-39-8.9-11.6-20.2-21-33.9-28.4s-29.7-11-48.1-11h-552.2v104.9h549.8c3.2-0.1 6.5 1.7 9.9 5.4zm-2104-190c-17.9-18.9-40.6-32.6-68.2-41s-60.6-12.6-99-12.6h-100.9c-37.8 0-70.4 4.2-97.8 12.6-27.3 8.4-50.1 22.1-68.2 41s-31.5 43.5-40.2 73.7-13 67.1-13 110.8v297.2c0 42.1 4.3 78.2 13 108.4s22.1 54.9 40.2 74.1 40.9 33.2 68.2 42.2c27.3 8.9 59.9 13.4 97.8 13.4h100.9c38.4 0 71.3-4.5 98.9-13.4s50.3-23 68.2-42.2 31-43.9 39.4-74.1 12.6-66.3 12.6-108.4v-297.2c0-43.6-4.2-80.5-12.6-110.8-8.3-30.2-21.5-54.8-39.3-73.7zm-47.3 503.8c0 15.8-2 30.5-5.9 44.1-3.9 13.7-10.2 25.5-18.9 35.5s-19.8 17.7-33.5 23.3c-13.7 5.5-30.5 8.3-50.5 8.3h-123c-20 0-36.8-2.8-50.5-8.3s-24.8-13.3-33.5-23.3-15-21.8-18.9-35.5-5.9-28.4-5.9-44.1v-341.4c0-15.8 2-30.5 5.9-44.1 3.9-13.7 10.2-25.5 18.9-35.5s20-17.7 33.9-23.3c13.9-5.5 30.9-8.3 50.8-8.3h121.4c20 0 36.9 2.8 50.8 8.3s25.2 13.3 33.9 23.3 15 21.8 18.9 35.5 5.9 28.4 5.9 44.1v341.4zm-46.6-395.8c-6.8-8.9-16.2-15.9-28-20.9s-26.9-7.5-45.3-7.5h-100.9c-18.4 0-33.5 2.5-45.3 7.5s-21.2 12-28 20.9-11.6 19.5-14.2 31.5c-2.6 12.1-3.9 25-3.9 38.6v309.8c0 18.4 1.3 33.8 3.9 46.1 2.6 12.4 7.2 22.5 13.8 30.4s15.8 13.5 27.6 17c11.8 3.4 26.9 5.1 45.3 5.1h102.5c18.4 0 33.5-1.7 45.3-5.1s21-9.1 27.6-17 11.2-18 13.8-30.4c2.6-12.3 3.9-27.7 3.9-46.1v-309.7c0-13.7-1.3-26.5-3.9-38.6s-7.3-22.6-14.2-31.6zm-83.5 353.2c0 6.3-0.9 11.3-2.8 15-1.8 3.7-5.9 5.5-12.2 5.5h-50.5c-6.3 0-10.4-1.8-12.2-5.5s-2.8-8.7-2.8-15v-256.2c0-6.3 0.9-11.3 2.8-15 1.8-3.7 5.9-5.5 12.2-5.5h50.5c6.3 0 10.4 1.8 12.2 5.5s2.8 8.7 2.8 15zm753.6-461.2c-17.9-18.9-40.6-32.6-68.2-41-27.5-8.4-60.5-12.6-98.9-12.6h-303.5v104.9h313.8c20 0 36.9 2.8 50.9 8.3 13.9 5.5 25.2 13.3 33.9 23.3s15 21.8 18.9 35.5 5.9 28.4 5.9 44.1v341.4c0 15.8-2 30.5-5.9 44.1-3.9 13.7-10.2 25.5-18.9 35.5s-19.8 17.7-33.5 23.3c-13.7 5.5-30.5 8.3-50.5 8.3h-215.3v-405.4h-99.3v510.1h303.5c38.4 0 71.3-4.5 98.9-13.4s50.3-23 68.2-42.2 31-43.9 39.4-74.1 12.6-66.3 12.6-108.4v-297.2c0-43.6-4.2-80.5-12.6-110.8-8.4-30.2-21.5-54.8-39.4-73.7zm-180.1 190c3.9 3.7 5.9 8.7 5.9 15v256.2c0 6.3-2 11.3-5.9 15s-9.1 5.5-15.4 5.5h-17.3c-13.1 0-19.7-6.8-19.7-20.5v-251.5h-110.4v376.8h176.6c18.4 0 33.5-1.7 45.3-5.1s21-9.1 27.6-17 11.2-18 13.8-30.4c2.6-12.3 3.9-27.7 3.9-46.1v-309.7c0-13.7-1.3-26.5-3.9-38.6s-7.4-22.6-14.2-31.5-16.2-15.9-28-20.9-26.9-7.5-45.3-7.5h-303.5v104.9h275.1c6.3-0.1 11.5 1.7 15.4 5.4zm418.6-225.1c-26.5 12.4-49.9 29.2-70.2 50.5-20.2 21.3-36.4 46.5-48.5 75.7s-18.1 60.3-18.1 93.4v297.2c0 33.1 6 64.3 18.1 93.4 12.1 29.2 28.2 54.4 48.5 75.7 20.2 21.3 43.6 38.1 70.2 50.5 26.5 12.4 54 18.5 82.4 18.5h298.8v-104.9h-286.2c-20 0-37.8-3.9-53.6-11.8s-29-18.1-39.8-30.7-19.1-26.9-24.8-43c-5.8-16-8.7-31.9-8.7-47.7v-297.2c0-15.8 2.9-31.7 8.7-47.7s14.1-30.4 24.8-43c10.8-12.6 24-22.9 39.8-30.7 15.8-7.9 33.6-11.8 53.6-11.8h286.2v-104.9h-298.8c-28.4 0-55.8 6.2-82.4 18.5zm57.2 125.8c-13.7 7.4-25 16.8-33.9 28.4s-15.6 24.6-20.1 39c-4.5 14.5-6.7 28.5-6.7 42.2v119.8h324.8v-104.1h-228.6v-11c0-6.3 1.7-11.3 5.1-15s6.7-5.5 9.9-5.5h273.5v-104.9h-275.9c-18.4 0-34.5 3.7-48.1 11.1zm40.6 385.5c-3.4-3.7-5.1-8.7-5.1-15v-10.2h228.6v-104.9h-324.8v119.8c0 13.7 2.2 27.7 6.7 42.2s11.2 27.5 20.1 39c8.9 11.6 20.2 21 33.9 28.4s29.7 11 48.1 11h275.9v-104.8h-273.6c-3.1 0-6.4-1.8-9.8-5.5zm497 70.9c8.9 11.6 20.2 21 33.9 28.4s29.7 11 48.1 11h605c18.4 0 34.4-3.7 48.1-11 13.7-7.4 25-16.8 33.9-28.4s15.6-24.6 20.1-39 6.7-28.5 6.7-42.2v-119.8h-324.8v104.9h228.6v10.2c0 6.3-1.7 11.3-5.1 15s-6.7 5.5-9.9 5.5h-588.4v-0.8c-3.2 0-6.4-1.7-9.9-5.1-3.4-3.4-5.1-8.3-5.1-14.6v-514.8h-108v519.5c0 13.7 2.2 27.7 6.7 42.2s11.2 27.5 20.1 39z" clip-path="url(#clipPath1373)" fill="url(#SVGID_00000109708455489807313630000009387900550541974678_)"/>
				
			
</svg>
