<svg width="64" height="40" xmlns="http://www.w3.org/2000/svg"><path d="M 7.8250266,0 C 3.1430903,0 0.05940139,3.0856419 0.05940159,7.7675781 c 0,0 -2.90406139,32.5351559 31.89843741,32.5351559 34.796099,0 31.986328,-32.5351559 31.986328,-32.5351559 C 63.944167,3.0856419 60.859232,0 56.180496,0 Z m 9.1992194,6.8769531 h 11.982421 c 1.094479,0 2.083699,0.1732004 2.976563,0.515625 0.886464,0.3424246 1.65097,0.8189847 2.291016,1.4238281 0.640045,0.6016428 1.13289,1.3250608 1.478515,2.1699218 0.342424,0.84166 0.511719,1.747833 0.511719,2.720703 0,1.280092 -0.301406,2.412768 -0.90625,3.398438 -0.601643,0.982471 -1.475247,1.676144 -2.611328,2.076172 1.043275,0.336025 1.785472,0.845154 2.220703,1.533203 0.441632,0.68805 0.660156,1.719604 0.660156,3.095703 v 6.691406 H 30.78987 v -0.0078 -6.085938 c 0,-1.136082 -0.262812,-1.949818 -0.78125,-2.439453 -0.524837,-0.480035 -1.495819,-0.728516 -2.919921,-0.728516 h -5.263672 v 9.253907 h -4.800781 z m 26.177734,0 h 3.769531 V 30.494141 H 42.344558 V 14.167969 H 37.50862 v -3.201172 c 1.014474,0 1.872497,-0.08039 2.560547,-0.25 0.688049,-0.163212 1.252268,-0.419295 1.6875,-0.761719 0.444832,-0.342425 0.771538,-0.77046 1.001953,-1.2792968 0.224016,-0.5120367 0.369754,-1.1107787 0.44336,-1.7988281 z M 21.825027,10.966797 v 6.294922 h 6.189453 c 1.331296,0 2.26206,-0.294677 2.8125,-0.886719 0.544039,-0.595243 0.816406,-1.339722 0.816406,-2.242188 0,-0.921666 -0.266343,-1.680147 -0.800781,-2.27539 -0.534438,-0.595242 -1.417597,-0.890625 -2.646485,-0.890625 z"/></svg>
