<svg width="60" height="64" xmlns="http://www.w3.org/2000/svg"><path d="M 22.857422,0 C 15.913639,0 8.7654365,4.2836727 5.1796875,11.925781 -0.00613687,22.962357 3.4215128e-8,38.632812 3.4215128e-8,38.632812 L 0.00586003,56.558594 C 0.00585943,61.468125 3.9771877,64 8.8867188,64 H 53.269531 C 58.179062,64 61.185436,60.268827 60.6875,56.558594 60.396025,54.427184 59.405922,50.330955 56.269531,40.117188 54.040962,32.845495 50.043129,21.419746 45.667969,14.882812 40.312117,6.882433 32.524673,0 22.857422,0 Z m 13.814453,25.136719 c 1.132501,0 2.16359,0.137111 3.095703,0.404297 0.938185,0.273258 1.737417,0.676353 2.402344,1.216796 0.670999,0.54348 1.187095,1.222983 1.560547,2.048829 0.373453,0.822809 0.558594,1.785449 0.558593,2.890625 0,0.856207 -0.113212,1.637612 -0.33789,2.335937 -0.224679,0.698326 -0.591694,1.390417 -1.095703,2.064453 -0.510081,0.677071 -1.180671,1.363091 -2.015625,2.064453 -0.834955,0.701361 -1.849531,1.475611 -3.048828,2.337891 -0.853172,0.628493 -1.578289,1.312116 -2.158204,2.046875 -0.592058,0.73476 -0.908665,1.39253 -0.951171,1.978516 h 9.679687 v 3.820312 H 29.058594 c 0,-1.032307 0.08193,-2.004499 0.251953,-2.90625 0.170027,-0.90175 0.496631,-1.790295 0.982422,-2.673828 0.485792,-0.877461 1.167461,-1.774031 2.044922,-2.675781 0.880498,-0.901751 2.040015,-1.86787 3.488281,-2.90625 0.813701,-0.564733 1.48342,-1.074081 2.011719,-1.523438 0.528298,-0.452393 0.951813,-0.880259 1.267578,-1.287109 0.315764,-0.403815 0.541105,-0.814066 0.677734,-1.214844 0.136629,-0.406851 0.201172,-0.847536 0.201172,-1.324219 0,-0.564733 -0.07736,-1.038444 -0.238281,-1.417968 -0.154847,-0.385597 -0.372801,-0.689384 -0.658203,-0.914063 -0.27933,-0.224678 -0.616569,-0.384606 -0.996094,-0.472656 -0.385597,-0.08805 -0.789776,-0.136719 -1.214844,-0.136719 -1.020162,0 -1.820264,0.287486 -2.40625,0.861328 -0.585986,0.573841 -0.878906,1.619917 -0.878906,3.128906 h -4.228516 c 0,-2.438067 0.63799,-4.335966 1.910157,-5.699218 1.275202,-1.363253 3.07271,-2.046875 5.398437,-2.046875 z m -26.357422,0.74414 H 21.71875 c 1.035343,0 1.972131,0.167315 2.822266,0.492188 0.844063,0.324873 1.576353,0.775767 2.183593,1.349609 0.610275,0.573841 1.078341,1.264851 1.40625,2.066406 0.327909,0.801557 0.488282,1.665757 0.488282,2.591797 0,1.214479 -0.287488,2.296403 -0.861329,3.228516 -0.573841,0.938185 -1.406525,1.592919 -2.484374,1.978516 0.9898,0.315765 1.696451,0.802295 2.109374,1.455078 0.422032,0.658855 0.628907,1.635628 0.628907,2.947265 v 6.357422 h -4.603516 v -0.002 -5.78125 c 0,-1.083923 -0.248158,-1.855774 -0.746094,-2.320312 -0.491864,-0.461502 -1.418423,-0.695313 -2.769531,-0.695313 h -5.009766 v 8.792969 h -4.568359 z m 4.566406,3.888672 v 5.990235 h 5.886719 c 1.263058,0 2.153555,-0.279018 2.675781,-0.84375 0.516153,-0.564733 0.777344,-1.278558 0.777344,-2.134766 0,-0.877461 -0.256628,-1.599331 -0.763672,-2.164062 -0.507045,-0.564734 -1.347559,-0.847657 -2.519531,-0.847657 z"/></svg>
