<svg width="60" height="64" xmlns="http://www.w3.org/2000/svg"><path d="M 37.880502,0 C 28.210673,0 20.426423,6.8819426 15.073862,14.878906 10.698909,21.418565 6.6990218,32.843886 4.4644869,40.115234 1.328244,50.328516 0.34579175,54.423379 0.05433065,56.554688 -0.44661805,60.264744 2.5551884,63.996094 7.4644869,63.996094 H 51.849252 c 4.909298,0 8.88086,-2.535145 8.88086,-7.441406 l 0.002,-17.927735 c 0,0 0.0068,-15.665119 -5.175781,-26.701172 C 51.970705,4.2840355 44.823956,0 37.880502,0 Z m 3.986329,25.138672 c 1.126376,0 2.157563,0.139077 3.095703,0.40625 0.932069,0.273245 1.737448,0.678333 2.402343,1.21875 0.664896,0.540418 1.181254,1.223021 1.554688,2.048828 0.373435,0.825806 0.558594,1.785502 0.558594,2.890625 0,0.856167 -0.113223,1.632656 -0.337891,2.333984 -0.224668,0.701329 -0.591718,1.387414 -1.095703,2.064453 -0.510057,0.680076 -1.18071,1.366161 -2.015625,2.064454 -0.828843,0.698292 -1.8498,1.478687 -3.042969,2.33789 -0.859203,0.628463 -1.578104,1.315186 -2.164062,2.046875 -0.585958,0.734725 -0.900642,1.392558 -0.949219,1.978516 h 9.677734 v 3.822265 H 34.251596 v -0.0059 c 0,-1.038331 0.0828,-2.006496 0.255859,-2.908203 0.166984,-0.901708 0.490794,-1.793373 0.976563,-2.673828 0.485768,-0.877419 1.169456,-1.767131 2.046875,-2.671875 0.883492,-0.901708 2.041167,-1.871826 3.486328,-2.910156 0.813662,-0.564706 1.481493,-1.074102 2.009766,-1.523438 0.534346,-0.449336 0.951828,-0.877242 1.267578,-1.287109 0.318785,-0.403795 0.546971,-0.814085 0.683594,-1.214844 0.13055,-0.409867 0.201172,-0.846688 0.201172,-1.320312 0,-0.567743 -0.08344,-1.040415 -0.238282,-1.419922 -0.160911,-0.385579 -0.378886,-0.689395 -0.658203,-0.914063 -0.285389,-0.224668 -0.616374,-0.386564 -1.001953,-0.474609 -0.379507,-0.08805 -0.789797,-0.136719 -1.214844,-0.136719 -1.014042,0 -1.814432,0.289467 -2.40039,0.863281 -0.585959,0.573814 -0.884766,1.618035 -0.884766,3.126953 h -4.228516 c 0,-2.434915 0.640873,-4.33603 1.916016,-5.699218 1.275142,-1.363187 3.07282,-2.042969 5.398438,-2.042969 z m -24.597657,0.74414 h 4.701172 v 18.371094 h 11.130859 v 4.095703 H 17.269174 v -0.0039 z"/></svg>
