<svg enable-background="new 0 0 3839 707.9" version="1.1" viewBox="0 0 3839 707.9" xml:space="preserve" xmlns="http://www.w3.org/2000/svg">
<path d="m337.80078 0v660.40039l147.19922 47.5v-553.90039c0-25.99997 11.40041-43.30078 29.90039-37.30078 23.89998 6.69999 28.69922 30.60002 28.69922 56.5v221.20117c91.79991 44.99996 163.90039-0.10129 163.90039-118.70117 0-121.79988-42.20052-175.898873-166.90039-219.298829-48.99995-16.799984-140.19889-44.700403-202.79883-56.400391zm1824.39842 172.69922-195.2988 0.10156c-70.5999 0-114.2012 45.69929-114.2012 119.19922v197.80078c0 41.49996-18.0996 65.19922-50.5996 65.19922h-172.0996c-1.8 0-3.1992 1.70039-3.1992 3.40039v47.40039c0 1.8 1.3992 3.19922 3.1992 3.19922h200.1992c69.9999 0 113.7012-45.69968 113.7012-119.09961v-197.90039c0.1-41.59996 18.7992-65.19922 50.6992-65.19922h167.5996c1.8 0 3.4004-1.50078 3.4004-3.30078v-47.5c0-1.9-1.6004-3.30078-3.4004-3.30078zm46.8008 0c-2.2 0-3.0004 2.00156-1.9004 4.10156l205 384.19922c11.9 21.99998 26.2004 36.49923 41.4004 43.19922 24.2 11.39999 50.8004 3.00153 71.9004-24.39844 4.3-5.59999 8.2992-11.80079 12.1992-18.80078l204.8008-384.5c1-1.9-8e-4 -3.80078-1.8008-3.80078h-52.4004c-1.8 0-3.6996 1.30039-4.5996 2.90039l-165.5996 308c-11.9 22.89998-32.4004 25.50115-44.9004 2.70117l-166.5996-310.70117c-0.7-1.6-3.0008-2.90039-4.8008-2.90039h-92.6992zm1360.1953 0.13281c-17.112 0.71033-34.1133 10.49885-48.8945 29.26758-4.4 5.39999-8.4016 11.90001-12.1016 19l-206.6992 384.5c-0.9 1.8-8e-4 3.59961 2.1992 3.59961h54c1.6 0 3.8012-1.19883 4.7012-2.79883l44.1992-82.30078 0.0996-0.19922c1.4-2.8 5.2004-5.09961 8.4004-5.09961h269.8008c3 0 6.4988 2.19883 8.2988 4.79883l0.2012 0.40039 44.1992 82.40039c0.6 1.6 2.8996 2.79883 4.5996 2.79883h94.6016c2.2 0 2.6992-1.99844 1.6992-3.89844l-204.6992-384.30078c-11.7-22.19998-26.4004-36.50001-41.4004-43.5-7.625-3.4375-15.4269-4.99084-23.2051-4.66797zm-2348.7949 0.06836c-1.7 0-3.2012 1.39922-3.2012 3.19922v47.5c0 1.8 1.5012 3.30078 3.2012 3.30078h328.4004c32.1999 0 50.7988 23.69926 50.7988 65.19922s-18.5989 65.40039-50.7988 65.40039h-235.4004c-54.3-0.1-96.2012 50.50046-96.2012 117.90039v130.40039c0 1.8 1.5016 3.19922 3.1016 3.19922h83.8984c1.6 0 3-1.39922 3-3.19922v-130.40039c0-37.89996 20.0016-64.40039 48.1016-64.40039h221.2988c70.4999 0 114.3008-45.30085 114.3008-118.80078 0-73.39993-43.7009-119.29883-114.3008-119.29883h-356.1992zm1585.5996 0.09961c-1.7 0-3.1992 1.30078-3.1992 3.30078v429.5c0 1.8 1.4992 3.19922 3.1992 3.19922h84.9004c1.7 0 3.0996-1.39922 3.0996-3.19922v-429.5c0-2-1.3996-3.30078-3.0996-3.30078h-84.9004zm150.5996 0c-1.9 0-3.1992 1.30078-3.1992 3.30078v46.89844c0 1.6 1.2992 3.20117 3.1992 3.20117h161.0996c3.1 0 5.8008 2.59883 5.8008 5.79883v373.70117c0 1.8 1.3992 3.19922 3.1992 3.19922h83.1016c2 0 3.3984-1.39922 3.3984-3.19922v-373.70117c0-3.3 2.5008-5.79883 5.8008-5.79883h161.0996c1.9 0 3.3008-1.50117 3.3008-3.20117v-46.89844c0-2.1-1.5008-3.30078-3.3008-3.30078h-423.5zm593.4121 106.94922c8.1375-0.7 16.2883 4.25079 22.4883 15.55078l86.6992 164.80078c1.1 2.7-0.2988 5-3.7988 5h-210.8008c-3.7 0-5.1-2.50156-3.5-5.60156h0.0996l86.4004-161.39844c6.15-11.29999 14.2746-17.65156 22.4121-18.35156zm-3240.71092 119.15039-210.999999 76.20117c-0.1 0-51.201202 16.99924-81.201172 39.69922-32.399967 24.39998-20.5987565 66.79924 50.701172 87.19922 76.499919 25.49997 154.100069 30.59999 226.999999 18.5 4.7-0.8 9.90001-1.6 14.5-2.5v-77.59961l-72.90039 26.80078c-26.89997 9.79999-66.29963 11.7996-88.09961 4.59961s-17.70075-21.0004 9.19922-30.90039l151.80078-55.19922v-86.80078zm372.72656 37.77344c-17.3406-0.11719-34.27814 0.72734-50.32812 2.52734-63.99994 7.19999-109.69922 23.59961-109.69922 23.59961l-9.19922 3.09961v89.80078l157.79883-56.40039c26.89997-9.79999 66.29963-11.7996 88.09961-4.59961s17.70075 21.0004-9.19922 30.90039l-236.69922 85.59961v86.5l321.69922-117.30078s43.30041-16.09924 60.90039-38.69922c17.69998-22.79998 9.89993-55.60041-59.5-77.90039-46.19995-17.77498-101.85122-26.77539-153.87305-27.12695z"/>
</svg>
