<?xml version="1.0" encoding="utf-8"?>
<!-- Generator: Adobe Illustrator 26.0.3, SVG Export Plug-In . SVG Version: 6.00 Build 0)  -->
<svg version="1.1" id="Layer_1" xmlns="http://www.w3.org/2000/svg" xmlns:xlink="http://www.w3.org/1999/xlink" x="0px" y="0px"
	 viewBox="0 0 3839 707.9" style="enable-background:new 0 0 3839 707.9;" xml:space="preserve">
<style type="text/css">
	.st0{fill:#FFFFFF;}
	.st1{fill:#00439B;}
</style>
<g>
	<g>
		<g>
			<path d="M1217.2,475.4v130.4c0,1.8,1.5,3.2,3.1,3.2h83.9c1.6,0,3-1.4,3-3.2V475.4c0-37.9,20-64.4,48.1-64.4h221.3
				c70.5,0,114.3-45.3,114.3-118.8c0-73.4-43.7-119.3-114.3-119.3h-356.2c-1.7,0-3.2,1.4-3.2,3.2v47.5c0,1.8,1.5,3.3,3.2,3.3h328.4
				c32.2,0,50.8,23.7,50.8,65.2c0,41.5-18.6,65.4-50.8,65.4h-235.4C1259.1,357.4,1217.2,408,1217.2,475.4"/>
		</g>
		<g>
			<path d="M1994.6,226.8h167.6c1.8,0,3.4-1.5,3.4-3.3V176c0-1.9-1.6-3.3-3.4-3.3l-195.3,0.1c-70.6,0-114.2,45.7-114.2,119.2v197.8
				c0,41.5-18.1,65.2-50.6,65.2h-172.1c-1.8,0-3.2,1.7-3.2,3.4v47.4c0,1.8,1.4,3.2,3.2,3.2h200.2c70,0,113.7-45.7,113.7-119.1V292
				C1944,250.4,1962.7,226.8,1994.6,226.8"/>
		</g>
		<g>
			<path d="M2802.8,605.8c0,1.8,1.5,3.2,3.2,3.2h84.9c1.7,0,3.1-1.4,3.1-3.2V176.3c0-2-1.4-3.3-3.1-3.3H2806c-1.7,0-3.2,1.3-3.2,3.3
				V605.8z"/>
		</g>
		<g>
			<path d="M2537.6,561l204.8-384.5c1-1.9,0-3.8-1.8-3.8h-52.4c-1.8,0-3.7,1.3-4.6,2.9l-165.6,308c-11.9,22.9-32.4,25.5-44.9,2.7
				l-166.6-310.7c-0.7-1.6-3-2.9-4.8-2.9H2209c-2.2,0-3,2-1.9,4.1l205,384.2c11.9,22,26.2,36.5,41.4,43.2
				c24.2,11.4,50.8,3,71.9-24.4C2529.7,574.2,2533.7,568,2537.6,561"/>
		</g>
		<g>
			<path d="M3380.1,173h-423.5c-1.9,0-3.2,1.3-3.2,3.3v46.9c0,1.6,1.3,3.2,3.2,3.2h161.1c3.1,0,5.8,2.6,5.8,5.8v373.7
				c0,1.8,1.4,3.2,3.2,3.2h83.1c2,0,3.4-1.4,3.4-3.2V232.2c0-3.3,2.5-5.8,5.8-5.8h161.1c1.9,0,3.3-1.5,3.3-3.2v-46.9
				C3383.4,174.2,3381.9,173,3380.1,173"/>
		</g>
		<g>
			<path d="M3838.5,605.3L3633.8,221c-11.7-22.2-26.4-36.5-41.4-43.5c-24.4-11-50.6-2.7-72.1,24.6c-4.4,5.4-8.4,11.9-12.1,19
				l-206.7,384.5c-0.9,1.8,0,3.6,2.2,3.6h54c1.6,0,3.8-1.2,4.7-2.8l44.2-82.3l0.1-0.2c1.4-2.8,5.2-5.1,8.4-5.1h269.8
				c3,0,6.5,2.2,8.3,4.8l0.2,0.4l44.2,82.4c0.6,1.6,2.9,2.8,4.6,2.8h94.6C3839,609.2,3839.5,607.2,3838.5,605.3 M3655.4,465.3
				h-210.8c-3.7,0-5.1-2.5-3.5-5.6h0.1l86.4-161.4c12.3-22.6,32.5-25.4,44.9-2.8l86.7,164.8C3660.3,463,3658.9,465.3,3655.4,465.3"
				/>
		</g>
	</g>
	<path d="M17.1,515c-32.4,24.4-20.6,66.8,50.7,87.2c76.5,25.5,154.1,30.6,227,18.5c4.7-0.8,9.9-1.6,14.5-2.5v-77.6l-72.9,26.8
		c-26.9,9.8-66.3,11.8-88.1,4.6c-21.8-7.2-17.7-21,9.2-30.9l151.8-55.2v-86.8l-211,76.2C98.2,475.3,47.1,492.3,17.1,515z"/>
	<path d="M835.9,464c-61.6-23.7-140-31.8-204.2-24.6C567.7,446.6,522,463,522,463l-9.2,3.1v89.8l157.8-56.4
		c26.9-9.8,66.3-11.8,88.1-4.6c21.8,7.2,17.7,21-9.2,30.9l-236.7,85.6v86.5l321.7-117.3c0,0,43.3-16.1,60.9-38.7
		C913.1,519.1,905.3,486.3,835.9,464z"/>
	<path d="M543.6,173.2v221.2c91.8,45,163.9-0.1,163.9-118.7c0-121.8-42.2-175.9-166.9-219.3C491.6,39.6,400.4,11.7,337.8,0v660.4
		L485,707.9V154c0-26,11.4-43.3,29.9-37.3C538.8,123.4,543.6,147.3,543.6,173.2z"/>
</g>
</svg>
