<?xml version="1.0" encoding="UTF-8" standalone="no"?>
<svg viewBox="0 0 320 200">
  <g><path style="fill:#FFF" d="M 25.671875 61.5625 L 25.671875 124.89844 L 25.671875 188.23438 L 160.50391 188.23438 L 295.33594 188.23438 L 295.33594 124.89844 L 295.33594 61.5625 L 160.50391 61.5625 L 25.671875 61.5625 z M 94.695312 66.714844 L 98.763672 66.761719 L 102.83203 66.810547 L 102.82812 71.347656 C 102.82637 73.842871 102.80065 84.558559 102.77344 95.162109 C 102.74623 105.76566 102.7475 114.46674 102.77734 114.49609 C 102.92569 114.64554 103.90609 113.48374 108.09766 108.19531 C 110.60821 105.02759 113.72965 101.09985 115.0332 99.464844 C 118.66824 94.90674 122.75285 89.800151 123.08203 89.404297 C 123.24443 89.208594 124.67873 87.408301 126.26758 85.402344 C 130.10451 80.559581 139.63509 68.63264 140.52344 67.5625 L 141.22852 66.714844 L 145.0293 66.761719 L 148.83008 66.810547 L 148.87305 102.99609 C 148.9064 129.59571 148.86554 139.24681 148.7207 139.42383 C 148.4714 139.72806 137.69736 139.78114 137.14258 139.48047 C 136.80901 139.299 136.80157 138.8632 136.80859 115.6875 C 136.81386 99.477944 136.76029 92.060277 136.63477 92.017578 C 136.43726 91.950861 136.26728 92.133819 134.77148 94.03125 C 132.16525 97.335964 131.10692 98.664254 131.01562 98.746094 C 130.9612 98.79502 130.09387 99.874414 129.08789 101.14648 C 128.08191 102.41855 125.98948 105.05275 124.4375 107 C 122.8864 108.94636 121.22108 111.03714 120.73828 111.64648 C 120.25548 112.25583 119.07107 113.73872 118.10547 114.94141 C 117.13987 116.1432 115.96915 117.60961 115.50391 118.20117 C 115.03866 118.79273 114.3953 119.6013 114.07227 119.99805 C 113.02064 121.2888 108.10512 127.46512 107.74609 127.94727 C 107.55297 128.20613 106.88712 129.04783 106.26562 129.81641 C 103.44784 133.29992 102.73055 134.19467 101.14258 136.20508 C 100.21209 137.38463 99.174972 138.64576 98.837891 139.00781 L 98.226562 139.66602 L 94.767578 139.66602 C 92.699444 139.66602 91.172206 139.58971 90.966797 139.47852 C 90.629716 139.29527 90.623157 138.92098 90.632812 115.52734 C 90.637202 102.45526 90.607269 91.723102 90.5625 91.677734 C 90.38957 91.503381 89.924362 91.947724 88.939453 93.230469 C 88.092361 94.332633 85.518838 97.562626 84.332031 99.011719 C 84.062542 99.341745 81.799253 102.1857 80.804688 103.44531 C 80.565922 103.74687 77.876976 107.11543 74.830078 110.93164 C 71.784058 114.74785 69.096188 118.12066 68.857422 118.42578 C 68.271919 119.17123 62.80278 126.02208 59.695312 129.90234 C 58.315386 131.62631 56.038788 134.48032 54.638672 136.24609 C 53.238556 138.01187 51.935307 139.50255 51.742188 139.55859 C 51.269923 139.69559 37.538429 139.69559 37.185547 139.55859 C 36.765951 139.39491 36.840562 139.17617 37.654297 138.18164 C 38.710309 136.89178 38.589043 137.04004 42.818359 131.74805 C 44.929506 129.10605 48.311299 124.8625 50.332031 122.31836 C 52.352763 119.77422 55.510783 115.81566 57.351562 113.52148 C 61.750297 108.03735 64.864181 104.13698 67.789062 100.44531 C 69.102275 98.786284 70.662258 96.824272 71.253906 96.085938 C 71.845554 95.346713 73.424125 93.370179 74.763672 91.693359 C 83.874521 80.289205 83.923917 80.2287 86.667969 76.755859 C 87.433424 75.786239 88.108277 74.955176 88.167969 74.90625 C 88.228538 74.857324 88.748174 74.216309 89.322266 73.482422 C 89.897235 72.748535 91.340932 70.926101 92.53125 69.431641 L 94.695312 66.714844 z M 277.27148 66.714844 L 281.16797 66.761719 L 285.06641 66.810547 L 285.11133 103.01562 C 285.15346 136.89717 285.13657 139.2352 284.85742 139.44336 C 284.47382 139.7298 273.72738 139.76424 273.20508 139.48047 C 272.87239 139.29989 272.86523 138.86917 272.86523 117.68164 L 272.86523 96.068359 L 272.38086 95.882812 C 272.0745 95.764501 270.03533 95.711768 266.79883 95.740234 C 263.99333 95.764252 261.60132 95.726351 261.48633 95.654297 C 261.33271 95.558224 261.27734 94.334764 261.27734 91.097656 L 261.27734 86.675781 L 264.30664 82.892578 C 265.97273 80.811898 267.8412 78.464821 268.46094 77.675781 C 269.0798 76.885852 269.63435 76.199316 269.69141 76.150391 C 269.79674 76.059656 271.96944 73.343651 273.39062 71.525391 C 273.82514 70.969416 274.46919 70.161905 274.82031 69.730469 C 275.17232 69.299032 275.86859 68.443874 276.36719 67.830078 L 277.27148 66.714844 z M 161.27734 66.71875 L 181.91406 66.765625 L 202.55078 66.810547 L 202.59375 74.105469 C 202.61745 78.117383 202.57227 81.499398 202.49414 81.623047 C 202.38266 81.800069 198.84477 81.856822 185.59766 81.890625 L 168.84375 81.933594 L 168.14062 82.316406 C 163.96047 84.607022 164.01851 93.083228 168.22852 95.152344 C 168.78417 95.424549 170.08363 95.462908 181.74805 95.542969 C 196.18899 95.642599 195.04443 95.536772 196.8457 96.951172 C 206.3542 104.41902 205.71264 133.56146 195.91797 139.0625 L 195.00195 139.57617 L 174.54883 139.62695 C 163.29962 139.65453 153.91887 139.6315 153.70117 139.57812 L 153.30664 139.48047 L 153.30664 132.04688 C 153.30664 126.50314 153.36045 124.55962 153.51758 124.40039 C 153.67822 124.2376 157.82971 124.1875 171.13477 124.1875 L 188.54102 124.1875 L 189.23828 123.67578 C 192.07538 121.59332 192.4366 115.68645 189.90234 112.83008 C 188.45834 111.20307 189.36943 111.30152 174.90039 111.19922 C 160.46383 111.09781 161.79 111.24042 159.63672 109.54492 C 154.1609 105.2359 151.4794 91.082359 153.91797 79.353516 C 154.41218 76.977502 155.6217 73.542129 156.50391 72.005859 C 156.7734 71.537061 156.99219 71.122061 156.99219 71.082031 C 156.99219 70.551854 159.33299 67.976287 160.49609 67.224609 L 161.27734 66.71875 z M 212.95312 66.763672 L 218.87891 66.810547 L 218.9668 92.962891 L 219.05469 119.11719 L 219.57227 120.18359 C 221.30683 123.76763 223.56643 124.54173 232.30859 124.53906 C 240.75669 124.53639 242.94313 123.78776 244.79883 120.25977 L 245.21289 119.47266 L 245.30078 93.140625 L 245.38867 66.810547 L 251.35742 66.810547 L 257.32812 66.810547 L 257.32812 97.589844 C 257.32812 132.13411 257.43924 129.19466 256.01367 132.10352 C 254.38796 135.41979 251.47003 137.95581 247.86133 139.19141 C 246.62449 139.61484 221.37072 139.88197 218.32031 139.50391 C 213.01655 138.84652 208.1701 134.14999 207.2168 128.74414 C 207.08161 127.97645 206.92376 76.366292 207.02734 66.851562 C 207.02822 66.776839 209.69467 66.737875 212.95312 66.763672 z M 160.29102 143.51953 C 222.26645 143.51986 284.26903 143.57834 284.45117 143.69531 C 284.72856 143.87233 284.95644 152.66233 284.7168 153.97266 L 284.61133 154.55273 L 160.4082 154.55273 L 36.205078 154.55273 L 36.195312 154.0625 C 36.141766 151.31643 36.215238 143.82679 36.296875 143.69336 C 36.367978 143.57683 98.315581 143.5192 160.29102 143.51953 z M 200.08984 157.95508 C 201.02867 157.90048 201.97526 158.07305 202.77539 158.48047 C 203.62512 158.91368 204.92187 160.17748 204.92188 160.57422 C 204.92188 160.65428 205.02721 160.84611 205.15625 161 C 205.38009 161.26776 205.85694 162.55183 206.33008 164.16016 C 206.45034 164.56846 206.50217 165.02775 206.44336 165.18164 C 206.34768 165.43605 204.63703 166.35156 204.25781 166.35156 C 204.16915 166.35156 203.8506 166.47786 203.54688 166.63086 C 202.89729 166.96 202.63867 166.85206 202.63867 166.24805 C 202.63867 165.13165 201.23427 163.32812 200.36523 163.32812 C 197.65805 163.32812 196.6985 174.85317 199.18359 177.51562 C 200.53631 178.96472 202.32852 177.43396 202.72266 174.49219 C 202.86223 173.4514 203.04772 173.42648 204.5918 174.23242 C 206.84603 175.4102 206.93197 175.54089 206.41406 177.02734 C 206.26922 177.44366 206.15039 177.94403 206.15039 178.14062 C 206.15039 178.72062 204.8287 181.33227 204.19141 182.01367 C 202.74477 183.55884 199.90218 183.97792 197.88672 182.94336 C 192.20111 180.02471 191.88319 162.3989 197.45117 158.78906 C 198.22058 158.29046 199.15102 158.00967 200.08984 157.95508 z M 71.085938 158.48242 C 73.384443 158.42692 77.53096 158.71514 78.083984 159.08008 C 81.032567 161.02555 82.538389 167.60442 81.681641 174.80273 C 80.910918 181.27606 79.138674 182.93748 73.087891 182.85742 L 69.474609 182.80859 L 69.429688 170.81055 C 69.393697 161.33318 69.430783 158.78131 69.605469 158.66211 C 69.759525 158.55714 70.319769 158.50092 71.085938 158.48242 z M 120.56445 158.50586 C 123.16279 158.50619 125.76213 158.58748 125.97852 158.74805 C 126.24274 158.94375 126.27348 159.27102 126.23047 161.37305 L 126.18164 163.77148 L 122.93359 163.86133 C 119.02556 163.96808 119.24609 163.85708 119.24609 165.7207 C 119.24609 167.5274 119.04652 167.41832 122.37695 167.42188 C 126.09011 167.42543 125.76106 167.1547 125.70312 170.1543 L 125.6543 172.66797 L 122.66992 172.75781 C 118.98046 172.86812 119.24609 172.68063 119.24609 175.14648 C 119.24609 177.70931 118.98755 177.54285 123.03516 177.60156 L 126.35742 177.65039 L 126.35742 180.22852 L 126.35742 182.80859 L 120.65234 182.80859 L 114.94531 182.80859 L 114.90039 170.88867 C 114.85826 159.84034 114.87583 158.95247 115.15234 158.74609 C 115.36785 158.58597 117.96612 158.50553 120.56445 158.50586 z M 215.36914 158.50586 C 217.96748 158.50619 220.56487 158.58748 220.78125 158.74805 C 221.04547 158.94375 221.07817 159.27102 221.03516 161.37305 L 220.98633 163.77148 L 217.73828 163.86133 C 213.83025 163.96808 214.05078 163.85708 214.05078 165.7207 C 214.05078 167.5274 213.85121 167.41832 217.18164 167.42188 C 220.8948 167.42543 220.56575 167.1547 220.50781 170.1543 L 220.45898 172.66797 L 217.47461 172.75781 C 213.78515 172.86812 214.05078 172.68063 214.05078 175.14648 C 214.05078 177.70931 213.79028 177.54285 217.83789 177.60156 L 221.16211 177.65039 L 221.16211 180.22852 L 221.16211 182.80859 L 215.45508 182.80859 L 209.75 182.80859 L 209.70312 170.88867 C 209.66099 159.84034 209.68052 158.95247 209.95703 158.74609 C 210.17254 158.58597 212.77081 158.50553 215.36914 158.50586 z M 236.23633 158.51953 C 237.46406 158.53554 238.66753 158.62196 238.78516 158.76562 C 238.92912 158.94176 238.97086 162.26613 238.9375 170.9082 L 238.89258 182.80859 L 237.22461 182.80859 L 235.55664 182.80859 L 235.46289 175.69336 C 235.4111 171.7793 235.35027 168.54057 235.33008 168.49609 C 235.15978 168.12604 234.88891 169.10266 234.76953 170.51172 C 234.68965 171.45198 234.54343 172.60312 234.44336 173.06836 C 234.34417 173.5336 234.17585 174.63301 234.07227 175.51367 C 233.61756 179.35568 233.17934 182.189 232.97656 182.59375 C 232.83787 182.86862 232.61125 182.90492 231.29102 182.86133 L 229.76367 182.80859 L 229.54883 181.38477 C 229.4312 180.60195 229.24792 179.28096 229.14258 178.44922 C 229.03812 177.61748 228.83791 176.35512 228.69922 175.64258 C 228.56052 174.93093 228.44599 173.97038 228.44336 173.50781 C 228.4416 173.04613 228.28316 172.07247 228.0918 171.3457 C 227.90131 170.61804 227.74394 169.6575 227.74219 169.21094 C 227.74131 168.76349 227.68243 168.19775 227.61133 167.95312 C 227.54023 167.7085 227.44281 170.95059 227.39453 175.1582 L 227.30664 182.80859 L 225.55078 182.80859 L 223.79492 182.80859 L 223.75 170.88867 C 223.70786 159.84034 223.72544 158.95247 224.00195 158.74609 C 224.31533 158.51303 228.33387 158.42767 229.10547 158.63672 C 229.42236 158.72301 229.50235 158.87095 229.50586 159.38867 C 229.50762 159.7445 229.58684 160.35664 229.68164 160.74805 C 229.77644 161.13945 229.97235 162.38057 230.11719 163.50586 C 230.2629 164.63115 230.45538 165.95215 230.54492 166.44141 C 230.63446 166.93066 230.71348 167.66272 230.71875 168.06836 C 230.73192 168.96681 231.38913 171.20286 231.60156 171.07031 C 231.68583 171.01694 231.80251 170.43455 231.86133 169.77539 C 231.92102 169.11623 232.08181 167.85527 232.21875 166.97461 C 232.50931 165.10209 232.78502 163.03948 233.07031 160.60742 C 233.20901 159.43053 233.36087 158.81113 233.53906 158.69727 C 233.7572 158.55805 235.00859 158.50352 236.23633 158.51953 z M 278.41602 158.51953 C 281.40081 158.50152 284.39082 158.54751 284.58789 158.67383 C 284.75643 158.78324 284.80054 159.43307 284.76367 161.29492 L 284.71484 163.77148 L 282.79492 163.82227 C 280.14392 163.89254 280.41406 162.78401 280.41406 173.58594 L 280.41406 182.91016 L 278.35156 182.85938 L 276.28906 182.80859 L 276.24219 173.42383 C 276.21761 168.2626 276.178 164.02808 276.1543 164.01562 C 276.13147 164.00228 275.20419 163.9433 274.09375 163.88281 L 272.07422 163.77148 L 272.02539 161.37305 C 271.98238 159.27102 272.01312 158.94375 272.27734 158.74805 C 272.45159 158.61906 275.43122 158.53754 278.41602 158.51953 z M 179.66406 158.52734 C 180.50084 158.50922 181.34197 158.55037 181.52148 158.66602 C 181.63823 158.74163 181.85898 159.11996 182.01172 159.50781 C 182.16446 159.89566 182.35459 160.37461 182.43359 160.57031 C 182.51347 160.76602 182.75261 161.40703 182.9668 161.99414 C 183.58829 163.70121 183.87149 164.44737 184.10938 165.01758 C 184.23227 165.31113 184.50652 166.03203 184.7207 166.61914 C 184.93577 167.20625 185.22224 167.96611 185.35742 168.30859 C 185.49261 168.65107 185.68509 169.16119 185.78516 169.44141 C 185.93614 169.86484 186.00974 169.91283 186.22656 169.73047 C 186.44689 169.54633 186.48828 168.66904 186.48828 164.12695 L 186.48828 158.74414 L 186.88281 158.63672 C 187.46129 158.47927 190.04944 158.50553 190.30664 158.67188 C 190.48133 158.78396 190.51841 161.32962 190.48242 170.81055 L 190.4375 182.80859 L 188.46094 182.85938 L 186.48242 182.91016 L 186.30664 182.41406 C 186.2092 182.14097 186.05976 181.76016 185.97461 181.56445 C 185.88858 181.36875 185.60426 180.60693 185.3418 179.87305 C 185.07933 179.13916 184.70826 178.13965 184.51953 177.65039 C 184.32992 177.16113 183.96169 176.15967 183.69922 175.42578 C 183.43587 174.69189 183.13483 173.93203 183.03125 173.73633 C 182.92679 173.54063 182.78849 173.1258 182.72266 172.81445 C 182.65682 172.50311 182.4883 172.15169 182.34961 172.03516 C 182.21091 171.91862 182.09766 171.67791 182.09766 171.5 C 182.09766 171.32209 182.02059 171.12796 181.92578 171.06836 C 181.81342 170.99808 181.73688 173.04632 181.70703 176.88477 L 181.66016 182.80859 L 179.64062 182.80859 L 177.62109 182.80859 L 177.57617 170.88867 C 177.53404 159.84034 177.55161 158.95247 177.82812 158.74609 C 177.99359 158.62289 178.82728 158.54547 179.66406 158.52734 z M 258.66797 158.52734 C 259.50475 158.50922 260.34392 158.55037 260.52344 158.66602 C 260.64019 158.74163 260.86289 159.11996 261.01562 159.50781 C 261.16836 159.89566 261.3585 160.37461 261.4375 160.57031 C 261.51738 160.76602 261.75652 161.40703 261.9707 161.99414 C 262.5922 163.70121 262.87344 164.44737 263.11133 165.01758 C 263.23422 165.31113 263.51042 166.03203 263.72461 166.61914 C 263.93967 167.20625 264.22614 167.96611 264.36133 168.30859 C 264.49651 168.65107 264.68899 169.16119 264.78906 169.44141 C 264.94005 169.86484 265.01365 169.91283 265.23047 169.73047 C 265.4508 169.54633 265.49023 168.66904 265.49023 164.12695 L 265.49023 158.74414 L 265.88672 158.63672 C 266.4652 158.47927 269.05335 158.50553 269.31055 158.67188 C 269.48523 158.78396 269.52232 161.32962 269.48633 170.81055 L 269.44141 182.80859 L 267.46484 182.85938 L 265.48633 182.91016 L 265.30859 182.41406 C 265.21116 182.14097 265.06171 181.76016 264.97656 181.56445 C 264.89054 181.36875 264.60622 180.60693 264.34375 179.87305 C 264.08128 179.13916 263.71217 178.13965 263.52344 177.65039 C 263.33383 177.16113 262.96364 176.15967 262.70117 175.42578 C 262.43783 174.69189 262.13874 173.93203 262.03516 173.73633 C 261.9307 173.54063 261.7924 173.1258 261.72656 172.81445 C 261.66073 172.50311 261.49221 172.15169 261.35352 172.03516 C 261.21482 171.91862 261.10156 171.67791 261.10156 171.5 C 261.10156 171.32209 261.02449 171.12796 260.92969 171.06836 C 260.81733 170.99808 260.73883 173.04632 260.70898 176.88477 L 260.66211 182.80859 L 258.64453 182.80859 L 256.625 182.80859 L 256.58008 170.88867 C 256.53794 159.84034 256.55552 158.95247 256.83203 158.74609 C 256.9975 158.62289 257.83119 158.54547 258.66797 158.52734 z M 140.66406 158.5293 C 141.46639 158.5383 142.25031 158.5887 142.37891 158.67188 C 142.55359 158.78396 142.59068 161.32962 142.55469 170.81055 L 142.50977 182.80859 L 140.49023 182.80859 L 138.4707 182.80859 L 137.66797 180.67383 C 137.22643 179.49961 136.77427 178.31483 136.66016 178.03906 C 136.54604 177.7633 136.45117 177.43934 136.45117 177.31836 C 136.45117 177.19738 136.38417 177.02309 136.30078 176.92969 C 136.21651 176.83717 135.94501 176.15967 135.69922 175.42578 C 135.45255 174.69189 135.12735 173.8502 134.97461 173.55664 C 134.82275 173.26309 134.69814 172.8945 134.69727 172.73438 C 134.69727 172.57514 134.58851 172.35232 134.45508 172.24023 C 134.32165 172.12815 134.16213 171.78418 134.10156 171.47461 C 133.79784 169.93745 133.64458 171.63624 133.60156 177.0332 L 133.55469 182.80859 L 131.625 182.80859 L 129.69336 182.80859 L 129.64844 170.76953 C 129.60542 159.41252 129.62067 158.7237 129.91211 158.64453 C 130.08153 158.59738 130.9694 158.57081 131.88672 158.58594 L 133.55469 158.61328 L 134.11523 159.76953 C 134.42423 160.40557 134.68311 161.03347 134.6875 161.16602 C 134.69277 161.29767 134.80368 161.65812 134.93359 161.9668 C 135.06439 162.27458 135.34636 163.00664 135.56055 163.59375 C 135.77473 164.18086 136.0214 164.79637 136.10742 164.96094 C 136.19433 165.12551 136.43326 165.76652 136.63867 166.38477 C 136.84408 167.00301 137.15667 167.8316 137.33398 168.22656 C 137.5113 168.62153 137.71063 169.16512 137.77734 169.43555 C 137.92043 170.01198 138.23488 169.97619 138.4043 169.36328 C 138.46926 169.12577 138.53136 166.63894 138.54102 163.83594 C 138.55682 159.36412 138.59278 158.72604 138.83594 158.63086 C 139.04003 158.55169 139.86174 158.52029 140.66406 158.5293 z M 147.91602 158.5293 C 148.70978 158.50561 149.5571 158.53664 149.92578 158.63672 C 150.31992 158.74347 150.32227 158.75099 150.32227 162.61523 C 150.32227 167.24628 150.13426 166.91615 152.7168 166.84766 L 154.62305 166.79688 L 154.71094 162.70508 L 154.79883 158.61328 L 156.37891 158.55859 C 157.24794 158.52924 158.21592 158.55351 158.5293 158.61133 L 159.09961 158.71875 L 159.09961 170.71484 L 159.09961 182.71289 L 158.70508 182.8125 C 158.48826 182.86676 157.52028 182.89068 156.55469 182.86133 L 154.79883 182.80859 L 154.75195 178.01953 C 154.69665 172.35482 154.85893 172.75781 152.61523 172.75781 C 150.14067 172.75781 150.33197 172.32958 150.2793 178.00586 L 150.23438 182.80859 L 148.12695 182.80859 L 146.01953 182.80859 L 145.97461 170.88867 C 145.93247 159.84034 145.95005 158.95247 146.22656 158.74609 C 146.38194 158.63045 147.12225 158.55298 147.91602 158.5293 z M 39.363281 158.5332 C 40.586408 158.53265 41.810919 158.5783 41.953125 158.66992 C 42.17609 158.81314 42.37717 159.88517 42.708984 162.70508 C 42.813444 163.58574 42.97316 164.66709 43.064453 165.10742 C 43.155746 165.54775 43.305389 166.66807 43.398438 167.59766 C 43.601213 169.61518 44.429534 172.22077 44.462891 170.94336 C 44.466402 170.81526 44.58778 169.78936 44.734375 168.66406 C 44.881848 167.53877 45.073252 166.01904 45.160156 165.28516 C 45.246182 164.55127 45.440615 163.23027 45.589844 162.34961 C 45.739072 161.46895 45.906513 160.28911 45.960938 159.73047 C 46.082954 158.4922 46.116351 158.48227 49.373047 158.56055 L 51.566406 158.61328 L 51.566406 170.71094 L 51.566406 182.80859 L 49.900391 182.80859 L 48.232422 182.80859 L 48.138672 175.69336 C 48.087759 171.7793 48.026729 168.53525 48.003906 168.48633 C 47.8617 168.1821 47.637861 169.11084 47.535156 170.42383 C 47.46932 171.26713 47.30188 172.40852 47.164062 172.96094 C 47.026245 173.51335 46.914063 174.31414 46.914062 174.74023 C 46.914062 175.16633 46.801682 176.15469 46.662109 176.9375 C 46.522537 177.72031 46.313532 179.04131 46.201172 179.87305 C 46.088811 180.70479 45.946213 181.70625 45.884766 182.09766 L 45.773438 182.80859 L 44.105469 182.80859 L 42.4375 182.80859 L 42.326172 181.5332 C 42.263847 180.83223 42.16301 180.17563 42.101562 180.07422 C 41.994469 179.89809 41.662222 177.48102 41.28125 174.0918 C 41.182935 173.21113 40.987229 172.0832 40.847656 171.58594 C 40.708084 171.08867 40.542794 170.06719 40.480469 169.31641 C 40.225024 166.26077 40.069281 168.35245 40.025391 175.38086 L 39.980469 182.80859 L 38.3125 182.80859 L 36.644531 182.80859 L 36.599609 170.81055 C 36.563619 161.32962 36.600705 158.78396 36.775391 158.67188 C 36.918036 158.57981 38.140155 158.53376 39.363281 158.5332 z M 60.259766 158.5332 C 62.887836 158.53365 65.516392 158.58042 65.662109 158.67383 C 65.83065 158.78324 65.874759 159.43307 65.837891 161.29492 L 65.787109 163.77148 L 62.591797 163.86133 C 58.833868 163.9663 58.997739 163.87446 59.064453 165.83594 L 59.117188 167.33008 L 62.277344 167.43359 C 64.015419 167.49053 65.458041 167.55039 65.484375 167.56641 C 65.511587 167.58331 65.511587 168.73887 65.484375 170.13281 L 65.4375 172.66797 L 62.453125 172.75781 C 60.81161 172.80674 59.369185 172.91106 59.248047 172.99023 C 59.061072 173.11299 58.895825 177.27742 59.072266 177.41797 C 59.096844 177.43754 60.695759 177.49652 62.626953 177.55078 L 66.138672 177.65039 L 66.138672 180.22852 L 66.138672 182.80859 L 60.433594 182.80859 L 54.726562 182.80859 L 54.683594 170.81055 C 54.647603 161.32962 54.682737 158.78396 54.857422 158.67188 C 55.0027 158.57847 57.631695 158.53276 60.259766 158.5332 z M 248.11133 158.5332 C 250.7394 158.53365 253.36795 158.58042 253.51367 158.67383 C 253.68221 158.78324 253.72632 159.43307 253.68945 161.29492 L 253.64062 163.77148 L 250.44336 163.86133 C 246.68543 163.9663 246.85125 163.87446 246.91797 165.83594 L 246.96875 167.33008 L 250.12891 167.43359 C 251.86698 167.49053 253.31156 167.55039 253.33789 167.56641 C 253.3651 167.58331 253.3651 168.73887 253.33789 170.13281 L 253.28906 172.66797 L 250.30469 172.75781 C 248.66317 172.80674 247.2227 172.91106 247.10156 172.99023 C 246.91459 173.11299 246.74934 177.27742 246.92578 177.41797 C 246.95036 177.43754 248.54927 177.49652 250.48047 177.55078 L 253.99219 177.65039 L 253.99219 180.22852 L 253.99219 182.80859 L 248.28516 182.80859 L 242.58008 182.80859 L 242.53516 170.81055 C 242.49917 161.32962 242.53625 158.78396 242.71094 158.67188 C 242.85622 158.57847 245.48326 158.53276 248.11133 158.5332 z M 168.54102 158.54102 C 169.53898 158.55336 170.52409 158.6138 170.69922 158.70898 C 170.89497 158.81484 171.03711 159.07957 171.03711 159.33398 C 171.03711 159.57683 171.15017 160.23361 171.28711 160.79492 C 171.54343 161.84282 171.73639 162.77944 172.17969 165.10742 C 172.31926 165.84131 172.59761 167.20127 172.79688 168.13086 C 172.99702 169.06045 173.23018 170.27836 173.31445 170.83789 C 173.39872 171.39653 173.5199 171.94102 173.58398 172.04688 C 173.64894 172.15273 173.81961 172.89684 173.96094 173.69922 C 174.42442 176.31897 174.67837 177.63527 174.875 178.44922 C 175.19979 179.79245 175.45578 181.16406 175.54883 182.05273 L 175.63672 182.89844 L 173.54688 182.89844 C 171.20047 182.89844 171.03711 182.82612 171.03711 181.78711 C 171.03711 181.41083 170.91016 180.58667 170.75391 179.95508 L 170.46875 178.80664 L 168.4043 178.80664 C 165.93588 178.80664 166.00457 178.75251 165.75 180.875 C 165.49719 182.98504 165.58409 182.91898 163.1543 182.85938 L 161.11914 182.80859 L 161.17969 182.02344 C 161.21392 181.592 161.35398 180.92105 161.48828 180.5332 C 161.62346 180.14536 161.73242 179.55305 161.73242 179.2168 C 161.73242 178.87965 161.80802 178.4627 161.89844 178.29102 C 162.05118 178.00191 162.38985 176.37441 162.79102 174.00195 C 162.88231 173.46377 163.07009 172.58311 163.20703 172.04492 C 163.34397 171.50674 163.54887 170.58711 163.66211 170 C 163.77623 169.41289 163.98455 168.37051 164.125 167.68555 C 164.3743 166.46863 164.65539 165.0311 165.06445 162.88281 C 165.17594 162.2957 165.38084 161.44391 165.51953 160.99023 C 165.65823 160.53656 165.77168 159.93646 165.77344 159.65625 C 165.77695 159.07448 165.91941 158.7993 166.29688 158.6543 C 166.53037 158.56401 167.54305 158.52867 168.54102 158.54102 z M 98.744141 158.54883 C 99.722795 158.5446 100.69777 158.57002 100.90625 158.62695 C 101.27405 158.72658 101.35329 158.99348 101.95898 162.17188 C 102.0889 162.85684 102.28011 163.81738 102.38281 164.30664 C 102.48464 164.7959 102.68142 165.75645 102.81836 166.44141 C 103.44073 169.54508 103.62436 170.44036 103.89648 171.67773 C 104.05712 172.40628 104.2543 173.40775 104.33594 173.90234 C 104.53696 175.12193 104.83444 176.60872 105.04688 177.4707 C 105.14343 177.86211 105.32907 178.78369 105.45898 179.51758 C 105.5889 180.25146 105.7848 181.20635 105.89453 181.63867 C 106.00514 182.07011 106.05502 182.53134 106.00586 182.66211 C 105.88121 182.99125 101.71792 183.00492 101.59766 182.67578 C 101.55289 182.55391 101.43983 181.97187 101.34766 181.38477 C 101.25461 180.79766 101.11523 179.99883 101.03711 179.60742 L 100.89453 178.89453 L 98.744141 178.8457 L 96.595703 178.79492 L 96.408203 179.28906 C 96.306377 179.56127 96.152235 180.41962 96.064453 181.19531 C 95.869578 182.92729 95.896568 182.90867 93.527344 182.85352 C 91.257312 182.80103 91.276396 182.82492 91.771484 180.69531 C 92.474615 177.6717 92.567678 177.24226 92.726562 176.31445 C 92.817855 175.77627 92.979722 174.93652 93.085938 174.44727 C 93.192153 173.95801 93.392358 172.99746 93.529297 172.3125 C 93.667114 171.62754 93.941361 170.26562 94.140625 169.28711 C 94.339889 168.30859 94.625964 166.90771 94.773438 166.17383 C 94.920911 165.43994 95.125811 164.47939 95.228516 164.03906 C 95.33122 163.59873 95.48624 162.79795 95.572266 162.25977 C 95.658292 161.72158 95.80089 161.08057 95.888672 160.83594 C 95.975576 160.59131 96.095681 160.01672 96.15625 159.55859 C 96.231742 158.98661 96.359922 158.69879 96.564453 158.64453 C 96.783907 158.58582 97.765486 158.55305 98.744141 158.54883 z M 87.015625 158.55078 C 87.885431 158.55634 88.717476 158.59804 88.832031 158.67188 C 89.006717 158.78396 89.043803 161.32962 89.007812 170.81055 L 88.962891 182.80859 L 87.207031 182.86133 C 86.241434 182.89068 85.273461 182.86676 85.056641 182.8125 L 84.660156 182.71289 L 84.660156 170.7207 C 84.660156 159.4482 84.679949 158.72299 84.96875 158.64648 C 85.238239 158.57532 86.145819 158.54522 87.015625 158.55078 z M 74.380859 163.8457 C 74.242221 163.86876 74.111987 163.91949 73.994141 164 C 73.820333 164.11831 73.782369 165.60484 73.818359 170.81055 L 73.863281 177.4707 L 74.615234 177.52734 C 75.652813 177.60296 76.507238 177.0451 76.988281 175.97852 C 77.529016 174.77939 77.660138 168.02231 77.173828 166.36328 C 76.733713 164.85948 75.351328 163.68429 74.380859 163.8457 z M 168.31641 165.92969 C 168.25073 166.00855 168.1893 166.18899 168.14453 166.48633 C 168.08923 166.85372 167.93079 167.75244 167.79297 168.48633 C 167.38566 170.64974 167.16068 172.41104 167.26953 172.58984 C 167.4012 172.80512 169.40631 172.80902 169.53711 172.59375 C 169.66351 172.38648 169.33416 170.10803 169.00586 168.91602 C 168.86804 168.41875 168.75586 167.76871 168.75586 167.4707 C 168.75586 166.36253 168.51342 165.69309 168.31641 165.92969 z M 98.71875 165.94336 C 98.659799 165.98422 98.600049 166.07932 98.541016 166.23633 C 98.439189 166.50853 98.354591 166.90565 98.355469 167.11914 C 98.355469 167.33263 98.234091 168.18975 98.083984 169.02148 C 97.538861 172.0362 97.483189 172.47733 97.628906 172.625 C 97.878206 172.87763 100.03099 172.70526 99.976562 172.4375 C 99.950228 172.3094 99.844892 171.5885 99.742188 170.83594 C 99.639483 170.08248 99.441627 169.02877 99.304688 168.49414 C 99.168626 167.95952 99.056443 167.23862 99.054688 166.89258 C 99.051396 166.19205 98.895602 165.82077 98.71875 165.94336 z " /></g>
<g transform="matrix(0.66890185,0,0,0.56100371,-2.7734384,0.03043847)" style="fill:#FFF"><path d="m 62.1745,19.570868 c -3.781656,0 -7.456858,3.630126 -8.132081,8.12871 v 0.242087 l -0.06894,0.07991 v 0.242087 l -0.06894,0.161 v 0.160999 l -0.06894,0.161 v 0.240911 l -0.06894,0.160999 v 0.242087 l -0.06894,0.240912 -0.06894,0.242087 -0.06894,0.481823 -0.137884,0.564086 -0.06894,0.562911 -0.137884,0.564085 -0.06894,0.642822 -0.137884,0.643999 -0.137883,0.725085 -0.137884,0.643998 -0.206825,1.367908 -0.137883,0.72391 -0.137884,0.643998 -0.06894,0.643997 -0.137884,0.643999 -0.136869,0.643997 -0.06894,0.643998 -0.06894,0.562911 -0.137883,0.482998 -0.06894,0.56291 v 0.242087 l -0.06894,0.161 v 0.401911 l -0.06894,0.242087 v 0.320824 L 51.354732,43.152 v 0.160999 c -0.07198,1.96725 0.16323,4.653708 0.688403,5.151984 0.668127,4.334058 13.036067,24.393183 12.680206,27.447472 -0.33457,3.063691 -1.792484,12.07379 -1.792484,12.07379 -0.448121,3.039016 -2.222357,5.473987 -4.823893,5.473987 -2.601535,0 -4.375771,-2.426751 -3.928663,-5.473987 l 2.343004,-14.97178 h -9.234134 l -3.101389,20.76658 c -0.632642,4.217697 1.812761,7.565785 5.444367,7.565785 h 13.161784 c 3.6458,0 7.119246,-3.348088 7.787373,-7.565785 0,0 3.391323,-19.397494 3.376116,-20.766577 -0.01419,-1.377309 -0.344709,-1.528908 -0.344709,-1.528908 0,-1.577089 -11.005328,-22.794939 -12.128672,-23.583484 -0.483606,-0.332576 -0.882049,-2.43262 -0.895229,-3.701813 -0.02129,-1.262142 1.446763,-9.73988 1.446763,-9.73988 0.448121,-3.037838 2.911773,-5.473983 5.512295,-5.473983 2.601536,0 3.687368,2.434971 3.239247,5.473983 L 68.786821,47.902074 H 78.09091 L 81.329143,27.698403 C 82.061142,23.198644 79.59749,19.569692 75.816848,19.569692 H 62.1745 Z m 25.359397,0 -11.026618,74.212521 c -0.632642,4.217697 1.812761,7.565781 5.444367,7.565781 h 13.161785 c 3.6458,0 7.181089,-3.348084 7.856309,-7.565781 L 114.7537,19.570868 h -8.26996 L 95.2503,91.690405 c -0.163229,1.045901 -1.034126,1.931986 -1.929354,1.931986 h -6.546421 c -0.917533,0 -1.52787,-0.877857 -1.378835,-1.931986 L 96.353368,19.570868 Z m 31.701013,0 -13.30067,81.778302 h 8.82048 l 6.06484,-37.02515 H 132.053 c 3.65289,0 7.11924,-3.373938 7.78635,-7.566975 l 4.82389,-29.057467 c 0.7249,-4.507985 -1.73165,-8.12871 -5.51229,-8.12871 z m 31.49317,0 -13.78327,81.778302 h 19.8471 l 1.37883,-10.141766 h -9.78566 l 3.99659,-27.608469 h 9.78566 l 1.37884,-8.531797 h -9.78567 l 4.34232,-25.354479 h 9.78566 l 1.37883,-10.141791 z m 23.70581,0 -13.23073,81.778302 h 8.82049 l 5.99589,-37.02515 h 6.27066 c 0.82426,0.895486 0.91956,2.550138 1.03311,3.379814 0.16323,1.203383 0.33457,2.740516 0.20682,3.943899 -0.11355,1.195157 -4.82389,29.700267 -4.82389,29.700267 h 8.82049 c 0,0 4.96177,-31.054073 4.96177,-31.552349 0.0142,-0.506501 0.001,-2.098869 -0.48259,-2.977902 -0.32038,-0.564085 -0.87698,-1.861483 -1.51672,-2.333905 -1.2298,-0.92134 -2.61877,-1.528907 -2.61877,-1.528907 h -0.62047 c 2.52347,-1.162251 7.28348,-3.076618 7.78737,-6.197892 l 4.82389,-29.057467 c 0.732,-4.507985 -1.73165,-8.12871 -5.51331,-8.12871 z m 47.20682,0 -13.30068,81.778302 h 10.13037 l 8.20001,-47.409028 3.23925,47.409028 h 8.8215 l 13.30068,-81.778302 h -10.13038 l -6.89113,42.740071 -4.54812,-42.740071 z m 35.00819,0 -13.30068,81.778302 h 8.82049 l 13.29966,-81.778302 z m 13.43756,0 -13.29967,81.778302 h 10.19932 l 8.2,-47.409028 3.23925,47.409028 h 8.82049 L 300.54551,19.570868 H 290.3462 l -6.82219,42.740071 -4.54813,-42.740071 z m 34.18191,0 -1.65461,10.141791 h 5.51331 l -10.88873,71.636511 h 10.06143 l 11.09556,-71.636511 h 5.30649 l 1.37883,-10.141791 z m 24.25734,0 -13.78327,81.778302 h 19.8471 l 1.37782,-10.141766 h -9.78567 l 4.06554,-27.608469 h 9.78566 l 1.37884,-8.531797 h -9.78567 l 4.27236,-25.354479 h 9.78567 l 1.37782,-10.141791 z m 22.39693,0 -13.30068,81.778302 h 10.19932 l 8.20001,-47.409028 3.23924,47.409028 h 8.8215 L 381.3817,19.570868 h -10.19932 l -6.82219,42.740071 -4.54812,-42.740071 z m 35.07714,0 -13.30068,81.778302 h 20.12287 c 3.6529,0 7.18109,-3.348084 7.85631,-7.565781 l 10.68191,-66.083811 c 0.7249,-4.507985 -1.73165,-8.12871 -5.51331,-8.12871 z m 37.83379,0 c -3.78165,0 -7.38791,3.630126 -8.06314,8.12871 l -9.8546,66.083811 c -0.63974,4.217697 1.7499,7.565781 5.37441,7.565781 h 14.54163 c 3.6458,0 7.18109,-3.348084 7.85631,-7.565781 l 10.68191,-66.083811 c 0.732,-4.499759 -1.73875,-8.12871 -5.51331,-8.12871 z m -30.32218,9.416706 h 4.06553 c 2.60154,0 4.37577,2.434969 3.92866,5.473981 l -8.68361,53.527034 c -0.45522,3.039016 -2.98072,5.553894 -5.58225,5.553894 h -3.99659 z m 35.49078,0 h 0.27577 c 2.60154,0 4.30683,2.434969 3.85871,5.473981 l -8.26996,53.527034 c -0.44813,3.029615 -2.84284,5.553894 -5.44437,5.553894 -2.60154,0 -3.68737,-2.516051 -3.23925,-5.553894 l 8.20001,-53.527034 0.0689,-0.240911 0.0689,-0.242087 0.069,-0.321999 0.0689,-0.240911 0.0689,-0.321999 0.0689,-0.242087 0.0689,-0.240912 0.13789,-0.240911 0.0689,-0.242087 0.13788,-0.240911 0.0689,-0.242087 0.13789,-0.240912 0.13788,-0.161 0.13788,-0.242086 0.13789,-0.240912 0.20682,-0.161 0.13788,-0.160999 0.13789,-0.160999 0.20682,-0.161 0.20683,-0.160999 0.13788,-0.161 0.20683,-0.160999 0.20682,-0.07991 0.20683,-0.160999 0.13788,-0.08109 0.27577,-0.07991 0.20682,-0.08109 h 0.20683 l 0.20682,-0.07991 h 0.27577 z m -301.29149,0.321999 h 4.27236 c 0.93781,0 2.92698,2.509006 2.75665,3.6219 l -3.65289,20.202496 c -0.17033,1.045909 -1.37883,3.460902 -2.27406,3.460902 h -5.30648 l -0.0689,-0.07991 h -0.27577 v -0.08109 h -0.13789 l -0.0689,-0.07991 h -0.0689 l -0.0689,-0.08109 -0.0689,-0.07991 h -0.0689 v -0.08109 l -0.0689,-0.07991 -0.0689,-0.08109 v -0.07992 l -0.0689,-0.08109 -0.0689,-0.07991 v -0.161 l -0.0689,-0.07991 V 55.30806 l -0.0689,-0.08109 v -0.07992 c 0,-0.132796 -0.0142,-0.333751 0,-0.482999 l 4.13448,-24.710481 c 0.37918,-0.365481 0.8425,-0.643998 1.3109,-0.643998 z m 54.92422,0 h 4.27236 c 0.93781,0 2.94118,2.509006 2.75666,3.6219 l -3.65189,20.122584 c -0.16323,1.054135 -2.40586,3.540814 -3.30818,3.540814 h -3.78977 c -0.78168,0 -1.32104,-0.601692 -1.37883,-1.447821 0,-0.132795 -0.0142,-0.325525 0,-0.482999 l 4.06654,-24.710481 0.0689,-0.07991 0.0689,-0.08109 0.13789,-0.07991 h 0.0689 l 0.0689,-0.08109 0.0689,-0.07991 h 0.0689 l 0.0689,-0.08109 h 0.0689 l 0.13788,-0.07991 h 0.20682 v -0.08109 z"/></g>
</svg>
