<svg id="svg" version="1.1" viewBox="0 0 269.66498 177.22554" xmlns="http://www.w3.org/2000/svg">
 <path d="m173.22025 1.514375c-0.0729 0.280211-0.0904 0.551526-0.0395 0.603121 0.14133 0.143219 0.31338-0.429657 0.23876-0.791708-0.0491-0.237513-0.10182-0.187697-0.19926 0.188587m-96.544799 12.980454c-0.20366 0.510607-0.16679 0.939375 0.0606 0.708979 0.10446-0.105858 0.16328-0.382511 0.12992-0.613796-0.0527-0.370057-0.0755-0.381622-0.19048-0.09518m19.66131-0.128987c-0.0702 0.07117-0.12553 0.296224-0.12289 0.499933 5e-3 0.34248 0.0193 0.346928 0.18785 0.05248 0.19663-0.341591 0.1466-0.7668-0.065-0.552417m79.003419 0c-0.0702 0.07117-0.12553 0.296224-0.1229 0.499933 5e-3 0.34248 0.0193 0.346928 0.18785 0.05248 0.19663-0.341591 0.1466-0.7668-0.065-0.552417m-154.535948 2.561043-2.80901 0.102299 3.01793 0.03825c1.863603 0.02313 3.060066-0.03024 3.12678-0.14055 0.05969-0.09785-0.03424-0.161011-0.20892-0.140551-0.174685 0.02135-1.581824 0.08362-3.12678 0.140551m94.844478 1.530932c-0.0702 0.07116-0.1229 0.336253-0.11675 0.588888l0.0105 0.459903 0.16942-0.429658c0.18259-0.462571 0.14484-0.830848-0.0632-0.619133m-59.946036 1.802248c0.461731 0.03736 1.172761 0.03647 1.580068-8.9e-4 0.407306-0.03736 0.02985-0.06761-0.839192-0.06672-0.869037 8.9e-4 -1.202607 0.03113-0.740876 0.06761m36.599647-0.0018c0.31338 0.03914 0.82778 0.03914 1.14116 0 0.31426-0.04003 0.0571-0.07205-0.57058-0.07205-0.62764 0-0.88484 0.03202-0.57058 0.07205m-53.901395 1.224035c-0.07023 0.07116-0.125528 0.296223-0.122894 0.499932 0.0053 0.342481 0.01931 0.346928 0.187852 0.05248 0.196631-0.341591 0.146596-0.7668-0.06496-0.552416m135.183616 2.84659c-0.0702 0.07117-0.12026 0.456344-0.1106 0.855757l0.0176 0.72677 0.16239-0.700083c0.17118-0.740114 0.14309-1.097717-0.0694-0.882444m-0.61447 4.16225c0 0.34248 0.0369 0.483031 0.0808 0.311346 0.0439-0.170796 0.0439-0.451007 0-0.622692-0.0439-0.170795-0.0808-0.03113-0.0808 0.311346m19.57354 1.482006c-0.19575 0.504381-0.16328 0.761463 0.0658 0.529288 0.10534-0.106747 0.1624-0.34337 0.12641-0.52484-0.0632-0.318462-0.0702-0.318462-0.19224-0.0044m-38.62389 3.024503c-0.19576 0.50438-0.16328 0.761463 0.0658 0.529288 0.10534-0.106747 0.1624-0.34337 0.12641-0.52484-0.0632-0.318463-0.0702-0.318463-0.19224-0.0044m-19.32336 1.786236c-0.0729 0.280211-0.0904 0.551527-0.0395 0.603121 0.14133 0.143219 0.31338-0.429657 0.23876-0.791708-0.0491-0.237512-0.10182-0.187697-0.19926 0.188587m-133.060033 1.993437c-0.07198 0.07472-0.129038 0.341591-0.126405 0.594226 0.0044 0.40386 0.02809 0.420761 0.187853 0.143219 0.199264-0.348708 0.149228-0.952719-0.06145-0.737445m133.424475 3.02984c-0.0702 0.07117-0.12289 0.336253-0.11675 0.588888l0.0105 0.459903 0.16942-0.429658c0.18258-0.462571 0.14484-0.830848-0.0632-0.619133m-68.265938 18.857775c-1.293023 1.627894-2.745808 3.457718-3.228606 4.066177-2.499142 3.151709-3.694727 4.642611-3.786019 4.722672-0.0553 0.04892-1.911005 2.370676-4.123101 5.159446-5.396811 6.804241-7.07695 8.916945-7.428076 9.340376-0.162396 0.195703-1.347447 1.67682-2.635203 3.29137-1.286878 1.614551-2.62818 3.288702-2.981062 3.720139-0.352004 0.431441-0.996321 1.240931-1.43084 1.797801-0.434519 0.55775-1.422061 1.8058-2.194539 2.77365-2.655393 3.32962-6.66701 8.344056-6.959323 8.698996-0.75141 0.91269-8.665797 10.85707-9.98252 12.5419-0.434519 0.55686-1.077958 1.36458-1.43084 1.79602-0.602181 0.73834-4.14329 5.15055-5.353798 6.67348-0.303724 0.38162-1.311457 1.64301-2.23843 2.80389-0.927851 1.16087-1.686284 2.17942-1.686284 2.26482 0 0.31668 0.948041 0.35226 7.870496 0.30245l7.079583-0.0516 0.557413-0.63425c0.53459-0.60935 6.842574-8.49352 12.939004-16.17042 5.072019-6.38703 5.870831-7.38957 5.96388-7.4803 0.04916-0.0489 0.721564-0.88423 1.493164-1.85651 1.954896-2.460526 3.175938-3.991456 5.970025-7.483866 1.330769-1.66348 3.467372-4.3455 4.747227-5.960049 1.279856-1.614551 2.779165-3.49597 3.331311-4.180931 0.552146-0.68496 1.522132-1.908995 2.155915-2.720273 1.880282-2.407148 1.696818-4.773377 1.738953 22.456039 0.02985 19.22872 0.08076 23.85087 0.263345 23.9683 0.260711 0.16812 6.521293 0.20104 7.122597 0.0374 0.242277-0.0649 1.470341-1.45532 3.103077-3.5111 1.48702-1.87163 3.82289-4.80362 5.19053-6.51602 1.36851-1.7124 3.08464-3.86692 3.8141-4.7885 0.72947-0.92069 1.46683-1.84139 1.63976-2.04599 0.17206-0.20371 1.36501-1.69728 2.65101-3.31894 1.28512-1.62078 3.83956-4.8232 5.67595-7.11648 4.82097-6.021426 8.060109-10.084046 9.565559-11.997486 6.03674-7.672453 6.75743-8.52732 7.04096-8.349408 0.0913 0.05693 0.15713 10.036008 0.15713 23.819734 0 21.46774 0.0263 23.73256 0.27739 23.83041 0.46788 0.18147 10.72515 0.12098 11.21059-0.0658l0.45119-0.17347-0.0448-36.253996-0.0439-36.254003h-7.71512l-3.34009 4.202279c-1.83727 2.311076-4.00986 5.033129-4.82623 6.049006-1.42118 1.766665-6.85398 8.582471-8.697399 10.912228-1.13852 1.439307-4.14504 5.202144-5.26689 6.593416-0.4828 0.598673-2.27618 2.844811-3.98616 4.990429-1.70911 2.146505-4.38557 5.503705-5.94633 7.460735-1.56163 1.95703-3.55164 4.462026-4.42331 5.565976-0.87167 1.10394-1.67224 1.97749-1.77845 1.94191-0.17644-0.0596-0.2177-27.91883-0.0632-43.179225l0.0456-4.536754-4.057264-0.04804-4.057265-0.04715-2.35079 2.959565m68.301958-2.513896c-10.23884 5.411191-9.96496 38.126524 0.36254 43.288634l0.9656 0.48303 12.64054 0.089 12.64055 0.089 0.91732 0.42076c3.89223 1.78268 4.7007 8.80931 1.37202 11.91832l-0.78915 0.73744h-17.45976c-15.63916 0-17.48872 0.0294-17.73626 0.27932-0.48105 0.48837-0.40994 14.7578 0.0746 15.02111 0.24491 0.13254 6.54938 0.17435 20.84812 0.13966l20.49788-0.0507 0.72332-0.39229c10.4741-5.67806 10.48024-37.200496 9e-3 -42.956829l-1.08323-0.595115-12.90389-0.08896c-11.32119-0.07828-12.97938-0.123649-13.51924-0.372726-4.14417-1.913443-4.27496-10.266408-0.2019-12.833677l0.64169-0.40386 16.80666-0.04893c16.40111-0.04715 16.81017-0.05693 16.98749-0.392295 0.1185-0.224169 0.16503-2.8288 0.13518-7.512331l-0.0456-7.168961-20.54088-0.03647-20.54089-0.03647-0.80145 0.42343m46.47947-0.32291c-0.20366 0.205488-0.14221 60.531864 0.0623 61.719424 0.84183 4.87834 4.36801 8.85823 9.38649 10.59376l1.22894 0.42521h28.79235l1.52652-0.5533c4.63224-1.68038 8.01095-5.48058 8.95285-10.06982 0.18434-0.89667 0.22998-7.18942 0.22998-31.630955v-30.512038h-11.84963l-0.0448 26.153053-0.0439 26.153046-0.4907 0.99631c-1.81971 3.69345-3.92647 4.42378-12.76432 4.42467-8.65965 0-10.62069-0.6476-12.47815-4.11955l-0.6013-1.12352-0.0878-26.242-0.0878-26.242009-5.80588-0.04715c-3.19349-0.0258-5.85942 8e-3 -5.92525 0.07472m68.3081 2.16074c-0.99017 1.256058-2.40872 3.038736-3.15135 3.962099-0.74176 0.922473-3.52794 4.397093-6.19124 7.721377l-4.84203 6.043669 0.0474 4.453135 0.0465 4.453136 5.64786 0.08895c3.10572 0.04893 5.69615 0.138772 5.75584 0.199262 0.0606 0.06138 0.10446 9.850095 0.0992 21.753291l-0.01 21.64209 0.45295 0.17525c0.59692 0.2295 10.79626 0.23039 11.39229 8.9e-4l0.4512-0.17347-0.0448-36.253996-0.0439-36.254004-3.90452-0.04804-3.90365-0.04804-1.80216 2.284389m-76.90631 89.237951c-2.00142 0.75434-3.30848 2.51389-4.31534 5.80615-1.18505 3.87848-0.85675 10.97272 0.70928 15.29687 2.23755 6.17888 9.81046 5.30178 11.20531-1.29787 0.0974-0.4599 0.25896-1.21692 0.35815-1.68216 0.20804-0.97495 0.25808-0.91713-1.79074-2.04598-1.66171-0.91536-1.83903-0.89223-1.99089 0.26687-0.51966 3.94697-3.27513 4.74758-4.46106 1.29608-0.55302-1.60654-0.54688-8.36364 8e-3 -10.06803 1.07182-3.2887 3.67103-3.14548 4.35397 0.23929 0.12728 0.62803 0.53196 0.81039 1.13326 0.50883 0.20453-0.1023 0.80671-0.36294 1.33779-0.57911 1.63537-0.66628 1.69857-1.51047 0.32304-4.34016-1.5274-3.14192-4.13452-4.43267-6.87067-3.40078m-161.686628 0.41008c-0.291434 0.0774-0.306357 0.76414-0.263344 12.12203l0.04477 12.04019h3.3357l0.04565-7.51678c0.04389-7.18052 0.201898-9.21139 0.473143-6.06679 0.06847 0.79793 0.20102 1.65458 0.294946 1.90454 0.09393 0.24997 0.284412 1.37882 0.423107 2.50856 0.460854 3.74594 0.625005 4.88902 0.882205 6.14597 0.140451 0.68496 0.254567 1.61722 0.253689 2.07178-0.0035 0.99898 0.07549 1.04168 1.931194 1.04168 1.60377 0 1.437863 0.23217 1.837269-2.57972 0.15274-1.07637 0.393261-2.64467 0.535467-3.48441 0.142206-0.84063 0.258078-1.86985 0.258078-2.28706 0-0.41809 0.110605-1.21158 0.246666-1.76399 0.135184-0.55242 0.299335-1.67505 0.365172-2.49433 0.06496-0.82017 0.165029-1.61455 0.222965-1.76666 0.282657-0.74635 0.370438 0.90824 0.38185 7.19386 0.01405 7.86371-0.163274 7.22056 1.970696 7.14495l1.465074-0.0516v-24.19602l-2.416626-0.0498c-2.951217-0.0605-3.054799-0.0169-3.189983 1.33879-0.05618 0.56309-0.18873 1.52115-0.294068 2.12872-0.264222 1.52203-1.170128 8.36542-1.207874 9.1251-0.06496 1.3121-0.879572-1.67237-1.238598-4.53675-0.883961-7.0551-1.033189-7.87172-1.465075-7.98914-0.431007-0.11742-4.437358-0.10319-4.892067 0.0169m18.083004 0c-0.291435 0.0774-0.306358 0.76414-0.263345 12.12203l0.04477 12.04019 5.354676 0.0498c6.900509 0.0641 6.14471 0.38518 6.14471-2.61353 0-2.96223 0.371316-2.68469-3.599045-2.68469-3.949293 0-3.599044 0.23573-3.599044-2.42049 0-1.21336 0.02019-2.22034 0.04389-2.23902 0.02458-0.0187 1.465952-0.0792 3.204027-0.13344l3.160137-0.0996 0.04916-2.38758c0.06145-2.97201 0.31777-2.75318-3.348867-2.86082l-3.020564-0.089-0.05091-1.64568c-0.05969-1.97304-0.576725-1.69639 3.386613-1.81381l3.3357-0.0987 0.04916-2.47743c0.03687-1.86185-7e-3 -2.51211-0.175564-2.62153-0.230865-0.14767-10.162472-0.17346-10.715496-0.0267m14.747304-6e-3c-0.291435 0.0827-0.306358 0.77302-0.263345 12.12825l0.04477 12.04019 3.539353 0.048c4.008106 0.0543 4.734938-0.10141 6.003381-1.29075 2.370981-2.22301 3.43226-8.78618 2.518454-15.56996-0.443297-3.28693-1.869748-6.03478-3.634157-6.99906-0.683819-0.3745-7.161221-0.65561-8.208455-0.35671m15.274871 0.0756c-0.287923 0.16991-0.307235 0.93582-0.307235 12.08911v11.90765l0.395017 0.10052c0.21682 0.0543 1.185051 0.0765 2.150648 0.0471l1.755632-0.0516 0.04477-12.03218 0.04565-12.03307-0.396773-0.10764c-0.645195-0.17524-3.355012-0.11653-3.687704 0.0801m11.722351-0.0294c-0.343226 0.13522-0.508255 0.66273-0.98052 3.12858-0.09393 0.48926-0.281779 1.40996-0.418718 2.04599-0.136939 0.63604-0.369561 1.75688-0.517911 2.49077-0.147473 0.73389-0.435397 2.13494-0.63905 3.11346-0.202776 0.97851-0.48631 2.37957-0.629394 3.11346-0.143084 0.73388-0.338837 1.65458-0.436274 2.04598-0.09744 0.39141-0.287046 1.3121-0.421352 2.04599-0.232621 1.26584-0.5223 2.67491-0.979642 4.75114-0.318647 1.45354-0.28968 1.47578 1.919783 1.47578 2.287587 0 2.263009 0.0196 2.482462-1.9339 0.252811-2.24703 0.165908-2.17765 2.669438-2.11894l2.121677 0.0498 0.22034 0.88956c0.12113 0.48926 0.27826 1.32989 0.34849 1.86807 0.16239 1.2445 0.15186 1.23916 2.48861 1.24272 2.26213 3e-3 2.27003-3e-3 1.92417-1.37615-0.14133-0.5622-0.30987-1.42329-0.37395-1.91255-0.0641-0.48926-0.18961-1.08971-0.27915-1.33434-0.15186-0.41721-0.50737-2.21234-0.88045-4.4478-0.0895-0.53818-0.27387-1.45888-0.40906-2.04599-0.13518-0.58711-0.36693-1.66792-0.5144-2.40181-0.14747-0.73388-0.36166-1.77467-0.47577-2.31285-0.27827-1.31388-0.60043-2.96491-0.94717-4.85611-0.15713-0.8602-0.36254-1.76578-0.45471-2.01307-0.093-0.24641-0.16854-0.64493-0.16854-0.886 0-0.70454-3.31814-1.14932-4.648909-0.62181m18.562289 0.0205-0.39501 0.16101v11.80179c0 8.94097 0.0509 11.85249 0.21067 12.01439 0.22297 0.22595 10.5373 0.3238 11.099099 0.10586 0.41521-0.1619 0.41521-4.96018 0-5.12208-0.15274-0.0587-1.647659-0.10764-3.321649-0.10764-3.93964 0-3.59905 0.21972-3.59905-2.32175 0-2.57172-0.27563-2.37157 3.42348-2.48187l2.98458-0.089 0.0483-2.53524c0.0272-1.39394 0.0272-2.54859 0-2.56549-0.0263-0.016-1.470339-0.0765-3.208419-0.13344l-3.16013-0.10319-0.0518-1.50869c-0.0693-2.02908-0.1975-1.96059 3.6842-1.96059h3.126779v-2.56104c0-2.17053-0.0421-2.57705-0.27739-2.66868-0.442419-0.17168-10.126489-0.1023-10.563639 0.0756m14.659519-0.0605c-0.2888 0.0765-0.30723 0.8015-0.30723 12.074v11.99215l0.39502 0.10052c0.21769 0.0551 1.10604 0.0765 1.97508 0.048l1.58007-0.0525 0.0878-5.90134c0.0483-3.24511 0.1466-5.96094 0.21946-6.03388 0.0728-0.0729 0.13255-0.0196 0.13255 0.1192 8.7e-4 0.13877 0.12377 0.49015 0.27387 0.78192 0.15011 0.29178 0.47051 1.05235 0.71103 1.69017 0.24053 0.63781 0.55215 1.42329 0.69172 1.74442 0.13958 0.32114 0.25369 0.66539 0.25369 0.76592 0 0.0996 0.14396 0.51772 0.3204 0.92781 0.17557 0.41008 0.45998 1.10661 0.63203 1.54694 0.17118 0.44033 0.42223 1.06391 0.55742 1.38504 0.13518 0.32114 0.24842 0.68141 0.25193 0.80061 4e-3 0.1192 0.15801 0.5364 0.34498 0.92781s0.34147 0.80327 0.34498 0.91536c0.01 0.32824 0.467 0.41898 2.1129 0.41898 0.85324 0 1.67663-0.0489 1.82937-0.10764 0.47753-0.18592 0.41696-23.82241-0.0623-24.08216-0.36517-0.19837-2.65452-0.24818-3.30322-0.072l-0.39502 0.10764v5.30177c0 2.91598-0.0483 5.42898-0.10622 5.58377-0.19224 0.50527-0.55741 0.29622-0.82953-0.47503-0.1466-0.41542-0.43452-1.19646-0.63905-1.73464-0.41521-1.08882-0.48982-1.28897-1.65293-4.4478-0.45032-1.22314-0.88747-2.38402-0.97262-2.57972-0.0843-0.1957-0.25105-0.61913-0.37044-0.94115-0.11938-0.32114-0.3599-0.66184-0.53283-0.75613-0.3125-0.16902-2.95034-0.20549-3.54287-0.048m16.41516 0.0605-0.39502 0.16101v11.90676c0 10.6934 0.0281 11.91832 0.27739 12.01528 0.15274 0.0587 1.01563 0.10764 1.91715 0.10764 2.42804 0 2.19454 0.5284 2.19454-4.96463 0-5.60156-0.17907-5.17724 2.18576-5.17368 2.40522 4e-3 2.19015-0.49193 2.24458 5.16567l0.0465 4.88368 1.75563 0.0516c0.9656 0.0293 1.93383 7e-3 2.15065-0.0471l0.39502-0.10052v-11.91049c0-13.80864 0.28792-12.28037-2.3148-12.27593-2.23668 4e-3 -2.06024-0.35315-2.11466 4.27523l-0.0474 3.99501-1.75563 0.0516c-2.81867 0.0836-2.54567 0.52662-2.54567-4.12577 0-3.97634 0-3.979-0.39502-4.08664-0.59691-0.1619-3.1496-0.1112-3.59904 0.0712m19.93256-0.0614c-0.18961 0.0498-0.33884 0.32291-0.40116 0.73478-0.0544 0.36116-0.21507 1.06302-0.3564 1.56118-0.1422 0.49726-0.25807 1.08437-0.25807 1.30498 0 0.21972-0.11763 0.89312-0.26071 1.49624-0.14309 0.60312-0.42487 1.89743-0.62501 2.87595-0.20102 0.97851-0.48016 2.33954-0.62061 3.0245-0.37571 1.83694-0.74527 3.61873-0.95946 4.62571-0.10358 0.48926-0.29143 1.44998-0.41696 2.13494s-0.3125 1.60566-0.41521 2.04599c-0.55653 2.37423-0.74263 3.3483-0.74175 3.86958l2e-3 0.57822h1.91891c2.34289 0 2.35693-0.0116 2.61677-2.05488 0.26949-2.11271 0.19312-2.05756 2.72913-1.99796l2.12256 0.0498 0.13518 0.71165c0.0746 0.3914 0.20804 1.22136 0.29582 1.84494 0.2098 1.48913 0.1703 1.46689 2.48598 1.40818l2.00405-0.0507-0.0263-0.8006c-0.014-0.44033-0.19751-1.56118-0.40819-2.49077-0.2098-0.92959-0.48806-2.29061-0.61974-3.0245-0.13079-0.73389-0.32303-1.73464-0.42837-2.2239-0.10446-0.48926-0.30636-1.44998-0.44856-2.13494-0.14221-0.68496-0.37571-1.80581-0.51967-2.49077s-0.3441-1.68572-0.44505-2.2239c-0.40468-2.16519-0.67329-3.50842-0.855-4.26989-0.29933-1.25516-0.57233-2.68736-0.6724-3.52532-0.072-0.60757-0.18083-0.80238-0.5223-0.93404-0.42838-0.16457-3.72984-0.19926-4.3092-0.0445m11.6688 0.0614-0.39501 0.16101v11.90676c0 10.6934 0.0281 11.91832 0.27739 12.01528 0.52142 0.20193 3.50511 0.11742 3.72545-0.10586 0.15537-0.15745 0.21243-1.76399 0.21594-6.09348l6e-3 -5.87999 0.38888 0.81039c0.39589 0.82195 0.87518 2.0104 1.55724 3.8598 0.20717 0.56309 0.48368 1.27563 0.61447 1.58342 0.12992 0.30867 0.23701 0.64226 0.23701 0.74189 0 0.0996 0.115 0.40742 0.25545 0.68496 0.13957 0.27665 0.42574 0.98385 0.63378 1.57096 0.20892 0.58711 0.48982 1.33078 0.62325 1.65191s0.24315 0.70009 0.24315 0.84153c0 0.37094 0.56883 0.46435 2.45789 0.40564l1.66785-0.0525 0.0448-11.99749c0.036-9.48093-8.8e-4 -12.02773-0.17557-12.13982-0.36341-0.23395-3.19086-0.17346-3.52092 0.0747-0.2651 0.19838-0.30109 0.80061-0.34147 5.64604-0.0404 4.84899-0.0755 5.42987-0.33093 5.47969-0.18873 0.0374-0.32743-0.11209-0.40819-0.44211-0.0676-0.27399-0.22647-0.73834-0.35288-1.03189-0.12728-0.29356-0.43276-1.09416-0.67943-1.77912-0.24754-0.68496-0.89361-2.40626-1.4361-3.82511-0.54337-1.41885-1.05865-2.81101-1.14555-3.09389-0.34499-1.11995-2.55533-1.64746-4.16261-0.99275m32.12806 0-0.39502 0.16101v11.80179c0 8.94097 0.0509 11.85249 0.21068 12.01439 0.22296 0.22595 10.5373 0.3238 11.0991 0.10586 0.41521-0.1619 0.41521-4.96018 0-5.12208-0.15274-0.0587-1.64766-0.10764-3.32166-0.10764-3.93963 0-3.59904 0.21972-3.59904-2.32175 0-2.57172-0.27563-2.37157 3.42348-2.48187l2.98457-0.089 0.0483-2.53524c0.0272-1.39394 0.0272-2.54859 0-2.56549-0.0263-0.016-1.47034-0.0765-3.20841-0.13344l-3.16014-0.10319-0.0518-1.50869c-0.0694-2.02908-0.19751-1.96059 3.68419-1.96059h3.12678v-2.56104c0-2.17053-0.0421-2.57705-0.27739-2.66868-0.44242-0.17168-10.12648-0.1023-10.56363 0.0756m14.04505 0-0.39502 0.16101v11.80179c0 13.47149-0.18785 12.22789 1.84342 12.22789 2.00493 0 1.84341 0.69297 1.84341-7.89306 0-4.1071 0.0474-7.41804 0.10621-7.35933 0.0579 0.0587 0.17381 0.733 0.2572 1.49713 0.0834 0.76502 0.26774 1.87074 0.40907 2.45785s0.34235 1.82805 0.44768 2.75764c0.20102 1.77556 0.53108 4.22362 0.90942 6.76065 0.26949 1.80403 0.23438 1.77289 1.95665 1.77645 1.59236 4e-3 1.53442 0.072 1.86009-2.22123 0.11149-0.78281 0.28617-1.98372 0.38888-2.66868 0.1027-0.68496 0.29055-2.04599 0.41696-3.0245 0.1264-0.97852 0.31601-2.37957 0.42047-3.11346s0.23789-1.79424 0.29583-2.35733c0.0878-0.84598 0.26773-1.22137 0.46875-0.97852 0.0202 0.0249 0.0799 3.24689 0.13167 7.16096l0.0948 7.11647h3.33569l0.0448-11.90053c0.0342-8.98633-5e-3 -11.96279-0.16327-12.15494-0.21945-0.26865-5.06587-0.28466-5.32834-0.0187-0.0658 0.0676-0.19049 0.78815-0.27651 1.60121-0.0869 0.81394-0.23877 1.83961-0.33708 2.27994-0.0992 0.44033-0.25369 1.52115-0.34235 2.40181-0.0895 0.88066-0.25018 2.20166-0.35727 2.93555-0.1071 0.73388-0.25018 1.73464-0.3169 2.2239-0.23876 1.75065-0.86377 0.27487-1.24386-2.93555-0.34586-2.92576-0.5697-4.55099-0.81988-5.96005-0.13869-0.78281-0.25193-1.64569-0.25193-1.917 0-0.3665-0.11587-0.53819-0.45032-0.66717-0.56093-0.21616-4.4119-0.20816-4.94825 0.01m18.6966-0.0605c-0.29144 0.0774-0.30636 0.76414-0.26335 12.12203l0.0448 12.04019 5.35468 0.0498c6.90051 0.0641 6.14471 0.38518 6.14471-2.61353 0-2.96223 0.37131-2.68469-3.59905-2.68469-3.94929 0-3.59904 0.23573-3.59904-2.42049 0-1.21336 0.0202-2.22034 0.0439-2.23902 0.0246-0.0187 1.46595-0.0792 3.20403-0.13344l3.16013-0.0996 0.0492-2.38758c0.0615-2.97201 0.31777-2.75318-3.34887-2.86082l-3.02056-0.089-0.0509-1.64568c-0.0597-1.97304-0.57673-1.69639 3.38661-1.81381l3.3357-0.0987 0.0492-2.47743c0.0369-1.86185-7e-3 -2.51211-0.17557-2.62153-0.23086-0.14767-10.16247-0.17346-10.71549-0.0267m14.13371 0.0605-0.39502 0.16101v11.90676c0 10.6934 0.0281 11.91832 0.27739 12.01528 0.52142 0.20193 3.50512 0.11742 3.72545-0.10586 0.15537-0.15745 0.21243-1.76399 0.21594-6.09348l6e-3 -5.87999 0.38887 0.81039c0.39589 0.82195 0.87518 2.0104 1.55725 3.8598 0.20716 0.56309 0.48367 1.27563 0.61447 1.58342 0.12991 0.30867 0.23701 0.64226 0.23701 0.74189 0 0.0996 0.11499 0.40742 0.25544 0.68496 0.13957 0.27665 0.42574 0.98385 0.63378 1.57096 0.20892 0.58711 0.48982 1.33078 0.62325 1.65191s0.24316 0.70009 0.24316 0.84153c0 0.37094 0.56882 0.46435 2.45788 0.40564l1.66785-0.0525 0.0448-11.99749c0.036-9.48093-8.8e-4 -12.02773-0.17556-12.13982-0.36342-0.23395-3.19086-0.17346-3.52092 0.0747-0.2651 0.19838-0.30109 0.80061-0.34147 5.64604-0.0404 4.84899-0.0755 5.42987-0.33094 5.47969-0.18873 0.0374-0.32742-0.11209-0.40818-0.44211-0.0676-0.27399-0.22648-0.73834-0.35288-1.03189-0.12729-0.29356-0.43277-1.09416-0.67943-1.77912-0.24755-0.68496-0.89362-2.40626-1.43611-3.82511-0.54337-1.41885-1.05865-2.81101-1.14555-3.09389-0.34498-1.11995-2.55532-1.64746-4.1626-0.99275m15.44955-0.0658c-0.16151 0.0667-0.21945 0.76947-0.21945 2.65533v2.5646l1.62396 3e-3c0.89362 8.9e-4 1.80216 0.0507 2.01898 0.10942l0.39501 0.10763v9.20872c0 10.71297-0.25808 9.64194 2.30778 9.56989l1.81796-0.0507 0.0456-9.23541c0.0307-6.32299 0.10534-9.30835 0.23614-9.46758 0.13167-0.16101 0.80056-0.24908 2.14889-0.28377l1.9584-0.0498 0.0492-2.40004c0.043-2.10203 0.0114-2.42849-0.25281-2.6242-0.30109-0.22328-11.60121-0.32202-12.12966-0.10674m-196.270849 5.82702c1.126237 0.87088 1.264054 1.57007 1.264054 6.41995 0 5.58466-0.506499 6.80247-2.758975 6.6379l-0.752288-0.0552-0.04565-6.66013c-0.03599-5.2057 0.0018-6.69305 0.175563-6.81225 0.380972-0.26242 1.48702-0.0169 2.117292 0.46969m22.95927 2.53169c0.09217 0.67073 0.277389 1.73998 0.412573 2.37601 0.747021 3.51732 0.774241 3.38033-0.689085 3.38033-1.34657 0-1.350959-6e-3 -1.127994-1.44109 0.927852-5.96005 1.104293-6.50357 1.404506-4.31525m69.575673-0.60401c0.0448 0.31846 0.17381 1.0986 0.28617 1.73464 0.90942 5.15678 0.96999 4.62571-0.52757 4.62571-0.90854 0-1.22894-0.0623-1.22894-0.23751 0-0.32736 0.46437-3.38923 0.67943-4.47716 0.0966-0.48926 0.22384-1.18934 0.28266-1.55673 0.13167-0.82017 0.39853-0.86732 0.50825-0.0889" fill="#f7f7f7" fill-rule="evenodd"/>
 <path d="m0 113.88888v63.33665h269.66499v-126.673291h-269.66499v63.336641m77.155611-53.551485c-2e-3 2.495214-0.0263 13.211739-0.0536 23.81529-0.0272 10.603549-0.0254 19.303445 4e-3 19.332795 0.14835 0.14945 1.12887-1.01143 5.32044-6.299856 2.51056-3.16772 5.63119-7.09602 6.93475-8.731029 3.63503-4.558103 7.71951-9.663286 8.04869-10.05914 0.1624-0.195703 1.59587-1.997061 3.184719-4.003018 3.83693-4.842763 13.36913-16.769089 14.25748-17.839229l0.70488-0.84864 3.80007 0.04804 3.80006 0.04804 0.0439 36.186396c0.0334 26.599606-8e-3 36.250446-0.15274 36.427466-0.2493 0.30423-11.02361 0.3576-11.57839 0.0569-0.33357-0.18147-0.33971-0.61824-0.33269-23.79394 5e-3 -16.209554-0.0492-23.627592-0.17468-23.670291-0.19751-0.06672-0.36693 0.116532-1.86273 2.013963-2.60623 3.304714-3.66488 4.632827-3.75617 4.714666-0.0544 0.04893-0.92259 1.129741-1.92856 2.401816-1.00598 1.27207-3.09781 3.90516-4.649789 5.85241-1.5511 1.94636-3.21544 4.037706-3.69824 4.647056s-1.66785 2.09136-2.63345 3.29404c-0.96559 1.20179-2.13572 2.66957-2.60096 3.26113-0.46525 0.59155-1.10956 1.39927-1.4326 1.79602-1.05162 1.29075-5.96651 7.46785-6.32554 7.94999-0.19312 0.25886-0.85938 1.0995-1.48088 1.86808-2.81778 3.48351-3.53496 4.37841-5.12293 6.38881-0.93048 1.17956-1.96806 2.44007-2.305142 2.80212l-0.611837 0.65827h-3.458594c-2.068134 0-3.595533-0.0747-3.800942-0.18592-0.337081-0.18325-0.342348-0.55864-0.332692-23.95228 0.0044-13.072076-0.02721-23.803725-0.07198-23.849093-0.17293-0.174354-0.637294 0.269537-1.622204 1.552282-0.847092 1.102164-3.420847 4.333044-4.607654 5.782137-0.26949 0.330027-2.533376 3.173058-3.527942 4.432678-0.238765 0.30156-2.926637 3.67121-5.973535 7.48742-3.046021 3.816206-5.734771 7.187646-5.973536 7.492756-0.585503 0.74546-6.054295 7.59595-9.161763 11.47621-1.379926 1.72397-3.655225 4.57946-5.055341 6.34523-1.400116 1.76578-2.703672 3.25579-2.896791 3.31183-0.472265 0.137-14.204814 0.13611-14.557696-8.9e-4 -0.419596-0.16368-0.344982-0.38251 0.468753-1.37703 1.056013-1.28987 0.935752-1.14042 5.165068-6.43241 2.111147-2.64199 5.491615-6.88519 7.512347-9.42933s5.179113-6.50268 7.019892-8.79686c4.398735-5.484126 7.512347-9.385736 10.437229-13.077406 1.313212-1.659036 2.873091-3.620515 3.464739-4.358849 0.591647-0.739224 2.171716-2.714936 3.511262-4.391756 9.11085-11.404154 9.159129-11.464644 11.903181-14.937485 0.765456-0.96962 1.441374-1.802248 1.501065-1.851174 0.06057-0.04893 0.579359-0.689409 1.15345-1.423295 0.574969-0.733887 2.018976-2.556595 3.209294-4.051055l2.164694-2.715825 4.067798 0.04715 4.067797 0.04804-4e-3 4.536754m99.766389 2.757634c0.0237 4.011914-0.0211 7.39491-0.0992 7.518558-0.11149 0.177023-3.64908 0.233065-16.8962 0.266868l-16.75487 0.0427-0.70225 0.38429c-4.18016 2.290616-4.12222 10.76634 0.0878 12.835456 0.55566 0.272205 1.85395 0.310456 13.51836 0.390517 14.44095 0.09963 13.29715-0.0071 15.09843 1.407283 9.5085 7.467849 8.86594 36.611595-0.92873 42.112635l-0.91468 0.51327-20.45311 0.0507c-11.2492 0.0276-20.63042 5e-3 -20.84812-0.048l-0.39502-0.0987v-7.43316c0-5.54373 0.0536-7.48742 0.21068-7.64665 0.16064-0.16279 4.31271-0.21349 17.61776-0.21349h17.40709l0.6961-0.5106c2.8371-2.08246 3.19964-7.99092 0.66539-10.84729-1.44401-1.62701-0.53371-1.52828-15.00275-1.63058-14.43656-0.10141-13.11018 0.0427-15.26346-1.652796-5.47581-4.30903-8.15666-18.463694-5.71809-30.192538 0.49421-2.376013 1.70208-5.810603 2.58429-7.346873 0.26949-0.468798 0.48982-0.885112 0.48982-0.925142 0-0.530177 2.33938-3.105452 3.50248-3.85713l0.78214-0.504381 20.63657 0.04537 20.63744 0.04537 0.0421 7.294388m16.37302 18.858665 0.0878 26.153047 0.51703 1.06747c1.73457 3.58404 3.99582 4.35707 12.73799 4.3544 8.4481-3e-3 10.63386-0.75079 12.48956-4.27878l0.41433-0.78726 0.1756-52.66193h11.93829v30.778704c0 34.544266 0.11149 31.606046-1.31409 34.514906-1.62571 3.31628-4.54269 5.85242-8.15139 7.08801-1.23684 0.42343-26.4916 0.68941-29.54201 0.31135-5.30376-0.65738-10.15018-5.35426-11.10349-10.76011-0.13519-0.76769-0.29319-52.37638-0.18961-61.89111 8.8e-4 -0.07472 2.66856-0.114753 5.92701-0.08896l5.92526 0.04715 0.0878 26.153053m66.14429 10.052021c0.0421 33.881546 0.0263 36.219306-0.25281 36.427466-0.38361 0.28644-11.13158 0.32202-11.65388 0.0383-0.33269-0.18058-0.33972-0.61113-0.33972-21.79866v-21.614563l-0.4828-0.185918c-0.30635-0.118312-2.34727-0.169906-5.58378-0.14144-2.8055 0.02402-5.19579-0.01512-5.31079-0.08718-0.15361-0.09607-0.20979-1.318327-0.20979-4.555435v-4.42289l3.02846-3.782408c1.66609-2.08068 3.53584-4.428228 4.15558-5.217267 0.61886-0.789929 1.17276-1.47578 1.22982-1.524705 0.10534-0.09074 2.27881-2.807451 3.69999-4.62571 0.43452-0.555975 1.07796-1.363695 1.42909-1.795132 0.352-0.431436 1.04723-1.286303 1.54583-1.900099l0.90591-1.115508 3.89662 0.04804 3.8975 0.04804 0.0448 36.205069m-82.3356 55.464046c0.84972 0.43321 2.14626 1.69817 2.14626 2.09491 0 0.0801 0.10621 0.2722 0.23525 0.4261 0.22384 0.26776 0.7005 1.5505 1.17364 3.15882 0.12026 0.40831 0.17118 0.8691 0.11236 1.023-0.0957 0.25441-1.80567 1.16977-2.18488 1.16977-0.0887 0-0.40819 0.12543-0.71191 0.27843-0.64958 0.32914-0.90678 0.22061-0.90678-0.3834 0-1.1164-1.40539-2.91953-2.27442-2.91953-2.70719 0-3.66664 11.52602-1.18154 14.18847 1.35271 1.4491 3.14521-0.0827 3.53935-3.0245 0.13957-1.04079 0.32479-1.06569 1.86887-0.25975 2.25423 1.17778 2.34025 1.30854 1.82234 2.79499-0.14484 0.41632-0.26334 0.91803-0.26334 1.11462 0 0.58-1.32111 3.18996-1.95841 3.87137-1.44664 1.54516-4.28988 1.96414-6.30535 0.92959-5.68561-2.91865-6.00426-20.54349-0.43627-24.15333 1.53881-0.99719 3.72457-1.1244 5.32483-0.30956m-160.822902 0.18947c0.222965 0.14322 0.423985 1.21603 0.755799 4.03593 0.10446 0.88067 0.264223 1.96148 0.355516 2.40182 0.09129 0.44033 0.242277 1.56117 0.335325 2.49076 0.202776 2.01752 1.030556 4.62393 1.063913 3.34653 0.0035-0.1281 0.125527-1.15376 0.272123-2.27906 0.147473-1.12529 0.337959-2.64644 0.424863-3.38032 0.08602-0.73389 0.280023-2.05489 0.429251-2.93555 0.149229-0.88066 0.316892-2.05933 0.371316-2.61797 0.122017-1.23827 0.155374-1.24983 3.41207-1.17155l2.194539 0.0534v24.19602h-3.335699l-0.09305-7.11647c-0.05091-3.91407-0.111482-7.15651-0.134306-7.20544-0.142206-0.30423-0.366927 0.62358-0.469631 1.93657-0.06584 0.84331-0.231743 1.98461-0.36956 2.53703-0.137817 0.55241-0.250178 1.35302-0.250178 1.77912s-0.114116 1.41529-0.253689 2.1981c-0.139572 0.78281-0.346737 2.10381-0.459097 2.93555-0.112361 0.83173-0.255445 1.83249-0.316892 2.22389l-0.111482 0.71165h-3.3357l-0.11236-1.27563c-0.06233-0.70097-0.163274-1.35746-0.224721-1.45887-0.107094-0.17614-0.438908-2.59396-0.81988-5.98318-0.09831-0.88067-0.293191-2.00863-0.432763-2.50589-0.139573-0.49727-0.304602-1.51759-0.366927-2.26838-0.255445-3.05564-0.411696-0.96428-0.455587 6.06413l-0.04565 7.42782h-3.3357l-0.04477-11.99749c-0.03599-9.48093 8.78e-4 -12.02773 0.175563-12.13982 0.28529-0.18414 4.892945-0.18592 5.177357-3e-3m23.708924 4e-3c0.168541 0.10942 0.212432 0.75968 0.175564 2.62153l-0.04916 2.47743-3.196127 0.0889c-3.757929 0.10497-3.593778 0.0125-3.527064 1.97393l0.05179 1.49535 3.160137 0.10319c1.738075 0.0569 3.182082 0.11743 3.208416 0.13344 0.02721 0.0169 0.02721 1.17155 0 2.56549l-0.04828 2.53524-2.984574 0.089c-1.641515 0.0489-3.082889 0.15389-3.204027 0.23306-0.186975 0.12276-0.352004 4.28679-0.175563 4.42734 0.02458 0.0196 1.623959 0.0792 3.555153 0.13344l3.511263 0.0987v5.15944h-11.411604l-0.04477-11.99749c-0.03599-9.48093 8.78e-4 -12.02773 0.175563-12.13982 0.290557-0.18681 10.511844-0.18503 10.803278 2e-3m12.422848 0.40742c2.948583 1.94547 4.454037 8.52376 3.597289 15.72208-0.770722 6.47332-2.543032 8.13413-8.593816 8.05407l-3.613089-0.048-0.04477-11.99749c-0.03599-9.47737 8.78e-4 -12.02951 0.175563-12.14871 0.616227-0.41988 7.741457-0.0685 8.478822 0.41809m10.747098-0.4092c0.174685 0.11209 0.211554 2.65889 0.175563 12.13982l-0.04477 11.99749-1.755632 0.0516c-0.965597 0.0293-1.933828 7e-3 -2.150648-0.0471l-0.395017-0.10052v-11.99215c0-11.2725 0.01843-11.99749 0.307235-12.074 0.538979-0.14233 3.634157-0.12276 3.863267 0.0249m12.075228-0.0454c0.3678 0.0996 0.44681 0.3665 1.0525 3.5449 0.12992 0.68496 0.3204 1.64568 0.42311 2.13494 0.10182 0.48926 0.29846 1.44998 0.43539 2.13495 0.62238 3.10367 0.80672 3.99946 1.07884 5.23683 0.16064 0.72855 0.35815 1.72931 0.43979 2.2239 0.20102 1.21959 0.49772 2.70782 0.71015 3.5698 0.0966 0.39141 0.28178 1.3121 0.41169 2.04599 0.12992 0.73389 0.32655 1.68839 0.43628 2.12071 0.1106 0.43144 0.15976 0.89223 0.1106 1.023-0.12465 0.32913-4.28637 0.34337-4.40663 0.0142-0.0448-0.12187-0.15801-0.70275-0.25018-1.28986-0.0931-0.58711-0.2335-1.38772-0.31162-1.77912l-0.14133-0.71165-2.150645-0.0498-2.149771-0.0498-0.186097 0.49459c-0.101826 0.27221-0.2572 1.12886-0.344981 1.90455-0.194875 1.73197-0.167663 1.71418-2.536888 1.65903-2.270031-0.0525-2.250719-0.0294-1.755631-2.15896 0.70313-3.02361 0.796179-3.45149 0.955063-4.3793 0.09129-0.53819 0.253689-1.37882 0.359905-1.86808s0.30548-1.44998 0.442419-2.13494c0.137817-0.68496 0.413451-2.04599 0.612715-3.0245 0.199264-0.97852 0.483677-2.37958 0.63115-3.11346 0.147473-0.73389 0.352882-1.69461 0.455586-2.13495 0.102705-0.44033 0.258078-1.24093 0.344104-1.77912 0.08603-0.53818 0.228232-1.17866 0.316014-1.42329 0.0869-0.24463 0.208042-0.82017 0.268611-1.2783 0.07549-0.57198 0.202776-0.85931 0.407307-0.91358 0.438908-0.11742 3.925589-0.13254 4.342549-0.0187m25.071289 0.12187c0.26423 0.19571 0.29583 0.52217 0.25282 2.6242l-0.0492 2.40004-3.247919 0.0889c-3.90804 0.10675-3.68683-4e-3 -3.68683 1.85918 0 1.8067-0.20014 1.69817 3.13029 1.70173 3.713159 4e-3 3.383979-0.26687 3.326049 2.73273l-0.0483 2.513-2.98458 0.089c-3.68945 0.1103-3.42348-0.0756-3.42348 2.39025 0 2.56282-0.25983 2.39469 3.78778 2.4534l3.322529 0.0489v5.15944h-11.411599l-0.0457-11.9201c-0.0421-11.04833-0.0237-11.93611 0.25281-12.14249 0.43101-0.32024 10.39246-0.31935 10.825219 2e-3m8.13823 1.02122c0.309 0.63603 0.5662 1.26406 0.57058 1.39661 5e-3 0.13165 0.11675 0.49192 0.24667 0.8006 0.13079 0.30779 0.41257 1.04078 0.62676 1.62789s0.46085 1.20269 0.54688 1.36726c0.0869 0.16457 0.32567 0.80505 0.53108 1.42329 0.20541 0.61825 0.51791 1.44643 0.69523 1.84139 0.17732 0.39497 0.37658 0.93849 0.4433 1.20891 0.14308 0.57644 0.45909 0.54086 0.62851-0.072 0.065-0.23751 0.12641-2.72472 0.13606-5.52773 0.0158-4.47181 0.0518-5.10874 0.29495-5.20392 0.40818-0.15834 3.28479-0.12632 3.54199 0.04 0.17468 0.11209 0.21155 2.65889 0.17556 12.13982l-0.0448 11.99749h-4.03779l-0.80233-2.13494c-0.44154-1.17422-0.89537-2.36-1.00948-2.63577-0.11412-0.27576-0.20717-0.59956-0.20717-0.72054s-0.0685-0.29533-0.15186-0.38874c-0.0843-0.0925-0.35464-0.76947-0.60043-1.50335-0.24666-0.73389-0.57233-1.57452-0.72507-1.86808-0.15186-0.29355-0.27651-0.66361-0.27739-0.82373 0-0.15923-0.10973-0.38073-0.24316-0.49282-0.13342-0.11208-0.29231-0.45723-0.35288-0.7668-0.30372-1.53716-0.45646 0.1619-0.49948 5.55886l-0.0465 5.77591h-3.86239l-0.0448-12.04019c-0.043-11.35701-0.0281-12.04552 0.26335-12.1247 0.16942-0.0471 1.05864-0.0729 1.97596-0.0578l1.66785 0.0267 0.56092 1.15643m15.81034-1.1333c0.39414 0.10675 0.39502 0.11475 0.39502 3.979 0 4.63105-0.18697 4.30102 2.39556 4.23252l1.90574-0.0507 0.0878-4.09198 0.0878-4.09197 1.58007-0.0543c0.86904-0.0294 1.83727-5e-3 2.15065 0.0525l0.57058 0.10675v23.99498l-0.39502 0.10052c-0.21682 0.0543-1.18505 0.0765-2.15065 0.0471l-1.75563-0.0516-0.0465-4.78939c-0.0553-5.66471 0.10797-5.26263-2.13573-5.26263-2.47456 0-2.28408-0.42788-2.33675 5.2484l-0.0456 4.80362h-4.21352l-0.0456-11.9201c-0.0421-11.04833-0.0237-11.93611 0.25281-12.14249 0.31074-0.23128 2.96175-0.31045 3.69911-0.1103m20.77176 0.072c0.19575 0.10586 0.33971 0.37095 0.33971 0.62536 0 0.24285 0.11236 0.90024 0.2493 1.46155 0.25632 1.0479 0.44944 1.98372 0.89274 4.3117 0.13957 0.73388 0.41784 2.09491 0.6171 3.0245 0.20015 0.92959 0.43277 2.1474 0.51704 2.70693 0.0843 0.55864 0.20628 1.10305 0.27036 1.20891 0.065 0.10586 0.23438 0.84953 0.37571 1.65191 0.46349 2.61976 0.71717 3.93719 0.91381 4.75114 0.32479 1.34324 0.58111 2.71405 0.67416 3.60272l0.0887 0.84508h-2.0892c-2.34641 0-2.50968-0.0721-2.50968-1.11106 0-0.37629-0.12816-1.20091-0.28441-1.83249l-0.28529-1.14843h-2.063749c-2.46841 0-2.39994-0.0534-2.65451 2.06912-0.25281 2.11004-0.16503 2.04332-2.59482 1.98372l-2.03654-0.0498 0.0614-0.78548c0.0342-0.43144 0.17293-1.10216 0.30724-1.49001 0.13518-0.38785 0.24578-0.9803 0.24578-1.31655 0-0.33714 0.0746-0.75346 0.16503-0.92514 0.15274-0.28911 0.49246-1.917 0.89362-4.28946 0.0913-0.53818 0.27827-1.41885 0.41521-1.95703s0.34234-1.45888 0.45558-2.04599c0.11412-0.58711 0.32128-1.62789 0.46173-2.31285 0.2493-1.21692 0.5302-2.65534 0.93927-4.80362 0.11148-0.58711 0.31689-1.43842 0.45558-1.8921 0.1387-0.45367 0.25281-1.05412 0.25457-1.33434 4e-3 -0.58177 0.14659-0.85753 0.52406-1.00253 0.46699-0.18058 4.05024-0.1361 4.40049 0.0543m10.82259-0.0418c0.11675 0.0756 0.33795 0.45457 0.49069 0.84242 0.15274 0.38784 0.34323 0.86554 0.42223 1.06124 0.0799 0.1957 0.31953 0.83619 0.53372 1.4233 0.62149 1.70706 0.90327 2.45429 1.14116 3.0245 0.12289 0.29355 0.39852 1.0141 0.61271 1.60121 0.21507 0.58711 0.50123 1.34768 0.63642 1.69016 0.13518 0.34248 0.32742 0.85131 0.42749 1.13152 0.15099 0.42343 0.22473 0.47147 0.44155 0.28911 0.22033-0.18414 0.26071-1.06036 0.26071-5.60245v-5.38361l0.39501-0.10764c0.57848-0.15745 3.16716-0.13077 3.42436 0.0356 0.17469 0.11209 0.21156 2.65889 0.17557 12.13982l-0.0448 11.99749-1.97684 0.0507-1.97772 0.0498-0.17732-0.49459c-0.0974-0.2731-0.24667-0.65561-0.33182-0.85131-0.086-0.1957-0.37043-0.95628-0.6329-1.69016-0.26247-0.73389-0.63203-1.73465-0.82076-2.2239-0.18961-0.48926-0.55917-1.49002-0.82163-2.2239-0.26335-0.73389-0.56356-1.49446-0.66714-1.69017-0.10446-0.1957-0.24316-0.61023-0.30899-0.92158-0.0658-0.31135-0.2335-0.66183-0.3722-0.77836-0.13869-0.11654-0.25193-0.35761-0.25193-0.53552s-0.0781-0.37184-0.17293-0.43144c-0.11236-0.0703-0.18961 1.9775-0.21946 5.81595l-0.0465 5.92446h-4.03795l-0.0456-11.9201c-0.0421-11.04833-0.0237-11.93611 0.25281-12.14249 0.33094-0.2464 3.33307-0.31134 3.6921-0.0801m39.26118 0.0818c0.26422 0.19571 0.29583 0.52217 0.25281 2.6242l-0.0492 2.40004-3.24791 0.0889c-3.90804 0.10675-3.68683-4e-3 -3.68683 1.85918 0 1.8067-0.20014 1.69817 3.13029 1.70173 3.71316 4e-3 3.38398-0.26687 3.32604 2.73273l-0.0483 2.513-2.98457 0.089c-3.68946 0.1103-3.42348-0.0756-3.42348 2.39025 0 2.56282-0.25983 2.39469 3.78778 2.4534l3.32253 0.0489v5.15944h-11.41161l-0.0456-11.9201c-0.0421-11.04833-0.0237-11.93611 0.25281-12.14249 0.43101-0.32024 10.39246-0.31935 10.82522 2e-3m8.32345-0.11208c0.31689 0.0863 0.39589 0.23573 0.39941 0.75346 2e-3 0.35582 0.0816 0.96695 0.17644 1.35835 0.0948 0.39141 0.29143 1.63235 0.43627 2.75764 0.14572 1.12529 0.33796 2.44629 0.4275 2.93555 0.0895 0.48925 0.16854 1.22136 0.17381 1.627 0.0132 0.89845 0.67065 3.13481 0.88308 3.00226 0.0843-0.0534 0.20102-0.63603 0.25983-1.2952 0.0597-0.65916 0.21945-1.91967 0.35639-2.80033 0.29056-1.87252 0.56707-3.93541 0.85236-6.36747 0.1387-1.17688 0.28968-1.79602 0.46788-1.90988 0.43627-0.27843 5.01145-0.21883 5.2467 0.0685 0.14397 0.17614 0.1861 3.50042 0.15274 12.14249l-0.0448 11.90053h-3.33569l-0.0948-7.11647c-0.0518-3.91407-0.11148-7.15206-0.13167-7.19654-0.1703-0.37006-0.44242 0.60668-0.5618 2.01574-0.0799 0.94026-0.22648 2.09047-0.32655 2.5557-0.0992 0.46524-0.26686 1.56652-0.37044 2.44718-0.45471 3.84201-0.89274 6.67437-1.09551 7.07912-0.1387 0.27487-0.36605 0.31046-1.68629 0.26687l-1.52652-0.0516-0.21506-1.42329c-0.11763-0.78282-0.30022-2.10381-0.40555-2.93555-0.10446-0.83174-0.30461-2.09491-0.4433-2.80745-0.1387-0.71165-0.25457-1.67237-0.2572-2.13494-2e-3 -0.46168-0.15976-1.43486-0.35113-2.16163-0.19048-0.72766-0.34761-1.68839-0.34937-2.13495-8.8e-4 -0.44744-0.0606-1.0132-0.13167-1.25783-0.0711-0.24463-0.16854 2.99781-0.21682 7.20543l-0.0878 7.65021h-3.51127l-0.0456-11.9201c-0.0421-11.04833-0.0237-11.93611 0.25281-12.14249 0.31338-0.23306 4.33202-0.31935 5.10362-0.1103m24.40854 0.0374c0.16854 0.10942 0.21243 0.75968 0.17557 2.62153l-0.0492 2.47743-3.19613 0.0889c-3.75793 0.10497-3.59378 0.0125-3.52706 1.97393l0.0518 1.49535 3.16014 0.10319c1.73807 0.0569 3.18208 0.11743 3.20841 0.13344 0.0272 0.0169 0.0272 1.17155 0 2.56549l-0.0483 2.53524-2.98457 0.089c-1.64152 0.0489-3.08289 0.15389-3.20403 0.23306-0.18697 0.12276-0.352 4.28679-0.17556 4.42734 0.0246 0.0196 1.62396 0.0792 3.55515 0.13344l3.51127 0.0987v5.15944h-11.41161l-0.0448-11.99749c-0.036-9.48093 8.8e-4 -12.02773 0.17557-12.13982 0.29055-0.18681 10.51184-0.18503 10.80327 2e-3m7.01024-7e-3c0.11675 0.0756 0.33796 0.45457 0.4907 0.84242 0.15274 0.38784 0.34322 0.86554 0.42223 1.06124 0.0799 0.1957 0.31952 0.83619 0.53371 1.4233 0.62149 1.70706 0.90327 2.45429 1.14116 3.0245 0.12289 0.29355 0.39853 1.0141 0.61272 1.60121 0.21506 0.58711 0.50123 1.34768 0.63641 1.69016 0.13519 0.34248 0.32743 0.85131 0.4275 1.13152 0.15098 0.42343 0.22472 0.47147 0.44154 0.28911 0.22033-0.18414 0.26071-1.06036 0.26071-5.60245v-5.38361l0.39502-0.10764c0.57848-0.15745 3.16716-0.13077 3.42436 0.0356 0.17468 0.11209 0.21155 2.65889 0.17556 12.13982l-0.0448 11.99749-1.97684 0.0507-1.97772 0.0498-0.17732-0.49459c-0.0974-0.2731-0.24666-0.65561-0.33181-0.85131-0.086-0.1957-0.37044-0.95628-0.63291-1.69016-0.26246-0.73389-0.63202-1.73465-0.82075-2.2239-0.18961-0.48926-0.55917-1.49002-0.82164-2.2239-0.26334-0.73389-0.56356-1.49446-0.66714-1.69017-0.10446-0.1957-0.24315-0.61023-0.30899-0.92158-0.0658-0.31135-0.2335-0.66183-0.37219-0.77836-0.1387-0.11654-0.25194-0.35761-0.25194-0.53552s-0.0781-0.37184-0.17293-0.43144c-0.11236-0.0703-0.18961 1.9775-0.21945 5.81595l-0.0465 5.92446h-4.03795l-0.0456-11.9201c-0.0421-11.04833-0.0237-11.93611 0.25281-12.14249 0.33093-0.2464 3.33306-0.31134 3.69209-0.0801m24.06444 7e-3c0.16854 0.10942 0.21243 0.75968 0.17556 2.62153l-0.0492 2.47743-1.92066 0.0507c-2.651 0.0703-2.38063-1.03989-2.38063 9.76203v9.32436l-2.06287-0.0507-2.06287-0.0498-0.0456-9.38485c-0.0246-5.16123-0.0641-9.39553-0.0878-9.40798-0.0228-0.0134-0.95068-0.073-2.06112-0.13344l-2.01897-0.1103-0.0492-2.40004c-0.043-2.10203-0.0114-2.42849 0.25281-2.6242 0.34849-0.25797 11.91635-0.32735 12.31049-0.0747m-210.595011 5.32668c-0.173807 0.11831-0.211553 1.60566-0.175563 6.81136l0.04565 6.66013 0.752288 0.0552c1.037579 0.0756 1.891693-0.48125 2.372736-1.54784 0.540735-1.19912 0.671529-7.95711 0.185219-9.61614-0.502988-1.71863-2.237552-3.00671-3.180326-2.36267m24.546361 2.23636c-0.101827 0.2722-0.185219 0.66983-0.184341 0.88333 0 0.21349-0.122017 1.06925-0.272123 1.90099-0.545124 3.01472-0.601304 3.45683-0.455587 3.60449 0.2493 0.25264 2.402578 0.0792 2.348157-0.18858-0.02633-0.1281-0.131672-0.84864-0.234376-1.60121-0.102705-0.75346-0.299336-1.8067-0.436275-2.34132-0.136061-0.53463-0.2493-1.25517-0.251055-1.60121-0.0044-0.93404-0.278268-1.28452-0.5144-0.65649m69.604636 0.24907c-0.0553 0.36739-0.21419 1.26763-0.352 2.00151-0.40731 2.16341-0.63115 3.92474-0.5223 4.10354 0.13167 0.21527 2.13572 0.21794 2.26652 3e-3 0.1264-0.20727-0.20278-2.48543-0.53108-3.67744-0.13782-0.49726-0.25018-1.14753-0.25018-1.44553 0-1.47756-0.43189-2.17409-0.61096-0.98475" fill="#040404" fill-rule="evenodd"/>
 <path d="m13.142744 0c-2.529554 0-4.987795 2.036827-5.439453 4.560546v0.134766l-0.044922 0.044922v0.136719l-0.04687 0.08984v0.08984l-0.04687 0.0918v0.134766l-0.04492 0.08984v0.136719l-0.04687 0.134766-0.04492 0.134765-0.04687 0.271485-0.0918 0.316406-0.04688 0.314453-0.0918 0.316406-0.04687 0.361329-0.0918 0.361328-0.0918 0.40625-0.0918 0.361328-0.138672 0.767578-0.0918 0.40625-0.09375 0.361328-0.04492 0.361328-0.0918 0.361328-0.0918 0.361329-0.04687 0.361328-0.04492 0.316406-0.09375 0.269531-0.04492 0.316406v0.136719l-0.04687 0.08984v0.224609l-0.04687 0.136719v0.179688l-0.04492 0.08984v0.0918c-0.04815 1.103633 0.109649 2.609137 0.460937 2.888672 0.446911 2.43142 8.718505 13.684972 8.480469 15.398438-0.223794 1.71874-1.199219 6.773437-1.199219 6.773437-0.299748 1.704898-1.486391 3.072266-3.226562 3.072266-1.740169 0-2.926024-1.362757-2.626953-3.072266l1.566406-8.398437h-6.175781l-2.074219 11.65039c-0.423174 2.366141 1.21144 4.244141 3.640625 4.244141h8.804688c2.438679 0 4.762073-1.878 5.208984-4.244141 0 0 2.267984-10.88233 2.257812-11.65039-0.0095-0.772676-0.230468-0.857422-0.230468-0.857422 0-0.884752-7.361876-12.788094-8.113282-13.230469-0.323484-0.186577-0.58884-1.366104-0.597656-2.078125-0.01424-0.708065 0.966797-5.462891 0.966797-5.462891 0.299749-1.704236 1.948008-3.072265 3.6875-3.072265 1.74017 0 2.465764 1.36737 2.166016 3.072265l-1.335938 7.541016h6.222657l2.166015-11.333985c0.489581-2.524369-1.15667-4.560546-3.685547-4.560546zm16.962891 0-7.375 41.632812c-0.423175 2.366141 1.213392 4.246094 3.642578 4.246094h8.802734c2.43868 0 4.804204-1.879953 5.25586-4.246094l7.882812-41.632812h-5.533203l-7.513672 40.458984c-0.109184 0.586753-0.692196 1.083984-1.291015 1.083984h-4.378907c-0.613739 0-1.021565-0.492615-0.921875-1.083984l7.330078-40.458984zm21.205078 0-8.896484 45.878906h5.90039l4.056641-20.771484h7.513672c2.443421 0 4.762752-1.893787 5.208984-4.246094l3.226563-16.300782c0.484886-2.528993-1.158625-4.560546-3.6875-4.560546zm21.066406 0-9.21875 45.878906h13.275392l0.92187-5.691406h-6.544918l2.671875-15.488282h6.546873l0.92188-4.785156h-6.54493l2.9043-14.224609h6.54492l0.92188-5.689453zm15.857422 0-8.85156 45.878906h5.90039l4.01172-20.771484h4.19336c0.55135 0.50237 0.61545 1.429079 0.6914 1.894531 0.10919 0.675101 0.22412 1.537789 0.13867 2.21289-0.076 0.670488-3.22656 16.66211-3.22656 16.66211h5.90039s3.318359-17.421638 3.318359-17.701172c9e-3 -0.284149 1e-3 -1.176782-0.322259-1.669922-0.2143-0.316454-0.5877-1.043563-1.01563-1.308594-0.82261-0.516874-1.75195-0.859375-1.75195-0.859375h-0.41406c1.68794-0.652026 4.871919-1.725517 5.208979-3.476562l3.22656-16.300782c0.48964-2.528993-1.15794-4.560546-3.6875-4.560546zm31.576169 0-8.89648 45.878906h6.77539l5.48633-26.597656 2.16601 26.597656h5.90039l8.89649-45.878906h-6.77539l-4.60938 23.976562-3.04297-23.976562zm23.41797 0-8.89844 45.878906h5.90039l8.89649-45.878906zm8.98828 0-8.89648 45.878906h6.82226l5.48438-26.597656 2.16601 26.597656h5.90039l8.89649-45.878906h-6.82227l-4.5625 23.976562-3.04297-23.976562zm22.86328 0-1.10742 5.689453h3.68945l-7.2832 40.189453h6.72852l7.42187-40.189453h3.55078l0.92188-5.689453zm16.22657 0-9.22071 45.878906h13.27539l0.92188-5.691406h-6.54492l2.71875-15.488282h6.54687l0.92188-4.785156h-6.54493l2.85743-14.224609h6.54492l0.92187-5.689453zm14.98046 0-8.89648 45.878906h6.82227l5.48437-26.597656 2.16797 26.597656h5.90039l8.89648-45.878906h-6.82226l-4.56445 23.976562-3.04102-23.976562zm23.4629 0-8.89649 45.878906h13.46094c2.44344 0 4.80225-1.879953 5.2539-4.246094l7.14649-37.072266c0.48489-2.528993-1.15794-4.560546-3.6875-4.560546zm25.30859 0c-2.52955 0-4.94287 2.036827-5.39453 4.560546l-6.5918 37.072266c-0.42792 2.366141 1.17127 4.246094 3.5957 4.246094h9.72657c2.43867 0 4.8042-1.879953 5.25586-4.246094l7.14453-37.072266c0.48963-2.524378-1.1627-4.560546-3.6875-4.560546zm-20.2832 5.283203h2.71875c1.74016 0 2.92797 1.365417 2.6289 3.070312l-5.80859 30.029297c-0.30449 1.704898-1.99422 3.115234-3.73438 3.115234h-2.67383zm23.74023 0h0.18359c1.74017 0 2.88178 1.365417 2.58203 3.070312l-5.5332 30.029297c-0.29976 1.699624-1.90045 3.115235-3.64062 3.115234-1.74018 0-2.46772-1.410994-2.16797-3.115234l5.48633-30.029297 0.0449-0.134765 0.0469-0.136719 0.0469-0.179688 0.0449-0.134765 0.0469-0.181641 0.0449-0.134765 0.0469-0.136719 0.0918-0.134766 0.0469-0.134765 0.0918-0.134766 0.0469-0.136719 0.0918-0.134765 0.0918-0.08984 0.0918-0.136719 0.0918-0.134766 0.13867-0.08984 0.0938-0.0918 0.0918-0.08984 0.13867-0.08984 0.13672-0.08984 0.0937-0.0918 0.13672-0.08984 0.13867-0.04492 0.13868-0.08984 0.0918-0.04492 0.18555-0.04492 0.13867-0.04688h0.13672l0.13867-0.04492h0.18555zm-201.535155 0.179687h2.857422c0.627302 0 1.957684 1.408866 1.84375 2.033203l-2.44336 11.332032c-0.113934 0.586758-0.922664 1.943359-1.521484 1.943359h-3.548828l-0.04492-0.04492h-0.185547v-0.04687h-0.0918l-0.04687-0.04492h-0.04492l-0.09374-0.08984h-0.04492v-0.04492l-0.04687-0.04492-0.04492-0.04492v-0.04494l-0.04687-0.04687-0.04688-0.04492v-0.08984l-0.04492-0.04492v-0.08984l-0.04687-0.04492v-0.04492c0-0.0745-0.0095-0.187755 0-0.271484l2.765625-13.863282c0.253633-0.205035 0.56364-0.361328 0.876953-0.361328zm36.740236 0h2.85742c0.62731 0 1.96717 1.408866 1.84375 2.033203l-2.44336 11.289063c-0.10918 0.591373-1.60932 1.986328-2.21289 1.986328h-2.53516c-0.52287 0-0.88322-0.337818-0.92187-0.8125 0-0.0745-0.01-0.183141 0-0.271484l2.7207-13.863282 0.0449-0.04492 0.0469-0.04492 0.0918-0.04492h0.0469l0.0449-0.04492 0.0469-0.04492h0.0449l0.0469-0.04492h0.0469l0.0918-0.04492h0.13867zm40.898439 127.04687c-61.975376-3.6e-4 -123.923041 0.0574-123.994144 0.17383-0.08164 0.13344-0.155108 7.62307-0.101563 10.36914l0.0098 0.49023h248.406217l0.10547-0.58007c0.23964-1.31033 0.0118-10.10032-0.26563-10.27735-0.18215-0.11697-62.18478-0.17542-124.16015-0.17578z" fill="#fa0914" fill-rule="evenodd"/>
</svg>
