<svg version="1.1" viewBox="0 0 269.66406 177.22461" xmlns="http://www.w3.org/2000/svg">
 <path d="m13.142578 0c-2.529554 0-4.987795 2.036827-5.439453 4.560546v0.134766l-0.044922 0.044922v0.136719l-0.04687 0.08984v0.08984l-0.04687 0.0918v0.134766l-0.04492 0.08984v0.136719l-0.04687 0.134766-0.04492 0.134765-0.04687 0.271485-0.0918 0.316406-0.04688 0.314453-0.0918 0.316406-0.04687 0.361329-0.0918 0.361328-0.0918 0.40625-0.0918 0.361328-0.138672 0.767578-0.0918 0.40625-0.09375 0.361328-0.04492 0.361328-0.0918 0.361328-0.0918 0.361329-0.04687 0.361328-0.04492 0.316406-0.09375 0.269531-0.04492 0.316406v0.136719l-0.04687 0.08984v0.224609l-0.04687 0.136719v0.179688l-0.04492 0.08984v0.0918c-0.04815 1.103633 0.109649 2.609137 0.460937 2.888672 0.446911 2.43142 8.718505 13.684972 8.480469 15.398438-0.223794 1.71874-1.199219 6.773437-1.199219 6.773437-0.299748 1.704898-1.486391 3.072266-3.226562 3.072266-1.740169 0-2.926024-1.362757-2.626953-3.072266l1.566406-8.398437h-6.175781l-2.074219 11.65039c-0.423174 2.366141 1.21144 4.244141 3.640625 4.244141h8.804688c2.438679 0 4.762073-1.878 5.208984-4.244141 0 0 2.267984-10.88233 2.257812-11.65039-0.0095-0.772676-0.230468-0.857422-0.230468-0.857422 0-0.884752-7.361876-12.788094-8.113282-13.230469-0.323484-0.186577-0.58884-1.366104-0.597656-2.078125-0.01424-0.708065 0.966797-5.462891 0.966797-5.462891 0.299749-1.704236 1.948008-3.072265 3.6875-3.072265 1.74017 0 2.465764 1.36737 2.166016 3.072265l-1.335938 7.541016h6.222657l2.166015-11.333985c0.489581-2.524369-1.15667-4.560546-3.685547-4.560546zm16.962891 0-7.375 41.632812c-0.423175 2.366141 1.213392 4.246094 3.642578 4.246094h8.802734c2.43868 0 4.804204-1.879953 5.25586-4.246094l7.882812-41.632812h-5.533203l-7.513672 40.458984c-0.109184 0.586753-0.692196 1.083984-1.291015 1.083984h-4.378907c-0.613739 0-1.021565-0.492615-0.921875-1.083984l7.330078-40.458984zm21.205078 0-8.896484 45.878906h5.90039l4.056641-20.771484h7.513672c2.443421 0 4.762752-1.893787 5.208984-4.246094l3.226563-16.300782c0.484886-2.528993-1.158625-4.560546-3.6875-4.560546zm21.066406 0-9.21875 45.878906h13.275392l0.92187-5.691406h-6.544918l2.671875-15.488282h6.546873l0.92188-4.785156h-6.54493l2.9043-14.224609h6.54492l0.92188-5.689453zm15.857422 0-8.85156 45.878906h5.90039l4.01172-20.771484h4.19336c0.55135 0.50237 0.61545 1.429079 0.6914 1.894531 0.10919 0.675101 0.22412 1.537789 0.13867 2.21289-0.076 0.670488-3.22656 16.66211-3.22656 16.66211h5.90039s3.318355-17.421638 3.318355-17.701172c9e-3 -0.284149 1e-3 -1.176782-0.322255-1.669922-0.2143-0.316454-0.5877-1.043563-1.01563-1.308594-0.82261-0.516874-1.75195-0.859375-1.75195-0.859375h-0.41406c1.68794-0.652026 4.871915-1.725517 5.208975-3.476562l3.22656-16.300782c0.48964-2.528993-1.15794-4.560546-3.6875-4.560546zm31.576165 0-8.89648 45.878906h6.77539l5.48633-26.597656 2.16601 26.597656h5.90039l8.89649-45.878906h-6.77539l-4.60938 23.976562-3.04296-23.976562zm23.41797 0-8.89844 45.878906h5.90039l8.89649-45.878906zm8.98828 0-8.89648 45.878906h6.82226l5.48438-26.597656 2.16601 26.597656h5.90039l8.89649-45.878906h-6.82227l-4.5625 23.976562-3.04297-23.976562zm22.86328 0-1.10742 5.689453h3.68945l-7.2832 40.189453h6.72852l7.42188-40.189453h3.55078l0.92187-5.689453zm16.22657 0-9.22071 45.878906h13.27539l0.92188-5.691406h-6.54492l2.71875-15.488282h6.54687l0.92188-4.785156h-6.54493l2.85743-14.224609h6.54492l0.92187-5.689453zm14.98046 0-8.89648 45.878906h6.82227l5.48438-26.597656 2.16797 26.597656h5.90038l8.89648-45.878906h-6.82226l-4.56445 23.976562-3.04102-23.976562zm23.4629 0-8.89649 45.878906h13.46094c2.44345 0 4.80226-1.879953 5.2539-4.246094l7.14649-37.072266c0.48489-2.528993-1.15794-4.560546-3.6875-4.560546zm25.30859 0c-2.52955 0-4.94287 2.036827-5.39453 4.560546l-6.59179 37.072266c-0.42792 2.366141 1.17126 4.246094 3.5957 4.246094h9.72657c2.43867 0 4.80419-1.879953 5.25585-4.246094l7.14453-37.072266c0.48963-2.524378-1.1627-4.560546-3.6875-4.560546zm-20.2832 5.283203h2.71875c1.74016 0 2.92797 1.365417 2.6289 3.070312l-5.80859 30.029297c-0.30449 1.704898-1.99422 3.115234-3.73438 3.115234h-2.67383zm23.74023 0h0.18359c1.74017 0 2.88178 1.365417 2.58203 3.070312l-5.5332 30.029297c-0.29976 1.699624-1.90045 3.115235-3.64062 3.115234-1.74018 0-2.46772-1.410994-2.16797-3.115234l5.48633-30.029297 0.0449-0.134765 0.0469-0.136719 0.0469-0.179688 0.0449-0.134765 0.0469-0.181641 0.0449-0.134765 0.0469-0.136719 0.0918-0.134766 0.0469-0.134765 0.0918-0.134766 0.0469-0.136719 0.0918-0.134765 0.0918-0.08984 0.0918-0.136719 0.0918-0.134766 0.13867-0.08984 0.0938-0.0918 0.0918-0.08984 0.13867-0.08984 0.13672-0.08984 0.0937-0.0918 0.13672-0.08984 0.13867-0.04492 0.13868-0.08984 0.0918-0.04492 0.18555-0.04492 0.13867-0.04688h0.13672l0.13867-0.04492h0.18555zm-201.535151 0.179687h2.857422c0.627302 0 1.957684 1.408866 1.84375 2.033203l-2.44336 11.332032c-0.113934 0.586758-0.922664 1.943359-1.521484 1.943359h-3.548828l-0.04492-0.04492h-0.185547v-0.04687h-0.0918l-0.04687-0.04492h-0.04492l-0.09374-0.08984h-0.04492v-0.04492l-0.04687-0.04492-0.04492-0.04492v-0.04494l-0.04687-0.04687-0.04688-0.04492v-0.08984l-0.04492-0.04492v-0.08984l-0.04687-0.04492v-0.04492c0-0.0745-0.0095-0.187755 0-0.271484l2.765625-13.863282c0.253633-0.205035 0.56364-0.361328 0.876953-0.361328zm36.740236 0h2.85742c0.62731 0 1.96717 1.408866 1.84375 2.033203l-2.44336 11.289063c-0.10918 0.591373-1.60932 1.986328-2.21289 1.986328h-2.53516c-0.52287 0-0.88322-0.337818-0.92187-0.8125 0-0.0745-0.01-0.183141 0-0.271484l2.7207-13.863282 0.0449-0.04492 0.0469-0.04492 0.0918-0.04492h0.0469l0.0449-0.04492 0.0469-0.04492h0.0449l0.0469-0.04492h0.0469l0.0918-0.04492h0.13867zm-93.720705 45.089844v126.671876h269.66406v-126.671876h-134.83203zm69.023437 5.152344 4.06836 0.04687 4.068358 0.04883-4e-3 4.537109c-2e-3 2.495213-0.0275 13.210914-0.0547 23.814453-0.0272 10.603541-0.026 19.30463 4e-3 19.33398 0.14835 0.14945 1.12875-1.01235 5.32032-6.300779 2.51054-3.16771 5.63199-7.09546 6.93554-8.730466 3.63504-4.5581 7.71965-9.664694 8.04883-10.060547 0.1624-0.195703 1.5967-1.995998 3.185555-4.001953 3.83692-4.842758 13.36751-16.769705 14.25586-17.839844l0.70508-0.847656 3.80078 0.04687 3.80078 0.04883 0.043 36.185543c0.0333 26.599602-8e-3 36.250722-0.15235 36.427742-0.2493 0.30423-11.02334 0.35735-11.57812 0.0566-0.33357-0.18147-0.34101-0.61729-0.33399-23.79297 5e-3 -16.209538-0.0483-23.627225-0.17382-23.669924-0.19751-0.06672-0.36749 0.116243-1.86329 2.013672-2.60623 3.304711-3.66456 4.633004-3.75587 4.714844-0.0544 0.04893-0.92175 1.12833-1.92773 2.400386-1.00597 1.27207-3.09841 3.90627-4.650385 5.85352-1.5511 1.94636-3.21642 4.037142-3.69922 4.646482-0.4828 0.60935-1.66721 2.09224-2.63281 3.29493-0.9656 1.20179-2.13632 2.6682-2.60156 3.25976-0.46525 0.59156-1.10861 1.40013-1.43164 1.79688-1.05163 1.29075-5.96715 7.46707-6.32618 7.94922-0.19312 0.25886-0.85897 1.10056-1.48047 1.86914-2.81777 3.4835-3.53507 4.37826-5.12304 6.38867-0.93049 1.17955-1.967609 2.44068-2.304689 2.80273l-0.611329 0.65821h-3.458984c-2.068132 0-3.595372-0.0763-3.800781-0.1875-0.337081-0.18325-0.343639-0.55756-0.333985-23.95118 0.0044-13.072062-0.02554-23.80424-0.07031-23.849608-0.17293-0.174352-0.638139 0.269991-1.623047 1.552735-0.847091 1.102163-3.420616 4.332158-4.607422 5.78125-0.269488 0.330025-2.532779 3.173981-3.527343 4.433591-0.238766 0.30156-2.927715 3.67012-5.97461 7.48633-3.046017 3.816212-5.73389 7.189022-5.972656 7.494142-0.585503 0.74545-6.054645 7.59631-9.16211 11.47656-1.379924 1.72397-3.656526 4.57799-5.05664 6.34375-1.400115 1.76578-2.703366 3.25646-2.896484 3.3125-0.472265 0.137-14.203759 0.137-14.556641 0-0.419596-0.16368-0.344984-0.38242 0.46875-1.37695 1.056011-1.28986 0.934751-1.14161 5.164062-6.43359 2.111145-2.642 5.492942-6.88555 7.513672-9.42969s5.178754-6.5027 7.019531-8.79688c4.398731-5.484122 7.512622-9.384502 10.4375-13.076172 1.313212-1.659018 2.873197-3.621039 3.464844-4.359372 0.591648-0.739225 2.17022-2.71576 3.509766-4.392579 9.11084-11.404142 9.160247-11.464662 11.904297-14.9375 0.765454-0.969619 1.440308-1.800683 1.5-1.849609 0.06057-0.04893 0.580205-0.689942 1.154297-1.423828 0.574968-0.733886 2.018667-2.556323 3.208984-4.050781zm182.576163 0 3.89649 0.04687 3.89844 0.04883 0.0449 36.205073c0.0421 33.881519 0.0252 36.219579-0.25391 36.427739-0.3836 0.28644-11.13004 0.32089-11.65234 0.0371-0.33269-0.18058-0.33985-0.61132-0.33985-21.79883v-21.613267l-0.48437-0.185547c-0.30636-0.11831-2.34554-0.171044-5.58203-0.142578-2.8055 0.02402-5.19751-0.01388-5.3125-0.08594-0.15362-0.09607-0.20899-1.319536-0.20899-4.556641v-4.421875l3.0293-3.783203c1.66609-2.080678 3.53456-4.427758 4.1543-5.216797 0.61886-0.789928 1.17341-1.476465 1.23047-1.52539 0.10533-0.09073 2.27804-2.806742 3.69921-4.625 0.43452-0.555975 1.07857-1.363487 1.42969-1.794922 0.35201-0.431437 1.04828-1.286595 1.54688-1.900391zm-115.99414 0.0039 20.63672 0.04687 20.63672 0.04492 0.043 7.294922c0.0237 4.01191-0.0215 7.393929-0.0996 7.517578-0.11148 0.177022-3.64939 0.233775-16.89648 0.267578l-16.75391 0.04297-0.70313 0.382812c-4.18014 2.290614-4.12211 10.766824 0.0879 12.835938 0.55565 0.272204 1.85512 0.310564 13.51953 0.390625 14.44092 0.09963 13.29638-0.0062 15.09765 1.408203 9.50849 7.467838 8.86693 36.610296-0.92773 42.111326l-0.91602 0.51367-20.45312 0.0508c-11.2492 0.0276-20.62996 5e-3 -20.84766-0.0488l-0.39453-0.0977v-7.43359c0-5.54374 0.0538-7.48726 0.21094-7.64649 0.16064-0.16279 4.31214-0.21289 17.61719-0.21289h17.40625l0.69726-0.51172c2.8371-2.08246 3.19832-7.98933 0.66406-10.8457-1.44399-1.62701-0.53292-1.52856-15.00195-1.63086-14.43654-0.10141-13.11039 0.0412-15.26367-1.654298-5.47582-4.30901-8.15732-18.462573-5.71875-30.191404 0.49421-2.376012 1.70373-5.811388 2.58594-7.347657 0.26949-0.468797 0.48828-0.883798 0.48828-0.923828 0-0.530176 2.3408-3.105744 3.5039-3.857422zm51.67578 0.04492 5.92579 0.04687 0.0879 26.152344 0.0879 26.154298 0.51758 1.0664c1.73455 3.58404 3.99417 4.35814 12.73632 4.35547 8.4481-3e-3 10.63454-0.75131 12.49024-4.27929l0.41406-0.78711 0.0879-26.332034 0.0879-26.330078h11.93945v30.779297c0 34.544235 0.11112 31.604815-1.31445 34.513675-1.62571 3.31626-4.54365 5.85229-8.15234 7.08789-1.23684 0.42343-26.49061 0.69056-29.54102 0.3125-5.30375-0.65739-10.15021-5.35392-11.10351-10.75977-0.13519-0.76769-0.29304-52.377856-0.18946-61.892577 8.8e-4 -0.07472 2.66734-0.113687 5.92578-0.08789zm-52.6621 76.755862c61.97536 3.3e-4 123.97801 0.0588 124.16015 0.17578 0.2774 0.17702 0.50527 8.96702 0.26563 10.27735l-0.10547 0.58007h-248.406247l-0.0098-0.49023c-0.05355-2.74607 0.01993-10.23571 0.101563-10.36914 0.0711-0.11653 62.01876-0.17416 123.994144-0.17383zm39.79882 14.43555c0.93883-0.0546 1.88542 0.11797 2.68555 0.52539 0.84973 0.43321 2.14648 1.69701 2.14649 2.09375 0 0.0801 0.10533 0.27189 0.23437 0.42578 0.22384 0.26776 0.70069 1.55183 1.17383 3.16016 0.12026 0.4083 0.17209 0.86759 0.11329 1.02148-0.0957 0.25441-1.80634 1.16992-2.18556 1.16992-0.0887 0-0.40722 0.1263-0.71092 0.2793-0.64959 0.32914-0.90821 0.2212-0.90821-0.38281 0-1.1164-1.40441-2.91992-2.27344-2.91993-2.70717 0-3.66672 11.52506-1.18164 14.1875 1.35272 1.4491 3.14493-0.0817 3.53907-3.02343 0.13957-1.04079 0.32506-1.06571 1.86914-0.25977 2.25422 1.17778 2.34017 1.30848 1.82226 2.79492-0.14484 0.41632-0.26367 0.9167-0.26367 1.11328 0 0.58-1.32169 3.19165-1.95898 3.87305-1.44664 1.54517-4.28923 1.96425-6.30469 0.92969-5.68561-2.91865-6.00352-20.54446-0.43555-24.1543 0.76941-0.4986 1.69985-0.77939 2.63866-0.83398zm-129.003897 0.52734c2.298502-0.0555 6.445023 0.23272 6.998046 0.59766 2.94858 1.94547 4.454404 8.52435 3.597657 15.72265-0.770723 6.47333-2.542973 8.13475-8.59375 8.05469l-3.613282-0.0488-0.04492-11.99804c-0.03599-9.47736 0.0011-12.02924 0.175781-12.14844 0.154056-0.10497 0.7143-0.16119 1.480469-0.17969zm49.478512 0.0234c2.59834 3.3e-4 5.197675 0.0816 5.414065 0.24219 0.26422 0.1957 0.29496 0.52297 0.25195 2.625l-0.0488 2.39843-3.248045 0.0899c-3.90802 0.10675-3.6875-4e-3 -3.6875 1.85937 0 1.8067-0.19956 1.69762 3.13086 1.70118 3.713155 4e-3 3.384105-0.26718 3.326165 2.73242l-0.0488 2.51367-2.98438 0.0898c-3.68945 0.11031-3.42383-0.0772-3.42383 2.38867 0 2.56283-0.25854 2.39637 3.78907 2.45508l3.322255 0.0488v5.1582h-11.412105l-0.0449-11.91992c-0.0421-11.04832-0.0246-11.9362 0.25195-12.14258 0.21551-0.16012 2.81379-0.24056 5.41211-0.24023zm94.804685 0c2.59834 3.3e-4 5.19573 0.0816 5.41211 0.24219 0.26422 0.1957 0.29692 0.52297 0.25391 2.625l-0.0488 2.39843-3.24805 0.0899c-3.90802 0.10675-3.6875-4e-3 -3.6875 1.85937 0 1.8067-0.19957 1.69762 3.13086 1.70118 3.71316 4e-3 3.38411-0.26718 3.32617 2.73242l-0.0488 2.51367-2.98437 0.0898c-3.68946 0.11031-3.42383-0.0772-3.42383 2.38867 0 2.56283-0.2605 2.39637 3.78711 2.45508l3.32422 0.0488v5.1582h-11.41217l-0.0469-11.91992c-0.0421-11.04832-0.0226-11.9362 0.25391-12.14258 0.21551-0.16012 2.81378-0.24056 5.41211-0.24023zm20.86719 0.0137c1.22773 0.016 2.4312 0.10244 2.54883 0.24609 0.14396 0.17614 0.1857 3.50052 0.15234 12.14258l-0.0449 11.90039h-3.33594l-0.0937-7.11523c-0.0518-3.91406-0.11262-7.15279-0.13281-7.19727-0.1703-0.37005-0.44117 0.60657-0.56055 2.01563-0.0799 0.94026-0.2261 2.0914-0.32617 2.55664-0.0992 0.46524-0.26751 1.56465-0.37109 2.44531-0.45471 3.84201-0.89293 6.67533-1.09571 7.08008-0.13869 0.27487-0.36532 0.31117-1.68554 0.26758l-1.52735-0.0527-0.21484-1.42382c-0.11763-0.78282-0.30091-2.10381-0.40625-2.93555-0.10446-0.83174-0.30467-2.0941-0.44336-2.80664-0.1387-0.71165-0.25323-1.6722-0.25586-2.13477-2e-3 -0.46168-0.1602-1.43534-0.35156-2.16211-0.19049-0.72766-0.34786-1.6882-0.34961-2.13476-8.8e-4 -0.44745-0.0598-1.01319-0.13086-1.25782-0.0711-0.24461-0.16852 2.99748-0.2168 7.20508l-0.0879 7.65039h-3.51172l-0.045-11.91995c-0.0421-11.04832-0.0246-11.9362 0.25195-12.14258 0.31338-0.23306 4.33192-0.31842 5.10352-0.10937 0.31689 0.0863 0.39688 0.23423 0.40039 0.75195 2e-3 0.35583 0.081 0.96797 0.17578 1.35938 0.0948 0.3914 0.29071 1.63252 0.43555 2.75781 0.14571 1.12529 0.33819 2.44629 0.42773 2.93555 0.0895 0.48925 0.16856 1.22131 0.17383 1.62695 0.0132 0.89845 0.67038 3.1345 0.88281 3.00195 0.0843-0.0534 0.20095-0.63576 0.25977-1.29492 0.0597-0.65916 0.22049-1.92012 0.35742-2.80078 0.29056-1.87252 0.56627-3.93513 0.85156-6.36719 0.1387-1.17689 0.29056-1.79629 0.46875-1.91015 0.21814-0.13922 1.46953-0.19375 2.69727-0.17774zm42.17969 0c2.98478-0.018 5.9748 0.028 6.17187 0.1543 0.16854 0.10941 0.21265 0.75924 0.17578 2.62109l-0.0488 2.47656-1.91992 0.0508c-2.651 0.0703-2.38086-1.03825-2.38086 9.76367v9.32422l-4.125-0.1016-0.0469-9.38476c-0.0246-5.16123-0.0642-9.39575-0.0879-9.40821-0.0228-0.0133-0.95011-0.0723-2.06055-0.13281l-2.01953-0.11133-0.0488-2.39843c-0.043-2.10203-0.0123-2.4293 0.25195-2.625 0.17425-0.12899 3.15388-0.21051 6.13868-0.22852zm-98.75196 8e-3c0.83678-0.0181 1.67791 0.023 1.85742 0.13868 0.11675 0.0756 0.3375 0.45394 0.49024 0.84179s0.34287 0.8668 0.42187 1.0625c0.0799 0.19571 0.31902 0.83672 0.53321 1.42383 0.62149 1.70707 0.90469 2.45323 1.14258 3.02344 0.12288 0.29355 0.39714 1.01445 0.61132 1.60156 0.21507 0.58711 0.50154 1.34697 0.63672 1.68945 0.13519 0.34248 0.32767 0.8526 0.42774 1.13282 0.15098 0.42343 0.22458 0.47142 0.4414 0.28906 0.22033-0.18414 0.26172-1.06143 0.26172-5.60352v-5.38281l0.39453-0.10742c0.57848-0.15745 3.16663-0.13123 3.42383 0.0352 0.17469 0.11207 0.21177 2.65775 0.17578 12.13867l-0.0449 11.99804-1.97656 0.0508-1.97852 0.0508-0.17578-0.4961c-0.0974-0.27309-0.24688-0.6539-0.33203-0.84961-0.086-0.1957-0.37035-0.95752-0.63281-1.6914-0.26247-0.73389-0.63354-1.7334-0.82227-2.22266-0.18961-0.48926-0.55784-1.49072-0.82031-2.22461-0.26335-0.73389-0.56439-1.49375-0.66797-1.68945-0.10446-0.1957-0.24276-0.61053-0.30859-0.92188-0.0658-0.31134-0.23436-0.66276-0.37305-0.77929-0.1387-0.11654-0.25195-0.35725-0.25195-0.53516s-0.0771-0.37204-0.17188-0.43164c-0.11236-0.0703-0.1889 1.97796-0.21875 5.81641l-0.0469 5.92382h-4.03907l-0.0449-11.91992c-0.0421-11.04832-0.0246-11.9362 0.25195-12.14258 0.16547-0.1232 0.99916-0.20062 1.83594-0.21875zm79.00391 0c0.83678-0.0181 1.67595 0.023 1.85547 0.13868 0.11676 0.0756 0.33946 0.45394 0.49219 0.84179s0.34287 0.8668 0.42187 1.0625c0.0799 0.19571 0.31903 0.83672 0.53321 1.42383 0.6215 1.70707 0.90274 2.45323 1.14062 3.02344 0.12289 0.29355 0.39909 1.01445 0.61328 1.60156 0.21506 0.58711 0.50153 1.34697 0.63672 1.68945 0.13518 0.34248 0.32766 0.8526 0.42773 1.13282 0.15099 0.42343 0.22459 0.47142 0.44142 0.28906 0.22033-0.18414 0.25975-1.06143 0.25975-5.60352v-5.38281l0.39649-0.10742c0.57848-0.15745 3.16663-0.13123 3.42383 0.0352 0.17468 0.11207 0.21177 2.65775 0.17578 12.13867l-0.0449 11.99804-1.97657 0.0508-1.9785 0.0508-0.17774-0.4961c-0.0974-0.27309-0.24688-0.6539-0.33203-0.84961-0.086-0.1957-0.37034-0.95752-0.63281-1.6914-0.26247-0.73389-0.63158-1.7334-0.82031-2.22266-0.18961-0.48926-0.5598-1.49072-0.82227-2.22461-0.26334-0.73389-0.56243-1.49375-0.66601-1.68945-0.10446-0.1957-0.24276-0.61053-0.3086-0.92188-0.0658-0.31134-0.23435-0.66276-0.37304-0.77929-0.1387-0.11654-0.25196-0.35725-0.25196-0.53516s-0.0771-0.37204-0.17187-0.43164c-0.11236-0.0703-0.19086 1.97796-0.22071 5.81641l-0.0469 5.92382h-4.03711l-0.0449-11.91992c-0.0421-11.04832-0.0246-11.9362 0.25195-12.14258 0.16547-0.1232 0.99916-0.20062 1.83594-0.21875zm-118.00391 2e-3c0.80233 9e-3 1.58625 0.0594 1.71485 0.14258 0.17468 0.11207 0.21177 2.65775 0.17578 12.13867l-0.0449 11.99804h-4.03907l-0.80273-2.13476c-0.44154-1.17422-0.8937-2.359-1.00781-2.63477-0.11412-0.27576-0.20899-0.59972-0.20899-0.7207s-0.067-0.29527-0.15039-0.38867c-0.0843-0.0925-0.35577-0.77002-0.60156-1.50391-0.24667-0.73389-0.57187-1.57558-0.72461-1.86914-0.15186-0.29355-0.27647-0.66215-0.27734-0.82226 0-0.15924-0.10876-0.38206-0.24219-0.49415-0.13343-0.11208-0.29295-0.45605-0.35352-0.76562-0.30372-1.53716-0.45698 0.16164-0.5 5.55859l-0.0469 5.77539h-3.86133l-0.0449-12.03906c-0.043-11.357-0.0278-12.04583 0.26367-12.125 0.16942-0.0472 1.05729-0.0737 1.97461-0.0586l1.66797 0.0273 0.56054 1.15625c0.309 0.63604 0.56788 1.26394 0.57227 1.39649 5e-3 0.13165 0.11618 0.4921 0.24609 0.80078 0.1308 0.30778 0.41277 1.03984 0.62696 1.62695 0.21418 0.58711 0.46085 1.20262 0.54687 1.36719 0.0869 0.16457 0.32584 0.80558 0.53125 1.42383 0.20541 0.61824 0.518 1.44683 0.69531 1.84179 0.17732 0.39497 0.37665 0.93856 0.44336 1.20899 0.14309 0.57643 0.45754 0.54067 0.62696-0.0723 0.065-0.23751 0.12706-2.72435 0.13672-5.52734 0.0158-4.47182 0.0518-5.1099 0.29492-5.20508 0.20409-0.0792 1.0258-0.11057 1.82812-0.10156zm7.25196 0c0.79375-0.0237 1.64108 7e-3 2.00976 0.10742 0.39414 0.10675 0.39649 0.11428 0.39649 3.97851 0 4.63105-0.18801 4.30092 2.39453 4.23243l1.90625-0.0508 0.1758-8.1836 1.58008-0.0547c0.86903-0.0294 1.83701-5e-3 2.15039 0.0527l0.57031 0.10742v23.99414l-0.39453 0.0996c-0.21682 0.0543-1.1848 0.0782-2.15039 0.0488l-1.75586-0.0527-0.0469-4.78906c-0.0553-5.6647 0.10698-5.26172-2.13672-5.26172-2.47455 0-2.28326-0.42822-2.33593 5.24805l-0.0449 4.80273h-4.21485l-0.0449-11.91992c-0.0421-11.04832-0.0246-11.9362 0.25195-12.14258 0.15538-0.11564 0.89569-0.19311 1.68946-0.21679zm-108.552734 4e-3c1.223126-5.5e-4 2.447638 0.0451 2.589844 0.13672 0.222965 0.14322 0.424046 1.21525 0.755859 4.03516 0.10446 0.88066 0.264176 1.96201 0.355469 2.40234 0.09129 0.44033 0.240936 1.56065 0.333985 2.49024 0.202774 2.01751 1.031096 4.62311 1.064453 3.3457 0.0035-0.1281 0.124889-1.154 0.271484-2.2793 0.147473-1.12529 0.338877-2.64502 0.425781-3.3789 0.08603-0.73389 0.280459-2.05489 0.429688-2.93555 0.149228-0.88066 0.316669-2.0605 0.371094-2.61914 0.122015-1.23827 0.155416-1.2482 3.412109-1.16992l2.193359 0.0527v24.19531h-3.333984l-0.09375-7.11523c-0.05091-3.91406-0.111943-7.15811-0.134766-7.20703-0.142206-0.30423-0.366045 0.62451-0.46875 1.9375-0.06584 0.8433-0.233276 1.98469-0.371094 2.53711-0.137816 0.55241-0.249999 1.3532-0.25 1.77929 0 0.4261-0.11238 1.41446-0.251953 2.19727-0.139571 0.78281-0.348577 2.10381-0.460937 2.93555-0.112361 0.83174-0.254959 1.8332-0.316406 2.22461l-0.111328 0.71093h-3.335938l-0.111328-1.27539c-0.06233-0.70097-0.163162-1.35757-0.22461-1.45898-0.107092-0.17613-0.43934-2.59321-0.820312-5.98242-0.09831-0.88067-0.294021-2.0086-0.433594-2.50586-0.139572-0.49727-0.304862-1.51875-0.367187-2.26953-0.255445-3.05564-0.411188-0.96395-0.455078 6.06445l-0.04492 7.42773h-3.33594l-0.04492-11.99804c-0.03599-9.48092 0.0011-12.0266 0.175782-12.13867 0.142644-0.0921 1.364765-0.13812 2.58789-0.13868zm20.896485 0c2.628067 4.5e-4 5.256627 0.0472 5.402343 0.14063 0.168541 0.10941 0.21265 0.75924 0.175782 2.62109l-0.05078 2.47656-3.195312 0.0899c-3.757925 0.10497-3.594058 0.0131-3.527344 1.97461l0.05273 1.49414 3.160156 0.10351c1.738073 0.0569 3.180697 0.1168 3.207031 0.13282 0.02721 0.0169 0.02721 1.17246 0 2.5664l-0.04687 2.53516-2.984375 0.0898c-1.641513 0.0489-3.08394 0.15325-3.205078 0.23242-0.186975 0.12276-0.352222 4.28719-0.175781 4.42774 0.02458 0.0196 1.623495 0.0786 3.554687 0.13281l3.511719 0.0996v5.1582h-11.41211l-0.04297-11.99804c-0.03599-9.48092-8.57e-4 -12.0266 0.173828-12.13867 0.145278-0.0934 2.774275-0.13912 5.402344-0.13868zm187.851559 0c2.62807 4.5e-4 5.25662 0.0472 5.40234 0.14063 0.16854 0.10941 0.21265 0.75924 0.17578 2.62109l-0.0488 2.47656-3.19726 0.0899c-3.75793 0.10497-3.59211 0.0131-3.52539 1.97461l0.0508 1.49414 3.16016 0.10351c1.73806 0.0569 3.18265 0.1168 3.20898 0.13282 0.0272 0.0169 0.0272 1.17246 0 2.5664l-0.0488 2.53516-2.98437 0.0898c-1.64152 0.0489-3.08199 0.15325-3.20313 0.23242-0.18697 0.12276-0.35222 4.28719-0.17578 4.42774 0.0246 0.0196 1.62349 0.0786 3.55469 0.13281l3.51172 0.0996v5.1582h-11.41211l-0.0449-11.99804c-0.036-9.48092 1e-3 -12.0266 0.17578-12.13867 0.14528-0.0934 2.77232-0.13912 5.40039-0.13868zm-79.57031 8e-3c0.99795 0.0123 1.98307 0.0728 2.1582 0.16796 0.19575 0.10586 0.33789 0.37059 0.33789 0.625 0 0.24285 0.11306 0.89963 0.25 1.46094 0.25632 1.0479 0.44928 1.98452 0.89258 4.3125 0.13957 0.73389 0.41792 2.09385 0.61719 3.02344 0.20013 0.92959 0.4333 2.1475 0.51757 2.70703 0.0843 0.55864 0.20545 1.10313 0.26953 1.20899 0.065 0.10584 0.23563 0.84996 0.37696 1.65234 0.46348 2.61975 0.71743 3.93605 0.91406 4.75 0.32479 1.34323 0.58078 2.71485 0.67383 3.60351l0.0879 0.84571h-2.08984c-2.34641 0-2.50977-0.0723-2.50977-1.11133 0-0.37628-0.12695-1.20044-0.2832-1.83203l-0.28516-1.14844h-2.06445c-2.46842 0-2.39973-0.0541-2.6543 2.06836-0.25281 2.11004-0.16592 2.04397-2.5957 1.98438l-2.03516-0.0508 0.0606-0.78515c0.0342-0.43144 0.17429-1.10239 0.30859-1.49024 0.13518-0.38784 0.24414-0.98015 0.24414-1.3164 0-0.33715 0.0756-0.7541 0.16602-0.92578 0.15274-0.28911 0.49141-1.91661 0.89258-4.28907 0.0913-0.53818 0.27907-1.41884 0.41601-1.95703 0.13694-0.53818 0.34184-1.45781 0.45508-2.04492 0.11412-0.58711 0.32244-1.62949 0.46289-2.31445 0.2493-1.21692 0.53039-2.65445 0.93945-4.80274 0.11149-0.58711 0.31639-1.4389 0.45508-1.89258 0.1387-0.45367 0.25215-1.05377 0.25391-1.33398 4e-3 -0.58177 0.14597-0.85695 0.52344-1.00195 0.23348-0.0903 1.24617-0.12563 2.24414-0.11328zm-69.796874 8e-3c0.978653-4e-3 1.953629 0.0212 2.162109 0.0781 0.3678 0.0996 0.44704 0.36653 1.05273 3.54493 0.12992 0.68495 0.32113 1.6455 0.42383 2.13476 0.10183 0.48926 0.29861 1.44981 0.43555 2.13477 0.62237 3.10366 0.806 3.99896 1.07812 5.23632 0.16064 0.72855 0.35782 1.73002 0.43946 2.22461 0.20102 1.21959 0.4985 2.70638 0.71094 3.56836 0.0965 0.39141 0.28219 1.31299 0.4121 2.04688 0.12992 0.73388 0.32582 1.68877 0.43555 2.12109 0.11061 0.43144 0.16049 0.89267 0.11133 1.02344-0.12465 0.32914-4.28794 0.34278-4.4082 0.0137-0.0448-0.12187-0.15783-0.70391-0.25-1.29101-0.0931-0.58711-0.23243-1.38594-0.31055-1.77735l-0.14258-0.71289-2.150389-0.0488-2.148438-0.0508-0.1875 0.49414c-0.101826 0.27221-0.255968 1.13056-0.34375 1.90625-0.194875 1.73198-0.167888 1.71336-2.537109 1.65821-2.27003-0.0525-2.250947-0.0286-1.75586-2.15821 0.703131-3.0236 0.796195-3.45305 0.955078-4.38086 0.09129-0.53818 0.25316-1.37793 0.359376-1.86718 0.106214-0.48926 0.30642-1.44981 0.443359-2.13477 0.137817-0.68496 0.412064-2.04688 0.611328-3.02539 0.199264-0.97852 0.485339-2.3794 0.632813-3.11328 0.147472-0.73389 0.352373-1.69444 0.455078-2.13477 0.102704-0.44033 0.257724-1.24111 0.34375-1.77929 0.08603-0.53819 0.228624-1.1792 0.316406-1.42383 0.0869-0.24463 0.207009-0.81922 0.267578-1.27735 0.07549-0.57198 0.203672-0.8598 0.408203-0.91406 0.219454-0.0587 1.201034-0.0915 2.179688-0.0957zm-11.728516 2e-3c0.869805 6e-3 1.701851 0.0473 1.816406 0.1211 0.174686 0.11207 0.211772 2.65775 0.175781 12.13867l-0.04492 11.99804-1.75586 0.0527c-0.965596 0.0293-1.933571 5e-3 -2.15039-0.0488l-0.396485-0.0996v-11.99293c0-11.27249 0.01979-11.99771 0.308594-12.07422 0.269489-0.0712 1.17707-0.10126 2.046875-0.0957zm-12.634766 5.29492c-0.138637 0.0231-0.268872 0.0738-0.386718 0.1543-0.173808 0.11831-0.211772 1.60484-0.175782 6.81055l0.04492 6.66015 0.751953 0.0566c1.037578 0.0756 1.892005-0.48225 2.373047-1.54882 0.540735-1.19913 0.671857-7.95621 0.185547-9.61524-0.440114-1.5038-1.822501-2.67899-2.792969-2.51758zm94.087886 2.07032c-0.0504-0.0468-0.10309-0.0455-0.15234 0.0137-0.0657 0.0789-0.12711 0.2593-0.17188 0.55664-0.0553 0.36739-0.21374 1.26611-0.35156 2-0.40731 2.16341-0.63229 3.92471-0.52344 4.10351 0.13167 0.21528 2.13678 0.21909 2.26758 4e-3 0.1264-0.20727-0.20295-2.48573-0.53125-3.67773-0.13782-0.49727-0.25-1.14731-0.25-1.44532 0-0.83112-0.13581-1.41427-0.28711-1.55468zm-69.623042 0.0254c-0.03953-0.0285-0.08274-0.0287-0.126953 2e-3 -0.05895 0.0409-0.118701 0.13596-0.177734 0.29297-0.101827 0.2722-0.186425 0.66932-0.185547 0.88281 0 0.21349-0.121378 1.07062-0.271485 1.90234-0.545122 3.01472-0.600795 3.45585-0.455078 3.60352 0.2493 0.25263 2.402084 0.0803 2.347656-0.1875-0.02633-0.1281-0.131671-0.849-0.234374-1.60156-0.102705-0.75346-0.300562-1.80717-0.4375-2.3418-0.136062-0.53462-0.248246-1.25552-0.25-1.60156-0.0025-0.5254-0.09041-0.86563-0.208985-0.95117z"/>
</svg>
