<svg version="1.1" viewBox="0 0 496.7547 182.95732" xmlns="http://www.w3.org/2000/svg">
 <path d="m347.98102 0.00149799c-2.52725 0.02125-5.05232 0.268297-7.57032 0.716797-2.61799 0.46700001-5.05587 1.49797001-7.17187 3.16796901-2.121 1.673998-3.11995 4.523596-2.00195 6.808594 0.675 1.378998 1.80011 2.692375 3.03711 3.609374 2.74699 2.035998 6.00152 3.079627 9.22851 4.140626a58.153 58.153 0 0 1 5.24024 2.027343c1.60299 0.704 3.21312 1.768362 2.95312 3.69336-0.278 2.060998-2.26748 2.556969-4.02148 3.042968-0.181 0.05-0.3785 0.02831-0.5625 0.07031-4.351 0.996999-8.59718 0.259655-12.82618-0.777344-0.72299-0.177-1.4604-0.400344-2.1914-0.402344-0.355-1e-3 -0.89097 0.380657-1.04297 0.722657-0.797 1.785998 0.0543 3.609125 1.9043 4.203125a14.977 14.977 0 0 0 1.91015 0.484375c4.45 0.797999 8.93298 1.054405 13.41797 0.441406 3.179-0.435 6.31469-1.122455 8.92969-3.189453 3.311-2.614998 3.78959-6.546003 0.55859-9.75a10.176 10.176 0 0 0-3.02343-2.042969c-3.097-1.358999-6.26549-2.552845-9.39649-3.839844-1.567-0.642999-3.18367-1.212641-4.63867-2.05664-2.303-1.335999-2.21522-3.914705 0.17578-5.095703a10.48 10.48 0 0 1 3.76367-1.039063c3.664-0.273 7.32374-0.361046 10.92774 0.751953 1.852 0.571 2.3439 0.05736 2.3789-1.93164 0.039-2.179998-0.41858-2.76614101-2.39257-3.11914101-2.528-0.4535-5.0587-0.657969-7.58594-0.636719zm136.79492 0c-2.52762 0.02125-5.05377 0.268297-7.57227 0.716797-2.61699 0.46700001-5.05487 1.49797001-7.17187 3.16796901-2.121 1.673998-3.11895 4.523596-2.00195 6.808594 0.67399 1.378998 1.79911 2.692375 3.03711 3.609374 2.74499 2.035998 5.99951 3.079627 9.22851 4.140626a58.269 58.269 0 0 1 5.24023 2.027343c1.601 0.704 3.21513 1.768362 2.95313 3.69336-0.277 2.060998-2.26944 2.556969-4.02344 3.042968-0.18 0.05-0.37654 0.02831-0.56054 0.07031-4.351 0.996999-8.59718 0.259655-12.82618-0.777344-0.722-0.177-1.4614-0.400344-2.1914-0.402344-0.357-1e-3 -0.89297 0.380657-1.04297 0.722657-0.797 1.785998 0.0543 3.609125 1.9043 4.203125a14.962 14.962 0 0 0 1.91015 0.484375c4.449 0.797999 8.93398 1.054405 13.41797 0.441406 3.18-0.435 6.31269-1.122455 8.92969-3.189453 3.31099-2.614998 3.79059-6.546003 0.55859-9.75a10.15 10.15 0 0 0-3.02344-2.042969c-3.09599-1.358999-6.26553-2.552845-9.39453-3.839844-1.569-0.642999-3.18562-1.212641-4.64062-2.05664-2.304-1.335999-2.21522-3.914705 0.17578-5.095703a10.475 10.475 0 0 1 3.76172-1.039063c3.66599-0.273 7.32574-0.361046 10.92773 0.751953 1.854 0.571 2.34586 0.05736 2.38086-1.93164 0.039-2.179998-0.42063-2.76614101-2.39062-3.11914101-2.529-0.4535-5.05832-0.657969-7.58594-0.636719zm-459.154301 0.07422c-2.334372-0.087-4.675971-0.01986-7.042968 0.369141-4.256996 0.69899901-8.238082 1.87158001-11.8300778 4.26757801-9.192991 6.130993-8.782632 18.234989-0.05664 23.458984 1.759998 1.053999 3.6270798 2.066954 5.5800778 2.626953 4.235996 1.213999 8.064302 1.820718 13.029297 1.386719 4.964995-0.434 9.39508-1.341485 10.830078-1.771484 1.434999-0.429 2.174781-1.031189 2.175781-2.492188 2e-3 -3.773996-3e-3 -7.547316 0-11.320312 1e-3 -1.277999-0.630298-1.908204-1.904297-1.908204h-6.509765v-0.0078c-2.169998 0-4.337815 0.0061-6.507813-0.0039-0.891999-5e-3 -1.690766 0.135876-2.134765 1.046875-0.837999 1.719998 0.120345 3.540953 2.027343 3.751953 0.746 0.083 1.50772 0.0143 2.261719 0.0293 5.706995 0.114 4.903047-1.007494 4.998047 5.1875 0.018 1.239998-0.404454 1.983437-1.689453 2.148437-0.926999 0.118-1.845485 0.34911-2.771484 0.41211-2.744998 0.187999-3.201409 0.186343-5.941407 0.02734-2.743997-0.159-5.199314-0.845876-7.445312-2.296875-5.3929958-3.484015-6.1265428-11.17343-1.560548-15.691425 2.005998-1.984998 4.45544-3.220829 7.148437-3.798828 5.325995-1.142999 10.650256-0.883452 15.90625 0.560547 2.294998 0.629999 2.952235 0.145169 2.865235-2.173828-0.062-1.638999-0.421939-2.189267-1.960938-2.697266-0.797999-0.26300001-1.636704-0.47073401-2.470703-0.55273401-2.335497-0.23-4.661721-0.471594-6.996094-0.558593zm141.189461 0.99414101c-1.08588 0.0054-2.17332 0.0415-3.25782 0.0625-1.027 0.019-1.49534 0.689829-1.52734 1.673828-0.022 0.659999-0.0176 1.321422-0.0176 1.982422v23.222656c1e-3 4.592995 4e-3 4.594203 4.51953 4.533203 2.975-0.04 3.25858-0.298519 3.26758-3.228516 0.017-5.757994 4e-3 -11.515443 6e-3 -17.273437 0-0.661-0.0279-1.32647 0.0391-1.980469 0.069-0.659999 0.4808-0.748047 0.9668-0.373047 0.295 0.227 0.53206 0.528735 0.78906 0.802734 6.189 6.599994 12.40184 13.179367 18.54883 19.81836 1.448 1.563998 3.03603 2.473093 5.20703 2.246094 0.746-0.078 1.51163 0.0084 2.26563-0.01758 2.38699-0.079 2.75834-0.426425 2.77734-2.857422 0.032-4.247996 0.01-8.497098 0.01-12.746094 1e-3 -3.586997 0.0231-7.173722-6e-3 -10.761719-0.044-5.39599401 0.97474-5.18235901-5.53125-5.068359-1.513 0.027-1.96247 0.560033-2.10547 2.082031-0.062 0.654999-0.0195 1.319469-0.0195 1.980469-1e-3 5.569994 6e-3 11.13999-0.0117 16.708984-2e-3 0.536-0.15819 1.071423-0.24219 1.607422-0.45-0.283-0.98494-0.487282-1.33594-0.863281-3.21499-3.443997-6.3727-6.94291-9.5957-10.378907a547.99 547.99 0 0 0-9.20703-9.58789c-0.631-0.640999-1.48392-1.384891-2.29492-1.462891-1.075-0.1025-2.15827-0.126468-3.24414-0.121093zm-76.171883 0.01367c-3.117 8e-3 -3.29759 0.206847-3.30859 3.464844-0.012 3.965996-2e-3 7.934395-2e-3 11.900391 0 4.344995-0.0292 8.689254 0.01 13.03125 0.023 2.433997 0.60181 3.035828 3.00781 3.048828 6.706 0.037 13.412203 0.03705 20.117193-2e-3 2.212-0.012 2.6822-0.567409 2.6582-2.691407-0.023-1.956998-0.49444-2.442734-2.52344-2.552734-0.56599-0.031-1.13321-0.0059-1.69921-0.0059-3.778 0-7.55404 0.01919-11.332033-0.0078-2.069-0.015-2.08777-0.04895-2.13477-2.001953a79.453 79.453 0 0 1 0-3.966797c0.052-2.126998 0.10602-2.168515 2.29101-2.228515 0.66-0.018 1.32338-2e-3 1.98438-2e-3 2.928003-1e-6 5.855213 0.0082 8.783203-0.0078 0.84-4e-3 1.73164 0.06212 2.18164-0.921875 0.988-2.164998-0.0836-3.989625-2.43164-4.015625-3.49399-0.04-6.99038 0.0095-10.484373-0.02148-2.205-0.02-2.26327-0.09746-2.32227-2.189453a74.111 74.111 0 0 1-4e-3 -3.400391c0.042-2.437998 0.0493-2.45961 2.61132-2.474609 3.777003-0.02 7.556993 0.02137 11.333993-0.01563 2.296-0.022 2.66523-0.439955 2.61523-2.626953-0.046-1.979998-0.34739-2.29564-2.65039-2.30664-6.23299-0.03-12.468183-0.02086-18.701173-0.0059zm164.613283 2e-3c-2.601 9e-3 -2.97119 0.370784-2.99219 2.925782-0.033 4.154996-0.01 8.311801-0.01 12.466797 0 4.249995-0.023 8.500004 0 12.75 0.016 2.765997 0.54617 3.29264 3.32617 3.30664 5.38 0.026 10.76344 0.0098 16.14844 0.0078 1.416 0 2.83805 0.0658 4.24804-0.0332 1.585-0.11 2.01746-0.689971 2.06446-2.417969 0.053-1.958998-0.37933-2.596157-1.98633-2.785156-0.652-0.077-1.31852-0.0293-1.97852-0.0293-3.96599-2e-3 -7.93439 0.02528-11.90039-0.01172-1.72399-0.016-1.7544-0.07914-1.8164-1.744141-0.043-1.226998-0.0188-2.455595-8e-3 -3.683593 0.027-2.744998 0.0316-2.745579 2.89258-2.767578 0.564-4e-3 1.13422 0 1.69922 0 2.832-1e-3 5.66805 0.04184 8.49805-0.03516 0.689-0.018 1.83798-0.289453 1.95898-0.689453 0.311-1.025999 0.34258-2.226017 0.14258-3.291016-0.193-1.036998-1.284-0.929593-2.125-0.933593-3.02-0.015-6.04541-0.0038-9.06641-0.0098-4.34799-0.01-4.00518 0.392215-3.99218-3.925781 0.01-4.534996-0.47231-4.141391 4.05468-4.150391 3.399-6e-3 6.80218 0.0042 10.20118-0.0078 0.851 0 1.72658 0.02448 2.14258-0.978516 0.93399-2.247998-0.10554-3.947984-2.51954-3.958984a2266.15 2266.15 0 0 0-18.98242-0.0039zm162.39453 2e-3c-1.97799 0-3.96336-0.05638-5.94336 0.01563-1.62199 0.06-1.98253 0.500361-2.01953 2.068359-0.041 1.598998 0.2795 1.993297 1.8125 2.279297 2.103 0.391999 2.13653 0.392486 2.14453 2.396484 0.018 5.848994 0.018 11.697881 0 17.546875-6e-3 2.003998-0.0366 2.002798-2.05664 2.466797-1.57 0.361-1.99848 0.947986-1.89648 2.583985 0.09 1.427998 0.58391 2.0325 2.12891 2.0625 3.77099 0.073 7.54541 0.07381 11.3164 0.0078 1.703-0.029 2.22463-0.647845 2.26563-2.214844 0.043-1.624998-0.39683-2.147359-2.04883-2.443359-2.006-0.36-2.02921-0.360487-2.0332-2.396485-0.014-5.753994-0.014-11.509677-2e-3 -17.263671 5e-3 -2.331998 0.0275-2.331048 2.35352-2.748047 1.439-0.258 1.79447-0.739471 1.73047-2.355469-0.057-1.445999-0.39651-1.916516-1.8125-1.978516-1.976-0.086-3.96141-0.02148-5.94141-0.02148zm69.44727 24.80664-0.12305 0.13086-0.14062 0.125 0.18164-0.08203zm-248.16797 33.9375c-6.1803 0.144287-10.92305 0.846297-13.66992 1.216797-9.52499 1.283999-18.62049 3.79077-27.27149 8.009766-6.46999 3.154997-12.52917 6.942691-18.32617 11.179687-2.154 1.574999-3.80944 1.78822-7.39844 2.449219-0.75599 0.236-1.38837 0.840376-1.35937 1.484375 0.025 0.571999 0.74414 1.40625 0.74414 1.40625s0.76183 0.831704 1.17383 1.220703c6.58699 6.211997 13.17782 12.417727 19.75781 18.636714 0.717 0.679 2.33333 1.43969 3.11133 0.67969 0.647-0.633 0.37948-2.01181 0.27148-2.88281-0.034-0.274-0.30553-1.43133-0.0195-3.11133 0.529-3.110997 2.97994-5.927797 5.83594-8.341797 1.61-1.156 3.01659-2.2153 4.68359-3.27929 12.76999-8.143997 26.58507-11.847737 41.74805-9.677739 21.64898 2.992997 30.17389 15.837259 13.75391 28.781246-4.528 3.135-9.49313 5.44532-14.57813 7.44531-11.31999 4.455-31.47851 11.89649-31.47851 11.89649s-24.08966 8.78715-36.18165 19.74414c-2.85399 2.587-3.27053 3.01611-4.51953 4.28711-6.52099 6.44299-9.82145 14.78468-10.68945 23.76367-0.53 5.48899 0.24913 4.95703 4.57813 4.95703 42.59095-4e-3 85.17766-2e-3 127.76562-2e-3 0.945 0 7.02516 0.21656 9.28516 2.60156 0.621 0.655 1.76083 0.82081 2.29883 0.50781 0.35499-0.207 0.5897-0.46273 0.5957-1.17773 0.043-7.36499 0.0412-14.89477-8e-3 -22.25977-4e-3 -0.572-0.29304-1.42581-0.70704-1.63281-0.432-0.217-1.389-0.0156-1.75 0.35742-2.48499 2.555-5.63858 2.78516-8.89257 2.78516-31.44497-2e-3 -62.89293 2e-3 -94.33789-0.0176-1.307-3e-3 -3.52861 0.13814-3.97461-1.25586-0.515-1.606 2.14648-3.66016 2.14648-3.66016s5.33781-4.68697 13.4668-8.54296c10.22099-4.849 16.63151-6.92599 25.5625-9.58399 11.76199-3.398 17.03857-5.28492 24.22656-7.79492 8.39899-2.933 16.71084-6.38271 23.67383-11.9707 19.47698-15.05199 9.91881-33.896989 7.38281-37.333985-4.284-5.806994-9.96866-9.923081-16.59766-12.830078-15.7081-6.984368-30.00223-8.295166-40.30273-8.054688zm-153.953133 0.289063c-6.27524 0.04188-12.25217 0.422485-16.57617 0.958984-9.034988 1.120999-17.880162 2.97755-26.285153 6.435547-5.306995 2.183998-10.336958 5.037315-15.501953 7.570312-1.942998 0.954-3.852534 2.042032-5.894532 2.707032-1.381998 0.449999-2.976845 0.214719-4.464843 0.386718-1.329999 0.154-1.7565 1.085986-1.0625 2.208985 0.244 0.394999 0.611406 0.715735 0.941406 1.052734 5.741994 5.870994 11.478287 11.745659 17.238281 17.597659 0.896999 0.91 1.712158 2.279167 3.285156 1.701167 1.558999-0.573 1.348907-2.075667 1.378907-3.388667 0.058-2.525 1.086908-4.62269 3.128906-6.05469 2.390998-1.678 4.817253-3.355501 7.40625-4.6875 11.308989-5.818994 23.576995-7.726454 36.083985-8.314453 6.90899-0.325 13.71629 0.747033 20.363283 2.707031 4.056 1.196999 7.69966 3.174628 10.59766 6.265625 3.01799 3.219997 4.10727 7.718957 0.86328 11.626957-0.037 0.045-0.0733 0.0898-0.11133 0.13281-2.327 2.710997-6.78599 5.991187-11.45898 7.242187-4.366 1.17-3.71237 1.05129-11.193363 2.02929-2.798 0.366-16.49346 0.84174-20.68946 0.30274-2.52599-0.324-4.945-0.99058-7.125-2.51758-1.725995-1.209-2.766247-0.53559-2.781247 1.69141-0.045 6.79799-0.03751 13.60235 0.02148 20.40234 6e-3 0.658 0.02969 1.40877 0.554687 1.88477 0.524999 0.47299 1.399905 0.39973 2.503905-0.57227 2.997-2.781 10.81494-3.09177 14.08594-3.13477 6.96699-0.09 13.91891-0.21643 20.878898 0.97657 7.741 1.32999 15.05 3.3066 21.33399 8.30859 4.62599 3.683 6.01609 10.1601 2.62109 14.87109-2.55899 3.551-5.7538 6.45557-9.96679 8.10157-6.922 2.70499-14.15606 4.03003-21.498048 4.45703-8.66199 0.502-17.33395 0.33056-25.96094-1.02344-7.285991-1.144-14.460693-2.66666-21.429686-5.09766-5.373994-1.87499-10.497207-4.23705-15.033203-7.74804-1.916998-1.481-3.373625-3.25949-4.015625-5.64649-0.293999-1.097-0.597001-2.25417-2-2.45117-1.491998-0.209-2.208375 0.80258-2.859375 1.89258-0.145 0.244-0.311984 0.47484-0.458984 0.71484-3.193997 5.238-6.403316 10.4648-9.570313 15.7168-1.168998 1.941-2.3274068 3.89378-3.3164058 5.92578-0.829999 1.705-0.244982 2.44678 1.6660158 2.42578 0.375999-7e-3 0.778094 5e-5 1.121094-0.12695 3.005996-1.102 5.708612-0.0723 8.474609 1.01367 5.788994 2.272 15.436802 7.16822 36.175781 10.82422 5.094995 0.9 10.266782 1.56586 15.425782 1.88086 4.70299 0.288 14.96847 1.42551 35.064448-0.77149 5.878-0.77699 11.68121-1.92614 17.40821-3.61914 7.69399-2.27699 14.87241-5.48842 21.3164-10.23242 3.187-2.344 6.21597-4.93047 8.04297-8.60547 2.347-4.72099 3.62248-9.52403 2.89648-14.95703-0.70999-5.30499-2.82362-9.79016-6.39062-13.53515-4.884-5.129-10.74151-8.87296-17.5625-11.00196-1.165-0.363-2.36611-0.7174-3.41211-1.3164-1.163-0.666-1.11461-1.58921 0.0254-2.28321 0.717-0.437 4.07419-1.28655 9.74219-4.68554 2.889-1.732 4.98858-3.6409 6.39258-6.58789 2.03899-4.278997 2.82314-8.636257 2.11914-13.406247-0.734-4.975999-2.92165-9.079961-6.18164-12.751958-4.51-5.080994-10.41018-8.085346-16.45117-10.777343-6.848-3.051997-14.16107-4.535392-21.53907-5.650391-5.518988-0.814999-12.091938-1.110234-18.367188-1.068359zm243.589853 0.99414c-0.566 0-1.13317 3e-3 -1.70117 2e-3 -0.971-2e-3 -2.0625-8.11e-4 -2.1875 1.242188-0.123 1.220999 0.98486 1.431985 1.88086 1.708984 0.631 0.195 1.26129 0.394922 1.90429 0.544922 3.485 0.814999 6.4458 2.441597 8.9668 5.058594 6.54899 6.796993 13.20685 13.490085 19.83984 20.20508 8.16 8.26299 16.34182 16.50273 24.50782 24.76172 2.69299 2.71999 2.68181 3.45833-0.11719 6.23633-1.34 1.32799-2.79252 2.54148-4.10352 3.89648-3.39799 3.526-6.68795 7.16053-10.12695 10.64453-11.07999 11.22099-22.27131 22.32815-33.2793 33.61914-3.45299 3.543-7.18145 6.32771-12.06445 7.4707-1.088 0.256-2.94147 0.33419-2.73047 1.86719 0.104 1.467 2.12117 1.13858 3.32617 1.14258 13.40999 0.041 26.82049 0.0254 40.23047 0.0234 0.663 0 1.33252 0.0374 1.97852-0.0566 1.49-0.213 1.75792-0.7868 1.04492-2.0918-1.249-2.283-1.24951-2.39324 0.39648-4.11523 4.365-4.571 8.69091-9.17974 13.12891-13.67774 6.83199-6.92499 13.73487-13.78263 20.63086-20.64062 2.387-2.375 3.26153-2.34597 5.64453-0.043a59.23 59.23 0 0 1 1.20117 1.20117c10.78499 10.97299 21.57576 21.9436 32.34375 32.93359 0.645 0.655 1.4666 1.44119 1.5586 2.24219 0.084 0.754-0.64257 1.63135-1.10157 2.40234-0.547 0.916-0.21307 1.44722 0.66993 1.69922 0.534 0.152 1.12059 0.14063 1.68359 0.14063 13.88199 6e-3 27.76545 8e-3 41.64844-2e-3 0.654 0 1.34208-2e-3 1.95508-0.19531 0.37499-0.119 0.83962-0.57564 0.89062-0.93164 0.049-0.346-0.29119-0.96337-0.61719-1.10937-1.201-0.532-2.44384-1.01589-3.71484-1.33789-3.488-0.892-6.37933-2.69998-8.86133-5.29297-4.311-4.496-8.65988-8.95496-13.04687-13.37696-6.517-6.57099-13.10529-13.07035-19.61329-19.65234-2.44899-2.478-4.70672-5.14844-7.13671-7.64844-3.279-3.37499-6.66399-6.64781-9.95899-10.00781-1.876-1.919-1.87148-2.83525-0.0215-4.78125 2.92399-3.078 5.8578-6.15392 8.84179-9.16992 11.89599-12.00699 23.85733-23.948732 35.69532-36.01172 2.75199-2.803997 5.85316-4.683626 9.66015-5.515625 1.004-0.22 1.98825-0.615172 2.90625-1.076172 0.305-0.152 0.56091-0.79511 0.50391-1.162109-0.059-0.371-0.48208-0.894703-0.83008-0.970703-0.814-0.179-1.68139-0.167969-2.52539-0.167969-13.59999-8e-3 -27.19884-0.0059-40.79883-0.0059-0.473 0-0.95111 0.01339-1.41211 0.02539-2.111 0.053-2.11117 0.904736-1.07617 2.302735 1.15 1.640998 1.17927 2.181892-0.0527 3.71289-0.295 0.367-0.64257 0.692344-0.97657 1.027344-9.23899 9.321991-18.47876 18.641947-27.71875 27.960938-0.465 0.47-0.92154 0.95714-1.43554 1.36914-0.924 0.744-1.92819 0.73069-2.86719 0.0547-0.536-0.381-0.97445-0.89133-1.43945-1.36133-9.35899-9.464991-18.71823-18.931494-28.07422-28.396485-0.066-0.067-0.13427-0.132172-0.19727-0.201172-1.908-2.017998-1.92209-2.251596-0.24609-4.433594 0.938-1.221998 0.70689-1.855203-0.78711-2.033203-0.653-0.078-1.32242-0.02734-1.98242-0.02734l-20.11524-2e-3z"/>
</svg>
