<svg version="1.1" viewBox="0 0 399.99999 104.89408" xmlns="http://www.w3.org/2000/svg">
 <path d="m16.070312 0c-1.753094 0.29218255-3.50705 0.58360345-4.675781 1.1679688-1.168731 0.584365-2.3375093 1.1695412-2.9218748 1.7539062-0.8765475 0.584366-1.1679687 1.1683744-1.1679687 2.0449219 0 0.584365 0.2925881 1.1695412 0.8769531 1.7539062 0.584365 0.584366 1.1691604 1.168755 2.3378904 1.4609375 1.168731 0.584365 2.336749 0.8757863 4.089844 1.1679688 1.460915 0.2921825 3.506288 0.5847726 5.84375 0.8769526 1.753095 0.292184 3.505881 0.2918 4.966797 0.583985 1.168731 0.292184 2.338297 0.291805 3.214844 0.583984 0.876548 0.292184 1.459769 0.584774 1.751953 0.876953 0.292179 0.292184 0.583984 0.58477 0.583984 0.876954 0 0.292179-0.291805 0.584769-0.583984 0.876953l-1.751953 0.876953c-0.876547 0.292179-1.754313 0.583984-2.63086 0.583984-0.876547 0.292184-2.044164 0.291016-3.21289 0.291016-1.168731 0-2.339082-0.291016-3.507813-0.291016s-2.043375-0.291805-2.919922-0.583984c-0.876547-0.292184-1.462507-0.585559-2.046875-1.169922-0.584363-0.584368-1.167969-1.16759-1.167968-1.751953h-7.304688c0 0.876547 0.2914208 1.752358 1.1679688 2.628906 0.584365 0.584363 1.7539322 1.460554 3.2148432 2.044922 1.460915 0.584363 2.922303 1.168758 5.259766 1.460937 2.337463 0.292185 4.673877 0.583985 7.595703 0.583985 2.337463 0 4.383624-0.292589 6.136719-0.876953 2.045278-0.292184 3.505882-0.583606 4.966797-1.167969 1.46091-0.584368 2.338296-1.16759 3.214844-1.751953 0.876547-0.876548 1.167968-1.461344 1.167968-2.337891 0-0.584363 3.79e-4 -1.169543-0.583984-1.753906-0.584363-0.584369-1.168374-1.1687551-2.044922-1.4609376-0.876547-0.2921825-1.753144-0.5847702-2.921875-0.8769532-1.168732-0.2921825-2.339086-0.2918018-3.507812-0.5839843-1.168732-0.2921825-2.628149-0.5839844-3.796875-0.5839844-1.460916 0-2.630098-0.2929687-3.798829-0.2929687-1.460911 0-2.629312-0.2910157-3.505859-0.2910157-0.876547-0.2921825-1.753523-0.2918018-2.337891-0.5839843-0.584363-0.292183-1.168753-0.5859376-1.460937-0.5859376-0.292184 1e-7 -0.292969-0.2918018-0.292969-0.5839843 0-0.584365 0.878144-1.168755 2.046875-1.4609375 1.168732-0.2921825 3.213323-0.5839844 5.550781-0.5839844 4.967109 0 7.597278 1.1695658 8.181641 3.2148438h7.304688c0-0.876548-0.293374-1.7543119-1.169922-2.6308594-0.876547-0.8765485-1.751976-1.4605569-3.212891-2.0449219-1.460911-0.5843651-3.215655-0.8757862-4.96875-1.16796875-1.753094-0.2921825391-3.797304-0.29296875-6.134766-0.29296875zm27.173829 0v12.564453c0 2.045279 1.460987 3.506266 4.382812 4.382813 3.21401 0.876547 7.303211 1.460937 12.5625 1.460937 4.967104 0 9.058643-0.58439 11.980469-1.460937 3.21401-0.876547 4.673828-2.62934 4.673828-4.966797v-11.980469h-9.933594v10.810547c0 0.876547-7.89e-4 1.752738-0.292968 2.044922 0 0.292179-0.584391 0.585554-1.460938 1.169922-1.168731 0.292179-2.33596 0.291015-3.796875 0.291015-2.045279 0-3.21525-0.2918-4.091797-0.583984-0.876547-0.584368-1.167969-1.168375-1.167969-2.044922v-11.6875zm39.152343 0v18.408203h11.394532v-6.720703h6.136718c4.090576 0 7.303946-0.585174 9.933596-1.7539062 2.33748-0.876548 3.50586-2.3367478 3.50586-4.0898438 0-1.16873-0.87623-2.3382948-2.04492-3.2148438-1.16873-0.8765475-2.6305-1.4605568-4.67579-2.04492182-2.04524-0.29218255-4.96723-0.58398438-8.765621-0.58398438zm33.892576 0v18.408203h27.46485v-4.675781h-16.36133v-2.921875h13.43945v-4.0898439h-13.43945v-2.6308593h16.36133v-4.0898438zm29.21875 0v18.408203h11.10352v-7.013672h3.50586l5.25976 7.013672h12.27149l-6.13672-8.181641c2.33748-0.5843625 4.09025-1.1683739 4.9668-2.0449214 0.8765-0.8765475 1.16992-1.7531445 1.16992-2.921875 0-1.4609125-1.16918-2.9222806-3.79883-3.7988281-2.33748-0.8765476-5.552-1.4609375-9.64258-1.4609375zm11.39453 3.7988281h4.9668c2.62965 0 4.0918 0.5832231 4.0918 1.7519531 0 0.5843655-0.29342 1.1699219-1.16992 1.1699219-0.58437 0.2921835-1.75198 0.5839844-3.2129 0.5839844h-4.67578zm-63.404293 0.2910157h4.091797c3.214026 0 4.673826 0.5851762 4.673826 1.7539062 0 1.168731-1.75278 1.7539062-4.966795 1.7539062h-3.798828zm119.503903 5.2597656 47.62696 43.5351566-7.47461 7.013672h-46.46875c3.61209-3.782272 5.43945-7.862467 5.43945-12.271485 0-15.77786-21.32981-26.589844-51.7168-26.589844-27.17297 0-47.62427 10.5198-51.71484 26.589844l-0.87695 3.796875h44.41211l0.29101-2.044922c0.58437-2.921826 3.79848-5.259765 7.30469-5.259765 2.62966 0 5.25978 1.461749 6.7207 3.214843 0.58437 1.168731 0.87618 2.045328 0.58399 2.921875-0.60297 2.009889-5.02253 5.553966-11.35352 9.642579h-57.726562c-1.929305-1.325436-4.207795-2.520843-6.886719-3.507813 7.596755-3.798373 12.562501-9.348919 12.562501-14.900391 0-13.148214-24.835565-20.160156-49.378907-20.160156-15.193497 0-27.173191 2.044209-35.646484 6.134766-8.7654795 4.090557-14.6093753 10.811435-14.6093752 16.947265v2.921875h40.3222652l0.583985-2.33789c0.292179-2.045278 3.797736-4.089844 8.472656-4.089844s8.474609 2.336365 8.474609 4.673828c0 2.337462-3.507505 4.675781-8.474609 4.675781h-1.167969l-4.382812-0.583984v10.226563h-33.308594l12.75 12.271484h-27.359375v2.921875c0 4.967105 2.0445912 9.057091 5.5507812 12.855469 10.8107558 10.810755 34.7697498 12.564454 47.9179688 12.564454 1.100576 0 2.174874-0.0462 3.257812-0.0762l4.632813 4.45898h338.640625v-28.634734l-18.99219-16.361328h-49.29492l-7.97266-7.304688 45.87305-43.2441406h-62.82031l-14.90039 14.0253906-15.48633-14.0253906zm150.76758 43.0683596v0.0098h2.04492v-0.0098zm6.7207 0v0.0098h2.04493v-0.0098zm2.83204 0 4e-3 0.0098h1.68555l-4e-3 -0.0098zm2.58398 0-4e-3 0.0098h2.26954l4e-3 -0.0098zm3.05664 0v0.0098h1.46094v-0.0098h-0.59766zm1.01953 3.693359c0.1584 0.03296 0.30373 0.0761 0.44141 0.125v-0.125z"/>
 <path d="M393.57195 100.80351H281.37327L177.35573 0h112.19869v.292184L393.57195 101.09569" fill="#1d46a5"/>
 <path d="m220.59961 12.271484 44.11914 40.613282-44.11914 41.490234h54.63867l17.23828-16.361328 17.82227 16.361328h54.63867l-45.58008-41.78125 42.95117-40.322266h-54.3457l-16.07031 15.19336-16.6543-15.19336h-54.63867zm-60.48242 12.271485c-26.88091 0-45.28872 10.519316-48.79492 24.251953h37.10742c1.16874-4.382757 5.25943-7.597656 10.22656-7.597656 5.84367 0 11.9785 4.675454 10.51758 9.642578-2.04529 8.473329-40.9049 28.050472-57.85156 34.478515v9.056641h95.83593v-15.777344h-38.27539v-3.505859c22.20597-5.843675 40.0293-14.316957 40.0293-26.880859 0-14.317005-21.91401-23.667969-48.79492-23.667969zm-105.771487 0.292969c-13.732637-1e-6 -25.711049 1.753177-34.476562 5.84375-7.888962 3.798389-12.8574222 9.641465-12.8574222 14.316406h34.4785152c0.584368-3.798389 5.550855-6.720703 11.394532-6.720703 6.135858 0 11.396484 3.507083 11.396484 7.597656 0 4.382756-4.968442 7.595703-11.396484 7.595703-0.876551 0-1.46134-0.291016-2.337891-0.291016v12.855469h2.337891c7.596778 0 13.732422 3.798884 13.732422 8.181641 0 4.382756-6.135644 8.18164-13.732422 8.18164-6.428044 0-11.685948-3.214114-12.5625-7.304687h-37.400391c0 15.777924 21.913247 22.498047 49.962891 22.498047s50.548824-10.226328 50.548824-22.498047c0-7.888962-7.304488-14.026194-22.498043-15.779297v-3.212891c12.271718-2.921837 19.867183-8.181715 19.867183-14.02539 0-9.642066-20.160491-17.238281-46.457027-17.238281z" fill="#fff"/>
</svg>
