<svg width="362.01562" height="85.318359" version="1.1" viewBox="0 0 362.01562 85.318358" xmlns="http://www.w3.org/2000/svg">
 <path d="m217.67774 0 44.11913 40.613282-44.11913 41.490234h54.63867l17.23827-16.361328 17.82227 16.361328h54.63867l-45.58008-41.78125 42.95117-40.322266h-54.3457l-16.07031 15.19336-16.6543-15.19336zm-60.48242 12.271485c-26.88091 0-45.28872 10.519316-48.79492 24.251953h37.10742c1.16874-4.382757 5.25943-7.597656 10.22656-7.597656 5.84367 0 11.9785 4.675454 10.51758 9.642578-2.04529 8.473329-40.9049 28.050472-57.85156 34.478515v9.056641h95.83592v-15.777344h-38.27539v-3.505859c22.20598-5.843675 40.02931-14.316957 40.02931-26.880859 0-14.317005-21.91401-23.667969-48.79492-23.667969zm-105.771492 0.292969c-13.732637-1e-6 -25.711049 1.753177-34.476562 5.84375-7.888962 3.798389-12.8574222 9.641465-12.8574222 14.316406h34.4785152c0.584368-3.798389 5.550855-6.720703 11.394532-6.720703 6.135858 0 11.396484 3.507083 11.396484 7.597656 0 4.382756-4.968442 7.595703-11.396484 7.595703-0.876551 0-1.46134-0.291016-2.337891-0.291016v12.855469h2.337891c7.596778 0 13.732422 3.798884 13.732422 8.181641 0 4.382756-6.135644 8.18164-13.732422 8.18164-6.428044 0-11.685948-3.214114-12.5625-7.304687h-37.400391c0 15.777924 21.913247 22.498047 49.962891 22.498047s50.548829-10.226328 50.548829-22.498047c0-7.888962-7.304493-14.026194-22.498048-15.779297v-3.212891c12.271718-2.921837 19.867183-8.181715 19.867183-14.02539 0-9.642066-20.160491-17.238281-46.457027-17.238281z"/>
</svg>
