<svg enable-background="new 0 0 288.411 75.415" version="1.1" viewBox="0 0 288.411 75.415" xmlns="http://www.w3.org/2000/svg">
 <path d="m26.048828 2.8945312v3.7871094h37.865234c0-2.5249974-0.839439-3.7871094-2.523437-3.7871094zm41.652344 0v3.7871094h23.982422v-3.7871094zm30.292969 0c-1.682999 0-2.523438 1.2631119-2.523438 3.7871094h26.505857v-3.7871094zm31.556639 0c-1.683 0-2.52539 1.2631119-2.52539 3.7871094h26.50586c0-2.5249974-0.83944-3.7871094-2.52344-3.7871094zm27.76953 0v3.7871094h26.50586c0-2.5249974-0.83944-3.7871094-2.52344-3.7871094zm32.81641 0c-1.683 0-2.52344 1.2631119-2.52344 3.7871094h26.50586c0-2.5249974-0.83944-3.7871094-2.52344-3.7871094zm29.0332 0v15.1484378h6.31055v-15.1484378zm11.35938 0 2.52343 3.7871094h7.57422l-2.52539-3.7871094zm22.53906 0-2.52344 3.7871094h7.57227l2.52343-3.7871094zm11.36133 0v3.7871094h23.98047v-3.7871094zm-238.380862 5.0488282v10.0996096h6.310547v-10.0996096zm15.144531 0v10.0996096h6.3125v-10.0996096zm16.410157 0v10.0996096h6.310546v-10.0996096zm10.097656 0v6.3124996c0 2.524998 0.841392 3.78711 2.52539 3.78711h21.457032v-3.78711h-16.410156c-0.841 0-1.261719-0.420672-1.261719-1.263671h16.410156v-3.7871099h-15.148437c-0.841 0-1.261719-0.4187196-1.261719-1.2617187zm27.769531 0v6.3124996c0 2.524998 0.839439 3.78711 2.523438 3.78711h22.720699c1.683 0 2.52344-1.263112 2.52344-3.78711v-1.263671c0-2.524998-1.26311-3.7871099-3.78711-3.7871099h-11.35937v3.7871099h6.31054c0.84 0 1.26172 0.211859 1.26172 0.630859 0 0.418999-0.42072 0.632812-1.26172 0.632812h-12.62109v-6.3124996zm31.554687 0v10.0996096h6.3125v-10.0996096zm20.19727 0v3.7871096h-12.62305v3.787109h12.62305v2.525391h6.31054v-10.0996096zm10.09765 0v10.0996096h6.31055v-10.0996096zm20.19531 0v6.3124996h-12.62304v3.78711h16.41015c1.684 0 2.52344-1.262112 2.52344-3.78711v-6.3124996zm10.09766 0v10.0996096h6.31055v-10.0996096zm20.19531 0v2.5253906c0 0.842999-0.42072 1.261719-1.26171 1.261719h-11.35938v3.787109h10.09766l3.78711 2.525391h6.31054l-3.78711-2.525391c1.683 0 2.52344-1.263112 2.52344-3.787109v-3.7871096zm26.50782 0 6.31054 10.0996096h10.09766l6.31055-10.0996096h-7.57227l-3.78711 6.0605466-3.78711-6.0605466zm30.11328 0v6.3124996c0 2.524998 0.84044 3.78711 2.52343 3.78711h21.45704v-3.78711h-16.40821c-0.841 0-1.26172-0.420672-1.26172-1.263671h16.40821v-3.7871099h-15.14649c-0.841 0-1.26172-0.4187196-1.26172-1.2617187zm-71.0625 14.4160156 17.75781 12.308594h23.8457l-17.69922-12.308594zm-167.318362 2e-3v12.306641h75.691402c0-8.204992-3.7183-12.306641-11.154292-12.306641zm83.658202 0v12.306641h75.69336c0-8.204992-3.98318-12.306641-11.95117-12.306641zm154.80078 0-17.69922 12.306641h23.84571l17.75586-12.306688zm-182.685544 16.408156c0 2.735998-1.594254 4.101563-4.78125 4.101563h-35.058594v12.308594h35.855469c2.654997-1e-6 3.984375 0.684782 3.984375 2.050781 0 1.365998-1.329378 2.050781-3.984375 2.050781h-51.789063v12.306641h64.53711c7.435992 0 11.154292-4.101649 11.154292-12.306641v-20.511719zm83.658204 0c0 2.735998-1.32938 4.101563-3.98438 4.101563h-39.83789c-7.96699 0-11.95117 4.103602-11.95117 12.308594v16.408203h75.69336v-12.306641h-59.75781c0-2.735997 1.32938-4.101562 3.98437-4.101562h43.82227c7.96699-1e-6 11.95117-4.103602 11.95117-12.308594v-4.101563zm51.5625 0 11.89453 8.261719-35.3418 24.556641h23.90235l23.39257-16.234375 23.39063 16.234375h23.90039l-35.3418-24.556641 11.89454-8.261719z" fill="#a09c9b"/>
 <path d="m22.091797 0-19.5527345 7.3632812c-1.69299831 0.5929995-2.5390625 1.8645489-2.5390625 3.8105468 2.9605918e-16 1.691998 0.84606419 2.961595 2.5390625 3.808594l19.5527345 7.109375v-3.046875l-18.5371095-6.855469c-0.3379997-0.254-0.5078125-0.592625-0.5078125-1.015625 0-0.507999 0.1698128-0.848578 0.5078125-1.017578l15.4902345-6.09375v9.013672h3.046875v-13.076172zm-3.808594 5.3320312-13.9667968 5.3320308c-0.3379996 0.085-0.5078124 0.253813-0.5078124 0.507813s0.1698128 0.422813 0.5078124 0.507813l17.7734378 6.601562v-3.046875l-5.458985-2.158203h1.650391 0.001953v-7.7441408zm-3.048828 4.4433594v2.7949214l-3.554687-1.396484 3.554687-1.3984374zm-15.234375 13.8398434v9.140625c-1.1842367e-15 4.570996 2.2844733 6.855469 6.8554688 6.855469h8.3808592c4.570996 0 6.855469-2.284473 6.855469-6.855469v-9.140625h-14.4746095v8.378907h3.0468745v-5.332032h8.38086v6.09375c0 2.538998-1.27155 3.808594-3.810547 3.808594h-8.3789062c-2.5389975 0-3.8085938-1.269596-3.8085938-3.808594v-9.140625h-3.046875zm3.8085938 0v9.140625c-1e-7 2.030998 1.015877 3.046875 3.046875 3.046875h8.3808592c2.030998 0 3.046875-1.015877 3.046875-3.046875v-5.332031h-6.855469v4.570313h3.046875v-1.523438h0.761719v1.523438c0 0.507999-0.253719 0.761718-0.761719 0.761718h-6.8574215c-0.5079995 0-0.7617187-0.253719-0.7617187-0.761718v-8.378907h-3.046875zm-3.8085938 17.521485v9.140625c-1.1842367e-15 4.569995 2.2844733 6.855468 6.8554688 6.855468h8.3789062c4.570995 1e-6 6.857422-2.284473 6.857422-6.855468v-9.140625h-3.046875v9.140625c0 2.538997-1.27155 3.808594-3.810547 3.808594h-8.3789062c-2.5389975 0-3.8085938-1.269597-3.8085938-3.808594v-9.140625h-3.046875zm3.8085938 0v9.140625c0 2.030998 1.015877 3.046875 3.046875 3.046875h3.8085932v-9.902344h-3.0468745v6.855469c-0.5079995 0-0.7617187-0.25372-0.7617187-0.761719v-8.378906h-3.046875zm11.4277342 0v8.378906c0 0.507999-0.253719 0.761719-0.761719 0.761719v-6.855469h-3.046875v9.902344h3.808594c2.030998 0 3.046875-1.015877 3.046875-3.046875v-9.140625h-3.046875zm-15.236328 17.519531v9.902344c0 1.743998 0.71081392 3.323329 2.1328125 4.736328 1.4219986 1.412998 3.1225176 2.11914 5.1035156 2.11914 1.997998 1e-6 3.7041889-0.705142 5.1171879-2.11914 1.413998-1.413999 2.121093-2.99333 2.121093-4.736328v-2.285156c0-0.508 0.12686-0.761719 0.38086-0.761719 0.253999 0 0.380859 0.253719 0.380859 0.761719v9.140624h3.046875v-9.140624c0-1.201999-0.337626-2.137642-1.015625-2.806641s-1.48011-1.001953-2.412109-1.001953c-0.946999 0-1.755829 0.332954-2.423828 1.001953-0.67 0.668999-1.003907 1.604642-1.003907 2.806641v1.523437c0 1.404999-0.412422 2.518845-1.232422 3.339844-0.8219987 0.821999-1.808985 1.230469-2.9589839 1.230469-1.1349988 0-2.1153133-0.40947-2.9453125-1.230469-0.8299991-0.820999-1.2441406-1.934845-1.2441406-3.339844v-9.140625h-3.046875zm3.8085938 0v9.142578c0 1.201999 0.3376256 2.135688 1.015625 2.804688 0.6779993 0.668999 1.4801103 1.001953 2.4121093 1.001953 0.9469991 0 1.7558288-0.333001 2.4238281-1 0.6699998-0.669 1.0039058-1.604642 1.0039058-2.806641v-1.523437c0-1.404999 0.412423-2.518845 1.232422-3.339844 0.822-0.821999 1.808986-1.232422 2.958985-1.232422 1.134999 0 2.115313 0.411423 2.945312 1.232422s1.244141 1.934845 1.244141 3.339844v9.140625h3.046875v-9.902344c0-1.743998-0.710814-3.32333-2.132813-4.736328-1.421998-1.412999-3.122517-2.121094-5.103515-2.121094-1.998998 0-3.705189 0.708095-5.1171878 2.121094-1.4139985 1.413998-2.1210937 2.99333-2.1210937 4.736328v2.285156c0 0.508-0.1268596 0.761719-0.3808594 0.761719-0.2539997 0-0.3808593-0.253719-0.3808593-0.761719v-9.142578h-3.046875z" fill="#002e82"/>
</svg>
