<svg xmlns="http://www.w3.org/2000/svg" viewBox="0 0 399.99999 104.89408">
  <path fill="#FFF" d="M169.17458 50.840029c1.46092-4.967129-4.67495-9.642075-10.51863-9.642075-4.96713 0-9.0577 3.214025-10.22644 7.596786h-37.10738c3.50621-13.732651 21.91381-24.251278 48.79474-24.251278 26.88094 0 48.79474 9.349891 48.79474 23.66691 0 12.563915-17.82322 21.037254-40.02921 26.880935v3.506209h38.27611v15.77794h-95.83638V85.31775c16.94668-6.42805 55.80716-26.004383 57.85245-34.477721z"/>
  <path fill="#fff" d="M2.921841 75.091307h37.399561c.876553 4.090577 6.135866 7.304602 12.563916 7.304602 7.596786 0 13.732651-3.798393 13.732651-8.181154 0-4.382761-6.135865-8.181154-13.732651-8.181154h-2.337473V53.177502c.876552 0 1.460921.292184 2.337473.292184 6.428049 0 11.395179-3.214025 11.395179-7.596786 0-4.090577-5.259314-7.596786-11.395179-7.596786-5.843682 0-10.810811 2.92184-11.395179 6.720233H7.012418c0-4.674945 4.967129-10.518626 12.856099-14.317019 8.765522-4.090577 20.74507-5.843682 34.477721-5.843682 26.296562 0 46.457272 7.596786 46.457272 17.238861 0 5.843681-7.59679 11.102995-19.86852 14.024835v3.214025c15.19357 1.753105 22.49817 7.88897 22.49817 15.77794 0 12.271731-22.49817 22.498174-50.547842 22.498174-28.049672 0-49.963477-6.720234-49.963477-22.498174"/>
  <path fill="#fff" d="M264.71877 52.885317l-44.11979-40.613586h54.63842l16.65449 15.193572 16.07013-15.193572h54.34623L319.3572 52.593133l45.58071 41.782323h-54.63842l-17.82323-16.362308-17.23886 16.362308h-54.63842l44.11979-41.490139z"/>
</svg>
