<svg version="1.1" viewBox="0 0 200.602 71.845" xmlns="http://www.w3.org/2000/svg">
 <path d="m0 0h200.602v20.344h-200.602z" fill="#ffe607"/>
 <path d="m53.273438 2.4296875c-0.06 0.2199998-0.138376 0.3738907-0.234376 0.4628906-0.092999 0.0869999-0.226297 0.1328125-0.404296 0.1328125h-10.794922v0.296875c0.213 0.061 0.357453 0.1431876 0.439453 0.2421875 0.085 0.0989999 0.128906 0.2474533 0.128906 0.4394531v10.7539058c0 0.192-0.043906 0.338501-0.128906 0.4375-0.081 0.099-0.226453 0.181188-0.439453 0.242188v0.298828h11.007812c0.178 0 0.31425 0.040906 0.40625 0.128906 0.096 0.088 0.172422 0.242797 0.232422 0.466797h0.285156v-3.287109h-0.285156c-0.06 0.224-0.136422 0.378797-0.232422 0.466797-0.093 0.087-0.22825 0.128906-0.40625 0.128906h-7.796875v-3.482422h4.921875c0.178 0 0.312297 0.045719 0.404297 0.136719 0.096 0.089 0.174375 0.240984 0.234375 0.458984h0.283203v-3.2128904h-0.283203c-0.06 0.2239998-0.138375 0.378797-0.234375 0.4667969-0.093 0.0869999-0.226297 0.1289063-0.404297 0.1289063h-4.921875v-3.0175782h7.583985c0.177999 0 0.312297 0.0448126 0.404296 0.1328125 0.096 0.0899999 0.174376 0.242844 0.234376 0.4648438h0.285156v-3.2871094h-0.285156zm56.931642 0c-0.06 0.2199998-0.13838 0.3738907-0.23438 0.4628906-0.093 0.0869999-0.22629 0.1328125-0.40429 0.1328125h-10.794926v0.296875c0.213 0.061 0.357454 0.1431876 0.439454 0.2421875 0.084999 0.0989999 0.128906 0.2474533 0.128906 0.4394531v10.7539058c0 0.192-0.043907 0.338501-0.128906 0.4375-0.081 0.099-0.226454 0.181188-0.439454 0.242188v0.298828h11.007816c0.178 0 0.31229 0.040906 0.40429 0.128906 0.096 0.088 0.17438 0.242797 0.23438 0.466797h0.2832v-3.287109h-0.2832c-0.06 0.224-0.13838 0.378797-0.23438 0.466797-0.093 0.087-0.22629 0.128906-0.40429 0.128906h-7.79883v-3.482422h4.92187c0.178 0 0.31425 0.045719 0.40625 0.136719 0.096 0.089 0.17438 0.240984 0.23438 0.458984h0.2832v-3.2128904h-0.2832c-0.06 0.2239998-0.13838 0.378797-0.23438 0.4667969-0.092 0.0869999-0.22825 0.1289063-0.40625 0.1289063h-4.92187v-3.0175782h7.58594c0.178 0 0.31229 0.0448126 0.40429 0.1328125 0.096 0.0899999 0.17438 0.242844 0.23438 0.4648438h0.2832v-3.2871094h-0.2832zm21.30859 0.3710937c-1.847 1e-7 -3.23325 0.4626729-4.15625 1.3886719-0.706 0.7019993-1.05664 1.5890636-1.05664 2.6640625 0 0.6519994 0.13697 1.2294224 0.41797 1.7324219a2.984 2.984 0 0 0 1.26758 1.2597656 4.902 4.902 0 0 0 1.13672 0.4335939c0.38 0.089 1.0254 0.184203 1.9414 0.283203l1.3711 0.148438c0.916 0.106999 1.52817 0.220703 1.82617 0.345703 0.433 0.177999 0.64844 0.479391 0.64844 0.90039a1.38 1.38 0 0 1-0.27149 0.804688c-0.185 0.256999-0.43123 0.462187-0.74023 0.617187-0.557 0.279-1.22763 0.417969-2.01563 0.417969-0.721 0-1.48411-0.129625-2.28711-0.390625-0.806-0.26-1.40311-0.572641-1.78711-0.931641-0.256-0.236999-0.3789-0.494437-0.3789-0.773437v-0.121094l-0.25977-0.128906-1.31445 3.11914 0.25976 0.140626c0.163-0.136 0.28333-0.205079 0.36133-0.205079 0.064 0 0.26366 0.080188 0.59766 0.242188 1.563 0.806999 3.14305 1.210937 4.74805 1.210937a8.875 8.875 0 0 0 2.50976-0.345703c1.051-0.302999 1.82331-0.771344 2.32031-1.402343 0.55-0.695 0.82618-1.490814 0.82618-2.382813 0-0.563999-0.11757-1.094797-0.35157-1.591797-0.234-0.4949994-0.55408-0.8952189-0.95507-1.1992186-0.398-0.2929997-0.85229-0.5176877-1.36329-0.6796875-0.511-0.1599999-1.18276-0.2898126-2.00976-0.3828125l-1.39258-0.1484375c-0.937-0.0989999-1.54803-0.1913439-1.83203-0.2773438-0.547-0.1749998-0.82422-0.5015161-0.82422-0.9785156a1.202 1.202 0 0 1 0.32227-0.8085937 1.966 1.966 0 0 1 0.84961-0.5585938c0.47899-0.1619998 1.03311-0.2421875 1.6621-0.2421875 1.42 0 2.65604 0.3852976 3.70704 1.1542969 0.344 0.2419997 0.51757 0.4716408 0.51757 0.6816406 0 0.037-0.00276 0.0874376-0.00976 0.1484375l0.24805 0.1484375 1.44531-2.9921875-0.24805-0.140625c-0.163 0.1429999-0.30959 0.2148437-0.43359 0.2148437-0.078 0-0.28686-0.0718438-0.63086-0.2148437-0.998-0.4439996-1.832-0.7461095-2.5-0.9121094-0.671-0.1659998-1.39202-0.2480469-2.16602-0.2480469zm50.86914 0c-1.847 1e-7 -3.23325 0.4626729-4.15625 1.3886719-0.706 0.7019993-1.05664 1.5890636-1.05664 2.6640625 0 0.6519994 0.13697 1.2294224 0.41797 1.7324219a2.984 2.984 0 0 0 1.26758 1.2597656 4.902 4.902 0 0 0 1.13672 0.4335939c0.38 0.089 1.0254 0.184203 1.9414 0.283203l1.3711 0.148438c0.916 0.106999 1.52817 0.220703 1.82617 0.345703 0.433 0.177999 0.64844 0.479391 0.64844 0.90039a1.38 1.38 0 0 1-0.27149 0.804688c-0.185 0.256999-0.43123 0.462187-0.74023 0.617187-0.558 0.279-1.22763 0.417969-2.01563 0.417969-0.721 0-1.48411-0.129625-2.28711-0.390625-0.806-0.26-1.40311-0.572641-1.78711-0.931641-0.256-0.236999-0.3789-0.494437-0.3789-0.773437v-0.121094l-0.25977-0.128906-1.31445 3.11914 0.25977 0.140626c0.16299-0.136 0.28332-0.205079 0.36132-0.205079 0.064 0 0.26366 0.080188 0.59766 0.242188 1.563 0.806999 3.14305 1.210937 4.74805 1.210937a8.875 8.875 0 0 0 2.50976-0.345703c1.051-0.302999 1.82331-0.771344 2.32031-1.402343 0.55-0.695 0.82618-1.490814 0.82618-2.382813 0-0.563999-0.11757-1.094797-0.35157-1.591797-0.234-0.4949994-0.55407-0.8952189-0.95507-1.1992186-0.398-0.2929997-0.85229-0.5176877-1.36329-0.6796875-0.511-0.1599999-1.18276-0.2898126-2.00976-0.3828125l-1.39258-0.1484375c-0.937-0.0989999-1.54803-0.1913439-1.83203-0.2773438-0.547-0.1749998-0.82422-0.5015161-0.82422-0.9785156a1.202 1.202 0 0 1 0.32227-0.8085937 1.966 1.966 0 0 1 0.84961-0.5585938c0.479-0.1619998 1.03311-0.2421875 1.6621-0.2421875 1.42 0 2.65604 0.3852976 3.70704 1.1542969 0.344 0.2419997 0.51757 0.4716408 0.51757 0.6816406 0 0.037-0.00276 0.0874376-0.00976 0.1484375l0.24805 0.1484375 1.44531-2.9921875-0.24805-0.140625c-0.163 0.1429999-0.30959 0.2148437-0.43359 0.2148437-0.078 0-0.28686-0.0718438-0.63086-0.2148437-0.998-0.4439996-1.832-0.7461095-2.5-0.9121094-0.671-0.1659998-1.39202-0.2480469-2.16602-0.2480469zm-162.746091 0.0019532c-2.179998 0-3.928189 0.5708917-5.242188 1.7128906-1.384998 1.2049988-2.074219 2.8253302-2.074219 4.8613281 1e-6 2.1849979 0.778986 3.8920949 2.333985 5.1210939 1.234999 0.973999 2.829064 1.462891 4.789062 1.462891 2.158998-1e-6 4.390409-0.688408 6.691407-2.066407v-0.234375c-0.216-0.061-0.365266-0.141234-0.447266-0.240234s-0.121094-0.247453-0.121094-0.439453v-2.607422c0-0.192 0.038047-0.3385 0.123047-0.4375001 0.085-0.0989999 0.232313-0.1811876 0.445313-0.2421875v-0.2988282h-5.746094c-0.185 0-0.32311-0.043-0.41211-0.125-0.091999-0.0849999-0.168515-0.2417033-0.228515-0.4707031h-0.283203v2.9609379h0.283203c0.06-0.224 0.136516-0.376844 0.228515-0.464844 0.092-0.087 0.22711-0.13086 0.41211-0.13086h2.988281v1.730469c-0.471999 0.279-1.033594 0.50011-1.683594 0.66211-0.652999 0.161999-1.312469 0.242187-1.980468 0.242187-1.373999 0-2.478314-0.378766-3.320313-1.134766-0.915999-0.824999-1.373047-1.907095-1.373047-3.2460932 0-1.3839987 0.469157-2.4977978 1.410157-3.3417969 0.834999-0.7429993 1.880438-1.1152344 3.148437-1.1152344a7.169 7.169 0 0 1 1.978516 0.3027344c0.698999 0.2009998 1.228891 0.4416096 1.58789 0.7246093 0.167 0.1309999 0.274313 0.2410783 0.320313 0.3300782 0.05 0.0899999 0.075031 0.2384064 0.082031 0.4414062l0.255859 0.1386719 1.423828-3.0449219-0.25-0.1386718c-0.162999 0.1429998-0.30764 0.2128906-0.43164 0.2128906-0.17 0-0.458376-0.0820002-0.859375-0.25-0.781999-0.3169997-1.480798-0.5417814-2.091797-0.6757813-0.614999-0.1319998-1.268032-0.1992187-1.957031-0.1992187zm49.652343 0.2226562v0.296875c0.213 0.061 0.359407 0.1431876 0.441407 0.2421875 0.085 0.0979999 0.126953 0.2417346 0.126953 0.4277344v10.7656245c0 0.192-0.041953 0.338501-0.126953 0.4375-0.081 0.099-0.228407 0.181188-0.441407 0.242188v0.298828h3.558594v-0.298828c-0.213-0.061-0.362359-0.143188-0.443359-0.242188-0.081-0.098999-0.125-0.2455-0.125-0.4375v-7.7285151l6.791015 7.3574221c0.291 0.310999 0.4375 0.52539 0.4375 0.65039 1e-6 0.21-0.124047 0.344391-0.373046 0.400391v0.298828h3.816406v-0.298828c-0.213-0.061-0.36136-0.143188-0.44336-0.242188-0.080999-0.098999-0.125-0.2455-0.125-0.4375v-10.7656245c0-0.1859998 0.043001-0.3287345 0.125-0.4277344 0.082-0.0989999 0.23036-0.1811875 0.44336-0.2421875v-0.296875h-3.5625v0.296875c0.213 0.061 0.362266 0.1431876 0.447266 0.2421875 0.081999 0.0979999 0.121093 0.2417346 0.121093 0.4277344v7.5449215l-6.683593-7.2929684c-0.167-0.1809998-0.248047-0.3431876-0.248047-0.4921875 0-0.2179998 0.126812-0.3606875 0.382812-0.4296875v-0.296875h-4.119141zm88.208988 0v0.296875c0.213 0.061 0.3594 0.1431876 0.4414 0.2421875 0.085 0.0979999 0.12696 0.2417346 0.12696 0.4277344v10.7675785c0 0.191999-0.04196 0.337547-0.12696 0.435546-0.081 0.099-0.2284 0.181188-0.4414 0.242188v0.298828h3.77929v-0.298828c-0.206-0.055-0.3525-0.134281-0.4375-0.238281-0.085-0.1-0.13086-0.247454-0.13086-0.439453v-10.7656254c0-0.1859998 0.04391-0.3295938 0.12891-0.4335937 0.081-0.1009999 0.22645-0.1822813 0.43945-0.2382813v-0.296875h-3.77929zm-60.582034 25.1933594c-1.678999-0.03-3.342815 0.205094-5.007813 0.371094-2.251998 0.212-4.456658 0.772422-6.597656 1.482422-2.531998 0.791999-4.860237 2.104517-7.115235 3.478515-1.317998 0.789999-2.487173 1.804595-3.826171 2.558594-0.628 0.331-1.375345 0.245188-2.027344 0.492187-4e-3 0.587 0.538344 0.939313 0.902344 1.320313 1.110999 0.947999 2.071454 2.057048 3.189453 2.998047 1.357998 1.127999 2.483329 2.508235 3.861328 3.615234 0.239 0.228 0.77425 0.291969 0.90625-0.082031 0.032-0.690999-0.223422-1.418751 0.017578-2.09375a8.283 8.283 0 0 1 0.933594-1.662109c0.462999-0.729 1.224625-1.182173 1.890625-1.701172 3.795996-2.830997 8.551536-4.279766 13.269531-4.259766 3.132 0.217 6.47811 0.788502 8.91211 2.9375 0.922 1.046999 1.61806 2.621048 1.03906 3.998047-0.838 1.563998-1.99827 3.020532-3.57226 3.894531-2.009 1.149999-4.153693 2.037814-6.304691 2.882813-2.271998 0.858999-4.532268 1.745688-6.822266 2.554687-1.622998 0.575-3.195736 1.272673-4.802734 1.888672-1.075999 0.403-2.081283 0.969657-3.113281 1.472656-1.802999 0.876999-3.583002 1.822501-5.25 2.9375-2.391998 1.989998-4.905861 4.096019-6.13086 7.041016-0.723999 1.786998-1.282297 3.703393-1.154297 5.650391 0.082 0.380999 0.495516 0.557015 0.853516 0.541015 15.303985-0.013 30.607173 0.008281 45.910153-0.011718 0.702 0.015999 1.42043-4.07e-4 2.10743 0.183593 0.60199 0.159 0.94476 0.742719 1.38476 1.136719 0.241-0.04 0.48452-0.079188 0.72852-0.117188 0.121-1.791998 0.04712-3.589767 0.07812-5.384765-0.028-1.292999 0.06331-2.602908-0.17969-3.878906-0.625 0.234999-1.15489 0.642141-1.71289 0.99414-0.485 0.267-1.06842 0.277016-1.60742 0.291016-11.14399 3e-3 -22.289604-0.012234-33.433592 0.009765-0.662-0.038999-1.411985 0.078906-1.958985-0.371093 0.268-0.422 0.481141-0.899516 0.869141-1.228516 2.509997-2.052998 5.449909-3.511454 8.503906-4.564453 2.435998-0.852999 4.847471-1.797735 7.355469-2.427734 2.370001-0.62 4.659891-1.498173 6.962891-2.326172 1.274-0.47 2.5078-1.040157 3.7168-1.660156 2.00799-0.984 4.03114-2.058065 5.61914-3.664063 1.058-1.005999 1.69498-2.349361 2.20898-3.693359 0.678-1.532999 0.47491-3.254955 0.37891-4.876954-0.323-1.681998-1.14463-3.279844-2.39063-4.464843-1.457-1.592999-3.30755-2.789173-5.31054-3.576172a35.441 35.441 0 0 0-5.51563-1.839844c-2.56-0.481999-5.152627-0.904703-7.765624-0.845703zm44.904294 0.011719c-5.08299 0.086-10.17-0.101391-15.25 0.099609 0.042 0.27-0.01359 0.678344 0.31641 0.777344 0.895 0.383999 1.90895 0.45075 2.75195 0.96875 0.796 0.439999 1.39821 1.136391 2.03321 1.77539 1.27999 1.329999 2.62156 2.597564 3.85156 3.976563 3.18799 3.332997 6.53302 6.515347 9.66601 9.902344 0.494 0.509999 1.01 0.997672 1.5 1.513672 0.305 0.406999 0.88585 0.772141 0.71485 1.36914a5.1 5.1 0 0 1-0.92188 1.101563c-1.085 0.953999-1.98917 2.093876-3.07617 3.046875-3.589 4.031996-7.59028 7.665582-11.23828 11.642578-1.215 1.193999-2.35505 2.47047-3.62305 3.605469-0.926 0.815999-2.13481 1.067844-3.25781 1.464843-0.392 0.041-0.58105 0.375688-0.74805 0.679688 0.677 0.242 1.40824 0.156453 2.11524 0.189453 4.81799-0.021 9.63413 0.003422 14.45312-0.017578 0.073-0.096 0.14956-0.189203 0.22656-0.283203-0.189-0.285-0.38973-0.564282-0.55273-0.863281-0.164-0.444 0.19403-0.768829 0.45703-1.048829 1.515-1.528998 3.08789-3.008829 4.46289-4.673828 2.413-2.504997 4.88736-4.947596 7.31836-7.433593 0.427-0.344 0.85919-1.011625 1.49219-0.640626 0.645 0.395 1.10625 1.032829 1.65625 1.548829 2.517 2.635997 5.21589 5.097096 7.58789 7.871093 1.023 1.083999 2.09958 2.112689 3.14258 3.179688 0.234 0.267 0.51597 0.514703 0.66797 0.845703-0.01 0.524999-0.41125 0.888547-0.65625 1.310547 0.646 0.281 1.36573 0.168031 2.05273 0.207031 3.99-0.019 7.98361-0.016953 11.97461-0.001953 0.935-9e-3 1.88264 0.007453 2.80664-0.185547-0.26-0.761999-1.17364-0.787922-1.80664-1.044922a6.086 6.086 0 0 1-2.87695-1.726562c-1.449-1.494999-2.9518-2.939236-4.3418-4.490235-2.53-2.588997-5.08591-5.149612-7.62891-7.724609-0.92-0.921999-1.69511-1.983376-2.66211-2.859375-1.08699-1.253999-2.4255-2.267892-3.4375-3.587891-0.268-0.328999-0.0292-0.802312 0.2168-1.070312 1.021-1.084999 2.11761-2.101564 3.09961-3.226563 2.173-2.241997 4.38813-4.441971 6.57813-6.667968 1.63499-1.610999 3.14206-3.348268 4.78906-4.947266 1.098-1.041999 2.03503-2.348797 3.45703-2.966797 0.874-0.401999 1.84166-0.529969 2.72266-0.917969-0.157-0.232999-0.21138-0.754593-0.60938-0.683593-4.194-0.016-8.38903 0.022187-12.58203-0.007813-1.257 7e-3 -2.52558-0.045125-3.76758 0.171875 0.202 0.389 0.48275 0.728657 0.71875 1.097656 0.14 0.573-0.39598 0.928876-0.70898 1.296875-2.53 2.455998-4.87558 5.09155-7.39258 7.560547-1.026 0.978999-1.92802 2.10047-3.04102 2.980469-0.415 0.292-0.8782-0.097485-1.1582-0.396484-1.874-1.939998-3.80097-3.825487-5.66797-5.771485-1.642-1.854998-3.49963-3.50147-5.14062-5.355469 0.221-0.492999 0.59675-0.892141 0.84375-1.36914-0.437-0.331-1.02835-0.177703-1.52735-0.220703zm-101.183591 0.095703c-2.733998 0.119-5.459487 0.409594-8.146485 0.933594a43.86 43.86 0 0 0-6.228515 1.945312c-2.123998 0.942999-4.109362 2.166454-6.19336 3.189453-0.758999 0.379-1.628454 0.259125-2.439453 0.203125-0.082 0.198-0.185797 0.390469-0.216797 0.605469 0.126 0.417 0.513969 0.680235 0.792969 0.990234 2.218998 2.102998 4.190471 4.46319 6.480469 6.492188 0.375999 0.302 0.917594-0.084532 0.933594-0.519531 0.071-0.857 0.105235-1.80961 0.740234-2.47461 1.242999-1.053999 2.667064-1.887344 4.164063-2.527344 2.521997-1.057998 5.189018-1.809593 7.916015-2.058593 2.007998-0.208 4.03083-0.43475 6.048828-0.21875 1.989998 0.260999 4.036627 0.435579 5.890625 1.267578 0.824999 0.395999 1.618501 0.87261 2.3125 1.474609 0.933999 0.834999 1.487125 2.201642 1.078125 3.431641-0.413999 0.998999-1.230501 1.761922-2.0625 2.419922-1.493998 1.139999-3.416314 1.326594-5.195312 1.683593-3.161997 0.358-6.427503 0.758859-9.5625 0.00586-0.870999-0.123-1.507923-0.90075-2.419922-0.84375-0.168 2.510997-0.048031 5.036737-0.082031 7.552734 0.039 0.436-0.12289 1.103829 0.412109 1.298828 0.614999-0.111 1.015704-0.678906 1.595703-0.878906a13.01 13.01 0 0 1 4.183594-0.625c2.250998-9e-3 4.523096-0.077062 6.746094 0.335938 2.715997 0.351999 5.546892 0.98258 7.71289 2.767578 1.583999 1.033999 2.447484 3.377267 1.396485 5.072265-0.888999 1.417999-2.218643 2.609642-3.806641 3.181641-1.800998 0.700999-3.714236 1.060188-5.615234 1.367188-3.816997 0.386999-7.689567 0.335358-11.476563-0.306641-1.978998-0.226-3.908221-0.740579-5.824219-1.267578-2.361997-0.779999-4.736548-1.685299-6.685546-3.279297-0.827-0.57-1.034938-1.599407-1.460938-2.441406-0.222-0.433-0.875922-0.421359-1.169922-0.06836-0.510999 0.615-0.846297 1.351532-1.279297 2.019532-0.973999 1.557998-1.910907 3.13722-2.878906 4.699218-0.379 0.628-0.795594 1.240642-1.058594 1.931641-0.136 0.267 0.101282 0.579812 0.363281 0.632812 0.744 2e-3 1.471798-0.231218 2.216797-0.199218 0.906999 0.145999 1.733454 0.552016 2.564453 0.916015a50.493 50.493 0 0 0 7.25 2.544922c3.152997 0.774999 6.388238 1.128829 9.615235 1.423828 4.770995 0.186 9.59127 0.333499 14.322265-0.4375 2.440998-0.364999 4.827909-1.041829 7.128907-1.923828 2.366997-1.029999 4.70358-2.295064 6.517578-4.164062 1.245999-1.238999 1.943953-2.943393 2.251953-4.650391 0.197-0.883999 0.015437-1.785017-0.101562-2.666016-0.184-1.421998-0.870704-2.72247-1.720704-3.855468-1.266998-1.348999-2.694283-2.589111-4.363281-3.41211-1.087999-0.648999-2.342329-0.900922-3.486328-1.419922-0.236-0.124-0.284406-0.461672-0.441406-0.638671 0.956999-0.469 2.001688-0.734673 2.929687-1.263672 0.834999-0.464 1.734001-0.880329 2.375-1.611328 0.668-0.709 1.047235-1.630158 1.365235-2.535157 0.475999-1.425998 0.346015-2.965111 0.041015-4.412109-0.633999-2.256998-2.274642-4.087861-4.18164-5.38086-1.611999-0.977999-3.270408-1.923391-5.066407-2.52539-1.666998-0.485-3.334595-1.004094-5.058593-1.246094-2.997997-0.614999-6.07805-0.571156-9.123047-0.535156z"/>
 <path d="M93.569 27.044c1.665-.166 3.329-.402 5.008-.372 2.613-.059 5.206.364 7.766.846a35.441 35.441 0 0 1 5.515 1.84c2.003.787 3.853 1.984 5.31 3.577 1.246 1.185 2.069 2.783 2.392 4.465.096 1.622.299 3.344-.379 4.877-.514 1.344-1.151 2.687-2.209 3.693-1.588 1.606-3.612 2.679-5.62 3.663-1.209.62-2.443 1.191-3.717 1.661-2.303.828-4.592 1.706-6.962 2.326-2.508.63-4.919 1.574-7.355 2.427-3.054 1.053-5.995 2.512-8.505 4.565-.388.329-.601.807-.869 1.229.547.45 1.298.331 1.96.37 11.144-.022 22.288-.005 33.432-.008.539-.014 1.123-.025 1.608-.292.558-.352 1.089-.759 1.714-.994.243 1.276.15 2.586.178 3.879-.031 1.795.044 3.593-.077 5.385-.244.038-.487.077-.728.117-.44-.394-.783-.977-1.385-1.136-.687-.184-1.407-.168-2.109-.184-15.305.022-30.607.001-45.91.014-.358.016-.771-.16-.853-.541-.128-1.947.43-3.865 1.154-5.652 1.225-2.945 3.739-5.051 6.131-7.041 1.667-1.115 3.446-2.06 5.249-2.937 1.032-.503 2.037-1.069 3.113-1.472 1.607-.616 3.18-1.315 4.803-1.89 2.29-.809 4.551-1.695 6.823-2.554 2.151-.845 4.296-1.732 6.305-2.882 1.574-.874 2.733-2.332 3.571-3.896.579-1.377-.117-2.95-1.039-3.997-2.434-2.149-5.779-2.721-8.911-2.938-4.718-.02-9.475 1.429-13.271 4.26-.666.519-1.426.973-1.889 1.702a8.283 8.283 0 0 0-.934 1.662c-.241.675.015 1.403-.017 2.094-.132.374-.668.31-.907.082-1.378-1.107-2.503-2.488-3.861-3.616-1.118-.941-2.079-2.05-3.19-2.998-.364-.381-.906-.734-.902-1.321.652-.247 1.4-.161 2.028-.492 1.339-.754 2.508-1.769 3.826-2.559 2.255-1.374 4.583-2.686 7.115-3.478 2.142-.712 4.346-1.272 6.598-1.484zM34.15 27.715c2.687-.524 5.413-.814 8.147-.933 3.045-.036 6.125-.08 9.123.535 1.724.242 3.391.76 5.058 1.245 1.796.602 3.454 1.548 5.066 2.526 1.907 1.293 3.549 3.124 4.183 5.381.305 1.447.434 2.986-.042 4.412-.318.905-.696 1.826-1.364 2.535-.641.731-1.54 1.148-2.375 1.612-.928.529-1.973.793-2.93 1.262.157.177.205.516.441.64 1.144.519 2.398.77 3.486 1.419 1.669.823 3.096 2.064 4.363 3.413.85 1.133 1.537 2.434 1.721 3.856.117.881.298 1.782.101 2.666-.308 1.707-1.006 3.41-2.252 4.649-1.814 1.869-4.149 3.134-6.516 4.164-2.301.882-4.689 1.559-7.13 1.924-4.731.771-9.551.624-14.322.438-3.227-.295-6.462-.649-9.615-1.424a50.493 50.493 0 0 1-7.25-2.544c-.831-.364-1.658-.771-2.565-.917-.745-.032-1.473.202-2.217.2-.262-.053-.499-.366-.363-.633.263-.691.679-1.305 1.058-1.933.968-1.562 1.906-3.141 2.88-4.699.433-.668.769-1.404 1.28-2.019.294-.353.947-.364 1.169.069.426.842.633 1.87 1.46 2.44 1.949 1.594 4.324 2.501 6.686 3.281 1.916.527 3.846 1.04 5.825 1.266 3.787.642 7.659.694 11.476.307 1.901-.307 3.814-.665 5.615-1.366 1.588-.572 2.919-1.764 3.808-3.182 1.051-1.695.186-4.039-1.398-5.073-2.166-1.785-4.997-2.416-7.713-2.768-2.223-.413-4.495-.345-6.746-.336a13.01 13.01 0 0 0-4.182.625c-.58.2-.982.769-1.597.88-.535-.195-.372-.864-.411-1.3.034-2.516-.087-5.04.081-7.551.912-.057 1.549.719 2.42.842 3.135.753 6.401.354 9.563-.004 1.779-.357 3.701-.544 5.195-1.684.832-.658 1.649-1.421 2.063-2.42.409-1.23-.144-2.598-1.078-3.433-.694-.602-1.488-1.078-2.313-1.474-1.854-.832-3.9-1.007-5.89-1.268-2.018-.216-4.041.012-6.049.22-2.727.249-5.394 1-7.916 2.058-1.497.64-2.921 1.473-4.164 2.527-.635.665-.67 1.618-.741 2.475-.016.435-.558.822-.934.52-2.29-2.029-4.261-4.389-6.48-6.492-.279-.31-.667-.573-.793-.99.031-.215.134-.409.216-.607.811.056 1.682.177 2.441-.202 2.084-1.023 4.068-2.246 6.192-3.189a43.644 43.644 0 0 1 6.229-1.946z" fill="#0084e2"/>
 <path d="M128.231 26.767c5.08-.201 10.168-.015 15.251-.101.499.043 1.089-.109 1.526.222-.247.477-.622.875-.843 1.368 1.641 1.854 3.499 3.5 5.141 5.355 1.867 1.946 3.794 3.833 5.668 5.773.28.299.742.687 1.157.395 1.113-.88 2.015-2 3.041-2.979 2.517-2.469 4.863-5.106 7.393-7.562.313-.368.85-.724.71-1.297-.236-.369-.517-.708-.719-1.097 1.242-.217 2.511-.164 3.768-.171 4.193.03 8.387-.009 12.581.007.398-.071.452.451.609.684-.881.388-1.849.515-2.723.917-1.422.618-2.359 1.925-3.457 2.967-1.647 1.599-3.154 3.336-4.789 4.947-2.19 2.226-4.405 4.427-6.578 6.669-.982 1.125-2.077 2.142-3.098 3.227-.246.268-.485.741-.217 1.07 1.012 1.32 2.349 2.334 3.436 3.588.967.876 1.742 1.936 2.662 2.858 2.543 2.575 5.1 5.136 7.63 7.725 1.39 1.551 2.893 2.996 4.342 4.491a6.086 6.086 0 0 0 2.876 1.727c.633.257 1.548.282 1.808 1.044-.924.193-1.873.177-2.808.186-3.991-.015-7.984-.017-11.974.002-.687-.039-1.407.074-2.053-.207.245-.422.647-.786.657-1.311-.152-.331-.434-.579-.668-.846-1.043-1.067-2.121-2.096-3.144-3.18-2.372-2.774-5.07-5.234-7.587-7.87-.55-.516-1.012-1.154-1.657-1.549-.633-.371-1.065.296-1.492.64-2.431 2.486-4.904 4.93-7.317 7.435-1.375 1.665-2.949 3.143-4.464 4.672-.263.28-.62.605-.456 1.049.163.299.363.578.552.863-.077.094-.153.189-.226.285-4.819.021-9.636-.004-14.454.017-.707-.033-1.437.053-2.114-.189.167-.304.355-.639.747-.68 1.123-.397 2.332-.65 3.258-1.466 1.268-1.135 2.407-2.411 3.622-3.605 3.648-3.977 7.65-7.61 11.239-11.642 1.087-.953 1.992-2.093 3.077-3.047a5.1 5.1 0 0 0 .922-1.101c.171-.597-.41-.962-.715-1.369-.49-.516-1.006-1.004-1.5-1.514-3.133-3.387-6.478-6.569-9.666-9.902-1.23-1.379-2.572-2.648-3.852-3.978-.635-.639-1.238-1.335-2.034-1.775-.843-.518-1.856-.584-2.751-.968-.33-.099-.275-.506-.317-.777z" fill="#ed0a0a"/>
</svg>
