<svg enable-background="new 0 0 3840 400.9" version="1.1" viewBox="0 0 3840 400.9" xml:space="preserve" xmlns="http://www.w3.org/2000/svg">
<path d="m200.5 0c-53.39995-4.7369468e-15 -103.699647 20.900429-141.599609 58.900391-37.999962 37.899962-58.900391 88.200049-58.900391 141.499999-4.7369468e-15 53.39995 20.900429 103.69965 58.900391 141.59961 37.999962 37.99996 88.299659 58.90039 141.599609 58.90039h3439c53.3999 0 103.6993-20.90082 141.6992-58.80078 38-37.99996 58.9004-88.29966 58.9004-141.59961 0-53.39995-20.9004-103.599647-58.9004-141.599609-37.9999-37.999962-88.2996-58.900391-141.5996-58.900391h-3439.0996zm0 19.199219h3439.0996c99.8999 0 181.2012 81.301271 181.2012 181.201171s-81.3013 181.19922-181.2012 181.19922h-3439.0996c-99.8999 0-181.199219-81.29932-181.199219-181.19922s81.299319-181.201171 181.199219-181.201171zm1913.1992 45.601562v27.898438h1013v-27.898438h-1013zm-1913.29881 18.398438c-64.69993 0-117.201171 52.501241-117.201171 117.201171 0 64.69994 52.501241 117.19922 117.201171 117.19922 10.49999 0 20.59884-1.4 30.29883-4v-59c-8.99999 4.99999-19.29884 7.90039-30.29883 7.90039-34.19997 0.1-62.09961-27.79964-62.09961-62.09961s27.89964-62.09961 62.09961-62.09961c10.99999 0 21.29884 2.89844 30.29883 7.89844v-59.000001c-9.69999-2.599998-19.79884-4-30.29883-4zm3111.61911 17.693361c-27.5542 0.04648-77.4074 1.10743-93.4199 15.10742-19.2 16.59998-16.5996 54.39963-16.5996 77.59961 0 12.69999 0.2996 25.79962 0.5996 38.59961 0.6 16.49998 1.4008 39.80118 14.8008 51.70117 18.6 16.89998 64.1996 15.40039 88.5996 15.40039 17.4 0 34.6-0.30156 52-0.60156 11.9-0.3 24.1-1.2 36-3.5 30.8-6.1 35.4004-30.79847 35.4004-58.39844 0-15.09998-0.3004-36.90118-11.9004-48.20117-5.2-5.2-11-8.39922-18-10.69922-18.9-6.09999-43.0008-6.40039-62.8008-6.40039-18.3 0-50.7996-0.8996-67.0996 8.40039-4.3 2.3-7.7988 5.19922-11.2988 8.69922v-3.19922-7.59961c0-7.49999-0.6004-22.10079 6.0996-27.30078 2.6-2 5.4992-2.9 8.6992-3.5 14-2.6 29.3996-2.59961 43.5996-2.59961 15.4 0 31.1012 0 46.2012 1.5 2.9 0.3 6.9996 0.59961 9.5996 2.59961s2.9004 6.1 2.9004 9v0.09961h55.2988c0-12.49999 0.3-31.40001-9-41-13.4-13.59999-43.3-14.49961-61-15.09961-12.8-0.6-25.5984-0.59961-38.3984-0.59961-2.8625 0-6.3449-0.01445-10.2813-0.00781zm252.4805 2.20703-115.0996 83.70117v74.09961h154.5996v36h56.0996v-36h37.5v-43.59961h-37.5v-114.20117h-95.5996zm-2038.6992 2v57.40039h-1.6016c-2.9-5.09999-4.6988-8.00039-9.7988-10.90039-10.2-5.99999-22.9996-5.79883-34.5996-5.79883-15.4 0-34.2016-0.89999-47.6016 8-15.2 10.29999-15.5996 30.39846-15.5996 46.89844 0 14.29998-0.1996 34.6004 11.4004 44.90039 13 11.39999 35.1004 11.20117 51.4004 11.20117 11.1 0 27.7-0.5 37.5-6.5 4.5-2.7 6.4992-5.60157 9.1992-10.10156h2v13.90039h37.2012v-149h-39.5zm587.8984 20.59961v27.90039h1013v-27.90039h-1013zm-1639.77537 19.98437c-17.0912-0.01367-40.66173 0.56681-52.82422 10.7168-12.69999 10.69999-12.5 28.80002-12.5 44 0 15.39999-0.70038 36.40001 13.59961 46.5 14.69998 10.19999 39.30002 9.79883 56.5 9.79883 9.59999 0 19.00157-0.29922 28.60156-0.69922 12.79999-0.7 26.80001-2.70079 36-12.30078 8.69999-8.99999 9.39883-20.39923 9.79883-32.19922h-40.19922c-1.6 10.49999-7.40118 13.39922-17.20117 14.69922-4.9 0.7-9.60001 0.70117-14.5 0.70117-7.19999 0-22.59923-0.40079-28.19922-5.80078-4.7-4.4-4.90039-12.50001-4.90039-18.5 0-6.19999 4e-4 -17.79883 5.40039-22.29883 5.49999-4.69999 20.10001-4.90039 27-4.90039 12.69999 0 30.79961-0.39959 32.59961 15.90039h40.40039c-0.2-8.49999-0.40078-16.1004-3.80078-23.90039-2-4.69999-4.49883-7.9-8.29883-11-14.09999-11.39999-43.59963-10.70117-60.59961-10.70117-2.125 0-4.43535-0.01367-6.87695-0.01563zm1487.07817 0.00586c-16.4117 0.0041-39.1403 0.57267-51.3028 9.41016-8.9 6.49999-12.4996 16.10079-13.5996 26.80078-0.7 6.49999-0.6992 13.2004-0.6992 19.90039 0 10.99999-0.4 23.70001 4.5 34 2.2 4.5 4.9004 8.09922 8.9004 11.19922 12.9 9.99999 39.0992 9.80078 54.6992 9.80078 17.2 0 49.9 0.69843 63.5-11.60156 7.6-6.89999 9.6-14.69884 10.5-24.79883h-39.3008c-0.5 2.5-0.8992 4.89922-2.6992 6.69922-4.2 4.69999-22.3008 4.5-28.8008 4.5s-21.3988-0.3-26.7988-4.5c-5.1-4.2-4.9004-11.19923-4.9004-17.19922h103.3008c0.2-3.6 0.1996-7.20078 0.0996-10.80078 0-21.19998-1.5-42.69962-25-49.59961-14.5-4.2-30.8008-3.80078-45.8008-3.80078-2.0375 0-4.2531-0.01035-6.5976-0.00977zm-1321.41802 0.10157c-16.89295 0.00683-42.85899 0.59688-54.58398 9.60937-8.29999 6.19999-12.1 15.09923-13 25.19922-0.7 5.89999-0.69922 11.90118-0.69922 17.70117 0 11.59999-0.70117 25.49845 3.79883 36.39844 2 4.69999 4.5 8.20156 8.5 11.60156 14.29999 12.09999 45.19963 10.5 62.59961 10.5 16.79998 0 49.00157 1.29999 62.60156-10.5 7.99999-6.99999 10.69961-16.1004 11.59961-26.40039 0.5-6.49999 0.69961-13.20001 0.59961-19.5 0-11.39999 0.70038-24.6004-5.09961-34.90039-2.2-4.3-4.7-7.19961-8.5-10.09961-13.59999-10.29999-45.10119-9.59961-61.20117-9.59961-1.975 0-4.20196-0.01074-6.61524-0.00976zm676.29882 0c-16.8929 0.00683-42.857 0.59688-54.582 9.60937-8.3 6.19999-12.1 15.09923-13 25.19922-0.7 5.89999-0.7012 11.90118-0.7012 17.70117 0 11.59999-0.6992 25.49845 3.8008 36.39844 2 4.69999 4.5 8.20156 8.5 11.60156 14.3 12.09999 45.1996 10.5 62.5996 10.5 16.8 0 48.9996 1.29999 62.5996-10.5 8-6.99999 10.6996-16.1004 11.5996-26.40039 0.4-6.49999 0.6016-13.20001 0.6016-19.5 0-11.39999 0.6984-24.6004-5.1016-34.90039-2.2-4.3-4.7-7.19961-8.5-10.09961-13.6-10.29999-45.0992-9.59961-61.1992-9.59961-1.975 0-4.2039-0.01074-6.6172-0.00976zm339.2012 0c-16.893 0.00683-42.859 0.59688-54.584 9.60937-8.3 6.19999-12.1 15.09923-13 25.19922-0.7 5.89999-0.6992 11.90118-0.6992 17.70117 0 11.59999-0.7012 25.49845 3.7988 36.39844 2 4.69999 4.5 8.20156 8.5 11.60156 14.3 12.09999 45.1996 10.5 62.5996 10.5 16.8 0 49.0016 1.29999 62.6016-10.5 8-6.99999 10.6996-16.1004 11.5996-26.40039 0.5-6.49999 0.6996-13.20001 0.5996-19.5 0-11.39999 0.7004-24.6004-5.0996-34.90039-2.2-4.3-4.7-7.19961-8.5-10.09961-13.6-10.29999-45.1012-9.59961-61.2012-9.59961-1.975 0-4.2019-0.01074-6.6152-0.00976zm-830.28322 0.00976c-15.89998 0-35.5004 2.20002-42.90039 18.5h-1.80078v-15.90039h-37.29883v105.69922h39.5v-43.59961c0-24.99997 1.69847-35.09961 29.89844-35.09961 17.79998 0 26.10156 2.70041 26.10156 21.90039v7.39844 49.40039h39.5v-43.59961c0-24.39998 1.99886-35.09961 29.29883-35.09961 24.29998 0 26.80078 6.49885 26.80078 29.29883v49.40039h39.69922v-49.40039c0-10.49999 0.19961-21.39923-2.90039-31.69922-1.6-5.29999-4.49883-9.59961-8.29883-13.59961-11.19999-11.79999-28.4008-13.59961-43.80078-13.59961-18.99998 0-37.79884 2.39963-45.79883 22.09961-10.19999-18.69998-27.90002-22.09961-48-22.09961zm253.59962 0c-15.9 0-35.5004 2.20002-42.9004 18.5h-1.8008v-15.90039h-37.29881v105.69922h39.50001v-43.59961c0-24.99997 1.7004-35.09961 29.9004-35.09961 17.8 0 26.0996 2.70041 26.0996 21.90039v7.39844 49.40039h39.5v-43.59961c0-24.39998 1.9988-35.09961 29.2988-35.09961 24.3 0 26.8008 6.49885 26.8008 29.29883v49.40039h39.6992v-49.40039c0-10.49999 0.2016-21.39923-2.8984-31.69922-1.6-5.29999-4.5008-9.59961-8.3008-13.59961-11.2-11.79999-28.4008-13.59961-43.8008-13.59961-19 0-37.7988 2.39963-45.7988 22.09961-10.2-18.69998-27.9-22.09961-48-22.09961zm759.9004 0c-17.2 0-31.9016 2.20002-41.1016 18.5h-1.7988v-15.90039h-37.3008v105.69922h39.5v-43.79883c0-19.49998 0.6-34.90039 25-34.90039 15.7 0 20.8008 4.30041 20.8008 19.90039h37.0996c0-1.3 0.2008-2.90117 0.3008-4.20117 0-11.19999 0.1988-24.30001-7.2012-33.5-8.3-10.19999-22.9988-11.79883-35.2988-11.79883zm1753.8984 2.39844h11.9004v69.20117h-102v-7.59961l90.0996-61.60156zm-3361.49998 1.10156v46.89844h55.30078l46.90039-46.89844h-102.20117zm1737.60158 21c6.5 0 22.5988-3.8e-4 27.2988 5.09961 2.9 3.1 3.0996 6.29883 3.0996 10.29883v2.5h-63.6992c0.2-11.19999 4.2004-15.4 15.4004-17 5.8-0.9 11.9004-0.89844 17.9004-0.89844zm-471.5918 5.18164c9.7494-0.02597 23.2781 0.45587 27.3906 9.81836 2 4.7 2.2008 10.69883 2.3008 15.79883 0 9.59999 0.2 19.80117-10.5 23.20117-7.6 2.5-17.5 2.89844-25.5 2.89844-7.1 0-24.3012 0.00116-29.7012-5.79883-4.7-4.89999-4.5-14.50079-4.5-20.80078 0-4.7 0.2-10.50001 2-15 4.9-11.19999 24.8016-10.09961 34.6016-10.09961 1.2 0 2.5154-0.01387 3.9082-0.01758zm-850.30861 0.01758c7.39999 0 24.39923 0.20079 30.19922 5.80078 4.69999 4.4 5.00078 12.29844 4.80078 18.39844 0 10.99999 0.20038 22.2-12.09961 25.5-7.39999 2-15.40001 2-23 2-7.99999 0-25.5-1e-5 -31.5-6.5-4.19999-4.5-4-12.29962-4-18.09961 0-12.09999 0.19962-22.8 14.09961-25.5 6.99999-1.4 14.30001-1.59961 21.5-1.59961zm676.29881 0c7.4 0 24.4012 0.20079 30.2012 5.80078 4.7 4.4 4.8988 12.29844 4.7988 18.39844 0 10.99999 0.2004 22.2-12.0996 25.5-7.4 2-15.4 2-23 2-8 0-25.5-1e-5 -31.5-6.5-4.2-4.5-4-12.29962-4-18.09961 0-12.09999 0.1996-22.8 14.0996-25.5 7-1.4 14.3-1.59961 21.5-1.59961zm339.2012 0c7.4 0 24.3992 0.20079 30.1992 5.80078 4.7 4.4 4.9008 12.29844 4.8008 18.39844 0 10.99999 0.2004 22.2-12.0996 25.5-7.4 2-15.4 2-23 2-8 0-25.5-1e-5 -31.5-6.5-4.2-4.5-4-12.29962-4-18.09961 0-12.09999 0.1996-22.8 14.0996-25.5 7-1.4 14.3-1.59961 21.5-1.59961zm451.7988 11v27.90039h1013v-27.90039h-1013zm-1882.99998 18.19922v46.90039h102.20117l-46.90039-46.90039h-55.30078zm3061.83788 10.22656c5.8875-0.075 11.7625 0.07422 17.5625 0.07422 16 0 32.8-0.60078 48.5 1.69922 11.3 1.8 13.5996 8.20001 13.5996 19 0 4.59999-0.5996 11-4.0996 14.5-5.8 5.49999-20.6004 4.60039-27.9004 4.90039-10.2 0.3-19.9992 0.59961-30.1992 0.59961-7.6 0-40.3992 1.50038-46.1992-4.59961-3.4-3.8-4.6016-10.19961-4.6016-15.09961 0-11.09999 4.4012-18.10078 15.7012-19.80078 5.85-0.9 11.7492-1.19844 17.6367-1.27344zm-1178.8379 32.375v27.89844h1013v-27.89844h-1013zm0 60.89844v27.90039h1013v-27.90039h-1013z"/>
</svg>
