<?xml version="1.0" encoding="utf-8"?>
<!-- Generator: Adobe Illustrator 25.0.0, SVG Export Plug-In . SVG Version: 6.00 Build 0)  -->
<svg version="1.1" id="Layer_1" xmlns="http://www.w3.org/2000/svg" xmlns:xlink="http://www.w3.org/1999/xlink" x="0px" y="0px"
	 viewBox="0 0 3840 400.9" style="enable-background:new 0 0 3840 400.9;" xml:space="preserve">
<style type="text/css">
	.st0{fill-rule:evenodd;clip-rule:evenodd;fill:#3E3632;}
	.st1{fill-rule:evenodd;clip-rule:evenodd;fill:#FD2537;}
	.st2{fill-rule:evenodd;clip-rule:evenodd;fill:#FD7801;}
	.st3{fill-rule:evenodd;clip-rule:evenodd;fill:#F2F540;}
	.st4{fill-rule:evenodd;clip-rule:evenodd;fill:#48CC31;}
	.st5{fill-rule:evenodd;clip-rule:evenodd;fill:#14A3FD;}
	.st6{fill:#FFFFFF;}
	.st7{fill:#282422;}
	.st8{fill:url(#SVGID_1_);}
	.st9{fill:url(#SVGID_2_);}
	.st10{fill:url(#SVGID_3_);}
	.st11{fill:url(#SVGID_4_);}
	.st12{fill:url(#SVGID_5_);}
	.st13{fill:url(#SVGID_6_);}
	.st14{fill:url(#SVGID_7_);}
	.st15{fill:url(#SVGID_8_);}
	.st16{fill:url(#SVGID_9_);}
	.st17{fill:url(#SVGID_10_);}
	.st18{fill:url(#SVGID_11_);}
	.st19{fill:url(#SVGID_12_);}
	.st20{fill:url(#SVGID_13_);}
	.st21{fill:url(#SVGID_14_);}
	.st22{fill-rule:evenodd;clip-rule:evenodd;fill:#FFFFFF;}
	.st23{fill:url(#SVGID_15_);}
	.st24{fill:url(#SVGID_16_);}
	.st25{fill:url(#SVGID_17_);}
	.st26{fill:url(#SVGID_18_);}
	.st27{fill:url(#SVGID_19_);}
	.st28{fill:url(#SVGID_20_);}
	.st29{fill:url(#SVGID_21_);}
	.st30{fill:url(#SVGID_22_);}
	.st31{fill:url(#SVGID_23_);}
	.st32{fill:url(#SVGID_24_);}
	.st33{fill:url(#SVGID_25_);}
	.st34{fill:url(#SVGID_26_);}
	.st35{fill:url(#SVGID_27_);}
	.st36{fill:url(#SVGID_28_);}
	.st37{fill-rule:evenodd;clip-rule:evenodd;}
</style>
<g>
	<g>
		<g id="path5_3_">
			<path d="M3639.5,400.9H200.5c-53.3,0-103.6-20.9-141.6-58.9C20.9,304.1,0,253.8,0,200.4C0,147.1,20.9,96.8,58.9,58.9
				C96.8,20.9,147.1,0,200.5,0h3439.1c53.3,0,103.6,20.9,141.6,58.9c38,38,58.9,88.2,58.9,141.6c0,53.3-20.9,103.6-58.9,141.6
				C3743.2,380,3692.9,400.9,3639.5,400.9z M200.5,19.2c-99.9,0-181.2,81.3-181.2,181.2c0,99.9,81.3,181.2,181.2,181.2h3439.1
				c99.9,0,181.2-81.3,181.2-181.2c0-99.9-81.3-181.2-181.2-181.2H200.5z"/>
		</g>
		<g>
			<g id="polygon7_4_">
				<polygon class="st37" points="2113.7,64.8 2113.7,64.8 3126.7,64.8 3126.7,92.7 2113.7,92.7 				"/>
			</g>
			<g>
				<polygon class="st37" points="2113.7,125.7 2113.7,125.7 3126.7,125.7 3126.7,153.6 2113.7,153.6 				"/>
			</g>
			<g>
				<polygon class="st37" points="2113.7,186.5 2113.7,186.5 3126.7,186.5 3126.7,214.4 2113.7,214.4 				"/>
			</g>
			<g>
				<polygon class="st37" points="2113.7,247.3 2113.7,247.3 3126.7,247.3 3126.7,275.2 2113.7,275.2 				"/>
			</g>
			<g id="polygon15_4_">
				<polygon class="st37" points="2113.7,308.2 2113.7,308.2 3126.7,308.2 3126.7,336.1 2113.7,336.1 				"/>
			</g>
		</g>
	</g>
	<g>
		<g>
			<path d="M513.1,191.3c-1.8-16.3-19.9-15.9-32.6-15.9c-6.9,0-21.5,0.2-27,4.9c-5.4,4.5-5.4,16.1-5.4,22.3c0,6,0.2,14.1,4.9,18.5
				c5.6,5.4,21,5.8,28.2,5.8c4.9,0,9.6,0,14.5-0.7c9.8-1.3,15.6-4.2,17.2-14.7h40.2c-0.4,11.8-1.1,23.2-9.8,32.2
				c-9.2,9.6-23.2,11.6-36,12.3c-9.6,0.4-19,0.7-28.6,0.7c-17.2,0-41.8,0.4-56.5-9.8c-14.3-10.1-13.6-31.1-13.6-46.5
				c0-15.2-0.2-33.3,12.5-44c13.9-11.6,42.7-10.7,59.7-10.7c17,0,46.5-0.7,60.6,10.7c3.8,3.1,6.3,6.3,8.3,11
				c3.4,7.8,3.6,15.4,3.8,23.9H513.1z"/>
		</g>
		<g>
			<path d="M720.4,219.9c-0.9,10.3-3.6,19.4-11.6,26.4c-13.6,11.8-45.8,10.5-62.6,10.5c-17.4,0-48.3,1.6-62.6-10.5
				c-4-3.4-6.5-6.9-8.5-11.6c-4.5-10.9-3.8-24.8-3.8-36.4c0-5.8,0-11.8,0.7-17.7c0.9-10.1,4.7-19,13-25.2
				c13.4-10.3,45.4-9.6,61.2-9.6c16.1,0,47.6-0.7,61.2,9.6c3.8,2.9,6.3,5.8,8.5,10.1c5.8,10.3,5.1,23.5,5.1,34.9
				C721.1,206.7,720.9,213.4,720.4,219.9z M676.6,181.3c-5.8-5.6-22.8-5.8-30.2-5.8c-7.2,0-14.5,0.2-21.5,1.6
				c-13.9,2.7-14.1,13.4-14.1,25.5c0,5.8-0.2,13.6,4,18.1c6,6.5,23.5,6.5,31.5,6.5c7.6,0,15.6,0,23-2c12.3-3.3,12.1-14.5,12.1-25.5
				C681.6,193.6,681.3,185.7,676.6,181.3z"/>
		</g>
		<g>
			<path d="M933.9,254.1v-49.4c0-22.8-2.5-29.3-26.8-29.3c-27.3,0-29.3,10.7-29.3,35.1v43.6h-39.5v-49.4v-7.4
				c0-19.2-8.3-21.9-26.1-21.9c-28.2,0-29.9,10.1-29.9,35.1v43.6h-39.5V148.4h37.3v15.9h1.8c7.4-16.3,27-18.5,42.9-18.5
				c20.1,0,37.8,3.4,48,22.1c8-19.7,26.8-22.1,45.8-22.1c15.4,0,32.6,1.8,43.8,13.6c3.8,4,6.7,8.3,8.3,13.6
				c3.1,10.3,2.9,21.2,2.9,31.7v49.4H933.9z"/>
		</g>
		<g>
			<path d="M1187.5,254.1v-49.4c0-22.8-2.5-29.3-26.8-29.3c-27.3,0-29.3,10.7-29.3,35.1v43.6h-39.5v-49.4v-7.4
				c0-19.2-8.3-21.9-26.1-21.9c-28.2,0-29.9,10.1-29.9,35.1v43.6h-39.5V148.4h37.3v15.9h1.8c7.4-16.3,27-18.5,42.9-18.5
				c20.1,0,37.8,3.4,48,22.1c8-19.7,26.8-22.1,45.8-22.1c15.4,0,32.6,1.8,43.8,13.6c3.8,4,6.7,8.3,8.3,13.6
				c3.1,10.3,2.9,21.2,2.9,31.7v49.4H1187.5z"/>
		</g>
		<g>
			<path d="M1396.7,219.9c-0.9,10.3-3.6,19.4-11.6,26.4c-13.6,11.8-45.8,10.5-62.6,10.5c-17.4,0-48.3,1.6-62.6-10.5
				c-4-3.4-6.5-6.9-8.5-11.6c-4.5-10.9-3.8-24.8-3.8-36.4c0-5.8,0-11.8,0.7-17.7c0.9-10.1,4.7-19,13-25.2
				c13.4-10.3,45.4-9.6,61.2-9.6c16.1,0,47.6-0.7,61.2,9.6c3.8,2.9,6.3,5.8,8.5,10.1c5.8,10.3,5.1,23.5,5.1,34.9
				C1397.3,206.7,1397.1,213.4,1396.7,219.9z M1352.9,181.3c-5.8-5.6-22.8-5.8-30.2-5.8c-7.2,0-14.5,0.2-21.5,1.6
				c-13.9,2.7-14.1,13.4-14.1,25.5c0,5.8-0.2,13.6,4,18.1c6,6.5,23.5,6.5,31.5,6.5c7.6,0,15.6,0,23-2c12.3-3.3,12.1-14.5,12.1-25.5
				C1357.8,193.6,1357.6,185.7,1352.9,181.3z"/>
		</g>
		<g>
			<path d="M1528.1,254.1v-13.9h-2c-2.7,4.5-4.7,7.4-9.2,10.1c-9.8,6-26.4,6.5-37.5,6.5c-16.3,0-38.4,0.2-51.4-11.2
				c-11.6-10.3-11.4-30.6-11.4-44.9c0-16.5,0.4-36.6,15.6-46.9c13.4-8.9,32.2-8,47.6-8c11.6,0,24.4-0.2,34.6,5.8
				c5.1,2.9,6.9,5.8,9.8,10.9h1.6v-57.4h39.5v149H1528.1z M1524.1,185.3c-4.7-10.7-21.7-9.8-31.3-9.8c-9.8,0-29.7-1.1-34.6,10.1
				c-1.8,4.5-2,10.3-2,15c0,6.3-0.2,15.9,4.5,20.8c5.4,5.8,22.6,5.8,29.7,5.8c8,0,17.9-0.4,25.5-2.9c10.7-3.4,10.5-13.6,10.5-23.2
				C1526.3,196,1526.1,190,1524.1,185.3z"/>
		</g>
		<g>
			<path d="M1735.9,219.9c-0.9,10.3-3.6,19.4-11.6,26.4c-13.6,11.8-45.8,10.5-62.6,10.5c-17.4,0-48.3,1.6-62.6-10.5
				c-4-3.4-6.5-6.9-8.5-11.6c-4.5-10.9-3.8-24.8-3.8-36.4c0-5.8,0-11.8,0.7-17.7c0.9-10.1,4.7-19,13-25.2
				c13.4-10.3,45.4-9.6,61.2-9.6c16.1,0,47.6-0.7,61.2,9.6c3.8,2.9,6.3,5.8,8.5,10.1c5.8,10.3,5.1,23.5,5.1,34.9
				C1736.6,206.7,1736.4,213.4,1735.9,219.9z M1692.1,181.3c-5.8-5.6-22.8-5.8-30.2-5.8c-7.2,0-14.5,0.2-21.5,1.6
				c-13.9,2.7-14.1,13.4-14.1,25.5c0,5.8-0.2,13.6,4,18.1c6,6.5,23.5,6.5,31.5,6.5c7.6,0,15.6,0,23-2c12.3-3.3,12.1-14.5,12.1-25.5
				C1697,193.6,1696.8,185.7,1692.1,181.3z"/>
		</g>
		<g>
			<path d="M1880.5,195.3h-37.1c0-15.6-5.1-19.9-20.8-19.9c-24.4,0-25,15.4-25,34.9v43.8h-39.5V148.4h37.3v15.9h1.8
				c9.2-16.3,23.9-18.5,41.1-18.5c12.3,0,27,1.6,35.3,11.8c7.4,9.2,7.2,22.3,7.2,33.5C1880.7,192.4,1880.5,194,1880.5,195.3z"/>
		</g>
		<g>
			<path d="M2038.3,209.9H1935c0,6-0.2,13,4.9,17.2c5.4,4.2,20.3,4.5,26.8,4.5c6.5,0,24.6,0.2,28.8-4.5c1.8-1.8,2.2-4.2,2.7-6.7
				h39.3c-0.9,10.1-2.9,17.9-10.5,24.8c-13.6,12.3-46.3,11.6-63.5,11.6c-15.6,0-41.8,0.2-54.7-9.8c-4-3.1-6.7-6.7-8.9-11.2
				c-4.9-10.3-4.5-23-4.5-34c0-6.7,0-13.4,0.7-19.9c1.1-10.7,4.7-20.3,13.6-26.8c13.9-10.1,41.6-9.4,57.9-9.4
				c15,0,31.3-0.4,45.8,3.8c23.5,6.9,25,28.4,25,49.6C2038.5,202.7,2038.5,206.3,2038.3,209.9z M1998.7,185.7c0-4-0.2-7.2-3.1-10.3
				c-4.7-5.1-20.8-5.1-27.3-5.1c-6,0-12.1,0-17.9,0.9c-11.2,1.6-15.2,5.8-15.4,17h63.7V185.7z"/>
		</g>
	</g>
	<g>
		<g>
			<path d="M3375.4,157.5c0-2.9-0.3-7-2.9-9c-2.6-2-6.7-2.3-9.6-2.6c-15.1-1.5-30.8-1.5-46.2-1.5c-14.2,0-29.6,0-43.6,2.6
				c-3.2,0.6-6.1,1.5-8.7,3.5c-6.7,5.2-6.1,19.8-6.1,27.3v7.6v3.2c3.5-3.5,7-6.4,11.3-8.7c16.3-9.3,48.8-8.4,67.1-8.4
				c19.8,0,43.9,0.3,62.8,6.4c7,2.3,12.8,5.5,18,10.7c11.6,11.3,11.9,33.1,11.9,48.2c0,27.6-4.6,52.3-35.4,58.4
				c-11.9,2.3-24.1,3.2-36,3.5c-17.4,0.3-34.6,0.6-52,0.6c-24.4,0-70,1.5-88.6-15.4c-13.4-11.9-14.2-35.2-14.8-51.7
				c-0.3-12.8-0.6-25.9-0.6-38.6c0-23.2-2.6-61,16.6-77.6c18.3-16,80.8-15.1,103.7-15.1c12.8,0,25.6,0,38.4,0.6
				c17.7,0.6,47.6,1.5,61,15.1c9.3,9.6,9,28.5,9,41H3375.4z M3358.6,216.7c-15.7-2.3-32.5-1.7-48.5-1.7c-11.6,0-23.5-0.6-35.2,1.2
				c-11.3,1.7-15.7,8.7-15.7,19.8c0,4.9,1.2,11.3,4.6,15.1c5.8,6.1,38.6,4.6,46.2,4.6c10.2,0,20-0.3,30.2-0.6
				c7.3-0.3,22.1,0.6,27.9-4.9c3.5-3.5,4.1-9.9,4.1-14.5C3372.2,224.9,3369.9,218.5,3358.6,216.7z"/>
		</g>
		<g>
			<path d="M3660.1,260.9v36h-56.1v-36h-154.6v-74.1l115.1-83.7h95.6v114.2h37.5v43.6H3660.1z M3604.1,148.2h-11.9l-90.1,61.6v7.6
				h102V148.2z"/>
		</g>
	</g>
	<g>
		<g>
			<path d="M138.3,200.4c0-34.3,27.9-62.1,62.1-62.1c11,0,21.3,2.9,30.3,7.9v-59c-9.7-2.6-19.8-4-30.3-4
				c-64.7,0-117.2,52.5-117.2,117.2s52.5,117.2,117.2,117.2c10.5,0,20.6-1.4,30.3-4v-59c-9,5-19.3,7.9-30.3,7.9
				C166.2,262.6,138.3,234.7,138.3,200.4z"/>
		</g>
		<g>
			<polygon points="230.7,196.2 286,196.2 332.9,149.3 230.7,149.3 			"/>
		</g>
		<g>
			<polygon points="230.7,204.7 230.7,251.6 332.9,251.6 286,204.7 			"/>
		</g>
	</g>
</g>
</svg>
