<svg width="294.67" height="36" fill="#000000" version="1.1" viewBox="0 0 147.33 18" xmlns="http://www.w3.org/2000/svg">
 <path d="m12 0c-4.97 0-9 4.03-9 9h-3l3.8896 3.8896 0.07031 0.14062 4.04-4.0303h-3c0-3.87 3.13-7 7-7s7 3.13 7 7c0 3.87-3.13 7-7 7-1.93 0-3.6804-0.78957-4.9404-2.0596l-1.4199 1.4199c1.63 1.63 3.8704 2.6396 6.3604 2.6396 4.97 0 9-4.03 9-9 0-4.97-4.03-9-9-9zm40.659 1.4229c-3.2033 0-5.291 1.5911-5.291 4.0918 0 4.9187 8.0195 3.0793 8.0195 6.7373 0 1.4467-1.2402 2.377-3.4102 2.377-1.302 0-2.914-0.35102-4.3193-0.92969l-0.5166 1.3428c1.5913 0.72333 3.2031 1.1162 4.7324 1.1162 3.2033 0 5.291-1.633 5.291-4.1543 0-5.084-8.04-3.0585-8.04-6.7578 0-1.5087 1.2195-2.335 3.4102-2.335 1.2193 0 2.5419 0.24764 3.5752 0.68164l0.5166-1.3428c-1.2193-0.53733-2.6038-0.82715-3.9678-0.82715zm-27.714 0.18555v14.343h8.1426v-1.5293h-6.4277v-12.813zm14.074 0-5.374 14.343h1.7988l1.5293-4.2568h5.9727l1.4258 4.2568h1.9219l-5.043-14.343zm19.055 0v1.4883h4.7734v12.854h1.7158v-12.854h4.7949v-1.4883zm17.938 0v14.343h1.7148v-5.001h2.4395c3.2033 0 5.3525-1.9018 5.3525-4.7744 0-2.7487-2.0256-4.5674-5.043-4.5674zm12.193 0v14.343h8.1426v-1.5293h-6.4277v-12.813zm14.074 0-5.374 14.343h1.7979l1.5303-4.2568h5.9726l1.4258 4.2568h1.9219l-5.043-14.343zm7.543 0 5.0635 8.1641v6.1787h1.7148v-6.1787l4.96-8.1641h-1.8799l-3.8857 6.6758-3.9678-6.6758zm13.764 0v14.343h9.0107v-1.4873h-7.2949v-5.1875h6.7373v-1.4883h-6.7373v-4.6914h7.2949v-1.4883zm12.069 0v14.343h4.3818c4.34 0 7.2949-2.8308 7.2949-7.4395 0-4.34-2.604-6.9033-6.9854-6.9033zm-95.624 1.4678 2.3975 7.1299h-4.9395zm63.261 0 2.3965 7.1299h-4.9385zm-25.565 0.020508h2.542c2.0873 0 3.4932 1.3643 3.4932 3.3896 0 1.9427-1.1575 2.9756-3.2861 2.9756h-2.749zm59.645 0h2.7695c3.4927 0 5.4346 2.0463 5.4346 5.6836 0 3.6167-1.922 5.6836-5.332 5.6836h-2.8721zm-126.37 1.9033v5l4.2803 2.54 0.71973-1.21-3.5-2.0801v-4.25z"/>
</svg>
