<svg enable-background="new 0 0 3839 589.5" version="1.1" viewBox="0 0 3839 589.5" xml:space="preserve" xmlns="http://www.w3.org/2000/svg">
<path class="st0" d="m2732.8008 0-18.8008 0.19921875h-14-46.0996-14-18.5996c-3.9 0-7 3.10000385-7 7.00000005v17.3007812c0 3.899996 3.1 7 7 7h11.6992c3.9 0 7 3.100004 7 7v58.5c0 3.9 3.0008 7.20078 6.8008 7.30078 4 0.1 7.1992-3 7.1992-6.999999v-58.800781c0-3.899996 3.1-7 7-7h32.0996c3.9 0 7 3.100004 7 7v58.5c0 3.9 3.0008 7.20078 6.8008 7.30078 4 0.1 7.1992-3 7.1992-6.999999v-58.800781c0-3.899996 3.1-7 7-7h11.7012c3.9 0 7-3.100004 7-7v-17.5c0-3.8999961-3.1-7-7-7zm629.8984 0.099609375c-3.9 0-7 3.100003925-7 7.000000025v90.2011716c0 3.899999 3.1 6.999999 7 6.999999h17.4004c3.9 0 7-3.1 7-6.999999v-28.800781c0-3.899996 3.1-7 7-7h23.8008c3.9 0 7 3.100004 7 7v28.800781c0 3.899999 3.1 6.999999 7 6.999999s7-3.1 7-6.999999v-42.90039c0-3.899996-3.1-7-7-7-3.8 0.199999-7-3.000785-7-6.800782v-33.4999996c0-3.8999961-3.1-7.000000025-7-7.000000025h-55.2012zm-594.2988 0.099609375c-3.9 0-7 3.10000395-7 7.00000005v33.4003902c0 3.899996-3.1 7-7 7h-9.9004c-3.9 0-7 3.100004-7 7v42.900391c0 3.9 3.1 7 7 7h69.1992c3.9 0 7-3.1 7-7 0-3.899996-3.1-7-7-7h-55.1992c-3.9 0-7-3.100004-7-7v-15c0-3.899996 3.1-7 7-7h55.1992c3.9 0 7-3.100004 7-7s-3.1-7-7-7h-13.8984c-3.9 0-7-3.100004-7-7v-19.5c0-3.899996 3.1-7 7-7h14c3.9 0.2 7-3.000785 7-6.8007812 0-3.8999961-3.1-7.00000005-7-7.00000005h-45.4004zm75.1992 0c-3.9 0-7 3.10000395-7 7.00000005v90.2011722c0 3.899999 3.1 6.999999 7 6.999999h45.5996c3.9 0 7-3.1 7-6.999999v-17.400391c0-3.899996-3.2-7-7-7h-31.5996c-3.9 0-7-3.100004-7-7v-58.8007812c0-3.8999961-3.1-7.00000005-7-7.00000005zm127.7012 0c-3.9 0-7 3.10000395-7 7.00000005v33.4003902c0 3.899996-3.1 7-7 7h-9.9004c-3.9 0-7 3.100004-7 7v42.900391c0 3.9 3.1 7 7 7h69.1992c3.9 0 7-3.1 7-7 0-3.899996-3.1-7-7-7h-55.1992c-3.9 0-7-3.100004-7-7v-15c0-3.899996 3.1-7 7-7h55.1992c3.9 0 7-3.100004 7-7s-3.1-7-7-7h-13.9004c-3.9 0-7-3.100004-7-7v-19.5c0-3.899996 3.1-7 7-7h14c3.9 0.2 7-3.000785 7-6.8007812 0-3.8999961-3.1-7.00000005-7-7.00000005h-45.3984zm72.1992 0c-3.9 0-7 3.10000395-7 7.00000005v90.2011722c0 3.899999 3.1 6.999999 7 6.999999h45.5996c3.9 0 7-3.1 7-6.999999v-17.400391c0-3.899996-3.1-6.900391-7-6.900391h-31.5996c-3.9 0-7-3.100004-7-7v-58.9003902c0-3.8999961-3.1-7.00000005-7-7.00000005zm93.6992 0c-3.9 0-7 3.10000395-7 7.00000005v33.4003902c0 3.899996-3.1 7-7 7h-9.8984c-3.9 0-7 3.100004-7 7v42.900391c0 3.9 3.1 7 7 7h69.1992c3.9 0 7-3.1 7-7 0-3.899996-3.1-7-7-7h-55.0996c-3.9 0-7-3.100004-7-7v-15c0-3.899996 3.1-7 7-7h55.1992c3.9 0 7-3.100004 7-7s-3.1-7-7-7h-14c-3.9 0-7-3.100004-7-7v-19.5c0-3.899996 3.1-7 7-7h14c3.9 0.2 7-3.000785 7-6.8007812 0-3.8999961-3.1-7.00000005-7-7.00000005h-45.4004zm73.8008 0c-3.9 0-7 3.10000395-7 7.00000005v90.2011722c0 3.899999 3.1 6.999999 7 6.999999h51.5996c3.9 0 7-3.1 7-6.999999 0-3.899996-3.1-7-7-7h-37.6992c-3.9 0-7-3.100004-7-7v-45c0-3.899996 3.1-7 7-7h37.6992c3.8 0.199999 7-3.000785 7-6.800782v-17.4003902c0-3.8999961-3.1-7.00000005-7-7.00000005h-51.5996zm76 0c-3.9 0-7 3.10000395-7 7.00000005v17.4003902c0 3.899996 3.1 7 7 7h11.9004c3.9 0 7 3.100004 7 7v58.800782c0 3.899999 3.1 6.999999 7 6.999999s7-3.1 7-6.999999v-58.800782c0-3.899996 3.1-7 7-7h11.9004c3.9 0 7-3.100004 7-7v-17.4003902h-0.1016c0-3.8999961-3.1-7.00000005-7-7.00000005h-18.7988-14-18.9004zm170.5996 0c-3.9 0-7 3.20000375-7 7.00000005v90.2011722c0 3.899999 3.1 6.999999 7 6.999999h60.4004c3.9 0 7-3.1 7-6.999999v-90.2011722c0-3.8999961-3.1-7.00000005-7-7.00000005h-59.3008-1.0996zm88.9004 0c-3.9 0-7 3.10000385-7 7.00000005v90.2011722c0 3.899999 3.1 6.999999 7 6.999999s7-3.1 7-6.999999v-58.800782c0-3.899996 3.1-7 7-7h32.3008c3.9 0 7 3.100004 7 7v58.800782c0 3.899999 3.1 6.999999 7 6.999999s7-3.1 7-6.999999v-90.2011722c0-3.8999961-3.1-7.00000005-7-7.00000005h-7-46.3008-7zm105.3008 0c-3.1 0-5.6016 2.60156555-5.6016 5.60156245v61.3984378c0 3.099997-2.5996 5.601562-5.5996 5.601562h-7.9004c-3.1 0-5.5996 2.599613-5.5996 5.59961v20c0 3.099999 2.5996 5.599609 5.5996 5.599609h33.3008c3.1 0 5.5996-2.59961 5.5996-5.599609v-20c0-3.099997-2.5996-5.59961-5.5996-5.59961-3.4 0.3-6-2.400393-6-5.40039v-61.5996098c0-3.0999969-2.5996-5.60156245-5.5996-5.60156245h-2.5996zm36 0c-3.9 0-7 3.10000395-7 7.00000005v90.2011722c0 3.899999 3.1 6.999999 7 6.999999h51.5996c3.9 0 7-3.1 7-6.999999 0-3.899996-3.1-7-7-7h-37.7012c-3.9 0-7-3.100004-7-7v-45c0-3.899996 3.1-7 7-7h37.7012c3.9 0.199999 7-3.000785 7-6.800782v-17.4003902c0-3.8999961-3.1-7.00000005-7-7.00000005h-51.5996zm83.8984 0c-3.9 0-7 3.10000395-7 7.00000005v47.5000002c0 3.899996 3.1 7 7 7h29c3.9 0 7 3.100004 7 7v14.90039c0 3.899996-3.1 7-7 7h-37.7988c-3.9 0-7 3.100004-7 7 0 3.900001 3.1 7.000001 7 7.000001h69.1992c3.9 0 7-3.1 7-7.000001v-42.90039c0-3.899996-3.1-7-7-7h-46.5c-4-0.1-7.0996-3.299613-7.0996-7.09961v-19.40039c0-3.899996 3.1-7 7-7h37.1992c3.9 0 7-3.100004 7-7.0000002 0-3.8999961-3.1-7.00000005-7-7.00000005h-51zm-1367.0996 0.1015625c-3.9 0-7 3.10000395-7 6.99999995v24.3984378 65.601562c0 3.899999 3.0008 7.198829 6.8008 7.298829 4 0.1 7.1992-3 7.1992-7.000001v-58.90039c0-3.899996 3.1-7 7-7h9.5c3.4 0 6.4004 2.600394 6.9004 5.90039l5.4004 32.300782c0.6 3.399996 3.5004 5.90039 6.9004 5.90039h12.5c2.8 0 5.3-1.600784 6.5-4.300781l20.1992-47.099609c1.6-3.999996 7.6992-2.800387 7.6992 1.599609v71.599609c0 3.900001 3.1 7.000001 7 7.000001h12.1016c2.8 0 5.3-1.59883 6.5-4.29883l13.5-31.601561c1.1-2.599998 3.6-4.298828 6.5-4.298828h23.0996c3.9 0 7 3.100004 7 7v26.099609c0 3.9 3.1 7 7 7h17.4004c3.9 0 7-3.1 7-7v-83.099609-7.0000004c0-3.8999961-3.1-6.99999998-7-6.99999998h-42.3008c-2.6-0.09999989-5.0992 1.49961198-6.1992 4.09960938l-29.7012 69.300781c-1.6 3.999996-7.6992 2.798433-7.6992-1.601562v-64.8984378c0-3.899996-3.1-6.99999995-7-6.99999995h-15.0996c-2.8 0-5.3 1.59883085-6.5 4.29882815l-20.5 48.0996096c-1.6 3.699996-7.0012 3.101558-7.7012-0.898438l-7.6992-45.6015622c-0.6-3.3999966-3.5004-5.89843755-6.9004-5.89843755h-32.4004zm156.8008 13.89843775h19c3.9 0 7 3.100004 7 7v22.201172c0 3.899996-3.1 7-7 7h-28.4004c-5 0-8.3-5.100786-6.5-9.800782l9.5-22.199218c1.1-2.499998 3.6004-4.201172 6.4004-4.201172zm815.4004 0h27.1992c3.9 0 7 3.100004 7 7v19.40039c0 3.899996-3.1 7-7 7h-27.1992c-3.9 0-7-3.100004-7-7v-19.298828c0-3.999996 3.1-7.101562 7-7.101562zm94.7988 0h32.3008c3.9 0 7 3.100004 7 7v44.90039c0 3.899996-3.1 7-7 7h-32.3008c-3.9 0-7-3.300003-7-7v-44.90039c0-3.899996 3.1-7 7-7zm-1211.6992 9-115.9004 451.300781-90.0996-324.5h-149.8008l110.0996 367.90039c29.2 97.4999 168.3016 94.79912 193.6016-3.80078l126.0996-490.900391h-74zm-2259.9004 27.90039v528.800781h144.40039v-528.800781h-144.40039zm772.5 0-233.09961 155.156251v-56.25586h-71.5v209l-136.20117-187.80078c-43.19996-59.59994-137.5-28.99837-137.5 44.60156v364h71.70117v-253.30078l172.29883 237.69922c31.79997 43.99995 101.20117 21.40112 101.20117-32.79883v-309.70117h68.69922c11.09999 0 20.09961 9.00157 20.09961 20.10156v245.89844c0 50.89995 41.30161 92.10156 92.10156 92.10156h52.19922 102.19922v-71.70117l-82.09961-0.09961c-11.09999 0-20-9.00001-20-20v-246.19922c0-11.09999 8.99962-20.10156 20.09961-20.10156h82.20117v-71.69922h-102.40039v-98.900391zm2796.209 88.615231c-38.1738 0.88282-75.0098 30.08599-75.0098 76.08594v364h71.7012v-253.30078l172.2988 237.69922c31.8 43.99995 101.2012 21.40112 101.2012-32.79883v-381.40039h-71.5v209l-136.2012-187.80078c-16.2-22.34998-39.5859-32.01406-62.4902-31.48438zm-927.9082 10.18555c-83.5999 0-148.4004 58.0997-148.4004 143.09961 0 87.59991 96.5993 115.4004 147.6992 120.90039 32.1 3.4 63.0996 16.79886 63.0996 48.29883 0 25.29997-21.8 45.90039-45.5 45.90039h-165.2988v70.90039s186.3004 0.90078 188.9004 0.80078c79.9999-3.89999 143.5996-69.20047 143.5996-148.40039 0-13.19999-0.7004-24.69962-2.4004-35.09961-0.4-2.6-1-5-1.5-7.5-14.3-66.29993-66.3009-79.10158-147.3008-100.60156 0 0-0.3984-0.09883-0.8984-0.29883l-18.6016-5c-35.0999-9.39999-28.2984-61.30078 8.1016-61.30078h15.8984 15.9004 85.2012l-0.5-71.69922h-138zm-1656.50002 0.09961c-50.89995 0-92.20117 41.29927-92.20117 92.19922v245.5c0 50.89995 41.30122 92.20117 92.20117 92.20117h52.19922 158.5v-71.70117h-138.4004c-11.1 0-20.0996-8.99962-20.0996-20.09961v-87.29883h131.5v-71.70117h-131.5v-87.19922c0-11.09999 8.9996-20.09961 20.0996-20.09961l138.4004-0.10156v-71.69922h-158.5-52.19922zm232.69922 0v337.59961c0 50.89995 41.2997 92.09961 92.0996 92.09961h52.2012 102.1992v-71.69922h-82.1992c-11.1 0-20-9.00001-20-20v-338h-144.3008zm251.4004 0v337.59961c0 50.89995 41.2997 92.09961 92.0996 92.09961h52.1992 102.2012v-71.69922h-82.2012c-11.1 0-20-9.00001-20-20v-338h-144.2988zm259.6992 0v71.69922h144.4004v-71.69922h-144.4004zm591.5 0v71.69922h144.4004v-71.69922h-144.4004zm530.5 0v71.69922h144.4004v-71.69922h-144.4004zm394.3008 1.59961c-79.9999 0-223.8008 18.09981-223.8008 218.59961s143.8009 218.60156 223.8008 218.60156 223.7988-18.10176 223.7988-218.60156-143.7989-218.59961-223.7988-218.59961zm0 59c38.5 0 65.4004 47.29964 65.4004 81.09961v157c0 33.69997-26.9004 81.10156-65.4004 81.10156s-65.4004-47.3016-65.4004-81.10156v-157c0-33.69997 26.9004-81.09961 65.4004-81.09961zm-1516.3008 47.20117v321.89844h144.4004v-321.89844h-144.4004zm591.5 0v321.89844h144.4004v-321.89844h-144.4004zm530.5 0v321.89844h144.4004v-321.89844h-144.4004z" fill="#0035a0"/>
</svg>
