<svg height="89.334" width="566.93" xmlns="http://www.w3.org/2000/svg"><path d="M422.195 0c-.636 0-.999.541-.999 1.212l-.132 13.085c0 .636.541.966 1.212.966l6.011-.049c.672 0 1.213-.362 1.213-.999v-2.424c0-.637-.54-.982-1.213-.982l-3.88.016c-.672 0-1.23-.33-1.23-.967V1.212c0-.671-.344-1.212-.982-1.212zm29.396 0c-.08 0-.158.017-.229.033-.496.113-.77.591-.77 1.179l-.147 13.085c0 .398.218.665.54.818a1.468 1.468 0 0 0 .442.131c.08.01.162.017.246.017l5.993-.049c.672 0 1.212-.362 1.212-.999v-2.424c0-.636-.54-.982-1.212-.982l-3.882.016c-.67 0-1.212-.33-1.212-.966l-.017-8.647c.001-.671-.328-1.212-.964-1.212zm-94 .017c-.673 0-1.229.378-1.229 1.015l.065 1.965-.065 10.988c0 .672.346 1.212.982 1.212.08 0 .142 0 .213-.016.496-.113.786-.608.786-1.196V5.339c0-.636.541-.999 1.211-.999h.836c.671 0 1.212.363 1.212.999l.818 4.602c0 .672.33 1.212.967 1.212h2.146c.078 0 .157-.002.23-.016.491-.098.77-.527 1.08-1.13 0 0 2.468-5.901 2.57-6.125.222-.483.835-.403.835.065v8.793l.033 1.294c0 .672.328 1.229.965 1.229l2.474.016a.72.72 0 0 0 .394-.082c.323-.168.471-.574.786-1.13l1.852-4.045c.301-.585.704-.987 1.211-.999h3.063c.672 0 1.212.362 1.212.999l.164 4.308c-.009.436.22.678.573.818.118.047.252.089.394.115.565.105 1.291.065 1.884.082.563.015 1.44-.358 1.44-.982L386.725 1c0-.637-.54-.982-1.212-.982h-6.484c-.67 0-1.02.34-1.212.982 0 0-4.266 10.776-4.372 11.021a.266.266 0 0 1-.064.082.674.674 0 0 1-.264.115c-.244.055-.539-.002-.539-.312L372.56 1.36c0-.672-.279-1.294-.917-1.294h-2.293c-.637 0-.87.426-1.326 1.212 0 0-2.704 6.669-2.866 6.977a.556.556 0 0 1-.18.196.465.465 0 0 1-.213.098c-.154.022-.303-.047-.346-.262-.08-.429-1.324-7.254-1.324-7.254 0-.636-.54-1.015-1.212-1.015zm118.383 0c-.672 0-1.229.345-1.229.982l-.064 13.232c0 .238.081.432.212.59.132.157.307.277.524.343a1.767 1.767 0 0 0 .474.066l2.063.016v.017h5.044a1.782 1.782 0 0 0 .475-.066c.437-.124.737-.423.737-.9 0-.636-.54-1.016-1.213-1.016h-5.044v.033c-.646-.017-1.16-.395-1.16-1.015l.081-6.977c0-.636.54-.966 1.212-.966h4.978c.672 0 1.23-.33 1.23-.966V1.064c0-.637-.559-.999-1.23-.999zm21.633 0c-.084 0-.166.006-.245.017-.555.072-.98.408-.98.966-.003.332.002.651 0 .982-.025 3.76-.105 7.54-.05 11.299.003.231-.037.477-.05.721a1.6 1.6 0 0 0 .017.361.93.93 0 0 0 .114.327c.158.269.388.44.64.541.251.1.536.123.818.115.442-.012.862.034 1.261.016a3.08 3.08 0 0 0 .393-.049c.495-.088.906-.331 1.181-.982l.163-4.308c0-.636.54-.999 1.212-.999h3.274c.672 0 1.212.362 1.212.999l.05 4.045c0 .672.328 1.212.966 1.212.08 0 .158 0 .23-.016.495-.113.784-.608.784-1.196V8.517c0-.955-.837-1.264-1.457-1.573a2.199 2.199 0 0 1-.476-.294.502.502 0 0 1-.18-.393c0-.842-.017-5.257-.017-5.257 0-.637-.542-.982-1.212-.982zm14.527 0c-.084 0-.167.006-.246.017-.554.072-.982.408-.982.966l-.064 13.232c0 .318.141.565.36.736.056.043.114.082.18.115.193.099.421.148.672.148h8.435c.67 0 1.211-.363 1.211-.999L521.636 1c0-.637-.54-.982-1.212-.982zm13.117 0c-.084 0-.167.005-.245.017a1.362 1.362 0 0 0-.428.13.95.95 0 0 0-.539.868l.064 1.965-.064 10.988c0 .588.263 1.083.754 1.196a.904.904 0 0 0 .213.016c.08 0 .158 0 .23-.016.495-.113.785-.608.785-1.196V5.339c0-.636.542-.999 1.212-.999h4.438c.671 0 1.212.363 1.212.999l.05 8.614c0 .672.33 1.212.965 1.212.08 0 .158 0 .23-.016.495-.113.785-.608.785-1.196l-.018-9.58.018-3.341c0-.637-.559-1.015-1.229-1.015zm20.831 0c-.505 0-.946.193-1.13.557a.92.92 0 0 0-.083.426l-.08 13.232c0 .238.08.432.212.59.218.262.58.409 1 .409l7.104.033c.671 0 1.212-.329 1.212-.966 0-.636-.54-1.015-1.212-1.015l-4.978.033c-.67 0-1.229-.38-1.229-1.016l.082-6.977c0-.636.54-.966 1.212-.966h4.98c.671 0 1.228-.33 1.228-.966V1.065c0-.637-.557-.999-1.229-.999zm-5.96.017c-.398 0-.683.2-.835.524a1.52 1.52 0 0 0-.149.687l.064 8.729c0 .478-.25.793-.654.918-.068.02-.139.038-.214.049s-.16 0-.245 0h-.459c-.67 0-1.326.329-1.326.966v2.325c0 .319.163.565.41.737.061.042.125.082.195.114.213.099.47.148.721.148h3.996c.671 0 1.212-.363 1.212-.999v-2.325c0-.1-.004-.184-.018-.263-.088-.551-.473-.62-.852-.687a1.697 1.697 0 0 1-.458-.131c-.232-.116-.395-.336-.395-.852V1.245c.004-.671-.357-1.211-.994-1.211zm-150.45.032c-.672 0-1.229.361-1.229.999v2.326c0 .636.558.966 1.23.966h1.52c.671 0 1.212.33 1.212.966l-.064 8.729c0 .671.346 1.212.982 1.212.08 0 .143 0 .212-.017.497-.113.786-.607.786-1.195V5.323c0-.557.412-.877.967-.949a1.8 1.8 0 0 1 .245-.017h4.193c.67 0 1.211.33 1.211.966v8.729c0 .671.362 1.212 1 1.212.08 0 .158 0 .228-.017.49-.113.735-.607.735-1.195l-.064-8.729c0-.557.43-.877.981-.949.08-.011.162-.017.246-.017h1.522c.672 0 1.212-.33 1.212-.966V1.065c0-.637-.539-.999-1.212-.999zm96.767 0c-.168 0-.329.021-.475.064a1.324 1.324 0 0 0-.213.082c-.323.163-.54.454-.54.852V3.39c0 .636.557.966 1.228.966h1.523c.671 0 1.212.33 1.212.966l-.065 8.729c0 .335.082.648.246.868.04.055.097.104.146.146a.817.817 0 0 0 .588.197c.08 0 .142 0 .213-.017.496-.113.785-.607.785-1.195V5.321c0-.557.414-.877.967-.949a1.8 1.8 0 0 1 .245-.017h1.523c.67 0 1.211-.33 1.211-.966V1.063c0-.637-.54-.999-1.21-.999h-7.386v.002zm78.426 0-7.188.049c-.084 0-.167.005-.245.015-.555.08-.967.427-.967.983l.082 6.681c0 .637.541.982 1.212.982l3.521.065c.671 0 1.212.379 1.212 1.015l-.082 2.44a.923.923 0 0 1-.099.426c-.122.242-.348.409-.639.491-.072.021-.15.022-.229.033s-.162.016-.246.016l-5.01.017c-.086 0-.168.007-.247.016-.554.074-.966.409-.966.967a.89.89 0 0 0 .344.736c.221.172.532.263.868.263h9.448c.335 0 .633-.083.853-.246s.36-.401.36-.72l.082-6.567c0-.636-.558-.966-1.229-.966h-5.829c-.673 0-1.213-.33-1.213-.967l-.082-2.768c0-.636.558-.999 1.23-.999l5.06.017c.673 0 1.213-.363 1.213-.999-.002-.634-.542-.981-1.214-.98zM411.338.18c-.67 0-1.212.33-1.212.967V5.75c0 .67-.329 1.212-.967 1.212l-1.31.033c-.67 0-1.213.33-1.213.966l-.082 6.271c0 .479.318.8.754.933.072.022.134.038.213.049s.162.017.245.017l9.843.033c.671 0 1.212-.33 1.212-.966s-.54-1.015-1.212-1.015l-7.713.033c-.672 0-1.212-.38-1.212-1.016l.063-2.342c0-.636.541-.966 1.213-.966l7.647.016c.084 0 .167-.006.245-.016.08-.011.141-.029.213-.049.438-.124.754-.439.754-.917 0-.557-.413-.904-.967-.982a1.625 1.625 0 0 0-.245-.017l-1.703-.017c-.084 0-.167-.005-.246-.016-.315-.045-.577-.167-.753-.377a.94.94 0 0 1-.213-.606l.065-2.866c0-.636.557-.982 1.23-.982h1.62c.671 0 1.212-.346 1.212-.982 0-.637-.54-.999-1.212-.999zm29.38 0c-.42 0-.78.124-1 .377a.922.922 0 0 0-.114.179.865.865 0 0 0-.098.41v4.602c0 .67-.329 1.212-.966 1.212l-1.312.033c-.67 0-1.212.33-1.212.966l-.082 6.271a.9.9 0 0 0 .213.59c.131.157.322.277.54.343a1.789 1.789 0 0 0 .474.066l9.825.033c.672 0 1.212-.33 1.212-.966s-.54-1.015-1.212-1.015l-7.713.033c-.67 0-1.212-.38-1.212-1.016l.065-2.342c0-.636.558-.966 1.23-.966l7.63.016c.084 0 .166-.006.245-.016.08-.011.156-.029.23-.049.436-.124.735-.439.735-.917 0-.557-.41-.904-.967-.982a1.638 1.638 0 0 0-.246-.017l-1.702-.017c-.084 0-.166-.005-.246-.016-.315-.045-.577-.167-.753-.377a.934.934 0 0 1-.213-.606l.082-2.866c0-.636.541-.982 1.211-.982h1.622c.672 0 1.212-.346 1.212-.982 0-.637-.54-.999-1.212-.999zm24.383 0c-.42 0-.797.124-1.016.377a.922.922 0 0 0-.114.179.854.854 0 0 0-.099.41l.017 4.602c0 .67-.347 1.212-.982 1.212l-1.294.033c-.672 0-1.212.33-1.212.966l-.082 6.271c0 .238.082.432.214.59.132.157.306.277.523.343a1.742 1.742 0 0 0 .473.066l9.826.033c.671 0 1.23-.33 1.23-.966s-.56-1.015-1.23-1.015l-7.696.033c-.672 0-1.229-.38-1.229-1.016l.082-2.342c0-.636.54-.966 1.211-.966l7.632.016c.084 0 .166-.006.246-.016.078-.011.156-.029.23-.049.436-.124.753-.439.753-.917 0-.557-.43-.904-.982-.982a1.657 1.657 0 0 0-.246-.017l-1.688-.017a1.79 1.79 0 0 1-.245-.016c-.316-.045-.595-.167-.77-.377a.928.928 0 0 1-.196-.606l.064-2.866c0-.636.54-.982 1.212-.982h1.621c.671 0 1.23-.346 1.23-.982 0-.637-.56-.999-1.23-.999zM380.65 2.195h2.702c.67 0 1.212.33 1.212.966l.082 2.849c0 .637-.542.999-1.212.999h-4.013c-1.378-.019-1.197-.984-1.113-1.31l1.13-2.539c.326-.554.54-.965 1.212-.965zm119.104 0h3.342c.671 0 1.212.33 1.212.966l.082 2.849c0 .637-.559.999-1.229.999h-3.472c-.672 0-1.212-.362-1.212-.999l.065-2.849c.001-.636.542-.966 1.212-.966zm14.314 0h4.404c.671 0 1.212.33 1.212.966l.064 6.993c0 .636-.54.999-1.212.999h-4.534c-.672 0-1.213-.362-1.213-.999l.065-6.993c.002-.636.543-.966 1.214-.966zM333.96 5.825s-15.497 59.53-15.91 60.881c-.543 1.758-2.218 2.334-3.095.304-1.082-2.165-12.817-42.374-12.817-42.374h-21.38s15.962 52.369 16.685 53.919c7.577 16.235 24.275 9.751 27.705-2.153 3.528-12.255 18.618-70.577 18.618-70.577zm-220.762 4.447L80.023 31.431v-6.685H69.471v29.199c0 .729-1.37 2.065-2.597.275 0 0-14.05-20.15-19.144-26.242-4.228-5.062-18.975-4.803-19.03 7.182-.039 7.607.025 52.152.025 52.152h10.553v-36.82c0-2.039 1.806-1.322 2.928-.057.521.587 23.124 35.004 24.142 36.381 2.306 3.108 13.701 5.406 13.701-6.354 0-8.427-.02-33.382-.028-46.849h10.304c1.081 0 2.457 1.213 2.458 1.215-.01 1.021-.166 33.137-.166 37.375 0 9.529 7.895 15.966 16.436 15.966h19.032v-9.255h-8.756c-3.138 0-5.607-2.305-5.607-5.44V37.37c0-1.942 1.56-4.696 4.668-4.696 3.111 0 9.75-.083 9.75-.083v-7.956h-13.093c-1.218 0-1.85-.958-1.85-1.851zM.166 10.631S0 83.931 0 88.306l20.468-.027V10.633zM478.84 23.89c-9.84 0-18.67 4.102-24.807 10.635-.359.385-.708.786-1.05 1.188-4.783 5.61-7.679 12.791-7.679 20.635 0 4.481.954 8.769 2.651 12.65.213.485.43.964.662 1.437 4.005 8.041 11.321 14.246 20.247 16.934.526.158 1.067.281 1.604.414a34.522 34.522 0 0 0 8.37 1.021c18.524 0 33.562-14.529 33.562-32.456.001-17.929-15.035-32.458-33.56-32.458zm-89.525.469c-12.308 0-21.85 8.804-21.85 21.325 0 12.896 14.227 16.998 21.74 17.789 4.724.497 9.28 3.765 9.28 8.397 0 3.727-3.22 6.74-6.687 6.74l-21.96-.084v9.254h24.31c.383 0 .751-.008 1.131-.027 11.774-.579 21.132-10.041 21.132-21.711 0-1.926-.107-3.633-.358-5.166-.063-.383-.145-.743-.22-1.104-2.105-9.761-9.757-11.649-21.686-14.806 0 0-6.326-1.967-6.326-5.773 0-2.379 1.377-4.012 3.261-4.889.188-.088.382-.175.58-.249.985-.364 2.064-.524 3.148-.524l14.888.055v-9.227zm-133.805.083s-.166 6.508-.166 10.883l20.47-.056V24.441H255.51zm86.93 0s-.14 6.508-.14 10.883l20.441-.056V24.441H342.44zm78.281 0s-.138 6.508-.138 10.883l20.44-.056V24.441H420.72zm-274.596.056c-5.87 0-10.142 3.04-12.237 8.039-.189.455-.343.923-.497 1.41-.617 1.942-.938 4.135-.938 6.519v31.187c0 9.528 5.134 16.324 13.673 16.324h30.661V78.75h-18.259c-3.137 0-5.578-2.657-5.552-5.801V60.74h20.966v-9.227l-20.993-.057-.056-12.265c0-3.137 2.498-5.44 5.635-5.44h18.26v-9.254zm34.97.11s-.166 43.219-.166 47.594c0 1.785.276 3.451.746 4.998.156.517.321 1.033.524 1.521 2.234 5.345 7.184 8.819 12.928 9.364a17.3 17.3 0 0 0 1.602.083h19.032v-9.254h-8.396c-3.137 0-5.607-2.306-5.607-5.441V24.608zm36.241 0s-.138 43.219-.138 47.594c0 8.934 6.365 15.141 14.197 15.883.522.049 1.041.083 1.575.083h19.031v-9.255h-8.729c-3.137 0-5.635-2.305-5.635-5.44V24.608zm339.013.138v29.199c0 .729-1.369 2.064-2.597.275 0 0-14.023-20.15-19.114-26.242-4.23-5.062-19-4.803-19.06 7.182-.036 7.607.026 52.152.026 52.152h10.552v-36.82c0-2.039 1.805-1.322 2.93-.057.52.587 23.15 35.004 24.17 36.381.431.581 1.163 1.135 2.1 1.573.312.146.645.297.993.414 4.171 1.403 10.58.479 10.58-8.342 0-11.761-.028-55.715-.028-55.715zm-77.509 6.712c8.13 0 11.381 11.144 11.381 24.889 0 13.743-3.822 24.871-11.38 24.889-2.067.004-3.796-.676-5.249-1.935a8.755 8.755 0 0 1-.524-.497 11.407 11.407 0 0 1-1.437-1.796c-.146-.224-.306-.452-.442-.69-2.616-4.539-3.7-11.812-3.7-19.971 0-.859.012-1.705.026-2.542.143-7.528.986-14.067 3.563-18.093.145-.225.288-.428.442-.635 1.695-2.286 4.048-3.619 7.32-3.619zm-223.33 7.846s-.166 44.627-.166 49.002l20.47-.027V39.304zm86.93 0s-.14 44.627-.14 49.002l20.441-.027V39.304zm78.281 0s-.138 44.627-.138 49.002l20.44-.027V39.304z" fill="#fff"/></svg>