<?xml version="1.0" encoding="utf-8"?>
<!-- Generator: Adobe Illustrator 26.0.3, SVG Export Plug-In . SVG Version: 6.00 Build 0)  -->
<svg version="1.1" id="Layer_1" xmlns="http://www.w3.org/2000/svg" xmlns:xlink="http://www.w3.org/1999/xlink" x="0px" y="0px"
	 viewBox="0 0 3839 1374.6" style="enable-background:new 0 0 3839 1374.6;" xml:space="preserve">
<style type="text/css">
	.st0{fill:#FFFFFF;}
	.st1{fill:#FFFFFA;}
	.st2{fill:#FF0000;}
</style>
<g>
	<rect x="0" width="3839" height="1374.6"/>
	<g>
		<polygon class="st0" points="1567.8,326.3 1406.7,326.3 1406.7,167.8 1588.4,167.8 		"/>
		<rect x="924" y="625.3" class="st0" width="321.2" height="158.6"/>
		<rect x="1106" y="396.5" class="st0" width="139.2" height="158.6"/>
		<path class="st0" d="M1106,555.1c-258.2,0-258.2-387.4,0-387.4c0,52.9,0,105.7,0,158.6c-46.8,0-46.8,70.3,0,70.3
			C1106,449.4,1106,502.3,1106,555.1z"/>
		<path class="st0" d="M1245.3,396.5c258.2,0,258.2,387.4,0,387.4c0-52.9,0-105.7,0-158.6c46.8,0,46.8-70.3,0-70.3
			C1245.3,502.3,1245.3,449.4,1245.3,396.5z"/>
		<polygon class="st0" points="2026.1,783.9 1588.4,167.8 1450.3,247.1 1831.5,783.9 		"/>
		<polygon class="st0" points="1380.3,783.9 1818,167.8 2012.6,167.8 1574.9,783.9 		"/>
		<rect x="1106" y="167.8" class="st0" width="328.6" height="158.6"/>
		<polygon class="st0" points="369.6,783.9 445.3,506.4 521,783.9 664,783.9 739.7,506.4 815.4,783.9 979.7,783.9 811.7,167.8 
			667.7,167.8 592.4,443.6 517.3,167.8 373.3,167.8 205.2,783.9 		"/>
	</g>
	<g>
		<path class="st0" d="M415.4,1131.9V876.5H287.6v276c0,30,24.3,54.4,54.4,54.4h58.6h14.8h118.5v-54.3H436
			C424.6,1152.5,415.4,1143.3,415.4,1131.9z"/>
		<rect x="205.2" y="960" class="st0" width="328.6" height="54.3"/>
		<path class="st0" d="M797,960v192.5h-71.9V960H597.3v192.5c0,30,24.3,54.4,54.4,54.4h18.1h55.3H797h100.2h27.6V960H797z"/>
		<path class="st0" d="M1251.2,960h-115.9h-45.8c-45.3,0-82,36.7-82,82v164.9h127.8v-192.5h115.9V960z"/>
		<path class="st0" d="M1429.6,960v-83.6h-127.8v330.4h245.4c45.3,0,82-45.3,82-112.9v-21.1c0-67.6-36.7-112.9-82-112.9L1429.6,960
			L1429.6,960z M1429.6,1152.5v-138.2h71.9v138.2H1429.6z"/>
		<path class="st0" d="M1944,960h-29.8h-87.9h-45.8c-45.3,0-82,45.3-82,112.9v21.1c0,67.6,36.7,112.9,82,112.9h16.1h117.5h29.8
			c45.3,0,82-45.3,82-112.9v-21.1C2026.1,1005.3,1989.4,960,1944,960z M1898.3,1152.5h-71.9v-138.2h71.9V1152.5z"/>
	</g>
	<rect x="2369" y="56.9" class="st0" width="1413.1" height="1260.8"/>
	<g>
		<rect x="2669.1" y="167.8" width="227.5" height="1039.1"/>
		<rect x="2761.1" y="167.8" width="436" height="227.5"/>
		<rect x="3197.1" y="349.8" width="227.5" height="219.1"/>
		<rect x="3254.5" y="796.6" width="227.5" height="410.3"/>
		<rect x="2778" y="569.1" width="419" height="227.5"/>
		<polygon points="3424.7,349.9 3197.1,167.8 3122,167.8 3166,371.9 3402.3,369.2 		"/>
		<polygon points="3197.1,569.1 3482,796.6 3111.8,796.6 		"/>
	</g>
</g>
</svg>
