<?xml version="1.0" encoding="utf-8"?>
<!-- Generator: Adobe Illustrator 26.0.3, SVG Export Plug-In . SVG Version: 6.00 Build 0)  -->
<svg version="1.1" id="Layer_1" xmlns="http://www.w3.org/2000/svg" xmlns:xlink="http://www.w3.org/1999/xlink" x="0px" y="0px"
	 viewBox="0 0 3839 1374.6" style="enable-background:new 0 0 3839 1374.6;" xml:space="preserve">
<style type="text/css">
	.st0{fill:#FFFFFF;}
</style>
<g>
	<g>
		<rect x="1826.4" y="1014.3" width="71.9" height="138.2"/>
		<rect x="1429.6" y="1014.3" width="71.9" height="138.2"/>
		<path d="M0,0v1374.6h3839V0H0z M533.9,1014.3H415.4v117.6c0,11.4,9.2,20.6,20.6,20.7h97.9v54.3H415.4h-14.8H342
			c-30.1,0-54.4-24.4-54.4-54.4v-138.2h-82.4V960h82.4v-83.6h127.8V960h118.5V1014.3z M924.8,1207h-27.6H797h-71.9h-55.3h-18.1
			c-30.1,0-54.4-24.4-54.4-54.4V960h127.8v192.6H797V960h127.8V1207z M1251.2,1014.3h-115.9v192.5h-127.8V1042c0-45.3,36.7-82,82-82
			h45.8h115.9V1014.3z M1629.3,1094c0,67.6-36.7,112.9-82,112.9h-245.4V876.5h127.8V960h117.7c45.3,0,82,45.3,82,112.9V1094z
			 M2025.9,1094c0,67.6-36.7,112.9-82,112.9h-29.8h-117.5h-16.1c-45.3,0-82-45.3-82-112.9v-21.1c0-67.6,36.7-112.9,82-112.9h45.8
			h87.9h29.8c45.4,0,82.1,45.3,81.9,112.9V1094z M1831.5,783.9l-128.3-180.7l-128.3,180.7h-194.5L1606,466.3l-99.4-140h-71.9h-27.9
			H1106v-0.1c-46.8,0-46.8,70.3,0,70.3h139.2c0,0,0.1,11.2,0.1,0c258.2,0,258.2,387.4,0,387.4c0-21-0.1,0-0.1,0H979.7H924H815.4
			l-75.7-277.5L664,783.9H521l-75.7-277.5l-75.7,277.5H205.2l168.1-616.1h144l75.2,275.8l75.3-275.8h144l124.8,457.6h308.7
			c0,0,0.1,15.2,0.1,0c46.8,0,46.8-70.3,0-70.3c0-19.9-0.1,0-0.1,0H1106c-258.2,0-258.2-387.4,0-387.4c0,0,0,0.1,0,0.1h300.7h27.9
			h153.8l114.8,161.6L1818,167.8h194.5l-212.1,298.6l225.6,317.6H1831.5z M3782.1,1317.7H2369V56.9h1413.1V1317.7z"/>
	</g>
	<polygon points="2896.6,796.6 3197,796.6 3197,796.6 3254.5,796.6 3254.5,1206.9 3482,1206.9 3482,796.6 3482,796.6 3197.1,569.1 
		3197,569.1 3197,569.1 2896.6,569.1 2896.6,395.3 3197.1,395.3 3197.1,371.5 3197.1,371.5 3197.1,569 3424.7,569 3424.7,349.9 
		3424.7,349.9 3424.7,349.9 3424.7,349.8 3424.6,349.8 3197.1,167.8 3197.1,167.8 3197.1,167.8 3197.1,167.8 3122,167.8 3122,167.8 
		2896.6,167.8 2896.6,167.8 2669.1,167.8 2669.1,1206.9 2896.6,1206.9 	"/>
</g>
</svg>
