<svg enable-background="new 0 0 3839 1374.6" version="1.1" viewBox="0 0 3839 1374.6" xml:space="preserve" xmlns="http://www.w3.org/2000/svg">
<path d="m0 0v1374.5996h3839v-1374.5996h-3839zm2369 56.900391h1413.0996v1260.798809h-1413.0996v-1260.798809zm-1263 110.798829v0.10156h300.6992 27.9004 153.8008l114.7988 161.59961 114.8008-161.59961h194.5l-212.0996 298.59961 225.5996 317.59961h-194.5v-0.09961l-128.3008-180.70117-128.2988 180.70117h-194.5l225.5996-317.59961-99.4004-140h-71.9004-27.8984-300.8008v-0.10156c-46.8 0-46.8 70.30078 0 70.30078h139.1992s0.1016 11.19999 0.1016 0c258.1997 0 258.1997 387.40039 0 387.40039 0-20.99998-0.1016 0-0.1016 0h-265.49998-55.69922-108.59961l-75.70117-277.5-75.69922 277.5h-143l-75.69922-277.5-75.70117 277.5h-164.40039l168.10156-616.09961h144l75.19922 275.79883 75.30078-275.79883h144l124.79883 457.59961h308.70119s0.0996 15.19999 0.0996 0c46.7999 0 46.7999-70.30078 0-70.30078 0-19.89998-0.0996 0-0.0996 0h-139.3008c-258.19974 0-258.19974-387.40039 0-387.40039zm1563.0996 0.10156v1039.09962h227.5v-410.30079h300.4004 57.5v410.30079h227.5v-410.30079l-284.9004-227.5h-0.0996-300.4004v-173.79883h300.5v173.69922h227.5996v-219.09961-0.09961h-0.0996l-227.5-182h-75.0996-225.4004-227.5zm-2381.49999 708.59961h127.80078v83.59961h118.5v54.3008h-118.5v117.5996c0 11.4 9.19962 20.5992 20.59961 20.6992h97.90039v54.3008h-118.5-14.80078-58.59961c-30.09997 0-54.40039-24.4004-54.40039-54.4004v-138.1992h-82.40039v-54.3008h82.40039v-83.59961zm1014.30079 0.09961h127.7988v83.5h117.7012c45.2999 0 82 45.3005 82 112.9004v21.0996h-0.0996c0 67.5999-36.7001 112.9004-82 112.9004h-245.4004v-330.4004zm-704.59962 83.5h127.79883v192.5996h71.90039v-192.5996h127.80078v247h-27.60156-100.19922-71.90039-55.29883-18.10156c-30.09997 0-54.39844-24.4004-54.39844-54.4004v-192.5996zm492.19922 0h45.8008 115.8984v54.3008h-115.8984v192.5h-127.8008v-164.8008c0-45.29995 36.7-82 82-82zm691 0h45.8008 87.8984 29.8008c45.4 0 82.1004 45.3005 81.9004 112.9004v21.0996c0 67.5999-36.7001 112.9004-82 112.9004h-29.8008-117.5-16.0996c-45.3 0-82-45.3005-82-112.9004v-21.0996c0-67.5999 36.7-112.9004 82-112.9004zm-350.9004 54.3008v138.1992h71.9004v-138.1992h-71.9004zm396.8008 0v138.1992h71.9004v-138.1992h-71.9004z"/>
</svg>
