<svg enable-background="new 0 0 3839 1374.6" version="1.1" viewBox="0 0 3839 1374.6" xml:space="preserve" xmlns="http://www.w3.org/2000/svg">
<path d="m0 0h3839v1374.6h-3839z"/><path d="m2369 56.900391v1260.798809h1413.0996v-1260.798809h-1413.0996zm-1263 110.798829c-258.19948 0-258.19948 387.40039 0 387.40039h139.1992v-158.59961h-139.1992v0.09961c-46.8 0-46.8-70.29883 0-70.29883v0.09961h328.5996v-0.09961h71.9453l99.4043 139.98047-225.6484 317.61914h194.5996l128.3281-180.63281 128.2715 180.63281h194.5996l-225.5996-317.55078 212.0996-298.54883h-194.5996l-114.8008 161.58984-114.7988-161.58984h-153.8008-328.5996v-0.10156zm-732.69922 0.10156-168.10156 616.09961h164.40039l75.70117-277.5 75.69922 277.5h143l75.69922-277.5 75.70117 277.5h164.29883 265.49998v-158.59961h-308.74803l-124.75195-457.5h-144l-75.29883 275.79883-75.09961-275.79883h-144zm2295.79882 0h227.5 300.5l227.4746 182h0.0254v0.01953l0.0996 0.08008-0.0996 0.08594v218.91406h-227.5v-173.59961h-300.5v173.79883h300.4004v0.26562l0.0996-0.26562 284.9004 227.5v410.30079h-227.5v-410.30079h-57.5-85.1992-215.2012v410.30079h-227.5v-1039.09962zm-1423.7988 228.69922v158.5c46.7998 0 46.7998 70.30078 0 70.30078v158.59961c258.1994 0 258.1994-387.40039 0-387.40039zm56.5 479.90039v330.40041h245.3984c45.3 0 82-45.3006 82-112.9004v-21.0996c0-67.6-36.7-112.90041-82-112.90041l-117.5996 0.09961v-83.59961h-127.7988zm-1014.20119 0.09961v83.5h-82.40039v54.3008h82.40039v138.1992c0 30 24.30045 54.4004 54.40039 54.4004h58.59961 14.80078 118.5v-54.3008h-97.90039c-11.39998-0.1-20.59961-9.2992-20.59961-20.6992v-117.5996h118.40039v-54.3008h-118.40039v-83.5h-127.80078zm309.70117 83.5v192.5c0 30 24.2985 54.4004 54.39844 54.4004h18.10156 55.29883 71.90039 100.19922 27.60156v-246.9004h-127.80078v192.5h-71.90039v-192.5h-127.79883zm492.19922 0c-45.3 0-82 36.7001-82 82v164.9004h127.8008v-192.5h115.8984v-54.4004h-115.8984-45.8008zm691 0c-45.3 0-82 45.3006-82 112.9004v21.0996c0 67.5998 36.7 112.9004 82 112.9004h16.0996 117.5 29.8008c45.2998 0 82-45.3006 82-112.9004v-21.0996c0.2-67.5998-36.5004-112.9004-81.9004-112.9004h-29.8008-87.8984-45.8008zm-350.9004 54.3008h71.9004v138.1992h-71.9004v-138.1992zm396.8008 0h71.9004v138.1992h-71.9004v-138.1992z" fill="#fff"/>
</svg>
