<svg version="1.0" viewBox="0 0 990 445" xmlns="http://www.w3.org/2000/svg"><path d="M167 430.01c-18.173-4.99-35.889-21.828-43.638-41.478-5.195-13.172-23.966-79.255-89.761-316l-9.866-35.5 44.518-.26c24.485-.144 44.831.081 45.214.5.383.418 17.05 64.935 37.038 143.37l36.342 142.61 17.274-66.11c41.021-156.99 47.988-182.31 53.165-193.18 6.976-14.653 19.169-25.124 33.647-28.895 7.628-1.987 25.207-2.009 32.765-.04 15.955 4.156 28.425 15.66 35.291 32.555 4.187 10.303 13.196 43.473 46.844 172.45 11.335 43.45 20.935 79.786 21.334 80.746.451 1.087 14.501-52.221 37.225-141.24l36.5-142.99 45.219-.006c35.741-.005 45.128.256 44.786 1.244-.238.687-9.867 35.225-21.397 76.75-55.103 198.44-74.286 265.08-79.688 276.84-9.176 19.969-24.597 33.845-42.914 38.616-7.652 1.993-24.288 2.011-31.874.035-10.565-2.752-16.608-6.389-25.672-15.452-7.08-7.078-9.339-10.166-13.206-18.04-6.322-12.874-12.416-33.87-51.226-176.5-9.13-33.55-16.85-61.675-17.158-62.5-.308-.825-9.728 31.98-20.933 72.9-24.628 89.937-37.601 136.4-41.633 149.1-8.714 27.454-24.558 45.03-45.447 50.416-7.533 1.942-25.774 1.977-32.748.062zm468.39-137.98v-136.5h85v273h-85v-136.5zm171 0v-136.5h85v273h-85v-136.5zm117 123v-13.5h-5c-4.667 0-5-.167-5-2.5v-2.5h26v2.5c0 2.333-.333 2.5-5 2.5h-5v27h-6v-13.5zm18-2.5v-16h8.914l3.043 9.86c1.674 5.424 3.043 10.465 3.043 11.2 0 3.123 1.954-1.178 4.911-10.81l3.147-10.25h8.942v32h-6l-.079-11.25c-.085-12.162-.036-12.191-4.444 2.557-2.631 8.8-2.636 8.808-5.775 8.5-3.079-.301-3.201-.515-6.171-10.808l-3.03-10.5-.569 21.5h-5.932v-16zm-275.5-304.1c-19.261-3.903-35.21-20.392-38.481-39.785-3.985-23.626 11.769-47.393 35.516-53.578 12.119-3.157 27.642-1.517 38.702 4.087 6.624 3.357 16.688 12.99 20.078 19.217 11.64 21.387 4.745 49.29-15.371 62.2-11.153 7.156-27.875 10.406-40.444 7.86zm171 0c-24.943-5.054-42.598-29.911-38.57-54.303 3.09-18.711 17.291-34.29 35.605-39.06 12.108-3.154 27.643-1.517 38.678 4.075 6.648 3.369 16.028 12.322 19.779 18.878 12.048 21.058 5.19 49.562-15.048 62.549-11.153 7.157-27.875 10.407-40.444 7.86z" fill="#fff"/></svg>