<svg enable-background="new 0 0 3839 1836.3" version="1.1" viewBox="0 0 3839 1836.3" xml:space="preserve" xmlns="http://www.w3.org/2000/svg">
<path fill="#A19FA3" d="m2865.9004 0c-119.4999 0-216.5996 93.699725-216.5996 209.09961 0 115.29988 97.1001 208.80078 216.5 208.80078 124.1999 0 221.6992-91.6009 221.6992-208.80078 0-117.299883-97.4997-209.09961-221.5996-209.09961zm751.5 0c-119.3999 0-216.5996 93.699725-216.5996 209.09961 0 115.29988 97.1997 208.80078 216.5996 208.80078 124.1999 0 221.5996-91.6009 221.5996-208.80078 0-117.299883-97.2997-209.09961-221.5996-209.09961zm-2373.3008 87.300781c-117.6999 0-200.7992 59.398569-241.1992 194.898439-40.09997 135.29986-288.09962 1089.20118-288.09962 1089.20118l-324.20117-1270.80079h-390.59961s375.09966 1355.90059 426.09961 1512.90039c39.69996 122.5999 133.60053 222.8008 272.90039 222.8008 159.29984 0 233.69925-116.1009 268.19922-222.8008 34.09998-105.9999 276.90038-1001.59961 276.90038-1001.59961s242.9004 895.59971 276.9004 1001.59961c34.5 106.6999 108.8998 222.8008 268.0996 222.8008 139.3999 0 233.1997-100.2009 273.0996-222.8008 50.9-156.9998 425.7012-1512.90039 425.7012-1512.90039h-390.4004l-324.1992 1270.80079s-247.8012-953.90132-288.2012-1089.20118c-40.3-135.49987-123.3001-194.898439-241-194.898439zm1441.2012 539.898439v1195.99998h369.5996v-1195.99998h-369.5996zm751.2988 0v1195.99998h369.8008v-1195.99998h-369.8008z"/>
</svg>
