<svg enable-background="new 0 0 3839 671.9" version="1.1" viewBox="0 0 3839 671.9" xml:space="preserve" xmlns="http://www.w3.org/2000/svg">
<path fill="#C2AC6D" d="m2332 0c-164.5998 0-304.9004 152.49979-304.9004 334.59961 0 209.79979 158.4002 332.70117 328.5 332.70117 80.5999 0 166.1009-18.60042 233.8008-52.90039v-173.20117c0-40.59996 28.3-52.89844 66.5-52.89844v-31h-293.3008v31h24.2012c39.2999 0 50.5 18.99847 50.5 52.89844v151.60156c-9 10.99999-39.7001 24.79883-83 24.79883-8.8 0-59.0001-0.99886-96.5-31.79883-39.2-32.19997-65.6016-97.40054-65.6016-252.40039 0-201.7998 71.0005-287.300781 173.9004-287.300781 33.5 0 147.0008 22.599756 195.3008 168.599611h30.2988v-210.5996106h-28.5996c-3.6 28.2999716-25.9989 44.0003726-68.2988 26.4003906-63.9-26.4999735-121.0008-30.5-162.8008-30.5zm-798.5 9.3007812c-184.5998 0-326.6992 135.8990188-326.6992 331.2988288 0 195.3998 142.1994 331.30078 326.6992 331.30078 184.5998 0 326.8008-135.90098 326.8008-331.30078 0-195.39981-142.201-331.2988287-326.8008-331.2988288zm1978.6992 0c-184.5998 0-326.6992 135.8990188-326.6992 331.2988288 0 195.3998 142.1994 331.30078 326.6992 331.30078 184.5998 0 326.8008-135.90098 326.8008-331.30078 0-195.39981-142.201-331.2988288-326.8008-331.2988288zm-3512.1992 6.6992188v25.599609c45.299955 0 81.099609 40.900827 81.099609 86.300781v443.40039c0 45.29996-47.799642 60.39844-81.099609 60.39844v25.60156h220.40039v-25.60156c-41.29996-0.2-63.10119-5.89923-77.20117-19.19922-14.09999-13.39999-17.89844-31.10041-17.89844-55.40039v-415.59961l430.5 524.90039h23.5v-558.40039c0-33.099967 25.90004-61.199611 64-62.599609v-29.400391h-195v25.599609h25.39844c34.09996 0 61.70117 31.801206 61.70117 65.701171v316.39844l-332.5-407.69922h-202.90039zm662.19922 0v25.5h36.10156c27.59997 0 50 26.099637 50 53.599609v472.099611c0 49.69995-32.6012 61-60.20117 61h-25.90039v29.20117h86.10156 433.00002l29.1992-198h-25.3008c-15.9 87.89991-91.6993 156.49883-176.6992 154.29883h-73.40039c-22.99998 0-41.69922-18.69924-41.69922-41.69922v-224.80078h20.09961c59.99994 0 98.3008 50.20165 98.3008 136.60156h26.2988v-153.10156-7.79883-150.20117h-26.2988c0 75.99992-32.10048 130.90039-98.40041 130.90039h-20.09961v-249.09961h105.5c141.99982 0 146.79882 126.5008 146.79882 142.80078h28.3008v-137.400389-43.900391h-511.70118zm1978.70118 0v25.5h36.0996c27.6 0 50 26.099637 50 53.599609v472.099611c0 49.69995-32.5992 61-60.1992 61h-25.9004v29.20117h86.0996 433l29.1992-198h-25.2988c-15.9 87.89991-91.7013 156.49883-176.7012 154.29883h-73.3984c-23 0-41.7012-18.69924-41.7012-41.69922v-224.80078h20.0996c60 0 98.3008 50.20165 98.3008 136.60156h26.3008v-153.10156-7.79883-150.20117h-26.3008c0 75.99992-32.1005 130.90039-98.4004 130.90039h-20.0996v-249.09961h105.5c141.9999 0 146.8008 126.5008 146.8008 142.80078h28.2988v-137.400389-43.900391h-511.6992zm871.2988 36c88.6999 0 160.4004 81.20021 160.4004 288.5 0.2 207.29979-71.7005 288.5-160.4004 288.5s-160.3984-81.20021-160.3984-288.5 71.8985-288.5 160.3984-288.5zm-1978.6992 0.099609c88.6999 0 160.4004 81.200211 160.4004 288.500001 0.2 207.19979-71.7005 288.40039-160.4004 288.40039s-160.4004-81.20021-160.4004-288.5 71.9005-288.400391 160.4004-288.400391zm410.1992 208.099611a74.400002 74.400002 0 0 0-74.3984 74.40039 74.400002 74.400002 0 0 0 74.3984 74.40039 74.400002 74.400002 0 0 0 74.4004-74.40039 74.400002 74.400002 0 0 0-74.4004-74.40039z"/>
</svg>
