<svg height="96.834" width="566.929" xmlns="http://www.w3.org/2000/svg"><g fill="#fff" stroke="#fff"><path d="M353.812 58.21h2.244c2.096 0 5.68.432 7.157 1.297 1.477.859 2.45 1.824 2.92 2.89.47 1.067.709 3.42.709 7.053v14.266c0 4.305-4.55 6.498-6.74 6.974-2.202.475-4.34.713-6.424.713-6.005 0-11.19-1.563-15.56-4.69-4.366-3.129-7.53-8.02-9.493-14.69-1.959-6.66-2.936-14.404-2.936-23.25 0-7.295.895-14.412 2.685-21.344 1.796-6.934 4.846-12.337 9.155-16.215 4.309-3.874 9.71-5.812 16.193-5.812 6.787 0 10.758 1.718 15.753 6.91 5.109 5.306 10.01 11.336 12.87 20.188h4.179V0h-2.378c-.857 2.603-1.793 4.37-2.816 5.304-1.027.937-2.139 1.403-3.33 1.403-.77 0-3.26-.847-7.46-2.539-4.202-1.694-7.245-2.723-9.121-3.085-3.455-.721-6.14-1.085-10.447-1.085-13.913 0-25.461 4.78-34.639 14.342-9.178 9.569-13.764 21.281-13.764 35.147 0 7.748 1.49 14.75 4.479 21.004 2.347 4.85 5.601 9.207 9.761 13.086 4.162 3.873 8.969 7.001 14.405 9.385 5.443 2.375 12.283 3.566 20.52 3.566 6.447 0 12.661-.666 18.662-1.998a82.643 82.643 0 0 0 17.326-5.932v-19.17c0-3.36.19-5.473.573-6.332.681-1.636 1.65-2.805 2.908-3.512 1.255-.707 4.685-1.166 7.881-1.396v-3.139h-45.287v3.139z" stroke-width=".934"/><path d="M457.91 83.04c-5.16 3.951-12.03 5.926-20.596 5.926h-4.883c-2.617 0-4.507-.356-5.683-1.076-1.166-.72-1.973-1.641-2.399-2.764-.428-1.123-.643-4.201-.643-9.228V50.149c4.4 0 9.553.573 11.865 1.723 2.311 1.144 4.34 3.385 6.083 6.716 1.75 3.33 2.894 7.008 3.439 12.229h3.713V23.432h-3.713c-.729 7.12-2.404 11.899-5.035 15.546-2.63 3.648-6.871 5.472-12.717 5.472h-3.64V12.666c-.028-5.525 4.897-4.885 4.897-4.885h5.754c6.956 0 11.695.407 14.224 1.219 4.336 1.348 7.692 3.461 10.062 6.339 2.374 2.88 4.21 7.623 5.521 14.236h3.115V2.508h-77.42v3.707h2.442c2.975 0 5.32.629 7.031 1.886 1.22.854 2.055 2.072 2.503 3.643.228.94.341 3.48.341 7.615v57.263c0 4.582-.248 7.414-.746 8.496-.63 1.525-1.535 2.605-2.705 3.234-1.625.946-3.766 1.416-6.421 1.416h-2.444v4.307h78.73l4.732-29.117h-4.32c-2.256 8.105-5.965 14.134-11.127 18.083" stroke-width=".934"/><path d="M518.827 1.072c-13.193-.545-24.313 3.754-33.342 12.907-9.047 9.145-13.556 20.581-13.556 34.291 0 12.215 3.472 22.77 10.423 31.67 8.793 11.258 21.238 16.895 37.338 16.895 16.047 0 28.479-5.902 37.276-17.713 6.64-8.888 9.963-19.2 9.963-30.92 0-13.71-4.455-25.131-13.354-34.26-8.908-9.13-20.48-13.419-34.732-12.87m21.045 73.285c-2.156 6.376-5.166 11.02-9.037 13.918-3.035 2.273-6.818 3.406-11.351 3.406-6.73 0-11.959-2.635-15.705-7.896-5.365-7.533-8.052-19.17-8.052-34.925 0-13.255 1.736-23.419 5.213-30.497 4.265-8.62 10.486-12.93 18.665-12.93 4.443 0 8.37 1.25 11.777 3.746 3.409 2.495 6.212 6.775 8.41 12.83 2.202 6.064 3.301 15.191 3.301 27.406 0 10.256-1.076 18.574-3.234 24.953M226.502 96.302c16.047 0 28.477-5.904 37.276-17.713 6.639-8.899 9.962-19.2 9.962-30.92 0-13.711-4.455-25.13-13.356-34.26-8.906-9.13-20.48-13.417-34.73-12.87-13.193-.543-24.313 3.756-33.342 12.909-9.045 9.144-13.556 20.581-13.556 34.29 0 12.215 3.471 22.771 10.425 31.67 8.79 11.258 21.236 16.895 37.337 16.895M207.626 17.88c4.264-8.62 10.486-12.93 18.668-12.93 4.442 0 8.366 1.247 11.775 3.744 3.408 2.497 6.212 6.775 8.412 12.831 2.2 6.062 3.3 15.19 3.3 27.397 0 10.256-1.077 18.576-3.234 24.953-2.153 6.376-5.166 11.02-9.037 13.925-3.034 2.27-6.818 3.405-11.351 3.405-6.73 0-11.96-2.633-15.708-7.897-5.364-7.533-8.05-19.17-8.05-34.923 0-13.256 1.736-23.419 5.212-30.497" stroke-width=".934"/><path d="M180.004 64.225h-4.321c-2.255 8.104-5.966 14.135-11.127 18.082-5.162 3.951-12.03 5.926-20.588 5.926h-4.884c-2.617 0-4.505-.36-5.681-1.074-1.17-.721-1.973-1.643-2.4-2.766-.428-1.125-.643-4.201-.643-9.23V49.414c4.399 0 9.553.575 11.867 1.725 2.31 1.144 4.34 3.386 6.083 6.716 1.748 3.332 2.894 7.008 3.438 12.23h3.714V22.7h-3.714c-.728 7.117-2.405 11.899-5.036 15.546-2.626 3.649-6.87 5.47-12.715 5.47h-3.64V11.933c-.03-5.526 4.898-4.885 4.898-4.885h5.749c6.961 0 11.705.406 14.235 1.216 4.338 1.348 7.691 3.464 10.063 6.34 2.373 2.88 4.212 7.626 5.524 14.235h3.112V1.75h-77.42v3.73h2.44c2.975 0 5.32.63 7.033 1.884 1.217.854 2.05 2.072 2.5 3.644.227.94.341 3.48.341 7.613v57.265c0 4.582-.247 7.414-.744 8.488-.63 1.525-1.536 2.61-2.702 3.237-1.626.945-3.766 1.416-6.428 1.416h-2.44v4.306h78.73l4.732-29.117zM31.413 88.977h-2.09c-2.998 0-5.66-.92-7.99-2.762-2.323-1.842-3.487-5.384-3.487-10.64V20.27l59.907 74.682 3.885.006v-76.17c0-4.332.36-5.589 1.074-7.371s1.714-3.068 2.99-3.858c1.278-.789 3.783-1.431 7.51-1.928V1.755h-29.72v3.876c4.9-.09 8.398 1.172 10.472 3.789 1.519 1.94 2.278 3.862 2.278 9.37v39.888L29.605 1.755H1.228V4.83c2.697.09 2.794.993 4.23 1.756l7.601 7.65-.01 61.333c0 4.852-.958 8.283-2.871 10.303C8.263 87.89 4.868 88.923 0 88.968v3.707h31.399v-3.707z" stroke-width=".934"/><path d="M299.305 48.417c0 6.086-4.934 11.018-11.016 11.018-6.087 0-11.02-4.936-11.02-11.018 0-6.087 4.936-11.018 11.02-11.018 6.086 0 11.016 4.934 11.016 11.018z" stroke-width=".124"/></g></svg>