<?xml version="1.0" encoding="utf-8"?>
<!-- Generator: Adobe Illustrator 26.0.1, SVG Export Plug-In . SVG Version: 6.00 Build 0)  -->
<svg version="1.1" id="Layer_1" xmlns="http://www.w3.org/2000/svg" xmlns:xlink="http://www.w3.org/1999/xlink" x="0px" y="0px"
	 viewBox="0 0 3839 671.9" style="enable-background:new 0 0 3839 671.9;" xml:space="preserve">
<style type="text/css">
	.st0{fill:#CBB470;}
	.st1{fill:#C2AC6D;}
	.st2{fill:#22CDC4;}
	.st3{fill:#FFFFFF;}
</style>
<g>
	<g>
		<g>
			<g>
				<path class="st1" d="M643.3,16h-195v25.6h25.4c34.1,0,61.7,31.8,61.7,65.7v316.4L202.9,16H0v25.6c45.3,0,81.1,40.9,81.1,86.3
					v443.4c0,45.3-47.8,60.4-81.1,60.4v25.6h220.4v-25.6c-41.3-0.2-63.1-5.9-77.2-19.2c-14.1-13.4-17.9-31.1-17.9-55.4V141.5
					l430.5,524.9h23.5V108c0-33.1,25.9-61.2,64-62.6V16z"/>
				<circle class="st1" cx="1943.7" cy="334.6" r="74.4"/>
				<path class="st1" d="M2362.6,357.3v31h24.2c39.3,0,50.5,19,50.5,52.9v151.6c-9,11-39.7,24.8-83,24.8c-8.8,0-59-1-96.5-31.8
					c-39.2-32.2-65.6-97.4-65.6-252.4c0-201.8,71-287.3,173.9-287.3c33.5,0,147,22.6,195.3,168.6h30.3V4.1h-28.6
					c-3.6,28.3-26,44-68.3,26.4C2430.9,4,2373.8,0,2332,0c-164.6,0-304.9,152.5-304.9,334.6c0,209.8,158.4,332.7,328.5,332.7
					c80.6,0,166.1-18.6,233.8-52.9V441.2c0-40.6,28.3-52.9,66.5-52.9v-31L2362.6,357.3L2362.6,357.3z"/>
				<g>
					<path class="st1" d="M1185.2,459.4c-15.9,87.9-91.7,156.5-176.7,154.3h-73.4c-23,0-41.7-18.7-41.7-41.7V347.2h20.1
						c60,0,98.3,50.2,98.3,136.6h26.3V330.7v-7.8V172.7h-26.3c0,76-32.1,130.9-98.4,130.9h-20.1V54.5h105.5
						c142,0,146.8,126.5,146.8,142.8h28.3V59.9V16H662.2v25.5h36.1c27.6,0,50,26.1,50,53.6v472.1c0,49.7-32.6,61-60.2,61h-25.9v29.2
						h86.1h433l29.2-198H1185.2z"/>
					<path class="st1" d="M1533.5,9.3c-184.6,0-326.7,135.9-326.7,331.3s142.2,331.3,326.7,331.3c184.6,0,326.8-135.9,326.8-331.3
						S1718.1,9.3,1533.5,9.3z M1533.5,629c-88.7,0-160.4-81.2-160.4-288.5S1445,52.1,1533.5,52.1c88.7,0,160.4,81.2,160.4,288.5
						C1694.1,547.8,1622.2,629,1533.5,629z"/>
				</g>
				<g>
					<path class="st1" d="M3163.9,459.4c-15.9,87.9-91.7,156.5-176.7,154.3h-73.4c-23,0-41.7-18.7-41.7-41.7V347.2h20.1
						c60,0,98.3,50.2,98.3,136.6h26.3V330.7v-7.8V172.7h-26.3c0,76-32.1,130.9-98.4,130.9H2872V54.5h105.5
						c142,0,146.8,126.5,146.8,142.8h28.3V59.9V16h-511.7v25.5h36.1c27.6,0,50,26.1,50,53.6v472.1c0,49.7-32.6,61-60.2,61h-25.9
						v29.2h86.1h433l29.2-198H3163.9z"/>
					<path class="st1" d="M3512.2,9.3c-184.6,0-326.7,135.9-326.7,331.3s142.2,331.3,326.7,331.3c184.6,0,326.8-135.9,326.8-331.3
						S3696.8,9.3,3512.2,9.3z M3512.2,629c-88.7,0-160.4-81.2-160.4-288.5s71.9-288.5,160.4-288.5c88.7,0,160.4,81.2,160.4,288.5
						C3672.8,547.8,3600.9,629,3512.2,629z"/>
				</g>
			</g>
		</g>
	</g>
</g>
</svg>
