<svg version="1.1" viewBox="0 0 566.929 96.834" xmlns="http://www.w3.org/2000/svg"><path d="m350.97266-0.46875c-14.01994 0-25.71691 4.8392548-34.97657 14.486328-9.25595 9.650278-13.89453 21.499809-13.89453 35.46875 0 7.807856 1.50396 14.883212 4.52539 21.205078v0.001953 0.001953c2.37296 4.903626 5.66457 9.307551 9.86328 13.222657 4.20148 3.909729 9.05627 7.068985 14.53711 9.472656 5.52199 2.409462 12.42504 3.603516 20.70704 3.603516 6.47915 0 12.72824-0.668173 18.76367-2.007813 6.01102-1.336865 11.85481-3.338937 17.42383-5.966797l0.26757-0.125v-19.466797c0-1.671193 0.0473-3.029055 0.14063-4.0625 0.0934-1.033445 0.24542-1.752466 0.39062-2.078125l0.00391-0.005859 0.00195-0.005859c0.65093-1.563763 1.54946-2.635695 2.70508-3.285157 0.50664-0.285413 1.66577-0.59384 3.05859-0.822265 1.39284-0.228425 3.03921-0.39941 4.62696-0.513672l0.43359-0.03125v-4.041016h-46.2207v3.75l0.23437 0.345703h0.24805 2.24414c1.01592 0 2.42061 0.106566 3.73633 0.31836 1.31571 0.211793 2.55798 0.547674 3.18359 0.914062h0.00196c1.42264 0.827393 2.31057 1.732289 2.72656 2.675782 0.39144 0.888658 0.66992 3.250769 0.66992 6.863281v14.267578c0 1.98797-1.03805 3.471461-2.37695 4.558594-1.33891 1.087133-2.98096 1.738342-3.9961 1.958984-2.17181 0.468355-4.2764 0.701172-6.32422 0.701172-5.92394 0-10.99939-1.533442-15.28711-4.601563-4.26552-3.056997-7.37628-7.844439-9.31835-14.443359-1.94321-6.606293-2.91602-14.30559-2.91602-23.117187 0-7.256136 0.89017-14.333598 2.66992-21.226563v-0.001953c1.77865-6.865847 4.78589-12.177711 9.01563-15.984375 4.22229-3.796049 9.49093-5.6914064 15.88086-5.6914064 6.70817 0 10.47108 1.6276124 15.41601 6.7675784 5.08988 5.286137 9.93063 11.245311 12.76172 20.007812l0.10547 0.322266h4.98437v-33.43359388h-3.18164l-0.10547 0.3203125c-0.84503 2.56668638-1.77634 4.27358188-2.6875 5.10546878-0.95994 0.8758327-1.94644 1.28125-3.01562 1.28125-0.21377 0-1.06315-0.1908666-2.29297-0.609375s-2.89681-1.0523463-4.99219-1.8964844c-4.21367-1.6987092-7.26162-2.7339824-9.20703-3.109375-3.46873-0.723635966-6.20435-1.09375-10.53515-1.09375zm-125.31641 0.541015625c-13.29702-0.542879595-24.56768 3.813683675-33.67578 13.04687538-9.1273 9.227204-13.69141 20.807723-13.69141 34.61914 0 12.303444 3.50556 22.976275 10.52344 31.957031 8.87211 11.363171 21.4872 17.070456 37.68945 17.074219 5e-3 0 0.01033 2e-6 0.01563 0 16.15326-4e-3 28.75742-5.987 37.63476-17.90039v-0.001953c6.69695-8.977257 10.05469-19.389607 10.05469-31.197266 0-13.812131-4.5058-25.374316-13.48828-34.587891-8.99191-9.2180695-20.71867-13.55582632-35.0625-13.00976538zm293.16797 0.533203125v0.00195313c-13.29524-0.543815611-24.56472 3.81074052-33.67188 13.04296912-9.12931 9.228209-13.68945 20.806776-13.68945 34.61914 0 5.772854 0.80349 11.172313 2.34766 16.220703h-5.16797l-0.0957 0.341797c-2.23658 8.035234-5.8954 13.962679-10.96094 17.837891l0.01367 0.017578c-5.05797 3.862077-11.80522 5.810547-20.28516 5.810547h-4.88281c-2.5736 0-4.39286-0.366892-5.4375-1.005859h-0.00195c-1.09571-0.676919-1.82053-1.512381-2.20703-2.53125v-0.001954c-0.17271-0.453138-0.3471-1.494964-0.45313-3.015625-0.10602-1.520661-0.1582-3.538085-0.1582-6.044921v-25.251954c4.25713 0.04181 9.14429 0.62726 11.18945 1.644532 2.19108 1.084637 4.1631 3.238353 5.87695 6.513672 1.72312 3.278834 2.84833 6.88415 3.38868 12.060546l0.04297 0.417969h4.60156v-48.318359h-4.60156l-0.04297 0.419922c-0.72378 7.068944-2.37646 11.754035-4.94922 15.320312-2.53391 3.514708-6.58905 5.277344-12.33789 5.277344h-3.17383v-31.31836c-0.0133-2.62383 1.06425-3.6120309 2.15625-4.0839839 1.092-0.4719528 2.21289-0.3359375 2.21289-0.3359375l0.03125 0.0039063h5.7832c6.93778 0 11.67148 0.4232929 14.08203 1.1972656h0.00196 0.00195c4.26912 1.3272065 7.53608 3.3938255 9.83984 6.1914065 2.2891 2.777 4.12072 7.45611 5.42383 14.029297l0.07422 0.376953h3.96484v-28.0019534h-78.35351v4.640625h2.91016c2.90917 0 5.14707 0.614453 6.7539 1.7949219l0.00391 0.0039063 0.0039 0.0039062c1.12882 0.7901695 1.89434 1.89839 2.31836 3.378906 0.19052 0.790725 0.32618 3.374969 0.32617 7.496094v57.261719c1e-5 2.282569-0.0613 4.127362-0.18359 5.521484-0.12233 1.394123-0.32292 2.352124-0.51953 2.779297l-0.00391 0.009766-0.00195 0.007812c-0.59945 1.451043-1.434 2.430966-2.49609 3.001953l-0.00586 0.003906-0.00781 0.003907c-1.52898 0.890105-3.58567 1.351562-6.18555 1.351562h-2.91016v5.242188h79.59375l4.86328-29.927735c1.74841 5.663107 4.44215 10.878327 8.13868 15.611328 8.87802 11.366844 21.4961 17.076172 37.70507 17.076172 16.16093 0 28.77208-5.980962 37.65039-17.90039v-0.001953c6.69827-8.96658 10.05664-19.39156 10.05664-31.199219 0-13.811139-4.50583-25.373332-13.48632-34.585938-8.9934-9.2174729-20.71955-13.5553715-35.06446-13.00781212v-0.00195313c-3e-3 -1.3945e-4 -0.00576 1.3882e-4 -0.00976 0-4e-3 1.5652e-4 -0.00802-1.5732e-4 -0.01172 0zm0.01172 0.26953125 0.00781 0.1972656h-0.01563l0.00782-0.1972656zm-422.785159 0.4082031v4.6640625h2.90625c2.909069 0 5.148579 0.6149263 6.757809 1.7929688l0.00391 0.0039062 0.00391 0.0019532c1.12468 0.789217 1.88808 1.8989437 2.31445 3.3789062 0.19001 0.791004 0.32812 3.375975 0.32812 7.496094v57.265625c0 2.282603-0.0616 4.124444-0.18359 5.517578-0.12196 1.393133-0.3224 2.35166-0.51758 2.773437l-0.0039 0.009766-0.00391 0.007812c-0.59952 1.451215-1.43524 2.435548-2.49219 3.003907l-0.00586 0.003906-0.00781 0.003906c-1.53038 0.889425-3.58645 1.353516-6.193359 1.353516h-2.90625v5.240234h79.593749l4.79688-29.509765-0.40821 0.236328 0.13477-0.740235-0.55664-0.208984-0.0293 0.179687h-4.25391l-0.0957 0.341797c-2.23557 8.034154-5.89648 13.962773-10.96094 17.835938-5.06287 3.875131-11.8166 5.830078-20.30273 5.830078h-4.88477c-2.5717 0-4.38908-0.36995-5.43554-1.003906l-0.00391-0.001953c-1.09765-0.677349-1.81749-1.513853-2.20508-2.533204-0.17294-0.454579-0.3471-1.496916-0.45312-3.017578-0.10603-1.52066-0.16016-3.539034-0.16016-6.046875v-25.25c4.25659 0.04177 9.14557 0.626833 11.19336 1.644532 2.19006 1.084597 4.16311 3.241319 5.87695 6.515625 1.72137 3.281222 2.84739 6.88332 3.38672 12.060546l0.04297 0.419922h4.60352v-48.320312h-4.60352l-0.04297 0.419922c-0.72276 7.065828-2.37645 11.754043-4.94922 15.320312h-0.00195c-2.52968 3.515156-6.58794 5.275391-12.33594 5.275391h-3.17187v-31.316406-0.001953c-0.0143-2.6242788 1.06378-3.6101796 2.15625-4.0820318 1.09246-0.471852 2.21484-0.3359374 2.21484-0.3359374l0.0293 0.0039062h5.7793c6.94282 0 11.6801 0.4212339 14.09179 1.1933594h0.00196l0.00195 0.0019531c4.27086 1.3271375 7.53571 3.3933715 9.8418 6.1894535 2.28817 2.777055 4.12169 7.460178 5.42578 14.029297l0.07617 0.376953h3.96094v-28.0234379h-78.353519zm-95.28906225 0.0039063v3.9941406l0.45117185 0.015625c1.2966511 0.04327 1.8829298 0.2638586 2.359375 0.5566406 0.4496283 0.2763027 0.872908 0.686383 1.5722656 1.0800782l7.4472658 7.4941402-0.009766 61.140625c0 4.790521-0.957205 8.0976-2.7421872 9.982422-1.7800662 1.875809-5.0398099 2.906764-9.84375005 2.951172l-0.46289063 0.003906v4.636719h32.33203088v-3.699219h1.138672l-1.33789-0.859375-0.734375-0.470703v0.396485h-1.609375c-2.902455 0-5.445628-0.878562-7.699219-2.660157-2.154134-1.708093-3.310547-5.088349-3.310547-10.27539v-53.976563l59.216797 73.820313 4.576172 0.007812v-76.638672c0-4.306118 0.333107-5.435343 1.039062-7.197265 0.686859-1.7142591 1.626746-2.9047322 2.802735-3.6328128 1.142243-0.7051883 3.624233-1.3696231 7.326172-1.8632812l0.40625-0.0546875v-4.7519531h-30.654297v4.8203125l0.474609-0.0097657c4.815766-0.0884529 8.137026 1.139333 10.097656 3.6132813 0.735209 0.9395095 1.260418 1.8294285 1.623047 3.1777345 0.363073 1.349956 0.554688 3.167847 0.554688 5.90039v38.582032l-45.949219-56.0839846h-29.06445325zm225.5332012 4.1308594c4.3546 0 8.16708 1.2125006 11.49805 3.6523437 3.30138 2.4188775 6.06938 6.6106465 8.25 12.6132815 2.16574 5.967597 3.27148 15.05936 3.27148 27.238281 0 10.223286-1.07637 18.497841-3.20898 24.802734v0.001953c-2.13274 6.315987-5.10208 10.867815-8.875 13.699219-2.94465 2.203149-6.61722 3.3125-11.07227 3.3125-6.60818 0-11.65455-2.544455-15.32617-7.701172-5.2749-7.407877-7.96484-18.95246-7.96484-34.652343 0-13.215202 1.73891-23.316573 5.16406-30.291016l-0.41797-0.205078 0.01367-0.007813 0.41797 0.207032c4.21138-8.5136065 10.23202-12.6699223 18.25-12.6699222zm293.32617 0.4824218c4.35541 0 8.17106 1.2174306 11.5 3.65625h0.00196c3.30204 2.4167214 6.06746 6.6096924 8.24609 12.6113284 2.1677 5.969538 3.27344 15.05913 3.27344 27.246093 0 10.223317-1.07538 18.497799-3.20899 24.804688l0.00586 0.001953c-2.1354 6.30852-5.09973 10.857746-8.86914 13.679688-2.94555 2.206014-6.61513 3.314453-11.07031 3.314453-6.60809 0-11.65459-2.547433-15.32422-7.701172-5.27589-7.407889-7.96484-18.952426-7.96484-34.654297 0-13.213234 1.73845-23.314715 5.16406-30.289063v-0.001953c4.21235-8.512576 10.23168-12.6679684 18.24609-12.6679684zm-231.33203 31.4375004c-6.11748 0-11.08203 4.959572-11.08203 11.080078 0 6.115512 4.96153 11.078125 11.08203 11.078125 6.11551 0 11.07813-4.958628 11.07813-11.078125 0-6.117481-4.95862-11.080078-11.07813-11.080078z" stroke-width=".934" style="-inkscape-stroke:none"/></svg>
