<svg enable-background="new 0 0 3840 1650.9" version="1.1" viewBox="0 0 3840 1650.9" xml:space="preserve" xmlns="http://www.w3.org/2000/svg">
<path d="m1938 0-370.5996 651.19922h104.6992l265.9004-467.19922 265.9004 467.19922h104.6992l-370.5996-651.19922zm-1748.30078 699.09961v0.02734h-189.6601575v98.09961h189.6601575v339.07424h124v-339.07424h189.73828v-98.09961h-189.73828v-0.02734h-124zm358 0v98.09961 339.10158h124v-339.10158h231.60156v84.20117h-170.5v85.90039l202 169.09962h152.79882l-187.40038-157.00001h36.5c50.39995 0 91.20118-40.80122 91.20118-91.20117v-97.89844c0-50.39995-40.80123-91.20117-91.20118-91.20117h-389zm562.40038 0v437.20119h124v-437.20119h-124zm213.4004 0v0.00391h-0.0371v98.0996h0.0371v71.41993h-0.0137v98.09961h0.0137v169.57814h124v-169.57814h238.8867v-98.09961h-238.8867v-71.41993h277.5625v-98.0996h-277.5625v-0.00391h-124zm531.6992 0c-50.3999 0-91.1992 40.80122-91.1992 91.20117v6.89844 247.90038c0 50.4 40.7993 91.2012 91.1992 91.2012h335.3008c50.3999 0 91.1992-40.8012 91.1992-91.2012v-254.79882c0-50.39995-40.7993-91.20117-91.1992-91.20117h-335.3008zm1559 0v0.01367h-0.0469v98.09961h0.0469v241.04491h-0.0019v98.0996h425.7988v-98.0996h-301.7969v-71.45116h214.2031v-98.09961h-214.2031v-71.49414h301.752v-98.09961h-301.752v-0.01367h-124zm-1080.5 0.09961v98.10156 339.09962h124v-339.20118h231.6016v84.20117h-170.6016v85.90039l202 169.09962h152.8008l-187.4004-156.9004h36.5c50.4 0 91.2012-40.79927 91.2012-91.19922v-97.90039c0-50.39995-40.8012-91.20117-91.2012-91.20117h-388.9004zm622.4004 0c-50.3999-0.1-91.1992 40.70161-91.1992 91.10156v254.79882c0 50.4 40.7993 91.2012 91.1992 91.2012h321c50.4 0 91.2012-40.8012 91.2012-91.2012v-78.29882h-131.3008v71.50002h-248.0996v-241.10158h248.0996v71.5h131.3008v-78.29883c0-50.39995-40.8012-91.20117-91.2012-91.20117h-321zm-1068.0996 98h269.6992v240.99998h-269.6992v-240.99998zm-1784.40039 396.70118v23.4004 93.5h30v-91.4863l64.09961 91.4863h22.60156 7.39844v-116.9004h-30v76.1113l-53.29883-76.1113h-0.20117-10.59961-30zm228.20117 0c-15.49998 0-28.10156 12.5996-28.10156 28.0996v18.5996 23.4004 46.8008h30v-46.8008h64.10156v46.8008h30v-88.8008c0-15.5-12.60158-28.0996-28.10156-28.0996h-67.89844zm167.09961 0v116.9004h30v-94.8555l32.69922 94.8555h28.59961l32.70117-94.8555v94.8555h30v-116.9004h-22.40039-24.80078l-29.79883 86.6992-29.90039-86.6992h-17.09961-30zm241.69922 0c-15.49999 0-28.09961 12.5996-28.09961 28.0996v60.6992c0 15.5 12.59962 28.1016 28.09961 28.1016h96v-23.4004h-94.09961v-70.0996h94.09961v-23.4004h-96zm191.40039 0c-15.59998 0-28.09961 12.5996-28.09961 28.0996v60.6992c0 15.5 12.59963 28.1016 28.09961 28.1016h67.90039c15.50001 0 28.09961-12.6016 28.09961-28.1016v-60.6992c0-15.5-12.5996-28.0996-28.09961-28.0996h-67.90039zm419.5996 0c-15.5 0-28.0996 12.5996-28.0996 28.0996v14c0 15.5 12.5996 28.0996 28.0996 28.0996h66v23.4004h-94.0996v23.4004h96c15.5 0 28.0996-12.5996 28.0996-28.0996v-14c0-15.5-12.5996-28.1016-28.0996-28.1016h-66v-23.3984h94.0996v-23.4004h-96zm204.8008 0c-15.5 0-28.0996 12.5996-28.0996 28.0996v60.6992c0 15.5 12.5996 28.1016 28.0996 28.1016h96v-23.4004h-94.0996v-23.4004h69.0996v-23.4004h-69.0996v-23.2988h94.0996v-23.4004h-96zm204.9004 0c-15.5 0-28.1016 12.5996-28.1016 28.0996v60.6992c0 15.5 12.6016 28.1016 28.1016 28.1016h67.8984c15.5 0 28.1016-12.6016 28.1016-28.1016v-42.0996h-0.1016-70.6992v23.4004h40.8008v23.4004h-64.1016v-70.0996h94.1016v-23.4004h-96zm204.7988 0c-15.5 0-28.0996 12.5996-28.0996 28.0996v18.5996 23.4004 46.8008h30v-46.8008h64.0996v46.8008h30v-88.8008c0-15.5-12.5996-28.0996-28.0996-28.0996h-67.9004zm367.5 0v23.4004 93.5h30v-91.4863l64.0996 91.4863h22.6016 7.3984v-116.9004h-30v76.1113l-53.2988-76.1113h-0.2012-10.5996-30zm205.8008 0v116.9004h30v-116.9004h-30zm114.2988 0v23.4004 93.5h30v-91.3438l64 91.3438h22.6016 7.3984v-116.9004h-30v76.1113l-53.2988-76.1113h-0.0996-10.6016-30zm191.2012 0v23.4004h47v93.5h30v-93.5h47v-23.4004h-124zm224.0996 0c-15.5 0-28.0996 12.5996-28.0996 28.0996v60.6992c0 15.5 12.5996 28.1016 28.0996 28.1016h96v-23.4004h-94v-23.4004h64.0996v-23.4004h-64.0996v-23.2988h94v-23.4004h-96zm146.8008 0v116.9004h30v-91.3418l64 91.3418h22.5996 7.4004v-116.9004h-30v76.1152l-53.3008-76.1152h-0.0996-10.5996-30zm198.3984 0v116.9004h96c15.5 0 28.1016-12.6016 28.1016-28.1016v-60.6992c0-15.5-12.6016-28.0996-28.1016-28.0996h-96zm226.6016 0c-15.5 0-28.1016 12.5996-28.1016 28.0996v60.6992c0 15.5 12.6016 28.1016 28.1016 28.1016h67.8984c15.5 0 28.1016-12.6016 28.1016-28.1016v-60.6992c0-15.5-12.6016-28.0996-28.1016-28.0996h-67.8984zm-3307.10158 23.4004h64.10156v23.2988h-64.10156v-23.2988zm600.10156 0h64.09961v70.0996h-64.09961v-70.0996zm1034.19922 0h64.0996v23.2988h-64.0996v-23.2988zm1476.1992 0h64.1016v70.0996h-64.1016v-70.0996zm198.5 0h64.1016v70.0996h-64.1016v-70.0996zm-2479.5996 15.6992c-10.7 0-19.4004 8.6004-19.4004 19.4004 0 10.6 8.7004 19.2988 19.4004 19.2988 10.8 0 19.4004-8.5988 19.4004-19.2988 0-10.8-8.7004-19.4004-19.4004-19.4004zm1025.7012 0c-10.7 0-19.4004 8.6004-19.4004 19.4004 0 10.6 8.7004 19.2988 19.4004 19.2988s19.3984-8.5988 19.3984-19.2988c0-10.8-8.6984-19.4004-19.3984-19.4004zm-1023.9004 125.5996-166.30079 292.3008h1878.80079l-166.3008-292.3008h-104.6992l114.5 201.3008h-1565.8008l114.5-201.3008h-104.6992z" fill="#6b4284"/>
</svg>
