<?xml version="1.0" encoding="utf-8"?>
<!-- Generator: Adobe Illustrator 25.0.0, SVG Export Plug-In . SVG Version: 6.00 Build 0)  -->
<svg version="1.1" id="Layer_1" xmlns="http://www.w3.org/2000/svg" xmlns:xlink="http://www.w3.org/1999/xlink" x="0px" y="0px"
	 viewBox="0 0 3840 1650.9" style="enable-background:new 0 0 3840 1650.9;" xml:space="preserve">
<style type="text/css">
	.st0{fill:#887EC9;}
	.st1{fill:#6B4284;}
	.st2{fill:#FFFFFF;}
</style>
<g>
	<rect x="3414.2" y="699.1" class="st1" width="124" height="437.2"/>
	<rect x="1323.5" y="699.1" class="st1" width="124" height="437.2"/>
	<rect x="1110.1" y="699.1" class="st1" width="124" height="437.2"/>
	<rect x="189.7" y="699.1" class="st1" width="124" height="437.2"/>
	
		<rect x="3578.1" y="535.3" transform="matrix(-1.836970e-16 1 -1 -1.836970e-16 4375.252 -2878.9873)" class="st1" width="98.1" height="425.8"/>
	
		<rect x="3534.3" y="748.6" transform="matrix(-1.836970e-16 1 -1 -1.836970e-16 4501.0034 -2665.5935)" class="st1" width="98.1" height="338.1"/>
	
		<rect x="3578.1" y="874.4" transform="matrix(-1.836970e-16 1 -1 -1.836970e-16 4714.3965 -2539.8428)" class="st1" width="98.1" height="425.8"/>
	
		<rect x="1475.3" y="547.4" transform="matrix(-1.836970e-16 1 -1 -1.836970e-16 2272.4622 -776.1963)" class="st1" width="98.1" height="401.6"/>
	
		<rect x="1455.9" y="736.3" transform="matrix(-1.836970e-16 1 -1 -1.836970e-16 2422.687 -587.2766)" class="st1" width="98.1" height="362.9"/>
	<path class="st1" d="M1855.2,699.1c-50.4,0-91.2,40.8-91.2,91.2v6.9v247.9c0,50.4,40.8,91.2,91.2,91.2h335.3
		c50.4,0,91.2-40.8,91.2-91.2V790.3c0-50.4-40.8-91.2-91.2-91.2H1855.2z M2157.7,1038.2H1888V797.2h269.7V1038.2z"/>
	<path class="st1" d="M2864.9,790.3v254.8c0,50.4,40.8,91.2,91.2,91.2h321c50.4,0,91.2-40.8,91.2-91.2v-78.3H3237v71.5h-248.1V797.2
		H3237v71.5h131.3v-78.3c0-50.4-40.8-91.2-91.2-91.2h-321C2905.7,699.1,2864.9,739.9,2864.9,790.3z"/>
	
		<rect x="202.7" y="496.4" transform="matrix(-1.836970e-16 1 -1 -1.836970e-16 999.8381 496.4265)" class="st1" width="98.1" height="503.4"/>
	<path class="st1" d="M1182.5,1252.4c0,10.7-8.6,19.3-19.4,19.3c-10.7,0-19.4-8.7-19.4-19.3c0-10.8,8.7-19.4,19.4-19.4
		C1173.8,1233,1182.5,1241.6,1182.5,1252.4z"/>
	<path class="st1" d="M2208.2,1252.4c0,10.7-8.7,19.3-19.4,19.3c-10.7,0-19.4-8.7-19.4-19.3c0-10.8,8.7-19.4,19.4-19.4
		C2199.5,1233,2208.2,1241.6,2208.2,1252.4z"/>
	<rect x="103.6" y="1193.9" class="st1" width="40.6" height="23.4"/>
	<path class="st1" d="M303.7,1222v88.8h30v-93.5h64.1v93.5h30V1222c0-15.5-12.6-28.1-28.1-28.1h-67.9
		C316.3,1193.9,303.7,1206.5,303.7,1222z"/>
	<rect x="303.7" y="1240.6" class="st1" width="124" height="23.4"/>
	<g>
		<path class="st1" d="M1938,1222v88.8h30v-93.5h64.1v93.5h30V1222c0-15.5-12.6-28.1-28.1-28.1h-67.9
			C1950.6,1193.9,1938,1206.5,1938,1222z"/>
		<rect x="1938" y="1240.6" class="st1" width="124" height="23.4"/>
	</g>
	<g>
		<rect x="498.9" y="1193.9" class="st1" width="30" height="116.9"/>
		<rect x="622.9" y="1193.9" class="st1" width="30" height="116.9"/>
	</g>
	<path class="st1" d="M836.6,1217.3v-23.4h-96c-15.5,0-28.1,12.6-28.1,28.1v60.7c0,15.5,12.6,28.1,28.1,28.1h96v-23.4h-94.1v-70.1
		H836.6z"/>
	<path class="st1" d="M903.9,1222v60.7c0,15.5,12.6,28.1,28.1,28.1h67.9c15.5,0,28.1-12.6,28.1-28.1V1222
		c0-15.5-12.6-28.1-28.1-28.1h-67.9C916.4,1193.9,903.9,1206.5,903.9,1222z M997.9,1287.4h-64.1v-70.1h64.1V1287.4z"/>
	<g>
		<rect x="1533.3" y="1240.6" class="st1" width="94.1" height="23.4"/>
		<path class="st1" d="M1652.4,1217.3v-23.4h-96c-15.5,0-28.1,12.6-28.1,28.1v60.7c0,15.5,12.6,28.1,28.1,28.1h96v-23.4h-94.1v-70.1
			H1652.4z"/>
	</g>
	<g>
		<rect x="1786.5" y="1240.6" class="st1" width="70.7" height="23.4"/>
		<path class="st1" d="M1763.2,1217.3h94.1v-23.4h-96c-15.5,0-28.1,12.6-28.1,28.1v60.7c0,15.5,12.6,28.1,28.1,28.1h67.9
			c15.5,0,28.1-12.6,28.1-28.1v-42.1h-30v46.8h-64.1V1217.3z"/>
	</g>
	<g>
		<rect x="103.6" y="1193.9" class="st1" width="30" height="116.9"/>
		<rect x="197.7" y="1193.9" class="st1" width="30" height="116.9"/>
		<polygon class="st1" points="144.4,1193.9 139.2,1193.9 123.5,1204.9 197.7,1310.8 220.3,1310.8 224.3,1308 		"/>
	</g>
	<path class="st1" d="M3612.7,1222v60.7c0,15.5,12.6,28.1,28.1,28.1h67.9c15.5,0,28.1-12.6,28.1-28.1V1222
		c0-15.5-12.6-28.1-28.1-28.1h-67.9C3625.3,1193.9,3612.7,1206.5,3612.7,1222z M3706.8,1287.4h-64.1v-70.1h64.1V1287.4z"/>
	<path class="st1" d="M3414.2,1193.9v116.9h96c15.5,0,28.1-12.6,28.1-28.1V1222c0-15.5-12.6-28.1-28.1-28.1H3414.2z M3508.3,1287.4
		h-64.1v-70.1h64.1V1287.4z"/>
	<g>
		<rect x="3041" y="1240.6" class="st1" width="94.1" height="23.4"/>
		<path class="st1" d="M3165,1217.3v-23.4h-96c-15.5,0-28.1,12.6-28.1,28.1v60.7c0,15.5,12.6,28.1,28.1,28.1h96v-23.4H3071v-70.1
			H3165z"/>
	</g>
	<g>
		<rect x="2333.6" y="1193.9" class="st1" width="40.6" height="23.4"/>
		<g>
			<rect x="2333.6" y="1193.9" class="st1" width="30" height="116.9"/>
			<rect x="2427.7" y="1193.9" class="st1" width="30" height="116.9"/>
			<polygon class="st1" points="2374.4,1193.9 2369.2,1193.9 2353.5,1204.9 2427.7,1310.8 2450.3,1310.8 2454.3,1308 			"/>
		</g>
	</g>
	<g>
		<g>
			<rect x="2539.4" y="1193.9" class="st1" width="30" height="116.9"/>
		</g>
	</g>
	<g>
		<g>
			<rect x="2891.9" y="1193.9" class="st1" width="30" height="116.9"/>
		</g>
	</g>
	<g>
		<rect x="3215.8" y="1193.9" class="st1" width="40.6" height="23.4"/>
		<g>
			<rect x="3215.8" y="1193.9" class="st1" width="30" height="116.9"/>
			<rect x="3309.8" y="1193.9" class="st1" width="30" height="116.9"/>
			<polygon class="st1" points="3256.5,1193.9 3251.3,1193.9 3235.6,1204.9 3309.8,1310.8 3332.4,1310.8 3336.4,1308 			"/>
		</g>
	</g>
	<g>
		<rect x="2653.7" y="1193.9" class="st1" width="40.6" height="23.4"/>
		<g>
			<rect x="2653.7" y="1193.9" class="st1" width="30" height="116.9"/>
			<rect x="2747.7" y="1193.9" class="st1" width="30" height="116.9"/>
			<polygon class="st1" points="2694.4,1193.9 2689.2,1193.9 2673.5,1204.9 2747.7,1310.8 2770.3,1310.8 2774.3,1308 			"/>
		</g>
	</g>
	<polygon class="st1" points="605.7,1193.9 575.9,1280.6 546,1193.9 521.3,1193.9 561.6,1310.8 590.2,1310.8 630.5,1193.9 	"/>
	<rect x="2844.9" y="1193.9" class="st1" width="124" height="23.4"/>
	<g>
		<polygon class="st1" points="1938,184 1938,184 1938,184 1938,184 2203.9,651.2 2308.6,651.2 1938,0 1567.4,651.2 1672.1,651.2 		
			"/>
		<polygon class="st1" points="2877.4,1650.9 2711.1,1358.6 2606.4,1358.6 2720.9,1559.9 1155.1,1559.9 1269.6,1358.6 
			1164.9,1358.6 998.6,1650.9 		"/>
	</g>
	<path class="st1" d="M1447.6,1217.3v-23.4h-96c-15.5,0-28.1,12.6-28.1,28.1v14c0,15.5,12.6,28.1,28.1,28.1l66,0v23.4h-94.1v23.4h96
		c15.5,0,28.1-12.6,28.1-28.1v-14c0-15.5-12.6-28.1-28.1-28.1h-66v-23.4H1447.6z"/>
	<path class="st1" d="M732.8,881.4v85.9l202,169.1h152.8L900.2,979.4h36.5c50.4,0,91.2-40.8,91.2-91.2v-97.9
		c0-50.4-40.8-91.2-91.2-91.2H547.7v98.1v339.1h124V797.2h231.6v84.2H732.8z"/>
	<path class="st1" d="M2518.7,881.4v85.9l202,169.1h152.8l-187.4-156.9h36.5c50.4,0,91.2-40.8,91.2-91.2v-97.9
		c0-50.4-40.8-91.2-91.2-91.2h-388.9v98.1v339.1h124V797.2h231.6v84.2H2518.7z"/>
</g>
</svg>
