<svg enable-background="new 0 0 3840 854.2" version="1.1" viewBox="0 0 3840 854.2" xml:space="preserve" xmlns="http://www.w3.org/2000/svg">
<path fill="#006CC4" d="m242.40039 46.300781c-138.39986 0-242.2011712 83.499379-242.2011712 241.699219 0 147.59985 131.7012212 202.89924 184.7011712 225.19922 116.39988 50.89995 138.69922 63.7016 138.69922 105.10156 0 36.09997-18.19966 70.69922-64.09961 70.69922-24.49998 0-78.59961-11.2997-78.59961-102.59961h-180.7011712c-5.09999485 153.99985 110.7009312 267.79922 261.3007812 267.69922 200.0998 0 270.30078-119.10052 270.30078-244.40039 0-75.49993-42.7017-159.29968-183.60156-225.09961-135.69987-63.69994-147.5-73.30043-147.5-109.40039 0-37.19996 32.70042-61.59961 66.40039-61.59961 59.29994 0 65.20117 56.30003 65.20117 83h175.59961c-3-188.99981-152.40011-250.298829-265.5-250.298829zm1543.40041 0.798828 450.7988 643.201171 1.7012 3.89844 113.0996 159.90039 4-5.69922 92-131.30078c-2.4-3.3-4.7008-6.8-6.8008-10.5-18.9-33.69997-30.1992-91.99892 22.8008-178.79883 53.9999-88.29991 109.7992-106.80078 147.1992-106.80078 19 0 32.7 4.79961 39 7.59961l267.3008-381.500001h-782.0996-172.9004-176.0996zm-1251.50002 0.09961 31.29883 807.000001h218.90039l-4.35156-112.19922h230.15236l78.5 112.19922h235.5996l-16.1055-416.64844 291.5059 416.64844h199l-16.457-424.96094 297.3554 424.96094h225.8008l-564.6992-807.000001h-192.2012l16.8965 435.167971-304.4961-435.167971h-186.6992l18.4101 474.683591-332.51168-474.683591-6.92383 1.978515-0.07617-1.978515h-218.89844zm232.33984 346.544921 126.11719 180.25586h-119.125l-6.99219-180.25586z"/><path fill="#FF003D" d="m3829.8867-0.017578125c-40.3156-2.774020675-186.2859 173.2543181-164.5859 191.7167981 16.1 13.69999 179.1996-117.299672 174.5996-178.599611-0.65-8.674991-4.2543-12.72089846-10.0137-13.11718712zm-443.8066 189.6894581c-38.6099-4.03148-81.9809 130.01645-94.3809 176.1289-12.1 45.19996-76.4985 210.19959-116.8984 185.59961-26.3-16.09998 1.1988-88.9012 13.2988-115.20117 27.5-59.49994 34.2-86.09884 14-94.29883-44.1999-17.99998-103.4996 128.09925-120.5996 157.19922-29.7 50.59995-84.3996 112.80072-87.0996 52.30078s93-136.39964 56-165.09961c-36.9-28.69997-99.0996 99.09961-99.0996 99.09961-38.3 87.09991-56.4004 69.69922-56.4004 69.69922-5.4-91.79991-42.3008-146.40039-86.8008-146.40039-45.0999 0-83.3992 50.10084-100.6992 106.30078-7.9 37.39996-40.6012 108.40082-108.2012 148.80078-37.3999 22.29998-112.6 30.79992-82.5-53.5 0 0 26.0012-65.10037 70.2012-47.40039 34.2 13.69999 87.4992-91.99963 54.6992-111.59961 0 0-77.9997-42.00026-158.0996 89.09961-84.8999 138.79986 5.5008 202.79883 52.8008 202.29883 56.1999-0.6 134.2-94.29924 145.5-110.19922 7.9-10.99999 18.9992-23.09999 24.1992-9 21.7 59.39994 60.9996 71.99961 89.5996 71.09961 43.5-1.3 61.5008-45.40002 81.3008-69 18.2-21.59998 71.0992-80.20035 72.1992-41.90039 1.7 57.89994 81.9 89.10072 110 27.80078 25.9-56.49994 50.1012-48.10037 54.2012-23.40039 9 53.89995 42.5 43.70117 42.5 43.70117 50.1999 0 106.0984-104.50082 125.8984-147.80078 16.9-36.99996 27.3016-18.49997 25.1016 12.5-4.2 57.89994-23.8016 114.00082-33.1016 154.80078-10.9 47.49995 7.2001 117.89844 40 117.89844 23.6 0 31.4004-128.79926 28.4004-165.19922 0-40.29996 47.1004-31.39922 80.4004-34.19922 54.1999-4.59999 89.8993-51.60007 137.6992-118 2.7-3.7 8.5004-2.89999 9.9004 1.5 20.3 62.39994 59.6012 66.29843 86.7012 61.89844 75.5999-12.29999 162.8992-116.19962 151.6992-127.59961-17.4-17.79998-73.6997 68.40077-131.5996 58.80078-30.5-5.09999-27.5008-34.60118-24.8008-47.20117 0.7-3.3 3.4008-5.89961 6.8008-6.59961 59.6999-12.39999 165.2003-129.09926 129.4004-170.69922-33.5-38.99996-127.8016 21.89887-160.6016 64.29883-39.1999 50.59995-75.8996 120.6016-105.5996 156.60156-58.6999 71.09993-51.6992 3.29959-41.6992-17.90039 21.1-44.59995 38.4992-130.60041 10.6992-148.90039-24.2-15.89998-61.2988 30.6008-73.7988 48.80078-31.4 45.59996-55.1016 35.99879-40.6016-2.70117 18.9-50.09995 41.9016-121.69962 13.1016-131.59961-1.2344-0.425-2.4752-0.69808-3.7207-0.82812zm331.1855 75.87109c3.1619-0.60859 5.7336-0.03086 7.4336 2.05664 15 18.49998-39.1984 89.09998-63.8984 74.5-16.7125-9.88749 34.3314-72.29649 56.4648-76.55664zm-289.539 108.47461c1.8216-0.27285 3.5242-0.09297 5.0742 0.58203 12.4 5.39999 14.3996 36.89965-5.4004 76.59961-14.4 28.99997-26.0012 45.40156-45.2012 40.60156-13.1-3.3-12.4996-30.5012 0.4004-60.20117 13.7375-31.58747 32.3752-55.67207 45.127-57.58203zm-617.8828 121.64258c4.6728 1.2416 7.3804 6.55196 6.8554 16.93945-0.8 16.59998-4.1996 31.60003 9.9004 59.5 17.5 34.39996 10.1012 43.20119-13.2988 62.20117-32.5 26.29997-56.5004 0.29841-56.4004-27.10156 0.1-23.79998-5.6004-57.90003 19.0996-88.5 12.8125-15.87499 26.0557-25.1084 33.8438-23.03906z"/>
</svg>
