<?xml version="1.0" encoding="utf-8"?>
<!-- Generator: Adobe Illustrator 25.0.0, SVG Export Plug-In . SVG Version: 6.00 Build 0)  -->
<svg version="1.1" id="Layer_1" xmlns="http://www.w3.org/2000/svg" xmlns:xlink="http://www.w3.org/1999/xlink" x="0px" y="0px"
	 viewBox="0 0 3840 854.2" style="enable-background:new 0 0 3840 854.2;" xml:space="preserve">
<style type="text/css">
	.st0{fill:#406AB1;}
	.st1{fill:#EC2C53;}
	.st2{fill:#FFFFFF;}
</style>
<g>
	<g>
		<g>
			<path d="M180.9,586.4c0,91.3,54.1,102.6,78.6,102.6c45.9,0,64.1-34.6,64.1-70.7c0-41.4-22.3-54.2-138.7-105.1
				C131.9,490.9,0.2,435.6,0.2,288c0-158.2,103.8-241.7,242.2-241.7c113.1,0,262.5,61.3,265.5,250.3H332.3c0-26.7-5.9-83-65.2-83
				c-33.7,0-66.4,24.4-66.4,61.6c0,36.1,11.8,45.7,147.5,109.4c140.9,65.8,183.6,149.6,183.6,225.1c0,125.3-70.2,244.4-270.3,244.4
				C110.9,854.2-4.9,740.4,0.2,586.4H180.9z"/>
		</g>
		<polygon points="1324.4,854.2 1105.6,854.2 1074.3,47.2 1304.3,334.2 		"/>
		<polygon points="784.5,854.2 565.6,854.2 534.3,47.2 753.2,47.2 		"/>
		<polygon points="2305.5,854.2 2079.7,854.2 1619,195.8 1740.8,47.2 		"/>
		<polygon points="1797.2,813.5 1599.8,854.2 1149.3,210.3 1074.3,47.2 1261,47.2 		"/>
		<polygon points="1324.4,854.2 1088.8,854.2 563.5,103.4 760.2,47.2 1300,817.8 		"/>
		<rect x="776.4" y="419.2" transform="matrix(6.123234e-17 -1 1 6.123234e-17 202.3123 1518.4131)" width="168" height="477.8"/>
		<polygon points="1798.8,854.2 1599.8,854.2 1577.9,801.8 1548.6,47.2 1740.8,47.2 1772.4,172.5 		"/>
		<path d="M2440.6,706.6c-18.9-33.7-30.2-92,22.8-178.8c54-88.3,109.8-106.8,147.2-106.8c19,0,32.7,4.8,39,7.6l267.3-381.5h-782.1
			h-172.9h-176.1l450.8,643.2l1.7,3.9l113.1,159.9l4-5.7l92-131.3C2445,713.8,2442.7,710.3,2440.6,706.6z"/>
		<path d="M3665.3,191.7c16.1,13.7,179.2-117.3,174.6-178.6C3834.7-56.3,3640.5,170.6,3665.3,191.7z"/>
		<path d="M3808.5,387.6c-17.4-17.8-73.7,68.4-131.6,58.8c-30.5-5.1-27.5-34.6-24.8-47.2c0.7-3.3,3.4-5.9,6.8-6.6
			c59.7-12.4,165.2-129.1,129.4-170.7c-33.5-39-127.8,21.9-160.6,64.3c-39.2,50.6-75.9,120.6-105.6,156.6
			c-58.7,71.1-51.7,3.3-41.7-17.9c21.1-44.6,38.5-130.6,10.7-148.9c-24.2-15.9-61.3,30.6-73.8,48.8c-31.4,45.6-55.1,36-40.6-2.7
			c18.9-50.1,41.9-121.7,13.1-131.6c-39.5-13.6-85.3,127.7-98.1,175.3c-12.1,45.2-76.5,210.2-116.9,185.6
			c-26.3-16.1,1.2-88.9,13.3-115.2c27.5-59.5,34.2-86.1,14-94.3c-44.2-18-103.5,128.1-120.6,157.2c-29.7,50.6-84.4,112.8-87.1,52.3
			c-2.7-60.5,93-136.4,56-165.1c-36.9-28.7-99.1,99.1-99.1,99.1c-38.3,87.1-56.4,69.7-56.4,69.7c-5.4-91.8-42.3-146.4-86.8-146.4
			c-45.1,0-83.4,50.1-100.7,106.3c-7.9,37.4-40.6,108.4-108.2,148.8c-37.4,22.3-112.6,30.8-82.5-53.5c0,0,26-65.1,70.2-47.4
			c34.2,13.7,87.5-92,54.7-111.6c0,0-78-42-158.1,89.1c-84.9,138.8,5.5,202.8,52.8,202.3c56.2-0.6,134.2-94.3,145.5-110.2
			c7.9-11,19-23.1,24.2-9c21.7,59.4,61,72,89.6,71.1c43.5-1.3,61.5-45.4,81.3-69c18.2-21.6,71.1-80.2,72.2-41.9
			c1.7,57.9,81.9,89.1,110,27.8c25.9-56.5,50.1-48.1,54.2-23.4c9,53.9,42.5,43.7,42.5,43.7c50.2,0,106.1-104.5,125.9-147.8
			c16.9-37,27.3-18.5,25.1,12.5c-4.2,57.9-23.8,114-33.1,154.8c-10.9,47.5,7.2,117.9,40,117.9c23.6,0,31.4-128.8,28.4-165.2
			c0-40.3,47.1-31.4,80.4-34.2c54.2-4.6,89.9-51.6,137.7-118c2.7-3.7,8.5-2.9,9.9,1.5c20.3,62.4,59.6,66.3,86.7,61.9
			C3732.4,502.9,3819.7,399,3808.5,387.6z M3724.7,267.6c15,18.5-39.2,89.1-63.9,74.5C3641.7,330.8,3711.1,250.9,3724.7,267.6z
			 M2813.3,634.3c-32.5,26.3-56.5,0.3-56.4-27.1c0.1-23.8-5.6-57.9,19.1-88.5c20.5-25.4,42.1-33.8,40.7-6.1
			c-0.8,16.6-4.2,31.6,9.9,59.5C2844.1,606.5,2836.7,615.3,2813.3,634.3z M3427.4,451.2c-14.4,29-26,45.4-45.2,40.6
			c-13.1-3.3-12.5-30.5,0.4-60.2c15.7-36.1,37.8-62.4,50.2-57C3445.2,380,3447.2,411.5,3427.4,451.2z"/>
	</g>
</g>
</svg>
