<svg enable-background="new 0 0 3839 1210.3" version="1.1" viewBox="0 0 3839 1210.3" xml:space="preserve" xmlns="http://www.w3.org/2000/svg">
<path class="st1" d="m1383.9902-0.005859375c-2.7031-0.074999925-5.4402 0.005859375-7.9902 0.005859375-39.7 6.5999934-79.3996 12.599225-119.0996 19.199219-117.6999 15.899984-231.5009 50.300407-351.30079 66.90039-83.39992 4.599996-156.80009 29.100771-241.5 21.800781-11.89999-1.3-13.20039 8.0004-13.90039 17.90039 0.6 12.59999 15.90079 8.69883 21.80078 9.29883 5.29999 17.89998-20.50079 5.30079-29.80078 11.30078-6.59999 4-6.59961 10.59923-6.59961 17.19922 2 7.19999 7.99962 8.60039 14.59961 9.90039 4.59999 5.89999 16.50039 7.29923 13.90039 17.19922-4.6 7.99999-11.89884 15.30156-21.79883 14.60156 0.6 1.3 5.89882 3.29961 1.29883 4.59961 3.3 10.59999 15.20079-0.00117 23.80078 3.29883 3.9 6.59999 5.3004 13.90001 9.90039 20.5 81.29992-2 160.69891-19.79962 242.79883-27.09961 0.6 1.3 2.00078 2.00078 3.30078 3.30078-31.79997 142.89986-66.20045 285.19935-130.40039 414.19922-46.89995 76.09992-109.80049 177.3004-208.40039 187.90039-52.29995 5.89999-86.69965-31.79963-127.09961-55.59961-1.3-11.29999-10.60001-14.60118-18.5-19.20117-2-1.9-0.70079-6.59961-5.30078-4.59961-5.3 1.3-11.29961 3.99962-10.59961 10.59961 26.49997 74.79992 107.90045 98.00042 171.40039 124.40039 107.89989 32.39997 191.90084-57.60008 250.80078-135 57.59994-58.89994 76.80004-133.00007 112.5-200.5 33.79997-113.09989 74.80002-223.59934 94.00002-342.69922 15.9-7.29999 29.8-17.20039 49-15.90039 5.3-6.59999 22.4984-15.89962 17.8984-27.09961 30.5-3.4 60.2012-17.20001 88.7012-28.5-0.6-1.3-2.0008-2.00078-3.3008-3.30078 17.2-14.49999 42.4004-8.59884 58.9004-23.798829-6-23.199977 25.8008-15.201582 25.8008-35.101562-0.6-1.299999-6.6004 4.599995-9.9004 0-9.9 0.599999-28.4008 1.301545-21.8008-15.898438 41.7-9.89999 86.7012-12.601178 129.7012-19.201172 4.7-3.999996 11.8996-3.998833 14.5996-9.298828-1.5-9.4499903-9.3008-11.0816406-17.4102-11.30664038zm-1380.890591 0.005859375v50h282.3007806v-50h-282.3007806zm282.3007806 62.5-101.59961 63.59961c-8.59999 4.69999-10.80156 2.90077-14.10156-3.69922-11.99999-23.899975-43.20004-49.999999-78.500001-49.999999-50.49995 0-88.0996096 37.698869-88.0996096 76.298829v51.40039c0 17.29998 17.0996296 38.5 37.0996096 38.5h245.201171l-0.09961-47h-232.201171v-32.40039c0-23.19998 22.899626-37.89844 39.59961-37.89844 15.899981 0 30.601571 11.00002 36.101561 27.5 5.5 16.49998 12.00001 24.89844 24.5 30.39844 12.59999 5.49999 26.89845 2.20038 37.89844-4.09961l94.20117-56.90039v-55.69922zm1786.40431 17.121094c-9.9244-1.499803-13.2926 15.366012-23.7051 12.478515-6-5.299994-11.3004 2.600784-15.9004 5.300782-29.2 18.499979-41.1 52.900029-51 83.999999-20.5 25.09998-29.1 55.60003-41 84-19.9 49.59995-48.9996 95.20005-57.5996 149.5-18.5 23.09998-12.4996 57.50003-25.0996 84-22.5 46.99995-24.4996 101.29927-12.5996 154.19922 7.9 7.99999 7.3 19.90001 18.5 26.5 29.7 16.49998 62.1996 11.20077 90.5996-2.69922 38.3-33.69997 76.0008-71.50004 109.8008-108.5 7.3 11.99999-9.2004 17.30001-7.9004 30.5-11.2 25.19998-5.3004 44.99886-9.9004 72.79883 8.6 5.29999 12.5004 16.50079 7.9004 25.80078 23.1 44.39996 74.1 10.6 106.5 6-15.3 13.19999-14.6 33.10079-28.5 46.30078 0 9.89999-12.0008 11.89884-9.3008 23.79883-13.9 7.29999-9.8988 27.79961-23.7988 33.09961-3.3 15.19998-19.2 26.50118-22.5 39.70117 4.6 8.59999 10.5984-3.29999 15.8984 2-1.3 8.59999-4.5988 17.79962-3.2988 25.09961 25.1 0 29.6988-28.40001 44.2988-43 5.9 5.99999-5.2996 23.09921 9.9004 19.19922 7.9-11.29999 15.1996-23.19962 27.0996-33.09961 0 5.29999-4.5988 11.90118-5.2988 19.20117 2 1.4 3.8996 3.99922 6.5996 2.69922 24.5-23.79998 40.3996-56.90081 55.5996-87.30078 1.4-4 8.5996-17.29882 14.5996-9.29883 0.7 2.6 6.6008 4.59883 9.3008 1.29883 4.6-17.19998 17.8008-31.09963 23.8008-47.59961 37.0999-57.49994 66.8996-117.69889 98.5996-177.29883 4-5.89999 9.2992-14.5 17.1992-14.5-5.3-14.59998 11.9004-7.9004 17.9004-15.90039 1.9 0.6 1.3008 3.29961 1.3008 4.59961 4.7-2 10.5996-2 14.5996-6 24.4-2 34.9992-28.50079 58.1992-33.80078 7.9-4 19.8008-3.29962 23.8008-12.59961 16.5-0.7 29.1-15.19961 45-12.59961 2.7 28.39997-6.0008 61.49964-3.3008 90.59961-6.7 16.49998 5.3004 31.10079 7.9004 44.30078-16.5 24.39998-2.6 55.59925 0 82.69922 5.3-4 1.4008-18.5 9.3008-22.5 7.3 7.19999 0 17.09962 0 25.09961 12.5 10.49999 1.8992 33.10079 11.1992 46.30078-2.7 7.29999 1.2996 15.20001 4.5996 22.5 6 3.9 9.2996-8.59999 12.5996 0 5.3 10.59999-7.8996 9.90039-10.5996 13.90039 4.7 5.99999 2.6996 17.20039 12.5996 17.90039 1.4 10.49999 5.3016 27.09922-9.8984 31.69922 5.2 3.3 3.2984 9.29961 7.8984 12.59961 3.3 0 6.6004-0.59883 7.9004-3.29883 7.9 7.99999 5.3008 22.49884 5.3008 31.79883 2 2.7 5.8996 5.30078 4.5996 9.30078 5.3 3.3 4.7008-4.60039 9.3008-7.90039-3.3-24.49998 7.2988-53.59925 3.2988-80.69922 28.5-192.49981 18.5001-406.90136 63.5-592.20117-3.3-2.6 0.0012-7.30039-3.2988-9.90039-21.2-10.59999-37.0012-4.59962-60.2012-10.59961-8.6 0.6-5.8996-9.29962-6.5996-14.59961-8-4-18.6008-9.30078-29.8008-9.30078-11.3 5.99999-11.8996 20.50079-12.5996 29.80078 2.6 35.09996-35.0996 49.00002-57.5996 71.5 0.6 3.3-5.3008 4.00039-3.3008 7.90039-17.2 11.19999-28.3992 27.80002-39.6992 43-15.2 9.89999-12.4992 30.4004-31.6992 36.40039 4.6 28.49997-38.4016 27.79885-33.1016 52.29883-1.9 3.3-5.2984 4-7.8984 2-8 17.29998-29.8016 28.50002-33.1016 49-21.8 19.79998-19.0985 56.20001-52.8984 63.5-6 19.29998-26.5012 17.90001-39.7012 28.5-6.6 14.59998-25.7992 17.90079-39.6992 25.80078-8.6 7.89999 7.9988 6.6004 5.2988 15.90039-0.6 11.89999-15.1992 17.79845-13.1992 28.39844 14.6-4 29.8-10.59961 43-12.59961-19.2 38.99996-55.0008 67.50004-74.8008 106.5-3.3 4-6.5988-0.59883-9.2988-3.29883-9.3-1.3-17.2-11.20118-20.5-19.20117-4.7-11.89999 0.5988-24.5004 1.2988-36.40039 43.7-128.99987 95.3016-254.09934 162.1016-373.19922v-9.90039c0.7-12.59999-11.9-15.90001-20.5-20.5-1.3-5.99999 4-9.3004 6-13.90039 4-9.29999-3.3004-17.89884-7.9004-25.79883-13.2-7.29999-24.5012-6.59999-37.7012 0-5.2-13.89999-20.4984-5.29962-28.3984-12.59961-19.8 15.19999-26.5012 38.39846-39.7012 56.89844 0.7 9.89999-15.2004 14.50079-9.9004 23.80078-15.3 7.89999-18.5988 30.40001-29.7988 45-17.9 11.19999 13.8992 19.79923-3.3008 31.69922-4.7 2.1-9.9996 8.7-14.5996 6 2 5.29999-3.3008 8.00157-1.3008 12.60156-10.6 10.49999-7.2988 24.40001-3.2988 37-15.9 6.69999-15.9004 28.49924-15.9004 45.69922-17.9 11.19999-4.5992 34.99962-19.1992 47.59961-3.3 46.39995-52.9008 78.10042-85.3008 107.90039-6.7 15.89998-25.2008 19.9008-33.8008 33.80078-22.5 11.89999-42.9988 46.9-72.7988 43-10.6-5.29999-11.2004-19.20157-7.9004-29.10156 19.1-68.19993 40.3-135.59928 84-193.19922 9.2-38.39996 31.0992-72.09925 54.1992-105.19922 13.2-17.79998 3.3016-45.60119 25.1016-60.20117 13.2-31.79997 36.2996-59.60003 47.5996-92-6.6-14.59999-17.8004-10.6004-28.4004-17.90039 18.6-16.49998-15.1996-25.09885-4.5996-42.298829-1.3-3.299997-4.0004-6.000393-6.4004-7.900391-1.725-1.074999-3.2775-1.664649-4.6953-1.878906zm1021.9961 14.478515c-13.9 14.499981-30.4008-1.999599-44.3008 7.900391-13.9 17.19998-39.0004 12.60039-56.9004 15.90039-26.5-4.59999-52.3004 11.30039-79.4004 13.90039-11.3 11.29999-29.8 10.59923-43 19.19922-0.6-0.7-1.2988-0.70078-1.2988-1.30078-13.2 3.3-26.5012 11.90117-39.7012 11.20117-7.2-0.7-9.8992 5.99961-13.1992 10.59961-25.8 3.9-48.9996 23.8004-76.0996 30.40039-10.6 10.59999-4.6012 28.5004-17.2012 38.40039-11.2-0.7-18.4984 13.89843-30.3984 7.89844 2.7 11.89999-4.6016 18.50118-4.6016 31.70117 5.3 18.49998 29.1008 0.70002 31.8008 20.5-1.4 32.39997 41.6-6.00036 41 27.09961 32.4 17.89998 59.5008-18.50079 87.3008-23.80078-4 21.19998-16.5 38.40119-20.5 60.20117-10.6 11.19999-12.6004 28.40001-15.9004 41-27.1 56.19994-39.0012 119.10006-60.2012 178-2 5.3-3.9984 15.89922 4.6016 17.19922-0.7 12.59999-9.3 21.80078-20.5 25.80078-11.2 24.49998-15.8016 51.59963-27.1016 76.09961 5.2 2.7 13.2016 6.59962 4.6016 12.59961-14.6-1.3-4.0016 19.79962-10.6016 27.09961 10.6 9.19999-1.8984 12.60118-7.8984 17.20117-9.9 28.39997-41.7 60.79886-22.5 87.29883-14.5 11.89999 0 27.80118 0 41.70117 11.3 5.99999 10.5992-14.50001 19.1992-20.5 5.3 6.59999 0.7 20.49961 0 25.09961 17.2-14.49999 14.5008-43.00002 23.8008-63.5 2-7.29999 6.5984-11.30078 15.8984-9.30078 6.7 9.29999-0.6 18.60001 6 28.5 21.8-47.59995 41.0012-96.59849 62.2012-144.89844 17.2 5.3-0.6012 23.09845 9.2988 30.39844 6.6-4.7 11.9-7.99845 14.5-15.89844 24.5-112.49989 45.0012-225.60011 80.7012-333.5 5.2 0 3.3004 6.59961 7.9004 6.59961 13.9-29.79997 16.5996-65.6012 37.0996-90.70117 1.9 0.7 7.8996 4 4.5996 6 0 3.99999 0.5996 7.30039 4.5996 7.90039 7.3-14.49999 18.5-27.09885 20.5-44.29883 2.7-19.89998 26.5004-13.20079 38.4004-23.80078 45.6-7.89999 96.6-1.30035 125 35.09961 7.9 19.79998-5.9996 35.00041-12.5996 50.90039-19.8 25.19997-41.0004 49.59964-56.9004 76.09961-7.3 2.7-9.9004-4.59961-15.9004-4.59961-24.5 17.19998-37.1004-26.40078-58.9004-25.80078-1.3 3.99999-12.5996 12.60118-6.5996 21.20117 7.9 15.19999 37.6996 20.50002 27.0996 41-12.6 4.7-25.7992 5.29921-37.6992-1.30078-14.5 1.9-9.9008 19.80078-23.8008 21.80078-0.7 7.29999 7.9016 6.59962 10.6016 12.59961 15.2 2 20.4992 19.79962 31.6992 27.09961 15.9-4.6 27.0992 7.99962 39.6992 14.59961 6.6 22.49998 32.4008 29.1008 46.3008 44.30078 0.7 19.19998 21.9008 31.7008 31.8008 46.30078 9.9 6 25.6984 5.30002 28.3984 20.5 88.6999 43.59996 141.6001 128.29928 221 187.19922 95.2999 56.89994 176.0001 139.00006 270 198.5 3.3 2.7 10.6004 2.0004 7.9004-4.5996-87.3999-46.39996-152.1997-134.40085-233.5996-189.30079-1.4-1.9 2.6008-2.59961 1.3008-4.59961-19.2-21.19998-43.0012-41.70002-66.2012-63.5-60.7999-35.79996-109.1001-101.19925-172-131.69922 4.7-2.6 11.8996-1.30156 14.5996-4.60156-32.3999-27.09997-65.4988-52.90003-95.2988-86-31.1-6.59999-38.4-44.29924-63.5-62.19922-1.3-4-9.2008-8.59961-1.3008-12.59961 10.6 5.99999 20.6 17.29923 28.5 27.19922 5.3 5.29999 24.5012-5.29881 19.2012 11.20117 13.3 11.89999 33.7992 17.89963 45.6992 33.09961 4.7 5.99999 17.3004 9.99921 17.9004-1.30078 7.9 7.19999 16.4988 17.19962 21.7988 27.09961 32.4 21.79998 44.3001 64.90157 84 76.10156 16.6 19.79998 31.8008 45.59845 54.3008 56.89844 72.0999 47.69995 132.3009 103.20005 201.8008 157.5 15.2 10.59999 26.4 23.80157 41 33.10156 19.2 7.99999 34.3996 47.69998 55.5996 28.5-3.3-7.29999-9.9012-17.2-19.2012-20.5-13.9-33.09997-48.3984-26.50042-64.8984-56.90039-37.7-25.79997-72.1001-62.20003-106.5-92-28.4-41.69996-78.7-54.89965-104.5-100.59961-17.2-18.49998-45.0016-19.8008-55.6016-42.30078-36.9999-29.09997-58.7996-72.09925-90.5996-103.19922-9.9-7.29999-22.4004-15.90079-28.4004-25.80078 72.0999-35.79996 164.1016-104.60048 168.1016-193.90039 2-46.99995-15.9008-85.99964-52.3008-117.09961-30.4-19.19998-60.9008-48.29961-95.3008-47.59961-15.2-14.499985-38.9984 1.99921-54.3984-7.800781zm-1710.0391 14.033201c-7.8701-0.24316-16.1738 3.0918-21.8613 6.4668-9.9 15.19998-28.4008 5.89961-44.3008 6.59961-19.9 0-15.9 23.20157-20.5 33.10156-14.6 3.3-8.5996-13.20118-14.5996-19.20117-8 2-11.8992-1.9-19.1992 2-3.9 17.19998-9.9 33.80001-20.5 49-28.4 22.39998-31.7016 58.20081-47.6016 87.30078-14 0.7-1.3996 13.20039-14.5996 15.90039-9.3 12.59999-11.9 32.40001-26.5 43-3.3 23.19998-33.6992 43.70003-33.6992 69.5 0 11.19999-9.9 21.79962-20.5 29.09961 6.6 19.89998-13.9 33.79885-20.5 50.29883-6 2.6-15.2004 0.6004-17.9004 7.90039-12.6 0-28.3992 5.29962-37.6992 14.59961 2.6 2 11.1984 2.00157 7.8984 6.60156-2.7 15.89999 17.8008 7.99962 23.8008 12.59961-2 7.29999-8.7008 13.20001-11.3008 20.5 7.3 12.49999-13.8996 13.19962-6.5996 25.09961-16.5 20.49998-27.8004 44.3008-36.4004 66.80078-11.19997 7.19999-7.89921 20.49845-17.1992 28.39844-10.59999 23.19998-26.49962 46.40002-35.09961 71.5 11.19999 7.99999-10.00078 13.90001-9.30078 22.5-11.89999 0-2.6004 11.90039-9.90039 15.90039 1.3 16.49998-17.19922 23.80002-17.19922 43-1.4 15.89998 6.60078 23.80002 1.30078 41 21.19998-10.59999 23.79845-36.99963 36.39844-55.59961h3.30078c5.19999 7.99999-2.1 19.29923-6 27.19922-3.3 3.99999-2.00038 14.60156 4.59961 12.60156 14.59998-31.09997 25.90119-64.20003 45.70117-92 2.70002 14.59999-2.60039 29.80001-7.90039 43 14.60001 11.89999-6.59999 28.40001 0 41 7.99999-7.29999 10.60041-19.90079 15.90041-29.80078-4.7-23.09998 24.5-27.79963 22.5-49.59961 38.3999-80.69992 70.1-164.10086 112.5-242.80078 11.2 0.6 18.4996-8.69961 27.0996-12.59961 39.7-11.89999 82.7004-26.50002 122.4004-43l3.2988 3.30078c1.3 41.09996 3.2996 92.00004 4.5996 135-9.3 21.79998 15.9016 36.39924 6.6016 60.19922-13.3 10.59999 3.8996 26.50001 2.5996 41 5.3 6.59999 6.6004 18.50039 15.9004 15.90039 7.9-8.59999-1.4016-27.79961 7.8984-33.09961-8.6 23.79998 23.8012 34.39963 11.2012 55.59961 1.4 11.19999 1.9996 23.8004 14.5996 28.40039 6-17.89998 8e-4 -42.40158 11.3008-61.60156 9.3 2.1 9.8992 16.6004 17.1992 23.90039 15.2 8.59999 9.2996-12.59923 12.5996-19.19922-2-152.09985 1.3004-314.19976 15.9004-465.09961-0.6-27.79997 12.5992-56.90041-1.3008-81.40039-27.1 1.9-8.5984-31.80119-15.8984-45.70117-3.75-3.4875-8.317-4.92051-13.0391-5.06641zm341.9375 15.4668c-39.6999 5.99999-77.3992 14.6008-111.1992 33.80078 0 5.99999-6.7008 6.7-11.3008 6-27.8 15.19999-39 50.90002-65.5 65.5-13.3 29.09997-42.9988 46.90042-52.2988 77.40039-51 76.09993-55.5996 182.69892-33.0996 273.29883 21.9 48.99995 58.8993 97.3008 111.1992 117.80078 35.7 21.19998 81.4004 27.79921 120.4004 17.19922 29.1-4.6 41.6992-33.79963 60.1992-53.59961 15.2-1.4 19.7996 12.50079 29.0996 21.80078 18.5-3.3 7.3008 32.39999 29.8008 20.5 3.3 3.4 8e-4 8.59883 3.3008 11.29883 2.7-1.3 6-1.29961 8-4.59961-1.3-11.29999-4.6008-23.19962-3.3008-33.09961-24.5-105.19989 35.7004-196.49971 36.4004-299.09961-10-7.99999-17.9 8.59844-28.5 9.89844-4-2-2.6008-5.99844-3.3008-9.89844-2.6-10.59999-11.2-12.59999-20.5-8-19.9 21.79998-46.3 27.79923-69.5 39.69922-7.9 5.89999-30.3988-6.60076-25.7988 13.19922-17.3 3.99999-41.1012 6.70002-45.7012 26.5-33.1 2-21.9 41.00157-51 49.60156-5.3 5.4 2 8.69883 6 9.29883 27.8-18.49998 59.5008-27.10001 89.3008-41 4.6-5.89999 11.1996 2.7 4.5996 6 15.9-0.7 29.7008-10.59883 44.3008-9.29883-9.9 24.49998-12.6012 45.70003-19.2012 71.5 5.3 24.49998-15.1992 49.00002 3.3008 71.5-9.3 7.29999 6.5996 11.29923 6.5996 19.19922-25.1 21.79998-55.4996 35.0996-90.5996 27.09961-39.7-6.59999-72.1004-37.10003-99.9004-65.5-33.8-48.89995-31.0996-120.40006-14.5996-176 33.1-83.39992 118.4993-143.60042 197.1992-173.40039 21.9-5.9 45.0004-6.59923 64.9004-17.19922 7.3-7.29999-8e-4 -15.90001-3.3008-22.5 4-2 8.0008-4 11.3008-6 5.3-7.19999-1.9004-14.49922-7.9004-13.19922-21.8 9.29999-19.7992-19.20078-37.6992-23.80078 9.9-27.69997-23.8012-10.60041-31.7012-31.90039zm815.8008 127.20117c-0.7 5.3 1.2996 8.59883 4.5996 11.29883 4.6 0.7 9.2004-5.30039 9.9004-7.90039 0.7 17.79998-11.9004 32.40158-9.9004 49.60156-8.6 2.6-10.5988 13.20001-9.2988 20.5 11.3 9.19999-7.9008 13.19962-1.3008 27.09961-19.8-12.49999-34.4004 7.29962-50.9004 12.59961-3.4 17.19998-25.7988 11.20001-31.7988 20.5h-4.6016c21.2-48.99995 58.9008-90.69926 93.3008-133.69922zm-2256.09961 2-255.599609 75.39844c-19.59998 5.49999-29.800781 16.30041-29.800781 35.90039 0 19.59998 10.200801 30.4004 29.800781 35.90039l255.599609 75.5v-50l-69.09961-20.40039v-82l69.09961-20.29883v-50zm1008.09961 4.59961c2 44.99996-3.2996 86.69926-2.0996 131.69922-20.5 9.19999-45.0012 15.20002-58.2012 35-11.9-4.6-22.3992 1.29961-31.6992 6.59961-5.3 7.89999-3.2992 20.50117-19.1992 17.20117-2-4-2-8.59961 0-12.59961 27.8-55.49994 55.5992-110.50044 88.6992-163.40039 6 15.89998 13.9004-1.99961 17.9004-6.59961 0-3.3 3.2996-5.30039 4.5996-7.90039zm-1124.5 79.69922v54.09961l-91.800781-27.09961 91.800781-27zm-165.9003906 96.30078v169.09961h49.9999996v-59.5h232.400391v-50.09961h-232.400391v-59.5h-49.9999996zm2921.197291 36.67578c-6.2379 0.16431-11.6602 3.77931-15.5977 14.12305 11.9 9.89999 1.3 15.90157 0 27.10156 5.9 9.99999 17.8004 8 28.4004 8 7.3 15.29999 25.8004 7.29883 36.4004 9.29883 6.6 10.59999 11.2 21.1004 20.5 30.40039 30.5 16.49998 54.2996 46.30081 78.0996 72.80078 3.3 12.59999 16.5008 13.20001 23.8008 22.5 24.5 6.59999 27.1988 39.10001 52.2988 49 31.7 18.59998 65.5 38.40003 84 71.5 60.8 15.29999 95.3001 85.39925 149.5 113.19922 9.3 7.99999 19.9008 17.20039 31.8008 15.90039 81.9999 73.39993 172.7005 128.29891 255.4004 199.79881 2.6 2.7 8.6004 2.7 9.9004 0-19.9-29.1-54.9004-54.2984-81.4004-79.3984-38.4-32.39999-86.7004-41.70123-122.4004-82.70119-55.4999-52.19995-101.2005-103.19888-161.4004-150.79883-21.9-5.99999-40.4004-19.20079-60.9004-29.80078-17.2-33.69997-54.2-58.19924-84-82.69922-3.9-22.49998-29.6988-26.50118-44.2988-39.70117-29.1-47.69995-81.4012-78.09887-111.2012-123.79883-9.2-0.6-16.4988-6.60118-23.7988-11.20117-4-8.59999-10.6012-15.3004-19.2012-19.40039-14.5062 1.85625-32.1789-14.48452-45.9023-14.12305zm-5.2539 71.07422c-4.3213-0.05493-8.75 0.8875-13.3438 3.25-8 19.19998 19.1004 16.59884 28.4004 25.79883 2 3.99999 1.9996 10.60156 6.5996 12.60156 7.9 25.79998 37.1016 19.89963 53.6016 35.09961 5.3 49.69995 67.5 59.59966 84 104.59961 44.9999 29.79997 73.4996 88.00079 127.0996 95.30078 3.9 7.99999 4.5992 17.90001 13.1992 22.5 154.7999 130.29987 320.9013 238.79852 477.7012 361.89842 7.9 2.7 15.1988 8 23.7988 8-57.4999-52.8999-125.7004-98.6-185.9004-149.5-11.3-9.3-32.4996-9.3-35.0996-28.5-14.5 2-24.5004-11.8992-34.4004-19.1992 1.3-14.49999-19.8984-7.3-17.8984-20.5-19.9-15.19998-43.7004-27.8008-64.9004-44.30078-1.3-23.79998-29.8012-15.29963-39.7012-35.09961-25.2-2.6-35.0996-31.70001-57.5996-41-1.3-8.59999-7.2992-18.5-17.1992-14.5-11.9-11.89999-38.3-15.90041-35-36.40039-17.3-16.49998-33.7996-48.29843-61.5996-36.39844-13.9-17.89998-26.5016-36.40158-37.1016-55.60156-33.0999-29.79997-72.0988-58.19965-95.2988-98.59961 0.7-17.19998-10.6008-29.80001-23.8008-41-13.3-8.59999-29.7992-14.60001-40.6992-26-19.4187-3.25-36.1319-22.21118-54.8574-22.44922zm-2633.64261 20.84961-255.599609 75.40039c-19.59998 5.5-29.800781 16.30041-29.800781 35.90039 0 19.59998 10.200801 30.39844 29.800781 35.89844l255.599609 75.5v-50l-69.09961-20.39844v-82l69.09961-20.30078v-50zm-116.40039 84.30078v54.09961l-91.800781-27.09961 91.800781-27zm2636.4004 95.5c-24.5 7.29999-12.6 37.69963-22.5 55.59961-1.9 2.6-4.6004 3.29883-7.9004 3.29883-2 2.6-5.8996 4.60039-6.5996 7.90039 8.6 2 7.9996 12.60039 14.5996 13.90039 15.2-22.49998 27.1004-46.99964 30.4004-74.09961-2.6-2.6-5.3-5.29961-8-6.59961zm-2566.9004 65.29883c0 46.29995-68.30089 125.40039-172.800781 125.40039h-62.5996096v24.90039h103.4003906c115.49988 0 178.90039-88.30084 178.90039-150.30078h-46.90039zm3374.3086 101.58984c-2.3711-0.08386-4.8399 0.83008-7.3086 3.11133 5.9 24.49998 36.3004 27.80002 50.9004 49 15.9 1.3 29.8 28.49959 43 12.59961-20.5-8.49999-29.6996-32.40079-49.5996-42.30078-9.9 0.6-15.9008-7.99883-23.8008-11.29883-3.2312-5.91249-7.975-10.92683-13.1914-11.11133zm-3609.708991 54.91016v43.80079h282.3007806v-43.80079h-282.3007806zm3707.599591 15.09961c-6 2-2.5988 8.00157-3.2988 12.60156 5.3 9.90002 15.1996 14.49922 25.0996 17.19922 35 18.5 68.1 46.3004 106.5 50.9004-28.4-23.1-62.8004-36.4004-93.9004-56.9004-12.6-5.29999-20.6004-21.90078-34.4004-23.80078zm-3707.599591 34.99998v24.9004h62.5996096c104.499891 0 172.800781 79.1004 172.800781 125.4004h46.90039c0-61.9999-63.40051-150.3008-178.90039-150.3008h-103.4003906zm3667.583991 8.7324c-4.0235 0.1686-6.8215 4.8309-3.084 8.5684 22.5 16.5 45 33.1008 69.5 44.3008 4.7 1.3 11.9004 6.6 15.9004 0-25.8-15.9-51.0004-39.1012-79.4004-52.2012-0.9937-0.5062-1.9875-0.7069-2.916-0.668zm28.4805 91.8086c-2.2853-0.015-4.4493 1.4688-6.4649 5.3594 9.3 8 21.2008 19.1996 31.8008 14.5996v-3.3984c-9.1109-0.4594-17.8709-16.5115-25.3359-16.5606z" fill="#ed1c24"/><path fill-rule="evenodd" clip-rule="evenodd" fill="#FFD100" d="m1121 929.90039c-64.5999 0-117 52.40007-117 117.00001 0 64.5999 52.4001 117 117 117s117-52.4001 117-117c0-64.59994-52.4001-117.00001-117-117.00001zm348.5 0c-64.5999 0-117 52.40007-117 117.00001 0 64.5999 52.4001 117 117 117s117-52.4001 117-117c0-64.59994-52.4001-117.00001-117-117.00001zm348.4004 0c-64.5999 0-117 52.40007-117 117.00001 0 64.5999 52.4001 117 117 117s117-52.4001 117-117c0-64.59994-52.4001-117.00001-117-117.00001zm348.5 0c-64.5999 0-117 52.40007-117 117.00001 0 64.5999 52.4001 117 117 117s117-52.4001 117-117c0-64.59994-52.5001-117.00001-117-117.00001zm348.4004 0c-64.6 0-117 52.40007-117 117.00001 0 64.5999 52.4 117 117 117 64.5999 0 117-52.4001 117-117 0-64.59994-52.4001-117.00001-117-117.00001zm348.3984 0c-64.5999 0-117 52.40007-117 117.00001 0 64.5999 52.4001 117 117 117 64.6 0 117-52.4001 117-117 0-64.59994-52.4-117.00001-117-117.00001z"/><path fill="#231F20" d="m1126.5 974.5c-46.4 0-61.8008 35.5-61.8008 78.5 0 35.1 13.8008 66.4004 53.8008 66.4004 30.9 0 52.5996-21.5004 52.5996-47.4004 0-25.1-16.3004-44.1992-41.9004-44.1992-14.1 0-23.6988 4.7988-30.2988 14.2988h-0.4004c0.2-24.7 7.7992-41.0996 32.6992-41.0996 13.6 0 23.5 3.4004 29.5 7.4004l2.1016-27.50001c-10.6-4.2-22.1008-6.40039-36.3008-6.40039zm334.0996 2.40039-56.1992 83.69921v29.7012h62.5996v26.6992h34.9004v-26.6992h19.9004v-25.3008h-19.9004v-88.09961h-41.3008zm1035.5 0v140.09961h37.3008v-140.09961h-37.3008zm313.9004 0v27.69921h34.5v112.4004h37.4004v-112.4004h34.5v-27.69921h-106.4004zm-700.5 0.09961v140h59c25.1 0 54.5996-7 54.5996-40.5 0-17.1-9.5988-27.1004-28.2988-30.9004v-0.4004c15.7-5.2 24.6992-15.0992 24.6992-32.6992 0-24.09998-19.4996-35.5-45.5996-35.5h-64.4004zm37.3008 26.4004h10.7988c12.4 0 24.5 1.2 24.5 14 0 11.8-12.6004 14.9004-24.9004 14.9004h-10.3984v-28.9004zm-677.8008 2.4004h0.4004v59.1992h-38.5l38.0996-59.1992zm321.6992 27.8984v26.5h54.4004v-26.5h-54.4004zm-672.3984 19.4004c13 0 17.8984 10.6008 17.8984 22.3008 0 10.8-6.1984 19.9004-17.8984 19.9004-12.1 0-18.3008-10-18.3008-21.5 0-10.8 6.0008-20.7012 18.3008-20.7012zm1028.5 4.5h11.3984c12.8 0 27.5 1.4012 27.5 16.7012 0 14.3-14.1984 16.2988-27.8984 16.2988h-11v-33z"/>
</svg>
