<?xml version="1.0" encoding="UTF-8" standalone="no"?>
<!DOCTYPE svg PUBLIC "-//W3C//DTD SVG 1.1//EN" "http://www.w3.org/Graphics/SVG/1.1/DTD/svg11.dtd">
<svg width="100%" height="100%" viewBox="0 0 528 145" version="1.1" xmlns="http://www.w3.org/2000/svg" xmlns:xlink="http://www.w3.org/1999/xlink" xml:space="preserve" xmlns:serif="http://www.serif.com/" style="fill-rule:evenodd;clip-rule:evenodd;stroke-linejoin:round;stroke-miterlimit:2;">
    <g transform="matrix(1,0,0,1,-248.193,-288.044)">
        <path d="M644.237,328.13C651.581,328.377 657.537,331.802 662.104,338.406L671.547,288.044L697.284,288.044L672.658,430.242L649.699,430.242L651.088,420.059C644.669,428.205 637.602,432.279 629.888,432.279C621.309,432.155 614.844,428.853 610.493,422.373C606.142,415.893 604.059,406.573 604.244,394.415L604.521,388.49C605.941,368.123 609.968,352.894 616.603,342.803C623.237,332.712 632.449,327.821 644.237,328.13ZM466.026,410.616C473.062,410.801 477.413,405.802 479.08,395.618L503.057,395.526C502.008,406.635 497.904,415.584 490.744,422.373C483.585,429.162 474.852,432.433 464.545,432.186C455.226,431.939 447.804,429.147 442.28,423.808C436.757,418.469 433.47,411.017 432.421,401.451C431.495,393.674 431.943,384.293 433.763,373.307C435.584,362.321 438.963,353.156 443.9,345.812C451.985,333.715 463.496,327.852 478.432,328.222C488.553,328.531 496.268,332.188 501.576,339.193C506.884,346.198 509.26,355.656 508.704,367.567L484.634,367.475L484.727,361.735C484.48,354.082 481.456,350.101 475.654,349.793C466.582,349.299 461.181,356.345 459.453,370.932L457.694,387.714C456.954,392.721 456.707,396.894 456.954,400.231C457.386,406.969 460.41,410.431 466.026,410.616ZM559.992,430.242C559.498,428.144 559.251,425.551 559.251,422.466C553.573,428.946 547.093,432.186 539.81,432.186C532.095,432.063 525.908,429.224 521.248,423.669C516.589,418.114 514.444,411.202 514.814,402.932C515.37,392.316 519.505,384 527.22,377.982C534.934,371.965 545.303,368.956 558.326,368.956L565.824,368.956L567.028,360.809L567.305,356.643C567.305,351.274 565.145,348.589 560.825,348.589C554.838,348.404 551.197,352.231 549.901,360.069L524.442,360.254C524.998,350.749 528.948,342.988 536.292,336.971C543.637,330.953 552.586,328.006 563.14,328.13C573.076,328.377 580.683,331.509 585.96,337.526C591.237,343.544 593.381,351.49 592.394,361.365L584.247,412.282L583.877,417.189C583.63,421.509 584.062,425.305 585.173,428.576L585.08,430.242L559.992,430.242ZM733.203,432.094C725.118,432.032 718.252,430.057 712.605,426.169C706.958,422.28 702.884,416.834 700.385,409.829C697.885,402.824 697.129,394.847 698.117,385.898L698.95,379.047C700.987,362.445 706.032,349.746 714.086,340.952C722.14,332.157 732.401,327.914 744.868,328.222C754.002,328.469 761.177,331.324 766.392,336.786C771.607,342.248 774.647,349.885 775.511,359.698C776.005,365.562 775.881,371.301 775.141,376.918L773.382,388.953L723.39,388.953C723.082,391.607 722.989,394.168 723.113,396.637C723.545,405.524 727.896,410.06 736.166,410.245C743.881,410.492 751.348,407.561 758.569,401.451L767.179,417.374C763.785,422.003 759.048,425.644 752.969,428.298C746.889,430.952 740.301,432.217 733.203,432.094ZM324.661,402.654L288.834,402.654L277.077,430.242L248.193,430.242L312.441,295.45L336.789,295.45L354.471,430.242L326.976,430.242L324.661,402.654ZM428.44,355.255L420.293,354.329C413.443,354.205 407.919,357.446 403.722,364.049L392.15,430.242L366.506,430.242L383.911,330.074L407.888,329.981L405.851,340.998C408.875,336.184 411.838,332.805 414.739,330.861C417.639,328.917 420.756,327.944 424.089,327.944C426.064,327.944 428.687,328.407 431.958,329.333L428.44,355.255ZM546.846,411.727C551.351,411.85 555.548,409.875 559.436,405.802L563.973,384.602L558.418,384.602C553.481,384.848 549.5,386.515 546.476,389.601C543.451,392.687 541.631,396.575 541.014,401.265L540.921,404.783C540.921,406.758 541.43,408.394 542.449,409.69C543.467,410.986 544.933,411.665 546.846,411.727ZM629.702,394.044C629.394,399.414 630.026,403.472 631.6,406.218C633.174,408.965 635.596,410.338 638.867,410.338C643.249,410.461 647.446,408.147 651.458,403.395L659.512,357.384C657.229,352.693 653.927,350.256 649.606,350.07C640.472,349.577 634.732,356.18 632.387,369.882L631.369,376.918L629.702,394.044ZM298.555,379.973L322.81,379.973L319.014,332.203L298.555,379.973ZM742.369,349.793C735.024,349.484 729.901,354.175 727.001,363.864L725.149,370.622L750.608,370.715C751.225,367.135 751.564,364.235 751.626,362.013C751.873,354.175 748.787,350.101 742.369,349.793Z" fill="white"/>
    </g>
</svg>
