<?xml version="1.0" encoding="UTF-8" standalone="no"?>
<!DOCTYPE svg PUBLIC "-//W3C//DTD SVG 1.1//EN" "http://www.w3.org/Graphics/SVG/1.1/DTD/svg11.dtd">
<svg width="100%" height="100%" viewBox="0 0 384 63" version="1.1" xmlns="http://www.w3.org/2000/svg" xmlns:xlink="http://www.w3.org/1999/xlink" xml:space="preserve" xmlns:serif="http://www.serif.com/" style="fill-rule:evenodd;clip-rule:evenodd;stroke-linejoin:round;stroke-miterlimit:2;">
    <g transform="matrix(1,0,0,1,-103.84,-10.7526)">
        <path id="Path" d="M200.936,51.001C200.942,49.94 201.083,48.929 201.202,47.948L231.647,47.948C231.647,37.483 226.412,28.506 214.013,28.506C201.143,28.506 193.502,38.57 193.502,51.407C193.502,63.016 202.008,73.389 216.577,73.389C221.183,73.389 225.034,72.255 229.193,70.799L230.655,63.377C227.099,66.304 221.353,68.036 216.165,68.036C206.842,68.036 200.895,61.286 200.936,51.001ZM239.311,30.59C243.112,29.067 249.243,28.369 253.089,28.369C262.911,28.369 269.436,33.275 269.436,44.666L269.436,63.562C269.436,67.061 269.49,70.376 270.737,72.704L262.844,72.704L262.558,67.734C259.571,71.592 255.999,73.319 249.937,73.319C237.974,73.319 235.363,65.147 235.363,61.22C235.363,47.205 248.703,47.043 254.497,46.216C257.703,45.763 261.825,44.857 262.447,41.852C263.469,36.881 259.917,33.154 252.656,33.154C247.327,33.154 242.961,34.775 239.314,36.957L239.311,30.59ZM385.472,30.59C389.271,29.067 395.41,28.369 399.252,28.369C409.068,28.369 415.593,33.275 415.593,44.666L415.593,63.562C415.593,67.061 414.83,70.305 416.89,72.704L408.999,72.704L408.712,67.734C405.72,71.592 402.154,73.319 396.092,73.319C384.136,73.319 381.521,65.147 381.521,61.22C381.521,47.205 394.861,47.043 400.653,46.216C403.859,45.763 407.986,44.857 408.601,41.852C409.624,36.881 406.071,33.154 398.81,33.154C393.482,33.154 389.116,34.775 385.468,36.957L385.468,30.593L385.472,30.59ZM377.068,36.385C374.107,34.655 369.432,33.285 366.172,33.285C354.723,33.285 349.477,40.324 349.477,50.464C349.477,60.509 354.607,68.201 365.803,68.201C369.64,68.201 374.863,66.476 378.918,63.986L377.268,71.376C373.141,72.604 369.664,73.189 365.061,73.189C349.328,73.189 341.952,62.028 341.952,50.417C341.952,37.585 351.846,28.558 365.234,28.558C371.087,28.558 375.357,29.993 377.082,30.483L377.068,36.385ZM456.418,34.175L456.418,62.068C456.418,70.825 462.455,73.166 466.927,73.166C468.816,73.258 471.496,72.817 473.366,72.402L474.517,66.997C472.337,67.831 469.803,68.026 468.282,68.026C465.478,68.026 463.451,66.165 463.451,63.254C463.451,60.642 463.385,35.038 463.451,34.219L463.422,34.219C463.794,34.219 469.611,34.199 470.198,34.219C472.105,34.286 473.569,34.403 474.831,34.91L474.838,29.82C474.838,29.82 463.671,29.805 463.452,29.805L463.498,16.749L455.037,19.088C456.203,20.179 456.583,23.372 456.583,25.478C456.583,25.478 456.576,29.379 456.576,29.85C456.196,29.85 451.899,29.871 451.188,29.871L451.188,34.172C451.939,34.172 456.418,34.175 456.418,34.175ZM478.469,67.881L476.504,67.881L476.504,67.202L481.185,67.202L481.185,67.881L479.237,67.881L479.237,73.166L478.469,73.166L478.469,67.881ZM484.361,73.166L482.733,68.32L482.733,73.166L481.947,73.166L481.947,67.202L483.034,67.202L484.754,72.273L486.473,67.202L487.56,67.202L487.56,73.166L486.777,73.166L486.777,68.32L485.148,73.166L484.361,73.166ZM419.846,63.671C423.483,66.269 429.191,68.576 433.376,68.576C439.183,68.576 443.342,65.75 443.342,60.432C443.342,50.616 420.963,52.243 420.963,39.789C420.963,31.368 428.493,28.199 435.669,28.199C437.977,28.199 443.242,28.7 446.589,29.995L446.562,35.747C443.587,33.205 439.05,32.591 436.059,32.591C431.311,32.591 427.744,34.948 427.744,39.568C427.744,46.351 450.106,45.958 450.106,59.882C450.106,68.887 442.306,73.086 433.719,73.086C429.535,73.086 425.171,72.345 421.541,71.305L419.846,63.671ZM105.619,16.636C105.619,14.564 105.225,11.881 104.31,10.753C110.307,10.753 123.264,10.792 128.818,10.792C141.596,10.792 160.876,17.885 160.876,41.797C160.876,59.543 147.266,72.764 128.818,72.764C124.771,72.764 109.321,72.714 103.84,72.714C104.963,70.64 105.619,67.825 105.619,65.603L105.619,16.636ZM166.141,29.792L175.322,28.359L175.322,36.443C177.677,30.623 185.005,25.946 195.417,29.999L192.976,36.391C183.446,31.867 175.322,35.835 175.322,46.419L175.322,68.258C175.322,69.298 175.549,71.395 176.169,72.741L166.633,72.741C167.596,71.554 168.043,69.298 168.043,68.258L168.043,36.756C168.041,34.471 167.574,30.934 166.141,29.792ZM284.752,34.262C284.752,33.752 284.77,29.192 284.77,28.608L275.474,30.045C276.595,31.219 277.455,34.881 277.455,37.499L277.455,67.955C277.455,68.994 277.009,71.518 276.044,72.703L286.178,72.703C285.216,71.515 284.77,68.994 284.77,67.955L284.77,45.04C284.77,36.655 289.957,33.719 295.12,33.719C299.793,33.719 304.016,35.742 304.016,45.04L304.016,67.955C304.016,68.995 303.569,71.518 302.608,72.704L312.436,72.704C311.471,71.516 311.028,68.994 311.028,67.955L311.028,45.04C311.028,35.742 316.772,33.719 321.454,33.719C326.124,33.719 331.01,36.652 331.01,45.04L331.01,67.955C331.01,68.995 330.567,71.518 329.598,72.704L339.064,72.704C338.095,71.516 337.655,68.994 337.655,67.955L337.655,40.688C337.655,36.041 332.911,28.594 321.839,28.594C315.396,28.594 311.675,31.461 308.85,33.926C306.448,31.123 302.538,28.494 296.254,28.494C290.134,28.491 286.519,32.08 284.752,34.262ZM262.834,48.55C261.507,49.799 258.729,50.768 255.862,51.146C248.327,52.132 241.799,53.385 241.799,60.724C241.799,65.078 246.547,68.505 250.306,68.505C260.263,68.505 262.836,61.321 262.836,55.661L262.836,48.55L262.834,48.55ZM408.992,48.55C407.667,49.799 404.887,50.768 402.018,51.146C394.485,52.132 387.959,53.385 387.959,60.724C387.959,65.078 392.703,68.505 396.462,68.505C406.417,68.505 408.992,61.321 408.992,55.661L408.992,48.55ZM114.81,66.687C120.708,67.454 126.153,67.689 131.079,66.985C135.845,66.303 151.861,62.853 151.761,41.59C151.667,21.44 139.221,16.833 129.632,16.269C124.628,15.975 119.797,16.164 114.809,17.027L114.81,66.687ZM202.166,43.306C203.154,38.215 207.866,33.027 213.504,33.027C222.12,33.027 224.613,39.75 224.613,43.306C224.611,43.306 202.166,43.323 202.166,43.306Z" fill="white"/>
    </g>
</svg>
