<?xml version="1.0" encoding="UTF-8" standalone="no"?>
<!DOCTYPE svg PUBLIC "-//W3C//DTD SVG 1.1//EN" "http://www.w3.org/Graphics/SVG/1.1/DTD/svg11.dtd">
<svg width="100%" height="100%" viewBox="0 0 334 193" version="1.1" xmlns="http://www.w3.org/2000/svg" xmlns:xlink="http://www.w3.org/1999/xlink" xml:space="preserve" xmlns:serif="http://www.serif.com/" style="fill-rule:evenodd;clip-rule:evenodd;stroke-linejoin:round;stroke-miterlimit:2;">
    <g transform="matrix(1,0,0,1,0,-146.314)">
        <g transform="matrix(1,0,0,1,-223.251,-76.411)">
            <g transform="matrix(1,0,0,1,223.251,76.411)">
                <path d="M141.371,322.733C134.673,331.875 128.237,333.59 124.839,335.504C121.407,337.418 117.776,338.375 113.882,338.375C103.059,338.375 94.611,334.845 88.539,327.782C82.5,320.754 79.464,310.82 79.464,298.016C79.464,282.834 83.293,269.933 90.98,259.34C98.669,248.745 108.867,243.433 121.539,243.433C131.207,243.433 139.095,246.141 145.266,251.584C151.404,257.029 154.505,265.51 154.505,277.094L135.828,277.094C135.828,271.549 134.606,267.655 132.164,265.445C129.755,263.201 126.225,262.079 121.637,262.079C114.179,262.079 108.405,265.742 104.28,273.067C100.155,280.361 98.109,288.676 98.109,298.016C98.109,304.417 99.429,309.631 102.102,313.658C104.775,317.683 108.768,319.696 114.081,319.696C119.593,319.696 123.915,318.146 126.984,315.01C130.054,311.875 132.331,307.85 133.815,302.933L116.424,302.933L119.263,286.037L153.12,286.037L150.249,302.404C150.248,302.404 148.103,313.558 141.371,322.733ZM235.059,245.644L254.528,245.644L264.825,336.164L247.665,336.164L246.146,318.509L222.881,318.509L216.413,336.164L198.626,336.164L235.059,245.644ZM176.187,280.79L202.784,280.79L200.046,298.279L173.414,298.279L169.949,317.519L200.046,317.519L197.076,336.163L149.687,336.163L164.669,245.678L211.496,245.678L208.626,264.42L179.156,264.42L176.187,280.79ZM281.621,245.678L266.639,336.163L283.964,336.163L289.773,301.678L297.793,301.678L311.189,336.163L331.055,336.163L316.205,297.982C321.387,295.341 325.842,290.953 328.943,286.366C332.177,281.646 333.794,276.137 333.794,269.833C333.794,261.287 331.88,255.149 328.019,251.353C324.193,247.558 318.746,245.678 311.751,245.678L281.621,245.678ZM228.556,303.031L241.724,267.027L244.827,303.031L228.556,303.031ZM292.346,285.442L301.255,285.442C305.611,285.442 309.208,284.387 312.046,282.275C314.852,280.163 316.27,276.995 316.27,272.705C316.27,268.877 315.413,266.335 313.664,265.05C311.915,263.795 309.309,263.168 305.81,263.168L296.306,263.168L292.346,285.442ZM61.94,225.58C55.208,234.72 48.806,236.437 45.374,238.351C41.976,240.266 38.311,241.222 34.451,241.222C23.628,241.222 15.18,237.692 9.107,230.662C3.035,223.6 0,213.701 0,200.863C0,185.683 3.829,172.813 11.518,162.186C19.206,151.593 29.404,146.314 42.108,146.314C51.745,146.314 59.631,149.02 65.802,154.464C71.973,159.877 75.043,168.391 75.043,179.973L56.397,179.973C56.397,174.428 55.177,170.535 52.734,168.291C50.293,166.08 46.795,164.958 42.207,164.958C34.716,164.958 28.941,168.621 24.816,175.914C20.723,183.241 18.645,191.557 18.645,200.894C18.645,207.264 19.999,212.478 22.638,216.503C25.311,220.564 29.304,222.576 34.618,222.576C40.161,222.576 44.452,220.992 47.554,217.856C50.622,214.754 52.899,210.728 54.352,205.811L36.993,205.811L39.799,188.915L73.656,188.915L70.786,205.283C70.785,205.285 68.638,216.44 61.94,225.58ZM240.172,183.637L266.805,183.637L264.031,201.16L237.401,201.16L233.969,220.399L264.031,220.399L261.062,239.012L213.674,239.012L228.656,148.558L275.483,148.558L272.612,167.302L243.144,167.302L240.172,183.637ZM98.24,148.492L117.71,148.492L128.006,239.012L110.813,239.012L109.295,221.356L86.063,221.356L79.561,239.012L61.808,239.012L98.24,148.492ZM222.914,148.658L207.768,239.012L191.465,239.012L204.303,168.985L175.988,239.012L162.623,239.012L156.453,169.019L146.717,239.012L130.217,239.012L145.297,148.658L168.431,148.658L173.612,212.281L199.617,148.492L222.914,148.658ZM91.706,205.912L104.906,169.91L107.975,205.912L91.706,205.912Z" fill="white"/>
            </g>
        </g>
    </g>
</svg>
