<?xml version="1.0" encoding="UTF-8" standalone="no"?>
<!DOCTYPE svg PUBLIC "-//W3C//DTD SVG 1.1//EN" "http://www.w3.org/Graphics/SVG/1.1/DTD/svg11.dtd">
<svg width="100%" height="100%" viewBox="0 0 1127 198" version="1.1" xmlns="http://www.w3.org/2000/svg" xmlns:xlink="http://www.w3.org/1999/xlink" xml:space="preserve" xmlns:serif="http://www.serif.com/" style="fill-rule:evenodd;clip-rule:evenodd;stroke-linejoin:round;stroke-miterlimit:2;">
    <g transform="matrix(1,0,0,1,-0.00239074,-0.135056)">
        <path d="M936.4,6.8C893.4,-3.1 848.7,31.1 836.6,83.2C824.7,135.4 849.7,185.7 892.6,195.7C935.6,205.5 980.2,171.3 992.4,119.2C1004.3,67 979.2,16.7 936.4,6.8ZM446.9,5.1L402.4,108.6L382.7,5.1L344.4,5.1L289.9,157.6L264.4,5.1L216.6,5.1L144.2,169.5L155,100.8L83.1,100.8L77.4,136.2L107.6,136.2L104.1,155.1C86.9,162.2 57.7,159.5 45.2,137.1C37.3,122.9 29.9,91.3 63.2,62.2C90.4,38.5 137.4,34.2 164.5,46.6C164.5,46.6 167.9,26.7 170.5,8.3C118.4,-9.7 77.9,5.3 50.8,22.1C13.7,44.8 -4.1,79.7 0.8,127.1C6.3,182 77.4,216.7 137.7,181.7C138.4,181.4 138.7,181.1 139.3,181L133.5,193.8L174,193.8L199.5,137.3L244.3,137.3L254.1,193.8L320.1,193.8L353.7,88.3L381.3,193.8L407.1,193.8L451.4,77L468.9,194.5L507.6,194.5L493.5,5.1L446.9,5.1ZM507.6,194.6L615.7,194.6L622.2,154.2L554.6,154.2L559.9,120.5L618.8,120.5L625.2,80L565.8,80L570.9,46.5L638.6,46.5L645,6L537.7,6L507.6,194.6ZM778.4,7.3C757.5,7 705.8,7.3 705.8,7.3L706.2,7.3L676.2,194.6L763.5,194.6C799.5,194.6 852,141.7 804.1,98.5C853.1,47.6 804.5,7.9 778.4,7.3ZM1042.9,65.3L1018.7,3.8L974.3,3.8L1020.1,103.3L1005.9,192.4L1044.8,192.4L1056.6,113.6L1126.5,3.8L1081.1,3.8L1042.9,65.3ZM951.5,117.7C941.1,148.9 915.9,167.1 895.4,157.8C875,148.7 866.7,115.8 877.2,84.4C887.7,52.9 912.8,35.1 933.2,44.2C953.7,53.4 962,86.3 951.5,117.7ZM755.7,158.4L721.5,158.4L727.5,120.8L759.9,120.8C790.8,120.8 789.9,158.4 755.7,158.4ZM214.8,100.8L231.2,64.2L238.4,100.8L214.8,100.8ZM760.4,82.2L733.6,82.2L739.5,47.2L764.7,47.2C792.1,47.2 786.5,82.2 760.4,82.2Z" fill="white"/>
    </g>
</svg>
