<?xml version="1.0" encoding="UTF-8" standalone="no"?>
<!DOCTYPE svg PUBLIC "-//W3C//DTD SVG 1.1//EN" "http://www.w3.org/Graphics/SVG/1.1/DTD/svg11.dtd">
<svg width="100%" height="100%" viewBox="0 0 391 35" version="1.1" xmlns="http://www.w3.org/2000/svg" xmlns:xlink="http://www.w3.org/1999/xlink" xml:space="preserve" xmlns:serif="http://www.serif.com/" style="fill-rule:evenodd;clip-rule:evenodd;stroke-linejoin:round;stroke-miterlimit:2;">
    <g transform="matrix(1,0,0,1,-5.87638,-5.85369)">
        <path d="M168.5,7C160.9,5.3 153,11.3 150.9,20.5C148.8,29.7 153.2,38.6 160.8,40.4C168.4,42.2 176.3,36.1 178.4,26.9C180.5,17.7 176,8.8 168.5,7ZM194.2,40.6C196.1,40.6 197.7,39.1 197.7,37.1C197.7,35.2 196.2,33.7 194.2,33.7C192.3,33.7 190.7,35.2 190.7,37.1C190.7,39.1 192.2,40.6 194.2,40.6ZM83.7,6.7L75.9,25L72.6,6.7L65.8,6.7L57,33.7L52.5,6.7L44.1,6.7L31.3,35.7L33.2,23.6L20.5,23.6L19.5,29.8L24.8,29.8L24.2,33.1C21.2,34.4 16,34 13.8,30C12.4,27.5 11.1,21.9 17,16.8C21.8,12.6 30.1,11.9 34.9,14.1C34.9,14.1 35.5,10.6 36,7.3C26.8,4.1 19.6,6.8 14.8,9.7C8.3,13.7 5.2,19.9 6,28.3C7,38 19.5,44.1 30.2,38C30.3,37.9 30.4,37.9 30.4,37.9L29.4,40.2L36.6,40.2L41.1,30.2L49,30.2L50.7,40.2L62.3,40.2L68.2,21.6L72,40.2L76.6,40.2L85.5,19.6L86.4,40.2L93.2,40.2L91.9,6.7L83.7,6.7ZM187.1,17.6L182.9,6.7L175,6.7L183.1,24.3L180.6,40.1L187.5,40.1L189.6,26.1L201.9,6.7L193.9,6.7L187.1,17.6ZM93.9,40.1L113,40.1L114.1,32.9L102.1,32.9L103.1,27L113.5,27L114.6,19.8L104.1,19.8L105,13.9L117,13.9L118.1,6.7L99.2,6.7L93.9,40.1ZM141.3,6.9C137.6,6.8 128.5,6.9 128.5,6.9L128.6,6.9L123.3,40L138.7,40C145,40 154.3,30.7 145.9,23C154.5,14 145.9,7 141.3,6.9ZM194.2,40C192.6,40 191.3,38.8 191.3,37.1C191.3,35.5 192.6,34.2 194.2,34.2C195.8,34.2 197.1,35.5 197.1,37.1C197,38.8 195.8,40 194.2,40ZM194.6,37.3C195.3,37.3 195.8,37 195.8,36.2C195.8,35.9 195.6,35.5 195.4,35.4C195.1,35.2 194.8,35.2 194.5,35.2L192.8,35.2L192.8,39.1L193.3,39.1L193.3,37.4L194.1,37.4L195.2,39.1L195.8,39.1L194.6,37.3ZM193.3,36.9L193.3,35.6L194.4,35.6C194.9,35.6 195.3,35.7 195.3,36.2C195.3,37 194.5,36.9 194,36.9L193.3,36.9ZM395.6,17L377.4,17L377.4,20.4L388.1,20.4L388.1,25.5L377.4,25.5L377.4,29.6L395.9,29.6L395.9,35.1L370.7,35.1L370.7,11.7L395.6,11.7L395.6,17ZM299.9,12.1L311.4,31.1L311.4,11.7L316,11.7L316.2,11.9L333.7,25.6L333.7,11.7L339.9,11.7L339.9,35.1L335.3,35.1L335.1,34.9L317.6,21L317.6,35.1L306.2,35.1L306,34.7L296.5,17.8L289.8,29.9L296.5,29.9L296.5,35.1L279.9,35.1L280.5,34L293.6,12.1L293.8,11.7L299.7,11.7L299.9,12.1ZM362.1,11.7L348.4,11.7C343.6,11.7 342,13.2 342,17.6L342,29.2C342,33.6 343.6,35.1 348.4,35.1L362.1,35.1C366.9,35.1 368.5,33.6 368.5,29.2L368.5,25.9L361.7,25.9L361.7,29.5L348.6,29.5L348.6,17.2L361.7,17.2L361.7,20.4L368.5,20.4L368.5,17.6C368.5,13.1 366.9,11.7 362.1,11.7ZM289.7,11.7L282.5,11.7L282.3,12.1L274.2,27L265.5,12.1L265.3,11.8L257.6,11.8L258.2,12.8L259.7,15.2C257.3,12.9 253.7,11.7 249,11.7L233.5,11.7L233.5,31.1L222,12.1L221.8,11.8L215.9,11.8L215.7,12.1L202.6,34.1L202,35.1L218.5,35.1L218.5,29.9L211.8,29.9L218.5,17.8L228,34.7L228.2,35L247.5,35C257.6,35 262.8,31 262.8,23.2C262.8,21.8 262.6,20.6 262.3,19.5L271.5,34.7L271.7,35L276.2,35L276.4,34.7L289.1,12.7L289.7,11.7ZM171.1,26.6C169.3,32.1 164.8,35.3 161.2,33.7C157.6,32.1 156.2,26.3 158,20.7C159.8,15.2 164.3,12 167.9,13.6C171.6,15.3 173,21.1 171.1,26.6ZM137.3,33.6L131.3,33.6L132.4,27L138.1,27C143.5,26.9 143.4,33.6 137.3,33.6ZM246.4,29.6L240.2,29.6L240.2,17L249,17C253.7,17 256,18.9 256,23C256,28 253.5,29.6 246.4,29.6ZM43.8,23.6L46.7,17.1L48,23.6L43.8,23.6ZM138.1,20.1L133.3,20.1L134.4,13.9L138.8,13.9C143.7,13.9 142.8,20.1 138.1,20.1Z" fill="white"/>
    </g>
</svg>
