<?xml version="1.0" encoding="UTF-8" standalone="no"?>
<!DOCTYPE svg PUBLIC "-//W3C//DTD SVG 1.1//EN" "http://www.w3.org/Graphics/SVG/1.1/DTD/svg11.dtd">
<svg width="100%" height="100%" viewBox="0 0 578 236" version="1.1" xmlns="http://www.w3.org/2000/svg" xmlns:xlink="http://www.w3.org/1999/xlink" xml:space="preserve" xmlns:serif="http://www.serif.com/" style="fill-rule:evenodd;clip-rule:evenodd;stroke-linejoin:round;stroke-miterlimit:2;">
    <g transform="matrix(1,0,0,1,0.000229437,0.000827334)">
        <g transform="matrix(1,0,0,1,0.00021368,0.00330306)">
            <g transform="matrix(1,0,0,1,-0.00021368,-0.00330306)">
                <path d="M457.051,177.395C457.047,177.406 449.781,195.457 433.03,207.742C412.084,224.033 389.183,226.267 389.183,226.267C389.183,226.267 371.031,230.364 355.391,223.291C354.644,222.634 349.805,222.634 337.984,211.558C334.695,216.223 329.791,216.96 329.791,216.96C329.791,216.96 325.23,219.192 312.566,220.403C307.169,220.871 301.773,222.08 301.773,222.08C301.773,222.08 295.253,224.128 290.32,226.458C285.384,228.782 273.749,234.643 261.928,232.69C250.381,230.552 249.917,218.541 249.917,218.541C249.917,218.541 245.45,181.585 245.45,176.092C238.934,202.903 215.196,216.025 215.196,216.025C215.196,216.025 204.766,223.103 190.433,225.989C174.049,230.27 159.991,227.104 159.991,227.104C159.991,227.104 142.581,225.71 126.29,212.117L126.295,212.179C127.182,222.849 117.82,228.967 117.82,228.967C117.82,228.967 113.816,233.342 105.438,232.69C90.079,233.53 70.064,233.808 70.064,233.808C70.064,233.808 49.395,233.902 35.247,228.037C11.976,218.916 4.62,196.661 4.62,196.661C4.62,196.661 -0.219,187.261 0.149,174.323C-0.5,157.752 1.175,154.025 1.175,154.025C1.175,154.025 2.847,138.386 16.722,118.464C37.107,86.351 54.143,77.132 54.143,77.132C54.143,77.132 70.621,63.54 96.033,68.103C104.505,70.055 124.708,72.942 127.128,93.892C128.155,119.397 107.112,117.998 107.112,117.998C107.112,117.998 92.498,118.091 89.893,103.01C85.704,100.779 81.233,102.452 81.233,102.452C81.233,102.452 63.36,107.107 47.164,133.08C34.036,154.118 34.778,169.666 34.778,169.666C34.778,169.666 34.036,193.124 55.821,196.94C69.876,199.917 96.875,197.311 96.875,197.311C96.875,197.311 106.429,195.664 114.743,198.148C104.138,181.206 110.836,159.799 110.836,159.799C110.836,159.799 115.865,135.222 133.365,118.374C144.354,106.272 158.965,100.408 158.965,100.408C158.965,100.408 175.071,91.377 195.553,95.662C219.479,101.057 231.67,116.885 231.67,116.885C231.67,116.885 239.771,125.729 242.843,135.037C243.216,122.842 240.235,115.396 240.235,115.396L234.09,97.983C234.09,97.983 228.596,85.047 240.423,74.433C245.355,71.456 253.919,66.151 266.206,78.531C276.636,90.073 277.474,109.529 277.474,109.529C277.474,109.529 279.151,126.008 278.777,146.208C278.125,157.658 280.36,186.241 281.38,187.727C284.085,187.819 301.583,181.397 301.583,181.397C301.583,181.397 314.126,178.186 321.971,179.909L321.973,179.909L321.971,179.907C316.756,154.866 329.884,134.199 329.884,134.199C329.884,134.199 342.64,105.992 379.318,99.009C398.865,96.404 407.991,99.478 407.991,99.478C407.991,99.478 436.664,103.482 452.947,130.104C450.699,119.653 449.695,117.444 449.695,117.444C449.695,117.444 444.669,103.664 452.764,93.147C470.36,71.455 497.359,73.316 497.359,73.316C497.359,73.316 516.346,71.269 536.731,81.228C544.835,84.861 554.425,91.751 554.425,91.751C554.425,91.751 569.791,99.756 564.385,120.144C560.479,138.669 542.227,150.769 542.227,150.769C542.227,150.769 535.894,155.705 522.774,162.871C542.325,178.884 571.182,202.158 571.182,202.158C571.182,202.158 578.995,207.092 576.944,217.145C575.274,225.618 568.667,230.457 568.667,230.457C568.667,230.457 563.458,235.581 557.769,235.483C550.704,236.32 548.741,233.994 548.741,233.994C548.741,233.994 546.426,232.69 537.2,225.432C528.36,218.076 513.275,205.416 513.275,205.416L492.515,188.472C492.515,188.472 492.889,209.233 491.956,213.701C491.68,219.377 489.725,232.69 473.714,232.786C450.438,229.433 452.579,209.326 452.579,209.326C452.579,209.326 452.113,202.714 455.279,195.92C457.605,192.288 457.051,177.397 457.051,177.397L457.051,177.395C457.055,177.129 457.456,151.019 452.948,130.105L457.051,177.395ZM205.885,179.627C205.885,179.627 196.387,196.198 175.535,194.241C151.053,191.731 148.168,170.227 148.168,170.227C148.168,170.227 144.818,154.402 159.896,140.623C175.164,127.775 191.082,129.729 191.082,129.729C191.082,129.729 201.788,130.754 207.284,148.442C214.356,170.972 205.885,179.627 205.885,179.627ZM408.36,184.471C382.015,200.295 365.445,182.978 365.445,182.978C365.445,182.978 358.091,178.139 356.508,163.431C355.391,146.394 372.333,137.552 372.333,137.552C372.333,137.552 381.273,132.058 392.443,132.895C403.616,133.733 407.149,132.988 416.18,139.692C424.741,147.419 424.188,153.096 424.188,153.096C424.188,153.096 427.256,172.275 408.36,184.471ZM492.428,136.061L490.655,111.765C490.655,111.765 507.689,111.392 514.766,112.602C528.734,114.744 527.981,118.655 527.981,118.655C527.981,118.655 527.52,123.586 516.908,128.431C505.363,134.013 492.428,136.061 492.428,136.061ZM355.758,66.878L353.44,66.878L355.381,58.623L352.034,58.623L352.451,56.848L361.463,56.848L361.045,58.623L357.699,58.623L355.758,66.878ZM371.111,66.878L368.951,66.878L370.921,58.496L370.891,58.496L366.856,66.878L364.585,66.878L364.531,58.496L364.503,58.496L362.532,66.878L360.371,66.878L362.727,56.848L366.104,56.848L366.255,64.756L366.288,64.756L370.118,56.848L373.47,56.848L371.111,66.878ZM279.08,26.382C282.894,9.86 297.013,-0.982 310.616,2.163C324.224,5.308 332.164,21.246 328.352,37.765C324.541,54.284 310.42,65.127 296.817,61.983C283.209,58.838 275.269,42.898 279.08,26.382ZM63.09,57.322C62.967,57.398 62.824,57.482 62.659,57.578C43.56,68.628 21.016,57.659 19.275,40.252C17.776,25.244 23.404,14.207 35.103,6.968C43.694,1.645 56.519,-3.13 73.025,2.598C72.21,8.467 71.119,14.742 71.119,14.742C62.523,10.785 47.649,12.148 39.061,19.65C28.502,28.869 30.823,38.897 33.328,43.389C37.283,50.483 46.561,51.302 52.015,49.12L53.108,43.115L43.587,43.115L45.333,31.929L68.118,31.929L64.696,53.677L87.625,1.645L102.767,1.645L110.816,49.939L126.505,1.646L138.644,1.646L144.646,34.387L158.565,1.646L173.299,1.646L175.889,61.397L163.614,61.397L161.974,24.427L146.014,61.397L137.828,61.397L131.009,27.973L120.367,61.397L99.495,61.397L96.356,43.528L82.169,43.528L74.119,61.397L61.294,61.397L63.09,57.322ZM211.088,61.397L213.135,48.574L191.715,48.574L193.414,37.932L212.041,37.932L214.09,25.109L195.261,25.109L196.9,14.468L218.314,14.468L220.363,1.646L186.395,1.646L176.844,61.397L211.088,61.397ZM370.565,1.645L356.239,1.645L344.097,21.152L336.46,1.645L322.407,1.645L336.869,33.157L332.412,61.397L344.692,61.397L348.462,36.433L370.565,1.645ZM239.049,1.978L229.574,61.279L257.19,61.279C268.563,61.279 285.194,44.517 270.054,30.818C285.621,14.707 270.186,2.117 261.929,1.978C255.296,1.868 238.916,1.978 238.916,1.978L239.049,1.978ZM297.661,50.019C304.156,52.924 312.11,47.224 315.423,37.288C318.731,27.348 316.155,16.933 309.661,14.028C303.165,11.121 295.217,16.822 291.902,26.763C288.59,36.704 291.17,47.112 297.661,50.019ZM245.819,37.857L243.924,49.77L254.754,49.77C265.586,49.77 265.858,37.857 256.106,37.857L245.819,37.857ZM94.507,31.929L92.261,20.337L87.078,31.929L94.507,31.929ZM249.608,14.57L257.599,14.57C266.263,14.57 264.505,25.672 256.249,25.672L247.715,25.672L249.608,14.57Z" fill="white"/>
            </g>
        </g>
    </g>
</svg>
