<?xml version="1.0" encoding="UTF-8" standalone="no"?>
<!DOCTYPE svg PUBLIC "-//W3C//DTD SVG 1.1//EN" "http://www.w3.org/Graphics/SVG/1.1/DTD/svg11.dtd">
<svg width="100%" height="100%" viewBox="0 0 535 107" version="1.1" xmlns="http://www.w3.org/2000/svg" xmlns:xlink="http://www.w3.org/1999/xlink" xml:space="preserve" xmlns:serif="http://www.serif.com/" style="fill-rule:evenodd;clip-rule:evenodd;stroke-linejoin:round;stroke-miterlimit:2;">
    <g transform="matrix(1,0,0,1,-135.698,-33.9826)">
        <g transform="matrix(1,0,0,1,-137.714,-352.087)">
            <g id="path17743" transform="matrix(1,0,0,1,53.4677,333.238)">
                <path d="M336.094,159.309L315.205,121.92L299.843,147.117L316.506,147.117L316.506,159.309L279.198,159.309L309.028,107.29L321.464,107.29L346.254,150.171L346.254,107.29L359.015,107.29L380.148,143.866L401.281,107.29L414.042,107.29L414.042,159.309L401.2,159.309L401.2,131.674L385.269,159.309L375.028,159.309L359.015,131.674L359.015,159.309L336.094,159.309ZM738.107,159.309L735.669,159.309L735.669,149.556L732.174,149.556L732.174,147.117L741.683,147.117L741.683,149.556L738.107,149.556L738.107,159.309ZM754.363,159.309L752.087,159.309L752.087,149.556L749.893,159.309L747.536,159.309L745.341,149.556L745.341,159.309L743.065,159.309L743.065,147.117L746.641,147.117L748.755,156.871L750.868,147.117L754.363,147.117L754.363,159.309ZM590.664,147.117L560.428,147.117L560.428,107.29L546.529,107.29L546.529,146.305C546.529,156.058 549.78,159.309 559.94,159.309L591.152,159.309C601.393,159.309 604.645,156.058 604.645,146.305L604.645,107.29L590.664,107.29L590.664,147.117ZM280.905,127.61L248.555,127.61L248.555,138.989L267.25,138.989L267.25,147.117L233.844,147.117L233.844,118.669L280.336,118.669L280.336,107.29L233.356,107.29C223.196,107.29 219.945,110.541 219.945,120.295L219.945,146.305C219.945,156.058 223.196,159.309 233.356,159.309L267.412,159.309C277.654,159.309 280.905,156.058 280.905,146.305L280.905,127.61ZM434.118,137.364L456.877,137.364L456.877,126.797L434.118,126.797L434.118,117.856L473.133,117.856L473.133,107.29L420.219,107.29L420.219,159.309L473.621,159.309L473.621,147.117L434.118,147.117L434.118,137.364ZM686.088,137.364L708.846,137.364L708.846,126.797L686.088,126.797L686.088,117.856L725.183,117.856L725.183,107.29L672.189,107.29L672.189,159.309L725.59,159.309L725.59,147.117L686.088,147.117L686.088,137.364ZM661.297,132.487C664.63,130.861 666.499,127.61 666.499,124.359L666.499,117.856C666.499,110.541 662.516,107.29 654.144,107.29L610.741,107.29L610.741,159.309L651.137,159.309C661.622,159.309 666.987,155.245 666.987,147.93L666.987,141.428C666.987,137.364 664.955,134.113 661.297,132.487ZM527.51,107.29L497.029,107.29C486.869,107.29 483.618,110.541 483.618,120.295L483.618,146.305C483.618,156.058 486.869,159.309 497.029,159.309L527.51,159.309C537.67,159.309 541.002,156.058 541.002,146.305L541.002,136.551L527.022,136.551L527.022,147.117L497.517,147.117L497.517,118.669L527.022,118.669L527.022,127.61L541.002,127.61L541.002,120.295C541.002,110.541 537.67,107.29 527.51,107.29ZM653.901,144.679C653.901,147.117 653.413,147.93 649.593,147.93L624.64,147.93L624.64,137.364L649.593,137.364C653.413,137.364 653.901,138.177 653.901,140.615L653.901,144.679ZM624.64,117.856L649.511,117.856C653.413,117.856 653.575,118.669 653.575,120.295L653.575,124.359C653.575,125.985 653.413,126.797 649.511,126.797L624.64,126.797L624.64,117.856ZM715.999,63.399C715.999,57.709 710.309,52.832 703.4,52.832L696.654,52.832C689.745,52.832 684.056,57.709 684.056,63.399L684.056,82.906C684.056,88.596 689.745,93.472 696.654,93.472L703.4,93.472C710.309,93.472 715.999,88.596 715.999,82.906L715.999,63.399ZM303.582,52.832L312.117,52.832L312.117,92.66L303.582,92.66L303.582,52.832ZM484.187,82.906C484.187,88.596 489.47,92.66 496.217,92.66L513.692,92.66L513.692,86.97L496.948,86.97C494.347,86.97 491.665,84.532 491.665,82.093L491.665,75.591L513.692,75.591L513.692,69.088L491.665,69.088L491.665,63.399C491.665,60.96 494.347,59.335 496.948,59.335L513.692,59.335L513.692,52.832L496.461,52.832C489.633,53.645 484.187,57.709 484.187,63.399L484.187,82.906ZM581.48,92.66L581.48,52.832L573.921,52.832L573.921,78.842L560.997,52.832L550.837,52.832L550.837,92.66L558.396,92.66L558.396,61.773L573.921,92.66L581.48,92.66ZM362.104,61.773L377.71,92.66L385.188,92.66L385.188,52.832L377.629,52.832L377.629,78.842L364.786,52.832L354.545,52.832L354.545,92.66L362.104,92.66L362.104,61.773ZM238.07,61.773L253.676,92.66L261.154,92.66L261.154,52.832L253.595,52.832L253.595,78.842L240.752,52.832L230.511,52.832L230.511,92.66L238.07,92.66L238.07,61.773ZM636.994,92.66C643.984,92.66 649.593,88.596 649.593,82.906L649.593,63.399C649.593,57.709 643.984,52.832 636.994,52.832L618.625,52.832L618.625,92.66L636.994,92.66ZM432.005,92.66L440.133,92.66L440.133,59.335L452.894,59.335L452.894,52.832L419.163,52.832L419.163,59.335L432.005,59.335L432.005,92.66ZM708.521,82.906C708.521,85.344 705.757,86.97 703.156,86.97L696.898,86.97C694.216,86.97 691.533,85.344 691.533,82.906L691.533,63.399C691.533,60.96 694.216,59.335 696.898,59.335L703.156,59.335C705.757,59.335 708.521,60.96 708.521,63.399L708.521,82.906ZM626.103,59.335L636.75,59.335C639.433,59.335 642.115,60.96 642.115,63.399L642.115,82.093C642.115,85.344 639.351,86.97 636.75,86.97L626.103,86.97L626.103,59.335Z" fill="white"/>
            </g>
        </g>
    </g>
</svg>
