<?xml version="1.0" encoding="UTF-8" standalone="no"?>
<!DOCTYPE svg PUBLIC "-//W3C//DTD SVG 1.1//EN" "http://www.w3.org/Graphics/SVG/1.1/DTD/svg11.dtd">
<svg width="100%" height="100%" viewBox="0 0 225 38" version="1.1" xmlns="http://www.w3.org/2000/svg" xmlns:xlink="http://www.w3.org/1999/xlink" xml:space="preserve" xmlns:serif="http://www.serif.com/" style="fill-rule:evenodd;clip-rule:evenodd;stroke-linejoin:round;stroke-miterlimit:2;">
    <g transform="matrix(1,0,0,1,-3.58801,-6.10223)">
        <g transform="matrix(1,0,0,1,0,-1007.36)">
            <g id="path6717" transform="matrix(1,0,0,1,0,1007.36)">
                <path d="M125.344,15.184C125.112,14.396 124.86,13.634 124.587,12.899C124.229,11.936 123.763,11.063 123.19,10.282C122.63,9.527 121.947,8.925 121.14,8.475C120.332,8.026 119.343,7.801 118.171,7.801C116.934,7.801 115.879,8.199 115.007,8.993C114.134,9.787 113.698,10.757 113.698,11.903C113.698,13.101 113.978,14.094 114.538,14.882C115.098,15.669 115.912,16.317 116.979,16.825C117.93,17.281 118.864,17.675 119.782,18.007C120.7,18.339 121.589,18.693 122.448,19.071C123.229,19.41 123.981,19.794 124.704,20.223C125.427,20.653 126.055,21.154 126.589,21.727C127.175,22.378 127.608,23.091 127.888,23.866C128.168,24.641 128.308,25.542 128.308,26.571C128.308,29.019 127.403,31.037 125.593,32.626C123.783,34.214 121.537,35.008 118.854,35.008C117.617,35.008 116.38,34.816 115.143,34.432C113.906,34.048 112.839,33.583 111.94,33.036L111.101,34.462L109.538,34.462L109.265,24.969L110.847,24.969C111.172,26.141 111.553,27.199 111.989,28.143C112.425,29.087 113.002,29.969 113.718,30.79C114.395,31.558 115.186,32.17 116.091,32.626C116.996,33.081 118.047,33.309 119.245,33.309C120.143,33.309 120.928,33.192 121.599,32.958C122.269,32.723 122.813,32.391 123.229,31.962C123.646,31.532 123.955,31.027 124.157,30.448C124.359,29.869 124.46,29.201 124.46,28.446C124.46,27.339 124.147,26.307 123.522,25.35C122.897,24.393 121.966,23.667 120.729,23.173C119.883,22.834 118.913,22.46 117.819,22.049C116.725,21.639 115.781,21.252 114.987,20.887C113.425,20.184 112.211,19.263 111.345,18.124C110.479,16.984 110.046,15.497 110.046,13.661C110.046,12.606 110.261,11.623 110.69,10.712C111.12,9.8 111.732,8.986 112.526,8.27C113.281,7.593 114.173,7.063 115.202,6.678C116.231,6.294 117.305,6.102 118.425,6.102C119.701,6.102 120.843,6.298 121.852,6.688C122.862,7.079 123.783,7.535 124.616,8.055L125.417,6.727L126.979,6.727L127.123,15.184L134.118,15.184L134.118,16.551C133.728,16.564 133.259,16.646 132.712,16.796C132.165,16.945 131.892,17.118 131.892,17.313C131.892,17.391 131.921,17.522 131.98,17.704C132.038,17.886 132.107,18.075 132.185,18.27C132.68,19.559 133.435,21.418 134.451,23.846C135.466,26.275 136.254,28.218 136.814,29.676C137.4,28.283 138.008,26.841 138.64,25.35C139.271,23.859 139.978,22.098 140.759,20.067C140.85,19.82 140.98,19.478 141.15,19.042C141.319,18.605 141.404,18.231 141.404,17.919C141.404,17.58 141.107,17.264 140.515,16.971C139.923,16.678 139.359,16.499 138.826,16.434L138.826,15.184L145.974,15.184L145.974,15.507C146.984,14.927 148.205,14.637 149.636,14.637C150.392,14.637 151.163,14.735 151.951,14.93C152.739,15.126 153.38,15.36 153.875,15.633L154.324,14.618L155.73,14.618L155.761,15.262L158.162,15.262L158.162,9.266L161.717,9.266L161.717,15.262L167.244,15.262L167.244,17.137L161.756,17.137L161.756,27.899C161.756,28.706 161.785,29.38 161.844,29.921C161.902,30.461 162.042,30.933 162.264,31.337C162.472,31.714 162.785,32.001 163.201,32.196C163.618,32.391 164.178,32.489 164.881,32.489C165.206,32.489 165.685,32.46 166.317,32.401C166.948,32.342 167.394,32.268 167.654,32.176L167.654,33.602C166.808,33.954 166.007,34.25 165.252,34.491C164.497,34.732 163.572,34.852 162.479,34.852C160.864,34.852 159.728,34.445 159.07,33.632C158.413,32.818 158.084,31.669 158.084,30.184L158.084,17.137L155.849,17.137L156.023,20.809L154.676,20.809C154.402,19.429 153.813,18.306 152.908,17.44C152.003,16.574 150.899,16.141 149.597,16.141C148.53,16.141 147.69,16.408 147.078,16.942C146.466,17.476 146.16,18.12 146.16,18.876C146.16,19.462 146.261,19.95 146.463,20.341C146.664,20.731 146.967,21.063 147.371,21.337C147.761,21.597 148.253,21.841 148.845,22.069C149.438,22.297 150.17,22.554 151.043,22.841C151.902,23.114 152.713,23.433 153.474,23.798C154.236,24.162 154.864,24.566 155.359,25.008C155.893,25.477 156.303,26.018 156.59,26.63C156.876,27.242 157.019,27.99 157.019,28.876C157.019,30.66 156.352,32.118 155.017,33.251C153.683,34.383 151.954,34.95 149.832,34.95C148.712,34.95 147.68,34.748 146.736,34.344C145.792,33.941 145.118,33.57 144.715,33.231L144.324,34.501L142.859,34.501L142.664,27.801L144.011,27.801C144.116,28.309 144.337,28.902 144.676,29.579C145.014,30.256 145.424,30.868 145.906,31.415C146.414,31.988 147.023,32.469 147.732,32.86C148.442,33.251 149.239,33.446 150.125,33.446C151.375,33.446 152.338,33.163 153.015,32.596C153.692,32.03 154.031,31.219 154.031,30.165C154.031,29.618 153.924,29.146 153.709,28.749C153.494,28.352 153.178,28.003 152.761,27.704C152.332,27.404 151.804,27.134 151.179,26.893C150.554,26.652 149.858,26.415 149.09,26.18C148.478,25.998 147.797,25.747 147.049,25.428C146.3,25.109 145.659,24.735 145.125,24.305C144.552,23.85 144.083,23.29 143.718,22.626C143.354,21.962 143.172,21.18 143.172,20.282C143.172,19.196 143.45,18.224 144.007,17.367C143.578,17.719 143.244,18.163 143.005,18.7C141.456,22.294 140.079,25.568 138.874,28.524C137.67,31.48 136.755,33.654 136.13,35.048C135.31,36.87 134.577,38.293 133.933,39.315C133.288,40.337 132.66,41.141 132.048,41.727C131.449,42.274 130.906,42.642 130.417,42.831C129.929,43.02 129.424,43.114 128.904,43.114C127.888,43.114 127.09,42.873 126.511,42.391C125.932,41.91 125.642,41.356 125.642,40.731L125.642,40.731C125.642,40.08 125.821,39.549 126.179,39.139C126.537,38.729 126.983,38.524 127.517,38.524C127.934,38.524 128.292,38.602 128.591,38.758C128.891,38.915 129.158,39.117 129.392,39.364C129.587,39.559 129.796,39.826 130.017,40.165C130.238,40.503 130.414,40.783 130.544,41.005C131.195,40.653 131.973,39.735 132.878,38.251C133.783,36.766 134.437,35.464 134.841,34.344C133.604,31.258 132.484,28.498 131.482,26.063C130.479,23.628 129.431,21.109 128.337,18.505C128.09,17.906 127.673,17.44 127.087,17.108C126.501,16.776 125.915,16.564 125.329,16.473L125.329,15.184L125.344,15.184ZM92.926,29.911C92.118,31.447 91.037,32.671 89.683,33.583C88.329,34.494 86.773,34.95 85.015,34.95C83.466,34.95 82.108,34.676 80.943,34.13C79.778,33.583 78.817,32.841 78.062,31.903C77.307,30.966 76.744,29.872 76.373,28.622C76.002,27.372 75.816,26.05 75.816,24.657C75.816,23.407 76.015,22.18 76.412,20.975C76.809,19.771 77.392,18.687 78.16,17.723C78.902,16.799 79.823,16.053 80.924,15.487C82.024,14.921 83.258,14.637 84.625,14.637C86.031,14.637 87.235,14.859 88.238,15.301C89.241,15.744 90.054,16.35 90.679,17.118C91.278,17.847 91.724,18.706 92.017,19.696C92.31,20.686 92.457,21.76 92.457,22.919L92.457,24.208L79.703,24.208C79.703,25.471 79.823,26.617 80.064,27.645C80.305,28.674 80.686,29.579 81.207,30.36C81.715,31.115 82.379,31.711 83.199,32.147C84.019,32.583 84.996,32.801 86.129,32.801C87.287,32.801 88.287,32.531 89.127,31.991C89.967,31.451 90.777,30.477 91.558,29.071L92.926,29.911ZM66.139,15.262L68.54,15.262L68.54,9.266L72.095,9.266L72.095,15.262L77.622,15.262L77.622,17.137L72.134,17.137L72.134,27.899C72.134,28.706 72.163,29.38 72.222,29.921C72.281,30.461 72.421,30.933 72.642,31.337C72.85,31.714 73.163,32.001 73.579,32.196C73.996,32.391 74.556,32.489 75.259,32.489C75.585,32.489 76.063,32.46 76.695,32.401C77.326,32.342 77.772,32.268 78.033,32.176L78.033,33.602C77.186,33.954 76.385,34.25 75.63,34.491C74.875,34.732 73.95,34.852 72.857,34.852C71.242,34.852 70.106,34.445 69.449,33.632C68.791,32.818 68.462,31.669 68.462,30.184L68.462,17.137L66.228,17.137L66.401,20.809L65.054,20.809C64.78,19.429 64.191,18.306 63.286,17.44C62.381,16.574 61.278,16.141 59.976,16.141C58.908,16.141 58.068,16.408 57.456,16.942C56.844,17.476 56.538,18.12 56.538,18.876C56.538,19.462 56.639,19.95 56.841,20.341C57.043,20.731 57.345,21.063 57.749,21.337C58.14,21.597 58.631,21.841 59.224,22.069C59.816,22.297 60.548,22.554 61.421,22.841C62.28,23.114 63.091,23.433 63.852,23.798C64.614,24.162 65.242,24.566 65.737,25.008C66.271,25.477 66.681,26.018 66.968,26.63C67.254,27.242 67.397,27.99 67.397,28.876C67.397,30.66 66.73,32.118 65.395,33.251C64.061,34.383 62.332,34.95 60.21,34.95C59.09,34.95 58.058,34.748 57.114,34.344C56.289,33.992 55.671,33.664 55.258,33.361L55.258,34.091C55.092,34.151 54.931,34.208 54.776,34.262L54.702,34.501L54.06,34.501C53.916,34.546 53.778,34.589 53.647,34.628C53.185,34.764 52.661,34.833 52.075,34.833C51.059,34.833 50.249,34.595 49.643,34.12C49.038,33.645 48.65,32.951 48.481,32.04L48.364,32.04C47.517,32.977 46.609,33.693 45.639,34.188C44.669,34.683 43.5,34.93 42.133,34.93C40.688,34.93 39.5,34.488 38.569,33.602C37.638,32.717 37.172,31.558 37.172,30.126C37.172,29.383 37.277,28.719 37.485,28.133C37.693,27.548 38.006,27.02 38.422,26.551C38.748,26.161 39.178,25.813 39.711,25.507C40.245,25.201 40.747,24.956 41.215,24.774C41.801,24.553 42.989,24.143 44.78,23.544C46.57,22.945 47.778,22.476 48.403,22.137L48.403,20.204C48.403,20.035 48.367,19.709 48.295,19.227C48.224,18.745 48.071,18.29 47.836,17.86C47.576,17.378 47.208,16.958 46.733,16.6C46.258,16.242 45.584,16.063 44.711,16.063C44.112,16.063 43.556,16.164 43.042,16.366C42.527,16.568 42.166,16.779 41.958,17.001C41.958,17.261 42.019,17.645 42.143,18.153C42.267,18.661 42.329,19.13 42.329,19.559C42.329,20.015 42.124,20.432 41.713,20.809C41.303,21.187 40.734,21.376 40.004,21.376C39.353,21.376 38.875,21.145 38.569,20.682C38.263,20.22 38.11,19.703 38.11,19.13C38.11,18.531 38.321,17.958 38.745,17.411C39.168,16.864 39.718,16.376 40.395,15.946C40.981,15.581 41.691,15.272 42.524,15.018C43.357,14.764 44.171,14.637 44.965,14.637C46.059,14.637 47.013,14.712 47.827,14.862C48.64,15.012 49.379,15.334 50.043,15.829C50.708,16.311 51.212,16.965 51.557,17.792C51.902,18.619 52.075,19.683 52.075,20.985C52.075,22.847 52.055,24.497 52.016,25.936C51.977,27.375 51.958,28.947 51.958,30.653C51.958,31.161 52.045,31.564 52.221,31.864C52.397,32.163 52.667,32.417 53.032,32.626C53.077,32.653 53.128,32.677 53.185,32.698L53.042,27.801L54.39,27.801C54.494,28.309 54.715,28.902 55.054,29.579C55.392,30.256 55.802,30.868 56.284,31.415C56.792,31.988 57.401,32.469 58.11,32.86C58.82,33.251 59.617,33.446 60.503,33.446C61.753,33.446 62.716,33.163 63.393,32.596C64.071,32.03 64.409,31.219 64.409,30.165C64.409,29.618 64.302,29.146 64.087,28.749C63.872,28.352 63.556,28.003 63.14,27.704C62.71,27.404 62.183,27.134 61.558,26.893C60.933,26.652 60.236,26.415 59.468,26.18C58.856,25.998 58.175,25.747 57.427,25.428C56.678,25.109 56.037,24.735 55.503,24.305C54.93,23.85 54.461,23.29 54.097,22.626C53.732,21.962 53.55,21.18 53.55,20.282C53.55,18.706 54.136,17.372 55.308,16.278C56.479,15.184 58.048,14.637 60.015,14.637C60.77,14.637 61.541,14.735 62.329,14.93C63.117,15.126 63.758,15.36 64.253,15.633L64.702,14.618L66.108,14.618L66.139,15.262ZM182.547,29.911C181.74,31.447 180.659,32.671 179.305,33.583C177.951,34.494 176.395,34.95 174.637,34.95C173.088,34.95 171.73,34.676 170.565,34.13C169.4,33.583 168.439,32.841 167.684,31.903C166.929,30.966 166.366,29.872 165.995,28.622C165.624,27.372 165.438,26.05 165.438,24.657C165.438,23.407 165.637,22.18 166.034,20.975C166.431,19.771 167.014,18.687 167.782,17.723C168.524,16.799 169.445,16.053 170.545,15.487C171.646,14.921 172.879,14.637 174.247,14.637C175.653,14.637 176.857,14.859 177.86,15.301C178.862,15.744 179.676,16.35 180.301,17.118C180.9,17.847 181.346,18.706 181.639,19.696C181.932,20.686 182.079,21.76 182.079,22.919L182.079,24.208L169.325,24.208C169.325,25.471 169.445,26.617 169.686,27.645C169.927,28.674 170.308,29.579 170.829,30.36C171.336,31.115 172.001,31.711 172.821,32.147C173.641,32.583 174.618,32.801 175.751,32.801C176.909,32.801 177.909,32.531 178.749,31.991C179.588,31.451 180.399,30.477 181.18,29.071L182.547,29.911ZM213.651,34.442L204.257,34.442L204.257,33.153C204.556,33.127 204.859,33.101 205.165,33.075C205.471,33.049 205.741,32.997 205.976,32.919C206.34,32.801 206.61,32.596 206.786,32.303C206.962,32.01 207.05,31.63 207.05,31.161L207.05,21.219C207.05,19.865 206.74,18.82 206.122,18.085C205.503,17.349 204.732,16.981 203.808,16.981C203.169,16.981 202.571,17.079 202.011,17.274C201.451,17.469 200.936,17.743 200.468,18.094C200.09,18.381 199.774,18.69 199.52,19.022C199.267,19.354 199.074,19.631 198.944,19.852L198.944,30.966C198.944,31.421 199.022,31.796 199.179,32.089C199.335,32.382 199.602,32.606 199.979,32.762C200.279,32.88 200.549,32.967 200.79,33.026C201.031,33.085 201.347,33.127 201.737,33.153L201.737,34.442L192.538,34.442L192.538,33.153C192.837,33.127 193.127,33.101 193.407,33.075C193.687,33.049 193.944,32.997 194.179,32.919C194.543,32.801 194.813,32.596 194.989,32.303C195.165,32.01 195.253,31.63 195.253,31.161L195.253,21.219C195.253,19.865 194.944,18.82 194.325,18.085C193.707,17.349 192.935,16.981 192.011,16.981C191.373,16.981 190.774,17.082 190.214,17.284C189.654,17.486 189.14,17.762 188.671,18.114C188.293,18.4 187.974,18.723 187.714,19.081C187.453,19.439 187.258,19.709 187.128,19.891L187.128,30.926C187.128,31.369 187.219,31.74 187.401,32.04C187.584,32.339 187.857,32.567 188.222,32.723C188.495,32.854 188.775,32.951 189.061,33.016C189.348,33.081 189.667,33.127 190.018,33.153L190.018,34.442L180.663,34.442L180.663,33.153C180.962,33.127 181.272,33.101 181.591,33.075C181.91,33.049 182.186,32.997 182.421,32.919C182.785,32.801 183.056,32.596 183.231,32.303C183.407,32.01 183.495,31.63 183.495,31.161L183.495,19.188C183.495,18.771 183.401,18.397 183.212,18.065C183.023,17.733 182.759,17.45 182.421,17.215C182.173,17.059 181.867,16.932 181.503,16.835C181.138,16.737 180.761,16.675 180.37,16.649L180.37,15.38L186.815,14.95L187.089,15.223L187.089,17.977L187.226,17.977C187.551,17.652 187.948,17.268 188.417,16.825C188.886,16.382 189.322,16.024 189.726,15.751C190.181,15.438 190.751,15.178 191.434,14.969C192.118,14.761 192.857,14.657 193.651,14.657C194.901,14.657 195.975,14.992 196.874,15.663C197.772,16.333 198.417,17.144 198.808,18.094C199.276,17.639 199.69,17.238 200.048,16.893C200.406,16.548 200.878,16.18 201.464,15.79C201.959,15.451 202.541,15.178 203.212,14.969C203.882,14.761 204.628,14.657 205.448,14.657C207.076,14.657 208.365,15.191 209.315,16.258C210.266,17.326 210.741,18.967 210.741,21.18L210.741,30.965C210.741,31.421 210.819,31.796 210.976,32.089C211.132,32.382 211.399,32.606 211.776,32.762C212.076,32.88 212.372,32.967 212.665,33.026C212.958,33.085 213.287,33.127 213.651,33.153L213.651,34.442ZM105.787,17.665C105.787,18.329 105.624,18.918 105.299,19.432C104.973,19.947 104.472,20.204 103.795,20.204C103.066,20.204 102.509,20.015 102.125,19.637C101.741,19.26 101.549,18.843 101.549,18.387C101.549,18.101 101.572,17.841 101.617,17.606C101.663,17.372 101.705,17.137 101.744,16.903C101.132,16.903 100.416,17.15 99.596,17.645C98.776,18.14 98.079,18.843 97.506,19.755L97.506,30.966C97.506,31.421 97.594,31.792 97.77,32.079C97.945,32.365 98.222,32.58 98.6,32.723C98.925,32.854 99.345,32.951 99.86,33.016C100.374,33.081 100.82,33.127 101.197,33.153L101.197,34.442L91.041,34.442L91.041,33.153C91.341,33.127 91.65,33.101 91.969,33.075C92.288,33.049 92.565,32.997 92.799,32.919C93.164,32.801 93.434,32.596 93.61,32.303C93.785,32.01 93.873,31.63 93.873,31.161L93.873,19.266C93.873,18.863 93.779,18.466 93.59,18.075C93.401,17.684 93.138,17.372 92.799,17.137C92.552,16.981 92.259,16.867 91.92,16.796C91.582,16.724 91.217,16.675 90.826,16.649L90.826,15.38L97.233,14.95L97.506,15.223L97.506,17.938L97.604,17.938C98.411,16.883 99.309,16.083 100.299,15.536C101.289,14.989 102.194,14.716 103.014,14.716C103.834,14.716 104.501,14.982 105.016,15.516C105.53,16.05 105.787,16.766 105.787,17.665L105.787,17.665ZM37.924,34.442L25.678,34.442L25.678,33.055C26.121,33.042 26.69,32.997 27.387,32.919C28.083,32.841 28.562,32.73 28.822,32.587C29.226,32.339 29.522,32.056 29.711,31.737C29.9,31.418 29.994,31.018 29.994,30.536L29.994,10.38L29.701,10.38L20.248,33.993L19.272,33.993L10.268,9.891L10.014,9.891L10.014,26.434C10.014,28.036 10.115,29.253 10.317,30.087C10.518,30.92 10.828,31.519 11.244,31.883C11.531,32.157 12.123,32.417 13.022,32.665C13.92,32.912 14.506,33.042 14.779,33.055L14.779,34.442L3.588,34.442L3.588,33.055C4.174,33.003 4.789,32.906 5.434,32.762C6.078,32.619 6.576,32.404 6.928,32.118C7.384,31.753 7.696,31.193 7.865,30.438C8.035,29.683 8.119,28.42 8.119,26.649L8.119,12.469C8.119,11.649 8.022,10.979 7.826,10.458C7.631,9.937 7.351,9.514 6.986,9.188C6.583,8.837 6.088,8.576 5.502,8.407C4.916,8.238 4.337,8.14 3.764,8.114L3.764,6.727L13.217,6.727L21.147,27.508L27.924,10.126C28.171,9.488 28.383,8.82 28.559,8.124C28.734,7.427 28.829,6.962 28.842,6.727L37.885,6.727L37.885,8.114C37.52,8.127 37.055,8.186 36.488,8.29C35.922,8.394 35.509,8.492 35.248,8.583C34.805,8.739 34.506,8.999 34.35,9.364C34.193,9.729 34.115,10.126 34.115,10.555L34.115,30.536C34.115,30.992 34.193,31.376 34.35,31.688C34.506,32.001 34.805,32.274 35.248,32.508C35.483,32.639 35.899,32.759 36.498,32.87C37.097,32.98 37.572,33.042 37.924,33.055L37.924,34.442ZM48.442,23.778C47.335,24.104 46.365,24.423 45.532,24.735C44.698,25.048 43.924,25.438 43.208,25.907C42.556,26.35 42.042,26.874 41.665,27.479C41.287,28.085 41.098,28.804 41.098,29.637C41.098,30.718 41.381,31.512 41.948,32.02C42.514,32.528 43.234,32.782 44.106,32.782C45.03,32.782 45.844,32.557 46.547,32.108C47.25,31.659 47.843,31.128 48.325,30.516L48.442,23.778ZM88.609,22.567C88.609,21.838 88.547,21.057 88.424,20.223C88.3,19.39 88.101,18.693 87.828,18.133C87.528,17.535 87.118,17.046 86.597,16.669C86.077,16.291 85.406,16.102 84.586,16.102C83.218,16.102 82.082,16.672 81.177,17.811C80.273,18.951 79.781,20.536 79.703,22.567L88.609,22.567ZM178.231,22.567C178.231,21.838 178.169,21.057 178.045,20.223C177.922,19.39 177.723,18.693 177.45,18.133C177.15,17.535 176.74,17.046 176.219,16.669C175.698,16.291 175.028,16.102 174.208,16.102C172.84,16.102 171.704,16.672 170.799,17.811C169.894,18.951 169.403,20.536 169.325,22.567L178.231,22.567ZM228.43,19.861L225.845,19.861L225.845,19.493C225.925,19.493 226.038,19.483 226.185,19.475C226.332,19.464 226.43,19.446 226.48,19.422C226.56,19.37 226.615,19.327 226.644,19.294C226.674,19.261 226.689,19.209 226.689,19.138L226.689,15.943L226.577,15.943L224.755,19.705L224.516,19.705L222.745,15.872L222.633,15.872L222.633,18.451C222.633,18.701 222.649,18.891 222.682,19.021C222.714,19.151 222.77,19.249 222.85,19.315C222.915,19.353 223.024,19.392 223.179,19.432C223.333,19.472 223.467,19.493 223.582,19.493L223.582,19.861L221.229,19.861L221.229,19.507C221.309,19.493 221.427,19.475 221.584,19.454C221.741,19.433 221.859,19.397 221.939,19.344C222.023,19.283 222.08,19.198 222.11,19.089C222.14,18.981 222.155,18.778 222.155,18.48L222.155,16.021C222.155,15.908 222.137,15.814 222.099,15.738C222.062,15.662 222.008,15.596 221.939,15.54C221.864,15.483 221.771,15.442 221.658,15.416C221.546,15.389 221.418,15.372 221.274,15.362L221.274,15.001L223.35,15.001L224.926,18.345L226.241,15.603C226.296,15.485 226.337,15.373 226.364,15.266C226.392,15.16 226.413,15.072 226.428,15.001L228.43,15.001L228.43,15.362C228.345,15.362 228.237,15.379 228.105,15.397C227.973,15.416 227.879,15.435 227.825,15.454C227.75,15.467 227.703,15.5 227.683,15.553C227.663,15.604 227.653,15.657 227.653,15.709L227.653,19.138C227.653,19.204 227.663,19.257 227.683,19.297C227.703,19.337 227.75,19.374 227.825,19.407C227.874,19.421 227.96,19.439 228.082,19.46C228.204,19.481 228.32,19.492 228.43,19.492L228.43,19.861ZM220.363,16.404L220.004,16.404C219.954,16.248 219.853,16.053 219.701,15.819C219.55,15.585 219.401,15.454 219.257,15.426C219.147,15.416 219.04,15.409 218.936,15.404C218.831,15.404 218.744,15.395 218.674,15.395L218.308,15.395L218.308,19.107C218.308,19.174 218.32,19.229 218.342,19.274C218.364,19.319 218.415,19.358 218.495,19.391C218.545,19.405 218.637,19.425 218.771,19.451C218.906,19.477 219.03,19.49 219.145,19.49L219.145,19.859L216.508,19.859L216.508,19.49C216.608,19.49 216.73,19.48 216.874,19.466C217.019,19.449 217.113,19.434 217.158,19.42C217.233,19.397 217.283,19.359 217.307,19.307C217.332,19.255 217.345,19.203 217.345,19.151L217.345,15.396L216.979,15.396C216.904,15.396 216.804,15.396 216.68,15.406C216.555,15.416 216.461,15.419 216.396,15.424C216.242,15.447 216.091,15.578 215.944,15.817C215.797,16.056 215.699,16.25 215.649,16.402L215.291,16.402L215.291,14.999L220.363,14.999L220.363,16.404Z" fill="white"/>
            </g>
        </g>
    </g>
</svg>
