<?xml version="1.0" encoding="UTF-8" standalone="no"?>
<!DOCTYPE svg PUBLIC "-//W3C//DTD SVG 1.1//EN" "http://www.w3.org/Graphics/SVG/1.1/DTD/svg11.dtd">
<svg width="100%" height="100%" viewBox="0 0 1058 99" version="1.1" xmlns="http://www.w3.org/2000/svg" xmlns:xlink="http://www.w3.org/1999/xlink" xml:space="preserve" xmlns:serif="http://www.serif.com/" style="fill-rule:evenodd;clip-rule:evenodd;stroke-linejoin:round;stroke-miterlimit:2;">
    <g transform="matrix(1,0,0,1,-1036.68,-225.8)">
        <path id="text8337-2" d="M1700.89,225.8L1783.78,225.8C1786.37,225.8 1788.53,227.533 1790.26,230.998L1803.86,259.586L1804.51,262.184L1803.86,264.783L1783.78,288.174L1804.51,324.558L1773.42,324.558L1743.63,275.179L1759.18,275.179C1760.9,275.179 1762.2,274.746 1763.06,273.88L1773.42,262.184L1768.24,249.19C1767.38,247.457 1766.08,246.591 1764.36,246.591L1731.98,246.591L1731.98,324.558L1700.89,324.558L1700.89,225.8ZM1887.39,258.286L1918.48,303.767L1949.56,258.286L1949.56,225.8L1980.64,225.8L1980.64,262.184C1980.64,265.65 1980.21,268.249 1979.35,269.981L1944.38,324.558L1892.58,324.558L1857.61,269.981C1856.74,268.249 1856.31,265.65 1856.31,262.184L1856.31,225.8L1887.39,225.8L1887.39,258.286ZM1576.56,225.8L1663.34,225.8C1665.93,225.8 1668.08,227.533 1669.81,230.998L1689.89,272.58L1690.53,275.179L1689.89,277.778L1669.81,319.361C1668.08,322.826 1665.93,324.558 1663.34,324.558L1576.56,324.558L1576.56,225.8ZM1845.95,324.558L1814.87,324.558L1814.87,225.8L1845.95,225.8L1845.95,324.558ZM2022.09,285.575L2022.09,303.767L2094.62,303.767L2094.62,324.558L1991.01,324.558L1991.01,259.586C1991.01,257.853 1991.44,256.12 1992.3,254.388L2006.55,228.399C2007.41,226.666 2009.14,225.8 2011.73,225.8L2094.62,225.8L2094.62,246.591L2032.45,246.591C2030.72,246.591 2029.43,247.457 2028.57,249.19L2022.09,264.783L2094.62,264.783L2084.26,285.575L2022.09,285.575ZM1036.67,322.543L1089.14,235.394C1091.64,230.414 1094.13,227.924 1096.63,227.924L1134.11,227.924L1134.11,239.503L1136.61,235.394C1139.1,230.414 1141.6,227.924 1144.1,227.924L1189.07,227.924L1189.07,322.543L1159.09,322.543L1159.09,247.844L1114.12,322.543L1084.14,322.543L1129.11,247.844L1114.12,247.844C1112.46,247.844 1110.79,248.674 1109.13,250.334L1066.65,322.543L1036.67,322.543ZM1229.04,285.193L1229.04,302.623L1298.99,302.623L1298.99,322.543L1199.06,322.543L1199.06,260.294C1199.06,258.634 1199.48,256.974 1200.31,255.314L1214.05,230.414C1214.88,228.754 1216.55,227.924 1219.05,227.924L1298.99,227.924L1298.99,247.844L1239.03,247.844C1237.37,247.844 1236.12,248.674 1235.29,250.334L1229.04,265.274L1298.99,265.274L1289,285.193L1229.04,285.193ZM1338.96,302.623L1388.93,302.623L1388.93,285.193L1368.94,285.193L1378.94,265.274L1418.91,265.274L1418.91,317.563C1418.91,320.883 1417.24,322.543 1413.91,322.543L1313.98,322.543C1310.65,322.543 1308.99,320.883 1308.99,317.563L1308.99,260.294C1308.99,258.634 1309.4,256.974 1310.23,255.314L1323.98,230.414C1324.81,228.754 1326.47,227.924 1328.97,227.924L1413.91,227.924L1413.91,247.844L1348.96,247.844C1347.29,247.844 1346.04,248.674 1345.21,250.334L1338.96,265.274L1338.96,302.623ZM1553.81,322.543L1518.84,322.543L1505.1,302.623L1468.87,302.623L1458.88,284.571L1458.88,322.543L1428.9,322.543L1428.9,227.924L1486.36,227.924C1488.86,227.924 1491.36,230.414 1493.86,235.394L1553.81,322.543ZM1607.64,303.767L1643.91,303.767C1645.63,303.767 1646.93,302.987 1647.79,301.428L1658.8,277.778L1659.45,275.179L1658.8,272.58L1647.79,249.19C1646.93,247.457 1645.63,246.591 1643.91,246.591L1607.64,246.591L1607.64,303.767ZM1491.23,282.703L1468.87,250.334C1467.21,248.674 1465.54,247.844 1463.88,247.844L1458.88,247.844L1458.88,282.703L1491.23,282.703Z" fill="white"/>
    </g>
</svg>
