<?xml version="1.0" encoding="UTF-8" standalone="no"?>
<!DOCTYPE svg PUBLIC "-//W3C//DTD SVG 1.1//EN" "http://www.w3.org/Graphics/SVG/1.1/DTD/svg11.dtd">
<svg width="100%" height="100%" viewBox="0 0 500 73" version="1.1" xmlns="http://www.w3.org/2000/svg" xmlns:xlink="http://www.w3.org/1999/xlink" xml:space="preserve" xmlns:serif="http://www.serif.com/" style="fill-rule:evenodd;clip-rule:evenodd;stroke-linejoin:round;stroke-miterlimit:2;">
    <g transform="matrix(1,0,0,1,-1,-1)">
        <g transform="matrix(2.4919,0,0,2.4919,1,1)">
            <g id="path30" transform="matrix(0.4013,0,0,0.4013,-0.4013,-0.4013)">
                <path d="M396.215,15.951C413.908,15.951 422.879,27.663 422.879,44.608C422.879,61.553 414.157,73.265 396.215,73.265C378.523,73.265 369.552,61.553 369.552,44.608C369.552,27.663 378.274,15.951 396.215,15.951ZM432.348,60.307C428.859,60.307 425.869,63.297 425.869,66.786C425.869,70.275 428.859,73.265 432.348,73.265C435.837,73.265 438.827,70.275 438.827,66.786C438.827,63.297 435.837,60.307 432.348,60.307ZM432.348,72.019C429.358,72.019 427.115,69.527 427.115,66.786C427.115,63.796 429.607,61.553 432.348,61.553C435.338,61.553 437.581,64.045 437.581,66.786C437.581,69.776 435.089,72.019 432.348,72.019ZM312.986,17.447L337.157,17.447C357.84,17.447 364.319,29.158 364.319,45.107C364.319,61.553 354.102,71.77 338.403,71.77L312.986,71.77L312.986,17.447ZM83.482,17.447L63.048,17.447L63.048,71.77L83.482,71.77L83.482,17.447ZM223.776,31.9L223.776,37.631L242.465,37.631L242.465,51.586L223.776,51.586L223.776,57.566L244.708,57.566L244.708,71.77L203.841,71.77L203.841,17.447L244.209,17.447L244.209,31.9L223.776,31.9ZM164.219,71.77L164.219,32.149L151.262,32.149L151.262,17.447L197.611,17.447L197.611,32.149L184.653,32.149L184.653,71.77L164.219,71.77ZM287.568,17.447L287.568,48.595L287.319,48.595L276.355,17.447L251.934,17.447L251.934,71.77L268.381,71.77L268.381,40.372L268.63,40.372L279.594,71.77L304.015,71.77L304.015,17.447L287.568,17.447ZM128.834,17.447L128.834,48.595L128.585,48.595L117.621,17.447L93.2,17.447L93.2,71.77L109.647,71.77L109.647,40.372L109.896,40.372L120.86,71.77L145.281,71.77L145.281,17.447L128.834,17.447ZM36.634,17.447L36.634,48.595L36.385,48.595L25.421,17.447L1,17.447L1,71.77L17.447,71.77L17.447,40.372L17.696,40.372L28.66,71.77L53.081,71.77L53.081,17.447L36.634,17.447ZM431.351,70.275L429.856,70.275L429.856,63.297L432.846,63.297C434.092,63.297 435.338,63.796 435.338,65.042C435.338,66.039 434.84,66.537 433.843,66.786C435.089,67.035 435.089,67.534 435.089,68.53C435.089,69.029 435.338,69.776 435.587,70.275L433.843,70.275C433.594,69.527 433.594,69.029 433.594,68.281C433.594,67.783 433.345,67.285 432.846,67.285L431.351,67.285L431.351,70.275ZM431.351,66.288L432.597,66.288C433.345,66.288 433.594,66.039 433.594,65.291C433.594,64.543 433.095,64.294 432.597,64.294L431.351,64.294L431.351,66.288ZM332.921,59.56L334.915,59.56C338.154,59.56 340.397,58.563 341.643,56.32C342.889,54.077 343.138,49.841 343.138,44.608C343.138,39.375 342.889,35.139 341.643,32.896C340.397,30.654 338.154,29.657 334.915,29.657L332.921,29.657L332.921,59.56ZM396.215,59.31C399.455,59.31 401.698,57.815 401.698,44.359C401.698,31.401 399.455,29.408 396.215,29.408C392.976,29.408 390.733,31.152 390.733,44.359C390.733,57.566 392.976,59.31 396.215,59.31ZM459.26,10.22L455.772,10.22C447.05,10.718 443.811,14.207 442.565,18.443L442.814,18.443C445.057,16.45 447.548,15.702 451.037,15.702C457.765,15.702 463.995,20.686 463.995,29.906C463.995,38.877 457.267,45.854 448.047,45.854C435.837,45.854 430.604,36.634 430.604,26.667C430.604,18.692 433.345,11.715 438.079,7.479C442.565,3.243 448.296,1.249 455.273,1L459.26,1L459.26,10.22ZM485.425,45.107L485.425,35.388L467.234,35.388L467.234,27.663L481.688,1.748L496.141,1.748L496.141,26.667L500.626,26.667L500.626,35.637L496.141,35.637L496.141,45.356L485.176,45.356L485.425,45.107ZM448.047,37.133C450.788,37.133 452.532,34.391 452.532,30.654C452.532,27.663 451.037,24.175 447.299,24.175C445.057,24.175 443.312,25.67 442.565,27.414C442.315,27.913 442.315,28.66 442.315,29.906C442.565,33.395 444.309,37.133 448.047,37.133ZM485.425,26.417L485.425,18.942C485.425,16.201 485.675,13.21 485.675,10.22L485.425,10.22C484.179,13.21 482.933,15.951 481.438,18.942L477.95,26.168L477.95,26.417L485.425,26.417Z" fill="white"/>
            </g>
        </g>
    </g>
</svg>
