<?xml version="1.0" encoding="UTF-8" standalone="no"?>
<!DOCTYPE svg PUBLIC "-//W3C//DTD SVG 1.1//EN" "http://www.w3.org/Graphics/SVG/1.1/DTD/svg11.dtd">
<svg width="100%" height="100%" viewBox="0 0 687 118" version="1.1" xmlns="http://www.w3.org/2000/svg" xmlns:xlink="http://www.w3.org/1999/xlink" xml:space="preserve" xmlns:serif="http://www.serif.com/" style="fill-rule:evenodd;clip-rule:evenodd;stroke-linejoin:round;stroke-miterlimit:2;">
    <g transform="matrix(1,0,0,1,-24.2342,-4.17525)">
        <g transform="matrix(1,0,0,1,-683.173,-356.178)">
            <g transform="matrix(1,0,0,1,683.173,356.178)">
                <path d="M652.685,5.473C636.704,4.813 623.235,10.022 612.298,21.109C601.342,32.186 595.878,46.038 595.878,62.645C595.878,77.44 600.083,90.227 608.506,101.006C619.154,114.642 634.229,121.47 653.731,121.47C673.169,121.47 688.225,114.319 698.883,100.016C706.925,89.246 710.95,76.758 710.95,62.561C710.95,45.954 705.553,32.121 694.773,21.062C683.985,10.003 669.965,4.81 652.704,5.473L652.685,5.473ZM452.802,74.685L455.521,74.685C458.057,74.685 462.402,75.207 464.189,76.257C465.979,77.297 467.157,78.465 467.726,79.756C468.296,81.05 468.585,83.9 468.585,88.301L468.585,105.58C468.585,110.795 463.075,113.452 460.419,114.028C457.756,114.604 455.166,114.893 452.639,114.893C445.364,114.893 439.086,113 433.79,109.213C428.502,105.422 424.67,99.499 422.292,91.419C419.919,83.352 418.738,73.972 418.738,63.258C418.738,54.421 419.822,45.801 421.993,37.404C424.164,29.004 427.861,22.46 433.08,17.762C438.298,13.07 444.839,10.722 452.694,10.722C460.917,10.722 465.724,12.803 471.777,19.093C477.964,25.52 483.9,32.823 487.366,43.546L492.425,43.546L492.425,4.176L489.547,4.176C488.509,7.329 487.375,9.469 486.135,10.601C484.892,11.736 483.546,12.3 482.102,12.3C481.171,12.3 478.154,11.276 473.065,9.226C467.974,7.174 464.289,5.928 462.016,5.489C457.829,4.616 454.575,4.175 449.36,4.175C432.51,4.175 418.518,9.966 407.403,21.548C396.288,33.14 390.731,47.328 390.731,64.121C390.731,73.508 392.537,81.989 396.156,89.564C399,95.438 402.944,100.717 407.981,105.415C413.022,110.108 418.844,113.898 425.429,116.782C432.02,119.66 440.308,121.101 450.284,121.101C458.092,121.101 465.62,120.294 472.887,118.682C480.154,117.064 487.14,114.669 493.875,111.498L493.875,88.278C493.875,84.208 494.103,81.649 494.569,80.606C495.394,78.624 496.567,77.211 498.091,76.355C499.613,75.499 503.764,74.941 507.637,74.662L507.637,70.86L452.781,70.86L452.781,74.662L452.802,74.685ZM297.366,4.701C281.385,4.041 267.916,9.251 256.979,20.337C246.023,31.414 240.559,45.266 240.559,61.873C240.559,76.668 244.765,89.455 253.187,100.234C263.835,113.871 278.91,120.698 298.413,120.698C317.85,120.698 332.906,113.547 343.564,99.244C351.606,88.474 355.631,75.986 355.631,61.789C355.631,45.182 350.235,31.349 339.454,20.29C328.666,9.231 314.646,4.038 297.385,4.701L297.366,4.701ZM62.268,111.952L62.268,116.438L24.234,116.438L24.234,111.947C30.133,111.892 34.244,110.642 36.563,108.194C38.881,105.747 40.041,101.589 40.041,95.715L40.054,21.422L30.846,12.156C29.106,11.233 28.99,10.137 25.723,10.029L25.723,6.304L60.095,6.304L116.586,75.254L116.586,26.937C116.586,20.266 115.666,17.937 113.826,15.588C111.314,12.418 107.077,10.889 101.142,10.998L101.142,6.303L137.14,6.303L137.14,10.998C132.627,11.6 129.591,12.378 128.044,13.334C126.498,14.29 125.288,15.848 124.422,18.007C123.557,20.165 123.121,21.688 123.121,26.933L123.121,119.197L118.416,119.191L45.851,28.73L45.851,95.719C45.851,102.083 47.261,106.378 50.076,108.609C52.896,110.838 56.121,111.952 59.752,111.952L62.268,111.952L62.268,111.947L62.284,111.952L62.268,111.952ZM578.897,104.76C572.644,109.549 564.326,111.94 553.949,111.94L548.033,111.94C544.863,111.94 542.574,111.508 541.152,110.636C539.735,109.764 538.761,108.65 538.245,107.288C537.727,105.928 537.465,102.2 537.465,96.108L537.465,64.92C542.795,64.92 549.038,65.613 551.84,67.008C554.636,68.395 557.095,71.109 559.205,75.144C561.326,79.179 562.712,83.634 563.37,89.958L567.869,89.958L567.869,32.562L563.37,32.562C562.492,41.186 560.461,46.974 557.272,51.392C554.089,55.811 548.951,58.02 541.87,58.02L537.464,58.02L537.464,19.519C537.427,12.827 543.392,13.603 543.392,13.603L550.362,13.603C558.792,13.603 564.531,14.095 567.595,15.077C572.846,16.71 576.908,19.273 579.784,22.756C582.659,26.246 584.885,31.99 586.474,39.998L590.244,39.998L590.244,7.214L496.467,7.214L496.467,11.705L499.426,11.705C503.027,11.705 505.87,12.466 507.941,13.987C509.417,15.022 510.429,16.497 510.973,18.401C511.247,19.539 511.385,22.617 511.385,27.625L511.385,96.986C511.385,102.538 511.086,105.967 510.483,107.279C509.718,109.128 508.625,110.436 507.207,111.197C505.238,112.343 502.645,112.912 499.426,112.912L496.468,112.912L496.468,118.129L591.832,118.129L597.563,82.86L592.328,82.86C589.597,92.677 585.103,99.981 578.85,104.763L578.897,104.76ZM242.24,81.97L236.508,117.231L141.144,117.231L141.144,112.012L144.099,112.012C147.323,112.012 149.916,111.443 151.885,110.297C153.298,109.538 154.395,108.228 155.158,106.379C155.761,105.076 156.06,101.645 156.06,96.095L156.06,26.734C156.06,21.726 155.922,18.65 155.646,17.511C155.102,15.606 154.093,14.132 152.619,13.098C150.543,11.578 147.703,10.815 144.099,10.815L141.144,10.815L141.144,6.296L234.921,6.296L234.921,39.108L231.151,39.108C229.563,31.103 227.335,25.355 224.461,21.866C221.589,18.382 217.526,15.819 212.272,14.187C209.208,13.205 203.461,12.713 195.029,12.713L188.065,12.713C188.065,12.713 182.096,11.937 182.132,18.63L182.132,57.13L186.541,57.13C193.623,57.13 198.763,54.922 201.943,50.503C205.13,46.085 207.161,40.294 208.043,31.673L212.542,31.673L212.542,89.07L208.043,89.07C207.384,82.745 205.996,78.291 203.878,74.256C201.767,70.221 199.309,67.507 196.51,66.12C193.708,64.725 187.464,64.032 182.135,64.032L182.135,95.219C182.135,101.312 182.397,105.038 182.914,106.4C183.433,107.761 184.405,108.877 185.823,109.749C187.247,110.618 189.535,111.053 192.704,111.053L198.62,111.053C208.987,111.053 217.306,108.661 223.558,103.873C229.811,99.091 234.306,91.787 237.036,81.97L242.24,81.97L242.241,81.962L242.272,81.97L242.24,81.97ZM678.194,94.243C675.586,101.968 671.936,107.591 667.247,111.102C663.572,113.854 658.989,115.226 653.498,115.226C645.346,115.226 639.011,112.037 634.472,105.662C627.975,96.537 624.72,82.442 624.72,63.359C624.72,47.303 626.823,34.993 631.033,26.418C636.199,15.976 643.735,10.755 653.646,10.755C659.026,10.755 663.78,12.269 667.908,15.292C672.037,18.315 675.432,23.498 678.098,30.835C680.761,38.177 682.094,49.235 682.094,64.03C682.094,76.453 680.79,86.531 678.177,94.255L678.194,94.243ZM322.875,93.471C320.267,101.196 316.617,106.819 311.928,110.331C308.254,113.082 303.67,114.454 298.179,114.454C290.027,114.454 283.692,111.265 279.153,104.89C272.656,95.765 269.402,81.67 269.402,62.588C269.402,46.532 271.504,34.221 275.714,25.647C280.88,15.204 288.417,9.983 298.327,9.983C303.707,9.983 308.461,11.497 312.589,14.52C316.718,17.543 320.113,22.726 322.78,30.063C325.443,37.405 326.775,48.463 326.775,63.258C326.775,75.681 325.472,85.759 322.858,93.484L322.875,93.471ZM386.779,62.821C386.779,70.194 380.802,76.166 373.434,76.166C366.061,76.166 360.089,70.19 360.089,62.821C360.089,55.449 366.066,49.476 373.434,49.476C380.806,49.476 386.779,55.453 386.779,62.821Z" fill="white"/>
            </g>
        </g>
    </g>
</svg>
