<?xml version="1.0" encoding="UTF-8" standalone="no"?>
<!DOCTYPE svg PUBLIC "-//W3C//DTD SVG 1.1//EN" "http://www.w3.org/Graphics/SVG/1.1/DTD/svg11.dtd">
<svg width="100%" height="100%" viewBox="0 0 140 52" version="1.1" xmlns="http://www.w3.org/2000/svg" xmlns:xlink="http://www.w3.org/1999/xlink" xml:space="preserve" xmlns:serif="http://www.serif.com/" style="fill-rule:evenodd;clip-rule:evenodd;stroke-linejoin:round;stroke-miterlimit:2;">
    <g transform="matrix(1,0,0,1,-2.4,-2.20889)">
        <path d="M41.1,45.8C40.4,45.8 38.9,46.9 38.9,47.6L38.9,48.7C38.9,49.4 40.4,50.5 41.1,50.5L45.5,50.5C45.9,50.5 46.3,50.9 46.3,51.2C46.3,51.6 45.9,52 45.5,52L38.9,52L38.9,53.8L46.3,53.8C47,53.8 48.4,52.7 48.4,52L48.4,50.9C48.4,50.1 47,49 46.3,49L41.9,49C41.5,49 41.1,48.7 41.1,48.3C41.1,47.9 41.5,47.6 41.9,47.6L48.4,47.6L48.4,45.8L41.1,45.8ZM62.283,45.8C61.583,45.8 60.083,46.9 60.083,47.6L60.083,48.7C60.083,49.4 61.583,50.5 62.283,50.5L66.683,50.5C67.083,50.5 67.483,50.9 67.483,51.2C67.483,51.6 67.083,52 66.683,52L60.083,52L60.083,53.8L67.483,53.8C68.183,53.8 69.583,52.7 69.583,52L69.583,50.9C69.583,50.1 68.183,49 67.483,49L63.083,49C62.683,49 62.283,48.7 62.283,48.3C62.283,47.9 62.683,47.6 63.083,47.6L69.583,47.6L69.583,45.8L62.283,45.8ZM49.2,45.8L49.2,49.4C49.2,50.1 50.3,51.2 51,51.2L52.8,51.2L52.8,53.8L55.4,53.8L55.4,51.2L57.2,51.2C57.9,51.2 59,50.1 59,49.4L59,45.8L56.5,45.8L56.5,48.7C56.5,49 56.1,49.4 55.7,49.4L52.5,49.4C52.1,49.4 51.7,49 51.7,48.7L51.7,45.8L49.2,45.8ZM89.723,53.757L83.123,53.757C82.023,53.757 80.923,53.057 80.923,51.957L80.923,45.657L89.723,45.657L89.723,47.557L83.823,47.557C83.523,47.557 83.123,47.857 83.123,48.257C83.123,48.657 83.523,48.957 83.823,48.957L89.323,48.957L89.323,50.557L83.823,50.557C83.523,50.557 83.123,50.957 83.123,51.257C83.123,51.657 83.523,52.057 83.823,52.057L89.723,52.057L89.723,53.757ZM70.718,45.757L70.718,47.557L73.318,47.557C74.018,47.557 74.018,47.557 74.018,48.357L74.018,53.757L76.518,53.757L76.518,48.357C76.518,47.557 76.518,47.557 77.318,47.557L79.818,47.557L79.818,45.757L70.718,45.757ZM105.013,53.757L105.013,47.957C105.013,46.857 103.913,45.757 102.813,45.757L91.513,45.757L91.513,53.757L94.113,53.757L94.113,48.357C94.113,47.957 94.413,47.557 94.813,47.557L96.313,47.557C96.613,47.557 97.013,47.957 97.013,48.357L97.013,53.757L99.613,53.757L99.613,48.357C99.613,47.957 99.913,47.557 100.313,47.557L101.813,47.557C102.113,47.557 102.513,47.957 102.513,48.357L102.513,53.757L105.013,53.757ZM108.3,42.8L108.3,37C108.3,35.9 107.2,34.8 106.1,34.8L94.8,34.8L94.8,42.8L97.4,42.8L97.4,37.4C97.4,37 97.7,36.6 98.1,36.6L99.6,36.6C99.9,36.6 100.3,37 100.3,37.4L100.3,42.8L102.9,42.8L102.9,37.4C102.9,37 103.2,36.6 103.6,36.6L105.1,36.6C105.4,36.6 105.8,37 105.8,37.4L105.8,42.8L108.3,42.8ZM23.6,42.8L23.6,37C23.6,35.9 22.5,34.8 21.4,34.8L13,34.8L13,42.8L15.6,42.8L15.6,37.4C15.6,37 15.9,36.6 16.3,36.6L20.3,36.6C20.7,36.6 21.1,37 21.1,37.4L21.1,42.8L23.6,42.8ZM80.9,42.8L80.9,34.8L78.4,34.8L78.4,42.8L80.9,42.8ZM92.993,42.8L92.993,37C92.993,35.9 91.893,34.8 90.793,34.8L82.393,34.8L82.393,42.8L84.993,42.8L84.993,37.4C84.993,37 85.293,36.6 85.693,36.6L89.693,36.6C90.093,36.6 90.493,37 90.493,37.4L90.493,42.8L92.993,42.8ZM43.705,42.8L37.105,42.8C36.005,42.8 34.905,42.1 34.905,41L34.905,34.7L43.705,34.7L43.705,36.6L37.805,36.6C37.505,36.6 37.105,36.9 37.105,37.3C37.105,37.7 37.505,38 37.805,38L43.305,38L43.305,39.6L37.805,39.6C37.505,39.6 37.105,40 37.105,40.3C37.105,40.7 37.505,41.1 37.805,41.1L43.705,41.1L43.705,42.8ZM11.2,42.8L4.6,42.8C3.5,42.8 2.4,42.1 2.4,41L2.4,34.7L11.2,34.7L11.2,36.6L5.3,36.6C5,36.6 4.6,36.9 4.6,37.3C4.6,37.7 5,38 5.3,38L10.8,38L10.8,39.6L5.3,39.6C5,39.6 4.6,40 4.6,40.3C4.6,40.7 5,41.1 5.3,41.1L11.2,41.1L11.2,42.8ZM56.474,34.8L56.474,36.6L59.074,36.6C59.774,36.6 59.774,36.6 59.774,37.4L59.774,42.8L62.274,42.8L62.274,37.4C62.274,36.6 62.274,36.6 63.074,36.6L65.574,36.6L65.574,34.8L56.474,34.8ZM132.441,34.8L132.441,36.6L135.041,36.6C135.741,36.6 135.741,36.6 135.741,37.4L135.741,42.8L138.241,42.8L138.241,37.4C138.241,36.6 138.241,36.6 139.041,36.6L141.541,36.6L141.541,34.8L132.441,34.8ZM24.7,34.8L24.7,36.6L27.3,36.6C28,36.6 28,36.6 28,37.4L28,42.8L30.5,42.8L30.5,37.4C30.5,36.6 30.5,36.6 31.3,36.6L33.8,36.6L33.8,34.8L24.7,34.8ZM68.5,34.8C67.8,34.8 66.7,36.3 66.7,37L66.7,42.8L69.3,42.8L69.3,40.6L74,40.6L74,42.8L76.6,42.8L76.6,37C76.6,36.3 75.5,34.8 74.7,34.8L68.5,34.8ZM45.5,34.8L45.5,42.8L48.1,42.8L48.1,41.4C48.1,41 48.4,40.6 48.8,40.6L52.1,40.6C52.5,40.6 52.8,41 52.8,41.4L52.8,42.8L55,42.8L55,40.6C55,40.3 54.7,39.9 54.7,39.5C54.7,39.2 55.4,38.5 55.4,37.7L55.4,37C55.4,36.3 54.3,34.8 53.6,34.8L45.5,34.8ZM118.941,42.8L112.341,42.8C111.241,42.8 110.141,42.1 110.141,41L110.141,34.7L118.941,34.7L118.941,36.6L113.041,36.6C112.741,36.6 112.341,36.9 112.341,37.3C112.341,37.7 112.741,38 113.041,38L118.541,38L118.541,39.6L113.041,39.6C112.741,39.6 112.341,40 112.341,40.3C112.341,40.7 112.741,41.1 113.041,41.1L118.941,41.1L118.941,42.8ZM131.034,42.7L131.034,36.9C131.034,35.8 129.934,34.7 128.834,34.7L120.434,34.7L120.434,42.7L123.034,42.7L123.034,37.3C123.034,36.9 123.334,36.5 123.734,36.5L127.734,36.5C128.134,36.5 128.534,36.9 128.534,37.3L128.534,42.7L131.034,42.7ZM48.8,36.6L52.1,36.6C52.5,36.6 52.8,37 52.8,37.4L52.8,38.1C52.8,38.5 52.5,38.8 52.1,38.8L48.8,38.8C48.4,38.8 48.1,38.5 48.1,38.1L48.1,37.4C48.1,37 48.4,36.6 48.8,36.6ZM70,36.6L73.3,36.6C73.6,36.6 74,37 74,37.4L74,38.8L69.3,38.8L69.3,37.4C69.3,37 69.6,36.6 70,36.6ZM130.412,16.618C130.412,8.666 123.956,2.209 116.003,2.209L27.997,2.209C20.044,2.209 13.588,8.666 13.588,16.618C13.588,24.571 20.044,31.028 27.997,31.028L116.003,31.028C123.956,31.028 130.412,24.571 130.412,16.618ZM127.004,16.618C127.004,22.69 122.074,27.619 116.003,27.619C116.003,27.619 27.997,27.619 27.997,27.619C21.926,27.619 16.996,22.69 16.996,16.618C16.996,10.547 21.926,5.618 27.997,5.618L116.003,5.618C122.074,5.618 127.004,10.547 127.004,16.618ZM113.4,14C110.1,14 107.5,16.2 107.5,18.9C107.5,21.7 110.1,23.9 113.4,23.9C116.6,23.9 119.3,21.7 119.3,18.9C119.3,16.2 116.6,14 113.4,14ZM74,14C70.8,14 68.1,16.2 68.1,18.9C68.1,21.7 70.8,23.9 74,23.9C76.8,23.9 79.1,22.3 79.7,20.2L75.6,20.2L75.6,21.4C75.6,22.4 74.9,22.7 74,22.7C73.1,22.7 72.5,22.4 72.5,21.4L72.5,18.9L79.9,18.9C79.9,16.2 77.3,14 74,14ZM93.267,23.61L93.267,17.41C93.267,16.11 90.767,14.31 89.467,14.31L88.267,14.31C87.367,14.31 86.367,15.11 85.467,15.51L85.467,14.61L81.467,14.61L81.467,23.61L85.467,23.61L85.467,17.41C85.467,16.81 86.867,16.11 87.467,16.11C88.067,16.11 89.167,16.81 89.167,17.41L89.167,23.61L93.267,23.61ZM101.9,10L101.9,14.9C101.9,14.9 100.7,14 99.1,14C96.6,14 94.5,16.2 94.5,18.6C94.5,21.1 96.6,23.6 99.1,23.6C100.7,23.6 101.9,23 101.9,23L101.9,23.3L105.9,23.3L105.9,10L101.9,10ZM66.3,23.3L66.3,14.3L68.4,14.3L68.4,13.1L66.3,13.1L66.3,11.2L62.2,11.2L62.2,13.1L60.1,13.1L60.1,14.3L62.2,14.3L62.2,23.3L66.3,23.3ZM45.8,23.3L45.8,14.3L41.8,14.3L41.8,23.3L45.8,23.3ZM39.3,23.3L39.3,10L35.3,10L35.3,19.3L29.4,10L25.1,10L25.1,23.3L29.1,23.3L29.1,13.7L35.3,23.3L39.3,23.3ZM59.8,23.3L59.8,17.1C59.8,15.8 57.3,14 56,14L54.8,14C53.9,14 52.9,14.8 52,15.2L52,14.3L48,14.3L48,23.3L52,23.3L52,17.1C52,16.5 53.4,15.8 54,15.8C54.6,15.8 55.7,16.5 55.7,17.1L55.7,23.3L59.8,23.3ZM113.4,14.9C114.3,14.9 114.9,15.5 114.9,16.5L114.9,21.4C114.9,22.4 114.3,22.7 113.4,22.7C112.4,22.7 111.8,22.4 111.8,21.4L111.8,16.5C111.8,15.5 112.4,14.9 113.4,14.9ZM100.4,15.5C101.3,15.5 101.9,16.2 101.9,17.1L101.9,20.8C101.9,21.7 101.3,22 100.4,22C99.4,22 98.8,21.7 98.8,20.8L98.8,17.1C98.8,16.2 99.4,15.5 100.4,15.5ZM74,14.9C74.9,14.9 75.6,15.5 75.6,16.5L75.6,17.4L72.5,17.4L72.5,16.5C72.5,15.5 73.1,14.9 74,14.9ZM121.86,12.1C121.86,10.91 120.882,9.94 119.8,9.94C118.61,9.94 117.74,10.91 117.74,12.1C117.74,13.184 118.608,14.16 119.8,14.16C120.884,14.16 121.86,13.184 121.86,12.1ZM121.54,12.1C121.54,13.016 120.716,13.84 119.8,13.84C118.792,13.84 118.06,13.016 118.06,12.1C118.06,11.09 118.79,10.26 119.8,10.26C120.718,10.26 121.54,11.09 121.54,12.1ZM119.36,12.36L119.36,12.9L119.04,12.9L119.04,11.04C119.04,11.04 119.9,11.04 119.9,11.04C120.301,11.04 120.51,11.366 120.51,11.7C120.51,11.956 120.386,12.208 120.147,12.311L120.439,12.821L120.161,12.979L119.807,12.36L119.36,12.36ZM45.8,12.4L45.8,10L41.8,10L41.8,12.4L45.8,12.4ZM119.36,11.36L119.36,12.04L119.9,12.04C120.099,12.04 120.19,11.866 120.19,11.7C120.19,11.534 120.099,11.36 119.9,11.36L119.36,11.36Z" fill="white"/>
    </g>
</svg>
