<?xml version="1.0" encoding="UTF-8" standalone="no"?>
<!DOCTYPE svg PUBLIC "-//W3C//DTD SVG 1.1//EN" "http://www.w3.org/Graphics/SVG/1.1/DTD/svg11.dtd">
<svg width="100%" height="100%" viewBox="0 0 772 164" version="1.1" xmlns="http://www.w3.org/2000/svg" xmlns:xlink="http://www.w3.org/1999/xlink" xml:space="preserve" xmlns:serif="http://www.serif.com/" style="fill-rule:evenodd;clip-rule:evenodd;stroke-linejoin:round;stroke-miterlimit:2;">
    <g transform="matrix(1,0,0,1,404.945,-217.247)">
        <g id="path826" transform="matrix(1,0,0,1,-404.945,217.247)">
            <path d="M383.773,93.569L393.343,65.984L418.754,66.06L418.971,78.428L402.2,78.293L398.774,90.988L415.994,103.445C424.48,99.958 430.538,92.374 431.783,83.676C433.029,74.977 429.263,66.557 421.968,61.726C414.673,56.896 405.053,56.578 396.832,60.658L369.177,74.382L410.854,158.364L399.995,163.753L352.678,68.403L392.039,48.87C404.933,42.471 420.276,44.023 431.238,52.833C442.199,61.643 446.738,76.073 442.834,89.696C438.93,103.32 426.802,113.432 413.904,117.494L383.773,93.569ZM559.552,89.016C559.888,89.017 560.224,89.022 560.56,89.033C573.414,89.436 585.517,96.845 591.465,109.018L581.771,109.018C574.857,99.096 562.125,94.807 550.429,98.96C537.349,103.605 529.85,117.307 532.972,130.905C536.094,144.504 548.793,153.513 562.575,151.938C570.729,151.006 577.686,146.171 582.009,139.96L591.592,139.96C586.43,150.255 576.037,158.836 563.527,160.265C545.561,162.318 528.856,150.453 524.8,132.782C520.743,115.111 530.575,97.113 547.621,91.06C551.349,89.736 555.17,89.074 558.945,89.02L558.945,89.018C559.114,89.017 559.282,89.016 559.451,89.016L559.552,89.016ZM247.361,125.96C247.361,141.414 233.749,158.212 215.782,160.265C197.816,162.318 181.111,150.453 177.055,132.782C172.998,115.111 182.83,97.113 199.876,91.06C203.604,89.736 207.425,89.074 211.2,89.02L211.2,89.02C211.74,89.012 212.278,89.016 212.815,89.033C225.669,89.436 237.772,96.845 243.72,109.018L234.025,109.018C227.112,99.096 214.38,94.807 202.684,98.96C189.603,103.605 182.105,117.307 185.227,130.905C188.349,144.504 201.048,153.513 214.83,151.938C225.645,150.702 234.357,142.602 237.608,133.527L200.57,133.527L200.57,125.96L247.362,125.96L247.361,125.96ZM136.276,89.379L136.276,89.379C116.893,89.379 100.943,105.329 100.943,124.712L100.943,124.712C100.943,144.095 116.893,160.046 136.276,160.046L136.276,160.046C155.66,160.046 171.61,144.095 171.61,124.712L171.61,124.712C171.61,105.329 155.66,89.379 136.276,89.379ZM480.991,89.379L480.991,89.379C461.608,89.379 445.657,105.329 445.657,124.712L445.657,124.712C445.657,144.095 461.608,160.046 480.991,160.046L480.991,160.046C500.374,160.046 516.324,144.095 516.324,124.712L516.324,124.712C516.324,105.329 500.374,89.379 480.991,89.379ZM325.68,89.379L325.68,89.379C306.297,89.379 290.347,105.329 290.347,124.712L290.347,124.712C290.347,144.095 306.297,160.046 325.68,160.046L325.68,160.046C345.063,160.046 361.014,144.095 361.014,124.712L361.014,124.712C361.014,105.329 345.063,89.379 325.68,89.379ZM53.555,158.142L46.169,158.142L7.576,102.647L7.576,158.142L0,158.142L0,91.282L9.281,91.282L46.025,144.315L46.025,91.282L53.555,91.282L53.555,158.142ZM607.796,128.784L645.298,91.282L655.147,91.282L623.118,124.494L655.526,158.142L645.487,158.142L617.748,130.062L607.796,140.381L607.796,158.142L600.174,158.142L600.174,91.282L607.796,91.282L607.796,128.784ZM704.915,158.142L667.602,158.142L667.458,91.282L704.771,91.282L704.771,98.839L674.964,98.839L674.964,120L702.821,120L702.821,127.5L674.964,127.5L674.964,151.875L704.83,151.875L704.915,158.142ZM288.984,158.142L251.672,158.142L251.528,91.282L288.841,91.282L288.841,98.839L259.033,98.839L259.033,120L286.891,120L286.891,127.5L259.033,127.5L259.033,151.875L288.899,151.875L288.984,158.142ZM98.065,158.142L60.753,158.142L60.609,91.282L97.922,91.282L97.922,98.839L68.115,98.839L68.115,120L95.972,120L95.972,127.5L68.115,127.5L68.115,151.875L97.981,151.875L98.065,158.142ZM740,98.839L716.703,98.839L716.703,91.282L771.251,91.282L771.251,98.839L747.72,98.839L747.72,158.142L740,158.142L740,98.839ZM136.37,97.153C136.37,97.153 136.371,97.153 136.371,97.153C151.541,97.153 164.025,109.636 164.025,124.807C164.025,124.807 164.025,124.807 164.025,124.807C164.024,139.978 151.541,152.461 136.37,152.461C121.2,152.46 108.717,139.977 108.717,124.807C108.717,109.637 121.2,97.153 136.37,97.153ZM481.085,97.153C481.085,97.153 481.085,97.153 481.085,97.153C496.256,97.153 508.74,109.636 508.74,124.807C508.74,124.807 508.74,124.807 508.74,124.807C508.739,139.978 496.255,152.461 481.085,152.461C465.915,152.46 453.432,139.977 453.431,124.807C453.431,109.637 465.914,97.153 481.085,97.153L481.085,97.153ZM325.774,97.153C325.774,97.153 325.774,97.153 325.774,97.153C340.945,97.153 353.429,109.636 353.429,124.807C353.429,124.807 353.429,124.807 353.429,124.807C353.428,139.978 340.944,152.461 325.774,152.461C310.604,152.46 298.121,139.977 298.12,124.807C298.12,109.637 310.603,97.153 325.774,97.153L325.774,97.153ZM469.9,30L446.195,51.161L451.686,59.33L477.802,42.991L469.9,30ZM448.07,10.313L431.731,38.705L438.963,43.527L459.588,18.482L448.07,10.313ZM415.525,0L411.106,32.813L419.409,34.42L431.061,2.277L415.525,0Z" fill="white"/>
        </g>
    </g>
</svg>
