<?xml version="1.0" encoding="UTF-8" standalone="no"?>
<!DOCTYPE svg PUBLIC "-//W3C//DTD SVG 1.1//EN" "http://www.w3.org/Graphics/SVG/1.1/DTD/svg11.dtd">
<svg width="100%" height="100%" viewBox="0 0 994 481" version="1.1" xmlns="http://www.w3.org/2000/svg" xmlns:xlink="http://www.w3.org/1999/xlink" xml:space="preserve" xmlns:serif="http://www.serif.com/" style="fill-rule:evenodd;clip-rule:evenodd;stroke-linejoin:round;stroke-miterlimit:2;">
    <g transform="matrix(1,0,0,1,0.000569212,-0.00263764)">
        <path d="M400.807,395.896L328.199,407.411L343.109,327.209C344.86,317.847 346.189,319.473 337.16,320.891L328.952,322.203L312.643,409.879L111.059,441.869C102.117,443.285 96.289,436.759 98.039,427.309L137.52,214.947C139.269,205.496 147.968,196.676 156.909,195.259L262.557,178.493L287.004,46.964L401.735,28.764C429.683,24.336 450.455,47.559 444.96,77.099L437.067,119.572C431.572,149.093 400.649,180.524 372.703,184.951L320.203,193.281L308.476,256.316L380.437,244.888C389.572,243.436 405.795,247.777 415.069,258.836C427.336,243.191 446.64,235.387 457.052,233.741L476.616,230.451L443.121,256.227L442.965,257.944C433.409,262.879 426.269,272.381 424.152,283.825L412.183,348.225C409.364,363.347 417.135,372.044 431.449,369.769L498.212,359.181L495.447,374.021C491.072,397.613 465.697,420.169 443.157,423.756L417.52,427.816L412.409,455.223L446.113,449.884C479.049,444.652 516.184,411.384 522.66,376.575L548.121,239.587L547.476,239.673L507.435,246.027L591.924,215.488L615.392,243.173L596.736,343.555L625.245,339.021L641.553,251.347L691.255,243.453C700.268,242.019 703.103,245.048 701.371,254.409L687.473,329.152L713.409,325.039C713.409,325.039 731.943,226.304 732.712,224.116C730.803,215.856 723.839,211.692 713.409,213.353L641.064,224.816L632.087,204.971L712.289,192.248C720.777,190.901 735.372,194.541 744.823,203.904C755.043,192.125 769.093,183.236 781.852,181.207L853.899,169.779C869.544,167.293 903.809,177.164 897.544,214.333L895.567,224.273C893.973,232.848 888.48,243.068 881.427,251.415L889.564,257.209L877.856,320.225L752.313,340.14C745.54,341.209 739.135,340.351 733.656,337.936L732.66,343.256L660.068,354.772L674.98,274.552C676.712,265.188 678.043,266.816 669.029,268.251L660.803,269.563L644.511,357.238L543.396,373.285C533.267,424.423 501.693,467.313 418.709,475.503L385.004,480.84L398.76,406.869L424.415,402.789C446.955,399.223 461.724,396.423 463.807,385.238L407.753,394.024C405.584,394.356 403.1,393.637 401.245,393.499L400.807,395.896ZM729.537,123.75C822.082,143.378 896.561,172.19 940.873,205.929C969.209,227.506 985.1,250.888 984.336,275.298C983.823,291.766 975.702,307.335 961.373,321.821C946.434,336.924 924.834,350.773 897.779,363.113C815.252,400.754 682.506,424.064 530.985,423.657C528.409,423.65 526.312,425.736 526.305,428.311C526.298,430.887 528.384,432.984 530.959,432.991C684.105,433.401 818.241,409.649 901.652,371.605C929.909,358.717 952.406,344.158 968.008,328.384C984.221,311.994 993.085,294.22 993.664,275.589C994.508,248.647 977.805,222.319 946.527,198.504C901.417,164.156 825.684,134.601 731.474,114.62C728.954,114.086 726.475,115.698 725.94,118.217C725.406,120.737 727.018,123.216 729.537,123.75ZM247.14,369.751L156.385,384.154L167.095,326.597L224.127,317.551L229.22,290.161L172.187,299.209L182.879,241.669L252.879,230.556L257.972,203.152L159.447,218.779L122.277,418.804L241.539,399.887L247.14,369.751ZM384.129,377.277L355.604,381.789L369.5,307.065C371.249,297.703 368.415,294.66 359.385,296.093L309.684,303.988L293.392,391.661L264.867,396.193L286.252,281.113L286.917,281.008L381.539,265.995C395.855,263.719 403.624,272.399 400.807,287.536L384.129,377.277ZM251.217,347.824L269.539,249.193L202.129,259.887L199.592,273.589L254.035,264.944L240.787,336.185L186.344,344.832L183.807,358.515L251.217,347.824ZM103.525,344.606C73.059,329.819 48.929,313.57 32.632,296.301C17.008,279.746 8.667,262.346 9.374,244.443C10.306,220.58 27.049,198.701 55.617,179.278C100.295,148.903 173.594,125.002 263.947,110.811C266.491,110.412 268.232,108.022 267.833,105.477C267.433,102.933 265.043,101.192 262.499,101.591C170.465,116.046 95.878,140.62 50.369,171.56C18.812,193.015 1.077,217.718 0.048,244.077C-0.593,260.309 5.085,276.278 16.49,291.611C32.893,313.662 61.358,334.515 99.449,353.002C101.766,354.127 104.561,353.159 105.685,350.842C106.81,348.525 105.842,345.73 103.525,344.606ZM569.505,236.173L568.86,236.296L547.476,351.36L575.981,346.844L597.385,231.764L569.505,236.173ZM447.287,294.727C449.02,285.348 453.184,281.219 462.215,279.784L514.504,271.505L503.303,331.777L451.015,340.071C441.984,341.505 439.149,338.477 440.899,329.099L447.287,294.727ZM742.477,290.405C739.361,307.259 752.208,318.879 767.625,316.429L854.915,302.587L860.129,274.515L782.745,286.836C776.271,287.869 771.58,282.356 772.892,275.285L773.891,269.073L843.12,258.084C854.355,256.3 866.901,243.243 869.193,230.959L872.467,213.827C874.76,201.541 866.955,188.993 855.719,190.779L789.027,201.348C773.611,203.799 755.516,220.336 752.381,237.171L742.477,290.405ZM465.084,307.259C466.852,298.56 470.072,299.821 478.892,298.423L487.1,297.125L484.545,310.811L476.336,312.123C467.517,313.524 463.632,315.887 465.084,307.259ZM619.399,190.009L742.615,96.085L597.892,153.853L557.223,111.521L570.189,170.18L446.972,264.103L591.697,206.319L632.365,248.652L619.399,190.009ZM779.209,240.479C780.521,233.408 787.627,226.024 794.103,224.991L799.704,224.116L821.803,220.599L835.665,218.411C839.917,217.728 842.665,220.949 841.808,225.604C840.933,230.259 836.784,234.563 832.531,235.247L778.597,243.804L779.209,240.479ZM561.877,165.579L554.176,135.059L549.836,135.584L548.439,143.109C547.476,148.324 543.275,152.576 538.356,153.364L508.539,158.089C503.62,158.876 500.801,155.727 501.767,150.512L516.797,69.679C517.76,64.481 521.959,60.228 526.877,59.441L556.697,54.716C561.613,53.928 564.433,57.079 563.468,62.277L561.544,72.567L621.833,62.993L624.125,50.673C629.899,19.576 608.76,-4.067 579.324,0.589L521.645,9.741C492.227,14.413 460.727,46.404 454.952,77.5L438.905,163.811C433.129,194.908 454.269,218.551 483.705,213.879L502.989,210.833L561.877,165.579ZM604.611,147.169C606.188,142.933 607.272,141.324 608.079,136.984L610.125,126.012L586.131,129.827L604.611,147.169ZM329.879,141.219L366.175,135.461C370.935,134.708 374.539,131.051 375.484,126.012L382.1,90.381C383.045,85.359 380.612,82.645 375.852,83.399L339.557,89.156L329.879,141.219ZM526.741,98.157C581.032,100.756 632.931,106.267 681.029,114.166C683.571,114.584 685.973,112.859 686.39,110.318C686.808,107.776 685.083,105.374 682.542,104.956C634.111,97.002 581.853,91.452 527.187,88.835C524.614,88.712 522.426,90.7 522.303,93.273C522.18,95.846 524.168,98.034 526.741,98.157Z" fill="white"/>
    </g>
</svg>
