<?xml version="1.0" encoding="UTF-8" standalone="no"?>
<!DOCTYPE svg PUBLIC "-//W3C//DTD SVG 1.1//EN" "http://www.w3.org/Graphics/SVG/1.1/DTD/svg11.dtd">
<svg width="100%" height="100%" viewBox="0 0 754 123" version="1.1" xmlns="http://www.w3.org/2000/svg" xmlns:xlink="http://www.w3.org/1999/xlink" xml:space="preserve" xmlns:serif="http://www.serif.com/" style="fill-rule:evenodd;clip-rule:evenodd;stroke-linejoin:round;stroke-miterlimit:2;">
    <g transform="matrix(1,0,0,1,-1e-07,1e-05)">
        <g transform="matrix(1,0,0,1,2.32233,-490.726)">
            <path id="path6945" d="M-2.322,490.726L218.219,490.726L218.219,556.126L6.393,556.126L6.393,612.81L-2.322,612.81L-2.322,547.41L209.504,547.41L209.504,499.441L-2.322,499.441L-2.322,490.726" fill="white"/>
        </g>
        <g transform="matrix(1,0,0,1,2.32233,-490.726)">
            <path id="path6947" d="M493.714,556.126L493.714,612.81L484.999,612.81L484.999,547.41L696.825,547.41L696.825,499.441L484.999,499.441L484.999,490.726L705.54,490.726L705.54,556.126L493.714,556.126" fill="white"/>
        </g>
        <g transform="matrix(1,0,0,1,2.32233,-490.726)">
            <path id="path6949" d="M330.669,490.726L330.669,604.095L218.219,604.095L218.219,612.81L339.868,612.81L339.868,499.441L452.317,499.441L452.317,490.726L330.669,490.726" fill="white"/>
        </g>
        <g transform="matrix(1,0,0,1,2.32233,-490.726)">
            <path id="path6951" d="M728.66,599.931L723.939,599.931L723.939,598.285L735.317,598.285L735.317,599.931L730.596,599.931L730.596,612.834L728.66,612.834L728.66,599.931" fill="white"/>
        </g>
        <g transform="matrix(1,0,0,1,2.32233,-490.726)">
            <path id="path6953" d="M743.064,612.834L739.069,601.021L739.069,612.834L737.133,612.834L737.133,598.285L739.796,598.285L743.911,610.656L748.148,598.285L750.811,598.285L750.811,612.834L748.874,612.834L748.874,601.021L745.001,612.834L743.064,612.834" fill="white"/>
        </g>
    </g>
</svg>
