<?xml version="1.0" encoding="UTF-8" standalone="no"?>
<!DOCTYPE svg PUBLIC "-//W3C//DTD SVG 1.1//EN" "http://www.w3.org/Graphics/SVG/1.1/DTD/svg11.dtd">
<svg width="100%" height="100%" viewBox="0 0 164 32" version="1.1" xmlns="http://www.w3.org/2000/svg" xmlns:xlink="http://www.w3.org/1999/xlink" xml:space="preserve" xmlns:serif="http://www.serif.com/" style="fill-rule:evenodd;clip-rule:evenodd;stroke-linejoin:round;stroke-miterlimit:2;">
    <g transform="matrix(1,0,0,1,-135.329,-17.4838)">
        <path id="path3003" d="M175.471,22.815L181.999,39.923L178.251,49.101L181.213,49.101L192.004,22.815L188.698,22.815L183.997,35.627L179.623,22.815L175.471,22.815ZM263.426,22.666C265.853,22.666 267.736,23.208 268.747,24.026C269.768,24.846 271.023,26.575 271.023,31.578C271.023,36.582 269.768,38.309 268.747,39.131C267.736,39.949 265.853,40.495 263.426,40.495C260.993,40.495 259.118,39.949 258.099,39.131C257.08,38.309 255.832,36.582 255.832,31.578C255.832,26.575 257.08,24.846 258.099,24.026C259.118,23.208 260.993,22.666 263.426,22.666ZM295.256,40.483C296.187,40.483 297.063,40.12 297.721,39.466C298.377,38.806 298.74,37.93 298.74,37.001C298.74,36.07 298.377,35.194 297.721,34.536C297.063,33.88 296.187,33.519 295.256,33.519C293.343,33.519 291.774,35.081 291.774,37.001C291.774,37.93 292.133,38.806 292.797,39.466C293.457,40.12 294.329,40.483 295.256,40.483ZM194.691,40.204L194.691,38.044C194.691,38.044 198.464,38.192 199.25,38.192C200.991,38.192 201.86,37.821 202.515,37.119C202.901,36.698 203.25,34.833 203.25,34.169C203.25,33.507 203.123,32.075 202.864,31.489C202.596,30.914 201.988,30.378 201.077,30.3C200.426,30.244 199.421,30.113 198.247,30.059C196.599,29.981 195.51,29.121 194.986,28.503C194.465,27.885 193.769,26.954 193.769,24.104C193.769,21.25 194.507,19.65 195.247,18.908C195.987,18.162 197.07,17.835 197.902,17.688C198.859,17.524 200.423,17.514 200.423,17.514L205.416,17.66L205.416,19.82C205.416,19.82 201.775,19.674 200.991,19.674C199.25,19.674 198.727,20.047 198.075,20.747C197.69,21.164 197.389,22.317 197.389,22.977C197.389,23.641 197.467,24.981 197.728,25.561C197.987,26.136 198.598,26.674 199.511,26.756C200.159,26.806 201.166,26.938 202.339,26.991C203.994,27.069 205.081,27.927 205.6,28.547C206.124,29.167 206.822,30.474 206.822,33.322C206.822,36.175 206.078,38.214 205.343,38.958C204.601,39.699 203.52,40.031 202.688,40.174C201.729,40.34 200.165,40.352 200.165,40.352L194.691,40.204ZM241.484,19.674L237.916,19.674L237.916,36.453C237.916,36.453 238,37.984 238.086,38.523C238.176,39.061 238.953,40.34 241.006,40.34L244.701,40.268L244.701,38.116C244.701,38.116 243.698,38.188 243.092,38.188C242.485,38.188 241.742,38.148 241.612,37.113C241.484,36.08 241.484,34.845 241.484,34.845L241.484,24.965L245.503,24.965L245.503,22.815L241.484,22.815L241.484,19.674ZM214.158,22.815L218.186,22.815L218.186,24.965L214.158,24.965L214.158,34.845C214.158,34.845 214.158,36.08 214.291,37.113C214.417,38.148 215.159,38.188 215.771,38.188C216.375,38.188 217.377,38.116 217.377,38.116L217.377,40.268L213.681,40.34C211.637,40.34 210.853,39.061 210.765,38.523C210.677,37.984 210.592,36.453 210.592,36.453L210.592,19.674L214.158,19.674L214.158,22.815ZM135.329,17.484L135.329,40.34L138.897,40.34L138.897,19.674L142.199,19.674C142.199,19.674 144.599,19.674 145.42,20.747C146.118,21.659 146.246,23.312 146.246,24.429C146.246,25.623 146.17,27.47 145.769,28.146C145.161,29.179 144.162,29.387 143.248,29.387L141.069,29.387L141.069,31.415L144.204,31.415C144.204,31.415 147.032,31.533 148.248,30.296C149.74,28.78 150.119,26.742 150.119,24.014C150.119,21.535 149.219,19.034 147.381,18.184C145.859,17.484 143.115,17.484 143.115,17.484L135.329,17.484ZM248.588,40.34L252.154,40.34L252.154,22.816L248.588,22.816L248.588,40.34ZM152.923,40.34L156.49,40.34L156.49,17.484L152.923,17.484L152.923,40.34ZM278.412,25.276L281.91,25.129C282.825,25.129 283.902,25.376 284.425,26.038C284.911,26.662 285.218,27.406 285.218,28.605L285.218,40.32L288.79,40.32L288.79,28.31C288.79,26.038 288.09,24.718 287.041,23.888C285.545,22.702 282.865,22.815 282.865,22.815L274.874,22.959L274.874,40.32L278.412,40.32L278.412,25.276ZM170.029,28.605C170.029,27.406 169.723,26.662 169.233,26.038C168.71,25.376 167.637,25.129 166.72,25.129L162.015,25.276L162.015,22.959L167.677,22.815C167.677,22.815 170.358,22.702 171.855,23.888C172.9,24.718 173.594,26.038 173.594,28.31L173.594,40.152L166.758,40.3C166.758,40.3 163.663,40.311 162.103,39.68C160.583,39.061 159.754,37.364 159.754,35.009C159.754,32.735 160.45,31.415 161.495,30.585C162.992,29.397 165.671,29.514 165.671,29.514L167.855,29.514L167.855,31.533L166.63,31.533C165.713,31.533 164.769,31.702 164.245,32.364C163.756,32.982 163.495,33.519 163.495,34.718C163.495,36.291 163.8,36.993 164.54,37.528C165.194,38.004 166.365,38.108 167.671,38.108L170.029,37.964L170.029,28.605ZM230.184,28.605C230.184,27.406 229.885,26.662 229.394,26.038C228.866,25.376 227.793,25.129 226.882,25.129L222.179,25.276L222.179,22.959L227.837,22.815C227.837,22.815 230.515,22.702 232.011,23.888C233.056,24.718 233.754,26.038 233.754,28.31L233.754,40.152L226.917,40.3C226.917,40.3 223.818,40.311 222.263,39.68C220.741,39.061 219.909,37.364 219.909,35.009C219.909,32.735 220.611,31.415 221.65,30.585C223.146,29.397 225.831,29.514 225.831,29.514L228.012,29.514L228.012,31.533L226.786,31.533C225.874,31.533 224.925,31.702 224.407,32.364C223.916,32.982 223.653,33.519 223.653,34.718C223.653,36.291 223.96,36.993 224.698,37.528C225.35,38.004 226.527,38.108 227.833,38.108L230.184,37.964L230.184,28.605ZM292.358,37.001C292.358,36.227 292.663,35.499 293.208,34.953C293.758,34.406 294.482,34.101 295.256,34.101C296.03,34.101 296.76,34.406 297.306,34.953C297.851,35.499 298.156,36.227 298.156,37.001C298.156,38.599 296.857,39.901 295.256,39.901C294.482,39.901 293.758,39.596 293.208,39.051C292.663,38.503 292.358,37.777 292.358,37.001ZM296.975,38.619C296.923,38.599 296.883,38.539 296.862,38.449C296.846,38.385 296.832,38.287 296.828,38.156L296.812,37.655C296.804,37.42 296.754,37.252 296.67,37.141C296.616,37.065 296.534,37.005 296.441,36.949C296.556,36.873 296.66,36.782 296.734,36.666C296.832,36.51 296.883,36.313 296.883,36.074C296.883,35.615 296.69,35.292 296.313,35.122C296.113,35.033 295.872,34.993 295.577,34.993L293.776,34.993L293.776,38.87L294.446,38.87L294.446,37.28L295.505,37.28C295.697,37.28 295.84,37.3 295.922,37.336C296.06,37.404 296.133,37.542 296.141,37.751L296.171,38.371C296.179,38.523 296.187,38.618 296.199,38.674C296.217,38.734 296.227,38.782 296.249,38.822L296.277,38.87L297.025,38.87L297.025,38.642L296.975,38.619ZM260.981,26.026C260.49,26.63 259.892,27.901 259.892,31.578C259.892,35.254 260.49,36.526 260.981,37.129C261.47,37.727 262.371,38.132 263.538,38.132C264.706,38.132 265.604,37.727 266.099,37.129C266.587,36.526 267.185,35.254 267.185,31.578C267.185,27.901 266.587,26.63 266.099,26.026C265.604,25.426 264.706,25.025 263.538,25.025C262.371,25.025 261.47,25.426 260.981,26.026ZM296.199,36.122C296.199,36.339 296.143,36.483 296.036,36.562C295.912,36.644 295.741,36.69 295.525,36.69L294.446,36.69L294.446,35.593L295.591,35.593C295.745,35.593 295.872,35.615 295.964,35.659C296.124,35.739 296.199,35.894 296.199,36.122L296.199,36.122ZM248.588,20.665L252.154,20.665L252.154,17.484L248.588,17.484L248.588,20.665Z" fill="white"/>
    </g>
</svg>
