<?xml version="1.0" encoding="UTF-8" standalone="no"?>
<!DOCTYPE svg PUBLIC "-//W3C//DTD SVG 1.1//EN" "http://www.w3.org/Graphics/SVG/1.1/DTD/svg11.dtd">
<svg width="100%" height="100%" viewBox="0 0 1008 230" version="1.1" xmlns="http://www.w3.org/2000/svg" xmlns:xlink="http://www.w3.org/1999/xlink" xml:space="preserve" xmlns:serif="http://www.serif.com/" style="fill-rule:evenodd;clip-rule:evenodd;stroke-linejoin:round;stroke-miterlimit:2;">
    <g transform="matrix(1,0,0,1,-55.2367,-318.674)">
        <path id="path4768" d="M234.483,318.674C237.341,318.681 240.198,318.795 243.048,319.015C268.075,344.576 305.963,382.606 307.009,383.996C307.54,384.701 309.199,386.433 311.055,388.323C314.939,387.04 318.762,385.824 322.513,384.684C315.126,377.772 301.951,365.512 297.875,361.338C291.691,354.89 265.232,329.758 256.21,320.838C260.533,321.684 264.804,322.777 269.001,324.113C292.624,347.803 321.055,376.024 327.946,383.074C332.702,381.702 337.336,380.465 341.825,379.387C357.337,375.663 371.037,373.571 383.798,375.404C390.179,376.321 396.563,378.347 402.129,382.567C407.694,386.788 411.866,393.344 413.532,400.267C416.675,413.329 413.882,427.045 406.825,438.026C399.769,449.007 389.239,457.87 376.169,466.187C364.881,473.371 351.541,480.242 336.296,486.969C332.181,481.93 326.943,476.003 321.258,470.76C308.71,459.187 295.919,443.485 283.09,430.155C280.444,431.166 277.779,432.193 275.1,433.233C294.1,452.294 321.223,478.398 334.122,490.761C332.657,493.336 331.093,495.855 329.433,498.309C325.971,494.759 317.304,485.988 307.145,476.618C294.506,464.961 281.622,449.116 268.703,435.728C265.028,437.168 261.33,438.628 257.618,440.102C284.105,465.118 323.793,499.656 326.678,502.164C324.425,505.194 322.024,508.111 319.485,510.905C315.394,507.308 307.642,500.273 299.191,491.414C284.955,476.491 266.719,457.624 251.498,442.536C249.568,443.306 247.63,444.08 245.691,444.856L244.508,445.329C271.29,471.785 310.812,509.404 316.178,514.507C313.085,517.605 309.819,520.524 306.393,523.25C304.137,520.946 296.753,513.398 286.201,502.336C270.882,486.277 250.69,465.049 234.75,449.238L229.692,451.264C255.894,477.318 298.495,517.883 305.138,524.203C302.056,526.607 298.854,528.852 295.543,530.929C289.474,524.927 247.776,483.709 218.709,455.648C216.717,456.44 214.727,457.23 212.739,458.016C241.43,485.325 285.919,525.428 293.454,532.211C289.46,534.621 285.324,536.786 281.067,538.694C275.176,532.718 232.359,489.327 203.803,461.53C201.914,462.268 200.029,463.001 198.15,463.728C226.749,491.928 270.269,533.464 277.386,540.252C274.007,541.619 270.564,542.824 267.071,543.863C259.446,536.392 214.048,491.944 188.228,467.527C186.518,468.174 184.815,468.814 183.119,469.447C211.141,496.681 253.912,536.597 262.862,544.938C257.873,546.234 252.801,547.193 247.683,547.808C235.448,535.52 206.524,506.728 184.764,487.156C179.868,482.753 175.339,477.862 171.455,473.716C170.407,474.092 169.361,474.464 168.32,474.832C187.691,494.753 226.716,532.698 242.741,548.23C239.994,548.467 237.239,548.605 234.483,548.644C230.371,548.599 226.265,548.335 222.182,547.85C203.877,529.917 171.476,498.125 153.266,479.958C152.17,480.315 151.08,480.666 149.996,481.011C166.004,497.969 198.345,528.723 218.138,547.36C205.422,545.534 193.441,541.671 182.502,536.127C133.356,545.15 101.745,543.801 101.745,543.801C93.434,543.545 86.936,536.541 87.305,528.234C87.674,519.926 94.766,513.525 103.068,514.007C103.068,514.007 120.43,514.809 149.654,511.169C142.807,503.685 136.952,495.304 132.27,486.238C118.101,490.043 105.32,492.458 93.605,492.351C80.633,492.232 66.164,487.924 59.408,475.175C51.47,460.195 55.665,442.281 65.236,429.347C74.807,416.414 89.161,405.46 106.704,394.986C114.592,390.276 123.151,385.698 132.228,381.285L132.217,381.306C132.732,380.318 133.261,379.338 133.805,378.365C144.8,390.496 175.708,420.598 177.118,422.471C177.956,423.585 184.779,430.372 189.49,435.068C191.066,434.457 192.649,433.84 194.236,433.22C193.985,432.972 193.702,432.687 193.383,432.36C189.646,428.534 185.643,424.702 184.126,423.122C180.3,419.135 177.397,416.776 172.541,411.711C166.743,405.665 144.884,385.179 134.855,376.536C136.889,372.987 139.112,369.549 141.512,366.236C155.111,380.881 199.277,425.15 203.352,429.637C206.008,428.587 208.675,427.529 211.353,426.463C208.573,423.679 206.043,421.11 204.179,419.202C197.352,412.083 184.262,401.817 178.81,396.158C173.237,390.346 154.632,373.758 143.569,363.362C145.872,360.386 148.321,357.526 150.905,354.791C162.465,367.347 210.874,414.41 219.524,423.204C222.253,422.113 224.988,421.019 227.725,419.923C227.231,419.433 226.679,418.877 226.04,418.222C219.212,411.103 194.806,391.65 189.354,385.991C184.152,380.566 168.048,367.285 156.858,356.873C155.439,355.553 154.324,353.74 154.499,351.217C156.989,348.789 159.589,346.474 162.289,344.281C180.185,363.197 227.447,411.007 228.732,412.715C229.267,413.426 231.439,415.36 233.858,417.469L234.614,417.166C237.781,415.899 240.947,414.634 244.105,413.375C237.879,407.532 237.72,407.794 233.194,403.159C226.366,396.04 201.96,376.587 196.508,370.928C191.307,365.503 177.066,353.154 165.609,341.81C165.6,341.801 165.59,341.79 165.58,341.781C168.277,339.759 171.062,337.857 173.926,336.08L173.926,336.08C187.042,350.188 237.085,400.252 248.24,411.73C251.912,410.271 255.573,408.822 259.223,407.389C253.622,402.278 251.62,401.717 247.307,397.301C240.48,390.182 218.332,370.729 212.88,365.07C207.766,359.736 189.742,344.714 178.249,333.428C181.581,331.56 185.004,329.858 188.505,328.33C204.593,345.478 250.729,392.77 263.218,405.825C267.448,404.174 271.655,402.55 275.828,400.961C269.949,395.557 263.188,389.549 259.357,385.627C252.53,378.508 230.915,360.254 225.463,354.596C220.953,349.892 206.006,336.756 194.64,325.949C197.665,324.823 200.737,323.825 203.846,322.957C224.412,344.062 272.047,391.141 280.038,399.368C283.602,398.026 287.139,396.713 290.642,395.438C284.109,389.274 274.869,380.466 270.807,376.307C263.979,369.188 242.365,350.935 236.913,345.276C233.019,341.215 221.336,330.862 210.901,321.154C214.653,320.368 218.441,319.77 222.252,319.362C246.487,344.266 291.487,389.402 292.63,390.92C293.018,391.436 294.01,392.501 295.242,393.777C298.585,392.581 301.894,391.421 305.166,390.303C298.266,383.757 286.041,371.849 281.801,367.508C274.974,360.388 253.549,340.816 248.096,335.157C245.252,332.191 238.232,325.845 230.598,318.868C231.891,318.782 233.187,318.717 234.483,318.674ZM572.752,543.814C574.734,542.301 575.953,540.33 576.4,537.911C577.554,530.334 578.806,523.322 580.146,516.908L639.152,516.908C640.687,524.171 642.103,532.185 643.409,540.94C643.867,543.356 644.923,545.327 647.057,546.829C649.028,548.343 651.304,548.953 653.743,548.495C656.171,548.19 658.142,546.981 659.666,545.023C661.18,542.898 661.789,540.786 661.485,538.217C651.913,475.192 634.742,444.356 609.828,445.869C584.915,444.355 567.743,474.136 558.325,535.2C557.867,537.617 558.477,539.882 559.991,541.843C561.515,543.966 563.486,545.175 565.925,545.468C568.506,545.928 570.629,545.328 572.752,543.814ZM739.426,452.97C737.608,451.314 735.474,450.401 732.893,450.401L653.895,450.401C651.456,450.401 649.18,451.315 647.503,452.97C645.685,454.789 644.77,456.9 644.77,459.471C644.77,461.888 645.685,464.153 647.503,465.819C649.18,467.638 651.456,468.541 653.895,468.541L684.275,468.541L684.275,538.066C684.275,540.484 685.189,542.759 687.008,544.414C688.685,546.233 690.96,547.136 693.389,547.136C695.98,547.136 698.103,546.233 699.922,544.414C701.599,542.758 702.513,540.484 702.513,538.066L702.513,468.541L732.893,468.541C735.474,468.541 737.608,467.638 739.426,465.819C741.103,464.153 742.007,461.888 742.007,459.471C742.007,456.9 741.103,454.788 739.426,452.97ZM845.875,451.162C844.056,449.343 841.932,448.44 839.341,448.44C836.913,448.44 834.638,449.343 832.961,451.162C831.142,452.817 830.226,455.092 830.226,457.51L830.226,502.393C830.226,505.878 829.617,509.199 828.256,512.226C827.036,515.393 825.065,517.964 822.779,520.381C820.351,522.645 817.77,524.617 814.58,525.825C811.542,527.186 808.2,527.785 804.704,527.785L791.181,527.785C787.685,527.785 784.494,527.186 781.304,525.825C778.114,524.617 775.533,522.645 773.105,520.381C770.819,517.963 769,515.393 767.629,512.367L767.629,512.226C766.422,509.199 765.658,505.878 765.658,502.393L765.658,457.51C765.658,455.092 764.743,452.816 763.078,451.162C761.248,449.343 759.125,448.44 756.544,448.44C754.116,448.44 751.83,449.343 750.164,451.162C748.334,452.817 747.431,455.092 747.431,457.51L747.431,502.393C747.431,508.295 748.639,513.881 750.773,519.325L750.926,519.325C753.049,524.617 756.24,529.147 760.192,533.23C764.286,537.161 768.849,540.331 774.162,542.606C779.488,544.87 785.106,545.928 791.182,545.928L804.705,545.928C810.781,545.928 816.4,544.87 821.878,542.606L821.725,542.606C827.038,540.33 831.601,537.161 835.707,533.23C839.647,529.147 842.839,524.618 845.124,519.325L845.124,519.478C847.4,514.033 848.466,508.448 848.466,502.394L848.466,457.511C848.465,455.093 847.55,452.817 845.875,451.162ZM970.355,452.817C969.289,454.332 968.689,455.996 968.689,457.956L968.689,536.551C968.689,538.98 969.593,541.246 971.423,542.9C973.089,544.718 975.364,545.622 977.804,545.622C980.383,545.622 982.507,544.718 984.337,542.9C986.002,541.244 986.917,538.98 986.917,536.551L986.917,480.485L1047.23,542.757C1048.6,544.107 1050.12,545.023 1051.94,545.468C1053.76,545.773 1055.44,545.621 1057.26,545.023C1058.93,544.26 1060.3,543.204 1061.36,541.549C1062.43,540.035 1062.89,538.37 1062.89,536.55L1062.89,457.955C1062.89,455.387 1061.97,453.273 1060.3,451.455C1058.48,449.8 1056.36,448.886 1053.76,448.886C1051.34,448.886 1049.06,449.801 1047.38,451.455C1045.57,453.273 1044.65,455.386 1044.65,457.955L1044.65,514.032L984.49,451.608C983.117,450.4 981.604,449.496 979.775,449.038C977.956,448.744 976.126,448.886 974.461,449.648C972.783,450.248 971.271,451.314 970.355,452.817ZM858.125,451.249C856.513,452.904 855.543,454.853 855.543,457.249L855.543,535.31C855.543,537.705 856.513,539.96 858.288,541.614C860.226,543.41 862.655,544.314 865.235,544.314C867.99,544.314 870.244,543.41 872.029,541.614C873.968,539.958 874.937,537.705 874.937,535.31L874.937,465.655C895.779,464.457 911.773,465.513 922.924,468.66C931.319,471.209 935.847,475.411 936.328,481.269C936.491,485.919 934.553,489.23 930.513,491.179C924.045,493.878 914.517,494.63 901.919,493.281C899.654,493.127 897.716,493.433 895.778,494.63C893.84,495.676 892.543,497.179 891.737,499.139C890.931,500.935 890.931,502.884 891.41,504.832C892.054,506.794 893.349,508.285 895.123,509.493L943.601,542.518C945.703,544.01 948.119,544.621 950.711,544.164C953.456,543.869 955.556,542.661 957.169,540.558C958.628,538.609 959.27,536.355 958.954,533.959C958.464,531.4 957.169,529.451 955.067,527.948L929.381,510.538C933.094,509.645 936.328,508.588 939.072,507.239C950.058,502.132 955.557,493.431 955.719,481.268C956.363,466.862 947.314,456.954 928.901,451.542C914.516,447.045 893.023,445.989 864.428,448.243C862.012,448.396 859.91,449.44 858.125,451.249ZM497.31,443.594C509.678,443.658 524.779,446.203 542.601,451.204C544.877,451.957 546.706,453.318 548.067,455.583C549.287,457.847 549.592,460.123 548.83,462.387C548.22,464.805 546.706,466.624 544.42,467.831C542.296,469.192 540.021,469.334 537.581,468.735C505.83,459.665 485.468,459.665 476.354,468.43C474.383,470.401 473.316,472.514 472.859,474.475C472.554,475.541 472.706,476.597 473.316,477.501L473.316,477.654C473.926,478.862 474.993,480.071 476.354,481.28C477.572,482.336 479.086,483.24 480.764,484.002C481.983,484.306 485.174,484.46 490.03,484.601C491.707,484.754 494.898,484.754 499.449,484.754C504.011,484.905 507.507,484.905 510.087,485.058C519.049,485.364 526.039,486.115 530.896,487.029L531.048,487.029C540.924,489.142 546.576,492.506 549.026,497.777C551.465,503.059 551.911,503.972 552.368,505.627C553.588,508.807 553.392,512.117 553.544,514.382L553.544,514.687C553.544,517.855 552.935,520.882 551.715,523.899L551.715,524.051C550.648,526.469 548.83,529.192 546.401,532.218L546.249,532.218C543.363,536.149 537.886,539.164 529.992,541.136C524.373,542.497 517.535,543.4 509.63,543.704C502.335,543.858 495.05,543.552 487.602,542.802C480.002,541.887 473.468,540.678 468.002,538.871C465.727,538.108 463.897,536.595 462.678,534.483C461.622,532.218 461.317,529.8 462.079,527.536C462.83,525.118 464.355,523.301 466.63,522.245C468.765,521.034 471.193,520.884 473.468,521.634C478.031,522.995 483.497,524.051 489.725,524.813C496.259,525.565 502.639,525.717 509.02,525.565C515.401,525.411 520.878,524.661 525.43,523.605C528.62,522.689 530.896,521.785 532.268,520.578L532.268,520.73C533.487,519.218 534.424,519.762 534.87,516.701C535.306,513.641 534.848,513.326 534.391,512.117L534.382,512.069C533.986,510.033 529.701,505.621 527.259,504.854C524.787,504.091 517.078,503.352 509.478,503.198L509.325,503.198C506.897,503.047 503.554,503.047 499.297,502.894C494.44,502.894 491.251,502.894 489.573,502.741C481.069,502.589 475.744,501.837 473.468,500.629C470.127,499.115 467.24,497.296 464.507,495.031L464.355,495.031C461.012,492.158 458.431,488.988 456.754,485.516L456.907,485.516C454.631,480.975 454.021,476.293 454.936,471.306C455.698,466.318 458.279,461.483 462.536,456.496C469.246,447.85 480.735,443.567 496.974,443.593L497.31,443.594ZM584.664,498.767C591.317,476.413 599.734,464.827 609.828,464.011C619.715,464.805 628.002,476.413 634.622,498.767L584.664,498.767ZM297.723,424.662C294.869,425.712 291.982,426.788 289.07,427.885C289.269,428.066 289.475,428.248 289.69,428.43C306.476,442.678 328.248,462.306 341.724,474.567C342.367,472.877 343.015,471.07 343.644,469.167C340.458,465.912 336.969,462.463 333.308,459.087C321.723,448.402 309.655,436.491 297.723,424.662ZM120.192,421.68C105.494,430.657 94.56,439.856 89.209,447.087C83.642,454.61 83.529,457.002 85.759,461.21C85.764,461.219 86.085,462.458 93.878,462.529C100.461,462.59 110.376,461.032 122.124,458.051C120.409,450.171 119.505,442.008 119.496,433.659C119.52,429.654 119.752,425.655 120.192,421.68ZM314.716,418.611C311.647,419.663 308.523,420.759 305.351,421.894C319.111,433.643 334.745,447.396 346.718,457.999C346.513,458.943 346.297,459.883 346.068,460.821C346.729,458.171 347.31,455.416 347.763,452.593C346.773,451.648 345.774,450.704 344.758,449.767C333.616,439.491 325,429.44 314.716,418.611ZM145.428,451.128C137.116,444.766 125.546,433.392 122.506,431.936C122.648,433.155 135.235,446.306 140.548,452.712C142.154,452.2 143.781,451.672 145.428,451.128ZM348.566,447.778C352.783,445.507 356.654,443.258 360.159,441.027C371.074,434.082 378.228,427.362 381.735,421.905C385.242,416.447 385.892,412.869 384.538,407.242C384.271,406.133 384.413,406.561 384.107,406.329C383.801,406.098 382.474,405.343 379.558,404.924C373.725,404.086 362.494,405.095 348.789,408.386C345.524,409.169 342.115,410.068 338.581,411.067C342.66,414.356 346.496,418.003 348.91,422.522C349.216,425.806 349.381,429.101 349.405,432.4C342.861,426.041 337.006,419.887 330.741,413.383C327.697,414.318 324.575,415.315 321.387,416.366C330.604,424.265 340.431,432.799 349.226,440.476C349.083,442.917 348.863,445.352 348.566,447.778ZM122.977,407.289C122.843,407.889 122.708,408.504 122.574,409.133C122.697,409.281 122.825,409.433 122.972,409.6C132.708,420.605 155.8,444.594 157.014,447.167C158.771,446.549 160.545,445.916 162.336,445.271C154.551,439.077 131.095,414.554 122.977,407.289ZM127.338,392.255C127.108,392.864 126.882,393.482 126.66,394.112C137.008,405.687 171.992,438.345 172.034,439.794C172.053,440.436 172.528,440.886 173.229,441.269C174.871,440.655 176.523,440.033 178.186,439.403C177.828,439.001 177.494,438.587 177.192,438.16C173.365,434.173 172.46,433.012 166.406,428.147C159.626,422.7 136.64,400.424 127.338,392.255ZM835.868,338.154C835.411,335.53 834.049,333.406 832.08,331.925C815.398,319.948 797.126,317.682 779.454,320.775C772.486,322.409 770.232,322.255 762.619,326.024C755.02,329.78 749.728,336.771 749.728,336.771C746.091,340.712 744.12,345.524 741.692,351.905C739.264,358.286 739.275,361.455 738.97,369.327C738.665,377.2 739.721,384.419 741.997,391.302C744.273,398.193 747.757,404.269 752.461,409.354L752.461,409.192C757.013,414.44 762.619,418.533 769.143,421.158C775.664,423.946 782.796,425.426 790.527,425.426C808.722,425.426 821.92,421.321 830.109,413.122C839.658,404.759 843.601,392.128 842.086,375.229C841.933,372.605 840.879,370.634 839.201,368.837C837.383,367.193 835.413,366.376 832.985,366.376L793.554,366.376C791.137,366.376 788.861,367.355 787.184,369.164C785.366,371.125 784.462,373.421 784.462,376.22C784.462,378.844 785.366,381.305 787.184,383.101C788.861,385.072 791.137,386.052 793.554,386.052L823.89,386.052C823.28,390.974 821.31,395.079 818.272,398.192C812.359,403.278 803.115,405.738 790.527,405.738C785.213,405.738 780.215,404.759 775.817,402.951L775.664,402.788C771.722,401.143 768.39,398.847 765.505,395.568C762.619,392.455 760.496,388.675 759.135,384.581C757.62,380.149 757.012,375.228 757.164,369.979C757.315,364.405 757.925,361.378 758.981,357.611C759.744,354.812 760.953,352.525 762.618,350.718C762.618,350.718 765.331,346.504 769.903,344.229C774.476,341.941 777.786,341.278 783.394,339.797L783.547,339.797C796.897,336.519 809.637,339.308 821.919,348.323C824.042,349.803 826.317,350.294 828.736,349.803C831.163,349.149 833.135,347.832 834.507,345.535C835.868,343.413 836.325,340.951 835.868,338.154ZM590.79,323.138C603.157,323.202 618.259,325.747 636.081,330.748C638.357,331.501 640.186,332.862 641.547,335.127C642.767,337.392 643.072,339.667 642.309,341.931C641.7,344.349 640.186,346.168 637.899,347.375C635.776,348.737 633.5,348.878 631.061,348.279C599.31,339.209 578.948,339.209 569.834,347.974C567.863,349.946 566.796,352.058 566.339,354.018C566.034,355.085 566.186,356.141 566.796,357.045L566.796,357.198C567.406,358.406 568.473,359.615 569.834,360.823C571.053,361.88 572.567,362.784 574.244,363.545C575.463,363.85 578.654,364.004 583.51,364.145C585.187,364.298 588.377,364.298 592.929,364.298C597.491,364.449 600.987,364.449 603.567,364.603C612.529,364.907 619.519,365.659 624.376,366.573L624.528,366.573C634.404,368.686 640.055,372.05 642.505,377.321C644.944,382.602 645.391,383.516 645.848,385.171C647.068,388.351 646.872,391.661 647.024,393.926L647.024,394.231C647.024,397.399 646.414,400.427 645.195,403.443L645.195,403.595C644.128,406.012 642.309,408.735 639.881,411.762L639.729,411.762C636.843,415.693 631.366,418.708 623.472,420.68C617.853,422.041 611.015,422.944 603.11,423.248C595.814,423.402 588.53,423.096 581.082,422.344C573.482,421.431 566.948,420.222 561.482,418.415C559.206,417.653 557.377,416.139 556.158,414.027C555.101,411.762 554.797,409.344 555.559,407.08C556.31,404.663 557.834,402.845 560.11,401.789C562.244,400.579 564.673,400.428 566.948,401.178C571.511,402.539 576.977,403.595 583.205,404.357C589.739,405.109 596.119,405.261 602.5,405.109C608.881,404.955 614.358,404.205 618.909,403.149C622.1,402.233 624.376,401.329 625.748,400.122L625.748,400.274C626.967,398.762 627.904,399.306 628.35,396.245C628.786,393.185 628.328,392.87 627.871,391.661L627.862,391.613C627.466,389.577 623.18,385.165 620.739,384.398C618.267,383.635 610.558,382.896 602.957,382.742L602.805,382.742C600.377,382.592 597.034,382.592 592.776,382.438C587.92,382.438 584.73,382.438 583.053,382.286C574.549,382.133 569.224,381.381 566.948,380.173C563.606,378.659 560.72,376.841 557.987,374.576L557.834,374.576C554.492,371.703 551.911,368.532 550.234,365.06L550.387,365.06C548.111,360.519 547.501,355.837 548.416,350.85C549.178,345.863 551.759,341.027 556.016,336.041C562.726,327.395 574.215,323.111 590.453,323.137L590.79,323.138ZM950.679,417.881C952.202,415.77 952.801,413.656 952.496,411.087C942.925,348.052 925.764,317.215 900.841,318.729C875.928,317.215 858.604,346.996 849.337,408.06C849.032,410.478 849.49,412.743 851.014,414.714C852.528,416.825 854.509,418.035 856.938,418.339C859.365,418.785 861.64,418.186 863.775,416.674C865.747,415.159 866.965,413.2 867.422,410.782C868.567,403.192 869.818,396.192 871.168,389.766L930.152,389.766C931.688,397.029 933.114,405.043 934.421,413.798C934.878,416.216 935.945,418.186 938.069,419.7C940.041,421.214 942.327,421.812 944.755,421.356C947.183,421.061 949.154,419.852 950.679,417.881ZM730.944,327.461C729.115,325.795 726.991,324.891 724.411,324.891L663.63,324.891C661.201,324.891 658.926,325.795 657.249,327.461C655.43,329.269 654.516,331.392 654.516,333.962L654.516,409.53C654.516,411.947 655.43,414.224 657.249,415.878C658.926,417.696 661.201,418.6 663.63,418.6L724.411,418.6C726.991,418.6 729.115,417.696 730.944,415.878C732.61,414.223 733.524,411.947 733.524,409.53C733.524,406.961 732.61,404.847 730.944,403.029C729.115,401.374 726.991,400.459 724.411,400.459L672.754,400.459L672.754,380.816L710.734,380.816C713.315,380.816 715.438,379.912 717.268,378.094C718.934,376.428 719.848,374.163 719.848,371.746C719.848,369.177 718.934,367.063 717.268,365.245C715.438,363.579 713.315,362.675 710.734,362.675L672.754,362.675L672.754,343.032L724.411,343.032C726.991,343.032 729.115,342.117 730.944,340.311C732.61,338.644 733.524,336.531 733.524,333.962C733.524,331.392 732.61,329.269 730.944,327.461ZM333.487,329.281C357.414,328.853 371.901,330.953 371.901,330.953C380.163,332.024 385.946,339.655 384.741,347.899C383.536,356.142 375.811,361.8 367.588,360.461C367.588,360.461 350.28,357.907 322.108,359.406C325.482,363.389 328.592,367.608 331.411,372.041C323.973,365.504 314.69,357.519 311.432,354.182C308.109,350.718 298.842,341.775 289.611,332.888C290.382,333.31 291.147,333.741 291.908,334.18C291.077,333.669 290.212,333.154 289.308,332.637C306.107,330.406 321.068,329.503 333.487,329.281ZM875.687,371.637C882.33,349.271 890.747,337.684 900.841,336.868C910.63,337.675 918.949,349.271 925.613,371.637L875.687,371.637Z" fill="white"/>
    </g>
</svg>
