<?xml version="1.0" encoding="UTF-8" standalone="no"?>
<!DOCTYPE svg PUBLIC "-//W3C//DTD SVG 1.1//EN" "http://www.w3.org/Graphics/SVG/1.1/DTD/svg11.dtd">
<svg width="100%" height="100%" viewBox="0 0 951 132" version="1.1" xmlns="http://www.w3.org/2000/svg" xmlns:xlink="http://www.w3.org/1999/xlink" xml:space="preserve" xmlns:serif="http://www.serif.com/" style="fill-rule:evenodd;clip-rule:evenodd;stroke-linejoin:round;stroke-miterlimit:2;">
    <path id="rect6249" d="M950.985,0L0,0L0,131.981L950.985,131.981L950.985,0ZM5.499,126.019L5.499,5.963L476.206,6.214L945.487,5.963L945.487,125.809L5.499,126.019ZM281.736,93.572L277.93,93.572C277.93,96.635 275.746,97.988 273.947,98.47L190.51,98.47L190.51,71.456L244.647,71.456C245.325,71.464 247.725,73.864 248.081,75.72L251.164,75.72L251.164,50.356L247.703,50.356C247.703,52.91 245.681,55.315 244.353,55.299L190.51,55.299L190.51,31.378L271.303,31.378C273.428,31.8 275.644,34.484 275.644,36.375L278.711,36.375L278.711,10.356L275.701,10.356C275.576,12.231 274.078,14.756 271.734,15.194L156.531,15.194L156.531,17.34C160.398,17.406 162.157,20.459 162.157,21.785L162.157,108.656C161.906,110.389 160.252,112.612 156.314,112.384L156.314,115.282L274.331,115.282C275.798,116.02 277.719,116.935 278.034,120.157L281.799,120.157L281.736,93.572ZM147.896,84.319C147.054,108.675 115.46,118.198 85.427,117.65C51.573,117.033 31.003,106.471 26.21,106.205C21.697,106.205 22.407,109.112 19.17,105.875L34.16,80.793L36.711,81.344C36.102,90.819 47.923,93.235 51.391,94.448C75.045,102.726 119.621,102.441 119.621,85.547C119.621,69.577 65.253,78.32 44.725,69.151C24.316,60.036 24.456,50.32 24.456,43.313C25.24,19.783 55.973,11.262 81.956,11.262C112.593,11.271 135.771,22.457 140.244,22.457C142.026,22.457 145.144,20.469 145.144,20.469L147.841,21.914L131.753,45.931C128.728,44.965 130.646,44.443 128.705,42.024C122.784,34.642 102.219,28.763 82.596,28.836C69.142,28.886 61.101,30.684 56.096,34.318C49.149,39.364 50.428,43.385 53.83,46.786C57.399,50.356 74.294,52.233 92.044,53.107C111.052,54.043 147.183,58.492 147.896,84.319ZM936.385,115.394L936.385,15.536L609.656,15.165L609.656,115.765L936.385,115.394ZM434.016,99.178C412.865,110.448 384.581,115.15 368.255,115.15C334.374,117.795 291.599,105.33 289.254,65.836C289.254,24.669 330.686,11.987 366.043,11.903C390.636,12.002 411.403,20.717 417.213,20.717C420.043,20.897 422.581,17.918 424.081,20.387L409.717,44.34C404.158,44.337 409.707,39.784 398.614,35.261C292.446,-0.255 285.657,129.349 405.057,92.007L405.057,78.391L370.738,78.324C367.777,79.196 368.31,81.837 366.757,82.946L363.665,82.946L363.665,59.327L367.329,59.327C367.622,60.767 368.686,62.26 370.147,63.695L433.671,63.695L433.743,66.295C430.472,66.428 427.945,68.985 427.989,69.913L427.989,94.401C430.034,97.943 433.975,97.105 434.016,99.178ZM474.594,111.233C473.001,111.226 468.653,110.057 468.738,105.616L478.311,88.278L532.131,88.391C533.254,90.847 541.948,103.757 541.722,106.75C541.722,107.393 541.671,110.862 535.926,111.313L535.926,114.07L579.674,114.07L579.674,111.411C576.507,111.225 574.385,110.415 573.242,109.141L521.894,21.005C521.956,17.413 526.232,17.072 527.332,16.385L527.332,13.572L485.194,13.572L485.175,16.353C489.452,16.666 491.173,19.201 490.555,22.424L441.87,108.358C439.717,110.246 438.157,111.53 435.243,111.292L435.243,113.912L474.656,113.912L474.594,111.233ZM757.644,32.933C699.348,43.815 675.262,62.646 678.442,77.297C681.621,91.948 712.066,102.417 762.831,96.574C602.074,130.076 555.841,59.573 757.644,32.933ZM780.228,49.621L790.365,86.743C875.419,77.17 914.278,22.678 775.566,28.862C889.213,14.056 929.297,29.884 919.595,46.166C909.893,62.448 852.88,83.78 779.759,93.772L780.228,49.621ZM485.826,74.362L505.222,38.589L524.644,74.401L485.826,74.362Z" fill="white"/>
</svg>
