<?xml version="1.0" encoding="UTF-8" standalone="no"?>
<!DOCTYPE svg PUBLIC "-//W3C//DTD SVG 1.1//EN" "http://www.w3.org/Graphics/SVG/1.1/DTD/svg11.dtd">
<svg width="100%" height="100%" viewBox="0 0 950 419" version="1.1" xmlns="http://www.w3.org/2000/svg" xmlns:xlink="http://www.w3.org/1999/xlink" xml:space="preserve" xmlns:serif="http://www.serif.com/" style="fill-rule:evenodd;clip-rule:evenodd;stroke-linejoin:round;stroke-miterlimit:2;">
    <g transform="matrix(1,0,0,1,-23.7327,-13.4752)">
        <path id="path1372" d="M166.997,430.009C148.824,425.02 131.109,408.181 123.359,388.531C118.165,375.36 99.393,309.276 33.599,72.531L23.733,37.031L68.25,36.771C92.735,36.628 113.082,36.853 113.465,37.271C113.848,37.689 130.515,102.206 150.503,180.642L186.845,323.252L204.119,257.142C245.14,100.149 252.107,74.832 257.284,63.958C264.26,49.304 276.453,38.834 290.931,35.063C298.559,33.076 316.138,33.055 323.696,35.023C339.651,39.179 352.121,50.683 358.986,67.578C363.173,77.882 372.183,111.051 405.83,240.031C417.165,283.481 426.765,319.817 427.164,320.777C427.616,321.864 441.665,268.556 464.389,179.533L500.889,36.544L546.108,36.538C581.849,36.533 591.236,36.793 590.894,37.781C590.656,38.469 581.027,73.006 569.497,114.531C514.394,312.974 495.211,379.616 489.809,391.372C480.633,411.341 465.212,425.217 446.895,429.988C439.243,431.981 422.607,432 415.02,430.024C404.455,427.272 398.412,423.634 389.349,414.571C382.269,407.493 380.01,404.406 376.143,396.531C369.82,383.658 363.726,362.661 324.916,220.031C315.787,186.481 308.066,158.356 307.758,157.531C307.45,156.706 298.03,189.511 286.825,230.431C262.197,320.369 249.224,366.83 245.192,379.531C236.478,406.985 220.634,424.561 199.745,429.947C192.212,431.89 173.971,431.924 166.997,430.009ZM635.389,428.531L635.389,155.531L720.389,155.531L720.389,428.531L635.389,428.531ZM806.389,428.531L806.389,155.531L891.389,155.531L891.389,428.531L806.389,428.531ZM923.389,428.531L923.389,401.531L918.389,401.531C913.723,401.531 913.389,401.365 913.389,399.031L913.389,396.531L939.389,396.531L939.389,399.031C939.389,401.365 939.056,401.531 934.389,401.531L929.389,401.531L929.389,428.531L923.389,428.531ZM941.389,428.531L941.389,396.531L950.303,396.531L953.346,406.392C955.02,411.816 956.389,416.856 956.389,417.592C956.389,420.714 958.343,416.414 961.3,406.781L964.447,396.531L973.389,396.531L973.389,428.531L967.389,428.531L967.31,417.281C967.225,405.119 967.274,405.09 962.866,419.839C960.235,428.639 960.231,428.646 957.092,428.339C954.012,428.038 953.89,427.823 950.92,417.531L947.889,407.031L947.322,428.531L941.389,428.531ZM665.889,108.428C646.628,104.525 630.679,88.036 627.408,68.642C623.423,45.016 639.177,21.25 662.924,15.064C675.043,11.908 690.566,13.547 701.626,19.152C708.25,22.508 718.315,32.141 721.704,38.369C733.344,59.756 726.449,87.659 706.333,100.567C695.18,107.724 678.458,110.974 665.889,108.428ZM836.889,108.428C811.946,103.374 794.291,78.517 798.319,54.124C801.409,35.414 815.611,19.834 833.924,15.064C846.032,11.911 861.567,13.547 872.602,19.139C879.25,22.508 888.63,31.461 892.381,38.018C904.429,59.076 897.572,87.58 877.333,100.567C866.18,107.724 849.458,110.974 836.889,108.428Z" fill="white"/>
    </g>
</svg>
