<svg width="568.929px" height="116.145px" enable-background="new -1 -1 568.929 116.145" version="1.1" viewBox="-1 -1 568.929 116.145" xml:space="preserve" xmlns="http://www.w3.org/2000/svg">
<path d="m117.38477 11.013672c-0.0866 0.055972-1.91802 0.307657-5.49415 0.753906-2.28899 0.184-4.08848 0.305188-5.39648 0.367188-0.327 0.081-0.48828 0.419719-0.48828 1.011718 0 1.552999 0.04105 3.891582 0.12305 7.017578 0.082 3.125997 0.12304 5.476783 0.12304 7.050782 0 0.530999-0.09334 0.796875-0.27734 0.796875-0.123 0-0.32728-0.163235-0.61328-0.490235-1.717-1.960998-4.11813-2.943359-7.203127-2.943359-4.373996 0-7.846877 1.534612-10.421875 4.599609-2.430997 2.880997-3.646484 6.548911-3.646484 11.003907 0 4.392995 1.235987 8.031112 3.708984 10.912109 2.593998 3.023997 6.047379 4.535156 10.359375 4.535156 3.309997 0 6.070347-1.081049 8.277347-3.248047 0.183-0.183999 0.33598-0.30814 0.45898-0.36914 0.143 0.163 0.22314 0.327234 0.24414 0.490234 0.041 0.776999 0.08105 1.554079 0.12305 2.330078 0.163 0.43 0.79639 0.644531 1.90039 0.644531 4.67899 1e-6 7.38705-0.052296 8.12305-0.154296 0.306-0.042 0.45898-0.173438 0.45898-0.398438 0-0.101-0.01955-0.346375-0.06055-0.734375-0.47-3.575996-0.70507-9.584446-0.70507-18.023437 0-5.107995 0.08014-9.666879 0.24414-13.671875 0.123-3.534997 0.29648-6.436081 0.52148-8.705079 0.12274-1.345595 0.19959-2.059529 0.23047-2.146484v-0.001953c-0.03594-0.390823-0.2319-0.601114-0.58984-0.626953zm257.71093 0.232422c-6.39699 0-11.59656 2.207098-15.60156 6.621094-3.883 4.270995-5.82422 9.645053-5.82422 16.123046 0 6.333994 2.00282 11.576614 6.00781 15.72461 4.046 4.209996 9.22803 6.314453 15.54102 6.314453 3.924 0 8.02002-0.837674 12.29102-2.513672 0.429 0.163 1.56797 0.470922 3.41796 0.919922 1.849 0.448999 2.96647 0.673828 3.35547 0.673828 0.613 0 0.89842-0.276126 0.85742-0.828125l-0.02929-0.337891c-0.389-5.251994-0.58203-9.196034-0.58203-11.832031 0-0.980999 0.05597-2.461361 0.16797-4.443359s0.16992-3.464314 0.16992-4.445313c0-0.673999-0.25658-1.011718-0.76758-1.011718-0.654 0-1.63341 0.046671-2.94141 0.138671s-2.2884 0.136719-2.9414 0.136719c-0.613 0-1.51789-0.054969-2.71289-0.167969-1.196-0.111-2.0906-0.167968-2.6836-0.167968-0.224 0-0.38723 0.0215-0.49023 0.0625-0.265 0.081-0.39844 0.317078-0.39844 0.705078 0 1.306998 0.13244 3.023439 0.39844 5.148437 0.307 2.757997 0.49073 4.474438 0.55273 5.148438-2.57399 1.041999-4.90428 1.5625-6.98828 1.5625-3.29 0-5.83481-1.000909-7.63281-3.003906-1.737-1.940999-2.60547-4.577207-2.60547-7.908204 0-3.146996 0.83767-5.772955 2.51367-7.876953 1.798-2.287997 4.23188-3.43164 7.29688-3.43164 1.87799 0 3.59444 0.41786 5.14843 1.255859 1.042 0.551999 2.06346 1.329079 3.06446 2.330078 0.817 0.838999 1.28815 1.25586 1.41015 1.25586 0.531 0 1.71007-1.137018 3.53907-3.416016 1.82899-2.277998 2.74218-3.744438 2.74218-4.398438 0-0.203999-0.17253-0.550016-0.51953-1.041015-1.696-2.369998-4.02628-4.20958-6.98828-5.517578-2.74-1.184999-5.66258-1.779297-8.76758-1.779297zm-319.634762 0.277344c-0.327 0-0.614376 0.388063-0.859376 1.164062-0.428999 1.348999-3.146348 8.797717-8.152343 22.345703-4.617996 12.525988-6.927735 19.054938-6.927735 19.585938 0 0.592999 1.563457 0.888671 4.689454 0.888671 3.964996 1e-6 6.293281-0.08114 6.988281-0.24414 0.551999-0.143 1.022156-1.063767 1.410156-2.759766 0.429-1.858998 0.818016-2.952297 1.166016-3.279297 0.224999-0.182999 2.072878-0.27539 5.546875-0.27539 5.148994 0 7.887844 0.069891 8.214843 0.21289 0.389 0.204 0.930001 1.778706 1.625 4.720703 0.184 0.776 0.62336 1.235907 1.31836 1.378907 0.837999 0.163 2.716675 0.246093 5.638672 0.246093 3.187996 1e-6 5.088172-0.083093 5.701171-0.246093 0.511-0.142 0.767579-0.397626 0.767579-0.765625 0-0.552-2.430927-7.152794-7.294922-19.800782-4.842995-12.566987-7.766579-19.922361-8.767578-22.068359-0.327-0.674999-0.684266-1.011719-1.072266-1.011719-0.530999 0-1.333251 0.036422-2.40625 0.107422s-1.885501 0.105469-2.4375 0.105469c-0.571999 0-1.435845-0.049344-2.589844-0.152344-1.154999-0.102-2.006594-0.152343-2.558593-0.152343zm169.595702 3.984374c-0.449 0-0.67383 1.185643-0.67383 3.556641 0-0.123 0.04105 1.133534 0.12305 3.769531 0.041 1.675999-5e-5 2.901736-0.12305 3.677735-0.061 0.387999-0.45931 0.593281-1.19531 0.613281-1.308 0.041-1.96289 0.265829-1.96289 0.673828 0 0.429 0.02712 1.084892 0.07812 1.962891s0.07618 1.531938 0.07618 1.960937c0 0.327-0.02518 0.827954-0.07618 1.501953-0.052 0.674-0.07812 1.174954-0.07812 1.501953 0 0.552 0.38902 0.828126 1.16601 0.828126 0.081 0 0.21249-0.010251 0.39649-0.03125h0.39844c1.042-1e-6 1.5625 0.448657 1.5625 1.347656 0 1.348998-0.05035 3.375987-0.15235 6.083984s-0.15234 4.734986-0.15234 6.083984c0 4.515996 2.95143 6.775391 8.85742 6.775391 3.207 0 6.12963-0.724783 8.76563-2.175781 0.552-0.307 0.88872-0.541078 1.01171-0.705078 0.123-0.163 0.18555-0.537141 0.18555-1.119141 0-0.581999 0.07552-1.497142 0.22852-2.744141 0.153-1.246998 0.23047-2.176063 0.23047-2.789062 0-0.449-0.21558-0.674828-0.64258-0.673828-0.389 0-1.05782 0.118516-2.00781 0.353516-0.95 0.235999-1.68041 0.353515-2.19141 0.353515-1.614 0-2.69605-0.44036-3.24805-1.318359-0.388-0.654-0.58203-1.840643-0.58203-3.556641 0-0.468999-0.01125-1.194782-0.03125-2.175781v-2.175781c0-0.898999 0.15199-1.34961 0.45899-1.34961h2.29882c0.408 0 1.09174 0.015875 2.05274 0.046875s1.64569 0.044922 2.05469 0.044922c0.593 0 0.88867-0.213578 0.88867-0.642578 0-0.491-0.01125-1.206485-0.03125-2.146484-0.021-0.939999-0.0293-1.655485-0.0293-2.146485 0-0.469999 0.04934-1.175235 0.15234-2.115234 0.102-0.939999 0.15235-1.645235 0.15235-2.115235 0-0.306999-0.22483-0.458984-0.67383-0.458984-0.736 0-1.8283 0.030797-3.2793 0.091797s-2.535 0.091797-3.25 0.091797c-0.593 0-0.88867-0.500954-0.88867-1.501953 0-0.837999 0.06622-2.085236 0.19922-3.740235 0.132-1.654998 0.19922-2.890032 0.19922-3.707031 0-0.306-0.25658-0.479484-0.76758-0.521484-2.105-0.245-3.67675-0.439032-4.71875-0.582031-0.449-0.041-1.25688-0.192985-2.42187-0.458985-1.022-0.245-1.80738-0.369141-2.35938-0.369141zm-54.89648 8.609376c-4.659-1e-6 -8.39876 1.554159-11.21875 4.660156-2.738 3.003997-4.10743 6.854692-4.10743 11.554687 0 4.822995 1.53266 8.675644 4.59766 11.556641 2.983 2.839997 6.90654 4.259766 11.76953 4.259766 5.251 0 9.12319-1.336675 11.61719-4.013672 0.306-0.327 0.45898-0.562079 0.45898-0.705078 0-0.51-0.50462-1.70594-1.51562-3.585938-1.012-1.878998-1.73311-2.922953-2.16211-3.126953-0.777 0.489999-1.55408 0.979703-2.33008 1.470703-1.839 0.980999-3.66833 1.470703-5.48633 1.470703-1.513 0-2.85992-0.285422-4.04492-0.857422-1.451-0.693999-2.31947-1.704204-2.60547-3.033203 4.782-0.368 8.37807-0.685172 10.78907-0.951172 4.00499-0.407999 6.1207-0.632828 6.3457-0.673828 1.328-0.286 1.99219-1.461393 1.99219-3.52539 0-3.942997-1.36943-7.346035-4.10743-10.207032-2.73799-2.860997-6.06919-4.292968-9.99218-4.292968zm151.26172 0c-4.658-1e-6 -8.39976 1.554159-11.21876 4.660156-2.73799 3.003997-4.10546 6.854692-4.10546 11.554687 0 4.822995 1.53266 8.675644 4.59765 11.556641 2.984 2.839997 6.90749 4.259766 11.77149 4.259766 5.25099 0 9.12223-1.336675 11.61523-4.013672 0.307-0.327 0.46094-0.562079 0.46094-0.705078 0-0.51-0.50753-1.70594-1.51953-3.585938-1.011-1.878998-1.73116-2.922953-2.16016-3.126953-0.777 0.489999-1.55408 0.979703-2.33008 1.470703-1.839 0.980999-3.66637 1.470703-5.48437 1.470703-1.513 0-2.86188-0.285422-4.04688-0.857422-1.451-0.693999-2.31947-1.704204-2.60547-3.033203 4.781-0.368 8.37807-0.685172 10.78907-0.951172 4.00499-0.407999 6.1207-0.632828 6.3457-0.673828 1.328-0.286 1.99219-1.461393 1.99219-3.52539 0-3.942997-1.37038-7.345035-4.10938-10.207032-2.73899-2.860997-6.06819-4.292968-9.99218-4.292968zm183.48046 0c-4.65799-1e-6 -8.39975 1.554159-11.21875 4.660156-2.73799 3.003997-4.10742 6.854692-4.10742 11.554687 0 4.822995 1.53461 8.675644 4.59961 11.556641 2.984 2.839997 6.90554 4.259766 11.76953 4.259766 5.251 0 9.12419-1.336675 11.61719-4.013672 0.307-0.327 0.45898-0.562079 0.45898-0.705078 0-0.51-0.50557-1.70594-1.51757-3.585938-1.011-1.878998-1.73116-2.922953-2.16016-3.126953-0.777 0.489999-1.55408 0.979703-2.33008 1.470703-1.839 0.980999-3.66833 1.470703-5.48633 1.470703-1.51299 0-2.85992-0.285422-4.04492-0.857422-1.451-0.693999-2.31947-1.704204-2.60547-3.033203 4.781-0.368 8.37807-0.685172 10.78907-0.951172 4.00499-0.407999 6.1207-0.632828 6.3457-0.673828 1.328-0.286 1.99219-1.461393 1.99219-3.52539 0-3.942997-1.37038-7.345035-4.10938-10.207032-2.739-2.860997-6.06819-4.292968-9.99219-4.292968zm-92.22851 0.708984c-4.618 0-8.25611 1.491612-10.91211 4.474609-2.555 2.880997-3.83203 6.682349-3.83203 11.402344 0 4.086996 1.23598 7.599972 3.70898 10.542969 2.616 3.146997 5.9154 4.720703 9.90039 4.720703 2.615 0 5.06747-1.152893 7.35547-3.462891 0.266-0.264999 0.48053-0.439484 0.64453-0.521484 0.184 0.021 0.34161 0.61797 0.47461 1.792969 0.133 1.175998 0.39325 1.761718 0.78125 1.761718 3.269 0 6.17208-0.09139 8.70508-0.27539 0.716-0.062 1.07227-0.50136 1.07227-1.31836 0-1.552998-0.0904-3.882284-0.27539-6.988281-0.183-3.105997-0.2754-5.445533-0.2754-7.019531 0-4.126996 0.32743-8.041285 0.98243-11.738281 0.062-0.348 0.09179-0.560579 0.09179-0.642578 0-0.204-0.15198-0.367235-0.45898-0.490235-0.879-0.286-2.33152-0.633969-4.35352-1.042969-2.12599-0.428999-3.56626-0.642578-4.32226-0.642578-0.327 0-0.60975 0.495329-0.84375 1.486328-0.235 0.990999-0.44296 1.486328-0.62696 1.486328-0.062 0-0.13384-0.051296-0.21484-0.154296-1.86-2.247998-4.39357-3.371094-7.60156-3.371094zm44.6875 0c-1.839 0-3.54419 0.378766-5.11719 1.134766-1.064 0.530999-2.51452 1.511407-4.35352 2.941406-0.26699 0.204-0.50107 0.347687-0.70507 0.429687-0.143 0-0.22414-0.710861-0.24414-2.130859-0.021-1.419999-0.22529-2.128906-0.61329-2.128906-0.61299 0-1.42087 0.143687-2.42187 0.429687-1.41 0.389-2.21788 0.601578-2.42187 0.642578-0.288 0.042-1.19552 0.134344-2.72852 0.277344-1.246 0.123-2.09397 0.274985-2.54297 0.458984-0.286 0.122-0.42969 0.358079-0.42969 0.705079 0 0.122999 0.01955 0.307734 0.06055 0.552734 0.491 4.188996 0.73633 7.957597 0.73633 11.308594 0 1.634998-0.01025 4.0828-0.03125 7.341796-0.02 3.259997-0.0293 5.707799-0.0293 7.341797 0 0.511 0.04472 0.817922 0.13672 0.919922s0.385 0.171891 0.875 0.212891c1.635 0.122 3.09581 0.183594 4.38281 0.183594 1.982 0 3.43352-0.042047 4.35352-0.123047 0.511-0.042 0.82622-0.124094 0.94922-0.246094s0.18359-0.438219 0.18359-0.949219c0-1.838998-0.0093-4.608644-0.0293-8.30664-0.02-3.697997-0.02929-6.47594-0.02929-8.335938 0-0.837999 0.56984-1.634626 1.71484-2.390625 1.042-0.693999 2.01311-1.042969 2.91211-1.042969 2.228 0 3.3418 1.460816 3.3418 4.382813 0 0.775999 0.01954 1.930892 0.06054 3.462891 0.041 1.532998 0.0625 2.677594 0.0625 3.433593 0 0.980999-0.03079 2.433518-0.09179 4.353516-0.062 1.920998-0.09375 3.362266-0.09375 4.322265 0 0.839 0.28737 1.25586 0.85937 1.25586h9.28711c0.592 0 0.88867-0.33772 0.88867-1.011719 0-0.979999-0.03079-2.446439-0.09179-4.398437-0.062-1.950998-0.0918-3.406189-0.0918-4.367188 0-4.167996 0.04105-6.683016 0.12305-7.541016 0.102-0.980999 0.62712-1.873641 1.57812-2.68164 0.95-0.806999 1.90424-1.210938 2.86524-1.210938 2.18699 0 3.34184 1.215487 3.46484 3.646485 0.081 1.511998 0.12109 4.056816 0.12109 7.632812 0 0.940999-0.02979 2.344846-0.09179 4.214844-0.061 1.868998-0.0918 3.275845-0.0918 4.214844 0 0.878999 0.30692 1.379953 0.91992 1.501953s2.16421 0.183594 4.6582 0.183594c2.41 0 3.92411-0.042047 4.53711-0.123047 0.613-0.082 0.91993-0.479313 0.91993-1.195313 0-1.286998-0.03175-3.224643-0.09375-5.80664-0.061-2.584998-0.0918-4.521595-0.0918-5.808594 0-1.082999 0.0308-2.712674 0.0918-4.888672 0.062-2.176998 0.09375-3.805673 0.09375-4.888672 0-2.615997-0.96182-4.629064-2.88282-6.039062-1.696-1.245999-3.89284-1.871094-6.58984-1.871094-1.799 0-3.64883 0.500954-5.54883 1.501953-1.901 1.000999-3.39161 2.237986-4.47461 3.708984-0.49-1.695998-1.56375-3.013126-3.21875-3.953125-1.471-0.837999-3.14734-1.257812-5.02734-1.257812zm-248.73438 0.123047c-1.819 0-3.93837 0.708907-6.35937 2.128906-2.24695 1.317911-3.35441 2.024392-3.32227 2.119141-0.21136-0.055539-0.37631-0.735576-0.49414-2.056641-0.123-1.378999-0.29648-2.070313-0.52148-2.070313-0.409 1e-6 -2.23733 0.318173-5.48633 0.951172-2.145 0.306-3.86044 0.530829-5.14844 0.673828-0.306 0.122-0.45898 0.346829-0.45898 0.673829 0 0.123 0.01954 0.274984 0.06054 0.458984 0.797 2.901997 1.19532 6.898333 1.19532 11.986328 0 1.613999-0.01125 4.024425-0.03125 7.232422-0.021 3.207997-0.03125 5.609127-0.03125 7.203125 0 0.572999 0.31717 0.909719 0.95117 1.011719 0.715 0.122 2.2672 0.183593 4.6582 0.183593 2.207 0 3.66782-0.042046 4.38281-0.123046 0.633-0.081 0.95118-0.458814 0.95118-1.132813v-16.552734c0-0.755999 0.57179-1.521829 1.71679-2.298828 1.062-0.694 1.99207-1.041016 2.78907-1.041016 2.43099 0 3.64648 1.398268 3.64648 4.197266 0 0.755999 0.0205 1.886673 0.0625 3.388671 0.04 1.501999 0.06055 2.63072 0.06055 3.386719 0 0.980999-0.0298 2.441815-0.0918 4.382813-0.062 1.941998-0.0918 3.393516-0.0918 4.353515 0 0.716 0.30497 1.13286 0.91797 1.25586 0.613 0.122 2.20821 0.183593 4.7832 0.183593 2.411 0 3.90261-0.042046 4.47461-0.123046s0.85743-0.39822 0.85743-0.949219c0-1.327999-0.0103-3.31594-0.0293-5.960938-0.021-2.645997-0.03125-4.631938-0.03125-5.960937v-9.777344c0-2.512997-0.97111-4.47672-2.91211-5.886719-1.737-1.225998-3.90305-1.83789-6.49805-1.83789zm84.38282 0.058593c-0.102 0-1.7671 0.31622-4.9961 0.949219-2.166 0.327-3.81155 0.552782-4.93555 0.675781-0.30599 0.103-0.45898 0.305329-0.45898 0.611329 0 0.123 0.0215 0.276937 0.0625 0.460937 0.879 3.105997 1.31641 7.059333 1.31641 11.861328 0 1.634999-0.0093 4.0828-0.0293 7.341797-0.021 3.259997-0.03125 5.705846-0.03125 7.339844 0 0.593999 0.33772 0.931672 1.01172 1.013672 1.165 0.122 2.7172 0.183593 4.6582 0.183593 2.024 0 3.52586-0.042046 4.50586-0.123046 0.674-0.062 1.01367-0.338126 1.01367-0.828125 0-0.572-0.04104-1.446095-0.12304-2.621094-0.082-1.173999-0.12305-2.057391-0.12305-2.650391 0-0.877999-0.01492-2.211002-0.04492-4-0.031-1.787998-0.04883-3.121001-0.04883-4 0-1.613998 0.30692-2.68675 0.91992-3.21875 0.613-0.530999 1.76885-0.796875 3.46485-0.796875 0.36699 0 0.92392 0.025172 1.66992 0.076172 0.746 0.052 1.31317 0.078125 1.70117 0.078125 0.879 0 1.31836-0.398313 1.31836-1.195312 0-0.388-0.0215-1.184627-0.0625-2.390625-0.02-0.980999-0.0293-1.768329-0.0293-2.361329 0.021-0.510999 0.09185-1.348673 0.21485-2.513671 0.12199-1.082999 0.18359-1.91872 0.18359-2.511719 0-0.491-0.5718-0.736328-1.7168-0.736328-1.818 0-3.70892 0.536376-5.66992 1.609375-1.779 0.972921-2.63171 1.503083-2.5625 1.59375-0.23943-0.076376-0.40836-0.710496-0.50391-1.916016-0.102-1.286999-0.33707-1.931641-0.70507-1.931641zm-142.53125 1.070313c-0.49 0-1.23166 0.041047-2.22266 0.123047-0.992 0.082-1.73266 0.123047-2.22266 0.123047-0.491 0-1.2204-0.008297-2.1914-0.029297-0.97-0.02-1.70141-0.03125-2.19141-0.03125-0.43 0-0.64258 0.318172-0.64258 0.951172 0 0.571999 0.0606 1.454392 0.1836 2.65039 0.122 1.195999 0.18359 2.089642 0.18359 2.681641 0 2.063998-0.08114 3.820486-0.24414 5.271484-0.082 0.675-0.66505 1.941783-1.74805 3.800782-1.124 1.982998-1.94117 2.974609-2.45117 2.974609-0.531 0-1.37992-1.012158-2.54492-3.035156-1.124-1.919998-1.71635-3.226876-1.77734-3.921875-0.123-1.348999-0.1836-3.08594-0.1836-5.210938 0-0.592999 0.04105-1.466095 0.12305-2.621093 0.082-1.153999 0.12305-2.017845 0.12305-2.589844 0-0.633-0.23508-0.951172-0.70508-0.951172-1.042 0-2.61008-0.029797-4.70508-0.091797-2.095-0.061-3.66308-0.091797-4.70508-0.091797-0.716 0-1.07226 0.265876-1.07226 0.796875 0 0.816999-0.01126 2.028814-0.03126 3.632813-0.02099 1.604998-0.02929 2.804563-0.02929 3.601562 0 2.819997 0.25462 4.933752 0.76562 6.34375 0.471 1.307999 1.92152 3.730629 4.35352 7.265625 2.269 3.289997 4.01423 5.599736 5.24023 6.927735 0.286 0.305999 0.64522 0.511281 1.07422 0.613281 0.694 0.163 2.20516 0.24414 4.53516 0.24414 2.677 0 4.2805-0.315219 4.8125-0.949218 1.45-1.674999 3.19919-4.005285 5.24219-6.988282 2.34999-3.472996 3.76046-5.93572 4.23046-7.386718 0.224-0.633 0.33594-2.69741 0.33594-6.191407 0-3.575996-0.17439-5.946282-0.52539-7.113281-0.163-0.530999-0.49876-0.798828-1.00976-0.798828zm98.75976 0.003906c-0.613 0-1.03281 0.419814-1.25781 1.257813-0.756 2.696997-1.13281 6.374208-1.13281 11.033203 0 4.311996 0.22382 7.602096 0.67382 9.871094 1.001 4.883995 4.20901 7.326171 9.625 7.326171 1.921 0 4.05626-0.693985 6.40625-2.083984 2.16807-1.282008 3.21316-1.971497 3.13672-2.070312 0.16441 0.065662 0.29437 0.528294 0.38867 1.396484 0.061 0.612999 0.1226 1.224891 0.1836 1.837891 0.102 0.427999 0.34733 0.675328 0.73633 0.736328 0.879 0.122 2.4302 0.183593 4.6582 0.183593 2.514 0 4.15855-0.10264 4.93555-0.30664 0.511-0.143 0.76562-0.490969 0.76562-1.042969 0-1.449998-0.05034-3.646847-0.15234-6.589844s-0.15235-5.150095-0.15235-6.621093c0-1.512999 0.0699-3.780691 0.21289-6.804688 0.143-3.023997 0.21485-5.291689 0.21485-6.804687 0-0.327-0.0205-0.571422-0.0625-0.732422-0.103-0.307-0.45927-0.460938-1.07227-0.460938-1.001 0-2.50948-0.01025-4.52148-0.03125-2.013-0.02-3.52049-0.03125-4.52149-0.03125-0.613 0-0.98051 0.102641-1.10351 0.306641-0.102 0.122-0.15234 0.521313-0.15234 1.195312 0 9.501991-0.02151 14.63072-0.0625 15.386719-0.041 0.857999-0.58668 1.687376-1.63868 2.484375s-2.02873 1.195313-2.92773 1.195313c-2.31 0-3.64763-1.125049-4.01563-3.373047-0.225-1.307999-0.33789-3.739926-0.33789-7.294922 0-2.860997 0.21553-5.679987 0.64453-8.458984 0.041-0.287 0.0625-0.501532 0.0625-0.644532 0-0.530999-0.31817-0.796875-0.95117-0.796875-0.941 0-2.37102-0.01025-4.29101-0.03125-1.921-0.021-3.35202-0.03125-4.29102-0.03125zm-188.382811 0.490235c0.428999 0.817999 1.103438 2.697628 2.023437 5.640625 0.939999 3.044997 1.410156 4.904125 1.410156 5.578125 0 0.182999-0.019546 0.327687-0.060546 0.429687-0.144 0.326-0.889283 0.490235-2.238282 0.490235-1.450998 0-2.493953-0.020501-3.126953-0.0625-1.225999-0.041-1.83789-0.245282-1.83789-0.613282 0-0.550999 0.550298-2.421378 1.654297-5.609375 1.020998-3.002997 1.746781-4.954516 2.175781-5.853515zm108.109371 5.394531c1.246 0 2.3178 0.479454 3.2168 1.439453 0.899 0.960999 1.34961 2.074798 1.34961 3.341797 0 0.225-0.33672 0.389187-1.01172 0.492187-3.188 0.47-5.53878 0.705078-7.05078 0.705078-0.572 0-0.85742-0.276125-0.85742-0.828124 0-1.348999 0.38706-2.524392 1.16406-3.525391 0.838-1.082999 1.90146-1.625 3.18945-1.625zm151.26172 0c1.246 0 2.31975 0.479454 3.21875 1.439453 0.9 0.960999 1.34961 2.074798 1.34961 3.341797 0 0.225-0.33767 0.389187-1.01367 0.492187-3.188 0.47-5.53683 0.705078-7.04883 0.705078-0.572 0-0.85937-0.276125-0.85937-0.828124 0-1.348999 0.39001-2.524392 1.16601-3.525391 0.838-1.082999 1.9005-1.625 3.1875-1.625zm183.48047 0c1.246 0 2.32171 0.479454 3.2207 1.439453 0.9 0.960999 1.34766 2.074798 1.34766 3.341797 0 0.225-0.33572 0.389187-1.01172 0.492187-3.18799 0.47-5.53878 0.705078-7.05078 0.705078-0.572 0-0.85742-0.276125-0.85742-0.828124 0-1.348999 0.38806-2.524392 1.16406-3.525391 0.838-1.082999 1.9005-1.625 3.1875-1.625zm-403.03515 1.900391c1.59399 0 2.95217 0.608219 4.07617 1.824218 1.123 1.215999 1.6875 2.630142 1.6875 4.244141 0 1.655998-0.55325 3.096267-1.65625 4.322265-1.103 1.225999-2.47243 1.839844-4.10742 1.839844-1.635003 0-2.962381-0.613845-3.98438-1.839844-1.001999-1.143998-1.501953-2.54422-1.501953-4.199218 0-1.695999 0.495329-3.151189 1.486328-4.367188s2.324002-1.824218 4.000005-1.824218zm313.56445 0.24414c1.756 0 3.18139 0.567173 4.27539 1.701172 1.093 1.133999 1.64062 2.569642 1.64062 4.306641 0 1.757998-0.55225 3.203891-1.65625 4.33789s-2.52376 1.701172-4.25976 1.701172c-1.636 0-3.02297-0.591345-4.16797-1.777344-1.145-1.183998-1.7168-2.60672-1.7168-4.261718 0-1.756999 0.541-3.196314 1.625-4.320313 1.083-1.123999 2.50177-1.6875 4.25977-1.6875zm-197.90625 30.857422c-0.123 0-0.29649 0.008297-0.52149 0.029297-4.10799 0.612999-7.57062 1.941377-10.39062 3.984375-3.453 2.471997-5.17969 5.579363-5.17969 9.318359 0 2.574998 0.70524 4.925784 2.11524 7.050781 0.204 0.307 1.51087 1.848956 3.92187 4.626954 1.389 1.634998 2.08399 3.117313 2.08399 4.445312 0 2.083998-1.06251 3.657704-3.1875 4.720703-0.961 0.471-2.92277 1.041799-5.88477 1.716799-0.307 0.062-0.46094 0.20273-0.46094 0.42773 0 0.634 0.80788 2.38782 2.42188 5.25782 1.614 2.87099 2.655 4.30664 3.125 4.30664 0.102 0 0.23443-0.0093 0.39843-0.0293 4.394-0.716 8.12446-2.3811 11.18946-4.9961 3.49399-2.96299 5.24023-6.519968 5.24023-10.667964 0-2.226998-0.72583-4.462893-2.17383-6.71289-0.123-0.163-1.48312-1.878441-4.07812-5.148438-1.472-1.818998-2.20703-3.35261-2.20703-4.599609 0-1.389999 0.66319-2.472048 1.99219-3.248047 1.10399-0.674999 2.39228-1.011719 3.86328-1.011719 0.204 0 0.49967 0.030797 0.88867 0.091797 0.388 0.062 0.66412 0.091797 0.82812 0.091797 0.368 0 0.55078-0.171532 0.55078-0.519531 0-0.081-0.02979-0.183641-0.09179-0.306641-1.941-3.902996-3.17603-6.601751-3.70703-8.09375-0.184-0.49-0.42933-0.734375-0.73633-0.734375zm101.95312 0.039062c-0.08707 0.055987-1.91802 0.308735-5.49414 0.75586-2.29 0.183-4.08753 0.306187-5.39453 0.367187-0.327 0.082-0.49219 0.41872-0.49219 1.011719 0 1.553999 0.04105 3.892535 0.12305 7.019531 0.081 3.125997 0.12305 5.477783 0.12305 7.050782 0 0.530999-0.09139 0.796875-0.27539 0.796875-0.123 0-0.32728-0.163235-0.61328-0.490235-1.716-1.961998-4.11713-2.943359-7.20313-2.943359-4.373 0-7.84592 1.534612-10.41992 4.599609-2.432 2.880997-3.64844 6.548911-3.64844 11.003907 0 4.392995 1.23599 8.029162 3.70899 10.910152 2.59499 3.024 6.04737 4.53711 10.35937 4.53711 3.31 0 6.06839-1.08205 8.27539-3.24804 0.184-0.184 0.33794-0.30714 0.46094-0.36914 0.142 0.164 0.22314 0.32723 0.24414 0.49023 0.04 0.777 0.08205 1.55408 0.12305 2.33008 0.163 0.429 0.79639 0.64453 1.90039 0.64453 4.67999 0 7.38804-0.0523 8.12304-0.1543 0.307-0.041 0.45899-0.17148 0.45899-0.39648 0-0.102-0.0215-0.34733-0.0625-0.73633-0.471-3.575-0.70313-9.584446-0.70313-18.023438 0-5.107994 0.08014-9.663925 0.24414-13.669921 0.123-3.534997 0.29549-6.436081 0.52149-8.705079 0.12225-1.347748 0.19781-2.064062 0.22851-2.148437-0.036-0.392115-0.23038-0.604515-0.58789-0.632813zm11.26953 2.076172c-1.63499 0-3.03422 0.471158-4.19921 1.410157-1.266 1.022999-1.9004 2.329829-1.9004 3.923828 0 1.674998 0.61285 3.004376 1.83985 3.984375 1.123 0.899999 2.54377 1.349609 4.25976 1.349609 4.005 0 6.00782-1.777988 6.00782-5.333984 0-1.572999-0.62214-2.870579-1.86914-3.892578-1.165-0.960999-2.54468-1.441407-4.13868-1.441407zm-101.63867 2.421875c-0.449 0-0.67383 1.18469-0.67383 3.554688 0-0.123 0.04105 1.133534 0.12305 3.769531 0.041 1.675998-5e-5 2.903688-0.12305 3.679688-0.061 0.387999-0.45931 0.592281-1.19531 0.613281-1.308 0.041-1.96289 0.265828-1.96289 0.673828 0 0.43 0.02713 1.083892 0.07813 1.962891s0.07617 1.530938 0.07617 1.960937c0 0.327-0.02517 0.826954-0.07617 1.501953-0.052 0.674-0.07813 1.174954-0.07813 1.501953 0 0.552 0.38902 0.828125 1.16602 0.828125 0.081 0 0.21443-0.01025 0.39843-0.03125h0.39844c1.042 0 1.5625 0.450611 1.5625 1.34961 0 1.348998-0.0523 3.376987-0.1543 6.083984-0.10199 2.707997-0.15234 4.734982-0.15234 6.083982 0 4.516 2.95143 6.77344 8.85742 6.77344 3.207 0 6.13158-0.72478 8.76758-2.17578 0.552-0.306 0.88872-0.54208 1.01172-0.70508 0.123-0.164 0.18359-0.53714 0.18359-1.11914s0.07747-1.49619 0.23047-2.74219 0.22852-2.17706 0.22852-2.78906c0-0.45-0.21363-0.674781-0.64063-0.675781-0.389 0-1.05781 0.117562-2.00781 0.351562-0.95 0.235999-1.68236 0.353519-2.19336 0.353519-1.614 0-2.69605-0.439363-3.24805-1.318362-0.388-0.654-0.58203-1.83769-0.58203-3.554688 0-0.47-0.01125-1.195782-0.03125-2.175781v-2.177735c0-0.898999 0.15394-1.349609 0.46094-1.349609h2.29883c0.408 0 1.09273 0.016875 2.05273 0.046875 0.961 0.031 1.64374 0.046875 2.05274 0.046875 0.593 0 0.89062-0.214532 0.89062-0.644531 0-0.491-0.01125-1.206486-0.03125-2.146485-0.021-0.939999-0.03125-1.656484-0.03125-2.146484 0-0.469 0.04935-1.174282 0.15235-2.113281 0.102-0.939999 0.15429-1.645235 0.15429-2.115235 0-0.306999-0.22678-0.460937-0.67578-0.460937-0.736 0-1.8283 0.03175-3.27929 0.09375-1.451 0.062-2.53305 0.091797-3.24805 0.091797-0.593 0-0.89063-0.499954-0.89063-1.501953 0-0.837 0.06622-2.085236 0.19922-3.740235 0.132-1.654998 0.19922-2.891985 0.19922-3.708984 0-0.307-0.25658-0.480485-0.76758-0.521485-2.105-0.244999-3.67675-0.438031-4.71875-0.582031-0.449-0.04-1.25687-0.192984-2.42187-0.458984-1.022-0.246-1.80738-0.367188-2.35938-0.367188zm126.74219 9.072266c-4.74 0-8.49935 1.478644-11.27734 4.431641-2.779 2.952997-4.16993 6.799067-4.16993 11.539062 0 4.495996 1.45252 8.174162 4.35352 11.035152 2.902 2.86 6.60071 4.29102 11.0957 4.29102 4.638 0 8.38438-1.45152 11.23438-4.35352 2.85-2.90199 4.27539-6.681844 4.27539-11.339839 0-4.617996-1.43102-8.372675-4.29102-11.263672-2.86199-2.891997-6.6027-4.339844-11.2207-4.339844zm-102.56055 1.503906c-0.613 0-1.03086 0.420814-1.25586 1.257813-0.756 2.696997-1.13476 6.374208-1.13476 11.033203 0 4.310996 0.22578 7.601143 0.67578 9.869143 1.001 4.88499 4.209 7.32617 9.625 7.32617 1.921 0 4.0543-0.69399 6.4043-2.08398 2.17649-1.28793 3.22223-1.97769 3.13672-2.07227 0.16501 0.06375 0.29412 0.52801 0.38867 1.39844 0.061 0.613 0.12259 1.22589 0.18359 1.83789 0.102 0.429 0.34733 0.67433 0.73633 0.73633 0.879 0.122 2.43216 0.18359 4.66015 0.18359 2.514 0 4.1566-0.10264 4.9336-0.30664 0.511-0.143 0.76758-0.48902 0.76758-1.04102 0-1.451-0.0523-3.64784-0.1543-6.58984-0.102-2.942998-0.15234-5.149096-0.15234-6.621094 0-1.511999 0.06989-3.782644 0.21289-6.806641s0.21679-5.291689 0.21679-6.804687c0-0.326-0.02245-0.572376-0.06445-0.734376-0.103-0.306999-0.45927-0.458984-1.07227-0.458984-1.00099 0-2.50948-0.008297-4.52148-0.029297-2.013-0.02-3.52048-0.03125-4.52148-0.03125-0.613 0-0.97857 0.102641-1.10157 0.306641-0.102 0.123-0.15429 0.521313-0.15429 1.195312 0 9.501991-0.01955 14.63072-0.06055 15.386719-0.041 0.856999-0.58863 1.685423-1.64063 2.482422-1.05199 0.796995-2.02873 1.195315-2.92773 1.195315-2.31 0-3.64762-1.123098-4.01562-3.371096-0.225-1.306999-0.33594-3.738926-0.33594-7.294922 0-2.859997 0.21358-5.68194 0.64258-8.460938 0.041-0.285999 0.0625-0.500531 0.0625-0.644531 0-0.530999-0.31622-0.796875-0.94922-0.796875-0.941 0-2.37297-0.008297-4.29297-0.029297-1.921-0.02-3.35202-0.03125-4.29102-0.03125zm72.0625 0c-0.552 0-0.82812 0.205282-0.82812 0.613281 0 0.103 0.0205 0.318532 0.0625 0.644532 0.449 3.432996 0.67383 8.050521 0.67383 13.853515 0 1.430999-0.0298 3.562581-0.0918 6.392581-0.062 2.82999-0.0918 4.94842-0.0918 6.35742 0 0.532 0.01955 0.83892 0.06055 0.91992 0.102 0.183 0.37812 0.31744 0.82812 0.39844 0.695 0.123 2.26871 0.18359 4.72071 0.18359 2.43 0 3.99445-0.06059 4.68945-0.18359 0.511-0.081 0.76563-0.33758 0.76563-0.76758 0-1.471-0.0298-3.68177-0.0918-6.63476-0.061-2.952002-0.0918-5.175975-0.0918-6.667974 0-5.250994 0.22583-9.868566 0.67383-13.851562 0.04-0.307 0.06055-0.500032 0.06055-0.582032 0-0.407999-0.24438-0.613281-0.73438-0.613281-0.593 0-1.48197 0.052297-2.66797 0.154297-1.185 0.102-2.07401 0.152344-2.66601 0.152344s-1.47539-0.061594-2.65039-0.183594c-1.176-0.123-2.0491-0.185547-2.6211-0.185547zm-22.58984 7.785157c1.594 0 2.95313 0.607266 4.07812 1.822265 1.123 1.216999 1.68555 2.633095 1.68555 4.246094 0 1.654998-0.55225 3.096267-1.65625 4.322265-1.103 1.226999-2.47342 1.837888-4.10742 1.837888s-2.96142-0.610889-3.98242-1.837888c-1.002-1.143998-1.50391-2.54422-1.50391-4.199218 0-1.695999 0.49533-3.152142 1.48633-4.369141 0.991-1.214999 2.324-1.822265 4-1.822265zm53.15039 0.183593c1.594 0 2.89158 0.617517 3.89258 1.853516s1.50195 2.663345 1.50195 4.277344c0 1.653998-0.48141 3.074766-1.4414 4.259765-1.042 1.266999-2.35913 1.900394-3.95313 1.900394-1.614 0-2.94238-0.632395-3.98437-1.900394-0.982-1.184999-1.47266-2.605767-1.47266-4.259765 0-1.633999 0.49166-3.04447 1.47266-4.230469 1.04199-1.265999 2.37037-1.900391 3.98437-1.900391z" fill="#fff"/><path d="m117.3125 9.5v0.787109c-0.053 0.024-0.10053 0.050172-0.14453 0.076172l-0.18555-0.7949216c-6e-3 2e-3 -0.01234 0.0018594-0.02734 0.0058594-0.266 0.0529999-2.1415 0.3173128-5.1875 0.6953122-2.278 0.183-4.06671 0.307188-5.3457 0.367188l-0.14649 0.005859-0.14453 0.03711c-0.595 0.126999-1.14747 0.632281-1.35547 1.113281-0.228 0.485999-0.26748 0.921516-0.27148 1.353515 0 1.576999 0.04004 3.924644 0.12304 7.056641 0.049 1.860998 0.08452 3.444048 0.10352 4.748047-1.817-1.261999-4.07027-1.887047-6.572267-1.873047-4.717995-0.022-8.736315 1.726769-11.570312 5.134766-2.686998 3.173996-4.008 7.247754-4 11.96875-8e-3 4.668995 1.342268 8.718722 4.072265 11.886718 2.836997 3.338997 6.794114 5.061547 11.41211 5.060547h0.082031c2.838993 0.011 5.430473-0.750001 7.605473-2.25 1e-3 0.011 0.00195 0.02025 0.00195 0.03125l0.01172 0.234375 0.08203 0.220703c0.297 0.777 0.97653 1.196141 1.51953 1.369141 0.567 0.189 1.1332 0.238234 1.7832 0.240234 4.725-5e-3 7.32913-0.039015 8.32813-0.166015 0.318-0.047 0.71609-0.143376 1.12109-0.484375 0.415-0.335 0.65386-0.956391 0.63086-1.400391-2e-3 -0.261-0.02541-0.474625-0.0664-0.890625-0.458-3.475996-0.69927-9.462149-0.69727-17.869141 0-5.090994 0.08209-9.629378 0.24609-13.609374 0.121-3.520997 0.29368-6.39719 0.51368-8.617188 0.06599-0.726999 0.11729-1.262469 0.15429-1.605469 0.018-0.169 0.03497-0.293609 0.04297-0.349609l-0.06055-0.007813-0.72265-0.160156c0.01-0.015 0.02125-0.029875 0.03125-0.046875h0.80664c0-0.066 1.4e-4 -0.121797-0.00586-0.216797-2e-3 -0.017-0.00191-0.034687-0.00391-0.054687-0.036-0.407-0.16625-0.871923-0.53125-1.294922-0.452-0.5259996-1.14381-0.715172-1.63281-0.701172zm257.78125 0.2460938c-6.73799-0.019-12.44694 2.3872862-16.71094 7.1132812-4.14899 4.548995-6.22584 10.357913-6.21484 17.128906-0.012 6.645994 2.14569 12.349536 6.42969 16.769531 4.29199 4.485996 9.93783 6.768532 16.54882 6.769532h0.07032c3.97999 0 8.09503-0.817877 12.33203-2.421875 0.656 0.198 1.62244 0.444109 3.02344 0.787109 1.92099 0.454 2.91093 0.691797 3.71093 0.716797 0.483-2e-3 1.07328-0.09311 1.61328-0.537109 0.548-0.448 0.7651-1.172407 0.7461-1.691407 2e-3 -0.063 9e-5 -0.125547-0.00391-0.185547l-1.49805 0.083985 1.49219-0.132813-0.02929-0.33789c-0.388-5.206995-0.57618-9.132268-0.57618-11.697266 0-0.924999 0.05402-2.390424 0.16602-4.357422 0.112-1.996998 0.17187-3.493298 0.17187-4.529297-6e-3 -0.516999-0.07709-1.097016-0.49609-1.666015-0.419-0.586-1.20453-0.872703-1.76953-0.845703-0.723 0-1.72083 0.048625-3.04883 0.140625-1.29 0.091-2.24994 0.134765-2.83594 0.134765-0.527 0-1.40522-0.054062-2.57422-0.164062-1.22099-0.115-2.13826-0.173828-2.82226-0.173828-0.294 7e-3 -0.54969 0.002953-0.92969 0.126953h-0.00195c-0.456 0.127-0.93306 0.499594-1.16406 0.933594-0.239 0.433999-0.29097 0.844031-0.29297 1.207031 0 1.406998 0.13915 3.170939 0.41015 5.335937 0.194 1.736999 0.33664 3.065751 0.43164 3.96875-2.01699 0.717-3.8129 1.056641-5.3789 1.056641-3.003-0.017-5.02758-0.865861-6.51758-2.505859-1.438-1.611999-2.21566-3.8213-2.22266-6.904297 7e-3 -2.887997 0.74751-5.128362 2.1875-6.94336 1.562-1.947998 3.42705-2.840187 6.12305-2.867187 1.658 2e-3 3.1055 0.359172 4.4375 1.076172 0.896 0.472999 1.80185 1.15336 2.71484 2.068359 0.41 0.419 0.7483 0.749953 1.0293 1.001953 0.144 0.128 0.26892 0.233797 0.41992 0.341797 0.2 0.085 0.20749 0.274516 1.02149 0.353516 0.671-0.025 1.01356-0.258844 1.35156-0.464844 0.95-0.654999 1.93138-1.754627 3.35938-3.515625 0.93699-1.166999 1.64915-2.136126 2.16015-2.953125 0.491-0.847999 0.86211-1.403767 0.91211-2.384766-0.077-0.983999-0.41687-1.28925-0.79687-1.90625-1.865-2.609997-4.43548-4.625439-7.60547-6.023437-2.94-1.271999-6.07605-1.9082502-9.37305-1.9062502zm-319.632812 0.2753902c-0.808 0-1.395016 0.509345-1.666016 0.902344-0.3 0.414-0.465094 0.829547-0.621094 1.310547-0.393999 1.243999-3.129911 8.749357-8.128906 22.277344-2.310998 6.267993-4.046126 11.03355-5.203125 14.310547-0.58 1.638998-1.0165 2.902641-1.3125 3.80664-0.148 0.452-0.258797 0.811657-0.341797 1.097656-0.079 0.329-0.139063 0.399579-0.164062 0.892579-2e-3 0.885999 0.641781 1.487406 1.050781 1.691406 1.257998 0.630999 2.678674 0.654266 5.138672 0.697265 4.036996-0.014999 6.220079-0.051156 7.330078-0.285156 0.998999-0.291999 1.432766-0.966172 1.759765-1.576172 0.327-0.643999 0.555532-1.389547 0.769532-2.310546 0.204999-0.892 0.401406-1.586876 0.566406-2.046876 0.03-0.084999 0.058937-0.162468 0.085937-0.230468 0.736-0.059 2.379659-0.124328 4.597657-0.111328 2.565997-3e-3 4.532954 0.015781 5.876953 0.050781 0.625999 0.018 1.117938 0.0405 1.460937 0.0625 0.232 0.597999 0.640016 1.906017 1.041016 3.666015 0.21 1.167999 1.234517 2.308907 2.478516 2.503907 1.117998 0.21 2.966409 0.270344 5.941406 0.277343 3.265996-0.016999 5.029938-0.044922 6.085937-0.294921 0.43-0.124 0.861001-0.304454 1.25-0.689453 0.395-0.374 0.647813-0.997345 0.632813-1.527344-0.027-0.504-0.092782-0.581016-0.175782-0.916016-0.579999-1.954998-2.955707-8.327839-7.220703-19.423828-4.850995-12.589987-7.753641-19.905018-8.80664-22.166016-0.226-0.462999-0.469751-0.859797-0.84375-1.216796-0.36-0.351-0.941892-0.666157-1.587891-0.660157-0.595999 0-1.41586 0.037375-2.505859 0.109375-1.053999 0.071-1.848891 0.103516-2.337891 0.103516-0.488999 0-1.326032-0.045485-2.457031-0.146484-1.177999-0.102-2.05136-0.158204-2.693359-0.158204zm60.876952 2.681641c-0.026 0.274-0.05684 0.592125-0.08984 0.953125-0.228 2.304998-0.40139 5.233113-0.52539 8.787109-0.164 4.022996-0.2441 8.599615-0.2461 13.72461 2e-3 8.111992 0.21321 13.983472 0.65821 17.730469-1.258 0.047999-3.64566 0.083078-6.97266 0.080078-0.172 1e-3 -0.32131-0.006579-0.44531-0.017578-0.027-0.511-0.05308-1.023157-0.08008-1.535157l-0.00195-0.052734-0.00782-0.056641c-0.066-0.536999-0.32351-0.972016-0.60351-1.291015l-0.76172-0.871094-1.03711 0.515625c-0.384 0.201-0.60256 0.408438-0.85156 0.648437-1.934 1.880998-4.22885 2.796547-7.214847 2.810547-3.967996-0.021-6.885658-1.320674-9.222656-4.013672-2.215998-2.593997-3.337703-5.815597-3.345703-9.933593 8e-3 -4.188996 1.117971-7.449112 3.292968-10.03711 2.316998-2.724997 5.245395-4.042453 9.275391-4.064453 2.778997 0.019 4.651217 0.828642 6.074217 2.431641 0.179 0.204 0.3446 0.378781 0.5586 0.550781 0.228 0.15 0.45064 0.408219 1.18164 0.449219 0.412 0.015 0.89711-0.193797 1.16211-0.466797 0.72399-0.857999 0.55123-1.296126 0.61523-1.828125 0-1.596999-0.04105-3.955847-0.12305-7.089844-0.075-2.834997-0.11509-5.020017-0.12109-6.541015 1.206-0.071 2.70495-0.177266 4.50195-0.322266l0.04492-0.003906 0.02149-0.001954c1.835-0.229999 3.21358-0.408109 4.14258-0.537109 0.042-6e-3 0.08109-0.012578 0.12109-0.017578zm258.75781 0.044922c2.915 3e-3 5.62288 0.551298 8.17188 1.654297 2.744 1.214999 4.83228 2.879627 6.36328 5.015625 0.072 0.101 0.12978 0.190672 0.17578 0.263672-0.236 0.496999-1.04166 1.772282-2.34766 3.363281-0.89199 1.110999-1.61786 1.931828-2.13086 2.423828-0.03599 0.037-0.07046 0.071516-0.10546 0.103516-0.14-0.137-0.29971-0.29661-0.47071-0.47461-1.102-1.099999-2.2385-1.971422-3.4375-2.607422-1.767-0.954999-3.75056-1.43364-5.85156-1.43164-3.434-0.028-6.43856 1.371815-8.47656 4.007812-1.906 2.384998-2.83999 5.397691-2.83399 8.804688-6e-3 3.577996 0.95229 6.639252 2.98828 8.90625 2.107 2.366997 5.17196 3.520906 8.75196 3.503906 2.334 0 4.84583-0.577876 7.54883-1.671875l1.0332-0.417969-0.10156-1.109375c-0.065-0.704999-0.24769-2.414737-0.55469-5.177734-0.213-1.700998-0.336-3.116376-0.375-4.234375 0.492 0.024 1.13802 0.071531 1.91602 0.144531 1.21999 0.114 2.15151 0.175781 2.85351 0.175781 0.719 0 1.71988-0.048578 3.04688-0.142578 0.84499-0.059 1.54861-0.097187 2.09961-0.117187-0.014 0.919999-0.06911 2.21347-0.16211 3.855469-0.114 1.995998-0.16993 3.491344-0.16993 4.527343 0 2.609998 0.18293 6.390818 0.54493 11.382813-0.53-0.104-1.30797-0.278532-2.29297-0.519532-1.817-0.437999-2.99733-0.765281-3.23633-0.863281l-0.54102-0.205078-0.53906 0.208985c-4.129 1.618998-8.0361 2.412109-11.74609 2.412109-5.984-0.017-10.67899-1.94152-14.45899-5.853516-3.72899-3.878996-5.57489-8.663506-5.58789-14.6875 0.01-6.182994 1.81665-11.118332 5.43164-15.111328 3.747-4.102996 8.43615-6.112906 14.49414-6.128906zm-319.029294 0.291015c0.466 0.022 1.079267 0.066813 1.822266 0.132813 1.180999 0.105 2.064657 0.15625 2.722656 0.15625 0.613 0 1.445111-0.035422 2.53711-0.107422 0.817999-0.056 1.474312-0.089562 1.945312-0.101562 0.024 0.043 0.052984 0.098109 0.083984 0.162109 0.938999 2.007998 3.881849 9.408138 8.714844 21.953125 2.428998 6.319994 4.252892 11.127019 5.462891 14.416016 0.605999 1.641998 1.059469 2.90725 1.355469 3.78125 0.056999 0.165999 0.107343 0.318078 0.152343 0.455078-0.822999 0.064-2.507189 0.132047-4.742187 0.123047-2.873997 6e-3 -4.782563-0.09675-5.351563-0.21875-0.053-0.014-0.048734-0.017672-0.052734-0.013672 0-2e-3 -0.04675-0.041282-0.09375-0.238282-0.354-1.497998-0.67075-2.658297-0.96875-3.529296-0.153-0.436-0.296797-0.799907-0.466797-1.128907-0.2-0.324999-0.310219-0.657016-0.949219-1.041015l-0.050781-0.027344-0.048828-0.023438c-0.6-0.215999-0.72036-0.15689-1.19336-0.21289-1.245998-0.086-3.741097-0.125-7.621093-0.125-1.751998 0-3.098407 0.023312-4.066407 0.070312-0.487999 0.025-0.876031 0.054657-1.207031 0.097657-0.166 0.022-0.316375 0.04589-0.484375 0.08789-0.175 0.059-0.345235 0.063422-0.740234 0.357422l-0.029297 0.023438-0.048828 0.044921c-0.535 0.547-0.6885 1.015251-0.9375 1.65625-0.224 0.633-0.43811 1.414908-0.662109 2.378907-0.175 0.778999-0.371626 1.339188-0.515626 1.617187-0.011999 0.023-0.024156 0.0435-0.035156 0.0625-0.728999 0.08-3.030769 0.17411-6.384765 0.16211-1.284999 1e-3 -2.285689-0.057485-2.929688-0.146485 0.761999-2.384997 2.970222-8.540556 6.574219-18.310547 5.012995-13.566986 7.711828-20.959204 8.173828-22.408203 0.011-0.037 0.024156-0.073469 0.035156-0.105469zm168.990234 0.96875c-0.849-9.99e-4 -1.42066 0.616516-1.59766 0.978516-0.554 1.115999-0.53512 2.183174-0.57812 4.076172h0.00195c1e-3 0.066 0.00191 0.106813 0.00391 0.132812 0 5e-3 -5e-5 0.011391 0.00195 0.025391 0.011 0.272 0.05219 1.541158 0.11719 3.660156 9e-3 0.395 0.01367 0.776001 0.01367 1.125 1e-3 0.647-0.01783 1.196001-0.04883 1.625-0.661 0.031-1.20318 0.093485-1.74218 0.271485-0.294 0.105-0.60783 0.242922-0.92383 0.544922-0.321 0.285999-0.59408 0.837563-0.58008 1.351562 0 0.485 0.02712 1.151876 0.07812 2.046875 0.052 0.863999 0.07422 1.503 0.07422 1.875 2e-3 0.253-0.02326 0.734626-0.07226 1.390625-0.052 0.692999-0.08008 1.212282-0.08008 1.613281-0.031 0.613 0.30687 1.440751 0.92187 1.84375 0.594 0.409 1.18519 0.478329 1.74219 0.486329 0.163-2e-3 0.29975-0.014251 0.46875-0.03125h0.32813c0.022-1e-6 0.0425-1e-3 0.0625 0-4e-3 1.313998-0.05339 3.279002-0.15039 5.875-0.103 2.717997-0.15425 4.755626-0.15625 6.140624-0.022 2.564998 0.90973 4.848486 2.80273 6.271485 1.879 1.421998 4.4256 1.997953 7.55859 2.001953 4e-3 0 0.00768 9.06e-4 0.01368 0.003906 3.42599 0 6.61956-0.788283 9.47656-2.363281 0.629-0.379 1.00133-0.539094 1.48633-1.121094 0.538-0.848999 0.43737-1.308625 0.48437-2.015625-2e-3 -0.460999 0.06675-1.345548 0.21875-2.560547 0.157-1.278998 0.24019-2.241657 0.24219-2.972656 2e-3 -0.445999-0.10917-1.049969-0.57617-1.542969-0.468-0.494999-1.11236-0.640812-1.56836-0.632812-0.666 0.011-1.35619 0.155438-2.36719 0.398437-0.884 0.222-1.54203 0.310641-1.83203 0.306641-1.392-0.016-1.82052-0.351188-1.97852-0.617188-0.111-0.122999-0.37451-1.16086-0.35351-2.755859 0-0.491999-0.01025-1.221032-0.03125-2.207031v-1.994141h1.25976c0.372 0 1.05191 0.013922 2.00391 0.044922 0.97 0.031 1.65952 0.046875 2.10352 0.046875 0.467-6e-3 0.99392-0.061313 1.54492-0.445312 0.568-0.381 0.87275-1.15722 0.84375-1.699219 0-0.512-0.01225-1.229782-0.03125-2.175781-0.02-0.934999-0.03125-1.645282-0.03125-2.113282-2e-3 -0.367999 0.04553-1.044126 0.14453-1.953125 0.105-0.969999 0.16011-1.704344 0.16211-2.277343 0.035-0.508-0.29222-1.260938-0.82422-1.585938-0.51-0.335-0.96161-0.367047-1.34961-0.373047-0.775 0-1.88175 0.029797-3.34375 0.091797-1.061 0.044-1.92227 0.071985-2.57227 0.083984-2e-3 -0.762999 0.06041-1.984236 0.19141-3.615234 0.134-1.676998 0.20508-2.934126 0.20508-3.828125 0.035-0.575999-0.36061-1.313563-0.84961-1.601562-0.475-0.311-0.89592-0.375063-1.29492-0.414063-2.047-0.241-3.61572-0.434219-4.63672-0.574219l-0.0293-0.003906-0.03906-0.003906c-0.294-0.023-1.09266-0.170641-2.22266-0.431641-1.071-0.252999-1.92831-0.400344-2.69531-0.402344zm0.90625 3.091797c0.315 0.053 0.68552 0.128469 1.10352 0.230469 1.195 0.269 2.00147 0.430188 2.60547 0.492188 0.96099 0.131999 2.33386 0.302672 4.13085 0.513672-0.029 0.699999-0.08682 1.602454-0.17382 2.689453-0.134 1.674998-0.20113 2.944422-0.20313 3.857421 9e-3 0.645 0.06964 1.251626 0.43164 1.890626 0.337 0.655999 1.23803 1.156328 1.95703 1.111328 0.756 0 1.8495-0.029797 3.3125-0.091797 0.93-0.04 1.71099-0.066078 2.33399-0.080078-0.022 0.266999-0.05285 0.567391-0.08985 0.90039-0.105 0.967999-0.16015 1.705298-0.16015 2.279297 0 0.51 0.01025 1.229782 0.03125 2.175781 0.01 0.477 0.01844 0.894001 0.02343 1.25-0.36499-8e-3 -0.82967-0.021062-1.38867-0.039062-0.971-0.029-1.65956-0.044922-2.10156-0.044922h-2.29883c-0.448-0.014-0.964 0.213719-1.25 0.511719-0.783 0.926999-0.64598 1.529891-0.70898 2.33789v2.175782c0.021 1.007999 0.03125 1.727781 0.03125 2.175781 0.021 1.835998 0.14501 3.171267 0.79101 4.322265 0.966 1.527999 2.70407 2.066735 4.53907 2.052735 0.734-4e-3 1.53473-0.149485 2.55273-0.396485 0.273-0.068999 0.52514-0.126875 0.74414-0.171874-0.036 0.451999-0.09287 1.004531-0.17187 1.644531-0.156 1.277998-0.23824 2.219735-0.24024 2.927734 0 0.101-0.00381 0.189672-0.00781 0.263672-0.106 0.068-0.24802 0.155047-0.41602 0.248047-2.40699 1.321999-5.05511 1.984328-8.03711 1.986328-2.77299 6e-3 -4.65937-0.550766-5.73437-1.384766-1.061-0.833999-1.6-1.937673-1.625-3.888672 0-1.313998 0.04934-3.330346 0.15234-6.027343 0.102-2.719998 0.15235-4.75758 0.15235-6.142578 0.016-0.718-0.24816-1.587532-0.91016-2.144532-0.655-0.556999-1.43134-0.701125-2.15234-0.703125h-0.39844v-0.001953h-0.03906c0.011-0.2 0.02687-0.429547 0.04687-0.685547 0.053-0.694999 0.08003-1.212234 0.08203-1.615234 0-0.485-0.02908-1.152876-0.08007-2.046875-0.022-0.388-0.03879-0.732391-0.05079-1.025391 0.139-0.013 0.30233-0.02239 0.48633-0.02539 0.491-0.019 0.96728-0.076985 1.48828-0.333985 0.516-0.232999 1.06063-0.872922 1.14063-1.544921 0.111-0.721 0.15425-1.607283 0.15625-2.738282 0-0.380999-0.00567-0.782031-0.01367-1.207031-0.042-1.273999-0.0708-2.218563-0.0918-2.851563-0.01-0.313999-0.01744-0.552937-0.02344-0.710937-2e-3 -0.082-0.00386-0.140547-0.00586-0.185547-1e-3 -0.012-0.00195-0.022203-0.00195-0.033203 0-0.807999 0.03303-1.461016 0.08203-1.916016zm-1.61328 1.962891h0.03125v1.490234c-0.678-0.017-1.0292-0.390875-1.1582-0.546875-0.265-0.355999-0.24025-0.441343-0.28125-0.527343l1.4082-0.416016zm0.03906 0h1.49219c0.00136 0.070243-0.00438 0.170401-0.04688 0.359375-0.041 0.156-0.12243 0.417219-0.39843 0.699219l-1.04688-1.058594zm280.51367 3.556641c-4.98299-0.017-9.23512 1.722347-12.32812 5.152343-3.012 3.290997-4.50709 7.579505-4.4961 12.5625-0.01599 5.130995 1.67932 9.482441 5.07032 12.648438 3.26099 3.119997 7.62205 4.667969 12.74804 4.667969h0.05079c5.48299 7e-3 9.84084-1.409191 12.71484-4.492188 0.187-0.201 0.34891-0.395 0.50391-0.625 0.136-0.243 0.33442-0.496516 0.35742-1.103515-0.023-0.715-0.22605-1.174282-0.49805-1.863282-0.284-0.668999-0.67922-1.467641-1.19922-2.43164-0.523-0.970999-0.97276-1.738938-1.38476-2.335938-0.29-0.384999-0.49755-0.702281-0.81055-0.988281 0.916-0.097 1.44844-0.158406 1.64844-0.191406 1.078-0.211 2.02825-0.907986 2.53125-1.833985 0.514-0.922999 0.6894-1.977017 0.6914-3.166015 0.013-4.293996-1.53744-8.145097-4.52343-11.246094-2.973-3.129997-6.78518-4.770906-11.07618-4.753906zm-334.74414 0.001953c-4.98499-0.019-9.23808 1.719394-12.33008 5.15039-2.56589 2.80357-4.02521 6.333257-4.39648 10.398438 0.05671-1.069034 0.08398-2.450847 0.08398-4.181641-0.00999-3.646996-0.14598-6.016064-0.58398-7.539062-0.195-0.980999-1.37627-1.961141-2.44726-1.869141-0.569 0-1.33271 0.044953-2.34571 0.126953-0.971 0.08-1.68861 0.117188-2.09961 0.117188-0.473 0-1.19615-0.00825-2.16015-0.03125-0.976-0.019-1.71461-0.029297-2.22461-0.029297-0.572-0.037-1.37061 0.318485-1.72461 0.896484-0.361 0.557-0.41002 1.075688-0.41602 1.554688 0 0.672999 0.06446 1.577735 0.18945 2.802734 0.119 1.167999 0.17774 2.036297 0.17774 2.529297 0 2.024998-0.08233 3.730517-0.23633 5.103516 0.023 0.127999-0.49769 1.448845-1.55469 3.214843-0.463 0.821-0.86297 1.441798-1.16796 1.841797-0.315-0.407999-0.76047-1.056485-1.23047-1.896484-1.104-1.828998-1.62094-3.195688-1.58594-3.304688-0.117-1.284998-0.17578-2.985033-0.17578-5.082031 0-0.525999 0.03614-1.378673 0.11914-2.513672 0.082-1.173999 0.125-2.055313 0.125-2.695312-6e-3 -0.493-0.06966-1.048423-0.47266-1.607422-0.399-0.578-1.17742-0.870797-1.73242-0.841797-1.014 0-2.57416-0.029797-4.66016-0.091797-2.10299-0.062-3.681-0.09375-4.75-0.09375-0.534 7e-3 -1.11922 0.079094-1.69921 0.496094-0.599 0.414999-0.904 1.216782-0.875 1.800781 0 0.804999-0.01026 2.014283-0.03126 3.613281-0.02099 1.606999-0.02929 2.811095-0.02929 3.621094 6e-3 2.912997 0.24351 5.147471 0.85351 6.855469 0.598 1.617998 2.0693 4.010519 4.5293 7.603515 2.29 3.321997 4.051 5.656752 5.375 7.09375 0.488 0.53 1.14113 0.898688 1.82813 1.054688 1.00699 0.225 2.49467 0.281063 4.88867 0.289062 1.397-0.001999 2.544-0.080578 3.5-0.267578 0.945-0.204999 1.76198-0.44175 2.45898-1.21875 1.495-1.726998 3.26608-4.093425 5.33008-7.107422 2.384-3.541996 3.82992-5.999486 4.41992-7.771484 0.16088-0.492692 0.22021-1.064508 0.27344-1.779297-0.02913 0.484525-0.04983 0.973876-0.04883 1.472657-0.017 5.129994 1.68227 9.48144 5.07227 12.648437 3.25999 3.115997 7.61633 4.664969 12.73632 4.667969h0.06055c5.482 6e-3 9.84085-1.409144 12.71485-4.494141 0.187-0.201 0.3519-0.393047 0.5039-0.623047 0.138-0.243 0.33242-0.497516 0.35742-1.103515-0.025-0.714-0.22304-1.174235-0.49804-1.865235-0.281-0.665999-0.67922-1.465641-1.19922-2.43164-0.523-0.969999-0.97377-1.736032-1.38477-2.332032-0.29-0.386999-0.49654-0.704234-0.81054-0.990234 0.91799-0.098 1.44943-0.159359 1.64843-0.193359 1.081-0.211 2.03121-0.905033 2.53321-1.832032 0.513-0.922999 0.68936-1.978016 0.69336-3.166015 0.013-4.292996-1.5384-8.144144-4.52539-11.244141-2.974-3.132997-6.78518-4.772859-11.07618-4.755859zm151.26368 0c-4.984-0.018-9.23713 1.719394-12.32813 5.15039-1.79793 1.964412-3.05047 4.286222-3.76953 6.896485-0.00981-0.347203-0.00761-0.474645-0.02344-0.94336-0.02-0.954999-0.0293-1.733594-0.0293-2.308593 0.016-0.383 0.08504-1.20747 0.20704-2.355469 0.123-1.104999 0.1914-1.979876 0.1914-2.671875 0.05-0.896999-0.73584-1.743641-1.33984-1.931641-0.618-0.253999-1.19596-0.296687-1.87696-0.304687-2.11899 0-4.26258 0.62797-6.39257 1.792968-0.324 0.177-0.61777 0.340235-0.88477 0.490235-0.059-0.545-0.14369-1.006985-0.30469-1.458985-0.106-0.276999-0.23562-0.566047-0.51562-0.873046-0.264-0.305-0.7997-0.608703-1.3457-0.595704-0.415 0.022-0.33777 0.039032-0.63477 0.082032-0.686 0.124-2.21872 0.420578-4.63672 0.892578-2.129 0.322-3.74427 0.541203-4.82226 0.658203l-0.16407 0.019531-0.14843 0.050782c-0.758 0.152999-1.57338 1.202157-1.48438 2.035156 2e-3 0.283999 0.04166 0.529109 0.09766 0.787109l0.00976 0.042969 0.00977 0.037109c0.827 2.912997 1.26372 6.744083 1.26172 11.455078 0 1.628999-0.0103 4.073035-0.0293 7.332032-0.021 3.260996-0.03125 5.710564-0.03125 7.351562-0.013 0.567 0.19441 1.271813 0.69141 1.757813 0.493 0.486999 1.10062 0.676187 1.64062 0.742187 1.272 0.134 2.8628 0.192406 4.8418 0.191406 2.045 0 3.56795-0.038 4.62695-0.125 0.522-0.053 1.06594-0.174891 1.58594-0.58789 0.532-0.408 0.82669-1.155376 0.80469-1.734375 0-0.641-0.043-1.530564-0.125-2.726563-0.082-1.152999-0.11914-2.016922-0.11914-2.544922 0-0.893999-0.01788-2.232392-0.04688-4.02539-0.031-1.784998-0.04687-3.113564-0.04687-3.976563-0.024-1.452998 0.35534-2.081984 0.40234-2.083984 0.057-0.11 0.93242-0.456641 2.48242-0.431641 0.298 0 0.83646 0.023266 1.56445 0.072266 0.765 0.054 1.35369 0.082031 1.80469 0.082031 0.649 1e-3 1.38905-0.1435 1.99805-0.6875 0.06148-0.055048 0.11618-0.113989 0.16992-0.173828-0.07544 0.760688-0.11683 1.538421-0.11523 2.335938-0.017 5.129994 1.67931 9.480487 5.07031 12.646484 3.263 3.119997 7.6201 4.667969 12.74609 4.667969h0.05274c5.48299 6e-3 9.83889-1.409144 12.71289-4.494141 0.187-0.201 0.3529-0.391047 0.5039-0.623047 0.138-0.242 0.33347-0.495563 0.35547-1.101562-0.022-0.716-0.22114-1.176189-0.49414-1.867188-0.283-0.665999-0.67922-1.463688-1.19922-2.429687-0.522-0.970999-0.97376-1.737985-1.38476-2.333985-0.29-0.386999-0.4995-0.704234-0.8125-0.990234 0.917-0.098 1.45139-0.15936 1.65039-0.193359 1.078-0.211 2.0283-0.905033 2.52929-1.832032 0.515-0.921999 0.68936-1.97897 0.69336-3.167968 0.013-4.292996-1.53944-8.142191-4.52343-11.242188-2.974-3.131997-6.78518-4.772906-11.07617-4.753906zm-260.628911 0.599609-1.291016 2.705078c-0.493999 1.041999-1.208188 2.985628-2.242187 6.015625-0.552 1.599999-0.973719 2.880517-1.261719 3.853516-0.282 1.006999-0.45261 1.553235-0.474609 2.240234-0.014 0.522 0.275797 1.070797 0.591796 1.341797 0.959999 0.753999 1.649267 0.676485 2.697266 0.771485 0.654999 0.042999 1.707689 0.0625 3.179688 0.0625 0.735999-2e-3 1.339578-0.039204 1.892578-0.158204 0.509999-0.145999 1.202797-0.250469 1.716796-1.230468 0.17-0.438 0.183454-0.735251 0.189454-1.03125-0.037-1.179999-0.533517-2.889488-1.478516-6.021485-0.939999-2.990997-1.587954-4.854485-2.126953-5.896484l-1.392578-2.652344zm351.878911 0.103516c-4.93-0.019-9.08926 1.650519-12.03126 4.978515-2.84099 3.193997-4.21993 7.417443-4.21093 12.398438-8e-3 4.385995 1.35855 8.307769 4.06054 11.509766 2.813 3.421996 6.61576 5.255859 10.96875 5.255859h0.08008c2.545 7e-3 4.95338-0.953986 7.10938-2.708985 0.067 0.332 0.15801 0.640266 0.29101 0.947266 0.183 0.483 0.78343 1.317031 1.85743 1.332031 3.29499 0 6.2315-0.091297 8.8125-0.279297 0.64399-0.041999 1.38637-0.331781 1.85937-0.925781 0.472-0.587999 0.60352-1.273719 0.60352-1.886719 0-1.608998-0.09035-3.955128-0.27735-7.078124-0.181-3.088997-0.27348-5.41169-0.27148-6.929688-2e-3 -4.047996 0.31708-7.874519 0.95508-11.478516 0.063-0.395999 0.10423-0.53825 0.11523-0.90625 0.013-0.483999-0.22348-1.003781-0.52148-1.300781-0.293-0.308-0.59786-0.465078-0.88086-0.580078l-0.04493-0.019531-0.04687-0.015625c-0.995-0.322-2.46849-0.670938-4.52149-1.085938-2.17499-0.432999-3.61118-0.667828-4.61718-0.673828-1.018 0.029-1.53272 0.719813-1.76172 1.132813-0.126 0.226999-0.22555 0.454265-0.31055 0.697265-1.974-1.593998-4.4558-2.400812-7.21679-2.382812zm44.6875 0c-2.045-2e-3 -3.98958 0.426251-5.76758 1.28125-0.91 0.456999-1.94688 1.122626-3.17188 2.015625-0.027-0.533-0.08598-0.990548-0.20898-1.435547-0.091-0.297-0.20057-0.60436-0.47656-0.943359-0.255-0.339-0.83316-0.690829-1.41016-0.673829-0.845 5e-3 -1.75103 0.182282-2.83203 0.488282-1.265 0.349999-2.10344 0.568422-2.27344 0.607421-0.277 0.036-1.18752 0.129766-2.60352 0.259766-1.32499 0.141-2.20761 0.265407-2.97461 0.566406-0.83999 0.291-1.43237 1.351798-1.35937 2.091797 2e-3 0.263 0.03022 0.486766 0.07422 0.759766 0.485 4.129996 0.7227 7.833519 0.7207 11.103515 2e-3 1.630999-0.0083 4.073035-0.02929 7.332032-0.02 3.261996-0.02926 5.712564-0.03126 7.351562 2e-3 0.301 0.01274 0.561938 0.05274 0.835938 0.066 0.273999 0.04666 0.556938 0.47266 1.085937 0.479 0.478 0.77692 0.495985 1.04492 0.583985 0.267 0.066 0.52336 0.098047 0.81836 0.123046 1.677 0.126 3.17281 0.1875 4.50781 0.1875 2.004 1e-6 3.47638-0.038953 4.48437-0.126953 0.625-0.11 1.05296 0.002218 1.87696-0.675781 0.739-0.913999 0.556-1.370672 0.625-2.013672 0-1.841998-0.01025-4.613457-0.03125-8.314453-0.019-3.696996-0.0293-6.47408-0.0293-8.330078-0.015-0.084 0.07397-0.489719 1.04297-1.136719 0.888-0.593999 1.58194-0.798875 2.08594-0.796875 0.805 0.025 1.0485 0.19186 1.3125 0.50586 0.262 0.327999 0.53234 1.095954 0.52734 2.376953 0 0.801999 0.0225 1.963861 0.0625 3.505859 0.042 1.524999 0.0625 2.659626 0.0625 3.390625 0 0.949999-0.0308 2.393643-0.0918 4.306641-0.062 1.929998-0.09375 3.379141-0.09375 4.36914 6e-3 0.582 0.07457 1.180063 0.47657 1.789063 0.392 0.629999 1.24286 1.00275 1.88086 0.96875h9.29101c0.559 0.012 1.30397-0.196626 1.79297-0.765625 0.483-0.56 0.5937-1.207048 0.5957-1.748047-2e-3 -1.010999-0.03375-2.484314-0.09375-4.445312-0.063-1.942999-0.09179-3.389314-0.09179-4.320313-3e-3 -4.138996 0.04623-6.703438 0.11523-7.398437 0.062-0.516 0.3106-1.034642 1.05859-1.681641 0.774-0.647999 1.36658-0.849516 1.89258-0.853516 0.832 0.012 1.17797 0.201313 1.41797 0.445313 0.242 0.248 0.49783 0.770345 0.54883 1.777344 0.078 1.459998 0.12109 3.994644 0.12109 7.55664 0 0.909999-0.02979 2.304064-0.09179 4.164063-0.062 1.880998-0.09375 3.296579-0.09375 4.267578 4e-3 0.606999 0.09517 1.222407 0.45117 1.816406 0.345 0.597999 1.03078 1.042297 1.67578 1.154297 0.914 0.168 2.40513 0.203937 4.95312 0.210937 2.445-2e-3 3.91847-0.033765 4.73047-0.134765 0.581-0.065 1.2626-0.369641 1.6836-0.931641 0.424-0.555999 0.54106-1.188954 0.53906-1.751953 0-1.309999-0.0288-3.252753-0.0918-5.84375-0.06-2.578997-0.09179-4.507486-0.09179-5.771484 0-1.056999 0.03179-2.680612 0.09179-4.84961 0.063-2.181998 0.09175-3.817735 0.09375-4.927734 0.029-2.974997-1.18714-5.590002-3.49414-7.25-2.008-1.476999-4.55752-2.162203-7.47851-2.158203-2.08-3e-3 -4.1781 0.582829-6.2461 1.673828-1.282 0.673999-2.41667 1.461282-3.38867 2.363281-0.716-1.049999-1.69023-1.927938-2.86523-2.585937-1.71-0.974999-3.66854-1.455172-5.76953-1.451172zm-248.73243 0.125c-2.21599 6e-3 -4.55619 0.840892-7.11718 2.33789-0.612 0.358-1.1418 0.67236-1.5918 0.94336-0.06-0.6-0.12938-1.082813-0.23438-1.507813-0.066-0.249-0.12987-0.478484-0.29687-0.771484-0.138-0.245-0.53903-0.843906-1.45703-0.878906-0.815 0.024-2.42218 0.334891-5.70117 0.96289-2.136 0.306-3.83862 0.529922-5.09961 0.669922l-0.20313 0.021484-0.1914 0.078126c-0.769 0.222999-1.47835 1.256453-1.40235 2.064453 2e-3 0.285999 0.04266 0.530109 0.09766 0.787109l0.00976 0.039062 0.00782 0.03125c0.74199 2.688998 1.14653 6.580896 1.14453 11.587891 0 1.608999-0.01025 4.017613-0.03125 7.224609-0.021 3.210997-0.03125 5.610893-0.03125 7.212891-0.01 0.549 0.17858 1.225985 0.64258 1.708985 0.45999 0.486999 1.04435 0.69825 1.56835 0.78125 0.931 0.151999 2.46244 0.201078 4.89844 0.205078 2.235-3e-3 3.68978-0.037813 4.55078-0.132813 0.588-0.068 1.24536-0.330094 1.69336-0.871094 0.45-0.537999 0.58989-1.194906 0.58789-1.753906v-16.550781c2e-3 -2e-3 -0.01714-0.043141 0.13086-0.244141 0.142-0.195 0.44674-0.489453 0.92774-0.814453 0.901-0.593999 1.59526-0.793203 1.94726-0.783203 0.949 0.014 1.33057 0.23325 1.60156 0.53125 0.275 0.307 0.54493 0.96997 0.54493 2.167969 0 0.781999 0.0215 1.918689 0.0625 3.429687 0.041 1.493999 0.0625 2.616704 0.0625 3.345703 0 0.948999-0.0298 2.401987-0.0918 4.333985-0.062 1.949998-0.09375 3.410438-0.09375 4.398437 0 0.563 0.11953 1.187329 0.51953 1.736328 0.395 0.553 1.03247 0.889188 1.60547 0.992188 0.919 0.17 2.44813 0.204797 5.07812 0.216797 2.449-4e-3 3.89355-0.031672 4.68555-0.138672 0.51-0.068 1.10292-0.288297 1.54492-0.779297 0.448-0.489 0.60952-1.132297 0.60352-1.654297 0-1.335999-0.01025-3.325612-0.03125-5.974609-0.021-2.643998-0.03125-4.63022-0.03125-5.949219v-9.777344c0.031-2.895997-1.22125-5.461564-3.53125-7.101562-2.045-1.446999-4.55291-2.129-7.37891-2.125zm40.61524 1.130859c-0.647-0.015-1.37594 0.27286-1.83594 0.75586-0.471 0.474999-0.71309 1.035281-0.87109 1.613281-0.808 2.895997-1.18155 6.681879-1.18555 11.421875 4e-3 4.368995 0.22208 7.720112 0.70508 10.162109 0.544 2.702997 1.7768 4.926486 3.71679 6.396485 1.938 1.475998 4.45196 2.140671 7.37696 2.138671 2.288-4e-3 4.66792-0.81697 7.16992-2.292968 0.517-0.307 0.97314-0.581219 1.36914-0.824219 0.027 0.281 0.05503 0.563703 0.08203 0.845703l0.00977 0.101563 0.02539 0.095703c0.119 0.828999 1.00894 1.789093 1.96093 1.871093 1.061 0.146 2.62759 0.200079 4.89258 0.205078 2.575-0.009999 4.20641-0.080422 5.31641-0.357421 0.514-0.137 1.04734-0.440688 1.40234-0.929688 0.36-0.487999 0.48642-1.0625 0.48243-1.5625 0-1.483998-0.0513-3.690534-0.1543-6.644531-0.101-2.930997-0.15235-5.129408-0.15235-6.566406 0-1.466999 0.07085-3.723378 0.21485-6.734375 0.142-3.037997 0.21484-5.317002 0.21484-6.875-4e-3 -0.395-0.01551-0.717704-0.10351-1.095703l-0.01563-0.056641-0.01953-0.058594c-0.185-0.602999-0.71778-1.071047-1.17578-1.248047-0.467-0.195-0.88836-0.234328-1.31836-0.236328-0.992 0-2.49786-0.01025-4.50586-0.03125-2.017-0.021-3.52811-0.03125-4.53711-0.03125-0.392 2e-3 -0.74767 0.025813-1.13867 0.132813-0.369 0.107-0.88 0.310344-1.25 0.902343l0.00195 0.001954c-0.288 0.455999-0.25831 0.69075-0.32031 0.96875-0.036 0.304999-0.04878 0.620094-0.05078 0.996093 2e-3 9.473991-0.0236 14.681688-0.0586 15.304688-4e-3 0.236-0.17087 0.701141-1.04687 1.36914-0.896 0.68-1.58149 0.896625-2.02148 0.890625-0.925-4e-3 -1.43849-0.211234-1.77149-0.490234-0.331-0.28-0.61562-0.735048-0.76562-1.623047-0.197-1.117999-0.32041-3.537785-0.31641-7.050781 0-2.784997 0.208-5.527472 0.625-8.230469 0.047-0.342 0.07808-0.592 0.08008-0.875 0.017-0.542999-0.21039-1.289094-0.77539-1.746094-0.555-0.455999-1.16183-0.548781-1.67383-0.550781-0.931 0-2.35839-0.01025-4.27539-0.03125-1.925-0.021-3.35664-0.03125-4.30664-0.03125zm255.66211 1.03711c3.55599 0.016999 6.40616 1.237127 8.91015 3.828124 2.489 2.620998 3.67841 5.575879 3.69141 9.171876 3e-3 0.873999-0.15569 1.435453-0.30469 1.689453-0.163 0.246999-0.20986 0.28514-0.50586 0.36914 0.029 0-2.22164 0.247485-6.18164 0.646485-2.392 0.264999-5.98096 0.579266-10.75195 0.947265l-1.71094 0.13086 0.35938 1.679687c0.37 1.813998 1.67678 3.26422 3.42578 4.074219 1.404 0.678999 2.99336 1.003906 4.69336 1.003906 2.08899 0 4.17345-0.570485 6.18945-1.646484l0.04687-0.025391 0.04883-0.03125c0.419-0.264 0.83977-0.529922 1.25977-0.794922 0.297 0.445 0.69237 1.094579 1.10937 1.892578 0.492 0.915999 0.85318 1.654595 1.07618 2.183594 0.068 0.161 0.12501 0.300969 0.16601 0.417969-2.12 2.245998-5.49847 3.488141-10.48047 3.494141-4.58299-0.011-8.05033-1.299753-10.73633-3.84375-2.74799-2.603998-4.11586-5.956708-4.13086-10.470704 9e-3 -4.415995 1.2528-7.828924 3.7168-10.544922 2.549-2.783997 5.77538-4.152875 10.10938-4.171874zm-334.7461 0.003906c3.557 0.017 6.40616 1.238127 8.91016 3.828125 2.489 2.620997 3.67841 5.573925 3.69141 9.169922 4e-3 0.872999-0.15469 1.439453-0.30469 1.689453-0.163 0.249-0.20791 0.28514-0.50391 0.36914 0.026 0-2.22264 0.245485-6.18164 0.646485-2.393 0.264999-5.98096 0.579266-10.75195 0.947265l-1.71094 0.13086 0.35938 1.679687c0.37 1.812998 1.67578 3.262267 3.42578 4.072266 1.406 0.679999 2.9914 1.005859 4.6914 1.005859 2.091 0 4.17636-0.568438 6.19336-1.648437l0.04688-0.025391 0.04883-0.03125c0.419-0.264 0.83781-0.527969 1.25781-0.792969 0.297 0.445 0.69237 1.094579 1.10937 1.892579 0.491 0.913999 0.85413 1.651688 1.07813 2.179687 0.068 0.161 0.12206 0.302922 0.16406 0.419922-2.12 2.244998-5.49447 3.488094-10.48047 3.496094-4.58299-0.012-8.04933-1.302659-10.73633-3.847657-2.74899-2.602997-4.1149-5.952801-4.1289-10.466796 0.01-4.417996 1.24989-7.832878 3.71289-10.546876 2.551-2.784997 5.77538-4.149968 10.10937-4.167968zm151.26563 0c3.55599 0.017 6.4052 1.238127 8.9082 3.828125 2.489 2.621997 3.67841 5.573925 3.69141 9.169922 4e-3 0.874999-0.15569 1.439406-0.30469 1.691406-0.163 0.248-0.20791 0.282187-0.50391 0.367187 0.029 0-2.22364 0.245485-6.18164 0.646485-2.39399 0.264999-5.98095 0.581219-10.75195 0.949219l-1.71289 0.130859 0.36133 1.677734c0.368 1.814998 1.67583 3.263267 3.42383 4.072266 1.40499 0.679999 2.99531 1.007859 4.69531 1.005859 2.089 2e-3 4.17245-0.568485 6.18945-1.646484l0.04688-0.025391 0.04882-0.03125c0.42-0.264999 0.84077-0.529922 1.25977-0.794922 0.297 0.445 0.69238 1.092626 1.10937 1.890625 0.492 0.916999 0.85322 1.653595 1.07422 2.183594 0.07 0.16 0.12597 0.300016 0.16797 0.416016-2.119 2.246998-5.49447 3.492047-10.48047 3.498047-4.58099-0.013-8.05033-1.303706-10.73632-3.845703-2.749-2.602998-4.11386-5.956755-4.13086-10.46875 0.011-4.417996 1.2538-7.831878 3.71679-10.546876 2.549-2.783997 5.77538-4.152968 10.10938-4.167968zm91.24805 0.703125c2.86499 0.023 4.84631 0.930127 6.44531 2.828125 0.184 0.182 0.43709 0.630265 1.37109 0.697265 0.772-0.025 1.14441-0.454109 1.31641-0.662109 0.48-0.674999 0.54448-1.14547 0.77148-1.980469 0.023-0.104 0.04827-0.199203 0.07227-0.283203 0.729 0.082 1.87494 0.267407 3.33594 0.566406 1.48999 0.301 2.66446 0.569016 3.48046 0.791016-0.631 3.688996-0.94531 7.575301-0.94531 11.654297 0 1.629998 0.0943 3.984425 0.2793 7.107422 0.177 2.983997 0.26744 5.245142 0.27344 6.74414-2.199 0.152-4.70977 0.235047-7.50977 0.248047-0.022-0.12-0.04159-0.262734-0.05859-0.427734-0.073-0.629999-0.14977-1.115876-0.25977-1.546875-0.061-0.217-0.11872-0.417688-0.26172-0.679688-0.138-0.214999-0.3933-0.742625-1.2793-0.890625l-0.43945-0.048828-0.39648 0.199219c-0.439 0.23-0.70616 0.482782-1.03516 0.800781-2.109 2.112998-4.13892 3.019344-6.29492 3.027344-3.585-0.023-6.3511-1.337643-8.74609-4.181641-2.25-2.689997-3.35233-5.797941-3.36133-9.585937 6e-3 -4.459996 1.18112-7.8343 3.45312-10.404297 2.367-2.637997 5.48507-3.952656 9.78907-3.972656zm44.6875 0c1.65799 2e-3 3.05315 0.361547 4.28515 1.060547 1.372 0.793999 2.12353 1.741407 2.51953 3.066406l0.84375 2.921875 1.80469-2.447266c0.932-1.262998 2.23075-2.354485 3.96875-3.271484 1.73-0.909999 3.33161-1.330078 4.84961-1.330078 2.474 2e-3 4.31717 0.563126 5.70117 1.578125 1.536 1.163999 2.24049 2.576033 2.27149 4.832031 0 1.054999-0.03175 2.675705-0.09375 4.845703-0.061 2.181998-0.0918 3.819642-0.0918 4.931641 0 1.310998 0.0308 3.252752 0.0918 5.84375 0.058 2.409997 0.08975 4.252626 0.09375 5.515625-0.685 0.044-2.05704 0.076218-3.95704 0.074218-2.00799 5e-3 -3.45407-0.052281-4.08007-0.113281-1e-3 -0.022 0-0.045312 0-0.070312 0-0.907999 0.02984-2.306018 0.08984-4.166016 0.063-1.878998 0.0918-3.294626 0.0918-4.265625 0-3.588996-0.03905-6.138939-0.12305-7.710937-0.071-1.418999-0.45519-2.720501-1.36719-3.6875-0.914-0.970999-2.23975-1.39086-3.59375-1.38086-1.397-2e-3 -2.70894 0.604361-3.83594 1.56836-1.15699 0.966999-1.9566 2.23797-2.0996 3.667968-0.095 1.035999-0.12886 3.50127-0.13086 7.697266 0 0.990999 0.02979 2.455018 0.09179 4.416016 0.051 1.635998 0.07989 2.928282 0.08789 3.863281l-8.03125-0.001953c5e-3 -0.927999 0.03575-2.279252 0.09375-4.03125 0.06-1.929998 0.08985-3.389392 0.08985-4.400391 0-0.781999-0.0225-1.934611-0.0625-3.474609-0.04-1.522999-0.06055-2.669876-0.06055-3.421875-7e-3 -1.638999-0.29358-3.064267-1.14258-4.197266-0.849-1.147999-2.27326-1.7125-3.69726-1.6875-1.296 4e-3 -2.5441 0.495876-3.7461 1.296875-1.315 0.859999-2.36581 2.04672-2.38281 3.636719 0 1.866998 0.01025 4.644707 0.03125 8.345703 0.018 3.513996 0.0283 6.189533 0.0293 8.019531-0.862 0.063-2.20733 0.097656-3.98633 0.097656-1.142 0-2.44153-0.048343-3.89453-0.152343 1e-3 -1.620999 0.01125-3.955097 0.03125-6.996094 0.018-3.260997 0.02929-5.712517 0.02929-7.353516 1e-5 -3.379996-0.24451-7.152223-0.72851-11.324218 0.371-0.07 0.90578-0.149985 1.55078-0.208985 1.542-0.144 2.41988-0.230203 2.79688-0.283203l0.04687-0.007812 0.03125-0.00586c0.347-0.074 1.08839-0.273922 2.52539-0.669922 0.423-0.122 0.79819-0.208531 1.11719-0.269531 0.012 0.161 0.02148 0.344828 0.02148 0.548828 0.011 0.735 0.03299 1.297094 0.08399 1.746094 0.03 0.232 0.05476 0.422641 0.13476 0.681641 0.046 0.131999 0.09377 0.28739 0.25977 0.52539 0.139 0.211 0.57558 0.650297 1.26758 0.654297h0.28711l0.26757-0.107422c0.397-0.16 0.72546-0.373859 1.06446-0.630859 1.8-1.405999 3.20947-2.345969 4.10547-2.792969 1.34799-0.643999 2.81622-0.972609 4.44922-0.974609zm-248.73243 0.125c2.365 2e-3 4.18782 0.546454 5.63282 1.564453 1.55499 1.167999 2.24439 2.529158 2.27539 4.660156v9.777344c2e-3 1.333999 0.0112 3.323659 0.0332 5.972656 0.016 2.329998 0.02534 4.149126 0.02734 5.453125-0.679 0.041-2.01008 0.073313-3.83008 0.070313-2.07499 6e-3 -3.56621-0.054188-4.19921-0.117188 3e-3 -0.931999 0.03184-2.314861 0.08984-4.130859 0.061-1.950998 0.0918-3.420689 0.0918-4.429688 0-0.781999-0.0215-1.918736-0.0625-3.427734-0.041-1.494999-0.0625-2.615657-0.0625-3.347656 0-1.600999-0.33635-3.037814-1.27735-4.132813-0.945-1.099999-2.38714-1.581406-3.86914-1.566406-1.242 0.011-2.40637 0.50811-3.60937 1.287109-1.307 0.897999-2.35549 1.969642-2.39649 3.556641v16.228516c-0.709 0.046999-2.02703 0.080078-3.83203 0.080078-1.992 3e-3 -3.42533-0.052047-4.11133-0.123047 2e-3 -1.578999 0.01225-3.836581 0.03125-6.767578 0.021-3.208997 0.03125-5.622143 0.03125-7.244141-2e-3 -4.824995-0.34593-8.718003-1.08593-11.75 1.145-0.14 2.52539-0.324641 4.15039-0.556641l0.03711-0.007812 0.03711-0.005859c1.61899-0.314 2.88329-0.551032 3.77929-0.707032 0.141-0.025 0.27058-0.045406 0.39258-0.066406 0.021 0.166 0.04064 0.352688 0.05664 0.554688 0.066 0.731999 0.14072 1.296203 0.26172 1.783203 0.066 0.248999 0.12792 0.477437 0.29492 0.773437 0.086 0.15 0.27128 0.433672 0.61328 0.638672 0.015 9e-3 0.02797 0.017391 0.04297 0.025391 0.074 0.042 0.15514 0.079328 0.24414 0.111328 0.267 0.105 0.43464 0.096562 0.55664 0.101562v-1.513672h0.02149l0.39258 0.292969 0.61132 0.751953c0.112-0.107 1.24535-0.829235 3.02735-1.865234 2.284-1.343999 4.18151-1.931828 5.60351-1.923828zm83.55469 0.230469c0.015 0.114999 0.02811 0.241906 0.03711 0.378906 0.058 0.697999 0.12663 1.243188 0.26563 1.742187 0.07799 0.254 0.15918 0.499594 0.36718 0.808594 0.09 0.142 0.26196 0.334281 0.50196 0.488281 0.07 0.052 0.13912 0.091282 0.20312 0.113282 0.091 0.042999 0.19092 0.078468 0.29492 0.105468 0.109 0.03 0.19463 0.041875 0.26563 0.046875 0.048 5e-3 0.09744 0.00586 0.14843 0.00586v-1.525391h0.04883l0.60547 0.583984 0.34961 0.449219c0.114-0.096 0.95052-0.608829 2.22852-1.298828 1.795-0.981999 3.43017-1.425734 4.95117-1.427734 0.068-1e-3 0.13145-4.7e-5 0.18945 0.001953-0.028 0.432999-0.07748 0.963078-0.14648 1.580078-0.126 1.191999-0.20066 2.044094-0.22266 2.621094-3e-3 0.669999 0.00635 1.464126 0.02735 2.453125 0.03299 0.937999 0.05159 1.628734 0.05859 2.052734-0.331-6e-3 -0.80911-0.028313-1.41211-0.070313-0.766-0.052999-1.33749-0.080078-1.77148-0.080078-1.844 0.025-3.27927 0.209111-4.44727 1.16211-1.179 1.089999-1.41545 2.578564-1.43945 4.351562 2e-3 0.895999 0.02078 2.234346 0.05078 4.027344 0.029 1.782998 0.04492 3.11361 0.04492 3.974609 0 0.658 0.041 1.560861 0.125 2.75586 0.052 0.759999 0.08647 1.390953 0.10547 1.876953-0.906 0.058-2.25691 0.08789-4.00391 0.08789-1.722 1e-6 -3.11992-0.050578-4.16992-0.142578 1e-3 -1.616998 0.0103-3.911815 0.0293-6.882812 0.02-3.262997 0.02929-5.708611 0.02929-7.34961 0-4.554995-0.38254-8.400268-1.18554-11.572265 1.04-0.132 2.34478-0.317641 3.92578-0.556641l0.02929-0.003906 0.03516-0.005859c1.614-0.317 2.83511-0.553938 3.66211-0.710938 0.076-0.015 0.14975-0.028016 0.21875-0.041015zm-169.19922 0.902343c1.005 7e-3 2.42133 0.037797 4.23633 0.091797 1.627 0.048 2.93736 0.076891 3.94336 0.087891-0.017 0.491999-0.05142 1.143501-0.10742 1.9375-0.084 1.173999-0.12696 2.068563-0.12696 2.726562 0 2.155998 0.06046 3.927658 0.18946 5.347657 0.158 1.273998 0.82556 2.522923 1.97656 4.544921 0.605 1.045999 1.1363 1.859423 1.6543 2.482422 0.553 0.576 0.94854 1.190922 2.18554 1.294922 1.245-0.109 1.61335-0.726063 2.15235-1.289062 0.503-0.613 1.01551-1.411314 1.60351-2.445313 1.1-1.938998 1.74469-3.152376 1.92969-4.359375 0.174-1.541998 0.25781-3.348127 0.25781-5.453125 0-0.689999-0.06836-1.610985-0.19336-2.833984-0.082-0.799999-0.1342-1.456407-0.1582-1.941406 0.366 0.004999 0.79511 0.013437 1.28711 0.023437 0.976 0.021 1.71461 0.027344 2.22461 0.027344 0.569 0 1.3307-0.042953 2.3457-0.126953 0.735-0.059 1.32605-0.094375 1.74805-0.109375 0.22 0.984999 0.39181 3.228347 0.38281 6.402343 0 1.730999-0.02803 3.099939-0.08203 4.085938-0.041 0.964999-0.16197 1.601516-0.16797 1.603516-0.366 1.168998-1.74255 3.636831-4.06055 7.048828-2.01699 2.945997-3.73986 5.236751-5.13085 6.84375-0.219 0.141999-1.60274 0.471546-3.67774 0.435546-2.273 7e-3 -3.80936-0.103031-4.19336-0.207031-0.171-0.046-0.23231-0.085828-0.32031-0.173828-1.123-1.212999-2.85852-3.497816-5.10352-6.757812-2.40499-3.475997-3.83478-5.926876-4.17578-6.921875-0.413-1.115999-0.68373-3.109987-0.67773-5.833985 0-0.784999 0.0083-1.981986 0.02929-3.583984 0.015-1.199999 0.0253-2.181267 0.0293-2.947266zm126.49805 0c0.927 1e-3 2.27511 0.010297 4.03711 0.029297 1.534 0.017 2.75492 0.02825 3.66992 0.03125-0.413 2.752997-0.61914 5.559347-0.61914 8.402344 4e-3 3.596996 0.10437 6.03783 0.35937 7.548828 0.215 1.347999 0.78597 2.578876 1.79297 3.421875 1.005 0.846999 2.31318 1.199312 3.70118 1.195313 1.35499-7e-3 2.62403-0.587001 3.83203-1.5 1.229-0.926 2.15442-2.119424 2.23242-3.607422 0.044-0.879999 0.0605-5.928994 0.0625-15.458985v-0.001953c0.986 1e-3 2.41167 0.01225 4.26367 0.03125 1.783 0.019 3.17097 0.027297 4.16797 0.029297-7e-3 1.466999-0.07894 3.620643-0.21094 6.431641-0.144 3.034997-0.2168 5.317001-0.2168 6.875 0 1.502998 0.0513 3.719878 0.1543 6.671875 0.092 2.709997 0.14339 4.783173 0.15039 6.201171-0.694 0.103-2.17731 0.192547-4.19531 0.185547-1.779 2e-3 -3.12603-0.042234-3.95703-0.115234-0.044-0.431-0.08786-0.861969-0.13086-1.292969-0.06-0.533999-0.12124-0.94275-0.24024-1.34375-0.066-0.204-0.13336-0.408594-0.31836-0.683594-0.06899-0.106999-0.19495-0.258484-0.37695-0.396484-0.086-0.074-0.17381-0.132109-0.25781-0.162109-3e-3 -1e-3 -0.00581-9.53e-4 -0.00781-0.001953-0.037-0.019-0.07619-0.035735-0.11719-0.052735-0.234-0.097-0.39177-0.111234-0.50977-0.115234-0.03-2e-3 -0.05979-0.003906-0.09179-0.003906v1.523437h-0.08203l-0.58008-0.558594-0.38672-0.439453c-2e-3 2e-3 -0.00944 0.007485-0.02344 0.021485-0.171 0.139999-1.22006 0.825094-2.78906 1.746093-2.198 1.303999-4.08863 1.879-5.64063 1.875-2.49299-2e-3 -4.29054-0.555438-5.56054-1.523437-1.266-0.969999-2.13771-2.412518-2.59571-4.603516-0.416-2.086998-0.64653-5.311363-0.64453-9.568359-2e-3 -4.575996 0.37908-8.145909 1.08008-10.628906 0.017-0.066 0.03383-0.12011 0.04883-0.16211zm-80.51563 2.884766c-1.71899-0.024-3.335 0.817033-4.375 2.207031-0.984 1.254999-1.48646 2.807408-1.48046 4.441406-7e-3 0.514 0.14982 1.197173 0.67382 1.701172 0.514 0.492 1.15707 0.625953 1.66407 0.626953h0.02343c1.659-2e-3 4.03963-0.24575 7.26563-0.71875 0.427-0.07 0.78826-0.142937 1.19726-0.335937 0.354-0.148 1.07866-0.667626 1.09766-1.640625 0.013-1.625998-0.62391-3.173236-1.75391-4.365235-1.121-1.222998-2.6765-1.932015-4.3125-1.916015zm151.26172 0c-1.718-0.024-3.334 0.817033-4.375 2.207031-0.983 1.254999-1.48451 2.806408-1.47851 4.441406-6e-3 0.515 0.15278 1.198173 0.67578 1.701172 0.513 0.493 1.15811 0.627953 1.66211 0.626953h0.02148c1.658-2e-3 4.04154-0.246703 7.26953-0.720703 0.423-0.07 0.78336-0.141984 1.19336-0.333984 0.354-0.149 1.08066-0.669579 1.09766-1.642578 0.014-1.623999-0.62191-3.172283-1.75391-4.363282-1.121-1.222998-2.6765-1.933015-4.3125-1.916015zm183.48047 0.001953c-1.718-0.027-3.33205 0.81508-4.37305 2.205078-0.98399 1.255999-1.48751 2.808408-1.47851 4.441406-9e-3 0.516 0.14987 1.200173 0.67187 1.701172 0.517 0.497 1.16688 0.627907 1.67188 0.628906h0.01367c1.659-0.002999 4.04154-0.248656 7.26953-0.722656 0.424-0.069 0.78431-0.141984 1.19531-0.333984 0.353-0.148 1.07966-0.667626 1.09766-1.640625 0.013-1.624998-0.62191-3.174236-1.75391-4.365235-1.12099-1.221998-2.67745-1.931062-4.31445-1.914062zm-442.865233 0.294922c0.189 0.572999 0.391469 1.206485 0.605469 1.896484 0.657999 2.084998 1.074047 3.701298 1.248046 4.529297-0.198999 0.015-0.439078 0.024484-0.705078 0.021485-1.434998 0.001999-2.466297-0.021594-3.029296-0.058594-0.079-2e-3 -0.15361-0.005766-0.22461-0.009766 0.247-0.889999 0.706329-2.357611 1.361328-4.224609 0.268-0.790999 0.516141-1.510298 0.744141-2.154297zm39.830083 1.601562c-2.034003-0.022-3.922116 0.818955-5.162114 2.376954-1.216999 1.479998-1.834172 3.332408-1.826172 5.316406-0.01 1.952998 0.625001 3.775501 1.875 5.1875 1.218999 1.497998 3.057158 2.349609 5.035156 2.349609h0.07813c2.01199 0.02 3.88665-0.820986 5.22265-2.333984 1.336-1.467999 2.05102-3.337221 2.04102-5.324219 0.011-1.967998-0.72894-3.816626-2.08594-5.265625-1.348-1.485999-3.19674-2.323641-5.17773-2.306641zm313.56445 0.246094c-2.07-0.016-3.9798 0.712486-5.3418 2.146484-1.371 1.402999-2.05792 3.302331-2.04492 5.361329-0.012 2.000998 0.74067 3.875735 2.13867 5.302734 1.379 1.453999 3.24905 2.251328 5.24805 2.236328 0.02 0 0.03955 1e-3 0.06055 0 2.03399 0 3.91443-0.738251 5.27343-2.15625 1.388-1.409998 2.09308-3.316814 2.08008-5.382812 0.012-2.046998-0.68659-3.941658-2.05859-5.347657-1.371-1.439998-3.28347-2.177156-5.35547-2.160156zm-245.27149 0.855469c0.853 0.016 1.4431 0.267844 2.1211 0.964844 0.418 0.458999 0.6764 0.894859 0.8164 1.380859-2.47699 0.359-4.41314 0.562188-5.74414 0.617188 0.101-0.736 0.36374-1.343923 0.80274-1.919922 0.637-0.778 1.1469-1.017969 2.0039-1.042969zm151.26172 0c0.854 0.016 1.447 0.267844 2.125 0.964844 0.418 0.456999 0.67741 0.892906 0.81641 1.378906-2.477 0.359-4.4161 0.563187-5.74609 0.617187 0.10099-0.734999 0.36473-1.341016 0.80273-1.916015 0.637-0.777999 1.14595-1.017922 2.00195-1.044922zm183.48047 0c0.854 0.017 1.44605 0.268844 2.12305 0.964844 0.418 0.458999 0.67936 0.895859 0.81836 1.380859-2.477 0.359-4.4151 0.562188-5.7461 0.617188 0.101-0.736 0.36474-1.342923 0.80274-1.919922 0.636-0.777 1.14495-1.016969 2.00195-1.042969zm-403.03515 1.900391c1.20899 0.015999 2.07656 0.39875 2.97656 1.34375 0.891 0.980999 1.27511 1.962563 1.28711 3.226562-0.013 1.318999-0.40149 2.33436-1.27149 3.318359-0.872 0.936999-1.73419 1.320797-2.99218 1.341797-1.261004-0.025-2.04899-0.394829-2.833989-1.298828-0.777-0.904999-1.142344-1.884236-1.152344-3.240234 8e-3 -1.405999 0.381438-2.465923 1.148437-3.419922 0.74-0.871999 1.519892-1.249485 2.837896-1.271484zm313.56445 0.242187c1.44 0.017 2.37926 0.415141 3.19726 1.244141 0.812 0.859999 1.2038 1.838626 1.2168 3.265625-0.013 1.448998-0.41052 2.433016-1.22851 3.291015-0.835 0.836999-1.77055 1.231094-3.18555 1.246094-1.273-0.016-2.18185-0.399407-3.08985-1.316406-0.89199-0.941999-1.28192-1.912705-1.29492-3.220703 0.013-1.456999 0.40613-2.437251 1.20313-3.28125 0.807-0.814 1.73464-1.209516 3.18164-1.228516zm-236.53711 8.533203c-0.396 0.25-0.7915 0.501953-1.1875 0.751953-1.641 0.864999-3.19952 1.263625-4.72852 1.265625-1.326-2e-3 -2.43458-0.248938-3.39258-0.710937-0.25299-0.127-0.4702-0.25186-0.6582-0.38086 3.573-0.285999 6.35352-0.538765 8.35352-0.759765 0.58-0.06 1.11628-0.115016 1.61328-0.166016zm151.26758 0c-0.399 0.252-0.80022 0.50386-1.19922 0.75586-1.639 0.860999-3.19175 1.259765-4.71875 1.259765-1.327 0-2.43653-0.244985-3.39453-0.708984-0.253-0.126-0.47121-0.25186-0.65821-0.38086 3.573-0.286999 6.35447-0.538765 8.35547-0.759765 0.58-0.06 1.11824-0.115016 1.61524-0.166016zm183.47851 0c-0.39 0.245-0.77701 0.491282-1.16601 0.738281-1.651 0.873-3.213 1.277344-4.75 1.277344-1.327 0-2.43654-0.247985-3.39453-0.708984-0.253-0.127-0.47216-0.252813-0.66016-0.382813 3.573-0.285999 6.35447-0.537812 8.35547-0.757812 0.581-0.06 1.11823-0.115016 1.61523-0.166016zm-296.11719 19.326172c-0.19999 0-0.40425 0.013156-0.65624 0.035156l-0.06836 0.007813-0.01758 0.003906c-4.297 0.639999-8.00479 2.045955-11.05078 4.251953-3.744 2.641997-5.82583 6.311207-5.79883 10.533203-6e-3 2.849997 0.79528 5.524862 2.36328 7.88086 0.228 0.326999 0.56519 0.722391 1.24219 1.52539 0.66 0.777999 1.58983 1.862908 2.79882 3.253907 1.264 1.480998 1.7298 2.678891 1.7168 3.46289-0.052 1.538999-0.59437 2.431907-2.35937 3.378906-0.685 0.346-2.63688 0.939704-5.54688 1.595704-0.28 0.057999-0.6602 0.179531-1.0332 0.519531-0.381 0.331001-0.61075 0.922051-0.59375 1.373051 0.042 0.87699 0.32019 1.43901 0.74219 2.41601 0.433 0.935 1.05409 2.11722 1.87109 3.57422 0.824 1.465 1.50394 2.574 2.08594 3.375 0.293 0.404 0.55942 0.73258 0.85742 1.01758 0.317 0.253 0.59919 0.61969 1.49219 0.67969 0.205 0 0.38217-0.01902 0.57617-0.04102l0.03125-0.00391 0.0332-0.0039c4.623-0.752 8.63793-2.52999 11.91992-5.33399 3.762-3.16299 5.78663-7.230548 5.76563-11.810544 2e-3 -2.558997-0.84107-5.093393-2.41406-7.52539l-0.02344-0.039063-0.03906-0.048828c-0.165-0.22-1.49462-1.899644-4.09961-5.181641-1.395-1.698998-1.90982-3.022063-1.88282-3.664062 0.042-0.889999 0.27101-1.330079 1.25-1.955078 0.875-0.532 1.86143-0.804641 3.10743-0.806641 0.056-4e-3 0.3082 0.016266 0.6582 0.072266 0.422 0.064 0.71764 0.107375 1.05664 0.109375 0.401 5e-3 0.96931-0.096063 1.44531-0.539063 0.476-0.445999 0.61547-1.062469 0.60547-1.480469-8e-3 -0.460999-0.134-0.732562-0.25-0.976562-1.927-3.871996-3.15672-6.568783-3.63672-7.925781-0.151-0.393-0.33283-0.759376-0.67383-1.109375-0.329-0.348-0.91161-0.635094-1.47461-0.621094zm101.88282 0.029297v0.789062c-0.054 0.024-0.10249 0.051125-0.14649 0.078125l-0.1875-0.798828c-6e-3 2e-3 -0.01229 0.002813-0.02929 0.007813-0.276 0.054-2.16557 0.318219-5.22657 0.699219-2.25899 0.178999-4.03083 0.301328-5.29882 0.361328l-0.15235 0.005859-0.14258 0.037109c-0.595 0.128-1.14451 0.630329-1.35351 1.111328-0.227 0.485-0.26944 0.92247-0.27344 1.355469 0 1.579999 0.04105 3.923597 0.12305 7.058594 0.049 1.858998 0.08451 3.442095 0.10351 4.746094-1.816-1.261999-4.07027-1.886094-6.57226-1.871094-4.717-0.024-8.73632 1.726769-11.57031 5.134766-2.688 3.171996-4.006 7.246801-4 11.966797-8e-3 4.667995 1.34131 8.720632 4.07031 11.890622 2.83699 3.334 6.79216 5.0576 11.41015 5.0586h0.08985c2.83899 0.012 5.42852-0.75001 7.60351-2.25 0 0.011 9.6e-4 0.02025 0.00196 0.03125l0.01172 0.23437 0.08398 0.2207c0.296 0.777 0.97553 1.19515 1.51953 1.36915 0.565 0.18599 1.1332 0.23623 1.7832 0.24023 4.727-6e-3 7.32813-0.03802 8.32813-0.16602 0.316-0.045 0.71609-0.14142 1.12109-0.48242 0.414-0.335 0.65381-0.95539 0.63281-1.40039-0.00399-0.261-0.02831-0.47848-0.07031-0.89648-0.459-3.471-0.69536-9.458246-0.69336-17.865238-2e-3 -5.090994 0.07724-9.628425 0.24024-13.607421 0.124-3.522997 0.29758-6.400096 0.51758-8.621094 0.066-0.727999 0.11729-1.261516 0.15429-1.603516 0.019-0.169 0.03302-0.292609 0.04102-0.349609l-0.05664-0.007813-0.72461-0.160156c8e-3 -0.015 0.01734-0.029875 0.02734-0.046875h0.81055c0-0.071 1.4e-4 -0.126609-0.00586-0.224609-2e-3 -0.017-0.00581-0.033688-0.00781-0.054688-0.037-0.404999-0.1663-0.869063-0.5293-1.289062-0.432-0.502-1.07855-0.696172-1.56055-0.701172h-0.01758c-0.01899 0-0.03668-1e-3 -0.05468 0zm11.34375 2.087891c-1.921-0.01-3.71158 0.576235-5.14258 1.740234-1.578 1.241999-2.48298 3.094752-2.45899 5.09375-0.02699 2.034998 0.82835 3.925345 2.40235 5.152344 0.609 0.491999 1.2933 0.873484 2.0293 1.146484-0.933-0.09-1.66157-0.138672-2.22657-0.138672-0.453 4e-3 -0.97567 0.062266-1.51367 0.447266-0.556 0.384999-0.84045 1.143016-0.81445 1.666015 3e-3 0.265 0.03022 0.473938 0.07422 0.835938 0.436 3.328997 0.66211 7.900115 0.66211 13.662109 0 1.410999-0.0288 3.533425-0.0918 6.357424-0.062 2.837-0.09175 4.96453-0.09375 6.39453 2e-3 0.286 0.00653 0.51756 0.01953 0.72656 0.041 0.246-0.03292 0.3081 0.20508 0.8711 0.618 0.96599 1.30644 1.05431 1.89844 1.19531 0.948 0.159 2.49219 0.20198 4.99218 0.20898 2.474-6e-3 4.00822-0.05003 4.94922-0.20703 0.424-0.068 0.938-0.23992 1.375-0.66992 0.442-0.429 0.64191-1.07322 0.62891-1.57422 0-1.489-0.0298-3.70702-0.0918-6.66602-0.061-2.946992-0.0918-5.164715-0.0918-6.636714 1e-5 -5.207995 0.22302-9.773551 0.66602-13.685547 0.037-0.313999 0.06336-0.471 0.06836-0.75 0.018-0.483999-0.19266-1.184328-0.72266-1.611328-0.52-0.423999-1.07267-0.499953-1.51367-0.501953-0.461 0-1.03051 0.024219-1.72851 0.074219 0.754-0.274 1.43248-0.658735 2.02148-1.177735 1.399-1.231998 2.01891-3.082142 2.00391-5.11914h0.00195c0.023-1.976998-0.86492-3.812642-2.41992-5.056641-1.417-1.177999-3.19489-1.787343-5.08789-1.777343zm-113.78907 0.9375c0.526 1.396998 1.48916 3.512971 2.91016 6.417968-0.026-1e-3 -0.05308-0.001953-0.08008-0.001953-1.699-4e-3 -3.28648 0.398423-4.64648 1.232422-1.651 0.912999-2.75099 2.637299-2.70899 4.529297 0.027 1.849998 0.98307 3.589064 2.53907 5.539062 2.39499 3.018997 3.76476 4.749501 4.00976 5.0625 1.31 2.046998 1.90816 3.972424 1.91016 5.857422-0.021 3.713997-1.48894 6.760484-4.71094 9.521484-2.798 2.384-6.16561 3.9211-10.22461 4.62109-0.387-0.481-1.24794-1.72823-2.21094-3.49023-0.79499-1.415-1.38476-2.54733-1.75976-3.36133-0.06-0.13-0.11402-0.25128-0.16602-0.36328 2.466-0.588 4.12022-1.0777 5.19922-1.5957 2.496-1.183001 4.07935-3.436411 4.02735-6.066409-0.012-1.870998-0.93546-3.637017-2.43946-5.416015-1.215-1.397999-2.14106-2.477236-2.78906-3.240235-0.323-0.380999-0.57786-0.684297-0.75586-0.904297-0.091-0.11-0.16094-0.198718-0.21094-0.261718-0.047-0.061-0.05854-0.082032-0.06054-0.082032-1.25-1.893998-1.85924-3.917752-1.86524-6.21875 0.027-3.257996 1.39869-5.800611 4.55469-8.099609 2.543-1.841998 5.67752-3.077688 9.47851-3.679687zm101.47071 0.177734c-0.026 0.274-0.05589 0.594031-0.08789 0.957031-0.229 2.301998-0.40335 5.22816-0.52735 8.785156-0.163 4.022996-0.24214 8.599662-0.24414 13.722657 2e-3 8.112992 0.21221 13.985424 0.65821 17.732424-1.26 0.049-3.64962 0.08212-6.97461 0.07812-0.172 2e-3 -0.32132-0.00558-0.44532-0.01758-0.027-0.511-0.05407-1.0202-0.08007-1.5332l-0.00196-0.05469-0.00781-0.05664c-0.069-0.54-0.32656-0.97311-0.60156-1.28711l-0.76367-0.87695-1.03907 0.52149c-0.379 0.19699-0.60156 0.40443-0.85156 0.64843-1.933 1.878-4.22789 2.7936-7.21289 2.8086-3.967-0.021-6.88666-1.32363-9.22266-4.01563-2.21699-2.593-3.33865-5.813597-3.34765-9.933592 7e-3 -4.188996 1.11897-7.449112 3.29297-10.03711 2.31699-2.725997 5.24534-4.043453 9.27734-4.064453 2.781 0.02 4.65222 0.831595 6.07422 2.433594 0.18 0.205 0.34655 0.378734 0.56055 0.552734 0.228 0.15 0.45264 0.409219 1.18164 0.449219 0.411 0.013 0.89911-0.196704 1.16211-0.470703 0.722-0.856999 0.54832-1.29322 0.61132-1.824219 0-1.599998-0.04009-3.956847-0.12109-7.089844-0.075-2.836997-0.11409-5.021923-0.12109-6.544922 1.207-0.069 2.7059-0.176312 4.5039-0.320312l0.0293-0.001953 0.03711-0.003907c1.837-0.228999 3.21458-0.409109 4.14258-0.537109 0.041-6e-3 0.08014-0.013531 0.11914-0.019531zm-89.32422 1.304687c-0.85-2e-3 -1.41966 0.618469-1.59766 0.980469-0.536 1.085999-0.53226 2.123783-0.57226 3.925781-4e-3 0.052-0.00491 0.09586-0.00391 0.13086v0.017578c-1e-3 0.031 0.00186 0.079953 0.00586 0.126953-1e-3 2e-3 -3e-3 0.00925 0 0.03125 0.011 0.27 0.05314 1.541205 0.11914 3.658203 9e-3 0.397 0.01563 0.776954 0.01563 1.126953 0 0.649-0.01879 1.196954-0.05079 1.626953-0.65999 0.029-1.20318 0.092485-1.74218 0.271485-0.294 0.104-0.60778 0.241922-0.92578 0.544922-0.319 0.285999-0.59208 0.83661-0.58008 1.349609 0 0.486 0.02803 1.153829 0.08203 2.048828 0.05 0.863999 0.07227 1.501954 0.07227 1.876953 0.00199 0.25-0.02227 0.73172-0.07227 1.386719-0.052 0.692999-0.08003 1.214235-0.08203 1.615234-0.031 0.613 0.30883 1.440751 0.92383 1.84375 0.596 0.409 1.18518 0.477375 1.74218 0.484375 0.17-2e-3 0.30838-0.01325 0.48438-0.03125h0.3125c0.022 0 0.0425-1e-3 0.0625 0-3e-3 1.312999-0.05339 3.281003-0.15039 5.875-0.103 2.718998-0.1543 4.757576-0.1543 6.142576-0.025 2.565 0.91069 4.84749 2.80469 6.27149 1.876 1.424 4.42074 1.99595 7.55273 2.00195 4e-3 0 0.00972 0.00105 0.01172-0.00195 3.428 0 6.61857-0.78829 9.47656-2.36328 0.629-0.376 1.00433-0.54024 1.48633-1.11524 0.54-0.852 0.43838-1.31548 0.48438-2.02148-3e-3 -0.459 0.0697-1.3475 0.2207-2.5625 0.156-1.279 0.23828-2.24171 0.23828-2.97071 5e-3 -0.446996-0.10822-1.047012-0.57422-1.541012-0.467-0.493999-1.1104-0.641812-1.5664-0.632812-0.668 8e-3 -1.36019 0.152531-2.36719 0.394531-0.885 0.224-1.54403 0.314547-1.83203 0.310547-1.393-0.016-1.82147-0.352235-1.98047-0.615235-0.11-0.124-0.37256-1.163767-0.35156-2.759765 0-0.492-0.01025-1.221032-0.03125-2.207032v-1.99414h1.25976c0.372 0 1.05386 0.015922 2.00586 0.044922 0.968 0.033 1.65656 0.046875 2.10156 0.046875 0.468-6e-3 0.99393-0.060313 1.54493-0.445313 0.567-0.380999 0.87275-1.152266 0.84375-1.697265 0-0.511-0.01025-1.232783-0.03125-2.175782-0.021-0.933999-0.03125-1.645234-0.03125-2.115234 0-0.366 0.04453-1.043173 0.14453-1.951172 0.106-0.969999 0.16206-1.704344 0.16406-2.277344 0.032-0.506999-0.29422-1.260937-0.82422-1.585937-0.513-0.333-0.96456-0.368-1.35156-0.375-0.776 0-1.88075 0.032703-3.34375 0.095703-1.063 0.044-1.92522 0.070984-2.57422 0.083984 1e-3 -0.760999 0.06331-1.985236 0.19531-3.615234 0.133-1.677998 0.20313-2.935079 0.20313-3.830078 0.035-0.576-0.36161-1.313563-0.84961-1.601563-0.475-0.309999-0.89788-0.376062-1.29688-0.414062-2.04699-0.239-3.61276-0.433266-4.63476-0.572266l-0.02735-0.003906-0.04492-0.003906c-0.289-0.025-1.08675-0.168688-2.21875-0.429688-1.069-0.253999-1.92931-0.400297-2.69531-0.404297zm101.64062 0.576172c1.293 0.011 2.2756 0.36161 3.1836 1.09961 0.941 0.802999 1.30026 1.564282 1.32226 2.738281h0.00196c-0.015 1.516998-0.396 2.331954-1 2.876953-0.609 0.549999-1.71182 0.955078-3.50782 0.955078-1.46299-6e-3 -2.49722-0.365485-3.32421-1.021484-0.88-0.735-1.2523-1.497548-1.2793-2.810547 0.028-1.192999 0.3917-1.956767 1.3457-2.759766 0.9-0.714999 1.90782-1.070125 3.25781-1.078125zm-100.73242 2.519531c0.315 0.052 0.68652 0.128469 1.10352 0.230469 1.168 0.264 1.96636 0.422375 2.56836 0.484375v0.001953c0.962 0.132 2.34792 0.303579 4.16992 0.517579-0.029 0.699999-0.08683 1.602454-0.17383 2.689453-0.137 1.675998-0.20508 2.947376-0.20508 3.859375 8e-3 0.643999 0.06964 1.251672 0.43164 1.888672 0.339 0.657999 1.23899 1.157328 1.95899 1.111328 0.753 0 1.8475-0.02975 3.3125-0.09375 0.93-0.039 1.70803-0.064125 2.33203-0.078125-0.022 0.265999-0.05089 0.567391-0.08789 0.90039-0.105 0.967999-0.16016 1.704345-0.16016 2.277344 0 0.510999 0.01025 1.232735 0.03125 2.177734 0.01 0.476 0.01649 0.893001 0.02149 1.25-0.364-8e-3 -0.82772-0.020062-1.38672-0.039062-0.969-0.03-1.65856-0.044922-2.10156-0.044922h-2.29883c-0.448-0.014-0.965 0.211766-1.25 0.509766-0.784 0.926999-0.64699 1.528891-0.70899 2.33789-2e-3 0.491-2e-3 1.215736 0 2.177735 0.018 1.005999 0.0293 1.727781 0.0293 2.175781 0.022 1.837998 0.14502 3.170314 0.79102 4.320312 0.96399 1.528001 2.70401 2.069691 4.54101 2.054691 0.732-5e-3 1.53478-0.14844 2.55078-0.39844 0.275-0.07 0.52514-0.12688 0.74414-0.17188-0.036 0.453-0.09092 1.00454-0.16992 1.64454-0.157 1.27999-0.24019 2.22073-0.24219 2.92773 1e-3 0.102-0.00186 0.19163-0.00586 0.26562-0.106 0.067-0.24801 0.15315-0.41601 0.24415-2.407 1.32499-5.05707 1.98628-8.03906 1.98828-2.772 6e-3 -4.65643-0.54877-5.73243-1.38477-1.05999-0.834-1.6-1.93967-1.625-3.88867 0-1.314 0.0484-3.329394 0.15039-6.025391 0.103-2.718998 0.1543-4.75758 0.1543-6.142578 0.014-0.717-0.24811-1.587485-0.91211-2.146485-0.656-0.554999-1.43034-0.699172-2.15234-0.701172h-0.39649-0.0371c0.01099-0.200999 0.02687-0.429547 0.04687-0.685546 0.052-0.695 0.08008-1.215282 0.08008-1.613282 0-0.488999-0.02613-1.156782-0.07813-2.050781-0.023-0.387-0.04073-0.729438-0.05273-1.023437 0.139-0.012 0.30233-0.022391 0.48633-0.025391 0.493-0.02 0.96828-0.074985 1.48828-0.333985 0.517-0.231999 1.06358-0.872875 1.14258-1.546874 0.112-0.72 0.15429-1.606283 0.15429-2.738282 0-0.380999-0.00562-0.778078-0.01562-1.205078-0.039-1.272999-0.06689-2.219563-0.08789-2.851562-0.01-0.317-0.01939-0.552891-0.02539-0.712891-2e-3 -0.081-0.00586-0.140547-0.00586-0.185547-1e-3 -0.012-0.00196-0.022203-0.00196-0.033203 0-0.805999 0.03108-1.459063 0.08008-1.914063zm-1.61133 1.958985h1.52735v0.050781c-0.012 0.143-0.01692 0.541422-0.41992 0.982422-0.428 0.435-0.92713 0.462984-1.07813 0.458984-0.679-0.017-1.0302-0.393828-1.1582-0.548828-0.265-0.355999-0.24025-0.442297-0.28125-0.529297l1.41015-0.414062zm127.44727 4.013672c-5.04099-0.014-9.3021 1.6223-12.37109 4.904297-3.068 3.247996-4.59013 7.542364-4.57813 12.568359-0.013 4.814995 1.60379 8.968565 4.80078 12.101565 3.174 3.14799 7.34044 4.73761 12.14844 4.72461h0.06641c4.91399 0 9.11728-1.60679 12.23828-4.80078 3.14699-3.19 4.71808-7.437634 4.70508-12.390629 0.014-4.922995-1.56662-9.147269-4.72461-12.322266-3.143-3.194997-7.36116-4.797156-12.28516-4.785156zm-102.55664 1.503906c-0.647-0.015-1.37694 0.271907-1.83594 0.753906-0.47 0.475-0.71209 1.036282-0.87109 1.613281-0.81 2.896998-1.18155 6.681833-1.18555 11.423829 2e-3 4.365995 0.22113 7.720159 0.70313 10.160159 0.546 2.70399 1.7777 4.92644 3.7207 6.39843 1.938 1.475 4.45296 2.13868 7.37695 2.13868 2.288-4e-3 4.66597-0.81693 7.16797-2.29493 0.518-0.306 0.97314-0.57926 1.36914-0.82226 0.027 0.282 0.05699 0.5637 0.08399 0.8457l0.00976 0.0957 0.02149 0.10157c0.12 0.83 1.01093 1.79004 1.96093 1.87304 1.062 0.145 2.63049 0.19822 4.89649 0.19922 2.576-9e-3 4.20345-0.08042 5.31445-0.35742 0.513-0.137 1.04835-0.43973 1.40235-0.92773 0.35999-0.487 0.48637-1.0635 0.48437-1.5625 0-1.486-0.0523-3.69258-0.1543-6.64258-0.103-2.933998-0.15234-5.130362-0.15234-6.568361 0-1.465998 0.06989-3.723331 0.21289-6.736328 0.143-3.034997 0.21484-5.317001 0.21484-6.875-2e-3 -0.395999-0.01451-0.71575-0.10351-1.09375l-0.01563-0.0625-0.01953-0.054687c-0.186-0.602-0.71878-1.071047-1.17578-1.248047-0.467-0.194-0.88931-0.234328-1.32031-0.236328-0.991 0-2.49491-0.008297-4.50391-0.029297-2.018-0.02-3.52511-0.03125-4.53711-0.03125-0.391 2e-3 -0.74767 0.025859-1.13867 0.130859-0.371 0.107-0.88195 0.312298-1.25195 0.904297l0.0039 0.001953c-0.287 0.456-0.25831 0.692704-0.32031 0.970703-0.038 0.302-0.05078 0.617141-0.05078 0.994141 0 9.473991-0.02159 14.681688-0.05859 15.304687-5e-3 0.236-0.17188 0.702142-1.04688 1.369141-0.896 0.680999-1.58148 0.896625-2.02148 0.890625-0.922-4e-3 -1.43849-0.211235-1.77149-0.490234-0.331-0.28-0.61462-0.733048-0.76562-1.623047-0.197-1.114999-0.31841-3.539738-0.31641-7.052735 0-2.786997 0.20895-5.528471 0.62695-8.230468 0.048-0.341 0.07808-0.590047 0.08008-0.873047 0.017-0.544-0.21039-1.289047-0.77539-1.748047-0.557-0.453-1.16478-0.546828-1.67578-0.548828-0.931 0-2.35935-0.008297-4.27734-0.029297-1.923-0.018-3.35469-0.03125-4.30469-0.03125zm102.55664 1.5c4.313 0.013 7.57235 1.305581 10.15234 3.892578 2.561 2.608998 3.84047 5.893942 3.85547 10.210938-0.013 4.357995-1.2917 7.674069-3.8457 10.289059-2.566 2.592-5.83007 3.88539-10.16406 3.90039-4.183-0.012-7.41402-1.28342-10.04102-3.85742-2.605-2.589-3.8912-5.787799-3.9082-9.966795 0.012-4.453996 1.27367-7.854675 3.76367-10.513672 2.488-2.621997 5.7465-3.940078 10.1875-3.955078zm-102.32227 1.501953c0.928 2e-3 2.27512 0.01125 4.03711 0.03125 1.535 0.016 2.75688 0.024344 3.67188 0.027344-0.411 2.752997-0.61914 5.5603-0.61914 8.404297 4e-3 3.597996 0.10337 6.037876 0.35937 7.546875 0.215 1.348998 0.78497 2.579826 1.79297 3.423826 1.006 0.846 2.31518 1.19736 3.70117 1.19336 1.355-6e-3 2.62404-0.586 3.83204-1.5 1.23099-0.923998 2.15342-2.116469 2.23242-3.605468 0.045-0.876999 0.06245-5.92904 0.06445-15.457031v-0.003906c0.987 2e-3 2.40872 0.01225 4.26172 0.03125 1.785 0.018 3.17392 0.026297 4.16992 0.029297-7e-3 1.467998-0.07989 3.622643-0.21289 6.43164-0.143 3.036997-0.21484 5.316002-0.21484 6.875 0 1.503999 0.05134 3.720832 0.15234 6.673828 0.095 2.708 0.14534 4.78022 0.15234 6.19922-0.694 0.104-2.17622 0.1935-4.19922 0.1875-1.77999 2e-3 -3.12798-0.04419-3.95898-0.11719-0.044-0.431-0.08691-0.86197-0.12891-1.29297-0.06-0.533-0.12218-0.94275-0.24218-1.34375-0.067-0.205-0.13136-0.41059-0.31836-0.68359-0.068-0.107-0.19496-0.25849-0.37696-0.39648-0.089-0.078-0.17962-0.13702-0.26562-0.16602-0.014-7e-3 -0.02802-0.01158-0.04102-0.01758-0.028-0.014-0.05789-0.02706-0.08789-0.03906-0.221-0.088-0.37133-0.10338-0.48632-0.10938-0.034-2e-3 -0.06852-0.0039-0.10352-0.0039v1.52344h-0.08008l-0.56445-0.54297-0.40235-0.45703c-3e-3 0.00199-0.00748 0.00748-0.02148 0.02148-0.172 0.14-1.22297 0.82805-2.79297 1.74805-2.197 1.30299-4.08667 1.87895-5.63867 1.87695-2.491-4e-3 -4.28955-0.55739-5.56055-1.52539-1.266-0.971-2.13875-2.41352-2.59375-4.60352-0.418-2.085995-0.64848-5.311361-0.64648-9.568356-2e-3 -4.575996 0.37912-8.147862 1.07812-10.63086 0.018-0.065 0.03478-0.117156 0.05078-0.160156zm72.60352 0.029297c0.45 0.028 1.01559 0.078438 1.68359 0.148437 1.205 0.124 2.11755 0.189454 2.81055 0.189454 0.672 0 1.58392-0.054204 2.79492-0.158204 0.651-0.056999 1.21102-0.09514 1.66602-0.11914-0.421 3.957996-0.62886 8.455489-0.63086 13.521484h0.00195c0 1.511999 0.0308 3.739269 0.0918 6.697264 0.053 2.534 0.08284 4.52118 0.08984 5.95117-0.748 0.063-2.11608 0.10752-3.95508 0.10352-1.97699 5e-3 -3.41237-0.04628-4.10937-0.11328 2e-3 -1.391 0.03275-3.4649 0.09375-6.21289 0.06-2.837 0.08984-4.975785 0.08984-6.425784 0-5.589994-0.20495-10.102034-0.62695-13.582031zm-23.36914 4.757813c-2.034-0.025-3.92306 0.816048-5.16406 2.373046-1.215 1.480999-1.83027 3.330409-1.82227 5.316407-0.01 1.953998 0.62305 3.774548 1.87305 5.185547 1.217 1.499002 3.0503 2.351562 5.0293 2.351562h0.08398c2.012 0.02 3.8857-0.81899 5.2207-2.333984 1.339-1.469999 2.05397-3.338174 2.04297-5.326172h-0.00195c0.013-1.963998-0.72803-3.81172-2.08203-5.261719-1.354-1.488999-3.19969-2.324687-5.17969-2.304687zm53.15234 0.183593c-2.01199-0.025-3.88048 0.869314-5.14648 2.445313-1.204 1.440998-1.82155 3.250549-1.81055 5.185547-0.011 1.945998 0.60546 3.766845 1.81445 5.214843 1.244 1.550996 3.07855 2.443356 5.06055 2.443356h0.08203c1.994 0.023 3.84838-0.87426 5.10938-2.447262 1.191-1.455998 1.7912-3.270939 1.7832-5.210937 8e-3 -1.926998-0.62394-3.741705-1.83594-5.220703-1.228-1.555999-3.07264-2.434157-5.05664-2.410157zm-53.15234 2.814453c1.206 0.019 2.07656 0.395798 2.97656 1.341797 0.89 0.980999 1.27411 1.963564 1.28711 3.226563h-0.00195c-0.011 1.321998-0.40053 2.33636-1.26953 3.318359-0.871 0.939999-1.73619 1.32375-2.99219 1.34375-1.262-0.024-2.05103-0.392829-2.83203-1.298828-0.778-0.903999-1.1433-1.883283-1.1543-3.238281 8e-3 -1.408999 0.38244-2.468876 1.14844-3.421875 0.741-0.870999 1.51989-1.246485 2.83789-1.271485zm53.14844 0.185547c1.204 0.024 1.95456 0.380876 2.72656 1.296875 0.792 0.992999 1.15897 2.027986 1.16797 3.333985-8e-3 1.363998-0.37047 2.391501-1.10547 3.3125-0.816 0.953999-1.59711 1.322703-2.78711 1.345703-1.22-0.024-2.00817-0.395517-2.82617-1.353516-0.758-0.925999-1.12281-1.946689-1.13281-3.304687 0.01-1.337999 0.3729-2.349392 1.1289-3.275391 0.822-0.961999 1.61113-1.332469 2.82813-1.355469z" fill="#9fcfff"/>

</svg>
