<svg width="568.929px" height="116.145px" enable-background="new -1 -1 568.929 116.145" version="1.1" viewBox="-1 -1 568.929 116.145" xml:space="preserve" xmlns="http://www.w3.org/2000/svg">
<path d="m117.38477 11.013672c-0.0866 0.055972-1.91802 0.307657-5.49415 0.753906-2.28899 0.184-4.08848 0.305188-5.39648 0.367188-0.327 0.081-0.48828 0.419719-0.48828 1.011718 0 1.552999 0.04105 3.891582 0.12305 7.017578 0.082 3.125997 0.12304 5.476783 0.12304 7.050782 0 0.530999-0.09334 0.796875-0.27734 0.796875-0.123 0-0.32728-0.163235-0.61328-0.490235-1.717-1.960998-4.11813-2.943359-7.203127-2.943359-4.373996 0-7.846877 1.534612-10.421875 4.599609-2.430997 2.880997-3.646484 6.548911-3.646484 11.003907 0 4.392995 1.235987 8.031112 3.708984 10.912109 2.593998 3.023997 6.047379 4.535156 10.359375 4.535156 3.309997 0 6.070347-1.081049 8.277347-3.248047 0.183-0.183999 0.33598-0.30814 0.45898-0.36914 0.143 0.163 0.22314 0.327234 0.24414 0.490234 0.041 0.776999 0.08105 1.554079 0.12305 2.330078 0.163 0.43 0.79639 0.644531 1.90039 0.644531 4.67899 1e-6 7.38705-0.052296 8.12305-0.154296 0.306-0.042 0.45898-0.173438 0.45898-0.398438 0-0.101-0.01955-0.346375-0.06055-0.734375-0.47-3.575996-0.70507-9.584446-0.70507-18.023437 0-5.107995 0.08014-9.666879 0.24414-13.671875 0.123-3.534997 0.29648-6.436081 0.52148-8.705079 0.12274-1.345595 0.19959-2.059529 0.23047-2.146484v-0.001953c-0.03594-0.390823-0.2319-0.601114-0.58984-0.626953zm257.71093 0.232422c-6.39699 0-11.59656 2.207098-15.60156 6.621094-3.883 4.270995-5.82422 9.645053-5.82422 16.123046 0 6.333994 2.00282 11.576614 6.00781 15.72461 4.046 4.209996 9.22803 6.314453 15.54102 6.314453 3.924 0 8.02002-0.837674 12.29102-2.513672 0.429 0.163 1.56797 0.470922 3.41796 0.919922 1.849 0.448999 2.96647 0.673828 3.35547 0.673828 0.613 0 0.89842-0.276126 0.85742-0.828125l-0.02929-0.337891c-0.389-5.251994-0.58203-9.196034-0.58203-11.832031 0-0.980999 0.05597-2.461361 0.16797-4.443359s0.16992-3.464314 0.16992-4.445313c0-0.673999-0.25658-1.011718-0.76758-1.011718-0.654 0-1.63341 0.046671-2.94141 0.138671s-2.2884 0.136719-2.9414 0.136719c-0.613 0-1.51789-0.054969-2.71289-0.167969-1.196-0.111-2.0906-0.167968-2.6836-0.167968-0.224 0-0.38723 0.0215-0.49023 0.0625-0.265 0.081-0.39844 0.317078-0.39844 0.705078 0 1.306998 0.13244 3.023439 0.39844 5.148437 0.307 2.757997 0.49073 4.474438 0.55273 5.148438-2.57399 1.041999-4.90428 1.5625-6.98828 1.5625-3.29 0-5.83481-1.000909-7.63281-3.003906-1.737-1.940999-2.60547-4.577207-2.60547-7.908204 0-3.146996 0.83767-5.772955 2.51367-7.876953 1.798-2.287997 4.23188-3.43164 7.29688-3.43164 1.87799 0 3.59444 0.41786 5.14843 1.255859 1.042 0.551999 2.06346 1.329079 3.06446 2.330078 0.817 0.838999 1.28815 1.25586 1.41015 1.25586 0.531 0 1.71007-1.137018 3.53907-3.416016 1.82899-2.277998 2.74218-3.744438 2.74218-4.398438 0-0.203999-0.17253-0.550016-0.51953-1.041015-1.696-2.369998-4.02628-4.20958-6.98828-5.517578-2.74-1.184999-5.66258-1.779297-8.76758-1.779297zm-319.634762 0.277344c-0.327 0-0.614376 0.388063-0.859376 1.164062-0.428999 1.348999-3.146348 8.797717-8.152343 22.345703-4.617996 12.525988-6.927735 19.054938-6.927735 19.585938 0 0.592999 1.563457 0.888671 4.689454 0.888671 3.964996 1e-6 6.293281-0.08114 6.988281-0.24414 0.551999-0.143 1.022156-1.063767 1.410156-2.759766 0.429-1.858998 0.818016-2.952297 1.166016-3.279297 0.224999-0.182999 2.072878-0.27539 5.546875-0.27539 5.148994 0 7.887844 0.069891 8.214843 0.21289 0.389 0.204 0.930001 1.778706 1.625 4.720703 0.184 0.776 0.62336 1.235907 1.31836 1.378907 0.837999 0.163 2.716675 0.246093 5.638672 0.246093 3.187996 1e-6 5.088172-0.083093 5.701171-0.246093 0.511-0.142 0.767579-0.397626 0.767579-0.765625 0-0.552-2.430927-7.152794-7.294922-19.800782-4.842995-12.566987-7.766579-19.922361-8.767578-22.068359-0.327-0.674999-0.684266-1.011719-1.072266-1.011719-0.530999 0-1.333251 0.036422-2.40625 0.107422s-1.885501 0.105469-2.4375 0.105469c-0.571999 0-1.435845-0.049344-2.589844-0.152344-1.154999-0.102-2.006594-0.152343-2.558593-0.152343zm169.595702 3.984374c-0.449 0-0.67383 1.185643-0.67383 3.556641 0-0.123 0.04105 1.133534 0.12305 3.769531 0.041 1.675999-5e-5 2.901736-0.12305 3.677735-0.061 0.387999-0.45931 0.593281-1.19531 0.613281-1.308 0.041-1.96289 0.265829-1.96289 0.673828 0 0.429 0.02712 1.084892 0.07812 1.962891s0.07618 1.531938 0.07618 1.960937c0 0.327-0.02518 0.827954-0.07618 1.501953-0.052 0.674-0.07812 1.174954-0.07812 1.501953 0 0.552 0.38902 0.828126 1.16601 0.828126 0.081 0 0.21249-0.010251 0.39649-0.03125h0.39844c1.042-1e-6 1.5625 0.448657 1.5625 1.347656 0 1.348998-0.05035 3.375987-0.15235 6.083984s-0.15234 4.734986-0.15234 6.083984c0 4.515996 2.95143 6.775391 8.85742 6.775391 3.207 0 6.12963-0.724783 8.76563-2.175781 0.552-0.307 0.88872-0.541078 1.01171-0.705078 0.123-0.163 0.18555-0.537141 0.18555-1.119141 0-0.581999 0.07552-1.497142 0.22852-2.744141 0.153-1.246998 0.23047-2.176063 0.23047-2.789062 0-0.449-0.21558-0.674828-0.64258-0.673828-0.389 0-1.05782 0.118516-2.00781 0.353516-0.95 0.235999-1.68041 0.353515-2.19141 0.353515-1.614 0-2.69605-0.44036-3.24805-1.318359-0.388-0.654-0.58203-1.840643-0.58203-3.556641 0-0.468999-0.01125-1.194782-0.03125-2.175781v-2.175781c0-0.898999 0.15199-1.34961 0.45899-1.34961h2.29882c0.408 0 1.09174 0.015875 2.05274 0.046875s1.64569 0.044922 2.05469 0.044922c0.593 0 0.88867-0.213578 0.88867-0.642578 0-0.491-0.01125-1.206485-0.03125-2.146484-0.021-0.939999-0.0293-1.655485-0.0293-2.146485 0-0.469999 0.04934-1.175235 0.15234-2.115234 0.102-0.939999 0.15235-1.645235 0.15235-2.115235 0-0.306999-0.22483-0.458984-0.67383-0.458984-0.736 0-1.8283 0.030797-3.2793 0.091797s-2.535 0.091797-3.25 0.091797c-0.593 0-0.88867-0.500954-0.88867-1.501953 0-0.837999 0.06622-2.085236 0.19922-3.740235 0.132-1.654998 0.19922-2.890032 0.19922-3.707031 0-0.306-0.25658-0.479484-0.76758-0.521484-2.105-0.245-3.67675-0.439032-4.71875-0.582031-0.449-0.041-1.25688-0.192985-2.42187-0.458985-1.022-0.245-1.80738-0.369141-2.35938-0.369141zm-54.89648 8.609376c-4.659-1e-6 -8.39876 1.554159-11.21875 4.660156-2.738 3.003997-4.10743 6.854692-4.10743 11.554687 0 4.822995 1.53266 8.675644 4.59766 11.556641 2.983 2.839997 6.90654 4.259766 11.76953 4.259766 5.251 0 9.12319-1.336675 11.61719-4.013672 0.306-0.327 0.45898-0.562079 0.45898-0.705078 0-0.51-0.50462-1.70594-1.51562-3.585938-1.012-1.878998-1.73311-2.922953-2.16211-3.126953-0.777 0.489999-1.55408 0.979703-2.33008 1.470703-1.839 0.980999-3.66833 1.470703-5.48633 1.470703-1.513 0-2.85992-0.285422-4.04492-0.857422-1.451-0.693999-2.31947-1.704204-2.60547-3.033203 4.782-0.368 8.37807-0.685172 10.78907-0.951172 4.00499-0.407999 6.1207-0.632828 6.3457-0.673828 1.328-0.286 1.99219-1.461393 1.99219-3.52539 0-3.942997-1.36943-7.346035-4.10743-10.207032-2.73799-2.860997-6.06919-4.292968-9.99218-4.292968zm151.26172 0c-4.658-1e-6 -8.39976 1.554159-11.21876 4.660156-2.73799 3.003997-4.10546 6.854692-4.10546 11.554687 0 4.822995 1.53266 8.675644 4.59765 11.556641 2.984 2.839997 6.90749 4.259766 11.77149 4.259766 5.25099 0 9.12223-1.336675 11.61523-4.013672 0.307-0.327 0.46094-0.562079 0.46094-0.705078 0-0.51-0.50753-1.70594-1.51953-3.585938-1.011-1.878998-1.73116-2.922953-2.16016-3.126953-0.777 0.489999-1.55408 0.979703-2.33008 1.470703-1.839 0.980999-3.66637 1.470703-5.48437 1.470703-1.513 0-2.86188-0.285422-4.04688-0.857422-1.451-0.693999-2.31947-1.704204-2.60547-3.033203 4.781-0.368 8.37807-0.685172 10.78907-0.951172 4.00499-0.407999 6.1207-0.632828 6.3457-0.673828 1.328-0.286 1.99219-1.461393 1.99219-3.52539 0-3.942997-1.37038-7.345035-4.10938-10.207032-2.73899-2.860997-6.06819-4.292968-9.99218-4.292968zm183.48046 0c-4.65799-1e-6 -8.39975 1.554159-11.21875 4.660156-2.73799 3.003997-4.10742 6.854692-4.10742 11.554687 0 4.822995 1.53461 8.675644 4.59961 11.556641 2.984 2.839997 6.90554 4.259766 11.76953 4.259766 5.251 0 9.12419-1.336675 11.61719-4.013672 0.307-0.327 0.45898-0.562079 0.45898-0.705078 0-0.51-0.50557-1.70594-1.51757-3.585938-1.011-1.878998-1.73116-2.922953-2.16016-3.126953-0.777 0.489999-1.55408 0.979703-2.33008 1.470703-1.839 0.980999-3.66833 1.470703-5.48633 1.470703-1.51299 0-2.85992-0.285422-4.04492-0.857422-1.451-0.693999-2.31947-1.704204-2.60547-3.033203 4.781-0.368 8.37807-0.685172 10.78907-0.951172 4.00499-0.407999 6.1207-0.632828 6.3457-0.673828 1.328-0.286 1.99219-1.461393 1.99219-3.52539 0-3.942997-1.37038-7.345035-4.10938-10.207032-2.739-2.860997-6.06819-4.292968-9.99219-4.292968zm-92.22851 0.708984c-4.618 0-8.25611 1.491612-10.91211 4.474609-2.555 2.880997-3.83203 6.682349-3.83203 11.402344 0 4.086996 1.23598 7.599972 3.70898 10.542969 2.616 3.146997 5.9154 4.720703 9.90039 4.720703 2.615 0 5.06747-1.152893 7.35547-3.462891 0.266-0.264999 0.48053-0.439484 0.64453-0.521484 0.184 0.021 0.34161 0.61797 0.47461 1.792969 0.133 1.175998 0.39325 1.761718 0.78125 1.761718 3.269 0 6.17208-0.09139 8.70508-0.27539 0.716-0.062 1.07227-0.50136 1.07227-1.31836 0-1.552998-0.0904-3.882284-0.27539-6.988281-0.183-3.105997-0.2754-5.445533-0.2754-7.019531 0-4.126996 0.32743-8.041285 0.98243-11.738281 0.062-0.348 0.09179-0.560579 0.09179-0.642578 0-0.204-0.15198-0.367235-0.45898-0.490235-0.879-0.286-2.33152-0.633969-4.35352-1.042969-2.12599-0.428999-3.56626-0.642578-4.32226-0.642578-0.327 0-0.60975 0.495329-0.84375 1.486328-0.235 0.990999-0.44296 1.486328-0.62696 1.486328-0.062 0-0.13384-0.051296-0.21484-0.154296-1.86-2.247998-4.39357-3.371094-7.60156-3.371094zm44.6875 0c-1.839 0-3.54419 0.378766-5.11719 1.134766-1.064 0.530999-2.51452 1.511407-4.35352 2.941406-0.26699 0.204-0.50107 0.347687-0.70507 0.429687-0.143 0-0.22414-0.710861-0.24414-2.130859-0.021-1.419999-0.22529-2.128906-0.61329-2.128906-0.61299 0-1.42087 0.143687-2.42187 0.429687-1.41 0.389-2.21788 0.601578-2.42187 0.642578-0.288 0.042-1.19552 0.134344-2.72852 0.277344-1.246 0.123-2.09397 0.274985-2.54297 0.458984-0.286 0.122-0.42969 0.358079-0.42969 0.705079 0 0.122999 0.01955 0.307734 0.06055 0.552734 0.491 4.188996 0.73633 7.957597 0.73633 11.308594 0 1.634998-0.01025 4.0828-0.03125 7.341796-0.02 3.259997-0.0293 5.707799-0.0293 7.341797 0 0.511 0.04472 0.817922 0.13672 0.919922s0.385 0.171891 0.875 0.212891c1.635 0.122 3.09581 0.183594 4.38281 0.183594 1.982 0 3.43352-0.042047 4.35352-0.123047 0.511-0.042 0.82622-0.124094 0.94922-0.246094s0.18359-0.438219 0.18359-0.949219c0-1.838998-0.0093-4.608644-0.0293-8.30664-0.02-3.697997-0.02929-6.47594-0.02929-8.335938 0-0.837999 0.56984-1.634626 1.71484-2.390625 1.042-0.693999 2.01311-1.042969 2.91211-1.042969 2.228 0 3.3418 1.460816 3.3418 4.382813 0 0.775999 0.01954 1.930892 0.06054 3.462891 0.041 1.532998 0.0625 2.677594 0.0625 3.433593 0 0.980999-0.03079 2.433518-0.09179 4.353516-0.062 1.920998-0.09375 3.362266-0.09375 4.322265 0 0.839 0.28737 1.25586 0.85937 1.25586h9.28711c0.592 0 0.88867-0.33772 0.88867-1.011719 0-0.979999-0.03079-2.446439-0.09179-4.398437-0.062-1.950998-0.0918-3.406189-0.0918-4.367188 0-4.167996 0.04105-6.683016 0.12305-7.541016 0.102-0.980999 0.62712-1.873641 1.57812-2.68164 0.95-0.806999 1.90424-1.210938 2.86524-1.210938 2.18699 0 3.34184 1.215487 3.46484 3.646485 0.081 1.511998 0.12109 4.056816 0.12109 7.632812 0 0.940999-0.02979 2.344846-0.09179 4.214844-0.061 1.868998-0.0918 3.275845-0.0918 4.214844 0 0.878999 0.30692 1.379953 0.91992 1.501953s2.16421 0.183594 4.6582 0.183594c2.41 0 3.92411-0.042047 4.53711-0.123047 0.613-0.082 0.91993-0.479313 0.91993-1.195313 0-1.286998-0.03175-3.224643-0.09375-5.80664-0.061-2.584998-0.0918-4.521595-0.0918-5.808594 0-1.082999 0.0308-2.712674 0.0918-4.888672 0.062-2.176998 0.09375-3.805673 0.09375-4.888672 0-2.615997-0.96182-4.629064-2.88282-6.039062-1.696-1.245999-3.89284-1.871094-6.58984-1.871094-1.799 0-3.64883 0.500954-5.54883 1.501953-1.901 1.000999-3.39161 2.237986-4.47461 3.708984-0.49-1.695998-1.56375-3.013126-3.21875-3.953125-1.471-0.837999-3.14734-1.257812-5.02734-1.257812zm-248.73438 0.123047c-1.819 0-3.93837 0.708907-6.35937 2.128906-2.24695 1.317911-3.35441 2.024392-3.32227 2.119141-0.21136-0.055539-0.37631-0.735576-0.49414-2.056641-0.123-1.378999-0.29648-2.070313-0.52148-2.070313-0.409 1e-6 -2.23733 0.318173-5.48633 0.951172-2.145 0.306-3.86044 0.530829-5.14844 0.673828-0.306 0.122-0.45898 0.346829-0.45898 0.673829 0 0.123 0.01954 0.274984 0.06054 0.458984 0.797 2.901997 1.19532 6.898333 1.19532 11.986328 0 1.613999-0.01125 4.024425-0.03125 7.232422-0.021 3.207997-0.03125 5.609127-0.03125 7.203125 0 0.572999 0.31717 0.909719 0.95117 1.011719 0.715 0.122 2.2672 0.183593 4.6582 0.183593 2.207 0 3.66782-0.042046 4.38281-0.123046 0.633-0.081 0.95118-0.458814 0.95118-1.132813v-16.552734c0-0.755999 0.57179-1.521829 1.71679-2.298828 1.062-0.694 1.99207-1.041016 2.78907-1.041016 2.43099 0 3.64648 1.398268 3.64648 4.197266 0 0.755999 0.0205 1.886673 0.0625 3.388671 0.04 1.501999 0.06055 2.63072 0.06055 3.386719 0 0.980999-0.0298 2.441815-0.0918 4.382813-0.062 1.941998-0.0918 3.393516-0.0918 4.353515 0 0.716 0.30497 1.13286 0.91797 1.25586 0.613 0.122 2.20821 0.183593 4.7832 0.183593 2.411 0 3.90261-0.042046 4.47461-0.123046s0.85743-0.39822 0.85743-0.949219c0-1.327999-0.0103-3.31594-0.0293-5.960938-0.021-2.645997-0.03125-4.631938-0.03125-5.960937v-9.777344c0-2.512997-0.97111-4.47672-2.91211-5.886719-1.737-1.225998-3.90305-1.83789-6.49805-1.83789zm84.38282 0.058593c-0.102 0-1.7671 0.31622-4.9961 0.949219-2.166 0.327-3.81155 0.552782-4.93555 0.675781-0.30599 0.103-0.45898 0.305329-0.45898 0.611329 0 0.123 0.0215 0.276937 0.0625 0.460937 0.879 3.105997 1.31641 7.059333 1.31641 11.861328 0 1.634999-0.0093 4.0828-0.0293 7.341797-0.021 3.259997-0.03125 5.705846-0.03125 7.339844 0 0.593999 0.33772 0.931672 1.01172 1.013672 1.165 0.122 2.7172 0.183593 4.6582 0.183593 2.024 0 3.52586-0.042046 4.50586-0.123046 0.674-0.062 1.01367-0.338126 1.01367-0.828125 0-0.572-0.04104-1.446095-0.12304-2.621094-0.082-1.173999-0.12305-2.057391-0.12305-2.650391 0-0.877999-0.01492-2.211002-0.04492-4-0.031-1.787998-0.04883-3.121001-0.04883-4 0-1.613998 0.30692-2.68675 0.91992-3.21875 0.613-0.530999 1.76885-0.796875 3.46485-0.796875 0.36699 0 0.92392 0.025172 1.66992 0.076172 0.746 0.052 1.31317 0.078125 1.70117 0.078125 0.879 0 1.31836-0.398313 1.31836-1.195312 0-0.388-0.0215-1.184627-0.0625-2.390625-0.02-0.980999-0.0293-1.768329-0.0293-2.361329 0.021-0.510999 0.09185-1.348673 0.21485-2.513671 0.12199-1.082999 0.18359-1.91872 0.18359-2.511719 0-0.491-0.5718-0.736328-1.7168-0.736328-1.818 0-3.70892 0.536376-5.66992 1.609375-1.779 0.972921-2.63171 1.503083-2.5625 1.59375-0.23943-0.076376-0.40836-0.710496-0.50391-1.916016-0.102-1.286999-0.33707-1.931641-0.70507-1.931641zm-142.53125 1.070313c-0.49 0-1.23166 0.041047-2.22266 0.123047-0.992 0.082-1.73266 0.123047-2.22266 0.123047-0.491 0-1.2204-0.008297-2.1914-0.029297-0.97-0.02-1.70141-0.03125-2.19141-0.03125-0.43 0-0.64258 0.318172-0.64258 0.951172 0 0.571999 0.0606 1.454392 0.1836 2.65039 0.122 1.195999 0.18359 2.089642 0.18359 2.681641 0 2.063998-0.08114 3.820486-0.24414 5.271484-0.082 0.675-0.66505 1.941783-1.74805 3.800782-1.124 1.982998-1.94117 2.974609-2.45117 2.974609-0.531 0-1.37992-1.012158-2.54492-3.035156-1.124-1.919998-1.71635-3.226876-1.77734-3.921875-0.123-1.348999-0.1836-3.08594-0.1836-5.210938 0-0.592999 0.04105-1.466095 0.12305-2.621093 0.082-1.153999 0.12305-2.017845 0.12305-2.589844 0-0.633-0.23508-0.951172-0.70508-0.951172-1.042 0-2.61008-0.029797-4.70508-0.091797-2.095-0.061-3.66308-0.091797-4.70508-0.091797-0.716 0-1.07226 0.265876-1.07226 0.796875 0 0.816999-0.01126 2.028814-0.03126 3.632813-0.02099 1.604998-0.02929 2.804563-0.02929 3.601562 0 2.819997 0.25462 4.933752 0.76562 6.34375 0.471 1.307999 1.92152 3.730629 4.35352 7.265625 2.269 3.289997 4.01423 5.599736 5.24023 6.927735 0.286 0.305999 0.64522 0.511281 1.07422 0.613281 0.694 0.163 2.20516 0.24414 4.53516 0.24414 2.677 0 4.2805-0.315219 4.8125-0.949218 1.45-1.674999 3.19919-4.005285 5.24219-6.988282 2.34999-3.472996 3.76046-5.93572 4.23046-7.386718 0.224-0.633 0.33594-2.69741 0.33594-6.191407 0-3.575996-0.17439-5.946282-0.52539-7.113281-0.163-0.530999-0.49876-0.798828-1.00976-0.798828zm98.75976 0.003906c-0.613 0-1.03281 0.419814-1.25781 1.257813-0.756 2.696997-1.13281 6.374208-1.13281 11.033203 0 4.311996 0.22382 7.602096 0.67382 9.871094 1.001 4.883995 4.20901 7.326171 9.625 7.326171 1.921 0 4.05626-0.693985 6.40625-2.083984 2.16807-1.282008 3.21316-1.971497 3.13672-2.070312 0.16441 0.065662 0.29437 0.528294 0.38867 1.396484 0.061 0.612999 0.1226 1.224891 0.1836 1.837891 0.102 0.427999 0.34733 0.675328 0.73633 0.736328 0.879 0.122 2.4302 0.183593 4.6582 0.183593 2.514 0 4.15855-0.10264 4.93555-0.30664 0.511-0.143 0.76562-0.490969 0.76562-1.042969 0-1.449998-0.05034-3.646847-0.15234-6.589844s-0.15235-5.150095-0.15235-6.621093c0-1.512999 0.0699-3.780691 0.21289-6.804688 0.143-3.023997 0.21485-5.291689 0.21485-6.804687 0-0.327-0.0205-0.571422-0.0625-0.732422-0.103-0.307-0.45927-0.460938-1.07227-0.460938-1.001 0-2.50948-0.01025-4.52148-0.03125-2.013-0.02-3.52049-0.03125-4.52149-0.03125-0.613 0-0.98051 0.102641-1.10351 0.306641-0.102 0.122-0.15234 0.521313-0.15234 1.195312 0 9.501991-0.02151 14.63072-0.0625 15.386719-0.041 0.857999-0.58668 1.687376-1.63868 2.484375s-2.02873 1.195313-2.92773 1.195313c-2.31 0-3.64763-1.125049-4.01563-3.373047-0.225-1.307999-0.33789-3.739926-0.33789-7.294922 0-2.860997 0.21553-5.679987 0.64453-8.458984 0.041-0.287 0.0625-0.501532 0.0625-0.644532 0-0.530999-0.31817-0.796875-0.95117-0.796875-0.941 0-2.37102-0.01025-4.29101-0.03125-1.921-0.021-3.35202-0.03125-4.29102-0.03125zm-188.382811 0.490235c0.428999 0.817999 1.103438 2.697628 2.023437 5.640625 0.939999 3.044997 1.410156 4.904125 1.410156 5.578125 0 0.182999-0.019546 0.327687-0.060546 0.429687-0.144 0.326-0.889283 0.490235-2.238282 0.490235-1.450998 0-2.493953-0.020501-3.126953-0.0625-1.225999-0.041-1.83789-0.245282-1.83789-0.613282 0-0.550999 0.550298-2.421378 1.654297-5.609375 1.020998-3.002997 1.746781-4.954516 2.175781-5.853515zm108.109371 5.394531c1.246 0 2.3178 0.479454 3.2168 1.439453 0.899 0.960999 1.34961 2.074798 1.34961 3.341797 0 0.225-0.33672 0.389187-1.01172 0.492187-3.188 0.47-5.53878 0.705078-7.05078 0.705078-0.572 0-0.85742-0.276125-0.85742-0.828124 0-1.348999 0.38706-2.524392 1.16406-3.525391 0.838-1.082999 1.90146-1.625 3.18945-1.625zm151.26172 0c1.246 0 2.31975 0.479454 3.21875 1.439453 0.9 0.960999 1.34961 2.074798 1.34961 3.341797 0 0.225-0.33767 0.389187-1.01367 0.492187-3.188 0.47-5.53683 0.705078-7.04883 0.705078-0.572 0-0.85937-0.276125-0.85937-0.828124 0-1.348999 0.39001-2.524392 1.16601-3.525391 0.838-1.082999 1.9005-1.625 3.1875-1.625zm183.48047 0c1.246 0 2.32171 0.479454 3.2207 1.439453 0.9 0.960999 1.34766 2.074798 1.34766 3.341797 0 0.225-0.33572 0.389187-1.01172 0.492187-3.18799 0.47-5.53878 0.705078-7.05078 0.705078-0.572 0-0.85742-0.276125-0.85742-0.828124 0-1.348999 0.38806-2.524392 1.16406-3.525391 0.838-1.082999 1.9005-1.625 3.1875-1.625zm-403.03515 1.900391c1.59399 0 2.95217 0.608219 4.07617 1.824218 1.123 1.215999 1.6875 2.630142 1.6875 4.244141 0 1.655998-0.55325 3.096267-1.65625 4.322265-1.103 1.225999-2.47243 1.839844-4.10742 1.839844-1.635003 0-2.962381-0.613845-3.98438-1.839844-1.001999-1.143998-1.501953-2.54422-1.501953-4.199218 0-1.695999 0.495329-3.151189 1.486328-4.367188s2.324002-1.824218 4.000005-1.824218zm313.56445 0.24414c1.756 0 3.18139 0.567173 4.27539 1.701172 1.093 1.133999 1.64062 2.569642 1.64062 4.306641 0 1.757998-0.55225 3.203891-1.65625 4.33789s-2.52376 1.701172-4.25976 1.701172c-1.636 0-3.02297-0.591345-4.16797-1.777344-1.145-1.183998-1.7168-2.60672-1.7168-4.261718 0-1.756999 0.541-3.196314 1.625-4.320313 1.083-1.123999 2.50177-1.6875 4.25977-1.6875zm-197.90625 30.857422c-0.123 0-0.29649 0.008297-0.52149 0.029297-4.10799 0.612999-7.57062 1.941377-10.39062 3.984375-3.453 2.471997-5.17969 5.579363-5.17969 9.318359 0 2.574998 0.70524 4.925784 2.11524 7.050781 0.204 0.307 1.51087 1.848956 3.92187 4.626954 1.389 1.634998 2.08399 3.117313 2.08399 4.445312 0 2.083998-1.06251 3.657704-3.1875 4.720703-0.961 0.471-2.92277 1.041799-5.88477 1.716799-0.307 0.062-0.46094 0.20273-0.46094 0.42773 0 0.634 0.80788 2.38782 2.42188 5.25782 1.614 2.87099 2.655 4.30664 3.125 4.30664 0.102 0 0.23443-0.0093 0.39843-0.0293 4.394-0.716 8.12446-2.3811 11.18946-4.9961 3.49399-2.96299 5.24023-6.519968 5.24023-10.667964 0-2.226998-0.72583-4.462893-2.17383-6.71289-0.123-0.163-1.48312-1.878441-4.07812-5.148438-1.472-1.818998-2.20703-3.35261-2.20703-4.599609 0-1.389999 0.66319-2.472048 1.99219-3.248047 1.10399-0.674999 2.39228-1.011719 3.86328-1.011719 0.204 0 0.49967 0.030797 0.88867 0.091797 0.388 0.062 0.66412 0.091797 0.82812 0.091797 0.368 0 0.55078-0.171532 0.55078-0.519531 0-0.081-0.02979-0.183641-0.09179-0.306641-1.941-3.902996-3.17603-6.601751-3.70703-8.09375-0.184-0.49-0.42933-0.734375-0.73633-0.734375zm101.95312 0.039062c-0.08707 0.055987-1.91802 0.308735-5.49414 0.75586-2.29 0.183-4.08753 0.306187-5.39453 0.367187-0.327 0.082-0.49219 0.41872-0.49219 1.011719 0 1.553999 0.04105 3.892535 0.12305 7.019531 0.081 3.125997 0.12305 5.477783 0.12305 7.050782 0 0.530999-0.09139 0.796875-0.27539 0.796875-0.123 0-0.32728-0.163235-0.61328-0.490235-1.716-1.961998-4.11713-2.943359-7.20313-2.943359-4.373 0-7.84592 1.534612-10.41992 4.599609-2.432 2.880997-3.64844 6.548911-3.64844 11.003907 0 4.392995 1.23599 8.029162 3.70899 10.910152 2.59499 3.024 6.04737 4.53711 10.35937 4.53711 3.31 0 6.06839-1.08205 8.27539-3.24804 0.184-0.184 0.33794-0.30714 0.46094-0.36914 0.142 0.164 0.22314 0.32723 0.24414 0.49023 0.04 0.777 0.08205 1.55408 0.12305 2.33008 0.163 0.429 0.79639 0.64453 1.90039 0.64453 4.67999 0 7.38804-0.0523 8.12304-0.1543 0.307-0.041 0.45899-0.17148 0.45899-0.39648 0-0.102-0.0215-0.34733-0.0625-0.73633-0.471-3.575-0.70313-9.584446-0.70313-18.023438 0-5.107994 0.08014-9.663925 0.24414-13.669921 0.123-3.534997 0.29549-6.436081 0.52149-8.705079 0.12225-1.347748 0.19781-2.064062 0.22851-2.148437-0.036-0.392115-0.23038-0.604515-0.58789-0.632813zm11.26953 2.076172c-1.63499 0-3.03422 0.471158-4.19921 1.410157-1.266 1.022999-1.9004 2.329829-1.9004 3.923828 0 1.674998 0.61285 3.004376 1.83985 3.984375 1.123 0.899999 2.54377 1.349609 4.25976 1.349609 4.005 0 6.00782-1.777988 6.00782-5.333984 0-1.572999-0.62214-2.870579-1.86914-3.892578-1.165-0.960999-2.54468-1.441407-4.13868-1.441407zm-101.63867 2.421875c-0.449 0-0.67383 1.18469-0.67383 3.554688 0-0.123 0.04105 1.133534 0.12305 3.769531 0.041 1.675998-5e-5 2.903688-0.12305 3.679688-0.061 0.387999-0.45931 0.592281-1.19531 0.613281-1.308 0.041-1.96289 0.265828-1.96289 0.673828 0 0.43 0.02713 1.083892 0.07813 1.962891s0.07617 1.530938 0.07617 1.960937c0 0.327-0.02517 0.826954-0.07617 1.501953-0.052 0.674-0.07813 1.174954-0.07813 1.501953 0 0.552 0.38902 0.828125 1.16602 0.828125 0.081 0 0.21443-0.01025 0.39843-0.03125h0.39844c1.042 0 1.5625 0.450611 1.5625 1.34961 0 1.348998-0.0523 3.376987-0.1543 6.083984-0.10199 2.707997-0.15234 4.734982-0.15234 6.083982 0 4.516 2.95143 6.77344 8.85742 6.77344 3.207 0 6.13158-0.72478 8.76758-2.17578 0.552-0.306 0.88872-0.54208 1.01172-0.70508 0.123-0.164 0.18359-0.53714 0.18359-1.11914s0.07747-1.49619 0.23047-2.74219 0.22852-2.17706 0.22852-2.78906c0-0.45-0.21363-0.674781-0.64063-0.675781-0.389 0-1.05781 0.117562-2.00781 0.351562-0.95 0.235999-1.68236 0.353519-2.19336 0.353519-1.614 0-2.69605-0.439363-3.24805-1.318362-0.388-0.654-0.58203-1.83769-0.58203-3.554688 0-0.47-0.01125-1.195782-0.03125-2.175781v-2.177735c0-0.898999 0.15394-1.349609 0.46094-1.349609h2.29883c0.408 0 1.09273 0.016875 2.05273 0.046875 0.961 0.031 1.64374 0.046875 2.05274 0.046875 0.593 0 0.89062-0.214532 0.89062-0.644531 0-0.491-0.01125-1.206486-0.03125-2.146485-0.021-0.939999-0.03125-1.656484-0.03125-2.146484 0-0.469 0.04935-1.174282 0.15235-2.113281 0.102-0.939999 0.15429-1.645235 0.15429-2.115235 0-0.306999-0.22678-0.460937-0.67578-0.460937-0.736 0-1.8283 0.03175-3.27929 0.09375-1.451 0.062-2.53305 0.091797-3.24805 0.091797-0.593 0-0.89063-0.499954-0.89063-1.501953 0-0.837 0.06622-2.085236 0.19922-3.740235 0.132-1.654998 0.19922-2.891985 0.19922-3.708984 0-0.307-0.25658-0.480485-0.76758-0.521485-2.105-0.244999-3.67675-0.438031-4.71875-0.582031-0.449-0.04-1.25687-0.192984-2.42187-0.458984-1.022-0.246-1.80738-0.367188-2.35938-0.367188zm126.74219 9.072266c-4.74 0-8.49935 1.478644-11.27734 4.431641-2.779 2.952997-4.16993 6.799067-4.16993 11.539062 0 4.495996 1.45252 8.174162 4.35352 11.035152 2.902 2.86 6.60071 4.29102 11.0957 4.29102 4.638 0 8.38438-1.45152 11.23438-4.35352 2.85-2.90199 4.27539-6.681844 4.27539-11.339839 0-4.617996-1.43102-8.372675-4.29102-11.263672-2.86199-2.891997-6.6027-4.339844-11.2207-4.339844zm-102.56055 1.503906c-0.613 0-1.03086 0.420814-1.25586 1.257813-0.756 2.696997-1.13476 6.374208-1.13476 11.033203 0 4.310996 0.22578 7.601143 0.67578 9.869143 1.001 4.88499 4.209 7.32617 9.625 7.32617 1.921 0 4.0543-0.69399 6.4043-2.08398 2.17649-1.28793 3.22223-1.97769 3.13672-2.07227 0.16501 0.06375 0.29412 0.52801 0.38867 1.39844 0.061 0.613 0.12259 1.22589 0.18359 1.83789 0.102 0.429 0.34733 0.67433 0.73633 0.73633 0.879 0.122 2.43216 0.18359 4.66015 0.18359 2.514 0 4.1566-0.10264 4.9336-0.30664 0.511-0.143 0.76758-0.48902 0.76758-1.04102 0-1.451-0.0523-3.64784-0.1543-6.58984-0.102-2.942998-0.15234-5.149096-0.15234-6.621094 0-1.511999 0.06989-3.782644 0.21289-6.806641s0.21679-5.291689 0.21679-6.804687c0-0.326-0.02245-0.572376-0.06445-0.734376-0.103-0.306999-0.45927-0.458984-1.07227-0.458984-1.00099 0-2.50948-0.008297-4.52148-0.029297-2.013-0.02-3.52048-0.03125-4.52148-0.03125-0.613 0-0.97857 0.102641-1.10157 0.306641-0.102 0.123-0.15429 0.521313-0.15429 1.195312 0 9.501991-0.01955 14.63072-0.06055 15.386719-0.041 0.856999-0.58863 1.685423-1.64063 2.482422-1.05199 0.796995-2.02873 1.195315-2.92773 1.195315-2.31 0-3.64762-1.123098-4.01562-3.371096-0.225-1.306999-0.33594-3.738926-0.33594-7.294922 0-2.859997 0.21358-5.68194 0.64258-8.460938 0.041-0.285999 0.0625-0.500531 0.0625-0.644531 0-0.530999-0.31622-0.796875-0.94922-0.796875-0.941 0-2.37297-0.008297-4.29297-0.029297-1.921-0.02-3.35202-0.03125-4.29102-0.03125zm72.0625 0c-0.552 0-0.82812 0.205282-0.82812 0.613281 0 0.103 0.0205 0.318532 0.0625 0.644532 0.449 3.432996 0.67383 8.050521 0.67383 13.853515 0 1.430999-0.0298 3.562581-0.0918 6.392581-0.062 2.82999-0.0918 4.94842-0.0918 6.35742 0 0.532 0.01955 0.83892 0.06055 0.91992 0.102 0.183 0.37812 0.31744 0.82812 0.39844 0.695 0.123 2.26871 0.18359 4.72071 0.18359 2.43 0 3.99445-0.06059 4.68945-0.18359 0.511-0.081 0.76563-0.33758 0.76563-0.76758 0-1.471-0.0298-3.68177-0.0918-6.63476-0.061-2.952002-0.0918-5.175975-0.0918-6.667974 0-5.250994 0.22583-9.868566 0.67383-13.851562 0.04-0.307 0.06055-0.500032 0.06055-0.582032 0-0.407999-0.24438-0.613281-0.73438-0.613281-0.593 0-1.48197 0.052297-2.66797 0.154297-1.185 0.102-2.07401 0.152344-2.66601 0.152344s-1.47539-0.061594-2.65039-0.183594c-1.176-0.123-2.0491-0.185547-2.6211-0.185547zm-22.58984 7.785157c1.594 0 2.95313 0.607266 4.07812 1.822265 1.123 1.216999 1.68555 2.633095 1.68555 4.246094 0 1.654998-0.55225 3.096267-1.65625 4.322265-1.103 1.226999-2.47342 1.837888-4.10742 1.837888s-2.96142-0.610889-3.98242-1.837888c-1.002-1.143998-1.50391-2.54422-1.50391-4.199218 0-1.695999 0.49533-3.152142 1.48633-4.369141 0.991-1.214999 2.324-1.822265 4-1.822265zm53.15039 0.183593c1.594 0 2.89158 0.617517 3.89258 1.853516s1.50195 2.663345 1.50195 4.277344c0 1.653998-0.48141 3.074766-1.4414 4.259765-1.042 1.266999-2.35913 1.900394-3.95313 1.900394-1.614 0-2.94238-0.632395-3.98437-1.900394-0.982-1.184999-1.47266-2.605767-1.47266-4.259765 0-1.633999 0.49166-3.04447 1.47266-4.230469 1.04199-1.265999 2.37037-1.900391 3.98437-1.900391z"/>

</svg>
