<?xml version="1.0" encoding="utf-8"?>
<!-- Generator: Adobe Illustrator 13.0.0, SVG Export Plug-In . SVG Version: 6.00 Build 14948)  -->
<!DOCTYPE svg PUBLIC "-//W3C//DTD SVG 1.1//EN" "http://www.w3.org/Graphics/SVG/1.1/DTD/svg11.dtd">
<svg version="1.1" id="Layer_1" xmlns:svg="http://www.w3.org/2000/svg"
	 xmlns="http://www.w3.org/2000/svg" xmlns:xlink="http://www.w3.org/1999/xlink" x="0px" y="0px" width="568.929px"
	 height="116.145px" viewBox="-1 -1 568.929 116.145" enable-background="new -1 -1 568.929 116.145" xml:space="preserve">
<g>
	<g>
		<path fill="#FFF" d="M82.587,54.496c0,0.368-0.255,0.624-0.766,0.766c-0.613,0.163-2.513,0.245-5.701,0.245
			c-2.922,0-4.802-0.082-5.64-0.245c-0.695-0.143-1.134-0.603-1.318-1.379c-0.695-2.942-1.236-4.516-1.625-4.72
			c-0.327-0.143-3.065-0.214-8.214-0.214c-3.474,0-5.323,0.092-5.548,0.275c-0.348,0.327-0.736,1.421-1.165,3.28
			c-0.388,1.696-0.858,2.616-1.41,2.759c-0.695,0.163-3.024,0.245-6.989,0.245c-3.126,0-4.689-0.296-4.689-0.889
			c0-0.531,2.309-7.06,6.927-19.586c5.006-13.548,7.724-20.996,8.153-22.345c0.245-0.776,0.531-1.165,0.858-1.165
			c0.552,0,1.405,0.051,2.56,0.153c1.154,0.103,2.018,0.153,2.59,0.153c0.552,0,1.364-0.036,2.437-0.107
			c1.073-0.071,1.875-0.107,2.406-0.107c0.388,0,0.746,0.337,1.073,1.012c1.001,2.146,3.923,9.502,8.766,22.069
			C80.156,47.344,82.587,53.944,82.587,54.496z M60.856,26.572c-0.429,0.899-1.155,2.851-2.176,5.854
			c-1.104,3.188-1.655,5.058-1.655,5.609c0,0.368,0.613,0.572,1.839,0.613c0.633,0.042,1.675,0.062,3.126,0.062
			c1.349,0,2.094-0.164,2.238-0.49c0.041-0.102,0.061-0.246,0.061-0.429c0-0.674-0.47-2.534-1.41-5.579
			C61.959,29.269,61.285,27.39,60.856,26.572z"/>
	</g>
	<g>
		<path fill="#FFF" d="M117.99,11.767c0-0.449-0.082,0.225-0.246,2.023c-0.225,2.269-0.398,5.17-0.521,8.705
			c-0.164,4.005-0.245,8.563-0.245,13.671c0,8.439,0.235,14.447,0.705,18.023c0.041,0.388,0.061,0.634,0.061,0.735
			c0,0.225-0.153,0.357-0.459,0.399c-0.736,0.102-3.444,0.153-8.123,0.153c-1.104,0-1.737-0.214-1.9-0.644
			c-0.042-0.776-0.082-1.553-0.123-2.33c-0.021-0.163-0.102-0.327-0.245-0.49c-0.123,0.061-0.276,0.184-0.459,0.368
			c-2.207,2.167-4.966,3.249-8.276,3.249c-4.312,0-7.766-1.512-10.36-4.536c-2.473-2.881-3.709-6.519-3.709-10.912
			c0-4.455,1.216-8.123,3.647-11.004c2.575-3.065,6.048-4.598,10.422-4.598c3.085,0,5.486,0.981,7.203,2.942
			c0.286,0.327,0.49,0.491,0.613,0.491c0.184,0,0.276-0.266,0.276-0.797c0-1.574-0.041-3.924-0.123-7.05
			c-0.082-3.126-0.123-5.466-0.123-7.019c0-0.592,0.163-0.93,0.49-1.011c1.308-0.062,3.106-0.184,5.395-0.368
			c4.087-0.51,5.896-0.766,5.425-0.766C117.765,11.001,117.99,11.257,117.99,11.767z M106.435,39.936
			c0-1.614-0.563-3.029-1.686-4.245c-1.124-1.216-2.483-1.824-4.077-1.824c-1.676,0-3.009,0.608-4,1.824
			c-0.991,1.216-1.487,2.672-1.487,4.368c0,1.655,0.5,3.055,1.502,4.199c1.022,1.226,2.35,1.839,3.985,1.839
			c1.635,0,3.004-0.613,4.107-1.839S106.435,41.592,106.435,39.936z"/>
	</g>
	<g>
		<path fill="#FFF" d="M152.014,33.99c0,3.494-0.113,5.558-0.337,6.191c-0.47,1.451-1.88,3.914-4.23,7.387
			c-2.043,2.983-3.791,5.313-5.241,6.988c-0.532,0.634-2.136,0.95-4.813,0.95c-2.33,0-3.842-0.082-4.536-0.245
			c-0.429-0.102-0.787-0.307-1.073-0.613c-1.226-1.328-2.973-3.637-5.242-6.927c-2.432-3.535-3.882-5.957-4.353-7.265
			c-0.511-1.41-0.766-3.525-0.766-6.345c0-0.797,0.01-1.997,0.031-3.602c0.02-1.604,0.03-2.815,0.03-3.632
			c0-0.531,0.357-0.797,1.073-0.797c1.042,0,2.61,0.031,4.705,0.092c2.095,0.062,3.663,0.092,4.705,0.092
			c0.47,0,0.705,0.317,0.705,0.95c0,0.572-0.041,1.436-0.123,2.59c-0.082,1.155-0.123,2.028-0.123,2.621
			c0,2.125,0.061,3.862,0.184,5.211c0.061,0.695,0.653,2.003,1.777,3.923c1.165,2.023,2.013,3.035,2.544,3.035
			c0.51,0,1.328-0.991,2.452-2.974c1.083-1.859,1.665-3.126,1.747-3.801c0.163-1.451,0.245-3.208,0.245-5.272
			c0-0.592-0.062-1.486-0.184-2.682c-0.123-1.196-0.184-2.079-0.184-2.651c0-0.633,0.214-0.95,0.644-0.95
			c0.49,0,1.221,0.01,2.191,0.03c0.971,0.021,1.701,0.031,2.192,0.031c0.49,0,1.23-0.041,2.222-0.123
			c0.991-0.082,1.732-0.123,2.222-0.123c0.511,0,0.848,0.266,1.011,0.797C151.84,28.043,152.014,30.414,152.014,33.99z"/>
	</g>
	<g>
		<path fill="#FFF" d="M184.259,38.618c0,2.064-0.664,3.239-1.992,3.525c-0.225,0.041-2.34,0.266-6.345,0.674
			c-2.411,0.266-6.007,0.582-10.789,0.95c0.286,1.329,1.154,2.34,2.605,3.034c1.185,0.572,2.533,0.858,4.046,0.858
			c1.818,0,3.647-0.49,5.486-1.471c0.776-0.491,1.553-0.981,2.33-1.471c0.429,0.204,1.149,1.247,2.161,3.126
			c1.011,1.88,1.517,3.076,1.517,3.586c0,0.143-0.153,0.378-0.459,0.705c-2.494,2.677-6.366,4.015-11.617,4.015
			c-4.863,0-8.787-1.42-11.77-4.26c-3.065-2.881-4.598-6.733-4.598-11.556c0-4.7,1.369-8.552,4.107-11.556
			c2.82-3.106,6.56-4.659,11.219-4.659c3.923,0,7.254,1.431,9.992,4.292S184.259,34.675,184.259,38.618z M173.531,36.748
			c0-1.267-0.45-2.38-1.349-3.341c-0.899-0.96-1.972-1.44-3.218-1.44c-1.288,0-2.35,0.542-3.188,1.625
			c-0.777,1.001-1.165,2.176-1.165,3.525c0,0.552,0.286,0.828,0.858,0.828c1.512,0,3.862-0.235,7.05-0.705
			C173.194,37.137,173.531,36.973,173.531,36.748z"/>
	</g>
	<g>
		<path fill="#FFF" d="M218.098,54.373c0,0.551-0.286,0.869-0.858,0.95c-0.572,0.081-2.064,0.123-4.475,0.123
			c-2.575,0-4.169-0.062-4.782-0.184c-0.613-0.123-0.919-0.541-0.919-1.257c0-0.96,0.03-2.411,0.092-4.353
			c0.062-1.941,0.092-3.402,0.092-4.383c0-0.756-0.021-1.885-0.061-3.387c-0.042-1.502-0.062-2.631-0.062-3.387
			c0-2.799-1.216-4.199-3.647-4.199c-0.797,0-1.727,0.348-2.789,1.042c-1.145,0.777-1.717,1.543-1.717,2.299v16.552
			c0,0.674-0.317,1.053-0.95,1.134c-0.715,0.081-2.176,0.123-4.383,0.123c-2.391,0-3.944-0.062-4.659-0.184
			c-0.634-0.102-0.95-0.439-0.95-1.012c0-1.594,0.01-3.995,0.031-7.203c0.02-3.208,0.03-5.619,0.03-7.233
			c0-5.088-0.398-9.083-1.195-11.985c-0.041-0.184-0.061-0.337-0.061-0.46c0-0.327,0.153-0.552,0.459-0.674
			c1.288-0.143,3.004-0.368,5.149-0.674c3.249-0.633,5.078-0.95,5.487-0.95c0.225,0,0.398,0.69,0.521,2.069
			c0.123,1.379,0.296,2.069,0.521,2.069c-0.225,0,0.874-0.71,3.295-2.13c2.421-1.42,4.541-2.13,6.36-2.13
			c2.595,0,4.761,0.613,6.498,1.839c1.941,1.41,2.912,3.372,2.912,5.885v9.778c0,1.329,0.01,3.316,0.031,5.962
			C218.087,51.058,218.098,53.045,218.098,54.373z"/>
	</g>
	<g>
		<path fill="#FFF" d="M243.723,46.281c0,0.613-0.077,1.543-0.23,2.79s-0.23,2.161-0.23,2.743s-0.061,0.956-0.184,1.119
			c-0.123,0.164-0.46,0.398-1.012,0.705c-2.636,1.451-5.559,2.176-8.766,2.176c-5.906,0-8.858-2.258-8.858-6.774
			c0-1.349,0.051-3.376,0.153-6.084c0.102-2.708,0.153-4.735,0.153-6.084c0-0.899-0.521-1.349-1.563-1.349c-0.082,0-0.214,0-0.398,0
			c-0.184,0.021-0.317,0.031-0.398,0.031c-0.777,0-1.165-0.276-1.165-0.828c0-0.327,0.025-0.828,0.077-1.502
			c0.051-0.674,0.077-1.175,0.077-1.502c0-0.429-0.026-1.083-0.077-1.961c-0.051-0.878-0.077-1.533-0.077-1.962
			c0-0.408,0.654-0.633,1.962-0.674c0.736-0.02,1.134-0.225,1.195-0.613c0.123-0.776,0.164-2.002,0.123-3.678
			c-0.082-2.636-0.123-3.893-0.123-3.77c0-2.371,0.225-3.556,0.674-3.556c0.552,0,1.338,0.123,2.36,0.368
			c1.165,0.266,1.972,0.419,2.421,0.46c1.042,0.143,2.615,0.337,4.72,0.582c0.511,0.042,0.767,0.215,0.767,0.521
			c0,0.817-0.067,2.053-0.199,3.708c-0.133,1.655-0.199,2.902-0.199,3.74c0,1.001,0.296,1.502,0.889,1.502
			c0.715,0,1.798-0.031,3.249-0.092c1.451-0.061,2.544-0.092,3.28-0.092c0.449,0,0.674,0.153,0.674,0.46
			c0,0.47-0.051,1.175-0.153,2.115c-0.103,0.94-0.153,1.645-0.153,2.115c0,0.491,0.01,1.206,0.031,2.146
			c0.02,0.94,0.031,1.655,0.031,2.146c0,0.429-0.296,0.644-0.889,0.644c-0.409,0-1.093-0.015-2.054-0.046s-1.645-0.046-2.053-0.046
			h-2.299c-0.307,0-0.46,0.45-0.46,1.349c0,0.49,0,1.216,0,2.176c0.02,0.981,0.031,1.707,0.031,2.176
			c0,1.716,0.194,2.902,0.582,3.556c0.552,0.878,1.635,1.318,3.249,1.318c0.511,0,1.242-0.117,2.192-0.353
			c0.95-0.235,1.619-0.353,2.008-0.353C243.508,45.607,243.723,45.832,243.723,46.281z"/>
	</g>
	<g>
		<path fill="#FFF" d="M278.481,27.4c0,1.513-0.072,3.781-0.215,6.805c-0.143,3.024-0.214,5.292-0.214,6.805
			c0,1.471,0.051,3.678,0.153,6.621c0.102,2.943,0.153,5.14,0.153,6.59c0,0.552-0.255,0.899-0.766,1.042
			c-0.777,0.204-2.421,0.307-4.935,0.307c-2.228,0-3.78-0.062-4.659-0.184c-0.389-0.061-0.634-0.307-0.736-0.735
			c-0.061-0.613-0.123-1.226-0.184-1.839c-0.102-0.939-0.245-1.41-0.429-1.41c0.286,0-0.747,0.695-3.096,2.084
			c-2.35,1.39-4.485,2.084-6.406,2.084c-5.416,0-8.624-2.442-9.625-7.326c-0.45-2.269-0.675-5.558-0.675-9.87
			c0-4.659,0.378-8.337,1.134-11.034c0.225-0.838,0.644-1.257,1.257-1.257c0.939,0,2.37,0.01,4.291,0.031
			c1.92,0.021,3.351,0.03,4.292,0.03c0.633,0,0.95,0.266,0.95,0.797c0,0.143-0.021,0.357-0.062,0.644
			c-0.429,2.779-0.644,5.599-0.644,8.46c0,3.555,0.112,5.987,0.337,7.295c0.368,2.248,1.706,3.372,4.016,3.372
			c0.899,0,1.875-0.398,2.927-1.195c1.052-0.797,1.599-1.625,1.64-2.483c0.041-0.756,0.062-5.885,0.062-15.387
			c0-0.674,0.051-1.073,0.153-1.195c0.123-0.204,0.49-0.307,1.103-0.307c1.001,0,2.508,0.011,4.521,0.031
			c2.012,0.021,3.52,0.031,4.521,0.031c0.613,0,0.97,0.153,1.073,0.46C278.46,26.828,278.481,27.073,278.481,27.4z"/>
	</g>
	<g>
		<path fill="#FFF" d="M303.861,36.166c0,0.797-0.439,1.195-1.318,1.195c-0.388,0-0.955-0.025-1.701-0.077
			c-0.746-0.051-1.303-0.077-1.67-0.077c-1.696,0-2.851,0.266-3.464,0.797c-0.613,0.532-0.92,1.604-0.92,3.218
			c0,0.879,0.016,2.212,0.047,4c0.03,1.789,0.046,3.122,0.046,4c0,0.593,0.04,1.477,0.122,2.651
			c0.082,1.175,0.123,2.049,0.123,2.621c0,0.49-0.338,0.766-1.012,0.828c-0.98,0.081-2.482,0.123-4.506,0.123
			c-1.941,0-3.494-0.062-4.659-0.184c-0.674-0.082-1.011-0.418-1.011-1.012c0-1.634,0.01-4.081,0.031-7.341
			c0.02-3.259,0.03-5.706,0.03-7.341c0-4.802-0.439-8.756-1.318-11.862c-0.041-0.184-0.061-0.337-0.061-0.46
			c0-0.306,0.153-0.51,0.459-0.613c1.124-0.123,2.769-0.347,4.935-0.674c3.229-0.633,4.894-0.95,4.996-0.95
			c0.368,0,0.603,0.644,0.705,1.931c0.102,1.287,0.286,1.931,0.552,1.931c-0.286,0,0.552-0.536,2.514-1.609
			c1.961-1.073,3.852-1.609,5.67-1.609c1.145,0,1.717,0.245,1.717,0.736c0,0.593-0.062,1.43-0.184,2.513
			c-0.123,1.165-0.194,2.003-0.215,2.514c0,0.593,0.01,1.379,0.03,2.36C303.84,34.981,303.861,35.778,303.861,36.166z"/>
	</g>
	<g>
		<path fill="#FFF" d="M335.524,38.618c0,2.064-0.665,3.239-1.993,3.525c-0.225,0.041-2.34,0.266-6.345,0.674
			c-2.411,0.266-6.008,0.582-10.789,0.95c0.286,1.329,1.154,2.34,2.605,3.034c1.185,0.572,2.533,0.858,4.046,0.858
			c1.818,0,3.647-0.49,5.486-1.471c0.776-0.491,1.553-0.981,2.33-1.471c0.429,0.204,1.149,1.247,2.16,3.126
			c1.012,1.88,1.518,3.076,1.518,3.586c0,0.143-0.153,0.378-0.46,0.705c-2.493,2.677-6.365,4.015-11.616,4.015
			c-4.864,0-8.787-1.42-11.771-4.26c-3.065-2.881-4.598-6.733-4.598-11.556c0-4.7,1.369-8.552,4.107-11.556
			c2.819-3.106,6.56-4.659,11.218-4.659c3.924,0,7.254,1.431,9.993,4.292C334.154,31.272,335.524,34.675,335.524,38.618z
			 M324.795,36.748c0-1.267-0.449-2.38-1.349-3.341c-0.899-0.96-1.973-1.44-3.219-1.44c-1.287,0-2.35,0.542-3.188,1.625
			c-0.776,1.001-1.165,2.176-1.165,3.525c0,0.552,0.286,0.828,0.858,0.828c1.512,0,3.862-0.235,7.05-0.705
			C324.458,37.137,324.795,36.973,324.795,36.748z"/>
	</g>
	<g>
		<path fill="#FFF" d="M395.141,54.281c0.041,0.552-0.245,0.828-0.858,0.828c-0.389,0-1.507-0.225-3.356-0.674
			c-1.85-0.449-2.988-0.756-3.417-0.919c-4.271,1.676-8.368,2.513-12.292,2.513c-6.313,0-11.494-2.104-15.54-6.314
			c-4.005-4.148-6.008-9.39-6.008-15.724c0-6.478,1.941-11.852,5.824-16.123c4.005-4.414,9.205-6.621,15.602-6.621
			c3.105,0,6.027,0.593,8.767,1.778c2.962,1.308,5.292,3.147,6.988,5.517c0.347,0.491,0.521,0.838,0.521,1.042
			c0,0.654-0.914,2.12-2.743,4.398c-1.829,2.279-3.009,3.417-3.54,3.417c-0.122,0-0.593-0.418-1.41-1.257
			c-1.001-1.001-2.022-1.777-3.064-2.329c-1.554-0.838-3.271-1.257-5.149-1.257c-3.065,0-5.498,1.145-7.296,3.433
			c-1.676,2.104-2.513,4.73-2.513,7.877c0,3.331,0.868,5.967,2.605,7.908c1.798,2.003,4.342,3.004,7.632,3.004
			c2.084,0,4.414-0.521,6.988-1.563c-0.062-0.674-0.245-2.391-0.552-5.149c-0.266-2.125-0.398-3.842-0.398-5.149
			c0-0.388,0.133-0.624,0.398-0.705c0.103-0.041,0.266-0.062,0.49-0.062c0.593,0,1.487,0.057,2.683,0.168
			c1.195,0.113,2.1,0.169,2.713,0.169c0.653,0,1.634-0.046,2.942-0.138c1.308-0.092,2.288-0.138,2.942-0.138
			c0.511,0,0.767,0.337,0.767,1.011c0,0.981-0.057,2.463-0.169,4.445s-0.169,3.463-0.169,4.444c0,2.636,0.194,6.58,0.583,11.832
			L395.141,54.281z"/>
	</g>
	<g>
		<path fill="#FFF" d="M430.022,39.936c0,1.574,0.092,3.913,0.275,7.019c0.185,3.106,0.276,5.436,0.276,6.989
			c0,0.817-0.357,1.256-1.073,1.318c-2.533,0.184-5.436,0.276-8.705,0.276c-0.388,0-0.648-0.587-0.781-1.763
			c-0.133-1.175-0.291-1.772-0.475-1.793c-0.164,0.082-0.379,0.256-0.645,0.521c-2.288,2.31-4.74,3.464-7.355,3.464
			c-3.985,0-7.285-1.573-9.901-4.72c-2.473-2.943-3.708-6.457-3.708-10.544c0-4.72,1.276-8.521,3.831-11.402
			c2.656-2.983,6.294-4.475,10.912-4.475c3.208,0,5.742,1.124,7.602,3.372c0.081,0.103,0.153,0.153,0.215,0.153
			c0.184,0,0.393-0.495,0.628-1.486c0.234-0.991,0.516-1.487,0.843-1.487c0.756,0,2.196,0.215,4.322,0.644
			c2.022,0.409,3.474,0.756,4.353,1.042c0.307,0.123,0.46,0.286,0.46,0.49c0,0.082-0.031,0.296-0.093,0.644
			C430.348,31.895,430.022,35.809,430.022,39.936z M420.152,40.12c0-1.737-0.547-3.173-1.64-4.307
			c-1.094-1.134-2.519-1.701-4.275-1.701c-1.758,0-3.178,0.562-4.261,1.686c-1.084,1.124-1.625,2.565-1.625,4.322
			c0,1.655,0.572,3.076,1.717,4.26c1.145,1.186,2.533,1.778,4.169,1.778c1.736,0,3.156-0.567,4.26-1.701
			S420.152,41.878,420.152,40.12z"/>
	</g>
	<g>
		<path fill="#FFF" d="M485.103,54.128c0,0.716-0.307,1.114-0.92,1.196c-0.613,0.081-2.126,0.123-4.536,0.123
			c-2.494,0-4.046-0.062-4.659-0.184s-0.92-0.623-0.92-1.502c0-0.939,0.031-2.345,0.092-4.214c0.062-1.87,0.092-3.274,0.092-4.215
			c0-3.576-0.041-6.12-0.122-7.632c-0.123-2.431-1.277-3.647-3.464-3.647c-0.961,0-1.915,0.404-2.865,1.211
			c-0.951,0.808-1.477,1.701-1.579,2.682c-0.082,0.858-0.122,3.372-0.122,7.54c0,0.961,0.03,2.417,0.092,4.368
			c0.061,1.952,0.092,3.418,0.092,4.398c0,0.674-0.297,1.012-0.889,1.012h-9.288c-0.572,0-0.858-0.418-0.858-1.257
			c0-0.96,0.031-2.401,0.093-4.322c0.061-1.92,0.092-3.372,0.092-4.353c0-0.756-0.021-1.9-0.062-3.433
			c-0.041-1.532-0.062-2.687-0.062-3.463c0-2.922-1.113-4.383-3.341-4.383c-0.899,0-1.87,0.348-2.912,1.042
			c-1.145,0.756-1.716,1.553-1.716,2.391c0,1.86,0.01,4.639,0.03,8.337s0.03,6.467,0.03,8.306c0,0.511-0.061,0.828-0.184,0.95
			s-0.439,0.204-0.95,0.246c-0.92,0.081-2.371,0.123-4.353,0.123c-1.287,0-2.748-0.062-4.383-0.184
			c-0.49-0.041-0.782-0.112-0.874-0.214s-0.138-0.409-0.138-0.92c0-1.634,0.01-4.081,0.03-7.341
			c0.021-3.259,0.031-5.706,0.031-7.341c0-3.351-0.245-7.121-0.736-11.31c-0.041-0.245-0.061-0.429-0.061-0.552
			c0-0.347,0.143-0.583,0.429-0.705c0.449-0.184,1.298-0.337,2.544-0.46c1.533-0.143,2.441-0.234,2.729-0.276
			c0.204-0.041,1.011-0.255,2.421-0.644c1.001-0.286,1.809-0.429,2.422-0.429c0.388,0,0.592,0.71,0.613,2.13
			c0.02,1.42,0.102,2.13,0.245,2.13c0.204-0.082,0.438-0.225,0.705-0.429c1.839-1.43,3.289-2.411,4.353-2.942
			c1.573-0.756,3.279-1.134,5.118-1.134c1.88,0,3.556,0.419,5.027,1.257c1.655,0.94,2.728,2.258,3.218,3.954
			c1.083-1.471,2.575-2.708,4.476-3.709c1.9-1.001,3.749-1.502,5.548-1.502c2.697,0,4.894,0.624,6.59,1.87
			c1.921,1.41,2.882,3.423,2.882,6.039c0,1.083-0.031,2.712-0.093,4.889c-0.061,2.176-0.092,3.806-0.092,4.889
			c0,1.287,0.031,3.224,0.092,5.809C485.072,50.905,485.103,52.841,485.103,54.128z"/>
	</g>
	<g>
		<path fill="#FFF" d="M519.004,38.618c0,2.064-0.665,3.239-1.993,3.525c-0.225,0.041-2.34,0.266-6.345,0.674
			c-2.411,0.266-6.008,0.582-10.789,0.95c0.286,1.329,1.154,2.34,2.605,3.034c1.185,0.572,2.533,0.858,4.046,0.858
			c1.818,0,3.647-0.49,5.486-1.471c0.776-0.491,1.553-0.981,2.33-1.471c0.429,0.204,1.149,1.247,2.16,3.126
			c1.012,1.88,1.518,3.076,1.518,3.586c0,0.143-0.153,0.378-0.46,0.705c-2.493,2.677-6.365,4.015-11.616,4.015
			c-4.864,0-8.787-1.42-11.771-4.26c-3.065-2.881-4.598-6.733-4.598-11.556c0-4.7,1.369-8.552,4.107-11.556
			c2.819-3.106,6.56-4.659,11.218-4.659c3.924,0,7.254,1.431,9.993,4.292C517.634,31.272,519.004,34.675,519.004,38.618z
			 M508.276,36.748c0-1.267-0.449-2.38-1.349-3.341c-0.899-0.96-1.973-1.44-3.219-1.44c-1.287,0-2.35,0.542-3.188,1.625
			c-0.776,1.001-1.165,2.176-1.165,3.525c0,0.552,0.286,0.828,0.858,0.828c1.512,0,3.862-0.235,7.05-0.705
			C507.939,37.137,508.276,36.973,508.276,36.748z"/>
	</g>
</g>
<g>
	<g>
		<path fill="#FFF" d="M221.201,95.161c0,4.148-1.747,7.704-5.241,10.667c-3.065,2.615-6.794,4.28-11.188,4.996
			c-0.164,0.02-0.296,0.03-0.398,0.03c-0.47,0-1.512-1.436-3.126-4.307c-1.614-2.87-2.421-4.623-2.421-5.257
			c0-0.225,0.153-0.367,0.46-0.429c2.962-0.675,4.924-1.246,5.885-1.717c2.125-1.063,3.188-2.636,3.188-4.72
			c0-1.328-0.695-2.81-2.084-4.445c-2.411-2.778-3.719-4.321-3.923-4.628c-1.41-2.125-2.115-4.475-2.115-7.05
			c0-3.739,1.727-6.846,5.18-9.318c2.82-2.043,6.283-3.371,10.391-3.984c0.225-0.021,0.398-0.03,0.521-0.03
			c0.307,0,0.552,0.245,0.736,0.735c0.531,1.492,1.767,4.189,3.708,8.092c0.062,0.123,0.092,0.226,0.092,0.307
			c0,0.348-0.184,0.521-0.552,0.521c-0.164,0-0.44-0.031-0.828-0.093c-0.389-0.061-0.685-0.092-0.889-0.092
			c-1.471,0-2.758,0.337-3.862,1.012c-1.329,0.776-1.992,1.859-1.992,3.249c0,1.247,0.735,2.779,2.207,4.598
			c2.595,3.27,3.954,4.986,4.077,5.149C220.475,90.697,221.201,92.934,221.201,95.161z"/>
	</g>
	<g>
		<path fill="#FFF" d="M246.581,100.281c0,0.612-0.077,1.543-0.23,2.789s-0.23,2.161-0.23,2.743s-0.061,0.955-0.184,1.119
			c-0.123,0.163-0.46,0.398-1.012,0.704c-2.636,1.451-5.559,2.177-8.766,2.177c-5.906,0-8.858-2.258-8.858-6.774
			c0-1.349,0.051-3.376,0.153-6.084c0.102-2.707,0.153-4.735,0.153-6.084c0-0.899-0.521-1.349-1.563-1.349c-0.082,0-0.214,0-0.398,0
			c-0.184,0.021-0.317,0.03-0.398,0.03c-0.777,0-1.165-0.275-1.165-0.827c0-0.327,0.025-0.828,0.077-1.502
			c0.051-0.675,0.077-1.175,0.077-1.502c0-0.43-0.026-1.083-0.077-1.962c-0.051-0.879-0.077-1.532-0.077-1.962
			c0-0.408,0.654-0.633,1.962-0.674c0.736-0.021,1.134-0.225,1.195-0.613c0.123-0.776,0.164-2.003,0.123-3.679
			c-0.082-2.636-0.123-3.893-0.123-3.77c0-2.37,0.225-3.556,0.674-3.556c0.552,0,1.338,0.122,2.36,0.368
			c1.165,0.266,1.972,0.419,2.421,0.459c1.042,0.144,2.615,0.338,4.72,0.583c0.511,0.041,0.767,0.214,0.767,0.521
			c0,0.817-0.067,2.054-0.199,3.709c-0.133,1.655-0.199,2.902-0.199,3.739c0,1.002,0.296,1.502,0.889,1.502
			c0.715,0,1.798-0.03,3.249-0.092c1.451-0.062,2.544-0.092,3.28-0.092c0.449,0,0.674,0.153,0.674,0.46
			c0,0.47-0.051,1.175-0.153,2.115c-0.103,0.939-0.153,1.645-0.153,2.114c0,0.49,0.01,1.206,0.031,2.146
			c0.02,0.94,0.031,1.655,0.031,2.146c0,0.43-0.296,0.645-0.889,0.645c-0.409,0-1.093-0.016-2.054-0.047
			c-0.96-0.03-1.645-0.046-2.053-0.046h-2.299c-0.307,0-0.46,0.45-0.46,1.349c0,0.491,0,1.217,0,2.177
			c0.02,0.98,0.031,1.706,0.031,2.176c0,1.717,0.194,2.902,0.582,3.556c0.552,0.879,1.635,1.318,3.249,1.318
			c0.511,0,1.242-0.117,2.192-0.353c0.95-0.234,1.619-0.353,2.008-0.353C246.366,99.606,246.581,99.831,246.581,100.281z"/>
	</g>
	<g>
		<path fill="#FFF" d="M281.339,81.399c0,1.513-0.072,3.781-0.215,6.805c-0.143,3.024-0.214,5.293-0.214,6.805
			c0,1.472,0.051,3.678,0.153,6.621c0.102,2.942,0.153,5.139,0.153,6.59c0,0.552-0.255,0.899-0.766,1.042
			c-0.777,0.204-2.421,0.307-4.935,0.307c-2.228,0-3.78-0.062-4.659-0.184c-0.389-0.062-0.634-0.307-0.736-0.736
			c-0.061-0.612-0.123-1.226-0.184-1.839c-0.102-0.939-0.245-1.41-0.429-1.41c0.286,0-0.747,0.695-3.096,2.085
			c-2.35,1.39-4.485,2.084-6.406,2.084c-5.416,0-8.624-2.441-9.625-7.326c-0.45-2.268-0.675-5.558-0.675-9.869
			c0-4.659,0.378-8.338,1.134-11.035c0.225-0.837,0.644-1.257,1.257-1.257c0.939,0,2.37,0.011,4.291,0.031
			c1.92,0.021,3.351,0.03,4.292,0.03c0.633,0,0.95,0.266,0.95,0.797c0,0.144-0.021,0.358-0.062,0.644
			c-0.429,2.779-0.644,5.6-0.644,8.46c0,3.556,0.112,5.988,0.337,7.295c0.368,2.248,1.706,3.372,4.016,3.372
			c0.899,0,1.875-0.398,2.927-1.195c1.052-0.797,1.599-1.625,1.64-2.482c0.041-0.756,0.062-5.886,0.062-15.388
			c0-0.674,0.051-1.072,0.153-1.195c0.123-0.204,0.49-0.307,1.103-0.307c1.001,0,2.508,0.011,4.521,0.031
			c2.012,0.021,3.52,0.03,4.521,0.03c0.613,0,0.97,0.153,1.073,0.46C281.318,80.827,281.339,81.073,281.339,81.399z"/>
	</g>
	<g>
		<path fill="#FFF" d="M318.887,65.767c0-0.449-0.082,0.225-0.245,2.022c-0.226,2.269-0.398,5.17-0.521,8.705
			c-0.164,4.006-0.245,8.563-0.245,13.671c0,8.439,0.234,14.447,0.705,18.022c0.041,0.389,0.062,0.634,0.062,0.736
			c0,0.225-0.153,0.357-0.46,0.398c-0.735,0.102-3.443,0.153-8.123,0.153c-1.104,0-1.737-0.215-1.9-0.644
			c-0.041-0.776-0.082-1.553-0.122-2.33c-0.021-0.163-0.103-0.326-0.245-0.49c-0.123,0.062-0.276,0.184-0.46,0.368
			c-2.207,2.166-4.966,3.249-8.276,3.249c-4.312,0-7.765-1.513-10.36-4.537c-2.473-2.881-3.708-6.518-3.708-10.911
			c0-4.455,1.215-8.123,3.647-11.004c2.574-3.065,6.048-4.599,10.421-4.599c3.086,0,5.487,0.981,7.203,2.943
			c0.286,0.327,0.49,0.49,0.613,0.49c0.184,0,0.275-0.266,0.275-0.797c0-1.573-0.041-3.924-0.122-7.05
			c-0.082-3.127-0.123-5.466-0.123-7.02c0-0.593,0.164-0.93,0.491-1.012c1.307-0.061,3.105-0.184,5.395-0.367
			c4.087-0.511,5.895-0.767,5.425-0.767C318.662,65,318.887,65.256,318.887,65.767z M307.332,93.935
			c0-1.613-0.563-3.028-1.686-4.245c-1.125-1.215-2.483-1.823-4.077-1.823c-1.676,0-3.009,0.608-4,1.823
			c-0.991,1.217-1.486,2.672-1.486,4.368c0,1.655,0.5,3.055,1.502,4.199c1.021,1.227,2.35,1.839,3.984,1.839
			s3.004-0.612,4.107-1.839C306.78,97.031,307.332,95.59,307.332,93.935z"/>
	</g>
	<g>
		<path fill="#FFF" d="M334.764,95.192c0,1.492,0.031,3.715,0.092,6.667c0.062,2.953,0.092,5.165,0.092,6.636
			c0,0.43-0.255,0.686-0.766,0.767c-0.695,0.123-2.259,0.184-4.689,0.184c-2.452,0-4.026-0.061-4.721-0.184
			c-0.45-0.081-0.726-0.215-0.828-0.398c-0.041-0.081-0.061-0.388-0.061-0.92c0-1.409,0.03-3.529,0.092-6.359
			s0.092-4.961,0.092-6.392c0-5.803-0.225-10.421-0.674-13.854c-0.042-0.326-0.062-0.541-0.062-0.644
			c0-0.408,0.275-0.613,0.827-0.613c0.572,0,1.445,0.062,2.621,0.185c1.175,0.122,2.059,0.184,2.651,0.184
			c0.592,0,1.481-0.051,2.666-0.153c1.186-0.102,2.074-0.153,2.667-0.153c0.49,0,0.735,0.205,0.735,0.613
			c0,0.082-0.021,0.275-0.061,0.582C334.989,85.323,334.764,89.941,334.764,95.192z M335.561,72.418
			c0,3.556-2.003,5.333-6.008,5.333c-1.716,0-3.137-0.449-4.26-1.349c-1.227-0.98-1.84-2.309-1.84-3.984
			c0-1.594,0.634-2.901,1.9-3.924c1.165-0.939,2.564-1.41,4.199-1.41c1.594,0,2.974,0.48,4.139,1.441
			C334.938,69.547,335.561,70.845,335.561,72.418z"/>
	</g>
	<g>
		<path fill="#FFF" d="M370.167,94.181c0,4.658-1.425,8.439-4.275,11.341s-6.596,4.353-11.234,4.353
			c-4.495,0-8.194-1.431-11.096-4.291c-2.901-2.861-4.353-6.539-4.353-11.035c0-4.74,1.39-8.587,4.169-11.54
			c2.778-2.953,6.539-4.43,11.279-4.43c4.618,0,8.357,1.446,11.219,4.338C368.736,85.808,370.167,89.563,370.167,94.181z
			 M360.113,94.181c0-1.614-0.501-3.04-1.502-4.276s-2.299-1.854-3.893-1.854c-1.614,0-2.942,0.634-3.984,1.9
			c-0.981,1.186-1.472,2.596-1.472,4.23c0,1.654,0.49,3.075,1.472,4.26c1.042,1.268,2.37,1.9,3.984,1.9
			c1.594,0,2.912-0.633,3.954-1.9C359.632,97.256,360.113,95.835,360.113,94.181z"/>
	</g>
</g>
</svg>
