<svg enable-background="new 0 0 3839 502.1" version="1.1" viewBox="0 0 3839 502.1" xml:space="preserve" xmlns="http://www.w3.org/2000/svg">
<path fill="#C2AC6D" d="m3308.8008 0s-8.8016 33.5-28.1016 33.5c-25.1 0-56.6989-26.5996094-136.7988-26.5996094-114.7999 0-217.0996 112.1005294-217.0996 247.9003894 0 172.39983 115.2001 247.39844 231.5 247.39844 64.4999 0 134.2985-36.99967 175.3984-97.59961v-76.09961c-30.1 58.49994-89.9993 120.69922-155.1992 120.69922-44 0-88.8004-20.7985-109.4004-77.39844-10.6-29.09997-14.1992-67.90122-14.1992-119.20117 0.1-72.29993 19.1989-194.699219 120.2988-194.699219 73.9999 0 118.9012 67.600049 129.2012 116.999999h29.4004v-174.90039h-25zm-1559.6016 0.19921875c-120.8999 0-223.7988 111.9016912-223.7988 245.6015612 0 153.99985 116.2997 244.19922 241.0996 244.19922 59.1999 0 121.8997-13.70081 171.5996-38.80078v-127.19922c0-29.79997 20.8008-38.80078 48.8008-38.80078v-22.69922h-215.3008v22.69922h17.8008c28.9 0 37 13.9008 37 38.80078v111.30078c-6.6 7.99999-29.1 18.19922-61 18.19922-6.5 0-43.3008-0.7008-70.8008-23.30078-28.8-23.59998-48.1992-71.49894-48.1992-185.29883 0-148.199851 52.0993-210.90039 127.6992-210.90039 24.6 0 107.9004 16.599326 143.4004 123.69922h22.1992v-154.5000012h-21c-2.7 20.7999792-19.0996 32.3003772-50.0996 19.4003902-46.7999-19.4999801-88.7004-22.40039025-119.4004-22.40039025zm-602.7988 6.80078125c-135.4999 0-239.80079 99.79936-239.80079 243.19922s104.40089 243.20117 239.80079 243.20117c135.4999 0 239.9004-99.80131 239.9004-243.20117s-104.4005-243.19922-239.9004-243.19922zm1503.1992 0c-135.4999 0-239.7988 99.79936-239.7988 243.19922s104.3989 243.20117 239.7988 243.20117c135.4999 0 239.9004-99.80131 239.9004-243.20117s-104.4005-243.19922-239.9004-243.19922zm701.5 3.900391v34.298828h9.0996c44.5 0 53.6016 16.700411 53.6016 37.40039v340.500001c0 20.59998-9.2016 37.40039-53.6016 37.40039h-9.7988v34.30078h74.9004 101.5996 79.4004c118.7999 0 232.8984-83.00055 232.8984-241.90039-0.2-167.899831-127.4997-241.999999-233.0996-241.999999h-255zm-3351.0996 1v18.798828c33.299967 0 59.5 30.000424 59.5 63.40039v325.500001c0 33.29997-35.100024 44.30078-59.5 44.30078v18.79883h161.80078v-18.79883c-30.29997-0.2-46.30118-4.29962-56.70117-14.09961-10.29999-9.79999-13.09961-22.80158-13.09961-40.60156v-305.09961l316 385.30078h17.30078v-409.999999c0-24.299976 19.00003-44.900392 47-45.900391v-21.599609h-143.20117v18.798828h18.70117c24.99998 0 45.29883 23.300806 45.29883 48.300781v232.30078l-244.09961-299.400389h-149zm486.09961 0v18.699218h26.5c20.29998 0 36.70117 19.200411 36.70117 39.400391v346.59961c0 36.49996-23.90119 44.80078-44.20117 44.80078h-19v21.40039h63.20117 317.79883l21.40039-145.40039h-18.5c-11.69999 64.49994-67.29928 114.89883-129.69922 113.29883h-53.80078c-16.89998 0-30.59961-13.69963-30.59961-30.59961v-165.09961h14.79883c43.99995 0 72.10156 36.90084 72.10156 100.30078h19.19922v-112.40039-5.70117-110.29883h-19.30078c0 55.79994-23.59927 96.09961-72.19922 96.09961h-14.80078v-182.900391h77.40039c104.1999 0 107.80078 92.900401 107.80078 104.900391h20.79883v-100.900391-32.199218h-375.59961zm1503.30079 0v18.699218h26.5c20.3 0 36.6992 19.200411 36.6992 39.400391v346.59961c0 36.49996-23.8992 44.80078-44.1992 44.80078h-19v21.40039h63.1992 317.8008l21.4004-145.40039h-18.5c-11.7 64.49994-67.3013 114.89883-129.7012 113.29883h-53.7988c-16.9 0-30.6016-13.69963-30.6016-30.59961v-165.09961h14.8008c44 0 72.0996 36.90084 72.0996 100.30078h19.3008v-112.40039-5.70117-110.29883h-19.4004c0 55.79994-23.5993 96.09961-72.1992 96.09961h-14.8008v-182.900391h77.4004c104.1999 0 107.7988 92.900401 107.7988 104.900391h20.8008v-100.900391-32.199218h-375.5996zm1329.4004 1.90039h1.1992v146.999999h-4.5996c-16.8-58.59994-69.1997-116.999999-140.0996-116.999999-124.4999 0.1-134.2012 159.798879-134.2012 208.798829 0 57.19994 4.6 95.40042 15 123.90039 20 54.99995 64.7001 86.59961 122.5 86.59961 54.5 0 105.7008-39.00044 141.3008-86.40039v23.5c-38.1 53.59995-101.0001 88-161.5 88-100.3999 0-217.5996-61.10017-217.5996-233.5 0-61.69994 22-120.59966 62-165.599611 38.4999-43.399956 89.9993-68.40039 141.1992-68.40039 49 0 78.9008 10.400007 100.8008 18 13.8 4.799995 24.7 8.601562 36 8.601562 20.9 0 32.6-20.400013 38-33.5zm46.2988 11.09961h241.0996c53.8 0 107.3008 19.899644 146.8008 54.599609 47.2 41.39996 72.0996 101.40007 72.0996 173.5 0 156.49984-113.5001 227.90039-219 227.90039h-241.7988v-6.5c42.0999-1 63.5-18.3012 63.5-51.20117v-340.599611c0-32.799967-21.1012-49.99922-62.7012-51.199218v-6.5zm-2218.6992 13.40039c65.0999 0 117.7988 59.598981 117.7988 211.798829 0.1 152.19985-52.6989 211.80078-117.7988 211.80078s-117.8008-59.60093-117.8008-211.80078c0-152.199848 52.8009-211.798829 117.8008-211.798829zm1503.1992 0c65.0999 0 117.8008 59.598981 117.8008 211.798829 0.2 152.19985-52.7009 211.80078-117.8008 211.80078s-117.7988-59.60093-117.7988-211.80078c0-152.199848 52.7989-211.798829 117.7988-211.798829zm876.0996 1.5v381.798829c0 20.39998 16.6 36.90039 37 36.90039h33.4004c41.3 0 81.1008-25.99965 98.8008-64.59961 25.8-56.19994 27.7988-125.40119 27.7988-145.20117-0.1-9.89999-0.9988-97.89928-35.2988-156.19922-18.8-31.999968-57.1004-52.699219-97.4004-52.699219h-64.3008zm13.9004 13.898438h50.4004c35.5 0 69.1004 18.000418 85.4004 45.90039 32.3 55.099941 33.2988 139.600011 33.2988 149.000001 0 19.19998-1.9 85.80044-26.5 139.40039-15.5 33.79997-50.1992 56.5-86.1992 56.5h-33.4004c-12.7 0-23-10.30001-23-23v-367.800781zm-2083.7988 137.500001a54.599998 54.599998 0 0 0-54.6016 54.60156 54.599998 54.599998 0 0 0 54.6016 54.59961 54.599998 54.599998 0 0 0 54.5996-54.59961 54.599998 54.599998 0 0 0-54.5996-54.60156z"/>
</svg>
