<?xml version="1.0" encoding="utf-8"?>
<!-- Generator: Adobe Illustrator 26.0.1, SVG Export Plug-In . SVG Version: 6.00 Build 0)  -->
<svg version="1.1" id="Layer_1" xmlns="http://www.w3.org/2000/svg" xmlns:xlink="http://www.w3.org/1999/xlink" x="0px" y="0px"
	 viewBox="0 0 3839 502.1" style="enable-background:new 0 0 3839 502.1;" xml:space="preserve">
<style type="text/css">
	.st0{fill:#FFFFFF;}
	.st1{fill:#C2AC6D;}
	.st2{fill:#FCEA3C;}
	.st3{fill:#299DD8;}
</style>
<g>
	<g>
		<g>
			<g>
				<g>
					<g>
						<path d="M3687.4,92.5c-18.8-32-57.1-52.7-97.4-52.7h-64.3v381.8c0,20.4,16.6,36.9,37,36.9h33.4c41.3,0,81.1-26,98.8-64.6
							c25.8-56.2,27.8-125.4,27.8-145.2C3722.6,238.8,3721.7,150.8,3687.4,92.5z M3682.2,388c-15.5,33.8-50.2,56.5-86.2,56.5h-33.4
							c-12.7,0-23-10.3-23-23V53.7h50.4c35.5,0,69.1,18,85.4,45.9c32.3,55.1,33.3,139.6,33.3,149
							C3708.7,267.8,3706.8,334.4,3682.2,388z"/>
						<path d="M3606.1,10.9h-255v34.3h9.1c44.5,0,53.6,16.7,53.6,37.4v340.5c0,20.6-9.2,37.4-53.6,37.4h-9.8v34.3h74.9h101.6h79.4
							c118.8,0,232.9-83,232.9-241.9C3839,85,3711.7,10.9,3606.1,10.9z M3606.1,480.9h-241.8v-6.5c42.1-1,63.5-18.3,63.5-51.2V82.6
							c0-32.8-21.1-50-62.7-51.2v-6.5h241.1c53.8,0,107.3,19.9,146.8,54.6c47.2,41.4,72.1,101.4,72.1,173.5
							C3825.1,409.5,3711.6,480.9,3606.1,480.9z"/>
					</g>
					<path d="M3175.2,57.9c74,0,118.9,67.6,129.2,117h29.4V0h-25c0,0-8.8,33.5-28.1,33.5c-25.1,0-56.7-26.6-136.8-26.6
						c-114.8,0-217.1,112.1-217.1,247.9c0,172.4,115.2,247.4,231.5,247.4c64.5,0,134.3-37,175.4-97.6v-76.1
						c-30.1,58.5-90,120.7-155.2,120.7c-44,0-88.8-20.8-109.4-77.4c-10.6-29.1-14.2-67.9-14.2-119.2
						C3055,180.3,3074.1,57.9,3175.2,57.9z M3041.1,252.6c0,57.2,4.6,95.4,15,123.9c20,55,64.7,86.6,122.5,86.6
						c54.5,0,105.7-39,141.3-86.4v23.5c-38.1,53.6-101,88-161.5,88c-100.4,0-217.6-61.1-217.6-233.5c0-61.7,22-120.6,62-165.6
						c38.5-43.4,90-68.4,141.2-68.4c49,0,78.9,10.4,100.8,18c13.8,4.8,24.7,8.6,36,8.6c20.9,0,32.6-20.4,38-33.5h1.2v147h-4.6
						c-16.8-58.6-69.2-117-140.1-117C3050.8,43.9,3041.1,203.6,3041.1,252.6z"/>
				</g>
			</g>
			<path d="M472.3,11.9H329.1v18.8h18.7c25,0,45.3,23.3,45.3,48.3v232.3L149,11.9H0v18.8c33.3,0,59.5,30,59.5,63.4v325.5
				c0,33.3-35.1,44.3-59.5,44.3v18.8h161.8v-18.8c-30.3-0.2-46.3-4.3-56.7-14.1C94.8,440,92,427,92,409.2V104.1l316,385.3h17.3v-410
				c0-24.3,19-44.9,47-45.9V11.9z"/>
			<circle cx="1455.8" cy="245.8" r="54.6"/>
			<g>
				<path d="M1771.6,262.5v22.7h17.8c28.9,0,37,13.9,37,38.8v111.3c-6.6,8-29.1,18.2-61,18.2c-6.5,0-43.3-0.7-70.8-23.3
					c-28.8-23.6-48.2-71.5-48.2-185.3c0-148.2,52.1-210.9,127.7-210.9c24.6,0,107.9,16.6,143.4,123.7h22.2V3.2h-21
					c-2.7,20.8-19.1,32.3-50.1,19.4c-46.8-19.5-88.7-22.4-119.4-22.4c-120.9,0-223.8,111.9-223.8,245.6
					c0,154,116.3,244.2,241.1,244.2c59.2,0,121.9-13.7,171.6-38.8V324c0-29.8,20.8-38.8,48.8-38.8v-22.7L1771.6,262.5L1771.6,262.5z
					"/>
			</g>
			<g>
				<path d="M870,337.4c-11.7,64.5-67.3,114.9-129.7,113.3h-53.8c-16.9,0-30.6-13.7-30.6-30.6V255h14.8c44,0,72.1,36.9,72.1,100.3
					H762V242.9v-5.7V126.9h-19.3c0,55.8-23.6,96.1-72.2,96.1h-14.8V40.1h77.4c104.2,0,107.8,92.9,107.8,104.9h20.8V44.1V11.9H486.1
					v18.7h26.5c20.3,0,36.7,19.2,36.7,39.4v346.6c0,36.5-23.9,44.8-44.2,44.8h-19v21.4h63.2h317.8l21.4-145.4H870z"/>
				<g>
					<g>
						<path d="M1146.4,7c-135.5,0-239.8,99.8-239.8,243.2s104.4,243.2,239.8,243.2c135.5,0,239.9-99.8,239.9-243.2
							S1281.9,7,1146.4,7z M1146.4,461.9c-65.1,0-117.8-59.6-117.8-211.8s52.8-211.8,117.8-211.8c65.1,0,117.8,59.6,117.8,211.8
							C1264.3,402.3,1211.5,461.9,1146.4,461.9z"/>
					</g>
				</g>
			</g>
			<g>
				<path d="M2373.3,337.4c-11.7,64.5-67.3,114.9-129.7,113.3h-53.8c-16.9,0-30.6-13.7-30.6-30.6V255h14.8
					c44,0,72.1,36.9,72.1,100.3h19.3V242.9v-5.7V126.9H2246c0,55.8-23.6,96.1-72.2,96.1H2159V40.1h77.4
					c104.2,0,107.8,92.9,107.8,104.9h20.8V44.1V11.9h-375.6v18.7h26.5c20.3,0,36.7,19.2,36.7,39.4v346.6c0,36.5-23.9,44.8-44.2,44.8
					h-19v21.4h63.2h317.8l21.4-145.4H2373.3z"/>
				<g>
					<g>
						<path d="M2649.6,7c-135.5,0-239.8,99.8-239.8,243.2s104.4,243.2,239.8,243.2c135.5,0,239.9-99.8,239.9-243.2
							S2785.1,7,2649.6,7z M2649.6,461.9c-65.1,0-117.8-59.6-117.8-211.8s52.8-211.8,117.8-211.8c65.1,0,117.8,59.6,117.8,211.8
							C2767.6,402.3,2714.7,461.9,2649.6,461.9z"/>
					</g>
				</g>
			</g>
		</g>
	</g>
</g>
</svg>
