<svg enable-background="new 0 0 3840 462.2" version="1.1" viewBox="0 0 3840 462.2" xml:space="preserve" xmlns="http://www.w3.org/2000/svg">
<path d="m2514.6094-0.060546875c-30.7681-0.478127575-62.375 7.341815075-86.6094 25.56054688-48.7 36.599963-148.4 143.79935-146 271.19922-1 35.09996 9.3008 60.60156 9.3008 60.60156s18.1993 62.99924 81.1992 87.69922c38.4 15.89998 96.1992 13 96.1992 13h109c23.3771 0 45.4553-31.20076 43.2598-58.22461 30.0847 29.81959 74.2549 45.48593 124.8418 46.52539 114.8739 2.3767 195.1823-70.67944 205.666-170.76758 2.7387 43.97694 4.8725 78.43871 6.5332 104.56641 1.3 20.59998-6.5 68.0004 20.5 77.90039 41.2 15.09998 108.6993-41.90078 190.1992-44.30078 9.2632-0.27592 17.7929-5.56194 24.4434-13.53711 27.4691 29.97059 67.8651 47.21315 120.7578 45.63867 74.0053-2.21462 189.8188-62.27727 207.2812-159.0664 0.3183 17.53456 0.3317 37.31419-0.082 60.36523-0.3 16.89998-12.0004 24.10119-13.4004 40.70117-1.5 17.89998 4.9012 65.39844 55.2012 67.39844 43.2999 1.8 50.9004-35.49845 50.9004-50.89844v-71.5s117.3996 98.59885 137.5996 115.79883c10.9 9.29999 24.9988 14.60078 39.2988 13.30078 10.9-1 23.3016-5.50001 35.6016-17.5 24.9-24.49997 9.9992-53.10118 1.1992-65.70117-2.6-3.7-5.6996-6.99844-9.0996-9.89844-16-13.69999-76.9001-65.7016-122.5-103.10156 35.6-19.39998 52.6992-32.79883 52.6992-32.79883s49.4996-32.80005 60.0996-83c8.1-48.19995-0.9997-73.400033-70.5996-107.499999-55.2999-27.099973-170.6004-51.3010866-231.9004 34.298828-14.2 19.79998-14.1988 50.300401-8.2988 65.900391 6.7307 17.75353 12.9946 33.78869 17.3711 61.62891-19.9264-66.34063-75.5769-115.356647-161.0723-115.828129-113.3999-0.6-204.6992 64.298949-204.1992 184.798829 0.0537 13.61835 1.1438 26.7302 3.1934 39.25195-14.7701-1.26499-33.0161 0.21383-55.3926 5.54883-32.6 7.79999-58.4004 21.19922-58.4004 21.19922l-4.9004-188.09961c-0.3-9.09999-0.9996-18.09962-2.0996-27.09961-3.2-24.299976-10.8004-70.499627-23.9004-88.599609-21.9-30.1999702-67.8-31.6007523-82.5-2.300782-10 19.89998-8.7 53.89965 7 94.099611 8 20.39998 12.0992 42.10002 13.1992 64 0 0 0.9794 15.65011 1.127 18.02539-17.2705-72.70449-75.6104-129.2404-154.9258-131.824219-101.2999-3.299997-199.6008 85.898929-211.3008 187.298829-4.7166 40.85436 1.3738 74.947 15.582 102.16016-10.9721-4.78229-26.0784-7.04449-46.2812-5.35938-45.9 3.8-180.0008 38.59949-177.3008-77.40039 2.1-93.19991 91.3004-176.5004 131.9004-186.400391 7.5-1.799998 14.9004 2.700011 17.4004 10.000001 11.1 32.59997 55.8004 49.30114 85.4004 21.70117 10.7-9.99999 13.9992-22.99964 16.6992-50.599609 4.5281-46.790578-51.1516-77.94853887-109.8906-78.86132788zm-2257.47463 21.29101588c-63.15917-0.614184-114.47153 21.451195-152.83399 45.169922-75.999923 46.999949-112.5007703 118.699709-102.80078 216.099609 11.299989 112.99989 157.59973 184.19993 281.59961 112.5 1.43809-0.83888 2.04882-1.27861 3.00977-1.88672l-11.70899 26.58594h83.19922l52.20117-116h92.09961l20.40039 116h135.5l69.09961-217 44.29883 217h53.10156l103.59961-240 10.59961 240h79.6992l-16.8984-387.798829h-95.60158l-90.29883 212.499999-39-212.499999h-78.80078l-101.79883 313.499999-52.30078-313.499999h-98.30078l-148.99805 338.300779 22.29883-141.70117h-147.80078l-11.29883 72.59961h61.79883l-7.09961 39c-35.39997 14.19999-95.59885 8.90073-121.298829-37.19922-16.199984-29.09997-31.300713-94.19967 37.199219-154.09961 55.79994-48.69995 152.29967-57.500754 208.09961-31.80078 0 0 7.1004-40.800429 12.40039-78.900391-33.49997-11.624988-64.65652-16.589966-93.36523-16.86914zm1602.53123 10.470703c-77.0437 1.274217-149.9539 66.899312-171.5664 160.699218-24.8 107.29989 26.6997 210.69963 115.0996 231.09961 88.2999 20.39998 180.0012-49.99933 204.7012-157.19922 24.8-107.19989-26.7997-210.701582-115.0996-231.101561-11.0375-2.549998-22.1285-3.680078-33.1348-3.498047zm-773.2656 0.199219-62 387.798829h222.2988l13.3008-83.19922h-139.0996l11.0996-69.09961h120.9004l13.2988-83.20117h-122.2988l10.6992-69.09961h139l13.3008-83.199219h-220.5zm882.9004 0 93.8984 204.499999-28.8984 183.29883h79.6992l24.4004-162 143.5-225.798829h-93l-78.8008 126.599609-49.5996-126.599609h-91.1992zm-434.0274 1.804687c-48.0796-0.098437-107.873 0.294922-107.873 0.294922h0.7988v0.099609l-61.5 384.900391h179.3008c73.7999 0 181.7999-108.80087 83.5-197.80078 101.0999-104.5999 0.9007-186.299221-52.6992-187.19922-10.775-0.175-25.5008-0.262109-41.5274-0.294922zm326.9043 73.582032c8.3014-0.20523 16.5282 1.36836 24.4219 4.91211 42.2 18.89998 58.9004 86.50006 37.4004 151-21.5 64.59993-73.1008 101.60115-115.3008 82.70117-42.1999-18.89998-58.8984-86.50006-37.3984-151 17.55-52.4062 54.9045-86.72397 90.8769-87.61328zm1751.6231 5.01367h61.0996c28.1 0 43.3992 33.19924 24.6992 54.19922-13 14.69999-38.3 26.59961-86 26.59961l0.2012-80.79883zm-2117.1016 3.5h51.9004c56.2 0 44.8011 72.09961-8.7988 72.09961h-55.4004l12.2988-72.09961zm-1021.39842 37.39844 14.59961 75.30078h-48.20117l33.60156-75.30078zm2309.59962 18.90039c45.4999 0 66.2996 44.69966 65.0996 95.09961-1.6 69.99993-48.1993 85.30078-93.6992 85.30078-45.5 0-76.0016-40.39927-68.1016-90.19922s51.2012-90.20117 96.7012-90.20117zm559.2988 8.80078c51.3 0 89.0008 36.09926 84.3008 80.69922-4.7 44.59995-50.1004 80.80039-101.4004 80.90039-51.2999 0-88.9988-36.09926-84.2988-80.69922 4.7-44.59995 50.0985-80.80039 101.3984-80.90039zm-1872.0996 86h66.8008c63.2999 0 61.4991 77.29883-8.8008 77.29883h-70.2988l12.2988-77.29883z"/>
</svg>
