<?xml version="1.0" encoding="utf-8"?>
<!-- Generator: Adobe Illustrator 25.0.0, SVG Export Plug-In . SVG Version: 6.00 Build 0)  -->
<svg version="1.1" id="Layer_1" xmlns="http://www.w3.org/2000/svg" xmlns:xlink="http://www.w3.org/1999/xlink" x="0px" y="0px"
	 viewBox="0 0 3840 462.2" style="enable-background:new 0 0 3840 462.2;" xml:space="preserve">
<style type="text/css">
	.st0{fill:#30308F;}
	.st1{fill:#00968C;}
	.st2{fill:#DFB10A;}
	.st3{fill:#4F549D;}
	.st4{fill:#BD0547;}
	.st5{fill:#7AAC3B;}
	.st6{fill:#C6C6C6;}
	.st7{fill:#FFFFFF;}
	.st8{fill:#383C70;}
	.st9{fill:#696FD0;}
	.st10{fill:#B28D08;}
	.st11{fill:#FFCA0B;}
	.st12{fill:#5A7F2B;}
	.st13{fill:#9EDF4D;}
	.st14{fill:none;stroke:#231F20;stroke-width:1.6419;stroke-miterlimit:10;}
	.st15{fill:#006962;}
	.st16{fill:#00C9BC;}
	.st17{fill:#900436;}
	.st18{fill:#F0065A;}
	.st19{fill:none;stroke:#231F20;stroke-width:1.6588;stroke-miterlimit:10;}
</style>
<g>
	<g>
		<path class="st1" d="M3827.5,378.7c-2.6-3.7-5.7-7-9.1-9.9c-16-13.7-76.9-65.7-122.5-103.1c35.6-19.4,52.7-32.8,52.7-32.8
			s49.5-32.8,60.1-83c8.1-48.2-1-73.4-70.6-107.5c-55.3-27.1-170.6-51.3-231.9,34.3c-14.2,19.8-14.2,50.3-8.3,65.9
			c13.8,36.4,25.7,65.2,23.2,204.5c-0.3,16.9-12,24.1-13.4,40.7c-1.5,17.9,4.9,65.4,55.2,67.4c43.3,1.8,50.9-35.5,50.9-50.9
			c0-25.5,0-71.5,0-71.5s117.4,98.6,137.6,115.8c10.9,9.3,25,14.6,39.3,13.3c10.9-1,23.3-5.5,35.6-17.5
			C3851.2,419.9,3836.3,391.3,3827.5,378.7z M3613.6,193.1l0.2-80.8h61.1c28.1,0,43.4,33.2,24.7,54.2
			C3686.6,181.2,3661.3,193.1,3613.6,193.1z"/>
		<path class="st0" d="M489.9,228.5l-14.6-75.3l-33.6,75.3H489.9 M1018.2,419.7h-79.7l-10.6-240l-103.6,240h-53.1l-44.3-217
			l-69.1,217H522.3l-20.4-116h-92.1l-52.2,116h-83.2L445.2,31.9h98.3l52.3,313.5L697.6,31.9h78.8l39,212.5l90.3-212.5h95.6
			L1018.2,419.7"/>
		<polyline class="st0" points="1246.7,419.7 1260,336.5 1120.9,336.5 1132,267.4 1252.9,267.4 1266.2,184.2 1143.9,184.2 
			1154.6,115.1 1293.6,115.1 1306.9,31.9 1086.4,31.9 1024.4,419.7 1246.7,419.7 		"/>
		<polyline class="st0" points="2281.9,31.9 2188.9,31.9 2110.1,158.5 2060.5,31.9 1969.3,31.9 2063.2,236.4 2034.3,419.7 
			2114,419.7 2138.4,257.7 2281.9,31.9 		"/>
		<path class="st0" d="M1808.7,345.9c42.2,18.9,93.8-18.1,115.3-82.7c21.5-64.5,4.8-132.1-37.4-151c-42.1-18.9-93.7,18.2-115.3,82.7
			C1749.8,259.4,1766.5,327,1808.7,345.9 M1688.1,192.4c24.7-107.2,116.4-177.6,204.7-157.2c88.3,20.4,139.9,123.9,115.1,231.1
			c-24.7,107.2-116.4,177.6-204.7,157.2C1714.8,403.1,1663.3,299.7,1688.1,192.4"/>
		<path class="st0" d="M104.3,66.4C28.3,113.4-8.2,185.1,1.5,282.5c11.3,113,157.6,184.2,281.6,112.5c10.8-6.3,6.6-5.3,10.6-8.9
			l24.8-157.6H170.7l-11.3,72.6h61.8l-7.1,39c-35.4,14.2-95.6,8.9-121.3-37.2c-16.2-29.1-31.3-94.2,37.2-154.1
			c55.8-48.7,152.3-57.5,208.1-31.8c0,0,7.1-40.8,12.4-78.9C243.3,0.9,160.1,31.9,104.3,66.4"/>
		<path class="st0" d="M1428.2,34.1L1366.7,419c0,0,127.4,0,179.3,0c73.8,0,181.8-108.8,83.5-197.8
			c101.1-104.6,0.9-186.3-52.7-187.2c-43.1-0.7-149.4,0-149.4,0H1428.2 M1472.1,266.9c0,0,16.7,0,66.8,0c63.3,0,61.5,77.3-8.8,77.3
			c-43.9,0-70.3,0-70.3,0L1472.1,266.9 M1496.7,115.8c0,0,1.7,0,51.9,0c56.2,0,44.8,72.1-8.8,72.1c-43.9,0-55.4,0-55.4,0
			L1496.7,115.8"/>
		<path class="st2" d="M3354.2,88.4c-113.4-0.6-204.7,64.3-204.2,184.8c0.4,101.4,56.4,175.8,163.9,172.6
			c80.2-2.4,209.6-72.7,209.6-184.1C3523.5,168.2,3463,89,3354.2,88.4z M3428.5,261.6c-4.7,44.6-50.1,80.8-101.4,80.9
			c-51.3,0-89-36.1-84.3-80.7c4.7-44.6,50.1-80.8,101.4-80.9C3395.5,180.9,3433.2,217,3428.5,261.6z"/>
		<path class="st3" d="M2792.4,77.4c-101.3-3.3-199.6,85.9-211.3,187.3c-13.6,117.8,62.5,179.5,164.7,181.6
			c116,2.4,196.8-72.1,206-173.7C2960.8,172,2893.7,80.7,2792.4,77.4z M2756.3,352.5c-45.5,0-76-40.4-68.1-90.2
			c7.9-49.8,51.2-90.2,96.7-90.2c45.5,0,66.3,44.7,65.1,95.1C2848.4,337.2,2801.8,352.5,2756.3,352.5z"/>
		<path class="st4" d="M2505,97.7c7.5-1.8,14.9,2.7,17.4,10c11.1,32.6,55.8,49.3,85.4,21.7c10.7-10,14-23,16.7-50.6
			c6.9-71.3-126-106.3-196.5-53.3c-48.7,36.6-148.4,143.8-146,271.2c-1,35.1,9.3,60.6,9.3,60.6s18.2,63,81.2,87.7
			c38.4,15.9,96.2,13,96.2,13s108.7,0,109,0c43,0,81.8-105.6-27.3-96.5c-45.9,3.8-180,38.6-177.3-77.4
			C2375.2,190.9,2464.4,107.6,2505,97.7z"/>
		<path class="st5" d="M3039.4,339.2l-4.9-188.1c-0.3-9.1-1-18.1-2.1-27.1c-3.2-24.3-10.8-70.5-23.9-88.6
			c-21.9-30.2-67.8-31.6-82.5-2.3c-10,19.9-8.7,53.9,7,94.1c8,20.4,12.1,42.1,13.2,64c0,0,8.8,141.7,11.8,188.9
			c1.3,20.6-6.5,68,20.5,77.9c41.2,15.1,108.7-41.9,190.2-44.3c47-1.4,75.9-130.7-70.9-95.7C3065.2,325.8,3039.4,339.2,3039.4,339.2
			z"/>
	</g>
</g>
</svg>
