<svg enable-background="new 0 0 3840 462.2" version="1.1" viewBox="0 0 3840 462.2" xml:space="preserve" xmlns="http://www.w3.org/2000/svg">
<path fill="#00968C" d="m3827.5 378.7c-2.6-3.7-5.7-7-9.1-9.9-16-13.7-76.9-65.7-122.5-103.1 35.6-19.4 52.7-32.8 52.7-32.8s49.5-32.8 60.1-83c8.1-48.2-1-73.4-70.6-107.5-55.3-27.1-170.6-51.3-231.9 34.3-14.2 19.8-14.2 50.3-8.3 65.9 13.8 36.4 25.7 65.2 23.2 204.5-0.3 16.9-12 24.1-13.4 40.7-1.5 17.9 4.9 65.4 55.2 67.4 43.3 1.8 50.9-35.5 50.9-50.9v-71.5s117.4 98.6 137.6 115.8c10.9 9.3 25 14.6 39.3 13.3 10.9-1 23.3-5.5 35.6-17.5 24.9-24.5 10-53.1 1.2-65.7zm-213.9-185.6 0.2-80.8h61.1c28.1 0 43.4 33.2 24.7 54.2-13 14.7-38.3 26.6-86 26.6z"/><path fill="#30308F" d="m257.13477 21.230469c-63.15917-0.614184-114.47153 21.451195-152.83399 45.169922-75.999923 46.999949-112.5007703 118.699709-102.80078 216.099609 11.299989 112.99989 157.59973 184.19993 281.59961 112.5 1.43809-0.83888 2.04882-1.27861 3.00977-1.88672l-11.70899 26.58594h83.19922l52.20117-116h92.09961l20.40039 116h135.5l69.09961-217 44.29883 217h53.10156l103.59961-240 10.59961 240h79.6992l-16.8984-387.798829h-95.60158l-90.29883 212.499999-39-212.499999h-78.80078l-101.79883 313.499999-52.30078-313.499999h-98.30078l-148.99805 338.300779 22.29883-141.70117h-147.80078l-11.29883 72.59961h61.79883l-7.09961 39c-35.39997 14.19999-95.59885 8.90073-121.298829-37.19922-16.199984-29.09997-31.300713-94.19967 37.199219-154.09961 55.79994-48.69995 152.29967-57.500754 208.09961-31.80078 0 0 7.1004-40.800429 12.40039-78.900391-33.49997-11.624988-64.65652-16.589966-93.36523-16.86914zm1602.53123 10.470703c-77.0437 1.274217-149.9539 66.899312-171.5664 160.699218-24.8 107.29989 26.6997 210.69963 115.0996 231.09961 88.2999 20.39998 180.0012-49.99933 204.7012-157.19922 24.8-107.19989-26.7997-210.701582-115.0996-231.101561-11.0375-2.549998-22.1285-3.680078-33.1348-3.498047zm-773.2656 0.199219-62 387.798829h222.2988l13.3008-83.19922h-139.0996l11.0996-69.09961h120.9004l13.2988-83.20117h-122.2988l10.6992-69.09961h139l13.3008-83.199219h-220.5zm882.9004 0 93.8984 204.499999-28.8984 183.29883h79.6992l24.4004-162 143.5-225.798829h-93l-78.8008 126.599609-49.5996-126.599609h-91.1992zm-434.0274 1.804687c-48.0796-0.098437-107.873 0.294922-107.873 0.294922h0.7988v0.099609l-61.5 384.900391h179.3008c73.7999 0 181.7999-108.80087 83.5-197.80078 101.0999-104.5999 0.9007-186.299221-52.6992-187.19922-10.775-0.175-25.5008-0.262109-41.5274-0.294922zm326.9043 73.582032c8.3014-0.20523 16.5282 1.36836 24.4219 4.91211 42.2 18.89998 58.9004 86.50006 37.4004 151-21.5 64.59993-73.1008 101.60115-115.3008 82.70117-42.1999-18.89998-58.8984-86.50006-37.3984-151 17.55-52.4062 54.9045-86.72397 90.8769-87.61328zm-365.4785 8.51367h51.9004c56.2 0 44.8011 72.09961-8.7988 72.09961h-55.4004l12.2988-72.09961zm-1021.39842 37.39844 14.59961 75.30078h-48.20117l33.60156-75.30078zm996.79882 113.70117h66.8008c63.2999 0 61.4991 77.29883-8.8008 77.29883h-70.2988l12.2988-77.29883z"/><path fill="#DFB10A" d="m3354.2 88.4c-113.4-0.6-204.7 64.3-204.2 184.8 0.4 101.4 56.4 175.8 163.9 172.6 80.2-2.4 209.6-72.7 209.6-184.1 0-93.5-60.5-172.7-169.3-173.3zm74.3 173.2c-4.7 44.6-50.1 80.8-101.4 80.9-51.3 0-89-36.1-84.3-80.7s50.1-80.8 101.4-80.9c51.3 0 89 36.1 84.3 80.7z"/><path fill="#4F549D" d="m2792.4 77.4c-101.3-3.3-199.6 85.9-211.3 187.3-13.6 117.8 62.5 179.5 164.7 181.6 116 2.4 196.8-72.1 206-173.7 9-100.6-58.1-191.9-159.4-195.2zm-36.1 275.1c-45.5 0-76-40.4-68.1-90.2s51.2-90.2 96.7-90.2 66.3 44.7 65.1 95.1c-1.6 70-48.2 85.3-93.7 85.3z"/><path fill="#BD0547" d="m2505 97.7c7.5-1.8 14.9 2.7 17.4 10 11.1 32.6 55.8 49.3 85.4 21.7 10.7-10 14-23 16.7-50.6 6.9-71.3-126-106.3-196.5-53.3-48.7 36.6-148.4 143.8-146 271.2-1 35.1 9.3 60.6 9.3 60.6s18.2 63 81.2 87.7c38.4 15.9 96.2 13 96.2 13h109c43 0 81.8-105.6-27.3-96.5-45.9 3.8-180 38.6-177.3-77.4 2.1-93.2 91.3-176.5 131.9-186.4z"/><path fill="#7AAC3B" d="m3039.4 339.2-4.9-188.1c-0.3-9.1-1-18.1-2.1-27.1-3.2-24.3-10.8-70.5-23.9-88.6-21.9-30.2-67.8-31.6-82.5-2.3-10 19.9-8.7 53.9 7 94.1 8 20.4 12.1 42.1 13.2 64 0 0 8.8 141.7 11.8 188.9 1.3 20.6-6.5 68 20.5 77.9 41.2 15.1 108.7-41.9 190.2-44.3 47-1.4 75.9-130.7-70.9-95.7-32.6 7.8-58.4 21.2-58.4 21.2z"/>
</svg>
