<svg enable-background="new 0 0 3400 667.2" version="1.1" viewBox="0 0 3400 667.2" xml:space="preserve" xmlns="http://www.w3.org/2000/svg">
<path d="m322 0v365.69922l-61.80078 21.80078s-154.09884 55.09922-166.298829 59.19922c-12.199988 4.09999-29.09961 10.80078-29.09961 10.80078-32.299967 13.39999-66.4007794 33.20002-64.800781 55.5 1.6999983 22.29998 19.000454 40.69963 81.900391 58.09961 52.999949 14.59998 134.099719 28.50037 240.099609 5.40039v44.90039l140.69922 44.29883 118.20117-42.69922s184.40001-66.30039 193.5-69.40039 22.90039-8.40039 22.90039-8.40039c25.19998-9.09999 68.89883-30.59847 65.29883-60.39844-2.6-22.59998-33.59887-39.5004-74.79883-52.40039-19.49998-6.09999-76.30085-23.8-150.30078-21.5-66.99993 2.1-113.49967 13.99924-172.59961 36.69922l-2.20117 0.80078v-303.5c0-24.39997 10.90002-40.7996 28.5-35.09961 22.99998 6.39999 27.40039 28.89885 27.40039 53.29883v208.20117c87.69991 42.29996 156.70117-0.10089 156.70117-111.80078 0-114.59989-40.40012-165.500432-159.5-206.400391-46.89995-15.799984-134.00084-41.99962-193.80078-53.099609zm1048.5996 196.40039v340.29883h53.0996v-340.29883h-53.0996zm1424.5996 0v47.40039h53.1016v-47.40039h-53.1016zm-1686.5996 0.19922v340.09961h53.0996v-307.59961h49.2012s35.7 2e-5 48 16c10.4 13.59999 12.2988 38.2008 12.2988 54.80078 0 17.79998-1.0996 45.3004-7.0996 55.40039-9.1 15.39999-23.9 18.5-37.5 18.5h-32.5v30.19922h46.7012s42.0992 1.80076 60.1992-16.69922c22.2-22.59998 27.9004-52.90004 27.9004-93.5 0-36.89996-13.4008-74.20079-40.8008-86.80078-22.7-10.39999-63.5-10.40039-63.5-10.40039h-116zm969.3008 0.20117s-23.2 0.19961-37.5 2.59961c-12.4 2.2-28.5 7.09923-39.5 18.19922s-22 34.90043-22 77.40039c0 42.39996 10.2996 56.30001 18.0996 65.5 7.9 9.19999 24.0996 21.99922 48.5996 23.19922 17.5 0.8 32.3996 2.80156 42.0996 3.60156 13.6 1.2 22.6016 9.09923 26.6016 17.69922 3.9 8.69999 5.7988 30.0004 5.7988 39.90039s-5.2 37.6004-11 43.90039c-9.7 10.49999-22.6996 16-48.5996 16-11.7 0-67.9004-2.20117-67.9004-2.20117v32.20117l81.5996 2.09961s23.3016-0.09961 37.6016-2.59961c12.4-2.1 28.5-7.10157 39.5-18.10156 10.9-11.09999 22-41.39848 22-83.89844 0-42.39996-10.4012-61.90157-18.2012-71.10156-7.8-9.29999-23.9996-21.99922-48.5996-23.19922-17.5-0.8-32.3996-2.8-42.0996-3.5-13.7-1.2-22.6996-9.20079-26.5996-17.80078-3.8-8.69999-5-28.60001-5-38.5 0-9.79999 4.4992-26.99923 10.1992-33.19922 9.7-10.39999 17.5004-16 43.4004-16 11.7 0 65.9004 2.19922 65.9004 2.19922v-32.19922l-74.4004-2.19922zm151.5 32.29883v249.80078s1.2996 22.79884 2.5996 30.79883 13.0004 27.10156 43.4004 27.10156l55-1.10156v-32s-14.9004 1.10156-23.9004 1.10156c-9.1 0-20.2-0.60001-22-16-2-15.39998-2-33.80078-2-33.80078v-147.19922h60v-32h-60v-46.70117h-53.0996zm406.9004 0v249.80078s1.2 22.79884 2.5 30.79883 12.9 27.10156 43.5 27.10156l55-1.10156v-32s-14.9 1.10156-24 1.10156c-9 0-20.1-0.60001-22-16-1.9-15.39998-1.9004-33.80078-1.9004-33.80078v-147.19922h59.7988v-32h-59.7988v-46.70117h-53.0996zm379.7988 44.5c-36.2 0-64.0988 8.10079-79.2988 20.30078s-33.8008 38.00008-33.8008 112.5c0 74.49993 18.6008 100.30001 33.8008 112.5s43.0988 20.29883 79.2988 20.29883c36.1 0 64.1012-8.09884 79.2012-20.29883 15.2-12.29999 33.8984-38.00007 33.8984-112.5 0-74.49992-18.6984-100.30001-33.8984-112.5-15-12.19999-43.1012-20.30078-79.2012-20.30078zm-1309.6992 2.20117 97.1992 254.79883-55.7988 136.59961h44.0996l160.6992-391.39844h-49.1992l-70 190.79883-65.2012-190.79883h-61.7988zm1088.7988 0v260.89844h53.1016v-260.89844h-53.1016zm510.4004 0-119 2.09961v258.5h52.7012v-223.90039l52.0996-2.19922c13.6 0 29.7004 3.70001 37.4004 13.5 7.2 9.29999 11.7988 20.39924 11.7988 38.19922v174.40039h53.2012v-178.80078c0-33.79997-10.4-53.49884-26-65.79883-22.3-17.69998-62.2012-16-62.2012-16zm-1715.1992 0.09961-84.3008 2.09961v34.5l70.0996-2.19922c13.6 0 29.6004 3.60001 37.4004 13.5 7.3 9.29999 11.8008 20.39924 11.8008 38.19922v139.40039l-35.0996 2.09961c-19.4 0-36.9016-1.49962-46.6016-8.59961-11.1-7.89999-15.5996-18.4008-15.5996-41.80078 0-17.79998 3.9012-25.80001 11.2012-35 7.8-9.89999 21.8-12.40039 35.5-12.40039h18.1992v-30.09961h-32.5s-39.8992-1.79959-62.1992 15.90039c-15.5 12.39999-25.9004 32.00042-25.9004 65.90039 0 35.09997 12.4 60.39962 35 69.59961 23.2 9.39999 69.2988 9.19922 69.2988 9.19922l101.8008-2.19922v-176.30078c0-33.79997-10.3004-53.39884-25.9004-65.79883-22.3-17.69998-62.1992-16-62.1992-16zm895.7988 0-84.2988 2.09961v34.5l70-2.19922c13.6 0 29.5004 3.60001 37.4004 13.5 7.3 9.29999 11.7988 20.39924 11.7988 38.19922h0.2012v139.40039l-35 2.09961c-19.5 0-37.0012-1.49962-46.7012-8.59961-11-7.89999-15.5996-18.4008-15.5996-41.80078 0-17.79998 3.8992-25.80001 11.1992-35 7.7-9.89999 21.8004-12.40039 35.4004-12.40039h18.3008v-30.09961h-32.5s-39.9012-1.79959-62.2012 15.90039c-15.4 12.39999-25.8984 32.00042-25.8984 65.90039 0 35.09997 12.3 60.39962 35 69.59961 23.1 9.39999 69.2988 9.19922 69.2988 9.19922l101.8008-2.19922v-176.30078c0-33.79997-10.4-53.39884-26-65.79883-22.3-17.69998-62.2012-16-62.2012-16zm531.6016 32.79883c17.4 0 30.6996 6.0004 38.0996 14.90039 7.3 8.99999 16.1992 27.90123 16.1992 82.70117 0 54.69995-8.8992 73.59962-16.1992 82.59961-7.3 8.89999-20.6996 14.90039-38.0996 14.90039s-30.8016-6.0004-38.1016-14.90039-16.1992-27.89966-16.1992-82.59961c0-54.79994 8.8992-73.70118 16.1992-82.70117 7.3-8.89999 20.7016-14.90039 38.1016-14.90039zm-2695.8008 138.5v51.60156l-60.80078 21.79883-30.39844 11.09961c-24.59997 9.29999-69.90159 15.20038-94.10156 3.90039-22.49998-10.59999 4.60001-24.00001 18-28.5l30.60156-10.90039 136.69922-49zm366.66992 13.9414c13.52343-0.29062 22.28009 0.91016 27.83008 1.66016 3.7 0.5 18.59961 3.89845 21.09961 11.39844 2.5 7.39999-9.9004 15.70078-21.90039 19.80078s-42.39844 14.90039-42.39844 14.90039l-210.60156 75.40039v-52c53.59995-18.99998 131.70117-46.60156 131.70117-46.60156l47.29883-16.89844s13.4008-5.20078 31.80078-6.80078c5.62499-0.5 10.66211-0.7625 15.16992-0.85938z"/>
</svg>
