<?xml version="1.0" encoding="utf-8"?>
<!-- Generator: Adobe Illustrator 26.0.3, SVG Export Plug-In . SVG Version: 6.00 Build 0)  -->
<svg version="1.1" id="Layer_1" xmlns="http://www.w3.org/2000/svg" xmlns:xlink="http://www.w3.org/1999/xlink" x="0px" y="0px"
	 viewBox="0 0 3400 667.2" style="enable-background:new 0 0 3400 667.2;" xml:space="preserve">
<style type="text/css">
	.st0{fill:#FFFFFF;}
	.st1{fill:url(#SVGID_1_);}
	.st2{fill:url(#SVGID_00000165224829119901514560000005321050446990329785_);}
	.st3{fill:url(#SVGID_00000077316034118420675900000010102775022825583806_);}
	.st4{fill:url(#SVGID_00000098219987130825148350000014755797039225541293_);}
	.st5{fill:url(#SVGID_00000154396941348629392970000014573641364912823737_);}
	.st6{fill:url(#SVGID_00000150103472061893388280000002474847077130849950_);}
	.st7{fill:url(#SVGID_00000030486629804598520930000018365601868197671832_);}
	.st8{fill:url(#SVGID_00000181788885209720140700000012301989482637968558_);}
	.st9{fill:url(#SVGID_00000021082708228711166540000002334152134884747669_);}
	.st10{fill:url(#SVGID_00000103944645491969364860000000257545207553429414_);}
	.st11{fill:url(#SVGID_00000121261753165034623260000001219085813298675128_);}
	.st12{fill:url(#SVGID_00000147934064528498859340000014376527705383655096_);}
	.st13{fill:url(#SVGID_00000147905391827626633140000002763057397027256241_);}
	.st14{fill:url(#SVGID_00000112610564372955785920000005240988391193762190_);}
	.st15{fill:url(#SVGID_00000052820865659746718310000005552917465203207331_);}
	.st16{fill:url(#SVGID_00000134238869358035005980000016243079379408753544_);}
	.st17{fill:url(#SVGID_00000121266331186789615890000017650424813647445376_);}
	.st18{fill:url(#SVGID_00000114062615681211175620000004555357336834082717_);}
	.st19{fill:url(#SVGID_00000065784490537979580500000000861074973560407738_);}
	.st20{fill:url(#SVGID_00000044893894880956297330000004860684354752740514_);}
	.st21{fill:url(#SVGID_00000099622923202773307040000012762019289489420222_);}
	.st22{fill-rule:evenodd;clip-rule:evenodd;}
	.st23{fill:#00AD9C;}
	.st24{fill:#FBB817;}
	.st25{fill:#0174BA;}
	.st26{fill:#EB2027;}
	.st27{fill-rule:evenodd;clip-rule:evenodd;fill:#FFFFFF;}
</style>
<g>
	<g>
		<g>
			<path d="M1108.6,196.4v340.3h53.1V229.1h49.2c0,0,35.7,0,48,16c10.4,13.6,12.3,38.2,12.3,54.8c0,17.8-1.1,45.3-7.1,55.4
				c-9.1,15.4-23.9,18.5-37.5,18.5h-32.5v30.2h46.7c0,0,42.1,1.8,60.2-16.7c22.2-22.6,27.9-52.9,27.9-93.5
				c0-36.9-13.4-74.2-40.8-86.8c-22.7-10.4-63.5-10.4-63.5-10.4H1108.6"/>
			<rect x="1370.6" y="196.4" width="53.1" height="340.3"/>
			<polyline points="1706.4,275.8 1803.6,530.6 1747.8,667.2 1791.9,667.2 1952.6,275.8 1903.4,275.8 1833.4,466.6 1768.2,275.8 
				1706.4,275.8 			"/>
			<path d="M1992.6,534.8v-32.2c0,0,56.2,2.2,67.9,2.2c25.9,0,38.9-5.5,48.6-16c5.8-6.3,11-34,11-43.9c0-9.9-1.9-31.2-5.8-39.9
				c-4-8.6-13-16.5-26.6-17.7c-9.7-0.8-24.6-2.8-42.1-3.6c-24.5-1.2-40.7-14-48.6-23.2c-7.8-9.2-18.1-23.1-18.1-65.5
				c0-42.5,11-66.3,22-77.4c11-11.1,27.1-16,39.5-18.2c14.3-2.4,37.5-2.6,37.5-2.6l74.4,2.2v32.2c0,0-54.2-2.2-65.9-2.2
				c-25.9,0-33.7,5.6-43.4,16c-5.7,6.2-10.2,23.4-10.2,33.2c0,9.9,1.2,29.8,5,38.5c3.9,8.6,12.9,16.6,26.6,17.8
				c9.7,0.7,24.6,2.7,42.1,3.5c24.6,1.2,40.8,13.9,48.6,23.2c7.8,9.2,18.2,28.7,18.2,71.1c0,42.5-11.1,72.8-22,83.9
				c-11,11-27.1,16-39.5,18.1c-14.3,2.5-37.6,2.6-37.6,2.6L1992.6,534.8"/>
			<path d="M2282.5,229.1h-53.1v249.8c0,0,1.3,22.8,2.6,30.8c1.3,8,13,27.1,43.4,27.1l55-1.1v-32c0,0-14.9,1.1-23.9,1.1
				c-9.1,0-20.2-0.6-22-16c-2-15.4-2-33.8-2-33.8V307.8h60v-32h-60V229.1"/>
			<rect x="2795.2" y="275.8" width="53.1" height="260.9"/>
			<rect x="2795.2" y="196.4" width="53.1" height="47.4"/>
			<path d="M2979.7,323.6c-7.3,9-16.2,27.9-16.2,82.7c0,54.7,8.9,73.7,16.2,82.6c7.3,8.9,20.7,14.9,38.1,14.9
				c17.4,0,30.8-6,38.1-14.9c7.3-9,16.2-27.9,16.2-82.6c0-54.8-8.9-73.7-16.2-82.7c-7.4-8.9-20.7-14.9-38.1-14.9
				C3000.4,308.7,2987,314.7,2979.7,323.6 M3016.1,273.6c36.1,0,64.2,8.1,79.2,20.3c15.2,12.2,33.9,38,33.9,112.5
				c0,74.5-18.7,100.2-33.9,112.5c-15.1,12.2-43.1,20.3-79.2,20.3c-36.2,0-64.1-8.1-79.3-20.3c-15.2-12.2-33.8-38-33.8-112.5
				c0-74.5,18.6-100.3,33.8-112.5C2952,281.7,2979.9,273.6,3016.1,273.6z"/>
			<path d="M3239.3,312.5l52.1-2.2c13.6,0,29.7,3.7,37.4,13.5c7.2,9.3,11.8,20.4,11.8,38.2v174.4h53.2V357.6
				c0-33.8-10.4-53.5-26-65.8c-22.3-17.7-62.2-16-62.2-16l-119,2.1v258.5h52.7V312.5"/>
			<path d="M2689.4,229.1h-53.1v249.8c0,0,1.2,22.8,2.5,30.8c1.3,8,12.9,27.1,43.5,27.1l55-1.1v-32c0,0-14.9,1.1-24,1.1
				c-9,0-20.1-0.6-22-16c-1.9-15.4-1.9-33.8-1.9-33.8V307.8h59.8v-32h-59.8V229.1"/>
			<path d="M1625.4,362c0-17.8-4.5-28.9-11.8-38.2c-7.8-9.9-23.8-13.5-37.4-13.5l-70.1,2.2V278l84.3-2.1c0,0,39.9-1.7,62.2,16
				c15.6,12.4,25.9,32,25.9,65.8V534l-101.8,2.2c0,0-46.1,0.2-69.3-9.2c-22.6-9.2-35-34.5-35-69.6c0-33.9,10.4-53.5,25.9-65.9
				c22.3-17.7,62.2-15.9,62.2-15.9h32.5v30.1h-18.2c-13.7,0-27.7,2.5-35.5,12.4c-7.3,9.2-11.2,17.2-11.2,35
				c0,23.4,4.5,33.9,15.6,41.8c9.7,7.1,27.2,8.6,46.6,8.6l35.1-2.1V362"/>
			<path d="M2521.1,362c0-17.8-4.5-28.9-11.8-38.2c-7.9-9.9-23.8-13.5-37.4-13.5l-70,2.2V278l84.3-2.1c0,0,39.9-1.7,62.2,16
				c15.6,12.4,26,32,26,65.8V534l-101.8,2.2c0,0-46.2,0.2-69.3-9.2c-22.7-9.2-35-34.5-35-69.6c0-33.9,10.5-53.5,25.9-65.9
				c22.3-17.7,62.2-15.9,62.2-15.9h32.5v30.1h-18.3c-13.6,0-27.7,2.5-35.4,12.4c-7.3,9.2-11.2,17.2-11.2,35
				c0,23.4,4.6,33.9,15.6,41.8c9.7,7.1,27.2,8.6,46.7,8.6l35-2.1V362"/>
		</g>
	</g>
	<g>
		<g>
			<path class="st23" d="M385.7,424.4l-125.5-36.9c0,0-154.1,55.1-166.3,59.2c-12.2,4.1-29.1,10.8-29.1,10.8l120.5,38.7L385.7,424.4
				"/>
			<path class="st23" d="M383.4,559.8l-122.2-39.2l203.7-72.9l129.4,38c0,0-170.2,60.3-180.5,64
				C403.5,553.4,383.4,559.8,383.4,559.8"/>
			<path class="st23" d="M797.4,545.4l-124.1-36.5l-212,75.9l119.6,38.4c0,0,184.4-66.3,193.5-69.4
				C783.5,550.7,797.4,545.4,797.4,545.4"/>
			<polyline class="st24" points="580.9,623.2 462.7,665.8 342.2,627.3 461.3,584.8 580.9,623.2 			"/>
			<path class="st24" d="M261.2,520.5l122.2,39.2c-136.4,45-238.6,28.7-301.5,11.4c-62.9-17.4-80.2-35.8-81.9-58.1
				c-1.7-22.3,32.5-42.2,64.8-55.6l120.5,38.7l-30.6,10.9c-13.4,4.6-40.5,18-18,28.5c24.1,11.3,69.5,5.4,94.1-3.9L261.2,520.5"/>
			<polyline class="st25" points="385.7,424.4 260.2,387.5 324.1,364.9 448.2,402.1 385.7,424.4 			"/>
			<path class="st25" d="M594.3,485.7l-129.4-38C524,424.9,570.5,413,637.5,411c74-2.3,130.8,15.4,150.3,21.5
				c41.1,12.8,72.2,29.8,74.9,52.5c3.5,29.9-40.1,51.3-65.3,60.4l-124.1-36.5c0,0,30.4-10.7,42.4-14.9c12-4.1,24.4-12.4,21.9-19.8
				c-2.5-7.4-17.4-10.9-21.1-11.4c-7.4-1-20.5-2.9-43-0.8c-18.4,1.7-31.8,6.8-31.8,6.8L594.3,485.7"/>
			<path class="st26" d="M322,0v621.6l140.7,44.3V144.9c0-24.4,10.9-40.8,28.5-35.1c23,6.4,27.4,28.9,27.4,53.3v208.2
				c87.7,42.3,156.7-0.1,156.7-111.8c0-114.6-40.4-165.5-159.5-206.4C468.9,37.3,381.8,11.1,322,0"/>
		</g>
	</g>
</g>
</svg>
