<?xml version="1.0" encoding="utf-8"?>
<!-- Generator: Adobe Illustrator 26.0.3, SVG Export Plug-In . SVG Version: 6.00 Build 0)  -->
<svg version="1.1" id="Layer_1" xmlns="http://www.w3.org/2000/svg" xmlns:xlink="http://www.w3.org/1999/xlink" x="0px" y="0px"
	 viewBox="0 0 3400 667.2" style="enable-background:new 0 0 3400 667.2;" xml:space="preserve">
<style type="text/css">
	.st0{fill:#FFFFFF;}
	.st1{fill:url(#SVGID_1_);}
	.st2{fill:url(#SVGID_00000044174551355242012290000012331327259113475755_);}
	.st3{fill:url(#SVGID_00000065779541320850258480000014084172691990674311_);}
	.st4{fill:url(#SVGID_00000152979353047277924920000015494675905044635522_);}
	.st5{fill:url(#SVGID_00000021799687703129940110000016349856141287442360_);}
	.st6{fill:url(#SVGID_00000138534356948167376830000014245641472549918628_);}
	.st7{fill:url(#SVGID_00000003820324433870470030000018057768997975924115_);}
	.st8{fill:url(#SVGID_00000075156011416053056930000017594711751354470311_);}
	.st9{fill:url(#SVGID_00000108995041968196704600000013458040423015134852_);}
	.st10{fill:url(#SVGID_00000032619797285370098290000004786768084926274715_);}
	.st11{fill:url(#SVGID_00000119824827235619414020000007007932550475182759_);}
	.st12{fill:url(#SVGID_00000004508351942643304840000005009288859465935035_);}
	.st13{fill:url(#SVGID_00000014620796708912596840000004505710550615243187_);}
	.st14{fill:url(#SVGID_00000104681527204937152130000002514765017713765563_);}
	.st15{fill:url(#SVGID_00000124120375173171933370000018037575582866971818_);}
	.st16{fill:url(#SVGID_00000050653453962203060270000002167816707937569471_);}
	.st17{fill:url(#SVGID_00000165955640407733265560000012440639508741696188_);}
	.st18{fill:url(#SVGID_00000054951099501630186900000000870626867697126042_);}
	.st19{fill:url(#SVGID_00000032618801507379901400000005179961399549916851_);}
	.st20{fill:url(#SVGID_00000118373229427642915280000002305247061959426743_);}
	.st21{fill:url(#SVGID_00000133516645131180521580000010804174842280680337_);}
	.st22{fill-rule:evenodd;clip-rule:evenodd;}
	.st23{fill:#00AD9C;}
	.st24{fill:#FBB817;}
	.st25{fill:#0174BA;}
	.st26{fill:#EB2027;}
	.st27{fill-rule:evenodd;clip-rule:evenodd;fill:#FFFFFF;}
</style>
<g>
	<g>
		<g>
			<path d="M1108.6,196.4v340.3h53.1V229.1h49.2c0,0,35.7,0,48,16c10.4,13.6,12.3,38.2,12.3,54.8c0,17.8-1.1,45.3-7.1,55.4
				c-9.1,15.4-23.9,18.5-37.5,18.5h-32.5v30.2h46.7c0,0,42.1,1.8,60.2-16.7c22.2-22.6,27.9-52.9,27.9-93.5
				c0-36.9-13.4-74.2-40.8-86.8c-22.7-10.4-63.5-10.4-63.5-10.4H1108.6"/>
			<rect x="1370.6" y="196.4" width="53.1" height="340.3"/>
			<polyline points="1706.4,275.8 1803.6,530.6 1747.8,667.2 1791.9,667.2 1952.6,275.8 1903.4,275.8 1833.4,466.6 1768.2,275.8 
				1706.4,275.8 			"/>
			<path d="M1992.6,534.8v-32.2c0,0,56.2,2.2,67.9,2.2c25.9,0,38.9-5.5,48.6-16c5.8-6.3,11-34,11-43.9c0-9.9-1.9-31.2-5.8-39.9
				c-4-8.6-13-16.5-26.6-17.7c-9.7-0.8-24.6-2.8-42.1-3.6c-24.5-1.2-40.7-14-48.6-23.2c-7.8-9.2-18.1-23.1-18.1-65.5
				c0-42.5,11-66.3,22-77.4c11-11.1,27.1-16,39.5-18.2c14.3-2.4,37.5-2.6,37.5-2.6l74.4,2.2v32.2c0,0-54.2-2.2-65.9-2.2
				c-25.9,0-33.7,5.6-43.4,16c-5.7,6.2-10.2,23.4-10.2,33.2c0,9.9,1.2,29.8,5,38.5c3.9,8.6,12.9,16.6,26.6,17.8
				c9.7,0.7,24.6,2.7,42.1,3.5c24.6,1.2,40.8,13.9,48.6,23.2c7.8,9.2,18.2,28.7,18.2,71.1c0,42.5-11.1,72.8-22,83.9
				c-11,11-27.1,16-39.5,18.1c-14.3,2.5-37.6,2.6-37.6,2.6L1992.6,534.8"/>
			<path d="M2282.5,229.1h-53.1v249.8c0,0,1.3,22.8,2.6,30.8c1.3,8,13,27.1,43.4,27.1l55-1.1v-32c0,0-14.9,1.1-23.9,1.1
				c-9.1,0-20.2-0.6-22-16c-2-15.4-2-33.8-2-33.8V307.8h60v-32h-60V229.1"/>
			<rect x="2795.2" y="275.8" width="53.1" height="260.9"/>
			<rect x="2795.2" y="196.4" width="53.1" height="47.4"/>
			<path d="M2979.7,323.6c-7.3,9-16.2,27.9-16.2,82.7c0,54.7,8.9,73.7,16.2,82.6c7.3,8.9,20.7,14.9,38.1,14.9
				c17.4,0,30.8-6,38.1-14.9c7.3-9,16.2-27.9,16.2-82.6c0-54.8-8.9-73.7-16.2-82.7c-7.4-8.9-20.7-14.9-38.1-14.9
				C3000.4,308.7,2987,314.7,2979.7,323.6 M3016.1,273.6c36.1,0,64.2,8.1,79.2,20.3c15.2,12.2,33.9,38,33.9,112.5
				c0,74.5-18.7,100.2-33.9,112.5c-15.1,12.2-43.1,20.3-79.2,20.3c-36.2,0-64.1-8.1-79.3-20.3c-15.2-12.2-33.8-38-33.8-112.5
				c0-74.5,18.6-100.3,33.8-112.5C2952,281.7,2979.9,273.6,3016.1,273.6z"/>
			<path d="M3239.3,312.5l52.1-2.2c13.6,0,29.7,3.7,37.4,13.5c7.2,9.3,11.8,20.4,11.8,38.2v174.4h53.2V357.6
				c0-33.8-10.4-53.5-26-65.8c-22.3-17.7-62.2-16-62.2-16l-119,2.1v258.5h52.7V312.5"/>
			<path d="M2689.4,229.1h-53.1v249.8c0,0,1.2,22.8,2.5,30.8c1.3,8,12.9,27.1,43.5,27.1l55-1.1v-32c0,0-14.9,1.1-24,1.1
				c-9,0-20.1-0.6-22-16c-1.9-15.4-1.9-33.8-1.9-33.8V307.8h59.8v-32h-59.8V229.1"/>
			<path d="M1625.4,362c0-17.8-4.5-28.9-11.8-38.2c-7.8-9.9-23.8-13.5-37.4-13.5l-70.1,2.2V278l84.3-2.1c0,0,39.9-1.7,62.2,16
				c15.6,12.4,25.9,32,25.9,65.8V534l-101.8,2.2c0,0-46.1,0.2-69.3-9.2c-22.6-9.2-35-34.5-35-69.6c0-33.9,10.4-53.5,25.9-65.9
				c22.3-17.7,62.2-15.9,62.2-15.9h32.5v30.1h-18.2c-13.7,0-27.7,2.5-35.5,12.4c-7.3,9.2-11.2,17.2-11.2,35
				c0,23.4,4.5,33.9,15.6,41.8c9.7,7.1,27.2,8.6,46.6,8.6l35.1-2.1V362"/>
			<path d="M2521.1,362c0-17.8-4.5-28.9-11.8-38.2c-7.9-9.9-23.8-13.5-37.4-13.5l-70,2.2V278l84.3-2.1c0,0,39.9-1.7,62.2,16
				c15.6,12.4,26,32,26,65.8V534l-101.8,2.2c0,0-46.2,0.2-69.3-9.2c-22.7-9.2-35-34.5-35-69.6c0-33.9,10.5-53.5,25.9-65.9
				c22.3-17.7,62.2-15.9,62.2-15.9h32.5v30.1h-18.3c-13.6,0-27.7,2.5-35.4,12.4c-7.3,9.2-11.2,17.2-11.2,35
				c0,23.4,4.6,33.9,15.6,41.8c9.7,7.1,27.2,8.6,46.7,8.6l35-2.1V362"/>
		</g>
	</g>
	<path d="M787.8,432.4c-19.5-6.1-76.3-23.8-150.3-21.5c-67,2.1-113.5,14-172.6,36.7l-2.2,0.8V144.9c0-24.4,10.9-40.8,28.5-35.1
		c23,6.4,27.4,28.9,27.4,53.3v208.2c87.7,42.3,156.7-0.1,156.7-111.8c0-114.6-40.4-165.5-159.5-206.4C468.9,37.3,381.8,11.1,322,0
		v365.7l-61.8,21.8c0,0-154.1,55.1-166.3,59.2c-12.2,4.1-29.1,10.8-29.1,10.8c-32.3,13.4-66.4,33.2-64.8,55.5
		c1.7,22.3,19,40.7,81.9,58.1c53,14.6,134.1,28.5,240.1,5.4v44.9l140.7,44.3l118.2-42.7c0,0,184.4-66.3,193.5-69.4
		c9.1-3.1,22.9-8.4,22.9-8.4c25.2-9.1,68.9-30.6,65.3-60.4C860,462.2,829,445.3,787.8,432.4z M230.8,531.7
		c-24.6,9.3-69.9,15.2-94.1,3.9c-22.5-10.6,4.6-24,18-28.5l30.6-10.9l136.7-49v51.6l-60.8,21.8L230.8,531.7z M462.7,584.3v-52
		c53.6-19,131.7-46.6,131.7-46.6l47.3-16.9c0,0,13.4-5.2,31.8-6.8c22.5-2,35.6-0.2,43,0.8c3.7,0.5,18.6,3.9,21.1,11.4
		c2.5,7.4-9.9,15.7-21.9,19.8c-12,4.1-42.4,14.9-42.4,14.9L462.7,584.3z"/>
</g>
</svg>
