<svg width="64" height="48" xmlns="http://www.w3.org/2000/svg"><path d="M 47.800922,0 C 46.60542,0.01470764 45.411402,0.04458253 44.229484,0.10341311 L 43.79433,0.13213901 C 26.282929,1.1028437 11.474781,7.470335 1.8020746,17.574487 1.5575399,17.839226 1.3003751,18.235754 1.083011,18.824064 0.79772053,19.588859 0.56708948,20.824876 0.39048107,22.354472 0.20028742,24.119389 0.07568508,26.32703 0.03492931,28.665546 c -0.01358525,0.32357 -0.01294848,0.647366 -0.02653374,0.970935 -0.04075577,3.500419 0.0695184,7.220304 0.27329727,10.220664 0.19019368,2.794453 0.5014872,4.984513 0.84111876,5.94051 0.2309494,0.632428 0.5302497,1.000924 0.7747843,1.192124 0.2445348,0.205906 0.7457036,0.456165 1.5336488,0.603242 0.067927,0 0.1363833,0.01396 0.2043096,0.02871 l 1.0056277,0.132134 c 0.1358527,0.0147 0.2724482,0.01689 0.4218862,0.03158 0.4483135,0.04414 0.9371708,0.07112 1.4805811,0.100543 0.6656779,0.02941 1.3848477,0.05998 2.1863781,0.07468 6.0726106,0.147091 15.7856506,-0.13259 24.6975816,-0.603228 l 2.146577,-0.117762 c 5.67864,-0.323568 10.856005,-0.72033 14.320247,-1.117437 2.1193,-0.25003 3.667382,-0.559694 4.441744,-0.824431 0.176607,-0.05883 0.313522,-0.116397 0.408618,-0.175228 0.06792,-0.04413 0.149652,-0.08766 0.217576,-0.146503 0.434729,-0.308862 0.894611,-0.794212 1.32934,-1.470764 0.883042,-1.353104 1.807794,-3.559941 2.677251,-6.222025 2.784979,-8.515724 5.161339,-21.694921 5.025486,-23.606916 -0.04077,-0.514769 -0.256846,-1.219817 -0.73233,-1.999323 C 62.528513,10.441621 61.116177,8.7949409 59.390848,7.1182692 56.863989,4.7062153 53.671029,2.2357904 51.144171,0.97093293 49.85357,0.32379653 48.69755,-1.4799949e-6 47.800922,0 Z M 19.354127,17.295846 h 4.332956 v 15.839446 h 7.540881 v 3.619459 H 19.354127 Z m 10.257934,0 h 15.023388 v 3.616585 h -5.39165 v 15.84232 h -4.332955 v -15.84232 h -5.298783 z"/></svg>
