<svg enable-background="new 0 0 3840 602.4" version="1.1" viewBox="0 0 3840 602.4" xml:space="preserve" xmlns="http://www.w3.org/2000/svg">
<path d="m1209.3008 0.099609375c-12.4 0-24.7012 2.999615525-35.7012 9.099609425l-148.0996 81.2011722c-27.68905 15.118559-42.17318 45.673789-37.7207 75.798829h-89.58008v-49.5c0-40.99996-33.19926-74.19922-74.19922-74.19922h-87.5c-40.99996 0-74.19922 33.19926-74.19922 74.19922v74.29687c-33.77455-20.10271-74.56138-31.29687-120.20117-31.29687-44.88004 0-85.09105 10.79486-118.5332 30.26953-23.5011-60.66416-83.87488-119.369141-229.4668-119.369141h-119.900391c-40.999959 0-74.199219 33.201211-74.199219 74.201171v376.89844c9.4738937e-15 40.99996 33.19926 74.20117 74.199219 74.20117h100.400391c40.99996 0 74.20117-33.20121 74.20117-74.20117v-59.39844c29.23536-3.10799 55.71937-10.13122 78.99414-20.61719 23.71333 97.05216 105.19607 160.7168 214.30469 160.7168 51.44196 0 96.73512-14.21601 132.76367-39.37695 13.31539 19.82964 35.93991 32.87695 61.63672 32.87695h87.5c12.89999 0 24.90001-3.20001 35.5-9 10.69999 5.79999 22.90001 9 35.5 9v-0.09961h105.8008c21.162 0 40.8806-9.06321 54.7656-24.30469 33.5056 19.80289 73.5725 30.9043 117.834 30.9043 43.9944 0 84.3358-7.76622 119.9844-22.99609 12.7399 10.30222 28.943 16.49609 46.6152 16.49609h87.5c15.7 0 30.3008-4.90118 42.3008-13.20117 12 8.29999 26.5988 13.20117 42.2988 13.20117h87.5c15.7 0 30.3008-4.90118 42.3008-13.20117 12 8.29999 26.5988 13.20117 42.2988 13.20117h87.3008c25.7288 0 48.3749-13.08184 61.6836-32.95312 36.0418 25.20896 81.3821 39.45312 132.916 39.45312 51.4667 0 96.7563-14.20808 132.7754-39.35547 13.3172 19.81827 35.9369 32.85547 61.625 32.85547h87.5c18 0 34.6004-6.39962 47.4004-17.09961 12.9 10.69999 29.4004 17.09961 47.4004 17.09961h87.3984c41 0 74.2012-33.20121 74.2012-74.20117v-175.5c0-109.79989-70.3005-186.5-170.9004-186.5-23.5 0-45.7004 4.00118-65.9004 11.70117-8.5-3.3-17.7004-5.20117-27.4004-5.20117h-79.6992c-25.7141 0-48.3503 13.0659-61.6621 32.91797-36.0133-25.18755-81.2891-39.41797-132.7383-39.41797-63.1135 0-116.9501 21.38931-155.7539 58.20898-32.7779-45.71063-83.1289-58.20898-128.2461-58.20898-31.5 0-60.6996 7.50118-86.0996 21.70117-23.9-14.09999-52.1-21.70117-83-21.70117-23.5 0-45.7004 4.00118-65.9004 11.70117-8.5-3.3-17.7004-5.20117-27.4004-5.20117h-79.6992c-11.858 0-23.0223 2.84933-32.9609 7.78906 0.5231-1.16166 1.0976-2.29512 1.5605-3.48828 7.1-18.29998 6.8004-38.8008-1.0996-56.80078l-30.1992-69.099611c-8.3-19.099981-24.3-33.800006-44-40.4999996-7.8-2.6999973-15.9-4.000000025-24-4.000000025zm1443.6992 164.8007806c-65.5999 0-118.9004 53.30046-118.9004 118.90039v195.5c0 65.59994 53.4005 118.89844 118.9004 118.89844 36.8 0 69.7-16.70003 91.5-43 21.8 26.19997 54.7 43 91.5 43s69.7-16.70003 91.5-43c21.8 26.19997 54.7 43 91.5 43 34.0997 0 64.8316-14.5265 86.5449-37.61914 21.7156 23.13359 52.532 37.61914 86.6543 37.61914 34.1683 0 64.9788-14.48107 86.6797-37.60742 21.712 23.09128 52.4349 37.60742 86.5215 37.60742 36.8 0 69.7-16.70003 91.5-43 21.8 26.19997 54.7 43 91.5 43 34.0121 0 64.6336-14.40428 86.3184-37.33203 21.7007 22.9652 52.4006 37.33203 86.3808 37.33203 65.5999 0 118.9004-53.29889 118.9004-118.79883v-74.09961c0-21.69083-5.8548-42.03072-16.0273-59.56445 10.1721-17.51882 16.0273-37.84678 16.0273-59.53711 0-65.49994-53.3005-118.89844-118.9004-118.89844-33.4534 0-63.6862 13.88111-85.3047 36.16602-21.7554-23.64497-52.8426-38.56641-87.3945-38.56641h-183c-34.7256 0-65.9056 15.02714-87.6563 38.81641-21.6343-22.43015-51.9675-36.41602-85.5449-36.41602-33.5868 0-63.9251 13.99434-85.5605 36.43555-21.7661-23.80088-52.9564-38.83594-87.6387-38.83594h-366z"/><path fill="#FFE900" d="m2653 239c-24.7 0-44.6992 19.99924-44.6992 44.69922v26.90039 17.80078 150.90039c0 24.69998 19.9992 44.69922 44.6992 44.69922s44.6992-19.99924 44.6992-44.69922v-150.80078h68 25.5v150.90039c0 24.69998 20.0012 44.69922 44.7012 44.69922s44.6992-19.99924 44.6992-44.69922v-150.90039h93.5v150.90039c0 24.69998 20.0012 44.69922 44.7012 44.69922s44.6992-19.99924 44.6992-44.69922v-150.90039-14-30.69922c0.2-24.69997-19.8-44.80078-44.5-44.80078h-220.8008-32.3984-112.8008zm712.4004 0c-24.7 0-44.7012 19.99924-44.7012 44.69922v26.90039 17.80078 150.90039c0 24.69998 20.0012 44.69922 44.7012 44.69922s44.6992-19.99924 44.6992-44.69922v-150.80078h93.5v150.90039c0 24.69998 20.0012 44.69922 44.7012 44.69922s44.6992-19.99924 44.6992-44.69922v-150.90039-14-30.69922c0.1-24.69997-19.8996-44.80078-44.5996-44.80078h-183zm-173.2012 2.5c-24.7 0-44.6992 19.99924-44.6992 44.69922 0 24.69997 19.9992 44.70117 44.6992 44.70117s44.7012-20.0012 44.7012-44.70117c0-24.69998-20.0012-44.69922-44.7012-44.69922zm528.9004 0c-24.7 0-44.6992 19.99924-44.6992 44.69922 0 24.69997 19.9992 44.70117 44.6992 44.70117s44.7012-20.0012 44.7012-44.70117c0-24.69998-20.0012-44.69922-44.7012-44.69922zm-528.9004 119.09961c-24.7 0-44.6992 20.0012-44.6992 44.70117v74.09961c0 24.69998 19.9992 44.69922 44.6992 44.69922s44.7012-19.99924 44.7012-44.69922v-74.09961c0-24.69997-20.0012-44.70117-44.7012-44.70117zm528.9004 0c-24.7 0-44.6992 20.0012-44.6992 44.70117v74.09961c0 24.69998 19.9992 44.69922 44.6992 44.69922s44.7012-19.99924 44.7012-44.69922v-74.09961c0-24.69997-20.0012-44.70117-44.7012-44.70117z"/><path fill="#FFF" d="m1209.1992 74.199219-148.0996 81.201171 21.4004 55.40039c4.4-1.1 156.9004-67.5 156.9004-67.5l-30.2012-69.101561zm-472.6992 42.500001v405h87.5v-139.29883h1l70 139.29883h105.9004l-95.20118-152.29883 87.90039-129.09961h-95.69922l-72.90039 118.29883h-1v-241.90039h-87.5zm-662.300781 28.10156v377h100.400391v-131.80078h38.90039c93.99991 0 149.59961-45.40008 149.59961-121.5 0-84.79992-54.00012-123.69922-169-123.69922h-119.900391zm100.400391 71.29883h25.90039c34.59997 0 62.09961 12.50082 62.09961 50.80078 0 39.39996-27.49964 51.79883-62.09961 51.79883h-25.90039v-102.59961zm367.5 17.80078c-83.59992 0-147.19922 54.00048-147.19922 147.40039 0 92.89991 63.5993 146.89844 147.19922 146.89844s147.20117-53.99853 147.20117-146.89844c0-93.39991-63.60125-147.40039-147.20117-147.40039zm619.80079 0c-78.6999 0-135.5996 54.00048-135.5996 146.90039s63.5993 147.39844 147.1992 147.39844c32.5 0 64.6008-5.39884 92.8008-17.79883v-68.59961c-26.3 15.69999-53.5008 21.59961-77.3008 21.59961-42.8 0-69.5004-15.10004-74.4004-54h175.0996v-17.80078c0-83.69992-33.9989-157.69922-127.7988-157.69922zm351.2988 0c-39.7999 0-74.7988 17.79887-92.2988 58.29883h-1v-51.79883h-79.7012-0.1992v281.29883h87.5v-118.79883c0-60.49994 18.4996-88 49.5996-88 24.8 0 35 23.69964 35 55.59961v151.19922h87.5v-118.79883c0-60.49994 18.4996-88 49.5996-88 24.8 0 35 23.69964 35 55.59961v151.19922h87.5v-165.79883c0-76.09992-16.4985-122-89.3984-122-36 0-69.5004 16.20004-89.9004 54-13.6-36.69996-43.3012-54-79.2012-54zm452.9004 0c-83.5999 0-147.1992 54.00048-147.1992 147.40039 0 92.89991 63.5993 146.89844 147.1992 146.89844s147.2012-53.99853 147.2012-146.89844c0-93.39991-63.6013-147.40039-147.2012-147.40039zm367.5 0c-39.8 0-74.7988 17.79887-92.2988 58.29883h-1v-51.79883h-79.7012v281.29883h87.5v-118.79883c0-60.49994 18.4004-88 54.4004-88 23.8 0 40.3008 17.79927 40.3008 70.69922v136.09961h87.5v-175.5c0-58.29994-27.7013-112.29883-96.7012-112.29883zm-1171.4004 61.5c35 0 48.6016 26.50042 48.6016 58.90039h-97.2012c2-32.39997 16.9997-58.90039 48.5996-58.90039zm-620.1992 6.5c40.39996 0 56.90039 37.30043 56.90039 79.40039 0 41.59996-16.50043 78.79883-56.90039 78.79883s-56.90039-37.19887-56.90039-78.79883c0-42.09996 16.50043-79.40039 56.90039-79.40039zm1424 0c40.4 0 56.9004 37.30043 56.9004 79.40039 0 41.59996-16.5004 78.79883-56.9004 78.79883s-56.9004-37.19887-56.9004-78.79883c0-42.09996 16.5004-79.40039 56.9004-79.40039z"/>
</svg>
