<?xml version="1.0" encoding="utf-8"?>
<!-- Generator: Adobe Illustrator 25.0.0, SVG Export Plug-In . SVG Version: 6.00 Build 0)  -->
<svg version="1.1" id="Layer_1" xmlns="http://www.w3.org/2000/svg" xmlns:xlink="http://www.w3.org/1999/xlink" x="0px" y="0px"
	 viewBox="0 0 3840 602.4" style="enable-background:new 0 0 3840 602.4;" xml:space="preserve">
<style type="text/css">
	.st0{fill:#FFE900;}
	.st1{fill:#FFFFFF;}
</style>
<g>
	<g>
		<path d="M1082.5,285c-30,0-57.9-18.3-69.2-47.5l-21.4-55.4c-13.4-34.7,1-73.9,33.6-91.7l148.1-81.2c11-6.1,23.3-9.1,35.7-9.1
			c8.1,0,16.2,1.3,24,4c19.7,6.7,35.7,21.4,44,40.5l30.2,69.1c7.9,18,8.2,38.5,1.1,56.8s-21.4,33-39.4,40.9
			c-158.2,68.9-161.1,69.6-168.6,71.5C1094.4,284.3,1088.4,285,1082.5,285z"/>
		<path d="M3019,598.2c-36.8,0-69.7-16.8-91.5-43c-21.8,26.3-54.7,43-91.5,43c-36.8,0-69.7-16.8-91.5-43c-21.8,26.3-54.7,43-91.5,43
			c-65.5,0-118.9-53.3-118.9-118.9V283.8c0-65.6,53.3-118.9,118.9-118.9h366c65.5,0,118.9,53.3,118.9,118.9v195.6
			C3137.9,544.9,3084.5,598.2,3019,598.2z"/>
		<path class="st0" d="M3019,239h-220.8h-32.4H2653c-24.7,0-44.7,20-44.7,44.7v26.9v17.8v150.9c0,24.7,20,44.7,44.7,44.7
			c24.7,0,44.7-20,44.7-44.7V328.5h68h25.5v150.9c0,24.7,20,44.7,44.7,44.7c24.7,0,44.7-20,44.7-44.7V328.5h93.5v150.9
			c0,24.7,20,44.7,44.7,44.7c24.7,0,44.7-20,44.7-44.7V328.5v-14v-30.7C3063.7,259.1,3043.7,239,3019,239z"/>
		<path d="M3548.4,598.2c-36.8,0-69.7-16.8-91.5-43c-21.8,26.3-54.7,43-91.5,43c-65.5,0-118.9-53.3-118.9-118.9V283.8
			c0-65.6,53.3-118.9,118.9-118.9h183c65.5,0,118.9,53.3,118.9,118.9v195.6C3667.3,544.9,3614,598.2,3548.4,598.2z"/>
		<path class="st0" d="M3548.4,239h-183c-24.7,0-44.7,20-44.7,44.7v26.9v17.8v150.9c0,24.7,20,44.7,44.7,44.7
			c24.7,0,44.7-20,44.7-44.7V328.5h93.5v150.9c0,24.7,20,44.7,44.7,44.7c24.7,0,44.7-20,44.7-44.7V328.5v-14v-30.7
			C3593.1,259.1,3573.1,239,3548.4,239z"/>
		<path d="M3192.2,598.2c-65.5,0-118.9-53.3-118.9-118.9v-74.1c0-65.6,53.3-118.9,118.9-118.9s118.9,53.3,118.9,118.9v74.1
			C3311.1,544.9,3257.8,598.2,3192.2,598.2z"/>
		<path d="M3192.2,405.1c-65.5,0-118.9-53.3-118.9-118.9c0-65.6,53.3-118.9,118.9-118.9s118.9,53.3,118.9,118.9
			C3311.1,351.8,3257.8,405.1,3192.2,405.1z"/>
		<path class="st0" d="M3192.2,241.5c-24.7,0-44.7,20-44.7,44.7c0,24.7,20,44.7,44.7,44.7c24.7,0,44.7-20,44.7-44.7
			C3236.9,261.5,3216.9,241.5,3192.2,241.5z"/>
		<path d="M3721.1,598.2c-65.5,0-118.9-53.3-118.9-118.9v-74.1c0-65.6,53.3-118.9,118.9-118.9S3840,339.7,3840,405.3v74.1
			C3840,544.9,3786.7,598.2,3721.1,598.2z"/>
		<path d="M3721.1,405.1c-65.5,0-118.9-53.3-118.9-118.9c0-65.6,53.3-118.9,118.9-118.9S3840,220.7,3840,286.2
			C3840,351.8,3786.7,405.1,3721.1,405.1z"/>
		<path class="st0" d="M3721.1,330.9c24.7,0,44.7-20,44.7-44.7c0-24.7-20-44.7-44.7-44.7c-24.7,0-44.7,20-44.7,44.7
			C3676.4,310.9,3696.4,330.9,3721.1,330.9z"/>
		<path class="st0" d="M3192.2,360.6c-24.7,0-44.7,20-44.7,44.7v74.1c0,24.7,20,44.7,44.7,44.7c24.7,0,44.7-20,44.7-44.7v-74.1
			C3236.9,380.6,3216.9,360.6,3192.2,360.6z"/>
		<path class="st0" d="M3721.1,360.6c-24.7,0-44.7,20-44.7,44.7v74.1c0,24.7,20,44.7,44.7,44.7c24.7,0,44.7-20,44.7-44.7v-74.1
			C3765.8,380.6,3745.8,360.6,3721.1,360.6z"/>
	</g>
	<g>
		<path d="M74.2,595.9c-41,0-74.2-33.2-74.2-74.2V144.8c0-41,33.2-74.2,74.2-74.2h119.9c211.6,0,243.2,124,243.2,197.8
			c0,108.2-72.8,181.6-188.5,193.9v59.4c0,41-33.2,74.2-74.2,74.2H74.2z"/>
		<path d="M542.1,602.4c-130.4,0-221.4-90.9-221.4-221.1c0-130.5,91-221.6,221.4-221.6s221.4,91.1,221.4,221.6
			C763.5,511.5,672.4,602.4,542.1,602.4z"/>
		<path d="M895,595.9c-12.6,0-24.8-3.2-35.5-9c-10.6,5.8-22.6,9-35.5,9h-87.5c-41,0-74.2-33.2-74.2-74.2v-405
			c0-41,33.2-74.2,74.2-74.2H824c41,0,74.2,33.2,74.2,74.2v49.5h95.4c27.5,0,52.7,15.2,65.6,39.5c12.9,24.3,11.2,53.7-4.3,76.4
			l-60.7,89l69.5,111.2c14.3,22.9,15.1,51.7,2,75.3s-37.9,38.2-64.9,38.2H895z"/>
		<path d="M1173.4,602.4c-128.3,0-221.4-93.2-221.4-221.6c0-130.2,86.2-221.1,209.7-221.1c122.7,0,202,91,202,231.9v17.8
			c0,21.3-9,40.5-23.3,54v47c0,29.4-17.4,56-44.3,67.9C1259.8,594.3,1218.5,602.4,1173.4,602.4z"/>
		<path d="M1684.2,595.9c-15.7,0-30.3-4.9-42.3-13.2c-12,8.3-26.6,13.2-42.3,13.2h-87.5c-15.7,0-30.3-4.9-42.3-13.2
			c-12,8.3-26.6,13.2-42.3,13.2h-87.5c-41,0-74.2-33.2-74.2-74.2V240.4c0-41,33.2-74.2,74.2-74.2h79.7c9.7,0,18.9,1.9,27.4,5.2
			c20.2-7.7,42.4-11.7,65.9-11.7c30.9,0,59.1,7.6,83,21.7c25.4-14.2,54.6-21.7,86.1-21.7c74.6,0,163.6,34,163.6,196.2v165.8
			c0,41-33.2,74.2-74.2,74.2H1684.2z"/>
		<path d="M1966.1,602.4c-130.4,0-221.4-90.9-221.4-221.1c0-130.5,91-221.6,221.4-221.6s221.4,91.1,221.4,221.6
			C2187.5,511.5,2096.5,602.4,1966.1,602.4z"/>
		<path d="M2342.8,595.9c-18,0-34.5-6.4-47.4-17.1c-12.8,10.7-29.4,17.1-47.4,17.1h-87.5c-41,0-74.2-33.2-74.2-74.2V240.4
			c0-41,33.2-74.2,74.2-74.2h79.7c9.7,0,18.9,1.9,27.4,5.2c20.2-7.7,42.4-11.7,65.9-11.7c100.6,0,170.9,76.7,170.9,186.5v175.5
			c0,41-33.2,74.2-74.2,74.2H2342.8z M2266.9,366.2"/>
		<path class="st1" d="M74.2,144.8h119.9c115,0,169,38.9,169,123.7c0,76.1-55.6,121.5-149.6,121.5h-38.9v131.8H74.2V144.8z
			 M174.6,318.7h25.9c34.6,0,62.1-12.4,62.1-51.8c0-38.3-27.5-50.8-62.1-50.8h-25.9V318.7z"/>
		<path class="st1" d="M394.9,381.3c0-93.4,63.6-147.4,147.2-147.4c83.6,0,147.2,54,147.2,147.4c0,92.9-63.6,146.9-147.2,146.9
			C458.5,528.2,394.9,474.2,394.9,381.3z M598.9,381.3c0-42.1-16.5-79.4-56.9-79.4s-56.9,37.3-56.9,79.4c0,41.6,16.5,78.8,56.9,78.8
			S598.9,422.9,598.9,381.3z"/>
		<path class="st1" d="M736.5,116.7H824v241.9h1l72.9-118.3h95.7l-87.9,129.1l95.2,152.3H895l-70-139.3h-1v139.3h-87.5V116.7z"/>
		<path class="st1" d="M1340.2,240.4h79.7v51.8h1c17.5-40.5,52.5-58.3,92.3-58.3c35.9,0,65.6,17.3,79.2,54
			c20.4-37.8,53.9-54,89.9-54c72.9,0,89.4,45.9,89.4,122v165.8h-87.5V370.5c0-31.9-10.2-55.6-35-55.6c-31.1,0-49.6,27.5-49.6,88
			v118.8h-87.5V370.5c0-31.9-10.2-55.6-35-55.6c-31.1,0-49.6,27.5-49.6,88v118.8h-87.5V240.4z"/>
		<path class="st1" d="M1818.9,381.3c0-93.4,63.6-147.4,147.2-147.4c83.6,0,147.2,54,147.2,147.4c0,92.9-63.6,146.9-147.2,146.9
			C1882.5,528.2,1818.9,474.2,1818.9,381.3z M2022.9,381.3c0-42.1-16.5-79.4-56.9-79.4s-56.9,37.3-56.9,79.4
			c0,41.6,16.5,78.8,56.9,78.8S2022.9,422.9,2022.9,381.3z"/>
		<path class="st1" d="M2160.6,240.4h79.7v51.8h1c17.5-40.5,52.5-58.3,92.3-58.3c69,0,96.7,54,96.7,112.3v175.5h-87.5V385.6
			c0-52.9-16.5-70.7-40.3-70.7c-36,0-54.4,27.5-54.4,88v118.8h-87.5V240.4z"/>
		<path class="st1" d="M1114.6,409.4c4.9,38.9,31.6,54,74.4,54c23.8,0,51-5.9,77.3-21.6v68.6c-28.2,12.4-60.3,17.8-92.8,17.8
			c-83.6,0-147.2-54.5-147.2-147.4s56.9-146.9,135.6-146.9c93.8,0,127.8,74,127.8,157.7v17.8H1114.6z M1210.8,354.3
			c0-32.4-13.6-58.9-48.6-58.9c-31.6,0-46.6,26.5-48.6,58.9H1210.8z"/>
		<path class="st1" d="M1061.1,155.4l21.4,55.4c4.4-1.1,156.9-67.5,156.9-67.5l-30.2-69.1L1061.1,155.4z"/>
	</g>
</g>
</svg>
