<svg enable-background="new 0 0 3840 472.3" version="1.1" viewBox="0 0 3840 472.3" xml:space="preserve" xmlns="http://www.w3.org/2000/svg">
<style type="text/css">
	.st0{fill:#FFE900;}
	.st1{fill:#FFFFFF;}
</style>
<path d="m1180.6992 0-154.0996 84.5 22.3008 57.59961c4.6-1.1 163.1992-70.199219 163.1992-70.199219l-31.4004-71.900391zm-491.6992 44.199219v421.300781h91v-144.90039h1l72.80078 145h110.19922l-99.09961-158.40039 91.5-134.29883h-99.59961l-75.80078 123h-1v-251.701171h-91zm-689 29.201172v392.099609h104.5v-137.09961h40.40039c97.6999 0 155.59961-47.20047 155.59961-126.40039 0-88.19991-56.1009-128.599609-175.80078-128.599609h-124.69922zm104.5 74.199219h27c35.99996 0 64.59961 12.90082 64.59961 52.80078 0 40.99996-28.59965 53.90039-64.59961 53.90039h-27v-106.70117zm1026.8008 18.40039c-81.8999 0-141.00002 56.10088-141.00002 152.80078s66.19972 153.39844 153.09962 153.39844c33.9 0 67.2996-5.60001 96.5996-18.5v-71.29883c-27.3 16.29998-55.6004 22.5-80.4004 22.5-44.3999 0-72.1988-15.80121-77.2988-56.20117v-0.19922h181.8984v-18.5c0-86.99991-35.3985-164-132.8984-164zm-644.60158 0.09961c-86.89991 0-153.09961 56.20049-153.09961 153.40039 0 96.5999 66.1997 152.80078 153.09961 152.80078 86.99991 0 153.20117-56.20088 153.20117-152.80078 0-97.1999-66.30126-153.40039-153.20117-153.40039zm1009.99998 0c-41.3999 0-77.8 18.60121-96 60.70117h-1v-53.90039h-82.8984-0.2012v292.69922h91v-123.59961c0-62.99994 19.2997-91.59961 51.5996-91.59961 25.8 0 36.4004 24.80042 36.4004 57.90039v157.29883h91v-123.59961c0-62.99994 19.2997-91.59961 51.5996-91.59961 25.8 0 36.4004 24.80042 36.4004 57.90039v157.29883h91v-172.5c0-79.29992-17.2001-127-93-127-37.4 0-72.3 16.90121-93.5 56.20117-14.2-38.19996-45.0004-56.20117-82.4004-56.20117zm471.2012 0c-86.8999 0-153.0996 56.20049-153.0996 153.40039 0 96.5999 66.1997 152.80078 153.0996 152.80078 86.9999 0 153.1992-56.20088 153.1992-152.80078 0-97.1999-66.2993-153.40039-153.1992-153.40039zm382.1992 0c-41.3999 0-77.8 18.60121-96 60.70117h-1v-53.90039h-82.9004-0.0996v292.69922h91v-123.59961c0-62.99994 19.1997-91.59961 56.5996-91.59961 24.8 0 42 18.59966 42 73.59961v141.5h91v-182.59961c0-60.59994-28.7997-116.80078-100.5996-116.80078zm332.3008 5.40039c-25.7 0-46.5 20.80003-46.5 46.5v28 18.5 156.90039c0 25.69997 20.8 46.5 46.5 46.5s46.5-20.80003 46.5-46.5v-156.90039h70.7988 26.5v156.90039c0 25.69997 20.8 46.5 46.5 46.5s46.5-20.80003 46.5-46.5v-156.90039h97.3008v156.90039c0 25.69997 20.8 46.5 46.5 46.5s46.5-20.80003 46.5-46.5v-156.90039-14.5-32c0.2-25.69997-20.7004-46.5-46.4004-46.5h-229.6992-33.7012-117.2988zm741.1992 0c-25.7 0-46.5 20.80003-46.5 46.5v28 18.5 156.90039c0 25.69997 20.8 46.5 46.5 46.5s46.5-20.80003 46.5-46.5v-156.90039h97.3008v156.90039c0 25.69997 20.8 46.5 46.5 46.5s46.5-20.80003 46.5-46.5v-156.90039-14.5-32c0-25.69997-20.9-46.5-46.5-46.5h-190.3008zm-180.2988 2.59961c-25.7 0-46.5 20.80003-46.5 46.5s20.8 46.5 46.5 46.5 46.5-20.80003 46.5-46.5-20.8-46.5-46.5-46.5zm550.1992 0c-25.7 0-46.5 20.80003-46.5 46.5s20.8 46.5 46.5 46.5 46.5-20.80003 46.5-46.5-20.8-46.5-46.5-46.5zm-2661.8008 56.09961c36.4 0 50.6016 27.5012 50.6016 61.20117h-101.1016c2-33.69997 17.7001-61.20117 50.5-61.20117zm-644.99998 6.70117c41.89996 0 59.10156 38.79965 59.10156 82.59961 0 43.19996-17.2016 82-59.10156 82s-59.09961-38.70004-59.09961-82c0-43.79996 17.19965-82.59961 59.09961-82.59961zm1481.30078 0c41.9 0 59.0996 38.79965 59.0996 82.59961 0 43.19996-17.1996 82-59.0996 82s-59.0996-38.70004-59.0996-82c0-43.79996 17.1996-82.59961 59.0996-82.59961zm1275.3008 61c-25.7 0-46.5 20.80003-46.5 46.5v77c0 25.69997 20.8 46.5 46.5 46.5s46.5-20.80003 46.5-46.5v-77c0-25.69997-20.8-46.5-46.5-46.5zm550.1992 0c-25.7 0-46.5 20.80003-46.5 46.5v77c0 25.69997 20.8 46.5 46.5 46.5s46.5-20.80003 46.5-46.5v-77c0-25.69997-20.8-46.5-46.5-46.5z"/>
</svg>
