<svg enable-background="new 0 0 3839 709.6" version="1.1" viewBox="0 0 3839 709.6" xml:space="preserve" xmlns="http://www.w3.org/2000/svg">
<path d="m161.59961 0c-4.1 0-5 5.8000012-1 7 216.69978 65.399935 352.30044 259.60014 405.40039 397.5 1.4 3.7 6.90039 2.69921 6.90039-1.30078v-24.39844c0-0.3 3.9e-4 -0.6-0.09961-1-26.79997-98.2999-139.10054-282.501265-286.40039-377.2011706-0.6-0.3999996-1.3-0.59960938-2-0.59960938h-122.80078zm200.5 0c-3.4 0-4.89922 4.3003927-2.19922 6.4003906 97.8999 75.6999244 175.99964 206.3004794 206.09961 290.4003894 1.4 3.8 6.90039 2.79883 6.90039-1.20117v-36.59961c0-0.4-0.00117-0.7-0.20117-1-20.69998-69.19993-81.99929-189.699677-155.69922-257.0996094-0.6-0.5999994-1.50039-0.90039062-2.40039-0.90039062h-52.5zm123.40039 0c-2.9 0-4.60039 3.2996117-2.90039 5.5996094 33.09997 47.3999526 64.60041 119.7000506 83.40039 172.5000006 1.3 3.8 6.90039 2.80078 6.90039-1.19922v-173.3007806c0-1.999998-1.59961-3.5996094-3.59961-3.5996094h-83.80078zm329.09961 0c-10.11249-0.037499962-19.81114 0.84375171-29.04102 2.5507812-4.61493 0.8535148-9.11248 1.9131849-13.48632 3.1679688-4.37385 1.2547839-8.62306 2.7050798-12.74219 4.337891-4.11914 1.63281-8.10818 3.447951-11.95899 5.435547-3.8508 1.987595-7.56396 4.147658-11.13281 6.466796-3.56884 2.319139-6.99236 4.798343-10.26562 7.425782-3.27327 2.627438-6.39532 5.401956-9.35938 8.314453s-5.77088 5.962405-8.41211 9.136719c-2.64123 3.174313-5.11709 6.473831-7.42187 9.886718-2.30479 3.412887-4.43787 6.940141-6.39258 10.56836s-3.73125 7.357425-5.32227 11.177734c-1.59101 3.820309-2.99724 7.731547-4.21093 11.720703-1.2137 3.989156-2.23585 8.056645-3.0586 12.191407-0.82275 4.13476-1.44509 8.33662-1.86328 12.59375-0.41819 4.25712-0.63086 8.56953-0.63086 12.92578 0 8.71249 0.84375 17.2338 2.48242 25.47656 0.81934 4.12139 1.83736 8.17376 3.04688 12.14453 1.20952 3.97078 2.61055 7.86016 4.19726 11.65821 3.17344 7.59608 7.08907 14.8252 11.69336 21.59765 4.6043 6.77246 9.89884 13.08751 15.83008 18.85938 2.96562 2.88593 6.08931 5.63567 9.36719 8.23828 6.55575 5.20522 13.72432 9.82251 21.45117 13.76172 3.86342 1.9696 7.86524 3.7707 12.00195 5.39062 4.13672 1.61992 8.40767 3.05853 12.80469 4.30664 4.39702 1.24812 8.92012 2.30596 13.56445 3.16016 9.28867 1.7084 19.05978 2.60547 29.25977 2.60547h765.0996c45.675 0 82.9033-18.19332 106.7344-46.51758 2.6479-3.14714 5.1291-6.41846 7.4394-9.80469 4.6207-6.77245 8.5532-14.00157 11.7422-21.59765 1.5946-3.79805 3.0025-7.68743 4.2188-11.65821 1.2162-3.97077 2.24-8.02314 3.0644-12.14453 0.8244-4.12138 1.4502-8.31262 1.8692-12.5625 0.419-4.24987 0.6328-8.55781 0.6328-12.91406-0.0188-4.37499-0.2495-8.70516-0.6856-12.97656-0.4361-4.27141-1.0782-8.48389-1.9179-12.62891-3.359-16.58006-9.8918-32.059387-19.1602-45.705076-2.3171-3.411423-4.8049-6.707889-7.457-9.878906-2.6521-3.171018-5.4699-6.215238-8.4434-9.123047-2.9734-2.90781-6.1037-5.678982-9.3847-8.300782-13.1242-10.487196-28.6537-18.594829-46.1504-23.5937496-4.3742-1.2497302-8.8712-2.3045907-13.4844-3.1542969s-9.3432-1.4949955-14.1817-1.921875c-4.8384-0.42687946-9.7859-0.635937481-14.8359-0.6171875h-765.49999zm0.40039 31.099609h764.8008c12.0562 0 23.2435 1.511771 33.4648 4.320313 3.4071 0.936181 6.7059 2.016017 9.8946 3.232422 3.1886 1.216405 6.2675 2.57007 9.2304 4.050781 2.963 1.480711 5.8111 3.08926 8.541 4.818359 2.73 1.7291 5.3424 3.577493 7.8321 5.539063 4.9794 3.92314 9.4705 8.297173 13.4453 13.054687 1.9874 2.378758 3.845 4.852542 5.5703 7.416016 3.4506 5.126948 6.3699 10.6086 8.7285 16.378906 1.1793 2.885154 2.2179 5.841165 3.1133 8.863282 1.7908 6.044232 3.0077 12.347172 3.6191 18.843752 0.3058 3.24829 0.459 6.54531 0.459 9.88281 0 6.67499-0.6176 13.18946-1.8262 19.47852-1.2085 6.28905-3.0078 12.35195-5.3671 18.12695-1.1797 2.8875-2.4986 5.70254-3.9551 8.4375-1.4566 2.73496-3.0512 5.39063-4.7774 7.95703-1.7261 2.5664-3.5837 5.04395-5.5722 7.42578-1.9886 2.38183-4.1078 4.66836-6.3516 6.84961-2.2437 2.18125-4.6138 4.25801-7.1055 6.22266-2.4917 1.96464-5.1054 3.8168-7.8379 5.54883-5.4648 3.46405-11.4027 6.44726-17.7871 8.88476-6.3843 2.4375-13.2148 4.32852-20.4609 5.61133-3.623 0.6414-7.3501 1.13223-11.1777 1.46094-3.8277 0.32871-7.7563 0.49609-11.7813 0.49609h-764.6992c-12.11249 0.05625-23.33487-1.42044-33.57617-4.20898-3.41377-0.92952-6.71993-2.00391-9.91211-3.2168-3.19219-1.21289-6.27061-2.56502-9.23438-4.04492-2.96376-1.47991-5.8125-3.0878-8.54101-4.81836-2.72851-1.73057-5.3378-3.58201-7.82422-5.54688-2.48642-1.96486-4.85039-4.04375-7.08789-6.22656s-4.34834-4.47107-6.33008-6.85547c-3.96347-4.76879-7.40918-9.92339-10.30859-15.40039-7.24853-13.69249-11.08594-29.39455-11.08594-46.08203 0-6.67499 0.61973-13.18204 1.82812-19.46094 0.6042-3.13945 1.35462-6.22295 2.25-9.240232 0.89539-3.017283 1.93594-5.967972 3.11524-8.847657 1.17929-2.879684 2.49719-5.687405 3.95312-8.414062 1.45593-2.726658 3.04815-5.37344 4.77344-7.931641 1.72529-2.5582 3.58489-5.02803 5.57227-7.402344 3.97475-4.748628 8.46587-9.114652 13.44531-13.035156 2.48972-1.960252 5.10205-3.808986 7.83203-5.539062 8.18993-5.19023 17.44471-9.309476 27.66602-12.150391 3.4071-0.946972 6.9208-1.751173 10.53906-2.40625s7.33997-1.162012 11.16211-1.509766c3.82214-0.347753 7.74492-0.5375 11.76367-0.5625zm114.30078 35.900391v24.699219h36.19922v-24.699219h-36.19922zm-57.80078 0.300781v83.999999l-51.80078-83.900389h-37.59961v120.099609h37.20117v-83.90039l52.09961 83.90039h37.19922v-120.199219h-37.09961zm590.8008 0.398438v44.000001c-5.7-3.4-11.9008-6.39961-20.3008-7.09961-26-2.4-46 20.60002-46 42 0 27.79997 21.2992 38.29961 24.6992 39.59961 12.2 5.69999 27.8016 5.69999 41.6016-3v4.80078h35.5996v-120.300781h-35.5996zm158.0996 0.601562c-10.2 0-18.5996 8.09962-18.5996 18.59961 0 10.199989 8.4996 18.599609 18.5996 18.599609 10.2 0 18.5996-8.499619 18.5996-18.599609 0-10.39999-8.4996-18.59961-18.5996-18.59961zm0 3.699219c8.1 0 14.9004 6.800399 14.9004 14.900391-0.1 8.199991-6.5004 14.900389-14.9004 14.900389-8.1 0-14.9004-6.800397-14.9004-14.900389s6.8004-14.900391 14.9004-14.900391zm-7.5 4.5v20.599609h5.0996v-8.5h2.4004l4.0996 8.5h5.4004l-4.4004-9.099609c2.7-0.999999 4.3008-3.100784 4.3008-5.800781 0-4.099996-3.0008-5.699219-8.8008-5.699219h-8.0996zm5.0996 2.699219h2c3 0 4.4004 1.000002 4.4004 3 0.3 2.399997-1.3 3.101562-4 3.101562h-2.4004v-6.101562zm-507.9004 0.300781v16.199219h-19.5996v11.900391h19.5996v79.90039h36.2012v-79.90039h19.5996v-11.900391h-19.5996v-16.199219h-36.2012zm-964.53905 1.384766c-36.60191 0.880031-69.178935 11.734006-94.660159 33.615234-90.59991 77.69992-56.9994779 265.40015 74.900389 419 131.89987 153.59985 312.29853 215.29992 402.89844 137.5 90.49991-77.69992 57.00143-265.40015-74.89844-419-94.8749-110.47176-214.70203-173.364204-308.24023-171.115234zm1416.53905 21.314454c-29.1 0-52.7988 20.00002-52.7988 45 0 24.69997 23.6988 45 52.7988 45s52.8008-20.00003 52.8008-45c0-24.99998-22.9008-45-52.8008-45zm-347.7988 0.40039c-29.4 0-53.1016 20.00002-53.1016 45 0 24.69997 23.7016 45 53.1016 45 24.4 0 44.9984-13.89885 51.3984-32.79883h-35.8984v4.79883c0 14.59998-9.5004 17.90039-14.9004 17.90039s-15.2012-3.40041-15.2012-17.90039v-16.59961h68.1016v-0.09961c0-24.69997-24-45.30078-53.5-45.30078zm-164.2012 1.30078c-11.9 0.3-21.9992 5.39923-28.6992 12.19922v-8.5h-35.9004v79.90039h35.9004v-52.5c0-7.09999 7.4988-14.59961 17.2988-14.59961s16.6016 7.79962 16.6016 14.59961v52.5h35.8984v-43.30078c-0.1-31.89997-27.4996-40.59883-41.0996-40.29883zm293.8008 0c-11.9 0.3-22.0012 5.39923-28.7012 12.19922v-8.5h-35.8984v79.90039h35.7988v-52.5c0-7.09999 7.5008-14.59961 17.3008-14.59961s16.5996 7.79962 16.5996 14.59961v52.5h35.9004v-43.30078c-0.4-31.89997-27.8-40.59883-41-40.29883zm-414.59962 3.69922v79.90039h36.19922v-79.90039h-36.19922zm632.50002 4.40039c7.1 0 14.8984 5.1004 14.8984 17.90039v16.90039 17c0 12.89999-7.4984 17.89844-14.8984 17.89844-7.1 0-14.9004-5.39845-14.9004-17.89844v-17.30078-16.59961c0-12.49999 7.5004-17.90039 14.9004-17.90039zm-346.4004 0.30078c4.8 0 9.8004 2.40001 12.9004 7.5 2.4 4.1 2.3984 8.79962 2.3984 15.59961h-30.0996c-0.8-7.09999-0.7996-11.49961 1.9004-15.59961 2.7-5.09999 8.1004-7.1 12.9004-7.5zm232.6992 5.09961c5.7 0 14.2012 2.99962 14.2012 15.59961v14.19922 14.20117c0 12.19999-8.5012 15.59961-14.2012 15.59961s-14.1992-3.39962-14.1992-15.59961v-14.20117-14.19922c0-12.49999 8.4992-15.59961 14.1992-15.59961zm-1277.79882 104.40039c120.99988 3 165.29838 183.89844 106.39844 187.89844 0 0-18.69966-42.99924-71.59961-62.69922-41.39996-15.39998-60.69922-3.90039-60.69922-3.90039-14.09999-9.79999-63.19952-123.49883 25.90039-121.29883zm198.5 37.29883c120.99988 3 165.29838 183.90039 106.39844 187.90039 0 0-18.69966-42.99924-71.59961-62.69922-41.39996-15.39998-60.69922-3.90039-60.69922-3.90039-14.09999-9.79999-63.19952-123.50078 25.90039-121.30078zm2514.39842 81.70117a45.299999 45.299999 0 0 0-45.2988 45.29883 45.299999 45.299999 0 0 0 45.2988 45.30078 45.299999 45.299999 0 0 0 45.3008-45.30078 45.299999 45.299999 0 0 0-45.3008-45.29883zm-2095.29881 3.19922c-59.99994 0.1-108.59961 48.69928-108.59961 108.69922s48.59928 108.80078 108.69922 108.80078h178.19922c15.89998 0 28.80078 12.9008 28.80078 28.80078v15c0 15.89999-12.9008 28.79883-28.80078 28.79883h-281.09961v72h292.30078c59.99991 0 108.69921-48.59928 108.69921-108.69922s-48.6993-108.80078-108.69921-108.80078h-178.30078c-15.89998 0-28.79883-12.89884-28.79883-28.79883v-15c0-15.89998 12.89885-28.80078 28.79883-28.80078h247.70119v-72h-258.90041zm1133.09961 4.19922v357.80078h90.9004v-357.80078h-90.9004zm114.5996 0v357.80078h90.9004v-357.80078h-90.9004zm-589.4004 9.90039v94.70117h-34.5996v63.79883h34.5996v155.90039c0 18.49998 15 33.5 33.5 33.5h91.6016v-63.80078h-34.2012v-125.59961h47.7012v-63.79883h-47.7012v-94.70117h-90.9004zm-1219.78709 49.89062c35.56461 1.2781 64.825 20.02308 70.1875 47.81055 6.59999 34.19997-25.49888 68.99845-71.79883 77.89844-46.19995 8.89999-89.00157-11.59886-95.60156-45.79883s25.60083-69.1004 71.80078-77.90039c8.66249-1.66875 17.20489-2.30471 25.41211-2.00977zm198.90039 36.23829c35.56461 1.30698 64.82501 19.98401 70.1875 47.77148 6.59999 34.09997-25.50083 69.0004-71.80078 77.90039-46.19996 8.89999-88.99962-11.60081-95.59961-45.80078s25.60083-69.1004 71.80078-77.90039c8.66249-1.65 17.20489-2.27232 25.41211-1.9707zm1255.2871 8.4707c-47.0999 0-85.2988 38.20083-85.2988 85.30078v82.69922c0 47.09995 38.1989 85.30078 85.2988 85.30078h197.2012v-63.80078h-159.9004-21.2012c-5.7 0-10.2988-4.59884-10.2988-10.29883v-11l180-48.20117c17.1-4.5 29-19.99924 29-37.69922v-20.90039c0-19.29998-7.6012-34.29923-22.7012-45.19922-15.2-10.79999-36.4984-16.20117-63.8984-16.20117h-128.2012zm1356.8008 0c-47.1 0-85.3008 38.20083-85.3008 85.30078v82.69922c0 47.09995 38.2008 85.30078 85.3008 85.30078h197.1992v-63.80078h-159.9004-21.1992c-5.7 0-10.3008-4.59884-10.3008-10.29883v-11l180-48.20117c17.1-4.5 29-19.99924 29-37.69922v-20.90039c0-19.29998-7.5992-34.29923-22.6992-45.19922-15.2-10.79999-36.5004-16.20117-63.9004-16.20117h-128.1992zm-1922.0996 0.10156v63.79883h159.8984 21.2012c5.7 0 10.2988 4.60079 10.2988 10.30078v11l-180 48.29883c-17.1 4.49999-29 20.00119-29 37.70117v20.79883c0 19.29998 7.6012 34.30118 22.7012 45.20117 15.2 10.79999 36.5004 16.19922 63.9004 16.19922h128.1992c47.1 0 85.3008-38.19888 85.3008-85.29883v-82.70117c0-47.09995-38.2008-85.29883-85.3008-85.29883h-197.1992zm1053.5996 0v63.79883h159.9004 21.1992c5.7 0 10.3008 4.60079 10.3008 10.30078v11l-180 48.29883c-17.1 4.49999-29 20.00119-29 37.70117v20.79883c0 19.29998 7.5992 34.30118 22.6992 45.20117 15.2 10.79999 36.5004 16.19922 63.9004 16.19922h128.1992c47.1 0 85.3008-38.19888 85.3008-85.29883v-82.70117c0-47.09995-38.2008-85.29883-85.3008-85.29883h-197.1992zm373.4004 0-93 0.09961 121.2988 229.40039c4.4 8.49999 12.2 15.10001 23.5 20 11.3 4.8 23.9004 7.29883 37.9004 7.29883 13.9 0 26.4-2.39883 37.5-7.29883 11.1-4.89999 18.6996-11.50001 23.0996-20l121.2012-229.5h-93.2012l-90.1992 171.69922-88.0996-171.69922zm295.1992 0v253.19922h90.9004v-253.19922h-90.9004zm414.5996 0 121.3008 229.39844c4.4 8.49999 12.2 15.1 23.5 20 11.4 4.89999 24.0004 7.30078 37.9004 7.30078s26.4-2.50079 37.5-7.30078c11.1-4.9 18.7996-11.50001 23.0996-20l50-118.79883 50 118.79883c4.4 8.49999 11.9996 15.1 23.0996 20 11 4.89999 23.5 7.30078 37.5 7.30078s26.7004-2.50079 37.9004-7.30078c11.3-4.9 19.1-11.50001 23.5-20l121.5996-229.39844h-93.1992l-88.1016 171.69922-65.5996-171.69922h-93.0996l-65.5996 171.69922-88.0996-171.69922h-93.2012zm-3204.566397 44.21484c-5.313886 0.3177-10.152731 5.79689-7.333984 11.98438 23.499976 51.29995 35.601562 79.89925 35.601562 113.69922 0 40.99996-32.600422 62.50079-63.90039 73.80078-5.2999951 1.8-3.900776 9.59961 1.699218 9.59961h290.300781c7.59999 0 9.60038-10.59883 2.40039-13.29883-72.79993-27.59997-174.40047-95.70166-251.900389-192.60156-1.937498-2.40625-4.451785-3.328-6.867188-3.1836zm1654.466797 17.1836h115.8008v11.10156l-131.5 33.39844v-28.79883c0-8.69999 7.0992-15.70117 15.6992-15.70117zm1356.8008 0h115.7988v11.10156l-131.5 33.39844v-28.79883c0-8.69999 7.1012-15.70117 15.7012-15.70117zm-1752 85.90039v28.80078c0 8.69999-7.1012 15.69922-15.7012 15.69922h-115.7988v-11.09961l131.5-33.40039zm1053.5996 0v28.80078c0 8.69999-7.1012 15.69922-15.7012 15.69922h-115.7988v-11.09961l131.5-33.40039z"/>
</svg>
