<?xml version="1.0" encoding="utf-8"?>
<!-- Generator: Adobe Illustrator 26.0.3, SVG Export Plug-In . SVG Version: 6.00 Build 0)  -->
<svg version="1.1" id="Layer_1" xmlns="http://www.w3.org/2000/svg" xmlns:xlink="http://www.w3.org/1999/xlink" x="0px" y="0px"
	 viewBox="0 0 3839 709.6" style="enable-background:new 0 0 3839 709.6;" xml:space="preserve">
<style type="text/css">
	.st0{fill:#FFFFFF;}
	.st1{fill:#FCDA00;}
	.st2{fill:#73B744;}
	.st3{fill:#2AA4DD;}
	.st4{fill:#ED2224;}
	.st5{fill:#E31E26;}
	.st6{display:none;}
	.st7{display:inline;}
</style>
<g>
	<g>
		<g>
			<g>
				<g>
					<path d="M284.4,0L161.6,0c-4.1,0-5,5.8-1,7C377.3,72.4,512.9,266.6,566,404.5c1.4,3.7,6.9,2.7,6.9-1.3l0-24.4
						c0-0.3,0-0.6-0.1-1C546,279.5,433.7,95.3,286.4,0.6C285.8,0.2,285.1,0,284.4,0z"/>
					<path d="M414.6,0h-52.5c-3.4,0-4.9,4.3-2.2,6.4c97.9,75.7,176,206.3,206.1,290.4c1.4,3.8,6.9,2.8,6.9-1.2l0-36.6
						c0-0.4,0-0.7-0.2-1C552,188.8,490.7,68.3,417,0.9C416.4,0.3,415.5,0,414.6,0z"/>
					<path d="M569.3,0h-83.8c-2.9,0-4.6,3.3-2.9,5.6C515.7,53,547.2,125.3,566,178.1c1.3,3.8,6.9,2.8,6.9-1.2l0-173.3
						C572.9,1.6,571.3,0,569.3,0z"/>
				</g>
				<path d="M13.6,706.1h290.3c7.6,0,9.6-10.6,2.4-13.3c-72.8-27.6-174.4-95.7-251.9-192.6c-6.2-7.7-18.3-0.2-14.2,8.8
					c23.5,51.3,35.6,79.9,35.6,113.7c0,41-32.6,62.5-63.9,73.8C6.6,698.3,8,706.1,13.6,706.1z"/>
			</g>
		</g>
		<path d="M453.8,252C321.8,98.3,141.5,36.7,50.9,114.5c-90.6,77.7-57,265.4,74.9,419S438.1,748.8,528.7,671
			C619.2,593.3,585.7,405.6,453.8,252z M224.8,533.7c-46.2,8.9-89-11.6-95.6-45.8c-6.6-34.2,25.6-69.1,71.8-77.9
			c46.2-8.9,89,11.6,95.6,45.8S271.1,524.8,224.8,533.7z M276.7,409.7c0,0-18.7-43-71.6-62.7c-41.4-15.4-60.7-3.9-60.7-3.9
			c-14.1-9.8-63.2-123.5,25.9-121.3C291.3,224.8,335.6,405.7,276.7,409.7z M423.7,569.9c-46.2,8.9-89-11.6-95.6-45.8
			s25.6-69.1,71.8-77.9s89,11.6,95.6,45.8C502.1,526.1,470,561,423.7,569.9z M475.2,447c0,0-18.7-43-71.6-62.7
			c-41.4-15.4-60.7-3.9-60.7-3.9c-14.1-9.8-63.2-123.5,25.9-121.3C489.8,262.1,534.1,443,475.2,447z"/>
	</g>
	<g>
		<g>
			<g>
				<g>
					<g>
						<g>
							<path d="M1306.7,537.9v-11c0-5.7-4.6-10.3-10.3-10.3h-21.2h-159.9v-63.8h197.2c47.1,0,85.3,38.2,85.3,85.3v82.7
								c0,47.1-38.2,85.3-85.3,85.3h-128.2c-27.4,0-48.7-5.4-63.9-16.2c-15.1-10.9-22.7-25.9-22.7-45.2v-20.8
								c0-17.7,11.9-33.2,29-37.7L1306.7,537.9L1306.7,537.9z M1175.3,633.5v11.1l0,0h115.8c8.6,0,15.7-7,15.7-15.7v-28.8l0,0
								L1175.3,633.5L1175.3,633.5z"/>
						</g>
					</g>
					<g>
						<g>
							<path d="M2360.3,537.9v-11c0-5.7-4.6-10.3-10.3-10.3h-21.2h-159.9v-63.8h197.2c47.1,0,85.3,38.2,85.3,85.3v82.7
								c0,47.1-38.2,85.3-85.3,85.3h-128.2c-27.4,0-48.7-5.4-63.9-16.2c-15.1-10.9-22.7-25.9-22.7-45.2v-20.8
								c0-17.7,11.9-33.2,29-37.7L2360.3,537.9L2360.3,537.9z M2228.9,633.5v11.1l0,0h115.8c8.6,0,15.7-7,15.7-15.7v-28.8l0,0
								L2228.9,633.5L2228.9,633.5z"/>
						</g>
					</g>
					<g>
						<g>
							<path d="M1686.4,620.9v11c0,5.7,4.6,10.3,10.3,10.3h21.2h159.9V706h-197.2c-47.1,0-85.3-38.2-85.3-85.3V538
								c0-47.1,38.2-85.3,85.3-85.3h128.2c27.4,0,48.7,5.4,63.9,16.2c15.1,10.9,22.7,25.9,22.7,45.2V535c0,17.7-11.9,33.2-29,37.7
								L1686.4,620.9L1686.4,620.9z M1817.8,525.3v-11.1l0,0H1702c-8.6,0-15.7,7-15.7,15.7v28.8l0,0L1817.8,525.3L1817.8,525.3z"/>
						</g>
					</g>
					<g>
						<g>
							<path d="M3043.2,620.9v11c0,5.7,4.6,10.3,10.3,10.3h21.2h159.9V706h-197.2c-47.1,0-85.3-38.2-85.3-85.3V538
								c0-47.1,38.2-85.3,85.3-85.3h128.2c27.4,0,48.7,5.4,63.9,16.2c15.1,10.9,22.7,25.9,22.7,45.2V535c0,17.7-11.9,33.2-29,37.7
								L3043.2,620.9L3043.2,620.9z M3174.6,525.3v-11.1l0,0h-115.8c-8.6,0-15.7,7-15.7,15.7v28.8l0,0L3174.6,525.3L3174.6,525.3z"
								/>
						</g>
					</g>
					<g>
						<g>
							<path d="M1921,348.2h90.9V706H1921V348.2z"/>
						</g>
					</g>
					<g>
						<g>
							<path d="M2035.6,348.2h90.9V706h-90.9V348.2z"/>
						</g>
					</g>
					<g>
						<g>
							<path d="M2542.3,452.8l88.1,171.7l90.2-171.7h93.2l-121.2,229.5c-4.4,8.5-12,15.1-23.1,20c-11.1,4.9-23.6,7.3-37.5,7.3
								c-14,0-26.6-2.5-37.9-7.3c-11.3-4.9-19.1-11.5-23.5-20l-121.3-229.4L2542.3,452.8L2542.3,452.8z"/>
						</g>
					</g>
					<path d="M3745.8,452.8l-88.1,171.7l-65.6-171.7H3499l-65.6,171.7l-88.1-171.7h-93.2l121.3,229.4c4.4,8.5,12.2,15.1,23.5,20
						c11.4,4.9,24,7.3,37.9,7.3c13.9,0,26.4-2.5,37.5-7.3c11.1-4.9,18.8-11.5,23.1-20l50-118.8l50,118.8c4.4,8.5,12,15.1,23.1,20
						c11,4.9,23.5,7.3,37.5,7.3s26.7-2.5,37.9-7.3c11.3-4.9,19.1-11.5,23.5-20L3839,452.8H3745.8z"/>
					<g>
						<rect x="2837.5" y="452.8" width="90.9" height="253.2"/>
					</g>
					<g>
						<path d="M1584.8,516.6v-63.8h-47.7v-94.7h-90.9v94.7h-34.6v63.8h34.6v155.9c0,18.5,15,33.5,33.5,33.5l0,0h91.6v-63.8h-34.2
							V516.6H1584.8z"/>
					</g>
					<path d="M977.4,488.6H799.1c-15.9,0-28.8-12.9-28.8-28.8v-15c0-15.9,12.9-28.8,28.8-28.8h247.7v-72H787.9
						c-60,0.1-108.6,48.7-108.6,108.7S727.9,561.5,788,561.5h178.2c15.9,0,28.8,12.9,28.8,28.8v15c0,15.9-12.9,28.8-28.8,28.8H685.1
						v72h292.3c60,0,108.7-48.6,108.7-108.7C1086.1,537.3,1037.4,488.6,977.4,488.6z"/>
				</g>
				<circle cx="2883.2" cy="386.1" r="45.3"/>
			</g>
		</g>
		<g>
			<g>
				<g>
					<g>
						<path d="M871.5,151.3l-51.8-83.9h-37.6v120.1h37.2v-83.9l52.1,83.9h37.2V67.3h-37.1V151.3z M1165.9,107.6V95.7h-19.6V79.5
							h-36.2v16.2h-19.6v11.9h19.6v79.9h36.2v-79.9H1165.9z M929.3,187.5h36.2v-79.9h-36.2V187.5z M929.3,91.7h36.2V67h-36.2V91.7z
							 M1562.1,102.2c-29.1,0-52.8,20-52.8,45c0,24.7,23.7,45,52.8,45c29.1,0,52.8-20,52.8-45C1614.9,122.2,1592,102.2,1562.1,102.2
							z M1576.7,163.8c0,12.9-7.5,17.9-14.9,17.9c-7.1,0-14.9-5.4-14.9-17.9c0-4.8,0-17.3,0-17.3s0-11.9,0-16.6
							c0-12.5,7.5-17.9,14.9-17.9c7.1,0,14.9,5.1,14.9,17.9c0,4.8,0,13.9,0,16.9C1576.7,147.2,1576.7,159.1,1576.7,163.8z
							 M1462.3,111.7c-5.7-3.4-11.9-6.4-20.3-7.1c-26-2.4-46,20.6-46,42c0,27.8,21.3,38.3,24.7,39.6c12.2,5.7,27.8,5.7,41.6-3
							c0,0.7,0,4.8,0,4.8h35.6V67.7h-35.6C1462.3,67.3,1462.3,93.1,1462.3,111.7z M1462.3,147.2c0,0,0,9.1,0,14.2
							c0,12.2-8.5,15.6-14.2,15.6s-14.2-3.4-14.2-15.6c0-4.4,0-14.2,0-14.2s0-10.2,0-14.2c0-12.5,8.5-15.6,14.2-15.6
							s14.2,3,14.2,15.6C1462.3,137.1,1462.3,147.2,1462.3,147.2z M1050.1,103.9c-11.9,0.3-22,5.4-28.7,12.2c0-2,0-8.5,0-8.5h-35.9
							v79.9h35.9c0,0,0-49.1,0-52.5c0-7.1,7.5-14.6,17.3-14.6s16.6,7.8,16.6,14.6c0,5.1,0,52.5,0,52.5h35.9c0,0,0-37.9,0-43.3
							C1091.1,112.3,1063.7,103.6,1050.1,103.9z M1343.9,103.9c-11.9,0.3-22,5.4-28.7,12.2c0-2,0-8.5,0-8.5h-35.9v79.9h35.8
							c0,0,0-49.1,0-52.5c0-7.1,7.5-14.6,17.3-14.6s16.6,7.8,16.6,14.6c0,5.1,0,52.5,0,52.5h35.9c0,0,0-37.9,0-43.3
							C1384.5,112.3,1357.1,103.6,1343.9,103.9z M1267.8,147.9c0-24.7-24-45.3-53.5-45.3c-29.4,0-53.1,20-53.1,45
							c0,24.7,23.7,45,53.1,45c24.4,0,45-13.9,51.4-32.8h-35.9c0,0,0,0.3,0,4.8c0,14.6-9.5,17.9-14.9,17.9s-15.2-3.4-15.2-17.9
							c0-4.4,0-16.6,0-16.6H1267.8z M1202.5,119.8c2.7-5.1,8.1-7.1,12.9-7.5c4.8,0,9.8,2.4,12.9,7.5c2.4,4.1,2.4,8.8,2.4,15.6h-30.1
							C1199.8,128.3,1199.8,123.9,1202.5,119.8z M1629.8,82.2c0-4.1-3-5.7-8.8-5.7h-8.1v20.6h5.1v-8.5h2.4l4.1,8.5h5.4l-4.4-9.1
							C1628.2,87,1629.8,84.9,1629.8,82.2z M1620.4,85.3h-2.4v-6.1h2c3,0,4.4,1,4.4,3C1624.7,84.6,1623.1,85.3,1620.4,85.3z
							 M1620.4,68.3c-10.2,0-18.6,8.1-18.6,18.6c0,10.2,8.5,18.6,18.6,18.6c10.2,0,18.6-8.5,18.6-18.6
							C1639,76.5,1630.5,68.3,1620.4,68.3z M1620.4,101.8c-8.1,0-14.9-6.8-14.9-14.9s6.8-14.9,14.9-14.9c8.1,0,14.9,6.8,14.9,14.9
							C1635.2,95.1,1628.8,101.8,1620.4,101.8z M1580.1,0H814.6c-80.9-0.3-135.3,58.2-135.3,127.9S733.4,255.1,815,255.1h765.1
							c81.2,0,135.7-57.5,135.7-127.2C1715.5,57.9,1660.9-0.3,1580.1,0z M1579.7,224H815c-64.6,0.3-103.9-43-103.9-96.4
							S750.7,31.5,815,31.1h764.8c64.3,0,103.9,43,103.9,96.4S1644.1,224,1579.7,224z M1580.1,0H814.6
							c-80.9-0.3-135.3,58.2-135.3,127.9S733.4,255.1,815,255.1h765.1c81.2,0,135.7-57.5,135.7-127.2
							C1715.5,57.9,1660.9-0.3,1580.1,0z M1579.7,224H815c-64.6,0.3-103.9-43-103.9-96.4S750.7,31.5,815,31.1h764.8
							c64.3,0,103.9,43,103.9,96.4S1644.1,224,1579.7,224z M1580.1,0H814.6c-80.9-0.3-135.3,58.2-135.3,127.9S733.4,255.1,815,255.1
							h765.1c81.2,0,135.7-57.5,135.7-127.2C1715.5,57.9,1660.9-0.3,1580.1,0z M1579.7,224H815c-64.6,0.3-103.9-43-103.9-96.4
							S750.7,31.5,815,31.1h764.8c64.3,0,103.9,43,103.9,96.4S1644.1,224,1579.7,224z"/>
					</g>
				</g>
			</g>
		</g>
	</g>
</g>
</svg>
