<?xml version="1.0" encoding="utf-8"?>
<!-- Generator: Adobe Illustrator 26.0.3, SVG Export Plug-In . SVG Version: 6.00 Build 0)  -->
<svg version="1.1" id="Layer_1" xmlns="http://www.w3.org/2000/svg" xmlns:xlink="http://www.w3.org/1999/xlink" x="0px" y="0px"
	 viewBox="0 0 3839 606.1" style="enable-background:new 0 0 3839 606.1;" xml:space="preserve">
<style type="text/css">
	.st0{fill:#FFFFFF;}
	.st1{fill:#FCDA00;}
	.st2{fill:#73B744;}
	.st3{fill:#2AA4DD;}
	.st4{fill:#ED2224;}
	.st5{fill:#E31E26;}
	.st6{display:none;}
	.st7{display:inline;}
</style>
<g>
	<g>
		<g>
			<g>
				<ellipse transform="matrix(0.7588 -0.6514 0.6514 0.7588 -160.105 241.3762)" cx="245.8" cy="336.8" rx="183.3" ry="311.1"/>
				<g>
					<path d="M241.3,3.7l-104.2,0c-3.5,0-4.2,4.9-0.9,5.9c183.9,55.5,298.9,220.2,343.9,337.2c1.2,3.1,5.9,2.3,5.9-1.1l0-20.7
						c0-0.3,0-0.5-0.1-0.8c-22.7-83.4-118-239.7-243-320C242.4,3.9,241.8,3.7,241.3,3.7z"/>
					<path d="M351.7,3.7h-44.6c-2.9,0-4.2,3.7-1.9,5.4c83,64.2,149.3,175,174.8,246.4c1.1,3.2,5.9,2.4,5.9-1l0-31.1
						c0-0.3,0-0.6-0.1-0.9c-17.6-58.7-69.6-160.9-132.1-218C353.2,4,352.5,3.7,351.7,3.7z"/>
					<path d="M482.9,3.7h-71.1c-2.5,0-3.9,2.8-2.5,4.8c28.1,40.1,54.8,101.5,70.7,146.3c1.1,3.2,5.9,2.4,5.9-1l0-147
						C486,5,484.6,3.7,482.9,3.7z"/>
				</g>
				<path d="M11.5,602.7h246.3c6.5,0,8.1-9,2.1-11.3C198.1,567.9,111.9,510.2,46.1,428c-5.2-6.6-15.5-0.2-12,7.4
					C54,479,64.3,503.2,64.3,531.8c0,34.7-27.7,53-54.2,62.6C5.6,596.1,6.8,602.7,11.5,602.7z"/>
			</g>
		</g>
		
			<ellipse transform="matrix(0.9821 -0.1885 0.1885 0.9821 -75.6742 73.6543)" class="st1" cx="349.4" cy="434.6" rx="72.3" ry="53.4"/>
		
			<ellipse transform="matrix(0.9821 -0.1885 0.1885 0.9821 -72.9076 41.2992)" class="st2" cx="180.7" cy="403.9" rx="72.3" ry="53.4"/>
		<path class="st3" d="M122.5,294.7c-12-8.3-53.6-104.8,22-102.9c102.6,2.5,140.2,156,90.3,159.4c0,0-15.9-36.4-60.7-53.2
			C138.9,285,122.5,294.7,122.5,294.7z"/>
		<path class="st4" d="M290.9,326.3c-12-8.3-53.6-104.8,22-102.9c102.6,2.5,140.2,156,90.3,159.4c0,0-15.9-36.4-60.7-53.2
			C307.2,316.6,290.9,326.3,290.9,326.3z"/>
	</g>
	<g id="data_00000150103346897290906900000006405325973938586554_">
		<path d="M712.9,90.7h69.2c25.3,0,26,37.7,0,37.7H678.4v27.8h134c53.7,0,54.3-90.1-2.5-90.1h-69.8c-27.8,0-27.8-34.6,0-34.6h99.4
			V3.7H712.3C653,3.7,654.9,90.7,712.9,90.7z M871,3.7v96.4c0,35.2,25.3,55.6,51.8,55.6h116.1V3.8h-43.2v124.1h-50.6
			c-22.2,0-33.4-17.3-33.4-30.9V3.7H871z M1179.1,99.4h-68.5V155h-43.2V0.6h43.2h68.5C1256.3,0.6,1259.3,99.4,1179.1,99.4z
			 M1164.9,28.4h-54.3v46.9h54.3C1199.5,74.7,1198.8,28.4,1164.9,28.4z M1415.6,124.7h-83.3c-21.6,0-30.9-26-28.4-34.6h112.3V62.4
			h-112.3c-2.5-9.3,6.2-34.6,27.8-34.6h84V0h-92c-88.3,0-87.7,155,0,155h92V124.7z M1813.2,28.4h74.7V0.6h-91.4
			c-37,0-67.3,24.1-67.3,62.4l0,0v93.2h43.2v-63h115.5V62.4H1773C1773.1,38.3,1786.7,28.4,1813.2,28.4z M2506.6,0.6
			c-90.7,0-101.9,155,10.5,155l0,0h77.2v-30.9h-77.8c-43.2,0-43.2-96.9,0-96.9h77.8V0.1L2506.6,0.6L2506.6,0.6z M2271.3,0.6h-119.2
			H2109v155h43.2V27.8h46.9v127.8h40.1V27.8h12.3c21.6,0,40.8,9.9,40.8,35.2v92.6h43.2v-100C2336.2,17.9,2313.4,0.6,2271.3,0.6z
			 M2364,155.6h46.9V0.6H2364V155.6z M2805.5,78.4c0,42.6-25.3,80.9-99.4,80.9c-74.1,0-99.4-38.3-99.4-80.9
			c0-43.8,26.6-77.8,99.4-77.8C2778.9,0.6,2805.5,34.6,2805.5,78.4z M2759.1,77.8c0-40.8-15.4-53.1-53.1-53.1S2653,36.4,2653,77.8
			c0,38.9,14.8,53.1,53.1,53.1C2744.3,130.9,2759.1,116.7,2759.1,77.8z M2080.6,72.3v33.4v50h-121c-69.8,0-71.6-95.7-0.6-95.7h75.3
			c0-9.9-9.9-31.5-36.4-31.5h-82.1V0.7h96.9C2049.7,1.2,2080.6,21,2080.6,72.3z M2034.3,87.1h-62.4c-25.3,0-24.7,37.7,0,37.7h62.4
			v-19.2V87.1z M1487.2,155.6h-43.8V0.6h43.8l0,0h69.2c78.4,0,85.8,78.4,22.8,93.9l49.4,61.7h-51.2l-39.5-58.6h-50L1487.2,155.6
			L1487.2,155.6z M1487.2,68.5h63c27.8,0,28.4-40.8,0-40.8h-63V68.5z M2993.1,0.6h-119.2h-43.2v155h43.2V27.8h46.9v127.8h40.1V27.8
			h12.3c21.6,0,40.8,9.9,40.8,35.2v92.6h43.2v-100C3058,17.9,3035.7,0.6,2993.1,0.6z"/>
	</g>
	<g>
		<g>
			<g>
				<g>
					<path d="M1298.2,434v-11.1c0-5.7-4.6-10.3-10.3-10.3h-21.3h-160.5v-64h197.9c47.2,0,85.6,38.3,85.6,85.6v83
						c0,47.2-38.3,85.6-85.6,85.6h-128.7c-27.5,0-48.9-5.5-64.1-16.3c-15.2-10.9-22.8-26-22.8-45.3v-20.9
						c0-17.8,11.9-33.3,29.1-37.8L1298.2,434L1298.2,434z M1166.3,529.8V541l0,0h116.2c8.7,0,15.8-7,15.8-15.8v-28.9l0,0
						L1166.3,529.8L1166.3,529.8z"/>
				</g>
			</g>
			<g>
				<g>
					<path d="M2355.3,434v-11.1c0-5.7-4.6-10.3-10.3-10.3h-21.2h-160.5v-64h197.9c47.2,0,85.6,38.3,85.6,85.6v83
						c0,47.2-38.3,85.6-85.6,85.6h-128.7c-27.5,0-48.9-5.5-64.1-16.3c-15.2-10.9-22.8-26-22.8-45.3v-20.9
						c0-17.8,11.9-33.3,29.1-37.8L2355.3,434L2355.3,434z M2223.4,529.8V541l0,0h116.2c8.7,0,15.8-7,15.8-15.8v-28.9l0,0
						L2223.4,529.8L2223.4,529.8z"/>
				</g>
			</g>
			<g>
				<g>
					<path d="M1679.1,517.2v11.1c0,5.7,4.6,10.3,10.3,10.3h21.2h160.5v64h-197.9c-47.2,0-85.6-38.3-85.6-85.6v-83
						c0-47.2,38.3-85.6,85.6-85.6h128.7c27.5,0,48.9,5.5,64.1,16.3c15.2,10.9,22.8,26,22.8,45.3V431c0,17.8-11.9,33.3-29.1,37.8
						L1679.1,517.2L1679.1,517.2z M1811,421.2v-11.1l0,0h-116.2c-8.7,0-15.8,7-15.8,15.8v28.9l0,0L1811,421.2L1811,421.2z"/>
				</g>
			</g>
			<g>
				<g>
					<path d="M3040.5,517.2v11.1c0,5.7,4.6,10.3,10.3,10.3h21.2h160.5v64h-197.9c-47.2,0-85.6-38.3-85.6-85.6v-83
						c0-47.2,38.3-85.6,85.6-85.6h128.7c27.5,0,48.9,5.5,64.1,16.3c15.2,10.9,22.8,26,22.8,45.3V431c0,17.8-11.9,33.3-29.1,37.8
						L3040.5,517.2L3040.5,517.2z M3172.4,421.2v-11.1l0,0h-116.2c-8.7,0-15.8,7-15.8,15.8v28.9l0,0L3172.4,421.2L3172.4,421.2z"/>
				</g>
			</g>
			<g>
				<g>
					<path d="M1914.6,243.5h91.3v359.1h-91.3V243.5z"/>
				</g>
			</g>
			<g>
				<g>
					<path d="M2029.5,243.5h91.3v359.1h-91.3V243.5z"/>
				</g>
			</g>
			<g>
				<g>
					<path d="M2537.9,348.5l88.4,172.3l90.5-172.3h93.5l-121.6,230.2c-4.4,8.5-12.1,15.2-23.2,20.1c-11.1,4.9-23.7,7.3-37.7,7.3
						c-14,0-26.7-2.5-38.1-7.3c-11.3-4.9-19.2-11.6-23.5-20.1l-121.7-230.2L2537.9,348.5L2537.9,348.5z"/>
				</g>
			</g>
			<path d="M3745.5,348.5l-88.4,172.3l-65.8-172.3h-93.5L3432,520.7l-88.4-172.3h-93.5l121.7,230.2c4.4,8.5,12.2,15.2,23.5,20.1
				c11.4,4.9,24,7.3,38.1,7.3c14,0,26.5-2.5,37.7-7.3c11.1-4.9,18.8-11.6,23.2-20.1l50.2-119.2l50.2,119.2
				c4.4,8.5,12.1,15.2,23.2,20.1c11.1,4.9,23.6,7.3,37.7,7.3c14,0,26.8-2.5,38.1-7.3c11.3-4.9,19.2-11.6,23.5-20.1L3839,348.5
				H3745.5z"/>
			<g>
				<rect x="2834.1" y="348.5" width="91.3" height="254"/>
			</g>
			<g>
				<path d="M1577.2,412.6v-64h-47.8v-95.1h-91.2v95.1h-34.7v64h34.7V569c0,18.6,15,33.6,33.6,33.6l0,0h91.9v-64h-34.3v-126H1577.2z
					"/>
			</g>
			<path d="M967.7,384.5H788.9c-15.9,0-28.9-13-28.9-28.9v-15c0-15.9,13-28.9,28.9-28.9h248.5v-72.3H777.6
				c-60.2,0.1-109,48.9-109,109.1c0,60.2,48.8,109.1,109.1,109.1h178.8c15.9,0,28.9,13,28.9,28.9v15c0,15.9-13,28.9-28.9,28.9H674.4
				v72.3h293.3c60.2,0,109.1-48.8,109.1-109.1C1076.8,433.3,1027.9,384.5,967.7,384.5z"/>
		</g>
		<circle cx="2880" cy="281.6" r="45.4"/>
	</g>
</g>
</svg>
