<svg enable-background="new 0 0 3839 606.1" version="1.1" viewBox="0 0 3839 606.1" xml:space="preserve" xmlns="http://www.w3.org/2000/svg">
<path transform="rotate(-40.644795)" d="m1004.373 862.21483c-66.99852-57.51564-167.50525 60.48333-100.96194 117.60815l69.80613 59.92582 19.73695-22.9911-0.07558-0.0649-63.20401-54.25813c-16.38925-14.06953-6.51073-39.85505 0.98792-44.75197l85.20813 73.14782 18.0424-21.01713-85.20815-73.14782c4.1608-8.68489 27.24052-22.21515 43.62977-8.14562l63.73598 54.71488 18.1086-21.09418-69.8062-59.92582zm964.0197 827.70427-66.87-56.7463c-68.8196-59.0789-178.2797 51.2339-92.995 124.4475l58.5773 50.2864 20.1276-23.4461-59.0323-50.6769c-32.7785-28.139 30.338-101.6619 63.1165-73.5229l59.0323 50.6769 18.0436-21.0186zm-1158.8801-994.19407-100.57142 117.15319 32.77794 28.13857 36.21578-42.18688 51.97522 44.61868c60.8526 52.23956 122.93194-24.68084 64.35563-74.96631l-51.97522-44.61868-32.77793-28.13857zm285.2946 244.91423-100.96197 117.60814 33.23287 28.5291 38.3114-43.5514 37.9381 32.5683-8.1988 70.1922 38.848 33.3495 2.7058-78.9928c57.8981 29.2753 103.3516-35.0314 43.8648-86.0985l-52.5073-45.07541-33.2329-28.52913zm267.9187 229.99764c-28.0742-24.1006-66.7636-25.551-91.7109 3.5095l-60.707 70.7161 32.7795 28.1398 41.0361-47.802 87.6371 75.233 20.0613-23.369-87.1821-74.8424c15.7738-18.221 32.541-16.8747 52.6482 0.3865l56.6804 48.658 18.1086-21.0942-69.3512-59.5353zm237.1132 203.5524-100.962 117.6082 32.778 28.1385 83.244-96.9689 35.5862 30.5494-83.244 96.9689 30.4261 26.1196 83.244-96.9689 9.3334 8.0123c16.3892 14.0695 24.51 34.0875 8.0304 53.2842l-60.3164 70.261 32.778 28.1386 65.1367-75.8762c25.0877-28.1493 19.0571-56.1267-12.8867-83.5492l-90.4453-77.6438-32.7024-28.0737zm193.4844 166.0987-100.962 117.6082 35.5862 30.5494 100.962-117.6082-35.5862-30.5494zm259.5723 222.8327c-55.2378-47.4195-97.5684-38.9477-126.0982-5.7139-27.7482 32.3232-33.4988 77.8641 22.7254 126.1303 56.2241 48.2662 100.3689 35.6853 128.1171 3.3621 28.5299-33.2338 30.4934-76.3591-24.7443-123.7785zm94.5414 81.1601-100.9619 117.6082 32.7794 28.1398 83.244-96.9689 35.5863 30.5494-83.2441 96.9689 30.4261 26.1196 83.244-96.9689 9.3319 8.011c16.3893 14.0695 24.51 34.0875 8.0305 53.2842l-60.3164 70.2611 32.7779 28.1385 65.1368-75.8762c25.1635-28.0842 19.5121-55.7361-12.8112-83.4843l-90.4438-77.6425-32.7795-28.1399zm-694.2553-595.8596-18.1085 21.0941 62.2941 53.4771c20.1072 17.2612 13.5497 40.0993 7.1012 47.611l-57.1354-49.0485c-53.872-46.247-114.8419 27.5382-61.8805 73.0036l91.8103 78.8154 32.5684-37.9381 21.7546-25.3415c33.4151-38.9244 22.8672-74.0767-4.8813-98.5566l-73.5229-63.1165zm-1351.56544-1156.312124c-2.655664-2.279785-6.379051 0.982236-4.526504 3.890508 103.385274 161.897486 83.362334 361.774616 41.296714 479.861116-1.10872 3.1338 2.97987 5.58729 5.19452 3.0075l13.4828-15.70579c0.19541-0.22763 0.32649-0.37972 0.44602-0.67248 37.10009-78.06667 66.59879-258.73699 24.05841-401.08627-0.18397-0.55331-0.50866-1.09563-0.88804-1.42131l-79.06392-67.873274zm128.98959 110.732494c-2.20041-1.88896-5.59741 0.07173-4.95958 2.85976 21.15942 102.77585-0.70584 230.03354-27.865 300.8189-1.24974 3.14454 2.91371 5.66435 5.12836 3.08456l20.25728-23.59721c0.19541-0.22763 0.39137-0.4553 0.5109-0.74807 24.88102-56.0033 51.994-167.42122 41.76446-251.45686-0.05369-0.70506-0.38891-1.38924-0.99592-1.91034l-33.8405-29.05074zm79.4433 68.19896c-1.8969-1.62842-4.78351-0.41521-5.02398 2.01423-4.79861 48.7297-24.53478 112.7095-41.65169 157.0587-1.24974 3.14454 2.91371 5.66435 5.12836 3.08456l95.75104-111.53806c1.24834-1.30063 1.03387-3.20012-0.25603-4.30745l-53.9477-46.31198zm228.00807 195.73597c-44.99451-38.62602-100.22215 28.62364-56.21402 66.40289l52.50575 45.07413c19.19665 16.47956-4.82954 45.54175-24.55732 28.60622l-78.68306-67.54631-18.10725 21.0927 101.67414 87.28327c40.74546 34.97837 99.88868-32.995 56.79107-69.99261l-52.9622-45.46597c-21.09355-18.10798 1.44351-44.36086 22.53706-26.25288l75.42127 64.7462 18.10853-21.09419-96.51397-82.85345zm120.41498 103.37154-62.79209 73.14498c-22.9281 26.70837-17.01847 58.66703 3.08869 75.92823l88.092 75.62353 98.94173-115.2548-32.77942-28.13985-80.83447 94.16211-38.39307-32.95895c-16.84449-14.46034-14.07403-34.88284-5.21545-45.20199l60.77311-70.79311-30.88103-26.51015zm1378.6501 1211.19356c28.6053 24.5566 32.2771 43.9214 5.7013 74.8789-25.3381 29.5158-45.8171 30.6497-74.8017 5.7675-29.0606-24.9474-31.0408-45.3616-5.7027-74.8774 26.9666-31.4127 46.1978-30.3255 74.8031-5.769zm-926.7342-791.61104 47.802 41.03614c21.5489 18.4988-5.4827 49.0661-26.5763 30.9581l-47.802-41.0361 26.5763-30.95814zm-286.2063-244.77278 41.20139 35.36977c25.72201 22.08134-3.90543 57.66829-30.5494 35.58625l-41.20138-35.36977 30.54939-35.58625zm-765.421393-598.71407a311.11548 183.30911 90 0 0-91.655394-41.68254 311.11548 183.30911 90 0 0-183.308193 311.11439 311.11548 183.30911 90 0 0 183.308197 311.11606 311.11548 183.30911 90 0 0 183.309463-311.11587 311.11548 183.30911 90 0 0-91.654073-269.43204zm1380.709193 1204.27629 47.347 40.6456-12.0503 14.0371-12.507 14.5691-47.347-40.6456c-18.7414-16.0888 5.3606-45.0858 24.5573-28.6062zm591.9131 704.6378a45.400002 45.400002 0 0 0-64.0205 4.8758 45.400002 45.400002 0 0 0 4.8758 64.0204 45.400002 45.400002 0 0 0 64.0204-4.8757 45.400002 45.400002 0 0 0-4.8757-64.0205zm-1597.30731-1367.0066c-45.74253-39.13637-114.55679-33.8958-153.76904 11.7816s-34.03656 114.56723 11.71671 153.84462l135.66729 116.46505c12.0643 10.35672 13.46047 28.68901 3.10375 40.75333l-9.77051 11.3814c-10.35673 12.0643-28.68902 13.4605-40.75331 3.1038l-214.04654-183.7506-47.09312 54.85762 222.54409 191.04538c45.67743 39.2123 114.56871 34.0378 153.8461-11.7155 39.27739-45.7532 33.95924-114.63357-11.71819-153.84585l-135.66581-116.46377c-12.06429-10.35672-13.46047-28.68901-3.10375-40.75331l9.77052-11.38143c10.35672-12.06429 28.68901-13.46047 40.7533-3.10375l188.55243 161.86486 47.09312-54.85763-197.12704-169.22582zm860.04241 743.7156-233.9059 272.4713 69.2756 59.4703 233.9058-272.4712-69.2755-59.4704zm87.182 74.8424-233.9058 272.4713 69.2756 59.4703 233.9058-272.4712-69.2756-59.4704zm-455.17037-377.5665-61.9448 72.158-26.32846-22.602-41.68753 48.5608 26.32846 22.6019-101.87415 118.6708c-12.11542 14.1129-10.50307 35.2656 3.6099 47.381l69.72906 59.8597 41.68753-48.5608-26.02465-22.3411 82.07232-95.6041 36.26795 31.1346 41.68752-48.5607-36.26794-31.1347 61.9448-72.1579-69.20001-59.4055zm116.49407 225.0782c-35.8893-30.8096-89.96205-26.6206-120.70654 9.1929l-54.06352 62.9773c-30.80962 35.8894-26.62052 89.9621 9.19295 120.7066l150.15931 128.9059 41.6876-48.5608-121.78138-104.5445-16.08517-13.8085c-4.32494-3.7128-4.82031-10.199-1.10752-14.524l7.2312-8.4234 168.55737 80.9138c15.9818 7.7891 35.109 3.78 46.7034-9.726l13.6787-15.934c12.5713-14.6441 16.6403-31.0529 12.2071-49.2242-4.4985-18.0954-17.1539-36.2067-38.0199-54.1193l-97.6536-83.8318zm1032.9793 886.7721c-35.8893-30.8096-89.9621-26.6205-120.7066 9.193l-54.0635 62.9772c-30.8096 35.8894-26.6205 89.9622 9.193 120.7066l150.1593 128.9059 41.6875-48.5608-121.7813-104.5445-16.0852-13.8084c-4.3249-3.7128-4.8203-10.1991-1.1075-14.524l7.2312-8.4235 168.5574 80.9139c15.9818 7.7891 35.1075 3.7787 46.7018-9.7273l13.6788-15.934c12.5713-14.6441 16.6418-31.0517 12.2085-49.2229-4.4984-18.0954-17.1539-36.2068-38.0198-54.1194l-97.6536-83.8318zm163.5133 140.3698-57.6021 253.9387c-2.198 9.3154-0.6436 19.4795 4.7387 30.5579 5.4582 11.1435 13.4545 21.1722 24.153 30.3564 10.6227 9.1192 21.7356 15.3633 33.3603 19.0165 11.6139 3.5123 21.8212 3.4451 30.6964-0.1383l115.7318-57.7457-39.5533 123.142c-2.198 9.3155-0.7186 19.4152 4.512 30.3633 5.2305 10.9481 13.1507 20.9113 23.8492 30.0956 10.6227 9.1191 21.9635 15.5589 33.6641 19.2773 11.7657 3.6425 22.1238 3.7049 30.9231 0.0563l242.2973-95.2538-70.9443-60.9029-179.306 73.1542 62.3055-173.5946-70.9443-60.9028-162.0921 87.7977 45.1549-188.315-70.9442-60.9028zm-611.3235-524.666-57.6036 253.9375c-2.2739 9.2503-0.6449 19.481 4.7375 30.5594 5.5233 11.0676 13.5331 21.2371 24.1558 30.3562 10.6226 9.1191 21.745 15.5057 33.3589 19.018 11.614 3.5122 21.8211 3.4423 30.6962-0.1411l242.211-95.4592-70.9442-60.9029-180.8992 71.7866 45.1563-188.3165-70.8687-60.838zm295.6135 253.7726-165.4474 192.7256 69.2756 59.4704 165.4474-192.7256-69.2756-59.4704zm-1311.20613-1125.48768-41.68753 48.56078 121.78135 104.5445 16.16223 13.8747c4.32494 3.7127 4.81755 10.1992 1.10476 14.5241l-7.22992 8.422-168.69909-80.9017c-15.98185-7.7891-35.10757-3.7786-46.70189 9.7273l-13.61256 15.8569c-12.57137 14.6441-16.64186 31.0517-12.20858 49.223 4.49842 18.0954 17.15411 36.2095 38.02005 54.1221l97.65211 83.8305c35.88942 30.8096 89.96336 26.6191 120.70785-9.1944l54.06351-62.9773c30.80963-35.8894 26.6206-89.962-9.19294-120.7066l-150.15935-128.90588zm802.16433 688.62658-41.6875 48.5608 121.7814 104.5445 16.0851 13.8085c4.325 3.7128 4.8191 10.2005 1.1063 14.5255l-7.2299 8.4219-168.625-80.838c-15.9819-7.7891-35.1076-3.7787-46.7019 9.7272l-13.6126 15.857c-12.5714 14.6441-16.6404 31.0529-12.2071 49.2242 4.4984 18.0954 17.1526 36.2082 38.0186 54.1208l97.6521 83.8305c35.8894 30.8097 89.9648 26.6204 120.7093-9.1931l54.0635-62.9773c30.8097-35.8894 26.6192-89.9633-9.1944-120.7078l-150.1579-128.9047zm-395.5392-258.5018 88.1676 75.6884-7.2299 8.422-122.04363-60.485 18.82478-21.9285c5.73205-6.6771 15.67995-7.3638 22.28115-1.6969zm1032.9778 886.7709 88.1691 75.6896-7.23 8.422-122.0436-60.4849 18.8248-21.9285c5.732-6.6771 15.6785-7.3651 22.2797-1.6982zm-2298.22018-1952.94913c-3.57939-2.73512-9.73753-1.88336-11.31514 3.64851-13.30024 46.04416-21.24751 71.11649-39.87659 92.81704-22.60241 26.32901-55.54088 22.17044-81.90116 12.19334-4.52175-1.64126-7.9092 4.14758-4.34303 7.20901l186.88375 160.43235c4.93194 4.23388 12.00721-1.55216 8.95279-7.20551-31.5843-58.08532-59.4061-158.01492-55.79024-263.24496 0.11046-2.62341-0.98338-4.60655-2.61038-5.84978zm908.24449 873.31713-18.82351 21.9271c-5.73202 6.6771-15.67993 7.3638-22.28116 1.6969l-88.16758-75.6884 7.29481-8.4976 121.97744 60.562zm802.08729 688.5605-18.8235 21.927c-5.732 6.6771-15.6799 7.3638-22.2811 1.697l-88.1676-75.6885 7.2948-8.4975 121.9774 60.562z" stroke-width="1.00005"/><path transform="rotate(-10.864969)" d="m333.50995 492.68121a72.30191 53.401409 0 0 1-72.30191 53.40141 72.30191 53.401409 0 0 1-72.30191-53.40141 72.30191 53.401409 0 0 1 72.30191-53.40141 72.30191 53.401409 0 0 1 72.30191 53.40141z" fill="#fcda00" stroke-width="1.00003"/><path transform="rotate(-10.864969)" d="m173.6213 430.72678a72.30191 53.401409 0 0 1-72.30191 53.40141 72.30191 53.401409 0 0 1-72.301911-53.40141 72.30191 53.401409 0 0 1 72.301911-53.40141 72.30191 53.401409 0 0 1 72.30191 53.40141z" fill="#73b744" stroke-width="1.00003"/><path fill="#2AA4DD" d="m122.5 294.7c-12-8.3-53.6-104.8 22-102.9 102.6 2.5 140.2 156 90.3 159.4 0 0-15.9-36.4-60.7-53.2-35.2-13-51.6-3.3-51.6-3.3z"/><path fill="#ED2224" d="m290.9 326.3c-12-8.3-53.6-104.8 22-102.9 102.6 2.5 140.2 156 90.3 159.4 0 0-15.9-36.4-60.7-53.2-35.3-13-51.6-3.3-51.6-3.3z"/>
</svg>
