<svg version="1.1" viewBox="0 0 332.737 97.679" xmlns="http://www.w3.org/2000/svg"><path d="m306.08594 0c-8.16999 0-14.57032 6.3111487-14.57032 14.369141 0 7.829992 6.56097 14.199218 14.62696 14.199218 8.00199 0 14.51172-6.369226 14.51172-14.199218 0-8.0569923-6.39837-14.369141-14.56836-14.369141zm-155.04688 0.88867188c-3.47737 0.20043732-6.86587 1.93662782-8.85937 4.76562502-1.669 2.1769978-2.0041 4.9536591-2.8711 7.4726561-8.27299 27.888972-16.57625 55.772669-24.78125 83.681641 5.068-0.01 10.13318 0.001093 15.20118-0.003906 2.35199-8.034992 4.77981-16.051946 7.13281-24.085938 9.84499-0.025 19.68721-0.002813 29.5332-0.007812 2.392 8.029991 4.74219 16.066711 7.11719 24.095703 5.10699-0.02 10.21036 0.017515 15.31836-0.021485-8.63299-29.073971-17.2967-58.136966-25.92969-87.2109372-1.093-3.9319961-4.2623-7.4244229-8.4043-8.3574219-1.1305-0.29099973-2.2979-0.39493746-3.45703-0.32812502zm-112.742185 0.03515624c-3.780904-0.31832975-7.748831 1.11554988-10.126953 4.09179688-2.138998 2.3719976-2.509235 5.617581-3.490234 8.517578-8.249992 27.746972-16.4696962 55.50084-24.679688 83.257813 5.0729949 4e-3 10.146755-0.008235 15.21875 0.009765a4445.395 4445.395 0 0 1 7.167969-24.101562c9.86199 4e-3 19.719041-0.012188 29.582031 0.007812 2.374998 8.029992 4.722909 16.066852 7.128906 24.089844 5.099995-0.014 10.20274-8.59e-4 15.302735-0.005859-8.629992-29.098971-17.311134-58.17942-25.953125-87.275391-0.683-2.3369977-2.02069-4.5070797-3.929688-6.0800781-1.750498-1.4981235-3.95216-2.3207209-6.220703-2.51171878zm246.271485 0.0390625c-3.418 0-6.19922 2.77926908-6.19922 6.19726558 0 3.4179968 2.78222 6.1992188 6.19922 6.1992188 3.418 0 6.19922-2.781222 6.19922-6.1992188 0-3.4179965-2.78122-6.19726558-6.19922-6.19726558zm-76.94336 0.00390626c-1.48-0.03399997-2.97791 0.12756292-4.37891 0.60156252-4.76099 1.4909985-8.33123 6.1153018-8.36523 11.0292966 0.02 28.036972-2.3e-4 56.075356 0.00976 84.111328 4.903 5e-3 9.80013-0.00314 14.70313 0.00586 0.016-26.041974-0.01119-52.087886 0.00781-78.13086-0.022-1.688998 1.58211-3.138609 3.28711-3.099609 3.764-0.034 7.52979 0.006422 11.30078-0.017578 5.453-0.178 10.6103 3.899083 11.7793 9.080078 0.996 3.990996 1.11148 8.488769-1.10352 12.134766-2.90999 4.852995-8.09266 7.934486-13.34765 9.896484-2.753 1.044999-5.22386 3.06794-6.25586 5.835937-1.324 3.607997-0.72367 7.795035 1.48633 10.957032 7.51599 11.106989 14.98525 22.254714 22.53125 33.345703 5.76599-0.022 11.53188-7.66e-4 17.29687-0.009766-7.88299-11.562988-15.90791-23.04209-23.6289-34.705078-0.812-1.625998-0.73407-3.898407 0.83593-5.066406 2.858-2.072998 6.18452-3.485502 8.85352-5.8125 5.05399-4.264996 7.81322-10.698819 8.32422-17.132813 0.74-6.145993 0.43795-12.661677-2.49805-18.263672-4.239-8.6279909-13.58973-14.5749528-23.38672-14.75195262-5.81599-3e-3 -11.63418 0.01218748-17.45117-0.0078125zm54.27539 0.00390624v95.73046888c5.156 5e-3 10.3119-0.008141 15.46289 0.005859 0.02-31.912968 0.00477-63.82236 0.00977-95.73632788h-15.47266zm-196.167968 0.00195313c-4e-3 4.87199515 0 9.73747375 0 14.60546875 6.792993 5e-3 13.58296-0.009094 20.376953 0.003906-8e-3 27.040973-0.003906 54.084074-0.003906 81.123047h14.595701c8e-3 -27.038973 0.00391-54.082074 0.00391-81.123047 6.78999-0.013 13.57805 0.001094 20.37304-0.003906v-14.60546875h-55.345698zm218.835938 1.31249995c2.691 0 4.875 2.1840027 4.875 4.875 0 2.6909974-2.184 4.8749998-4.875 4.8749998s-4.875-2.1840024-4.875-4.8749998c0-2.6909973 2.184-4.875 4.875-4.875zm36.08398 0.1757813v1.0996094h1.94336v5.3183593h1.32032v-5.3183593h1.8789v-1.0996094h-5.14258zm5.83399 0v6.4179687h1.32031v-5.1855468l1.14648 5.1855468h1.32032l1.14453-5.2109374v5.2109374h1.31836v-6.4179687h-1.92188l-1.20312 4.9121094-1.19141-4.9121094h-1.93359zm-20.34375 0.8964844c6.31299 0 11.25586 4.9135062 11.25586 11.1875001 0 5.882994-5.04887 10.669922-11.25586 10.669922-6.272 0-11.375-4.786928-11.375-10.669922 1e-3 -6.3789937 4.891-11.1875001 11.375-11.1875001zm-24.04883 0.2910156v6.4179685h1.31836v-2.5371091h1.57031c0.322 0 0.53644 0.0915783 0.64844 0.2675781 0.077 0.1159999 0.11523 0.3045003 0.11523 0.5625v0.96875c0 0.1889998 0.05774 0.4332816 0.17774 0.738281h1.42187v-0.2441404a0.555 0.555 0 0 1-0.23632-0.4511718l-0.06836-1.5644532c-0.013-0.3059997-0.24908-0.5850783-0.70508-0.8300781 0.627-0.3439997 0.9414-0.8638757 0.9414-1.546875 0-0.5939994-0.18011-1.0549534-0.53711-1.3769531-0.292-0.2709998-0.64211-0.4042969-1.03711-0.4042969h-3.60937zm1.31836 1.0996094h1.84961c0.508 0 0.75586 0.254813 0.75586 0.7578125a0.991 0.991 0 0 1-0.24024 0.6367187c-0.164 0.1929998-0.34301 0.2871094-0.54101 0.2871094h-1.82422v-1.6816406zm-131.76563 18.0566411c3.539 12.091987 7.14918 24.16773 10.70118 36.261718-7.139 0-14.27412 0.003141-21.41211-0.005859 3.54899-12.092988 7.14694-24.168872 10.71093-36.255859zm-114.472652 0.041015c3.586997 12.067988 7.157144 24.135137 10.744141 36.203125-7.164993 0-14.330054 0.020328-21.498047-0.013672 3.595996-12.059988 7.13791-24.135465 10.753906-36.189453zm268.912112 6.976563c-8.17199 1e-3 -14.57032 6.311148-14.57032 14.36914 0 7.829992 6.56097 14.199219 14.62696 14.199219 8.00199 0 14.51172-6.369227 14.51172-14.199219 0-8.057992-6.39737-14.36914-14.56836-14.36914zm0.05664 3.357422c6.31299 0 11.25586 4.911553 11.25586 11.185546 0 5.882994-5.04887 10.667969-11.25586 10.667969-6.272 0-11.375-4.784975-11.375-10.667969 1e-3 -6.376993 4.891-11.185546 11.375-11.185546zm-6.25391 26.158203c-4.85599 0-8.37695 3.987911-8.37695 8.628906 0 4.968995 3.33674 8.123016 8.30273 8.666015v-3.408203c-2.81499-0.181999-5.11328-2.465768-5.11328-5.259765 0-2.827997 2.40794-5.365235 5.33594-5.365235 1.853 0 3.59595 1.303736 5.00195 2.427735l15.00977 11.96875v-17.658203h-3.18555-0.00195v11.019531l-11.22852-8.992188c-1.596-1.265998-3.66914-2.027343-5.74414-2.027343zm10.82031 19.882812c-5.14899 0-9.78125 3.482396-9.78125 8.775391l0.11133 1.921875-5.74414-1.703125h-0.00195v-8.595703h-3.1875v10.949218l14.3418 4.207032v-0.654297c-1.558-1.195999-2.48243-3.18933-2.48243-5.111328 0-3.516997 3.03882-6.525391 6.63282-6.525391 3.74399 0 6.85546 2.903566 6.85546 6.601563 1e-5 2.428997-1.77839 5.219735-4.15039 6.052734l2.44532 2.541016c3.07699-1.593999 4.89257-4.967801 4.89257-8.341797 0-5.620995-4.03764-10.117188-9.93164-10.117188z" fill="#1b6db7"/></svg>
