<svg width="566.92" height="121.75" version="1.1" viewBox="0 0 566.924 121.752" xmlns="http://www.w3.org/2000/svg"><path d="m63.402691-0.0078126283c-3.076997 0.00799999196-6.154624-2.342046e-4 -9.230621 0.0097657854v0.0058594712 0.0078126287c-0.009935 3.585399343 0.020349 7.174503443-0.015625 10.76189574-0.245 10.595989-0.903324 21.201124-2.488322 31.684114-1.263999 8.247992-3.124768 16.484779-6.597765 24.109771-0.737499 1.658748-1.533259 3.29191-2.388711 4.894612-0.855452 1.602482-1.769124 3.172719-2.744186 4.705155-1.95035 3.065145-4.141311 5.974603-6.580186 8.672018-2.360998 2.613497-4.944801 5.028292-7.716924 7.20129-2.772122 2.173373-5.733257 4.104549-8.849754 5.752047-5.252995 2.759002-10.9082976 4.847562-16.79129172 5.730562 0.00499999496 6.066 0.00499999496 12.13743 0 18.20343 4.886995125-0.689 9.685849725-1.92827 14.34984472-3.53327 8.243992-2.84799 16.08377-7.0552 22.650763-12.83419 7.340993-6.233995 13.869691-13.646628 18.025687-22.406619 1.910998-4.076996 3.543359-8.31626 4.658279-12.685755 0.371719-1.456499 0.68586-2.928184 0.93361-4.412182 0.721606-4.306137 1.21965-8.640348 1.587916-12.988495 0.368125-4.347371 0.606514-8.707219 0.812514-13.062714 0.249999-6.030994 0.420678-12.066773 0.388678-18.105767-0.004998-7.236387 0.00907-14.4701378-0.003906-21.701528-5e-6 -0.0026033264 4e-6 -0.0052093022 0-0.0078126283zm485.437659 0.0078126283c-10.13999 0-18.0999 8.0106848-18.0999 18.234675 0 9.93599 8.14841 18.017874 18.1624 18.017874 9.93599 0 18.01788-8.081884 18.01788-18.017874 0-10.2239902-7.94039-18.234675-18.08038-18.234675zm-464.732241 0.0019531571c-2.832497 0.006999993-5.663861 0.0112657839-8.496234 0.0097657859-2.832247-0.0018749986-5.665236-0.0106873537-8.496233 0.007812628v0.001953157 0.003906314c0.019993 27.63901796 0.001767 55.27249896 0.009766 82.91151796v0.001953c0.02 12.936987-0.042703 25.879058 0.029297 38.817048 5.649995-0.048 11.303409-0.00949 16.953404-0.02149v-0.0039c2e-3 -40.573313 2e-3 -81.147306 0-121.7266137v-0.0019531571zm3.779359 0.0019531571-0.017579 0.0078126288c0.005851-3.825e-6 0.011728 3.853e-6 0.017579 0v-0.0078126288zm0 0.0078126288c-0.001996 6.645393757 0 13.29634406 0 19.94173406-0.076 11.753988 0.322742 23.520106 1.386741 35.229094 5.9e-5 6.47e-4 -5.9e-5 0.001306 0 0.001953 0.549948 5.417359 1.154478 10.861708 2.572308 16.133078 1.66e-4 6.17e-4 -1.66e-4 0.001336 0 0.001953 0.773374 2.621396 1.654338 5.218607 2.679732 7.754034 1.025407 2.535337 2.197204 5.010257 3.550839 7.388793 2.86e-4 5.02e-4 -2.85e-4 0.001451 0 0.001953 0.864773 1.52674 1.80194 3.008371 2.800832 4.447339 3.1e-4 4.52e-4 -3.2e-4 0.0015 0 0.001953 0.99894 1.438968 2.06185 2.834533 3.17583 4.187569 3.3e-4 4e-4 -3.3e-4 0.001552 0 0.001953 1.11403 1.353036 2.2803 2.662762 3.49029 3.931705 1.21056 1.26959 2.46441 2.49828 3.75202 3.68561 3.12399 2.87099 6.37533 5.62296 9.95133 7.92396 4.898 3.18599 10.23236 5.67001 15.74635 7.58801 2.315 0.787 4.66053 1.49252 7.03527 2.08402 2.37475 0.5915 4.77725 1.06946 7.20325 1.39846v-0.00195c-6e-3 -6.06235-3e-3 -12.12641 0-18.18976v-0.00195c-2.47-0.359-4.89856-0.95487-7.27356-1.71487-3.5233-1.12946-6.89061-2.678233-10.13298-4.455151-0.67423-0.369499-1.38154-0.676955-2.04105-1.072284-4.6e-4 -2.77e-4 -0.00149 2.78e-4 -0.00195 0-0.7738-0.463871-1.48612-1.02124-2.23832-1.519556-2.97234-1.969107-5.82086-4.127638-8.40053-6.587999-1.6924-1.61142-3.28792-3.318968-4.78328-5.109459-3.3e-4 -4e-4 3.4e-4 -0.001552 0-0.001953-4.48649-5.372215-8.08557-11.483901-10.78924-17.937794-2.4e-4 -5.64e-4 2.4e-4 -0.00139 0-0.001954-1.90075-4.446915-3.27662-9.07432-4.32819-13.783429-1.4e-4 -6.24e-4 1.4e-4 -0.00133 0-0.001953-0.52568-2.354249-0.97077-4.728677-1.359401-7.111445-1.04e-4 -6.37e-4 1.03e-4 -0.001316 0-0.001953-0.388495-2.38213-0.721833-4.772345-1.023455-7.158321-1.54e-4 -0.001287 1.55e-4 -0.00262 0-0.003906-0.368672-3.071604-0.670714-6.149756-0.91603-9.232574-5.2e-5 -6.48e-4 5.1e-5 -0.001305 0-0.001953-0.245292-3.082818-0.433659-6.169946-0.572275-9.259918-3e-5 -6.5e-4 2.9e-5 -0.001303 0-0.001953-0.27725-6.181244-0.358099-12.3714517-0.308599-18.55694553-3.056044-0.0099936044-6.112032-0.0039569751-9.170073-0.0019531571v0.0078126288c-0.00195 1.287e-6 -0.003909-1.285e-6 -0.005859 0zm263.523862 0.011718942c-4.31789 0.253921625-8.52714 2.458681115-11.00214 6.048927515l0.01563-0.0078127c-2.07 2.7619973-2.49014 6.2854403-3.58014 9.4884373-10.27099 35.392964-20.57814 70.77528-30.76613 106.18924 6.293-0.012 12.58037 1.4e-4 18.87336-0.00586 2.921-10.19599 5.93362-20.36801 8.85561-30.562997 12.22299-0.031 24.44554-0.003766 36.67053-0.009766 2.97099 10.188993 5.88708 20.388683 8.83608 30.576673 6.33999-0.025 12.67785 0.02361 19.01984-0.02539-10.71799-36.896963-21.47685-73.776824-32.19584-110.669787-1.358-4.9889947-5.29077-9.4196907-10.43376-10.6036895-1.40375-0.369499629-2.85375-0.502616155-4.29304-0.417975615zm-131.82834 0.06054787c-4.69458-0.404032795-9.61997 1.416573445-12.57247 5.193444645l-0.00391-0.0039063c-2.65 3.009997-3.11015 7.1266809-4.33015 10.8126779-10.24299 35.210965-20.44909 70.429208-30.64308 105.650168 6.29899 6e-3 12.59685-0.01123 18.89484 0.00977a5818.517 5818.517 0 0 1 8.90054-30.582533c12.24499 6e-3 24.48508-0.013281 36.73107 0.011719 2.949 10.188994 5.86471 20.386914 8.85171 30.566904 6.33199-0.018 12.66637 1.4e-4 18.99836-0.00586-10.71499-36.927958-21.4932-73.829898-32.22319-110.749861-0.849-2.9649974-2.50899-5.7189729-4.87898-7.7149709-2.1735-1.9012481-4.90799-2.94513267-7.72474-3.187552345zm204.32367 0.162112035c-1.838-0.04299995-3.69759 0.16168502-5.43759 0.76368441l-0.00391 0.0058595c-5.90999 1.8919981-10.34103 7.7585173-10.38103 13.9885113 0.024 35.575964 0.00168 71.154304 0.01368 106.730267 6.08799 6e-3 12.16816-0.00614 18.25616 0.00586 0.02-33.044966-0.01324-66.093332 0.00976-99.140299-0.027-2.142998 1.96315-3.982659 4.08015-3.933659 4.67399-0.042 9.34948 0.009515 14.03148-0.021484 6.76999-0.226 13.17424 4.945727 14.62524 11.51972 1.236 5.063995 1.37888 10.773648-1.37112 15.400644-3.613 6.158993-10.04559 10.068802-16.57058 12.5588-3.418 1.325998-6.48866 3.894375-7.76966 7.406371-1.644 4.577996-0.89631 9.890576 1.84768 13.902572 9.33199 14.093986 18.60413 28.237255 27.97312 42.311245 7.15899-0.028 14.31892 2.8e-4 21.47691-0.01172-9.78699-14.67199-19.75238-29.238849-29.33837-44.037834-1.008-2.062998-0.90992-4.945842 1.03908-6.42784 3.549-2.630998 7.67642-4.422124 10.99042-7.375121 6.27499-5.411995 9.69915-13.5766 10.33415-21.740592 0.918-7.798992 0.54338-16.067169-3.10161-23.176162-5.264-10.947989-16.8736-18.49405765-29.03759-18.71905742-7.22099-4e-3 -14.44338 0.01523419-21.66637-0.00976579zm-173.66692 0.00976579c-0.00999 6.18068732 0 12.35181642 0 18.53350742 8.435 6e-3 16.86521-0.01014 25.3012 0.00586-0.01 34.314965-0.00586 68.628225-0.00586 102.939189h18.12335c0.01-34.312964 0.0039-68.626224 0.0039-102.939189 8.43099-0.016 16.8603 1.4e-4 25.29729-0.00586v-18.53350742h-68.71988zm244.01964 0v0.00390631 121.4707501c6.40199 6e-3 12.80354-0.01215 19.19953 0.00585 0.024-40.493955 0.00572-80.984547 0.01172-121.4805064h-19.21125zm54.64738 4.00397202h0.00391c7.83799 0 13.97679 6.2345534 13.97679 14.1955454 0 7.464993-6.2698 13.539285-13.97679 13.539285-7.787 0-14.12328-6.074292-14.12328-13.539285-0.01-8.093992 6.06938-14.1955454 14.11937-14.1955454zm-196.72198 23.5648404c4.39399 15.343984 8.87342 30.668443 13.28342 46.014428-8.86039 0-17.71427 0.006126-26.57466-0.00586 4.4-15.345985 8.87124-30.670584 13.29124-46.008568zm-134.00025 0.078126c4.45964 15.311784 8.89042 30.620611 13.34006 45.932395-8.89599 0-17.79185 0.027375-26.69184-0.015625 4.46459-15.30161 8.8622-30.623154 13.35178-45.91677zm330.64606 10.334154c-10.14499 0-18.09014 8.009685-18.09014 18.234675 0 9.93599 8.14841 18.017874 18.1624 18.017874 9.93599 0 18.01788-8.081884 18.01788-18.017874 0-10.22499-7.94515-18.234675-18.09014-18.234675zm0.07617 4.259836h0.00391c7.83799 0 13.97679 6.2326 13.97679 14.193592 0 7.464993-6.2698 13.537332-13.97679 13.537332-7.787 0-14.12328-6.072339-14.12328-13.537332-0.01-8.090992 6.06938-14.193592 14.11937-14.193592zm-7.7638 32.928275c-6.02899 0-10.40056 5.060405-10.40056 10.949399 0 6.304993 4.14277 10.309228 10.30876 10.998227v-4.32429c-3.49599-0.230999-6.34971-3.128941-6.34971-6.673937 0-3.587997 2.99011-6.808706 6.62511-6.808706 2.30099 0 4.46504 1.656083 6.21104 3.082082l18.63702 15.185796v-22.408571h-3.94733-0.00976v13.986558l-13.94164-11.412297c-1.981-1.606998-4.55693-2.574261-7.13293-2.574261zm13.43772 22.863657c-6.39399 0-12.14668 4.417956-12.14668 11.134946l0.13867 2.43754-7.13293-2.16214 0.00781 0.01367h-0.00976v-10.906429h-3.9571v13.883039l17.80889 5.33798v-0.83009c-1.934-1.517-3.08404-4.04939-3.08404-6.48839 0-4.463 3.77152-8.27943 8.23451-8.27943 4.649 0 8.51577 3.68214 8.51577 8.37513 0 3.082-2.20939 6.62477-5.15438 7.68177l3.03716 3.22271c3.81999-2.023 6.07431-6.30121 6.07431-10.5822 0-7.133-5.01424-12.838106-12.33223-12.838106z"/></svg>
