<svg width="386.64349mm" height="105.25655mm" version="1.1" viewBox="0 0 386.64349 105.25655" xmlns="http://www.w3.org/2000/svg"><path d="m364.95498 0v0.0067179362l-0.86299 0.3234944638-19.74815 7.4041992v8.7772424l4.22041-1.583883v6.660059 0.007751l-4.22041-1.583883v8.777242l20.61114 7.727694v0.006718l0.00879-0.003101 0.00878 0.003101v-0.006718l0.86558-0.323494 19.74764-7.4042v-8.777242l-4.22248 1.583883v-6.662126-0.005684l4.22248 1.583883v-8.7772424l-18.91771-7.09207355v-0.00155029l-1.69551-0.6340698238v-0.0067179362l-0.00878 0.0031005859-0.00879-0.0031005859zm-257.1259 1.8241781c-13.351003 0-16.317526 0.334622-18.758031 2.2008992-2.440507 1.8662625-3.158464 5.1207024-3.158464 14.0213667 0 9.379211 0.670104 12.537196 3.158464 14.451314 2.440505 1.866277 5.407437 2.201416 18.854151 2.201416 13.20744 0 16.22189-0.335139 18.66242-2.201416 2.4405-1.866263 3.15847-5.072319 3.15847-14.260112 0-9.1399371-0.71797-12.3463062-3.15847-14.2125687-2.44053-1.8662772-5.40754-2.2008992-18.75854-2.2008992zm103.55595 0c-7.6565 0-12.05899 0.1913017-13.92525 0.5741251-4.40249 0.9570514-6.12521 3.6848592-6.12521 9.7621948 0 7.034401 2.2013 9.043896 10.09706 9.283154l2.58382 0.095602 5.16816 0.239262 7.65638 0.287321c3.11046 0.04784 3.82819 0.526546 3.82819 2.440677 0 2.82333 6e-5 2.823084-10.43192 2.823084-6.84298 0-7.89542-0.095454-8.80463-0.669727-0.76565-0.478518-0.95756-1.100686-0.95756-3.014803h-9.42682v1.531173c0 4.402478 0.71797 6.268651 2.91921 7.65638 2.24909 1.435599 6.12495 1.866553 16.03054 1.866553 9.52276 0 13.54282-0.239255 15.45694-0.957048 3.30186-1.244179 4.64158-3.97197 4.64158-9.522932 0-4.450332-0.81356-6.603704-3.01481-8.039303-2.05768-1.292035-4.11537-1.531067-14.64303-1.866036-6.74727-0.191419-9.37936-0.334866-10.24072-0.574125-1.00491-0.239259-1.43557-0.86143-1.43557-2.057756 0-2.344795 0.67002-2.536279 8.90075-2.536279 6.89083 0 8.08725 0.0955625 8.90075 0.5741251 0.71779 0.4306789 0.86133 0.8613289 0.95704 2.6318809h9.37928c0.0478-0.622083 0.04754-1.292212 0.04754-1.483631 0-3.7803943-0.76529-5.7902199-2.67942-7.0822546-2.24909-1.5312938-5.59881-1.9616373-14.8823-1.9616373zm43.36841 0c-13.35099 0-16.31804 0.334622-18.75854 2.2008992-2.44051 1.8662625-3.15847 5.1207024-3.15847 14.0213667 0 9.379211 0.6701 12.537196 3.15847 14.451314 2.4405 1.866277 5.40744 2.201416 18.85414 2.201416 13.20745 0 16.22193-0.335139 18.66243-2.201416 2.44051-1.866263 3.15846-5.072319 3.15846-14.260112 0-9.1399371-0.71795-12.3463062-3.15846-14.2125687-2.4405-1.8662772-5.40703-2.2008992-18.75803-2.2008992zm111.91462 0.2098063 17.61339 6.6047648v5.9903318l-4.22093-1.582332v0.006201l-7.15047-2.682007v-0.003617l-6.24199-2.3393922v-5.9939494zm-366.3688535 0.2687174v8.1349042h14.21205246v23.783044h10.192659v-23.783044h14.21257v-8.1349042h-38.61728146zm39.45805646 0v31.9179482h10.193176v-11.532629h21.964551v11.532629h10.19266v-31.9179482h-10.19266v11.4370282h-21.964551v-11.4370282h-10.193176zm93.837167 0v31.9179482h9.57047l-0.23926-23.878646h1.7229l12.01115 23.878646h8.08684l12.01116-23.878646h1.62729l-0.23926 23.878646h9.57047v-31.9179482h-17.51418l-9.52293 20.7201822-9.47487-20.7201822h-17.60978zm146.92385 0v31.9179482h9.90585l-0.23926-23.831103h1.05265l16.79639 23.831103h16.89199v-31.9179482h-9.90534l0.23927 23.7830442h-1.00511l-16.70079-23.7830442h-17.03565zm84.44549 6.4776408 6.64145 2.4913204v0.003618 13.976924l-6.63887 2.489771-6.64404-2.489771v-0.004134-13.976408l6.64146-2.4913204zm-257.13469 1.3224004c8.90067 0 9.95348 0.143506 11.0541 1.435571 0.86135 1.052775 1.14877 2.870861 1.14877 7.608321 0 3.87609-0.33495 5.26385-1.43557 6.125207-1.29203 0.957051-2.87114 1.148768-10.67118 1.148768-8.03932 0-9.570874-0.143818-10.862908-1.148768-1.148472-0.909212-1.435571-2.200951-1.435571-6.172749 0-4.067509 0.191608-5.886038 0.765845-6.986654 0.95706-1.866262 1.865903-2.009696 11.436514-2.009696zm146.92436 0c8.90066 0 9.95349 0.143506 11.05411 1.435571 0.86135 1.052775 1.14825 2.870861 1.14825 7.608321 0 3.87609-0.33495 5.26385-1.43557 6.125207-1.29203 0.957051-2.87113 1.148768-10.67119 1.148768-8.03932 0-9.57087-0.143818-10.8629-1.148768-1.14847-0.909212-1.43557-2.200951-1.43557-6.172749 0-4.067509 0.1916-5.886038 0.76584-6.986654 0.95707-1.866262 1.86641-2.009696 11.43703-2.009696zm90.89523 11.792045 4.22041 1.581815v-0.005684l7.15047 2.68149v0.003617l6.242 2.339909v5.992399l-17.61288-6.603731v-5.989815zm-132.08031 26.128637-0.14263 0.252181-32.66002 57.064214h4.29896l-0.02739 0.04858h8.58191l32.86311-57.314332h-4.2969l0.02946-0.050643h-8.6465zm0.58033 0.999939h6.32984l-0.02945 0.050643h4.30671l-31.71486 55.314453h-6.27507l0.02687-0.04858h-4.30464l31.6606-55.316516zm118.38657 3.675745c-9.55099 0-15.39139 0.117294-19.32234 0.576192-3.93094 0.458898-5.99752 1.288617-7.80882 2.673739-1.83772 1.40531-3.04057 3.380996-3.74964 6.541203-0.70908 3.160206-0.96325 7.530224-0.96325 13.908194 0 6.718618 0.23572 11.222901 0.93586 14.443563 0.70015 3.220663 1.90954 5.184258 3.77703 6.620785 1.8113 1.385121 3.87846 2.216947 7.82639 2.675805 3.94794 0.45886 9.82181 0.57619 19.44119 0.57619 9.44838 0 15.25589-0.11729 19.17816-0.57619 3.92228-0.458894 6.00349-1.289727 7.81606-2.675805 1.83607-1.404059 3.04329-3.363684 3.75223-6.558256 0.70893-3.194572 0.96066-7.649864 0.96066-14.232723 0-6.548712-0.25167-10.985667-0.96066-14.171745s-1.91616-5.146964-3.75223-6.551021c-1.81132-1.385122-3.87581-2.214841-7.80676-2.673739-3.93093-0.458898-9.7729-0.576192-19.32388-0.576192zm-199.42607 0.499711c-19.09363 0-23.33707 0.479125-26.82731 3.148128-3.49022 2.669005-4.51652 7.322415-4.51652 20.051489 0 13.413439 0.95786 17.930552 4.51652 20.66799 3.49024 2.669003 7.73323 3.148123 26.96373 3.148123 18.88831 0 23.20014-0.47912 26.69036-3.148123 3.49024-2.669005 4.51652-7.254415 4.51652-20.394104 0-13.071257-1.02628-17.65637-4.51652-20.325375-3.49022-2.669003-7.73317-3.148128-26.82678-3.148128zm109.18558 0.183968v0.500228 12.13466h20.32641v34.011874h15.57631v-34.011874h20.32589v-12.634888h-56.22861zm90.24049 0.31626c9.54262 0 15.37057 0.120565 19.20709 0.568441 3.83653 0.447876 5.63744 1.192971 7.31635 2.476851 1.65416 1.264943 2.7059 2.930658 3.38274 5.972245s0.93741 7.432688 0.93741 13.955221c0 6.556817-0.26052 10.965481-0.93741 14.015682-0.6769 3.050201-1.72858 4.717637-3.38274 5.98258-1.67766 1.282922-3.49601 2.026392-7.3241 2.474268-3.82807 0.447876-9.623 0.570508-19.06292 0.570508-9.61108 0-15.47219-0.122595-19.32595-0.570508-3.85272-0.447795-5.65332-1.191014-7.33185-2.474268-1.69119-1.300908-2.74001-2.965536-3.40858-6.040975-0.66858-3.075439-0.91364-7.535847-0.91364-14.230656 0-6.351089 0.26066-10.673473 0.93741-13.689603 0.67675-3.016129 1.73022-4.700803 3.38274-5.964494 1.67891-1.28388 3.47983-2.028975 7.31635-2.476851 3.83654-0.447876 9.66448-0.568441 19.2071-0.568441zm-313.619102 0.183968v45.646826h13.68702l-0.342098-34.149337h2.463415l17.177763 34.149337h11.565703l17.177246-34.149337h2.326989l-0.342098 34.149337h13.68702v-45.646826h-25.047566l-13.618807 29.632817-13.550078-29.632817h-25.184509zm224.378552 0.499711h54.22873v10.63501h-20.32641v34.01136h-13.57591v-34.01136h-20.32641v-10.63501zm89.24055 10.156486c-6.8461 0-10.58893 0.043264-12.88294 0.443384-1.147 0.20006-1.95129 0.497172-2.56418 0.95498-0.61213 0.457241-0.99657 1.051644-1.35186 1.74408-0.90462 1.733861-1.15238 4.389895-1.15238 10.222632 0 2.852132 0.09812 4.756962 0.42375 6.168099 0.32565 1.411136 0.92485 2.343431 1.82056 3.052527l0.00206 0.002067c0.99033 0.770266 2.14358 1.227273 4.40439 1.462959s5.68544 0.285254 11.43702 0.285254c5.58162 0 8.94151-0.066168 11.17607-0.310575 2.23454-0.244407 3.3933-0.697021 4.38267-1.429887l0.00621-0.003617 0.00568-0.004134c0.87026-0.681069 1.46126-1.625559 1.79524-3.042709 0.33397-1.417149 0.44907-3.325717 0.44907-6.111771 0-6.795348-0.37992-9.515411-1.75597-11.19725l-0.00207-0.003617-0.00361-0.004134c-0.83211-0.976827-1.8112-1.599939-4.03748-1.890324s-5.78502-0.337964-12.15223-0.337964zm-199.42607 0.499194c12.72908 0 14.23431 0.205345 15.80834 2.053105 1.23183 1.505593 1.64279 4.105837 1.64279 10.88099 0 5.543308-0.47908 7.527827-2.05311 8.759672-1.84776 1.368726-4.10654 1.642793-15.2616 1.642793-11.49723 0-13.68719-0.205634-15.53497-1.642793-1.64245-1.300278-2.0531-3.147711-2.0531-8.827885 0-5.817056 0.27379-8.417613 1.09502-9.991638 1.36872-2.669005 2.66943-2.874244 16.35663-2.874244zm199.42607 0.500745c6.36184 0 9.92127 0.053931 12.02355 0.328145 2.09857 0.273727 2.66036 0.676874 3.40031 1.544609 1.08616 1.329955 1.52704 3.809894 1.52704 10.560596 0 2.757249-0.12263 4.613888-0.42168 5.882845-0.29857 1.266908-0.73587 1.928149-1.43764 2.478401-0.85593 0.632174-1.75008 1.00271-3.88865 1.236617-2.14534 0.234649-5.49307 0.304891-11.06651 0.304891-5.74562 0-9.16326-0.053312-11.33367-0.279569-2.16867-0.22608-3.03397-0.589863-3.89072-1.255737l-0.00207-0.002068c-0.74535-0.590682-1.17298-1.233717-1.46296-2.490287-0.29027-1.257861-0.39842-3.11527-0.39842-5.943306 0-5.801364 0.30137-8.345425 1.03921-9.759611v-0.002067l0.00207-0.002067c0.3287-0.640964 0.61888-1.071154 1.06247-1.402499 0.44359-0.331344 1.07677-0.586635 2.13682-0.771529 2.12009-0.369788 5.86975-0.427364 12.71085-0.427364z" color="#000000" stroke-width="1.30421" style="-inkscape-stroke:none;paint-order:fill markers stroke"/></svg>
