<svg enable-background="new 16 319.3 684 156" version="1.1" viewBox="16 319.3 684 156" xml:space="preserve" xmlns="http://www.w3.org/2000/svg">
<path fill="#0099CC" d="m570 328.60078c-24.39998 0.1-48.79924-3.9e-4 -73.19922 0.09961-3.6-0.3-4.50078 3.79883-5.80078 6.29883-4 9.49999-9.1 18.6004-12.5 28.40039 5.69999 0.6 11.59922-0.39922 17.19922 0.80078 4.29999 1.1 5.7 5.89883 5.5 9.79883 0 29.19997 0.1 58.40003 0 87.5-19.49998-44.19996-38.60002-88.49887-58-132.79883-24.69998 0.1-49.49924-0.10039-74.19922 0.09961-2.7-0.2-3.69922 2.69961-4.69922 4.59961-3.89999 8.99999-8.20117 17.79962-12.20117 26.59961-0.6 1.1-1.29961 3.70039 0.90039 3.40039 4.5 0.5 9.1-0.49961 13.5 0.90039 3.8 1.4 5.90039 6.30039 3.90039 9.90039-12.49999 28.49997-25.09962 57.00003-37.59961 85.5-0.9 2-1.60117 3.99961-2.20117 6.09961h41.20117c3.3-7.09999 6.09883-14.40001 9.29883-21.5h70.90039c3.1 7.19999 6.00078 14.40001 9.30078 21.5h79.59961c0.2-32.29997-0.10039-64.69964 0.09961-97.09961-0.4-1.8 1.4-3.49961 3-2.09961 2.1 4.3 3.20078 9.09962 4.80078 13.59961 9.49999 28.59997 18.69845 57.19925 28.39844 85.69922h38.30078c10.29999-31.89997 20.50079-63.79886 30.80078-95.79883 0.5-1.4 1.09844-2.8 1.89844-4 1.6 0.1 3.20117 0.89883 2.70117 2.79883 0.1 32.39997-0.20039 64.69964 0.09961 97.09961h38.90039v-137.39844h-68.20117l-25.79883 77.69922c-8.79999-25.79997-17.2004-51.79924-25.90039-77.69922zm-502.449219 0.07422c-1.449998 0.025-2.901564 0.12578-4.351562 0.42578-2.899997 2.4-3.700002 6.39961-5.5 9.59961-3.399997 8.39999-8.099612 16.2004-10.59961 24.90039 4.899995 0.3 9.799615-0.40078 14.59961 0.69922 4.099996 1.1 6.499998 6.2 4.5 10-12.199988 27.89997-24.498841 55.90081-36.798828 83.80078-1.199999 2.6-2.100392 5.19844-2.900391 7.89844h41.099609c3.399997-7.09999 6.200394-14.40001 9.400391-21.5h70.90039c3.1 7.19999 5.99883 14.40001 9.29883 21.5h41.40039c-0.8-2.4-1.69922-4.7-2.69922-7-18.99998-43.49996-37.9008-86.89887-56.80078-130.29883-22.39998 0-44.799242 0.1-67.199219 0-1.449999 0-2.899611-0.05039-4.34961-0.02539zm130.011719 0c-1.8125 0-3.61328 0.07578-5.36328 0.42578-2.9 2.9-3.79922 7.09961-5.69922 10.59961-3.2 7.59999-7.3 14.80001-10 22.5 0.1 0.3 0.30039 1.00039 0.40039 1.40039 5.5 0.7 11.29922-0.60156 16.69922 0.89844 4 1.3 5.19961 5.7 5.09961 9.5v77c0 4.99999-0.09922 10 0.30078 15h120.09961c10.79999-2.6 19.00117-12.80001 19.20117-24 0.2-28.69997-3.9e-4 -57.39964 0.09961-86.09961 0-5.5-1.30039-11.2004-4.40039-15.90039-4.7-7.29999-13.40001-11.39883-22-11.29883h-109c-1.8 0.05-3.625-0.02539-5.4375-0.02539zm46.33789 35.02539h46.09961c3 0.1 6.50078 0.49961 8.30078 3.09961 1.8 2.3 1.69922 5.39922 1.69922 8.19922-0.1 15.69998 3.9e-4 31.40158-0.09961 47.10156 0.2 4.3-3.60039 8.19844-7.90039 7.89844h-50.09961c-1.8 0.3-4.00039-0.8-3.40039-3-0.1-19.29998 3.9e-4 -38.60002-0.09961-58 0.3-1.4-0.49961-3.5 0.90039-4.5 1.3-1.1 3.09961-0.59883 4.59961-0.79883zm-132.09961 1.69922c2.9-0.4 3.19922 2.69961 4.19922 4.59961 5.69999 13.69999 11.80079 27.2004 17.30078 40.90039-13.79998 0.3-27.70158 0.3-41.601561 0 5.299994-13.79999 11.601181-27.19884 17.201171-40.79883 0.9-1.6 1.20039-3.80117 2.90039-4.70117zm305.25586 0c0.29277 0.04121 0.60586 0.13828 0.94336 0.30078 4.3 8.59999 7.59961 17.70001 11.59961 26.5 2.6 6.19999 5.50117 12.29962 7.70117 18.59961-13.89998 0.3-27.70158 0.3-41.60156 0 5.59999-13.99999 11.80157-27.60001 17.60156-41.5 0.7-1.75 1.70645-4.18887 3.75586-3.90039z"/>
</svg>
