<?xml version="1.0" encoding="utf-8"?>
<!-- Generator: Adobe Illustrator 19.0.0, SVG Export Plug-In . SVG Version: 6.00 Build 0)  -->
<svg version="1.1" id="Camada_1" xmlns="http://www.w3.org/2000/svg" xmlns:xlink="http://www.w3.org/1999/xlink" x="0px" y="0px"
	 viewBox="16 319.3 684 156" style="enable-background:new 16 319.3 684 156;" xml:space="preserve">
<style type="text/css">
	.st0{fill:#FFF;}
</style>
<g id="_x23_cc0000ff">
	<path class="st0" d="M63.2,329.1c2.9-0.6,5.8-0.4,8.7-0.4c22.4,0.1,44.8,0,67.2,0c18.9,43.4,37.8,86.8,56.8,130.3
		c1,2.3,1.9,4.6,2.7,7h-41.4c-3.3-7.1-6.2-14.3-9.3-21.5c-23.6,0-47.3,0-70.9,0c-3.2,7.1-6,14.4-9.4,21.5H26.5
		c0.8-2.7,1.7-5.3,2.9-7.9c12.3-27.9,24.6-55.9,36.8-83.8c2-3.8-0.4-8.9-4.5-10c-4.8-1.1-9.7-0.4-14.6-0.7
		c2.5-8.7,7.2-16.5,10.6-24.9C59.5,335.5,60.3,331.5,63.2,329.1 M108.9,370.1c-5.6,13.6-11.9,27-17.2,40.8c13.9,0.3,27.8,0.3,41.6,0
		c-5.5-13.7-11.6-27.2-17.3-40.9c-1-1.9-1.3-5-4.2-4.6C110.1,366.3,109.8,368.5,108.9,370.1z"/>
	<path class="st0" d="M192.2,329.1c3.5-0.7,7.2-0.3,10.8-0.4c36.3,0,72.6,0,109,0c8.6-0.1,17.3,4,22,11.3c3.1,4.7,4.4,10.4,4.4,15.9
		c-0.1,28.7,0.1,57.4-0.1,86.1c-0.2,11.2-8.4,21.4-19.2,24H199c-0.4-5-0.3-10-0.3-15c0-25.7,0-51.4,0-77c0.1-3.8-1.1-8.2-5.1-9.5
		c-5.4-1.5-11.2-0.2-16.7-0.9c-0.1-0.4-0.3-1.1-0.4-1.4c2.7-7.7,6.8-14.9,10-22.5C188.4,336.2,189.3,332,192.2,329.1 M239.3,364.5
		c-1.4,1-0.6,3.1-0.9,4.5c0.1,19.4,0,38.7,0.1,58c-0.6,2.2,1.6,3.3,3.4,3c16.7,0,33.4,0,50.1,0c4.3,0.3,8.1-3.6,7.9-7.9
		c0.1-15.7,0-31.4,0.1-47.1c0-2.8,0.1-5.9-1.7-8.2c-1.8-2.6-5.3-3-8.3-3.1c-15.4,0-30.7,0-46.1,0
		C242.4,363.9,240.6,363.4,239.3,364.5z"/>
	<path class="st0" d="M364.3,333.4c1-1.9,2-4.8,4.7-4.6c24.7-0.2,49.5,0,74.2-0.1c19.4,44.3,38.5,88.6,58,132.8
		c0.1-29.1,0-58.3,0-87.5c0.2-3.9-1.2-8.7-5.5-9.8c-5.6-1.2-11.5-0.2-17.2-0.8c3.4-9.8,8.5-18.9,12.5-28.4c1.3-2.5,2.2-6.6,5.8-6.3
		c24.4-0.1,48.8,0,73.2-0.1c8.7,25.9,17.1,51.9,25.9,77.7c8.6-25.9,17.2-51.8,25.8-77.7c22.7,0,45.5,0,68.2,0V466h-38.9
		c-0.3-32.4,0-64.7-0.1-97.1c0.5-1.9-1.1-2.7-2.7-2.8c-0.8,1.2-1.4,2.6-1.9,4c-10.3,32-20.5,63.9-30.8,95.8h-38.3
		c-9.7-28.5-18.9-57.1-28.4-85.7c-1.6-4.5-2.7-9.3-4.8-13.6c-1.6-1.4-3.4,0.3-3,2.1c-0.2,32.4,0.1,64.8-0.1,97.1h-79.6
		c-3.3-7.1-6.2-14.3-9.3-21.5c-23.6,0-47.3,0-70.9,0c-3.2,7.1-6,14.4-9.3,21.5h-41.2c0.6-2.1,1.3-4.1,2.2-6.1
		c12.5-28.5,25.1-57,37.6-85.5c2-3.6-0.1-8.5-3.9-9.9c-4.4-1.4-9-0.4-13.5-0.9c-2.2,0.3-1.5-2.3-0.9-3.4
		C356.1,351.2,360.4,342.4,364.3,333.4 M413.3,369.3c-5.8,13.9-12,27.5-17.6,41.5c13.9,0.3,27.7,0.3,41.6,0
		c-2.2-6.3-5.1-12.4-7.7-18.6c-4-8.8-7.3-17.9-11.6-26.5C415.3,364.4,414.1,367.3,413.3,369.3z"/>
</g>
</svg>
