<svg width="312.81662mm" height="23.535437mm" version="1.1" viewBox="0 0 312.81662 23.535438" xmlns="http://www.w3.org/2000/svg">
 <path d="M 0,0 H 312.81662 V 23.535436 H 0 Z" fill="#5b5652" stroke-width=".79375"/>
 <path d="m14.93449 3.857129c-4.22205 0-7.93182 3.540154-7.93182 7.931815 0 4.520648 3.75214 7.889441 7.97419 7.889441 0.76757 0 1.19395-0.08575 2.13217-0.342614v-4.092774c-0.93872 0.468544-1.40684 0.596346-2.17454 0.596346-2.34561 0-4.13773-1.961173-4.13773-4.136181 0-2.259455 1.74871-4.179073 4.09432-4.179073 0.81112 0 1.49317 0.21395 2.21795 0.640271v-4.008541c-0.80985-0.213431-1.36519-0.29869-2.17454-0.29869zm81.52009 1.955436v3.784782c-0.54041-0.737362-1.03169-1.129647-2.99724-1.129647-3.14514 0-3.73568 0.835916-3.73568 3.391008 0 2.605306 0.83636 3.340881 3.88296 3.340881 1.91696 0 2.50642-0.491008 2.94866-1.326534v1.178223h2.35955v-9.238713zm169.82116 0.127124v8.933305h2.31562v-8.933305zm27.96005 0.04806-3.29128 5.705078c-1.81025 3.137556-3.29178 5.738213-3.29178 5.779493 0 0.04518 0.2909 0.07493 0.73225 0.07493h0.73226l3.19877-5.53713c1.75937-3.045546 3.26245-5.646179 3.33985-5.779493l0.14056-0.242879h-0.78032zm6.9727 0.201021-6.65748 4.769217v4.358391h8.89869v2.02985h3.27938v-2.02985h2.21279v-2.604492h-2.21279v-6.523116zm-17.04444 2.182295c-0.31472-8.82e-4 -0.65736 0.0034-1.03043 0.0124-2.44 0.05914-3.06125 0.219132-3.51658 0.906921-0.21139 0.319448-0.22841 0.408257-0.22841 1.189591 0 0.774992 0.0181 0.871337 0.22169 1.179257 0.4562 0.690004 1.20895 0.855845 3.90002 0.858345 2.03064 0.0019 2.19254 0.04181 2.14509 0.529167-0.0429 0.440844-0.30818 0.51263-1.89756 0.51263-1.49566 0-1.7441-0.06053-2.02881-0.49506-0.13716-0.209727-0.15366-0.21214-1.19786-0.21084-0.58252 7.5e-4 -1.11037 0.03347-1.17254 0.07286-0.0833 0.05271-0.097 0.167783-0.0532 0.435632 0.16584 1.01387 0.8664 1.52809 2.28823 1.679484h5.2e-4c0.64031 0.06791 3.25066 0.04973 3.99407-0.02791 1.93735-0.202432 2.50703-0.697544 2.51457-2.183329 4e-3 -0.91427-0.22058-1.341148-0.88418-1.680518l-0.48265-0.247001-2.30167-0.05168c-1.5357-0.03467-2.36336-0.08548-2.48771-0.151928-0.26339-0.140978-0.24408-0.468392 0.0388-0.653707 0.19292-0.12629 0.42491-0.147278 1.61747-0.147278h1.39217l0.24133 0.230993 0.24184 0.231511 1.11621-0.02325 1.11621-0.02326 0.0238-0.291455c0.0145-0.178847-0.0497-0.435625-0.16639-0.665592-0.36354-0.716406-1.20087-0.979813-3.40393-0.985987zm-266.84263 0.0067v3.112472h3.75326l3.0701-3.112472zm244.29982 0.02274c-1.76376-7.42e-4 -2.18862 0.09249-2.66495 0.583944-0.1543 0.159163-0.30851 0.289388-0.34262 0.289388-0.0341 0-0.073-0.159443-0.0873-0.353984l-0.0258-0.353467-2.20555-0.0465v4.537708l5.2e-4 4.538224h2.33009v-1.659847c0-0.912722 0.0317-1.679095 0.0708-1.703255 0.0391-0.02418 0.16117 0.05195 0.27078 0.169499 0.45677 0.48941 1.23702 0.696598 2.62207 0.696598 1.86138 0 2.84789-0.292666 3.27938-0.973067 0.33157-0.522836 0.4389-1.281448 0.39636-2.799829-0.0414-1.476863-0.13991-1.800931-0.69763-2.29185-0.59019-0.519526-1.11659-0.632924-2.94608-0.633553zm-209.05546 0.01705c-1.7692 0-2.2604 0.589702-2.5554 1.671216v-1.522905h-2.21071v6.485909h2.35903v-3.341914c0-0.982217 0.49153-1.325501 1.81901-1.325501 1.22868 0 1.57251 0.441951 1.57251 1.670699v2.996716h2.40812v-3.439066c0-0.93369 0.73642-1.228349 1.86655-1.228349 1.08144 0 1.57303 0.295226 1.57303 1.228349v3.439066h2.35852v-3.832841c0-1.915328-1.17953-2.801379-3.3414-2.801379-1.86801 0-2.55598 0.688441-2.8019 1.425236-0.49145-0.835525-1.17947-1.425236-3.04736-1.425236zm15.82591 0c-1.7195 0-2.16147 0.589702-2.50579 1.671216v-1.522905h-2.21227v6.485909h2.35903v-3.341914c0-0.982217 0.58915-1.325501 1.76837-1.325501 1.22932 0 1.57303 0.393436 1.57303 1.670699v2.996716h2.40916v-3.439066c0-0.93369 0.68784-1.228349 1.81849-1.228349 1.08093 0 1.62109 0.343729 1.62109 1.228349v3.439066h2.35954v-3.832841c0-1.915328-1.1794-2.801379-3.34191-2.801379-1.86725 0-2.50687 0.638806-2.80086 1.425236-0.49195-0.835525-1.1805-1.425236-3.04788-1.425236zm47.18213 0c-1.4255 0-1.9168 0.295209-2.45721 1.376143v-1.227832h-2.26136v6.485909h2.35903v-3.389974c0-0.884041 0.54105-1.32705 1.52445-1.32705 0.98215 0 1.22848 0.29475 1.27693 1.12913h2.21227c0-2.210953-0.29528-3.046326-2.65411-3.046326zm-73.81875 0.09922c-4.07896 0-4.57129 0.637877-4.57129 3.391007 0 2.801081 0.68916 3.390491 4.57129 3.390491 4.12842 5.79e-4 4.52066-0.687467 4.52066-3.588411 0-2.653268-0.73695-3.193087-4.52066-3.193087zm41.92148 0c-4.07897 0-4.57027 0.687647-4.57027 3.439066 0 2.752566 0.68763 3.342432 4.57027 3.342432 4.12904 5.79e-4 4.57026-0.687467 4.57026-3.588411 0-2.653268-0.78542-3.193087-4.57026-3.193087zm21.23178 0c-4.03039 0-4.52169 0.637877-4.52169 3.391007 0 2.801081 0.68763 3.390491 4.52169 3.390491 4.1269 5.79e-4 4.52013-0.687467 4.52013-3.588411 0-2.653268-0.73743-3.193087-4.52013-3.193087zm171.17456 0.0078v1.853634c-0.0413 2.093772-0.18647 2.364405-0.73019 2.679423-0.25202 0.145987-0.43708 0.168982-1.37614 0.168982-0.8967 0-1.12476-0.02557-1.31-0.146761-0.49244-0.322431-0.57981-0.420774-0.57981-2.55385v-1.95957h-2.35024v2.288233c2e-3 2.22034 8e-3 2.301698 0.1974 2.724898 0.33595 0.749959 1.05366 1.259587 2.01642 1.431437h5.1e-4c0.24622 0.04316 0.93461 0.06583 1.52962 0.04909 0.79248-0.02545 2.30506 0.115854 2.60243-0.959632 0.0258 0-0.0144 0.177917 0 0.395325v0.377238h2.28875v-6.216675c-0.0427-0.111181-0.21827-0.131775-1.18598-0.131775zm-244.40265 0.04134c-3.73539 0-4.5713 0.588785-4.5713 3.341915 0 2.752 0.78636 3.390491 4.27571 3.390491 3.68567 0 4.4235-0.491634 4.4235-2.801896h-2.35903c0 0.63921-0.24567 0.934827-2.06447 0.934827-1.57289 0-1.91616-0.392858-1.91616-1.6707 0-1.228746 0.34375-1.228865 2.21226-1.228865 1.37492 0 1.6201 0.147871 1.76785 0.786515h2.35903c-0.19645-2.212098-0.83551-2.752287-4.12739-2.752287zm91.60939 0c-3.53955 0-4.32583 0.638517-4.32583 3.439584 0 2.604753 1.03282 3.243678 3.88297 3.293339 3.19485 0 4.71857-0.148055 4.71857-2.260844h-2.31097c-0.0982 0.491386-0.29355 0.736906-1.27796 0.736906-2.25954 0-2.60397-0.196997-2.60397-1.327568h6.1929c-0.0982-3.143509-0.0981-3.881417-4.27571-3.881417zm179.79316 0.255252h0.36691v3.890719h-5.85081l-3e-3 -0.280603zm-179.89238 1.317232c1.72126 0 1.96592 0.09883 2.06396 0.93431h-3.93154c0.0982-0.688279 0.29469-0.93431 1.86758-0.93431zm137.59884 0.05168c1.18569 0 1.55046 0.07525 1.83658 0.379821 0.18892 0.201361 0.20206 0.274306 0.20206 1.158586 0 0.873897-0.014 0.958987-0.19379 1.150317-0.10675 0.113631-0.35749 0.247834-0.55707 0.298173-0.44212 0.111136-2.20988 0.105488-2.63964-0.0088-0.63754-0.169357-0.90256-0.871473-0.72967-1.933732 0.1442-0.886017 0.4601-1.04438 2.08153-1.04438zm-166.05498 0.14521c1.32635 0 1.76992 0.196029 1.76992 1.227316 0 1.573465-0.0996 1.721858-1.96577 1.721858-1.86801 0-2.35903-0.04979-2.35903-1.376143 0-1.523804 0.58933-1.573031 2.55488-1.573031zm-53.12751 0.04961c1.91646 0 2.26085 0.04862 2.26085 1.474328 0 1.326924-0.24669 1.572514-2.06448 1.572514-1.91759 0-2.16266-0.197087-2.16266-1.572514 0-1.327489 0.29474-1.474328 1.96629-1.474328zm41.92303 0c1.91646 0 2.25981 0.04862 2.25981 1.474328 0 1.326924-0.24618 1.572514-2.06448 1.572514-1.96554 0-2.21072-0.197087-2.21072-1.572514 0-1.327489 0.29526-1.474328 2.01539-1.474328zm21.23022 0c1.91709 0 2.26085 0.04862 2.26085 1.474328 0 1.326924-0.24566 1.572514-2.06396 1.572514-1.96504 0-2.21123-0.197087-2.21123-1.572514 0-1.327489 0.29422-1.474328 2.01434-1.474328zm-87.43755 1.744596v3.113505h6.82284l-3.02721-3.113505z" fill="#fff" stroke-width=".264583"/>
 <path d="m131.45403 6.614515h2.48154v10.306397h-2.48154z" fill="#2fabc5" stroke-width=".793749"/>
 <path d="m134.75345 6.614515h2.48154v10.306397h-2.48154z" fill="#2ba7c1" stroke-width=".793749"/>
 <path d="m138.05275 6.614515h2.48154v10.306397h-2.48154z" fill="#2c9fb9" stroke-width=".793749"/>
 <path d="m141.35193 6.614515h2.48154v10.306397h-2.48154z" fill="#2da6c0" stroke-width=".793749"/>
 <path d="m144.65123 6.614515h2.48154v10.306397h-2.48154z" fill="#28b2c3" stroke-width=".793749"/>
 <path d="m147.95054 6.614515h2.48153v10.306397h-2.48153z" fill="#28a5a8" stroke-width=".793749"/>
 <path d="m151.24971 6.614515h2.48154v10.306397h-2.48154z" fill="#269857" stroke-width=".793749"/>
 <path d="m154.54912 6.614515h2.48154v10.306397h-2.48154z" fill="#319b58" stroke-width=".793749"/>
 <path d="m157.84855 6.614515h2.48153v10.306397h-2.48153z" fill="#309a57" stroke-width=".793749"/>
 <path d="m161.14772 6.614515h2.48154v10.306397h-2.48154z" fill="#2b9850" stroke-width=".793749"/>
 <path d="m164.44703 6.614515h2.48154v10.306397h-2.48154z" fill="#34a35c" stroke-width=".793749"/>
 <path d="m167.74621 6.614515h2.48154v10.306397h-2.48154z" fill="#2d974f" stroke-width=".793749"/>
 <path d="m171.04563 6.614515h2.48154v10.306397h-2.48154z" fill="#68b057" stroke-width=".793749"/>
 <path d="m174.34504 6.614515h2.48153v10.306397h-2.48153z" fill="#6faf55" stroke-width=".793749"/>
 <path d="m177.64422 6.614515h2.48154v10.306397h-2.48154z" fill="#6cae55" stroke-width=".793749"/>
 <path d="m180.94364 6.614515h2.48154v10.306397h-2.48154z" fill="#acc249" stroke-width=".793749"/>
 <path d="m184.2427 6.614515h2.48154v10.306397h-2.48154z" fill="#bac441" stroke-width=".793749"/>
 <path d="m187.54212 6.614515h2.48154v10.306397h-2.48154z" fill="#e0d640" stroke-width=".793749"/>
 <path d="m190.84154 6.614515h2.48154v10.306397h-2.48154z" fill="#dccc3d" stroke-width=".793749"/>
 <path d="m194.14072 6.614515h2.48154v10.306397h-2.48154z" fill="#ddce45" stroke-width=".793749"/>
 <path d="m197.44002 6.614515h2.48153v10.306397h-2.48153z" fill="#e2c03e" stroke-width=".793749"/>
 <path d="m200.7392 6.614515h2.48154v10.306397h-2.48154z" fill="#dc9f2d" stroke-width=".793749"/>
 <path d="m204.03862 6.614515h2.48153v10.306397h-2.48153z" fill="#e69434" stroke-width=".793749"/>
 <path d="m207.3378 6.614515h2.48153v10.306397h-2.48153z" fill="#e98f34" stroke-width=".793749"/>
 <path d="m210.63721 6.614515h2.48154v10.306397h-2.48154z" fill="#e37c20" stroke-width=".793749"/>
 <path d="m213.93651 6.614515h2.48154v10.306397h-2.48154z" fill="#ca6627" stroke-width=".793749"/>
 <path d="m217.23569 6.614515h2.48154v10.306397h-2.48154z" fill="#dd561d" stroke-width=".793749"/>
 <path d="m220.53512 6.614515h2.48153v10.306397h-2.48153z" fill="#d55522" stroke-width=".793749"/>
 <path d="m223.83441 6.614515h2.48153v10.306397h-2.48153z" fill="#d65424" stroke-width=".793749"/>
 <path d="m227.13371 6.614515h2.48154v10.306397h-2.48154z" fill="#d6481d" stroke-width=".793749"/>
 <path d="m230.43301 6.614515h2.48154v10.306397h-2.48154z" fill="#e13e28" stroke-width=".793749"/>
 <path d="m233.73231 6.614515h2.48154v10.306397h-2.48154z" fill="#dd261a" stroke-width=".793749"/>
 <path d="m237.03161 6.614515h2.48154v10.306397h-2.48154z" fill="#e92a2a" stroke-width=".793749"/>
 <path d="m240.33079 6.614515h2.48154v10.306397h-2.48154z" fill="#e22821" stroke-width=".793749"/>
 <path d="m243.63021 6.614515h2.48154v10.306397h-2.48154z" fill="#e50e10" stroke-width=".793749"/>
 <path d="m246.92939 6.614515h2.48153v10.306397h-2.48153z" fill="#e11613" stroke-width=".793749"/>
 <path d="m250.22881 6.614515h2.48153v10.306397h-2.48153z" fill="#e11413" stroke-width=".793749"/>
</svg>
