<svg width="310.86832mm" height="16.289129mm" version="1.1" xmlns="http://www.w3.org/2000/svg">
 <path d="m30.86507 0c-16.429252 0-30.86507 13.775792-30.86507 30.86505 0 17.591185 14.600692 30.70016 31.029944 30.70016 2.986843 0 4.646015-0.333679 8.296908-1.333213v-15.9262c-3.652839 1.823244-5.474433 2.32056-8.461782 2.32056-9.127466 0-16.101138-7.631508-16.101138-16.09511 0-8.792211 6.804751-16.262015 15.932217-16.262015 3.156309 0 5.810368 0.832543 8.630703 2.491484v-15.5984249c-3.151367-0.830523-5.31236-1.1622911-8.461782-1.1622911zm317.2189 7.6091831v14.7277119c-2.1029-2.869295-4.01461-4.395793-11.66315-4.395793-12.23868 0-14.53664 3.252798-14.53664 13.195421 0 10.13802 3.25452 13.000361 15.10975 13.000361 7.45946 0 9.75322-1.910659 11.47411-5.161939v4.584816h9.18171v-35.9505779zm660.82443 0.494677v34.7621449h9.0107v-34.7621449zm108.8011 0.187016-12.8074 22.2001539c-7.044 12.209163-12.8094 22.329093-12.8094 22.489725 0 0.175809 1.132 0.291575 2.8496 0.291575h2.8492l12.4475-21.546614c6.8463-11.851125 12.695-21.9709609 12.9961-22.4897259l0.5472-0.945114zm27.1329 0.782236-25.9064 18.5584409v16.959795h34.6275v7.89875h12.7612v-7.89875h8.6106v-10.134852h-8.6106v-25.3833879zm-660.56532 1.6569609v40.105064h9.65633v-40.105064zm12.83941 0v40.105064h9.65626v-40.105064zm12.83778 0v40.105064h9.65626v-40.105064zm12.83934 0v40.105064h9.65625v-40.105064zm12.83739 0v40.105064h9.65625v-40.105064zm12.83972 0v40.105064h9.65626v-40.105064zm12.83739 0v40.105064h9.65626v-40.105064zm12.83934 0v40.105064h9.65625v-40.105064zm12.83972 0v40.105064h9.65626v-40.105064zm12.83739 0v40.105064h9.65626v-40.105064zm12.83739 0v40.105064h9.65625v-40.105064zm12.83934 0v40.105064h9.65625v-40.105064zm12.83777 0v40.105064h9.6582v-40.105064zm12.83934 0v40.105064h9.65625v-40.105064zm12.83933 0v40.105064h9.65665v-40.105064zm12.83778 0v40.105064h9.65626v-40.105064zm12.83739 0v40.105064h9.65626v-40.105064zm12.83934 0v40.105064h9.65625v-40.105064zm12.83972 0v40.105064h9.65626v-40.105064zm12.83739 0v40.105064h9.65626v-40.105064zm12.83934 0v40.105064h9.65625v-40.105064zm12.83778 0v40.105064h9.65625v-40.105064zm12.83933 0v40.105064h9.65626v-40.105064zm12.83739 0v40.105064h9.65626v-40.105064zm12.83973 0v40.105064h9.65625v-40.105064zm12.83739 0v40.105064h9.65625v-40.105064zm12.83933 0v40.105064h9.65625v-40.105064zm12.83778 0v40.105064h9.6582v-40.105064zm12.83933 0v40.105064h9.65626v-40.105064zm12.83934 0v40.105064h9.65625v-40.105064zm12.83778 0v40.105064h9.65625v-40.105064zm12.83933 0v40.105064h9.65626v-40.105064zm12.83739 0v40.105064h9.65626v-40.105064zm12.83739 0v40.105064h9.65859v-40.105064zm12.83973 0v40.105064h9.65625v-40.105064zm12.83933 0v40.105064h9.65626v-40.105064zm12.83739 0v40.105064h9.65626v-40.105064zm132.05267 6.834994c-1.2246-0.0034-2.5577 0.01323-4.0096 0.04825-9.4947 0.230131-11.912 0.852708-13.6841 3.529099-0.8226 1.243067-0.8888 1.58865-0.8888 4.629052 0 3.015725 0.07 3.390632 0.8627 4.58884 1.7752 2.685011 4.7046 3.330347 15.1761 3.340075 7.9021 0.0074 8.5321 0.162696 8.3472 2.059147-0.1673 1.715455-1.1993 1.994795-7.3837 1.994795-5.8202 0-6.7868-0.23554-7.8951-1.926425-0.5335-0.81611-0.5977-0.8255-4.661-0.820441-2.2666 0.0029-4.3209 0.130241-4.5625 0.283519-0.323 0.205111-0.3775 0.652894-0.2062 1.695174 0.6455 3.94527 3.3714 5.946252 8.9044 6.535371 2.4915 0.264258 12.649 0.193515 15.5418-0.108606 7.539-0.787723 9.7559-2.714351 9.785-8.495982 0-3.557696-0.8584-5.218805-3.4406-6.539395l-1.878-0.961201-8.9566-0.201102c-5.9758-0.134911-9.1967-0.332628-9.6804-0.591197-1.0249-0.548587-0.9498-1.822653 0.1518-2.543768 0.7506-0.491432 1.6534-0.573103 6.2938-0.573103h5.4175l0.9389 0.898863 0.9413 0.900878 4.3435-0.09047 4.3435-0.09051 0.093-1.134138c0.054-0.695947-0.1946-1.695147-0.6476-2.590017-1.4148-2.787748-4.673-3.812743-13.2459-3.836768zm-1038.363776 0.026072v12.111553h14.60505l11.946672-12.111553zm950.643096 0.08849c-6.86308-0.0029-8.51649 0.359906-10.36991 2.272299-0.60043 0.619351-1.20047 1.126095-1.33316 1.126095-0.13231 0-0.28407-0.62044-0.33854-1.377457l-0.10118-1.375445-8.58264-0.18094v17.65757l2e-3 17.659579h9.06672v-6.458958c0-3.551673 0.12453-6.533858 0.27629-6.627872 0.15176-0.09409 0.62727 0.202153 1.05376 0.659571 1.77754 1.90444 4.81392 2.71067 10.20337 2.71067 7.24329 0 11.08207-1.13885 12.76117-3.786493 1.2903-2.03451 1.7079-4.986495 1.5421-10.894967-0.1596-5.746913-0.5444-7.007957-2.7146-8.918269-2.29658-2.02163-4.34498-2.462896-11.46415-2.465343zm-813.49682 0.06635c-6.88448 0-8.79588 2.294706-9.94382 6.503199v-5.926076h-8.60253v25.238599h9.17969v-13.00438c0-3.822099 1.91269-5.157919 7.07831-5.157919 4.78116 0 6.1191 1.719763 6.1191 6.501187v11.661112h9.37071v-13.382434c0-3.633265 2.86563-4.779871 7.2633-4.779871 4.20821 0 6.12113 1.148812 6.12113 4.779871v13.382428h9.1777v-14.914649c0-7.453111-4.5899-10.900999-13.00238-10.900999-7.26898 0-9.94607 2.678929-10.90302 5.546017-1.91238-3.251276-4.58967-5.546017-11.85819-5.546017zm61.58332 0c-6.69108 0-8.41092 2.294706-9.75077 6.503199v-5.926076h-8.6086v25.238599h9.17969v-13.00438c0-3.822099 2.29255-5.157919 6.88125-5.157919 4.78365 0 6.12113 1.530977 6.12113 6.501187v11.661112h9.37476v-13.382434c0-3.633265 2.67658-4.779871 7.07628-4.779871 4.20622 0 6.30814 1.337552 6.30814 4.779871v13.382428h9.18167v-14.914649c0-7.453111-4.58939-10.900999-13.00436-10.900999-7.26603 0-9.75498 2.485784-10.89898 5.546017-1.91432-3.251276-4.59368-5.546017-11.86021-5.546017zm183.5997 0c-5.54704 0-7.45884 1.148746-9.56173 5.354982v-4.777859h-8.79963v25.238599h9.17969v-13.191402c0-3.440066 2.10538-5.163946 5.93209-5.163946 3.82183 0 4.78038 1.14696 4.96891 4.39378h8.6086c0-8.603475-1.14902-11.85416-10.32793-11.85416zm-287.2507 0.386095c-15.87245 0-17.78825 2.482169-17.78825 13.195416 0 10.899839 2.68173 13.193408 17.78825 13.193408 16.06491 0.0023 17.59123-2.675138 17.59123-13.963573 0-10.324655-2.86769-12.425251-17.59123-12.425251zm163.12894 0c-15.87249 0-17.78428 2.675839-17.78428 13.382428 0 10.711052 2.67577 13.006396 17.78428 13.006396 16.06732 0.0023 17.78424-2.675138 17.78424-13.963573 0-10.324655-3.05631-12.425251-17.78424-12.425251zm82.61917 0c-15.68345 0-17.59525 2.482169-17.59525 13.195416 0 10.899839 2.67578 13.193408 17.59525 13.193408 16.05899 0.0023 17.58917-2.675138 17.58917-13.963573 0-10.324655-2.86956-12.425251-17.58917-12.425251zm666.09117 0.03035v7.213041c-0.1596 8.147489-0.7257 9.200603-2.8414 10.426431-0.9807 0.568079-1.7009 0.657559-5.3549 0.657559-3.4897 0-4.3769-0.0995-5.0976-0.57109-1.9164-1.254675-2.2565-1.637357-2.2565-9.93779v-7.625269h-9.1454v8.904195c0 8.640003 0.039 8.956591 0.7682 10.603388 1.3075 2.918313 4.1003 4.901427 7.8464 5.570147 0.9581 0.167948 3.6369 0.256164 5.9526 0.191023 3.0834-0.09903 8.9694 0.450823 10.1267-3.734213 0.1012 0-0.054 0.692328 0 1.538327v1.467941h8.906v-24.19093c-0.1673-0.432638-0.8491-0.512776-4.6147-0.512776zm-951.043439 0.160866c-14.535513 0-17.788287 2.291138-17.788287 13.004385 0 10.70885 3.05996 13.193408 16.638058 13.193408 14.342038 0 17.213148-1.913094 17.213148-10.90301h-9.17968c0 2.487356-0.95598 3.63769-8.033468 3.63769-6.120582 0-7.456348-1.528728-7.456348-6.501191 0-4.781416 1.337634-4.781879 8.608557-4.781879 5.350229 0 6.304299 0.57541 6.879229 3.060564h9.17969c-0.76444-8.607931-3.25122-10.709967-16.060899-10.709967zm356.479369 0c-13.77344 0-16.83309 2.48466-16.83309 13.384444 0 10.135868 4.01901 12.622115 15.10979 12.815361 12.43211 0 18.36136-0.576126 18.36136-8.797616h-8.99267c-0.38213 1.912129-1.14229 2.86752-4.97293 2.86752-8.79254 0-10.13282-0.766574-10.13282-5.165962h24.09842c-0.38213-12.232331-0.38174-15.103751-16.63806-15.103751zm699.62867 0.993378h1.4277v15.139944h-22.7672v-1.091909zm-700.01476 5.125625c6.69793 0 7.64997 0.384577 8.03148 3.635678h-15.29879c0.38212-2.678298 1.14672-3.635678 7.26731-3.635678zm535.43783 0.201102c4.61391 0 6.03345 0.29282 7.14675 1.477997 0.7351 0.783555 0.7864 1.067406 0.7864 4.508402 0 3.400593-0.054 3.731703-0.7541 4.476225-0.41559 0.442172-1.39114 0.964396-2.16784 1.16028-1.72034 0.432463-8.59938 0.410485-10.27147-0.03424-2.48109-0.659019-3.51229-3.391161-2.83948-7.524726 0.56113-3.447756 1.79039-4.063993 8.09974-4.063993zm-646.16914 0.565055c5.16122 0 6.88729 0.762807 6.88729 4.775852 0 6.12282-0.38758 6.700261-7.6494 6.700261-7.26898 0-9.17969-0.193748-9.17969-5.354981 0-5.929575 2.29326-6.121132 9.9418-6.121132zm-206.73493 0.193044c7.45752 0 8.79764 0.189195 8.79764 5.737048 0 5.163456-0.95995 6.119119-8.03351 6.119119-7.46191 0-8.41555-0.766924-8.41555-6.119119 0-5.165654 1.14692-5.737048 7.65142-5.737048zm163.13497 0c7.45752 0 8.79359 0.189195 8.79359 5.737048 0 5.163456-0.95796 6.119119-8.0335 6.119119-7.6485 0-8.60257-0.766924-8.60257-6.119119 0-5.165654 1.14894-5.737048 7.84248-5.737048zm82.6131 0c7.45997 0 8.79764 0.189195 8.79764 5.737048 0 5.163456-0.95594 6.119119-8.03148 6.119119-7.64656 0-8.60455-0.766924-8.60455-6.119119 0-5.165654 1.14489-5.737048 7.83839-5.737048zm-340.245499 6.788741v12.115574h26.549699l-11.779774-12.115574z" stroke-width="1.02957"/>
</svg>
