<svg enable-background="new 0 0 3839 876" version="1.1" viewBox="0 0 3839 876" xml:space="preserve" xmlns="http://www.w3.org/2000/svg"><defs><linearGradient id="SVGID_1_" x1="548.87347" x2="662.58368" y1="-7439.5205" y2="-7439.5205" gradientTransform="translate(0,7645.3281)" gradientUnits="userSpaceOnUse">
				<stop stop-color="#3C4DA1" offset="0"/>
				<stop stop-color="#45495F" offset=".9932"/>
			</linearGradient><linearGradient id="SVGID_2_" x1="246.5065" x2="246.5065" y1="-7063.4438" y2="-6900.6475" gradientTransform="translate(0,7645.3281)" gradientUnits="userSpaceOnUse">
				<stop stop-color="#F7FBFF" offset=".0368"/>
				<stop stop-color="#E7ECFE" offset=".8957"/>
			</linearGradient><linearGradient id="SVGID_3_" x1="636.72339" x2="636.72339" y1="-7054.0352" y2="-7218.0679" gradientTransform="translate(0,7645.3281)" gradientUnits="userSpaceOnUse">
				<stop stop-color="#ADC1EA" offset=".0368"/>
				<stop stop-color="#7185B8" offset=".8957"/>
			</linearGradient><linearGradient id="SVGID_4_" x1="379.3028" x2="644.89539" y1="-6982.0454" y2="-6982.0454" gradientTransform="translate(0,7645.3281)" gradientUnits="userSpaceOnUse">
				<stop stop-color="#F7FBFF" offset=".0368"/>
				<stop stop-color="#6F83B9" offset=".8957"/>
			</linearGradient><linearGradient id="SVGID_6_" x1="246.5065" x2="246.5065" y1="-7514.0371" y2="-7054.0352" gradientTransform="translate(0,7645.3281)" gradientUnits="userSpaceOnUse">
				<stop stop-color="#4C5794" offset="1.491781e-7"/>
				<stop stop-color="#424873" offset="1"/>
			</linearGradient><linearGradient id="SVGID_7_" x1="419.3703" x2="718.51129" y1="-7247.4365" y2="-6948.2954" gradientTransform="translate(0,7645.3281)" gradientUnits="userSpaceOnUse">
				<stop stop-color="#3F578E" offset="7.458905e-8"/>
				<stop stop-color="#435A92" offset=".1523"/>
				<stop stop-color="#4F639D" offset=".3057"/>
				<stop stop-color="#6373B0" offset=".4593"/>
				<stop stop-color="#6A78B6" offset=".5006"/>
				<stop stop-color="#6F83C1" offset=".8998"/>
				<stop stop-color="#7187C4" offset="1"/>
			</linearGradient><linearGradient id="SVGID_9_" x1="379.3028" x2="548.87347" y1="-7455.6499" y2="-7455.6499" gradientTransform="translate(0,7645.3281)" gradientUnits="userSpaceOnUse">
				<stop stop-color="#8792C3" offset=".0368"/>
				<stop stop-color="#5C6D99" offset="1"/>
			</linearGradient><linearGradient id="SVGID_10_" x1="357.09839" x2="379.3028" y1="-7112.0996" y2="-7112.0996" gradientTransform="translate(0,7645.3281)" gradientUnits="userSpaceOnUse">
				<stop stop-color="#ACC3D6" stop-opacity="0" offset=".5313"/>
				<stop stop-color="#ACC3D6" offset="1"/>
			</linearGradient><linearGradient id="SVGID_11_" x1="357.09839" x2="379.3028" y1="-6841.4268" y2="-6841.4268" gradientTransform="translate(0,7645.3281)" gradientUnits="userSpaceOnUse">
				<stop stop-color="#ACC3D6" stop-opacity="0" offset=".5313"/>
				<stop stop-color="#ACC3D6" offset="1"/>
			</linearGradient><linearGradient id="SVGID_14_" x1="306.29019" x2="295.18771" y1="-7342.8711" y2="-7362.1011" gradientTransform="translate(0,7645.3281)" gradientUnits="userSpaceOnUse">
				<stop stop-color="#DBDDE8" stop-opacity="0" offset="2.29095e-7"/>
				<stop stop-color="#D8DAE6" stop-opacity=".0369" offset=".1847"/>
				<stop stop-color="#CED1DF" stop-opacity=".0649" offset=".3247"/>
				<stop stop-color="#BEC1D4" stop-opacity=".09" offset=".4499"/>
				<stop stop-color="#A7ABC4" stop-opacity=".1133" offset=".5666"/>
				<stop stop-color="#898EB0" stop-opacity=".1355" offset=".6774"/>
				<stop stop-color="#656A97" stop-opacity=".1567" offset=".7836"/>
				<stop stop-color="#3A4079" stop-opacity=".1773" offset=".8864"/>
				<stop stop-color="#091157" stop-opacity=".1968" offset=".9839"/>
				<stop stop-color="#000851" stop-opacity=".2" offset="1"/>
			</linearGradient><linearGradient id="SVGID_15_" x1="23300.66" x2="23294.77" y1="-6981.6885" y2="-6991.8911" gradientTransform="matrix(-1,0,0,1,23548.764,7645.3281)" gradientUnits="userSpaceOnUse">
				<stop stop-color="#DBDDE8" stop-opacity="0" offset="2.29095e-7"/>
				<stop stop-color="#D9DBE7" stop-opacity=".0624" offset=".312"/>
				<stop stop-color="#D1D4E1" stop-opacity=".091" offset=".4549"/>
				<stop stop-color="#C5C7D9" stop-opacity=".1127" offset=".5633"/>
				<stop stop-color="#B3B6CC" stop-opacity=".1309" offset=".6543"/>
				<stop stop-color="#9B9FBC" stop-opacity=".1469" offset=".7345"/>
				<stop stop-color="#7E82A8" stop-opacity=".1614" offset=".807"/>
				<stop stop-color="#5B6190" stop-opacity=".1747" offset=".8737"/>
				<stop stop-color="#333974" stop-opacity=".1872" offset=".9359"/>
				<stop stop-color="#070E56" stop-opacity=".1985" offset=".9924"/>
				<stop stop-color="#000851" stop-opacity=".2" offset="1"/>
			</linearGradient><linearGradient id="SVGID_22_" x1="656.30829" x2="644.57483" y1="-7046.7051" y2="-7053.4795" gradientTransform="translate(0,7645.3281)" gradientUnits="userSpaceOnUse">
				<stop stop-color="#3B4D86" stop-opacity="0" offset=".7598"/>
				<stop stop-color="#3B4D86" offset="1"/>
			</linearGradient><linearGradient id="SVGID_20_" x1="-2320.1506" x2="-2298.7825" y1="-2442.3833" y2="-2442.3833" gradientTransform="matrix(.5 .866 .866 -.5 3864.8667 969.0223)" gradientUnits="userSpaceOnUse">
					<stop stop-color="#E8F2F3" stop-opacity="0" offset=".6232"/>
					<stop stop-color="#E8F2F3" offset=".9975"/>
				</linearGradient><linearGradient id="SVGID_17_" x1="25559.863" x2="25582.072" y1="7525.6333" y2="7525.6333" gradientTransform="matrix(-.5 -.866 -.866 .5 19820.387 19059.336)" gradientUnits="userSpaceOnUse">
					<stop stop-color="#3B4D86" stop-opacity="0" offset=".7598"/>
					<stop stop-color="#3B4D86" offset="1"/>
				</linearGradient><linearGradient id="SVGID_16_" x1="14159.403" x2="14181.604" y1="-12213.59" y2="-12213.59" gradientTransform="matrix(.5 -.866 .866 .5 3738.1646 19059.336)" gradientUnits="userSpaceOnUse">
					<stop stop-color="#47588B" stop-opacity="0" offset=".6232"/>
					<stop stop-color="#47588B" offset="1"/>
				</linearGradient><linearGradient id="SVGID_21_" x1="22940.424" x2="22962.629" y1="11928.341" y2="11928.341" gradientTransform="rotate(180,11803.763,6215.5962)" gradientUnits="userSpaceOnUse">
					<stop stop-color="#3B4D86" stop-opacity="0" offset=".7598"/>
					<stop stop-color="#3B4D86" offset="1"/>
				</linearGradient><linearGradient id="SVGID_12_" x1="14424.986" x2="14447.203" y1="-12585.924" y2="-12585.924" gradientTransform="matrix(.5 -.866 .866 .5 3738.1646 19059.336)" gradientUnits="userSpaceOnUse">
					<stop stop-color="#47588B" stop-opacity="0" offset=".6232"/>
					<stop stop-color="#47588B" offset="1"/>
				</linearGradient><linearGradient id="SVGID_13_" x1="14424.986" x2="14447.202" y1="-12315.251" y2="-12315.251" gradientTransform="matrix(.5 -.866 .866 .5 3738.1646 19059.336)" gradientUnits="userSpaceOnUse">
					<stop stop-color="#47588B" stop-opacity="0" offset=".6232"/>
					<stop stop-color="#47588B" offset="1"/>
				</linearGradient><linearGradient id="SVGID_19_" x1="14703.654" x2="14682.252" y1="-12328.145" y2="-12328.145" gradientTransform="matrix(.5 -.866 .866 .5 3799.0386 19059.336)" gradientUnits="userSpaceOnUse">
					<stop stop-color="#E8F2F3" stop-opacity="0" offset=".6232"/>
					<stop stop-color="#E8F2F3" offset=".9975"/>
				</linearGradient><linearGradient id="SVGID_18_" x1="26134.582" x2="26113.145" y1="7525.6572" y2="7525.6572" gradientTransform="matrix(-.5 -.866 -.866 .5 19820.387 19059.336)" gradientUnits="userSpaceOnUse">
					<stop stop-color="#E8F2F3" stop-opacity="0" offset=".6232"/>
					<stop stop-color="#E8F2F3" offset=".9975"/>
				</linearGradient><linearGradient id="SVGID_5_" x1="883.61353" x2="1262.9164" y1="-4258.9849" y2="-4258.9849" gradientTransform="translate(-883.6135,4806.4336)" gradientUnits="userSpaceOnUse">
						<stop stop-color="#617CC6" offset="0"/>
						<stop stop-color="#91B0D7" offset=".9932"/>
					</linearGradient><linearGradient id="SVGID_8_" x1="1262.9164" x2="1262.9164" y1="-4806.4336" y2="-4368.4746" gradientTransform="translate(-883.6135,4806.4336)" gradientUnits="userSpaceOnUse">
						<stop stop-color="#9AA8D4" offset="0"/>
						<stop stop-color="#A2AFD7" offset=".061"/>
						<stop stop-color="#B6BFDF" offset=".2422"/>
						<stop stop-color="#C2C9E3" offset=".4249"/>
						<stop stop-color="#C6CCE5" offset=".6099"/>
						<stop stop-color="#F2F1F7" offset="1"/>
					</linearGradient></defs>
<path d="m378.21289 129.41602-265.59961 153.30078 2.17383 3.76562 264.51172-152.67187 168.51367 97.27343 2.17383-3.76757-169.59961-97.90039-1.08594 1.88476-1.08789-1.88476zm650.88671 294.98437c-57.99993 0-76.79882 17.80006-76.79882 73.5v148.59961c0 55.89994 18.69889 73.69922 76.79882 73.69922h194.5c58.1 0 76.7012-17.79928 76.7012-73.69922l-0.1016-104.40039h-184.6992v62.40039h107.0996v48.5h-191.0996v-164.5h265.5v-64.09961h-267.9004zm431.5996 0-170 295.59961h212.7012v-67.09961h-94.9004l87.8008-146.80078 118.7988 213.90039h88.3008 42.7988v-157.90039l91.2012 157.90039h58.7988l90.9004-157.90039v157.90039h73.2012l0.1992-295.59961h-73.0996l-120.5996 209.29883-120.8008-209.29883h-72.8008l0.084 243.75-141.584-243.75h-71zm634.9004 0v295.59961h304.9004v-67.09961h-225.6992v-55.30078h130v-62h-130v-49h223v-62.19922h-302.2012zm438.5996 0c-58.2999 0-76.7988 17.80006-76.7988 73.5v148.5c0 55.89994 18.4989 73.59961 76.7988 73.59961h173.8008c58.0999 0 76.9004-17.69967 76.9004-73.59961v-53.90039h-79.5v60.5h-168.7012v-164.40039h168.7012v53.5h79.5v-44.19922c0-55.69994-18.8005-73.5-76.9004-73.5h-173.8008zm282.4004 0v222c0 55.89994 18.7008 73.69922 76.8008 73.69922h178.0996c58.1999 0 76.9004-17.79928 76.9004-73.69922v-222h-79.4004l-0.0996 228.5h-172.9004v-228.5h-79.4004zm366.5996 0v295.59961h230.6016c60.0999 0 90.2988-20.80004 90.2988-62.5v-35.90039c-0.1-25.09998-11.4988-43.70001-32.2988-53.5 19.1-9.09999 29.5996-25.89885 29.5996-47.79883v-34.60156c0-41.89996-22.4004-61.29883-70.4004-61.29883h-247.8008zm350.7012 0v295.59961h305.0996v-67.09961h-225.5996v-55.30078h129.9004v-62h-129.9004v-49h222.9004v-62.19922h-302.4004zm-271.3008 59.40039h142.4004c22 0 23 4.79884 23 13.29883v26.90039c0 8.49999-1 13.40039-23 13.40039h-142.4004v-53.59961zm-0.0996 114h142.5996c21.5 0 24.7012 4.00002 24.7012 18v21c0 14.19999-3.2012 18.09961-24.7012 18.09961h-142.5996v-57.09961z"/><path class="st0" d="m3673.3008 114c-39.6 0-71.8008 26.29964-71.8008 58.59961v113.20117c0 32.49997 32.2008 58.69922 71.8008 58.69922h38.7988c39.5 0 71.9004-26.19925 71.9004-58.69922v-113.20117c0-32.39997-32.4004-58.59961-71.9004-58.59961h-38.7988zm-2660.6016 1.59961v227.09961h43.2012v-177l89 177h42.6992v-227.09961h-43.1992v144.80078l-73.4004-144.80078h-58.3008zm417.1016 0v227.20117h48.6992v-227.20117h-48.6992zm291 0v227.09961h43.0996v-177l89.0996 177h42.9004v-227.09961h-43.2012v144.80078l-73.5996-144.80078h-58.2988zm810 0c-38.8 0.8-70.1016 26.60003-70.1016 58.5v110.20117c0 31.59997 30.5016 57.09844 68.6016 58.39844h100.0996v-36h-95.8008c-15 0-30.2988-9.79962-30.2988-23.59961v-41.09961h126.0996v-36.40039h-126.0996v-30.40039c0-13.69999 15.2988-23.69922 30.2988-23.69922h95.8008v-35.90039h-98.5996zm310.2988 0v227.09961h43.0996v-177l89 177h42.9004v-227.09961h-43.2988v144.80078l-73.5-144.80078h-58.2012zm387 0v227.20117l105.0996-0.10156c39.8 0 71.9004-26.29964 71.9004-58.59961v-109.69922c0-32.49997-32.1004-58.80078-71.9004-58.80078h-105.0996zm-1138.2988 0.09961v36.10156h73v190.89844h46.2988v-190.89844h72.9004v-36.10156h-192.1992zm1585 33.10156h36c14.8 0 30.2988 10.99962 30.2988 25.09961v110.69922c0 13.69999-15.4988 25-30.2988 25h-36c-14.9 0-30.3008-11.30001-30.3008-25v-110.69922c0-14.09999 15.4008-25.09961 30.3008-25.09961zm-403.9004 1.69922h61c14.9 0 30.2988 11.39923 30.2988 25.19922v107.30078c0 14.69999-15.7988 24.90039-30.2988 24.90039h-61v-157.40039z" fill="#c2c3c4"/><path class="st1" d="m548.9 248.1v-18.9l113.7-65.7v18.9z" fill="url(#SVGID_1_)"/><path class="st2" d="m379.3 744.7v-18.9l-249.2-143.9-16.4 9.4z" fill="url(#SVGID_2_)"/><path class="st4" d="m644.9 591.3v-164l-16.3 9.4v145.2z" fill="url(#SVGID_3_)"/><path class="st5" d="m379.3 744.7 265.6-153.4-16.3-9.4-249.3 143.9z" fill="url(#SVGID_4_)"/><path class="st6" d="m203.2 336.3v203.3l176.1 101.7v-203.3zm-89.5-51.7-113.7-65.6v438l379.3 219v-131.4l-265.6-153.3z" fill="url(#SVGID_5_)"/><path class="st7" d="m379.3 150.2v-18.9l-265.6 153.3v306.7l16.4-9.4v-287.8z" fill="url(#SVGID_6_)"/><path class="st8" d="m379.3 641.3v-203.3l379.3-219v437.9l-1.5 1-377.8 218.1v-131.3l265.6-153.4v-164l-89.5 51.6v60.7z" fill="url(#SVGID_7_)"/><path class="st9" d="M 548.9,229.2 662.6,163.6 379.3,0 0,219 113.7,284.6 379.3,131.3 Z M 742.3,209.6 539,326.9 379.3,234.7 203.2,336.3 379.3,438 758.6,219 Z" fill="url(#SVGID_8_)"/><path class="st10" d="m548.9 248.1v-18.9l-169.6-97.9v18.9z" fill="url(#SVGID_9_)"/><path class="st11" d="m379.3 641.3v-203.3l-22.2-12.8v203.3z" enable-background="new" fill="url(#SVGID_10_)" opacity=".7"/><path class="st12" d="m379.3 876v-131.3l-22.2-12.9v131.3z" enable-background="new" fill="url(#SVGID_11_)" opacity=".7"/><path class="st14" d="m0 244.6 113.7 65.7v-25.7l-113.7-65.6z" enable-background="new" fill="url(#SVGID_12_)" opacity=".7"/><path class="st15" d="m203.2 361.9 176.1 101.7v-25.6l-176.1-101.7z" enable-background="new" fill="url(#SVGID_13_)" opacity=".7"/><path class="st16" d="m203.2 336.3 176.1-101.6 15.7 9.1-169.6 105.3z" fill="url(#SVGID_14_)"/><path class="st17" d="m379.3 725.8-249.2-143.9-11.8 6.8 261 147.5z" fill="url(#SVGID_15_)"/><path class="st18" d="m113.7 591.3 88 61 177.6 118v-25.6z" enable-background="new" fill="url(#SVGID_16_)" opacity=".7"/><path class="st19" d="m493.2 678.9 151.7-87.6v25.6l-154.6 67.4-111 60.4z" enable-background="new" fill="url(#SVGID_17_)" opacity=".7"/><path class="st20" d="m379.3 131.4-265.6 153.2-21.3-12.3 286.9-165.5z" enable-background="new" fill="url(#SVGID_18_)" opacity=".7"/><path class="st21" d="m379.3 131.4 169.6 97.8 21.3-12.3-190.9-110.1z" enable-background="new" fill="url(#SVGID_19_)" opacity=".7"/><path class="st22" d="m527.5 216.9 113.7-65.7 21.4 12.3-113.7 65.7z" enable-background="new" fill="url(#SVGID_20_)" opacity=".7"/><path class="st23" d="m667.1 578.5v-164.1l-22.2 12.9v164z" enable-background="new" fill="url(#SVGID_21_)" opacity=".7"/><path class="st24" d="m644.9 618.4v-27.1l22.2-12.8z" enable-background="new" fill="url(#SVGID_22_)" opacity=".7"/>
</svg>
