<?xml version="1.0" encoding="UTF-8" ?>
<!DOCTYPE svg PUBLIC "-//W3C//DTD SVG 1.1//EN" "http://www.w3.org/Graphics/SVG/1.1/DTD/svg11.dtd">
<svg width="470pt" height="100pt" viewBox="0 0 470 100" version="1.1" xmlns="http://www.w3.org/2000/svg">
<path fill="#ffffff" d=" M 0.00 0.00 L 470.00 0.00 L 470.00 100.00 L 0.00 100.00 L 0.00 0.00 Z" />
<path fill="#010000" d=" M 16.49 4.63 C 19.80 3.46 23.28 2.79 26.79 3.29 C 29.76 3.79 33.05 3.68 35.50 5.68 C 39.51 6.71 41.21 10.93 42.57 14.41 C 43.75 10.89 45.56 6.69 49.53 5.69 C 52.20 3.55 55.80 3.75 59.01 3.21 C 63.29 2.62 67.26 4.48 71.38 5.25 C 72.89 5.92 74.50 6.38 75.92 7.24 C 77.31 14.28 74.20 21.32 69.61 26.53 C 67.64 27.94 65.93 29.82 63.50 30.42 C 67.31 32.74 70.55 36.46 71.08 41.02 C 71.52 42.78 71.10 45.06 72.85 46.19 C 76.97 49.36 79.42 54.68 78.54 59.88 C 78.09 64.34 74.15 67.50 73.97 72.05 C 73.72 77.66 71.04 83.29 66.03 86.12 C 62.06 87.99 58.42 90.44 54.50 92.40 C 51.09 95.56 46.86 98.35 41.99 98.04 C 37.45 98.18 33.58 95.54 30.25 92.76 C 25.43 90.35 20.79 87.55 16.37 84.47 C 10.42 79.54 11.45 70.86 7.05 64.96 C 3.20 58.42 6.05 49.99 11.87 45.65 C 12.43 39.72 14.48 32.89 20.60 30.52 C 18.83 29.23 17.18 27.81 15.41 26.52 C 10.84 21.32 7.73 14.29 9.09 7.26 C 10.10 6.53 11.31 6.19 12.45 5.72 C 13.77 5.24 15.13 4.94 16.49 4.63 Z" />
<path fill="#649c1f" d=" M 18.85 7.68 C 21.10 6.82 23.53 5.60 25.89 6.86 L 26.35 5.73 C 27.56 6.30 28.82 6.80 30.19 6.66 C 30.57 6.97 31.35 7.60 31.73 7.91 C 32.23 7.73 33.22 7.35 33.72 7.17 C 34.25 8.04 34.78 8.92 35.30 9.79 C 35.65 9.47 36.35 8.83 36.70 8.51 C 38.50 11.33 40.82 14.37 40.42 17.92 C 40.23 19.68 38.65 20.71 37.56 21.92 C 32.16 17.63 26.03 14.26 19.50 12.04 C 25.28 15.48 31.30 18.68 36.08 23.52 C 34.42 27.20 30.71 29.23 26.77 29.42 C 24.66 28.80 22.66 27.79 20.41 27.67 C 20.61 27.30 21.01 26.56 21.21 26.19 C 20.58 26.06 19.33 25.81 18.71 25.68 C 17.80 24.52 16.80 23.41 15.68 22.45 C 15.62 22.09 15.49 21.38 15.43 21.02 C 14.34 20.04 13.64 18.81 13.48 17.34 C 13.11 16.94 12.35 16.14 11.98 15.74 C 12.34 15.44 13.08 14.83 13.44 14.53 C 12.51 13.77 11.58 13.00 10.65 12.23 C 11.27 12.15 12.53 12.01 13.16 11.94 C 12.55 10.85 11.94 9.75 11.33 8.65 C 12.32 8.71 14.29 8.82 15.28 8.88 C 15.26 8.39 15.22 7.40 15.19 6.91 C 16.41 7.17 17.63 7.43 18.85 7.68 Z" />
<path fill="#649c1f" d=" M 55.08 6.87 C 56.32 6.68 57.51 6.27 58.66 5.77 L 59.12 6.82 C 61.33 6.11 63.66 6.69 65.92 6.35 L 65.31 7.97 C 66.65 7.68 67.97 7.30 69.31 7.02 C 69.86 9.15 71.95 8.76 73.65 8.83 C 73.05 9.86 72.45 10.90 71.86 11.95 C 72.48 12.01 73.73 12.15 74.36 12.21 C 73.43 13.01 72.49 13.81 71.56 14.60 C 71.90 14.85 72.56 15.34 72.90 15.59 C 72.03 16.73 71.27 17.95 71.17 19.42 C 70.73 19.80 69.85 20.56 69.41 20.94 C 69.41 21.31 69.40 22.07 69.39 22.45 C 68.22 23.39 67.23 24.52 66.32 25.71 C 65.68 25.82 64.41 26.06 63.78 26.18 C 64.00 26.62 64.44 27.49 64.66 27.93 C 63.69 27.94 61.76 27.96 60.79 27.97 C 60.44 28.41 59.74 29.29 59.40 29.73 C 55.21 29.16 50.69 27.79 48.95 23.52 C 53.73 18.71 59.69 15.44 65.52 12.09 C 58.95 14.20 52.88 17.68 47.46 21.91 C 42.23 18.60 45.41 12.25 48.32 8.50 C 48.66 8.82 49.33 9.45 49.67 9.76 C 50.18 9.00 50.69 8.25 51.21 7.49 C 52.55 7.66 53.86 7.47 55.08 6.87 Z" />
<path fill="#010000" d=" M 257.31 19.82 C 263.12 17.75 269.73 19.31 275.15 21.95 C 278.26 23.55 276.99 27.60 276.54 30.31 C 276.04 30.10 275.06 29.68 274.57 29.47 C 274.53 29.46 274.47 29.43 274.44 29.42 C 269.87 26.91 264.81 25.24 259.54 26.06 C 255.97 27.32 253.13 30.07 252.67 33.97 C 253.08 39.02 257.06 42.54 261.45 44.43 C 261.50 44.45 261.59 44.50 261.63 44.52 C 267.80 47.56 275.05 50.03 278.68 56.33 C 282.60 63.86 280.11 74.32 272.65 78.70 C 263.81 83.97 251.98 82.89 243.66 77.10 C 243.43 74.75 243.13 72.33 243.86 70.04 C 246.34 69.96 248.19 72.02 250.44 72.79 C 255.95 75.43 262.96 76.35 268.29 72.79 C 272.84 69.67 273.63 62.30 269.51 58.47 C 263.55 53.31 255.11 52.05 249.47 46.42 C 243.63 40.85 243.15 30.63 248.59 24.63 C 250.36 22.46 252.96 21.30 255.41 20.08 C 255.88 20.02 256.83 19.89 257.31 19.82 Z" />
<path fill="#010000" d=" M 106.26 22.23 C 107.67 18.25 112.82 20.63 115.97 19.98 C 116.67 21.23 117.39 22.46 117.89 23.81 C 124.29 41.46 130.58 59.16 137.08 76.78 C 137.69 78.13 137.63 79.61 137.51 81.04 C 135.03 81.01 132.54 81.00 130.06 80.93 C 127.74 75.77 126.07 70.34 124.19 65.00 C 115.73 65.00 107.27 65.00 98.80 65.00 C 96.94 70.37 95.31 75.86 92.91 81.03 C 90.50 81.01 88.10 80.99 85.71 80.88 C 85.73 78.77 86.38 76.76 87.17 74.83 C 93.62 57.33 99.81 39.73 106.26 22.23 Z" />
<path fill="#010000" d=" M 148.25 21.74 C 148.89 21.15 149.53 20.56 150.17 19.98 C 159.61 20.64 170.12 17.96 178.52 23.54 C 189.58 30.90 187.27 50.11 175.42 55.52 C 169.46 58.65 162.67 58.01 156.19 58.00 C 156.12 65.33 156.33 72.67 156.10 80.00 C 154.65 81.88 151.83 80.75 149.80 80.95 C 148.35 81.01 148.15 79.12 148.25 78.06 C 148.27 59.29 148.28 40.51 148.25 21.74 Z" />
<path fill="#010000" d=" M 198.29 22.83 C 198.06 21.52 199.39 20.84 200.04 19.94 C 209.35 20.68 219.60 18.02 228.01 23.21 C 239.13 29.97 237.69 48.57 226.74 54.80 C 225.37 55.58 223.91 56.16 222.48 56.81 C 217.20 58.53 211.64 57.92 206.19 58.00 C 206.12 65.33 206.34 72.66 206.10 79.98 C 204.99 81.75 202.51 80.79 200.81 81.01 C 199.55 81.31 198.16 80.48 198.29 79.10 C 198.25 60.34 198.24 41.58 198.29 22.83 Z" />
<path fill="#ffffff" d=" M 156.19 27.00 C 161.54 27.35 167.36 25.84 172.23 28.78 C 179.85 33.24 178.58 46.55 170.44 49.77 C 166.00 51.95 160.93 50.67 156.19 50.99 C 156.19 43.00 156.19 35.00 156.19 27.00 Z" />
<path fill="#ffffff" d=" M 206.19 27.01 C 211.54 27.35 217.37 25.85 222.23 28.78 C 229.85 33.25 228.58 46.55 220.44 49.77 C 216.00 51.96 210.93 50.67 206.19 50.99 C 206.19 43.00 206.19 35.00 206.19 27.01 Z" />
<path fill="#ffffff" d=" M 111.17 27.92 C 115.22 38.11 118.28 48.66 122.02 58.97 C 114.92 59.01 107.83 59.04 100.74 58.94 C 104.25 48.62 108.07 38.39 111.17 27.92 Z" />
<path fill="#649c1f" d=" M 274.44 29.42 C 274.47 29.43 274.53 29.46 274.57 29.47 C 274.53 29.46 274.47 29.43 274.44 29.42 Z" />
<path fill="#ab0033" d=" M 38.31 30.30 C 43.01 28.61 48.83 30.20 51.72 34.34 C 53.18 36.31 51.46 38.71 49.59 39.58 C 45.49 41.64 40.42 41.57 36.24 39.78 C 34.37 38.97 32.25 37.30 32.67 35.00 C 33.59 32.59 36.04 31.22 38.31 30.30 Z" />
<path fill="#ab0033" d=" M 20.14 34.13 C 23.18 31.60 27.32 31.56 31.05 31.89 C 27.62 37.99 21.65 42.63 15.23 45.27 C 15.27 41.09 16.58 36.64 20.14 34.13 Z" />
<path fill="#ab0033" d=" M 52.58 32.00 C 56.41 31.53 60.67 31.57 63.76 34.23 C 67.34 36.83 68.61 41.38 68.46 45.63 C 62.12 42.59 56.38 37.95 52.58 32.00 Z" />
<path fill="#ab0033" d=" M 28.29 42.43 C 33.97 40.05 40.67 44.88 40.39 50.98 C 41.04 59.17 31.28 67.36 23.73 62.39 C 16.30 57.19 20.31 44.82 28.29 42.43 Z" />
<path fill="#ab0033" d=" M 49.34 42.30 C 56.11 39.37 63.52 45.44 64.51 52.16 C 65.60 56.82 62.97 62.48 57.95 63.33 C 50.92 64.51 44.57 57.75 44.58 50.96 C 44.34 47.48 46.12 43.81 49.34 42.30 Z" />
<path fill="#649c1f" d=" M 261.45 44.43 C 261.50 44.45 261.59 44.50 261.63 44.52 C 261.59 44.50 261.50 44.45 261.45 44.43 Z" />
<path fill="#ab0033" d=" M 8.39 57.00 C 8.61 52.82 11.63 49.54 15.05 47.48 C 17.68 53.75 16.91 62.02 12.19 67.12 C 9.84 64.31 7.81 60.83 8.39 57.00 Z" />
<path fill="#ab0033" d=" M 71.18 66.75 C 67.81 60.90 66.20 53.42 68.69 46.96 C 71.09 48.61 73.66 50.42 74.73 53.27 C 76.82 57.91 75.32 63.77 71.18 66.75 Z" />
<path fill="#ab0033" d=" M 38.48 62.63 C 45.23 59.48 54.59 65.26 53.24 73.02 C 52.14 81.85 39.36 84.80 34.03 77.98 C 29.54 73.08 32.31 64.58 38.48 62.63 Z" />
<path fill="#ab0033" d=" M 63.37 66.49 C 65.51 65.19 69.16 65.19 69.97 68.06 C 73.26 76.00 66.55 85.66 57.98 85.38 C 55.09 85.66 53.79 82.37 54.20 79.98 C 54.92 74.42 58.57 69.31 63.37 66.49 Z" />
<path fill="#ab0033" d=" M 16.31 67.25 C 19.15 66.42 22.03 67.91 24.11 69.76 C 27.32 72.64 29.90 76.61 30.11 81.01 C 30.26 82.96 29.02 85.03 27.01 85.40 C 20.64 85.74 14.76 80.35 14.16 74.06 C 13.93 71.69 13.96 68.61 16.31 67.25 Z" />
<path fill="#ab0033" d=" M 37.38 85.49 C 42.22 84.59 47.74 84.42 52.06 87.13 C 54.03 88.60 51.79 90.62 50.62 91.75 C 45.31 96.91 35.28 95.69 31.78 89.04 C 32.68 86.77 35.25 86.05 37.38 85.49 Z" />
</svg>
