<?xml version="1.0" encoding="UTF-8" standalone="no"?>
<!-- Created with Inkscape (http://www.inkscape.org/) -->

<svg
   xmlns:dc="http://purl.org/dc/elements/1.1/"
   xmlns:cc="http://creativecommons.org/ns#"
   xmlns:rdf="http://www.w3.org/1999/02/22-rdf-syntax-ns#"
   xmlns:svg="http://www.w3.org/2000/svg"
   xmlns="http://www.w3.org/2000/svg"
   xmlns:sodipodi="http://sodipodi.sourceforge.net/DTD/sodipodi-0.dtd"
   xmlns:inkscape="http://www.inkscape.org/namespaces/inkscape"
   width="795.40814"
   height="224.30035"
   id="svg4323"
   version="1.1"
   inkscape:version="0.48.4 r9939"
   sodipodi:docname="Wii_U_logo.svg">
  <defs
     id="defs4325" />
  <sodipodi:namedview
     id="base"
     pagecolor="#ffffff"
     bordercolor="#666666"
     borderopacity="1.0"
     inkscape:pageopacity="0.0"
     inkscape:pageshadow="2"
     inkscape:zoom="1"
     inkscape:cx="151.98977"
     inkscape:cy="14.130097"
     inkscape:document-units="px"
     inkscape:current-layer="layer1"
     showgrid="false"
     fit-margin-top="0"
     fit-margin-left="0"
     fit-margin-right="0"
     fit-margin-bottom="0"
     inkscape:window-width="1680"
     inkscape:window-height="987"
     inkscape:window-x="-8"
     inkscape:window-y="-8"
     inkscape:window-maximized="1" />
  <metadata
     id="metadata4328">
    <rdf:RDF>
      <cc:Work
         rdf:about="">
        <dc:format>image/svg+xml</dc:format>
        <dc:type
           rdf:resource="http://purl.org/dc/dcmitype/StillImage" />
        <dc:title />
      </cc:Work>
    </rdf:RDF>
  </metadata>
  <g
     inkscape:label="Layer 1"
     inkscape:groupmode="layer"
     id="layer1"
     transform="translate(-67.010229,-322.19192)">
    <g
       transform="matrix(2.082621,0,0,-2.082621,843.28322,322.19297)"
       id="g3923">
      <path
         id="path3925"
         style="fill:#9f9fa1;fill-opacity:1;fill-rule:nonzero;stroke:none"
         d="M 0,0 2.283,0 4.575,-7.594 6.889,0 l 2.299,0 0,-9.489 -1.503,0 0,7.847 -2.354,-7.847 -1.558,0 -2.324,7.847 0,-7.847 L 0,-9.489 0,0 z m -8.576,0 7.442,0 0,-1.4 -2.924,0 0,-8.089 -1.582,0 0,8.089 -2.936,0 0,1.4 z"
         inkscape:connector-curvature="0" />
    </g>
    <path
       id="path3937"
       style="fill:#9f9fa1;fill-opacity:1;fill-rule:nonzero;stroke:none"
       d="m 323.19135,334.47105 -39.62186,155.24273 c 0,0 -30.25007,-116.53513 -35.17339,-133.06281 -4.91915,-16.54434 -15.07817,-23.8002 -29.44617,-23.8002 -14.36801,0 -24.53328,7.25586 -29.43993,23.8002 -4.93998,16.52768 -35.20671,133.06281 -35.20671,133.06281 l -39.60312,-155.24273 -47.689941,0 c 0,0 45.786421,165.62877 52.007211,184.79513 4.86917,14.98029 16.32358,27.2261 33.34693,27.2261 19.45168,0 28.54857,-14.18473 32.76379,-27.2261 4.159,-12.93725 33.82177,-122.35815 33.82177,-122.35815 0,0 29.65235,109.4209 33.83217,122.35815 4.17566,13.04137 13.29962,27.2261 32.74089,27.2261 17.01085,0 28.48609,-12.24581 33.34484,-27.2261 6.21454,-19.16636 52.00721,-184.79513 52.00721,-184.79513 l -47.68369,0 z m 163.56072,210.42594 45.14914,0 0,-146.11252 -45.14914,0 0,146.11252 z m -4.36101,-197.16381 c 0,14.07436 11.8522,25.49961 26.43679,25.49961 15.16982,0 27.06991,-11.20241 27.06991,-25.49961 0,-14.33468 -11.90009,-25.54126 -27.06991,-25.54126 -14.58459,0 -26.43679,11.45442 -26.43679,25.54126 m -87.39718,197.16381 45.12623,0 0,-146.11252 -45.12623,0 0,146.11252 z m 22.04454,-222.70507 c 15.16981,0 27.06991,11.20658 27.06991,25.54126 0,14.2972 -11.9001,25.49961 -27.06991,25.49961 -14.59917,0 -26.4597,-11.42525 -26.4597,-25.49961 0,-14.08684 11.86053,-25.54126 26.4597,-25.54126"
       inkscape:connector-curvature="0" />
    <g
       transform="matrix(2.082621,0,0,-2.082621,783.04174,322.19297)"
       id="g3939"
       style="fill:#0096c8;fill-opacity:1">
      <path
         id="path3941"
         style="fill:#0096c8;fill-opacity:1;fill-rule:nonzero;stroke:none"
         d="m 0,0 -12.165,0 0,-37.715 c 0,-18.202 -10.501,-28.023 -27.419,-28.023 -16.91,0 -27.416,9.821 -27.416,28.023 L -67,0 -79.164,0 c -8.886,0 -14.263,-5.376 -14.263,-14.264 l 0.006,-46.123 c 0,-13.376 7.012,-20.385 20.384,-20.385 l 66.909,0 c 13.378,0 20.39,7.009 20.39,20.385 l 0,46.123 C 14.262,-5.376 8.885,0 0,0 m -39.584,-53.673 c 8.11,0 14.227,6.32 14.227,16.256 l 0,37.417 -28.451,0 0,-37.417 c 0,-9.936 6.117,-16.256 14.224,-16.256"
         inkscape:connector-curvature="0" />
    </g>
  </g>
</svg>
