<svg enable-background="new 0 0 3839 703.7" version="1.1" viewBox="0 0 3839 703.7" xml:space="preserve" xmlns="http://www.w3.org/2000/svg">
<path fill="#17B3E8" d="m1713.3008 38.300781-76 429.099609-4.5 25c-20.6 116.49988 58.6989 211.19922 175.2988 211.19922 53.5 0 106.0997-20.10003 149.0996-53 31.5 32.89997 76.9005 53 130.4004 53 116.4999 0 229.2008-94.69895 249.8008-211.29883l3.6992-21.30078 75.9004-432.699219h-145.9004l-79.7988 454.199219c-6.4 36.69996-41.5016 66.5-78.1016 66.5-36.6999 0-61.1988-29.70004-54.7988-66.5l79.6992-454.199219h-72.9004-72.8984l-80.5 454.199219c-6.4 36.69996-41.5016 66.5-78.1016 66.5-36.5999 0-61.1988-29.70004-54.7988-66.5l80.4004-454.199219h-146zm981.6992 151.298829c-142.3999 0-268.6992 116.10053-297.1992 257.90039-28.1 140.19986 37.9993 237.49963 163.6992 255.09961 13.5 1.9 72.3996 2.59997 103.5996-25l23.7012-133.59961c-18.3 9.69999-38.4004 15.19922-58.9004 15.19922-61.5999 0-98.4-49.90006-87.5-111.5s66.4997-118.5 128.0996-118.5c13.4 0 25.6996 3.1 36.5996 8.5 31.4 15.39998 47.9008 50.6016 41.8008 85.10156l-14.8008 83.5 5.5996-36.90039-38.5996 222.5h146l27-152.30078 23.5-132.79883c10.9-61.39994-9.8004-124.90121-56.9004-165.70117-37.3999-32.29997-87.5993-51.5-145.6992-51.5zm311.1992 0-88 497.09961h146.1016l44.2988-249.79883c7.9-44.59995 46.6004-77.1 91.9004-77l126.4004 0.09961 22.4004-127.09961-131.7012-0.09961-12.0996 1c-26.1 2.2-50.2992 14.79924-67.1992 34.69922l13.8984-78.90039h-146zm630.9004 1.09961c-162.6998 0-279.5004 111.10171-302.4004 255.10156-23 144.09986 74.9002 255.1 219 257.5 86.1999 1.5 169.4009-36.30084 227.3008-97.80078l-90-76.5c-30.3 37.09996-74.8008 61.30078-123.3008 61.30078-65.0999 0-104.8984-64.90008-87.8984-144 24.4-112.49989 73.5993-146.10156 138.6992-146.10156 51.1999 0 76.4992 34.40084 77.1992 91.80078l-158.6992-0.19922-18.4004 104.19922 172.8008 0.19922v0.10156h137.0996c2.2-12.59999 4.7008-28.60079 6.8008-41.80078 22.8-143.89986-59.1013-263.80078-198.2012-263.80078z"/><path fill="#A19FA3" d="m1093.5996 0c-45.4999 0-82.5996 35.700825-82.5996 79.800781 0 43.899959 37.0997 79.699219 82.5996 79.699219 47.4 0 84.5-34.99926 84.5-79.699219-0.1-44.799955-37.3-79.800781-84.5-79.800781zm286.7012 0c-45.6 0-82.6016 35.700825-82.6016 79.800781 0 43.899959 37.1016 79.699219 82.6016 79.699219 47.3999 0 84.5996-34.99926 84.5996-79.699219 0-44.799955-37.1997-79.800781-84.5996-79.800781zm-905.8008 33.199219c-44.79996 0-76.60041 22.600442-91.90039 74.400391-15.39999 51.59995-109.90039 415.5-109.90039 415.5l-123.69922-484.798829h-149s143.00041 517.199669 162.40039 577.099609c15.19999 46.79995 50.99927 85 104.19922 85 60.79994 0 89.10118-44.30004 102.20117-85 13.09999-40.39996 105.69922-382 105.69922-382s92.49962 341.59965 105.59961 382.09961c13.09999 40.69996 41.60084 85 102.30078 85 53.09995 0 88.89923-38.20005 104.19922-85 19.49998-59.89994 162.80078-577.099609 162.80078-577.099609h-149.09961v-0.09961l-124 484.798829s-94.5004-363.90005-109.90039-415.5c-15.39998-51.699949-47.10043-74.400391-91.90039-74.400391zm550.3008 206.101561v456.19922h141v-456.19922h-141zm286.5 0v456.19922h141v-456.19922h-141z"/>
</svg>
