<?xml version="1.0" encoding="utf-8"?>
<!-- Generator: Adobe Illustrator 25.4.1, SVG Export Plug-In . SVG Version: 6.00 Build 0)  -->
<svg version="1.1" id="Layer_1" xmlns="http://www.w3.org/2000/svg" xmlns:xlink="http://www.w3.org/1999/xlink" x="0px" y="0px"
	 viewBox="0 0 3839 703.7" style="enable-background:new 0 0 3839 703.7;" xml:space="preserve">
<style type="text/css">
	.st0{fill:#17B3E8;}
	.st1{fill:#22B2E9;}
	.st2{fill:#A19FA3;}
	.st3{fill:#FFFFFF;}
</style>
<g>
	<path class="st0" d="M3349.3,232.9l-131.7-0.1l-12.1,1c-26.1,2.2-50.3,14.8-67.2,34.7l0,0l13.9-78.9h-146l-88,497.1h146.1
		l44.3-249.8c7.9-44.6,46.6-77.1,91.9-77l126.4,0.1L3349.3,232.9z"/>
	<path class="st0" d="M2271.1,38.3l-79.8,454.2c-6.4,36.7-41.5,66.5-78.1,66.5c-36.7,0-61.2-29.7-54.8-66.5l79.7-454.2h-72.9h-72.9
		l-80.5,454.2c-6.4,36.7-41.5,66.5-78.1,66.5s-61.2-29.7-54.8-66.5l80.4-454.2h-146l-76,429.1l-4.5,25
		c-20.6,116.5,58.7,211.2,175.3,211.2c53.5,0,106.1-20.1,149.1-53c31.5,32.9,76.9,53,130.4,53c116.5,0,229.2-94.7,249.8-211.3
		l3.7-21.3l75.9-432.7C2416.9,38.3,2271.1,38.3,2271.1,38.3z M1767.1,492.3v0.1V492.3z M2203.3,492.2v0.1
		C2203.3,492.3,2203.3,492.3,2203.3,492.2z"/>
	<path class="st0" d="M2734.1,506.3l14.8-83.5c6.1-34.5-10.4-69.7-41.8-85.1c-10.9-5.4-23.2-8.5-36.6-8.5
		c-61.6,0-117.2,56.9-128.1,118.5c-10.9,61.6,25.9,111.5,87.5,111.5c20.5,0,40.6-5.5,58.9-15.2l-23.7,133.6
		c-31.2,27.6-90.1,26.9-103.6,25c-125.7-17.6-191.8-114.9-163.7-255.1c28.5-141.8,154.8-257.9,297.2-257.9
		c58.1,0,108.3,19.2,145.7,51.5c47.1,40.8,67.8,104.3,56.9,165.7l-23.5,132.8l0,0l-27,152.3h-146l38.6-222.5"/>
	<g>
		<path class="st0" d="M3637.1,190.7c-162.7,0-279.5,111.1-302.4,255.1c-23,144.1,74.9,255.1,219,257.5
			c86.2,1.5,169.4-36.3,227.3-97.8L3691,529c-30.3,37.1-74.8,61.3-123.3,61.3c-65.1,0-104.9-64.9-87.9-144
			c24.4-112.5,73.6-146.1,138.7-146.1c51.2,0,76.5,34.4,77.2,91.8l-158.7-0.2l-18.4,104.2l172.8,0.2v0.1h137.1
			c2.2-12.6,4.7-28.6,6.8-41.8C3858.1,310.6,3776.2,190.7,3637.1,190.7z"/>
	</g>
	<g>
		<path class="st2" d="M1011,79.8c0,43.9,37.1,79.7,82.6,79.7c47.4,0,84.5-35,84.5-79.7C1178,35,1140.8,0,1093.6,0
			C1048.1,0,1011,35.7,1011,79.8z"/>
		<path class="st2" d="M1024.8,239.3c0,7.1,0,449.1,0,456.2c6.8,0,134.2,0,141,0c0-7.1,0-449.1,0-456.2
			C1159,239.3,1031.4,239.3,1024.8,239.3z"/>
		<path class="st2" d="M1297.7,79.8c0,43.9,37.1,79.7,82.6,79.7c47.4,0,84.6-35,84.6-79.7c0-44.8-37.2-79.8-84.6-79.8
			C1334.7,0,1297.7,35.7,1297.7,79.8z"/>
		<path class="st2" d="M1311.3,239.3c0,7.1,0,449.1,0,456.2c6.8,0,134.3,0,141,0c0-7.1,0-449.1,0-456.2
			C1445.7,239.3,1318.1,239.3,1311.3,239.3z"/>
		<path class="st2" d="M800.3,38.3L676.3,523.1c0,0-94.5-363.9-109.9-415.5c-15.4-51.7-47.1-74.4-91.9-74.4s-76.6,22.6-91.9,74.4
			c-15.4,51.6-109.9,415.5-109.9,415.5L149,38.3H0c0,0,143,517.2,162.4,577.1c15.2,46.8,51,85,104.2,85c60.8,0,89.1-44.3,102.2-85
			c13.1-40.4,105.7-382,105.7-382S567,575,580.1,615.5c13.1,40.7,41.6,85,102.3,85c53.1,0,88.9-38.2,104.2-85
			c19.5-59.9,162.8-577.1,162.8-577.1H800.3z"/>
	</g>
</g>
</svg>
