<svg enable-background="new 0 0 3840 502.8" version="1.1" viewBox="0 0 3840 502.8" xml:space="preserve" xmlns="http://www.w3.org/2000/svg">
<path fill="#AD0E0E" d="m2793.4004 0c-75.9923 0-142.2163 26.34856-177.0723 65.339844l24.4727-56.2402346h-428.7012v154.4003906h198.9004l-159.1992 328.90039h178.6992l159.8242-367.29883c-0.039 1.03319-0.125 2.05856-0.125 3.09766 0 47.29995 40.6005 88.40119 100.9004 110.70117-66.3999 23.79998-111.5 70.10044-111.5 123.40039 0 77.59992 95.7013 140.5 213.7012 140.5s213.6992-62.90008 213.6992-140.5c0.0032-1.69663-0.1698-3.36478-0.2578-5.04687 27.9537 81.77631 91.2934 145.54687 195.6582 145.54687 145.7178 0 211.499-124.27666 212.5488-248.38086 1.0498 124.10421 66.833 248.38086 212.5508 248.38086 146.8999 0 212.5-126.30051 212.5-251.40039 0-64.69993-17.7-125.00083-50-169.800781-38.2-53.399946-94.4997-81.599609-162.5996-81.599609s-124.3997 28.199663-162.5996 81.599609c-31.7352 44.251911-49.3506 103.472681-49.8535 167.015621-0.598-63.64018-18.2125-122.86134-50.0469-167.015621-38.3-53.399946-94.4997-81.599609-162.5996-81.599609-68.1 0-124.4016 28.199663-162.6016 81.599609-32.1999 44.899951-49.8984 105.200851-49.8984 169.800781 0 22.6085 2.1793 45.24539 6.5625 67.17969-17.0276-34.18924-53.4289-62.64203-100.7637-79.67969 60.2999-22.19998 100.9004-63.40122 100.9004-110.70117 0-70.79993-90.8997-128.19922-203.0996-128.19922zm-1392.8692 8.0488281c-18.6233-0.3196041-37.3875 8.7129059-48.0312 24.1503909-8.2 10.999989-9.9008 25.001184-14.3008 37.701172-40.8999 140.799859-81.8985 281.500529-122.3984 422.400389h75.0996c11.6-40.59996 23.5992-81.0016 35.1992-121.60156 48.7-0.1 97.3004 0 145.9004 0 11.9 40.49996 23.4992 81.1016 35.1992 121.60156 25.3-0.1 50.5012 0.09844 75.7012-0.10156-42.7-146.69985-85.3997-293.39937-128.0996-440.19922-5.4-19.89998-21-37.499223-41.5-42.1992188-4.1813-1.1062488-8.4718-1.6781983-12.7696-1.7519531zm-534.23432 0.2050781c-16.88729 0.1417235-33.8215 7.3457168-44.39649 20.8457028-10.59999 11.899988-12.40079 28.300406-17.30078 42.900391-40.69996 140.09986-81.40043 280.20092-121.90039 420.30078 25.09997 0 50.2012-0.1 75.20117 0 11.69999-40.49996 23.5004-81.1016 35.40039-121.60156 48.69995 0 97.39966-0.1 146.09961 0 11.69999 40.49996 23.29923 81.1016 35.19922 121.60156h75.59959c-42.5999-146.79985-85.49924-293.60015-128.1992-440.499999-3.4-11.799988-10.0004-22.80118-19.40039-30.701172-10.06249-8.793741-23.16818-12.9559321-36.30273-12.8457028zm-651.29688 0.8457032c0 14.2999856 0.10039 28.5007956-0.09961 42.8007816-1 42.099958-3.6004 84.198869-9.90039 125.798829-4.99999 32.79997-12.39923 65.4012-26.19922 95.70117-11.69999 26.29997-27.10002 51.10002-46.5 72.5-18.79998 20.69998-41.100805 38.3004-65.80078 51.40039-20.799979 10.89999-43.199633 19.19922-66.59960938 22.69922v72.19922c19.39998038-2.7 38.50001838-7.60001 57.00000038-14 32.699967-11.29999 63.800419-27.99846 89.900389-50.89844 29.19997-24.69997 55.09963-54.10042 71.59961-88.90039 10.09999-21.59998 18.29922-44.30041 22.19922-67.90039 5.69999-34.19997 7.9-68.80043 9.5-103.40039 0.9-23.99998 1.6-47.90042 1.5-71.900391 0-28.699972 0.1-57.399638 0-86.0996096h-36.59961zm118.80078 0c-22.39998 0.0999999-44.90041-3.906e-4 -67.40039 0.0996094 0.1 109.6998912 0 219.4001112 0 329.0000012 0.1 51.39995-0.20039 102.70161 0.09961 154.10156 22.39998-0.2 44.9008-0.10156 67.30078-0.10156v-483.0996106zm15 0c0 26.3999736-0.00156 52.8008076-0.10156 79.3007816-0.3 46.599949 1.3 93.298879 5.5 139.798829 2.2 21.49998 4.60118 43.10002 10.20117 64 6.09999 20.79998 13.89923 41.20158 24.69922 60.10156 13.79999 24.19998 32.10002 45.70002 52.5 64.5 12.39999 11.49999 25.30001 22.40001 39.5 31.5 19.49998 12.59999 40.60002 22.49962 62.5 30.09961 18.39998 6.19999 37.20002 11.19883 56.5 13.79883v-72.19922c-9.79999-1.4-19.5004-3.80078-28.90039-6.80078-33.69997-10.79999-64.80003-29.59964-90.5-54.09961-26.89997-25.59998-47.49884-57.40003-61.79883-91.5-15.09998-35.29997-21.79961-73.50043-26.59961-111.40039-5.79999-48.79995-7.50156-97.99966-7.10156-147.0996106h-36.39844zm645 0v73.7011716c33.59992 0 67.09922-0.1 100.69922 0v409.499999h72.0996v-409.499999h100.5996v-73.7011716h-273.39842zm690.89842 0c-7.3-0.1999998-14.6996 0.6000024-21.5996 2.9999996-23.6 7.499993-41.1988 30.901197-41.2988 55.701172 0.2 141.599859-4e-4 283.099749 0.0996 424.599609h72.5996c0-131.49987-0.1-262.90052 0-394.40039-0.1-8.599991 7.7992-15.899219 16.1992-15.699219 18.6-0.2 37.2008-0.001562 55.8008-0.101562 27-0.899999 52.3992 19.600811 58.1992 45.800781 5 20.19998 5.5016 42.9008-5.3984 61.30078-14.3 24.49998-40.0004 40.10001-65.9004 50-13.6 5.3-25.8004 15.50002-30.9004 29.5-6.6 18.19998-3.5992 39.29885 7.3008 55.29883 37.0999 55.99994 73.9988 112.30084 111.2988 168.30078 28.5-0.1 56.9004 0 85.4004 0-38.9-58.39994-78.5993-116.30123-116.6992-175.20117-4-8.19999-3.6004-19.69962 4.0996-25.59961 14.1-10.39999 30.4992-17.59884 43.6992-29.29883 24.9-21.59998 38.5996-54.00003 41.0996-86.5 3.7-30.99997 2.2012-63.9012-12.2988-92.201171-20.9-43.599956-67.1001-73.6000005-115.5-74.4999996-28.7 0-57.5012 0.0999999-86.2012 0zm279.8008 0c0 161.0998406 4e-4 322.1013306-0.0996 483.2011706 25.5 0 51.0004-0.1 76.4004 0 0.2-160.99984 0.0996-322.10133 0.0996-483.2011706h-76.4004zm828.9004 94.7011706c22.9 0 41.5 18.60002 41.5 41.5s-18.6 41.5-41.5 41.5-41.5-18.60002-41.5-41.5 18.6-41.5 41.5-41.5zm-1394 14.89844c17.4 61.09994 35.2988 122.00162 52.7988 183.10156h-105.7988c17.5-60.99994 35.3-122.00162 53-183.10156zm-533.09962 0.40039c17.79998 60.89994 35.39963 121.80084 53.09961 182.80078-35.39996 0-70.80121 0.10039-106.20117-0.09961 17.69998-60.89994 35.20158-121.90123 53.10156-182.70117zm2336.00002 29.80078c51.1999 0 56.7988 68.70042 56.7988 101.90039 0 33.59997-5.6989 103.09961-56.7988 103.09961-51.2 0-56.8008-69.49964-56.8008-103.09961 0-33.19997 5.6008-101.90039 56.8008-101.90039zm425.0996 0c51.1999 0 56.7988 68.70042 56.7988 101.90039 0 33.59997-5.5989 103.09961-56.7988 103.09961-51.2 0-56.8008-69.49964-56.8008-103.09961 0-33.19997 5.6008-101.90039 56.8008-101.90039zm-834 140.19922c27.4 0 49.5996 22.19964 49.5996 49.59961 0 27.29997-22.1996 49.60156-49.5996 49.60156s-49.5996-22.20159-49.5996-49.60156 22.1996-49.59961 49.5996-49.59961z"/>
</svg>
