<svg version="1.1" viewBox="0 0 156 45" xmlns="http://www.w3.org/2000/svg">
 <path fill="#ff0000" d="m60 0-6 4v36l6-4v-23l6-4h-6v-5l6-4zm-8 5-6 4v36l6-4zm64 0-6 4v31l6-4v-23l6-4h-6zm24 0-6 4v4l6-4zm-140 4 6 4v32l8-5v5l14-9v-27h-6v25l-2 1v-26h-6v25l-2 1v-26zm30 0v27h14v-27zm40 0-8 5v22h14v-6h-8v-13l2-1.25v12.25l6-4v-15zm8 0v27h6v-21h2v21h6v-27zm16 0v12l8 5v4h-2v-4l-6 4v6h14v-12l-8-5v-4h2v4l6-4v-6zm32 0-8 5v22h14v-6h-8v-13l2-1.25v12.25l6-4v-15zm16 0v27h6v-21h2v21h6v-27zm-2 2-6 4v21h6zm-104 4h2v15h-2z"/>
</svg>
