<?xml version="1.0" encoding="utf-8"?>
<!-- Generator: Adobe Illustrator 26.0.3, SVG Export Plug-In . SVG Version: 6.00 Build 0)  -->
<svg version="1.1" id="Layer_1" xmlns="http://www.w3.org/2000/svg" xmlns:xlink="http://www.w3.org/1999/xlink" x="0px" y="0px"
	 viewBox="0 0 3839 832.6" style="enable-background:new 0 0 3839 832.6;" xml:space="preserve">
<style type="text/css">
	.st0{fill:#FFFFFF;}
	.st1{fill:#00439B;}
</style>
<g>
	<path d="M645.6,66.3c148.8,51.1,199.2,114.7,199.2,258c0,139.6-86.2,192.6-195.8,139.6V203.8c0-30.5-5.6-58.6-34.3-66.5
		c-22-7.2-35.5,13.3-35.5,43.8v651.5l-175.8-55.8V0C478.2,13.8,587,46.6,645.6,66.3 M612.5,820.8l384.1-138c0,0,51.6-19,72.7-45.6
		c21.1-26.5,11.8-65.1-71.2-91.3c-73.6-27.9-167.3-37.4-243.8-29.1c-76.5,8.6-131,27.8-131,27.8l-10.8,3.7v105.6l188.4-66.4
		c32.1-11.5,79.2-13.9,105.3-5.4c26,8.5,21.1,24.8-11,36.3L612.5,719.1V820.8z M81,708.4c91.3,30.1,184,36,271,21.8
		c5.7-0.9,11.8-1.9,17.3-2.8v-91.4l-87,31.5c-32.1,11.5-79.2,14-105.3,5.4c-25.9-8.5-21.1-24.8,11-36.3l181.3-64.9v-102l-252,89.5
		c0,0-60.9,20-96.9,46.5C-18.3,634.5-4.1,684.4,81,708.4"/>
	<path d="M3038.9,197.1l-335.5,0c-97.3,0-144.9,60-144.9,138.1v237.2c0,48.3-22.9,83.1-71.3,83.1h-315.3c-2,0-3.6,1.6-3.6,3.6v47.7
		c0,2,1.6,3.6,3.6,3.6h351.8c97.3,0,145-59.8,145-137.9V335.1c0-48.4,22.9-83.2,71.2-83.2h299c2,0,3.6-1.6,3.6-3.6v-47.6
		C3042.4,198.7,3040.8,197.1,3038.9,197.1"/>
	<path d="M2047.8,197.2l-606.9,0c-2,0-3.6,1.6-3.6,3.6v47.6c0,2,1.6,3.6,3.7,3.6h570.5c48.3,0,71.3,34.8,71.3,83.2
		s-22.9,83.1-71.3,83.1h-451.3c-70,0-122.8,58.9-122.8,137l0,151.6c0,2,1.6,3.6,3.6,3.6h102.9c2,0,3.6-1.6,3.6-3.6V555.2
		c0-48.4,27.9-82.1,67.9-82.1h432.6c97.3,0,145-59.8,145-137.9C2192.7,257.2,2145.1,197.2,2047.8,197.2"/>
	<path d="M3835.3,600.7l-106.6-0.1h3.7c-2,0-3.7-1.7-3.7-3.6V251.7c0-53-36.7-70.4-88.3-38.5L3021.9,593
		c-24.3,14.9-32.5,31.7-26.6,44.2c5.1,10.8,18.4,18.2,45.2,18.2l574.5,0c1.6,0.1,2.9,1.3,3.2,2.7v48.4c0,2,1.7,3.7,3.6,3.7h103.3
		c1.9,0,3.6-1.7,3.6-3.7v-47.4c0-2,1.7-3.7,3.6-3.7h102.9c2,0,3.7-1.6,3.7-3.6v-47.6C3839,602.3,3837.3,600.7,3835.3,600.7
		 M3618.4,596.8c0,2.1-1.7,3.7-3.6,3.7h-481.6c-3.9,0-5.9-1-6.5-2.5c-0.5-2.2,0.7-3.9,3.5-5.8l479.3-295.1c3.3-2,8.9-1.7,8.9,4.9
		V596.8z"/>
</g>
</svg>
