<svg enable-background="new 0 0 3839 832.6" version="1.1" viewBox="0 0 3839 832.6" xml:space="preserve" xmlns="http://www.w3.org/2000/svg">
<path fill="#00439B" d="m403.40039 0v776.80078l175.79883 55.79883v-651.5c0-30.49997 13.50002-50.99882 35.5-43.79883 28.69997 7.89999 34.30078 36.00003 34.30078 66.5v260.09961c109.59989 52.99995 195.80078 2.5e-4 195.80078-139.59961 0-143.29986-50.40132-206.90005-199.20117-257.999999-58.59994-19.69998-167.39929-52.500795-242.19922-66.300781zm2300.00001 197.09961c-97.2999 0-144.9004 59.99969-144.9004 138.09961v237.20117c0 48.29995-22.9008 83.09961-71.3008 83.09961h-315.2988c-2 0-3.5996 1.59961-3.5996 3.59961v47.70117c0 2 1.5996 3.59961 3.5996 3.59961h351.7988c97.2999 0 145-59.80047 145-137.90039v-237.40039c0-48.39995 22.9012-83.19922 71.2012-83.19922h299c2 0 3.5996-1.59961 3.5996-3.59961v-47.60156c-0.1-2-1.6996-3.59961-3.5996-3.59961h-335.5zm-1262.5 0.09961c-2 0-3.5996 1.60156-3.5996 3.60156v47.59961c0 2 1.5992 3.59961 3.6992 3.59961h570.5c48.3 0 71.3008 34.79927 71.3008 83.19922s-22.9008 83.10156-71.3008 83.10156h-451.3008c-69.9999 0-122.7988 58.90008-122.7988 137v151.59961c0 2 1.5996 3.59961 3.5996 3.59961h102.9004c2 0 3.5996-1.59961 3.5996-3.59961v-151.70117c0-48.39995 27.9004-82.09961 67.9004-82.09961h432.5996c97.2999 0 145-59.80047 145-137.90039-0.3-77.99992-47.8993-138-145.1992-138h-606.9004zm2242.8437 0.11914c-12.5495 0.75793-27.2187 5.91212-43.3437 15.88086l-618.5 379.80078c-24.3 14.89999-32.4996 31.69923-26.5996 44.19922 5.1 10.79999 18.3992 18.20117 45.1992 18.20117h574.5c1.6 0.1 2.8992 1.29922 3.1992 2.69922v48.40039c0 2 1.7016 3.69922 3.6016 3.69922h103.2988c1.9 0 3.5996-1.69922 3.5996-3.69922v-47.40039c0-2 1.7016-3.69922 3.6016-3.69922h102.8984c2 0 3.7012-1.59961 3.7012-3.59961v-47.60156c0.1-1.9-1.5996-3.5-3.5996-3.5l-106.6016-0.09961h3.7012c-2 0-3.7012-1.69961-3.7012-3.59961v-345.30078c0-36.43746-17.3461-56.04832-44.9551-54.38086zm-71.4609 98.77539c2.9672-0.45 6.1172 0.95625 6.1172 5.90625v294.80078c0 2.1-1.6996 3.69922-3.5996 3.69922h-481.6016c-3.9 0-5.9-1-6.5-2.5-0.5-2.2 0.7-3.90078 3.5-5.80078l479.3008-295.09961c0.825-0.5 1.7941-0.85586 2.7832-1.00586zm-3242.98242 173.60547-252 89.5s-60.900425 20.00003-96.900389 46.5c-38.699962 28.79997-24.5003059 78.70119 60.599609 102.70117 91.29991 30.09997 184.00009 35.99881 271 21.79883 5.69999-0.9 11.80079-1.89883 17.30078-2.79883v-91.40039l-87 31.5c-32.09997 11.49999-79.20081 14.00038-105.30078 5.40039-25.89997-8.49999-21.09997-24.80079 11-36.30078l181.30078-64.90039v-102zm445.01563 44.22266c-20.69217-0.15938-40.89065 0.8039-60.01563 2.8789-76.49992 8.59999-131 27.79883-131 27.79883l-10.80078 3.70117v105.59961l188.40039-66.40039c32.09997-11.49999 79.19885-13.90038 105.29883-5.40039 25.99997 8.49999 21.09997 24.80079-11 36.30078l-282.69922 100.69922v101.70117l384.09961-138s51.60119-19.00159 72.70119-45.60156c21.1-26.49997 11.7987-65.09886-71.20119-91.29883-55.19995-20.92498-121.7067-31.50039-183.7832-31.97851z"/>
</svg>
