<svg version="1.1" viewBox="0 0 575.4 78.3" xmlns="http://www.w3.org/2000/svg">
 <path d="m0 0 41.900391 78.300781 11.199218-20.90039-30.699218-57.400391h-22.400391zm61.5 0-16.800781 31.300781 11.201172 20.898438 28-52.199219h-22.400391zm28.099609 0v78.300781h19.500001l0.09961-78.300781h-19.599611zm27.800781 0v78.300781h19.59961l0.09961-78.300781h-19.59961-0.09961zm25.29883 0v19.599609l8.40039 0.09961c5.39999 0 10.00078 1.901175 13.80078 5.701172 3.8 3.799996 5.69922 8.398833 5.69922 13.798828 0 5.399994-1.89922 10.000785-5.69922 13.800781s-8.40079 5.699219-13.80078 5.699219h-8.40039v19.701172h8.40039c10.79999 0 20.10118-3.900008 27.70117-11.5 7.69999-7.699993 11.5-16.901183 11.5-27.701172s-3.90001-20.099227-11.5-27.699219c-7.69999-7.6999923-16.90118-11.5-27.70117-11.5h-8.40039zm55.90039 0v78.300781h19.59961l0.10156-78.300781h-19.60156-0.09961zm25.20117 0v19.599609h30.69922v-19.599609h-30.69922zm78.39844 0c-10.79999 0-19.99923 3.8003982-27.69922 11.400391-6.89999 6.999993-10.70078 15.3004-11.30078 24.90039h19.70117c0.5-4.199996 2.4-7.900003 5.5-11 3.8-3.799996 8.39883-5.701172 13.79883-5.701172 5.39999 0 10.10039 1.901176 13.90039 5.701172 3.1 3.199997 4.9 6.899614 5.5 11.09961h19.70117c-0.6-9.599991-4.4004-17.900398-11.40039-24.900391-7.69999-7.6999923-16.90118-11.5-27.70117-11.5zm47.60156 0v78.300781h19.59961v-78.300781h-19.59961zm25.19922 0v19.599609h10.5c1.3 0 2.40039 0.500392 3.40039 1.400391 0.9 0.899999 1.40039 2.100392 1.40039 3.400391 0 1.399998-0.40039 2.600001-1.40039 3.5-0.9 0.899999-2.10039 1.40039-3.40039 1.40039h-10.5v19.699219h10.5c6.79999 0 12.50079-2.399224 17.30078-7.199219 4.8-4.699995 7.19922-10.500788 7.19922-17.300781s-2.39922-12.500786-7.19922-17.3007812c-4.79999-4.7999953-10.60079-7.1992188-17.30078-7.1992188h-10.5zm81 0-11.09961 20.800781 16.5 30.898438h-5l-10.5 19.601562h26l3.69922 7h22.40039l-42-78.300781zm84 0.099609375c-9.59999 0.499999505-17.9004 4.300788225-24.90039 11.30078162-7.69999 7.699992-11.5 16.899229-11.5 27.699218 0 10.79999 3.90001 20.10118 11.5 27.701172 6.99999 6.899993 15.3004 10.698829 24.90039 11.298828v-19.599609c-4.2-0.5-7.9-2.399613-11-5.599609-3.9-3.799997-5.80078-8.400787-5.80078-13.800782 0-5.399994 2.00078-10.100394 5.80078-13.90039 3.1-3.099997 6.8-4.900001 11-5.5v-19.59960962zm5.5 0v19.59960962c4.2 0.499999 7.89961 2.400003 11.09961 5.5 1 0.999999 1.8 2.000001 2.5 3l16.20117-10.898438c-1.4-2.099998-3.00039-4.000392-4.90039-5.90039-6.99999-6.8999935-15.3004-10.70078223-24.90039-11.30078162zm-103.5 25.99999962-28 52.201172h22.40039l16.79883-31.300781-11.19922-20.900391zm-218.19922 3.201172v19.59961h30.69922v-19.59961h-30.69922zm39.39844 12.59961c0.5 9.59999 4.30079 17.900397 11.30078 24.90039 7.69999 7.699993 16.89923 11.5 27.69922 11.5s20.10118-3.900007 27.70117-11.5c6.99999-6.999993 10.80039-15.3004 11.40039-24.90039h-19.70117c-0.6 4.199995-2.4 7.900003-5.5 11-3.9 3.899996-8.5004 5.798828-13.90039 5.798828-5.4 0-9.99883-1.998832-13.79883-5.798828-3.1-3.099997-4.9-6.800005-5.5-11h-19.70117zm296 8.099609c-0.7 0.999999-1.6 2.000392-2.5 2.900391-3.2 3.199996-6.89961 4.99961-11.09961 5.599609v19.599609c9.59999-0.499999 17.9004-4.298835 24.90039-11.298828 1.8-1.799998 3.50039-3.800392 4.90039-5.90039l-16.20117-10.900391zm-335.39844 8.699219v19.601562h30.69922v-19.601562h-30.69922z"/>
</svg>
