<svg height="79.261" width="576.386" xmlns="http://www.w3.org/2000/svg"><g fill="#fff" stroke="#fff"><path d="m53.606 57.91-11.18 20.851L.5.5h22.36zM45.22 31.804 61.99.5h22.361l-27.95 52.155zM90.053.5h19.621l-.056 78.261H90.053zm27.95 0h19.621l-.055 78.261h-19.566zm25.156 19.565V.5h8.385c10.807 0 20.03 3.82 27.67 11.46 7.64 7.64 11.46 16.863 11.46 27.67 0 10.808-3.82 20.032-11.46 27.671-7.64 7.64-16.863 11.46-27.67 11.46h-8.385V59.196h8.385c5.403 0 10.015-1.91 13.835-5.73 3.82-3.82 5.73-8.432 5.73-13.836 0-5.403-1.91-10.015-5.73-13.835-3.82-3.82-8.432-5.73-13.835-5.73zM199.171.5h19.621l-.055 78.261H199.17zm25.156 0h30.745v19.565h-30.745zm0 58.696h30.745V78.76h-30.745zm0-29.348h30.745v19.565h-30.745zm97.77 12.578h19.677c-.596 9.614-4.398 17.906-11.404 24.875-7.64 7.64-16.863 11.46-27.67 11.46-10.808 0-20.032-3.82-27.671-11.46-6.97-6.969-10.752-15.26-11.348-24.875h19.677c.559 4.21 2.403 7.882 5.534 11.012 3.801 3.839 8.404 5.758 13.807 5.758 5.404 0 10.025-1.92 13.864-5.758 3.13-3.13 4.975-6.801 5.534-11.012zm-38.739-5.591H263.68c.596-9.614 4.379-17.906 11.348-24.875C282.669 4.32 291.892.5 302.699.5c10.808 0 20.031 3.82 27.671 11.46 7.006 6.969 10.808 15.26 11.404 24.875h-19.677c-.56-4.21-2.404-7.9-5.534-11.068-3.839-3.801-8.46-5.702-13.864-5.702-5.403 0-10.006 1.9-13.807 5.702-3.13 3.168-4.975 6.857-5.534 11.068zM350.327.5h19.565v78.261h-19.565zm25.155 19.565V.5h10.51c6.745 0 12.503 2.385 17.273 7.155 4.77 4.77 7.155 10.528 7.155 17.274 0 6.782-2.385 12.559-7.155 17.329-4.77 4.77-10.528 7.155-17.274 7.155h-10.509V29.848h10.51c1.341 0 2.487-.475 3.437-1.426.95-.95 1.426-2.114 1.426-3.493 0-1.342-.475-2.488-1.426-3.438-.95-.95-2.096-1.426-3.438-1.426zm78.261 27.392-16.77 31.304h-22.36l27.95-52.155z"/><path d="m461.905 52.208-16.547-30.857L456.538.5l41.926 78.261h-22.36l-3.746-6.988h-26.05l10.454-19.565zm78.596 6.82V78.65c-9.615-.596-17.907-4.379-24.876-11.348-7.64-7.64-11.46-16.863-11.46-27.67 0-10.808 3.82-20.032 11.46-27.671 6.97-6.97 15.261-10.752 24.876-11.348v19.621c-4.211.559-7.882 2.404-11.012 5.534-3.839 3.839-5.758 8.46-5.758 13.864 0 5.403 1.92 10.006 5.758 13.807 3.13 3.168 6.8 5.031 11.012 5.59zM559.62 28.73a20.355 20.355 0 0 0-2.46-2.963c-3.168-3.13-6.858-4.975-11.069-5.534V.612c9.615.596 17.907 4.379 24.876 11.348a40.704 40.704 0 0 1 4.92 5.925zm16.266 32.646a40.696 40.696 0 0 1-4.919 5.925c-6.969 6.97-15.261 10.752-24.876 11.348V59.03c4.211-.56 7.9-2.423 11.068-5.591.932-.932 1.752-1.9 2.46-2.907z"/></g></svg>