<svg width="545" height="82" version="1.2" viewBox="14.968 80.666 545 82" xml:space="preserve" xmlns="http://www.w3.org/2000/svg"><path d="m525.59886 91.785141v6.041015h11.89648c1.696 0 3.59766 0.280612 3.59766 2.349614 0 1.95799-1.51172 2.68554-3.26172 2.68554h-4.91601c-8.827 0-9.89649 6.29876-9.89649 11.21875v3.88477h26.30469v-6.48047h-17.50391c-2e-3 -3.02 3.35436-2.58203 5.94336-2.58203h2.9375c5.259 0 9.0625-2.68557 9.0625-8.72656 0-3.883-2.46158-8.390629-7.76758-8.390629h-16.39648zm-432.97461 1.757812c-0.29299-0.004844-0.595094 0.017094-0.90625 0.066406l-6.503906 1.03125c-3.316997 0.527-6.866579 4.134629-7.517578 7.640621l-1.808594 9.73047c-0.650999 3.508 1.731784 6.17153 5.050781 5.64453l2.173828-0.34179 6.640625-5.10547-0.86914-3.44141-0.488282 0.06055-0.158203 0.84766c-0.109 0.589-0.582672 1.0682-1.138672 1.1582l-3.361328 0.53125c-0.554999 0.089-0.873672-0.26652-0.763672-0.85352l1.69336-9.11523c0.109-0.586 0.582719-1.06435 1.136719-1.15235l3.363281-0.533198c0.554999-0.088 0.873672 0.267516 0.763672 0.853518l-0.216797 1.16015 6.796875-1.08007 0.259765-1.388676c0.589969-3.178216-1.314247-5.666068-4.146484-5.712891zm-20.347656 3.1875c-0.190099 0.007478-0.383141 0.027344-0.580078 0.058594l-12.935547 2.052734-2.757813 14.828129-11.912109 1.89257c-1.007999 0.159-1.988547 1.15276-2.185547 2.21875l-4.453125 23.94336c-0.198 1.066 0.459751 1.80058 1.46875 1.64258l22.728516-3.60742 1.839843-9.88672 0.923829-0.14648c1.018998-0.16 0.869874-0.34311 0.671875 0.71289l-1.681641 9.04297 8.1875-1.30469 0.050781-0.27149c0.209 0.016 0.488422 0.09755 0.732422 0.06055l6.320313-0.99023c-0.235 1.26-1.899409 1.57451-4.441407 1.97851l-2.892578 0.46094-1.550781 8.33984 3.798828-0.60156c9.355991-0.924 12.915595-5.75944 14.058594-11.52344l11.402344-1.81054 1.835937-9.88672 0.92773-0.14649c1.016-0.161 0.86493-0.34606 0.66993 0.71094l-1.68164 9.04492 8.18554-1.29883 0.11133-0.5996c0.617 0.272 1.34047 0.36804 2.10547 0.24804l14.1543-2.24414 1.32031-7.10547-0.91797-0.65234c0.795-0.941 1.41475-2.0955 1.59375-3.0625l0.22461-1.11914c0.706-4.19-3.15888-5.30444-4.92188-5.02344l-8.12304 1.28906c-1.438 0.229-3.02278 1.2296-4.17578 2.5586-1.066-1.056-2.71097-1.4645-3.66797-1.3125l-9.042971 1.43359 1.011719 2.23828 8.156252-1.29297c1.176-0.188 1.96273 0.2819 2.17773 1.21289-0.086 0.246-2.17773 11.37891-2.17773 11.37891l-2.92578 0.46484 1.56836-8.42773c0.194-1.056-0.12463-1.39537-1.14063-1.23438l-5.603515 0.89063-1.839844 9.88477-3.214843 0.51171 2.103515-11.3164-2.644531-3.12305-9.527344 3.44336 4.515625-0.7168 0.072266-0.00976-2.871094 15.44531c-0.729999 3.923-4.91591 7.67463-8.628906 8.26563l-3.800781 0.60156 0.576171-3.08985 2.890625-0.45703c2.540998-0.405 5.402485-2.94742 5.896485-5.60742l0.3125-1.67383-7.527344 1.19336c-1.613998 0.257-2.490828-0.72469-2.173828-2.42969l1.351562-7.26171c0.239-1.289 1.044095-2.35997 2.121094-2.91797l0.017578-0.19336 3.777344-2.90625-2.207031 0.37109c-1.172999 0.186-3.349424 1.06508-4.732422 2.83008-1.045999-1.247-2.876251-1.73722-3.90625-1.57422l-8.111328 1.28906 1.320312-7.10547 5.919922-0.93945c3.150997-0.499 6.638813-4.0421 7.257813-7.37109l0.888672-4.78906c0.581249-3.123751-1.441489-5.61998-4.292969-5.507817zm102.521486 5.505857c-15.78399 0-27.6211 10.2588-27.6211 23.67578 0 13.41599 11.83711 23.67774 27.6211 23.67774h35.51562v-7.89258h-35.51562c-11.83799 0-19.72852-7.95916-19.72852-15.78516 0-7.82599 7.89053-15.7832 19.72852-15.7832h35.51562v-7.89258h-35.51562zm43.40625 0v47.35352h35.51562c15.78399 0 27.6211-10.26175 27.6211-23.67774 0-13.41698-11.83711-23.67578-27.6211-23.67578h-35.51562zm82.86719 0v47.35352h7.89257v-19.73047h35.51368c3.94599 0 7.89257 3.94853 7.89257 7.89453v11.83789h7.89258v-11.83789c0-7.89299-7.89453-11.8418-7.89453-11.8418 3.946 0 7.89453-5.69853 7.89453-9.64453 0-7.89199-3.94685-14.03125-11.83984-14.03125h-47.35156zm93.82812 0c-15.78498 0-27.62305 10.2588-27.62305 23.67578 0 13.41599 11.83807 23.67774 27.62305 23.67774h23.67578c15.78399 0 27.6211-10.26175 27.6211-23.67774 0-13.41698-11.83711-23.67578-27.6211-23.67578h-23.67578zm74.97461 0c-7.89299 0-15.7832 3.9449-15.7832 11.83789v35.51563h7.89258v-31.56836c0-7.89199 7.89189-7.89258 11.83789-7.89258h7.89062v39.46094h7.89258v-39.46094h7.89258c3.94499 0 11.83593 5.9e-4 11.83593 7.89258v31.56836h7.89454v-35.51563c0-7.89299-7.89417-11.83789-15.78516-11.83789h-31.56836zm-401.095703 0.70703c0.536999-0.085 0.810125 0.22211 0.703125 0.78711l-0.746094 4.01758c-0.107 0.567-0.511829 0.98041-1.048828 1.06641l-4.091797 0.64843 1.091797-5.87109 4.091797-0.64844zm17.0625 0.61133a0.52697922 0.52697922 0 0 0-0.050781 1.05274c5.998994 0.286 11.85249 0.89273 17.396484 1.80273a0.49 0.49 0 0 0 0.08594 0.00781 0.52519818 0.52519818 0 0 0 0.08594-1.04687c-5.584999-0.917-11.477589-1.52741-17.517583-1.81641zm24.289063 0.81836-16.316407 6.51367-4.585937-4.77343 1.46289 6.61523-13.894531 10.58789 16.320313-6.51562 4.583984 4.77343-1.462891-6.61133 13.892579-10.58984zm-54.132813 0.62109c-8.613992 1.352-15.894646 3.49441-21.056641 6.19141-5.441994 2.844-8.393156 6.25705-8.535156 9.87305-0.173 4.39199 3.702992 8.6392 11.208984 12.2832a0.533 0.533 0 0 0 0.228516 0.05274 0.525 0.525 0 0 0 0.230469-0.99805c-6.998993-3.398-10.768234-7.40893-10.615235-11.29492 0.256-6.553 11.254143-12.32641 28.703125-15.06641a0.527 0.527 0 0 0-0.164062-1.04102zm52.876953 1.46875a0.526 0.526 0 1 0-0.2168 1.0293c8.70399 1.846 15.99313 4.41469 21.07813 7.42969 5.10899 3.025 7.75339 6.36325 7.65039 9.65625-0.293 9.40999-22.51476 16.73047-50.677736 16.73047h-0.439453a0.52550024 0.52550024 0 0 0-0.001953 1.05078h0.441406c13.785986 0 26.614026-1.74025 36.166016-4.90625 9.87999-3.277 15.40845-7.83685 15.56445-12.83984 0.115-3.7-2.70802-7.36366-8.16601-10.59766-5.184-3.073-12.58445-5.68474-21.39844-7.55274zm-13.681641 1.28516-2.705078 0.42969 2.083985 1.95508c0.176999-0.477 0.299625-0.65849 0.390625-1.14649l0.230468-1.23828zm130.906251 2.38086h27.62109c11.83799 0 19.72852 7.95721 19.72852 15.7832 0 7.826-7.89053 15.78516-19.72852 15.78516h-27.62109v-31.56836zm82.86523 0h35.51368c3.94499 0 7.89257 2.19268 7.89257 6.13867-1e-3 3.946-3.94758 5.69922-7.89257 5.69922h-35.51368v-11.83789zm85.93555 0h23.67578c11.83799 0 19.72852 7.95721 19.72852 15.7832 0 7.826-7.89053 15.78516-19.72852 15.78516h-23.67578c-11.83799 0-19.73047-7.95916-19.73047-15.78516 0-7.82599 7.89348-15.7832 19.73047-15.7832zm-271.56055 4.91797c1.0137 0.15446 1.65935 1.39077 1.4336 2.60351l-0.36914 1.92969c-0.259 1.386-1.67346 2.8576-2.93946 3.0586l-7.80468 1.24023-0.11328 0.70117c-0.148 0.796 0.38032 1.41974 1.11132 1.30274l8.72461-1.39063-0.58789 3.16602-9.84179 1.56054c-1.739 0.274-3.18694-1.03554-2.83594-2.93554l1.11523-6.00196c0.354-1.89899 2.39482-3.76306 4.13281-4.03906l7.51954-1.1914c0.15837-0.02525 0.31026-0.02598 0.45507-0.00391zm-67.851559 1.39648-0.574218 3.08985-7.892579 1.2539-1.205078 6.48633 6.429688-1.01953-0.574219 3.08789-6.431641 1.01953-1.207031 6.49024 10.234375-1.62305-0.630859 3.39844-13.447266 2.13281 4.189453-22.55469 11.109375-1.76172zm65.134769 1.72071-1.5625 0.24609-2.49219 0.39648-0.63086 0.09961c-0.73 0.117-1.53169 0.9491-1.67969 1.7461l-0.06836 0.375 6.08203-0.96485c0.48-0.078 0.94793-0.56289 1.04493-1.08789 0.096-0.524-0.21236-0.88654-0.69336-0.81054zm-26.865237 1.50586-2.41211 12.97656-3.216797 0.50976 2.410157-12.97461 0.074218-0.01367 3.144532-0.49804zm-36.966797 1.96484-2.064453 11.12305-7.59961 1.20507 0.285156-1.54296 6.138672-0.97657 1.494141-8.0332-6.138672 0.97656 0.285156-1.54492 7.59961-1.20703zm233.101564 0.33203a3.946 3.946 0 1 0 0 7.89063h2.95898a3.946 3.946 0 0 0 0-7.89063h-2.95898zm-219.900392 1.52539c1.244576 0.03808 1.879812 0.97513 1.601562 2.46875l-1.880859 10.11719-3.216797 0.50976 1.568359-8.42773c0.197-1.056-0.124579-1.39633-1.142578-1.23633l-5.603516 0.88867-1.835937 9.88672-3.216797 0.51172 2.412109-12.97656 0.074219-0.01172 10.669922-1.69141c0.20175-0.03225 0.392516-0.0445 0.570313-0.03906zm14.421875 0.6582-5.894532 0.93555c-1.019999 0.161-1.490547 0.6256-1.685547 1.6836l-0.720703 3.875c-0.198 1.05899 0.122626 1.39928 1.140625 1.23828l5.896485-0.93555 1.263672-6.79688zm-3.091797 2.89258-0.289063 1.54102-0.923828 0.14844c-0.993999 0.158-1.432531 0.42417-1.269531-0.54883 0.199-0.979 0.562641-0.8381 1.55664-0.9961l0.925782-0.14453z"/></svg>
