<svg version="1.1" viewBox="373.5 287.587 691.322 126.382" xmlns="http://www.w3.org/2000/svg"><path d="M671.299 298.801c-.226-5.253 4.003-10.263 9.17-11.062 4.218-.162 8.441.006 12.664-.069 6.08-.642 11.768 5.097 11.444 11.114-.006 6.034-.023 12.068.006 18.097-3.622.035-7.238.012-10.859.017-.017-6.133.035-12.259-.029-18.392-4.032.04-8.065.029-12.097.006-.052 34.041-.006 68.089-.023 102.13 4.154-.017 8.308.035 12.468-.035-.064-16.477-.012-32.954-.029-49.431h-5.496v-9.835c5.34-.012 10.686.023 16.031-.017.029 23.107.058 46.214-.017 69.315-7.457-.046-14.915-.006-22.372-.012-4.339.012-8.643-2.748-10.246-6.809-.856-2.123-.567-4.449-.607-6.676-.002-32.78.01-65.561-.008-98.341zM732.625 308.37c7.087.006 14.18-.035 21.267.017 4.368-.052 8.834 2.326 10.697 6.364.764 1.522.566 3.263.596 4.906-.029 10.796 0 21.591-.017 32.387-.237 4.576-3.477 9.239-8.192 10.032 3.5 16.165 6.896 32.352 10.304 48.54-3.309.006-6.613.006-9.916.006-3.68-16.02-7.394-32.022-11.079-48.036-1.18.012-2.355.017-3.529.023-.012 16.055.017 32.109-.017 48.164-3.373-.017-6.746.006-10.112-.017.015-34.129.004-68.258-.002-102.386zm10.275 9.974v33.266c3.951.006 7.903-.006 11.854.006.017-11.091.006-22.181.006-33.272H742.9zM792.661 317.87c.023-4.651 3.894-9.118 8.626-9.338 4.646-.064 9.291.006 13.937-.035 2.372-.04 4.837.567 6.7 2.1 2.152 1.736 3.28 4.53 3.275 7.272-.006 30.917 0 61.835 0 92.752h-9.98c-.006-16.199.006-32.404-.006-48.603-4.142.006-8.285.012-12.421-.006-.029 16.205.006 32.41-.023 48.615-3.373-.012-6.74-.006-10.113-.006.005-30.916-.013-61.834.005-92.751zm10.408 1.053c.017 10.952-.035 21.904.023 32.855 3.946-.046 7.891-.017 11.837-.023-.006-10.946.012-21.892-.012-32.838-3.951.012-7.897 0-11.848.006zM850.654 317.303c.035-4.49 3.963-8.719 8.51-8.788 5.699-.023 11.392.006 17.09-.006v9.112c-5.103-.012-10.206.023-15.302-.023-.064 11.438-.017 22.87-.023 34.308 4.189-.012 8.383-.006 12.578-.006 0 3.373-.012 6.746.006 10.119-4.194.012-8.389.006-12.583 0-.017 16.199 0 32.404-.006 48.603h-10.269c.005-31.108-.001-62.217-.001-93.319zM901.71 308.509h10.703c.064 9.459-.133 18.93.093 28.383 1.817 3.032 3.934 5.884 5.832 8.875 1.863-2.927 4.044-5.664 5.722-8.707.162-9.505.035-19.028.058-28.54 3.575-.017 7.151-.023 10.726 0-.035 6.798-.006 13.596-.012 20.394-.041 3.159.301 6.422-.868 9.442-2.372 6.323-5.942 12.103-9.488 17.813 4.032 6.48 8.406 13.04 10.258 20.527.214 11.351.058 22.725.075 34.082-3.321-.023-6.636-.006-9.957-.012-.035-11.409.069-22.818-.046-34.221-1.678-3.454-4.206-6.474-6.219-9.754-2.071 3.17-4.247 6.266-6.329 9.424-.006 11.525.052 23.049-.023 34.574-3.512-.052-7.018-.012-10.524-.023-.006-10.703.012-21.406-.006-32.109-.046-2.904 1.342-5.56 2.494-8.146 2.494-5.01 5.409-9.806 8.528-14.452-4.177-6.404-8.823-12.803-10.888-20.261-.302-9.082-.042-18.194-.129-27.289z" fill="#d5e14d"/><path d="m373.5 287.587v10.26953h9.93945v112.81641h11.94141v-112.81641h9.93945v-10.26953h-31.82031zm636.4805 17.88867c-2.7238 0.02663-5.4465 0.26003-8.1367 0.70703-18.07403 2.742-34.17362 15.4245-41.22661 32.27149-7.139 16.52298-5.31749 36.56967 4.8125 51.47265 9.72499 14.75299 27.06445 24.19521 44.77341 24.03321 11.831 0.231 23.6385-3.76182 33.0625-10.88282 8.623-6.50899 15.2873-15.63154 18.6953-25.89453 3.975-11.61099 3.7787-24.56499-0.4043-36.08398-3.616-9.82399-10.0839-18.60104-18.5019-24.83203-9.4339-7.13537-21.2711-10.90639-33.0742-10.79102zm-560.22073 2.85938c-0.081 30.67397-0.01216 61.34361-0.03516 92.01757h-11.86133c-0.023-30.66896 0.04166-61.34274-0.02734-92.01171-3.512 0.046-7.01926 0.01143-10.53125 0.02343 0.017 30.54697-0.04075 61.09466 0.03125 91.64063-0.145 5.50199 4.55957 10.646 10.10156 10.75 4.241 0.029 8.48557 0.01172 12.72656 0.01172 4.565 0.018 8.91683-3.36799 9.92383-7.83399 0.526-2.07699 0.29984-4.24628 0.33984-6.36328 5e-3 -29.39497-0.02242-58.79153 0.01758-88.1875-3.56399-0.046-7.12155 0.01713-10.68554-0.04687zm170.2832 0.01172c-1.609 0.02025-3.20717 0.14134-4.76367 0.58984-2.893 1.024-5.30577 3.32081-6.50977 6.13281-0.885 1.984-0.65278 4.21222-0.67578 6.32422 0.012 26.22497 6e-3 52.44995 0 78.66992-0.133 4.507 3.21049 8.50847 7.27148 10.10547 1.921 0.787 4.03151 0.58652 6.0625 0.60352 3.465-0.046 6.93721 0.0517 10.40821-0.0293 3.87099-0.376 7.11705-3.29208 8.74804-6.70508 1.053-2.124 0.74711-4.54898 0.78711-6.83398-6e-3 -26.24898-0.012-52.49712 0-78.7461 0.105-3.81199-2.74227-7.05095-5.94726-8.75195-3.223-1.776-7.02974-1.2728-10.55274-1.3418-1.59949 0.0435-3.21912-0.03782-4.82812-0.01757zm-121.90235 0.00976c-3.65349 0.00788-7.30653 0.02781-10.95703 0.00781v102.40039h10.11914c0.012-15.95598-1.4e-4 -31.91692 0.00586-47.8789 1.209 6e-3 2.42382 0.00572 3.63282 0.01172 3.65699 15.96198 7.3712 31.90715 11.0332 47.86914 3.309 0 6.61874 0.00614 9.92773-0.00586-3.45999-16.15299-6.85083-32.31758-10.29882-48.47656 4.98099-0.897 8.21586-5.94317 8.25586-10.78516 0.01699-11.18899 0.01699-22.38328 0-33.57227-0.052-5.51899-5.58778-9.4349-10.75977-9.5039-3.6505-0.0695-7.30549-0.07428-10.95899-0.06641zm50.49024 0.03125c0.069 34.12797-0.02313 68.26157 0.04687 102.39453 7.66-0.046 15.31462 0.00138 22.97461-0.01562 3.46-0.028 7.01165-1.86865 8.55664-5.05664 1.429-2.638 0.89529-5.70437 0.98829-8.56836 0.272-6.74 0.09448-13.48657 0.14648-20.22657-0.058-4.41399 0.14403-8.83333-0.16797-13.23632-0.191-2.777-2.16517-4.98079-4.20117-6.67578 2.106-1.874 4.25166-4.24505 4.22266-7.24805-0.012-10.80699 0.01728-21.61503-0.01172-32.41602-0.174-4.92299-4.74966-8.93973-9.59766-8.92773-7.64899-0.104-15.30304-0.04044-22.95703-0.02344zm-39.17383 10.10156c-6e-3 11.14299 0.01728 22.28475-0.01172 33.42774-3.90499-0.034-7.80413-0.01158-11.70312-0.01758-6e-3 -11.13699 0.00614-22.26731-0.00586-33.4043 3.90599-0.012 7.80971 1.4e-4 11.7207-0.00586zm49.75586 0c3.911 6e-3 7.81557-0.01228 11.72656 0.01172-0.024 11.13099-0.00572 22.26145-0.01172 33.39844-3.90499 6e-3 -7.80398-0.00614-11.70898 0.00586-0.012-11.13699-0.00586-22.27903-0.00586-33.41602zm60.02344 0.14453h11.28125c6e-3 27.13898-0.00614 54.27886 0.00586 81.42383-3.766 0.012-7.53198 0.012-11.29297 0 0.012-27.13897-1.4e-4 -54.28485 0.00586-81.42383zm380.57031 17.77344c1.33096 1.331 2.50956 2.43335 3.85356 3.77735v8.79296h-6.40043a336.087 336.087 0 0 1 0-5.11914h-15.36133v32.00196h15.36133a336.087 336.087 0 0 1 0-5.1211h6.40043v8.79493c-1.344 1.34399-2.5001 2.41967-3.83208 3.76367h-21.67968l-3.67383-3.61133-0.02539-39.61914 3.69922-3.64844 21.6582-0.01172zm11.53316 0h31.9004l3.711 3.64844v39.59375l-3.6973 3.64844h-31.9922c-0.012-2.56 0.0671-4.87751 0.0801-7.4375h3.8398v-32.00196h-3.8418v-7.45117zm11.5215 7.45117v32.00196h16.6407v-32.00196h-16.6407zm-463.63669 18.73243c3.899 0.023 7.80513 0.00572 11.70312 0.01171 6e-3 12.67499-0.01114 25.35122 0.00586 38.03321-3.90499 0.018-7.8157-1.4e-4 -11.7207 0.00586 6e-3 -12.68199-0.01728-25.3688 0.01172-38.05078z" fill="#f79226"/></svg>
