<svg enable-background="new 0 0 559.249 81.18" version="1.1" viewBox="0 0 559.249 81.18" xmlns="http://www.w3.org/2000/svg"><linearGradient id="a" x1="102.2983024" x2="355.6291984" y1="38.6395048" y2="38.6395048" gradientUnits="userSpaceOnUse"><stop stop-color="#f50019" offset="0"/><stop stop-color="#f66d19" offset=".2761"/><stop stop-color="#fbfa35" offset=".4785"/><stop stop-color="#74b719" offset=".681"/><stop stop-color="#17710a" offset=".7914"/><stop stop-color="#226887" offset=".8834"/><stop stop-color="#3262d9" offset="1"/></linearGradient><path d="m559.249 75.466c0 3.154-2.15 5.714-4.801 5.714h-549.647c-2.651 0-4.801-2.56-4.801-5.714v-69.751c0-3.155 2.15-5.715 4.801-5.715h549.646c2.651 0 4.801 2.56 4.801 5.715v69.751z"/><path d="m528.35547 15.054688c-6.94199 0-12.36735 2.186551-16.27735 6.560546-3.90999 4.373996-5.86328 9.914054-5.86328 16.623047 0 7.016993 2.04477 12.618645 6.13477 16.806641 4.089 4.187996 9.37915 6.28125 15.86914 6.28125 6.44599 0 11.70811-2.147317 15.78711-6.445313 4.079-4.295995 6.11719-10.008772 6.11719-17.134765 0-6.883993-2.02241-12.38777-6.06641-16.509766-4.045-4.121996-9.27918-6.18164-15.70117-6.18164zm-95.23242 0.6875-14.45117 44.892578h11.66601l2.81055-8.847657h12.54101l2.64649 8.847657h14.66211l-14.68164-44.892578h-15.19336zm29.875 44.892578v0.001953h11.66015v-21.740235c0-2.016998-0.37686-4.47319-1.13086-7.367187 1.673 3.636996 3.33252 6.727487 4.97852 9.271484l12.81836 19.833985h11.69336 0.00195v-44.890625h-11.69336v13.285156c0 4.012996 0.36466 7.939394 1.09766 11.775391-1.12-2.476998-2.7645-5.350191-4.9375-8.617188l-10.90625-16.443359h-13.58203v44.890625zm-74.3125-44.890625v10.753906h12.80468v34.136719h12.48243v-34.136719h12.80468v-10.753906h-38.09179zm-29.41797 0.671875v0.849609h0.70312v2.695313h0.98438v-2.695313h0.70312v-0.849609h-2.39062zm2.6875 0v3.544922h0.7793v-2.535157l0.65039 2.535157h0.66211l0.625-2.535157v2.535157h0.96679v-3.544922h-1.36328l-0.46875 1.882812-0.49219-1.882812h-1.35937zm-294.697268 0.0625c-4.032995 0-7.786877 2.173831-9.796874 5.673828l-10.419922 18.046875h4.376953l9.328125-16.154297c1.331998-2.324998 3.828721-3.775391 6.511718-3.775391h19.34375l2.1875-3.791015h-21.53125zm-38.701171 0.207031-3.744141 3.744141h1.740234l2.00586-2.00586 2.005859 2.00586h1.738281l-3.746093-3.744141zm-14.34375 4.224609 2.189453 3.791016h14.949218c4.137996 0 7.503907 3.364957 7.503907 7.501953 0 2.289998-0.695751 3.62383-1.84375 5.548828-0.960999 1.613999-1.302735 2.62247-1.302735 3.855469 0 1.990998 1.619377 3.609375 3.609375 3.609375h43.31836c4.137996 0 7.503906 3.36691 7.503906 7.503906 0 1.343999-0.360969 2.662454-1.042969 3.814453l-2.365234 4.097656h4.376953l1.261719-2.1875c1.018999-1.731998 1.558593-3.711564 1.558594-5.726562 0.001999-6.222994-5.064975-11.289062-11.292969-11.289062h-43.13086c0.023-0.277 0.143673-0.69433 0.763672-1.736329 1.347999-2.259997 2.376953-4.247284 2.376953-7.488281 0-6.227994-5.065928-11.294922-11.294922-11.294922h-0.296874l-2.498047 2.498047-2.498047-2.498047h-11.845703zm53.044921 0.486328c-2.279997 0-4.400204 1.23194-5.533203 3.210938l-9.003906 15.591797h1.892578l8.53125-14.775391c0.842999-1.472998 2.419283-2.388672 4.113281-2.388672h17.746094l0.947266-1.638672h-18.69336zm0 2.765625c-1.290998 0-2.491766 0.697314-3.134765 1.820313l-8.208985 14.216797h4.378907l4.509765-7.8125h14.802735l2.560547-4.433594 0.779296-1.349609 1.410157-2.441407h-17.097657zm-53.990234 0.59961-4.1445311 1.873047 6.4121091 2.054687-0.705078-1.220703h16.521484c2.611998 0 4.738282 2.125331 4.738282 4.736328 0 1.470999-0.327126 2.242815-1.453125 4.132813-1.217999 2.043998-1.69336 3.521486-1.69336 5.271484 0 3.515996 2.860004 6.376953 6.375 6.376953h43.31836c2.611997 0 4.736328 2.125331 4.736328 4.736328 0 0.850999-0.230016 1.686829-0.666016 2.423828l-3.167969 5.488282h1.892579l2.691406-4.660157c0.581999-0.980999 0.890625-2.105954 0.890625-3.251953 1e-3 -3.515996-2.860957-6.375-6.376953-6.375h-43.316407c-2.611997 0-4.738281-2.126284-4.738281-4.738281 0-1.442999 0.397892-2.644642 1.462891-4.431641 1.144999-1.920998 1.685547-3.038658 1.685547-4.972656 0-3.514996-2.860957-6.376953-6.376953-6.376953h-17.46875l-0.617188-1.066406zm515.156252 0.486328c4.30399 0 6.45508 3.903992 6.45508 11.708984 0 5.393995-0.52332 9.105815-1.57032 11.132813-1.049 2.027998-2.76825 3.041015-5.15625 3.041015-4.46199 0-6.69336-4.176305-6.69336-12.529297 0-8.900991 2.32185-13.353515 6.96485-13.353515zm-509.773439 3.347656 2.189453 3.791016h10.328125c-3e-3 0.031-0.005906 0.044922-0.003907 0.044922-0.034999 0.117-0.193953 0.452672-0.751953 1.388671-1.178998 1.978999-2.386718 4.453066-2.386718 7.789063 0 6.227994 5.066928 11.294922 11.294921 11.294922h43.00586l-4.464844 7.732422h4.376953l3.50586-6.074219c0.328999-0.553999 0.503906-1.190844 0.503906-1.839844 0-1.990998-1.618377-3.609375-3.609375-3.609375h-43.31836c-4.137995 0-7.503906-3.36591-7.503906-7.503906 0-2.274998 0.741517-3.983658 1.853516-5.847656 1.033999-1.735999 1.292969-2.336642 1.292969-3.556641 0-1.990998-1.618377-3.609375-3.609375-3.609375h-12.703125zm420.728519 0.371094 3.78711 13.021484h-7.57422l3.78711-13.021484zm-74.00782 8.154297c-0.47431 0-0.88287 0.350519-0.95898 0.816406l-3.45703 21.478516c-0.091 0.575291 0.36756 1.124667 0.95508 1.126953h0.00195 6.47266 5.41992c4.10661 0 7.68089-3.181458 7.79883-7.3125 0.0507-1.773293-0.57008-3.384731-1.55664-4.697266 0.96182-1.22737 1.58145-2.74338 1.55859-4.423828v-0.001953c-0.0544-3.931513-3.44506-6.986328-7.34961-6.986328h-8.88477zm0.11719 1.111328h8.76758c3.32544 0 6.19266 2.592152 6.23828 5.890625 0.0211 1.549913-0.5485 2.961076-1.49805 4.035156l-0.31836 0.359375 0.3086 0.367188c0.97805 1.161323 1.55288 2.666596 1.50586 4.3125-0.10007 3.504942-3.15415 6.234375-6.6875 6.234375h-5.41992-6.30665l3.41016-21.199219zm4.32813 3.296875c-1.02312 0-1.86328 0.843213-1.86329 1.865234v1.623047c0 1.023115 0.84126 1.863281 1.86329 1.863281h4.70117c1.46884 0 2.67578-1.206197 2.67578-2.675781 0-1.46842-1.20736-2.675781-2.67578-2.675781h-4.70117zm0 1.113281h4.70117c0.86157 0 1.56445 0.700926 1.56445 1.5625 0 0.864412-0.7013 1.564453-1.56445 1.564453h-4.70117c-0.41598 0-0.75196-0.33507-0.75196-0.751953v-1.623047c0-0.415975 0.33507-0.751953 0.75196-0.751953zm27.5 1.728516-8.8125 20.761718c-0.11329 0.266216-0.373 0.4375-0.66211 0.4375h-11.20508v1.111329h11.20508c0.73288 0 1.39883-0.439498 1.68554-1.113282l8.8125-20.763671-1.02343-0.433594zm-4.38477 0.017578-4.86719 12.695312-0.86718-12.535156-1.10938 0.078125 1.21484 17.552735 6.66797-17.392579-1.03906-0.398437zm-9.47266 0.15039-1.10742 0.097657 1.5293 17.460937h-7.24414v1.111328h8.45703l-1.63477-18.669922zm-15.07421 5.353516c-1.17324 0-2.13672 0.96348-2.13672 2.136719v1.962891c0 1.173238 0.96348 2.138671 2.13672 2.138671h5.68945c1.71326 0 3.11792-1.407148 3.11914-3.11914 0-1.713257-1.40588-3.119141-3.11914-3.119141h-5.68945zm0 1.111328h5.68945c1.10674 0 2.00781 0.901074 2.00781 2.007813-7.8e-4 1.106002-0.90107 2.007812-2.00781 2.007812h-5.68945c-0.56676 0-1.0254-0.460585-1.02539-1.027343v-1.962891c0-0.566758 0.45863-1.025391 1.02539-1.025391zm-323.708989 3.128906-3.753906 6.503907h1.892578l3.753906-6.503907h-1.892578zm-5.679687 0.001954-3.753906 6.501953h4.376953l3.753906-6.501953h-4.376953zm8.873047 0-3.753907 6.501953h4.376954l3.753906-6.501953h-4.376953z" fill="#f50019"/><path d="m102.268 17.544h20.418c13.461 0 18.211 10.374 18.211 20.986 0 12.909-6.561 21.104-20.644 21.104h-17.985zm12.443 31.302h4.864c7.748 0 8.88-6.543 8.88-10.493 0-2.653-.792-10.022-9.785-10.022h-3.959zm30.427-31.302h23.699c7.069 0 13.178 4.068 13.178 12.025 0 4.362-1.923 8.96-6.051 10.552 3.394 1.357 5.485 5.246 5.938 10.493.169 2.063.225 7.074 1.357 9.019h-12.443c-.623-2.122-.849-4.302-1.018-6.484-.34-4.008-.68-8.193-5.6-8.193h-6.618v14.679h-12.442v-42.09zm12.443 18.392h6.504c2.319 0 5.486-.413 5.486-4.185 0-2.652-1.414-4.185-6.165-4.185h-5.825zm42.927-18.392h12.16l14.705 42.089h-12.895l-1.696-6.013h-12.84l-1.81 6.013h-12.499zm9.784 27.057-3.62-12.968h-.113l-3.902 12.968zm48.299 10.729c-2.772 3.713-7.069 5.304-11.48 5.304-11.935 0-19.287-9.667-19.287-21.633 0-16.033 10.803-22.459 19.909-22.459 10.293 0 16.798 5.836 18.607 15.739h-11.934c-.452-3.065-2.94-5.246-5.881-5.246-8.54 0-8.258 9.373-8.258 12.261 0 3.948 1.527 10.846 9.105 10.846 2.884 0 5.825-1.533 6.447-4.657h-5.485v-9.02h16.515v23.167h-7.862zm34.839-38.788c12.274 0 20.474 9.195 20.474 22.047s-8.201 22.047-20.474 22.047-20.475-9.195-20.475-22.047c0-12.851 8.202-22.047 20.475-22.047zm0 33.6c3.167 0 8.031-2.181 8.031-11.555 0-9.373-4.864-11.554-8.031-11.554s-8.031 2.181-8.031 11.554c-.001 9.374 4.864 11.555 8.031 11.555zm25.788-32.598h12.726l11.764 22.518h.113v-22.518h11.764v42.089h-12.104l-12.386-22.989h-.113v22.989h-11.764z" fill="url(#a)"/></svg>
