<?xml version="1.0" encoding="utf-8"?>
<!-- Generator: Adobe Illustrator 25.0.0, SVG Export Plug-In . SVG Version: 6.00 Build 0)  -->
<svg version="1.1" id="Layer_1" xmlns="http://www.w3.org/2000/svg" xmlns:xlink="http://www.w3.org/1999/xlink" x="0px" y="0px"
	 viewBox="0 0 3840 550.5" style="enable-background:new 0 0 3840 550.5;" xml:space="preserve">
<style type="text/css">
	.st0{fill:#EC2224;}
	.st1{fill:#FFFFFF;}
	.st2{fill:url(#SVGID_1_);}
	.st3{fill:url(#SVGID_2_);}
	.st4{fill:url(#SVGID_3_);}
	.st5{fill:url(#SVGID_4_);}
	.st6{fill:url(#SVGID_5_);}
	.st7{fill:url(#SVGID_6_);}
	.st8{fill:url(#SVGID_7_);}
	.st9{fill:url(#SVGID_8_);}
	.st10{fill:url(#SVGID_9_);}
	.st11{fill:url(#SVGID_10_);}
	.st12{fill:url(#SVGID_11_);}
	.st13{fill:url(#SVGID_12_);}
	.st14{fill:url(#SVGID_13_);}
	.st15{fill:url(#SVGID_14_);}
	.st16{fill:url(#SVGID_15_);}
	.st17{fill:url(#SVGID_16_);}
	.st18{fill:url(#SVGID_17_);}
	.st19{fill:url(#SVGID_18_);}
	.st20{fill:url(#SVGID_19_);}
	.st21{fill:url(#SVGID_20_);}
	.st22{fill:url(#SVGID_21_);}
	.st23{fill:url(#SVGID_22_);}
	.st24{fill:url(#SVGID_23_);}
	.st25{fill:url(#SVGID_24_);}
	.st26{fill:url(#SVGID_25_);}
	.st27{fill:url(#SVGID_26_);}
	.st28{fill:url(#SVGID_27_);}
	.st29{fill:url(#SVGID_28_);}
	.st30{fill:url(#SVGID_29_);}
	.st31{fill:url(#SVGID_30_);}
	.st32{fill:url(#SVGID_31_);}
	.st33{fill:url(#SVGID_32_);}
	.st34{fill:url(#SVGID_33_);}
	.st35{fill:url(#SVGID_34_);}
	.st36{fill:url(#SVGID_35_);}
	.st37{fill:url(#SVGID_36_);}
	.st38{fill:url(#SVGID_37_);}
	.st39{fill:url(#SVGID_38_);}
</style>
<g>
	<path d="M2579.3,191.5c-23.9,0-60.7,15.8-60.7,83.8s36.8,83.8,60.7,83.8c23.9,0,60.7-15.8,60.7-83.8S2603.2,191.5,2579.3,191.5z"/>
	<polygon points="2824.3,464 2816.6,486 2832.1,486 2824.5,464 	"/>
	<polygon points="2726.1,464 2718.4,486 2734,486 2726.3,464 	"/>
	<path d="M2663.4,462.5h-8.8v36.4h8.8c14,0,17-8,17-18.2S2677.4,462.5,2663.4,462.5z"/>
	<path d="M3010.7,462.5h-8.8v36.4h8.8c14,0,17-8,17-18.2S3024.6,462.5,3010.7,462.5z"/>
	<path d="M1299.9,200.9H1270v148.7h36.8c58.5,0,67.1-47.4,67.1-76.1C1373.8,254.3,1367.8,200.9,1299.9,200.9z"/>
	<path d="M3755.5,0H84.5C37.8,0,0,37.8,0,84.5V466c0,46.7,37.8,84.5,84.5,84.5h3670.9c46.7,0,84.5-37.8,84.5-84.5V84.5
		C3840,37.8,3802.2,0,3755.5,0z M666.3,166.9l1.1-1.8l34.8-60.2C724.6,65.9,766.1,42,811,42h71.7l0,0l164.9,0l-23.9,41.3H811
		c-30,0-58,16.2-73.1,42.2L637.2,299.8h-47.7L666.3,166.9z M810.5,113.6c-19,0-36.6,10.1-46.1,26.6l-92.1,159.6H651l61.4-106.3
		l1-1.8l34.8-60.2c12.9-22.3,36.9-36.2,62.7-36.2l71.7,0h134.2l-10.6,18.4H810.5z M999.3,125.5l-53,91.8H781.4l-47.6,82.4h-47.7
		l88.7-153.6c7.4-12.8,21-20.7,35.8-20.7H999.3z M389.5,44.2L430,84.7h-20.8l-19.7-19.7l-19.7,19.7H349L389.5,44.2z M469,508.6
		l39.5-68.5h47.7l-39.5,68.5H469z M530.5,508.6l39.5-68.5h21.2l-39.5,68.5H530.5z M613.2,508.6h-47.7l39.5-68.5l47.7,0L613.2,508.6z
		 M942.3,508.6l44-76.2l-473.3,0h0c-96.7,0-157.2-104.7-108.8-188.5l15.3-26.5H306.7L282.9,176h136.6c14.8,0,28.4,7.9,35.8,20.7
		c7.4,12.8,7.4,28.5,0,41.3l-15.3,26.5c-15.2,26.4-15.2,58,0,84.4c15.2,26.4,42.6,42.2,73.1,42.2h473.3c14.8,0,28.4,7.9,35.8,20.7
		c7.4,12.8,7.4,28.5,0,41.3L990,508.6H942.3z M1003.7,508.6l28.6-49.5c9.5-16.5,9.5-36.8,0-53.3c-9.5-16.5-27.1-26.6-46.1-26.6h-329
		H513c-26.2,0-49.6-13.5-62.7-36.2c-13.1-22.7-13.1-49.8,0-72.4l15.3-26.5c9.5-16.5,9.5-36.8,0-53.3c-9.5-16.5-27.1-26.6-46.1-26.6
		h-178l6.8,12l-63-23l36.5-23l9,15.5h187.4c26.2,0,49.6,13.5,62.7,36.2c13.1,22.7,13.1,49.8,0,72.4l-15.3,26.5
		c-9.5,16.5-9.5,36.8,0,53.3c9.5,16.5,27.1,26.6,46.1,26.6l473.3,0c26.2,0,49.6,13.5,62.7,36.2c13.1,22.7,13.1,49.8,0,72.4
		l-22.6,39.2H1003.7z M1093.7,496l-7.3,12.6H1038l24.7-42.8c10.3-24.2,8.7-51.5-4.8-74.8c-15.2-26.4-42.6-42.2-73.1-42.2l-473.3,0
		c-14.8,0-28.4-7.9-35.8-20.7c-7.4-12.8-7.4-28.5,0-41.3l15.3-26.5c15.2-26.4,15.2-58,0-84.4c-15.2-26.4-42.6-42.2-73.1-42.2H258.5
		l-23.9-41.3h127.6l27.4,27.4l27.4-27.4h1.2c96.7,0,157.2,104.7,108.8,188.5l-15.3,26.5l73.5,0h144.2l255.6,0
		C1081.6,307.5,1142.1,412.2,1093.7,496z M1311.8,427.8h-135.9V122.7h154.3c101.7,0,137.6,75.2,137.6,152.1
		C1467.8,368.4,1418.3,427.8,1311.8,427.8z M1690,427.8c-4.7-15.4-6.4-31.2-7.7-47c-2.6-29.1-5.1-59.4-42.3-59.4h-50v106.4h-94
		V122.7h179.1c53.4,0,99.6,29.5,99.6,87.2c0,31.6-14.5,65-45.7,76.5c25.6,9.8,41.5,38,44.9,76.1c1.3,15,1.7,51.3,10.2,65.4H1690z
		 M2016.1,427.8l-12.8-43.6h-97l-13.7,43.6h-94.4l112.4-305.1h91.9l111.1,305.1H2016.1z M2399.4,427.8H2340l-3-31.2
		c-20.9,26.9-53.4,38.5-86.8,38.5c-90.2,0-145.7-70.1-145.7-156.8c0-116.2,81.6-162.8,150.4-162.8c77.8,0,126.9,42.3,140.6,114.1
		h-90.2c-3.4-22.2-22.2-38-44.4-38c-64.5,0-62.4,67.9-62.4,88.9c0,28.6,11.5,78.6,68.8,78.6c21.8,0,44-11.1,48.7-33.8h-41.4v-65.4
		h124.8V427.8z M2424.6,275.3c0-93.2,62-159.8,154.7-159.8c92.7,0,154.7,66.7,154.7,159.8s-62,159.8-154.7,159.8
		C2486.6,435.1,2424.6,368.4,2424.6,275.3z M2666.8,506.2h-21.1v-51h21.1c15.7,0,22.5,11.4,22.5,25.5S2682.5,506.2,2666.8,506.2z
		 M2741.1,506.2l-4.8-13.5H2716l-4.8,13.5h-9.2l19.6-51h9.5l19.6,51H2741.1z M2796,463h-16.2v43.2h-8.9V463h-16.1v-7.7h41.2V463z
		 M2839.3,506.2l-4.8-13.5h-20.3l-4.8,13.5h-9.2l19.6-51h9.5l19.6,51H2839.3z M2850.6,261.2v166.7h-88.9V122.7h96.1l88.9,163.2h0.9
		V122.7h88.9v305.1h-91.5l-93.6-166.7H2850.6z M2929.7,506.2h-34.8v-51h8.9v43.2h25.9V506.2z M2976.4,463h-16.2v43.2h-8.9V463h-16.1
		v-7.7h41.2V463z M3014.1,506.2H2993v-51h21.1c15.7,0,22.5,11.4,22.5,25.5S3029.8,506.2,3014.1,506.2z M3050.3,506.2h-9.9v-9.6h9.9
		V506.2z M3248.9,431.2c-133.8,0-134.2-94-132-116.2h81.2c-0.4,15.8,3.4,27.8,11.5,35.5c8.1,9.8,20.5,13.3,35.5,13.3
		c24.4,0,39.7-9,39.7-33.3c0-26.1-20.1-30.8-39.7-30.8c-12.4,0-18.4,1.3-24.8,2.1v-58.1c6.4,0.4,13.3,1.7,24.8,1.7
		c17.9,0,40.6-3.8,40.6-26.9c0-18.8-21.4-26.1-38.9-26.1c-23.1,0-41.9,12.4-41,37.2h-80.3c0.4-35,14.5-60.7,37.2-77.8
		c22.6-16.7,53.4-24.8,86.8-24.8c86.3,0,115,51.3,115,76.5c0,62.4-39.3,62.4-39.3,63.7v0.9c0,3.4,48.7,3.4,48.7,69.7
		C3373.7,374,3346.3,431.2,3248.9,431.2z M3630.9,427.8h-257.7c-1.7-28.6,6.8-53.4,21.4-73.5c24.8-34.6,67.5-57.3,105.6-80.3
		c15.4-9.4,40.2-21.4,40.2-43.2c0-26.9-15.8-36.3-35.9-36.3c-34.2,0-45.7,24.8-44.9,61.1h-80.4c-4.7-81.6,46.2-128.6,126.1-128.6
		c72.2,0,121.4,30.3,121.4,93.6c0,76.1-74.4,100-130.3,134.2v0.4h134.6V427.8z"/>
	<path d="M1634,195.3h-44V256h49.1c17.5,0,41.4-3,41.4-30.3C1680.6,206.5,1669.9,195.3,1634,195.3z"/>
	<polygon points="1956.2,224.8 1926.8,318.8 1984.5,318.8 1957.1,224.8 	"/>
</g>
</svg>
