<svg enable-background="new 0 0 3840 550.5" version="1.1" viewBox="0 0 3840 550.5" xml:space="preserve" xmlns="http://www.w3.org/2000/svg"><defs><linearGradient id="SVGID_1_" x1="1175.9423" x2="3036.531" y1="275.26041" y2="275.26041" gradientUnits="userSpaceOnUse">
					<stop stop-color="#EA2427" offset=".1596"/>
					<stop stop-color="#FFCC05" offset=".5303"/>
					<stop stop-color="#6DBD46" offset=".7318"/>
					<stop stop-color="#46A2DA" offset="1"/>
				</linearGradient></defs>
<path d="m3755.5 550.5h-3671c-46.7 0-84.5-37.8-84.5-84.5v-381.5c0-46.7 37.8-84.5 84.5-84.5h3670.9c46.7 0 84.5 37.8 84.5 84.5v381.5c0.1 46.7-37.7 84.5-84.4 84.5z"/><path d="m811 42c-44.89996 0-86.4008 24.00082-108.80078 62.80078l-34.89844 60.19922-1.10156 1.80078-76.69922 132.89844h47.69922l100.70117-174.29883c14.99999-25.999973 42.99964-42.201171 73.09961-42.201171h212.6992l23.8008-41.199219h-164.90039-71.59961zm-421.5 2.199219-40.5 40.5h20.90039l19.59961-19.59961 19.69922 19.59961h20.80078l-40.5-40.5zm-154.90039 48.300781 23.90039 41.30078h159.59961c30.49997 0 57.79962 15.79925 73.09961 42.19922 15.19998 26.39997 15.19998 58.00042 0 84.40039l-15.29883 26.5c-7.39999 12.79999-7.39999 28.49884 0 41.29883s20.99884 20.70117 35.79883 20.70117h473.30078c30.5 0 57.7996 15.79925 73.0996 42.19922 13.4 23.29998 15.0008 50.6008 4.8008 74.80078l-24.7012 42.79883h48.5l7.3008-12.59961c48.4-83.79992-12.1009-188.5-108.80078-188.5h-255.59961-144.5-73.5l15.40039-26.59961c48.39995-83.79992-12.10088-188.5-108.80078-188.5h-1.19922l-27.40039 27.40039-27.40039-27.40039h-127.59961zm576.30078 2.699219c-25.79997 0-49.80118 13.901191-62.70117 36.201171l-34.79883 60.19922-1 1.80078-61.40039 106.40039h21.30078l92.09961-159.60156c9.49999-16.49998 27.09963-26.59961 46.09961-26.59961h195.6992l10.6016-18.400391h-134.20119-71.69922zm-0.40039 30.300781c-14.79999 0-28.40079 7.89923-35.80078 20.69922l-88.69922 153.60156h47.69922l47.70117-82.5h164.90039l53-91.80078h-188.80078zm-588.69922 4.59961-36.5 23 63 23-6.80078-12.09961h178c18.99998 0 36.59962 10.09963 46.09961 26.59961s9.49999 36.8008 0 53.30078l-15.29883 26.5c-13.09999 22.59998-13.09999 49.70041 0 72.40039s36.49925 36.19922 62.69922 36.19922h144.40039 329c19.00001 0 36.59961 10.09963 46.09961 26.59961s9.5 36.8008 0 53.30078l-28.5996 49.5h21.1992l22.5996-39.20117c13.1-22.59998 13.1-49.69846 0-72.39844s-36.4992-36.20117-62.6992-36.20117h-473.30078c-18.99998 0-36.59962-10.09963-46.09961-26.59961s-9.49999-36.8008 0-53.30078l15.30078-26.5c13.09999-22.59998 13.09999-49.69846 0-72.39844s-36.5012-36.20117-62.70117-36.20117h-187.39844l-9-15.5zm61.09961 45.80078 23.79883 41.40039h112.70117l-15.30078 26.5c-48.39995 83.79992 12.10088 188.5 108.80078 188.5h473.29883l-44 76.19922h47.80078l32-55.5c7.4-12.79999 7.4-28.50079 0-41.30078s-21.0008-20.69922-35.80078-20.69922h-473.19922c-30.49997 0-57.79962-15.79925-73.09961-42.19922-15.19998-26.39997-15.19998-58.00042 0-84.40039l15.29883-26.5c7.39999-12.79999 7.39999-28.50079 0-41.30078s-20.99884-20.69922-35.79883-20.69922h-136.5zm225.59961 264.19922-39.5 68.5h47.69922l39.5-68.5h-47.69922zm61.5 0-39.5 68.5h21.19922l39.60156-68.5h-21.30078zm35.09961 0-39.59961 68.5h47.69922l39.60156-68.5h-47.70117z" fill="#ec2224"/><path fill="#FFF" d="m3249.4004 126.90039c-33.4 0-64.2008 8.09885-86.8008 24.79883-22.7 17.09998-36.7992 42.80081-37.1992 77.80078v0.19922h80.5c-0.9-24.79998 17.9-37.19922 41-37.19922 17.5 0 38.9004 7.29963 38.9004 26.09961 0 23.09998-22.7016 26.90039-40.6016 26.90039-11.5 0-18.3988-1.29922-24.7988-1.69922v58.09961c6.4-0.8 12.3988-2.09961 24.7988-2.09961 19.6 0 39.7012 4.69886 39.7012 30.79883 0 24.29998-15.3012 33.30078-39.7012 33.30078-15 0-27.4-3.50079-35.5-13.30078-8.1-7.69999-11.9-19.70002-11.5-35.5h-81.1992c-2.2 22.19998-1.7999 116.20117 132 116.20117 97.4999 0 124.8008-57.3016 124.8008-93.60156 0-66.29993-48.7012-66.29922-48.7012-69.69922v-0.90039c0-1.3 39.3008-1.29928 39.3008-63.69922 0-25.19997-28.7001-76.5-115-76.5zm255.9004 0.09961c-79.8999 0-130.8016 46.99969-126.1016 128.59961h80.5c-0.8-36.29996 10.7004-61.09961 44.9004-61.09961 20.1 0 35.9004 9.40081 35.9004 36.30078 0 21.79998-24.7992 33.79923-40.1992 43.19922-38.1 22.99998-80.8016 45.70082-105.6016 80.30078-14.6 20.09998-23.0984 44.90003-21.3984 73.5h257.6992v-72.60156h-134.5996v-0.39844c55.8999-34.19996 130.2988-58.10125 130.2988-134.20117 0-63.29994-49.1985-93.59961-121.3984-93.59961zm-859.6016 328.30078v51h21.1016c15.7 0 22.5-11.40001 22.5-25.5 0-14.09998-6.8-25.5-22.5-25.5h-21.1016zm75.9004 0-19.5996 51h9.1992l4.8008-13.5h20.3008l4.7988 13.5h9.5996l-19.5996-51h-9.5zm33.2012 0v7.69922h16.0996v43.19922h8.9004v-43.19922h16.1992v-7.69922h-41.1992zm64.8984 0-19.5996 51h9.2012l4.7988-13.5h20.3008l4.7988 13.5h9.6016l-19.6016-51h-9.5zm75.2012 0v50.89844h34.7988v-7.69922h-25.8984v-43.19922h-8.9004zm40.1992 0v7.69922h16.0996v43.19922h8.9004v-43.19922h16.2012v-7.69922h-41.2012zm57.9004 0v51h21.0996c15.7 0 22.5-11.40001 22.5-25.5 0-14.09998-6.8-25.5-22.5-25.5h-21.0996zm-338.4004 7.19922h8.8008c14 0 17 7.99923 17 18.19922s-3 18.20117-17 18.20117h-8.8008v-36.40039zm347.3008 0h8.7988c14 0 17 7.99923 17 18.19922s-3 18.20117-17 18.20117h-8.7988v-36.40039zm-275.7012 1.59961h0.2012l7.5996 21.90039h-15.5996l7.7988-21.90039zm98.2012 0h0.1992l7.5996 21.90039h-15.5996l7.8008-21.90039zm216 32.5v9.59961h9.9004v-9.59961h-9.9004z"/><path d="m1330.2 122.7h-154.3v305.1h135.9c106.4 0 156-59.4 156-153 0-76.9-35.9-152.1-137.6-152.1zm-23.5 226.9h-36.7v-148.7h29.9c68 0 73.9 53.4 73.9 72.6 0 28.7-8.5 76.1-67.1 76.1zm422.2-63.2c31.2-11.5 45.7-44.9 45.7-76.5 0-57.7-46.2-87.2-99.6-87.2h-179v305.1h94v-106.4h50c37.2 0 39.7 30.3 42.3 59.4 1.3 15.8 3 31.6 7.7 47h94c-8.5-14.1-9-50.4-10.2-65.4-3.4-38-19.2-66.2-44.9-76zm-89.7-30.4h-49.2v-60.7h44c35.9 0 46.6 11.1 46.6 30.3 0 27.4-23.9 30.4-41.4 30.4zm271.3-133.3-112.4 305.1h94.4l13.7-43.6h97l12.8 43.6h97.4l-111.1-305.1zm16.3 196.1 29.5-94h0.9l27.4 94zm347.8 6.5h41.4c-4.7 22.6-26.9 33.8-48.7 33.8-57.3 0-68.8-50-68.8-78.6 0-20.9-2.1-88.9 62.4-88.9 22.2 0 41 15.8 44.4 38h90.2c-13.7-71.8-62.8-114.1-140.6-114.1-68.8 0-150.4 46.6-150.4 162.8 0 86.7 55.6 156.8 145.7 156.8 33.3 0 65.8-11.5 86.8-38.5l3 31.2h59.4v-167.9h-124.8zm304.7-209.9c-92.7 0-154.7 66.7-154.7 159.8s62 159.8 154.7 159.8 154.7-66.7 154.7-159.8-62-159.8-154.7-159.8zm0 243.6c-23.9 0-60.7-15.8-60.7-83.8s36.8-83.8 60.7-83.8 60.7 15.8 60.7 83.8-36.8 83.8-60.7 83.8zm368.3-236.3v163.2h-0.9l-88.9-163.2h-96.1v305.1h88.9v-166.6h0.9l93.6 166.7h91.5v-305.2z" fill="url(#SVGID_1_)"/>
</svg>
