<svg enable-background="new 0 0 3840 550.5" version="1.1" viewBox="0 0 3840 550.5" xml:space="preserve" xmlns="http://www.w3.org/2000/svg">
<path d="m84.5 0c-46.699953 0-84.5 37.800047-84.5 84.5v381.5c0 46.69995 37.800047 84.5 84.5 84.5h3670.9004c46.6999 0 84.5-37.80005 84.5-84.5v-381.5c0.1-46.699953-37.7004-84.5-84.4004-84.5h-3671zm726.5 42h71.69922 164.90038l-23.9004 41.300781h-212.6992c-29.99997 0-57.99962 16.199245-73.09961 42.199219l-100.70117 174.30078h-47.69922l76.80078-132.90039 1.09961-1.80078 34.79883-60.19922c22.39998-38.99996 63.90082-62.90039 108.80078-62.90039zm-421.5 2.199219 40.5 40.5h-20.80078l-19.69922-19.699219-19.69922 19.699219h-20.80078l40.5-40.5zm-154.90039 48.201172h127.59961l27.40039 27.400389 27.40039-27.400389h1.19922c96.6999 0 157.20073 104.700079 108.80078 188.499999l-15.30078 26.5h73.5 144.20117 255.59961c96.5999 0.1 157.0992 104.79969 108.6992 188.59961l-7.2988 12.59961h-48.4004l24.6992-42.79883c10.3-24.19997 8.7012-51.5008-4.7988-74.80078-15.2-26.39997-42.5996-42.19922-73.09962-42.19922h-473.30078c-14.79999 0-28.40079-7.90118-35.80078-20.70117s-7.39999-28.49884 0-41.29883l15.30078-26.5c15.19998-26.39997 15.19998-58.00042 0-84.40039s-42.59964-42.20117-73.09961-42.20117h-159.40039l-23.90039-41.298829zm576.30078 2.90039h71.69922 134.20119l-10.6016 18.398439h-195.6992v-0.09961c-18.99998 0-36.59962 10.09963-46.09961 26.59961l-92.09961 159.60156h-21.30078l61.40039-106.30078 1-1.80078 34.79883-60.19922c12.89999-22.29998 36.9012-36.199219 62.70117-36.199219zm1444.00001 20.199219c77.7999 0 126.8996 42.29968 140.5996 114.09961h-90.1992c-3.4-22.19998-22.2004-38-44.4004-38-64.4999 0-62.4004 67.90041-62.4004 88.90039 0 28.59997 11.5008 78.59961 68.8008 78.59961 21.8 0 43.9992-11.09885 48.6992-33.79883h-41.4004v-65.40039h124.8008v167.90039h-59.4004l-3-31.20117c-20.9 26.89997-53.4008 38.5-86.8008 38.5-90.1999 0-145.6992-70.09892-145.6992-156.79883 0-116.19988 81.6005-162.80078 150.4004-162.80078zm324.4004 0c92.6999 0 154.6992 66.70087 154.6992 159.80078s-61.9993 159.79883-154.6992 159.79883-154.7012-66.69892-154.7012-159.79883c0-93.19991 62.0013-159.80078 154.7012-159.80078zm-1403.4004 7.19922h154.2988c101.6999 0 137.6016 75.20164 137.6016 152.10156 0 93.59991-49.5001 153-156 153h-135.9004v-305.10156zm320.0996 0h179.0996c53.4 0 99.5996 29.50123 99.5996 87.20117 0 31.59997-14.4992 65.00001-45.6992 76.5 25.6 9.79999 41.5004 37.99965 44.9004 76.09961 1.3 14.99998 1.6992 51.3004 10.1992 65.40039h-94.0996v-0.09961c-4.7-15.39998-6.3992-31.20001-7.6992-47-2.6-29.09997-5.1008-59.40039-42.3008-59.40039h-50v106.40039h-94v-305.10156zm414.5996 0h91.9004l111.0996 305.10156h-97.5l-12.7988-43.60156h-97l-13.7012 43.60156h-94.4004l112.4004-305.10156zm851.0996 0h96.1016l88.8984 163.20117h0.9004v-163.20117h88.9004v305.10156h-91.5l-93.5996-166.70117h-0.8008v0.09961 166.70117h-88.9004v-305.20117zm-1951.09959 2.70117h188.70117v0.09961l-53 91.80078h-164.90039l-47.59961 82.39844h-47.70117l88.70117-153.59961c7.39999-12.79999 20.99884-20.69922 35.79883-20.69922zm2438.90039 1.59961c86.2999 0 115 51.30003 115 76.5 0 62.39994-39.3008 62.39922-39.3008 63.69922v0.90039c0 3.4 48.7012 3.40124 48.7012 69.70117-0.2 36.19997-27.6001 93.39844-125 93.39844-133.7999 0-134.2-93.99924-132-116.19922h81.1992c-0.4 15.79998 3.4 27.80001 11.5 35.5 8.1 9.79999 20.5 13.30078 35.5 13.30078 24.4 0 39.7012-9.0008 39.7012-33.30078 0-26.09997-20.1012-30.80078-39.7012-30.80078-12.4 0-18.3988 1.30156-24.7988 2.10156v-58.10156c6.4 0.4 13.2988 1.70117 24.7988 1.70117 17.9 0 40.5996-3.80041 40.5996-26.90039 0-18.79998-21.3984-26.09961-38.8984-26.09961-23.1 0-41.9 12.39924-41 37.19922h-80.3008c0.4-34.99997 14.4992-60.69885 37.1992-77.79883 22.6-16.69998 53.4008-24.80078 86.8008-24.80078zm255.8008 0c72.1999 0 121.3984 30.29967 121.3984 93.59961 0 76.09992-74.3989 100.00121-130.2988 134.20117v0.39844h134.5996v72.60156h-0.0996-257.7012c-1.7-28.59997 6.8004-53.40002 21.4004-73.5 24.8-34.59996 67.4997-57.3008 105.5996-80.30078 15.4-9.39999 40.2012-21.39924 40.2012-43.19922 0-26.89997-15.8004-36.30078-35.9004-36.30078-34.2 0-45.7004 24.79965-44.9004 61.09961h-80.4004c-4.7-81.59992 46.2017-128.59961 126.1016-128.59961zm-3283.50002 3.19922 9 15.5h187.39844c26.19997 0 49.60118 13.50119 62.70117 36.20117s13.09999 49.80041 0 72.40039l-15.30078 26.5c-9.49999 16.49998-9.49999 36.79885 0 53.29883s27.09963 26.59961 46.09961 26.59961h473.30078c26.2 0 49.5992 13.50119 62.6992 36.20117s13.1 49.80041 0 72.40039l-22.5996 39.19922h-21.3437l28.5449-49.40039c9.5-16.49998 9.5-36.79885 0-53.29883s-27.1016-26.60156-46.10158-26.60156h-329-144.19922c-26.19997 0-49.59923-13.49924-62.69922-36.19922s-13.09999-49.80041 0-72.40039l15.29883-26.5c9.49999-16.49998 9.49999-36.79885 0-53.29883s-27.09963-26.60156-46.09961-26.60156h-178l6.80078 12-63-23 36.5-23zm61.09961 45.80078h136.59961c14.79999 0 28.40079 7.89923 35.80078 20.69922s7.39999 28.50079 0 41.30078l-15.30078 26.5c-15.19998 26.39997-15.19998 58.00042 0 84.40039s42.59964 42.19922 73.09961 42.19922h473.30078c14.80001 0 28.39881 7.90118 35.79881 20.70117s7.4 28.49884 0 41.29883l-32.1992 55.5h-47.69922l44-76.19922h-473.30078c-96.6999 0-157.20073-104.70008-108.80078-188.5l15.30078-26.5h-112.80078l-23.79883-41.40039zm2296.40041 15.5c-23.9 0-60.7012 15.80085-60.7012 83.80078s36.8012 83.79883 60.7012 83.79883 60.6992-15.7989 60.6992-83.79883-36.7992-83.80078-60.6992-83.80078zm-989.3008 3.80078v60.69922h49.0996c17.5 0 41.4004-3.00081 41.4004-30.30078 0.1-19.19998-10.6-30.39844-46.5-30.39844h-44zm-320 5.59961v148.69922h36.8008c58.4999 0 67.0996-47.39964 67.0996-76.09961-0.1-19.19998-6.1001-72.59961-74-72.59961h-29.9004zm686.1992 23.90039-29.3984 94h57.6992l-27.4004-94h-0.9004zm-1447.6992 215.29883h47.69922l-39.5 68.5h-47.69922l39.5-68.5zm61.5 0h21.19922l-39.5 68.5h-21.19922l39.5-68.5zm35 0h47.69922l-39.5 68.5h-47.69922l39.5-68.5zm2040.6992 15.09961h21.1016c15.7 0 22.5 11.40001 22.5 25.5 0 14.09998-6.8 25.5-22.5 25.5h-21.1016v-51zm75.9004 0h9.5l19.5996 51h-9.5996l-4.7988-13.5h-20.3008l-4.8008 13.5h-9.1992l19.5996-51zm98.2012 0h9.5l19.5996 51h-9.5996l-4.8008-13.5h-20.3008l-4.7988 13.5h-9.2012l19.6016-51zm75.0996 0h8.9004v43.20117h25.8984v7.79883h-34.7988v-51zm98.0996 0h21.0996c15.7 0 22.5 11.40001 22.5 25.5 0 14.09998-6.8 25.5-22.5 25.5h-21.0996v-51zm-238.1992 0.10156h41.1992v7.69922h-16.1992v43.19922h-8.9004v-43.19922h-16.0996v-7.69922zm180.3984 0h41.2012v7.69922h-16.2012v43.19922h-8.8984v-43.19922h-16.1016v-7.69922zm-280.5996 7.19922v36.40039h8.8008c14 0 17-8.00118 17-18.20117s-3-18.19922-17-18.19922h-8.8008zm347.3008 0v36.40039h8.7988c14 0 17-8.00118 17-18.20117s-3.1-18.19922-17-18.19922h-8.7988zm-275.8008 1.5-7.6992 22h15.5996l-7.6992-22h-0.2012zm98.2012 0-7.7012 22h15.5l-7.5996-22h-0.1992zm216.0996 32.59961h9.9004v9.59961h-9.9004v-9.59961z"/>
</svg>
