<?xml version="1.0" encoding="utf-8"?>
<!-- Generator: Adobe Illustrator 25.0.0, SVG Export Plug-In . SVG Version: 6.00 Build 0)  -->
<svg version="1.1" id="Layer_1" xmlns="http://www.w3.org/2000/svg" xmlns:xlink="http://www.w3.org/1999/xlink" x="0px" y="0px"
	 viewBox="0 0 3840 550.5" style="enable-background:new 0 0 3840 550.5;" xml:space="preserve">
<style type="text/css">
	.st0{fill:#EC2224;}
	.st1{fill:#FFFFFF;}
	.st2{fill:url(#SVGID_1_);}
	.st3{fill:url(#SVGID_2_);}
	.st4{fill:url(#SVGID_3_);}
	.st5{fill:url(#SVGID_4_);}
	.st6{fill:url(#SVGID_5_);}
	.st7{fill:url(#SVGID_6_);}
	.st8{fill:url(#SVGID_7_);}
	.st9{fill:url(#SVGID_8_);}
	.st10{fill:url(#SVGID_9_);}
	.st11{fill:url(#SVGID_10_);}
	.st12{fill:url(#SVGID_11_);}
	.st13{fill:url(#SVGID_12_);}
	.st14{fill:url(#SVGID_13_);}
	.st15{fill:url(#SVGID_14_);}
	.st16{fill:url(#SVGID_15_);}
	.st17{fill:url(#SVGID_16_);}
	.st18{fill:url(#SVGID_17_);}
	.st19{fill:url(#SVGID_18_);}
	.st20{fill:url(#SVGID_19_);}
	.st21{fill:url(#SVGID_20_);}
	.st22{fill:url(#SVGID_21_);}
	.st23{fill:url(#SVGID_22_);}
	.st24{fill:url(#SVGID_23_);}
	.st25{fill:url(#SVGID_24_);}
	.st26{fill:url(#SVGID_25_);}
	.st27{fill:url(#SVGID_26_);}
	.st28{fill:url(#SVGID_27_);}
	.st29{fill:url(#SVGID_28_);}
	.st30{fill:url(#SVGID_29_);}
	.st31{fill:url(#SVGID_30_);}
	.st32{fill:url(#SVGID_31_);}
	.st33{fill:url(#SVGID_32_);}
	.st34{fill:url(#SVGID_33_);}
	.st35{fill:url(#SVGID_34_);}
	.st36{fill:url(#SVGID_35_);}
	.st37{fill:url(#SVGID_36_);}
	.st38{fill:url(#SVGID_37_);}
	.st39{fill:url(#SVGID_38_);}
</style>
<g>
	<path d="M3755.5,550.5H84.5C37.8,550.5,0,512.7,0,466V84.5C0,37.8,37.8,0,84.5,0h3670.9c46.7,0,84.5,37.8,84.5,84.5V466
		C3840,512.7,3802.2,550.5,3755.5,550.5z"/>
	<g>
		<polygon class="st0" points="591.3,440.1 551.7,508.6 530.5,508.6 570,440.1 		"/>
		<path class="st0" d="M672.3,299.8l92.1-159.6c9.5-16.5,27.1-26.6,46.1-26.6h195.7l10.6-18.4H882.6l-71.7,0
			c-25.8,0-49.8,13.9-62.7,36.2l-34.8,60.2l-1,1.8L651,299.8H672.3z"/>
		<g>
			<path class="st0" d="M1047.5,42l-164.9,0l0,0H811c-44.9,0-86.4,24-108.8,62.8L667.3,165l-1.1,1.8l-76.7,132.9h47.7l100.7-174.3
				c15-26,43-42.2,73.1-42.2h212.7L1047.5,42z"/>
			<path class="st0" d="M781.4,217.3h164.9l53-91.8H810.5c-14.8,0-28.4,7.9-35.8,20.7l-88.7,153.6h47.7L781.4,217.3z"/>
			<polygon class="st0" points="652.8,440.1 613.2,508.6 565.5,508.6 605.1,440.1 			"/>
			<polygon class="st0" points="508.5,440.1 469,508.6 516.7,508.6 556.2,440.1 			"/>
		</g>
		<path class="st0" d="M306.7,217.3h112.7l-15.3,26.5c-48.4,83.8,12.1,188.5,108.8,188.5h0l473.3,0l-44,76.2H990L1022,453
			c7.4-12.8,7.4-28.5,0-41.3c-7.4-12.8-21-20.7-35.8-20.7H513c-30.5,0-57.8-15.8-73.1-42.2c-15.2-26.4-15.2-58,0-84.4l15.3-26.5
			c7.4-12.8,7.4-28.5,0-41.3c-7.4-12.8-21-20.7-35.8-20.7H282.9L306.7,217.3z"/>
		<path class="st0" d="M258.5,133.8h159.6c30.5,0,57.8,15.8,73.1,42.2c15.2,26.4,15.2,58,0,84.4l-15.3,26.5
			c-7.4,12.8-7.4,28.5,0,41.3c7.4,12.8,21,20.7,35.8,20.7l473.3,0c30.5,0,57.8,15.8,73.1,42.2c13.4,23.3,15,50.6,4.8,74.8
			l-24.7,42.8h48.5l7.3-12.6c48.4-83.8-12.1-188.5-108.8-188.5l-255.6,0H585.1l-73.5,0L527,281c48.4-83.8-12.1-188.5-108.8-188.5
			h-1.2l-27.4,27.4l-27.4-27.4H234.6L258.5,133.8z"/>
		<g>
			<polygon class="st0" points="369.9,84.7 389.5,65.1 409.2,84.7 430,84.7 389.5,44.2 349,84.7 			"/>
		</g>
		<path class="st0" d="M248.3,176.1l-63-23l36.5-23l9,15.5h187.4c26.2,0,49.6,13.5,62.7,36.2c13.1,22.7,13.1,49.8,0,72.4l-15.3,26.5
			c-9.5,16.5-9.5,36.8,0,53.3c9.5,16.5,27.1,26.6,46.1,26.6l473.3,0c26.2,0,49.6,13.5,62.7,36.2c13.1,22.7,13.1,49.8,0,72.4
			l-22.6,39.2h-21.2l28.6-49.5c9.5-16.5,9.5-36.8,0-53.3c-9.5-16.5-27.1-26.6-46.1-26.6h-329H513c-26.2,0-49.6-13.5-62.7-36.2
			c-13.1-22.7-13.1-49.8,0-72.4l15.3-26.5c9.5-16.5,9.5-36.8,0-53.3c-9.5-16.5-27.1-26.6-46.1-26.6h-178L248.3,176.1z"/>
	</g>
	<g>
		<path class="st1" d="M3379.2,255.6c-4.7-81.6,46.2-128.6,126.1-128.6c72.2,0,121.4,30.3,121.4,93.6c0,76.1-74.4,100-130.3,134.2
			v0.4h134.6v72.6h-257.7c-1.7-28.6,6.8-53.4,21.4-73.5c24.8-34.6,67.5-57.3,105.6-80.3c15.4-9.4,40.2-21.4,40.2-43.2
			c0-26.9-15.8-36.3-35.9-36.3c-34.2,0-45.7,24.8-44.9,61.1H3379.2z"/>
		<g>
			<path class="st1" d="M2645.7,455.3h21.1c15.7,0,22.5,11.4,22.5,25.5s-6.8,25.5-22.5,25.5h-21.1V455.3z M2654.6,498.9h8.8
				c14,0,17-8,17-18.2s-3-18.2-17-18.2h-8.8V498.9z"/>
			<path class="st1" d="M2721.6,455.3h9.5l19.6,51h-9.6l-4.8-13.5H2716l-4.8,13.5h-9.2L2721.6,455.3z M2718.4,486h15.6l-7.6-21.9
				h-0.2L2718.4,486z"/>
			<path class="st1" d="M2754.8,455.3h41.2v7.7h-16.2v43.2h-8.9V463h-16.1V455.3z"/>
			<path class="st1" d="M2819.7,455.3h9.5l19.6,51h-9.6l-4.8-13.5h-20.3l-4.8,13.5h-9.2L2819.7,455.3z M2816.6,486h15.6l-7.6-21.9
				h-0.2L2816.6,486z"/>
			<path class="st1" d="M2894.9,455.3h8.9v43.2h25.9v7.7h-34.8V455.3z"/>
			<path class="st1" d="M2935.1,455.3h41.2v7.7h-16.2v43.2h-8.9V463h-16.1V455.3z"/>
			<path class="st1" d="M2993,455.3h21.1c15.7,0,22.5,11.4,22.5,25.5s-6.8,25.5-22.5,25.5H2993V455.3z M3001.9,498.9h8.8
				c14,0,17-8,17-18.2s-3-18.2-17-18.2h-8.8V498.9z"/>
			<path class="st1" d="M3040.4,496.6h9.9v9.6h-9.9V496.6z"/>
		</g>
		<g>
			<g>
				<linearGradient id="SVGID_1_" gradientUnits="userSpaceOnUse" x1="1175.9423" y1="275.2604" x2="3036.531" y2="275.2604">
					<stop  offset="0.1596" style="stop-color:#EA2427"/>
					<stop  offset="0.5303" style="stop-color:#FFCC05"/>
					<stop  offset="0.7318" style="stop-color:#6DBD46"/>
					<stop  offset="1" style="stop-color:#46A2DA"/>
				</linearGradient>
				<path class="st2" d="M1330.2,122.7h-154.3v305.1h135.9c106.4,0,156-59.4,156-153C1467.8,197.9,1431.9,122.7,1330.2,122.7z
					 M1306.7,349.6H1270V200.9h29.9c68,0,73.9,53.4,73.9,72.6C1373.8,302.2,1365.3,349.6,1306.7,349.6z M1728.9,286.4
					c31.2-11.5,45.7-44.9,45.7-76.5c0-57.7-46.2-87.2-99.6-87.2H1496v305.1h94V321.4h50c37.2,0,39.7,30.3,42.3,59.4
					c1.3,15.8,3,31.6,7.7,47h94c-8.5-14.1-9-50.4-10.2-65.4C1770.4,324.4,1754.6,296.2,1728.9,286.4z M1639.2,256H1590v-60.7h44
					c35.9,0,46.6,11.1,46.6,30.3C1680.6,253,1656.7,256,1639.2,256z M1910.5,122.7l-112.4,305.1h94.4l13.7-43.6h97l12.8,43.6h97.4
					l-111.1-305.1H1910.5z M1926.8,318.8l29.5-94h0.9l27.4,94H1926.8z M2274.6,325.3h41.4c-4.7,22.6-26.9,33.8-48.7,33.8
					c-57.3,0-68.8-50-68.8-78.6c0-20.9-2.1-88.9,62.4-88.9c22.2,0,41,15.8,44.4,38h90.2c-13.7-71.8-62.8-114.1-140.6-114.1
					c-68.8,0-150.4,46.6-150.4,162.8c0,86.7,55.6,156.8,145.7,156.8c33.3,0,65.8-11.5,86.8-38.5l3,31.2h59.4V259.9h-124.8V325.3z
					 M2579.3,115.4c-92.7,0-154.7,66.7-154.7,159.8s62,159.8,154.7,159.8c92.7,0,154.7-66.7,154.7-159.8S2672,115.4,2579.3,115.4z
					 M2579.3,359c-23.9,0-60.7-15.8-60.7-83.8s36.8-83.8,60.7-83.8c23.9,0,60.7,15.8,60.7,83.8S2603.2,359,2579.3,359z
					 M2947.6,122.7v163.2h-0.9l-88.9-163.2h-96.1v305.1h88.9V261.2h0.9l93.6,166.7h91.5V122.7H2947.6z"/>
			</g>
		</g>
		<path class="st1" d="M3125.4,229.5c0.4-35,14.5-60.7,37.2-77.8c22.6-16.7,53.4-24.8,86.8-24.8c86.3,0,115,51.3,115,76.5
			c0,62.4-39.3,62.4-39.3,63.7v0.9c0,3.4,48.7,3.4,48.7,69.7c0,36.3-27.3,93.6-124.8,93.6c-133.8,0-134.2-94-132-116.2h81.2
			c-0.4,15.8,3.4,27.8,11.5,35.5c8.1,9.8,20.5,13.3,35.5,13.3c24.4,0,39.7-9,39.7-33.3c0-26.1-20.1-30.8-39.7-30.8
			c-12.4,0-18.4,1.3-24.8,2.1v-58.1c6.4,0.4,13.3,1.7,24.8,1.7c17.9,0,40.6-3.8,40.6-26.9c0-18.8-21.4-26.1-38.9-26.1
			c-23.1,0-41.9,12.4-41,37.2H3125.4z"/>
	</g>
</g>
</svg>
