<svg version="1.1" viewBox="-64 344.8 370.33917 80.829211" xmlns="http://www.w3.org/2000/svg"><path d="m-23.585938 344.8c-22.358606 0-40.414062 18.13229-40.414062 40.41406 0 22.35861 18.13229 40.41602 40.414062 40.41602 4.302688 0 8.453238-0.69253 12.294922-1.92188v-20.20703c-3.380681 1.92085-7.3002 3.07227-11.449218 3.07227-12.293392 0-22.205078-9.60382-22.205078-21.35938s9.988519-21.35937 22.205078-21.35937c4.225852 0 8.145371 1.15337 11.449218 3.07422v-20.20899c-3.841684-1.22934-7.992234-1.91992-12.294922-1.91992zm71.917969 2.30469c-4.225854 0-8.453335 0.76801-11.603515 2.30469-6.22353 2.9965-9.44938 9.9117-8.296875 17.4414 0.614669 3.8417 1.612329 5.99315 3.763671 8.375 2.151344 2.38185 4.763848 3.91979 8.144532 4.8418 2.07451 0.61467 3.457709 0.76758 7.914062 0.76758 3.380684 0 6.146954-0.53837 7.453125-0.84571l-0.615234-6.83789-2.074219 0.53711c-4.456353 1.1525-9.450785 0.38509-12.216797-1.91992-4.533188-3.68803-4.531865-12.52361-0.152343-15.9043 1.844008-1.45984 4.685788-2.22851 7.605468-2.22851 1.459842 0 2.919067 0.15294 4.378906 0.53711 1.536675 0.38417 2.076172 0.53906 2.076172 0.53906l0.691407-6.76172c-2.151344-0.38416-4.456013-0.8457-7.06836-0.8457zm168.496089 0.23047v12.83203h-0.07812c-0.99884-1.30618-2.15086-2.15162-3.45703-2.68946-1.30618-0.53783-2.76606-0.76757-4.30274-0.76757-3.15017 0.15367-5.53102 1.30436-7.14453 3.60937-1.61351 2.30502-2.45898 4.91887-2.45898 7.76172 0 3.45753 0.92098 6.30045 2.61133 8.60547 1.76718 2.30501 4.30291 3.53449 7.68359 3.61133 1.84402 0 3.45879-0.46147 4.8418-1.30664s2.38209-1.9204 2.91992-3.22657h0.07617v4.07227h7.22266l-0.07813-32.50195h-7.83594zm69.91797 9.375c-3.61117 0-6.45345 1.07458-8.68164 3.07226-2.22816 2.07451-3.38086 4.9168-3.38086 8.68164 0.0768 3.76486 1.30695 6.68592 3.76563 8.6836 2.45869 2.07449 5.53136 3.07355 9.37305 3.15039 1.45983 0 2.91972-0.07806 4.30273-0.3086 1.38301-0.2305 2.76675-0.61517 3.99609-1.07617v-5.53125c-1.15251 0.61467-2.38264 1.07613-3.53515 1.30664-1.15251 0.30733-2.30518 0.38477-3.38086 0.38477-1.92084 0-3.45687-0.30849-4.60938-1-1.15251-0.6915-1.84372-1.76606-2.07422-3.30274l15.59571 0.07618v-1.46094c0.0768-3.45752-0.84481-6.45409-2.53516-8.83594-1.76718-2.45869-4.68691-3.68617-8.83594-3.83984zm-216.593746 0.07617c-3.841685 0-6.916322 1.0746-9.375 3.07226-2.458679 1.99768-3.686838 4.99491-3.763672 8.75977 0.07683 3.76486 1.304993 6.68396 3.763672 8.68164 2.458678 1.99768 5.533315 3.07422 9.375 3.07422 3.841684 0 6.914367-1.07654 9.373047-3.07422 2.458677-2.07452 3.688792-4.91678 3.765625-8.68164-0.07683-3.76486-1.306948-6.68525-3.765625-8.75977-2.45868-2.07449-5.531363-3.07226-9.373047-3.07226zm31.808596 0c-1.76718 0-3.456841 0.384-4.839846 1.15234-1.459841 0.76833-2.535687 1.92165-3.38086 3.53516h-0.078125v-4.15039h-7.144531l-0.076172 22.51367h7.835938v-9.52734c0-2.38185 0.384006-4.22641 1.152344-5.37891 0.768337-1.15251 1.84551-1.69141 3.228515-1.69141 1.075672 0 1.919847 0.46146 2.380857 1.30664 0.461 0.84517 0.76758 1.92039 0.76758 3.22657v12.14062h7.83789v-9.52734c0-2.38185 0.38401-4.2264 1.15235-5.37891 0.76831-1.15251 1.84355-1.68945 3.22656-1.68945 1.07567 0 1.9218 0.45952 2.38281 1.30469 0.461 0.84515 0.76758 1.92234 0.76758 3.22851v12.13867h7.83789v-13.29101c0.0768-3.07335-0.46143-5.45548-1.53711-7.22266-1.07567-1.69034-3.22611-2.61328-6.45313-2.61328-1.61349 0-3.15019 0.3085-4.5332 1-1.38301 0.69151-2.53698 1.76607-3.45898 3.30273-0.61467-1.45983-1.53629-2.53439-2.76563-3.30273-1.22934-0.6915-2.68922-1.07617-4.30273-1.07617zm42.79687 0c-1.76718 0-3.45683 0.384-4.83984 1.15234-1.45985 0.76833-2.53569 1.92165-3.38086 3.53516h-0.07813v-4.15039h-7.14453l-0.07812 22.51367h7.83789v-9.52734c0-2.38185 0.384-4.22641 1.15234-5.37891 0.76834-1.15251 1.84357-1.69141 3.22656-1.69141 1.07568 0 1.92182 0.46146 2.38282 1.30664 0.46101 0.84517 0.76758 1.92039 0.76758 3.22657v12.14062h7.83789v-9.52734c0-2.38185 0.384-4.2264 1.15234-5.37891s1.84355-1.68945 3.22656-1.68945c1.07568 0 1.92183 0.45952 2.38281 1.30469 0.46101 0.84515 0.76758 1.92234 0.76758 3.22851v12.13867h7.83789v-13.29101c0.0768-3.07335-0.46144-5.45548-1.53711-7.22266-1.07566-1.69034-3.22806-2.61328-6.45507-2.61328-1.61351 0-3.1502 0.3085-4.53321 1-1.38301 0.69151-2.53502 1.76607-3.45703 3.30273-0.61467-1.45983-1.53627-2.53439-2.76562-3.30273-1.22934-0.6915-2.68923-1.07617-4.30274-1.07617zm39.26172 0c-3.84167 0-6.91437 1.0746-9.37305 3.07226-2.45867 1.99768-3.68879 4.99491-3.76562 8.75977 0.0768 3.76486 1.30695 6.68396 3.76562 8.68164 2.45868 1.99768 5.60821 3.07422 9.37305 3.07422 3.84169 0 6.91436-1.07654 9.37305-3.07422 2.45868-2.07452 3.68878-4.91678 3.76562-8.68164-0.0768-3.76486-1.30694-6.68525-3.76562-8.75977-2.45869-2.07449-5.53136-3.07226-9.37305-3.07226zm56.70313 0c-3.84169 0-6.91437 1.0746-9.37305 3.07226-2.45868 2.07452-3.68879 4.99491-3.76563 8.75977 0.0768 3.76486 1.30695 6.68396 3.76563 8.68164s5.60819 3.07422 9.37305 3.07422c3.84167 0 6.91632-1.07654 9.375-3.07422 2.45866-2.07452 3.68684-4.91678 3.76367-8.68164-0.0768-3.76486-1.30501-6.68525-3.76367-8.75977-2.45868-2.07449-5.53333-3.07226-9.375-3.07226zm30.19531 0c-1.69035 0-3.07343 0.46147-4.07227 1.30664-1.07567 0.84518-1.91983 1.99785-2.61132 3.38086h-0.07618v-4.15039h-7.14648v22.58984h7.83789v-9.52734c0-2.22818 0.46014-3.99527 1.45898-5.22461s2.38255-1.84375 4.22657-1.84375h1.30468c0.46101 0 0.84563 0.07677 1.30664 0.23047l0.46094-6.53125c-0.38417-0.0768-0.84369-0.1543-1.30469-0.1543-0.46101-0.0768-0.92376-0.07617-1.38476-0.07617zm15.75195 4.91797c1.53667 0 2.68807 0.46081 3.30274 1.38281 0.69151 0.92201 1 1.99657 1 3.30273h-8.60547c0.0768-1.30616 0.46083-2.45755 1.15234-3.30273 0.6915-0.922 1.76738-1.38281 3.15039-1.38281zm-216.517576 0.46093c1.767174 0.0768 3.072798 0.69059 3.917968 1.91993 0.845172 1.22935 1.229178 2.68985 1.152344 4.45703 0 1.69034-0.384005 3.22574-1.152344 4.45508-0.84517 1.22932-2.150794 1.84503-3.917968 1.92187-1.767175-0.0768-3.074752-0.69255-3.919922-1.92187-0.84517-1.22934-1.229178-2.6879-1.152344-4.45508 0-1.76718 0.384008-3.22768 1.152344-4.45703 0.768337-1.22934 2.075913-1.8431 3.919922-1.91993zm113.867186 0c1.76718 0.0768 3.0728 0.69059 3.91797 1.91993 0.84518 1.22935 1.22918 2.68985 1.15234 4.45703 0 1.69034-0.384 3.22574-1.15234 4.45508-0.84517 1.22932-2.07396 1.84503-3.91797 1.92187-1.76718-0.0768-3.0728-0.69255-3.91797-1.92187-0.84517-1.22934-1.22917-2.6879-1.15234-4.45508 0-1.76718 0.384-3.22768 1.15234-4.45703 0.76834-1.22934 2.07396-1.8431 3.91797-1.91993zm56.70313 0c1.76716 0.0768 3.07281 0.69059 3.91796 1.91993 0.76834 1.22935 1.23113 2.68985 1.1543 4.45703 0 1.69034-0.38596 3.22574-1.1543 4.45508-0.76832 1.22932-2.07397 1.84503-3.91796 1.92187-1.76718-0.0768-3.07279-0.69255-3.91797-1.92187-0.76833-1.22934-1.22919-2.6879-1.15235-4.45508 0-1.76718 0.38402-3.22768 1.15235-4.45703 0.76834-1.22934 2.07396-1.8431 3.91797-1.91993zm-28.65821 0.53711c1.45985 0 2.61188 0.61379 3.45703 1.68946 0.84517 1.07567 1.30665 2.45938 1.30664 4.22656 0 1.69035-0.53763 3.07277-1.38281 4.14844-0.84517 1.07567-1.99785 1.61328-3.38086 1.61328-1.45984 0-2.61186-0.6138-3.45703-1.68945-0.84517-1.07568-1.30664-2.5349-1.30664-4.37891 0-1.53668 0.38334-2.84425 1.22852-3.91992 0.84517-1.07567 1.99848-1.61262 3.53515-1.68946zm-222.972653 7.14454v14.0625h16.595703l13.523438-14.0625h-30.119141zm33.730469 14.13867v2.30468h283.517574v-2.30468h-283.517574zm232.882814 4.6875c-3.91852 0-7.0687 1.61348-9.29688 4.76367-2.45867 3.45752-3.15039 7.98965-3.15039 12.13867 0 4.22587 0.69172 8.68244 3.15039 12.2168 2.22818 3.15016 5.37836 4.83984 9.29688 4.83984 3.84168 0 6.99251-1.61348 9.2207-4.76367 2.45868-3.45752 3.15039-7.8373 3.15039-11.98633 0.0768-4.14901-0.61554-8.75795-3.07422-12.36914-2.22816-3.22702-5.37836-4.83984-9.29687-4.83984zm26.73828 0.30664c-3.91852 0-7.0687 1.61348-9.29688 4.76367-2.45867 3.45752-3.15039 7.98966-3.15039 12.13867 0 4.22586 0.69172 8.68245 3.15039 12.2168 2.22818 3.15017 5.37836 4.8418 9.29688 4.8418 3.8417 0 6.99251-1.6135 9.2207-4.76368 2.45868-3.45751 3.15039-7.83732 3.15039-11.98632 0.0768-4.22587-0.61554-8.83674-3.07422-12.3711-2.22816-3.22702-5.37834-4.83984-9.29687-4.83984zm-76.44922 0.07617-3.6875 2.38281-0.1543 8.75781 2.9961-1.91992-0.07617 24.35547 8.14453-0.07617v-33.5h-7.22266zm23.06641 0.00586c-1.66423 0.00825-3.32075 0.32184-4.85743 0.99414-2.22816 0.922-3.99527 2.53487-5.2246 4.60937-1.22934 2.07452-1.76566 4.60969-1.53516 7.06836 0.2305 2.76602 1.38255 5.22498 3.22656 7.22266l1.45899 1.61328 4.76367-6.45312-1.15235-1.07618c-0.61467-0.53783-0.69076-1.92111-0.53711-2.68945 0.15367-1.22934 0.84555-2.38142 1.99805-2.99609 1.53668-0.84517 4.07149-0.84464 5.07031 0.8457 1.53668 2.45868-0.23091 4.99256-1.76757 6.99024-0.84518 1.07566-1.76745 2.15155-2.68946 3.15039l-12.52343 14.36914h24.8164v-7.6836h-7.68164c1.15251-1.30617 2.3039-2.61246 3.30274-3.84179 1.69033-1.92085 3.30455-4.07258 4.22656-6.53125 1.07567-2.91969 1.15247-5.22485 0.23047-8.14454-1.15251-3.53434-4.53336-6.37619-8.14453-7.14453-0.97964-0.20169-1.98193-0.30768-2.98047-0.30273zm26.64453 0.45508c1.30314 0 2.48182 0.25865 3.59765 0.64258 0.11372 0.03863 0.2262 0.0804 0.33789 0.12304 0.54451 0.21036 1.06727 0.46097 1.5625 0.76758 0.29087 0.17845 0.5742 0.37223 0.84766 0.58398 0.33039 0.25797 0.64885 0.53667 0.95313 0.84375 0.3347 0.33526 0.65453 0.70089 0.95703 1.09571 0.11026 0.14494 0.24373 0.24745 0.34961 0.40039 0.11221 0.15927 0.17285 0.34782 0.27734 0.51172 0.29828 0.47799 0.56801 0.9733 0.80664 1.48633 1.44466 3.04106 1.91211 6.58725 1.91211 9.91015-0.02205 1.14715-0.11225 2.30889-0.25195 3.4668-0.31101 2.88392-1.10081 5.75159-2.82031 8.13672-2.07451 2.91967-4.91813 4.3789-8.5293 4.3789-3.53435 0-6.45284-1.53735-8.52735-4.45703-0.58931-0.86432-1.07286-1.78969-1.46679-2.7539-0.0051-0.01219-0.00861-0.02492-0.01367-0.03711-0.35978-0.88664-0.64318-1.80491-0.86329-2.74219-0.04079-0.17402-0.07112-0.34829-0.10742-0.52344-0.17844-0.85477-0.31636-1.71928-0.40234-2.58594-1.9e-4 -0.00194 1.9e-4 -0.00391 0-0.00586-0.00937-0.09764-0.01315-0.19337-0.02149-0.29101-0.08115-0.91873-0.12304-1.83665-0.12304-2.73828 0-0.01749 0.00193-0.03524 0.00195-0.05274 0-0.00837-0.00195-0.01702-0.00195-0.02539 0-0.01927 0.00192-0.03931 0.00195-0.05859 0.0133-3.91319 0.60851-8.02421 2.79688-11.25 0.07544-0.11831 0.12-0.25296 0.19921-0.36914 0.09772-0.13752 0.22084-0.23191 0.32227-0.36328 0.37272-0.49207 0.76873-0.93744 1.1875-1.33789 0.13624-0.12878 0.27289-0.25512 0.41406-0.375 0.48704-0.41661 1.00369-0.77562 1.54883-1.07813 0.18467-0.10406 0.37352-0.19755 0.56445-0.28906 0.45757-0.21387 0.93397-0.39129 1.42969-0.53125 0.53069-0.15794 1.0873-0.2525 1.65625-0.32422 0.04816-0.00553 0.09607-0.01069 0.14453-0.01562 0.42027-0.04731 0.81999-0.14258 1.25977-0.14258zm26.73828 0.30859c0.9028 0 1.76221 0.09183 2.57617 0.27539 0.81397 0.18356 1.58241 0.45852 2.30274 0.82813 0.72032 0.3696 1.39179 0.8325 2.01367 1.39062 0.62188 0.55813 1.19426 1.21181 1.71289 1.96094 0.5486 0.79635 1.00073 1.64775 1.375 2.5332 0.06073 0.14261 0.11725 0.28509 0.17383 0.42969 0.30275 0.77846 0.54525 1.58071 0.73828 2.39844 0.08764 0.36774 0.15217 0.73639 0.2207 1.10937 0.08101 0.44905 0.15212 0.89891 0.20703 1.35156 0.17415 1.37141 0.28125 2.74781 0.28125 4.0879 0 1.4943-0.1451 3.01121-0.39062 4.50976-0.00517 0.03333-0.01227 0.0663-0.01758 0.09961-0.10697 0.6351-0.22369 1.26289-0.38867 1.88281-0.19559 0.76272-0.43909 1.51215-0.73828 2.23828-0.03696 0.08801-0.0708 0.17638-0.10938 0.26368-0.38476 0.88586-0.85392 1.7353-1.42773 2.53125-2.07451 2.91967-4.91811 4.3789-8.5293 4.3789-0.83408 0-1.63205-0.08861-2.39453-0.25781-0.12353-0.02606-0.24393-0.05756-0.36524-0.08789-0.60206-0.15728-1.17859-0.3694-1.73047-0.63281-0.23043-0.10838-0.45504-0.22819-0.67578-0.35547-0.4765-0.27588-0.93074-0.59382-1.36328-0.95313-0.17274-0.14551-0.34426-0.29331-0.50976-0.45312-0.53429-0.50604-1.03292-1.07591-1.48828-1.7168-0.51559-0.75619-0.94794-1.55992-1.3125-2.39453-0.10745-0.24251-0.20383-0.48673-0.29883-0.73438-0.25047-0.65752-0.45981-1.33064-0.63477-2.01562-0.10303-0.40895-0.18759-0.81725-0.26562-1.23242-0.11673-0.60304-0.21242-1.20917-0.28321-1.81836-0.03201-0.29075-0.06511-0.57643-0.08789-0.86719-0.07363-0.87755-0.11523-1.75386-0.11523-2.61523 0-4.07219 0.6162-8.37584 2.99805-11.67969 2.07449-2.99652 4.91615-4.45508 8.52734-4.45508zm-53.33789 0.07813c0.92741-9e-4 1.85924 0.10299 2.78125 0.30468 3.30385 0.69151 6.45362 3.30424 7.5293 6.53125 0.84516 2.68919 0.76837 4.84012-0.23047 7.5293-0.92201 2.38185-2.45876 4.37994-4.07227 6.30078-1.53667 1.76718-3.07271 3.45872-4.60937 5.30274l8.60547 0.07617v5.91601h-21.97461l11.21875-12.9082c0.92199-1.07567 1.84428-2.07472 2.68945-3.15039 1.92084-2.38185 3.61093-5.22356 1.84375-8.06641-1.22934-2.0745-4.22693-2.22929-6.22461-1.23047-1.38301 0.76834-2.22848 2.15084-2.45899 3.6875-0.15365 1.07568 5.4e-4 2.69065 0.84571 3.45899l0.61523 0.53711-3.6875 4.91797-0.69336-0.76953c-1.69034-1.84401-2.76559-4.14808-2.99609-6.6836-0.2305-2.22818 0.30843-4.53357 1.46094-6.53125 1.1525-1.92084 2.84216-3.38073 4.83984-4.30273 1.44063-0.62428 2.9719-0.91842 4.51758-0.91992zm-22.80469 0.15234h6.07031v31.73242h-6.30078v-25.125l-2.91992 1.91992 0.07813-6.53125 3.07226-1.99609zm49.4043 0.38281c-0.82596 0-1.60824 0.08613-2.34766 0.25781-0.73942 0.17169-1.43689 0.42858-2.08984 0.76954-0.65295 0.34095-1.26158 0.7656-1.82813 1.27343-0.56654 0.50783-1.0901 1.09919-1.57031 1.77149-0.46829 0.6556-0.87191 1.37497-1.22266 2.15039-0.01814 0.04035-0.03685 0.08041-0.05468 0.12109-0.3215 0.72904-0.58741 1.51827-0.8086 2.35352-0.02902 0.1097-0.05861 0.21861-0.08593 0.33008-0.20589 0.84004-0.36492 1.72983-0.47461 2.67578-0.00903 0.07679-0.01896 0.15108-0.02735 0.22851-0.11025 1.03237-0.16992 2.12273-0.16992 3.28125 0 1.15853 0.05967 2.24871 0.16992 3.28125 0.00831 0.07672 0.01842 0.15048 0.02735 0.22657 0.1093 0.94347 0.26771 1.8317 0.47265 2.66992 0.02891 0.11817 0.06098 0.23342 0.0918 0.34961 0.22067 0.83149 0.48455 1.61761 0.80469 2.34375 0.01783 0.04069 0.03654 0.08073 0.05468 0.12109 0.35075 0.7756 0.75437 1.49479 1.22266 2.15039 0.48021 0.67229 1.00377 1.26365 1.57031 1.77149 0.56655 0.50783 1.17518 0.93247 1.82813 1.27343s1.35042 0.59785 2.08984 0.76953c0.73942 0.17169 1.5217 0.25782 2.34766 0.25782s1.60805-0.08156 2.34765-0.2461c0.73961-0.16454 1.43666-0.4127 2.08985-0.74414s1.26335-0.7454 1.83008-1.24609c0.56672-0.50069 1.0901-1.08747 1.57031-1.75977 0.43961-0.61546 0.81262-1.29188 1.14844-2.00586 0.09357-0.20258 0.17387-0.41932 0.25976-0.63086 0.19663-0.47588 0.36468-0.98004 0.51953-1.49804 0.14123-0.48021 0.26697-0.97808 0.37305-1.4961 0.06607-0.31572 0.12087-0.64291 0.17383-0.97265 0.20952-1.34975 0.31689-2.80539 0.29101-4.38477 0-2.89308-0.33748-5.41983-0.99609-7.5664-0.07801-0.24376-0.15511-0.48848-0.24219-0.72266-0.13427-0.37599-0.27144-0.74816-0.42773-1.09766-0.32577-0.70298-0.67861-1.37814-1.09961-1.98437-0.46101-0.6723-0.97022-1.26366-1.52735-1.77149-0.55712-0.50783-1.16126-0.93248-1.81445-1.27343-0.65319-0.34096-1.35626-0.59785-2.10547-0.76954-0.7492-0.17168-1.54545-0.25781-2.39062-0.25781zm-26.87891 0.25977c-8.68056 0.17509-12.90746 10.26664-6.84961 16.95117l2.53516-3.38086c-1.92085-1.76718-1.6906-6.83829 1.84375-8.60547 2.53551-1.30617 5.91516-0.84474 7.375 1.53711 2.76601 4.53319-1.68969 8.91295-4.60938 12.2168l-9.91211 11.44922h19.13282v-4.07227h-9.68164c4.07218-5.14785 8.14496-8.68301 9.68164-12.83203 0.922-2.53552 0.99751-4.45667 0.15234-6.99219-0.99884-2.99652-3.91821-5.37752-6.83789-5.99219-0.98683-0.20889-1.93209-0.29741-2.83008-0.27929zm53.68164 0.05078c-3.297 0.00403-5.90617 1.38506-7.82422 4.07031-1.92082 2.68919-2.84375 6.37693-2.84375 11.14063 0 4.76368 0.92293 8.45144 2.84375 11.14062 1.91765 2.68471 4.52623 4.06571 7.82227 4.07031 0.01381-7e-5 0.02723 1.2e-4 0.04102 0 0.75506-0.00161 1.46585-0.08719 2.14843-0.22656 0.12378-0.02623 0.24581-0.05511 0.36719-0.08594 0.55157-0.13564 1.07378-0.33003 1.57617-0.56054 0.21644-0.10141 0.42948-0.21079 0.63672-0.33008 0.37775-0.21346 0.73458-0.46552 1.08203-0.73828 0.3284-0.26189 0.64228-0.55338 0.94336-0.86914 0.15533-0.16062 0.30499-0.33292 0.45313-0.50782 0.18037-0.21591 0.35776-0.43837 0.52734-0.67578 0.19749-0.26859 0.38223-0.55056 0.55859-0.84179 0.0983-0.16296 0.19325-0.32902 0.28516-0.49805 1.3444-2.48147 1.98637-5.71028 1.92188-9.64648-1e-5 -4.84054-0.92162-8.68191-2.76563-11.3711-0.16934-0.24695-0.34894-0.47826-0.53125-0.70312-0.13507-0.16434-0.27001-0.32819-0.41211-0.48047-0.29425-0.3198-0.60104-0.61553-0.92578-0.88281-0.3451-0.27981-0.70284-0.53729-1.08203-0.75782-0.20563-0.12171-0.41707-0.23387-0.63281-0.33789-0.50509-0.23871-1.0317-0.44028-1.5918-0.58203-0.12044-0.03144-0.24223-0.06099-0.36524-0.08789-0.69422-0.14641-1.41999-0.23673-2.19531-0.23828-0.01248-1.1e-4 -0.02461 6e-5 -0.03711 0zm-75.97656 0.15039-2.45703 1.61328-0.07813 4.38086 2.9961-1.92187-0.07617 25.89453h4.5332v-29.88868l-4.91797-0.07812zm49.09766 3.76562c1.22272 0.04795 2.21052 0.48859 3.03515 1.16211 0.01875 0.01497 0.03613 0.03164 0.05469 0.04688 0.26879 0.22566 0.52015 0.47337 0.75 0.75195 0.08658 0.1033 0.17067 0.21018 0.25195 0.32031 0.15764 0.21661 0.30713 0.44153 0.44532 0.68165 0.11552 0.19839 0.22365 0.40405 0.32617 0.61718 0.08639 0.18136 0.17065 0.36399 0.24804 0.55469 0.11747 0.28688 0.22654 0.58292 0.32422 0.88867 0.03178 0.10022 0.06597 0.19687 0.09571 0.29883 0.27527 0.93682 0.46401 1.94761 0.58007 2.98438 0.00223 0.02001 0.00565 0.03855 0.00782 0.05859 8.4e-4 0.00775 0.00111 0.01568 0.00195 0.02344 0.11468 1.06106 0.1524 2.1489 0.12891 3.21484-5e-5 0.00194 4e-5 0.00392 0 0.00586-2e-5 6.5e-4 1e-5 0.00131 0 0.00195-0.07271 3.25707-0.72511 6.30622-1.5625 7.75-0.99884 1.76718-2.53617 2.61328-4.6875 2.61328-2.15135 0-3.4569-0.92227-4.37891-2.68945-0.80866-1.53068-1.49772-4.65696-1.62695-7.95117-0.04252-1.0838-0.02412-2.18664 0.07031-3.25586 3.4e-4 -0.00386-3.4e-4 -0.00787 0-0.01172 0.00141-0.01607 0.00441-0.03082 0.00586-0.04687 0.09516-1.0452 0.26486-2.05718 0.52148-2.99024 0.02493-0.09134 0.05347-0.17777 0.08008-0.26758 0.09388-0.31428 0.197-0.61765 0.3125-0.91015 0.07161-0.1831 0.15012-0.35767 0.23047-0.53125 0.10003-0.21386 0.20633-0.41977 0.32031-0.61719 0.12606-0.22105 0.26426-0.42625 0.40821-0.625 0.08789-0.11955 0.17869-0.23522 0.27343-0.3457 0.21415-0.25408 0.44844-0.47831 0.69922-0.68164 0.03058-0.02421 0.06066-0.04887 0.0918-0.07227 0.80604-0.62114 1.77815-1.00232 2.99219-0.97852zm26.73828 0.30665c1.23625 0.048 2.23192 0.48996 3.0625 1.1621 0.01636 0.01294 0.03261 0.02593 0.04883 0.03907 0.27878 0.23106 0.5385 0.48653 0.77539 0.77343 0.077 0.09177 0.15185 0.18606 0.22461 0.28321 0.16639 0.22539 0.324 0.45979 0.46875 0.71094 0.10675 0.18306 0.20723 0.3727 0.30273 0.56835 0.09341 0.19332 0.18466 0.38772 0.26758 0.5918 0.11451 0.27923 0.21902 0.56801 0.31445 0.86524 0.03353 0.10526 0.06838 0.20724 0.09961 0.31445 0.27356 0.93154 0.46056 1.93515 0.57422 2.9668 0.00233 0.02132 0.00555 0.04115 0.00781 0.0625 9e-4 0.00838 0.00107 0.017 0.00195 0.02539 0.11222 1.05871 0.14776 2.14385 0.1211 3.20898-3e-5 0.00129 3e-5 0.00261 0 0.00391-2e-5 6.4e-4 2e-5 0.0013 0 0.00195-0.08217 3.2548-0.74463 6.31249-1.58203 7.78516-0.99884 1.76716-2.53615 2.61132-4.6875 2.61132s-3.4569-0.92227-4.37891-2.68945c-0.54046-1.02301-1.02383-2.76298-1.32617-4.78515-0.14718-0.98438-0.25054-2.03258-0.29492-3.10352-0.00268-0.0631-0.00165-0.12427-0.00391-0.1875-0.03616-1.03524-0.02254-2.08297 0.06641-3.10352 0.00332-0.03846 0.0082-0.0749 0.01172-0.11328 0.09518-1.02981 0.26145-2.0267 0.51367-2.94726 0.02612-0.09617 0.05404-0.18874 0.08203-0.28321 0.10105-0.33817 0.21369-0.66769 0.33984-0.98046 0.05788-0.14491 0.12017-0.28302 0.1836-0.42188 0.12349-0.2675 0.2552-0.52573 0.40039-0.76758 0.09072-0.15313 0.18947-0.29543 0.28906-0.4375 0.10391-0.14602 0.21434-0.283 0.32812-0.41601 0.91656-1.09062 2.14078-1.7706 3.78907-1.73828zm-26.72266 0.69531c-0.02654 2.4e-4 -0.05174 0.00334-0.07812 0.0039-0.32626 0.00314-0.63637 0.0439-0.93946 0.10352-0.15792 0.03395-0.31131 0.08119-0.46289 0.13477-0.15408 0.0509-0.3016 0.1241-0.44922 0.19726-0.10531 0.05514-0.21246 0.10388-0.31445 0.17188-0.83992 0.56897-1.43723 1.47562-1.86328 2.52148-0.04922 0.11883-0.09393 0.239-0.13867 0.36133-0.66646 1.85243-0.83985 4.06025-0.83985 5.64648 0 1.69034 0.1536 3.45615 0.46094 5.14649 0.2305 1.07568 0.53638 2.53631 1.07422 3.53515 0.47099 0.89489 1.0022 1.49862 1.69531 1.85157 0.0275 0.01326 0.05402 0.02852 0.08203 0.04101 0.18622 0.08786 0.3881 0.15162 0.59961 0.20508 0.20244 0.04733 0.40986 0.08959 0.63868 0.10742 0.0717 0.00664 0.13835 0.01971 0.21289 0.02344h0.23046c1.76717 0 3.0728-0.61569 3.91797-2.15234 0.53784-0.99885 0.92251-2.45882 1.07618-3.61133 0.30731-1.76717 0.38347-3.53362 0.30664-5.30078 0-3.29939-0.92128-8.89466-5.20899-8.98633zm26.87695 0.30469c-0.84515 0-1.61513 0.15228-2.30664 0.61328-2.38183 1.61349-2.84179 5.91696-2.84179 8.52929 0 1.69035 0.1536 3.45809 0.46093 5.14844 0.2305 1.07567 0.53834 2.53436 1.07618 3.5332 0.38362 0.72888 0.80476 1.26584 1.32226 1.63086 7.4e-4 5.3e-4 0.00121 0.00143 0.00196 0.00196 0.48796 0.30394 1.04894 0.48457 1.74804 0.51953h0.3086c1.76715 0 3.07281-0.61568 3.91796-2.15235 0.53784-0.99884 0.92251-2.45884 1.07618-3.61132 0.30733-1.76718 0.38348-3.53361 0.30664-5.30079 0-2.85786-0.70077-7.36947-3.67188-8.63867-0.08941-0.03363-0.18005-0.06598-0.27344-0.09375-5.7e-4 -2e-4 -0.00137 2e-4 -0.00195 0-0.2326-0.08028-0.4965-0.11225-0.75586-0.15234-0.12005-0.01349-0.24142-0.02285-0.36719-0.02734zm-26.8164 0.76757c0.99884 0 2.15224 0.69254 2.84375 1.92188 0.922 1.61351 1.30664 4.22551 1.30664 7.06836 0.0768 2.45869-0.15354 5.22371-0.92188 6.91406-0.76833 1.61351-1.99789 2.07422-3.15039 2.07422-1.22934 0-2.30588-0.22893-3.07422-1.99609-0.69148-1.61351-1.15234-4.61034-1.15234-6.99219 0-2.91968 0.3078-5.76345 1.30664-7.37696 0.6915-1.15249 1.9198-1.61328 2.8418-1.61328zm26.73828 0.23047c0.99884 0 2.15224 0.69188 2.84375 1.99805 0.922 1.61351 1.30664 4.2255 1.30664 7.06836 0.0768 2.45868-0.1555 5.22438-0.92383 6.83789-0.76834 1.61351-1.99593 2.07422-3.14844 2.07422-1.22932 0-2.30589-0.22892-3.07421-1.9961-0.6915-1.61349-1.15235-4.61035-1.15235-6.99218 0-2.91968 0.3078-5.76345 1.30664-7.37696 0.69151-1.1525 1.9198-1.61328 2.8418-1.61328z" fill="#025"/><path d="m-10.908203 386.75117v14.06055h30.119141l-13.523438-14.06055h-16.595703zm69.765625 2.22852c-0.845171 0-1.459582 0.30658-1.84375 0.76758-0.38417 0.461-0.769466 1.07672-1.230469 1.6914l-15.212891 21.35938-2.535156 3.61133c-0.537836 0.76833-1.075445 1.45888-1.613281 2.15039-0.61467 0.69149-1.382681 1.07679-2.304687 1.23046-0.537837 0.0768-0.999935 0.15298-1.460938 0.30665-0.461003 0.15366-0.690744 0.53767-0.767578 1.15234 0 0.38417 0.154264 0.61457 0.384766 0.69141 0.230501 0.07679 0.536415 0.15429 0.84375 0.15429 0.845172 0 1.767448-0.07744 2.689453-0.15429 0.922005-0.0768 1.767448-0.15235 2.689453-0.15235 0.845171 0 1.614474 0.07548 2.382812 0.15235 0.768337 0.07679 1.612521 0.07743 2.38086 0.15429 0.384168 0 0.692665-0.07677 1-0.23047 0.307334-0.15367 0.460937-0.46153 0.460937-0.8457-0.07683-0.61467-0.384667-0.92122-1.076172-0.99805-0.691503-0.0768-1.306542-0.23109-1.998047-0.38476-0.691504-0.15367-0.999338-0.61382-1.076172-1.45899 0.153668-0.84518 0.692568-2.07466 1.691407-3.61132 0.998839-1.53668 1.689388-2.69002 2.15039-3.30469h9.451172c0.07683 0.99884 0.07746 1.99725 0.154297 2.99609 0.07683 0.99884 0.076172 1.99921 0.076172 2.99805-0.07683 1.38301-0.384668 2.22653-1.076172 2.45703-0.691503 0.2305-1.383376 0.38477-1.998047 0.38477-0.691504 0-1.074219 0.46084-1.074219 1.15234 0 0.30734 0.076135 0.53774 0.306641 0.69141 0.230501 0.15365 0.460244 0.15429 0.767578 0.15429 1.306175 0 2.613747-0.07744 3.919922-0.15429 1.306174-0.0768 2.611795-0.15235 3.917969-0.15235 0.845172 0 1.766157 0.07617 2.611328 0.07617 0.845172 0.0768 1.76811 0.07618 2.613281 0.07618 0.384169 0 0.767546-0.07548 0.998047-0.15235 0.38417-0.15367 0.539063-0.38469 0.539063-0.8457 0-0.38416-0.078089-0.6927-0.308594-0.76953-0.230502-0.15367-0.459581-0.23047-0.84375-0.23047-1.22934-0.2305-1.921843-0.69132-2.152344-1.38281-0.230502-0.76834-0.30664-1.68929-0.306641-2.8418l-1.230468-23.66602c0-0.84518-0.076798-1.53572-0.230469-2.15039-0.153668-0.53784-0.690614-0.84503-1.689453-0.92187zm127.083988 0c-0.84517 0-1.46154 0.30658-1.84571 0.76758s-0.76751 1.07672-1.22851 1.6914l-15.21289 21.35938-2.53516 3.61133c-0.53784 0.76833-1.07544 1.45888-1.61328 2.15039-0.61467 0.69149-1.38463 1.07679-2.30664 1.23046-0.53783 0.0768-0.99799 0.15298-1.45899 0.30665-0.461 0.15366-0.69073 0.53767-0.76757 1.15234 0 0.38417 0.15231 0.61457 0.38281 0.69141 0.2305 0.07679 0.53837 0.15429 0.8457 0.15429 0.84518 0 1.76745-0.07744 2.68945-0.15429 0.922-0.0768 1.76746-0.15235 2.68946-0.15235 0.84518 0 1.61252 0.07548 2.38086 0.15235 0.84517 0.07679 1.61447 0.07743 2.38281 0.15429 0.38417 0 0.69072-0.07677 0.99805-0.23047 0.30734-0.15367 0.46093-0.46153 0.46093-0.8457-0.0768-0.61467-0.38466-0.92122-1.07617-0.99805-0.6915-0.0768-1.30458-0.23109-1.99609-0.38476-0.6915-0.15367-0.99934-0.61382-1.07617-1.45899 0.15366-0.84518 0.69061-2.07466 1.68945-3.61132 0.99884-1.53668 1.69134-2.69002 2.15234-3.30469h9.52735c0.0768 0.99884 0.07742 1.99725 0.15429 2.99609 0.0768 0.99884 0.07618 1.99921 0.07618 2.99805-0.0768 1.38301-0.38468 2.22653-1.07618 2.45703s-1.38337 0.38477-1.99804 0.38477c-0.69151 0-1.07422 0.46084-1.07422 1.15234 0 0.30734 0.0761 0.53774 0.30664 0.69141 0.2305 0.15365 0.46024 0.15429 0.76758 0.15429 1.30617 0 2.61375-0.07744 3.91992-0.15429 1.30618-0.0768 2.61179-0.15235 3.91797-0.15235 0.84517 0 1.76616 0.07617 2.61133 0.07617 0.84517 0.0768 1.76811 0.07618 2.61328 0.07618 0.38417 0 0.76754-0.07548 0.99804-0.15235 0.30734-0.15367 0.46094-0.38469 0.46094-0.8457 0-0.38416-0.07611-0.6927-0.30664-0.76953-0.2305-0.15367-0.46154-0.23047-0.8457-0.23047-1.22935-0.2305-1.91989-0.69132-2.15039-1.38281-0.2305-0.76834-0.3086-1.68929-0.3086-2.8418l-1.22851-23.66602c0-0.84518-0.07677-1.53572-0.23047-2.15039-0.15367-0.53784-0.69061-0.84503-1.68945-0.92187zm-27.19922 0.53711c-3.99536 0-8.14458 0.84613-12.44727 2.38281-4.30269 1.61351-7.99109 3.91883-11.06445 6.99219-3.07335 3.07334-4.68683 6.8366-4.76367 11.29297 0.0768 2.84284 0.84546 5.14816 2.45898 6.99218 1.61351 1.84401 3.5335 3.22839 5.99219 4.15039 2.38185 0.92201 4.84078 1.38282 7.45312 1.38282 1.53668 0 3.074-0.07807 4.6875-0.3086 1.53668-0.15367 3.0727-0.45958 4.60938-0.84375 0.53783-0.0768 1.07481-0.23044 1.45898-0.46093 0.38417-0.15367 0.69332-0.53962 0.92383-1.1543 0.38416-1.1525 0.76818-2.38003 1.15234-3.60938 0.38417-1.22934 0.69072-2.45882 0.99805-3.61132 0.53784-1.69034 1.22972-2.76689 1.99805-3.07422 0.76834-0.30734 1.45955-0.46094 2.07422-0.46094s0.92187-0.38401 0.92187-1.15234c0-0.30734-0.15425-0.53774-0.38476-0.69141-0.2305-0.15366-0.53708-0.23047-0.76758-0.23047-1.15251 0-2.38265 0.07743-3.53516 0.1543-1.22934 0.0768-2.38199 0.15234-3.61133 0.15234-1.1525 0-2.30323-0.07547-3.3789-0.15234-1.15251-0.0768-2.30519-0.1543-3.38086-0.1543-0.38417 0-0.76883 0.07677-1.07617 0.23047-0.38416 0.15367-0.53907 0.46153-0.53907 0.8457 0.0768 0.53783 0.386 0.84505 0.92383 0.92188 0.61467 0.0768 1.15096 0.15231 1.76563 0.38281 0.61467 0.15367 0.92187 0.69194 0.92187 1.53711-0.0768 0.922-0.30592 2.07399-0.84375 3.6875-0.46101 1.53668-0.92313 2.76678-1.23047 3.76562-0.15366 0.69151-0.46024 1.22977-0.76757 1.53711-0.30734 0.30733-0.84496 0.46094-1.61329 0.46094-2.76601-0.0768-4.91777-0.92227-6.30078-2.68945-1.45984-1.76718-2.15234-3.91825-2.15234-6.60742 0-2.45869 0.53827-4.91764 1.53711-7.22266 0.99884-2.30501 2.38193-4.37932 4.07226-6.14648 1.69035-1.69035 3.84211-3.14957 6.30079-4.37891 2.53551-1.22935 4.99444-1.84505 7.45312-1.92188 1.15251 0 1.84305 0.23041 2.15039 0.69141 0.2305 0.46101 0.38542 1.22902 0.3086 2.30469 0 0.30733-0.00133 0.53837-0.07813 0.8457 0 0.30734-0.07617 0.53837-0.07617 0.8457 0 0.46101 0.07677 0.92247 0.23047 1.30664 0.15367 0.38417 0.53834 0.61329 1.07617 0.61329 0.61467-0.0768 0.9993-0.30591 1.30664-0.84375 0.30733-0.53784 0.45961-1.07611 0.61328-1.53711 0.15367-0.38417 0.38536-1.15348 0.76953-2.38282 0.30733-1.22934 0.53645-1.99735 0.61328-2.30468-0.0768-0.53784-0.61314-0.84568-1.53515-1.07618-0.99884-0.2305-1.99855-0.30597-3.07422-0.38281-1.07568-0.0768-1.76622-0.07812-2.15039-0.07812zm-81.060549 0.46093c-0.384169 0-0.768175 0.07743-1.152344 0.1543-0.384169 0.15367-0.538402 0.3847-0.615235 0.8457 0.153667 0.76834 0.76874 1.15105 1.767579 1.07422 1.075673 0 1.61391 0.38468 1.767578 1.07618 0 0.53783-0.154926 1.07544-0.308594 1.61328-0.230501 0.53784-0.383442 1.0761-0.537109 1.53711-1.152506 3.22701-2.304525 6.37649-3.457032 9.60351-1.152506 3.22702-2.305816 6.37845-3.535156 9.60547-0.461002 1.38301-0.921809 2.30397-1.382812 2.8418-0.461003 0.53784-1.381956 0.92184-2.841797 1.15234-0.384169 0.0768-0.768837 0.15427-1.076172 0.38477-0.307336 0.15367-0.460938 0.46086-0.460938 0.92187 0 0.38417 0.152311 0.61586 0.382813 0.76953 0.230502 0.0768 0.539659 0.15235 0.923828 0.15235 0.845172 0 1.689985 6.2e-4 2.535156-0.07618 0.845172-0.0768 1.689984-0.07617 2.535156-0.07617 0.768338 0 1.536351 0.07549 2.304688 0.15235 0.768338 0.0768 1.536349 0.07742 2.304688 0.15429 0.384168 0 0.692664-0.07677 1-0.23047 0.307334-0.15367 0.460275-0.46153 0.537109-0.8457-0.07683-0.69151-0.384668-0.99738-1.076172-1.07422-0.691504-0.0768-1.382714-0.15492-2.074219-0.30859-0.691504-0.15367-1.076172-0.76808-1.076172-1.84375 0.07683-1.45985 0.616396-3.68708 1.615235-6.68359 0.998839-2.91969 1.99593-5.83946 3.148437-8.60547 1.075673-2.76602 1.844346-4.61054 2.228516-5.60938l0.539062 22.58789c0 0.6915 0.076798 1.23041 0.230469 1.69141 0.153668 0.38417 0.614475 0.61523 1.382813 0.61523s1.382747-0.30786 1.84375-0.8457c0.461002-0.53783 0.844346-1.07674 1.228515-1.69141l15.212889-22.35742-4.994139 18.90039c-0.153668 0.84517-0.38407 1.61382-0.691406 2.45899-0.307335 0.84517-0.920454 1.3066-1.765625 1.53711-0.537836 0-1.076736 0.15362-1.691406 0.23046-0.614671 0.15366-0.999338 0.53768-1.076172 1.15235 0 0.38417 0.154265 0.61392 0.384766 0.76758 0.230501 0.15367 0.538367 0.23047 0.845703 0.23047 1.075673 0 2.227061-0.07548 3.302734-0.15235 1.075673-0.0768 2.229015-0.1543 3.304687-0.1543 1.152498 0 2.305188 0.07743 3.380858 0.1543 1.15251 0.0768 2.30519 0.15235 3.38086 0.15235 0.46101 0 0.76818-0.07676 1.15235-0.23047 0.30733-0.15366 0.5371-0.46088 0.5371-0.92188-0.0768-0.53784-0.30787-0.92122-0.8457-0.99805-0.53784-0.0768-1.07544-0.23109-1.61328-0.38476-0.53783-0.15367-0.84375-0.61381-0.84375-1.45899 0-0.53783 0.07677-1.1529 0.23047-1.76757 0.15367-0.61467 0.22915-1.15357 0.38281-1.69141l4.8418-19.4375c0.15366-0.84518 0.38407-1.53705 0.6914-1.99805 0.30734-0.46101 0.84557-0.7682 1.76758-0.92187 0.461 0 0.92182-0.15493 1.38281-0.3086 0.2305 0.0768 0.53711-0.22908 0.53711-0.84375 0-0.30733-0.0761-0.53773-0.30664-0.6914-0.15367-0.15367-0.38407-0.23047-0.6914-0.23047-0.99884 0-1.99921-6.3e-4 -2.99805 0.07617-0.99885 0.0768-1.99725 0.07617-2.99609 0.07617-0.53783 0-1.30519-0.07617-2.38086-0.07617-1.07568 0-1.76818 0.0774-2.15235 0.38477-0.0768 0.0768-0.15429 0.22981-0.15429 0.30664-0.0768 0.15367-0.15235 0.22981-0.15235 0.30664l-13.062497 19.74609-0.537109-19.4375c0-0.38417-0.001295-0.69137-0.078125-0.92187-0.07683-0.30734-0.307237-0.38411-0.691407-0.46094-1.075671 0-2.227061-6.3e-4 -3.302734 0.07617h-3.304687c-0.614671 0-1.229081-0.07617-1.84375-0.07617-0.614671-0.0768-1.22908-0.07813-1.84375-0.07813zm55.626949 0c-0.461 0-0.84434 0.00133-1.22851 0.07813-0.38417 0-0.84435 0.07548-1.22852 0.15234-1.07567 0.0768-2.07471 0.15363-3.15039 0.23047h-3.22851c-0.76834 0-1.53569-0.07617-2.38086-0.07617-0.76834-0.0768-1.53764-0.07617-2.38282-0.07617-0.38417 0-0.6907 0.07611-0.99804 0.30664-0.30733 0.2305-0.46094 0.5377-0.46094 0.92187 0.15367 0.6915 0.69127 1.07488 1.61328 0.99805 0.92201-0.0768 1.45961 0.3853 1.61328 1.23047 0 0.2305 6.3e-4 0.46024-0.07617 0.76758-0.0768 0.2305-0.15364 0.46219-0.23047 0.76953l-5.99414 20.74414c-0.23051 0.99884-0.46025 1.84365-0.76758 2.53516-0.30734 0.69149-0.92108 1.15231-1.91992 1.38281-0.461 0.0768-1.00056 0.15492-1.61523 0.30859s-0.99805 0.53834-0.99805 1.07617c0 0.30734 0.15427 0.53774 0.38477 0.69141s0.53642 0.23047 0.84375 0.23047c0.99883 0 2.07538-0.07743 3.07421-0.1543 1.07567-0.0768 2.07473-0.15429 3.15039-0.15429 1.15251 0 2.22837 0.07743 3.38086 0.15429 1.15251 0.0768 2.22835 0.07743 3.38086 0.1543 0.46101 0 0.99862-0.00133 1.61328-0.07813 0.61467-0.0768 0.92122-0.38337 0.99805-0.99804-0.0768-0.61467-0.38404-0.92122-0.92187-0.99805-0.53784-0.0768-1.15162-0.15492-1.68946-0.30859-0.53783-0.15367-0.84504-0.69128-0.92187-1.61328 0-0.38417 0.07548-0.76818 0.15234-1.15235 0.0768-0.38417 0.23177-0.76817 0.3086-1.15234l5.99218-20.82227c0.2305-0.84517 0.4622-1.45958 0.76953-1.84375s0.92045-0.69204 1.76563-0.8457c0.461-0.0768 0.9231-0.15427 1.46094-0.38477 0.38417-0.38417 0.61457-0.69067 0.6914-1.22851 0-0.30733-0.07806-0.46157-0.30859-0.61524-0.15367-0.15366-0.38407-0.23047-0.69141-0.23047zm-79.751949 7.91407 0.382812 10.98828h-7.914062l7.53125-10.98828zm127.005859 0 0.38477 10.98828h-7.91407l7.5293-10.98828z" fill="#f00"/></svg>
