<svg width="566.93" height="154.09" version="1.1" viewBox="-.003 -.001 566.93 154.09" xmlns="http://www.w3.org/2000/svg">
 <path d="m422.59466 8.0204844c-0.23374-0.0037813-0.47425 0.0196094-0.71875 0.0683594l-18.47266 3.7207032c-1.782 0.359-3.37114 2.049611-3.61914 3.849609l-10.43359 75.794922-37.66602-67.013672c-0.896-1.593998-3.00002-2.553593-4.79102-2.183594l-21.27148 4.396485c-0.975 0.2-1.73189 0.775126-2.08789 1.578125-0.354 0.801999-0.26972 1.752469 0.23828 2.605469l61.73828 104.019529c0.928 1.561 3.04527 2.51764 4.82227 2.18164l10.77539-2.03711c1.776-0.336 3.40403-1.99625 3.70703-3.78125l20.30859-119.986325c0.168-0.983999-0.09761-1.8969069-0.72461-2.5039062-0.46875-0.4537496-1.10348-0.6976407-1.80468-0.7089844zm17.46289 3.0273436c-1.63006 0.161219-3.02777 1.43233-3.27539 3.095703l-17.31641 116.253909c-0.141 0.942 0.10164 1.86751 0.68164 2.60351s1.4241 1.18749 2.37109 1.27149l16.04688 1.39843c1.91 0.168 3.68627-1.24448 3.94727-3.14648 0 0 8.80709-63.335019 9.37109-67.416015 1.156 3.974996 20.71875 71.148435 20.71875 71.148435 0.504 1.722 2.29313 3.22216 4.07812 3.41016l10.70118 1.14062c1.77299 0.188 3.86095-0.87497 4.75195-2.41797 0 0 34.19152-59.303233 36.10351-62.615229l-5.58203 64.873049c-0.01 0.104-0.01562 0.20359-0.01562 0.30859a3.6 3.6 0 0 0 3.20898 3.56055l19.23047 1.98828a3.48 3.48 0 0 0 2.58594-0.7793 3.467 3.467 0 0 0 1.25781-2.38672l10.42383-116.892574a3.507 3.507 0 0 0-0.8125-2.578125 3.504 3.504 0 0 0-2.39649-1.25l-18.05078-1.56836c-1.77699-0.155-3.84222 0.950627-4.69922 2.515625l-44.73437 81.701174-0.00781 0.00976-0.00391-0.00976-23.93945-88.783205c-0.469-1.742998-2.24402-3.250641-4.04102-3.431641l-19.89453-2.001953c-0.23975-0.024375-0.47612-0.024984-0.70898-0.001953z" fill="none"/>
 <path d="m425.60833 0.063453125a8.576 8.576 0 0 0-2.75586 0.105468745l-23.41797 4.71875003a8.584 8.584 0 0 0-6.80664 7.2402341l-7.70508 55.992188-27.87109-49.587891a8.581 8.581 0 0 0-9.2168-4.197265l-26.2168 5.417968a8.575 8.575 0 0 0-6.11328 4.9375 8.587 8.587 0 0 0 0.47071 7.84375l23.84961 40.179688c-0.4766-0.015873-0.92221-0.058594-1.41797-0.058594-3.623 0-6.7348 0.791048-9.3418 2.373047-0.666 0.404999-1.31627 0.833922-1.94727 1.294922-0.593 0.433999-1.16031 0.896485-1.69531 1.396484-0.442 0.414-1.01384 1.406125-1.71484 1.203125-0.5-0.146-0.93947-0.701469-1.23047-1.105469-0.718-0.983999-1.64267-1.81286-2.63867-2.505859-1.889-1.314999-4.26877-1.976563-7.13477-1.976563-1.438 0-2.79317 0.225735-4.07617 0.677735-1.282 0.451999-2.43517 1.036954-3.45117 1.751953-1.02 0.715999-1.85319 1.467813-2.49219 2.257812-0.104 0.127-0.20441 0.252141-0.31641 0.369141-0.162 0.168-0.41687 0.395984-0.67187 0.333984-0.288-0.066999-0.45849-0.497953-0.52149-0.751953-0.116-0.444999-0.12687-0.916047-0.17187-1.373047-0.062-0.591999-0.12155-1.186344-0.18555-1.777343-0.125-1.192999-1.20634-2.145235-2.40234-2.115235l-16.27734 0.398438c0.22499 4.594995 0.39581 9.001707 0.50781 13.220703 0.115 4.218996 0.19047 8.49227 0.23047 12.822266 0.037 4.331999 0.037 8.907519 0 13.728519-0.039 4.81999-0.05664 13.75-0.05664 13.75a2.142 2.142 0 0 0 2.17968 2.14648l15.79883-0.26953a2.288 2.288 0 0 0 2.22266-2.21484l0.63476-31.037114c0-1.054999 0.26597-2.126704 0.79297-3.220703 0.527-1.091999 1.77333-1.638672 3.73633-1.638672 0.906 0 1.62339 0.337579 2.15039 1.017578 0.525 0.678 0.96274 1.581939 1.30274 2.710938 0.33999 1.128999 0.56268 2.428439 0.67968 3.898437 0.113 1.468999 0.16992 2.994216 0.16992 4.574216v9.60352c0 2.483-0.01964 4.64814-0.05664 6.49414a211.833 211.833 0 0 1-0.16992 5.19726c-0.076 1.621-0.14648 3.41602-0.14648 3.41602a2.15 2.15 0 0 0 2.09961 2.22852h0.0332c0.6 0.012 1.19683 0.02406 1.79883 0.03906 1.293 0.026 2.58586 0.05698 3.88086 0.08398 1.582 0.032 3.16405 0.06652 4.74804 0.10352 1.494 0.031 2.98847 0.06266 4.48047 0.09765 0.916 0.021 1.98963 0.21872 2.89063 0.01172 0.76-0.176 0.59231-0.77676 0.57031-1.38476-0.025-0.918-0.19277-1.81352-0.25976-2.72852a120.919 120.919 0 0 1-0.22852-5.08398c-0.037-1.731-0.07433-3.39071-0.11133-4.97071a163.055 163.055 0 0 1-0.05859-3.84375c0-7.22899 0.29929-12.613295 0.90429-16.154292 0.605-3.540996 2.18887-5.3125 4.75586-5.3125 1.586 0 2.8146 0.661517 3.6836 1.978516 0.865 1.316998 1.30469 3.520425 1.30469 6.607422 0 2.937994-0.35713 6.687194-1.07813 11.242184-0.717 4.562-2.96875 14.42774-2.96875 14.42774-0.268 1.168 0.48569 2.24648 1.67969 2.39648l1.52148 0.18945c2.555 0.32 5.10425 0.63608 7.65625 0.95508 1.619 0.203 3.24033 0.37446 4.86133 0.56446 0.984 0.113 1.95845 0.3304 2.93945 0.4414 0.607 0.066 1.37719 0.37499 1.86719-0.16601 0.465-0.52 0.43792-1.46743 0.54492-2.10743 0.166-0.96699 0.26375-1.93901 0.34375-2.91601 0.121-1.495 0.31149-2.95936 0.52149-4.44336 0.18-1.248 0.34581-2.49609 0.50781-3.74609 0.27766-2.14988 0.48305-4.27295 0.625-6.36914l18.66602 31.44726a8.576 8.576 0 0 0 8.9707 4.05078l15.72851-2.9707a8.58 8.58 0 0 0 6.86719-7l0.31055-1.83789a10.997 10.997 0 0 0 2.0293 4.55469 11.017 11.017 0 0 0 7.6582 4.12109l16.04297 1.40039c5.96299 0.521 11.27847-3.71749 12.10547-9.64648 0 0 2.26-16.26135 4.5-32.36133l10.82031 37.16797c1.363 4.67999 5.70088 8.30931 10.54687 8.82031l10.70118 1.14258c4.74599 0.504 9.72542-2.02807 12.10742-6.16407l19.08398-33.09179-2.66016 30.91797c-0.02699 0.317-0.04101 0.63722-0.04101 0.94922 0 5.62899 4.30896 10.50575 10.00195 11.09375l19.23047 1.99218c2.971 0.307 5.87469-0.57066 8.17969-2.47265a10.96 10.96 0 0 0 3.98437-7.5586l10.42188-116.890622a10.996 10.996 0 0 0-2.55078-8.109375 11.032 11.032 0 0 0-7.54297-3.929687l-18.04883-1.56836c-4.76999-0.414999-9.6991 2.225879-11.99609 6.421875 0 0-24.18828 44.165521-35.69727 65.1875l-19.03906-70.603515c-1.293-4.7969956-5.64476-8.4951884-10.59375-8.9921879l-19.89649-2.0039062a11.213 11.213 0 0 0-8.64453 3.0195312 8.58 8.58 0 0 0-2.35351-4.109375v-0.0039062a8.576 8.576 0 0 0-4.91211-2.355468775zm-3.04492 8.968749975c1.08448 0.005961 1.76832 0.8409856 1.56445 2.0371099l-8.13672 48.064453h-9.20508v4.777343l-1.98828 1.947266-0.22656 0.222656-0.00195 0.31836-0.04883 15.957031-0.00196 0.759765h7.41211l-2.76367 16.316407-5.73633 4.505856-5.35742-0.04297-0.25976-0.00195-4.50196 3.44922-0.29687 0.22461v7.06836l-15.03906 5.55273-16.78321-28.273434 18.55274-15.480469 8.95898 15.9375c0.68 1.208999 1.39208 1.074217 1.58008-0.300781l7.0918-51.511719h7.41406l0.21094-0.177734 2.83398-2.375 0.27149-0.226563v-12.257813l1.80859-1.929687 0.20508-0.21875v-4.162109l1.75586-1.558594 0.2539-0.22461v-6.343749l9.94532-2.0039067c0.16987-0.034375 0.33335-0.0496797 0.48828-0.0488282zm-11.94727 2.3535159v5.357422l-1.75976 1.55664-0.25586 0.226563v4.246093l-1.80469 1.929688-0.20508 0.21875v12.148438l-2.35352 1.972656h-6.65234l3.20117-23.244141c0.188-1.374998 1.45646-2.723047 2.81446-2.998047l7.01562-1.414062zm30.04883 0.664062 19.89453 2.001953c1.383 0.139 2.81097 1.348455 3.16797 2.689453l5.49414 20.373047h-23.62695l-0.16797 0.527344-2.98047 9.373047h-9.54102l4.87696-32.720703c0.203-1.372999 1.50181-2.382141 2.88281-2.244141zm97.33594 9.998047 5.9414 0.517578-6.0957 18.277344h-12.77344l9.19727-16.798828c0.666-1.217999 2.34547-2.116094 3.73047-1.996094zm7.49218 0.652344 10.5586 0.917969a2.524 2.524 0 0 1 2.28906 2.734375l-2.92578 32.802734-13.35547-0.054687-0.57422-0.001954-0.15234 0.556641-4.5 16.265625-0.02735 0.097656v0.101563l-0.0664 23.480468h-9.54102l2.21875-25.75c0.117-1.382998-0.35687-1.532076-1.04687-0.330078l-37.11133 64.363286c-0.691 1.20299-2.39249 2.06396-3.77149 1.91796l-10.70117-1.13867c-1.381-0.146-2.82784-1.3555-3.21484-2.6875l-7.70899-26.46679h4.79883v-28.390629h10.42774l6.58008 24.402339c0.36099 1.338 1.20118 1.43961 1.86718 0.22461l34.70899-63.386715h14.69336l0.17578-0.517578 6.3789-19.140625zm-197.33789 0.523437c1.0733 0.152156 2.14085 0.808095 2.65235 1.714844l4.45898 7.933594h-5.03515l-0.22852 0.310547-1.33789 1.828125h-7.89649v10.076172h-7.36718l-8.76172-14.759766c-0.704-1.195999-0.17255-2.402641 1.18945-2.681641l21.27149-4.396484c0.33875-0.07025 0.69692-0.076109 1.05468-0.025391zm2.84571 11.160157h5.11914l22.87695 40.707031-18.22266 15.201172c-0.662-3.510482-1.80206-6.555842-3.45507-9.105469-1.45067-2.231544-3.37641-4.03346-5.72266-5.453125l-17.29492-29.132812 7.22851-0.001954h0.75977v-10.076171h7.14844l0.22851-0.310547 1.33399-1.828125zm95.69336 4.246093h22.92968l11.04883 40.976563h-11.53515v28.390628h-3.72266l-13.17969-45.277347c-0.391-1.332999-0.86069-1.296827-1.05469 0.076172l-5.63476 40.533205h-10.39453l-3.49414-1.89844-0.16602-0.09375-0.19141-0.00195-6.47851-0.04102 7.85547-52.76367h10.87109l0.16797-0.527344 2.97852-9.373047zm-409.66602 12.03711c-3.409997 0-6.631159 0.473969-9.660156 1.417969-3.031997 0.946999-5.701721 2.344314-8.011719 4.195312-2.311998 1.853998-4.150673 4.140284-5.513672 6.863281-1.362999 2.720998-2.044922 5.896395-2.044922 9.525391 0 3.705996 0.77708 6.97455 2.330078 9.810547a30.47 30.47 0 0 0 5.796875 7.541015 43.629 43.629 0 0 0 7.5 5.728516c2.688998 1.626998 5.188956 3.140111 7.501953 4.53711 2.309998 1.399 4.241877 2.74044 5.796875 4.02344 1.550999 1.287 2.330079 2.64798 2.330079 4.08398 0 1.664-0.437595 2.79835-1.308594 3.40234-0.868999 0.604-2.140642 0.90821-3.806641 0.90821-1.666998 0-3.465439-0.30321-5.398437-0.90821-1.932998-0.60499-3.829596-1.37917-5.683594-2.32617a31.32 31.32 0 0 1-5.169922-3.28906c-1.590998-1.246-2.519531-2.2832-2.519531-2.2832-0.799999-0.893-2.07136-0.85606-2.81836 0.08593l-8.0742183 10.19336c3.7879963 5.218 8.0491613 9.11465 12.7851563 11.68164 4.735995 2.567 10.589507 3.85352 17.5625 3.85352a39.276 39.276 0 0 0 10.398437-1.41602c3.446997-0.94899 6.536675-2.3835 9.263672-4.3125 2.727998-1.92999 4.94344-4.38414 6.648438-7.36914 1.703998-2.98599 2.558594-6.52147 2.558594-10.60546 0-4.234-0.77908-7.88132-2.330079-10.945317-1.555998-3.059997-3.507517-5.685815-5.853515-7.882812a41.53 41.53 0 0 0-7.558594-5.613282 259.463 259.463 0 0 0-7.560547-4.195312c-2.348997-1.247999-4.300564-2.456908-5.851562-3.628906-1.554999-1.171999-2.330078-2.440783-2.330078-3.800782 0-1.057999 0.318844-1.926422 0.964843-2.607422 0.644-0.679999 1.64772-1.021484 3.011719-1.021484 1.137999 0 2.461517 0.210001 3.978516 0.625 1.514998 0.417 3.144673 1.039095 4.888672 1.871094a48.72 48.72 0 0 1 5.341796 3.003906c1.816999 1.174999 3.458985 2.595703 3.458985 2.595703 0.909999 0.788999 2.193657 0.606655 2.847656-0.402344l6.537109-10.072265c-4.319995-4.382996-8.883317-7.690877-13.695312-9.921875-4.812995-2.228998-10.251506-3.345703-16.3125-3.345703zm505.60156 9.951172 12.64453 0.050781-5.83789 65.519528h-6.9414l-0.20899 0.41992-1.25195 2.54102-5.02344 0.66211-0.60937 0.08008-0.04688 0.61719-0.97461 13.86914-8.42773-0.8711a2.588 2.588 0 0 1-2.29297-2.77539l3.4082-39.61914h11.18164l0.00196-0.75586 0.06445-24.132811 4.31445-15.605468zm-134.32617 0.029297h7.43359l-3.54687 20.953124h-6.14648l0.04101-14.880859 1.99024-1.949219 0.22851-0.222656v-3.90039zm-222.23828 9.623046-18.59766 0.404297c0.229 3.626997 0.436 6.762253 0.625 9.40625 0.189 2.644998 0.34208 5.177753 0.45508 7.59375 0.113 2.415998 0.18852 4.909565 0.22852 7.476563 0.035 2.569997 0.05859 5.593406 0.05859 9.066406 0 2.645-0.87133 4.74006-2.61133 6.28906-1.742 1.549-3.82205 2.32031-6.24804 2.32031-2.572 0-4.50402-0.77331-5.79102-2.32031-1.289-1.549-1.92969-3.41837-1.92969-5.60937 0-3.92 0.17846-7.599366 0.56446-11.443362 0.379-3.773996 0.75767-7.248784 1.13867-10.425781 0.455-3.624996 1.22851-8.267578 1.22851-8.267578 0.197-1.185999-0.62317-2.145813-1.82617-2.132813l-19.39062 0.201172a288.049 288.049 0 0 0-1.36328 11.333984 241.745 241.745 0 0 0-0.96485 10.3125c-0.266 3.624997-0.39648 6.872188-0.39648 9.742188 0 4.078 0.49156 7.75539 1.47656 11.02539 0.982 3.271 2.49997 6.05085 4.54297 8.33984 2.043 2.289 4.67358 4.05102 7.89258 5.29102 3.21699 1.235 7.05939 1.85547 11.52539 1.85547 1.287 0 2.61061-0.16977 3.97461-0.50977a20.224 20.224 0 0 0 3.91797-1.41797 21.25 21.25 0 0 0 3.46484-2.0957c0.477-0.356 1.31109-1.48309 1.99609-1.24609 0.889 0.312 0.38867 2.30475 0.38867 2.96875 0 1.202 0.98155 2.16272 2.18555 2.13672l17.80078-0.39844c-0.152-5.554-0.32172-10.75538-0.51172-15.60938l-0.57031-14.30664c-0.189-4.685992-0.37936-9.460986-0.56836-14.333981s-0.44531-13.509766-0.44531-13.509766a2.213 2.213 0 0 0-2.25-2.136719zm-85.28125 0.240235c-4.528996 0-8.566239 0.694845-12.115235 2.089843-3.548996 1.394999-6.530315 3.390237-8.945313 5.990235-2.416997 2.598997-4.247188 5.725957-5.492187 9.376953-1.245999 3.655996-1.869141 7.738817-1.869141 12.25781 0 3.918 0.56722 7.64551 1.699219 11.1875 1.131999 3.542 2.886628 6.64632 5.265625 9.32031 2.376998 2.676 5.376957 4.80277 9.001953 6.38477 3.622997 1.58 7.96349 2.37109 13.021489 2.37109a27.59 27.59 0 0 0 8.3789-1.29882 23.808 23.808 0 0 0 7.47266-3.95508c2.266-1.77 4.24731-4.00961 5.94531-6.72461 1.698-2.711 3.16016-7.51758 3.16016-7.51758a2.148 2.148 0 0 0-1.46094-2.6875l-13.30469-3.80664a7.619 7.619 0 0 1-1.47265 3.27734 13.56 13.56 0 0 1-2.54883 2.54102c-0.944 0.719-1.90572 1.28327-2.88672 1.69726-0.981 0.414-1.8868 0.61915-2.7168 0.61915-2.943995 0-5.343406-1.12868-7.191404-3.38868-1.850999-2.26099-2.773438-5.23369-2.773438-8.929684 0-1.953998 0.28261-3.648986 0.849609-5.083984 0.566-1.424999 1.282345-2.610689 2.152344-3.554688 0.865999-0.940999 1.847361-1.656484 2.94336-2.146484 1.092999-0.487 2.168519-0.732422 3.228519-0.732422 3.16999 0 5.52817 0.791049 7.07617 2.373047 1.547 1.581998 2.24804 3.195312 2.24804 3.195312 0.477 1.099999 1.81747 1.76361 2.98047 1.47461l13.73828-3.429688c-1.43499-6.249993-4.3437-11.299675-8.7207-15.138672-4.37899-3.841996-10.26707-5.761718-17.66406-5.761718zm152.13086 2.144531c-3.625 0-6.73775 0.791048-9.34375 2.373047a26.33 26.33 0 0 0-2.02539 1.355469c-0.586 0.434999-1.1536 0.897438-1.6836 1.398437-0.395 0.373-0.73754 0.943922-1.31054 1.044922-0.146 0.024-0.29913 0.061875-0.45313 0.046875-0.523-0.049-0.66945-0.401016-0.93945-0.791016-0.754-1.093999-1.73041-2.014485-2.81641-2.771484-1.88899-1.315999-4.26581-1.976563-7.13281-1.976563-1.436 0-2.79513 0.225735-4.07812 0.677735a14.069 14.069 0 0 0-3.45313 1.75c-0.861 0.603999-1.60378 1.334376-2.42578 1.984375-0.404 0.317-0.56581 0.755703-1.13281 0.720703-0.586-0.038-0.50197-0.783594-0.54297-1.183594-0.049-0.473999-0.09849-0.947875-0.14649-1.421875a193.38 193.38 0 0 1-0.10937-1.039062c-0.123-1.190999-1.2053-2.144235-2.4043-2.115235l-16.27929 0.398438c0.22699 4.594995 0.39576 9.000707 0.50976 13.220703 0.114 4.218996 0.18952 8.490317 0.22852 12.820312 0.037 4.331993 0.037 8.909473 0 13.730473-0.039 4.81999-0.05469 13.75-0.05469 13.75a2.142 2.142 0 0 0 2.17773 2.14453l15.79688-0.26953c1.197-0.021 2.19865-1.01985 2.22265-2.21485l0.63672-31.037107c0-1.054999 0.26402-2.126704 0.79102-3.220703 0.527-1.092999 1.77133-1.640625 3.73633-1.640625 0.906 0 1.62334 0.338532 2.15234 1.019531 0.525 0.678 0.96074 1.581939 1.30274 2.710938 0.33999 1.128999 0.56373 2.427486 0.67773 3.896484 0.113 1.466999 0.16992 2.994172 0.16992 4.576172v9.60352c0 2.48299-0.01964 4.65014-0.05664 6.49414-0.039 1.85099-0.09592 3.58022-0.16992 5.19921-0.076 1.62-0.14453 3.41602-0.14453 3.41602a2.148 2.148 0 0 0 2.09765 2.22656l18.54297 0.40235c-0.152-1.129-0.28448-2.52265-0.39648-4.18164a110.07 110.07 0 0 1-0.22852-5.08399c-0.037-1.731-0.07428-3.3887-0.11328-4.9707s-0.05664-2.86175-0.05664-3.84375c0-7.22899 0.3032-12.611302 0.9082-16.154298 0.604-3.538997 2.18787-5.310547 4.75586-5.310547 1.584 0 2.81069 0.659517 3.67969 1.978516 0.865 1.317998 1.30273 3.521378 1.30274 6.609375 0 2.937994-0.35918 6.686194-1.07618 11.242184-0.719 4.558-2.9707 14.42578-2.9707 14.42578-0.266 1.168 0.48969 2.24449 1.67969 2.39649l18.67187 2.33008c0.83-4.67 1.53066-9.18855 2.09766-13.56055 0.566-4.366 0.84961-8.62358 0.84961-12.76758 0-4.441994-0.32189-8.529767-0.96289-12.259764-0.646-3.723996-1.83627-6.924659-3.57227-9.597656-1.736-2.671997-4.11481-4.761533-7.13281-6.269531-3.02-1.505999-6.9454-2.261719-11.77539-2.261719zm155.88281 28.99609-4.97656 29.4043c-0.229 1.369-1.53544 2.70103-2.89844 2.95703l-10.77148 2.03516c-1.362 0.258-3.06054-0.50817-3.76953-1.70117l-7.61719-12.83399 15.27148-5.64062 0.49414-0.18164v-7.375l3.79297-2.90235 5.36133 0.04297 0.26563 0.00391 0.20898-0.16407 4.63867-3.64453zm15.79492 1.1543 6.50977 0.04297 3.49609 1.90234 0.16992 0.0918h10.56836l-1.45898 10.48437-20.7832-2.47265 1.49804-10.04883zm-1.7207 11.54883 20.79688 2.47461-2.16211 15.56054c-0.187 1.37-1.47443 2.39635-2.85743 2.27735l-16.04687-1.40039a2.352 2.352 0 0 1-2.14258-2.7168l2.41211-16.19531zm120.57031 13.34961h5.86133l-1.38477 15.54101a2.494 2.494 0 0 1-2.73828 2.25196l-9.29492-0.96094 0.9375-13.30664 4.81445-0.63281 0.39844-0.05274 0.18164-0.36133 1.22461-2.47851z"/>
</svg>
