<?xml version="1.0" encoding="UTF-8" standalone="no"?>
<!DOCTYPE svg PUBLIC "-//W3C//DTD SVG 1.1//EN" "http://www.w3.org/Graphics/SVG/1.1/DTD/svg11.dtd">
<svg width="100%" height="100%" viewBox="0 0 48 33" version="1.1" xmlns="http://www.w3.org/2000/svg" xmlns:xlink="http://www.w3.org/1999/xlink" xml:space="preserve" xmlns:serif="http://www.serif.com/" style="fill-rule:evenodd;clip-rule:evenodd;stroke-linejoin:round;stroke-miterlimit:2;">
    <g transform="matrix(1,0,0,1,-5773.15,-1356.05)">
        <g transform="matrix(0.940628,0,0,0.940628,3217.93,1249.94)">
            <g transform="matrix(1.06312,0,0,1.06312,-3421.05,-1328.83)">
                <path d="M5805.7,1356.12C5806.57,1356.08 5807.45,1356.06 5808.33,1356.05C5808.99,1356.05 5809.84,1356.27 5810.79,1356.71C5812.65,1357.57 5815,1359.25 5816.86,1360.89C5818.13,1362.03 5819.17,1363.15 5819.71,1363.99C5820.06,1364.52 5820.22,1365 5820.25,1365.35C5820.35,1366.65 5818.6,1375.61 5816.55,1381.4C5815.91,1383.21 5815.23,1384.71 5814.58,1385.63C5814.26,1386.09 5813.92,1386.42 5813.6,1386.63C5813.55,1386.67 5813.49,1386.7 5813.44,1386.73C5813.37,1386.77 5813.27,1386.81 5813.14,1386.85C5812.57,1387.03 5811.43,1387.24 5809.87,1387.41C5807.32,1387.68 5803.51,1387.95 5799.33,1388.17L5797.75,1388.25C5791.19,1388.57 5784.04,1388.76 5779.57,1388.66C5778.98,1388.65 5778.45,1388.63 5777.96,1388.61C5777.56,1388.59 5777.2,1388.57 5776.87,1388.54C5776.76,1388.53 5776.66,1388.53 5776.56,1388.52L5775.82,1388.43C5775.77,1388.42 5775.72,1388.41 5775.67,1388.41C5775.09,1388.31 5774.72,1388.14 5774.54,1388C5774.36,1387.87 5774.14,1387.62 5773.97,1387.19C5773.72,1386.54 5773.49,1385.05 5773.35,1383.15C5773.2,1381.11 5773.12,1378.58 5773.15,1376.2C5773.16,1375.98 5773.16,1375.76 5773.17,1375.54C5773.2,1373.95 5773.29,1372.45 5773.43,1371.25C5773.56,1370.21 5773.73,1369.37 5773.94,1368.85C5774.1,1368.45 5774.29,1368.18 5774.47,1368C5781.59,1361.13 5792.49,1356.8 5805.38,1356.14L5805.7,1356.12Z" fill="rgb(65,65,65)"/>
            </g>
            <g transform="matrix(1.06312,0,0,1.06312,-3421.05,-1328.83)">
                <path d="M5776.13,1369.61C5783.42,1362.61 5794.89,1358.47 5808.35,1358.36C5808.91,1358.36 5809.68,1358.7 5810.54,1359.17C5812.09,1360.02 5813.87,1361.33 5815.32,1362.62C5816.26,1363.46 5817.07,1364.29 5817.57,1364.96C5817.74,1365.18 5817.92,1365.51 5817.95,1365.57C5818.01,1366.93 5816.29,1375.23 5814.37,1380.63C5813.89,1381.98 5813.4,1383.15 5812.91,1383.96C5812.71,1384.3 5812.54,1384.57 5812.35,1384.69C5812.23,1384.72 5811.23,1384.92 5810.22,1385.04C5804.83,1385.67 5792.23,1386.3 5783.71,1386.37C5780.35,1386.4 5776.99,1386.16 5776.05,1386.09C5776.03,1385.99 5776,1385.86 5775.98,1385.75C5775.85,1385.06 5775.74,1384.1 5775.65,1382.98C5775.39,1379.5 5775.37,1374.53 5775.73,1371.53C5775.83,1370.67 5776.09,1369.74 5776.13,1369.61Z" fill="white"/>
            </g>
            <g transform="matrix(1.06312,0,0,1.06312,-3421.05,-1328.83)">
                <path d="M5806,1370.27L5802.03,1370.27L5802.03,1381.04L5798.84,1381.04L5798.84,1370.27L5794.94,1370.27L5794.94,1367.81L5806,1367.81L5806,1370.27Z" fill="rgb(65,65,65)"/>
            </g>
            <g transform="matrix(1.06312,0,0,1.06312,-3421.05,-1328.83)">
                <path d="M5790.58,1378.58L5796.13,1378.58L5796.13,1381.04L5787.39,1381.04L5787.39,1367.81L5790.58,1367.81L5790.58,1378.58Z" fill="rgb(65,65,65)"/>
            </g>
        </g>
    </g>
</svg>
