<svg enable-background="new 0 0 3840 444.8" version="1.1" viewBox="0 0 3840 444.8" xml:space="preserve" xmlns="http://www.w3.org/2000/svg">
<path d="m3359.5996 0c-119.9999 0-217.2988 97.300901-217.2988 217.30078 0 119.99988 97.2989 217.29883 217.2988 217.29883 84.0999 0 156.9997-48.00046 193.0996-117.90039h-82.6992c-27.2 30.29997-66.6 49.20117-110.5 49.20117-82.1999 0-148.8008-66.60125-148.8008-148.70117s66.6009-148.69922 148.8008-148.69922c43.2 0 82.1008 19.400811 109.3008 49.30078h83.0996c-36.3-68.99993-108.8009-117.80078-192.3008-117.80078zm-3141.99999 9.9003906c-120.19988 0-217.59961 97.3001194-217.59961 217.4999994 0 120.09988 97.40012 217.60039 217.5 217.40039 97.7999 0 180.50042-64.70009 207.90039-153.5 6.29999-20.29998 9.59961-41.80158 9.59961-64.10156 0-1.6 3.9e-4 -3.19883-0.09961-4.79883h-213.80078v69h133.90039c-24.19998 51.69995-76.60045 87.5-137.40039 87.5-83.69992 0-151.59961-67.89969-151.59961-151.59961s67.79969-151.601561 151.59961-151.601561c51.19995 0 96.50042 25.400821 123.90039 64.300781l75.30078 0.09961c-33.69997-76.599924-110.20126-130.1992194-199.20117-130.1992194zm1642.99999 3.0000004c-46.7999 0-95.1992 33.500056-95.1992 89.499999 0 38.99996 21.4988 64.20041 42.7988 82.90039-39.4999 27.99997-73.8984 57.79928-73.8984 119.19922 0 34.89997 12.6 66.60002 35.5 89.5 23.1 23.09998 55.2988 35.80078 90.7988 35.80078 67.1999 0 100.5996-32.50083 126.0996-82.80078l82.4004 76.19922 43.2012-46.69922-97.9004-90.59961c22.7-51.19995 56.7988-128 56.7988-128h-69.5996l-36.5996 82.5-54.5-50.30078c25-20.09998 46.9004-45.39926 46.9004-87.69922 0-22.699977-9.0012-44.200406-25.2012-60.40039-18.5-18.499982-44.5996-29.099609-71.5996-29.099609zm-1194.79882 1.199218-274.80078 414.000001h85.09961l58.70117-88.40039h131.09961v88.60156h70.90039v-414.201171h-71zm365.59962 0-274.9004 414.000001h85.19922l189.70118-285.79883v286h70.9004v-0.5l189.5996-285.5v286h70.9004v-414.201171h-70.9004l-189.5996 285.400391v-285.400391h-70.9004zm388.6992 0v414.201171l70.9004-0.30078h144.5v-70.90039h-144.5v-96.5h144.5v-70.90039h-144.5v-104.69922h144.5v-70.900391h-215.4004zm758.7012 0.09961v414.201171h70.8984l189.5-285.5v285.5h70.9004l274.9004-413.999999h-85.0996l-189.8008 285.699219v-285.900391h-70.9004v0.5l-189.5 285.400391v-285.900391h-70.8984zm650.8984 0-274.8984 414.000001h85.0996l58.6992-88.39844h131.0996v88.59961h70.9004v-414.201171h-70.9004zm98.6016 0v70.90039h80.2988v343.201171h70.9004v-343.201171h80.1992v-70.90039h-231.3984zm641.8984 0v414.101561h70.9004v-176.40039h128v176.40039h70.9004v-414.101561h-70.9004v166.701171h-128v-166.701171h-70.9004zm-1709.5 62.201172c10 0 20.2016 4.000397 26.6016 10.40039 4.5 4.399996 6.5996 9.500006 6.5996 15.499999 0 17.79998-8.6004 27.59846-31.9004 44.89844-20.4-16.39998-32.9004-27.79846-32.9004-44.89844-0.1-6.399992 2.0996-11.701175 6.5996-16.201171 6-5.999994 15.6-9.699218 25-9.699218zm-1194.89842 65.900389v126.5h-84l84-126.5zm2163.89842 0.19922v126.40039h-84l84-126.40039zm-971.7988 85.40039 79.7988 73.69922-1.1992 3c-21.9 48.89995-37.5008 61.5-75.8008 61.5-18.8 0-34.6984-5.99962-45.8984-17.09961-11.1-11.09999-16.9004-26.49963-16.9004-44.59961 0-33.39997 17.2004-46.70003 59.4004-76 0.2-0.1 0.4996-0.3 0.5996-0.5z"/>				
</svg>
