<svg height="100.826" viewBox="15.349 117.018 567.154 100.826" width="567.154" xmlns="http://www.w3.org/2000/svg"><g fill="#fff"><path d="M176.916 152.213c1.66 1.15 2.906 2.396 3.737 3.736.894 1.598 1.437 3.386 1.629 5.365v44.169c0 2.684-.495 4.775-1.485 6.277-.99 1.5-2.093 2.697-3.306 3.592-1.405 1.021-3.002 1.725-4.79 2.107h-29.798v-67.165h26.923c3.067.131 5.43.769 7.09 1.919zm2.108 8.91c-.191-1.404-.606-2.682-1.245-3.832-.512-.958-1.31-1.836-2.396-2.635s-2.556-1.134-4.407-1.007l-25.008.096v60.649h25.391c1.341-.254 2.555-.701 3.641-1.34.895-.512 1.757-1.277 2.587-2.301.83-1.021 1.31-2.426 1.438-4.215v-45.415zm-14.084 3.881a6.379 6.379 0 0 1 1.341 1.772c.319.703.511 1.501.575 2.395v27.786c.063 1.598-.08 2.828-.432 3.689-.352.863-.782 1.484-1.293 1.867-.575.512-1.214.799-1.916.863h-5.749l-.191-39.379h5.174c1.086.129 1.916.464 2.491 1.007zm-1.15 4.167c-.128-.51-.319-.925-.574-1.245-.575-.702-1.565-.894-2.971-.575v32.959c.574.191 1.117.256 1.629.191a2.2 2.2 0 0 0 1.197-.574c.352-.318.591-.926.719-1.82zm41.296-18.587v66.685h-18.588v-66.685zm-3.258 3.832h-12.264v59.212h12.264zm27.691 18.013v-2.778c.063-1.277-.224-2.044-.862-2.3-.256-.127-.607-.127-1.054 0-.512 0-.879.112-1.103.336s-.367.495-.431.814c-.129.319-.129.702 0 1.149v3.641l14.755 9.582c1.852 1.021 3.273 2.107 4.264 3.258s1.677 2.236 2.06 3.258a9.959 9.959 0 0 1 .671 3.641v14.658c-.128 2.109-.671 3.818-1.629 5.127-.958 1.311-2.044 2.316-3.258 3.018-1.405.83-2.97 1.438-4.694 1.82h-19.354c-2.428-.064-4.328-.67-5.701-1.82-1.373-1.148-2.379-2.363-3.018-3.641-.767-1.533-1.246-3.258-1.438-5.174v-21.846l17.438 10.637v3.736c0 .574.079 1.006.239 1.293.159.287.367.496.623.623.255.191.574.287.958.287.958-.064 1.501-.447 1.629-1.15.063-.254.031-.605-.096-1.053v-4.408l-12.743-7.664c-2.236-1.213-3.913-2.508-5.03-3.881-1.118-1.373-1.933-2.604-2.443-3.689-.575-1.277-.862-2.555-.862-3.832v-15.713c.127-2.427.702-4.311 1.725-5.652 1.021-1.342 2.172-2.332 3.449-2.971 1.469-.702 3.098-1.117 4.887-1.245h17.15c2.938.128 5.205.671 6.803 1.629 1.597.958 2.811 2.044 3.641 3.257.895 1.406 1.469 2.971 1.725 4.695v24.432zm-1.534-8.335c1.021.128 1.805.367 2.348.719s.974.75 1.293 1.197c.319.512.543 1.086.671 1.725v2.778l12.456 7.473-.192-16.383c.063-1.66-.304-3.018-1.102-4.072-.799-1.054-1.677-1.868-2.635-2.443-1.15-.702-2.46-1.149-3.929-1.342h-18.587c-1.47.129-2.62.528-3.45 1.198-.83.671-1.469 1.357-1.916 2.06a9.155 9.155 0 0 0-1.054 2.875V175.4c-.064 1.278.191 2.395.767 3.354a12.834 12.834 0 0 0 1.916 2.49c.767.83 1.693 1.564 2.779 2.203l15.713 10.156v6.229c0 1.213-.256 2.156-.767 2.826-.512.672-1.086 1.166-1.725 1.484-.703.385-1.533.641-2.491.768-1.214-.127-2.14-.398-2.778-.814-.639-.414-1.118-.877-1.438-1.389-.384-.574-.64-1.246-.767-2.014v-3.064l-11.21-6.707-.191 15.713c.063 1.852.463 3.273 1.197 4.264s1.549 1.74 2.443 2.252c1.021.574 2.203.926 3.545 1.053h18.684c1.852-.063 3.241-.479 4.168-1.244.926-.768 1.612-1.598 2.06-2.492.511-1.086.767-2.299.767-3.641V192.55c.063-.768-.128-1.533-.575-2.301a9.898 9.898 0 0 0-1.532-2.012 23.64 23.64 0 0 0-2.3-2.012l-17.055-11.019v-7.09c.063-1.086.367-1.884.91-2.395s1.102-.895 1.677-1.15a8.724 8.724 0 0 1 2.3-.477zm60.938 11.593-6.898 7.951 6.898 8.432v25.199h-17.726v-18.588l-2.491-2.299v21.078h-17.917v-66.972h17.917v21.078l2.491-2.97v-18.108h17.726zm-3.067-21.367h-11.114l-.096 16.001-9.007 9.198-.383-25.582h-11.21v59.595h11.114v-24.721l8.719 8.24v16.576h11.785v-21.174l-7.569-8.816 7.761-9.005zm55.093 18.109v-2.778c.064-1.277-.223-2.044-.861-2.3-.256-.127-.607-.127-1.055 0-.512 0-.879.112-1.102.336a1.558 1.558 0 0 0-.432.814c-.129.319-.129.702 0 1.149v3.641l14.756 9.582c1.852 1.021 3.273 2.107 4.264 3.258s1.676 2.236 2.059 3.258a9.96 9.96 0 0 1 .672 3.641v14.658c-.129 2.109-.672 3.818-1.629 5.127-.959 1.311-2.045 2.316-3.258 3.018-1.406.83-2.971 1.438-4.695 1.82h-19.354c-2.428-.064-4.328-.67-5.701-1.82-1.373-1.148-2.379-2.363-3.018-3.641-.768-1.533-1.246-3.258-1.438-5.174v-21.846l17.438 10.637v3.736c0 .574.08 1.006.24 1.293.158.287.367.496.623.623.254.191.574.287.957.287.959-.064 1.502-.447 1.629-1.15.064-.254.031-.605-.096-1.053v-4.408l-12.742-7.664c-2.236-1.213-3.914-2.508-5.031-3.881s-1.932-2.604-2.443-3.689c-.574-1.277-.861-2.555-.861-3.832v-15.713c.127-2.427.701-4.311 1.725-5.652 1.021-1.342 2.172-2.332 3.449-2.971 1.469-.702 3.098-1.117 4.887-1.245h17.15c2.938.128 5.205.671 6.803 1.629 1.596.958 2.811 2.044 3.641 3.257.895 1.406 1.469 2.971 1.725 4.695v24.432zm-1.533-8.335c1.021.128 1.805.367 2.348.719s.975.75 1.293 1.197c.32.512.543 1.086.672 1.725v2.778l12.455 7.473-.191-16.383c.063-1.66-.305-3.018-1.102-4.072-.799-1.054-1.678-1.868-2.635-2.443-1.15-.702-2.461-1.149-3.93-1.342H329.74c-1.471.129-2.621.528-3.451 1.198-.83.671-1.469 1.357-1.916 2.06a9.153 9.153 0 0 0-1.053 2.875V175.4c-.064 1.278.191 2.395.766 3.354a12.834 12.834 0 0 0 1.916 2.49c.768.83 1.693 1.564 2.779 2.203l15.713 10.156v6.229c0 1.213-.256 2.156-.766 2.826-.512.672-1.086 1.166-1.725 1.484-.703.385-1.533.641-2.492.768-1.213-.127-2.139-.398-2.777-.814-.639-.414-1.119-.877-1.438-1.389-.385-.574-.641-1.246-.768-2.014v-3.064l-11.209-6.707-.191 15.713c.063 1.852.463 3.273 1.197 4.264s1.549 1.74 2.443 2.252c1.021.574 2.203.926 3.545 1.053h18.684c1.852-.063 3.24-.479 4.168-1.244.926-.768 1.611-1.598 2.059-2.492.512-1.086.768-2.299.768-3.641V192.55c.063-.768-.129-1.533-.576-2.301a9.895 9.895 0 0 0-1.531-2.012 23.653 23.653 0 0 0-2.301-2.012l-17.055-11.019v-7.09c.064-1.086.367-1.884.91-2.395s1.102-.895 1.678-1.15a8.708 8.708 0 0 1 2.299-.477zm63.045-13.414v56.912c-.064 2.236-.527 4.01-1.389 5.318-.863 1.311-1.836 2.316-2.922 3.018-1.215.768-2.619 1.311-4.217 1.629H365.67V201.27h18.012v-3.162h-12.264c-2.363-.127-4.152-.703-5.365-1.725-1.215-1.021-2.076-2.172-2.588-3.449-.639-1.469-.957-3.098-.957-4.887V150.68h18.396v30.564h3.162V150.68zm-3.162 3.545h-11.592v26.158c-.064.83-.289 1.564-.672 2.203-.32.574-.814 1.086-1.484 1.533-.672.447-1.645.703-2.922.766-.959.064-1.789-.031-2.492-.287-.639-.256-1.213-.703-1.725-1.342s-.799-1.66-.861-3.066v-25.964H366.34v34.013c.064 1.277.352 2.428.863 3.449.447.895 1.133 1.709 2.059 2.443s2.283 1.102 4.072 1.102h14.277v4.982a5.168 5.168 0 0 1-.863 2.203c-.383.512-.959.99-1.725 1.438-.768.447-1.789.672-3.066.672h-12.838v9.484h24.432c1.086-.127 2.045-.445 2.875-.957.701-.447 1.355-1.117 1.963-2.012s.91-2.109.91-3.643zm27.5 18.204v-2.778c.063-1.277-.225-2.044-.863-2.3-.256-.127-.607-.127-1.053 0-.512 0-.879.112-1.104.336a1.555 1.555 0 0 0-.43.814c-.129.319-.129.702 0 1.149v3.641l14.754 9.582c1.852 1.021 3.273 2.107 4.264 3.258s1.678 2.236 2.061 3.258c.447 1.15.67 2.363.67 3.641v14.658c-.127 2.109-.67 3.818-1.629 5.127-.957 1.311-2.043 2.316-3.258 3.018-1.404.83-2.969 1.438-4.693 1.82h-19.355c-2.428-.064-4.328-.67-5.701-1.82-1.373-1.148-2.379-2.363-3.018-3.641-.766-1.533-1.246-3.258-1.438-5.174v-21.846l17.439 10.637v3.736c0 .574.078 1.006.238 1.293s.367.496.623.623c.256.191.574.287.959.287.957-.064 1.5-.447 1.629-1.15.063-.254.031-.605-.096-1.053v-4.408l-12.744-7.664c-2.236-1.213-3.912-2.508-5.029-3.881-1.119-1.373-1.934-2.604-2.443-3.689-.576-1.277-.863-2.555-.863-3.832v-15.713c.127-2.427.703-4.311 1.725-5.652s2.172-2.332 3.449-2.971c1.469-.702 3.098-1.117 4.887-1.245h17.15c2.938.128 5.205.671 6.803 1.629s2.811 2.044 3.641 3.257c.895 1.406 1.469 2.971 1.725 4.695v24.432zm-1.533-8.335c1.021.128 1.805.367 2.348.719s.973.75 1.293 1.197c.318.512.543 1.086.67 1.725v2.778l12.457 7.473-.193-16.383c.064-1.66-.303-3.018-1.102-4.072s-1.676-1.868-2.635-2.443c-1.15-.702-2.459-1.149-3.928-1.342h-18.588c-1.469.129-2.619.528-3.449 1.198-.83.671-1.469 1.357-1.916 2.06a9.157 9.157 0 0 0-1.055 2.875V175.4c-.064 1.278.191 2.395.768 3.354a12.834 12.834 0 0 0 1.916 2.49c.766.83 1.693 1.564 2.779 2.203l15.713 10.156v6.229c0 1.213-.256 2.156-.768 2.826-.512.672-1.086 1.166-1.725 1.484-.703.385-1.533.641-2.49.768-1.215-.127-2.141-.398-2.779-.814-.639-.414-1.117-.877-1.438-1.389-.383-.574-.639-1.246-.766-2.014v-3.064l-11.211-6.707-.191 15.713c.064 1.852.463 3.273 1.197 4.264s1.549 1.74 2.443 2.252c1.021.574 2.203.926 3.545 1.053h18.684c1.852-.063 3.242-.479 4.168-1.244.926-.768 1.613-1.598 2.061-2.492.51-1.086.766-2.299.766-3.641V192.55c.064-.768-.127-1.533-.574-2.301a9.902 9.902 0 0 0-1.533-2.012 23.626 23.626 0 0 0-2.299-2.012l-17.055-11.019v-7.09c.063-1.086.367-1.884.91-2.395s1.102-.895 1.676-1.15a8.723 8.723 0 0 1 2.301-.477zm58.158-13.223v17.438h-8.24v49.152H455.83v-49.152h-7.857v-17.82zm-3.736 3.449h-28.266v10.156h8.049v49.535h11.689v-49.248h8.527V154.32zm25.582 13.797v7.761h12.264v17.438h-12.646v7.377h12.646v17.055l-31.139-.191v-67.068h31.521v17.629H505.27zm-3.737 11.306v-14.851h12.646v-10.156h-24.24v60.554h24.24v-10.635h-12.838v-14.564h13.029v-10.348zm77.416-26.491c1.277 1.054 2.172 2.155 2.684 3.305.639 1.342.926 2.812.861 4.407v57.2h-18.205v-48.097c-.064-.702-.318-1.149-.766-1.341a3.158 3.158 0 0 0-.768-.097c-.383 0-.686.097-.91.288a2.85 2.85 0 0 0-.525.574c-.193.256-.289.512-.289.767v47.714H543.02v-47.619c0-.702-.256-1.245-.766-1.628a2.197 2.197 0 0 0-.768-.384c-.447 0-.799.097-1.055.288s-.447.415-.574.67c-.191.256-.287.575-.287.958v47.427h-17.438v-66.781h22.324c1.404-.128 2.635-.017 3.688.335 1.055.352 1.965.783 2.732 1.294.83.575 1.596 1.246 2.299 2.012.383-.702.861-1.261 1.438-1.677a9.59 9.59 0 0 1 1.725-1.006 18.532 18.532 0 0 1 2.012-.671h15.043c2.425.321 4.279 1.008 5.556 2.062zm.192 7.233c-.064-1.086-.318-2.044-.766-2.874-.385-.703-1.039-1.357-1.965-1.965-.926-.606-2.221-.91-3.881-.91h-13.125a7.38 7.38 0 0 0-2.875.767c-.768.384-1.549.959-2.348 1.725-.799.767-1.422 1.789-1.869 3.066-.512-1.213-1.117-2.268-1.82-3.162-.703-.766-1.564-1.469-2.586-2.107-1.023-.639-2.365-.927-4.025-.862l-17.916.191v59.978H536.6v-44.457c-.064-.895.096-1.692.479-2.396.32-.639.848-1.213 1.582-1.725.734-.511 1.836-.767 3.305-.767.768 0 1.502.192 2.205.575.51.319 1.006.878 1.484 1.677s.719 1.964.719 3.497v43.594h11.307v-44.457c0-.766.191-1.501.574-2.204.318-.574.83-1.102 1.533-1.58.701-.479 1.756-.719 3.162-.719.766-.063 1.5.032 2.203.287.574.256 1.102.703 1.58 1.342s.719 1.661.719 3.065v44.265h11.689zM143.1 117.018h11.733v4.089h-7.622v4.96h7.622v4.221h-7.622v8.816H143.1zm25.076 22.086h-3.997v-3.439h-7.742l-2.294 3.439h-4.707l15.485-22.086h3.255zm-3.997-7.612v-6.444l-4.729 6.444zm5.564-14.474h4.636l6.537 14.846 6.583-14.846h4.683v22.086h-4.127v-11.135l-5.099 11.135h-4.173l-4.914-11.135v11.135h-4.126zm99.376 0h4.637l6.536 14.846 6.584-14.846h4.683v22.086h-4.127v-11.135l-5.1 11.135h-4.172l-4.915-11.135v11.135h-4.126zm-75.636 0h4.271v22.086h-4.271zm5.447 0h4.27v18.059h5.565v4.027h-9.835zm5.09 0h4.745l4.486 9.049 4.357-9.049h4.702l-7.075 14.048v8.038h-4.14v-8.038zm41.501 6.091a11.214 11.214 0 0 0-9.937-6.011c-6.194 0-11.216 5.021-11.216 11.216s5.021 11.215 11.216 11.215c4.346 0 8.115-2.472 9.977-6.087l-5.082.042a7.03 7.03 0 0 1-11.797-5.171 7.03 7.03 0 0 1 11.743-5.218z"/><path d="M256.619 139.588c-6.226 0-11.273-5.048-11.273-11.274s5.048-11.274 11.273-11.274c6.228 0 11.275 5.048 11.275 11.274.001 6.227-5.047 11.274-11.275 11.274zm7.178-11.274a7.134 7.134 0 0 0-14.267 0 7.134 7.134 0 0 0 14.267 0zm36.557-11.293a7.268 7.268 0 0 1 0 14.487l-3.229-.015v7.611h-4.141v-22.086h4.141zm-3.228 4.248v5.991l3.229-.003a3.045 3.045 0 0 0 0-5.985zm55.402 18.122h-4.099v-22.183l5.695-.008 3.228.002a7.268 7.268 0 0 1 1.958 14.051l4.778 8.137h-4.485l-6.697-11.442h-.378zm4.826-11.953a3.046 3.046 0 0 0 0-5.985h-4.825v5.989zm-44.926 2.342.003 3.229a3.045 3.045 0 0 0 5.985 0l.003-3.229.011-12.571h4.24v12.571l-.004 3.229a7.267 7.267 0 0 1-14.486 0l.015-3.229-.007-12.571h4.256zm14.477 9.611h4.185v-18.002h3.752v-4.181h-11.561v4.181h3.624zm20.447 0h-11.497v-22.183h11.497v4.061h-7.376v5.267h7.376v4.142h-7.376v4.615h7.376zM71.735 203.853c6.338 0 11.477 5.137 11.477 11.475h30.341c4.949 0 8.961-4.012 8.961-8.959a8.97 8.97 0 0 0-6.426-8.6l-.021-.039v-9.313l.045-.097c5.534-2.48 9.388-8.038 9.388-14.495 0-6.424-3.816-11.959-9.306-14.458l-.127-.083v-29.32c0-5.644-4.575-10.219-10.218-10.219H37.516c-5.644 0-10.219 4.575-10.219 10.219v29.32l-.126.083c-5.49 2.499-9.307 8.034-9.307 14.458 0 6.457 3.854 12.015 9.388 14.495l.045.097v9.313l-.02.039a8.969 8.969 0 0 0-6.426 8.6c0 4.947 4.013 8.959 8.961 8.959h30.341c0-6.338 5.138-11.475 11.477-11.475z"/><path d="M18.335 206.369a11.483 11.483 0 0 1 6.445-10.319v-6.157c-5.626-3.145-9.43-9.164-9.432-16.067.002-6.903 3.806-12.923 9.432-16.066v-27.795c.003-7.034 5.701-12.733 12.734-12.734h68.333c7.034.001 12.733 5.701 12.734 12.734v27.795c5.626 3.143 9.43 9.163 9.432 16.066-.002 6.903-3.805 12.923-9.432 16.067v6.157a11.477 11.477 0 0 1 6.445 10.319c-.001 6.338-5.136 11.473-11.476 11.475H80.696v-2.516a8.975 8.975 0 0 0-8.96-8.961v-5.032c6.869.002 12.58 4.951 13.765 11.479h28.052a6.456 6.456 0 0 0 6.444-6.445c.005-2.928-1.956-5.398-4.62-6.186l-1.042-.307-.783-1.545v-.602l-.001-9.314v-.56l.679-1.45.854-.381c4.657-2.092 7.903-6.764 7.901-12.2.002-5.41-3.213-10.062-7.833-12.169l-.183-.083-1.418-.937v-30.672a7.715 7.715 0 0 0-7.703-7.704H37.515a7.714 7.714 0 0 0-7.703 7.704v30.672l-1.129.746-.291.192-.18.082c-4.621 2.108-7.835 6.76-7.833 12.169-.003 5.437 3.244 10.108 7.901 12.2l.852.381.679 1.45v10.476l-.784 1.545-1.042.307c-2.665.787-4.625 3.258-4.62 6.186a6.455 6.455 0 0 0 6.445 6.445h28.051c1.187-6.527 6.897-11.477 13.767-11.479h.105v5.032h-.103a8.975 8.975 0 0 0-8.961 8.961v2.516H29.813c-6.339-.003-11.476-5.137-11.478-11.475z"/><path d="M31.96 155.326c.001-10.448 8.47-18.916 18.918-18.917 10.448.001 18.917 8.469 18.917 18.917-.001 10.448-8.47 18.916-18.917 18.916-10.447 0-18.916-8.468-18.918-18.916zm3.145 0c.015 8.712 7.062 15.757 15.773 15.772 8.711-.015 15.758-7.061 15.773-15.772-.016-8.71-7.063-15.757-15.773-15.773-8.711.016-15.758 7.063-15.773 15.773z"/><circle cx="63.089" cy="155.38" r="4.402"/><path d="M73.569 155.326c0-10.448 8.469-18.916 18.917-18.917 10.447.001 18.916 8.469 18.917 18.917-.001 10.448-8.47 18.916-18.917 18.916-10.448 0-18.917-8.468-18.917-18.916zm18.917 15.773c8.71-.015 15.757-7.061 15.772-15.772-.016-8.71-7.062-15.757-15.772-15.773-8.71.016-15.759 7.063-15.774 15.773.016 8.711 7.064 15.756 15.774 15.772z"/><circle cx="80.276" cy="155.38" r="4.402"/></g></svg>