<?xml version="1.0" encoding="utf-8"?>
<!-- Generator: Adobe Illustrator 25.1.0, SVG Export Plug-In . SVG Version: 6.00 Build 0)  -->
<svg version="1.1" id="Layer_1" xmlns="http://www.w3.org/2000/svg" xmlns:xlink="http://www.w3.org/1999/xlink" x="0px" y="0px"
	 viewBox="0 0 3840 679.2" style="enable-background:new 0 0 3840 679.2;" xml:space="preserve">
<style type="text/css">
	.st0{fill:#FDBC1A;}
	.st1{fill:none;}
	.st2{fill:#FFFFFF;}
	.st3{fill:#FFFFFF;stroke:#000000;stroke-width:9;stroke-miterlimit:10;}
</style>
<g>
	<g>
		<g>
			<path class="st0" d="M664.2,503.1v-13l10.9-7c31.3-20,50-53.9,50-90.7s-18.7-70.6-50-90.7l-10.9-7v-13V67.9
				c0-23.7-19.3-43.1-43-43.1H127.6c-23.7,0-43.1,19.3-43.1,43.1v213.9v13l-10.9,7c-31.3,20-49.9,53.9-49.9,90.7
				s18.7,70.6,49.9,90.7l10.9,7v13v46.7V572l-22.2,1.4c-21.7,1.4-38.6,19.3-38.6,40.9c0,22.8,18.5,41.3,41.2,41.3h219.6
				c10.5-39.8,46.8-69.2,89.8-69.2s79.4,29.4,89.8,69.2h219.6c22.8,0,41.2-18.5,41.2-41.3c0-21.6-17-39.5-38.7-40.9l-22.2-1.4v-22.3
				L664.2,503.1L664.2,503.1z"/>
		</g>
		<g>
			<g>
				<g>
					<path d="M519.4,153.1c28.8,0,55.9,11.2,76.2,31.6c20.4,20.4,31.6,47.4,31.6,76.3s-11.2,55.9-31.6,76.2
						c-20.4,20.4-47.5,31.6-76.2,31.6s-55.9-11.2-76.2-31.6c-20.4-20.4-31.6-47.5-31.6-76.2s11.2-55.9,31.6-76.3
						C463.5,164.3,490.6,153.1,519.4,153.1 M519.4,129.4c-72.6,0-131.5,58.9-131.5,131.5s58.9,131.5,131.5,131.5
						S651,333.5,651,260.9S592.1,129.4,519.4,129.4L519.4,129.4z"/>
				</g>
			</g>
			<circle cx="430.3" cy="260.9" r="31.8"/>
		</g>
		<g>
			<g>
				<g>
					<path d="M229.4,153.1c28.8,0,55.9,11.2,76.2,31.6c20.4,20.4,31.6,47.4,31.6,76.3s-11.2,55.9-31.6,76.2
						c-20.4,20.4-47.5,31.6-76.2,31.6s-55.9-11.2-76.2-31.6c-20.4-20.4-31.6-47.5-31.6-76.2s11.2-55.9,31.6-76.3
						C173.5,164.3,200.6,153.1,229.4,153.1 M229.4,129.4c-72.6,0-131.5,58.9-131.5,131.5s58.9,131.5,131.5,131.5
						s131.5-58.9,131.5-131.5S302,129.4,229.4,129.4L229.4,129.4z"/>
				</g>
			</g>
			<circle cx="318.5" cy="260.9" r="31.8"/>
		</g>
		<path d="M621.2,24.8c23.7,0,43,19.3,43,43.1v213.9v13l10.9,7c31.3,20,50,53.9,50,90.7s-18.7,70.6-50,90.7l-10.9,7v13v46.7V572
			l22.2,1.4c21.7,1.4,38.7,19.3,38.7,40.9c0,22.8-18.5,41.3-41.2,41.3H464.2c-10.5-39.8-46.8-69.2-89.8-69.2s-79.4,29.4-89.8,69.2
			H64.9c-22.8,0-41.2-18.5-41.2-41.3c0-21.6,17-39.5,38.6-40.9l22.2-1.4v-22.3v-46.7v-13l-10.9-7c-31.3-20-49.9-53.9-49.9-90.7
			s18.7-70.6,49.9-90.7l10.9-7v-13V67.9c0-23.7,19.3-43.1,43.1-43.1H621.2 M621.2,1.1H127.6C90.7,1.1,60.8,31,60.8,67.9v213.9
			C24.4,305.2,0,345.9,0,392.4c0,46.6,24.4,87.3,60.9,110.6v46.7C26.9,551.9,0,579.8,0,614.3c0,35.9,29.1,65,64.9,65h240.2
			c0-38.2,31-69.2,69.2-69.2s69.2,31,69.2,69.2h240.2c35.9,0,64.9-29.1,64.9-65c0-34.5-26.9-62.4-60.9-64.5v-46.7
			c36.5-23.4,60.9-64,60.9-110.6c0-46.6-24.3-87.3-60.9-110.6V67.9C687.9,31,658,1.1,621.2,1.1L621.2,1.1z"/>
	</g>
	<g>
		<path d="M1028.2,222.1H827.7v457.1h200.6c38.1,0,69-30.9,69-69V291.1C1097.2,253,1066.3,222.1,1028.2,222.1z M1073.6,610.2
			c0,25-20.3,45.3-45.3,45.3H851.3V245.7h176.9c25,0,45.3,20.3,45.3,45.3V610.2z"/>
		<path d="M1515.3,452.6l-116-77.7v-30.7c0-7.2,6.4-12.9,13.8-11.6c5.8,1,9.8,6.4,9.8,12.3v18v7.1l123,82.6l0-161.6
			c0-38.1-30.9-69-69-69h-131.6c-38.1,0-69,30.9-69,69v100.3c0,23,11.5,44.5,30.6,57.3l116,77.7v30.7c0,7.2-6.4,12.8-13.8,11.6
			c-5.8-0.9-9.8-6.4-9.8-12.3v-18v-7.1l-123-82.6v161.6c0,38.1,30.9,69,69,69h131.6c38.1,0,69-30.9,69-69v-89.7l0,22.1v-32.6
			C1545.9,486.9,1534.4,465.4,1515.3,452.6z M1522.2,520.5L1522.2,520.5l0,89.7c0,25-20.3,45.3-45.3,45.3h-131.6
			c-25,0-45.3-20.3-45.3-45.3V493.1l75.7,50.8v12.6c0,17.8,12.5,32.8,29.7,35.6c1.9,0.3,3.8,0.5,5.8,0.5c8.4,0,16.5-3,23-8.4
			c7.9-6.8,12.5-16.6,12.5-27v-30.7v-12.6l-10.5-7l-116-77.7c-12.6-8.4-20.1-22.5-20.1-37.7V291.1c0-25,20.3-45.3,45.3-45.3h131.6
			c25,0,45.3,20.3,45.3,45.3l0,117.2l-75.7-50.8v-12.6c0-17.9-12.5-32.8-29.7-35.6c-1.9-0.3-3.8-0.5-5.8-0.5c-8.4,0-16.5,3-23,8.4
			c-7.9,6.8-12.5,16.6-12.5,27v30.7v12.6l10.5,7l116,77.7c12.6,8.4,20.1,22.5,20.1,37.7L1522.2,520.5L1522.2,520.5z"/>
		<path d="M2864.4,452.6l-116-77.7v-30.7c0-7.2,6.4-12.9,13.8-11.6c5.8,1,9.8,6.4,9.8,12.3v18v7.1l123,82.6l0-161.6
			c0-38.1-30.9-69-69-69h-131.6c-38.1,0-69,30.9-69,69v100.3c0,23,11.5,44.5,30.6,57.3l116,77.7v30.7c0,7.2-6.4,12.8-13.8,11.6
			c-5.8-0.9-9.8-6.4-9.8-12.3v-18v-7.1l-123-82.6v161.6c0,38.1,30.9,69,69,69h131.6c38.1,0,69-30.9,69-69v-89.7l0,22.1v-32.6
			C2894.9,486.9,2883.5,465.4,2864.4,452.6z M2871.3,520.5L2871.3,520.5l0,89.7c0,25-20.3,45.3-45.3,45.3h-131.6
			c-25,0-45.3-20.3-45.3-45.3V493.1l75.7,50.8v12.6c0,17.8,12.5,32.8,29.7,35.6c1.9,0.3,3.9,0.5,5.8,0.5c8.4,0,16.5-3,23-8.4
			c7.9-6.8,12.5-16.6,12.5-27v-30.7v-12.6l-10.5-7l-116-77.7c-12.6-8.4-20.1-22.5-20.1-37.7V291.1c0-25,20.3-45.3,45.3-45.3h131.6
			c25,0,45.3,20.3,45.3,45.3l0,117.2l-75.6-50.8v-12.6c0-17.9-12.5-32.8-29.7-35.6c-1.9-0.3-3.9-0.5-5.8-0.5c-8.4,0-16.5,3-23,8.4
			c-7.9,6.8-12.5,16.6-12.5,27v30.7v12.6l10.5,7l116,77.7c12.6,8.4,20.1,22.5,20.1,37.7L2871.3,520.5L2871.3,520.5z"/>
		<path d="M2278,452.6l-116-77.7v-30.7c0-7.2,6.4-12.9,13.8-11.6c5.8,1,9.8,6.4,9.8,12.3v18v7.1l123,82.6l0-161.6
			c0-38.1-30.9-69-69-69H2108c-38.1,0-69,30.9-69,69v100.3c0,23,11.5,44.5,30.6,57.3l116,77.7v30.7c0,7.2-6.4,12.8-13.8,11.6
			c-5.8-0.9-9.8-6.4-9.8-12.3v-18v-7.1l-123-82.6v161.6c0,38.1,30.9,69,69,69h131.6c38.1,0,69-30.9,69-69v-89.7l0,22.1v-32.6
			C2308.6,486.9,2297.1,465.4,2278,452.6z M2285,520.5L2285,520.5l0,89.7c0,25-20.3,45.3-45.3,45.3H2108c-25,0-45.3-20.3-45.3-45.3
			V493.1l75.7,50.8v12.6c0,17.8,12.5,32.8,29.7,35.6c1.9,0.3,3.9,0.5,5.8,0.5c8.4,0,16.5-3,23-8.4c7.9-6.8,12.5-16.6,12.5-27v-30.7
			v-12.6l-10.5-7l-116-77.7c-12.6-8.4-20.1-22.5-20.1-37.7V291.1c0-25,20.3-45.3,45.3-45.3h131.6c25,0,45.3,20.3,45.3,45.3l0,117.2
			l-75.6-50.8v-12.6c0-17.9-12.5-32.8-29.7-35.6c-1.9-0.3-3.9-0.5-5.8-0.5c-8.4,0-16.5,3-23,8.4c-7.9,6.8-12.5,16.6-12.5,27v30.7
			v12.6l10.5,7l116,77.7c12.6,8.4,20.1,22.5,20.1,37.7L2285,520.5L2285,520.5z"/>
		<path d="M1128.2,222.1v457.1h123V222.1H1128.2z M1227.6,655.6h-75.7V245.7h75.7V655.6z"/>
		<path d="M3098.8,222.1h-123h-59.9v110.5h59.9v346.6h123V332.6h59.9V222.1H3098.8z M3134.9,308.9h-59.9v346.7h-75.7V308.9h-59.9
			v-63.2h195.4L3134.9,308.9L3134.9,308.9z"/>
		<path d="M959.5,308.9H927v283.6h32.5c21.2,0,38.4-17.2,38.4-38.4V347.3C997.9,326.2,980.7,308.9,959.5,308.9z M974.3,554.1
			c0,8.2-6.6,14.8-14.8,14.8h-8.8V332.6h8.8c8.2,0,14.8,6.6,14.8,14.8V554.1z"/>
		<path d="M1835.7,222.1h-123v119.3l-23.6,23.6V222.1h-123v457.1h123V536.3l23.6,23.6v119.3h123V508.9l-58.2-58.2l58.2-58.2V222.1z
			 M1812.1,382.6l-68,68l68,68v136.9h-75.7V550.1l-70.9-70.9v176.3h-75.7V245.7h75.7v176.3l70.9-70.9V245.7h75.7V382.6z"/>
		<path d="M2477.5,222.1v200.2h-23.6V222.1h-123v164.7l0,66.3v23.1c0,38.1,30.9,69,69,69h77.6v23.6h-123v110.3h176.9
			c38.1,0,69-30.9,69-69V222.1H2477.5z M2576.8,610.2c0,25-20.3,45.3-45.3,45.3h-153.3v-63h99.3h23.7v-23.7v-23.6v-23.7h-23.7h-77.6
			c-25,0-45.3-20.3-45.3-45.3v-23.1l0-66.3V245.7h75.7v176.6V446h23.7h23.6h23.7v-23.7V245.7h75.7L2576.8,610.2L2576.8,610.2z"/>
		<path d="M3301.9,332.6h90.2V222.1h-213.1v457.1h213.1V568.9h-90.2v-63h90.2V395.4h-90.2V332.6z M3368.4,419.1v63.2h-90.2v110.3
			h90.2v63h-165.8V245.7h165.8v63.2h-90.2v110.2H3368.4z"/>
		<path d="M3771,222.1l-93.9,0c-17.4,0-33.2,6.5-45.4,17.1c-12.1-10.6-28-17.1-45.4-17.1l-162.9,0v457.1h123V344.5
			c0-6.6,5.3-11.9,11.9-11.9c6.6,0,11.9,5.3,11.9,11.9v334.8h123V344.4c0-6.6,5.3-11.9,11.9-11.9c6.6,0,11.9,5.3,11.9,11.9v334.8
			h123V291.1C3840,253,3809.1,222.1,3771,222.1z M3816.3,655.6h-75.7V345.7c0-18.1-12.9-34.2-30.9-36.5
			c-21.7-2.8-40.2,14.1-40.2,35.2v311.1H3594V345.7c0-18.1-12.9-34.2-30.9-36.5c-21.7-2.8-40.2,14.1-40.2,35.2v311.1h-75.7V245.7
			l139.2,0c11.7,0,22.4,4.5,30.4,11.8c6.8,6.2,11.8,22.3,13.9,29.9c0.3,1.1,1.8,1.1,2.1,0c2.1-7.6,7-23.6,13.8-29.9
			c8.1-7.3,18.7-11.8,30.4-11.8l93.9,0c25,0,45.3,20.3,45.3,45.3V655.6z"/>
	</g>
	<g>
		<path class="st2" d="M2825.9,655.6c25,0,45.3-20.3,45.3-45.3v-89.7h0v-10.5c0-15.1-7.5-29.2-20.1-37.7l-116-77.7l-10.5-7v-12.6
			v-30.7c0-10.4,4.6-20.3,12.5-27c6.5-5.5,14.6-8.4,23-8.4c1.9,0,3.8,0.1,5.8,0.5c17.2,2.8,29.7,17.8,29.7,35.6v12.6l75.6,50.8
			l0-117.2c0-25-20.3-45.3-45.3-45.3h-131.6c-25,0-45.3,20.3-45.3,45.3v100.3c0,15.1,7.5,29.2,20.1,37.7l116,77.7l10.5,7v12.6v30.7
			c0,10.4-4.6,20.3-12.5,27c-6.5,5.5-14.6,8.4-23,8.4c-1.9,0-3.8-0.2-5.8-0.5c-17.2-2.8-29.7-17.8-29.7-35.6v-12.6l-75.7-50.8v117.2
			c0,25,20.3,45.3,45.3,45.3L2825.9,655.6L2825.9,655.6z"/>
		<path class="st2" d="M2239.6,655.6c25,0,45.3-20.3,45.3-45.3v-89.7h0v-10.5c0-15.1-7.5-29.2-20.1-37.7l-116-77.7l-10.5-7v-12.6
			v-30.7c0-10.4,4.6-20.3,12.5-27c6.5-5.5,14.6-8.4,23-8.4c1.9,0,3.8,0.1,5.8,0.5c17.2,2.8,29.7,17.8,29.7,35.6v12.6l75.6,50.8
			l0-117.2c0-25-20.3-45.3-45.3-45.3H2108c-25,0-45.3,20.3-45.3,45.3v100.3c0,15.1,7.5,29.2,20.1,37.7l116,77.7l10.5,7v12.6v30.7
			c0,10.4-4.6,20.3-12.5,27c-6.5,5.5-14.6,8.4-23,8.4c-1.9,0-3.8-0.2-5.8-0.5c-17.2-2.8-29.7-17.8-29.7-35.6v-12.6l-75.7-50.8v117.2
			c0,25,20.3,45.3,45.3,45.3L2239.6,655.6L2239.6,655.6z"/>
		<path class="st2" d="M2576.8,610.2V245.7h-75.7v176.6V446h-23.7h-23.6h-23.7v-23.7V245.7h-75.7v141.1l0,66.3v23.1
			c0,25,20.3,45.3,45.3,45.3h77.6h23.7v23.7v23.6v23.7h-23.7h-99.3v63h153.3C2556.5,655.6,2576.8,635.2,2576.8,610.2z"/>
		<polygon class="st2" points="1736.4,655.6 1812.1,655.6 1812.1,518.7 1744.1,450.7 1812.1,382.6 1812.1,245.7 1736.4,245.7 
			1736.4,351.1 1665.5,422.1 1665.5,245.7 1589.8,245.7 1589.8,655.6 1665.5,655.6 1665.5,479.2 1736.4,550.2 		"/>
		<rect x="1151.9" y="245.7" class="st2" width="75.7" height="409.8"/>
		<path class="st2" d="M1476.8,655.6c25,0,45.3-20.3,45.3-45.3v-89.7h0v-10.5c0-15.1-7.5-29.2-20.1-37.7l-116-77.7l-10.5-7v-12.6
			v-30.7c0-10.4,4.6-20.3,12.5-27c6.5-5.5,14.6-8.4,23-8.4c1.9,0,3.8,0.1,5.8,0.5c17.2,2.8,29.7,17.8,29.7,35.6v12.6l75.7,50.8
			l0-117.2c0-25-20.3-45.3-45.3-45.3h-131.6c-25,0-45.3,20.3-45.3,45.3v100.3c0,15.1,7.5,29.2,20.1,37.7l116,77.7l10.5,7v12.6v30.7
			c0,10.4-4.6,20.3-12.5,27c-6.5,5.5-14.6,8.4-23,8.4c-1.9,0-3.8-0.2-5.8-0.5c-17.2-2.8-29.7-17.8-29.7-35.6v-12.6l-75.7-50.8v117.2
			c0,25,20.3,45.3,45.3,45.3L1476.8,655.6L1476.8,655.6z"/>
		<path class="st2" d="M1073.6,610.2V291.1c0-25-20.3-45.3-45.3-45.3H851.3v409.8h176.9C1053.2,655.6,1073.6,635.2,1073.6,610.2z
			 M997.9,554.1c0,21.2-17.2,38.4-38.4,38.4H927V308.9h32.5c21.2,0,38.4,17.2,38.4,38.4L997.9,554.1L997.9,554.1z"/>
		<path class="st2" d="M3740.7,345.7v309.9h75.7V291.1c0-25-20.3-45.3-45.3-45.3l-93.9,0c-11.7,0-22.4,4.5-30.4,11.8
			c-6.9,6.2-11.8,22.2-13.8,29.9c-0.3,1.1-1.8,1.1-2.1,0c-2.1-7.6-7.1-23.7-13.9-29.9c-8.1-7.3-18.7-11.8-30.4-11.8l-139.2,0v409.8
			h75.7V344.4c0-21.1,18.5-38,40.2-35.2c17.9,2.3,30.9,18.4,30.9,36.5v309.9h75.7V344.4c0-21.1,18.5-38,40.2-35.2
			C3727.7,311.5,3740.7,327.6,3740.7,345.7z"/>
		<polygon class="st2" points="2999.4,655.6 3075.1,655.6 3075.1,308.9 3134.9,308.9 3134.9,245.7 2939.6,245.7 2939.6,308.9 
			2999.4,308.9 		"/>
		<polygon class="st2" points="3368.4,592.5 3278.2,592.5 3278.2,482.2 3368.4,482.2 3368.4,419.1 3278.2,419.1 3278.2,308.9 
			3368.4,308.9 3368.4,245.7 3202.6,245.7 3202.6,655.6 3368.4,655.6 		"/>
	</g>
	<g>
		<path d="M1441.4,84.4c-0.4,46.1,36.6,83.9,82.8,84.4c30.9-0.1,59.1-17.6,73.1-45.1l0.3-0.7h-36.4c-9.9,9.8-23.1,15.3-37,15.4
			c-29.8-0.8-53.4-25.6-52.6-55.4c0.8-28.7,23.9-51.9,52.6-52.6c13.7,0,26.9,5.5,36.6,15.2l36.8,0.1l-0.3-0.7
			c-14-27.5-42.2-44.9-73.1-45C1478.1,0.5,1441.1,38.2,1441.4,84.4z M1599.3,84.8c0.9,45.7,38.7,82,84.4,81.1
			c45.7-0.9,82-38.7,81.1-84.4c-0.9-45.1-37.7-81.1-82.7-81.2C1635.9,0.9,1598.9,38.7,1599.3,84.8L1599.3,84.8z M1629.1,84.8
			c0.6-29.2,24.8-52.4,54-51.8c29.2,0.6,52.4,24.8,51.8,54c-0.6,28.8-24.1,51.8-52.9,51.8C1652.5,138.5,1628.9,114.3,1629.1,84.8
			L1629.1,84.8z M2361.2,1.1h-83.4v166.2h83.8v-32h-52.4V102h52.4V70h-52.4V33h52.4V1L2361.2,1.1L2361.2,1.1L2361.2,1.1L2361.2,1.1z
			 M1020.4,1.1h-24.7L881.2,167.4h35.5c0,0,17.7-25.8,17.9-26.1h56.1v26.1h30.2V1.1H1020.4L1020.4,1.1z M956.9,108.6l33.8-49.4v52.3
			H955C955.6,110.6,956.9,108.6,956.9,108.6z M1943.9,1.1h-35c0,0-48.8,112.8-49.6,114.6c-0.8-1.8-49.8-114.6-49.8-114.6h-35.3
			v166.3h31.3V84.6c0.5-0.1,3-0.7,3.5-0.8l36.3,83.6h27.9c0,0,36-82.8,36.2-83.5c0.5,0.1,3,0.7,3.5,0.8v82.7h31.3V1.1H1943.9
			L1943.9,1.1z M2173.9,1.1h-31v112.2c0.2,11.9-9.4,21.7-21.2,21.9s-21.7-9.3-21.9-21.2c0-0.2,0-0.4,0-0.6V1.1h-31.4v112.2
			c-0.5,29.3,22.8,53.3,52.1,53.8c29.3,0.5,53.3-22.8,53.8-52.1c0-0.6,0-1.1,0-1.7V1.2L2173.9,1.1L2173.9,1.1z M2371.6,1.2h-0.5V168
			h31.4V80.2c1.6,2.6,51.8,87.2,51.8,87.2h35.3c0,0-35.4-59.7-35.9-60.6c0.7-0.2,2.1-0.8,2.1-0.8c28-10.5,42.2-41.7,31.8-69.7
			c-7.7-20.6-27.1-34.5-49.1-35.2L2371.6,1.2L2371.6,1.2z M2438.5,33.1c11.9,0.4,21.2,10.2,21.1,22.1c0.2,11.9-9.2,21.7-21.1,22h-36
			v-44H2438.5L2438.5,33.1z M1954.4,1.2h-0.4v166.2h31.4v-59.2h22.4c29.6-0.6,53.1-25,52.5-54.5c-0.5-28.8-23.7-52-52.5-52.5
			L1954.4,1.2L1954.4,1.2z M2007.7,33.1c11.9,0.2,21.4,10.1,21.2,22c-0.2,11.6-9.6,20.9-21.2,21.1h-22.4V33.1H2007.7L2007.7,33.1z
			 M2268.5,1.2h-85.2v31.9h27.1v134.3h31.4V33.1h27.2V1.2H2268.5L2268.5,1.2z M1423,1.2h-32.5c0,0-33.4,65-34.1,66.6
			c-0.8-1.5-34.1-66.6-34.1-66.6h-33.2l51.6,102.2l-0.1,64.1h31.5l0.1-64.2c0.1,0,51.2-101.3,51.2-101.3l0.3-0.7L1423,1.2L1423,1.2z
			 M1280.5,1.2h-30.9v166.2h73.8v-32H1281V1.2H1280.5L1280.5,1.2z M1239.6,1.2h-29.4v166.2h29.8V1.2H1239.6L1239.6,1.2z M1200.2,1.2
			h-35c0,0-48.8,112.7-49.6,114.5L1065.8,1.2h-35.3v166.2h31.3V84.6c0.5-0.1,3-0.7,3.5-0.8c0.3,0.7,36.3,83.5,36.3,83.5h27.9
			l36.3-83.5c0.5,0.1,3,0.7,3.5,0.8v82.7h31.3V1.2H1200.2L1200.2,1.2z M918.2,1.2h-85.7v166.2h31.9v-65.5h54.2V70.1h-54.2V31.8h54.2
			V1.2L918.2,1.2L918.2,1.2z"/>
	</g>
</g>
</svg>
