<svg enable-background="new 0 0 3840 679.2" version="1.1" viewBox="0 0 3840 679.2" xml:space="preserve" xmlns="http://www.w3.org/2000/svg">
<path d="m1524.1992 0c-46.0999 0.4999995-83.0988 38.200437-82.7988 84.400391-0.4 46.099949 36.5989 83.900389 82.7988 84.400389 30.9-0.1 59.1016-17.60159 73.1016-45.10156l0.2988-0.69922h-36.4004c-9.9 9.79999-23.1 15.30039-37 15.40039-29.8-0.8-53.3996-25.60042-52.5996-55.40039 0.8-28.699971 23.8996-51.89961 52.5996-52.599609 13.7 0 26.9016 5.499228 36.6016 15.199218l36.7988 0.09961-0.2988-0.699219c-14-27.499972-42.2016-44.9000001-73.1016-45zm157.9004 0.30078125c-46.1999 0.5999994-83.1988 38.40004575-82.7988 84.49999975 0.9 45.699959 38.6985 81.999609 84.3984 81.099609 45.7-0.9 82.0016-38.70044 81.1016-84.40039-0.9-45.099955-37.7012-81.09921885-82.7012-81.19921875zm679.5 0.69921875-0.4004 0.0996094h-83.3984v166.2011706h83.7988v-32h-52.4004v-33.30078h52.4004v-32h-52.4004v-37h52.4004v-32zm-2233.99999 0.0996094c-36.899964 0-66.798829 29.9008186-66.798829 66.8007816v213.900389c-36.399963 23.39998-60.800781 64.09966-60.800781 110.59961 0 46.59995 24.400427 87.29963 60.900391 110.59961v46.69922c-33.999966 2.2-60.900391 30.1016-60.900391 64.60156 0 35.89997 29.100426 65 64.900391 65h240.199219c0-38.19996 31.00121-69.20117 69.20117-69.20117s69.19922 31.00121 69.19922 69.20117h240.19922c35.89996 0 64.90039-29.10003 64.90039-65 0-34.49996-26.90043-62.4-60.90039-64.5v-46.70117c36.49996-23.39998 60.90039-63.99966 60.90039-110.59961s-24.30043-87.29963-60.90039-110.59961v-213.999999c0.2-36.899963-29.70004-66.8007816-66.5-66.8007816h-493.59961zm868.09961 0-114.5 166.3007806h35.5s17.70039-25.79961 17.90039-26.09961h56.09961v26.09961h30.20118v-166.3007806h-0.5-24.70118zm778.49998 0v166.3007806h31.3008v-82.800781c0.5-0.1 3-0.698828 3.5-0.798828l36.3008 83.599609h27.8984s36.0012-82.8 36.2012-83.499999c0.5 0.1 3 0.698828 3.5 0.798828v82.701171h31.2988v-166.3007806h-0.2988-35s-48.7996 112.7996106-49.5996 114.5996106c-0.8-1.8-49.8008-114.5996106-49.8008-114.5996106h-35.3008zm294.2012 0v112.2011706c-0.5 29.29997 22.7996 53.29883 52.0996 53.79883s53.3008-22.79964 53.8008-52.09961v-1.69922-112.1015612l-0.4004-0.0996094h-31v112.2011706c0.2 11.89999-9.4012 21.69844-21.2012 21.89844s-21.6984-9.29923-21.8984-21.19922v-0.59961-112.3007806h-31.4004zm370.0996 0-66.9004 0.0996094h-0.5v166.8007812h31.4004v-87.800781c1.6 2.599997 51.8008 87.201171 51.8008 87.201171h35.2988s-35.4004-59.69961-35.9004-60.59961c0.7-0.2 2.1016-0.80078 2.1016-0.80078 28-10.499989 42.1988-41.699247 31.7988-69.699219-7.7-20.599979-27.0996-34.5011723-49.0996-35.2011716zm-1606 0.0996094v166.2011712h31.90039v-65.5h54.19922v-31.800781h-54.19922v-38.298828h54.19922v-30.6015622h-0.40039-85.69922zm198 0v166.2011712h31.3008v-82.800781c0.5-0.1 3-0.698828 3.5-0.798828 0.3 0.7 36.2988 83.499999 36.2988 83.499999h27.9004l36.3008-83.499999c0.5 0.1 3 0.698828 3.5 0.798828v82.701171h31.2988v-166.1015612h-0.4004-35s-48.7996 112.7000012-49.5996 114.5000012l-49.7988-114.5000012h-35.3008zm179.6992 0v166.2011712h29.8008v-166.2011712h-0.4004-29.4004zm39.4004 0v166.2011712h73.8008v-32h-42.4004v-134.2011712h-0.5-30.9004zm39.5 0 51.5996 102.2011712-0.0996 64.09961h31.5l0.0996-64.19922c0.1 0 51.2012-101.30078 51.2012-101.30078l0.2988-0.6992188-0.6992-0.1015624h-32.5s-33.3996 65.0015642-34.0996 66.6015622c-0.8-1.499998-34.0996-66.6015623-34.0996-66.6015622h-33.2012zm664.9004 0v166.2011712h31.4004v-59.20117h22.4004c29.6-0.6 53.1-25.000031 52.5-54.500001-0.5-28.799971-23.7-52.0000008-52.5-52.5000002h-53.4004-0.4004zm229.3008 0v31.9003902h27.0996v134.300781h31.4004v-134.300781h27.1992v-31.9003902h-0.5-85.1992zm-2055.70119 23.6015622h493.59961c23.69998 0 43 19.299633 43 43.09961v213.900389 13l10.90039 7c31.29997 19.99998 50 53.89926 50 90.69922s-18.70003 70.59924-50 90.69922l-10.90039 7v13 46.70117 22.09961l22.20117 1.40039c21.69998 1.4 38.69922 19.30041 38.69922 40.90039 0 22.79998-18.49924 41.29883-41.19922 41.29883h-219.70117c-10.49999-39.79996-46.79887-69.19922-89.79883-69.19922s-79.40079 29.39926-89.80078 69.19922h-219.699219c-22.799978 0-41.201172-18.49885-41.201172-41.29883 0-21.59998 17.001584-39.50039 38.601562-40.90039l22.199219-1.40039v-22.30078-46.69922-13l-10.900391-7c-31.299968-19.99998-49.90039-53.89926-49.90039-90.69922s18.700422-70.60119 49.90039-90.70117l10.900391-7v-13-213.699219c0-23.699977 19.29963-43.09961 43.09961-43.09961zm1555.49999 8.199219c29.2 0.599999 52.4008 24.800029 51.8008 54-0.6 28.79997-24.1004 51.80078-52.9004 51.80078-29.5-0.3-53.1004-24.50003-52.9004-53.999999 0.6-29.199971 24.8-52.40078 54-51.800781zm302.2012 0.099609h22.3984c11.9 0.2 21.4012 10.100012 21.2012 22-0.2 11.599989-9.6012 20.89961-21.2012 21.09961h-22.3984v-43.09961zm453.1992 0c11.9 0.4 21.1996 10.199622 21.0996 22.09961 0.2 11.899988-9.1996 21.7-21.0996 22h-36v-44h36v-0.09961zm-1447.80078 26.09961v52.300781h-35.69922c0.6-0.9 1.90039-2.90039 1.90039-2.90039l33.79883-49.400391zm-761.29883 70.201171c-72.59993 0-131.499999 58.90007-131.499999 131.5s58.900069 131.5 131.499999 131.5 131.5-58.90007 131.5-131.5-58.90007-131.5-131.5-131.5zm290 0c-72.59993 0-131.5 58.90007-131.5 131.5s58.90007 131.5 131.5 131.5 131.59961-58.90007 131.59961-131.5-58.89968-131.5-131.59961-131.5zm-290 23.69922c28.79997 0 55.89924 11.19963 76.19922 31.59961 13.58574 13.58574 23.06407 30.10826 27.89844 48.16016a31.799999 31.799999 0 0 0-14.99805-3.75977 31.799999 31.799999 0 0 0-31.80078 31.80078 31.799999 31.799999 0 0 0 31.80078 31.79883 31.799999 31.799999 0 0 0 15.0625-3.79492c-4.81482 18.13534-14.3188 34.71772-27.96289 48.29492-20.39998 20.39998-47.49925 31.60156-76.19922 31.60156s-55.90119-11.20158-76.20117-31.60156c-20.39998-20.39998-31.59961-47.49925-31.59961-76.19922s11.19963-55.9008 31.59961-76.30078c20.29998-20.39998 47.4012-31.59961 76.20117-31.59961zm290 0c28.79997 0 55.89924 11.19963 76.19922 31.59961 20.39998 20.39998 31.59961 47.40081 31.59961 76.30078s-11.19963 55.89924-31.59961 76.19922c-20.39998 20.39998-47.49925 31.60156-76.19922 31.60156s-55.90119-11.20158-76.20117-31.60156c-13.63779-13.63779-23.13618-30.27812-27.95313-48.38086a31.799999 31.799999 0 0 0 15.05469 3.88086 31.799999 31.799999 0 0 0 31.79883-31.79883 31.799999 31.799999 0 0 0-31.79883-31.80078 31.799999 31.799999 0 0 0-15 3.85156c4.83413-18.05315 14.312-34.66552 27.89844-48.25195 20.29998-20.39998 47.4012-31.59961 76.20117-31.59961zm825.90041 68.90039c-38.1 0-69 30.90004-69 69v100.30078c0 22.99998 11.4996 44.49884 30.5996 57.29883l116 77.70117v30.69922c0 7.19999-6.4008 12.79961-13.8008 11.59961-5.8-0.9-9.7988-6.39883-9.7988-12.29883v-18-7.10156l-123-82.59961v161.59961c0 38.09996 30.9 69 69 69h131.5996c38.1 0 69-30.90004 69-69v-67.59961-22.09961-10.5c0-23.09998-11.4996-44.6004-30.5996-57.40039l-116-77.69922v-30.70117c0-7.19999 6.3988-12.89961 13.7988-11.59961 5.8 1 9.8008 6.40079 9.8008 12.30078v18 7.09961l123 82.59961v-161.59961c0-38.09996-30.9-69-69-69h-131.5996zm762.6992 0c-38.1 0-69 30.90004-69 69v100.30078c0 22.99998 11.4996 44.49884 30.5996 57.29883l116 77.70117v30.69922c0 7.19999-6.3988 12.79961-13.7988 11.59961-5.8-0.9-9.8008-6.39883-9.8008-12.29883v-18-7.10156l-123-82.59961v161.59961c0 38.09996 30.9 69 69 69h131.5996c38.1 0 69-30.90004 69-69v-67.59961-22.09961-10.5c0-23.09998-11.4996-44.6004-30.5996-57.40039l-116-77.69922v-30.70117c0-7.19999 6.4008-12.89961 13.8008-11.59961 5.8 1 9.7988 6.40079 9.7988 12.30078v18 7.09961l123 82.59961v-161.59961c0-38.09996-30.9-69-69-69h-131.5996zm586.4004 0c-38.1 0-69 30.90004-69 69v100.30078c0 22.99998 11.4996 44.49884 30.5996 57.29883l116 77.70117v30.69922c0 7.19999-6.4008 12.79961-13.8008 11.59961-5.8-0.9-9.7988-6.39883-9.7988-12.29883v-18-7.10156l-123-82.59961v161.59961c0 38.09996 30.9 69 69 69h131.5996c38.1 0 69-30.90004 69-69v-67.59961-22.09961-10.5c-0.1-23.09998-11.4996-44.6004-30.5996-57.40039l-116-77.69922v-30.70117c0-7.19999 6.3988-12.89961 13.7988-11.59961 5.8 1 9.8008 6.40079 9.8008 12.30078v18 7.09961l123 82.59961v-161.59961c0-38.09996-30.9-69-69-69h-131.5996zm-1866.70118 0.09961v457.09961h200.60158c38.0999 0 69-30.90004 69-69v-319.09961c-0.1-38.09996-31.0016-69-69.1016-69h-200.49998zm300.49998 0v457.09961h123v-457.09961h-123zm437.9004 0v457.09961h123v-142.89844l23.5996 23.59961v119.29883h123v-170.29883l-58.1992-58.20117 58.1992-58.19922v-170.40039h-123v119.30078l-23.5996 23.59961v-142.90039h-123zm764.8008 0v164.70117 66.29883 23.09961c0 38.09996 30.9 69 69 69h77.5996v23.60156h-123v110.29883h176.9004c38.1 0 69-30.90004 69-69v-388h-122.9004v200.20117h-23.5996v-200.20117h-123zm585 0v110.5h59.9004v346.59961h123v-346.59961h59.8984v-110.5h-59.8984-123-59.9004zm263.0996 0v457.09961h213.0996v-110.29883h-90.1992v-63h90.1992v-110.5h-90.1992v-62.80078h90.1992v-110.5h-213.0996zm244.4004 0v457.09961h123v-334.69922c0-6.59999 5.3004-11.90039 11.9004-11.90039s11.8984 5.3004 11.8984 11.90039v334.80078h123v-334.90039c0-6.59999 5.3004-11.90039 11.9004-11.90039s11.9004 5.3004 11.9004 11.90039v334.79883h123v-388.09961c0-38.09996-30.9-69-69-69h-93.9004c-17.4 0-33.2004 6.49962-45.4004 17.09961-12.1-10.59999-27.9984-17.09961-45.3984-17.09961h-162.9004zm-2572.09962 23.59961h176.89842c25 0 45.3008 20.3008 45.3008 45.30078v319.19922h0.0996c0 24.99997-20.2988 45.30078-45.2988 45.30078h-177.00002v-409.80078zm300.59962 0h75.6992v409.90039h-75.6992v-409.90039zm437.9004 0h75.6992v176.30078l70.9004-70.90039v-105.40039h75.6992v136.90039l-68 68 68 68v136.90039h-75.6992v-105.40039l-70.9004-70.90039v176.30078h-75.6992v-409.80078zm764.7988 0h75.7012v176.60156 23.69922h23.6992 23.5996 23.7012v-23.69922-176.60156h75.6992l-0.1992 364.5c0 24.99997-20.3008 45.30078-45.3008 45.30078h-153.3008v-63h99.3008 23.6992v-23.69922-23.60156-23.69922h-23.6992-77.5996c-25 0-45.3008-20.30081-45.3008-45.30078v-23.09961-66.29883-141.10156zm584.8008 0h195.4004l0.0996 63.20117h-59.9004v346.69922h-75.6992v-346.69922h-59.9004v-63.20117zm263.1992 0h165.8008v63.20117h-90.2012v110.19922h90.2012v63.20117h-90.2012v110.29883h90.2012v63h-165.8008v-409.90039zm244.5996 0h139.2012c11.7 0 22.4004 4.50079 30.4004 11.80078 6.8 6.19999 11.7984 22.3004 13.8984 29.90039 0.3 1.1 1.8016 1.1 2.1016 0 2.1-7.59999 6.9988-23.6004 13.7988-29.90039 8.1-7.29999 18.7004-11.80078 30.4004-11.80078h93.9004c25 0 45.2988 20.3008 45.2988 45.30078v364.59961h-75.5996v-309.90039c0-18.09998-12.9004-34.2-30.9004-36.5-21.7-2.8-40.1992 14.10119-40.1992 35.20117v311.09961h-75.5v-309.80078c0-18.09998-12.9004-34.2-30.9004-36.5-21.7-2.8-40.1992 14.10119-40.1992 35.20117v311.09961h-75.7012v-409.80078zm-2101.7988 0.10156h131.5996c25 0 45.3008 20.29885 45.3008 45.29883v117.20117l-75.7012-50.80078v-12.59961c0-17.89998-12.4992-32.79961-29.6992-35.59961-1.9-0.3-3.8008-0.5-5.8008-0.5-8.4 0-16.5 2.99844-23 8.39844-7.9 6.79999-12.5 16.60001-12.5 27v30.70117 12.59961l10.5 7 116 77.69922c12.6 8.39999 20.0996 22.50119 20.0996 37.70117v10.59961 89.69922c0 24.99997-20.2988 45.30078-45.2988 45.30078h-131.5996c-25 0-45.3008-20.30081-45.3008-45.30078v-117.09961l75.6992 50.80078v12.59961c0 17.79998 12.5012 32.79961 29.7012 35.59961 1.9 0.3 3.7988 0.5 5.7988 0.5 8.4 0 16.5-3.0004 23-8.40039 7.9-6.79999 12.5-16.60001 12.5-27v-30.69922-12.59961l-10.5-7-116-77.70117c-12.6-8.39999-20.0996-22.49924-20.0996-37.69922v-100.40039c0-24.99998 20.3008-45.29883 45.3008-45.29883zm762.6992 0h131.5996c25 0 45.3008 20.29885 45.3008 45.29883v117.20117l-75.5996-50.80078v-12.59961c0-17.89998-12.5012-32.79961-29.7012-35.59961-1.9-0.3-3.8988-0.5-5.7988-0.5-8.4 0-16.5 2.99844-23 8.39844-7.9 6.79999-12.5 16.60001-12.5 27v30.70117 12.59961l10.5 7 116 77.69922c12.6 8.39999 20.0996 22.50119 20.0996 37.70117v10.59961 89.69922c0 24.99997-20.3008 45.30078-45.3008 45.30078h-131.6992c-25 0-45.3008-20.30081-45.3008-45.30078v-117.09961l75.7012 50.80078v12.59961c0 17.79998 12.4992 32.79961 29.6992 35.59961 1.9 0.3 3.9008 0.5 5.8008 0.5 8.4 0 16.5-3.0004 23-8.40039 7.9-6.79999 12.5-16.60001 12.5-27v-30.69922-12.59961l-10.5-7-116-77.70117c-12.6-8.39999-20.0996-22.49924-20.0996-37.69922v-100.40039c0-24.99998 20.2988-45.29883 45.2988-45.29883zm586.4004 0h131.5996c25 0 45.3008 20.29885 45.3008 45.29883v117.20117l-75.5996-50.80078v-12.59961c0-17.89998-12.5012-32.79961-29.7012-35.59961-1.9-0.3-3.8988-0.5-5.7988-0.5-8.4 0-16.5 2.99844-23 8.39844-7.9 6.79999-12.5 16.60001-12.5 27v30.70117 12.59961l10.5 7 116 77.69922c12.6 8.39999 20.0996 22.50119 20.0996 37.70117l-0.0996 10.59961v89.69922c0 24.99997-20.3008 45.30078-45.3008 45.30078h-131.5996c-25 0-45.3008-20.30081-45.3008-45.30078v-117.09961l75.7012 50.80078v12.59961c0 17.79998 12.4992 32.79961 29.6992 35.59961 1.9 0.3 3.9008 0.5 5.8008 0.5 8.4 0 16.5-3.0004 23-8.40039 7.9-6.79999 12.5-16.60001 12.5-27v-30.69922-12.59961l-10.5-7-116-77.70117c-12.6-8.39999-20.1016-22.49924-20.1016-37.69922v-100.40039c0-24.99998 20.3008-45.29883 45.3008-45.29883zm-1767.5 63.09961v283.59961h32.5c21.19998 0 38.40039-17.20041 38.40039-38.40039v-206.79883c0-21.09998-17.20041-38.40039-38.40039-38.40039h-32.5zm23.69922 23.69922h8.80078c8.19999 0 14.80078 6.60079 14.80078 14.80078v206.69922c0 8.19999-6.60079 14.80078-14.80078 14.80078h-8.80078v-236.30078z"/>
</svg>
