<svg width="603.12109" height="59.859772" version="1.1" viewBox="94 357.6 603.12109 59.859771" xmlns="http://www.w3.org/2000/svg">
 <path d="m128.45312 367.70156c-10.5546 0-19.82812 8.82117-19.82812 19.82813 0 11.30851 9.34969 19.75195 19.9043 19.75195 1.88475 0 3.01447-0.225 5.35156-0.82812v-10.25391c-2.33709 1.20624-3.54298 1.50781-5.42774 1.50781-5.88042 0-10.32812-4.90004-10.32812-10.32812 0-5.65426 4.37153-10.47852 10.25195-10.47852 1.96015 0 3.69455 0.52657 5.50391 1.58203v-10.02734c-2.03553-0.52773-3.3922-0.75391-5.42774-0.75391zm298.39454 0.07617v4.44727h105.12304v-4.44727h-105.12304zm177.0332 1.49219c-18.31067 0-20.58594 1.33758-20.58594 12.08203 0 0.16037 4.9e-4 0.96205 0.05469 1.60352h10.61719v-1.23047c0.0542-2.77966 0.32565-3.63362 1.30078-4.00781 1.19183-0.42763 4.17114-0.58985 10.88867-0.58985 5.74239 0 7.31393 0.05431 8.28906 0.375 1.24599 0.42763 1.625 1.17647 1.625 3.1543 0 2.94002-0.54059 3.2064-6.8789 3.6875-4.1172 0.32072-7.15184 0.5884-9.15625 0.69531-3.41294 0.26728-5.25555 0.42701-5.63477 0.48047-5.95909 0.64146-8.50401 1.97897-9.75 5.13281-0.70426 1.76402-0.92187 4.3825-0.92187 10.63672 0 1.71056-4.1e-4 2.24503 0.1621 4.0625h43.06836v-8.17773h-32.99218v-0.375c0.0542-1.76401 0.43472-2.45764 1.78906-2.99219 0.70427-0.32073 2.81577-0.48117 17.98437-1.44336 6.12162-0.32073 9.4817-1.49831 11.05274-3.79687 1.13765-1.71055 1.57031-3.8481 1.57031-8.01758 0-5.8266-0.86647-8.23177-3.4668-9.72852-2.38363-1.38983-4.28041-1.55078-19.01562-1.55078zm50.17969 0c-7.36762 0-13.27303 0.42813-15.49414 1.12305-3.73798 1.12255-5.25586 3.63518-5.25586 8.82031 0 5.61278 1.62541 7.53598 6.60937 7.91016-2.16694 0.37418-2.97892 0.58993-3.8457 1.01758-2.27529 1.22945-3.19727 3.47432-3.19727 7.69726 0 4.11604 0.86761 6.52054 2.76367 7.75 2.92538 1.92439 5.30847 2.19141 18.47266 2.19141 13.11001 0 15.49455-0.26702 18.41992-2.19141 1.89608-1.22946 2.76172-3.58051 2.76172-7.75 0-3.95567-0.81095-6.14872-2.70703-7.43164-0.92095-0.588-1.73365-0.85556-4.33398-1.2832 4.98397-0.37418 6.60937-2.29738 6.60937-7.91016 0-4.75748-1.30129-7.26981-4.44336-8.55273-2.2753-0.90874-7.85412-1.39063-16.35937-1.39063zm-98.0586 0.42774-13.21875 11.17187 6.06641 7.00391 10.67383-8.875h2.87109v26.35351h10.99609v-35.65429h-17.38867zm-221.88476 2.15039v9.42383c-1.35702-1.80936-2.56254-2.78907-7.46289-2.78907-7.84058 0-9.34961 2.1106-9.34961 8.44336 0 6.48356 2.11217 8.36914 9.72656 8.36914 4.82497 0 6.25782-1.20743 7.38867-3.31836v2.94141h5.87891v-23.07031h-6.18164zm92.73047 4.75v4.37304h105.12304v-4.37304h-105.12304zm226.1289 0.6914c3.95468 0 8.23396 0.15923 9.42578 0.37305 1.40851 0.26727 2.00391 1.06946 2.00391 2.72656 0 3.04695-1.9e-4 3.04688-10.72656 3.04688-9.42621 0-9.91211-0.1603-9.91211-3.04688 0-2.77965 0.9746-3.09961 9.20898-3.09961zm-428.62695 0.9668c-4.44802 0-5.6543 1.50783-6.4082 4.14648l0.07617-3.69335h-5.50391v16.20898h5.88086v-8.36914c0-2.48787 1.20627-3.31641 4.52344-3.31641 3.09099 0 3.91992 1.13089 3.91992 4.14649v7.46289h6.03125v-8.59375c0-2.33709 1.80901-3.0918 4.67383-3.0918 2.71405 0 3.91992 0.75471 3.91992 3.0918v8.59375h5.88086v-9.57422c0-4.82497-2.94106-7.01172-8.36914-7.01172-4.67419 0-6.40664 1.73556-7.00977 3.54492-1.20624-2.11092-2.94105-3.54492-7.61523-3.54492zm39.6543 0c-4.29723 0-5.42657 1.50783-6.25586 4.14648v-3.69335h-5.50391v16.20898h5.88086v-8.36914c0-2.48787 1.50706-3.31641 4.44727-3.31641 3.09099 0 3.91992 0.98011 3.91992 4.14649v7.46289h6.03125v-8.59375c0-2.33709 1.734-3.0918 4.52344-3.0918 2.71403 0 4.07226 0.8301 4.07226 3.0918v8.59375h5.87891v-9.57422c0-4.82497-2.93911-7.01172-8.36719-7.01172-4.67419 0-6.25782 1.58478-7.01172 3.54492-1.20625-2.11092-2.94105-3.54492-7.61523-3.54492zm117.91015 0.07617c-3.54333 0-4.82384 0.75471-6.10547 3.46875v-3.09179h-5.65429v16.20898h5.88086v-8.44336c0-2.18631 1.35587-3.31836 3.84375-3.31836 2.48786 0 3.09062 0.75549 3.16601 2.79102h5.50391c0-5.50348-0.75434-7.61524-6.63477-7.61524zm-184.55468 0.22656c-10.17766 0-11.45899 1.58287-11.45899 8.44336 0 7.01129 1.73366 8.44336 11.45899 8.44336 10.32843 0.0754 11.30859-1.65903 11.30859-8.89648 0-6.63432-1.80944-7.99024-11.30859-7.99024zm104.79296 0c-10.17766 0-11.45898 1.73326-11.45898 8.59375 0 6.86051 1.73367 8.36915 11.45898 8.36915 10.32844 0 11.45899-1.73521 11.45899-8.97266 0-6.63432-1.95984-7.99024-11.45899-7.99024zm53.15039 0c-10.10227 0-11.30859 1.58287-11.30859 8.44336 0 7.01129 1.73405 8.44336 11.30859 8.44336 10.32844 0.0754 11.3086-1.65903 11.3086-8.89648 0-6.63432-1.80945-7.99024-11.3086-7.99024zm45.91211 0.07422c-8.82064 0-10.78125 1.58443-10.78125 8.59571 0 6.48355 2.56451 8.1414 9.72657 8.21679 7.99135 0 11.75976-0.37699 11.75976-5.65429h-5.80469c-0.22618 1.28162-0.67814 1.88476-3.16601 1.88476-5.65426 0-6.48438-0.52698-6.48438-3.3164h15.45508c-0.22617-7.84058-0.22586-9.72657-10.70508-9.72657zm-229.03515 0.07618c-9.34836 0-11.45899 1.50864-11.45899 8.36914s1.95984 8.44336 10.70508 8.44336c9.19759 0 11.08203-1.20669 11.08203-7.01172h-5.88086c0 1.58318-0.60159 2.33593-5.125 2.33593-3.92027 0-4.82617-0.97814-4.82617-4.14453 0-3.09098 0.82973-3.09179 5.50391-3.09179 3.46794 0 4.07031 0.37774 4.44726 1.96093h5.88086c-0.52773-5.50347-2.1106-6.86132-10.32812-6.86132zm-37.77149 0.30078v7.76562h9.34961l7.68946-7.76562h-17.03907zm266.58008 3.61914c4.29723 0 4.90156 0.22697 5.20313 2.33789h-9.87696c0.22617-1.73397 0.75355-2.33789 4.67383-2.33789zm-71.16797 0.45312c3.31717 0 4.44727 0.4512 4.44727 3.08985 0 3.92028-0.22621 4.29687-4.90039 4.29687-4.67419 0-5.87891-0.14963-5.87891-3.4668 0-3.76949 1.43169-3.91992 6.33203-3.91992zm-132.83789 0.15039c4.82497 0 5.6543 0.15004 5.6543 3.69336 0 3.31717-0.60355 3.91992-5.12695 3.91992-4.82497 0-5.42774-0.52736-5.42774-3.91992 0-3.31715 0.75394-3.69336 4.90039-3.69336zm104.86914 0c4.82497 0 5.65235 0.15004 5.65235 3.69336 0 3.31717-0.6016 3.91992-5.125 3.91992-4.97575 0-5.58008-0.52736-5.58008-3.91992 0-3.31715 0.7555-3.69336 5.05273-3.69336zm53.07422 0c4.82497 0 5.6543 0.15004 5.6543 3.69336 0 3.31717-0.60355 3.91992-5.12696 3.91992-4.97574 0-5.57812-0.52736-5.57812-3.91992 0-3.31715 0.75355-3.69336 5.05078-3.69336zm71.92188 2.11133v4.37109h105.12304v-4.37109h-105.12304zm-292.43946 3.08984v7.76563h17.03907l-7.53907-7.76563h-9.5zm519.70508 2.64649c4.11719 0 8.34313 0.15923 9.10156 0.37305 1.24599 0.37418 1.625 1.01651 1.625 2.83398 0 1.71056-0.32514 2.51253-1.24609 2.88672-0.92095 0.37418-4.17126 0.58789-9.04687 0.58789-11.15976 0-11.2129-2.5e-4 -11.2129-3.31445 0-1.76402 0.37891-2.61873 1.40821-2.93946 0.86678-0.26727 3.89956-0.42773 9.37109-0.42773zm-227.26562 3.00781v4.37305h105.12304v-4.37305h-105.12304zm0 8.7461v4.37304h105.12304v-4.37304h-105.12304z" stroke-width=".6035"/>
</svg>
