<?xml version="1.0" encoding="utf-8"?>
<!-- Generator: Adobe Illustrator 26.0.3, SVG Export Plug-In . SVG Version: 6.00 Build 0)  -->
<svg version="1.1" id="Layer_1" xmlns="http://www.w3.org/2000/svg" xmlns:xlink="http://www.w3.org/1999/xlink" x="0px" y="0px"
	 viewBox="0 0 3839 488.9" style="enable-background:new 0 0 3839 488.9;" xml:space="preserve">
<style type="text/css">
	.st0{fill:#FFFFFF;}
</style>
<g>
	<path d="M65.4,488.9c-12,0-22.8-2.9-32.1-8.5c-28.6-17.5-39.3-59-30-117c8.8-54.9,34.4-119.2,72.1-181
		c32.1-52.6,69.5-97.9,108.1-131.1C222.5,17.7,259,0,289,0c12,0,22.8,2.9,32.1,8.5c28.6,17.5,39.3,59,30,117
		c-8.8,54.9-34.4,119.2-72.1,181c-32.1,52.6-69.5,97.9-108.1,131.1C131.9,471.2,95.4,488.9,65.4,488.9z"/>
	<path d="M396.4,488.9c-12,0-22.8-2.9-32.1-8.5c-28.6-17.5-39.3-59-30-117c8.8-54.9,34.4-119.2,72.1-181
		c32.1-52.6,69.5-97.9,108.1-131.1C553.5,17.7,590,0,620,0c12,0,22.8,2.9,32.1,8.5c28.6,17.5,39.3,59,30,117
		c-8.8,54.9-34.4,119.2-72.1,181c-32.1,52.6-69.5,97.9-108.1,131.1C462.9,471.2,426.4,488.9,396.4,488.9z"/>
	<path d="M727.4,488.9c-12,0-22.8-2.9-32.1-8.5c-28.6-17.5-39.3-59-30-117c8.8-54.9,34.4-119.2,72.1-181
		c32.1-52.6,69.5-97.9,108.1-131.1C884.5,17.7,921,0,951,0c12,0,22.8,2.9,32.1,8.5c14.6,8.9,24.5,23.9,29.6,44.6
		c14.3,59.1-13.8,158.5-71.7,253.4c-32.1,52.6-69.5,97.9-108.1,131.1C793.9,471.2,757.4,488.9,727.4,488.9z"/>
	<path d="M2429.4,51.9h-169.8c-23.2,0-42.9,16.9-46.3,39.8l-45.8,304.7c-4.2,28.2,17.7,53.7,46.3,53.7h26.9h128.9l12-80.4h-128.7
		l11.4-76.1h108.2l11.8-80.4h-108l12.2-81.2h129L2429.4,51.9z"/>
	<path d="M3215.1,51.9h-169.8c-23.2,0-42.9,16.9-46.3,39.8l-45.8,304.7c-4.2,28.2,17.7,53.7,46.3,53.7h26.9h128.9l12-80.4h-128.7
		l11.4-76.1h108.2l11.8-80.4h-108l12.2-81.2h129L3215.1,51.9z"/>
	<path d="M1622.7,50.5c-22.5,0-45,11.9-55.7,37.5l-149.8,362.1h86.9l31-74.9h91.7l6.7,74.9h80.6l-30.6-344.2
		C1680.5,70.3,1651.7,50.5,1622.7,50.5z M1568.4,294.9l42.3-102l9.1,102H1568.4z"/>
	<path d="M2044.3,83.4l-93.8,196.9l-31.7-181.8c-5.4-31.1-30.4-46.6-55.4-46.6c-25.5,0-50.9,16-55.7,47.9L1755,450.1h81.1
		l28.9-191.6l27.7,158.5c3.8,21.7,21.9,33.6,40.2,33.6c14.4,0,28.9-7.3,36.4-23.1l73.8-154.9l-26.7,177.5h81.2l50.4-335
		c5.8-38.4-24.7-63.2-55.3-63.2C2073.8,51.9,2054.7,61.5,2044.3,83.4z"/>
	<path d="M1430.1,133.3c0,0-53.7-102.8-154.6-102.8c-125.2,0-208,125.5-212.4,219c-7.6,160.2,118.8,209.1,173.9,209.1
		c110.7,0,171.6-101.1,195.3-180.2c7.5-25-11.3-50.1-37.4-50.1h-33.5h-92l-33.3,80.3h93.7c-20.6,36.9-57.4,64.1-100.7,64.1
		c-21.9,0-87.8-19.9-83.2-116.8c3.1-65,54.5-144.7,129.6-144.7c49.9,0,83,59.5,83,59.5L1430.1,133.3z"/>
	<path d="M2918.8,133.3c0,0-53.7-102.8-154.6-102.8c-125.2,0-208,125.5-212.4,219c-7.6,160.2,118.8,209.1,173.9,209.1
		c110.7,0,171.6-101.1,195.3-180.2c7.5-25-11.3-50.1-37.4-50.1h-33.5h-92l-33.3,80.3h93.7c-20.6,36.9-57.4,64.1-100.7,64.1
		c-21.9,0-87.8-19.9-83.2-116.8c3.1-65,54.5-144.7,129.6-144.7c49.9,0,83,59.5,83,59.5L2918.8,133.3z"/>
	<path d="M3803.9,338.2c0,0,0,0-1.1-4.9v-0.2c-0.7-3.4-2-9.1-4-18.7c-5.1-23.8-23.1-29.2-23.1-29.2c66.5-37.2,63.3-106,63.3-110.6
		c0-68.1-63.6-122.6-116.2-122.6h-29.4h-41.6c-23,0-42.5,16.6-46.2,39.3l-58,358.9h81.3l23-142h36.5c15.3,0,28.5,10.7,31.7,25.6
		l25.2,116.5h82.7L3803.9,338.2L3803.9,338.2z M3700.5,227.7H3665l15.3-95.5h33.5c15.9,0,31.6,15.9,35.1,34.9
		C3754.1,195.3,3732.3,227.7,3700.5,227.7z"/>
	<path d="M3409.6,50.5c-22.4,0-45,11.9-55.7,37.5l-149.8,362.1h86.9l31-74.9h91.7l6.7,74.9h80.6l-30.6-344.2
		C3467.3,70.3,3438.5,50.5,3409.6,50.5z M3355.4,294.9l42.3-102l9.1,102H3355.4z"/>
</g>
</svg>
