<?xml version="1.0" encoding="utf-8"?>
<!-- Generator: Adobe Illustrator 25.4.1, SVG Export Plug-In . SVG Version: 6.00 Build 0)  -->
<svg version="1.1" id="Layer_1" xmlns="http://www.w3.org/2000/svg" xmlns:xlink="http://www.w3.org/1999/xlink" x="0px" y="0px"
	 viewBox="0 0 3839 488.9" style="enable-background:new 0 0 3839 488.9;" xml:space="preserve">
<style type="text/css">
	.st0{fill:#FFFFFF;}
	.st1{fill:#912620;}
	.st2{fill:#008471;}
	.st3{fill:#005090;}
	.st4{fill:#B22D2A;}
	.st5{fill:#B32D2A;}
	.st6{fill:#B42D2A;}
	.st7{fill:#B52D2A;}
	.st8{fill:#B62D2A;}
	.st9{fill:#B72D29;}
	.st10{fill:#B82D29;}
	.st11{fill:#B92D29;}
	.st12{fill:#BA2D29;}
	.st13{fill:#BB2D29;}
	.st14{fill:#BC2D29;}
	.st15{fill:#BD2D29;}
	.st16{fill:#BE2D29;}
	.st17{fill:#BF2D29;}
	.st18{fill:#C02D29;}
	.st19{fill:#C12D28;}
	.st20{fill:#C22D28;}
	.st21{fill:#C32D28;}
	.st22{fill:#C42D28;}
	.st23{fill:#C52D28;}
	.st24{fill:#C62D28;}
	.st25{fill:#C72D28;}
	.st26{fill:#C82D28;}
	.st27{fill:#C92D28;}
	.st28{fill:#CA2D28;}
	.st29{fill:#CA2E27;}
	.st30{fill:#CB2E27;}
	.st31{fill:#CC2E27;}
	.st32{fill:#CD2E27;}
	.st33{fill:#CE2E27;}
	.st34{fill:#CF2E27;}
	.st35{fill:#D02E27;}
	.st36{fill:#D12E27;}
	.st37{fill:#D22E27;}
	.st38{fill:#D32E27;}
	.st39{fill:#D42E26;}
	.st40{fill:#D52E26;}
	.st41{fill:#D62E26;}
	.st42{fill:#D72E26;}
	.st43{fill:#D82E26;}
	.st44{fill:#D92E26;}
	.st45{fill:#DA2E26;}
	.st46{fill:#DB2E26;}
	.st47{fill:#DC2E26;}
	.st48{fill:#DD2E26;}
	.st49{fill:#DE2E25;}
	.st50{fill:#DF2E25;}
	.st51{fill:#E02E25;}
	.st52{fill:#E12E25;}
	.st53{fill:#E22E25;}
	.st54{fill:#009588;}
	.st55{fill:#009587;}
	.st56{fill:#019486;}
	.st57{fill:#019485;}
	.st58{fill:#019384;}
	.st59{fill:#029383;}
	.st60{fill:#029382;}
	.st61{fill:#029281;}
	.st62{fill:#039280;}
	.st63{fill:#03917F;}
	.st64{fill:#03917E;}
	.st65{fill:#03917D;}
	.st66{fill:#04907C;}
	.st67{fill:#04907B;}
	.st68{fill:#048F7A;}
	.st69{fill:#058F79;}
	.st70{fill:#058F78;}
	.st71{fill:#058E77;}
	.st72{fill:#068E76;}
	.st73{fill:#068D75;}
	.st74{fill:#068D74;}
	.st75{fill:#078D73;}
	.st76{fill:#078C72;}
	.st77{fill:#078C71;}
	.st78{fill:#088B70;}
	.st79{fill:#088B6F;}
	.st80{fill:#088B6E;}
	.st81{fill:#088A6D;}
	.st82{fill:#098A6C;}
	.st83{fill:#09896B;}
	.st84{fill:#09896A;}
	.st85{fill:#0A8969;}
	.st86{fill:#0A8868;}
	.st87{fill:#0A8867;}
	.st88{fill:#0B8766;}
	.st89{fill:#0B8765;}
	.st90{fill:#0B8764;}
	.st91{fill:#0C8663;}
	.st92{fill:#0C8662;}
	.st93{fill:#0C8561;}
	.st94{fill:#0D8560;}
	.st95{fill:#0D845F;}
	.st96{fill:#0D845E;}
	.st97{fill:#0E835D;}
	.st98{fill:#0E835C;}
	.st99{fill:#0E835B;}
	.st100{fill:#0F825A;}
	.st101{fill:#0F8259;}
	.st102{fill:#0F8158;}
	.st103{fill:#108157;}
	.st104{fill:#108156;}
	.st105{fill:#108055;}
	.st106{fill:#118054;}
	.st107{fill:#117F53;}
	.st108{fill:#117F52;}
	.st109{fill:#117F51;}
	.st110{fill:#127E50;}
	.st111{fill:#127E4F;}
	.st112{fill:#127D4E;}
	.st113{fill:#137D4D;}
	.st114{fill:#137D4C;}
	.st115{fill:#137C4B;}
	.st116{fill:#147C4A;}
	.st117{fill:#147B49;}
	.st118{fill:#147B48;}
	.st119{fill:#157B47;}
	.st120{fill:#157A46;}
	.st121{fill:#157A45;}
	.st122{fill:#167944;}
	.st123{fill:#167943;}
	.st124{fill:#167942;}
	.st125{fill:#167841;}
	.st126{fill:#177840;}
	.st127{fill:#17773F;}
	.st128{fill:#17773E;}
	.st129{fill:#18773D;}
	.st130{fill:#18763C;}
	.st131{fill:#18763B;}
	.st132{fill:#19753A;}
	.st133{fill:#197539;}
	.st134{fill:#005EAA;}
	.st135{fill:#005EAB;}
	.st136{fill:#015FAC;}
	.st137{fill:#015FAD;}
	.st138{fill:#0160AE;}
	.st139{fill:#0260AF;}
	.st140{fill:#0261B0;}
	.st141{fill:#0261B1;}
	.st142{fill:#0362B2;}
	.st143{fill:#0362B3;}
	.st144{fill:#0362B4;}
	.st145{fill:#0463B5;}
	.st146{fill:#0463B6;}
	.st147{fill:#0464B7;}
	.st148{fill:#0564B8;}
	.st149{fill:#0565B9;}
	.st150{fill:#0565BA;}
	.st151{fill:#0666BB;}
	.st152{fill:#0666BC;}
	.st153{fill:#0666BD;}
	.st154{fill:#0767BE;}
	.st155{fill:#0767BF;}
	.st156{fill:#0768BF;}
	.st157{fill:#0768C0;}
	.st158{fill:#0869C1;}
	.st159{fill:#0869C2;}
	.st160{fill:#0869C3;}
	.st161{fill:#096AC4;}
	.st162{fill:#096AC5;}
	.st163{fill:#096BC6;}
	.st164{fill:#0A6BC7;}
	.st165{fill:#0A6CC8;}
	.st166{fill:#0A6CC9;}
	.st167{fill:#0B6DCA;}
	.st168{fill:#0B6DCB;}
	.st169{fill:#0B6DCC;}
	.st170{fill:#0C6ECD;}
	.st171{fill:#0C6ECE;}
	.st172{fill:#0C6FCF;}
	.st173{fill:#0D6FD0;}
	.st174{fill:#0D70D1;}
	.st175{fill:#0D70D2;}
	.st176{fill:#0E71D3;}
	.st177{fill:#0E71D4;}
	.st178{fill:#0058B7;}
	.st179{fill:#0058B6;}
	.st180{fill:#0057B5;}
	.st181{fill:#0057B4;}
	.st182{fill:#0057B3;}
	.st183{fill:#0057B2;}
	.st184{fill:#0056B1;}
	.st185{fill:#0056B0;}
	.st186{fill:#0056AF;}
	.st187{fill:#0056AE;}
	.st188{fill:#0055AD;}
	.st189{fill:#0055AC;}
	.st190{fill:#0055AB;}
	.st191{fill:#0055AA;}
	.st192{fill:#0054A9;}
	.st193{fill:#0054A8;}
	.st194{fill:#0054A7;}
	.st195{fill:#0054A6;}
	.st196{fill:#0053A5;}
	.st197{fill:#0053A4;}
	.st198{fill:#0053A3;}
	.st199{fill:#0053A2;}
	.st200{fill:#0052A1;}
	.st201{fill:#0052A0;}
	.st202{fill:#00529F;}
	.st203{fill:#00529E;}
	.st204{fill:#00519D;}
	.st205{fill:#00519C;}
	.st206{fill:#00519B;}
	.st207{fill:#00519A;}
	.st208{fill:#005099;}
	.st209{fill:#005098;}
	.st210{fill:#005097;}
	.st211{fill:#005096;}
	.st212{fill:#004F95;}
	.st213{fill:#004F94;}
	.st214{fill:#004F93;}
	.st215{fill:#004F92;}
	.st216{fill:#004E91;}
	.st217{fill:#004E90;}
	.st218{fill:#004E8F;}
	.st219{fill:#004E8E;}
	.st220{fill:#004D8D;}
	.st221{fill:#004D8C;}
	.st222{fill:#004D8B;}
	.st223{fill:#004D8A;}
	.st224{fill:#004C89;}
	.st225{fill:#004C88;}
	.st226{fill:#008472;}
	.st227{fill:#008572;}
	.st228{fill:#008671;}
	.st229{fill:#008771;}
	.st230{fill:#008871;}
	.st231{fill:#008970;}
	.st232{fill:#008A70;}
	.st233{fill:#008B6F;}
	.st234{fill:#008C6F;}
	.st235{fill:#008D6F;}
	.st236{fill:#008E6E;}
	.st237{fill:#008F6E;}
	.st238{fill:#00906D;}
	.st239{fill:#00916D;}
	.st240{fill:#00926D;}
	.st241{fill:#00936C;}
	.st242{fill:#00946C;}
	.st243{fill:#00956B;}
	.st244{fill:#00966B;}
	.st245{fill:#00976B;}
	.st246{fill:#00986A;}
	.st247{fill:#00996A;}
	.st248{fill:#D60700;}
	.st249{fill:#034693;}
	.st250{fill:url(#SVGID_1_);}
	.st251{fill:url(#SVGID_00000158729675709595569340000015160253144581936569_);}
	.st252{fill:url(#SVGID_00000170981685108553344870000002209099135133582739_);}
	.st253{fill:url(#SVGID_00000127749416544684342590000017648297070647764103_);}
	.st254{fill:url(#SVGID_00000155140501582669165220000006597983015125435810_);}
	.st255{fill:url(#SVGID_00000100358978707814242860000003684311944016422315_);}
	.st256{fill:url(#SVGID_00000169542442650114761530000003742209773818278576_);}
	.st257{fill:url(#SVGID_00000041287692636007152270000009166991662697660313_);}
	.st258{fill:url(#SVGID_00000073699086396916140620000013135884586482138045_);}
	.st259{fill:url(#SVGID_00000124151339395322062530000002589330786770056876_);}
	.st260{fill:url(#SVGID_00000037651996450785347210000011071345745741643960_);}
	.st261{fill:url(#SVGID_00000023974446923311906910000017035191045756107693_);}
	.st262{fill:url(#SVGID_00000060020575456910453830000008966685870303706520_);}
	.st263{fill:url(#SVGID_00000092421880933823029590000000843423417533467822_);}
	.st264{fill:url(#SVGID_00000117660875555164435750000009263874038832432304_);}
	.st265{fill:url(#SVGID_00000163054966897589329710000000895366005172889768_);}
	.st266{fill:url(#SVGID_00000065753446691580915870000008752600240646636166_);}
	.st267{fill:url(#SVGID_00000081612062168388596150000009739975636454979462_);}
	.st268{fill:url(#SVGID_00000020375417041393206510000001359945013341642662_);}
	.st269{fill:url(#SVGID_00000021106897568149089320000006183765278320664456_);}
	.st270{fill:url(#SVGID_00000164476611902979538590000012184220415649046400_);}
	.st271{fill:url(#SVGID_00000163071226852188531230000015416717745554399669_);}
	.st272{fill:url(#SVGID_00000174560107749323193840000011823056746219375510_);}
	.st273{fill:url(#SVGID_00000028305428893400448270000000949392568543336083_);}
	.st274{fill:url(#SVGID_00000158024821194476298080000008881155114828699041_);}
	.st275{fill:url(#SVGID_00000068645914122107881500000013275337290392863915_);}
	.st276{fill:url(#SVGID_00000126310407018022023810000010923243925325215419_);}
	.st277{fill:url(#SVGID_00000098923201282159682920000005956885706221449663_);}
	.st278{fill:url(#SVGID_00000137110219415412641810000006720024725569765277_);}
	.st279{fill:url(#SVGID_00000129905920507087112240000000287440503293666952_);}
	.st280{fill:url(#SVGID_00000097492075341415925000000010616135937674817450_);}
	.st281{fill:url(#SVGID_00000150796528258328758820000006855677141520852135_);}
	.st282{fill:url(#SVGID_00000080929310084258138150000018013244770163251593_);}
	.st283{fill:url(#SVGID_00000054244777994216830530000011766422756672557184_);}
	.st284{fill:url(#SVGID_00000176037413839531057340000004487833482733998776_);}
	.st285{fill:url(#SVGID_00000002372202251257099190000010824982132848189318_);}
	.st286{fill:url(#SVGID_00000158746845950438453880000010464648813852283070_);}
	.st287{fill:url(#SVGID_00000015343240442146899170000009912418600716643259_);}
	.st288{fill:url(#SVGID_00000023979740600748561670000005066007689547751051_);}
	.st289{fill:url(#SVGID_00000085932218974781120290000010614825843259055796_);}
	.st290{fill:url(#SVGID_00000024701638493384047040000006705550064086044291_);}
	.st291{fill:url(#SVGID_00000162329420360269381550000015305397897882131872_);}
	.st292{fill:url(#SVGID_00000138572899413690763850000005901423739360424077_);}
	.st293{fill:url(#SVGID_00000136402903577871080220000003779233556935522206_);}
	.st294{fill:url(#SVGID_00000093896703854625213350000014432882689588347551_);}
	.st295{fill:url(#SVGID_00000158024218414952878990000009568301261857075376_);}
	.st296{fill:url(#SVGID_00000068643828267923642050000008603531665456922526_);}
	.st297{fill:url(#SVGID_00000017488562808178658190000012826710463331917474_);}
	.st298{fill:url(#SVGID_00000176740831907523115860000006178101907524468898_);}
	.st299{fill:url(#SVGID_00000075147563462004725550000011377867907730504584_);}
	.st300{fill:url(#SVGID_00000051359852815671169750000013631038386930549929_);}
	.st301{fill:url(#SVGID_00000136399321698321239760000004488125759665998990_);}
	.st302{fill:url(#SVGID_00000059298979271209605390000000590988463016575921_);}
	.st303{fill:url(#SVGID_00000041256580770138152870000004521158533205419170_);}
	.st304{fill:url(#SVGID_00000008847004821121895670000017602771290623622794_);}
	.st305{fill:url(#SVGID_00000036944202855228922200000009362325733324560565_);}
	.st306{fill:url(#SVGID_00000106110127083155769590000009042232046208342945_);}
	.st307{fill:url(#SVGID_00000099646787242935258530000018105372402419940251_);}
	.st308{fill:url(#SVGID_00000174570977735995518510000015815131874111767185_);}
	.st309{fill:url(#SVGID_00000047773456914131679450000003606744876967972526_);}
	.st310{fill:url(#SVGID_00000119810535328195105960000015860137643643913605_);}
	.st311{fill:url(#SVGID_00000002386521322392021510000011796930092855143336_);}
	.st312{fill:url(#SVGID_00000064335084625150890040000000633975219428197035_);}
	.st313{fill:url(#SVGID_00000017504173600507672480000018112782889261112722_);}
	.st314{fill:url(#SVGID_00000030457085685940333990000012457452692489569451_);}
	.st315{fill:url(#SVGID_00000159445730322681947910000004483020535539481225_);}
	.st316{fill:url(#SVGID_00000068664516777521628190000013230771082186352063_);}
	.st317{fill:url(#SVGID_00000081647665556241486840000013476527970314852748_);}
	.st318{fill:url(#SVGID_00000181801959698406883200000013949205717320080522_);}
	.st319{fill:url(#SVGID_00000102502028851759712670000012434035636093547157_);}
	.st320{fill:url(#SVGID_00000178205871846908515160000014796566058178416826_);}
	.st321{fill:url(#SVGID_00000113331366731985735660000016130553480518285188_);}
	.st322{fill:url(#SVGID_00000168106935571139482580000008946106286814711953_);}
	.st323{fill:url(#SVGID_00000021819183638681050290000007152606429770431119_);}
	.st324{fill:url(#SVGID_00000055670607631730905570000014557224763253520277_);}
	.st325{fill:url(#SVGID_00000025429334982047438860000000695526343389221504_);}
	.st326{fill:url(#SVGID_00000041295556428861891590000000666243161077479605_);}
	.st327{fill:url(#SVGID_00000145755918972285468140000008947768240442637998_);}
	.st328{fill:url(#SVGID_00000000942191398394878600000007013298334830019998_);}
	.st329{fill:url(#SVGID_00000142150578014225520740000009335102650395700129_);}
	.st330{fill:url(#SVGID_00000117656580595996596260000013189996799880723878_);}
	.st331{fill:url(#SVGID_00000101806013139265766960000001939820990157791653_);}
	.st332{fill:url(#SVGID_00000142152944014560250350000013587569649479536311_);}
	.st333{fill:url(#SVGID_00000161608595462605509740000004610245770661919412_);}
	.st334{fill:url(#SVGID_00000062872980069326777130000015250756825406050993_);}
	.st335{fill:url(#SVGID_00000121998573137165914340000004898981605519391629_);}
	.st336{fill:url(#SVGID_00000147186238327867097070000000838439064054676112_);}
	.st337{fill:url(#SVGID_00000095312543557853473550000010836067589636171917_);}
	.st338{fill:url(#SVGID_00000173127593566450442860000014499997823687670458_);}
	.st339{fill:url(#SVGID_00000146466258093574802060000016552003084330021284_);}
	.st340{fill:url(#SVGID_00000021799868273350797530000005871202614314955651_);}
	.st341{fill:url(#SVGID_00000016062896603437312480000011602048006703718812_);}
	.st342{fill:url(#SVGID_00000024692206263258845750000011084391966826668459_);}
	.st343{fill:url(#SVGID_00000169550133039714601660000017435214048649939596_);}
	.st344{fill:url(#SVGID_00000140729450184129250410000005511102451339945663_);}
	.st345{fill:url(#SVGID_00000013884084407105087210000014725393769975800246_);}
	.st346{fill:#034693;stroke:#FFFFFF;stroke-width:25.205;stroke-miterlimit:10;}
	.st347{fill:url(#SVGID_00000063597295600107199260000005352544365136695480_);}
	.st348{fill:url(#SVGID_00000158751480660050009690000010125813335888970154_);}
	.st349{fill:url(#SVGID_00000159457463302284852370000003381254782448374666_);}
	.st350{fill:url(#SVGID_00000178186110607983262820000009096634367462714032_);}
	.st351{fill:url(#SVGID_00000156556040296515020420000014034347278178007182_);}
	.st352{fill:url(#SVGID_00000000180361197552535600000015875010996805681087_);}
	.st353{fill:url(#SVGID_00000005233186510542324180000003761282495969890960_);}
	.st354{fill:url(#SVGID_00000065034065616197002250000017519830076830824626_);}
</style>
<g>
	<path class="st248" d="M65.4,488.9c-12,0-22.8-2.9-32.1-8.5c-28.6-17.5-39.3-59-30-117c8.8-54.9,34.4-119.2,72.1-181
		c32.1-52.6,69.5-97.9,108.1-131.1C222.5,17.7,259,0,289,0c12,0,22.8,2.9,32.1,8.5c28.6,17.5,39.3,59,30,117
		c-8.8,54.9-34.4,119.2-72.1,181c-32.1,52.6-69.5,97.9-108.1,131.1C131.9,471.2,95.4,488.9,65.4,488.9z"/>
	<path class="st239" d="M396.4,488.9c-12,0-22.8-2.9-32.1-8.5c-28.6-17.5-39.3-59-30-117c8.8-54.9,34.4-119.2,72.1-181
		c32.1-52.6,69.5-97.9,108.1-131.1C553.5,17.7,590,0,620,0c12,0,22.8,2.9,32.1,8.5c28.6,17.5,39.3,59,30,117
		c-8.8,54.9-34.4,119.2-72.1,181c-32.1,52.6-69.5,97.9-108.1,131.1C462.9,471.2,426.4,488.9,396.4,488.9z"/>
	<path class="st249" d="M727.4,488.9c-12,0-22.8-2.9-32.1-8.5c-28.6-17.5-39.3-59-30-117c8.8-54.9,34.4-119.2,72.1-181
		c32.1-52.6,69.5-97.9,108.1-131.1C884.5,17.7,921,0,951,0c12,0,22.8,2.9,32.1,8.5c14.6,8.9,24.5,23.9,29.6,44.6
		c14.3,59.1-13.8,158.5-71.7,253.4c-32.1,52.6-69.5,97.9-108.1,131.1C793.9,471.2,757.4,488.9,727.4,488.9z"/>
	<path d="M2429.4,51.9h-169.8c-23.2,0-42.9,16.9-46.3,39.8l-45.8,304.7c-4.2,28.2,17.7,53.7,46.3,53.7h26.9h128.9l12-80.4h-128.7
		l11.4-76.1h108.2l11.8-80.4h-108l12.2-81.2h129L2429.4,51.9z"/>
	<path d="M3215.1,51.9h-169.8c-23.2,0-42.9,16.9-46.3,39.8l-45.8,304.7c-4.2,28.2,17.7,53.7,46.3,53.7h26.9h128.9l12-80.4h-128.7
		l11.4-76.1h108.2l11.8-80.4h-108l12.2-81.2h129L3215.1,51.9z"/>
	<path d="M1622.7,50.5c-22.5,0-45,11.9-55.7,37.5l-149.8,362.1h86.9l31-74.9h91.7l6.7,74.9h80.6l-30.6-344.2
		C1680.5,70.3,1651.7,50.5,1622.7,50.5z M1568.4,294.9l42.3-102l9.1,102H1568.4z"/>
	<path d="M2044.3,83.4l-93.8,196.9l-31.7-181.8c-5.4-31.1-30.4-46.6-55.4-46.6c-25.5,0-50.9,16-55.7,47.9l-52.7,350.3h81.1
		l28.9-191.6l27.7,158.5c3.8,21.7,21.9,33.6,40.2,33.6c14.4,0,28.9-7.3,36.4-23.1l73.8-154.9l-26.7,177.5h81.2l50.4-335
		c5.8-38.4-24.7-63.2-55.3-63.2C2073.8,51.9,2054.7,61.5,2044.3,83.4z"/>
	<path d="M1430.1,133.3c0,0-53.7-102.8-154.6-102.8c-125.2,0-208,125.5-212.4,219c-7.6,160.2,118.8,209.1,173.9,209.1
		c110.7,0,171.6-101.1,195.3-180.2c7.5-25-11.3-50.1-37.4-50.1h-33.5h-92l-33.3,80.3h93.7c-20.6,36.9-57.4,64.1-100.7,64.1
		c-21.9,0-87.8-19.9-83.2-116.8c3.1-65,54.5-144.7,129.6-144.7c49.9,0,83,59.5,83,59.5L1430.1,133.3z"/>
	<path d="M2918.8,133.3c0,0-53.7-102.8-154.6-102.8c-125.2,0-208,125.5-212.4,219c-7.6,160.2,118.8,209.1,173.9,209.1
		c110.7,0,171.6-101.1,195.3-180.2c7.5-25-11.3-50.1-37.4-50.1h-33.5h-92l-33.3,80.3h93.7c-20.6,36.9-57.4,64.1-100.7,64.1
		c-21.9,0-87.8-19.9-83.2-116.8c3.1-65,54.5-144.7,129.6-144.7c49.9,0,83,59.5,83,59.5L2918.8,133.3z"/>
	<path d="M3803.9,338.2c0,0,0,0-1.1-4.9l0-0.2c-0.7-3.4-2-9.1-4-18.7c-5.1-23.8-23.1-29.2-23.1-29.2c66.5-37.2,63.3-106,63.3-110.6
		c0-68.1-63.6-122.6-116.2-122.6h-29.4h-41.6c-23,0-42.5,16.6-46.2,39.3l-58,358.9h81.3l23-142h36.5c15.3,0,28.5,10.7,31.7,25.6
		l25.2,116.5h82.7L3803.9,338.2L3803.9,338.2z M3700.5,227.7H3665l15.3-95.5h33.5c15.9,0,31.6,15.9,35.1,34.9
		C3754.1,195.3,3732.3,227.7,3700.5,227.7z"/>
	<path d="M3409.6,50.5c-22.4,0-45,11.9-55.7,37.5l-149.8,362.1h86.9l31-74.9h91.7l6.7,74.9h80.6l-30.6-344.2
		C3467.3,70.3,3438.5,50.5,3409.6,50.5z M3355.4,294.9l42.3-102l9.1,102H3355.4z"/>
</g>
</svg>
