<svg enable-background="new 0 0 3839 488.9" version="1.1" viewBox="0 0 3839 488.9" xml:space="preserve" xmlns="http://www.w3.org/2000/svg">
<path fill="#D60700" d="m65.4 488.9c-12 0-22.8-2.9-32.1-8.5-28.6-17.5-39.3-59-30-117 8.8-54.9 34.4-119.2 72.1-181 32.1-52.6 69.5-97.9 108.1-131.1 39-33.6 75.5-51.3 105.5-51.3 12 0 22.8 2.9 32.1 8.5 28.6 17.5 39.3 59 30 117-8.8 54.9-34.4 119.2-72.1 181-32.1 52.6-69.5 97.9-108.1 131.1-39 33.6-75.5 51.3-105.5 51.3z"/><path fill="#00916D" d="m396.4 488.9c-12 0-22.8-2.9-32.1-8.5-28.6-17.5-39.3-59-30-117 8.8-54.9 34.4-119.2 72.1-181 32.1-52.6 69.5-97.9 108.1-131.1 39-33.6 75.5-51.3 105.5-51.3 12 0 22.8 2.9 32.1 8.5 28.6 17.5 39.3 59 30 117-8.8 54.9-34.4 119.2-72.1 181-32.1 52.6-69.5 97.9-108.1 131.1-39 33.6-75.5 51.3-105.5 51.3z"/><path fill="#034693" d="m727.4 488.9c-12 0-22.8-2.9-32.1-8.5-28.6-17.5-39.3-59-30-117 8.8-54.9 34.4-119.2 72.1-181 32.1-52.6 69.5-97.9 108.1-131.1 39-33.6 75.5-51.3 105.5-51.3 12 0 22.8 2.9 32.1 8.5 14.6 8.9 24.5 23.9 29.6 44.6 14.3 59.1-13.8 158.5-71.7 253.4-32.1 52.6-69.5 97.9-108.1 131.1-39 33.6-75.5 51.3-105.5 51.3z"/><path d="m1275.5 30.5c-125.1999 0-208.0004 125.50009-212.4004 219-7.6 160.19984 118.8005 209.09961 173.9004 209.09961 110.6999 0 171.6008-101.0993 195.3008-180.19922 7.5-24.99997-11.3004-50.09961-37.4004-50.09961h-33.5-92l-33.3008 80.29883h93.7012c-20.6 36.89996-57.4012 64.09961-100.7012 64.09961-21.9 0-87.7992-19.89893-83.1992-116.79883 3.1-64.99993 54.4997-144.70117 129.5996-144.70117 49.9 0 83 59.5 83 59.5l71.5996-37.39844s-53.6997-102.80078-154.5996-102.80078zm1488.6992 0c-125.1999 0-207.9984 125.50009-212.3984 219-7.6 160.19984 118.7985 209.09961 173.8984 209.09961 110.6999 0 171.6008-101.0993 195.3008-180.19922 7.5-24.99997-11.3004-50.09961-37.4004-50.09961h-33.5-92l-33.2988 80.29883h93.6992c-20.6 36.89996-57.3993 64.09961-100.6992 64.09961-21.9 0-87.8012-19.89893-83.2012-116.79883 3.1-64.99993 54.4997-144.70117 129.5996-144.70117 49.9 0 83 59.5 83 59.5l71.6016-37.39844s-53.7017-102.80078-154.6016-102.80078zm-1141.5 20c-22.5 0-44.9992 11.900026-55.6992 37.5l-149.8008 362.09961h86.9004l31-74.90039h91.7012l6.6992 74.90039h80.5996l-30.5996-344.19922c-3-35.599964-31.8008-55.40039-60.8008-55.40039zm1786.9004 0c-22.4 0-44.9992 11.900026-55.6992 37.5l-149.8008 362.09961h86.9004l31-74.90039h91.6992l6.7012 74.90039h80.5996l-30.5996-344.19922c-3.1-35.599964-31.9008-55.40039-60.8008-55.40039zm-1546.1992 1.400391c-25.5 0-50.9012 16.000422-55.7012 47.90039l-52.6992 350.298829h81.0996l28.9004-191.59961 27.6992 158.5c3.8 21.69998 21.9012 33.59961 40.2012 33.59961 14.4 0 28.9004-7.29963 36.4004-23.09961l73.7988-154.90039-26.6992 177.5h81.1992l50.4004-335c5.8-38.399962-24.7008-63.199219-55.3008-63.199219-18.9 0-37.9984 9.600022-48.3984 31.5l-93.8008 196.900389-31.6992-181.80078c-5.4-31.099969-30.4004-46.599609-55.4004-46.599609zm396.1992 0c-23.2 0-42.8988 16.898851-46.2988 39.798828l-45.8008 304.701171c-4.2 28.19997 17.7008 53.69922 46.3008 53.69922h26.8984 128.9004l12-80.40039h-128.6992l11.4004-76.09961h108.1992l11.8008-80.40039h-108l12.1992-81.19922h129l11.9004-80.099609h-169.8008zm785.7012 0c-23.2 0-42.9008 16.898851-46.3008 39.798828l-45.8008 304.701171c-4.2 28.19997 17.7008 53.69922 46.3008 53.69922h26.9004 128.9004l12-80.40039h-128.7012l11.4004-76.09961h108.1992l11.8008-80.40039h-108l12.1992-81.19922h129l11.9004-80.099609h-169.7988zm606.5 0.099609c-23 0-42.5012 16.600804-46.2012 39.300781l-58 358.898439h81.3008l23-142h36.5c15.3 0 28.4992 10.70158 31.6992 25.60156l25.2012 116.5h82.6992l-24.0996-112.10156-1.0996-4.89844v-0.20117c-0.7-3.4-2-9.09923-4-18.69922-5.1-23.79998-23.1016-29.20117-23.1016-29.20117 66.5-37.19996 63.3008-105.99962 63.3008-110.59961 0-68.09993-63.5993-122.59961-116.1992-122.59961h-29.4004-41.5996zm28.5 80.19922h33.5c15.9 0 31.5996 15.90041 35.0996 34.90039 5.2 28.19997-16.6004 60.59961-48.4004 60.59961h-35.5l15.3008-95.5zm-2069.6016 60.70117 9.1016 102h-51.4004l42.2988-102zm1787 0 9.1016 102h-51.4004l42.2988-102z"/>
</svg>
