<?xml version="1.0" encoding="utf-8"?>
<!-- Generator: Adobe Illustrator 26.0.3, SVG Export Plug-In . SVG Version: 6.00 Build 0)  -->
<svg version="1.1" id="Layer_1" xmlns="http://www.w3.org/2000/svg" xmlns:xlink="http://www.w3.org/1999/xlink" x="0px" y="0px"
	 viewBox="0 0 3839 1089.9" style="enable-background:new 0 0 3839 1089.9;" xml:space="preserve">
<style type="text/css">
	.st0{fill-rule:evenodd;clip-rule:evenodd;fill:#034EA2;}
	.st1{fill:#FFFFFF;}
	.st2{fill:#231F20;}
	.st3{fill:#034EA2;}
	.st4{fill:#FFCB04;}
	.st5{fill:url(#SVGID_1_);}
	.st6{fill-rule:evenodd;clip-rule:evenodd;fill:url(#rect4789_00000150069389634636625000000010230485762286317194_);}
	.st7{fill:url(#SVGID_00000108993377216622571320000014266870939109531552_);}
	.st8{fill:url(#SVGID_00000052068619462167290920000012196708880178840225_);}
	.st9{fill:url(#SVGID_00000135650116020030156540000005347655392619904188_);}
	.st10{fill:url(#SVGID_00000101804856024315698490000003024317065929080509_);}
	.st11{fill:url(#SVGID_00000150101708094973986020000007601442657597059714_);}
	.st12{fill:url(#SVGID_00000016046484547786575830000016870521938155254656_);}
	.st13{fill:url(#SVGID_00000087386521654880749250000014678156305879761287_);}
	.st14{fill:url(#SVGID_00000145737830215637479610000003935736867496275617_);}
	.st15{fill:url(#SVGID_00000075849777406269816620000007128983658216593798_);}
	.st16{fill:url(#SVGID_00000182510912294472733780000010716303714724037820_);}
	.st17{fill:url(#SVGID_00000150822757809003545510000008250323311255552674_);}
	.st18{fill:url(#SVGID_00000054238648209168318750000016963331070993969575_);}
	.st19{fill:url(#SVGID_00000116935936995621460830000004658260206185603987_);}
	.st20{display:none;}
	.st21{display:inline;fill:#FF0642;}
	.st22{display:inline;fill:#FFFFFF;stroke:#000000;stroke-width:0.5156;stroke-miterlimit:10;}
	.st23{display:inline;fill:#FFCB04;}
	.st24{fill-rule:evenodd;clip-rule:evenodd;fill:url(#rect4789_00000101070518887429329220000003631136942440383112_);}
	.st25{fill:url(#SVGID_00000046309186369482223900000005929638052220758413_);}
	.st26{fill:url(#SVGID_00000091706808905377629110000008170747148397189290_);}
	.st27{fill:url(#SVGID_00000146482705220162184430000000057465525885317788_);}
	.st28{fill:url(#SVGID_00000094592619815569068800000005099967349975385235_);}
	.st29{fill:url(#SVGID_00000147911821363555130500000011032806535971104683_);}
	.st30{fill:url(#SVGID_00000076598979261492122650000015733439736179669639_);}
	.st31{fill:url(#SVGID_00000149373254899852531270000015874384765861284029_);}
	.st32{fill:url(#SVGID_00000011727064035508590690000011022352673887444908_);}
	.st33{fill:url(#SVGID_00000164474285469005058110000002526394530651651220_);}
	.st34{fill:url(#SVGID_00000068643593009700265330000003513046809164098456_);}
	.st35{fill:url(#SVGID_00000127752814256571935050000002701830075827927223_);}
	.st36{fill:url(#SVGID_00000170257510227976475180000013740705818779192976_);}
	.st37{fill:url(#SVGID_00000083787534020669783160000010815803819659687855_);}
	.st38{fill:url(#SVGID_00000093163347257847079070000005103918585156936889_);}
	.st39{fill-rule:evenodd;clip-rule:evenodd;fill:url(#rect4789_00000129895356961690196630000004356462018548783234_);}
	.st40{fill:url(#SVGID_00000127737592130576374050000014875274365645619100_);}
	.st41{fill:url(#SVGID_00000023266587161778904820000006233078180503174287_);}
	.st42{fill:url(#SVGID_00000006685574337064928620000016070849894157971617_);}
	.st43{fill:url(#SVGID_00000057143146534803733870000000778469675983093422_);}
	.st44{fill:url(#SVGID_00000089531628918911806360000002183647370168455605_);}
	.st45{fill:url(#SVGID_00000182509875315603724720000014079056586796906407_);}
	.st46{fill:url(#SVGID_00000049194249864928033110000001657141268670989960_);}
	.st47{fill:url(#SVGID_00000081617118639221693860000012995076489856660617_);}
	.st48{fill:url(#SVGID_00000170984984676596656310000009648280331868009897_);}
	.st49{fill:url(#SVGID_00000011749668278617176940000013920141003448061108_);}
	.st50{fill:url(#SVGID_00000107562372256182276030000016225428599249111226_);}
	.st51{fill:url(#SVGID_00000160906623190383150940000010890119803325071025_);}
	.st52{fill:url(#SVGID_00000002354399417868051000000012700629989141320117_);}
	.st53{fill-rule:evenodd;clip-rule:evenodd;fill:url(#rect4789_00000064342816122264908000000015990209044389687214_);}
	.st54{fill:url(#SVGID_00000013178197839271078980000012063543473595574662_);}
	.st55{fill:url(#SVGID_00000121267294896793403960000011290403132280431532_);}
	.st56{fill:url(#SVGID_00000113339184628466495640000010308669537847876779_);}
	.st57{fill:url(#SVGID_00000124140588784203016290000013044844236537876144_);}
	.st58{fill:url(#SVGID_00000165231146518221476200000015414781622111303598_);}
	.st59{fill:url(#SVGID_00000114051763473603060460000006822088860334636988_);}
	.st60{fill:url(#SVGID_00000015317837740078308340000009682200670077902240_);}
	.st61{fill:url(#SVGID_00000116229864660170557880000000407557174806218378_);}
	.st62{fill:url(#SVGID_00000065066070291616548670000012479920768753543576_);}
	.st63{fill:url(#SVGID_00000018953879641623116090000015563792067254358448_);}
	.st64{fill:url(#SVGID_00000135688178196517705150000016882726287136925846_);}
	.st65{fill:url(#SVGID_00000083051316314261514450000014879158856214962834_);}
	.st66{fill:url(#SVGID_00000157295728382669452600000002543929951658242751_);}
	.st67{fill:url(#SVGID_00000098216602720345731160000002854356432825995393_);}
	.st68{fill-rule:evenodd;clip-rule:evenodd;fill:url(#rect4789_00000131356632861114326390000012297909776047364239_);}
	.st69{fill:url(#SVGID_00000141442361801905010290000005596588690822000267_);}
	.st70{fill:url(#SVGID_00000147915661528453385110000004378093877507216572_);}
	.st71{fill:url(#SVGID_00000165938905994058640320000014783400167267280039_);}
	.st72{fill:url(#SVGID_00000055702443705065548020000015216183424628535938_);}
	.st73{fill:url(#SVGID_00000115478513742312280520000015589156284557394879_);}
	.st74{fill:url(#SVGID_00000150099749780070149100000005877266642625019275_);}
	.st75{fill:url(#SVGID_00000108287102090046997510000012271055444706314146_);}
	.st76{fill:url(#SVGID_00000134936626226320818770000010685509058220880318_);}
	.st77{fill:url(#SVGID_00000025411363741277574510000003698786323165785994_);}
	.st78{fill:url(#SVGID_00000010286572537434975580000011496523019523019190_);}
	.st79{fill:url(#SVGID_00000109722856784549835490000003748133769120093317_);}
	.st80{fill:url(#SVGID_00000060749306148205443800000017720410951626311301_);}
	.st81{fill:url(#SVGID_00000165957082197598211520000005411433628007752087_);}
	.st82{fill:url(#SVGID_00000084497681710125643810000000987975020860968576_);}
	.st83{fill-rule:evenodd;clip-rule:evenodd;fill:url(#rect4789_00000152961446235835999080000000922207562360920254_);}
	.st84{fill:url(#SVGID_00000062178412349522311210000015033129190225076897_);}
	.st85{fill:url(#SVGID_00000130636592904794269000000001714223407826256524_);}
	.st86{fill:url(#SVGID_00000111183750558081103350000016412184246023933569_);}
	.st87{fill:url(#SVGID_00000071537250937680408590000002264452149320384643_);}
	.st88{fill:url(#SVGID_00000020384487420476461170000000085461162024555148_);}
	.st89{fill:url(#SVGID_00000060030071053835643180000004578424041547363255_);}
	.st90{fill:url(#SVGID_00000044856743055360893950000015942870935333203638_);}
	.st91{fill:url(#SVGID_00000155836827082742294370000002322270628099255184_);}
	.st92{fill:url(#SVGID_00000013165637985102048470000017152172965795631018_);}
	.st93{fill:url(#SVGID_00000103977064005294261490000002403212173946978444_);}
	.st94{fill:url(#SVGID_00000061446754298952787630000013180951170972864694_);}
	.st95{fill:url(#SVGID_00000093862450385661747870000014344260359494498433_);}
	.st96{fill:url(#SVGID_00000131353800677342855060000016498546828167180717_);}
	.st97{fill:url(#SVGID_00000092452495643823867830000003341085635917476787_);}
	.st98{fill:url(#SVGID_00000078745333940627391480000012315783755613787809_);}
	.st99{fill:url(#SVGID_00000074441601653286405850000005112795866793474748_);}
	.st100{fill:url(#SVGID_00000107559153882271914760000008534856026574399114_);}
	.st101{fill-rule:evenodd;clip-rule:evenodd;fill:url(#rect4789_00000091731454789657582970000014553745497164635785_);}
	.st102{fill:url(#SVGID_00000058548633426430822510000017298042100565503108_);}
	.st103{fill:url(#SVGID_00000040542741599258818990000001682850961229016760_);}
	.st104{fill:url(#SVGID_00000046320447936448537500000017025198600940371597_);}
	.st105{fill:url(#SVGID_00000158731554772900326650000003801848395581798545_);}
	.st106{fill:url(#SVGID_00000075879392115212923070000018348159598381306522_);}
	.st107{fill:url(#SVGID_00000073705619356569881160000015329222328238549661_);}
	.st108{fill:url(#SVGID_00000088126718841405234850000004595844101548816792_);}
	.st109{fill:url(#SVGID_00000054983040668830164160000005296600395959493789_);}
	.st110{fill:url(#SVGID_00000100380502421900994970000017035510130343173296_);}
	.st111{fill:url(#SVGID_00000126309084962458239850000010774303889103187127_);}
	.st112{fill:url(#SVGID_00000173845352732970185210000007640314582527233157_);}
	.st113{fill:url(#SVGID_00000096753917860862892130000007827667375351765122_);}
	.st114{fill:url(#SVGID_00000146476987215483335570000010042781616481814439_);}
	.st115{fill:url(#SVGID_00000076592591238743858450000014474523672425361317_);}
	.st116{fill-rule:evenodd;clip-rule:evenodd;fill:url(#rect4789_00000139261053365859902590000006167570564354979752_);}
	.st117{fill:url(#SVGID_00000152980704859361067260000014671071226172727995_);}
	.st118{fill:url(#SVGID_00000068648665749634692970000010781952238623721891_);}
	.st119{fill:url(#SVGID_00000135662012942323389040000001023086649879910299_);}
	.st120{fill:url(#SVGID_00000071530304711306915970000017168673954364479414_);}
	.st121{fill:url(#SVGID_00000163775720781318179870000009610068555547344540_);}
	.st122{fill:url(#SVGID_00000131335009208810278130000002292485200536824484_);}
	.st123{fill:url(#SVGID_00000069360873709250165260000012733664769082540439_);}
	.st124{fill:url(#SVGID_00000132788554462075888350000018138534635515232699_);}
	.st125{fill:url(#SVGID_00000094599832734190799760000011147908188118110648_);}
	.st126{fill:url(#SVGID_00000035519824299351820460000006476724903591048115_);}
	.st127{fill:url(#SVGID_00000075136380220217439710000003686165158245685948_);}
	.st128{fill:url(#SVGID_00000182512789187947790680000008743186130700546703_);}
	.st129{fill:url(#SVGID_00000164508288169182996910000010152472287184400561_);}
</style>
<g>
	<g>
		<path id="rect4789_00000062155635235514395460000017406291443972728491_" class="st0" d="M464,781.1h2910.9
			c85.3,0,154.4,69.1,154.4,154.4l0,0c0,85.3-69.1,154.4-154.4,154.4H464c-85.3,0-154.4-69.1-154.4-154.4l0,0
			C309.6,850.2,378.7,781.1,464,781.1z"/>
		<g>
			<g>
				<path class="st1" d="M788.9,865.2h60.3c35.5,0,58.4,18.3,58.4,49.4v0.4c0,33.1-25.5,50.6-60.5,50.6h-19.3v40.2h-39L788.9,865.2
					L788.9,865.2z M846.3,935.1c13.9,0,22.3-7.2,22.3-18.3v-0.4c0-12-8.4-18.5-22.5-18.5h-18.3v37.2H846.3z"/>
				<path class="st1" d="M984.3,865.2h39v106.4h68.1v34.1h-107L984.3,865.2L984.3,865.2z"/>
				<path class="st1" d="M1216.8,864.2h37.6l59.9,141.6h-41.8l-10.2-25.1h-54.2l-10,25.1h-41L1216.8,864.2z M1251,950.3l-15.7-40
					l-15.9,40H1251z"/>
				<path class="st1" d="M1406.6,953.2l-53.4-88h44.4l28.9,51.2l29.1-51.2h43.6l-53.4,87.4v53.2h-39.2V953.2z"/>
				<path class="st1" d="M1676.8,984.9l21.7-25.9c13.9,11,29.3,16.9,45.6,16.9c10.4,0,16.1-3.6,16.1-9.6v-0.4c0-5.8-4.6-9-23.7-13.5
					c-29.9-6.8-53-15.3-53-44.2v-0.4c0-26.1,20.7-45,54.4-45c23.9,0,42.6,6.4,57.8,18.7l-19.5,27.5c-12.9-9-26.9-13.9-39.4-13.9
					c-9.4,0-14.1,4-14.1,9v0.4c0,6.4,4.8,9.2,24.3,13.7c32.3,7,52.4,17.5,52.4,43.8v0.4c0,28.7-22.7,45.8-56.8,45.8
					C1717.7,1008.2,1694,1000.4,1676.8,984.9z"/>
				<path class="st1" d="M1913.1,953.2l-53.4-88h44.4l28.9,51.2l29.1-51.2h43.6l-53.4,87.4v53.2h-39.2V953.2z"/>
				<path class="st1" d="M2060.4,984.9l21.7-25.9c13.9,11,29.3,16.9,45.6,16.9c10.4,0,16.1-3.6,16.1-9.6v-0.4c0-5.8-4.6-9-23.7-13.5
					c-29.9-6.8-53-15.3-53-44.2v-0.4c0-26.1,20.7-45,54.4-45c23.9,0,42.6,6.4,57.8,18.7l-19.5,27.5c-12.9-9-26.9-13.9-39.4-13.9
					c-9.4,0-14.1,4-14.1,9v0.4c0,6.4,4.8,9.2,24.3,13.7c32.3,7,52.4,17.5,52.4,43.8v0.4c0,28.7-22.7,45.8-56.8,45.8
					C2101.3,1008.2,2077.6,1000.4,2060.4,984.9z"/>
				<path class="st1" d="M2292.5,899.3h-42.2v-34.1h123.3v34.1h-42.2v106.4h-39L2292.5,899.3L2292.5,899.3z"/>
				<path class="st1" d="M2450.9,865.2H2564v33.1h-74.5v21.3h67.5v30.7h-67.5v22.3h75.5v33.1h-114.1V865.2z"/>
				<path class="st1" d="M2645.1,865.2h41.2l33.5,54.4l33.5-54.4h41.2v140.6h-38.8V925l-36,55h-0.8l-35.7-54.6v80.3H2645V865.2
					H2645.1z"/>
			</g>
			<path class="st1" d="M3030,880.5c0.9-1.7,2.5-3.1,5.1-4.2c1.6-0.7,3.9-1.3,7-2c3.1-0.7,5.8-1.2,8-1.4v-7.7h-39h-39v7.7
				c2.2,0.3,4.9,0.7,8,1.4c3.1,0.7,5.4,1.4,7,2c2.5,1.1,4.2,2.4,5.1,4.2c0.9,1.7,1.3,3.7,1.3,5.9v99.7c0,2.5-0.4,4.6-1.3,6.2
				c-0.9,1.6-2.6,2.9-5,3.9c-1.3,0.5-3.7,0.9-7.2,1.2s-6.1,0.5-7.9,0.6v7.7h39h39V998c-1.8-0.1-4.4-0.3-7.9-0.6s-5.9-0.7-7.2-1.2
				c-2.4-1-4.1-2.3-5-3.9c-0.9-1.6-1.3-3.7-1.3-6.2v-99.7C3028.7,884.2,3029.1,882.3,3030,880.5z"/>
		</g>
	</g>
	<g>
		<path class="st2" d="M1511.9,187.1v236.3c0,0,159.1-66.3,159.1-159.8C1671.1,148,1511.9,187.1,1511.9,187.1"/>
		<path class="st2" d="M2742.6,175.2c-69.4,0-162.5,40.8-162.5,204s82.9,204,162.5,204c79.5,0,164.2-51,164.2-204
			C2906.8,226.2,2812,175.2,2742.6,175.2"/>
		<polyline class="st2" points="899.1,380.9 1010.8,380.9 953.3,219.4 899.1,380.9 		"/>
		<path class="st2" d="M585.9,656.3H409.9c-209.9,0-326.7-164.9-326.7-283.9c0-182.4,158-283.7,301.3-283.7
			c138.8,0,222.6,106.5,222.6,106.5L511.4,296c0,0-5.1,2.6-9.3,2.6c-4.3,0-10.2-4.3-10.2-4.3l-11.9-10.2c0,0-3.4-0.8-3.4-4.3
			c0-3.4,9.3-11.9,9.3-28c0-16.1-3.4-83.3-106.6-83.3s-149,96.9-149,176.8c0,79.9,49.1,226.1,209.9,226.1
			c93.6,0,113.4-52.7,113.4-52.7h32.2V656.3z M1274.9,658h-212.4v-40.8c0,0,13.5,1.7,20.3-10.2c6.8-11.9,6.8-21.3,1.7-33.2
			c-5.1-11.9-40.6-106.3-40.6-106.3H870.3c0,0-35.6,95.2-38.9,103.7c-3.4,8.5-3.4,22.1,0,30.6c5.6,14.1,25.4,16.2,25.4,16.2V658
			H686.7v-39.9c0,0,15.4-5.3,27-17c12.7-12.7,16.9-26.3,16.9-26.3l172.7-470.8h144.8l176,462.3c5.1,12.8,13.6,24.7,22.1,34.9
			c8.4,10.2,28.7,17,28.7,17V658z M1677.8,440.5c-72.3,33.4-167.5,59.5-167.5,59.5v88.4c0,0,0.8,6,9.3,16.2
			c8.5,10.2,17.8,12.7,17.8,12.7V658h-196.4v-39.9c0,0,11.9-2.6,20.3-11c8.5-8.5,10.2-18.7,10.2-18.7V188.9c0,0,0.8-17-6-23.8
			c-6.8-6.8-22.8-16.1-22.8-16.1v-45.1c0,0,170.9,0,270.8,0c99.9,0,199.8,35.7,199.8,151.3S1740.4,411.6,1677.8,440.5z
			 M2172.1,169.4c-103.2,0-149,96.9-149,176.8c0,79.9,49.1,226.1,209.9,226.1c93.6,0,113.4-52.7,113.4-52.7h32.2v137.7h-176.1
			c-209.9,0-326.7-164.9-326.7-283.8c0-182.5,158-283.7,301.3-283.7c138.8,0,222.6,106.5,222.6,106.5l-95.6,100.7
			c0,0-5.1,2.5-9.3,2.5c-4.2,0-10.2-4.2-10.2-4.2l-11.9-10.2c0,0-3.4-0.9-3.4-4.3c0-3.4,9.3-11.9,9.3-28
			C2278.8,236.6,2275.4,169.4,2172.1,169.4z M2742.6,673.9c-182.8,0-314.3-134.1-314.3-297.2s134.8-289.6,314.3-289.6
			c179.4,0,314.2,126.5,314.2,289.6S2925.4,673.9,2742.6,673.9z M3759.1,658.3h-202.3v-36.8c0,0,17.8-2.6,23.7-11
			c6-8.5,8.5-13.6,6.8-27.2c-1.7-13.6-49.9-323-49.9-323l-88.1,273.6h-106.6l-87.2-256.6l-44,302.5c0,0-1.7,18.2,5.1,28.1
			c9.3,13.6,26.2,13.6,26.2,13.6V658h-175.2v-39.1c0,0,14-2.1,24.1-14c10.2-11.9,11.9-27.2,11.9-27.2l63.9-399.1
			c0,0,3.8-14.9-0.4-21.7c-4.5-7.2-28.4-13.2-28.4-13.2v-39.6h201.5L3413,330l77.8-226.1h210.8v33.2c0,0-14.1,5.9-20.3,13.6
			c-7.6,9.3-7.6,16.1-6,29.7c1.7,13.6,55.9,382.4,57.6,396.1c1.7,13.6,3.4,21.3,6.8,30.6c3.4,9.3,19.5,16.9,19.5,16.9V658.3z"/>
		<path class="st1" d="M1511.9,187.1v236.3c0,0,159.1-66.3,159.1-159.8C1671.1,148,1511.9,187.1,1511.9,187.1"/>
		<path class="st1" d="M2742.6,175.2c-69.4,0-162.5,40.8-162.5,204s82.9,204,162.5,204c79.5,0,164.2-51,164.2-204
			C2906.8,226.2,2812,175.2,2742.6,175.2"/>
		<polyline class="st1" points="899.1,380.9 1010.8,380.9 953.3,219.4 899.1,380.9 		"/>
		<path class="st1" d="M2745.1,761.1c-132.8,0-234.3-66-285.8-108.4v91.4h-238.2c-200.4,0-360.4-110.2-416.5-283.5
			c-41.8,30.4-116.9,73.9-201.2,96.1c2.3,0.6,4.6,1.2,6.8,1.5l17.8,3.1l0.1,182.7H418.3C183.8,744.1,0,583.8,0,379.3
			C0,161,163.1,2.5,387.8,2.5c228.9,0,320,172.6,323.8,180l6.9,13.5L516.1,410.8l-155.3-107l19-18.2c5.7-6.3,9-11.7,10.5-16.3
			c3.5-10-6.1-19.6-16.1-16.1c-3.1,1.1-6.7,2.6-10.5,4.5c-22.5,11.7-48.2,42.3-46.4,90.1c3.7,95.6,62,139.1,114.6,139.1
			c46.4,0,59.6-33.7,60.9-37.5l5-14.4l15.3-0.2h165.7v24l166.5-441h261.5l177.3,459.7c0.2-94.3,0.6-242.7,0.6-248.7
			c0-2.3-0.1-4.2-0.3-5.7c-0.4-3.6-2.4-6.8-5.4-8.8c-3.6-2.4-7.9-4.1-10.1-4.8l-15.4-4.5l-0.2-16.1V17.8h346.5
			c153.9,0,212.4,36.6,263.3,117.9c76-89.5,173.5-134.9,290.2-134.9c126.9,0,226.4,42,289.7,121.7C2518.7,45.4,2633.2,0,2755.3,0
			c118.2,0,223.9,46.5,294.2,127.1V17.8h349.3l15.4,39.2l11.5-39.2h360.9l0,181.1l-12.1,5.9c-17.2,8.3-18.3,11.8-16.1,25.8
			l45.2,288.9c1.3,6.5,3.3,11,6.4,13.7c1.4,1.2,4.3,1.5,5.5,1.4l23-1.6l0.7,23v188.1h-367.9V618.3h-143.3v126.1h-348.5v-60.5
			C2933.4,714.8,2847.6,761.1,2745.1,761.1z M2416.5,548.2l37.3,41c1.2,1.3,119.3,128.9,291.3,128.9c133.7,0,240.4-92.3,241.4-93.2
			l35.6-31.3l0,107.9h262.7V575.3H3514v125.8h282.1v-127c-4.9-1.9-10.1-4.7-14.9-9c-13.5-12.1-17.9-27.6-20-38.2l-45.3-289.8
			c-5.5-35,9.2-52.9,27.7-64.5l0-112h-285.8l-37.7,129l-50.6-129h-277.1v213.8l-40.1-69.8c-58.1-101.3-169.2-161.7-297.1-161.7
			c-119.8,0-231.1,47.6-297.5,127.4l-18.5,22.2l-15.9-24.2c-53.5-81.5-146.9-124.6-269.9-124.6c-114.4,0-204.6,46.7-275.6,142.6
			l-19.9,26.8l-16.2-29.2c-42.3-76.4-76.6-123.3-241.9-123.3h-303.6v113.9c6.4,3.4,13.5,8.3,19.3,15.1c8,9.2,11.9,22,11.9,39
			c0,8.8-0.8,325.6-0.8,325.6l-0.1,34.7l-31-15.6c-18.2-9.2-32.5-34-36.4-41.4l-1.1-2.3l-180.9-469H875L677.5,584l-41.5-7.6v-98.7
			H526.6c-11.4,19.8-38.6,52.1-94.7,52.1c-72.5,0-152.7-56.4-157.5-180.4c-2.6-67.9,35.9-112.4,69.6-129.8
			c25.2-13,50.2-13.1,67.1-0.2c18.2,13.9,22.7,30.1,23.3,41.2c0.8,13.5-3.8,25.8-9.2,35.4l85,58.5l155.8-165.2
			c-24.4-37.6-108.2-143.9-278-143.9c-203.1,0-344.9,137.3-344.9,333.8c0,180.5,164.9,321.9,375.4,321.9h1166.9v-105
			c-20.6-7-38.1-20.3-38.1-40.9c0-13.4,5.3-30.6,30.3-36.2c108.2-24.4,202.3-89.9,224.3-111l27-25.9l8.7,36.4
			c41.8,174.4,188.8,282.7,383.8,282.7h195.3V548.2z"/>
		<path class="st3" d="M692.6,192.3L513.1,382.7L394.6,301c0,0,38.9-37.4,3.4-64.6c-27.8-21.2-105.5,23.8-102.2,112.2
			c3.9,101.9,66.7,159.7,136.1,159.7c64.3,0,81.2-52.1,81.2-52.1h144.3v120.1L860.2,39.3h231.9L1278.3,522c0,0,13.5,25.5,27.1,32.3
			c0,0,0.8-316.7,0.8-325.6c0-8.9-1.2-18.7-6.7-25c-9.1-10.5-24.5-14.9-24.5-14.9V39.3c0,0,214.9,0,325,0
			c168.5,0,211.8,45.9,260.7,134.3c67.5-91.2,160.4-151.3,292.9-151.3c136.4,0,232.8,50.4,287.8,134.3
			c76.9-92.3,200.8-135.1,314-135.1c139.2,0,255.6,67.7,315.7,172.5V39.3h313.2l33,84.1l24.6-84.1h323.3l0,146.2
			c-22.9,11.1-32.1,22.3-28,48.5l45.2,288.9c1.9,9.4,5.2,19.2,13.2,26.4c9.4,8.4,22,6.8,22,6.8v166.6h-325V596.8h-186.2v126.1
			h-305.6V641c0,0-111.7,98.6-255.6,98.6c-184.2,0-307.2-136-307.2-136v119c0,0-13.5,0-216.7,0c-192.8,0-358.4-106-404.6-299.1
			c-21.9,21-118.5,90.3-234.5,116.4c-9,2-13.5,5.5-13.5,15.3c0,17.9,38.1,24.3,38.1,24.3v143.2c0,0-1002.1,0-1188.4,0
			c-220.1,0-396.9-151.3-396.9-343.3S159.3,24,387.8,24C606.2,24,692.6,192.3,692.6,192.3"/>
		<path class="st4" d="M903.3,103.8h144.8l176.1,462.4c5.1,12.7,13.5,24.6,22,34.9c8.4,10.2,28.8,17,28.8,17V658h-212.5v-40.8
			c0,0,13.5,1.7,20.3-10.2c6.8-11.9,6.8-21.3,1.7-33.2c-5.1-11.9-40.6-106.3-40.6-106.3H870.3c0,0-35.6,95.2-39,103.7
			c-3.4,8.5-3.4,22.1,0,30.6C837,616,856.8,618,856.8,618V658H686.7V618c0,0,15.5-5.3,27-17c12.7-12.8,17-26.4,17-26.4L903.3,103.8
			 M899.1,380.9h111.7l-57.5-161.5L899.1,380.9z"/>
		<path class="st4" d="M1342.6,103.8c0,0,171,0,270.8,0c99.9,0,199.8,35.7,199.8,151.3s-72.8,156.3-135.4,185.2
			c-72.3,33.4-167.6,59.5-167.6,59.5v88.3c0,0,0.8,6,9.3,16.2c8.4,10.2,17.8,12.7,17.8,12.7V658h-196.4V618c0,0,11.9-2.6,20.3-11
			c8.5-8.5,10.2-18.7,10.2-18.7V188.8c0,0,0.8-17-6-23.8c-6.8-6.8-22.8-16.1-22.8-16.1V103.8 M1511.9,187.1v236.3
			c0,0,159.1-66.3,159.1-159.8C1671.1,148,1511.9,187.1,1511.9,187.1z"/>
		<path class="st4" d="M2742.6,673.9c-182.8,0-314.3-134.1-314.3-297.2S2563.2,87,2742.6,87c179.5,0,314.3,126.5,314.3,289.7
			S2925.5,673.9,2742.6,673.9 M2580.1,379.3c0,163.2,82.9,204,162.5,204c79.5,0,164.2-51,164.2-204c0-153-94.8-204-164.2-204
			C2673.2,175.3,2580.1,216.1,2580.1,379.3z"/>
		<path class="st4" d="M3138.7,104.2h201.5l72.8,225.7l77.8-226.1h210.8V137c0,0-14,5.9-20.3,13.6c-7.6,9.3-7.6,16.2-5.9,29.8
			c1.7,13.6,55.8,382.4,57.5,396c1.7,13.7,3.4,21.3,6.8,30.6c3.3,9.3,19.4,17,19.4,17v34.3h-202.3v-36.8c0,0,17.8-2.6,23.7-11.1
			c6-8.5,8.5-13.6,6.8-27.2c-1.7-13.6-49.9-323-49.9-323l-88,273.7h-106.6l-87.2-256.7l-44,302.6c0,0-1.7,18.1,5.1,28
			c9.3,13.7,26.2,13.7,26.2,13.7V658h-175.2v-39.1c0,0,13.9-2.2,24.1-14c10.2-11.9,11.9-27.2,11.9-27.2l63.9-399
			c0,0,3.8-14.9-0.4-21.7c-4.4-7.2-28.4-13.2-28.4-13.2V104.2"/>
		<path class="st4" d="M607.1,195.2l-94.5,99.5c-5,5.2-13.1,5.7-18.7,1.2l-16.1-13.2c-0.7-0.6-1.1-1.6-1.1-2.9
			c0-3.4,9.3-11.9,9.3-28c0-16.2-3.3-83.3-106.6-83.3c-103.2,0-149,96.9-149,176.8c0,79.9,49.1,226.1,209.9,226.1
			c93.6,0,113.4-52.7,113.4-52.7h32.2v137.7H409.9C200,656.3,83.1,491.4,83.1,372.4c0-182.5,158-283.7,301.3-283.7
			C523.3,88.8,607.1,195.2,607.1,195.2"/>
		<path class="st4" d="M2399.8,196.2l-94.5,99.5c-5,5.2-13.1,5.7-18.7,1.2l-16.1-13.2c-0.7-0.6-1.1-1.6-1.1-2.9
			c0-3.4,9.3-11.9,9.3-28c0-16.2-3.3-83.3-106.6-83.3c-103.2,0-149,96.9-149,176.8c0,79.9,49.1,226.1,209.9,226.1
			c93.6,0,113.4-52.7,113.4-52.7h32.2v137.7h-176.1c-209.9,0-326.7-164.9-326.7-283.8c0-182.5,158-283.7,301.3-283.7
			C2316,89.7,2399.8,196.2,2399.8,196.2"/>
	</g>
</g>
</svg>
