<svg enable-background="new 0 0 3839 1089.9" version="1.1" viewBox="0 0 3839 1089.9" xml:space="preserve" xmlns="http://www.w3.org/2000/svg">
<path fill-rule="evenodd" clip-rule="evenodd" fill="#034EA2" d="m464 781.1h2910.9c85.3 0 154.4 69.1 154.4 154.4s-69.1 154.4-154.4 154.4h-2910.9c-85.3 0-154.4-69.1-154.4-154.4s69.1-154.4 154.4-154.4z"/><path fill="#FFF" d="m2755.3008 0c-122.0999 9.4738937e-15 -236.6009 45.400077-312.3008 122.5-63.2999-79.69992-162.7993-121.6992188-289.6992-121.6992188-116.6999 0-214.2013 45.39852675-290.2012 134.8984388-50.8999-81.29992-109.399-117.898439-263.2988-117.898439h-346.5v171.099609l0.1992 16.09961 15.4004 4.5c2.2 0.7 6.4996 2.40078 10.0996 4.80078 3 2 5.0004 5.19883 5.4004 8.79883 0.2 1.5 0.2988 3.40117 0.2988 5.70117 0 6-0.3996 154.39931-0.5996 248.69922l-177.2988-459.699219h-261.50002l-166.5 440.999999v-24h-165.70117l-15.29883 0.19922-5 14.40039c-1.3 3.8-14.50044 37.5-60.90039 37.5-52.59995 0-110.89961-43.4997-114.59961-139.09961-1.8-47.79995 23.89846-78.40157 46.39844-90.10156 3.79999-1.9 7.4-3.4 10.5-4.5 9.99999-3.5 19.60156 6.10157 16.10156 16.10156-1.5 4.6-4.8 9.99884-10.5 16.29883l-19 18.20117 155.29883 107 202.40039-214.80078-6.90039-13.5c-3.8-7.39999-94.89906-180-323.79883-180-224.69977 0-387.80078 158.501-387.80078 376.80078 3.7895575e-14 204.4998 183.80102 364.79922 418.30078 364.69922h1209.79882l-0.0996-182.69922-17.8008-3.10156c-2.2-0.3-4.4988-0.9-6.7988-1.5 84.2999-22.19998 159.3993-65.69964 201.1992-96.09961 56.1 173.29983 216.1002 283.5 416.5 283.5h238.2012v-91.40039c51.4999 42.39996 152.9989 108.40039 285.7988 108.40039 102.4999 0 188.3004-46.29925 234.4004-77.19922v60.5h348.5v-126.09961h143.3008v125.79883h367.8984v-188.09961l-0.6992-23-23 1.59961c-1.2 0.1-4.1-0.20039-5.5-1.40039-3.1-2.7-5.1004-7.19923-6.4004-13.69922l-45.1992-288.90039c-2.2-13.99999-1.1004-17.49884 16.0996-25.79883l12.0996-5.90039v-181.099609h-360.9004l-11.5 39.199219-15.3984-39.199219h-349.3008v109.298829c-70.2999-80.59992-175.9993-127.09961-294.1992-127.09961zm-0.1016 42.900391c127.8999 0 239.0016 60.399319 297.1016 161.699219l40.0996 69.80078v-213.800781h277.0996l50.5996 129.000001 37.7012-129.000001h285.7988v112.000001c-18.5 11.59999-33.1992 29.50003-27.6992 64.5l45.2988 289.80078c2.1 10.59999 6.5 26.09923 20 38.19922 4.8 4.3 10.0004 7.1 14.9004 9v127h-282.0996v-125.79883h-229.1992v126.19922h-262.7012v-107.90039l-35.5996 31.30078c-1 0.9-107.7005 93.19922-241.4004 93.19922-171.9998 0-290.0988-127.60039-291.2988-128.90039l-37.1016-40.78125v152.78125h-195.2988c-194.9998 0-342.0008-108.29939-383.8008-282.69922l-8.6992-36.40039-27 25.90039c-22 21.09998-116.1009 86.60002-224.3008 111-25 5.59999-30.2988 22.79923-30.2988 36.19922 0 20.59998 17.4996 33.9004 38.0996 40.90039v105h-1166.9004c-210.49979 0-375.400391-141.40057-375.400391-321.90039 0-196.4998 141.800591-333.798829 344.900391-333.798829 169.79983 0 253.60002 106.300429 278 143.900389l-155.80078 165.19922-85-58.5c5.39999-9.59999 10.00117-21.9004 9.20117-35.40039-0.6-11.09999-5.1008-27.29923-23.30078-41.19922-16.89998-12.89999-41.89964-12.80077-67.09961 0.19922-33.69997 17.39998-72.19961 61.90085-69.59961 129.80078 4.8 123.99988 85.00007 180.40039 157.5 180.40039 56.09994 0 83.29923-32.30158 94.69922-52.10156h109.40039v98.70117l41.5 7.59961 197.5-523.400391h202.0996l180.9004 469.000001 1.0996 2.30078c3.9 7.39999 18.2004 32.2004 36.4004 41.40039l31 15.59961 0.0996-34.70117s0.8008-316.79962 0.8008-325.59961c0-16.99998-3.9004-29.80001-11.9004-39-5.8-6.79999-12.9008-11.69961-19.3008-15.09961v-113.900391h303.6016c165.2998 0 199.5985 46.900861 241.8984 123.300781l16.2012 29.19922 19.9004-26.79883c70.9999-95.899903 161.1997-142.601561 275.5996-142.601561 122.9999 0 216.4004 43.101644 269.9004 124.601561l15.8984 24.19922 18.5-22.19922c66.4-79.799919 177.7001-127.400389 297.5-127.400389zm-338.5 505.517579v-0.21875h-0.1992l0.1992 0.21875zm325.9004-373.21875c-69.3999 0-162.5 40.80016-162.5 204s82.9001 204 162.5 204c79.4999 0 164.2012-51.00015 164.2012-204s-94.8013-204-164.2012-204zm-1173.2324 5.53516c-31.1939-0.08768-57.4668 6.36523-57.4668 6.36523v236.30078s159.0996-66.30087 159.0996-159.80078c0.0594-68.63743-56.0417-82.73709-101.6328-82.86523zm-616.06642 38.66601-54.20117 161.5h111.70119l-57.50002-161.5zm784.59962 643.40039c-33.7 0-54.4004 18.90003-54.4004 45v0.39844c0 28.89997 23.1 37.40118 53 44.20117 19.1 4.5 23.6992 7.70001 23.6992 13.5v0.40039c0 6-5.6996 9.59961-16.0996 9.59961-16.3 0-31.6996-5.9004-45.5996-16.90039l-21.6992 25.90039c17.2 15.50001 40.8988 23.29881 65.7988 23.29881 34.1 0 56.8008-17.09884 56.8008-45.79881v-0.40039c0-26.29997-20.1004-36.80079-52.4004-43.80078-19.5-4.5-24.3008-7.29923-24.3008-13.69922v-0.40039c0-5 4.7016-9 14.1016-9 12.5 0 26.4984 4.9004 39.3984 13.90039l19.5-27.5c-15.2-12.29999-33.8988-18.69922-57.7988-18.69922zm383.5996 0c-33.7 0-54.4004 18.90003-54.4004 45v0.39844c0 28.89997 23.1 37.40118 53 44.20117 19.1 4.5 23.7012 7.70001 23.7012 13.5v0.40039c0 6-5.7016 9.59961-16.1016 9.59961-16.3 0-31.6996-5.9004-45.5996-16.90039l-21.6992 25.90039c17.2 15.50001 40.8988 23.29881 65.7988 23.29881 34.1 0 56.8008-17.09884 56.8008-45.79881v-0.40039c0-26.29997-20.1004-36.80079-52.4004-43.80078-19.5-4.5-24.2988-7.29923-24.2988-13.69922v-0.40039c0-5 4.6996-9 14.0996-9 12.5 0 26.5004 4.9004 39.4004 13.90039l19.5-27.5c-15.2-12.29999-33.9008-18.69922-57.8008-18.69922zm-904.6992 1.39844-59.7012 141.60158h41l10-25.10158h54.2012l10.1992 25.10158h41.8008l-59.9004-141.60158h-37.5996zm-427.90041 1-0.09961 140.60158h39v-40.20119h19.29883c34.99996 0 60.5-17.49964 60.5-50.59961v-0.40039c0-31.09997-22.90043-49.40039-58.40039-49.40039h-60.29883zm195.40039 0 0.09961 140.49998h107.00001v-34.09959h-68.0996v-106.40039h-39.00002zm368.89842 0 53.4004 88v52.60158h39.2012v-53.20119l53.3984-87.40039h-43.5996l-29.0996 51.20117-28.9004-51.20117h-44.4004zm506.5 0 53.4004 88v52.60158h39.2012v-53.20119l53.3984-87.40039h-43.5996l-29.0996 51.20117-28.9004-51.20117h-44.4004zm390.6016 0v34.10156h42.1992l-0.0996 106.39842h39v-106.39842h42.1992v-34.10156h-123.2988zm200.5996 0v140.49998h114.0996v-33.09959h-75.5v-22.29883h67.5v-30.70117h-67.5v-21.29883h74.5v-33.10156h-113.0996zm194.0996 0v140.49998h38.1992v-80.29881l35.7012 54.59961h0.7988l36-55v80.8008h38.8008v-140.60158h-41.1992l-33.5 54.40039-33.5-54.40039h-41.2012-0.0996zm327.0996 0v7.70117c2.2 0.3 4.9 0.70039 8 1.40039s5.4 1.4 7 2c2.5 1.1 4.1996 2.39922 5.0996 4.19922 0.9 1.7 1.3008 3.70039 1.3008 5.90039v99.69922c0 2.5-0.4008 4.60117-1.3008 6.20117s-2.6 2.89844-5 3.89844c-1.3 0.5-3.6992 0.90117-7.1992 1.20117s-6.1004 0.49961-7.9004 0.59961v7.6992h39 39v-7.6992c-1.8-0.1-4.4004-0.29961-7.9004-0.59961s-5.8992-0.70117-7.1992-1.20117c-2.4-1-4.1-2.29844-5-3.89844s-1.3008-3.70117-1.3008-6.20117v-99.69922c0-2.2 0.4008-4.10039 1.3008-5.90039 0.9-1.7 2.4996-3.09922 5.0996-4.19922 1.6-0.7 3.9-1.3 7-2s5.8-1.20039 8-1.40039v-7.70117h-39-39zm-2144.29882 32.70117h18.29883c14.09999 0 22.5 6.50001 22.5 18.5v0.40039c0 11.09999-8.39884 18.29883-22.29883 18.29883h-18.5v-37.19922zm407.50002 12.40039 15.6992 40h-31.5996l15.9004-40z"/><path fill="#034EA2" d="m692.6 192.3-179.5 190.4-118.5-81.7s38.9-37.4 3.4-64.6c-27.8-21.2-105.5 23.8-102.2 112.2 3.9 101.9 66.7 159.7 136.1 159.7 64.3 0 81.2-52.1 81.2-52.1h144.3v120.1l202.8-537h231.9l186.2 482.7s13.5 25.5 27.1 32.3c0 0 0.8-316.7 0.8-325.6s-1.2-18.7-6.7-25c-9.1-10.5-24.5-14.9-24.5-14.9v-149.5h325c168.5 0 211.8 45.9 260.7 134.3 67.5-91.2 160.4-151.3 292.9-151.3 136.4 0 232.8 50.4 287.8 134.3 76.9-92.3 200.8-135.1 314-135.1 139.2 0 255.6 67.7 315.7 172.5v-154.7h313.2l33 84.1 24.6-84.1h323.3v146.2c-22.9 11.1-32.1 22.3-28 48.5l45.2 288.9c1.9 9.4 5.2 19.2 13.2 26.4 9.4 8.4 22 6.8 22 6.8v166.6h-325v-125.9h-186.2v126.1h-305.6v-81.9s-111.7 98.6-255.6 98.6c-184.2 0-307.2-136-307.2-136v119h-216.7c-192.8 0-358.4-106-404.6-299.1-21.9 21-118.5 90.3-234.5 116.4-9 2-13.5 5.5-13.5 15.3 0 17.9 38.1 24.3 38.1 24.3v143.2h-1188.4c-220.1 0-396.9-151.3-396.9-343.3s137.8-355.4 366.3-355.4c218.4 0 304.8 168.3 304.8 168.3"/><path fill="#FFCB04" d="m2742.5996 87c-179.3998 0-314.2988 126.59938-314.2988 289.69922s131.499 297.20117 314.2988 297.20117c182.8998 0 314.3008-134.00133 314.3008-297.20117s-134.801-289.69922-314.3008-289.69922zm-2358.19921 1.699219c-143.29986 0-301.300781 101.201351-301.300781 283.701171 0 118.99988 116.900991 283.9 326.800781 284h176v-137.70117h-32.20117s-19.79853 52.70117-113.39844 52.70117c-160.79984 0-209.90039-146.19969-209.90039-226.09961s45.8001-176.80078 149-176.80078c103.2999 0 106.59961 67.1008 106.59961 83.30078 0 16.09999-9.30078 24.6-9.30078 28 0 1.3 0.40156 2.29844 1.10156 2.89844l16.09961 13.20117c5.6 4.5 13.69922 3.99882 18.69922-1.20117l94.5-99.5s-83.79936-106.400001-222.69922-106.500001zm1792.69921 1.201172c-143.2998 0-301.2988 101.199399-301.2988 283.699219 0 118.89988 116.7994 283.80078 326.6992 283.80078h176.0996v-137.70117h-32.1992s-19.8005 52.70117-113.4004 52.70117c-160.7998 0-209.9004-146.19969-209.9004-226.09961s45.8001-176.80078 149-176.80078c103.2999 0 106.5996 67.1008 106.5996 83.30078 0 16.09999-9.2988 24.6-9.2988 28 0 1.3 0.3996 2.29844 1.0996 2.89844l16.0996 13.20117c5.6 4.5 13.7012 3.99882 18.7012-1.20117l94.5-99.5s-83.8013-106.498829-222.7012-106.298829zm-1273.79882 13.900389-172.60156 470.79883s-4.30001 13.6004-17 26.40039c-11.49999 11.69999-27 17-27 17v40h170.10156v-40s-19.8-1.99923-25.5-16.19922c-3.4-8.49999-3.4-22.10157 0-30.60156s39-103.69922 39-103.69922h173.59962s35.4996 94.40079 40.5996 106.30078 5.1008 21.29923-1.6992 33.19922-20.3008 10.19922-20.3008 10.19922v40.80078h212.5v-39.90039s-20.4008-6.80001-28.8008-17c-8.5-10.29999-16.9-22.2004-22-34.90039l-176.0996-462.39844h-144.79882zm439.29882 0v45.09961s16.0008 9.29962 22.8008 16.09961 6 23.80078 6 23.80078v399.5s-1.7012 10.19923-10.2012 18.69922c-8.4 8.39999-20.2988 11-20.2988 11v40h196.4004v-41s-9.4008-2.49923-17.8008-12.69922c-8.5-10.19999-9.3008-16.20117-9.3008-16.20117v-88.29883s95.3017-26.10003 167.6016-59.5c62.5999-28.89997 135.3984-69.60129 135.3984-185.20117 0-115.59989-99.8989-151.29883-199.7988-151.29883h-270.8008zm2148.2012 0-77.8008 226.09961-72.8008-225.70117h-201.3984v39.60156s23.9984 5.99923 28.3984 13.19922c4.2 6.79999 0.4004 21.69922 0.4004 21.69922l-63.9004 399s-1.6984 15.30118-11.8984 27.20117c-10.2 11.79999-24.1016 14-24.1016 14v39.09961h175.2012v-36.5s-16.9012 7.7e-4 -26.2012-13.69922c-6.8-9.89999-5.0996-28-5.0996-28l44-302.60156 87.2012 256.70117h106.5996l88-273.70117s48.2004 309.40001 49.9004 323-0.8008 18.70118-6.8008 27.20117c-5.9 8.49999-23.6992 11.09961-23.6992 11.09961v36.80078h202.2988v-34.30078s-16.1004-7.70001-19.4004-17c-3.4-9.29999-5.0988-16.89962-6.7988-30.59961-1.7-13.59999-55.8-382.40001-57.5-396s-1.6996-20.50079 5.9004-29.80078c6.3-7.69999 20.2988-13.59961 20.2988-13.59961v-33.19922h-210.7988zm-748.2012 71.5c69.3999 0 164.2012 51.00015 164.2012 204s-84.7013 204-164.2012 204c-79.5999 0-162.5-40.80016-162.5-204s93.1001-204 162.5-204zm-1180.334 5.52344c46.6318-1.29492 108.7969 10.52546 108.7344 82.77539 0 93.49991-159.0996 159.80078-159.0996 159.80078v-236.30078s22.3862-5.49844 50.3652-6.27539zm-608.96482 38.57617 57.50002 161.5h-111.70119l54.20117-161.5z"/>
</svg>
