<svg enable-background="new 0 0 3839 1477.2" version="1.1" viewBox="0 0 3839 1477.2" xml:space="preserve" xmlns="http://www.w3.org/2000/svg">
<path d="m970.69922 0-178.09961 178.09961v295.80078l178.09961 178.09961 97.10158-0.09961v-222.5h-52.7012v-206.90039h142.8008v121.09961h222.4004v-165.5l-178.1016-178.09961h-231.49998zm468.60158 0v903.19922l178.0996 178.20118h97.0996v-222.50001h-52.6992v-858.90039h-222.5zm365.2988 0v858.90039h-52.6992v222.50001h97.0996l178.0996-178.20118v-903.19922h-222.5zm278.4004 0v1081.4004h222.4004v-358.9004-222.40039-277.59961-222.5h-222.4004zm259.8008 0v222.5h105.3984v277.59961h-105.3984v222.40039h149.7988l178.0996-178.09961v-366.30078l-178.0996-178.09961h-149.7988zm374.5 0v1081.4004h175.5 296.3984v-222.50001h-249.3984v-84.30078-122.69922-222.5-41.80078-165.09961h249.3984v-222.5h-249.3984-222.5zm533.8984 0v1081.4004h222.5v-42.3008-387.19921-222.5-206.90039-222.5h-222.5zm259.9004 0v222.5h105.4004v97.09961 78.5 31.30078h-105.4004v222.5h105.4004v35.29883 76 310.90038h222.5v-313.29882-73.60156-25.29883l-121.1992-121.20117 121.1992-121.19922v-21.40039-77.5-94-30.09961-18.40039l-178.0996-178.09961h-41.8008-30.5-77.5zm-3220.69921 98.199219c-49.89995 0.699999-95.30082 48.500861-131.30078 128.800781l12.80078 2c13.09999-28.59997 27.20041-52.60002 42.40039-71.5 24.49998-30.69997 50.19886-46.40078 76.29883-46.80078 73.29993-1 145.90121 122.30136 186.20117 315.20117l13.19922 2c-40.49996-197.5998-115.49969-330.90117-199.59961-329.701171zm-243.499999 126.400391c-6.399994-1-11.899608 4.69962-10.59961 11.09961l39.59961 199.20117 12.798828 64.40039 116.400391 17.89844 4.70117 23.5-116.400389-18 18.798829 94.5 15.90039 2.40039c-7.49999 11.19999-10.39883 25.09962-7.79883 38.59961l7.5 37.5c-11.99999-9.39999-20.60117-22.89845-23.70117-38.39844l-7.900391-39.5c-0.799999-3.89999-3.898832-6.80039-7.798828-7.40039l-77.701172-11.90039c-6.3999939-1-11.8996083 4.69962-10.59960962 11.09961l12.90039062 64.90039c12.799987 64.19994 64.300065 113.50001 129 123.5l6.19922 1 12.70117 63.69922 12.69922 63.70117 116.40039 17.90039 4.69922 23.5-116.39844-17.90039 18.79883 94.50001 15.90039 2.4004c-7.49999 11.2-10.39922 25.0996-7.69922 38.5996l26.69922 134.1992c0.8 3.9 3.90079 6.8004 7.80078 7.4004l90.89844 14-0.69922-3.6992c7.29999 3.5 15.20001 5.8992 23.5 7.1992l20.30078 3.0996c12.89999 2 26.20001-0.4992 37-7.6992 17.69998-11.7 26.09961-32.7008 22.09961-52.8008l-16.30078-82.2988c-4.3-21.7-16.89885-40.4008-34.29883-52.8008l1.19922-1.1992c11.49999-12.1 16.49922-29.1 13.19922-45.5l-19.79883-99.70119-28.5 7.90039 19.40039 97.5996c3 14.8-9.70119 28.1008-24.70117 25.8008l-120.90039-18.5996-6.59961-33.00002 105.80078 16.29882c5.1 0.8 9.5-3.80039 8.5-8.90038l-14.80078-74.5-116.40039-17.89844-6.59961-33 135.40039 20.89844 33.30078-36.59961-44.30078-98.19922 2 9.90039 6.59961 33-178.40039-27.5c-52.499949-8.09999-94.199621-48.10161-104.599611-100.10156l-7.298828-36.69922 35.398438 5.40039 5.101562 25.69922c7.699993 38.79996 38.900039 68.70118 77.999999 74.70117l13.39844 2.09961-17.39844-87.40039c-3-14.79999 9.69923-28.10078 24.69922-25.80078l82.5 12.70117c14.69999 2.3 27.50001 10.19962 36 21.59961h0.09961l47.20117 58.40039-8.30078-41.70117c-4.3-21.69998-16.9008-40.39884-34.30078-52.79883l1.20117-1.20117c11.49999-12.09999 16.49922-29.10002 13.19922-45.5l-17.59961-88.39844 16 2.5 66.40039 10.19922 12.40039 62.30078c8.99999 45.49996 45.60005 80.49962 91.5 87.59961l59.89844 9.19922c34.99996 5.39999 64.60116-25.59886 57.70117-60.29883l-29.09961-146.30078-177.20117-27.30078-29.5-148.39844c-0.8-3.89999-3.89883-6.80039-7.79883-7.40039l-307.400389-47.30078zm24 33.5 265.099609 40.80078 2.19922 10.90039 16 80.59961 7.30078 36.5-35.40039-5.40039-2.09961-10.5-16.80078-84.5-78-12 7.80078 39.5 1.40039 7.09961 5.09961 25.90039-35.40039-5.40039-2.79883-13.90039-3.80078-19.09961-7.90039-39.59961-81-12.5 17.20117 86.80078 1 4.79883 5.29883 26.40039-35.19922-5.59961-2.90039-14.30078-3.300781-16.79883-18.699219-93.80078-5.099609-25.90039zm78.999999 73.90039 19 2.90039 14.40039 72.59961 97.39844 15-14.39844-72.59961 16 2.5 12 60.29883 5.39844 27.40039-25.39844-3.90039-107-16.5-17.40039-87.69922zm955.19921 97.40039v222.5h52.8008v207h-142.8008v-133.5h-222.49999v177.79883l178.09961 178.20118h231.49998l178.1016-178.20118v-295.59961l-178.1016-178.19922h-97.0996zm1872 0v222.5h174.7012v-222.5h-174.7012zm-2869.99999 10.79883 151.70117 23.40039 24 120.40039c3 14.79999-9.70119 28.10078-24.70117 25.80078l-120.90039-18.60156-6.59961-33 105.80078 16.30078c5.1 0.8 9.5-3.8004 8.5-8.90039l-14.80078-74.5-116.40039-17.90039-6.59961-33zm340.40039 73.20117 66.19922 10.19922 9.90039 50c0.8 4.2-2.7004 7.90117-6.90039 7.20117l-49.69922-7.60156c-4.7-0.7-8.50039-4.30001-9.40039-9l-10.09961-50.79883zm-45.57617 137.66211c-30.55343 0.88209-54.27656 29.29144-48.02344 60.73828l6.59961 33.09961 57.69922 71.40039 47.5-13.20117-1.89844-9.59961-17.80078-2.69922c-4.7-0.7-8.50039-4.3-9.40039-9l-8.40039-42.20117c-0.8-4.2 2.70039-7.89922 6.90039-7.19922l116.09961 17.90039c4.69999 0.7 8.50039 4.30001 9.40039 9l8.40039 42.19922c0.8 4.2-2.70039 7.89922-6.90039 7.19922l-17-2.59961 15.80078 79.59961 24.69922 3.80078c34.99996 5.39999 64.60116-25.60082 57.70117-60.30078l-14-70.5c-8.99999-45.49996-45.60004-80.49962-91.5-87.59961l-126.20117-19.40039c-3.28125-0.525-6.51508-0.72797-9.67578-0.63672zm-207.16992 10.84961c-4.68201-0.13513-8.49219 4.20704-7.55469 8.98828l14.80078 74.5 81 12.5-15.80078-79.90039c-0.6-3.1-3.09922-5.5-6.19922-6l-65.30078-10c-0.31875-0.05-0.63318-0.07888-0.94531-0.08789zm89.94531 1.78711 85.70117 189.80078-55.20117 60.59961 78.90039-21.90039 131 161.99998-85.69922-189.89842 55.19922-60.60156-79 22-130.90039-162zm-62.39844 32.20117 19 2.90039 4.69922 23.5-19-2.90039-4.69922-23.5zm286.79883 62.59961c0.1 74.09993-4.19962 145.89929-12.59961 213.19922l9.69922 21.60156c9.99999-71.89993 15.50039-150.40047 15.40039-232.90039l-12.5-1.90039zm-431.400391 31.30078c3.599996 90.69991 13.601187 176.0993 28.701171 252.19922 40.09996 201.5998 115.8997 338.1996 201.09961 337.0996 85.39991-1.2 157.59925-140.399 192.19922-343.7988l-10.5-13c-9.59999 59.4999-22.59885 114.4996-38.79883 163.0996-19.19998 57.6999-41.60081 102.8989-66.80078 134.2988-24.49998 30.7-50.19885 46.4008-76.29883 46.8008-74.79992 1-148.8016-127.4002-188.60156-327-14.89999-74.79993-24.499224-157.7993-28.19922-242.69922-4.399996-2.2-8.700785-4.5-12.800781-7zm101.701171 13.79883 151.79883 23.40039 6.60156 33-151.80078-23.40039-6.59961-33zm293.69922 36.09961-24.19922 26.5 0.79883 1.70117c3.2 0.8 6.40117 1.4 9.70117 2l20.29883 3.09961-6.59961-33.30078zm-219.69141 213.94138c1.77695-0.1724 3.61719-0.1273 5.49219 0.1602l82.5 12.6992c23.09998 3.5 41.40001 21.2 46 44l16.40039 82.1992c3.1 15-9.60158 28.2004-24.60156 25.9004l-21.29883-3.2988c-23.09998-3.5-41.4-21.2-46-44l-15.90039-79.8008-15.30078-2.4004c-5.1-0.8-9.5 3.8004-8.5 8.9004l14.80078 74.5 2.90039 14.6992 3.59961 18.2012-35.40039-5.4004-1.19922-6.1992-22.70117-114.2012c-2.625-12.95 6.77032-24.7517 19.20898-25.959zm78.0918 43.3594 15.59961 78.5c0.8 3.9 3.90078 6.8004 7.80078 7.4004 6.39999 1 11.89961-4.6996 10.59961-11.0996l-13-65.4004c-0.8-3.9-3.90079-6.8004-7.80078-7.4004l-13.19922-2zm953.9004 80.9004c-37.6 0-68 30.5-68 68v163.2988c0 37.6 30.5 68 68 68h329.9004v-169.7988h-199v53.5996h132.2988v62.5h-264.5996v-192.0996h331.3008v-53.5h-329.9004zm392.5996 0v299.4004h66.5996v-116.1016h131.5996l97.4004 116.1016h87l-97.4004-116.1016h35.8008c37.2-0.1 67.4004-30.3 67.4004-67.5v-48.3984c0-37.2-30.2004-67.4004-67.4004-67.4004h-321zm577.5996 0-153.4004 299.2988h74.9004l125.9004-245.6992h35.1992l126 245.6992h74.9004l-153.5-299.2988h-130zm335.5 0v53.5996 245.6992h66.5996v-116.0996h238.3008v-53.6992h-238.3008v-75.9004h282.1016v-53.5996h-282.1016-66.5996zm384.9004 0 149.6992 149.5996-149.6992 149.6992h94.1992l113.3008-113.2988 113.3008 113.2988h94.1992l-149.5996-149.6992 149.5996-149.5996h-94.1992l-113.3008 113.1992-113.3008-113.1992h-94.1992zm-1231.4004 53.5996h255.0996v75.9004h-255.0996v-75.9004z"/>
</svg>
