<?xml version="1.0" encoding="UTF-8"?>
<svg width="86.586mm" height="42.122mm" version="1.1" viewBox="0 0 86.586 42.122" xmlns="http://www.w3.org/2000/svg" xmlns:cc="http://creativecommons.org/ns#" xmlns:dc="http://purl.org/dc/elements/1.1/" xmlns:rdf="http://www.w3.org/1999/02/22-rdf-syntax-ns#">
 <metadata>
  <rdf:RDF>
   <cc:Work rdf:about="">
    <dc:format>image/svg+xml</dc:format>
    <dc:type rdf:resource="http://purl.org/dc/dcmitype/StillImage"/>
   </cc:Work>
  </rdf:RDF>
 </metadata>
 <g transform="translate(-56.119 -201.96)">
  <path d="m123.36 238.51-3.0147-2.926h-2.6014l3.817 3.9385-4.5706 4.5614h2.9417l3.428-3.2486 3.428 3.2486h2.9417l-4.5706-4.5614 3.817-3.9385h-2.6014zm-17.099 5.5739-1e-5 -8.4999h10.219v1.6046l-7.9986-0.0486 0.0243 1.9357h6.7344v1.5803h-6.7344v3.428zm-5.3454-8.5132 4.3972 8.5132h-2.3259l-3.9142-8.038-3.9142 8.038h-2.3259l4.3972-8.5132zm-9.0301 2.1833c0-1.2058-1.1483-2.1833-2.5647-2.1833l-8.2341-1e-5v8.5132h1.8529v-6.9488h5.8707c0.35803 0 0.68887 0.19101 0.86788 0.50107 0.17901 0.31007 0.17901 0.69208 0 1.0021-0.17901 0.31007-0.50985 0.50108-0.86788 0.50108h-5.8714v1.5113h3.7655l2.7334 3.4332h2.252l-2.746-3.4332c1.8739 0 2.9723-0.75968 2.9416-1.993zm-23.416 5.8179c-0.33192-0.33192-0.51838-0.78209-0.51838-1.2515v-4.9353c0-0.4694 0.18647-0.91958 0.51838-1.2515 0.33192-0.33191 0.7821-0.51838 1.2515-0.51838h9.4381v1.5125h-9.0534v5.4337h7.1841v-2.0057h-3.4644v-1.3736h5.3364v4.9018h-9.403c-0.4694 0-0.95733-0.18006-1.2893-0.51198zm57.692-41.58v30.407h5.9679v-30.407zm7.3257 0v5.6278h2.9382v6.7588h-2.9382v5.842h3.0237l-0.0769 12.179h6.2679v-11.836l-3.4477-3.1716 3.221-3.2637v-7.9293l-4.0785-4.2068zm-22.512 0v30.407h13.107v-5.6703h-7.1387v-19.067h7.1387v-5.6706zm7.3634 11.5v5.7004h4.5429v-5.7004zm-25.279-11.5v30.407h5.9679v-30.407zm7.0824 0v5.6278h2.681v8.6874h-2.681v5.842h4.5668l4.164-4.1637v-11.829l-4.164-4.164zm-25.876-0.0302 0.06431 26.188 4.162 4.2499h3.4146v-5.7127h-1.6365v-24.725zm10.574 0.0302v24.725h-1.6365v5.713h3.4149l4.1617-4.2499 0.06431-26.188zm-25.037-0.0302-3.6877 4.3301v9.0238l3.7702 4.1581h4.0006v-5.6371h-1.6063v-6.2732h4.2124v4.0911h5.6978v-5.7704l-3.9035-3.9224zm5.1014 11.875v5.6371h1.606v6.2736h-4.6974v-3.3035h-5.6978v5.6978l4.2582 4.2578h7.4705l4.4173-4.417v-9.2058l-4.6294-4.94z" fill="#0090aa"/>
  <g stroke="#000">
   <g stroke-width="1.0646">
    <path transform="matrix(.26458 0 0 .26458 56.119 201.96)" d="m103.27 104.33c0-10.078 9e-3 -10.114 2.6615-10.114h2.6615v-93.684h22.356v97.069l-15.208 16.842h-12.472z"/>
    <path transform="matrix(.26458 0 0 .26458 56.119 201.96)" d="m76.786 106.46-7.5875-7.9877v-97.936h21.292v93.684h6.3876v20.227h-12.504z"/>
    <path transform="matrix(.26458 0 0 .26458 56.119 201.96)" d="m8.2256 106.17-8.2256-8.2741v-19.648h21.292v11.711h18.098v-24.486h-2.6615c-2.6521 0-2.6615-0.03549-2.6615-10.114v-10.114h4.5974c4.4258 0 4.9226 0.35461 13.307 9.4978l8.71 9.4978v33.752l-16.548 16.451h-27.682z"/>
    <path transform="matrix(.26458 0 0 .26458 56.119 201.96)" d="m7.1631 57.563-7.1631-7.909v-32.183l14.179-16.939h31.016l15.487 15.383v19.748h-21.292v-14.904h-17.033v24.486h6.3876v20.227h-14.418z"/>
    <path transform="matrix(.26458 0 0 .26458 56.119 201.96)" d="m140.53 57.488v-56.956h21.292v113.91h-21.292z"/>
    <path transform="matrix(.26458 0 0 .26458 56.119 201.96)" d="m167.14 65.472v-10.646h9.5813v-34.067h-9.5813v-20.227h16.451l15.487 15.383v43.752l-16.548 16.451h-15.389z"/>
    <path transform="matrix(.26458 0 0 .26458 56.119 201.96)" d="m207.6 57.488v-56.956h48.971v20.164l-27.147 0.59591-0.56024 72.925h27.707v20.227h-48.971z"/>
    <path transform="matrix(.26458 0 0 .26458 56.119 201.96)" d="m235.27 54.294v-10.114h17.033v20.227h-17.033z"/>
    <path transform="matrix(.26458 0 0 .26458 56.119 201.96)" d="m265.08 57.488v-56.956h21.292v113.91h-21.292z"/>
    <path transform="matrix(.26458 0 0 .26458 56.119 201.96)" d="m304.47 91.555v-22.889h-11.711v-21.292h11.711v-26.615h-11.711v-20.227h17.516l15.487 15.383v29.8l-12.179 12.307 13.243 13.362v43.059h-22.356z"/>
   </g>
   <g stroke-width=".26615">
    <path transform="matrix(.26458 0 0 .26458 56.119 201.96)" d="m49.065 158.59c-1.368-0.48494-2.9294-1.9692-3.5812-3.4044-0.45459-1.0009-0.49328-1.9419-0.49328-11.998 0-10.016 0.0401-11 0.48826-11.987 0.61508-1.3541 2.6066-3.1264 3.9732-3.5358 0.75668-0.22671 6.0806-0.31299 19.311-0.31299h18.267v5.323h-34.333v21.026h27.413v-7.9844h-13.041v-4.7907h19.961v18.098l-18.431-0.021c-15.499-0.0177-18.606-0.0832-19.534-0.41227z"/>
    <path transform="matrix(.26458 0 0 .26458 56.119 201.96)" d="m94.483 143.05v-15.969h15.823c10.612 0 16.287 0.0977 17.233 0.29664 2.1452 0.4512 4.0283 1.4483 5.2611 2.7858 1.845 2.0016 2.125 2.9108 2.1317 6.9228 5e-3 3.1403-0.0553 3.6005-0.61326 4.6576-1.2318 2.3338-4.2518 3.8864-8.0857 4.157-1.214 0.0857-2.2066 0.2278-2.2059 0.31585 8e-4 0.088 2.2164 2.9349 4.9237 6.3263 2.7073 3.3914 4.9224 6.2359 4.9224 6.321 0 0.0851-1.7765 0.15478-3.9477 0.15478h-3.9477l-10.336-13.047-14.372 0.1392-0.1426 12.908h-6.6442zm30.854-2.8615c1.9746-1.0069 2.7035-3.397 1.6224-5.3205-1.1222-1.9966-0.65308-1.9317-13.954-1.9317h-11.869v7.7183l11.644-4.2e-4c10.56-3.7e-4 11.729-0.0438 12.557-0.46576z"/>
    <path transform="matrix(.26458 0 0 .26458 56.119 201.96)" d="m139.2 158.87c0-0.0936 3.6765-7.2826 8.17-15.976l8.17-15.805h13.65l8.1598 15.795c4.4879 8.6873 8.1598 15.876 8.1598 15.976 0 0.0993-1.877 0.14762-4.1711 0.10731l-4.1711-0.0733-7.3398-15.101c-4.0369-8.3055-7.3997-15.099-7.4729-15.096-0.0732 3e-3 -3.4338 6.798-7.468 15.101l-7.335 15.096-4.1759 0.0733c-2.2968 0.0403-4.1759-3e-3 -4.1759-0.0969z"/>
    <path transform="matrix(.26458 0 0 .26458 56.119 201.96)" d="m189.76 143.05v-15.969h38.325v5.8552h-30.356l0.074 3.6595 0.074 3.6595 25.417 0.1382v5.8501h-25.55v12.775h-7.9844z"/>
    <path transform="matrix(.26458 0 0 .26458 56.119 201.96)" d="m239.01 150.59c4.6843-4.6365 8.4839-8.5231 8.4436-8.637-0.0403-0.11386-3.2172-3.4363-7.0597-7.3832s-6.9864-7.2462-6.9864-7.3319c0-0.0857 2.0774-0.15573 4.6163-0.15573 4.3624 0 4.6442 0.031 5.1234 0.56276 0.27886 0.30952 2.871 2.8374 5.7603 5.6175l5.2533 5.0547 11.584-11.221 9.2348-0.014-1.3334 1.5304c-0.73334 0.84169-1.774 1.9495-2.3126 2.4619-0.5386 0.51233-3.1458 3.1849-5.7937 5.939l-4.8144 5.0075 16.993 16.999-10.643-0.0226-6.3876-6.098c-3.5132-3.3539-6.4692-6.0735-6.569-6.0436-0.0998 0.03-3.0554 2.7791-6.5681 6.1093l-6.3866 6.0549h-10.671z"/>
   </g>
  </g>
 </g>
</svg>
