<?xml version="1.0" encoding="UTF-8"?>
<svg width="86.586mm" height="42.122mm" version="1.1" viewBox="0 0 86.586 42.122" xmlns="http://www.w3.org/2000/svg" xmlns:cc="http://creativecommons.org/ns#" xmlns:dc="http://purl.org/dc/elements/1.1/" xmlns:rdf="http://www.w3.org/1999/02/22-rdf-syntax-ns#">
 <metadata>
  <rdf:RDF>
   <cc:Work rdf:about="">
    <dc:format>image/svg+xml</dc:format>
    <dc:type rdf:resource="http://purl.org/dc/dcmitype/StillImage"/>
   </cc:Work>
  </rdf:RDF>
 </metadata>
 <g transform="translate(-56.119 -201.96)">
  <path d="m123.36 238.51-3.0147-2.926h-2.6014l3.817 3.9385-4.5706 4.5614h2.9417l3.428-3.2486 3.428 3.2486h2.9417l-4.5706-4.5614 3.817-3.9385h-2.6014zm-17.099 5.5739-1e-5 -8.4999h10.219v1.6046l-7.9986-0.0486 0.0243 1.9357h6.7344v1.5803h-6.7344v3.428zm-5.3454-8.5132 4.3972 8.5132h-2.3259l-3.9142-8.038-3.9142 8.038h-2.3259l4.3972-8.5132zm-9.0301 2.1833c0-1.2058-1.1483-2.1833-2.5647-2.1833l-8.2341-1e-5v8.5132h1.8529v-6.9488h5.8707c0.35803 0 0.68887 0.19101 0.86788 0.50107 0.17901 0.31007 0.17901 0.69208 0 1.0021-0.17901 0.31007-0.50985 0.50108-0.86788 0.50108h-5.8714v1.5113h3.7655l2.7334 3.4332h2.252l-2.746-3.4332c1.8739 0 2.9723-0.75968 2.9416-1.993zm-23.416 5.8179c-0.33192-0.33192-0.51838-0.78209-0.51838-1.2515v-4.9353c0-0.4694 0.18647-0.91958 0.51838-1.2515 0.33192-0.33191 0.7821-0.51838 1.2515-0.51838h9.4381v1.5125h-9.0534v5.4337h7.1841v-2.0057h-3.4644v-1.3736h5.3364v4.9018h-9.403c-0.4694 0-0.95733-0.18006-1.2893-0.51198zm57.692-41.58v30.407h5.9679v-30.407zm7.3257 0v5.6278h2.9382v6.7588h-2.9382v5.842h3.0237l-0.0769 12.179h6.2679v-11.836l-3.4477-3.1716 3.221-3.2637v-7.9293l-4.0785-4.2068zm-22.512 0v30.407h13.107v-5.6703h-7.1387v-19.067h7.1387v-5.6706zm7.3634 11.5v5.7004h4.5429v-5.7004zm-25.279-11.5v30.407h5.9679v-30.407zm7.0824 0v5.6278h2.681v8.6874h-2.681v5.842h4.5668l4.164-4.1637v-11.829l-4.164-4.164zm-25.876-0.0302 0.06431 26.188 4.162 4.2499h3.4146v-5.7127h-1.6365v-24.725zm10.574 0.0302v24.725h-1.6365v5.713h3.4149l4.1617-4.2499 0.06431-26.188zm-25.037-0.0302-3.6877 4.3301v9.0238l3.7702 4.1581h4.0006v-5.6371h-1.6063v-6.2732h4.2124v4.0911h5.6978v-5.7704l-3.9035-3.9224zm5.1014 11.875v5.6371h1.606v6.2736h-4.6974v-3.3035h-5.6978v5.6978l4.2582 4.2578h7.4705l4.4173-4.417v-9.2058l-4.6294-4.94z" fill="#0090aa"/>
 </g>
</svg>
