<svg enable-background="new 0 0 3839 1253.6" version="1.1" viewBox="0 0 3839 1253.6" xml:space="preserve" xmlns="http://www.w3.org/2000/svg">
<path d="m0 0v47.300781h1148.9004v260.099609h-1148.9004v354.69922h47.300781v-307.40039h1148.898419v-354.69922h-1196.1992zm1806.4004 0v614.80078h-610.2012v47.29883h659.9004v-614.798829h610.2012v-47.300781h-659.9004zm836.5996 0.099609375v47.30078162h1148.6992v259.999999h-1148.6992v354.69922h47.3008v-307.40039h1148.6992v-354.5996106h-1196zm-1373.9004 989.9003906c-44.9999 0-68.1992 26.0004-68.1992 53.9004 0 79.0999 122.5996 37.7997 122.5996 100.0996 0 22.1-15.0996 41.5996-51.0996 41.5996-30.7 0-54.8004-13.0996-57.9004-49.0996h-18.3008c0 43.6 31.0005 65.4004 72.9004 65.4004 46.3 0 73.5-21.8012 73.5-58.7012 0-77.9999-113.9992-40.5-122.6992-92.5-3.4-20.7 10.5992-44.5 49.1992-44.5 25.6 0 49.4004 13.2004 49.4004 43.9004h18.1992c0.3-32.7-22.3996-60.0996-67.5996-60.0996zm-585.40038 5.40039v201.19921h19v-88.7988h43c37.09996 0 77.10156-11.2012 77.10156-56.2012 0-30.2-13.40161-56.19921-65.60156-56.19921h-73.5zm164.60156 0v201.09961h16.79883v-201.09961h-16.79883zm855.79882 0v24.90041h18.4004v-24.90041h-18.4004zm433.8008 0v201.19921h19v-88.7988h43c37.2 0 77.0996-11.2012 77.0996-56.2012 0-30.2-13.3993-56.19921-65.6992-56.19921h-73.4004zm651 0v201.19921h16.6992v-25.4004h0.5996c9.8 19 31.8008 29.3008 50.3008 29.3008 46.7 0 65.4004-33.2 65.4004-76 0-40.5-20.4001-76.5996-64.5-76.5996-20.4 0-41.1012 9.4996-51.7012 27.0996v-79.59961h-16.7988zm169.9004 0v201.09961h16.6992v-201.09961h-16.6992zm-2256.10158 16.09961h49.20117c35.79996 0 52 13.4996 52 38.5996 0 34.1-22.09964 41.4004-57.59961 41.4004h-43.60156v-80zm1454.20118 0h49.1992c35.8 0 52 13.4996 52 38.5996 0 34.1-22.0996 41.4004-57.5996 41.4004h-43.5996v-80zm-771.8008 0.0996v40.3008h-20.4004v13.9004h20.4004v105.8984c0 21.5 9.2012 28.7012 25.7012 28.7012 8.1 0 15.2992-2.5008 19.1992-3.3008h0.0996v-13.5c-4.5 1.1-9.1992 1.9004-13.6992 1.9004-14 0-14.5996-6.2004-14.5996-20.4004v-99.2988h27.1992v-13.9004h-27.1992v-40.3008h-16.7012zm241.3008 0v40.3008h-20.4004v13.9004h20.4004v105.8984c0 21.5 9.1992 28.7012 25.6992 28.7012 8.1 0 15.4008-2.5008 19.3008-3.3008v-13.5c-4.5 1.1-9.2012 1.9004-13.7012 1.9004-14 0-14.5-6.2004-14.5-20.4004v-99.2988h27.1016v-13.9004h-27.1016v-40.3008h-16.7988zm930.5996 0v40.3008h-20.4004v13.9004h20.4004v105.8984c0 21.5 9.1992 28.7012 25.6992 28.7012 8 0 15.3012-2.5008 19.2012-3.3008v-13.5c-4.4 1.1-9.1996 1.9004-13.5996 1.9004-14 0-14.5-6.2004-14.5-20.4004v-99.2988h27.0996v-13.9004h-27.0996v-40.3008h-16.8008zm-1591.59961 36.2012c-31.59997 0-57 13.6988-59.5 47.7988h17c3.1-25.1 18.99924-32.6992 42.19922-32.6992 25.99997 0 35.99999 12.3004 35.99999 29.4004 0 5-0.5996 12.5996-6.0996 15.0996-5.59999 2.6-15.99962 4.1988-22.09961 4.7988l-23.09961 2.9004c-33.79996 4.5-50.60156 19.2996-50.60156 43.5996 0 27.9 22.90081 41.6016 48.30078 41.6016 20.99998 0 40.00001-8.3 54-24 0.2 10.2 2.2004 19.8996 13.4004 21.5996 2.4 0.5 4.7 0.7988 7.5 0.7988 4.7 0 10.5996-1.8988 13.0996-2.7988v-13.0996c-14.3 5-17.5996 1.8988-17.5996-11.2012v-78.7988c0-33.5-23.20004-45-52.50001-45zm554.59961 0c-31.5 0-56.9 13.6988-59.5 47.7988h17.0996c3.1-25.1 19.0012-32.6992 42.2012-32.6992 25.9 0 36 12.3004 36 29.4004 0 5-0.7012 12.5996-6.2012 15.0996-5.6 2.6-15.9996 4.1988-22.0996 4.7988l-23.1992 3c-33.8 4.5-50.6016 19.3016-50.6016 43.6016 0 27.9 22.9004 41.5996 48.4004 41.5996 20.9 0 39.9004-8.4 53.9004-24 0.3 10.1 2.2004 19.9 13.4004 21.5 2.6 0.6 4.7996 0.7988 7.5996 0.7988 4.7 0 10.5996-1.8988 13.0996-2.7988v-13.0996c-14.2 5-17.5996 1.8988-17.5996-11.2012v-78.7988c0-33.5-23.2-45-52.5-45zm1166.5 0c-31.6 0-57 13.6988-59.5 47.7988h17c3.1-25.1 18.9992-32.6992 42.1992-32.6992 25.9 0 36 12.3004 36 29.4004 0 5-0.5992 12.5996-6.1992 15.0996-5.6 2.6-15.9996 4.1988-22.0996 4.7988l-23 3c-33.8 4.5-50.5 19.3016-50.5 43.6016 0 27.9 22.8988 41.5996 48.2988 41.5996 20.9 0 39.9004-8.4 53.9004-24 0.3 10.1 2.2004 19.9 13.4004 21.5 2.5 0.6 4.7996 0.7988 7.5996 0.7988 4.7 0 10.5996-1.8988 13.0996-2.7988v-13.0996c-14.2 5-17.5996 1.8988-17.5996-11.2012v-78.7988c0-33.5-23.2996-45-52.5996-45zm-865.9004 0.0996c-44.6999 0-67 34.0989-67 76.2988 0 50.6 30.1 75.7008 67 76.3008 40.5 0 67.0996-30.4008 67.0996-76.3008 0-42.4999-21.7996-76.2988-67.0996-76.2988zm531.3008 0c-44.8 0-67.0996 34.0989-67.0996 76.2988 0 50.6 30.1996 75.7008 67.0996 76.3008 40.4 0 67-30.4008 67-76.3008 0-42.4999-21.7001-76.2988-67-76.2988zm723.9004 0c-41.3 0-66.5 34.7004-66.5 76.9004 0 42.6999 20.1 75.6992 66.5 75.6992 36.8999 0 54.1996-21.0008 62.5996-48.3008h-18.7012c-5.1 21.2-22.0984 33.2012-43.8984 33.2012-32.1 0-48.9016-26.0008-48.6016-57.3008h112.3008c0.3-51.9999-23.9993-80.1992-63.6992-80.1992zm-1100.9004 0.0996c-20.1 0-33.3012 9.8-46.7012 24v-20.0996h-16.6992v144.6992h16.6992v-77.9004c0-10.1 0.3012-18.1984 3.7012-27.3984 5.3-14.8 19.4992-28.2012 40.1992-28.2012 26.8 0 37.4004 13.0996 37.4004 39.0996v94.5h16.8008v-94.6992c0-12-0.3008-23.0008-7.3008-33.3008-10.3-15.1-26.4996-20.6992-44.0996-20.6992zm533.0996 0c-24.3 0-37.9992 7.8-47.1992 31h-0.5v-27.0996h-16.8008v144.6992h16.6992v-70.7988c0-32.5 10.1008-60.4016 47.8008-59.6016v-18.1992zm-803.0996 3.8008v144.6992h16.7988v-144.6992h-16.7988zm-659.7012 0.0996 56.2012 145.9004c-6.4 12.6-9.2012 39.8984-28.2012 39.8984-4.8 0-9.5-0.7992-14-1.6992v15.6992c4.4 1.1 10.0004 2 15.9004 2 23.2 0 32.1008-22.6 45.8008-59l54-142.7988h-18.2012l-46.3984 124.2988-46.4004-124.2988h-18.7012zm775.4004 11.0996c35.5 0 48.9012 27.0993 49.2012 61.1992 0 31-14.0012 61.2012-49.2012 61.2012-32.2 0-49.1992-25.1012-49.1992-61.2012 0-31.2999 13.9992-61.1992 49.1992-61.1992zm531.3008 0c35.5 0 48.8992 27.0993 49.1992 61.1992 0 31-13.9992 61.2012-49.1992 61.2012-32.2 0-49.2012-25.1012-49.2012-61.2012 0-31.2999 14.0012-61.1992 49.2012-61.1992zm502.6992 0c34.7 0 50.9 29.3993 49.5 65.6992-0.3 36.3-21.3 56.7012-49.5 56.7012-31.6 0-48.9004-26.8008-48.9004-61.8008 0-32.6 18.4004-60.5996 48.9004-60.5996zm221.3008 0c30.1 0 45.7988 22.8992 45.7988 51.1992h-94.3984c3.3-27.4 18.9996-51.1992 48.5996-51.1992zm-2074.8008 57.5996v22.5996c0 29.3-26.29885 42.2012-52.79882 42.2012-15.89998 0-31.30078-8.4-31.30078-26 0-19.5 15.30081-28.8012 40.80078-30.7012 14.59999-1.1 29.09884-2.1996 43.29882-8.0996zm554.7012 0v22.5996c0 29.3-26.3008 42.2012-52.8008 42.2012-16 0-31.3008-8.4-31.3008-26 0-19.5 15.3008-28.7012 40.8008-30.7012 14.5-1.1 29.0008-2.1996 43.3008-8.0996zm1166.2988 0v22.5996c0 29.3-26.1988 42.2012-52.7988 42.2012-16 0-31.3008-8.4-31.3008-26 0-19.5 15.4008-28.7012 40.8008-30.7012 14.5-1.1 28.9988-2.1996 43.2988-8.0996z"/>
</svg>
