<?xml version="1.0" encoding="utf-8"?>
<!-- Generator: Adobe Illustrator 25.4.1, SVG Export Plug-In . SVG Version: 6.00 Build 0)  -->
<svg version="1.1" id="Layer_1" xmlns="http://www.w3.org/2000/svg" xmlns:xlink="http://www.w3.org/1999/xlink" x="0px" y="0px"
	 viewBox="0 0 3839 1137.7" style="enable-background:new 0 0 3839 1137.7;" xml:space="preserve">
<style type="text/css">
	.st0{fill:#D02026;}
</style>
<g>
	<g>
		<g>
			<path class="st0" d="M2683,525.6h-249.6c-62.5,0-122.2,50.7-133.2,113.2l-61.5,347.4c-11.1,62.6,30.7,113.3,93.3,113.3h250.1
				c62.6,0,122.3-50.8,133.3-113.4l61-347.4C2787.3,576.3,2745.5,525.6,2683,525.6z M2565.5,1016.7h-187.2
				c-34.3,0-57.2-27.8-51.2-62.1l50.2-284.5c6-34.3,38.8-62.1,73.1-62.1h187.2c34.3,0,57.2,27.8,51.2,62.1l-50.2,284.5
				C2632.5,988.9,2599.8,1016.7,2565.5,1016.7z"/>
			<path class="st0" d="M3213.4,525.6h-249.6c-62.5,0-122.2,50.7-133.2,113.2l-61.5,347.4c-11.1,62.6,30.7,113.3,93.3,113.3h250.1
				c62.6,0,122.3-50.8,133.3-113.4l61-347.4C3317.7,576.3,3275.9,525.6,3213.4,525.6z M3096,1016.7h-187.2
				c-34.3,0-57.2-27.8-51.2-62.1l50.2-284.5c6-34.3,38.8-62.1,73.1-62.1H3168c34.3,0,57.2,27.8,51.2,62.1L3169,954.6
				C3163,988.9,3130.3,1016.7,3096,1016.7z"/>
			<path class="st0" d="M3743.9,525.6h-249.6c-62.5,0-122.2,50.7-133.2,113.2l-61.5,347.4c-11.1,62.6,30.7,113.3,93.3,113.3H3643
				c62.6,0,122.3-50.8,133.3-113.4l61-347.4C3848.2,576.3,3806.5,525.6,3743.9,525.6z M3626.4,1016.7h-187.2
				c-34.3,0-57.2-27.8-51.2-62.1l50.2-284.5c6-34.3,38.8-62.1,73.1-62.1h187.2c34.3,0,57.2,27.8,51.2,62.1l-50.2,284.5
				C3693.4,988.9,3660.7,1016.7,3626.4,1016.7z"/>
			<path class="st0" d="M2188.6,812.4c19.9-19.7,34.6-44.7,39.5-72.3l17.7-101.9c11-62.5-30.8-113.2-93.3-113.2h-249.6
				c-62.5,0-122.2,50.7-133.2,113.2l-18.2,101.9c-4.9,27.6,1,52.6,13.9,72.3c-19.7,19.6-34.3,44.5-39.2,71.9L1708,986.2
				c-11.1,62.6,30.7,113.4,93.3,113.4h250.1c62.6,0,122.3-50.8,133.3-113.4l17.7-101.9C2207.2,856.8,2201.4,832,2188.6,812.4z
				 M1846.8,669.5c6-34.3,38.8-62.1,73.1-62.1h187.2c34.3,0,57.2,27.8,51.2,62.1l-6.9,39c-6,34.3-38.8,62.1-73.1,62.1h-187.2
				c-34.3,0-57.2-27.8-51.2-62.1L1846.8,669.5z M2108,954.6c-6,34.3-38.8,62.1-73.1,62.1h-187.2c-34.3,0-57.2-27.8-51.2-62.1l6.9-39
				c6-34.3,38.8-62.1,73.1-62.1h187.2c34.3,0,57.2,27.8,51.2,62.1L2108,954.6z"/>
			<path class="st0" d="M1578.6,771.2h-249.6c-10.6,0-21,1.9-31.2,4.7l18.7-105.8c6.1-34.3,38.8-62.1,73.1-62.1h187.2
				c34.3,0,57.2,27.8,51.2,62.1l-8.5,48.3h82.1l14-79.6c11-62.5-30.8-113.2-93.3-113.2h-249.6c-62.5,0-122.2,50.7-133.2,113.2
				l-43.3,244.4c-0.1,0.4-0.2,0.7-0.3,1.1l-18.2,101.9c-11.1,62.6,30.7,113.4,93.3,113.4h250.1c62.6,0,122.3-50.8,133.3-113.4
				l17.7-101.9C1682.8,821.8,1641.1,771.2,1578.6,771.2z M1577.5,954.6c-6,34.3-38.8,62.1-73.1,62.1h-187.2
				c-29.5,0-49.3-21-50.8-48.6c0.1-0.1,0.2-0.2,0.3-0.3c-0.2-4.4-1.2-8.6-0.3-13.3l7.1-40.3c6.7-33.7,38.7-60.8,72.6-60.8h187.2
				c34.3,0,57.2,27.8,51.2,62.1L1577.5,954.6z"/>
			<path class="st0" d="M305.7,831.9L0,1137.7h482.3L305.7,831.9z M293.9,921.4l93.1,161.4H132.7L293.9,921.4z"/>
			<path class="st0" d="M673.3,487.5H157l375.4,650.1h516.4L673.3,487.5z M252.1,542.4h389.5l311.9,540.4H564L252.1,542.4z"/>
			<path class="st0" d="M723.4,487.5L900,793.2l305.7-305.7H723.4z M818.6,542.4H1073L911.7,703.8L818.6,542.4z"/>
		</g>
		<g>
			<g id="g9277_13_" transform="matrix(0,1.5459704,1.5459704,0,415.67057,649.33146)">
				<path id="path9279_13_" class="st0" d="M-331.1,719.4V578.4h-82.1v-72.9h214.6v72.9h-86.3v141.1h86.3v72.9h-214.6v-72.9
					L-331.1,719.4"/>
			</g>
			<g id="g9281_13_" transform="matrix(0,1.5459704,1.5459704,0,451.89266,657.95179)">
				<path id="path9283_13_" class="st0" d="M-290.4,890.6l-83.4,50.8l83.4,49.2V890.6 M-418.7,913.1l214.6-130.8V838l-43.9,26.7
					v150.8l43.9,26v89l-214.6-130.7V913.1"/>
			</g>
			<g id="g9285_13_" transform="matrix(0,1.5459704,1.5459704,0,550.35088,651.36905)">
				<path id="path9287_13_" class="st0" d="M-321.5,1356c-22.8,17.4-56.1,15-75.2-18.3c-17.8-31.1-24.4-90.4-24.4-127.5
					c0-59.3,4-97.5,9.6-129.9h211.5v72.9h-179.5c-5.2,26.3-5.3,52.9-4.9,62.9c1.3,28.9,5.8,45.2,15,58.2
					c9.6,13.5,30.8,17.1,45.5-0.3c11-13.1,19.6-39.6,10.6-98.9l13.8-8.4l99.5,112.1v99.3l-86.3-99.7
					C-289.2,1302.4-298.8,1338.6-321.5,1356"/>
			</g>
			<g id="g9289_13_" transform="matrix(0,1.5459704,1.5459704,0,346.11736,647.86124)">
				<path id="path9291_13_" class="st0" d="M-338,390.6c-8.2-42.1-13.3-77.9-26.9-77.9c-15.1,0-19,28.9-14.7,69.9
					c4.1,38.8,14.3,75.3,28.8,109.4l-42.5,25.9c-10.5-27.6-23.9-84.4-25.5-135.9c-1.6-56.5,3.4-151.9,60.6-156
					c52.3-3.8,64.8,70.8,76.2,119.6c11.1,47.7,15.1,92.3,31.6,92.3c11.6,0,20.7-15.7,17.5-57.4c-3.7-50.1-17.4-92.8-38.6-135.4
					l46.4-28.3c18.4,47.2,33.3,109.1,34.2,164.9c1.1,66.3-9.6,141.2-66.4,142.9C-304.8,526.1-321.3,477-338,390.6"/>
			</g>
			<g id="g9293_13_" transform="matrix(0,1.5459704,1.5459704,0,594.18532,651.0413)">
				<path id="path9295_13_" class="st0" d="M-323.1,1563.2c10.3-12.6,14-31,13.9-60.1c-0.1-21.4-4-43.6-8.1-61.7h-61.9
					c-5.2,26.2-5.3,53.4-4.9,63.3c1.2,29.1,6.2,46.1,15,58.7C-359.7,1576.7-337.6,1581.1-323.1,1563.2 M-396.4,1627
					c-17.6-29.7-24.4-85.3-24.4-127.9c0-59.3,4-97.9,9.6-130.4h211.5v72.9h-77.5c3.8,22.5,5.9,50.8,5.8,75.2
					c-0.5,59.7-14.5,104-36.5,124.2C-339.1,1669.6-376.9,1660-396.4,1627"/>
			</g>
		</g>
	</g>
</g>
</svg>
