<svg enable-background="new 0 0 3839 1137.7" version="1.1" viewBox="0 0 3839 1137.7" xml:space="preserve" xmlns="http://www.w3.org/2000/svg">
<path fill="#D02026" d="m919.64453 0.08203125c-88.19835-0.86507831-218.19635 11.10913875-224.13867 94.01171875-5.87468 80.85417 109.45515 100.18064 184.89844 117.80469 73.74271 17.16025 142.6934 23.34308 142.6934 48.85156 0 17.93324-24.27143 32.00179-88.73832 27.05469-77.45305-5.72009-143.46596-26.89929-209.32422-59.67383l-43.75196 71.73242c72.96974 28.44583 168.66658 51.48168 254.93164 52.87305 102.49776 1.70057 218.28986-14.84132 220.91796-102.65235 2.319-73.43352-73.5885-98.94403-207.16014-124.76171-65.0853-12.67694-120.42969-20.56076-120.42969-41.585942 0-23.34413 44.67777-29.372276 108.0625-22.724609 59.98359 6.338472 116.41133 22.106893 169.12893 44.523441l40.041-65.703129c-42.6688-16.232674-130.4803-36.9502777-210.09767-39.42382788-5.4592-0.15459688-11.15331-0.26849998-17.0332-0.32617187zm1501.64067 0.27929687c-91.6761 0-150.733 6.18437178-200.8223 14.84179688v326.972655h112.7012v-277.501952c40.659-8.039038 81.7825-8.194559 97.2421-7.576172 44.6785 2.00976 69.877 8.966541 89.9747 23.189453 20.8705 14.841302 26.4369 47.616051-0.4629 70.341801-20.2522 17.00565-61.2206 30.30044-152.8965 16.38671l-12.9863 21.33594 173.3027 153.82422h153.5156l-154.1347-133.41797c37.1032-4.4833 93.0689-19.32448 119.9687-54.41797 26.8999-35.24809 23.1878-86.729803-28.293-116.257809-48.0796-27.518245-139.7539-37.72070288-197.1093-37.72070288zm490.4648 0.13476563c-91.6759 0-151.3518 6.18437085-201.5957 14.84179725v326.972659h112.7012v-119.8125c34.7843 5.87467 78.5361 9.12139 116.2578 8.96679 92.2944-0.77298 160.7812-22.41641 192.0097-56.42773 44.2148-48.23422 29.3725-106.671967-21.6445-136.81836-45.9153-27.209052-131.8702-37.72265625-197.7285-37.72265625zm-1714.5918 10.04101525v331.763671h112.7012v-133.41601h218.1367v133.41601h112.7012v-331.763671h-112.7012l-0.1543 126.923831h-217.9824v-126.923831h-112.7012zm666.3594 0.117188-202.2129 331.765623h86.1113l41.2774-67.86914h233.1328l40.1953 67.86914h137.5898l-202.0566-331.765623h-134.0371zm1040.8379 46.371094c6.7273-0.053143 12.2245 0.054387 16.0507 0.208984 44.9877 1.855163 71.2709 9.584928 90.75 23.189453 20.5614 14.532108 27.3624 48.698682-0.3105 71.115232-19.4792 15.92349-47.9244 21.64288-92.9121 21.48828-33.0837-0.15459-67.4048-6.18301-95.3867-12.52148v-95.697266c30.3782-6.029279 61.6264-7.623775 81.8086-7.783203zm-997.086 23.042968 76.0606 128.933591h-154.5957l78.5351-128.933591zm-1750.2695 407.431641 375.40039 650.0996h516.40041l-375.50002-650.0996h-516.30078zm566.40039 0 176.59961 305.69922 305.6992-305.69922h-482.29881zm1179.50001 37.5c-62.4999 0-122.2012 50.69928-133.2012 113.19922l-18.1992 101.90039c-4.9 27.59997 1.0004 52.6008 13.9004 72.30078-19.7 19.59998-34.3012 44.50042-39.2012 71.90039l-18.1992 101.89844c-11.1 62.59998 30.7008 113.40038 93.3008 113.40038h250.0996c62.5999 0 122.2988-50.8004 133.2988-113.40038l17.7012-101.89844c4.8-27.49997-1.0008-52.30041-13.8008-71.90039 19.9-19.69998 34.6-44.70081 39.5-72.30078l17.7012-101.90039c11-62.49994-30.8009-113.19922-93.3008-113.19922h-249.5996zm-530.2012 0.59961c-62.4999 0-122.1992 50.70123-133.1992 113.20117l-43.3008 244.39844c-0.1 0.4-0.1988 0.70156-0.2988 1.10156l-18.2012 101.89844c-11.1 62.59998 30.7009 113.40038 93.3008 113.40038h250.0996c62.5999 0 122.3008-50.8004 133.3008-113.40038l17.6992-101.89844c10.7-62.49994-31.0001-113.10156-93.5-113.10156h-249.5996c-10.6 0-20.9992 1.90117-31.1992 4.70117l18.6992-105.80078c6.1-34.29997 38.7996-62.09961 73.0996-62.09961h187.2012c34.2999 0 57.1992 27.79964 51.1992 62.09961l-8.5 48.30078h82.0996l14-79.59961c11-62.49994-30.7989-113.20117-93.2988-113.20117h-249.6016zm1060.7012 0c-62.4999 0-122.2012 50.70123-133.2012 113.20117l-61.5 347.39844c-11.1 62.59998 30.7009 113.30078 93.3008 113.30078h250.0996c62.5999 0 122.3008-50.8005 133.3008-113.40039l61-347.40039c10.9-62.39994-30.9005-113.09961-93.4004-113.09961h-249.5996zm530.4004 0c-62.5 0-122.2012 50.70123-133.2012 113.20117l-61.5 347.39844c-11.1 62.59998 30.7009 113.30078 93.3008 113.30078h250.0996c62.5999 0 122.3008-50.8005 133.3008-113.40039l61-347.40039c10.9-62.39994-30.9005-113.09961-93.4004-113.09961h-249.5996zm530.5 0c-62.5 0-122.2012 50.70123-133.2012 113.20117l-61.5 347.39844c-11.1 62.59998 30.7009 113.30078 93.3008 113.30078h250.0996c62.5999 0 122.3008-50.8005 133.3008-113.40039l61-347.40039c10.9-62.39994-30.8005-113.09961-93.4004-113.09961h-249.5996zm-3242.20119 16.80078h389.5l311.90039 540.40041h-389.5l-311.90039-540.40041zm566.5 0h254.40039l-161.30078 161.40039-93.09961-161.40039zm1101.30079 65h187.1992c34.3 0 57.2012 27.79964 51.2012 62.09961l-6.9004 39c-6 34.29997-38.7997 62.09961-73.0996 62.09961h-187.2012c-34.3 0-57.1992-27.79964-51.1992-62.09961l6.9004-39c6-34.29997 38.7996-62.09961 73.0996-62.09961zm530.5 0.59961h187.1992c34.3 0 57.2012 27.79964 51.2012 62.09961l-50.2012 284.5c-6.1 34.29997-38.7996 62.09959-73.0996 62.09959h-187.1992c-34.3 0-57.2012-27.79962-51.2012-62.09959l50.2012-284.5c6-34.29997 38.7996-62.09961 73.0996-62.09961zm530.5 0h187.0996c34.3 0 57.1992 27.79964 51.1992 62.09961l-50.1992 284.5c-6 34.29997-38.7 62.09959-73 62.09959h-187.1992c-34.3 0-57.2012-27.79962-51.2012-62.09959l50.2012-284.5c6-34.29997 38.7996-62.09961 73.0996-62.09961zm530.4004 0h187.1992c34.3 0 57.1992 27.79964 51.1992 62.09961l-50.1992 284.5c-6.1 34.29997-38.7996 62.09959-73.0996 62.09959h-187.2012c-34.2999 0-57.1992-27.79962-51.1992-62.09959l50.1992-284.5c6-34.29997 38.8016-62.09961 73.1016-62.09961zm-3205.60158 223.90039-305.69922 305.79881h482.30078l-176.60156-305.79881zm1040.40038 21.5h187.2012c34.2999 0 57.1992 27.79964 51.1992 62.09961l-7 39.09961c-6 34.29997-38.7996 62.09959-73.0996 62.09959h-187.2012c-29.5 0-49.2988-20.99962-50.7988-48.59959l0.2988-0.29883c-0.2-4.39999-1.1988-8.60078-0.2988-13.30078l7.0996-40.30078c6.7-33.69997 38.6996-60.79883 72.5996-60.79883zm530.4004 0.09961h187.1992c34.3 0 57.2012 27.79964 51.2012 62.09961l-6.9004 39c-6 34.29997-38.7996 62.09959-73.0996 62.09959h-187.2012c-34.2999 0-57.1992-27.79962-51.1992-62.09959l6.9004-39c6-34.29997 38.7996-62.09961 73.0996-62.09961zm-1582.59961 67.90039 93.09961 161.40041h-254.30078l161.20117-161.40041z"/>
</svg>
