<svg enable-background="new 0 0 3840 1138" version="1.1" viewBox="0 0 3840 1138" xml:space="preserve" xmlns="http://www.w3.org/2000/svg">
<path d="m919.95312 0.08203125c-88.19835-0.86507831-218.19439 11.10913875-224.13671 94.01171875-5.87468 80.85417 109.45516 100.18064 184.89843 117.80469 73.74272 17.16025 142.69136 23.34308 142.69136 48.85156 0 17.93324-24.27133 32.00179-88.73823 27.05469-77.45304-5.72009-143.46595-26.89929-209.32422-59.67383l-43.75 71.73242c72.96973 28.44583 168.66462 51.48168 254.92969 52.87305 102.49776 1.70057 218.29186-14.84132 220.91996-102.65235 2.319-73.27892-73.5885-98.78943-207.1602-124.76171-65.08528-12.67694-120.43164-20.56076-120.43164-41.585942 0-23.34413 44.67778-29.372276 108.0625-22.724609 59.98359 6.338472 116.41334 22.106893 169.13084 44.523441l40.0391-65.703129c-42.6688-16.232674-130.4803-36.9502777-210.09767-39.42382788-5.4592-0.15459688-11.15331-0.26849998-17.03321-0.32617187zm1992.57028 0.4140625c-91.6759 0-151.3517 6.18437085-201.5957 14.84179725v327.126949h112.7012v-119.8125c34.7844 5.87469 78.5362 9.1214 116.2578 8.9668 92.2943-0.77298 160.7812-22.41642 192.0098-56.42773 44.3693-48.38883 29.3725-106.826267-21.6445-136.97266-45.9153-27.209052-131.8702-37.72265625-197.7286-37.72265625zm-490.4668 0.01953125c-91.6759 0-150.7309 6.1843717-200.8203 14.841797v327.126958h112.7012v-277.501958c40.6591-8.039038 81.7805-8.194559 97.2402-7.576172 44.6785 2.00976 69.879 8.968493 89.9766 23.191406 20.8706 14.841301 26.4349 47.614104-0.4648 70.339844-20.2523 17.00566-61.2206 30.30239-152.8965 16.38867l-12.9864 21.33399 173.3047 153.82422h153.5137l-154.1328-133.41797c36.9487-4.63791 93.0669-19.47877 119.9668-54.57227 26.8999-35.24808 23.1897-86.729806-28.291-116.257812-48.0797-27.518245-139.7559-37.720703-197.1114-37.720703zm-1224.5878 10.021484v331.919921h112.7011v-133.41797h218.1348v133.41797h112.7012v-331.919921h-112.7012v126.923831h-218.1348v-126.923831h-112.7011zm666.5136 0.117188-202.2129 331.919923h86.1094l41.2773-67.86914h233.1329l40.1953 67.86914h137.5918l-202.0586-331.919923h-134.0352zm1041.1465 46.527344c6.7274-0.053143 12.2245 0.052434 16.0508 0.207031 44.9876 1.855163 71.2689 9.584928 90.748 23.189453 20.5614 14.377511 27.3643 48.544085-0.3086 71.115235-19.4791 15.92348-47.9243 21.64288-92.9121 21.48828-33.0837-0.1546-67.4046-6.18301-95.3867-12.52148v-95.695316c30.3784-6.029279 61.6265-7.623775 81.8086-7.783203zm-997.3965 23.041015 76.0625 128.933594h-154.5976l78.5351-128.933594zm-1750.7324 407.476564 375.5 650.30078h516.5l-375.5-650.30078h-516.5zm566.59961 0 176.59961 305.80078 305.80078-305.80078h-482.40039zm1179.80079 37.60156c-62.4999 0-122.2012 50.69928-133.2012 113.19922l-18.1992 101.90039c-4.9 27.59997 1.0004 52.59885 13.9004 72.29883-19.7 19.59998-34.3012 44.50042-39.2012 71.90039l-18.1992 101.90039c-11.1 62.5999 30.7008 113.4004 93.3008 113.4004h250.1992c62.5999 0 122.3008-50.8005 133.3008-113.4004l17.6992-101.90039c4.8-27.49997-1.0008-52.30041-13.8008-71.90039 19.9-19.69998 34.6-44.69886 39.5-72.29883l17.7012-101.90039c11-62.49994-30.8009-113.19922-93.3008-113.19922h-249.6992zm-530.4004 0.5c-62.4999 0-122.1992 50.69928-133.1992 113.19922l-43.3008 244.5c-0.1 0.4-0.2008 0.69961-0.3008 1.09961l-18.1992 101.90039c-11.1 62.5999 30.7008 113.4004 93.3008 113.4004h250.1992c62.5999 0 122.3008-50.8005 133.3008-113.4004l17.6992-101.90039c10.8-62.49994-31.0001-113.19922-93.5-113.19922h-249.6992c-10.6 0-21.0012 1.89922-31.2012 4.69922l18.7012-105.79883c6.1-34.29996 38.7996-62.10156 73.0996-62.10156h187.2988c34.3 0 57.2012 27.8016 51.2012 62.10156l-8.5 48.29883h82.0996l14-79.59961c11-62.49994-30.8008-113.19922-93.3008-113.19922h-249.6992zm1061 0c-62.4999 0-122.1992 50.69928-133.1992 113.19922l-61.5 347.5c-11.1 62.5999 30.6989 113.3008 93.2988 113.3008h250.2012c62.5999 0 122.2988-50.8005 133.2988-113.40041l61-347.5c10.9-62.39994-30.9004-113.09961-93.4004-113.09961h-249.6992zm530.5996 0c-62.4999 0-122.1992 50.69928-133.1992 113.19922l-61.5 347.5c-11.1 62.5999 30.6989 113.3008 93.2988 113.3008h250.2012c62.5999 0 122.2988-50.8005 133.2988-113.40041l61-347.5c10.9-62.39994-30.8985-113.09961-93.3984-113.09961h-249.7012zm530.5996 0c-62.4999 0-122.1992 50.69928-133.1992 113.19922l-61.5 347.5c-11.1 62.5999 30.7008 113.3008 93.3008 113.3008h250.1992c62.5999 0 122.3008-50.8005 133.3008-113.40041l61-347.5c10.9-62.39994-30.8005-113.09961-93.4004-113.09961h-249.7012zm-3242.99998 16.79883h389.60156l312 540.49999h-389.60156l-312-540.49999zm566.60156 0h254.50002l-161.40041 161.40039-93.09961-161.40039zm1101.59962 65h187.2988c34.3 0 57.2012 27.79964 51.2012 62.09961l-6.9004 39c-6 34.29996-38.7996 62.10156-73.0996 62.10156h-187.3008c-34.3 0-57.1992-27.8016-51.1992-62.10156l6.9004-39c6-34.29997 38.7996-62.09961 73.0996-62.09961zm530.5996 0.59961h187.3008c34.2999 0 57.1992 27.8016 51.1992 62.10156l-50.1992 284.59961c-6.1 34.29997-38.8016 62.09961-73.1016 62.09961h-187.2988c-34.3 0-57.2012-27.79964-51.2012-62.09961l50.2012-284.59961c6-34.29996 38.7996-62.10156 73.0996-62.10156zm530.5996 0h187.3008c34.3 0 57.1992 27.8016 51.1992 62.10156l-50.1992 284.59961c-6.1 34.29997-38.7997 62.09961-73.0996 62.09961h-187.3008c-34.3 0-57.1992-27.79964-51.1992-62.09961l50.1992-284.59961c6-34.29996 38.7996-62.10156 73.0996-62.10156zm530.5996 0h187.3008c34.3 0 57.1992 27.8016 51.1992 62.10156l-50.1992 284.59961c-6.1 34.29997-38.7996 62.09961-73.0996 62.09961h-187.3008c-34.3 0-57.1992-27.79964-51.1992-62.09961l50.1992-284.59961c6-34.29996 38.7997-62.10156 73.0996-62.10156zm-3206.39842 224-305.80078 305.80078h482.40039l-176.59961-305.80078zm1040.59962 21.5h187.2988c34.3 0 57.2012 27.8016 51.2012 62.10156l-7 39.09961c-6 34.29997-38.7997 62.09961-73.0996 62.09961h-187.3008c-29.5 0-49.3008-20.99964-50.8008-48.59961l0.3008-0.30078c-0.2-4.4-1.2008-8.59883-0.3008-13.29883l7.1016-40.30078c6.7-33.69997 38.6996-60.80078 72.5996-60.80078zm530.5996 0.10156h187.3008c34.2999 0 57.1992 27.79964 51.1992 62.09961l-6.9004 39c-6 34.29997-38.7996 62.09961-73.0996 62.09961h-187.3008c-34.2999 0-57.1992-27.79964-51.1992-62.09961l6.9004-39c6-34.29997 38.7996-62.09961 73.0996-62.09961zm-1583 67.89844 93.09961 161.40038h-254.40039l161.30078-161.40038z"/>
</svg>
