<svg height="70.468" width="343.64" xmlns="http://www.w3.org/2000/svg"><g fill="#fff"><g stroke="#fff"><path d="M273.134 70.468h28.176L343.64 0h-28.166z" stroke-width=".819"/><path d="M110.587 19.225v38.398h23.039c7.167-1.176 11.266-5.19 12.825-11.52.014-5.124.002-10.235 0-15.359-1.56-6.329-5.658-10.344-12.825-11.52zm9.01 7.705h10.215c3.208.569 6.252 1.575 7.705 6.4l-.026 10.24c-1.466 4.817-4.497 5.83-7.705 6.399h-10.214l.026-23.039zM11.992 57.631V28.202H.466l-.004-8.958h35.863l-3.845 8.958-8.965.004V57.63zM40.165 19.25l-14.08 38.373H37.63l4.454-14.054 4.48 6.4h7.68l2.56 7.654h11.622L54.244 19.25zm6.988 10.214 4.531 11.545h-8.96zm22.441 28.167V19.244h14.11l14.085 28.164V19.244h8.964l-.007 38.387H92.663l-14.087-28.14-.004 28.14z" stroke-width=".909"/><path d="m156.682 39.74-15.356-20.496h11.517l8.352 12.777 8.31-12.777h12.783l-15.403 20.432.028 17.955h-10.221l-.01-17.891z" stroke-width=".909"/></g><path d="M236.145 70.468h28.176L306.651 0h-28.166z"/><path d="M199.156 70.468h28.176L269.662 0h-28.166z" stroke="#fff" stroke-width=".819"/></g></svg>