<svg width="343.64014" height="70.467651" enable-background="new 0 0 566.929 87.964" version="1.1" viewBox="0 0 343.64012 70.467654" xml:space="preserve" xmlns="http://www.w3.org/2000/svg">
<path d="m273.13395 70.467646h28.176l42.33018-70.467643h-28.16645z" fill="#498cc1"/><path d="m110.58789 19.224609v38.398438h23.03711c7.16715-1.175528 11.26706-5.190666 12.82617-11.519531 0.0143-5.124107 2e-3 -10.235246 0-15.359375-1.55911-6.328866-5.65902-10.344003-12.82617-11.519532h-23.03711zm-110.1249994 0.019532 0.00195313 8.957031h11.52734425v29.429687h11.523437v-29.425781l8.964844-0.003906 3.84375-8.957031h-35.86132838zm69.13085938 0v38.386718h8.978516l0.003906-28.138671 14.085937 28.138671h14.083981l0.00782-38.386718h-8.964848v28.164062l-14.085937-28.164062h-14.109375zm71.73242 0 15.35547 20.496093 0.00977 17.890625h10.2207l-0.02734-17.955078 15.40234-20.43164h-12.78125l-8.31055 12.777343-8.35156-12.777343h-11.51758zm-101.162108 0.005859-14.078124 38.373047h11.544921l4.453125-14.054688 4.480469 6.400391h7.679688l2.560547 7.654297h11.621093l-14.18164-38.373047h-14.080079zm79.433598 7.679688h10.21484c3.20793 0.569016 6.25173 1.575589 7.70508 6.40039l-0.02539 10.238281c-1.46597 4.817785-4.49911 5.831376-7.70703 6.400391h-10.21289l0.02539-23.039062zm-72.445316 2.535156 4.53125 11.544922h-8.958985l4.427735-11.544922z" stroke="#000" stroke-width=".909623px"/><path d="m236.14502 70.467646h28.176l42.33018-70.467646h-28.16645z" fill="#197123"/><path d="m199.1561 70.467652h28.17599l42.33019-70.467649h-28.16645z" fill="#ae1f19"/>
</svg>
