<svg version="1.1" viewBox="0 0 343.64 70.468" xmlns="http://www.w3.org/2000/svg">
 <path d="m241.49609 0-42.33984 70.46875h28.17578l42.33008-70.46875h-28.16602zm36.98829 0-42.33985 70.46875h28.17578l42.33008-70.46875h-28.16601zm36.99023 0-42.33984 70.46875h28.17578l42.33007-70.46875h-28.16601zm-204.88672 19.224609v38.398438h23.03906c7.167-1.175999 11.26522-5.189538 12.82422-11.519531 0.014-5.123995 2e-3 -10.23538 0-15.359375-1.56-6.328994-5.65722-10.343533-12.82422-11.519532h-23.03906zm-110.1249994 0.019532 0.00390626 8.957031h11.52539112v29.429687h11.523437v-29.425781l8.964844-0.003906 3.84375-8.957031h-35.86132838zm69.13085938 0v38.386718h8.978516l0.003906-28.140625 14.085937 28.140625h14.083981l0.00782-38.386718h-8.964848v28.164062l-14.085937-28.164062h-14.109375zm71.73242 0 15.35547 20.496093 0.00977 17.890625h10.2207l-0.02734-17.955078 15.40234-20.43164h-12.78125l-8.31055 12.777343-8.35156-12.777343h-11.51758zm-101.162108 0.005859-14.078124 38.373047h11.544921l4.453125-14.054688 4.480469 6.400391h7.679688l2.560547 7.654297h11.621093l-14.18164-38.373047h-14.080079zm79.433598 7.679688h10.21484c3.208 0.568999 6.25208 1.575395 7.70508 6.40039l-0.02735 10.240234c-1.46599 4.816996-4.49708 5.829439-7.70507 6.398438h-10.21289l0.02539-23.039062zm-72.445316 2.535156 4.53125 11.544922h-8.958985l4.427735-11.544922z"/>
</svg>
