<svg enable-background="new 0 0 3840 1088.4" version="1.1" viewBox="0 0 3840 1088.4" xml:space="preserve" xmlns="http://www.w3.org/2000/svg">
<path d="m2772.6992 513.40039c-93.3999 0-169.0996 75.6997-169.0996 169.09961s75.6997 169.09961 169.0996 169.09961c66.8 0 124.6016-38.79967 152.1016-95.09961h-41v0.19922c-23.9 35.79996-64.7016 59.40039-111.1016 59.40039-73.6999 0-133.5-59.80007-133.5-133.5s59.8001-133.5 133.5-133.5c46.3 0 87.1016 23.60043 111.1016 59.40039h41c-27.5-56.29994-85.2016-95.09961-152.1016-95.09961zm-2095.09959 0.09961c-93.39991 0-169.09961 75.6997-169.09961 169.09961s75.6997 169.09961 169.09961 169.09961 169.09961-75.6997 169.09961-169.09961-75.6997-169.09961-169.09961-169.09961zm369.49999 0c-93.3999 0-169.0996 75.6997-169.0996 169.09961s75.6997 169.09961 169.0996 169.09961c91.3999 0 165.8-72.49931 169-163.19922h-35.6992-185.50001v36.30078h178.79881c-17.7 52.99995-67.5996 91.29883-126.5996 91.29883-73.69992 0-133.49999-59.80007-133.49999-133.5s59.80007-133.5 133.49999-133.5c45.9 0 86.3008 23.10043 110.3008 58.40039h41.1992c-27.7-55.69994-85.1001-94-151.5-94zm579.4004 0c-93.3999 0-169.0996 75.6997-169.0996 169.09961s75.6997 169.09961 169.0996 169.09961 169.0996-75.6997 169.0996-169.09961-75.6997-169.09961-169.0996-169.09961zm737.8008 0c-93.3999 0-169.1016 75.6997-169.1016 169.09961s75.7017 169.09961 169.1016 169.09961 169.0996-75.6997 169.0996-169.09961-75.6997-169.09961-169.0996-169.09961zm-2364.3008 9.09961v320h36.300781v-265.5l184.699219 265.5h35.40039v-320h-36.30078v255.20117l-177.59961-255.20117h-42.5zm307.69922 0v36.20117 101.19922 36.19922 110.10156 36.29883h0.70117 35.59961 142.30078v-36.29883h-142.30078v-110.10156h133v-0.29883-35.90039h-133v-101.19922h142.30078v-36.20117h-142.30078-36.30078zm947.49998 0v36.20117 101.19922 36.19922 110.10156 36.29883h0.7012 35.5 142.4004v-36.29883h-142.4004v-110.10156h133v-0.29883-35.90039h-133v-101.19922h142.4004v-36.20117h-142.4004-36.2012zm1739.8008 0v320h36.3008v-91.40039l42.8984-43 134.4004 134.40039h51.3008l-160-160 160-160h-51.3008l-177.2988 177.30078v-177.30078h-36.3008zm335.0996 0v36.20117 101.19922 36.19922 110.10156 36.29883h0.7012 35.5996 142.2988v-36.29883h-142.2988v-110.10156h133v-0.29883-35.90039h-133v-101.19922h142.2988v-36.20117h-142.2988-36.3008zm248.8008 0v36.20117h112.4004v283.79883h36.2988v-283.79883h112.4004v-36.20117h-112.4004-36.2988-112.4004zm-2901.30079 26.5c73.69993 0 133.5 59.80007 133.5 133.5s-59.80007 133.5-133.5 133.5-133.5-59.80007-133.5-133.5 59.80007-133.5 133.5-133.5zm948.90039 0c73.6999 0 133.5 59.80007 133.5 133.5s-59.8001 133.5-133.5 133.5-133.5-59.80007-133.5-133.5 59.8001-133.5 133.5-133.5zm737.8008 0c73.6999 0 133.5 59.80007 133.5 133.5s-59.8001 133.5-133.5 133.5-133.5-59.80007-133.5-133.5 59.8001-133.5 133.5-133.5zm-924.5 357.30078c-55.4 0-91.7012 44.09888-91.7012 90.79883 0 48.79998 38.3005 91.20118 91.9004 91.20118 41 0 75.1008-25.7997 85.8008-62.0996l-37.2012-0.1016c-3.3 6.4-17.4989 31.1016-48.7988 31.1016-33.4 0-56.4004-28.2012-56.4004-60.20119 0-30.99997 22.0992-59.69922 56.1992-59.69922 27.9 0.3 43.6 19.90001 49 32h37.2012c-6.9-25.59997-35.5001-62.7-86-63zm272.3984 0c-48.7999 0-91.8984 36.20045-91.8984 92.40039v0.29883c0 46.89999 37.8993 89.30079 91.6992 89.30079 53.4999 0 92.4004-41.2001 92.4004-91.00001 0-49.79995-39.1012-91-92.2012-91zm468.1016 0c-48.8 0-91.9004 36.20045-91.9004 92.40039v0.29883c0 46.89999 37.8993 89.30079 91.6992 89.30079 53.5 0 92.4004-41.2001 92.4004-91.00001 0-49.79995-39.0993-91-92.1992-91zm-271.6016 3.29883v175.30078h92.9004v-31h-57.5996v-144.30078h-35.3008zm458.2012 0v178.60158h35.5996v-67.5l49.5996 67.5h39.7012l-51.6016-68.5c9.3-2.1 13.6004-3.3016 17.9004-5.1016 2.3-1 8.4012-3.6988 14.2012-8.7988 5.4-4.8 7.5984-8.6004 9.3984-11.4004 6.6-10.89999 7.1016-22.79961 7.1016-27.09961 0-4.79999-0.7008-18.69962-8.8008-31.09961-2.8-4.29999-6.5996-8.60039-10.5996-11.90039-15.7-13.19999-33.1008-14.20117-52.8008-14.70117h-49.6992zm-654.4004 27.70117c35.8 0 56.5996 30.79925 56.5996 60.19922 0 28.89999-20.8004 59.70119-56.4004 59.70119-34.0999 0-57.0996-27.9004-57.0996-59.90041v-0.30078c0-30.79997 21.8004-59.69922 56.9004-59.69922zm468.0996 0c35.7 0 56.5996 30.79925 56.5996 60.19922 0 28.89999-20.7985 59.70119-56.3984 59.70119-34.1 0-57.1016-27.9004-57.1016-59.90041v-0.30078c0-30.79997 21.8004-59.69922 56.9004-59.69922zm222.2012 1.90039h16.8984c12.1 0.3 24.3016 1.29845 32.1016 11.89844 4.6 6.29999 4.7988 13.10039 4.7988 15.90039 0 8.59999-3.5996 13.90039-5.5996 16.40039-8.4 10.09999-21.0008 10.59961-24.8008 10.59961-2 0.3-3.7988 0.30078-5.7988 0.30078h-17.7012l0.1016-55.09961z"/><polygon fill="#11A73B" points="2188.7 224.4 2149.7 200 2228.8 46.7 2291.9 86.2"/><polygon fill="#00A0E9" points="2249.7 293.3 2221.9 256.5 2350.5 141.6 2395.4 201"/><path fill="#E60019" d="m2081.5 0-23.0996 170.90039 45 9.90039 50.7988-164.80078-72.6992-16zm-64.2227 252.31641c-26.7166 0.38866-53.768 6.6422-79.2773 19.38281l-133 66.60156-50.5996 25.29883-10 5 243.2988 486.20117 60.6016-30.30078-213-425.59961 133.0996-66.59961c56.9999-28.59997 126.4996-5.30111 155.0996 51.79883 28.6 56.99994 5.4003 126.40003-51.5996 155 0 0-9.5008 4.3-14.3008 6l-78.1992-67.40039 15.0996-47.79883 84.6992-0.90039-0.6992-67.69922-133.8008 1.5-43.3984 137.19922 3 2.59961 147 127c14-6.99999 57.3984-32.90039 57.3984-32.90039 85.8999-47.29995 119.8-154.39892 75.5-242.79883-32.5593-65.26243-98.646-102.57725-166.9219-101.58398z"/>
</svg>
