<svg version="1.1" viewBox="-54.3 345.6 400 87.302905" xmlns="http://www.w3.org/2000/svg"><path d="m-10.647656 345.6c-24.149329 0-43.652344 19.58601-43.652344 43.65234 0 24.14934 19.586002 43.65039 43.652344 43.65039 4.6472932 0 9.1279741-0.74643 13.2773435-2.07421v-21.82618c-3.6514449 2.07468-7.8839156 3.32032-12.3652344 3.32032-13.2779821 0-23.9843751-10.37325-23.9843751-23.07032 0-12.69706 10.789381-23.07226 23.9843751-23.07226 4.5643063 0 8.79677674 1.24562 12.3652344 3.32031v-21.82617c-4.1493694-1.3278-8.6300503-2.07422-13.2773435-2.07422zm77.675781 2.49023c-4.564301 0-9.128769 0.82854-12.53125 2.48829-6.72197 3.23648-10.207698 10.70709-8.962891 18.83984 0.6639 4.14938 1.742761 6.4723 4.066407 9.04492 2.323642 2.57261 5.145432 4.23267 8.796875 5.22852 2.240655 0.6639 3.733609 0.83008 8.546875 0.83008 3.651441 0 6.639995-0.58212 8.050781-0.91407l-0.664063-7.38476-2.240234 0.58008c-4.813263 1.24479-10.207769 0.41537-13.195312-2.07422-4.896254-3.98341-4.896292-13.52628-0.166016-17.17774 1.991695-1.57676 5.061326-2.4082 8.214844-2.4082 1.576758 0 3.15371 0.16709 4.730468 0.58203 1.659748 0.41493 2.240235 0.58008 2.240235 0.58008l0.748047-7.30274c-2.323646-0.41494-4.813198-0.91211-7.634766-0.91211zm181.992185 0.24805v13.85938h-0.08398c-1.07883-1.41079-2.32359-2.32339-3.73438-2.9043-1.41078-0.58091-2.98673-0.83008-4.64648-0.83008-3.40249 0.16597-5.97601 1.41076-7.71875 3.90039s-2.65625 5.31032-2.65625 8.38086c0 3.73444 0.99657 6.80532 2.82226 9.29492 1.90872 2.48963 4.64741 3.81741 8.29883 3.90039 1.9917 0 3.73474-0.49729 5.22852-1.41015 1.49377-0.91287 2.57143-2.07554 3.15234-3.48633h0.08399v4.39844h7.80078l-0.08203-35.10352h-8.46485zm75.51758 10.125c-3.90041 0-6.97031 1.16068-9.37695 3.31836-2.40664 2.24066-3.65235 5.31252-3.65235 9.37891 0.083 4.06636 1.41081 7.21928 4.06641 9.37695 2.6556 2.24067 5.97562 3.31936 10.125 3.40234 1.57676 0 3.15274-0.08308 4.64648-0.33203 1.49378-0.24896 2.9886-0.66419 4.31641-1.16211v-5.97461c-1.24482 0.66391-2.57355 1.1612-3.81836 1.41016-1.24482 0.33195-2.48857 0.41602-3.65039 0.41602-2.07469 0-3.73565-0.33124-4.98047-1.07813-1.24481-0.74689-1.99127-1.91056-2.24023-3.57031l16.84765 0.08398v-1.57617c0.083-3.73444-0.9145-6.9723-2.74023-9.54492-1.90871-2.6556-5.06164-3.98247-9.54297-4.14844zm-233.941406 0.08203c-4.149363 0-7.469404 1.16264-10.125 3.32032-2.655592 2.15764-3.983418 5.39457-4.066406 9.46093 0.08299 4.06639 1.410814 7.21928 4.066406 9.37696 2.655596 2.15765 5.975637 3.32031 10.125 3.32031 4.149365 0 7.469413-1.16266 10.124996-3.32031 2.6556-2.24066 3.98342-5.31057 4.06641-9.37696-0.083-4.06636-1.41081-7.2203-4.06641-9.46093-2.655583-2.24067-5.975631-3.32032-10.124996-3.32032zm34.357426 0c-1.90871 0-3.73475 0.41622-5.22852 1.2461-1.57677 0.82987-2.73947 2.07367-3.65234 3.8164h-0.08203v-4.48047h-7.71875l-0.08204 24.31446h8.46485v-10.28907c0-2.57258 0.41426-4.56572 1.24414-5.81054 0.82988-1.24481 1.99255-1.82422 3.48633-1.82422 1.16182 0 2.07434 0.49729 2.57226 1.41016 0.49793 0.91283 0.83008 2.07359 0.83008 3.48437v13.11328h8.46484v-10.29101c0-2.57261 0.41429-4.56379 1.24414-5.8086 0.82988-1.24481 1.9906-1.82617 3.48438-1.82617 1.16182 0 2.0763 0.4973 2.57422 1.41016 0.49793 0.91287 0.83008 2.07556 0.83008 3.48632v13.11133h8.46289v-14.35547c0.083-3.31947-0.49639-5.89207-1.65821-7.80078-1.1618-1.82573-3.48522-2.82226-6.9707-2.82226-1.74274 0-3.40271 0.33123-4.89648 1.07812-1.49378 0.74689-2.73853 1.90861-3.73438 3.56836-0.6639-1.57676-1.66047-2.73849-2.98828-3.56836-1.3278-0.74689-2.90377-1.16211-4.64648-1.16211zm46.22265 0c-1.9917 0-3.73473 0.41622-5.22851 1.2461-1.57676 0.82987-2.73753 2.07367-3.65039 3.8164h-0.08399v-4.48047h-7.7168l-0.08398 24.31446h8.46484v-10.28907c0-2.57258 0.41622-4.56572 1.2461-5.81054 0.82987-1.24481 1.9906-1.82422 3.48437-1.82422 1.16183 0 2.07434 0.49729 2.57227 1.41016 0.49792 0.91283 0.83008 2.07359 0.83008 3.48437v13.11328h8.46484v-10.29101c0-2.57261 0.41624-4.56379 1.24609-5.8086 0.82987-1.24481 1.99061-1.82617 3.48438-1.82617 1.16183 0 2.07436 0.4973 2.57226 1.41016 0.49792 0.91287 0.83008 2.07556 0.83008 3.48632v13.11133h8.46485v-14.35547c0.083-3.31947-0.49833-5.89207-1.66016-7.80078-1.16182-1.82573-3.48525-2.82226-6.9707-2.82226-1.74274 0-3.40271 0.33123-4.89649 1.07812-1.49377 0.74689-2.73852 1.90861-3.73437 3.56836-0.6639-1.57676-1.65853-2.73849-2.98633-3.56836-1.3278-0.74689-2.9057-1.16211-4.64844-1.16211zm42.40821 0c-4.14938 0-7.46943 1.16264-10.125 3.32032-2.65561 2.15764-3.98343 5.39457-4.06641 9.46093 0.083 4.06639 1.4108 7.21928 4.06641 9.37696 2.65557 2.15765 6.05861 3.32031 10.125 3.32031 4.14935 0 7.46747-1.16266 10.12304-3.32031 2.6556-2.24066 3.98342-5.31057 4.06641-9.37696-0.083-4.06636-1.41081-7.2203-4.06641-9.46093-2.65557-2.24067-5.97369-3.32032-10.12304-3.32032zm61.24414 0c-4.14938 0-7.46943 1.16264-10.125 3.32032-2.6556 2.24063-3.98342 5.39457-4.06641 9.46093 0.083 4.06639 1.41081 7.21928 4.06641 9.37696 2.65557 2.15765 6.05861 3.32031 10.125 3.32031 4.14935 0 7.4694-1.16266 10.125-3.32031 2.65557-2.24066 3.98341-5.31057 4.0664-9.37696-0.083-4.06636-1.41083-7.2203-4.0664-9.46093-2.6556-2.24067-5.97565-3.32032-10.125-3.32032zm32.61328 0c-1.82573 0-3.3196 0.49925-4.39844 1.41211-1.16183 0.91286-2.07342 2.15662-2.82031 3.65039h-0.08399v-4.48047h-7.71679v24.39844h8.46484v-10.29101c0-2.40664 0.49733-4.31478 1.57617-5.64258 1.07883-1.3278 2.57278-1.99219 4.56445-1.99219h1.41016c0.49792 0 0.91223 0.08209 1.41016 0.24805l0.49804-7.05274c-0.41493-0.083-0.91222-0.16601-1.41015-0.16601-0.49792-0.083-0.99622-0.08399-1.49414-0.08399zm17.01367 5.3125c1.65975 0 2.90446 0.49829 3.56836 1.49414 0.74689 0.99585 1.07812 2.15757 1.07812 3.56836h-9.29492c0.083-1.41079 0.49921-2.65549 1.2461-3.56836 0.74686-0.99585 1.90856-1.49414 3.40234-1.49414zm-233.859376 0.49805c1.908707 0.083 3.319562 0.74642 4.232422 2.07422s1.327129 2.90379 1.244141 4.8125c0 1.82573-0.414269 3.48665-1.244141 4.81445-0.91286 1.3278-2.323715 1.99123-4.232422 2.07422-1.908708-0.083-3.319561-0.74642-4.232421-2.07422-0.912863-1.3278-1.327128-2.90574-1.244141-4.81445 0-1.90871 0.414266-3.4847 1.244141-4.8125 0.829873-1.3278 2.240725-1.99123 4.232421-2.07422zm122.988286 0c1.90868 0.083 3.31763 0.74642 4.23046 2.07422 0.91287 1.3278 1.32813 2.90379 1.32813 4.8125 0 1.82573-0.41526 3.48665-1.32813 4.81445-0.91283 1.3278-2.23879 1.99123-4.23046 2.07422-1.90872-0.083-3.31956-0.74642-4.23243-2.07422-0.91286-1.3278-1.32908-2.90574-1.24609-4.81445 0-1.90871 0.41622-3.4847 1.24609-4.8125 0.82988-1.3278 2.24073-1.99123 4.23243-2.07422zm61.24414 0c1.90868 0.083 3.31955 0.74642 4.23242 2.07422 0.82987 1.3278 1.32713 2.90379 1.24414 4.8125 0 1.82573-0.41427 3.48665-1.24414 4.81445-0.82988 1.3278-2.24075 1.99123-4.23242 2.07422-1.90871-0.083-3.31957-0.74642-4.23243-2.07422-0.82985-1.3278-1.32713-2.90574-1.24414-4.81445 0-1.90871 0.41429-3.4847 1.24414-4.8125 0.82987-1.3278 2.24073-1.99123 4.23243-2.07422zm-30.95508 0.58008c1.57677 0 2.82151 0.66435 3.73437 1.82617 0.91287 1.16183 1.41211 2.65573 1.41211 4.56445 0 1.82572-0.58128 3.31865-1.49414 4.48047-0.99585 1.16183-2.15856 1.74414-3.65234 1.74414-1.57676 0-2.82151-0.66435-3.73438-1.82617-0.91286-1.16183-1.41015-2.73877-1.41015-4.73047 0-1.65975 0.41525-3.07059 1.32812-4.23242 0.91286-1.16182 2.15666-1.74319 3.81641-1.82617zm-240.83008 7.71875v15.18554h17.925781l14.605469-15.18554h-32.53125zm36.431641 15.26953v2.48828h306.224609v-2.48828h-306.224609zm240.748049 5.0625c-4.23236 0-7.63633 1.74204-10.04297 5.14453-2.6556 3.73444-3.40234 8.63-3.40235 13.11133 0 4.56429 0.74675 9.37788 3.40235 13.19531 2.40664 3.40249 5.81061 5.22852 10.04297 5.22852 4.14936 0 7.55039-1.74206 9.95703-5.14453 2.6556-3.73444 3.4043-8.46596 3.4043-12.94727 0.083-4.48133-0.66472-9.5439-3.32032-13.36133-2.40662-3.48547-5.80866-5.22656-10.04101-5.22656zm30.37304 0c-4.23235 0-7.63437 1.74204-10.04101 5.14453-2.6556 3.73444-3.40234 8.63-3.40235 13.11133 0 4.56429 0.74675 9.37788 3.40235 13.19531 2.40664 3.40249 5.80866 5.22852 10.04101 5.22852 4.14937 0 7.55235-1.74206 9.95899-5.14453 2.6556-3.73444 3.40234-8.46596 3.40234-12.94727 0-4.48133-0.66471-9.5439-3.32031-13.36133-2.40664-3.48547-5.80866-5.22656-10.04102-5.22656zm-61.66015 0.16601-0.66406 0.66211c-1.3278 1.3278-2.48853 2.98769-3.48438 4.56446-1.3278 1.99168-2.5735 4.15092-3.65234 6.30859-1.74273 3.56847-3.98234 8.8799-3.65039 12.86328 0.24897 6.63901 5.47625 11.94831 12.11523 12.19727 1.65976 0.083 3.40175-0.16423 4.97852-0.82813 1.49375-0.58092 2.90557-1.41239 4.15039-2.57422 2.40661-2.24064 3.90042-5.31036 4.0664-8.54687 0-0.33195 0.08203-0.66314 0.08203-0.91211 0.24897-1.74274-0.16621-3.56976-0.99609-5.3125-0.6639-1.41079-1.65849-2.65554-2.82031-3.73438-1.41079-1.24479-3.07076-2.23939-4.89649-2.82031-1.07884-0.33195-2.24051-0.58203-3.40234-0.58203h-0.16602c0.41493-0.74689 0.82922-1.4943 1.24414-2.1582 0.58091-0.99585 1.2453-1.99048 1.99219-2.98633 0.58091-0.74689 1.07829-1.57635 1.74219-2.24023l2.1582-2.49024-8.79687-1.41016zm31.28711 0.7461c1.43849 0 2.7378 0.28969 3.96484 0.72265 0.06486 0.02265 0.12911 0.04646 0.19336 0.07032 0.7069 0.26524 1.37526 0.60346 2.00586 1.01758 0.15132 0.09858 0.30043 0.20141 0.44727 0.30859 0.52129 0.38343 1.01343 0.81958 1.47656 1.3125 0.21269 0.22478 0.41895 0.4611 0.61914 0.70898 0.18931 0.23606 0.41 0.41493 0.58789 0.67188 0.123 0.17458 0.19027 0.38082 0.30469 0.56055 0.26709 0.4286 0.5003 0.87695 0.72265 1.33203 1.66794 3.34225 2.20899 7.28218 2.20899 10.9707-0.02429 1.2629-0.12603 2.54193-0.28321 3.81641-0.34151 3.09015-1.19427 6.15864-3.03711 8.71484-2.24064 3.15353-5.31053 4.73047-9.21093 4.73047-3.81743 0-6.97224-1.65899-9.21289-4.8125-0.63416-0.9301-1.15368-1.9254-1.57813-2.96289-0.01794-0.04282-0.02928-0.0879-0.04687-0.13086-0.37488-0.93695-0.67677-1.9059-0.90821-2.89453-0.03826-0.16372-0.06698-0.32754-0.10156-0.49219-0.19944-0.94378-0.35049-1.89998-0.44531-2.85742-3.9e-4 -0.0039 3.8e-4 -0.00783 0-0.01172-0.00883-0.09244-0.01351-0.18296-0.02149-0.27539-0.0896-1.00365-0.13476-2.00548-0.13476-2.99024 0-0.01878 0.00193-0.03784 0.00195-0.05664 0-0.00837-0.00195-0.01702-0.00195-0.02539 0-0.01927 0.00192-0.0393 0.00195-0.05859 0.01364-4.2274 0.65446-8.66684 3.01758-12.15234 0.08247-0.12945 0.13015-0.27721 0.2168-0.4043 0.15285-0.21513 0.34262-0.3672 0.5039-0.56836 0.31339-0.39828 0.64169-0.76726 0.98438-1.10742 0.23884-0.23395 0.48113-0.45801 0.73437-0.66602 0.45401-0.37528 0.92988-0.70867 1.42969-0.99414 0.29335-0.16964 0.59811-0.31315 0.90625-0.45312 0.37287-0.16499 0.75653-0.30919 1.15234-0.42969 0.63778-0.20341 1.30428-0.3375 1.99414-0.42383 0.05205-0.00595 0.10387-0.01227 0.15625-0.01758 0.45101-0.05035 0.87985-0.15234 1.35157-0.15234zm30.28906 0c1.43849 0 2.7378 0.28969 3.96484 0.72265 0.06486 0.02265 0.12912 0.04646 0.19336 0.07032 0.7069 0.26524 1.37526 0.60346 2.00586 1.01758 0.15132 0.09858 0.30043 0.20141 0.44727 0.30859 0.52129 0.38343 1.01344 0.81958 1.47656 1.3125 0.21269 0.22478 0.41896 0.4611 0.61914 0.70898 0.18932 0.23606 0.41001 0.41493 0.58789 0.67188 0.10329 0.1466 0.15864 0.32045 0.25586 0.4707 0.3895 0.59503 0.71647 1.22567 1.01563 1.8711 0.19508 0.42509 0.37712 0.85105 0.53711 1.29296 0.22029 0.6039 0.40884 1.2207 0.56835 1.84961 0.14183 0.55827 0.25894 1.11574 0.35938 1.68555 0.07084 0.40883 0.13649 0.81758 0.1875 1.23047 0.19278 1.49713 0.3125 2.99958 0.3125 4.46289 0 1.52102-0.14432 3.06325-0.37695 4.5918-0.04922 0.3512-0.1094 0.7-0.17383 1.04882-0.07543 0.38165-0.13904 0.76248-0.23438 1.13868-0.49159 2.05019-1.2841 4.01933-2.5332 5.75195-2.24067 3.15353-5.31248 4.73047-9.21289 4.73047-3.81743 0-6.97028-1.65899-9.21094-4.8125-0.63416-0.9301-1.15367-1.9254-1.57812-2.96289-0.01795-0.04282-0.02929-0.0879-0.04688-0.13086-0.37488-0.93695-0.67676-1.9059-0.9082-2.89453-0.03827-0.16372-0.06699-0.32754-0.10156-0.49219-0.19944-0.94378-0.3505-1.89998-0.44532-2.85742-3.8e-4 -0.0039 3.9e-4 -0.00783 0-0.01172-0.00883-0.09244-0.0135-0.18296-0.02148-0.27539-0.08961-1.00365-0.13477-2.00548-0.13477-2.99024 0-0.01878 0.00193-0.03784 0.00196-0.05664-1e-5 -0.00837-0.00196-0.01702-0.00196-0.02539 0-0.01927 0.00193-0.0393 0.00196-0.05859 0.01364-4.2274 0.65447-8.66684 3.01758-12.15234 0.08247-0.12945 0.13014-0.27721 0.21679-0.4043 0.15285-0.21513 0.34265-0.3672 0.50391-0.56836 0.31335-0.39828 0.64177-0.76726 0.98437-1.10742 0.23953-0.23467 0.48234-0.4594 0.73633-0.66797 0.4524-0.37387 0.92597-0.70557 1.42383-0.99024 0.29604-0.17136 0.60294-0.31786 0.91406-0.45898 0.36885-0.16298 0.74932-0.30437 1.14063-0.42383 0.63941-0.20439 1.30809-0.33918 2-0.42578 0.05204-0.00595 0.10387-0.01227 0.15625-0.01758 0.45095-0.05035 0.87984-0.15234 1.35156-0.15234zm-61.07813 0.24805 0.14258 0.02343 0.02344-0.02343 6.55664 1.08007-1.08008 1.16211c-0.6639 0.74689-1.24331 1.57538-1.82422 2.32227-0.66388 0.99585-1.32828 1.99147-1.99218 3.07031-0.74689 1.16182-1.41127 2.40755-1.99219 3.65234h1.49414c0.05533 0.00718 0.11069-0.00922 0.16602 0 1.07881 0.083 2.15649 0.24813 3.15234 0.58008 0.31993 0.09598 0.61515 0.27467 0.92773 0.40039 0.08784 0.03674 0.17463 0.07434 0.26172 0.11328 1.21105 0.52209 2.37539 1.18588 3.375 2.06055 1.07884 0.99585 1.91032 2.15753 2.57422 3.40235 0.74689 1.49375 1.07713 3.23673 0.99414 4.89648-0.16597 0.33195-0.16601 0.66314-0.16601 0.91211-0.16598 3.07053-1.49372 5.89211-3.73438 7.9668-1.07884 0.99583-2.40562 1.82629-3.81641 2.32421-0.27921 0.10859-0.56203 0.14708-0.84179 0.23243-0.2933 0.096-0.59125 0.17696-0.89453 0.24609-0.2609 0.05623-0.52387 0.1219-0.78711 0.1582-0.6706 0.09975-1.35453 0.13537-2.04102 0.10938-0.05546-0.0021-0.11054 0.00292-0.16601 0-6.14108-0.24896-11.03715-5.22809-11.20313-11.36914-0.33195-3.73444 1.9086-9.04574 3.56836-12.36524 1.07883-2.15766 2.24056-4.23291 3.56836-6.22461 0.99585-1.49375 2.15753-3.07065 3.40234-4.39843l0.33203-0.33203zm30.78907 0.74804c-0.89212 0-1.73835 0.09386-2.53711 0.2793-0.79877 0.18543-1.55045 0.46181-2.25586 0.83008s-1.36452 0.82845-1.97656 1.37695c-0.61205 0.5485-1.17664 1.18597-1.69532 1.91211-0.49997 0.69996-0.93083 1.47045-1.30664 2.29687-0.02757 0.06101-0.05511 0.1219-0.08203 0.1836-0.34083 0.77676-0.62173 1.61389-0.85742 2.50195-0.03326 0.12542-0.0684 0.2494-0.09961 0.37695-0.22153 0.90604-0.39367 1.86672-0.51172 2.88672-0.00955 0.08146-0.02236 0.16007-0.03125 0.24219-0.11907 1.11546-0.18164 2.29312-0.18164 3.54492 0 1.25181 0.06257 2.42946 0.18164 3.54492 0.00889 0.08213 0.0217 0.16074 0.03125 0.24219 0.11805 1.02 0.29019 1.98068 0.51172 2.88672 0.03121 0.12756 0.06635 0.25154 0.09961 0.37695 0.23569 0.88807 0.51659 1.7252 0.85742 2.50196 0.02692 0.0617 0.05446 0.12259 0.08203 0.18359 0.37581 0.82643 0.80667 1.59692 1.30664 2.29688 0.51868 0.72613 1.08327 1.3636 1.69532 1.91211 0.61204 0.5485 1.27115 1.00868 1.97656 1.37695s1.45709 0.64464 2.25586 0.83008c0.79876 0.18543 1.64499 0.27929 2.53711 0.27929 0.89211 0 1.73834-0.08788 2.53711-0.26562 0.79876-0.17775 1.55045-0.44472 2.25586-0.80274 0.7054-0.35801 1.36452-0.80684 1.97656-1.34765 0.61204-0.54082 1.17664-1.17426 1.69531-1.90039 0.45612-0.63857 0.83871-1.34544 1.19141-2.08203 0.11847-0.25207 0.22862-0.51423 0.33593-0.7793 0.20886-0.50652 0.38765-1.04312 0.55274-1.59375 0.15456-0.52455 0.29057-1.0684 0.40625-1.63477 0.06925-0.33127 0.12771-0.67397 0.18359-1.01953 0.22845-1.46344 0.34451-3.04378 0.31641-4.75781 0-3.22552-0.38095-6.03732-1.13867-8.40234-0.0247-0.07435-0.04873-0.14921-0.07422-0.22266-0.21909-0.65477-0.4772-1.26453-0.75586-1.84766-0.31398-0.63188-0.62809-1.2633-1.01758-1.80859-0.49792-0.72614-1.04677-1.36361-1.64844-1.91211s-1.25553-1.00868-1.96093-1.37695c-0.70541-0.36827-1.4643-0.64465-2.27344-0.83008-0.80914-0.18544-1.66917-0.2793-2.58203-0.2793zm30.3457 0.00391c-3.55478 0.00805-6.36843 1.49783-8.4375 4.39453-2.07469 2.90457-3.07031 6.88799-3.07031 12.0332 0 5.14522 0.99562 9.12865 3.07031 12.03321 2.06911 2.89676 4.88261 4.38849 8.4375 4.39648 0.03671-1.6e-4 0.07088-0.0054 0.10742-0.00586 0.7776-0.00487 1.51254-0.09168 2.21875-0.23242 0.2017-0.04175 0.39597-0.09738 0.5918-0.15039 0.48959-0.1285 0.955-0.30321 1.4082-0.50195 0.35965-0.16121 0.70838-0.34462 1.04492-0.55079 0.25786-0.1551 0.5056-0.33029 0.75-0.51171 0.47624-0.35942 0.93077-0.76157 1.35547-1.22266 0.07741-0.08282 0.15281-0.16968 0.22852-0.25586 0.242-0.27945 0.47862-0.5685 0.70312-0.88281 0.24444-0.33243 0.47105-0.68428 0.68555-1.04883 0.02944-0.05013 0.05705-0.10169 0.08594-0.15234 1.54643-2.71184 2.28867-6.28215 2.21679-10.66602 0-5.22822-0.99658-9.37668-2.98828-12.28125-0.21533-0.31403-0.44494-0.60382-0.67968-0.88477-0.07399-0.0873-0.14677-0.17572-0.22266-0.25976-0.41389-0.46496-0.86083-0.87209-1.33203-1.23828-0.24047-0.18389-0.48499-0.36133-0.74024-0.51953-0.33293-0.21005-0.6788-0.39879-1.03711-0.56446-0.46066-0.20853-0.9372-0.39017-1.43945-0.52539-0.1937-0.05373-0.386-0.10966-0.58594-0.15234-0.7178-0.14768-1.46613-0.24102-2.26367-0.2461-0.03657-4.6e-4 -0.07068-0.00374-0.10742-0.0039zm-60.80273 0.24414c-3.26705 3.41225-9.13838 13.23944-10.16797 19.75781-1.9e-4 0.00116 1.8e-4 0.00275 0 0.00391-0.14687 0.93119-0.19566 1.79486-0.12305 2.5625 0.14523 4.93774 3.59501 9.1127 8.29102 10.24609 0.67085 0.16191 1.36626 0.26185 2.08203 0.29297 0.72155 0.03007 1.42718-0.01675 2.11328-0.12109 0.05164-8e-3 0.1029-0.01666 0.1543-0.02539 0.60988-0.10183 1.19841-0.26364 1.76953-0.46289 0.14306-0.05054 0.28355-0.10577 0.42382-0.16211 0.45244-0.17976 0.88449-0.39589 1.30469-0.63282 0.23791-0.13519 0.46892-0.27931 0.69531-0.43164 0.31773-0.21261 0.62315-0.44098 0.91602-0.68554 0.2455-0.20564 0.48048-0.42212 0.70703-0.64844 0.26062-0.26028 0.50689-0.53413 0.74024-0.82031 0.18799-0.23001 0.36794-0.46578 0.53711-0.71094 0.24828-0.36173 0.47932-0.73629 0.68359-1.12891 0.09502-0.18102 0.18644-0.36392 0.27148-0.55078 0.23154-0.51444 0.43248-1.04614 0.58399-1.60156 0.02136-0.07707 0.04474-0.15272 0.06445-0.23047 0.16696-0.6696 0.28249-1.36218 0.32227-2.07813 0-0.24896 0.08398-0.57915 0.08398-0.82812 0.02075-0.74689-0.04087-1.47887-0.17969-2.18555s-0.35525-1.38878-0.64062-2.03711-0.63969-1.26215-1.0586-1.83398c-0.4189-0.57183-0.90198-1.10095-1.4414-1.57813-0.51862-0.48157-1.10481-0.89421-1.72266-1.26953-0.14258-0.08545-0.28476-0.16854-0.43164-0.24804-0.6476-0.35262-1.32912-0.66593-2.07812-0.89063-0.91286-0.24896-1.90845-0.41505-2.9043-0.49805h-1.41016c-0.58091 0.083-1.16322 0.16607-1.74414 0.33204 0.20506-0.47042 0.45743-0.98981 0.73047-1.5293 1.19937-2.46505 2.97634-5.3253 4.58985-7.48438 0.4971-0.67796 0.97715-1.29723 1.40234-1.77343l-4.56445-0.74805zm30.37304 4.31641c1.31384 0.05152 2.37556 0.52249 3.26367 1.24023 0.02902 0.02293 0.05734 0.04679 0.08594 0.07031 0.2886 0.24261 0.5578 0.50956 0.80469 0.8086 0.08967 0.10688 0.17732 0.21639 0.26172 0.33007 0.17166 0.23454 0.33403 0.47803 0.48437 0.73829 0.12196 0.20868 0.23913 0.42454 0.34766 0.64843 0.09725 0.20262 0.19059 0.40758 0.27734 0.6211 0.1257 0.30656 0.24105 0.62259 0.34571 0.94922 0.03741 0.11765 0.07457 0.23362 0.10937 0.35351 0.2905 0.99341 0.49098 2.06181 0.61524 3.16016 0.00323 0.02876 0.00859 0.05518 0.01171 0.08398 8.5e-4 0.00775 0.00112 0.01568 0.00196 0.02344 0.12407 1.14485 0.16614 2.31884 0.14062 3.4707-4e-5 0.00194 5e-5 0.00392 0 0.00586-1e-5 6.5e-4 2e-5 0.00131 0 0.00195-0.07879 3.51489-0.78318 6.8159-1.6875 8.40625-1.07883 1.90871-2.73884 2.82227-5.0625 2.82227-2.32363 0-3.73462-0.99558-4.73047-2.9043-0.87343-1.65328-1.61643-5.02971-1.75586-8.58789-0.04585-1.17027-0.02579-2.36106 0.07618-3.51562 3.9e-4 -0.0045-4e-4 -0.00918 0-0.01367 0.00225-0.02556 0.00743-0.04871 0.00976-0.07422 0.10229-1.10999 0.27979-2.18485 0.55078-3.17774 0.03074-0.11349 0.06452-0.22268 0.09766-0.33398 0.09893-0.32969 0.20908-0.64763 0.33008-0.95508 0.07894-0.20248 0.16508-0.39615 0.2539-0.58789 0.10769-0.23001 0.22308-0.45167 0.34571-0.66406 0.13949-0.2446 0.29139-0.47211 0.45117-0.69141 0.08795-0.11894 0.17918-0.23317 0.27344-0.34375 0.23244-0.27735 0.48718-0.52234 0.75976-0.74414 0.03775-0.02999 0.07475-0.061 0.11328-0.08984 0.86937-0.66741 1.91692-1.07643 3.22461-1.05078zm30.37305 0c3.35673 0.13163 5.17219 2.80921 6.04492 6.21875 0.18866 0.72843 0.33322 1.48743 0.43555 2.26953 0.04987 0.3832 0.08982 0.75494 0.12109 1.14453 0.05861 0.72718 0.08525 1.45711 0.08399 2.1875-3.7e-4 0.53383-0.01468 1.03792-0.04297 1.56054-0.02906 0.52621-0.07028 1.03959-0.125 1.54493-0.0765 0.7177-0.17305 1.36829-0.29297 2.01562-0.05244 0.2821-0.10448 0.55674-0.16406 0.82227-0.14376 0.64125-0.29706 1.19417-0.47461 1.70703-0.10261 0.302-0.20877 0.57902-0.32032 0.83203-0.07114 0.15581-0.12919 0.39532-0.20312 0.52734-0.06714 0.11879-0.15685 0.19947-0.22852 0.31055-0.18591 0.30053-0.38939 0.57325-0.60742 0.82031-0.04139 0.04488-0.07661 0.09954-0.11914 0.14258-1.0364 1.09677-2.41902 1.63086-4.18945 1.63086-2.32365 0-3.73462-0.99558-4.73047-2.9043-2.03699-3.85573-3.37089-17.08679 2.0332-20.125 0.07928-0.04756 0.16969-0.07802 0.25196-0.12109 0.18743-0.09125 0.38301-0.16925 0.58593-0.23633 0.58668-0.21435 1.21491-0.3619 1.94141-0.34765zm-30.28906 1.07812c-0.91286 0-1.74336 0.16613-2.49024 0.66406-2.5726 1.74273-3.07031 6.38937-3.07031 9.21094 0 1.82573 0.1661 3.73482 0.49805 5.56055 0.18009 0.84044 0.40647 1.8948 0.73633 2.82422 0.02521 0.06792 0.04973 0.13497 0.07617 0.20117 0.10664 0.28006 0.22006 0.55238 0.34961 0.79297 0.08823 0.16764 0.17892 0.32163 0.27148 0.4707 0.03316 0.05088 0.06577 0.10568 0.09961 0.1543 0.09158 0.13839 0.18603 0.27116 0.2832 0.39257 0.69556 0.82196 1.5442 1.2445 2.74805 1.30469h0.33203c1.90871 0 3.31956-0.66253 4.23242-2.32226 0.58091-1.07884 0.99613-2.65559 1.16211-3.90039 0.33195-1.90871 0.41307-3.81786 0.33008-5.72657 0-2.65604-0.55757-6.63758-2.75586-8.57226-0.063-0.05267-0.13362-0.09524-0.19922-0.14453-0.22584-0.17901-0.48271-0.31717-0.74218-0.45118-0.30492-0.14709-0.62578-0.26899-0.97852-0.3457-0.03628-0.00892-0.0745-0.01533-0.11133-0.02344-0.24583-0.04724-0.50157-0.0802-0.77148-0.08984zm30.28906 0c-0.91287 0-1.74139 0.16613-2.48828 0.66406-2.57261 1.74273-3.07031 6.38937-3.07031 9.21094 0 1.82573 0.16609 3.73482 0.49804 5.56055 0.17984 0.83925 0.40586 1.89184 0.73438 2.82031 0.02613 0.07048 0.05068 0.14036 0.07812 0.20898 0.10614 0.27876 0.21866 0.5495 0.34766 0.78907 0.07224 0.13134 0.14801 0.24719 0.22266 0.36718 0.08764 0.13494 0.17544 0.27457 0.26757 0.39454 0.06958 0.09514 0.13837 0.19285 0.21094 0.27929 0.76906 0.86909 1.71714 1.28125 3.11719 1.28125 1.90871 0 3.31955-0.66253 4.23242-2.32226 0.58091-1.07884 0.99614-2.65559 1.16211-3.90039 0.33195-1.90871 0.41502-3.81786 0.33203-5.72657-0.07135-3.06754-0.83393-7.89154-3.99414-9.29687-0.18812-0.07624-0.38863-0.1312-0.59375-0.18164-0.12979-0.03716-0.27118-0.05577-0.4082-0.08203-0.20985-0.03158-0.42151-0.06236-0.64844-0.06641zm-30.28906 1.07813c1.07884 0 2.32342 0.74837 3.07031 2.07617 0.99585 1.74274 1.41016 4.56424 1.41016 7.63476 0.083 2.73859-0.16623 5.72601-0.9961 7.46875-0.82988 1.74273-2.15753 2.24024-3.40234 2.24024-1.3278 0-2.48849-0.24949-3.31836-2.15821-0.74689-1.74271-1.24609-4.97817-1.24609-7.55078 0-3.15351 0.33328-6.22407 1.4121-7.96679 0.74689-1.24481 2.07447-1.74414 3.07032-1.74414zm30.20703 0c1.07884 0 2.32342 0.74837 3.07031 2.07617 0.99585 1.74274 1.41016 4.56424 1.41016 7.63476 0.083 2.73859-0.16623 5.72601-0.9961 7.46875-0.82988 1.74273-2.15753 2.24024-3.40234 2.24024-1.3278 0-2.48849-0.24949-3.31836-2.15821-0.74689-1.74271-1.24609-4.97817-1.24609-7.55078 0-3.15351 0.33327-6.22407 1.41211-7.96679 0.74689-1.24481 2.07446-1.74414 3.07031-1.74414zm-60.07617 9.20507c0.10772-4.2e-4 0.21529 0.00263 0.32422 0.00782 3.48546 0.16598 6.14159 3.07116 6.05859 6.55664-0.16597 3.48545-3.07117 6.22261-6.55664 6.05664-0.00987-4.7e-4 -0.01944-0.00144-0.0293-0.00196-0.01791-7e-4 -0.03479 0.00281-0.05273 0.00196-0.05505-0.00262-0.10549-0.01946-0.16016-0.02344-0.26901-0.02288-0.53275-0.06069-0.79101-0.11523-0.26916-0.05345-0.52762-0.1274-0.78321-0.2129-0.03275-0.01138-0.06515-0.02326-0.09765-0.03515-2.55481-0.90089-4.36182-3.32771-4.22657-6.16797 0.13086-2.74798 1.97496-5.00734 4.45313-5.76953 0.21775-0.07001 0.43876-0.13009 0.66601-0.17578 0.11578-0.02174 0.23172-0.03758 0.34961-0.05274 0.27708-0.03931 0.55836-0.06723 0.84571-0.06836zm-0.03711 0.91993c-0.71678 0.01591-1.40619 0.17045-2.03711 0.4375-0.63092 0.26704-1.20326 0.64653-1.68946 1.11523-0.48619 0.4687-0.88538 1.02562-1.16796 1.64648-0.1413 0.31044-0.25269 0.63737-0.33204 0.97657-0.07934 0.33919-0.12667 0.69096-0.13671 1.05273-0.01038 0.37344 0.01674 0.74125 0.07812 1.09766 0.06139 0.35641 0.15686 0.70193 0.2832 1.0332 0.2527 0.66255 0.62783 1.26588 1.09961 1.7793 0.2359 0.2567 0.49688 0.49194 0.77735 0.69922 0.28047 0.20727 0.58213 0.38737 0.90039 0.53711 0.31826 0.14973 0.6527 0.26745 1.00195 0.35156 0.34925 0.0841 0.7125 0.13416 1.08594 0.14453s0.74119-0.01674 1.09765-0.07813c0.35647-0.06138 0.70184-0.15685 1.03321-0.2832 0.66273-0.2527 1.26759-0.62782 1.78125-1.09961 0.25683-0.23589 0.48988-0.49687 0.69726-0.77734 0.20739-0.28048 0.38924-0.58214 0.53907-0.90039 0.14983-0.31826 0.2674-0.65271 0.35156-1.00196 0.08416-0.34924 0.13416-0.71249 0.14453-1.08593 0.01462-0.26315-0.01512-0.51813-0.03906-0.77344-0.14933-1.32905-0.76844-2.53168-1.69727-3.41016-0.07456-0.06917-0.15016-0.13618-0.22851-0.20117-0.14654-0.12389-0.29985-0.23982-0.45899-0.34766-0.19054-0.1267-0.38555-0.24738-0.5918-0.3496-0.06248-0.03147-0.12364-0.06473-0.1875-0.09375-0.2927-0.13109-0.5972-0.23906-0.91406-0.31641-0.00743-0.00183-0.01404-0.00601-0.02148-0.00781-0.00124-3e-4 -0.00267 2.9e-4 -0.00391 0-0.0032-7.8e-4 -0.00656-0.00119-0.00976-0.00196-0.34732-0.08223-0.70742-0.13233-1.07618-0.14257-0.09336-0.0026-0.18681-0.00206-0.27929 0zm0.02929 1.1621c2.40664 0 4.31641 1.90977 4.31641 4.31641s-1.99276 4.31445-4.31641 4.31445c-2.40662 0-4.31445-1.90781-4.31445-4.31445s1.90783-4.31641 4.31445-4.31641z" fill="#025"/><path d="m3.04375 390.91055v15.10351h32.53125l-14.605469-15.10351h-17.925781zm79.501953 2.4082c-0.912862 0-1.575297 0.33021-1.990234 0.82813-0.414938 0.49792-0.830201 1.16227-1.328125 1.82617l-16.431641 23.07031-2.738281 3.90039c-0.580912 0.82988-1.163228 1.57733-1.744141 2.32422-0.6639 0.74688-1.492431 1.16214-2.488281 1.32812-0.580912 0.083-1.0802 0.16606-1.578125 0.33204-0.497925 0.16596-0.745137 0.58024-0.828125 1.24414 0 0.41494 0.1651 0.66505 0.414063 0.74804 0.248962 0.083 0.580159 0.16602 0.912109 0.16602 0.912862 0 1.910401-0.08305 2.90625-0.16602 0.99585-0.083 1.908447-0.16601 2.904297-0.16601 0.912862 0 1.74239 0.08303 2.572265 0.16601 0.829875 0.083 1.742391 0.08305 2.572266 0.16602 0.414938 0 0.746175-0.08404 1.078125-0.25 0.33195-0.16598 0.498047-0.49718 0.498047-0.91211-0.08299-0.6639-0.415222-0.99709-1.162109-1.08008-0.746888-0.083-1.409363-0.24808-2.15625-0.41406-0.746888-0.16597-1.079123-0.66331-1.16211-1.57617 0.165975-0.91287 0.747335-2.24065 1.826172-3.90039 1.078837-1.65975 1.824341-2.90446 2.322266-3.56836h10.208984c0.08299 1.07884 0.083031 2.15749 0.166016 3.23632 0.08299 1.07884 0.082031 2.15749 0.082031 3.23633-0.08299 1.49377-0.415222 2.40534-1.162109 2.6543-0.746888 0.24896-1.494304 0.41602-2.158204 0.41602-0.746887 0-1.160156 0.49725-1.160156 1.24414 0 0.33195 0.083072 0.58206 0.332031 0.74804 0.248963 0.16597 0.496176 0.16602 0.828125 0.16602 1.410787 0 2.821636-0.08305 4.232422-0.16602 1.410787-0.083 2.821636-0.16601 4.232422-0.16601 0.912862 0 1.909404 0.08203 2.822266 0.08203 0.912862 0.083 1.909402 0.08398 2.822265 0.08398 0.414937 0 0.829163-0.08303 1.078125-0.16601 0.414937-0.16597 0.580079-0.49913 0.580079-0.91407s-0.081118-0.74708-0.330079-0.83007c-0.248961-0.16597-0.499125-0.24805-0.914062-0.24805-1.3278-0.24896-2.075256-0.74726-2.324219-1.49414-0.248963-0.82988-0.332031-1.8255-0.332031-3.07031l-1.326172-25.56055c0-0.91286-0.084027-1.66032-0.25-2.32422-0.165975-0.58091-0.747335-0.91115-1.826172-0.99414zm137.261717 0c-0.91286 0-1.57725 0.33021-1.99219 0.82813s-0.82824 1.16227-1.32617 1.82617l-16.43164 23.07031-2.73828 3.90039c-0.58092 0.82988-1.16323 1.57733-1.74414 2.32422-0.6639 0.74688-1.49243 1.16214-2.48828 1.32812-0.58091 0.083-1.08021 0.16606-1.57813 0.33204-0.49793 0.16596-0.74708 0.58024-0.83007 1.24414 0 0.41494 0.16705 0.66505 0.41601 0.74804 0.24896 0.083 0.58016 0.16602 0.91211 0.16602 0.91287 0 1.90845-0.08305 2.9043-0.16602 0.99585-0.083 1.90845-0.16601 2.90429-0.16601 0.91287 0 1.74434 0.08303 2.57422 0.16601 0.91286 0.083 1.7424 0.08305 2.57227 0.16602 0.41494 0 0.74617-0.08404 1.07812-0.25 0.33195-0.16598 0.49805-0.49718 0.49805-0.91211-0.083-0.6639-0.41522-0.99709-1.16211-1.08008-0.74689-0.083-1.40936-0.24808-2.15625-0.41406-0.74689-0.16597-1.07913-0.66331-1.16211-1.57617 0.16597-0.91287 0.74538-2.24065 1.82422-3.90039 1.07884-1.65975 1.8263-2.90446 2.32422-3.56836h10.29101c0.083 1.07884 0.08304 2.15749 0.16602 3.23632 0.083 1.07884 0.08203 2.15749 0.08203 3.23633-0.083 1.49377-0.41327 2.40534-1.16015 2.6543-0.74689 0.24896-1.49431 0.41602-2.15821 0.41602-0.74689 0-1.16211 0.49725-1.16211 1.24414 0 0.33195 0.08308 0.58206 0.33203 0.74804 0.24896 0.16597 0.49813 0.16602 0.83008 0.16602 1.41079 0 2.82164-0.08305 4.23242-0.16602 1.41078-0.083 2.82164-0.16601 4.23243-0.16601 0.91286 0 1.90745 0.08203 2.82031 0.08203 0.91286 0.083 1.90941 0.08398 2.82226 0.08398 0.41494 0 0.82917-0.08303 1.07813-0.16601 0.33195-0.16597 0.49805-0.49913 0.49805-0.91407s-0.08309-0.74708-0.33204-0.83007c-0.24895-0.16597-0.49717-0.24805-0.9121-0.24805-1.32781-0.24896-2.07525-0.74726-2.32422-1.49414-0.24896-0.82988-0.33203-1.8255-0.33203-3.07031l-1.32813-25.56055c0-0.91286-0.08209-1.66032-0.24805-2.32422-0.16598-0.58091-0.74733-0.91115-1.82617-0.99414zm-29.37695 0.58008c-4.31535 0-8.79607 0.91252-13.44336 2.57226-4.64731 1.74274-8.63168 4.23324-11.95117 7.55274-3.3195 3.31949-5.06154 7.38594-5.14453 12.19922 0.083 3.07053 0.91155 5.55908 2.65429 7.55078s3.81902 3.48657 6.47461 4.48242c2.57262 0.99585 5.22726 1.49219 8.04883 1.49219 1.65976 0 3.31976-0.08113 5.0625-0.33008 1.65975-0.16597 3.31877-0.49912 4.97852-0.91406 0.58091-0.083 1.16318-0.24908 1.57812-0.49805 0.41494-0.16597 0.74714-0.58024 0.99609-1.24414 0.41494-1.24481 0.82921-2.57259 1.24415-3.90039 0.33195-1.3278 0.74617-2.65558 1.07812-3.90039 0.58092-1.82572 1.32832-2.98836 2.1582-3.32031s1.57634-0.49805 2.24024-0.49805 0.99609-0.41426 0.99609-1.24414c0-0.33195-0.1651-0.58012-0.41406-0.7461-0.24897-0.16597-0.58112-0.25-0.83008-0.25-1.24481 0-2.57354 0.08304-3.81836 0.16602-1.3278 0.083-2.57259 0.16602-3.90039 0.16602-1.24481 0-2.48857-0.08305-3.65039-0.16602-1.24482-0.083-2.49051-0.16602-3.65234-0.16602-0.41493 0-0.83016 0.08404-1.16211 0.25-0.41494 0.16598-0.58008 0.49717-0.58008 0.91211 0.083 0.58091 0.41517 0.91311 0.99609 0.9961 0.6639 0.083 1.24431 0.1651 1.90821 0.41406 0.6639 0.16598 0.99609 0.74729 0.99609 1.66016-0.083 0.99585-0.33315 2.24163-0.91406 3.98437-0.49793 1.65975-0.99422 2.98757-1.32617 4.06641-0.16598 0.74689-0.49813 1.32625-0.83008 1.6582s-0.91426 0.49805-1.74414 0.49805c-2.98755-0.083-5.31091-0.99559-6.80469-2.9043-1.57676-1.90871-2.32227-4.23216-2.32227-7.13672 0-2.6556 0.57938-5.31115 1.65821-7.80078 1.07884-2.48963 2.57272-4.72996 4.39843-6.63867 1.82573-1.82573 4.14909-3.40267 6.80469-4.73047 2.73859-1.32781 5.39518-1.99124 8.05078-2.07422 1.24481 0 1.99227 0.24818 2.32422 0.7461 0.24896 0.49792 0.41501 1.32841 0.33203 2.49023 0 0.33195-9.8e-4 0.58016-0.08398 0.91211 0 0.33195-0.08203 0.58211-0.08203 0.91406 0 0.49792 0.08208 0.99522 0.24804 1.41016 0.16598 0.41493 0.5812 0.66406 1.16211 0.66406 0.6639-0.083 1.07821-0.33314 1.41016-0.91406 0.33195-0.58091 0.49808-1.16028 0.66406-1.65821 0.16597-0.41494 0.41515-1.24642 0.83008-2.57421 0.33195-1.3278 0.58107-2.15634 0.66406-2.48829-0.083-0.58091-0.6643-0.91315-1.66015-1.1621-1.07883-0.24897-2.15653-0.33303-3.31836-0.41602-1.16182-0.083-1.90928-0.08203-2.32422-0.08203zm-87.55274 0.49805c-0.41493 0-0.8292 0.08304-1.24414 0.16601-0.41494 0.16598-0.58107 0.41419-0.66406 0.91211 0.16597 0.82988 0.82938 1.2451 1.9082 1.16211 1.16183 0 1.74418 0.41522 1.91016 1.16211 0 0.58091-0.16606 1.16128-0.33203 1.74219-0.24897 0.58092-0.41605 1.16222-0.58203 1.66015-1.24481 3.48547-2.48956 6.88757-3.73438 10.37305-1.244804 3.48548-2.488604 6.88758-3.816403 10.37305-0.497926 1.49377-0.996216 2.49135-1.494141 3.07226-0.497925 0.58092-1.49355 0.99517-3.070312 1.24414-0.414937 0.083-0.83016 0.16511-1.16211 0.41407-0.33195 0.16597-0.498046 0.49817-0.498046 0.99609 0 0.41494 0.165099 0.6641 0.414062 0.83008 0.248963 0.083 0.581156 0.16601 0.996094 0.16601 0.912862 0 1.825419 9.7e-4 2.738281-0.08203s1.827372-0.08398 2.740234-0.08398c0.829876 0 1.658406 0.08304 2.488282 0.16601 0.829869 0.083 1.660359 0.08304 2.490239 0.16602 0.41493 0 0.74617-0.08308 1.07812-0.33203 0.33195-0.16598 0.49904-0.49718 0.58203-0.91211-0.083-0.74689-0.41523-1.07912-1.16211-1.16211-0.74689-0.083-1.49334-0.16605-2.24023-0.33203-0.746887-0.16597-1.162112-0.83036-1.162112-1.99219 0.08299-1.57676 0.663356-3.98223 1.742192-7.21875 1.07883-3.15352 2.15753-6.30738 3.40234-9.29492 1.16183-2.98756 1.99132-4.97977 2.40625-6.0586l0.58203 24.39844c0 0.74688 0.08209 1.32825 0.24805 1.82617 0.16597 0.41494 0.66427 0.66407 1.49414 0.66407 0.82988 0 1.49426-0.33316 1.99219-0.91407 0.49792-0.58091 0.91318-1.16227 1.32812-1.82617l16.43164-24.14844-5.39453 20.41407c-0.16597 0.91287-0.4161 1.74339-0.74805 2.65625-0.33195 0.91287-0.99534 1.41118-1.9082 1.66015-0.58091 0-1.16227 0.16506-1.82617 0.24805-0.6639 0.16597-1.07717 0.58219-1.16016 1.24609 0 0.41494 0.16509 0.6641 0.41406 0.83008 0.24896 0.16597 0.58016 0.24805 0.91211 0.24805 1.16182 0 2.40654-0.08304 3.56836-0.16602 1.16183-0.083 2.40653-0.16601 3.56836-0.16601 1.24481 0 2.49052 0.08304 3.65235 0.16601 1.24481 0.083 2.49052 0.16602 3.65234 0.16602 0.49793 0 0.8292-0.08209 1.24414-0.24805 0.33195-0.16598 0.58008-0.49817 0.58008-0.99609-0.083-0.58092-0.3312-0.99709-0.91211-1.08008-0.58092-0.083-1.16128-0.24808-1.74219-0.41406-0.58092-0.16597-0.91406-0.66332-0.91406-1.57617 0-0.58092 0.08403-1.24626 0.25-1.91016s0.24809-1.24331 0.41406-1.82422l5.22852-20.99609c0.16598-0.91287 0.41414-1.66028 0.74609-2.15821 0.33195-0.49792 0.91431-0.83012 1.91016-0.99609 0.49793 0 0.99426-0.16606 1.49218-0.33203 0.24896 0.16597 0.58204-0.24916 0.58204-0.83008 0-0.33195-0.08309-0.58012-0.33204-0.74609-0.16596-0.16598-0.41414-0.25-0.74609-0.25-1.07884 0-2.15944 9.8e-4 -3.23828 0.08398s-2.15749 0.08203-3.23633 0.08203c-0.58091 0-1.41044-0.08203-2.57226-0.08203-1.16183 0-1.90928 0.08212-2.32422 0.41406-0.083 0.083-0.16407 0.24904-0.16407 0.33203-0.08299 0.16597-0.16601 0.24905-0.16601 0.33204l-14.10938 21.32812-0.58007-20.99609c0-0.41494-9.9e-4 -0.74714-0.08399-0.9961-0.083-0.33195-0.33116-0.41505-0.74609-0.49804-1.16183 0-2.40653 9.8e-4 -3.56836 0.08398h-3.56836c-0.6639 0-1.32829-0.08398-1.99219-0.08398-0.6639-0.083-1.32829-0.08203-1.99219-0.08203zm60.08399 0c-0.49792 0-0.91319-9.7e-4 -1.32813 0.08203-0.41494 0-0.91318 0.08303-1.32812 0.16601-1.16183 0.083-2.24052 0.16701-3.40235 0.25-1.16182 0-2.32254 0.083-3.48437 0-0.82987 0-1.66136-0.08398-2.57422-0.08398-0.82988-0.083-1.6594-0.08203-2.57226-0.08203-0.41493 0-0.74618 0.08308-1.07813 0.33203-0.33195 0.24896-0.49805 0.58115-0.49805 0.99609 0.16598 0.74688 0.74634 1.16111 1.74219 1.07813 0.99585-0.083 1.57621 0.41525 1.74219 1.32812 0 0.24896 9.7e-4 0.49813-0.08203 0.83008-0.083 0.24896-0.16701 0.49813-0.25 0.83008l-6.47266 22.40625c-0.24896 1.07883-0.49813 1.99139-0.83008 2.73828-0.33195 0.74688-0.99538 1.24518-2.07422 1.49414-0.49792 0.083-1.07828 0.16606-1.74218 0.33203-0.6639 0.16598-1.07813 0.58119-1.07813 1.16211 0 0.33195 0.16509 0.58011 0.41406 0.74609 0.24896 0.16597 0.58016 0.25 0.91211 0.25 1.07884 0 2.24148-0.08303 3.32032-0.16601 1.16183-0.083 2.24051-0.16602 3.40234-0.16602 1.24481 0 2.40753 0.08305 3.65234 0.16602 1.24482 0.083 2.40559 0.08203 3.65039 0.08203 0.49793 0 1.07829 9.7e-4 1.74219-0.08203s0.99709-0.41618 1.08008-1.08008c-0.083-0.6639-0.41518-0.99515-0.99609-1.07812-0.58091-0.083-1.24526-0.16607-1.82618-0.33204-0.58091-0.16598-0.9131-0.74633-0.99609-1.74218 0-0.41494 0.08304-0.83116 0.16602-1.2461 0.083-0.41493 0.24904-0.8292 0.33203-1.24414l6.47265-22.49023c0.24896-0.91286 0.49813-1.57725 0.83008-1.99219 0.33195-0.41493 0.99534-0.74613 1.9082-0.91211 0.49792-0.083 0.99722-0.1651 1.57813-0.41406 0.41494-0.33195 0.6631-0.74818 0.74609-1.2461 0-0.33195-0.08308-0.49809-0.33203-0.66406-0.16598-0.16598-0.41414-0.24804-0.74609-0.24804zm-86.140626 8.46484 0.414062 11.86719h-8.546875l8.132813-11.86719zm137.177736 0 0.41406 11.86719h-8.54687l8.13281-11.86719z" fill="#f00"/></svg>
