<svg enable-background="new 0 0 3839 835.4" version="1.1" viewBox="0 0 3839 835.4" xml:space="preserve" xmlns="http://www.w3.org/2000/svg">
<path d="m1242.6992 32.5-262.04686 478.80078h-141.65234v120.09961h75.92188l-76.6211 140h136.89844l76.59958-140h381.8731l76.6289 140h136.7988l-404.4004-738.90039zm-1242.6992 1.199219v155.201171 582.59961h120.09961v-484.20508l590.90039 484.10547v-122.30078h0.09961v-600.400391h-120.09961v469.187501l-591-484.187501zm2612.5 15v722.701171h120.0996v-400l305.7012 354.29883 305.7988-354.29883v400h120.0996v-722.701171l-425.8984 493.201171-425.8008-493.201171zm1106.4004 0v722.800781h120.0996v-722.800781h-120.0996zm-2476.2012 233.800781 125.2344 228.80078h-250.4219l125.1875-228.80078z"/><path fill="#F05100" d="m2079.5 0c-230.6 0-417.7 187-417.7 417.7s187 417.7 417.7 417.7c230.6 0 417.7-187 417.7-417.7s-187-417.7-417.7-417.7zm0 120.1c-164.4 0-297.6 133.2-297.6 297.6s133.2 297.6 297.6 297.6 297.6-133.2 297.6-297.6-133.2-297.6-297.6-297.6zm0 573.6c-152.3 0-276-123.9-276-276 0-152.3 123.9-276 276-276 152.3 0 276 123.9 276 276 0.1 152.2-123.8 276-276 276zm0 21.6c-164.4 0-297.6-133.2-297.6-297.6s133.2-297.6 297.6-297.6 297.6 133.2 297.6 297.6c0 164.3-133.2 297.6-297.6 297.6z"/>
</svg>
