<?xml version="1.0" encoding="utf-8"?>
<!-- Generator: Adobe Illustrator 26.0.1, SVG Export Plug-In . SVG Version: 6.00 Build 0)  -->
<svg version="1.1" id="Layer_1" xmlns="http://www.w3.org/2000/svg" xmlns:xlink="http://www.w3.org/1999/xlink" x="0px" y="0px"
	 viewBox="0 0 3839 835.4" style="enable-background:new 0 0 3839 835.4;" xml:space="preserve">
<style type="text/css">
	.st0{fill:#F05100;}
	.st1{fill:#CF3312;}
	.st2{fill:#FFFFFF;}
</style>
<g>
	<rect x="839" y="511.3" width="611.3" height="120.1"/>
	<g>
		<rect x="3718.9" y="48.7" width="120.1" height="722.8"/>
		<polygon points="3464.2,48.7 3038.3,541.9 2612.5,48.7 2612.5,771.4 2732.6,771.4 2732.6,371.4 3038.3,725.7 3344.1,371.4 
			3344.1,771.4 3464.2,771.4 		"/>
		<rect x="591" y="48.7" width="120.1" height="600.4"/>
		<rect y="164.1" width="120.1" height="607.4"/>
		<polygon points="711,616.2 711,771.4 0,188.9 0,33.7 		"/>
		<path d="M2079.5,0c-230.6,0-417.7,187-417.7,417.7s187,417.7,417.7,417.7c230.6,0,417.7-187,417.7-417.7S2310.2,0,2079.5,0z
			 M2079.5,120.1c-164.4,0-297.6,133.2-297.6,297.6s133.2,297.6,297.6,297.6s297.6-133.2,297.6-297.6S2243.9,120.1,2079.5,120.1z
			 M2079.5,693.7c-152.3,0-276-123.9-276-276c0-152.3,123.9-276,276-276c152.3,0,276,123.9,276,276
			C2355.6,569.9,2231.7,693.7,2079.5,693.7z M2079.5,715.3c-164.4,0-297.6-133.2-297.6-297.6s133.2-297.6,297.6-297.6
			s297.6,133.2,297.6,297.6C2377.1,582,2243.9,715.3,2079.5,715.3z"/>
		<polygon points="975.2,771.4 1242.7,282.5 1510.3,771.4 1647.1,771.4 1242.7,32.5 838.3,771.4 		"/>
	</g>
</g>
</svg>
