<svg version="1.1" viewBox="0 0 745.869 124.395" xmlns="http://www.w3.org/2000/svg"><path d="m62.714844 0.84375v123.28516h14.527344v-123.28516h-14.527344zm-14.373047 0.1777344v36.2890626c0 35.194965-20.979871 64.334913-48.33984388 69.378903v17.6875l2.416015675 0.01758c30.8109692-0.796 55.5937502-31.908428 55.5937502-70.150389v-53.2226566h-9.669922zm33.832031 0v53.2226566c0 38.241961 24.780832 69.354389 55.591792 70.150389l2.41797-0.01758v-17.6875c-27.35997-5.04399-48.33984-34.183938-48.33984-69.378903v-36.2890626h-9.669922zm536.685552 1.2851562c-13.41899 0-24.50922 3.4925226-33.28321 10.4785154-8.77299 6.984993-13.15625 15.587698-13.15625 25.804688 0 8.719991 2.41124 17.836819 7.24024 24.757812l0.00195 0.007813c1.71 1.700998 3.66247 3.222501 5.85547 4.5625 2.227 1.430998 7.12212 4.354723 22.28711 8.761719 8.25699 2.405997 12.3789 6.153145 12.3789 11.24414 0 3.491997-1.78937 6.278424-5.35937 8.357422s-7.60166 3.119141-12.09766 3.119141c-4.74699 0-9.48194-0.754814-14.21094-2.257813-4.73899-1.502998-6.55655-3.694222-13.06054-6.574219v27.839841c5.91599 2.5 11.41782 4.1221 16.50781 4.8711 5.085 0.743 10.87071 1.11718 17.3457 1.11718 13.41899 0 24.50826-3.49252 33.28125-10.47851 8.77299-6.98499 13.15625-15.587699 13.15625-25.804689 0-8.719991-2.41124-17.836819-7.24023-24.757812l-0.00195-0.007813c-1.71-1.700998-3.66052-3.222501-5.85352-4.5625-2.227-1.430998-7.12212-4.354723-22.28711-8.761718-8.25699-2.405998-12.3789-6.153146-12.3789-11.244141-1e-5 -3.491997 1.78742-6.278424 5.35742-8.357422 3.56999-2.078998 7.60361-3.119141 12.09961-3.119141 4.74699 0 9.47999 0.754814 14.20898 2.257813 4.739 1.502998 6.55655 3.694222 13.06055 6.574219v-27.8398441c-5.916-2.4999975-11.41587-4.1220945-16.50586-4.8710938-5.085-0.7429992-10.87071-1.1171875-17.3457-1.1171875zm40.64062 2.5351563v28.2910151h24.65625v91.261718h37.04883v-91.261718l24.66406 0.00586-0.00586-28.2968751h-86.36328z" fill="#949494"/><path d="m219.994 77.855-10.876-52.955-11.969 52.955zm41.158 45.946h-27.193l-6.712-23.32h-36.626l-7.068 23.32h-27.2l33.906-108.542c1.33-4.211 3.445-7.716 6.35-10.526 3.379-3.154 7.252-4.733 11.6-4.733 4.835 0 9.189 1.698 13.056 5.084 3.386 3.041 5.804 6.896 7.253 11.577zm62.234-99.911h-23.749v100.505h-26.653v-100.505h-23.938v-23.148h74.34zm52.236 53.965-10.876-52.955-11.969 52.955zm41.159 45.946h-27.193l-6.713-23.32h-36.626l-7.068 23.32h-27.2l33.906-108.542c1.331-4.211 3.445-7.716 6.35-10.526 3.379-3.154 7.252-4.733 11.6-4.733 4.835 0 9.189 1.698 13.056 5.084 3.386 3.041 5.804 6.896 7.253 11.577zm93.4 0.338h-30.822l-27.33-50.169c-1.213-2.334-2.21-4.443-2.994-6.314-0.785-1.865-1.176-3.326-1.176-4.384 0-5.376 4.317-9.789 12.96-13.234 8.644-3.451 12.968-7.746 12.968-12.89 0-3.161-1.242-6.255-3.719-9.296-2.477-3.036-5.168-4.557-8.072-4.557h-15.23v100.505h-25.744v-107.168c0-3.743 1.753-7.366 5.258-10.871 3.504-3.511 7.009-5.263 10.519-5.263h25.929c10.033 0 18.795 3.505 26.291 10.519 7.489 7.015 11.238 15.142 11.238 24.378 0 7.366-2.293 13.792-6.891 19.287-3.986 4.793-9.73 8.887-17.227 12.271zm3.373-123.641h26.831v123.831h-26.831z" fill="#5479b6"/></svg>
