<svg version="1.1" viewBox="0 0 566.929 92.934" xmlns="http://www.w3.org/2000/svg"><path d="m465.04492 0c-19.58998 0-39.0635 11.94424-39.0625 33.324219 0 14.095986 10.75126 21.624533 23.53125 23.894531l6.57227 1.191406c2.98499 0.598 7.28515 0.956582 7.28515 5.017578 0 4.063996-5.13633 5.376954-8.36132 5.376954-7.526 0-14.57279-3.704193-20.42579-8.242188l-1.67382-1.314453-10.03321 25.443359c10.15399 5.135995 23.29064 8.242188 34.64063 8.242188 19.46998 0 39.06054-10.632834 39.06054-32.132813 0-15.289984-10.03563-22.696784-23.89062-25.800781l-7.40625-1.675781c-2.506-0.596-6.56836-1.071972-6.56836-4.417969 0-3.702996 4.18183-4.775391 7.04883-4.775391 7.04799 0 13.37724 2.985645 18.99023 6.806641l8.83985-23.0527344c-8.83999-5.3759946-18.27489-7.8847656-28.54688-7.8847656zm-193.11133 0.85742188c-3.26568 0.19274982-6.44906 1.86117462-8.32031 4.57617192-1.568 2.0889979-1.88031 4.7528772-2.69531 7.1718752-7.76699 26.763973-15.56359 53.522761-23.26758 80.302734 4.757-3e-3 9.51444 0.001047 14.27344-0.001953 2.211-7.707992 4.48727-15.400289 6.69726-23.113281 9.24399-0.026 18.48939-0.00286 27.73438-0.00586 2.246 7.700993 4.45169 15.417102 6.67969 23.121094 4.79499-0.021 9.59077 0.023469 14.38476-0.019531-8.10499-27.897972-16.23971-55.790341-24.3457-83.6953126-1.028-3.7729963-4.00258-7.1225322-7.89258-8.0195313-1.06175-0.2794997-2.15948-0.38065616-3.24805-0.31640622zm-223.990231 0.00390624c-2.329997 4e-3 -4.654471-0.00309374-6.980468 0.00390626-7e-3 2.71799732 0.016328 5.43444022-0.013672 8.14843752-0.185 8.0069921-0.684814 16.0300391-1.882813 23.9570311-0.955999 6.234994-2.361284 12.465522-4.988281 18.228516-2.229998 5.012995-5.167472 9.737457-8.855469 13.814453-3.571996 3.952996-7.815348 7.302924-12.527344 9.794922-3.9699955 2.087998-8.2463164 3.665938-12.695312 4.335937 0.002999997 4.585996 0.002999997 9.17763 0 13.765625 3.6939963-0.523999 7.324566-1.454782 10.851562-2.675781 6.233994-2.147998 12.161005-5.331129 17.125-9.703125 5.550995-4.711995 10.490816-10.315507 13.632813-16.9375 1.923998-4.110996 3.478516-8.445598 4.228516-12.933594 1.088999-6.507993 1.502453-13.109319 1.814453-19.695312 0.189-4.562996 0.316922-9.126364 0.294922-13.69336-3e-3 -5.467994 0.004093-10.9401613-0.003907-16.41015588zm15.65625 0c-4.282995 0.01099999-8.565613-0.01332809-12.849609 0.01367188 0.015 20.901979 0.002813 41.80224 0.007812 62.699219v0.001953c0.013992 9.77934-0.032511 19.567223 0.021485 29.351562 4.272996-0.039 8.547317-0.010484 12.820312-0.021484v-92.04101562-0.00390626zm9.798829 0.00195313c-2.314998-5e-3 -4.628409-0.00204687-6.941407 0.00195313-2e-3 5.02999492 4.7e-5 10.05694262-0.001953 15.08593762-0.056 8.886991 0.245782 17.784634 1.050781 26.640625 0.417 4.093996 0.872314 8.218176 1.945313 12.201172 1.170999 3.961996 2.664939 7.849269 4.710937 11.447265 2.618998 4.623996 6.102098 8.701926 9.996094 12.294922 2.360998 2.170998 4.81944 4.25333 7.523438 5.986328 3.704996 2.412998 7.739207 4.293189 11.908199 5.742188 3.502 1.189999 7.09859 2.137719 10.76758 2.636719v-0.001953c6.4e-4 8.6e-5 0.00132-8.7e-5 0.00196 0-4e-3 -4.585996-1e-3 -9.171818 0-13.757813-1.867-0.274-3.70501-0.727829-5.5-1.298828-6.438-2.060998-12.360963-5.645599-17.251958-10.308594-1.279999-1.217999-2.486267-2.509111-3.617188-3.863281-5.84e-4 -7e-4 -0.001369-0.001254-0.001953-0.001953-3.391947-4.062006-6.112854-8.687002-8.15625-13.566407-2.874997-6.723993-4.161219-13.996804-5.074219-21.216796-1.114998-9.290991-1.435374-18.666494-1.359374-28.02148475zm98.841792 0.04101563c-3.55064-0.30540009-7.27797 1.06961222-9.51171 3.92773432-2.011 2.2739978-2.3544 5.3888308-3.2754 8.1738278-7.74699 26.628974-15.46578 53.264418-23.17578 79.900391 4.765 3e-3 9.52802-0.007281 14.29102 0.011719a4357.143 4357.143 0 0 1 6.73242-23.13086c9.25799 3e-3 18.51735-0.015281 27.77734 0.011719 2.23 7.703992 4.43537 15.419289 6.69336 23.113281 4.789-9e-3 9.5801 0.001047 14.3711-0.001953-8.10499-27.925972-16.25806-55.835793-24.37305-83.7597654-0.641-2.2419977-1.89745-4.3278921-3.68945-5.8378906-1.644-1.4369986-3.70946-2.2249631-5.83985-2.40820312zm154.52344 0.12304692c-1.39-0.03300002-2.79533 0.1211723-4.11133 0.5761718-4.47199 1.4329986-7.82661 5.8718485-7.84961 10.5898434 0.017 26.902973-2.3e-4 53.814824 0.00977 80.716797 4.604 8e-3 9.20365-1.87e-4 13.80664 0.007813 0.015-24.993975-0.01214-49.988541 0.00586-74.978516-0.02-1.625998 1.48594-3.015515 3.08594-2.978515 3.53499-0.037 7.07128 0.006421 10.61328-0.017579 5.11799-0.173999 9.9645 3.742849 11.0625 8.714844 0.934 3.830996 1.03793 8.145441-1.03906 11.648438-2.735 4.655995-7.59821 7.616048-12.53321 9.498047-2.58399 0.999998-4.90795 2.945612-5.87695 5.599609-1.241 3.464996-0.67851 7.484628 1.39648 10.515625 7.059 10.655989 14.07217 21.355011 21.16016 32 5.413-0.025 10.82629-7.19e-4 16.23828-0.011719-7.39899-11.099989-14.93751-22.112652-22.1875-33.306641-0.759-1.558998-0.69079-3.735329 0.7832-4.861328 2.682-1.985998 5.80646-3.340127 8.31446-5.578125 4.74499-4.090996 7.33845-10.263459 7.81445-16.439453 0.696-5.898994 0.4103-12.152302-2.3457-17.529297-3.982-8.2789913-12.76295-13.992156-21.96094-14.1601559-5.46499-4e-3 -10.92472 0.0151406-16.38672-0.0058593zm-131.3457 0.0058593c-3e-3 4.6739954 9.5e-4 9.3465359 0.00195 14.0195309 6.378 5e-3 12.75382-0.008093 19.13281 0.003907-8e-3 25.952974-0.0039 51.902541-0.0039 77.853515h13.70508c7e-3 -25.951974 0.0039-51.901541 0.0039-77.853515 6.376-0.012 12.75287 0.001093 19.13086-0.003907v-14.0195309h-51.9707zm184.55078 0v91.8730469c4.842 3e-3 9.68154-0.007094 14.51953 0.003906 0.013-30.624969 0.00281-61.246984 0.00781-91.8769529h-14.52734zm118.1582 0.4003907v25.2656252l18.03711 0.050781v64.75h32.72852v-64.748047l18.03711-0.052734v-25.2656252h-68.80274zm-225.62109 20.4570312c3.326 11.606988 6.71292 23.196793 10.04492 34.800781-6.70099 0-13.40152 0.005094-20.10351-0.003906 3.32899-11.604988 6.71159-23.196887 10.05859-34.796875zm-101.32227 0.052734c3.368 11.581989 6.7199 23.163153 10.08789 34.744141-6.72799 0-13.45555 0.020234-20.18554-0.009766 3.37499-11.573988 6.70166-23.166386 10.09765-34.734375z"/></svg>
