<svg enable-background="new 0 0 3839 1572.4" version="1.1" viewBox="0 0 3839 1572.4" xml:space="preserve" xmlns="http://www.w3.org/2000/svg">
<path d="m1071 0c-44.7 7.4999925-89.30004 14.200007-134 21.5-132.39987 17.799982-260.30053 56.499628-394.90039 75.099609-93.69991 5.199991-176.20049 32.699991-271.40039 24.500001-13.39999-1.5-14.79961 8.89962-15.59961 20.09961 0.7 14.09998 17.80001 9.70039 24.5 10.40039 5.99999 20.09998-23.0004 6.00118-33.40039 12.70117-7.39999 4.4-7.39844 11.89884-7.39844 19.29883 2.3 8.19999 8.99845 9.70117 16.39844 11.20117 5.19999 6.59999 18.60156 8.09884 15.60156 19.29883-5.29999 8.99999-13.40157 17.20039-24.60156 16.40039 0.7 1.5 6.69999 3.69922 1.5 5.19922 3.7 11.89999 17.10079 0.00117 26.80078 3.70117 4.5 7.49999 5.99922 15.69962 11.19922 23.09961 91.39991-2.3 180.70048-22.30001 272.90039-30.5 0.7 1.5 2.20117 2.19922 3.70117 3.69922-35.69996 160.69984-74.40007 320.60171-146.5 465.60156-52.79995 85.59992-123.50089 199.39923-234.30078 211.19922-58.79994 6.79999-97.400827-35.60042-142.800781-62.40039-1.499999-12.69999-11.898837-16.39962-20.798828-21.59961-2.199998-2.2-0.700396-7.39922-5.900391-5.19922-5.999994 1.5-12.70038982 4.49845-11.90039062 11.89844 29.69997062 84.09991 121.1996806 110.10042 192.5996106 139.90039 121.29988 36.49999 215.70046-64.69931 281.90039-151.69922 64.69993-66.19993 86.30043-149.50047 126.40039-225.40039 37.89996-127.19987 84.00041-251.40092 105.40039-385.30078 17.79998-8.09999 33.50002-19.29883 55-17.79883 5.99999-7.39999 25.2996-17.90001 20.09961-30.5 34.29997-3.7 67.69925-19.30001 99.69922-32-0.7-1.5-2.19922-2.20117-3.69922-3.70117 19.29998-16.39998 47.59924-9.69885 66.19922-26.79883-6.69999-25.999973 29-17.100412 29-39.40039-0.8-1.499998-7.49922 5.199995-11.19922 0-11.09999 0.799999-31.89999 1.499199-24.5-17.800781 46.89995-11.199989 97.5008-14.199617 145.8008-21.59961 5.3-4.499995 13.3984-4.500396 16.3984-10.40039-2.2-14.0999861-17.0992-12.699219-28.1992-12.699219zm781.5957 89.277344c-11.2082-1.706249-14.9703 17.260936-26.6953 14.023436-6.6-5.999993-12.6008 2.89844-17.8008 5.89844-32.7 20.79998-46.0988 59.40042-57.2988 94.40039-23 28.29997-32.7016 62.50003-46.1016 94.5-22.3 55.79994-54.9992 107.09967-64.6992 168.09961-20.9 25.99997-14.2008 64.70042-28.3008 94.40039-25.2 52.79995-27.4996 113.80084-14.0996 173.30078 8.9 8.99999 8.2008 22.39884 20.8008 29.79883 33.5 18.59998 69.9004 12.59998 101.9004-3 43.1999-37.99996 85.6-80.40004 123.5-122 8.2 13.39999-10.4004 19.30119-8.9004 34.20117-12.7 28.29997-6.0012 50.59886-11.2012 81.79883 9.7 5.89999 14.1004 18.60001 8.9004 29 26 49.79995 83.2012 11.90117 119.7012 6.70117-17.1 14.89999-16.4 37.19962-32 52.09961 0 11.19999-13.4004 13.40079-10.4004 26.80078-15.6 8.19999-11.2008 31.29923-26.8008 37.19922-3.7 17.09998-21.5988 29.69962-25.2988 44.59961 5.2 9.59999 11.8984-3.69882 17.8984 2.20117-1.5 9.69999-5.1992 20.09884-3.6992 28.29883 28.2 0 33.4008-32.00041 49.8008-48.40039 6.7 6.69999-5.9008 26.00156 11.1992 21.60156 8.9-12.59999 17.1-26.00118 30.5-37.20117 0 5.99999-5.2 13.39962-6 21.59961 2.2 1.5 4.4004 4.5 7.4004 3 27.5-26.79997 45.4-63.99925 62.5-98.19922 1.5-4.5 9.7004-19.30038 16.4004-10.40039 0.7 3 7.3984 5.2 10.3984 1.5 5.2-19.29998 20.1008-34.90002 26.8008-53.5 41.7-64.69994 75.1008-132.2989 110.8008-199.29883 4.4-6.59999 10.3988-16.30078 19.2988-16.30078-5.9-16.39998 13.3996-9.0004 20.0996-17.90039 2.2 0.7 1.5 3.70117 1.5 5.20117 5.3-2.2 11.9004-2.20118 16.4004-6.70117 27.5-2.2 39.4004-32.0004 65.4004-37.90039 9-4.4 22.3008-3.69962 26.8008-14.09961 18.6-0.7 32.6996-17.09961 50.5996-14.09961 3 31.99997-6.7012 69.20042-3.7012 101.90039-7.5 18.59998 5.9004 34.89884 8.9004 49.79883-18.6 27.49997-3 62.50003 0 93 5.9-4.5 1.5004-20.79883 10.4004-25.29883 8.2 8.19999 0 19.39884 0 28.29883 14.1 11.89999 2.1996 37.20158 12.5996 52.10156-3 8.19999 1.5012 17.09884 5.2012 25.29883 6.7 4.39999 10.3996-9.69999 14.0996 0 5.9 11.89999-8.9004 11.09961-11.9004 15.59961 5.2 6.69999 2.8996 19.30156 14.0996 20.10156 1.5 11.89999 5.9008 30.49923-11.1992 35.69922 5.9 3.7 3.7004 10.39961 8.9004 14.09961 3.7 0 7.3984-0.69922 8.8984-3.69922 9 8.89999 6 25.29923 6 35.69922 2.2 3 6.7012 5.90039 5.2012 10.40039 5.9 3.7 5.2004-5.20039 10.4004-8.90039-3.7-27.49997 8.1992-60.19925 3.6992-90.69922 32-216.39978 20.8004-457.39982 71.4004-665.59961-3.7-3-0.0012-8.20117-3.7012-11.20117-23.8-11.89999-41.6992-5.2004-67.6992-11.90039-9.6 0.7-6.6004-10.49844-7.4004-16.39844-9-4.49999-20.9-10.40039-33.5-10.40039-12.6 6.69999-13.2996 23.10001-14.0996 33.5 3 39.39996-39.3992 54.99885-64.6992 80.29883 0.7 3.7-6.0012 4.50039-3.7012 8.90039-19.4 12.69999-31.9992 31.30041-44.6992 48.40039-17.1 11.19999-14.1012 34.2004-35.7012 40.90039 5.2 31.99997-43.1992 31.29886-37.1992 58.79883-2.2 3.7-5.9004 4.50117-8.9004 2.20117-8.9 19.39998-33.4992 31.99963-37.1992 55.09961-24.5 22.29998-21.6 63.2004-59.5 71.40039-6.7 21.59998-29.6996 20.10001-44.5996 32-7.4 16.39998-29.0016 20.10001-44.6016 29-9.7 8.99999 8.9004 7.5004 5.9004 17.90039-0.8 13.29999-17.1004 19.99845-14.9004 31.89844 16.4-4.4 33.5004-11.89961 48.4004-14.09961-21.5 43.79996-61.7 75.80122-84 119.70117-3.7 4.5-7.4004-0.70117-10.4004-3.70117-10.4-1.5-19.3-12.69962-23-21.59961-5.2-13.39999 0.7-27.5004 1.5-40.90039 49.1-145.09986 107.1013-285.60013 182.2012-419.5v-11.19922c0.7-14.19999-13.3996-17.89961-23.0996-23.09961-1.5-6.69999 4.4992-10.40157 6.6992-15.60156 4.5-10.39999-3.7004-20.10001-8.9004-29-14.9-8.19999-27.5004-7.39999-42.4004 0-6-15.59999-23.1-5.89962-32-14.09961-22.3 17.09998-29.6996 43.20002-44.5996 64 0.7 11.19999-17.0992 16.40079-11.1992 26.80078-17.2 8.99999-20.9 34.19963-33.5 50.59961-20.1 12.59999 15.5988 22.29923-3.7012 35.69922-5.2 2.3-11.1984 9.70117-16.3984 6.70117 2.2 5.89999-3.7 8.89962-1.5 14.09961-11.9 11.89999-8.2012 27.49962-3.7012 41.59961-17.9 7.39999-17.9004 32.0008-17.9004 51.30078-20.1 12.59999-5.1996 39.40001-21.5996 53.5-3.7 51.99995-59.5004 87.69925-95.9004 121.19922-7.4 17.79998-28.1984 22.30041-37.8984 37.90039-25.3 13.29999-48.3008 52.70078-81.8008 48.30078-11.9-5.89999-12.6004-21.60118-8.9004-32.70117 21.6-76.69992 45.4001-152.49928 94.5-217.19922 10.4-43.09996 35-81.00121 61-118.20117 14.9-20.09998 3.8008-51.29924 28.3008-67.69922 14.8-35.69996 40.8-67.00043 53.5-103.40039-7.5-16.39998-20.1-11.89962-32-20.09961 20.8-18.59998-17.1012-28.29963-5.2012-47.59961-1.5-3.699996-4.3988-6.700002-7.2988-8.999999-1.95-1.212499-3.7035-1.879297-5.3047-2.123047zm1149.2051 16.623046c-15.6 16.29998-34.2008-2.1996-49.8008 8.90039-15.6 19.29998-43.9 14.09883-64 17.79883-29.7-5.2-58.6992 12.59961-89.1992 15.59961-12.6 12.59999-33.4008 11.90001-48.3008 21.5-0.7-0.8-1.5-0.8-1.5-1.5-14.9 3.7-29.6996 13.40156-44.5996 12.60156-8.2-0.8-11.2004 6.69844-14.9004 11.89844-29 4.49999-55 26.80118-85.5 34.20117-11.9 11.89999-5.2008 31.99962-19.3008 43.09961-12.7-0.8-20.7992 15.60038-34.1992 8.90039 3 13.39999-5.1992 20.79923-5.1992 35.69922 5.9 20.89998 32.6992 0.79963 35.6992 23.09961-1.5 36.39996 46.7996-6.69996 46.0996 30.5 36.4 20.09998 66.8996-20.89884 98.0996-26.79883-4.5 23.79998-18.5996 43.09924-23.0996 67.69922-11.9 12.69999-14.0988 31.99962-17.7988 46.09961-30.5 63.19994-43.9012 133.90163-67.7012 200.10156-2.2 5.9-4.4988 17.79883 5.2012 19.29883-0.8 14.09999-10.5016 24.5-23.1016 29-12.7 27.49997-17.8 58.00003-30.5 85.5 5.9 2.9 14.8012 7.39962 5.2012 14.09961-16.4-1.5-4.5004 22.30001-11.9004 30.5 11.9 10.39999-2.2004 14.10079-8.9004 19.30078-11.2 31.99997-46.7988 68.39925-25.2988 98.19922-16.3 13.39999 0 31.3004 0 46.90039 12.7 6.59999 11.8996-16.39962 21.5996-23.09961 6 7.49999 0.8 23.10079 0 28.3008 19.4-16.4 16.3988-48.30043 26.7988-71.40041 2.2-8.19999 7.4008-12.60039 17.8008-10.40039 7.5 10.39999-0.7008 20.80001 6.6992 32 24.5-53.59995 46.1004-108.60044 69.9004-162.90039 19.3 5.89999-0.7996 26.00118 10.4004 34.20117 7.4-5.19999 13.3008-8.90079 16.3008-17.80078 27.6-126.39987 50.5988-253.6009 90.7988-374.80078 5.9 0 3.7004 7.40039 8.9004 7.40039 15.6-33.49997 18.4996-73.60042 41.5996-101.90039 2.2 0.8 8.9012 4.50117 5.2012 6.70117 0 4.5 0.6992 8.20039 5.1992 8.90039 8.2-16.29998 20.7996-30.5008 23.0996-49.80078 2.9-22.39998 29.6996-14.90079 43.0996-26.80078 51.3-8.99999 108.5001-1.49957 140.5 39.40039 9 22.39998-6.6996 39.4008-14.0996 57.30078-22.3 28.19997-46.1004 55.80003-63.9004 85.5-8.2 3-11.0988-5.20117-17.7988-5.20117-27.5 19.29998-41.7012-29.7-66.2012-29-1.5 4.49999-14.0984 14.10079-7.3984 23.80078 8.9 17.09998 42.4 22.99963 30.5 46.09961-14.1 5.19999-29.0004 5.89999-42.4004-1.5-16.4 2.3-11.2008 22.39961-26.8008 24.59961-0.8 8.09999 8.9004 7.40157 11.9004 14.10156 17.1 2.2 23.0992 22.30001 35.6992 30.5 17.8-5.19999 30.5016 8.99845 44.6016 16.39844 7.5 25.29997 36.4996 32.7008 52.0996 49.80078 0.7 21.59998 24.4992 35.69963 35.6992 52.09961 11.2 6.79999 29 5.99963 32 23.09961 99.6999 49.09995 159.1005 144.30006 248.4004 210.5 107.0999 63.89993 197.8005 156.20158 303.4004 223.10158 3.7 3 11.9004 2.1988 8.9004-5.2012-98.0999-52.0999-171.0001-150.99927-262.5-212.69921-1.5-2.2 3-3.00117 1.5-5.20117-21.6-23.79998-48.4004-46.89846-74.4004-71.39844-68.4999-40.19996-122.7005-113.80003-193.4004-148 5.2-3 13.4004-1.50117 16.4004-5.20117-36.4-30.49997-73.5997-59.49926-107.0996-96.69922-35-7.39999-43.1004-49.80041-71.4004-69.90039-1.5-4.5-10.4-9.69922-1.5-14.19922 11.9 6.69999 23.1 19.40001 32 30.5 5.9 5.9 27.5-6.00037 21.5 12.59961 14.9 13.39999 37.8988 20.09924 51.2988 37.19922 5.2 6.69999 19.4016 11.19999 20.1016-1.5 9 8.19999 18.6996 19.30001 24.5996 30.5 36.4 24.49997 49.8004 72.90001 94.4004 85.5 18.6 22.29998 35.7 51.30001 61 64 80.9999 53.49995 148.6989 116.00006 226.7988 177 17.1 11.89999 29.6996 26.80118 46.0996 37.20117 21.6 8.89999 38.7 53.50002 62.5 32.00002-3.8-8.2-11.1996-19.40158-21.5996-23.10158-15.6-37.19996-54.3004-29.80004-72.9004-64-42.2999-28.99997-80.9992-69.89847-119.6992-103.39844-32-46.79995-88.5-61.70005-117.5-113-19.4-20.79998-50.6-22.30159-62.5-47.60156-41.7-32.69997-66.2004-81.00004-101.9004-116-11.2-8.19999-25.3-17.90001-32-29 81.0999-40.19996 184.4004-117.49854 188.9004-217.89844 2.2-52.79995-17.9008-96.7016-58.8008-131.60156-34.1999-21.69998-68.3996-54.29961-107.0996-53.59961-17.1-16.399984-43.8988 2.20077-60.7988-8.69922zm-1922.3926 15.66406c-8.8506-0.23632-18.2324 3.56055-24.6074 7.43555-11.1 17.09998-31.9008 6.60039-49.8008 7.40039-22.29998 0-17.80001 25.99923-23 37.19922-16.39998 3.7-9.7004-14.89962-16.40039-21.59961-8.99999 2.2-13.39962-2.20078-21.59961 2.19922-4.5 19.29998-11.19962 37.90002-23.09961 55-31.89997 25.29997-35.70002 65.5012-53.5 98.20117-15.69998 0.7-1.5004 14.79883-16.40039 17.79883-10.49999 14.09998-13.4008 36.40079-29.80078 48.30078-3.7 26.09997-37.89844 49.09964-37.89844 78.09961 0 12.59999-11.20157 24.50118-23.10156 32.70117 7.39999 22.29998-15.69962 37.90002-23.09961 56.5-6.69999 3-17.09961 0.69845-20.09961 8.89844-14.09999 0-32.0004 6.0004-42.40039 16.40039 2.9 2.2 12.60039 2.2004 8.90039 7.40039-3 17.79998 20.10079 8.89961 26.80078 14.09961-2.3 8.19999-9.70117 14.89962-12.70117 23.09961 8.19999 14.19998-15.60038 14.90079-7.40039 28.30078-18.59998 22.99998-31.19845 49.79963-40.89844 75.09961-12.59999 8.09999-8.90079 23.0004-19.30078 31.90039-11.89999 25.99997-29.80001 52.00081-39.5 80.30078 12.69999 8.99999-11.20039 15.59884-10.40039 25.29883-13.39999 0-2.99923 13.40039-11.19922 17.90039 1.5 18.59998-19.30078 26.7008-19.30078 48.30078-1.5 17.79998 7.39999 26.69963 1.5 46.09961 23.79998-11.89999 26.8004-41.60002 40.90039-62.5h3.80078c5.9 8.89999-2.30118 21.60001-6.70117 30.5-3.7 4.4-2.19882 16.29961 5.20117 14.09961 16.29998-34.99996 28.99885-72.20042 51.29883-103.40039 3 16.29998-3.0004 33.4008-8.90039 48.30078 16.39998 13.39999-7.39999 31.99962 0 46.09961 8.89999-8.09999 11.90079-22.2004 17.80078-33.40039-5.19999-26.09997 27.50078-31.29885 25.30078-55.79883 43.09996-90.69991 78.79849-184.40048 126.39844-272.90039 12.69999 0.8 20.80001-9.69961 30.5-14.09961 44.59995-13.39999 93.00161-29.80041 137.60156-48.40039l3.69922 3.69922c1.5 46.09995 3.69922 103.40122 5.19922 151.70117-10.39999 24.59998 17.80038 40.89925 7.40039 67.69922-14.79999 11.89999 4.5 29.79963 3 46.09961 5.99999 7.49999 7.50039 20.90039 17.90039 17.90039 8.9-9.69999-1.4996-31.29922 8.9004-37.19922-9.7 26.79997 26.6996 38.70003 12.5996 62.5 1.5 12.69999 2.3004 26.80001 16.4004 32 6.7-20.09998-8e-4 -47.60119 12.6992-69.20117 10.4 2.2 11.1008 18.60079 19.3008 26.80078 17.1 9.69999 10.3996-14.19962 14.0996-21.59961-2.3-170.99983 1.4008-353.20095 17.8008-522.80078-0.7-31.29997 14.1-64.00003-1.5-91.5-30.4 2.2-9.6008-35.7008-17.8008-51.30078-4.1625-3.9-9.2815-5.49297-14.5918-5.63477zm384.1914 17.43555c-44.5999 6.69999-87.0004 16.30041-124.9004 37.90039 0 6.69999-7.4992 7.49922-12.6992 6.69922-31.2 17.09998-43.8996 57.19963-73.5996 73.59961-14.8 32.69997-48.3012 52.80003-58.7012 87-57.2999 85.49991-62.4992 205.20166-37.1992 307.10156 24.6 55.09995 66.2001 109.29846 125 132.39844 40.2 23.79997 91.5004 31.20077 135.4004 19.30078 32.7-5.19999 46.8992-37.89924 67.6992-60.19922 17.1-1.5 22.3012 14.10001 32.7012 24.5 20.8-3.7 8.2 36.4996 33.5 23.09961 3.7 3.8-8e-4 9.69922 3.6992 12.69922 2.9-1.5 6.6004-1.49922 8.9004-5.19922-1.5-12.69999-5.2012-26.10118-3.7012-37.20117-27.5-118.19988 40.1004-220.79973 40.9004-336.09961-11.2-8.89999-20.1 9.70117-32 11.20117-4.5-2.3-2.8992-6.80118-3.6992-11.20117-3-11.89999-12.6996-14.10039-23.0996-8.90039-22.3 24.49997-52.1016 31.20157-78.1016 44.60156-8.9 6.69999-34.2-7.40154-29 14.89844-19.3 4.39999-46.0988 7.40119-51.2988 29.70117-37.2 2.3-24.5008 46.19884-57.3008 55.79883-6 5.99999 2.2012 9.70039 6.7012 10.40039 31.2-20.79998 66.8985-30.49963 100.3984-46.09961 5.2-6.69999 12.6012 2.99922 5.2012 6.69922 17.8-0.7 33.3988-11.89844 49.7988-10.39844-11.2 27.49997-14.1996 51.29886-21.5996 80.29883 5.9 27.49997-17.0988 55.00081 3.7012 80.30078-10.4 8.19999 7.3984 12.69962 7.3984 21.59961-28.3 24.59998-62.4985 39.39999-101.8984 30.5-44.6-7.39999-81.1008-41.59964-112.3008-73.59961-38-54.99994-35.0004-135.30084-16.4004-197.80078 37.2-93.59991 133.0997-161.29886 221.5996-194.79883 24.6-6.59999 50.6004-7.40079 72.9004-19.30078 8.2-8.19999 8e-4 -17.90079-3.6992-25.30078 4.5-2.2 8.9992-4.49922 12.6992-6.69922 6-8.19999-2.2004-16.40039-8.9004-14.90039-24.6 10.39999-22.2984-21.59883-42.3984-26.79883 11.2-31.19997-26.7012-11.9008-35.7012-35.80078zm917 142.90039c-0.7 5.89999 1.5012 9.7 5.2012 12.5 5.3 0.7 10.3992-5.90039 11.1992-8.90039 0.7 20.09998-13.3992 36.5008-11.1992 55.80078-9.6 3-11.9004 14.89962-10.4004 23.09961 12.6 10.39999-8.9 14.90002-1.5 30.5-22.3-14.19999-38.7008 8.19962-57.3008 14.09961-3.7 19.39998-28.9992 12.69962-35.6992 23.09961h-5.2012c23.8-54.99995 66.2004-101.89927 104.9004-150.19922zm-1402.5996 7.5c2.2 50.49995-3.70078 97.40005-2.30078 148-22.99998 10.39999-50.49845 17.10041-65.39844 39.40039-13.39999-5.19999-25.30118 1.49844-35.70117 7.39844-5.99999 8.99999-3.79963 23.10039-21.59961 19.40039-2.2-4.5-2.2-9.69922 0-14.19922 31.29997-62.49994 62.49926-124.20123 99.69922-183.70117 6.69999 17.89998 15.60157-2.19844 20.10156-7.39844 0-3.7 3.69922-5.90039 5.19922-8.90039zm1832.7031 239.32031c-7.0118 0.18824-13.0976 4.25392-17.5039 15.87891 13.4 11.19999 1.5 17.90001 0 30.5 6.7 11.09999 20.1 8.90039 32 8.90039 8.2 17.09998 29.0004 8.20039 40.9004 10.40039 7.5 11.89999 12.6996 23.79923 23.0996 34.19922 34.3 18.59998 61.0008 52.00081 87.8008 81.80078 3.7 14.09999 18.6008 14.89884 26.8008 25.29883 27.6 7.39999 30.4988 43.90001 58.7988 55 35.7 20.79998 73.7 43.10082 94.5 80.30078 68.3999 17.09998 107.0997 95.99925 168.0996 127.19922 10.4 8.89998 22.3012 19.30078 35.7012 17.80078 92.2999 82.4999 194.0997 144.2997 287.0996 224.5996 3 3 9.6992 3 11.1992 0-22.3-32.8-61.8-60.9988-91.5-89.2988-43.1999-36.5-97.3996-46.9001-137.5996-93-62.4999-58.69996-113.8001-116.00007-181.5-169.50002-24.5-6.69999-45.3004-21.60001-68.4004-33.5-19.4-37.99996-61-65.50003-94.5-93-4.4-25.29997-33.3988-29.70158-49.7988-44.60156-32.8-53.59995-91.5-87.79966-125-139.09961-10.4-0.7-18.6008-7.39962-26.8008-12.59961-4.5-9.69999-11.8992-17.10039-21.6992-21.40039-16.3625 2.0625-36.2712-16.29302-51.6973-15.87891zm-6.0195 79.75196c-4.8546-0.0668-9.8281 0.9832-14.9844 3.62695-8.9 21.59998 21.6 18.60001 32 29 2.2 4.39999 2.2004 11.89961 7.4004 14.09961 8.9 28.99997 41.6012 22.30041 60.2012 39.40039 5.9 55.79994 75.7984 66.90005 94.3984 117.5 50.6 33.49997 82.6009 98.89962 142.8008 107.09961 4.5 8.99999 5.2004 20.10079 14.9004 25.30078 174.0998 146.4999 360.7002 268.5009 537 406.8008 8.9 2.9 17.0988 8.8984 26.7988 8.8984-64.6999-59.4999-141.3-110.7996-209-168.0996-12.6-10.4-36.3984-10.4-39.3984-32-16.4 2.3-27.5012-13.3-38.7012-21.5 1.5-16.4-22.2996-8.1996-20.0996-23.0996-22.3-17.1-49.1004-31.2008-72.9004-49.8008-1.5-26.7-33.3996-17.0984-44.5996-39.3984-28.3-3-39.3992-35.70159-64.6992-46.10158-1.4-9.59999-8.1008-20.79882-19.3008-16.29883-13.4-13.39999-43.1004-17.80041-39.4004-40.90039-19.4-18.59998-37.9992-54.30038-69.1992-40.90039-15.6-20.09998-29.6996-40.90002-41.5996-62.5-37.2-33.49997-81.1016-65.39887-107.1016-110.79883 0.7-19.29998-11.8988-33.50157-26.7988-46.10156-14.9-9.69999-33.4996-16.40001-46.0996-29-21.775-3.65625-40.5808-24.93711-61.6172-25.22656zm-127.3828 225.32812c-27.5 8.19999-14.1008 42.40002-25.3008 62.5-2.2 2.9-5.2004 3.69922-8.9004 3.69922-2.2 3-6.6004 5.20039-7.4004 8.90039 9.7 2.2 9.0004 14.09961 16.4004 15.59961 17.1-25.29997 30.5012-52.80081 34.2012-83.30078-3-3-6-5.99844-9-7.39844zm41.1992 144c-22.6 0-26.9004 71.00002-26.9004 71.00002-107.0999 24.7-163.5 53.8992-163.5 88.1992 0 14.8 16.8 21.8004 28 24.9004 1.8 0.5 1.9012 2.9996 0.2012 3.5996-23.5 8.2-19.6004 46.4996 9.5996 45.5996 15.4-0.4 96.2988-41.2988 96.2988-41.2988s-105.7988 268.3989-105.7988 357.7988c0 0 3.2004 44.7012 28.9004 44.7012 16 0 23.5996-21.0004 27.0996-36.9004 0.6-2.7 4.4992-2.7996 5.1992-0.0996 2.3 8 6.5004 15.7988 14.4004 15.7988 0 0 13.5 2.7008 13.5-32.1992 0-62.7999 50.6004-151.2008 72.4004-205.8008 15.9-39.8 36.0004-101.8 39.9004-150 2.3-28.5 16.7989-51.4004 97.7988-51.4004 47.4 0 98.2004 10.3005 92.4004 84.9004-5.9 76.6999-189.5008 190.6008-239.8008 218.3008-39.6999 21.9-35.9 58.9996-32.5 73.5996 0.7 2.9-1.0996 6.0992-4.0996 6.6992-11.5 2.2-10.7004 11.6004-8.4004 18.4004 1.4 4.2 6.0016 6.6008 10.1016 4.8008 161.0998-70.4999 376.2988-195.8009 376.2988-353.8008 0-115.3999-99.4993-141.5996-151.1992-141.5996h-112.5v-5.1992c0-7.4-4.0996-14.3-10.5996-18.00002-14.7-8.29999-41.1008-22-56.8008-22zm866.2305 43.60942c-2.6684-0.0638-5.4493 0.9961-8.2305 3.5898 6.7 27.5 40.9008 31.2 57.3008 55 17.8 1.4 33.3988 31.9996 48.2988 14.0996-23.1-9.7-33.4988-36.3996-55.7988-47.5996-11.2 0.7-17.9008-8.9992-26.8008-12.6992-3.575-6.6688-8.8992-12.2505-14.7695-12.3906zm-1140.6133 18.8457c-15.3633-0.3936-35.9414 4.4824-45.8164 6.5449-94.4999 20-216 93.9986-216 255.8984 0 161.8999 122.0993 192.3008 212.1992 192.3008 89.9999 0 151.5996-61.8008 151.5996-61.8008 13.3-14.4 14.8008-29.9 9.3008-41-3.1-6.3-0.2012-11.4988 2.7988-14.7988 4.2-4.4 7.4016-9.9996 7.6016-16.0996 0.3-6.4-2.5-9.5004-6-10.9004-5.7-2.3-16.3004 2-19.9004 7-65.0999 89.8999-146.5 76.7988-146.5 76.7988-130.4999 0-123.0996-125.2988-123.0996-125.2988 0-112.2999 119.4997-160.4004 186.0996-165.9004 21-2.6 39.1004-17.0008 39.9004-30.3008 1.5-23.1 14.6988-17.6992 12.2988-40.1992-3.4-31.8-40.6004-9.0996-45.9004-24.0996-2.025-5.775-9.3641-7.9084-18.582-8.1445zm1250.582 59.7441c-6.7 2.2-2.8992 8.8996-3.6992 14.0996 6 11.1 17.2008 16.3008 28.3008 19.3008 39.3999 20.9 76.5992 52.0988 119.6992 57.2988-32-26.1-70.5996-40.9-105.5996-64-14.1-5.9-23.0012-24.4992-38.7012-26.6992zm-44.8535 49.0625c-4.5014 0.198-7.6703 5.4117-3.4453 9.6367 25.3 18.6 50.5996 37.2008 78.0996 49.8008 5.2 1.5 13.3008 7.4 17.8008 0-29-17.8-57.2012-43.7992-89.2012-58.6992-1.1062-0.5625-2.2151-0.784-3.2539-0.7383zm-3425.44531 3.5371c-62.89994 0-114 51.0001-114 114s51.00006 114 114 114c62.89994 0 114-51.0001 114-114s-51.10006-114-114-114zm339.29883 0c-62.89994 0-114 51.0001-114 114s51.00006 114 114 114c62.89994 0 114-51.0001 114-114s-51.10006-114-114-114zm339.30078 0c-62.89994 0-114 51.0001-114 114s51.00006 114 114 114c62.89994 0 114-51.0001 114-114s-51.10006-114-114-114zm339.3008 0c-62.9 0-114 51.0001-114 114s51 114 114 114c62.8999 0 114-51.0001 114-114s-51.0001-114-114-114zm339.2988 0c-62.8999 0-114 51.0001-114 114s51.0001 114 114 114c62.8999 0 114-51.0001 114-114s-51.0001-114-114-114zm339.3008 0c-62.8999 0-114 51.0001-114 114s51.0001 114 114 114c62.8999 0 114-51.0001 114-114s-51.0001-114-114-114zm-1691.20118 43.4004c13.89998 0 25.0004 2.1008 35.40039 6.3008l-2.09961 26.7988c-5.89999-3.9-15.39923-7.1992-28.69922-7.1992-24.19997 0-31.70039 15.9996-31.90039 40.0996h0.40039c6.39999-9.2 15.80001-13.9004 29.5-13.9004 24.99998 0 40.79883 18.6 40.79883 43 0 25.1-21.09925 46-51.19922 46-38.89996 0-52.40039-30.4992-52.40039-64.6992 0-41.8 15.09926-76.4004 60.19922-76.4004zm1639.40038 2.3008h103.5996v27h-33.5996v109.3984h-36.4004v-109.3984h-33.5996v-27zm-1313.99999 0.0996h40.30078v85.7988h19.29883v24.6016h-19.29883v26h-34v-26h-61v-28.9004l54.69922-81.5zm631.90039 0h62.6992c25.4 0 44.4004 11.0996 44.4004 34.5996 0 17.2-8.8 26.8004-24 31.9004v0.4004c18.2 3.7 27.5996 13.4996 27.5996 30.0996-0.1 32.5-28.7992 39.4004-53.1992 39.4004h-57.5v-136.4004zm376.4004 0h36.4004v136.4004h-36.4004v-136.4004zm-340 25.6992v28.0996h10.1992c11.8 0.1 24.2012-2.7984 24.2012-14.3984 0-12.5-11.7008-13.7012-23.8008-13.7012h-10.5996zm-660.09962 2.4004-37.20117 57.6992h37.59961v-57.6992h-0.39844zm3118.66992 25.8984c-2.565-0.0191-4.998 1.6426-7.2715 6.002 10.4 9 23.8012 21.6004 35.7012 16.4004v-3.8008c-10.2594-0.5359-20.0507-18.5391-28.4297-18.6016zm-2805.4707 1.3008h53v25.8008h-53v-25.8008zm-654.80078 18.9004c-11.89999 0-17.79883 9.5996-17.79883 20.0996 0 11.1 6.09884 20.9004 17.79883 20.9004 11.29999 0 17.40039-8.7988 17.40039-19.2988 0-11.3-4.7004-21.7012-17.40039-21.7012zm1001.70118 4.3008v32.0996h10.6992c13.3 0 27.2012-2.0008 27.2012-15.8008 0-14.9-14.3008-16.2988-26.8008-16.2988h-11.0996z"/>
</svg>
