<svg enable-background="new 0 0 3840 569.9" version="1.1" viewBox="0 0 3840 569.9" xml:space="preserve" xmlns="http://www.w3.org/2000/svg">
<path fill="#353535" d="m1440.8008 14.230469c-20.8352-0.381811-41.7575 9.662534-53.7012 26.96875-9.2 12.299974-11.1004 28.00159-15.9004 42.101562-45.5998 157.399679-91.499 314.799149-136.7988 472.298829h83.9004c13-45.29992 26.3984-90.60049 39.3984-135.90039 54.4-0.1 108.7016 0 163.1016 0 13.2 45.2999 26.1988 90.70008 39.2988 136 28.2-0.1 56.3996 0.10038 84.5996-0.0996-47.6998-164.0997-95.4992-328.09955-143.1992-492.199229-6-22.199956-23.5004-41.901184-46.4004-47.201172-4.6875-1.237498-9.4907-1.88064-14.2988-1.96875zm-597.36135 0.115234c-18.896 0.147437-37.82619 8.222296-49.63867 23.353516-11.79998 13.399972-13.80119 31.701596-19.20117 48.101562-45.59992 156.599679-90.99891 313.199539-136.29883 469.699219 27.99994 0.1 56.00006-3.8e-4 84 0.0996 13.09998-45.39992 26.29963-90.7001 39.59961-136 54.3999 0.1 108.79893-3.8e-4 163.29883 0.0996 13.09998 45.2999 26.10041 90.60047 39.40039 135.90039 28.19994-0.1 56.29999 0 84.49999 0-47.5998-164.19964-95.59892-328.3003-143.29882-492.499981-3.79998-13.199972-11.20119-25.398846-21.70117-34.298828-11.28748-9.88748-25.96326-14.569751-40.66016-14.455078zm-783.638669 0.455078c-32.899967 0-59.800781 26.898861-59.800781 59.798828v420.701171c0 32.89997 26.900814 59.79883 59.800781 59.79883h420.699219c32.89997 0 59.80078-26.89886 59.80078-59.79883v-420.701171c-0.1-32.899967-26.90081-59.798828-59.80078-59.798828zm1698.699219 0.5c-8.2-0.2-16.4992 0.698442-24.1992 3.398438-26.3 8.399982-46 34.500837-46 62.300781 0.2 158.29968-8e-4 316.49954 0.1 474.69922 27.1 0 54.0992-0.1 81.1992 0 0-146.9997-0.1-293.89874 0-440.89844-0.2-9.49998 8.6996-17.699999 18.0996-17.499999 20.8-0.2 41.6004-0.0016 62.4004-0.101562 30.1-0.999998 58.6 22.001231 65 51.201171 5.5 22.49996 6.1004 47.90004-6.0996 68.5-16.1 27.39994-44.6992 44.80041-73.6992 55.90039-15.2 5.9-28.9016 17.29846-34.6016 32.89844-7.3 20.29996-3.9988 44.00082 8.2012 61.80078 41.4998 62.69988 82.7004 125.59934 124.4004 188.19922 31.7998-0.2 63.7 3.8e-4 95.5-0.0996-43.5-65.29988-87.9002-130.10053-130.5-195.90039-4.5-9.19998-4.1004-21.99963 4.5996-28.59961 15.8-11.69998 34.2004-19.69885 48.9004-32.79883 27.9-24.09994 43.2-60.40125 46-96.70117 4.0992-34.69996 2.3988-71.49968-13.8012-103.09962-23.4-48.599902-74.9998-82.199221-129.0996-83.199219-32.1 0-64.3004 0.1-96.4004 0zm-772.40039 0.09961c-0.1 27.499944 0 54.900446 0 82.40039 37.49999 0 74.99999-0.1 112.49999 0v457.798829h80.5996v-457.798829h112.5v-82.40039zm1085.20119 0c0 179.999639 0 360.099189-0.1016 540.298829 28.5 0 57.0004-0.1 85.4004 0 0.2-180.09964 0.1-360.19919 0.1-540.298829zm-632 122.599609c19.6 68.19986 39.4996 136.29975 59.0996 204.59961-39.4 0-78.8012 0.1-118.2012 0 19.6-68.19986 39.5016-136.39975 59.1016-204.59961zm-595.70119 0.30078c19.79996 68.09986 39.50082 136.19897 59.30078 204.29883-39.59992 0-79.10125 0.10038-118.70117-0.0996 19.89996-67.99986 39.40043-136.19936 59.40039-204.19922z"/><path fill="#FFFFFF" d="m208.19922 117c-0.1 10.39999 0 20.80001 0 31-0.7 30.69997-2.59922 61.29964-7.19922 91.59961-3.7 23.89998-9.09962 47.70119-19.09961 69.70117-8.59999 19.19998-19.8004 37.19884-33.90039 52.79883-13.69999 15.09998-29.90041 27.9004-47.90039 37.40039-15.199985 7.99999-31.500018 13.99961-48.500001 16.59961v52.59961c14.199986-2 28.000014-5.59922 41.5-10.19922 23.899981-8.19999 46.500021-20.39963 65.500001-37.09961 21.19998-17.99998 40.09962-39.4012 52.09961-64.70117 7.39999-15.69999 13.30117-32.19846 16.20117-49.39844 4.1-24.89997 5.70039-50.10081 6.90039-75.30078 0.7-17.39998 1.19961-34.8008 1.09961-52.30078v-62.69922zm37.40039 0v239.69922c0.1 37.39996-0.10039 74.80121 0.0996 112.20117 16.29998-0.2 32.70002-0.0996 49-0.0996v-351.80079c-16.39998 0-32.69963-0.1-49.09961 0zm60 0c0 19.19998 3.9e-4 38.39924-0.0996 57.69922-0.2 33.99996 0.9 68.00081 4 101.80078 1.6 15.59998 3.30039 31.39962 7.40039 46.59961 4.5 15.19998 10.20001 30.10079 18 43.80078 9.99999 17.69998 23.29923 33.30001 38.19922 47 9.09999 8.29999 18.50079 16.3004 28.80078 22.90039 14.19999 9.19999 29.60002 16.39844 45.5 21.89844 13.39999 4.59999 27.19923 8.20156 41.19922 10.10156v-52.60156c-7.09999-1.1-14.10001-2.8-21-5-24.59998-7.89999-47.20041-21.59846-65.90039-39.39844-19.59998-18.59998-34.60001-41.70159-45-66.60156-11-25.69998-15.89845-53.49964-19.39845-81.09961-4.29999-35.49997-5.50117-71.39965-5.20117-107.09961z"/><path fill="#9F3A35" d="m2478.8008 0c-81.6999 0-148.3008 66.500863-148.3008 148.30078 0 20.59998 4.2008 40.59963 12.3008 59.09961-44.9 38.99996-70.9004 95.09928-70.9004 155.69922 0 113.99989 92.7989 206.80078 206.7988 206.80078s206.8008-92.80089 206.8008-206.80078c0.1-60.59994-25.9008-116.79926-70.8008-155.69922 8.1-18.49998 12.3008-38.49963 12.3008-59.09961 0-81.799917-66.4993-148.30078-148.1992-148.30078zm496.0996 0c-157.0999 0-285 127.80016-285 285 0 157.09984 127.8001 285 285 285 157.0998 0 284.9004-127.80016 284.9004-285 0.1-157.19984-127.8006-285-284.9004-285zm580.1992 0c-157.0998 0-285 127.80016-285 285 0 157.09984 127.8002 285 285 285 157.0999 0 284.9004-127.80016 284.9004-285s-127.8005-285-284.9004-285zm-1076.2988 34.599609c62.6999 0 113.5 50.800063 113.5 113.500001 0 25.79997-8.7012 49.49963-23.2012 68.59961 49 30.29997 81.8008 84.40084 81.8008 146.30078-0.1 95.0999-77.0997 172.09961-172.0996 172.09961s-172.1016-76.99971-172.1016-172.09961c0-61.89994 32.8008-115.90081 81.8008-146.30078-14.5-19.09998-23.1992-42.79964-23.1992-68.59961 0-62.699938 50.8-113.500001 113.5-113.500001zm496.0996 0.201172c137.8999 0 250.1992 112.199359 250.1992 250.199219 0 137.89986-112.1993 250.19922-250.1992 250.19922s-250.2012-112.29936-250.2012-250.19922c0-137.99986 112.3013-250.199219 250.2012-250.199219zm580.1992 0c137.8999 0 250.2012 112.199359 250.2012 250.199219 0 137.89986-112.3013 250.19922-250.2012 250.19922-137.9999 0-250.1992-112.29936-250.1992-250.19922 0-137.99986 112.2993-250.199219 250.1992-250.199219zm-1076.2988 58.5c-29 0-52.6016 23.499639-52.6016 52.599609s23.5016 52.59961 52.6016 52.59961c29 0 52.5996-23.49964 52.5996-52.59961s-23.4996-52.599609-52.5996-52.599609zm496.0996 7.699219c-101.3999 0-184 82.5001-184 184 0 101.3999 82.5001 184 184 184 101.3999 0 184-82.5001 184-184s-82.6001-184-184-184zm580.1992 0c-101.3999 0-184 82.5001-184 184 0 101.3999 82.5001 184 184 184 101.3999 0 184-82.5001 184-184-0.1-101.4999-82.6001-184-184-184zm-1076.2988 27.09961c9.8 0 17.7988 8.00079 17.7988 17.80078s-7.9988 17.79883-17.7988 17.79883-17.8008-7.99884-17.8008-17.79883 7.9008-17.80078 17.8008-17.80078zm496.0996 7.70117c82.2999 0 149.1992 66.9993 149.1992 149.19922 0 82.29992-66.8993 149.19922-149.1992 149.19922s-149.3008-66.9993-149.3008-149.19922c0-82.29992 67.0009-149.19922 149.3008-149.19922zm580.1992 0c82.2999 0 149.2012 66.9993 149.2012 149.19922 0 82.29992-67.0013 149.19922-149.2012 149.19922-82.2999 0-149.2988-66.9993-149.2988-149.19922 0-82.29992 66.9989-149.19922 149.2988-149.19922zm-1076.2988 127.39844c-56.8 0-102.8008 46.00084-102.8008 102.80078s46.0008 102.80078 102.8008 102.80078c56.7999 0 102.7988-46.00084 102.7988-102.80078s-46.0989-102.80078-102.7988-102.80078zm0 34.70117c37.4999 0 68 30.50004 68 68s-30.5001 68-68 68c-37.5 0-68-30.50004-68-68s30.5-68 68-68z"/>
</svg>
