<?xml version="1.0" encoding="utf-8"?>
<!-- Generator: Adobe Illustrator 25.0.0, SVG Export Plug-In . SVG Version: 6.00 Build 0)  -->
<svg version="1.1" id="Layer_1" xmlns="http://www.w3.org/2000/svg" xmlns:xlink="http://www.w3.org/1999/xlink" x="0px" y="0px"
	 viewBox="0 0 3840 569.9" style="enable-background:new 0 0 3840 569.9;" xml:space="preserve">
<style type="text/css">
	.st0{fill:#FFC20B;}
	.st1{fill:#353535;}
	.st2{fill:#FFFFFF;}
	.st3{fill:#9F3A35;}
</style>
<g>
	<g>
		<path class="st1" d="M480.5,14.8H59.8C26.9,14.8,0,41.7,0,74.6v420.7c0,32.9,26.9,59.8,59.8,59.8h420.7
			c32.9,0,59.8-26.9,59.8-59.8V74.6C540.2,41.7,513.4,14.8,480.5,14.8z"/>
		<g>
			<path class="st2" d="M208.2,117c8.9,0,17.8,0,26.7,0c0,20.9,0,41.8,0,62.7c0.1,17.5-0.4,34.9-1.1,52.3
				c-1.2,25.2-2.8,50.4-6.9,75.3c-2.9,17.2-8.8,33.7-16.2,49.4c-12,25.3-30.9,46.7-52.1,64.7c-19,16.7-41.6,28.9-65.5,37.1
				c-13.5,4.6-27.3,8.2-41.5,10.2c0-17.5,0-35.1,0-52.6c17-2.6,33.3-8.6,48.5-16.6c18-9.5,34.2-22.3,47.9-37.4
				c14.1-15.6,25.3-33.6,33.9-52.8c10-22,15.4-45.8,19.1-69.7c4.6-30.3,6.5-60.9,7.2-91.6C208.2,137.8,208.1,127.4,208.2,117z"/>
			<path class="st2" d="M245.6,117c16.4-0.1,32.7,0,49.1,0c0,117.2,0,234.5,0,351.8c-16.3,0-32.7-0.1-49,0.1
				c-0.2-37.4,0-74.8-0.1-112.2C245.6,276.8,245.6,196.9,245.6,117z"/>
			<path class="st2" d="M305.6,117c8.8,0,17.7,0,26.5,0c-0.3,35.7,0.9,71.6,5.2,107.1c3.5,27.6,8.4,55.4,19.4,81.1
				c10.4,24.9,25.4,48,45,66.6c18.7,17.8,41.3,31.5,65.9,39.4c6.9,2.2,13.9,3.9,21,5c0,17.5,0,35,0,52.6c-14-1.9-27.8-5.5-41.2-10.1
				c-15.9-5.5-31.3-12.7-45.5-21.9c-10.3-6.6-19.7-14.6-28.8-22.9c-14.9-13.7-28.2-29.3-38.2-47c-7.8-13.7-13.5-28.6-18-43.8
				c-4.1-15.2-5.8-31-7.4-46.6c-3.1-33.8-4.2-67.8-4-101.8C305.6,155.4,305.6,136.2,305.6,117z"/>
		</g>
	</g>
	<g>
		<path class="st1" d="M793.8,37.7c21-26.9,64.5-31.5,90.3-8.9c10.5,8.9,17.9,21.1,21.7,34.3c47.7,164.2,95.7,328.3,143.3,492.5
			c-28.2,0-56.3-0.1-84.5,0c-13.3-45.3-26.3-90.6-39.4-135.9c-54.5-0.1-108.9,0-163.3-0.1c-13.3,45.3-26.5,90.6-39.6,136
			c-28-0.1-56,0-84-0.1C683.6,399,729,242.4,774.6,85.8C780,69.4,782,51.1,793.8,37.7 M843.6,138.3c-20,68-39.5,136.2-59.4,204.2
			c39.6,0.2,79.1,0.1,118.7,0.1C883.1,274.5,863.4,206.4,843.6,138.3z"/>
		<path class="st1" d="M1387.1,41.2c14.7-21.3,43-31.6,68-25c22.9,5.3,40.4,25,46.4,47.2c47.7,164.1,95.5,328.1,143.2,492.2
			c-28.2,0.2-56.4,0-84.6,0.1c-13.1-45.3-26.1-90.7-39.3-136c-54.4,0-108.7-0.1-163.1,0c-13,45.3-26.4,90.6-39.4,135.9
			c-28,0-55.9,0-83.9,0c45.3-157.5,91.2-314.9,136.8-472.3C1376,69.2,1377.9,53.5,1387.1,41.2 M1380.2,342.6
			c39.4,0.1,78.8,0,118.2,0c-19.6-68.3-39.5-136.4-59.1-204.6C1419.7,206.2,1399.8,274.4,1380.2,342.6z"/>
		<path class="st1" d="M986.1,15.4c101.9,0,203.8,0,305.6,0c0,27.5,0,54.9,0,82.4c-37.5,0-75,0-112.5,0c0,152.6,0,305.2,0,457.8
			c-26.9,0-53.7,0-80.6,0c0-152.6,0-305.2,0-457.8c-37.5-0.1-75,0-112.5,0C986.1,70.3,986,42.9,986.1,15.4z"/>
		<path class="st1" d="M1734.3,18.7c7.7-2.7,16-3.6,24.2-3.4c32.1,0.1,64.3,0,96.4,0c54.1,1,105.7,34.6,129.1,83.2
			c16.2,31.6,17.9,68.4,13.8,103.1c-2.8,36.3-18.1,72.6-46,96.7c-14.7,13.1-33.1,21.1-48.9,32.8c-8.7,6.6-9.1,19.4-4.6,28.6
			c42.6,65.8,87,130.6,130.5,195.9c-31.8,0.1-63.7-0.1-95.5,0.1c-41.7-62.6-82.9-125.5-124.4-188.2c-12.2-17.8-15.5-41.5-8.2-61.8
			c5.7-15.6,19.4-27,34.6-32.9c29-11.1,57.6-28.5,73.7-55.9c12.2-20.6,11.6-46,6.1-68.5c-6.4-29.2-34.9-52.2-65-51.2
			c-20.8,0.1-41.6-0.1-62.4,0.1c-9.4-0.2-18.3,8-18.1,17.5c-0.1,147,0,293.9,0,440.9c-27.1-0.1-54.1,0-81.2,0
			c-0.1-158.2,0.1-316.4-0.1-474.7C1688.3,53.2,1708,27.1,1734.3,18.7z"/>
		<path class="st1" d="M2071.3,15.4c28.5,0,56.9,0,85.4,0c0,180.1,0.1,360.2-0.1,540.3c-28.4-0.1-56.9,0-85.4,0
			C2071.3,375.5,2071.3,195.4,2071.3,15.4z"/>
	</g>
	<g>
		<g>
			<path class="st3" d="M2478.8,198.5c29,0,52.6-23.5,52.6-52.6s-23.5-52.6-52.6-52.6c-29,0-52.6,23.5-52.6,52.6
				S2449.7,198.5,2478.8,198.5z M2478.8,128.1c9.8,0,17.8,8,17.8,17.8s-8,17.8-17.8,17.8c-9.8,0-17.8-8-17.8-17.8
				S2468.9,128.1,2478.8,128.1z"/>
			<path class="st3" d="M2614.7,207.4c8.1-18.5,12.3-38.5,12.3-59.1C2627,66.5,2560.5,0,2478.8,0s-148.3,66.5-148.3,148.3
				c0,20.6,4.2,40.6,12.3,59.1c-44.9,39-70.9,95.1-70.9,155.7c0,114,92.8,206.8,206.8,206.8s206.8-92.8,206.8-206.8
				C2685.6,302.5,2659.6,246.3,2614.7,207.4z M2478.8,535.1c-95,0-172.1-77-172.1-172.1c0-61.9,32.8-115.9,81.8-146.3
				c-14.5-19.1-23.2-42.8-23.2-68.6c0-62.7,50.8-113.5,113.5-113.5c62.7,0,113.5,50.8,113.5,113.5c0,25.8-8.7,49.5-23.2,68.6
				c49,30.3,81.8,84.4,81.8,146.3C2650.8,458.1,2573.8,535.1,2478.8,535.1z"/>
			<path class="st3" d="M2478.8,263.2c-56.8,0-102.8,46-102.8,102.8s46,102.8,102.8,102.8c56.8,0,102.8-46,102.8-102.8
				S2535.5,263.2,2478.8,263.2z M2478.8,433.9c-37.5,0-68-30.5-68-68s30.5-68,68-68c37.5,0,68,30.5,68,68S2516.3,433.9,2478.8,433.9
				z"/>
		</g>
		<g>
			<path class="st3" d="M2974.9,0c-157.1,0-285,127.8-285,285c0,157.1,127.8,285,285,285c157.1,0,284.9-127.8,284.9-285
				C3259.9,127.8,3132,0,2974.9,0z M2974.9,535.2c-138,0-250.2-112.3-250.2-250.2c0-138,112.3-250.2,250.2-250.2
				S3225.1,147,3225.1,285C3225.1,422.9,3112.9,535.2,2974.9,535.2z"/>
			<path class="st3" d="M2974.9,101c-101.4,0-184,82.5-184,184c0,101.4,82.5,184,184,184c101.4,0,184-82.5,184-184
				C3158.9,183.5,3076.3,101,2974.9,101z M2974.9,434.2c-82.3,0-149.3-67-149.3-149.2c0-82.3,67-149.2,149.3-149.2
				c82.3,0,149.2,67,149.2,149.2C3124.1,367.3,3057.2,434.2,2974.9,434.2z"/>
		</g>
		<g>
			<path class="st3" d="M3555.1,0c-157.1,0-285,127.8-285,285c0,157.1,127.8,285,285,285c157.1,0,284.9-127.8,284.9-285
				C3840,127.8,3712.2,0,3555.1,0z M3555.1,535.2c-138,0-250.2-112.3-250.2-250.2c0-138,112.3-250.2,250.2-250.2
				S3805.3,147,3805.3,285C3805.3,422.9,3693,535.2,3555.1,535.2z"/>
			<path class="st3" d="M3555.1,101c-101.4,0-184,82.5-184,184c0,101.4,82.5,184,184,184c101.4,0,184-82.5,184-184
				C3739,183.5,3656.5,101,3555.1,101z M3555.1,434.2c-82.3,0-149.3-67-149.3-149.2c0-82.3,67-149.2,149.3-149.2
				c82.3,0,149.2,67,149.2,149.2C3704.3,367.3,3637.3,434.2,3555.1,434.2z"/>
		</g>
	</g>
</g>
</svg>
