<svg enable-background="new 0 0 3840 569.9" version="1.1" viewBox="0 0 3840 569.9" xml:space="preserve" xmlns="http://www.w3.org/2000/svg">
<path d="m2478.8008 0c-81.6999 0-148.3008 66.500863-148.3008 148.30078 0 20.59998 4.2008 40.59963 12.3008 59.09961-44.9 38.99996-70.9004 95.09928-70.9004 155.69922 0 113.99989 92.7989 206.80078 206.7988 206.80078s206.8008-92.80089 206.8008-206.80078c0.1-60.59994-25.9008-116.79926-70.8008-155.69922 8.1-18.49998 12.3008-38.49963 12.3008-59.09961 0-81.799917-66.4993-148.30078-148.1992-148.30078zm496.0996 0c-157.0999 0-285 127.80016-285 285 0 157.09984 127.8001 285 285 285 157.0998 0 284.9004-127.80016 284.9004-285 0.1-157.19984-127.8006-285-284.9004-285zm580.1992 0c-157.0998 0-285 127.80016-285 285 0 157.09984 127.8002 285 285 285 157.0999 0 284.9004-127.80016 284.9004-285s-127.8005-285-284.9004-285zm-2114.2988 14.230469c-20.8352-0.381811-41.7575 9.662551-53.7012 26.96875-9.2 12.299961-11.1004 28.001604-15.9004 42.101562-45.5997 157.399519-91.4991 314.799309-136.7988 472.298829h83.9004c13-45.29988 26.3984-90.60054 39.3984-135.90039 54.4-0.1 108.7016 0 163.1016 0 13.2 45.29985 26.1988 90.70012 39.2988 136 28.2-0.1 56.3996 0.10037 84.5996-0.09961-47.6997-164.09954-95.4992-328.0997-143.1992-492.199219-6-22.199934-23.5004-41.90119-46.4004-47.201172-4.6875-1.237497-9.4907-1.88064-14.2988-1.96875zm-597.36135 0.115234c-18.89598 0.147437-37.8262 8.222311-49.63867 23.353516-11.79997 13.399958-13.8012 31.701613-19.20117 48.101562-45.59988 156.599519-90.99895 313.199699-136.29883 469.699219 27.99991 0.1 56.00009-3.7e-4 84 0.09961 13.09997-45.39988 26.29964-90.70015 39.59961-136 54.39985 0.1 108.79898-3.7e-4 163.29883 0.09961 13.09997 45.29985 26.10042 90.60051 39.40039 135.90039 28.19991-0.1 56.29999 0 84.49999 0-47.5997-164.19948-95.59897-328.30048-143.29882-492.500001-3.79997-13.199958-11.2012-25.398855-21.70117-34.298828-11.28747-9.88747-25.96327-14.569751-40.66016-14.455078zm-783.638669 0.455078c-32.899934 0-59.800781 26.898894-59.800781 59.798828v420.701171c0 32.89994 26.900847 59.79883 59.800781 59.79883h420.699219c32.89994 0 59.80078-26.89889 59.80078-59.79883v-420.701171c-0.1-32.899934-26.90084-59.798828-59.80078-59.798828h-420.699219zm1698.699219 0.5c-8.2-0.2-16.4992 0.698444-24.1992 3.398438-26.3 8.399973-46 34.500865-46 62.300781 0.2 158.29952-0.0012 316.4997 0.0996 474.69922 27.1 0 54.0992-0.1 81.1992 0 0-146.99955-0.1-293.89889 0-440.89844-0.2-9.49997 8.6996-17.699999 18.0996-17.499999 20.8-0.2 41.6004-0.0016 62.4004-0.101562 30.1-0.999997 58.6 22.001261 65 51.201171 5.5 22.49994 6.1004 47.90006-6.0996 68.5-16.1 27.39991-44.6992 44.80042-73.6992 55.90039-15.2 5.9-28.9016 17.29847-34.6016 32.89844-7.3 20.29994-3.9988 44.00084 8.2012 61.80078 41.4997 62.69982 82.7004 125.5994 124.4004 188.19922 31.7997-0.2 63.7 3.7e-4 95.5-0.09961-43.5-65.29982-87.9003-130.1006-130.5-195.90039-4.5-9.19997-4.1004-21.99964 4.5996-28.59961 15.8-11.69997 34.2004-19.69886 48.9004-32.79883 27.9-24.09991 43.2-60.40129 46-96.70117 4.0992-34.69993 2.3992-71.4997-13.8008-103.09961-23.4-48.599853-74.9999-82.199222-129.0996-83.199219-32.1 0-64.3004 0.1-96.4004 0zm-772.40039 0.09961c-0.1 27.499916 0 54.900474 0 82.40039 37.49999 0 74.99999-0.1 112.49999 0v457.798829h80.5996v-457.798829h112.5v-82.40039h-305.59959zm1085.20119 0c0 179.999459 0 360.099369-0.1016 540.298829 28.5 0 57.0004-0.1 85.4004 0 0.2-180.09946 0.0996-360.19937 0.0996-540.298829h-85.3984zm407.5 19.199218c62.6999 0 113.5 50.800063 113.5 113.500001 0 25.79997-8.7012 49.49963-23.2012 68.59961 49 30.29997 81.8008 84.40084 81.8008 146.30078-0.1 95.0999-77.0997 172.09961-172.0996 172.09961s-172.1016-76.99971-172.1016-172.09961c0-61.89994 32.8008-115.90081 81.8008-146.30078-14.5-19.09998-23.1992-42.79964-23.1992-68.59961 0-62.699938 50.8-113.500001 113.5-113.500001zm496.0996 0.201172c137.9999 0 250.1992 112.299359 250.1992 250.199219s-112.1993 250.19922-250.1992 250.19922-250.2012-112.29936-250.2012-250.19922c0-137.99986 112.3013-250.199219 250.2012-250.199219zm580.1992 0c137.9999 0 250.2012 112.299359 250.2012 250.199219s-112.3013 250.19922-250.2012 250.19922c-137.9999 0-250.1992-112.29936-250.1992-250.19922 0-137.99986 112.2993-250.199219 250.1992-250.199219zm-1076.2988 58.5c-29 0-52.6016 23.499639-52.6016 52.599609s23.5016 52.59961 52.6016 52.59961c29 0 52.5996-23.49964 52.5996-52.59961s-23.4996-52.599609-52.5996-52.599609zm496.0996 7.699219c-101.3999 0-184 82.5001-184 184 0 101.3999 82.5001 184 184 184 101.3999 0 184-82.5001 184-184s-82.6001-184-184-184zm580.1992 0c-101.3999 0-184 82.5001-184 184 0 101.3999 82.5001 184 184 184 101.3999 0 184-82.5001 184-184-0.1-101.4999-82.6001-184-184-184zm-3346.99999 15.90039h26.70117c0.1 20.99996 0 41.89887 0 62.79883 0.1 17.49996-0.40156 34.90082-1.10156 52.30078-1.2 25.19994-2.79844 50.40084-6.89844 75.30078-2.9 17.19996-8.80119 33.69846-16.20117 49.39844-11.99998 25.29994-30.89965 46.70121-52.09961 64.70117-18.99996 16.69996-41.60004 28.89963-65.5 37.09961-13.499974 4.6-27.300028 8.19922-41.5 10.19922v-52.59961c16.999966-2.6 33.30003-8.59963 48.5-16.59961 17.99996-9.49998 34.20041-22.30043 47.90039-37.40039 14.09998-15.59998 25.30041-33.59887 33.90039-52.79883 9.99998-21.99996 15.39961-45.80121 19.09961-69.70117 4.6-30.29994 6.49922-60.89967 7.19922-91.59961 0.1-10.39998 0-20.79963 0-31.09961zm97.5 0h26.5c-0.3 35.69992 0.90119 71.59969 5.20117 107.09961 3.5 27.59994 8.39846 55.39967 19.39844 81.09961 10.39998 24.89994 25.40004 47.99965 45 66.59961 18.69996 17.79996 41.30043 31.50041 65.90039 39.40039 6.89998 2.2 13.90002 3.9 21 5v52.59961c-13.99998-1.9-27.79963-5.49963-41.09961-10.09961-15.89996-5.5-31.30002-12.70041-45.5-21.90039-10.29998-6.59998-19.7008-14.59846-28.80078-22.89844-14.89998-13.69998-28.19924-29.30004-38.19922-47-7.79998-13.69998-13.5-28.60082-18-43.80078-4.1-15.19996-5.80039-30.99963-7.40039-46.59961-3.1-33.79994-4.2-67.80084-4-101.80078v-57.69922zm-60 0.19922c16.39996-0.1 32.69965 0 49.09961 0v351.70117c-16.29996 0-32.70004-0.10038-49 0.09961-0.2-37.39992 3.8e-4 -74.80125-0.09961-112.20117v-239.59961zm2233.20119 11c9.8 0 17.7988 8.00079 17.7988 17.80078s-7.9988 17.79883-17.7988 17.79883-17.8008-7.99884-17.8008-17.79883 7.9008-17.80078 17.8008-17.80078zm496.0996 7.70117c82.2999 0 149.1992 66.9993 149.1992 149.19922 0 82.29992-66.8993 149.19922-149.1992 149.19922s-149.3008-66.9993-149.3008-149.19922c0-82.29992 67.0009-149.19922 149.3008-149.19922zm580.1992 0c82.2999 0 149.2012 66.9993 149.2012 149.19922 0 82.29992-67.0013 149.19922-149.2012 149.19922-82.2999 0-149.2988-66.9993-149.2988-149.19922 0-82.29992 66.9989-149.19922 149.2988-149.19922zm-2115.7988 2.19922c19.6 68.19979 39.4996 136.29982 59.0996 204.59961-39.4 0-78.8012 0.1-118.2012 0 19.6-68.19979 39.5016-136.39982 59.1016-204.59961zm-595.70119 0.30078c19.79994 68.09979 39.50084 136.19904 59.30078 204.29883-39.59988 0-79.10129 0.10037-118.70117-0.09961 19.89994-67.99979 39.40045-136.19943 59.40039-204.19922zm1635.20119 124.89844c-56.8 0-102.8008 46.00084-102.8008 102.80078s46.0008 102.80078 102.8008 102.80078c56.7999 0 102.7988-46.00084 102.7988-102.80078s-46.0989-102.80078-102.7988-102.80078zm0 34.70117c37.4999 0 68 30.50004 68 68s-30.5001 68-68 68c-37.5 0-68-30.50004-68-68s30.5-68 68-68z"/>
</svg>
