<svg version="1.0" viewBox="0 0 750.54 115.83" xmlns="http://www.w3.org/2000/svg"><path d="M458.944 98.5c0 1.08-.885 2.052-1.975 2.052h-37.797c-1.101 0-1.986-.972-1.986-2.051V71.195c0-1.08.885-1.943 1.986-1.943h37.797c1.09 0 1.975.864 1.975 1.943V98.5zm-1.64-37.45h-38.478c-5.569 0-10.113 4.533-10.113 10.145v27.414c0 5.504 4.544 10.145 10.113 10.145h38.477c5.58 0 10.113-4.641 10.113-10.145V71.195c0-5.612-4.533-10.145-10.113-10.145M15.917 20.04v35.294H7.088V7.63h7.544L50.39 42.383V7.63h8.71v47.704h-6.896L15.916 20.04m88.518 0v35.294h-8.829V7.63h7.534l35.757 34.753V7.63h8.72v47.704h-6.897L104.433 20.04m183.441 0v35.294h-8.829V7.63h7.533l35.757 34.753V7.63h8.721v47.704h-6.886L287.874 20.04M80.124 7.62h1.63v47.705h-8.83V7.62h7.2m127.62 0h1.619v8.204h-21.284v39.502h-9.174V15.824H157.62V7.62h50.122m56.552 0h1.651v8.204h-37.84v10.685h29.27v8.202h-29.27v12.412h37.84v8.203h-46.582V7.622h44.931m115.85 39.508h-27.112V15.833h27.112c8.483 0 11.494 8.418 11.494 15.65 0 7.123-3.011 15.65-11.494 15.65zm14.484-32.486c-3.454-4.641-8.56-7.016-14.732-7.016h-35.38v47.704h35.38c6.173 0 11.279-2.482 14.732-7.015 3.238-4.21 4.954-10.037 4.954-16.837 0-6.8-1.717-12.628-4.954-16.837m64.316 30.537c0 .972-.885 1.944-1.975 1.944h-37.797c-1.101 0-1.986-.972-1.986-1.943V17.767c0-1.08.885-1.943 1.986-1.943h37.797c1.09 0 1.975.864 1.975 1.943V45.18zm-1.64-37.558h-38.478c-5.569 0-10.113 4.533-10.113 10.145V45.18c0 5.612 4.544 10.145 10.113 10.145h38.477c5.58 0 10.113-4.533 10.113-10.145V17.767c0-5.612-4.533-10.145-10.113-10.145M617.574 88.57c9.152 3.67 28.482 6.585 43.57 6.585 16.514 0 23.346-5.613 23.346-12.737 0-6.475-6.347-10.145-24.575-16.837-24.381-8.958-42.265-16.08-42.265-32.163 0-16.513 21.52-26.335 54.32-26.335 17.615 0 23.659 1.08 34.84 3.13l.086 15.758c-10.987-2.05-20.722-5.612-35.843-5.612-16.21 0-23.118 5.18-23.118 10.47 0 7.662 10.642 11.332 29.303 18.023 25.978 9.282 40.43 16.405 40.43 32.055 0 16.19-18.1 27.846-58.918 27.846-16.761 0-28.321-1.08-41.175-3.238V88.57m-86.881-67.56h-19.427v73.61h19.427c29.82 0 48.633-12.844 48.633-36.696 0-23.852-18.812-36.912-48.633-36.912zm52.14 80.408c-9.606 4.317-27.781 7.123-43.668 7.123h-60.721V7.301h60.72c15.888 0 34.063 2.806 43.69 7.123 23.389 10.577 31.009 27.522 31.009 43.495 0 15.973-7.555 32.918-31.03 43.495m140.93-7.984h-3.896v-1.402h9.487v1.403h-3.918v11.333h-1.673V93.43m17.76 5.72c-.097-1.726-.205-3.885-.205-5.504h-.043a75.225 75.225 0 0 1-1.62 4.857l-2.255 6.26h-1.252l-2.094-6.152c-.604-1.835-1.1-3.454-1.457-4.965h-.043c-.033 1.62-.13 3.778-.238 5.613l-.345 5.504h-1.576l.896-12.736h2.105l2.18 6.152c.529 1.62.95 3.022 1.295 4.317h.032c.346-1.295.799-2.698 1.371-4.317l2.277-6.152h2.105l.798 12.736h-1.63l-.301-5.612" fill="#fff"/></svg>