<svg enable-background="new 0 0 3840 549.1" version="1.1" viewBox="0 0 3840 549.1" xml:space="preserve" xmlns="http://www.w3.org/2000/svg">
<path d="m3593 0c-177.1998 0-293.5 52.700871-293.5 142.30078 0 86.49991 96.6009 124.80005 228.3008 173.5 98.5999 36.09997 132.8984 56.39847 132.8984 90.89844 0 38.39996-36.9993 69.10156-126.1992 69.10156-81.4999 0-185.9004-15.80041-235.4004-35.40039v91.69922c69.4999 11.09999 131.9001 17.09961 222.5 17.09961 220.5998 0 318.4004-62.8997 318.4004-150.09961 0-84.69992-78.2001-123.49927-218.5-173.69922-100.9999-35.99996-158.4004-55.90004-158.4004-97.5 0-28.699971 37.3005-56.499999 124.9004-56.499999 81.7999 0 134.3993 19.49923 193.6992 30.699219l-0.3984-85.000001c-60.4-10.9999886-93.2009-17.099609-188.3008-17.099609zm-1045.8008 1.1992188v546.8007812h328.2012c85.7999 0 184.1-14.90041 236-38.40039 126.7999-57.19994 167.5992-148.40048 167.6992-234.90039 0-86.59991-41.2997-177.898496-167.5996-234.898439-51.9999-23.499976-150.1997-38.6015622-236.0996-38.6015622h-328.2012zm-2547.1992 1.5v257.7011712h47.699219v-190.90039l196.101561 190.90039h37.29883v-257.7011712h-8.90039-38.19922v187.7011712l-193.300781-187.7011712h-40.699219zm355.90039 0v257.7011712h47.69922v-257.7011712h-8.90039-38.79883zm122.40039 0v257.7011712h47.69922v-190.90039l196.09961 190.90039h37.30078v-257.7011712h-8.90039-38.19922v187.7011712l-193.30078-187.7011712h-40.69922zm335.19922 0v44.4003902h115v213.300781h49.59961v-213.300781h114.99999v-44.4003902h-8.7988-270.8008zm333.6992 0v257.7011712h251.7012v-44.40039h-204.5v-66.80078h158.1992v-44.29883h-158.1992v-57.800781h204.5v-44.4003902h-8.9004-242.8008zm322.5 0v257.7011712h47.7012v-190.90039l196.0996 190.90039h37.1992v-257.7011712h-8.8984-38.2012v187.7011712l-193.1992-187.7011712h-40.7012zm353.7012 0v257.7011712h191.1992c33.4 0 61.0012-13.1012 79.7012-37.70117 17.4-22.89998 26.6992-54.39887 26.6992-91.29883 0-36.599963-9.2992-68.200022-26.6992-90.999999-18.7-24.599976-46.3012-37.7011722-79.7012-37.7011722h-191.1992zm401.5996 0c-30.1 0-54.5996 24.7012022-54.5996 54.7011722v148.400389c0 29.99997 24.4996 54.59961 54.5996 54.59961h207.9004c30.1 0 54.6992-24.59964 54.6992-54.59961v-148.400389c0-29.99997-24.5992-54.7011723-54.6992-54.7011722h-207.9004zm-355.5996 44.3007812h1.4004 145.1992c45.8 0 62.0996 45.600039 62.0996 84.5 0.1 38.99996-16.2996 84.5-62.0996 84.5h-146.5996v-169zm357.4004 0.099609h204.2988c5.9 0 10.7012 4.799616 10.7012 10.59961v147.800781c0 5.79999-4.8012 10.59961-10.7012 10.59961h-204.2988c-5.9 0-10.7012-4.79962-10.7012-10.59961v-147.800781c0-5.799994 4.8012-10.59961 10.7012-10.59961zm497.7988 28.09961h105c161.0998 0 262.8008 70.500131 262.8008 199.500001s-101.601 197.90039-262.8008 197.90039h-105v-397.400391zm-499.5996 216.300781c-30.1 0-54.5996 24.59925-54.5996 54.69922v148.40039c0 29.99997 24.4996 54.59961 54.5996 54.59961h207.9004c30.1 0 54.6992-24.59964 54.6992-54.59961v-148.5c0-29.99997-24.5992-54.59961-54.6992-54.59961h-207.9004zm1.8008 44.30078h204.2988c5.9 0 10.7012 4.69962 10.7012 10.59961v147.79883c0 5.89999-4.8012 10.70117-10.7012 10.70117h-204.2988c-5.9 0-10.7012-4.80118-10.7012-10.70117v-147.79883c0-5.89999 4.8012-10.59961 10.7012-10.59961z"/>
</svg>
