<svg enable-background="new 0 0 3840 1751.3" version="1.1" viewBox="0 0 3840 1751.3" xml:space="preserve" xmlns="http://www.w3.org/2000/svg">
<path fill="#828283" d="m559.30078 39.800781c-145.99985 0-198.30003 111.398549-229.5 223.898439s-43.50084 226.10157-100.30078 230.60156c-44.59996 0-53.5-54.60003-53.5-88 0-24.49997 5.59962-52.30041 20.09961-72.40039 13.39999-20.09998 33.40003-33.49999 63.5-29v-231.701171c-193.899807 6.699993-259.59961 159.300171-259.59961 332.000001 0 163.79983 79.100574 320.90039 262.90039 320.90039 160.39984 0 194.89965-143.69974 230.59961-269.59961 38.99996-137.09986 50.20043-171.59961 91.40039-171.59961 58.99994 0 72.40039 61.30043 72.40039 101.40039 0 45.69996-10.00044 99.20002-57.90039 117-14.49998 5.6-32.30041 8.89844-52.40039 8.89844h0.09961v245c253.99975-2.2 286.30078-259.59892 286.30078-349.79883 0-177.09982-66.89982-367.599609-274.09961-367.599609zm-540.400389 745.298829v348.70119l467.900389 113.6992v2.1992l-467.900389 113.6016v348.6992h795.400389v-231.8008h-510.20117v-2.1992l510.20117-138.1992v-182.7012l-510.20117-138.0996v-2.1992h510.20117v-231.70119h-795.400389z"/><path fill="#FBBE02" d="m3114.1992 0c-302.0997 0-625.1992 163.89956-625.1992 505.69922 0 239.99976 146.5998 352.60163 326.5996 421.60156 3.3-91.29991-6.9996-184.10124-14.5996-252.70117-2-18.39998-4.0004-35.70041-5.4004-50.90039-7.1-75.39993 9.0997-182.09968 76.0996-255.59961 26.6-29.19997 62.1016-52.00001 99.6016-66 6.6-2.5 13.1984-4.29961 19.8984-5.59961 46.8-12.29999 69.8016-10.69922 106.6016-10.69922 175.5998 0 318.3996 51.49864 330.0996 252.89844h355.9004c0-386.49961-320.8019-538.69922-669.6016-538.69922zm186 716.90039c0.4 2.6 0.7 5.30039 1 7.90039l0.3008 2.09961c0.8 5.89999 1.4992 11.79923 2.1992 17.69922 0 0.4 0.1016 0.79961 0.1016 1.09961 1.9 16.59998 3.3996 33.4008 4.5996 50.30078 0.2 3.2 0.4996 6.3 0.5996 9.5 0.2 3.6 0.3996 7.30039 0.5996 10.90039l0.5996 12c0.1 3.2 0.3004 6.39961 0.4004 9.59961 0.2 4.8 0.3004 9.7 0.4004 14.5 0.1 2.5 0.0992 5 0.1992 7.5 0.1 7.49999 0.2012 15.00001 0.2012 22.5v1c-0.1 7.39999-0.1008 14.50001-0.3008 21.5-0.1 3.2-0.1992 6.4-0.1992 9.5-0.1 4-0.2004 8-0.4004 12-0.2 4.3-0.3 8.49922-0.5 12.69922-0.1 2.1-0.2008 4.30039-0.3008 6.40039-2.1 40.29996-6.3 79.90119-12.5 118.70119 110.1999 39.2999 187 93.2001 187 193 0 170.8998-196.7001 208.3984-325.5 208.3984-196.6998 0-369.8984-86.5998-369.8984-309.0996h-355.9004c-4.7 412.0996 341.7992 594.7012 711.7988 594.7012 454.1996 0 695.4004-229.5015 695.4004-536.2012 0-379.29961-374.6005-456.60002-496.4004-486.99999-14.9-3.8-29.4-7.49922-43.5-11.19922z"/><path fill="#8D2877" d="m2426.6992 0c-517.3995 0-821.7988 386.29972-821.7988 882.69922 0 163.89988 35.2004 316.60048 101.9004 446.90038 51.2999-11.8 105.8985-36.1004 151.8984-82.9004 73.2999-74.6999 110.5-190.899 110.5-345.29881 0-18.29998 1.9008-44.69964 4.8008-73.09961 14.8-272.09973 143.1011-519.30078 452.8008-519.30078 12 0 23.5996 0.39961 35.0996 1.09961 36.4-93.19991 100.4989-173.39889 190.2988-236.798829 16.1-11.299988 32.8016-22.00001 50.1016-32-83.4999-26.799973-175.6017-41.300781-275.6016-41.300781zm655.4961 347.56445c-203.1133-3.44852-232.2304 182.75829-223.9961 270.23633 3.3 34.89997 9.2004 81.29966 13.9004 133.59961 12.3 89.89991 12.2012 185.20048-2.7988 274.90041-4.5 27-10.4008 53.4988-17.8008 79.2988-2.8 120.0999 6.4995 267.9996 254.1992 295.0996 168.5999-259.7997 184.4003-631.19949 67.9004-916.1992-19.6-47.29995-43.2996-93.10004-71.0996-136h-0.0996c-6.9188-0.51562-13.653-0.8243-20.2051-0.93555zm-764.1953 1083.33595c-17.8 28.2-37.1992 54.9996-58.1992 80.0996-56.1 67.1999-122.9001 122.0004-199 163.9004 105.6999 49.1999 228.1989 76.5 365.7988 76.5 97.3999 0 187.2005-13.8012 268.9004-39.2012-60.1999-31.8999-113.0004-70.7992-157.9004-116.1992-44.6999-45.3-80.8004-96.9008-107.9004-153.8008-1 0-2 0.1016-3 0.1016-39.0999 0-75.2992-4.0004-108.6992-11.4004z"/><path fill="#BC2223" d="m2399.5 866.3c0-191.3-38.7-348.9-107.2-473.4-67.5 23.4-122.5 66.3-164.5 128.4-59.7 88.2-95.9 218-95.9 362.9 0 1-0.1 1.9-0.2 2.8 0.1 4.9 0.2 9.7 0.2 14.4 0 369.9-203.7 501.1-416.8 501.1h-327.8v-1053.6h262.2c44.3 0 84.8 3.2 122 9.4 29.7-52.3 64.1-100.7 103.2-144.7 44.2-49.8 93.4-93.1 147-129.8-86-29.3-180.5-43.9-280.8-43.9h-721.1v1671.7h721.1c510.4-0.1 758.6-360.6 758.6-845.3z"/>
</svg>
