<?xml version="1.0" encoding="utf-8"?>
<!-- Generator: Adobe Illustrator 25.0.0, SVG Export Plug-In . SVG Version: 6.00 Build 0)  -->
<svg version="1.1" id="Layer_1" xmlns="http://www.w3.org/2000/svg" xmlns:xlink="http://www.w3.org/1999/xlink" x="0px" y="0px"
	 viewBox="0 0 3840 1751.3" style="enable-background:new 0 0 3840 1751.3;" xml:space="preserve">
<style type="text/css">
	.st0{fill:#828283;}
	.st1{fill:#FBBE02;}
	.st2{fill:#8D2877;}
	.st3{fill:#BC2223;}
	.st4{fill:#FFFFFF;}
</style>
<g>
	<g>
		<g>
			<path d="M18.9,1712v-348.7l467.9-113.6v-2.2L18.9,1133.8V785.1h795.4v231.7H304.1v2.2l510.2,138.1v182.7L304.1,1478v2.2h510.2
				V1712H18.9z"/>
			<path d="M547,512.2c20.1,0,37.9-3.3,52.4-8.9c47.9-17.8,57.9-71.3,57.9-117c0-40.1-13.4-101.4-72.4-101.4
				c-41.2,0-52.4,34.5-91.4,171.6c-35.7,125.9-70.2,269.6-230.6,269.6C79.1,726.1,0,569,0,405.2c0-172.7,65.7-325.3,259.6-332v231.7
				c-30.1-4.5-50.1,8.9-63.5,29C181.6,354,176,381.8,176,406.3c0,33.4,8.9,88,53.5,88c56.8-4.5,69.1-118.1,100.3-230.6
				C361,151.2,413.3,39.8,559.3,39.8c207.2,0,274.1,190.5,274.1,367.6c0,90.2-32.3,347.6-286.3,349.8V512.2z"/>
		</g>
		<g>
			<path d="M3311.1,905c-0.1,3.2-0.2,6.4-0.2,9.5c-0.1,4-0.2,8-0.4,12c-0.2,4.3-0.3,8.5-0.5,12.7c-0.1,2.1-0.2,4.3-0.3,6.4
				c-2.1,40.3-6.3,79.9-12.5,118.7c110.2,39.3,187,93.2,187,193c0,170.9-196.7,208.4-325.5,208.4c-196.7,0-369.9-86.6-369.9-309.1
				h-355.9c-4.7,412.1,341.8,594.7,711.8,594.7c454.2,0,695.4-229.5,695.4-536.2c0-379.3-374.6-456.6-496.4-487
				c-14.9-3.8-29.4-7.5-43.5-11.2c0.4,2.6,0.7,5.3,1,7.9c0.1,0.7,0.2,1.4,0.3,2.1c0.8,5.9,1.5,11.8,2.2,17.7c0,0.4,0.1,0.8,0.1,1.1
				c1.9,16.6,3.4,33.4,4.6,50.3c0.2,3.2,0.5,6.3,0.6,9.5c0.2,3.6,0.4,7.3,0.6,10.9c0.2,4,0.4,8,0.6,12c0.1,3.2,0.3,6.4,0.4,9.6
				c0.2,4.8,0.3,9.7,0.4,14.5c0.1,2.5,0.1,5,0.2,7.5c0.1,7.5,0.2,15,0.2,22.5c0,0.3,0,0.7,0,1C3311.3,890.9,3311.3,898,3311.1,905z"
				/>
			<path d="M2429.7,1442.2c-1,0-2,0.1-3,0.1c-39.1,0-75.3-4-108.7-11.4c-17.8,28.2-37.2,55-58.2,80.1
				c-56.1,67.2-122.9,122-199,163.9c105.7,49.2,228.2,76.5,365.8,76.5c97.4,0,187.2-13.8,268.9-39.2
				c-60.2-31.9-113-70.8-157.9-116.2C2492.9,1550.7,2456.8,1499.1,2429.7,1442.2z"/>
			<path d="M2399.5,866.3c0-191.3-38.7-348.9-107.2-473.4c-67.5,23.4-122.5,66.3-164.5,128.4c-59.7,88.2-95.9,218-95.9,362.9
				c0,1-0.1,1.9-0.2,2.8c0.1,4.9,0.2,9.7,0.2,14.4c0,369.9-203.7,501.1-416.8,501.1h-327.8V348.9h262.2c44.3,0,84.8,3.2,122,9.4
				c29.7-52.3,64.1-100.7,103.2-144.7c44.2-49.8,93.4-93.1,147-129.8c-86-29.3-180.5-43.9-280.8-43.9H919.8v1671.7h721.1
				C2151.3,1711.5,2399.5,1351,2399.5,866.3z"/>
			<path d="M1604.9,882.7c0,163.9,35.2,316.6,101.9,446.9c51.3-11.8,105.9-36.1,151.9-82.9c73.3-74.7,110.5-190.9,110.5-345.3
				c0-18.3,1.9-44.7,4.8-73.1c14.8-272.1,143.1-519.3,452.8-519.3c12,0,23.6,0.4,35.1,1.1c36.4-93.2,100.5-173.4,190.3-236.8
				c16.1-11.3,32.8-22,50.1-32C2618.8,14.5,2526.7,0,2426.7,0C1909.3,0,1604.9,386.3,1604.9,882.7z"/>
			<path d="M2489,505.7c0,240,146.6,352.6,326.6,421.6c3.3-91.3-7-184.1-14.6-252.7c-2-18.4-4-35.7-5.4-50.9
				c-7.1-75.4,9.1-182.1,76.1-255.6c26.6-29.2,62.1-52,99.6-66c6.6-2.5,13.2-4.3,19.9-5.6c46.8-12.3,69.8-10.7,106.6-10.7
				c175.6,0,318.4,51.5,330.1,252.9h355.9C3783.8,152.2,3463,0,3114.2,0C2812.1,0,2489,163.9,2489,505.7z"/>
		</g>
	</g>
	<path d="M3173.6,484.5c-19.6-47.3-43.3-93.1-71.1-136c0,0,0,0-0.1,0c-221.4-16.5-252.7,179-244.2,269.3
		c3.3,34.9,9.2,81.3,13.9,133.6c12.3,89.9,12.2,185.2-2.8,274.9l0,0c-4.5,27-10.4,53.5-17.8,79.3c-2.8,120.1,6.5,268,254.2,295.1
		C3274.3,1140.9,3290.1,769.5,3173.6,484.5z"/>
</g>
</svg>
