<svg version="1.1" id="Capa_1" xmlns="http://www.w3.org/2000/svg" xmlns:xlink="http://www.w3.org/1999/xlink" x="0px" y="0px" viewBox="0 0 1200 1200" enable-background="new 0 0 1200 1200" xml:space="preserve">
<g>
	<path fill="#12D89B" d="M1135.985,882.803H122.563c-7.741,0-14.015-6.275-14.015-14.015V392.563
		c0-7.741,6.275-14.015,14.015-14.015h1013.422c7.74,0,14.015,6.275,14.015,14.015v476.225
		C1150,876.528,1143.725,882.803,1135.985,882.803z"></path>
	<circle fill="#FFF361" cx="866.31" cy="457.904" r="28.578"></circle>
	<g>
		<circle fill="#FFF361" cx="989.106" cy="457.758" r="28.724"></circle>
	</g>
	<g>
		<circle fill="#FF3399" cx="866.31" cy="585.784" r="28.724"></circle>
	</g>
	<circle fill="#FF3399" cx="989.106" cy="585.782" r="28.724"></circle>
	<g>
		<path fill="#FFF361" d="M798.975,757.531H364.737c-4.401,0-8.002-3.601-8.002-8.002v-56.522c0-4.401,3.601-8.002,8.002-8.002
			h434.238c4.401,0,8.002,3.601,8.002,8.002v56.522C806.977,753.929,803.376,757.531,798.975,757.531z"></path>
	</g>
	<g>
		<path fill="#333333" d="M1063.583,317.197H100.129c-27.641,0-50.129,22.489-50.129,50.13v426.258
			c0,27.641,22.488,50.13,50.129,50.13h963.454c27.641,0,50.13-22.489,50.13-50.13V367.327
			C1113.714,339.686,1091.224,317.197,1063.583,317.197z M1091.453,793.585c0,15.367-12.503,27.87-27.87,27.87H100.129
			c-15.367,0-27.868-12.503-27.868-27.87V367.327c0-15.367,12.501-27.87,27.868-27.87h963.454c15.367,0,27.87,12.503,27.87,27.87
			V793.585z" style="fill: rgb(121, 129, 168);"></path>
		<path fill="#333333" d="M356.735,551.055v-59.492c0-6.147-4.984-11.13-11.13-11.13h-62.528v-62.53
			c0-6.147-4.984-11.13-11.13-11.13h-59.492c-6.147,0-11.13,4.984-11.13,11.13v62.53h-62.53c-6.147,0-11.13,4.984-11.13,11.13
			v59.492c0,6.147,4.984,11.13,11.13,11.13h62.53v62.53c0,6.147,4.984,11.13,11.13,11.13h59.492c6.147,0,11.13-4.984,11.13-11.13
			v-62.53h62.528C351.751,562.186,356.735,557.202,356.735,551.055z" style="fill: rgb(121, 129, 168);"></path>
		<path fill="#333333" d="M866.312,406.773c-28.114,0-50.986,22.872-50.986,50.986c0,28.111,22.872,50.984,50.986,50.984
			c28.111,0,50.984-22.872,50.984-50.984C917.295,429.645,894.423,406.773,866.312,406.773z M866.312,486.482
			c-15.84,0-28.725-12.886-28.725-28.723c0-15.84,12.886-28.726,28.725-28.726c15.837,0,28.723,12.886,28.723,28.726
			C895.034,473.596,882.149,486.482,866.312,486.482z" style="fill: rgb(121, 129, 168);"></path>
		<path fill="#333333" d="M989.105,406.773c-28.111,0-50.984,22.872-50.984,50.986c0,28.111,22.872,50.984,50.984,50.984
			c28.114,0,50.986-22.872,50.986-50.984C1040.091,429.645,1017.219,406.773,989.105,406.773z M989.105,486.482
			c-15.837,0-28.723-12.886-28.723-28.723c0-15.84,12.886-28.726,28.723-28.726c15.84,0,28.725,12.886,28.725,28.726
			C1017.83,473.596,1004.945,486.482,989.105,486.482z" style="fill: rgb(121, 129, 168);"></path>
		<path fill="#333333" d="M866.312,534.8c-28.114,0-50.986,22.872-50.986,50.984c0,28.111,22.872,50.984,50.986,50.984
			c28.111,0,50.984-22.872,50.984-50.984C917.295,557.672,894.423,534.8,866.312,534.8z M866.312,614.506
			c-15.84,0-28.725-12.886-28.725-28.723c0-15.837,12.886-28.723,28.725-28.723c15.837,0,28.723,12.886,28.723,28.723
			C895.034,601.62,882.149,614.506,866.312,614.506z" style="fill: rgb(121, 129, 168);"></path>
		<path fill="#333333" d="M989.105,534.8c-28.111,0-50.984,22.872-50.984,50.984c0,28.111,22.872,50.984,50.984,50.984
			c28.114,0,50.986-22.872,50.986-50.984C1040.091,557.672,1017.219,534.8,989.105,534.8z M989.105,614.506
			c-15.837,0-28.723-12.886-28.723-28.723c0-15.837,12.886-28.723,28.723-28.723c15.84,0,28.725,12.886,28.725,28.723
			C1017.83,601.62,1004.945,614.506,989.105,614.506z" style="fill: rgb(121, 129, 168);"></path>
		<path fill="#333333" d="M784.717,662.743H378.996c-24.549,0-44.522,19.973-44.522,44.522v28.005
			c0,24.549,19.973,44.522,44.522,44.522h405.721c24.549,0,44.522-19.973,44.522-44.522v-28.005
			C829.238,682.715,809.266,662.743,784.717,662.743z M806.977,735.27c0,12.274-9.986,22.261-22.261,22.261H378.996
			c-12.274,0-22.261-9.986-22.261-22.261v-28.005c0-12.274,9.986-22.261,22.261-22.261h405.721c12.274,0,22.261,9.986,22.261,22.261
			V735.27z" style="fill: rgb(121, 129, 168);"></path>
		<path fill="#333333" d="M547.845,710.137h-68.937c-6.147,0-11.13,4.984-11.13,11.13s4.984,11.13,11.13,11.13h68.937
			c6.147,0,11.13-4.984,11.13-11.13S553.991,710.137,547.845,710.137z" style="fill: rgb(121, 129, 168);"></path>
		<path fill="#333333" d="M684.806,710.137h-68.937c-6.147,0-11.13,4.984-11.13,11.13s4.984,11.13,11.13,11.13h68.937
			c6.147,0,11.13-4.984,11.13-11.13S690.953,710.137,684.806,710.137z" style="fill: rgb(121, 129, 168);"></path>
	</g>
</g>
</svg>