<svg version="1.1" id="Layer_1" xmlns="http://www.w3.org/2000/svg" x="0px" y="0px" viewBox="0 0 540.1 139.4" style="enable-background:new 0 0 540.1 139.4;" xmlns:xlink="http://www.w3.org/1999/xlink" xml:space="preserve" data-inject-url="https://cdn.shopify.com/s/files/1/0014/1962/t/53/assets/logo-bomberman.svg?v=13568267671547782128" class="injectable">

<g>
	<path class="st0" d="M496.1,47.2l6.7,31.1l15.8-0.7l13.7-51.2l-10.2-0.1l-10.9,39.9l-9-39.9l-10.5,0l-13.3,43.3l-2.6-43.7l-9.9,0   L435.6,71l-2.6-45.3L414.5,54l-1.4-28.5l-38.5,56.7l-3-22.2l0.7-0.3c10.7-5,20.1-15.3,18.2-24.4c-1.2-5.6-6.4-9.1-15.5-9.4l-16.3,0   l-22.5,64.7l13-1l9.7-27.2l1.7,26.3l23.8-1.9l18.4-28.6l-2.2,26.7l8.9-1l15-26l0.6,25.5l13.8-0.9l7.7-11.3l20.6-0.3l0.3,9.7   l18.9-1.3L496.1,47.2z M366.9,36.1c6.3-0.7,9.8,1.1,10.8,2.4c1.4,1.9,1.3,3.9,0,6.6c-1.8,3.8-6.4,7.2-14.7,7.5c0,0,0,0,0,0   c-0.3,0-0.8,0-1.2-0.2L366.9,36.1z M466.9,61h-13l12.8-19.3L466.9,61z M175.7,24.9c0.1,0.1,0.3,0.2,0.5,0.2c0.2,0,0.5-0.1,0.6-0.3   l1.6-2c0.3-0.3,0.2-0.8-0.1-1.1c-0.3-0.3-0.8-0.2-1.1,0.1l-1.6,2C175.3,24.2,175.4,24.7,175.7,24.9z M153.4,35.9   c4.4-0.2,10.8,0.1,17.5,2.5l1.7-4.6c1.2,0.5,2.4,1,3.4,1.6l-1.5,4.5c2.2,1,4.4,2.3,6.6,3.9l0.5-4.5l15.5-5.7L186,30.5l14.1-16.3   l-16.2,7.3l0.7-15.3l-11,12.7l-6.3-10.7l-2,15.3l-14.3-5.2l5.4,13.8L153.4,35.9z M154.8,21.9l11.6,4.3c0.2,0.1,0.3,0,0.5,0   c0.1-0.1,0.2-0.2,0.2-0.4l1.3-11.2l4.2,7.4c0.1,0.2,0.2,0.3,0.4,0.3c0.2,0,0.3-0.1,0.5-0.2l9.1-11.4L182,23.4   c0,0.2,0.1,0.4,0.2,0.5c0.1,0.1,0.3,0.1,0.5,0l11.2-5l-10.8,12c-0.1,0.1-0.2,0.3-0.1,0.5c0.1,0.2,0.2,0.3,0.4,0.4l7.9,2.2l-9.3,3.4   c-1.3-2.7-4-4.8-7.5-6.1c1-1.9,2.4-4.2,3.5-4.8c0.1-0.1,0.2-0.2,0.3-0.3l1.8-0.8c0.4-0.2,0.6-0.6,0.4-1c-0.2-0.4-0.6-0.6-1-0.4   l-2.5,1.1c-0.2,0.1-0.4,0.3-0.4,0.5l-1.8-0.5c0.1-0.1,0.1-0.2,0.2-0.3l0.8-2.3c0.1-0.4-0.1-0.8-0.5-1c-0.4-0.1-0.8,0.1-1,0.5   l-0.6,1.9c-0.2,0-0.3,0-0.5,0.1c-1.6,0.9-3.4,4.1-4.4,6c-1-0.1-2-0.2-3-0.2c-2.5,0-5,0.3-7.4,1L154.8,21.9z M318.5,65.1l20.1-1.2   l4-12.8l-20.7,0.8l4.4-13.3l21.5-0.6l3.8-12.2l-33.3,0l-23.3,68.7l36.2-3.5l4.2-13.3L314,79.3L318.5,65.1z M191.1,68.5   c-0.9-8.4-4.8-15.7-10.7-20.9l0-0.1c-11.2-8.9-24.4-8.7-30-8.1c-16.9,3-33.8,15.1-41.7,32.5c-0.3,0.6-0.6,1.3-0.8,2   c-0.9,2.1-1.6,4.3-2.2,6.5c-1.4,5.3-1.7,10.4-1.2,15c0.1,0.9,0.2,1.7,0.4,2.5c0.9,5.2,3,9.8,5.9,13.7c5.9,7.8,15.4,12.5,26.8,12.5   c12.9,0,25.5-5.4,35.2-14c0.8-0.7,1.7-1.5,2.5-2.3c7-6.9,12.2-15.5,14.7-24.7c1.1-4,1.5-7.9,1.4-11.6   C191.3,70.5,191.2,69.5,191.1,68.5z M149.1,61.6c-2.6,4.5-8.9,7.6-13.9,7c-5-0.7-7-4.9-4.3-9.4c2.7-4.5,8.9-7.6,13.9-7   C149.8,52.9,151.7,57.1,149.1,61.6z M95.1,68.8c-0.1-0.4,30.6-17.1,27-34c-1.9-9-17-12.4-39.3-10l-12.7,1.3l-64.9,109l21.4-3   c35.7-5,60.7-18.5,73.6-31.7c-1.5-6.6-1.3-13.7,0.6-21.2c0.7-2.8,1.6-5.4,2.8-8.1C102.1,69.7,95.1,68.8,95.1,68.8z M70.9,61.9   l12-20.6c0.2-0.3,0.4-0.5,0.8-0.5c13.5-1.5,16,2.5,16.3,5.1c0.7,6.4-11.6,15.7-28,17.6c0,0-0.1,0-0.1,0c-0.3,0-0.7-0.2-0.8-0.5   C70.7,62.6,70.7,62.2,70.9,61.9z M58.4,84.2c13.8-1.7,22,0.3,22.7,5.6c0.9,7.3-17,18.2-39.1,21.2L58.4,84.2z M253.3,83.3L251,27.7   l-25,33.9l-1.3-34.2l-29,38.3c1,6,0.2,14.5-1.5,21l14.9-18.2l0,32.9l11.9-0.7l17.3-32l-1.3,31.8l21.6-2.1   c16.5-1.6,39.9-14.2,40.2-31c0.1-4.8-2.3-8.5-9.4-9.4l1.5-1c8.7-5.2,13.7-14.5,11.5-21.6c-2-6.7-9.9-10.2-21.6-9.6l-6.4,0   L253.3,83.3z M272,64.7c11.1-0.6,11.8,3.6,11.9,5.4c0.4,6.2-9.1,12.2-17.3,12.8c0,0-0.1,0-1.1,0L272,64.7z M282.4,35.7   c7-0.1,9,2.8,9,5.7c0.1,4.7-5.2,9.7-13.4,10c0,0,0,0-1-0.1L282.4,35.7z"/>
	<g>
		<path class="st0" d="M447.5,113.3c3.2,0,5.8,2.6,5.8,5.8s-2.6,5.7-5.8,5.7s-5.7-2.6-5.7-5.7S444.3,113.3,447.5,113.3z     M447.5,123.6c2.5,0,4.5-2,4.5-4.5c0-2.5-2-4.5-4.5-4.5c-2.5,0-4.5,2-4.5,4.5C443,121.6,445,123.6,447.5,123.6z M447.6,116.1    c0.6,0,1.3,0.2,1.8,0.6c0.1,0.1,0.2,0.3,0,0.5l-0.5,0.6c-0.1,0.1-0.3,0.1-0.4,0c-0.3-0.2-0.6-0.3-0.9-0.3c-0.8,0-1.5,0.7-1.5,1.5    c0,0.8,0.6,1.5,1.5,1.5c0.3,0,0.6-0.1,0.8-0.3c0.1-0.1,0.3-0.1,0.4,0l0.6,0.6c0.1,0.1,0.1,0.3,0,0.4c-0.6,0.5-1.1,0.7-1.8,0.7    c-1.6,0-3-1.3-3-3C444.6,117.5,446,116.1,447.6,116.1z"/>
		<path class="st0" d="M458.9,113.9c0-0.2,0.2-0.4,0.4-0.4h1.4c0.2,0,0.4,0.2,0.4,0.4v4.3l4-4.5c0.1-0.1,0.2-0.2,0.3-0.2h1.6    c0.3,0,0.5,0.3,0.3,0.6l-4.2,4.7l4.5,5.4c0.2,0.2,0,0.6-0.3,0.6h-1.7c-0.2,0-0.3-0.1-0.3-0.1l-4.2-5.1v4.9c0,0.2-0.2,0.4-0.4,0.4    h-1.4c-0.2,0-0.4-0.2-0.4-0.4V113.9z"/>
		<path class="st0" d="M474,113.3c3.2,0,5.8,2.6,5.8,5.8c0,3.2-2.6,5.7-5.8,5.7s-5.7-2.5-5.7-5.7C468.2,115.9,470.8,113.3,474,113.3    z M474,122.8c2,0,3.7-1.6,3.7-3.7c0-2-1.7-3.7-3.7-3.7c-2,0-3.7,1.7-3.7,3.7C470.3,121.1,472,122.8,474,122.8z"/>
		<path class="st0" d="M481.8,113.6c0-0.2,0.1-0.3,0.3-0.3h0.4l6.6,7.1h0v-6.6c0-0.2,0.1-0.3,0.3-0.3h1.5c0.2,0,0.3,0.1,0.3,0.3    v10.8c0,0.2-0.1,0.3-0.3,0.3h-0.4l-6.7-7.3h0v6.9c0,0.2-0.1,0.3-0.3,0.3h-1.5c-0.2,0-0.3-0.1-0.3-0.3V113.6z"/>
		<path class="st0" d="M492.7,124.3l5-10.8c0-0.1,0.1-0.2,0.3-0.2h0.2c0.2,0,0.2,0.1,0.3,0.2l4.9,10.8c0.1,0.2,0,0.4-0.3,0.4h-1.4    c-0.2,0-0.4-0.1-0.5-0.3l-0.8-1.7h-4.8l-0.8,1.7c-0.1,0.2-0.2,0.3-0.5,0.3H493C492.7,124.7,492.6,124.5,492.7,124.3z M499.6,120.9    l-1.6-3.5h0l-1.6,3.5H499.6z"/>
		<path class="st0" d="M505.9,113.6c0-0.1,0.1-0.2,0.3-0.2h0.3c0.1,0,0.2,0.1,0.3,0.2l3.5,7.5c0,0,0,0,0,0l3.5-7.5    c0-0.1,0.1-0.2,0.3-0.2h0.3c0.2,0,0.3,0.1,0.3,0.2l1.9,10.7c0,0.2-0.1,0.4-0.3,0.4h-1.5c-0.1,0-0.3-0.1-0.3-0.2l-0.9-6.1    c0,0,0,0,0,0l-2.8,6.3c0,0.1-0.1,0.2-0.3,0.2h-0.3c-0.1,0-0.2-0.1-0.3-0.2l-2.8-6.3c0,0,0,0,0,0l-0.9,6.1c0,0.1-0.1,0.2-0.3,0.2    h-1.4c-0.2,0-0.3-0.1-0.3-0.4L505.9,113.6z"/>
		<path class="st0" d="M518.7,113.8c0-0.2,0.1-0.3,0.3-0.3h1.5c0.2,0,0.3,0.1,0.3,0.3v10.6c0,0.2-0.1,0.3-0.3,0.3H519    c-0.2,0-0.3-0.1-0.3-0.3V113.8z"/>
	</g>
</g>
</svg>