<?xml version="1.0" encoding="utf-8"?>
<!-- Generator: Adobe Illustrator 26.0.3, SVG Export Plug-In . SVG Version: 6.00 Build 0)  -->
<svg version="1.1" id="Layer_1" xmlns="http://www.w3.org/2000/svg" xmlns:xlink="http://www.w3.org/1999/xlink" x="0px" y="0px"
	 viewBox="0 0 3839 1076.9" style="enable-background:new 0 0 3839 1076.9;" xml:space="preserve">
<style type="text/css">
	.st0{fill:#FFFFFF;}
</style>
<g>
	<path d="M0,0v1076.9h2654.3V0H0z M2205.8,916.6l-157.5-221.7l-157.5,221.7h-238.7L1929,526.8l-122.1-171.9h-88.1h-34.3h-369.1
		c-57.5,0-57.5,86.2,0,86.2c0,0,0,0.1,0,0.1h170.9c317,0,317,475.5,0,475.5h-394.3v-0.1H958.7l-93-340.6l-92.9,340.6H597.2
		l-93-340.6l-92.9,340.6H209.6L416,160.3h176.7L685,498.9l92.4-338.6h176.7L1107.3,722h378.9c57.5,0,57.5-86.2,0-86.2h-170.9v-0.1
		c-317,0-317-475.5,0-475.5h369.1h34.3h188.7l141,198.4l141-198.4h238.7l-260.3,366.5l276.9,389.8H2205.8z"/>
	<path d="M2718.2,606.5c1-73.4,10.1-132.7,44.2-174.9c34.2-42.2,92.5-66.3,189-66.3c187,0,229.1,87.5,229.1,193.9
		c0,96.5-35.2,157.8-88.5,211L2981.4,878c-16.1,16.1-39.2,37.2-46.2,58.3h245.2v140.7h-468.3c0-98.5,25.1-189,106.6-272.3
		l124.6-126.7c36.2-36.2,50.3-63.3,50.3-116.6c0-60.3-19.1-79.4-48.2-79.4c-26.1,0-52.3,14.1-52.3,94.5v30.2L2718.2,606.5
		L2718.2,606.5z"/>
	<polygon points="3839,676.4 3607.6,676.4 3607.6,445 3438.5,445 3438.5,676.4 3207.1,676.4 3207.1,845.5 3438.5,845.5 
		3438.5,1076.9 3607.6,1076.9 3607.6,845.5 3839,845.5 	"/>
</g>
</svg>
