<svg enable-background="new 0 0 1093.824 295.902" version="1.1" viewBox="0 0 1093.824 295.902" xml:space="preserve" xmlns="http://www.w3.org/2000/svg" xmlns:xlink="http://www.w3.org/1999/xlink"><defs><clipPath id="clipPath1261"><use transform="matrix(1.25,0,0,-1.25,0,295.90125)" overflow="visible" xlink:href="#SVGID_1_"/></clipPath></defs>
<path d="m0 0.001953125v295.9003869h730.63281v-295.9003869h-730.63281zm981.91992 92.16015588v83.085941h-75.91406v37.5664h75.91406v83.08789h35.99218v-83.08789h75.9121v-37.5664h-75.9121v-83.085941h-35.99218zm-164.82226 1.052735c-31.80622 0-65.70313 24.100036-65.70313 63.624996v14.87891h47.74609v-10.77539c0-13.59249 6.65892-22.08203 18.47266-22.08203s17.41992 6.94478 17.41992 21.04101c0 31.81872-53.88057 44.65145-76.43554 84.69141-9.66999 17.08748-10.28125 51.30469-10.28125 51.30469h133.94921v-41.57032h-65.16796c3.56874-25.14997 68.22265-40.53419 68.22265-95.46289 0-52.32494-36.40519-65.650386-68.22265-65.650386z" fill="#221f1f" stroke-width="1.25"/><path d="m672.82787 41.652625-69.46 101.449995 75.55 110.84125h-69.76625l-41.51625-59.33749-41.85 59.47999h-69.3075c1.8825-3.90875 75.86875-110.98249 75.86875-110.98249l-31.535-43.872505-133.775 0.1525c-6.23875 0.49375-13.88625-1.40125-17.015 5.636255-1.09625 2.33125-1.565 5.7675-0.3075 8.12 1.0825 2.64875 3.59 5.14375 6.39125 5.92125l4.2125 0.3175h53.5475c24.81 0.62249 47.77 16.06499 58.5275 38.39124 9.53375 18.73626 8.1275 44.33375-2.495 62.13876-13.4175 22.6225-37.30625 35.27375-63.21125 34.34375h-148.9225s-22.79625-82.2775-22.95-82.42001l-22.94875 82.42001-54.315 0.01-21.855-82.74625-23.89 82.5725h-60.0925s55.255-198.862505 58.845-211.983755h50.74625l23.88 88.667505 24.35-88.667505 49.79375-0.015 42.615 154.407505h99.28125c6.85-0.32875 16.38125 1.5425 19.19375-6.8725 1.09625-3.76501 0.165-7.65875-2.495-10.31-2.50625-2.18876-5.625-2.80125-8.8975-2.80125l-53.38125-0.01c-25.2925-0.7775-50.41875-17.32375-59.78625-41.6625-10.14625-24.36125-4.21375-53.560005 14.3575-72.416255 13.1125-13.14375 28.71875-19.69875 46.995-20.47625l175.1375-0.1525 35.28875 50.8775 36.50875-51.03125z" fill="#fff" stroke-width="1.25"/>
						
					
</svg>
