<svg enable-background="new 0 0 3839 1076.9" version="1.1" viewBox="0 0 3839 1076.9" xml:space="preserve" xmlns="http://www.w3.org/2000/svg">
<path d="m0 0v1076.9004h2654.3008v-1076.9004h-2654.3008zm1315.3008 160.19922h369.0996 34.2988 188.7012l141 198.40039 141-198.40039h238.6992l-260.2988 366.5 276.8984 389.80078h-238.8984v0.09961l-157.5-221.69922-157.5 221.69922h-238.7012l276.9004-389.79883-122.0996-171.90039h-88.0996-34.3008-369.0996c-57.5 0-57.5 86.19922 0 86.19922v0.09961h170.9004c316.9997 0 316.9997 475.5 0 475.5h-394.3008v-0.09961h-133.30078l-93-340.59961-92.89844 340.59961h-175.60156l-93-340.59961-92.89844 340.59961h-201.70117l206.40039-756.29883h176.69922l92.30078 338.59961 92.40039-338.59961h176.69922l153.20119 561.69922h378.8984c57.5 0 57.5-86.19922 0-86.19922h-170.8984v-0.10156c-316.9997 0-316.9997-475.5 0-475.5zm1636.0996 205.10156c-96.4999 0-154.8 24.09887-189 66.29883-34.1 42.19996-43.2012 101.50046-44.2012 174.90039l174.9004 0.19922v-30.19922c0-80.39992 26.2008-94.5 52.3008-94.5 29.1 0 48.1992 19.10045 48.1992 79.40039 0 53.29995-14.0989 80.39965-50.2988 116.59961l-124.6016 126.69922c-81.4999 83.29992-106.5996 173.80088-106.5996 272.30078h468.3008v-140.69922h-245.2012c7-21.09998 30.1012-42.2008 46.2012-58.30078l110.5996-107.80078c53.2999-53.19995 88.5-114.5001 88.5-211 0-106.39989-42.0998-193.89844-229.0996-193.89844zm487.0996 79.69922v231.40039h-231.4004v169.09961h231.4004v231.4004h169.0996v-231.4004h231.4004v-169.09961h-231.4004v-231.40039h-169.0996z"/>
</svg>
