<?xml version="1.0" encoding="UTF-8" standalone="no"?>
<svg
   viewBox="0 0 844.56 251.28">
  <radialGradient
     id="a"
     cx="417.28"
     cy="150.4907"
     gradientTransform="matrix(1 0 0 .104 0 134.8414)"
     gradientUnits="userSpaceOnUse"
     r="587.0909">
    <stop
       offset=".6582"
       stop-color="#754b9f"
       id="stop2" />
    <stop
       offset=".998"
       id="stop4" />
  </radialGradient>
  <radialGradient
     id="b"
     cx="422.28"
     cy="145.1315"
     gradientTransform="matrix(1 0 0 .1276 0 126.6059)"
     gradientUnits="userSpaceOnUse"
     r="469.2759">
    <stop
       offset=".7986"
       stop-color="#410d7c"
       id="stop7" />
    <stop
       offset=".8067"
       stop-color="#3b0c71"
       id="stop9" />
    <stop
       offset=".8448"
       stop-color="#220740"
       id="stop11" />
    <stop
       offset=".8784"
       stop-color="#0f031d"
       id="stop13" />
    <stop
       offset=".9058"
       stop-color="#040108"
       id="stop15" />
    <stop
       offset=".9236"
       id="stop17" />
  </radialGradient>
  <text
     fill="#f90b0b"
     font-family="ArialMT"
     font-size="3"
     transform="translate(752.5302 219.73)"
     id="text20">I don’t like bugs!</text>
  <path
     d="m41.613 24.186 41.934 197.2 41.719-197.2h-22.58l-19.138 110.832-19.355-110.832z"
     fill="#790208"
     id="path28" />
  <path
     d="m134.514 24.186h22.58v197.2h-22.58z"
     fill="#790208"
     id="path30" />
  <path
     d="m174.294 24.163v197.229h22.587v-101.903l31.411 101.903h20.823l-25.129-93.249c13.961-8.215 18.07-18.968 18.07-18.968v-62.651c-9.247-20.142-25.199-22.36-25.199-22.36h-42.563zm22.588 20.076h22.588v68.535h-22.588z"
     fill="#790208"
     id="path32" />
  <path
     d="m250.145 24.186h67.525v20.036h-22.58v177.163h-22.58v-177.163h-22.365z"
     fill="#790208"
     id="path34" />
  <path
     d="m431.603 24.163-43.622 197.021v.208h22.376l4.729-26.583h31.552l4.518 26.583h22.587zm0 85.012 10.306 67.912h-22.305z"
     fill="#790208"
     id="path36" />
  <path
     d="m480.794 24.186h22.58v177.163h33.763v20.036h-56.343z"
     fill="#790208"
     id="path38" />
  <path
     d="m717.293 24.186h20.645l21.075 84.996 19.139-84.996h22.795l-31.612 116v81.2h-22.58v-81.2z"
     fill="#790208"
     id="path40" />
  <path
     d="m681.773 24.186c-25.667 0-33.917 22.338-33.917 22.338.215.316 0 148.29 0 152.508 3.405 23.972 33.917 22.354 33.917 22.354 33.854 0 33.845-22.354 33.845-22.354v-152.508c-8.753-23.445-33.845-22.338-33.845-22.338zm-11.33 22.338h22.588v154.792h-22.588z"
     fill="#790208"
     id="path42" />
  <path
     d="m323.487 24.186h22.795v174.843h22.795v-174.843h22.365v174.843s-7.312 22.356-32.902 22.356c-25.591 0-35.053-22.356-35.053-22.356z"
     fill="#790208"
     id="path44" />
  <path
     d="m562.093 24.163v197.229h45.387c21.067-5.378 22.376-20.076 22.376-20.076s-.033-52.68-.033-66.298c-1.582-8.596-8.79-8.883-8.79-8.883s-.027-2.401 0-4.292c7.965-.597 8.823-9.069 8.823-9.069s-.033-52.627 0-66.251c-3.442-16.089-22.376-22.36-22.376-22.36h-45.387zm22.658 22.499h22.729v66.112h-22.729zm-.07 86.119h22.799v68.535h-22.799z"
     fill="#790208"
     id="path46" />
  <g
     fill="#bc0c17"
     id="g72">
    <path
       d="m32.613 31.186 41.934 197.2 41.719-197.2h-22.58l-19.138 110.832-19.355-110.832z"
       id="path48" />
    <path
       d="m125.514 31.186h22.58v197.2h-22.58z"
       id="path50" />
    <path
       d="m168.294 31.163v197.229h22.587v-101.903l31.411 101.903h20.823l-25.129-93.249c13.961-8.215 18.07-18.968 18.07-18.968v-62.651c-9.247-20.142-25.199-22.36-25.199-22.36h-42.563zm22.588 20.076h22.588v68.535h-22.588z"
       id="path52" />
    <path
       d="m243.145 31.186h67.525v20.036h-22.58v177.163h-22.58v-177.163h-22.365z"
       id="path54" />
    <path
       d="m435.603 31.163-43.622 197.021v.208h22.376l4.729-26.583h31.552l4.518 26.583h22.587zm0 85.012 10.306 67.912h-22.305z"
       id="path56" />
    <path
       d="m486.794 31.186h22.58v177.163h33.763v20.036h-56.343z"
       id="path58" />
    <path
       d="m728.293 31.186h20.645l21.075 84.996 19.139-84.996h22.795l-31.612 116v81.2h-22.58v-81.2z"
       id="path60" />
    <path
       d="m687.773 31.186c-25.667 0-33.917 22.338-33.917 22.338.215.316 0 148.29 0 152.508 3.405 23.972 33.917 22.354 33.917 22.354 33.854 0 33.845-22.354 33.845-22.354v-152.508c-8.753-23.445-33.845-22.338-33.845-22.338zm-11.33 22.338h22.588v154.792h-22.588z"
       id="path62" />
    <path
       d="m319.487 31.186h22.795v174.843h22.795v-174.843h22.365v174.843s-7.312 22.356-32.902 22.356c-25.591 0-35.053-22.356-35.053-22.356z"
       id="path64" />
    <path
       d="m568.093 31.163v197.229h45.387c21.067-5.378 22.376-20.076 22.376-20.076s-.033-52.68-.033-66.298c-1.582-8.596-8.79-8.883-8.79-8.883s-.027-2.401 0-4.292c7.965-.597 8.823-9.069 8.823-9.069s-.033-52.628 0-66.251c-3.442-16.089-22.376-22.36-22.376-22.36zm22.658 22.499h22.729v66.112h-22.729zm-.07 86.119h22.799v68.535h-22.799z"
       id="path66" />
    <path
       d="m795.383 216.575h7.195v2.366h-2.241v9.467h-2.776v-9.467h-2.178z"
       id="path68" />
    <path
       d="m803.7 228.408v-11.833h3.912l1.437 6.989h.031l1.483-6.989h3.881v11.833h-2.65l.284-9.277h-.032l-1.956 9.277h-2.067l-1.908-9.277h-.032l.253 9.277z"
       id="path70" />
  </g>
</svg>
