<svg enable-background="new 0 0 3839 1027.7" version="1.1" viewBox="0 0 3839 1027.7" xml:space="preserve" xmlns="http://www.w3.org/2000/svg">
<path d="m1989.3008 0-200.3008 1000.9004h95.0996l23-115.00001h164.0996l23.2012 115.00001h95.0996l-200.1992-1000.9004zm1252.5996 17.800781c-92.1999 0-167.0996 74.799702-167.0996 167.099609v136.69922 409.40039 112.09961c0 92.19991 74.7997 167.09959 167.0996 167.09959 92.1999 0 167.0996-74.79968 167.0996-167.09959v-112.19922-149.70117-134.59961-125.19922-136.70117c0-92.199909-74.7997-166.898439-167.0996-166.898439zm-3241.9004 9.09961 200.30078 1000.798809 200.19922-1000.798809h-95.09961l-105.09961 525.099609-104.999999-525.099609h-95.300781zm462.09961 0v974.000009h111.70117v-974.000009h-111.70117zm214.20117 0v111.699219 862.30079h111.69922v-542.80079-0.09961-319.59961h110.69922v319.59961h-110.69922l2.40039 8.80078 150.69922 534.09962h116.09959l-125.89842-446.4004c46.89995-23.49998 79.09962-71.90045 79.09962-127.90039v-256.69922c0-78.99992-64.00009-142.999999-143.00001-142.999999h-79.30078-111.79883zm369.19922 0v111.499999h111.0996v862.50001h111.7012v-862.50001h111.1992v-111.499999h-111.1992-111.7012-111.0996zm381 0v816.099609c0 92.19991 74.7997 167.0996 167.0996 167.0996 92.1999 0 167.0996-74.79969 167.0996-167.0996v-816.099609h-111.7988v862.298829h-110.7012v-862.298829h-111.6992zm816 0v862.298829 55.90039 55.80079h282.5996v-111.70118h-170.9004v-862.298829h-111.6992zm406 0v974.000009h33.1992 157.8008c78.9999 0 143-64.00009 143-143.00001v-245.59961c0-32.29997-15.5996-71.70042-39.5996-98.40039 24-26.59997 39.5996-66.10042 39.5996-98.40039v-245.59961c0-78.99992-64.0001-142.999999-143-142.999999h-79.3008-78.5-33.1992zm791.9004 0 142.9004 596.499999v377.50001h111.6992v-369.59962l144-604.400389h-95.3008l-103.5996 432.900389-103.6992-432.900389h-96zm-680.3008 111.499999h110.7012v319.59961h-110.7012v-319.59961zm426.5 0.19922h110.7012v182.80078 259.79883 149.70117 158.29883h-110.7012v-308-134.59961-308zm-1197.2988 337.09961 59.6992 298.5h-119.4004l59.7012-298.5zm770.7988 94h110.7012v319.5h-110.7012v-319.5z"/>
</svg>
