<svg enable-background="new 0 0 566.871 224.862" version="1.1" viewBox="0 0 566.871 224.862" xmlns="http://www.w3.org/2000/svg">
 <path d="m168.01953 0c-1.387 0-2.58842 0.24160986-3.60742 0.72460938-1.018 0.48199952-1.87341 1.13498522-2.56641 1.95898442-0.693 0.8239991-1.20797 1.7970167-1.54297 2.9160156s-0.5039 2.3167981-0.5039 3.5917968c0 1.6789988 0.18931 3.0643448 0.57031 4.1523438 0.38 1.088999 0.97235 2.013391 1.77734 2.775391 0.805 0.762999 1.82832 1.39911 3.07032 1.912109 1.241 0.512999 2.71211 1.020579 4.41211 1.517578 0.715 0.218 1.29614 0.458657 1.74414 0.722656 0.448 0.265 0.79964 0.568157 1.05664 0.910157 0.257 0.342999 0.42953 0.722578 0.51953 1.142578 0.089 0.418999 0.13476 0.878 0.13476 1.375 0 1.275998-0.38062 2.287204-1.14062 3.033203-0.761 0.746999-1.87947 1.121094-3.35547 1.121094-1.365 0-2.50025-0.458954-3.40625-1.376954-0.906-0.916999-1.37058-2.16986-1.39258-3.755859h-4.49414c0.09 3.421997 0.95099 6.004096 2.58399 7.746094 1.63199 1.741998 4.0695 2.611328 7.3125 2.611328 1.14 0 2.2249-0.208907 3.2539-0.628906 1.028-0.42 1.92455-1.027314 2.68555-1.820313s1.36255-1.765017 1.81055-2.916015c0.447-1.150999 0.67187-2.473799 0.67187-3.966797 0-1.243999-0.08858-2.300876-0.26758-3.171875-0.179-0.869999-0.42065-1.616282-0.72265-2.238281-0.302-0.622-0.66947-1.144454-1.10547-1.564454-0.436-0.419999-0.90058-0.768828-1.39258-1.048828-0.872-0.528999-1.83377-0.995391-2.88477-1.40039-1.05199-0.404-2.29361-0.840641-3.72461-1.306641-1.20699-0.403-2.08481-0.908626-2.63281-1.515625s-0.82226-1.360673-0.82226-2.2636719c0-2.5189975 1.31998-3.7792969 3.95898-3.7792969 1.431 0 2.50471 0.3909696 3.2207 1.1679688 0.715 0.7779992 1.13019 1.9608766 1.24219 3.546875h4.42969c-0.045-1.5239985-0.28008-2.9177356-0.70508-4.1777344-0.425-1.2599987-1.02292-2.3327509-1.79492-3.21875-0.772-0.8869991-1.69458-1.5707348-2.76758-2.05273435-1.074-0.48199952-2.283-0.72265625-3.625-0.72265625zm117.28516 0c-1.812 0-3.40163 0.42820398-4.76563 1.2832031-1.364 0.8549992-2.50487 2.0284859-3.42187 3.5214844s-1.61008 3.244002-2.08008 5.2500005c-0.469 2.005997-0.70313 4.144064-0.70313 6.414062 0 2.145998 0.23313 4.222518 0.70313 6.228516s1.14725 3.780314 2.03125 5.320312c0.883 1.539999 1.9465 2.768548 3.1875 3.685547s2.63278 1.375 4.17578 1.375 2.90775-0.365704 4.09375-1.095703c1.185-0.729999 2.04503-1.748689 2.58203-3.054688l0.10156 3.078125h3.85743v-16.65625h-9.29297v5.177735h4.93164c0 0.963999-0.14092 1.875469-0.41992 2.730468-0.279 0.856-0.66425 1.60872-1.15625 2.261719-0.492 0.654-1.06852 1.168016-1.72852 1.541016-0.659 0.373-1.36891 0.558594-2.12891 0.558594-1.07399 0-2.00215-0.325517-2.78515-0.978516-0.783-0.653999-1.42669-1.50097-1.92969-2.542969s-0.87242-2.209001-1.10742-3.5c-0.235-1.289998-0.35156-2.57361-0.35156-3.849609 0-3.700996 0.56531-6.522799 1.69531-8.466797 1.129-1.9429981 2.63272-2.9160156 4.51172-2.9160156 0.626 0 1.23512 0.1399221 1.82812 0.4199218 0.592 0.2799998 1.1106 0.6531411 1.5586 1.1191407 0.447 0.4659995 0.81642 1.0192506 1.10742 1.65625 0.291 0.6379993 0.47011 1.3162507 0.53711 2.0312501h4.69726c-0.089-1.5549986-0.39687-2.9785327-0.92187-4.2695314-0.526-1.2899987-1.21908-2.4029384-2.08008-3.3359375-0.862-0.932999-1.86753-1.6643599-3.01953-2.19335935-1.152-0.52799947-2.38803-0.79296875-3.70703-0.79296875zm106.66992 0c-1.387 0-2.59038 0.24160986-3.60938 0.72460938-1.01799 0.48199952-1.87145 1.13498522-2.56445 1.95898442-0.694 0.8239991-1.20892 1.7960167-1.54492 2.9160156-0.335 1.1189989-0.50195 2.3167981-0.50195 3.5917968 0 1.6789988 0.18836 3.0643448 0.56836 4.1523438 0.38 1.088999 0.97429 2.013391 1.77929 2.775391 0.805 0.762999 1.82832 1.39911 3.07032 1.912109 1.24099 0.512999 2.71015 1.020579 4.41015 1.517578 0.716 0.218 1.2981 0.458657 1.74609 0.722656 0.447 0.265 0.79965 0.568157 1.05665 0.910157 0.257 0.342999 0.42953 0.722578 0.51953 1.142578 0.089 0.418999 0.13476 0.878 0.13476 1.375 0 1.275998-0.38062 2.287204-1.14062 3.033203-0.761 0.746999-1.87947 1.121094-3.35547 1.121094-1.365 0-2.50025-0.458954-3.40625-1.376954-0.906-0.916999-1.37058-2.16986-1.39258-3.755859h-4.49609c0.089 3.421997 0.95098 6.004096 2.58398 7.746094s4.07146 2.611328 7.31445 2.611328c1.14 0 2.22491-0.208907 3.25391-0.628906 1.028-0.42 1.9226-1.027314 2.68359-1.820313 0.761-0.792999 1.3645-1.765017 1.8125-2.916015 0.447-1.150999 0.66993-2.473799 0.66993-3.966797 0-1.243999-0.08858-2.300876-0.26758-3.171875-0.179-0.869999-0.41871-1.616282-0.72071-2.238281-0.30199-0.622-0.67142-1.144454-1.10742-1.564454-0.436-0.419999-0.90058-0.768828-1.39258-1.048828-0.87199-0.528999-1.83376-0.995391-2.88476-1.40039-1.051-0.404-2.29166-0.840641-3.72266-1.306641-1.207-0.403-2.08481-0.908626-2.63281-1.515625-0.549-0.606999-0.82227-1.360673-0.82227-2.2636719 0-2.5189975 1.31999-3.7792969 3.95899-3.7792969 1.431 0 2.5047 0.3909696 3.2207 1.1679688 0.716 0.7779992 1.13019 1.9608766 1.24219 3.546875h4.42773c-0.045-1.5239985-0.28007-2.9177356-0.70507-4.1777344-0.425-1.2599987-1.02293-2.3327509-1.79493-3.21875-0.77199-0.8869991-1.69357-1.5707348-2.76757-2.05273435-1.074-0.48199952-2.28105-0.72265625-3.62305-0.72265625zm41.09766 0c-1.387 0-2.58843 0.24160986-3.60743 0.72460938-1.018 0.48199952-1.87536 1.13498522-2.56836 1.95898442-0.69299 0.8239991-1.20696 1.7960167-1.54296 2.9160156-0.335 1.1189989-0.50196 2.3167981-0.50196 3.5917968 0 1.6789988 0.18932 3.0643448 0.57032 4.1523438 0.37999 1.088999 0.97234 2.013391 1.77734 2.775391 0.805 0.762999 1.82831 1.39911 3.07031 1.912109 1.241 0.512999 2.71211 1.020579 4.41211 1.517578 0.715 0.218 1.29614 0.458657 1.74414 0.722656 0.448 0.265 0.79964 0.568157 1.05664 0.910157 0.257 0.342999 0.42953 0.722578 0.51953 1.142578 0.089 0.418999 0.13477 0.878 0.13477 1.375 0 1.275998-0.38258 2.287204-1.14258 3.033203-0.761 0.746999-1.87752 1.121094-3.35352 1.121094-1.36499 0-2.50025-0.458954-3.40624-1.376954-0.906-0.916999-1.37058-2.16986-1.39258-3.755859h-4.4961c0.09 3.421997 0.95099 6.004096 2.58399 7.746094s4.07145 2.611328 7.31445 2.611328c1.14 0 2.22491-0.208907 3.25391-0.628906 1.028-0.42 1.92259-1.027314 2.68359-1.820313s1.3645-1.765017 1.8125-2.916015c0.447-1.150999 0.66992-2.473799 0.66992-3.966797 0-1.243999-0.08858-2.300876-0.26758-3.171875-0.179-0.869999-0.4187-1.616282-0.7207-2.238281-0.302-0.622-0.67142-1.144454-1.10742-1.564454-0.436-0.419999-0.89863-0.768828-1.39063-1.048828-0.87199-0.528999-1.83376-0.995391-2.88476-1.40039-1.052-0.404-2.29361-0.840641-3.72461-1.306641-1.207-0.403-2.08481-0.908626-2.63281-1.515625s-0.82227-1.360673-0.82227-2.2636719c0-2.5189975 1.31999-3.7792969 3.95899-3.7792969 1.43099 0 2.5047 0.3909696 3.2207 1.1679688 0.715 0.7779992 1.12823 1.9608766 1.24023 3.546875h4.43164c-0.045-1.5239985-0.28007-2.9177356-0.70507-4.1777344-0.425-1.2599987-1.02293-2.3327509-1.79493-3.21875-0.772-0.8869991-1.69653-1.5707348-2.76953-2.05273435-1.074-0.48199952-2.28105-0.72265625-3.62304-0.72265625zm-381.097661 1.0253906-6.33789 4.9101563v5.9492191h8.542969v-3.509766l1.189453-1.0332031h10.611328l1.189453 1.0332031v3.978516l-1.386719 1.035156h-6.492187v6.529297h6.492187l1.386719 1.033203v3.703125l-1.189453 1.035156h-10.613281l-1.1875-1.033203v-3.511719h-8.542969v5.949219l6.33789 4.910156h17.398438l6.337891-4.910156v-8.660156l-2.378907-1.478516v-0.875h0.001953l2.378907-1.484375v-8.6601561l-6.339844-4.9101563h-17.398438zm29.785157 0v30.9785154h21.648434l8.54297-6.234375v-18.5078122l-8.54297-6.2363282h-21.648434zm44.691404 0v30.9804684h9.32813c1.431 0 2.73783-0.382532 3.92382-1.144531 1.185-0.761999 2.20469-1.834751 3.05469-3.21875 0.85-1.383998 1.50389-3.048189 1.96289-4.992187s0.6875-4.09694 0.6875-6.460938c0-2.362998-0.25748-4.479705-0.77148-6.345703-0.515-1.8659981-1.22486-3.4518138-2.13086-4.7578125s-1.99649-2.3097663-3.27148-3.0097656c-1.275-0.6999993-2.66216-1.0507813-4.16016-1.0507813h-8.62305zm23.2168 0v30.9804684h4.66211v-30.9804684h-4.66211zm33.28125 0v30.9804684h4.66211v-11.24414h5.16797c1.096 0 2.07917-0.24161 2.95117-0.72461 0.873-0.481999 1.62105-1.14986 2.24805-2.005859 0.62599-0.854999 1.10736-1.880126 1.44336-3.078125 0.33499-1.196999 0.5039-2.496486 0.5039-3.896484 0-1.399999-0.16791-2.7049703-0.5039-3.9179691-0.336-1.2129988-0.81737-2.2792666-1.44336-3.1972657-0.627-0.916999-1.37505-1.6315317-2.24805-2.1445312-0.872-0.5129995-1.85517-0.7714844-2.95117-0.7714844h-9.83008zm21.77344 0v30.9804684h15.70117v-5.646484h-11.03711v-25.3339844h-4.66406zm40.05664 0 7.71679 19.2695314v11.710937h4.66407v-11.617187l7.44726-19.3632814h-5.36719l-4.32812 12.5976564-4.69727-12.5976564h-5.43554zm80.38086 0v30.9804684h4.32812v-21.136718l4.12695 21.136718h4.63086l4.16016-21.228515v21.228515h4.36133v-30.9804684h-6.71094l-4.02539 22.7207034-4.02539-22.7207034h-6.8457zm27.84765 0v30.9804684h16.91016v-5.505859h-12.38086v-7.978516h10.9043v-5.458984h-10.9043v-6.625h11.84375v-5.4121094h-16.37305zm49.70313 0 7.71679 19.2695314v11.710937h4.66211v-11.617187l7.44727-19.3632814h-5.36719l-4.32812 12.5976564-4.69727-12.5976564h-5.43359zm43.3125 0v5.4121094h6.70898v25.568359h4.66406v-25.568359h6.74414v-5.4121094h-18.11718zm22.41015 0v30.9804684h16.91016v-5.505859h-12.37891v-7.978516h10.90235v-5.458984h-10.90235v-6.625h11.8418v-5.4121094h-16.37305zm22.04297 0v30.9804684h4.32813v-21.136718l4.12695 21.136718h4.62891l4.16015-21.228515v21.228515h4.36133v-30.9804684h-6.71094l-4.02539 22.7207034-4.02539-22.7207034h-6.84375zm-258.14062 0.0019532-7.95313 30.9785152h4.93164l1.57813-6.392578h8.21875l1.4082 6.392578h5.06836l-7.85156-30.9785152h-5.40039zm75.34765 0-7.95312 30.9785152h4.93164l1.57812-6.392578h8.21875l1.40821 6.392578h5.06836l-7.85157-30.9785152h-5.40039zm-176.70312 5.3652343h3.45703c1.118 0 2.06856 0.1801098 2.85156 0.5371094 0.782 0.3579996 1.42669 0.9316102 1.92969 1.7246094s0.86584 1.8126421 1.08984 3.0566411c0.224 1.243998 0.33594 2.737517 0.33594 4.478515 0 3.514997-0.458 6.151205-1.375 7.908203-0.918 1.757998-2.39469 2.636719-4.42969 2.636719h-3.85937v-20.3417969zm56.63086 0h4.42969c1.34199 0 2.30934 0.4197665 2.90234 1.2597657 0.592 0.8389991 0.88867 1.9127513 0.88867 3.2187502 0 1.368998-0.29667 2.480938-0.88867 3.335937-0.593 0.855999-1.56035 1.283203-2.90234 1.283203h-4.42969v-9.0976559zm-97.308596 0.9492188h10.179686l2.92578 2.3398437v13.6679684l-2.92578 2.339844h-10.179686v-18.3476561zm144.648436 0.6367187h0.03321l2.78515 12.3164064h-5.66992l2.85156-12.3164064zm75.34766 0h0.0332l2.78516 12.3164064h-5.66992l2.85156-12.3164064zm-21.80078 28.7910154-29.64649 145.417969h15.68164l3.13282-18.09766h21.6621l3.13477 18.09766h15.68164l-29.64648-145.417969zm179.74609 2.496094c-7.80099 0-23.4043 6.241718-23.4043 21.220703v101.730472c0 14.97898 15.60331 21.2207 23.4043 21.2207h0.93555c7.80099 0 23.40429-6.24172 23.40429-21.2207v-101.730472c0-14.978985-15.6033-21.220703-23.40429-21.220703h-0.93555zm-468.24414 1.560547 30.269531 147.603518 30.269531-147.603518h-15.916015l-14.353516 79.263668-14.355469-79.263668h-15.914062zm67.716797 0v141.361328h15.291015v-141.361328h-15.291015zm29.957031 0v141.361328h15.291012v-77.54492-49.773439h17.47461v49.773439h-1.16992-16.30469l23.79493 77.54492h15.44531l-19.6875-66.56641c2.821-0.645 5.14264-1.71104 6.93164-3.37304 6.28099-5.835 7.02148-16.381932 7.02148-23.169925v-24.691406c0-18.840981-12.67737-23.560547-23.44336-23.560547h-10.0625-15.291012zm53.050782 0v13.730469h16.22656v127.632809h15.29102v-127.632809h16.22656v-13.730469h-16.22656-15.29102-16.22656zm55.85547 0v121.390628c0 14.97898 15.6033 21.2207 23.4043 21.2207h0.9375c7.80099 0 23.40234-6.24172 23.40234-21.2207v-121.390628h-15.28906v121.390628 5.92968h-8.11328-0.93555-8.11524v-5.92968-121.390628h-15.29101zm118.58398 0v141.361328h15.29102 25.58984v-14.04297h-25.58984v-127.318358h-15.29102zm58.51172 0v141.361328h15.29102 9.36132c10.76599 0 23.87305-6.55161 23.87305-23.55859v-32.18164c0-6.784-2.19799-14.20107-7.20898-14.53907-0.201-0.013-0.35938-0.17009-0.35938-0.37109v-0.06055c0-0.201 0.15838-0.35709 0.35938-0.37109 5.01099-0.339 7.20898-7.75607 7.20898-14.539064v-32.179687c0-17.006983-13.10706-23.560547-23.87305-23.560547h-9.36132-15.29102zm112.8086 0 22.46874 84.878908v56.48437h15.29102v-56.48437l22.46875-84.878908h-15.91406l-14.19922 63.660158-14.19922-63.660158h-15.91601zm-36.35352 13.730469h8.11328 0.93555 8.11328v5.929687 101.730472 5.92968h-8.11328-0.93555-8.11328v-5.92968-101.730472-5.929687zm-61.16406 0.3125h16.77148v49.617189h-16.77148v-49.617189zm-110.46875 46.652339 8.40039 48.5254h-16.80078l8.40039-48.5254zm110.46875 17.00782h16.77148v49.61718h-16.77148v-49.61718zm148.84375 50.88086v2.36523h2.17773v9.4668h2.77539v-9.4668h2.24219v-2.36523h-7.19531zm8.3164 0v11.83203h2.63672l-0.2539-9.27539h0.0332l1.90625 9.27539h2.06836l1.95508-9.27539h0.0332l-0.28516 9.27539h2.65039v-11.83203h-3.88086l-1.48242 6.98828h-0.03125l-1.4375-6.98828h-3.91211zm-217.03711 19.95507v5.96875h5.96875v-5.96875h-5.96875zm7.72461 0v5.96875h5.9668v-5.96875h-5.9668zm-178.53711 1.4043v6.16406h6.16211v-6.16406h-6.16211zm7.80078 0v6.16406h6.16407v-6.16406h-6.16407zm67.4043 0c-2.392 1.82-5.14821 2.61328-9.2832 2.61328h-22.54688v5.5h16.85157c0 1.599-0.05579 3.10839-0.17579 4.52539h-17.35546v5.77344h16.31445c-1.88 6.10599-6.22165 9.41358-14.93164 9.51758v6.16211c10.23199 0 17.40141-3.98173 20.44141-12.63672 0.31099-0.885 0.53903-1.92597 0.70703-3.04297h10.68164v-5.77344h-10.25c0.04-1.69 0.02929-3.27939 0.02929-4.52539h0.23438c6.08499 0 9.1662-0.24797 9.2832-2.41797v-5.69531zm87.65039 0.70313v5.73242h-13.92773v5.77344h13.92773v21.25976h5.73242v-21.25976h13.92774v-5.77344h-13.92774v-5.73242h-5.73242zm76.53125 0.87695c-3.53699 6.50499-10.53051 9.30273-26.5625 9.30273v5.73438c6.019 0 11.23169-0.45456 15.67969-1.47656v18.32812h5.85156v-20.19336c5.543-2.375 9.41113-6.14232 11.70313-11.69531h-6.67188zm-121.11718 0.05859c-4.234 0.068-6.98691 2.46635-7.25391 8.77735l-0.46875 13.10547c-0.078 3.08199-1.4331 4.18964-3.1211 4.68164v5.26562c6.548-0.238 8.89485-5.07221 9.08985-10.5332l0.34961-12.40235c-0.122-1.91999 0.4393-2.74578 1.4043-2.92578v-5.96875zm3.16015 0v32.45313c16.72398-1.079 21.64844-13.8275 21.64844-28.39649h-5.84961c0 9.20599-1.51665 16.47546-10.18164 21.06446v-25.1211h-5.61719zm-129.66015 0.46875c-2.516 0-4.69871 2.84774-5.34571 6.55274l-3.19726 15.0957c-0.624 3.004-1.32604 4.21289-2.45703 4.21289h-1.4043v5.85156h3.45117c3.154 0 4.87278-2.30434 5.67578-6.02734l4.0957-18.82227c0.351-1.30599 1.2281-1.48046 2.4961-1.48046v-5.38282h-3.31445zm93.26562 4.32813 0.26367 4.44726h-5.80273v5.77344h6.14453l1.0332 17.43555h5.73438l-1.32813-17.43555h10.25977c-1.26 3.254-3.25411 5.36288-6.16211 6.04688v5.69531c7.01399-1.514 11.83505-6.26464 12.24804-17.51563h-16.78515l-0.33985-4.44726h-5.26562zm-82.92578 2.22461c0.039 0.099 0.07837 0.19454 0.10937 0.31054l4.09766 18.82227c0.803 3.723 2.52178 6.02734 5.67578 6.02734h3.45117v-5.85156h-1.40429c-1.131 0-1.83304-1.20889-2.45703-4.21289l-3.19922-15.0957h-6.27344zm12.12695 3.97851v5.77344h24.38086v-5.77344h-24.38086zm171.33985 0v5.77344h23.58007v-5.77344h-23.58007zm-31.43946 1.7168c-0.293 8.73799-2.57438 12.26772-5.73437 13.26172v5.61719c7.66499-0.761 11.21515-9.43992 11.41015-18.87891h-5.67578zm17.49414 0c0.195 9.43899 3.74517 18.11791 11.41016 18.87891v-5.61719c-3.16-0.995-5.43942-4.52473-5.73242-13.26172h-5.67774z" fill="#f91d11"/>
</svg>
