<svg version="1.1" viewBox="0 0 399.99999 59.762961" xmlns="http://www.w3.org/2000/svg"><path d="m37.208984 0c-4.470474 3.4137831e-7 -8.099609 3.6291349-8.099609 8.0996094 0 4.4704746 3.629136 8.0996086 8.099609 8.0996096 4.470476 0 8.09961-3.629134 8.09961-8.0996096 0-4.4704749-3.629134-8.099609628-8.09961-8.0996094zm34.582032 0c-4.470476-2.2758555e-7 -8.09961 3.6291345-8.09961 8.0996094 0 4.4704756 3.629134 8.0996096 8.09961 8.0996096 4.470474 0 8.099609-3.629134 8.099609-8.0996096 0-4.4704749-3.629135-8.099609628-8.099609-8.0996094zm-50.539063 0.18554688c-2.297412 0-4.246735 1.49729312-4.898437 3.54882812l-15.99804725 49.111328c-0.257274773 0.514546-0.35546875 1.121184-0.35546875 1.767578 0 2.847854 2.302539 5.150391 5.1503906 5.150391 2.2977296 0 4.2489578-1.498806 4.9003904-3.550781v-0.001953l16.201172-49.7148442v-0.0019532c0.101813-0.3563568 0.150391-0.7572936 0.150391-1.1582031 0-2.8478523-2.302539-5.15039062-5.150391-5.15039062zm34.582031 0c-2.298358 0-4.249492 1.49794432-4.90039 3.55078122l-16.00586 49.1308599c-0.199315 0.550351-0.296875 1.148934-0.296875 1.746093 0 2.847854 2.302539 5.150391 5.150391 5.150391 2.297729 0 4.248957-1.498806 4.900391-3.550781v-0.001953l16.15039-49.7148442 0.001953-0.0019532c0.101814-0.3563571 0.150391-0.7572938 0.150391-1.1582031 0-2.8478523-2.302539-5.15039062-5.150391-5.15039062zm33.5625 0.34765624v31.04101588h5.773438v-12.367188h10.718748v-5.966797h-10.718748v-6.9355465h10.718748v-5.77148438h-16.492186zm30.703126 0-21.777344 31.04101588h6.595704l3.25-4.84961h10.86328v4.84961h5.62695v-31.04101588h-4.55859zm6.74023 0v31.04101588h5.82032v-15.666016l6.88672 15.666016h5.86914l7.17773-15.666016v15.666016h5.77344v-31.04101588h-6.54883l-9.26367 20.85546888-9.21485-20.85546888h-6.5zm33.36914 0v31.04101588h6.01368v-31.04101588h-6.01368zm7.66407 0v31.04101588h13.82226v-5.673828h-7.80859v-25.36718788h-6.01367zm7.1289 0 9.94336 19.74023488v11.300781h5.82031v-11.300781l9.94141-19.74023488h-6.5957l-6.11133 12.70703088-6.30469-12.70703088h-6.69336zm73.96485 0c-8.77874 0-15.85938 7.12913888-15.85938 15.85937488 0 8.778737 7.12914 15.861328 15.85938 15.861328 8.73023 0 15.81087-7.082591 15.85937-15.861328 0-8.778737-7.12914-15.85937488-15.85937-15.85937488zm17.55664 0v31.04101588h5.77344v-15.666016l6.93554 15.666016h5.86719l7.13086-15.666016v15.666016h5.82031v-31.04101588h-6.59766l-9.26367 20.85546888-9.16601-20.85546888h-6.5zm33.51562 0v31.04101588h5.82032v-10.669922h4.55859c5.23814-0.436512 9.36133-4.801902 9.36133-10.185547 0-5.3836455-4.12319-9.74903531-9.36133-10.18554688h-10.37891zm-80.6582 0.09765626c-8.68174 0-15.76367 7.07998352-15.76367 15.76171862 0 8.681734 7.03343 15.763672 15.76367 15.763672 6.11116 0 11.39851-3.491019 14.01758-8.535156l-7.13086 0.046875c-1.74605 1.600542-4.12279 2.61914-6.69336 2.61914-5.48065 0-9.89258-4.413883-9.89258-9.894531s4.41193-9.892578 9.89258-9.892578c2.57057 0 4.84998 0.9697691 6.64453 2.5703125l7.13086 0.0488281c-2.61907-5.0441369-7.90609-8.48828122-13.96875-8.48828122zm102.04687 0.19335937v22.21484325c0.43651 5.238142 4.80191 9.359376 10.18555 9.359376 5.38365-1e-6 9.74904-4.121234 10.18555-9.359376v-22.21484325h-5.9668v22.21484325c-0.38801 1.988555-2.13319 3.490235-4.21875 3.490235s-3.83268-1.50168-4.2207-3.490235v-4.560546-17.65429725h-5.96485zm21.19532 0v5.86914065h5.09179v25.2695316h5.86914v-25.2695316h5.28711v-5.86914065h-16.24804zm17.70312 0v31.13867225h16.15039v-5.72461h-10.3789v-6.498047h10.3789v-5.820312h-10.3789v-7.419922h10.3789v-5.67578125h-16.15039zm17.6543 0v31.13867225h5.77148v-16.054688h0.53321l9.36132 16.103516h6.30469l-6.69336-11.447266c3.88011-1.455038 6.64453-5.18957 6.64453-9.554687 0-5.3836459-4.12123-9.7490357-9.35937-10.18554725h-12.5625zm-129.01367 5.52929685c5.52914 0 10.03906 4.5099134 10.03906 10.0390624 0 5.52915-4.46142 10.041016-10.03906 10.041016-5.52916 0-10.03907-4.511866-10.03907-10.041016 0-5.529149 4.50991-10.0390624 10.03907-10.0390624zm56.89258 0.1464844h4.55859c1.98855 0.3880106 3.49219 2.1331932 3.49219 4.21875 0 2.085556-1.50364 3.830739-3.49219 4.21875h-4.55859v-8.4375zm77.89257 0.2421875h6.79102c1.98856 0.3880106 3.49219 2.1331942 3.49219 4.2187505 0 2.085556-1.50363 3.832692-3.49219 4.220703h-6.79102v-8.4394535zm-264.7207 5.0917965v9.021485 0.048828h-6.64453l6.64453-9.070313zm-87.835938 6.548828c-4.470474 1e-6 -8.099609 3.629135-8.099609 8.09961 0 4.470474 3.629135 8.099609 8.099609 8.099609 4.470476 0 8.09961-3.629135 8.09961-8.099609 0-4.470476-3.629134-8.09961-8.09961-8.09961zm34.582032 0c-4.470476 0-8.09961 3.629134-8.09961 8.09961 0 4.470474 3.629134 8.099609 8.09961 8.099609 4.470474 0 8.099609-3.629135 8.099609-8.099609 0-4.470475-3.629135-8.099609-8.099609-8.09961zm23.61914 18.138672v3.007813h304.298826l6.30469-3.007813h-310.603516zm0.146485 7.177735v4.220703h16.054691c0 1.164029-0.04884 2.376658-0.33985 3.492187-0.58202 1.697549-2.08598 3.249678-3.83203 3.492188h-9.943358v3.587891h11.398438c1.69755-0.77603 3.49253-1.697312 4.41406-3.44336 2.03705-3.201087 1.45508-7.809013 1.45508-11.349609h-19.207031zm56.068361 0v9.458984h3.39453v-9.458984h-3.39453zm15.95508 0c-0.0485 1.891558 0.00162 3.735405-0.04688 5.626953-0.09701 1.309539-0.29234 2.375356-1.06836 3.296875-0.77603 1.115529-1.93916 2.279625-3.3457 2.328125-2.86158 0.0485-5.81974-0.0485-8.63281 0l-0.04883 3.541016h9.02148c0.77602 0.048499 1.55178-0.145844 2.2793-0.339844 0.97003-0.43652 2.13379-1.211606 2.57031-1.890625 1.30953-1.455039 1.98828-3.007536 1.98828-4.996094v-7.566406h-2.71679zm29.34375 0v4.269531h15.23046v6.935547h-15.76367v3.587891h18.91602v-14.792969h-18.38281zm19.5957 0v4.171875h11.05859v-4.171875h-11.05859zm16.19922 0c-0.0485 1.891558-3.3e-4 3.735405-0.04883 5.626953-0.097 1.309539-0.29039 2.375356-1.06641 3.296875-0.77602 1.115529-1.94111 2.279625-3.34765 2.328125-2.81308 0.0485-8.97208-0.0485-11.78516 0l-0.04883 3.541016h12.17383c0.77602 0.048499 1.55178-0.145844 2.2793-0.339844 0.97003-0.43652 2.1338-1.211606 2.57031-1.890625 1.30954-1.455039 1.98828-3.007536 1.98828-4.996094v-7.566406h-2.71484zm3.68554 0.048828c0 3.589096-0.04849 7.469497 0 11.058594 0 1.600548 1.40629 3.540365 2.57032 3.734375h16.29687v-3.589844l-14.40429-0.046875c-1.26103-0.29101-1.6504-1.89294-1.6504-3.105469h16.10352c0.0485-1.018529 0-2.133486 0-3.103516h-1.98828c0.77602-0.388009 1.35742-1.211611 1.35742-2.18164 0-1.358039-1.11462-2.474609-2.47266-2.47461-1.35803 0-2.4746 1.116571-2.4746 2.47461 0 0.970029 0.53289 1.793631 1.35742 2.18164h-1.11524c-0.38801 0-0.33921-1.066406-1.11523-1.066406h-9.69922v-3.880859h-2.76563zm54.85547 0c0.0485 1.358039 0.04914 2.667018-0.48437 3.685547-0.43651 0.679019-1.26272 1.068693-1.99024 1.408203v4.21875c2.61908 0 4.36559-2.521224 4.9961-4.800781h8.73047c0.92152 0.097 1.98762-0.145789 1.89062 1.40625h-10.18359l-0.04883 4.169922 9.79687-0.048829c-0.4365 0.67902-1.93916 1.164063-3.3457 1.164063-3.05559 0-7.4698-0.0485-10.52539 0v3.589844c4.26812 0 8.5854-0.0485 12.85352 0 0.87303 0 4.60742-1.842857 4.60742-5.189454v-9.603515c-5.38365 0-10.91323-0.0485-16.29688 0zm-159.32812 0.146484v3.830078l18.82031 2.085938v-3.878906l-18.82031-2.03711zm120.33203 1.308594c0.72752 0 1.31055 0.583028 1.31055 1.310547s-0.58303 1.308594-1.31055 1.308594-1.30859-0.581075-1.30859-1.308594 0.62957-1.310547 1.30859-1.310547zm-136.72461 1.84375v3.830078h10.96094c0.97002 0 1.64844 0.339856 1.64844 0.921875h-6.30469c0 1.261029 0.04946 3.105469-0.72656 3.105469l-5.5293 0.046875v3.492187h6.78906c1.06703 0 2.08594-1.648477 2.08594-3.103515 1.21253-0.19401 4.65694 0.388298 5.91797-1.40625 0.92153-1.600549 0.67806-4.607161 0.72656-6.886719h-15.56836zm141.91406 0.582031v3.878906h8.2461v3.44336h-9.65235v3.541016h15.47266v-3.541016h-3.05664v-7.322266h-11.00977zm-125.52148 0.533203v3.878907l18.82031 2.037109v-3.878906l-18.82031-2.03711zm39.5293 1.212891v3.734375h18.14062v-3.734375h-18.14062zm98.16601 0v3.734375h18.14063v-3.734375h-18.14063zm-137.69531 3.201172v3.878906l18.82031 2.03711v-3.832032l-18.82031-2.083984z"/></svg>
