<svg height="126.123" width="340.154" xmlns="http://www.w3.org/2000/svg"><g fill="#fff"><path d="M277.724 70.452H62.576c-19.423 0-35.228-15.803-35.228-35.227S43.154 0 62.576 0h215.146c19.426 0 35.229 15.802 35.229 35.226-.001 19.423-15.802 35.226-35.227 35.226zM62.576 8.333c-14.829 0-26.895 12.064-26.895 26.895 0 14.828 12.065 26.894 26.895 26.894h215.146c14.827 0 26.896-12.065 26.896-26.894 0-14.83-12.067-26.895-26.896-26.895z"/><path d="M90.208 51.562V19.047h-9.779v22.735L66.006 19.047H55.494v32.515h9.779V28.093l15.155 23.469zm15.891 0V29.56h-9.778v22.002zm0-26.648v-5.867h-9.778v5.867zm34.225 26.648V36.403c0-3.178-6.112-7.578-9.289-7.578H128.1c-2.199 0-4.645 1.956-6.845 2.934V29.56h-9.779v22.002h9.779V36.403c0-1.467 3.422-3.178 4.89-3.178 1.467 0 4.155 1.711 4.155 3.178v15.158h10.024zm81.819.757V37.162c0-3.179-6.109-7.578-9.292-7.578h-2.932c-2.201 0-4.646 1.956-6.848 2.933v-2.199h-9.777V52.32h9.777V37.162c0-1.466 3.424-3.179 4.891-3.179 1.466 0 4.154 1.713 4.154 3.179v15.157zm-65.928-.757V29.56h5.134v-2.934h-5.134v-4.645h-10.021v4.645h-5.135v2.934h5.135v22.002zm18.823-22.736c-7.822 0-14.422 5.378-14.422 11.979 0 6.846 6.6 12.223 14.422 12.223 6.846 0 12.469-3.911 13.936-9.045h-10.022v2.934c0 2.445-1.709 3.18-3.91 3.18-2.2 0-3.668-.734-3.668-3.18v-6.111h18.093c-.003-6.601-6.359-11.98-14.429-11.98zm0 2.2c2.201 0 3.912 1.467 3.912 3.912v2.199h-7.578v-2.199c0-2.445 1.467-3.912 3.666-3.912zm96.326-2.2c-8.069 0-14.426 5.378-14.426 11.979 0 6.846 6.354 12.223 14.426 12.223 7.819 0 14.422-5.377 14.422-12.223-.004-6.6-6.603-11.979-14.422-11.979zm0 2.2c2.196 0 3.666 1.467 3.666 3.912v11.978c0 2.444-1.47 3.179-3.666 3.179-2.444 0-3.914-.734-3.914-3.179V34.938c-.002-2.445 1.467-3.912 3.914-3.912zm-28.117-11.979v11.979s-2.936-2.2-6.848-2.2c-6.111 0-11.244 5.378-11.244 11.246 0 6.112 5.135 12.224 11.244 12.224 3.912 0 6.848-1.467 6.848-1.467v.732h9.779V19.047zm-3.668 13.446c2.199 0 3.668 1.712 3.668 3.912v9.045c0 2.201-1.469 2.934-3.668 2.934-2.443 0-3.912-.732-3.912-2.934v-9.045c0-2.2 1.469-3.912 3.912-3.912zm47.427-3.277a5.042 5.042 0 0 1-5.036-5.035c0-2.959 2.213-5.28 5.036-5.28 2.729 0 5.036 2.417 5.036 5.28 0 2.681-2.35 5.035-5.036 5.035zm0-9.533c-2.427 0-4.253 1.934-4.253 4.5a4.26 4.26 0 0 0 4.253 4.254c2.229 0 4.254-2.028 4.254-4.254 0-2.399-1.984-4.5-4.254-4.5zm.884 6.647-.864-1.515h-1.095v1.321h-.78V21.59h2.104c.979 0 1.488.813 1.488 1.613 0 .615-.303 1.238-.885 1.492l.711 1.248zm-1.959-2.294h1.321a.637.637 0 0 0 .521-.235.98.98 0 0 0 .188-.597c0-.311-.151-.832-.709-.832h-1.321zM51.827 99.231v-14.18c0-2.688-2.689-5.379-5.378-5.379H25.914v19.559h6.357V86.032c0-.979.732-1.957 1.711-1.957h9.777c.979 0 1.957.979 1.957 1.957v13.199zm169.642 0v-14.18c0-2.688-2.688-5.379-5.376-5.379h-20.536v19.559h6.354V86.032c0-.979.736-1.957 1.713-1.957h9.779c.979 0 1.953.979 1.953 1.957v13.199zm92.858 0v-14.18c0-2.688-2.688-5.379-5.379-5.379h-20.535v19.559h6.354V86.032c0-.979.732-1.957 1.714-1.957h9.776c.979 0 1.955.979 1.955 1.957v13.199zm-55.435 0v-14.18c0-2.688-2.688-5.379-5.379-5.379h-27.625v19.559h6.357V86.032c0-.979.731-1.957 1.709-1.957h3.668c.734 0 1.712.979 1.712 1.957v13.199h6.358V86.032c0-.979.731-1.957 1.709-1.957h3.668c.733 0 1.711.979 1.711 1.957v13.199zm-237.378 0H5.379C2.691 99.231 0 97.521 0 94.833v-15.4h21.513v4.645H7.089c-.732 0-1.711.734-1.711 1.712 0 .979.979 1.712 1.711 1.712h13.446v3.911H7.089c-.732 0-1.711.979-1.711 1.712 0 .979.979 1.955 1.711 1.955h14.424zm79.465.247H84.843c-2.688 0-5.379-1.711-5.379-4.398V79.677h21.515v4.645H86.553c-.731 0-1.71.734-1.71 1.714s.979 1.711 1.71 1.711h13.446v3.91H86.553c-.731 0-1.71.979-1.71 1.714 0 .979.979 1.954 1.71 1.954h14.426zm183.928-.247H268.77c-2.688 0-5.381-1.711-5.381-4.398v-15.4h21.516v4.645h-14.424c-.732 0-1.714.734-1.714 1.712 0 .979.979 1.712 1.714 1.712h13.443v3.911h-13.443c-.732 0-1.714.979-1.714 1.712 0 .979.979 1.955 1.714 1.955h14.424v4.154h.002zM54.517 79.675v4.4h6.355c1.712 0 1.712 0 1.712 1.957v13.199h6.111V86.032c0-1.957 0-1.957 1.956-1.957h6.111v-4.4zm77.68 0v4.4h6.355c1.71 0 1.71 0 1.71 1.957v13.199h6.112V86.032c0-1.957 0-1.957 1.957-1.957h6.112v-4.4zm185.712 0v4.4h6.355c1.713 0 1.713 0 1.713 1.957v13.199h6.11V86.032c0-1.957 0-1.957 1.955-1.957h6.111v-4.4zm-212.543 0v19.559h6.356v-3.42c0-.979.733-1.959 1.711-1.959h8.068c.979 0 1.711.979 1.711 1.959v3.42h5.379v-5.379c0-.731-.732-1.709-.732-2.688 0-.731 1.711-2.442 1.711-4.397v-1.713c0-1.713-2.689-5.38-4.4-5.38zm8.067 4.4h8.068c.979 0 1.71.979 1.71 1.957v1.71c0 .979-.732 1.713-1.71 1.713h-8.068c-.978 0-1.711-.733-1.711-1.713v-1.71c.001-.976.733-1.957 1.711-1.957zm48.161-4.4c-1.712 0-4.399 3.667-4.399 5.381v14.178h6.354v-5.379h11.489v5.379h6.355V85.056c0-1.714-2.688-5.381-4.645-5.381zm3.667 4.4h8.066c.731 0 1.711.979 1.711 1.957v3.422h-11.489v-3.422c0-.976.734-1.957 1.712-1.957zm26.646 15.156V79.673h-6.11v19.559h6.11zm58.953 26.79v-14.18c0-2.688-2.689-5.379-5.381-5.379h-27.623v19.559h6.354V112.82c0-.979.732-1.957 1.71-1.957h3.667c.734 0 1.714.979 1.714 1.957v13.199h6.354V112.82c0-.979.731-1.957 1.709-1.957h3.668c.733 0 1.715.979 1.715 1.957v13.199h6.111zm-37.381 0h-16.136c-2.688 0-5.377-1.713-5.377-4.398V106.22h21.511v4.646h-14.422c-.732 0-1.712.733-1.712 1.711 0 .979.979 1.712 1.712 1.712h13.444v3.911h-13.444c-.732 0-1.712.979-1.712 1.713 0 .979.979 1.954 1.712 1.954h14.422zm-46.462-19.559v4.398h6.355c1.711 0 1.711 0 1.711 1.957v13.199h6.111v-13.199c0-1.957 0-1.957 1.959-1.957h6.109v-4.398zm-72.406.103c-1.712 0-5.379 2.69-5.379 4.398v2.691c0 1.712 3.667 4.4 5.379 4.4h10.756c.978 0 1.956.979 1.956 1.711 0 .977-.979 1.954-1.956 1.954H89.232v4.399h18.09c1.712 0 5.134-2.688 5.134-4.399v-2.688c0-1.957-3.422-4.646-5.134-4.646H96.566c-.979 0-1.955-.733-1.955-1.713 0-.978.977-1.713 1.955-1.713h15.89v-4.397H94.611zm51.786 0c-1.713 0-5.38 2.69-5.38 4.398v2.691c0 1.712 3.667 4.4 5.38 4.4h10.756c.978 0 1.956.979 1.956 1.711 0 .977-.979 1.954-1.956 1.954h-16.136v4.399h18.091c1.712 0 5.134-2.688 5.134-4.399v-2.688c0-1.957-3.422-4.646-5.134-4.646h-10.757c-.978 0-1.955-.733-1.955-1.713 0-.978.978-1.713 1.955-1.713h15.891v-4.397h-17.845zm-31.985 0v8.804c0 1.71 2.688 4.399 4.4 4.399h4.398v6.354h6.357v-6.354h4.4c1.71 0 4.4-2.689 4.4-4.399v-8.804h-6.112v7.092c0 .732-.978 1.712-1.956 1.712h-7.822c-.979 0-1.956-.979-1.956-1.712v-7.092z"/></g></svg>