<svg enable-background="new 0 0 3839 550.3" version="1.1" viewBox="0 0 3839 550.3" xml:space="preserve" xmlns="http://www.w3.org/2000/svg">
<path d="m358.90039 0v60.199219h88.29883v-60.199219h-88.29883zm-358.90039 0.80078125v292.7988288h90.699219v-204.59961l127.000001 204.59961h90.70117v-292.7988288h-90.59961v204.3378888l-126.101561-204.3378888h-91.699219zm1658 0.79882815c0.1-0.79999923 0.0996 61.9012176 0.0996 107.2011706-14-8.29999-28.9-15.600782-49.5-17.30078-63.4999-5.799994-112.1992 50.30083-112.1992 102.30078 0 67.69993 51.9992 93.3 60.1992 96.5 29.7 13.99999 67.7004 13.99959 101.4004-7.40039v11.59961h86.6992v-292.9003906h-86.6992zm-858.69922 28.8007816v39.599609h-47.90039v28.900391h47.90039v194.699219h88.29883v-194.699219h47.90039v-29h-47.90039v-39.5h-88.29883zm1102.19922 55.298828c-70.8999 0-128.5996 48.701231-128.5996 109.701171 0 60.19994 57.6997 109.69922 128.5996 109.69922s128.5996-48.69928 128.5996-109.69922-55.9997-109.701171-128.5996-109.701171zm-848.0996 0.90039c-71.69994 0-129.50001 48.701231-129.50001 109.701171 0 60.19994 57.70007 109.69922 129.50001 109.69922 59.3999 0 109.7004-33.79966 125.4004-80.09961h-87.4004v11.59961c0 35.49996-23.1008 43.69922-36.3008 43.69922s-37.0996-8.29926-37.0996-43.69922v-40.40039h165.8008c0-60.19994-58.6005-110.500001-130.4004-110.500001zm-400.09962 3.300782c-28.89997 0.799999-53.60158 13.199239-70.10156 29.699219v-20.59961h-87.39844v194.69922h87.39844v-127.89844c0-17.29998 18.20159-35.5 42.10156-35.5 23.89998 0 40.39844 18.90002 40.39844 35.5v127.89844h87.40039v-105.59961c0.1-77.59992-66.69886-99.099218-99.79883-98.199219zm716.09962 0c-28.9 0.799999-53.5996 13.199239-70.0996 29.699219v-20.59961h-87.4004v194.69922h87.4004v-127.89844c0-17.29998 18.1996-35.5 42.0996-35.5s40.4004 18.90002 40.4004 35.5v127.89844h87.3984v-105.59961c-0.8-77.59992-67.6988-99.099218-99.7988-98.199219zm-1010.50001 9v194.699219h88.29883v-194.699219h-88.29883zm1541.79881 10.699219c17.3 0 36.3008 12.4012 36.3008 43.70117v41.29883 41.20117c0 31.39997-18.2008 43.69922-36.3008 43.69922-17.3 0-36.2988-13.19925-36.2988-43.69922v-42.10156-40.39844c0-30.49997 18.1988-43.70117 36.2988-43.70117zm-844.6992 0.80078c11.6 0 23.9004 5.79923 31.4004 18.19922 5.8 9.89999 5.7988 21.40002 5.7988 38h-73.5c-1.7-17.29998-1.6996-28.00001 4.9004-38 6.6-12.39999 19.8004-17.29922 31.4004-18.19922zm567.5 12.5c14 0 34.5996 7.40003 34.5996 38v34.59961 34.59961c0 29.69997-20.5996 38-34.5996 38s-34.5996-8.30003-34.5996-38v-34.59961-34.59961c0-30.49997 20.5996-38 34.5996-38zm-1623.5 285.29883v100.30078c0 23.09998 18.700804 41.80078 41.800781 41.80078h117.298829v-36.10156h-106.000001c-6.199993 0-11.199218-4.99923-11.199218-11.19922s4.999225-11.19922 11.199218-11.19922h99.800781v-25.10156h-99.800781c-6.199993 0-11.199218-4.99923-11.199218-11.19922s4.999225-11.19922 11.199218-11.19922h106.000001v-36.10156h-117.298829-41.800781zm188.69922 0v142.10156h45.80078v-95.20117c0-5.69999 4.7004-10.40039 10.40039-10.40039h78.5c5.69999 0 10.40039 4.7004 10.40039 10.40039v29 66.20117h45v-66.20117-11.40039-17.19922-8.19922c0.2-21.59998-17.30041-39.10156-38.90039-39.10156h-151.20117zm208.80078 0v35.70117h50.30078c5.5 0 9.89844 4.4004 9.89844 9.90039v96.39844h50.5v-96.39844c0-5.49999 4.40039-9.90039 9.90039-9.90039h50.30078l-0.09961-35.70117h-170.80078zm192.19922 0v100.30078c0 23.09998 18.7008 41.80078 41.80078 41.80078h117.30078v-36.10156h-106c-6.19999 0-11.20117-4.99923-11.20117-11.19922s5.00118-11.19922 11.20117-11.19922h99.79883v-25.10156h-99.79883c-6.19999 0-11.20117-4.99923-11.20117-11.19922s5.00118-11.19922 11.20117-11.19922h106v-36.10156h-117.30078-41.80078zm379.90039 0v35.70117h50.30079c5.5 0 9.9004 4.4004 9.9004 9.90039v96.39844h50.5v-96.39844c0-5.49999 4.3984-9.90039 9.8984-9.90039h50.3008l-0.0996-35.70117h-170.80079zm231.99999 0c-23.3 0-42.1992 18.90119-42.1992 42.20117v11.40039 88.5h46.5v-35h80.4004v35h46.5v-88.5-11.40039c0-23.29998-18.8016-42.20117-42.1016-42.20117h-10.7988-25.2012-17.0996-25.1992-10.8008zm162.9004 0v142.10156h48.0996v-142.10156h-48.0996zm77.5996 0v142.10156h45.8008v-95.20117c0-5.69999 4.7004-10.40039 10.4004-10.40039h78.5c5.7 0 10.3984 4.7004 10.3984 10.40039v29 66.20117h45v-66.20117-11.40039-17.19922-8.19922c0.2-21.59998-17.3-39.10156-39-39.10156h-151.0996zm220.5 0v142.10156h41.9004v-88.80078-6.69922c0-5.49999 4.4996-10.10156 10.0996-10.10156h35.8008c5.5 0 10.0996 4.50157 10.0996 10.10156v17.19922 78.30078h47.3008v-88.80078-6.69922c0-5.49999 4.4996-10.10156 10.0996-10.10156h35.7988c5.5 0 10.1016 4.50157 10.1016 10.10156v6.69922 88.80078h2.2988 45v-100.40039c-0.2-23.09998-18.8988-41.70117-41.7988-41.70117h-206.7012zm274.7012 0v100.30078c0 23.09998 18.6988 41.80078 41.7988 41.80078h117.3008v-36.10156h-106c-6.2 0-11.2012-4.99923-11.2012-11.19922s5.0012-11.19922 11.2012-11.19922h99.7988v-25.10156h-99.7988c-6.2 0-11.2012-4.99923-11.2012-11.19922s5.0012-11.19922 11.2012-11.19922h105.9004v-36.10156h-117.2012-41.7988zm187 0v142.10156h45.7988v-95.20117c0-5.69999 4.7004-10.40039 10.4004-10.40039h78.5c5.7 0 10.4004 4.7004 10.4004 10.40039v29 66.20117h45v-66.20117-11.40039-17.19922-8.19922c0.1-21.59998-17.4-39.10156-39-39.10156h-151.0996zm211 0v35.70117h50.2988c5.5 0 9.9004 4.4004 9.9004 9.90039v96.39844h50.5v-96.39844c0-5.49999 4.4004-9.90039 9.9004-9.90039h50.2988v-35.70117h-0.0996-170.7988zm673.1992 0v0.10156h-42.6992-0.3008v53c0 5.9-4.7992 10.69922-10.6992 10.69922h-63.8008c-5.9 0-10.6992-4.79922-10.6992-10.69922v-53h-1-44v52 7.39844c0 22.49998 18.1992 40.70117 40.6992 40.70117h21.4004v41.90039h49.6992v-41.90039h21.8008c22.5 0 40.6992-18.20119 40.6992-40.70117v-59.5h-1.0996zm63.6992 0c-23.3 0-42.6992 19.5008-42.6992 41.30078 0 31.19997 20.2008 43 47.3008 43h66.6992c7 0 14 3.09923 14 10.19922 0 6.29999-4.7004 11.70117-10.9004 11.70117h-117.1992v35.90039h128c21 0 42.6992-17.2008 42.6992-41.30078 0.1-28.99997-23.1996-43-48.0996-43h-66.6992c-7.8 0-13.2012-3.09923-13.2012-10.19922 0-6.29999 4.7004-11.70117 10.9004-11.70117h114.0996v-35.90039h-124.9004zm142.3008 0v35.70117h50.3008c5.5 0 9.8984 4.4004 9.8984 9.90039v96.39844h50.5v-96.39844c0-5.49999 4.4004-9.90039 9.9004-9.90039h50.3008v-35.70117h-0.0996-170.8008zm188.9004 0v100.30078c0 23.09998 18.6988 41.80078 41.7988 41.80078h117.3008v-36.10156h-106c-6.2 0-11.1992-4.99923-11.1992-11.19922s4.9992-11.19922 11.1992-11.19922h99.8008v-25.10156h-99.8008c-6.2 0-11.1992-4.99923-11.1992-11.19922s4.9992-11.19922 11.1992-11.19922h105.9004v-36.10156h-117.2012-41.7988zm-2627.30079 0.10156v52 90h47.40039v-27.70117c0-4.9 4.00079-8.79883 8.80078-8.79883h64.59961c4.9 0 8.79883 3.99883 8.79883 8.79883v0.80078 26.79883h45.20117v-26.79883c-0.1-6.89999-3.10001-19.59962-17.5-29.09961 12.69999-8.19999 21.29883-22.80041 21.29883-39.40039 0-25.69997-20.30003-46.59961-45.5-46.59961h-10.09961-123zm1915.70119 0c-24.8 0-45 19.49885-45 41.29883 0 31.09997 21.6984 42.90039 48.8984 42.90039h65.2012c7.8 0 14 3.09923 14 10.19922 0 6.19999-6.1996 11.70117-11.5996 11.70117h-115.7012v35.90039h128c23.3 0 44.2012-17.2008 44.2012-41.30078 0.1-28.89997-22.4016-42.90039-49.6016-42.90039h-65.1992c-7.8 0-14-3.09923-14-10.19922 0-6.19999 6.1996-11.70117 11.5996-11.70117h114.0996v-35.89844h-124.8984zm898.7988 0v142.09961h41.9004v-88.80078-6.69922c0-5.49999 4.4996-10.09961 10.0996-10.09961h35.8008c5.5 0 10.0996 4.49962 10.0996 10.09961v17.29883 78.30078h47.3008v-88.80078-6.69922c0-5.49999 4.4996-10.09961 10.0996-10.09961h35.7988c5.5 0 10.1016 4.49962 10.1016 10.09961v6.69922 88.80078h2.2988 45v-100.59961c-0.2-22.99998-18.7988-41.59961-41.7988-41.59961h-206.7012zm-2758.0996 34.09961h64.5c4.9 0 8.80078 3.99883 8.80078 8.79883v18.10156c0 4.9-4.00078 8.79883-8.80078 8.79883h-64.5c-4.9 0-8.80078-3.99883-8.80078-8.79883v-18.10156c0-4.9 4.00078-8.79883 8.80078-8.79883zm385.3008 1.5h19.8984 17.1016 19.8984c6.5 0 11.7012 5.19923 11.7012 11.69922v22.5h-80.3008v-22.5c0-6.49999 5.2012-11.69922 11.7012-11.69922z"/>
</svg>
