<?xml version="1.0" encoding="utf-8"?>
<!-- Generator: Adobe Illustrator 26.0.3, SVG Export Plug-In . SVG Version: 6.00 Build 0)  -->
<svg version="1.1" id="Layer_1" xmlns="http://www.w3.org/2000/svg" xmlns:xlink="http://www.w3.org/1999/xlink" x="0px" y="0px"
	 viewBox="0 0 3839 1214.3" style="enable-background:new 0 0 3839 1214.3;" xml:space="preserve">
<style type="text/css">
	.st0{fill:#FFFFFF;}
	.st1{fill:url(#SVGID_1_);}
	.st2{fill:url(#SVGID_00000147899381405538191520000007997294344641179297_);}
	.st3{fill:url(#SVGID_00000114777631685292673370000011612916122428356740_);}
	.st4{fill:url(#SVGID_00000026158739105705471880000017571791833271643054_);}
	.st5{fill:url(#SVGID_00000182508104462871189970000010089160408172028571_);}
	.st6{fill:url(#SVGID_00000132787289754973066700000012725281722115456900_);}
	.st7{fill:url(#SVGID_00000056418659706747620220000016676845413148062593_);}
	.st8{fill:url(#SVGID_00000008861771664156221190000015449198010370222473_);}
	.st9{fill:url(#SVGID_00000172423059228969604690000009875612683940434048_);}
	.st10{fill:url(#SVGID_00000104677573019808730410000012577899562983456180_);}
	.st11{fill:url(#SVGID_00000042734692260856876930000018134290035330944139_);}
	.st12{fill:url(#SVGID_00000078036296013904709680000010848507475646015150_);}
	.st13{fill:url(#SVGID_00000115496047485158357320000002867857259947208592_);}
	.st14{fill:url(#SVGID_00000037662869482637676740000003151491642049928340_);}
	.st15{fill:url(#SVGID_00000081607839995624251370000011542313217795103390_);}
	.st16{fill:url(#SVGID_00000153697155231737001610000012155714826641281709_);}
	.st17{fill:url(#SVGID_00000180364806501974250770000002238478819792744119_);}
	.st18{fill:url(#SVGID_00000043450365592635262180000002889167668932255395_);}
	.st19{fill:url(#SVGID_00000109737718255288768690000006053132833492411780_);}
	.st20{fill:url(#SVGID_00000164513015144455392650000002112580432247522476_);}
	.st21{fill:url(#SVGID_00000166658353954371061200000012482742073376106422_);}
	.st22{fill-rule:evenodd;clip-rule:evenodd;}
	.st23{fill:#00AD9C;}
	.st24{fill:#FBB817;}
	.st25{fill:#0174BA;}
	.st26{fill:#EB2027;}
	.st27{fill-rule:evenodd;clip-rule:evenodd;fill:#FFFFFF;}
</style>
<g>
	<linearGradient id="SVGID_1_" gradientUnits="userSpaceOnUse" x1="597.9769" y1="662.0109" x2="597.9769" y2="-4.547474e-13">
		<stop  offset="0" style="stop-color:#1BE7F2"/>
		<stop  offset="1.123279e-02" style="stop-color:#1CE5F1"/>
		<stop  offset="0.1812" style="stop-color:#2DB8E0"/>
		<stop  offset="0.3516" style="stop-color:#3A93D2"/>
		<stop  offset="0.5199" style="stop-color:#4677C8"/>
		<stop  offset="0.6855" style="stop-color:#4E63C0"/>
		<stop  offset="0.847" style="stop-color:#5257BC"/>
		<stop  offset="1" style="stop-color:#5353BA"/>
	</linearGradient>
	<polyline class="st1" points="0,0 1196,0 1196,354.6 47.3,354.6 47.3,662 0,662 0,307.4 1148.7,307.4 1148.7,47.3 0,47.3 0,0 	"/>
	
		<linearGradient id="SVGID_00000183221169433347823200000002865807408029216169_" gradientUnits="userSpaceOnUse" x1="3240.9927" y1="662.0109" x2="3240.9927" y2="4.547474e-13">
		<stop  offset="0" style="stop-color:#1BE7F2"/>
		<stop  offset="1.123279e-02" style="stop-color:#1CE5F1"/>
		<stop  offset="0.1812" style="stop-color:#2DB8E0"/>
		<stop  offset="0.3516" style="stop-color:#3A93D2"/>
		<stop  offset="0.5199" style="stop-color:#4677C8"/>
		<stop  offset="0.6855" style="stop-color:#4E63C0"/>
		<stop  offset="0.847" style="stop-color:#5257BC"/>
		<stop  offset="1" style="stop-color:#5353BA"/>
	</linearGradient>
	<polyline style="fill:url(#SVGID_00000183221169433347823200000002865807408029216169_);" points="3839,612.3 3839,662 2643,662 
		2643,307.4 3791.7,307.4 3791.7,47.3 2643,47.3 2643,0 3839,0 3839,354.6 2690.3,354.6 2690.3,614.7 3839,614.7 3839,662 	"/>
	
		<linearGradient id="SVGID_00000111897676035159630440000006112913009961487032_" gradientUnits="userSpaceOnUse" x1="1830.8784" y1="662.0109" x2="1830.8784" y2="4.547474e-13">
		<stop  offset="0" style="stop-color:#1BE7F2"/>
		<stop  offset="1.123279e-02" style="stop-color:#1CE5F1"/>
		<stop  offset="0.1812" style="stop-color:#2DB8E0"/>
		<stop  offset="0.3516" style="stop-color:#3A93D2"/>
		<stop  offset="0.5199" style="stop-color:#4677C8"/>
		<stop  offset="0.6855" style="stop-color:#4E63C0"/>
		<stop  offset="0.847" style="stop-color:#5257BC"/>
		<stop  offset="1" style="stop-color:#5353BA"/>
	</linearGradient>
	<polyline style="fill:url(#SVGID_00000111897676035159630440000006112913009961487032_);" points="1806,0 1806,614.7 1196,614.7 
		1196,662 1855.7,662 1855.7,47.3 2465.8,47.3 2465.8,0 1806,0 	"/>
	<g>
		<g>
			<path d="M985.8,892.3V1125h36.3V914.6h33.6c0,0,24.4,0,32.8,10.9c7.1,9.3,8.4,26.1,8.4,37.5c0,12.2-0.8,31-4.9,37.9
				c-6.2,10.5-16.4,12.6-25.7,12.6h-22.2v20.7h31.9c0,0,28.8,1.2,41.2-11.4c15.2-15.4,19.1-36.2,19.1-64c0-25.2-9.2-50.7-27.9-59.4
				c-15.5-7.1-43.4-7.1-43.4-7.1H985.8"/>
			<rect x="1165" y="892.3" width="36.3" height="232.8"/>
			<polyline points="1394.6,946.6 1461.1,1120.8 1423,1214.3 1453.1,1214.3 1563,946.6 1529.4,946.6 1481.5,1077 1436.9,946.6 
				1394.6,946.6 			"/>
			<path d="M1590.4,1123.7v-22c0,0,38.4,1.5,46.4,1.5c17.7,0,26.6-3.8,33.3-10.9c3.9-4.3,7.5-23.3,7.5-30c0-6.7-1.3-21.3-3.9-27.3
				c-2.7-5.9-8.9-11.3-18.2-12.1c-6.6-0.6-16.9-1.9-28.8-2.5c-16.8-0.8-27.9-9.5-33.2-15.8c-5.3-6.3-12.4-15.8-12.4-44.8
				c0-29.1,7.5-45.4,15.1-52.9c7.5-7.6,18.6-10.9,27-12.4c9.7-1.7,25.7-1.8,25.7-1.8l50.9,1.5v22c0,0-37.1-1.5-45.1-1.5
				c-17.7,0-23.1,3.8-29.7,10.9c-3.9,4.2-7,16-7,22.7c0,6.8,0.8,20.4,3.5,26.3c2.6,5.9,8.9,11.3,18.2,12.2
				c6.6,0.5,16.9,1.8,28.8,2.4c16.9,0.8,27.9,9.5,33.2,15.8c5.3,6.3,12.5,19.6,12.5,48.6c0,29.1-7.6,49.8-15.1,57.4
				c-7.6,7.6-18.6,10.9-27,12.4c-9.8,1.7-25.7,1.8-25.7,1.8L1590.4,1123.7"/>
			<path d="M1788.7,914.6h-36.3v170.9c0,0,0.9,15.6,1.8,21.1c0.9,5.5,8.9,18.5,29.7,18.5l37.6-0.7v-21.9c0,0-10.2,0.7-16.4,0.7
				c-6.2,0-13.8-0.4-15.1-10.9c-1.4-10.5-1.4-23.1-1.4-23.1V968.5h41v-21.9h-41V914.6"/>
			<rect x="2139.3" y="946.6" width="36.3" height="178.5"/>
			<rect x="2139.3" y="892.3" width="36.3" height="32.4"/>
			<path d="M2265.5,979.3c-5,6.2-11.1,19.1-11.1,56.5c0,37.4,6.1,50.4,11.1,56.5c5,6.1,14.2,10.2,26,10.2c11.9,0,21-4.1,26.1-10.2
				c5-6.1,11.1-19.1,11.1-56.5c0-37.5-6.1-50.4-11.1-56.5c-5-6.1-14.2-10.2-26.1-10.2C2279.7,969.1,2270.5,973.2,2265.5,979.3
				 M2290.4,945c24.7,0,43.9,5.5,54.2,13.9c10.4,8.3,23.2,26,23.2,76.9c0,51-12.8,68.6-23.2,76.9c-10.3,8.3-29.5,13.9-54.2,13.9
				c-24.8,0-43.9-5.6-54.3-13.9c-10.4-8.4-23.1-26-23.1-76.9c0-51,12.7-68.6,23.1-76.9C2246.6,950.6,2265.7,945,2290.4,945z"/>
			<path d="M2443.1,971.6l35.6-1.5c9.3,0,20.3,2.5,25.6,9.3c5,6.4,8.1,13.9,8.1,26.1v119.3h36.4v-122.3c0-23.1-7.1-36.6-17.8-45
				c-15.2-12.1-42.5-10.9-42.5-10.9L2407,948v176.8h36V971.6"/>
			<path d="M2067,914.6h-36.3v170.9c0,0,0.9,15.6,1.7,21.1c0.9,5.5,8.8,18.5,29.7,18.5l37.6-0.7v-21.9c0,0-10.2,0.7-16.4,0.7
				s-13.8-0.4-15.1-10.9c-1.3-10.5-1.3-23.1-1.3-23.1V968.5h40.9v-21.9H2067V914.6"/>
			<path d="M1339.2,1005.5c0-12.2-3.1-19.8-8.1-26.1c-5.3-6.7-16.2-9.3-25.6-9.3l-47.9,1.5V948l57.7-1.5c0,0,27.3-1.2,42.6,10.9
				c10.6,8.5,17.7,21.9,17.7,45v120.6l-69.6,1.5c0,0-31.5,0.1-47.4-6.3c-15.5-6.3-23.9-23.6-23.9-47.6c0-23.2,7.1-36.6,17.7-45.1
				c15.3-12.1,42.5-10.9,42.5-10.9h22.2v20.6h-12.5c-9.3,0-19,1.7-24.3,8.5c-5,6.3-7.6,11.8-7.6,24c0,16,3.1,23.2,10.6,28.6
				c6.7,4.9,18.6,5.9,31.9,5.9l24-1.5V1005.5"/>
			<path d="M1951.9,1005.5c0-12.2-3-19.8-8-26.1c-5.4-6.7-16.3-9.3-25.6-9.3l-47.9,1.5V948l57.6-1.5c0,0,27.3-1.2,42.5,10.9
				c10.6,8.5,17.8,21.9,17.8,45v120.6l-69.6,1.5c0,0-31.6,0.1-47.4-6.3c-15.5-6.3-24-23.6-24-47.6c0-23.2,7.1-36.6,17.7-45.1
				c15.2-12.1,42.6-10.9,42.6-10.9h22.2v20.6h-12.5c-9.3,0-19,1.7-24.2,8.5c-5,6.3-7.7,11.8-7.7,24c0,16,3.1,23.2,10.6,28.6
				c6.6,4.9,18.6,5.9,31.9,5.9l23.9-1.5V1005.5"/>
		</g>
		<path d="M2853.2,922.3c0.5,26.8-0.8,40.9-9.8,54.4c-8,11.8-23.7,22.6-58.5,22.6l-43.1-1.3c-6.8,0.1-24.5,2.1-32.8,11.1
			c-7.2,7.6-7.7,13.4-8.4,34v60.2h146.7v29.6h-160.3l-7.7-0.1c-10.9,0-21.6-7.4-21.6-22.2v-44.9c0.7-52.5,4.5-60.1,15.9-73.8
			c7.9-9.5,26.4-20.1,49-21.3c4.4-0.2,12.8-0.8,24.4-0.4c8.6,0.3,17.1,0.5,20.9,0.5c20,0.2,27.3-3.4,32.7-10.6
			c6.2-8.1,9.5-17.6,9.5-33.1c0-14.5-2.9-28.4-8.5-34.8c-6.8-7.4-13.2-12.3-32-12.3c-47.4-0.1-102.8,1.1-102.8,1.1v-27.8
			c0,0,54.1-2.4,109.3-3.2c34.4-0.5,53.3,8.6,62.9,21.1C2849.1,884.3,2852.8,896.7,2853.2,922.3"/>
	</g>
</g>
</svg>
