<svg enable-background="new 0 0 3839 1214.3" version="1.1" viewBox="0 0 3839 1214.3" xml:space="preserve" xmlns="http://www.w3.org/2000/svg"><defs><linearGradient id="SVGID_1_" x1="597.9769" x2="597.9769" y1="662.0109" y2="-4.547474e-13" gradientUnits="userSpaceOnUse">
		<stop stop-color="#1BE7F2" offset="0"/>
		<stop stop-color="#1CE5F1" offset=".01123279"/>
		<stop stop-color="#2DB8E0" offset=".1812"/>
		<stop stop-color="#3A93D2" offset=".3516"/>
		<stop stop-color="#4677C8" offset=".5199"/>
		<stop stop-color="#4E63C0" offset=".6855"/>
		<stop stop-color="#5257BC" offset=".847"/>
		<stop stop-color="#5353BA" offset="1"/>
	</linearGradient></defs>
<path d="m0 0v47.300781h1148.6992v260.099609h-1148.6992v354.59961h47.300781v-307.40039h1148.699219v-354.59961h-1196zm1806 0v614.69922h-610v47.30078h659.6992v-614.699219h610.1016v-47.300781h-659.8008zm837 0v47.300781h1148.6992v260.099609h-1148.6992v354.59961h1196v-47.30078h-1148.6992v-260.09961h1148.6992v-354.59961h-1196z" fill="url(#SVGID_1_)"/><path d="m2776.0996 850c-55.1999 0.8-109.2988 3.19922-109.2988 3.19922v27.80078s55.3989-1.19961 102.7988-1.09961c18.8 0 25.2 4.89884 32 12.29883 5.6 6.39999 8.5 20.30079 8.5 34.80078 0 15.49998-3.3 24.99962-9.5 33.09961-5.4 7.19999-12.6992 10.79961-32.6992 10.59961-3.8 0-12.3004-0.2-20.9004-0.5-11.6-0.4-20.0004 0.20039-24.4004 0.40039-22.6 1.2-41.1 11.80079-49 21.30078-11.4 13.70001-15.2004 21.29891-15.9004 73.79881v44.9004c0 14.8 10.7016 22.2012 21.6016 22.2012l7.6992 0.0996h160.3008v-29.5996h-146.7012v-60.2012c0.7-20.6 1.2004-26.4 8.4004-34 8.3-9 26.0008-10.9996 32.8008-11.0996l43.0996 1.30078c34.8 0 50.5-10.80157 58.5-22.60156 9-13.49999 10.2988-27.59847 9.7988-54.39844-0.4-25.59997-4.0992-38.00118-14.1992-51.20117-9.6-12.49999-28.5004-21.59961-62.9004-21.09961zm-1790.29882 42.30078v232.69922h36.29882v-210.40039h33.5996s24.4008 4e-4 32.8008 10.90039c7.1 9.29999 8.4004 26.10001 8.4004 37.5 0 12.19999-0.8004 31.0004-4.9004 37.9004-6.2 10.5-16.3992 12.5996-25.6992 12.5996h-22.2012v20.6992h31.9004s28.7992 1.2016 41.1992-11.3984c15.2-15.4 19.1016-36.20005 19.1016-64.00002 0-25.19997-9.2004-50.7004-27.9004-59.40039-15.5-7.09999-43.4004-7.09961-43.4004-7.09961h-79.19922zm179.19922 0v232.79882h36.3008v-232.79882h-36.3008zm974.3008 0v32.39844h36.2988v-32.39844h-36.2988zm-490.4004 0.39844s-16.0012 0.10078-25.7012 1.80078c-8.4 1.5-19.5 4.8004-27 12.40039-7.6 7.49999-15.0996 23.80042-15.0996 52.90039 0 28.99997 7.1004 38.49884 12.4004 44.79882 5.3 6.3 16.3992 15.0008 33.1992 15.8008 11.9 0.6 22.2008 1.9 28.8008 2.5 9.3 0.8 15.4992 6.1996 18.1992 12.0996 2.6 6 3.9004 20.6008 3.9004 27.3008s-3.6 25.7-7.5 30c-6.7 7.1-15.5988 10.8984-33.2988 10.8984-8 0-46.4004-1.5-46.4004-1.5v22l56 1.5s15.8992-0.0988 25.6992-1.7988c8.4-1.5 19.4-4.8004 27-12.4004 7.5-7.6 15.0996-28.3004 15.0996-57.4004 0-29-7.2-42.2996-12.5-48.5996-5.3-6.29999-16.2992-15.00078-33.1992-15.80078-11.9-0.6-22.2008-1.89844-28.8008-2.39844-9.3-0.9-15.5992-6.30118-18.1992-12.20117-2.7-5.89999-3.5-19.49884-3.5-26.29883 0-6.69999 3.1-18.50117 7-22.70117 6.6-7.09999 11.9992-10.90039 29.6992-10.90039 8 0 45.1016 1.5 45.1016 1.5v-22l-50.9004-1.5zm103.5 21.90039v170.90039s0.8988 15.5996 1.7988 21.0996 8.9012 18.5 29.7012 18.5l37.5996-0.6992v-21.9004s-10.2004 0.6992-16.4004 0.6992-13.7996-0.3984-15.0996-10.8984c-1.4-10.5-1.4004-23.1016-1.4004-23.1016v-100.6992h41v-21.90039h-41v-32h-36.1992zm278.2988 0v170.90039s0.9012 15.5996 1.7012 21.0996c0.9 5.5 8.7992 18.5 29.6992 18.5l37.5996-0.6992v-21.9004s-10.1984 0.6992-16.3984 0.6992-13.8016-0.3984-15.1016-10.8984-1.2988-23.1016-1.2988-23.1016v-100.6992h40.9004v-21.90039h-40.8008v-32h-36.3008zm259.7012 30.40039c-24.7 0-43.8008 5.6004-54.3008 13.90039-10.4 8.29999-23.0996 25.90044-23.0996 76.90041 0 50.8999 12.6996 68.4984 23.0996 76.8984 10.4 8.3 29.5008 13.9004 54.3008 13.9004 24.7 0 43.8992-5.6004 54.1992-13.9004 10.4-8.3 23.2012-25.8985 23.2012-76.8984 0-50.89997-12.8012-68.60042-23.2012-76.90041-10.3-8.39999-29.4992-13.90039-54.1992-13.90039zm-975.0996 1.5-57.7012 1.5v23.59961l47.9004-1.5c9.4 0 20.2996 2.60079 25.5996 9.30078 5 6.29999 8.0996 13.89962 8.0996 26.09961v95.1992l-24 1.5c-13.3 0-25.1984-0.9984-31.8984-5.8984-7.5-5.4-10.6016-12.6016-10.6016-28.6016 0-12.2 2.6016-17.7 7.6016-24 5.3-6.8 14.9988-8.5 24.2988-8.5h12.5v-20.5996h-22.1992s-27.2-1.1996-42.5 10.9004c-10.6 8.5-17.7012 21.8996-17.7012 45.0996 0 24 8.4004 41.2996 23.9004 47.5996 15.9 6.4 47.4004 6.3008 47.4004 6.3008l69.5996-1.5v-120.5996c0-23.09999-7.0992-36.50002-17.6992-45.00001-15.3-12.09999-42.5996-10.90039-42.5996-10.90039zm612.6992 0-57.5996 1.5v23.59961l47.9004-1.5c9.3 0 20.1996 2.60079 25.5996 9.30078 5 6.29999 8 13.89962 8 26.09961h-0.0996v95.1992l-23.9004 1.5c-13.3 0-25.3004-0.9984-31.9004-5.8984-7.5-5.4-10.5996-12.6016-10.5996-28.6016 0-12.2 2.6992-17.7 7.6992-24 5.2-6.8 14.9012-8.5 24.2012-8.5h12.5v-20.5996h-22.2012s-27.3996-1.1996-42.5996 10.9004c-10.6 8.5-17.6992 21.8996-17.6992 45.0996 0 24 8.5 41.2996 24 47.5996 15.8 6.4 47.3984 6.3008 47.3984 6.3008l69.6016-1.5v-120.5996c0-23.09999-7.2008-36.50002-17.8008-45.00001-15.2-12.09999-42.5-10.90039-42.5-10.90039zm-533.4004 0.09961 66.5 174.20119-38.0996 93.5h30.0996l109.9004-267.70119h-33.5996l-47.9004 130.40039-44.5996-130.40039h-42.3008zm744.7012 0v178.49999h36.2988v-178.49999h-36.2988zm349.1992 0-81.5 1.40039v176.8008h36v-153.20119h0.0996l35.5996-1.5c9.3 0 20.3016 2.50079 25.6016 9.30078 5 6.39999 8.0996 13.89962 8.0996 26.09961v119.3008h36.4004v-122.3008c0-23.09998-7.1008-36.60001-17.8008-45-15.2-12.09999-42.5-10.90039-42.5-10.90039zm-197 22.5c11.9 0 21.0996 4.10118 26.0996 10.20117 5 6.1 11.0996 19.00004 11.0996 56.50002 0 37.3999-6.0996 50.4-11.0996 56.5-5.1 6.1-14.1996 10.1992-26.0996 10.1992-11.8 0-21-4.0992-26-10.1992s-11.0996-19.1001-11.0996-56.5c0-37.39998 6.0996-50.30002 11.0996-56.50002 5-6.09999 14.2-10.20117 26-10.20117z"/>
</svg>
