<svg version="1.0" viewBox="0 0 800 238.15" xml:space="preserve" xmlns="http://www.w3.org/2000/svg"><path d="M0 0v9.149h225.36v50.725H0v69.846h9.143V69.021H233.68V0zm517.25 0v9.149h225.37v50.725H517.25v69.846h234.51v-9.14H527.24V69.021h224.52V0zM353.43 0v120.58H233.68v9.14h129.73V9.149h118.91V0zm422.45 116.42h-4.16v-1.66h11.65v1.66h-4.99v13.3h-2.5zm12.48-1.66 4.15 12.47 4.17-12.47H800v14.96h-1.67v-12.46l-4.15 12.46h-2.5l-4.16-12.46v12.46h-2.5v-14.96z" fill="#fff" fill-rule="evenodd"/><g fill="#fff"><path d="M189.72 175.41v45.711h7.136V179.79h6.605s4.798 0 6.442 2.146c1.396 1.823 1.651 5.13 1.651 7.363 0 2.39-.151 6.083-.953 7.435-1.217 2.066-3.215 2.481-5.042 2.481h-4.36v4.056h6.27s5.657.236 8.09-2.237c2.983-3.032 3.741-7.108 3.741-12.564 0-4.958-1.799-9.96-5.476-11.66-3.044-1.4-8.532-1.4-8.532-1.4H189.72m35.19 45.71h7.135v-45.711h-7.135v45.711zm45.1-35.05 13.055 34.215-7.495 18.356h5.923l21.583-52.571h-6.613l-9.401 25.623-8.747-25.623h-8.305m38.44 34.78v-4.32s7.547.295 9.118.295c3.482 0 5.221-.742 6.53-2.146.774-.841 1.471-4.57 1.471-5.899 0-1.324-.255-4.188-.773-5.36-.535-1.15-1.751-2.222-3.574-2.378-1.3-.112-3.31-.375-5.66-.483-3.295-.155-5.473-1.874-6.522-3.11-1.04-1.237-2.433-3.1-2.433-8.8 0-5.708 1.476-8.907 2.956-10.39 1.48-1.493 3.645-2.147 5.309-2.442 1.914-.327 5.041-.347 5.041-.347l9.988.291v4.32s-7.283-.291-8.85-.291c-3.483 0-4.528.746-5.832 2.146-.77.833-1.372 3.139-1.372 4.46 0 1.327.155 4.008.678 5.169.518 1.148 1.739 2.225 3.566 2.389 1.296.1 3.31.363 5.656.47 3.31.156 5.484 1.871 6.521 3.112 1.05 1.24 2.445 3.853 2.445 9.549 0 5.707-1.488 9.784-2.96 11.272-1.483 1.483-3.645 2.145-5.308 2.433-1.919.33-5.046.355-5.046.355l-10.949-.295m38.93-41.06h-7.132v33.557s.172 3.063.347 4.14c.176 1.077 1.743 3.634 5.832 3.634l7.39-.144v-4.303s-2.001.143-3.21.143c-1.225 0-2.708-.08-2.96-2.15-.267-2.066-.267-4.535-.267-4.535v-19.76h8.057v-4.3h-8.057v-6.282m68.86 41.33h7.132v-35.047h-7.132v35.047zm0-39.35h7.132v-6.363h-7.132v6.363zm29.68 4c4.854 0 8.62 1.085 10.642 2.72 2.042 1.64 4.551 5.098 4.551 15.105 0 10.008-2.509 13.462-4.551 15.105-2.022 1.636-5.788 2.729-10.642 2.729-4.866 0-8.616-1.093-10.654-2.729-2.038-1.643-4.535-5.097-4.535-15.105s2.497-13.466 4.535-15.105c2.038-1.635 5.788-2.72 10.654-2.72zm-4.89 6.721c-.981 1.209-2.178 3.75-2.178 11.105 0 7.351 1.197 9.896 2.178 11.101.977 1.197 2.78 2.006 5.113 2.006 2.338 0 4.133-.81 5.122-2.006.977-1.205 2.174-3.75 2.174-11.101 0-7.355-1.197-9.896-2.174-11.105-.99-1.2-2.784-2.002-5.122-2.002-2.333 0-4.136.801-5.113 2.002m34.86-1.501 6.996-.295c1.831 0 3.985.494 5.03 1.819.973 1.248 1.587 2.736 1.587 5.133v23.43h7.144v-24.02c0-4.543-1.4-7.184-3.498-8.843-2.991-2.373-8.352-2.146-8.352-2.146l-15.983.287v34.722h7.076V190.99m-73.86-11.2h-7.136v33.557s.168 3.063.34 4.14c.179 1.077 1.734 3.634 5.839 3.634l7.39-.144v-4.303s-2.005.143-3.218.143-2.7-.08-2.96-2.15c-.255-2.066-.255-4.535-.255-4.535v-19.76h8.037v-4.3h-8.037v-6.282m-142.91 17.86c0-2.397-.61-3.885-1.591-5.133-1.045-1.325-3.191-1.82-5.026-1.82l-9.41.296v-4.635l11.324-.287s5.361-.228 8.357 2.146c2.09 1.659 3.478 4.3 3.478 8.843v23.685l-13.673.295s-6.19.022-9.31-1.24c-3.04-1.237-4.698-4.632-4.698-9.342 0-4.547 1.392-7.188 3.482-8.847 2.995-2.377 8.352-2.142 8.352-2.142h4.368v4.036h-2.45c-1.834 0-3.721.34-4.77 1.664-.977 1.236-1.5 2.31-1.5 4.706 0 3.148.61 4.552 2.09 5.62 1.309.954 3.65 1.161 6.263 1.161l4.714-.287V197.65m120.31 0c0-2.397-.598-3.885-1.58-5.133-1.057-1.325-3.202-1.82-5.025-1.82l-9.406.296v-4.635l11.316-.287s5.357-.228 8.349 2.146c2.09 1.659 3.486 4.3 3.486 8.843v23.685l-13.673.295s-6.199.022-9.31-1.24c-3.043-1.237-4.706-4.632-4.706-9.342 0-4.547 1.404-7.188 3.482-8.847 2.991-2.377 8.36-2.142 8.36-2.142h4.364v4.036h-2.453c-1.823 0-3.722.34-4.759 1.664-.981 1.236-1.508 2.31-1.508 4.706 0 3.148.615 4.552 2.09 5.62 1.305.954 3.658 1.161 6.27 1.161l4.703-.287V197.65m130.15 23.75a6.953 6.953 0 0 0 6.968-6.964 6.94 6.94 0 0 0-2.038-4.93 6.936 6.936 0 0 0-4.93-2.034c-3.825 0-6.964 3.123-6.964 6.964 0 1.859.718 3.61 2.046 4.93a6.946 6.946 0 0 0 4.918 2.034zm-5.796-6.964c0-1.548.61-3.004 1.7-4.097a5.778 5.778 0 0 1 4.096-1.703 5.77 5.77 0 0 1 4.1 1.703 5.777 5.777 0 0 1 1.7 4.097c0 3.195-2.597 5.8-5.8 5.8a5.79 5.79 0 0 1-4.096-1.7 5.786 5.786 0 0 1-1.7-4.1"/><path d="M513.01 217.68c-.104-.04-.183-.16-.227-.339a2.87 2.87 0 0 1-.068-.586l-.032-1.002c-.016-.47-.116-.805-.283-1.029-.108-.151-.272-.27-.46-.383.232-.151.44-.335.587-.566.196-.311.3-.706.3-1.185 0-.917-.388-1.563-1.142-1.902-.398-.18-.881-.26-1.471-.26h-3.602v7.754h1.34v-3.179h2.118c.383 0 .67.04.834.112.275.136.423.41.438.83l.06 1.24c.016.303.032.495.056.606.036.12.056.216.1.296l.055.095h1.496v-.454l-.1-.048zm-1.552-4.994c0 .435-.111.722-.327.882-.247.163-.59.255-1.02.255h-2.159v-2.194h2.29c.307 0 .562.044.746.132.319.16.47.47.47.925m49.182-31.376c.096 5.265-.163 8.041-1.93 10.69-1.564 2.313-4.651 4.44-11.48 4.44l-8.473-.264c-1.332.016-4.806.415-6.441 2.182-1.412 1.5-1.504 2.64-1.66 6.681v11.815h28.806v5.808h-31.487l-1.503-.02c-2.142 0-4.248-1.451-4.248-4.355v-8.815c.143-10.32.89-11.803 3.127-14.5 1.551-1.862 5.185-3.956 9.62-4.18.87-.047 2.517-.159 4.799-.075 1.691.055 3.354.1 4.096.107 3.921.048 5.353-.674 6.426-2.082 1.225-1.588 1.87-3.45 1.87-6.51 0-2.852-.574-5.572-1.666-6.824-1.329-1.444-2.585-2.414-6.279-2.421-9.301-.026-20.179.215-20.179.215v-5.465s10.626-.462 21.467-.622c6.753-.103 10.458 1.68 12.353 4.145 1.987 2.584 2.7 5.013 2.78 10.052"/></g></svg>