<svg enable-background="new 0 0 3839 747.9" version="1.1" viewBox="0 0 3839 747.9" xml:space="preserve" xmlns="http://www.w3.org/2000/svg">
<path fill="#FF0000" d="m367.04492 0.01953125c-100.12831-0.48691309-187.56963 33.19386375-238.64453 89.78124975-33.199932 36.899919-146.59937 247.900009 168 446.099609-163.59968 48.3999-296.40039-139.90039-296.40039-139.90039 204.2996 388.39922 599.00106 400.40009 735.30078 249.40039 33.19994-36.79992 146.5978-247.9004-168.10156-446 163.79966-48.2999 296.60156 139.90039 296.60156 139.90039-127.74974-242.749512-329.87534-338.4697269-496.75586-339.2812488zm-22.16797 160.8183588c5.52193-0.22052 11.1379-0.19758 16.83203 0.06836 58.56823 2.73537 125.36614 31.08174 182.29102 82.49414 99.45414 89.82321 131.75988 216.49884 74.00586 286.05273a136.40294 92.402002 42.073664 0 0-42.10156-156.2539 136.40294 92.402002 42.073664 0 0-163.16602-22.8125 136.40294 92.402002 42.073664 0 0 39.33203 159.99023 136.40294 92.402002 42.073664 0 0 160.17774 25.54102c-63.07789 65.15844-192.8993 46.16968-292.54883-44.01758-101.2998-91.39982-133.0991-221.00131-71.19922-289.70117 23.69604-26.29917 57.72348-39.81767 96.37695-41.36133zm2121.29685 144.1543c-8.2431-0.11371-17.3617 1.96447-27.0742 6.9082-20.6 10.39998-35.2988 29.79965-41.2988 52.09961l-64.1016 234.40039c-2.9 10.79998-4.9992 21.80041-5.1992 32.90039-2.3 102.0998 111.9002 134.2999 190 85l39.1992-28.5 14.3008-8.60156 4.3008-32.5-38.5-0.5-50.3008 36.60156c-21.2 13.89998-69.8996 2.39982-44.0996-87l64.6992-236.5c5.7813-25.54682-12.486-53.90248-41.9258-54.30859z"/><path d="m1001.9004 0-41.80079 29.300781-44.5 208.298829h56.70117 18 56.59962 74.9004 56.5996 14.2988l1.3008-0.90039 69.8008-48.79883 40.0996-187.90039h-39.2012l-41.8984 29.300781-33.3008 156.398439-42 29.30078h-20.9004l39.5996-185.699219 6.3008-29.300781h-39.1992l-41.9004 29.300781-33.4004 156.398439-41.9004 29.30078h-20.90038l39.60158-185.699219 6.2988-29.300781h-39.1992zm1798.5996 0c-57.2999 0-88.8996 42.400055-95.5996 97.5-4.9 22.69998 12.4992 44.19922 35.6992 44.19922h15.9004 13.8008 68c9.8 0.3 16.5 6.60118 15 19.20117-3.5 27.79997-26.9012 42.59922-39.2012 43.19922h-222.2988l-48 33.59961h112.7988l-0.0996 0.10156h180.5c57.2999 0 88.8996-42.40005 95.5996-97.5 4.8-22.79998-12.4988-44.30078-35.7988-44.30078h-15.9004-13.8008-68c-9.8-0.3-16.5004-6.599231-14.9004-19.199219 3.6-28.299971 27.8-43.201172 40-43.201172h108.9004l47.9004-33.599609h-180.5zm-730.9004 27.300781s-14.9996 26.700021-35.0996 47c-3.8 3.899996-8.1 7.300003-12.5 10.5h-78.5-7.3008-7l-71.1992 49.798829-17.1992 80.59961c-2.5 11.59999 6.3992 22.5 18.1992 22.5h18 33.8008 88.5 23.5996 51.1992l29.0996-136.59961c1.3-5.599995-1.0988-10.798832-5.2988-13.798829 5.8-3.799996 11.1996-8.100005 16.0996-13 20.1-20.19998 35.0996-47 35.0996-47h-79.5zm1443.0996 57.398438-11.3984 0.101562h-88.5c-43.6 0-81.5004 30.499259-90.4004 73.199219-9.2 43.79996-3.8011 82.69922 57.7988 79.69922h43.8008l32.3008-22.59961h-35.5c-18.4 0-32.1008-17.00002-28.3008-35l5.1992-24.19922c6-28.29997 31.0004-48.5 59.9004-48.5h38.9004l-27.8008 130.19922h74.8008l32.5996-152.900391h-63.4004zm-2127 0.101562-71.1992 49.798829-17.1992 80.59961c-2.5 11.59999 6.3992 22.5 18.1992 22.5h21.6992 30.2012 88.5 9.1992 5.0996l71.2012-49.79883 17.1992-80.59961c2.3-11.599987-6.4988-22.499999-18.2988-22.499999h-20.7012-31.1992-88.5-6.5996-7.6016zm211.3008 0-32.5996 152.898439h39.1992l41.9004-29.29883 21.5-100.90039h67.6992c10.7 0 18.6004 9.80079 16.4004 20.30078l-23.5 110h74.8008l23.4004-109.90039c4.7-22.19998-17.5016-43.099609-47.1016-43.099609h-11.2988-7.2012-88.5-30.5996-44.0996zm604 0-71.1992 49.798829-17.2012 80.59961c-2.5 11.59999 6.4012 22.5 18.2012 22.5h26.5 25.2988 100.9004l31.5-22.69922h-116c-6 0-10.3992-5.50079-9.1992-11.30078l5.1992-24.5h109.3008l72.6992-50.89844 2.3008-10.90039c3.7-16.69998-9.2004-32.599609-26.4004-32.599609h-13.5996-19.5-104.6016-6.7988-7.4004zm805 0-32.4004 22.699219-27.7988 130.09961h265.3984l71.2012-49.69922 22-103.099609h-47.2012l-32.3984 22.699219-16.7012 78.19922-42 29.30078h-15.0996l27.8008-130.199219h-47.2012l-32.4004 22.699219-16.6992 78.19922-42 29.30078h-15.0996l27.7988-130.199219h-47.1992zm603.5 0-32.5 152.798829h39.1992l41.9004-29.29883 21.5-100.90039h67.7012c10.7 0 18.5984 9.79884 16.3984 20.29883l-23.5 110h74.8008l23.4004-109.89844c4.8-22.09998-17.3996-42.999999-47.0996-42.999999h-11.3008-7.1992-88.5-30.6016-44.1992zm-1136.9004 0.09961-71.1992 49.798829-22 103.10156h74.7988l21.5-100.90039 41.9004-29.30078h30c15.6-0.1 26.7008 15.19962 21.8008 30.09961-1 2.9-2.3004 5.70078-3.9004 8.30078l-5.9004 9.30078h50.7012l34.5996-24.20117c0-18.89998-10.2001-46.199219-53.5-46.199219h-111.4004-7.4004zm-1041.9004 22.599609h41.2012c6.1 0 10.4988 5.50079 9.2988 11.30078l-14.2988 66.89844-42 29.40039h-41.2012c-6 0-10.3992-5.49883-9.1992-11.29883l14.3008-67 41.8984-29.30078zm543.6016 0h41.2988c5.9 0 10.3996 5.50079 9.0996 11.30078l-20.5 96.29883h-76.8984c-6 0-10.4012-5.49883-9.2012-11.29883l14.3008-67 41.9004-29.30078zm271.5996 0h57.4004c6 0 10.4992 5.50079 9.1992 11.30078l-3 14-31.8008 22.5h-77.5996l3.9004-18.5 41.9004-29.30078z"/><path fill="#02A5F4" d="m1920.7 330.1-37.6 137.7c-8.5 30.8-53.7 24.7-53.7-7.3v-47.2c0-46.6-52.6-52.1-52.6-52.1-113.6 0-186.5 132.4-185.9 201.6 0 63.1 33 130.5 118.5 115.2 55.7-9.9 104.7-55.9 104.7-55.9 1.4-1.4 2.9-2.9 4.2-4.3 26.3-26.8 69.2 5.6 50.7 38.2-60 94-411.8 150.7-411.8-106.2 0-100.5 111.1-296.3 466.9-232z"/><path fill="#F65BA6" d="m3082.7 563.1 13.1-47.9c7.4-32.6-24.6-70-69-47.4-20.6 10.4-35.2 29.8-41.3 52.1l-40.3 147.8-2.7 9.9c-10.6 38.5 19.1 54.8 48.7 58.9 41.4 5.8 49.7-13.6 52.4-26.9 1.2-5.7 3-11.4 5.8-16.6 24.5-44.4 59.1-83 89-110.8 23.5-21.8 61.7-13.1 73.1 16.8l4.1 10.6c6.5 17 30.9 15.8 35.7-1.8l42.2-154.3c-60.7-7.5-139.9 16.5-210.8 109.6z"/><path fill="#6784E7" d="m2701.5 439c24.8-4.9 40.6 25.3 22.5 43-75.1 73.5-91 215.4-1 215.4 90.8 0 115.1-174.4 41.4-193.2-27.3-5.5-10-13.4-2.3-17.3 66.1-33.5 175-46.6 171.6 71.8-2.2 73.5-91.4 189.2-238 189.2-96.6 0-162.6-55.6-162.6-137.1 0.2-70.4 75.1-153.3 168.4-171.8z"/><path fill="#FFD52F" d="m2071.8 439c24.8-4.9 40.6 25.3 22.5 43-75.1 73.5-91 215.4-1 215.4 90.8 0 115.1-174.4 41.4-193.2-27.3-5.5-10-13.4-2.3-17.3 66.1-33.5 175-46.6 171.6 71.8-2.2 73.5-91.4 189.2-238 189.2-96.6 0-162.6-55.6-162.6-137.1 0.1-70.4 75-153.3 168.4-171.8z"/>
</svg>
