<svg enable-background="new 0 0 3839 747.9" version="1.1" viewBox="0 0 3839 747.9" xml:space="preserve" xmlns="http://www.w3.org/2000/svg">
<path d="m1001.9004 0-41.80079 29.300781-44.5 208.298829h56.70117 18 56.59962 74.9004 56.5996 14.2988l1.3008-0.90039 69.8008-48.79883 40.0996-187.90039h-39.2012l-41.8984 29.300781-33.3008 156.398439-42 29.30078h-20.9004l39.5996-185.699219 6.3008-29.300781h-39.1992l-41.9004 29.300781-33.4004 156.398439-41.9004 29.30078h-20.90038l39.60158-185.699219 6.2988-29.300781h-39.1992zm1798.5996 0c-57.2999 0-88.8996 42.400055-95.5996 97.5-4.9 22.69998 12.4992 44.19922 35.6992 44.19922h15.9004 13.8008 68c9.8 0.3 16.5 6.60118 15 19.20117-3.5 27.79997-26.9012 42.59922-39.2012 43.19922h-222.2988l-48 33.59961h112.7988l-0.0996 0.10156h180.5c57.2999 0 88.8996-42.40005 95.5996-97.5 4.8-22.79998-12.4988-44.30078-35.7988-44.30078h-15.9004-13.8008-68c-9.8-0.3-16.5004-6.599231-14.9004-19.199219 3.6-28.299971 27.8-43.201172 40-43.201172h108.9004l47.9004-33.599609h-180.5zm-2433.45508 0.01953125c-100.12841-0.48691358-187.56958 33.19380675-238.64453 89.78124975-33.199966 36.899959-146.599685 247.899809 168 446.099609-163.59984 48.39995-296.40039-139.90039-296.40039-139.90039 204.2998 388.39961 599.00092 400.40024 735.30078 249.40039 33.19997-36.79996 146.59812-247.9002-168.10156-446 163.79983-48.29995 296.60156 139.90039 296.60156 139.90039-127.74987-242.749756-329.87517-338.4697261-496.75586-339.2812488zm1702.55468 27.28124975s-14.9996 26.700021-35.0996 47c-3.8 3.899996-8.1 7.300003-12.5 10.5h-78.5-7.3008-7l-71.1992 49.798829-17.1992 80.59961c-2.5 11.59999 6.3992 22.5 18.1992 22.5h18 33.8008 88.5 23.5996 51.1992l29.0996-136.59961c1.3-5.599995-1.0988-10.798832-5.2988-13.798829 5.8-3.799996 11.1996-8.100005 16.0996-13 20.1-20.19998 35.0996-47 35.0996-47h-79.5zm1443.0996 57.398438-11.3984 0.101562h-88.5c-43.6 0-81.5004 30.499259-90.4004 73.199219-9.2 43.79996-3.8011 82.69922 57.7988 79.69922h43.8008l32.3008-22.59961h-35.5c-18.4 0-32.1008-17.00002-28.3008-35l5.1992-24.19922c6-28.29997 31.0004-48.5 59.9004-48.5h38.9004l-27.8008 130.19922h74.8008l32.5996-152.900391h-63.4004zm-2127 0.101562-71.1992 49.798829-17.1992 80.59961c-2.5 11.59999 6.3992 22.5 18.1992 22.5h21.6992 30.2012 88.5 9.1992 5.0996l71.2012-49.79883 17.1992-80.59961c2.3-11.599987-6.4988-22.499999-18.2988-22.499999h-20.7012-31.1992-88.5-6.5996-7.6016zm211.3008 0-32.5996 152.898439h39.1992l41.9004-29.29883 21.5-100.90039h67.6992c10.7 0 18.6004 9.80079 16.4004 20.30078l-23.5 110h74.8008l23.4004-109.90039c4.7-22.19998-17.5016-43.099609-47.1016-43.099609h-11.2988-7.2012-88.5-30.5996-44.0996zm604 0-71.1992 49.798829-17.2012 80.59961c-2.5 11.59999 6.4012 22.5 18.2012 22.5h26.5 25.2988 100.9004l31.5-22.69922h-116c-6 0-10.3992-5.50079-9.1992-11.30078l5.1992-24.5h109.3008l72.6992-50.89844 2.3008-10.90039c3.7-16.69998-9.2004-32.599609-26.4004-32.599609h-13.5996-19.5-104.6016-6.7988-7.4004zm805 0-32.4004 22.699219-27.7988 130.09961h265.3984l71.2012-49.69922 22-103.099609h-47.2012l-32.3984 22.699219-16.7012 78.19922-42 29.30078h-15.0996l27.8008-130.199219h-47.2012l-32.4004 22.699219-16.6992 78.19922-42 29.30078h-15.0996l27.7988-130.199219h-47.1992zm603.5 0-32.5 152.798829h39.1992l41.9004-29.29883 21.5-100.90039h67.7012c10.7 0 18.5984 9.79884 16.3984 20.29883l-23.5 110h74.8008l23.4004-109.89844c4.8-22.09998-17.3996-42.999999-47.0996-42.999999h-11.3008-7.1992-88.5-30.6016-44.1992zm-1136.9004 0.09961-71.1992 49.798829-22 103.10156h74.7988l21.5-100.90039 41.9004-29.30078h30c15.6-0.1 26.7008 15.19962 21.8008 30.09961-1 2.9-2.3004 5.70078-3.9004 8.30078l-5.9004 9.30078h50.7012l34.5996-24.20117c0-18.89998-10.2001-46.199219-53.5-46.199219h-111.4004-7.4004zm-1041.9004 22.599609h41.2012c6.1 0 10.4988 5.50079 9.2988 11.30078l-14.2988 66.89844-42 29.40039h-41.2012c-6 0-10.3992-5.49883-9.1992-11.29883l14.3008-67 41.8984-29.30078zm543.6016 0h41.2988c5.9 0 10.3996 5.50079 9.0996 11.30078l-20.5 96.29883h-76.8984c-6 0-10.4012-5.49883-9.2012-11.29883l14.3008-67 41.9004-29.30078zm271.5996 0h57.4004c6 0 10.4992 5.50079 9.1992 11.30078l-3 14-31.8008 22.5h-77.5996l3.9004-18.5 41.9004-29.30078zm-1884.19142 53.40625c58.56828 2.73537 125.36608 31.08169 182.29102 82.49414 98.9674 89.3836 131.60214 215.35979 75.00977 285.12891a136.40295 92.402 42.073664 0 0-43.10547-155.33008 136.40295 92.402 42.073664 0 0-163.16602-22.8125 136.40295 92.402 42.073664 0 0 39.33203 159.99023 136.40295 92.402 42.073664 0 0 162.01758 23.86133c-62.40638 67.33004-193.82014 48.68111-294.38867-42.33789-101.2999-91.39991-133.09916-221.00124-71.19922-289.70117 27.08122-30.05622 67.65588-43.42048 113.20898-41.29297zm2104.46482 144.08594c-8.2431-0.11371-17.3617 1.96446-27.0742 6.9082-20.6 10.39999-35.2988 29.79963-41.2988 52.09961l-64.1016 234.40039c-2.9 10.79999-4.9992 21.8004-5.1992 32.90039-2.3 102.0999 111.9001 134.29995 190 85l39.0586-28.39844c27.5558 37.4245 76.625 59.99805 138.1406 59.99805 146.5999 0 235.8-115.70124 238-189.20117 3.4-118.39988-105.4997-105.2988-171.5996-71.79883-7.7 3.9-24.9992 11.79883 2.3008 17.29883 73.6999 18.79998 49.3995 193.20117-41.4004 193.20117-89.9999 0-74.0999-141.90046 1-215.40039 18.1-17.69998 2.3-47.9-22.5-43-93.2999 18.49998-168.2004 101.40085-168.4004 171.80078 0 12.48635 1.5641 24.35585 4.5352 35.51953l-50.1348 36.48047c-21.2 13.89999-69.8996 2.39991-44.0996-87l64.6992-236.5c5.7813-25.54685-12.486-53.90248-41.9258-54.30859zm-664.289 0.19336c-259.6232-4.22461-344.6856 156.67782-344.6856 244.61523 0 256.89974 351.8009 200.19913 411.8008 106.19922 18.5-32.59997-24.3992-64.99919-50.6992-38.19922-1.3 1.4-2.8012 2.89883-4.2012 4.29883 0 0-48.9993 46.0004-104.6992 55.90039-85.4999 15.29998-118.5-52.09928-118.5-115.19922-0.6-69.19993 72.3005-201.60156 185.9004-201.60156 0 0 52.5996 5.50161 52.5996 52.10156v47.19922c0 31.99997 45.1992 38.10075 53.6992 7.30078l37.5996-137.70117 3.4004-12.29883c-44.4749-8.03749-85.1258-12.01172-122.2148-12.61523zm274.4531 133.29492c-1.4736 0.04365-2.9871 0.21328-4.5371 0.51953-93.3999 18.49998-168.3004 101.40085-168.4004 171.80078 0 81.49992 65.9997 137.09961 162.5996 137.09961 146.5999 0 235.8-115.70124 238-189.20117 3.4-118.39988-105.4997-105.2988-171.5996-71.79883-7.7 3.9-25.0012 11.79883 2.2988 17.29883 73.6999 18.79998 49.4015 193.20117-41.3984 193.20117-89.9999 0-74.0999-141.90046 1-215.40039 16.9687-16.59373 4.1412-44.17432-17.9629-43.51953zm1193.584 13.75781c-56.7929 0.84219-125.1852 29.39891-187.2227 110.86133l13.1016-47.90039c7.4-32.59997-24.6001-69.99842-69-47.39844-20.6 10.39999-35.2008 29.79963-41.3008 52.09961l-40.3008 147.79883-2.6992 9.90039c-10.6 38.49996 19.0992 54.80039 48.6992 58.90039 41.4 5.79999 49.7004-13.6004 52.4004-26.90039 1.2-5.69999 3.0008-11.39962 5.8008-16.59961 24.5-44.39996 59.1-83.00081 89-110.80078 23.5-21.79998 61.6996-13.09919 73.0996 16.80078l4.0996 10.59961c6.5 16.99998 30.9012 15.80115 35.7012-1.79883l42.1992-154.30078c-7.5875-0.9375-15.4649-1.38203-23.5781-1.26172z"/>
</svg>
