<?xml version="1.0" encoding="utf-8"?>
<!-- Generator: Adobe Illustrator 26.0.1, SVG Export Plug-In . SVG Version: 6.00 Build 0)  -->
<svg version="1.1" id="Layer_1" xmlns="http://www.w3.org/2000/svg" xmlns:xlink="http://www.w3.org/1999/xlink" x="0px" y="0px"
	 viewBox="0 0 3839 747.9" style="enable-background:new 0 0 3839 747.9;" xml:space="preserve">
<style type="text/css">
	.st0{fill:#FF0000;}
	.st1{fill:#B5B5B5;}
	.st2{fill:#02A5F4;}
	.st3{fill:#F65BA6;}
	.st4{fill:#6784E7;}
	.st5{fill:#FFD52F;}
	.st6{fill:#FFFFFF;}
</style>
<g>
	<g>
		<path class="st0" d="M863.8,339.3C659.4-49.1,264.6-61.1,128.4,89.8C95.2,126.7-18.2,337.7,296.4,535.9C132.8,584.3,0,396,0,396
			c204.3,388.4,599,400.4,735.3,249.4c33.2-36.8,146.6-247.9-168.1-446C731,151.1,863.8,339.3,863.8,339.3z M615.1,533.2
			c-62,68.6-194.3,50.2-295.4-41.3c-101.3-91.4-133.1-221-71.2-289.7S442.8,152,544,243.4S677.1,464.5,615.1,533.2z"/>
		
			<ellipse transform="matrix(0.6701 -0.7423 0.7423 0.6701 -158.3922 527.2796)" class="st0" cx="514" cy="441.8" rx="92.4" ry="136.4"/>
		<path d="M1540.3,84.8h-20.7h-31.2h-88.5h-6.6h-7.6l-71.2,49.8l-17.2,80.6c-2.5,11.6,6.4,22.5,18.2,22.5h21.7h30.2h88.5h9.2h5.1
			l71.2-49.8l17.2-80.6C1560.9,95.7,1552.1,84.8,1540.3,84.8z M1481.2,118.8l-14.3,66.9l-42,29.4h-41.2c-6,0-10.4-5.5-9.2-11.3
			l14.3-67l41.9-29.3h41.2C1478,107.5,1482.4,113,1481.2,118.8z"/>
		<path d="M1778.7,84.8h-11.3h-7.2h-88.5h-30.6H1597l-32.6,152.9h39.2l41.9-29.3l21.5-100.9h67.7c10.7,0,18.6,9.8,16.4,20.3
			l-23.5,110h74.8l23.4-109.9C1830.5,105.7,1808.3,84.8,1778.7,84.8z"/>
		<path d="M3791.3,84.8H3780h-7.2h-88.5h-30.6h-44.2L3577,237.6h39.2l41.9-29.3l21.5-100.9h67.7c10.7,0,18.6,9.8,16.4,20.3
			l-23.5,110h74.8l23.4-109.9C3843.2,105.7,3821,84.8,3791.3,84.8z"/>
		<polygon points="1264.7,0 1222.8,29.3 1189.5,185.7 1147.5,215 1126.6,215 1166.2,29.3 1172.5,0 1133.3,0 1091.4,29.3 
			1091.4,29.3 1058,185.7 1016.1,215 995.2,215 1034.8,29.3 1034.8,29.3 1041.1,0 1001.9,0 960.1,29.3 915.6,237.6 972.3,237.6 
			990.3,237.6 1046.9,237.6 1121.8,237.6 1178.4,237.6 1192.7,237.6 1194,236.7 1263.8,187.9 1303.9,0 		"/>
		<polygon points="3224.8,107.5 3208.1,185.7 3166.1,215 3151,215 3178.8,84.8 3131.6,84.8 3099.2,107.5 3082.5,185.7 3040.5,215 
			3025.4,215 3053.2,84.8 3006,84.8 2973.6,107.5 2945.8,237.6 3211.2,237.6 3282.4,187.9 3304.4,84.8 3257.2,84.8 		"/>
		<path d="M2097.9,87.3c5.8-3.8,11.2-8.1,16.1-13c20.1-20.2,35.1-47,35.1-47h-79.5c0,0-15,26.7-35.1,47c-3.8,3.9-8.1,7.3-12.5,10.5
			h-78.5h-7.3h-7l-71.2,49.8l-17.2,80.6c-2.5,11.6,6.4,22.5,18.2,22.5h18h33.8h88.5h23.6h51.2l29.1-136.6
			C2104.5,95.5,2102.1,90.3,2097.9,87.3z M2024.7,118.8l-20.5,96.3h-76.9c-6,0-10.4-5.5-9.2-11.3l14.3-67l41.9-29.3h41.3
			C2021.5,107.5,2026,113,2024.7,118.8z"/>
		<path d="M2352.9,84.8h-13.6h-19.5h-104.6h-6.8h-7.4l-71.2,49.8l-17.2,80.6c-2.5,11.6,6.4,22.5,18.2,22.5h26.5h25.3h100.9L2315,215
			h-116c-6,0-10.4-5.5-9.2-11.3l5.2-24.5h109.3l72.7-50.9l2.3-10.9C2383,100.7,2370.1,84.8,2352.9,84.8z M2312.5,118.8l-3,14
			l-31.8,22.5h-77.6l3.9-18.5l41.9-29.3h57.4C2309.3,107.5,2313.8,113,2312.5,118.8z"/>
		<path d="M2569.4,137.7c-1,2.9-2.3,5.7-3.9,8.3l-5.9,9.3h50.7l34.6-24.2c0-18.9-10.2-46.2-53.5-46.2h-111.4l0,0h-7.4l-71.2,49.8
			l-22,103.1h74.8l21.5-100.9l41.9-29.3h30C2563.2,107.5,2574.3,122.8,2569.4,137.7z"/>
		<path d="M2896.8,96h-15.9h-13.8h-68c-9.8-0.3-16.5-6.6-14.9-19.2c3.6-28.3,27.8-43.2,40-43.2h108.9L2981,0h-180.5l0,0
			c-57.3,0-88.9,42.4-95.6,97.5c-4.9,22.7,12.5,44.2,35.7,44.2h15.9h13.8h68c9.8,0.3,16.5,6.6,15,19.2
			c-3.5,27.8-26.9,42.6-39.2,43.2h-222.3l-48,33.6h112.8l-0.1,0.1H2837l0,0c57.3,0,88.9-42.4,95.6-97.5
			C2937.4,117.5,2920.1,96,2896.8,96z"/>
		<path d="M3501.3,84.8h-88.5c-43.6,0-81.5,30.5-90.4,73.2c-9.2,43.8-3.8,82.7,57.8,79.7h43.8l32.3-22.6h-35.5
			c-18.4,0-32.1-17-28.3-35l5.2-24.2c6-28.3,31-48.5,59.9-48.5h38.9l-27.8,130.2h74.8l32.6-152.9h-63.4L3501.3,84.8L3501.3,84.8
			L3501.3,84.8z"/>
		<g>
			<path class="st2" d="M1920.7,330.1l-37.6,137.7c-8.5,30.8-53.7,24.7-53.7-7.3v-47.2c0-46.6-52.6-52.1-52.6-52.1
				c-113.6,0-186.5,132.4-185.9,201.6c0,63.1,33,130.5,118.5,115.2c55.7-9.9,104.7-55.9,104.7-55.9c1.4-1.4,2.9-2.9,4.2-4.3
				c26.3-26.8,69.2,5.6,50.7,38.2l0,0c-60,94-411.8,150.7-411.8-106.2c0-100.5,111.1-296.3,466.9-232L1920.7,330.1z"/>
			<path class="st0" d="M2557.7,687.8l-39.2,28.5c-78.1,49.3-192.3,17.1-190-85c0.2-11.1,2.3-22.1,5.2-32.9l64.1-234.4
				c6-22.3,20.7-41.7,41.3-52.1c44.4-22.6,76.4,14.7,69,47.4l-64.7,236.5c-25.8,89.4,22.9,100.9,44.1,87l50.3-36.6l38.5,0.5
				l-4.3,32.5L2557.7,687.8z"/>
			<path class="st3" d="M3082.7,563.1l13.1-47.9c7.4-32.6-24.6-70-69-47.4c-20.6,10.4-35.2,29.8-41.3,52.1l-40.3,147.8l-2.7,9.9
				c-10.6,38.5,19.1,54.8,48.7,58.9c41.4,5.8,49.7-13.6,52.4-26.9c1.2-5.7,3-11.4,5.8-16.6c24.5-44.4,59.1-83,89-110.8
				c23.5-21.8,61.7-13.1,73.1,16.8l4.1,10.6c6.5,17,30.9,15.8,35.7-1.8l42.2-154.3C3232.8,446,3153.6,470,3082.7,563.1z"/>
			<path class="st4" d="M2701.5,439c24.8-4.9,40.6,25.3,22.5,43c-75.1,73.5-91,215.4-1,215.4c90.8,0,115.1-174.4,41.4-193.2
				c-27.3-5.5-10-13.4-2.3-17.3c66.1-33.5,175-46.6,171.6,71.8c-2.2,73.5-91.4,189.2-238,189.2c-96.6,0-162.6-55.6-162.6-137.1
				C2533.3,540.4,2608.2,457.5,2701.5,439z"/>
			<path class="st5" d="M2071.8,439c24.8-4.9,40.6,25.3,22.5,43c-75.1,73.5-91,215.4-1,215.4c90.8,0,115.1-174.4,41.4-193.2
				c-27.3-5.5-10-13.4-2.3-17.3c66.1-33.5,175-46.6,171.6,71.8c-2.2,73.5-91.4,189.2-238,189.2c-96.6,0-162.6-55.6-162.6-137.1
				C1903.5,540.4,1978.4,457.5,2071.8,439z"/>
		</g>
	</g>
</g>
</svg>
