<?xml version="1.0" encoding="utf-8"?>
<!-- Generator: Adobe Illustrator 25.4.1, SVG Export Plug-In . SVG Version: 6.00 Build 0)  -->
<svg version="1.1" id="Layer_1" xmlns="http://www.w3.org/2000/svg" xmlns:xlink="http://www.w3.org/1999/xlink" x="0px" y="0px"
	 viewBox="0 0 3839 1168.2" style="enable-background:new 0 0 3839 1168.2;" xml:space="preserve">
<style type="text/css">
	.st0{fill:#FFFFFF;}
</style>
<g>
	<g>
		<path d="M196.3,800.7h39.4v123.8h0.8c18.5-30.2,49.9-43,85.7-43c56.7,0,97.7,31.8,97.7,94.9v114.6h-39.4V978.4
			c0-45-26.9-69.6-64.8-69.6c-37.4,0-80,22.9-80,86.9v95.3h-39.4L196.3,800.7L196.3,800.7z"/>
		<path d="M605.6,1098.6c-82.1,0-126.2-39.4-126.2-108.6c0-65.6,41.8-108.6,126.2-108.6c82.1,0,126.2,39.4,126.2,108.6
			S687.7,1098.6,605.6,1098.6z M521.1,990.1c0,45.9,29.4,81.3,84.5,81.3s84.5-35.4,84.5-81.3c0-45.9-29.4-81.3-84.5-81.3
			S521.1,944.2,521.1,990.1z"/>
		<path d="M791.3,935c0-15.3-0.8-29.8-1.6-45.9h37c0.8,10.1,1.6,21.7,1.6,35.8h0.8c22.9-31,51.9-43.4,84.9-43.4
			c33.8,0,61.9,16.5,73.6,50.7c14.5-27.8,45.9-50.7,83.3-50.7c57.5,0,92.9,28.2,92.9,93.7V1091h-39.4v-101
			c0-49.1-14.1-81.3-57.1-81.3c-34.6,0-70,23.7-70,90.1v92.1h-39.4V987.6c0-54.3-18.5-78.8-54.7-78.8c-34.6,0-72.4,24.9-72.4,84.5
			v97.7h-39.4L791.3,935L791.3,935z"/>
		<path d="M1448.8,1000.5h-189c4,41.4,30.6,70.8,74.8,70.8c28.6,0,58.7-12.1,67.6-41h41.8c-8,53.9-62.7,68.4-107.4,68.4
			c-74,0-116.3-40.6-116.3-104.6c0-73.6,44.2-112.6,117.5-112.6c71.6,0,111,38.6,111,107L1448.8,1000.5L1448.8,1000.5z
			 M1406.9,973.2c-0.8-46.7-35.4-64.4-70-64.4c-40.6,0-69.6,19.7-75.6,64.4H1406.9z"/>
		<path d="M1862.5,1025.9c-4,51.1-56.3,72.8-107.8,72.8c-75.2,0-115-43-115-108.2c0-68,45.9-109,118.7-109
			c48.7,0,95.7,19.3,102.6,72h-41.8c-3.6-29.4-27.4-44.6-60.4-44.6c-42.6,0-77.2,27.8-77.2,81.7c0,43,25.3,80.9,75.2,80.9
			c37,0,61.9-17.3,64-45.5L1862.5,1025.9L1862.5,1025.9z"/>
		<path d="M2033.7,1098.6c-82.1,0-126.2-39.4-126.2-108.6c0-65.6,41.8-108.6,126.2-108.6c82.1,0,126.2,39.4,126.2,108.6
			S2115.8,1098.6,2033.7,1098.6z M1949.3,990.1c0,45.9,29.4,81.3,84.5,81.3s84.5-35.4,84.5-81.3c0-45.9-29.4-81.3-84.5-81.3
			S1949.3,944.2,1949.3,990.1z"/>
		<path d="M2219.5,935c0-15.3-0.8-29.8-1.6-45.9h37c0.8,10.1,1.6,21.7,1.6,35.8h0.8c22.9-31,51.9-43.4,84.9-43.4
			c33.8,0,61.9,16.5,73.6,50.7c14.5-27.8,45.9-50.7,83.3-50.7c57.5,0,92.9,28.2,92.9,93.7V1091h-39.4v-101
			c0-49.1-14.1-81.3-57.1-81.3c-34.6,0-70,23.7-70,90.1v92.1H2386V987.6c0-54.3-18.5-78.8-54.7-78.8c-34.6,0-72.4,24.9-72.4,84.5
			v97.7h-39.4V935H2219.5z"/>
		<path d="M2663.4,935c0-15.3-0.8-29.8-1.6-45.9h39.4c0.8,7.6,1.6,16.9,1.6,28.6c20.5-23.3,52.7-36.2,88.5-36.2
			c60.3,0,112.6,43,112.6,108.6s-52.3,108.6-112.6,108.6c-32.2,0-63.6-7.6-88.5-34.2v103.8h-39.4V935z M2782.3,1071.2
			c47.1,0,79.6-30.2,79.6-81.3c0-51.1-32.6-81.3-79.6-81.3c-46.7,0-79.6,30.2-79.6,81.3C2702.8,1041.1,2735.7,1071.2,2782.3,1071.2z
			"/>
		<path d="M3186.9,1045.2c0,15.3,0.8,29.8,1.6,45.9h-37c-0.8-10.1-1.6-21.7-1.6-35.8h-0.8c-22.9,31-51.9,43.4-88.1,43.4
			c-56.7,0-97.8-31.8-97.8-94.9V889.1h39.4v112.6c0,45,26.9,69.6,64.8,69.6c37.4,0,80.1-22.9,80.1-86.9v-95.3h39.4L3186.9,1045.2
			L3186.9,1045.2z"/>
		<path d="M3288.1,852.1l39.4-16.5v53.5h59.5v27.4h-59.5v116.2c0,21.7,6,33.4,30.6,33.4c7.2,0,18.9-0.8,30.2-2.4v27.4
			c-12.9,1.6-25.7,2.4-37.8,2.4c-39.8,0-62.4-12.9-62.4-57.9V916.5h-52.7v-27.4h52.7V852.1z"/>
		<path d="M3650.5,1000.5h-189c4,41.4,30.6,70.8,74.8,70.8c28.6,0,58.7-12.1,67.6-41h41.8c-8,53.9-62.7,68.4-107.4,68.4
			c-74,0-116.3-40.6-116.3-104.6c0-73.6,44.2-112.6,117.5-112.6c71.6,0,111,38.6,111,107L3650.5,1000.5L3650.5,1000.5z
			 M3608.6,973.2c-0.8-46.7-35.4-64.4-70-64.4c-40.6,0-69.6,19.7-75.6,64.4H3608.6z"/>
		<path d="M3707.2,935c0-15.3-0.8-29.8-1.6-45.9h37c0.8,12.1,1.6,26.6,1.6,40.2h0.8c18.1-32.6,35.8-43,80.8-43h13.3v35.4
			c-6-2-11.7-2.4-18.9-2.4c-47.5,0-73.6,33.4-73.6,74v97.7h-39.4L3707.2,935L3707.2,935z"/>
	</g>
	<g>
		<g>
			<rect x="628.7" y="6.1" width="198.9" height="688.6"/>
		</g>
		<g>
			<polygon points="591.4,6.1 0,6.1 0,189.1 196.3,189.1 196.3,694.7 395.2,694.7 395.2,189.1 591.4,189.1 			"/>
		</g>
		<g>
			<path d="M1996.4,0c-155,0-280.6,86.5-280.6,243.2c0,173.5,128,235.9,249.5,235.9c37.9,0,91.9-20,127.4-47.5
				c17.2,167.1-171.1,176.4-189.1,77.6h-173.5c28.9,155.6,164.9,198.6,271.2,198.3c141-0.4,275.6-112.7,275.6-385
				C2276.9,96.5,2151.4,0,1996.4,0z M1989.7,343.3c-58.4,0-105.8-47.3-105.8-105.8s47.3-105.8,105.8-105.8s105.8,47.4,105.8,105.8
				C2095.5,296,2048.1,343.3,1989.7,343.3z"/>
		</g>
		<g>
			<path d="M1383.8,0c-155,0-280.6,86.5-280.6,243.2c0,173.5,128,235.9,249.5,235.9c37.9,0,91.9-20,127.4-47.5
				c17.2,167.1-171.1,176.4-189.1,77.6h-173.6c28.9,155.6,164.9,198.6,271.2,198.3c141-0.4,275.6-112.7,275.6-385
				C1664.2,96.5,1538.7,0,1383.8,0z M1377,343.3c-58.4,0-105.8-47.3-105.8-105.8s47.3-105.8,105.8-105.8s105.8,47.4,105.8,105.8
				C1482.9,296,1435.5,343.3,1377,343.3z"/>
		</g>
		<g>
			<rect x="886.3" y="263.6" width="158.2" height="130.3"/>
		</g>
		<g>
			<g>
				<g>
					<g>
						<path d="M3051.2,707.4h-199.4c-10.1,0-18.2-8.2-18.2-18.2V554.6h-278.2c-10.1,0-18.2-8.2-18.2-18.2V385.7
							c0-4.4,1.6-8.6,4.5-11.9l319-367.5c3.5-4,8.5-6.3,13.8-6.3h176.8c10.1,0,18.2,8.2,18.2,18.2v357.8h50.1
							c10.1,0,18.2,8.2,18.2,18.2v142.1c0,10.1-8.2,18.2-18.2,18.2h-50.1v134.6C3069.4,699.2,3061.2,707.4,3051.2,707.4z
							 M2869.9,671h163V536.4c0-10.1,8.2-18.2,18.2-18.2h50.1V412.5h-50.1c-10.1,0-18.2-8.2-18.2-18.2V36.4h-150.3l-309.1,356.1
							v125.6h278.2c10.1,0,18.2,8.2,18.2,18.2V671z"/>
					</g>
				</g>
				<g>
					<g>
						<path d="M2851.7,412.5H2664c-7.1,0-13.6-4.2-16.6-10.7c-3-6.5-1.9-14.1,2.8-19.5L2838,166.1c5-5.7,13-7.8,20.1-5.1
							c7.1,2.7,11.8,9.5,11.8,17.1v216.2C2869.9,404.3,2861.8,412.5,2851.7,412.5z M2704,376.1h129.5V226.9L2704,376.1z"/>
					</g>
				</g>
			</g>
			<g>
				<g>
					<path d="M3820.8,707.4h-138.1c-7.8,0-14.7-5-17.2-12.3l-48.2-140.5h-214.6l-48.1,140.5c-2.5,7.4-9.4,12.3-17.2,12.3H3199
						c-5.9,0-11.4-2.8-14.8-7.6c-3.4-4.8-4.3-10.9-2.4-16.5l230-671c2.5-7.4,9.4-12.3,17.2-12.3h161.9c7.8,0,14.7,5,17.2,12.3
						l229.9,671c1.9,5.6,1,11.7-2.4,16.5C3832.2,704.6,3826.7,707.4,3820.8,707.4z M3695.7,671h99.6L3577.9,36.4H3442L3224.5,671
						h99.7l48.1-140.5c2.5-7.4,9.4-12.3,17.2-12.3h240.7c7.8,0,14.7,5,17.2,12.3L3695.7,671z M3591.8,442.5H3428
						c-5.9,0-11.4-2.8-14.8-7.6c-3.4-4.8-4.3-10.9-2.4-16.5l82-239.1c2.5-7.4,9.5-12.3,17.2-12.3h0c7.8,0,14.7,5,17.2,12.3
						l81.9,239.1c1.9,5.6,1,11.7-2.4,16.5C3603.2,439.7,3597.7,442.5,3591.8,442.5z M3453.5,406.1h112.8l-56.4-164.6L3453.5,406.1z"
						/>
				</g>
			</g>
		</g>
		<g>
			<polygon points="2553.4,36.4 2240.5,707.4 2292.5,707.4 2605.3,36.4 			"/>
		</g>
	</g>
</g>
</svg>
