<svg enable-background="new 0 0 3839 1168.2" version="1.1" viewBox="0 0 3839 1168.2" xml:space="preserve" xmlns="http://www.w3.org/2000/svg">
<path d="m1383.8008 0c-154.9999 0-280.6016 86.499375-280.6016 243.19922 0 173.49983 128.0001 235.90039 249.5 235.90039 37.9 0 91.9004-20.00003 127.4004-47.5 17.2 167.09983-171.0996 176.39951-189.0996 77.59961h-173.5996c28.9 155.59984 164.8993 198.60078 271.1992 198.30078 140.9999-0.4 275.5996-112.70027 275.5996-385 0-225.999774-125.4986-322.5-280.3984-322.5zm612.5996 0c-154.9999 0-280.5996 86.499375-280.5996 243.19922 0 173.49983 128.0001 235.90039 249.5 235.90039 37.8999 0 91.8985-20.00003 127.3984-47.5 17.2 167.09983-171.0996 176.39951-189.0996 77.59961h-173.5c28.9 155.59984 164.9013 198.60078 271.2012 198.30078 140.9998-0.4 275.5996-112.70027 275.5996-385 0-225.999774-125.5002-322.5-280.5-322.5zm878.0996 0c-5.3-5.9211835e-16 -10.3008 2.3007853-13.8008 6.3007812l-319 367.4999988c-2.9 3.3-4.5 7.49844-4.5 11.89844v150.70117c0 9.99999 8.1012 18.19922 18.2012 18.19922h278.1992v134.59961c0 9.99999 8.1012 18.20117 18.2012 18.20117h199.3984c10 0 18.2008-8.20079 18.3008-18.30078v-134.59961h50.0996c10 0 18.2012-8.09923 18.2012-18.19922v-142.10156c0-9.99999-8.1012-18.19922-18.2012-18.19922h-50.0996v-357.800781c0-9.9999903-8.0992-18.199219-18.1992-18.199219h-176.8008zm554.5 0c-7.8 0-14.6992 4.9007887-17.1992 12.300781l-230 670.999999c-1.9 5.6-1.0016 11.70001 2.3984 16.5 3.4 4.8 8.9008 7.59961 14.8008 7.59961h138.4004c7.8 0 14.6992-4.90079 17.1992-12.30078l48.0996-140.5h214.6016l48.1992 140.5c2.5 7.29999 9.3992 12.30078 17.1992 12.30078h138.1016c5.9 0 11.3988-2.79961 14.7988-7.59961 3.4-4.79999 4.3004-10.9 2.4004-16.5l-229.9004-670.999999c-2.5-7.2999925-9.3992-12.300781-17.1992-12.300781h-161.9004zm-3429 6.0996094v183.0000006h196.30078v505.59961h198.89844v-505.59961h196.20117v-183.0000006h-591.40039zm628.69922 0v688.5996106h198.90039v-688.5996106h-198.90039zm1924.70118 30.3007816-312.9004 670.999999h52l312.8008-670.999999h-51.9004zm329.1992 0h150.3008v357.900389c0 9.99999 8.0992 18.19922 18.1992 18.19922h50.0996v105.69922h-50.0996c-10 0-18.1992 8.10118-18.1992 18.20117v134.59961h-163v-134.69922c0-9.99999-8.1012-18.20117-18.2012-18.20117h-278.1992v-125.59961l309.0996-356.099609zm559.4004 0h135.9004l217.4004 634.599609h-99.6016l-48.2988-140.5c-2.5-7.29999-9.4012-12.30078-17.2012-12.30078h-240.6992c-7.8 0-14.6992 4.90079-17.1992 12.30078l-48.1016 140.5h-99.6992l217.5-634.599609zm-2065 95.298829c58.4999 0 105.8008 47.40084 105.8008 105.80078 0.1 58.49994-47.3009 105.80078-105.8008 105.80078-58.3999 0-105.8008-47.30084-105.8008-105.80078s47.3009-105.80078 105.8008-105.80078zm612.6992 0c58.5 0 105.8008 47.40084 105.8008 105.80078 0 58.49994-47.4008 105.80078-105.8008 105.80078-58.3999 0-105.7988-47.30084-105.7988-105.80078s47.2989-105.80078 105.7988-105.80078zm862.9688 28.15625c-5.4797-0.28125-10.918 1.96914-14.668 6.24414l-187.8008 216.20117c-4.7 5.4-5.7988 13.00001-2.7988 19.5s9.4996 10.69922 16.5996 10.69922h187.6992c10.1 0 18.2012-8.19923 18.2012-18.19922v-216.20117c0-7.59999-4.7008-14.39961-11.8008-17.09961-1.775-0.675-3.6051-1.05078-5.4316-1.14453zm657.332 7.14453c-7.7 0-14.6992 4.90079-17.1992 12.30078l-82 239.09961c-1.9 5.6-1.0016 11.70001 2.3984 16.5 3.4 4.8 8.9008 7.59961 14.8008 7.59961h163.8008c5.9 0 11.3984-2.79961 14.8984-7.59961 3.4-4.79999 4.3004-10.9 2.4004-16.5l-81.9004-239.09961c-2.5-7.29999-9.3992-12.30078-17.1992-12.30078zm-676.5 59.90039v149.19922h-129.5l129.5-149.19922zm676.4004 14.59961 56.4004 164.59961h-112.8008l56.4004-164.59961zm-2623.59962 22.09961v130.30078h158.19922v-130.30078h-158.19922zm-690 537.09961v290.30078h39.39844v-95.30078c0-63.99994 42.60004-86.89844 80-86.89844 37.89996 0 64.80078 24.59966 64.80078 69.59961v112.59961h39.40039v-114.59961c0-63.09994-41.00123-94.90039-97.70117-94.90039-35.79997 0-67.19924 12.80003-85.69922 43h-0.80078v-123.80078h-39.39844zm3131.19922 34.90039-39.4004 16.5v37h-52.6992v27.40039h52.6992v119.0996c0 45 22.6004 57.9004 62.4004 57.9004 12.1 0 24.9008-0.8004 37.8008-2.4004v-27.4004c-11.3 1.6-23.0012 2.4004-30.2012 2.4004-24.6 0-30.5996-11.7004-30.5996-33.4004v-116.1992h59.5v-27.40039h-59.5v-53.5zm-2721.90039 45.80078c-84.39992 0-126.19922 42.99968-126.19922 108.59961 0 69.1999 44.0993 108.5996 126.19922 108.5996s126.20117-39.3997 126.20117-108.5996c0-69.19993-44.10125-108.59961-126.20117-108.59961zm1428.09959 0c-84.3999 0-126.1992 42.99968-126.1992 108.59961 0 69.1999 44.0993 108.5996 126.1992 108.5996s126.2012-39.3997 126.2012-108.5996c0-69.19993-44.1013-108.59961-126.2012-108.59961zm-1119.6992 0.09961c-32.99997 0-62.00041 12.40042-84.90039 43.40039h-0.79883c0-14.09999-0.80156-25.70079-1.60156-35.80078h-37c0.8 16.09998 1.60156 30.60041 1.60156 45.90039l0.09961 156h39.40039v-97.69922c0-59.59994 37.79847-84.5 72.39844-84.5 36.19996 0 54.70117 24.49888 54.70117 78.79883v103.30079h39.40039v-92.09962c0-66.39993 35.40002-90.10156 70.00002-90.10156 42.9999 0 57.0996 32.20083 57.0996 81.30078v101h39.4004v-115.80078c0-65.49994-35.4005-93.69922-92.9004-93.69922-37.4 0-68.8008 22.89925-83.30079 50.69922-11.69999-34.19997-39.79964-50.69922-73.59961-50.69922zm423.8008 0c-73.2999 0-117.5 38.99968-117.5 112.59961 0 63.99989 42.2989 104.59959 116.2988 104.59959 44.7 0 99.4004-14.4985 107.4004-68.3984h-41.8008c-8.9 28.9-38.9996 41-67.5996 41-44.1999 0-70.7988-29.4008-74.7988-70.8008h189v-12c0-68.39993-39.4001-107-111-107zm420.5996 0c-72.7999 0-118.7012 41.00007-118.7012 109 0 65.1999 39.8001 108.1992 115 108.1992 51.5 0 103.8008-21.6989 107.8008-72.7988l-41.6992 0.0996c-2.1 28.2-27.0001 45.5-64 45.5-49.9 0-75.2012-37.9004-75.2012-80.90039 0-53.89995 34.6012-81.69922 77.2012-81.69922 32.9999 0 56.7984 15.19964 60.3984 44.59961h41.8008c-6.9-52.69995-53.8997-72-102.5996-72zm583.7988 0c-32.9999 0-61.9984 12.40042-84.8984 43.40039h-0.8008c0-14.09999-0.7996-25.70079-1.5996-35.80078h-37c0.8 16.09998 1.5996 30.60041 1.5996 45.90039v156h39.4004v-97.69922c0-59.59994 37.8004-84.5 72.4004-84.5 36.1999 0 54.6992 24.49888 54.6992 78.79883v103.30079h39.5v-92.09962c0-66.39993 35.4-90.10156 70-90.10156 43 0 57.0996 32.20083 57.0996 81.30078v101h39.4004v-115.80078c0-65.49994-35.4004-93.69922-92.9004-93.69922-37.4 0-68.7988 22.89925-83.2988 50.69922-11.7-34.19997-39.8016-50.69922-73.6016-50.69922zm449.1016 0c-35.8 0-68 12.89924-88.5 36.19922 0-11.69999-0.8016-20.99962-1.6016-28.59961h-39.3984c0.8 16.09998 1.5996 30.60041 1.5996 45.90039v233.3008h39.4004v-103.8008c24.9 26.6 56.3 34.1992 88.5 34.1992 60.2999 0 112.5996-42.9997 112.5996-108.59959 0-65.59994-52.2997-108.59961-112.5996-108.59961zm748.1992 0c-73.2999 0-117.5 38.99968-117.5 112.59961 0 63.99989 42.3009 104.59959 116.3008 104.59959 44.6999 0 99.3984-14.4985 107.3984-68.3984h-41.7988c-8.9 28.9-38.9996 41-67.5996 41-44.2 0-70.8008-29.4008-74.8008-70.8008h189v-12c0-68.39993-39.4001-107-111-107zm286.3008 4.80078c-45 0-62.7008 10.40003-80.8008 43h-0.8008c0-13.59999-0.7996-28.10118-1.5996-40.20117h-37c0.8 16.09998 1.5996 30.60041 1.5996 45.90039v156h39.4004v-97.69922c0-40.59996 26.0997-74 73.5996-74 7.2 0 12.9004 0.39844 18.9004 2.39844v-35.39844h-13.2988zm-862.6016 2.79883v114.70119c0 63.0999 41.1009 94.8984 97.8008 94.8984 36.2 0 65.1996-12.3984 88.0996-43.3984h0.8008c0 14.1 0.7996 25.6988 1.5996 35.7988h37c-0.8-16.1-1.5996-30.6004-1.5996-45.9004v-156.09959h-39.4004v95.30078c0 63.99991-42.6996 86.90041-80.0996 86.90041-37.9 0-64.8008-24.6016-64.8008-69.6016v-112.59959h-39.4004zm-180.8984 19.5c46.9999 0 79.5996 30.20083 79.5996 81.30078 0 51.09991-32.4997 81.29881-79.5996 81.29881-46.6 0-79.5016-30.0989-79.6016-81.29881 0-51.09995 32.9016-81.30078 79.6016-81.30078zm-2176.70119 0.20117c55.09994 0 84.5 35.39888 84.5 81.29883 0 45.89999-29.40006 81.30079-84.5 81.30079-55.09995 0-84.5-35.4008-84.5-81.30079 0-45.89995 29.40005-81.29883 84.5-81.29883zm731.30079 0c34.6 0 69.2 17.69849 70 64.39844h-145.5996c6-44.69996 34.9996-64.39844 75.5996-64.39844zm696.9004 0c55.0999 0 84.5 35.39888 84.5 81.29883 0 45.89999-29.4001 81.30079-84.5 81.30079-55.1 0-84.5-35.4008-84.5-81.30079 0-45.89995 29.4-81.29883 84.5-81.29883zm1504.7988 0c34.6 0 69.2 17.69849 70 64.39844h-145.5996c6-44.69996 34.9996-64.39844 75.5996-64.39844z"/>
</svg>
