<?xml version="1.0" encoding="utf-8"?>
<!-- Generator: Adobe Illustrator 25.4.1, SVG Export Plug-In . SVG Version: 6.00 Build 0)  -->
<svg version="1.1" id="Layer_1" xmlns="http://www.w3.org/2000/svg" xmlns:xlink="http://www.w3.org/1999/xlink" x="0px" y="0px"
	 viewBox="0 0 3839 445.5" style="enable-background:new 0 0 3839 445.5;" xml:space="preserve">
<style type="text/css">
	.st0{fill:#FA3101;}
	.st1{fill:#A41A10;}
	.st2{fill:#FFFFFF;}
	.st3{fill:#0046B7;}
	.st4{fill:#E41F28;}
	.st5{display:none;}
	.st6{display:inline;fill:#FFFFFF;}
</style>
<g>
	<g>
		<path d="M3156.2,15.2c38.8,0,76.3,10.3,108.6,29.7l18.6,11.2V34.3V20.9h125.1l50,78.2l16.9,26.5h5.7V92.5V20.9h143.4v90.2v12.3
			h12.3h173.5l-146.3,213.2h-27.2h-12.3v12.3v75.7h-122.6l-57.7-90.2h-17.4v90.2h-143.4v-14.2v-21.9l-18.7,11.4
			c-32.6,19.9-70.1,30.4-108.5,30.4c-38.3,0-75.9-10.6-108.5-30.6l-18.7-11.5v21.9v14.3h-143.4v-9.3l-16.5,6
			c-16.5,6-34.1,9.1-52.3,9.1c-18.4,0-36.1-3.2-52.6-9.4l-16.6-6.2v9.8h-143.4v-1.3v-76.4l-23.9,72.6l-1.7,5.1h-118.4l-30-82.1
			l-2.9-8.1h-8.6h-97.4h-12.3v12.3v77.9h-300l-4.1-5.8l-22.3-31.3v37.1h-143.4v-16.2l-17.3,7.8c-20.8,9.4-43.1,14.2-66.4,14.2
			c-39.4,0-76.4-13.7-104.2-38.5c-3.7-3.3-7.4-6.9-10.7-10.7l-21.4-23.8v32v35.3h-258.2l-57.7-90.2h-17.4v90.2H956.6v-90.2H918
			l-62.9,90.2H728v-18v-21.5L709.5,396c-32.6,19.2-70.3,28.6-115.2,28.6H368.3v-77.5v-12.3h-12.3h-9.5h-6.5l-3.7,5.3l-57.7,84.4
			H104.4l47.2-68.8l13.2-19.2h-23.3H28.8l146.3-213.2h129.5h6.5l3.7-5.3l66.7-97.2h214.5c43.8,0,81.9,9.7,113.4,28.9L728,61.3V39.4
			V20.9h143.4v104.7h17.2l73.3-104.7h305.9l50,78.2l16.9,26.5h5.7V92.5V20.9h642.8c23.6,0,45.1,3,63.6,9l16,5.1V20.9h404.3
			l36.6,104.7h24.5l33.1-104.7h186.3v11l16.9-6.8c16.5-6.6,34.1-10,52.4-10c18.2,0,35.8,3.2,52.2,9.4l16.6,6.3v-9.9H3029v14.3v21.9
			l18.7-11.5C3080.4,25.7,3117.9,15.2,3156.2,15.2 M3156.2,0c-39.4,0-78,10.4-112,30.2v-9.2V5.8H3029h-143.4h-15.2v3.2
			c-17-5.9-35-8.9-53.6-8.9c-18.8,0-36.9,3.2-54.1,9.6V5.8h-15.2h-186.3h-11.1l-3.3,10.6l-29.8,94.1h-2.6l-33.1-94.5l-3.6-10.2
			h-10.8h-404.3h-15.2v8.5c-19.2-5.7-40.8-8.5-64.5-8.5h-642.8h-15.2v15.2v61.7l-44.7-69.9l-4.5-7h-8.3H961.9H954l-4.5,6.5
			l-62.9,89.9V20.9V5.8h-15.2H728h-15.2v15.2v13.4c-33-19-72.3-28.6-116.9-28.6H381.5h-8l-4.5,6.6l-65.8,95.9h-128h-8l-4.5,6.6
			L16.3,328L0,351.8h28.8H136L91.9,416l-16.3,23.7h28.8h174.3h8l4.5-6.6l56.9-83.2h5.1v74.6v15.2h15.2h225.9
			c45.8,0,84.7-9.2,118.6-28.2v13v15.2H728h127.1h7.9l4.5-6.5l58.4-83.7h15.5v75v15.2h15.2h329.5h15.2v-15.2v-65.5l47.1,73.7l4.5,7
			h8.3h258.2h15.2v-15.2v-28c2.2,2.3,4.6,4.5,6.9,6.6c30.6,27.3,71.2,42.4,114.3,42.4c23.9,0,47-4.6,68.6-13.7v8h15.2h469.8h15.2
			v-15.2v-75h92.5l29.3,80.2l3.6,10h10.6h118.4h11h14.7h143.4h15.2v-3.2c17.1,5.9,35.3,8.9,54.1,8.9c18.6,0,36.6-2.9,53.6-8.6v2.9
			h15.2H3029h15.2v-15.2v-9.2c34,19.7,72.6,30.2,112,30.2c39.4,0,78.1-10.4,112-30.1v9.1v15.2h15.2h143.4h15.2v-15.2v-65.5
			l47.1,73.7l4.5,7h8.3h122.6h15.2v-15.2v-72.8h24.3h8l4.5-6.6L3822.7,132l16.3-23.7h-28.8h-170.6V20.9V5.8h-15.2h-143.4h-15.2v15.2
			v61.7l-44.7-69.8l-4.5-7h-8.3h-125.1h-15.2v15.2v8.4C3234.6,10.1,3196,0,3156.2,0L3156.2,0z"/>
	</g>
	<g>
		<path d="M3609.3,140.8V36.1h-113.1v104.7h-29.1l-66.9-104.7h-101.7v55.9c-35-38.1-85.4-61.6-142.3-61.6
			c-56.3,0-107,24.2-142.3,62.7v-57h-113v25c-21.4-19.3-50.4-30.8-83.9-30.8c-33.2,0-62.9,12.7-84.4,33.4V36.1h-41.6h-71.4h-47
			l-33.1,104.7h-46.3l-36.6-104.7h-121.8l38.2,104.7H2294V36.1h-216v26.5c-23.4-17.8-54.5-26.5-94.8-26.5h-91.1h-37.6h-75.5v104.7
			h-46.8V36.1h-69.7h-43.4h-150.7h-36h-77.1v104.7h-29.1l-66.9-104.7h-71.7h-29.9h-50.3H967.7l-70.9,104.7h-40.6V36.1h-113v63.8
			c-33-41.7-83.7-63.8-147.3-63.8h-99.4h-33.8h-73.3l-71.9,104.7h-136L59.1,319.3h136l-28.5,41.6l-33.4,48.6h137.6l61.4-89.8h51.4
			v89.8h79.3h33.8h97.7c59.5,0,106.3-17.7,143.3-54.1c2-2,3.8-4,5.6-6.1v60.2h104.1l62.9-90.2h61.6v90.2h186.1h29.9h83.1v-90.2h40.8
			l57.7,90.2h99.2v-90.2h22.5v90.2h113v-90.2h20.4c6.5,24.5,19,45.2,37,61.3c25,22.4,58.4,34.7,94.1,34.7c35.7,0,69.1-12.3,94-34.6
			c1.7-1.5,3.2-3.2,4.8-4.8v33.7h113.1v-69.4l49.4,69.4h61h80.9H2294v-90.2h144l32.9,90.2h96.8l29.7-90.2h22v90.2h113v-24.1
			c22.1,18.9,51.2,29.9,84.4,29.9c33,0,62-10.6,83.9-28.9v23.1h113v-57c35.3,38.5,86,62.7,142.3,62.7c56.3,0,107-24.1,142.3-62.5
			v56.7h113v-90.2h40.8l57.7,90.2h99.2v-90.2h47.6l122.5-178.5H3609.3z M462.3,375.1h-44.5v-89.8H314l-61.4,89.8h-54.4L407.5,70.4
			h54.8V375.1z M713.3,331.1c-33.4,32.9-73.3,44.1-119,44.1h-97.2V70.4h98.8c49,0,95.1,14.8,124.4,56c19.8,27.6,31.3,63,31.3,97.2
			C751.6,259,738.8,305.5,713.3,331.1z M1153.5,111.1h-103v89.8h103v40.8h-103v92.7h103v40.8H1006V121.8L829.3,375.1h-51.9V70.4
			h44.5v240.9h0.8L985.9,70.4h20.2h35.8h111.6V111.1z M1434.3,375.1h-46.1l-150.7-235.6h-0.8v235.6h-44.5V70.4h48.6L1389,302.2h0.8
			V70.4h44.5V375.1z M1628.4,111.1h-58.5v264h-44.5v-264h-58.5V70.4h161.4V111.1z M1857.9,276.7c0,29.7-8.2,58.1-30.9,78.3
			c-19.4,17.3-45.3,25.9-71.3,25.9c-25.9,0-51.9-8.6-71.3-25.9c-22.7-20.2-30.9-48.6-30.9-78.3V70.4h44.5v205.1
			c0,36.2,19.8,64.7,57.7,64.7c37.9,0,57.7-28.4,57.7-64.7V70.4h44.5V276.7z M2090.3,375.1h-55.6l-100.5-141.3h-0.8v141.3h-44.5
			V70.4h94.3c28.8,0,59.7,4.5,81.1,25.5c19.4,18.5,28,45.7,28,72.1c0,41.2-18.1,73.7-57.7,87.7c-9.1,3.3-19.8,5.8-29.7,5.8
			L2090.3,375.1z M2259.7,111.1h-103v89.8h103v40.8h-103v92.7h103v40.8h-147.5V70.4h147.5V111.1z M2543,375.1h-48L2383.7,70.4h48.4
			l86.9,248.3l78.6-248.3h45.9L2543,375.1z M2698.3,375.1h-44.5V70.4h44.5V375.1z M2816.9,380.9c-55.6,0-93.9-40.8-93.9-96h44.5
			c0,29.7,17.3,55.2,49.4,55.2c30.5,0,49-21.8,49-51.5c0-32.5-23.5-40-49-49.8c-47.4-18.1-85.3-32.1-85.3-91.4
			c0-47.4,38.7-82.8,85.3-82.8c50.7,0,87.3,33.4,87.3,84.8h-44.5c0-26.4-16.5-44.1-42.8-44.1c-22.2,0-40.8,19.4-40.8,41.6
			c0,64.7,134.3,25.9,134.3,141.7C2910.4,343.4,2871.3,380.9,2816.9,380.9z M2979.6,375.1h-44.5V70.4h44.5V375.1z M3156.2,380.9
			c-87.3,0-158.6-70.8-158.6-158.2c0-88.1,70.8-158.2,158.6-158.2c89,0,158.6,70.4,158.6,159
			C3314.8,310.5,3243.1,380.9,3156.2,380.9z M3575,375.1h-46.1l-150.7-235.6h-0.8v235.6h-44.5V70.4h48.6l148.3,231.9h0.8V70.4h44.5
			V375.1z"/>
		<path d="M3156.2,105.4c-47.4,0-84.8,25.5-103.4,68.8c-6.6,15.2-10.7,31.7-10.7,48.6s4.1,33.8,10.7,49.4
			c18.9,42.8,56.4,68,103.4,68c50.2,0,89-28.8,106.3-75.4c4.9-12.8,7.8-26.8,7.8-40.8C3270.3,159.3,3222.5,105.4,3156.2,105.4z"/>
		<path d="M595.5,111.1h-54v223.2h53.1c69.2,0,112.4-40.4,112.4-110.8c0-15.7-3.3-31.7-9.1-46.5C679.9,133,642.5,111.1,595.5,111.1z
			"/>
		<path d="M1980.3,111.1h-47v116.6h30.5c39.5,0,84-11.1,84-59.7C2047.9,129.3,2015.7,111.1,1980.3,111.1z"/>
		<polygon points="417.8,244.6 417.8,128 417,128 342,244.6 		"/>
	</g>
</g>
</svg>
