<svg enable-background="new 0 0 3839 445.5" version="1.1" viewBox="0 0 3839 445.5" xml:space="preserve" xmlns="http://www.w3.org/2000/svg">
<path fill="#FFFFFF" d="m3156.2 437.9c-39.7 0-78.6-11-112.4-31.7l-7.2-4.4v30.3h-158.5v-6.1l-6.3 2.3c-17.3 6.3-35.8 9.5-54.9 9.5-19.3 0-37.9-3.3-55.3-9.8l-6.3-2.4v6.5h-158.5v-38.1l-12.6 38.1h-129.1l-32.9-90.2h-105.4v90.2h-311.5l-14.9-21v21h-158.5v-12.1l-6.6 3c-21.8 9.8-45.2 14.8-69.5 14.8-41.3 0-80.1-14.4-109.3-40.5-3.9-3.5-7.8-7.3-11.3-11.3l-8.2-9.1v55.1h-270l-57.7-90.2h-5.6v90.2h-344.7v-90h-27l-62.9 90.2h-138.7v-33.8l-7.1 4.2c-33.8 19.9-72.7 29.6-119.1 29.6h-233.4v-89.8h-16.7l-61.4 89.8h-192.7l60.4-88h-136l156.7-228.3h136l70.4-102.5h218.4c45.2 0 84.7 10.1 117.4 30.1l7.1 4.4v-34.6h158.6v104.7h5.7l73.3-104.7h314l60.9 95.2v-95.2h650.4c24.4 0 46.6 3.1 65.9 9.3l6.1 2v-11.3h417.3l36.6 104.7h13.5l33.1-104.7h199.4v7.4l6.4-2.6c17.4-7 36-10.5 55.2-10.5s37.6 3.3 54.8 9.9l6.4 2.4v-6.5h158.5v30.3l7.2-4.4c33.8-20.7 72.7-31.7 112.4-31.7 40.1 0 79 10.6 112.5 30.8l7.1 4.3v-29.4h136.8l60.9 95.2v-95.2h158.6v102.5h192.6l-156.7 228.3h-35.9v88h-134.4l-57.6-90.1h-5.6v90.2h-158.5v-30.2l-7.1 4.4c-34 20.6-72.8 31.5-112.6 31.5z"/><path fill="#0046B7" d="m3156.2 15.2c38.8 0 76.3 10.3 108.6 29.7l18.6 11.2v-35.2h125.1l50 78.2 16.9 26.5h5.7v-104.7h143.4v102.5h185.8l-146.3 213.2h-39.5v88h-122.6l-57.7-90.2h-17.4v90.2h-143.4v-36.1l-18.7 11.4c-32.6 19.9-70.1 30.4-108.5 30.4-38.3 0-75.9-10.6-108.5-30.6l-18.7-11.5v36.2h-143.4v-9.3l-16.5 6c-16.5 6-34.1 9.1-52.3 9.1-18.4 0-36.1-3.2-52.6-9.4l-16.6-6.2v9.8h-143.4v-77.7l-23.9 72.6-1.7 5.1h-118.4l-30-82.1-2.9-8.1h-118.3v90.2h-300l-4.1-5.8-22.3-31.3v37.1h-143.4v-16.2l-17.3 7.8c-20.8 9.4-43.1 14.2-66.4 14.2-39.4 0-76.4-13.7-104.2-38.5-3.7-3.3-7.4-6.9-10.7-10.7l-21.4-23.8v67.3h-258.2l-57.7-90.2h-17.4v90.2h-329.3v-90.2h-38.6l-62.9 90.2h-127.1v-39.5l-18.5 11c-32.6 19.2-70.3 28.6-115.2 28.6h-226v-89.8h-28.3l-3.7 5.3-57.7 84.4h-174.2l47.2-68.8 13.2-19.2h-136l146.3-213.2h136l3.7-5.3 66.7-97.2h214.5c43.8 0 81.9 9.7 113.4 28.9l18.6 11.6v-40.4h143.4v104.7h17.2l73.3-104.7h305.9l50 78.2 16.9 26.5h5.7v-104.7h642.8c23.6 0 45.1 3 63.6 9l16 5.1v-14.1h404.3l36.6 104.7h24.5l33.1-104.7h186.3v11l16.9-6.8c16.5-6.6 34.1-10 52.4-10 18.2 0 35.8 3.2 52.2 9.4l16.6 6.3v-9.9h143.3v36.2l18.7-11.5c32.7-19.9 70.2-30.4 108.5-30.4m0-15.2c-39.4 0-78 10.4-112 30.2v-24.4h-173.8v3.2c-17-5.9-35-8.9-53.6-8.9-18.8 0-36.9 3.2-54.1 9.6v-3.9h-212.6l-3.3 10.6-29.8 94.1h-2.6l-33.1-94.5-3.6-10.2h-430.3v8.5c-19.2-5.7-40.8-8.5-64.5-8.5h-658v76.9l-44.7-69.9-4.5-7h-321.7l-4.5 6.5-62.9 89.9v-96.4h-173.8v28.6c-33-19-72.3-28.6-116.9-28.6h-222.4l-4.5 6.6-65.8 95.9h-136l-4.5 6.6-146.4 213.1-16.3 23.8h136l-44.1 64.2-16.3 23.7h211.1l4.5-6.6 56.9-83.2h5.1v89.8h241.1c45.8 0 84.7-9.2 118.6-28.2v28.2h150.1l4.5-6.5 58.4-83.7h15.5v90.2h359.9v-80.7l47.1 73.7 4.5 7h281.7v-43.2c2.2 2.3 4.6 4.5 6.9 6.6 30.6 27.3 71.2 42.4 114.3 42.4 23.9 0 47-4.6 68.6-13.7v8h500.2v-90.2h92.5l29.3 80.2 3.6 10h313.3v-3.2c17.1 5.9 35.3 8.9 54.1 8.9 18.6 0 36.6-2.9 53.6-8.6v2.9h173.2v-24.4c34 19.7 72.6 30.2 112 30.2s78.1-10.4 112-30.1v24.3h173.8v-80.7l47.1 73.7 4.5 7h146.1v-88h32.3l4.5-6.6 146.2-213.2 16.3-23.7h-199.4v-102.5h-173.8v76.9l-44.7-69.8-4.5-7h-148.6v23.6c-33.4-19.4-72-29.5-111.8-29.5z"/><path d="m2817 30.300781c-33.2 0-62.9004 12.698458-84.4004 33.398438v-27.59961h-160l-33.1367 104.701171h-46.2774l-36.6855-104.701171h-121.8008l38.2285 104.701171h-78.9277v-104.701171h-216v26.5c-23.4-17.799982-54.5008-26.5-94.8008-26.5h-204.1992v104.701171h-46.8008v-104.701171h-376.8984v104.701171h-29.0801l-66.9199-104.701171h-291.60158l-70.92383 104.701171h-40.57617v-104.701171h-113v63.800782c-32.99997-41.699959-83.69889-63.800782-147.29883-63.800782h-206.5l-71.875 104.701171h-135.92578l-122.500001 178.5h135.888671l-28.48828 41.5-33.40039 48.59961h137.59961l61.40039-89.80078h51.40039v89.80078h210.80078c59.49994 0 106.29887-17.69965 143.29883-54.09961 2-2 3.79961-4.00156 5.59961-6.10156v60.20117h104.10156l62.80664-90.09961h61.69336v90.09961h299.09962v-90.09961h40.8711l57.6289 90.09961h99.1992v-90.09961h22.5v90.09961h113v-90.09961h20.5527c6.5515 24.42969 18.929 45.22818 36.8477 61.19922 25 22.39998 58.3996 34.69922 94.0996 34.69922s69.1-12.29963 94-34.59961c1.7-1.5 3.2008-3.19883 4.8008-4.79883v33.69922h113.0996v-69.40039l49.4004 69.40039h277.0996v-90.19922h144.1035l32.8965 90.09961h96.8008l29.707-90.09961h21.9922v90.09961h113v-24.09961c22.1 18.89998 51.2004 29.89844 84.4004 29.89844 33 0 62.0004-10.59846 83.9004-28.89844v23.09961h113v-57c35.2999 38.49996 85.9989 62.69922 142.2988 62.69922 56.3 0 107.0008-24.10004 142.3008-62.5v56.70117h113v-90h40.9355l57.5645 90h99.1992v-90h47.8008l122.5-178.5h-170.3008v-104.701171h-112.9004v104.701171h-29.0801l-66.9199-104.701171h-101.6992v55.900391c-35-38.099962-85.4008-61.599609-142.3008-61.599609-56.2999 0-106.9988 24.199257-142.2988 62.699218v-57h-113v25c-21.4-19.29998-50.4004-30.798828-83.9004-30.798828z" fill="#f20012"/><path fill="#FFFFFF" d="m3156.1992 64.5c-87.7999 0-158.5996 70.09931-158.5996 158.19922 0 87.39991 71.2997 158.20117 158.5996 158.20117 86.8999 0 158.6016-70.40048 158.6016-157.40039 0-88.59991-69.6017-159-158.6016-159zm-339.2988 0.09961c-46.6 0-85.3008 35.40083-85.3008 82.80078 0 59.29994 37.9008 73.30041 85.3008 91.40039 25.5 9.79999 49 17.29886 49 49.79883 0 29.69997-18.5 51.5-49 51.5-32.1 0-49.4004-25.49925-49.4004-55.19922h-44.5c0 55.19995 38.3004 96 93.9004 96 54.3999 0 93.5-37.50084 93.5-92.30078 0-115.79988-134.3008-76.99928-134.3008-141.69922 0-22.19998 18.6008-41.59961 40.8008-41.59961 26.3 0 42.7988 17.69964 42.7988 44.09961h44.5c0-51.399947-36.5989-84.80078-87.2988-84.80078zm-2409.4004 5.800781-209.30078 304.699219h54.40039l61.40039-89.79883h103.80078v89.89843h44.5v-304.798819zm89.59961 0v304.798829h97.20117c45.69996 0 85.60003-11.19964 119-44.09961 25.49998-25.59998 38.29883-72.10004 38.29883-107.5 0-34.19997-11.49885-69.59925-31.29883-97.19922-29.29997-41.199958-75.40044-55.999999-124.40039-55.999999zm280.30078 0v304.699219h51.90039l176.69922-253.24609v253.44726h147.5v-40.80078h-103v-92.69922h103v-40.80078h-103v-89.80078h103v-40.798829h-167.59961l-163.20117 240.900389h-0.79883v-240.900389zm414.79881 0v304.699219h44.5v-235.59961h0.8008l150.6992 235.59961v0.0996h46.1016v-304.798819h-44.5v231.798829h-0.8008l-148.1992-231.798829zm274.7012 0v40.699219h58.5v264h44.5v-263.90039h58.4004v-40.798829zm186.5996 0v206.298829c0 29.69997 8.2004 58.1008 30.9004 78.30078 19.4 17.29998 45.3988 25.90039 71.2988 25.90039 26 0 51.9008-8.60041 71.3008-25.90039 22.6-20.19998 30.9004-48.60081 30.9004-78.30078v-206.298829h-44.5v205.099609c0 36.29996-19.8012 64.69922-57.7012 64.69922-37.8999 0-57.6992-28.49926-57.6992-64.69922v-205.099609zm235.4004 0v304.798829h44.5v-141.29883h0.7988l100.5 141.29883h55.6016l-85.3008-113.69922c9.9 0 20.5992-2.50078 29.6992-5.80078 39.5-13.99999 57.6016-46.49926 57.6016-87.69922 0-26.39997-8.6-53.59963-28-72.099609-21.4-20.999979-52.3016-25.5-81.1016-25.5zm223.4004 0v304.900389h147.5v-40.80078h-103v-92.69922h103v-40.80078h-103v-89.80078h103v-40.798829zm271.3984 0 111.2012 304.699219h48.0996l100.5-304.699219h-45.9004l-78.5996 248.298829-86.9004-248.298829zm270.1016 0v304.798819h44.5v-304.798819zm281.2988 0v304.798819h44.5v-304.798819zm397.8008 0v304.699219h44.5v-235.59961h0.7988l150.7012 235.59961v0.0996h46.1992v-304.798819h-44.5v231.900389h-0.7988l-148.3008-231.900389zm-176.7012 34.999999c66.3 0 114.1016 53.89967 114.1016 118.59961 0 13.99999-2.9008 28.00079-7.8008 40.80078-17.3 46.59995-56.1008 75.39844-106.3008 75.39844-46.9999 0-84.4984-25.20004-103.3984-68-6.6-15.59999-10.7012-32.49846-10.7012-49.39844s4.1012-33.40158 10.7012-48.60156c18.6-43.29996 55.9985-68.79883 103.3984-68.79883zm-2614.6992 5.69922h54c46.99995 0 84.49963 21.80043 102.59961 65.90039 5.69999 14.89999 9.00039 30.90002 8.90039 46.5 0 70.39993-43.20046 110.80078-112.40039 110.80078h-53.09961zm1391.8008 0h47c35.3999 0 67.6 18.20043 67.5 56.90039 0 48.59995-44.5001 59.69922-84 59.69922h-30.5zm-1516.3008 16.90039h0.80078v116.59961h-75.80078z"/>
</svg>
