<?xml version="1.0" standalone="no"?>
<!DOCTYPE svg PUBLIC "-//W3C//DTD SVG 20010904//EN"
 "http://www.w3.org/TR/2001/REC-SVG-20010904/DTD/svg10.dtd">
<svg version="1.0" xmlns="http://www.w3.org/2000/svg"
 viewBox="0 0 1350.000000 250.000000"
 preserveAspectRatio="xMidYMid meet">
<g transform="translate(0.000000,690.000000) scale(0.100000,-0.100000)"
fill="#FFF" stroke="none">
<path d="M9600 6329 c-19 -5 -204 -9 -417 -9 -301 1 -383 -2 -390 -12 -4 -7
-28 -74 -53 -148 -55 -161 -67 -171 -106 -84 -29 65 -50 122 -66 174 -22 76
40 70 -738 70 -504 0 -699 -3 -707 -11 -9 -9 -32 -9 -90 0 -58 9 -360 12
-1188 9 l-1110 -3 -5 -94 c-3 -59 -9 -96 -17 -98 -11 -4 -44 36 -116 141 l-38
56 -522 0 c-287 0 -527 -4 -534 -8 -14 -9 -116 -158 -126 -185 -3 -9 -15 -17
-26 -17 -19 0 -21 8 -23 103 l-3 102 -297 3 -298 2 0 -29 c0 -16 -6 -31 -12
-34 -12 -4 -63 11 -148 44 -27 10 -140 14 -477 17 l-441 3 -34 -45 c-18 -25
-67 -93 -108 -152 -119 -169 -87 -154 -332 -154 -115 0 -217 -4 -226 -9 -10
-5 -35 -36 -57 -68 -22 -32 -44 -62 -48 -68 -9 -12 -95 -132 -117 -165 -8 -12
-42 -59 -75 -104 -33 -46 -67 -93 -75 -105 -23 -35 -138 -195 -148 -206 -24
-28 -41 -62 -35 -68 3 -4 98 -7 210 -7 238 0 231 4 153 -105 -27 -39 -65 -92
-85 -119 -19 -27 -33 -51 -31 -53 6 -6 716 -4 726 2 6 4 27 32 49 64 66 99
106 150 118 151 9 0 13 -32 15 -111 l3 -111 462 2 c476 1 542 5 636 45 20 8
45 15 56 15 19 0 35 -25 26 -40 -3 -5 -1 -11 4 -15 6 -3 126 -6 268 -6 236 0
259 2 270 18 7 10 16 23 20 28 4 6 26 39 47 75 62 102 107 161 120 157 7 -2
12 -50 14 -140 2 -122 4 -137 20 -137 50 0 1119 0 1130 0 9 0 12 28 12 104 0
59 4 108 10 111 14 9 48 -31 109 -129 30 -47 59 -86 65 -86 6 0 215 -1 463 -3
370 -2 454 0 458 11 3 8 5 34 5 58 0 51 9 54 57 18 105 -80 264 -116 419 -94
49 7 105 12 124 12 19 1 415 0 879 -1 464 -1 846 1 849 4 3 3 4 57 3 121 -2
78 1 120 9 130 10 11 39 14 124 14 61 0 117 -4 124 -9 12 -7 54 -113 83 -206
5 -16 16 -45 25 -63 l15 -33 547 1 c366 1 566 -3 605 -10 42 -8 73 -8 108 -1
29 7 178 11 357 11 169 0 312 4 318 8 7 4 13 16 16 27 5 26 35 25 108 -4 30
-12 99 -28 153 -36 87 -13 110 -13 195 0 93 14 162 33 209 57 29 14 51 5 55
-24 l3 -23 255 -3 c140 -2 269 0 287 3 l32 6 3 117 c3 131 14 147 52 77 12
-22 44 -75 71 -117 40 -62 56 -79 80 -83 17 -3 127 -5 245 -3 l215 3 3 163 2
162 43 0 c24 0 50 6 59 13 8 6 98 122 198 257 101 135 186 247 189 250 3 3 19
23 34 46 15 22 35 49 45 60 9 11 28 35 42 54 13 19 28 40 32 45 5 6 19 23 33
40 18 21 21 31 12 37 -7 4 -164 8 -349 8 l-338 0 -2 163 -3 162 -265 3 c-146
1 -275 0 -287 -3 -22 -5 -23 -10 -23 -105 0 -97 -1 -100 -22 -100 -16 0 -30
12 -47 42 -13 23 -44 70 -69 105 l-46 63 -243 0 -243 0 0 -25 c0 -33 -25 -42
-59 -23 -38 22 -124 45 -217 58 -67 10 -99 9 -189 -4 -60 -9 -114 -21 -119
-26 -6 -6 -16 -10 -24 -10 -8 0 -29 -7 -48 -16 -39 -19 -64 -13 -64 15 0 13
-8 22 -22 26 -13 2 -167 7 -343 9 -176 3 -340 7 -365 10 -25 2 -61 0 -80 -5z
m188 -55 c37 -10 72 -21 78 -26 7 -5 16 -2 24 7 10 13 47 15 224 15 116 0 221
-3 234 -6 18 -5 22 -13 22 -50 0 -32 4 -44 14 -44 8 0 18 5 22 11 12 19 135
71 217 90 156 38 303 19 467 -59 19 -9 43 -23 52 -30 24 -20 38 -6 38 38 0 25
5 40 16 44 9 3 100 6 204 6 l189 0 33 -42 c19 -24 51 -70 73 -103 22 -33 42
-62 45 -65 3 -3 21 -29 40 -57 55 -83 60 -75 60 97 0 137 2 150 19 160 29 15
444 13 459 -2 8 -8 12 -59 12 -165 l0 -153 308 0 c178 0 313 -4 322 -10 11 -7
12 -13 5 -23 -28 -39 -439 -583 -444 -587 -4 -3 -17 -22 -31 -42 -27 -41 -43
-48 -112 -48 l-48 0 0 -154 c0 -97 -4 -157 -10 -161 -10 -6 -411 -9 -415 -3
-2 3 -99 162 -120 196 -54 90 -82 122 -100 120 -19 -3 -20 -12 -23 -160 l-3
-158 -97 -1 c-94 -2 -205 -2 -324 0 l-58 1 0 39 c0 22 -4 43 -10 46 -5 3 -31
-7 -57 -22 -135 -79 -320 -110 -469 -78 -43 9 -88 20 -99 25 -11 5 -43 19 -72
31 -29 11 -58 27 -64 35 -23 28 -39 16 -39 -31 0 -40 -3 -45 -22 -46 -119 -5
-453 3 -463 11 -6 5 -14 8 -17 5 -13 -14 -153 -45 -199 -45 -53 0 -158 22
-197 42 -17 9 -25 9 -30 1 -9 -15 -34 -16 -274 -15 l-208 2 0 69 c0 70 -13
101 -25 59 -28 -105 -39 -128 -65 -129 -27 -1 -329 -1 -367 0 -13 1 -23 6 -23
12 0 6 -6 25 -14 42 -8 18 -24 61 -37 97 -38 112 -45 130 -56 141 -6 6 -74 8
-174 7 l-164 -3 -2 -120 c-1 -66 -2 -126 -3 -133 0 -10 -109 -12 -527 -10
l-528 3 -34 47 c-20 26 -38 45 -41 42 -3 -3 -5 -24 -5 -47 l0 -42 -237 -3
c-131 -1 -238 1 -238 5 0 5 -4 14 -9 21 -7 11 -16 10 -47 -6 -22 -11 -80 -27
-130 -37 -87 -18 -94 -18 -180 -1 -49 10 -116 31 -149 48 -60 29 -175 135
-189 172 -13 36 -19 6 -20 -96 l-1 -103 -433 -3 c-405 -2 -433 -1 -439 15 -4
10 -14 29 -24 43 -9 14 -41 63 -72 110 -65 102 -82 118 -105 103 -14 -8 -18
-33 -22 -139 l-5 -129 -533 -3 -532 -2 0 124 c0 68 -3 131 -6 140 -4 11 -19
16 -48 16 -46 0 -73 -22 -111 -90 -10 -19 -23 -39 -27 -45 -16 -19 -74 -111
-81 -128 -6 -16 -28 -17 -239 -15 l-233 3 -3 48 c-3 52 -11 56 -50 28 -15 -10
-69 -33 -120 -50 l-94 -31 -456 2 -457 3 -3 133 -3 132 -32 0 c-27 0 -37 -7
-58 -39 -14 -22 -57 -83 -95 -135 l-69 -96 -302 0 c-304 0 -322 2 -291 34 7 8
20 24 28 36 8 12 29 41 46 64 17 22 39 56 49 74 11 17 23 32 27 32 4 0 8 9 8
21 0 20 -4 20 -203 18 -198 -1 -202 -1 -205 19 -2 12 2 27 8 34 6 7 38 51 71
98 33 47 67 94 75 105 8 11 37 52 64 90 27 39 69 97 92 129 24 33 65 92 92
130 79 115 53 106 306 106 l220 0 43 59 c23 33 69 98 102 145 33 48 69 98 80
111 l21 25 389 0 c215 0 417 -4 451 -9 64 -9 188 -54 215 -77 32 -28 48 -17
51 34 l3 47 250 0 250 0 3 -155 c1 -85 6 -158 11 -163 5 -5 19 9 32 30 13 21
27 43 32 48 4 6 40 60 80 120 39 61 76 113 82 117 5 4 236 8 511 8 l502 0 58
-87 c98 -147 148 -213 161 -213 9 0 13 39 15 148 l3 147 670 0 670 0 3 -148
c3 -147 3 -148 25 -145 21 3 22 8 27 148 l5 145 440 0 c413 0 443 -1 489 -19
l49 -20 15 22 14 22 659 0 659 0 20 -32 c11 -18 20 -40 20 -48 0 -8 7 -28 15
-44 8 -15 15 -33 15 -38 0 -6 7 -26 16 -46 36 -86 37 -87 83 -90 51 -4 68 8
77 56 4 19 13 47 20 61 8 14 14 36 14 48 0 12 4 24 9 27 5 4 12 24 16 46 4 24
14 44 25 50 11 6 136 10 304 10 271 0 287 -1 303 -19 14 -17 20 -18 37 -8 79
45 206 57 314 31z"/>
<path d="M1701 6173 c-13 -15 -45 -59 -72 -98 -27 -38 -53 -75 -59 -82 -5 -6
-28 -39 -51 -72 -24 -35 -51 -63 -63 -66 -12 -2 -115 -6 -231 -9 -228 -6 -212
-2 -255 -66 -8 -12 -42 -59 -75 -105 -33 -47 -94 -132 -135 -190 -41 -59 -85
-119 -97 -135 -13 -15 -23 -33 -23 -39 0 -8 63 -11 210 -11 232 0 229 1 187
-61 -13 -19 -45 -65 -72 -104 -26 -38 -54 -75 -61 -83 -8 -7 -14 -20 -14 -28
0 -12 34 -14 204 -14 199 0 204 0 220 23 9 12 52 72 96 132 43 61 84 116 90
123 7 8 39 12 89 12 77 0 79 0 86 -27 3 -15 6 -70 5 -123 -1 -52 -1 -105 -1
-117 l1 -23 363 0 c472 0 547 12 689 106 37 25 71 51 75 59 5 7 20 16 35 20
l27 7 3 -94 3 -93 160 0 159 0 28 40 c15 22 51 78 80 124 76 124 71 121 187
121 69 0 102 -4 108 -12 4 -7 10 -71 13 -143 l5 -130 450 0 450 0 5 140 5 140
82 3 c97 3 96 5 171 -119 29 -46 65 -102 80 -124 l28 -40 142 -3 142 -3 0 123
c0 171 0 170 69 166 l56 -3 5 -140 5 -140 158 -3 157 -3 0 130 c0 71 3 136 6
145 4 11 19 16 49 16 45 0 67 -16 80 -60 20 -65 106 -159 175 -191 19 -9 48
-23 64 -30 20 -10 69 -14 155 -13 121 0 128 2 189 32 35 18 82 50 105 72 22
22 44 37 48 32 5 -4 9 -34 11 -67 l3 -60 155 0 155 0 3 112 c4 145 14 156 72
71 78 -114 105 -152 121 -170 15 -17 45 -18 480 -16 l464 3 5 130 5 130 229 3
c232 2 256 -1 256 -35 0 -8 6 -29 14 -46 8 -18 25 -63 37 -102 39 -121 30
-115 190 -115 l138 0 14 33 c8 17 30 79 48 137 19 58 42 113 51 122 21 21 61
23 76 5 7 -8 13 -71 14 -153 l3 -139 160 0 160 0 3 38 c3 31 7 37 27 37 13 0
25 -4 27 -9 2 -5 30 -24 63 -42 55 -30 69 -33 170 -37 123 -5 195 13 262 64
38 29 50 25 55 -21 l3 -30 157 -3 157 -3 3 88 c4 107 13 113 82 50 44 -41 117
-84 211 -123 63 -26 286 -32 362 -9 74 23 143 53 160 71 8 8 18 14 22 14 4 0
31 20 59 45 72 61 82 54 82 -51 l0 -84 160 0 159 0 3 158 3 157 75 5 75 6 38
-40 c20 -22 37 -43 37 -48 0 -5 8 -21 19 -36 10 -15 44 -66 75 -114 l57 -88
144 0 145 0 0 159 c0 182 -6 171 95 171 44 0 68 5 79 15 23 24 396 520 396
528 0 4 -120 7 -266 7 -164 0 -273 4 -285 10 -18 10 -19 23 -19 165 l0 155
-160 0 -159 0 -3 -157 -3 -158 -72 -3 -72 -3 -31 43 c-17 24 -54 75 -81 113
-27 39 -52 75 -57 80 -4 6 -18 27 -31 48 l-23 37 -149 0 -149 0 0 -85 c0 -77
-2 -85 -19 -85 -11 0 -38 17 -61 38 -50 45 -140 95 -221 123 -52 18 -78 20
-209 17 -102 -2 -153 -7 -162 -15 -6 -7 -19 -13 -27 -13 -9 0 -36 -11 -61 -25
-25 -13 -55 -28 -66 -34 -12 -5 -41 -28 -65 -51 -24 -22 -52 -42 -64 -43 -19
-2 -20 4 -23 86 l-3 87 -159 0 -160 0 0 -35 c0 -40 -24 -57 -43 -32 -7 9 -34
29 -62 44 -45 24 -63 27 -168 31 -116 4 -119 4 -183 -28 -36 -17 -72 -40 -82
-50 -9 -9 -27 -21 -39 -24 -22 -7 -23 -5 -23 43 l0 51 -240 0 -240 0 -6 -27
c-4 -15 -13 -38 -20 -52 -8 -14 -14 -32 -14 -39 0 -21 -40 -135 -56 -159 -13
-21 -22 -23 -109 -23 -91 0 -94 1 -113 28 -11 15 -23 42 -27 59 -3 18 -11 35
-16 38 -5 4 -9 14 -9 23 0 9 -6 29 -14 43 -7 14 -16 39 -20 55 -14 53 -16 54
-192 54 -163 0 -164 0 -164 -22 0 -13 7 -36 15 -52 8 -15 15 -33 15 -38 0 -6
6 -24 14 -41 8 -18 20 -50 26 -71 18 -56 1 -66 -117 -66 -93 0 -94 0 -104 27
-6 16 -9 79 -8 141 1 64 -2 117 -7 122 -7 7 -138 9 -355 8 l-344 -3 -3 -45
c-4 -69 -7 -73 -39 -53 -16 10 -30 20 -33 24 -6 8 -62 33 -120 55 -38 14 -101
17 -398 21 -194 3 -368 2 -387 -1 l-34 -7 -3 -147 -3 -147 -86 -3 c-63 -2 -89
1 -97 11 -7 8 -13 68 -14 153 l-3 139 -590 0 -590 0 -5 -155 -5 -155 -49 -7
c-26 -4 -58 -3 -70 2 -12 4 -43 39 -68 76 -61 91 -142 205 -161 225 -13 15
-64 17 -465 18 l-450 2 -26 -28 c-14 -15 -26 -31 -26 -34 0 -8 -146 -227 -168
-252 -13 -15 -29 -17 -86 -15 l-71 3 -2 152 c-1 84 -4 157 -7 162 -7 11 -307
14 -325 2 -10 -7 -13 -30 -9 -100 5 -110 -2 -114 -79 -42 -60 55 -148 101
-243 127 -55 15 -120 18 -441 22 l-376 4 -22 -29z m8051 -54 c108 -23 181 -96
207 -207 19 -79 15 -83 -76 -80 -77 3 -77 3 -83 33 -11 51 -38 83 -86 99 -57
19 -97 7 -141 -42 -40 -43 -45 -98 -13 -142 19 -26 131 -90 158 -90 29 0 147
-66 185 -103 69 -68 82 -104 82 -222 0 -114 -12 -148 -75 -219 -52 -57 -97
-82 -177 -96 -157 -28 -297 39 -358 174 -30 65 -39 120 -25 146 10 18 19 21
78 18 l66 -3 23 -64 c12 -35 34 -74 48 -87 28 -26 96 -40 147 -29 96 21 146
158 86 237 -25 33 -53 47 -218 115 -96 39 -151 84 -183 153 -31 63 -31 186 -1
250 63 132 199 192 356 159z m1124 0 c32 -5 73 -17 91 -25 17 -7 34 -14 37
-14 12 0 111 -67 141 -96 62 -59 102 -124 146 -234 21 -53 18 -305 -4 -345 -9
-16 -17 -33 -17 -37 0 -4 -14 -31 -32 -60 -114 -192 -329 -292 -550 -258 -45
7 -93 19 -107 26 -14 8 -30 14 -34 14 -15 0 -112 68 -149 104 -79 77 -140 185
-152 267 -4 26 -13 55 -21 65 -13 17 -14 -10 -15 -211 0 -126 -4 -236 -9 -243
-5 -9 -29 -12 -82 -10 l-74 3 0 520 0 520 74 3 c53 2 77 -1 82 -10 5 -7 9
-113 9 -235 0 -131 4 -223 9 -223 10 0 16 15 26 70 19 103 63 180 149 265 126
123 303 176 482 144z m-8940 -12 c7 -6 16 -949 10 -981 l-7 -37 -87 3 -87 3
-2 120 c-4 183 12 166 -156 163 l-142 -3 -60 -82 c-33 -45 -80 -110 -103 -143
l-44 -60 -104 0 c-116 0 -121 3 -81 61 97 140 129 185 177 253 73 102 142 198
160 225 8 13 42 60 75 106 33 46 87 123 120 170 160 228 148 218 255 210 41
-3 75 -7 76 -8z m618 -18 c189 -61 310 -220 331 -435 8 -79 -8 -209 -31 -252
-7 -15 -14 -33 -14 -40 0 -23 -70 -120 -108 -151 -60 -47 -142 -86 -217 -104
-93 -22 -456 -25 -474 -3 -8 9 -10 151 -9 507 l3 493 23 6 c13 3 116 3 230 2
170 -3 217 -7 266 -23z m550 21 l26 -10 0 -344 c0 -272 3 -344 13 -340 6 2 35
41 62 85 28 44 55 86 60 92 6 7 22 30 35 52 13 22 28 45 33 50 4 6 67 99 139
208 76 115 140 202 152 206 12 4 147 6 300 4 209 -2 282 -6 288 -16 10 -14 5
-113 -6 -124 -4 -5 -87 -10 -184 -13 l-177 -5 0 -130 0 -130 177 -5 c97 -3
180 -8 184 -13 12 -12 16 -111 5 -127 -8 -12 -44 -16 -191 -18 l-180 -3 0
-138 c0 -135 1 -139 23 -145 12 -3 92 -6 178 -6 107 0 159 -4 167 -12 15 -15
16 -92 2 -119 -10 -18 -24 -19 -258 -19 -180 0 -251 3 -260 12 -9 9 -12 111
-12 398 0 213 -3 390 -7 393 -3 4 -27 -26 -52 -67 -25 -41 -71 -114 -101 -163
-30 -48 -58 -92 -63 -98 -9 -11 -81 -122 -167 -259 -30 -48 -73 -115 -96 -149
l-40 -62 -105 0 -104 0 -8 440 c-4 242 -6 469 -5 505 l3 65 40 6 c65 10 102
10 129 -1z m1366 -24 c8 -11 29 -41 47 -66 18 -25 57 -81 87 -125 30 -44 74
-107 97 -140 23 -33 56 -80 73 -105 17 -24 34 -49 39 -55 4 -5 31 -43 60 -84
l52 -73 5 333 5 333 35 8 c19 4 54 5 78 2 l42 -5 -2 -507 -3 -507 -77 -3 c-75
-3 -78 -2 -95 25 -10 15 -20 30 -23 33 -3 3 -17 23 -30 45 -13 22 -51 83 -85
135 -34 52 -79 123 -101 158 -40 64 -106 167 -184 288 l-45 69 -5 -375 -5
-375 -75 0 -75 0 -3 507 -2 507 47 4 c77 6 126 -3 143 -27z m1148 24 l112 0 0
-62 c0 -35 -4 -68 -8 -75 -5 -7 -40 -13 -92 -15 l-85 -3 -5 -430 -5 -430 -75
0 -75 0 -5 430 -5 430 -85 3 c-46 2 -90 8 -97 14 -10 8 -13 30 -11 72 4 74 -2
72 186 69 75 -1 188 -2 250 -3z m304 4 l37 -6 3 -377 c3 -404 2 -390 57 -453
13 -15 46 -35 73 -44 46 -15 54 -15 103 0 29 10 62 27 73 39 47 52 47 53 52
452 l5 380 43 9 c26 6 58 6 80 0 l37 -9 3 -330 c4 -451 -6 -513 -98 -605 -48
-48 -105 -75 -187 -90 -152 -26 -297 42 -369 172 l-29 53 -3 398 -3 397 23 9
c28 12 51 13 100 5z m1137 -22 c67 -21 128 -74 166 -143 28 -51 30 -60 30
-169 0 -109 -1 -117 -29 -160 -49 -77 -121 -128 -203 -145 -18 -4 -33 -9 -33
-11 0 -2 59 -83 131 -179 72 -96 128 -179 124 -185 -9 -15 -168 -13 -187 3 -9
6 -37 44 -64 82 -74 108 -88 129 -99 141 -5 6 -17 22 -25 34 -8 13 -33 48 -56
79 -22 31 -43 65 -47 75 -18 47 -27 -14 -29 -209 l-3 -210 -75 0 -75 0 -3 500
c-2 421 0 502 12 510 24 18 401 8 465 -13z m659 19 l163 -1 -3 -72 -3 -73
-190 -5 -190 -5 0 -130 0 -130 190 -5 190 -5 3 -69 c2 -49 -1 -72 -10 -78 -7
-4 -89 -8 -183 -8 -93 1 -176 1 -183 0 -10 0 -12 -32 -10 -142 l3 -143 193 -3
193 -2 -3 -73 -3 -72 -270 0 -270 0 -3 500 c-2 422 0 502 12 510 8 6 57 10
113 9 54 -2 171 -3 261 -3z m690 -23 c13 -28 45 -111 112 -293 74 -201 93
-249 102 -259 4 -6 8 -17 8 -25 0 -9 6 -28 14 -43 8 -15 17 -40 21 -57 11 -50
39 -33 51 30 4 19 10 39 14 44 4 6 11 26 15 45 4 19 11 40 15 45 4 6 11 26 15
45 4 19 11 40 15 45 4 6 11 25 15 43 4 18 13 45 21 60 8 15 14 34 14 42 0 8
22 78 49 155 l48 140 169 0 169 0 0 -520 0 -520 -80 0 -80 0 -3 478 c-2 438
-7 527 -27 455 -12 -47 -128 -404 -135 -418 -4 -9 -11 -31 -15 -50 -4 -19 -11
-39 -15 -45 -4 -5 -11 -26 -15 -45 -4 -19 -11 -39 -15 -45 -4 -5 -11 -26 -15
-45 -4 -19 -11 -41 -15 -50 -5 -8 -18 -46 -30 -85 -12 -38 -29 -89 -38 -112
l-17 -43 -85 0 -85 0 -17 33 c-9 17 -26 61 -38 97 -12 36 -26 73 -31 82 -5 10
-9 23 -9 29 0 6 -6 25 -14 42 -8 18 -24 61 -35 97 -12 36 -26 74 -30 85 -5 11
-19 49 -31 85 -12 36 -26 73 -31 82 -5 10 -9 23 -9 29 0 6 -6 25 -14 42 -8 18
-24 61 -35 97 -12 36 -26 74 -31 85 -21 48 -50 147 -45 156 4 5 41 9 84 9 71
0 79 -2 89 -22z m3134 -22 c18 -24 40 -54 48 -66 8 -12 20 -28 25 -34 6 -6 34
-47 64 -91 65 -96 158 -232 180 -261 9 -12 22 -30 28 -40 49 -74 96 -134 104
-134 5 0 9 123 9 313 0 171 3 322 6 335 6 20 12 22 85 22 l79 0 -2 -522 -3
-523 -81 -3 -81 -3 -25 38 c-41 62 -132 205 -158 248 -13 22 -27 42 -30 45 -4
3 -31 45 -61 94 -30 48 -61 99 -69 111 -8 13 -28 45 -44 72 -16 26 -33 50 -37
53 -4 3 -17 24 -29 48 -12 23 -26 42 -31 42 -5 0 -10 -164 -11 -372 l-3 -373
-85 0 -85 0 -3 510 c-1 281 0 516 3 523 3 8 31 12 89 12 l85 0 33 -44z"/>
<path d="M10697 5965 c-75 -16 -121 -40 -177 -92 -41 -38 -59 -66 -101 -157
-9 -18 -14 -66 -14 -131 0 -65 5 -113 14 -131 43 -94 61 -120 102 -158 25 -22
68 -52 95 -66 44 -22 61 -25 159 -24 98 1 115 4 160 27 204 105 274 371 149
569 -57 90 -133 141 -244 164 -74 16 -67 16 -143 -1z"/>
<path d="M1704 5758 c-21 -35 -42 -67 -47 -73 -31 -38 -84 -131 -78 -138 4 -4
46 -7 92 -5 l84 3 3 129 c1 71 -1 133 -6 138 -6 6 -25 -16 -48 -54z"/>
<path d="M2208 5954 c-5 -4 -8 -164 -8 -355 l0 -349 26 -6 c43 -11 235 5 284
23 48 17 140 79 140 93 0 5 7 16 16 24 61 61 73 280 21 387 -31 63 -93 126
-158 160 -38 19 -64 23 -179 27 -74 2 -138 0 -142 -4z"/>
<path d="M6744 5947 c-2 -7 -3 -87 -2 -177 l3 -165 89 -3 c106 -3 170 15 221
65 56 54 60 153 9 220 -44 57 -88 73 -209 73 -77 0 -107 -3 -111 -13z"/>
<path d="M8041 6063 c-1 -67 1 -73 19 -73 28 0 34 22 17 62 -8 18 -19 44 -25
58 -9 21 -11 13 -11 -47z"/>
</g>
</svg>
