<svg enable-background="new 0 0 3839 445.5" version="1.1" viewBox="0 0 3839 445.5" xml:space="preserve" xmlns="http://www.w3.org/2000/svg">
<path d="m3156.1992 0c-39.3999 0-78 10.399239-112 30.199219v-9.199219-15.1992188h-15.1992-143.4004-15.1992v3.1992188c-17-5.8999941-34.9996-8.900390625-53.5996-8.900390625-18.8 0-36.9016 3.199615825-54.1016 9.599609425v-3.8984376h-15.1992-186.3008-11.0996l-3.2988 10.5996098-29.8008 94.099609h-2.5996l-33.0996-94.5-3.6016-10.1992188h-10.7988-404.3008-15.1992v8.4999998c-19.2-5.6999941-40.8-8.4999997-64.5-8.4999998h-642.8008-15.1992v15.1992188 61.699219l-44.7012-69.898438-4.5-6.9999998h-8.2988-305.50001-7.90039l-4.5 6.4999998-62.90039 89.898439v-81.298829-15.0996098h-15.19922-143.40039-15.19922v15.1992188 13.400391c-32.99997-18.999981-72.30043-28.5996098-116.90039-28.5996098h-214.40039-8l-4.5 6.5996098-65.80078 95.900389h-128-8l-4.5 6.59961-146.398439 213.09961-16.300781 23.80078h28.800781 107.199219l-44.099609 64.19922-16.300782 23.69922h28.800781 174.29883 8l4.5-6.59961 56.90039-83.19922h5.09961v74.59961 15.19922h15.20117 225.90039c45.79996 0 84.69964-9.19924 118.59961-28.19922v13 15.19922h15.09961 127.09961 7.90039l4.5-6.5 58.40039-83.69922h15.5v75 15.19922h15.19922 329.49999 15.2012v-15.19922-65.5l47.0996 73.69922 4.5 7h8.2988 258.2012 15.1992v-15.19922-28c2.2 2.3 4.6004 4.49961 6.9004 6.59961 30.6 27.29997 71.2008 42.40039 114.3008 42.40039 23.9 0 46.9996-4.59923 68.5996-13.69922v8h15.1992 469.8008 15.1992v-15.20117-75h92.5l29.3008 80.20117 3.5996 10h10.5996 118.4004 11 14.6992 143.4004 15.2012v-3.20117c17.1 5.89999 35.2996 8.90039 54.0996 8.90039 18.6 0 36.5996-2.89962 53.5996-8.59961v2.90039h15.1992 142.8008 15.1992v-15.20117-9.19922c34 19.69998 72.6001 30.19922 112 30.19922 39.4 0 78.1001-10.39963 112-30.09961v9.09961 15.20117h15.2012 143.4004 15.1992v-15.20117-65.5l47.0996 73.70117 4.5 7h8.3008 122.5996 15.1992v-15.20117-72.79883h24.3008 8l4.5-6.60156 146.1992-213.19922 16.3008-23.69922h-28.8008-170.5996v-87.400389-15.0996098h-15.1992-143.4004-15.1992v15.1992188 61.699219l-44.7012-69.798828-4.5-7.0000004h-8.2988-125.1016-15.1992v15.1992184 8.400391c-33.4-19.399981-72.0008-29.5-111.8008-29.5zm-339.2988 15.099609c18.2 0 35.7992 3.200397 52.1992 9.400391l16.5996 6.300781v-9.90039h143.3008v14.298828 21.90039l18.6992-11.5c32.7-19.89998 70.2001-30.40039 108.5-30.40039 38.8 0 76.3016 10.301191 108.6016 29.701172l18.5996 11.199218v-21.798828-13.40039h125.0996l50 78.199218 16.9004 26.500001h5.6992v-33.09961-71.599609h143.4004v90.199219 12.30078h12.3008 173.5l-146.3008 213.19922h-27.1992-12.3008v12.30078 75.69922h-122.5996l-57.7012-90.19922h-17.3984v90.19922h-143.4004v-14.19922-21.90039l-18.7012 11.40039c-32.5999 19.89998-70.1 30.40039-108.5 30.40039-38.2999 0-75.9-10.60158-108.5-30.60156l-18.6992-11.5v21.90039 14.30078h-143.4004v-9.30078l-16.5 6c-16.5 5.99999-34.0988 9.09961-52.2988 9.09961-18.4 0-36.1016-3.19844-52.6016-9.39844l-16.5996-6.20117v9.80078h-143.4004v-1.30078-76.40039l-23.8984 72.60156-1.7012 5.09961h-118.4004l-30-82.09961-2.8984-8.10156h-8.6016-97.3984-12.3008v12.30078 77.90039h-300l-4.0996-5.80078-22.3008-31.29883v37.09961h-143.4004v-16.20117l-17.2988 7.80078c-20.8 9.39999-43.1004 14.19922-66.4004 14.19922-39.4 0-76.3992-13.70003-104.1992-38.5-3.7-3.3-7.4012-6.89922-10.7012-10.69922l-21.4004-23.80078v32 35.30078h-258.1992l-57.6992-90.19922h-17.4004v90.19922h-329.30079v-90.19922h-38.59961l-62.90039 90.19922h-127.09961v-18-21.5l-18.5 11c-32.59997 19.19998-70.29926 28.59961-115.19922 28.59961h-226v-77.5-12.29883h-12.30078-9.5-6.5l-3.69922 5.29883-57.70117 84.40039h-174.19922l47.19922-68.80078 13.20117-19.19922h-23.30078-112.699219l146.298829-213.19922h129.5 6.5l3.70117-5.30078 66.69922-97.199219h214.5c43.79996 0 81.90042 9.698457 113.40039 28.898438l18.59961 11.601562v-21.90039-18.5h143.40039v104.699219h17.19922l73.30078-104.699219h305.90041l50 78.199218 16.8984 26.500001h5.7012v-33.09961-71.599609h642.7988c23.6 0 45.1016 3.000006 63.6016 9l16 5.099609v-14.099609h404.2988l36.5996 104.699219h24.5l33.1016-104.699219h186.2988v11l16.9004-6.800782c16.5-6.599993 34.1004-10 52.4004-10zm0.0996 15.201172c-33.2 0-62.9004 12.698458-84.4004 33.398438v-27.59961h-41.5996-71.4004-47l-33.0996 104.701171h-46.3008l-36.5996-104.701171h-121.7988l38.1992 104.701171h-79v-104.701171h-216v26.5c-23.4-17.799982-54.5008-26.5-94.8008-26.5h-91.0996-37.5996-75.5v104.701171h-46.8008v-104.701171h-69.6992-43.4004-150.6992-36-77.0996v104.701171h-29.1016l-66.8984-104.701171h-71.7012-29.9004-50.2988-139.70118l-70.89844 104.701171h-40.60156v-104.701171h-113v63.800782c-32.99997-41.699959-83.69889-63.800782-147.29883-63.800782h-99.40039-33.80078-73.29883l-71.90039 104.701171h-136l-122.400391 178.5h136.000001l-28.5 41.59961-33.40039 48.59961h137.60156l61.39844-89.80078h51.40039v89.80078h79.30078 33.79883 97.70117c59.49994 0 106.29887-17.69965 143.29883-54.09961 2-2 3.80156-3.99961 5.60156-6.09961v60.19922h104.09961l62.90039-90.19922h61.59961v90.19922h186.09961 29.9004 83.0996v-90.19922h40.8008l57.6992 90.19922h99.1992v-90.19922h22.5v90.19922h113v-90.19922h20.4004c6.5 24.49998 19 45.19885 37 61.29883 25 22.39998 58.3997 34.70117 94.0996 34.70117 35.7 0 69.1-12.30158 94-34.60156 1.7-1.5 3.2008-3.19883 4.8008-4.79883v33.69922h113.0996v-69.40039l49.4004 69.40039h61 80.9004 135.0996v-90.19922h144l32.9004 90.19922h96.7988l29.7012-90.19922h22v90.19922h113v-24.09961c22.1 18.89998 51.2004 29.90039 84.4004 29.90039 32.9999 0 61.9984-10.60041 83.8984-28.90039v23.09961h113v-57c35.3 38.49996 86.0009 62.70117 142.3008 62.70117s107.0008-24.10004 142.3008-62.5v56.69922h113v-90.19922h40.7988l57.7012 90.19922h99.1992v-90.19922h47.5996l122.5-178.5h-169.7988v-104.701171h-113.1016v104.701171h-29.0996l-66.9004-104.701171h-101.6992v55.900391c-35-38.099962-85.4008-61.599609-142.3008-61.599609-56.2999 0-106.9988 24.199257-142.2988 62.699218v-57h-113v25c-21.4-19.29998-50.4004-30.798828-83.9004-30.798828zm339.1992 34.199219c88.9999 0 158.6016 70.40009 158.6016 159 0 86.99991-71.7017 157.40039-158.6016 157.40039-87.2999 0-158.5996-70.80126-158.5996-158.20117 0-88.09991 70.7997-158.19922 158.5996-158.19922zm-339.2988 0.099609c50.6999 0 87.2988 33.400833 87.2988 84.800781h-44.5c0-26.39997-16.4988-44.09961-42.7988-44.09961-22.2 0-40.8008 19.39963-40.8008 41.59961 0 64.69994 134.3008 25.89934 134.3008 141.69922 0 54.79994-39.1001 92.30078-93.5 92.30078-55.6 0-93.9004-40.80005-93.9004-96h44.5c0 29.69997 17.3004 55.19922 49.4004 55.19922 30.5 0 49-21.80003 49-51.5 0-32.49997-23.5-39.99884-49-49.79883-47.4-18.09998-85.3008-32.10045-85.3008-91.40039 0-47.39995 38.7008-82.800781 85.3008-82.800781zm-2409.4004 5.800782h54.80078v304.699219h-44.5v-89.79883h-103.80078l-61.40039 89.79883h-54.40039l209.30078-304.699219zm89.59961 0h98.80078c48.99995 0 95.10042 14.800041 124.40039 55.999999 19.79998 27.59997 31.29883 62.99925 31.29883 97.19922 0 35.39996-12.79885 81.90002-38.29883 107.5-33.39997 32.89997-73.30004 44.09961-119 44.09961h-97.20117v-304.798829zm280.30078 0h44.5v240.900389h0.79883l163.20117-240.900389h20.19921 35.8008 111.5996v40.699219h-103v89.80078h103v40.79883h-103v92.70117h103v40.79883h-147.5v-253.39844l-176.69922 253.29883h-51.90039v-304.699219zm414.79881 0h48.6016l148.1992 231.798829h0.8008v-231.798829h44.5v304.699219h-46.1016l-150.6992-235.59961h-0.8008v235.59961h-44.5v-304.699219zm274.7012 0h161.4004v40.699219h-58.4004v264h-44.5v-264h-58.5v-40.699219zm186.5996 0h44.5v205.099609c0 36.19996 19.7993 64.69922 57.6992 64.69922 37.9 0 57.7012-28.39926 57.7012-64.69922v-205.099609h44.5v206.298829c0 29.69997-8.2004 58.1008-30.9004 78.30078-19.4 17.29998-45.3008 25.90039-71.3008 25.90039-25.9 0-51.8988-8.60041-71.2988-25.90039-22.7-20.19998-30.9004-48.60081-30.9004-78.30078v-206.298829zm235.4004 0h94.2988c28.8 0 59.7016 4.500021 81.1016 25.5 19.4 18.499979 28 45.699639 28 72.099609 0 41.19996-18.1012 73.69923-57.7012 87.69922-9.1 3.3-19.7992 5.80078-29.6992 5.80078l85.4004 113.59961h-55.6016l-100.5-141.29883h-0.7988v141.29883h-44.5v-304.699219zm223.2988 0h147.5v40.699219h-103v89.80078h103v40.79883h-103v92.70117h103v40.79883h-147.5v-304.798829zm271.5 0h48.4004l86.9004 248.298829 78.5996-248.298829h45.9004l-100.5 304.699219h-48l-111.3008-304.699219zm270.1016 0h44.5v304.699219h-44.5v-304.699219zm281.2988 0h44.5v304.699219h-44.5v-304.699219zm397.8008 0h48.5996l148.3008 231.900389h0.7988v-231.900389h44.5v304.699219h-0.0996-46.0996l-150.7012-235.59961h-0.7988v235.59961h-44.5v-304.699219zm-176.7012 34.999999c-47.3999 0-84.7984 25.49887-103.3984 68.79883-6.6 15.19998-10.7012 31.70158-10.7012 48.60156s4.1012 33.79845 10.7012 49.39844c18.9 42.79996 56.3985 68 103.3984 68 50.2 0 89.0008-28.79849 106.3008-75.39844 4.9-12.79999 7.8008-26.80079 7.8008-40.80078 0-64.69994-47.8016-118.59961-114.1016-118.59961zm-2614.6992 5.69922v223.20117h53.09961c69.19993 0 112.40039-40.40085 112.40039-110.80078 0-15.69998-3.29962-31.70001-9.09961-46.5-17.99998-43.99996-55.40044-65.90039-102.40039-65.90039h-54zm1391.8008 0v116.59961h30.5c39.4999 0 84-11.09927 84-59.69922 0.1-38.69996-32.1001-56.90039-67.5-56.90039h-47zm-1516.3008 16.90039-75 116.59961h75.80078v-116.59961h-0.80078z"/>
</svg>
