<?xml version="1.0" encoding="utf-8"?>
<!-- Generator: Adobe Illustrator 25.0.0, SVG Export Plug-In . SVG Version: 6.00 Build 0)  -->
<svg version="1.1" id="Layer_1" xmlns="http://www.w3.org/2000/svg" xmlns:xlink="http://www.w3.org/1999/xlink" x="0px" y="0px"
	 viewBox="0 0 3840 1737.4" style="enable-background:new 0 0 3840 1737.4;" xml:space="preserve">
<style type="text/css">
	.st0{fill:#FFFFFF;}
</style>
<g>
	<g>
		<path d="M1152.5,700.4c-97.2,89.5-320.9,77.1-444.3,77.1h-395v251.5H0V0h705.1c57.1,0,112.6,0,169.7,1.5
			c100.3,1.5,214.5,12.3,290,86.4c71,69.4,71,222.2,71,313.2C1235.8,498.3,1229.6,629.5,1152.5,700.4z M780.7,259.2
			c-24.7,0-50.9-1.5-75.6-1.5H313.2v262.3h465.9c120.3,0,141.9-21.6,141.9-140.4C921.1,266.9,880.9,260.7,780.7,259.2z"/>
		<path d="M1322.2,1029.1V0h1138.6v242.2h-830v149.7h788.4v225.3h-788.4v165.1h836.2v246.9H1322.2z"/>
		<path d="M3381.8,262.3v766.8h-328.6V262.3h-458.2V0H3840v262.3H3381.8z"/>
	</g>
	<g>
		<path d="M83.8,1731.1c0-13.4-1-27.2-1-40.6c0-27.8-0.5-55.5,4.1-82.8c9.3-57.1,58.6-64.2,107.9-68.4l129.5-10.3
			c16.4-1.5,34.4-1.5,50.4-7.2c14.9-5.1,14.9-13.9,14.9-28.3c0-9.8,0-20.6-8.7-26.7c-12.9-9.8-68.4-7.2-83.3-7.2
			c-31.4,0-65.3-1.5-96.6,3.6c-23.6,3.6-21.1,20.6-21.1,41.1v11.3H78.6v-13.9c0-28.3,0.5-67.3,21.6-89.4
			c23.6-24.7,76.1-25.7,107.4-27.2c22.1-1,44.2-1,66.3-1h9.8l84.8,0.5c32.9,0,75,0.5,99.7,25.7c19,19.5,19,58.6,19,83.8
			c0,25.7-0.5,52.9-14.9,75.6c-19,30.3-73,34.4-104.9,36.5c-24.7,1.5-48.8,3.1-73.5,4.6c-19.5,1-39.1,2.6-58.6,4.1
			c-8.7,0.5-30.8,2.1-39.1,5.1c-16.4,6.2-16.4,17.5-16.4,32.4h313v78.6H83.8z"/>
		<path d="M865,1729.1c-41.1,6.7-96.6,6.2-138.3,6.2c-25.7,0-50.9-0.5-76.6-1c-56.5-1-122.3-3.1-134.7-71.4
			c-5.7-31.9-4.1-70.4-4.1-102.8c0-20.6,0-40.6,0.5-61.2c0.5-28.8,2.6-61.7,23.6-83.8c13.9-14.4,33.4-21.6,52.9-24.7
			c41.1-6.7,96.1-6.2,138.3-6.2c25.2,0,50.9,1,76.1,1.5c87.9,2.1,138.8,11.3,138.8,113.1v122.3
			C941.6,1678.2,927.2,1718.8,865,1729.1z M815.2,1479.8c-11.8-5.1-29.3-5.7-42.1-5.7c-20.6,0-41.1-0.5-62.2-0.5s-44.2-0.5-64.8,4.1
			c-6.2,1.5-12.3,3.6-17,8.7c-13.9,14.4-12.9,55-12.9,73.5c0,17-1,57.1,10.8,70.9c5.1,6.2,11.3,8.7,19,10.8
			c22.1,5.1,58.6,5.1,81.7,4.6l45.2-1c12.9-0.5,30.3-0.5,42.1-6.2c25.7-11.3,22.1-56.5,22.1-79.2
			C837.3,1537.4,840.9,1491.6,815.2,1479.8z"/>
		<path d="M1318.9,1729.1c-41.1,6.7-96.6,6.2-138.3,6.2c-25.7,0-50.9-0.5-76.6-1c-56.5-1-122.3-3.1-134.7-71.4
			c-5.7-31.9-4.1-70.4-4.1-102.8c0-20.6,0-40.6,0.5-61.2c0.5-28.8,2.6-61.7,23.6-83.8c13.9-14.4,33.4-21.6,52.9-24.7
			c41.1-6.7,96.1-6.2,138.3-6.2c25.2,0,50.9,1,76.1,1.5c87.9,2.1,138.8,11.3,138.8,113.1v122.3
			C1395.5,1678.2,1381.1,1718.8,1318.9,1729.1z M1269,1479.8c-11.8-5.1-29.3-5.7-42.1-5.7c-20.6,0-41.1-0.5-62.2-0.5
			s-44.2-0.5-64.8,4.1c-6.2,1.5-12.3,3.6-17,8.7c-13.9,14.4-12.9,55-12.9,73.5c0,17-1,57.1,10.8,70.9c5.1,6.2,11.3,8.7,19,10.8
			c22.1,5.1,58.6,5.1,81.7,4.6l45.2-1c12.9-0.5,30.3-0.5,42.1-6.2c25.7-11.3,22.1-56.5,22.1-79.2
			C1291.1,1537.4,1294.7,1491.6,1269,1479.8z"/>
		<path d="M1587.2,1731.1v-253.4h-26.7l-101.3,85.3l-57.6-67.3l124.9-107.4h165.5v342.8H1587.2z"/>
		<path d="M2235.3,1709c-24.7,26.7-78.6,25.7-112,26.2c-26.7,1-53.5,1-80.2,1c-44.7,0-98.7,1.5-142.4-8.2
			c-16.4-3.6-30.8-10.3-42.7-22.1c-17.5-17-19.5-39.1-19.5-62.2c0-8.7,0.5-17.5,1-26.2h100.7c0,7.7,0,14.9,2.6,22.1
			c1.5,4.6,3.6,7.7,7.7,10.8c9.8,7.7,39.1,6.7,50.4,6.7c14.9,0,29.3,0.5,44.2,0.5c18.5,0,36.5-0.5,55-0.5c12.9,0,45.2,1.5,54-10.8
			c3.6-5.7,3.6-13.4,3.6-19.5c0-26.2-20.6-25.2-41.6-25.7c-55-1.5-110-4.6-165-6.7c-29.8-1-67.8-2.1-89.4-26.2
			c-18-20-19.5-48.8-19.5-74.5c0-61.2,15.9-99.7,81.7-106.4c44.2-4.6,89.9-4.1,134.7-4.1c43.2,0,88.9-1,131.1,9.3
			c46.8,11.8,56.5,42.7,56.5,87.4v16.4h-101.3v-5.1c0-9.8-1-17-9.8-22.6c-9.8-6.7-32.9-6.2-44.2-6.2H2002c-10.8,0-41.1-0.5-50.4,6.2
			c-6.7,4.6-8.2,12.8-8.2,20.6c0,6.2,1.5,14.4,6.7,18.5c3.6,3.1,8.7,4.1,13.4,4.6c11.8,2.1,24.2,2.1,36,2.6
			c23.1,1,46.3,2.1,69.4,2.6c39.6,1,96.1,0.5,134.7,10.8c12.3,3.6,23.1,8.7,32.9,17.5c21.1,18.5,22.1,54,22.1,79.7
			C2258.5,1654,2255.9,1686.9,2235.3,1709z"/>
		<path d="M2616.2,1629.4h-237.5c0,13.9-0.5,29.8,11.3,39.6c12.3,9.8,46.8,10.3,61.7,10.3c14.9,0,56.5,0.5,66.3-10.3
			c4.1-4.1,5.1-9.8,6.2-15.4h90.5c-2.1,23.1-6.7,41.1-24.2,57.1c-31.4,28.3-106.4,26.7-146,26.7c-36,0-96.1,0.5-125.9-22.6
			c-9.3-7.2-15.4-15.4-20.6-25.7c-11.3-23.6-10.3-52.9-10.3-78.1c0-15.4,0-30.8,1.5-45.7c2.6-24.7,10.8-46.8,31.4-61.7
			c31.9-23.1,95.6-21.6,133.1-21.6c34.4,0,72-1,105.4,8.7c54,15.9,57.6,65.3,57.6,114.1C2616.7,1612.9,2616.7,1621.1,2616.2,1629.4z
			 M2525.2,1573.8c0-9.3-0.5-16.4-7.2-23.6c-10.8-11.8-47.8-11.8-62.7-11.8c-13.9,0-27.8,0-41.1,2.1c-25.7,3.6-34.9,13.4-35.5,39.1
			h146.5V1573.8z"/>
		<path d="M2928.7,1595.9h-85.3c0-36-11.8-45.7-47.8-45.7c-56,0-57.6,35.5-57.6,80.2v100.7h-91V1488h85.8v36.5h4.1
			c21.1-37.5,55-42.7,94.6-42.7c28.3,0,62.2,3.6,81.2,27.2c17,21.1,16.4,51.4,16.4,77.1C2929.2,1589.3,2928.7,1592.9,2928.7,1595.9z
			"/>
		<path d="M2941.1,1456.7v-68.4h91v68.4H2941.1z M2941.1,1731.1V1488h91v243.1H2941.1z"/>
		<path d="M3392.8,1629.4h-237.5c0,13.9-0.5,29.8,11.3,39.6c12.3,9.8,46.8,10.3,61.7,10.3c14.9,0,56.5,0.5,66.3-10.3
			c4.1-4.1,5.1-9.8,6.2-15.4h90.5c-2.1,23.1-6.7,41.1-24.2,57.1c-31.4,28.3-106.4,26.7-146,26.7c-36,0-96.1,0.5-125.9-22.6
			c-9.3-7.2-15.4-15.4-20.6-25.7c-11.3-23.6-10.3-52.9-10.3-78.1c0-15.4,0-30.8,1.5-45.7c2.6-24.7,10.8-46.8,31.4-61.7
			c31.9-23.1,95.6-21.6,133.1-21.6c34.4,0,72-1,105.4,8.7c54,15.9,57.6,65.3,57.6,114.1C3393.4,1612.9,3393.4,1621.1,3392.8,1629.4z
			 M3301.9,1573.8c0-9.3-0.5-16.4-7.2-23.6c-10.8-11.8-47.8-11.8-62.7-11.8c-13.9,0-27.8,0-41.1,2.1c-25.7,3.6-34.9,13.4-35.5,39.1
			h146.5V1573.8z"/>
		<path d="M3734.1,1710.6c-28.3,28.3-117.2,26.7-153.7,26.7c-39.6,0-109.5,3.1-141.3-25.2c-17.5-15.4-21.1-36-21.6-58.6h92.5
			c2.1,22.1,24.7,24.7,42.1,26.2c11.3,1,22.6,1,33.9,1c15.9,0,59.1,1,71.4-10.3c3.6-3.1,5.1-7.7,5.1-12.3c0-20-28.3-19-42.1-19
			c-17,0-33.9-0.5-50.9-0.5c-17.5,0-35,0-52.4,0c-54.5,0-97.7-12.9-97.7-75.6c0-38.5,15.4-64.2,54-73.5c35.5-8.2,77.6-7.7,113.6-7.7
			c38,0,104.3-2.6,134.1,22.1c15.9,13.4,18,33.4,19.5,52.9h-92.5c-1-5.1-2.1-8.7-6.7-11.8c-9.8-6.7-46.3-6.7-57.6-6.7
			c-14.9,0-55-0.5-67.8,8.2c-3.6,3.1-5.7,6.7-5.7,11.3c0,13.4,10.8,15.4,21.6,16.4c23.1,2.1,49.9,1.5,73,1.5l50.9,0.5
			c57.1,0.5,97.1,11.3,97.1,76.1C3753.2,1673,3749.6,1695.1,3734.1,1710.6z"/>
	</g>
</g>
</svg>
