<svg enable-background="new 0 0 3840 1737.4" version="1.1" viewBox="0 0 3840 1737.4" xml:space="preserve" xmlns="http://www.w3.org/2000/svg">
<path d="m0 0v1029h313.19922v-251.5h395c123.39988 0 347.10088 12.4003 444.30078-77.09961 77.0999-70.89993 83.3008-202.10088 83.3008-299.30078 0-90.99991-1e-4 -243.79929-71-313.199219-75.4999-74.099926-189.70012-84.9003925-290.00002-86.400391-57.09994-1.4999985-112.60123-1.5-169.70117-1.5h-705.09961zm1322.1992 0v1029.0996 0.0996h1144.8008v-246.89842h-836.1992v-165.10156h788.3984v-225.29883h-788.3984v-149.70117h830v-242.19922h-1138.6016zm1272.8008 0v262.30078h458.1992v766.79882h328.6016v-766.79882h458.1992v-262.30078h-1245zm-2281.80078 257.69922h391.90039c24.69997 0 50.89963 1.5 75.59961 1.5 100.1999 1.5 140.40078 7.7005 140.30078 120.40039 0 118.79988-21.60051 140.40039-141.90039 140.40039h-465.90039v-262.30078zm1711.66988 1125.49418c-33.8249 0.075-67.8187 0.6574-100.9687 4.1074-65.7999 6.7-81.7012 45.1985-81.7012 106.3984 0 25.7 1.5 54.5 19.5 74.5 21.6 24.1 59.6004 25.2012 89.4004 26.2012 55 2.1 110.0001 5.1992 165 6.6992 21 0.5 41.5996-0.4988 41.5996 25.7012 0 6.1 4e-4 13.8-3.5996 19.5-8.8 12.3-41.1 10.7988-54 10.7988-18.5 0-36.5 0.5-55 0.5-14.9 0-29.2992-0.5-44.1992-0.5-11.3 0-40.6004 1.0008-50.4004-6.6992-4.1-3.1-6.1992-6.2008-7.6992-10.8008-2.6-7.2-2.6016-14.3996-2.6016-22.0996h-100.6992c-0.5 8.7-1 17.4992-1 26.1992 0 23.1 2 45.2012 19.5 62.2012 11.9 11.8 26.2992 18.4996 42.6992 22.0996 43.7 9.7 97.7005 8.1992 142.4004 8.1992 26.7 0 53.5012 0 80.2012-1 33.3999-0.5 87.3 0.5008 112-26.1992 20.6-22.1 23.1988-55 23.2988-83.5 0-25.7-0.9996-61.1992-22.0996-79.6992-9.8-8.8-20.6004-13.9-32.9004-17.5-38.6-10.3-95.0992-9.8008-134.6992-10.8008-23.1-0.5-46.3004-1.5996-69.4004-2.5996-11.8-0.5-24.2-0.4996-36-2.5996-4.7-0.5-9.8004-1.5016-13.4004-4.6016-5.2-4.1-6.6992-12.3-6.6992-18.5 0-7.8 1.4992-15.9996 8.1992-20.5996 9.3-6.7 39.6004-6.1992 50.4004-6.1992h88.9004c11.3 0 34.3992-0.5008 44.1992 6.1992 8.8 5.6 9.8008 12.7996 9.8008 22.5996v5.1016h101.2988v-16.4004c0-44.7-9.7-75.6004-56.5-87.4004-42.1999-10.3-87.8996-9.3008-131.0996-9.3008-11.2 0-22.4555-0.0308-33.7305-0.0058zm-1750.96871 0.9062c-22.09998 0-44.2008 0-66.30078 1-31.29997 1.5-83.80041 2.5012-107.40039 27.2012-21.09998 22.1-21.599611 61.0984-21.599611 89.3984v13.9004h101.300781v-11.2988c0-20.5-2.50037-37.5016 21.09961-41.1016 31.29997-5.1 65.19964-3.5996 96.59961-3.5996 14.89998 0 70.40079-2.5988 83.30078 7.2012 8.69999 6.1 8.69922 16.8992 8.69922 26.6992 0 14.4-4.1e-4 23.2008-14.90039 28.3008-15.99999 5.7-33.99846 5.6992-50.39844 7.1992l-129.5 10.3008c-49.29995 4.2-98.600399 11.2985-107.900389 68.3984-4.599996 27.3-4.09961 55.0008-4.09961 82.8008 0 13.4 1 27.1996 1 40.5996v-0.0996h408.999999v-78.5996h-313c0-14.9-0.00154-26.2004 16.39844-32.4004 8.29999-3 30.40157-4.5996 39.10156-5.0996 19.49998-1.5 39.09963-3.0996 58.59961-4.0996 24.69998-1.5 48.80003-3.1016 73.5-4.6016 31.89997-2.1 85.90041-6.2 104.90039-36.5 14.39999-22.7 14.89844-49.8996 14.89844-75.5996 0-25.2-2e-5 -64.2988-19-83.7988-24.69998-25.2-66.79925-25.7012-99.69922-25.7012l-84.80078-0.5h-9.79883zm452.69922 0.0996c-42.19996 0-97.19887-0.4988-138.29883 6.2012-19.49998 3.1-39.0004 10.2992-52.90039 24.6992-20.99998 22.1-23.09961 55.0008-23.59961 83.8008-0.5 20.6-0.5 40.5992-0.5 61.1992 0 32.4-1.60038 70.9008 4.09961 102.8008 12.39999 68.2999 78.19928 70.4004 134.69922 71.4004 25.69997 0.5 50.89963 1 76.59961 1 41.69996 0 97.20082 0.4988 138.30078-6.2012 62.19994-10.3 76.6-50.9 76.5-108v-122.2988c0-101.7999-50.90087-111.0016-138.80078-113.1016-25.19998-0.5-50.89964-1.5-76.09961-1.5zm453.90039 0c-42.2 0-97.2008-0.4988-138.3008 6.2012-19.5 3.1-38.9984 10.2992-52.89842 24.6992-20.99998 22.1-23.10156 55.0008-23.60156 83.8008-0.5 20.6-0.5 40.5992-0.5 61.1992 0 32.4-1.59843 70.9008 4.10156 102.8008 12.39999 68.2999 78.19932 70.4004 134.69922 71.4004 25.7 0.5 50.8996 1 76.5996 1 41.7 0 97.2008 0.4988 138.3008-6.2012 62.1999-10.3 76.6-50.9 76.5-108v-122.2988c0-101.7999-50.9009-111.0016-138.8008-113.1016-25.2-0.5-50.8996-1.5-76.0996-1.5zm346 4.1016-124.9004 107.3984 57.5996 67.3008 101.3008-85.3008h26.6992v253.4004h104.8008v-342.7988h-165.5zm1414.5996 0v68.3984h91v-68.3984h-91zm-2246.33007 85.293c5.45468-0.025 10.85587 0.0058 16.13086 0.0058 21.09998 0 41.59924 0.5 62.19922 0.5 12.79999 0 30.29962 0.6012 42.09961 5.7012 25.69997 11.8 22.10039 57.6 21.90039 80 0 22.7 3.60036 67.8992-22.09961 79.1992-11.79999 5.7-29.19962 5.6992-42.09961 6.1992l-45.20117 1c-23.09998 0.5-59.59924 0.5004-81.69922-4.5996-7.69999-2.1-13.90001-4.5988-19-10.7988-11.79999-13.8-10.80078-53.9004-10.80078-70.9004 0-18.5-0.9996-59.1 12.90039-73.5 4.69999-5.1 10.80001-7.2012 17-8.7012 15.44998-3.45 32.30588-4.0305 48.66992-4.1054zm453.80077 0c5.4547-0.025 10.8539 0.0058 16.1289 0.0058 21.1 0 41.6012 0.5 62.2012 0.5 12.8 0 30.2996 0.6012 42.0996 5.7012 25.7 11.8 22.1004 57.6 21.9004 80 0 22.7 3.6004 67.8992-22.0996 79.1992-11.8 5.7-29.2016 5.6992-42.1016 6.1992l-45.1992 1c-23.1 0.5-59.5992 0.5004-81.6992-4.5996-7.7-2.1-13.9-4.5988-19-10.7988-11.8-13.8-10.8008-53.9004-10.8008-70.9004 0-18.5-0.9996-59.1 12.9004-73.5 4.7-5.1 10.8-7.2012 17-8.7012 15.45-3.45 32.3059-4.0305 48.6699-4.1054zm2453.8789 8.1425c-5.5078 0.0229-10.6992 0.0645-15.4492 0.0645-36 0-78.0996-0.5008-113.5996 7.6992-38.6 9.3-54 35-54 73.5 0 62.6999 43.1993 75.5996 97.6992 75.5996h52.4004c17 0 33.9004 0.5 50.9004 0.5 13.8 0 42.0996-1 42.0996 19 0 4.6-1.4996 9.2008-5.0996 12.3008-12.3 11.3-55.5004 10.2988-71.4004 10.2988-11.3 0-22.6004 0-33.9004-1-17.4-1.5-39.9996-4.0992-42.0996-26.1992h-92.5c0.5 22.6 4.0996 43.1996 21.5996 58.5996 31.8 28.3 101.7008 25.2012 141.3008 25.2012 36.5 0 125.3992 1.5988 153.6992-26.7012 15.5-15.5 19.1008-37.5988 18.8008-58.2988 0-64.8-39.9997-75.6016-97.0996-76.1016l-50.9004-0.5c-23.1 0-49.9 0.6-73-1.5-10.8-1-21.5996-2.9984-21.5996-16.3984 0-4.6 2.0992-8.2008 5.6992-11.3008 12.8-8.7 52.9008-8.1992 67.8008-8.1992 11.3 0 47.7996-8e-4 57.5996 6.6992 4.6 3.1 5.6992 6.7008 6.6992 11.8008h92.5c-1.5-19.5-3.6-39.5004-19.5-52.9004-26.075-21.6125-80.0957-22.324-118.6504-22.1641zm-770.9492 0.0645c-39.6 0-73.4996 5.1992-94.5996 42.6992h-4.0996v-36.5h-85.8008v243.0996h91v-100.6992c0-44.7 1.5997-80.2012 57.5996-80.2012 36 0 47.8008 9.7012 47.8008 45.7012h85.2988c0-3 0.5004-6.6008 0.4004-9.8008 0-25.7 0.5996-55.9996-16.4004-77.0996-19-23.6-52.8992-27.1992-81.1992-27.1992zm-392.9766 0.1797c-37.7507 0.0287-90.0113 1.4066-117.9238 21.6191-20.6 14.9-28.8004 37.0012-31.4004 61.7012-1.5 14.9-1.5 30.2992-1.5 45.6992 0 25.2-0.9992 54.4996 10.3008 78.0996 5.2 10.3 11.2996 18.5012 20.5996 25.7012 29.8 23.1 89.9004 22.5996 125.9004 22.5996 39.6 0 114.6 1.5988 146-26.7012 17.5-16 22.0992-33.9996 24.1992-57.0996h-90.5c-1.1 5.6-2.0992 11.3004-6.1992 15.4004-9.8 10.8-51.4008 10.3008-66.3008 10.3008s-49.3992-0.5008-61.6992-10.3008c-11.8-9.8-11.3008-25.6996-11.3008-39.5996h237.5c0.5-8.3 0.5-16.4996 0.5-24.5996 0-48.8-3.5996-98.2016-57.5996-114.1016-33.4-9.7-71.0004-8.6992-105.4004-8.6992-4.6875 0-9.7828-0.0236-15.1758-0.0195zm776.5996 0c-37.7507 0.0287-90.0113 1.4066-117.9238 21.6191-20.6 14.9-28.7984 37.0012-31.3984 61.7012-1.5 14.9-1.5 30.2992-1.5 45.6992 0 25.2-1.0012 54.4996 10.2988 78.0996 5.2 10.3 11.2996 18.5012 20.5996 25.7012 29.8 23.1 89.9004 22.5996 125.9004 22.5996 39.6 0 114.6 1.5988 146-26.7012 17.5-16 22.1012-33.9996 24.2012-57.0996h-90.5c-1.1 5.6-2.1012 11.3004-6.2012 15.4004-9.8 10.8-51.3988 10.3008-66.2988 10.3008s-49.4012-0.5008-61.7012-10.3008c-11.8-9.8-11.2988-25.6996-11.2988-39.5996h237.5c0.6-8.3 0.6-16.4996 0.5-24.5996 0-48.8-3.6016-98.2016-57.6016-114.1016-33.3999-9.7-70.9985-8.6992-105.3984-8.6992-4.6875 0-9.7848-0.0236-15.1778-0.0195zm-274.0234 6.0195v243.0996h91v-243.0996h-91zm-485.7988 50.4004c14.9 0 51.8992-0.0012 62.6992 11.7988 6.7 7.2 7.1992 14.3016 7.1992 23.6016v5.7988h-146.5c0.6-25.7 9.8-35.4996 35.5-39.0996 13.3-2.1 27.2016-2.0996 41.1016-2.0996zm776.6992 0c14.9 0 51.8992-0.0012 62.6992 11.7988 6.7 7.2 7.2012 14.3016 7.2012 23.6016v5.7988h-146.5c0.6-25.7 9.8-35.4996 35.5-39.0996 13.3-2.1 27.1996-2.0996 41.0996-2.0996z"/>
</svg>
