<svg viewBox="0 0 2170.9 269.29" xmlns="http://www.w3.org/2000/svg"><defs><clipPath id="a"><path d="M76.965 496.96h257.09v52.963H76.965V496.96z"/></clipPath></defs><g clip-path="url(#a)" fill="#fff" transform="matrix(9.2625 0 0 -9.2625 -824.25 4984.01)"><path d="M211.56 512.58a.535.535 0 0 0-.534-.531h-10.189a.532.532 0 0 0-.533.531v7.37c0 .293.237.53.533.53h10.189a.533.533 0 0 0 .534-.53v-7.37zm-.442 10.111h-10.375a2.73 2.73 0 0 1-2.722-2.726v-7.402a2.729 2.729 0 0 1 2.722-2.723h10.375a2.732 2.732 0 0 1 2.725 2.723v7.402a2.733 2.733 0 0 1-2.725 2.726M92.134 533.76v-9.524h-2.381v12.855h2.033l9.639-9.363v9.363h2.35v-12.855h-1.86l-9.781 9.524zm23.856 0v-9.524h-2.38v12.855h2.031l9.639-9.363v9.363h2.352v-12.855h-1.859l-9.783 9.524zm49.46 0v-9.524h-2.379v12.855h2.031l9.638-9.363v9.363h2.352v-12.855h-1.858l-9.784 9.524zm-56.01 3.33h.44v-12.854h-2.379v12.854h1.939zm34.4 0h.438v-2.211h-5.74v-10.643h-2.472v10.643h-5.736v2.211h13.51zm15.25 0h.446v-2.211h-10.201v-2.885h7.891v-2.211h-7.891v-3.333h10.201v-2.214H146.98v12.854h12.11zm31.23-10.64h-7.31v8.429h7.31c2.287 0 3.101-2.273 3.101-4.212 0-1.947-.814-4.217-3.101-4.217m3.905 8.762c-.929 1.226-2.307 1.878-3.973 1.878h-9.537v-12.855h9.537c1.666 0 3.044.651 3.973 1.878.871 1.143 1.334 2.713 1.334 4.554 0 1.831-.463 3.408-1.334 4.545m17.335-8.232a.534.534 0 0 0-.534-.529h-10.189a.531.531 0 0 0-.533.529v7.37a.53.53 0 0 0 .533.528h10.189a.533.533 0 0 0 .534-.528v-7.37zm-.442 10.112h-10.375a2.731 2.731 0 0 1-2.722-2.727v-7.404a2.73 2.73 0 0 1 2.722-2.724h10.375a2.732 2.732 0 0 1 2.725 2.724v7.404a2.734 2.734 0 0 1-2.725 2.727m77.342-21.862c2.469-.974 7.679-1.764 11.744-1.764 4.451 0 6.298 1.528 6.298 3.445 0 1.72-1.714 2.731-6.63 4.533-6.571 2.429-11.39 4.34-11.39 8.656 0 4.47 5.798 7.099 14.642 7.099 4.748 0 6.378-.3 9.395-.853l.021-4.241c-2.961.563-5.586 1.531-9.664 1.531-4.369 0-6.23-1.387-6.23-2.817 0-2.075 2.866-3.067 7.898-4.86 7.002-2.507 10.898-4.441 10.898-8.667 0-4.348-4.878-7.487-15.882-7.487-4.52 0-7.635.298-11.1.855v4.57zm-23.42 18.22h-5.236v-19.823h5.236c8.039 0 13.11 3.437 13.11 9.871 0 6.432-5.071 9.952-13.11 9.952m14.06-21.67c-2.593-1.173-7.491-1.917-11.777-1.917h-16.368v27.276h16.368c4.286 0 9.184-.754 11.779-1.924 6.304-2.846 8.362-7.401 8.362-11.717 0-4.319-2.039-8.867-8.364-11.718m-39.62 13.01s7.636 1.223 7.636 5.977c0 4.647-8.131 6.548-16.782 6.548-7.808 0-12.941-.954-12.941-.954v-4.222c3.544.857 6.933 1.587 11.553 1.587 4.958 0 8.742-1.479 8.742-3.569 0-2.52-3.742-3.959-11.795-3.959h-3.701v-3.799h3.438c8.483 0 13.307-1.276 13.307-4.39 0-2.78-4.31-4.469-9.684-4.469-4.686 0-8.973.998-12.45 1.963v-4.554c1.67-.287 6.101-1.177 14.354-1.177 9.142 0 17.097 2.94 17.097 8.122 0 4.346-5.511 6.896-8.774 6.896m78.19-11.21h-.861v.462h2.285v-.462h-.872v-2.563h-.552v2.563zm4.33-1.33c-.017.391-.04.862-.035 1.27h-.015a15.4 15.4 0 0 0-.358-1.158l-.445-1.311h-.422l-.403 1.293c-.117.386-.225.799-.305 1.176h-.009a67.808 67.808 0 0 0-.055-1.289l-.067-1.216h-.517l.203 3.026h.727l.396-1.216c.106-.355.202-.715.278-1.052h.014c.08.329.183.702.3 1.056l.416 1.212h.719l.176-3.026h-.539L322 512.25z"/></g></svg>