<svg enable-background="new 0 0 3839 468.5" version="1.1" viewBox="0 0 3839 468.5" xml:space="preserve" xmlns="http://www.w3.org/2000/svg">
<path fill="#929497" d="m2064.5 248.8h-176.5c-25.6 0-46.3 20.9-46.3 46.4v125.9c0 25.4 20.8 46.4 46.3 46.4h176.5c25.6 0 46.4-20.9 46.4-46.4v-125.9c-0.1-25.5-20.8-46.4-46.4-46.4m7.5 172c0 5-4.1 9.1-9.1 9.1h-173.3c-5.1 0-9.1-4.1-9.1-9.1v-125.4c0-5 4-9 9.1-9h173.3c5 0 9.1 4 9.1 9z"/><path d="m3629.4004 2.0996094c-150.3999 0-249.0996 44.7012476-249.0996 120.7011706 0 73.29993 81.9993 105.99887 193.6992 147.29883 83.6999 30.59997 112.9004 47.79964 112.9004 77.09961 0 32.59997-31.3997 58.5-107.0996 58.5-69.1999 0-157.7008-13.40002-199.8008-30h-0.1v77.80078c58.9999 9.49999 112.0005 14.5 188.9004 14.5 187.2002 0 270.1996-53.30086 270.1996-127.30078 0-71.89993-66.3005-104.79848-185.4004-147.39844-85.5999-30.49997-134.5-47.3016-134.5-82.60156 0-24.399977 31.7997-47.898439 106.0996-47.898439 69.3999 0 114.0005 16.40001 164.4004 26l-0.4004-72.201172c-51.3999-9.3999902-79.0989-14.4999996-159.7988-14.4999996zm-887.4004 0.8007812v464.0996094h278.4004c72.8999 0 156.1989-12.69963 200.2988-32.59961 107.5999-48.49995 142.3008-125.90046 142.3008-199.40039 0-73.39993-34.9993-150.90083-142.1992-199.300781-44.1-19.89998-127.4009-32.7988284-200.3008-32.7988284zm-2742 0.9003906v218.6992188h40.5v-162l166.40039 162h31.59961v-218.6992188h-40v159.1992188l-163.900391-159.1992188zm301.90039 0v218.6992188h40.5v-218.6992188h-7.5zm104 0v218.6992188h40.5v-162l166.40039 162h31.59961v-218.6992188h-40v159.1992188l-163.90039-159.1992188zm284.29883 0v37.5996098h97.60156v181.099609h42.09961v-181.099609h97.59961v-37.5996098h-7.40039zm283.20117 0v218.6992188h213.59961v-37.69922h-173.5v-56.80078h134.1992v-37.5h-134.1992v-49.099609h173.5v-37.5996098h-7.5zm273.69921 0v218.6992188h40.4004v-162l166.5 162h31.5996v-218.6992188h-40v159.1992188l-164-159.1992188zm300.2012 0v218.6992188h162.1992c28.3 0 51.7996-11.10041 67.5996-31.90039 14.8-19.39998 22.7012-46.20003 22.7012-77.5-0.1-31.199969-7.9012-57.998848-22.7012-77.298829-15.8-20.899979-39.2996-31.9999998-67.5996-31.9999998zm340.6992 0c-25.6 0-46.3008 20.8984628-46.3008 46.3984378v126.000001c0 25.39997 20.8008 46.30078 46.3008 46.30078h176.5c25.6 0 46.4004-21.00081 46.4004-46.30078v-126.000001c-0.1-25.499975-20.8004-46.3984378-46.4004-46.3984378zm-301.6992 37.5996098h124.2988c38.9 0 52.7012 38.599642 52.7012 71.599609 0.1 33.19997-13.8012 71.80078-52.7012 71.80078h-124.2988zm303.2988 0.099609h173.3008c5 0 9.0996 4.000396 9.0996 8.900391v125.400389c0 4.9-4.0996 9-9.0996 9h-173.3008c-5.1 0-9.0996-4.1-9.0996-9v-125.400389c0-4.899995 3.9996-8.900391 9.0996-8.900391zm1002.9004 24.199219h89.0996c136.7999 0 223 59.900891 223 169.300781 0 109.49989-86.2001 167.90039-223 167.90039h-89.0996z"/><path fill="#CE181E" d="m2546.8 213s129.9-20.7 129.9-101.6c0-79-138.3-111.4-285.5-111.4-132.8 0-220.1 16.2-220.1 16.2v71.8c60.3-14.6 118-27 196.6-27 84.3 0 148.7 25.1 148.7 60.7 0 42.8-63.6 67.3-200.7 67.3h-63v64.7h58.6c144.3 0 226.4 21.7 226.4 74.7 0 47.3-73.3 76-164.7 76-79.7 0-152.6-16.9-211.8-33.3v77.4c28.4 4.9 103.8 20 244.2 20 155.6 0 290.8-50 290.8-138.1-0.2-73.9-93.9-117.4-149.4-117.4"/>
</svg>
