<svg enable-background="new 0 0 3839 468.5" version="1.1" viewBox="0 0 3839 468.5" xml:space="preserve" xmlns="http://www.w3.org/2000/svg">
<path d="m2391.1992 0c-132.7998 0-220.0996 16.199219-220.0996 16.199219v71.800781c60.2999-14.599985 117.9997-27 196.5996-27 84.2999 0 148.7012 25.099254 148.7012 60.69922 0 42.79996-63.6013 67.30078-200.7012 67.30078h-63v64.69922h58.6016c144.2998 0 226.3984 21.70122 226.3984 74.70117 0 47.29995-73.2993 76-164.6992 76-79.6999 0-152.6008-16.9008-211.8008-33.30078v77.40039c28.4 4.9 103.8013 20 244.2012 20 155.5998 0 290.7988-49.9997 290.7988-138.09961-0.2-73.89993-93.8985-117.40039-149.3984-117.40039 0 0 129.8984-20.69969 129.8984-101.59961 0-78.99992-138.3001-111.40039-285.5-111.40039zm1238.2012 2.0996094c-150.3999 0-249.0996 44.7012476-249.0996 120.7011706 0 73.29993 81.9993 105.99887 193.6992 147.29883 83.6999 30.59997 112.9004 47.79964 112.9004 77.09961 0 32.59997-31.3997 58.5-107.0996 58.5-69.1999 0-157.7008-13.40002-199.8008-30h-0.0996v77.80078c58.9999 9.49999 112.0005 14.5 188.9004 14.5 187.1998 0 270.1992-53.30086 270.1992-127.30078 0-71.89993-66.3005-104.79848-185.4004-147.39844-85.5999-30.49997-134.5-47.3016-134.5-82.60156 0-24.399977 31.7997-47.898439 106.0996-47.898439 69.3999 0 114.0005 16.40001 164.4004 26l-0.4004-72.201172c-51.3999-9.3999902-79.0989-14.4999996-159.7988-14.4999996zm-887.4004 0.8007812v464.0996094h278.4004c72.8999 0 156.1989-12.69963 200.2988-32.59961 107.5999-48.49995 142.3008-125.90046 142.3008-199.40039 0-73.39993-34.9993-150.90083-142.1992-199.300781-44.1-19.89998-127.4009-32.7988284-200.3008-32.7988284h-278.5zm-2742 0.9003906v218.6992188h40.5v-162l166.40039 162h31.59961v-218.6992188h-7.59961-32.40039v159.1992188l-163.900391-159.1992188h-34.599609zm301.90039 0v218.6992188h40.5v-218.6992188h-7.5-33zm104 0v218.6992188h40.5v-162l166.40039 162h31.59961v-218.6992188h-7.59961-32.40039v159.1992188l-163.90039-159.1992188h-34.59961zm284.29883 0v37.5996098h97.60156v181.099609h42.09961v-181.099609h97.59961v-37.5996098h-7.40039-229.90039zm283.20117 0v218.6992188h213.59961v-37.69922h-173.5v-56.80078h134.1992v-37.5h-134.1992v-49.099609h173.5v-37.5996098h-7.5-206.09961zm273.69921 0v218.6992188h40.4004v-162l166.5 162h31.5996v-218.6992188h-7.5996-32.4004v159.1992188l-164-159.1992188h-34.5zm300.2012 0v218.6992188h162.1992c28.3 0 51.7996-11.10041 67.5996-31.90039 14.8-19.39998 22.7012-46.20003 22.7012-77.5-0.1-31.199969-7.9012-57.998848-22.7012-77.298829-15.8-20.899979-39.2996-31.9999998-67.5996-31.9999998h-162.1992zm340.6992 0c-25.6 0-46.3008 20.8984628-46.3008 46.3984378v126.000001c0 25.39997 20.8008 46.30078 46.3008 46.30078h176.5c25.6 0 46.4004-21.00081 46.4004-46.30078v-126.000001c-0.1-25.499975-20.8004-46.3984378-46.4004-46.3984378h-176.5zm-301.6992 37.5996098h1.0996 123.1992c38.9 0 52.7012 38.599642 52.7012 71.599609 0.1 33.19997-13.8012 71.80078-52.7012 71.80078h-124.2988v-143.400389zm303.2988 0.099609h173.3008c5 0 9.0996 4.000396 9.0996 8.900391v125.400389c0 4.9-4.0996 9-9.0996 9h-173.3008c-5.1 0-9.0996-4.1-9.0996-9v-125.400389c0-4.899995 3.9996-8.900391 9.0996-8.900391zm1002.9004 24.199219h89.0996c136.7999 0 223 59.900891 223 169.300781 0 109.49989-86.2001 167.90039-223 167.90039h-89.0996v-337.201171zm-1004.5 183.101561c-25.6 0-46.3008 20.89846-46.3008 46.39844v125.90039c0 25.39997 20.8008 46.40039 46.3008 46.40039h176.5c25.6 0 46.4004-20.90042 46.4004-46.40039v-125.90039c-0.1-25.49998-20.8004-46.39844-46.4004-46.39844h-176.5zm1.5996 37.59961h173.3008c5 0 9.0996 4.00001 9.0996 9v125.40039c0 5-4.0996 9.09961-9.0996 9.09961h-173.3008c-5.1 0-9.0996-4.09961-9.0996-9.09961v-125.40039c0-4.99999 3.9996-9 9.0996-9z"/>
</svg>
