<svg version="1.1" viewBox="0 0 454.42953 243.65939" xmlns="http://www.w3.org/2000/svg"><path d="m90.943359 10.017578c-0.585312-0.0236873-1.172719-0.0262812-1.761718 0.011719-11.419989 0.383999-23.078558 1.365613-33.810547 5.599609a72.126 72.126 0 0 0-22.767578 14.84375c-2.855998 2.655998-5.134659 5.838284-7.722657 8.738282-9.42799 12.795987-14.141406 28.669093-14.691406 44.455078a47.608 47.608 0 0 0 0.007813 8.576172c0.125999 4.931995 0.744219 9.837312 1.574218 14.695312 3.807997 21.65998 13.235779 42.10222 26.009766 59.9082 15.089985 20.91398 34.790898 38.58722 57.546875 50.78321 14.049985 7.44999 29.272285 12.88553 45.072265 15.01953 12.30199 1.688 24.97322 1.36818 37.0332-1.75782 13.71799-3.46599 26.53304-10.8548 35.95703-21.46679 8.904-9.88399 14.76879-22.3412 17.30079-35.36719 3.14399-15.18998 2.0469-31.00797-1.6211-46.00195-0.324-1.24-0.19694-2.52702-0.21093-3.79102 0.00399-11.17799 0.00399-22.35326 0-33.531248-0.152-6.367994-0.66421-13.114678-4.15821-18.638672-3.18799-5.195995-8.70705-8.471471-14.37305-10.355469-6.13999-1.957998-12.6186-2.841875-19.05859-2.671875-0.846 0.154-1.3138-0.630813-1.8418-1.132812-6.27599-6.475994-12.92997-12.619631-20.16796-18.015625-1.854-1.255999-3.59797-2.672564-5.41797-3.976563a180.128 180.128 0 0 0-16.27149-9.865234c-9.96599-5.327995-20.45224-9.848018-31.49023-12.416016-6.534-1.573998-13.19496-2.601813-19.876955-3.257812-1.760998-0.039-3.50383-0.313704-5.259766-0.384766zm-0.78125 1.109375c1.335374 0.018219 2.671861 0.064266 4.00586 0.134766 22.771971 1.501998 44.558441 10.334372 63.482421 22.818359a174.24 174.24 0 0 1 29.67969 24.986328c-12.43999-8e-3 -24.87837 9.4e-5 -37.31836-0.003906-0.014 37.207963-0.02619 74.40922 0.00781 111.61719 11.66199 8e-3 23.32043-0.0041 34.98242 0.0039 7.784-0.096 15.68818 0.46872 23.32617-1.36328 4.976-1.148 9.61609-3.75158 13.08008-7.51758 4.648-4.76799 6.39264-11.51494 7.05664-17.96093 0.198-2.226 0.36854-4.44755 0.39454-6.68555 1.15399 5.33999 1.50751 10.81391 1.85351 16.25391 0.206 11.06399-1.18828 22.29635-5.23828 32.65234-3.808 9.90399-10.03904 18.90704-18.20703 25.70703-9.77799 8.27799-22.15261 13.17182-34.8086 14.75781-10.66198 1.348-21.52716 0.6627-32.03515-1.52929-14.79799-3.122-28.92678-9.02935-41.884768-16.77735-20.451979-12.26798-38.118716-28.97158-51.970703-48.35156-8.997991-12.71799-16.336895-26.67239-21.21289-41.48437-4.285996-13.01799-6.598312-26.768581-6.070313-40.476567 0.324-1.963998 0.048235-3.975877 0.490235-5.921875 0.747999-7.683992 2.74219-15.239523 5.742187-22.353516 2.653997-5.885994 6.038223-11.470411 10.324219-16.316406 1.481998-1.565998 2.720002-3.384345 4.5-4.652344 10.25399-9.67399 23.912092-15.292345 37.830078-16.902343 3.977996-0.498 7.984113-0.689422 11.990234-0.634766zm8.457032 45.800781c-3.030559-0.077156-6.0708 0.234969-9.091797 0.417969-7.183993 0.751999-14.517116 2.396176-20.53711 6.576172-5.613994 3.721996-9.351422 10.009507-10.107422 16.6875-0.907999 4.799995-0.627968 9.712224-0.667968 14.574219-4e-3 15.479986 9.3e-5 30.955656-0.003906 46.431636-0.038 4.718 0.363392 9.56551 2.27539 13.9375a23.68 23.68 0 0 0 8.923828 10.66211c6.877993 4.644 15.353086 5.85004 23.455078 6.33204 2.577998 0.00599 5.154567 0.43337 7.726566 0.10937 8.56599-0.224 17.55193-1.41905 24.91992-6.12305 5.08199-3.14399 8.74608-8.39503 10.08008-14.20703 1.676-7.51599 0.98667-15.26449 1.13867-22.89648-10.39399 6e-3 -20.79146 0.01809-31.18945-0.00391 0.068 3.696 0.00915 7.39766 0.03515 11.09766-0.092 2.50599 0.23213 5.26042-1.17187 7.48242-0.92 1.652-2.84324 2.39694-4.615238 2.71094-2.965997 0.374-6.258393 0.15415-8.65039-1.83985-1.043999-1.334-1.669094-2.98345-1.621094-4.68945-0.014-19.15798 9.4e-5 -38.31858-0.003906-57.476562-0.096-2.229998 0.659861-4.643674 2.505859-6.013672 2.015998-1.511999 4.662081-1.616891 7.080078-1.462891 2.158001 0.13 4.521951 1.100252 5.501951 3.15625 1.186 2.081998 0.89257 4.569049 0.97656 6.873047 0.07 3.663996-0.16681 7.349865 0.11719 11.005858 10.21999-0.062 20.43831 7.5e-4 30.6543-0.03125 0.014-5.007992 0.018-10.017394 0-15.025389-0.21-5.357995-1.37472-10.903161-4.63672-15.285157-3.864-5.151994-9.71507-8.457986-15.78906-10.333984-4.618-1.443999-9.43735-2.307453-14.27735-2.439453-1.00699-0.1315-2.017153-0.200844-3.027339-0.226563zm329.972659 1.875c-1.452 0.022-2.90171 0.021297-4.34571 0.029297-0.03 5.429995-0.0259 10.857068-0.0039 16.289063a177.334 177.334 0 0 1 2.91601 0.009765c0.024-4.311995-0.03465-8.63341-0.22265-12.941406 1.35 4.263996 2.27469 8.663129 3.55468 12.953125 0.844-0.022 1.69097-0.018515 2.54297 0.021484a7.54 7.54 0 0 0 0.48242-1.27539c0.984-3.859996 1.9719-7.71902 3.0879-11.541016 0.034 4.245996-0.28508 8.511489-0.20508 12.771485l2.92187 0.011718c4e-3 -5.437994 0.02428-10.878458-0.01172-16.314453-1.43399 0.01-2.86687 0.006188-4.29687-0.007812-1.132 3.959996-2.01703 7.987738-3.20703 11.927734-1.088-3.971996-2.03689-7.985598-3.21289-11.933594zm-21.25586 0.033204c-0.026 0.923999-0.02949 1.849391-0.02149 2.77539 1.47 0.034 2.94388 0.021156 4.42188 0.035156 0.026 4.491996-0.03061 8.980661 0.02539 13.472657a116.7 116.7 0 0 0 3.1289-0.007813c0.048-4.495995 0.00944-8.988379 0.02344-13.484375 1.474 8e-3 2.9555 0.020469 4.4375-0.019531 6e-3 -0.925999 0.00671-1.849485-0.02929-2.771484-3.996-0.018-7.99034-0.022-11.98633 0zm-174.78516 0.214843c-0.25 2.211998-0.04323 4.436346-0.11523 6.652344 0.038 4.901995-0.07927 9.809036 0.05273 14.707031 7.87599 0.042 15.75487-0.071453 23.63086 0.060547 0.1 30.071967-0.00536 60.146777 0.05664 90.218747 10.47399 0.022 20.94975-0.00832 31.42774 0.01367 0.03-29.95797-0.00419-59.91693 0.00781-89.878901-0.014-0.656 0.91831-0.323828 1.32031-0.423828 7.48199 0.018 14.96723 0.017906 22.44922 0.003906 4e-3 -7.111993 4e-3 -14.222038 0-21.332031-26.27797-0.026-52.55411 0.022515-78.83008-0.021485zm112.90039 0.013672c-10.24599 0.012-20.4962-0.010187-30.74219 0.007813 0.078 1.299998 0.40682 2.563751 0.63282 3.84375 6.73599 35.921964 13.58396 71.823804 20.25195 107.759764 14.27999 0.056 28.55795 0.00339 42.83594 0.02539 5.84199-29.52997 11.46596-59.10456 17.25195-88.644529 1.532-7.651993 2.85558-15.352524 4.51758-22.978516-10.40199-0.028-20.79732-0.005766-31.19531-0.009766-4.036 28.363972-7.79915 56.772981-11.86914 85.126951-0.512-2.81999-0.81685-5.67958-1.21485-8.51758-3.47999-25.53797-6.98275-51.075302-10.46875-76.613277zm-163.81836 21.591797c2.974 0.022 5.94793-0.038516 8.91992 0.021484 1.81 0.042 3.62637 0.54183 5.06836 1.673828 1.49 1.983999 1.71793 4.525878 1.66993 6.921876 0.03 16.949982 0.01581 33.903532 0.00781 50.853512-0.04 2.536 0.17372 5.38001-1.48828 7.5-1.342 1.684-3.62886 1.93575-5.63086 2.09375-2.852 0.026-5.70279 0.02819-8.55078-0.00781 4e-3 -23.01798-0.0041-46.03867 0.0039-69.05664zm196.97461 108.51953c-1.88375-0.142-3.82398 0.27803-5.45898 1.20703-2.982 1.77-4.67556 5.31062-4.60156 8.72461-0.128 2.972 0.75579 6.08168 2.84179 8.26367 1.828 1.84 4.50427 2.69838 7.07227 2.48438 3.12799-0.11 6.1044-2.12744 7.3164-5.02344 0.17-0.328 0.34521-0.65656 0.53321-0.97656-1.186-0.46-2.3493-0.97136-3.5293-1.44336-0.55 1.588-1.57466 3.13675-3.22266 3.71875-1.66599 0.434-3.61039 0.18847-4.90039-1.01953-1.802-1.558-2.16054-4.127-2.06054-6.375 0.02-2.39 1.25447-4.83696 3.48046-5.87695 1.414-0.29 2.96177-0.38514 4.25977 0.38085 1.172 0.526 1.6207 1.82871 1.9707 2.97071 1.218-0.25 2.417-0.60025 3.625-0.90625-0.484-1.448-1.14298-2.86071-2.20898-3.97071-1.408-1.31299-3.23344-2.0162-5.11719-2.1582zm44.93555 0.40234c-0.556 0.932-0.67795 2.03265-1.00195 3.05665-1.142 4.12199-2.28583 8.24514-3.42383 12.36914-1.71-5.06-2.86968-10.31635-4.51367-15.40235-1.242 0.022-2.48466 0.01358-3.72266 0.01758 1.702 6.64799 3.83685 13.19484 5.71484 19.79883 1.64 2e-3 3.28365-0.01224 4.93164 0.00976 1.904-6.59399 3.75588-13.20102 5.67188-19.79101-1.224-0.022-2.44025-0.0106-3.65625-0.0586zm-127.58594 0.00586c-1.108 0.046-2.21831 0.04572-3.32031 0.01172-0.086 0.704-0.19039 1.41296-0.15039 2.12696 0.268 2.95599 0.11287 5.93248 0.29687 8.89648a16.042 16.042 0 0 1 0.10352 2.75781c-3.056-4.51799-5.75627-9.27706-8.82227-13.78906-1.062 0.032-2.12169 0.03116-3.17968 0.03516-0.032 6.59399-0.01782 13.19116-0.00782 19.78515 1.214 0.018 2.42658 0.018 3.64258 0-0.026-4.54399-0.10642-9.08695-0.23242-13.62695 3.012 4.412 5.63189 9.09097 8.58789 13.54297 1.036 0.236 2.17205 0.03961 3.24805 0.09961-0.016-5.642-0.00391-11.28574-0.00391-16.92774-0.01-0.974 0.08189-1.96011-0.16211-2.91211zm64.41797 0c-1.302 0.052-2.60239 0.03568-3.90039 0.01368-2.372 6.55999-4.42149 13.23288-6.77149 19.79687 1.328 0.036 2.6621 0.02949 3.9961 0.02149 0.388-1.274 0.72178-2.56437 1.17578-3.81836 2.448 8e-3 4.89371-1.9e-4 7.3457 0.00781 0.468 1.26 0.68219 2.60594 1.24219 3.83594a136.088 136.088 0 0 1 3.83399-0.01368c-1.88-5.77999-3.95162-11.49158-5.84961-17.26757-0.294-0.884-0.54827-1.79818-1.07227-2.57618zm-19.08789 0.02344c-2.54 0.02-5.07543-0.00275-7.60742 0.03125 8e-3 6.586 4e-5 13.17568-0.00196 19.76367 1.272 0.026 2.54237 0.0261 3.81836-0.0039 4e-3 -2.446-0.01818-4.8899 0.00782-7.33789a26.048 26.048 0 0 1 3.23242 0.10156c1.392 2.382 2.48303 4.93539 3.95703 7.27539 1.354-0.036 2.7065-0.01348 4.0625-0.02148-1.256-2.728-2.88619-5.25955-4.24219-7.93555 0.972-0.538 1.99955-1.08805 2.68555-1.99805 1.758-2.316 1.40447-5.85089-0.51953-7.96289-1.408-1.392-3.45658-1.94211-5.39258-1.91211zm88.43945 0c-0.12 6.602 0.02146 13.2026-0.06054 19.8086 4.87199 0.016 9.74519-0.00619 14.61718 0.00781 0.038-1.128 0.04052-2.25491-0.02148-3.37891-3.646 0.096-7.28965-0.05573-10.93164 0.07227-0.188-1.768-0.08213-3.5425-0.07813-5.3125 3.14 0.026 6.27993-0.03885 9.41993 0.03515 0.12599-1.066 0.06478-2.13322 0.05078-3.19922-3.17-0.04799-6.33987 0.08169-9.50586-0.07031 0.028-1.504 0.01562-3.00781 0.01562-4.50781 2.518-0.012 5.0386-0.01181 7.5586-0.00781 0.95799-0.018 1.95072 0.12036 2.88671-0.18164-0.036-1.084-0.03682-2.1621-0.04882-3.2461-4.632-0.032-9.27035 0.01647-13.90235-0.01953zm-156.98437 0.01172c-0.012 6.59799-0.016 13.19888 0 19.79688 1.214 8e-3 2.42462 0.01223 3.64062-0.00977 6e-3 -6.58999 0.01819-13.18335-0.00781-19.77734a220.2 220.2 0 0 0-3.63281-0.00977zm131.95703 0c-0.04 6.59799-0.01772 13.19493-0.01172 19.79492a122.84 122.84 0 0 0 3.64258-0.00781c0.018-6.59399 0.00381-13.18921 0.00781-19.7832-1.216-8e-3 -2.43067-0.00791-3.63867-0.00391zm-88.45899 0.00977c-0.018 6.59399-0.02614 13.18525 0.00586 19.78125 4.894 0.014 9.7896 0.02609 14.6836-0.00391 6e-3 -1.102 0.00976-2.20864 0.00976-3.30664-3.68999-0.114-7.38227-0.0098-11.07226-0.0918 8e-3 -1.73 0.00381-3.46145 0.00781-5.18945 3.168-0.026 6.33772 0.00442 9.51172-0.01758 0.018-1.046 0.02344-2.09272 0.02344-3.13672-3.18-0.066-6.36688 0.01117-9.54688-0.04883 0.01-1.51999 0.00577-3.04059 0.00977-4.55859 3.44399 0.016 6.88603-0.00619 10.33203 0.00781 0.028-1.142 0.02758-2.28973 0.01758-3.42773-4.662-0.038-9.32443-0.01581-13.98243-0.00781zm85.52735 0.00586c-4.804 0.04-9.60621 0.01757-14.4082 0.01757-4e-3 1.15-0.00415 2.29922 0.00585 3.44922 1.754-8e-3 3.51154-8e-3 5.26954 0 0.012 5.438-0.00619 10.87455 0.00781 16.31055 1.264 0.016 2.52887 0.01833 3.79687-0.01367-0.04-5.434 0.01871-10.86298-0.02929-16.29297 1.77999-6e-3 3.55975-0.02419 5.34375 0.00781 0.128-1.158 0.19367-2.32452 0.01367-3.47851zm-102.80664 0.02929c-4e-3 1.138 0.00134 2.27797 0.02734 3.41797 1.814 0.05 3.62936-0.00484 5.44336 0.03516 0.018 5.43199-0.01842 10.86292 0.01758 16.29492 1.216 0.014 2.43234 0.01419 3.65234-0.00781 0.018-5.434-2.3e-4 -10.86298 0.00977-16.29297 1.816-0.01 3.63508-0.00758 5.45508-0.01758 0.014-1.138 0.01757-2.27802 0.01757-3.41602-4.87599-0.054-9.75105-0.01767-14.62304-0.01367zm41.74023 3.17969c1.076 0.02325 2.11166 0.21469 2.97266 0.92969 1.654 1.356 0.99298 4.32973-1.04102 4.92773-1.71 0.236-3.43997 0.49905-5.16797 0.37305 0.044-2.05 0.01944-4.09844 0.02344-6.14844 1.021 0.04 2.13689-0.10528 3.21289-0.08203zm17.91211 0.73047a364.32 364.32 0 0 1 2.59375 8.6914c-1.78-0.01199-3.55994-0.0139-5.33594-0.0039 0.888-2.9 1.58219-5.8935 2.74219-8.6875zm11.14844 18.81055c-1.128 4.28599-2.27361 8.57495-3.34961 12.87695-0.188 0.458-0.11834 1.13305-0.65234 1.37305-1.042-4.782-2.49896-9.46262-3.62696-14.22461-1.786-0.02-3.56942-0.01172-5.35742-0.01172-0.02 6.60399 4.7e-4 13.20464-0.01953 19.80664 1.216 0 2.43625 2.3e-4 3.65625-0.00977 0.012-5.19799-0.56513-10.38217-0.20313-15.57617 1.232 5.222 2.70293 10.38618 4.04493 15.57617 1.118 0.02 2.23742 0.01624 3.35742-0.00976 1.268-5.26 2.69672-10.47737 4.13672-15.69336-0.098 5.23999-0.29452 10.48257-0.22852 15.72656 1.194-0.012 2.39566-0.01334 3.59766-0.02734 0-6.594-4e-3 -13.18726 0-19.78125-1.788-0.026-3.57147 0.00461-5.35547-0.02539zm-69.57422 0.00585c-1.254 1e-5 -2.50186 0.00349-3.75586 0.02149-0.032 4.284 4.7e-4 8.56561-0.01953 12.84961 0.022 1.666 0.23517 3.50381 1.45117 4.75781 1.416 1.924 3.91708 2.63258 6.20508 2.64258 2.35 0.06 4.8572-0.57846 6.5332-2.31445 1.33-1.316 1.82455-3.25218 1.81055-5.07618a1969.992 1969.992 0 0 1 0.00391-12.86328 124.152 124.152 0 0 0-3.86133 0.00391c-0.014 4.39999-2.4e-4 8.80508 0.00976 13.20508 0.1 1.592-1.21237 2.988-2.73437 3.25-1.606 0.302-3.50852 0.25557-4.72852-0.98242-0.928-0.844-0.84797-2.17832-0.91797-3.32032-0.018-4.05799-9e-5 -8.11583 0.00391-12.17383zm-14.44531 0.00391c-1.238 4.8-2.46977 9.60077-3.75977 14.38477-1.42-4.744-2.58408-9.57129-3.83008-14.36328-1.80399-0.03-3.60229-0.03382-5.40429-0.00782-0.022 6.594-0.0221 13.19107 0.0039 19.78907 1.216 8e-3 2.43244 0.00781 3.64844 0.00781-0.068-2.672-0.01727-5.34186-0.19727-8.00586 0.146-2.532-0.34812-5.05404-0.07812-7.58203 1.434 5.17399 2.769 10.37627 4.125 15.57226 1.124 0.022 2.247 0.022 3.375 0 1.314-5.24199 2.64011-10.48597 4.16211-15.66797-0.122 5.226-0.32278 10.45351-0.30078 15.6875 1.208-4e-3 2.41681-0.00976 3.63281-0.00976 0-6.59199 4e-3 -13.18921 0-19.7832-1.796-0.034-3.58495-0.01349-5.37695-0.02149zm147.8125 0c-2.308 6.57599-4.45158 13.21312-6.76758 19.78711 1.32 0.026 2.6408 0.01111 3.9668 0.03711 0.446-1.29 0.81376-2.60267 1.25976-3.88867 2.418-0.092 4.84158-0.03492 7.26758-0.04492 0.474 1.28999 0.77386 2.63959 1.25586 3.93359a157.694 157.694 0 0 1 3.89258-0.00977c-2.238-6.60399-4.51238-13.19855-6.73438-19.81054-1.384-4e-3 -2.76262 0.00409-4.14062-0.00391zm-115.48633 0.00391c-0.034 6.60799 0.03889 13.22008-0.03711 19.83008 3.804-0.048 7.60997-0.01335 11.41797-0.02735 0.018-1.148 0.018-2.29355 0-3.43555-2.588 4e-3 -5.17372 0.0041-7.76172-0.0039 0.018-5.45 0.01-10.8978 0-16.3418a109.284 109.284 0 0 0-3.61914-0.02148zm76.2832 0c-4.64799 0-9.29146-0.0081-13.93945 0.0039-8e-3 6.6-0.01814 13.20079 0.00586 19.80078 4.89399 4e-3 9.78378-0.00399 14.67578 0 6e-3 -1.15999 0.00619-2.31846-0.00781-3.48046-3.682-0.014-7.36488 0.00409-11.04688-0.00391 8e-3 -1.754-0.01265-3.50586 0.02735-5.25586 3.17399-0.048 6.34934-0.00534 9.52734-0.02734-0.012-1-0.00833-1.99433 0.01367-2.98633-3.17399-0.262-6.37078-0.0251-9.55078-0.1211-0.016-1.52599-0.04708-3.0484 0.04492-4.5664 3.434-0.11 6.87841-0.05097 10.31641-0.04297-0.052-1.104-0.06241-2.21431-0.06641-3.32031zm11.81641 0c-2.536 0.026-5.06761-0.00861-7.59961 0.02539 8e-3 6.57199-0.00577 13.14675-0.00977 19.71875 2.278 0.132 4.56371 0.02231 6.84571 0.07031 2.39599-8e-3 4.99695-0.36024 6.87695-1.99023 1.9-1.558 2.72363-4.02854 3.01563-6.39454 0.28399-3.20199-0.46657-6.68222-2.72657-9.07421-1.684-1.652-4.08434-2.38147-6.40234-2.35547zm-54.76953 0.0039a155.148 155.148 0 0 0-3.73828 0.00977c-4e-3 6.59799-0.0181 13.19107 0.0039 19.78906 1.22 0 2.44397-0.00256 3.66797 0.02344 0.18-6.60199 0.05841-13.21827 0.06641-19.82227zm-22.04102 0.00586c0.014 1.122-0.0427 2.24519 0.0293 3.36719 1.766 0.084 3.53859-0.05508 5.30859 0.04492 0.066 5.464-0.00689 10.92082 0.03711 16.38281 1.214-0.00399 2.42463-0.01056 3.64063 0.02344 0.092-0.476 0.14434-0.95359 0.15234-1.43359-0.036-4.986-0.02148-9.96913-0.02148-14.95313 1.78799-0.056 3.57323 0.01071 5.36523-0.02929 0-1.136 9e-5 -2.27035-0.00391-3.40235-4.83599-4e-3 -9.67181-4e-3 -14.50781 0zm90.24414 0c8e-3 6.26-0.00376 12.51349-0.00976 18.77149a3.702 3.702 0 0 0 0.20508 1.05469c1.18199-0.038 2.37445-0.02674 3.56445-0.05274 0-6.58999-0.0101-13.17563 0.0039-19.76562a98.414 98.414 0 0 0-3.76367-0.00782zm-17.18554 3.39844c2.40999 0.02 5.12453-0.40804 7.14453 1.25195 1.692 1.612 1.92906 4.13576 1.78906 6.34375-0.074 1.77-0.62491 3.85983-2.37891 4.67383-2.03999 0.95-4.37659 0.61091-6.55859 0.62891 8e-3 -4.302-0.00409-8.60044 0.00391-12.89844zm33.2539 0.44922c0.958 2.886 1.78686 5.81819 2.63086 8.74219-1.772 0.02-3.53859 0.00381-5.30859 0.00781 0.852-2.926 1.62973-5.894 2.67773-8.75z" stroke-width="2"/></svg>
