<svg version="1.1" viewBox="0 0 3839.1 672.6" xml:space="preserve" xmlns="http://www.w3.org/2000/svg">
<path d="m1674.5 0c-185.7 0-336.3 150.6-336.3 336.3 0 185.7 150.6 336.3 336.3 336.3s336.3-150.6 336.3-336.3c0-185.7-150.6-336.3-336.3-336.3zm-673.8 26.199-211.02 385.5h-114.18v96.701h61.246l-61.746 112.8h110.2l61.758-112.8h307.41l61.73 112.8h110.2zm-1000.7 1v594.1h96.699v-389.97l475.8 389.87v-582h-96.699v377.78zm3639.3 1.8008c-71.9 0-134.8 36.8-174.7 67.4l68.4 68.699c47.1-33.3 128-71.1 191.2 0.5 94.4 106.9-189.8 335.9-268.9 392.7v62.898h383.7v-96.699h-191.44c85.476-79.012 179.05-186.27 190.34-285.8 5.7-51.8-8.8004-99-41.9-136.5-42.2-47.9-96.399-73.199-156.7-73.199zm-1535.7 10.199v582h96.701v-322.1l246.2 285.2 246.3-285.2v322.1h96.699v-582l-343 397.2zm890.9 0v582h96.699v-582zm-1320 74.801c122.6 0 222.3 99.701 222.3 222.3s-99.801 222.3-222.3 222.3c-122.6 0-222.3-99.699-222.3-222.3s99.701-222.3 222.3-222.3zm-673.8 113.6 100.75 184.1h-201.55zm434.2 108.75c0.027 132.28 107.31 239.55 239.6 239.55s239.57-107.27 239.6-239.55v0.0508c0.0019 132.3-107.3 239.6-239.6 239.6s-239.6-107.3-239.6-239.6v-0.0508z"/>
</svg>
