<svg version="1.1" viewBox="0 0 3839.1 672.6" xml:space="preserve" xmlns="http://www.w3.org/2000/svg">
<path d="m1000.7 26.199-211.04 385.54h-114.09v96.701h61.158l-61.723 112.76h110.2l61.734-112.76h307.46l61.707 112.76h110.2zm-1000.7 1v104.89h-0.017578v489.1h96.701v-389.87l475.82 389.88v-98.484h0.0293v-483.5h-96.699v377.79zm2103.6 12v582h96.701v-322.1l246.2 285.2 246.3-285.2v322.1h96.699v-582l-343 397.2zm890.9 0v582h96.699v-582zm-1993.8 188.4 100.77 184.14h-201.59z"/><path fill="#F05100" d="m1674.5 0c-185.7 0-336.3 150.6-336.3 336.3 0 185.7 150.6 336.3 336.3 336.3s336.3-150.6 336.3-336.3c0-185.7-150.6-336.3-336.3-336.3zm1964.8 29c-71.9 0-134.8 36.8-174.7 67.4l68.4 68.699c47.1-33.3 128-71.1 191.2 0.5 94.4 106.9-189.8 335.9-268.9 392.7v62.898h49.168v0.0312h334.5v-96.699h-191.44c85.485-79.015 179.08-186.29 190.37-285.83 5.7-51.8-8.8004-99-41.9-136.5-42.2-47.9-96.399-73.199-156.7-73.199zm-1964.8 85c122.6 0 222.3 99.701 222.3 222.3s-99.801 222.3-222.3 222.3c-122.6 0-222.3-99.699-222.3-222.3s99.701-222.3 222.3-222.3zm-239.6 222.35c0.027 132.28 107.31 239.55 239.6 239.55s239.57-107.27 239.6-239.55v0.0508c0 132.3-107.3 239.6-239.6 239.6s-239.6-107.3-239.6-239.6v-0.0508z"/>
</svg>
