<svg version="1.1" viewBox="-236.252 381.062 530.294 98.493" xmlns="http://www.w3.org/2000/svg">
 <path d="m-186.101 440.23001a25.076 11.212 0 0 1-25.076 11.212 25.076 11.212 0 0 1-25.076-11.212 25.076 11.212 0 0 1 25.076-11.212 25.076 11.212 0 0 1 25.076 11.212z" fill="#007544"/>
 <path d="m-141.212 458.799c0 6.192-11.227 11.212-25.076 11.212s-25.076-5.02-25.076-11.212 11.227-11.211 25.076-11.211c13.85 0 25.076 5.019 25.076 11.211z" fill="#fed01b"/>
 <path d="m-138.194 451.442c-3.018-12.557-13.963-26.431-28.094-20.4 11.506-26.541 33.221-22.319 40.761-13.27 5.873 7.046 5.732 31.146-12.667 33.67z" fill="#ba2318"/>
 <path d="m-182.387 431.14c-3.019-12.557-13.963-26.431-28.094-20.4 11.506-26.541 33.222-22.319 40.761-13.27 5.872 7.047 5.73 31.146-12.667 33.67z" fill="#0a2a8d"/>
 <path d="m-88.775 381.062c-3.73 0-7.355 3.089-8.021 6.917v0.206l-0.068 0.068v0.206l-0.068 0.137v0.137l-0.068 0.137v0.205l-0.068 0.137v0.206l-0.068 0.205-0.068 0.206-0.068 0.41-0.136 0.48-0.068 0.479-0.136 0.48-0.068 0.547-0.136 0.548-0.136 0.617-0.136 0.548-0.204 1.164-0.136 0.616-0.136 0.548-0.068 0.548-0.136 0.548-0.135 0.548-0.068 0.548-0.068 0.479-0.136 0.411-0.068 0.479v0.206l-0.068 0.137v0.342l-0.068 0.206v0.273l-0.068 0.137v0.137c-0.071 1.674 0.161 3.96 0.679 4.384 0.659 3.688 12.858 20.757 12.507 23.356-0.33 2.607-1.768 10.274-1.768 10.274-0.442 2.586-2.192 4.658-4.758 4.658s-4.316-2.065-3.875-4.658l2.311-12.74h-9.108l-3.059 17.671c-0.624 3.589 1.788 6.438 5.37 6.438h12.982c3.596 0 7.022-2.849 7.681-6.438 0 0 3.345-16.506 3.33-17.671-0.014-1.172-0.34-1.301-0.34-1.301 0-1.342-10.855-19.397-11.963-20.068-0.477-0.283-0.87-2.07-0.883-3.15-0.021-1.074 1.427-8.288 1.427-8.288 0.442-2.585 2.872-4.658 5.437-4.658 2.566 0 3.637 2.072 3.195 4.658l-1.971 11.438h9.177l3.194-17.192c0.722-3.829-1.708-6.917-5.437-6.917h-13.456zm25.013 0-10.876 63.15c-0.624 3.589 1.788 6.438 5.37 6.438h12.982c3.596 0 7.083-2.849 7.749-6.438l11.623-63.15h-8.157l-11.08 61.369c-0.161 0.89-1.02 1.644-1.903 1.644h-6.457c-0.905 0-1.507-0.747-1.36-1.644l10.808-61.369zm31.268 0-13.119 69.588h8.7l5.982-31.506h11.08c3.603 0 7.022-2.871 7.68-6.439l4.758-24.726c0.715-3.836-1.708-6.917-5.437-6.917zm31.063 0-13.595 69.588h19.576l1.36-8.63h-9.652l3.942-23.493h9.652l1.36-7.26h-9.652l4.283-21.575h9.652l1.36-8.63zm23.382 0-13.05 69.588h8.7l5.914-31.506h6.185c0.813 0.762 0.907 2.17 1.019 2.876 0.161 1.024 0.33 2.332 0.204 3.356-0.112 1.017-4.758 25.273-4.758 25.273h8.7s4.894-26.425 4.894-26.849c0.014-0.431 1e-3 -1.786-0.476-2.534-0.316-0.48-0.865-1.584-1.496-1.986-1.213-0.784-2.583-1.301-2.583-1.301h-0.612c2.489-0.989 7.184-2.618 7.681-5.274l4.758-24.726c0.722-3.836-1.708-6.917-5.438-6.917zm46.562 0-13.119 69.588h9.992l8.088-40.342 3.195 40.342h8.701l13.119-69.588h-9.992l-6.797 36.369-4.486-36.369zm34.53 0-13.119 69.588h8.7l13.118-69.588zm13.254 0-13.118 69.588h10.06l8.088-40.342 3.195 40.342h8.7l13.118-69.588h-10.06l-6.729 36.369-4.486-36.369zm33.715 0-1.632 8.63h5.438l-10.74 60.958h9.924l10.944-60.958h5.234l1.36-8.63zm23.926 0-13.595 69.588h19.576l1.359-8.63h-9.652l4.01-23.493h9.652l1.36-7.26h-9.652l4.214-21.575h9.652l1.359-8.63zm22.091 0-13.119 69.588h10.06l8.088-40.342 3.195 40.342h8.701l13.118-69.588h-10.06l-6.729 36.369-4.486-36.369zm34.598 0-13.119 69.588h19.848c3.603 0 7.083-2.849 7.749-6.438l10.536-56.233c0.715-3.836-1.708-6.917-5.438-6.917zm37.317 0c-3.73 0-7.287 3.089-7.953 6.917l-9.72 56.233c-0.631 3.589 1.726 6.438 5.301 6.438h14.343c3.596 0 7.083-2.849 7.749-6.438l10.536-56.233c0.722-3.829-1.715-6.917-5.438-6.917zm-29.908 8.013h4.01c2.566 0 4.316 2.072 3.875 4.658l-8.565 45.548c-0.449 2.586-2.94 4.726-5.506 4.726h-3.942zm35.006 0h0.272c2.566 0 4.248 2.072 3.806 4.658l-8.157 45.548c-0.442 2.578-2.804 4.726-5.37 4.726s-3.637-2.141-3.195-4.726l8.088-45.548 0.068-0.205 0.068-0.206 0.068-0.274 0.068-0.205 0.068-0.274 0.068-0.206 0.068-0.205 0.136-0.205 0.068-0.206 0.136-0.205 0.068-0.206 0.136-0.205 0.136-0.137 0.136-0.206 0.136-0.205 0.204-0.137 0.272-0.274 0.408-0.274 0.136-0.137 0.204-0.137 0.204-0.068 0.204-0.137 0.136-0.069 0.272-0.068 0.204-0.069h0.204l0.204-0.068h0.272zm-297.176 0.274h4.214c0.925 0 2.887 2.135 2.719 3.082l-3.603 17.191c-0.168 0.89-1.36 2.945-2.243 2.945h-5.234l-0.068-0.068h-0.272v-0.069h-0.136l-0.068-0.068h-0.068l-0.068-0.069-0.068-0.068h-0.068v-0.069l-0.068-0.068-0.068-0.069v-0.068l-0.068-0.069-0.068-0.068v-0.137l-0.068-0.068v-0.137l-0.068-0.069v-0.068c0-0.113-0.014-0.284 0-0.411l4.078-21.027c0.374-0.311 0.831-0.548 1.293-0.548zm54.174 0h4.214c0.925 0 2.901 2.135 2.719 3.082l-3.602 17.123c-0.161 0.897-2.373 3.013-3.263 3.013h-3.738c-0.771 0-1.303-0.512-1.36-1.232 0-0.113-0.014-0.277 0-0.411l4.011-21.027 0.068-0.068 0.068-0.069 0.136-0.068h0.068l0.068-0.069 0.068-0.068h0.068l0.068-0.069h0.068l0.136-0.068h0.204v-0.069zm-138.12 67.328v22.808h397.999v-22.808zm290.635 2.398h3.396c0.822 0 1.412 0.651 1.247 1.507l-0.762 3.836h-1.871l0.416-2.534c0.093-0.573-0.246-1.027-0.832-1.027-0.579 0-1.147 0.451-1.247 1.027l-0.346 1.849c-0.057 0.11 0.115 0.63 0.208 0.685 0.257 0.146 2.702 4.154 2.702 4.452 0.057 0.149 0.091 0.219 0.07 0.274-0.072 0.502-0.763 3.904-0.763 3.904-0.15 0.781-0.918 1.438-1.732 1.438h-2.91c-0.808 0-1.328-0.657-1.178-1.438l0.692-3.904h2.009l-0.485 2.808c-0.093 0.573 0.246 1.096 0.832 1.096 0.557 0 1.154-0.52 1.247-1.096l0.415-2.26c-0.371-0.946-2.822-4.386-2.979-5.206-0.108-0.091-0.153-0.586-0.139-0.959 0.021-0.408 0.554-2.945 0.554-2.945h0.069v-0.206l0.07-0.137v-0.068l0.069-0.069v-0.068l0.069-0.069v-0.068l0.07-0.069 0.069-0.068v-0.069h0.07l0.069-0.068 0.07-0.069 0.069-0.068v-0.069h0.07l0.069-0.068 0.07-0.069h0.069l0.07-0.068h0.069l0.07-0.068h0.208zm15.936 0h2.494l0.347 5.822 3.187-5.822h2.495l-5.128 8.904-1.247 6.507h-2.217l1.108-6.986zm22.658 0h3.397c0.822 0 1.397 0.651 1.247 1.507l-0.762 3.836h-1.871l0.416-2.534c0.093-0.573-0.245-1.027-0.831-1.027-0.579 0-1.154 0.451-1.247 1.027l-0.347 1.849c-0.071 0.11 0.094 0.63 0.208 0.685 0.243 0.146 2.702 4.154 2.702 4.452 0.071 0.149 0.069 0.219 0.069 0.274-0.093 0.502-0.693 3.904-0.693 3.904-0.15 0.781-0.925 1.438-1.732 1.438h-2.98c-0.807 0-1.327-0.657-1.178-1.438l0.693-3.904h2.009l-0.485 2.808c-0.093 0.573 0.267 1.096 0.831 1.096 0.579 0 1.133-0.52 1.247-1.096l0.416-2.26c-0.378-0.946-2.822-4.386-2.979-5.206-0.107-0.091-0.153-0.586-0.139-0.959 0.022-0.408 0.554-2.945 0.554-2.945l0.07-0.069v-0.137l0.069-0.137v-0.068l0.07-0.069v-0.068l0.069-0.069v-0.068l0.07-0.069 0.069-0.068v-0.069h0.07l0.069-0.068 0.07-0.069 0.069-0.068 0.07-0.069 0.069-0.068 0.069-0.069h0.07l0.069-0.068h0.07l0.069-0.068h0.209zm16.145 0h4.643l-0.347 1.849h-1.178l-2.425 13.562h-2.287l2.425-13.562h-1.178zm18.153 0h4.157l-0.346 1.849h-2.148l-0.97 4.863h2.217l-0.346 1.576h-2.148l-0.901 5.205h2.148l-0.277 1.918h-4.435zm17.115 0h2.564l0.416 8.904 3.949-8.835 2.494-0.069-2.633 15.411h-1.94l1.247-8.151-3.464 8.151h-1.386l-0.416-8.356-1.524 8.356h-2.287zm-372.154 0.548h4.088l-0.277 1.917h-2.218l-0.901 4.795h2.148l-0.277 1.644h-2.217l-0.832 5.206h2.148l-0.347 1.917h-4.435zm19.124 0h1.94l1.04 8.082 1.524-8.082h2.287l-2.98 15.479h-1.94l-0.762-8.972-1.802 8.972h-2.287zm20.787 0h4.573l-0.277 1.917h-1.178l-2.495 13.562h-2.217l2.425-13.562h-1.247zm20.163 0h4.157l-0.346 1.917h-2.148l-0.97 4.795h2.148l-0.277 1.644h-2.148l-0.901 5.206h2.148l-0.277 1.917h-4.435zm19.54 0h4.435c0.822 0 1.342 0.72 1.178 1.575l-1.04 5.48c-0.114 0.593-1.167 1.078-1.732 1.301h0.278v0.068h0.278l0.07 0.069h0.208v0.068h0.139v0.069h0.07c0.092 0.166 0.139 0.66 0.139 0.753 0 0.091-1.109 6.096-1.109 6.096h-2.009s1.073-5.392 1.109-5.616c0.021-0.24-0.027-0.53-0.07-0.754-0.014-0.165-0.022-0.448-0.208-0.616h-1.386l-1.316 6.986h-2.009zm19.817 0h4.642l-0.277 1.917h-1.178l-2.494 13.562h-2.218l2.425-13.562h-1.247zm23.073 0h2.633l-0.832 15.479h-2.633l0.347-3.561h-1.594l-1.317 3.561h-2.356zm18.431 0h2.009l-2.98 15.479h-1.94zm17.877 0h1.94l1.04 8.082 1.524-8.082h2.218l-2.91 15.479h-2.009l-0.693-8.972-1.802 8.972h-2.288zm22.934 0h2.564l0.416 8.972 3.95-8.904h2.494l-2.633 15.411h-1.94l1.247-8.15-3.464 8.15h-1.386l-0.416-8.356-1.525 8.356h-2.217zm25.153 0h4.088l-0.277 1.917h-2.218l-0.9 4.795h2.148l-0.277 1.644h-2.218l-0.901 5.206h2.218l-0.347 1.917h-4.365zm20.093 0h1.94l1.039 8.082 1.525-8.082h2.217l-2.91 15.479h-1.94l-0.762-8.972-1.801 8.972h-2.287zm20.579 0h4.643l-0.347 1.917h-1.178l-2.425 13.562h-2.218l2.425-13.562h-1.247zm-166.086 1.849c-0.108 0-0.199 0.063-0.277 0.137l-0.901 4.658v0.068c0 0.149 0.106 0.274 0.277 0.274h0.832c0.207 0 0.726-0.412 0.762-0.616l0.763-3.836c0.036-0.22-0.347-0.685-0.554-0.685zm41.019 4.657-1.455 3.904h1.109zm264.339-19.575h-1.833v4.099h-1.29v-4.099h-1.902v-0.849h5.025zm6.79 4.099h-1.291v-4.02l-1.118 4.02h-1.291l-1.119-3.998v3.998h-1.29v-4.948h1.888l1.165 3.788 1.178-3.788h1.878z" fill="#e60012"/>
</svg>
