<svg enable-background="new 0 0 3839 637.6" version="1.1" viewBox="0 0 3839 637.6" xml:space="preserve" xmlns="http://www.w3.org/2000/svg">
<path fill="#FDDB00" d="m520.2 457.8c164.4 0 186.2 71 186.2 96.3 0 29.8-46.4 83.5-186.2 83.5-144.6 0-179.8-60.5-179.8-83.5 0-24.1 12.2-96.3 179.8-96.3z"/><path fill="#73B744" d="m173.4 290.8c164.4 0 179.8 78.6 179.8 96.3s-33.6 83.5-173.4 83.5c-144.6 0-179.8-65.7-179.8-83.5s5.8-96.3 173.4-96.3z"/><path fill="#E11F26" d="m565.2 335.8s2.7-143.4 134.9-160.6 188.1 93.2 192.7 115.6c42.7 208.2-147.8 218.7-147.8 218.4-12.1-183-179.8-173.4-179.8-173.4z"/><path fill="#25A4DD" d="m231.2 162.4s2.7-143.4 134.9-160.6 188 93.2 192.6 115.6c42.9 208.2-147.7 218.7-147.7 218.4-12-183-179.8-173.4-179.8-173.4z"/><path d="m2095.2 377.7v33.4h135.7v62.3h-135.7v33.4h161.6v-129.1h-25.9zm-332.1 57.9h114.2c0 12.6-2.2 17.1-13.3 17.1h-44.5v12.6c0 5.9-1.5 11.9-15.6 11.9h-32.6v29.7h35.6c17.1 0 29.7-11.9 29.7-27.4v-2.2h27.4c19.3 0 33.4-14.1 33.4-34.8v-34.1h-134.2v27.2zm152-31.2 161.6 17.8v-28.9l-161.6-17.8zm0 42.3 161.6 17.8v-28.2l-161.6-17.8zm0 42.3 161.6 17.8v-28.9l-161.6-17.9zm-803.7-65.3v-46h-134.2v33.4h109.7v12.6c0 30.4-27.4 48.2-73.4 50.4h-41.5v33.4h45.2c28.9 0 51.9-11.9 67.5-27.4l18.5 27.4h39.3l-40.8-50.4c6-11.2 9.7-23 9.7-33.4zm1163.2-12.6h98.6v-33.4h-98.6zm138.7 7.4c0 43.7-21.5 54.9-57.1 54.9h-81.6v33.4h91.2c48.9 0 69.7-31.9 69.7-69.7v-60.1h-22.2zm-1110.6 8.2c0 28.2-11.9 47.4-53.4 47.4v33.4c71.2 0 77.1-45.2 77.1-75.6v-54.1h-24.5zm69.7 0v-48.9h-25.2v54.1c0 29.7 8.2 75.6 79.3 75.6v-33.4c-42.3-0.7-54.1-19.3-54.1-47.4zm220.2-15.6h130.4v20.8c0 34.1-22.2 41.5-69.7 41.5h-51.2v33.4h71.2c34.8 0 73.4-28.2 73.4-71.2v-58.6h-155v34.1zm-462.7 45.2h117.1v-28.9h-117.1zm301.8 0h117.9v-28.9h-117.9zm-3-57.8c0 13.3-11.1 24.5-24.5 24.5s-24.5-11.1-24.5-24.5c0-13.3 11.1-24.5 24.5-24.5 14.1 0 24.5 11.2 24.5 24.5zm-13.3 0c0-5.9-5.2-11.1-11.1-11.1s-11.1 5.2-11.1 11.1 5.2 11.1 11.1 11.1c5.9-0.7 11.1-5.2 11.1-11.1zm-391.5-159.4h83c30.4 0 31.1 45.2 0 45.2h-124.5v33.4h160.9c64.5 0 65.2-108.2-3-108.2h-83.8c-33.4 0-33.4-41.5 0-41.5h119.4v-33.4h-152.7c-71.2 0-69 104.5 0.7 104.5zm189.8-104.5v115.7c0 42.3 30.4 66.7 62.3 66.7h139.4v-182.4h-51.9v149h-60.8c-26.7 0-40-20.8-40-37.1v-112h-49zm370 114.9h-82.3v66.7h-51.9v-185.3h134.2c92.6 0 96.3 118.6 0 118.6zm-17.1-85.3h-65.2v56.3h65.2c41.5-0.7 40.8-56.3 0-56.3zm301 115.7h-100.1c-25.9 0-37.1-31.1-34.1-41.5h134.9v-33.4h-134.9c-3-11.1 7.4-41.5 33.4-41.5h100.8v-33.4h-110.5c-106 0-105.3 186.1 0 186.1h110.5zm477.5-115.7h89.7v-33.4h-109.7c-44.5 0-80.8 28.9-80.8 74.9v112h51.9v-75.6h138.6v-37.1h-137.9c0-28.9 16.3-40.8 48.2-40.8zm832.6-33.3c-109 0-122.3 186.1 12.6 186.1h92.7v-37.1h-93.4c-51.9 0-51.9-116.4 0-116.4h93.4v-33.4zm-282.5 0h-195v186.1h51.9v-153.5h56.3v153.5h48.2v-153.5h14.8c25.9 0 48.9 11.9 48.9 42.3v111.2h51.9v-120.2c0.8-45.2-26.6-65.9-77-65.9zm111.2 186h56.3v-186h-56.3zm530.1-92.6c0 51.2-30.4 97.1-119.4 97.1s-119.4-46-119.4-97.1c0-52.6 31.9-93.4 119.4-93.4s119.4 40.7 119.4 93.4zm-55.6-0.8c0-48.9-18.5-63.8-63.8-63.8-45.2 0-63.8 14.1-63.8 63.8 0 46.7 17.8 63.8 63.8 63.8s63.8-17.1 63.8-63.8zm-814.8-6.6v100.1h-145.3c-83.8 0-86-114.9-0.7-114.9h90.5c0-11.9-11.9-37.8-43.7-37.8h-98.6v-33.4h116.4c44.3 0.7 81.4 24.4 81.4 86zm-55.6 17.8h-74.9c-30.4 0-29.7 45.2 0 45.2h74.9v-23zm-656.9 82.2h-52.6v-186h135.6c94.2 0 103.1 94.2 27.4 112.7l59.3 74.1h-61.5l-47.4-70.4h-60.1zm0-104.5h75.6c33.4 0 34.1-48.9 0-48.9h-75.6zm1808.3-81.5h-195v186.1h51.9v-153.5h56.3v153.5h48.2v-153.5h14.8c25.9 0 48.9 11.9 48.9 42.3v111.2h51.9v-120.2c0.8-45.2-25.9-65.9-77-65.9z"/>
</svg>
