<svg version="1.1" viewBox="0 0 394.987 126.305" xmlns="http://www.w3.org/2000/svg"><path d="m366.78711 31.498047c-0.201 0-9.97266 5.293297-9.97266 5.904297 0 1.425998 4.98633 8.2e-5 4.98633 4.580078v44.482422c0 5.698994-4.98633 4.373267-4.98633 5.697265 0 0.508 0.50791 0.814453 1.62891 0.814453h12.31641c1.83299 1e-6 2.54492-0.205532 2.54492-1.019531 0-1.321998-5.36914 0.001854-5.36914-5.49414v-22.191407c0-5.598994 3.73908-9.769531 8.83007-9.769531 4.783 0 7.63477 3.560538 7.63477 9.769531v23.208985c0 4.579995-4.58203 3.054079-4.58203 4.580078 0 0.712999 0.30586 0.916015 1.63086 0.916015h9.97461c2.647 1e-6 3.5625-0.305141 3.5625-1.11914 0-1.120999-4.48047 4.2e-5 -4.48047-4.376953v-23.107422c0-8.244992-3.66132-13.537109-11.19531-13.537109-4.069-1e-6 -7.30005 1.728456-11.37305 5.189453v-18.728516c0-4.374996-0.02639-5.801828-1.15039-5.798828zm-121.22461 3.867187c-1.832 0-3.45998 2.137363-3.45898 5.19336 0 2.849997 1.72854 4.68164 3.56054 4.68164 2.137 0 3.35938-1.832159 3.35938-4.785156s-1.42594-5.089844-3.46094-5.089844zm-79.19336 0.294922-12.43164 44.082032-12.87305-43.871094h-10.89062c-1.323 0-1.93555 0.305016-1.93555 0.916015 0 2.036998 6.74805 0.254302 6.74805 4.529297l-1.32422 44.277344c-0.204 6.411994-6.44336 4.42633-6.44336 6.361328 0 0.612 0.71267 1.019531 2.13867 1.019531h10.48242c1.73 0 2.64649-0.202141 2.64649-1.11914 0-1.320999-6.41211 1.96e-4 -6.41211-6.716797l1.22266-40.001953 12.92968 44.36914c0.508 2.137998 0.71052 3.15625 1.72852 3.15625 0.815 0 0.91786-0.303174 1.63086-2.951171l12.61914-44.582032 1.63086 40.81836v1.220703c0 4.885995-5.70117 3.05472-5.70117 4.886719 0 0.712999 0.60959 0.916015 1.93359 0.916015h13.4375c1.324 0 1.93359-0.203016 1.93359-0.916015 0-1.220999-2.54483-0.610033-4.17383-1.832032-0.71399-0.508999-1.1187-2.136518-1.2207-4.478515l-1.83203-44.074219c0.101-4.681995 5.18945-2.849643 5.18945-4.681641 0-0.813999-0.71072-1.11914-2.13672-1.11914l-8.89648-0.208985zm130.59766 4.488282c-0.71 0-2.95208 4.580002-4.58008 7.125-1.935 2.950997-5.08984 6.005875-5.08984 6.921874 0 0.814 0.81432 1.222657 2.23632 1.222657h1.93555v28.601562c0 6.411994 2.23819 9.873047 6.61719 9.873047 3.36099 0 6.61773-2.340801 8.55273-6.716797l0.09961-0.30664c3.665 4.173995 7.02529 6.923828 12.11328 6.923828 8.34699 0 16.18555-9.7717 16.18555-21.679688-2e-3 -12.625987-7.73871-21.787109-16.5957-21.787109-8.549 0-16.1836 8.652887-16.1836 21.171875 0 3.868996 0.81344 7.839926 2.64844 12.419922l0.20117 0.507812c-1.018 2.950997-2.64469 4.884766-4.67969 4.884766-2.03799 0-2.95117-2.036972-2.95117-5.292969v-28.599609h5.4961c1.72999 0 2.54296-0.40647 2.54296-1.730469 0-1.425999-1.01797-1.730469-2.54296-1.730469h-5.4961v-10.28125c0-0.813999-0.10176-1.527343-0.50976-1.527343zm-35.32032 9.464843c-0.205 0-9.56836 6.210313-9.56836 6.820313 0 0.610999 0.71291 0.916015 1.62891 0.916015 2.748 0 3.15625-3.71e-4 3.15625 3.765625v24.632813c0 3.358997-0.20296 4.886719-4.37695 4.886719-3.461 0-4.07227-1.322644-4.07227-4.681641l0.10156-33.488281c1e-5 -1.423999-0.40657-2.035156-1.01757-2.035156-0.203 0-9.4668 5.191734-9.4668 5.802734 0 1.628998 4.58008-1.51e-4 4.58008 5.089844v24.53125c0 2.339997 0.0015 3.460438-0.8125 4.273437-1.221 1.118999-3.76758 0.510033-3.76758 1.832031 0 0.815 0.91649 1.017578 2.64648 1.017578h25.85352c1.527 0 2.34375-0.202141 2.34375-1.11914 0-1.321999-3.05408-0.610829-4.58008-1.423828-1.221-0.611-1.52734-2.138081-1.52734-4.580078l0.0039-23.308594c0-4.682995 3.96534-8.652344 9.36133-8.652344 4.173 0 7.22657 3.154271 7.22657 8.447266v24.83789c0 4.681996-4.68165 3.663642-4.68165 4.681641 0 0.915999 0.91541 1.119141 2.44141 1.119141h11.60352c1.221 0 1.83203-0.304579 1.83203-1.017578 0-1.526999-2.84988-0.611549-4.17188-1.935547-1.021-1.016999-1.12109-2.338643-1.12109-4.681641v-22.902344c0-7.532992-3.86738-12.011718-10.48438-12.011718-4.47899-1e-6 -7.53145 1.82991-12.31445 6.003906l-0.20508-4.070313c0-1.934998-3.3e-4 -2.749-0.61133-2.75zm87.43555 0.814453c-7.43399 0-13.0293 4.784147-13.0293 10.994141 0 4.069996 2.1351 7.122846 5.4961 9.464844l7.63476 5.291015c2.648 1.832999 4.17383 4.175956 4.17383 7.126954 0 4.682995-3.36039 8.24414-7.02539 8.24414-7.83699 0-7.22622-11.908203-10.07422-11.908203-1.121 0-1.52929 1.527268-1.52929 4.072266v6.410156c0 2.137998 3.15525 4.072265 10.28125 4.072265 8.04199 1e-6 13.63867-6.105788 13.63867-12.925781 0-4.581995-1.82991-7.839456-6.00391-10.689453l-7.22656-4.884766c-2.952-1.934998-4.07227-4.171986-4.07227-6.208984 0-4.070996 2.84955-6.716797 6.31055-6.716797 7.63399 0 6.10716 9.464844 9.16016 9.464844 0.813 0 1.12109-0.509345 1.12109-1.527344l-0.10156-8.140625c-4.071-1.730998-5.90591-2.137672-8.75391-2.138672zm-123.43164 0.304688c-9.56899 0-17.60937 8.348342-17.60937 21.986328 0 13.030987 7.02214 22.087891 15.36914 22.087891 5.59799 0 12.41796-5.395085 12.41796-11.705079 1e-5 -0.814999-0.30457-1.425781-1.01757-1.425781-1.731 0-1.62925 8.753907-9.36524 8.753907-6.51399 0-11.09375-6.715887-11.09375-18.421876 0-11.195988 4.88705-18.730468 9.87305-18.730468 6.10799 0 5.59816 10.382812 9.16016 10.382812 1.42399 0 1.83203-1.221173 1.83203-2.951172v-6.515625c-2.239-2.238997-5.19241-3.459937-9.56641-3.460937zm-29.92969 0.30664c-6.61499 0-17.60937 5.698993-17.60937 13.333985 0 1.933998 0.81359 2.544922 1.93359 2.544922 7.43099 0 4.68212-13.742188 13.53711-13.742188 2.238 0 3.05469 1.11894 3.05469 3.460938v10.585937l-8.95703 6.716797c-6.717 5.090995-9.36524 8.450176-9.36524 12.826172 0 3.664996 3.35888 7.632813 6.92188 7.632813 3.48199 0.015999 6.9866-2.124006 11.80859-7.125 0.916 4.579995 2.54379 7.124999 5.80078 7.125 2.443 0 7.42969-3.663708 7.42969-8.345704 2e-3 -0.607999-0.30055-1.016625-0.81055-1.015625-1.72999 0-1.63078 4.580079-4.17578 4.580079-1.629 0-2.34179-1.52619-2.34179-3.867188v-26.568359c0-6.108994-1.01657-8.142578-7.22657-8.142579zm122.31641 1.933594c6.00599 0 10.48242 6.921232 10.48242 19.949219-1e-3 11.809988-3.66441 18.628906-9.56641 18.628906-5.49899 0-10.18164-7.63495-10.18164-20.460937 0-11.805988 3.25964-18.117188 9.26563-18.117188zm-121.40234 17 0.00976 14.251953c-1.019 1.524999-4.28131 5.798829-7.94531 5.798829-2.342 0-3.96875-1.83102-3.96875-5.291016 0-4.274996 3.5573-8.958772 11.9043-14.759766z"/><path d="m13.692 110.8c6.898 9.755 14.72 15.408 19.117 15.5 9.05 0.202 16.928-5.916 23.417-5.751a0.608 0.608 0 0 0 0.208 0.012h0.16c0.067 0.012 0.135 0 0.202-0.012 6.495-0.165 14.365 5.959 23.429 5.75 4.403-0.097 12.219-5.744 19.117-15.498h-85.65" fill="#009ddd"/><path d="m5.296 95.43a76.918 76.918 0 0 0 8.39 15.37h85.65a77.076 77.076 0 0 0 8.39-15.37h-102.429" fill="#944d85"/><path d="m0.684 78.526c0.868 6.02 2.506 11.698 4.616 16.904h102.43c0.349-0.862 0.685-1.736 1.009-2.622-6.745-2.115-12.292-7.383-15.29-14.283h-92.764" fill="#c45152"/><path d="m6.109 44.716c-2.722 4.333-4.82 9.858-5.681 16.904h91.06c1.273-7.163 5.18-13.08 10.563-16.905h-95.942" fill="#f2bd2f"/><path d="m0.428 61.62c-0.312 2.543-0.46 5.28-0.422 8.233a67.33 67.33 0 0 0 0.679 8.678h92.767c-1.547-3.557-2.41-7.536-2.41-11.76 0-1.771 0.153-3.49 0.446-5.151h-91.06" fill="#e19433"/><path d="m77.757812 0.0078125c-2.718991 0.15721273-12.295537 2.647007-18.535156 9.609375-7.124993 7.9569925-6.678687 20.0697035-6.054687 20.5957035 0.629999 0.531999 12.29796-1.301071 19.251953-9.539063 6.946993-8.232992 6.678687-20.07765665 6.054687-20.59765612-0.07875-0.0664999335-0.328369-0.090818337-0.716797-0.068359375zm2.955079 29.1874995c-7.941108 0.004585-18.316959 5.522344-24.119141 5.613282h-0.160156c-6.187994-0.104-17.580883-6.368249-25.671875-5.53125-4.029996 0.415999-16.897352 3.087465-24.652344 15.439453h95.939455a27.194 27.194 0 0 1 3.02148-1.853516c-7.26499-11.440988-19.086689-13.206797-22.804685-13.591797-0.505687-0.051937-1.023327-0.076477-1.552734-0.076172z" fill="#76b845"/></svg>
