<svg enable-background="new 0 0 3840 1002.2" version="1.1" viewBox="0 0 3840 1002.2" xml:space="preserve" xmlns="http://www.w3.org/2000/svg">
<path d="m606 0c-24.99997 1.2999987-51.30003 8.8004047-79 22.900391-27.69997 14.099986-49.89924 31.69963-68.19922 52.599609s-31.70079 44.49924-41.80078 70.19922c-11.49999 30.39997-15.5 58.00003-11.5 85 26.99997 2 54.00081-3.99923 82.30078-18.19922 25.79998-12.69999 48.09885-30.29963 66.29883-52.59961s32.40079-46.59964 41.80078-73.599609c10.09999-29.59997 13.49961-58.000809 10.09961-86.300781zm-12.14453 241.68359c-11.85468-0.25312-24.00626 0.59219-36.15625 2.61719-13.49999 2-28.29845 6.09883-43.89844 10.79883-10.09999 4-22.90158 8.80079-39.10156 14.80078-16.19999 6.69999-27.69923 10.79883-33.69922 12.79883-10.79999 3.4-20.20001 5.40039-27 5.40039-8.79999 0-20.19923-1.99922-33.69922-6.69922-3.99999-1.3-16.9008-6.70001-39.80078-15.5-17.49998-6.69999-32.40001-12.1-44.5-15.5-16.89998-4-32.39923-6.09961-47.19922-6.09961-42.49996 0.7-81.70082 12.09963-118.80078 35.09961-37.099963 22.29998-66.09924 52.59965-87.699219 91.09961-28.099972 47.89995-42.300781 105.30085-42.300781 170.80078 0 58.69994 10.100021 118.70006 31 181.5 18.899981 57.39994 43.899249 107.99887 74.19922 151.79883 17.49998 26.29997 32.40001 46.60119 44.5 60.70117 17.49998 21.59998 35.10002 37.09845 52 47.89844 20.29998 12.89999 40.60119 18.99998 62.20117 18.99998 13.49999-0.7 27.69923-3.39842 41.19922-7.39842 6.69999-2 18.2008-6.70118 35.80078-14.20117 14.79999-6.09999 26.99884-10.8 37.79883-13.5 15.49998-4 31.70158-6.09961 48.60156-6.09961s33.09963 1.99961 48.59961 6.09961c9.39999 2.7 22.29884 7.40118 37.79883 14.20117 15.49998 6.69999 27.70079 10.8 35.80078 13.5 14.19999 4 28.29923 6.09842 43.19922 5.39842 21.59998 0 41.80119-6.09921 60.70117-18.1992 16.19998-10.79999 32.39885-25.60041 49.29883-45.90039 10.79999-12.79999 25.00119-32.39925 43.20117-58.69922 19.59998-29.69997 37.10002-61.40003 52-96.5 5.4-12.79999 11.5004-28.30041 16.90039-45.90039-10.79999-4-22.30157-10.1004-35.10156-18.90039-26.29997-17.49998-47.89963-39.09963-64.09961-64.09961-22.89998-34.39997-34.39961-74.20005-35.09961-119.5 0-37.09996 8.80002-72.90081 27-105.30078 12.79999-22.89998 30.4008-43.89885 51.30078-62.79883 9.39999-8.79999 19.59845-16.2004 30.39844-22.90039-25.59998-37.79996-60.09965-64.79924-102.59961-81.69922-24.29998-9.39999-51.30003-15.5-81-17.5-3.875-0.325-7.79258-0.53281-11.74414-0.61719zm2987.34373 51.7168c-2.8 0-8.8988 3.3004-18.2988 9.90039-9.3 6.59999-23.9008 13.59962-43.8008 21.09961-10.9 4-20.3 7-28 9s-11.5996 6.20001-11.5996 12.5c0 4.6 2 7.29922 6 8.19922s8.3004 2.30078 12.9004 4.30078c4.6 2.1 8.9004 5.59883 12.9004 10.79883 4 5.19999 6 14.10118 6 26.70117v429.90039c0 10.89999-0.8012 19.10001-2.2012 24.5-1.4 5.5-6.7004 9.99844-15.9004 13.39844-4.6 1.7-8.8 2.80039-12.5 3.40039-3.8 0.6-6.9 1.10117-9.5 1.70117s-4.8 1.6-6.5 3c-1.7 1.5-2.5996 4.19922-2.5996 8.19922 0 9.19999 5.2 13.80078 15.5 13.80078 6.9 0 16.1-0.90156 27.5-2.60156s25.3008-2.59961 41.8008-2.59961c16.4 0 30.3988 0.89961 41.7988 2.59961 11.5 1.7 20.1008 2.60156 25.8008 2.60156 9.7 0 14.5996-4.10157 14.5996-12.10156 0-5.1-1-8.59883-3-10.29883-2.1-1.7-4.5988-3.00039-7.7988-3.90039-3.2-0.8-6.8008-1.39922-10.8008-1.69922-4.1-0.2-8.0996-1.80117-12.0996-4.70117-5.1-3.5-8.6008-8.09883-10.3008-13.79883-1.7-5.69999-2.5996-12.90001-2.5996-21.5v-186.90039c0-30.99997 6.8004-54.0004 20.4004-68.90039s30.7996-22.40039 51.5996-22.40039c45.6 0 68.4004 34.70124 68.4004 104.20117v174c0 10.39999-0.8996 18.09883-2.5996 23.29883-1.7 5.19999-6.9 9.80078-15.5 13.80078-4 1.7-7.9016 2.80039-11.6016 3.40039s-6.9984 1.09922-9.8984 1.69922c-2.9 0.5-5.2004 1.70039-6.9004 3.40039s-2.5996 4.59961-2.5996 8.59961c0 9.19999 5.2 13.80078 15.5 13.80078 8 0 17.8996-0.90156 29.5996-2.60156s24.9992-2.59961 39.6992-2.59961c14.2 0 26.4996 0.89961 37.0996 2.59961 10.5 1.7 19.0008 2.60156 25.3008 2.60156 8.6 0 12.9004-4.10157 12.9004-12.10156 0-4.6-0.8012-7.8-2.2012-9.5s-3.4-2.99844-6-3.89844c-2.5-0.9-5.6-1.70156-9-2.60156-3.5-0.9-7.4996-3.1-12.0996-6.5-4.6-2.9-7.4996-6.89962-8.5996-12.09961-1.1-5.1-1.6992-12.30001-1.6992-21.5v-192.90039c0-43.69996-9.6008-77.29885-28.8008-100.79883s-46.1-35.30078-80.5-35.30078c-16.1 0-31.6 4.20001-46.5 12.5-15 8.29999-27.9008 19.70001-38.8008 34l-8.5996 11.20117c-2.9 3.5-5.2004 5.19922-6.9004 5.19922-1.1 0-1.6992-3.69923-1.6992-11.19922h0.3008v-179.90039c0-11.49999 0.3988-22.1004 1.2988-31.90039s1.3008-18.69923 1.3008-26.69922c0-5.19999-0.6012-9.20156-1.7012-12.10156s-4-4.29883-8.5-4.29883zm-1336.2988 51.40039c-10.3 0-19.2012 4.79962-26.7012 14.59961-7.5 9.69999-11.1992 20.59923-11.1992 32.69922 0 11.99999 3.6992 22.90118 11.1992 32.70117 7.5 9.69999 16.4012 14.59961 26.7012 14.59961s19.1992-4.79962 26.6992-14.59961c7.5-9.69999 11.2012-20.60118 11.2012-32.70117 0-11.99999-3.7012-22.89923-11.2012-32.69922s-16.3992-14.69961-26.6992-14.59961zm-1188.7012 6.89844c-8.1 0-12.0996 3.70118-12.0996 11.20117 0 4.6 1 7.6 3 9 2 1.5 4.8012 2.29961 8.2012 2.59961 3.5 0.3 7.4996 0.60039 12.0996 0.90039s9.3996 1.3 14.5996 3c8 2.9 13.2 6.90001 15.5 12 2.2 5.2 3.4004 14.3004 3.4004 27.40039 0 4.5-0.1004 8.19961-0.4004 11.09961s-0.4004 4.9-0.4004 6l-14.5996 292.40039c-1.1 25.69998-2.3004 47.19963-3.4004 64.59961-1.2 17.39998-2.8992 31.49884-5.1992 42.29883s-5.7008 18.7-10.3008 23.5c-4.6 4.89999-10.5996 7.30078-18.0996 7.30078-1.8 0-3.9-0.10039-6.5-0.40039-2.5-0.3-5.6-0.40039-9-0.40039-8.1 0-12.0996 4.3004-12.0996 12.90039 0 9.19999 6.8992 13.80078 20.6992 13.80078 6.3 0 13.9008-0.50117 22.8008-1.70117 8.9-1.1 19.0996-1.69922 30.5996-1.69922 13.2 0 24.9004 0.59922 34.9004 1.69922s18.2 1.70117 24.5 1.70117c14.3 0 21.5-4.60079 21.5-13.80078 0-8.59999-5.5004-12.90039-16.4004-12.90039-2.3 0-4.3 0.10039-6 0.40039-1.8 0.3-3.4992 0.40039-5.1992 0.40039-16.7 0-27.3004-6.1004-31.9004-18.40039s-6.9004-31.79964-6.9004-58.59961c0-6.29999 0.1004-13.4004 0.4004-21.40039s0.6988-16.80001 1.2988-26.5l14.6016-261.69922c0.6-10.89999 2.2992-16.30078 5.1992-16.30078 1.1 0 3.1 3.69962 6 11.09961l128.3008 389.20117c1.7 6.89999 6.2988 10.29883 13.7988 10.29883 6.3 0 10.9008-4.29845 13.8008-12.89844l126.5996-387.5c1.8-5.69999 3.4992-8.60156 5.1992-8.60156 2.9 0 4.3008 3.1004 4.3008 9.40039l6 316.5v19.70117c0 10.29999-0.3004 18.89923-0.9004 25.69922-0.6 6.89999-2.3996 12.39922-5.5996 16.69922-3.2 4.29999-7.8008 7.3-13.8008 9-6 1.8-14.4984 2.60156-25.3984 2.60156-8.6 0-12.9004 4.29845-12.9004 12.89844 0 9.19999 5.6992 13.80078 17.1992 13.80078 8.1 0 19.1012-1 33.2012-3 14-2 30.6-3 49.5-3 17.2 0 32.2992 1 45.1992 3 13 2 23.9992 3 33.1992 3 5.7 0 10.1008-1.30039 13.3008-3.90039 3.1-2.5 4.6992-5.6 4.6992-9 0-5.1-1.0984-8.59883-3.3984-10.29883s-5.3-2.7-9-3c-3.7-0.2-8.1008-0.50078-13.3008-0.80078-5.2-0.2-10.3-1.50078-15.5-3.80078-9.2-4-14.5004-9.49884-15.9004-16.29883-1.4-6.89999-2.4-18.00041-3-33.40039l-9.5-374.69922v-20.5c0-11.39999 0.8012-19.2 2.2012-23.5 1.4-4.29999 5.2996-7.80117 11.5996-10.70117 5.2-2.3 10.1996-3.60039 15.0996-3.90039s9.4004-0.69883 13.4004-1.29883 7.3004-1.6 9.9004-3 3.8984-4.4 3.8984-9c0-7.39999-4.0996-11.09961-12.0996-11.09961h-111.0996c-4.6 0-7.9004 1.29844-9.9004 3.89844s-3.5992 6.20078-4.6992 10.80078l-112.8008 341.90039c-2.3 6.39999-4.6004 9.5-6.9004 9.5-1.7 0-3.7-3.40079-6-10.30078l-114.5-347.90039c-1.1-3.5-2.6992-5.6-4.6992-6.5s-4.4008-1.29883-7.3008-1.29883v-0.20117h-113zm1733.7012 76.30078c-5 0-10.8012 5.69923-17.2012 17.19922-6.5 11.49999-16.3984 25.2008-29.8984 41.30078-7.8 8.59999-15.0016 15.49922-21.6016 20.69922-6.6 5.19999-12.3996 9.50039-17.5996 12.90039-5.2 3.5-9.1996 6.6-12.0996 9.5s-4.3008 6.1-4.3008 9.5c0 7.49999 5.2 11.20117 15.5 11.20117h15.5c5.7 0 9.2008 2.39883 10.3008 7.29883 1.1 4.89999 1.6992 11.4004 1.6992 19.40039l-3.3984 185.09961v36.20117c0 72.99993 22.3989 109.39844 67.2988 109.39844 13.2 0 25.6004-2.39883 37.4004-7.29883 11.8-4.89999 22.1-10.80118 31-17.70117s15.8996-13.79923 21.0996-20.69922 7.8008-12.40039 7.8008-16.40039c0-8.09999-2.8996-12.09961-8.5996-12.09961-2.8 0-5.9 1.10039-9 3.40039-3.2 2.3-6.8008 5.09922-10.8008 8.19922-4 3.2-8.4008 5.90117-13.3008 8.20117s-10.4988 3.39844-16.7988 3.39844c-13.2 0-22.1996-6.10001-27.0996-18.5-4.9-12.29999-7.3008-32.00003-7.3008-59v-217.89844c0-7.49999 3.4008-11.20117 10.3008-11.20117h65.3984c5.2 0 8.3-0.89961 9.5-2.59961 1.1-1.8 1.7012-4.9 1.7012-9.5v-17.30078c0-3.5-0.6012-5.69844-1.7012-6.89844-1.2-1.1-4.3-1.70117-9.5-1.70117h-64.5996c-7.5 0-11.1992-3.69923-11.1992-11.19922h-0.0996v-52.20117c0-6.29999-0.5008-11.39961-1.3008-15.09961s-3.1996-5.59961-7.0996-5.59961zm-521.5996 64c-2.2 0-4.6012 1.30039-7.2012 3.90039s-5.7988 5.9004-9.7988 9.90039c-4 4-9.0004 8.59883-14.9004 13.79883-6 5.19999-13.2012 10.3-21.7012 15.5-14.2 8.09999-25.2 14.09961-33 18.09961-7.7 3.99999-11.5996 9.20001-11.5996 15.5 0 5.69999 1.8996 8.7 5.5996 9 3.8 0.3 7.8016 1.20156 12.1016 2.60156s8.3996 4.69844 12.0996 9.89844c3.7 5.19999 5.5996 15.50001 5.5996 31v203.5c0 11.39999-0.7992 19.6-2.1992 24.5-1.4 4.89999-5.3016 9.1-11.6016 12.5-3.5 1.7-6.6 2.7-9.5 3s-5.5992 0.70078-8.1992 1.30078c-2.6 0.5-4.6 1.70039-6 3.40039-1.5 1.7-2.1992 4.59961-2.1992 8.59961 0 9.69999 4.2984 14.59961 12.8984 14.59961 6.3 0 14.6004-1 24.9004-3 10.2-2 22.8-3 37.5-3 13.6 0 26.4004 1 38.4004 3s22.3004 3 30.9004 3c10.3 0 15.5-4.59884 15.5-13.79883 0-3.99999-1-6.90156-3-8.60156-2.1-1.7-4.7008-2.99844-7.8008-3.89844-3.2-0.9-6.8992-1.60117-11.1992-2.20117s-8.7008-1.99883-13.3008-4.29883c-5.2-2.9-8.7988-6.90157-10.7988-12.10156-2-5.2-3-12.99884-3-23.29883v-314.30078c0-12.09999-2.8-18.09961-8.5-18.09961zm175.5996 2.80078c-5.1 0-11.1 4.59884-18 13.79883s-18.6012 18.6004-35.2012 28.40039c-14.3 8.59999-25.1992 15.10039-32.6992 19.40039s-11.1992 9.39962-11.1992 15.09961 1.8996 8.7 5.5996 9 7.9 1.09922 12.5 2.19922c4.6 1.2 8.8 4.3 12.5 9.5 3.7 5.19999 5.5996 15.50001 5.5996 31v203.10156c0 11.49999-0.8996 19.80001-2.5996 25-1.8 5.2-5.7996 9.19961-12.0996 12.09961-3.4 1.7-6.8004 2.7-9.9004 3-3.2 0.3-5.9012 0.69883-8.2012 1.29883-2.3 0.5-4.1996 1.70039-5.5996 3.40039-1.5 1.7-2.1992 4.59961-2.1992 8.59961 0 9.69999 4.5988 14.60156 13.7988 14.60156 6.3 0 14.6004-1 24.9004-3 10.2-2 22.8-3 37.5-3 14.2 0 27.0004 1 38.4004 3s21.1992 3 29.1992 3c10.3 0 15.5-4.3004 15.5-12.90039 0-5.09999-0.8996-8.60078-2.5996-10.30078s-4.1988-2.80039-7.2988-3.40039c-3.2-0.6-6.8008-0.99883-10.8008-1.29883-4-0.2-8.6008-1.80117-13.8008-4.70117-5.8-2.9-9.3988-7.00001-10.7988-12.5-1.5-5.4-2.2012-12.99884-2.2012-22.79883v-186.90039c0-30.99997 6.9008-54.00041 20.8008-68.90039 13.9-14.89999 31.7992-22.40039 53.6992-22.40039 23.7 0 41.9016 8.8008 54.6016 26.30078s19.0996 43.50043 19.0996 77.90039v174c0 10.39999-0.6012 18.29922-1.7012 23.69922-1.2 5.49999-5.1996 10.00039-12.0996 13.40039-3.4 1.7-6.8004 2.7-9.9004 3-3.2 0.3-5.9996 0.70078-8.5996 1.30078-2.6 0.5-4.6 1.69844-6 3.39844-1.5 1.7-2.1992 4.60157-2.1992 8.60156 0 9.69999 4.5988 14.59961 13.7988 14.59961 5.8 0 13.9-1 24.5-3s23.3-3 38-3c14.8 0 27.9008 1 39.3008 3s21.0992 3 29.1992 3c10.3 0 15.5-4.60079 15.5-13.80078 0-4.6-1-7.8-3-9.5s-4.7992-2.80039-8.1992-3.40039c-3.4-0.5-7.2996-1.09922-11.5996-1.69922s-8.5-2.00078-12.5-4.30078c-8.6-5.7-12.9004-17.49885-12.9004-35.29883v-185.09961c0-47.69995-9.7996-83.70159-29.5996-108.10156-19.7-24.39998-47.3008-36.59961-82.8008-36.59961-17.2 0-33.7004 4.09962-49.4004 12.09961s-29.5996 19.5004-41.5996 34.40039l-9.4004 11.20117c-2.9 3.5-5.1984 5.19922-6.8984 5.19922-1.8 0-2.6016-3.69923-2.6016-11.19922h-0.0996v-35.40039c0-6.29999-0.8996-10.90078-2.5996-13.80078s-3.3996-4.29883-5.0996-4.29883zm-701.2012 1.19922c-22.5 0-43.3992 3.89962-62.6992 11.59961-19.3 7.79999-35.9996 17.50079-50.0996 29.30078s-25.0008 24.89923-32.8008 39.19922c-7.8 14.39998-11.6992 27.90001-11.6992 40.5 0 4.59999 1.4992 8.30117 4.6992 11.20117s7.1012 4.29883 11.7012 4.29883c17.3 0 29.7996-4.99962 37.5996-15.09961 7.8-9.99999 14.7992-22.19962 21.1992-36.59961 8.1-18.29998 16.4996-32.59962 25.0996-42.59961 8.6-10.09999 20.4004-15.10156 35.4004-15.10156s24.3996 5.5004 28.0996 16.40039 5.6016 28.40002 5.6016 52.5v61.09961c0 6.29999-0.4008 10.70078-1.3008 13.30078s-3.5992 5.00078-8.1992 7.30078l-21.6016 11.19922c-20.7 10.29999-39.5996 20.60001-56.5996 31s-31.4996 21.39923-43.5996 33.19922c-12.2 11.79999-21.3992 24.90118-27.6992 39.20117s-9.5 31.00041-9.5 49.90039c0 21.79998 5.5988 38.89923 16.7988 51.19922s26.1 18.5 44.5 18.5c16.2 0 30.7996-4.40079 44.0996-13.30078 13.2-8.89999 27.3008-19.69884 42.3008-32.29883l18.1992-15.5h5.2012c6.3 19.49998 14.3992 34.1004 24.1992 43.90039 9.8 9.69999 22.2012 14.59961 37.2012 14.59961 7 0 14.5984-2.30039 22.8984-6.90039 8.4-4.6 16.1008-10.1004 23.3008-16.40039s13.3-12.8004 18.5-19.40039 7.8008-12.19883 7.8008-16.79883c0-8.59999-3.4008-12.90039-10.3008-12.90039-5.2 0-10.3 2.89962-15.5 8.59961-5.1 5.69999-10.8992 8.59961-17.1992 8.59961-9.8 0-15.8016-4.59884-18.1016-13.79883-2.3-9.09999-3.3984-22.9008-3.3984-41.30078h-0.3008v-199.59961c0-15.99998-0.8996-30.19962-2.5996-42.59961-1.7-12.29999-5.4012-22.70001-11.2012-31s-14.3-14.60039-25.5-18.90039-26.1-6.5-44.5-6.5zm308.1016 0.09961c-25.3 0-48.6008 4.79962-69.8008 14.59961s-39.5996 23.7008-55.0996 41.80078-27.6996 40.00003-36.5996 65.5c-9 25.49997-13.4004 54.40003-13.4004 86.5 0 30.99997 4.0996 59.00003 12.0996 84 8.1 24.99998 19.1996 46.19924 33.5996 63.69922 14.3 17.49998 31.3008 31.00001 50.8008 40.5s40.6992 14.20117 63.6992 14.20117c17.2 0 33.3012-2.89961 48.2012-8.59961 14.9-5.69999 27.6988-12.40118 38.2988-20.20117 10.6-7.69999 19-15.79962 25-24.09961s9-14.99922 9-20.19922c0-7.49999-3.7992-11.20117-11.1992-11.20117-1.7 0-4.5012 1.89961-8.2012 5.59961-3.7 3.79999-8.5996 7.9-14.5996 12.5-6 4.59999-13.5004 8.8-22.4004 12.5s-18.7992 5.60156-29.6992 5.60156c-17.3 0-33.1004-3.90157-47.4004-11.60156-14.4-7.69999-26.9-18.79845-37.5-33.39844-10.7-14.59998-19-32.50158-25-53.60156s-9-45.10003-9-72c0-26.29997 2.7012-49.69885 8.2012-70.29883 5.4-20.59998 12.4996-38.10119 21.0996-52.70117 8.6-14.59999 18.3988-25.69845 29.2988-33.39844s21.6004-11.60156 31.9004-11.60156c8 0 14.7012 1.90156 20.2012 5.60156 5.5 3.8 10.4996 8.79962 15.0996 15.09961s8.9004 14.19923 12.9004 23.69922 8.5988 19.69962 13.7988 30.59961c7.5 16.69998 15.2008 25 23.3008 25 6.9 0 12.4988-6.10001 16.7988-18.5 4.3-12.29999 6.5-29.39924 6.5-51.19922 0-7.49999-2.7992-14.39923-8.1992-20.69922s-12.6-11.90039-21.5-16.90039c-8.9-4.99999-19.3004-8.99961-31.4004-12.09961s-24.9988-4.60117-38.7988-4.70117zm1003.5996 0.59961c-27.5 0-52.5004 4.80157-74.9004 14.60156-22.4 9.69999-41.5992 23.49885-57.6992 41.29883-16 17.79998-28.4 39.29963-37 64.59961-8.6 25.19997-12.9 53.40042-13 84.40039 0 30.39997 4.2 58.20002 12.5 83.5 8.3 25.29997 20.0988 46.90002 35.2988 65s33.4012 32.20118 54.7012 42.20117c21.2 10.09999 44.7996 15.09961 70.5996 15.09961 28.7 0 54.5-4.79962 77.5-14.59961 22.9-9.69999 42.2996-23.5008 58.0996-41.30078s27.9996-39.29963 36.5996-64.59961c8.6-25.19997 12.9004-53.10003 12.9004-83.5 0-30.99997-4.2-59.10042-12.5-84.40039-8.3-25.19997-20.1008-46.90002-35.3008-65s-33.7-32.19923-55.5-42.19922c-21.8-10.09999-45.8988-15.10156-72.2988-15.10156zm309.6992 0c-34.4 0-62.6988 10.40041-84.7988 31.40039-22.2 20.89998-33.2012 49.20082-33.2012 84.80078 0 14.39999 1.8996 26.90001 5.5996 37.5s9.3008 20.1004 16.8008 28.40039c7.5 8.39999 16.6996 16.09884 27.5996 23.29883s23.5004 14.50001 37.9004 22c12.6 6.89999 24.1004 13.4004 34.4004 19.40039 10.4 5.99999 19.0988 12.3004 26.2988 18.90039s12.7004 14.1004 16.4004 22.40039 5.5996 17.89884 5.5996 28.79883c0 21.19998-5.8992 38.20079-17.6992 50.80078s-26.7992 18.90039-45.1992 18.90039c-29.9 0-52.8004-17.50003-68.9004-52.5-4.6-9.79999-7.9004-18.60079-9.9004-26.30078-2.1-7.69999-3.7992-14.30079-5.1992-19.80078-1.4-5.5-3.0012-9.6-4.7012-12.5s-4.5996-4.29883-8.5996-4.29883c-6.3 0-10.0992 5.3004-11.1992 15.90039s-1.7012 27.69924-1.7012 51.19922v21.5c0 7.99999 0.5012 14.3004 1.7012 18.90039 1.2 4.6 4.3 8.29922 9.5 11.19922 8 5.19999 19.7988 9.90118 35.2988 14.20117 15.5 4.3 33 6.5 52.5 6.5s37.4008-3.1004 53.8008-9.40039c16.3-6.29999 30.4996-15.30001 42.5996-27s21.4-26.2008 28-43.30078 9.9004-36.59885 9.9004-58.29883c0-27.99997-6.6008-51.30041-19.8008-69.90039s-33.9-35.30119-62-50.20117c-13.2-6.79999-25.0992-12.99844-35.6992-18.39844-10.6-5.39999-19.5996-11.00118-27.0996-16.70117-7.4-5.69999-13.2012-11.8004-17.2012-18.40039-4-6.49999-6-14.69845-6-24.39844 0-14.79998 5.0996-27.0004 15.0996-36.40039 10-9.49999 23.3-14.20117 40-14.20117 23.5 0 42.4008 12.30002 56.8008 37 6.9 11.99999 10.8996 22.10157 12.0996 30.10156 1.2 8.09999 4.9012 12.09961 11.2012 12.09961 5.7 0 9.4992-4.70118 11.1992-14.20117 1.7-9.39999 2.5996-24.19885 2.5996-44.29883 0-15.09998-6.5988-26.30118-19.7988-33.70117s-37.9012-11.1-74.2012-11zm-313 24c30.4 0 55.3 17.1012 74.5 51.20117s28.8008 81.70006 28.8008 142.5c0 53.39995-8.9996 94.80042-27.0996 124.40039s-42.9001 44.39844-74.5 44.39844c-31 0-56.1008-16.99925-75.3008-51.19922-19.3-34.09997-28.9004-81.60006-28.9004-142.5 0-53.99995 8.9012-95.60042 26.7012-124.90039 17.7-29.19997 42.9988-43.90039 75.7988-43.90039zm-1300.0996 176.60156c2.8 0 4.3008 3.39884 4.3008 10.29883v68c0 11.49999-1.9016 21.80001-5.6016 31s-8.4992 17.10118-14.1992 23.70117-12.0004 11.8-18.9004 15.5-13.7992 5.59961-20.6992 5.59961c-9.8 0-17.7012-4.3004-23.7012-12.90039s-9-21.20041-9-37.90039c0-40.19996 16.9008-68.89963 50.8008-86.09961l28.4004-13.80078c4-2.2 6.8996-3.39844 8.5996-3.39844z"/>
</svg>
