<svg enable-background="new 0 0 3840 670.5" version="1.1" viewBox="0 0 3840 670.5" xml:space="preserve" xmlns="http://www.w3.org/2000/svg">
<path d="m983.19922 0c-96.5999 0-122.49885 5.00002-144.29883 25-20.89998 18.899981-26.90039 42.799664-26.90039 97.59961v77.70117c0 82.69992 10.89928 103.60004 75.69922 140.5l58.80078 32.89844c1 1 7.9004 4 16.90039 9 23.89998 12.89999 26.90039 17.9008 27.90039 42.80078l1 13.90039v73.69922 16.90039c0 18.89998-6.9004 29.90039-19.90039 29.90039-14.89998 0-20.90039-11.00042-20.90039-37.90039v-16.90039-111.59961h-139.5v119.59961c0 44.79995 0 59.70118 2 72.70117 3 24.89998 8.9004 40.89884 21.90039 54.79883 21.89998 24.89997 44.80008 29.90039 127.5 29.90039 103.59991 0 127.50041-6.00042 149.40041-35.90039 15.9-20.89998 19.8984-39.79967 19.8984-97.59961v-106.59961c0-89.59991-10.9993-107.60043-89.6992-151.40039l-59.69922-33c-25.89997-13.89999-31.90039-21.9008-31.90039-43.80078v-48.79883c0-21.89998 1-26.9004 3-32.90039 3-6.99999 10.9004-12 17.90039-12 6.89999 0 12.89844 5.00001 16.89844 12 2 5 3 12.00041 3 32.90039v78.69922 0.09961h140.40038v-93.69922c0-61.799938-4.0004-82.699631-20.9004-104.599609-20.9-27.8999725-43.8001-33.900391-128.49998-33.900391zm1703.40038 1.9003906c-63.3999 0-98 35.5988954-98 102.7988294v461c0 67.29993 34.6001 102.80039 98 102.90039h277.5996v-175.79883h-70.0996v109.39844h-190.1992c-28.8 0-40.3008-18.19926-40.3008-54.69922v-424.5c0-36.499964 11.5008-54.699219 40.3008-54.699219h190.1992v102.599609h70.0996v-168.9999994h-277.5996zm875.9004 0c-63.3999 0-98 35.5988954-98 102.7988294v461c0 67.29993 34.6005 102.80039 97.9004 102.90039h277.5996v-175.79883h-70.0996v109.39844h-190.2012c-28.8 0-40.2988-18.19926-40.2988-54.69922v-424.5c0-36.499964 11.4988-54.699219 40.2988-54.699219h190.2012v102.599609h70.0996v-168.9999994h-277.5zm-559 0.0996094v66.199219h58.5996v534.000001h-58.5996v66.40039h194v-66.29883h-60.5v-242h184.4004c63.3999 0 98-35.60085 98-102.80078v-152.69922c0-67.299931-34.6001-102.80078-98-102.80078h-317.9004zm-2919.800781 2-83.699219 664.5h131.40039l10-131.5h53.79883l11 131.5h132.5l-82.69922-664.5h-172.300781zm264.000001 0v664.5h126.5v-378.59961l52.80078 378.59961h81.69922l49.80078-376.59961v376.59961h126.5v-664.5h-184.30078l-34.79883 293.90039-32.90039-293.90039h-185.30078zm793.70118 0v107.59961h70.6992v556.90039h140.5 0.0996v-556.90039h68.7012v-107.59961h-280zm288.5996 0v664.5h140.3008v-265h6c34.8999 1 34.8984 8.5e-4 34.8984 65.80078v199.29883h139.5v-172.40039c0-77.79992-1.8984-95.69963-14.8984-118.59961-9.9-17.99998-23.9008-28.9004-47.8008-36.90039 48.9-12.99999 62.8008-44.80009 62.8008-137.5v-69.69922c0-100.599899-23.9001-126.500002-121.5-128.5l-49.8008-1h-149.5zm408.4004 0-83.7012 664.5h131.5l10-131.5h53.8008l11 131.5h132.5l-82.6992-664.5h-172.4004zm264 0v664.59961h117.5996l70.6992-1c68.7999 0 96.7016-9.00042 115.6016-36.90039 15.9-23.89998 18.8984-45.80008 18.8984-127.5v-327.79883c0-91.699908-4.9984-117.600023-25.8984-141.499999-22.9-26.8999735-39.8005-29.900391-160.4004-29.900391h-136.5zm1034.5996 64.300781h167.0996c28.8 0 40.3008 18.199255 40.3008 54.699219v116.30078c0 36.49996-11.5008 54.69922-40.3008 54.69922h-167.0996v-225.699219zm-1566.5996 44.298829h6 9c18.9 0 24.9004 7.00041 24.9004 30.90039l1 17.90039v71.69922c0 42.79996-4.0004 48.80078-30.9004 48.80078-1.9 0-4.9-3.9e-4 -10 0.09961v-169.40039zm685.4004 0c21.9 0 26.8984 7.00042 26.8984 36.90039v16.90039 311.79883 32.90039 13.90039c0 27.89997-4.9984 34.90039-26.8984 34.90039h-13v-446.30078c5 0 10-1 13-1zm-2087.40041 56.80078 19 258h-37.90039l18.90039-258zm1754.69921 0 19 258h-37.9004l18.9004-258z"/>
</svg>
