<svg enable-background="new 0 0 3840 987.9" version="1.1" viewBox="0 0 3840 987.9" xml:space="preserve" xmlns="http://www.w3.org/2000/svg">
<path d="m1616.2 987.9 474.6-987.9h-526.5l-489.2 987.9z" fill="#c0214e"/><path d="m983.5 158.80078c-96.6999 0-122.60002 4.99846-144.5 24.89844-20.89998 18.89998-26.90039 42.80162-26.90039 97.60156v77.69922c0 82.69992 10.90124 103.60004 75.70117 140.5l58.79883 32.90039c1 1 7.9004 4.00001 16.90039 9 23.89998 12.89999 26.90039 17.89885 27.90039 42.79883l1 13.90039v90.59961c0 18.89998-6.9004 29.90039-19.90039 29.90039-14.89999 0-20.90039-11.00042-20.90039-37.90039v-128.5h-139.5v119.5c0 44.79995 0 59.70118 2 72.70117 3 24.89998 8.9004 40.89884 21.90039 54.79883 21.89998 24.89997 44.80008 29.90039 127.5 29.90039 103.5999 0 127.5004-6.00042 149.4004-35.90039 15.9-20.89998 19.9004-39.79967 19.9004-97.59961v-106.59961c0-89.59991-11.0013-107.60043-89.7012-151.40039l-59.79882-32.90039c-25.89997-13.89999-31.90039-21.89885-31.90039-43.79883v-48.80078c0-21.89998 1-26.9004 3-32.90039 3-6.99999 10.9004-12 17.90039-12 6.89999 0 12.89844 5.00001 16.89844 12 2 4.99999 3 12.00041 3 32.90039v78.90039h140.70118v-93.69922c0-61.79994-4.0004-82.70158-20.9004-104.60156-20.9-27.89997-43.8001-33.89844-128.5-33.89844zm1703.0996 3.79883c-63.3999 0-98 35.60085-98 102.80078v461c0 67.29993 34.6001 102.79883 98 102.79883h277.5996v-175.79883h-70.0996v109.5h-190.1992c-28.8 0-40.3008-18.20121-40.3008-54.70117v-424.5c0-36.49996 11.5008-54.69922 40.3008-54.69922h190.1992v102.59961h70.0996v-169h-277.5996zm875.9004 0c-63.3999 0-98 35.60085-98 102.80078v461c0 67.29993 34.6005 102.79883 97.9004 102.79883h277.5996v-175.79883h-70.0996v109.5h-190.2012c-28.8 0-40.2988-18.20121-40.2988-54.70117v-424.5c0-36.49996 11.4988-54.69922 40.2988-54.69922h190.2012v102.59961h70.0996v-169h-277.5zm-3478.800781 0.09961-83.699219 664.5h131.40039l10-131.5h53.79883l11 131.5h132.5l-82.69922-664.5h-172.300781zm264.000001 0v664.5h126.5v-378.59961l52.80078 378.59961h81.69922l49.80078-376.59961v376.59961h126.5v-664.5h-184.19922l-34.90039 293.90039-32.90039-293.90039h-185.30078zm793.70118 0v107.60156h70.6992v556.89844h140.5996v-556.89844h68.7012v-107.60156h-280zm288.5996 0v664.40039h140.3008v-265h6c34.8999 1 34.8984 8.5e-4 34.8984 65.80078v199.40039h139.5v-172.40039c0-77.79992-1.8984-95.69963-14.8984-118.59961-9.9-17.99998-23.9008-28.9004-47.8008-36.90039 48.9-12.99999 62.8008-44.80009 62.8008-137.5v-69.70117c0-100.5999-23.9001-126.5-121.5-128.5l-49.8008-1h-149.5zm408.4004 0-83.7012 664.5h131.5l10-131.5h53.8008l11 131.5h132.5l-82.6992-664.5h-172.4004zm264 0v664.60156h117.5996l70.6992-1c68.7999 0 96.7016-9.00042 115.6016-36.90039 15.9-23.89998 18.8984-45.80008 18.8984-127.5v-327.80078c0-91.69991-4.9984-117.60002-25.8984-141.5-22.9-26.89997-39.8005-29.90039-160.4004-29.90039h-136.5zm901.0996 0v66.30078h58.5996v533.90039h-58.5996v66.40039h194v-66.30078h-60.5v-242h184.4004c63.3999 0 98-35.60085 98-102.80078v-152.69922c0-67.29993-34.6001-102.80078-98-102.80078h-317.9004zm133.5 66.30078h167.0996c28.8 0 40.3008 18.19926 40.3008 54.69922v116.20117c0 36.49996-11.5008 54.69922-40.3008 54.69922v0.09961h-167.0996v-225.69922zm-1566.5996 42.30078h15c18.9 0 24.9004 6.99846 24.9004 30.89844l1 17.90039v71.70117c0 42.79996-4.0004 48.79883-30.9004 48.79883-1.9 0-4.9-3.9e-4 -10 0.09961v-169.39844zm685.4004 0c21.9 0 26.8984 6.99847 26.8984 36.89844v375.5c0 27.89997-4.9984 34.90039-26.8984 34.90039h-13v-446.29883c5 0 10-1 13-1zm-2087.40041 56.79883 19 258h-37.90039l18.90039-258zm1754.69921 0 19 258h-37.9004l18.9004-258z"/>
</svg>
