<?xml version="1.0" encoding="utf-8"?>
<!-- Generator: Adobe Illustrator 25.0.0, SVG Export Plug-In . SVG Version: 6.00 Build 0)  -->
<svg version="1.1" id="Layer_1" xmlns="http://www.w3.org/2000/svg" xmlns:xlink="http://www.w3.org/1999/xlink" x="0px" y="0px"
	 viewBox="0 0 3840 987.9" style="enable-background:new 0 0 3840 987.9;" xml:space="preserve">
<style type="text/css">
	.st0{fill:url(#SVGID_1_);}
	.st1{fill:#FF4864;}
	.st2{fill:#28B872;}
	.st3{fill:#3EA9EF;}
	.st4{fill:#C0214E;}
	.st5{fill:url(#SVGID_2_);}
	.st6{fill:#FFFFFF;}
	.st7{fill:url(#SVGID_3_);}
</style>
<g>
	<g>
		<path d="M2588.6,726.4v-461c0-67.2,34.6-102.8,98-102.8h277.6v169h-70.1V229h-190.2c-28.8,0-40.3,18.2-40.3,54.7v424.5
			c0,36.5,11.5,54.7,40.3,54.7h190.2V653.4h70.1v175.8h-277.6C2623.2,829.2,2588.6,793.7,2588.6,726.4z"/>
		<path d="M3003.5,762.9h58.6V229h-58.6v-66.3h317.9c63.4,0,98,35.5,98,102.8v152.7c0,67.2-34.6,102.8-98,102.8H3137v242h60.5v66.3
			h-194V762.9z M3304.1,454.6c28.8,0,40.3-18.2,40.3-54.7V283.7c0-36.5-11.5-54.7-40.3-54.7H3137v225.7H3304.1z"/>
		<path d="M3464.5,726.4v-461c0-67.2,34.6-102.8,98-102.8H3840v169h-70.1V229h-190.2c-28.8,0-40.3,18.2-40.3,54.7v424.5
			c0,36.5,11.5,54.7,40.3,54.7h190.2V653.4h70.1v175.8h-277.6C3499.1,829.2,3464.5,793.7,3464.5,726.4z"/>
	</g>
	<g>
		<g>
			<polygon class="st4" points="1564.3,0 1075.1,987.9 1616.2,987.9 2090.8,0 			"/>
		</g>
		<g>
			<path d="M338.7,827.2H206.2l-11-131.5h-53.8l-10,131.5H0l83.7-664.5H256L338.7,827.2z M168.4,328.1l-18.9,258h37.9L168.4,328.1z"
				/>
			<path d="M785,827.2H658.5V450.6l-49.8,376.6H527l-52.8-378.6v378.6H347.7V162.7H533l32.9,293.9l34.9-293.9H785V827.2z"/>
			<path d="M992.2,390.8v-78.7c0-20.9-1-27.9-3-32.9c-4-7-10-12-16.9-12c-7,0-14.9,5-17.9,12c-2,6-3,11-3,32.9v48.8
				c0,21.9,6,29.9,31.9,43.8l59.8,32.9c78.7,43.8,89.7,61.8,89.7,151.4v106.6c0,57.8-4,76.7-19.9,97.6
				c-21.9,29.9-45.8,35.9-149.4,35.9c-82.7,0-105.6-5-127.5-29.9c-13-13.9-18.9-29.9-21.9-54.8c-2-13-2-27.9-2-72.7V552.2h139.5
				v111.6v16.9c0,26.9,6,37.9,20.9,37.9c13,0,19.9-11,19.9-29.9v-16.9v-73.7l-1-13.9c-1-24.9-4-29.9-27.9-42.8c-9-5-15.9-8-16.9-9
				l-58.8-32.9c-64.8-36.9-75.7-57.8-75.7-140.5v-77.7c0-54.8,6-78.7,26.9-97.6c21.9-19.9,47.8-24.9,144.5-24.9
				c84.7,0,107.6,6,128.5,33.9c16.9,21.9,20.9,42.8,20.9,104.6v93.7H992.2z"/>
			<path d="M1352.6,827.2h-140.5V270.3h-70.7V162.7h280v107.6h-68.7V827.2z"/>
			<path d="M1579.5,162.7l49.8,1c97.6,2,121.5,27.9,121.5,128.5v69.7c0,92.7-13.9,124.5-62.8,137.5c23.9,8,37.9,18.9,47.8,36.9
				c13,22.9,14.9,40.8,14.9,118.6v172.4h-139.5V627.9c0-65.8,0-64.8-34.9-65.8c-2,0-3,0-6,0v265H1430V162.7H1579.5z M1580.4,440.6
				c26.9,0,30.9-6,30.9-48.8v-71.7l-1-17.9c0-23.9-6-30.9-24.9-30.9h-9h-6v169.4C1575.5,440.6,1578.5,440.6,1580.4,440.6z"/>
			<path d="M2093.5,827.2H1961l-11-131.5h-53.8l-10,131.5h-131.5l83.7-664.5h172.4L2093.5,827.2z M1923.1,328.1l-18.9,258h37.9
				L1923.1,328.1z"/>
			<path d="M2238.9,162.7c120.6,0,137.5,3,160.4,29.9c20.9,23.9,25.9,49.8,25.9,141.5v327.8c0,81.7-3,103.6-18.9,127.5
				c-18.9,27.9-46.8,36.9-115.6,36.9l-70.7,1h-117.6V162.7H2238.9z M2255.8,718.6c21.9,0,26.9-7,26.9-34.9c0-4,0-7,0-13.9
				c0-11,0-22.9,0-32.9V325.1v-16.9c0-29.9-5-36.9-26.9-36.9c-3,0-8,1-13,1v446.3C2247.9,718.6,2252.8,718.6,2255.8,718.6z"/>
		</g>
	</g>
</g>
</svg>
