<svg enable-background="new 0 0 3840 1806.2" version="1.1" viewBox="0 0 3840 1806.2" xml:space="preserve" xmlns="http://www.w3.org/2000/svg">
<path d="m637.26172 0.24804688c-126.27086-1.24383315-312.27504 15.94937712-320.82617 134.5058631-8.34823 115.48387 156.4521 143.15617 264.66992 168.35547 105.43507 24.5809 204.22265 33.39404 204.22265 69.8789 0 25.66309-34.78408 45.7596-126.92382 38.80274-111.00056-8.34824-205.30558-38.64963-299.45508-85.3379l-62.61133 102.65235c104.35291 40.81358 241.32504 73.58985 364.69336 75.59961 146.71244 2.47355 312.28577-21.17992 315.99609-146.86719 3.24654-104.81668-105.43387-141.45729-296.51562-178.56055-93.22193-18.08783-172.37695-29.37314-172.37695-59.51953 0-33.392923 64.00358-42.049849 154.75195-32.464841 85.80127 9.121216 166.65632 31.537211 242.09961 63.693361l57.35547-93.994142c-60.91117-23.189533-186.59891-53.0269034-300.69141-56.273438-7.8168-0.22223303-15.97061-0.38778092-24.38867-0.47070312zm2149.33598 0.421875c-131.2528 0-215.6633 8.96653372-287.5508 21.17968712v468.275391h161.2441v-397.160156c58.1285-11.44017 117.0294-11.750148 139.1367-10.667969 64.0032 2.782743 100.026 12.831492 128.9356 33.238285 29.8373 21.17977 37.8757 68.17692-0.7735 100.79687-28.9096 24.27171-87.6577 43.4433-218.7558 23.3457l-18.5508 30.45508 248.1289 220.14649h219.6817l-220.7637-190.92774c53.0267-6.95686 133.4158-28.13687 171.7558-78.38086 38.4947-50.39858 33.2389-124.14075-40.5039-166.3457-68.7956-39.422207-200.048-53.95507813-281.9843-53.95507812zm701.7988 0.13671874c-131.2528 0-216.7455 8.96653378-288.4785 21.17968738v468.273442h161.2461v-171.60157c49.9348 8.34823 112.391 13.13927 166.5 12.83008 132.0256-1.08218 230.0402-32.1558 274.7187-80.69922 63.5393-69.2594 42.2044-152.896764-30.9199-196.029294-65.7037-38.958415-188.6077-53.95312538-283.0664-53.95312538zm-1500.2735 14.33007838-289.4042 474.921871h123.3671l59.211-97.24023h333.6211l57.3554 97.24023h196.9551l-289.25-474.921871h-191.8555zm-954.0644 0.037109v474.921872h161.3984v-190.77148h312.1328v190.77148h161.2442v-474.921872h-161.2442v181.652342h-312.1328v-181.652342h-161.3984zm2444.3516 66.640625c9.6188-0.077298 17.4844 0.078652 22.9726 0.310547 64.3122 2.782744 101.8793 13.604473 129.8613 33.23828 28.9096 20.56138 38.6488 69.41386-0.7734 101.72461-27.8275 22.88034-68.6411 30.91827-132.7988 30.76367-47.4613-0.1546-96.4675-8.81042-136.3535-17.93164v-136.974608c43.5963-8.580127 88.2353-10.898963 117.0918-11.130859zm-1427.6758 33.037107 108.8379 184.43555h-221.2285l112.3906-184.43555z" stroke-width="1.54597"/><path fill="#ED001D" d="m296.40039 578.40039 708.90041 1227.79881h2125.8984l708.8008-1227.79881h-1187.9004l-312.9004 312.90039h344.9004l-348.5 603.69922-535.1992-0.5996-528.8008-916.00001h-975.19921zm1069.69921 0 333.3008 577.29881 577.2988-577.29881h-910.5996zm-889.99999 103.69922h735.59959l529.2012 916.59959h654.6992l468.3008-811.09959h-274.0996l105.5-105.5h965.0996l-589.2012 1020.40039h-2006.0996l-588.99999-1020.40039zm1069.70119 0h480.5l-304.6016 304.70117-175.8984-304.70117zm-968.50002 546.80079-577.30078 577.2988h910.69922l-333.39844-577.2988zm-22.20117 169 175.80078 304.5996h-480.40039l304.59961-304.5996z"/>
</svg>
