<?xml version="1.0" encoding="utf-8"?>
<!-- Generator: Adobe Illustrator 26.0.3, SVG Export Plug-In . SVG Version: 6.00 Build 0)  -->
<svg version="1.1" id="Layer_1" xmlns="http://www.w3.org/2000/svg" xmlns:xlink="http://www.w3.org/1999/xlink" x="0px" y="0px"
	 viewBox="0 0 3839 1062.1" style="enable-background:new 0 0 3839 1062.1;" xml:space="preserve">
<style type="text/css">
	.st0{fill:none;stroke:#000000;stroke-width:29.0143;stroke-miterlimit:10;}
	.st1{fill:none;stroke:#000000;stroke-width:30.4864;stroke-miterlimit:10;}
	.st2{fill:none;stroke:#000000;stroke-width:18.6654;stroke-miterlimit:10;}
	.st3{fill:none;stroke:#000000;stroke-width:19.2639;stroke-miterlimit:10;}
	.st4{fill:#FFFFFF;}
	.st5{fill:none;stroke:#FFFFFF;stroke-width:29.0143;stroke-miterlimit:10;}
	.st6{fill:none;stroke:#FFFFFF;stroke-width:30.4864;stroke-miterlimit:10;}
	.st7{fill:none;stroke:#FFFFFF;stroke-width:18.6654;stroke-miterlimit:10;}
	.st8{fill:none;stroke:#FFFFFF;stroke-width:19.2639;stroke-miterlimit:10;}
</style>
<g>
	<g>
		<g>
			<path d="M3073.1,958.2c12.8,0.5,26.1-4,26.1-18.5c0-9.9-7.7-16.7-18.3-16.7c-13.3,0-19.9,11.9-19.5,24.1h-19.2
				c1-22.9,15.3-40.1,39-40.1c18.4,0,37.2,10.6,37.2,31.5c0,11.8-5.4,21.2-16.6,25.3v0.3c13.3,2.7,21.3,14.3,21.3,29.5
				c0,22.2-19.1,36.1-41.7,36.1c-27.3,0-40.9-16.5-41.4-41.1h19.2c-0.5,14.3,7.2,25.1,22.2,25.1c12.8,0,22.5-7.6,22.5-21.1
				c0-18.4-15.7-20.7-30.8-20.1V958.2z"/>
			<path d="M2129.1,907h53.2c34.5,0,41,22.3,41,37.3c0,14.8-6.6,37.1-41,36.9h-32.1v46.2h-21.1V907z M2150.2,964h30.9
				c9.4,0,21.1-4.7,21.1-19.9c0-15.8-9.6-19.9-20.7-19.9h-31.3V964z"/>
			<line class="st3" x1="2245.6" y1="1027.5" x2="2245.6" y2="907"/>
			<path d="M2349.6,1008.1c0,4.7,1,6.6,4.6,6.6c1.2,0,2.7,0,4.7-0.3v13.3c-2.8,1-9,2.2-12.1,2.2c-7.7,0-13.3-2.7-14.8-10.6
				c-7.6,7.4-20,10.6-30.3,10.6c-15.7,0-29.9-8.4-29.9-25.5c0-21.8,17.4-25.3,33.6-27.2c13.8-2.5,26.1-1,26.1-12.3
				c0-10-10.3-11.8-18.1-11.8c-10.8,0-18.4,4.4-19.2,13.9h-19.3c1.4-22.5,20.4-29,39.7-29c17,0,34.9,6.9,34.9,25.3V1008.1z
				 M2330.3,983.8c-5.9,3.9-15.2,3.7-23.6,5.2c-8.3,1.3-15.7,4.4-15.7,14.5c0,8.6,11,11.1,17.7,11.1c8.5,0,21.6-4.4,21.6-16.5V983.8
				z"/>
			<path d="M2357.6,940.2h21.1l22.8,65.2h0.3l22.1-65.2h20.1l-33.9,92c-6.3,15.7-10.8,29.8-30.9,29.8c-4.6,0-8.9-0.3-13.3-1v-16.2
				c3,0.5,6.1,1.2,9.1,1.2c8.9,0,11.2-4.7,13.5-12.1l2.2-6.8L2357.6,940.2z"/>
			<path d="M2469.3,987.4c0,18.6,13.6,25.8,30.5,25.8c18.6,0,25.5-9.1,25.5-18.2c0-9.3-5.1-13-10-14.8c-8.4-3.2-19.4-5.4-36-10
				c-20.6-5.6-26.7-18.1-26.7-30.6c0-24.1,22.3-35.5,44.1-35.5c25.1,0,46.2,13.3,46.2,38.5h-21.1c-1-15.6-11.4-21.3-26-21.3
				c-9.8,0-22.1,3.5-22.1,15.7c0,8.4,5.8,13.1,14.4,15.5c1.9,0.5,28.5,7.4,34.8,9.3c15.9,4.7,23.5,18.2,23.5,30.7
				c0,27-24,37.8-48,37.8c-27.5,0-49.8-13.1-50.3-43H2469.3z"/>
			<path d="M2553.3,940.2h14.6v-26.2h19.2v26.2h17.4v14.3h-17.4v46.6c0,8,0.7,12,9.3,12c2.7,0,5.4,0,8.1-0.7v14.9
				c-4.2,0.3-8.3,1-12.5,1c-20.1,0-23.8-7.8-24.1-22.3v-51.5h-14.6V940.2z"/>
			<path d="M2693,1008.1c0,4.7,1,6.6,4.6,6.6c1.2,0,2.7,0,4.7-0.3v13.3c-2.8,1-9,2.2-12.2,2.2c-7.7,0-13.3-2.7-14.8-10.6
				c-7.6,7.4-19.9,10.6-30.2,10.6c-15.7,0-29.9-8.4-29.9-25.5c0-21.8,17.4-25.3,33.6-27.2c13.9-2.5,26.2-1,26.2-12.3
				c0-10-10.3-11.8-18.1-11.8c-10.8,0-18.4,4.4-19.2,13.9h-19.2c1.4-22.5,20.4-29,39.7-29c17,0,34.9,6.9,34.9,25.3V1008.1z
				 M2673.7,983.8c-5.9,3.9-15.2,3.7-23.7,5.2c-8.3,1.3-15.7,4.4-15.7,14.5c0,8.6,11,11.1,17.7,11.1c8.5,0,21.6-4.4,21.6-16.5V983.8
				z"/>
			<path d="M2704.2,940.2h14.5v-26.2h19.3v26.2h17.4v14.3H2738v46.6c0,8,0.6,12,9.3,12c2.7,0,5.4,0,8.1-0.7v14.9
				c-4.3,0.3-8.3,1-12.5,1c-20.1,0-23.9-7.8-24.2-22.3v-51.5h-14.5V940.2z"/>
			<path d="M2771.9,907h19.2v18.2h-19.2V907z M2771.9,940.2h19.2v87.2h-19.2V940.2z"/>
			<path d="M2805.6,983.8c0-26.7,16.1-45.9,44.1-45.9c28,0,44.1,19.2,44.1,45.9c0,26.9-16.1,46.1-44.1,46.1
				C2821.7,1029.9,2805.6,1010.7,2805.6,983.8 M2874.5,983.8c0-15-7.6-30.7-24.8-30.7c-17.2,0-24.8,15.7-24.8,30.7
				c0,15.2,7.6,30.9,24.8,30.9C2866.9,1014.7,2874.5,999,2874.5,983.8"/>
			<path d="M2908.3,940.2h18.2v12.8l0.3,0.4c5.7-9.6,15.7-15.5,27.2-15.5c18.9,0,30.9,10.1,30.9,29.7v59.9h-19.3v-54.8
				c-0.4-13.7-5.7-19.6-17-19.6c-12.8,0-21.1,10.2-21.1,22.9v51.5h-19.2V940.2z"/>
		</g>
		<path d="M2966.1,180.1l-318.3,0c-98.2,0-146.3,60.5-146.3,139.3v239.3c0,48.7-23.1,83.8-71.9,83.8h-278.3c-2,0-3.6,1.6-3.6,3.6
			v48.1c0,2,1.6,3.6,3.7,3.6h315.1c98.2,0,146.3-60.3,146.3-139.1V319.3c0-48.8,23.1-83.9,71.9-83.9h281.6c2.1,0,3.6-1.6,3.6-3.6
			v-48C2969.7,181.7,2968.1,180.1,2966.1,180.1"/>
		<path d="M2029.1,180.2l-612.3,0c-2,0-3.6,1.6-3.6,3.6v48.1c0,2,1.6,3.6,3.6,3.6h575.5c48.8,0,71.9,35.1,71.9,83.9
			c0,48.7-23.1,83.8-71.9,83.8h-455.2c-70.7,0-123.9,59.4-123.9,138.2v152.9c0,2,1.6,3.6,3.6,3.6h103.8c2,0,3.6-1.6,3.6-3.6V541.3
			c0-48.8,28.1-82.8,68.4-82.8h436.4c98.2,0,146.3-60.3,146.3-139.1C2175.3,240.7,2127.3,180.2,2029.1,180.2"/>
		<path d="M3793.5,432.6c-1.6-1.6-1.6-4.3,0-5.8c30.4-25.2,45.5-63.3,45.5-107.4c0-78.7-48.1-139.3-146.3-139.3l-612.3,0
			c-2,0-3.6,1.6-3.6,3.6v48c0,2,1.7,3.6,3.6,3.6h575.5c48.8,0,71.9,35.1,71.9,83.9c0,48.7-23.1,83.8-71.9,83.8h-0.5l-0.2,0
			l-574.8,0.1c-2,0-3.6,1.6-3.6,3.6v48.1c0,2,1.7,3.6,3.6,3.6H3656c63.5,0.5,71.8,62.3,71.8,93.9l0.1,6.3
			c0,48.8-23.1,83.9-71.9,83.9h-575.5c-2,0-3.6,1.6-3.6,3.6v48c0,2,1.7,3.6,3.6,3.6l612.3,0c98.2,0,146.3-65.2,146.3-139.3v-6.2
			C3839,505.3,3823.8,460.2,3793.5,432.6"/>
	</g>
	<path d="M21.3,638.5C-19,668.8-4.2,721.4,84.1,746.7c94.8,31.7,191,38,281.3,22.9c5.9-0.9,12.3-2.1,18-3.1v-96.3l-90.3,33.2
		c-33.3,12.2-82.3,14.7-109.3,5.7s-22-26.1,11.4-38.3l188.2-68.4V495l-261.6,94.4C121.9,589.4,58.5,610.5,21.3,638.5z"/>
	<path d="M1036.5,575.4c-76.4-29.4-173.7-39.4-253.2-30.5s-136,29.2-136,29.2L636,578v111.3l195.7-70c33.3-12.2,82.3-14.8,109.3-5.7
		c27,9,22,26.1-11.4,38.3L636.1,757.9v107.2l398.9-145.4c0,0,53.7-20,75.5-48C1132.3,643.7,1122.7,603,1036.5,575.4z"/>
	<path d="M674,214.8v274.3c113.7,55.7,203.3-0.1,203.3-147.3c0-151-52.3-218.1-206.9-271.9C609.5,49.1,496.5,14.7,418.9,0v818.8
		l182.5,58.8V190.8c0-32.2,14.1-53.7,36.9-46.2C668.2,153.1,674,182.7,674,214.8z"/>
</g>
</svg>
