<svg enable-background="new 0 0 3839 1062.1" version="1.1" viewBox="0 0 3839 1062.1" xml:space="preserve" xmlns="http://www.w3.org/2000/svg">
<path d="m418.90039 0v818.80078l182.5 58.79883v-686.79883c0-32.19997 14.10041-53.70116 36.90039-46.20117 29.89997 8.49999 35.69922 38.1012 35.69922 70.20117v274.29883c113.69989 55.69994 203.30078-0.09898 203.30078-147.29883 0-150.99985-52.30054-218.10044-206.90039-271.900389-60.89994-20.79998-173.90008-55.200406-251.5-69.900391zm2228.90041 180.09961c-98.1999 0-146.3008 60.50086-146.3008 139.30078v239.29883c0 48.69995-23.1004 83.80078-71.9004 83.80078h-278.2988c-2 0-3.6016 1.59961-3.6016 3.59961v48.09961c0 2 1.6012 3.60156 3.7012 3.60156h315.0996c98.1999 0 146.3008-60.30164 146.3008-139.10156v-239.39844c0-48.79995 23.0985-83.90039 71.8984-83.90039h281.6016c2.1 0 3.5996-1.59961 3.5996-3.59961v-48c-0.2-2.1-1.8008-3.70117-3.8008-3.70117h-318.2988zm432.5996 0c-2 0-3.5996 1.59961-3.5996 3.59961v48c0 2 1.6996 3.60156 3.5996 3.60156h575.5c48.7999 0 71.9004 35.09849 71.9004 83.89844 0 48.69995-23.1005 83.80078-71.9004 83.80078h-0.5-0.2012l-574.7988 0.09961c-2 0-3.5996 1.59961-3.5996 3.59961v48.10156c0 2 1.6996 3.59961 3.5996 3.59961h575.5996c63.4999 0.5 71.8008 62.30042 71.8008 93.90039l0.0996 6.29883c0 48.79995-23.1004 83.90039-71.9004 83.90039h-575.5c-2 0-3.5996 1.59961-3.5996 3.59961v48c0 2 1.6996 3.59961 3.5996 3.59961h612.3008c98.1999 0 146.2988-65.1989 146.2988-139.29883v-6.20117c-0.1-46.89995-15.2996-91.99964-45.5996-119.59961-1.6-1.6-1.6-4.29883 0-5.79883 30.4-25.19997 45.5-63.30043 45.5-107.40039 0-78.69992-48.1009-139.30078-146.3008-139.30078h-612.2988zm-1663.5996 0.09961c-2 0-3.6016 1.60156-3.6016 3.60156v48.09961c0 2 1.6016 3.59961 3.6016 3.59961h575.5c48.7999 0 71.8984 35.10044 71.8984 83.90039 0 48.69995-23.0985 83.79883-71.8984 83.79883h-455.2012c-70.6999 0-123.9004 59.40125-123.9004 138.20117v152.90039c0 2 1.6016 3.59961 3.6016 3.59961h103.7988c2 0 3.5996-1.59961 3.5996-3.59961v-153c0-48.79995 28.1004-82.80078 68.4004-82.80078h436.4004c98.1999 0 146.3008-60.29969 146.3008-139.09961 0-78.69992-48.0013-139.20117-146.2012-139.20117h-612.2988zm-1033.40041 314.80078-261.59961 94.40039c0.1 0-63.300036 21.09964-100.499999 49.09961-40.299959 30.29997-25.5010833 82.89924 62.798828 108.19922 94.799901 31.69997 191.000871 38.00037 281.300781 22.90039 5.89999-0.9 12.30001-2.09961 18-3.09961v-96.30078l-90.30078 33.20117c-33.29997 12.19999-82.29886 14.69921-109.29883 5.69922s-22.00153-26.09884 11.39844-38.29883l188.20117-68.40039v-107.40039zm462.25781 46.77734c-21.49529-0.14531-42.48244 0.89805-62.35742 3.12305-79.49992 8.89999-136 29.19922-136 29.19922l-11.30078 3.90039v111.30078l195.69922-70c33.29997-12.19999 82.30081-14.80116 109.30078-5.70117 26.99997 8.99999 21.99958 26.10079-11.40039 38.30078l-293.5 106v107.19922l398.90039-145.40039s53.7-20.00003 75.5-48 12.1999-68.69886-74-96.29883c-57.29994-22.04998-126.35592-33.18711-190.8418-33.62305zm1651.041 362.32227c-21.8 0-44.0996 11.40008-44.0996 35.5 0 12.49996 6.1012 24.99961 26.7012 30.59961 16.6 4.59996 27.6 6.8 36 10 4.9 1.8 10 5.50082 10 14.80078 0 9.1-6.9 18.1992-25.5 18.1992-16.9 0-30.5-7.1988-30.5-25.79881v-0.09961h-21.2012c0.5 29.90002 22.8008 43.00002 50.3008 43.00002 24 0 48-10.8008 48-37.8008 0-12.49996-7.6-25.99922-23.5-30.69922-6.3-1.9-32.9008-8.80078-34.8008-9.30078-8.6-2.4-14.4004-7.10004-14.4004-15.5 0-12.19996 12.3016-15.69922 22.1016-15.69922 14.6 0 25 5.69887 26 21.29883h21.0996c0-25.19992-21.1012-38.5-46.2012-38.5zm-367.5996 2.90039v120.4004h21.0996v-46.20118h32.1016c34.3996 0.2 41-22.09848 41-36.89844 0-14.99992-6.5004-37.30078-41-37.30078h-53.2012zm106.8692 0v120.5h19.2636v-120.5h-19.2636zm535.9316 0v18.19922h19.1992v-18.19922h-19.1992zm309.2988 0c-23.7 0-38 17.19967-39 40.09961h19.2012c-0.4-12.19997 6.2-24.09961 19.5-24.09961 10.6 0 18.2988 6.79925 18.2988 16.69922 0 14.49994-13.2996 19-26.0996 18.5v14.30078c15.1-0.6 30.8008 1.69967 30.8008 20.09961 0 13.49999-9.7 21.09959-22.5 21.09959-15 0-22.7012-10.7996-22.2012-25.09959h-19.1992c0.5 24.59999 14.1004 41.09959 41.4004 41.09959 22.6 0 41.6992-13.8996 41.6992-36.09959 0-15.19997-7.9988-26.8-21.2988-29.5v-0.29883c11.2-4.09997 16.5996-13.50081 16.5996-25.30078 0-20.89994-18.8012-31.5-37.2012-31.5zm-513.2988 7v26.19922h-14.5996v14.30078h14.5996v51.5c0.3 14.5 3.9996 22.3008 24.0996 22.3008 4.2 0 8.3-0.7 12.5-1v-14.9004c-2.7 0.7-5.3996 0.6992-8.0996 0.6992-8.6 0-9.3008-4-9.3008-12v-46.5996h17.4004v-14.30078h-17.4004v-26.19922h-19.1992zm150.7988 0v26.19922h-14.5v14.30078h14.5v51.5c0.3 14.5 4.1012 22.3008 24.2012 22.3008 4.2 0 8.2-0.7 12.5-1v-14.9004c-2.7 0.7-5.3996 0.6992-8.0996 0.6992-8.7 0-9.3008-4-9.3008-12v-46.5996h17.4004v-14.30078h-17.4004v-26.19922h-19.3008zm-568.5 10.19922h31.3008c11.1 0 20.6992 4.10047 20.6992 19.90039 0 15.19992-11.6996 19.90039-21.0996 19.90039h-30.9004v-39.80078zm699.5 13.70117c-28 0-44.0996 19.20051-44.0996 45.90039 0 26.90002 16.0996 46.09962 44.0996 46.09962s44.1016-19.1996 44.1016-46.09962c0-26.69988-16.1016-45.90039-44.1016-45.90039zm104.3008 0c-11.5 0-21.4992 5.90004-27.1992 15.5l-0.3008-0.40039v-12.80078h-18.1992v87.30078h19.1992v-51.5c0-12.69996 8.2996-22.90039 21.0996-22.90039 11.3 0 16.6 5.89965 17 19.59961v54.80078h19.3008v-59.90039c0-19.59992-12.0004-29.69922-30.9004-29.69922zm-639.4004 0.09961c-19.3 0-38.2992 6.50008-39.6992 29h19.2988c0.8-9.49996 8.4012-13.90039 19.2012-13.90039 7.8 0 18.0996 1.80082 18.0996 11.80078 0 11.29996-12.2996 9.79883-26.0996 12.29883-16.2 1.9-33.5996 5.40122-33.5996 27.20118 0 17.1 14.1984 25.5 29.8984 25.5 10.3 0 22.7008-3.1996 30.3008-10.5996 1.5 7.9 7.1008 10.5996 14.8008 10.5996 3.1 0 9.2996-1.2012 12.0996-2.2012v-13.2988c-2 0.3-3.5012 0.2988-4.7012 0.2988-3.6 0-4.5996-1.8996-4.5996-6.5996h-0.0996v-44.79882c4e-4 -18.39992-17.9004-25.30078-34.9004-25.30078zm343.5996 0c-19.3 0-38.2992 6.50008-39.6992 29h19.1992c0.8-9.49996 8.4012-13.90039 19.2012-13.90039 7.8 0 18.0996 1.80082 18.0996 11.80078 0 11.29996-12.2992 9.79883-26.1992 12.29883-16.2 1.9-33.6016 5.40122-33.6016 27.20118 0 17.1 14.2004 25.5 29.9004 25.5 10.3 0 22.6012-3.1996 30.2012-10.5996 1.5 7.9 7.0988 10.5996 14.7988 10.5996 3.2 0 9.4012-1.2012 12.2012-2.2012v-13.2988c-2 0.3-3.5012 0.2988-4.7012 0.2988-3.6 0-4.5996-1.8996-4.5996-6.5996h0.0996v-44.79882c-4e-4 -18.39992-17.9004-25.30078-34.9004-25.30078zm-300.5996 2.19922 33.0996 86.90038-2.1992 6.8008c-2.3 7.4-4.6 12.0996-13.5 12.0996-3 0-6.0996-0.6992-9.0996-1.1992v16.1992c4.4 0.7 8.6988 1 13.2988 1 20.1 0 24.6004-14.1008 30.9004-29.8008l33.9004-91.99998h-20.0996l-22.0996 65.20118h-0.3008l-22.8008-65.20118h-21.0996zm414.3008 0v87.20118h19.1992v-87.20118h-19.1992zm77.7988 12.90039c17.2 0 24.8008 15.70125 24.8008 30.70117 0 15.19996-7.6008 30.89842-24.8008 30.89842s-24.7988-15.69846-24.7988-30.89842c0-14.99992 7.5988-30.70117 24.7988-30.70117zm-519.3984 30.70117v14.29883c0 12.09999-13.1016 16.49999-21.6016 16.49999-6.7 0-17.6992-2.4996-17.6992-11.0996 0-10.09996 7.3992-13.2 15.6992-14.5 8.4-1.5 17.7016-1.29922 23.6016-5.19922zm343.2988 0.0586v14.24023c0 12.09999-13.0996 16.49999-21.5996 16.49999-6.7 0-17.6992-2.4996-17.6992-11.0996 0-10.09996 7.3992-13.2 15.6992-14.5 8.4539-1.49187 17.6951-1.3058 23.5996-5.14062z"/>
</svg>
