<?xml version="1.0" encoding="UTF-8" ?>
<!DOCTYPE svg PUBLIC "-//W3C//DTD SVG 1.1//EN" "http://www.w3.org/Graphics/SVG/1.1/DTD/svg11.dtd">
<svg width="754pt" height="672pt" viewBox="0 0 754 672" version="1.1" xmlns="http://www.w3.org/2000/svg">
<g id="#000000ff">
<path fill="#000000" opacity="1.00" d=" M 135.55 60.72 C 137.33 55.35 138.54 49.71 141.06 44.62 C 147.96 44.26 154.90 44.23 161.81 44.42 C 160.24 49.85 159.40 55.81 156.07 60.49 C 149.24 60.76 142.39 60.53 135.55 60.72 Z" />
<path fill="#000000" opacity="1.00" d=" M 193.88 71.80 C 200.64 71.12 207.46 71.26 214.25 71.30 C 212.80 78.91 209.96 86.14 207.59 93.49 C 206.74 96.87 202.77 96.63 200.04 96.68 C 191.59 96.38 183.24 98.23 174.78 97.65 C 176.70 89.50 180.30 81.84 181.88 73.61 C 185.68 71.95 189.89 72.58 193.88 71.80 Z" />
<path fill="#000000" opacity="1.00" d=" M 227.06 101.69 C 231.10 101.23 235.19 101.69 239.24 101.24 C 247.12 100.16 255.11 100.59 263.04 100.39 C 262.63 108.43 258.66 115.63 256.77 123.36 C 255.77 125.76 255.62 129.19 252.99 130.43 C 246.73 131.12 240.37 130.14 234.13 131.21 C 228.09 131.87 222.01 131.64 215.95 131.70 C 217.80 123.52 221.01 115.74 223.33 107.69 C 224.21 105.54 224.57 102.59 227.06 101.69 Z" />
<path fill="#000000" opacity="1.00" d=" M 298.10 121.91 C 304.94 121.31 311.84 121.87 318.69 121.33 C 317.07 129.14 314.02 136.54 311.72 144.15 C 310.46 147.84 309.57 151.68 307.92 155.23 C 307.42 156.45 306.32 157.50 304.91 157.29 C 297.14 157.49 289.33 157.09 281.61 158.19 C 275.82 158.38 270.02 158.29 264.23 158.71 C 263.20 158.86 262.35 158.14 261.59 157.58 C 263.27 151.05 265.82 144.78 267.77 138.33 C 269.42 133.67 270.45 128.77 272.45 124.24 C 272.82 123.15 274.06 122.80 275.10 122.77 C 282.76 122.23 290.48 123.06 298.10 121.91 Z" />
<path fill="#000000" opacity="1.00" d=" M 462.00 133.13 C 465.24 132.21 468.69 132.79 472.01 132.68 C 477.00 132.91 482.01 132.51 487.00 132.87 C 494.94 134.10 503.01 133.21 511.00 133.84 C 517.19 134.99 523.54 134.16 529.73 135.23 C 539.18 136.03 548.65 136.69 558.04 138.05 C 564.54 138.65 570.86 140.41 577.34 141.18 C 584.10 141.94 590.50 144.37 597.24 145.22 C 610.17 149.00 622.88 153.51 635.75 157.49 C 640.75 158.85 645.06 161.88 649.96 163.51 C 657.77 166.55 665.09 170.71 672.39 174.81 C 695.23 187.34 715.97 203.41 735.22 220.88 C 738.15 223.55 743.39 226.51 741.15 231.21 C 699.87 358.60 658.66 486.01 617.40 613.40 C 613.81 624.19 610.59 635.11 606.76 645.82 C 604.11 643.28 601.81 640.41 599.22 637.83 C 592.43 631.99 586.25 625.45 579.01 620.15 C 558.95 603.94 536.79 590.18 513.06 580.05 C 507.20 576.96 500.49 575.97 494.83 572.45 C 488.57 569.84 482.03 567.83 475.46 566.20 C 467.82 565.51 460.91 561.84 453.31 560.97 C 443.56 558.30 433.44 557.54 423.52 555.72 C 414.80 553.94 405.85 553.93 397.05 552.69 C 390.71 552.53 384.34 552.82 378.06 551.74 C 365.69 551.64 353.31 551.62 340.94 551.82 C 336.54 552.48 332.09 552.75 327.64 552.74 C 326.45 549.61 328.09 546.38 329.01 543.41 C 334.57 527.84 338.78 511.79 344.69 496.35 C 344.34 496.40 343.63 496.50 343.28 496.56 C 346.68 488.02 349.17 479.15 352.02 470.42 C 366.03 427.48 379.75 384.44 393.94 341.56 C 395.90 335.54 397.85 329.51 399.66 323.44 L 400.39 323.44 C 407.95 323.67 415.43 322.27 423.00 322.47 C 431.39 322.60 439.80 322.17 448.19 322.68 C 457.11 323.92 466.19 322.74 475.09 324.29 C 484.35 324.85 493.13 328.50 502.44 328.65 C 515.13 289.68 527.69 250.67 540.32 211.68 C 542.43 205.52 544.66 199.37 545.72 192.92 C 539.63 192.73 533.61 191.79 527.63 190.68 C 519.90 189.64 512.17 188.66 504.42 187.83 C 499.64 187.40 494.84 187.82 490.07 187.49 C 486.50 187.41 482.95 186.61 479.40 187.07 C 472.58 187.87 465.66 187.32 458.90 188.61 C 453.76 189.59 448.52 189.63 443.31 189.87 C 444.54 184.41 446.46 179.13 448.19 173.82 C 451.98 162.52 455.53 151.14 459.14 139.79 C 459.91 137.50 460.60 135.12 462.00 133.13 M 586.67 200.67 C 585.69 202.05 585.00 203.60 584.46 205.20 C 574.26 237.53 563.58 269.70 553.27 302.00 C 549.71 313.39 545.29 324.56 542.69 336.22 C 554.08 336.48 564.08 342.46 574.40 346.53 C 583.21 350.45 591.48 355.42 600.07 359.76 C 610.24 365.46 620.07 371.74 629.94 377.95 C 631.25 378.44 632.68 380.20 634.09 379.05 C 636.04 375.72 636.70 371.85 637.95 368.24 C 649.76 331.72 661.46 295.16 673.41 258.68 C 674.48 254.99 676.43 251.41 676.42 247.49 C 674.01 243.96 670.01 241.97 666.72 239.37 C 652.01 228.47 635.91 219.58 619.24 212.04 C 613.54 209.73 608.15 206.60 602.12 205.15 C 596.89 203.92 592.05 201.13 586.67 200.67 M 392.79 363.31 C 390.94 363.83 388.25 363.46 387.37 365.58 C 385.08 370.39 384.20 375.71 382.41 380.71 C 376.29 398.73 370.81 416.96 364.70 434.98 C 358.51 455.31 351.25 475.32 345.43 495.74 C 358.28 495.34 371.14 495.49 384.00 495.43 C 399.98 495.09 416.16 495.16 431.84 498.59 C 435.92 499.40 439.78 501.21 443.95 501.52 C 446.24 500.95 446.89 498.38 447.71 496.49 C 455.46 472.01 463.41 447.60 471.39 423.20 C 477.14 404.36 483.86 385.82 489.27 366.89 C 486.58 366.42 483.87 366.15 481.20 365.61 C 470.93 363.38 460.42 362.73 450.00 361.67 C 440.64 361.53 431.35 360.00 421.98 360.62 C 412.24 361.48 402.43 361.51 392.79 363.31 M 529.87 374.29 C 528.95 379.10 526.89 383.62 526.06 388.46 C 525.92 388.45 525.65 388.43 525.52 388.43 C 522.38 399.65 518.24 410.55 514.99 421.75 C 513.23 426.88 511.35 431.98 510.12 437.29 C 510.02 437.37 509.80 437.52 509.69 437.60 C 508.09 442.69 506.41 447.75 504.92 452.88 C 502.54 459.19 500.80 465.71 498.60 472.09 C 496.76 478.24 494.17 484.18 493.06 490.54 C 492.83 490.50 492.35 490.43 492.12 490.39 C 491.81 492.22 491.48 494.04 491.04 495.85 C 489.23 500.11 487.77 504.58 488.28 509.29 C 494.37 509.98 500.68 510.69 506.06 513.88 C 509.99 516.35 514.81 516.76 518.73 519.26 C 523.32 521.96 528.56 523.40 533.13 526.14 C 533.71 526.77 534.29 527.41 534.88 528.05 C 536.71 528.57 538.52 529.15 540.34 529.74 C 540.66 530.11 541.31 530.85 541.63 531.22 C 544.54 532.71 547.46 534.17 550.30 535.81 C 550.64 536.16 551.33 536.86 551.67 537.20 C 560.48 541.20 568.30 547.40 577.00 551.82 C 578.92 550.60 579.42 547.93 580.22 545.87 C 581.16 542.61 582.02 539.33 582.98 536.09 C 582.99 536.63 583.01 537.18 583.04 537.74 C 583.92 533.44 585.45 529.34 586.77 525.17 C 597.59 491.78 608.36 458.38 619.23 425.00 C 619.56 422.93 620.52 420.12 618.48 418.66 C 613.20 413.73 607.00 409.98 601.02 405.98 C 594.92 401.81 588.57 398.03 581.87 394.88 C 581.27 394.26 580.68 393.64 580.10 393.03 C 577.50 392.60 575.17 391.41 573.14 389.76 C 570.03 388.76 566.96 387.48 564.58 385.17 C 561.71 384.34 558.79 383.74 555.88 383.07 C 555.14 382.23 554.39 381.39 553.65 380.57 C 550.81 379.64 547.97 378.75 545.15 377.82 C 540.13 376.35 535.24 373.80 529.87 374.29 Z" />
<path fill="#000000" opacity="1.00" d=" M 328.62 137.82 C 341.87 137.52 355.05 135.93 368.30 135.37 C 373.41 134.46 378.59 134.60 383.76 134.70 C 380.02 147.83 375.43 160.70 371.43 173.75 C 370.64 175.60 370.39 178.10 368.50 179.18 C 360.86 179.72 353.25 180.47 345.60 180.75 C 339.38 181.97 333.01 180.93 326.76 181.84 C 322.64 182.58 318.44 182.42 314.27 182.36 C 314.66 179.46 315.21 176.57 316.20 173.82 C 319.52 164.03 322.64 154.17 325.72 144.31 C 326.47 142.07 327.09 139.69 328.62 137.82 Z" />
<path fill="#000000" opacity="1.00" d=" M 435.44 137.90 C 440.95 137.48 446.45 136.88 451.95 136.25 C 447.53 153.35 441.09 169.87 436.11 186.81 C 435.59 190.27 432.11 191.65 428.97 191.49 C 422.23 191.40 415.72 193.49 408.99 193.58 C 403.59 193.68 398.41 195.58 393.00 195.53 C 387.28 195.70 381.72 197.15 376.06 197.74 C 376.74 192.53 378.79 187.68 380.36 182.71 C 383.95 171.90 387.42 161.06 390.81 150.20 C 391.57 147.92 392.21 145.52 393.78 143.64 C 400.55 140.92 407.97 141.96 414.99 140.49 C 421.73 139.05 428.73 139.61 435.44 137.90 Z" />
<path fill="#000000" opacity="1.00" d=" M 415.12 197.66 C 421.22 196.40 427.50 196.71 433.59 195.41 C 427.78 213.71 421.55 231.88 415.98 250.25 C 408.98 251.85 401.73 251.66 394.71 253.18 C 387.04 253.22 379.64 255.44 371.99 255.60 C 366.72 255.84 361.63 257.61 356.32 257.48 C 359.90 242.85 365.50 228.79 369.80 214.36 C 371.10 210.56 371.77 206.44 373.98 203.03 C 382.69 200.40 391.96 201.15 400.79 199.21 C 405.52 198.28 410.41 198.74 415.12 197.66 Z" />
<path fill="#000000" opacity="1.00" d=" M 82.82 223.93 C 89.73 225.48 96.78 224.12 103.70 223.52 C 103.01 229.21 101.31 234.79 98.97 240.00 C 97.52 240.93 95.81 241.43 94.08 241.37 C 88.46 241.43 82.84 241.64 77.22 241.47 C 78.71 235.51 80.69 229.69 82.82 223.93 Z" />
<path fill="#000000" opacity="1.00" d=" M 143.04 250.05 C 147.60 249.25 152.25 249.28 156.87 249.44 C 154.79 257.89 151.48 265.98 149.13 274.36 C 142.57 276.11 135.76 275.24 129.07 275.79 C 125.11 276.44 121.09 276.66 117.08 276.51 C 118.49 269.93 120.98 263.66 122.84 257.20 C 123.65 254.93 124.10 252.31 126.00 250.64 C 131.67 250.15 137.38 250.71 143.04 250.05 Z" />
<path fill="#000000" opacity="1.00" d=" M 393.03 257.58 C 399.93 257.57 406.58 254.82 413.52 255.62 C 413.19 259.80 411.40 263.66 410.21 267.64 C 406.87 278.21 403.28 288.71 399.95 299.29 C 398.77 302.89 397.99 306.66 396.15 310.00 C 388.49 310.94 380.89 312.42 373.16 312.69 C 367.54 313.73 361.88 314.53 356.16 314.69 C 349.86 315.85 343.50 316.75 337.08 316.55 C 338.79 309.05 341.58 301.86 343.87 294.54 C 347.13 284.72 350.11 274.82 353.38 265.01 C 354.06 263.72 354.36 261.52 356.25 261.72 C 363.89 261.48 371.35 259.64 378.98 259.35 C 383.70 259.06 388.28 257.66 393.03 257.58 Z" />
<path fill="#000000" opacity="1.00" d=" M 195.93 279.23 C 199.22 279.11 202.92 277.51 205.84 279.75 C 204.90 284.67 202.84 289.27 201.38 294.04 C 199.90 298.31 198.96 302.79 197.10 306.93 C 196.61 308.23 195.37 309.24 193.96 309.30 C 186.66 309.92 179.30 309.30 172.01 309.91 C 167.42 310.64 162.77 310.67 158.14 310.54 C 159.08 305.74 160.80 301.16 162.23 296.50 C 164.05 291.53 165.08 286.25 167.51 281.53 C 167.86 281.26 168.58 280.73 168.94 280.47 C 177.97 280.61 186.92 279.58 195.93 279.23 Z" />
<path fill="#000000" opacity="1.00" d=" M 241.01 301.17 C 247.30 300.18 253.70 300.43 260.05 300.37 C 258.59 307.54 255.73 314.30 253.71 321.32 C 252.21 325.72 251.31 330.36 249.15 334.50 C 239.40 335.52 229.61 335.81 219.81 335.73 C 215.12 336.15 210.43 336.84 205.70 336.71 C 204.56 335.10 205.43 332.95 205.75 331.19 C 207.91 324.41 210.36 317.71 212.39 310.88 C 213.38 307.72 214.17 304.44 215.95 301.62 C 224.29 301.22 232.67 301.59 241.01 301.17 Z" />
<path fill="#000000" opacity="1.00" d=" M 384.54 316.02 C 387.87 315.44 391.23 314.48 394.62 315.23 C 389.07 333.31 383.14 351.28 377.22 369.25 C 370.59 370.65 363.87 371.59 357.10 371.82 C 350.96 373.11 344.72 373.51 338.50 374.15 C 331.59 375.54 324.51 375.49 317.56 376.64 C 322.88 358.26 329.28 340.16 334.97 321.87 C 351.47 319.73 367.99 317.78 384.54 316.02 Z" />
<path fill="#000000" opacity="1.00" d=" M 301.06 318.27 C 308.64 317.32 316.37 316.77 323.98 317.56 C 322.76 324.43 319.75 330.81 317.93 337.53 C 315.23 345.11 313.45 353.05 310.11 360.38 C 297.04 361.02 284.04 362.70 270.94 362.68 C 265.78 363.25 260.60 363.80 255.40 363.76 C 258.39 352.44 262.48 341.43 265.93 330.24 C 267.10 326.65 267.95 322.88 269.99 319.65 C 275.57 319.11 281.22 319.79 286.76 318.80 C 291.50 318.26 296.30 318.52 301.06 318.27 Z" />
<path fill="#000000" opacity="1.00" d=" M 353.60 375.90 C 361.05 375.54 368.36 374.05 375.77 373.34 C 371.72 387.59 366.60 401.51 362.30 415.68 C 360.84 419.71 360.11 424.08 357.87 427.79 C 349.86 430.40 341.24 429.85 333.01 431.40 C 327.42 432.43 321.68 432.22 316.13 433.45 C 310.24 434.62 304.16 434.18 298.30 435.58 C 303.96 417.22 310.18 399.05 315.91 380.73 C 328.32 378.06 341.10 377.99 353.60 375.90 Z" />
<path fill="#000000" opacity="1.00" d=" M 24.61 403.69 C 31.67 403.55 38.74 403.27 45.79 403.57 C 44.40 409.19 43.33 415.14 40.15 420.08 C 33.17 421.17 25.94 419.45 19.05 421.43 C 20.48 415.40 22.48 409.51 24.61 403.69 Z" />
<path fill="#000000" opacity="1.00" d=" M 66.53 432.78 C 77.21 431.66 87.93 430.61 98.69 430.66 C 96.38 438.66 93.69 446.54 91.08 454.44 C 90.05 458.46 85.11 457.06 82.07 457.62 C 73.89 458.50 65.66 458.55 57.43 458.46 C 59.59 451.54 61.97 444.69 64.08 437.75 C 64.74 436.04 65.16 434.09 66.53 432.78 Z" />
<path fill="#000000" opacity="1.00" d=" M 338.33 434.95 C 344.18 434.65 349.96 433.62 355.81 433.38 C 355.40 436.37 354.74 439.32 353.79 442.18 C 349.29 455.75 344.80 469.32 340.59 482.98 C 339.91 484.64 339.60 486.74 337.99 487.81 C 331.84 490.11 325.10 488.93 318.77 490.33 C 314.30 491.29 309.73 491.39 305.19 491.78 C 296.61 493.32 287.90 494.10 279.21 494.61 C 284.06 478.41 289.73 462.47 294.63 446.28 C 295.43 444.35 295.71 441.90 297.31 440.48 C 303.03 438.31 309.30 438.81 315.25 437.84 C 322.89 436.39 330.71 436.54 338.33 434.95 Z" />
<path fill="#000000" opacity="1.00" d=" M 138.04 457.51 C 141.61 457.41 145.18 456.82 148.74 457.35 C 146.60 465.58 143.51 473.51 141.20 481.69 C 140.31 483.98 139.89 486.94 137.46 488.15 C 130.33 488.78 123.10 487.98 116.01 489.19 C 111.51 489.48 106.98 489.30 102.50 489.84 C 101.42 490.05 100.46 489.41 99.69 488.76 C 101.68 481.75 104.37 474.96 106.38 467.95 C 107.67 464.96 107.64 460.84 110.51 458.88 C 119.67 458.01 128.83 457.49 138.04 457.51 Z" />
<path fill="#000000" opacity="1.00" d=" M 196.43 478.55 C 198.16 478.72 200.40 477.71 201.77 479.05 C 201.82 481.18 201.53 483.31 200.78 485.32 C 198.70 491.30 196.64 497.30 194.86 503.38 C 193.79 506.78 193.02 510.35 191.05 513.39 C 187.14 513.71 183.21 513.43 179.30 513.67 C 168.89 514.97 158.36 514.46 147.89 514.69 L 147.10 514.13 C 147.33 510.93 148.48 507.92 149.52 504.92 C 152.36 496.75 154.61 488.37 157.63 480.26 C 160.75 480.27 163.89 480.46 166.99 480.05 C 176.75 478.60 186.69 480.12 196.43 478.55 Z" />
<path fill="#000000" opacity="1.00" d=" M 250.57 494.30 C 256.22 493.29 262.04 493.97 267.65 492.66 C 264.61 505.75 259.51 518.27 255.80 531.18 C 254.72 533.81 254.43 538.16 250.77 538.25 C 245.19 538.43 239.59 538.48 234.05 539.29 C 222.10 539.29 210.24 540.73 198.34 541.39 C 198.87 533.40 202.70 526.14 204.78 518.50 C 207.43 511.43 208.85 503.88 212.08 497.06 C 218.21 494.44 225.24 496.31 231.73 495.34 C 237.96 494.22 244.29 494.83 250.57 494.30 Z" />
<path fill="#000000" opacity="1.00" d=" M 326.31 493.80 C 329.74 493.38 333.21 493.38 336.66 493.37 C 332.85 506.34 328.28 519.09 324.32 532.02 C 322.44 537.06 321.53 542.50 318.95 547.27 C 312.95 547.73 307.01 548.76 301.05 549.52 C 293.92 549.38 287.07 551.87 279.94 551.73 C 273.50 552.41 267.16 554.15 260.63 553.66 C 264.61 538.59 270.24 524.01 274.68 509.08 C 275.68 505.97 276.41 502.73 278.08 499.90 C 294.07 497.28 310.33 496.63 326.31 493.80 Z" />
</g>
<g id="#ff0000ff">
<path fill="#ff0000" opacity="1.00" d=" M 122.56 101.72 C 129.20 101.79 135.83 101.78 142.45 101.50 C 142.40 102.83 143.14 104.14 142.64 105.46 C 141.21 109.76 140.05 114.18 138.24 118.34 C 130.99 118.55 123.81 119.87 116.53 119.38 C 118.46 113.47 120.03 107.41 122.56 101.72 Z" />
<path fill="#ff0000" opacity="1.00" d=" M 182.98 132.63 C 186.91 132.28 190.88 132.42 194.82 132.01 C 193.54 138.70 190.84 145.03 188.96 151.57 C 187.95 154.17 187.62 158.26 184.00 158.25 C 177.35 158.73 170.65 158.35 164.00 158.82 C 161.09 159.67 158.07 159.77 155.06 159.70 C 155.68 153.17 158.78 147.21 160.39 140.89 C 161.47 138.28 161.67 134.55 164.75 133.53 C 170.81 132.91 176.99 134.06 182.98 132.63 Z" />
<path fill="#ff0000" opacity="1.00" d=" M 217.02 162.59 C 219.39 163.18 221.13 160.75 223.48 161.23 C 230.55 161.75 237.61 161.18 244.61 160.27 C 242.62 168.26 239.58 175.93 237.32 183.84 C 236.49 186.16 235.98 188.76 234.20 190.59 C 229.02 190.26 224.06 191.79 218.90 191.58 C 213.95 191.87 208.89 191.11 204.04 192.37 C 201.41 192.76 198.76 192.45 196.12 192.50 C 197.15 187.24 199.29 182.31 200.82 177.20 C 202.53 172.32 203.58 167.20 205.88 162.55 C 209.59 162.31 213.32 161.96 217.02 162.59 Z" />
<path fill="#ff0000" opacity="1.00" d=" M 101.97 164.38 C 108.99 164.50 116.01 164.12 123.02 164.40 C 121.82 169.49 120.46 174.60 118.37 179.41 C 118.04 179.67 117.39 180.21 117.06 180.48 C 110.28 180.70 103.48 180.55 96.70 180.60 C 98.42 175.18 100.11 169.75 101.97 164.38 Z" />
<path fill="#ff0000" opacity="1.00" d=" M 273.03 182.26 C 281.60 180.87 290.33 181.52 298.98 181.32 C 296.56 190.58 293.08 199.53 290.43 208.74 C 289.78 211.12 288.64 213.33 287.72 215.61 C 286.12 215.61 284.53 215.65 282.94 215.72 C 273.03 217.40 262.92 216.12 252.95 216.84 C 249.73 217.50 246.45 217.60 243.18 217.56 C 243.78 215.66 243.43 213.60 244.24 211.75 C 247.61 202.48 250.01 192.87 253.56 183.67 C 253.88 183.38 254.53 182.80 254.86 182.50 C 260.91 182.31 266.97 182.45 273.03 182.26 Z" />
<path fill="#ff0000" opacity="1.00" d=" M 458.90 188.61 C 465.66 187.32 472.58 187.87 479.40 187.07 C 482.95 186.61 486.50 187.41 490.07 187.49 C 494.84 187.82 499.64 187.40 504.42 187.83 C 512.17 188.66 519.90 189.64 527.63 190.68 C 533.61 191.79 539.63 192.73 545.72 192.92 C 544.66 199.37 542.43 205.52 540.32 211.68 C 527.69 250.67 515.13 289.68 502.44 328.65 C 493.13 328.50 484.35 324.85 475.09 324.29 C 466.19 322.74 457.11 323.92 448.19 322.68 C 439.80 322.17 431.39 322.60 423.00 322.47 C 415.43 322.27 407.95 323.67 400.39 323.44 C 401.58 317.91 403.59 312.61 405.28 307.22 C 417.99 268.12 430.58 228.97 443.31 189.87 C 448.52 189.63 453.76 189.59 458.90 188.61 Z" />
<path fill="#ff0000" opacity="1.00" d=" M 164.05 193.23 C 167.58 192.59 171.16 192.27 174.75 192.44 C 174.76 197.74 172.21 202.50 170.83 207.51 C 169.28 211.09 169.26 215.77 166.09 218.36 C 161.07 218.84 155.95 218.03 151.01 219.27 C 145.78 219.79 140.48 219.66 135.22 219.48 C 136.31 214.59 138.26 209.95 139.63 205.13 C 140.92 201.56 141.57 197.69 143.73 194.48 C 145.87 194.94 147.77 193.29 149.92 193.41 C 154.63 193.39 159.35 193.48 164.05 193.23 Z" />
<path fill="#ff0000" opacity="1.00" d=" M 351.03 197.03 C 354.96 196.12 359.04 196.44 363.04 196.49 C 362.11 204.06 358.76 211.02 356.72 218.31 C 354.05 225.61 352.46 233.33 349.18 240.40 C 344.46 240.75 339.65 240.17 335.01 241.29 C 329.04 242.05 322.93 241.01 317.01 242.31 C 312.33 242.89 307.60 242.32 302.92 242.78 C 300.34 243.39 297.72 243.77 295.07 243.80 C 295.32 241.38 295.30 238.90 296.11 236.59 C 299.54 226.30 302.90 215.99 306.14 205.63 C 306.83 203.53 307.47 201.34 308.90 199.60 C 313.92 199.11 318.98 199.44 324.01 199.23 C 328.30 198.09 332.66 198.30 337.03 197.72 C 341.66 197.03 346.40 197.90 351.03 197.03 Z" />
<path fill="#ff0000" opacity="1.00" d=" M 186.57 221.68 C 195.05 221.75 203.53 221.48 212.01 221.41 C 216.35 221.46 220.76 219.46 224.97 221.40 C 221.77 231.44 219.13 241.72 214.95 251.42 C 210.30 251.50 205.64 251.51 200.99 251.69 C 193.10 252.92 185.07 252.40 177.11 252.58 C 177.59 246.68 180.22 241.31 181.74 235.65 C 181.84 235.58 182.05 235.44 182.16 235.37 C 182.62 233.39 183.18 231.43 183.66 229.45 C 183.76 229.46 183.96 229.46 184.07 229.47 C 184.60 226.78 185.71 224.26 186.57 221.68 Z" />
<path fill="#ff0000" opacity="1.00" d=" M 243.95 240.74 C 250.30 240.40 256.67 240.82 263.02 240.45 C 268.75 239.12 274.66 239.67 280.49 239.69 C 278.14 247.15 275.76 254.59 273.35 262.03 C 271.95 265.98 270.53 269.97 270.01 274.15 C 266.07 275.20 262.04 275.57 257.98 275.34 C 249.82 277.30 241.29 275.91 232.98 276.40 C 230.03 277.78 226.83 277.22 223.73 277.03 C 223.73 276.52 223.73 275.50 223.73 274.99 C 227.02 263.88 231.45 253.07 234.01 241.76 C 237.33 241.53 240.69 241.52 243.95 240.74 Z" />
<path fill="#ff0000" opacity="1.00" d=" M 324.97 256.00 C 329.60 255.05 334.41 256.14 339.03 255.06 C 340.87 254.58 342.78 254.66 344.66 254.66 C 341.17 267.95 336.27 280.83 332.36 294.00 C 331.64 296.12 331.10 299.42 328.22 299.42 C 321.90 301.01 315.35 299.96 308.95 300.73 C 302.06 302.28 294.87 300.48 288.00 302.24 C 283.49 302.52 278.79 302.85 274.53 301.68 C 279.45 289.88 282.67 277.45 286.80 265.36 C 287.92 262.92 287.67 259.29 290.41 258.00 C 294.23 257.24 298.18 257.86 302.04 257.51 C 309.55 255.71 317.40 257.43 324.97 256.00 Z" />
</g>
<g id="#3d9836ff">
<path fill="#3d9836" opacity="1.00" d=" M 586.67 200.67 C 592.05 201.13 596.89 203.92 602.12 205.15 C 608.15 206.60 613.54 209.73 619.24 212.04 C 635.91 219.58 652.01 228.47 666.72 239.37 C 670.01 241.97 674.01 243.96 676.42 247.49 C 676.43 251.41 674.48 254.99 673.41 258.68 C 661.46 295.16 649.76 331.72 637.95 368.24 C 636.70 371.85 636.04 375.72 634.09 379.05 C 632.68 380.20 631.25 378.44 629.94 377.95 C 620.07 371.74 610.24 365.46 600.07 359.76 C 591.48 355.42 583.21 350.45 574.40 346.53 C 564.08 342.46 554.08 336.48 542.69 336.22 C 545.29 324.56 549.71 313.39 553.27 302.00 C 563.58 269.70 574.26 237.53 584.46 205.20 C 585.00 203.60 585.69 202.05 586.67 200.67 Z" />
</g>
<g id="#0d3997ff">
<path fill="#0d3997" opacity="1.00" d=" M 63.06 284.42 C 70.00 284.52 76.94 284.25 83.88 284.41 C 83.06 289.92 81.39 295.31 79.04 300.36 C 71.98 300.94 64.87 300.67 57.78 300.70 C 59.52 295.27 61.25 289.83 63.06 284.42 Z" />
<path fill="#0d3997" opacity="1.00" d=" M 123.04 311.20 C 127.59 310.71 132.18 310.21 136.76 310.58 C 135.66 319.46 131.72 327.69 129.22 336.23 C 125.12 336.50 121.09 337.51 116.97 337.41 C 110.08 337.26 103.29 338.96 96.39 338.32 C 99.20 329.44 102.33 320.66 104.91 311.71 C 110.95 311.53 117.00 311.58 123.04 311.20 Z" />
<path fill="#0d3997" opacity="1.00" d=" M 149.92 341.58 C 161.95 341.57 173.90 339.86 185.96 340.49 C 185.12 346.30 182.64 351.67 180.92 357.24 C 179.41 361.61 178.55 366.21 176.46 370.37 C 164.30 372.10 151.96 370.89 139.81 372.57 C 137.49 372.39 138.52 369.76 138.85 368.40 C 141.22 361.07 143.71 353.77 145.97 346.41 C 146.74 344.50 147.24 341.43 149.92 341.58 Z" />
<path fill="#0d3997" opacity="1.00" d=" M 43.08 345.86 C 50.13 344.90 57.30 345.47 64.40 345.39 C 62.83 350.77 61.87 356.47 59.02 361.37 C 52.05 361.85 45.06 361.57 38.08 361.70 C 39.65 356.39 41.54 351.18 43.08 345.86 Z" />
<path fill="#0d3997" opacity="1.00" d=" M 225.03 359.98 C 230.27 359.11 235.63 359.37 240.93 359.43 C 239.79 366.35 237.04 372.89 235.06 379.60 C 233.39 384.26 232.39 389.14 230.23 393.62 C 222.45 393.55 214.78 394.93 207.04 395.41 C 199.71 395.49 192.38 395.59 185.05 395.61 C 188.31 384.25 192.04 373.01 195.85 361.84 C 205.35 359.17 215.34 361.08 225.03 359.98 Z" />
<path fill="#0d3997" opacity="1.00" d=" M 392.79 363.31 C 402.43 361.51 412.24 361.48 421.98 360.62 C 431.35 360.00 440.64 361.53 450.00 361.67 C 460.42 362.73 470.93 363.38 481.20 365.61 C 483.87 366.15 486.58 366.42 489.27 366.89 C 483.86 385.82 477.14 404.36 471.39 423.20 C 463.41 447.60 455.46 472.01 447.71 496.49 C 446.89 498.38 446.24 500.95 443.95 501.52 C 439.78 501.21 435.92 499.40 431.84 498.59 C 416.16 495.16 399.98 495.09 384.00 495.43 C 371.14 495.49 358.28 495.34 345.43 495.74 C 351.25 475.32 358.51 455.31 364.70 434.98 C 370.81 416.96 376.29 398.73 382.41 380.71 C 384.20 375.71 385.08 370.39 387.37 365.58 C 388.25 363.46 390.94 363.83 392.79 363.31 Z" />
<path fill="#0d3997" opacity="1.00" d=" M 85.95 372.67 C 96.28 371.98 106.59 370.84 116.98 371.42 C 116.59 376.65 114.36 381.44 112.89 386.40 C 111.68 389.72 111.15 393.37 109.11 396.33 C 107.08 396.57 105.05 396.77 103.04 397.13 C 95.92 398.21 88.64 396.78 81.58 398.32 C 80.69 398.39 78.89 398.55 77.99 398.63 C 78.24 393.04 80.67 387.95 82.19 382.66 C 83.28 379.27 84.11 375.74 85.95 372.67 Z" />
<path fill="#0d3997" opacity="1.00" d=" M 294.98 375.96 C 298.44 375.35 302.05 375.00 305.43 376.28 C 302.28 387.10 298.43 397.70 295.13 408.48 C 294.05 411.86 293.23 415.37 291.61 418.55 C 289.88 420.24 287.16 419.31 285.00 419.69 C 279.39 420.41 273.72 421.01 268.06 420.53 C 265.31 420.17 262.85 422.00 260.08 421.53 C 252.20 421.10 244.47 422.86 236.59 422.67 C 238.33 413.29 242.13 404.48 244.81 395.36 C 246.79 390.06 247.70 384.28 250.54 379.35 C 254.08 377.55 258.26 378.94 262.05 378.08 C 267.98 376.88 274.07 377.84 280.03 377.11 C 284.96 376.08 290.03 376.80 294.98 375.96 Z" />
<path fill="#0d3997" opacity="1.00" d=" M 151.04 399.05 C 156.30 398.20 161.66 398.36 166.97 398.47 C 166.57 402.56 165.31 406.46 163.83 410.28 C 161.47 416.29 160.74 423.06 157.17 428.51 C 151.80 428.89 146.35 428.21 141.04 429.31 C 133.82 429.82 126.56 429.61 119.33 429.72 C 122.00 419.80 125.39 410.09 128.64 400.35 C 135.96 398.46 143.61 400.03 151.04 399.05 Z" />
<path fill="#0d3997" opacity="1.00" d=" M 216.54 416.92 C 218.55 416.62 220.58 416.63 222.61 416.61 C 221.81 424.31 218.25 431.36 216.25 438.79 C 214.51 443.20 214.05 448.24 211.31 452.20 C 199.70 454.47 187.73 452.53 176.01 453.76 C 172.57 454.52 169.02 454.41 165.52 454.28 C 168.86 443.93 172.24 433.59 175.62 423.26 C 176.15 421.68 176.76 420.11 177.79 418.79 C 183.79 417.91 189.90 418.86 195.89 417.88 C 202.75 416.94 209.72 418.16 216.54 416.92 Z" />
<path fill="#0d3997" opacity="1.00" d=" M 254.05 438.28 C 260.29 437.04 266.72 438.17 272.99 437.14 C 277.23 436.30 281.58 436.60 285.88 436.52 C 281.96 451.63 276.10 466.16 271.98 481.21 C 268.28 481.63 264.54 481.20 260.87 481.81 C 254.64 483.08 248.23 481.80 241.98 482.89 C 237.05 483.82 231.97 483.04 227.03 483.92 C 223.49 484.61 219.87 484.48 216.29 484.29 C 219.41 471.53 224.33 459.28 228.00 446.67 C 228.92 444.28 229.20 441.23 231.46 439.68 C 239.03 439.69 246.51 438.62 254.05 438.28 Z" />
</g>
<g id="#ffff00ff">
<path fill="#ffff00" opacity="1.00" d=" M 529.87 374.29 C 535.24 373.80 540.13 376.35 545.15 377.82 C 547.97 378.75 550.81 379.64 553.65 380.57 C 554.39 381.39 555.14 382.23 555.88 383.07 C 558.79 383.74 561.71 384.34 564.58 385.17 C 566.96 387.48 570.03 388.76 573.14 389.76 C 575.17 391.41 577.50 392.60 580.10 393.03 C 580.68 393.64 581.27 394.26 581.87 394.88 C 588.57 398.03 594.92 401.81 601.02 405.98 C 607.00 409.98 613.20 413.73 618.48 418.66 C 620.52 420.12 619.56 422.93 619.23 425.00 C 608.36 458.38 597.59 491.78 586.77 525.17 C 585.45 529.34 583.92 533.44 583.04 537.74 C 583.01 537.18 582.99 536.63 582.98 536.09 C 582.02 539.33 581.16 542.61 580.22 545.87 C 579.42 547.93 578.92 550.60 577.00 551.82 C 568.30 547.40 560.48 541.20 551.67 537.20 C 551.33 536.86 550.64 536.16 550.30 535.81 C 547.46 534.17 544.54 532.71 541.63 531.22 C 541.31 530.85 540.66 530.11 540.34 529.74 C 538.52 529.15 536.71 528.57 534.88 528.05 C 534.29 527.41 533.71 526.77 533.13 526.14 C 528.56 523.40 523.32 521.96 518.73 519.26 C 514.81 516.76 509.99 516.35 506.06 513.88 C 500.68 510.69 494.37 509.98 488.28 509.29 C 487.77 504.58 489.23 500.11 491.04 495.85 C 491.48 494.04 491.81 492.22 492.12 490.39 C 492.35 490.43 492.83 490.50 493.06 490.54 C 494.17 484.18 496.76 478.24 498.60 472.09 C 500.80 465.71 502.54 459.19 504.92 452.88 C 506.41 447.75 508.09 442.69 509.69 437.60 C 509.80 437.52 510.02 437.37 510.12 437.29 C 511.35 431.98 513.23 426.88 514.99 421.75 C 518.24 410.55 522.38 399.65 525.52 388.43 C 525.65 388.43 525.92 388.45 526.06 388.46 C 526.89 383.62 528.95 379.10 529.87 374.29 Z" />
</g>
</svg>
