<svg viewBox="0 0 200 155" xmlns="http://www.w3.org/2000/svg"><path d="M0 0h137.11c-10.61 2.14-21.17 4.85-31.09 9.29-.04 6.22-.04 12.45.03 18.67.07 13.81.05 27.62.01 41.43-.08 4.3-.09 8.6.01 12.9.08 13.56.1 27.11-.01 40.67-.08 6.51-.14 13.02.05 19.53 6.83-4.11 14.15-7.47 21.87-9.51 5.61-1.59 11.44-1.94 17.17-2.83 7.56-.81 15.04.93 22.44 2.23 10.23 1.84 19.73 6.23 29.3 10.08.26-43.79.03-87.59.11-131.39C186.49 5.15 174.56 2.5 162.88 0H200v155H0V0z" fill="none"/><path d="M137.11 0c-10.61 2.14-21.17 4.85-31.09 9.29-.04 6.22-.039 12.451.031 18.671 9.72-4.36 19.918-7.85 30.568-8.88.11 13.91-.01 27.83.07 41.74-10.61 1.25-20.768 4.58-30.628 8.57-.08 4.3-.09 8.598.01 12.897 9.71-4.29 19.93-7.688 30.59-8.468.03 13.3-.011 26.6.019 39.9-10.51 1.97-20.85 4.87-30.62 9.24-.08 6.51-.14 13.019.05 19.529 6.83-4.11 14.15-7.47 21.87-9.51 5.61-1.59 11.44-1.94 17.17-2.83 7.56-.81 15.04.93 22.44 2.23 10.23 1.84 19.73 6.23 29.3 10.08.26-43.79.03-87.59.11-131.39C186.49 5.15 174.561 2.5 162.881 0h-25.77zm14.828 16.947c8.907-.109 17.769 1.653 26.012 5.092-.01 14.01.071 28.02-.049 42.03-5-1.36-9.95-3.04-15.1-3.75-4.9-.55-9.842-.309-14.762-.339.01-14.29-.12-28.581.08-42.871a63.364 63.364 0 0 1 3.819-.162zm3.727 54.803c7.614.067 15.187 1.41 22.297 4.26-.02 13.84.028 27.68-.032 41.52-9.66-3.03-19.76-4.77-29.91-4.35.03-13.69-.028-27.39.032-41.08a70.504 70.504 0 0 1 7.613-.35zM8 13.39c2.39-1.04 4.72-2.21 7-3.47v7.01c-2.27 1.23-4.58 2.38-6.93 3.45C8 18.05 8 15.72 8 13.39zm79 5c5.74-2.67 11.39-5.54 17-8.48.02 5.9-.04 11.79.03 17.69-5.75 2.67-11.41 5.55-17.03 8.49v-17.7zm-66-.19c2.94-1.88 5.9-3.73 9-5.34v8.98c-2.58 2.18-5.63 3.77-8.92 4.53-.09-2.72-.09-5.45-.08-8.17zm47 5.89c5.27-2.86 10.74-5.32 16-8.18v16.71c-5.4 2.4-10.56 5.31-15.93 7.77-.14-5.43-.05-10.87-.07-16.3zm-17.01-.78c4.94-1.6 9.57-3.98 14.12-6.46 1.71 4.47.59 9.39.89 14.06-4.79 2.8-9.97 4.78-15 7.06 0-4.88.01-9.77-.01-14.66zM36 24.07c3.77-2.25 7.99-3.54 11.96-5.39.06 3.68.04 7.36.04 11.05-4.12 1.19-7.8 3.47-11.91 4.65-.12-3.43-.09-6.87-.09-10.31zm51 13.32c5.74-2.67 11.39-5.54 17-8.48-.02 5.9.04 11.8-.03 17.71-5.72 2.72-11.48 5.41-16.88 8.73-.18-5.99-.06-11.98-.09-17.96zm0 18.74c5.39-3.32 11.59-4.94 17-8.22 0 5.9-.01 11.79.01 17.69-5.74 2.67-11.38 5.56-17.01 8.46V56.13zM7.98 70.09c2.27-1.24 4.58-2.41 6.94-3.48.08 2.36.09 4.72.08 7.08-2.27.97-4.51 2.04-6.91 2.68-.07-2.09-.1-4.19-.11-6.28zm79.03 4.92c5.74-2.53 11.51-5.01 16.99-8.1v16.95c-5.18 3.89-11.4 6.01-17 9.2 0-6.02-.01-12.04.01-18.05zm-65.96-.54c2.87-1.78 5.76-3.54 8.87-4.88.1 3.09.09 6.18.08 9.27-2.99 1.48-5.66 3.63-8.9 4.55-.11-2.98-.16-5.96-.05-8.94zM68 80.38c5.4-2.4 10.56-5.3 15.93-7.77.13 5.43.05 10.87.07 16.3-5.27 2.86-10.74 5.32-16 8.18V80.38zm-17 0c5.04-2.07 9.6-5.25 14.86-6.77.24 4.65.1 9.3.16 13.96-5.04 2.13-9.63 5.34-14.94 6.81-.15-4.67-.06-9.33-.08-14zm-14.98-.06c3.92-1.68 7.82-3.43 11.89-4.69.12 3.45.09 6.9.09 10.36-3.92 1.91-8.06 3.35-11.93 5.39-.09-3.69-.09-7.37-.05-11.06zM87 94.08c5.58-2.93 11.23-5.75 16.93-8.46.14 5.76.04 11.53.07 17.3-5.67 2.75-11.13 6.01-16.9 8.5-.2-5.78-.06-11.56-.1-17.34zm0 19.3c5.74-2.66 11.39-5.53 17-8.47-.01 5.9 0 11.8 0 17.71-5.85 2.52-11.37 5.69-16.88 8.84-.24-6.02-.07-12.05-.12-18.08zM8 126.32c2.27-.98 4.51-2.06 6.91-2.7.09 2.34.1 4.67.09 7.01-2.43.57-4.68 1.68-6.96 2.69-.04-2.34-.04-4.67-.04-7zm79 6.08c5.74-2.38 10.93-6.03 16.92-7.78.16 5.67.05 11.33.08 17-5.95 2.34-11.15 6.1-16.92 8.79-.16-6-.05-12.01-.08-18.01zm-66-1.27c3.11-1.6 6.08-3.46 9.02-5.34-.04 3.25.02 6.51-.06 9.76-3.11 1.37-5.79 3.48-8.86 4.92-.13-3.11-.11-6.23-.1-9.34zm47 6.25c5.4-2.41 10.56-5.31 15.93-7.77.14 5.33.04 10.67.08 16-5.4 2.41-10.56 5.32-15.94 7.78-.13-5.34-.05-10.67-.07-16.01zm-17-.29c4.92-2.23 9.44-5.86 14.96-6.33.07 4.38.03 8.77.04 13.16-4.92 2.59-9.9 5.08-14.93 7.47-.13-4.77-.05-9.54-.07-14.3zm-14.97.29c4.03-1.79 7.88-3.94 11.89-5.77.1 3.67.11 7.34.05 11.01-3.98 1.84-7.84 3.93-11.97 5.4.01-3.55-.03-7.1.03-10.64z" fill="#fff"/></svg>