<svg width="722.64117pt" height="601.51636pt" version="1.1" viewBox="0 0 722.64115 601.51635" xmlns="http://www.w3.org/2000/svg">
 <path d="m134.97657 2.6053356e-4c-4.32666-0.00600000356-8.65431 0.09139999644-12.9668 0.3164099964-2.52 5.08998997-3.73075 10.73010047-5.51074 16.10009047 6.83999-0.19 13.691 0.04 20.52099-0.22998 3.33-4.67999 4.16926-10.6408005 5.73926-16.07080047-2.59125-0.0713-5.18672-0.11215-7.78271-0.1157199964zm52.57617 26.95752047c-4.2499 9e-3 -8.49864 0.1126-12.72364 0.5376-3.98999 0.78-8.2 0.15055-12 1.81054-1.57999 8.23-5.1801 15.88956-7.10009 24.03955 8.45999 0.58 16.81124-1.26972 25.26123-0.96972 2.72999-0.05 6.6998 0.19103 7.5498-3.18897 2.37-7.34999 5.20918-14.58092 6.65918-22.19091-2.54625-0.015-5.09654-0.0435-7.64648-0.0381zm56.4375 29.12842c-7.92999 0.2-15.92079-0.23039-23.80078 0.84961-4.05 0.45-8.14018-0.0103-12.18018 0.4497-2.49 0.9-2.84949 3.85001-3.72949 6-2.32 8.05-5.52989 15.83027-7.37988 24.01026 6.05999-0.06 12.14018 0.17074 18.18017-0.48926 6.23999-1.07 12.59987-0.0908 18.85986-0.78076 2.63-1.24 2.7793-4.66934 3.7793-7.06934 1.89-7.72999 5.861-14.93022 6.271-22.97021zm55.64941 20.93994c-6.84999 0.54-13.74985-0.0199-20.58984 0.58008-7.61999 1.15-15.33952 0.31986-22.99951 0.85986-1.04 0.03-2.27991 0.3807-2.64991 1.4707-1.99999 4.53-3.03017 9.42887-4.68017 14.08887-1.95 6.449989-4.50018 12.720979-6.18018 19.250979 0.76 0.56 1.60965 1.27939 2.63965 1.12939 5.78999-0.42 11.59038-0.33002 17.38037-0.52002 7.71999-1.1 15.52981-0.69941 23.29981-0.89941 1.40999 0.21 2.51025-0.84104 3.01025-2.06104 1.65-3.54999 2.53981-7.39008 3.7998-11.080079 2.3-7.60999 5.34973-15.00934 6.96973-22.81933zm148.28467 11.27051c-1.6825-0.0163-3.35461 0.0688-4.97461 0.5288-1.4 1.99-2.08938 4.37065-2.85937 6.66065-3.61 11.349989-7.16118 22.729799-10.95118 34.029779-1.73 5.31-3.64939 10.5903-4.87939 16.0503 5.20999-0.24 10.45034-0.27977 15.59033-1.25977 6.75999-1.29 13.67903-0.74101 20.49902-1.54101 3.55-0.46 7.09993 0.34041 10.66993 0.42041 4.76999 0.33 9.57107-0.0902 14.35107 0.33984 7.74999 0.83 15.47899 1.81059 23.20898 2.85059 5.98 1.10999 12.00083 2.04974 18.09082 2.23974-1.05999 6.45-3.29088 12.60026-5.40087 18.76026-12.62999 38.98996-25.18941 77.99927-37.8794 116.96923-9.30999-0.15-18.09011-3.79937-27.3501-4.35937-8.89999-1.55-17.9804-0.36987-26.90039-1.60986-8.38999-0.51-16.79946-0.0795-25.18945-0.20948-7.56999-0.2-15.04987 1.19973-22.60986 0.96973h-0.7295c-1.80999 6.06999-3.76021 12.10012-5.72021 18.12012-14.18999 42.87995-27.91091 85.91941-41.9209 128.85937-2.85 8.72999-5.33926 17.60015-8.73926 26.14014 0.35-0.06 1.05918-0.15947 1.40918-0.20947-5.90999 15.43998-10.11969 31.48958-15.67968 47.05957-0.92 2.96999-2.55963 6.19959-1.36963 9.32959 4.44999 0.01 8.89932-0.25993 13.29931-0.91993 12.36999-0.2 24.75062-0.1791 37.12061-0.0791 6.27999 1.08 12.65024 0.78922 18.99023 0.94922 8.79999 1.24 17.74974 1.25076 26.46973 3.03076 9.91999 1.82 20.04054 2.58001 29.79053 5.25 7.59999 0.87 14.50991 4.5395 22.1499 5.2295 6.56999 1.62999 13.10963 3.64049 19.36963 6.25048 5.65999 3.52 12.36998 4.50962 18.22998 7.59961 23.72997 10.12999 45.89021 23.89012 65.95019 40.1001 7.24 5.3 13.42046 11.83921 20.21045 17.6792 2.59 2.58 4.88956 5.45073 7.53955 7.99072 3.83-10.70999 7.04917-21.62993 10.63916-32.41992 41.25996-127.38987 82.47005-254.80104 123.75-382.19092 2.24-4.69999-2.99969-7.66008-5.92968-10.33008-19.24998-17.46998-39.9901-33.53934-62.83008-46.06933-7.29999-4.1-14.6197-8.25981-22.42969-11.29981-4.89999-1.62999-9.21045-4.66051-14.21045-6.0205-12.86999-3.98-25.57929-8.48954-38.50928-12.26954-6.73999-0.84999-13.1399-3.280029-19.8999-4.040029-6.47999-0.77-12.80079-2.53038-19.30078-3.13038-9.38999-1.35999-18.85958-2.01982-28.30957-2.81982-6.18999-1.07-12.5395-0.24014-18.72949-1.39014-7.98999-0.63-16.06001 0.26028-24-0.96972-4.99-0.36-10.00122 0.0396-14.99121-0.19043-1.66 0.055-3.35217-0.0628-5.03467-0.0791zm-89.03027 2.02734c-3.22891 0.0146-6.45079 0.17393-9.64454 0.74268-13.24998 0.55999-26.4297 2.14921-39.67968 2.44921-1.53 1.87-2.15039 4.25073-2.90039 6.490729-3.08 9.85999-6.20003 19.71928-9.52002 29.50927-0.99 2.75-1.5392 5.64005-1.9292 8.54004 4.16999 0.06 8.36926 0.21998 12.48926-0.52002 6.24999-0.91 12.62082 0.13016 18.84082-1.08984 7.64999-0.28 15.25991-1.03031 22.8999-1.57031 1.89-1.08 2.13969-3.58018 2.92969-5.43018 3.99999-13.04999 8.58959-25.91982 12.32959-39.049799-1.93875-0.0375-3.87809-0.0805-5.81543-0.0718zm74.00537 1.62158c-5.5 0.63-11.00026 1.23088-16.51026 1.65088-6.70999 1.71-13.70922 1.14985-20.44922 2.58984-7.01999 1.47-14.44094 0.42942-21.21093 3.14942-1.57 1.879999-2.20924 4.281039-2.96924 6.561029-3.39 10.85999-6.8602 21.69929-10.4502 32.50928-1.57 4.97-3.61931 9.82077-4.29931 15.03076 5.65999-0.59 11.21946-2.04045 16.93945-2.21045 5.40999 0.05 10.59024-1.8497 15.99023-1.9497 6.73-0.09 13.24048-2.18034 19.98047-2.09034 3.14 0.16 6.61965-1.22017 7.13965-4.68017 4.98-16.93998 11.41936-33.46057 15.83936-50.560549zm-18.36035 59.160649c-6.09 1.29999-12.36876 0.99-18.46875 2.25-4.71 1.08-9.60058 0.6198-14.33057 1.5498-8.82999 1.94-18.09958 1.19032-26.80957 3.82031-2.21 3.41-2.88067 7.52911-4.18067 11.32911-4.29999 14.42998-9.89949 28.49062-13.47949 43.1206 5.31 0.13 10.39944-1.63939 15.66944-1.87939 7.64999-0.16 15.04973-2.37993 22.71972-2.41993 7.02-1.51999 14.27101-1.33115 21.271-2.93115 5.56999-18.36998 11.79889-36.53937 17.60889-54.83935zm153.08056 5.26025c5.38 0.46 10.21971 3.24949 15.44971 4.47949 6.02999 1.45 11.4211 4.58063 17.12109 6.89063 16.66999 7.53999 32.77 16.4296 47.47998 27.32959 3.29 2.59999 7.28874 4.58963 9.69873 8.11963 0.01 3.91999-1.93879 7.49994-3.00879 11.18994-11.94998 36.47996-23.65094 73.04009-35.46093 109.56006-1.25 3.60999-1.90987 7.48055-3.85987 10.81054-1.40999 1.15-2.8399-0.6101-4.1499-1.10009-9.86999-6.21-19.69964-12.49044-29.86963-18.19043-8.58999-4.34-16.85993-9.31048-25.66992-13.23047-10.31999-4.07-20.32095-10.04957-31.71094-10.30957 2.6-11.65999 7.02057-22.83023 10.58057-34.22022 10.30999-32.29997 20.98946-64.46984 31.18945-96.7998 0.54-1.6 1.23045-3.1493 2.21045-4.5293zm-482.96924 22.8501c-6.91999 0.6-13.97135 1.96015-20.88134 0.41015-2.13 5.76-4.10864 11.58005-5.59864 17.54004 5.62 0.17 11.2389-0.0411 16.85889-0.10107 1.73 0.06 3.44112-0.43963 4.89111-1.36963 2.34-5.20999 4.03998-10.7895 4.72998-16.47949zm47.96485 25.83105c-2.89102 0.0225-5.77501 0.19873-8.625 0.69873-5.66 0.66-11.37054 0.10034-17.04053 0.59034-1.9 1.66999-2.34967 4.28957-3.15967 6.55957-1.86 6.45999-4.34977 12.72957-5.75976 19.30957 4.00999 0.15 8.02975-0.0692 11.98974-0.71924 6.69-0.55 13.49958 0.31884 20.05957-1.43115 2.35-8.38 5.66024-16.46994 7.74024-24.91993-1.7325-0.06-3.46999-0.10136-5.20459-0.0879zm259.26416 6.12305c-6.01644-9e-3 -11.8629 2.09623-17.90039 2.10498-4.75 0.08-9.32932 1.481-14.04932 1.771-7.62999 0.29-15.08999 2.13011-22.72998 2.37011-1.89-0.2-2.18963 1.99858-2.86963 3.28858-3.27 9.80999-6.24977 19.71126-9.50976 29.53125-2.29 7.31999-5.08102 14.50928-6.79102 22.00927 6.41999 0.2 12.78106-0.70035 19.08105-1.86035 5.72-0.16 11.37952-0.95951 16.99952-1.99951 7.72999-0.27 15.32926-1.74945 22.98925-2.68945 1.84-3.34 2.62127-7.11094 3.80127-10.71094 3.33-10.57999 6.91977-21.07942 10.25977-31.64941 1.19-3.98 2.97908-7.84052 3.30908-12.02051-0.8675-0.1-1.73035-0.14367-2.58984-0.14502zm-209.27051 23.09473c-1.89828 0.0572-3.87838 0.59314-5.729 0.66064-9.01 0.35-17.95976 1.38072-26.98975 1.24072-0.36 0.26-1.08115 0.78909-1.43115 1.05909-2.43 4.71999-3.4593 10.0007-5.2793 14.9707-1.43 4.65999-3.14984 9.23907-4.08984 14.03906 4.62999 0.13 9.27914 0.10012 13.86914-0.62988 7.28999-0.61 14.65069 0.0106 21.95068-0.60938 1.41-0.06 2.65063-1.07012 3.14063-2.37011 1.85999-4.14 2.79881-8.62063 4.2788-12.89063 1.46-4.76999 3.52045-9.36955 4.46045-14.28955-1.27749-0.98-2.70422-1.22517-4.18066-1.18066zm58.39014 21.80127c-6.35 0.06-12.75005-0.1902-19.04004 0.7998-8.33999 0.42-16.71909 0.0497-25.05908 0.44971-1.78 2.81999-2.56958 6.09928-3.55957 9.25927-2.03 6.83-4.48014 13.53007-6.64014 20.31006-0.32 1.76-1.18981 3.911-0.0498 5.521 4.73 0.13 9.41938-0.55998 14.10938-0.97998 9.79999 0.08 19.58936-0.21047 29.33935-1.23047 2.16-4.14 3.06006-8.78067 4.56006-13.18066 2.02-7.02 4.87985-13.77874 6.33985-20.94873zm132.03369 14.58544c-2.53125-0.0192-5.04499 0.62848-7.54248 1.06348-16.54999 1.76-33.07033 3.71059-49.57032 5.85059-5.68999 18.28998-12.08967 36.39052-17.40966 54.77051 6.94999-1.15 14.02995-1.10024 20.93994-2.49024 6.21999-0.64 12.45913-1.04057 18.59912-2.33057 6.76999-0.23 13.4911-1.16933 20.12109-2.56933 5.92-17.96998 11.84942-35.94053 17.39942-54.02051-0.8475-0.1875-1.69336-0.26752-2.53711-0.27393zm-76.70069 2.23096c-4.78876 0.0518-9.58428 0.48877-14.32177 1.08252-4.76 0.25-9.56128-0.01-14.30127 0.53027-5.54 0.99-11.18954 0.30961-16.76953 0.84961-2.04 3.23-2.88909 7.00083-4.05909 10.59082-3.44999 11.18999-7.54076 22.20004-10.53076 33.52002 5.2 0.04 10.38053-0.50959 15.54053-1.07959 13.09999 0.02 26.09993-1.66127 39.16992-2.30127 3.34-7.32999 5.11934-15.2701 7.81934-22.85009 1.82-6.72 4.8298-13.09876 6.0498-19.96875-2.85374-0.29625-5.72391-0.40459-8.59717-0.37354zm113.61182 43.31543c7.00452 0.17531 13.98587 1.06248 21.00586 1.16748 10.41999 1.06 20.92972 1.71043 31.19971 3.94043 2.66999 0.54 5.37982 0.81028 8.06982 1.28028-5.40999 18.92998-12.12989 37.47007-17.87988 56.31005-7.97999 24.39998-15.92921 48.80909-23.6792 73.28907-0.82 1.88999-1.47026 4.46027-3.76025 5.03027-4.17-0.31-8.02987-2.11969-12.10987-2.92969-15.67998-3.42999-31.86035-3.49967-47.84033-3.15967-12.85999 0.06-25.71935-0.0909-38.56934 0.30909 5.82-20.41998 13.08003-40.43028 19.27002-60.76026 6.11-18.01998 11.58997-36.24955 17.70996-54.26953 1.79-4.99999 2.66997-10.32037 4.95997-15.13037 0.87999-2.12 3.56992-1.74904 5.41992-2.26904 9.63999-1.8 19.44995-1.83092 29.18994-2.69092 2.3425-0.155 4.67883-0.17563 7.01367-0.11719zm-53.22363 12.83789c-7.40999 0.71-14.72042 2.19908-22.17041 2.55908-12.49999 2.09-25.28044 2.16106-37.69043 4.83106-5.73 18.31998-11.95036 36.48963-17.61035 54.84961 5.85999-1.4 11.94008-0.95989 17.83007-2.12988 5.55-1.23 11.29087-1.02079 16.88086-2.05079 8.23-1.54999 16.84988-0.99937 24.85987-3.60937 2.23999-3.71 2.96969-8.07987 4.42968-12.10986 4.3-14.16999 9.42071-28.08986 13.47071-42.33985zm156.09228 0.90088c4.60209 0.17992 8.89511 2.29237 13.2876 3.57861 2.82 0.93 5.65903 1.81952 8.49902 2.74952 0.74 0.82 1.49096 1.66049 2.23096 2.50048 2.91 0.67 5.82971 1.27059 8.69971 2.10059 2.38 2.31 5.45055 3.58936 8.56055 4.58936 2.02999 1.64999 4.35947 2.83953 6.95947 3.26953 0.58 0.61 1.16953 1.2301 1.76953 1.85009 6.69999 3.15 13.04991 6.93059 19.1499 11.10059 5.98 4 12.18094 7.74969 17.46094 12.67969 2.04 1.46 1.08 4.26984 0.75 6.33984-10.86999 33.37997-21.64095 66.78045-32.46094 100.17041-1.32 4.17-2.84949 8.26983-3.72949 12.56983-0.03-0.56-0.0501-1.10942-0.0601-1.64942-0.96 3.24-1.81977 6.5193-2.75977 9.7793-0.79999 2.06-1.29972 4.7302-3.21972 5.95019-8.69999-4.41999-16.52009-10.61914-25.33008-14.61914-0.34-0.34-1.03109-1.04013-1.37109-1.39013-2.84-1.64-5.75895-3.10082-8.66895-4.59082-0.32-0.37-0.97053-1.1095-1.29053-1.4795-1.81999-0.59-3.62947-1.17043-5.45947-1.69043-0.59-0.63999-1.17049-1.28015-1.75049-1.91015-4.56999-2.74-9.80942-4.18038-14.39941-6.88037-3.92-2.5-8.7409-2.90891-12.6709-5.37891-5.37999-3.19-11.69028-3.90082-17.78027-4.59082-0.51-4.70999 0.95123-9.17994 2.76123-13.43994 0.44-1.81 0.76959-3.62948 1.07959-5.45947 0.23 0.04 0.71043 0.10941 0.94043 0.14941 1.11-6.35999 3.70004-12.29971 5.54004-18.44971 2.19999-6.37999 3.93933-12.89996 6.31933-19.20996 1.49-5.12999 3.16953-10.18979 4.76953-15.27978 0.11-0.08 0.33067-0.23055 0.43067-0.31055 1.23-5.30999 3.1106-10.40907 4.8706-15.53906 3.25-11.19999 7.3893-22.10081 10.5293-33.3208 0.13 0 0.40053 0.0208 0.54053 0.0308 0.83-4.84 2.89006-9.3609 3.81006-14.1709 0.67124-0.0613 1.33474-0.074 1.99218-0.0483zm-494.01123 29.19873c-4.41298 0.0211-8.82969 0.16299-13.24218 0.25049-2.13 5.81999-4.12909 11.70926-5.55909 17.73926 6.89-1.98 14.11962-0.25912 21.09961-1.34912 3.18-4.94 4.24965-10.89026 5.63965-16.51026-2.64375-0.1125-5.2902-0.14302-7.93799-0.13037zm60.83789 27.21973c-10.75999-0.05-21.47919 0.99963-32.15918 2.11963-1.36999 1.31-1.79068 3.26021-2.45068 4.97021-2.11 6.93999-4.48893 13.78997-6.64893 20.70996 8.23 0.09 16.45868 0.0406 24.63868-0.83935 3.03999-0.56 7.98025 0.83982 9.01025-3.18018 2.61-7.89999 5.29987-15.78028 7.60986-23.78027zm257.1211 2.72021c-5.85 0.24-11.62999 1.27032-17.47998 1.57032-7.62 1.58999-15.44009 1.44013-23.08008 2.89013-5.95 0.97-12.21995 0.46965-17.93994 2.63965-1.6 1.42-1.88067 3.86932-2.68067 5.79932-4.89999 16.18998-10.57041 32.13107-15.42041 48.33105 8.68999-0.51 17.40048-1.29008 25.98047-2.83008 4.54-0.39 9.11057-0.49019 13.58057-1.45019 6.32999-1.4 13.07022-0.21954 19.22021-2.51953 1.61-1.07 1.91864-3.17106 2.59864-4.83106 4.20999-13.65998 8.70117-27.22884 13.20117-40.79883 0.95-2.85999 1.61002-5.81078 2.02002-8.80078zm-209.74219 23.75684c-2.67328-0.053-5.35131 0.29853-8.02881 0.37353-9.20999-0.02-18.37028 0.49963-27.53027 1.36963-2.87 1.96-2.8394 6.08032-4.1294 9.07032-2.01 7.00999-4.69994 13.79957-6.68994 20.80957 0.77 0.64999 1.72957 1.28959 2.80957 1.07959 4.48-0.54 9.01026-0.35893 13.51026-0.64893 7.08999-1.21 14.31971-0.41004 21.4497-1.04004 2.43-1.21 2.85121-4.16996 3.74121-6.45996 2.31-8.17999 5.39956-16.10985 7.53955-24.33984-0.88999-0.1325-1.78078-0.19622-2.67187-0.21387zm53.8667 21.21094c-1.14277-0.0462-2.42412 0.30839-3.50537 0.20214-9.73999 1.57-19.67898 0.05-29.43897 1.5-3.09999 0.41-6.24035 0.21948-9.36035 0.20948-3.02 8.10999-5.27084 16.49065-8.11084 24.66064-1.04 3-2.18992 6.00948-2.41992 9.20947l0.79102 0.56104c10.46998-0.23 20.99919 0.279 31.40917-1.021 3.91-0.24 7.83952 0.0402 11.74952-0.27978 1.96999-3.04 2.74006-6.60928 3.81006-10.00928 1.77999-6.07999 3.8409-12.08006 5.92089-18.06006 0.75-2.01 1.04024-4.141 0.99024-6.27099-0.51375-0.5025-1.14979-0.67395-1.83545-0.70166zm67.71533 14.31298c-5.60999 1.31-11.43008 0.62917-17.08008 1.63916-6.27999 0.53-12.61082-0.08-18.84082 1.04004-6.48999 0.97-13.51942-0.90027-19.64941 1.71973-3.23 6.81999-4.65079 14.37093-7.30078 21.44092-2.08 7.63999-5.90946 14.89965-6.43946 22.88965 11.89999-0.66 23.75998-2.10059 35.70996-2.10059 5.54-0.81 11.13974-0.86004 16.71973-1.04004 3.66-0.09 3.95028-4.43934 5.03027-7.06933 3.71-12.90999 8.81059-25.42955 11.85059-38.51954zm69.01025 0.70899c-3.44999 0.01-6.92058 0.0107-10.35058 0.43066-15.97999 2.83-32.24 3.47961-48.22998 6.09961-1.67 2.83-2.39991 6.07018-3.3999 9.18018-4.44 14.92998-10.07079 29.5096-14.05079 44.57959 6.53 0.49 12.87105-1.2492 19.31104-1.9292 7.12999 0.14 13.97987-2.35045 21.10986-2.21045 5.96-0.76 11.9004-1.79 17.90039-2.25 2.58-4.77 3.48866-10.21049 5.36866-15.25049 3.95999-12.92999 8.53131-25.67991 12.3413-38.6499z"/>
 <path d="m123.39991 57.196551c-6.62 0.28-13.24966 0.28972-19.88965 0.21972-2.53 5.69-4.10077 11.75017-6.03076 17.66016 7.27999 0.49 14.46045-0.83004 21.71044-1.04004 1.81-4.15999 2.9704-8.58037 4.4004-12.88037 0.49999-1.32-0.24043-2.62947-0.19043-3.95947zm52.36962 30.50976c-3.93999 0.41-7.91033 0.26963-11.84033 0.61963-5.98999 1.43-12.16998 0.27942-18.22998 0.89942-3.08 1.02-3.27937 4.75084-4.35937 7.36084-1.61 6.319989-4.71057 12.280059-5.33057 18.810059 3.01 0.07 6.02994-0.0304 8.93994-0.88038 6.65-0.47 13.35098-0.0898 20.00098-0.56982 3.61999 0.01 3.94996-4.07969 4.95996-6.67969 1.88-6.53999 4.57938-12.870059 5.85937-19.560059zm49.79004 28.259769c-6.99999 0.91-14.06037 1.47947-21.13037 0.95947-2.35-0.48-4.08996 1.95084-6.45996 1.36084-3.7-0.63-7.43014-0.28101-11.14014-0.041-2.29999 4.64999-3.34957 9.77137-5.05957 14.65136-1.52999 5.11-3.66922 10.03884-4.69921 15.29883 2.63999-0.05 5.28894 0.2611 7.91894-0.1289 4.85-1.26 9.91085-0.50102 14.86084-0.79102 5.16 0.21 10.1203-1.32023 15.30029-0.99023 1.78-1.83 2.28866-4.43001 3.11866-6.75 2.25999-7.91 5.30053-15.57935 7.29052-23.56934zm-126.84961 4.02539c-5.26077-0.0169-10.52455 0.17496-15.78955 0.085-1.86 5.37-3.55051 10.80022-5.2705 16.22022 6.77999-0.05 13.57987 0.0999 20.35986-0.12012 0.33-0.27 0.97957-0.8108 1.30957-1.0708 2.09-4.81 3.45088-9.92026 4.65088-15.01026-1.7525-0.07-3.50666-0.0984-5.26026-0.104zm181.22022 17.02441c-8.64999 0.2-17.38118-0.44956-25.95117 0.94043-6.06 0.19-12.11993 0.0502-18.16992 0.24024-0.33 0.3-0.97932 0.87894-1.29932 1.16894-3.55 9.19999-5.94934 18.81107-9.31934 28.08106-0.81 1.85-0.46054 3.90957-1.06054 5.80957 3.26999 0.04 6.55051-0.0607 9.7705-0.7207 9.96999-0.72 20.07976 0.56085 29.98975-1.11915 1.59-0.07 3.17979-0.10986 4.77978-0.10986 0.92-2.28 2.05997-4.49012 2.70997-6.87012 2.64999-9.20999 6.13029-18.16042 8.55029-27.42041zm183.08203 5.61036c-0.88781-0.0116-1.77559 0.0242-2.66309 0.13916-6.81999 0.8-13.73903 0.25101-20.49902 1.54101-5.13999 0.98-10.38034 1.01977-15.59033 1.25977-12.72999 39.09996-25.32029 78.25013-38.03027 117.35009-1.69 5.39-3.69965 10.69023-4.88965 16.22022 7.55999 0.23 15.03987-1.16973 22.60986-0.96973 8.38999 0.13 16.79946-0.30052 25.18945 0.20948 8.91999 1.23999 18.0004 0.0599 26.90039 1.60986 9.25999 0.56 18.04011 4.20937 27.3501 4.35937 12.68999-38.96996 25.24941-77.97927 37.8794-116.96923 2.10999-6.16 4.34088-12.31026 5.40087-18.76026-6.08999-0.19-12.11082-1.12975-18.09082-2.23974-7.72999-1.04-15.45899-2.02059-23.20898-2.85059-4.78-0.43-9.58108-0.01-14.35107-0.33984-2.6775-0.06-5.34341-0.52489-8.00684-0.55957zm-308.65869 5.46826c-3.13851-0.0439-6.26575 0.27203-9.35449 0.83203-4.7 0.25-9.41989 0.16017-14.12989 0.18017-2.14999-0.12-4.04896 1.52934-6.18896 1.06934-2.16 3.21-2.8101 7.07942-4.1001 10.64941-1.37 4.82-3.32064 9.46108-4.41064 14.35108 5.25999 0.18 10.55955 0.30906 15.78955-0.21094 4.93999-1.24 10.06057-0.42967 15.08056-0.90967 3.17-2.58999 3.19024-7.2701 4.74024-10.85009 1.38-5.01 3.92992-9.77032 3.91992-15.07032-0.44875-0.0212-0.89783-0.0347-1.34619-0.041zm185.11523 4.00049c-2.51728-0.026-5.0335 0.0626-7.48974 0.63134-4.63 0.87-9.36952-5e-5 -13.99951 0.68994-4.37 0.58-8.72954 0.37026-13.01954 1.51026-5.02999 0.21-10.08986-0.12086-15.10986 0.36914-1.43 1.74-2.06977 3.93076-2.75976 6.03076-3.24 10.35999-6.60126 20.66948-10.03125 30.95947-0.81 2.31-0.79004 4.78997-1.04004 7.20996 2.64999-0.03 5.2701-0.40953 7.85009-1.01953 4.68-0.46 9.41034 0.10979 14.09034-0.47021 5.91999-1.3 12.03-0.25953 18-1.01953 4.63999-1.12 9.4509-0.54063 14.17089-0.89063 3.28-7.06999 4.86956-14.78985 7.53955-22.08984 2.04-7.28999 5.38934-14.25032 6.31934-21.82031-1.5-0.0187-3.01014-0.0752-4.52051-0.0908zm-137.5459 24.1538c-2.96218-0.0429-5.97963 0.89131-8.96337 0.85694-8.48 0.07-16.95995 0.34099-25.43995 0.27099-0.85999 2.58-1.97048 5.10005-2.50048 7.79004-0.11-0.01-0.3087-0.0105-0.4087-0.0205-0.47999 1.97999-1.04 3.93943-1.5 5.91943-0.11 0.07-0.32041 0.20978-0.42041 0.27978-1.51999 5.66-4.15037 11.03067-4.63037 16.93067 7.96-0.18 15.98989 0.33937 23.87989-0.89063 4.64999-0.18 9.30996-0.18953 13.95996-0.26953 4.17999-9.69999 6.821-19.98052 10.02099-30.02051-1.31562-0.60625-2.65111-0.82716-3.99756-0.84668zm50.74366 19.01075c-2.9225 0.0263-5.83178 0.22123-8.69678 0.88623-6.34999 0.37-12.71934-0.05-19.06934 0.29004-3.25999 0.78-6.62043 0.78953-9.94043 1.01953-2.55999 11.30999-6.99027 22.12145-10.28027 33.23144v2.03907c3.1 0.18999 6.30049 0.75011 9.25049-0.62989 8.30999-0.49 16.83903 0.89945 24.99902-1.06054 4.06 0.23 8.09077-0.13946 12.03076-1.18946 0.52-4.17999 1.93985-8.17012 3.33985-12.12011 2.41-7.44 4.78965-14.88034 7.13965-22.34034-2.915-0.01-5.85046-0.15222-8.77295-0.12597zm71.52978 15.09082c-1.41656 0-2.83728 0.0458-4.21728 0.40576-4.62 1.08-9.42958-0.01-14.05957 0.94043-7.57 1.43-15.41921-0.29121-22.9292 1.50879-3.86 0.35-7.81087-0.26928-11.63086 0.49072-2.74 1.29-2.48938 4.91938-3.60938 7.35938-4.12999 12.08998-7.351 24.52081-12.27099 36.3208 4.25999 1.16999 8.9607 0.83957 13.4707 0.55957 6.86999-1.76 14.0602 0.0397 20.9502-1.51026 6.39999-0.77 12.95002 0.28043 19.27001-1.30957 2.88 0 3.41965-3.29992 4.13965-5.41992 3.91-13.16999 8.8103-26.04986 12.3003-39.33984-0.47 0-0.94139-6e-3 -1.41358-6e-3z" fill="#f00"/>
 <path d="m567.61971 156.36606c5.38 0.46 10.22 3.25 15.45 4.48 6.03 1.45 11.42 4.58 17.12 6.89 16.67 7.54 32.77 16.43 47.48 27.33 3.29 2.6 7.29 4.59 9.7 8.12 0.01 3.92-1.94 7.5-3.01 11.19-11.95 36.48-23.65 73.04-35.46 109.56-1.25 3.61-1.91 7.48-3.86 10.81-1.41 1.15-2.84-0.61-4.15-1.1-9.87-6.21-19.7-12.49-29.87-18.19-8.59-4.34-16.86-9.31-25.67-13.23-10.32-4.07-20.32-10.05-31.71-10.31 2.6-11.66 7.02-22.83 10.58-34.22 10.31-32.3 20.99-64.47 31.19-96.8 0.54-1.6 1.23-3.15 2.21-4.53z" fill="#3d9836"/>
 <path d="m59.625 240.05446c-5.20499 4e-3 -10.41024 0.13652-15.61523 0.0615-1.81 5.41-3.54076 10.85028-5.28076 16.28028 7.08999-0.03 14.20075 0.24015 21.26074-0.33985 2.35-5.04999 4.01984-10.44069 4.83984-15.95068-1.73499-0.04-3.46959-0.0525-5.20459-0.0513zm54.64893 26.09326c-3.4364 7e-3 -6.87217 0.38104-10.28467 0.74854-6.03999 0.37999-12.08891 0.32976-18.12891 0.50976-2.57999 8.94999-5.71099 17.73036-8.52099 26.61035 6.89999 0.64 13.69106-1.05967 20.58105-0.90967 4.12 0.1 8.14903-0.91066 12.24903-1.18066 2.49999-8.53999 6.43955-16.76942 7.53955-25.64941-1.145-0.0925-2.28959-0.13141-3.43506-0.12891zm48.11865 29.90332c-10.53102-0.0946-20.9972 1.21586-31.52344 1.22461-2.67999-0.15-3.17922 2.92106-3.94922 4.83105-2.25999 7.36-4.7506 14.65878-7.1206 21.98877-0.33 1.36-1.35906 3.99041 0.96094 4.17041 12.14998-1.67999 24.48893-0.47019 36.64892-2.20019 2.09-4.16 2.95045-8.7594 4.46045-13.1294 1.72-5.56999 4.20053-10.94049 5.04053-16.75048-1.5075-0.0788-3.01315-0.12125-4.51758-0.13477zm-127.72119 4.93945c-3.56125-0.0125-7.11709 0.0854-10.64209 0.56543-1.54 5.32-3.42951 10.53083-4.99951 15.84082 6.97999-0.13 13.96995 0.14895 20.93994-0.33105 2.85-4.9 3.81037-10.59999 5.38037-15.97998-3.55 0.04-7.11746-0.0827-10.67871-0.0952zm181.23047 14.05371c-3.3248-0.0143-6.64786 0.0876-9.92285 0.63135-9.68999 1.1-19.6797-0.80964-29.17969 1.86035-3.81 11.16999-7.5403 22.41052-10.80029 33.77051 7.32999-0.02 14.66024-0.12068 21.99023-0.20068 7.73999-0.48 15.40995-1.86004 23.18994-1.79004 2.16-4.48 3.16106-9.36003 4.83106-14.02002 1.97999-6.70999 4.72963-13.24944 5.86963-20.16943-1.9875-0.0225-3.98315-0.0734-5.97803-0.082zm190.53808 1.13379c-1.16904 0.0172-2.33851 0.0602-3.50976 0.1377-9.73999 0.86-19.54995 0.89092-29.18994 2.69092-1.85 0.52-4.53993 0.14904-5.41992 2.26904-2.29 4.81-3.16997 10.13038-4.95997 15.13037-6.11999 18.01998-11.59996 36.24955-17.70996 54.26953-6.18999 20.32998-13.45002 40.34028-19.27002 60.76026 12.84999-0.4 25.70935-0.24909 38.56934-0.30909 15.97998-0.34 32.16035-0.27032 47.84033 3.15967 4.08 0.81 7.93987 2.61969 12.10987 2.92969 2.28999-0.57 2.94025-3.14028 3.76025-5.03027 7.74999-24.47998 15.69921-48.88909 23.6792-73.28907 5.74999-18.83998 12.46989-37.38007 17.87988-56.31005-2.69-0.47-5.39983-0.74028-8.06982-1.28028-10.26999-2.23-20.77972-2.88043-31.19971-3.94043-8.18999-0.1225-16.32647-1.30857-24.50977-1.18799zm-314.34668 10.77832c-8.42034-9e-3 -16.80073 0.84856-25.19384 1.40918-1.84 3.07-2.67026 6.60024-3.76026 9.99024-1.51999 5.28999-3.9497 10.37973-4.1997 15.96972 0.9-0.08 2.70033-0.23908 3.59033-0.30908 7.05999-1.54 14.33997-0.11092 21.45996-1.19092 2.01-0.36 4.04031-0.5598 6.07031-0.7998 2.04-2.96 2.5693-6.61018 3.7793-9.93018 1.47-4.95999 3.69984-9.74949 4.08984-14.97949-1.94812-0.10875-3.89278-0.15755-5.83594-0.15967zm189.09083 4.15137c-1.7575 4e-3 -3.5244 0.24285-5.2544 0.54785-4.94999 0.84-10.0202 0.11991-14.95019 1.14991-5.96 0.72999-12.0495-0.22881-17.9795 0.97119-3.78999 0.86-7.97074-0.52998-11.51074 1.27002-2.84 4.92999-3.74901 10.70928-5.729 16.00927-2.68 9.11999-6.48071 17.93056-8.22071 27.31055 7.88 0.19 15.61025-1.57111 23.49024-1.14111 2.77 0.47 5.23047-1.35903 7.98047-0.99903 5.65999 0.48 11.32946-0.12082 16.93945-0.84082 2.16-0.38 4.87938 0.55035 6.60938-1.13965 1.61999-3.17999 2.44002-6.68933 3.52001-10.06933 3.3-10.77999 7.15079-21.38021 10.30079-32.2002-1.69-0.64-3.43831-0.8724-5.1958-0.86865zm-139.25098 22.96875c-3.329 9.8e-4 -6.65586 0.13819-9.94336 0.66943-7.42999 0.98-15.0804-0.58921-22.40039 1.30079-3.25 9.73999-6.63909 19.45012-9.30908 29.37011 7.22999-0.11 14.48899 0.0999 21.70898-0.41015 5.31-1.1 10.76087-0.42127 16.13086-0.80127 3.57-5.45 4.29918-12.21999 6.65918-18.22998 1.48-3.82 2.74063-7.71958 3.14062-11.80957-1.99124-0.0413-3.98941-0.0899-5.98681-0.0894zm61.62598 18.22998c-2.03 0.02-4.05885 9e-3 -6.06885 0.30908-6.82 1.24-13.78991 0.0209-20.6499 0.96094-5.99 0.98-12.10109 0.0297-18.10108 0.90967-1.03 1.32-1.63943 2.88924-2.16943 4.46924-3.38 10.32999-6.7601 20.671-10.1001 31.02099 3.5 0.13 7.04975 0.23998 10.48975-0.52002 11.71998-1.22999 23.68981 0.70994 35.2998-1.56005 2.74-3.96 3.20092-9.00065 4.94092-13.41065 2-7.42999 5.55889-14.47921 6.35889-22.1792zm63.27099 19.91016c-4.29999 0.08-8.65063-0.22037-12.89062 0.61963-6.27 1.03-12.70044-0.10035-18.94043 1.13965-7.54 0.33999-15.01937 1.41039-22.58936 1.40039-2.26 1.54999-2.53996 4.60023-3.45996 6.99023-3.67 12.60999-8.58996 24.86013-11.70996 37.62012 3.58 0.19 7.20024 0.31939 10.74023-0.37061 4.94-0.88 10.0202-0.0998 14.9502-1.02978 6.24999-1.09 12.65917 0.19041 18.88916-1.07959 3.67-0.61 7.41084-0.18059 11.11084-0.60059 4.11999-15.04998 9.97991-29.57947 13.8999-44.68945z" fill="#0d3997"/>
 <path d="m510.81971 329.98606c5.37-0.49 10.26 2.06 15.28 3.53 2.82 0.93 5.66 1.82 8.5 2.75 0.74 0.82 1.49 1.66 2.23 2.5 2.91 0.67 5.83 1.27 8.7 2.1 2.38 2.31 5.45 3.59 8.56 4.59 2.03 1.65 4.36 2.84 6.96 3.27 0.58 0.61 1.17 1.23 1.77 1.85 6.7 3.15 13.05 6.93 19.15 11.1 5.98 4 12.18 7.75 17.46 12.68 2.04 1.46 1.08 4.27 0.75 6.34-10.87 33.38-21.64 66.78-32.46 100.17-1.32 4.17-2.85 8.27-3.73 12.57-0.03-0.56-0.05-1.11-0.06-1.65-0.96 3.24-1.82 6.52-2.76 9.78-0.8 2.06-1.3 4.73-3.22 5.95-8.7-4.42-16.52-10.62-25.33-14.62-0.34-0.34-1.03-1.04-1.37-1.39-2.84-1.64-5.76-3.1-8.67-4.59-0.32-0.37-0.97-1.11-1.29-1.48-1.82-0.59-3.63-1.17-5.46-1.69-0.59-0.64-1.17-1.28-1.75-1.91-4.57-2.74-9.81-4.18-14.4-6.88-3.92-2.5-8.74-2.91-12.67-5.38-5.38-3.19-11.69-3.9-17.78-4.59-0.51-4.71 0.95-9.18 2.76-13.44 0.44-1.81 0.77-3.63 1.08-5.46 0.23 0.04 0.71 0.11 0.94 0.15 1.11-6.36 3.7-12.3 5.54-18.45 2.2-6.38 3.94-12.9 6.32-19.21 1.49-5.13 3.17-10.19 4.77-15.28 0.11-0.08 0.33-0.23 0.43-0.31 1.23-5.31 3.11-10.41 4.87-15.54 3.25-11.2 7.39-22.1 10.53-33.32 0.13 0 0.4 0.02 0.54 0.03 0.83-4.84 2.89-9.36 3.81-14.17z" fill="#ff0"/>
</svg>
