<svg version="1.1" viewBox="0 0 731.495 125.4" xmlns="http://www.w3.org/2000/svg">
 <path d="m218.495 47.509v-38.004h-9.504v-9.505h38.004v9.505h-9.504v38.004zm47.496 0v-9.504h9.504v-28.5h-9.504v-9.505h38.004v9.505h-9.504v28.5h9.504v9.504zm57 0v-9.504h-9.491v-28.5h9.491v-9.505h28.5v9.505h-18.996v28.5h18.996v9.504zm28.5-28.5v-9.504h9.504v9.504zm0 18.996v-9.505h9.504v9.505zm28.5-9.505v-9.491h28.5v9.491zm57 19.009v-9.504h-9.491v-9.505h9.491v-9.491h-9.491v-9.504h9.491v-9.505h28.5v9.505h-18.996v9.504h18.996v9.491h-18.996v9.505h18.996v9.504zm28.5-28.5v-9.504h9.504v9.504zm0 18.996v-9.505h9.504v9.505zm28.5 9.504v-9.504h-9.491v-28.5h9.491v-9.505h28.5v9.505h-18.996v28.5h18.996v9.504zm28.5-9.504v-28.5h9.504v28.5zm-503.496 77.904v-9.504h-9.504v-18.996h-9.491v-9.504h9.491v-9.505h19.009v9.505h18.995v9.504h-18.995v18.996h18.995v9.504zm47.496 0v-9.504h9.504v-9.505h-9.504v-9.491h28.5v18.996h9.504v9.504zm9.504-38.004v-9.505h18.996v9.505zm38.005 38.004v-38.004h37.991v9.504h-18.996v28.5zm37.991 0v-28.5h9.504v28.5zm19.009-19.009v-18.995h9.491v18.995zm9.491 28.5v-9.491h19.009v-9.504h-19.009v-9.505h19.009v-18.995h18.995v38.004h-9.504v9.491zm114-9.491v-9.504h-9.491v-18.996h9.491v-9.504h38.004v9.504h-18.995v18.996h18.995v9.504zm57 0v-9.504h-9.491v-18.996h9.491v-9.504h28.5v9.504h-18.996v18.996h18.996v9.504zm28.5-9.504v-18.996h9.504v18.996zm19.009 9.504v-38.004h18.995v9.504h9.505v-9.504h9.491v9.504h9.504v28.5h-9.504v-19.009h-9.491v19.009h-9.505v-19.009h-9.504v19.009zm57 9.491v-47.495h37.991v9.504h-18.996v18.996h18.996v9.504h-18.996v9.491zm37.991-18.995v-18.996h9.504v18.996zm19.009 0v-28.5h9.491v28.5zm9.491 9.504v-9.504h19.009v-28.5h18.995v38.004zm66.504 0v-9.504h-9.504v-18.996h-9.491v-9.504h9.491v-9.505h19.009v9.505h18.995v9.504h-18.995v18.996h18.995v9.504zm47.496 0v-9.504h-9.491v-18.996h9.491v-9.504h28.5v9.504h9.504v9.491h-18.995v-9.491h-9.505v9.491h9.505v9.505h9.491v9.504zm47.509 0v-38.004h37.991v9.504h-18.996v28.5zm37.991-19.009v-9.491h9.504v9.491z"/>
</svg>
