<svg width="737.95pt" height="201.31pt" version="1.1" viewBox="0 0 737.95 201.31" xmlns="http://www.w3.org/2000/svg">
 <path d="m260.87 0c-7.84 5.11-16.7 8.2694-25.28 11.859 1.19 5.02 2.4701 10.451 0.58008 15.491-5.06 17.07-11.571 33.76-15.201 51.22-1.93 6.29-4.9587 12.82-11.369 15.63-0.88-2.46-1.7599-4.9096-2.6499-7.3696-5.86 13.29-13.131 25.879-19.361 38.959 10.15-6.11 14.49-17.73 22.97-25.55 2.61 10.83-4.3103 20.78-6.0703 31.2-3.12 6.48-6.8304 12.77-8.4404 19.91 7.78-0.28 15.571-0.68903 23.291-1.749 0.32-8.63 1.839-17.121 5.269-25.071 3.15-14.17 9.2803-27.45 12.3-41.65 1.55-12.18 18.6-15.81 27.41-9.2505 3.77 4.16 6.1398 9.9003 5.2998 15.59-1.1 12.72-4.3203 25.18-8.5503 37.2-2.33 7.96-5.1989 16.06-11.609 21.69 9.59 0.14 19.18 0.15125 28.78 0.28125-1.37-2.8-3.1396-5.711-1.8296-9.041 3.08-19.85 13.759-38.529 11.159-59.109-0.68-9.57-7.2899-21.77-18.86-19.09-9.95-0.82-18.43 5.7491-28.21 5.6191 7.41-16.82 10.749-35.09 18.379-51.81 2.09-4.66 2.5007-9.929 1.9907-14.959zm161.12 0.06885c-9.63 4.87-19.459 9.3701-29.849 12.35 2.16 1.66 4.3987 3.2204 6.6987 4.6904-2.91 16.79-8.7992 32.89-14.389 48.93-2.99 7.19-3.3898 15.35-8.0698 21.8-5.77 7.19-14.08 12.25-18.42 20.58-2.85 5.85-7.2905 10.661-11.041 15.911-5.39 8.47-13.569 15.96-12.939 26.979-3.53 0.66-7.1099 1.2094-10.67 1.6494-40.65 2.47-81.471 0.14092-122.1 3.4409-15.81 1.4-31.74 0.0699-47.52 1.8398-16.69 3.73-34 0.46969-50.77 3.6797-29.34 2.56-58.801 5.3603-87.541 12.07-5.21 1.42-10.439 2.8703-15.379 5.0903 3.7 3.15 7.8192 6.06 12.659 7.04 15.28 3.29 30.881 5.6488 46.531 5.7188-4.41-1.77-10.321-2.429-12.671-7.229 1.74-1.52 3.6601-2.8597 5.8301-3.6797 17.18-5.93 35.49-6.3805 53.25-9.5405 13.57-2.58 27.511-1.78 41.171-3.69 13.88-2.02 27.979-1.2198 41.899-2.8198 23.58-3.96 47.73 0.83955 71.26-3.7104 38.7-2.66 77.59 0.65971 116.32-1.8003 10.67 0.09 21.39-0.6599 31.98 1.1001-2.05 8.72-5.2098 17.12-7.7798 25.69-1.63 5.48-4.0407 10.71-7.9307 14.96 42.05-0.05 84.13 0.73896 126.17-0.56104 6.03-0.24 12.03-1.1797 18.05-1.6597 17.05-1.59 34.37 0.80972 51.25-2.7803 14.58-1.66 29.379-0.0892 43.929-2.3892 15.77-2.77 31.95-0.29979 47.72-3.2798 19.57-2.02 39.991-2.77 58.311-10.79-6.78-9.81-19.681-10.671-30.341-12.721-17.76-1.1-35.389-3.4498-52.989-5.9898-15.03-1.25-30.3 0.18944-45.12-3.0806-16.06-1.04-32.201-0.60901-48.261-1.979-27.09-2.2-54.339-0.43998-81.439-2.48-16.01-2.85-32.44-1.2203-48.5 0.44972-0.05-6.26-0.87089-12.951 2.3291-18.601 2.69-4.99 3.4406-10.65 5.1006-16 4.29-11.52 6.8493-23.759 7.0693-36.059 0.68999-8.37-3.5589-16.851-10.399-21.571-10.93-2.03-21.8 1.5403-32.59 3.0103-0.18-0.55-0.53045-1.6397-0.71045-2.1797 5.71-10.37 7.5294-22.229 11.339-33.319 2.44-6.97 4.6009-14.041 7.4209-20.881 1.07-2.59 1.1894-5.4199 1.1294-8.1899zm100.09 0.71338c-6.5522-0.02719-12.91 3.5879-16.518 9.3179-3.19 3.54-5.2603 9.8092-0.53028 12.949 8.05 1.1 14.14-5.0502 19.55-9.9902 3.24-2.66 3.4295-7.169 4.0195-10.979-2.1325-0.875-4.3374-1.2888-6.5215-1.2979zm-156.17 0.5083c-6.7815-0.05446-13.52 2.9945-17.452 8.6982-3.58 3.23-6.7099 9.7909-1.3799 12.901 8.31 2.46 14.23-4.7708 19.5-9.8408 3.24-2.76 3.489-7.3092 3.999-11.219-1.5356-0.34875-3.102-0.52649-4.667-0.53906zm-154.12 3.4087c-4.37 3.09-8.2902 6.9804-13.39 8.9004-9.31-1.48-16.86-9.0702-26.66-8.4302-22.95-2.58-44.82 6.5508-64.09 18.031-4.28 2.62-7.721 6.3793-11.981 9.0293-5.61 3.58-10.01 8.6697-13.95 13.95-7.7 12.39-16.14 24.751-19.22 39.261-0.89 8.3-2.309 16.539-3.249 24.829 0.93 10.59 2.6688 22.121 10.049 30.321 4.68 5.56 8.61 12.039 14.77 16.119 13.23 1.91 26.641-0.22957 39.791-2.0596 11.04-0.92 23.49 0.75941 32.76-6.6006 8.7-7.5 17.17-15.4 24.47-24.29 6.39-10.09 13.749-20.299 15.539-32.379-9.57 8.68-13.889 21.6-23.679 30.07-4.41 3.9-8.0398 8.6497-12.8 12.16-12.34 8.7-26.2 16.07-41.5 17.35-9.7 1.18-18.38-4.2793-25.4-10.299-10.1-9.71-11.679-25.251-9.3794-38.391 1.9-10.74 4.1792-21.58 8.9092-31.5 3.99-11.27 11.641-20.6 17.981-30.58 13.28-16.02 32.98-27.01 53.89-28.33 7.38 0.96 15.149 2.65 21.199 7.21 7.95 6.82 6.9597 18.8 8.6997 28.09 1.02-0.52 3.0804-1.5498 4.1104-2.0698 2.76-13.97 10.311-26.4 13.131-40.39zm441.18 53.269c-4.5688-0.01875-9.1817 0.55111-13.597 1.1411-15.32 3.75-27.46 14.57-37.85 25.9-6.33 6.5-9.7893 15.03-13.069 23.32-2.87 6.56-1.7198 14-1.8398 20.94-0.26 7.87 3.0902 15.8 8.6602 21.27 16.84 3.62 34.59 5.1406 51.69 2.6206 10.06-4.07 16.989-12.76 24.489-20.21 8.23-10.39 15.63-22.889 14.42-36.719-0.27-8.65 0.0101-18.991-6.3398-25.821-3.79-4.05-7.3505-9.0003-13.23-10.05-4.24-1.765-8.7643-2.3719-13.333-2.3906zm-61.336 2.521c-13.32 1.13-22.77 11.49-34.96 15.53 0.87-5.06 1.9797-10.08 2.9297-15.13-4.84 2.44-9.5904 5.0796-14.61 7.1396-5.5 1.93-11.59 3.7511-15.27 8.6411 1.74 0.56 5.2092 1.6592 6.9492 2.2192-0.64 9.89-5.0497 18.991-7.1997 28.591-4.16 13.87-7.1792 28.67-15.889 40.6 8.77 0.46 17.539 1.01 26.329 1.21-1.38-3.54-4.0694-7.2497-1.6494-11.18 5.03-16.48 9.78-33.04 14.71-49.55 0.86-6.85 8.1691-8.68 12.539-12.75 2.15 3.69 3.4711 7.7688 4.8911 11.779 3.95-1.14 8.9591-0.31907 12.079-3.5391 4.67-4.23 9.6008-8.9503 11.111-15.3-0.05-2.84-1.3-5.5303-1.96-8.2603zm-83.621 0.08057c-10.23 4.14-19.329 11.06-30.379 13.14 2.16 2.07 4.5694 4.0101 6.0894 6.6401 0.15 9.75-5.1091 18.3-6.3091 27.81-2.27 14.1-8.2509 27.109-14.171 39.959 7.51 0.11 15.02 0.10986 22.54 0.10986-1.54-10.89 3.4502-20.95 6.2402-31.16 2.29-10.55 6.4708-20.519 9.6108-30.819 2.28-8.53 6.6094-16.62 6.3794-25.68zm-157.93 0.31934c-10.14 4.56-19.971 9.9404-30.661 13.17 3.05 3.06 8.5196 5.5594 6.0396 11.109-0.99 9.74-5.6902 18.601-7.2202 28.241-2.61 12.43-8.1994 23.88-14.109 35.01 7.98-0.52 15.929-1.5193 23.859-2.5093 0.76-15.57 8.2407-29.511 10.991-44.631 3.11-13.63 10.531-26.2 11.101-40.39zm305.98 6.7397c4.83 4.9 11.969 9.0106 12.439 16.641 0.23 9.18 2.1607 19.5-3.2593 27.65-3.3 6-5.8301 12.459-9.8701 18.019-5.88 4.87-12.04 9.4308-18.45 13.591-5.53 3.76-12.791 2.79-19.081 2.54-5.2-1.08-8.3094-6.181-10.129-10.771-3.83-18.33 2.2497-38.34 15.68-51.39 5.41-5.27 10.86-11.13 18.28-13.45 4.73-1.2 9.6006-1.9101 14.391-2.8301zm-244.64 2.915c1.8992-0.10812 3.7655 0.01244 5.4155 0.31494 9.75 0.84 9.42 12.23 10.44 19.38-1.44 16.1-5.5093 31.91-11.509 46.91-2.09 4.6-1.6695 11.701-6.9595 14.161-8.67 1.25-17.55-0.15969-26.19 1.5703-13.25-0.34-26.6-0.26059-39.76-2.1006 10.87-8.09 25.779-3.3496 38.279-4.5996-1.31-10.39 4.3505-19.65 6.2505-29.55 2.83-12.75 6.8095-25.2 11-37.57 1.3425-5.7975 7.3365-8.1908 13.034-8.5151zm-36.724 25.166c-1.29 11.44-4.3998 22.59-8.2998 33.4-1.23 3.23-4.8599 4.6401-7.3799 6.5801-5.61 3.48-11.511 8.4897-18.621 6.6797 3.68-7.55 8.2306-14.631 12.891-21.611 3.56-5.36 8.3196-9.7997 11.81-15.22 2.62-3.8 6.1006-6.8691 9.6006-9.8291zm93.652 64.377c14.105-0.0975 28.203 0.0172 42.268 1.0122 17.42 2.94 35.15 1.4307 52.68 2.9707 18.91 3.78 38.48 3.6293 57.13 8.7393 2.78 0.97 3.569 4.561 5.269 6.561-3.49 1.34-6.849 3.0897-10.519 3.9097-38.18 7.77-77.321 8.2696-116.1 9.8496-21.94 3.57-44.231 1.3195-66.321 2.4595-5.53 0.31999-10.99 1.7007-16.54 1.1807 0.12-12.86 5.9703-24.45 9.8203-36.42 14.095 0.145 28.207-0.16471 42.312-0.26221z"/>
</svg>
