<?xml version="1.0" encoding="UTF-8" standalone="no"?>
<svg
   width="66.000046"
   height="46.339851"
   viewBox="0 0 66.000046 46.339851"
   version="1.1"
   xml:space="preserve"
   style="clip-rule:evenodd;fill-rule:evenodd;stroke-linejoin:round;stroke-miterlimit:2"
   id="svg26"
   sodipodi:docname="input_BTN-RT.svg"
   inkscape:version="1.1.1 (3bf5ae0d25, 2021-09-20, custom)"
   xmlns:inkscape="http://www.inkscape.org/namespaces/inkscape"
   xmlns:sodipodi="http://sodipodi.sourceforge.net/DTD/sodipodi-0.dtd"
   xmlns="http://www.w3.org/2000/svg"
   xmlns:svg="http://www.w3.org/2000/svg"><defs
   id="defs30" /><sodipodi:namedview
   id="namedview28"
   pagecolor="#ffffff"
   bordercolor="#666666"
   borderopacity="1.0"
   inkscape:pageshadow="2"
   inkscape:pageopacity="0.0"
   inkscape:pagecheckerboard="true"
   showgrid="false"
   inkscape:zoom="18.706188"
   inkscape:cx="20.12703"
   inkscape:cy="18.870761"
   inkscape:window-width="1920"
   inkscape:window-height="1011"
   inkscape:window-x="0"
   inkscape:window-y="0"
   inkscape:window-maximized="1"
   inkscape:current-layer="svg26"
   fit-margin-left="1"
   fit-margin-top="1"
   fit-margin-right="1"
   fit-margin-bottom="1" />
    <g
   id="g364"
   transform="matrix(1.3584255,0,0,1.3584255,0.98685238,0.99204047)"><path
     id="path2"
     style="fill:#ffffff;stroke-width:1"
     d="M 11.931641,0.00585938 11.542969,0.02539063 C 10.952968,0.09539074 10.252657,0.30601509 9.4726562,0.66601562 7.6126535,1.526017 5.2721122,3.2057007 3.4121094,4.8457031 2.3821079,5.7657045 1.5018759,6.6757802 0.921875,7.4257812 0.78187479,7.6057816 0.66273454,7.7853122 0.55273438,7.9453125 0.21273386,8.4753133 0.04148441,8.95664 0.02148438,9.3066406 l -0.0097656,0.029297 C -0.05828136,10.735939 1.6828875,19.60546 3.7128906,25.355469 l 0.1289063,0.330078 c 0.6000009,1.660002 1.2398437,3.040389 1.8398437,3.900391 l 0.021484,0.01953 c 0.1800002,0.250001 0.3590622,0.460625 0.5390625,0.640625 0.2000003,0.190001 0.4000778,0.339453 0.5800781,0.439453 0.3400005,0.19 1.4907002,0.440625 3.2207038,0.640625 l 0.359375,0.03906 c 1.320002,0.14 2.979606,0.280157 4.849609,0.410157 6.66001,0.47 16.030224,0.851093 22.490235,0.871093 1.079999,0 2.070936,-0.01125 2.960937,-0.03125 0.650001,-0.01 1.23953,-0.02859 1.769531,-0.05859 0.41,-0.02 0.76961,-0.04031 1.09961,-0.07031 0.410001,-0.04 0.759295,-0.08109 1.029296,-0.121094 l 0.121094,-0.0293 c 0.390001,-0.07 0.679375,-0.189063 0.859375,-0.289063 0.06,-0.03 0.110625,-0.05984 0.140625,-0.08984 0.18,-0.12 0.400547,-0.371484 0.560547,-0.771484 l 0.0098,-0.03906 c 0.220001,-0.560001 0.418594,-1.751248 0.558593,-3.28125 0.02,-0.250001 0.05031,-0.499765 0.07031,-0.759765 0.130001,-1.740003 0.201172,-3.828669 0.201172,-5.888672 0,-1.090002 -0.02031,-2.181404 -0.07031,-3.191406 -0.02,-0.500001 -0.05008,-0.979687 -0.08008,-1.429688 -0.04,-0.500001 -0.08062,-0.958671 -0.140625,-1.388672 -0.12,-1.040002 -0.299764,-1.880389 -0.509765,-2.40039 -0.15,-0.4 -0.339297,-0.671563 -0.529297,-0.851563 C 41.172962,7.4950715 34.941575,4.0959405 27.601562,2.0859375 26.401561,1.755937 25.162346,1.4650785 23.902344,1.2050781 22.162341,0.85507762 20.373205,0.58671904 18.533203,0.38671875 L 18.101562,0.3359375 C 17.251561,0.2559374 16.402971,0.18695323 15.542969,0.12695312 c -0.22,-0.01 -0.43039,-0.02125 -0.650391,-0.03125 C 13.912577,0.04570304 12.931642,0.01585939 11.931641,0.00585938 Z M 13.591797,11.765625 h 5.201172 c 1.570002,0 2.799451,0.341015 3.689453,1.041016 0.880001,0.700001 1.320312,1.679216 1.320312,2.949218 0,0.920001 -0.180547,1.681015 -0.560546,2.291016 -0.370001,0.600001 -0.95,1.08875 -1.75,1.46875 l 2.769531,5.339844 v 0.140625 h -3.419922 l -2.339844,-4.679688 h -1.71875 v 4.679688 h -3.191406 z m 11.009765,0 h 11.060547 v 2.460937 h -3.96875 V 24.996094 H 28.501953 V 14.226562 h -3.900391 z m -7.818359,2.451172 v 3.638672 h 2.009766 c 0.03813,0 0.07438,-7.03e-4 0.111328,-0.002 0.03695,-0.0012 0.0736,-0.0034 0.109375,-0.0059 0.03577,-0.0025 0.07088,-0.0041 0.105469,-0.0078 0.03459,-0.0038 0.07012,-0.0087 0.103515,-0.01367 0.0334,-0.005 0.06545,-0.01133 0.09766,-0.01758 0.0322,-0.0062 0.06274,-0.01203 0.09375,-0.01953 0.03101,-0.0075 0.06199,-0.01664 0.0918,-0.02539 0.0298,-0.0087 0.0593,-0.01734 0.08789,-0.02734 0.02859,-0.01 0.0566,-0.02 0.08398,-0.03125 0.02738,-0.01125 0.05392,-0.02461 0.08008,-0.03711 0.02616,-0.0125 0.05123,-0.02531 0.07617,-0.03906 0.02494,-0.01375 0.05051,-0.02797 0.07422,-0.04297 0.02371,-0.015 0.04588,-0.03062 0.06836,-0.04688 0.02248,-0.01625 0.04517,-0.03328 0.06641,-0.05078 0.02124,-0.0175 0.04055,-0.03594 0.06055,-0.05469 0.02,-0.01875 0.03984,-0.03664 0.05859,-0.05664 0.01938,-0.01938 0.03851,-0.04008 0.05664,-0.06055 0.01813,-0.02046 0.03585,-0.04096 0.05273,-0.0625 0.01688,-0.02154 0.03318,-0.04379 0.04883,-0.06641 0.01565,-0.02261 0.03051,-0.04664 0.04492,-0.07031 0.01441,-0.02367 0.02783,-0.04754 0.04102,-0.07227 0.01319,-0.02472 0.02515,-0.05041 0.03711,-0.07617 0.01196,-0.02576 0.02441,-0.05133 0.03516,-0.07813 0.01074,-0.02679 0.01976,-0.05422 0.0293,-0.08203 0.0095,-0.02781 0.01902,-0.05711 0.02734,-0.08594 0.0083,-0.02882 0.01632,-0.05807 0.02344,-0.08789 0.0071,-0.02982 0.01361,-0.05903 0.01953,-0.08984 0.0059,-0.03082 0.0109,-0.06195 0.01563,-0.09375 0.0047,-0.0318 0.01013,-0.06489 0.01367,-0.09766 0.0035,-0.03277 0.0055,-0.06588 0.0078,-0.09961 0.0024,-0.03373 0.0047,-0.06688 0.0059,-0.101562 0.0012,-0.03468 0.002,-0.06984 0.002,-0.105469 0,-0.03562 -7.79e-4,-0.07078 -0.002,-0.105469 -0.0012,-0.03469 -0.0035,-0.06977 -0.0059,-0.103515 -0.0024,-0.03374 -0.0043,-0.06682 -0.0078,-0.09961 -0.0035,-0.03279 -0.0089,-0.06582 -0.01367,-0.09766 -0.0047,-0.03184 -0.0097,-0.06287 -0.01563,-0.09375 -0.0059,-0.03088 -0.01241,-0.06189 -0.01953,-0.0918 -0.0071,-0.02991 -0.01511,-0.05895 -0.02344,-0.08789 -0.0083,-0.02894 -0.01781,-0.05602 -0.02734,-0.08399 -0.0095,-0.02797 -0.01855,-0.05699 -0.0293,-0.08398 -0.01075,-0.02699 -0.02319,-0.05212 -0.03516,-0.07813 -0.01196,-0.02601 -0.02392,-0.05311 -0.03711,-0.07813 -0.01319,-0.02502 -0.0266,-0.04824 -0.04102,-0.07227 -0.01441,-0.02402 -0.02927,-0.04729 -0.04492,-0.07031 -0.01565,-0.02303 -0.03194,-0.04634 -0.04883,-0.06836 -0.01688,-0.02202 -0.03461,-0.04344 -0.05273,-0.06445 -0.01813,-0.02101 -0.03727,-0.04055 -0.05664,-0.06055 -0.01938,-0.02063 -0.03805,-0.04125 -0.05859,-0.06055 -0.02054,-0.0193 -0.04275,-0.03866 -0.06445,-0.05664 -0.02171,-0.01798 -0.04354,-0.03412 -0.06641,-0.05078 -0.02287,-0.01666 -0.04629,-0.03348 -0.07031,-0.04883 -0.02402,-0.01535 -0.04905,-0.03087 -0.07422,-0.04492 -0.02517,-0.01404 -0.05181,-0.02632 -0.07813,-0.03906 -0.02632,-0.01274 -0.05262,-0.02566 -0.08008,-0.03711 -0.02746,-0.01145 -0.05539,-0.02109 -0.08398,-0.03125 -0.02859,-0.01016 -0.05817,-0.02043 -0.08789,-0.0293 -0.02972,-0.0089 -0.05899,-0.0178 -0.08984,-0.02539 -0.03085,-0.0076 -0.06178,-0.01322 -0.09375,-0.01953 -0.03197,-0.0063 -0.06457,-0.01254 -0.09766,-0.01758 -0.03309,-0.005 -0.06737,-0.0099 -0.101563,-0.01367 -0.0342,-0.0038 -0.06821,-0.0073 -0.103515,-0.0098 -0.0353,-0.0025 -0.07102,-0.0027 -0.107422,-0.0039 -0.0364,-0.0013 -0.07383,-0.002 -0.111328,-0.002 z" /></g>
</svg>
