<svg width="44" height="44" xmlns="http://www.w3.org/2000/svg"><path d="M 22,0 A 22,22 0 0 0 0,22 22,22 0 0 0 22,44 22,22 0 0 0 44,22 22,22 0 0 0 22,0 Z m -6.476005,10.828125 h 6.199778 c 2.496276,0 4.312222,0.465496 5.447823,1.396485 1.135602,0.930988 1.703404,2.414436 1.703404,4.450334 0,1.299292 -0.30692,2.414436 -0.920759,3.345424 -0.419456,0.664992 -1.023067,1.145834 -1.810825,1.442522 1.094678,0.419457 1.892671,1.053759 2.393972,1.902902 0.511533,0.838914 0.767299,1.923365 0.767299,3.253348 0,2.066592 -0.598495,3.688153 -1.795479,4.864677 -1.186756,1.166294 -2.782741,1.759673 -4.787947,1.780134 h -7.197266 z m 5.110213,4.158761 v 4.603795 h 1.212333 c 0.603607,0 1.033296,-0.194383 1.289061,-0.583148 0.255767,-0.398994 0.38365,-0.992374 0.38365,-1.780134 0,-0.79799 -0.148345,-1.370907 -0.445033,-1.71875 C 22.78776,15.160808 22.32738,14.986886 21.69308,14.986886 Z m 0,8.639788 v 5.432478 h 1.396484 c 1.227677,0 1.841517,-0.946338 1.841517,-2.839007 0,-1.728979 -0.634301,-2.593471 -1.902901,-2.593471 z"/></svg>
