<?xml version="1.0" encoding="UTF-8" standalone="no"?>
<svg
   width="64.199387"
   height="47.549999"
   viewBox="0 0 64.199387 47.549999"
   version="1.1"
   xml:space="preserve"
   style="clip-rule:evenodd;fill-rule:evenodd;stroke-linejoin:round;stroke-miterlimit:2"
   id="svg22"
   sodipodi:docname="input_BTN-LT.svg"
   inkscape:version="1.1.1 (3bf5ae0d25, 2021-09-20, custom)"
   xmlns:inkscape="http://www.inkscape.org/namespaces/inkscape"
   xmlns:sodipodi="http://sodipodi.sourceforge.net/DTD/sodipodi-0.dtd"
   xmlns="http://www.w3.org/2000/svg"
   xmlns:svg="http://www.w3.org/2000/svg"><defs
   id="defs26" /><sodipodi:namedview
   id="namedview24"
   pagecolor="#ffffff"
   bordercolor="#666666"
   borderopacity="1.0"
   inkscape:pageshadow="2"
   inkscape:pageopacity="0.0"
   inkscape:pagecheckerboard="true"
   showgrid="false"
   inkscape:zoom="13.227273"
   inkscape:cx="5.4810995"
   inkscape:cy="40.975944"
   inkscape:window-width="1920"
   inkscape:window-height="1011"
   inkscape:window-x="0"
   inkscape:window-y="0"
   inkscape:window-maximized="1"
   inkscape:current-layer="svg22"
   fit-margin-top="0.1"
   fit-margin-left="0.1"
   fit-margin-right="0.1"
   fit-margin-bottom="0.1" />
    <g
   id="g203"
   style="fill:#ffffff"
   transform="matrix(1.3585132,0,0,1.4508475,0.11635554,0.09149893)"><path
     id="path2"
     d="m 35.173828,0.00585938 c -0.88,0.01 -1.758906,0.03031249 -2.628906,0.07031249 l -0.320313,0.01953125 c -12.89,0.66 -23.7901559,4.98937508 -30.9101559,11.85937488 -0.18,0.18 -0.36929685,0.449608 -0.52929685,0.84961 -0.21,0.519999 -0.37976562,1.36039 -0.50976563,2.40039 -0.13999999,1.2 -0.23171875,2.701016 -0.26171874,4.291016 -0.01000001,0.22 -0.00953126,0.440156 -0.01953126,0.660156 -0.02999999,2.38 0.05117188,4.909219 0.20117188,6.949219 0.14,1.9 0.36914062,3.389062 0.61914062,4.039062 0.17,0.43 0.39031248,0.680547 0.57031248,0.810547 0.18,0.14 0.5489063,0.310156 1.1289063,0.410156 0.05,0 0.1003906,0.0095 0.1503906,0.01953 l 0.7402344,0.08984 c 0.1,0.01 0.2005468,0.01149 0.3105469,0.02148 0.33,0.03 0.6898437,0.04836 1.0898437,0.06836 0.49,0.02 1.019375,0.04078 1.609375,0.05078 4.4699995,0.1 11.6196875,-0.09016 18.1796875,-0.410156 L 26.173828,32.125 c 4.18,-0.22 7.991016,-0.489766 10.541016,-0.759766 1.56,-0.17 2.699531,-0.380547 3.269531,-0.560546 0.13,-0.04 0.230781,-0.07914 0.300781,-0.119141 0.05,-0.03 0.110158,-0.05961 0.160156,-0.09961 0.320001,-0.210001 0.658516,-0.54 0.978516,-1 0.65,-0.92 1.330703,-2.420469 1.970703,-4.230469 2.05,-5.79 3.799219,-14.750781 3.699219,-16.0507815 -0.03,-0.35 -0.189062,-0.829375 -0.539062,-1.359375 -0.540001,-0.84 -1.57961,-1.9596094 -2.84961,-3.0996094 -1.86,-1.64 -4.210312,-3.3196875 -6.070312,-4.17968748 -0.95,-0.44 -1.800938,-0.66015624 -2.460938,-0.66015524 z M 14.234375,11.765625 h 3.189453 v 10.769531 h 5.550781 v 2.460938 h -8.740234 z m 7.550781,0 H 32.84375 v 2.458984 H 28.875 V 24.996094 H 25.685547 V 14.224609 h -3.900391 z"
     style="fill:#ffffff" /></g>
</svg>
