<?xml version="1.0" encoding="UTF-8" standalone="no"?>
<svg
   width="66"
   height="40.597759"
   viewBox="0 0 66 40.597759"
   version="1.1"
   xml:space="preserve"
   style="clip-rule:evenodd;fill-rule:evenodd;stroke-linejoin:round;stroke-miterlimit:2"
   id="svg22"
   sodipodi:docname="input_BTN-RB.svg"
   inkscape:version="1.1.1 (3bf5ae0d25, 2021-09-20, custom)"
   xmlns:inkscape="http://www.inkscape.org/namespaces/inkscape"
   xmlns:sodipodi="http://sodipodi.sourceforge.net/DTD/sodipodi-0.dtd"
   xmlns="http://www.w3.org/2000/svg"
   xmlns:svg="http://www.w3.org/2000/svg"><defs
   id="defs26" /><sodipodi:namedview
   id="namedview24"
   pagecolor="#ffffff"
   bordercolor="#666666"
   borderopacity="1.0"
   inkscape:pageshadow="2"
   inkscape:pageopacity="0.0"
   inkscape:pagecheckerboard="true"
   showgrid="false"
   fit-margin-left="1"
   fit-margin-top="1"
   fit-margin-right="1"
   fit-margin-bottom="1"
   inkscape:zoom="16.168675"
   inkscape:cx="44.747019"
   inkscape:cy="21.028316"
   inkscape:window-width="1920"
   inkscape:window-height="1011"
   inkscape:window-x="0"
   inkscape:window-y="0"
   inkscape:window-maximized="1"
   inkscape:current-layer="svg22" />
    <g
   id="g161"><path
     id="path2"
     style="fill:#ffffff;stroke-width:0.82072"
     d="M 14.507812 1 C 7.054732 1 1 7.0533896 1 14.509766 L 1 26.087891 C 1 33.544267 7.054732 39.597656 14.507812 39.597656 L 51.492188 39.597656 C 58.945267 39.597656 65 33.544267 65 26.087891 L 65 14.509766 C 65 7.0533896 58.945268 1 51.492188 1 L 14.507812 1 z M 21.6875 13.707031 L 27.089844 13.707031 C 28.816475 13.707031 30.135794 14.089104 31.068359 14.855469 C 32.000924 15.621835 32.472656 16.705698 32.472656 18.105469 C 32.472656 19.09805 32.250905 19.926892 31.826172 20.589844 C 31.392206 21.252796 30.746306 21.780489 29.869141 22.173828 L 33.017578 28.121094 L 33.017578 28.259766 L 29.804688 28.259766 L 27.070312 22.931641 L 24.689453 22.931641 L 24.689453 28.259766 L 21.6875 28.259766 L 21.6875 13.707031 z M 34.751953 13.707031 L 39.849609 13.707031 C 41.613173 13.707031 42.951136 14.044824 43.865234 14.720703 C 44.779332 15.397505 45.232422 16.388799 45.232422 17.695312 C 45.232422 18.408124 45.0476 19.035206 44.6875 19.578125 C 44.318168 20.121967 43.809862 20.520444 43.154297 20.773438 C 43.902195 20.959951 44.493237 21.336342 44.917969 21.902344 C 45.351935 22.46927 45.564453 23.162504 45.564453 23.982422 C 45.564453 25.382193 45.122195 26.441911 44.226562 27.162109 C 43.330931 27.881385 42.057061 28.246839 40.404297 28.259766 L 34.751953 28.259766 L 34.751953 13.707031 z M 24.689453 16.136719 L 24.689453 20.503906 L 27.097656 20.503906 C 27.854788 20.503906 28.438017 20.31287 28.853516 19.929688 C 29.269015 19.546505 29.470703 19.017888 29.470703 18.345703 C 29.470703 17.658744 29.278425 17.119901 28.890625 16.726562 C 28.502826 16.333223 27.902376 16.136719 27.089844 16.136719 L 24.689453 16.136719 z M 37.744141 16.136719 L 37.744141 19.804688 L 39.96875 19.804688 C 41.483014 19.777908 42.240234 19.175189 42.240234 17.996094 C 42.240234 17.335912 42.047956 16.860238 41.660156 16.570312 C 41.28159 16.280386 40.671374 16.136719 39.849609 16.136719 L 37.744141 16.136719 z M 37.744141 21.923828 L 37.744141 25.851562 L 40.320312 25.851562 C 41.022044 25.851562 41.575623 25.683749 41.972656 25.347656 C 42.369689 25.01064 42.564453 24.545904 42.564453 23.953125 C 42.564453 22.619833 41.871858 21.944142 40.496094 21.923828 L 37.744141 21.923828 z " /></g>
</svg>
