<svg width="64" height="48" xmlns="http://www.w3.org/2000/svg"><path d="M 16.195086,0 15.667104,0.028722 C 14.865633,0.1316613 13.914313,0.4413971 12.854741,0.97079948 10.328068,2.235483 7.1486191,4.7055587 4.6219456,7.1172807 3.2227662,8.4701979 2.0270375,9.8085189 1.23915,10.911441 1.0489703,11.176142 0.88712727,11.440153 0.73770036,11.675442 0.2758353,12.454841 0.04320584,13.16266 0.0160373,13.677358 l -0.01326583,0.04308 c -0.09508991,2.05879 2.27015663,15.101951 5.02776263,23.557685 l 0.1751095,0.485399 c 0.815056,2.441133 1.6842342,4.471075 2.4992889,5.73576 l 0.029184,0.02872 c 0.2445167,0.367642 0.487759,0.677377 0.7322758,0.942078 0.2716853,0.279407 0.5434755,0.499186 0.7879923,0.646242 0.461865,0.279407 2.0250044,0.647966 4.3750834,0.942078 l 0.488183,0.05744 c 1.793124,0.205879 4.047571,0.411987 6.587828,0.603161 9.047121,0.691163 21.775851,1.251583 30.551288,1.280993 1.467097,0 2.813211,-0.01654 4.02221,-0.04595 0.882977,-0.01471 1.683808,-0.04204 2.403775,-0.08617 0.556953,-0.0294 1.045456,-0.05928 1.493736,-0.103393 0.556956,-0.05882 1.031445,-0.119247 1.398221,-0.178075 l 0.164497,-0.04308 c 0.529787,-0.102938 0.92288,-0.278028 1.167397,-0.425085 0.0815,-0.04411 0.150275,-0.088 0.191027,-0.132115 0.244517,-0.176467 0.544113,-0.546289 0.761461,-1.134513 l 0.01332,-0.05745 c 0.298854,-0.823515 0.568628,-2.575315 0.758805,-4.825275 0.02717,-0.367642 0.06835,-0.734934 0.09551,-1.117279 0.176597,-2.558779 0.273278,-5.630289 0.273278,-8.659646 0,-1.602914 -0.02759,-3.207886 -0.09551,-4.693154 -0.02717,-0.73527 -0.06804,-1.440677 -0.108786,-2.10243 -0.05434,-0.735282 -0.109517,-1.409784 -0.191029,-2.042126 -0.16301,-1.529385 -0.407206,-2.765225 -0.692477,-3.529917 C 62.708436,18.236103 62.45129,17.836753 62.193189,17.572052 55.917215,11.013336 47.452346,6.0147098 37.481492,3.0588798 35.851381,2.5735942 34.168001,2.1458693 32.456383,1.7635231 30.09272,1.2488264 27.662314,0.854189 25.16281,0.5600766 L 24.576458,0.4853996 C 23.421796,0.3677546 22.26905,0.2663093 21.100803,0.1780755 20.80195,0.1633695 20.51615,0.1468265 20.217296,0.1321205 18.886038,0.0585925 17.553512,0.0147055 16.195086,0 Z m 2.255197,17.293441 h 7.0654 c 2.132729,0 3.802843,0.501483 5.011843,1.530876 1.195415,1.029395 1.793544,2.469389 1.793544,4.337003 0,1.352917 -0.24526,2.472034 -0.761459,3.369077 -0.502618,0.882337 -1.290504,1.601072 -2.377243,2.159885 l 3.762199,7.852562 v 0.206798 h -4.645706 l -3.178502,-6.881764 h -2.334792 v 6.881764 h -4.335284 z m 14.955935,0 h 15.024919 v 3.618956 H 43.03989 V 36.749642 H 38.704604 V 20.912397 h -5.298386 z m -10.620651,3.604596 v 5.350886 h 2.730116 c 0.0518,0 0.10104,-0.001 0.151231,-0.0029 0.0502,-0.0017 0.09998,-0.005 0.148577,-0.0087 0.04859,-0.0037 0.09628,-0.0061 0.143272,-0.01147 0.04699,-0.0055 0.09525,-0.0128 0.140617,-0.0201 0.04537,-0.0074 0.08891,-0.01666 0.132663,-0.02586 0.04374,-0.0091 0.08523,-0.01769 0.127353,-0.02872 0.04212,-0.01103 0.08421,-0.02447 0.124704,-0.03734 0.04048,-0.0128 0.08056,-0.0255 0.119391,-0.04021 0.03884,-0.01471 0.07689,-0.02941 0.11408,-0.04596 0.03719,-0.01654 0.07325,-0.03619 0.108783,-0.05457 0.03554,-0.01838 0.06959,-0.03722 0.103472,-0.05744 0.03388,-0.02022 0.06862,-0.04113 0.100822,-0.06319 0.03221,-0.02206 0.06233,-0.04503 0.09286,-0.06894 0.03053,-0.02389 0.06136,-0.04894 0.09021,-0.07467 0.02885,-0.02574 0.05509,-0.05285 0.08225,-0.08042 0.02717,-0.02757 0.05412,-0.05388 0.07959,-0.08329 0.02632,-0.02849 0.05231,-0.05894 0.07694,-0.08904 0.02463,-0.03009 0.0487,-0.06023 0.07163,-0.09191 0.02293,-0.03167 0.04507,-0.06439 0.06633,-0.09766 0.02126,-0.03325 0.04144,-0.06859 0.06101,-0.103393 0.01957,-0.03481 0.0378,-0.0699 0.05572,-0.10628 0.01792,-0.03635 0.03416,-0.07413 0.05042,-0.112013 0.01624,-0.03788 0.03316,-0.07549 0.04776,-0.114895 0.01459,-0.03939 0.02684,-0.07973 0.0398,-0.120629 0.0129,-0.0409 0.02584,-0.08398 0.03714,-0.126381 0.01127,-0.04238 0.02217,-0.0854 0.03185,-0.129247 0.0096,-0.04385 0.01849,-0.08681 0.02653,-0.132115 0.008,-0.04532 0.01481,-0.0911 0.02123,-0.137865 0.0064,-0.04676 0.01376,-0.09543 0.01857,-0.143615 0.0047,-0.04819 0.0075,-0.09688 0.0106,-0.146482 0.0033,-0.04961 0.0064,-0.09836 0.008,-0.149354 0.0016,-0.051 0.0027,-0.102709 0.0027,-0.155098 0,-0.05239 -0.0011,-0.104088 -0.0027,-0.155098 -0.0016,-0.05102 -0.0047,-0.102601 -0.008,-0.152225 -0.0033,-0.04962 -0.0058,-0.09826 -0.0106,-0.146483 -0.0047,-0.04822 -0.01209,-0.09679 -0.01857,-0.143614 -0.0064,-0.04682 -0.01318,-0.09245 -0.02123,-0.137866 -0.008,-0.04541 -0.01686,-0.09102 -0.02653,-0.134997 -0.0096,-0.04398 -0.02053,-0.08669 -0.03185,-0.129248 -0.01127,-0.04256 -0.0242,-0.08238 -0.03714,-0.123512 -0.0129,-0.04113 -0.0252,-0.08381 -0.0398,-0.123497 -0.0146,-0.03969 -0.0315,-0.07665 -0.04776,-0.114895 -0.01624,-0.03825 -0.0325,-0.0781 -0.05042,-0.114895 -0.01792,-0.0368 -0.03614,-0.07094 -0.05572,-0.10628 -0.01957,-0.03532 -0.03976,-0.06955 -0.06101,-0.103393 -0.02126,-0.03387 -0.04339,-0.06815 -0.06633,-0.100528 -0.02293,-0.03238 -0.04702,-0.06388 -0.07163,-0.09477 -0.02463,-0.03089 -0.05063,-0.05964 -0.07694,-0.08904 -0.02632,-0.03034 -0.05169,-0.06066 -0.07959,-0.08904 -0.02791,-0.02839 -0.05807,-0.05685 -0.08755,-0.08329 -0.02949,-0.02644 -0.05915,-0.05017 -0.09021,-0.07467 -0.03106,-0.0245 -0.06288,-0.04924 -0.09551,-0.0718 -0.03263,-0.02257 -0.06663,-0.0454 -0.100823,-0.06606 -0.03419,-0.02065 -0.07038,-0.03871 -0.106133,-0.05744 -0.03576,-0.01874 -0.07148,-0.03773 -0.108783,-0.05457 -0.0373,-0.01684 -0.07524,-0.03101 -0.114081,-0.04596 -0.03884,-0.01494 -0.07901,-0.03005 -0.119392,-0.04308 -0.04037,-0.01309 -0.08014,-0.02617 -0.122041,-0.03734 -0.0419,-0.01118 -0.08393,-0.01944 -0.127352,-0.02872 -0.04343,-0.0092 -0.08772,-0.01844 -0.132664,-0.02586 -0.04495,-0.0074 -0.09152,-0.01456 -0.137966,-0.0201 -0.04646,-0.0055 -0.09266,-0.01075 -0.140617,-0.01442 -0.04795,-0.0037 -0.09647,-0.004 -0.145924,-0.0058 -0.04944,-0.002 -0.100293,-0.0029 -0.151231,-0.0029 z"/></svg>
