<svg width="64" height="38" xmlns="http://www.w3.org/2000/svg"><path d="M 13.507812,0 C 6.054732,0 0,6.0533896 0,13.509766 v 11.578125 c 0,7.456376 6.054732,13.509765 13.507812,13.509765 H 50.492188 C 57.945267,38.597656 64,32.544267 64,25.087891 V 13.509766 C 64,6.0533896 57.945268,0 50.492188,0 Z M 20.6875,12.707031 h 5.402344 c 1.726631,0 3.04595,0.382073 3.978515,1.148438 0.932565,0.766366 1.404297,1.850229 1.404297,3.25 0,0.992581 -0.221751,1.821423 -0.646484,2.484375 -0.433966,0.662952 -1.079866,1.190645 -1.957031,1.583984 l 3.148437,5.947266 v 0.138672 h -3.21289 l -2.734376,-5.328125 h -2.380859 v 5.328125 H 20.6875 Z m 13.064453,0 h 5.097656 c 1.763564,0 3.101527,0.337793 4.015625,1.013672 0.914098,0.676802 1.367188,1.668096 1.367188,2.974609 0,0.712812 -0.184822,1.339894 -0.544922,1.882813 -0.369332,0.543842 -0.877638,0.942319 -1.533203,1.195313 0.747898,0.186513 1.33894,0.562904 1.763672,1.128906 0.433966,0.566926 0.646484,1.26016 0.646484,2.080078 0,1.399771 -0.442258,2.459489 -1.337891,3.179687 -0.895631,0.719276 -2.169501,1.08473 -3.822265,1.097657 h -5.652344 z m -10.0625,2.429688 v 4.367187 h 2.408203 c 0.757132,0 1.340361,-0.191036 1.75586,-0.574218 0.415499,-0.383183 0.617187,-0.9118 0.617187,-1.583985 0,-0.686959 -0.192278,-1.225802 -0.580078,-1.619141 -0.387799,-0.393339 -0.988249,-0.589843 -1.800781,-0.589843 z m 13.054688,0 v 3.667969 h 2.224609 c 1.514264,-0.02678 2.271484,-0.629499 2.271484,-1.808594 0,-0.660182 -0.192278,-1.135856 -0.580078,-1.425782 -0.378566,-0.289926 -0.988782,-0.433593 -1.810547,-0.433593 z m 0,5.787109 v 3.927734 h 2.576171 c 0.701732,0 1.255311,-0.167813 1.652344,-0.503906 0.397033,-0.337016 0.591797,-0.801752 0.591797,-1.394531 0,-1.333292 -0.692595,-2.008983 -2.068359,-2.029297 z"/></svg>
