<svg enable-background="new 0 0 3839 1106.8" version="1.1" viewBox="0 0 3839 1106.8" xml:space="preserve" xmlns="http://www.w3.org/2000/svg">
<path d="m0 997.79999h3839v26.00001h-3839z"/><path fill="#FF0000" d="m2078.7227 492.12891c-73.7261 0.94036-133.3192 53.4614-136.3223 124.4707-1.9 64.69993 28.2997 111.5008 101.5996 131.80078l123.6992 33.79883c38.1 11.09999 63.4016 37.60043 67.1016 76.40039 6.2 52.99995-42.5005 92.39961-97.9004 96.09961-82.5999 5.59999-149.0996-51.0993-167.5996-131.19922l-6.8008-31.40039h-29v186h27.6992l29-45 31.4004 20.30078c40.1 27.69997 102.3008 35.6996 144.8008 27.09961 66.4999-13.49999 117.6988-54.70046 119.7988-127.40039 0.6-65.29994-28.9985-123.79924-92.3984-141.69922l-141.1016-39.40039c-39.3999-10.49999-65.8996-47.49965-59.0996-88.09961s49.2997-61.60078 85.5996-62.80078c73.8999-3.7 126.9008 48.59968 147.8008 120.09961l8 25.90039h28.3008l-6.8008-170h-24.5996l-25.3008 40.70117-24-17.90039c-32-22.19998-58.4992-26.50117-96.6992-27.70117-2.4063-0.07813-4.7995-0.10065-7.1777-0.07031zm-2076.322309 3.17187v31.39844l45.5996094-0.59961c8.699991 0 16.099615 1.20001 21.599609 8 4.899995 6.09999 4.900391 11.70118 4.900391 19.70117v327.59961c0 16.59998-2.400401 29.0004-12.900391 41.90039-12.399987 14.09999-25.300409 19.09883-44.40039 20.29883l-17.199219 1.20117v30.79883h184.09961v-30.19922l-17.90039-1.20117c-19.09998-0.6-33.29962-5.49923-45.59961-19.69922-10.49999-12.99999-12.29883-25.30041-12.29883-41.90039v-351l156.5 444h24l147.89844-442.09961v381.90039c0 7.99999-0.69923 14.19922-6.19922 19.69922-5.49999 6.79999-11.70079 9.90039-20.30078 9.90039h-45.59961v30.80078h217v-30.20117h-37c-9.89999 0-17.89884 0.00116-25.29883-6.79883-5.49999-4.99999-8-10.5004-8-17.90039v-368.90039c0-7.99999 2.99923-14.19922 9.19922-19.69922 7.39999-6.09999 15.39962-4.90039 24.59961-4.90039l38.90039-0.09961v-30.80078h-167.69922l-119.5 357.19922-128.70117-358.39844h-165.6992194zm1210.099609 46.09961v13.59961c0 15.39998-7.4 47.40003-18.5 74.5s-36.3004 37.59961-65.9004 43.09961v29h52.4004v218.59961c0 37.59996 35.0996 61.60039 72.0996 65.90039 45.3027 5.47884 85.6405-25.56252 98.4629-71.83399 23.2597 41.00951 64.6625 66.724 115.1367 69.4336 56.7 3.7 102.3016-17.80005 130.6016-66.5l13.0996-22.29883-23.4004-13.5-10.5 19.09961c-19.7 35.09996-52.4004 51.80078-92.4004 49.30078-51.7999-3.1-86.9004-48.10122-86.9004-99.20117v-24.59961h211.2012l-1.8008-38.19922c-2.5-64.69993-56.0989-120.80118-118.2988-125.70117-94.2999-7.99999-155.9016 77.00126-157.1016 165.70117-0.217 10.21033 0.3753 20.04499 1.6485 29.5h-2.2481v16c0 41.29996-19.0992 75.09844-51.6992 73.89844-27.1-0.6-40-19.70002-40-42.5v-203.79883h97.9004v-27.70117h-96.1016v-131.79883h-27.6992zm1694.0996 0v13.59961c0 15.39998-7.4 47.40003-18.5 74.5s-36.3004 37.59961-65.9004 43.09961v29h52.3008v218.59961c0 37.59996 35.0996 61.60039 72.0996 65.90039 45.3852 5.47893 85.74-25.56321 98.5645-71.83594 23.2595 41.01029 64.6619 66.72592 115.1367 69.43555 56.6999 3.7 102.2996-17.80005 130.5996-66.5l13.0996-22.29883-23.4004-13.5-10.5 19.09961c-19.7 35.09996-52.4004 51.80078-92.4004 49.30078-51.7999-3.1-86.8984-48.10122-86.8984-99.20117v-24.59961h211.1992l-1.8008-38.19922c-2.5-64.69993-56.0989-120.80118-118.2988-125.70117-94.2999-7.99999-155.8996 77.00126-157.0996 165.70117-0.217 10.21033 0.3733 20.04499 1.6465 29.5h-2.2481v16c0 41.29996-19.0992 75.09844-51.6992 73.89844-27.1-0.6-40-19.70002-40-42.5v-203.79883h97.9004v-27.70117h-96.0996v-131.79883h-27.7012zm-1909.49999 119c-47.39995-0.6-93.60039 33.19967-92.40039 93.59961 0.6 51.69995 21.60083 71.99923 75.80078 86.19922l81.9004 20.90039c21.6 4.89999 34.5 21.50119 37 43.70117 1.9 31.49997-27.7008 50.59844-62.8008 52.39844-51.79994 3.1-89.40001-31.39927-105.99999-80.69922l-7.40039-21h-22.79883v81.39062c-8.64947 1.49384-26.13126 12.70864-40.90039 2.41016-10.49999-6.79999-11.69922-17.90079-11.69922-30.80078v-167.5c0-57.29994-67.10006-82-125-79.5-57.89994 1.8-129.40038 32.70045-118.90039 92.40039 3.1 17.79998 18.50002 29.49883 37 28.29883 17.29998-0.6 33.89883-11.09924 33.29883-30.19922-0.6-20.89998-12.89844-27.7004-12.89844-39.40039-0.6-16.09998 32.09963-22.79961 56.09961-21.59961l19.69922 0.59961c9.89999 0.6 27.70118 4.30001 38.20117 16 9.29999 9.79999 13.59961 18.5004 13.59961 31.40039v48.59961l-37 6.20117c-78.29992 12.29999-171.30078 44.2989-168.80078 115.79883 2.5 53.59995 57.29966 79.50077 106.59961 73.30078 27.69997-3.7 57.30003-11.70041 85-33.90039l18.5-15.40039c4.29999 26.49997 24.0012 44.99961 51.70117 48.09961 18.16904 1.21553 43.30871-8.18521 55.5-20.73438v19.53516h20.29883l24-27.69922 17.20117 12.29883c23.99998 16.59998 70.19921 20.8996 96.69921 16.59961 46.2-9.19999 78.2004-47.90005 78.9004-92.5 0-43.79996-24-81.99923-66.5-91.19922l-86.19922-19.19922c-22.79998-4.89999-42.60039-11.10042-44.40039-39.40039-1.9-28.29997 28.29963-52.99961 51.09961-53.59961 45-0.6 78.9 24.60004 95.5 66.5l8 20.29883 24 1.20117-1.1992-110.30078h-19.1016l-20.2988 23.40039-19.0996-11.70117c-21.5-12.29999-38.2012-14.19883-62.20119-14.79883zm1693.99999 0c-47.3999-0.6-93.6004 33.19967-92.4004 93.59961 0.7 51.69995 21.6009 71.99923 75.8008 86.19922l81.9004 20.90039c21.6 4.89999 34.5 21.50119 37 43.70117 1.9 31.49997-27.7008 50.59844-62.8008 52.39844-51.6999 3.1-89.3004-31.39927-105.9004-80.69922l-7.3984-21h-22.8008v125h20.3008l24-27.69922 17.1992 12.29883c24 16.59998 70.1992 20.8996 96.6992 16.59961 46.2-9.19999 78.2008-47.90005 78.8008-92.5 0-43.79996-24-81.99923-66.5-91.19922l-86.1992-19.19922c-22.8-4.89999-42.5004-11.10042-44.4004-39.40039s28.2996-52.99961 51.0996-53.59961c45-0.6 78.9 24.60004 95.5 66.5l8 20.29883 24 1.20117-1.1992-110.30078h-19.1016l-20.2988 23.40039-19.0996-11.70117c-21.5-12.29999-38.2012-14.19883-62.2012-14.79883zm-880.7344 1.29492c-34.7197-1.17304-72.3785 24.96801-90.666 68.10547l-11.6992 27.69922v-86.19922l-120.0996 6.19922v29h29c9.8 0 17.8 1e-5 24 5.5 9.2 7.39999 8 17.89962 8 29.59961v184.80078c0 6.69999 4e-4 11.09962-3.0996 16.59961-4.3 6.09999-9.8012 8.59961-17.2012 8.59961h-34.5v24h169.4004v-23.40039h-28.3008c-8.6 0-15.9992 1.20117-22.1992-4.29883-5.5-5.49999-4.9004-11.69962-4.9004-19.09961v-49.30078c0-3.7-4e-4 -60.29964 13.5996-93.59961 17.8-44.29996 30.2016-86.80001 77.6016-93l4.8984-1.20117c-11.7 9.19999-12.8984 20.30001-12.8984 34.5 0 19.09998 17.9 32 37 32 24.1 0 38.1992-25.19924 36.6992-48.69922-0.6-23.99998-17.2-40.09961-40-45.59961-4.775-1.3125-9.6748-2.0375-14.6348-2.20508zm1692.9453 0.65039c-32.729-0.61386-61.123 11.77894-84.3105 39.25391l-14.8008 16 0.6016-45.59961-114 7.40039v27.09961h24.5996c9.2 0 16.6-0.69999 24 5.5 8.6 7.39999 6.7988 17.89962 6.7988 29.59961v184.90039c0 6.69999 1.2 11.09961-2.5 16.59961-3.7 6.09999-9.1996 8.59961-16.5996 8.59961h-33.2988v24h162.5996v-23.39844h-24c-8.7 0-16.6996 1.19882-21.5996-6.20117-4.3-4.9-4.3008-10.39923-4.3008-17.19922v-134.90039c0-48.09995 42.5004-104.09921 86.9004-91.19922 28.3 8.59999 43.0996 33.79886 43.0996 62.79883v161.59961c0 7.39999 1.1992 14.20157-4.3008 19.10156-4.3 4.9-9.7992 5.5-17.1992 5.5h-29v24h160.1992v-22.80078h-26.5c-6.7 0-12.2992-7.9e-4 -17.1992-4.30078-6.8-6.2-6.1992-13.59923-6.1992-22.19922v-130c0-51.19995 43.6996-110.8992 96.0996-91.19922 27.7 10.39999 33.9004 40.59925 33.9004 70.19922v154.59961c0 6.69999 0.5988 11.69961-3.7012 16.59961-4.3 6.09999-11.1004 4.90039-17.9004 4.90039h-28.2988v24h162.5996v-22.79883h-28.3008c-8 0-15.3988 0.7-20.2988-5.5-3.7-4.29999-3.7012-8.70118-3.7012-14.20117v-163.19922c0-53.59995-36.2989-104.70078-89.2988-105.30078-37.6-0.6-68.3996 13.50081-88.0996 38.80078l-20.9004 26.5c-10.4-36.29996-35.1008-61.6-70.8008-66.5-4.85-0.6125-9.6135-0.96699-14.2891-1.05469zm-1017.3105 7.85352v22.80078h19.0996c8 0 15.3996 0.6004 21.5996 7.40039 8.7 8.59999 3.1 29.60039 2.5 31.40039l-67.0996 163.89844-74.5-177.39844c-2.5-6.19999-3.1004-12.3 0.5996-18.5 5-6.69999 13.0016-5.5 21.6016-5.5h19.0996v-24h-152.0996v22.79883h18.5c6.2 0 9.8984 1.8 15.3984 5.5 5.6 4.3 8 8.6004 10.5 15.40039l109.5 254.90039-10.5 20.90039c-7.4 14.80002-26.4988 56.69962-57.2988 80.09962-10.5 8-25.9008 11.0996-30.8008 3.0996-3.1-6.8 8.0004-15.3992 4.9004-30.1992-3.7-17.9-16.7008-25.3004-33.3008-25.9004-17.9-0.6-33.8996 9.3-37.5996 26.5-8 38.1 18.5 54.1992 37 59.6992 62.1999 17.8 112.7008-30.7989 150.3008-118.29882l109-251.20117c5-11.69999 6.8004-19.09884 17.9004-28.29883 4.3-3.7 19.0996-11.70117 24.5996-11.70117h9.7988v-23.40039h-128.6992zm-1013.0234 16.1875c2.9916 0.06457 6.0664 0.39492 9.2226 1.01367 35.1 6.79999 57.3008 38.20004 57.3008 77v13.5c0 6.09999 8e-4 11.7-3.6992 16-4.3 5.6-9.8016 6.19922-16.6016 6.19922h-122l1.8008-18.5c2.9062-37.49996 29.1026-96.18152 73.9766-95.21289zm1694.2011 0c2.9916 0.06457 6.0664 0.39492 9.2227 1.01367 35.1 6.79999 57.2988 38.20004 57.2988 77v13.5c0 6.09999 8e-4 11.7-3.6992 16-4.3 5.6-9.7996 6.19922-16.5996 6.19922h-122l1.7988-18.5c2.9063-37.49996 29.1046-96.18152 73.9785-95.21289zm-2377.6777 126.11328v57.19922c0 41.89996-34.50082 73.90157-73.30078 80.10156-48.09995 7.99999-70.89844-20.90042-68.39844-55.40039 3.1-38.79996 43.09965-61.60001 77.59961-69l64.09961-12.90039z"/><path fill="#034693" d="m2397.1992 0c-42.9999 0-78.6996 28.20082-89.0996 66.800781l-108.4004 317.599609v-233h-163.2988v57.90039h106.9004v157.39844h-133.6016c-32.6999 0-57.8984-26.69847-57.8984-57.89844v-185.60156c0-32.699969 26.6984-57.898439 57.8984-57.898439h191.5v-57.9003904h-192.8984c-63.8 0-115.8008 51.9988924-115.8008 115.7988294v185.60156c0 63.79994 52.0008 115.79883 115.8008 115.79883h238.8984l120.3008-348.798829c4.5-13.399986 16.2992-22.300781 31.1992-22.300781 14.8 0 26.7012 8.900795 31.2012 22.300781l98 290.898439h-154.5v57.90039l234.5-0.09961-120.2012-356.199219c-11.8-38.599961-47.5-68.300781-90.5-68.300781zm-1055.5 7.3007812c-75.6999 0-136.5996 60.8996848-136.5996 136.5996088 0 75.69992 60.8997 136.59961 136.5996 136.59961h47.5c4.5 0 7.4004 3.0004 7.4004 7.40039 0 4.4-2.9004 7.5-5.9004 7.5h-185.5996v57.90039h185.5996c35.6 0 65.3008-29.70082 65.3008-65.30078s-29.7008-65.30078-65.3008-65.30078h-47.5c-43.0999 0-78.6992-35.59926-78.6992-78.69922s35.5993-78.699219 78.6992-78.699219h184.1016v-57.9999998h-185.6016zm329.6016 0.0996094c-63.8 0-115.8008 51.9988924-115.8008 115.7988294v185.60156c0 63.79994 52.0008 115.79883 115.8008 115.79883h198.8984v-57.90039l-198.8984-0.09961c-32.7 0-57.9004-26.70042-57.9004-57.90039v-185.5c0-32.699969 26.7004-57.898439 57.9004-57.898439h198.8984v-57.9003904h-198.8984zm727.2988 59.4003904c-7.4 0-14.7988 5.898444-17.7988 11.898438l-118.8008 345.800781h68.3008l41.5996-123.19922v52h1.5 135.0996l-92.0996-273.101561c-3-7.399993-8.9008-13.398438-17.8008-13.398438zm-1056.7988 11.898438c-35.6 0-65.3008 29.700821-65.3008 65.300781s29.7008 65.30078 65.3008 65.30078h47.5c43.0999 0 78.6992 35.59926 78.6992 78.69922s-35.5993 78.69922-78.6992 78.69922h-184.1016v57.90039h185.6016c75.6999 0 136.5996-60.89969 136.5996-136.59961s-60.8997-136.59961-136.5996-136.59961h-47.5c-4.5 0-7.4004-3.00039-7.4004-7.40039 0-3 3.0004-5.90039 5.9004-5.90039h185.5996v-59.400391h-185.5996zm329.5 0c-25.2 0-44.5 19.300025-44.5 44.500001v86.10156h201.7988v-57.90039h-144c0-7.39999 5.9004-13.40039 13.4004-13.40039h170.6992v-59.300781h-197.3984zm337 0c-25.2 0-44.5 19.300025-44.5 44.500001v185.60156c0 25.19998 19.3 44.5 44.5 44.5h120.1992v-130.70117h-92v57.90039h34.0996v13.40039h-34.0996c-7.4 0-13.4004-5.9004-13.4004-13.40039v-130.5c0-7.39999 5.9004-13.40039 13.4004-13.40039h164.8008v-57.900391h-193zm-381.4004 145.400391v86.09961c0 25.19997 19.3 44.5 44.5 44.5h198.9004v-57.89844h-172.2012c-7.5-1.4-13.4004-7.40079-13.4004-14.80078h144v-57.90039h-201.7988zm770.2988 4.40039 19.3008 59.40039h-40.0996l20.7988-59.40039z"/>
</svg>
