<?xml version="1.0" encoding="utf-8"?>
<!-- Generator: Adobe Illustrator 25.1.0, SVG Export Plug-In . SVG Version: 6.00 Build 0)  -->
<svg version="1.1" id="Layer_1" xmlns="http://www.w3.org/2000/svg" xmlns:xlink="http://www.w3.org/1999/xlink" x="0px" y="0px"
	 viewBox="0 0 3840 1107.1" style="enable-background:new 0 0 3840 1107.1;" xml:space="preserve">
<style type="text/css">
	.st0{fill:#008ED6;}
	.st1{fill:#3852A1;}
	.st2{fill:#FF0000;}
	.st3{fill:#FFFFFF;}
</style>
<g>
	<rect y="998.1" width="3840" height="26"/>
	<g>
		<path d="M545.2,527.5c-9.2,0-17.2-1.2-24.6,4.9c-6.2,5.5-9.2,11.7-9.2,19.7v369c0,7.4,2.5,12.9,8,17.9c7.4,6.8,15.4,6.8,25.3,6.8
			h37v30.2H364.7v-30.8h45.6c8.6,0,14.8-3.1,20.3-9.9c5.5-5.5,6.2-11.7,6.2-19.7V533.6L288.9,975.9h-24L108.4,531.8v351.1
			c0,16.6,1.8,28.9,12.3,41.9c12.3,14.2,26.5,19.1,45.6,19.7l17.9,1.2v30.2H0v-30.8l17.2-1.2c19.1-1.2,32-6.2,44.4-20.3
			c10.5-12.9,12.9-25.3,12.9-41.9V553.9c0-8,0-13.6-4.9-19.7c-5.5-6.8-12.9-8-21.6-8l-45.6,0.6v-31.4h165.7l128.7,358.5l119.5-357.3
			H584v30.8H545.2z"/>
		<path d="M845.1,982c-27.7-3.1-47.4-21.6-51.7-48.1l-18.5,15.4c-27.7,22.2-57.3,30.2-85,33.9c-49.3,6.2-104.1-19.7-106.6-73.3
			c-2.5-71.5,90.5-103.5,168.8-115.8l37-6.2v-48.7c0-12.9-4.3-21.6-13.6-31.4c-10.5-11.7-28.3-15.4-38.2-16l-19.7-0.6
			c-24-1.2-56.7,5.5-56.1,21.6c0,11.7,12.3,18.5,12.9,39.4c0.6,19.1-16,29.6-33.3,30.2c-18.5,1.2-33.9-10.5-37-28.3
			c-10.5-59.7,61-90.6,118.9-92.4c57.9-2.5,125,22.2,125,79.5v167.5c0,12.9,1.2,24,11.7,30.8c18.5,12.9,41.3-8,45.6-1.2
			C919.1,959.9,873.5,983.9,845.1,982z M789.7,812.7l-64.1,12.9c-34.5,7.4-74.5,30.2-77.6,69c-2.5,34.5,20.3,63.4,68.4,55.4
			c38.8-6.2,73.3-38.2,73.3-80.1V812.7z"/>
		<path d="M1058.9,982c-26.5,4.3-72.7,0-96.7-16.6l-17.2-12.3l-24,27.7h-20.3v-125h22.8l7.4,21c16.6,49.3,54.2,83.8,106,80.7
			c35.1-1.8,64.7-20.9,62.8-52.4c-2.5-22.2-15.4-38.8-37-43.7l-81.9-20.9c-54.2-14.2-75.2-34.5-75.8-86.2
			c-1.2-60.4,45-94.2,92.4-93.6c24,0.6,40.7,2.5,62.2,14.8l19.1,11.7l20.3-23.4h19.1l1.2,110.3l-24-1.2l-8-20.3
			c-16.6-41.9-50.5-67.1-95.5-66.5c-22.8,0.6-53,25.3-51.1,53.6c1.8,28.3,21.6,34.5,44.4,39.4l86.2,19.1
			c42.5,9.2,66.5,47.4,66.5,91.2C1137.1,934,1105.1,972.8,1058.9,982z"/>
		<path d="M1252.9,986.4c-37-4.3-72.1-28.3-72.1-65.9V701.8h-52.4v-29c29.6-5.5,54.8-16,65.9-43.1c11.1-27.1,18.5-59.1,18.5-74.5
			v-13.6h27.7v131.8h96.1v27.7h-97.9v203.9c0,22.8,12.9,41.9,40,42.5c32.6,1.2,51.7-32.6,51.7-73.9v-16h24.6l0.6,24
			C1356.4,945.1,1308.3,993.1,1252.9,986.4z"/>
		<path d="M1597.2,917.4c-28.3,48.7-73.9,70.2-130.6,66.5c-80.1-4.3-137.4-66.5-135.5-155.9c1.2-88.7,62.8-173.7,157.1-165.7
			c62.2,4.9,115.8,61,118.3,125.7l1.8,38.2H1397v24.6c0,51.1,35.1,96.1,86.9,99.2c40,2.5,72.7-14.2,92.4-49.3l10.5-19.1l23.4,13.5
			L1597.2,917.4z M1539.9,764.6c0-38.8-22.2-70.2-57.3-77c-50.5-9.9-80.1,54.2-83.2,94.2l-1.8,18.5h122c6.8,0,12.3-0.6,16.6-6.2
			c3.7-4.3,3.7-9.9,3.7-16V764.6z"/>
		<path d="M1828.8,758.4c-19.1,0-37-12.9-37-32c0-14.2,1.2-25.3,12.9-34.5l-4.9,1.2c-47.4,6.2-59.8,48.7-77.6,93
			c-13.6,33.3-13.6,89.9-13.6,93.6v49.3c0,7.4-0.6,13.6,4.9,19.1c6.2,5.5,13.6,4.3,22.2,4.3h28.3v23.4h-169.4v-24h34.5
			c7.4,0,12.9-2.5,17.2-8.6c3.1-5.5,3.1-9.9,3.1-16.6V741.8c0-11.7,1.2-22.2-8-29.6c-6.2-5.5-14.2-5.5-24-5.5h-29v-29l120.1-6.2
			v86.2l11.7-27.7c20.9-49.3,67.1-76.4,105.3-65.9c22.8,5.5,39.4,21.6,40,45.6C1867,733.2,1852.9,758.4,1828.8,758.4z"/>
		<path d="M2167,980.8c-42.5,8.6-104.7,0.6-144.8-27.1l-31.4-20.3l-29,45h-27.7v-186h29l6.8,31.4c18.5,80.1,85,136.8,167.6,131.2
			c55.4-3.7,104.1-43.1,97.9-96.1c-3.7-38.8-29-65.3-67.1-76.4l-123.8-33.9c-73.3-20.3-103.5-67.1-101.6-131.8
			c3.1-73.3,66.5-126.9,143.5-124.4c38.2,1.2,64.7,5.5,96.7,27.7l24,17.9l25.3-40.7h24.6l6.8,170h-28.3l-8-25.9
			c-20.9-71.5-73.9-123.8-147.8-120.1c-36.3,1.2-78.8,22.2-85.6,62.8c-6.8,40.6,19.7,77.6,59.1,88.1l141.1,39.4
			c63.4,17.9,93,76.4,92.4,141.7C2284.7,926,2233.5,967.3,2167,980.8z"/>
		<path d="M2605.6,693.8c-5.5,0-20.3,8-24.6,11.7c-11.1,9.2-12.9,16.6-17.9,28.3l-109,251.3c-37.6,87.5-88.1,136.1-150.3,118.3
			c-18.5-5.5-45-21.6-37-59.7c3.7-17.2,19.7-27.1,37.6-26.5c16.6,0.6,29.6,8,33.3,25.9c3.1,14.8-8,23.4-4.9,30.2
			c4.9,8,20.3,4.9,30.8-3.1c30.8-23.4,49.9-65.3,57.3-80.1l10.5-20.9l-109.6-255c-2.5-6.8-4.9-11.1-10.5-15.4
			c-5.5-3.7-9.2-5.5-15.4-5.5h-18.5v-22.8h152.1v24h-19.1c-8.6,0-16.6-1.2-21.6,5.5c-3.7,6.2-3.1,12.3-0.6,18.5l74.5,177.4
			l67.1-163.9c0.6-1.8,6.2-22.8-2.5-31.4c-6.2-6.8-13.6-7.4-21.6-7.4h-19.1v-22.8h128.7v23.4H2605.6z"/>
		<path d="M2753.4,982c-26.5,4.3-72.7,0-96.7-16.6l-17.2-12.3l-24,27.7h-20.3v-125h22.8l7.4,21c16.6,49.3,54.2,83.8,105.9,80.7
			c35.1-1.8,64.7-20.9,62.8-52.4c-2.5-22.2-15.4-38.8-37-43.7l-81.9-20.9c-54.2-14.2-75.1-34.5-75.8-86.2
			c-1.2-60.4,45-94.2,92.4-93.6c24,0.6,40.7,2.5,62.2,14.8l19.1,11.7l20.3-23.4h19.1l1.2,110.3l-24-1.2l-8-20.3
			c-16.6-41.9-50.5-67.1-95.5-66.5c-22.8,0.6-53,25.3-51.1,53.6c1.9,28.3,21.6,34.5,44.4,39.4l86.2,19.1
			c42.5,9.2,66.5,47.4,66.5,91.2C2831.6,934,2799.6,972.8,2753.4,982z"/>
		<path d="M2947.4,986.4c-37-4.3-72.1-28.3-72.1-65.9V701.8H2823v-29c29.6-5.5,54.8-16,65.9-43.1c11.1-27.1,18.5-59.1,18.5-74.5
			v-13.6h27.7v131.8h96.1v27.7h-97.9v203.9c0,22.8,12.9,41.9,40,42.5c32.6,1.2,51.7-32.6,51.7-73.9v-16h24.6l0.6,24
			C3050.9,945.1,3002.9,993.1,2947.4,986.4z"/>
		<path d="M3291.8,917.4c-28.3,48.7-73.9,70.2-130.6,66.5c-80.1-4.3-137.4-66.5-135.5-155.9c1.2-88.7,62.8-173.7,157.1-165.7
			c62.2,4.9,115.8,61,118.3,125.7l1.8,38.2h-211.3v24.6c0,51.1,35.1,96.1,86.9,99.2c40,2.5,72.7-14.2,92.4-49.3l10.5-19.1l23.4,13.5
			L3291.8,917.4z M3234.5,764.6c0-38.8-22.2-70.2-57.3-77c-50.5-9.9-80.1,54.2-83.2,94.2l-1.8,18.5h122c6.8,0,12.3-0.6,16.6-6.2
			c3.7-4.3,3.7-9.9,3.7-16V764.6z"/>
		<path d="M3677.4,975.9v-24h28.3c6.8,0,13.6,1.2,17.9-4.9c4.3-4.9,3.7-9.9,3.7-16.6V775.7c0-29.6-6.2-59.8-33.9-70.2
			c-52.4-19.7-96.1,40-96.1,91.2v130c0,8.6-0.6,16,6.2,22.2c4.9,4.3,10.5,4.3,17.2,4.3h26.5v22.8H3487v-24h29
			c7.4,0,12.9-0.6,17.2-5.5c5.5-4.9,4.3-11.7,4.3-19.1V765.8c0-29-14.8-54.2-43.1-62.8c-44.4-12.9-86.9,43.1-86.9,91.2v134.9
			c0,6.8,0,12.3,4.3,17.2c4.9,7.4,12.9,6.2,21.6,6.2h24v23.4h-162.6v-24h33.3c7.4,0,12.9-2.5,16.6-8.6c3.7-5.5,2.5-9.9,2.5-16.6
			V741.8c0-11.7,1.8-22.2-6.8-29.6c-7.4-6.2-14.8-5.5-24-5.5h-24.6v-27.1l114-7.4l-0.6,45.6l14.8-16c26.5-31.4,59.8-43.1,98.6-38.2
			c35.7,4.9,60.4,30.2,70.8,66.5l20.9-26.5c19.7-25.3,50.5-39.4,88.1-38.8c53,0.6,89.3,51.7,89.3,105.3v163.2c0,5.5,0,9.9,3.7,14.2
			c4.9,6.2,12.3,5.5,20.3,5.5h28.3v22.8H3677.4z"/>
	</g>
	<g>
		<g>
			<g>
				<path d="M1391.1,295.5h-185.6v57.9h185.6c35.6,0,65.3-29.7,65.3-65.3s-29.7-65.3-65.3-65.3h-47.5c-43.1,0-78.7-35.6-78.7-78.7
					s35.6-78.7,78.7-78.7h184.1V7.4h-185.6c-75.7,0-136.6,60.9-136.6,136.6s60.9,136.6,136.6,136.6h47.5c4.5,0,7.4,3,7.4,7.4
					S1394.1,295.5,1391.1,295.5z"/>
				<path d="M1342.1,138.1h185.6V78.7h-185.6c-35.6,0-65.3,29.7-65.3,65.3s29.7,65.3,65.3,65.3h47.5c43.1,0,78.7,35.6,78.7,78.7
					s-35.6,78.7-78.7,78.7h-184.1v57.9h185.6c75.7,0,136.6-60.9,136.6-136.6s-60.9-136.6-136.6-136.6h-47.5c-4.5,0-7.4-3-7.4-7.4
					C1336.2,141,1339.2,138.1,1342.1,138.1z"/>
			</g>
			<g>
				<path d="M2008.8,78.7c-25.2,0-44.5,19.3-44.5,44.5v185.6c0,25.2,19.3,44.5,44.5,44.5H2129V222.7H2037v57.9h34.1V294H2037
					c-7.4,0-13.4-5.9-13.4-13.4V150c0-7.4,5.9-13.4,13.4-13.4h164.8V78.7H2008.8z"/>
				<path d="M2374,353.4h135.1l-92.1-273.2c-3-7.4-8.9-13.4-17.8-13.4c-7.4,0-14.8,5.9-17.8,11.9l-118.8,345.9h68.3l41.6-123.2v52
					H2374z M2397.8,228.6l19.3,59.4H2377L2397.8,228.6z"/>
				<path d="M2608.6,424.6L2488.3,68.3C2476.5,29.7,2440.8,0,2397.8,0s-78.7,28.2-89.1,66.8l-108.4,317.7V151.4H2037v57.9h106.9
					v157.4h-133.6c-32.7,0-57.9-26.7-57.9-57.9V123.2c0-32.7,26.7-57.9,57.9-57.9h191.5V7.4h-193c-63.8,0-115.8,52-115.8,115.8
					v185.6c0,63.8,52,115.8,115.8,115.8h239l120.3-348.9c4.5-13.4,16.3-22.3,31.2-22.3c14.8,0,26.7,8.9,31.2,22.3l98,291H2374v57.9"
					/>
			</g>
			<g>
				<path d="M1671.7,366.7c-32.7,0-57.9-26.7-57.9-57.9V123.2c0-32.7,26.7-57.9,57.9-57.9h199V7.4h-199
					c-63.8,0-115.8,52-115.8,115.8v185.6c0,63.8,52,115.8,115.8,115.8h199v-57.9H1671.7z"/>
				<path d="M1685.1,282.1h144v-57.9h-201.9v86.1c0,25.2,19.3,44.5,44.5,44.5h199v-57.9h-172.2
					C1691,295.5,1685.1,289.5,1685.1,282.1z"/>
				<path d="M1829.1,151.4h-144c0-7.4,5.9-13.4,13.4-13.4h170.7V78.7h-197.5c-25.2,0-44.5,19.3-44.5,44.5v86.1h201.9L1829.1,151.4z"
					/>
			</g>
		</g>
	</g>
</g>
</svg>
