<?xml version="1.0" encoding="utf-8"?>
<!-- Generator: Adobe Illustrator 25.4.1, SVG Export Plug-In . SVG Version: 6.00 Build 0)  -->
<svg version="1.1" id="Layer_1" xmlns="http://www.w3.org/2000/svg" xmlns:xlink="http://www.w3.org/1999/xlink" x="0px" y="0px"
	 viewBox="0 0 3839 1106.8" style="enable-background:new 0 0 3839 1106.8;" xml:space="preserve">
<style type="text/css">
	.st0{fill:#FFFFFF;}
	.st1{fill:#034693;}
	.st2{fill:#FFFFFF;stroke:#3852A1;stroke-width:6.1873;stroke-linecap:round;stroke-linejoin:round;stroke-miterlimit:10;}
	.st3{fill:#008ED6;}
	.st4{fill:#FF0000;}
	.st5{fill:url(#SVGID_1_);}
	.st6{fill:url(#SVGID_00000171694551711858109920000010073034641349121676_);}
	.st7{fill:#F4F8F4;}
	.st8{fill:url(#SVGID_00000159451358431317794520000009358573065365151420_);}
	.st9{fill:url(#SVGID_00000168808349997797417980000013360489020709472642_);}
	.st10{fill:url(#SVGID_00000061440123806724732800000000536642604337525663_);}
	.st11{fill:url(#SVGID_00000128486229877587276250000001494620769193083280_);}
	.st12{fill:url(#SVGID_00000057108892604746519350000007242974132963479709_);}
	.st13{fill:url(#SVGID_00000073715932861093151780000013955667554902981532_);}
	.st14{fill:url(#SVGID_00000040544832402242967570000013401786133074845333_);}
	.st15{fill:url(#SVGID_00000111905097437625534600000010608591032042279573_);}
	.st16{fill:url(#SVGID_00000172442137168626441420000012766180015994079631_);}
	.st17{fill:url(#SVGID_00000151523776997941771330000013116842513190172053_);}
	.st18{fill:url(#SVGID_00000125591280672920480560000004717139423320638863_);}
	.st19{fill:url(#SVGID_00000172431978345815224390000014599725426424712883_);}
	.st20{fill:url(#SVGID_00000075130289757892952080000001804727855834141616_);}
	.st21{fill:url(#SVGID_00000098907943740710620380000015394995677074133679_);}
	.st22{fill:url(#SVGID_00000174596831786010964640000017508304955698307976_);}
	.st23{fill:url(#SVGID_00000000186212484710391900000004532357977001398156_);}
	.st24{fill:url(#SVGID_00000015320549900396852120000017458735331940295075_);}
	.st25{fill:url(#SVGID_00000150810278838965652840000001306407367751260831_);}
	.st26{fill:url(#SVGID_00000102519961232528050020000015080723143307029410_);}
	.st27{fill:url(#SVGID_00000043434345116309323130000004509911491176842665_);}
	.st28{fill:url(#SVGID_00000046313244000705620600000002422336597615971490_);}
	.st29{fill:url(#SVGID_00000034792873560845473240000009604250255033015940_);}
	.st30{fill:#DBDCD9;}
	.st31{fill:url(#SVGID_00000129191939021572510820000011749757556589073829_);}
	.st32{fill:url(#SVGID_00000148636770267347177910000014228453844006091948_);}
	.st33{fill:url(#SVGID_00000150077858434530098690000000653208007311994761_);}
	.st34{fill:url(#SVGID_00000138558352720753838310000014328885473517590416_);}
	.st35{fill:url(#SVGID_00000134963156652822103460000004479145693431787957_);}
	.st36{fill:url(#SVGID_00000065796914821484375410000003023665674219819141_);}
	.st37{fill:url(#SVGID_00000071542950822608981480000014187771046109058468_);}
	.st38{fill:url(#SVGID_00000028300509642155533090000011792917977665470336_);}
	.st39{fill:url(#SVGID_00000135684578852203135720000012958669077419464109_);}
	.st40{fill:url(#SVGID_00000054259832446731387980000016519693217478970792_);}
	.st41{fill:url(#SVGID_00000116216168854364833330000013329825011589725622_);}
	.st42{fill:url(#SVGID_00000095305977591657198170000011529585013347784848_);}
	.st43{fill:url(#SVGID_00000183955964791357976810000013149184622189415591_);}
	.st44{fill:url(#SVGID_00000094595810773745040770000016181716422936270983_);}
	.st45{fill:url(#SVGID_00000033350428081080127810000015146733595499625112_);}
	.st46{fill:url(#SVGID_00000021803290881199707850000013617778877398293415_);}
	.st47{fill:url(#SVGID_00000024000933728892132080000010576681164291202202_);}
	.st48{fill:url(#SVGID_00000142860359072033864140000004425272002559460015_);}
	.st49{fill:url(#SVGID_00000161612590797571127950000014865856981914582711_);}
	.st50{fill:url(#SVGID_00000155110605320786016470000014670447210192662146_);}
	.st51{fill:url(#SVGID_00000056389262292319620880000015648037061234721722_);}
	.st52{fill:url(#SVGID_00000120549881439812590480000005395380150750479035_);}
	.st53{fill:url(#SVGID_00000169533872539861477470000007855001947698761358_);}
	.st54{fill:url(#SVGID_00000032625497747420325130000010446273566171191197_);}
	.st55{fill:url(#SVGID_00000078032871667106045380000017532375198153342875_);}
	.st56{fill:url(#SVGID_00000173160588127016140660000004825977243352857755_);}
	.st57{fill:url(#SVGID_00000047031687244148917720000003953130893429622176_);}
	.st58{fill:url(#SVGID_00000089557302991052157160000008167850771520426891_);}
	.st59{fill:url(#SVGID_00000168812466598242516290000017882606000906139575_);}
	.st60{fill:url(#SVGID_00000020369524038550359640000013483236513326551475_);}
	.st61{fill:url(#SVGID_00000070823023981131437770000006180459994682967425_);}
	.st62{fill:url(#SVGID_00000039120870538833558720000003420856391382555281_);}
	.st63{fill:url(#SVGID_00000048495226043383486330000015591686274599613832_);}
	.st64{fill:url(#SVGID_00000090981381631128961240000016789878597687323044_);}
	.st65{fill:url(#SVGID_00000176740949203920753980000010104566287585649829_);}
	.st66{fill:url(#SVGID_00000041284375950241204720000016068576063615200169_);}
	.st67{fill:url(#SVGID_00000171717713303752003180000015699595540823700897_);}
	.st68{fill:url(#SVGID_00000085243663811834450090000002777551046194947241_);}
	.st69{fill:url(#SVGID_00000090978026593085495560000002062728110719463590_);}
	.st70{fill:url(#SVGID_00000005976575520014513210000006969715823161493891_);}
	.st71{fill:url(#SVGID_00000059267479573458234030000010330461195070032796_);}
	.st72{fill:url(#SVGID_00000101819767015974187710000005635202449093348795_);}
	.st73{fill:url(#SVGID_00000182487630165881302960000001948669734069882502_);}
	.st74{fill:url(#SVGID_00000098943935224793599970000005201634399206634395_);}
	.st75{fill:url(#SVGID_00000147214144029290926210000016886049544384679330_);}
	.st76{fill:url(#SVGID_00000052822248355866405070000002194709441134405297_);}
	.st77{fill:url(#SVGID_00000153671271294251933570000003458280841414343826_);}
	.st78{fill:url(#SVGID_00000104680317147401167690000014572765231932672686_);}
	.st79{fill:url(#SVGID_00000062892672132926729830000010082564836527318165_);}
	.st80{fill:url(#SVGID_00000172405926291410897450000005828193406014866581_);}
	.st81{fill:url(#SVGID_00000003801248571226529710000007362145280857860481_);}
	.st82{fill:url(#SVGID_00000118360032453412114960000006490626892556799873_);}
	.st83{fill:url(#SVGID_00000142174018448120280700000010719297370691982518_);}
	.st84{fill:url(#SVGID_00000161633856933547926930000010345921123297748153_);}
	.st85{fill:url(#SVGID_00000126318769630227749270000018134450127945009846_);}
	.st86{fill:url(#SVGID_00000052105302725678855070000010143390418079503293_);}
	.st87{fill:url(#SVGID_00000129908328338543184240000018407882671539622319_);}
	.st88{fill:url(#SVGID_00000086683951889992792560000001889592110966869901_);}
	.st89{fill:url(#SVGID_00000083787546985795383710000017647079251704330378_);}
	.st90{fill:url(#SVGID_00000125562039597785896440000002780028130620710298_);}
	.st91{fill:url(#SVGID_00000078035271688520145550000000509680353304359045_);}
	.st92{fill:url(#SVGID_00000060011520238961685890000007276678723451986333_);}
	.st93{fill:url(#SVGID_00000139979407013844178150000007534167188560804239_);}
	.st94{fill:url(#SVGID_00000021820631170359762770000000273373987956178612_);}
	.st95{fill:url(#SVGID_00000135682794360740615800000008567381390390816701_);}
	.st96{fill:url(#SVGID_00000147927725613234783190000017356665056935331208_);}
	.st97{fill:url(#SVGID_00000047028651419835715760000011666005543467564201_);}
	.st98{fill:url(#SVGID_00000145040920726906316860000012807587349395673515_);}
	.st99{fill:url(#SVGID_00000067200255675902408970000006445145209119272086_);}
	.st100{fill:url(#SVGID_00000137128685819286881270000008965806484985642120_);}
	.st101{fill:url(#SVGID_00000000224523844040328780000002140001912702733190_);}
	.st102{fill:url(#SVGID_00000161605743268762608770000009933309330332217529_);}
	.st103{fill:url(#SVGID_00000111159257511516593350000014254803082856260234_);}
	.st104{fill:url(#SVGID_00000038382982355252878940000008607791055585353915_);}
	.st105{fill:url(#SVGID_00000075842855429556418650000001675763818327191686_);}
	.st106{fill:url(#SVGID_00000177458213306630785500000008322194261297495733_);}
	.st107{fill:url(#SVGID_00000015336782181655589280000005157780202637603244_);}
	.st108{fill:url(#SVGID_00000116913567889864011420000003504407718443695236_);}
	.st109{fill:url(#SVGID_00000176028111005409978310000017393881054093307776_);}
	.st110{fill:url(#SVGID_00000000203647484987040560000012715766708512300931_);}
	.st111{fill:url(#SVGID_00000139265603785512924160000009750474475797793960_);}
	.st112{fill:url(#SVGID_00000062185488278036080020000014846167436096824488_);}
	.st113{fill:url(#SVGID_00000032630054073751840680000002189362984107416501_);}
	.st114{fill:url(#SVGID_00000070834219245261873260000004178995964194763966_);}
	.st115{fill:url(#SVGID_00000047028746350553843670000006434812896172900496_);}
	.st116{fill:url(#SVGID_00000029724040673244588060000015753155607778292134_);}
	.st117{fill:url(#SVGID_00000080180613120699511260000012395464698056902066_);}
	.st118{fill:url(#SVGID_00000003102961207950782330000004661594305054449333_);}
	.st119{fill:url(#SVGID_00000148656773881880629300000010834342086651441320_);}
	.st120{fill:url(#SVGID_00000106110375676142486130000004788442445949265812_);}
	.st121{fill:url(#SVGID_00000069357831672381533850000017147124482792576898_);}
	.st122{fill:url(#SVGID_00000125597005639293592180000003094852434780865471_);}
	.st123{fill:url(#SVGID_00000118397422031437041950000011294548347736158109_);}
	.st124{fill:url(#SVGID_00000047762838204356847330000003474361966337933493_);}
	.st125{fill:url(#SVGID_00000131359236650535854840000009621384992787875492_);}
	.st126{fill:url(#SVGID_00000144309309767460287000000011253767626088098460_);}
	.st127{fill:url(#SVGID_00000182508052895416693360000003751361663352327346_);}
	.st128{fill:url(#SVGID_00000103265131309807795230000003520650996499134892_);}
	.st129{fill:url(#SVGID_00000012432190358048314310000007707681105161914286_);}
	.st130{fill:url(#SVGID_00000179634270605674802220000003752518734485863820_);}
	.st131{fill:url(#SVGID_00000156567385309423774830000007646044754044043178_);}
	.st132{fill:url(#SVGID_00000063617469134223352350000011831193541339761296_);}
	.st133{fill:url(#SVGID_00000026886310682364389370000011003574429039860609_);}
	.st134{fill:url(#SVGID_00000142887924502511426690000003511807898503848121_);}
	.st135{fill:url(#SVGID_00000027568678891557097650000016484342868802962601_);}
	.st136{fill:url(#SVGID_00000126301120107416012490000012971088843644652968_);}
	.st137{fill:url(#SVGID_00000083072321584012699690000008412519214693678980_);}
	.st138{fill:url(#SVGID_00000031166560024827201040000006152687671778630554_);}
	.st139{fill:url(#SVGID_00000044900186341834989590000004515431090344238758_);}
	.st140{fill:url(#SVGID_00000047781490832251343140000004919242544240573853_);}
	.st141{fill:url(#SVGID_00000078034631777772206530000005203279457090106040_);}
	.st142{fill:url(#SVGID_00000161610665252643313920000002195579238431412392_);}
	.st143{fill:url(#SVGID_00000000192013029657939270000017103685558888627113_);}
	.st144{fill:url(#SVGID_00000159438052736763416100000013195204801601670020_);}
	.st145{fill:url(#SVGID_00000119117563672818636940000014593459226258555812_);}
	.st146{fill:url(#SVGID_00000057128918673477042850000013516552987689091767_);}
	.st147{fill:url(#SVGID_00000053509737696208091630000015244414752061640890_);}
	.st148{fill:url(#SVGID_00000090987737190196099630000006358890805061386637_);}
	.st149{fill:url(#SVGID_00000039097515376199327600000008246826238872836738_);}
	.st150{fill:url(#SVGID_00000059291062446239824450000016874535477516425363_);}
	.st151{fill:url(#SVGID_00000152949243463962756080000008333350926441153440_);}
	.st152{fill:url(#SVGID_00000129174873758763741350000003251029019367534475_);}
	.st153{fill:url(#SVGID_00000147220679114646885340000012763819806392871864_);}
	.st154{fill:url(#SVGID_00000080905395885254598820000004530949111088017041_);}
	.st155{fill:url(#SVGID_00000083790172093814202550000002931985930335052973_);}
	.st156{fill:url(#SVGID_00000026876599725604597300000014308515672664746136_);}
	.st157{fill:url(#SVGID_00000008835625596407055840000018365341634189088934_);}
	.st158{fill:url(#SVGID_00000010280956076846939050000003945262281847455667_);}
	.st159{fill:url(#SVGID_00000165216856737854511260000016614165120859967675_);}
	.st160{fill:url(#SVGID_00000139977703340423310470000000822630281206209201_);}
	.st161{fill:url(#SVGID_00000075873705103966293790000006087399048111609010_);}
	.st162{fill:url(#SVGID_00000129902092752350039700000003498369869911154084_);}
	.st163{fill:url(#SVGID_00000014597654626163184210000014316528318048020111_);}
	.st164{fill:url(#SVGID_00000020388217319096204060000015867286930681464210_);}
	.st165{fill:url(#SVGID_00000075844018487848067260000002434108945027351965_);}
	.st166{fill:url(#SVGID_00000137814449093870974490000008555406081407625636_);}
	.st167{fill:url(#SVGID_00000049197123321725093610000015415880319777829530_);}
	.st168{fill:url(#SVGID_00000070079568241191793380000005439158762511623064_);}
	.st169{fill:url(#SVGID_00000098921685662757295290000006662257159927930786_);}
	.st170{fill:url(#SVGID_00000060715308797507784860000016596248345962897543_);}
	.st171{fill:url(#SVGID_00000034786559426618355980000014892938385005536699_);}
	.st172{fill:url(#SVGID_00000080897218916311052110000009280996810448964530_);}
	.st173{fill:url(#SVGID_00000061456124839691155040000007468088362159638966_);}
	.st174{fill:url(#SVGID_00000107581208087204968920000006194281809351912114_);}
	.st175{fill:url(#SVGID_00000179633832160160783790000006751038035428248980_);}
	.st176{fill:url(#SVGID_00000039850753750371448780000009865352403890948015_);}
	.st177{fill:url(#SVGID_00000100359241329581880240000012549880116191582091_);}
	.st178{fill:url(#SVGID_00000052800612507538316870000002803425244872564670_);}
	.st179{fill:url(#SVGID_00000003805191949583016210000010593741136519312271_);}
	.st180{fill:url(#SVGID_00000111172011092405361900000001071096743566860464_);}
	.st181{fill:url(#SVGID_00000011710637995689956400000010102384081100832393_);}
	.st182{fill:url(#SVGID_00000071561226313506966030000009377616628774835076_);}
	.st183{fill:url(#SVGID_00000068662354425605833120000003964494417164518288_);}
	.st184{fill:url(#SVGID_00000138532462516060557420000010719596801821342911_);}
	.st185{fill:url(#SVGID_00000018945345979843283930000010755176456527479716_);}
	.st186{fill:url(#SVGID_00000083061124289163251870000015955172688981216901_);}
	.st187{fill:url(#SVGID_00000006696883255009746140000001489919633011871918_);}
	.st188{fill:url(#SVGID_00000078038590006070717560000001846433433465520015_);}
	.st189{fill:url(#SVGID_00000021801519243946197970000002200824025786103198_);}
	.st190{fill:url(#SVGID_00000154419917122576359030000003577075851305043645_);}
	.st191{fill:url(#SVGID_00000093160503602952639110000007159008314627681432_);}
	.st192{fill:url(#SVGID_00000101104285395758673670000012963569314168523161_);}
	.st193{fill:url(#SVGID_00000044148955826915929990000006034809755849744055_);}
	.st194{fill:url(#SVGID_00000152976245176264667700000003242944427156389007_);}
	.st195{fill:#F6F7F7;}
	.st196{fill:url(#SVGID_00000088833405362148150450000000157583469679666858_);}
	.st197{fill:url(#SVGID_00000021839466243115862700000001357406347780031370_);}
	.st198{fill:url(#SVGID_00000140000884514977160610000013053609606572273850_);}
	.st199{fill:url(#SVGID_00000161609232976538329770000002959805582335066532_);}
	.st200{fill:url(#SVGID_00000054250231362634730360000001463940233353302204_);}
	.st201{fill:url(#SVGID_00000119823699999837650120000008700562050977083533_);}
	.st202{fill:url(#SVGID_00000145780540776166030440000014427696998377181620_);}
	.st203{fill:url(#SVGID_00000142859678951155126700000011756625430421369268_);}
	.st204{fill:url(#SVGID_00000024684621533745096360000001629818448477205415_);}
	.st205{fill:url(#SVGID_00000002356891974483835330000015778405795492921736_);}
	.st206{fill:url(#SVGID_00000137831741998855187470000016179893461492881594_);}
	.st207{fill:url(#SVGID_00000060746862041412473090000000793420439250389378_);}
	.st208{fill:url(#SVGID_00000014607187793577702410000012634880572418977948_);}
	.st209{fill:url(#SVGID_00000021117641570060934530000011426960505778175880_);}
	.st210{fill:#A8988B;}
	.st211{fill:#0C0002;}
</style>
<g>
	<g>
		<g>
			<rect y="997.8" width="3839" height="26"/>
			<g>
				<path class="st4" d="M545.1,527.4c-9.2,0-17.2-1.2-24.6,4.9c-6.2,5.5-9.2,11.7-9.2,19.7v368.9c0,7.4,2.5,12.9,8,17.9
					c7.4,6.8,15.4,6.8,25.3,6.8h37v30.2H364.6V945h45.6c8.6,0,14.8-3.1,20.3-9.9c5.5-5.5,6.2-11.7,6.2-19.7V533.5L288.8,975.6h-24
					l-156.5-444v351c0,16.6,1.8,28.9,12.3,41.9c12.3,14.2,26.5,19.1,45.6,19.7l17.9,1.2v30.2H0v-30.8l17.2-1.2
					c19.1-1.2,32-6.2,44.4-20.3c10.5-12.9,12.9-25.3,12.9-41.9V553.8c0-8,0-13.6-4.9-19.7c-5.5-6.8-12.9-8-21.6-8l-45.6,0.6v-31.4
					h165.7l128.7,358.4l119.5-357.2h167.7v30.8L545.1,527.4L545.1,527.4z"/>
				<path class="st4" d="M844.9,981.7c-27.7-3.1-47.4-21.6-51.7-48.1l-18.5,15.4c-27.7,22.2-57.3,30.2-85,33.9
					c-49.3,6.2-104.1-19.7-106.6-73.3c-2.5-71.5,90.5-103.5,168.8-115.8l37-6.2V739c0-12.9-4.3-21.6-13.6-31.4
					c-10.5-11.7-28.3-15.4-38.2-16l-19.7-0.6c-24-1.2-56.7,5.5-56.1,21.6c0,11.7,12.3,18.5,12.9,39.4c0.6,19.1-16,29.6-33.3,30.2
					c-18.5,1.2-33.9-10.5-37-28.3c-10.5-59.7,61-90.6,118.9-92.4c57.9-2.5,125,22.2,125,79.5v167.5c0,12.9,1.2,24,11.7,30.8
					c18.5,12.9,41.3-8,45.6-1.2C918.9,959.6,873.3,983.6,844.9,981.7z M789.5,812.5l-64.1,12.9c-34.5,7.4-74.5,30.2-77.6,69
					c-2.5,34.5,20.3,63.4,68.4,55.4c38.8-6.2,73.3-38.2,73.3-80.1L789.5,812.5L789.5,812.5z"/>
				<path class="st4" d="M1058.6,981.7c-26.5,4.3-72.7,0-96.7-16.6l-17.2-12.3l-24,27.7h-20.3v-125h22.8l7.4,21
					c16.6,49.3,54.2,83.8,106,80.7c35.1-1.8,64.7-20.9,62.8-52.4c-2.5-22.2-15.4-38.8-37-43.7l-81.9-20.9
					c-54.2-14.2-75.2-34.5-75.8-86.2c-1.2-60.4,45-94.2,92.4-93.6c24,0.6,40.7,2.5,62.2,14.8l19.1,11.7l20.3-23.4h19.1l1.2,110.3
					l-24-1.2l-8-20.3c-16.6-41.9-50.5-67.1-95.5-66.5c-22.8,0.6-53,25.3-51.1,53.6c1.8,28.3,21.6,34.5,44.4,39.4L1071,798
					c42.5,9.2,66.5,47.4,66.5,91.2C1136.8,933.8,1104.8,972.5,1058.6,981.7z"/>
				<path class="st4" d="M1252.6,986.1c-37-4.3-72.1-28.3-72.1-65.9V701.6h-52.4v-29c29.6-5.5,54.8-16,65.9-43.1
					c11.1-27.1,18.5-59.1,18.5-74.5v-13.6h27.7v131.8h96.1v27.7h-97.9v203.8c0,22.8,12.9,41.9,40,42.5c32.6,1.2,51.7-32.6,51.7-73.9
					v-16h24.6l0.6,24C1356,944.9,1308,992.8,1252.6,986.1z"/>
				<path class="st4" d="M1596.8,917.2c-28.3,48.7-73.9,70.2-130.6,66.5c-80.1-4.3-137.4-66.5-135.5-155.9
					c1.2-88.7,62.8-173.7,157.1-165.7c62.2,4.9,115.8,61,118.3,125.7l1.8,38.2h-211.2v24.6c0,51.1,35.1,96.1,86.9,99.2
					c40,2.5,72.7-14.2,92.4-49.3l10.5-19.1l23.4,13.5L1596.8,917.2z M1539.5,764.4c0-38.8-22.2-70.2-57.3-77
					c-50.5-9.9-80.1,54.2-83.2,94.2l-1.8,18.5h122c6.8,0,12.3-0.6,16.6-6.2c3.7-4.3,3.7-9.9,3.7-16L1539.5,764.4L1539.5,764.4z"/>
				<path class="st4" d="M1828.3,758.2c-19.1,0-37-12.9-37-32c0-14.2,1.2-25.3,12.9-34.5l-4.9,1.2c-47.4,6.2-59.8,48.7-77.6,93
					c-13.6,33.3-13.6,89.9-13.6,93.6v49.3c0,7.4-0.6,13.6,4.9,19.1c6.2,5.5,13.6,4.3,22.2,4.3h28.3v23.4h-169.4v-24h34.5
					c7.4,0,12.9-2.5,17.2-8.6c3.1-5.5,3.1-9.9,3.1-16.6V741.6c0-11.7,1.2-22.2-8-29.6c-6.2-5.5-14.2-5.5-24-5.5h-29v-29l120.1-6.2
					v86.2l11.7-27.7c20.9-49.3,67.1-76.4,105.3-65.9c22.8,5.5,39.4,21.6,40,45.6C1866.5,733,1852.4,758.2,1828.3,758.2z"/>
				<path class="st4" d="M2166.4,980.5c-42.5,8.6-104.7,0.6-144.8-27.1l-31.4-20.3l-29,45h-27.7v-186h29l6.8,31.4
					c18.5,80.1,85,136.8,167.6,131.2c55.4-3.7,104.1-43.1,97.9-96.1c-3.7-38.8-29-65.3-67.1-76.4L2044,748.4
					c-73.3-20.3-103.5-67.1-101.6-131.8c3.1-73.3,66.5-126.9,143.5-124.4c38.2,1.2,64.7,5.5,96.7,27.7l24,17.9l25.3-40.7h24.6
					l6.8,170h-28.3l-8-25.9c-20.9-71.5-73.9-123.8-147.8-120.1c-36.3,1.2-78.8,22.2-85.6,62.8c-6.8,40.6,19.7,77.6,59.1,88.1
					l141.1,39.4c63.4,17.9,93,76.4,92.4,141.7C2284.1,925.8,2232.9,967,2166.4,980.5z"/>
				<path class="st4" d="M2604.9,693.6c-5.5,0-20.3,8-24.6,11.7c-11.1,9.2-12.9,16.6-17.9,28.3l-109,251.2
					c-37.6,87.5-88.1,136.1-150.3,118.3c-18.5-5.5-45-21.6-37-59.7c3.7-17.2,19.7-27.1,37.6-26.5c16.6,0.6,29.6,8,33.3,25.9
					c3.1,14.8-8,23.4-4.9,30.2c4.9,8,20.3,4.9,30.8-3.1c30.8-23.4,49.9-65.3,57.3-80.1l10.5-20.9L2321.2,714
					c-2.5-6.8-4.9-11.1-10.5-15.4c-5.5-3.7-9.2-5.5-15.4-5.5h-18.5v-22.8h152.1v24h-19.1c-8.6,0-16.6-1.2-21.6,5.5
					c-3.7,6.2-3.1,12.3-0.6,18.5l74.5,177.4l67.1-163.9c0.6-1.8,6.2-22.8-2.5-31.4c-6.2-6.8-13.6-7.4-21.6-7.4H2486v-22.8h128.7
					v23.4H2604.9z"/>
				<path class="st4" d="M2752.7,981.7c-26.5,4.3-72.7,0-96.7-16.6l-17.2-12.3l-24,27.7h-20.3v-125h22.8l7.4,21
					c16.6,49.3,54.2,83.8,105.9,80.7c35.1-1.8,64.7-20.9,62.8-52.4c-2.5-22.2-15.4-38.8-37-43.7l-81.9-20.9
					c-54.2-14.2-75.1-34.5-75.8-86.2c-1.2-60.4,45-94.2,92.4-93.6c24,0.6,40.7,2.5,62.2,14.8l19.1,11.7l20.3-23.4h19.1l1.2,110.3
					l-24-1.2l-8-20.3c-16.6-41.9-50.5-67.1-95.5-66.5c-22.8,0.6-53,25.3-51.1,53.6s21.6,34.5,44.4,39.4L2765,798
					c42.5,9.2,66.5,47.4,66.5,91.2C2830.9,933.8,2798.9,972.5,2752.7,981.7z"/>
				<path class="st4" d="M2946.6,986.1c-37-4.3-72.1-28.3-72.1-65.9V701.6h-52.3v-29c29.6-5.5,54.8-16,65.9-43.1
					c11.1-27.1,18.5-59.1,18.5-74.5v-13.6h27.7v131.8h96.1v27.7h-97.9v203.8c0,22.8,12.9,41.9,40,42.5c32.6,1.2,51.7-32.6,51.7-73.9
					v-16h24.6l0.6,24C3050.1,944.9,3002.1,992.8,2946.6,986.1z"/>
				<path class="st4" d="M3290.9,917.2c-28.3,48.7-73.9,70.2-130.6,66.5c-80.1-4.3-137.4-66.5-135.5-155.9
					c1.2-88.7,62.8-173.7,157.1-165.7c62.2,4.9,115.8,61,118.3,125.7l1.8,38.2h-211.2v24.6c0,51.1,35.1,96.1,86.9,99.2
					c40,2.5,72.7-14.2,92.4-49.3l10.5-19.1l23.4,13.5L3290.9,917.2z M3233.7,764.4c0-38.8-22.2-70.2-57.3-77
					c-50.5-9.9-80.1,54.2-83.2,94.2l-1.8,18.5h122c6.8,0,12.3-0.6,16.6-6.2c3.7-4.3,3.7-9.9,3.7-16V764.4z"/>
				<path class="st4" d="M3676.4,975.6v-24h28.3c6.8,0,13.6,1.2,17.9-4.9c4.3-4.9,3.7-9.9,3.7-16.6V775.5c0-29.6-6.2-59.8-33.9-70.2
					c-52.4-19.7-96.1,40-96.1,91.2v130c0,8.6-0.6,16,6.2,22.2c4.9,4.3,10.5,4.3,17.2,4.3h26.5v22.8h-160.2v-24h29
					c7.4,0,12.9-0.6,17.2-5.5c5.5-4.9,4.3-11.7,4.3-19.1V765.6c0-29-14.8-54.2-43.1-62.8c-44.4-12.9-86.9,43.1-86.9,91.2v134.9
					c0,6.8,0,12.3,4.3,17.2c4.9,7.4,12.9,6.2,21.6,6.2h24v23.4h-162.6v-24h33.3c7.4,0,12.9-2.5,16.6-8.6c3.7-5.5,2.5-9.9,2.5-16.6
					V741.6c0-11.7,1.8-22.2-6.8-29.6c-7.4-6.2-14.8-5.5-24-5.5h-24.6v-27.1l114-7.4l-0.6,45.6l14.8-16
					c26.5-31.4,59.8-43.1,98.6-38.2c35.7,4.9,60.4,30.2,70.8,66.5l20.9-26.5c19.7-25.3,50.5-39.4,88.1-38.8
					c53,0.6,89.3,51.7,89.3,105.3v163.2c0,5.5,0,9.9,3.7,14.2c4.9,6.2,12.3,5.5,20.3,5.5h28.3v22.8L3676.4,975.6L3676.4,975.6
					L3676.4,975.6z"/>
			</g>
			<g>
				<g>
					<g>
						<path class="st1" d="M1390.7,295.4h-185.6v57.9h185.6c35.6,0,65.3-29.7,65.3-65.3s-29.7-65.3-65.3-65.3h-47.5
							c-43.1,0-78.7-35.6-78.7-78.7s35.6-78.7,78.7-78.7h184.1v-58h-185.6c-75.7,0-136.6,60.9-136.6,136.6s60.9,136.6,136.6,136.6
							h47.5c4.5,0,7.4,3,7.4,7.4C1396.6,292.3,1393.7,295.4,1390.7,295.4z"/>
						<path class="st1" d="M1341.8,138.1h185.6V78.7h-185.6c-35.6,0-65.3,29.7-65.3,65.3s29.7,65.3,65.3,65.3h47.5
							c43.1,0,78.7,35.6,78.7,78.7s-35.6,78.7-78.7,78.7h-184.1v57.9h185.6c75.7,0,136.6-60.9,136.6-136.6s-60.9-136.6-136.6-136.6
							h-47.5c-4.5,0-7.4-3-7.4-7.4C1335.9,141,1338.9,138.1,1341.8,138.1z"/>
					</g>
					<g>
						<path class="st1" d="M2008.3,78.7c-25.2,0-44.5,19.3-44.5,44.5v185.6c0,25.2,19.3,44.5,44.5,44.5h120.2V222.6h-92v57.9h34.1
							v13.4h-34.1c-7.4,0-13.4-5.9-13.4-13.4V150c0-7.4,5.9-13.4,13.4-13.4h164.8V78.7H2008.3z"/>
						<path class="st1" d="M2373.4,353.3h135.1l-92.1-273.1c-3-7.4-8.9-13.4-17.8-13.4c-7.4,0-14.8,5.9-17.8,11.9L2262,424.5h68.3
							l41.6-123.2v52L2373.4,353.3L2373.4,353.3z M2397.2,228.5l19.3,59.4h-40.1L2397.2,228.5z"/>
						<path class="st1" d="M2607.9,424.5L2487.7,68.3C2475.9,29.7,2440.2,0,2397.2,0s-78.7,28.2-89.1,66.8l-108.4,317.6v-233h-163.3
							v57.9h106.9v157.4h-133.6c-32.7,0-57.9-26.7-57.9-57.9V123.2c0-32.7,26.7-57.9,57.9-57.9h191.5V7.4h-192.9
							c-63.8,0-115.8,52-115.8,115.8v185.6c0,63.8,52,115.8,115.8,115.8h238.9l120.3-348.8c4.5-13.4,16.3-22.3,31.2-22.3
							c14.8,0,26.7,8.9,31.2,22.3l98,290.9h-154.5v57.9"/>
					</g>
					<g>
						<path class="st1" d="M1671.3,366.6c-32.7,0-57.9-26.7-57.9-57.9V123.2c0-32.7,26.7-57.9,57.9-57.9h198.9V7.4h-198.9
							c-63.8,0-115.8,52-115.8,115.8v185.6c0,63.8,52,115.8,115.8,115.8h198.9v-57.9L1671.3,366.6L1671.3,366.6z"/>
						<path class="st1" d="M1684.7,282h144v-57.9h-201.8v86.1c0,25.2,19.3,44.5,44.5,44.5h198.9v-57.9h-172.2
							C1690.6,295.4,1684.7,289.4,1684.7,282z"/>
						<path class="st1" d="M1828.6,151.4h-144c0-7.4,5.9-13.4,13.4-13.4h170.7V78.7h-197.4c-25.2,0-44.5,19.3-44.5,44.5v86.1h201.8
							V151.4z"/>
					</g>
				</g>
			</g>
		</g>
	</g>
</g>
</svg>
