<svg enable-background="new 0 0 3840 1107.1" version="1.1" viewBox="0 0 3840 1107.1" xml:space="preserve" xmlns="http://www.w3.org/2000/svg">
<path d="m2397.8008 0c-43 0-78.7016 28.20082-89.1016 66.800781l-108.3984 317.699219v-233.09961h-163.3008v57.90039h106.9004v157.39844h-133.5996c-32.7 0-57.9004-26.69847-57.9004-57.89844v-185.60156c0-32.699969 26.7004-57.898439 57.9004-57.898439h191.5v-57.9003904h-193c-63.8 0-115.8008 51.9988924-115.8008 115.7988294v185.60156c0 63.79994 52.0008 115.79883 115.8008 115.79883h239l120.2988-348.900391c4.5-13.399987 16.3012-22.298828 31.2012-22.298828 14.8 0 26.6992 8.898841 31.1992 22.298828l98 291.000001h-154.5v57.90039h234.5996l-120.2988-356.298829c-11.8-38.599961-47.5001-68.300781-90.5-68.300781zm-1055.7012 7.4003906c-75.6999 0-136.5996 60.8996854-136.5996 136.5996094 0 75.69992 60.8997 136.59961 136.5996 136.59961h47.5c4.5 0 7.4004 3.00039 7.4004 7.40039s-2.9004 7.5-5.9004 7.5h-185.5996v57.90039h185.5996c35.6 0 65.3008-29.70082 65.3008-65.30078 0-35.59997-29.7008-65.29883-65.3008-65.29883h-47.5c-43.0999 0-78.6992-35.60121-78.6992-78.70117s35.5993-78.699219 78.6992-78.699219h184.0996v-58.0000004h-185.5996zm329.5996 0c-63.7999 0-115.7988 51.9988924-115.7988 115.7988294v185.60156c0 63.79994 51.9989 115.79883 115.7988 115.79883h199v-57.90039h-199c-32.6999 0-57.8984-26.69847-57.8984-57.89844v-185.60156c0-32.699969 26.6984-57.898439 57.8984-57.898439h199v-57.9003904h-199zm727.5 59.4003904c-7.4 0-14.7988 5.898444-17.7988 11.898438l-118.8008 345.900391h68.3008l41.5996-123.19922v52h1.5 135.0996l-92.0996-273.201171c-3-7.399993-8.9008-13.398438-17.8008-13.398438zm-1057.0996 11.898438c-35.6 0-65.2988 29.700821-65.2988 65.300781s29.6988 65.30078 65.2988 65.30078h47.5c43.1 0 78.7012 35.59926 78.7012 78.69922s-35.6012 78.69922-78.7012 78.69922h-184.0996v57.90039h185.5996c75.6999 0 136.5996-60.89969 136.5996-136.59961s-60.8997-136.59961-136.5996-136.59961h-47.5c-4.5 0-7.4004-3.00039-7.4004-7.40039 0-3 3.0004-5.90039 5.9004-5.90039h185.5996v-59.400391h-185.5996zm329.5996 0c-25.2 0-44.5 19.300025-44.5 44.500001v86.10156h201.9004v-57.90039h-144c0-7.39999 5.9004-13.40039 13.4004-13.40039h170.6992v-59.300781h-197.5zm337.1016 0c-25.2 0-44.5 19.300025-44.5 44.500001v185.60156c0 25.19998 19.3 44.5 44.5 44.5h120.1992v-130.60156h-92v57.90039h34.0996v13.40039h-34.0996c-7.4 0-13.4004-5.9004-13.4004-13.40039v-130.59961c0-7.39999 5.9004-13.40039 13.4004-13.40039h164.8008v-57.900391h-193zm-381.6016 145.500001v86.10156c0 25.19998 19.3 44.5 44.5 44.5h199v-57.90039h-172.1992c-7.5-1.4-13.4004-7.40079-13.4004-14.80078h144v-57.90039h-201.9004zm770.6016 4.40039 19.2988 59.40039h-40.0996l20.8008-59.40039zm-318.5781 263.72851c-73.7261 0.94037-133.3192 53.46336-136.3223 124.47266-1.9 64.69994 28.2997 111.49885 101.5996 131.79883l123.8008 33.90039c38.0999 11.09999 63.3996 37.60043 67.0996 76.40039 6.2 52.99995-42.5005 92.39961-97.9004 96.09961-82.5999 5.59999-149.0996-51.0993-167.5996-131.19922l-6.8008-31.40039h-29v186h27.7012l29-45 31.3984 20.29883c40.1 27.69997 102.3008 35.70155 144.8008 27.10156 66.4999-13.49999 117.6992-54.80007 119.6992-127.5 0.6-65.29993-28.9985-123.80119-92.3984-141.70117l-141.1016-39.40039c-39.3999-10.49999-65.8996-47.49965-59.0996-88.09961s49.2997-61.59883 85.5996-62.79883c73.8999-3.7 126.9008 48.59968 147.8008 120.09961l8 25.90039h28.3008l-6.8008-170h-24.5996l-25.3008 40.69922-24-17.90039c-32-22.19998-58.4992-26.49922-96.6992-27.69922-2.4063-0.07812-4.7995-0.1026-7.1777-0.07227zm-2076.822309 3.07227v31.40039l45.5996094-0.60156c8.699991 0 16.099615 1.20001 21.599609 8 4.899995 6.09999 4.900391 11.70118 4.900391 19.70117v327.79883c0 16.59998-2.400401 29.0004-12.900391 41.90039-12.399987 14.09999-25.300409 19.10078-44.40039 20.30078l-17.199219 1.19922v30.80078h184.19922v-30.20117l-17.89844-1.19922c-19.09998-0.6-33.30157-5.49923-45.60156-19.69922-10.49999-12.99999-12.29883-25.30041-12.29883-41.90039v-351.09961l156.5 444.09961h24l147.90039-442.30078v382c0 7.99999-0.70118 14.20118-6.20117 19.70117-5.5 6.79999-11.69884 9.89844-20.29883 9.89844h-45.60156v30.80078h217v-30.19922h-37c-9.89999 0-17.89884-7.9e-4 -25.29883-6.80078-5.49999-5-8-10.5004-8-17.90039v-369c0-7.99999 2.99923-14.19922 9.19922-19.69922 7.39999-6.09999 15.39962-4.90039 24.59961-4.90039v-0.09961h38.80078v-30.80078h-167.69922l-119.5 357.30078-128.70117-358.5h-165.6992194zm1210.400409 46.19922v13.59961c0 15.39998-7.4 47.40003-18.5 74.5s-36.3004 37.60157-65.9004 43.10156v29h52.4004v218.69922c0 37.59996 35.0996 61.60039 72.0996 65.90039 45.3433 5.48376 85.7773-25.68623 98.5312-71.99609 23.2535 41.0439 64.6696 66.78519 115.168 69.49609 56.7 3.7 102.2996-17.80005 130.5996-66.5l13-22.30078-23.3984-13.5-10.5 19.09961c-19.7 35.09996-52.4004 51.80078-92.4004 49.30078-51.8-3.1-86.9004-48.09927-86.9004-99.19922v-24.60156h211.3008l-1.8008-38.19922c-2.5-64.69994-56.1008-120.79922-118.3008-125.69922-94.2999-7.99999-155.8996 76.99931-157.0996 165.69922-0.2177 10.24604 0.3775 20.11434 1.6602 29.59961h-2.3594v16c0 41.29996-19.1012 75.10039-51.7012 73.90039-27.1-0.6-40-19.70002-40-42.5v-203.90039h97.9004v-27.69922h-96.0996v-131.80078h-27.6992zm1694.5996 0v13.59961c0 15.39998-7.4 47.40003-18.5 74.5s-36.3004 37.60157-65.9004 43.10156v29h52.3008v218.69922c0 37.59996 35.0996 61.60039 72.0996 65.90039 45.4397 5.48551 85.8319-25.70666 98.6055-72.04101 23.2486 41.06996 64.6765 66.82912 115.1933 69.54101 56.7 3.7 102.3016-17.80005 130.6016-66.5l13-22.30078-23.4004-13.5-10.5 19.09961c-19.7 35.09996-52.4004 51.80078-92.4004 49.30078-51.7999-3.1-86.9004-48.09927-86.9004-99.19922v-24.60156h211.3008l-1.8008-38.19922c-2.5-64.69994-56.0989-120.79922-118.2988-125.69922-94.2999-7.99999-155.9016 76.99931-157.1016 165.69922-0.2177 10.2461 0.3795 20.11429 1.6621 29.59961h-2.3613v16c0 41.29996-19.0993 75.10039-51.6992 73.90039-27.1-0.6-40-19.70002-40-42.5v-203.90039h97.8984v-27.69922h-96.0996v-131.80078h-27.6992zm-1910.00001 119.09961c-47.39995-0.6-93.60039 33.20162-92.40039 93.60156 0.6 51.69995 21.60084 71.99923 75.80078 86.19922l81.89842 20.90039c21.6 4.9 34.5 21.49924 37 43.69922 1.9 31.49997-27.6988 50.60039-62.7988 52.40039-51.79996 3.1-89.40003-31.39927-106.00001-80.69922l-7.40039-21h-22.80078v81.26953c-8.61587 1.42724-26.1768 12.76587-41 2.42969-10.49999-6.79999-11.69922-17.90079-11.69922-30.80078v-167.5c0-57.29994-67.10006-82-125-79.5-57.89994 1.8-129.40038 32.70045-118.90039 92.40039 3.1 17.79998 18.50002 29.50078 37 28.30078 17.29998-0.6 33.90078-11.10119 33.30078-30.20117-0.6-20.89998-12.90039-27.69845-12.90039-39.39844-0.6-16.09998 32.09963-22.80156 56.09961-21.60156l19.70117 0.60156c9.89999 0.6 27.69923 4.30001 38.19922 16 9.29999 9.79999 13.59961 18.49845 13.59961 31.39844v48.70117l-37 6.19922c-78.29992 12.29999-171.29883 44.30085-168.79883 115.80078 2.5 53.59995 57.29966 79.49882 106.59961 73.29883 27.69997-3.7 57.30003-11.69846 85-33.89844l18.5-15.40039c4.3 26.49997 23.99925 44.99961 51.69922 48.09961 18.22132 1.21903 43.44853-8.24121 55.59961-20.87109v19.67187h20.30078l24-27.70117 17.19922 12.30078c23.99997 16.59998 70.20118 20.89961 96.70118 16.59961 46.1999-9.19999 78.2004-47.99965 78.9004-92.59961 0-43.79996-24.0001-82.00118-66.5-91.20117l-86.20119-19.09961c-22.79998-4.9-42.60039-11.10042-44.40039-39.40039-1.9-28.29997 28.30158-52.99961 51.10156-53.59961 44.99992-0.6 78.90002 24.60004 95.50002 66.5l8 20.30078 24 1.19922-1.2012-110.29883h-19.0996l-20.3008 23.39844-19.0996-11.69922c-21.5-12.29999-38.1992-14.20078-62.19921-14.80078zm1694.40041 0c-47.4-0.6-93.6004 33.20162-92.4004 93.60156 0.7 51.69995 21.5989 71.99923 75.7988 86.19922l81.9004 20.90039c21.6 4.9 34.5 21.49924 37 43.69922 1.9 31.49997-27.6989 50.60039-62.7988 52.40039-51.7 3.1-89.3004-31.39927-105.9004-80.69922l-7.4004-21h-22.8008v125h20.3008l24-27.70117 17.1992 12.30078c24 16.59998 70.2012 20.89961 96.7012 16.59961 46.1999-9.19999 78.1988-47.99965 78.7988-92.59961 0-43.79996-24-82.00118-66.5-91.20117l-86.1992-19.09961c-22.8-4.9-42.5004-11.10042-44.4004-39.40039s28.2996-52.99961 51.0996-53.59961c45-0.6 78.9 24.60004 95.5 66.5l8 20.30078 24 1.19922-1.1992-110.29883h-19.0996l-20.3008 23.39844-19.0996-11.69922c-21.5-12.29999-38.1992-14.20078-62.1992-14.80078zm-880.9356 1.19531c-34.7197-1.17304-72.3785 24.96801-90.666 68.10547l-11.6992 27.69922v-86.19922l-120.0996 6.19922v29h29c9.8 0 17.8 0 24 5.5 9.2 7.39999 8 17.90157 8 29.60156v184.79883c0 6.69999 4e-4 11.09961-3.0996 16.59961-4.3 6.09999-9.8012 8.60156-17.2012 8.60156h-34.5v24h169.4004v-23.40039h-28.3008c-8.6 0-15.9992 1.19921-22.1992-4.30078-5.5-5.5-4.9004-11.69962-4.9004-19.09961v-49.30078c0-3.7-4e-4 -60.29964 13.5996-93.59961 17.8-44.29996 30.2016-86.80001 77.6016-93l4.8984-1.19922c-11.7 9.19999-12.8984 20.30001-12.8984 34.5 0 19.09998 17.9 32 37 32 24.1 0 38.1992-25.20119 36.6992-48.70117-0.6-23.99998-17.2-40.09962-40-45.59961-4.775-1.3125-9.6748-2.0375-14.6348-2.20508zm1693.4453 0.65235c-32.729-0.61387-61.123 11.77893-84.3105 39.2539l-14.8008 16 0.6016-45.60156-114 7.40039v27.09961h24.5996c9.2 0 16.6-0.7 24 5.5 8.6 7.39999 6.7988 17.90157 6.7988 29.60156v184.89844c0 6.69999 1.2 11.10157-2.5 16.60156-3.7 6.1-9.1996 8.59961-16.5996 8.59961h-33.2988v24h162.5996v-23.40039h-24c-8.7 0-16.6996 1.20077-21.5996-6.19922-4.3-4.89999-4.3008-10.40118-4.3008-17.20117v-134.90039c0-48.09995 42.5004-104.09921 86.9004-91.19922 28.3 8.59999 43.0996 33.80081 43.0996 62.80078v161.59961c0 7.39999 1.1992 14.19961-4.3008 19.09961-4.3 4.9-9.7992 5.5-17.1992 5.5h-29v24h160.1992v-22.80078h-26.5c-6.7 0-12.2992 0.00117-17.1992-4.29883-6.8-6.19999-6.1992-13.60118-6.1992-22.20117v-130c0-51.19995 43.6996-110.8992 96.0996-91.19922 27.7 10.39999 33.9004 40.59925 33.9004 70.19922v154.70117c0 6.69999 0.5988 11.69961-3.7012 16.59961-4.3 6.09999-11.1004 4.90039-17.9004 4.90039h-28.2988v23.90039h162.5996v-22.80078h-28.3008c-8 0-15.3988 0.69999-20.2988-5.5-3.7-4.3-3.7012-8.69922-3.7012-14.19922v-163.20117c0-53.59995-36.2989-104.69883-89.2988-105.29883-37.6-0.6-68.3996 13.49885-88.0996 38.79883l-20.9004 26.5c-10.4-36.29996-35.1008-61.60001-70.8008-66.5-4.85-0.6125-9.6135-0.96504-14.2891-1.05273zm-1017.7109 7.85351v22.79883h19.0996c8 0 15.4016 0.6004 21.6016 7.40039 8.7 8.59999 3.1 29.60039 2.5 31.40039l-67.1016 163.90039-74.5-177.40039c-2.5-6.19999-3.0984-12.30001 0.6016-18.5 5-6.69999 12.9996-5.5 21.5996-5.5h19.0996v-24h-152.0996v22.80078h18.5c6.2 0 9.9004 1.8 15.4004 5.5 5.6 4.3 8 8.59845 10.5 15.39844l109.5996 255-10.5 20.90039c-0.9568 1.91361-2.6579 5.27884-4.0059 8h-2416.8945v25.99999h2279.8789c-6.4836 4.5457-11.2674 11.1821-13.0781 19.5996-8 38.1 18.5 54.2012 37 59.7012 52.1855 14.9341 96.0983-16.996 131.1035-79.3008h1405.0957v-25.99999h-1391.7715c1.983-4.25337 3.955-8.54094 5.8711-13l109-251.29883c5-11.69999 6.8004-19.10079 17.9004-28.30078 4.3-3.7 19.0996-11.69922 24.5996-11.69922h9.7012v-23.40039h-128.7012zm-1013.2226 16.1875c2.9916 0.06458 6.0664 0.39297 9.2226 1.01172 35.1 6.79999 57.3008 38.20004 57.3008 77v13.5c0 6.09999-0.0012 11.7-3.7012 16-4.3 5.59999-9.7996 6.20117-16.5996 6.20117h-122l1.8008-18.5c2.9062-37.49996 29.1026-96.18152 73.9766-95.21289zm1694.5996 0c2.9916 0.06458 6.0664 0.39297 9.2226 1.01172 35.1 6.79999 57.3008 38.20004 57.3008 77v13.5c0 6.09999 8e-4 11.7-3.6992 16-4.3 5.59999-9.8016 6.20117-16.6016 6.20117h-122l1.8008-18.5c2.9062-37.49996 29.1026-96.18152 73.9766-95.21289zm-2378.27738 126.11133v57.20117c0 41.89996-34.49887 73.89962-73.29883 80.09961-48.09995 7.99999-70.90039-20.90043-68.40039-55.40039 3.1-38.79996 43.09964-61.60001 77.59961-69l64.09961-12.90039zm1536.68558 211.40038h76.3164c-9.761 16.0472-22.7257 33.6582-39.1016 46.0996-10.5 8-25.8988 11.1016-30.7988 3.1016-3.1-6.8 7.9984-15.4012 4.8984-30.2012-1.7928-8.6732-5.8032-14.8362-11.3144-19z"/>
</svg>
