<svg enable-background="new 0 0 3840 832.7" version="1.1" viewBox="0 0 3840 832.7" xml:space="preserve" xmlns="http://www.w3.org/2000/svg">
<path fill="#E4202F" d="m3726.5996 0c-61.9999 1.8947787e-14 -113.4004 48.700457-113.4004 114.90039 0 60.79994 45.2013 114.59961 115.2012 114.59961h0.2988c58.4 0 111.3008-47.30085 111.3008-114.30078 0-66.799934-51.4005-115.19922-113.4004-115.19922zm-1325.5195 2.390625c-31.9547-0.5719233-64.0996 14.841433-82.3809 41.410156-14.1 18.799981-16.9988 42.899631-24.2988 64.599609-69.9999 241.39976-140.3009 482.69946-209.8008 724.19922h128.7012c19.9-69.49993 40.4984-138.90046 60.3984-208.40039 83.3999-0.2 166.7017-0.09961 250.1016-0.09961 20.3 69.49993 40.1988 139.00007 60.2988 208.5 43.2-0.2 86.5012 0.10078 129.7012-0.19922-73.0999-251.59975-146.5017-503.10142-219.6016-754.701171-9.3-33.999966-36.0992-64.198836-71.1992-72.2988284-7.1812-1.8937481-14.5458-2.8777833-21.9199-3.0097656zm-915.9766 0.2050781c-28.9632 0.2434568-57.991 12.6297109-76.1035 35.8046879-18.2 20.499979-21.2996 48.599634-29.5996 73.599609-69.8999 240.09976-139.5001 480.30024-209 720.5 42.9999 0.1 86.0004-3.9e-4 128.9004 0.09961 20.1-69.59993 40.2992-139.09968 60.6992-208.59961 83.4999 0.1 167.0001-0.10039 250.5 0.09961 20.1 69.39993 40.0004 139.00046 60.4004 208.40039 43.1999-0.1 86.3996 0 129.5996 0-73.0999-251.79975-146.6009-503.39947-219.8008-755.199219-5.8-20.19998-17.0988-39.001576-33.2988-52.601562-17.2812-15.1374851-39.7699-22.2928712-62.2969-22.1035159zm-1053.70311 1.5039063c-20.89998 0.0999999-41.9008-3.905e-4 -62.80078 0.0996094-0.1 24.3999752 0.10039 48.8008062-0.09961 73.3007812-1.6 72.09993-6.1004 144.29968-16.90039 215.59961-8.59999 56.09994-21.30041 112.10005-44.90039 164-20.09998 45.09995-46.49925 87.60082-79.69922 124.30078-32.09997 35.49997-70.29926 65.69963-112.69922 88.09961-35.699963 18.79998-74.201211 33.00001-114.2011706 39v123.80078c33.19996662-4.59999 65.89964062-13.10001 97.59960962-24 56.099941-19.29998 109.401611-48.00082 154.101561-87.30078 49.99995-42.49996 94.39925-92.90006 122.69922-152.5 17.29998-36.99996 31.30001-75.90082 38-116.30078 9.79999-58.49994 13.50078-117.89928 16.30078-177.19922 1.6-40.99996 2.79961-82.09926 2.59961-123.19922 0-49.29995 0.1-98.50122 0-147.7011706zm1272.29881 0v126.4003906c57.5 0 115.0001-0.1 172.5 0v702h123.6016v-702c57.4999-0.1 115 0 172.5 0v-126.4003906h-468.6016zm1184.4004 0c-12.5-0.2999997-25.1996 1.101176-37.0996 5.2011718-40.3 12.8999868-70.5 52.8996518-71 95.5996088 0.2 242.59976-4e-4 485.19907 0.0996 727.79883 41.5 0 83.0001-0.1 124.5 0 0.2-225.29978-0.1004-450.69984 0.0996-676.09961-0.2-14.59999 13.4008-27.09883 27.8008-26.79883 31.9-0.2 63.7993 0.09844 95.6992-0.10156 46.1-1.5 89.8012 33.80161 99.7012 78.60156 8.5 34.49997 9.4992 73.50003-9.3008 105-24.6 41.99996-68.5 68.59963-113 85.59961-23.3 8.99999-44.3 26.50002-53 50.5-11.2 31.19997-6.1004 67.39886 12.5996 94.79883 63.7 96.0999 126.9009 192.60166 190.8008 288.60156 48.9-0.2 97.7-0.00156 146.5-0.10156-66.7999-99.9999-134.6997-199.39893-200.0996-300.29883-6.9-13.99999-6.2004-33.70079 7.0996-43.80078 24.3-17.89998 52.4-30.19885 75-50.29883 42.8-36.89996 66.2-92.60084 70.5-148.30078 6.3-53.19995 3.8004-109.59966-21.0996-158.09961-35.9-74.699925-115.1001-126.2011727-198-127.7011712-49.3-0.1-98.5008 0.1003904-147.8008-0.0996094zm479.8008 0v828.5000006c43.5999 0 87.3004-0.1 130.9004 0 0.2-276.19972 0.0996-552.30028 0.0996-828.5000006h-131zm-2795.59962 0.0996094c-38.49996 0.0999998-77.1016-0.0984374-115.60156 0.1015624 0.1 187.9998088 0 376.0997988 0 564.0996088 0.1 87.99991-0.29883 176.0997 0.20117 264.09961 38.49996-0.3 77.00043 3.9e-4 115.40039-0.09961v-828.2011712zm25.69922 0c0 45.1999552-3.9e-4 90.5008262 0.09961 135.8007812-0.6 79.99992 2.2004 159.9993 9.40039 239.69922 3.7 36.89996 7.80001 73.90082 17.5 109.80078 10.49999 35.59996 24.00041 70.60003 42.40039 103 23.49998 41.59996 54.90043 78.29964 89.90039 110.59961 21.19998 19.49998 43.39924 38.20041 67.69922 53.90039 33.29997 21.69998 69.59965 38.59962 107.09961 51.59961 31.49997 10.69999 63.90042 19.20118 96.90039 23.70117v-123.80078c-16.8-2.5-33.30002-6.49922-49.5-11.69922-57.89994-18.59998-111.19926-50.80082-155.19922-92.80078-46.09995-43.79996-81.50002-98.30084-106-156.80078-25.89997-60.49994-37.50118-125.8985-45.70117-190.89844-9.99999-83.59992-12.89922-167.901645-12.19922-252.1015612-20.79998-0.0999999-41.60041 0-62.40039 0zm3128.9004 39.8007812c36 0 74.4004 26.000826 74.4004 70.30078 0 42.59996-34.8012 71.19922-74.7012 71.19922h-0.2988c-38.4 0-74.4004-27.20043-74.4004-70.90039 0-44.599956 38.4-70.59961 75-70.59961zm-1328.0996 148.19922c30 104.59989 60.4996 209.10088 90.5996 313.80078-60.3999 0-120.9009 0.1-181.3008 0 30.1-104.6999 60.6012-209.20089 90.7012-313.80078zm-913.6016 0.5c30.4 104.39989 60.6004 208.80088 90.9004 313.30078-60.5999 0-121.3001 0.20039-182-0.09961 30.5-104.39989 60.4996-208.90128 91.0996-313.20117zm2241.4004 58.60156c-61.9999 0-113.4004 48.6985-113.4004 114.89844 0 60.79994 45.2013 114.60156 115.2012 114.60156h0.2988c58.4 0 111.3008-47.30085 111.3008-114.30078 0-66.69993-51.4005-115.19922-113.4004-115.19922zm0.3008 44c36 0 74.4004 25.99887 74.4004 70.29883 0 42.59996-34.8012 71.20117-74.7012 71.20117h-0.2988c-38.4 0-74.4004-27.20043-74.4004-70.90039 0-44.59995 38.4-70.59961 75-70.59961zm31.9004 203c-48.1 0-73.8008 35.99847-73.8008 69.39844 0 6.79999 1.9992 15.00039 3.1992 17.40039-4.7-3.3-8.8988-6.5-13.2988-9.5l-57.5996-41h-0.1016v50.80078l83.9004 57.29883c16 10.29999 34.5996 19.80078 57.5996 19.80078 16.6 0 37.8004-5.00079 52.9004-18.30078 18.1-13.89999 28.4004-37.49847 28.4004-64.39844 0-44.89995-33.9993-81.5-81.1992-81.5zm3.7988 43.89844c21.9 0 38.7012 17.10002 38.7012 39 0 20.09998-15.4012 37.80078-38.7012 37.80078h-0.2988c-23.9 0-38.7012-18.59963-38.7012-38.09961 0-22.19998 17.1-38.70117 39-38.70117zm35.9004 140.90039v88.30078c-16.8-17.49998-33.4004-34.90002-49.9004-52-24.5-25.69997-42.5004-34.90117-67.9004-35.20117-35.9999 0-67.5996 26.00083-67.5996 71.80078 0 15.59998 4.7012 43.99963 29.2012 61.09961 16.2 12.19999 34.2996 14.80039 51.0996 15.40039v-42.19922c-22.4-0.3-41.5996-9.10041-41.5996-30.40039 0-17.99998 11.1988-31.59961 32.7988-31.59961 25.1 0.3 40.2004 17.69963 59.4004 39.59961 19.2 21.29998 38.1008 42.49885 57.3008 63.79883h34.3984v-148.59961h-37.1992z"/>
</svg>
