<?xml version="1.0" encoding="utf-8"?>
<!-- Generator: Adobe Illustrator 25.1.0, SVG Export Plug-In . SVG Version: 6.00 Build 0)  -->
<svg version="1.1" id="Layer_1" xmlns="http://www.w3.org/2000/svg" xmlns:xlink="http://www.w3.org/1999/xlink" x="0px" y="0px"
	 viewBox="0 0 3840 832.7" style="enable-background:new 0 0 3840 832.7;" xml:space="preserve">
<style type="text/css">
	.st0{fill:#E4202F;}
	.st1{fill:url(#SVGID_1_);}
	.st2{fill:#FFFFFF;}
</style>
<g>
	<g>
		<g>
			<g>
				<path d="M368.6,4.2c20.9-0.1,41.9,0,62.8-0.1c0.1,49.2,0,98.4,0,147.7c0.2,41.1-1,82.2-2.6,123.2
					c-2.8,59.3-6.5,118.7-16.3,177.2c-6.7,40.4-20.7,79.3-38,116.3c-28.3,59.6-72.7,110-122.7,152.5c-44.7,39.3-98,68-154.1,87.3
					c-31.7,10.9-64.4,19.4-97.6,24c0-41.3,0-82.6,0-123.8c40-6,78.5-20.2,114.2-39c42.4-22.4,80.6-52.6,112.7-88.1
					c33.2-36.7,59.6-79.2,79.7-124.3c23.6-51.9,36.3-107.9,44.9-164c10.8-71.3,15.3-143.5,16.9-215.6C368.7,53,368.5,28.6,368.6,4.2
					z"/>
				<path d="M456.7,4.3c38.5-0.2,77.1,0,115.6-0.1c0,276.1,0,552.1,0,828.2c-38.4,0.1-76.9-0.2-115.4,0.1
					c-0.5-88-0.1-176.1-0.2-264.1C456.7,380.4,456.8,192.3,456.7,4.3z"/>
				<path d="M598,4.2c20.8,0,41.6-0.1,62.4,0c-0.7,84.2,2.2,168.5,12.2,252.1c8.2,65,19.8,130.4,45.7,190.9
					c24.5,58.5,59.9,113,106,156.8c44,42,97.3,74.2,155.2,92.8c16.2,5.2,32.7,9.2,49.5,11.7c0,41.3,0,82.5,0,123.8
					c-33-4.5-65.4-13-96.9-23.7c-37.5-13-73.8-29.9-107.1-51.6c-24.3-15.7-46.5-34.4-67.7-53.9c-35-32.3-66.4-69-89.9-110.6
					c-18.4-32.4-31.9-67.4-42.4-103c-9.7-35.9-13.8-72.9-17.5-109.8c-7.2-79.7-10-159.7-9.4-239.7C598,94.7,598,49.4,598,4.2z"/>
			</g>
			<path d="M1409,38.4c32.2-41.2,98.9-48.3,138.4-13.7c16.2,13.6,27.5,32.4,33.3,52.6c73.2,251.8,146.7,503.4,219.8,755.2
				c-43.2,0-86.4-0.1-129.6,0c-20.4-69.4-40.3-139-60.4-208.4c-83.5-0.2-167,0-250.5-0.1c-20.4,69.5-40.6,139-60.7,208.6
				c-42.9-0.1-85.9,0-128.9-0.1c69.5-240.2,139.1-480.4,209-720.5C1387.7,87,1390.8,58.9,1409,38.4 M1485.2,192.7
				c-30.6,104.3-60.6,208.8-91.1,313.2c60.7,0.3,121.4,0.1,182,0.1C1545.8,401.5,1515.6,297.1,1485.2,192.7z"/>
			<path d="M2318.7,43.8c22.5-32.7,66-48.5,104.3-38.4c35.1,8.1,61.9,38.3,71.2,72.3c73.1,251.6,146.5,503.1,219.6,754.7
				c-43.2,0.3-86.5,0-129.7,0.2c-20.1-69.5-40-139-60.3-208.5c-83.4,0-166.7-0.1-250.1,0.1c-19.9,69.5-40.5,138.9-60.4,208.4
				c-42.9,0-85.8,0-128.7,0c69.5-241.5,139.8-482.8,209.8-724.2C2301.7,86.7,2304.6,62.6,2318.7,43.8 M2308.1,506
				c60.4,0.1,120.9,0,181.3,0c-30.1-104.7-60.6-209.2-90.6-313.8C2368.7,296.8,2338.2,401.3,2308.1,506z"/>
			<path d="M1703.7,4.1c156.2,0,312.4,0,468.6,0c0,42.2,0,84.3,0,126.4c-57.5,0-115-0.1-172.5,0c0,234,0,468,0,702
				c-41.2,0-82.4,0-123.6,0c0-234,0-468,0-702c-57.5-0.1-115,0-172.5,0C1703.7,88.4,1703.7,46.3,1703.7,4.1z"/>
			<path d="M2851,9.3c11.9-4.1,24.6-5.5,37.1-5.2c49.3,0.2,98.5,0,147.8,0.1c82.9,1.5,162.1,53,198,127.7
				c24.9,48.5,27.4,104.9,21.1,158.1c-4.3,55.7-27.7,111.4-70.5,148.3c-22.6,20.1-50.7,32.4-75,50.3c-13.3,10.1-14,29.8-7.1,43.8
				c65.4,100.9,133.3,200.3,200.1,300.3c-48.8,0.1-97.6-0.1-146.5,0.1c-63.9-96-127.1-192.5-190.8-288.6
				c-18.7-27.4-23.8-63.6-12.6-94.8c8.7-24,29.7-41.5,53-50.5c44.5-17,88.4-43.6,113-85.6c18.8-31.5,17.8-70.5,9.3-105
				c-9.9-44.8-53.6-80.1-99.7-78.6c-31.9,0.2-63.8-0.1-95.7,0.1c-14.4-0.3-28,12.2-27.8,26.8c-0.2,225.4,0.1,450.8-0.1,676.1
				c-41.5-0.1-83,0-124.5,0c-0.1-242.6,0.1-485.2-0.1-727.8C2780.5,62.2,2810.7,22.2,2851,9.3z"/>
			<path d="M3367.9,4.1c43.7,0,87.3,0,131,0c0,276.2,0.1,552.3-0.1,828.5c-43.6-0.1-87.3,0-130.9,0
				C3367.9,556.4,3367.9,280.3,3367.9,4.1z"/>
		</g>
	</g>
	<g>
		<path d="M3801.3,831.7c-19.2-21.3-38.1-42.5-57.3-63.8c-19.2-21.9-34.3-39.3-59.4-39.6c-21.6,0-32.8,13.6-32.8,31.6
			c0,21.3,19.2,30.1,41.6,30.4v42.2c-16.8-0.6-34.9-3.2-51.1-15.4c-24.5-17.1-29.2-45.5-29.2-61.1c0-45.8,31.6-71.8,67.6-71.8
			c25.4,0.3,43.4,9.5,67.9,35.2c16.5,17.1,33.1,34.5,49.9,52v-88.3h37.2v148.6L3801.3,831.7L3801.3,831.7z"/>
		<path d="M3617.3,534.6l57.6,41c4.4,3,8.6,6.2,13.3,9.5c-1.2-2.4-3.2-10.6-3.2-17.4c0-33.4,25.7-69.4,73.8-69.4
			c47.2,0,81.2,36.6,81.2,81.5c0,26.9-10.3,50.5-28.4,64.4c-15.1,13.3-36.3,18.3-52.9,18.3c-23,0-41.6-9.5-57.6-19.8l-83.9-57.3
			V534.6z M3762.6,619c23.3,0,38.7-17.7,38.7-37.8c0-21.9-16.8-39-38.7-39c-21.9,0-39,16.5-39,38.7c0,19.5,14.8,38.1,38.7,38.1
			H3762.6z"/>
		<path d="M3728.4,480.8c-70,0-115.2-53.8-115.2-114.6c0-66.2,51.4-114.9,113.4-114.9S3840,299.8,3840,366.5
			c0,67-52.9,114.3-111.3,114.3L3728.4,480.8L3728.4,480.8z M3726.6,436.8c39.9,0,74.7-28.6,74.7-71.2c0-44.3-38.4-70.3-74.4-70.3
			c-36.6,0-75,26-75,70.6c0,43.7,36,70.9,74.4,70.9H3726.6z"/>
		<path d="M3728.4,229.5c-70,0-115.2-53.8-115.2-114.6c0-66.2,51.4-114.9,113.4-114.9S3840,48.4,3840,115.2
			c0,67-52.9,114.3-111.3,114.3L3728.4,229.5L3728.4,229.5z M3726.6,185.5c39.9,0,74.7-28.6,74.7-71.2c0-44.3-38.4-70.3-74.4-70.3
			c-36.6,0-75,26-75,70.6c0,43.7,36,70.9,74.4,70.9H3726.6z"/>
	</g>
</g>
</svg>
