<svg width="680" height="160" preserveAspectRatio="xMidYMid" version="1.0" viewBox="0 0 6800 1600" xmlns="http://www.w3.org/2000/svg"><path d="m6400 0v200h-200v200h200v200h200v-200h200v-200h-200v-200h-100zm-6200 600v200h-200v800h400v-400h600v-600h-400zm1e3 0v200h200v600h-200v200h800v-200h-200v-600h200v-200h-400zm1200 0v200h-200v800h800v-200h-400v-600h400v-200h-300zm1e3 0v200h-200v800h800v-200h200v-800h-400zm1800 0v400h-200v600h1e3v-1e3h-400zm-4800 200h200v200h-200v-100zm3200 0h200v600h-200v-300zm1800 0h400v200h-400v-100zm-1e3 200v200h400v-200h-200zm1e3 200h400v200h-400v-100z"/></svg>
