<?xml version="1.0" encoding="UTF-8" standalone="no"?>
<svg
   xmlns:dc="http://purl.org/dc/elements/1.1/"
   xmlns:cc="http://creativecommons.org/ns#"
   xmlns:rdf="http://www.w3.org/1999/02/22-rdf-syntax-ns#"
   xmlns:svg="http://www.w3.org/2000/svg"
   xmlns="http://www.w3.org/2000/svg"
   xmlns:sodipodi="http://sodipodi.sourceforge.net/DTD/sodipodi-0.dtd"
   xmlns:inkscape="http://www.inkscape.org/namespaces/inkscape"
   version="1.0"
   width="745.1875"
   height="225.1875"
   viewBox="0 0 7451.875 2251.875"
   preserveAspectRatio="xMidYMid meet"
   id="svg44"
   sodipodi:docname="pico8.svg"
   inkscape:version="0.92.4 (5da689c313, 2019-01-14)">
  <metadata
     id="metadata50">
    <rdf:RDF>
      <cc:Work
         rdf:about="">
        <dc:format>image/svg+xml</dc:format>
        <dc:type
           rdf:resource="http://purl.org/dc/dcmitype/StillImage" />
        <dc:title></dc:title>
      </cc:Work>
    </rdf:RDF>
  </metadata>
  <defs
     id="defs48" />
  <sodipodi:namedview
     pagecolor="#ffffff"
     objecttolerance="10"
     gridtolerance="10"
     guidetolerance="10"
     inkscape:pageopacity="0"
     inkscape:pageshadow="2"
     inkscape:window-width="640"
     inkscape:window-height="480"
     id="namedview46"
     showgrid="false"
     fit-margin-top="10"
     fit-margin-left="10"
     fit-margin-right="10"
     fit-margin-bottom="10"
     inkscape:zoom="1.2310345"
     inkscape:cx="227.63125"
     inkscape:cy="112.63125"
     inkscape:current-layer="svg44" />
  <g
     id="layer110"
     transform="matrix(2.5,0,0,2.5,101.875,100)"
     style="fill:#fff;stroke:none">
    <path
       d="M 50,610 V 450 h 40 40 V 410 370 H 290 450 V 490 610 H 330 210 v 80 80 H 130 50 Z M 290,490 v -40 h -40 -40 v 40 40 h 40 40 z"
       id="path29"
       inkscape:connector-curvature="0" />
    <path
       d="m 530,730 v -40 h 40 40 V 570 450 h -40 -40 v -40 -40 h 160 160 v 40 40 h -40 -40 v 120 120 h 40 40 v 40 40 H 690 530 Z"
       id="path31"
       inkscape:connector-curvature="0" />
    <path
       d="M 930,610 V 450 h 40 40 v -40 -40 h 120 120 v 40 40 h -80 -80 v 120 120 h 80 80 v 40 40 H 1090 930 Z"
       id="path33"
       inkscape:connector-curvature="0" />
    <path
       d="M 1330,610 V 450 h 40 40 v -40 -40 h 160 160 v 160 160 h -40 -40 v 40 40 h -160 -160 z m 240,-40 V 450 h -40 -40 v 120 120 h 40 40 z"
       id="path35"
       inkscape:connector-curvature="0" />
    <path
       d="M 2050,650 V 530 h 40 40 v -80 -80 h 160 160 v 200 200 h -200 -200 z m 320,0 v -40 h -80 -80 v 40 40 h 80 80 z m 0,-160 v -40 h -80 -80 v 40 40 h 80 80 z"
       id="path37"
       inkscape:connector-curvature="0" />
    <path
       d="m 1810,570 v -40 h 80 80 v 40 40 h -80 -80 z"
       id="path39"
       inkscape:connector-curvature="0" />
    <path
       d="m 2610,330 v -40 h -40 -40 v -40 -40 h 40 40 v -40 -40 h 40 40 v 40 40 h 40 40 v 40 40 h -40 -40 v 40 40 h -40 -40 z"
       id="path41"
       inkscape:connector-curvature="0" />
  </g>
</svg>
