<svg version="1.1" viewBox="0 0 286 82" xmlns="http://www.w3.org/2000/svg"><path d="m242 74v-42h-34v16h-8v26zm-80 0v-8h8v-34h-34v8h-8v34zm-40 0v-10h-16v-22h16v-10h-26v8h-8v34zm-40 0v-10h-8v-22h8v-10h-34v10h8v22h-8v10zm-64 0v-16h24v-26h-34v8h-8v34zm223-1v-40h-32v16h-8v24zm-80 0v-8h8v-32h-32v8h-8v32zm-40 0v-8h-16v-24h16v-8h-24v8h-8v32zm-40 0v-8h-8v-24h8v-8h-32v8h8v24h-8v8zm-64 0v-16h24v-24h-32v8h-8v32zm216-8v-8h-16v8zm-80 0v-24h-8v24zm79-1v-6h-14v6zm-80 0v-22h-6v22zm42-6v-10h-18v10zm-1-1v-8h-16v8zm40-8v-8h-16v8zm-208 0v-8h-8v8zm207-1v-6h-14v6zm-208 0v-6h-6v6zm242-6v-8h8v-8h8v-10h-8v-8h-8v-8h-10v8h-8v8h-8v10h8v8h8v8zm-1-1v-8h8v-8h8v-8h-8v-8h-8v-8h-8v8h-8v8h-8v8h8v8h8v8z" fill-rule="evenodd"/><path d="m265 9v-8h-8v8z" fill="#ff004d" fill-rule="evenodd"/><path d="m250 82v-42h-8v34h-34v8zm-80 0v-8h8v-16h-2v-10h2v-8h-8v26h-8v8h-26v8zm-40 0v-8h-2v-2h-6v2h-26v8zm-40 0v-8h-2v-2h-6v2h-26v8zm-64 0v-16h22v-2h2v-22h-2v-2h-6v18h-24v16h-10v8zm174-16v-10h-6v2h-10v8zm32-2v-6h-14v6zm-80 0v-22h-6v22zm-38 0v-14h14v-10h-6v2h-16v22zm-32 0v-14h6v-10h-6v2h-8v22zm150-16v-6h-14v6zm-208 0v-6h-6v6zm246-2v-8h8v-8h8v-10h-4v6h-8v8h-8v8h-6v4zm-14-8v-4h-4v4zm-8-8v-4h-4v4zm30-14v-4h-4v4zm-8-8v-4h-4v4z" fill="#1d2b53" fill-rule="evenodd"/><path d="m257 17v-8h-8v8z" fill="#ffa300" fill-rule="evenodd"/><path d="m241 73v-40h-32v16h-8v24zm-80 0v-8h8v-32h-32v8h-8v32zm-40 0v-8h-16v-24h16v-8h-24v8h-8v32zm-40 0v-8h-8v-24h8v-8h-32v8h8v24h-8v8zm-64 0v-16h24v-24h-32v8h-8v32zm216-8v-8h-16v8zm-80 0v-24h-8v24zm40-8v-8h-16v8zm40-8v-8h-16v8zm-208 0v-8h-8v8zm240-16v-8h8v-8h-8v-8h-8v8h-8v8h8v8z" fill="#fff1e8" fill-rule="evenodd"/><path d="m273 17v-8h-8v8z" fill="#fca" fill-rule="evenodd"/><path d="m249 25v-8h-8v8z" fill="#ffec27" fill-rule="evenodd"/><path d="m281 25v-8h-8v8z" fill="#ff77a8" fill-rule="evenodd"/><path d="m257 33v-8h-8v8z" fill="#00e436" fill-rule="evenodd"/><path d="m273 33v-8h-8v8z" fill="#83769c" fill-rule="evenodd"/><path d="m265 41v-8h-8v8z" fill="#29adff" fill-rule="evenodd"/></svg>
