<?xml version="1.0" encoding="utf-8"?>
<!-- Generator: Adobe Illustrator 26.0.3, SVG Export Plug-In . SVG Version: 6.00 Build 0)  -->
<svg version="1.1" id="Layer_1" xmlns="http://www.w3.org/2000/svg" xmlns:xlink="http://www.w3.org/1999/xlink" x="0px" y="0px"
	 viewBox="0 0 3839 1080.5" style="enable-background:new 0 0 3839 1080.5;" xml:space="preserve">
<style type="text/css">
	.st0{fill-rule:evenodd;clip-rule:evenodd;fill:#FFFFFF;}
	.st1{fill:#FFFFFF;}
	.st2{fill-rule:evenodd;clip-rule:evenodd;}
</style>
<g>
	<g>
		<path class="st2" d="M2999.3,864.6c-1.6-0.6-3.9-1.3-7.1-2h-0.1c-5.4-1.2-10.8-1.2-16.1,0h-0.1c-3.1,0.7-5.5,1.3-7.1,2
			c-2.6,1.1-4.2,2.5-5.2,4.2c-0.9,1.7-1.3,3.7-1.3,6v100.8c0,2.5,0.4,4.7,1.3,6.3c0.9,1.6,2.6,2.9,5.1,3.9c1.3,0.5,3.7,0.9,7.3,1.2
			h0.1c5.2,0.4,10.4,0.4,15.7,0h0.1c3.5-0.3,6-0.7,7.3-1.2c2.4-1,4.1-2.3,5.1-3.9c0.9-1.6,1.3-3.7,1.3-6.3h0.2V874.8
			c0-2.2-0.4-4.2-1.3-6C3003.6,867.1,3001.9,865.7,2999.3,864.6z"/>
		<polygon class="st2" points="1132.7,939.4 1164.6,939.4 1148.7,898.9 		"/>
		<path class="st2" d="M3078.2,864.6c-1.6-0.6-3.9-1.3-7.1-2h-0.1c-5.4-1.2-10.8-1.2-16.1,0h-0.1c-3.1,0.7-5.5,1.3-7.1,2
			c-2.6,1.1-4.2,2.5-5.2,4.2c-0.9,1.7-1.3,3.7-1.3,6v100.8c0,2.5,0.4,4.7,1.3,6.3c0.9,1.6,2.6,2.9,5.1,3.9c1.3,0.5,3.7,0.9,7.3,1.2
			h0.1c5.2,0.4,10.4,0.4,15.7,0h0.1c3.5-0.3,6-0.7,7.3-1.2c2.4-1,4.1-2.3,5.1-3.9c0.9-1.6,1.3-3.7,1.3-6.3h0.2V874.8
			c0-2.2-0.4-4.2-1.3-6C3082.5,867.1,3080.7,865.7,3078.2,864.6z"/>
		<path class="st2" d="M755.1,886.4h-18.5V924h18.7c14.1,0,22.5-7.3,22.5-18.5v-0.4C777.9,892.9,769.4,886.4,755.1,886.4z"/>
		<path class="st2" d="M3391.3,768.3H447.6c-86.2,0-156.1,69.9-156.1,156.1c0,86.2,69.9,156.1,156.1,156.1h2943.8
			c86.2,0,156.1-69.9,156.1-156.1C3547.5,838.1,3477.6,768.3,3391.3,768.3z M817.3,903.7c0,33.5-25.8,51.2-61.2,51.2h-19.5v40.6
			h-39.4V853.3h0.1h61c35.9,0,59,18.5,59,49.9V903.7z M1003.1,995.4H895V853.3h39.3v107.6h68.9V995.4z M1186.4,995.5l-10.3-25.4
			h-54.8l-10.1,25.4h-41.5l60.4-143.2h38l60.6,143.2H1186.4z M1361.7,941.7v53.8H1322v-53.2l-54-89h44.9l29.2,51.8l29.4-51.8h44.1
			L1361.7,941.7z M1719.1,951.6c0,29-23,46.3-57.4,46.3c-25.1,0-49-7.9-66.5-23.6l21.9-26.2c14.1,11.1,29.6,17.1,46.1,17.1
			c10.5,0,16.3-3.6,16.3-9.7v-0.4c0-5.9-4.7-9.1-24-13.6c-30.2-6.9-53.6-15.5-53.6-44.7v-0.4c0-26.4,20.9-45.5,55-45.5
			c24.2,0,43.1,6.5,58.4,18.9l-19.7,27.8c-13-9.1-27.2-14.1-39.8-14.1c-9.5,0-14.3,4-14.3,9.1v0.4c0,6.5,4.9,9.3,24.6,13.9
			c32.7,7.1,53,17.7,53,44.3V951.6z M1873.8,941.7v53.8h-39.6v-53.2l-54-89h44.9l29.2,51.8l29.4-51.8h44.1L1873.8,941.7z
			 M2107.1,951.6c0,29-23,46.3-57.4,46.3c-25.1,0-49-7.9-66.5-23.6l21.9-26.2c14.1,11.1,29.6,17.1,46.1,17.1
			c10.5,0,16.3-3.6,16.3-9.7v-0.4c0-5.9-4.7-9.1-24-13.6c-30.2-6.9-53.6-15.5-53.6-44.7v-0.4c0-26.4,20.9-45.5,55-45.5
			c24.2,0,43.1,6.5,58.4,18.9l-19.7,27.8c-13-9.1-27.2-14.1-39.8-14.1c-9.5,0-14.3,4-14.3,9.1v0.4c0,6.5,4.9,9.3,24.6,13.9
			c32.7,7.1,53,17.7,53,44.3V951.6z M2299.9,887.8h-42.6v107.6h-39.4V887.8h-42.7v-34.5h124.7V887.8z M2493.4,995.4H2378V853.3h0.1
			h114.4v33.5h-75.4v21.5h68.2v31h-68.2v22.5h76.3V995.4z M2725.5,995.5h-39.2v-81.7l-36.4,55.6h-0.8l-36.1-55.2v81.2h-38.6V853.3
			h0.1h41.7l33.9,55l33.9-55h41.7V995.5z M3141.6,995.4h-39.4h-39.4h-39.4h-39.4h-39.4H2905v-7.8c1.8-0.1,4.4-0.3,8-0.6
			c3.5-0.3,6-0.7,7.3-1.2c2.4-1,4.1-2.3,5.1-3.9c0.9-1.6,1.3-3.7,1.3-6.3V874.7c0-2.2-0.4-4.2-1.3-6c-0.9-1.8-2.6-3.1-5.2-4.2
			c-1.6-0.6-3.9-1.3-7.1-2s-5.9-1.1-8.1-1.4v-7.8h39.4h39.4h39.4h39.4h39.4h39.4v7.8c-2.2,0.2-5,0.7-8.1,1.4c-3.1,0.7-5.5,1.3-7.1,2
			c-2.6,1.1-4.2,2.5-5.2,4.2c-0.8,1.8-1.3,3.7-1.3,6v100.8c0,2.5,0.4,4.7,1.3,6.3c0.9,1.6,2.6,2.9,5.1,3.9c1.3,0.5,3.7,0.9,7.3,1.2
			c3.5,0.3,6.2,0.5,8,0.6V995.4z"/>
	</g>
	<g>
		<path d="M1507.3,167.6v238.9c0,0,160.9-67,160.9-161.6C1668.2,128,1507.3,167.6,1507.3,167.6z"/>
		<polygon points="887.6,363.5 1000.5,363.5 942.4,200.2 		"/>
		<path d="M2751.9,155.6c-70.2,0-164.4,41.3-164.4,206.3c0,165,83.9,206.3,164.4,206.3c80.4,0,166.1-51.6,166.1-206.3
			C2918,207.1,2822.2,155.6,2751.9,155.6z"/>
		<path d="M3816.7,533.7c-8.1-7.3-11.5-17.2-13.4-26.7l-45.7-292.2c-4.1-26.4,5.2-37.8,28.3-49l0-147.8h-327l-24.9,85.1L3400.7,18
			H3084v156.5C3023.2,68.4,2905.6,0,2764.8,0c-114.5,0-239.8,43.3-317.5,136.6C2391.5,51.8,2294,0.8,2156.1,0.8
			c-134,0-227.9,60.8-296.2,153C1810.5,64.5,1766.7,18,1596.3,18c-111.4,0-328.7,0-328.7,0v151.3c0,0,15.6,4.4,24.8,15
			c5.6,6.4,6.8,16.3,6.8,25.3c0,8.9-0.8,329.3-0.8,329.3c-13.7-6.9-27.4-32.7-27.4-32.7L1082.7,18H848.2L643.1,561.2V439.8H497.2
			c0,0-17.1,52.7-82.1,52.7c-70.2,0-133.6-58.4-137.6-161.5c-3.4-89.4,75.3-134.9,103.4-113.5c36,27.5-3.4,65.3-3.4,65.3l119.8,82.5
			l181.5-192.5c0,0-87.3-170.2-308.2-170.2C139.4,2.5,0,167.6,0,361.9c0,194.2,178.8,347.2,401.4,347.2c188.3,0,1201.8,0,1201.8,0
			V564.3c0,0-38.6-6.5-38.6-24.5c0-9.9,4.6-13.4,13.7-15.5c117.2-26.4,215-96.5,237.1-117.7c46.8,195.3,214.2,302.5,409.2,302.5
			c205.5,0,219.2,0,219.2,0V588.8c0,0,124.5,137.5,310.7,137.5c145.6,0,258.5-99.7,258.5-99.7v82.9h309V581.8h188.3v127.2H3839
			V540.6C3839,540.6,3826.2,542.2,3816.7,533.7z M570.8,642H392.8C180.5,642,62.4,475.3,62.4,355c0-184.5,159.8-286.9,304.7-286.9
			c140.4,0,225.1,107.7,225.1,107.7l-95.5,100.6c-5,5.3-13.3,5.8-18.9,1.2l-16.2-13.3c-0.7-0.6-1.1-1.6-1.1-2.9
			c0-3.4,9.4-12,9.4-28.3c0-16.4-3.4-84.2-107.8-84.2c-104.4,0-150.7,98-150.7,178.8c0,80.8,49.7,228.7,212.3,228.7
			c94.6,0,114.7-53.3,114.7-53.3h32.5V642z M1267.7,643.7h-214.9v-41.3c0,0,13.7,1.8,20.6-10.3c6.9-12,6.9-21.5,1.7-33.5
			c-5.1-12-41.1-107.5-41.1-107.5H858.5c0,0-36,96.3-39.4,104.9c-3.4,8.6-3.4,22.4,0,30.9c5.7,14.3,25.7,16.4,25.7,16.4v40.4h-172
			v-40.4c0,0,15.6-5.4,27.3-17.2c12.9-12.9,17.2-26.7,17.2-26.7L891.8,83.3h146.4l178.1,467.6c5.1,12.9,13.7,24.9,22.3,35.2
			c8.5,10.3,29.1,17.2,29.1,17.2V643.7z M1675.1,423.7c-73.1,33.8-169.5,60.2-169.5,60.2v89.3c0,0,0.8,6,9.4,16.4
			c8.5,10.3,18,12.9,18,12.9v41.3h-198.6v-40.4c0,0,12-2.6,20.5-11.2c8.6-8.6,10.3-18.9,10.3-18.9v-404c0,0,0.8-17.2-6-24.1
			c-6.9-6.9-23.1-16.3-23.1-16.3V83.3c0,0,172.9,0,273.9,0c101,0,202,36.1,202,153S1738.5,394.5,1675.1,423.7z M2175,149.7
			c-104.4,0-150.7,98-150.7,178.8c0,80.8,49.7,228.7,212.3,228.7c94.6,0,114.7-53.3,114.7-53.3h32.5V643h-178.1
			c-212.3,0-330.4-166.7-330.4-287.1c0-184.5,159.8-286.9,304.7-286.9c140.4,0,225.1,107.7,225.1,107.7l-95.5,100.6
			c-5,5.3-13.3,5.8-18.9,1.2l-16.2-13.3c-0.7-0.6-1.1-1.6-1.1-2.9c0-3.4,9.4-12,9.4-28.3C2282.8,217.6,2279.5,149.7,2175,149.7z
			 M2751.9,659.9c-184.9,0-317.8-135.6-317.8-300.6c0-165,136.3-293,317.8-293s317.8,127.9,317.8,293
			C3069.8,524.3,2936.8,659.9,2751.9,659.9z M3780,644h-204.6v-37.2c0,0,18-2.6,23.9-11.2c6-8.6,8.6-13.8,6.8-27.5
			c-1.7-13.8-50.5-326.6-50.5-326.6l-89,276.8h-107.8l-88.2-259.6l-44.5,306c0,0-1.7,18.3,5.1,28.3c9.4,13.8,26.5,13.8,26.5,13.8
			v36.9h-177.2v-39.5c0,0,14.1-2.2,24.4-14.2c10.3-12,12-27.5,12-27.5l64.6-403.5c0,0,3.9-15.1-0.4-21.9
			c-4.5-7.2-28.7-13.4-28.7-13.4v-40h203.7l73.6,228.3l78.7-228.7h213.1v33.5c0,0-14.2,6-20.6,13.8c-7.7,9.4-7.7,16.4-6,30.1
			s56.5,386.8,58.2,400.5c1.7,13.8,3.5,21.5,6.9,31c3.4,9.4,19.7,17.2,19.7,17.2V644z"/>
	</g>
</g>
</svg>
