<svg enable-background="new 0 0 3839.5 1071.8" version="1.1" viewBox="0 0 3839.5 1071.8" xml:space="preserve" xmlns="http://www.w3.org/2000/svg"><defs><linearGradient id="SVGID_1_" x1="3778.6755" x2="67.135" y1="-15150.2295" y2="-15150.2295" gradientTransform="matrix(1 0 0 -1 -.1797 -14605.497)" gradientUnits="userSpaceOnUse">
		<stop stop-color="#173B66" offset="0"/>
		<stop stop-color="#73CDF4" offset="1"/>
	</linearGradient><linearGradient id="SVGID_2_" x1="426.7557" x2="399.9591" y1="-15036.0498" y2="-15009.2539" gradientTransform="matrix(1 0 0 -1 -.1797 -14605.497)" gradientUnits="userSpaceOnUse">
		<stop stop-color="#15416F" offset="0"/>
		<stop stop-color="#66C3EE" offset="1"/>
	</linearGradient><linearGradient id="SVGID_3_" x1="824.7454" x2="800.1165" y1="-15546.3623" y2="-15521.7334" gradientTransform="matrix(1 0 0 -1 -.1797 -14605.497)" gradientUnits="userSpaceOnUse">
		<stop stop-color="#15416F" offset="0"/>
		<stop stop-color="#66C3EE" offset="1"/>
	</linearGradient><linearGradient id="SVGID_4_" x1="161.921" x2="161.921" y1="-15411.4639" y2="-15382.1641" gradientTransform="matrix(1 0 0 -1 -.1797 -14605.497)" gradientUnits="userSpaceOnUse">
		<stop stop-color="#15416F" offset="0"/>
		<stop stop-color="#66C3EE" offset="1"/>
	</linearGradient><linearGradient id="SVGID_5_" x1="810.4139" x2="810.4139" y1="-15677.2832" y2="-15647.0059" gradientTransform="matrix(1 0 0 -1 -.1797 -14605.497)" gradientUnits="userSpaceOnUse">
		<stop stop-color="#15416F" offset="0"/>
		<stop stop-color="#66C3EE" offset="1"/>
	</linearGradient><linearGradient id="SVGID_6_" x1="2892.6028" x2="2892.6028" y1="-15411.2734" y2="-15380.9277" gradientTransform="matrix(1 0 0 -1 -.1797 -14605.497)" gradientUnits="userSpaceOnUse">
		<stop stop-color="#15416F" offset="0"/>
		<stop stop-color="#66C3EE" offset="1"/>
	</linearGradient><linearGradient id="SVGID_7_" x1="1692.713" x2="1692.713" y1="-15417.1904" y2="-15386.7637" gradientTransform="matrix(1 0 0 -1 -.1797 -14605.497)" gradientUnits="userSpaceOnUse">
		<stop stop-color="#15416F" offset="0"/>
		<stop stop-color="#66C3EE" offset="1"/>
	</linearGradient><linearGradient id="SVGID_8_" x1="3535.1479" x2="3535.1479" y1="-14651.5381" y2="-14618.502" gradientTransform="matrix(1 0 0 -1 -.1797 -14605.497)" gradientUnits="userSpaceOnUse">
		<stop stop-color="#15416F" offset="0"/>
		<stop stop-color="#66C3EE" offset="1"/>
	</linearGradient><linearGradient id="SVGID_9_" x1="3485.7817" x2="3485.7817" y1="-14818.1621" y2="-14789.5625" gradientTransform="matrix(1 0 0 -1 -.1797 -14605.497)" gradientUnits="userSpaceOnUse">
		<stop stop-color="#15416F" offset="0"/>
		<stop stop-color="#66C3EE" offset="1"/>
	</linearGradient><linearGradient id="SVGID_10_" x1="3107.782" x2="3107.782" y1="-15113.7773" y2="-15088.5059" gradientTransform="matrix(1 0 0 -1 -.1797 -14605.497)" gradientUnits="userSpaceOnUse">
		<stop stop-color="#15416F" offset="0"/>
		<stop stop-color="#66C3EE" offset="1"/>
	</linearGradient><linearGradient id="SVGID_11_" x1="3316.9529" x2="3316.9529" y1="-14943.1309" y2="-14905.3984" gradientTransform="matrix(1 0 0 -1 -.1797 -14605.497)" gradientUnits="userSpaceOnUse">
		<stop stop-color="#15416F" offset="0"/>
		<stop stop-color="#66C3EE" offset="1"/>
	</linearGradient><linearGradient id="SVGID_12_" x1="492.5212" x2="468.4528" y1="-15240.0977" y2="-15216.0293" gradientTransform="matrix(1 0 0 -1 -.1797 -14605.497)" gradientUnits="userSpaceOnUse">
		<stop stop-color="#15416F" offset="0"/>
		<stop stop-color="#66C3EE" offset="1"/>
	</linearGradient><linearGradient id="SVGID_13_" x1="804.0995" x2="767.647" y1="-14802.2285" y2="-14802.2285" gradientTransform="matrix(1 0 0 -1 -.1797 -14605.497)" gradientUnits="userSpaceOnUse">
		<stop stop-color="#15416F" offset="0"/>
		<stop stop-color="#66C3EE" offset="1"/>
	</linearGradient><linearGradient id="SVGID_14_" x1="1162.9591" x2="1117.7144" y1="-14908.1426" y2="-14908.1426" gradientTransform="matrix(1 0 0 -1 -.1797 -14605.497)" gradientUnits="userSpaceOnUse">
		<stop stop-color="#15416F" offset="0"/>
		<stop stop-color="#66C3EE" offset="1"/>
	</linearGradient><linearGradient id="SVGID_15_" x1="1726.1664" x2="1685.4543" y1="-14943.8457" y2="-14943.8457" gradientTransform="matrix(1 0 0 -1 -.1797 -14605.497)" gradientUnits="userSpaceOnUse">
		<stop stop-color="#15416F" offset="0"/>
		<stop stop-color="#66C3EE" offset="1"/>
	</linearGradient><linearGradient id="SVGID_16_" x1="2359.8938" x2="2321.1658" y1="-14803.9629" y2="-14803.9629" gradientTransform="matrix(1 0 0 -1 -.1797 -14605.497)" gradientUnits="userSpaceOnUse">
		<stop stop-color="#15416F" offset="0"/>
		<stop stop-color="#66C3EE" offset="1"/>
	</linearGradient><linearGradient id="SVGID_17_" x1="2710.9958" x2="2671.6155" y1="-14897.8535" y2="-14897.8535" gradientTransform="matrix(1 0 0 -1 -.1797 -14605.497)" gradientUnits="userSpaceOnUse">
		<stop stop-color="#15416F" offset="0"/>
		<stop stop-color="#66C3EE" offset="1"/>
	</linearGradient><linearGradient id="SVGID_18_" x1="678.4926" x2="643.7725" y1="-15240.8613" y2="-15240.8613" gradientTransform="matrix(1 0 0 -1 -.1797 -14605.497)" gradientUnits="userSpaceOnUse">
		<stop stop-color="#15416F" offset="0"/>
		<stop stop-color="#66C3EE" offset="1"/>
	</linearGradient><linearGradient id="SVGID_19_" x1="810.8492" x2="786.7125" y1="-15274.1455" y2="-15250.0088" gradientTransform="matrix(1 0 0 -1 -.1797 -14605.497)" gradientUnits="userSpaceOnUse">
		<stop stop-color="#15416F" offset="0"/>
		<stop stop-color="#66C3EE" offset="1"/>
	</linearGradient><linearGradient id="SVGID_20_" x1="3746.8042" x2="3721.8767" y1="-14721.6055" y2="-14696.6768" gradientTransform="matrix(1 0 0 -1 -.1797 -14605.497)" gradientUnits="userSpaceOnUse">
		<stop stop-color="#15416F" offset="0"/>
		<stop stop-color="#66C3EE" offset="1"/>
	</linearGradient><linearGradient id="SVGID_21_" x1="978.9507" x2="942.2776" y1="-15247.25" y2="-15247.25" gradientTransform="matrix(1 0 0 -1 -.1797 -14605.497)" gradientUnits="userSpaceOnUse">
		<stop stop-color="#15416F" offset="0"/>
		<stop stop-color="#66C3EE" offset="1"/>
	</linearGradient><linearGradient id="SVGID_22_" x1="997.8502" x2="967.3633" y1="-14820.167" y2="-14789.6797" gradientTransform="matrix(1 0 0 -1 -.1797 -14605.497)" gradientUnits="userSpaceOnUse">
		<stop stop-color="#15416F" offset="0"/>
		<stop stop-color="#66C3EE" offset="1"/>
	</linearGradient><linearGradient id="SVGID_23_" x1="1453.4663" x2="1425.2167" y1="-14924.1826" y2="-14895.9326" gradientTransform="matrix(1 0 0 -1 -.1797 -14605.497)" gradientUnits="userSpaceOnUse">
		<stop stop-color="#15416F" offset="0"/>
		<stop stop-color="#66C3EE" offset="1"/>
	</linearGradient><linearGradient id="SVGID_24_" x1="2054.4578" x2="2024.6748" y1="-14961.4697" y2="-14931.6865" gradientTransform="matrix(1 0 0 -1 -.1797 -14605.497)" gradientUnits="userSpaceOnUse">
		<stop stop-color="#15416F" offset="0"/>
		<stop stop-color="#66C3EE" offset="1"/>
	</linearGradient><linearGradient id="SVGID_25_" x1="2548.0273" x2="2519.4426" y1="-14819.1562" y2="-14790.5684" gradientTransform="matrix(1 0 0 -1 -.1797 -14605.497)" gradientUnits="userSpaceOnUse">
		<stop stop-color="#15416F" offset="0"/>
		<stop stop-color="#66C3EE" offset="1"/>
	</linearGradient><linearGradient id="SVGID_26_" x1="3307.2859" x2="3283.8015" y1="-15012.1084" y2="-14988.626" gradientTransform="matrix(1 0 0 -1 -.1797 -14605.497)" gradientUnits="userSpaceOnUse">
		<stop stop-color="#15416F" offset="0"/>
		<stop stop-color="#66C3EE" offset="1"/>
	</linearGradient><linearGradient id="SVGID_27_" x1="3382.4878" x2="3355.5847" y1="-15311.7734" y2="-15284.8711" gradientTransform="matrix(1 0 0 -1 -.1797 -14605.497)" gradientUnits="userSpaceOnUse">
		<stop stop-color="#15416F" offset="0"/>
		<stop stop-color="#66C3EE" offset="1"/>
	</linearGradient><linearGradient id="SVGID_28_" x1="2988.675" x2="2959.5793" y1="-14919.3799" y2="-14890.2852" gradientTransform="matrix(1 0 0 -1 -.1797 -14605.497)" gradientUnits="userSpaceOnUse">
		<stop stop-color="#15416F" offset="0"/>
		<stop stop-color="#66C3EE" offset="1"/>
	</linearGradient><linearGradient id="SVGID_29_" x1="3294.5244" x2="3259.7908" y1="-14885.6514" y2="-14850.917" gradientTransform="matrix(1 0 0 -1 -.1797 -14605.497)" gradientUnits="userSpaceOnUse">
		<stop stop-color="#15416F" offset="0"/>
		<stop stop-color="#66C3EE" offset="1"/>
	</linearGradient><linearGradient id="SVGID_30_" x1="1250.5677" x2="1225.8203" y1="-15399.7754" y2="-15375.0273" gradientTransform="matrix(1 0 0 -1 -.1797 -14605.497)" gradientUnits="userSpaceOnUse">
		<stop stop-color="#15416F" offset="0"/>
		<stop stop-color="#66C3EE" offset="1"/>
	</linearGradient><linearGradient id="SVGID_31_" x1="2045.7185" x2="2020.9821" y1="-15242.2324" y2="-15217.4951" gradientTransform="matrix(1 0 0 -1 -.1797 -14605.497)" gradientUnits="userSpaceOnUse">
		<stop stop-color="#15416F" offset="0"/>
		<stop stop-color="#66C3EE" offset="1"/>
	</linearGradient><linearGradient id="SVGID_32_" x1="2364.0522" x2="2340.2117" y1="-15269.0312" y2="-15245.1895" gradientTransform="matrix(1 0 0 -1 -.1797 -14605.497)" gradientUnits="userSpaceOnUse">
		<stop stop-color="#15416F" offset="0"/>
		<stop stop-color="#66C3EE" offset="1"/>
	</linearGradient><linearGradient id="SVGID_33_" x1="2507.1753" x2="2477.217" y1="-15407.4648" y2="-15377.5078" gradientTransform="matrix(1 0 0 -1 -.1797 -14605.497)" gradientUnits="userSpaceOnUse">
		<stop stop-color="#15416F" offset="0"/>
		<stop stop-color="#66C3EE" offset="1"/>
	</linearGradient><linearGradient id="SVGID_34_" x1="1545.9348" x2="1504.9176" y1="-15260.0889" y2="-15260.0889" gradientTransform="matrix(1 0 0 -1 -.1797 -14605.497)" gradientUnits="userSpaceOnUse">
		<stop stop-color="#15416F" offset="0"/>
		<stop stop-color="#66C3EE" offset="1"/>
	</linearGradient><linearGradient id="SVGID_35_" x1="2231.0129" x2="2195.6035" y1="-15238.0078" y2="-15238.0078" gradientTransform="matrix(1 0 0 -1 -.1797 -14605.497)" gradientUnits="userSpaceOnUse">
		<stop stop-color="#15416F" offset="0"/>
		<stop stop-color="#66C3EE" offset="1"/>
	</linearGradient><linearGradient id="SVGID_36_" x1="2534.4329" x2="2492.012" y1="-15233.1709" y2="-15233.1709" gradientTransform="matrix(1 0 0 -1 -.1797 -14605.497)" gradientUnits="userSpaceOnUse">
		<stop stop-color="#15416F" offset="0"/>
		<stop stop-color="#66C3EE" offset="1"/>
	</linearGradient><linearGradient id="SVGID_37_" x1="2980.5332" x2="2950.5171" y1="-15177.9355" y2="-15147.9209" gradientTransform="matrix(1 0 0 -1 -.1797 -14605.497)" gradientUnits="userSpaceOnUse">
		<stop stop-color="#15416F" offset="0"/>
		<stop stop-color="#66C3EE" offset="1"/>
	</linearGradient><linearGradient id="SVGID_38_" x1="3199.8369" x2="3199.8369" y1="-15244.7373" y2="-15205.3291" gradientTransform="matrix(1 0 0 -1 -.1797 -14605.497)" gradientUnits="userSpaceOnUse">
		<stop stop-color="#15416F" offset="0"/>
		<stop stop-color="#66C3EE" offset="1"/>
	</linearGradient></defs>
<style type="text/css">
	.st0{fill:url(#SVGID_1_);}
	.st1{fill:#FFFFFF;}
	.st2{fill:url(#SVGID_2_);}
	.st3{fill:url(#SVGID_3_);}
	.st4{fill:#686868;}
	.st5{fill:url(#SVGID_4_);}
	.st6{fill:url(#SVGID_5_);}
	.st7{fill:url(#SVGID_6_);}
	.st8{fill:url(#SVGID_7_);}
	.st9{fill:url(#SVGID_8_);}
	.st10{fill:url(#SVGID_9_);}
	.st11{fill:url(#SVGID_10_);}
	.st12{fill:url(#SVGID_11_);}
	.st13{fill:url(#SVGID_12_);}
	.st14{fill:url(#SVGID_13_);}
	.st15{fill:url(#SVGID_14_);}
	.st16{fill:url(#SVGID_15_);}
	.st17{fill:url(#SVGID_16_);}
	.st18{fill:url(#SVGID_17_);}
	.st19{fill:url(#SVGID_18_);}
	.st20{fill:url(#SVGID_19_);}
	.st21{fill:url(#SVGID_20_);}
	.st22{fill:url(#SVGID_21_);}
	.st23{fill:url(#SVGID_22_);}
	.st24{fill:url(#SVGID_23_);}
	.st25{fill:url(#SVGID_24_);}
	.st26{fill:url(#SVGID_25_);}
	.st27{fill:url(#SVGID_26_);}
	.st28{fill:url(#SVGID_27_);}
	.st29{fill:url(#SVGID_28_);}
	.st30{fill:url(#SVGID_29_);}
	.st31{fill:url(#SVGID_30_);}
	.st32{fill:url(#SVGID_31_);}
	.st33{fill:url(#SVGID_32_);}
	.st34{fill:url(#SVGID_33_);}
	.st35{fill:url(#SVGID_34_);}
	.st36{fill:url(#SVGID_35_);}
	.st37{fill:url(#SVGID_36_);}
	.st38{fill:url(#SVGID_37_);}
	.st39{fill:url(#SVGID_38_);}
	.st40{fill:url(#SVGID_39_);}
	.st41{fill:url(#SVGID_40_);}
	.st42{fill:url(#SVGID_41_);}
	.st43{fill:url(#SVGID_42_);}
	.st44{fill:url(#SVGID_43_);}
	.st45{fill:url(#SVGID_44_);}
	.st46{fill:url(#SVGID_45_);}
	.st47{fill:url(#SVGID_46_);}
	.st48{opacity:0.2;}
	.st49{clip-path:url(#SVGID_48_);fill:url(#SVGID_49_);}
	.st50{fill:url(#SVGID_50_);}
	.st51{fill:url(#SVGID_51_);}
	.st52{clip-path:url(#SVGID_53_);fill:url(#SVGID_54_);}
</style>
<path class="st0" d="m3778.5 40.3-529.9-2-497.8 499.8-69.7 3.9 1.9-480.8-279.9 285.6-67 8v-291.1l-573.1 567-71.2 7.6 6-583.4-500.8 508.5-65.8 0.4-7.7-488.5-270.2 272.2-75.2 3.8 2.9-290.6-714 719.8 235.1-3.8 308.4-299.3h59.1l-2.9 300.7 245.6-251.3h58.8v256l-270.3 268.3 259-3.8 509.6-515.4h68.6v253.2l317.7 1.9 307.1-309.1 59.3-3.8-0.9 292.2 245.5-245.5h57.9l3.9 247.5-5 12.9h741.6l142-143.9-461.1-7.8-4.2-66.9 71.8-75.7h174l151.1-153.1-91.3-3.9v-64.4l77.6-77.6 309.7 2z" fill="url(#SVGID_1_)"/><path class="st2" d="m767.3 89.8-686.9 686.9-77.9 29.3s-4.1 0.3-1.8-3c0 0 796.6-796.8 798-798s3.2-0.2 3.2-0.2z" fill="url(#SVGID_2_)"/><path class="st3" d="m978.8 786.6-254.9 254.9-75.2 30.3s-3.9 0.4-1.6-2.8l298.4-297.2z" fill="url(#SVGID_3_)"/><path class="st5" d="m80.6 776.7h221.5l18.9 29.3h-318.5z" fill="url(#SVGID_4_)"/><path class="st6" d="m723.9 1041.5h230.1l17.7 30.3h-323z" fill="url(#SVGID_5_)"/><path class="st7" d="m2528.4 775.4h731l22.1 30.4-778.1-0.2z" fill="url(#SVGID_6_)"/><path class="st8" d="m1870.3 811.7-350-0.2c-2.3 0-5.5-2.3-5.5-2.3l31-28h306.1z" fill="url(#SVGID_7_)"/><path class="st9" d="m3231.2 13h602.2c5.3 0 5.3 2.1 5.3 2.1l-71.8 30.9h-510.6z" fill="url(#SVGID_8_)"/><path class="st10" d="m3321.1 184.1h307.8l21.2 28.6h-314.9z" fill="url(#SVGID_9_)"/><path class="st11" d="m3009.8 483h174l21.6 25.3h-167.6z" fill="url(#SVGID_10_)"/><path class="st12" d="m3329.1 337.6h-92.3l-8.1-37.7h173c2.4-0.3 3 1 3 1z" fill="url(#SVGID_11_)"/><path class="st13" d="m646.3 479.8-325.3 326.2-18.8-29.3 316.6-315c13.6-15.7 31.8-11.8 31.8-11.8z" fill="url(#SVGID_12_)"/><path class="st14" d="m767.5 351v-261.4l34.4-84.9s2.1 0.5 2.1 3.9v364.4l-2.1 15.7c-0.1 0-30.7 0.2-34.4-37.7z" fill="url(#SVGID_13_)"/><path class="st15" d="m1162.8 603.5s-44.4 13.2-45-38.2c-0.5-49.7-0.1-470.7-0.1-470.7l35.4-94.4s1.2-0.2 1.2 4.9l-0.1 555.6z" fill="url(#SVGID_14_)"/><path class="st16" d="m1726 671.9s-40 3.9-40.5-41.4l-0.2-543.9 31.6-82s4 1 4 6.2l-0.1 619.1z" fill="url(#SVGID_15_)"/><path class="st17" d="m2359.7 390.1s-33.1 3.1-38.7-31v-269.8l29.8-82.5s3.8 0.9 3.8 6v337.4z" fill="url(#SVGID_16_)"/><path class="st18" d="m2710.8 579.7s-33.5 4.4-39.4-29.7v-460l32.9-85.2s1.8 1.5 1.8 11.6v524.6z" fill="url(#SVGID_17_)"/><path class="st19" d="m652.3 820.8s-5.7-0.5-5.5-7.8c0-6.2-0.5-333.1-0.5-333.1s-8.3-10.7 4.2-29.9c3.7 0.9 23.7 4.9 27.9 28.9v274.2z" fill="url(#SVGID_18_)"/><path class="st20" d="m945 533.9s-281.8 282.2-284.5 284.9c-2.4 2.6-8.2 1.9-8.2 1.9l26-67.7 245-245.2s9.1-11.7 26-11.1z" fill="url(#SVGID_19_)"/><path class="st21" d="m3837.3 24.7-187.3 187.9-21.2-28.6 138-138.1 71.9-30.9c0.1 0.1 2.4 5.9-1.4 9.7z" fill="url(#SVGID_20_)"/><path class="st22" d="m945.5 771.8-0.5-237.9s-8.8-17.9 4.3-37.1c4 0 25.1 2.9 29.5 28.2v261.7z" fill="url(#SVGID_21_)"/><path class="st23" d="m1117.7 94.6-281.6 281.7c-13.5 13.5-34.3 12.5-34.3 12.5-12.2-24 2.1-41.2 2.1-41.2s343.1-343 345.6-345.6c2.2-2.8 3.7-1.8 3.7-1.8z" fill="url(#SVGID_22_)"/><path class="st24" d="m1685.3 86.7-505.3 505.3c-10.5 10.5-17.2 11.6-17.2 11.6-25.7-12.8-8.2-42.5-8.2-42.5s547.9-547.8 550.4-550.4c6.4-7.4 12-6 12-6z" fill="url(#SVGID_23_)"/><path class="st25" d="m2321 89.3-571.8 571.7c-9.7 9.7-23.3 10.9-23.3 10.9-21.2-10.6-5.3-41.9-5.3-41.9s615.5-614.8 618-617.4c6.4-7.5 12.1-5.9 12.1-5.9z" fill="url(#SVGID_24_)"/><path class="st26" d="m2671.4 90-288.8 288.8c-9.7 9.7-22.9 11.3-22.9 11.3-19.9-13-4-40.6-4-40.6s336.9-337.6 339.3-340.2c7.1-7 9.4-4.5 9.4-4.5z" fill="url(#SVGID_25_)"/><path class="st27" d="m3404.9 308.8-199.5 199.5-21.7-25.3 145.4-145.4 75.6-36.7c0.1 0 2.9 2 0.2 7.9z" fill="url(#SVGID_26_)"/><path class="st28" d="m3477.5 611.1-196 194.6-22.1-30.3 136.2-136.2 83.5-36.5c-0.1 0 2.6 2.9-1.6 8.4z" fill="url(#SVGID_27_)"/><path class="st29" d="m3256.3 46-522.5 522.5c-9.7 9.7-23.1 11.2-23.1 11.2-16.6-21-4.7-40.6-4.7-40.6l525-526.1z" fill="url(#SVGID_28_)"/><path class="st30" d="m3335.2 212.7-86.1 86.9c-18.8 15.5-12.2 38.1-12.2 38.1-15.3-1.4-21.2-14-23.2-25.1-1.9-11.1 2.1-23.2 9.2-30.3l98.3-98.1z" fill="url(#SVGID_29_)"/><path class="st31" d="m954 1041.5 529.3-529.5s9.8-12.7 29-12l-3.1 35.5s-534.4 533.3-537.4 536.3z" fill="url(#SVGID_30_)"/><path class="st32" d="m1851.8 781.3 323.7-323.8s9.8-12.7 29-12l-5.8 38.2-328.3 328z" fill="url(#SVGID_31_)"/><path class="st33" d="m2230.8 749 249.9-250c5.7-5.7 12.1-12 23.1-12l-0.7 37.4-292.7 292.4c-3.9 3.8-6.9 2.7-6.9 2.7z" fill="url(#SVGID_32_)"/><path class="st34" d="m2448.8 800.4 47.7-47.9 37.8 15.8-30.9 37.3h-52.4c-2.7 0-4.1-3.3-2.2-5.2z" fill="url(#SVGID_33_)"/><path class="st35" d="m1509.8 797.1-0.6-261.6s-11.8-13.7 3.1-35.5c4.6-0.1 28.5 3.2 33.5 32v249.3l-31 28c0-0.1-5-3.3-5-12.2z" fill="url(#SVGID_34_)"/><path class="st36" d="m2199.1 814.8-0.5-331.2s-10-18.2 5.9-38.2c4-0.1 22 3.2 26.4 31.9v271.7l-27.4 70.6c-0.1-0.1-4.1-1-4.4-4.8z" fill="url(#SVGID_35_)"/><path class="st37" d="m2496.5 752.5v-221.6s-14.4-23 7.2-43.9c4.7-0.1 28.1 1.6 30.5 29.4v251.9z" fill="url(#SVGID_36_)"/><path class="st38" d="m3037.8 508.3-91.4 91.6-26.1 32.7c-26.5-16.7-13.3-46.7-6.2-53.8l95.7-95.6z" fill="url(#SVGID_37_)"/><path class="st39" d="m3395.6 639.2h-451c-17-1.3-24.3-6.7-24.3-6.7-0.1-24.3 26.1-32.7 26.1-32.7h528.1c3.7 0 4.5 2.9 4.5 2.9z" fill="url(#SVGID_38_)"/>
</svg>
