<?xml version="1.0" encoding="utf-8"?>
<!-- Generator: Adobe Illustrator 25.0.0, SVG Export Plug-In . SVG Version: 6.00 Build 0)  -->
<svg version="1.1" id="Layer_1" xmlns="http://www.w3.org/2000/svg" xmlns:xlink="http://www.w3.org/1999/xlink" x="0px" y="0px"
	 viewBox="0 0 3839.5 1071.8" style="enable-background:new 0 0 3839.5 1071.8;" xml:space="preserve">
<style type="text/css">
	.st0{fill:url(#SVGID_1_);}
	.st1{fill:#FFFFFF;}
	.st2{fill:url(#SVGID_2_);}
	.st3{fill:url(#SVGID_3_);}
	.st4{fill:#686868;}
	.st5{fill:url(#SVGID_4_);}
	.st6{fill:url(#SVGID_5_);}
	.st7{fill:url(#SVGID_6_);}
	.st8{fill:url(#SVGID_7_);}
	.st9{fill:url(#SVGID_8_);}
	.st10{fill:url(#SVGID_9_);}
	.st11{fill:url(#SVGID_10_);}
	.st12{fill:url(#SVGID_11_);}
	.st13{fill:url(#SVGID_12_);}
	.st14{fill:url(#SVGID_13_);}
	.st15{fill:url(#SVGID_14_);}
	.st16{fill:url(#SVGID_15_);}
	.st17{fill:url(#SVGID_16_);}
	.st18{fill:url(#SVGID_17_);}
	.st19{fill:url(#SVGID_18_);}
	.st20{fill:url(#SVGID_19_);}
	.st21{fill:url(#SVGID_20_);}
	.st22{fill:url(#SVGID_21_);}
	.st23{fill:url(#SVGID_22_);}
	.st24{fill:url(#SVGID_23_);}
	.st25{fill:url(#SVGID_24_);}
	.st26{fill:url(#SVGID_25_);}
	.st27{fill:url(#SVGID_26_);}
	.st28{fill:url(#SVGID_27_);}
	.st29{fill:url(#SVGID_28_);}
	.st30{fill:url(#SVGID_29_);}
	.st31{fill:url(#SVGID_30_);}
	.st32{fill:url(#SVGID_31_);}
	.st33{fill:url(#SVGID_32_);}
	.st34{fill:url(#SVGID_33_);}
	.st35{fill:url(#SVGID_34_);}
	.st36{fill:url(#SVGID_35_);}
	.st37{fill:url(#SVGID_36_);}
	.st38{fill:url(#SVGID_37_);}
	.st39{fill:url(#SVGID_38_);}
	.st40{fill:url(#SVGID_39_);}
	.st41{fill:url(#SVGID_40_);}
	.st42{fill:url(#SVGID_41_);}
	.st43{fill:url(#SVGID_42_);}
	.st44{fill:url(#SVGID_43_);}
	.st45{fill:url(#SVGID_44_);}
	.st46{fill:url(#SVGID_45_);}
	.st47{fill:url(#SVGID_46_);}
	.st48{opacity:0.2;}
	.st49{clip-path:url(#SVGID_48_);fill:url(#SVGID_49_);}
	.st50{fill:url(#SVGID_50_);}
	.st51{fill:url(#SVGID_51_);}
	.st52{clip-path:url(#SVGID_53_);fill:url(#SVGID_54_);}
</style>
<g>
	
		<linearGradient id="SVGID_1_" gradientUnits="userSpaceOnUse" x1="3778.6755" y1="-15150.2295" x2="67.135" y2="-15150.2295" gradientTransform="matrix(1 0 0 -1 -0.1797 -14605.4971)">
		<stop  offset="0" style="stop-color:#173B66"/>
		<stop  offset="1" style="stop-color:#73CDF4"/>
	</linearGradient>
	<polygon class="st0" points="3325,187.9 3634.7,189.9 3778.5,40.3 3248.6,38.3 2750.8,538.1 2681.1,542 2683,61.2 2403.1,346.8 
		2336.1,354.8 2336.1,63.7 1763,630.7 1691.8,638.3 1697.8,54.9 1197,563.4 1131.2,563.8 1123.5,75.3 853.3,347.5 778.1,351.3 
		781,60.7 67,780.5 302.1,776.7 610.5,477.4 669.6,477.4 666.7,778.1 912.3,526.8 971.1,526.8 971.1,782.8 700.8,1051.1 
		959.8,1047.3 1469.4,531.9 1538,531.9 1538,785.1 1855.7,787 2162.8,477.9 2222.1,474.1 2221.2,766.3 2466.7,520.8 2524.6,520.8 
		2528.5,768.3 2523.5,781.2 3265.1,781.2 3407.1,637.3 2946,629.5 2941.8,562.6 3013.6,486.9 3187.6,486.9 3338.7,333.8 
		3247.4,329.9 3247.4,265.5 	"/>
	
		<linearGradient id="SVGID_2_" gradientUnits="userSpaceOnUse" x1="426.7557" y1="-15036.0498" x2="399.9591" y2="-15009.2539" gradientTransform="matrix(1 0 0 -1 -0.1797 -14605.4971)">
		<stop  offset="0" style="stop-color:#15416F"/>
		<stop  offset="1" style="stop-color:#66C3EE"/>
	</linearGradient>
	<path class="st2" d="M767.3,89.8L80.4,776.7L2.5,806c0,0-4.1,0.3-1.8-3c0,0,796.6-796.8,798-798c1.4-1.2,3.2-0.2,3.2-0.2
		L767.3,89.8z"/>
	
		<linearGradient id="SVGID_3_" gradientUnits="userSpaceOnUse" x1="824.7454" y1="-15546.3623" x2="800.1165" y2="-15521.7334" gradientTransform="matrix(1 0 0 -1 -0.1797 -14605.4971)">
		<stop  offset="0" style="stop-color:#15416F"/>
		<stop  offset="1" style="stop-color:#66C3EE"/>
	</linearGradient>
	<path class="st3" d="M978.8,786.6l-254.9,254.9l-75.2,30.3c0,0-3.9,0.4-1.6-2.8l298.4-297.2L978.8,786.6z"/>
	
		<linearGradient id="SVGID_4_" gradientUnits="userSpaceOnUse" x1="161.921" y1="-15411.4639" x2="161.921" y2="-15382.1641" gradientTransform="matrix(1 0 0 -1 -0.1797 -14605.4971)">
		<stop  offset="0" style="stop-color:#15416F"/>
		<stop  offset="1" style="stop-color:#66C3EE"/>
	</linearGradient>
	<polygon class="st5" points="321,806 2.5,806 80.6,776.7 302.1,776.7 	"/>
	
		<linearGradient id="SVGID_5_" gradientUnits="userSpaceOnUse" x1="810.4139" y1="-15677.2832" x2="810.4139" y2="-15647.0059" gradientTransform="matrix(1 0 0 -1 -0.1797 -14605.4971)">
		<stop  offset="0" style="stop-color:#15416F"/>
		<stop  offset="1" style="stop-color:#66C3EE"/>
	</linearGradient>
	<polygon class="st6" points="971.7,1071.8 648.7,1071.8 723.9,1041.5 954,1041.5 	"/>
	
		<linearGradient id="SVGID_6_" gradientUnits="userSpaceOnUse" x1="2892.6028" y1="-15411.2734" x2="2892.6028" y2="-15380.9277" gradientTransform="matrix(1 0 0 -1 -0.1797 -14605.4971)">
		<stop  offset="0" style="stop-color:#15416F"/>
		<stop  offset="1" style="stop-color:#66C3EE"/>
	</linearGradient>
	<polygon class="st7" points="3281.5,805.8 2503.4,805.6 2528.4,775.4 3259.4,775.4 	"/>
	
		<linearGradient id="SVGID_7_" gradientUnits="userSpaceOnUse" x1="1692.713" y1="-15417.1904" x2="1692.713" y2="-15386.7637" gradientTransform="matrix(1 0 0 -1 -0.1797 -14605.4971)">
		<stop  offset="0" style="stop-color:#15416F"/>
		<stop  offset="1" style="stop-color:#66C3EE"/>
	</linearGradient>
	<path class="st8" d="M1870.3,811.7l-350-0.2c-2.3,0-5.5-2.3-5.5-2.3l31-28h306.1L1870.3,811.7z"/>
	
		<linearGradient id="SVGID_8_" gradientUnits="userSpaceOnUse" x1="3535.1479" y1="-14651.5381" x2="3535.1479" y2="-14618.502" gradientTransform="matrix(1 0 0 -1 -0.1797 -14605.4971)">
		<stop  offset="0" style="stop-color:#15416F"/>
		<stop  offset="1" style="stop-color:#66C3EE"/>
	</linearGradient>
	<path class="st9" d="M3231.2,13h602.2c5.3,0,5.3,2.1,5.3,2.1L3766.9,46h-510.6L3231.2,13z"/>
	
		<linearGradient id="SVGID_9_" gradientUnits="userSpaceOnUse" x1="3485.7817" y1="-14818.1621" x2="3485.7817" y2="-14789.5625" gradientTransform="matrix(1 0 0 -1 -0.1797 -14605.4971)">
		<stop  offset="0" style="stop-color:#15416F"/>
		<stop  offset="1" style="stop-color:#66C3EE"/>
	</linearGradient>
	<polygon class="st10" points="3650.1,212.7 3335.2,212.7 3321.1,184.1 3628.9,184.1 	"/>
	
		<linearGradient id="SVGID_10_" gradientUnits="userSpaceOnUse" x1="3107.782" y1="-15113.7773" x2="3107.782" y2="-15088.5059" gradientTransform="matrix(1 0 0 -1 -0.1797 -14605.4971)">
		<stop  offset="0" style="stop-color:#15416F"/>
		<stop  offset="1" style="stop-color:#66C3EE"/>
	</linearGradient>
	<polygon class="st11" points="3205.4,508.3 3037.8,508.3 3009.8,483 3183.8,483 	"/>
	
		<linearGradient id="SVGID_11_" gradientUnits="userSpaceOnUse" x1="3316.9529" y1="-14943.1309" x2="3316.9529" y2="-14905.3984" gradientTransform="matrix(1 0 0 -1 -0.1797 -14605.4971)">
		<stop  offset="0" style="stop-color:#15416F"/>
		<stop  offset="1" style="stop-color:#66C3EE"/>
	</linearGradient>
	<path class="st12" d="M3329.1,337.6h-92.3l-8.1-37.7h173c2.4-0.3,3,1,3,1L3329.1,337.6z"/>
	
		<linearGradient id="SVGID_12_" gradientUnits="userSpaceOnUse" x1="492.5212" y1="-15240.0977" x2="468.4528" y2="-15216.0293" gradientTransform="matrix(1 0 0 -1 -0.1797 -14605.4971)">
		<stop  offset="0" style="stop-color:#15416F"/>
		<stop  offset="1" style="stop-color:#66C3EE"/>
	</linearGradient>
	<path class="st13" d="M646.3,479.8L321,806l-18.8-29.3l316.6-315c13.6-15.7,31.8-11.8,31.8-11.8L646.3,479.8z"/>
	
		<linearGradient id="SVGID_13_" gradientUnits="userSpaceOnUse" x1="804.0995" y1="-14802.2285" x2="767.647" y2="-14802.2285" gradientTransform="matrix(1 0 0 -1 -0.1797 -14605.4971)">
		<stop  offset="0" style="stop-color:#15416F"/>
		<stop  offset="1" style="stop-color:#66C3EE"/>
	</linearGradient>
	<path class="st14" d="M767.5,351V89.6l34.4-84.9c0,0,2.1,0.5,2.1,3.9c0,3.3,0,364.4,0,364.4l-2.1,15.7
		C801.8,388.7,771.2,388.9,767.5,351z"/>
	
		<linearGradient id="SVGID_14_" gradientUnits="userSpaceOnUse" x1="1162.9591" y1="-14908.1426" x2="1117.7144" y2="-14908.1426" gradientTransform="matrix(1 0 0 -1 -0.1797 -14605.4971)">
		<stop  offset="0" style="stop-color:#15416F"/>
		<stop  offset="1" style="stop-color:#66C3EE"/>
	</linearGradient>
	<path class="st15" d="M1162.8,603.5c0,0-44.4,13.2-45-38.2c-0.5-49.7-0.1-470.7-0.1-470.7l35.4-94.4c0,0,1.2-0.2,1.2,4.9
		l-0.1,555.6L1162.8,603.5z"/>
	
		<linearGradient id="SVGID_15_" gradientUnits="userSpaceOnUse" x1="1726.1664" y1="-14943.8457" x2="1685.4543" y2="-14943.8457" gradientTransform="matrix(1 0 0 -1 -0.1797 -14605.4971)">
		<stop  offset="0" style="stop-color:#15416F"/>
		<stop  offset="1" style="stop-color:#66C3EE"/>
	</linearGradient>
	<path class="st16" d="M1726,671.9c0,0-40,3.9-40.5-41.4l-0.2-543.9l31.6-82c0,0,4,1,4,6.2l-0.1,619.1L1726,671.9z"/>
	
		<linearGradient id="SVGID_16_" gradientUnits="userSpaceOnUse" x1="2359.8938" y1="-14803.9629" x2="2321.1658" y2="-14803.9629" gradientTransform="matrix(1 0 0 -1 -0.1797 -14605.4971)">
		<stop  offset="0" style="stop-color:#15416F"/>
		<stop  offset="1" style="stop-color:#66C3EE"/>
	</linearGradient>
	<path class="st17" d="M2359.7,390.1c0,0-33.1,3.1-38.7-31V89.3l29.8-82.5c0,0,3.8,0.9,3.8,6v337.4L2359.7,390.1z"/>
	
		<linearGradient id="SVGID_17_" gradientUnits="userSpaceOnUse" x1="2710.9958" y1="-14897.8535" x2="2671.6155" y2="-14897.8535" gradientTransform="matrix(1 0 0 -1 -0.1797 -14605.4971)">
		<stop  offset="0" style="stop-color:#15416F"/>
		<stop  offset="1" style="stop-color:#66C3EE"/>
	</linearGradient>
	<path class="st18" d="M2710.8,579.7c0,0-33.5,4.4-39.4-29.7V90l32.9-85.2c0,0,1.8,1.5,1.8,11.6v524.6L2710.8,579.7z"/>
	
		<linearGradient id="SVGID_18_" gradientUnits="userSpaceOnUse" x1="678.4926" y1="-15240.8613" x2="643.7725" y2="-15240.8613" gradientTransform="matrix(1 0 0 -1 -0.1797 -14605.4971)">
		<stop  offset="0" style="stop-color:#15416F"/>
		<stop  offset="1" style="stop-color:#66C3EE"/>
	</linearGradient>
	<path class="st19" d="M652.3,820.8c0,0-5.7-0.5-5.5-7.8c0-6.2-0.5-333.1-0.5-333.1s-8.3-10.7,4.2-29.9c3.7,0.9,23.7,4.9,27.9,28.9
		v274.2L652.3,820.8z"/>
	
		<linearGradient id="SVGID_19_" gradientUnits="userSpaceOnUse" x1="810.8492" y1="-15274.1455" x2="786.7125" y2="-15250.0088" gradientTransform="matrix(1 0 0 -1 -0.1797 -14605.4971)">
		<stop  offset="0" style="stop-color:#15416F"/>
		<stop  offset="1" style="stop-color:#66C3EE"/>
	</linearGradient>
	<path class="st20" d="M945,533.9c0,0-281.8,282.2-284.5,284.9c-2.4,2.6-8.2,1.9-8.2,1.9l26-67.7l245-245.2c0,0,9.1-11.7,26-11.1
		L945,533.9z"/>
	
		<linearGradient id="SVGID_20_" gradientUnits="userSpaceOnUse" x1="3746.8042" y1="-14721.6055" x2="3721.8767" y2="-14696.6768" gradientTransform="matrix(1 0 0 -1 -0.1797 -14605.4971)">
		<stop  offset="0" style="stop-color:#15416F"/>
		<stop  offset="1" style="stop-color:#66C3EE"/>
	</linearGradient>
	<path class="st21" d="M3837.3,24.7l-187.3,187.9l-21.2-28.6l138-138.1l71.9-30.9C3838.8,15.1,3841.1,20.9,3837.3,24.7z"/>
	
		<linearGradient id="SVGID_21_" gradientUnits="userSpaceOnUse" x1="978.9507" y1="-15247.25" x2="942.2776" y2="-15247.25" gradientTransform="matrix(1 0 0 -1 -0.1797 -14605.4971)">
		<stop  offset="0" style="stop-color:#15416F"/>
		<stop  offset="1" style="stop-color:#66C3EE"/>
	</linearGradient>
	<path class="st22" d="M945.5,771.8L945,533.9c0,0-8.8-17.9,4.3-37.1c4,0,25.1,2.9,29.5,28.2l0,261.7L945.5,771.8z"/>
	
		<linearGradient id="SVGID_22_" gradientUnits="userSpaceOnUse" x1="997.8502" y1="-14820.167" x2="967.3633" y2="-14789.6797" gradientTransform="matrix(1 0 0 -1 -0.1797 -14605.4971)">
		<stop  offset="0" style="stop-color:#15416F"/>
		<stop  offset="1" style="stop-color:#66C3EE"/>
	</linearGradient>
	<path class="st23" d="M1117.7,94.6L836.1,376.3c-13.5,13.5-34.3,12.5-34.3,12.5c-12.2-24,2.1-41.2,2.1-41.2S1147,4.6,1149.5,2
		c2.2-2.8,3.7-1.8,3.7-1.8L1117.7,94.6z"/>
	
		<linearGradient id="SVGID_23_" gradientUnits="userSpaceOnUse" x1="1453.4663" y1="-14924.1826" x2="1425.2167" y2="-14895.9326" gradientTransform="matrix(1 0 0 -1 -0.1797 -14605.4971)">
		<stop  offset="0" style="stop-color:#15416F"/>
		<stop  offset="1" style="stop-color:#66C3EE"/>
	</linearGradient>
	<path class="st24" d="M1685.3,86.7L1180,592c-10.5,10.5-17.2,11.6-17.2,11.6c-25.7-12.8-8.2-42.5-8.2-42.5s547.9-547.8,550.4-550.4
		c6.4-7.4,12-6,12-6L1685.3,86.7z"/>
	
		<linearGradient id="SVGID_24_" gradientUnits="userSpaceOnUse" x1="2054.4578" y1="-14961.4697" x2="2024.6748" y2="-14931.6865" gradientTransform="matrix(1 0 0 -1 -0.1797 -14605.4971)">
		<stop  offset="0" style="stop-color:#15416F"/>
		<stop  offset="1" style="stop-color:#66C3EE"/>
	</linearGradient>
	<path class="st25" d="M2321,89.3L1749.2,661c-9.7,9.7-23.3,10.9-23.3,10.9c-21.2-10.6-5.3-41.9-5.3-41.9s615.5-614.8,618-617.4
		c6.4-7.5,12.1-5.9,12.1-5.9L2321,89.3z"/>
	
		<linearGradient id="SVGID_25_" gradientUnits="userSpaceOnUse" x1="2548.0273" y1="-14819.1562" x2="2519.4426" y2="-14790.5684" gradientTransform="matrix(1 0 0 -1 -0.1797 -14605.4971)">
		<stop  offset="0" style="stop-color:#15416F"/>
		<stop  offset="1" style="stop-color:#66C3EE"/>
	</linearGradient>
	<path class="st26" d="M2671.4,90l-288.8,288.8c-9.7,9.7-22.9,11.3-22.9,11.3c-19.9-13-4-40.6-4-40.6S2692.6,11.9,2695,9.3
		c7.1-7,9.4-4.5,9.4-4.5L2671.4,90z"/>
	
		<linearGradient id="SVGID_26_" gradientUnits="userSpaceOnUse" x1="3307.2859" y1="-15012.1084" x2="3283.8015" y2="-14988.626" gradientTransform="matrix(1 0 0 -1 -0.1797 -14605.4971)">
		<stop  offset="0" style="stop-color:#15416F"/>
		<stop  offset="1" style="stop-color:#66C3EE"/>
	</linearGradient>
	<path class="st27" d="M3404.9,308.8l-199.5,199.5l-21.7-25.3l145.4-145.4l75.6-36.7C3404.8,300.9,3407.6,302.9,3404.9,308.8z"/>
	
		<linearGradient id="SVGID_27_" gradientUnits="userSpaceOnUse" x1="3382.4878" y1="-15311.7734" x2="3355.5847" y2="-15284.8711" gradientTransform="matrix(1 0 0 -1 -0.1797 -14605.4971)">
		<stop  offset="0" style="stop-color:#15416F"/>
		<stop  offset="1" style="stop-color:#66C3EE"/>
	</linearGradient>
	<path class="st28" d="M3477.5,611.1l-196,194.6l-22.1-30.3l136.2-136.2l83.5-36.5C3479,602.7,3481.7,605.6,3477.5,611.1z"/>
	
		<linearGradient id="SVGID_28_" gradientUnits="userSpaceOnUse" x1="2988.675" y1="-14919.3799" x2="2959.5793" y2="-14890.2852" gradientTransform="matrix(1 0 0 -1 -0.1797 -14605.4971)">
		<stop  offset="0" style="stop-color:#15416F"/>
		<stop  offset="1" style="stop-color:#66C3EE"/>
	</linearGradient>
	<path class="st29" d="M3256.3,46l-522.5,522.5c-9.7,9.7-23.1,11.2-23.1,11.2c-16.6-21-4.7-40.6-4.7-40.6l525-526.1L3256.3,46z"/>
	
		<linearGradient id="SVGID_29_" gradientUnits="userSpaceOnUse" x1="3294.5244" y1="-14885.6514" x2="3259.7908" y2="-14850.917" gradientTransform="matrix(1 0 0 -1 -0.1797 -14605.4971)">
		<stop  offset="0" style="stop-color:#15416F"/>
		<stop  offset="1" style="stop-color:#66C3EE"/>
	</linearGradient>
	<path class="st30" d="M3335.2,212.7l-86.1,86.9c-18.8,15.5-12.2,38.1-12.2,38.1c-15.3-1.4-21.2-14-23.2-25.1
		c-1.9-11.1,2.1-23.2,9.2-30.3l98.3-98.1L3335.2,212.7z"/>
	
		<linearGradient id="SVGID_30_" gradientUnits="userSpaceOnUse" x1="1250.5677" y1="-15399.7754" x2="1225.8203" y2="-15375.0273" gradientTransform="matrix(1 0 0 -1 -0.1797 -14605.4971)">
		<stop  offset="0" style="stop-color:#15416F"/>
		<stop  offset="1" style="stop-color:#66C3EE"/>
	</linearGradient>
	<path class="st31" d="M954,1041.5L1483.3,512c0,0,9.8-12.7,29-12l-3.1,35.5c0,0-534.4,533.3-537.4,536.3L954,1041.5z"/>
	
		<linearGradient id="SVGID_31_" gradientUnits="userSpaceOnUse" x1="2045.7185" y1="-15242.2324" x2="2020.9821" y2="-15217.4951" gradientTransform="matrix(1 0 0 -1 -0.1797 -14605.4971)">
		<stop  offset="0" style="stop-color:#15416F"/>
		<stop  offset="1" style="stop-color:#66C3EE"/>
	</linearGradient>
	<path class="st32" d="M1851.8,781.3l323.7-323.8c0,0,9.8-12.7,29-12l-5.8,38.2l-328.3,328L1851.8,781.3z"/>
	
		<linearGradient id="SVGID_32_" gradientUnits="userSpaceOnUse" x1="2364.0522" y1="-15269.0312" x2="2340.2117" y2="-15245.1895" gradientTransform="matrix(1 0 0 -1 -0.1797 -14605.4971)">
		<stop  offset="0" style="stop-color:#15416F"/>
		<stop  offset="1" style="stop-color:#66C3EE"/>
	</linearGradient>
	<path class="st33" d="M2230.8,749L2480.7,499c5.7-5.7,12.1-12,23.1-12l-0.7,37.4l-292.7,292.4c-3.9,3.8-6.9,2.7-6.9,2.7L2230.8,749
		z"/>
	
		<linearGradient id="SVGID_33_" gradientUnits="userSpaceOnUse" x1="2507.1753" y1="-15407.4648" x2="2477.217" y2="-15377.5078" gradientTransform="matrix(1 0 0 -1 -0.1797 -14605.4971)">
		<stop  offset="0" style="stop-color:#15416F"/>
		<stop  offset="1" style="stop-color:#66C3EE"/>
	</linearGradient>
	<path class="st34" d="M2448.8,800.4l47.7-47.9l37.8,15.8l-30.9,37.3l-52.4,0C2448.3,805.6,2446.9,802.3,2448.8,800.4z"/>
	
		<linearGradient id="SVGID_34_" gradientUnits="userSpaceOnUse" x1="1545.9348" y1="-15260.0889" x2="1504.9176" y2="-15260.0889" gradientTransform="matrix(1 0 0 -1 -0.1797 -14605.4971)">
		<stop  offset="0" style="stop-color:#15416F"/>
		<stop  offset="1" style="stop-color:#66C3EE"/>
	</linearGradient>
	<path class="st35" d="M1509.8,797.1l-0.6-261.6c0,0-11.8-13.7,3.1-35.5c4.6-0.1,28.5,3.2,33.5,32l0,249.3l-31,28
		C1514.8,809.2,1509.8,806,1509.8,797.1z"/>
	
		<linearGradient id="SVGID_35_" gradientUnits="userSpaceOnUse" x1="2231.0129" y1="-15238.0078" x2="2195.6035" y2="-15238.0078" gradientTransform="matrix(1 0 0 -1 -0.1797 -14605.4971)">
		<stop  offset="0" style="stop-color:#15416F"/>
		<stop  offset="1" style="stop-color:#66C3EE"/>
	</linearGradient>
	<path class="st36" d="M2199.1,814.8l-0.5-331.2c0,0-10-18.2,5.9-38.2c4-0.1,22,3.2,26.4,31.9V749l-27.4,70.6
		C2203.4,819.5,2199.4,818.6,2199.1,814.8z"/>
	
		<linearGradient id="SVGID_36_" gradientUnits="userSpaceOnUse" x1="2534.4329" y1="-15233.1709" x2="2492.012" y2="-15233.1709" gradientTransform="matrix(1 0 0 -1 -0.1797 -14605.4971)">
		<stop  offset="0" style="stop-color:#15416F"/>
		<stop  offset="1" style="stop-color:#66C3EE"/>
	</linearGradient>
	<path class="st37" d="M2496.5,752.5V530.9c0,0-14.4-23,7.2-43.9c4.7-0.1,28.1,1.6,30.5,29.4v251.9L2496.5,752.5z"/>
	
		<linearGradient id="SVGID_37_" gradientUnits="userSpaceOnUse" x1="2980.5332" y1="-15177.9355" x2="2950.5171" y2="-15147.9209" gradientTransform="matrix(1 0 0 -1 -0.1797 -14605.4971)">
		<stop  offset="0" style="stop-color:#15416F"/>
		<stop  offset="1" style="stop-color:#66C3EE"/>
	</linearGradient>
	<path class="st38" d="M3037.8,508.3l-91.4,91.6l-26.1,32.7c-26.5-16.7-13.3-46.7-6.2-53.8l95.7-95.6L3037.8,508.3z"/>
	
		<linearGradient id="SVGID_38_" gradientUnits="userSpaceOnUse" x1="3199.8369" y1="-15244.7373" x2="3199.8369" y2="-15205.3291" gradientTransform="matrix(1 0 0 -1 -0.1797 -14605.4971)">
		<stop  offset="0" style="stop-color:#15416F"/>
		<stop  offset="1" style="stop-color:#66C3EE"/>
	</linearGradient>
	<path class="st39" d="M3395.6,639.2h-451c-17-1.3-24.3-6.7-24.3-6.7c-0.1-24.3,26.1-32.7,26.1-32.7l528.1,0c3.7,0,4.5,2.9,4.5,2.9
		L3395.6,639.2z"/>
</g>
</svg>
