<svg enable-background="new 0 0 3839.5 1097.1" version="1.1" viewBox="0 0 3839.5 1097.1" xml:space="preserve" xmlns="http://www.w3.org/2000/svg">
<path d="m841.59961 0-841.59961 841.59961h348.19922l314.40039-314.29883v348.19922l281-281v210.19922l-292.40039 292.40038h348.20117l502.59961-502.49999v247h97.0996 242.7012l314.2988-314.29883v348.19922l281-281v210.19922l-36.7988 36.90039h860l230.5996-230.69922h-511.7012l56-56h143.6016l230.6992-230.59961h-143.6992l56-56h287l230.6992-230.701171h-628.5-6.8008l-520.8984 520.900391v-558.5l-348.2012 348.19922v-348.19922l-586.9004 586.90039 0.1016-586.90039-558.5 558.5v-558.5l-348.20119 348.19922v-348.19922z"/>
</svg>
