<?xml version="1.0" encoding="utf-8"?>
<!-- Generator: Adobe Illustrator 26.0.1, SVG Export Plug-In . SVG Version: 6.00 Build 0)  -->
<svg version="1.1" id="Layer_1" xmlns="http://www.w3.org/2000/svg" xmlns:xlink="http://www.w3.org/1999/xlink" x="0px" y="0px"
	 viewBox="0 0 3839 493" style="enable-background:new 0 0 3839 493;" xml:space="preserve">
<style type="text/css">
	.st0{fill:#FF0000;}
	.st1{fill:#B5B5B5;}
	.st2{fill:#02A5F4;}
	.st3{fill:#F65BA6;}
	.st4{fill:#6784E7;}
	.st5{fill:#FFD52F;}
	.st6{fill:#FFFFFF;}
</style>
<g>
	<g>
		<g>
			<g>
				<path class="st0" d="M579.1,227.5C442.2-32.9,177.4-41,86.1,60.2C63.8,84.9-12.2,226.4,198.7,359.3C89,391.7,0,265.5,0,265.5
					C137.1,525.9,401.7,534,493.1,432.8c22.3-24.7,98.3-166.3-112.7-299.1C490.2,101.3,579.1,227.5,579.1,227.5z M412.5,357.5
					c-41.5,46-130.3,33.6-198.1-27.7s-89.3-148.3-47.7-194.2s130.3-33.6,198.1,27.7S454.1,311.5,412.5,357.5z"/>
				
					<ellipse transform="matrix(0.6701 -0.7423 0.7423 0.6701 -106.193 353.5226)" class="st0" cx="344.6" cy="296.2" rx="62" ry="91.5"/>
			</g>
		</g>
		<g>
			<path d="M1307.8,208.9h-22.7h-34.3h-97.4h-7.3h-8.4l-78.4,54.8l-18.9,88.8c-2.7,12.7,7,24.7,20,24.7h23.9h33.2h97.4h10.1h5.6
				l78.4-54.8l18.9-88.8C1330.5,220.9,1320.8,208.9,1307.8,208.9z M1242.7,246.4l-15.7,73.7l-46.2,32.3h-45.3
				c-6.6,0-11.5-6.1-10.1-12.5l15.7-73.8l46.1-32.3h45.4C1239.2,233.9,1244.1,239.9,1242.7,246.4z"/>
			<path d="M1570.2,208.9h-12.4h-7.9h-97.4h-33.7h-48.6l-35.9,168.3h43.2l46.1-32.2l23.7-111.2h74.6c11.7,0,20.5,10.8,18.1,22.3
				l-25.8,121.1h82.4l25.8-121C1627.3,231.9,1602.9,208.9,1570.2,208.9z"/>
			<path d="M3786.3,208.9h-12.5h-7.9h-97.4h-33.7h-48.6l-35.9,168.3h43.2l46.1-32.2l23.7-111.2h74.6c11.8,0,20.5,10.8,18.1,22.3
				l-25.8,121.1h82.4l25.8-121C3843.3,231.9,3818.9,208.9,3786.3,208.9z"/>
			<polygon points="1004.3,115.6 958.2,147.9 921.5,320 875.3,352.4 852.3,352.4 895.9,147.9 902.8,115.6 859.6,115.6 813.6,147.9 
				776.9,320.1 730.7,352.4 707.7,352.4 751.3,147.9 758.2,115.6 715,115.6 669,147.9 620,377.3 682.4,377.3 702.4,377.3 
				764.7,377.3 846.9,377.3 909.3,377.3 924.9,377.3 1003.3,322.5 1047.5,115.6 			"/>
			<polygon points="3162.4,233.9 3144,320 3097.8,352.4 3081.2,352.4 3111.8,208.9 3059.8,208.9 3024.1,233.9 3005.8,320.1 
				2959.6,352.4 2942.9,352.4 2973.5,208.9 2921.5,208.9 2885.8,233.9 2855.2,377.3 3147.5,377.3 3225.8,322.5 3250,208.9 
				3198,208.9 			"/>
			<path d="M1921.6,211.7c6.4-4.2,12.4-8.9,17.8-14.3c22.1-22.3,38.7-51.7,38.7-51.7h-87.6c0,0-16.5,29.4-38.7,51.7
				c-4.2,4.3-8.9,8.1-13.7,11.6h-86.5h-8h-7.7l-78.4,54.8l-18.9,88.8c-2.7,12.7,7,24.8,20,24.8h19.8h37.2h97.4h26h56.3l32.1-150.5
				C1928.8,220.7,1926.2,215,1921.6,211.7z M1841,246.4l-22.6,106h-84.7c-6.6,0-11.5-6.1-10.1-12.5l15.7-73.7l46.1-32.3h45.4
				C1837.5,233.9,1842.4,239.9,1841,246.4z"/>
			<path d="M2202.4,208.9h-15H2166h-115.2h-7.5h-8.2l-78.4,54.8l-18.9,88.8c-2.7,12.7,7,24.8,20,24.8h29.2h27.9H2126l34.7-24.9
				h-127.8c-6.6,0-11.5-6.1-10.1-12.5l5.7-26.9h120.4l80.1-56l2.6-12C2235.5,226.4,2221.4,208.9,2202.4,208.9z M2158,246.4
				l-3.3,15.4l-35.1,24.7h-85.4l4.3-20.4l46.1-32.2h63.2C2154.5,233.9,2159.4,239.9,2158,246.4z"/>
			<path d="M2440.9,267.1c-1.1,3.2-2.5,6.3-4.3,9.1l-6.5,10.3h55.9l38.1-26.7c0-20.9-11.2-50.9-58.9-50.9h-122.7l0,0h-8.2
				l-78.4,54.8l-24.2,113.5h82.4l23.7-111.1l46.1-32.2h33C2434.1,233.9,2446.3,250.7,2440.9,267.1z"/>
			<path d="M2801.3,221.3h-17.5h-15.1h-74.9c-10.8-0.3-18.2-7.3-16.5-21.2c3.9-31.2,30.7-47.6,44-47.6h119.9l52.9-37h-198.7l0,0
				c-63.1,0-97.9,46.7-105.3,107.4c-5.3,25,13.7,48.6,39.4,48.6h17.5h15.1h74.9c10.8,0.3,18.2,7.3,16.5,21.2
				c-3.9,30.6-29.6,46.9-43.2,47.5h-244.7l-52.9,37h124.2l-0.1,0.1h198.7l0,0c63.1,0,97.9-46.7,105.3-107.4
				C2845.9,244.9,2826.9,221.3,2801.3,221.3z"/>
			<path d="M3466.9,208.9h-97.4c-48,0-89.7,33.6-99.6,80.6c-10.1,48.3-4.2,91,63.6,87.8h48.2l35.6-24.9h-39.1
				c-20.3,0-35.4-18.7-31.1-38.5l5.7-26.6c6.6-31.1,34.1-53.4,66-53.4h42.8L3431,377.3h82.4l35.9-168.3h-69.8H3466.9z"/>
		</g>
	</g>
</g>
</svg>
