<svg enable-background="new 0 0 3839 493" version="1.1" viewBox="0 0 3839 493" xml:space="preserve" xmlns="http://www.w3.org/2000/svg">
<path fill="#FF0000" d="M 246.11328,0.00195313 C 178.97311,-0.32968717 120.33708,22.249257 86.099609,60.199219 63.799632,84.899194 -12.20057,226.40091 198.69922,359.30078 88.999328,391.70075 0,265.5 0,265.5 137.09986,525.89974 401.6997,534.00068 493.09961,432.80078 515.39959,408.10081 591.40018,266.49909 380.40039,133.69922 490.20028,101.29925 579.09961,227.5 579.09961,227.5 493.53719,64.750163 358.01356,0.55468695 246.11328,0.00195313 Z M 242.65234,108.00586 c 39.26071,1.83603 84.01098,20.81371 122.14844,55.29492 66.57697,60.19422 88.46338,145.04473 49.84375,191.64258 A 91.501981,62.001342 42.073664 0 0 386.13867,250.1875 91.501981,62.001342 42.073664 0 0 276.67188,234.89453 a 91.501981,62.001342 42.073664 0 0 26.375,107.33789 91.501981,62.001342 42.073664 0 0 109.14257,15.58789 C 370.56231,403.42815 282.03672,390.9528 214.40039,329.80078 146.60046,268.50084 125.09926,181.49956 166.69922,135.59961 c 18.19998,-20.08123 45.41702,-29.02178 75.95312,-27.59375 z"/><path d="m2695.4004 115.5c-63.0999 0-97.9008 46.70045-105.3008 107.40039-5.3 24.99998 13.7004 48.59961 39.4004 48.59961h107.5c10.8 0.3 18.2 7.29923 16.5 21.19922-3.9 30.59997-29.5992 46.9-43.1992 47.5h-244.7012l-52.9004 37h124.2012l-0.1 0.10156h198.6996c63.0999 0 97.9008-46.70045 105.3008-107.40039 5.1-24.99997-13.9-48.59961-39.5-48.59961h-107.5c-10.8-0.3-18.2-7.30118-16.5-21.20117 3.9-31.19997 30.7-47.59961 44-47.59961h119.8984l52.9004-37zm-1980.4004 0.09961-46 32.30078-49 229.40039h304.90039l78.40041-54.80078 44.1992-206.90039h-43.1992l-46.10158 32.30078-36.69922 172.09961-46.19922 32.40039h-23l43.59961-204.5 6.90039-32.30078h-43.20117l-46 32.30078-36.69922 172.19922-46.20117 32.30078h-23l43.60156-204.5 6.89844-32.30078zm1175.5 30.09961s-16.4992 29.40119-38.6992 51.70117c-4.2 4.3-8.9012 8.09961-13.7012 11.59961h-102.1992l-78.4004 54.80078-18.9004 88.79883c-2.7 12.69999 7 24.80078 20 24.80078h236.7012l32.0996-150.5c1.4-6.19999-1.2008-11.90117-5.8008-15.20117 6.4-4.2 12.4008-8.89883 17.8008-14.29883 22.1-22.29998 38.6992-51.70117 38.6992-51.70117zm-752.8008 63.20117-78.3984 54.79883-18.9004 88.80078c-2.7 12.69999 7 24.69922 20 24.69922h170.1992l78.4004-54.79883 18.9004-88.80078c2.6-12.69999-7.0996-24.69922-20.0996-24.69922h-161.7012zm232.5 0-35.8984 168.29883h43.1992l46.0996-32.19922 23.7012-111.19922h74.5996c11.7 0 20.4996 10.79884 18.0996 22.29883l-25.8008 121.09961h82.4004l25.8008-121c4.9-24.29998-19.5012-47.29883-52.2012-47.29883h-151.3984zm664.9004 0-78.4004 54.79883-18.8984 88.80078c-2.7 12.69999 7 24.80078 20 24.80078h168.1992l34.6992-24.90039h-127.7988c-6.6 0-11.4996-6.10001-10.0996-12.5l5.6992-26.90039h120.4004l80.0996-56 2.5996-12c3.9-18.59998-10.1992-36.09961-29.1992-36.09961h-159.0996zm299.2012 0-78.4004 54.79883-24.2012 113.5h82.4004l23.7012-111.09961 46.0996-32.19922h33c17.2 0 29.4 16.79924 24 33.19922-1.1 3.2-2.5008 6.29961-4.3008 9.09961l-6.5 10.30078h55.9004l38.0996-26.69922c0-20.89998-11.2004-50.90039-58.9004-50.90039h-122.6992zm587.1992 0-35.6992 25-30.6016 143.40039h292.3008l78.3008-54.80078 24.1992-113.59961h-52l-35.5996 25-18.4004 86.09961-46.1992 32.40039h-16.6016l30.6016-143.5h-52l-35.7012 25-18.2988 86.19922-46.2012 32.30078h-16.6992l30.5996-143.5zm448 0c-48 0-89.6996 33.59966-99.5996 80.59961-10.1 48.29995-4.2003 91.00078 63.5996 87.80078h48.1992l35.6016-24.90039h-39.1016c-20.3 0-35.3996-18.70002-31.0996-38.5l5.7012-26.59961c6.6-31.09997 34.1-53.40039 66-53.40039h42.7988l-30.5996 143.40039h82.4004l35.9004-168.30078h-82.4004v-0.0996zm216.6992 0-35.8984 168.29883h43.1992l46.0996-32.19922 23.7012-111.19922h74.5996c11.8 0 20.4996 10.79884 18.0996 22.29883l-25.8008 121.09961h82.4004l25.8008-121c4.9-24.29998-19.4997-47.29883-52.0996-47.29883h-151.5zm-2399 24.90039h45.4004c6.6 0.1 11.4996 6.09962 10.0996 12.59961l-15.6992 73.69922-46.1992 32.30078h-45.3008c-6.6 0-11.4996-6.10001-10.0996-12.5l15.6992-73.80078zm598.2012 0.0996h45.4004c6.7 0 11.5992 6.00001 10.1992 12.5l-22.5996 106h-84.7012c-6.6 0-11.4996-6.10001-10.0996-12.5l15.7012-73.70117zm299.1992 0h63.2012c6.7 0 11.5992 6.00001 10.1992 12.5l-3.3008 15.40039-35.0996 24.69922h-85.4004l4.3008-20.40039z"/>
</svg>
