<svg enable-background="new 0 0 3839 493" version="1.1" viewBox="0 0 3839 493" xml:space="preserve" xmlns="http://www.w3.org/2000/svg">
<style type="text/css">
	.st0{fill:#FF2727;}
	.st1{fill:#B5B5B5;}
	.st2{fill:#02A5F4;}
	.st3{fill:#FF64B5;}
	.st4{fill:#688AFF;}
	.st5{fill:#FFD52F;}
	.st6{fill:#FFFFFF;}
</style>
<path d="m246.11328 0.001953125c-67.14017-0.331640295-125.7762 22.24730388-160.013671 60.19726588-22.299977 24.699975-98.300179 166.201691 112.599611 299.101561-109.699892 32.39997-198.69922-93.80078-198.69922-93.80078 137.09986 260.39974 401.6997 268.50068 493.09961 167.30078 22.29998-24.69997 98.30057-166.30169-112.69922-299.10156 109.79989-32.39997 198.69922 93.80078 198.69922 93.80078-85.56242-162.749837-221.08605-226.945313-332.98633-227.4980469zm-3.46094 108.0039069c39.26071 1.83603 84.01098 20.81371 122.14844 55.29492 66.57697 60.19422 88.46338 145.04473 49.84375 191.64258a91.501984 62.001343 42.073664 0 0-28.50586-104.75586 91.501984 62.001343 42.073664 0 0-109.46679-15.29297 91.501984 62.001343 42.073664 0 0 26.375 107.33789 91.501984 62.001343 42.073664 0 0 109.14257 15.58789c-41.62714 45.60784-130.15273 33.13249-197.78906-28.01953-67.79993-61.29994-89.30113-148.30122-47.70117-194.20117 18.19998-20.08123 45.41702-29.02178 75.95312-27.59375zm2452.74806 7.49414c-63.0999 0-97.9008 46.70045-105.3008 107.40039-5.3 24.99998 13.7004 48.59961 39.4004 48.59961h17.5 15.0996 74.9004c10.8 0.3 18.2 7.29923 16.5 21.19922-3.9 30.59997-29.5992 46.9-43.1992 47.5h-244.7012l-52.9004 37h124.2012l-0.0996 0.10156h198.6992c63.0999 0 97.9008-46.70045 105.3008-107.40039 5.1-24.99997-13.9-48.59961-39.5-48.59961h-17.5-15.1016-74.8984c-10.8-0.3-18.2-7.30118-16.5-21.20117 3.9-31.19997 30.7-47.59961 44-47.59961h119.8984l52.9004-37h-198.6992zm-1980.4004 0.09961-46 32.30078-49 229.40039h62.40039 20 62.29883 82.20117 62.40039 15.59961l78.40041-54.80078 44.1992-206.90039h-43.1992l-46.10158 32.30078-36.69922 172.09961-46.19922 32.40039h-23l43.59961-204.5 6.90039-32.30078h-43.20117l-46 32.30078-36.69922 172.19922-46.20117 32.30078h-23l43.60156-204.5 6.89844-32.30078h-43.19922zm1175.5 30.09961s-16.4992 29.40119-38.6992 51.70117c-4.2 4.3-8.9012 8.09961-13.7012 11.59961h-86.5-8-7.6992l-78.4004 54.80078-18.9004 88.79883c-2.7 12.69999 7 24.80078 20 24.80078h19.8008 37.1992 97.4004 26 56.3008l32.0996-150.5c1.4-6.19999-1.2008-11.90117-5.8008-15.20117 6.4-4.2 12.4008-8.89883 17.8008-14.29883 22.1-22.29998 38.6992-51.70117 38.6992-51.70117h-87.5996zm-752.8008 63.20117-78.3984 54.79883-18.9004 88.80078c-2.7 12.69999 7 24.69922 20 24.69922h23.9004 33.1992 97.4004 10.0996 5.5996l78.4004-54.79883 18.9004-88.80078c2.6-12.69999-7.0996-24.69922-20.0996-24.69922h-22.7012-34.2988-97.4004-7.3008-8.4004zm232.5 0-35.8984 168.29883h43.1992l46.0996-32.19922 23.7012-111.19922h74.5996c11.7 0 20.4996 10.79884 18.0996 22.29883l-25.8008 121.09961h82.4004l25.8008-121c4.9-24.29998-19.5012-47.29883-52.2012-47.29883h-12.3984-7.9004-97.4004-33.6992-48.6016zm664.9004 0-78.4004 54.79883-18.8984 88.80078c-2.7 12.69999 7 24.80078 20 24.80078h29.1992 27.9004 111.0996l34.6992-24.90039h-127.7988c-6.6 0-11.4996-6.10001-10.0996-12.5l5.6992-26.90039h120.4004l80.0996-56 2.5996-12c3.9-18.59998-10.1992-36.09961-29.1992-36.09961h-15-21.4004-115.1992-7.5-8.2012zm299.2012 0-78.4004 54.79883-24.2012 113.5h82.4004l23.7012-111.09961 46.0996-32.19922h33c17.2 0 29.4 16.79924 24 33.19922-1.1 3.2-2.5008 6.29961-4.3008 9.09961l-6.5 10.30078h55.9004l38.0996-26.69922c0-20.89998-11.2004-50.90039-58.9004-50.90039h-122.6992-8.1992zm587.1992 0-35.6992 25-30.6016 143.40039h292.3008l78.3008-54.80078 24.1992-113.59961h-52l-35.5996 25-18.4004 86.09961-46.1992 32.40039h-16.6016l30.6016-143.5h-52l-35.7012 25-18.2988 86.19922-46.2012 32.30078h-16.6992l30.5996-143.5h-52zm448 0c-48 0-89.6996 33.59966-99.5996 80.59961-10.1 48.29995-4.2003 91.00078 63.5996 87.80078h48.1992l35.6016-24.90039h-39.1016c-20.3 0-35.3996-18.70002-31.0996-38.5l5.7012-26.59961c6.6-31.09997 34.1-53.40039 66-53.40039h42.7988l-30.5996 143.40039h82.4004l35.9004-168.30078h-69.8008-12.5996v-0.09961h-97.4004zm216.6992 0-35.8984 168.29883h43.1992l46.0996-32.19922 23.7012-111.19922h74.5996c11.8 0 20.4996 10.79884 18.0996 22.29883l-25.8008 121.09961h82.4004l25.8008-121c4.9-24.29998-19.4997-47.29883-52.0996-47.29883h-12.5-7.9004-97.4004-33.6992-48.6016zm-2399 24.90039h45.4004c6.6 0.1 11.4996 6.09962 10.0996 12.59961l-15.6992 73.69922-46.1992 32.30078h-45.3008c-6.6 0-11.4996-6.10001-10.0996-12.5l15.6992-73.80078 46.0996-32.29883zm598.2012 0.09961h45.4004c6.7 0 11.5992 6.00001 10.1992 12.5l-22.5996 106h-84.7012c-6.6 0-11.4996-6.10001-10.0996-12.5l15.7012-73.70117 46.0996-32.29883zm299.1992 0h63.2012c6.7 0 11.5992 6.00001 10.1992 12.5l-3.3008 15.40039-35.0996 24.69922h-85.4004l4.3008-20.40039 46.0996-32.19922z"/>
</svg>
