<svg enable-background="new 0 0 499.969 148.364" version="1.1" viewBox="0 0 499.969 148.364" xmlns="http://www.w3.org/2000/svg"><path d="m370.01367 98.699219c-6.18851-0.033812-12.29844 2.586411-15.59375 6.910161-6.26399 8.21799-6.86926 17.25236-3.82226 26.69335 2.95499 9.144 9.4783 13.65607 19.02929 13.66407 8.84599 3e-3 14.93194-4.3094 18.21094-12.90039 0.921-2.425 0.914-2.38583-1.5-3.04883-1.097-0.305-1.76212-0.22922-2.07812 1.05078-0.259 1.036-0.73094 2.02919-1.21094 2.99219-4.825 9.66499-17.22501 11.56115-24.75 3.78515-3.017-3.11199-4.25127-7.00845-4.69727-11.18945-0.697-6.53499-0.11715-12.84022 3.96485-18.32422 3.87999-5.21299 9.20794-6.93753 15.46093-5.89453 5.469 0.914 8.49204 4.68354 10.45704 9.51953 0.92899 2.289 2.36137 0.45466 3.48437 0.34766 1.375-0.137 0.6903-1.14986 0.4043-1.88086-3.23106-8.23862-10.34573-11.686291-17.35938-11.724611zm-49.02344 0.044922c-9.73912-0.003033-17.07475 5.570979-19.75 15.472659-1.33299 4.92399-1.42698 9.93067-0.33398 14.88867 1.702 7.70799 5.81818 13.6338 13.70117 15.8418 7.86799 2.20499 15.42429 1.39466 21.61328-4.61133 5.023-4.878 6.39285-11.2117 6.46485-17.92969 1e-3 -0.696 0.04014-1.39284-0.00586-2.08984-0.807-12.41899-7.29981-20.09963-18.5918-21.390629-1.05647-0.121031-2.09016-0.181327-3.09766-0.18164zm-230.416011 0.003906c-9.796183-0.058016-17.2243 5.558383-19.888672 15.511723-1.320999 4.93199-1.417499 9.93858-0.3125 14.89257 1.713998 7.704 5.84543 13.62251 13.732422 15.8125 7.874992 2.186 15.426615 1.36384 21.599611-4.66015 5.01199-4.886 6.36858-11.2242 6.51758-18.11719-0.023-0.523-0.03889-1.21902-0.08789-1.91602-0.83-12.34998-7.23628-19.96326-18.44727-21.322261-1.061436-0.128906-2.099883-0.19517-3.113281-0.201172zm49.445311 0.007812c-9.67698-0.027191-17.87489 4.533451-21.20898 14.656251-1.329 4.033-1.56424 8.21697-1.24024 12.41797 0.689 8.95699 5.17918 15.40614 13.57617 18.49414 9.80199 3.603 18.94798 1.32918 27.41797-4.38281 0.766-0.518 0.80869-1.19547 0.80469-1.98047-0.011-4.631-0.04547-9.26263 0.01953-13.89063 0.019-1.298-0.3165-1.79714-1.6875-1.74414-2.533 0.099-5.07338 0.02735-7.60937 0.02735-2.601 0-5.20974 0.10389-7.80274-0.03711-1.641-0.087-1.65297 0.73812-1.66797 1.95312-0.015 1.253 0.08832 1.98464 1.69532 1.93164 3.73599-0.122 7.48256 4.5e-4 11.22656-0.06055 1.207-0.01899 1.69415 0.31457 1.66015 1.60157-0.08399 2.78799-0.06481 5.58309-0.00781 8.37109 0.023 1.009-0.33592 1.65041-1.16992 2.19141-2.635 1.702-5.42477 3.04325-8.50977 3.65625-6.94599 1.374-13.40561 0.72165-18.5996-4.77735-5.362-5.67799-6.77453-17.13733-3.01954-25.11132 2.978-6.321 8.01582-9.6074 15.00782-9.90039 7.26199-0.301 12.46058 2.63044 15.26758 9.52343 0.86099 2.106 2.24523 0.20235 3.36523 0.15235 1.31-0.061 0.95892-1.01836 0.66992-1.81836-2.556-7.098-7.91663-10.418144-15.14062-11.119144-1.029-0.099937-2.04581-0.151484-3.04688-0.154297zm78.08399 0.007813c-9.26017-0.299092-17.05095 3.988208-20.5 13.806638-1.104 3.146-1.51229 6.41329-1.36329 9.73828 0 1.078-0.07928 2.16438 0.01172 3.23438 0.861 10.14899 6.82128 19.10853 18.32227 20.26953 10.83099 1.093 19.68567-3.80287 22.88867-14.75586 1.081-3.705 1.32755-7.49455 1.06055-11.31055-0.765-10.93299-6.96784-19.74533-18.54883-20.861324-0.62956-0.060438-1.25375-0.101155-1.87109-0.121094zm-215.1152388 0.603516c-0.7244992-0.011875-1.4785631 0.200234-2.16406245 0.240234-1.29099871 0.072-0.67373438 1.433498-0.67773437 2.187498-0.03899997 13.70899-0.01278129 27.41316-0.050781255 41.11914-0.007999992 1.516 0.057642625 2.41514 2.056640675 2.36914 1.8199981-0.042 2.1772031-0.61592 2.1582031-2.29492-0.1489999-11.54699-0.2052501-23.09364-0.28125-34.64062-4e-3 -0.415-0.2250463-0.90907 0.3769531-1.16407 0.7159993 0.449 1.0469067 1.22844 1.5039062 1.89844 7.6619928 11.28399 15.3699768 22.54236 22.9179688 33.90235 1.194999 1.79699 2.460424 2.36134 4.482422 2.27734 1.389998-0.061 1.648531-0.51921 1.644531-1.7832-0.038-14.08699-0.060609-28.17178 0.025391-42.25977 0.011-1.781998-0.811455-1.760469-2.064453-1.730469-1.222999 0.03-2.292094-0.224857-2.246094 1.744139 0.194 9.07099 0.234453 18.14385 0.314453 27.21485 0.031 3.19499 0.007813 6.3873 0.007813 9.65429-0.952-0.217-1.129845-0.89572-1.464844-1.38672-5.921994-8.70899-11.824381-17.42949-17.734375-26.14648-2.277998-3.363-4.5902681-6.70271-6.8222659-10.0957-0.5634994-0.856503-1.2579226-1.093598-1.9824219-1.105472zm64.7421878 0.09375c-8.560992 0.101999-17.126509 0.080718-25.6875 0.011718-1.469999-0.012-1.800156 0.455799-1.785157 1.841794 0.065 6.977 0.025391 13.9527 0.025391 20.92969s0.042703 13.95465-0.029297 20.93164c-0.015 1.508 0.281127 2.08531 1.953125 2.07031 8.750991-0.088 17.504868-0.07981 26.25586-0.00781 1.507998 0.015 1.9145-0.39248 1.9375-1.89648 0.023-1.622-0.486877-1.99952-2.046875-1.97852-7.292993 0.08-14.58982 0.00141-21.882813 0.06641-1.427998 0.011-2.00275-0.29419-1.96875-1.86719 0.099-4.753 0.087813-9.51254 0.007813-14.26953-0.023-1.409 0.372501-1.84313 1.8125-1.82813 6.466993 0.076 12.938209-0.01873 19.408203 0.07227 1.538998 0.022 1.930484-0.43802 1.896484-1.91602-0.03-1.36699-0.194845-2.00356-1.839844-1.97656-6.404993 0.11-12.81285 0.00417-19.214843 0.07617-1.515999 0.019-2.118266-0.30094-2.072266-1.96093 0.118-4.182 0.099719-8.37165 0.011719-12.55665-0.034-1.47699 0.385204-1.94087 1.908203-1.92187 7.101993 0.08 14.204648-0.01173 21.30664 0.07227 1.495999 0.015 1.818719-0.47666 1.761719-1.84766-0.053-1.26-0.001814-2.067922-1.757812-2.044922zm332.630861 0.003906c-0.35565-0.008531-0.75238 0.064-1.10938 0.0625-0.959-4e-3 -2.16425-0.506373-2.15625 1.390626 0.057 14.26898 0.0611 28.54342-0.0039 42.81641-7e-3 2.04199 1.29897 1.38698 2.29297 1.45898 1.07799 0.076 2.08701 0.24365 2.04101-1.52734-0.122-4.562-0.01145-9.13127-0.06445-13.69727-0.015-1.169 0.27422-2.02759 1.19922-2.80859 1.94199-1.63 3.85453-3.30366 5.64453-5.09766 1.169-1.173 1.79009-1.00656 2.74609 0.27344 5.355 7.15999 10.78794 14.2611 16.21094 21.37109 0.442 0.582 0.73577 1.43589 1.63477 1.46289 1.54599 0.045 3.09643 0.01172 5.02343 0.01172-0.61-0.837-0.95303-1.34817-1.33203-1.82617-6.27199-7.89799-12.52771-15.80407-18.8457-23.66406-0.887-1.104-0.99536-1.76791 0.18164-2.75391 2.426-2.034 4.72236-4.23028 7.06836-6.36328 3.88899-3.53 7.77797-7.06432 12.04297-10.945314-3.313-0.221-5.72947-0.278169-8.10547 2.048824-7.06399 6.92-14.45924 13.50404-21.74024 20.20704-0.396 0.366-0.75703 1.10576-1.33203 0.88476-0.739-0.286-0.35537-1.1125-0.35937-1.6875-0.027-6.72499-0.06438-13.44988 0.01562-20.17187 0.01688-1.190003-0.45999-1.431098-1.05273-1.445316zm-233.81055 0.001953c-1.546-0.015-1.73756 0.578763-1.72656 1.884763 0.05 6.981 0.02344 13.96237 0.02344 20.94336 0 7.04499 0.03775 14.08977-0.03125 21.13477-0.015 1.417 0.36869 1.81568 1.80468 1.80469 8.81999-0.065 17.64486-0.0721 26.46485 0.0039 1.569 0.015 1.87739-0.50613 1.90039-1.95312 0.019-1.512-0.41869-1.93888-1.92969-1.92188-7.36099 0.076-14.72599-0.01173-22.08398 0.07227-1.55 0.019-1.92453-0.45065-1.89454-1.93164 0.091-4.696 0.11019-9.39395-0.00781-14.08594-0.042-1.668 0.55255-1.97408 2.06055-1.95508 6.40999 0.077 12.82343-0.01964 19.23242 0.06836 1.516 0.023 1.78658-0.52514 1.76758-1.86914-0.019-1.333-0.13836-2.04263-1.81836-2.01563-6.53499 0.107-13.07438 0.01732-19.60938 0.07032-1.24899 0.011-1.63618-0.35824-1.61718-1.61524 0.069-4.31499 0.10237-8.63431-0.01563-12.94531-0.042-1.577 0.49627-1.88805 1.94727-1.87305 7.04499 0.064 14.08977-0.02673 21.13476 0.07227 1.641 0.023 1.84313-0.62119 1.82813-1.99219-0.011-1.283-0.15561-1.911483-1.72461-1.896483-8.56899 0.084-17.13609 0.08-25.70508 0zm331.92774 0.001953c-9.76499 0.078-19.52994 0.066859-29.29493 0.005859-1.45799-0.01-1.68514 0.601501-1.61914 1.812501 0.06 1.086-0.18759 2.12059 1.56641 2.05859 3.42-0.121 6.84953 0.05069 10.26953-0.07031 1.682-0.059 2.28309 0.32521 2.24609 2.1582-0.126 6.212-0.04882 12.42859-0.04882 18.64258 0 6.468-0.00524 12.93535 0.00976 19.40235 1e-3 0.546-0.26587 1.37945 0.32813 1.56445 1.143 0.356 2.42269 0.36467 3.55468 0.01367 0.803-0.249 0.40721-1.23005 0.40821-1.87305 0.022-12.68198 0.03528-25.36488-0.01172-38.04687-5e-3 -1.382 0.33292-1.89642 1.79492-1.85742 3.612 0.097 7.2318-0.05064 10.8418 0.06836 1.708 0.056 1.41064-0.96994 1.43164-1.96094 0.021-1.041 0.17943-1.93097-1.47656-1.91797zm-35.25196 0.001953c-8.62999 0.077-17.25487 0.064813-25.88086 0.007813-1.39-0.012-1.68778 0.483767-1.67578 1.759764 0.053 7.04099 0.02149 14.08206 0.02149 21.12305 0 6.97699 0.0427 13.95855-0.0293 20.93555-0.015 1.47399 0.33867 1.9524 1.88867 1.9414 8.81599-0.072 17.63714-0.08319 26.45313 0.00781 1.66399 0.016 1.76536-0.667 1.81836-2 0.065-1.54299-0.4706-1.89681-1.9336-1.88281-7.35699 0.069-14.71818-0.00559-22.07617 0.06641-1.52 0.016-1.94211-0.44246-1.91211-1.93946 0.091-4.69199 0.088-9.38613 0-14.07812-0.027-1.478 0.36139-1.97222 1.90039-1.94922 6.47099 0.08 12.94016-0.02469 19.41016 0.07031 1.6 0.027 1.856-0.54003 1.875-1.95703 0.019-1.481-0.36621-1.94478-1.90821-1.92578-6.47099 0.092-12.94211 0.00336-19.41211 0.06836-1.37099 0.011-1.89923-0.30806-1.86523-1.78906 0.095-4.246 0.10309-8.5001-0.00391-12.7461-0.038-1.55699 0.48722-1.91539 1.94922-1.90039 7.106 0.065 14.21246-0.01554 21.31446 0.06446 1.54699 0.019 1.76828-0.59421 1.73828-1.90821-0.031-1.215-0.04188-1.983747-1.67188-1.968747zm-372.681638 2.521487c5.204995-0.08613 10.494068 2.27803 13.664058 7.08203 2.643 4.00999 3.53899 8.50082 3.45899 13.38281 0.118 4.395-0.80432 8.6878-3.19531 12.5918-6.267997 10.23699-21.282213 10.28602-27.158207-0.16797-4.641995-8.25999-4.610683-17.02454 0.070313-25.26953 2.834997-4.9965 7.955161-7.53302 13.160156-7.61914zm231.195308 0.05469c5.02737 0.10424 10.02534 2.47331 13.04883 7.07031 2.346 3.56799 3.41992 7.7321 3.41992 13.24609 0.113 4.68-0.86883 9.07683-3.42382 13.04883-6.105 9.49799-19.99326 9.71572-26.40625 0.42773-5.031-7.28899-4.96628-20.00958 0.13671-27.26757 3.14-4.469 8.19724-6.62964 13.22461-6.52539zm-104.26367 0.07031c5.8049 0.01847 11.73636 2.91205 14.60352 9.52929 1.493 3.446 2.07387 7.03782 2.04687 10.75782 0.011 5.14099-1.06395 9.96991-4.25195 14.1289-6.41299 8.35899-19.28493 8.13007-25.41992-0.41992-5.305-7.39199-5.08056-20.47707 0.14844-27.91406 2.72765-3.8775 7.75107-6.09833 12.87304-6.08203z"/><path d="m289.22852 0c-0.56039-0.023906226-0.91638 0.29478201-1.04688 1.0507812-0.029 0.1849999-0.05789 0.3696877-0.08789 0.5546876 0.119 0.3549996 0.07956 0.6872346-0.14844 0.9902343-0.033 0.1819998-0.06465 0.3658283-0.09765 0.5488281-0.412 2.8599972-0.81229 5.722081-1.23828 8.5800778-0.861 5.771995-1.73015 11.542553-2.61915 17.310547-0.098 0.634 0.05218 0.958938 0.70118 1.085938 1.96499 0.384999 3.92481 0.789031 5.88281 1.207031 0.968 0.206 1.12919-0.491673 1.36719-1.138672 2.70999-7.358993 5.42276-14.718179 8.13476-22.0761718 0.604-1.6399983 1.21755-3.2759235 1.81055-4.9199218 0.166-0.4599996 0.49533-0.9442036-0.01367-1.4082032-0.183-0.0329999-0.36778-0.0666094-0.55078-0.0996093-0.433 0.1059999-0.85215 0.0995154-1.24415-0.1464844-0.18199-0.034-0.36487-0.0675625-0.54687-0.1015625-0.354 0.1099999-0.68914 0.0903748-0.99414-0.140625-0.181-0.03-0.36102-0.0617969-0.54102-0.0917969-0.521 0.1019999-1.02704 0.0926404-1.49804-0.1933593-0.184-0.03400002-0.36874-0.06951571-0.55274-0.10351568-0.354 0.11999988-0.68623 0.08242166-0.99023-0.14257812-0.182-0.02899997-0.36488-0.0559844-0.54688-0.08398438-0.438 0.11499989-0.85909 0.09489037-1.24609-0.16210937-0.267-0.04799995-0.53378-0.09457817-0.80078-0.14257813-0.35 0.12899988-0.68124 0.09485917-0.99024-0.11914062-0.182-0.02699997-0.36292-0.05407815-0.54492-0.08007812-0.325-0.01-0.6777 0.05903114-0.9707-0.04296876-0.23175-0.080499914-0.44016-0.126796878-0.62695-0.13476562zm29.23046 8.9941406c-0.34352-0.0106054-0.58093 0.2646099-0.86718 0.7558594-4.642 7.960992-9.31766 15.902477-13.97266 23.855469-0.271 0.462999-0.67122 0.913203-0.44922 1.533203 1.821 1.097999 3.66108 2.165595 5.45508 3.308594 0.768 0.488999 1.22355 0.391593 1.81055-0.316407 4.78199-5.776994 9.60397-11.52049 14.41797-17.271484 0.326-0.39 0.68434-0.752907 1.02734-1.128906 0.77-0.962999 1.49627-1.964954 2.32226-2.876953 0.608-0.671 0.45268-1.013516-0.23632-1.478516-2.936-1.978998-5.86224-3.974111-8.74024-6.0371094-0.31687-0.2272497-0.56146-0.3373867-0.76758-0.34375zm19.86719 17.8691404c-0.23837-0.005009-0.5165 0.154407-0.89844 0.496094-6.70899 6.002994-13.45152 11.971443-20.22851 17.898437-0.797 0.697-0.66889 1.222876-0.21289 1.921876 1.188 1.760998 2.43506 3.483923 3.53906 5.294921 0.62 1.017999 1.08911 1.184765 2.16211 0.509766 6.59599-4.150996 13.24305-8.218457 19.87305-12.314453 0.784-0.512 1.53833-1.081532 2.36133-1.519531 0.79899-0.425 0.85504-0.822032 0.37304-1.582032-2.079-3.277996-4.12319-6.581112-6.11719-9.912109-0.30487-0.509624-0.54508-0.786529-0.85156-0.792969zm-56.57226 12.091797c-2.86925 0.064346-5.77798 0.509767-8.65625 1.373047-3.386 1.016999-6.35787 2.88158-9.50586 4.392578-10.34499 4.963995-20.721 9.864068-31.08399 14.789063-2.29 1.088999-2.28761 1.091939-1.22461 3.335937 0.071 0.148 0.09468 0.321422 0.13868 0.482422 2.40699 4.850995 4.82984 9.695645 7.21484 14.556641 11.32299 23.058974 22.63518 46.122524 33.95117 69.187504 0.753 1.53399 0.75489 1.53228 2.33789 0.86328 1.883-0.794 3.76735-1.58491 5.65234-2.37891 0.113-0.029 0.2249-0.05884 0.3379-0.08984 0.134-0.082 0.26739-0.16319 0.40039-0.24219 0.458-0.226 0.891-0.53125 1.375-0.65625 1.30399-0.345 1.35962-0.90603 0.76562-2.08203-6.86699-13.53699-13.67338-27.10103-20.48437-40.66602-1.947-3.879994-3.84658-7.785642-5.76758-11.681638-0.327-0.228-0.51149-0.535501-0.52149-0.9375-0.056-0.11-0.11197-0.220078-0.16797-0.330078l-0.09179-0.039063 0.02734-0.089843c-0.061-0.123-0.1265-0.248954-0.1875-0.376954-0.256-0.163999-0.32208-0.419172-0.33008-0.701172l-0.0039-0.091796c-0.085-0.141-0.16891-0.278922-0.25391-0.419922l-0.0039-0.091797c-0.085-0.141-0.16501-0.278922-0.25-0.419922l-0.00977-0.087891-8.4375-16.708984c-0.062-0.062-0.14278-0.109594-0.17578-0.183594-1.662-3.585996-2.11273-2.565705 1.32226-4.345703 7.158-3.715996 14.3577-7.354144 21.55469-10.994141 4.244-2.148997 8.74054-3.420546 13.51953-3.435546 6.716-0.023 11.95521 2.774333 15.53321 8.486328 4.15399 6.627993 5.2149 13.53521 1.6289 20.783203-0.128 0.261-0.32623 0.485563-0.49023 0.726562v0.003907c0.023 0.056-5.48224 7.886455-8.11524 10.189453-2.66399 2.327997-2.70586 2.298373-5.63086 0.234375-4.14199-2.922997-8.26578-5.8743-12.42578-8.779297-0.71-0.494-0.94758-0.987501-0.64258-1.8125 0.34-0.914999 1.4551-5.218328 1.6211-5.361328 0.336-1.311999 0.6919-2.619548 1.0039-3.935547 0.179-0.755999 0.74088-0.69336 1.29688-0.69336 3.35 1e-6 6.70274 0.015188 10.05273-0.007812 1.442-0.01 2.88132-0.108063 4.32032-0.164062 0.013-2.074998 0.0069-10.814126 0.0039-11.078126-0.364-0.488999-0.88648-0.386531-1.39648-0.394531-2.372-0.023-17.16255 0.128907-22.18555 0.128907-0.092 0.071999-0.1843 0.14675-0.2793 0.21875 0 0-1.72762 4.594015-1.76562 4.666015-0.904 3.244997-2.18916 6.358113-3.28516 9.537109-0.998 2.901998-2.01537 5.798066-3.10937 8.664063-0.354 0.928999-0.13625 1.456594 0.59375 2.058594 7.14599 5.869994 14.26854 11.772021 21.39453 17.666011 1.414 1.168 2.8527 2.30535 4.2207 3.52735 0.753 0.673 1.41068 0.81325 2.38867 0.40625 7.597-3.176 14.31684-7.533962 19.42383-14.126955 0.1-0.13 0.25677-0.213359 0.38477-0.318359l0.00195-0.003907c0.023-0.307999 8.19173-10.306156 6.05274-25.99414-2.19966-16.135015-16.54319-26.904111-32.03711-26.556641z" fill="#b81f14"/></svg>
