<svg enable-background="new 0 0 3840 1211.1" version="1.1" viewBox="0 0 3840 1211.1" xml:space="preserve" xmlns="http://www.w3.org/2000/svg">
<path d="m2193 0-32.6992 242.09961 63.6992 14 71.9004-233.500001-102.9004-22.599609zm208.5996 66.199219-112.0996 217.101561 55.4004 34.59961 146.0996-195.80078-89.4004-55.900391zm172.5 134.400391-182.1992 162.80078 39.2988 52.09961 206.4004-130.80078-63.5-84.09961zm-472.1465 156.82227c-37.8361 0.55626-76.1414 9.42228-112.2539 27.47851l-188.5 94.29883-71.5996 35.90039-14.1992 7.09961 344.6992 688.80078 85.8008-43-301.8008-603 188.5-94.30078c80.7999-40.39996 179.3012-7.49953 219.7012 73.40039 40.3999 80.79992 7.6983 179.09965-73.1016 219.59961 0 0-13.3992 6.2-20.1992 8.5l-110.6992-95.5 21.3984-67.69922 120-1.30078-1-96-189.5 2.10156-61.5 194.39844 4.3008 3.70117 208.1992 179.90039c19.8-9.89999 81.3008-46.60156 81.3008-46.60156 121.6999-66.89993 169.6999-218.70013 107-344-46.2156-92.35928-139.8545-145.19891-236.5469-143.77734zm-1426.75388 410.3789c-93.09991 0-168.5 75.50009-168.5 168.5 0 92.99992 75.50009 168.50002 168.5 168.50002s168.5-75.5001 168.5-168.50002c0-92.99991-75.50009-168.5-168.5-168.5zm368.30078 0c-93.09991 0-168.5 75.50009-168.5 168.5 0 92.99992 75.50009 168.50002 168.5 168.50002 91.0999 0 165.2004-72.3017 168.4004-162.60158h-35.8008-184.69921v36.10156h178.19921c-17.6 52.79992-67.3997 91.00002-126.0996 91.00002-73.49993 0-133-59.6001-133-133.00002 0-73.39993 59.60007-133 133-133 45.7 0 86 23.09926 110 58.19922h41c-27.6-55.49994-84.8001-93.69922-151-93.69922zm577.1992 0c-93.0999 0-168.5 75.50009-168.5 168.5 0 92.99992 75.5001 168.50002 168.5 168.50002 93.0999 0 168.5-75.5001 168.5-168.50002 0-92.99991-75.4001-168.5-168.5-168.5zm883.9004 0c-93.0999 0-168.5 75.50009-168.5 168.5 0 92.99992 75.5001 168.50002 168.5 168.50002 93.0999 0 168.5-75.5001 168.5-168.50002 0-92.99991-75.5001-168.5-168.5-168.5zm368.3008 0c-93.0999 0-168.5 75.50009-168.5 168.5 0 92.99992 75.5001 168.50002 168.5 168.50002 66.5999 0 124.2-38.6012 151.5-94.7012h-40.9004c-23.9 35.7-64.4993 59.2012-110.6992 59.2012-73.4999 0-133-59.6001-133-133.00002 0-73.39993 59.6001-133 133-133 46.1999 0 86.7992 23.49926 110.6992 59.19922h40.9004c-27.4-56.09994-84.9001-94.69922-151.5-94.69922zm-2872.9004 9.09961v318.90041h36.099609v-264.60158l184.099611 264.60158h35.20117v-318.90041h-36.09961v254.29881l-176.900389-254.29881h-42.400391zm306.59961 0v36.09961 100.80078 36.09961 109.69921 36.2012h0.70117 35.5 141.79883v-36.2012h-141.79883v-109.69921h132.5v-0.30078-35.79883h-132.5v-100.80078h141.79883v-36.09961h-141.79883-36.20117zm936.40039 0v36.09961 100.80078 36.09961 109.69921 36.2012h0.6992 35.4004 141.9004v-36.2012h-141.9004v-109.69921h132.5996v-0.30078-35.79883h-132.5996v-100.80078h141.9004v-36.09961h-141.9004-36.0996zm1812.5996 0v318.90041h36.0996v-91.1016l42.8008-42.79881 133.9004 133.90041h51.0996l-159.4004-159.50002 159.4004-159.40039h-51.0996l-176.7012 176.69922v-176.69922h-36.0996zm295.0996 0v36.09961 100.80078 36.09961 109.69921 36.2012h0.7012 35.4004 141.8984v-36.2012h-141.8984v-109.69921h132.5996v-0.30078-35.79883h-132.5996v-100.80078h141.8984v-36.09961h-141.8984-36.1016zm229.1016 0v36.09961h112v282.8008h36.1992v-282.8008h112v-36.09961h-112-36.1992-112zm-2904.60158 26.40039c73.49993 0 133 59.60007 133 133 0 73.39992-59.60007 133.00002-133 133.00002-73.49993 0-133-59.6001-133-133.00002 0-73.39993 59.60007-133 133-133zm945.49998 0c73.4999 0 133 59.60007 133 133 0 73.39992-59.5001 133.00002-133 133.00002s-133-59.6001-133-133.00002c0-73.39993 59.6001-133 133-133zm883.9004 0c73.4999 0 133 59.60007 133 133 0 73.39992-59.6001 133.00002-133 133.00002-73.4999 0-133-59.6001-133-133.00002 0-73.39993 59.6001-133 133-133z"/>
</svg>
