<svg enable-background="new 0 0 3839 508.2" version="1.1" viewBox="0 0 3839 508.2" xml:space="preserve" xmlns="http://www.w3.org/2000/svg">
<path d="m1672.3008 0c-38.5 2.368471e-15 -71.6012 6.9008092-99.2012 20.800781-27.7 13.799972-50.5004 32.299265-68.4004 55.699219-17.9 23.299954-31.1984 50.39967-39.8984 81.09961s-13.1016 62.80084-13.1016 96.30078c0 31.59994 3.7008 62.49889 11.3008 92.79883s20.1 57.40004 37.5 81.5c17.5 24.09994 40.4008 43.4016 68.8008 58.10156 28.4 14.69998 63.4992 22 105.1992 22 28 0 53.4992-3.7008 76.6992-11.30078 23.1-7.59998 43.1008-18.79924 59.8008-33.69922 16.7-14.89996 29.9-33.20121 39.5-54.70117 9.6-21.59996 15.1-46.29889 16.5-74.29883h-63.3008c-2.3 37.59992-14.5988 67.69848-36.7988 90.39844s-52.8008 34-91.8008 34c-51.2998 0-90.3004-18.09891-116.9004-54.29883s-39.8984-88.29975-39.8984-156.09961c0-63.69988 13.5984-112.90084 40.8984-147.80078 27.3-34.89993 67.3002-52.300781 120-52.300781 41.7 0 73.6016 12.301612 95.6016 37.101562 22 24.799959 34.0984 57.100079 36.3984 96.999999h53.6016v-174.7011706h-49.5v71.4003906c-11-25.19995-28.6004-44.700417-52.9004-58.400391-24.3-13.6999718-54.2998-20.599609-90.0996-20.599609zm-1655.101581 7.5a17.200001 17.200001 0 0 0-17.199219 17.199219 17.200001 17.200001 0 0 0 17.199219 17.201172 17.200001 17.200001 0 0 0 11.162109-4.125 17.200001 17.200001 0 0 0-5.361328 12.423828 17.200001 17.200001 0 0 0 4.970703 12.033203 17.200001 17.200001 0 0 0-10.771484-3.832031 17.200001 17.200001 0 0 0-17.199219 17.199218 17.200001 17.200001 0 0 0 17.199219 17.201172 17.200001 17.200001 0 0 0 17.201172-17.201172 17.200001 17.200001 0 0 0-4.962891-12.02539 17.200001 17.200001 0 0 0 10.761719 3.826172 17.200001 17.200001 0 0 0 17.201172-17.201172 17.200001 17.200001 0 0 0-5.132813-12.251953 17.200001 17.200001 0 0 0 10.931641 3.953125 17.200001 17.200001 0 0 0 17.201172-17.201172 17.200001 17.200001 0 0 0-17.201172-17.199219 17.200001 17.200001 0 0 0-17.199219 17.199219 17.200001 17.200001 0 0 0 5.330078 12.392578 17.200001 17.200001 0 0 0-11.130859-4.091797 17.200001 17.200001 0 0 0-11.16211 4.125 17.200001 17.200001 0 0 0 5.363282-12.425781 17.200001 17.200001 0 0 0-17.201172-17.199219zm92.000001 0a17.200001 17.200001 0 0 0-17.19922 17.199219 17.200001 17.200001 0 0 0 17.19922 17.201172 17.200001 17.200001 0 0 0 17.20117-17.201172 17.200001 17.200001 0 0 0-17.20117-17.199219zm46 0a17.200001 17.200001 0 0 0-17.19922 17.199219 17.200001 17.200001 0 0 0 17.19922 17.201172 17.200001 17.200001 0 0 0 11.16211-4.125 17.200001 17.200001 0 0 0-5.36133 12.423828 17.200001 17.200001 0 0 0 17.19922 17.201172 17.200001 17.200001 0 0 0 10.76758-3.830079 17.200001 17.200001 0 0 0-4.9668 12.029297 17.200001 17.200001 0 0 0 17.19922 17.201172 17.200001 17.200001 0 0 0 17.20117-17.201172 17.200001 17.200001 0 0 0-5.80273-12.865234 17.200001 17.200001 0 0 0 11.60156 4.666016 17.200001 17.200001 0 0 0 17.20117-17.201172 17.200001 17.200001 0 0 0-6.25586-13.265625 17.200001 17.200001 0 0 0 12.05469 4.966797 17.200001 17.200001 0 0 0 17.20117-17.201172 17.200001 17.200001 0 0 0-17.20117-17.199219 17.200001 17.200001 0 0 0-17.19922 17.199219 17.200001 17.200001 0 0 0 5.01562 12.130859 17.200001 17.200001 0 0 0-10.8164-3.830078 17.200001 17.200001 0 0 0-17.19922 17.199219 17.200001 17.200001 0 0 0 4.93164 12.005859 17.200001 17.200001 0 0 0-10.73242-3.804687 17.200001 17.200001 0 0 0-10.76758 3.830078 17.200001 17.200001 0 0 0 4.96875-12.03125 17.200001 17.200001 0 0 0-5.13281-12.251953 17.200001 17.200001 0 0 0 10.93164 3.953125 17.200001 17.200001 0 0 0 17.20117-17.201172 17.200001 17.200001 0 0 0-17.20117-17.199219 17.200001 17.200001 0 0 0-17.19922 17.199219 17.200001 17.200001 0 0 0 5.33008 12.392578 17.200001 17.200001 0 0 0-11.13086-4.091797 17.200001 17.200001 0 0 0-11.16211 4.125 17.200001 17.200001 0 0 0 5.36328-12.425781 17.200001 17.200001 0 0 0-17.20117-17.199219zm138 0a17.200001 17.200001 0 0 0-17.19922 17.199219 17.200001 17.200001 0 0 0 17.19922 17.201172 17.200001 17.200001 0 0 0 17.20117-17.201172 17.200001 17.200001 0 0 0-17.20117-17.199219zm46 0a17.200001 17.200001 0 0 0-17.19922 17.199219 17.200001 17.200001 0 0 0 17.19922 17.201172 17.200001 17.200001 0 0 0 17.20117-17.201172 17.200001 17.200001 0 0 0-17.20117-17.199219zm46.10156 0a17.200001 17.200001 0 0 0-17.20117 17.199219 17.200001 17.200001 0 0 0 5.33398 12.396484 17.200001 17.200001 0 0 0-11.13281-4.095703 17.200001 17.200001 0 0 0-17.20117 17.199219 17.200001 17.200001 0 0 0 17.20117 17.201172 17.200001 17.200001 0 0 0 10.76172-3.826172 17.200001 17.200001 0 0 0-4.96289 12.02539 17.200001 17.200001 0 0 0 17.20117 17.201172 17.200001 17.200001 0 0 0 17.19922-17.201172 17.200001 17.200001 0 0 0-17.19922-17.199218 17.200001 17.200001 0 0 0-10.76953 3.830078 17.200001 17.200001 0 0 0 4.96875-12.03125 17.200001 17.200001 0 0 0-5.13086-12.25 17.200001 17.200001 0 0 0 10.93164 3.951172 17.200001 17.200001 0 0 0 17.19922-17.201172 17.200001 17.200001 0 0 0-17.19922-17.199219zm129 0.0996094v45.3007816h68.79883v401.599609h-69.5v45.40039h242.09961c27.59994 0 50.70004-4.10041 69.5-12.40039s34.20158-18.90002 46.10156-32 20.49883-27.69924 25.79883-43.69922c5.29998-16.09996 7.90039-31.70082 7.90039-46.80078 0-35.69992-9.20004-64.59965-27.5-86.59961s-44.19928-34.10039-77.69922-36.40039c13.69998-1.8 26.29885-5.80002 37.79883-12s21.29963-14.09924 29.59961-23.69922c8.19998-9.59998 14.50039-20.60002 18.90039-33 4.3-12.39998 6.5-25.9016 6.5-40.60156 0-11.89998-1.5-25.10003-4.5-39.500001-3-14.399972-9.19963-27.998464-18.59961-40.898438s-22.70043-23.500016-39.90039-32c-17.19996-8.499982-39.79928-12.7011716-67.69922-12.7011716h-247.59961zm458.69922 0v45.3007816h68.9004v401.599609h-69.50001v45.40039h242.00001c27.6 0 50.7-4.10041 69.5-12.40039s34.1996-18.90002 46.0996-32 20.5008-27.69924 25.8008-43.69922c5.3-16.09996 7.8984-31.70082 7.8984-46.80078 0-35.69992-9.2-64.59965-27.5-86.59961s-44.1992-34.10039-77.6992-36.40039c13.7-1.8 26.3008-5.80002 37.8008-12s21.2996-14.09924 29.5996-23.69922c8.2-9.59998 14.5004-20.60002 18.9004-33 4.3-12.39998 6.5-25.9016 6.5-40.60156 0-11.89998-1.5-25.10003-4.5-39.500001-3-14.399972-9.2016-28.098464-18.6016-40.898438-9.4-12.899974-22.6984-23.500016-39.8984-32-17.2-8.499982-39.8012-12.7011716-67.7012-12.7011716h-247.5996zm1063.8008 0v45.3007816h70.7988v401.599609h-70.7988v45.40039h187v-45.40039h-64v-401.599609h4.7988l146.5 446.999999h53.5996l146.5-446.999999h4.8008v401.699219h-63.3008v45.40039h191.2012v-45.40039h-70.0996v-401.59961h70.0996v-45.4003906h-173.3008l-131.2988 420.8007806-127.2012-420.8007806h-175.2988zm705.3984 0v57.7011716h64v-57.7011716h-64zm-2099.29881 45.4003906h100.5c18.29996 0 33.19924 2.300399 44.69922 6.900391 11.49998 4.59999 20.60119 10.600406 27.20117 17.90039 6.59998 7.299986 11.09844 15.798455 13.39844 25.398439 2.3 9.69998 3.40039 19.50158 3.40039 29.60156 0 10.49998-1.5 21.29885-4.5 32.29883s-8.39924 21.00041-16.19922 29.90039-18.29963 16.30002-31.59961 22-30.10082 8.49961-50.30078 8.59961h-86.59961v-172.59961zm458.69921 0h100.4004c18.3 0 33.1992 2.300399 44.6992 6.900391 11.5 4.59999 20.6012 10.600406 27.2012 17.90039 6.6 7.299986 11.1004 15.798455 13.4004 25.398439 2.3 9.69998 3.3984 19.50158 3.3984 29.60156 0 10.49998-1.5 21.29885-4.5 32.29883s-8.3992 21.00041-16.1992 29.90039-18.2996 16.30002-31.5996 22-30.0012 8.49961-50.2012 8.59961h-86.5996v-172.59961zm-992.40038 5.400391a17.200001 17.200001 0 0 0-17.19922 17.199218 17.200001 17.200001 0 0 0 5.330078 12.392579 17.200001 17.200001 0 0 0-11.130859-4.091797 17.200001 17.200001 0 0 0-17.199219 17.199219 17.200001 17.200001 0 0 0 17.199219 17.20117 17.200001 17.200001 0 0 0 10.871093-3.93359 17.200001 17.200001 0 0 0-5.070312 12.13281 17.200001 17.200001 0 0 0 17.19922 17.19922 17.200001 17.200001 0 0 0 17.20117-17.19922 17.200001 17.200001 0 0 0-4.96289-12.02539 17.200001 17.200001 0 0 0 10.76172 3.82617 17.200001 17.200001 0 0 0 17.20117-17.20117 17.200001 17.200001 0 0 0-17.20117-17.199219 17.200001 17.200001 0 0 0-11.00391 4.007812 17.200001 17.200001 0 0 0 5.20508-12.308594 17.200001 17.200001 0 0 0-17.20117-17.199218zm184 0a17.200001 17.200001 0 0 0-17.19922 17.199218 17.200001 17.200001 0 0 0 5.33008 12.392579 17.200001 17.200001 0 0 0-11.13086-4.091797 17.200001 17.200001 0 0 0-17.19922 17.199219 17.200001 17.200001 0 0 0 17.19922 17.20117 17.200001 17.200001 0 0 0 10.76562-3.82812 17.200001 17.200001 0 0 0-4.96484 12.02734 17.200001 17.200001 0 0 0 17.19922 17.19922 17.200001 17.200001 0 0 0 17.20117-17.19922 17.200001 17.200001 0 0 0-5.80273-12.86523 17.200001 17.200001 0 0 0 11.60156 4.66601 17.200001 17.200001 0 0 0 17.20117-17.20117 17.200001 17.200001 0 0 0-17.20117-17.199219 17.200001 17.200001 0 0 0-17.19922 17.199219 17.200001 17.200001 0 0 0 4.93164 12.00391 17.200001 17.200001 0 0 0-10.73242-3.80274 17.200001 17.200001 0 0 0-10.76758 3.83008 17.200001 17.200001 0 0 0 4.96875-12.03125 17.200001 17.200001 0 0 0-5.13281-12.251954 17.200001 17.200001 0 0 0 10.93164 3.953125 17.200001 17.200001 0 0 0 17.20117-17.201172 17.200001 17.200001 0 0 0-17.20117-17.199218zm-172.44922 29.886718a17.200001 17.200001 0 0 0-5.75 12.812501 17.200001 17.200001 0 0 0 4.9707 12.0332 17.200001 17.200001 0 0 0-10.77148-3.83203 17.200001 17.200001 0 0 0-10.642579 3.73633 17.200001 17.200001 0 0 0 4.843749-11.9375 17.200001 17.200001 0 0 0-5.132812-12.251954 17.200001 17.200001 0 0 0 10.931642 3.953125 17.200001 17.200001 0 0 0 11.55078-4.513672zm-103.550781 21.013671a17.200001 17.200001 0 0 0-17.199219 17.19922 17.200001 17.200001 0 0 0 17.199219 17.19922 17.200001 17.200001 0 0 0 11.169922-4.13086 17.200001 17.200001 0 0 0-5.369141 12.43164 17.200001 17.200001 0 0 0 4.966797 12.0293 17.200001 17.200001 0 0 0-10.767578-3.83008 17.200001 17.200001 0 0 0-17.199219 17.20117 17.200001 17.200001 0 0 0 17.199219 17.19922 17.200001 17.200001 0 0 0 10.769531-3.83008 17.200001 17.200001 0 0 0-4.96875 12.03125 17.200001 17.200001 0 0 0 5.361328 12.42383 17.200001 17.200001 0 0 0-11.162109-4.125 17.200001 17.200001 0 0 0-17.199219 17.20117 17.200001 17.200001 0 0 0 17.199219 17.19922 17.200001 17.200001 0 0 0 10.765625-3.82812 17.200001 17.200001 0 0 0-4.964844 12.02734 17.200001 17.200001 0 0 0 17.199219 17.20117 17.200001 17.200001 0 0 0 11.15625-4.11914 17.200001 17.200001 0 0 0-5.355469 12.41797 17.200001 17.200001 0 0 0 17.199219 17.20117 17.200001 17.200001 0 0 0 10.765625-3.82812 17.200001 17.200001 0 0 0-4.964844 12.02734 17.200001 17.200001 0 0 0 17.199219 17.20117 17.200001 17.200001 0 0 0 11.550781-4.51367 17.200001 17.200001 0 0 0-5.75 12.8125 17.200001 17.200001 0 0 0 17.19922 17.20117 17.200001 17.200001 0 0 0 10.74805-3.82812 17.200001 17.200001 0 0 0-4.94727 12.02734 17.200001 17.200001 0 0 0 17.19922 17.19922 17.200001 17.200001 0 0 0 11.16992-4.13086 17.200001 17.200001 0 0 0-5.36914 12.43164 17.200001 17.200001 0 0 0 17.19922 17.19922 17.200001 17.200001 0 0 0 10.77148-3.83203 17.200001 17.200001 0 0 0-4.9707 12.0332 17.200001 17.200001 0 0 0 5.36133 12.42383 17.200001 17.200001 0 0 0-11.16211-4.125 17.200001 17.200001 0 0 0-17.19922 17.20117 17.200001 17.200001 0 0 0 4.9668 12.0293 17.200001 17.200001 0 0 0-10.76758-3.83008 17.200001 17.200001 0 0 0-17.19922 17.20117 17.200001 17.200001 0 0 0 17.19922 17.19922 17.200001 17.200001 0 0 0 17.20117-17.19922 17.200001 17.200001 0 0 0-4.96875-12.03125 17.200001 17.200001 0 0 0 10.76758 3.83008 17.200001 17.200001 0 0 0 10.77148-3.83203 17.200001 17.200001 0 0 0-4.9707 12.0332 17.200001 17.200001 0 0 0 17.19922 17.19922 17.200001 17.200001 0 0 0 17.20117-17.19922 17.200001 17.200001 0 0 0-17.20117-17.20117 17.200001 17.200001 0 0 0-10.76172 3.82617 17.200001 17.200001 0 0 0 4.96289-12.02539 17.200001 17.200001 0 0 0-5.36328-12.42578 17.200001 17.200001 0 0 0 11.16211 4.125 17.200001 17.200001 0 0 0 17.20117-17.19922 17.200001 17.200001 0 0 0-5.79883-12.86133 17.200001 17.200001 0 0 0 11.59766 4.66016 17.200001 17.200001 0 0 0 17.20117-17.19922 17.200001 17.200001 0 0 0-5.36914-12.42969 17.200001 17.200001 0 0 0 11.16797 4.12891 17.200001 17.200001 0 0 0 17.20117-17.19922 17.200001 17.200001 0 0 0-5.80273-12.86523 17.200001 17.200001 0 0 0 11.60156 4.66601 17.200001 17.200001 0 0 0 10.76758-3.83008 17.200001 17.200001 0 0 0-4.9668 12.0293 17.200001 17.200001 0 0 0 5.36914 12.43164 17.200001 17.200001 0 0 0-11.16992-4.13086 17.200001 17.200001 0 0 0-17.19922 17.19922 17.200001 17.200001 0 0 0 17.19922 17.19922 17.200001 17.200001 0 0 0 10.77148-3.83203 17.200001 17.200001 0 0 0-4.9707 12.0332 17.200001 17.200001 0 0 0 5.36133 12.42383 17.200001 17.200001 0 0 0-11.16211-4.125 17.200001 17.200001 0 0 0-17.19922 17.20117 17.200001 17.200001 0 0 0 4.92969 12.00195 17.200001 17.200001 0 0 0-10.73047-3.80273 17.200001 17.200001 0 0 0-17.19922 17.20117 17.200001 17.200001 0 0 0 17.19922 17.19922 17.200001 17.200001 0 0 0 17.20117-17.19922 17.200001 17.200001 0 0 0-5.79883-12.86133 17.200001 17.200001 0 0 0 11.59766 4.66016 17.200001 17.200001 0 0 0 10.77148-3.83203 17.200001 17.200001 0 0 0-4.9707 12.0332 17.200001 17.200001 0 0 0 17.19922 17.19922 17.200001 17.200001 0 0 0 17.20117-17.19922 17.200001 17.200001 0 0 0-17.20117-17.20117 17.200001 17.200001 0 0 0-10.76172 3.82617 17.200001 17.200001 0 0 0 4.96289-12.02539 17.200001 17.200001 0 0 0-5.36328-12.42578 17.200001 17.200001 0 0 0 11.16211 4.125 17.200001 17.200001 0 0 0 17.20117-17.19922 17.200001 17.200001 0 0 0-4.96875-12.03125 17.200001 17.200001 0 0 0 10.76758 3.83008 17.200001 17.200001 0 0 0 10.73242-3.80274 17.200001 17.200001 0 0 0-4.93164 12.00391 17.200001 17.200001 0 0 0 17.19922 17.19922 17.200001 17.200001 0 0 0 11.16406-4.12695 17.200001 17.200001 0 0 0-5.36328 12.42773 17.200001 17.200001 0 0 0 17.19922 17.19922 17.200001 17.200001 0 0 0 11.16992-4.13086 17.200001 17.200001 0 0 0-5.26953 12.33203 17.200001 17.200001 0 0 0 17.20117 17.19922 17.200001 17.200001 0 0 0 11.16211-4.125 17.200001 17.200001 0 0 0-5.36328 12.42578 17.200001 17.200001 0 0 0 17.20117 17.19922 17.200001 17.200001 0 0 0 17.19922-17.19922 17.200001 17.200001 0 0 0-17.19922-17.20117 17.200001 17.200001 0 0 0-11.16211 4.125 17.200001 17.200001 0 0 0 5.36133-12.42383 17.200001 17.200001 0 0 0-4.96875-12.03125 17.200001 17.200001 0 0 0 10.76953 3.83008 17.200001 17.200001 0 0 0 17.19922-17.19922 17.200001 17.200001 0 0 0-17.19922-17.20117 17.200001 17.200001 0 0 0-17.20117 17.20117 17.200001 17.200001 0 0 0 4.96289 12.02539 17.200001 17.200001 0 0 0-10.76172-3.82617 17.200001 17.200001 0 0 0-11.16797 4.12891 17.200001 17.200001 0 0 0 5.26758-12.32813 17.200001 17.200001 0 0 0-17.20117-17.20117 17.200001 17.200001 0 0 0-11.16016 4.12305 17.200001 17.200001 0 0 0 5.36133-12.42188 17.200001 17.200001 0 0 0-17.20117-17.20117 17.200001 17.200001 0 0 0-11.60156 4.66601 17.200001 17.200001 0 0 0 5.80273-12.86523 17.200001 17.200001 0 0 0-17.20117-17.19922 17.200001 17.200001 0 0 0-11.16797 4.12891 17.200001 17.200001 0 0 0 5.36914-12.42969 17.200001 17.200001 0 0 0-17.20117-17.19922 17.200001 17.200001 0 0 0-10.76758 3.83008 17.200001 17.200001 0 0 0 4.96875-12.03125 17.200001 17.200001 0 0 0-17.20117-17.19922 17.200001 17.200001 0 0 0-17.19922 17.19922 17.200001 17.200001 0 0 0 4.93164 12.00586 17.200001 17.200001 0 0 0-10.73242-3.80469 17.200001 17.200001 0 0 0-10.76758 3.83008 17.200001 17.200001 0 0 0 4.96875-12.03125 17.200001 17.200001 0 0 0-5.36133-12.42188 17.200001 17.200001 0 0 0 11.16016 4.12305 17.200001 17.200001 0 0 0 17.20117-17.20117 17.200001 17.200001 0 0 0-17.20117-17.19922 17.200001 17.200001 0 0 0-10.76758 3.83008 17.200001 17.200001 0 0 0 4.96875-12.03125 17.200001 17.200001 0 0 0-5.36133-12.42188 17.200001 17.200001 0 0 0 11.16016 4.12305 17.200001 17.200001 0 0 0 17.20117-17.20117 17.200001 17.200001 0 0 0-17.20117-17.19922 17.200001 17.200001 0 0 0-10.76172 3.82617 17.200001 17.200001 0 0 0 4.96289-12.02539 17.200001 17.200001 0 0 0-5.36328-12.42578 17.200001 17.200001 0 0 0 11.16211 4.125 17.200001 17.200001 0 0 0 17.20117-17.19922 17.200001 17.200001 0 0 0-17.20117-17.20117 17.200001 17.200001 0 0 0-10.76172 3.82617 17.200001 17.200001 0 0 0 4.96289-12.02539 17.200001 17.200001 0 0 0-4.96875-12.03125 17.200001 17.200001 0 0 0 10.76758 3.83008 17.200001 17.200001 0 0 0 17.20117-17.19922 17.200001 17.200001 0 0 0-17.20117-17.19922 17.200001 17.200001 0 0 0-17.19922 17.19922 17.200001 17.200001 0 0 0 4.9668 12.0293 17.200001 17.200001 0 0 0-10.76758-3.83008 17.200001 17.200001 0 0 0-11.60156 4.66601 17.200001 17.200001 0 0 0 5.80273-12.86523 17.200001 17.200001 0 0 0-17.20117-17.19922 17.200001 17.200001 0 0 0-17.19922 17.19922 17.200001 17.200001 0 0 0 17.19922 17.19922 17.200001 17.200001 0 0 0 10.73242-3.80469 17.200001 17.200001 0 0 0-4.93164 12.00586 17.200001 17.200001 0 0 0 4.92969 12.00195 17.200001 17.200001 0 0 0-10.73047-3.80273 17.200001 17.200001 0 0 0-17.19922 17.20117 17.200001 17.200001 0 0 0 5.36133 12.42383 17.200001 17.200001 0 0 0-11.16211-4.125 17.200001 17.200001 0 0 0-17.19922 17.20117 17.200001 17.200001 0 0 0 17.19922 17.19922 17.200001 17.200001 0 0 0 10.76758-3.83008 17.200001 17.200001 0 0 0-4.9668 12.0293 17.200001 17.200001 0 0 0 5.36523 12.42773 17.200001 17.200001 0 0 0-11.16601-4.12695 17.200001 17.200001 0 0 0-17.19922 17.19922 17.200001 17.200001 0 0 0 17.19922 17.20117 17.200001 17.200001 0 0 0 10.76758-3.83008 17.200001 17.200001 0 0 0-4.9668 12.0293 17.200001 17.200001 0 0 0 5.36523 12.42773 17.200001 17.200001 0 0 0-11.16601-4.12695 17.200001 17.200001 0 0 0-17.19922 17.19922 17.200001 17.200001 0 0 0 4.9707 12.0332 17.200001 17.200001 0 0 0-10.77148-3.83203 17.200001 17.200001 0 0 0-11.85156 4.83008 17.200001 17.200001 0 0 0 6.05273-13.03125 17.200001 17.200001 0 0 0-17.20117-17.19922 17.200001 17.200001 0 0 0-11.003908 4.00781 17.200001 17.200001 0 0 0 5.205078-12.30859 17.200001 17.200001 0 0 0-4.93164-12.00195 17.200001 17.200001 0 0 0 10.73047 3.80273 17.200001 17.200001 0 0 0 10.67969-3.77148 17.200001 17.200001 0 0 0-4.87891 11.9707 17.200001 17.200001 0 0 0 17.19922 17.20117 17.200001 17.200001 0 0 0 17.20117-17.20117 17.200001 17.200001 0 0 0-17.20117-17.19922 17.200001 17.200001 0 0 0-10.79688 3.91797 17.200001 17.200001 0 0 0 4.99805-12.11914 17.200001 17.200001 0 0 0-17.20117-17.19922 17.200001 17.200001 0 0 0-11.003908 4.00781 17.200001 17.200001 0 0 0 5.205078-12.30859 17.200001 17.200001 0 0 0-4.93164-12.00195 17.200001 17.200001 0 0 0 10.73047 3.80273 17.200001 17.200001 0 0 0 12.08398-4.98438 17.200001 17.200001 0 0 0-6.2832 13.1836 17.200001 17.200001 0 0 0 17.19922 17.20117 17.200001 17.200001 0 0 0 17.20117-17.20117 17.200001 17.200001 0 0 0-17.20117-17.19922 17.200001 17.200001 0 0 0-10.82031 3.93555 17.200001 17.200001 0 0 0 5.02148-12.13477 17.200001 17.200001 0 0 0-5.36328-12.42578 17.200001 17.200001 0 0 0 11.16211 4.125 17.200001 17.200001 0 0 0 17.20117-17.19922 17.200001 17.200001 0 0 0-17.20117-17.20117 17.200001 17.200001 0 0 0-17.19922 17.20117 17.200001 17.200001 0 0 0 5.36133 12.42383 17.200001 17.200001 0 0 0-11.16211-4.125 17.200001 17.200001 0 0 0-17.19922 17.20117 17.200001 17.200001 0 0 0 5.796875 12.85938 17.200001 17.200001 0 0 0-11.597656-4.66016 17.200001 17.200001 0 0 0-10.730469 3.80273 17.200001 17.200001 0 0 0 4.931641-12.00195 17.200001 17.200001 0 0 0-5.355469-12.41992 17.200001 17.200001 0 0 0 11.154297 4.11914 17.200001 17.200001 0 0 0 17.201171-17.19922 17.200001 17.200001 0 0 0-17.201171-17.20117 17.200001 17.200001 0 0 0-10.730469 3.80273 17.200001 17.200001 0 0 0 4.931641-12.00195 17.200001 17.200001 0 0 0-17.201172-17.20117 17.200001 17.200001 0 0 0-10.761719 3.82617 17.200001 17.200001 0 0 0 4.962891-12.02539 17.200001 17.200001 0 0 0-17.201172-17.19922 17.200001 17.200001 0 0 0-11.167969 4.12891 17.200001 17.200001 0 0 0 5.369141-12.42969 17.200001 17.200001 0 0 0-17.201172-17.19922zm368.101561 0a17.200001 17.200001 0 0 0-17.20117 17.19922 17.200001 17.200001 0 0 0 5.36914 12.42969 17.200001 17.200001 0 0 0-11.16797-4.12891 17.200001 17.200001 0 0 0-17.20117 17.19922 17.200001 17.200001 0 0 0 5.26758 12.32812 17.200001 17.200001 0 0 0-11.16797-4.1289 17.200001 17.200001 0 0 0-17.19922 17.20117 17.200001 17.200001 0 0 0 4.96484 12.02734 17.200001 17.200001 0 0 0-10.76562-3.82812 17.200001 17.200001 0 0 0-17.19922 17.20117 17.200001 17.200001 0 0 0 17.19922 17.19922 17.200001 17.200001 0 0 0 17.20117-17.19922 17.200001 17.200001 0 0 0-4.96875-12.03125 17.200001 17.200001 0 0 0 10.76758 3.83008 17.200001 17.200001 0 0 0 17.20117-17.19922 17.200001 17.200001 0 0 0-5.26953-12.33203 17.200001 17.200001 0 0 0 11.16992 4.13086 17.200001 17.200001 0 0 0 10.76758-3.83008 17.200001 17.200001 0 0 0-4.96875 12.03125 17.200001 17.200001 0 0 0 17.20117 17.19922 17.200001 17.200001 0 0 0 17.19922-17.19922 17.200001 17.200001 0 0 0-17.19922-17.20117 17.200001 17.200001 0 0 0-10.76562 3.82812 17.200001 17.200001 0 0 0 4.96484-12.02734 17.200001 17.200001 0 0 0-5.36914-12.43164 17.200001 17.200001 0 0 0 11.16992 4.13086 17.200001 17.200001 0 0 0 17.19922-17.19922 17.200001 17.200001 0 0 0-17.19922-17.19922zm2662.39842 20.5c-20.2 0-39.4996 4.09846-58.0996 12.39844-18.5 8.19998-34.7988 20.40043-48.7988 36.40039s-25.2012 36.20004-33.7012 60.5-12.6992 52.49967-12.6992 84.59961c0 24.69994 3.7 48.1016 11 70.10156s17.7996 41.29887 31.5996 57.79883c13.7 16.59996 30.6 29.50041 50.5 38.90039s42.7004 14.09961 68.4004 14.09961c17.8 0 34.8992-2.60041 51.1992-7.90039 16.3-5.2 30.7008-12.69885 43.3008-22.29883 12.6-9.69998 22.9004-21.6008 30.9004-35.80078 8.1-14.19998 13.2-30.19965 15.5-48.09961l0.6992-12.40039h-52.3008l-1.3984 8.30078c-5 23.39996-15.0004 41.49885-29.9004 54.29883-14.9 12.89998-32.3996 19.30078-52.5996 19.30078-17.9 0-33.5008-4.19924-46.8008-12.69922s-24.3-19.50002-33-33-15.2996-28.70121-19.5996-45.70117-6.5-34.19965-6.5-51.59961c0-16.99996 1.8988-33.90043 5.7988-50.90039s10.1016-32.10041 18.6016-45.40039 19.5-24.19924 33-32.69922c13.6-8.49998 29.8992-12.69922 49.1992-12.69922 12.9 0 24.5996 2.59844 35.0996 7.89844 10.5 5.29998 19.7 12.30002 27.5 21s13.8012 18.40119 18.2012 29.20117c4.3 10.79998 6.6992 21.90041 7.1992 33.40039v6.19922h43.3008v-132h-43.2012v44.5c-11.9-19.69996-26.0996-33.89963-42.5996-42.59961s-36.4008-13.09961-59.8008-13.09961zm628.3008 0.19922c-25.7 0-48.9008 4.19924-69.8008 12.69922-20.8 8.49998-38.6996 20.80082-53.5996 36.80078s-26.3992 35.50043-34.6992 58.40039-12.4004 48.79928-12.4004 77.69922c0 50.3999 13.8008 94.40008 41.3008 132 28.4 38.09992 70.6 57.09961 126.5 57.09961 49.8998 0 89.9988-16.9985 120.2988-50.89844 30.3-34.29992 45.4008-79.50051 45.3008-135.40039 0-27.09994-3.4008-52.10004-10.3008-75-6.8-22.89996-17.1004-42.80082-30.9004-59.80078-13.7-16.89996-30.7992-30.10002-51.1992-39.5s-43.9-14.09961-70.5-14.09961zm-229.5996 4.80078c-13.7 0.4-25.5004 1.79961-35.4004 4.09961s-18.7 6.30002-26.5 12-14.5996 13.50041-20.5996 23.40039-11.7012 22.59926-17.2012 38.19922v-71.5h-112.7988v40.5h57.0996v275.09961h-57.0996v43.30078h180.9004v-43.30078h-68.1016v-140.29883c0-88.49982 33.2014-132.70117 99.7012-132.70117 3.6 0 7.3988 0.20117 11.2988 0.70117 3.9 0.4 7.9016 1.09961 12.1016 2.09961v-51.59961h-23.4004zm-757.0996 6.19922v40.5h57.0996v275.09961h-57.8008v43.30078h169.2012v-43.30078h-55.7012v-315.59961h-112.7988zm-2659.869159 24.36914a17.200001 17.200001 0 0 0 10.767578 3.83008 17.200001 17.200001 0 0 0 10.769531-3.83008 17.200001 17.200001 0 0 0-4.96875 12.03125 17.200001 17.200001 0 0 0 4.966797 12.0293 17.200001 17.200001 0 0 0-10.767578-3.83008 17.200001 17.200001 0 0 0-10.761719 3.82617 17.200001 17.200001 0 0 0 4.962891-12.02539 17.200001 17.200001 0 0 0-4.96875-12.03125zm3642.568359 7.13086c34.4 0 60.7996 12.30084 79.0996 36.80078 18.3 24.59996 27.5 59.49852 27.5 104.89844 0 24.69994-2.7988 46.70004-8.2988 66s-13.8008 34.9008-24.8008 46.80078c-10.5 11.89998-22.0992 20.8008-34.6992 26.80078-12.7 6-25.4016 8.99844-38.1016 8.89844-28 0-52.4996-11.49848-73.5996-34.39844-10.5-11.49998-18.8996-26.10121-25.0996-43.70117s-9.3008-41.99928-9.3008-73.19922c0-20.59996 2.6016-39.50121 7.6016-56.70117s12.0988-31.90002 21.2988-44c9.2-12.19998 20.4012-21.59924 33.7012-28.19922 13.3-6.69998 28.1992-10 44.6992-10zm-3401.80078 13.09961a17.200001 17.200001 0 0 0-17.19922 17.20117 17.200001 17.200001 0 0 0 17.19922 17.19922 17.200001 17.200001 0 0 0 17.20117-17.19922 17.200001 17.200001 0 0 0-17.20117-17.20117zm-195.402345 4.33984a17.200001 17.200001 0 0 0-5.796875 12.86133 17.200001 17.200001 0 0 0 5.355469 12.41797 17.200001 17.200001 0 0 0-11.15625-4.11914 17.200001 17.200001 0 0 0-11.160157 4.12305 17.200001 17.200001 0 0 0 5.361329-12.42188 17.200001 17.200001 0 0 0-4.96875-12.03125 17.200001 17.200001 0 0 0 10.767578 3.83008 17.200001 17.200001 0 0 0 11.597656-4.66016zm114.804685 0a17.200001 17.200001 0 0 0 11.59766 4.66016 17.200001 17.200001 0 0 0 10.77148-3.83203 17.200001 17.200001 0 0 0-4.9707 12.0332 17.200001 17.200001 0 0 0 5.36133 12.42383 17.200001 17.200001 0 0 0-11.16211-4.125 17.200001 17.200001 0 0 0-17.19922 17.20117 17.200001 17.200001 0 0 0 4.92969 12.00195 17.200001 17.200001 0 0 0-10.73047-3.80273 17.200001 17.200001 0 0 0-10.76172 3.82617 17.200001 17.200001 0 0 0 4.96289-12.02539 17.200001 17.200001 0 0 0-5.36328-12.42578 17.200001 17.200001 0 0 0 11.16211 4.125 17.200001 17.200001 0 0 0 17.20117-17.19922 17.200001 17.200001 0 0 0-5.79883-12.86133zm195.69922 21.16016a17.200001 17.200001 0 0 0-17.20117 17.20117 17.200001 17.200001 0 0 0 17.20117 17.19922 17.200001 17.200001 0 0 0 17.19922-17.19922 17.200001 17.200001 0 0 0-17.19922-17.20117zm-333.937499 4.77344a17.200001 17.200001 0 0 0-5.363281 12.42773 17.200001 17.200001 0 0 0 4.966797 12.0293 17.200001 17.200001 0 0 0-10.767578-3.83008 17.200001 17.200001 0 0 0-10.761719 3.82617 17.200001 17.200001 0 0 0 4.962891-12.02539 17.200001 17.200001 0 0 0-5.363282-12.42578 17.200001 17.200001 0 0 0 11.16211 4.125 17.200001 17.200001 0 0 0 11.164062-4.12695zm23.433594 24.96679a17.200001 17.200001 0 0 0-5.796875 12.85938 17.200001 17.200001 0 0 0 5.365234 12.42773 17.200001 17.200001 0 0 0-11.166015-4.12695 17.200001 17.200001 0 0 0-11.154297 4.11914 17.200001 17.200001 0 0 0 5.355469-12.41992 17.200001 17.200001 0 0 0-4.962891-12.02539 17.200001 17.200001 0 0 0 10.761719 3.82617 17.200001 17.200001 0 0 0 11.597656-4.66016zm114.806645 0a17.200001 17.200001 0 0 0 11.5957 4.66016 17.200001 17.200001 0 0 0 10.76758-3.83008 17.200001 17.200001 0 0 0-4.9668 12.0293 17.200001 17.200001 0 0 0 5.36523 12.42773 17.200001 17.200001 0 0 0-11.16601-4.12695 17.200001 17.200001 0 0 0-17.19922 17.19922 17.200001 17.200001 0 0 0 4.93164 12.00586 17.200001 17.200001 0 0 0-10.73242-3.80469 17.200001 17.200001 0 0 0-10.76758 3.83008 17.200001 17.200001 0 0 0 4.96875-12.03125 17.200001 17.200001 0 0 0-5.36133-12.42188 17.200001 17.200001 0 0 0 11.16016 4.12305 17.200001 17.200001 0 0 0 17.20117-17.20117 17.200001 17.200001 0 0 0-5.79687-12.85938zm195.69726 21.16016a17.200001 17.200001 0 0 0-17.20117 17.19922 17.200001 17.200001 0 0 0 17.20117 17.20117 17.200001 17.200001 0 0 0 17.19922-17.20117 17.200001 17.200001 0 0 0-17.19922-17.19922zm-287.55078 4.38672a17.200001 17.200001 0 0 0-5.75 12.8125 17.200001 17.200001 0 0 0 5.796875 12.86133 17.200001 17.200001 0 0 0-11.597656-4.66016 17.200001 17.200001 0 0 0-10.767578 3.83008 17.200001 17.200001 0 0 0 4.96875-12.03125 17.200001 17.200001 0 0 0-5.361329-12.42188 17.200001 17.200001 0 0 0 11.160157 4.12305 17.200001 17.200001 0 0 0 11.550781-4.51367zm545.15039 3.91406h112.09961c16.49996 0 30.39963 2.39922 41.59961 7.19922 11.29998 4.8 20.30119 11.29963 27.20117 19.59961s11.79883 18.09963 14.79883 29.59961c3 11.39998 4.5 23.80158 4.5 37.10156 0 6.49998-1.29961 14.69885-4.09961 24.79883s-8.19924 20.00041-16.19922 29.90039c-8.09998 9.79998-19.20041 18.30041-33.40039 25.40039s-32.80121 10.59922-55.70117 10.69922h-90.79883v-184.29883zm458.59961 0h112.0996c16.5 0 30.3996 2.39922 41.5996 7.19922 11.3 4.8 20.3012 11.29963 27.2012 19.59961s11.7988 18.09963 14.7988 29.59961c3 11.39998 4.5 23.80158 4.5 37.10156 0 6.49998-1.2996 14.69885-4.0996 24.79883s-8.1992 20.00041-16.1992 29.90039c-8.1 9.79998-19.2004 18.30041-33.4004 25.40039s-32.7992 10.59922-55.6992 10.69922h-90.8008v-184.29883zm-911.90234 21.4336a17.200001 17.200001 0 0 0 11.60156 4.66601 17.200001 17.200001 0 0 0 10.76758-3.83008 17.200001 17.200001 0 0 0-4.9668 12.0293 17.200001 17.200001 0 0 0 5.36523 12.42773 17.200001 17.200001 0 0 0-11.16601-4.12695 17.200001 17.200001 0 0 0-17.19922 17.19922 17.200001 17.200001 0 0 0 4.93164 12.00586 17.200001 17.200001 0 0 0-10.73242-3.80469 17.200001 17.200001 0 0 0-10.76758 3.83008 17.200001 17.200001 0 0 0 4.96875-12.03125 17.200001 17.200001 0 0 0-5.36133-12.42188 17.200001 17.200001 0 0 0 11.16016 4.12305 17.200001 17.200001 0 0 0 17.20117-17.20117 17.200001 17.200001 0 0 0-5.80273-12.86523zm195.70312 21.16601a17.200001 17.200001 0 0 0-17.20117 17.19922 17.200001 17.200001 0 0 0 17.20117 17.20117 17.200001 17.200001 0 0 0 17.19922-17.20117 17.200001 17.200001 0 0 0-17.19922-17.19922zm-195.70312 29.73438a17.200001 17.200001 0 0 0 11.60156 4.66601 17.200001 17.200001 0 0 0 10.76758-3.83008 17.200001 17.200001 0 0 0-4.9668 12.0293 17.200001 17.200001 0 0 0 5.36914 12.43164 17.200001 17.200001 0 0 0-11.16992-4.13086 17.200001 17.200001 0 0 0-17.19922 17.19922 17.200001 17.200001 0 0 0 4.92969 12.00195 17.200001 17.200001 0 0 0-10.73047-3.80273 17.200001 17.200001 0 0 0-10.76172 3.82617 17.200001 17.200001 0 0 0 4.96289-12.02539 17.200001 17.200001 0 0 0-5.36914-12.42969 17.200001 17.200001 0 0 0 11.16797 4.12891 17.200001 17.200001 0 0 0 17.20117-17.19922 17.200001 17.200001 0 0 0-5.80273-12.86523zm-23.63086 0.83593a17.200001 17.200001 0 0 0-4.9668 12.0293 17.200001 17.200001 0 0 0 5.36914 12.43164 17.200001 17.200001 0 0 0-11.16992-4.13086 17.200001 17.200001 0 0 0-11.16797 4.12891 17.200001 17.200001 0 0 0 5.36914-12.42969 17.200001 17.200001 0 0 0-4.96289-12.02539 17.200001 17.200001 0 0 0 10.76172 3.82617 17.200001 17.200001 0 0 0 10.76758-3.83008zm219.33398 20.33008a17.200001 17.200001 0 0 0-17.20117 17.19922 17.200001 17.200001 0 0 0 17.20117 17.19922 17.200001 17.200001 0 0 0 17.19922-17.19922 17.200001 17.200001 0 0 0-17.19922-17.19922zm-103.93164 4.76758a17.200001 17.200001 0 0 0-5.36914 12.43164 17.200001 17.200001 0 0 0 4.96484 12.02734 17.200001 17.200001 0 0 0-10.76562-3.82812 17.200001 17.200001 0 0 0-10.76172 3.82617 17.200001 17.200001 0 0 0 4.96289-12.02539 17.200001 17.200001 0 0 0-5.36914-12.42969 17.200001 17.200001 0 0 0 11.16797 4.12891 17.200001 17.200001 0 0 0 11.16992-4.13086zm-241.169921 71.53125a17.200001 17.200001 0 0 0-17.199219 17.20117 17.200001 17.200001 0 0 0 17.199219 17.19922 17.200001 17.200001 0 0 0 17.201172-17.19922 17.200001 17.200001 0 0 0-17.201172-17.20117zm46 0a17.200001 17.200001 0 0 0-17.199219 17.20117 17.200001 17.200001 0 0 0 17.199219 17.19922 17.200001 17.200001 0 0 0 17.201171-17.19922 17.200001 17.200001 0 0 0-17.201171-17.20117z"/>
</svg>
