<?xml version="1.0" encoding="utf-8"?>
<!-- Generator: Adobe Illustrator 25.4.1, SVG Export Plug-In . SVG Version: 6.00 Build 0)  -->
<svg version="1.1" id="Layer_1" xmlns="http://www.w3.org/2000/svg" xmlns:xlink="http://www.w3.org/1999/xlink" x="0px" y="0px"
	 viewBox="0 0 3839 508.2" style="enable-background:new 0 0 3839 508.2;" xml:space="preserve">
<style type="text/css">
	.st0{fill:#FFFFFF;}
</style>
<g>
	<g>
		<g>
			<circle cx="17.2" cy="24.7" r="17.2"/>
			<circle cx="17.2" cy="75.6" r="17.2"/>
			<circle cx="17.2" cy="126.5" r="17.2"/>
			<circle cx="17.2" cy="177.4" r="17.2"/>
			<circle cx="17.2" cy="228.3" r="17.2"/>
		</g>
		<g>
			<circle cx="40.2" cy="50.2" r="17.2"/>
			<circle cx="40.2" cy="152" r="17.2"/>
			<circle cx="40.2" cy="202.8" r="17.2"/>
			<circle cx="40.2" cy="253.7" r="17.2"/>
			<circle cx="40.2" cy="457.3" r="17.2"/>
		</g>
		<g>
			<circle cx="63.2" cy="24.7" r="17.2"/>
			<circle cx="63.2" cy="177.4" r="17.2"/>
			<circle cx="63.2" cy="228.3" r="17.2"/>
			<circle cx="63.2" cy="279.2" r="17.2"/>
		</g>
		<g>
			<circle cx="86.2" cy="101.1" r="17.2"/>
			<circle cx="86.2" cy="202.8" r="17.2"/>
			<circle cx="86.2" cy="253.7" r="17.2"/>
			<circle cx="86.2" cy="304.6" r="17.2"/>
			<circle cx="86.2" cy="457.3" r="17.2"/>
		</g>
		<g>
			<circle cx="109.2" cy="24.7" r="17.2"/>
			<circle cx="109.2" cy="75.6" r="17.2"/>
			<circle cx="109.2" cy="126.5" r="17.2"/>
			<circle cx="109.2" cy="228.3" r="17.2"/>
			<circle cx="109.2" cy="279.2" r="17.2"/>
			<circle cx="109.2" cy="330.1" r="17.2"/>
		</g>
		<g>
			<circle cx="132.2" cy="101.1" r="17.2"/>
			<circle cx="132.2" cy="202.8" r="17.2"/>
			<circle cx="132.2" cy="253.7" r="17.2"/>
			<circle cx="132.2" cy="304.6" r="17.2"/>
			<circle cx="132.2" cy="355.5" r="17.2"/>
			<circle cx="132.2" cy="457.3" r="17.2"/>
		</g>
		<g>
			<circle cx="155.2" cy="24.7" r="17.2"/>
			<circle cx="155.2" cy="228.3" r="17.2"/>
			<circle cx="155.2" cy="279.2" r="17.2"/>
			<circle cx="155.2" cy="330.1" r="17.2"/>
			<circle cx="155.2" cy="381" r="17.2"/>
			<g>
				<circle cx="155.2" cy="431.9" r="17.2"/>
			</g>
		</g>
		<g>
			<circle cx="178.2" cy="50.2" r="17.2"/>
			<circle cx="178.2" cy="152" r="17.2"/>
			<circle cx="178.2" cy="202.8" r="17.2"/>
			<circle cx="178.2" cy="253.7" r="17.2"/>
			<circle cx="178.2" cy="304.6" r="17.2"/>
			<circle cx="178.2" cy="355.5" r="17.2"/>
			<circle cx="178.2" cy="406.4" r="17.2"/>
			<circle cx="178.2" cy="457.3" r="17.2"/>
		</g>
		<g>
			<circle cx="201.2" cy="24.7" r="17.2"/>
			<circle cx="201.2" cy="75.6" r="17.2"/>
			<circle cx="201.2" cy="177.4" r="17.2"/>
			<circle cx="201.2" cy="228.3" r="17.2"/>
			<circle cx="201.2" cy="279.2" r="17.2"/>
			<circle cx="201.2" cy="330.1" r="17.2"/>
			<circle cx="201.2" cy="381" r="17.2"/>
		</g>
		<g>
			<circle cx="224.2" cy="50.2" r="17.2"/>
			<circle cx="224.2" cy="152" r="17.2"/>
			<circle cx="224.2" cy="202.8" r="17.2"/>
			<circle cx="224.2" cy="253.7" r="17.2"/>
			<circle cx="224.2" cy="304.6" r="17.2"/>
			<circle cx="224.2" cy="355.5" r="17.2"/>
			<circle cx="224.2" cy="457.3" r="17.2"/>
		</g>
		<g>
			<circle cx="247.2" cy="24.7" r="17.2"/>
			<circle cx="247.2" cy="330.1" r="17.2"/>
			<circle cx="247.2" cy="381" r="17.2"/>
			<g>
				<circle cx="247.2" cy="431.9" r="17.2"/>
			</g>
		</g>
		<g>
			<circle cx="270.2" cy="101.1" r="17.2"/>
			<circle cx="270.2" cy="202.8" r="17.2"/>
			<circle cx="270.2" cy="355.5" r="17.2"/>
			<circle cx="270.2" cy="406.4" r="17.2"/>
			<circle cx="270.2" cy="457.3" r="17.2"/>
		</g>
		<g>
			<circle cx="293.2" cy="24.7" r="17.2"/>
			<circle cx="293.2" cy="75.6" r="17.2"/>
			<circle cx="293.2" cy="126.5" r="17.2"/>
			<circle cx="293.2" cy="381" r="17.2"/>
		</g>
		<g>
			<circle cx="316.2" cy="101.1" r="17.2"/>
			<circle cx="316.2" cy="202.8" r="17.2"/>
			<circle cx="316.2" cy="406.4" r="17.2"/>
		</g>
		<g>
			<circle cx="339.2" cy="24.7" r="17.2"/>
			<circle cx="339.2" cy="177.4" r="17.2"/>
			<g>
				<circle cx="339.2" cy="431.9" r="17.2"/>
			</g>
		</g>
		<g>
			<circle cx="362.3" cy="50.2" r="17.2"/>
			<circle cx="362.3" cy="152" r="17.2"/>
			<circle cx="362.3" cy="457.3" r="17.2"/>
		</g>
		<g>
			<circle cx="385.3" cy="24.7" r="17.2"/>
			<circle cx="385.3" cy="75.6" r="17.2"/>
			<circle cx="385.3" cy="126.5" r="17.2"/>
			<circle cx="385.3" cy="177.4" r="17.2"/>
			<circle cx="385.3" cy="228.3" r="17.2"/>
			<circle cx="385.3" cy="279.2" r="17.2"/>
			<circle cx="385.3" cy="330.1" r="17.2"/>
			<circle cx="385.3" cy="381" r="17.2"/>
			<g>
				<circle cx="385.3" cy="431.9" r="17.2"/>
				<circle cx="385.3" cy="482.8" r="17.2"/>
			</g>
		</g>
	</g>
	<g>
		<path d="M829.6,20.3c17.2,8.5,30.5,19.1,39.9,32s15.6,26.5,18.6,40.9c3,14.4,4.5,27.6,4.5,39.5c0,14.7-2.2,28.2-6.5,40.6
			c-4.4,12.4-10.7,23.4-18.9,33c-8.3,9.6-18.1,17.5-29.6,23.7c-11.5,6.2-24.1,10.2-37.8,12c33.5,2.3,59.4,14.4,77.7,36.4
			c18.3,22,27.5,50.9,27.5,86.6c0,15.1-2.6,30.7-7.9,46.8c-5.3,16-13.9,30.6-25.8,43.7c-11.9,13.1-27.3,23.7-46.1,32
			c-18.8,8.3-41.9,12.4-69.5,12.4H513.6v-45.4h69.5V52.9h-68.8V7.6h247.6C789.8,7.6,812.4,11.8,829.6,20.3z M779.8,217
			c13.3-5.7,23.8-13.1,31.6-22c7.8-8.9,13.2-18.9,16.2-29.9c3-11,4.5-21.8,4.5-32.3c0-10.1-1.1-19.9-3.4-29.6
			c-2.3-9.6-6.8-18.1-13.4-25.4c-6.6-7.3-15.7-13.3-27.2-17.9c-11.5-4.6-26.4-6.9-44.7-6.9H642.9v172.6h86.6
			C749.7,225.5,766.5,222.7,779.8,217z M789.4,443.9c14.2-7.1,25.3-15.6,33.4-25.4c8-9.9,13.4-19.8,16.2-29.9
			c2.8-10.1,4.1-18.3,4.1-24.8c0-13.3-1.5-25.7-4.5-37.1c-3-11.5-7.9-21.3-14.8-29.6c-6.9-8.3-15.9-14.8-27.2-19.6
			c-11.2-4.8-25.1-7.2-41.6-7.2H642.9v184.3h90.8C756.6,454.5,775.2,451,789.4,443.9z"/>
		<path d="M1288.3,20.3c17.2,8.5,30.5,19.1,39.9,32c9.4,12.8,15.6,26.5,18.6,40.9c3,14.4,4.5,27.6,4.5,39.5
			c0,14.7-2.2,28.2-6.5,40.6c-4.4,12.4-10.7,23.4-18.9,33c-8.3,9.6-18.1,17.5-29.6,23.7c-11.5,6.2-24.1,10.2-37.8,12
			c33.5,2.3,59.4,14.4,77.7,36.4c18.3,22,27.5,50.9,27.5,86.6c0,15.1-2.6,30.7-7.9,46.8c-5.3,16-13.9,30.6-25.8,43.7
			c-11.9,13.1-27.3,23.7-46.1,32c-18.8,8.3-41.9,12.4-69.5,12.4h-242v-45.4h69.5V52.9H973V7.6h247.6
			C1248.5,7.6,1271.1,11.8,1288.3,20.3z M1238.4,217c13.3-5.7,23.8-13.1,31.6-22c7.8-8.9,13.2-18.9,16.2-29.9
			c3-11,4.5-21.8,4.5-32.3c0-10.1-1.1-19.9-3.4-29.6c-2.3-9.6-6.8-18.1-13.4-25.4c-6.6-7.3-15.7-13.3-27.2-17.9
			c-11.5-4.6-26.4-6.9-44.7-6.9h-100.4v172.6h86.6C1208.4,225.5,1225.1,222.7,1238.4,217z M1248,443.9c14.2-7.1,25.3-15.6,33.4-25.4
			c8-9.9,13.4-19.8,16.2-29.9c2.8-10.1,4.1-18.3,4.1-24.8c0-13.3-1.5-25.7-4.5-37.1c-3-11.5-7.9-21.3-14.8-29.6
			c-6.9-8.3-15.9-14.8-27.2-19.6c-11.2-4.8-25.1-7.2-41.6-7.2h-112.1v184.3h90.8C1215.2,454.5,1233.8,451,1248,443.9z"/>
		<path d="M1864.8,7.6v174.7h-53.6c-2.3-39.9-14.4-72.2-36.4-97c-22-24.8-53.9-37.1-95.6-37.1c-52.7,0-92.7,17.4-120,52.3
			s-40.9,84.1-40.9,147.8c0,67.8,13.3,119.9,39.9,156.1c26.6,36.2,65.6,54.3,116.9,54.3c39,0,69.6-11.3,91.8-34
			c22.2-22.7,34.5-52.8,36.8-90.4h63.3c-1.4,28-6.9,52.7-16.5,74.3c-9.6,21.5-22.8,39.8-39.5,54.7c-16.7,14.9-36.7,26.1-59.8,33.7
			c-23.2,7.6-48.7,11.3-76.7,11.3c-41.7,0-76.8-7.3-105.2-22c-28.4-14.7-51.3-34-68.8-58.1c-17.4-24.1-29.9-51.2-37.5-81.5
			c-7.6-30.3-11.3-61.2-11.3-92.8c0-33.5,4.4-65.6,13.1-96.3c8.7-30.7,22-57.8,39.9-81.1c17.9-23.4,40.7-41.9,68.4-55.7
			C1600.7,6.9,1633.8,0,1672.3,0c35.8,0,65.8,6.9,90.1,20.6s41.9,33.2,52.9,58.4V7.6H1864.8z"/>
		<path d="M2339.3,428.4L2470.6,7.6h173.3v45.4h-70.1v401.6h70.1v45.4h-191.2v-45.4h63.3V52.9h-4.8l-146.5,447h-53.6l-146.5-447
			h-4.8v401.6h64v45.4h-187v-45.4h70.8V52.9h-70.8V7.6h175.3L2339.3,428.4z"/>
		<path d="M2802.1,456.6h55.7v43.3h-169.2v-43.3h57.8V181.5h-57.1V141h112.8V456.6z M2806.2,65.3h-64V7.6h64V65.3z"/>
		<path d="M3193.3,141v132H3150v-6.2c-0.5-11.5-2.9-22.6-7.2-33.4c-4.4-10.8-10.4-20.5-18.2-29.2c-7.8-8.7-17-15.7-27.5-21
			c-10.5-5.3-22.2-7.9-35.1-7.9c-19.3,0-35.6,4.2-49.2,12.7c-13.5,8.5-24.5,19.4-33,32.7c-8.5,13.3-14.7,28.4-18.6,45.4
			c-3.9,17-5.8,33.9-5.8,50.9c0,17.4,2.2,34.6,6.5,51.6s10.9,32.2,19.6,45.7c8.7,13.5,19.7,24.5,33,33c13.3,8.5,28.9,12.7,46.8,12.7
			c20.2,0,37.7-6.4,52.6-19.3c14.9-12.8,24.9-30.9,29.9-54.3l1.4-8.3h52.3l-0.7,12.4c-2.3,17.9-7.4,33.9-15.5,48.1
			c-8,14.2-18.3,26.1-30.9,35.8c-12.6,9.6-27,17.1-43.3,22.3c-16.3,5.3-33.4,7.9-51.2,7.9c-25.7,0-48.5-4.7-68.4-14.1
			c-19.9-9.4-36.8-22.3-50.5-38.9c-13.8-16.5-24.3-35.8-31.6-57.8c-7.3-22-11-45.4-11-70.1c0-32.1,4.2-60.3,12.7-84.6
			c8.5-24.3,19.7-44.5,33.7-60.5c14-16,30.3-28.2,48.8-36.4c18.6-8.3,37.9-12.4,58.1-12.4c23.4,0,43.3,4.4,59.8,13.1
			c16.5,8.7,30.7,22.9,42.6,42.6V141H3193.3z"/>
		<path d="M3457.7,184.3c-3.9-0.5-7.7-0.7-11.3-0.7c-66.5,0-99.7,44.2-99.7,132.7v140.3h68.1v43.3h-180.9v-43.3h57.1V181.5h-57.1
			V141h112.8v71.5c5.5-15.6,11.2-28.3,17.2-38.2c6-9.9,12.8-17.7,20.6-23.4c7.8-5.7,16.6-9.7,26.5-12c9.9-2.3,21.7-3.7,35.4-4.1
			h23.4v51.6C3465.6,185.4,3461.6,184.7,3457.7,184.3z"/>
		<path d="M3793.6,453.8c-30.3,33.9-70.4,50.9-120.3,50.9c-55.9,0-98.1-19-126.5-57.1c-27.5-37.6-41.3-81.6-41.3-132
			c0-28.9,4.1-54.8,12.4-77.7s19.8-42.4,34.7-58.4c14.9-16,32.8-28.3,53.6-36.8c20.9-8.5,44.1-12.7,69.8-12.7
			c26.6,0,50.1,4.7,70.5,14.1c20.4,9.4,37.5,22.6,51.2,39.5c13.8,17,24.1,36.9,30.9,59.8c6.9,22.9,10.3,47.9,10.3,75
			C3839,374.3,3823.9,419.5,3793.6,453.8z M3710.8,453.8c12.6-6,24.2-14.9,34.7-26.8c11-11.9,19.3-27.5,24.8-46.8
			c5.5-19.3,8.3-41.3,8.3-66c0-45.4-9.2-80.3-27.5-104.9c-18.3-24.5-44.7-36.8-79.1-36.8c-16.5,0-31.4,3.3-44.7,10
			c-13.3,6.6-24.5,16-33.7,28.2c-9.2,12.1-16.3,26.8-21.3,44c-5,17.2-7.6,36.1-7.6,56.7c0,31.2,3.1,55.6,9.3,73.2
			c6.2,17.6,14.6,32.2,25.1,43.7c21.1,22.9,45.6,34.4,73.6,34.4C3685.4,462.8,3698.1,459.8,3710.8,453.8z"/>
	</g>
</g>
</svg>
