<svg enable-background="new 0 0 3839 702.5" version="1.1" viewBox="0 0 3839 702.5" xml:space="preserve" xmlns="http://www.w3.org/2000/svg">
<path d="m3374.1992 0v499.19922 19.80078h-29.5v19.80078h-73.7988v-19.80078h-29.5v-39.59961h-29.5v-138.30078h29.5v-39.59961h29.5v-19.80078h73.7988v-163.69922h-103.2988v15h-29.5v19.90039h-29.5996v24.79883l-29.5 0.10156v29.69922h-29.5v34.59961h-29.5v39.59961h-29.6016v257.10156h29.6016v39.59961h29.5v34.5l29.5 0.09961v29.69922h29.5v24.80078h29.5996v19.90039h29.5v15h132.7988v-15h29.5l0.1016-19.90039h29.5v-24.80078h29.3984v-29.69922l29.5-0.09961v-34.5h29.5v-578.40039h-147.5zm-2341 63.699219v89.201171h-29.5l-0.0996 24.90039h-29.49999v29.69922h-29.5v54.40039h90.30079v276.90039h29.5v39.59961h29.5v34.5l29.5 0.09961v29.69922h29.4004v24.80078h29.5l0.0996 19.90039h29.5v15h103.4004v-163.59961h-73.9004v-19.80078h-29.5v-39.59961h-29.5l-0.0996-217.5h86.8984v-54.40039l-29.5-0.09961v-29.70117h-29.5v-24.79883h-29.5v-89.201171h-147.5zm-856.09959 54.300781v15h-29.5v19.90039l-29.5 0.09961v24.80078h-29.500001v29.69922h-29.599609v34.59961l-29.5 0.09961v39.5h-29.5v257.10156h29.5v39.59961h29.5v34.5h29.599609v0.09961 29.69922h29.500001v24.80078h29.5v19.90039h29.5v15h103.40039v-163.59961h-73.90039v-19.80078h-29.5v-39.59961h-29.5v-138.30078h29.5v-39.59961h29.5l0.09961-19.69922 73.80078-0.10156v19.80078h29.5v401h147.5v-460.40039h-29.5v-34.59961h-29.5l-0.09961-29.69922h-29.40039v-24.90039h-29.5v-19.90039h-29.5v-15h-132.90039zm450.09961 0v15h-29.5v19.90039l-29.5 0.09961v24.80078h-29.5v29.69922h-29.5v34.59961l-29.59961 0.09961v138.5h29.5l0.09961-0.09961v39.5h29.5v39.59961h206.60156v19.70117h29.5l0.09961 39.59961h-29.59961v19.69922h-88.5l-0.10156-19.69922h-29.5v-19.80078h-147.59961v79.20117h29.5l0.09961 34.5 29.5 0.09961v29.69922h29.5v24.80078h29.5v19.90039h29.5v15h147.60156l0.09961-15h29.5v-19.90039h29.5v-24.80078h29.5v-29.79883h29.5l0.09961-34.59961h29.5v-138.5h-29.5l-0.09961-39.5h-29.5v-39.5h-206.59961l-0.10156-19.70117h-29.5v-39.59961h29.5l0.10156-19.69922 88.5-0.10156v19.80078h29.5l0.09961 19.80078h147.59961v-79.20117h-29.59961v-34.59961h-29.5v-29.69922l-29.5-0.10156v-24.79883h-29.5v-19.90039h-29.5l-0.09961-15h-29.5-118.10156zm857.80078 0-0.0996 15h-29.5v19.90039l-29.5 0.09961v24.80078h-29.5v29.69922h-29.5v34.59961l-29.5 0.09961v460.20117h147.5v-420.70117l88.5996 0.10156v79h-29.5v19.79883h-29.5v121.5l87.0996 200.30078h147.5996l-112.0996-257.80078h39.7012v-30.69922h0.0996 29.5v-38.5h14.7988v-133.20117l-14.7988-0.09961v-34.59961h-29.5996v-29.69922h-29.5v-24.80078l-29.5-0.09961v-19.90039h-29.5v-15h-103.3008zm435.3008 0v15h-29.5v19.90039l-29.5 0.09961v24.80078h-29.5v29.69922h-29.5v34.59961l-29.5 0.09961v39.5h-29.5v257.20117h29.5v39.59961h29.5v34.5h29.5996v0.09961 29.70117h29.5v24.79883h29.5v19.90039h29.5v15h147.5996v-15h29.5l0.0996-19.90039h29.5v-24.79883h29.5v-29.80078l29.5-0.09961v-34.5h29.5v-39.59961h29.5v-257.10156h-29.5v-39.5l-29.5-0.09961v-34.59961h-29.5v-29.69922h-29.5996v-24.80078h-29.5l-0.0996-20h-29.5v-15h-147.5996zm524 0v15h-29.5v19.90039h-29.5v24.90039h-29.5v29.69922h-29.5v34.59961h-29.6016v39.59961h-29.5v257.10156h29.5v39.59961l29.6016-0.09961v0.09961 34.5l29.5 0.09961v29.69922h29.5v24.80078h29.5v19.90039h29.5v15h118.0996v-163.59961h-88.5996v-19.80078h-29.5v-39.59961h-29.5v-138.30078h29.5v-39.59961h29.5v-19.80078h88.5996v-163.69922h-118.0996zm317.2988 0v15h-29.5v19.90039h-29.5v24.90039h-29.5v29.69922h-29.5996v34.59961h-29.5v39.59961h-29.5v257.20117h29.5v39.59961h29.5v34.5l29.5996 0.09961v29.70117h29.5v24.79883h29.5v19.90039h29.5v15h103.4004v-163.69922h-73.9004v-19.80078h-29.5v-39.59961h-29.5v-138.30078h29.5v-39.59961h29.5v-19.80078h73.9004v19.80078h29.5v401h147.5996v-460.40039h-29.5l-0.0996-34.59961h-29.5v-29.69922l-29.5-0.10156v-24.79883h-29.5v-19.90039h-29.5v-15h-132.9004zm959.3008 0v15h-29.5v19.90039h-29.5v24.79883 0.10156h-0.0996-29.5v29.69922h-29.5v34.59961h-29.5v39.59961h-29.5v257.20117h29.5v39.59961h29.5v34.5l29.5 0.09961v29.70117h29.5996v24.79883h29.5v19.90039h29.5v15h118.0996v-163.69922h-88.5996v-19.80078h-29.5v-19.80078h-29.5v-19.69922h147.5996v-138.40039h-147.5996v-19.79883h29.5v-19.80078h29.5v-19.80078h88.5996v-163.69922h-118.0996zm-1771.0996 163.80078h88.5996v19.69922h29.5v39.59961h29.5v138.30078h-29.5v39.59961h-29.5v19.80078h-88.5996v-19.80078h-29.5v-39.59961h-29.5v-138.30078h29.5v-39.59961h29.5v-19.69922z"/>
</svg>
