<svg enable-background="new 0 0 3839 702.5" version="1.1" viewBox="0 0 3839 702.5" xml:space="preserve" xmlns="http://www.w3.org/2000/svg">
<path d="m3374.1992 0v519h-29.5v19.80078h-73.7988v-19.80078h-29.5v-39.59961h-29.5v-138.30078h29.5v-39.59961h29.5v-19.80078h73.7988v-163.69922h-103.2988v15h-29.5v19.90039h-29.5996v24.79883l-29.5 0.10156v29.69922h-29.5v34.59961h-29.5v39.59961h-29.6016v257.10156h29.6016v39.59961h29.5v34.5l29.5 0.0996v29.69922h29.5v24.80079h29.5996v19.90039h29.5v15h132.7988v-15h29.5l0.1016-19.90039h29.5v-24.80078h29.3984v-29.69922l29.5-0.0996v-34.5h29.5v-578.4004zm-929.8984 118v15h-29.5v19.90039h-29.5v24.90039h-29.5v29.69922h-29.5v34.59961h-29.6016v39.59961h-29.5v257.10156h29.5v39.59961l29.6016-0.0996v34.5996l29.5 0.0996v29.69922h29.5v24.80079h29.5v19.90039h29.5v15h118.0996v-163.59961h-88.5996v-19.80078h-29.5v-39.59961h-29.5v-138.30078h29.5v-39.59961h29.5v-19.80078h88.5996v-163.69922zm317.2988 0v15h-29.5v19.90039h-29.5v24.90039h-29.5v29.69922h-29.5996v34.59961h-29.5v39.59961h-29.5v257.20117h29.5v39.59961h29.5v34.5l29.5996 0.0996v29.70117h29.5v24.79883h29.5v19.9004h29.5v15h103.4004v-163.69922h-73.9004v-19.80078h-29.5v-39.59961h-29.5v-138.30078h29.5v-39.59961h29.5v-19.80078h73.9004v19.80078h29.5v401h147.5996v-460.40039h-29.5l-0.0996-34.59961h-29.5v-29.69922l-29.5-0.10156v-24.79883h-29.5v-19.90039h-29.5v-15zm959.3008 0v15h-29.5v19.90039h-29.5v24.90039h-29.6v29.69922h-29.5v34.59961h-29.5v39.59961h-29.5v257.20117h29.5v39.59961h29.5v34.5l29.5 0.0996v29.70117h29.5996v24.79883h29.5v19.9004h29.5v15h118.1v-163.69922h-88.5996v-19.80078h-29.5v-19.80078h-29.5v-19.69922h147.5996v-138.40039h-147.5996v-19.79883h29.5v-19.80078h29.5v-19.80078h88.5996v-163.69922z"/><path fill="#EEC21A" d="m1033.1992 63.699219v89.201171h-29.5l-0.1 24.90039h-29.49959v29.69922h-29.5v54.40039h90.30079v276.90039h29.5v39.59961h29.5v34.5l29.5 0.0996v29.69922h29.4004v24.80079h29.5l0.1 19.90039h29.5v15h103.4004v-163.59961h-73.9004v-19.80078h-29.5v-39.59961h-29.5l-0.1-217.5h86.8984v-54.40039l-29.5-0.0996v-29.70117h-29.5v-24.79883h-29.5v-89.201181zm-856.09959 54.300781v15h-29.5v19.90039l-29.5 0.0996v24.80078h-29.500001v29.69923h-29.599609v34.59961l-29.5 0.0996v39.5h-29.5v257.10156h29.5v39.59961h29.5v34.5h29.599609v29.79884h29.500001v24.80078h29.5v19.90039h29.5v15h103.40039v-163.59961h-73.90039v-19.80078h-29.5v-39.59961h-29.5v-138.30078h29.5v-39.59961h29.5l0.0996-19.69922 73.80079-0.10156v19.80078h29.5v401h147.5v-460.40039h-29.5v-34.59961h-29.5l-0.0996-29.69922h-29.4004v-24.90039h-29.5v-19.90039h-29.5v-15zm450.09961 0v15h-29.5v19.90039l-29.5 0.0996v24.80078h-29.5v29.69923h-29.5v34.59961l-29.59961 0.0996v138.5h29.5l0.0996-0.0996v39.5h29.5v39.59961h206.60156v19.70117h29.5l0.09962 39.59961h-29.59961v19.69922h-88.5l-0.10156-19.69922h-29.5v-19.80078h-147.59961v79.20117h29.5l0.0996 34.5 29.5 0.0996v29.69922h29.5v24.80079h29.5v19.90039h29.5v15h147.60156l0.0996-15h29.5v-19.90039h29.5v-24.80078h29.5v-29.79883h29.5l0.09963-34.59961h29.5v-138.5h-29.5l-0.0996-39.5h-29.5v-39.5h-206.59962l-0.10156-19.70117h-29.5v-39.59961h29.5l0.10156-19.69922 88.5-0.10156v19.80078h29.5l0.0996 19.80078h147.59962v-79.20117h-29.59961v-34.59961h-29.5v-29.69922l-29.5-0.10156v-24.79883h-29.5v-19.90039h-29.5l-0.0996-15h-29.5zm857.80078 0-0.1 15h-29.5v19.90039l-29.5 0.0996v24.80078h-29.5v29.69923h-29.5v34.59961l-29.5 0.0996v460.20117h147.5v-420.70116l88.5996 0.10156v79h-29.4996v19.79883h-29.5v121.5l87.0996 200.30078h147.5996l-112.0996-257.80078h39.7012v-30.69922h29.6v-38.5h14.7988v-133.20117l-14.7988-0.0996v-34.59962h-29.5996v-29.69922h-29.5v-24.80078l-29.5-0.0996v-19.9004h-29.5v-15zm435.3008 0v15h-29.5v19.90039l-29.5 0.0996v24.80078h-29.5v29.69923h-29.5v34.59961l-29.5 0.0996v39.5h-29.5v257.20117h29.5v39.59962h29.5v34.5h29.5996v29.80077h29.5v24.79883h29.5v19.9004h29.5v15h147.5996v-15h29.5l0.1-19.90039h29.5v-24.79883h29.5v-29.80078l29.5-0.0996v-34.5h29.5v-39.59961h29.5v-257.10157h-29.5v-39.5l-29.5-0.0996v-34.59962h-29.5v-29.69922h-29.6v-24.80078h-29.5l-0.1-20h-29.5v-15zm29.5 163.80078h88.5996v19.69922h29.5v39.59961h29.5v138.30078h-29.5v39.59961h-29.5v19.80078h-88.5996v-19.80078h-29.5v-39.59961h-29.5v-138.30078h29.5v-39.59961h29.5z"/>
</svg>
