<svg enable-background="new 0 0 3839 1126.3" version="1.1" viewBox="0 0 3839 1126.3" xml:space="preserve" xmlns="http://www.w3.org/2000/svg">
<path class="st0" d="m3174.9004 35.199219v37.800781h56.2988v-37.800781h-56.2988zm74.5 0v37.800781h56.2988v-37.800781h-56.2988zm-2492.09962 20v56.800781h200.5v51.59961c0 36.89996-35.30083 77-83.30078 77h-137.40039v56.80078h168.70117c24.97229 0 48.27212-13.24975 64.03516-38.02344l39.06446 46.42383 67.0996-0.60156-87.12109-103.42969c0.64267-5.5743 1.07089-11.35182 1.2207-17.36914h0.20117v-57.90039-71.300781h-233zm558.69922 0v56.800781h243.5v51.59961c0 36.89996-35.3008 77-83.3008 77h-137.3984v56.80078h168.6992c43.8 0 82.5008-40.70007 84.3008-113h0.1992v-57.90039-71.300781h-276zm1043.4004 0v16c0 28.699971-10.5004 49.401571-24.9004 56.101561l-10.3008 2.29883-0.5 16.5-1.1992 40.30078h17.5996c34.6 0 62.5996-33.30043 62.5996-74.40039h179.6016v39.40039h-165.8008l-15.5996 56.79883h162.6992v3.20117c0 16.09998-10.9996 29.19922-24.5996 29.19922h-22.6992-161.3008v56.80078h184.1992c62.5 0 90.3008-67.30121 90.3008-102.70117v-11.19922-71.5-18.800781-38h-255.0996-12.3008-2.6992zm722.7988 0v32.701172h-123v48.298829h123v161.10156h71.7012v-161.10156h137.2988v-48.298829h-137.2988v-32.701172h-71.7012zm-1144.0996 6.701172v48.699219l286.8008 23.30078v-48.800781l-286.8008-23.199218zm-300.1992 50.099609v48.19922h202.2988v32.10156h-102.3984v48.29883h-88.7012v56.80078h85.3008c22.5 0 40.6992-21.60081 40.6992-48.30078v-8.40039h72.0996c22.5 0 40.7012-21.59886 40.7012-48.29883v-32.09961-31.30078-17h-250zm300.1992 30.80078v48.69922l286.8008 23.30078v-48.80078l-286.8008-23.19922zm-901 2v56.79883h214.8008v-56.79883h-214.8008zm1645 3.09961v56.79883h216.5v-56.79883h-216.5zm314.0996 20.69922c0 50.19995-24.0984 80.40039-44.8984 80.40039v3.90039 44.40039h21.5c34.0999 0 75.5996-30.00164 75.5996-110.10156v-18.59961h-52.2012zm197.9004 0v18.59961c0 80.09992 41.3997 110.10156 75.5996 110.10156h21.5v-44.30078-4c-20.9 0-44.8984-30.20044-44.8984-80.40039h-52.2012zm-1256 55.09961v48.80078l286.8008 23.19922v-48.69922l-286.8008-23.30078zm-778.5 159-275.49999 743.10158h98.70117l44.29882-119.6016h136.5996l2.1016 119.6016h98.6992l-13.4004-743.10158h-91.5zm-835.69921 2.30078c-126.29987 0-169.9008 122.39969-190.30078 204.59961-17.59998 70.49993-18.49957 140.50004 21.40039 182.5l47.69922 39.20117c58.09994 44.39996 59.40027 157-58.59961 157h-68.400391l-75.699219 157.39842s94.799255-1 131.19922 0c115.29988 3.2 171.1012-106.2001 199.70117-208.99998 16.79998-60.49994 34.39956-166.99888-12.40039-213.79883l-47.59961-39.30078c-58.09994-44.39996-59.40027-121.29883 58.59961-121.29883h84.5l26.90039-157.30078h-117zm377.19922 0.09961-81.79883 463.90039c-10.99999 62.49994-50.4016 113.09961-88.10156 113.09961-37.59996 0-59.19921-50.59967-48.19922-113.09961l81.80078-463.80078h-96.80078l-89.40039 506.80078c-21.29998 123.5999-5.1987 233.9004 123.70117 233.9004 128.99987-0.1 183.99885-110.4001 206.29883-234.00001l0.5-2.70117 88.90039-504.09961h-96.90039zm137.70117 0-130.60156 740.70119h96.90039l52.20117-296.3008h96.69922l27.80078-157.19922h-96.70117l22.90039-129.90039h96.6992l27.7012-157.30078h-96.70118-48.39844-48.5zm572.59962 0-130.5996 740.70119h96.7988l78.5-444.8008 38.9004 444.8008h36.4004l195.7988-444.8008-78.3984 444.8008h96.8984l130.6016-740.70119h-96.9004v0.09961l-204.5996 391.10156-66.6016-391.10156v-0.09961h-96.7988zm506.0996 0-130.5996 740.70119h96.9004l130.5996-740.70119h-96.9004zm330.1992 0-27.7988 157.30078h71.1992l-102.9004 583.40041h96.9004l102.9004-583.40041h87.5996l27.7012-157.30078h-255.6016zm523.4004 0-81.7988 463.90039c-11 62.39994-50.4001 113.09961-88 113.09961-37.6 0-59.2012-50.59967-48.2012-113.09961l81.8008-463.80078h-96.9004l-89.4004 506.80078c-21.3 123.5999-5.1987 233.9004 123.7012 233.9004 128.9999-0.1 183.9988-110.4001 206.2988-234.00001l0.5-2.70117 88.9004-504.09961h-96.9004zm431.7012 0-130.6016 740.70119c38.3 0.7 99.7012 0.3996 140.2012 0.0996 38.8-0.3 76.5004-15 103.4004-43 29.8-31.1 45.9988-78.1005 62.7988-172.4004 14.8-83.29992 4.8004-137.19964-10.5996-170.59961-1.3-2.7-2.6992-5.30078-4.1992-7.80078 26.6-42.69996 51.5988-101.29891 65.7988-180.79883 23.3-130.19987-48.0997-166.20117-99.5996-166.20117h-30.3008-12.5-84.3984zm492.5996 0c-109.5999 0-227.7008 165.89981-263.8008 370.59961-36.1 204.69979 23.4997 370.60158 133.0996 370.60158s227.7008-165.90179 263.8008-370.60158c36-204.6998-23.4997-370.59961-133.0996-370.59961zm-795.8008 0.09961-130.5996 740.60158h96.9004l44.5996-252.90041 37.1992 252.90041h97.9004l-43.9004-298.8008c71.6999-36.39996 101.5012-67.99976 125.2012-215.09961 13.7-84.99991 4.7004-138.29964-11.0996-171.59961-16.1-34.19996-51.6004-55.10156-89.4004-55.10156h-29.9004-86-10.9004zm69.2012 157.20117c39.9999 0 74.4988 19.69969 59.7988 96.09961-13.1 67.99993-46.3992 87.09961-78.1992 87.09961h-13.9004l32.3008-183.19922zm303.2988 0h31.4004c23.6 0 33.8992 25.49927 25.6992 71.19922-4.6 25.39997-14.9988 42.20001-23.2988 52-6.1 7.19999-15.1996 11.20117-24.5996 11.20117h-32.9004l23.6992-134.40039zm395.5 0c56.1 0 84.8 95.39973 64 213.09961-20.7 117.69988-82.9997 213.09961-139.0996 213.09961s-84.7-95.39973-64-213.09961 82.9997-213.09961 139.0996-213.09961zm-2510.1992 112.5 3.5 194h-75.4004l71.9004-194zm2063.1992 179.29883h46.4004c23.6 0 38.8992 25.40161 30.6992 71.10156-3.9 21.89998-10.9988 37.39962-17.2988 47.59961-6 9.69999-16.5004 15.69922-27.9004 15.69922h-55.5996l23.6992-134.40039z" fill="#30348d"/><path class="st1" d="m3139.8008 0v37.800781h56.2988v-37.800781h-56.2988zm74.5 0v37.800781h56.2988v-37.800781h-56.2988zm-2492.20119 20v56.800781h200.5v51.599609c0 36.89996-35.29888 77-83.29883 77h-137.40039v56.79883h168.69922c24.95238 0 48.2375-13.22736 64-37.96289l39.09961 46.46289 67.10158-0.59961-87.10939-103.62891c0.63618-5.54446 1.06004-11.28917 1.20898-17.27148h0.19922v-57.898439-71.300781h-233zm558.80079 0v56.800781h243.5v51.599609c0 36.89996-35.3008 77-83.3008 77h-137.4004v56.79883h168.7012c43.7999 0 82.4988-40.70007 84.2988-113h0.2012v-57.898439-71.300781h-276zm1043.2988 0v16c0 28.699971-10.4984 49.399616-24.8984 56.099609l-10.3008 2.300782-0.5 16.499999-1.1992 40.29883h17.5996c34.6 0 62.5996-33.29848 62.5996-74.398439h179.5996v39.398439h-165.7988l-15.6016 56.80078h162.7012v3.19922c0 16.09998-10.9996 29.20117-24.5996 29.20117h-22.7012-161.2988v56.79883h184.1992c62.4999 0 90.3008-67.29926 90.3008-102.69922v-11.19922-71.499999-18.800781-38h-255.1016-12.2988-2.7012zm722.8008 0v32.699219h-123v48.300781h123v161.19922h71.6992v-161.19922h137.3008v-48.300781h-137.3008v-32.699219h-71.6992zm-1144.0996 6.699219v48.800781l286.7988 23.199219v-48.798828l-286.7988-23.201172zm-300.0996 50.101562v48.199219h202.1992v32.09961h-102.4004v48.30078h-88.5996v56.79883h85.3008c22.5 0 40.6992-21.59886 40.6992-48.29883v-8.40039h72.0996c22.5 0 40.7012-21.60081 40.7012-48.30078v-32.19922-31.199219-17h-250zm300.0996 30.798829v48.80078l286.7988 23.19922v-48.69922l-286.7988-23.30078zm-900.9004 2v56.80078h214.8008v-56.80078h-214.8008zm1644.9004 3.20117v56.79883h216.5v-56.79883h-216.5zm314.0996 20.59961c0 50.19995-24.0004 80.40039-44.9004 80.40039v3.89844 44.40039h21.5c34.1 0 75.5996-29.99969 75.5996-110.09961v-18.59961h-52.1992zm197.9004 0.09961v18.59961c0 80.09992 41.3996 110.09961 75.5996 110.09961h21.5v-44.39844-3.90039c-20.8-0.1-44.9004-30.30044-44.9004-80.40039h-52.1992zm-1256 55v48.80078l286.7988 23.29883v-48.79883l-286.7988-23.30078z" fill="#f16140"/></svg>
