<?xml version="1.0" encoding="utf-8"?>
<!-- Generator: Adobe Illustrator 26.0.1, SVG Export Plug-In . SVG Version: 6.00 Build 0)  -->
<svg version="1.1" id="Layer_1" xmlns="http://www.w3.org/2000/svg" xmlns:xlink="http://www.w3.org/1999/xlink" x="0px" y="0px"
	 viewBox="0 0 3839 1126.3" style="enable-background:new 0 0 3839 1126.3;" xml:space="preserve">
<style type="text/css">
	.st0{fill:#30348D;}
	.st1{fill:#F16140;}
	.st2{fill:#FFFFFF;}
</style>
<g>
	<g>
		<g>
			<polygon points="1902.9,75.5 2189.7,98.7 2189.7,49.9 1902.9,26.7 			"/>
			<g>
				<path d="M1602.8,125H1805v32.1h-102.4v48.3H1614v56.8h85.3c22.5,0,40.7-21.6,40.7-48.3v-8.4h72.1c22.5,0,40.7-21.6,40.7-48.3
					l0,0V125V93.8v-17h-250V125z"/>
				<rect x="1002" y="109.6" width="214.8" height="56.8"/>
				<rect x="2646.9" y="112.8" width="216.5" height="56.8"/>
				<polygon points="3118.7,20 3047,20 3047,52.7 2924,52.7 2924,101 3047,101 3047,262.2 3118.7,262.2 3118.7,101 3256,101 
					3256,52.7 3118.7,52.7 				"/>
				<rect x="3139.8" width="56.3" height="37.8"/>
				<rect x="3214.3" width="56.3" height="37.8"/>
				<path d="M3211.1,133.5h-52.2v18.6c0,80.1,41.4,110.1,75.6,110.1h21.5v-44.4v-3.9C3235.2,213.8,3211.1,183.6,3211.1,133.5z"/>
				<path d="M2916.1,213.8v3.9v44.4h21.5c34.1,0,75.6-30,75.6-110.1v-18.6H2961C2961,183.6,2937,213.8,2916.1,213.8z"/>
				<path d="M2326.9,20h-2.7v16c0,28.7-10.5,49.4-24.9,56.1l-10.3,2.3l-0.5,16.5l-1.2,40.3h17.6c34.6,0,62.6-33.3,62.6-74.4h179.6
					v39.4h-165.8l-15.6,56.8h162.7v3.2c0,16.1-11,29.2-24.6,29.2h-22.7h-161.3v56.8H2504c62.5,0,90.3-67.3,90.3-102.7l0-11.2V76.8
					V58V20h-255.1H2326.9z"/>
				<polygon points="1902.9,237.3 2189.7,260.6 2189.7,211.8 1902.9,188.5 				"/>
				<polygon points="1902.9,156.4 2189.7,179.6 2189.7,130.9 1902.9,107.6 				"/>
				<path d="M1280.8,76.8h243.6v51.6c0,36.9-35.3,77-83.3,77h-137.4v56.8h168.7c43.8,0,82.5-40.7,84.3-113h0.2V91.3V20h-276V76.8z"
					/>
				<path d="M722.1,76.8h200.5v51.6c0,36.9-35.3,77-83.3,77H701.9v56.8h168.7c43.8,0,82.5-40.7,84.3-113h0.2V91.3V20h-233V76.8z"/>
				<polyline points="922.2,209.5 973.7,270.7 1040.8,270.1 950.1,162.2 				"/>
			</g>
		</g>
	</g>
	<polygon points="1786.9,1125.8 1883.8,1125.8 2014.4,385.1 1917.5,385.1 	"/>
	<polygon points="1779.4,385.1 1779.4,385.2 1574.8,776.3 1508.2,385.2 1508.2,385.1 1411.4,385.1 1280.8,1125.8 1377.6,1125.8 
		1456.1,681 1495,1125.8 1531.4,1125.8 1727.2,681 1648.8,1125.8 1745.7,1125.8 1876.3,385.1 	"/>
	<path d="M708.6,891.9l0.5-2.7c0,0,0,0,0,0h0L798,385.1h-96.9L619.3,849c-11,62.5-50.4,113.1-88.1,113.1
		c-37.6,0-59.2-50.6-48.2-113.1h0l81.8-463.8H468l-89.4,506.8h0c-21.3,123.6-5.2,233.9,123.7,233.9
		C631.3,1125.8,686.3,1015.5,708.6,891.9L708.6,891.9z"/>
	<polygon points="954,829.5 981.8,672.3 885.1,672.3 908,542.4 1004.7,542.4 1032.4,385.1 935.7,385.1 887.3,385.1 838.8,385.1 
		708.2,1125.8 805.1,1125.8 857.3,829.5 	"/>
	<path d="M1159.6,382.7l-275.5,743.1h98.7l44.3-119.6h136.6l2.1,119.6h98.7l-13.4-743.1H1159.6z M1085.5,848.9l71.9-194l3.5,194
		H1085.5z"/>
	<polygon points="2475.6,542.4 2503.3,385.1 2247.7,385.1 2219.9,542.4 2291.1,542.4 2188.2,1125.8 2285.1,1125.8 2388,542.4 	"/>
	<path d="M2778.6,891.9l0.5-2.7c0,0,0,0,0,0h0l88.9-504.1h-96.9L2689.3,849c-11,62.4-50.4,113.1-88,113.1
		c-37.6,0-59.2-50.6-48.2-113.1h0l81.8-463.8H2538l-89.4,506.8h0c-21.3,123.6-5.2,233.9,123.7,233.9
		C2701.3,1125.8,2756.3,1015.5,2778.6,891.9L2778.6,891.9z"/>
	<path d="M270.9,663.6c-58.1-44.4-59.4-121.3,58.6-121.3H414L440.9,385c0,0-80.6,0-117,0C197.6,385,154,507.4,133.6,589.6
		C116,660.1,115.1,730.1,155,772.1c0,0,47.7,39.2,47.7,39.2c58.1,44.4,59.4,157-58.6,157H75.7L0,1125.7c0,0,94.8-1,131.2,0
		c115.3,3.2,171.1-106.2,199.7-209c16.8-60.5,34.4-167-12.4-213.8L270.9,663.6z"/>
	<path d="M3126.9,611.9c13.7-85,4.7-138.3-11.1-171.6c-16.1-34.2-51.6-55.1-89.4-55.1h-29.9h-86h-10.9L2769,1125.8h96.9l44.6-252.9
		l37.2,252.9h97.9L3001.7,827C3073.4,790.6,3103.2,759,3126.9,611.9z M3028.6,638.5c-13.1,68-46.4,87.1-78.2,87.1h-13.9l32.3-183.2
		C3008.8,542.4,3043.3,562.1,3028.6,638.5z"/>
	<path d="M3363.8,732.1c26.6-42.7,51.6-101.3,65.8-180.8c23.3-130.2-48.1-166.2-99.6-166.2h-30.3h-12.5h-84.4l-130.6,740.7
		c38.3,0.7,99.7,0.4,140.2,0.1c38.8-0.3,76.5-15,103.4-43c29.8-31.1,46-78.1,62.8-172.4c14.8-83.3,4.8-137.2-10.6-170.6
		C3366.7,737.2,3365.3,734.6,3363.8,732.1z M3297.7,905.3c-3.9,21.9-11,37.4-17.3,47.6c-6,9.7-16.5,15.7-27.9,15.7h-55.6l23.7-134.4
		c0,0,22.8,0,46.4,0S3305.9,859.6,3297.7,905.3z M3329.2,613.6c-4.6,25.4-15,42.2-23.3,52c-6.1,7.2-15.2,11.2-24.6,11.2h-32.9
		l23.7-134.4c0,0,7.8,0,31.4,0S3337.4,567.9,3329.2,613.6z"/>
	<path d="M3695.4,385.1c-109.6,0-227.7,165.9-263.8,370.6c-36.1,204.7,23.5,370.6,133.1,370.6c109.6,0,227.7-165.9,263.8-370.6
		C3864.5,551,3805,385.1,3695.4,385.1z M3731.6,755.5c-20.7,117.7-83,213.1-139.1,213.1s-84.7-95.4-64-213.1s83-213.1,139.1-213.1
		C3723.7,542.4,3752.4,637.8,3731.6,755.5z"/>
</g>
</svg>
