<svg enable-background="new 0 0 3840 1213.5" version="1.1" viewBox="0 0 3840 1213.5" xml:space="preserve" xmlns="http://www.w3.org/2000/svg">
<path d="m604.69922 0c-318.79968 0-579.899245 245.79992-604.69922 558.09961l325.19922 134.5c27.59997-18.79998 60.80121-29.90039 96.70117-29.90039 3.2 0 6.39961 0.10078 9.59961 0.30078l144.59961-209.59961v-3c0-126.19987 102.60091-228.80078 228.80078-228.80078s228.79881 102.70091 228.79881 228.80078-102.69894 228.79883-228.79881 228.79883c-1.7 0-3.50117 3.9e-4 -5.20117-0.09961l-206.29883 147.20117c0.1 2.7 0.19922 5.39961 0.19922 8.09961 0 94.69991-76.99892 171.79881-171.79883 171.79881-83.09992 0-152.60041-59.2985-168.40039-137.89842l-232.499999-96.20117c71.999928 254.69979 305.999109 441.40039 583.798829 441.40039 335.09966 0 606.80078-271.69955 606.80078-606.69922-0.1-335.19966-271.70112-606.80078-606.80078-606.80078zm200.10156 297.90039c-84.09991 0-152.5 68.40008-152.5 152.5s68.40009 152.5 152.5 152.5c84.09992-0.1 152.5-68.50008 152.5-152.5 0-84.09992-68.40008-152.5-152.5-152.5zm0.29883 37.69922c63.19994 0 114.5 51.30006 114.5 114.5s-51.30006 114.5-114.5 114.5-114.5-51.30006-114.5-114.5c0-63.29994 51.30006-114.5 114.5-114.5zm900.70119 34.80078c-97.8999 0-166 48.79891-166 133.79883 0 75.39992 51.4001 107.90159 125.5 132.60156 64.9999 21.49998 105.2988 31.89965 105.2988 66.59961 0 30.29997-26.4 50.79883-82 50.79883-41.1999 0-87.3996-12.10002-126.0996-32.5l-29.6992 79.20117c47.5999 28.99997 109.4989 42.19922 160.7988 42.19922 105.2999 0 178.5996-52.30009 178.5996-145.5 0-68.09993-42.6997-98.99886-117.0996-125.29883-69.1999-24.79997-115.6992-33.70082-115.6992-71.80078 0-31.39997 26.2-48.90039 68.5-48.90039 37 0 79.4989 13.10002 110.7988 35l40.7012-71.5c-30.4-23.09998-85.2997-44.69922-153.5996-44.69922zm236.6992 7.79883v82.10156h139v375h95.6992v-375h138.5v-82.10156h-373.1992zm479.3008 0v457.10156h308.2988v-82.90039h-212.5996v-107.20117h183.1992v-82.09961h-183.1992v-103h212.5996v-81.90039h-308.2988zm562.6992 0-171.4004 457.10156h100.3008l30.2988-88.80078h178.8008l30.9004 88.80078h103.6992l-176.1992-457.10156h-96.4004zm370 0v457.10156h91.6992v-278l123 264.69922h54l125.1016-267.09961 0.0996 280.40039h91.5996v-457.10156h-92.3008l-148.0996 330-153.5996-330h-91.5zm-322.4004 109 63.7012 183h-126.1016l62.4004-183zm-2609.07421 218.08789c-16.09998-0.1125-31.97619 2.81211-46.82617 8.41211l77 31.80078c48.39995 20.19998 71.30154 75.69966 51.10156 124.09961-20.09998 48.29995-75.70161 71.19998-124.10156 51l-74.5-30.79883c13.19999 27.49997 36.10042 50.49923 66.40039 63.19922 65.59993 27.29997 141.20003-3.80046 168.5-69.40039 13.19999-31.69997 13.30116-66.79964 0.20117-98.59961s-37.80159-56.7004-69.60156-69.90039c-15.74999-6.54999-32.07385-9.7-48.17383-9.8125z"/>
</svg>
