<svg enable-background="new 0 0 3840 1212.8" version="1.1" viewBox="0 0 3840 1212.8" xml:space="preserve" xmlns="http://www.w3.org/2000/svg"><defs><linearGradient id="SVGID_1_" x1="607.45972" x2="607.45972" y1="-.0001028551" y2="1212.8375" gradientUnits="userSpaceOnUse">
				<stop stop-color="#131E31" offset=".2483"/>
				<stop stop-color="#14437B" offset=".667"/>
				<stop stop-color="#136193" offset=".8383"/>
				<stop stop-color="#0D7BC1" offset="1"/>
			</linearGradient></defs>
<path fill="#FFF" d="m23 771.7 232.4 96.1c15.7 78.5 85.2 137.8 168.3 137.8 94.7 0 171.7-77 171.7-171.7 0-2.7-0.1-5.4-0.2-8.1l206.1-147.1c1.7 0 3.5 0.1 5.2 0.1 126.1 0 228.7-102.6 228.7-228.7s-102.6-228.7-228.7-228.7-228.7 102.6-228.7 228.7v3l-144.5 209.5c-3.2-0.2-6.4-0.3-9.6-0.3-35.8 0-69.1 11-96.6 29.9l-325-134.4c0-0.1-2.1 27.8-2.1 48.6 0 97.8 23.4 166.8 23 165.3z"/><path d="m606.4 0c-318.5 0-579.5 245.6-604.3 557.8l325 134.4c27.5-18.8 60.8-29.9 96.6-29.9 3.2 0 6.4 0.1 9.6 0.3l144.5-209.5v-3c0-126.1 102.6-228.7 228.7-228.7s228.7 102.6 228.7 228.7-102.6 228.7-228.7 228.7c-1.7 0-3.5 0-5.2-0.1l-206.1 147.1c0.1 2.7 0.2 5.4 0.2 8.1 0 94.7-77 171.7-171.7 171.7-83.1 0-152.6-59.3-168.3-137.8l-232.4-96.1c72 254.5 305.8 441.2 583.4 441.2 334.9 0 606.4-271.5 606.4-606.4 0-335-271.5-606.5-606.4-606.5zm-224.3 920.1-74.5-30.8c13.2 27.5 36 50.5 66.4 63.1 65.6 27.3 141.1-3.8 168.5-69.4 13.2-31.7 13.3-66.7 0.2-98.6-13.1-31.8-37.8-56.6-69.6-69.9-31.5-13.1-65.3-12.6-94.9-1.4l76.9 31.8c48.4 20.2 71.2 75.7 51.1 124-20.2 48.5-75.8 71.4-124.1 51.2zm576.8-470c0-84-68.4-152.4-152.4-152.4s-152.4 68.4-152.4 152.4 68.4 152.4 152.4 152.4 152.4-68.4 152.4-152.4zm-266.6-0.2c0-63.2 51.3-114.5 114.5-114.5s114.5 51.2 114.5 114.5c0 63.2-51.3 114.5-114.5 114.5s-114.5-51.3-114.5-114.5z" fill="url(#SVGID_1_)"/><path d="m1706.9004 370.09961c-97.8999 0-165.9004 48.70126-165.9004 133.70117 0 75.29993 51.3005 107.80003 125.4004 132.5 64.9999 21.49998 105.2988 31.89965 105.2988 66.59961 0 30.29997-26.3985 50.79883-81.8984 50.79883-41.2 0-87.5016-12.10002-126.1016-32.5l-29.5996 79.20117c47.5 28.99997 109.4012 42.19922 160.7012 42.19922 105.2999 0 178.5-52.30048 178.5-145.40039 0-67.99993-42.7001-98.89925-117-125.19922-69.0999-24.79998-115.6016-33.70082-115.6016-71.80078 0-31.39997 26.2001-48.89844 68.5-48.89844 37 0 79.4012 13.10002 110.7012 35l40.5996-71.40039c-30.4-23.09998-85.2997-44.70078-153.5996-44.80078zm236.6992 7.90039v82.09961h138.8008v374.70117h95.6992v-374.70117h138.5v-82.09961h-373zm479 0v456.80078h308.0996v-82.80078h-212.5v-107.19922h183.1016v-82h-183.1016v-103h212.5v-81.80078h-308.0996zm562.4004 0-171.3008 456.80078h100.3008l30.1992-88.70117h178.6016l30.8984 88.70117h103.7012l-176.0996-456.80078h-96.3008zm369.8008 0v456.80078h91.5996v-277.80078l123 264.5h54l125-266.90039v280.20117h91.5996v-456.80078h-92.1992l-148.1016 329.80078-153.5-329.80078h-91.3984zm-322.2012 109 63.7012 182.90039h-126.1016l62.4004-182.90039z"/>
</svg>
