<?xml version="1.0" encoding="utf-8"?>
<!-- Generator: Adobe Illustrator 25.0.0, SVG Export Plug-In . SVG Version: 6.00 Build 0)  -->
<svg version="1.1" id="Layer_1" xmlns="http://www.w3.org/2000/svg" xmlns:xlink="http://www.w3.org/1999/xlink" x="0px" y="0px"
	 viewBox="0 0 3840 1212.8" style="enable-background:new 0 0 3840 1212.8;" xml:space="preserve">
<style type="text/css">
	.st0{fill:#FFFFFF;}
	.st1{fill:url(#SVGID_1_);}
	.st2{fill:url(#SVGID_2_);}
	.st3{fill:url(#SVGID_3_);}
	.st4{fill:url(#SVGID_4_);}
	.st5{fill:url(#SVGID_5_);}
	.st6{fill:url(#SVGID_6_);}
	.st7{fill:url(#SVGID_7_);}
	.st8{fill:url(#SVGID_8_);}
</style>
<g>
	<path class="st0" d="M23,771.7l232.4,96.1c15.7,78.5,85.2,137.8,168.3,137.8c94.7,0,171.7-77,171.7-171.7c0-2.7-0.1-5.4-0.2-8.1
		l206.1-147.1c1.7,0,3.5,0.1,5.2,0.1c126.1,0,228.7-102.6,228.7-228.7c0-126.1-102.6-228.7-228.7-228.7
		c-126.1,0-228.7,102.6-228.7,228.7c0,1,0,2,0,3L433.3,662.6c-3.2-0.2-6.4-0.3-9.6-0.3c-35.8,0-69.1,11-96.6,29.9L2.1,557.8
		c0-0.1-2.1,27.8-2.1,48.6C0,704.2,23.4,773.2,23,771.7z"/>
	<g>
		<g>
			<linearGradient id="SVGID_1_" gradientUnits="userSpaceOnUse" x1="607.4597" y1="-1.028551e-04" x2="607.4597" y2="1212.8375">
				<stop  offset="0.2483" style="stop-color:#131E31"/>
				<stop  offset="0.667" style="stop-color:#14437B"/>
				<stop  offset="0.8383" style="stop-color:#136193"/>
				<stop  offset="1" style="stop-color:#0D7BC1"/>
			</linearGradient>
			<path class="st1" d="M606.4,0C287.9,0,26.9,245.6,2.1,557.8l325,134.4c27.5-18.8,60.8-29.9,96.6-29.9c3.2,0,6.4,0.1,9.6,0.3
				l144.5-209.5c0-1,0-2,0-3c0-126.1,102.6-228.7,228.7-228.7c126.1,0,228.7,102.6,228.7,228.7S932.6,678.8,806.5,678.8
				c-1.7,0-3.5,0-5.2-0.1L595.2,825.8c0.1,2.7,0.2,5.4,0.2,8.1c0,94.7-77,171.7-171.7,171.7c-83.1,0-152.6-59.3-168.3-137.8
				L23,771.7c72,254.5,305.8,441.2,583.4,441.2c334.9,0,606.4-271.5,606.4-606.4C1212.8,271.5,941.3,0,606.4,0z M382.1,920.1
				l-74.5-30.8c13.2,27.5,36,50.5,66.4,63.1c65.6,27.3,141.1-3.8,168.5-69.4c13.2-31.7,13.3-66.7,0.2-98.6
				c-13.1-31.8-37.8-56.6-69.6-69.9c-31.5-13.1-65.3-12.6-94.9-1.4l76.9,31.8c48.4,20.2,71.2,75.7,51.1,124
				C486,917.4,430.4,940.3,382.1,920.1z M958.9,450.1c0-84-68.4-152.4-152.4-152.4c-84,0-152.4,68.4-152.4,152.4
				c0,84,68.4,152.4,152.4,152.4C890.5,602.5,958.9,534.1,958.9,450.1z M692.3,449.9c0-63.2,51.3-114.5,114.5-114.5
				s114.5,51.2,114.5,114.5c0,63.2-51.3,114.5-114.5,114.5S692.3,513.1,692.3,449.9z"/>
		</g>
	</g>
	<path d="M1860.5,414.9l-40.6,71.4c-31.3-21.9-73.7-35-110.7-35c-42.3,0-68.5,17.5-68.5,48.9c0,38.1,46.5,47,115.6,71.8
		c74.3,26.3,117,57.2,117,125.2c0,93.1-73.2,145.4-178.5,145.4c-51.3,0-113.2-13.2-160.7-42.2l29.6-79.2
		c38.6,20.4,84.9,32.5,126.1,32.5c55.5,0,81.9-20.5,81.9-50.8c0-34.7-40.3-45.1-105.3-66.6c-74.1-24.7-125.4-57.2-125.4-132.5
		c0-85,68-133.7,165.9-133.7C1775.2,370.2,1830.1,391.8,1860.5,414.9"/>
	<polygon points="2178.1,460.1 2178.1,834.8 2082.4,834.8 2082.4,460.1 1943.6,460.1 1943.6,378 2316.6,378 2316.6,460.1 	"/>
	<polygon points="2518.2,459.8 2518.2,562.8 2701.3,562.8 2701.3,644.8 2518.2,644.8 2518.2,752 2730.7,752 2730.7,834.8 
		2422.6,834.8 2422.6,378 2730.7,378 2730.7,459.8 	"/>
	<path d="M2944.2,746.1l-30.2,88.7h-100.3L2985,378h96.3l176.1,456.8h-103.7l-30.9-88.7L2944.2,746.1L2944.2,746.1z M3032.6,487
		l-62.4,182.9h126.1L3032.6,487z"/>
	<polygon points="3748.4,554.6 3623.4,821.5 3569.4,821.5 3446.4,557 3446.4,834.8 3354.8,834.8 3354.8,378 3446.2,378 
		3599.7,707.8 3747.8,378 3840,378 3840,834.8 3748.4,834.8 	"/>
</g>
</svg>
