<svg xmlns="http://www.w3.org/2000/svg" xml:space="preserve" height="120.59" viewBox="0 0 376.823 120.591" width="376.82"><defs><clipPath id="a" clipPathUnits="userSpaceOnUse"><path d="M0 612h792V0H0v612z"/></clipPath></defs><g clip-path="url(#a)" transform="matrix(1.25 0 0 -1.25 -306.44 441.96)" fill="#fff"><path d="m276.88 282.44-5.434 2.245a9.354 9.354 0 0 1 4.841-4.606c4.782-1.992 10.295.277 12.288 5.062a9.326 9.326 0 0 1 .014 7.19 9.335 9.335 0 0 1-5.074 5.097 9.361 9.361 0 0 1-6.926.105l5.613-2.321a6.918 6.918 0 1 0-5.322-12.772m22.62 34.31a8.35 8.35 0 0 0 8.351 8.35 8.35 8.35 0 1 0 0-16.7 8.35 8.35 0 0 0-8.351 8.35m19.448-.019c0 6.129-4.986 11.116-11.116 11.116-6.129 0-11.116-4.987-11.116-11.116 0-6.13 4.987-11.115 11.116-11.115 6.13 0 11.116 4.985 11.116 11.115"/><path d="M293.24 349.57c-23.237 0-42.274-17.918-44.084-40.689l23.71-9.803a12.443 12.443 0 0 0 7.745 2.158l10.544 15.283-.001.216c0 9.199 7.483 16.683 16.683 16.683 9.199 0 16.682-7.484 16.682-16.683s-7.483-16.684-16.682-16.684c-.127 0-.253.003-.379.006l-15.038-10.73c.008-.196.015-.394.015-.592 0-6.906-5.617-12.523-12.522-12.523-6.061 0-11.129 4.327-12.277 10.055l-16.956 7.011c5.25-18.569 22.309-32.181 42.56-32.181 24.432 0 44.237 19.806 44.237 44.236 0 24.432-19.805 44.237-44.237 44.237m91.48-30.27-2.964-5.21c-2.283 1.595-5.377 2.555-8.078 2.555-3.087 0-4.997-1.278-4.997-3.567 0-2.781 3.393-3.428 8.436-5.238 5.421-1.917 8.537-4.171 8.537-9.135 0-6.793-5.342-10.609-13.02-10.609-3.742 0-8.256.966-11.726 3.077l2.162 5.777c2.819-1.49 6.191-2.372 9.197-2.372 4.052 0 5.978 1.495 5.978 3.705 0 2.529-2.937 3.289-7.678 4.859-5.403 1.804-9.147 4.171-9.147 9.666 0 6.197 4.963 9.756 12.104 9.756 4.976 0 8.976-1.577 11.196-3.264m23.17-3.29v-27.339h-6.978v27.339h-10.13v5.986h27.209v-5.986H407.89zm24.81.01v-7.509h13.356v-5.986H432.7v-7.822h15.496v-6.04h-22.473v33.325h22.473v-5.968H432.7zm37.52-1.98-4.55-13.343h9.196l-4.646 13.343zm-6.445-18.905-2.206-6.47h-7.316l12.495 33.325h7.025l12.848-33.325h-7.564l-2.254 6.47h-13.028zm58.665 13.975-9.119-19.473h-3.938l-8.972 19.299v-20.27h-6.684v33.325h6.668l11.201-24.056 10.801 24.056h6.727v-33.325h-6.683l-.001 20.444zm14.77 8.91h.815c.527 0 .838.331.838.747 0 .42-.223.69-.84.69h-.813v-1.437zm.86 2.132c1.195 0 1.596-.632 1.596-1.315 0-.626-.371-1.046-.823-1.26l1.071-2.007h-.877l-.903 1.779h-.931v-1.779h-.73v4.582h1.597zm-3.912-2.369c0-2.396 1.725-3.901 3.847-3.901 2.115 0 3.833 1.505 3.833 3.901 0 2.403-1.718 3.885-3.833 3.885-2.116 0-3.847-1.5-3.847-3.885m8.457 0c0-2.864-2.146-4.649-4.61-4.649-2.471 0-4.623 1.785-4.623 4.649 0 2.863 2.152 4.636 4.623 4.636 2.464 0 4.61-1.773 4.61-4.636"/></g></svg>