<?xml version="1.0" encoding="utf-8"?>
<!-- Generator: Adobe Illustrator 25.0.0, SVG Export Plug-In . SVG Version: 6.00 Build 0)  -->
<svg version="1.1" id="Layer_1" xmlns="http://www.w3.org/2000/svg" xmlns:xlink="http://www.w3.org/1999/xlink" x="0px" y="0px"
	 viewBox="0 0 3840 1213.5" style="enable-background:new 0 0 3840 1213.5;" xml:space="preserve">
<style type="text/css">
	.st0{fill:#FFFFFF;}
	.st1{fill:url(#SVGID_1_);}
	.st2{fill:url(#SVGID_2_);}
	.st3{fill:url(#SVGID_3_);}
	.st4{fill:url(#SVGID_4_);}
	.st5{fill:url(#SVGID_5_);}
	.st6{fill:url(#SVGID_6_);}
	.st7{fill:url(#SVGID_7_);}
	.st8{fill:url(#SVGID_8_);}
</style>
<g>
	<g>
		<path d="M604.7,0C285.9,0,24.8,245.8,0,558.1l325.2,134.5c27.6-18.8,60.8-29.9,96.7-29.9c3.2,0,6.4,0.1,9.6,0.3l144.6-209.6
			c0-1,0-2,0-3c0-126.2,102.6-228.8,228.8-228.8c126.2,0,228.8,102.7,228.8,228.8S931,679.2,804.9,679.2c-1.7,0-3.5,0-5.2-0.1
			L593.4,826.3c0.1,2.7,0.2,5.4,0.2,8.1c0,94.7-77,171.8-171.8,171.8c-83.1,0-152.6-59.3-168.4-137.9L20.9,772.1
			c72,254.7,306,441.4,583.8,441.4c335.1,0,606.8-271.7,606.8-606.7C1211.4,271.6,939.8,0,604.7,0"/>
		<path d="M380.2,920.6l-74.5-30.8c13.2,27.5,36.1,50.5,66.4,63.2c65.6,27.3,141.2-3.8,168.5-69.4c13.2-31.7,13.3-66.8,0.2-98.6
			c-13.1-31.8-37.8-56.7-69.6-69.9c-31.5-13.1-65.3-12.6-95-1.4l77,31.8c48.4,20.2,71.3,75.7,51.1,124.1
			C484.2,917.9,428.6,940.8,380.2,920.6"/>
		<path d="M957.3,450.4c0-84.1-68.4-152.5-152.5-152.5c-84.1,0-152.5,68.4-152.5,152.5c0,84.1,68.4,152.5,152.5,152.5
			C888.9,602.8,957.3,534.4,957.3,450.4 M690.6,450.1c0-63.3,51.3-114.5,114.5-114.5s114.5,51.3,114.5,114.5
			s-51.3,114.5-114.5,114.5S690.6,513.3,690.6,450.1"/>
		<path d="M1859.4,415.1l-40.7,71.5c-31.3-21.9-73.8-35-110.8-35c-42.3,0-68.5,17.5-68.5,48.9c0,38.1,46.5,47,115.7,71.8
			c74.4,26.3,117.1,57.2,117.1,125.3c0,93.2-73.3,145.5-178.6,145.5c-51.3,0-113.2-13.2-160.8-42.2l29.7-79.2
			c38.7,20.4,84.9,32.5,126.1,32.5c55.6,0,82-20.5,82-50.8c0-34.7-40.3-45.1-105.3-66.6c-74.1-24.7-125.5-57.2-125.5-132.6
			c0-85,68.1-133.8,166-133.8C1774.1,370.4,1829,392,1859.4,415.1"/>
		<polygon points="2177.2,460.3 2177.2,835.3 2081.5,835.3 2081.5,460.3 1942.5,460.3 1942.5,378.2 2315.7,378.2 2315.7,460.3 		"/>
		<polygon points="2517.5,460.1 2517.5,563.1 2700.7,563.1 2700.7,645.2 2517.5,645.2 2517.5,752.4 2730.1,752.4 2730.1,835.3 
			2421.8,835.3 2421.8,378.2 2730.1,378.2 2730.1,460.1 		"/>
		<path d="M2943.7,746.5l-30.3,88.8h-100.3l171.4-457.1h96.4l176.2,457.1h-103.7l-30.9-88.8L2943.7,746.5L2943.7,746.5z
			 M3032.1,487.2l-62.4,183h126.1L3032.1,487.2z"/>
		<polygon points="3748.3,554.9 3623.2,822 3569.2,822 3446.2,557.3 3446.2,835.3 3354.5,835.3 3354.5,378.2 3446,378.2 
			3599.6,708.2 3747.7,378.2 3840,378.2 3840,835.3 3748.4,835.3 		"/>
	</g>
</g>
</svg>
