<svg version="1.1" viewBox="0 0 200 155" xmlns="http://www.w3.org/2000/svg">
 <path d="m0 0h137.11c-10.61 2.14-21.17 4.85-31.09 9.29-0.04 6.22-0.04 12.45 0.03 18.67 0.07 13.81 0.05 27.62 0.01 41.43-0.08 4.3-0.09 8.6 0.01 12.9 0.08 13.56 0.1 27.11-0.01 40.67-0.08 6.51-0.14 13.02 0.05 19.53 6.83-4.11 14.15-7.47 21.87-9.51 5.61-1.59 11.44-1.94 17.17-2.83 7.56-0.81 15.04 0.93 22.44 2.23 10.23 1.84 19.73 6.23 29.3 10.08 0.26-43.79 0.03-87.59 0.11-131.39-10.51-5.92-22.44-8.57-34.12-11.07h37.12v155h-200v-155z" fill="none"/>
 <path d="m137.11 0c-10.61 2.14-21.17 4.8491-31.09 9.2891-0.04 6.22-0.03875 12.452 0.03125 18.672 9.72-4.36 19.918-7.8509 30.568-8.8809 0.11 13.91-0.00969 27.83 0.07031 41.74-10.61 1.25-20.769 4.5803-30.629 8.5703-0.08 4.3-0.09024 8.5984 0.00976 12.898 9.71-4.29 19.93-7.6887 30.59-8.4688 0.03 13.3-0.01047 26.6 0.01953 39.9-10.51 1.97-20.849 4.8702-30.619 9.2402-0.08 6.51-0.14118 13.019 0.04883 19.529 6.83-4.11 14.151-7.4698 21.871-9.5098 5.61-1.59 11.44-1.9401 17.17-2.8301 7.56-0.81 15.039 0.93047 22.439 2.2305 10.23 1.84 19.731 6.2301 29.301 10.08 0.26001-43.79 0.02938-87.591 0.10938-131.39-10.51-5.92-22.439-8.5703-34.119-11.07h-25.771zm14.828 16.947c8.9067-0.10896 17.769 1.653 26.012 5.0918-0.01 14.01 0.07117 28.021-0.04883 42.031-5-1.36-9.9496-3.04-15.1-3.75-4.9-0.55-9.8417-0.30984-14.762-0.33984 0.01-14.29-0.11992-28.581 0.08008-42.871 1.2725-0.0925 2.546-0.14654 3.8184-0.16211zm3.7266 54.803c7.6148 0.067031 15.187 1.4098 22.297 4.2598-0.02 13.84 0.02875 27.68-0.03125 41.52-9.66-3.03-19.76-4.7696-29.91-4.3496 0.03-13.69-0.02875-27.39 0.03125-41.08 2.5325-0.2525 5.075-0.37195 7.6133-0.34961z" fill="#fff"/>
 <g fill="#fff">
  <path d="m8 13.39c2.39-1.04 4.72-2.21 7-3.47v7.01c-2.27 1.23-4.58 2.38-6.93 3.45-0.07-2.33-0.07-4.66-0.07-6.99z"/>
  <path d="m87 18.39c5.74-2.67 11.39-5.54 17-8.48 0.02 5.9-0.04 11.79 0.03 17.69-5.75 2.67-11.41 5.55-17.03 8.49v-17.7z"/>
  <path d="m21 18.2c2.94-1.88 5.9-3.73 9-5.34v8.98c-2.58 2.18-5.63 3.77-8.92 4.53-0.09-2.72-0.09-5.45-0.08-8.17z"/>
  <path d="m68 24.09c5.27-2.86 10.74-5.32 16-8.18v16.71c-5.4 2.4-10.56 5.31-15.93 7.77-0.14-5.43-0.05-10.87-0.07-16.3z"/>
  <path d="m50.99 23.31c4.94-1.6 9.57-3.98 14.12-6.46 1.71 4.47 0.59 9.39 0.89 14.06-4.79 2.8-9.97 4.78-15 7.06 0-4.88 0.01-9.77-0.01-14.66z"/>
  <path d="m36 24.07c3.77-2.25 7.99-3.54 11.96-5.39 0.06 3.68 0.04 7.36 0.04 11.05-4.12 1.19-7.8 3.47-11.91 4.65-0.12-3.43-0.09-6.87-0.09-10.31z"/>
  <path d="m87 37.39c5.74-2.67 11.39-5.54 17-8.48-0.02 5.9 0.04 11.8-0.03 17.71-5.72 2.72-11.48 5.41-16.88 8.73-0.18-5.99-0.06-11.98-0.09-17.96z"/>
  <path d="m87 56.13c5.39-3.32 11.59-4.94 17-8.22 0 5.9-0.01 11.79 0.01 17.69-5.74 2.67-11.38 5.56-17.01 8.46v-17.93z"/>
  <path d="m7.98 70.09c2.27-1.24 4.58-2.41 6.94-3.48 0.08 2.36 0.09 4.72 0.08 7.08-2.27 0.97-4.51 2.04-6.91 2.68-0.07-2.09-0.1-4.19-0.11-6.28z"/>
  <path d="m87.01 75.01c5.74-2.53 11.51-5.01 16.99-8.1v16.95c-5.18 3.89-11.4 6.01-17 9.2 0-6.02-0.01-12.04 0.01-18.05z"/>
  <path d="m21.05 74.47c2.87-1.78 5.76-3.54 8.87-4.88 0.1 3.09 0.09 6.18 0.08 9.27-2.99 1.48-5.66 3.63-8.9 4.55-0.11-2.98-0.16-5.96-0.05-8.94z"/>
  <path d="m68 80.38c5.4-2.4 10.56-5.3 15.93-7.77 0.13 5.43 0.05 10.87 0.07 16.3-5.27 2.86-10.74 5.32-16 8.18v-16.71z"/>
  <path d="m51 80.38c5.04-2.07 9.6-5.25 14.86-6.77 0.24 4.65 0.1 9.3 0.16 13.96-5.04 2.13-9.63 5.34-14.94 6.81-0.15-4.67-0.06-9.33-0.08-14z"/>
  <path d="m36.02 80.32c3.92-1.68 7.82-3.43 11.89-4.69 0.12 3.45 0.09 6.9 0.09 10.36-3.92 1.91-8.06 3.35-11.93 5.39-0.09-3.69-0.09-7.37-0.05-11.06z"/>
  <path d="m87 94.08c5.58-2.93 11.23-5.75 16.93-8.46 0.14 5.76 0.04 11.53 0.07 17.3-5.67 2.75-11.13 6.01-16.9 8.5-0.2-5.78-0.06-11.56-0.1-17.34z"/>
  <path d="m87 113.38c5.74-2.66 11.39-5.53 17-8.47-0.01 5.9 0 11.8 0 17.71-5.85 2.52-11.37 5.69-16.88 8.84-0.24-6.02-0.07-12.05-0.12-18.08z"/>
  <path d="m8 126.32c2.27-0.98 4.51-2.06 6.91-2.7 0.09 2.34 0.1 4.67 0.09 7.01-2.43 0.57-4.68 1.68-6.96 2.69-0.04-2.34-0.04-4.67-0.04-7z"/>
  <path d="m87 132.4c5.74-2.38 10.93-6.03 16.92-7.78 0.16 5.67 0.05 11.33 0.08 17-5.95 2.34-11.15 6.1-16.92 8.79-0.16-6-0.05-12.01-0.08-18.01z"/>
  <path d="m21 131.13c3.11-1.6 6.08-3.46 9.02-5.34-0.04 3.25 0.02 6.51-0.06 9.76-3.11 1.37-5.79 3.48-8.86 4.92-0.13-3.11-0.11-6.23-0.1-9.34z"/>
  <path d="m68 137.38c5.4-2.41 10.56-5.31 15.93-7.77 0.14 5.33 0.04 10.67 0.08 16-5.4 2.41-10.56 5.32-15.94 7.78-0.13-5.34-0.05-10.67-0.07-16.01z"/>
  <path d="m51 137.09c4.92-2.23 9.44-5.86 14.96-6.33 0.07 4.38 0.03 8.77 0.04 13.16-4.92 2.59-9.9 5.08-14.93 7.47-0.13-4.77-0.05-9.54-0.07-14.3z"/>
  <path d="m36.03 137.38c4.03-1.79 7.88-3.94 11.89-5.77 0.1 3.67 0.11 7.34 0.05 11.01-3.98 1.84-7.84 3.93-11.97 5.4 0.01-3.55-0.03-7.1 0.03-10.64z"/>
 </g>
</svg>
