<svg enable-background="new 0 0 947.7 156.2" version="1.1" viewBox="0 0 947.7 156.2" xml:space="preserve" xmlns="http://www.w3.org/2000/svg">
<g transform="translate(876.93 -446.99)" fill="#fff">
	<path d="m-644.5 447h-40.9l-75.4 61.4-75.4-61.4h-40.9l95.8 78.1-95.8 78.1h40.9l75.4-61.4 75.4 61.4h40.9l-95.8-78.1 95.8-78.1z"/>
	<path d="m-590.1 575.9c-6.8-10.9-11.5-23.6-13.3-37.2h159.1c-1.9 13.7-6.6 26.3-13.3 37.2h-132.5zm0-101.7h132.4c6.8 10.9 11.5 23.6 13.3 37.2h-159.1c2-13.6 6.6-26.3 13.4-37.2m161.1 44.6 11.3-5.8c-2.3-25.1-11.6-47.9-25.8-65.9h-160.6c-13.9 17.6-23.1 39.9-25.6 64.4h-25.3v27.2h25.3c2.5 24.5 11.8 46.8 25.6 64.4h160.6v-0.1c14.2-18 23.5-40.8 25.8-65.9l-11.3-5.8v-12.5z"/>
	<path d="m-346.6 575.9c-9-14.4-14.3-32-14.3-50.9s5.3-36.4 14.3-50.9h132.4c9 14.4 14.3 32 14.3 50.9s-5.3 36.4-14.3 50.9h-132.4zm146.6-128.9h-41.1-119.6c-16.4 20.9-26.4 48.2-26.4 78 0 29.9 10 57.2 26.4 78h160.6v-0.1c16.4-20.9 26.4-48.2 26.4-78 0.1-29.7-9.9-57-26.3-77.9"/>
	<path d="m70.8 447h-40.9l-75.4 61.4-75.4-61.4h-40.9l95.8 78.1-95.8 78.1h40.9l75.4-61.4 75.4 61.4h40.9l-95.8-78.1 95.8-78.1z"/>
</g>
</svg>
