<svg enable-background="new 0 0 859.907 131.676" version="1.1" viewBox="0 0 859.907 131.676" xml:space="preserve" xmlns="http://www.w3.org/2000/svg">
<path d="m0 0v63.818359h19.195312v-46.060547l29.744141 46.0625h19.197266v-63.820312h-19.197266v44.625l-28.306641-44.625zm80.134766 0v11.519531h19.193359v-11.519531zm288.392574 0v23.513672s-5.7635-4.31836-13.4375-4.31836c-11.99584 0-22.07421 10.555409-22.07422 22.070313 0 11.996904 10.07838 23.994141 22.07422 23.994141 7.678 0 13.4375-2.878907 13.4375-2.878907v1.4375h19.18946v-63.818359zm-190.50195 5.7597656v9.1152344h-10.08008v5.759766h10.08008v43.1875l19.66797-0.0039v-43.1836h10.08008v-5.759766h-10.08008v-9.1152344zm274.01563 13.2402344c-5e-3 0.0018-9e-3 0.0075-0.0137 0.01172 0.0262 0.0069 0.0538 9e-3 0.0801 0.01563-0.01-0.0071-0.0181-0.01309-0.0312-0.02148-5e-3 -0.0032-9e-3 -0.0025-0.0137-0.0039-7e-3 -0.0012-0.0149-6.03e-4 -0.0215-2e-3zm-217.39649 0.193359c-15.35284 0-28.30664 10.55587-28.30664 23.509766 0 13.438896 12.9558 23.994141 28.30664 23.994141 13.43492 0 24.47452-7.680034 27.35352-17.751954h-19.67578v5.75586c0 4.79796-3.35474 6.238281-7.67774 6.238281-4.32092 0-7.19726-1.440321-7.19726-6.238281v-11.996094h35.51171c1e-3 -12.954896-12.48053-23.511719-28.31445-23.511719zm189.06641 0c-15.83892 0-28.31446 10.55587-28.31446 23.509766 0 13.438896 12.47554 23.994141 28.31446 23.994141 15.34684 0 28.30664-10.555245 28.30664-23.994141 0-12.952896-12.9598-23.509766-28.30664-23.509766zm-281.19532 2e-3c-4.31592 0-9.11762 3.835876-13.43554 5.75586v-4.316406h-19.19336v43.1875h19.1914v-29.75c0-2.879976 6.72057-6.240235 9.60157-6.240235 2.87692 0 8.15625 3.358259 8.15625 6.240235v29.748046l19.67187-2e-3v-29.746093c0-6.238952-11.99645-14.876954-18.23437-14.876954zm159.3086 0c-4.318 0-9.11355 3.836876-13.43555 5.75586v-4.316406h-19.19336v43.1875h19.19336v-29.75c0-2.877976 6.72275-6.234375 9.59375-6.234375 2.876 0 8.16211 3.356399 8.16211 6.234375v29.75h19.67578v-29.752c0-6.234944-11.99428-14.874999-18.23828-14.875zm-221.689454 1.439407v43.1875l19.193359-0.0039v-43.1836zm154.509764 2.880859c4.323 0 7.67969 2.878774 7.67969 7.677734v4.31836h-14.875v-4.322266c-2e-3 -4.79596 2.87439-7.673828 7.19531-7.673828zm189.06641 0c4.31592 0 7.19726 2.878774 7.19726 7.677734v23.513672c0 4.79796-2.88134 6.236328-7.19726 6.236328-4.8 0-7.68164-1.438368-7.68164-6.236328v-23.517578c2e-3 -4.79496 2.88264-7.673828 7.68164-7.673828zm-62.38672 2.878906c4.31992 0 7.20312 3.355767 7.20312 7.677735v17.753906c0 4.320968-2.8832 5.757812-7.20312 5.757812-4.799 0-7.67774-1.437844-7.67774-5.757812v-17.753906c2e-3 -4.320968 2.87874-7.677735 7.67774-7.677735z" fill="#c12c2d"/><path d="m86.256 131.589v-23.598c0-4.473-4.478-8.949-8.955-8.949h-34.173v32.549h10.582v-21.968c0-1.629 1.215-3.258 2.844-3.258h16.273c1.629 0 3.258 1.629 3.258 3.258v21.966zm283.13 0v-23.598c0-4.473-4.473-8.949-8.944-8.949h-34.177v32.549h10.576v-21.968c0-1.629 1.226-3.258 2.844-3.258h16.273c1.628 0 3.257 1.629 3.257 3.258v21.966zm153.706 0v-23.598c0-4.473-4.473-8.949-8.946-8.949h-34.177v32.549h10.578v-21.968c0-1.629 1.224-3.258 2.853-3.258h16.273c1.628 0 3.252 1.629 3.252 3.258v21.966zm-92.255 0v-23.598c0-4.473-4.475-8.949-8.947-8.949h-45.976v32.549h10.584v-21.968c0-1.629 1.219-3.258 2.845-3.258h6.102c1.226 0 2.846 1.629 2.846 3.258v21.966h10.586v-21.966c0-1.629 1.216-3.258 2.845-3.258h6.101c1.225 0 2.844 1.629 2.844 3.258v21.966zm-395.032 0h-26.848c-4.478 0-8.957-2.85-8.957-7.322v-25.631h35.803v7.729h-24.001c-1.221 0-2.844 1.224-2.844 2.85s1.623 2.848 2.844 2.848h22.375v6.508h-22.375c-1.221 0-2.844 1.63-2.844 2.851 0 1.626 1.623 3.253 2.844 3.253h24.003zm132.242 0h-26.857c-4.473 0-8.946-2.85-8.946-7.322v-25.631h35.802v7.729h-24.006c-1.219 0-2.848 1.224-2.848 2.85s1.629 2.848 2.848 2.848h22.375v6.508h-22.375c-1.219 0-2.848 1.63-2.848 2.851 0 1.626 1.629 3.253 2.848 3.253h24.005v6.915h2e-3zm306.088 0h-26.857c-4.473 0-8.946-2.85-8.946-7.322v-25.631h35.804v7.729h-24.006c-1.224 0-2.853 1.224-2.853 2.85s1.629 2.848 2.853 2.848h22.376v6.508h-22.376c-1.224 0-2.853 1.63-2.853 2.851 0 1.626 1.629 3.253 2.853 3.253h24.005zm-383.407-32.548v7.319h10.578c2.848 0 2.848 0 2.848 3.259v21.966h10.172v-21.963c0-3.259 0-3.259 3.255-3.259h10.171v-7.319h-37.024zm129.27 0v7.319h10.577c2.844 0 2.844 0 2.844 3.259v21.966h10.171v-21.963c0-3.259 0-3.259 3.259-3.259h10.171v-7.319h-37.021v-3e-3zm309.06 0v7.319h10.578c2.844 0 2.844 0 2.844 3.259v21.966h10.17v-21.963c0-3.259 0-3.259 3.256-3.259h10.172v-7.319h-37.02zm-353.709 0v32.548h10.581v-5.693c0-1.629 1.216-3.259 2.844-3.259h13.426c1.629 0 2.844 1.63 2.844 3.259v5.693h8.955v-8.952c0-1.221-1.224-2.844-1.224-4.473 0-1.221 2.844-4.067 2.844-7.323v-2.85c0-2.847-4.473-8.949-7.318-8.949zm13.424 7.319h13.427c1.629 0 2.844 1.629 2.844 3.259v2.844c0 1.629-1.215 2.85-2.844 2.85h-13.426c-1.629 0-2.844-1.221-2.844-2.85v-2.844c0-1.628 1.215-3.259 2.843-3.259zm80.148-7.319c-2.853 0-7.326 6.102-7.326 8.948v23.6h10.577v-8.952h19.126v8.952h10.576v-23.598c0-2.847-4.471-8.949-7.73-8.949zm6.106 7.319h13.42c1.225 0 2.854 1.629 2.854 3.259v5.693h-19.127v-5.693c-2e-3 -1.628 1.222-3.259 2.853-3.259zm44.344 25.229v-32.548h-10.171v32.548zm540.536-0.088v-23.597c0-4.473-4.482-8.948-8.955-8.948h-45.97v32.545h10.577v-21.967c0-1.63 1.218-3.259 2.844-3.259h6.102c1.225 0 2.854 1.629 2.854 3.259v21.966h10.576v-21.966c0-1.63 1.218-3.259 2.847-3.259h6.103c1.224 0 2.85 1.629 2.85 3.259v21.966zm-62.208 0h-26.852c-4.473 0-8.946-2.85-8.946-7.322v-25.63h35.8v7.727h-24.008c-1.215 0-2.844 1.225-2.844 2.851 0 1.629 1.629 2.847 2.844 2.847h22.375v6.509h-22.375c-1.215 0-2.844 1.629-2.844 2.85 0 1.629 1.629 3.255 2.844 3.255h24.004v6.915h2e-3zm-77.318-32.548v7.322h10.579c2.844 0 2.844 0 2.844 3.259v21.963h10.17v-21.963c0-3.259 0-3.259 3.259-3.259h10.17v-7.321zm-120.501 0.177c-2.844 0-8.945 4.477-8.945 7.32v4.479c0 2.847 6.102 7.319 8.945 7.319h17.902c1.63 0 3.251 1.629 3.251 2.851 0 1.622-1.618 3.253-3.251 3.253h-26.848v7.323h30.099c2.854 0 8.553-4.473 8.553-7.323v-4.473c0-3.255-5.698-7.729-8.553-7.729h-17.893c-1.627 0-3.257-1.221-3.257-2.851 0-1.626 1.63-2.85 3.257-2.85h26.446v-7.32h-29.706zm86.184 0c-2.854 0-8.953 4.477-8.953 7.32v4.479c0 2.847 6.1 7.319 8.953 7.319h17.902c1.62 0 3.251 1.629 3.251 2.851 0 1.622-1.626 3.253-3.251 3.253h-26.857v7.323h30.108c2.853 0 8.54-4.473 8.54-7.323v-4.473c0-3.255-5.688-7.729-8.54-7.729h-17.903c-1.619 0-3.253-1.221-3.253-2.851 0-1.626 1.629-2.85 3.253-2.85h26.443v-7.32h-29.693zm-53.231 0v14.646c0 2.847 4.473 7.323 7.326 7.323h7.316v10.576h10.586v-10.575h7.318c2.854 0 7.326-4.477 7.326-7.323v-14.647h-10.17v11.8c0 1.221-1.631 2.847-3.257 2.847h-13.015c-1.63 0-3.259-1.626-3.259-2.847v-11.8z" fill="#070308"/>
</svg>
