<?xml version="1.0" encoding="utf-8"?>
<!-- Generator: Adobe Illustrator 26.0.2, SVG Export Plug-In . SVG Version: 6.00 Build 0)  -->
<svg version="1.1" id="Layer_1" xmlns="http://www.w3.org/2000/svg" xmlns:xlink="http://www.w3.org/1999/xlink" x="0px" y="0px"
	 viewBox="0 0 3839 550.3" style="enable-background:new 0 0 3839 550.3;" xml:space="preserve">
<style type="text/css">
	.st0{display:none;}
	.st1{display:inline;fill:#FFFFFF;}
	.st2{display:inline;}
	.st3{fill:#2920E2;}
	.st4{fill:#FFFFFF;}
</style>
<g>
	<g>
		<path d="M933.4,494.3C933.4,494.3,933.6,494.4,933.4,494.3c12.7-8.2,21.3-22.8,21.3-39.4c0-25.7-20.3-46.6-45.5-46.6h-10.1h-123
			v52v90h47.4v-27.7c0-4.9,4-8.8,8.8-8.8h64.6c4.9,0,8.8,4,8.8,8.8v0.8v26.8h45.2v-26.8C950.8,516.5,947.8,503.8,933.4,494.3z
			 M832.5,478.1c-4.9,0-8.8-4-8.8-8.8v-18.1c0-4.9,4-8.8,8.8-8.8H897c4.9,0,8.8,4,8.8,8.8v18.1c0,4.9-4,8.8-8.8,8.8H832.5z"/>
		<path d="M1290.7,408.2h-10.8h-25.2h-17.1h-25.2h-10.8c-23.3,0-42.2,18.9-42.2,42.2v11.4v88.5h46.5v-35h80.4v35h46.5v-88.5v-11.4
			C1332.8,427.1,1314,408.2,1290.7,408.2z M1206.1,478.1v-22.5c0-6.5,5.2-11.7,11.7-11.7h19.9h17.1h19.9c6.5,0,11.7,5.2,11.7,11.7
			v22.5H1206.1z"/>
		<rect x="1364.5" y="408.2" width="48.1" height="142.1"/>
		<path d="M1593.2,408.2h-151.1v142.1h45.8v-95.2c0-5.7,4.7-10.4,10.4-10.4h78.5c5.7,0,10.4,4.7,10.4,10.4v29v66.2h45v-66.2v-11.4
			v-17.2v-8.2C1632.4,425.7,1614.9,408.2,1593.2,408.2z"/>
		<path d="M1869.3,408.2h-206.7v142.1h41.9v-88.8v-6.7c0-5.5,4.5-10.1,10.1-10.1h35.8c5.5,0,10.1,4.5,10.1,10.1V472l0,0v78.3h47.3
			v-88.8v-6.7c0-5.5,4.5-10.1,10.1-10.1h35.8c5.5,0,10.1,4.5,10.1,10.1v6.7v88.8h2.3h45V449.9
			C1910.9,426.8,1892.2,408.2,1869.3,408.2z"/>
		<path d="M2275.4,408.2h-151.1v142.1h45.8v-95.2c0-5.7,4.7-10.4,10.4-10.4h78.5c5.7,0,10.4,4.7,10.4,10.4v29v66.2h45v-66.2v-11.4
			v-17.2v-8.2C2314.5,425.7,2297,408.2,2275.4,408.2z"/>
		<path d="M339.9,408.2H188.7v142.1h45.8v-95.2c0-5.7,4.7-10.4,10.4-10.4h78.5c5.7,0,10.4,4.7,10.4,10.4v29v66.2h45v-66.2v-11.4
			v-17.2v-8.2C379,425.7,361.5,408.2,339.9,408.2z"/>
		<path d="M159.1,444.3v-36.1H41.8l0,0H0v100.3c0,23.1,18.7,41.8,41.8,41.8h117.3v-36.1h-106c-6.2,0-11.2-5-11.2-11.2l0,0
			c0-6.2,5-11.2,11.2-11.2h99.8v-25.1H53.1c-6.2,0-11.2-5-11.2-11.2l0,0c0-6.2,5-11.2,11.2-11.2L159.1,444.3z"/>
		<path d="M748.8,444.3v-36.1H631.5l0,0h-41.8v100.3c0,23.1,18.7,41.8,41.8,41.8h117.3v-36.1h-106c-6.2,0-11.2-5-11.2-11.2l0,0
			c0-6.2,5-11.2,11.2-11.2h99.8v-25.1h-99.8c-6.2,0-11.2-5-11.2-11.2l0,0c0-6.2,5-11.2,11.2-11.2L748.8,444.3z"/>
		<path d="M2096.3,444.3v-36.1h-117.2l0,0h-41.8v100.3c0,23.1,18.7,41.8,41.8,41.8h117.3v-36.1h-106c-6.2,0-11.2-5-11.2-11.2l0,0
			c0-6.2,5-11.2,11.2-11.2h99.8v-25.1h-99.8c-6.2,0-11.2-5-11.2-11.2l0,0c0-6.2,5-11.2,11.2-11.2L2096.3,444.3L2096.3,444.3z"/>
		<path d="M2506.1,408.2h-170.8v35.7h50.3c5.5,0,9.9,4.4,9.9,9.9v96.4h50.5v-96.4c0-5.5,4.4-9.9,9.9-9.9h50.3V408.2z"/>
		<path d="M1140.4,408.2H969.6v35.7h50.3c5.5,0,9.9,4.4,9.9,9.9v96.4h50.5v-96.4c0-5.5,4.4-9.9,9.9-9.9h50.3L1140.4,408.2
			L1140.4,408.2z"/>
		<path d="M568.3,408.2H397.5v35.7h50.3c5.5,0,9.9,4.4,9.9,9.9v96.4h50.5v-96.4c0-5.5,4.4-9.9,9.9-9.9h50.3L568.3,408.2L568.3,408.2
			z"/>
	</g>
	<g>
		<path d="M3152,466h-66.7c-7.8,0-13.2-3.1-13.2-10.2c0-6.3,4.7-11.7,10.9-11.7h114.1v-35.9h-124.9c-23.3,0-42.7,19.5-42.7,41.3
			c0,31.2,20.2,43,47.3,43h66.7c7,0,14,3.1,14,10.2c0,6.3-4.7,11.7-10.9,11.7h-117.2v35.9h128c21,0,42.7-17.2,42.7-41.3
			C3200.2,480,3176.9,466,3152,466z"/>
		<path d="M2770.2,466.1H2705c-7.8,0-14-3.1-14-10.2c0-6.2,6.2-11.7,11.6-11.7h114.1v-35.9h-124.9c-24.8,0-45,19.5-45,41.3
			c0,31.1,21.7,42.9,48.9,42.9h65.2c7.8,0,14,3.1,14,10.2c0,6.2-6.2,11.7-11.6,11.7h-115.7v35.9h128c23.3,0,44.2-17.2,44.2-41.3
			C2819.9,480.1,2797.4,466.1,2770.2,466.1z"/>
		<path d="M3797.3,408.3h-206.7v142.1h41.9v-88.8v-6.7c0-5.5,4.5-10.1,10.1-10.1h35.8c5.5,0,10.1,4.5,10.1,10.1v17.3l0,0v78.3h47.3
			v-88.8v-6.7c0-5.5,4.5-10.1,10.1-10.1h35.8c5.5,0,10.1,4.5,10.1,10.1v6.7v88.8h2.3h45V449.9
			C3838.9,426.9,3820.3,408.3,3797.3,408.3z"/>
		<path d="M3008.5,408.3h-42.7h-0.3v53c0,5.9-4.8,10.7-10.7,10.7h-63.8c-5.9,0-10.7-4.8-10.7-10.7v-53h-1h-44v52v7.4
			c0,22.5,18.2,40.7,40.7,40.7h21.4v41.9h49.7v-41.9h21.8c22.5,0,40.7-18.2,40.7-40.7v-59.5H3008.5L3008.5,408.3z"/>
		<path d="M3562.4,444.3v-36.1h-117.2l0,0h-41.8v100.3c0,23.1,18.7,41.8,41.8,41.8h117.3v-36.1h-106c-6.2,0-11.2-5-11.2-11.2l0,0
			c0-6.2,5-11.2,11.2-11.2h99.8v-25.1h-99.8c-6.2,0-11.2-5-11.2-11.2l0,0c0-6.2,5-11.2,11.2-11.2L3562.4,444.3L3562.4,444.3z"/>
		<path d="M3385.3,408.2h-170.8v35.7h50.3c5.5,0,9.9,4.4,9.9,9.9v96.4h50.5v-96.4c0-5.5,4.4-9.9,9.9-9.9h50.3V408.2z"/>
	</g>
	<g>
		<path d="M217.9,205.3L91.7,0.8H0v292.8h90.7V89l127,204.6h90.7V0.8h-90.6V205.3z M935.5,98.9V69.9h-47.9V30.4h-88.3v39.6h-47.9
			v28.9h47.9v194.7h88.3V98.9H935.5z M358.9,293.6h88.3V98.9h-88.3V293.6z M358.9,60.2h88.3V0h-88.3V60.2z M1901.5,85.7
			c-70.9,0-128.6,48.7-128.6,109.7c0,60.2,57.7,109.7,128.6,109.7c70.9,0,128.6-48.7,128.6-109.7
			C2030.1,134.4,1974.1,85.7,1901.5,85.7z M1937,235.8c0,31.4-18.2,43.7-36.3,43.7c-17.3,0-36.3-13.2-36.3-43.7
			c0-11.6,0-42.1,0-42.1s0-28.9,0-40.4c0-30.5,18.2-43.7,36.3-43.7c17.3,0,36.3,12.4,36.3,43.7c0,11.6,0,33.8,0,41.3
			C1937,195.5,1937,224.3,1937,235.8z M1658.1,108.8c-14-8.3-28.9-15.6-49.5-17.3c-63.5-5.8-112.2,50.3-112.2,102.3
			c0,67.7,52,93.3,60.2,96.5c29.7,14,67.7,14,101.4-7.4c0,1.7,0,11.6,0,11.6h86.7V1.6h-86.7C1658.1,0.8,1658.1,63.5,1658.1,108.8z
			 M1658.1,195.5c0,0,0,22.3,0,34.6c0,29.7-20.6,38-34.6,38s-34.6-8.3-34.6-38c0-10.8,0-34.6,0-34.6s0-24.8,0-34.6
			c0-30.5,20.6-38,34.6-38s34.6,7.4,34.6,38C1658.1,170.7,1658.1,195.5,1658.1,195.5z M653.3,89.9c-28.9,0.8-53.6,13.2-70.1,29.7
			c0-5,0-20.6,0-20.6h-87.4v194.7h87.4c0,0,0-119.6,0-127.9c0-17.3,18.2-35.5,42.1-35.5s40.4,18.9,40.4,35.5c0,12.4,0,127.9,0,127.9
			h87.4c0,0,0-92.4,0-105.6C753.2,110.5,686.4,89,653.3,89.9z M1369.4,89.9c-28.9,0.8-53.6,13.2-70.1,29.7c0-5,0-20.6,0-20.6h-87.4
			v194.7h87.4c0,0,0-119.6,0-127.9c0-17.3,18.2-35.5,42.1-35.5s40.4,18.9,40.4,35.5c0,12.4,0,127.9,0,127.9h87.4c0,0,0-92.4,0-105.6
			C1468.4,110.5,1401.5,89,1369.4,89.9z M1183.8,197.1c0-60.2-58.6-110.5-130.4-110.5c-71.7,0-129.5,48.7-129.5,109.7
			c0,60.2,57.7,109.7,129.5,109.7c59.4,0,109.7-33.8,125.4-80.1h-87.4c0,0,0,0.8,0,11.6c0,35.5-23.1,43.7-36.3,43.7
			c-13.2,0-37.1-8.3-37.1-43.7c0-10.8,0-40.4,0-40.4H1183.8z M1024.6,128.6c6.6-12.4,19.8-17.3,31.4-18.2c11.6,0,23.9,5.8,31.4,18.2
			c5.8,9.9,5.8,21.4,5.8,38h-73.5C1018,149.3,1018,138.6,1024.6,128.6z"/>
	</g>
</g>
</svg>
