<svg version="1.1" viewBox="0 0 324.601 85.871" xmlns="http://www.w3.org/2000/svg">
 <path d="M316.532 59.144c.189-.131.378-.262.56-.393 4.912-3.646 7.509-8.987 7.509-15.434 0-5.232-1.397-9.511-4.162-12.719-2.583-2.998-6.644-5.37-12.407-7.262a73.88 73.88 0 0 1-3.988-1.463c-.429-.175-.058-.582.662-.582 1.681 0 3.238.233 4.635.546 1.412.32 2.794.713 4.111 1.317l6.804 3.114.691-7.451.859-9.256.378-4.111-3.893-1.375c-1.746-.619-3.806-1.135-6.294-1.579a44.359 44.359 0 0 0-7.648-.648c-7.087 0-12.909 1.572-17.311 4.664V2.7H264.75v33.923c0 4.068-.844 5.887-1.353 6.607-.233.342-.728 1.041-2.882 1.041s-2.678-.706-2.925-1.048c-.837-1.142-1.303-3.34-1.303-6.171V2.7h-22.288v3.536c-3.915-2.372-8.965-3.536-15.397-3.536h-24.318v27.025L183.618 2.7H162.64l-15.827 40.858h-10.784V2.7H113.74v18.279C107.126 8.514 94.014 0 78.944 0 60.461 0 44.926 12.807 40.713 30.009c-2.598-2.721-6.491-4.904-11.868-6.673a74.768 74.768 0 0 1-4.024-1.477c-.407-.167-.233-.349-.233-.349s.211-.226.931-.226c1.688 0 3.245.24 4.635.553 1.433.32 2.78.699 4.126 1.31l6.804 3.107 1.914-20.811-3.893-1.368c-1.754-.626-3.813-1.135-6.294-1.579a44.364 44.364 0 0 0-7.64-.648c-7.306 0-13.265 1.666-17.719 4.948C2.576 10.406 0 15.725 0 22.172c0 5.596 1.732 10.042 5.145 13.214 2.903 2.692 6.978 4.861 12.458 6.636 2.707.902 4.33 1.623 4.22 1.892-.109.277-1.142.429-2.212.429-2.001 0-4.824-.415-7.509-1.412-2.685-.997-9.678-6.272-9.678-6.272L.262 60.126l4.184 1.237c1.303.386 2.823.764 4.606 1.142L.124 85.551h13.011l1.514-4.053h1.783l1.477 4.053h29.834V61.676h9.256l-.007.015-9.234 23.86h13.011l1.506-4.053h1.79l1.484 4.053h34.695v-6.876c1.339-.167 2.554-.517 3.646-1.041.837 2.198 2.103 3.726 3.245 4.73 2.62 2.321 6.134 3.5 10.456 3.5 1.448 0 2.918-.138 4.366-.4 1.39-.255 2.416-.495 3.238-.749l2.809-.866V62.986l6.185-.007c-1.761 1.783-3.558 4.744-3.558 9.387 0 5.232 2.263 8.332 4.162 10.005 2.62 2.321 6.134 3.5 10.456 3.5a23.88 23.88 0 0 0 3.806-.313h11.788l1.506-4.053h1.783l1.484 4.053h51.453V59.151h-.488V45.02l5.115 14.124h-1.586v26.407h39.737V82.99c2.532 1.899 5.77 2.874 9.671 2.874a24.36 24.36 0 0 0 4.366-.4 48.86 48.86 0 0 0 1.761-.357v.451h48.295V59.144h-7.408z" fill="#3c2d6e"/>
 <path d="m25.169922 7.1523438c-6.177994 0-11.031363 1.3040182-14.56836 3.9160152-3.536996 2.611998-5.2968745 6.308521-5.2968745 11.103516 0 4.081996 1.150221 7.19008 3.4492187 9.330078 2.2989978 2.131998 5.7990048 3.965517 10.4999998 5.478516 3.557997 1.185999 5.928236 2.33622 7.115235 3.449219 1.186998 1.112998 1.783203 2.335016 1.783203 3.666015 0 1.702998-0.799721 3.055735-2.386719 4.052735-1.593998 0.996999-3.646253 1.492187-6.15625 1.492187-2.568997 0-5.128456-0.415141-7.689453-1.244141-2.5609976-0.829999-4.2515947-1.526563-5.0585939-2.101562l-0.9238281 9.96875c1.6079984 0.472999 3.6976276 0.960891 6.265625 1.46289 2.560997 0.495 5.246831 0.748047 8.048828 0.748047 6.068994 0 10.898519-1.324284 14.478516-3.988281 3.579996-2.655997 5.376953-6.380786 5.376953-11.175781 8e-3 -3.935996-0.952861-7.014049-2.88086-9.248047-1.920998-2.233998-5.282317-4.12722-10.070312-5.699219-4.321996-1.469998-7.045204-2.654641-8.158203-3.55664s-1.666016-1.995392-1.666016-3.275391c0-1.847998 0.72808-3.23811 2.205078-4.162109 1.469999-0.923999 3.465425-1.388672 5.982422-1.388672 2.087998 0 4.023643 0.203516 5.806641 0.603515 1.782998 0.4 3.499205 0.982095 5.158203 1.746094l0.851563-9.2558592c-1.469999-0.5239995-3.282362-0.9685161-5.44336-1.3535157a38.903 38.903 0 0 0-6.722656-0.5683593zm279.195308 0c-6.17799 0-11.03155 1.3040182-14.56054 3.9160152-3.536 2.611998-5.30469 6.308521-5.30469 11.103516 0 4.081996 1.15608 7.19008 3.45508 9.330078 2.307 2.131998 5.80782 3.965517 10.50781 5.478516 3.558 1.185999 5.92924 2.33622 7.11523 3.449219 1.179 1.112998 1.78321 2.335016 1.78321 3.666015 0 1.702998-0.79972 3.055735-2.38672 4.052735-1.601 0.996999-3.65211 1.492187-6.16211 1.492187-2.561 0-5.1226-0.415141-7.68359-1.244141-2.561-0.829999-4.25046-1.526563-5.06446-2.101562l-0.91797 9.96875c1.608 0.472999 3.69682 0.960891 6.25782 1.46289 2.56099 0.495 5.24764 0.748047 8.05664 0.748047 6.06899 0 10.89852-1.324284 14.47851-3.988281 3.58-2.655997 5.36328-6.380786 5.36328-11.175781-0.013-3.935996-0.95967-7.014049-2.88867-9.248047-1.921-2.233998-5.28231-4.12722-10.07031-5.699219-4.322-1.469998-7.04325-2.654641-8.15625-3.55664s-1.66602-1.995392-1.66602-3.275391c0-1.847998 0.72808-3.23811 2.20508-4.162109 1.47-0.923999 3.46347-1.388672 5.98047-1.388672 2.088 0 4.02364 0.203516 5.80664 0.603515 1.783 0.4 3.50116 0.982095 5.16016 1.746094l0.85742-9.2558592c-1.47-0.5239995-3.28741-0.9685161-5.44141-1.3535157a38.903 38.903 0 0 0-6.72461-0.5683593zm-185.3125 0.859375v49.6191402h39.96289l4.05274-10.892578h19.72656l3.98828 10.892578h12.81446 11.67187v-20.148437h3.55664c1.95 0 3.44242 0.60336 4.48242 1.818359 1.041 1.207999 1.87824 2.742799 2.49024 4.591797l4.98242 13.738281h12.52344l-5.32617-13.884765-0.29102-0.638672a74.543 74.543 0 0 0-2.52539-6.046875c-0.975-2.087998-2.5028-3.420282-4.5918-3.988281 3.464-0.713 6.00333-2.183159 7.61133-4.410157 1.608-2.233997 2.42383-4.701205 2.42383-7.408203 0-4.510995-1.5431-7.844861-4.62109-10.005859-3.093-2.160998-7.55382-3.2363282-13.38282-3.2363282h-19.01172v49.5996092l-19.58203-49.5996092h-13.73047l-15.82617 40.8574222h-19.7207v-40.8574222h-11.67774zm120.25196 0v31.2539062c0 6.315994 1.83352 11.0968 5.47851 14.341797 3.66 3.252997 8.9207 4.875 15.80469 4.875 7.02199 0 12.3058-1.688785 15.8418-5.050781 3.53599-3.368997 5.30468-8.447335 5.30469-15.236329v-30.1835932h-11.67188v28.6191402c0 4.227996-0.76364 7.43644-2.30664 9.648438-1.543 2.204998-3.95043 3.310547-7.23242 3.310547-3.231 0-5.61827-1.069174-7.19727-3.201172-1.564-2.131998-2.34375-5.24727-2.34375-9.322266v-29.0546872h-11.67773zm-28.03711 8.5351562h4.55469c2.93999 0 5.16034 0.488079 6.65234 1.455078 1.492 0.974999 2.24805 2.55333 2.24805 4.736328 1e-3 2.095998-0.76416 3.647017-2.28516 4.666016-1.521 1.025999-3.60182 1.535156-6.25781 1.535156h-4.91211v-12.392578zm-38.16406 1.425781 6.69336 20.148438h-13.66407l6.97071-20.148438zm-55.24414 44.832032c-3.405 0-6.07591 0.837907-8.00391 2.503906-1.928 1.658998-2.89453 4.007972-2.89453 7.042968 0 3.012997 0.93745 5.362487 2.81445 7.021485 1.885 1.665998 4.49027 2.503906 7.82227 2.503906 1.237 0 2.45248-0.114984 3.64648-0.333984 1.186-0.218 2.11597-0.429625 2.79297-0.640625v-9.939453h-7.51563v3.193359h3.32422v4.074219a5.448 5.448 0 0 1-0.88867 0.240234c-0.349 0.073-0.7693 0.101563-1.2793 0.101563-1.86999 0-3.38534-0.566361-4.52734-1.69336-1.15-1.134999-1.73047-2.628861-1.73047-4.505859 0-1.935998 0.63977-3.463798 1.88477-4.591797 1.259-1.112999 2.95342-1.679688 5.10742-1.679688 0.866 0 1.71606 0.095344 2.53906 0.277344a9.077 9.077 0 0 1 2.28516 0.835938l0.29101-3.384766v-0.18164c-0.669-0.269-1.48368-0.472001-2.42968-0.625-0.946-0.153-2.02329-0.21875-3.23828-0.21875zm27.64453 0c-3.405 0-6.06891 0.837907-8.00391 2.503906-1.928 1.658998-2.90234 4.007972-2.90234 7.042968 0 3.012997 0.93745 5.362487 2.81445 7.021485 1.885 1.665998 4.49027 2.503906 7.82227 2.503906 1.23699 0 2.45267-0.114984 3.63867-0.333984 1.193-0.218 2.11792-0.429625 2.79492-0.640625v-9.939453h-7.50977v3.193359h3.32422v4.074219a5.127 5.127 0 0 1-0.88086 0.240234c-0.349 0.073-0.77925 0.101563-1.28125 0.101563-1.877 0-3.3912-0.566361-4.5332-1.69336-1.15-1.134999-1.7168-2.628861-1.7168-4.505859 0-1.935998 0.62596-3.463798 1.87696-4.591797 1.25899-1.112999 2.95537-1.679688 5.10937-1.679688 0.866 0 1.70906 0.095344 2.53906 0.277344 0.83 0.189 1.58535 0.464938 2.27735 0.835938l0.29101-3.384766v-0.18164c-0.669-0.269-1.47587-0.472001-2.42187-0.625-0.946-0.153-2.02328-0.21875-3.23828-0.21875zm124.2832 0c-3.405 0-6.06891 0.837907-8.00391 2.503906-1.93599 1.658998-2.89648 4.007972-2.89648 7.042968 0 3.012997 0.93941 5.362487 2.8164 7.021485 1.892 1.665998 4.49727 2.503906 7.82227 2.503906 1.23 0 2.45872-0.114984 3.63672-0.333984 1.193-0.218 2.11792-0.429625 2.79492-0.640625v-9.939453h-7.51758v3.193359h3.32617v4.074219a4.955 4.955 0 0 1-0.8789 0.240234c-0.349 0.073-0.78006 0.101563-1.28906 0.101563-1.863 0-3.38454-0.566361-4.51954-1.69336-1.14999-1.134999-1.7246-2.628861-1.7246-4.505859 0-1.935998 0.62595-3.463798 1.87695-4.591797 1.252-1.112999 2.95538-1.679688 5.10937-1.679688 0.866 0 1.71607 0.095344 2.53907 0.277344a9.077 9.077 0 0 1 2.28515 0.835938l0.27735-3.384766v-0.18164c-0.662-0.269-1.47116-0.472001-2.41016-0.625-0.953-0.153-2.02914-0.21875-3.24414-0.21875zm-256.710938 0.318359-7.1464845 18.447265h4.4394535l1.513671-4.052734h7.335938l1.476562 4.052734h4.757813l-7.275391-18.445312-5.101562-0.001953zm14.472656 0v18.447265h4.074219v-13.046874l6.724609 12.755859 0.154297 0.291015h5.259766v-18.447265h-4.06836v13.150391l-6.751953-13.150391h-5.392578zm33.152344 0-7.138672 18.447265h4.439453l1.505859-4.052734h7.335938l1.482422 4.052734h4.759766l-7.277344-18.447265h-5.107422zm31.216797 0v18.447265h4.33789v-6.753906h1.957032c2.204999 0 3.928199-0.50897 5.158199-1.542968 1.237-1.032999 1.85547-2.503346 1.85547-4.402344 7e-3 -1.941998-0.64703-3.382939-1.95703-4.335938-1.303-0.938999-3.19459-1.412109-5.683592-1.412109h-5.667969zm68.843751 0-7.13867 18.447265h4.44726l1.50586-4.052734h7.33399l1.48437 4.052734h4.75977l-7.27735-18.447265h-5.11523zm14.45117 0v18.447265h4.20703l-0.05859-14.65625 4.85351 14.365235h3.86328l4.94727-14.341797-0.05078 14.632812h4.16992v-18.447265h-6.53515l-4.38672 12.865234-4.28516-12.865234h-6.72461zm25.64258 0v18.447265h12.22461v-3.208984h-7.88086v-4.677734h7.16016v-3.173828h-7.16016v-4.205078h7.72851v-3.181641h-12.07226zm23.23437 0v18.447265h12.22461v-3.208984h-7.88086v-4.677734h7.16797v-3.173828h-7.16797v-4.205078h7.71289v-3.181641h-12.05664zm15.5586 0v18.447265h4.06836v-13.046874l6.72265 12.755859 0.16797 0.291015h5.25977v-18.447265h-4.07422v13.150391l-6.74609-13.150391h-5.39844zm39.97656 0v18.447265h4.34375v-18.447265h-4.34375zm8.12891 0v18.447265h4.0664v-13.046874l6.72461 12.755859 0.16016 0.291015h5.26172v-18.447265h-4.07618v13.150391l-6.74609-13.150391h-5.39062zm19.98047 0v18.447265h12.21679v-3.208984h-7.87305v-4.677734h7.16016v-3.173828h-7.16016v-4.205078h7.72852v-3.181641h-12.07226zm-232.779302 0.001953v18.445312h4.337891v-7.49414h1.316406c0.719999 0 1.288016 0.232594 1.666016 0.683594 0.385999 0.436999 0.69964 1.019125 0.93164 1.703125l1.855469 5.107421h4.650391l-1.972657-5.158203-0.107422-0.240234a27.56 27.56 0 0 0-0.939453-2.248047c-0.356999-0.778999-0.931938-1.273375-1.710937-1.484375 1.294999-0.269 2.233891-0.807532 2.83789-1.644531a4.618 4.618 0 0 0 0.896485-2.744141c0-1.680998-0.569751-2.918751-1.71875-3.71875s-2.808565-1.207031-4.976563-1.207031h-7.066406zm21.306641 3.171875h1.484375c0.952999 0 1.709344 0.232594 2.277346 0.683594 0.568 0.465999 0.84375 1.114501 0.84375 1.9375 0 0.872999-0.27494 1.540672-0.83594 2.013672-0.552999 0.472999-1.317157 0.707031-2.285156 0.707031l-1.484375-0.044922v-5.296875zm-16.960938 0.007813h1.6875c1.098999 0 1.920282 0.182875 2.488281 0.546874 0.553 0.357 0.830079 0.951767 0.830079 1.759766 0 0.769999-0.291376 1.35261-0.859375 1.72461-0.56 0.385999-1.338126 0.568359-2.328125 0.568359h-1.81836v-4.599609zm-63.685547 0.523437 2.488282 7.488281h-5.078125l2.589843-7.488281zm47.625 0 2.490235 7.488281h-5.087891l2.597656-7.488281zm100.076176 0 2.48047 7.488281h-5.07813l2.59766-7.488281z" fill="#fff"/>
 <path d="M78.944 3.98c-19.545 0-35.393 15.841-35.393 35.393 0 6.716 1.899 12.901 5.152 18.257h2.03c6.884-6.884 22.587-22.521 26.851-26.792 2.459 2.459 5.829-.851 6.804-1.928-.531-.524-1.099-1.099-1.688-1.688-2.336-2.329-4.344 1.237-4.344 1.237l-5.115-5.123s7.982-3.638 12.319.699l3.253 3.253 5.945-5.945a4.417 4.417 0 0 1 1.011-4.635 4.404 4.404 0 0 1 6.236 0 4.392 4.392 0 0 1 .025 6.211l-.025.025a4.38 4.38 0 0 1-4.592 1.019l-5.96 5.952c.677.684 1.688 1.695 3.231 3.238 4.351 4.344.699 12.327.699 12.327l-5.115-5.123s3.558-2.008 1.23-4.337l-1.688-1.688c-1.077.982-4.388 4.351-1.928 6.804-2.678 2.678-9.86 9.794-16.547 16.481h37.824c3.253-5.356 5.152-11.541 5.152-18.257.026-19.539-15.815-35.38-35.367-35.38z" fill="#e5b131"/>
</svg>
