<svg version="1.1" viewBox="0 0 432.41016 107.05078" xml:space="preserve" xmlns="http://www.w3.org/2000/svg"><path d="m101.19922 0c-26.859974 0-48.638673 21.770651-48.638673 48.640625 0 9.22999 2.610082 17.729851 7.080078 25.089843h2.789063c9.45999-9.45999 31.040392-30.950318 36.900392-36.820312 3.37999 3.379996 8.00961-1.168439 9.34961-2.648438-0.73-0.719999-1.51032-1.510313-2.32031-2.320312-3.21-3.199997-5.96876 1.699219-5.96876 1.699219l-7.03124-7.039063s10.96969-5.00101 16.92968 0.958985l4.47071 4.470703 8.16992-8.169922c-0.78-2.149998-0.32938-4.641096 1.39062-6.371094 2.37-2.369998 6.21032-2.369998 8.57031 0a6.036 6.036 0 0 1 0 8.570313 6.018 6.018 0 0 1-6.31054 1.40039l-8.18946 8.179688c0.93 0.939999 2.31946 2.331174 4.43946 4.451172 5.97999 5.969994 0.95898 16.939453 0.95898 16.939453l-7.02929-7.041016s4.88945-2.758988 1.68945-5.958984l-2.31836-2.320313c-1.48 1.349999-6.03039 5.979613-2.65039 9.34961-3.68 3.679996-13.55024 13.460399-22.740236 22.65039h51.980466c4.47-7.359993 7.08008-15.859853 7.08008-25.089844 0.04-26.849973-21.73159-48.621093-48.60156-48.621093zm-73.898439 4.3613284c-8.489991 0-15.161489 1.78891-20.021484 5.378906-4.859995 3.5899956-7.279297 8.6697716-7.279297 15.2597656 0 5.609994 1.580238 9.880315 4.740234 12.820312 3.159997 2.929997 7.969694 5.451252 14.429688 7.53125 4.889995 1.629998 8.149298 3.210236 9.779297 4.740235 1.629998 1.529998 2.451172 3.209064 2.451172 5.039062 0 2.339998-1.101253 4.200314-3.28125 5.570312-2.189998 1.369999-5.008988 2.048829-8.458985 2.048829-3.529996 0-7.050316-0.568986-10.570312-1.708985-3.519997-1.139999-5.83922-2.100626-6.949219-2.890625l-1.271484 13.701172c2.209997 0.649999 5.081331 1.319766 8.611328 2.009766 3.519996 0.679999 7.208597 1.029297 11.058593 1.029297 8.339992 0 14.980396-1.820473 19.900391-5.480469 4.919995-3.649996 7.390625-8.769382 7.390625-15.359375 0.01-5.409995-1.31094-9.638988-3.960937-12.708984-2.639998-3.069997-7.259851-5.670081-13.839844-7.830079-5.939994-2.019998-9.678986-3.650626-11.208985-4.890625-1.529998-1.239998-2.291015-2.740001-2.291015-4.5 0-2.539997 1.001252-4.450704 3.03125-5.720703 2.019998-1.269998 4.758753-1.910156 8.21875-1.910156 2.869997 0 5.530471 0.280079 7.980469 0.830078 2.449997 0.55 4.809846 1.350392 7.089843 2.400391l1.169922-12.7207026c-2.019998-0.72-4.510471-1.329376-7.480469-1.859375-2.959997-0.52-6.048284-0.779297-9.238281-0.779297zm383.689449 0c-8.48999 0-15.15977 1.78891-20.00976 5.378906-4.86 3.5899956-7.29102 8.6697716-7.29102 15.2597656 0 5.609994 1.59001 9.880315 4.75 12.820312 3.17 2.929997 7.98142 5.451252 14.44141 7.53125 4.88999 1.629998 8.1493 3.210236 9.7793 4.740235 1.61999 1.529998 2.44922 3.209064 2.44922 5.039062 0 2.339998-1.0993 4.200314-3.2793 5.570312-2.2 1.369999-5.02071 2.048829-8.4707 2.048829-3.52 0-7.0386-0.568986-10.5586-1.708985s-5.84094-2.100626-6.96094-2.890625l-1.25976 13.701172c2.21 0.649999 5.07961 1.319766 8.59961 2.009766 3.51999 0.679999 7.21031 1.029297 11.07031 1.029297 8.33999 0 14.9804-1.820473 19.90039-5.480469 4.92-3.649996 7.36914-8.769382 7.36914-15.359375-0.02-5.409995-1.31875-9.638988-3.96875-12.708984-2.64-3.069997-7.25985-5.670081-13.83984-7.830079-5.94-2.019998-9.68094-3.650626-11.21094-4.890625-1.53-1.239998-2.28906-2.740001-2.28906-4.5 0-2.539997 0.9993-4.450704 3.02929-5.720703 2.02-1.269998 4.76071-1.910156 8.22071-1.910156 2.86999 0 5.52852 0.280079 7.97851 0.830078 2.45 0.55 4.80985 1.350392 7.08985 2.400391l1.18164-12.7207026c-2.02-0.72-4.52047-1.329376-7.48047-1.859375-2.96-0.52-6.05024-0.779297-9.24024-0.779297zm-254.66992 1.179687v68.1894526h54.91992l5.57032-14.96875h27.10937l5.48047 14.96875h33.65062v-27.689453h4.88867c2.68 0 4.73016 0.830002 6.16016 2.5 1.43 1.659999 2.57992 3.77055 3.41992 6.310547l6.84961 18.878906h17.21094l-7.32031-19.080078-0.40039-0.878906c-0.97-2.669997-2.12876-5.44055-3.46876-8.310547-1.33999-2.869997-3.44054-4.700469-6.31054-5.480469 4.75999-0.979999 8.24898-3.00055 10.45898-6.060547 2.21-3.069996 3.33008-6.459691 3.33008-10.179687 0-6.199994-2.11961-10.780003-6.34961-13.7499996-4.24999-2.969997-10.37868-4.449219-18.38867-4.449219h-26.13109v68.1640626l-26.91016-68.1640626h-18.86914l-21.75 56.1503906h-27.10156v-56.1503906zm165.25977 0v42.9492186c0 8.679991 2.5193 15.250942 7.5293 19.710937 5.02999 4.469996 12.26071 6.699219 21.7207 6.699219 9.64999 0 16.90953-2.319457 21.76953-6.939453 4.85999-4.629995 7.29101-11.609462 7.29101-20.939453v-41.4804686h-16.04101v39.3300776c0 5.809995-1.04992 10.219769-3.16992 13.259766-2.12 3.029997-5.42946 4.550781-9.93946 4.550781-4.43999 0-7.72062-1.470393-9.89062-4.40039-2.15-2.929997-3.21875-7.210553-3.21875-12.810547v-39.9296876zm-38.5293 11.7304686h6.25977c4.03999 0 7.08867 0.670001 9.13867 2 2.05 1.339999 3.08984 3.509769 3.08984 6.509766 0 2.879997-1.04867 5.010157-3.13867 6.410156-2.09 1.409998-4.94961 2.109375-8.59961 2.109375h-6.75zm-52.45117 1.958984 9.20117 27.689453h-18.78125zm-75.91992 61.611329c-4.68 0-8.35001 1.149455-11 3.439453-2.65 2.279997-3.98047 5.509691-3.98047 9.679689 0 4.13999 1.2911 7.370391 3.87109 9.650391 2.59 2.29 6.17001 3.43945 10.75 3.43945 1.7 0 3.36977-0.15898 5.00977-0.45898 1.63-0.3 2.90984-0.59086 3.83984-0.88086v-13.660159h-10.33008v4.390628h4.57032v5.599611c-0.35 0.13-0.75071 0.24007-1.22071 0.33007-0.48 0.1-1.05976 0.14063-1.75976 0.14063-2.57 0-4.64875-0.78008-6.21875-2.33008-1.58-1.560001-2.38086-3.611411-2.38086-6.191401 0-2.660002 0.87984-4.7586 2.58984-6.308599 1.73-1.529998 4.05954-2.310547 7.01953-2.310547 1.19 0 2.36024 0.128907 3.49024 0.378907 1.15 0.259999 2.18062 0.640391 3.14062 1.15039l0.40039-4.65039v-0.25c-0.92-0.37-2.03984-0.649376-3.33984-0.859375-1.3-0.21-2.78117-0.298829-4.45117-0.298828zm37.99023 0c-4.67999 0-8.34 1.149455-11 3.439453-2.65 2.279997-3.99023 5.509691-3.99023 9.679689 0 4.13999 1.29109 7.370391 3.87109 9.650391 2.59 2.29 6.17001 3.43945 10.75 3.43945 1.7 0 3.37-0.15898 5-0.45898 1.64-0.3 2.90985-0.59086 3.83984-0.88086v-13.660159h-10.32031v4.390628h4.57031v5.599611c-0.33999 0.13-0.74093 0.24007-1.21093 0.33007-0.48 0.1-1.06977 0.14063-1.75977 0.14063-2.58 0-4.66047-0.78008-6.23047-2.33008-1.58-1.560001-2.35937-3.611411-2.35937-6.191401 0-2.660002 0.86008-4.7586 2.58008-6.308599 1.72999-1.529998 4.05953-2.310547 7.01953-2.310547 1.19 0 2.35023 0.128907 3.49023 0.378907 1.14 0.259999 2.18086 0.640391 3.13086 1.15039l0.39844-4.65039v-0.25c-0.92-0.37-2.03008-0.649376-3.33008-0.859375-1.3-0.21-2.77922-0.298829-4.44922-0.298828zm170.80078 0c-4.67999 0-8.34 1.149455-11 3.439453-2.65999 2.279997-3.98047 5.509691-3.98047 9.679689 0 4.13999 1.28915 7.370391 3.86915 9.650391 2.59999 2.29 6.18 3.43945 10.75 3.43945 1.68999 0 3.38-0.15898 5-0.45898 1.63999-0.3 2.90984-0.59086 3.83984-0.88086v-13.660159h-10.33008v4.390628h4.57031v5.599611c-0.34 0.13-0.72898 0.24007-1.20898 0.33007-0.48 0.1-1.06953 0.14063-1.76953 0.14063-2.56 0-4.65094-0.78008-6.21094-2.33008-1.58-1.560001-2.36914-3.611411-2.36914-6.191401 0-2.660002 0.86008-4.7586 2.58008-6.308599 1.72-1.529998 4.05953-2.310547 7.01953-2.310547 1.19 0 2.36023 0.128907 3.49023 0.378907 1.15 0.259999 2.17868 0.640391 3.13868 1.15039l0.38085-4.65039v-0.25c-0.90999-0.37-2.02054-0.649376-3.31054-0.859375-1.31-0.21-2.78899-0.298829-4.45899-0.298828zm-352.791012 0.439453-9.820313 25.34961h6.101563l2.078124-5.57031h10.080079l2.03125 5.57031h6.539062l-10-25.34961zm19.890624 0v25.34961h5.59961v-17.929689l9.240234 17.529299 0.208985 0.40039h7.230468v-25.34961h-5.589843v18.070309l-9.279297-18.070309zm45.560547 0-9.810547 25.34961h6.09961l2.070312-5.57031h10.080078l2.039063 5.57031h6.541015l-9.999999-25.34961zm19.589841 0v25.34961h5.95899v-10.300781h1.81054c0.99 0 1.76907 0.32141 2.28907 0.9414 0.53 0.6 0.96125 1.39985 1.28125 2.33985l2.54883 7.019531h6.39062l-2.71094-7.089841-0.14844-0.33008c-0.35999-0.99-0.79101-2.01985-1.29101-3.08985-0.49-1.06999-1.27961-1.75101-2.34961-2.04101 1.78-0.37 3.07039-1.109768 3.90039-2.259767 0.81-1.129999 1.23047-2.389533 1.23047-3.769531 0-2.309998-0.78133-4.009376-2.36133-5.109375s-3.85985-1.660156-6.83984-1.660156zm23.3086 0v25.34961h5.96093v-9.279301h2.68946c3.02999 0 5.39984-0.70109 7.08984-2.12109 1.7-1.42 2.55078-3.438831 2.55078-6.048829 0.01-2.669997-0.88945-4.650939-2.68945-5.960937-1.79-1.289999-4.39055-1.939453-7.81055-1.939453zm94.61132 0-9.81054 25.34961h6.10937l2.07032-5.57031h10.08007l2.04102 5.57031h6.53906l-10-25.34961zm19.85938 0v25.34961h5.7793l-0.0801-20.140626 6.66992 19.740236h5.31055l6.8008-19.708986-0.0703 20.109376h5.73046v-25.34961h-8.98046l-6.0293 17.679689-5.89063-17.679689zm35.24023 0v25.34961h16.79883v-4.41016h-10.82812v-6.429681h9.83984v-4.359379h-9.83984v-5.78125h10.61914v-4.36914zm31.92969 0v25.34961h16.80078v-4.41016h-10.83008v-6.429681h9.84961v-4.359379h-9.84961v-5.78125h10.59961v-4.36914zm21.38086 0v25.34961h5.58984v-17.929689l9.24024 17.529299 0.22852 0.40039h7.23046v-25.34961h-5.59961v18.070309l-9.26953-18.070309zm54.93945 0v25.34961h5.97071v-25.34961zm11.16993 0v25.34961h5.58984v-17.929689l9.24023 17.529299 0.22071 0.40039h7.22851v-25.34961h-5.59961v18.070309l-9.26953-18.070309zm27.45898 0v25.34961h16.79102v-4.41016h-10.82032v-6.429681h9.83985v-4.359379h-9.83985v-5.78125h10.6211v-4.36914zm-290.61914 4.359375h2.03906c1.31 0 2.35086 0.319453 3.13086 0.939453 0.78 0.639999 1.16016 1.530157 1.16016 2.660156 0 1.199999-0.38039 2.121485-1.15039 2.771484-0.76 0.65-1.81063 0.96875-3.14063 0.96875l-2.03906-0.060547zm-23.31055 0.0098h2.32032c1.50999 0 2.63992 0.250001 3.41992 0.75 0.76 0.49 1.14062 1.309923 1.14062 2.419922 0 1.059999-0.39969 1.861094-1.17969 2.371094-0.76999 0.529999-1.84117 0.779297-3.20117 0.779297h-2.5zm-87.519528 0.720703 3.419922 10.289066h-6.980469zm65.449219 0 3.419921 10.289066h-6.988281zm137.531249 0 3.41016 10.289066h-6.98047z"/></svg>
