<?xml version="1.0" encoding="utf-8"?>
<!-- Generator: Adobe Illustrator 26.0.1, SVG Export Plug-In . SVG Version: 6.00 Build 0)  -->
<svg version="1.1" id="Layer_1" xmlns="http://www.w3.org/2000/svg" xmlns:xlink="http://www.w3.org/1999/xlink" x="0px" y="0px"
	 viewBox="0 0 3838.9 1608.5" style="enable-background:new 0 0 3838.9 1608.5;" xml:space="preserve">
<style type="text/css">
	.st0{fill:#FFFFFF;}
</style>
<g>
	<g>
		<g>
			<g>
				<polygon points="60.7,144.7 61.2,144.7 101.2,259.8 190.9,259.8 190.9,60.4 130.2,60.4 130.2,174.8 129.7,174.8 89.7,60.4 
					0,60.4 0,259.8 60.7,259.8 				"/>
			</g>
			<g>
				<polygon points="399.1,144.7 399.6,144.7 439.6,259.8 529.3,259.8 529.3,60.4 468.7,60.4 468.7,174.8 468.2,174.8 428.1,60.4 
					338.4,60.4 338.4,259.8 399.1,259.8 				"/>
			</g>
			<g>
				<polygon points="981.9,144.7 982.4,144.7 1022.4,259.8 1112.1,259.8 1112.1,60.4 1051.5,60.4 1051.5,174.8 1050.9,174.8 
					1010.9,60.4 921.2,60.4 921.2,259.8 981.9,259.8 				"/>
			</g>
			<g>
				<rect x="227.5" y="60.4" width="74.8" height="199.3"/>
			</g>
			<g>
				<polygon points="598.6,259.8 673.4,259.8 673.4,114.6 721.1,114.6 721.1,60.4 551,60.4 551,114.6 598.6,114.6 				"/>
			</g>
			<g>
				<path d="M1332.6,162.2c0-59-24.1-101.8-99.7-101.8h-88.6v199.3h93.1C1295.5,259.7,1332.6,222.4,1332.6,162.2z M1217.5,214.6
					V105.9h7.3c12.1,0,20.1,3.7,24.8,11.7c4.9,8.3,5.5,23.4,5.5,42.7c0,19.2-0.5,34.3-5.5,42.6c-4.7,8-12.8,11.7-24.8,11.7H1217.5z"
					/>
			</g>
			<g>
				<path d="M1449.9,265.1c65.2,0,97.6-42.7,97.6-104.9s-32.5-105-97.6-105c-65.2,0-97.6,42.8-97.6,105
					C1352.3,222.3,1384.8,265.1,1449.9,265.1z M1449.9,105.7c12,0,20.1,6.8,20.1,54.5c0,48.8-8.6,54.4-20.1,54.4
					s-20.2-5.7-20.1-54.4C1429.8,112.4,1437.9,105.7,1449.9,105.7z"/>
			</g>
			<g>
				<g>
					<path d="M1639.9,164.5c33.6,0,58.8-25.4,58.8-58.1c0-34.1-22.9-52.3-47.9-52.3c-13,0-22.8,3.2-30.6,10.1h-0.8
						c4.3-15.2,17-28.6,48.6-30.1c5.4-0.3,9.3-0.4,13.2-0.1l0.2-33.5c-3.2-0.3-7.4-0.7-14.2-0.3c-25.8,0.6-46.9,8.2-63.3,23.4
						c-17.2,16.1-27.7,41.1-27.7,70.7C1576.2,130.6,1595.5,164.5,1639.9,164.5z M1619.4,96.8c2.5-6.5,9.1-11.7,17.4-11.7
						c13.7,0,18.8,12.3,18.9,23.6c0,13.3-6.2,23.8-16.5,23.8c-14.1,0.1-20.2-13.3-21.1-26.1C1618.1,101.6,1618.4,98.8,1619.4,96.8z"
						/>
				</g>
			</g>
			<g>
				<g>
					<path d="M1776.9,161.9L1776.9,161.9l40,0v-35.8h16.9V93.3h-16.9v-91h-53.1l-53.4,95.1v28.7h66.5V161.9z M1748.9,93.3l0.2-0.5
						l13.1-26.5c5.6-11.1,9.9-21.3,14.9-32.1h0.9c-0.5,11.2-1.1,21.7-1.1,31.8v27.4L1748.9,93.3z"/>
				</g>
			</g>
			<g>
				<polygon points="893.5,207.5 816.8,207.5 816.8,185.2 885.3,185.2 885.3,134 816.8,134 816.8,113.1 891.2,113.1 891.2,60.4 
					743.2,60.4 743.2,259.8 893.5,259.8 				"/>
			</g>
			<g>
				<path d="M3283.5,382.8h-143.6h-195.2h-35.9h-62.3H2825v393.2c-59-230-239.7-393.2-534.1-393.2h-143.6h-195.2h-35.9h-62.3h-21.4
					v687.5h-181.9V382.7H1249l-349.6,623.3c-55.9-152.4-190.7-232.1-334.9-232.1c-98.7,0-172,23.9-231.2,75.8h-5.7
					c32.8-114.9,129-216.3,367.6-227.7c41.1-1.9,70-2.6,100.1-0.5V368c-24.6-2.3-55.4-5-107.2-2.3
					c-195.5,4.8-354.8,62.6-478.8,177.1C79.4,664.7,0.1,853.9,0.1,1077.4c0,274.8,146.2,531.2,482,531.1
					c200.5,0,360.8-119.3,419.9-290.6h446.4v270.4l302.2-0.1v-270.4h181.9v270.5h21.4h62.3h35.9h195.2h143.6
					c294.4,0,475.1-163.2,534.1-393.2v393.2h21.4h62.3h35.9h195.2h143.6c365.4,0,555.5-251.4,555.5-569.8v-66
					C3839,634.1,3648.8,382.8,3283.5,382.8z M477.3,1365.7h-1.6c-105.6,0-151.9-101.3-158.5-197.6c0-35.8,2.8-57.1,9.9-72
					c18.4-48.6,68-88.4,131-88.4c104,0,143,92.7,143.5,178.1C601.6,1286.8,555,1365.7,477.3,1365.7z M1348.4,863.1v207.3h-210.9
					l1.3-3.8l99-200.8c42.2-83.9,74.7-161.3,112.5-242.7h6.4C1352.7,707,1348.4,786.7,1348.4,863.1z M2290.9,1339.1h-143.6v-707
					h143.6c113.1,0,210.5,114.9,210.5,353.5S2404,1339.1,2290.9,1339.1z M3283.5,1339.1h-143.6v-707h143.6
					c113.1,0,210.5,114.9,210.5,353.5S3396.6,1339.1,3283.5,1339.1z"/>
			</g>
		</g>
	</g>
</g>
</svg>
