<svg enable-background="new 0 0 3838.9 1608.5" version="1.1" viewBox="0 0 3838.9 1608.5" xml:space="preserve" xmlns="http://www.w3.org/2000/svg">
<path d="m1671.8379 0.03515625c-1.4 0.014062486-2.9387 0.0640626-4.6387 0.1640625-25.8 0.5999994-46.8988 8.20040585-63.2988 23.40039025-17.2 16.099984-27.7012 41.101202-27.7012 70.701172 0 36.299959 19.3012 70.199219 63.7012 70.199219 33.6 0 58.7988-25.39964 58.7988-58.09961 0-34.099965-22.8984-52.300781-47.8984-52.300781-13 0-22.8016 3.199617-30.6016 10.09961h-0.7988c4.3-15.199985 16.9996-28.599611 48.5996-30.09961 5.4-0.299999 9.2992-0.399609 13.1992-0.099609l0.2012-33.5c-2.4-0.22499978-5.3625-0.5070312078-9.5625-0.46484375zm91.9629 2.26562495-53.4004 95.0996098v28.699219h66.5v35.80078h40v-35.80078h16.9004v-32.798829h-16.9004v-90.9999998h-53.0996zm13.2988 31.8984378h0.9004c-0.5 11.199989-1.0996 21.700791-1.0996 31.800781v27.400391l-28-0.09961 0.1992-0.5 13.0996-26.5c5.6-11.099989 9.9004-21.301573 14.9004-32.101562zm-327.1992 21c-65.1999 0-97.5996 42.800062-97.5996 105.000001 0 62.09994 32.4997 104.90039 97.5996 104.90039 65.1999 0 97.5996-42.70045 97.5996-104.90039 0-62.199939-32.4997-105.000001-97.5996-105.000001zm-1449.9004 5.201172v199.400389h60.699219v-115.10156h0.5l40.000001 115.10156h89.70117v-199.400389h-60.70117v114.400389h-0.5l-40.000001-114.400389h-89.699219zm227.5 0v199.298829h74.80078v-199.298829h-74.80078zm110.90039 0v199.400389h60.69922v-115.10156h0.5l40 115.10156h89.70117v-199.400389h-60.60156v114.400389h-0.5l-40.09961-114.400389h-89.69922zm212.59961 0v54.199219h47.59961v145.20117h74.80078v-145.20117h47.69922v-54.199219h-170.09961zm192.19922 0v199.400389h150.30078v-52.30078h-76.69922v-22.30078h68.5v-51.19922h-68.5v-20.90039h74.39844v-52.699219h-148zm178 0v199.400389h60.70117v-115.10156h0.5l40.00001 115.10156h89.6992v-199.400389h-60.5996v114.400389h-0.5996l-40-114.400389h-89.70118zm223.10158 0v199.298829h93.0996c58.0999 0 95.1992-37.30006 95.1992-97.5 0-58.99994-24.0993-101.798829-99.6992-101.798829h-88.5996zm492.5 24.699218c13.7 0 18.7984 12.299621 18.8984 23.599611 0 13.29999-6.2 23.80078-16.5 23.80078-14.1 0.1-20.1996-13.29962-21.0996-26.09961 0-4.79999 0.3008-7.599611 1.3008-9.599609 2.5-6.499993 9.1004-11.701172 17.4004-11.701172zm-186.9004 20.599611c12 0 20.0996 6.80005 20.0996 54.5 0 48.79995-8.5996 54.40039-20.0996 54.40039s-20.1996-5.70044-20.0996-54.40039c0-47.79995 8.0996-54.5 20.0996-54.5zm-232.4004 0.20117h7.3008c12.1 0 20.0988 3.69923 24.7988 11.69922 4.9 8.29999 5.5 23.40119 5.5 42.70117 0 19.19998-0.5 34.29962-5.5 42.59961-4.7 7.99999-12.7988 11.69922-24.7988 11.69922h-7.3008v-108.69922zm-465.59961 259.07422c-17.24998-0.625-37.90081-0.62539-63.80078 0.72461-195.49981 4.79999-354.79895 62.60168-478.79883 177.10156-129.899869 121.89988-209.2011706 311.09983-209.2011706 534.59962 0 274.7997 146.2003406 531.1996 482.0000006 531.0996 200.4998 0 360.80045-119.2998 419.90039-290.5996h446.4004v270.4004l302.1992-0.1016v-270.3984h181.9004v270.5h21.4004 62.2988 35.9004 195.2012 143.5996c294.3997 0 475.0997-163.2014 534.0996-393.2012v393.2012h21.4004 62.2988 35.9004 195.2012 143.5996c365.3996 0 555.5-251.4011 555.5-569.8008v-66c0.1-318.39968-190.1008-569.69922-555.4004-569.69922h-143.5996-195.2012-35.8984-62.3008-21.5v393.19922c-58.9999-229.99977-239.6999-393.19922-534.0996-393.19922h-143.5996-195.2012-35.9004-62.2988-21.4004v687.50002h-181.9004v-687.60158h-401.5996l-349.59961 623.30078c-55.89994-152.39985-190.70053-232.09961-334.90039-232.09961-98.6999 0-171.99928 23.89888-231.19922 75.79883h-5.70117c32.79997-114.89989 128.99985-216.29923 367.59961-227.69922 41.09996-1.9 70.00159-2.6 100.10156-0.5v-253.5c-12.29999-1.15-26.15041-2.40039-43.40039-3.02539zm598.40041 258.125h6.3984c-4 83.89992-8.2988 163.60008-8.2988 240v207.30079h-210.9004l1.3008-3.8008 99-200.79882c42.1999-83.89991 74.7-161.30125 112.5-242.70117zm797 9h143.5996c113.0999 0 210.5 114.90024 210.5 353.5 0 238.59979-97.4001 353.49999-210.5 353.49999h-143.5996v-706.99999zm992.5996 0h143.5996c113.0999 0 210.5 114.90024 210.5 353.5 0 238.59979-97.4001 353.49999-210.5 353.49999h-143.5996v-706.99999zm-2681.80079 375.59959c103.9999 0 143 92.7017 143.5 178.1016 0 100.9999-46.59891 179.8984-124.29883 179.8984h-1.60156c-105.5999 0-151.90001-101.2997-158.5-197.5996 0-35.8 2.8004-57.1 9.90039-72 18.39998-48.5999 68.00006-88.4004 131-88.4004z"/>
</svg>
