<svg version="1.1" viewBox="0 0 1000 222.64156" xmlns="http://www.w3.org/2000/svg"><path d="m800.88281 4c-12.2316 0-22.15234 9.920588-22.15234 22.320312 0 12.231594 9.92074 22.31836 22.15234 22.31836 12.25261 0 22.17188-10.086766 22.17188-22.31836 0-12.399724-9.91927-22.320312-22.17188-22.320312zm-335.52929 9.919922v59.498047c-10.67638-10.382143-25.26138-16.582031-43.23047-16.582031-43.8614 0-77.17188 36.126146-77.17188 80.744142 0 44.80714 33.31048 80.91406 77.17188 80.91406 17.96909 0 32.55409-6.0534 43.23047-16.43555v13.32618h38.29296v-201.464848h-38.29296zm492.375 0v59.498047c-10.69739-10.382143-25.26138-16.09961-43.23047-16.09961-43.86141 0-77.19336 35.643725-77.19336 80.261721 0 44.80714 33.33195 81.06055 77.19336 81.06054 17.96909 0 32.53308-6.19988 43.23047-16.58203v13.32618h38.27148v-201.464848h-38.27148zm-876.556645 43.398437c-43.8614 0-77.171875 35.643725-77.171875 80.261721 0 44.80714 33.310475 80.91406 77.171875 80.91406 17.969093 0 32.535035-6.0534 43.232425-16.43555v13.32618h38.29101v-154.976567h-38.29101v13.009766c-10.69739-10.382143-25.263332-16.09961-43.232425-16.09961zm174.816405 0c-41.06621 0-72.99023 32.996131-72.99023 74.230471v83.83594h38.27148v-83.83594c0-20.30192 14.26971-35.812502 34.71875-35.812502 20.30192 0 34.71875 15.510582 34.71875 35.812502v83.83594h38.27149v-83.83594c0-41.23434-32.07115-74.230471-72.99024-74.230471zm343.57813 0c-49.28365 0-75.61719 26.187218-75.61719 75.302731v82.76368h38.26953v-82.76368c0-24.48419 12.86346-37.494137 37.34766-37.494137v-37.808594zm83.6875 0c-44.618 0-80.89258 35.643725-80.89258 80.261721 0 44.80714 36.27458 80.91406 80.89258 80.91406 44.80714 0 81.06054-36.10692 81.06054-80.91406 0-44.617996-36.2534-80.261721-81.06054-80.261721zm98.39843 3.089844v154.976567h38.29297v-154.976567h-38.29297zm-696.296871 33.164063c15.657281 0 31.314341 7.292744 37.976561 20.617184 0.46237 0.92473 1.07227 2.16549 1.07227 3.72071v39.04882c0 0.77761-0.46405 2.47904-0.7793 2.94141-7.2717 13.32445-22.14989 21.85742-38.269531 21.85742-23.559478 0-42.621094-19.69353-42.621094-44.17773 0-24.02185 19.061616-44.007814 42.621094-44.007814zm340.949221 0c15.65728 0 30.53867 7.755104 37.97851 20.617184 0.46236 0.92473 1.07032 2.16549 1.07032 3.72071v39.21679c0 0.77761-0.46162 2.31107-0.75586 2.77344-7.29272 13.32445-22.17333 21.85742-38.29297 21.85742-23.55948 0-42.6211-19.69353-42.6211-44.17773 0-24.02185 19.06162-44.007814 42.6211-44.007814zm492.375 0c15.65728 0 30.51719 7.755104 37.95703 20.617184 0.48338 0.92473 1.0918 2.16549 1.0918 3.72071v39.36328c0 0.77761-0.4621 2.16458-0.77735 2.62695-7.2717 13.32445-22.15184 21.85742-38.27148 21.85742-23.55948 0-42.6211-19.69353-42.6211-44.17773 0-24.02185 19.06162-44.007814 42.6211-44.007814zm-235.42578 1.871093c23.55947 0 42.32617 18.892491 42.32617 42.136721 0 23.41235-18.7667 42.32812-42.32617 42.32812-23.24423 0-42.13868-18.91577-42.13868-42.32812 0-23.24423 18.89445-42.136721 42.13868-42.136721z" fill="#77c159"/></svg>
