<svg width="1000" height="222.64" xmlns="http://www.w3.org/2000/svg"><path d="M85.36 181.75c-23.56 0-42.622-19.693-42.622-44.178 0-24.022 19.062-44.01 42.622-44.01 15.658 0 31.315 7.294 37.978 20.618.462.925 1.072 2.165 1.072 3.72v39.05c0 .778-.463 2.48-.778 2.942-7.272 13.325-22.152 21.858-38.272 21.858m77.343 33.627V60.397H124.41v13.01c-10.698-10.382-25.263-16.099-43.232-16.099-43.863 0-77.175 35.645-77.175 80.264 0 44.809 33.312 80.916 77.175 80.916 17.97 0 32.534-6.053 43.232-16.436v13.325h38.293zm166.286 0V131.54c0-41.235-32.072-74.232-72.992-74.232-41.067 0-72.992 32.997-72.992 74.232v83.837h38.272V131.54c0-20.302 14.27-35.813 34.72-35.813 20.302 0 34.72 15.511 34.72 35.813v83.837h38.272zm97.33-33.627c-23.56 0-42.623-19.693-42.623-44.178 0-24.022 19.063-44.01 42.623-44.01 15.657 0 30.537 7.756 37.978 20.618.462.925 1.071 2.165 1.071 3.72v39.218c0 .778-.462 2.312-.756 2.774-7.293 13.325-22.173 21.858-38.293 21.858m77.342 33.627V13.908h-38.293v59.5c-10.676-10.383-25.262-16.583-43.232-16.583-43.862 0-77.174 36.128-77.174 80.747 0 44.809 33.312 80.916 77.174 80.916 17.97 0 32.556-6.053 43.232-16.436v13.325h38.293zm58.575 0v-82.765c0-24.485 12.862-37.494 37.347-37.494v-37.81c-49.285 0-75.62 26.188-75.62 75.304v82.765h38.273zm121.037-35.476c-23.245 0-42.14-18.916-42.14-42.329 0-23.245 18.895-42.139 42.14-42.139 23.56 0 42.328 18.894 42.328 42.14 0 23.412-18.768 42.328-42.328 42.328m0 38.587c44.808 0 81.062-36.107 81.062-80.916 0-44.619-36.254-80.264-81.062-80.264-44.62 0-80.895 35.645-80.895 80.264 0 44.809 36.276 80.916 80.895 80.916m117.632-169.86c12.253 0 22.173-10.088 22.173-22.32 0-12.4-9.92-22.32-22.173-22.32-12.232 0-22.152 9.92-22.152 22.32 0 12.232 9.92 22.32 22.152 22.32m19.062 11.77h-38.293v154.98h38.293V60.397zm98.738 121.352c-23.56 0-42.622-19.693-42.622-44.178 0-24.022 19.062-44.01 42.622-44.01 15.658 0 30.517 7.756 37.957 20.618.483.925 1.093 2.165 1.093 3.72v39.365c0 .778-.463 2.165-.778 2.627-7.272 13.325-22.152 21.858-38.272 21.858m77.322 33.627V13.908h-38.272v59.5c-10.698-10.383-25.263-16.1-43.232-16.1-43.863 0-77.196 35.645-77.196 80.264 0 44.809 33.333 81.063 77.196 81.063 17.97 0 32.534-6.2 43.232-16.583v13.325h38.272z" fill="#fff"/></svg>