<svg enable-background="new 0 0 3840 727.4" version="1.1" viewBox="0 0 3840 727.4" xml:space="preserve" xmlns="http://www.w3.org/2000/svg">
<path d="m2432.8008 0-457 436h112.6992l344.3008-328.40039 149.7148 142.80078h-215.8164l-81.5996 77.79883h378.9805l113.0195 107.80078h112.8008zm-2432.8008 11.400391v424.599609h77.800781v-346.800781h435.398439v0.101562c84.66553 0 84.69834 126.895009 0.10156 126.998049v-0.0996h-217.10156v0.10156h-132.19922l346 219.69921h145.19922l-223.69727-142h81.69727v0.0996c188.39981-0.1 188.39981-282.699219 0-282.699219zm1028.9004 0v424.599609h660.0996v-77.80078h-582.3008v-269.000001h582.3008v-77.798828zm2158.4004 0v424.599609h652.6992v-77.80078h-574.9004v-346.798829zm-2023 169.400389v77.79883h412v-77.79883zm-1101.201191 429.89844c-44.199865 0-61.2988277 4.70087-61.2988278 37.80078h30.0996098c0-17.69994 3.599691-19.69922 31.099609-19.69922 25.999922 0 33.300781 0.89847 33.300781 11.89844 0 13.79994-2.900048 18.80078-19.5 18.80078h-24.201172v16.69922h24.201172c17.999946 0 22.199219 4.80003 22.199219 17 0 15.89994-8.700081 16.10156-36 16.10156-27.699916 0-32.800781-0.30162-32.800781-21.60156h-30.00000025c0 37.89988 21.00012625 39.60156 63.00000025 39.60156 42.399881 0 66.101561-2.40165 66.101561-34.10156 0-14.99997-6.00045-23.99961-28.90039-25.09961v-0.59961c22.39994-1.5 26.19922-13.20081 26.19922-26.80078 0-29.79991-32.000094-30-63.500001-30zm352.201171 0c-52.89985 0-70.40039 6.20051-70.40039 41.90039v30.90039c0 37.69988 18.90054 43.80078 70.40039 43.80078 50.39985 0 71-7.1009 71-43.80078v-30.90039c0-36.89988-23.10015-41.90039-71-41.90039zm1180.79882 0c-49.0997 0-69.6992 8.30012-69.6992 45v26.30078c0.7 33.49991 11.0995 46.80078 69.6992 45.30078 41.2-1.2 69.9012-2e-3 69.2012-34.60156v-7.5h-32v6.30078c0 16.39994-11.6008 17-37.3008 17-33.5 0-37.4992-4.40045-37.6992-27.40039v-25.40039c0-22.49994 5.4992-26.19922 37.6992-26.19922 28 0 35.5 0.89925 35.5 14.19922v6.30078l32.0996 0.0996v-6.29883c-2.3-32.89991-26-33.10156-67.5-33.10156zm-188.5 0.80078-55.2988 114.80078h33.0996l10.4004-21.70117h71.8984l10.9004 21.70117h32.4004l-56.4004-114.80078zm1905.5996 0-55.2988 114.80078h33.0996l10.4004-21.70117h71.9004l10.8984 21.70117h32.4004l-56.4004-114.80078zm-3146.49998 0.0996v114.80079h84.80078c50.39985 0 60.19922-21.10006 60.19922-45v-27.09961c0-31.19991-19.60015-42.70117-65.5-42.70117zm489.40039 0v114.80078h32v-114.80077zm69.09961 0v114.80078h32l-2.69922-96h1.09961l70.80078 96h53v-114.80077h-32l2.69922 96h-0.90039l-71.19922-96zm177 0v18.80078h48.80078v96h32v-96h48.8008v-18.80078zm150.10158 0v114.80079h114.6992v-18.80078h-82.8008v-30.5h77.9004v-18.09961h-77.7988v-28.59961h82.0996v-18.80078zm146.1992 0v114.80078h32v-38l49 0.0996c15.3 0.1 21.0996 6.90003 21.0996 16.5v21.30078h32v-21.40039c0-16.19994-5.5992-24.6-28.1992-26v-0.59961c28.2-2.9 29.5-15.30084 29.5-32.30078 0-25.99991-14.0004-33.80039-50.4004-34.40039zm482.1992 0v18.80078h48.8008v96h32v-96h48.8008v-18.80078zm152.3008 0v114.80078h32v-114.80077zm51.9004 0 53.2988 114.80078h48.2012l53.6992-114.80078h-33.0996l-44.4004 96.4004h-0.6992l-44.4004-96.40039zm173 0v114.80078h114.6992v-18.80078h-82.7988v-30.5h77.8984v-18.0996h-77.8984l0.1-28.59961h82.0992v-18.80078zm242.0996 0v114.80078h32l-2.6992-96.30078h0.6992l52.8008 96.30078h28.5996l52.5-96.70117h1.0996l-2.6992 96.70117h32v-114.80077h-52.4004l-44.4004 85.30078h-0.9004l-45.2988-85.30078zm224.4004 0v81.59961c0 32.09991 29.9 34.10156 69 34.10156 40.4 0 69.5-2.10165 69.5-34.10156v-81.5996h-31.9004v81.59961c0 12.39997-8 15.30078-37.5 15.30078-30.9 0-37.0996-3.50081-37.0996-15.30078v-81.59961zm168.5996 0v114.80078h109.6992v-18.80077h-77.6992v-96zm92.4004 0v18.80078h48.7988v96h32v-96h48.8008v-18.80078zm145.5 0v114.80078h32v-114.80077zm60.1992 0v114.80078h32v-37.20117h41.7012c43.4997 0 59.2988-5.6997 59.2988-38.09961 0-32.19991-14.6991-39.5-59.2988-39.5zm155.5996 0v114.80078h109.6016v-18.80078h-77.6016v-96zm253.6016 0 60.1992 70.70117v44.09961h32v-44.09961l61.4004-70.70117h-36.8008l-40.1992 49h-0.7012l-39.5-49zm164.6992 0v114.80078h114.8008v-18.80077h-82.8008v-30.5h77.9004v-18.09961h-77.9004v-28.59961h82.0996v-18.80078zm139.5996 0v114.80078h32v-38l49 0.0996c15.3 0.1 21.0996 6.90003 21.0996 16.5v21.30078h32v-21.40039c0-16.19994-5.5992-24.6-28.1992-26v-0.59961c28.2-2.9 29.5-15.30084 29.5-32.30078 0-25.99991-14.0004-33.80039-50.4004-34.40039zm-2273 16.80078h0.4004l28.6992 59.5h-57.5zm1905.5 0h0.4004l28.6992 59.5h-57.5zm-2921.90038 1.09962c28.49991 0 39.80156 1.49967 39.10156 23.09961v30.90039c0 22.19994-10.00165 25-39.10156 25-31.99991 0-38.39844-2.20006-38.39844-25v-30.90039c0.7-18.19994 3.99853-23.09961 38.39844-23.09961zm-216.5 0.90039h47.5c24.39991 0 33.5 4.80045 33.5 23.90039v27.09961c0 12.89997-6.69928 26.19922-28.19922 26.19922v-0.09961h-52.80078zm1031.70118 0h44.4004c22.9 0 27.0996 2.89967 27.0996 19.09961 0 16.89994-5.8008 20.09961-29.3008 20.09961h-42.1992zm1792.6992 0h41.7012c24-0.1 27.2988 4.49928 27.2988 20.69922 0 16.09994-4.3988 19.00078-27.2988 19.30078v-0.0996h-41.7012zm713.4004 0h44.4004c22.9 0 27.0996 2.89967 27.0996 19.09961 0 16.89994-5.8008 20.09961-29.3008 20.09961h-42.1992z"/><path  d="m1826.3 142h130.4v135h-130.4z" fill="#23b14d"/><path d="m783.70001 142h130.4v135h-130.4z" fill="#ed1b24"/><path d="M 2897.5996,142 V 277 H 3028 V 142 Z M 0,495.40039 V 534 h 3840 v -38.59961 z" fill="#2993c3"/>
</svg>
