<?xml version="1.0" encoding="utf-8"?>
<!-- Generator: Adobe Illustrator 25.1.0, SVG Export Plug-In . SVG Version: 6.00 Build 0)  -->
<svg version="1.1" id="Layer_1" xmlns="http://www.w3.org/2000/svg" xmlns:xlink="http://www.w3.org/1999/xlink" x="0px" y="0px"
	 viewBox="0 0 3840 727.4" style="enable-background:new 0 0 3840 727.4;" xml:space="preserve">
<style type="text/css">
	.st0{fill:#23B14D;}
	.st1{fill:#ED1B24;}
	.st2{fill:#2993C3;}
	.st3{fill:#FFFFFF;}
</style>
<g>
	<rect x="0" y="11.4" width="513.2" height="77.8"/>
	<rect x="296.2" y="216.2" width="217.1" height="77.8"/>
	<rect x="1028.9" y="11.4" width="660.1" height="77.8"/>
	<rect x="1164.3" y="180.8" width="412" height="77.8"/>
	<rect x="1028.9" y="23.5" width="77.8" height="400.4"/>
	<rect x="3187.3" y="11.4" width="77.8" height="412.5"/>
	<rect x="1028.9" y="358.2" width="660.1" height="77.8"/>
	<rect x="3187.3" y="358.2" width="652.7" height="77.8"/>
	<g>
		<polygon points="2677.3,250.4 2366.7,250.4 2285.1,328.2 2677.3,328.2 		"/>
	</g>
	<g>
		<path d="M513.2,11.4c188.4,0,188.4,282.6,0,282.7c0-25.9,0-51.9,0-77.8c84.7,0,84.7-127,0-127C513.2,63.3,513.2,37.4,513.2,11.4z"
			/>
	</g>
	<rect x="0" y="57.8" width="77.8" height="378.2"/>
	<polygon points="655.2,436 309.1,216.3 164,216.3 510,436 	"/>
	<rect x="1826.3" y="142" width="130.4" height="135"/>
	<rect x="783.7" y="142" width="130.4" height="135"/>
	<rect x="2897.6" y="142" width="130.4" height="135"/>
	<rect y="495.4" width="3840" height="38.6"/>
	<polygon points="2889.9,436 2432.8,0 1975.8,436 2088.5,436 2432.8,107.6 2777.1,436 	"/>
	<g>
		<g>
			<path d="M30.2,687.7c0,21.3,5.1,21.6,32.8,21.6c27.3,0,36-0.2,36-16.1c0-12.2-4.2-17-22.2-17H52.6v-16.7h24.2
				c16.6,0,19.5-5,19.5-18.8c0-11-7.3-11.9-33.3-11.9c-27.5,0-31.1,2-31.1,19.7H1.8c0-33.1,17.1-37.8,61.3-37.8
				c31.5,0,63.5,0.2,63.5,30c0,13.6-3.8,25.3-26.2,26.8v0.6c22.9,1.1,28.9,10.1,28.9,25.1c0,31.7-23.7,34.1-66.1,34.1
				c-42,0-63-1.7-63-39.6H30.2z"/>
			<path d="M166.7,611.6h79.5c45.9,0,65.5,11.5,65.5,42.7v27.1c0,23.9-9.8,45-60.2,45h-84.8L166.7,611.6L166.7,611.6z M251.5,707.6
				c21.5,0,28.2-13.3,28.2-26.2v-27.1c0-19.1-9.1-23.9-33.5-23.9h-47.5v77.1H251.5z"/>
			<path d="M486.3,652.6v30.9c0,36.7-20.6,43.8-71,43.8c-51.5,0-70.4-6.1-70.4-43.8v-30.9c0-35.7,17.5-41.9,70.4-41.9
				C463.2,610.7,486.3,615.7,486.3,652.6z M376.8,652.6v30.9c0,22.8,6.4,25,38.4,25c29.1,0,39.1-2.8,39.1-25v-30.9
				c0.7-21.6-10.6-23.1-39.1-23.1C380.8,629.5,377.5,634.4,376.8,652.6z"/>
		</g>
	</g>
	<g>
		<path d="M688.1,726.4h-32V611.6h32V726.4z"/>
		<path d="M847.4,611.6h32v114.8h-53l-70.8-96h-1.1l2.7,96h-32V611.6H778l71.2,96h0.9L847.4,611.6z"/>
		<path d="M983,726.4h-32v-96h-48.8v-18.8h129.6v18.8H983L983,726.4L983,726.4z"/>
		<path d="M1084.2,659h77.9v18.1h-77.9v30.5h82.8v18.8h-114.7V611.6h114.1v18.8h-82.1V659z"/>
		<path d="M1230.5,688.4v38h-32V611.6h85c36.4,0.6,50.4,8.4,50.4,34.4c0,17-1.3,29.4-29.5,32.3v0.6c22.6,1.4,28.2,9.8,28.2,26v21.4
			h-32V705c0-9.6-5.8-16.4-21.1-16.5L1230.5,688.4L1230.5,688.4z M1272.6,669.6c23.5,0,29.3-3.2,29.3-20.1
			c0-16.2-4.2-19.1-27.1-19.1h-44.4v39.2H1272.6z"/>
		<path d="M1395.8,704.6l-10.4,21.7h-33.1l55.3-114.8h47l56.4,114.8h-32.4l-10.9-21.7H1395.8z M1432,628.4h-0.4l-28.4,59.5h57.5
			L1432,628.4z"/>
		<path d="M1631.5,650v-6.3c0-13.3-7.5-14.2-35.5-14.2c-32.2,0-37.7,3.7-37.7,26.2v25.4c0.2,23,4.2,27.4,37.7,27.4
			c25.7,0,37.3-0.6,37.3-17v-6.3h32v7.5c0.7,34.6-28,33.4-69.2,34.6c-58.6,1.5-69-11.8-69.7-45.3v-26.3c0-36.7,20.6-45,69.7-45
			c41.5,0,65.2,0.2,67.5,33.1v6.3L1631.5,650L1631.5,650z"/>
		<path d="M1761.5,726.4h-32v-96h-48.8v-18.8h129.6v18.8h-48.8L1761.5,726.4L1761.5,726.4z"/>
		<path d="M1865,726.4h-32V611.6h32V726.4z"/>
		<path d="M2040.1,611.6l-53.7,114.8h-48.2l-53.3-114.8h32.6l44.4,96.4h0.7l44.4-96.4H2040.1z"/>
		<path d="M2089.8,659h77.9v18.1h-77.9v30.5h82.8v18.8h-114.7V611.6h114.1v18.8h-82.1L2089.8,659L2089.8,659z"/>
	</g>
	<g>
		<path d="M2411.4,726.4h-28.6l-52.8-96.3h-0.7l2.7,96.3h-32V611.6h51.3l45.3,85.3h0.9l44.4-85.3h52.4v114.8h-32l2.7-96.7h-1.1
			L2411.4,726.4z"/>
		<path d="M2662.9,611.6v81.6c0,32-29.1,34.1-69.5,34.1c-39.1,0-69-2-69-34.1v-81.6h32v81.6c0,11.8,6.2,15.3,37.1,15.3
			c29.5,0,37.5-2.9,37.5-15.3v-81.6H2662.9z"/>
		<path d="M2725,707.6h77.7v18.8H2693V611.6h32V707.6z"/>
		<path d="M2866.2,726.4h-32v-96h-48.8v-18.8H2915v18.8h-48.8L2866.2,726.4L2866.2,726.4z"/>
		<path d="M2962.9,726.4h-32V611.6h32V726.4z"/>
		<path d="M2991.1,611.6h73.7c44.6,0,59.3,7.3,59.3,39.5c0,32.4-15.8,38.1-59.3,38.1h-41.7v37.2h-32L2991.1,611.6L2991.1,611.6z
			 M3064.8,670.4c22.9-0.3,27.3-3.2,27.3-19.3c0-16.2-3.3-20.8-27.3-20.7h-41.7v39.9H3064.8z"/>
		<path d="M3178.6,707.6h77.7v18.8h-109.6V611.6h32V707.6z"/>
		<path d="M3301.4,704.6l-10.4,21.7h-33.1l55.3-114.8h47l56.4,114.8h-32.4l-10.9-21.7H3301.4z M3337.5,628.4h-0.4l-28.4,59.5h57.5
			L3337.5,628.4z"/>
		<path d="M3492.5,682.3v44.1h-32v-44.1l-60.2-70.7h36.4l39.5,49h0.7l40.2-49h36.8L3492.5,682.3z"/>
		<path d="M3597,659h77.9v18.1H3597v30.5h82.8v18.8H3565V611.6h114.1v18.8H3597L3597,659L3597,659z"/>
		<path d="M3736.6,688.4v38h-32V611.6h85c36.4,0.6,50.4,8.4,50.4,34.4c0,17-1.3,29.4-29.5,32.3v0.6c22.6,1.4,28.2,9.8,28.2,26v21.4
			h-32V705c0-9.6-5.8-16.4-21.1-16.5L3736.6,688.4L3736.6,688.4z M3778.7,669.6c23.5,0,29.3-3.2,29.3-20.1
			c0-16.2-4.2-19.1-27.1-19.1h-44.4v39.2H3778.7z"/>
	</g>
</g>
</svg>
