<svg enable-background="new 0 0 3840 727.4" version="1.1" viewBox="0 0 3840 727.4" xml:space="preserve" xmlns="http://www.w3.org/2000/svg">
<path d="m2432.8008 0-457 436h112.6992l344.3008-328.40039 149.7148 142.80078h-215.8164l-81.5996 77.79883h378.9805l113.0195 107.80078h112.8008l-457.0996-436zm-2432.8008 11.400391v77.798828 346.800781h77.800781v-346.800781h435.398439v0.101562c84.66553 0 84.69834 126.895009 0.10156 126.998049v-0.09961h-217.10156v0.10156h-132.19922l346 219.69922h145.19922l-223.69727-142h81.69727v0.09961c188.39981-0.1 188.39981-282.699219 0-282.699219h-513.19922zm1028.9004 0v77.798828 334.701171 12.09961h660.0996v-77.80078h-582.3008v-269.000001h582.3008v-77.798828h-660.0996zm2158.4004 0v412.499999 12.09961h652.6992v-77.80078h-574.9004v-346.798829h-77.7988zm-2403.60158 130.599609v135h130.40039v-135h-130.40039zm1042.60158 0v135h130.3984v-135h-130.3984zm1071.2988 0v135h130.4004v-135h-130.4004zm-1733.2988 38.80078v77.79883h412v-77.79883h-412zm-1164.3008 314.59961v38.59961h3840v-38.59961h-3840zm63.099609 115.29883c-44.199955 0-61.2988278 4.70081-61.2988278 37.80078h30.0996098c0-17.69998 3.599637-19.69922 31.099609-19.69922 25.999974 0 33.300781 0.89845 33.300781 11.89844 0 13.79998-2.900016 18.80078-19.5 18.80078h-24.201172v16.69922h24.201172c17.999982 0 22.199219 4.80001 22.199219 17 0 15.89998-8.700027 16.10156-36 16.10156-27.699972 0-32.800781-0.30158-32.800781-21.60156h-30.00000025c0 37.89996 21.00004225 39.60156 63.00000025 39.60156 42.399961 0 66.101561-2.40159 66.101561-34.10156 0-14.99999-6.00041-23.99961-28.90039-25.09961v-0.59961c22.39998-1.5 26.19922-13.20079 26.19922-26.80078 0-29.79997-32.000032-30-63.500001-30zm352.201171 0c-52.89995 0-70.40039 6.20043-70.40039 41.90039v30.90039c0 37.69996 18.90044 43.80078 70.40039 43.80078 50.39995 0 71-7.10082 71-43.80078v-30.90039c0-36.89996-23.10005-41.90039-71-41.90039zm1180.79882 0c-49.0999 0-69.6992 8.30004-69.6992 45v26.30078c0.7 33.49997 11.0993 46.80078 69.6992 45.30078 41.2-1.2 69.9012-0.0016 69.2012-34.60156v-7.5h-32v6.30078c0 16.39998-11.6008 17-37.3008 17-33.5 0-37.4992-4.40041-37.6992-27.40039v-25.40039c0-22.49998 5.4992-26.19922 37.6992-26.19922 28 0 35.5 0.89923 35.5 14.19922v6.30078l32.0996 0.09961v-6.29883c-2.3-32.89997-26-33.10156-67.5-33.10156zm-188.5 0.80078-55.2988 114.80078h33.0996l10.4004-21.70117h71.8984l10.9004 21.70117h32.4004l-56.4004-114.80078h-47zm1905.5996 0-55.2988 114.80078h33.0996l10.4004-21.70117h71.9004l10.8984 21.70117h32.4004l-56.4004-114.80078h-47zm-3146.49998 0.09961v114.80078h84.80078c50.39995 0 60.19922-21.10002 60.19922-45v-27.09961c0-31.19997-19.60005-42.70117-65.5-42.70117h-79.5zm489.40039 0v114.80078h32v-114.80078h-32zm69.09961 0v114.80078h32l-2.69922-96h1.09961l70.80078 96h53v-114.80078h-32l2.69922 96h-0.90039l-71.19922-96h-52.80078zm177 0v18.80078h48.80078v96h32v-96h48.8008v-18.80078h-129.60158zm150.10158 0v114.80078h114.6992v-18.80078h-82.8008v-30.5h77.9004v-18.09961h-77.7988v-28.59961h82.0996v-18.80078h-114.0996zm146.1992 0v114.80078h32v-38l49 0.09961c15.3 0.1 21.0996 6.90001 21.0996 16.5v21.30078h32v-21.40039c0-16.19998-5.5992-24.6-28.1992-26v-0.59961c28.2-2.9 29.5-15.3008 29.5-32.30078 0-25.99997-14.0004-33.80039-50.4004-34.40039h-85zm482.1992 0v18.80078h48.8008v96h32v-96h48.8008v-18.80078h-129.6016zm152.3008 0v114.80078h32v-114.80078h-32zm51.9004 0 53.2988 114.80078h48.2012l53.6992-114.80078h-33.0996l-44.4004 96.40039h-0.6992l-44.4004-96.40039h-32.5996zm173 0v114.80078h114.6992v-18.80078h-82.7988v-30.5h77.8984v-18.09961h-77.8984l0.0996-28.59961h82.0996v-18.80078h-114.0996zm242.0996 0v114.80078h32l-2.6992-96.30078h0.6992l52.8008 96.30078h28.5996l52.5-96.70117h1.0996l-2.6992 96.70117h32v-114.80078h-52.4004l-44.4004 85.30078h-0.9004l-45.2988-85.30078h-51.3008zm224.4004 0v81.59961c0 32.09997 29.9 34.10156 69 34.10156 40.4 0 69.5-2.10159 69.5-34.10156v-81.59961h-31.9004v81.59961c0 12.39999-8 15.30078-37.5 15.30078-30.9 0-37.0996-3.50079-37.0996-15.30078v-81.59961h-32zm168.5996 0v114.80078h109.6992v-18.80078h-77.6992v-96h-32zm92.4004 0v18.80078h48.7988v96h32v-96h48.8008v-18.80078h-129.5996zm145.5 0v114.80078h32v-114.80078h-32zm60.1992 0v114.80078h32v-37.20117h41.7012c43.4999 0 59.2988-5.69964 59.2988-38.09961 0-32.19997-14.6989-39.5-59.2988-39.5h-73.7012zm155.5996 0v114.80078h109.6016v-18.80078h-77.6016v-96h-32zm253.6016 0 60.1992 70.70117v44.09961h32v-44.09961l61.4004-70.70117h-36.8008l-40.1992 49h-0.7012l-39.5-49h-36.3984zm164.6992 0v114.80078h114.8008v-18.80078h-82.8008v-30.5h77.9004v-18.09961h-77.9004v-28.59961h82.0996v-18.80078h-114.0996zm139.5996 0v114.80078h32v-38l49 0.09961c15.3 0.1 21.0996 6.90001 21.0996 16.5v21.30078h32v-21.40039c0-16.19998-5.5992-24.6-28.1992-26v-0.59961c28.2-2.9 29.5-15.3008 29.5-32.30078 0-25.99997-14.0004-33.80039-50.4004-34.40039h-85zm-2273 16.80078h0.4004l28.6992 59.5h-57.5l28.4004-59.5zm1905.5 0h0.4004l28.6992 59.5h-57.5l28.4004-59.5zm-2921.90038 1.09961c28.49997 0 39.80156 1.49963 39.10156 23.09961v30.90039c0 22.19998-10.00159 25-39.10156 25-31.99997 0-38.39844-2.20002-38.39844-25v-30.90039c0.7-18.19998 3.99847-23.09961 38.39844-23.09961zm-216.5 0.90039h47.5c24.39997 0 33.5 4.80041 33.5 23.90039v27.09961c0 12.89999-6.69924 26.19922-28.19922 26.19922v-0.09961h-52.80078v-77.09961zm1031.70118 0h44.4004c22.9 0 27.0996 2.89963 27.0996 19.09961 0 16.89998-5.8008 20.09961-29.3008 20.09961h-42.1992v-39.19922zm1792.6992 0h41.7012c24-0.1 27.2988 4.49924 27.2988 20.69922 0 16.09998-4.3988 19.00078-27.2988 19.30078v-0.09961h-41.7012v-39.90039zm713.4004 0h44.4004c22.9 0 27.0996 2.89963 27.0996 19.09961 0 16.89998-5.8008 20.09961-29.3008 20.09961h-42.1992v-39.19922z"/>
</svg>
