<svg enable-background="new 0 0 3839 795.2" version="1.1" viewBox="0 0 3839 795.2" xml:space="preserve" xmlns="http://www.w3.org/2000/svg">
<path d="m3121.4004 0c-60.8999 0-110.3008 177.99983-110.3008 397.59961s49.3009 397.59961 110.3008 397.59961c60.8999 0 110.2988-177.99983 110.2988-397.59961s-49.4989-397.59961-110.2988-397.59961zm303.6992 0c-60.8999 0-110.2988 177.99983-110.2988 397.59961s49.2989 397.59961 110.2988 397.59961c60.8999 0 110.3008-177.99983 110.3008-397.59961s-49.5009-397.59961-110.3008-397.59961zm303.5996 0c-60.8999 0-110.2988 177.99983-110.2988 397.59961s49.2989 397.59961 110.2988 397.59961c61 0 110.3008-177.99983 110.3008-397.59961s-49.4008-397.59961-110.3008-397.59961zm-1506 0.099609375c-71.1999 0-128.8984 177.9002206-128.8984 397.5000006s57.6989 397.59961 128.7988 397.59961c31.4 0 44.2012-34.69967 60.2012-92.09961h0.2988l27.4004 88.70117h7.8008v-445.80078h-100.7012v7.80078l38.4004 26.89844v276.20117c-4.9 64.19994-13.1004 111.59961-33.4004 111.59961-24.1 0-43.6992-66.80086-43.6992-149.30078v-443.5c0-82.499919 19.4992-149.298829 43.6992-149.298829 24.1 0 57.5 107.298939 75.5 218.798829h0.4004 0.9004 6.5996v-242.0000012h-7.8008l-24.8984 35.5000002c-13.4-25.399975-30.4016-38.59960962-50.6016-38.59960962zm164.9004 10.70117162v7.798828l35.5996 24.900391 77.1016 348.09961-88.3008 366.20117-37.0996 26v7.69922h97.0996v-7.69922l-30-21 73.1992-303.80078 66.7012 300.59961-34.5996 24.20117v7.69922h133.8984v-7.69922l-35.6992-24.90039-85.8008-387 79.2012-328.300781 35.6992-25v-7.798828h-97v7.798828l31 21.59961-63.9004 264.201171-57.8984-261.499999 34.6992-24.300782v-7.798828h-133.9004zm431.0996 0-115.7988 546.699219h119.9004v201.19922l-35.7012 25.10156v7.69922h133.9004v-7.69922l-35.6992-25.10156v-201.19922h53.5996v-30.5h-53.5996v-184.19922l-62.5 43.89844v140.30078h-79.6016l152.9004-516.199219h-77.4004zm302.7012 15.59961c20.5 0 37.2988 66.79891 37.2988 149.298829v443.60156c0 82.49992-16.7988 149.29883-37.2988 149.29883s-37.3008-66.79891-37.3008-149.29883v-443.60156c0-82.499919 16.8008-149.298829 37.3008-149.298829zm303.7988 0c20.5 0 37.3008 66.79891 37.3008 149.298829v443.60156c0 82.49992-16.8008 149.29883-37.3008 149.29883s-37.2988-66.79891-37.2988-149.29883v-443.60156c0-82.499919 16.7988-149.298829 37.2988-149.298829zm303.5 0c20.6 0 37.3008 66.79891 37.3008 149.298829v443.60156c0.2 82.29992-16.6008 149.19922-37.3008 149.19922-20.6 0-37.2988-66.80086-37.2988-149.30078v-443.5c0-82.499919 16.7988-149.298829 37.2988-149.298829zm-2930.89842 99.099609c-78.39992 0-99.50119 4.1008-117.20117 20.30078-17.09998 15.29999-21.90039 34.69926-21.90039 79.19922v63c0 66.99993 8.90044 84.10003 61.40039 114l47.59961 26.69922c0.8 0.8 6.40118 3.20078 13.70117 7.30078 19.39998 10.49999 21.69961 14.39924 22.59961 34.69922l0.90039 11.40039v59.90039 13.69922c0 15.29998-5.70118 24.20117-16.20117 24.20117-12.19999 0-17-8.9008-17-30.80078v-13.69922-90.59961h-113.09961v97.09961c0 36.39996-3.9e-4 48.50001 1.59961 59 2.4 20.29998 7.20118 33.10001 17.70117 44.5 17.69998 20.09998 36.40007 24.19922 103.5 24.19922 84.19992 0 103.70041-4.89963 121.40039-29.09961 12.99999-16.99998 16.19922-32.19927 16.19922-79.19922v-86.40039c0-72.69993-8.79928-87.30043-72.69922-122.90039l-48.5-26.69922c-20.99998-11.39999-25.80078-17.90158-25.80078-35.60156v-39.59961c0-17.79998 0.9-21.89922 2.5-26.69922 2.4-5.59999 8.89962-9.70117 14.59961-9.70117s10.50117 4.00118 13.70117 9.70117c1.6 4.1 2.5 9.69924 2.5 26.69922v63.90039h113.79883v-76c0-50.19995-3.30001-67.20041-17-84.90039-16.89998-22.79998-35.5989-27.59961-104.29883-27.59961zm-515.60156 3.19922v539.40039h102.60156v-307.29883l42.79883 307.29883h66.40039l40.40039-305.69922v305.69922h102.59961 0.19922v-539.40039h-149.59961l-28.29883 238.5-26.70117-238.5h-150.40039zm644.30078 0v87.30078h57.40039v452.09961h113.90041v-452.09961h55.8984v-87.30078h-227.1992zm234.6992 0v539.40039h114v-215.09961h4.8008c28.3 0.8 28.3008 8.3e-4 28.3008 53.30078v161.89844h113.0996v-139.89844c0-63.19994-1.7012-77.8008-12.2012-96.30078-8-14.59999-19.3988-23.4004-38.7988-29.90039 39.5-10.49999 50.9004-36.39969 50.9004-111.59961v-56.59961c0-81.69992-19.4017-102.70078-98.6016-104.30078l-40.3984-0.90039h-121.1016zm545.6016 0v539.30078h95.3984l57.5-0.90039c55.8 0 78.5008-7.30041 93.8008-29.90039 12.8-19.39998 15.3008-37.10007 15.3008-103.5v-266c0-74.39993-4-95.39885-21-114.79883-18.6-21.69998-32.4013-24.20117-130.2012-24.20117h-110.7988zm-1638.900409 0.10156-67.900391 539.29883h106.90039l8-106.79883h43.69922l8.90039 106.79883h107.40039l-67.09961-539.29883h-139.900389zm1424.798809 0-67.8984 539.29883h106.7988l8-106.79883h43.5996l8.9004 106.79883h107.4004l-66.9004-539.29883h-139.9004zm-217.7988 88h4.7988 7.3008c15.5 0 20.3008 5.69963 20.3008 25.09961l0.8984 14.59961v58.19922c0 34.79996-3.1996 39.60156-25.0996 39.60156-1.7 0-4.0992-0.00117-8.1992-0.20117v-137.29883zm556.4004 0.09961c17.8 0 21.8984 5.70042 21.8984 29.90039v13.69922 253 26.69922 11.40039c0 22.59998-4.1984 28.30078-21.8984 28.30078-2.4 0-6.4-3.9e-4 -10.5 0.09961v-362.19922c4 0 8-0.90039 10.5-0.90039zm-1694.60158 46 15.5 209.40039h-30.79883l15.29883-209.40039zm1424.49998 0 15.5 209.40039h-30.7988l15.2988-209.40039z"/>
</svg>
