<?xml version="1.0" encoding="utf-8"?>
<!-- Generator: Adobe Illustrator 26.0.1, SVG Export Plug-In . SVG Version: 6.00 Build 0)  -->
<svg version="1.1" id="Layer_1" xmlns="http://www.w3.org/2000/svg" xmlns:xlink="http://www.w3.org/1999/xlink" x="0px" y="0px"
	 viewBox="0 0 3839 795.2" style="enable-background:new 0 0 3839 795.2;" xml:space="preserve">
<style type="text/css">
	.st0{fill:#686868;}
	.st1{fill:#F7DB17;}
	.st2{fill:#C1214E;}
	.st3{fill:#FFFFFF;}
</style>
<g>
	<g>
		<g>
			<path d="M274.9,668.1H167.5l-8.9-106.8h-43.7l-8,106.8H0l67.9-539.3h139.9L274.9,668.1z M136.7,262.9l-15.3,209.4h30.8
				L136.7,262.9z"/>
		</g>
		<g>
			<polygon points="637,668.1 534.4,668.1 534.4,362.4 494,668.1 427.6,668.1 384.8,360.8 384.8,668.1 282.2,668.1 282.2,128.7 
				432.6,128.7 459.3,367.2 487.6,128.7 637.2,128.7 637.2,668.1 637,668.1 			"/>
		</g>
		<g>
			<path d="M805.3,314v-63.9c0-17-0.9-22.6-2.5-26.7c-3.2-5.7-8-9.7-13.7-9.7c-5.7,0-12.2,4.1-14.6,9.7c-1.6,4.8-2.5,8.9-2.5,26.7
				v39.6c0,17.7,4.8,24.2,25.8,35.6l48.5,26.7c63.9,35.6,72.7,50.2,72.7,122.9v86.4c0,47-3.2,62.2-16.2,79.2
				c-17.7,24.2-37.2,29.1-121.4,29.1c-67.1,0-85.8-4.1-103.5-24.2c-10.5-11.4-15.3-24.2-17.7-44.5c-1.6-10.5-1.6-22.6-1.6-59v-97.1
				h113.1v90.6v13.7c0,21.9,4.8,30.8,17,30.8c10.5,0,16.2-8.9,16.2-24.2V542v-59.9l-0.9-11.4c-0.9-20.3-3.2-24.2-22.6-34.7
				c-7.3-4.1-12.9-6.5-13.7-7.3l-47.6-26.7c-52.5-29.9-61.4-47-61.4-114v-63c0-44.5,4.8-63.9,21.9-79.2
				c17.7-16.2,38.8-20.3,117.2-20.3c68.7,0,87.4,4.8,104.3,27.6c13.7,17.7,17,34.7,17,84.9v76L805.3,314L805.3,314z"/>
		</g>
		<g>
			<polygon points="1097.8,668.1 983.9,668.1 983.9,216 926.5,216 926.5,128.7 1153.7,128.7 1153.7,216 1097.8,216 			"/>
		</g>
		<g>
			<path d="M1282.3,128.7l40.4,0.9c79.2,1.6,98.6,22.6,98.6,104.3v56.6c0,75.2-11.4,101.1-50.9,111.6c19.4,6.5,30.8,15.3,38.8,29.9
				c10.5,18.5,12.2,33.1,12.2,96.3v139.9h-113.1V506.3c0-53.3,0-52.5-28.3-53.3c-1.6,0-2.5,0-4.8,0v215.1h-114V128.7H1282.3z
				 M1283.1,354.3c21.9,0,25.1-4.8,25.1-39.6v-58.2l-0.9-14.6c0-19.4-4.8-25.1-20.3-25.1h-7.3h-4.8v137.3
				C1279,354.3,1281.4,354.3,1283.1,354.3z"/>
		</g>
		<g>
			<path d="M1699.5,668.1h-107.4l-8.9-106.8h-43.6l-8,106.8h-106.8l67.9-539.3h139.9L1699.5,668.1z M1561.2,262.9l-15.3,209.4h30.8
				L1561.2,262.9z"/>
		</g>
		<g>
			<path d="M1817.6,128.7c97.8,0,111.6,2.5,130.2,24.2c17,19.4,21,40.4,21,114.8v266c0,66.4-2.5,84.1-15.3,103.5
				c-15.3,22.6-38,29.9-93.8,29.9l-57.5,0.9h-95.4V128.7H1817.6z M1831.3,579.9c17.7,0,21.9-5.7,21.9-28.3c0-3.2,0-5.7,0-11.4
				c0-8.9,0-18.5,0-26.7v-253v-13.7c0-24.2-4.1-29.9-21.9-29.9c-2.5,0-6.5,0.9-10.5,0.9V580C1824.9,579.9,1828.9,579.9,1831.3,579.9
				z"/>
		</g>
	</g>
	<g>
		<g>
			<path d="M3121.4,0c-60.9,0-110.3,178-110.3,397.6s49.3,397.6,110.3,397.6c60.9,0,110.3-178,110.3-397.6S3182.2,0,3121.4,0z
				 M3158.7,619.3c0,82.5-16.8,149.3-37.3,149.3s-37.3-66.8-37.3-149.3V175.7c0-82.5,16.8-149.3,37.3-149.3s37.3,66.8,37.3,149.3
				V619.3z"/>
		</g>
		<g>
			<path d="M3425.1,0c-60.9,0-110.3,178-110.3,397.6s49.3,397.6,110.3,397.6c60.9,0,110.3-178,110.3-397.6S3485.9,0,3425.1,0z
				 M3462.5,619.3c0,82.5-16.8,149.3-37.3,149.3s-37.3-66.8-37.3-149.3V175.7c0-82.5,16.8-149.3,37.3-149.3s37.3,66.8,37.3,149.3
				V619.3z"/>
		</g>
		<g>
			<path d="M3728.7,0c-60.9,0-110.3,178-110.3,397.6s49.3,397.6,110.3,397.6s110.3-178,110.3-397.6S3789.6,0,3728.7,0z
				 M3728.7,768.5c-20.6,0-37.3-66.8-37.3-149.3V175.7c0-82.5,16.8-149.3,37.3-149.3c20.6,0,37.3,66.8,37.3,149.3v443.6
				C3766.2,701.6,3749.4,768.5,3728.7,768.5z"/>
		</g>
		<g>
			<polygon points="2885.3,342.8 2822.8,386.7 2822.8,527 2743.2,527 2896.1,10.8 2818.7,10.8 2702.9,557.5 2822.8,557.5 
				2822.8,758.7 2787.1,783.8 2787.1,791.5 2921,791.5 2921,783.8 2885.3,758.7 2885.3,557.5 2938.9,557.5 2938.9,527 2885.3,527 
							"/>
		</g>
		<g>
			<polygon points="2559.7,371.9 2638.9,43.6 2674.6,18.6 2674.6,10.8 2577.6,10.8 2577.6,18.6 2608.6,40.2 2544.7,304.4 
				2486.8,42.9 2521.5,18.6 2521.5,10.8 2387.6,10.8 2387.6,18.6 2423.2,43.5 2500.3,391.6 2412,757.8 2374.9,783.8 2374.9,791.5 
				2472,791.5 2472,783.8 2442,762.8 2515.2,459 2581.9,759.6 2547.3,783.8 2547.3,791.5 2681.2,791.5 2681.2,783.8 2645.5,758.9 
							"/>
		</g>
		<g>
			<path d="M2217.6,346v7.8l38.4,26.9v276.2c-4.9,64.2-13.1,111.6-33.4,111.6c-24.1,0-43.7-66.8-43.7-149.3V175.7
				c0-82.5,19.5-149.3,43.7-149.3c24.1,0,57.5,107.3,75.5,218.8c0,0,0.1,0,0.4,0c0.2,0,0.5,0,0.9,0c2.2,0,6.6,0,6.6,0V3.2h-7.8
				l-24.9,35.5c-13.4-25.4-30.4-38.6-50.6-38.6c-71.2,0-128.9,177.9-128.9,397.5s57.7,397.6,128.8,397.6c31.4,0,44.2-34.7,60.2-92.1
				h0.3l27.4,88.7h7.8V346H2217.6z"/>
		</g>
	</g>
</g>
</svg>
