<?xml version="1.0" encoding="UTF-8"?>
<svg width="1e3" height="222.64" version="1.1" viewBox="0 0 1e3 222.64" xmlns="http://www.w3.org/2000/svg"><g transform="translate(-282.22 -311.27)"><g transform="matrix(21.017 0 0 -21.017 367.58 493.02)"><path d="m0 0c-1.121 0-2.028.937-2.028 2.102 0 1.143.907 2.094 2.028 2.094.745 0 1.49-.347 1.807-.981.022-.044.051-.103.051-.177v-1.858c0-.037-.022-.118-.037-.14-.346-.634-1.054-1.04-1.821-1.04m3.68-1.6v7.374h-1.822v-.619c-.509.494-1.202.766-2.057.766-2.087 0-3.672-1.696-3.672-3.819 0-2.132 1.585-3.85 3.672-3.85.855 0 1.548.288 2.057.782v-.634h1.822zm7.912 0v3.989c0 1.962-1.526 3.532-3.473 3.532-1.954 0-3.473-1.57-3.473-3.532v-3.989h1.821v3.989c0 .966.679 1.704 1.652 1.704.966 0 1.652-.738 1.652-1.704v-3.989h1.821zm4.631 1.6c-1.121 0-2.028.937-2.028 2.102 0 1.143.907 2.094 2.028 2.094.745 0 1.453-.369 1.807-.981.022-.044.051-.103.051-.177v-1.866c0-.037-.022-.11-.036-.132-.347-.634-1.055-1.04-1.822-1.04m3.68-1.6v9.586h-1.822v-2.831c-.508.494-1.202.789-2.057.789-2.087 0-3.672-1.719-3.672-3.842 0-2.132 1.585-3.85 3.672-3.85.855 0 1.549.288 2.057.782v-.634h1.822zm2.787 0v3.938c0 1.165.612 1.784 1.777 1.784v1.799c-2.345 0-3.598-1.246-3.598-3.583v-3.938h1.821zm5.759 1.688c-1.106 0-2.005.9-2.005 2.014 0 1.106.899 2.005 2.005 2.005 1.121 0 2.014-.899 2.014-2.005 0-1.114-.893-2.014-2.014-2.014m0-1.836c2.132 0 3.857 1.718 3.857 3.85 0 2.123-1.725 3.819-3.857 3.819-2.123 0-3.849-1.696-3.849-3.819 0-2.132 1.726-3.85 3.849-3.85m5.597 8.082c.583 0 1.055.48 1.055 1.062 0 .59-.472 1.062-1.055 1.062-.582 0-1.054-.472-1.054-1.062 0-.582.472-1.062 1.054-1.062m.907-.56h-1.822v-7.374h1.822v7.374zm4.698-5.774c-1.121 0-2.028.937-2.028 2.102 0 1.143.907 2.094 2.028 2.094.745 0 1.452-.369 1.806-.981.023-.044.052-.103.052-.177v-1.873c0-.037-.022-.103-.037-.125-.346-.634-1.054-1.04-1.821-1.04m3.679-1.6v9.586h-1.821v-2.831c-.509.494-1.202.766-2.057.766-2.087 0-3.673-1.696-3.673-3.819 0-2.132 1.586-3.857 3.673-3.857.855 0 1.548.295 2.057.789v-.634h1.821z" fill="#fff"/></g></g></svg>
