<svg version="1.0" viewBox="0 0 760 478" xmlns="http://www.w3.org/2000/svg">
 <defs>
  <clipPath id="a">
   <path d="m0 792h1224v-792h-1224v792z"/>
  </clipPath>
 </defs>
 <g fill="#fff">
  <g transform="matrix(1.1464 0 0 -1.1464 -80.302 741.45)" clip-path="url(#a)" fill="#fff">
   <g transform="translate(78.16 625.91)">
    <path d="m4.7269 1.1817 132.61 3.326c25.746 0.552 49.556-2.212 73.644-10.523v-4.708c-20.764-17.717-35.71-38.754-49.281-62.294l-80.563-0.557 0.553-228.4 47.619-3.313 48.725 0.549c29.071 0.285 55.922 46.793 58.42 71.987l7.192 79.449c3.051 34.888 23.257 61.735 54.543 76.138 19.658-32.948 28.239-69.489 28.239-107.97 0-120.99-75.019-197.4-193.25-192.97l-128.46 4.981v374.31z" fill="#fff" fill-rule="evenodd"/>
   </g>
   <g transform="translate(474.36 631.24)">
    <path d="m0 0c-23.257-17.163-41.528-36.265-54.538-62.284-4.434 0.273-8.863 0.55-13.288 0.55-46.793 0-89.426-40.97-94.962-86.929l-12.183-99.948c-1.662-14.122-13.845-28.515-22.983-38.758-7.746-8.304-16.882-9.966-28.235-9.966h-1.384c-14.398 33.215-21.874 67.55-21.874 103.82 0 113.78 63.677 204.04 182.17 204.04 23.257 0 45.405-4.432 67.274-10.524" fill="#fff" fill-rule="evenodd"/>
   </g>
   <g transform="translate(329.57 255.27)">
    <path d="m0 0 38.482 36.277 17.44 24.911 29.067-0.55c13.844-30.177 36.545-50.663 64.232-68.383-20.212-6.649-40.144-9.967-61.187-9.967-30.728 0-59.525 6.921-88.034 17.712" fill="#fff" fill-rule="evenodd"/>
   </g>
   <g transform="translate(417.88 370.72)">
    <path d="m0 0 73.918-0.558c7.754-47.339 39.039-60.353 85.545-60.353 29.075 0 72.539 6.921 72.539 44.019 0 19.381-15.229 29.354-30.728 37.934l3.872 73.916c58.972-16.051 104.93-38.199 104.93-107.41 0-81.957-78.075-116.56-150.06-116.56-51.492 0-118.21 14.953-145.63 63.675-8.58 14.951-16.604 34.329-16.604 51.77 0 1.388 0.27 2.769 0.548 4.151l1.662 9.418z" fill="#fff" fill-rule="evenodd"/>
   </g>
   <g transform="translate(714.95 514.96)">
    <path d="m0 0h-75.582c-6.369 36.826-37.103 55.095-73.926 55.095-25.185 0-66.443-11.063-67.819-42.631-0.287-1.665 0-3.038 0.548-4.434l14.951-42.909c3.046-8.86 3.602-18.545 3.602-27.961 0-10.792-1.387-21.591-2.767-32.391-53.157 14.951-90.535 40.692-90.535 100.5 0 80.565 65.059 118.22 139.26 118.22 82.5 0 147.01-38.488 152.27-123.49" fill="#fff" fill-rule="evenodd"/>
   </g>
   <g transform="translate(582.33 555.39)">
    <path d="m0 0c19.933-35.168 30.181-73.376 30.181-114.06 0-42.365-11.349-81.953-30.728-119.05-4.988-0.275-9.969-0.824-14.957-0.824-16.051 0-55.09 10.791-55.09 30.442 0 3.322 0.548 6.649 1.662 9.695l14.664 48.994c3.055 9.694 1.945 21.327 1.945 31.013 0 37.932-17.166 61.743-18.554 87.767-0.827 18.264 33.78 26.851 45.967 26.851 8.301 0 16.603 0 24.91-0.825" fill="#fff" fill-rule="evenodd"/>
   </g>
  </g>
 </g>
</svg>
