<?xml version="1.0" encoding="utf-8"?>
<!-- Generator: Adobe Illustrator 25.4.1, SVG Export Plug-In . SVG Version: 6.00 Build 0)  -->
<svg version="1.1" id="Layer_1" xmlns="http://www.w3.org/2000/svg" xmlns:xlink="http://www.w3.org/1999/xlink" x="0px" y="0px"
	 viewBox="0 0 3839 1210.3" style="enable-background:new 0 0 3839 1210.3;" xml:space="preserve">
<style type="text/css">
	.st0{fill-rule:evenodd;clip-rule:evenodd;}
	.st1{fill:#FFFFFF;}
	.st2{fill-rule:evenodd;clip-rule:evenodd;fill:#FFFFFF;}
</style>
<g>
	<rect x="3.1" y="963.6" width="282.3" height="43.8"/>
	<path d="M3.1,1038.6v-24.9h103.4c115.5,0,178.9,88.3,178.9,150.3h-46.9c0-46.3-68.3-125.4-172.8-125.4"/>
	<path d="M3.1,932.5v24.9h103.4c115.5,0,178.9-88.3,178.9-150.3h-46.9c0,46.3-68.3,125.4-172.8,125.4"/>
	<path d="M216.3,632.3l69.1-20.3v-50L29.8,637.4C10.2,642.9,0,653.7,0,673.3c0,19.6,10.2,30.4,29.8,35.9l255.6,75.5v-50l-69.1-20.4
		 M169,700.4l-91.8-27.1l91.8-27L169,700.4z"/>
	<polyline points="3.1,433.4 53.1,433.4 53.1,492.9 285.5,492.9 285.5,543 53.1,543 53.1,602.5 3.1,602.5 	"/>
	<path d="M216.3,323.1l69.1-20.3v-50L29.8,328.2C10.2,333.7,0,344.5,0,364.1c0,19.6,10.2,30.4,29.8,35.9l255.6,75.5v-50l-69.1-20.4
		 M169,391.2l-91.8-27.1l91.8-27L169,391.2z"/>
	<path d="M285.4,238.6H40.2c-20,0-37.1-21.2-37.1-38.5v-51.4c0-38.6,37.6-76.3,88.1-76.3c35.3,0,66.5,26.1,78.5,50
		c3.3,6.6,5.5,8.4,14.1,3.7l101.6-63.6v55.7l-94.2,56.9c-11,6.3-25.3,9.6-37.9,4.1c-12.5-5.5-19-13.9-24.5-30.4
		c-5.5-16.5-20.2-27.5-36.1-27.5c-16.7,0-39.6,14.7-39.6,37.9v32.4h232.2"/>
	<rect x="3.1" y="0" width="282.3" height="50"/>
	<path d="M1757.4,155.5c17.9,4.6,15.9,33.1,37.7,23.8c6-1.3,13.2,6,7.9,13.2c-3.3,2-7.3,4-11.3,6c3.3,6.6,10.6,15.2,3.3,22.5
		c-19.9,10.6-43,11.3-64.9,17.2c-78.7,29.8-164.1,90-197.2,173.4c-16.5,55.6-19.2,127.1,14.6,176c27.8,28.4,60.2,58.9,99.9,65.5
		c35.1,8,65.5-5.3,90.6-27.1c0-7.9-15.9-11.9-6.6-19.2c-18.5-22.5,2-47-3.3-71.5c6.6-25.8,9.3-47,19.2-71.5
		c-14.6-1.3-28.4,8.6-44.3,9.3c6.6-3.3,0-11.9-4.6-6c-29.8,13.9-61.5,22.5-89.3,41c-4-0.6-11.3-3.9-6-9.3
		c29.1-8.6,17.9-47.6,51-49.6c4.6-19.8,28.4-22.5,45.7-26.5c-4.6-19.8,17.9-7.3,25.8-13.2c23.2-11.9,49.6-17.9,69.5-39.7
		c9.3-4.6,17.9-2.6,20.5,8c0.7,3.9-0.7,7.9,3.3,9.9c10.6-1.3,18.5-17.9,28.5-9.9c-0.7,102.6-60.9,193.9-36.4,299.1
		c-1.3,9.9,2,21.8,3.3,33.1c-2,3.3-5.3,3.3-8,4.6c-3.3-2.7,0-7.9-3.3-11.3c-22.5,11.9-11.3-23.8-29.8-20.5
		c-9.3-9.3-13.9-23.2-29.1-21.8c-18.5,19.8-31.1,49-60.2,53.6c-39,10.6-84.7,4-120.4-17.2c-52.3-20.5-89.3-68.8-111.2-117.8
		c-22.5-90.6-17.9-197.2,33.1-273.3c9.3-30.5,39-48.3,52.3-77.4c26.5-14.6,37.7-50.3,65.5-65.5c4.6,0.7,11.3,0,11.3-6
		c33.8-19.2,71.5-27.8,111.2-33.8C1733.6,144.9,1767.3,127.8,1757.4,155.5"/>
	<path d="M2541.5,250.8c-34.4,43-72.1,84.7-93.3,133.7h4.6c6-9.3,28.4-3.3,31.8-20.5c16.5-5.3,31.1-25.1,50.9-12.6
		c-6.6-13.9,12.6-17.9,1.3-27.1c-1.3-7.3,0.7-17.9,9.3-20.5c-2-17.2,10.6-31.8,9.9-49.6c-0.7,2.6-5.3,8.6-9.9,7.9
		C2542.8,259.4,2540.8,256.1,2541.5,250.8 M2082.9,89.4c-10.6,17.2,23.2,25.8,4.6,42.3c10.6,7.3,21.8,3.3,28.4,17.9
		c-11.3,32.4-34.4,60.2-47.6,92c-21.8,14.6-11.9,42.4-25.1,60.2c-23.1,33.1-45,66.8-54.2,105.2c-43.7,57.6-64.9,125-84,193.2
		c-3.3,9.9-2.7,23.8,7.9,29.1c29.8,3.9,50.3-31.1,72.8-43c8.6-13.9,27.1-17.9,33.8-33.8c32.4-29.8,82-61.5,85.3-107.9
		c14.6-12.6,1.3-36.4,19.2-47.6c0-17.2,0-39,15.9-45.7c-4-12.6-7.3-26.5,3.3-37c-2-4.6,3.3-7.3,1.3-12.6c4.6,2.7,9.9-3.9,14.6-6
		c17.2-11.9-14.6-20.5,3.3-31.7c11.2-14.6,14.5-37.1,29.8-45c-5.3-9.3,10.6-13.9,9.9-23.8c13.2-18.5,19.9-41.7,39.7-56.9
		c7.9,7.3,23.2-1.3,28.4,12.6c13.2-6.6,24.5-7.3,37.7,0c4.6,7.9,11.9,16.5,7.9,25.8c-2,4.6-7.3,7.9-6,13.9
		c8.6,4.6,21.2,7.9,20.5,20.5v9.9c-66.8,119.1-118.4,244.2-162.1,373.2c-0.7,11.9-6,24.5-1.3,36.4c3.3,8,11.2,17.9,20.5,19.2
		c2.7,2.7,6,7.3,9.3,3.3c19.8-39,55.6-67.5,74.8-106.5c-13.2,2-28.4,8.6-43,12.6c-2-10.6,12.6-16.5,13.2-28.4
		c2.7-9.3-13.9-8-5.3-15.9c13.9-7.9,33.1-11.2,39.7-25.8c13.2-10.6,33.7-9.2,39.7-28.5c33.8-7.3,31.1-43.7,52.9-63.5
		c3.3-20.5,25.1-31.7,33.1-49c2.6,2,6,1.3,7.9-2c-5.3-24.5,37.7-23.8,33.1-52.3c19.2-6,16.5-26.5,31.7-36.4
		c11.3-15.2,22.5-31.8,39.7-43c-2-3.9,3.9-4.6,3.3-7.9c22.5-22.5,60.2-36.4,57.6-71.5c0.7-9.3,1.3-23.8,12.6-29.8
		c11.2,0,21.8,5.3,29.8,9.3c0.7,5.3-2,15.2,6.6,14.6c23.2,6,39,0,60.2,10.6c3.3,2.6,0,7.3,3.3,9.9c-45,185.3-35,399.7-63.5,592.2
		c4,27.1-6.6,56.2-3.3,80.7c-4.6,3.3-4,11.2-9.3,7.9c1.3-4-2.6-6.6-4.6-9.3c0-9.3,2.6-23.8-5.3-31.8c-1.3,2.7-4.6,3.3-7.9,3.3
		c-4.6-3.3-2.7-9.3-7.9-12.6c15.2-4.6,11.3-21.2,9.9-31.7c-9.9-0.7-7.9-11.9-12.6-17.9c2.7-4,15.9-3.3,10.6-13.9
		c-3.3-8.6-6.6,3.9-12.6,0c-3.3-7.3-7.3-15.2-4.6-22.5c-9.3-13.2,1.3-35.8-11.2-46.3c0-8,7.3-17.9,0-25.1c-7.9,4-4,18.5-9.3,22.5
		c-2.6-27.1-16.5-58.3,0-82.7c-2.6-13.2-14.6-27.8-7.9-44.3c-2.7-29.1,6-62.2,3.3-90.6c-15.9-2.6-28.5,11.9-45,12.6
		c-4,9.3-15.9,8.6-23.8,12.6c-23.2,5.3-33.8,31.8-58.2,33.8c-4,4-9.9,4-14.6,6c0-1.3,0.6-4-1.3-4.6c-6,8-23.2,1.3-17.9,15.9
		c-7.9,0-13.2,8.6-17.2,14.5c-31.7,59.6-61.5,119.8-98.6,177.3c-6,16.5-19.2,30.4-23.8,47.6c-2.7,3.3-8.6,1.3-9.3-1.3
		c-6-8-13.2,5.3-14.6,9.3c-15.2,30.4-31.1,63.5-55.6,87.3c-2.7,1.3-4.6-1.3-6.6-2.7c0.7-7.3,5.3-13.9,5.3-19.2
		c-11.9,9.9-19.2,21.8-27.1,33.1c-15.2,3.9-4-13.2-9.9-19.2c-14.6,14.6-19.2,43-44.3,43c-1.3-7.3,2-16.5,3.3-25.1
		c-5.3-5.3-11.3,6.6-15.9-2c3.3-13.2,19.2-24.5,22.5-39.7c13.9-5.3,9.9-25.8,23.8-33.1c-2.7-11.9,9.3-13.9,9.3-23.8
		c13.9-13.2,13.2-33.1,28.5-46.3c-32.4,4.6-83.4,38.4-106.5-6c4.6-9.3,0.7-20.5-7.9-25.8c4.6-27.8-1.3-47.6,9.9-72.8
		c-1.3-13.2,15.2-18.5,7.9-30.5c-33.8,37-71.5,74.8-109.8,108.5c-28.4,13.9-60.9,19.2-90.6,2.7c-11.2-6.6-10.6-18.5-18.5-26.5
		c-11.9-52.9-9.9-107.2,12.6-154.2c12.6-26.5,6.6-60.9,25.1-84c8.6-54.3,37.7-99.9,57.6-149.5c11.9-28.4,20.5-58.9,41-84
		c9.9-31.1,21.8-65.5,51-84c4.6-2.7,9.9-10.6,15.9-5.3c11.9,3.3,14.6-19.2,28.4-10.6C2078.9,83.4,2081.6,86.1,2082.9,89.4"/>
	<path d="M1401.4,11.3c-2.7,5.3-9.9,5.3-14.6,9.3c-43,6.6-88,9.3-129.7,19.2c-6.6,17.2,11.9,16.5,21.8,15.9c3.3,4.6,9.3-1.3,9.9,0
		c0,19.9-31.8,11.9-25.8,35.1c-16.5,15.2-41.7,9.3-58.9,23.8c1.3,1.3,2.7,2,3.3,3.3c-28.5,11.3-58.2,25.1-88.7,28.5
		c4.6,11.2-12.6,20.5-17.9,27.1c-19.2-1.3-33.1,8.6-49,15.9c-19.2,119.1-60.2,229.6-94,342.7c-35.7,67.5-54.9,141.6-112.5,200.5
		c-58.9,77.4-142.9,167.4-250.8,135c-63.5-26.4-144.9-49.6-171.4-124.4c-0.7-6.6,5.3-9.3,10.6-10.6c4.6-2,3.3,2.7,5.3,4.6
		c7.9,4.6,17.2,7.9,18.5,19.2c40.4,23.8,74.8,61.5,127.1,55.6c98.6-10.6,161.5-111.8,208.4-187.9c64.2-129,98.6-271.3,130.4-414.2
		c-1.3-1.3-2.7-2-3.3-3.3c-82.1,7.3-161.5,25.1-242.8,27.1c-4.6-6.6-6-13.9-9.9-20.5c-8.6-3.3-20.5,7.3-23.8-3.3
		c4.6-1.3-0.7-3.3-1.3-4.6c9.9,0.7,17.2-6.6,21.8-14.6c2.6-9.9-9.3-11.3-13.9-17.2c-6.6-1.3-12.6-2.7-14.6-9.9
		c0-6.6,0-13.2,6.6-17.2c9.3-6,35.1,6.6,29.8-11.3c-5.9-0.6-21.2,3.3-21.8-9.3c0.7-9.9,2-19.2,13.9-17.9
		c84.7,7.3,158.1-17.2,241.5-21.8c119.8-16.6,233.6-51,351.3-66.9c39.7-6.6,79.4-12.6,119.1-19.2C1386.2,0,1399.4-1.3,1401.4,11.3"
		/>
	<path d="M1293.5,257.4c-1.3,2.6-4.6,4.6-4.6,7.9c-4,4.6-11.9,22.5-17.9,6.6c-33.1,52.9-60.9,107.9-88.7,163.4c-2,4-2,8.6,0,12.6
		c15.9,3.3,13.9-9.3,19.2-17.2c9.3-5.3,19.8-11.2,31.7-6.6c13.2-19.8,37.7-25.8,58.2-35C1290.2,344.1,1295.5,302.4,1293.5,257.4
		 M1396.8,113.2c7.3,13.9-11.2,47.6,15.9,45.7c13.9,24.5,0.7,53.6,1.3,81.4c-14.6,150.9-17.9,313-15.9,465.1
		c-3.3,6.6,2.6,27.8-12.6,19.2c-7.3-7.3-7.9-21.8-17.2-23.9c-11.3,19.2-5.3,43.7-11.3,61.6c-12.6-4.6-13.2-17.2-14.6-28.4
		c12.6-21.2-19.8-31.8-11.2-55.6c-9.3,5.3,0,24.5-7.9,33.1c-9.3,2.6-10.6-9.3-15.9-15.9c1.3-14.5-15.9-30.4-2.6-41
		c9.3-23.8-15.9-38.4-6.6-60.2c-1.3-43-3.3-93.9-4.6-135l-3.3-3.3c-39.7,16.5-82.7,31.1-122.4,43c-8.6,3.9-15.9,13.2-27.1,12.6
		c-42.4,78.7-74.1,162.1-112.5,242.8c2,21.8-27.2,26.5-22.5,49.6c-5.3,9.9-7.9,22.5-15.9,29.8c-6.6-12.6,14.6-29.1,0-41
		c5.3-13.2,10.6-28.4,7.9-43c-19.8,27.8-31.1,60.9-45.7,92c-6.6,2-7.9-8.6-4.6-12.6c3.9-7.9,11.2-19.2,6-27.2h-3.3
		c-12.6,18.6-15.2,45-36.4,55.6c5.3-17.2-2.7-25.1-1.3-41c0-19.2,18.5-26.5,17.2-43c7.3-4-2-15.9,9.9-15.9
		c-0.7-8.6,20.5-14.5,9.3-22.5c8.6-25.1,24.5-48.3,35.1-71.5c9.3-7.9,6-21.2,17.2-28.4c8.6-22.5,19.9-46.3,36.4-66.8
		c-7.3-11.9,13.9-12.6,6.6-25.1c2.6-7.3,9.3-13.2,11.3-20.5c-6-4.6-26.5,3.3-23.8-12.6c3.3-4.6-5.3-4.6-7.9-6.6
		c9.3-9.3,25.1-14.6,37.7-14.6c2.7-7.3,11.9-5.3,17.9-7.9c6.6-16.5,27.1-30.4,20.5-50.3c10.6-7.3,20.5-17.9,20.5-29.1
		c0-25.8,30.4-46.3,33.7-69.5c14.6-10.6,17.2-30.4,26.5-43c13.2-2.7,0.6-15.2,14.6-15.9c15.9-29.1,19.2-64.9,47.6-87.3
		c10.6-15.2,16.6-31.8,20.5-49c7.3-3.9,11.2,0,19.2-2c6,6,0,22.5,14.6,19.2c4.6-9.9,0.6-33.1,20.5-33.1c15.9-0.7,34.4,8.6,44.3-6.6
		C1371,109.2,1386.8,103.9,1396.8,113.2"/>
	<path d="M3148.2,101.9c34.4-0.7,64.9,28.4,95.3,47.6c36.4,31.1,54.3,70.1,52.3,117.1c-4,89.3-96,158.1-168.1,193.9
		c6,9.9,18.5,18.5,28.4,25.8c31.8,31.1,53.6,74.1,90.6,103.2c10.6,22.5,38.4,23.8,55.6,42.3c25.8,45.7,76.1,58.9,104.5,100.6
		c34.4,29.8,68.8,66.2,106.5,92c16.5,30.4,51,23.8,64.9,56.9c9.3,3.3,15.9,13.2,19.2,20.5c-21.2,19.2-36.4-20.5-55.6-28.5
		c-14.6-9.3-25.8-22.5-41-33.1c-69.5-54.3-129.7-109.8-201.8-157.5c-22.5-11.3-37.7-37.1-54.3-56.9c-39.7-11.2-51.6-54.3-84-76.1
		c-5.3-9.9-13.9-19.9-21.8-27.1c-0.6,11.3-13.2,7.3-17.9,1.3c-11.9-15.2-32.4-21.2-45.7-33.1c5.3-16.5-13.9-5.9-19.2-11.2
		c-7.9-9.9-17.9-21.2-28.5-27.2c-7.9,4,0,8.6,1.3,12.6c25.1,17.9,32.4,55.6,63.5,62.2c29.8,33.1,62.9,58.9,95.3,86
		c-2.7,3.3-9.9,2-14.6,4.6c62.9,30.5,111.2,95.9,172,131.7c23.2,21.8,47,42.3,66.2,63.5c1.3,2-2.7,2.7-1.3,4.6
		c81.4,54.9,146.2,142.9,233.6,189.3c2.7,6.6-4.6,7.3-7.9,4.6c-94-59.5-174.7-141.6-270-198.5c-79.4-58.9-132.3-143.6-221-187.2
		c-2.7-15.2-18.5-14.5-28.4-20.5c-9.9-14.6-31.1-27.1-31.8-46.3c-13.9-15.2-39.7-21.8-46.3-44.3c-12.6-6.6-23.8-19.2-39.7-14.6
		c-11.2-7.3-16.5-25.1-31.7-27.1c-2.7-6-11.3-5.3-10.6-12.6c13.9-2,9.3-19.9,23.8-21.8c11.9,6.6,25.1,6,37.7,1.3
		c10.6-20.5-19.2-25.8-27.1-41c-6-8.6,5.3-17.2,6.6-21.2c21.8-0.6,34.4,43,58.9,25.8c6,0,8.6,7.3,15.9,4.6
		c15.9-26.5,37.1-50.9,56.9-76.1c6.6-15.9,20.5-31.1,12.6-50.9c-28.4-36.4-79.4-43-125-35.1c-11.9,10.6-35.7,3.9-38.4,23.8
		c-2,17.2-13.2,29.8-20.5,44.3c-4-0.6-4.6-3.9-4.6-7.9c3.3-2-2.7-5.3-4.6-6c-20.5,25.1-23.2,60.9-37.1,90.7c-4.6,0-2.7-6.6-7.9-6.6
		c-35.7,107.9-56.2,221-80.7,333.5c-2.6,7.9-7.9,11.2-14.5,15.9c-9.9-7.3,7.9-25.1-9.3-30.4c-21.2,48.3-40.4,97.3-62.2,144.9
		c-6.6-9.9,0.7-19.2-6-28.5c-9.3-2-13.9,2-15.9,9.3c-9.3,20.5-6.6,49-23.8,63.5c0.7-4.6,5.3-18.5,0-25.1c-8.6,6-7.9,26.5-19.2,20.5
		c0-13.9-14.5-29.8,0-41.7c-19.2-26.5,12.6-58.9,22.5-87.3c6-4.6,18.5-8,7.9-17.2c6.6-7.3-4-28.4,10.6-27.1c8.6-6,0.6-9.9-4.6-12.6
		c11.3-24.5,15.9-51.6,27.1-76.1c11.2-4,19.8-13.2,20.5-25.8c-8.6-1.3-6.6-11.9-4.6-17.2c21.2-58.9,33.1-121.8,60.2-178
		c3.3-12.6,5.3-29.8,15.9-41c4-21.8,16.5-39,20.5-60.2c-27.8,5.3-54.9,41.7-87.3,23.8c0.6-33.1-42.4,5.3-41-27.1
		c-2.7-19.8-26.5-2-31.8-20.5c0-13.2,7.3-19.8,4.6-31.7c11.9,6,19.2-8.6,30.4-7.9c12.6-9.9,6.6-27.8,17.2-38.4
		c27.1-6.6,50.3-26.5,76.1-30.4c3.3-4.6,6-11.3,13.2-10.6c13.2,0.7,26.5-7.9,39.7-11.2c0,0.6,0.7,0.6,1.3,1.3
		c13.2-8.6,31.7-7.9,43-19.2c27.1-2.6,52.9-18.5,79.4-13.9c17.9-3.3,43,1.3,56.9-15.9c13.9-9.9,30.4,6.6,44.3-7.9
		C3109.2,103.9,3133,87.4,3148.2,101.9"/>
	<path d="M2989.4,503.6c7.3,4.6,14.6,10.6,23.8,11.2c29.8,45.7,82.1,76.1,111.2,123.8c14.6,13.2,40.4,17.2,44.3,39.7
		c29.8,24.5,66.8,49,84,82.7c20.5,10.6,39,23.8,60.9,29.8c60.2,47.6,105.9,98.6,161.4,150.8c35.7,41,84,50.3,122.4,82.7
		c26.5,25.1,61.5,50.3,81.4,79.4c-1.3,2.7-7.3,2.7-9.9,0c-82.7-71.5-173.4-126.4-255.4-199.8c-11.9,1.3-22.5-7.9-31.8-15.9
		c-54.2-27.8-88.7-97.9-149.5-113.2c-18.5-33.1-52.3-52.9-84-71.5c-25.1-9.9-27.8-42.4-52.3-49c-7.3-9.3-20.5-9.9-23.8-22.5
		c-23.8-26.5-47.6-56.3-78.1-72.8c-9.3-9.3-13.9-19.8-20.5-30.4c-10.6-2-29.1,6-36.4-9.3c-10.6,0-22.5,2-28.4-8
		c1.3-11.2,11.9-17.2,0-27.1c12.6-33.1,40.4,2.7,61.5,0C2978.8,488.3,2985.4,495,2989.4,503.6"/>
	<path d="M3014.6,589.6c13.2,11.2,24.5,23.8,23.8,41c23.2,40.4,62.2,68.8,95.3,98.6c10.6,19.2,23.2,37.7,37.1,55.6
		c27.8-11.9,44.3,19.9,61.6,36.4c-3.3,20.5,23.1,24.5,35,36.4c9.9-4,15.9,5.9,17.2,14.5c22.5,9.3,32.4,38.4,57.6,41
		c9.9,19.8,38.4,11.3,39.7,35.1c21.2,16.5,45,29.1,64.9,44.3c-2,13.2,19.2,6,17.9,20.5c9.9,7.3,19.9,21.2,34.4,19.2
		c2.6,19.2,23.8,19.2,35.1,28.5c60.2,50.9,128.4,96.6,185.9,149.5c-8.6,0-15.9-5.3-23.8-8c-156.8-123.1-322.9-231.6-477.7-361.9
		c-8.6-4.6-9.3-14.5-13.2-22.5c-53.6-7.3-82.1-65.5-127.1-95.3c-16.5-45-78.7-54.9-84-104.6c-16.5-15.2-45.7-9.3-53.6-35.1
		c-4.6-2-4.6-8.6-6.6-12.6c-9.3-9.2-36.4-6.6-28.4-25.8c24.5-12.6,44.3,15.2,68.2,19.2C2984.8,575,3001.3,581,3014.6,589.6"/>
	<path d="M2813.4,748.4c-3.3,27.1-15.2,51.6-30.4,74.1c-6.6-1.3-6-11.9-14.6-13.9c0.7-3.3,4.6-5.3,6.6-7.9c3.3,0,6-0.7,7.9-3.3
		c9.9-17.9-2-48.3,22.5-55.6C2808.1,743.1,2810.8,745.8,2813.4,748.4"/>
	<path d="M3626,919.8c7.9,3.3,13.9,11.9,23.8,11.3c19.9,9.9,29.1,33.8,49.6,42.3c-13.2,15.9-27.1-11.3-43-12.6
		c-14.6-21.2-45-24.5-50.9-49C3613.4,904.5,3621.3,911.2,3626,919.8"/>
	<path d="M3745.1,1002.5c31.1,20.5,65.5,33.8,93.9,56.9c-38.4-4.6-71.5-32.4-106.5-50.9c-9.9-2.7-19.8-7.3-25.1-17.2
		c0.7-4.6-2.7-10.6,3.3-12.6C3724.5,980.6,3732.5,997.2,3745.1,1002.5"/>
	<path d="M3753,1075.3c-4,6.6-11.2,1.3-15.9,0c-24.5-11.2-47-27.8-69.5-44.3c-4.6-4.6,0.7-10.6,6-7.9
		C3702,1036.2,3727.2,1059.4,3753,1075.3"/>
	<path d="M3724.5,1134.2c-10.6,4.6-22.5-6.6-31.8-14.6c8.6-16.6,19.9,10.6,31.8,11.2V1134.2"/>
	<g>
		<path class="st0" d="M1118.2,1053.2c-12.2,0-18.3,9.8-18.3,20.7c0,11.4,6.2,21.5,18.3,21.5c11.6,0,17.9-9,17.9-19.9
			C1136.1,1063.8,1131.3,1053.2,1118.2,1053.2z"/>
		<path class="st0" d="M1121,929.9c-64.6,0-117,52.4-117,117s52.4,117,117,117c64.6,0,117-52.4,117-117S1185.6,929.9,1121,929.9z
			 M1118.4,1119.4c-39.9,0-53.8-31.3-53.8-66.4c0-43,15.5-78.5,61.8-78.5c14.3,0,25.7,2.2,36.3,6.4l-2.2,27.5
			c-6-4-15.9-7.4-29.5-7.4c-24.9,0-32.5,16.5-32.7,41.1h0.4c6.6-9.4,16.3-14.3,30.3-14.3c25.7,0,41.9,19.1,41.9,44.2
			C1171,1097.9,1149.3,1119.4,1118.4,1119.4z"/>
	</g>
	<g>
		<polygon class="st0" points="1430.9,1065 1469.4,1065 1469.4,1005.8 1469,1005.8 		"/>
		<path class="st0" d="M1469.4,929.9c-64.6,0-117,52.4-117,117s52.4,117,117,117c64.6,0,117-52.4,117-117S1534.1,929.9,1469.4,929.9
			z M1521.8,1090.3h-19.9v26.7H1467v-26.7h-62.6v-29.7l56.2-83.7h41.3v88.1h19.9V1090.3z"/>
	</g>
	<path class="st0" d="M1817.9,929.9c-64.6,0-117,52.4-117,117s52.4,117,117,117c64.6,0,117-52.4,117-117S1882.5,929.9,1817.9,929.9z
		 M1845.1,1060.2h-54.4v-26.5h54.4V1060.2z"/>
	<g>
		<path class="st0" d="M2158.3,1057.6h-11.4v32.9h11c13.6,0,27.9-2,27.9-16.3C2185.8,1059,2171.1,1057.6,2158.3,1057.6z"/>
		<path class="st0" d="M2182.2,1017.4c0-12.8-12-14-24.5-14h-10.8v28.9h10.4C2169.5,1032.3,2182.2,1029.3,2182.2,1017.4z"/>
		<path class="st0" d="M2166.3,929.9c-64.6,0-117,52.4-117,117s52.4,117,117,117c64.6,0,117-52.4,117-117S2230.9,929.9,2166.3,929.9
			z M2168.5,1117h-59V976.9h64.4c26.1,0,45.6,11.4,45.6,35.5c0,17.7-9,27.5-24.7,32.7v0.4c18.7,3.8,28.3,13.8,28.3,30.9
			C2223.1,1110,2193.6,1117,2168.5,1117z"/>
	</g>
	<path class="st0" d="M2514.7,929.9c-64.6,0-117,52.4-117,117s52.4,117,117,117c64.6,0,117-52.4,117-117S2579.4,929.9,2514.7,929.9z
		 M2533.4,1117h-37.3V976.9h37.3V1117z"/>
	<path class="st0" d="M2863.2,929.9c-64.6,0-117,52.4-117,117s52.4,117,117,117c64.6,0,117-52.4,117-117S2927.8,929.9,2863.2,929.9z
		 M2916.4,1004.6h-34.5V1117h-37.3v-112.4H2810v-27.7h106.4V1004.6z"/>
</g>
</svg>
