<?xml version="1.0" encoding="utf-8"?>
<!-- Generator: Adobe Illustrator 26.0.3, SVG Export Plug-In . SVG Version: 6.00 Build 0)  -->
<svg version="1.1" id="Layer_1" xmlns="http://www.w3.org/2000/svg" xmlns:xlink="http://www.w3.org/1999/xlink" x="0px" y="0px"
	 viewBox="0 0 3839 1089.9" style="enable-background:new 0 0 3839 1089.9;" xml:space="preserve">
<style type="text/css">
	.st0{fill-rule:evenodd;clip-rule:evenodd;fill:#034EA2;}
	.st1{fill:#FFFFFF;}
	.st2{fill:#231F20;}
	.st3{fill:#034EA2;}
	.st4{fill:#FFCB04;}
	.st5{fill:url(#SVGID_1_);}
	.st6{fill-rule:evenodd;clip-rule:evenodd;fill:url(#rect4789_00000093166749051999206860000011699358724661166762_);}
	.st7{fill:url(#SVGID_00000142159795997419000350000002368346518063071143_);}
	.st8{fill:url(#SVGID_00000105389463431930034360000000712819584809744525_);}
	.st9{fill:url(#SVGID_00000138563688270867178130000014516036179089874850_);}
	.st10{fill:url(#SVGID_00000114042485966836945780000014527707045766223028_);}
	.st11{fill:url(#SVGID_00000051343477831975429950000017805825381561941183_);}
	.st12{fill:url(#SVGID_00000038376907983223612590000004189409192620722851_);}
	.st13{fill:url(#SVGID_00000152229661376007954640000007848930789350875839_);}
	.st14{fill:url(#SVGID_00000047032001934550796960000004054740607614844597_);}
	.st15{fill:url(#SVGID_00000001642263060278099330000016881181104431239358_);}
	.st16{fill:url(#SVGID_00000033330521951118418710000012802834746905115266_);}
	.st17{fill:url(#SVGID_00000142867153636175881300000014814283631977049475_);}
	.st18{fill:url(#SVGID_00000163033765587833985920000004075967334292527756_);}
	.st19{fill:url(#SVGID_00000118381544665932364270000014985236499969819787_);}
	.st20{display:none;}
	.st21{display:inline;fill:#FF0642;}
	.st22{display:inline;fill:#FFFFFF;stroke:#000000;stroke-width:0.5156;stroke-miterlimit:10;}
	.st23{display:inline;fill:#FFCB04;}
	.st24{fill-rule:evenodd;clip-rule:evenodd;fill:url(#rect4789_00000021086491394663084730000000087783982694077099_);}
	.st25{fill:url(#SVGID_00000165924618453656730040000012403874444761810816_);}
	.st26{fill:url(#SVGID_00000039136062479816453070000014814329044467521161_);}
	.st27{fill:url(#SVGID_00000139260107340741621330000011773874109937581499_);}
	.st28{fill:url(#SVGID_00000052102298596619632400000013132177270428102289_);}
	.st29{fill:url(#SVGID_00000127046188573717218450000006663752486688492982_);}
	.st30{fill:url(#SVGID_00000005268639227762773510000011941485214645403048_);}
	.st31{fill:url(#SVGID_00000128470091633670494850000015344015187082628261_);}
	.st32{fill:url(#SVGID_00000021819350135620947350000017284828730396810921_);}
	.st33{fill:url(#SVGID_00000151517803769938109220000011070449146445676939_);}
	.st34{fill:url(#SVGID_00000072263953485176039820000017240817479575339450_);}
	.st35{fill:url(#SVGID_00000067948043472242322900000007038089455858924973_);}
	.st36{fill:url(#SVGID_00000100375992008121579470000005860334133821238701_);}
	.st37{fill:url(#SVGID_00000106861418782322134080000018205851215945209518_);}
	.st38{fill:url(#SVGID_00000063623647071003530920000010195604557820781223_);}
	.st39{fill-rule:evenodd;clip-rule:evenodd;fill:url(#rect4789_00000176034616480646202020000001082072173055259031_);}
	.st40{fill:url(#SVGID_00000155868781100703788710000015338281092999316125_);}
	.st41{fill:url(#SVGID_00000023993002851999423760000005605654714479533224_);}
	.st42{fill:url(#SVGID_00000003797051078321851650000006650127308066104243_);}
	.st43{fill:url(#SVGID_00000047745740436156019120000014421305816979508362_);}
	.st44{fill:url(#SVGID_00000029015746837845001890000014684603198749567140_);}
	.st45{fill:url(#SVGID_00000092440760902991153570000008899365821255455919_);}
	.st46{fill:url(#SVGID_00000109028007365259354090000003441238027237030029_);}
	.st47{fill:url(#SVGID_00000160175445147695199160000008703184245822653116_);}
	.st48{fill:url(#SVGID_00000004545858658266282580000014404653348500163239_);}
	.st49{fill:url(#SVGID_00000013905640457170911930000007494406296641028005_);}
	.st50{fill:url(#SVGID_00000049912383507707861130000009551618036722219179_);}
	.st51{fill:url(#SVGID_00000045583475957979595590000016321409273280119982_);}
	.st52{fill:url(#SVGID_00000165220622079163987760000018365743675883885458_);}
	.st53{fill-rule:evenodd;clip-rule:evenodd;fill:url(#rect4789_00000022529014158410778100000016482244636922899862_);}
	.st54{fill:url(#SVGID_00000121987730192961478990000017324599846094280895_);}
	.st55{fill:url(#SVGID_00000109016004035608491430000014961593416582317209_);}
	.st56{fill:url(#SVGID_00000081625159195140578170000018204196720881130430_);}
	.st57{fill:url(#SVGID_00000116953373158274715370000005820178211717172624_);}
	.st58{fill:url(#SVGID_00000065754781849933572850000008068830734718041001_);}
	.st59{fill:url(#SVGID_00000142891522226432882250000003355077146360013989_);}
	.st60{fill:url(#SVGID_00000049190771629895311930000009029518569775581316_);}
	.st61{fill:url(#SVGID_00000175287359896260656420000017479733184050571923_);}
	.st62{fill:url(#SVGID_00000051364276238743781170000001397373200242087075_);}
	.st63{fill:url(#SVGID_00000057861855617728747960000014452719474444308636_);}
	.st64{fill:url(#SVGID_00000071550660931810629820000006926721326725018292_);}
	.st65{fill:url(#SVGID_00000129902444682757146180000001614696319959679891_);}
	.st66{fill:url(#SVGID_00000128444662675297008190000016716378131387401661_);}
	.st67{fill:url(#SVGID_00000155114161114240144790000007754119833254967717_);}
	.st68{fill-rule:evenodd;clip-rule:evenodd;fill:url(#rect4789_00000072252669306531284310000016439659371512238777_);}
	.st69{fill:url(#SVGID_00000051342065883928884970000014803203907828171153_);}
	.st70{fill:url(#SVGID_00000134231727193892879970000015053345467145208467_);}
	.st71{fill:url(#SVGID_00000011030115852083672040000000596334512435376266_);}
	.st72{fill:url(#SVGID_00000011001752731003049420000008298951439121917327_);}
	.st73{fill:url(#SVGID_00000062893836152563330370000016491098888650401926_);}
	.st74{fill:url(#SVGID_00000047773916384873544590000004987902358833677995_);}
	.st75{fill:url(#SVGID_00000096030032953023535120000013193656270952637845_);}
	.st76{fill:url(#SVGID_00000039822816341683867460000012604998539996297648_);}
	.st77{fill:url(#SVGID_00000050640736815428004240000007523087901150132364_);}
	.st78{fill:url(#SVGID_00000019674604064118586620000000456365356953309877_);}
	.st79{fill:url(#SVGID_00000150807795754996329370000013631668938553079726_);}
	.st80{fill:url(#SVGID_00000141439848141735454170000014134982636089346448_);}
	.st81{fill:url(#SVGID_00000034067828567654774040000017739591921766432417_);}
	.st82{fill:url(#SVGID_00000055696609723185185640000005913840800266300042_);}
	.st83{fill-rule:evenodd;clip-rule:evenodd;fill:url(#rect4789_00000013186400062413502940000015578664035581063354_);}
	.st84{fill:url(#SVGID_00000158013422321677301290000000768899398054230167_);}
	.st85{fill:url(#SVGID_00000004542665045139760090000009217838860335838864_);}
	.st86{fill:url(#SVGID_00000160879940735062834980000006417394501485239722_);}
	.st87{fill:url(#SVGID_00000168079587532389078600000013121492564279726015_);}
	.st88{fill:url(#SVGID_00000096768629276408861000000017587407203253404563_);}
	.st89{fill:url(#SVGID_00000110447375216257734220000013996547264204352679_);}
	.st90{fill:url(#SVGID_00000041284554212972671620000009572372163591669177_);}
	.st91{fill:url(#SVGID_00000038379515331904824660000010333703508366987963_);}
	.st92{fill:url(#SVGID_00000168796167237706072780000000840988882097760418_);}
	.st93{fill:url(#SVGID_00000067956939221675540790000013280452464629554069_);}
	.st94{fill:url(#SVGID_00000124135047006287585320000010358465617252491139_);}
	.st95{fill:url(#SVGID_00000059275219320644865390000007551246219961367736_);}
	.st96{fill:url(#SVGID_00000046337231525492878750000000329862710571837831_);}
	.st97{fill:url(#SVGID_00000162350530471293170800000015287473260329894808_);}
	.st98{fill:url(#SVGID_00000183946358785346437200000004388120440815458204_);}
	.st99{fill:url(#SVGID_00000156575265849751387460000011696824116667370138_);}
	.st100{fill:url(#SVGID_00000117639375486800854780000009245484395122702765_);}
	.st101{fill-rule:evenodd;clip-rule:evenodd;fill:url(#rect4789_00000075162725149416434610000011820574692839341999_);}
	.st102{fill:url(#SVGID_00000144322992927685212640000001334908416520302481_);}
	.st103{fill:url(#SVGID_00000018919451626459741490000016522730797816674466_);}
	.st104{fill:url(#SVGID_00000000203503998657970410000009093520696370320795_);}
	.st105{fill:url(#SVGID_00000158747048642929250420000015247113191553099151_);}
	.st106{fill:url(#SVGID_00000132808575894891402810000002994124502445872318_);}
	.st107{fill:url(#SVGID_00000028314335679012936770000018005650219088717489_);}
	.st108{fill:url(#SVGID_00000053542227909058346110000014169689985516920998_);}
	.st109{fill:url(#SVGID_00000103234322245830189760000012211534818661335224_);}
	.st110{fill:url(#SVGID_00000159433643769156938480000005387043936696367017_);}
	.st111{fill:url(#SVGID_00000059280506716011526370000005174200166267707320_);}
	.st112{fill:url(#SVGID_00000068667625741020078420000007524591912716878236_);}
	.st113{fill:url(#SVGID_00000064350074449197472360000009321314386808693661_);}
	.st114{fill:url(#SVGID_00000018201605527932317450000004709322214016926854_);}
	.st115{fill:url(#SVGID_00000075842472572468629430000004575798218684091321_);}
	.st116{fill-rule:evenodd;clip-rule:evenodd;fill:url(#rect4789_00000154390469664121336170000003901390371716062604_);}
	.st117{fill:url(#SVGID_00000147204272714841929280000003275234821956655531_);}
	.st118{fill:url(#SVGID_00000080895270628461648480000007621703797605870493_);}
	.st119{fill:url(#SVGID_00000101793924044916653740000015912381263986552233_);}
	.st120{fill:url(#SVGID_00000104702460596453849400000001726527404761693356_);}
	.st121{fill:url(#SVGID_00000114060343469828408900000004380448170147403188_);}
	.st122{fill:url(#SVGID_00000081620648136296200420000002373565725302391997_);}
	.st123{fill:url(#SVGID_00000111892920403518171650000014224376239250322067_);}
	.st124{fill:url(#SVGID_00000130630625857471878310000000278529005761428888_);}
	.st125{fill:url(#SVGID_00000062150563337756717350000017787344171365755025_);}
	.st126{fill:url(#SVGID_00000008854749200036676330000005956462160170059709_);}
	.st127{fill:url(#SVGID_00000018938462973848022110000017979221858507632824_);}
	.st128{fill:url(#SVGID_00000183217071727803087490000002977711434083195813_);}
	.st129{fill:url(#SVGID_00000006668642788492336160000017379068887620265368_);}
</style>
<g>
	<g>
		<path id="rect4789_00000105396785543101874810000004793803044034336698_" class="st0" d="M464,781.1h2910.9
			c85.3,0,154.4,69.1,154.4,154.4l0,0c0,85.3-69.1,154.4-154.4,154.4H464c-85.3,0-154.4-69.1-154.4-154.4l0,0
			C309.6,850.2,378.7,781.1,464,781.1z"/>
		<g>
			<path class="st1" d="M3068.9,880.5c0.9-1.7,2.5-3.1,5.1-4.2c1.6-0.7,3.9-1.3,7-2c3.1-0.7,5.8-1.2,8-1.4v-7.7h-39h-39h-39h-39v7.7
				c2.2,0.3,4.9,0.7,8,1.4s5.4,1.4,7,2c2.5,1.1,4.2,2.4,5.1,4.2c0.9,1.7,1.3,3.7,1.3,5.9v99.7c0,2.5-0.4,4.6-1.3,6.2
				c-0.9,1.6-2.6,2.9-5,3.9c-1.3,0.5-3.7,0.9-7.2,1.2s-6.1,0.5-7.9,0.6v7.7h39h39h39h39V998c-1.8-0.1-4.4-0.3-7.9-0.6
				s-5.9-0.7-7.2-1.2c-2.4-1-4.1-2.3-5-3.9c-0.9-1.6-1.3-3.7-1.3-6.2v-99.7C3067.7,884.2,3068.1,882.3,3068.9,880.5z M3032.5,986.2
				c0,2.5-0.4,4.6-1.3,6.2c-0.9,1.6-2.6,2.9-5,3.9c-1.3,0.5-3.7,0.9-7.2,1.2h-0.1c-5.2,0.4-10.4,0.4-15.5,0h-0.1
				c-3.5-0.3-5.9-0.7-7.2-1.2c-2.4-1-4.1-2.3-5-3.9s-1.3-3.7-1.3-6.2v-99.7c0-2.2,0.4-4.2,1.3-5.9c0.9-1.7,2.5-3.1,5.1-4.2
				c1.6-0.7,3.9-1.3,7-2h0.1c5.2-1.2,10.6-1.2,15.9,0h0.1c3.1,0.7,5.4,1.4,7,2c2.5,1.1,4.2,2.4,5.1,4.2c0.9,1.7,1.3,3.7,1.3,5.9
				v99.7H3032.5z"/>
			<g>
				<path class="st1" d="M749.9,865.2h60.3c35.5,0,58.4,18.3,58.4,49.4v0.4c0,33.1-25.5,50.6-60.5,50.6h-19.3v40.2h-39L749.9,865.2
					L749.9,865.2z M807.3,935.1c13.9,0,22.3-7.2,22.3-18.3v-0.4c0-12-8.4-18.5-22.5-18.5h-18.3v37.2H807.3z"/>
				<path class="st1" d="M945.3,865.2h39v106.4h68.1v34.1h-107L945.3,865.2L945.3,865.2z"/>
				<path class="st1" d="M1177.9,864.2h37.6l59.9,141.6h-41.8l-10.2-25.1h-54.2l-10,25.1h-41L1177.9,864.2z M1212,950.3l-15.7-40
					l-15.9,40H1212z"/>
				<path class="st1" d="M1367.6,953.2l-53.4-88h44.4l28.9,51.2l29.1-51.2h43.6l-53.4,87.4v53.2h-39.2V953.2z"/>
				<path class="st1" d="M1637.8,984.9l21.7-25.9c13.9,11,29.3,16.9,45.6,16.9c10.4,0,16.1-3.6,16.1-9.6v-0.4c0-5.8-4.6-9-23.7-13.5
					c-29.9-6.8-53-15.3-53-44.2v-0.4c0-26.1,20.7-45,54.4-45c23.9,0,42.6,6.4,57.8,18.7l-19.5,27.5c-12.9-9-26.9-13.9-39.4-13.9
					c-9.4,0-14.1,4-14.1,9v0.4c0,6.4,4.8,9.2,24.3,13.7c32.3,7,52.4,17.5,52.4,43.8v0.4c0,28.7-22.7,45.8-56.8,45.8
					C1678.7,1008.2,1655.1,1000.4,1637.8,984.9z"/>
				<path class="st1" d="M1874.1,953.2l-53.4-88h44.4l28.9,51.2l29.1-51.2h43.6l-53.4,87.4v53.2h-39.2V953.2z"/>
				<path class="st1" d="M2021.4,984.9l21.7-25.9c13.9,11,29.3,16.9,45.6,16.9c10.4,0,16.1-3.6,16.1-9.6v-0.4c0-5.8-4.6-9-23.7-13.5
					c-29.9-6.8-53-15.3-53-44.2v-0.4c0-26.1,20.7-45,54.4-45c23.9,0,42.6,6.4,57.8,18.7l-19.5,27.5c-12.9-9-26.9-13.9-39.4-13.9
					c-9.4,0-14.1,4-14.1,9v0.4c0,6.4,4.8,9.2,24.3,13.7c32.3,7,52.4,17.5,52.4,43.8v0.4c0,28.7-22.7,45.8-56.8,45.8
					C2062.4,1008.2,2038.7,1000.4,2021.4,984.9z"/>
				<path class="st1" d="M2253.5,899.3h-42.2v-34.1h123.3v34.1h-42.2v106.4h-39L2253.5,899.3L2253.5,899.3z"/>
				<path class="st1" d="M2412,865.2h113.1v33.1h-74.6v21.3h67.5v30.7h-67.5v22.3h75.5v33.1h-114.1V865.2H2412z"/>
				<path class="st1" d="M2606.2,865.2h41.2l33.5,54.4l33.5-54.4h41.2v140.6h-38.8V925l-36,55h-0.8l-35.7-54.6v80.3h-38.2V865.2
					H2606.2z"/>
			</g>
		</g>
	</g>
	<g>
		<path class="st2" d="M1511.9,187.1v236.3c0,0,159.1-66.3,159.1-159.8C1671.1,148,1511.9,187.1,1511.9,187.1"/>
		<path class="st2" d="M2742.6,175.2c-69.4,0-162.5,40.8-162.5,204s82.9,204,162.5,204c79.5,0,164.2-51,164.2-204
			C2906.8,226.2,2812,175.2,2742.6,175.2"/>
		<polyline class="st2" points="899.1,380.9 1010.8,380.9 953.3,219.4 899.1,380.9 		"/>
		<path class="st2" d="M585.9,656.3H409.9c-209.9,0-326.7-164.9-326.7-283.9c0-182.4,158-283.7,301.3-283.7
			c138.8,0,222.6,106.5,222.6,106.5L511.4,296c0,0-5.1,2.6-9.3,2.6c-4.3,0-10.2-4.3-10.2-4.3l-11.9-10.2c0,0-3.4-0.8-3.4-4.3
			c0-3.4,9.3-11.9,9.3-28c0-16.1-3.4-83.3-106.6-83.3s-149,96.9-149,176.8c0,79.9,49.1,226.1,209.9,226.1
			c93.6,0,113.4-52.7,113.4-52.7h32.2V656.3z M1274.9,658h-212.4v-40.8c0,0,13.5,1.7,20.3-10.2c6.8-11.9,6.8-21.3,1.7-33.2
			c-5.1-11.9-40.6-106.3-40.6-106.3H870.3c0,0-35.6,95.2-38.9,103.7c-3.4,8.5-3.4,22.1,0,30.6c5.6,14.1,25.4,16.2,25.4,16.2V658
			H686.7v-39.9c0,0,15.4-5.3,27-17c12.7-12.7,16.9-26.3,16.9-26.3l172.7-470.8h144.8l176,462.3c5.1,12.8,13.6,24.7,22.1,34.9
			c8.4,10.2,28.7,17,28.7,17V658z M1677.8,440.5c-72.3,33.4-167.5,59.5-167.5,59.5v88.4c0,0,0.8,6,9.3,16.2
			c8.5,10.2,17.8,12.7,17.8,12.7V658h-196.4v-39.9c0,0,11.9-2.6,20.3-11c8.5-8.5,10.2-18.7,10.2-18.7V188.9c0,0,0.8-17-6-23.8
			c-6.8-6.8-22.8-16.1-22.8-16.1v-45.1c0,0,170.9,0,270.8,0c99.9,0,199.8,35.7,199.8,151.3S1740.4,411.6,1677.8,440.5z
			 M2172.1,169.4c-103.2,0-149,96.9-149,176.8c0,79.9,49.1,226.1,209.9,226.1c93.6,0,113.4-52.7,113.4-52.7h32.2v137.7h-176.1
			c-209.9,0-326.7-164.9-326.7-283.8c0-182.5,158-283.7,301.3-283.7c138.8,0,222.6,106.5,222.6,106.5l-95.6,100.7
			c0,0-5.1,2.5-9.3,2.5c-4.2,0-10.2-4.2-10.2-4.2l-11.9-10.2c0,0-3.4-0.9-3.4-4.3c0-3.4,9.3-11.9,9.3-28
			C2278.8,236.6,2275.4,169.4,2172.1,169.4z M2742.6,673.9c-182.8,0-314.3-134.1-314.3-297.2s134.8-289.6,314.3-289.6
			c179.4,0,314.2,126.5,314.2,289.6S2925.4,673.9,2742.6,673.9z M3759.1,658.3h-202.3v-36.8c0,0,17.8-2.6,23.7-11
			c6-8.5,8.5-13.6,6.8-27.2c-1.7-13.6-49.9-323-49.9-323l-88.1,273.6h-106.6l-87.2-256.6l-44,302.5c0,0-1.7,18.2,5.1,28.1
			c9.3,13.6,26.2,13.6,26.2,13.6V658h-175.2v-39.1c0,0,14-2.1,24.1-14c10.2-11.9,11.9-27.2,11.9-27.2l63.9-399.1
			c0,0,3.8-14.9-0.4-21.7c-4.5-7.2-28.4-13.2-28.4-13.2v-39.6h201.5L3413,330l77.8-226.1h210.8v33.2c0,0-14.1,5.9-20.3,13.6
			c-7.6,9.3-7.6,16.1-6,29.7c1.7,13.6,55.9,382.4,57.6,396.1c1.7,13.6,3.4,21.3,6.8,30.6c3.4,9.3,19.5,16.9,19.5,16.9V658.3z"/>
		<path class="st1" d="M1511.9,187.1v236.3c0,0,159.1-66.3,159.1-159.8C1671.1,148,1511.9,187.1,1511.9,187.1"/>
		<path class="st1" d="M2742.6,175.2c-69.4,0-162.5,40.8-162.5,204s82.9,204,162.5,204c79.5,0,164.2-51,164.2-204
			C2906.8,226.2,2812,175.2,2742.6,175.2"/>
		<polyline class="st1" points="899.1,380.9 1010.8,380.9 953.3,219.4 899.1,380.9 		"/>
		<path class="st1" d="M2745.1,761.1c-132.8,0-234.3-66-285.8-108.4v91.4h-238.2c-200.4,0-360.4-110.2-416.5-283.5
			c-41.8,30.4-116.9,73.9-201.2,96.1c2.3,0.6,4.6,1.2,6.8,1.5l17.8,3.1l0.1,182.7H418.3C183.8,744.1,0,583.8,0,379.3
			C0,161,163.1,2.5,387.8,2.5c228.9,0,320,172.6,323.8,180l6.9,13.5L516.1,410.8l-155.3-107l19-18.2c5.7-6.3,9-11.7,10.5-16.3
			c3.5-10-6.1-19.6-16.1-16.1c-3.1,1.1-6.7,2.6-10.5,4.5c-22.5,11.7-48.2,42.3-46.4,90.1c3.7,95.6,62,139.1,114.6,139.1
			c46.4,0,59.6-33.7,60.9-37.5l5-14.4l15.3-0.2h165.7v24l166.5-441h261.5l177.3,459.7c0.2-94.3,0.6-242.7,0.6-248.7
			c0-2.3-0.1-4.2-0.3-5.7c-0.4-3.6-2.4-6.8-5.4-8.8c-3.6-2.4-7.9-4.1-10.1-4.8l-15.4-4.5l-0.2-16.1V17.8h346.5
			c153.9,0,212.4,36.6,263.3,117.9c76-89.5,173.5-134.9,290.2-134.9c126.9,0,226.4,42,289.7,121.7C2518.7,45.4,2633.2,0,2755.3,0
			c118.2,0,223.9,46.5,294.2,127.1V17.8h349.3l15.4,39.2l11.5-39.2h360.9l0,181.1l-12.1,5.9c-17.2,8.3-18.3,11.8-16.1,25.8
			l45.2,288.9c1.3,6.5,3.3,11,6.4,13.7c1.4,1.2,4.3,1.5,5.5,1.4l23-1.6l0.7,23v188.1h-367.9V618.3h-143.3v126.1h-348.5v-60.5
			C2933.4,714.8,2847.6,761.1,2745.1,761.1z M2416.5,548.2l37.3,41c1.2,1.3,119.3,128.9,291.3,128.9c133.7,0,240.4-92.3,241.4-93.2
			l35.6-31.3l0,107.9h262.7V575.3H3514v125.8h282.1v-127c-4.9-1.9-10.1-4.7-14.9-9c-13.5-12.1-17.9-27.6-20-38.2l-45.3-289.8
			c-5.5-35,9.2-52.9,27.7-64.5l0-112h-285.8l-37.7,129l-50.6-129h-277.1v213.8l-40.1-69.8c-58.1-101.3-169.2-161.7-297.1-161.7
			c-119.8,0-231.1,47.6-297.5,127.4l-18.5,22.2l-15.9-24.2c-53.5-81.5-146.9-124.6-269.9-124.6c-114.4,0-204.6,46.7-275.6,142.6
			l-19.9,26.8l-16.2-29.2c-42.3-76.4-76.6-123.3-241.9-123.3h-303.6v113.9c6.4,3.4,13.5,8.3,19.3,15.1c8,9.2,11.9,22,11.9,39
			c0,8.8-0.8,325.6-0.8,325.6l-0.1,34.7l-31-15.6c-18.2-9.2-32.5-34-36.4-41.4l-1.1-2.3l-180.9-469H875L677.5,584l-41.5-7.6v-98.7
			H526.6c-11.4,19.8-38.6,52.1-94.7,52.1c-72.5,0-152.7-56.4-157.5-180.4c-2.6-67.9,35.9-112.4,69.6-129.8
			c25.2-13,50.2-13.1,67.1-0.2c18.2,13.9,22.7,30.1,23.3,41.2c0.8,13.5-3.8,25.8-9.2,35.4l85,58.5l155.8-165.2
			c-24.4-37.6-108.2-143.9-278-143.9c-203.1,0-344.9,137.3-344.9,333.8c0,180.5,164.9,321.9,375.4,321.9h1166.9v-105
			c-20.6-7-38.1-20.3-38.1-40.9c0-13.4,5.3-30.6,30.3-36.2c108.2-24.4,202.3-89.9,224.3-111l27-25.9l8.7,36.4
			c41.8,174.4,188.8,282.7,383.8,282.7h195.3V548.2z"/>
		<path class="st3" d="M692.6,192.3L513.1,382.7L394.6,301c0,0,38.9-37.4,3.4-64.6c-27.8-21.2-105.5,23.8-102.2,112.2
			c3.9,101.9,66.7,159.7,136.1,159.7c64.3,0,81.2-52.1,81.2-52.1h144.3v120.1L860.2,39.3h231.9L1278.3,522c0,0,13.5,25.5,27.1,32.3
			c0,0,0.8-316.7,0.8-325.6c0-8.9-1.2-18.7-6.7-25c-9.1-10.5-24.5-14.9-24.5-14.9V39.3c0,0,214.9,0,325,0
			c168.5,0,211.8,45.9,260.7,134.3c67.5-91.2,160.4-151.3,292.9-151.3c136.4,0,232.8,50.4,287.8,134.3
			c76.9-92.3,200.8-135.1,314-135.1c139.2,0,255.6,67.7,315.7,172.5V39.3h313.2l33,84.1l24.6-84.1h323.3l0,146.2
			c-22.9,11.1-32.1,22.3-28,48.5l45.2,288.9c1.9,9.4,5.2,19.2,13.2,26.4c9.4,8.4,22,6.8,22,6.8v166.6h-325V596.8h-186.2v126.1
			h-305.6V641c0,0-111.7,98.6-255.6,98.6c-184.2,0-307.2-136-307.2-136v119c0,0-13.5,0-216.7,0c-192.8,0-358.4-106-404.6-299.1
			c-21.9,21-118.5,90.3-234.5,116.4c-9,2-13.5,5.5-13.5,15.3c0,17.9,38.1,24.3,38.1,24.3v143.2c0,0-1002.1,0-1188.4,0
			c-220.1,0-396.9-151.3-396.9-343.3S159.3,24,387.8,24C606.2,24,692.6,192.3,692.6,192.3"/>
		<path class="st4" d="M903.3,103.8h144.8l176.1,462.4c5.1,12.7,13.5,24.6,22,34.9c8.4,10.2,28.8,17,28.8,17V658h-212.5v-40.8
			c0,0,13.5,1.7,20.3-10.2c6.8-11.9,6.8-21.3,1.7-33.2c-5.1-11.9-40.6-106.3-40.6-106.3H870.3c0,0-35.6,95.2-39,103.7
			c-3.4,8.5-3.4,22.1,0,30.6C837,616,856.8,618,856.8,618V658H686.7V618c0,0,15.5-5.3,27-17c12.7-12.8,17-26.4,17-26.4L903.3,103.8
			 M899.1,380.9h111.7l-57.5-161.5L899.1,380.9z"/>
		<path class="st4" d="M1342.6,103.8c0,0,171,0,270.8,0c99.9,0,199.8,35.7,199.8,151.3s-72.8,156.3-135.4,185.2
			c-72.3,33.4-167.6,59.5-167.6,59.5v88.3c0,0,0.8,6,9.3,16.2c8.4,10.2,17.8,12.7,17.8,12.7V658h-196.4V618c0,0,11.9-2.6,20.3-11
			c8.5-8.5,10.2-18.7,10.2-18.7V188.8c0,0,0.8-17-6-23.8c-6.8-6.8-22.8-16.1-22.8-16.1V103.8 M1511.9,187.1v236.3
			c0,0,159.1-66.3,159.1-159.8C1671.1,148,1511.9,187.1,1511.9,187.1z"/>
		<path class="st4" d="M2742.6,673.9c-182.8,0-314.3-134.1-314.3-297.2S2563.2,87,2742.6,87c179.5,0,314.3,126.5,314.3,289.7
			S2925.5,673.9,2742.6,673.9 M2580.1,379.3c0,163.2,82.9,204,162.5,204c79.5,0,164.2-51,164.2-204c0-153-94.8-204-164.2-204
			C2673.2,175.3,2580.1,216.1,2580.1,379.3z"/>
		<path class="st4" d="M3138.7,104.2h201.5l72.8,225.7l77.8-226.1h210.8V137c0,0-14,5.9-20.3,13.6c-7.6,9.3-7.6,16.2-5.9,29.8
			c1.7,13.6,55.8,382.4,57.5,396c1.7,13.7,3.4,21.3,6.8,30.6c3.3,9.3,19.4,17,19.4,17v34.3h-202.3v-36.8c0,0,17.8-2.6,23.7-11.1
			c6-8.5,8.5-13.6,6.8-27.2c-1.7-13.6-49.9-323-49.9-323l-88,273.7h-106.6l-87.2-256.7l-44,302.6c0,0-1.7,18.1,5.1,28
			c9.3,13.7,26.2,13.7,26.2,13.7V658h-175.2v-39.1c0,0,13.9-2.2,24.1-14c10.2-11.9,11.9-27.2,11.9-27.2l63.9-399
			c0,0,3.8-14.9-0.4-21.7c-4.4-7.2-28.4-13.2-28.4-13.2V104.2"/>
		<path class="st4" d="M607.1,195.2l-94.5,99.5c-5,5.2-13.1,5.7-18.7,1.2l-16.1-13.2c-0.7-0.6-1.1-1.6-1.1-2.9
			c0-3.4,9.3-11.9,9.3-28c0-16.2-3.3-83.3-106.6-83.3c-103.2,0-149,96.9-149,176.8c0,79.9,49.1,226.1,209.9,226.1
			c93.6,0,113.4-52.7,113.4-52.7h32.2v137.7H409.9C200,656.3,83.1,491.4,83.1,372.4c0-182.5,158-283.7,301.3-283.7
			C523.3,88.8,607.1,195.2,607.1,195.2"/>
		<path class="st4" d="M2399.8,196.2l-94.5,99.5c-5,5.2-13.1,5.7-18.7,1.2l-16.1-13.2c-0.7-0.6-1.1-1.6-1.1-2.9
			c0-3.4,9.3-11.9,9.3-28c0-16.2-3.3-83.3-106.6-83.3c-103.2,0-149,96.9-149,176.8c0,79.9,49.1,226.1,209.9,226.1
			c93.6,0,113.4-52.7,113.4-52.7h32.2v137.7h-176.1c-209.9,0-326.7-164.9-326.7-283.8c0-182.5,158-283.7,301.3-283.7
			C2316,89.7,2399.8,196.2,2399.8,196.2"/>
	</g>
</g>
</svg>
