<svg enable-background="new 0 0 3839 1080.5" version="1.1" viewBox="0 0 3839 1080.5" xml:space="preserve" xmlns="http://www.w3.org/2000/svg">
<path d="m2764.8008 0c-114.4999 0-239.8001 43.299703-317.5 136.59961-55.8-84.799916-153.3013-135.7988288-291.2012-135.7988288-133.9999 0-227.8993 60.80009175-296.1992 152.9999988-49.4-89.299909-93.1998-135.80078-263.5996-135.80078h-328.7012v151.30078s15.6008 4.40001 24.8008 15c5.6 6.39999 6.7988 16.29884 6.7988 25.29883 0 8.89999-0.7988 329.30078-0.7988 329.30078-13.7-6.89999-27.4004-32.70117-27.4004-32.70117l-188.3008-488.19922h-234.49998l-205.09961 543.19922v-121.39844h-145.90039s-17.09968 52.69922-82.09961 52.69922c-70.19993 0-133.59961-58.4001-137.59961-161.5-3.4-89.39991 75.30042-134.89998 103.40039-113.5 35.99996 27.49997-3.40039 65.30078-3.40039 65.30078l119.80078 82.5 181.5-192.5s-87.30139-170.2011706-308.20117-170.2011706c-231.19977-0.0999999-370.59961 165.0009706-370.59961 359.3007806 0 194.19981 178.80061 347.19922 401.40039 347.19922h1201.79881v-144.79883s-38.5996-6.50002-38.5996-24.5c0-9.89999 4.6012-13.4 13.7012-15.5 117.1999-26.39997 214.9996-96.50119 237.0996-117.70117 46.7999 195.2998 214.1994 302.5 409.1992 302.5h219.2012v-120.29883s124.4994 137.5 310.6992 137.5c145.5999 0 258.5-99.70117 258.5-99.70117v82.90039h309v-127.69922h188.3008v127.19922h328.6992v-168.40039s-12.8008 1.5996-22.3008-6.90039c-8.1-7.29999-11.4984-17.19923-13.3984-26.69922l-45.7012-292.19922c-4.1-26.39997 5.2008-37.80001 28.3008-49v-147.80078h-327l-24.9004 85.09961-33.3008-85.09961h-316.6992v156.5c-60.7999-106.099894-178.3994-174.5-319.1992-174.5zm-12.9004 66.300781c181.4998 0 317.7988 127.900169 317.7988 292.999999 0.1 164.99984-132.899 300.59961-317.7988 300.59961s-317.8008-135.59977-317.8008-300.59961c0-164.99983 136.301-292.999999 317.8008-292.999999zm-2384.80079 1.798828c140.39986 0 225.09961 107.701171 225.09961 107.701171l-95.5 100.59961c-5 5.3-13.29844 5.79921-18.89844 1.19922l-16.20117-13.29883c-0.7-0.6-1.09961-1.60039-1.09961-2.90039 0-3.4 9.40039-12.0008 9.40039-28.30078 0-16.39998-3.40089-84.19922-107.80078-84.19922-104.3999 0-150.69922 97.99891-150.69922 178.79883s49.69899 228.70117 212.29883 228.70117c94.5999 0 114.70117-53.30078 114.70117-53.30078h32.5v138.90039h-0.09961-178c-212.29979 0-330.400389-166.70012-330.400389-287 0-184.49982 159.799359-286.900391 304.699219-286.900391zm1812.90039 0.900391c140.3999 0 225.0996 107.69922 225.0996 107.69922l-95.5 100.60156c-5 5.3-13.3004 5.79922-18.9004 1.19922l-16.1992-13.30078c-0.7-0.6-1.0996-1.59844-1.0996-2.89844 0-3.4 9.4004-12.0008 9.4004-28.30078 0-16.39998-3.3009-84.30078-107.8008-84.30078-104.3999 0-150.6992 98.00086-150.6992 178.80078s49.699 228.69922 212.2988 228.69922c94.5999 0 114.7012-53.29883 114.7012-53.29883h32.5v139.09961h-178.1016c-212.2998 0-330.3984-166.69973-330.3984-287.09961 0-184.49981 159.7993-286.90039 304.6992-286.90039zm-1288.19922 14.300781h146.39842l178.1016 467.599609c5.1 12.89999 13.6988 24.89923 22.2988 35.19922 8.5 10.29999 29.0996 17.20117 29.0996 17.20117v40.39844h-214.8984v-41.29883s13.6996 1.79921 20.5996-10.30078c6.9-11.99999 6.8992-21.50001 1.6992-33.5-5.1-11.99999-41.0996-107.5-41.0996-107.5h-175.5s-36.00039 96.3004-39.40039 104.90039-3.4 22.4004 0 30.90039c5.69999 14.29999 25.70117 16.40039 25.70117 16.40039v40.39844h-172v-40.39844s15.59884-5.40118 27.29883-17.20117c12.89999-12.89999 17.20117-26.69922 17.20117-26.69922l174.5-476.099609zm444.39842 0h273.9004c100.9999 0 202 36.100119 202 152.999999s-73.6001 158.19847-137 187.39844c-73.0999 33.79996-169.5 60.20117-169.5 60.20117v89.29883s0.8004 6.0004 9.4004 16.40039c8.5 10.29999 18 12.90039 18 12.90039v41.30078h-198.5996v-40.40039s11.9996-2.60118 20.5996-11.20117 10.3008-18.89844 10.3008-18.89844v-404s0.8-17.20157-6-24.10156c-6.9-6.89999-23.1016-16.29883-23.1016-16.29883v-45.599609zm2172.2012 0h213.0996v33.499999s-14.1996 5.99884-20.5996 13.79883c-7.7 9.39999-7.7 16.39962-6 30.09961 1.7 13.79998 56.4992 386.80001 58.1992 400.5 1.7 13.79998 3.5004 21.50001 6.9004 31 3.4 9.39999 19.6992 17.20117 19.6992 17.20117v34.59961h-204.2988v-37.19922s18.0004-2.60118 23.9004-11.20117c6-8.59999 8.5988-13.80001 6.7988-27.5-1.7-13.79999-50.5-326.59961-50.5-326.59961l-89 276.80078h-107.7988l-88.2012-259.60156-44.5 306s-1.7004 18.30079 5.0996 28.30078c9.4 13.79999 26.5 13.80078 26.5 13.80078v36.89844h-177.1992v-39.5s14.1004-2.19923 24.4004-14.19922 12-27.5 12-27.5l64.5996-403.5s3.8996-15.1004-0.4004-21.90039c-4.5-7.19999-28.6992-13.40039-28.6992-13.40039v-40.000001h203.6992l73.5996 228.300781 78.7012-228.699219zm-756.5 72.298829c-70.1999 0-164.4004 41.30095-164.4004 206.30078 0 164.99984 83.9005 206.29883 164.4004 206.29883 80.3999 0 166.0996-51.59898 166.0996-206.29883 0-154.79984-95.7997-206.30078-166.0996-206.30078zm-1186.5117 5.54101c-31.5338-0.07684-58.0879 6.45899-58.0879 6.45899v238.90039s160.8984-66.9997 160.8984-161.59961c0-69.4093-56.7227-83.64745-102.8105-83.75977zm-622.98831 39.0586-54.80078 163.30078h112.90039l-58.09961-163.30078zm-494.90039 568.10156c-86.19991 0-156.09961 69.8997-156.09961 156.09961s69.8997 156.09961 156.09961 156.09961h2943.8008c86.1999 0 156.0996-69.8997 156.0996-156.09961 0.1-86.29991-69.7997-156.09961-156.0996-156.09961h-2943.8008zm1248.8008 82.59961c24.2 0 43.0984 6.5004 58.3984 18.90039l-19.6992 27.79883c-13-9.09999-27.2008-14.09961-39.8008-14.09961-9.5 0-14.2988 3.99961-14.2988 9.09961v0.40039c0 6.49999 4.8996 9.3004 24.5996 13.90039 32.7 7.09999 53 17.69886 53 44.29883v0.40039c0 28.99997-23.0004 46.30078-57.4004 46.30078-25.1 0-49-7.89962-66.5-23.59961l21.9004-26.20117c14.1 11.09999 29.5996 17.09961 46.0996 17.09961 10.5 0 16.3008-3.59923 16.3008-9.69922v-0.40039c0-5.89999-4.7-9.09961-24-13.59961-30.2-6.89999-53.5996-15.49925-53.5996-44.69922v-0.40039c0-26.39997 20.9-45.5 55-45.5zm388 0c24.2 0 43.0984 6.5004 58.3984 18.90039l-19.6992 27.79883c-13-9.09999-27.2008-14.09961-39.8008-14.09961-9.5 0-14.2988 3.99961-14.2988 9.09961v0.40039c0 6.49999 4.8996 9.3004 24.5996 13.90039 32.7 7.09999 53 17.69886 53 44.29883v0.40039c0 28.99997-23.0004 46.30078-57.4004 46.30078-25.1 0-49-7.89962-66.5-23.59961l21.9004-26.20117c14.1 11.09999 29.5996 17.09961 46.0996 17.09961 10.5 0 16.3008-3.59923 16.3008-9.69922v-0.40039c0-5.89999-4.7-9.09961-24-13.59961-30.2-6.89999-53.5996-15.49925-53.5996-44.69922v-0.40039c0-26.39997 20.9-45.5 55-45.5zm-914.8008 1.40039h38l60.5996 143.19922h-42.2988l-10.3008-25.40039h-54.8008l-10.0996 25.40039h-41.5l60.4004-143.19922zm-432.90039 1h0.09961 61c35.89996 0 59 18.49847 59 49.89844v0.5c0 33.49997-25.79926 51.20117-61.19922 51.20117h-19.5v40.59961h-39.40039v-142.19922zm197.80078 0h39.29883v107.59961h68.90038v34.5h-108.19921v-142.09961zm373.00001 0h44.9004l29.1992 51.79883 29.4004-51.79883h44.0996l-54 88.39844v53.80078h-39.5996v-53.19922l-54-89zm512.1992 0h44.9004l29.1992 51.79883 29.4004-51.79883h44.0996l-54 88.39844v53.80078h-39.5996v-53.19922l-54-89zm395 0h124.7012v34.5h-42.7012v107.59961h-39.4004v-107.59961h-42.5996v-34.5zm202.8008 0h0.0996 114.4004v33.5h-75.4004v21.5h68.1992v31h-68.1992v22.5h76.3008v33.59961h-115.4004v-142.09961zm196.5 0h0.0996 41.6992l33.9004 55 33.9004-55h41.6992v142.19922h-0.1992-39.1992v-81.69922l-36.4004 55.59961h-0.8008l-36.0996-55.20117v81.20117h-38.5996v-142.09961zm330.6992 0h39.4004 39.4004 39.4004 39.3984v7.79883c-2.2 0.2-4.9996 0.70039-8.0996 1.40039s-5.4996 1.3-7.0996 2c-2.6 1.1-4.1992 2.49922-5.1992 4.19922-0.8 1.8-1.2008 3.7-1.3008 6v100.80078c0 2.5 0.4008 4.70078 1.3008 6.30078s2.5996 2.89844 5.0996 3.89844c1.3 0.5 3.6988 0.90117 7.2988 1.20117 3.5 0.3 6.2 0.49961 8 0.59961v7.90039h-39.3984-39.4004-39.4004-39.4004v-7.80078c1.8-0.1 4.4-0.29961 8-0.59961 3.5-0.3 6.0008-0.69922 7.3008-1.19922 2.4-1 4.0996-2.30039 5.0996-3.90039 0.9-1.6 1.3008-3.70078 1.3008-6.30078v-100.90039c0-2.2-0.4008-4.2-1.3008-6s-2.5992-3.09922-5.1992-4.19922c-1.6-0.6-3.9016-1.3-7.1016-2s-5.8996-1.10039-8.0996-1.40039v-7.79883zm78.9121 8.39844c-2.6875 0-5.3617 0.30039-8.0117 0.90039h-0.0996c-3.1 0.7-5.4996 1.3-7.0996 2-2.6 1.1-4.2012 2.50117-5.2012 4.20117-0.9 1.7-1.2988 3.7-1.2988 6v100.79883c0 2.5 0.3988 4.70078 1.2988 6.30078s2.5996 2.90039 5.0996 3.90039c1.3 0.5 3.7008 0.89922 7.3008 1.19922h0.0996c5.2 0.4 10.4012 0.4 15.7012 0h0.0996c3.5-0.3 5.9988-0.69922 7.2988-1.19922 2.4-1 4.1016-2.30039 5.1016-3.90039 0.9-1.6 1.2988-3.70078 1.2988-6.30078h0.2012v-100.79883c0-2.2-0.4008-4.2-1.3008-6-1-1.7-2.6992-3.10117-5.1992-4.20117-1.6-0.6-3.9016-1.3-7.1016-2h-0.0996c-2.7-0.6-5.4004-0.90039-8.0879-0.90039zm-2247.41209 24.70117v37.59961h18.70117c14.09999 0 22.5-7.30001 22.5-18.5v-0.40039c0-12.19999-8.50118-18.69922-22.70117-18.69922h-18.5zm412.09959 12.5-16.0996 40.5h32l-15.9004-40.5z"/>
</svg>
