<svg enable-background="new 0 0 3839 841.8" version="1.1" viewBox="0 0 3839 841.8" xml:space="preserve" xmlns="http://www.w3.org/2000/svg">
<path fill="#E60012" d="m215.80078 0.19921875c-119.19988 0-215.80078 96.60090025-215.80078 215.8007812v410.09961c0 119.19988 96.60051 215.80078 215.90039 215.80078h184c3.4 0 6.19922-2.69961 6.19922-6.09961v-0.10156-829.3984388c-0.1-3.2999966-2.79883-6.10156245-6.29883-6.10156245h-184zm279.89844 0c-3 0-5.4 2.40078415-5.5 5.30078125v0.0996094 830.0996106c0.1 3.5 2.80117 6.20117 6.20117 6.20117h129.59961c119.19988 0 215.90039-96.6009 215.90039-215.80078v-410.09961c0-119.199881-96.70051-215.8007812-215.90039-215.8007812h-130.30078zm3218.20118 10.10156225c-68.8999 0-125 56.198897-125 125.298829 0 69.19993 56.1001 125.40039 125 125.40039 68.9999 0 125.0996-56.20046 125.0996-125.40039 0-69.099932-56.0997-125.298829-125.0996-125.298829zm-2646.4004 7.898438v234.800781h47.5l0.0996-157 116.7012 157h46.2988v-234.800781h-47.5996v154.201171l-115.5996-154.201171h-47.4004zm387.5 0v234.800781h52.1992v-234.800781h-52.1992zm229.4004 0v234.800781h47.5996v-157l116.5996 157h46.4004v-234.800781h-47.6992v154.201171l-115.5-154.201171h-47.4004zm377.7988 0v49.800781h75v185h50.6016v-185h73.2988v-49.800781h-198.9004zm553.3008 0-182.5 0.101562v234.699219l182.5-0.09961v-43.40039h-134.9004v-55h124.7012v-42.5h-124.7012v-50.699219h134.9004v-43.101562zm194.5996 0v234.800781h47.5996v-157l116.6016 157h46.3984v-234.800781h-47.6992v154.201171l-115.5-154.201171h-47.4004zm409.2012 0v234.800781h97.0996c66.5999 0 120.7988-52.60046 120.7988-117.40039-0.1-64.799936-54.2985-117.400391-120.8984-117.400391h-97zm494.5996 44.300781c40.3 0.1 72.9 32.79965 73 73.09961 0 40.29996-32.7 72.99961-73 73.09961-40.3-0.1-72.9004-32.79965-72.9004-73.09961 0-40.19996 32.8004-73.09961 72.9004-73.09961zm-446.4004 5h51.1992c37.6 0.1 68 30.499647 68 68.09961 0 37.49996-30.4 68-68 68h-51.1992v-136.09961zm-3051.59961 0.5h122.29883v706.09961h-0.09961-122.19922c-39.29996 0.1-76.99964-15.49886-104.59961-43.29883-27.899971-27.69997-43.500389-65.4016-43.400389-104.60156v-410.19922c0-39.49996 15.398856-76.69964 43.298829-104.59961 27.69997-27.899971 65.40121-43.50039 104.70117-43.40039zm-5.70117 105.59961c-43.69996-0.1-79.09922 35.29965-79.19922 79.09961 0 43.69996 35.39926 79.20117 79.19922 79.20117 43.79995 0 79.20117-35.40122 79.20117-79.20117 0-43.69996-35.39965-79.09961-79.09961-79.09961h-0.10156zm2923.70118 185c-130.3999 0-236.5 106.00052-236.5 236.40039s106.1001 236.40039 236.5 236.40039c79.2999 0 152.0989-38.99967 196.2988-104.59961l-72.0996-62.70117c-24.9 42.09996-71.5997 68.80078-121.5996 68.80078-77.4999 0-140.5-61.90047-140.5-137.90039 0-76.09992 63.0001-138 140.5-138 49.9999 0 96.6996 26.70082 121.5996 68.80078l72.0996-62.60156c-43.7999-65.49994-117.4989-104.69961-196.2988-104.59961zm-1884.5996 8.09961c-95.6999 0-197.5 46.70126-197.5 133.20117 0 70.09993 49.4001 105.99885 176.5 127.79883 89.4999 15.49998 138.7984 23.90043 137.3984 62.40039-0.8 21.19998-17.1997 56.70117-118.0996 56.70117-81.2999 0-138.3988-29.4004-158.2988-41.40039l-41.9004 75.69922c22.4 11.79999 97.2989 47 193.7988 47 140.9999 0 215.4004-48.79931 215.4004-141.19922 0.1-53.39995-17.899-109.20003-205.2988-140-63.9-10.49999-105.2012-22.4012-105.2012-52.20117 0-34.49997 46.0012-47.69922 107.7012-47.69922 57.3999 0 115.0996 21.9004 135.5996 30.40039l31.5-76.59961c-22.4-8.89999-92.9997-34.10156-171.5996-34.10156zm257.8984 6.30078 125.4004 443h106.4004l82.5-291.80078 82.0996 291.80078h106.9004l126-443h-96.3008l-85.5996 321.5-93.7988-321.5h-78.6016l-93.5 320.19922-85.0996-320.19922h-96.4004zm739.3008 0v443h98.5996v-443h-98.5996zm206.8008 0v94h141.5v349h95.2988v-349h138.4004v-94h-375.1992zm978.1992 0v443h91.5996v-176.69922h206.8008v176.69922h91.6992v-443h-91.6992v174.69922h-206.8008v-174.69922h-91.5996zm-2774.69922 5c46.99995 1 84.29844 39.80044 83.39844 86.90039-0.9 45.69995-37.69848 82.50039-83.39844 83.40039-46.99995-1-84.30039-39.80044-83.40039-86.90039 0.9-45.69995 37.70044-82.50039 83.40039-83.40039z"/>
	
</svg>
