<?xml version="1.0" encoding="utf-8"?>
<!-- Generator: Adobe Illustrator 25.0.0, SVG Export Plug-In . SVG Version: 6.00 Build 0)  -->
<svg version="1.1" id="Layer_1" xmlns="http://www.w3.org/2000/svg" xmlns:xlink="http://www.w3.org/1999/xlink" x="0px" y="0px"
	 viewBox="0 0 3839 841.8" style="enable-background:new 0 0 3839 841.8;" xml:space="preserve">
<style type="text/css">
	.st0{fill:#FFFFFF;}
	.st1{fill:#E60012;}
	.st2{fill-rule:evenodd;clip-rule:evenodd;fill:#E60012;}
	.st3{filter:url(#Adobe_OpacityMaskFilter);}
	.st4{fill-rule:evenodd;clip-rule:evenodd;fill:#FFFFFF;}
	.st5{mask:url(#b_4_);fill-rule:evenodd;clip-rule:evenodd;fill:#FFFFFF;}
	.st6{fill-rule:evenodd;clip-rule:evenodd;}
	.st7{filter:url(#Adobe_OpacityMaskFilter_1_);}
	.st8{mask:url(#b_1_);fill-rule:evenodd;clip-rule:evenodd;fill:#FFFFFF;}
	.st9{filter:url(#Adobe_OpacityMaskFilter_2_);}
	.st10{mask:url(#b_2_);fill-rule:evenodd;clip-rule:evenodd;}
	.st11{filter:url(#Adobe_OpacityMaskFilter_3_);}
	.st12{mask:url(#b_7_);fill-rule:evenodd;clip-rule:evenodd;}
	.st13{filter:url(#Adobe_OpacityMaskFilter_4_);}
	.st14{mask:url(#b_8_);fill-rule:evenodd;clip-rule:evenodd;fill:#FFFFFF;}
	.st15{filter:url(#Adobe_OpacityMaskFilter_5_);}
	.st16{mask:url(#b_9_);fill-rule:evenodd;clip-rule:evenodd;fill:#FFFFFF;}
	.st17{filter:url(#Adobe_OpacityMaskFilter_6_);}
	.st18{mask:url(#b_3_);fill-rule:evenodd;clip-rule:evenodd;fill:#E60012;}
	.st19{filter:url(#Adobe_OpacityMaskFilter_7_);}
	.st20{mask:url(#b_5_);fill-rule:evenodd;clip-rule:evenodd;fill:#FFFFFF;}
	.st21{filter:url(#Adobe_OpacityMaskFilter_8_);}
	.st22{mask:url(#b_6_);fill-rule:evenodd;clip-rule:evenodd;}
	.st23{filter:url(#Adobe_OpacityMaskFilter_9_);}
	.st24{mask:url(#b_12_);fill-rule:evenodd;clip-rule:evenodd;fill:#E60012;}
	.st25{filter:url(#Adobe_OpacityMaskFilter_10_);}
	.st26{mask:url(#b_10_);fill-rule:evenodd;clip-rule:evenodd;fill:#FFFFFF;}
	.st27{filter:url(#Adobe_OpacityMaskFilter_11_);}
	.st28{mask:url(#b_11_);fill-rule:evenodd;clip-rule:evenodd;}
</style>
<g>
	<g transform="translate(0 -.187)">
		<defs>
			<filter id="Adobe_OpacityMaskFilter" filterUnits="userSpaceOnUse" x="0" y="0.2" width="841.8" height="841.8">
				<feColorMatrix  type="matrix" values="1 0 0 0 0  0 1 0 0 0  0 0 1 0 0  0 0 0 1 0"/>
			</filter>
		</defs>
		<mask maskUnits="userSpaceOnUse" x="0" y="0.2" width="841.8" height="841.8" id="b_11_">
			<g class="st3">
				<path id="a_11_" class="st4" d="M841.8,841.9H0V0.2h841.8V841.9z"/>
			</g>
		</mask>
		<path class="st28" d="M131,252.7c0,43.7,35.4,79.2,79.2,79.2s79.2-35.4,79.2-79.2c0-43.7-35.4-79.1-79.1-79.1c0,0,0,0-0.1,0
			C166.5,173.5,131.1,208.9,131,252.7C131,252.7,131,252.7,131,252.7z M338.1,774.1H215.9c-39.3,0.1-77-15.5-104.6-43.3
			c-27.9-27.7-43.5-65.4-43.4-104.6V216c0-39.5,15.4-76.7,43.3-104.6c27.7-27.9,65.4-43.5,104.7-43.4h122.3V774.1z M399.8,0.2h-184
			C96.6,0.2,0,96.8,0,216v410.1c0,119.2,96.6,215.8,215.9,215.8h184c3.4,0,6.2-2.7,6.2-6.1c0,0,0,0,0-0.1V6.3
			C406,3,403.3,0.2,399.8,0.2C399.8,0.2,399.8,0.2,399.8,0.2z M656.8,378c47,1,84.3,39.8,83.4,86.9c-0.9,45.7-37.7,82.5-83.4,83.4
			c-47-1-84.3-39.8-83.4-86.9C574.3,415.7,611.1,378.9,656.8,378z M496.4,841.9H626c119.2,0,215.9-96.6,215.9-215.8V216
			c0-119.2-96.7-215.8-215.9-215.8H495.7c-3,0-5.4,2.4-5.5,5.3c0,0,0,0.1,0,0.1v830.1C490.3,839.2,493,841.9,496.4,841.9
			L496.4,841.9z"/>
	</g>
	<path class="st6" d="M3318.7,203.6h-51.2V67.5h51.2c37.6,0.1,68,30.5,68,68.1C3386.7,173.1,3356.3,203.6,3318.7,203.6z
		 M3316.3,18.2h-97V253h97.1c66.6,0,120.8-52.6,120.8-117.4C3437.1,70.8,3382.9,18.2,3316.3,18.2L3316.3,18.2z M3136.5,457
		c50,0,96.7,26.7,121.6,68.8l72.1-62.6c-43.8-65.5-117.5-104.7-196.3-104.6c-130.4,0-236.5,106-236.5,236.4s106.1,236.4,236.5,236.4
		c79.3,0,152.1-39,196.3-104.6l-72.1-62.7c-24.9,42.1-71.6,68.8-121.6,68.8c-77.5,0-140.5-61.9-140.5-137.9
		C2996,518.9,3059,457,3136.5,457L3136.5,457z M2453.3,467h141.5V816h95.3V467h138.4v-94h-375.2L2453.3,467L2453.3,467z
		 M3729.9,547.7h-206.8V373h-91.6v443h91.6V639.3h206.8v176.7h91.7V373h-91.7V547.7z M3713.9,208.7c-40.3-0.1-72.9-32.8-72.9-73.1
		c0-40.2,32.8-73.1,72.9-73.1c40.3,0.1,72.9,32.8,73,73.1C3786.9,175.9,3754.2,208.6,3713.9,208.7z M3713.9,10.3
		c-68.9,0-125,56.2-125,125.3c0,69.2,56.1,125.4,125,125.4c69,0,125.1-56.2,125.1-125.4C3839,66.5,3782.9,10.3,3713.9,10.3
		L3713.9,10.3z M2615.5,209.5h-134.9v-55h124.7V112h-124.7V61.3h134.9V18.2l-182.5,0.1V253l182.5-0.1L2615.5,209.5L2615.5,209.5z
		 M3020.7,253V18.2H2973v154.2L2857.5,18.2h-47.4V253h47.6V96l116.6,157L3020.7,253L3020.7,253z M1455,253h52.2V18.2H1455V253
		L1455,253z M1251.3,546.9c-63.9-10.5-105.2-22.4-105.2-52.2c0-34.5,46-47.7,107.7-47.7c57.4,0,115.1,21.9,135.6,30.4l31.5-76.6
		c-22.4-8.9-93-34.1-171.6-34.1c-95.7,0-197.5,46.7-197.5,133.2c0,70.1,49.4,106,176.5,127.8c89.5,15.5,138.8,23.9,137.4,62.4
		c-0.8,21.2-17.2,56.7-118.1,56.7c-81.3,0-138.4-29.4-158.3-41.4l-41.9,75.7c22.4,11.8,97.3,47,193.8,47
		c141,0,215.4-48.8,215.4-141.2C1456.7,633.5,1438.7,577.7,1251.3,546.9L1251.3,546.9z M1954.6,694.5L1860.8,373h-78.6l-93.5,320.2
		L1603.6,373h-96.4l125.4,443H1739l82.5-291.8l82.1,291.8h106.9l126-443h-96.3L1954.6,694.5L1954.6,694.5z M1732,96l116.6,157h46.4
		V18.2h-47.7v154.2L1731.8,18.2h-47.4V253h47.6V96z M2246.5,816h98.6V373h-98.6V816z M2261.1,18.2h-198.9V68h75V253h50.6V68h73.3
		L2261.1,18.2L2261.1,18.2z M1115.1,96l116.7,157h46.3V18.2h-47.6v154.2L1114.9,18.2h-47.4V253h47.5L1115.1,96L1115.1,96z"/>
</g>
</svg>
