<svg width="36.44" height="34.821" xml:space="preserve" xmlns="http://www.w3.org/2000/svg"><defs><clipPath id="a"><path d="M0 141.73h141.73V0H0Z"/></clipPath></defs><g clip-path="url(#a)" transform="matrix(1.3333 0 0 -1.3333 -20.714 111.9)" fill="#fff"><path d="M24.134 67.476h-2.917a.414.414 0 0 1-.413-.415l.001-.002h-.001v-2.082h.001l-.001-.002c0-.228.184-.415.413-.415h2.917v-1.389h-3.641v.003c-.595 0-1.077.482-1.077 1.076v3.54c0 .591.482 1.072 1.077 1.072h3.641zm1.053 3.866c0-.606-.489-1.093-1.092-1.093h-4.683v1.408h3.948a.42.42 0 0 1 .419.421v4.652c0 .232-.186.42-.419.42h-2.122a.418.418 0 0 1-.418-.42v-2.117a.42.42 0 0 1 .418-.421h1.696v-1.407h-2.43a1.09 1.09 0 0 0-1.092 1.091v3.591c0 .603.488 1.092 1.092 1.092h3.591c.603 0 1.092-.489 1.092-1.092zm13.798-8.168h-1.388v4.302h-.975a.414.414 0 0 1-.413-.415v-3.887h-1.387v4.302h-.976a.414.414 0 0 1-.413-.415v-3.89h-1.387v4.619c0 .591.48 1.072 1.076 1.072h5.863zm.004 8.168c0-.606-.49-1.093-1.092-1.093h-4.683v1.408h3.948c.234 0 .421.19.421.421v4.652a.42.42 0 0 1-.421.42h-2.121a.419.419 0 0 1-.417-.42v-2.117a.42.42 0 0 1 .417-.421h1.694v-1.407h-2.428c-.604 0-1.093.488-1.093 1.091v3.591c0 .603.489 1.092 1.093 1.092h3.59c.602 0 1.092-.489 1.092-1.092zm-8.312 5.385v-2.114a.416.416 0 0 0-.415-.421h-2.121a.42.42 0 0 0-.419.421v2.117c0 .232.186.42.419.42h2.121a.415.415 0 0 0 .415-.42zm.32 1.832h-3.592a1.09 1.09 0 0 1-1.091-1.092v-3.591a1.09 1.09 0 0 1 1.091-1.091h3.592c.601 0 1.091.488 1.091 1.091v3.591c0 .603-.49 1.092-1.091 1.092m-1.45-11.5v-2.082a.415.415 0 0 0-.412-.416c-.002 0-.002.003-.004.003v-.003h-2.082v.003s-.002-.003-.004-.003a.415.415 0 0 0-.413.416v2.085c0 .229.184.414.413.414h2.09a.412.412 0 0 0 .412-.414zm.312 1.804h-3.538a1.075 1.075 0 0 1-1.077-1.073v-3.54c0-.594.481-1.076 1.077-1.076h3.538c.593 0 1.075.482 1.075 1.076v3.54c0 .591-.482 1.073-1.075 1.073" fill-rule="evenodd"/><path d="M41.208 60.756a1.287 1.287 0 0 0-1.291-1.291H18.485a1.287 1.287 0 0 0-1.291 1.291v20.218a1.291 1.291 0 0 0 1.291 1.291h21.432a1.287 1.287 0 0 0 1.291-1.291zm-.002 21.507c-.329.33-.786.535-1.289.535H18.485c-.503 0-.96-.205-1.289-.535a1.815 1.815 0 0 1-.535-1.289V60.756c0-.503.205-.961.535-1.29.329-.33.786-.534 1.289-.534h21.432c.503 0 .96.204 1.289.534.33.329.535.787.535 1.29v20.218c0 .503-.205.961-.535 1.289"/></g></svg>