<svg width="245.86501" height="300" version="1.1" viewBox="0 0 245.86501 299.99999" xml:space="preserve" xmlns="http://www.w3.org/2000/svg"><path d="m-986.99907-356.23477h1479.19431v986.13244h-1479.19431z" clip-path="url(#clipPath1586)" stroke-width="4.34856"/><defs><clipPath id="clipPath1368"><path d="m-986.99907-356.23477h1479.19431v986.13244h-1479.19431z" stroke-width="4.34856"/></clipPath><clipPath id="clipPath1586"><path d="m240.63737 216.07576c0 3.50494-1.41328 6.6533-3.70932 8.95369-2.29605 2.2917-5.44875 3.70063-8.945 3.70063h-210.100845c-3.500594 0-6.648954-1.40893-8.9449954-3.70063-2.2960415-2.30039-3.7006275-5.44875-3.7093247-8.95369v-198.198827c0.0086972-3.500594 1.4132832-6.644605 3.7093247-8.9449953 2.2960414-2.291693 5.4444014-3.7006276 8.9449954-3.7049761h210.100845c3.49625 0.00435 6.64895 1.4132831 8.945 3.7049761 2.29604 2.3003903 3.70932 5.4444013 3.70932 8.9449953zm-0.01739-210.8401013c-3.22664-3.2353312-7.70566-5.235670452-12.63693-5.235670452h-210.100845c-4.931271 0-9.4102917 2.000339252-12.6369258 5.235670452-3.2353313 3.2266341-5.2443676 7.7143513-5.2443676 12.6412743v198.198827c0 4.93127 2.0090363 9.41899 5.2443676 12.64562 3.2266341 3.23099 7.7056548 5.24002 12.6369258 5.24002h210.100845c4.93127 0 9.41029-2.00903 12.63693-5.24002 3.23533-3.22663 5.24436-7.71435 5.24436-12.64562v-198.198827c0-4.926923-2.00903-9.4146402-5.24436-12.6412743" fill="#333"/></clipPath></defs><path d="m37.677734 41.556641c-5.922737 0-10.703125 4.79299-10.703125 10.707031v35.197266c0 5.918389 4.780388 10.701171 10.703125 10.701171h23.816407v-13.796875h-16.572266-0.042969c-2.274295 0-4.105468-1.848308-4.105468-4.126953v-0.027343-20.699219-0.029297c0-2.274297 1.831173-4.119141 4.105468-4.119141h0.042969 20.710937 0.044922c2.278645 0 4.105469 1.844844 4.105469 4.119141v0.029297 45.550781 0.02734c0 2.2656-1.826824 4.12696-4.105469 4.12696h-0.044922-38.658203v13.79687h45.904297c5.909691 0 10.705078-4.7732 10.705078-10.70898v-60.041018c0-5.914041-4.795387-10.707031-10.705078-10.707031h-35.201172zm135.308596 0c-5.92274 0-10.70899 4.79299-10.70899 10.707031v35.197266c0 5.918389 4.78625 10.701171 10.70899 10.701171h23.80469v-13.796875h-16.56836-0.03907c-2.25254 0-4.09179-1.848308-4.09179-4.126953v-0.027343-20.699219-0.029297c0-2.274297 1.83925-4.119141 4.09179-4.119141h0.03907 20.73046 0.0254c2.28733 0 4.12304 1.844844 4.12304 4.119141v0.029297 45.550781 0.02734c0 2.2656-1.83571 4.12696-4.12304 4.12696h-0.0254-38.67578v13.79687h45.90625c5.901 0 10.70313-4.7732 10.70313-10.70898v-60.041018c0-5.914041-4.80213-10.707031-10.70313-10.707031h-35.19726zm-67.66211 0.001953c-5.914044 0-10.693361 4.79299-10.693361 10.707031v35.197266c0 5.91404 4.779317 10.701171 10.693361 10.701171h35.21484c5.89666 0 10.69727-4.787131 10.69727-10.701171v-35.197266c0-5.914041-4.80061-10.707031-10.69727-10.707031h-35.21484zm7.21875 13.80664h0.0293 20.71289 0.04687c2.283 0 4.07031 1.838986 4.07031 4.113282v0.035156 20.695312 0.025391c0 2.278645-1.78731 4.130859-4.07031 4.130859h-0.04687-20.71289-0.0293c-2.28299 0-4.10938-1.852214-4.10938-4.130859v-0.025391-20.695312-0.035156c0-2.274296 1.82639-4.113282 4.10938-4.113282zm-17.841798 81.244146c-5.840115 0-10.552734 4.72138-10.552734 10.51367v34.70117c0 5.82272 4.712619 10.54687 10.552734 10.54687h34.685548c5.81837 0 10.54101-4.72415 10.54101-10.54687v-34.70117c0-5.79229-4.72264-10.51368-10.54101-10.51367h-34.685548zm-57.13086 0.00195c-5.840114 0-10.5625 4.72139-10.5625 10.51367v34.70117c1e-6 5.82273 4.722386 10.54688 10.5625 10.54688v0.0332h35.689454v-13.61523h-25.595704-2.957031-0.048828c-2.243857 0-4.042969-1.83907-4.042969-4.07422l0.007813-0.01758h-0.007813v-20.4082h0.007813c0-0.0261-0.007813-0.0254-0.007813-0.0254 0-2.24385 1.799112-4.0664 4.042969-4.0664h0.048828 28.552735v-13.58789h-35.689454zm123.802738 0c-5.84012 0-10.54883 4.72139-10.54883 10.51367v45.28125h13.59766v-38.11523-0.0254c0-2.24385 1.80017-4.0664 4.05273-4.0664h0.02539 9.53711v42.17383h13.60156v-38.08203-0.0254c0-2.24385 1.80062-4.0664 4.04883-4.0664h0.04297 9.51562v42.17383h13.60157v-55.76172h-57.47461zm-59.57422 13.58594h0.04297 20.40429 0.04688c2.23516 0 4.03515 1.82254 4.03515 4.0664v0.02735 20.40625c0 2.24385-1.79999 4.07617-4.03515 4.07617-0.0217 0-0.02518-0.02344-0.04688-0.02344v0.02344h-20.40429v-0.02344s-0.02117 0.02344-0.04297 0.02344c-2.243855 0-4.044924-1.83232-4.044924-4.07617v-20.40625-0.02735c0-2.24386 1.801069-4.0664 4.044924-4.0664zm-83.64258 113.51757c-2.774381 0-5.284998 0.43605-7.533203 1.31446-2.2438569 0.87406-4.1489203 2.1033-5.7187501 3.69922-1.5698299 1.59592-2.7785419 3.50552-3.6308594 5.73632-0.84796905 2.22646-1.2734375 4.69711-1.2734375 7.40625 2.9605918e-16 2.67437 0.43843956 5.12227 1.3125 7.35743 0.8740603 2.22646 2.1275451 4.1365 3.7539062 5.73242 1.6263611 1.59157 3.5867733 2.83013 5.8828128 3.71289 2.29169 0.88711 4.865653 1.32617 7.722656 1.32617 2.413451 0 4.632217-0.31779 6.654297-0.95703 2.02208-0.63489 3.926075-1.59564 5.708984-2.88281v-13.62305h-10.90039v2.7207c0 0.26961 0.098168 0.49119 0.285156 0.67383 0.186989 0.17831 0.444717 0.26953 0.757812 0.26953h5.523438v7.82813c-0.626192 0.33049-1.248624 0.6219-1.857422 0.88281-0.613146 0.25222-1.249175 0.46473-1.910156 0.63867-0.660982 0.17395-1.346941 0.31404-2.064453 0.41406-0.717513 0.09565-1.492134 0.14844-2.31836 0.14844-2.096006 0-3.987029-0.32322-5.669922-0.9668-1.682892-0.64793-3.1184151-1.58186-4.2968746-2.8125-1.182808-1.22629-2.0916729-2.72755-2.7265625-4.48437-0.6348897-1.76117-0.953125-3.75205-0.953125-5.97852 0-2.14818 0.3052642-4.08851 0.9140625-5.81054 0.6131469-1.72638 1.4876306-3.19496 2.6269531-4.40821s2.5171025-2.14414 4.1347655-2.80078c1.622014-0.65228 3.427397-0.97461 5.427734-0.97461 1.369796 0 2.552566 0.10528 3.552735 0.31836 1.000169 0.21743 1.864703 0.47685 2.599609 0.78125 0.734907 0.3044 1.357965 0.62699 1.871094 0.95313 0.51313 0.33049 0.965609 0.61327 1.361328 0.84375 0.413113 0.24792 0.79016 0.32567 1.125 0.23437 0.339188-0.09132 0.616999-0.30037 0.830078-0.63086l1.367188-2.18164c-0.760997-0.68707-1.579064-1.31448-2.453125-1.87109-0.87406-0.54792-1.827698-1.02117-2.84961-1.4082-1.021911-0.39137-2.139199-0.6882-3.34375-0.89258-1.20455-0.20438-2.507524-0.3086-3.912109-0.3086zm37.474609 0c-2.609135 0-4.986577 0.44253-7.134765 1.33399-2.14384 0.89145-3.988396 2.14494-5.523438 3.7539-1.53504 1.61331-2.722785 3.52638-3.566406 5.74415-0.839271 2.22645-1.259766 4.66094-1.259766 7.32226 0 2.65697 0.420495 5.09625 1.259766 7.31836 0.843621 2.21777 2.031366 4.13215 3.566406 5.73242 1.535042 1.60462 3.379598 2.84771 5.523438 3.73047 2.148188 0.88275 4.52563 1.32227 7.134765 1.32227 2.604787 0 4.987646-0.43952 7.144532-1.32227 2.156884-0.88276 3.997719-2.12585 5.537109-3.73047 1.535041-1.60027 2.725181-3.51465 3.564453-5.73242 0.84362-2.22211 1.261719-4.66139 1.261719-7.31836 0-2.66132-0.418099-5.09581-1.261719-7.32226-0.839272-2.21777-2.029412-4.13084-3.564453-5.74415-1.53939-1.60896-3.380225-2.86245-5.537109-3.7539-2.156886-0.89146-4.539745-1.33399-7.144532-1.33399zm42.275391 0c-2.774381 0-5.283045 0.43605-7.53125 1.31446-2.243857 0.87406-4.148921 2.1033-5.71875 3.69922-1.56983 1.59592-2.778541 3.50552-3.630859 5.73632-0.84797 2.22646-1.275391 4.69711-1.275391 7.40625 0 2.67437 0.440393 5.12227 1.314453 7.35743 0.874061 2.22646 2.125592 4.1365 3.751953 5.73242 1.626361 1.59157 3.588727 2.83013 5.884766 3.71289 2.291691 0.88711 4.865653 1.32617 7.722656 1.32617 2.413452 0 4.630262-0.31779 6.652342-0.95703 2.02208-0.63489 3.92803-1.59564 5.71094-2.88281v-13.62305h-10.898438v2.7207c0 0.26961 0.096215 0.49119 0.283208 0.67383 0.18698 0.17831 0.44275 0.26953 0.75585 0.26953h5.52344v7.82813c-0.6262 0.33049-1.24862 0.6219-1.85742 0.88281-0.61315 0.25222-1.24722 0.46473-1.9082 0.63867-0.66098 0.17395-1.34889 0.31404-2.06641 0.41406-0.71751 0.09565-1.490179 0.14844-2.316406 0.14844-2.096006 0-3.988982-0.32322-5.671875-0.9668-1.682892-0.64793-3.116463-1.58186-4.294921-2.8125-1.182809-1.22629-2.091674-2.72755-2.726563-4.48437-0.634889-1.76117-0.953125-3.75205-0.953125-5.97852 0-2.14818 0.303311-4.08851 0.912109-5.81054 0.613148-1.72638 1.487632-3.19496 2.626953-4.40821 1.139323-1.21325 2.519056-2.14414 4.136719-2.80078 1.622014-0.65228 3.425444-0.97461 5.425781-0.97461 1.369796 0 2.552568 0.10528 3.552738 0.31836 1.00017 0.21743 1.86666 0.47685 2.60156 0.78125 0.73491 0.3044 1.35601 0.62699 1.86914 0.95313 0.51313 0.33049 0.96561 0.61327 1.36133 0.84375 0.41311 0.24792 0.79211 0.32567 1.12695 0.23437 0.33918-0.09132 0.617-0.30037 0.83008-0.63086l1.36523-2.18164c-0.761-0.68707-1.57906-1.31448-2.45312-1.87109-0.87406-0.54792-1.82575-1.02117-2.84766-1.4082-1.02191-0.39137-2.1392-0.6882-3.34375-0.89258-1.20456-0.20438-2.509475-0.3086-3.91406-0.3086zm50.7168 0c-2.57869 0-4.93172 0.43951-7.0625 1.32227-2.1308 0.8871-3.95609 2.12585-5.48243 3.73047-1.53069 1.60028-2.71301 3.51767-3.55664 5.74414-0.83926 2.23081-1.26171 4.6787-1.26171 7.35742 0 2.67436 0.40406 5.12421 1.21289 7.35938 0.80883 2.22645 1.94816 4.13455 3.41796 5.73046 1.46982 1.59593 3.24366 2.83014 5.32227 3.7129 2.08296 0.88709 4.39359 1.32812 6.9375 1.32812 2.93963 0 5.44331-0.47087 7.51758-1.41016 2.06991-0.94364 3.83469-2.25655 5.28711-3.93945l-1.9082-2.05664c-0.19568-0.21742-0.42615-0.32227-0.69141-0.32227-0.28266 0-0.56109 0.12128-0.84375 0.36914-0.61315 0.56096-1.22626 1.04871-1.84375 1.45313-0.6175 0.40007-1.2864 0.73908-2.00391 1-0.72186 0.26526-1.50554 0.45592-2.35351 0.58203-0.85232 0.12608-1.80419 0.1875-2.86524 0.1875-1.73072 0-3.34393-0.31717-4.83984-0.94336-1.4959-0.6262-2.79284-1.53852-3.88867-2.73437-1.09584-1.19586-1.96472-2.66141-2.59961-4.39649s-0.95703-3.71085-0.95703-5.91992c0-2.17863 0.30917-4.13407 0.91796-5.86914 0.61315-1.73508 1.46622-3.20561 2.56641-4.41016 1.09584-1.20455 2.40379-2.12683 3.92578-2.76172 1.51765-0.63922 3.19226-0.95117 5.02735-0.95117 1.51764 0 2.80053 0.15629 3.83984 0.48243 1.0393 0.32178 1.90428 0.67806 2.5957 1.07812 0.69577 0.39137 1.25699 0.75677 1.6875 1.07422 0.43051 0.32179 0.79219 0.48242 1.08789 0.48242 0.26526 0 0.47387-0.05144 0.63477-0.16016 0.15655-0.10871 0.2828-0.24491 0.38281-0.41015l1.58594-2.20313c-1.46981-1.3872-3.17471-2.48413-5.10547-3.29297-1.93077-0.80882-4.16143-1.21289-6.68359-1.21289zm34.14062 0c-2.60914 0-4.98853 0.44253-7.13672 1.33399-2.14383 0.89145-3.9884 2.14494-5.52343 3.7539-1.53505 1.61331-2.72084 3.52638-3.56446 5.74415-0.83928 2.22645-1.26172 4.66094-1.26172 7.32226 0 2.65697 0.42244 5.09625 1.26172 7.31836 0.84362 2.21777 2.02941 4.13215 3.56446 5.73242 1.53503 1.60462 3.3796 2.84771 5.52343 3.73047 2.14819 0.88275 4.52758 1.32227 7.13672 1.32227 2.60479 0 4.98765-0.43952 7.14453-1.32227 2.15688-0.88276 3.99577-2.12585 5.53516-3.73047 1.53504-1.60027 2.72279-3.51465 3.56641-5.73242 0.84361-2.22211 1.25976-4.66139 1.25976-7.31836 0-2.66132-0.41615-5.09581-1.25976-7.32226-0.84362-2.21777-2.03137-4.13084-3.56641-5.74415-1.53939-1.60896-3.37828-2.86245-5.53516-3.7539-2.15688-0.89146-4.53974-1.33399-7.14453-1.33399zm26.16992 0.39844v35.48828h4.21289v-26.07812c0-0.34788-0.01296-0.72707-0.03906-1.14453-0.02612-0.40877-0.06157-0.82687-0.10937-1.26172l12.43359 22.26953c0.37832 0.73925 0.95642 1.11328 1.73047 1.11328h0.69531c0.77404 0 1.35215-0.37403 1.73047-1.11328l12.16406-22.19531c-0.0304 0.41746-0.05682 0.81912-0.07422 1.21484-0.0171 0.40007-0.02539 0.76931-0.02539 1.11719v26.07812h4.21289v-35.48828h-3.54492c-0.43051 0-0.76473 0.0385-1.0039 0.1211-0.23917 0.08261-0.45667 0.31308-0.65235 0.6914l-12.04101 21.82617c-0.21308 0.39137-0.41351 0.81319-0.5918 1.24805-0.18264 0.43485-0.35623 0.87676-0.52148 1.32031-0.18264-0.42616-0.36033-0.86006-0.54297-1.29492-0.18264-0.4392-0.37464-0.85623-0.57032-1.25195l-12.26367-21.84766c-0.21308-0.37832-0.43359-0.60881-0.66406-0.6914-0.23482-0.08266-0.56169-0.1211-0.99219-0.1211h-3.54297zm-153.302731 3.76172c1.913366 0 3.648737 0.31887 5.201172 0.9668 1.552436 0.64359 2.86945 1.56587 3.960938 2.76172 1.091489 1.19585 1.931591 2.65945 2.527343 4.39453 0.595754 1.73508 0.890626 3.69246 0.890626 5.87109s-0.294872 4.13104-0.890626 5.85742c-0.595752 1.72637-1.435854 3.18891-2.527343 4.38477-1.091488 1.19585-2.408502 2.11316-3.960938 2.74805-1.552435 0.63488-3.287806 0.95507-5.201172 0.95507-1.90032 0-3.627252-0.32019-5.179687-0.95507-1.548088-0.63489-2.874425-1.5522-3.97461-2.74805-1.095836-1.19586-1.94331-2.6584-2.539062-4.38477-0.591404-1.72638-0.890625-3.67879-0.890625-5.85742s0.299221-4.13601 0.890625-5.87109c0.595752-1.73508 1.443226-3.19868 2.539062-4.39453 1.100185-1.19585 2.426522-2.11813 3.97461-2.76172 1.552435-0.64793 3.279367-0.9668 5.179687-0.9668zm127.132811 0c1.91336 0 3.64678 0.31887 5.19922 0.9668 1.55243 0.64359 2.8714 1.56587 3.96289 2.76172s1.92964 2.65945 2.52539 4.39453c0.59576 1.73508 0.89258 3.69246 0.89258 5.87109s-0.29682 4.13104-0.89258 5.85742c-0.59575 1.72637-1.4339 3.18891-2.52539 4.38477-1.09149 1.19585-2.41046 2.11316-3.96289 2.74805-1.55244 0.63488-3.28586 0.95507-5.19922 0.95507-1.90033 0-3.62726-0.32019-5.17969-0.95507-1.54808-0.63489-2.87442-1.5522-3.9746-2.74805-1.09584-1.19586-1.94332-2.6584-2.53907-4.38477-0.59141-1.72638-0.89258-3.67879-0.89258-5.85742s0.30117-4.13601 0.89258-5.87109c0.59575-1.73508 1.44323-3.19868 2.53907-4.39453 1.10018-1.19585 2.42652-2.11813 3.9746-2.76172 1.55243-0.64793 3.27936-0.9668 5.17969-0.9668zm-60.54492 25.88281c-0.43051 0-0.83457 0.0828-1.21289 0.24805-0.37833 0.16524-0.70456 0.38726-0.97852 0.66992-0.27396 0.2783-0.48798 0.60952-0.64453 0.99219-0.15652 0.37832-0.23437 0.78282-0.23437 1.20898 0 0.44355 0.07782 0.85695 0.23437 1.22657 0.15655 0.37398 0.37057 0.7002 0.64453 0.97851 0.27396 0.28266 0.60019 0.49971 0.97852 0.65625 0.37832 0.15653 0.78238 0.23438 1.21289 0.23438 0.4305 0 0.83456-0.07783 1.21289-0.23438 0.37832-0.15654 0.70953-0.37359 0.99219-0.65625 0.27831-0.27831 0.50467-0.60453 0.66992-0.97851 0.16086-0.36962 0.24805-0.78302 0.24805-1.22657 0-0.42616-0.08716-0.83066-0.24805-1.20898-0.16525-0.38267-0.39161-0.71389-0.66992-0.99219-0.28266-0.28266-0.61387-0.50468-0.99219-0.66992-0.37833-0.16527-0.78239-0.24805-1.21289-0.24805z" clip-path="url(#clipPath1368)" fill="#333"/></svg>
