<svg version="1.1" viewBox="0 0 36.44 34.821" xml:space="preserve" xmlns="http://www.w3.org/2000/svg"><defs><clipPath id="clipPath1173"><path d="m-20.714-77.068609h188.96861v188.968609h-188.96861z" stroke-width="1.3333"/></clipPath></defs><path d="m3.9316406 1.5058594c-0.6706492 0-1.2800947 0.272902-1.71875 0.7128906a2.4199395 2.4199395 0 0 0-0.7128906 1.71875v26.957031c0 0.67065 0.2729021 1.280096 0.7128906 1.71875 0.4386553 0.439989 1.0481008 0.712891 1.71875 0.712891h28.5761714c0.67065 0 1.280095-0.272902 1.71875-0.712891 0.439989-0.438654 0.712891-1.0481 0.712891-1.71875v-26.957031c0-0.6706492-0.272902-1.281428-0.712891-1.71875-0.438655-0.4399886-1.0481-0.7128906-1.71875-0.7128906h-28.5761714zm0 0.7109375h28.5761714a1.7159571 1.7159571 0 0 1 1.720704 1.7207031v26.957031a1.7159571 1.7159571 0 0 1-1.720704 1.720703h-28.5761714a1.7159571 1.7159571 0 0 1-1.7207031-1.720703v-26.957031a1.7212903 1.7212903 0 0 1 1.7207031-1.7207031zm2.6914063 4.9414062c-0.8053124 0-1.4550781 0.6510991-1.4550781 1.4550781v4.7871098a1.453297 1.453297 0 0 0 1.4550781 1.455078h3.2402343v-1.875h-2.2597656a0.559986 0.559986 0 0 1-0.5585937-0.5625v-2.8222659a0.5573194 0.5573194 0 0 1 0.5585937-0.5605469h2.8281254c0.310658 0 0.558593 0.2512216 0.558593 0.5605469v6.2031249a0.559986 0.559986 0 0 1-0.558593 0.560547h-5.2636722v1.876953h6.2441402c0.803979 0 1.455079-0.649052 1.455079-1.457031v-8.1660158c0-0.803979-0.6511-1.4550781-1.455079-1.4550781h-4.7890621zm9.2011721 0a1.453297 1.453297 0 0 0-1.453125 1.4550781v4.7871098a1.453297 1.453297 0 0 0 1.453125 1.455078h4.791015c0.801313 0 1.453125-0.651099 1.453125-1.455078v-4.7871098c0-0.803979-0.651812-1.4550781-1.453125-1.4550781h-4.791015zm9.203125 0c-0.805312 0-1.457032 0.6510991-1.457032 1.4550781v4.7871098c1e-6 0.803979 0.65172 1.455078 1.457032 1.455078h3.238281v-1.875h-2.259766a0.559986 0.559986 0 0 1-0.55664-0.5625v-2.8222659a0.5586527 0.5586527 0 0 1 0.55664-0.5605469h2.828125a0.559986 0.559986 0 0 1 0.560547 0.5605469v6.2031249c0 0.307992-0.248555 0.560547-0.560547 0.560547h-5.263672v1.876953h6.244141c0.802646 0 1.455078-0.649052 1.455078-1.457031v-8.1660158c0-0.803979-0.652432-1.4550781-1.455078-1.4550781h-4.787109zm-8.220703 1.8769531h2.828125a0.5533195 0.5533195 0 0 1 0.552734 0.5605469v0.0039063 2.8183596a0.5546528 0.5546528 0 0 1-0.552734 0.5625h-2.828125a0.559986 0.559986 0 0 1-0.558594-0.5625v-2.8222659c0-0.3093253 0.247935-0.5605469 0.558594-0.5605469zm-10.197266 11.0507818c-0.7933127 0-1.4355469 0.641708-1.4355469 1.429687v4.720703c0 0.791979 0.6422342 1.433594 1.4355469 1.433594v0.003906h4.853516v-1.851562h-3.8886722c-0.3053254 0-0.5507813-0.248743-0.5507813-0.552735l0.0019531-0.003906h-0.0019531v-2.775391-0.001953a0.5519862 0.5519862 0 0 1 0.5507813-0.554687h3.8886722v-1.847656h-4.853516zm7.769531 0a1.4332975 1.4332975 0 0 0-1.435547 1.429687v4.720703c0 0.791979 0.640902 1.433594 1.435547 1.433594h4.71875c0.790646 0 1.433594-0.641615 1.433594-1.433594v-4.720703c0-0.787979-0.642948-1.429687-1.433594-1.429687h-4.71875zm9.06836 0c-0.794647 0-1.433594 0.641708-1.433594 1.429687v6.158203h1.847656v-5.185547a0.5519862 0.5519862 0 0 1 0.550781-0.554687h1.302735v5.736328h1.847656v-5.181641a0.5519862 0.5519862 0 0 1 0.550781-0.554687h1.300781v5.736328h1.851563v-7.583984h-7.818359zm-8.101563 1.847656h2.785156a0.5493196 0.5493196 0 0 1 0.550782 0.552734v0.003906 2.775391a0.5533195 0.5533195 0 0 1-0.550782 0.554687c-0.0027 0-0.001306-0.003906-0.003906-0.003906v0.003906h-2.777344v-0.003906s-0.001306 0.003907-0.003906 0.003906a0.5533195 0.5533195 0 0 1-0.550781-0.554687v-2.779297c0-0.305325 0.245456-0.552734 0.550781-0.552734z" clip-path="url(#clipPath1173)" stroke-width="1.3333"/></svg>
