<svg version="1.1" id="Layer_1" xmlns="http://www.w3.org/2000/svg" x="0px" y="0px" viewBox="0 0 494.1 187.6" style="enable-background:new 0 0 494.1 187.6;" xmlns:xlink="http://www.w3.org/1999/xlink" xml:space="preserve" data-inject-url="https://cdn.shopify.com/s/files/1/0014/1962/t/53/assets/logo-battletoads.svg?v=2518737685945920967" class="injectable">

<g>
	<path class="st0" d="M152,123.6c-0.6-10.2-2.3-16.1-13.4-22.8s-24.6-10.2-40.3-0.6c0,0,4.1-13.4-10.2-21.9s-27.2-0.6-34.2,5.3   c-7,5.8-25.1,27.5-25.1,27.5l12.3,20.2l5.8-11.4l66.1,34.8l-0.9,6.7l27.8-1.2c0,0,0-7.3,3.2-13.4   C146.2,140.5,152.6,133.8,152,123.6z M77.8,113L58.2,104c0,0,6.3-16.2,16.7-11.1C86.8,98.7,77.8,113,77.8,113z M124.3,135.8   L98,122.7c0,0,8.2-18.7,23.7-9.1C134.6,121.7,124.3,135.8,124.3,135.8z"/>
	<path class="st0" d="M180.4,92.9l15.2-5L127.2,40l-23.4,10.2l3.5,17l5.8-4.4l51.5,58.8l3.5-13.4l-15.2-21l8.5-7.3L180.4,92.9z    M145.3,79.4l-17.2-22.2l24.3,16.1L145.3,79.4z"/>
	<polygon class="st0" points="147.7,33.2 146.8,47.8 163.7,42.6 184.5,73 204.4,79.4 174.3,40 183,37.6 175.4,25.9  "/>
	<polygon class="st0" points="189.2,22.7 185.7,36.7 198.5,35 206.1,65.7 220.4,75.9 205.5,33.2 212,32.6 207.3,20.9  "/>
	<polygon class="st0" points="213.4,21.2 224.8,71.2 235.6,71.2 234.5,61.3 228.3,61.3 221.6,20.9  "/>
	<polygon class="st0" points="233.6,19.5 228.9,28.8 232.7,28.8 239.2,70.6 252.6,70.4 252.3,61.3 244.7,60.7 244.4,48.7    249.7,48.7 249.1,39.4 243.2,39.7 243.5,29.4 253.8,29.1 254.1,18.9  "/>
	<polygon class="st0" points="262.3,18.9 256.4,29.4 264.6,29.1 254.9,61.9 260.5,73 271,29.1 277.5,29.7 279.5,19.8  "/>
	<path class="st0" d="M322.5,28.5l-11.7,7.3l6.1,1.5l-38.6,43.3l8.8,0.9l8.5-10.8l7.3,1.2l-6.4,13.7l5.8,7l33-61.1L322.5,28.5z    M306.7,66.8l-5-2.3l11.1-11.7L306.7,66.8z"/>
	<path class="st0" d="M374.2,54.6c-2.9-12.3-17.5-16.7-17.5-16.7l-13.7,7l6.1,1.2l-43.9,46.2c0,0,6.1,12,17.2,13.7   c11.1,1.8,28.4-4.7,38-14.3S377.1,66.8,374.2,54.6z M362.8,63c-0.6,9.9-16.7,26.6-27.2,28.9s-14-2.6-14-2.6l37.7-34.2   C363.7,57.8,362.8,63,362.8,63z"/>
	<path class="st0" d="M356.4,107.2c0,0-12.9,1.5-17.8,3.5c0,0-5,22.8,6.1,35.1c11.1,12.3,23.7,15.2,34.8,12.9   c11.1-2.3,25.4-17.5,20.2-40.6c-5.3-23.1-3.2-32.2,9.6-33.9c12.9-1.8,22.5,11.1,24.3,19s0.9,14-8.8,17.5l3.5,12.9   c0,0,21.6-0.3,22.8-22.5s-19.4-39.9-34.1-43.1c-14.6-3.2-40.2,1.9-38.4,24.1s11,41.9-9.9,44.4C349.7,138.8,356.4,107.2,356.4,107.2   z"/>
	<path class="st0" d="M295,22.6c0,0-12.3-2.6-22.9,21c-10.6,23.5-1,29.3,0.2,30c1.2,0.6,11.2,2.2,22.3-18S299.7,23,295,22.6z    M292.1,40.1c-3.3,6.6-8.6,7.5-10.2,6.6c-1.6-0.9-4.7-4.4-0.4-12c4.9-8.6,9.8-6.4,9.8-6.4C293.2,29.4,295.4,33.5,292.1,40.1z"/>
	<path class="st0" d="M429.8,40.8c0,0,7.8-8.2,0.8-18.7c-7-10.5-27.7-9-31.6,5.8c0,0-12.9-14-41.7-4.7c0,0-11.9-22.3-45.4-10.2   c0,0-9.9-11-25.5-5.2c0,0-9.4-8.8-25.7,0.2c0,0-13.6-13.5-28.1-0.3c0,0-11.4-10.7-25.4-0.2c0,0-15.1-6.5-25.6,6   c0,0-26.2-14.4-45.7,9.7c0,0-35.1-14.4-54.2,17.9c0,0-40.1-6.6-63.5,24.9s-8.2,62.8,4.3,79.5c12.5,16.8,53.8,46,109.1,39.4   c55.4-6.6,53.4-49.5,50.7-55c0,0,30.8-3.1,26.9-28.8c0,0,8.6,1.2,12.1-8.2c0,0,8.7,0.7,11.7-6.2c0,0,5.1,3.5,10.1-0.8   c0,0,3.5,3.1,7.8-0.4c0,0,3.1,4.7,10.5,1.6c0,0,1.2,6.2,10.9,5.5c0,0,2.7,9.7,12.5,8.6c0,0-3.1,24.4,28.1,29.2   c0,0-8.6,30.1,22.2,47.2s91.2,5.8,117.3-14.4c26.1-20.3,36.3-43.7,36.3-66.3S460.6,44.7,429.8,40.8z M415.9,21.1   c6.5,0,11.7,4.7,11.7,10.6s-5.2,10.6-11.7,10.6c-6.5,0-11.7-4.7-11.7-10.6S409.5,21.1,415.9,21.1z M441.1,159.3   c-30.8,21.8-93.9,24.2-111.5,5.1c-17.5-19.1-9.7-37.4-9.7-37.4c-34.3-3.1-27.7-30-27.7-30c-13.6,0.8-16.4-9.4-16.4-9.4   c-9.4,0.4-12.9-7-12.9-7c-5.8,3.1-11.7-1.2-11.7-1.2c-4.3,2.3-8.6,0-8.6,0c-4.7,4.3-12.1,1.2-12.1,1.2c-2.3,7.4-12.5,7-12.5,7   c-3.9,9.7-16.4,9-16.4,9c5.1,29.6-26.9,30-26.9,30c4.3,21.8-5.1,49.9-56.9,51.1c-51.8,1.2-85.8-26.9-97.8-52.2   c-12.1-25.3-3.5-49.1,16-64.7c19.5-15.6,49.9-14,49.9-14C101.2,15.9,137,28.4,137,28.4c19.5-23.8,46.4-9.7,46.4-9.7   c8.6-13.6,24.6-7,24.6-7c13.6-8.6,24.6,0.8,24.6,0.8c17.2-12.9,28.5,0.4,28.5,0.4c14-9.7,24.9-0.4,24.9-0.4   c16.4-7.8,24.2,6.2,24.2,6.2c32-12.5,46.6,9.9,46.6,9.9s12.3-5.7,29.8-0.2c17.5,5.5,20.7,18.7,20.7,18.7   c56.5-1.2,70.9,33.9,71.7,51.8C479.7,116.8,471.9,137.5,441.1,159.3z"/>
	<polygon class="st0" points="410.3,24.4 409.3,25.7 411,26.3 407.7,31.4 409.7,32.3 412.8,27.3 414.9,28.1 415.9,26.4  "/>
	<polygon class="st0" points="416.7,27.1 412.4,33.6 414.5,34.5 417.1,30.2 416.7,33.9 417.8,34.3 420.7,32.6 418.1,36.6    420.3,37.4 424.7,30.3 422.4,29 419.3,30.9 419.4,28.1  "/>
</g>
</svg>