<svg enable-background="new 0 0 3839.5 1163.5" version="1.1" viewBox="0 0 3839.5 1163.5" xml:space="preserve" xmlns="http://www.w3.org/2000/svg">
<path d="m1903.5 0c-58.8999-1.8947787e-14 -113.0996 38.399664-113.0996 93.099609 0 58.599941 47.4997 99.900391 113.0996 99.900391s113.0996-41.30045 113.0996-99.900391c0-54.699945-54.1997-93.099609-113.0996-93.099609zm749.3008 1.3007812c-40.9 0-70.5 23.9992558-70.5 60.6992188 0 34.999965 21.8988 42.69962 55.2988 51.09961 11.4 2.8 32.3008 7.39962 32.3008 20.59961 0 12.69999-13.3008 18.20117-25.8008 18.20117-18.2 0-33.8992-8.40118-47.1992-18.70117l-22.8008 37.90039c20.9 12.89999 46.1004 20.59961 71.9004 20.59961 20.6 0 42-5.00001 58-17 16.2-12.19999 21.0996-30.69924 21.0996-48.69922 0-29.199971-21.9004-42.000398-50.4004-49.400391l-13.5996-3.599609c-9.2-2.699997-23.5996-6.700792-23.5996-17.300781 0-10.09999 13.0008-15.09961 22.8008-15.09961 13.1 0 25.4988 4.800008 35.2988 12l21.2012-36.40039c-18.2-9.0999911-43.4-14.8984378-64-14.8984378zm-1503.4004 4.6992188v180.80078h53.1992v-71h58.3008v-39.80078h-58.3008v-30.199219h64.2012v-39.800781h-117.4004zm169.5996 0-34.6992 181h52.8984l17-104.199219h0.6016l46.8984 104.199219h21.2012l49.0996-104.199219h0.5l14.9004 104.199219h53.1992l-30.9004-181h-52.8984l-44 96.69922-41.5-96.69922h-52.3008zm321.4004 0v39.800781h43.9004v141.199219h53.1992v-141.199219h43.9004v-39.800781h-141zm379.5996 0 60.9004 181h54l40.1992-104.900391h0.5l35.8008 104.900391h54.1992l65.4004-181h-55.3008l-38.5996 116.90039h-0.5l-40.0996-116.90039h-42.3008l-42.8984 116.90039h-0.5l-35.5-116.90039h-55.3008zm324.5 0v181h53.1992v-110.900391h0.5l97.4004 110.900391h53.2012v-181h-53.2012v110.69922h-0.5996l-97.4004-110.69922h-53.0996zm-440.9004 39.599609c31.8 0 57.8008 22.800807 57.8008 47.800782 0 31.199969-26.1008 53.999999-57.8008 53.999999-31.8 0-57.7988-22.80003-57.7988-53.999999 0-24.999975 25.9988-47.800782 57.7988-47.800782zm474.7012 223.800781-456.7227 2.29883h-81.6777v670.60156h185.5v-308.90039l530.0996 530.09961 131.1992-131.0996-376.9922-376.99415c61.1432-36.5735 116.7083-76.91201 165.3399-123.6875 7.6285-6.3738 14.4721-13.15595 20.3808-20.3457 0.0889-0.09273 0.1827-0.18067 0.2715-0.27344l-0.0234-0.00586c75.2483-92.03002 12.7898-242.32787-117.375-241.69336zm-1942.8008 2.29883c-48.59995 0-93.20002 26.80121-116 69.70117l-319.5 600.90039h210.09961l201.90039-379.60156 13.30078 379.60156h188.59961l207-389.40039v389.40039h185.50001v-617.60156c0-29.19997-23.70004-53-53.00001-53h-114.09961c-48.69995 0-93.30158 26.80121-116.10156 69.70117l-125.19922 235.5-8.90039-254.09961c-1-28.49997-24.40042-51.10156-52.90039-51.10156h-100.69922zm694.4004 0v168.60156h333.5c21.5 0 39.8996 15.39963 43.5996 36.59961l24.2695 137.57617-121.2695-143.07617-233.1992 122.29883c-170.9998 89.69991-107.301 348.5 85.7988 348.5h326.4824l0.0176 0.10156h89.3008c51.6999 0 90.8004-46.70005 81.9004-97.5l-79.3008-449.70117c-12.6-71.39993-74.5997-123.40039-147.0996-123.40039h-36.3008-367.6992zm1628.7988 0v0.02344h-192.3242v168.59961h192.3242v501.97851h185.5v-501.97851h192.4766v-168.59961h-192.4766v-0.02344h-185.5zm430 0v84.20117h-0.0996c0 207.49979 138.5009 322.60041 292.3008 345.40039l-11.3008 30.39844c-9.4 25.29997-33.5996 42-60.5996 42h-209.4004v168.60156h259.5c77.9999 0 147.9012-48.50163 175.2012-121.60156l205.1992-549h-198l-92.6992 248c-85.3747 4.89855-174.6465-49.56836-174.6992-163.69922h0.0976v-84.30078h-185.5zm-1163.2988 168.70117h253.2988c11.959 0 16.9484 15.18707 7.4805 22.31836l-0.0801-0.01953c-77.7644 61.4435-158.5417 106.00477-260.6992 145.1289v-167.42773zm-493.6816 176.61914 27.6386 156.67969h-246.1582c-20.6 0-27.3996-27.69884-9.0996-37.29883l227.6192-119.38086z"/>
</svg>
