<?xml version="1.0" encoding="utf-8"?>
<!-- Generator: Adobe Illustrator 25.1.0, SVG Export Plug-In . SVG Version: 6.00 Build 0)  -->
<svg version="1.1" id="Layer_1" xmlns="http://www.w3.org/2000/svg" xmlns:xlink="http://www.w3.org/1999/xlink" x="0px" y="0px"
	 viewBox="0 0 3839.5 1163.5" style="enable-background:new 0 0 3839.5 1163.5;" xml:space="preserve">
<style type="text/css">
	.st0{fill:#080E0E;}
	.st1{fill:#0084C9;}
	.st2{fill:#FFFFFF;}
</style>
<g>
	<g>
		<rect x="1839.9" y="271.7" width="185.5" height="670.6"/>
		<polygon points="2686.7,1032.4 2555.5,1163.5 2017.6,625.6 2190.8,536.5 		"/>
		<path d="M1760.3,844.8L1681,395.1c-12.6-71.4-74.6-123.4-147.1-123.4h-36.3h-367.7v168.6h333.5c21.5,0,39.9,15.4,43.6,36.6
			l82.1,465.4l89.3,0C1730.1,942.3,1769.2,895.6,1760.3,844.8z"/>
		
			<rect x="2767.2" y="70.8" transform="matrix(-5.028518e-07 1 -1 -5.028518e-07 3207.4766 -2495.4775)" width="168.6" height="570.3"/>
		<path d="M1304.1,736.4l228.8-120l-122.9-145l-233.2,122.3c-171,89.7-107.3,348.5,85.8,348.5l404.6,0V773.7h-354
			C1292.6,773.7,1285.8,746,1304.1,736.4z"/>
		<path d="M723.2,341.4L598,576.9l-8.9-254.1c-1-28.5-24.4-51.1-52.9-51.1H435.5c-48.6,0-93.2,26.8-116,69.7L0,942.3l210.1,0
			l201.9-379.6l13.3,379.6l188.6,0l207-389.4l0,389.4h185.5V324.7c0-29.2-23.7-53-53-53l-114.1,0C790.6,271.7,746,298.5,723.2,341.4
			z"/>
		<rect x="2758.7" y="271.7" width="185.5" height="670.6"/>
		<rect x="3188.7" y="271.7" width="185.5" height="84.3"/>
		<path d="M3839.5,271.7h-198l-92.7,248c-85.4,4.9-174.7-49.6-174.7-163.8h-185.5c0,207.5,138.5,322.6,292.3,345.4l-11.3,30.4
			c-9.4,25.3-33.6,42-60.6,42l-209.4,0v168.6l259.5,0c78,0,147.9-48.5,175.2-121.6L3839.5,271.7z"/>
		<path d="M2467.9,537.5c115.2-85.8,54-268.8-89.6-268.1l-476.9,2.4v168.6h377.3c12,0,17,15.3,7.4,22.4"/>
		<path d="M2286.1,462.7c-81,64-165.2,109.7-273.5,150c38.6,49,79.5,85.9,127.9,130.5c139.7-64.4,261.8-134.5,355.2-232.1"/>
	</g>
	<g>
		<path d="M1202.6,45.8v30.2h58.3v39.8h-58.3v71h-53.2V6h117.4v39.8H1202.6z"/>
		<path d="M1319,6h52.3l41.5,96.7L1456.8,6h52.9l30.9,181h-53.2l-14.9-104.2h-0.5L1422.9,187h-21.2l-46.9-104.2h-0.6L1337.2,187
			h-52.9L1319,6z"/>
		<path d="M1737.5,187h-53.2V45.8h-43.9V6h141v39.8h-43.9V187z"/>
		<path d="M2016.6,93.1c0,58.6-47.5,99.9-113.1,99.9c-65.6,0-113.1-41.3-113.1-99.9c0-54.7,54.2-93.1,113.1-93.1
			C1962.4,0,2016.6,38.4,2016.6,93.1z M1845.8,93.4c0,31.2,26,54,57.8,54c31.7,0,57.8-22.8,57.8-54c0-25-26-47.8-57.8-47.8
			C1871.8,45.6,1845.8,68.4,1845.8,93.4z"/>
		<path d="M2110.8,122.9h0.5L2154.2,6h42.3l40.1,116.9h0.5L2275.7,6h55.3l-65.4,181h-54.2l-35.8-104.9h-0.5L2134.9,187h-54L2020,6
			h55.3L2110.8,122.9z"/>
		<path d="M2344.4,6h53.2l97.4,110.7h0.6V6h53.2v181h-53.2l-97.4-110.9h-0.5V187h-53.2V6z"/>
		<path d="M2695.6,52.6c-9.8-7.2-22.2-12-35.3-12c-9.8,0-22.8,5-22.8,15.1c0,10.6,14.4,14.6,23.6,17.3l13.6,3.6
			c28.5,7.4,50.4,20.2,50.4,49.4c0,18-4.9,36.5-21.1,48.7c-16,12-37.4,17-58,17c-25.8,0-51-7.7-71.9-20.6l22.8-37.9
			c13.3,10.3,29,18.7,47.2,18.7c12.5,0,25.8-5.5,25.8-18.2c0-13.2-20.9-17.8-32.3-20.6c-33.4-8.4-55.3-16.1-55.3-51.1
			c0-36.7,29.6-60.7,70.5-60.7c20.6,0,45.8,5.8,64,14.9L2695.6,52.6z"/>
	</g>
</g>
</svg>
