<svg enable-background="new 0 0 400 193.402" version="1.1" viewBox="0 0 400 193.402" xmlns="http://www.w3.org/2000/svg"><path d="m236.36914 0.005859375c-1.04671-0.020737314-2.12706 0.050625172-3.23828 0.222656245l-23.21289 3.66992188c-11.85299 1.9049981-24.55355 14.7447465-26.81055 27.3027345l-6.49023 34.71289c-2.328 12.487988 6.20951 22.012733 18.0625 20.177735l7.75976-1.199219 23.77539-18.345703-3.10351-12.275391-1.76367 0.210938-0.56446 3.035156c-0.423 2.116998-2.0458 3.80911-4.09179 4.16211l-11.99414 1.90625c-1.975 0.281999-3.10396-0.918159-2.75196-3.035157l6.06836-32.52539c0.353-2.116998 2.04549-3.809798 4.02149-4.091797l11.99414-1.904297c1.97499-0.282 3.10395 0.916205 2.75195 3.033203l-0.77539 4.164062 24.26953-3.880859 0.91602-4.939453c2.10974-11.3172387-4.70409-20.19992992-14.82227-20.40039062zm-72.77148 11.09179662c-0.68057 0.025771-1.37452 0.092875-2.08008 0.203125l-46.21094 7.337891-9.80859 52.914062-42.542972 6.773438c-3.597996 0.563999-7.127032 4.092347-7.832031 7.902344l-15.591797 85.720704c-0.705999 3.80999 1.62466 6.42142 5.222656 5.85742l81.134764-12.91211 6.56055-35.27734 3.3164-0.49414c3.669-0.564 3.10344-1.19798 2.39844 2.54101l-5.99609 32.3125 29.20898-4.72265 0.21094-0.98829c0.776 0.071 1.76338 0.3539 2.60938 0.2129l22.57812-3.5293c-0.847 4.51499-6.77401 5.64564-15.875 7.05664l-10.30078 1.62305-5.50195 29.77148 13.54492-2.11719c33.37196-3.31599 46.14306-20.53083 50.16406-41.13281l40.70898-6.49023 6.56055-35.27735 3.31641-0.56445c3.59799-0.564 3.10343-1.19798 2.39844 2.54102l-5.9961 32.3125 29.20899-4.65626 0.42187-2.11718c2.187 0.988 4.79752 1.34001 7.47852 0.91601l50.51758-8.04297 4.72656-25.39843-3.2461-2.32813c2.822-3.386995 5.07985-7.478548 5.71485-10.935545l0.77734-4.021484c2.54-14.956985-11.28936-18.908874-17.56836-17.921875l-28.99805 4.585937c-5.14999 0.846999-10.79472 4.374567-14.88671 9.101563-3.81-3.738997-9.66605-5.222203-13.12305-4.658204l-32.3125 5.150391 3.59766 7.972656 29.13867-4.585937c4.23299-0.634999 6.98572 0.988691 7.76172 4.304687-0.282 0.847-7.76172 40.638671-7.76172 40.638671l-10.44141 1.62305 5.57227-30.05664c0.706-3.738999-0.4228-5.007361-4.0918-4.443362l-20.03711 3.173832-6.56055 35.27734-11.5 1.83398 7.47852-40.42773-9.45313-11.146484-33.93554 12.417968 16.08594-2.541015 0.28124-0.070313-10.23046 55.171874c-2.61 14.03999-17.56805 27.37619-30.83204 29.49219l-13.54492 2.11719 2.04492-11.00586 10.30274-1.62305c9.10099-1.411 19.25944-10.51212 21.02344-20.03711l1.1289-5.99805-26.88086 4.23438c-5.78499 0.917-8.88876-2.61169-7.75976-8.67969l4.79687-25.89258c0.847-4.58599 3.73884-8.46541 7.54883-10.4414l0.07227-0.70703 13.47461-10.371098-7.90039 1.341797c-4.163 0.634999-11.9946 3.81085-16.9336 10.089841-3.73899-4.444993-10.2307-6.209528-13.9707-5.644529l-28.99609 4.585939 4.72656-25.398439 21.16601-3.388672c11.21799-1.763998 23.70558-14.461465 25.89258-26.314453l3.17578-17.074218c2.05031-11.177802-5.13921-20.062343-15.34765-19.675782zm-12.31055 22.359375c1.905-0.281999 2.89206 0.776268 2.53906 2.822266l-2.67969 14.322265c-0.353 2.045998-1.83523 3.528548-3.74023 3.810547l-14.60352 2.328125 3.87891-20.955078 14.60547-2.328125zm61.02734 2.259766c-1.058-0.07-1.90461 0.705673-1.97461 1.763672s0.70568 1.904609 1.76368 1.974609c21.37797 0.986999 42.26291 3.174925 62.08789 6.419922h0.28125c0.917 0 1.69329-0.63447 1.90429-1.480469 0.141-1.057999-0.56473-2.0465-1.55273-2.1875-19.89598-3.245997-40.92079-5.432235-62.50977-6.490234zm86.64063 2.890625-58.27735 23.21289-16.36718-17.003906 5.2207 23.634766-49.59961 37.746098 58.27734-23.212895 16.36719 17.003906-5.2207-23.564453 49.59961-37.816406zm-193.24414 2.1875c-30.760972 4.796995-56.796958 12.488994-75.21094 22.083984-19.472981 10.15999-29.98546924 22.364404-30.48046875 35.275391-0.63499936 15.662983 13.19393275 30.832463 40.00390675 43.814453 0.282999 0.141 0.565656 0.21094 0.847656 0.21094 0.705999 0 1.410359-0.3536 1.693359-1.0586 0.494-0.988 0.071296-2.11606-0.845703-2.53906-24.975975-12.06499-38.4526713-26.38617-37.8886719-40.285155 0.9169991-23.352977 40.1463749-43.955041 102.4453119-53.832031 0.988-0.142 1.69178-1.059189 1.55078-2.117188-0.142-0.987999-1.05723-1.693734-2.11523-1.552734zm188.72851 5.148437c-1.059-0.210999-2.04581 0.494423-2.25781 1.482422-0.211 1.058999 0.49247 2.045813 1.48047 2.257813 31.11397 6.560993 57.14927 15.734307 75.28125 26.529297 18.20298 10.794989 27.65573 22.718011 27.30273 34.499999-0.987 33.58297-80.35858 59.6875-180.89648 59.6875h-1.55273c-1.058 0-1.9043 0.84825-1.9043 1.90625s0.8463 1.9043 1.9043 1.9043h1.55273c49.17595 0 95.03536-6.20869 129.11133-17.63867 35.20596-11.71199 54.96139-28.0094 55.52539-45.85938 0.424-13.193986-9.66569-26.24737-29.13867-37.818359-18.55499-10.934989-44.94124-20.248178-76.40821-26.951172zm-48.75195 4.658203-9.66602 1.552735c-1e-3 0 7.40821 6.984375 7.40821 6.984375 0.635-1.692998 1.05911-2.327799 1.41211-4.091797l0.8457-4.445313zm100.32812 26.167969c3.61988 0.553492 5.95082 4.929255 5.14844 9.25l-1.34179 6.914063c-0.917 4.938995-5.99673 10.229546-10.51172 10.935546l-27.86914 4.44531-0.42188 2.46875c-0.564 2.822 1.34118 5.07925 3.95117 4.65625l31.11328-4.9375-2.11718 11.28711-35.13672 5.57422c-5.996 0.917-11.14431-3.73872-9.94531-10.51172l3.95117-21.449216c1.27-6.772993 8.53514-13.404579 14.74414-14.392578l26.81054-4.232422c0.56438-0.08825 1.10788-0.086883 1.625-0.007813zm-242.14062 4.947266-2.04688 11.005859-28.150386 4.445313-4.304687 23.140621 22.931641-3.66992-2.046876 11.00586-22.929687 3.74024-4.304687 23.14062 36.478515-5.78516-2.259765 12.13672-47.97461 7.61914 14.957031-80.501949 39.650391-6.277344zm232.61328 6.138672-5.57422 0.845703-8.88867 1.412109-2.25781 0.353516c-2.68 0.421999-5.57341 3.384347-6.06641 6.277344l-0.21289 1.341797 21.73047-3.457032c1.693-0.281999 3.38628-1.975861 3.73828-3.880859 0.353-1.904998-0.77575-3.174578-2.46875-2.892578zm-96.02148 5.361328-8.60742 46.351563-11.5 1.83398 8.60742-46.283199 0.28125-0.138672 11.21875-1.763672zm-131.93555 7.054683-7.33789 39.6504-27.16211 4.30468 0.988281-5.5039 21.941407-3.45704 5.361332-28.64453-21.941411 3.45703 0.988282-5.5039 27.162109-4.30274zm47.05469 6.49219c4.45437 0.14373 6.70857 3.50691 5.7207 8.81641l-6.63281 36.19531-11.5 1.83399 5.57422-30.05665c0.706-3.73899-0.4228-5.00931-4.0918-4.44531l-20.03711 3.17578-6.56055 35.27735-11.5 1.83398 8.60547-46.35351 0.28321-0.07032 38.09961-6.06836c0.72312-0.11462 1.40272-0.1592 2.03906-0.13867zm51.57812 2.46875-21.02344 3.31641c-3.66799 0.564-5.36336 2.2561-6.06835 5.99609l-2.53907 13.82813c-0.706 3.80999 0.4228 5.00931 4.0918 4.44531l21.02539-3.31641 4.51367-24.26953zm-11.00586 10.36914-1.05664 5.50391-3.3164 0.49414c-3.528 0.495-5.15063 1.48143-4.51563-1.97656 0.706-3.528 1.97522-2.96235 5.57422-3.52735l3.31445-0.49414z" fill="#f00"/></svg>
