<svg version="1.1" viewBox="673.396 509.685 691.322 126.382" xmlns="http://www.w3.org/2000/svg"><path d="m673.396 509.685v10.26953h9.93945v112.81641h11.94141v-112.81641h9.9375v-10.26953h-31.81836zm639.2031 17.92969c-3.6288-0.14753-7.2724 0.07001-10.8594 0.66601-18.0739 2.743-34.1745 15.42255-41.2265 32.26953-7.14 16.52299-5.3155 36.57163 4.8144 51.47461 9.726 14.75299 27.0645 24.19325 44.7735 24.03125 11.831 0.232 23.6385-3.75886 33.0625-10.88086 8.621-6.50899 15.2853-15.63349 18.6933-25.89648 3.975-11.61199 3.7787-24.565-0.4043-36.08398-3.616-9.82399-10.0839-18.59909-18.5019-24.83008-8.709-6.5865-19.4651-10.30741-30.3516-10.75zm-562.94529 2.81836c-0.081 30.67397-0.01215 61.34361-0.03515 92.01757h-11.86133c-0.023-30.66896 0.0397-61.34274-0.0293-92.01171-3.511 0.046-7.01535 0.01143-10.52734 0.02343 0.017 30.54697-0.04071 61.09366 0.02929 91.64063-0.145 5.50199 4.55957 10.646 10.10157 10.75 4.24099 0.029 8.48556 0.01172 12.72656 0.01172 4.56499 0.018 8.91683-3.36799 9.92383-7.83399 0.526-2.07699 0.29984-4.24628 0.33984-6.36328 5e-3 -29.39497-0.02342-58.79153 0.01758-88.1875-3.564-0.046-7.12155 0.01713-10.68555-0.04687zm170.28516 0.00976c-1.609 0.02025-3.20717 0.1433-4.76367 0.5918-2.893 1.024-5.30677 3.32081-6.50977 6.13281-0.885 1.984-0.65278 4.21027-0.67578 6.32227 0.012 26.22497 6e-3 52.44995 0 78.66992-0.133 4.50699 3.21049 8.51042 7.27148 10.10742 1.921 0.787 4.03151 0.58456 6.0625 0.60156 3.465-0.046 6.93721 0.05171 10.40821-0.02929 3.87099-0.376 7.11605-3.29208 8.74804-6.70508 1.053-2.124 0.74611-4.54703 0.78711-6.83203-6e-3 -26.24898-0.012-52.49712 0-78.7461 0.105-3.81199-2.74227-7.0529-5.94726-8.7539-3.223-1.776-7.02974-1.2728-10.55274-1.3418-1.59949 0.0435-3.21912-0.03783-4.82812-0.01758zm-132.85938 0.01953-0.00195 102.40039h10.11914c0.012-15.95598-1.4e-4 -31.91692 0.00586-47.8789 1.209 6e-3 2.42381 0.00572 3.63281 0.01172 3.657 15.96198 7.37121 31.90715 11.03321 47.86914 3.30899 0 6.61873 0.00614 9.92773-0.00586-3.46-16.15299-6.84888-32.31758-10.29687-48.47656 4.98099-0.897 8.21586-5.94317 8.25585-10.78516 0.017-11.18899 0.017-22.38328 0-33.57227-0.05199-5.51899-5.58972-9.4349-10.76171-9.5039-7.301-0.139-14.61307-0.0186-21.91407-0.0586zm61.44727 0.02344c0.07 34.12797-0.02313 68.26057 0.04687 102.39453 7.66-0.046 15.31267 0.00138 22.97266-0.01562 3.46-0.029 7.01164-1.8706 8.55664-5.0586 1.429-2.63799 0.89724-5.70241 0.99024-8.5664 0.272-6.74 0.09253-13.48657 0.14453-20.22657-0.058-4.41399 0.14403-8.83333-0.16797-13.23632-0.191-2.777-2.16322-4.98274-4.19922-6.67774 2.106-1.874 4.25166-4.24505 4.22266-7.24804-0.012-10.80699 0.01728-21.61503-0.01172-32.41602-0.174-4.923-4.74966-8.93973-9.59766-8.92773-7.64899-0.104-15.30304-0.03849-22.95703-0.02149zm-39.17383 10.09961c-6e-3 11.14299 0.01728 22.28475-0.01172 33.42773-3.90499-0.03399-7.80413-0.00962-11.70312-0.01562-6e-3 -11.13699 0.00614-22.26926-0.00586-33.40625 3.90499-0.012 7.80871 1.4e-4 11.7207-0.00586zm49.75586 0c3.911 6e-3 7.81457-0.01228 11.72656 0.01172-0.024 11.13099-0.00572 22.2634-0.01172 33.40039-3.90499 6e-3 -7.80398-0.00614-11.70898 0.00586-0.012-11.13699-0.00586-22.28098-0.00586-33.41797zm60.02344 0.14648h11.28125c6e-3 27.13898-0.00614 54.27886 0.00586 81.42383-3.766 0.012-7.53298 0.012-11.29297 0 0.012-27.13897-1.4e-4 -54.28485 0.00586-81.42383zm355.09177 17.92188c4.101 0.04 8.2037-0.04027 12.3067 0.05273-0.058 13.43299 0.0057 26.8668-0.0293 40.30079 1.926 0.012 3.859 0.01171 5.791 0.01171 0 2.123-6e-3 4.24029 0 6.36329h-18.0781c-6e-3 -2.123-6e-3 -4.24029 0-6.36329h5.7851c-6e-3 -11.33298 0.0062-22.66015-0.0058-33.99414-1.933 6e-3 -3.8603 0.00586-5.7813 0.00586a616.231 616.231 0 0 1 0.0117-6.37695zm68.8985 0.15039a165.09 165.09 0 0 1 3.5761 3.62109c-0.046 2.795-0.0234 5.59663-0.0234 8.39063-1.88 0-3.7549-1.4e-4 -5.6289 0.00586-0.018-1.979-0.0177-3.9585-0.0117-5.9375h-37.3164c0.018 4.73199-0.0459 9.47113 0.0351 14.20312 13.156-0.081 26.3108 0.01308 39.4668-0.04492 1.14 1.209 2.5812 2.21597 3.4082 3.66797 0.128 5.439-0.0045 10.87632 0.0645 16.32031 0.463 2.835-2.6673 4.14151-4.1543 6.0625h-40.4746c-1.331-1.452-3.0022-2.64997-4.0782-4.29297-0.127-12.71598-0.0177-25.43245-0.0527-38.14843 1.319-1.267 2.4876-2.70693 3.9746-3.79493 13.734-0.11599 27.4749-0.00673 41.2149-0.05273zm-484.00199 25.88477c3.899 0.024 7.80413 0.00572 11.70312 0.01171 6e-3 12.67499-0.01114 25.35122 0.00586 38.03321-3.90499 0.018-7.8157-1.4e-4 -11.7207 0.00586 6e-3 -12.68199-0.01728-25.3688 0.01172-38.05078zm444.88669 0.44531c-0.017 4.56999 0.0305 9.13408-0.0215 13.70508 12.202 0.075 24.4083 0.01215 36.6153 0.03515 0-4.58199-0.0062-9.15838 0.0058-13.73437-12.202-0.012-24.4036 1.4e-4 -36.5996-0.00586z" fill="#f79226"/><path d="m971.195 520.898c-0.226-5.253 4.004-10.263 9.17-11.062 4.218-0.162 8.441 6e-3 12.664-0.069 6.081-0.642 11.768 5.097 11.444 11.114-0.01 6.034-0.023 12.068 0.01 18.097-3.622 0.035-7.238 0.012-10.859 0.017-0.017-6.133 0.035-12.259-0.029-18.392-4.032 0.041-8.065 0.029-12.097 6e-3 -0.052 34.042-6e-3 68.089-0.023 102.13 4.154-0.017 8.308 0.035 12.468-0.035-0.064-16.477-0.012-32.954-0.029-49.431h-5.496v-9.835c5.34-0.012 10.686 0.023 16.031-0.017 0.029 23.107 0.058 46.214-0.017 69.315-7.457-0.046-14.915-6e-3 -22.372-0.012-4.339 0.012-8.643-2.748-10.246-6.81-0.856-2.123-0.567-4.449-0.607-6.676-2e-3 -32.779 9e-3 -65.56-8e-3 -98.34zm61.326 9.569c7.087 6e-3 14.18-0.035 21.267 0.017 4.368-0.052 8.834 2.326 10.697 6.364 0.764 1.522 0.566 3.263 0.596 4.906-0.029 10.796 0 21.591-0.017 32.387-0.237 4.576-3.477 9.239-8.192 10.032 3.5 16.164 6.896 32.352 10.304 48.54-3.309 6e-3 -6.613 6e-3 -9.916 6e-3 -3.68-16.02-7.394-32.022-11.079-48.036-1.18 0.012-2.355 0.017-3.529 0.023-0.011 16.055 0.017 32.109-0.017 48.164-3.373-0.017-6.746 6e-3 -10.112-0.017 0.015-34.129 0-68.257 0-102.386zm10.275 9.974v33.266c3.952 6e-3 7.903-6e-3 11.854 6e-3 0.017-11.091 0.01-22.181 0.01-33.272zm49.76-0.474c0.023-4.651 3.894-9.118 8.626-9.338 4.646-0.064 9.292 6e-3 13.937-0.035 2.372-0.041 4.837 0.567 6.7 2.1 2.152 1.736 3.28 4.53 3.275 7.272-0.01 30.917 0 61.835 0 92.752h-9.98c-0.01-16.199 0.01-32.404-0.01-48.603-4.142 6e-3 -8.285 0.012-12.421-6e-3 -0.029 16.205 0.01 32.41-0.023 48.615-3.373-0.012-6.74-6e-3 -10.113-6e-3 0.01-30.916-0.012-61.834 0.01-92.751zm10.408 1.053c0.017 10.952-0.035 21.904 0.023 32.855 3.946-0.046 7.891-0.017 11.837-0.023-0.01-10.946 0.012-21.892-0.012-32.838-3.951 0.012-7.896 0-11.848 6e-3zm47.585-1.62c0.035-4.49 3.963-8.719 8.51-8.788 5.699-0.023 11.391 6e-3 17.09-6e-3v9.112c-5.103-0.012-10.206 0.023-15.302-0.023-0.064 11.438-0.017 22.87-0.023 34.308 4.189-0.012 8.383-6e-3 12.578-6e-3 0 3.373-0.012 6.746 0.01 10.119-4.194 0.012-8.389 6e-3 -12.583 0-0.017 16.199 0 32.404-0.01 48.603h-10.269c0.01-31.108-1e-3 -62.216-1e-3 -93.319zm51.057-8.794h10.703c0.064 9.459-0.133 18.93 0.093 28.383 1.817 3.032 3.934 5.884 5.832 8.875 1.863-2.927 4.044-5.664 5.722-8.707 0.162-9.505 0.035-19.028 0.058-28.54 3.575-0.017 7.151-0.023 10.726 0-0.035 6.798-0.01 13.596-0.012 20.394-0.04 3.159 0.301 6.422-0.868 9.442-2.372 6.323-5.942 12.103-9.488 17.813 4.032 6.48 8.406 13.04 10.258 20.527 0.214 11.351 0.058 22.725 0.075 34.082-3.321-0.023-6.636-6e-3 -9.957-0.012-0.035-11.409 0.069-22.818-0.046-34.221-1.678-3.454-4.206-6.474-6.219-9.754-2.071 3.17-4.247 6.266-6.329 9.424-0.01 11.525 0.052 23.049-0.023 34.574-3.512-0.052-7.018-0.012-10.524-0.023-0.01-10.703 0.012-21.406-0.01-32.109-0.046-2.904 1.342-5.56 2.494-8.146 2.494-5.01 5.409-9.806 8.528-14.452-4.177-6.404-8.823-12.803-10.888-20.261-0.303-9.082-0.042-18.194-0.129-27.289z" fill="#d5e14d"/></svg>
