<svg enable-background="new 0 0 3840 356.9" version="1.1" viewBox="0 0 3840 356.9" xml:space="preserve" xmlns="http://www.w3.org/2000/svg">
<path d="m718 0c-8.49999 0-16.39961 4.7992267-21.09961 12.699219l-49 82.701172v261.499999h334.5v-75.70117h-232.30078v-64.39844h187.59961l44.80078-75.70117h-232.40039v-10.40039l24.70117-41.798829c4.7-7.799993 12.59962-12.59961 21.09961-12.59961h186.5v-75.70117162l-154.80078-0.59960938h-109.59961zm383.4004 0c-11 0-21.2008 6.2000103-27.3008 16.5l-59.0996 99.80078v200.19922c0 22.29998 15.8996 40.40039 35.5996 40.40039h40.4004 26.0996 170.5996 66.6016c19.6 0 35.5996-18.10041 35.5996-40.40039v-35.30078-139.69922h-0.5996-10.9004-90.8008-32.4004l-44.5996 75.40039h43.5996v0.29883h33.5v64.10156h-170.6992v-129.70117l37.0996-62.59961c4.7-7.999992 12.5996-12.800781 21.0996-12.800781h194.2012v-75.59960962h-162.9004l0.4004-0.59960938h-105.5zm2474.0996 0c-8.5 0-16.3996 4.7992267-21.0996 12.699219l-49 82.701172v261.499999h334.5996v-75.70117h-232.4004v-64.39844h187.5996l44.8008-75.70117h-232.4004v-10.40039l24.7012-41.798829c4.8-7.799993 12.6992-12.59961 21.1992-12.59961h186.5v-75.70117162l-154.9004-0.59960938h-109.5996zm-3337.59961 0.59960938c-16.79998 0-32.5004 9.50040662-41.90039 25.40039062l-196 330.90039h123.09961l157.40039-265.800781h62.30078l-157.40039 265.800781h123.09961l164.30078-277.499999c2.1-3.499997 6.89844-1.799606 6.89844 2.40039v275.199219h102.10156v-356.4003906h-158.5c-16.79998 0-32.5004 9.50040662-41.90039 25.40039062l-20.90039 35.400391v-60.80078162h-122.59961zm1204.29881 0v356.3007806h102.1016v-139.70117-140.898439h17c9.9 0 19.1988 5.60001 24.7988 15l74.5996 125.898439h-116.2988l44.7988 75.70117h0.2012 116.1992l37.9004 64.09961h123v-0.09961l-195.8008-330.599609c-9.5-15.999984-25.3984-25.70117163-42.3984-25.70117162h-186.1016zm584.5 0v356.3007806h257.3008 22c22.2 0 43.0004-12.60002 55.4004-33.5l72.5-122.40039c2.6-4.4 4-9.70001 4-15v-14.5c0-5.29999-1.4-10.6-4-15l-72.4004-122.400391c-12.4-20.899979-33.1004-33.49999962-55.4004-33.49999962h-87.5996-191.8008zm422.8008 0v356.3007806h102.0996v-280.599609h129.5996c4.1 0 7.9012 2.299613 10.2012 6.09961l8 13.599609c2.8 4.7 2.8 10.8 0 15.5l-39.8008 67.19922h-53.5996l105.5 178.20117h123.0996l-78.6992-132.90039 58.6992-99.09961c2.6-4.39999 4-9.7 4-15v-12.300781c0-5.299994-1.4-10.600004-4-15l-28.6992-48.5c-12.4-20.899979-33.2004-33.49999962-55.4004-33.49999962h-87.5-193.5zm448.5 0v356.3007806h102.0996v-356.3007806h-102.0996zm141 0v151.9003906l121 204.40039h123.0996 41.2012l121.0996-204.40039v-151.9003906h-102.2012v116.5136706l-101.0508 170.63672-101.0488-170.63477v-116.5156206h-102.0996zm-910.0996 75.70117162h134.5l51.0996 86.298829c5.8 9.79999 5.8 22.50079 0 32.30078l-51.0996 86.40039h-134.5v-204.999999z"/>
</svg>
