<?xml version="1.0" encoding="utf-8"?>
<!-- Generator: Adobe Illustrator 25.1.0, SVG Export Plug-In . SVG Version: 6.00 Build 0)  -->
<svg version="1.1" id="Layer_1" xmlns="http://www.w3.org/2000/svg" xmlns:xlink="http://www.w3.org/1999/xlink" x="0px" y="0px"
	 viewBox="0 0 3840 356.9" style="enable-background:new 0 0 3840 356.9;" xml:space="preserve">
<style type="text/css">
	.st0{fill:#0C0002;}
	.st1{fill:#FFFFFF;}
	.st2{fill:#FFFFFF;stroke:#000000;stroke-width:6.1889;stroke-linecap:round;stroke-linejoin:round;stroke-miterlimit:10;}
	.st3{fill:#FFFFFF;stroke:#000000;stroke-width:6.1889;stroke-miterlimit:10;}
	.st4{fill:#F3FFFD;}
	.st5{stroke:#FFFFFF;stroke-width:6.1889;stroke-miterlimit:10;}
</style>
<g>
	<rect x="2898" y="0.6" width="102.1" height="356.3"/>
	<g>
		<polygon points="3141.1,119.8 3039,152.5 3039,0.6 3141.1,0.6 		"/>
		<polygon points="3445.4,152.5 3343.2,119.8 3343.2,0.6 3445.4,0.6 		"/>
		<polygon points="3160,356.9 3283.1,356.9 3072.1,0.6 3039,152.5 		"/>
		<polygon points="3324.3,356.9 3201.2,356.9 3412.2,0.6 3445.4,152.5 		"/>
	</g>
	<path d="M381.4,26l-20.9,35.4V0.6H237.9c-16.8,0-32.5,9.5-41.9,25.4L0,356.9h123.1L280.5,91.1h62.3L185.4,356.9h123.1L472.8,79.4
		c2.1-3.5,6.9-1.8,6.9,2.4v275.2h102.1V0.6H423.3C406.5,0.6,390.8,10.1,381.4,26z"/>
	<path d="M795.9,76.3h186.5V0.6L827.6,0H718c-8.5,0-16.4,4.8-21.1,12.7l-49,82.7v261.5h334.5v-75.7H750.1v-64.4h187.6l44.8-75.7
		H750.1v-10.4l24.7-41.8C779.5,81.1,787.4,76.3,795.9,76.3z"/>
	<path d="M3653.5,76.3H3840V0.6L3685.1,0h-109.6c-8.5,0-16.4,4.8-21.1,12.7l-49,82.7v261.5H3840v-75.7h-232.4v-64.4h187.6l44.8-75.7
		h-232.4v-10.4l24.7-41.8C3637.1,81.1,3645,76.3,3653.5,76.3z"/>
	<path d="M1866.5,356.9L1670.7,26.3c-9.5-16-25.4-25.7-42.4-25.7h-186.1v356.3h102.1V217.2V76.3h17c9.9,0,19.2,5.6,24.8,15
		l74.6,125.9h-116.3l44.8,75.7h0.2h116.2l37.9,64.1H1866.5z"/>
	<path d="M1389.3,141.5h-10.9h-90.8h-32.4l-44.6,75.4h43.6v0.3h33.5v64.1H1117V151.6l37.1-62.6c4.7-8,12.6-12.8,21.1-12.8h194.2V0.6
		h-162.9l0.4-0.6h-105.5c-11,0-21.2,6.2-27.3,16.5l-59.1,99.8v200.2c0,22.3,15.9,40.4,35.6,40.4h40.4h26.1h170.6h66.6
		c19.6,0,35.6-18.1,35.6-40.4v-35.3V141.5H1389.3z"/>
	<path d="M2361.5,34.1c-12.4-20.9-33.1-33.5-55.4-33.5l-87.6,0h-191.8v356.3l257.3,0h22c22.2,0,43-12.6,55.4-33.5l72.5-122.4
		c2.6-4.4,4-9.7,4-15v-14.5c0-5.3-1.4-10.6-4-15L2361.5,34.1z M2263.4,281.3h-134.5V76.3h134.5l51.1,86.3c5.8,9.8,5.8,22.5,0,32.3
		L2263.4,281.3z"/>
	<path d="M2755.9,224l58.7-99.1c2.6-4.4,4-9.7,4-15V97.6c0-5.3-1.4-10.6-4-15l-28.7-48.5c-12.4-20.9-33.2-33.5-55.4-33.5H2643
		l-193.5,0v356.3h102.1V76.3h129.6c4.1,0,7.9,2.3,10.2,6.1l8,13.6c2.8,4.7,2.8,10.8,0,15.5l-39.8,67.2h-53.6l105.5,178.2h123.1
		L2755.9,224z"/>
</g>
</svg>
