<svg enable-background="new 0 0 3840 696.7" version="1.1" viewBox="0 0 3840 696.7" xml:space="preserve" xmlns="http://www.w3.org/2000/svg">
<path d="m2355.9004 0c-38.2 0-69.8996 25.100425-79.0996 59.400391l-96.3008 282.199219v-207.09961h-145.0996v51.5h95v139.80078h-118.7012c-29 0-51.3984-23.70042-51.3984-51.40039v-164.90039c0-28.999971 23.6984-51.400391 51.3984-51.400391h170.1016v-51.4999996h-171.5c-56.7 0-102.9004 46.2004476-102.9004 102.9003906v164.90039c0 56.69994 46.2004 102.90039 102.9004 102.90039h212.2988l106.8008-309.900389c4-11.899988 14.4992-19.800782 27.6992-19.800782s23.7012 7.900794 27.7012 19.800782l87 258.499999h-137.2012v51.40039h208.4004l-106.6992-316.601561c-10.5-34.299966-42.2004-60.699219-80.4004-60.699219zm-937.8008 6.5996094c-67.2999 0-121.2988 54.1008486-121.2988 121.3007806 0 67.19993 54.0989 121.29883 121.2988 121.29883h42.2012c4 0 6.5996 2.60157 6.5996 6.60156 0.1 4-2.6012 6.69922-5.2012 6.69922h-164.8984v51.40039h164.8984c31.7 0 58-26.40003 58-58s-26.4-58-58-58h-42.1992c-38.2 0-69.9004-31.70043-69.9004-69.90039 0-38.199962 31.7004-69.900391 69.9004-69.900391h163.5v-51.4999996h-164.9004zm292.9004 0c-56.6999 0-102.9004 46.2004476-102.9004 102.9003906v164.90039c0 56.69994 46.2005 102.90039 102.9004 102.90039h176.6992v-51.40039h-176.6992v-0.09961c-29 0-51.4004-23.70042-51.4004-51.40039v-164.90039c0-28.999971 23.7004-51.400391 51.4004-51.400391h176.6992v-51.4999996h-176.6992zm646.1992 52.7011716c-6.6 0-13.1988 5.299615-15.7988 10.59961l-105.5 307.298829h60.6992l36.9004-109.5v46.20117h1.3008 120l-81.8008-242.701171c-2.6-6.599994-7.9008-11.898438-15.8008-11.898438zm-939.0996 10.59961c-31.7 0-58 26.400031-58 57.999999 0 31.59997 26.4 58 58 58h42.2012c38.1999 0 69.8984 31.70043 69.8984 69.90039s-31.6985 69.89844-69.8984 69.89844h-163.5v51.40039h164.8984c67.3 0 121.3008-54.0989 121.3008-121.29883s-54.1008-121.30078-121.3008-121.30078h-42.1992c-4 0-6.5996-2.59961-6.5996-6.59961 0-2.6 2.5988-5.20117 5.2988-5.20117h164.8008v-52.798829h-164.9004zm292.9004 0c-22.4 0-39.5996 17.099632-39.5996 39.599609v76.5h179.4004v-51.5h-127.9004c0-6.59999 5.3004-11.90039 11.9004-11.90039h151.6992v-52.699219h-175.5zm299.3008 0c-22.4 0-39.6016 17.099632-39.6016 39.599609v164.90039c0 22.39998 17.1016 39.59961 39.6016 39.59961h106.7988v-116.19922h-81.7988v51.39844h30.2988v11.90039h-30.2988c-6.6 0-11.9004-5.3004-11.9004-11.90039v-116c0-6.59999 5.3004-11.89844 11.9004-11.89844h146.3984v-51.400389h-171.3984zm-339 129.298829v76.5c0 22.39998 17.0996 39.60156 39.5996 39.60156h176.6992v-51.40039h-153c-6.5-1.4-11.7988-6.70079-11.7988-13.30078h127.8984v-51.40039h-179.3984zm684.5996 3.90039 17.0996 52.80078h-35.5996l18.5-52.80078zm160.9004 265.70117c-30.1 0.2-54.6016 24.69886-54.6016 54.79883h285.8008v48.5c0 7.79999-6.3992 14.20117-14.1992 14.20117h-161.6016v64.5h138.2031l45.8985 45.89844h125.5996l-62.334-62.33203c19.0456-14.57477 31.4336-37.45945 31.4336-63.16797v-22.79883c0-43.89996-35.5997-79.59961-79.5996-79.59961h-254.5996zm-2516.8008 0.19922v54.59961h514.5c0-30.09997-24.39964-54.59961-54.59961-54.59961h-459.90039zm570.09961 0v54.59961h341.40039v-54.59961h-341.40039zm441.90039 0c-30.09997 0-54.59961 24.39964-54.59961 54.59961h379.29881v-54.59961h-324.6992zm444.0996 0c-30.1 0-54.5996 24.39964-54.5996 54.59961h381.5996c0-30.09997-24.3996-54.59961-54.5996-54.59961h-272.4004zm548.4004 0v54.59961h398.3008c0-30.09997-24.4016-54.59961-54.6016-54.59961h-343.6992zm902.8008 0v54.59961h95.6992v-54.59961h-95.6992zm127 0 35.0996 54.59961h113.9004l-35.2012-54.59961h-113.7988zm314.3984 0-35.0996 54.59961h113.8008l35.0996-54.59961h-113.8008zm149.9004 0v54.59961h341.4004v-54.59961h-341.4004zm-3498.5996 68.90039v158.79883h95.699219v-158.79883h-95.699219zm210.59961 0v158.79883h95.70117v-158.79883h-95.70117zm210.5 0v158.79883h95.70117v-158.79883h-95.70117zm149 0v21.19922 54.59961 16.40039c0 36.79996 29.79965 66.59961 66.59961 66.59961h274.80078v-54.59961h-231.5c-7.79999 0-14.19922-6.39923-14.19922-14.19922v-14.20117h226.29883v-54.59961h-212.09961c-7.79999 0-14.19922-6.39923-14.19922-14.19922v-7h-95.70117zm387.30078 0v92.19922c0 36.79996 29.79965 66.59961 66.59961 66.59961h29.1992 233.7012c38 0 68.7988-30.79887 68.7988-68.79883s-30.7988-68.80078-68.7988-68.80078h-161v54.59961h119.7988c7.8 0 14.2012 6.40118 14.2012 14.20117s-6.4012 14.19922-14.2012 14.19922h-178.3984c-7.8 0-14.2012-6.39923-14.2012-14.19922v-90h-95.69921zm444.09961 0v158.79883h95.6992v-158.79883h-95.6992zm285.9004 0v48.5h-175.9004v64.5h175.9004v45.79883h95.6992v-158.79883h-95.6992zm317.1992 0v158.79883h95.7012v-158.79883h-95.7012zm302.5 0v90c0 7.79999-6.3992 14.19922-14.1992 14.19922h-178.3008v54.59961h221.7012c36.7999 0 66.5996-29.79965 66.5996-66.59961v-92.19922h-95.8008zm155.2012 0v158.79883h95.6992v-158.79883h-95.6992zm445 0v158.79883h95.6992v-158.79883h-95.6992zm171.2988 0 102.2012 158.79883h135.2988l102.0996-158.79883h-113.7988l-56 87-55.9004-87h-113.9004zm420 0v21.19922 54.59961 16.40039c0 36.79996 29.7997 66.59961 66.5996 66.59961h274.8008v-54.59961h-231.5c-7.8 0-14.1992-6.39923-14.1992-14.19922v-14.20117h226.2988v-54.59961h-212.0996c-7.8 0-14.1992-6.39923-14.1992-14.19922v-7h-95.7012z"/>
</svg>
