<svg enable-background="new 0 0 514.55 82.668" version="1.1" viewBox="0 0 514.55 82.668" xmlns="http://www.w3.org/2000/svg"><linearGradient id="a" x1="257.275" x2="257.275" y1="59.6768" gradientUnits="userSpaceOnUse"><stop stop-color="#fff" offset="0"/><stop stop-color="#fcfcfe" offset=".1086"/><stop stop-color="#f2f3f9" offset=".1965"/><stop stop-color="#e1e5f1" offset=".2773"/><stop stop-color="#c9d0e6" offset=".3537"/><stop stop-color="#aab5d8" offset=".4265"/><stop stop-color="#9aa7d0" offset=".4588"/><stop stop-color="#b3bcdb" offset=".5107"/><stop stop-color="#ced5e8" offset=".584"/><stop stop-color="#e4e7f2" offset=".6633"/><stop stop-color="#f3f5fa" offset=".7506"/><stop stop-color="#fcfdfe" offset=".8518"/><stop stop-color="#fff" offset="1"/></linearGradient><linearGradient id="b" x1="257.3016" x2="257.3016" y1="82.6676" y2="59.6768" gradientUnits="userSpaceOnUse"><stop stop-color="#fff" offset="0"/><stop stop-color="#5a78b5" offset="1"/></linearGradient><path d="m514.542 56.767c-.01.31-.03.62-.07.92-.09.69-.24 1.35-.44 1.99h-513.46c-.22-.67-.38-1.33-.47-1.99-.52-3.68.96-7.23 4.35-10.15 4.5-3.85 9.77-6.35 15.31-8.36 11.8-4.3 24.09-6.37 36.54-6.78 14.61-.47 29.24-.15 43.87-.06 19.49.13 38.91-.73 58.12-4.17 13.64-2.45 26.73-6.38 38.68-13.88 12.04-7.55 25.47-11.4 39.55-13.08 11.4-1.37 22.81-1.51 34.24-.74 17.41 1.17 33.93 5.49 48.8 14.93 9.95 6.32 21.02 9.51 32.33 11.92 13.46 2.88 27.14 4.31 40.9 4.53 15.3.25 30.61.09 45.91-.03 15.83-.13 31.55.74 46.98 4.55 8.08 2 15.88 4.78 22.71 9.77 3.61 2.63 6.33 5.81 6.15 10.63z" fill="url(#a)"/><path d="m514.032 59.677c-.57 1.77-1.55 3.36-2.71 4.87-3.34 4.36-8 6.87-12.82 9.16-8.6 4.08-17.82 5.63-27.12 7-15.84 2.33-31.78 1.73-47.68 1.81-35.8.17-71.6.1-107.39.12h-59.21v.02c-47.92 0-95.83.03-143.74-.01-16.88-.02-33.76-.01-50.63-.39-14.17-.32-28.24-1.8-41.73-6.55-5.13-1.8-10.14-4.03-14.3-7.67-1.62-1.41-3.13-3.05-4.35-4.82-.8-1.17-1.39-2.36-1.78-3.54z" fill="url(#b)"/><path d="m253.63086 0.03515625c-5.70624 0.10999989-11.40938 0.48687569-17.10938 1.17187495-14.07998 1.6799984-27.50884 5.5300857-39.54882 13.0800778-11.94999 7.499993-25.0397 11.430862-38.67969 13.88086-19.20998 3.439996-38.63111 4.299921-58.12109 4.169922-14.62999-0.09-29.25916-0.411406-43.869146 0.058593-12.449987 0.41-24.741027 2.481255-36.541015 6.78125-5.539995 2.009998-10.8105516 4.509379-15.3105471 8.359375-3.3899966 2.919997-4.86960888 6.470395-4.3496094 10.150391 0.24999975 1.829998 1.0000012 3.699299 2.25 5.529297 1.2199988 1.769998 2.729611 3.410314 4.3496094 4.820312 4.1599961 3.639997 9.1707861 5.869924 14.3007811 7.669922 13.489987 4.749995 27.560483 6.230782 41.730469 6.550781 16.869983 0.38 33.748923 0.368672 50.628908 0.388672 47.90995 0.04 95.82028 0.009766 143.74023 0.009766v-0.019531h59.21094c35.78996-0.02 71.58871 0.050859 107.38867-0.119141 15.89999-0.08 31.84166 0.519451 47.68164-1.810547 9.29999-1.369998 18.51915-2.920004 27.11914-7 4.82-2.289997 9.48032-4.80016 12.82032-9.160156 1.57999-2.059998 2.83039-4.269378 3.15039-6.859375 0.04-0.3 0.06031-0.609922 0.07031-0.919922 0.18-4.819995-2.5404-8.000862-6.15039-10.630859-6.83-4.989995-14.63095-7.769534-22.71094-9.769531-15.42998-3.809997-31.15048-4.680782-46.98047-4.550782-15.29998 0.12-30.60822 0.28125-45.9082 0.03125-13.75999-0.22-27.44041-1.651253-40.90039-4.53125-11.30999-2.409997-22.38009-5.599928-32.33008-11.919922-14.86999-9.4399902-31.3908-13.7596883-48.80078-14.92968712-5.715-0.38499962-11.42462-0.54164052-17.13086-0.43164063zm8.79297 8.38281255c3.76999 0.0662499 7.54336 0.2375002 11.31836 0.5 9.95999 0.6899993 19.88915 1.8200032 29.36914 5.2500002 1.84 0.669999 3.64977 1.538673 5.25976 2.638672 3.59 2.439997 3.68117 5.521174-0.04882 7.701171-2.95 1.719999-6.21954 3.110001-9.51954 4-12.95998 3.509997-26.26001 4.178282-36 4.238282-15.66998 0-27.68071-0.698675-39.4707-3.388672-3.75-0.859999-7.34024-2.391095-10.99023-3.621094-0.26-0.09-0.50047-0.219141-0.73047-0.36914-1.77-1.139999-3.7786-2.180394-3.8086-4.650391-0.03-2.489998 1.92001-3.649923 3.75-4.669922 5.3-2.959997 11.1686-4.159923 17.0586-5.169922 11.21999-1.9274979 22.50251-2.6577341 33.8125-2.4589842zm18.6875 3.5390622c-1.96 0.04-3.15953 1.26969-3.76953 3.179688-1.15 3.619996-2.37961 7.220316-3.59961 10.820312-0.15 0.43-0.4111 0.830001-0.6211 1.25-0.14-0.05-0.28968-0.07914-0.42968-0.11914v-8.580079h-6.63868l-0.05859 1.939454 4.37695 0.019531s-0.04882 4.570627-0.04882 6.890625c-1.96 0-3.77962-0.02-5.59961 0-1.8 0.03-2.59008-0.870627-2.58008-2.640625 0.03-2.379998-0.01-4.760393 0-7.150391 0.03-2.319997 0.70031-2.979765 3.07031-3.009765 2.44-0.02 4.86993 0 7.41992 0v-2.240235c-3.04999 0-5.90023-0.118984-8.74023 0.041016-2.39 0.13-3.95 1.809612-4 4.099609-0.08 3.069997-0.07977 6.129456-0.00977 9.189453 0.05 2.119998 1.60844 3.900704 3.64844 3.970704 3.73 0.129999 7.47047 0.039062 11.23047 0.039062 0.33-0.899999 0.63062-1.659688 0.89062-2.429688 1.32-3.849996 2.59047-7.718831 3.98047-11.548828 0.21-0.599999 0.72993-1.387937 1.41992-1.460937 0.672-0.071 1.27969 0.369532 1.42969 0.769531 1.48 4.049996 2.85039 8.14063 4.40039 12.640625h-6.56054c0.04 0.839999 0.05984 1.349219 0.08984 1.949219h9.2207c-0.13-0.629999-0.19156-1.148672-0.35156-1.638672-1.4-4.259996-2.83899-8.499536-4.20898-12.769531-0.64-1.969998-1.89094-3.240938-3.96094-3.210938zm-40.85547 0.306641c-1.2625-0.00875-2.50891-0.0025-3.75391 0.0625-3.38999 0.17-5.70062 2.631722-5.64062 5.761719 0.06 3.029997 2.56922 5.318984 5.94922 5.458984 0.65 0.03 1.16948 0.035156 1.89648 0.035156-0.02 0.21-0.01687 0.684532-0.04687 0.894531h-7.79883c0.07 0.84 0.11945 1.390314 0.18945 2.070313 2.7 0 5.21071 0.060469 7.7207-0.019531 1.52-0.04 2.39899-1.030236 2.45899-2.490235 0.05-1.459998-0.85344-2.329375-2.27344-2.609375-0.92-0.179999-1.96942-0.029875-2.85742-0.171875-1.35-0.215999-2.21913-0.909219-2.57813-1.949218-0.307-0.888999-0.1509-2.423142 0.3711-3.119141 0.816-1.087999 2.27858-1.430547 3.51758-1.560547 2.19999-0.25 4.4414-0.070312 6.6914-0.070312v-2.259766c-1.305 0-2.5832-0.024453-3.8457-0.033203zm13.71094 0.019531c-1.44-0.01125-2.8604-0.001015-4.27539 0.083985-2.24 0.129999-3.69985 1.529299-3.83985 3.779296-0.21 3.169997-0.21859 6.38055-0.05859 9.560547 0.11 2.159998 1.52813 3.690313 3.57812 3.820313 2.96 0.19 5.94126 0.039062 9.03125 0.039062v-2.25c-2.63999 0-5.14062-0.01-7.64062 0-1.86 0.02-2.76906-0.928517-2.78906-2.728515-0.04-2.239998-0.05125-4.490471-0.03125-6.730469 0.02-2.559998 0.73976-3.280781 3.25976-3.300781 2.36-0.02 4.72016 0 7.16016 0v-2.230469c-1.495 0-2.95453-0.031719-4.39453-0.042969zm27.68554 2.353516-0.90039 0.03125c-1.69 4.909995-3.38062 9.808442-5.14062 14.898437h2.65039c0.54-1.439998 1.05117-2.80883 1.70117-4.548828 0.26 0.819999 0.3993 1.269454 0.5293 1.689453h5.31054c-1.42999-4.159996-2.79039-8.110316-4.15039-12.070312zm-40.54296 0.80664c-1.64-0.00875-3.59719 0.019063-4.86719 0.164063-0.83 0.09-2.06939 0.602392-2.15039 2.15039-0.086 1.656999 0.27344 2.013673 1.02343 2.513672 0.366 0.244 1.0768 0.366485 1.4668 0.396485 0.61 0.05 1.21985 0.009531 1.83985 0.019531 2.08999 0.05 3.45953 1.258908 3.51953 3.128906 0.07 1.919998-1.32969 3.429766-3.42969 3.509766-2.49 0.09-4.99016 0.021484-7.66016 0.021484 0.05 0.919999 0.09086 1.548595 0.13086 2.308594 2.9 0 5.61055 0.120703 8.31055-0.029297 2.83-0.16 4.93922-2.640003 4.94922-5.5 0.02-3.029997-2.18954-5.309453-5.51953-5.689453-0.77-0.09-1.53493 0.058984-2.29493-0.041016 0.01-0.199999 0.01516-0.649375 0.03516-0.859375h7.70899c-0.04-0.869999-0.09961-2.041015-0.09961-2.041015s-1.3229-0.043985-2.96289-0.052735zm13.3496 0.011719c-1.26999-0.00625-2.51781 0.017813-3.75781 0.132813-0.67 0.06-1.79883 0.463204-1.79883 1.908203 0 0.712999-0.06054 1.701563-0.06054 2.851562h7.91992c-0.04-0.719999-0.06938-1.261016-0.10938-2.041015h-5.06054c0-0.21 2.3e-4 -0.419141-0.00977-0.619141h6.76953v-2.191406c-1.33 0-2.62258-0.034766-3.89258-0.041016zm10.61329 0.021484c-1.33-0.019999-2.08086 0.691408-2.13086 1.941407-0.09 2.359997-0.17852 4.749611 0.02148 7.099609 0.05 0.709999 0.96891 1.780157 1.62891 1.910156 1.54 0.28 3.16937 0.089844 4.85937 0.089844v-5.15039h-2.53906c0 1.109998-0.05078 1.619532-0.05078 2.769531-0.55-0.09-0.99953 0.031172-1.51953-0.048828v-6.490235h7.30078v-2.121094c-2.69 0-5.13032 0.02-7.57031 0zm16.00976 6.080079s0.83383 1.690469 1.17383 2.480468c-0.661 0.06-1.28289-0.06-1.96289 0 0.26-0.819999 0.78906-2.480468 0.78906-2.480468zm-32.25 0.189453c0 0.999999 0.05078 1.829563 0.05078 2.601562 0 1.267999 0.88946 1.989297 1.43946 2.029297 2.65999 0.22 5.34961 0.09961 8.09961 0.099609v-2.21875h-6.91016c0-0.239999 0.00953-0.470937 0.01953-0.710937h5.25c-0.04-0.779999-0.06961-1.280782-0.09961-1.800781h-7.84961zm-58.49023 1.5c3.94999 2.409997 7.54109 4.870861 11.37109 6.880859 6.63999 3.479997 13.97954 4.760314 21.26953 6.070313 12.79999 2.289997 25.72041 2.108906 38.65039 2.128906 13.57999 0.03 27.02931-0.869847 40.2793-4.089844 8.03999-1.959998 15.42977-5.169146 21.75977-10.61914 0.19999-0.17 0.45976-0.269297 0.50976-0.279297 6.60999 2.209997 12.84071 4.539142 19.2207 6.36914 10.60999 3.049997 21.48876 4.639454 32.46875 5.689453 22.66998 2.179998 45.42065 1.421094 68.14063 1.621094 12.53999 0.11 24.99087 1.149535 37.13086 4.519531 5.98999 1.659999 11.75032 3.929301 16.57031 8.029297 3.08 2.619998 4.49883 5.371097 4.29883 8.121094-0.18 2.479998-1.67875 4.950081-4.46875 7.330078-5.55 4.729995-12.24009 6.960314-19.08008 8.820313-10.41999 2.829997-21.09134 4.098672-31.86133 4.138671-56.82994 0.22-113.66005 0.330704-170.5 0.470704-43.41995 0.11-86.84957 0.319531-130.26953 0.269531-26.60997-0.03-53.220103-0.290548-79.830077-0.810547-13.019987-0.24-25.91009-2.109536-38.080078-7.019531-4.019996-1.629999-7.829456-4.150159-11.189453-6.910157-2.259998-1.849998-3.409766-4.039064-3.509766-6.289062-0.11-2.439998 1.018596-4.94969 3.308594-7.179688 4.779995-4.629995 10.811256-6.990314 17.03125-8.820312 8.849991-2.599997 17.948915-4.000938 27.128906-4.210938 17.009983-0.379999 34.031267-0.230078 51.031254-0.580078 18.70998-0.389999 37.36017-1.588754 55.66015-5.96875 7.74999-1.859998 15.2786-4.33055 22.5586-7.560546 0.16-0.07 0.34039-0.111094 0.40039-0.121094zm-114.134769 18.33789c-3.132497-0.00875-6.264534 0.008282-9.394531 0.113282-10.33999 0.349999-20.610947 1.319378-30.460938 4.859375-4.079995 1.469998-7.979456 3.190472-10.939453 6.480468-1.419998 1.579999-2.090234 3.110393-1.990234 4.650391 0.07 1.339999 0.71922 2.68008 1.949219 4.080078 2.929997 3.329997 6.540004 5.680392 10.75 7.150391 7.759992 2.709997 15.800711 4.038906 23.970703 4.378906 8.429991 0.36 16.870555 0.470703 25.310547 0.470703 57.239946 0.04 114.480526 0.019531 171.730466 0.019531h25.51953c53.29995-0.01 106.59068 0.019453 159.89063-0.060547 10.80999-0.009999 21.59938-0.629143 32.10937-3.61914 5.41-1.539999 10.36946-3.76977 14.18946-8.009766 1.36-1.499998 2.12047-2.980157 2.23047-4.410156 0.16-1.749998-0.64977-3.429533-2.50977-5.019531-2.49-2.129998-5.38086-3.970236-8.38086-5.240235-8.21999-3.509996-16.96032-4.940078-25.82031-5.330078-8.48999-0.359999-16.99978-0.451172-25.50977-0.451172-114.41988-0.03-228.83011-0.019531-343.249998-0.019531-3.129996 0-6.262034-0.034219-9.394531-0.042969zm332.175779 4.113282h11.20899c-1.44 2.179997-2.68922 4.060705-3.94922 5.970703h-11.16992c1.44999-2.209998 2.68015-4.100705 3.91015-5.970703zm-33.24023 0.019531h11.17969c1.21999 1.829998 2.4807 3.71969 3.9707 5.929687h-11.23047c-1.16-1.759998-2.44992-3.699689-3.91992-5.929687zm-199.84961 0.291015h24.39844v5.619141h-41.49024c-0.36-3.209997 1.81001-5.549609 5.25-5.599609 3.95-0.07 7.8918-0.019531 11.8418-0.019532zm-115.371095 0.009766c15.439985-0.01 30.880328-0.02 46.320315 0 3.55999 0.01 5.71078 2.21016 5.55078 5.660156h-53.560548v-5.5c0.639999-0.06 1.169454-0.160156 1.689453-0.160156zm209.130855 0c11.41999-0.01 22.84931-0.030234 34.2793 0.009766 3.44 0 5.57039 2.210628 5.40039 5.640625h-41.12109c-0.05-0.75-0.11867-1.341407-0.13867-1.941407-0.01-1.139998 0-2.280001 0-3.5 0.67-0.089999 1.12007-0.208984 1.58007-0.208984zm-59.16992 0.029297c9.77999-0.08 19.55986-0.08 29.33985 0 3.07999 0.02 5.12945 2.449847 4.93945 5.589844h-39.33984c0.06-3.379997 1.95055-5.569844 5.06054-5.589844zm110.56836 0.009766c10.12999-0.1 20.24134-0.1 30.36133 0 3.12 0.03 5.16008 2.540862 4.83008 5.630859h-40c-0.27-3.099997 1.74859-5.610859 4.80859-5.630859zm103.02149 0.060547h35.13867v5.529296h-35.13867v-5.529296zm-61.58008 0.029296h9.74023v5.521485h-9.74023v-5.521485zm-244.25977 0.009766h35.09961v5.5h-35.09961v-5.5zm-82.169919 4.730469c3.599996-0.02 6.600078 2.90016 6.580078 6.410156 0 0.13-0.011485 0.260625-0.021485 0.390625-0.229999 3.239997-3.13969 5.989766-6.429687 6.009766-3.339997 0.02-6.318828-2.759769-6.548828-6.009766-0.03-0.15-0.03125-0.310703-0.03125-0.470703 0.03-3.389997 3.001175-6.310078 6.451172-6.330078zm443.228519 0c3.55999 0.01 6.5407 2.980706 6.4707 6.470703 0 0.11-0.00953 0.220078-0.01953 0.330078-0.23 3.259997-3.11969 5.989766-6.42969 6.009766-3.35 0.01-6.32055-2.749769-6.56055-6.009766-0.02-0.14-0.03125-0.279922-0.03125-0.419922-0.03-3.419996 3.04032-6.390859 6.57032-6.380859zm-320.69922 2.460937h9.93945v7.589844c0.01 3.119997 0.29961 3.419922 3.34961 3.419922h15.08984c0.41 0 0.82047 0.010469 1.23047-0.019531 1.16-0.08 2.14008-0.651095 1.83008-1.871094-0.17-0.669999-1.17938-1.549844-1.85937-1.589844-3.05-0.18-6.11969-0.089844-9.17969-0.089844h-2.70117v-4.769531c0.11-0.09 0.22054-0.25 0.31054-0.25 6.05 0 12.10087-0.180156 18.13086 0.089844 1.4 0.06 2.65868 0.770079 3.63867 1.830078 1.33 1.439999 2.13 3.52883 2 5.548828-0.21 3.599997-3.1293 6.551563-6.77929 6.601563-5.37 0.09-10.73938 0.039062-16.10938 0.039062-4.01999 0-8.03102 0.030469-12.04101-0.019531-4.31-0.04-6.82961-2.611333-6.84961-6.861328v-9.648438zm275.19922 0.019532c0.43 2.409997 2.3507 2.230703 4.2207 2.220703 5.64999-0.01 11.28946-2.35e-4 16.93945 0.009765 0.86 0 1.73016 0.088672 2.66016 0.138672v4.970703h-23.34961c-0.44 2.739998 0.25016 3.620625 2.66016 3.640625 6.45999 0.03 12.93063 0.009766 19.39062 0.009766h2.84961v5.378906c-0.62 0.04-1.33102 0.13086-2.04102 0.13086-8.56999 0.009999-17.14899 0.029999-25.70898 0-5.10999-0.02-7.40086-2.400553-7.38086-7.560547 0.01-1.539999 0.00977-3.069143 0.00977-4.619141-0.01-1.369999-0.00977-2.741329-0.00977-4.111328 0.39-0.09 0.65039-0.199219 0.90039-0.199219 2.86-0.02 5.71938-0.009765 8.85938-0.009765zm-374.958988 0.080078h9.689453v16.279296h-9.689453v-16.279296zm344.990238 0.009765h11.18945c-0.95 1.429999-1.89031 2.84047-2.82031 4.230469-2.74 4.089996-5.40032 8.070082-8.07032 12.080078h-12.32031c-2.66-3.979996-5.32984-7.970082-8.08984-12.080078-0.93-1.379999-1.8586-2.781408-2.8086-4.191406h11.18946c0.89 1.349998 1.80976 2.741407 2.75976 4.191406 0.99 1.499998 2.01938 3.05922 3.10938 4.699219 1.07-1.619999 2.08008-3.169221 3.08008-4.699219 0.93-1.419999 1.85125-2.82047 2.78125-4.230469zm-87.74024 0.009766h9.84961v16.240234h-9.84961v-16.240234zm30.5 0.009765h9.73047c0.28 1.519999 0.3193 2.920939 0.0293 4.210938-0.47 2.169998-1.84047 4.018595-4.48047 5.558594 2.45 2.009998 4.68016 3.851642 6.91016 5.68164-0.21 0.31-0.43063 0.619688-0.64063 0.929688-3.52 0-7.03883 0.140156-10.54883-0.089844-0.94-0.07-2.00016-1.110704-2.66015-1.970703-1.81-2.389998-4.06102-3.230703-7.04102-2.970703-3.1 0.25-6.22883 0.050781-9.54883 0.050781v-6.589844h10.0293c1.76 0 3.53078 2.35e-4 5.30078-0.009765 1.22-0.01 1.90859-0.139844 2.30859-0.589844 0.35-0.39 0.46-1.051095 0.5-2.121094 0.01-0.659999 0.07133-1.319844 0.11133-2.089844zm-111.64062 0.009766h9.88086v16.220703h-9.73047c-0.06-1.509998-0.13094-2.970705-0.21094-4.720703h-17.64844v-6.628906h17.70899v-4.871094zm33.25 0h9.77929v16.220703h-9.77929v-16.220703zm-62.87891 0.009766h9.83008v16.230468h-9.83008v-16.230468zm157.1582 0h9.70118v16.25h-9.70118v-16.25zm-244.29882 0.011718h9.77929c0.51 1.889999 2.03102 2.10961 3.79102 2.09961 5.70999-0.05 11.43039-0.019531 17.15039-0.019531h2.83984v5.128906h-23.38086c-0.36 2.749997 0.33024 3.620859 2.74024 3.630859 6.53999 0.03 13.06961 0.009766 19.59961 0.009766h2.60937v5.388672c-0.71 0.04-1.41844 0.121094-2.14844 0.121094-8.50999 0.009999-17.01149 0.019999-25.52148 0-5.14999-0.01-7.47898-2.380474-7.45898-7.480469 0.01-1.559999 0-3.119221 0-4.699219v-4.179688zm-37.410161 0.009766h9.640625v16.240234h-9.640625v-16.240234zm21.750001 0h9.92969v16.199219h-9.92969v-16.199219zm197.05078 0h10.00977c0 1.359999 0.01 2.748673 0 4.138672v0.03125c-0.02 1.889998-0.05008 3.789455-0.08008 5.689453-0.05 3.439997-2.24133 6.289141-5.61133 6.369141-8.00999 0.2-16.02884 0.060547-24.29883 0.060547v-5.310547c0.89-0.05 1.67875-0.128906 2.46875-0.128906 4.9-0.01 9.79118 0.010234 14.70117-0.009766 2.27-0.02 2.77883-0.520002 2.79883-2.75 0.01-1.299999 0.02149-2.599923 0.02149-3.919922 0-1.359999-0.00977-2.739923-0.00977-4.169922z"/></svg>
