<svg width="568.93" height="116.14" viewBox="-1 -1 568.93 116.14" xmlns="http://www.w3.org/2000/svg"><g fill="#fff"><path d="m309.46 13.469-7.131 21.726h3.521l7.146-20.979c.26-.959 1.043-1.659 1.963-1.659.931 0 1.713.7 1.974 1.659l6.041 17.746h-9.479v3.232H327.6l-7.132-21.726a5.728 5.728 0 0 0-11.008.001zm4.178 13.492 1.248-3.706 1.301 3.706zm-.517-10.638-6.387 18.872h4.117l2.643-7.822v3.697h8.295l-4.926-14.747c-.25-.821-.996-3.182-1.873-3.182-.881 0-1.627 2.36-1.869 3.182zm-22.549-2.885h12.344v-3.53h-12.639c-3.408 0-6.172 2.771-6.172 6.18v12.936a6.172 6.172 0 0 0 6.172 6.172h12.639v-16.47h-9.992v3.234h6.461v9.702h-8.813a2.933 2.933 0 0 1-2.936-2.938v-12.35a2.933 2.933 0 0 1 2.936-2.936zm2.351 9.406v3.531h2.055v.882h-2.055a.884.884 0 0 1-.883-.882v-7.648c0-.486.396-.883.883-.883h9.992V14.32h-11.461a2.942 2.942 0 0 0-2.945 2.938v10.585a2.942 2.942 0 0 0 2.945 2.938h7.055v-7.938zm-22.631-9.406h12.344v-3.53h-12.641c-3.408 0-6.17 2.771-6.17 6.18V28.88c0 3.408 2.762 6.179 6.17 6.179h12.641v-3.531h-12.344a2.938 2.938 0 0 1-2.938-2.938V16.376a2.94 2.94 0 0 1 2.938-2.938zm9.695 8.523v-3.234h-8.227c0-.486.395-.883.883-.883h9.992V14.32h-11.461a2.938 2.938 0 0 0-2.936 2.938v4.703zm0 1.179v3.234h-8.227c0 .485.395.882.883.882h9.992v3.522h-11.461a2.936 2.936 0 0 1-2.936-2.938v-4.703zm-30.203 4.407h-7.412v3.233h11.459a3.97 3.97 0 0 0-.145-7.938h-4.459c-1.803-.686-3.334-2.474-3.334-4.559 0-2.679 2.467-4.848 5.145-4.848h11.027V9.907h-11.469c-4.541 0-8.225 3.69-8.225 8.233 0 4.55 3.979 8.234 8.521 8.234v-.038l.023.038h2.625a.586.586 0 0 1 0 1.172h-3.756zm4.862-9.993h7.42V14.32h-11.468a3.968 3.968 0 0 0-3.818 3.966 3.97 3.97 0 0 0 3.973 3.973h4.459c1.803.692 3.326 2.473 3.326 4.558 0 2.68-2.465 4.849-5.146 4.849h-11.018v3.53h11.459a8.233 8.233 0 0 0 8.234-8.232c0-4.543-3.979-8.234-8.523-8.234v.046l-.029-.045h-2.619a.586.586 0 0 1 0-1.172zm6.024 29.879v52.173h-17.568V80.333L209.43 61.171v38.435h-17.569V47.433h18.301l32.94 18.74v-18.74zm172.58-.254h18.262v52.509H433.25zM320.92 57.68h-30.004v10.502h36.004l-17.252 10.502h-18.752v10.502h48.756L322.42 99.688h-49.506V59.182l18.002-12.003h47.256zm-159.52.198h-29.836v10.439h35.803l-17.156 10.445h-18.647v10.442h48.484l-17.157 10.443h-49.23V59.368l17.903-11.935h46.992zM29.562 59.372 47.47 47.433h54.472L84.779 57.882H47.47v31.337h33.578V76.534H60.155l17.162-10.445h21.641v21.638l-17.91 11.94H29.562zM422.09 89.034l-17.502 10.654h-54.029l17.502-10.654h34.244V78.382h-51.746V57.835l17.502-10.656h54.791L405.35 57.835h-35.767v9.89h52.507z"/><path d="M402.3 89.034V78.382h-51.746V57.835l17.502-10.656h54.791l-17.502 10.656h-35.767v9.89h52.507v21.309l-17.502 10.654h-54.029l17.502-10.654zm131.15 0-17.502 10.654h-54.031l17.503-10.654h34.245V78.382h-51.748V57.835l17.503-10.656h54.79l-17.502 10.656h-35.766v9.89h52.508z"/><path d="M513.66 89.034V78.382h-51.748V57.835l17.503-10.656h54.79l-17.502 10.656h-35.766v9.89h52.508v21.309l-17.502 10.654h-54.031l17.503-10.654z"/></g></svg>