<svg version="1.1" viewBox="0 0 263.99936 162.00038" xmlns="http://www.w3.org/2000/svg"><path d="m201.89363 1.0582315e-5c-0.25014 7.20702405e-4 -0.51645 0.03818746768-0.75195 0.007812497685h-1.08399c-1.47099 1.02099902-0.661 4.20154652-3.625 3.81054692-0.247 1.3969986 0.58491 3.3580469-2.12109 3.3730468-1.067 8e-3 -0.71947 1.2543289-0.73047 1.9863282-0.057 4.350996-0.0677 8.705645-0.0937 13.056641l-0.0625 0.0059c0.207-8e-3 0.41505-0.01544 0.62305-0.02344 2.065-0.042 4.13641-0.206938 6.1914-0.08594 1.944 0.113 2.57211-0.666095 2.41211-2.496093-0.109-1.245999-0.12932-2.519767 0.0137-3.759766 0.124-1.063999-0.82117-2.749203 1.29882-2.908203 2.174-0.165 1.31725 1.63811 1.65625 2.662109 2.624-0.336999 3.51968 0.863143 3.13868 3.369141-0.15637 1.038178-0.0626 2.111623-0.0801 3.171875 6.00577-0.227916 5.99372-0.228995 6.01172-6.365234 0.015-4.919996 0.0666-9.8397714 0.10156-14.7597665-5.739 0.079-5.73964 0.078521-6.18164 5.9785156-0.13 1.1569988 0.72182 2.8504062-1.57617 2.8164063-2.25121-0.034198-1.32182-1.7207454-1.51954-2.8242188-2.33518 0.3116672-3.27626-0.660385-2.90234-3.0175781 0.169-1.051999 0.1103-2.1408917 0.1543-3.21289067-0.0869-0.68628531-0.45619-0.78639342-0.8731-0.7851922477zm3.62109 7.015625018c7e-3 -8.997e-4 0.0128-0.00103 0.0195-0.00195l-0.0312-0.076175c6e-3 0.025206 7e-3 0.052246 0.0117 0.078125zm3.16407 15.1542974h-2e-3l2e-3 0.0332c2e-4 -0.01105-1.8e-4 -0.02215 0-0.0332zm-140.712893-21.29882867c-0.371 0.0699999-0.742235 0.13703137-1.115235 0.20703127 0.524 2.7279973-1.457829 2.288313-2.923828 2.8203125 0.028 1.3529986 0.136327 2.7930785-1.638672 3.2050781-0.822999 0.1909998-0.90425 0.7358132-0.90625 1.3828125-8e-3 2.9519973-8e-3 5.9063783 0 8.8593753 1e-3 0.624-0.01464 1.4375 0.81836 1.4375 2.738989 2e-3 1.914599 1.890868 1.910156 3.363281 4.403434-0.01803 8.804592-0.05795 13.207031-0.04297 1.209999 3e-3 2.179016-0.08969 2.041016-1.679688-0.056-0.641999 0.05505-1.459625 0.873047-1.390625 2.687997 0.227 2.199891-1.623783 2.21289-3.175781 0.03495-4.028789 0.06666-8.0571077 0.09961-12.0878912-1.882788 0.3306441-3.515656 0.3033841-3.513672-2.3125 0-0.1879998-0.535313-0.3764064-0.820312-0.56640622-3.414997-7e-3 -6.829145-0.0145312-10.244141-0.0195313zm14.578125 2.89843747c0.0152-0.00267 0.02969-0.00315 0.04492-0.00586l-0.04492-0.00977c-4.3e-5 0.00521 4.2e-5 0.010415 0 0.015625zm-18.433594 18.3769532c-0.0046 1.9e-5 -0.0091-1.8e-5 -0.01367 0l0.01367 0.04102c-9.9e-5 -0.01337-4e-5 -0.02757 0-0.04102zm58.480472-21.27148442-10.22071 0.015625c-0.544 0.25299972-3.68079 2.58540742-3.71679 3.69140622-0.081 2.5069975-1.51775 2.6167968-3.34375 2.4667969 6e-3 5.0399953 0.0154 10.0829583 0.0234 15.1269533 1.889-0.025 3.83616-0.0123 5.66016-0.0293 2.959-0.028 3.88778-0.83269 3.42578-3.554687-0.389-2.297998 0.65452-3.087859 2.85352-2.755859 1.621 0.244999 3.41047 0.711606 3.23047-2.025391-0.041-0.623 0.57715-0.883656 1.16015-0.847656 1.332 0.083 1.72041-0.619548 1.69141-1.810547-0.022-0.887999 0.54591-1.3431568 1.37891-1.2851569 1.80499 0.1269999 1.75951-1.0413919 1.72851-2.2753906-0.032-1.2529988 0.14152-2.2816265-0.0215-3.765625-3.44295 0.2960027-3.24556-1.0891708-3.84956-2.95116892zm32.46875 0.0546875c-0.103 1.02499902-0.0498 1.50421942-0.13282 2.19921872-0.84881 0.6674877-1.75297 0.3501047-2.51171 0.6582032-0.0112 1.080552-0.0459 1.9657722-0.36133 2.5488281-0.42365 0.7825026-1.45619 0.9561672-2.93164 0.6621094 0.0285 5.1030085 0.20156 9.9879535 0.22851 15.0937505-0.031 0.199 2.70382 0.04534 4.00782 0.02734 4.77399-0.066 9.55527-0.17175 14.32226 0.03125 2.66321 0.11371 3.4024-0.873046 2.86133-3.257813-2.96091-0.01656-5.93803 0.268537-8.88086-0.05469-1.078-0.119-2.63327 0.400874-3.07227-0.578125-0.626-1.395999-0.18123-3.179814 0.01-4.757813 0.082-0.686999 1.01795-0.552594 1.62695-0.558594 1.431-0.017 2.88207-0.150609 4.28906 0.02539 2.28 0.286 3.39933-0.461518 3.11133-2.853516 0-2e-3 0.10938-0.01953 0.10938-0.01953-2.038-0.1440001-6.6403-0.292094-6.9043-0.246094-2.868 0.496-2.35908-1.5125954-2.45508-3.1835938-0.105-1.8459981 0.0746-3.1117654 2.51758-2.8847656 2.411 0.2229998 4.85707 0.066016 7.28906 0.041016 1.027-0.01 2.27405 0.3158733 2.24805-1.453125-0.027-1.75899824-1.28297-1.38306253-2.29297-1.4140625-4.31399-0.13499986-8.77013 0.4556089-13.07812-0.0253906zm15.48242 17.96289092c0.0163 9.1e-5 0.0326-1.09e-4 0.0488 0l-0.0527-0.01758c1e-3 0.0061 3e-3 0.0115 4e-3 0.01758zm-21.41992-11.8945315c-5e-5 -0.00919 5e-5 -0.018149 0-0.027344l-0.0137 0.025391c5e-3 9.477e-4 9e-3 0.00101 0.0137 0.00195zm3.29297-3.2109375c5e-5 -0.00546-6e-5 -0.01016 0-0.015625l-0.0469 0.03125c0.0152-0.00677 0.0315-0.00939 0.0469-0.015625zm-35.13282-0.2949219c0.63311-0.01925 1.36949 0.1050471 2.20899 0.3730469 1.404 0.4479995 1.01434 1.6053602 0.90234 2.4433594-0.155 1.1629988 0.95481 2.9683753-0.99219 3.359375-1.37299 0.2749997-2.15046 0.5857516-2.10546 2.0937506 0.033 1.130999-0.79097 1.206265-1.66797 1.197265-0.963-0.012-1.20613-0.581532-1.20313-1.394531 5e-3 -1.071999 2e-3 -2.1428451 2e-3 -3.214844h-0.01v-0.8007813c7.5e-4 -2.6474973 0.96591-3.9988907 2.86523-4.0566406zm-44.326169 0.2265625c0.162671-0.0035 0.334172-0.0028 0.513672 0.00195 2.591998 0.069 3.423578 0.8290493 2.892578 3.2480469 0.066 3.4579965 0.100797 6.9160965 0.216797 10.3710935 0.041 1.208999-2.381328 1.323047-2.861328 1.498047-3.533996 0.267999-3.535063 0.266699-3.539062-3.279297-1e-3 -2.777997 0.170171-5.5690806-0.04883-8.3300779-0.195936-2.4599944 0.386109-3.4571966 2.826173-3.5097625zm88.041019 21.3789064c-1.02902-0.154951-2.10649 0.553438-3.17774 1.148438-2.291 2.190998-7.82815 7.310094-8.41015 7.496094-3.21 1.025998-3.30449 1.33844-2.52149 4.523437 0.395 1.609998-10.09216 23.827646-11.28515 29.306641-0.221 1.014999-5.16685 5.780203-5.96485 5.908203-1.877 2.607997-1.59136 5.696534-1.94336 8.644531-0.079 0.664999-0.0336 1.504547 0.64844 1.560547 3.611 0.296 1.58625 3.174783 1.28125 4.925781-1.192-1.837998-2.02992-3.111-3.79492-2.75l0.0234-0.02539c-1.524 1.293998-2.41261 1.938641-3.59961 2.43164-1.502 0.625-5.54507 1.698938-5.91407 1.835938-5.42499 2.019998-21.282043 3.993763-21.498043 1.759765-0.114-1.181999 0.924689-13.425675 2.054687-17.263672 1.290999-4.377995 5.443116-5.427438 9.412106-6.023437 4.179-0.625999 8.41005-0.895251 12.62305-1.28125 0.604-0.055 6.07355 0.514231 6.43555-3.009766 0.154-1.488998-0.18538-2.842595-0.73438-4.183594-0.218-0.634999-2.30653-1.526499-3.14453-1.3125-1.68 0.091-7.68303 0.40286-8.33203 0.50586-4.121 0.659999-8.16252 1.470737-11.22852 4.677734-0.549 0.573-1.28937 1.24325-2.109371 0.53125-0.969999-0.840999-0.583499-1.990626-0.3125-3.015625 1.236001-4.692995 2.529911-9.370458 3.753911-14.064453 0.338-1.295999 0.47443-2.64222 0.77343-3.949219 1.012-4.444995 4.30663-5.970141 8.39063-6.61914 4.56599-0.725 9.0781-1.614951 13.37109 1.123047 1.538 0.978999 2.8826 0.308014 3.4336-1.333985 0.64399-1.918998 1.09492-5.885187 1.04492-5.992187-2.21-4.832995-7.41824-3.674609-10.61524-3.47461-1.171 0.074-10.76116 2.310706-14.03515 4.345704-2.579 1.601998-5.923896 4.199534-8.212894 7.269531-2.512997 3.367996-3.761344 6.997847-4.527344 10.964843-0.426999 2.201998-1.015 4.38255-1.5 6.560547-1.402998 6.298994-1.193954 11.12435-2.126953 16.652344-1.205998 7.142993-1.673656 14.395351-1.847656 21.652344-0.038 1.566998 4.186002 6.414062 6 7.039062 4.590996 1.58 26.638677-4.753906 26.638677-4.753906 2.58199-0.484999 5.36011-2.476596 8.0371-5.058594-0.148 2.827998-2.39009 10.6987-2.62109 12.4707-0.138 1.068-0.091 2.31539 1.25 2.65039 1.353 0.339 2.73374 0.24613 3.55273-1.17187 0.902-1.555 6.75007-20.281316 7.41407-22.570313 0.862-2.974997 22.43142-9.666671 23.98242-8.263672 1.148 1.035999 1.11962 3.047048 0.89062 4.623047-0.88999 6.131993-0.91184 20.574578-0.96484 21.642578-0.043 0.889-0.12531 1.93264 0.92969 2.30664 1.057 0.373 1.79028-0.37724 2.61328-0.99023 1.361-1.013 4.21242-30.099302 5.60742-31.154301 1.375-1.041999 1.68291-2.429126-0.12109-3.703125-2.047-1.445998-1.62794-24.183629-2.46094-28.015625-0.262-1.211999-1.53177-1.404391-2.38477-2.02539-0.86799-0.632-5.70303-3.299941-4.33203-6.460938 0.183-0.361 1.33466-4.168969 1.34766-4.667969-0.57113-0.925874-1.17166-1.328904-1.78906-1.421875zm97.23633 0.117188c-0.72228-0.01358-1.54822 0.09956-2.50391 0.351562-2.962 0.778999-5.6956 2.174252-8.43359 3.53125-1.925 0.957999-12.41494 6.106923-14.58594 7.419922-8.05699 4.874995-15.80685 10.186242-21.08985 18.115234-4.91399 7.373993-8.37242 15.333963-6.23242 24.626954 0.511 2.220997 0.69014 4.892204 2.49414 6.158203 4.501 3.156997 35.21229 39.11815 30.7793 45.11914-2e-3 0-1.52539 2.55859-1.52539 2.55859-1.203 1.278-1.30444 2.49208-2.27344 3.83008-2.067 2.187-3.96514 3.35169-6.24414 5.05469-0.689 0.514-1.71438 1.26745-2.35937 0.31445-0.768-1.139 0.0835-1.63523 0.52148-2.24023 1.36-1.885 4.51103-2.47591 6.20703-4.37891 0.169-0.191 0.21486-0.87372 6e-3 -1.01172-2.038-1.259-3.7536-0.55467-5.93359 0.23633-4.72 1.714-9.91902 3.31972-12.91602 5.88672-2.5 2.141-15.52322 11.02286-14.19922 13.75586 0.567 1.169 13.3193 5.29868 18.1543 3.42969 3.24-1.253 38.87289-17.47546 42.33789-21.31446 1.312-1.455 2.63637-1.28936 1.60938-3.19336-0.723-1.34099-3.18033-6.1052-3.98633-5.1582-1.277 1.503-38.94311-54.994196-34.41211-65.617186 0.671-1.571998 10.95346-14.809064 15.56445-16.664062 0.357-0.143 0.72472-0.07959 0.88672 0.316406 0.264 0.643999 0.14342 1.241313-0.39258 1.695312-1.159 0.982999-2.36291 1.912064-3.50391 2.914063-3.11899 2.740997-3.34177 3.767613-1.67578 7.349609 3.365 2.698998 30.73274-22.802925 29.42774-26.544922-1.404-4.025933-2.59085-6.482163-5.7207-6.541015zm-219.277349 2.488281c-3.154368-0.04685-5.572063 0.09019-6.101562 0.398437-2.327998-0.045-17.948083 4.711221-22.330078 6.449219-1.888999 0.749-7.4137982 6.637096-7.8417977 9.121094-0.4659996 2.688997-0.06145 3.489219 2.6855468 3.449219 3.2859967-0.046 6.3556439-1.073267 9.4316409-2.072266 3.000997-0.975999 5.997941-1.971219 9.210938-1.949219 0.915999 7e-3 1.841406 0.02753 2.316406 1.019532 0.473 0.990999-0.06834 1.791125-0.652344 2.453125-1.782998 2.024998-3.577283 4.051033-5.488281 5.957031-2.530997 2.525997-3.277798 5.964175-4.466797 9.076172-0.604999 1.579998-1.65661 24.399675-2.349609 27.638672-0.146 0.685999-1.509032 1.130297-2.332032 1.654297-1.5839984 1.010998-3.1492985 2.054282-4.7792969 2.988281-4.017996 2.300997-2.5027466 6.73961 0.90625 8.09961 1.072999 0.43 2.116001 0.94772 3.1250009 1.51172 0.492999 0.274 1.389266 2.3174 1.822265 2.9414 1.994998 2.878-0.05189 24.9144-0.58789 33.40039-0.064 1.004-9.7011733 10.09802-10.2011727 10.54102-2.12899788 4.024-1.93013632 3.87649 2.3808593 6.39648 0.5719995 0.334 6.9508924-0.61367 8.0878914 2.48633 0.540999 1.473 1.648376 2.5918 3.359375 2.7168 1.798998 0.13 3.418954-0.3623 4.501953-1.9043 0.455999-0.65 0.850063-1.40973 1.039062-2.17773 0.763-3.087 2.831456-3.86205 5.689453-3.37305 6.764994-0.736 28.242069-11.95725 34.289063-14.78125 2.665997-1.244 14.265963-16.24932 8.792969-27.07031-0.403-2.342-30.884177-14.164221-35.451172-15.07422-1.137999-0.227999-2.411546-1.35622-1.810547-3.074218 5e-3 -0.274 0.01163-0.549219 0.01563-0.824219 0.129-0.994999 0.70647-1.712344 1.480469-2.277344 4.754995-3.469996 26.260971-16.472189 28.542969-17.992187 4.864995-3.238997 9.500191-6.578957 13.992187-10.126953 5.449995-4.304996 4.76533-10.171366 7.111328-16.69336 1.363994-3.789996-22.602166-15.57922-27.785161-17.074219-4.039996-1.165623-11.346236-1.755908-16.603516-1.833984zm163.902349 0.164063c-9.87876 0.05948-28.76796 1.959004-29.28321 6.84375-0.145 1.374998-1.07126 6.224733 0.55274 5.677734 1.75299-0.591 3.59628-0.553751 5.36328-1.34375 2.436-1.087999 5.15444-1.576563 7.77343-2.226563 1.791-0.445999 2.89927 0.414893 2.82227 2.212891-0.106 2.434998-0.34406 4.885252-0.78906 7.28125-0.502 2.699997-2.07996 21.010411-2.75195 25.816406-0.722 5.157995-0.48157 10.326193-0.60157 15.492188-0.041 1.735998-0.47867 3.480892-0.0137 5.21289-0.351 2.566998 0.75114 5.034675 0.49414 7.638675-0.183 1.83799 5.23074 0.47779 6.05274-0.783206-0.588-4.828995-0.36654-9.667614 0.10546-14.474609 0.4-4.080996 0.50261-9.718723 1.22461-13.761719 1.508-8.449992 0.97657-15.618883 2.60157-24.046875 0.714-3.708996-0.83267-11.245485 0.48632-11.521484 2.363-0.495 12.06654 1.294498 12.26954-0.4375 0.273-2.335998 1.07568-5.163362-0.44532-7.06836-0.2765-0.346499-2.56841-0.531547-5.86132-0.511718zm-157.699224 13.978515c7.715477 0.06628 19.293237 3.099816 21.427735 6.882813 2.289997 4.058996-4.605549 13.747126-6.185547 15.453125-2.224998 2.402997-25.519612 18.98181-27.84961 16.632812-1.581998-1.594998-1.33675-1.987814-1.59375-3.382812-0.578999-3.146997 2.606659-21.979975 4.722657-28.167969 0.488999-1.428999 1.018469-2.866533 1.605468-4.269531 0.386-0.924999 1.066501-1.629579 1.9375-2.142579 1.221249-0.719499 3.363722-1.027953 5.935547-1.005859zm110.117184 3.898438c0.64785 0.03921 1.31772 0.355719 1.94922 0.933593 0.294 0.269 3.53394 4.86144 3.71094 7.023438 0.377 4.632995 1.24859 9.152598 0.80859 13.808594-0.16 1.693998-12.50864 3.446188-17.55664 3.867187-0.535 0.045-1.1694 0.01528-1.3164-0.636719-0.165-0.735999 7.50839-17.718927 9.65039-22.794922 0.65875-1.560623 1.67416-2.266523 2.7539-2.201171zm-124.421871 63.124998c0.141058 9e-3 0.277266 0.0471 0.408203 0.11719 3.905996 2.089 8.293879 2.86519 12.421875 4.36719 5.158995 1.87899 10.173833 4.04853 14.798828 7.01953 1.537998 0.987 1.176078 2.64234 0.705078 4.90234-0.456999 2.19-9.532297 7.67849-10.029297 7.89649-4.308995 1.89399-15.945767 6.57309-17.509765 6.87109-2.268998 0.432-4.496799 1.10581-6.716797 1.75781-1.504999 0.443-2.202047-0.16873-1.873047-1.55273 0.916999-3.851 1.674703-15.34197 1.720703-17.16797 0.157-1.236 0.944844-7.10856 0.964844-7.35156-0.120938-0.68344 2.993498-6.99651 5.109375-6.85938zm52.683593 8.83008c-2.197743-0.0254-4.462095 0.47847-6.449218 1.57422-2.934997 1.18-4.735813 9.02759-4.757813 10.68359-0.04 3.074-0.451388 6.03214 1.59961 8.61914 0.287999 0.363 1.952875 2.43375 2.171875 2.34375 0.460999 0.738 4.5095 2.26172 5.3125 2.38672 4.265995 0.126 8.101924-0.52653 10.919922-4.01953 2.882997-5.76899 3.217246-11.54127 0.03125-17.32227-1.689374-2.70749-5.165219-4.22326-8.828126-4.26562zm96.742188 0.42383c-0.26896-2e-3 -0.55678 2e-3 -0.86328 8e-3 -3.128 0.065-10.552 2.64788-10.75 3.42187-3.183 4.488-3.23778 9.43965-2.17578 14.55665 1.117 3.44099 3.62092 5.189 6.66992 6.75 3.119-0.366 6.4303 0.38878 9.5293-0.32422l-0.0195 0.01c0.79899-0.034 1.49815-0.0208 2.66015-1.17578l0.0117 0.0703c0.719-3.36299 0.21256-6.76739 0.35156-10.15039 0.047-1.1-0.57948-1.34398-1.52148-1.33398-2.246 0.023-4.49329 0.027-6.73828 0-0.953-0.01-1.50411 0.2578-1.53711 1.3418-0.033 1.10799 0.359 1.55293 1.5 1.71093 1.24918 0.17347 2.69935-0.28005 3.70898 0.90625 0.63175 1.69249 1.91192 3.55615-1.13867 4.27735-2.74 0.736-5.01177 0.0507-6.88477-2.11329-2.61099-3.01499-2.29346-6.32773-0.98046-9.67773 1.09199-2.783 3.46328-3.55442 6.23828-3.48242 1.794 0.048 3.58495 0.0878 5.37695 0.13281 0.52875-3.83812 0.59692-4.89329-3.4375-4.92773zm-45.86914 0.10547c-2.878 3e-3 -5.75677 5e-3 -8.63477 8e-3 -0.442 0.047-0.88322 0.0907-1.32422 0.13672-0.92299 0.751-0.64143 1.79595-0.64843 2.75195-0.044 7.19199-0.0725 14.38513-0.10547 21.57812 1.668 0.582 3.33047 0.69641 4.98047-0.0586 0.023-2.553 0.01-5.11111 0.0879-7.66211 0.018-0.631-0.48986-1.78059 0.99414-1.55859 1.182 0.144 1.85359 0.12659 2.43359 1.05859 1.668 2.684 3.36288 5.35235 5.04688 8.02735 3.57899 0.019 7.15738 0.0386 10.73437 0.0586 0.036-1.363 1.38282-4.18359 1.38282-4.18359 0.064-1.071 1.12159-1.09457 1.80859-1.10157 1.69-0.015 3.38445 0.0877 5.06445-0.0312 1.6-0.111 2.30253 0.58099 2.39453 2.08399 0.46 0.994 0.76216 2.10408 1.41016 2.95508 1.307 1.71699 3.33697 0.94307 4.79297 0.58007 1.407-0.352 0.25598-1.80167-0.041-2.76367-2.64099-5.29399-4.75625-10.79071-6.40625-16.4707l-1.71679-4.08789c-1.166-2.109-4.78218-4e-3 -5.32618 0.43164-1.28799 3.193-2.57237 6.38903-3.85937 9.58203-0.698 3.722-2.34052 7.13016-3.85352 10.53516-0.758 1.70699-1.34812-0.0499-1.82812-0.71289-1.177-1.202-3.66144-5.05415-4.02344-5.36915-2.414-2.09899 2.97777-5.99634 3.25977-7.90234 0.425-2.863-0.58941-5.07961-2.94141-6.72461-1.043-0.972-2.38764-0.98615-3.68164-1.16015zm70.45508 0.084c-5.012 0.011-10.02126 0.0232-15.03125 0.0352-0.292 8.06699-0.21702 16.13513-0.041 24.20312 5.205-0.05 10.40829-0.0994 15.61328-0.15039 0-1.302-9.5e-4 -2.6072-2e-3 -3.9082-2.911-0.697-5.87483-0.33986-8.79883-0.25586-2.424 0.07-2.03151-1.40644-1.97851-2.77344 0.053-1.349-0.7182-3.14578 1.96679-3.05078 2.57 0.09 5.17638 0.37395 7.73438-0.24805 0-1.164-9.6e-4 -2.33014-2e-3 -3.49414-2.49399-0.953-5.0899-0.2108-7.6289-0.4668-0.851-0.086-2.15063 0.455-2.01563-1.25-4e-3 -1.06899-7e-3 -2.13898-0.01-3.20898-0.066-1.177 0.83247-0.93622 1.48047-0.94922 1.782-0.035 3.56661-0.0127 5.34961-0.0137 4.11799-2e-3 4.25228-0.18275 3.36328-4.46875zm-91.00781 0.0586c-5.181 0.041-10.36107 0.0811-15.539068 0.12305-9e-3 8.06599-0.01444 16.13413-0.02344 24.20313 1.572998 0.74299 3.218848 0.30964 4.839848 0.30664 0.054-2.51 0.27837-5.02954 0.10937-7.51953-0.151-2.231 0.71654-2.81658 2.76953-2.64258 1.787 0.152 3.60258-0.0624 5.39258 0.0566 1.627 0.107 1.72397-0.796 1.66797-2-0.055-1.144 0.25766-2.40431-1.65234-2.32032-2.244 0.098-4.49714-0.0157-6.74414 0.0313-1.145 0.025-1.50132-0.39551-1.57031-1.5625-0.254-4.265-0.30808-4.26172 4.04492-4.26172h2.42773c4.442 0 4.44234-1e-3 4.27735-4.41407zm-30.64063 3.91602c2.614831-0.0971 5.390079 1.64383 5.876953 6.52148 0.095 0.953 0.255858 6.25015-1.619141 7.86914l-0.539062 0.53516c-2.689997 2.124-6.07758 1.79347-7.892578-0.76953-1.893998-2.672-1.898545-9.04102-0.185547-11.79102 0.855155-1.37231 2.57028-2.29876 4.359375-2.36523zm47.39258 0.11133c0.16656-3e-3 0.34919 8.1e-4 0.54687 0.0156 3.112 0.238 4.6215 1.06143 4.6875 3.23242 0.076 2.5-1.72736 3.7259-5.06836 3.8379-3.17899 0.10799-1.52578-1.80851-2.05078-3.4375 0.24188-1.64344-0.61364-3.60494 1.88477-3.64844zm23.5 4.05468c1.055 0.204 2.01275 4.58135 1.96875 5.77735-0.067 1.826-5.16231 1.64979-4.19531-0.9082 0.364-1.056 1.09556-5.08814 2.22656-4.86915z"/></svg>
