<svg width="698.29" height="208.33" fill-rule="evenodd" viewBox="0 0 197.07 58.796" xml:space="preserve" xmlns="http://www.w3.org/2000/svg"><g fill="#fff"><path d="M159.185 20.333c0 13.427 15.875 11.507 15.875 2.116V.224h-15.875v20.108z"/><path d="M137.315 34.444c0 6.634 4.582 10.583 11.289 10.583h38.1c5.658 0 10.23-3.908 10.23-9.525V7.632c0-3.385-2.523-7.055-5.644-7.055h-8.82v22.93c0 17.416-30.338 17.282-30.338.353V.224h-6.703c-4.364 0-8.114 2.765-8.114 7.055v27.164z"/><path d="M84.577 6.812c0 3.621 3.05 6.67 6.861 6.67 4.003 0 7.148-2.954 7.148-6.67 0-3.717-3.145-6.671-7.148-6.671-3.812 0-6.861 2.954-6.861 6.67zm12.958 51.462V20.059H85.72v38.215zm10.96-51.462c0 3.621 3.144 6.67 6.956 6.67 3.908 0 7.053-2.954 7.053-6.67 0-3.717-3.145-6.671-7.053-6.671-3.811 0-6.956 2.954-6.956 6.67zm12.96 51.462V20.059h-11.81v38.215zM66.947 3.381 56.655 43.883s-7.91-30.4-9.244-34.784c-1.24-4.288-3.908-6.194-7.624-6.194-3.812 0-6.385 1.906-7.72 6.194-1.238 4.384-9.148 34.784-9.148 34.784L12.53 3.381H.14s11.913 43.171 13.534 48.222c1.238 3.907 4.288 7.052 8.672 7.052 5.146 0 7.529-3.716 8.577-7.052 1.143-3.43 8.863-31.925 8.863-31.925s7.719 28.495 8.767 31.925c1.144 3.336 3.526 7.052 8.577 7.052 4.48 0 7.434-3.144 8.768-7.052 1.62-5.05 13.533-48.222 13.533-48.222H66.948z" fill-rule="nonzero"/></g></svg>