<svg enable-background="new 0 0 3839 1154.6" version="1.1" viewBox="0 0 3839 1154.6" xml:space="preserve" xmlns="http://www.w3.org/2000/svg">
<path d="m1802 0c-75.1999 0-136.2992 58.900073-136.1992 131.5 0 72.39993 60.9993 131.19922 136.1992 131.19922 78.0999 0 139.3008-57.59929 139.3008-131.19922 0-73.799926-61.2009-131.5-139.3008-131.5zm472.5 0c-75.0999 0-136.0996 58.900073-136.0996 131.5 0 72.49993 60.9997 131.19922 136.0996 131.19922 77.9999 0 139.3008-57.69929 139.3008-131.19922 0-73.799926-61.3009-131.5-139.3008-131.5zm562.9004 0c-95.2999 0-152.9004 57.600486-152.9004 152.90039l0.0996 494.40039c0 143.39986 75.1998 218.59961 218.5996 218.59961h717.2012c143.3998 0 218.5996-75.19975 218.5996-218.59961l0.0996-494.40039c-0.1-95.299904-57.7001-152.90039-153-152.90039h-130.4004v404.30078c0 195.09981-112.7002 300.39844-294 300.39844s-293.8984-105.29863-293.8984-300.39844v-404.30078h-130.4004zm271.7988 0v401.09961c0.1 106.49989 65.6001 174.30078 152.5 174.30078s152.5-67.70128 152.5-174.20117v-401.19922h-305zm-2326.99998 54.900391c-73.99993 0-126.29964 37.300085-151.59961 122.499999-25.39998 85.09992-181.19922 684.90039-181.19922 684.90039l-203.80078-799.101561h-245.59961s235.70081 852.600881 267.80078 951.300781c25.09998 77.0999 83.9997 140.0996 171.59961 140.0996 100.1999 0 146.99963-72.9997 168.59961-140.0996 21.49998-66.59993 174.09961-629.80078 174.09961-629.80078s152.60119 563.20085 174.20117 629.80078c21.49998 67.0999 68.49972 140.0996 168.59962 140.0996 87.5999 0 146.5996-62.9997 171.5996-140.0996 32-98.6999 267.6992-951.300781 267.6992-951.300781h-245.3984l-204 799.101561s-155.70004-599.80047-181.00002-684.90039c-25.29997-85.199914-77.60164-122.499999-151.60156-122.499999zm906.30078 339.400389v752.00002h232.3008v-752.00002h-232.3008zm472.3008 0v752.00002h232.3984v-752.00002h-232.3984z"/>
</svg>
