<svg enable-background="new 0 0 3839 1154.6" version="1.1" viewBox="0 0 3839 1154.6" xml:space="preserve" xmlns="http://www.w3.org/2000/svg">
<path fill="#A19FA3" d="m1802 0c78.1 0 139.3 57.7 139.3 131.5 0 73.6-61.2 131.2-139.3 131.2-75.2 0-136.2-58.8-136.2-131.2-0.1-72.6 61-131.5 136.2-131.5m-113.5 1146.3h232.3v-752h-232.3zm449.9-1014.8c0 72.5 61 131.2 136.1 131.2 78 0 139.3-57.7 139.3-131.2 0-73.8-61.3-131.5-139.3-131.5-75.1 0-136.1 58.9-136.1 131.5m22.4 1014.8h232.4v-752h-232.4zm-842-1083.1-204 799.1s-155.7-599.8-181-684.9c-25.3-85.2-77.6-122.5-151.6-122.5s-126.3 37.3-151.6 122.5c-25.4 85.1-181.2 684.9-181.2 684.9l-203.8-799.1h-245.6s235.7 852.6 267.8 951.3c25.1 77.1 84 140.1 171.6 140.1 100.2 0 147-73 168.6-140.1 21.5-66.6 174.1-629.8 174.1-629.8s152.6 563.2 174.2 629.8c21.5 67.1 68.5 140.1 168.6 140.1 87.6 0 146.6-63 171.6-140.1 32-98.7 267.7-951.3 267.7-951.3z"/><path fill="#17B3E8" d="m3261.7 575.4c86.9 0 152.5-67.7 152.5-174.2v-401.2h-305v401.1c0.1 106.5 65.6 174.3 152.5 174.3m424.4-575.4h-130.4v404.3c0 195.1-112.7 300.4-294 300.4s-293.9-105.3-293.9-300.4v-404.3h-130.4c-95.3 0-152.9 57.6-152.9 152.9l0.1 494.4c0 143.4 75.2 218.6 218.6 218.6h717.2c143.4 0 218.6-75.2 218.6-218.6l0.1-494.4c-0.1-95.3-57.7-152.9-153-152.9"/>
</svg>
