<svg height="165.92" viewBox="0 0 564.703 165.918" width="564.7" xmlns="http://www.w3.org/2000/svg"><g fill="#fff"><path d="M92.609 29.581c6.181-6.782 9.402-16.306 9.846-29.116l.01-.465-.455.093C80.298 4.534 69.087 18.14 68.684 40.532l-.008.436.431-.067c10.341-1.619 18.025-5.323 23.492-11.32zM17.902 144.76l.399.574c3.588 5.176 7.703 10.211 12.229 14.971 3.447 3.623 8.938 5.617 15.46 5.617 4.78 0 9.736-1.124 12.935-2.934 6.618-3.74 10.125-3.748 12.685-3.752.514 0 .994-.002 1.456-.029l.418-.027c.554-.035 1.126-.074 1.771-.074 2.27 0 5.66.445 11.823 3.928 4.301 1.804 8.472 2.717 12.397 2.717h.002c10.686 0 20.056-6.688 28.644-20.43l.351-.561H17.902l.002-.01z"/><path d="M129.74 59.003a70.814 70.814 0 0 1 4.623-4.208l.277-.231-.228-.281c-8.055-9.936-19.085-15.294-31.897-15.496l-.587-.003c-6.493 0-12.235 1.217-16.604 3.519-5.666 2.984-9.88 3.646-9.921 3.652-.074.01-.538.028-1.81.028-1.544 0-2.877-.025-3.037-.048l-.102-.013c-1.817-.235-6.448-.997-10.202-2.998-5.102-2.72-10.786-4.159-16.437-4.159l-.372.002c-14.942.167-27.433 7.448-35.194 20.236h121.5zm-12.53 21.242c1.47-7.11 5.439-14.013 11.911-20.619l.61-.623H8.251l-.108.177C4.42 65.358 1.954 72.504.783 80.244l116.43.001zm2.85 20.985c-2.938-6.035-4.381-13.008-2.919-20.543l.084-.437H.795l-.042.31c-.985 6.711-.985 13.658-.074 20.668h119.39z"/><path d="M6.393 123.24h133.06l.779-1.685-.32-.158c-6.368-3.153-14.905-10.055-19.765-19.967l-.101-.205H.676l.055.414c.812 6.09 2.472 13.46 5.668 21.61z"/><path d="M17.904 144.76h110.56c4.221-6.841 7.701-14.373 10.758-20.992l.24-.52H6.412l.201.502c2.912 7.26 6.689 14.28 11.293 21.01zM373.91 38.527v78.112h18.555V38.526h-18.55zm122.69 0V49.02h10.902c1.352 0 2.447 1.127 2.447 2.516v52.112c0 1.391-1.104 2.516-2.447 2.516H496.6v10.514h29.365V38.525h-29.36zm38.52 0v78.151h29.367v-10.514h-10.902c-1.354 0-2.447-1.125-2.447-2.516V51.534c0-1.389 1.094-2.516 2.447-2.516h10.902V38.525h-29.37zM157.16 57.298c-8.841 0-16.031 2.907-22.043 8.88-6.054 6.016-8.912 12.669-8.912 20.426 0 7.646 3.015 14.395 9.423 20.705 6.392 6.299 13.492 9.33 21.751 9.33h11.962v-13.74h-4.931c-4.734 0-8.978-1.547-12.291-4.563-3.312-3.014-5.113-7.059-5.113-11.525 0-4.512 1.764-8.574 5.041-11.471 3.258-2.883 7.441-4.298 12.145-4.298h12.948c1.352 0 2.447 1.125 2.447 2.514v43.083h18.555V57.297h-41zm53.16 0v78.114h18.573V73.557c0-1.389 1.096-2.514 2.447-2.514h12.053c5.064 0 9.608 1.756 13.167 5.162 3.29 3.152 5.131 7.128 5.131 11.433 0 4.451-1.977 8.449-5.534 11.205-3.511 2.724-7.878 4.058-12.765 4.058h-4.255v13.74h12.51c8.708 0 15.867-2.806 21.916-8.521 6.044-5.714 8.93-12.373 8.93-20.576 0-8.5-2.894-15.452-8.913-21.4-6.027-5.957-13.029-8.843-21.477-8.843l-41.79-.003zm81.8 0v78.114h18.555V73.557c0-1.389 1.1-2.514 2.447-2.514h12.071c5.063 0 9.606 1.756 13.166 5.162 3.292 3.152 5.132 7.128 5.132 11.433 0 4.457-1.998 8.453-5.553 11.205-3.507 2.72-7.857 4.058-12.745 4.058h-4.256v13.74h12.51c8.707 0 15.847-2.804 21.896-8.521 6.045-5.714 8.937-12.373 8.937-20.576 0-8.5-2.896-15.452-8.913-21.4-6.023-5.958-13.011-8.843-21.458-8.843l-41.8-.003zm146.64 0c-9.93 0-18.368 3.023-25.695 9.144-7.345 6.136-10.72 12.707-10.72 20.255 0 9.113 3.478 16.156 10.864 21.889 6.922 5.357 15.299 8.053 25.441 8.053h37.182v-13.74h-35.283c-4.678 0-8.898-1.582-12.234-4.619-3.357-3.057-5.188-7.188-5.188-11.785 0-4.388 1.764-8.339 4.986-11.189 3.25-2.873 7.531-4.26 12.436-4.26h12.055a2.436 2.436 0 0 1 2.197 1.419 2.579 2.579 0 0 1-.279 2.654l-13.387 17.323h20.309l14.391-19.708V57.297h-37.07z"/><path d="M373.69 38.42v78.566h18.993v-78.57h-18.99zm122.69 0v10.945h11.123a2.197 2.197 0 0 1 1.578.668 2.32 2.32 0 0 1 .65 1.623v52.113a2.327 2.327 0 0 1-.65 1.621 2.19 2.19 0 0 1-1.578.668h-11.12v10.965h29.807v-78.6h-29.81zm38.52 0v78.604h29.805V106.06h-11.121a2.19 2.19 0 0 1-1.578-.668 2.297 2.297 0 0 1-.645-1.621V51.658a2.298 2.298 0 0 1 .645-1.623 2.19 2.19 0 0 1 1.578-.668h11.121V38.421h-29.8zM157.16 57.194c-8.891 0-16.138 2.923-22.189 8.936-6.09 6.05-8.985 12.775-8.985 20.591 0 7.713 3.035 14.527 9.479 20.879 6.426 6.332 13.601 9.386 21.915 9.386h12.181v-14.188h-5.149c-4.688 0-8.873-1.523-12.145-4.506-3.271-2.979-5.041-6.949-5.041-11.354 0-4.458 1.735-8.426 4.968-11.286 3.214-2.846 7.337-4.263 11.998-4.263h12.948a2.19 2.19 0 0 1 1.577.669c.418.43.653 1.015.651 1.62v43.313h18.993V57.195h-41.2zm52.94 0v78.564h19.012V73.672c-.002-.605.232-1.19.65-1.62s.986-.67 1.577-.669h12.053c5.016 0 9.501 1.74 13.021 5.106 3.255 3.119 5.06 7.022 5.06 11.264 0 4.388-1.951 8.302-5.46 11.021-3.47 2.688-7.771 4.021-12.62 4.021h-4.475v14.189h12.729c8.756 0 15.991-2.824 22.08-8.582 6.084-5.745 8.984-12.479 8.984-20.739 0-8.559-2.909-15.583-8.967-21.569-6.065-5.995-13.142-8.899-21.641-8.899l-42-.009zm81.8 0v78.564h18.993V73.672a2.321 2.321 0 0 1 .649-1.62c.42-.43.983-.67 1.58-.669h12.066c5.02 0 9.501 1.74 13.021 5.106 3.254 3.119 5.06 7.022 5.061 11.264-.001 4.396-1.973 8.304-5.479 11.021-3.469 2.687-7.754 4.021-12.604 4.021h-4.479v14.189h12.729c8.757 0 15.974-2.822 22.062-8.582 6.086-5.745 8.984-12.479 8.984-20.739 0-8.559-2.906-15.583-8.967-21.569-6.064-5.997-13.124-8.899-21.623-8.899l-41.99-.009zm146.86 0c-9.973 0-18.477 3.027-25.842 9.18-7.381 6.166-10.793 12.823-10.793 20.442 0 9.178 3.506 16.309 10.938 22.078 6.964 5.387 15.402 8.092 25.588 8.092h37.398v-14.193h-35.51c-4.633 0-8.795-1.561-12.09-4.561-3.314-3.021-5.113-7.082-5.113-11.623 0-4.329 1.734-8.188 4.912-11 3.205-2.834 7.428-4.225 12.291-4.225h12.055a2.221 2.221 0 0 1 2.01 1.296 2.337 2.337 0 0 1-.273 2.422l-13.662 17.685h20.875l14.502-19.862V57.197h-37.3z"/></g></svg>