<svg width="564.7" height="165.92" version="1.1" viewBox="0 0 564.703 165.918" xmlns="http://www.w3.org/2000/svg"><path d="m102.46539 5.1511462e-4 -0.45508 0.09179736038c-21.711983 4.440995525-32.923353 18.04768952-33.326353 40.43966752l-0.007812 0.435549 0.431643-0.066407c10.340989-1.618998 18.023364-5.323378 23.490358-11.320372h0.011719c6.180994-6.781993 9.401755-16.305401 9.845755-29.11538868l0.00977-0.4648462054zm271.22799 38.41621889-0.0039 0.003906v78.56487h18.99424v-78.568776h-18.99034zm161.20593 0.003906v78.60393h29.80485v-10.9649h-11.1192a2.19 2.19 0 0 1-1.57813-0.66797 2.297 2.297 0 0 1-0.64649-1.6211v-52.113562a2.298 2.298 0 0 1 0.64649-1.621102 2.19 2.19 0 0 1 1.57813-0.667972h11.1192v-10.947324h-29.79899-0.00586zm-38.51973 0.001953v10.941465h11.12311a2.197 2.197 0 0 1 1.57813 0.667972 2.32 2.32 0 0 1 0.65039 1.623055v52.113555a2.327 2.327 0 0 1-0.65039 1.6211 2.19 2.19 0 0 1-1.57813 0.66798h-11.1192v10.9649h29.80679v-78.600027h-29.8107zm-452.564895 0.341799-0.371096 0.001953c-14.941985 0.167-27.434506 7.448448-35.1954985 20.236435h0.0019532l-0.1074225 0.177736c-3.7229963 6.177994-6.1884151 13.322619-7.35941393 21.062611l116.4263927 0.001953c1.47-7.109993 5.44018-14.013256 11.91218-20.619249l0.60938-0.623051h0.00976a70.814 70.814 0 0 1 4.62112-4.207053l0.27734-0.232423-0.22656-0.281252c-8.05499-9.93599-19.08662-15.292222-31.89861-15.494222l-0.58594-0.003907c-6.49299 0-12.234604 1.217553-16.6036 3.51955-5.665994 2.983997-9.880927 3.646363-9.921927 3.652363-0.074 0.01-0.538558 0.027344-1.810557 0.027344-1.543998 0-2.877125-0.025828-3.037125-0.048828l-0.101563-0.011719c-1.816998-0.235-6.44723-0.997065-10.201226-2.998063-5.101995-2.719997-10.786593-4.160178-16.437587-4.160178zm166.287985 18.421973-0.00195 0.007812v78.562913h19.01182v-62.08431c-2e-3 -0.604999 0.23239-1.191103 0.65039-1.621102 0.418-0.43 0.98519-0.668973 1.57618-0.667973h12.0528c5.016 0 9.50156 1.739499 13.02156 5.105496 3.25499 3.118997 5.05862 7.021736 5.05862 11.263732 0 4.387995-1.95002 8.302545-5.45902 11.021542-3.46999 2.687995-7.77021 4.019555-12.6192 4.019555h-4.47659v14.18953h12.73054c8.75599 0 15.98924-2.82409 22.07824-8.58208 6.08399-5.74499 8.98442-12.4784 8.98442-20.738392 0-8.558991-2.90885-15.582479-8.96684-21.568473-6.065-5.994994-13.14175-8.900438-21.64074-8.900438l-42.00023-0.007812zm81.80122 0-0.00391 0.007812v78.562913h18.99229v-62.08431a2.321 2.321 0 0 1 0.65039-1.621102c0.42-0.43 0.98309-0.668973 1.58009-0.667973h12.06452c5.01999 0 9.50155 1.739499 13.02155 5.105496 3.254 3.118997 5.05957 7.021736 5.06057 11.263732-1e-3 4.395995-1.97254 8.304545-5.47854 11.021542-3.469 2.686995-7.75359 4.019555-12.60358 4.019555h-4.47854v14.18953h12.72858c8.75699 0 15.97462-2.82209 22.06262-8.58208 6.08599-5.74499 8.98247-12.4784 8.98247-20.738392 0-8.558991-2.90585-15.582479-8.96685-21.568473-6.06399-5.996994-13.12417-8.900438-21.62316-8.900438l-41.9885-0.007812zm-134.74486 0.007812c-8.89099 0-16.13662 2.9226-22.18761 8.935594-6.09 6.049994-8.98638 12.775914-8.98638 20.591906 0 7.712992 3.03653 14.527023 9.48052 20.879013 6.42599 6.332 13.60019 9.38482 21.91418 9.38482h12.1817v-14.18758h-5.15041c-4.688 0-8.8726-1.52288-12.1446-4.505879-3.271-2.978997-5.04104-6.94858-5.04104-11.353576 0-4.457995 1.73578-8.427172 4.96877-11.287169 3.214-2.845997 7.33712-4.261741 11.99811-4.261741h12.94734a2.19 2.19 0 0 1 1.57813 0.667972c0.418 0.43 0.6524 1.016103 0.6504 1.621102v43.312731h18.99228v-59.797193h-41.19943-0.00196zm281.6011 0c-9.97299 0-18.47694 3.026742-25.84193 9.179736-7.38099 6.165994-10.79303 12.822522-10.79303 20.441515 0 9.17799 3.50557 16.309252 10.93756 22.078242 6.964 5.38699 15.40204 8.09184 25.58803 8.09184h37.39863v-14.19344h-35.50995c-4.633 0-8.79491-1.56057-12.08991-4.560566-3.31399-3.020997-5.11331-7.082113-5.11331-11.623109 0-4.328995 1.73414-8.188061 4.91214-11.000058 3.205-2.833997 7.42809-4.224632 12.29108-4.224632h12.05475a2.221 2.221 0 0 1 2.00978 1.296882 2.337 2.337 0 0 1-0.27344 2.421888l-13.66218 17.683687h20.87511l14.50203-19.861433v-15.728599h-37.29903l0.01367-0.001953zm-437.9652039 23.056763-0.04101584 0.308595c-0.98490858 6.710377-0.98496731 13.656787-0.07421914 20.666125h-0.00390627l0.05468778 0.41406c0.81166809 6.08752 2.47065119 13.4537 5.66409249 21.59973h133.0592949l0.77735-1.6836-0.31836-0.15821c-6.36799-3.153-14.90573-10.05491-19.76573-19.9669l-0.10156-0.20313h0.01367c-2.93747-6.034623-4.37985-13.006794-2.91799-20.541121l0.08399-0.435549h-116.4303039zm119.2643039 20.97667v0.00196l0.00976-0.00196h-0.00976zm-113.6646649 22.01184h-0.0019532l0.0058595 0.00976c-0.0013034-0.00332-0.0026035-0.00644-0.0039063-0.00976zm0.0175782 0.00781 0.2011729 0.50196c2.9119971 7.25999 6.6890328 14.27988 11.2930288 21.00987h-0.003907l0.39844 0.57423c3.587996 5.17599 7.702585 10.21078 12.22858 14.97078 3.446997 3.62299 8.939026 5.61721 15.46102 5.61721 4.779995 0 9.734665-1.12361 12.933662-2.9336 6.617993-3.74 10.125616-3.74798 12.685614-3.75198 0.513999 0 0.995039-0.00229 1.457039-0.02929l0.417971-0.02735c0.553999-0.035 1.124541-0.07226 1.76954-0.07226 2.269998 0 5.661288 0.44475 11.824282 3.92775 4.300995 1.804 8.471554 2.71681 12.39655 2.71681h0.001953c10.685991 0 20.056691-6.68781 28.644681-20.42979l0.34961-0.56251h-0.00781c4.221-6.84099 7.70087-14.37135 10.75787-20.99034l0.24024-0.52149h-133.0495367z" /></svg>
