<?xml version="1.0" encoding="utf-8"?>
<!-- Generator: Adobe Illustrator 25.4.1, SVG Export Plug-In . SVG Version: 6.00 Build 0)  -->
<svg version="1.1" id="Layer_1" xmlns="http://www.w3.org/2000/svg" xmlns:xlink="http://www.w3.org/1999/xlink" x="0px" y="0px"
	 viewBox="0 0 3839 846.9" style="enable-background:new 0 0 3839 846.9;" xml:space="preserve">
<style type="text/css">
	.st0{fill:#FFFFFF;}
	.st1{fill:#034693;}
	.st2{fill:#FFFFFF;stroke:#3852A1;stroke-width:6.1873;stroke-linecap:round;stroke-linejoin:round;stroke-miterlimit:10;}
	.st3{fill:#008ED6;}
	.st4{fill:#FF0000;}
	.st5{fill:url(#SVGID_1_);}
	.st6{fill:url(#SVGID_00000179616845435509209290000002321883779420321409_);}
	.st7{fill:#F4F8F4;}
	.st8{fill:url(#SVGID_00000149371776795119338610000006905417596837153174_);}
	.st9{fill:url(#SVGID_00000070111767486603904020000013654550158478867600_);}
	.st10{fill:url(#SVGID_00000100342118898580198190000013844089076600416135_);}
	.st11{fill:url(#SVGID_00000103944305215660291520000017853119898248434560_);}
	.st12{fill:url(#SVGID_00000034077912942598688670000003871720513116530829_);}
	.st13{fill:url(#SVGID_00000179648179444534173300000003147077678683815843_);}
	.st14{fill:url(#SVGID_00000105427592786656249390000013335201207817235076_);}
	.st15{fill:url(#SVGID_00000062171585305179524110000003687638875443264177_);}
	.st16{fill:url(#SVGID_00000181086897719562598960000015288261314222046086_);}
	.st17{fill:url(#SVGID_00000160177094504002000420000010855232545954020994_);}
	.st18{fill:url(#SVGID_00000034775549425260115560000018125058288318627744_);}
	.st19{fill:url(#SVGID_00000093168877431778429750000005461091548745686461_);}
	.st20{fill:url(#SVGID_00000163755521174915678260000012623860691188382133_);}
	.st21{fill:url(#SVGID_00000104671716711039768740000013620528976841470086_);}
	.st22{fill:url(#SVGID_00000150812945149616435070000008286019299224230070_);}
	.st23{fill:url(#SVGID_00000173878968177574687530000017746223229459743924_);}
	.st24{fill:url(#SVGID_00000137108662933381077540000013888570852775118475_);}
	.st25{fill:url(#SVGID_00000013161527812998664890000009972787528155066510_);}
	.st26{fill:url(#SVGID_00000181083513491081734680000002888676940420316852_);}
	.st27{fill:url(#SVGID_00000113355273526509258040000011312184844346089644_);}
	.st28{fill:url(#SVGID_00000152248283323999124420000014203479960639492522_);}
	.st29{fill:url(#SVGID_00000018945260753724319560000006735338536514383004_);}
	.st30{fill:#DBDCD9;}
	.st31{fill:url(#SVGID_00000065034072393394938100000010105050650619052683_);}
	.st32{fill:url(#SVGID_00000141433572732406575900000011093799791599412892_);}
	.st33{fill:url(#SVGID_00000183207153456081173260000004626587460417624704_);}
	.st34{fill:url(#SVGID_00000129164709472033648230000008005310985849796525_);}
	.st35{fill:url(#SVGID_00000002358376343603732080000007949932117825800098_);}
	.st36{fill:url(#SVGID_00000175297633945593548470000017526968469626987159_);}
	.st37{fill:url(#SVGID_00000173854117860516653510000007812180411283204031_);}
	.st38{fill:url(#SVGID_00000134960003864678169850000010686469317246264235_);}
	.st39{fill:url(#SVGID_00000126316145582831328910000000285453049692948381_);}
	.st40{fill:url(#SVGID_00000012456247963173415060000003407389175404875176_);}
	.st41{fill:url(#SVGID_00000153676542932583111180000017832391228773319854_);}
	.st42{fill:url(#SVGID_00000158750586323507865350000000241667130151262648_);}
	.st43{fill:url(#SVGID_00000018195456641865897130000001270294006674436029_);}
	.st44{fill:url(#SVGID_00000137841294863544564120000008578721452001531291_);}
	.st45{fill:url(#SVGID_00000109736585961588951770000012140380311640739978_);}
	.st46{fill:url(#SVGID_00000119816312876351406890000015140816290170545034_);}
	.st47{fill:url(#SVGID_00000013892745332658463820000008029347552817846202_);}
	.st48{fill:url(#SVGID_00000099636967202907069830000007636565443879826590_);}
	.st49{fill:url(#SVGID_00000127021937295466100110000007285357940892960439_);}
	.st50{fill:url(#SVGID_00000011729281234972231380000016249466418628968582_);}
	.st51{fill:url(#SVGID_00000092431318496135778220000007436804062717923516_);}
	.st52{fill:url(#SVGID_00000076595967102120385770000000616347806123154070_);}
	.st53{fill:url(#SVGID_00000129167040483049226010000001079335757343086467_);}
	.st54{fill:url(#SVGID_00000137127810153604523370000015562815347582809738_);}
	.st55{fill:url(#SVGID_00000126287298783218449000000002060744089461498510_);}
	.st56{fill:url(#SVGID_00000131335786807277423440000017509280881134513556_);}
	.st57{fill:url(#SVGID_00000036958121180213834560000014272566565904446850_);}
	.st58{fill:url(#SVGID_00000065040713781909180070000016053425431327640246_);}
	.st59{fill:url(#SVGID_00000170261259550787247920000001368725655197524641_);}
	.st60{fill:url(#SVGID_00000104664711091951448800000016184867602964174231_);}
	.st61{fill:url(#SVGID_00000158020347574180901040000009053755334158312631_);}
	.st62{fill:url(#SVGID_00000062893625794336523920000012267322403095048082_);}
	.st63{fill:url(#SVGID_00000125594284993261453810000018135619217406948240_);}
	.st64{fill:url(#SVGID_00000135676970081598574170000017394627319685255584_);}
	.st65{fill:url(#SVGID_00000043445936422132966700000006504090537675214473_);}
	.st66{fill:url(#SVGID_00000097494365291613612380000015545764313067527819_);}
	.st67{fill:url(#SVGID_00000126317778758005783580000001502736039327768705_);}
	.st68{fill:url(#SVGID_00000007414112208457301390000003574454377082644652_);}
	.st69{fill:url(#SVGID_00000048469498404365904520000010180089559647358098_);}
	.st70{fill:url(#SVGID_00000059301556584023387400000017924603287189460924_);}
	.st71{fill:url(#SVGID_00000171696011257706010530000007227672266935762068_);}
	.st72{fill:url(#SVGID_00000008848301556588578650000001078452603632252095_);}
	.st73{fill:url(#SVGID_00000033363750616122631460000006145719108073426587_);}
	.st74{fill:url(#SVGID_00000127722742720311580710000001733830180222821307_);}
	.st75{fill:url(#SVGID_00000009549602964973100360000014548849726206922168_);}
	.st76{fill:url(#SVGID_00000103963208771281398430000013948656676621037446_);}
	.st77{fill:url(#SVGID_00000142859185425177704830000000797957031468737187_);}
	.st78{fill:url(#SVGID_00000093176850309278436230000001066479457843732659_);}
	.st79{fill:url(#SVGID_00000022553766753906839700000005724671488442977164_);}
	.st80{fill:url(#SVGID_00000049195290375414662180000007579813103123514016_);}
	.st81{fill:url(#SVGID_00000165213782055281357620000006731317851869764740_);}
	.st82{fill:url(#SVGID_00000034810112603527929690000015162287859169360289_);}
	.st83{fill:url(#SVGID_00000124149079494611315530000002242951967611605648_);}
	.st84{fill:url(#SVGID_00000054233664091779575050000005375411782448522152_);}
	.st85{fill:url(#SVGID_00000083059577631736792950000007045346006615226254_);}
	.st86{fill:url(#SVGID_00000176033110959505470040000012144699141493502089_);}
	.st87{fill:url(#SVGID_00000183242055462220143810000007740745264998417798_);}
	.st88{fill:url(#SVGID_00000129903484200508412340000015699496676889744517_);}
	.st89{fill:url(#SVGID_00000021081917218653837230000002636690479904358334_);}
	.st90{fill:url(#SVGID_00000075126427787547216200000001763037249832270780_);}
	.st91{fill:url(#SVGID_00000172431045433323961520000012289948950379090111_);}
	.st92{fill:url(#SVGID_00000129205169634907319110000004237929380741990833_);}
	.st93{fill:url(#SVGID_00000124868658909506288650000013425839600912182657_);}
	.st94{fill:url(#SVGID_00000017513771436986703920000007820938982513769656_);}
	.st95{fill:url(#SVGID_00000157273382055568786120000017294703839270405792_);}
	.st96{fill:url(#SVGID_00000120527760141830081130000018240341132287171244_);}
	.st97{fill:url(#SVGID_00000072988850645873989140000009507157251153712277_);}
	.st98{fill:url(#SVGID_00000065073808798989395780000002015021435856024751_);}
	.st99{fill:url(#SVGID_00000142856327941199138890000015103076213293827771_);}
	.st100{fill:url(#SVGID_00000145043214204650592540000008427520868000114840_);}
	.st101{fill:url(#SVGID_00000067958306362912244580000012492396486038829741_);}
	.st102{fill:url(#SVGID_00000138566560531033291380000001402040347746852534_);}
	.st103{fill:url(#SVGID_00000081642385454325349540000013268393015813343916_);}
	.st104{fill:url(#SVGID_00000127743268742943717260000011699484496869517759_);}
	.st105{fill:url(#SVGID_00000115477430785518280870000004667362214100396718_);}
	.st106{fill:url(#SVGID_00000009559296616962450500000002786663364779020702_);}
	.st107{fill:url(#SVGID_00000029011812511015073390000016728270753870245281_);}
	.st108{fill:url(#SVGID_00000014597798579972898120000016266580004768535444_);}
	.st109{fill:url(#SVGID_00000160900888676926634570000001155610835197650356_);}
	.st110{fill:url(#SVGID_00000121987809031015232730000010234540351243163798_);}
	.st111{fill:url(#SVGID_00000076595386698805994010000010013613033000386451_);}
	.st112{fill:url(#SVGID_00000049190619141805993540000013127512002785946514_);}
	.st113{fill:url(#SVGID_00000149341264450153959600000018248949423172331151_);}
	.st114{fill:url(#SVGID_00000088120083091919640670000001880124864424753537_);}
	.st115{fill:url(#SVGID_00000018202561487281404470000004720055194431882652_);}
	.st116{fill:url(#SVGID_00000175310734375125455220000009135675487961738379_);}
	.st117{fill:url(#SVGID_00000168115982408832626320000014249768789130646430_);}
	.st118{fill:url(#SVGID_00000116203892027417265830000006123407217637931918_);}
	.st119{fill:url(#SVGID_00000050645922756549916410000011519680807061269147_);}
	.st120{fill:url(#SVGID_00000143613434498607189390000016337064150392311699_);}
	.st121{fill:url(#SVGID_00000138537530130180859590000016354088663000784525_);}
	.st122{fill:url(#SVGID_00000025409223531358474230000015236968525499538310_);}
	.st123{fill:url(#SVGID_00000062895148031498857530000006865831254701869754_);}
	.st124{fill:url(#SVGID_00000180326910585296390190000008204090269335921555_);}
	.st125{fill:url(#SVGID_00000004537964917797582970000011806799161488745615_);}
	.st126{fill:url(#SVGID_00000042005814153055246710000011377128317329589905_);}
	.st127{fill:url(#SVGID_00000028297624892626455140000004817373869391975864_);}
	.st128{fill:url(#SVGID_00000048464210903778538010000012838348943329619386_);}
	.st129{fill:url(#SVGID_00000168829699102045028240000008145688638089929907_);}
	.st130{fill:url(#SVGID_00000137826246553121716060000013045191950917688754_);}
	.st131{fill:url(#SVGID_00000011032365649484999940000010008689370850806669_);}
	.st132{fill:url(#SVGID_00000008853545958211567760000014797010781361586106_);}
	.st133{fill:url(#SVGID_00000031903465386791516810000014295549968796239494_);}
	.st134{fill:url(#SVGID_00000041988109569974626450000010846370002345268612_);}
	.st135{fill:url(#SVGID_00000053505099801565174400000006391458711680277166_);}
	.st136{fill:url(#SVGID_00000033332679009755608590000010922535485014927776_);}
	.st137{fill:url(#SVGID_00000109733943026615693150000012417017622776073373_);}
	.st138{fill:url(#SVGID_00000080908666252917311400000007408712464864636852_);}
	.st139{fill:url(#SVGID_00000073683601057533573820000017013053332679621516_);}
	.st140{fill:url(#SVGID_00000161625524379694254780000014082086946394206623_);}
	.st141{fill:url(#SVGID_00000149361063995661919380000007803960816949402030_);}
	.st142{fill:url(#SVGID_00000158015678944576839230000001939575612205785739_);}
	.st143{fill:url(#SVGID_00000001637193162884934420000016802079412573166510_);}
	.st144{fill:url(#SVGID_00000101825383566850403420000016989316788838145725_);}
	.st145{fill:url(#SVGID_00000070821307000921075940000011746564474617081234_);}
	.st146{fill:url(#SVGID_00000070812816370762762780000007786501336248815520_);}
	.st147{fill:url(#SVGID_00000036966621110208673810000005344265073894218134_);}
	.st148{fill:url(#SVGID_00000152253774725010420810000002672349661650672048_);}
	.st149{fill:url(#SVGID_00000160166874011658664920000011766595677129527955_);}
	.st150{fill:url(#SVGID_00000085946273002186698550000008065332172964078726_);}
	.st151{fill:url(#SVGID_00000124150583922300535420000003359781235270415293_);}
	.st152{fill:url(#SVGID_00000080902510985413500590000011469967352680583566_);}
	.st153{fill:url(#SVGID_00000179616945863755214800000013804023788414487682_);}
	.st154{fill:url(#SVGID_00000098201007271894598020000014408804527069946017_);}
	.st155{fill:url(#SVGID_00000081625516717164066690000006755027200963980928_);}
	.st156{fill:url(#SVGID_00000118369884325587378660000000308527878142997894_);}
	.st157{fill:url(#SVGID_00000140717705516932393250000003578086678894646951_);}
	.st158{fill:url(#SVGID_00000088125948244852875690000016876992315829403533_);}
	.st159{fill:url(#SVGID_00000017512088634407447100000014870689283730665866_);}
	.st160{fill:url(#SVGID_00000079479977606130242170000009570552067129834117_);}
	.st161{fill:url(#SVGID_00000134245178603572000100000011799705805276258695_);}
	.st162{fill:url(#SVGID_00000176005194621391091310000003469539434144067732_);}
	.st163{fill:url(#SVGID_00000181085160223217167110000004437996455042227080_);}
	.st164{fill:url(#SVGID_00000132795611309981522370000008856956722277698217_);}
	.st165{fill:url(#SVGID_00000065773582223897669330000015203923256182875787_);}
	.st166{fill:url(#SVGID_00000057835328094644011510000006141108737203471018_);}
	.st167{fill:url(#SVGID_00000180362503333975197770000002771199634732417447_);}
	.st168{fill:url(#SVGID_00000045608887390994061980000011400867283228070791_);}
	.st169{fill:url(#SVGID_00000113354933433497510840000010306223071968534970_);}
	.st170{fill:url(#SVGID_00000083058197202233902940000007198131720932104850_);}
	.st171{fill:url(#SVGID_00000002354795190310063900000011227735439317655728_);}
	.st172{fill:url(#SVGID_00000000189193617465697550000015221045347525625239_);}
	.st173{fill:url(#SVGID_00000023243726360489029850000015391440776612116879_);}
	.st174{fill:url(#SVGID_00000021099449033399823910000000099750772348601765_);}
	.st175{fill:url(#SVGID_00000172441285049381639230000008291238867758163862_);}
	.st176{fill:url(#SVGID_00000067203379308351480950000000768772502073798037_);}
	.st177{fill:url(#SVGID_00000014619103277429134330000000160744106549239192_);}
	.st178{fill:url(#SVGID_00000136411582012060000900000013597705634544864695_);}
	.st179{fill:url(#SVGID_00000015355271303833977540000008946737464835293580_);}
	.st180{fill:url(#SVGID_00000170239169081616173900000018017315473708352659_);}
	.st181{fill:url(#SVGID_00000142145126042274625600000014532517866622431910_);}
	.st182{fill:url(#SVGID_00000139978454263621479560000007373368852788723863_);}
	.st183{fill:url(#SVGID_00000100341633699030840750000012508024321452444844_);}
	.st184{fill:url(#SVGID_00000163046004813809291860000013725904017839566220_);}
	.st185{fill:url(#SVGID_00000078763804186129109550000008803468411402489765_);}
	.st186{fill:url(#SVGID_00000078755577920974503520000004398173412956850589_);}
	.st187{fill:url(#SVGID_00000019659880739701994050000015090523771491216783_);}
	.st188{fill:url(#SVGID_00000127011996987663634170000006459650258643773881_);}
	.st189{fill:url(#SVGID_00000155856315679098267060000015574674256045218985_);}
	.st190{fill:url(#SVGID_00000040554704707568136850000014041780854395892889_);}
	.st191{fill:url(#SVGID_00000064327265088012920470000007700172717008473528_);}
	.st192{fill:url(#SVGID_00000142881142809587427500000016539277032740315287_);}
	.st193{fill:url(#SVGID_00000168099915347573550750000008670314609914202528_);}
	.st194{fill:url(#SVGID_00000002370286631299257610000010780202545292875141_);}
	.st195{fill:#F6F7F7;}
	.st196{fill:url(#SVGID_00000176012105843789912110000017706350738559737259_);}
	.st197{fill:url(#SVGID_00000137112469884570151350000007737609668375481757_);}
	.st198{fill:url(#SVGID_00000115497299440887739220000003697378524583829151_);}
	.st199{fill:url(#SVGID_00000178190174956787223970000014055685738590322316_);}
	.st200{fill:url(#SVGID_00000106117509922593811660000016967100304707825595_);}
	.st201{fill:url(#SVGID_00000161625503244382098640000017546653603337403314_);}
	.st202{fill:url(#SVGID_00000012441114578458859080000005408206997322993072_);}
	.st203{fill:url(#SVGID_00000042701910043984945050000013794259429172538273_);}
	.st204{fill:url(#SVGID_00000006707382998615856730000011787848029061682334_);}
	.st205{fill:url(#SVGID_00000057143156509409593280000013419040257250704814_);}
	.st206{fill:url(#SVGID_00000183217961348912947430000009968539446291913890_);}
	.st207{fill:url(#SVGID_00000181809966767260834480000005729740127482023066_);}
	.st208{fill:url(#SVGID_00000067930734468613618980000015111637752184192900_);}
	.st209{fill:url(#SVGID_00000050637200214390551000000005058142046482933422_);}
	.st210{fill:#A8988B;}
	.st211{fill:#0C0002;}
</style>
<g>
	<g>
		<g>
			<g>
				<rect x="2897.2" y="490.6" class="st1" width="102.1" height="356.2"/>
				<g>
					<polygon class="st1" points="3140.3,609.7 3038.2,642.3 3038.2,490.6 3140.3,490.6 					"/>
					<polygon class="st1" points="3444.5,642.3 3342.3,609.7 3342.3,490.6 3444.5,490.6 					"/>
					<polygon class="st1" points="3159.2,846.8 3282.2,846.8 3071.3,490.6 3038.2,642.3 					"/>
					<polygon class="st1" points="3323.4,846.8 3200.4,846.8 3411.3,490.6 3444.5,642.3 					"/>
				</g>
				<path class="st1" d="M381.3,515.9l-20.9,35.4v-60.7H237.8c-16.8,0-32.5,9.5-41.9,25.4L0,846.8h123.1l157.4-265.8h62.3
					L185.4,846.8h123.1l164.4-277.4c2.1-3.5,6.9-1.8,6.9,2.4v275h102.1V490.6H423.2C406.4,490.6,390.7,500.1,381.3,515.9z"/>
				<path class="st1" d="M795.7,566.3h186.5v-75.7L827.3,490H717.8c-8.5,0-16.4,4.8-21.1,12.7l-49,82.7v261.4h334.4v-75.7H749.9
					v-64.4h187.6l44.8-75.7H749.9v-10.4l24.7-41.8C779.3,571,787.2,566.3,795.7,566.3z"/>
				<path class="st1" d="M3652.5,566.3H3839v-75.7l-154.9-0.6h-109.6c-8.5,0-16.4,4.8-21.1,12.7l-49,82.7v261.4H3839v-75.7h-232.3
					v-64.4h187.6L3839,631h-232.3v-10.4l24.7-41.8C3636.2,571,3644.1,566.3,3652.5,566.3z"/>
				<path class="st1" d="M1866,846.8l-195.7-330.6c-9.5-16-25.4-25.7-42.4-25.7h-186.1v356.3h102.1V707V566.3h17
					c9.9,0,19.2,5.6,24.8,15l74.6,125.9H1544l44.8,75.7h0.2h116.2l37.9,64.1h123V846.8z"/>
				<path class="st1" d="M1388.9,631.4H1378h-90.8h-32.4l-44.6,75.4h43.6v0.3h33.5v64.1h-170.7V641.5l37.1-62.6
					c4.7-8,12.6-12.8,21.1-12.8H1369v-75.7h-162.9l0.4-0.6h-105.5c-11,0-21.2,6.2-27.3,16.5l-59.1,99.8v200.1
					c0,22.3,15.9,40.4,35.6,40.4h40.4h26.1h170.6h66.6c19.6,0,35.6-18.1,35.6-40.4V771V631.4H1388.9z"/>
				<path class="st1" d="M2360.9,524.1c-12.4-20.9-33.1-33.5-55.4-33.5h-87.6h-191.8v356.2h257.2h22c22.2,0,43-12.6,55.4-33.5
					l72.5-122.4c2.6-4.4,4-9.7,4-15v-14.5c0-5.3-1.4-10.6-4-15L2360.9,524.1z M2262.8,771.1h-134.5V566.3h134.5l51.1,86.3
					c5.8,9.8,5.8,22.5,0,32.3L2262.8,771.1z"/>
				<path class="st1" d="M2755.2,713.9l58.7-99.1c2.6-4.4,4-9.7,4-15v-12.4c0-5.3-1.4-10.6-4-15l-28.7-48.5
					c-12.4-20.9-33.2-33.5-55.4-33.5h-87.5h-193.4v356.3h102.1V566.3h129.6c4.1,0,7.9,2.3,10.2,6.1l8,13.6c2.8,4.7,2.8,10.8,0,15.5
					l-39.8,67.2h-53.6l105.6,178.2H2834L2755.2,713.9z"/>
			</g>
		</g>
		<g>
			<path class="st0" d="M2405.6,71.3C2392.5,29.7,2353.3,0,2308.1,0s-84.4,29.7-97.5,71.3l-34.5,102.2V5.9h-180.7
				c-32.1,0-61.8,13.1-84.4,34.5V5.9h-185.4c-34.5,0-65.4,14.3-88,38v-38h-175.9c-74.9,0-136.7,61.8-136.7,136.7
				c0,35.7,14.3,68.9,36.9,92.7h-36.9v159.3h175.9c49.9,0,92.7-26.2,117.7-66.6c20.2,39.2,60.6,66.6,108.2,66.6h186.6V360
				c21.4,21.4,51.1,34.5,84.4,34.5h515.8L2405.6,71.3z"/>
			<g>
				<g>
					<path class="st1" d="M1501.2,263.8h-148.6v46.4h148.6c28.5,0,52.3-23.8,52.3-52.3s-23.8-52.3-52.3-52.3h-38
						c-34.5,0-63-28.5-63-63s28.5-63,63-63h147.4V33.3H1462c-60.6,0-109.4,48.7-109.4,109.4s48.7,109.3,109.3,109.3h38
						c3.6,0,5.9,2.4,5.9,5.9C1505.9,261.4,1503.5,263.8,1501.2,263.8z"/>
					<path class="st1" d="M1461.9,137.9h148.6V90.3h-148.6c-28.5,0-52.3,23.8-52.3,52.3s23.8,52.3,52.3,52.3h38
						c34.5,0,63,28.5,63,63c0,34.5-28.5,63-63,63h-147.3v46.4h148.6c60.6,0,109.4-48.7,109.4-109.4s-48.7-109.4-109.4-109.4h-38
						c-3.6,0-5.9-2.4-5.9-5.9C1457.2,140.3,1459.6,137.9,1461.9,137.9z"/>
				</g>
				<g>
					<path class="st1" d="M1995.6,90.3c-20.2,0-35.7,15.5-35.7,35.7v148.6c0,20.2,15.5,35.7,35.7,35.7h96.3V205.5h-73.7v46.4h27.3
						v10.7h-27.3c-5.9,0-10.7-4.8-10.7-10.7V147.4c0-5.9,4.8-10.7,10.7-10.7H2150V90.3H1995.6z"/>
					<path class="st1" d="M2287.9,310.2h108.2l-73.7-218.7c-2.4-5.9-7.1-10.7-14.3-10.7c-5.9,0-11.9,4.8-14.3,9.5l-95.1,276.9h54.7
						l33.3-98.7v41.6L2287.9,310.2L2287.9,310.2z M2306.9,210.3l15.5,47.6h-32.1L2306.9,210.3z"/>
					<path class="st1" d="M2379.4,82c-9.5-30.9-38-54.7-72.5-54.7s-63,22.6-71.3,53.5l-86.8,254.3V148.6h-130.8v46.4h85.6v126h-107
						c-26.2,0-46.4-21.4-46.4-46.4V126c0-26.2,21.4-46.4,46.4-46.4h153.3V33.3h-154.5c-51.1,0-92.7,41.6-92.7,92.7v148.6
						c0,51.1,41.6,92.7,92.7,92.7h191.3L2283.1,88c3.6-10.7,13.1-17.8,25-17.8c11.9,0,21.4,7.1,25,17.8l78.5,232.9H2288v46.4h187.8
						l0,0L2379.4,82z"/>
				</g>
				<g>
					<path class="st1" d="M1725.8,320.9c-26.2,0-46.4-21.4-46.4-46.4V126c0-26.2,21.4-46.4,46.4-46.4H1885V33.3h-159.3
						c-51.1,0-92.7,41.6-92.7,92.7v148.6c0,51.1,41.6,92.7,92.7,92.7H1885v-46.3H1725.8z"/>
					<path class="st1" d="M1736.4,253.1h115.3v-46.4h-161.7v68.9c0,20.2,15.5,35.7,35.7,35.7H1885v-46.4h-137.9
						C1741.2,263.8,1736.4,259,1736.4,253.1z"/>
					<path class="st1" d="M1851.7,148.6h-115.3c0-5.9,4.8-10.7,10.7-10.7h136.7V90.3h-158.1c-20.2,0-35.7,15.5-35.7,35.7v69h161.7
						C1851.7,194.9,1851.7,148.6,1851.7,148.6z"/>
				</g>
			</g>
		</g>
	</g>
</g>
</svg>
