<svg enable-background="new 0 0 3839 846.9" version="1.1" viewBox="0 0 3839 846.9" xml:space="preserve" xmlns="http://www.w3.org/2000/svg">
<path fill="#FFF" d="m2405.6 71.3c-13.1-41.6-52.3-71.3-97.5-71.3s-84.4 29.7-97.5 71.3l-34.5 102.2v-167.6h-180.7c-32.1 0-61.8 13.1-84.4 34.5v-34.5h-185.4c-34.5 0-65.4 14.3-88 38v-38h-175.9c-74.9 0-136.7 61.8-136.7 136.7 0 35.7 14.3 68.9 36.9 92.7h-36.9v159.3h175.9c49.9 0 92.7-26.2 117.7-66.6 20.2 39.2 60.6 66.6 108.2 66.6h186.6v-34.6c21.4 21.4 51.1 34.5 84.4 34.5h515.8z"/><path d="m2306.9004 27.300781c-34.5 0-63.0008 22.600031-71.3008 53.5l-86.7988 254.298829v-186.5h-130.8008v46.40039h85.5996v126h-107c-26.2 0-46.4004-21.40042-46.4004-46.40039v-148.59961c0-26.199974 21.4004-46.400391 46.4004-46.400391h153.3008v-46.298828h-154.5c-51.1 0-92.7012 41.59927-92.7012 92.699219v148.59961c0 51.09995 41.6012 92.70117 92.7012 92.70117h191.2988l96.4004-279.30078c3.6-10.699989 13.1-17.800781 25-17.800781s21.4 7.100792 25 17.800781l78.5 232.90039h-123.5996v46.40039h187.8008l-96.4004-285.30078c-9.5-30.899969-38-54.699219-72.5-54.699219zm-844.9004 6c-60.5999 0-109.4004 48.698498-109.4004 109.398439 0 60.69994 48.7009 109.30078 109.3008 109.30078h38c3.6 0 5.9004 2.40039 5.9004 5.90039 0.1 3.5-2.3016 5.90039-4.6016 5.90039h-148.5996v46.39844h148.5996c28.5 0 52.3008-23.79886 52.3008-52.29883s-23.8008-52.30078-52.3008-52.30078h-38c-34.4999 0-63-28.50004-63-63 0-34.49997 28.5001-63.000001 63-63.000001h147.4004v-46.298828h-148.5996zm263.6992 0c-51.0999 0-92.6992 41.59927-92.6992 92.699219v148.59961c0 51.09995 41.5993 92.70117 92.6992 92.70117h159.3008v-46.30078h-159.1992v-0.09961c-26.2 0-46.4004-21.40041-46.4004-46.40039v-148.5c0-26.199974 21.4004-46.400391 46.4004-46.400391h159.1992v-46.298828h-159.3008zm582.4004 47.5c-5.9 0-11.8988 4.800005-14.2988 9.5l-95.1016 276.898439h54.7012l33.2988-98.69922v41.59961l1.2012 0.09961h108.1992l-73.6992-218.69922c-2.4-5.899994-7.1008-10.699219-14.3008-10.699219zm-846.1992 9.5c-28.5 0-52.3008 23.798859-52.3008 52.298829s23.8008 52.30078 52.3008 52.30078h38c34.5 0 63 28.50004 63 63 0 34.49997-28.5 63-63 63h-147.3008v46.40039h148.5996c60.6 0 109.4004-48.70045 109.4004-109.40039s-48.7004-109.40039-109.4004-109.40039h-38c-3.6 0-5.8984-2.40039-5.8984-5.90039-0.1-2.3 2.2996-4.69922 4.5996-4.69922h148.5996v-47.599609h-148.5996zm263.7988 0c-20.2 0-35.6992 15.499239-35.6992 35.699219v69h161.6992v-46.40039h-115.2988c0-5.89999 4.7992-10.69922 10.6992-10.69922h136.7012v-47.599609h-158.1016zm269.9004 0c-20.2 0-35.6992 15.499239-35.6992 35.699219v148.59961c0 20.19998 15.4992 35.70117 35.6992 35.70117h96.3008v-104.80078h-73.7012v46.40039h27.3008v10.69922h-27.3008c-5.9 0-10.6992-4.79923-10.6992-10.69922v-104.5c0-5.89999 4.7992-10.70117 10.6992-10.70117h131.8008v-46.398439h-154.4004zm-305.5996 116.398439v68.90039c0 20.19998 15.4992 35.70117 35.6992 35.70117h159.3008v-46.40039h-137.9004c-5.9-1.1-10.6992-5.90079-10.6992-11.80078h115.2988v-46.40039h-161.6992zm616.9004 3.60156 15.5 47.59961h-32.0996l16.5996-47.59961zm-1205.9004 279.5c-11 0-21.2008 6.20001-27.3008 16.5l-59.0996 99.79883v200.09961c0 22.29998 15.8996 40.40039 35.5996 40.40039h40.4004 26.0996 170.6016 66.5996c19.6 0 35.5996-18.10041 35.5996-40.40039v-35.19922-139.59961h-0.5996-10.9004-90.8008-32.3984l-44.6016 75.40039h43.6016v0.29883h33.5v64.09961h-170.7012v-129.69922l37.0996-62.59961c4.7-7.99999 12.6016-12.80078 21.1016-12.80078h194.1992v-75.69922h-162.9004l0.4004-0.59961h-105.5zm-383.19922 0.19922c-8.49999 0-16.40157 4.79923-21.10156 12.69922l-49 82.70117v261.40039h334.40039v-75.70117h-232.19922v-64.40039h187.59961l44.80078-75.69922h-232.40039v-10.40039l24.69922-41.79883c4.69999-7.79999 12.59962-12.5 21.09961-12.5h186.5v-75.70117l-154.89844-0.59961h-109.5zm2856.69922 0c-8.5 0-16.3996 4.79923-21.0996 12.69922l-49 82.70117v261.40039h334.5996v-75.70117h-232.3008v-64.40039h187.6016l44.6992-75.69922h-232.3008v-10.40039l24.7012-41.79883c4.8-7.79999 12.6996-12.5 21.0996-12.5h186.5v-75.70117l-154.9004-0.59961h-109.5996zm-1125.5996 0.40039v356.29883h102.0996v-280.39844h129.5996c4.1 0 7.9012 2.29961 10.2012 6.09961l8 13.59961c2.8 4.7 2.8 10.8 0 15.5l-39.8008 67.19922h-53.5996l105.5996 178.20117h123l-78.8008-133 58.7012-99.09961c2.6-4.39999 4-9.7 4-15v-12.40039c0-5.29999-1.4-10.6-4-15l-28.7012-48.5c-12.4-20.89998-33.1984-33.5-55.3984-33.5h-87.5-193.4004zm-1007.0996 0.09961v356.30078h102.0996v-139.80078-140.69922h17c9.9 0 19.1988 5.60001 24.7988 15l74.6016 125.89844h-116.3008l44.8008 75.70117h0.1992 116.1992l37.9004 64.09961h123v-0.19922h-0.0996l-195.6992-330.60156c-9.5-15.99999-25.4004-25.69922-42.4004-25.69922h-186.0996zm-1204.00002 0.09961c-16.79998 0-32.5004 9.50041-41.90039 25.40039l-195.90039 330.80078h123.09961l157.40039-265.80078h62.30078l-157.40039 265.80078h123.09961l164.40039-277.40039c2.1-3.5 6.90039-1.7996 6.90039 2.40039v275h102.09961v-356.20117h-158.70117c-16.79998 0-32.49845 9.5008-41.89844 25.30078l-20.90039 35.40039v-60.70117h-122.59961zm1788.29882 0v356.20117h257.2012 22c22.2 0 42.9984-12.60002 55.3984-33.5l72.5-122.40039c2.6-4.39999 4-9.7 4-15v-14.5c0-5.29999-1.4-10.6-4-15l-72.2988-122.30078c-12.4-20.89998-33.1004-33.5-55.4004-33.5h-87.5996-191.8008zm871.0996 0v356.20117h102.1016v-356.20117h-102.1016zm141 0v151.70117l121 204.5h123 41.2012l121.0996-204.5v-151.70117h-102.1992v116.53711l-101 170.58594-101-170.58399v-116.53906h-102.1016zm-909.8984 75.70117h134.5l51.0996 86.29883c5.8 9.79999 5.8 22.50079 0 32.30078l-51.0996 86.19922h-134.5v-204.79883z" fill="#034693"/>
</svg>
