<svg enable-background="new 0 0 3840 806.6" version="1.1" viewBox="0 0 3840 806.6" xml:space="preserve" xmlns="http://www.w3.org/2000/svg">
<path d="m1510.8008 0-177.8008 290.09961h-1100.59961l-232.40039 128.5v259.59961l232.40039 128.5h3375.19921l232.4004-128.5v-259.59961l-232.4004-128.5h-1100.5996l-177.6992-290.09961h-818.5zm17.2988 31h783.8008l177.6992 290.09961h1110l209.4004 115.80078v223l-209.4004 115.79883h-3359.19921l-209.40039-115.79883v-223l209.40039-115.80078h1110.00001l177.6992-290.09961zm689 40.300781c-24.8 0-45.2988 16.300022-51.2988 38.499999l-62.4004 182.89844v-134.19922h-94v33.30078h61.5v90.59961h-76.9004c-18.8 0-33.3008-15.4008-33.3008-33.30078v-106.79883c0-18.79998 15.4008-33.30078 33.3008-33.30078h110.3008v-33.300781h-111.1016c-36.7999 0-66.6992 29.901601-66.6992 66.601561h0.0996v106.79883c0 36.69996 30.0012 66.59961 66.7012 66.59961h137.5996l69.1992-200.79883c2.5-7.69999 9.4004-12.80078 17.9004-12.80078s15.3004 5.10079 17.9004 12.80078l56.4004 167.5h-88.9004v33.29883h135l-69.2012-205.09961c-6.8-22.199978-27.2996-39.298829-52.0996-39.298829zm-607.5996 4.298828c-43.6 0-78.5996 34.999651-78.5996 78.599611s34.9996 78.60156 78.5996 78.60156h27.3008c2.6 0 4.2988 1.69883 4.2988 4.29883s-1.7004 4.30078-3.4004 4.30078h-106.7988-0.0996v33.29883h106.7988c20.5 0 37.5996-17.09963 37.5996-37.59961s-17.0996-37.59961-37.5996-37.59961h-27.2988c-24.8 0-45.3008-20.50081-45.3008-45.30078 0-24.79998 20.5008-45.29883 45.3008-45.29883h106v-33.300781h-106.8008zm189.6992 0.09961c-36.6999 0-66.5996 29.901601-66.5996 66.601561v106.79883c0 36.69996 29.8997 66.59961 66.5996 66.59961h114.5v-33.29883h-114.5c-18.8 0-33.2988-15.4008-33.2988-33.30078v-106.79883c0-18.79998 15.3988-33.30078 33.2988-33.30078h114.5v-33.300781h-114.5zm418.8008 34.101561c-4.3 0-8.5008 3.39883-10.3008 6.79883l-68.3984 199.09961h39.2988l23.9004-70.89844v29.89844h0.9004 77.7988l-53-157.19922c-1.7-4.3-5.0992-7.69922-10.1992-7.69922zm-608.4004 6.79883c-20.5 0-37.5996 17.09963-37.5996 37.59961s17.0996 37.60156 37.5996 37.60156h27.3008c24.8 0 45.2988 20.49885 45.2988 45.29883 0 24.79997-20.4988 45.30078-45.2988 45.30078h-105.9004v33.29883h106.8008c43.5999 0 78.5996-34.99965 78.5996-78.59961s-34.9997-78.59961-78.5996-78.59961h-27.3008c-2.6 0-4.3008-1.70078-4.3008-4.30078 0-1.7 1.7004-3.39844 3.4004-3.39844h106.8008v-34.20117h-106.8008zm189.5996 0c-14.5 0-25.5996 11.09962-25.5996 25.59961v49.60156h116.2012v-33.30078h-82.9004c0-4.3 3.3992-7.69922 7.6992-7.69922h98.3008v-34.20117h-113.7012zm194 0.09961c-14.5 0-25.5996 11.10158-25.5996 25.60156v106.79883c0 14.49998 11.0996 25.59961 25.5996 25.59961h69.2012v-75.19922h-53v33.30078h19.6992v7.69922h-19.6992c-4.2 0-7.6996-3.39961-7.5996-7.59961v-75.20117c0-4.3 3.3992-7.69922 7.6992-7.69922h94.8008v-33.30078h-111.1016zm-219.5996 83.60156v49.59961c0 14.49999 11.0996 25.59961 25.5996 25.59961h114.5v-33.30078h-99.0996c-4.3-0.8-7.6992-4.20001-7.6992-8.5h82.9004v-33.29883-0.09961h-116.2012zm443.5 2.59961 11.0996 34.19922h-23.0996l12-34.19922zm-239.5 194.19922-117.4004 60.40039v242h319.5l90.9414-46.81836c-0.0521 5.4e-4 -0.0879 0.01758-0.1406 0.01758h-292.8008v-83.5h136.8008l91.0996-46.89844h-227.9004v-38.5-6.40039-33.40039h202l91.1016-46.90039h-293.2012zm293.041 255.58203c0.2448-0.00254 0.4953 4.1e-4 0.6602-0.08203h-0.5l-0.1602 0.08203zm525.2598-255.58203c-0.2 0.1-0.5008 0.09961-0.8008 0.09961h-348.6992l-117.4004 60.40039v21 90.59961h349.0996v83.5h-257.9004l-90.7988 46.70117c-0.2 0.1-0.5012 0.19883-0.7012 0.29883l0.4004-0.09961h349.0996l117.4004-60.40039v-116.89844h-349v-78.20117h257.8008l91.0996-46.90039 0.4004-0.09961zm-2446.20118 0.09961-117.39844 60.40039v242h117.39844v-0.09961h231.60156l117.5-60.40039v-128.90039h-146.80078l-91.19922 46.90039h120.5v95.59961h-231.60156v-122.39844-86.20117h257.90039l91.20117-46.90039h-349.10156zm553.70117 0-117.40039 60.40039v241.90039h319.4004l91.1992-46.80078h-293.19921v-83.5h136.79881l91.1016-46.89844h-227.90041v-78.20117h202.00001l46.1992-23.79883 11-5.70117 3.7012-1.79883 30.2988-15.60156h-293.19921zm403.00001 0v302.40039h117.5v-245.79883l231.5996 119.19922v126.5h117.4004v-302.30078h-117.4004v111.60156l-217-111.60156h-132.0996zm1581.9004 0v302.40039h117.3984v-302.40039h-117.3984zm327.6992 0-117.4004 60.40039v111.59961h349.0996v83.5h-257.8984l-90.8008 46.70117c-0.2 0.1-0.4992 0.19883-0.6992 0.29883 0.2-0.1 0.4988-0.09961 0.7988-0.09961h348.7012l117.3984-60.40039v-116.79883h-349v-78.30078h257.8008l91.0996-46.90039h-349.0996z"/>
</svg>
