<?xml version="1.0" encoding="utf-8"?>
<!-- Generator: Adobe Illustrator 25.0.0, SVG Export Plug-In . SVG Version: 6.00 Build 0)  -->
<svg version="1.1" id="Layer_1" xmlns="http://www.w3.org/2000/svg" xmlns:xlink="http://www.w3.org/1999/xlink" x="0px" y="0px"
	 viewBox="0 0 3840 806.6" style="enable-background:new 0 0 3840 806.6;" xml:space="preserve">
<style type="text/css">
	.st0{fill:#FFFFFF;}
	.st1{fill:#0C0002;}
</style>
<g>
	<path d="M1926.5,142.3c0-36.7,29.9-66.6,66.7-66.6h111.1v33.3H1994c-17.9,0-33.3,14.5-33.3,33.3v106.8c0,17.9,14.5,33.3,33.3,33.3
		h76.9v-90.6h-61.5v-33.3h94v134.2l62.4-182.9c6-22.2,26.5-38.5,51.3-38.5s45.3,17.1,52.1,39.3l69.2,205.1h-135v-33.3h88.9
		l-56.4-167.5c-2.6-7.7-9.4-12.8-17.9-12.8c-8.5,0-15.4,5.1-17.9,12.8l-69.2,200.8h-137.6c-36.7,0-66.7-29.9-66.7-66.6V142.3z"/>
	<path d="M2009.4,240.5h19.7v-7.7h-19.7v-33.3h53v75.2h-69.2c-14.5,0-25.6-11.1-25.6-25.6V142.3c0-14.5,11.1-25.6,25.6-25.6h111.1
		V150h-94.8c-4.3,0-7.7,3.4-7.7,7.7v75.2C2001.7,237.1,2005.2,240.5,2009.4,240.5z"/>
	<path d="M1530.9,241.4h106.8c1.7,0,3.4-1.7,3.4-4.3c0-2.6-1.7-4.3-4.3-4.3h-27.3c-43.6,0-78.6-35-78.6-78.6s35-78.6,78.6-78.6
		h106.8v33.3h-106c-24.8,0-45.3,20.5-45.3,45.3c0,24.8,20.5,45.3,45.3,45.3h27.3c20.5,0,37.6,17.1,37.6,37.6
		c0,20.5-17.1,37.6-37.6,37.6h-106.8V241.4z"/>
	<path d="M1530.9,282.4h106c24.8,0,45.3-20.5,45.3-45.3c0-24.8-20.5-45.3-45.3-45.3h-27.3c-20.5,0-37.6-17.1-37.6-37.6
		c0-20.5,17.1-37.6,37.6-37.6h106.8v34.2h-106.8c-1.7,0-3.4,1.7-3.4,3.4c0,2.6,1.7,4.3,4.3,4.3h27.3c43.6,0,78.6,35,78.6,78.6
		s-35,78.6-78.6,78.6h-106.8V282.4z"/>
	<polygon points="903.4,652.7 903.4,569.2 1040.2,569.2 1040.2,569.2 1131.3,522.3 1131.3,522.3 903.4,522.3 903.4,444.1 
		1105.4,444.1 1151.6,420.3 1162.6,414.6 1166.3,412.8 1196.6,397.2 903.4,397.2 786,457.6 786,699.5 1105.4,699.5 1196.6,652.7 	
		"/>
	<polygon points="1655.5,508.8 1438.5,397.2 1306.4,397.2 1306.4,699.6 1423.9,699.6 1423.9,453.8 1655.5,573 1655.5,699.5 
		1772.9,699.5 1772.9,397.2 1655.5,397.2 	"/>
	<path d="M1732.6,249.1V142.3c0-36.7,29.9-66.6,66.6-66.6h114.5v33.3h-114.5c-17.9,0-33.3,14.5-33.3,33.3v106.8
		c0,17.9,14.5,33.3,33.3,33.3h114.5v33.3h-114.5C1762.5,315.7,1732.6,285.8,1732.6,249.1z"/>
	<path d="M1889.8,158.5v33.3h-116.2v-49.6c0-14.5,11.1-25.6,25.6-25.6h113.7v34.2h-98.3c-4.3,0-7.7,3.4-7.7,7.7H1889.8z"/>
	<path d="M1889.8,200.4v33.3h-82.9c0,4.3,3.4,7.7,7.7,8.5h99.1v33.3h-114.5c-14.5,0-25.6-11.1-25.6-25.6v-49.6H1889.8z"/>
	<path d="M2446.5,444.1h257.9l91.1-46.9l0.4-0.1c-0.2,0.1-0.5,0.1-0.8,0.1h-348.7l-117.4,60.4v21l0,90.6l349.1,0v83.5h-257.9
		l-90.8,46.7c-0.2,0.1-0.5,0.2-0.7,0.3l0.4-0.1h349.1l117.4-60.4V522.3h-349V444.1z"/>
	<rect x="2888.3" y="397.2" width="117.4" height="302.4"/>
	<polygon points="460.8,557.1 581.3,557.1 581.3,557.1 581.3,652.7 349.7,652.7 349.7,530.3 349.7,444.1 607.6,444.1 698.8,397.2 
		349.7,397.2 232.3,457.6 232.3,699.6 349.7,699.6 349.7,699.5 581.3,699.5 698.8,639.1 698.8,510.2 552,510.2 	"/>
	<path d="M2271.3,652.6c-0.2,0.1-0.5,0.1-0.8,0.1h-292.8v-83.5h136.8l91.1-46.9h-227.9h0v-38.5v-6.4v-33.4h202l91.1-46.9h0h-293.2
		l-117.4,60.4v242h319.5l91.1-46.9L2271.3,652.6z"/>
	<path d="M3216,444.1H3474l0,0l91.1-46.9h-349.1l0,0l-117.4,60.4v111.6l349.1,0v83.5h-257.9h0l-90.8,46.7c-0.2,0.1-0.5,0.2-0.7,0.3
		h0c0.2-0.1,0.5-0.1,0.8-0.1h348.7l117.4-60.4l0-116.8h-349V444.1z"/>
	<path d="M3607.6,290.1l-1100.6,0L2329.3,0h-818.5L1333,290.1l-1100.6,0L0,418.6v259.6l232.4,128.5h3375.2L3840,678.2V418.6
		L3607.6,290.1z M3809,659.9l-209.4,115.8H240.4L31,659.9v-223l209.4-115.8h1110L1528.1,31h783.8l177.7,290.1h1110L3809,436.9V659.9
		z"/>
	<path d="M2228.2,117.5c-1.7-4.3-5.1-7.7-10.2-7.7c-4.3,0-8.5,3.4-10.3,6.8l-68.4,199.1h39.3l23.9-70.9v29.9h0.9h77.8L2228.2,117.5z
		 M2205.1,237.1l12-34.2l11.1,34.2H2205.1z"/>
</g>
</svg>
