<?xml version="1.0" encoding="utf-8"?>
<!-- Generator: Adobe Illustrator 25.0.0, SVG Export Plug-In . SVG Version: 6.00 Build 0)  -->
<svg version="1.1" id="Layer_1" xmlns="http://www.w3.org/2000/svg" xmlns:xlink="http://www.w3.org/1999/xlink" x="0px" y="0px"
	 viewBox="0 0 3840 696.7" style="enable-background:new 0 0 3840 696.7;" xml:space="preserve">
<style type="text/css">
	.st0{fill:#FFFFFF;}
	.st1{fill:#0C0002;}
</style>
<g>
	<g>
		<g>
			<rect y="537.9" width="95.7" height="158.8"/>
			<rect x="210.6" y="537.9" width="95.7" height="158.8"/>
			<rect x="421.1" y="537.9" width="95.7" height="158.8"/>
			<rect x="1401.5" y="537.9" width="95.7" height="158.8"/>
			<rect x="2907.3" y="537.9" width="95.7" height="158.8"/>
			<rect x="2462.3" y="537.9" width="95.7" height="158.8"/>
			<polygon points="2881.9,696.7 2756.3,696.7 2708.8,649.2 2766.7,581.5 			"/>
			<rect x="2004.6" y="537.9" width="95.7" height="158.8"/>
			<rect x="1687.4" y="537.9" width="95.7" height="158.8"/>
			<path d="M514.5,523.6H0V469h459.9C490.1,469,514.5,493.5,514.5,523.6L514.5,523.6z"/>
			<rect x="570.1" y="469" width="341.4" height="54.6"/>
			<path d="M665.8,627.9v-14.2h226.3v-54.6H680c-7.8,0-14.2-6.4-14.2-14.2v-7h-95.7v21.2v54.6v16.4c0,36.8,29.8,66.6,66.6,66.6
				h274.8v-54.6H680C672.2,642.1,665.8,635.7,665.8,627.9z"/>
			<rect x="3498.6" y="469" width="341.4" height="54.6"/>
			<path d="M3594.3,627.9v-14.2h226.3v-54.6h-212.1c-7.8,0-14.2-6.4-14.2-14.2v-7h-95.7v21.2v54.6v16.4c0,36.8,29.8,66.6,66.6,66.6
				H3840v-54.6h-231.5C3600.7,642.1,3594.3,635.7,3594.3,627.9z"/>
			<path d="M1336.7,523.6H957.4v0c0-30.2,24.5-54.6,54.6-54.6h324.7V523.6z"/>
			<path d="M1125.9,559.1v54.6h119.8c7.8,0,14.2,6.4,14.2,14.2l0,0c0,7.8-6.4,14.2-14.2,14.2h-178.4c-7.8,0-14.2-6.4-14.2-14.2v-90
				h-95.7l0,92.2c0,36.8,29.8,66.6,66.6,66.6h29.2h233.7c38,0,68.8-30.8,68.8-68.8v0c0-38-30.8-68.8-68.8-68.8H1125.9z"/>
			<path d="M2307.1,537.9v90c0,7.8-6.4,14.2-14.2,14.2h-178.3v54.6h221.7c36.8,0,66.6-29.8,66.6-66.6v-92.2H2307.1z"/>
			<path d="M1783.1,523.6h-381.6v0c0-30.2,24.5-54.6,54.6-54.6h272.4C1758.7,469,1783.1,493.5,1783.1,523.6L1783.1,523.6z"/>
			<path d="M2402.8,523.6h-398.3V469h343.7C2378.4,469,2402.8,493.5,2402.8,523.6L2402.8,523.6z"/>
			<rect x="2907.3" y="469" width="95.7" height="54.6"/>
			<rect x="1511.5" y="586.4" width="244" height="64.5"/>
			<path d="M2462.2,523.6L2462.2,523.6l285.8,0v48.5c0,7.8-6.4,14.2-14.2,14.2h-161.6v64.5h199.2c43.8,0,79.6-35.8,79.6-79.6v-22.8
				c0-43.9-35.6-79.6-79.6-79.6h-254.6C2486.7,469,2462.2,493.5,2462.2,523.6z"/>
			<g>
				<polygon points="3427.4,523.6 3462.5,469 3348.7,469 3313.6,523.6 				"/>
				<polygon points="3183.3,523.6 3148.1,469 3034.3,469 3069.4,523.6 				"/>
				<polygon points="3304.4,537.9 3248.4,624.9 3192.5,537.9 3078.6,537.9 3180.8,696.7 3316.1,696.7 3418.2,537.9 				"/>
			</g>
		</g>
	</g>
	<g>
		<g>
			<g>
				<path d="M1461.7,262.5h-164.9v51.4h164.9c31.7,0,58-26.4,58-58s-26.4-58-58-58h-42.2c-38.2,0-69.9-31.7-69.9-69.9
					s31.7-69.9,69.9-69.9H1583V6.6h-164.9c-67.3,0-121.3,54.1-121.3,121.3s54.1,121.3,121.3,121.3h42.2c4,0,6.6,2.6,6.6,6.6
					C1467,259.8,1464.3,262.5,1461.7,262.5z"/>
				<path d="M1418.2,122.7H1583V69.9h-164.9c-31.7,0-58,26.4-58,58s26.4,58,58,58h42.2c38.2,0,69.9,31.7,69.9,69.9
					s-31.7,69.9-69.9,69.9h-163.5v51.4h164.9c67.3,0,121.3-54.1,121.3-121.3s-54.1-121.3-121.3-121.3h-42.2c-4,0-6.6-2.6-6.6-6.6
					C1412.9,125.3,1415.5,122.7,1418.2,122.7z"/>
			</g>
			<g>
				<path d="M2010.3,69.9c-22.4,0-39.6,17.1-39.6,39.6v164.9c0,22.4,17.1,39.6,39.6,39.6h106.8V197.8h-81.8v51.4h30.3v11.9h-30.3
					c-6.6,0-11.9-5.3-11.9-11.9V133.2c0-6.6,5.3-11.9,11.9-11.9h146.4V69.9H2010.3z"/>
				<path d="M2334.8,313.9h120L2373,71.2c-2.6-6.6-7.9-11.9-15.8-11.9c-6.6,0-13.2,5.3-15.8,10.6l-105.5,307.3h60.7l36.9-109.5v46.2
					H2334.8z M2355.9,203.1l17.1,52.8h-35.6L2355.9,203.1z"/>
				<path d="M2436.3,60.7C2425.8,26.4,2394.1,0,2355.9,0c-38.2,0-69.9,25.1-79.1,59.4l-96.3,282.2V134.5h-145.1V186h95v139.8h-118.7
					c-29,0-51.4-23.7-51.4-51.4V109.5c0-29,23.7-51.4,51.4-51.4h170.1V6.6h-171.5c-56.7,0-102.9,46.2-102.9,102.9v164.9
					c0,56.7,46.2,102.9,102.9,102.9h212.3l106.8-309.9c4-11.9,14.5-19.8,27.7-19.8c13.2,0,23.7,7.9,27.7,19.8l87,258.5h-137.2v51.4
					h208.4l0,0L2436.3,60.7z"/>
			</g>
			<g>
				<path d="M1711,325.8c-29,0-51.4-23.7-51.4-51.4V109.5c0-29,23.7-51.4,51.4-51.4h176.7V6.6H1711c-56.7,0-102.9,46.2-102.9,102.9
					v164.9c0,56.7,46.2,102.9,102.9,102.9h176.7v-51.4H1711z"/>
				<path d="M1722.8,250.6h127.9v-51.4h-179.4v76.5c0,22.4,17.1,39.6,39.6,39.6h176.7v-51.4h-153
					C1728.1,262.5,1722.8,257.2,1722.8,250.6z"/>
				<path d="M1850.8,134.5h-127.9c0-6.6,5.3-11.9,11.9-11.9h151.7V69.9H1711c-22.4,0-39.6,17.1-39.6,39.6V186h179.4V134.5z"/>
			</g>
		</g>
	</g>
</g>
</svg>
