<svg enable-background="new 0 0 3840 584.4" version="1.1" viewBox="0 0 3840 584.4" xml:space="preserve" xmlns="http://www.w3.org/2000/svg">
<path d="m1593.5 0c-161.0998 0-292.1992 131.09938-292.1992 292.19922s131.0994 292.20117 292.1992 292.20117c56.2999 0 110.9997-16.10042 158.0996-46.40039 37.5-24.19998 68.8008-56.39926 91.8008-94.19922l-319.5-151.5 319.5-151.60156c-23-37.79996-54.3008-70.099244-91.8008-94.19922-46.9999-30.39997-101.6997-46.5-158.0996-46.5zm968.3008 0v584.40039h330.3984c161.0999 0 292.2012-131.10133 292.2012-292.20117s-131.1013-292.19922-292.2012-292.19922h-330.3984zm714.2988 0v584.40039h563.9004v-64.40039h-348.9004v-131.09961h122.5v-20.90039h-122.5v-131.19922h348.9004v-236.80078h-563.9004zm-2579.69921 0.099609375v584.4003906h498.79881l-167.2988-184.69922c-7.9-8.79999-10.0012-21.40118-5.2012-32.20117s15.5008-17.69922 27.3008-17.69922h7.6992c96.4999 0 174.9004-78.50049 174.9004-174.90039 0-96.499904-78.5005-174.9003906-174.9004-174.9003906h-361.29881zm-396.09961 32.49999962-300.30078 551.800781h600.59961l-300.29883-551.800781zm1865.39842 0-300.2988 551.800781h600.5996l-300.3008-551.800781zm1155 1.701172h264.4004c5.7 0 10.4004 4.598444 10.4004 10.398438 0 5.699994-4.6004 10.40039-10.4004 10.40039h-254v190.300781c0 5.69999-4.6004 10.40039-10.4004 10.40039s-10.3984-4.6004-10.3984-10.40039v-200.701171c0-5.699995 4.5984-10.398438 10.3984-10.398438zm-2344.39842 112.699219c17.29998 0 31.29882 14.0008 31.29882 31.30078s-13.99884 31.29883-31.29882 31.29883-31.30078-13.99885-31.30078-31.29883 14.0008-31.30078 31.30078-31.30078zm209.69332 35.81445c0.6893-0.04121 1.393-0.01406 2.1055 0.08594 5.7 0.8 9.6008 5.99923 8.8008 11.69922-4.7 33.19997-21.1996 63.79963-46.5996 86.09961-25.6 22.49998-58.5016 34.90039-92.6016 34.90039-5.7 0-10.3984-4.6004-10.3984-10.40039 0-5.8 4.6984-10.39844 10.3984-10.39844 59.4 0 110.5012-44.30162 118.7012-103.10156 0.7-4.9875 4.7689-8.59629 9.5937-8.88477zm1953.8067 107.48633c5.7 0.2 10.2 4.99923 10 10.69922-2.1 63.09994-27.3001 123.10044-71 168.90039-43.5 45.69995-101.9005 73.79922-164.4004 79.19922h-0.9004c-5.3 0-9.8008-4.10001-10.3008-9.5-0.5-5.69999 3.7004-10.69922 9.4004-11.19922 119.3999-10.19999 212.5-108.29973 216.5-228.09961 0.2-5.69999 4.9012-10.2 10.7012-10zm-250.3008 53c17.3 0 31.3008 13.99885 31.3008 31.29883s-14.0008 31.30078-31.3008 31.30078-31.3008-14.0008-31.3008-31.30078 14.0008-31.29883 31.3008-31.29883zm-2589.19922 3.19922c17.29998 0 31.29883 14.0008 31.29883 31.30078s-13.99885 31.29883-31.29883 31.29883-31.30078-13.99885-31.30078-31.29883 14.0008-31.30078 31.30078-31.30078zm1865.39842 0c17.3 0 31.3008 14.0008 31.3008 31.30078s-14.0008 31.29883-31.3008 31.29883-31.2988-13.99885-31.2988-31.29883 13.9988-31.30078 31.2988-31.30078zm-582.5117 12.67969c1.35 0.06406 2.7117 0.39453 4.0117 1.01953l192 91.10156c3 1.4 5.1012 4.19844 5.7012 7.39844s-0.2996 6.6-2.5996 9c-14.7 15.79998-31.3008 29.7004-49.3008 41.40039-1.7 1.1-3.6996 1.70117-5.5996 1.70117-3.4 0-6.7012-1.70117-8.7012-4.70117-3.1-4.8-1.6984-11.19883 3.1016-14.29883 12.6-8.09999 24.4984-17.5004 35.3984-27.90039l-178.8984-84.80078c-5.2-2.6-7.4004-8.80001-4.9004-14 1.8-3.9 5.7371-6.11211 9.7871-5.91992zm-601.19141 41.57226c4.02187-0.12656 7.90313 2.12227 9.70313 5.94727 2.7 5.89999 6.30118 11.30157 10.70118 16.10156l99.5996 109.89844c2.7 3 3.4008 7.40117 1.8008 11.20117-1.7 3.7-5.4 6.19922-9.5 6.19922h-132.00002c-5.69999 0-10.40039-4.6004-10.40039-10.40039 0-5.7 4.6004-10.39844 10.40039-10.39844h108.69922l-83.90039-92.60156c-5.79999-6.29999-10.49961-13.49884-14.09961-21.29883-2.4-5.19999-0.09999-11.30117 5-13.70117 1.3-0.6 2.65547-0.90508 3.99609-0.94727zm-527.67968 0.04688c4.0078-0.39844 8.05898 1.55078 10.08398 5.30078l70 128.59961c1.7 3.2 1.69883 7.10117-0.20117 10.20117-1.8 3.2-5.19883 5.09961-8.79883 5.09961h-132.20117c-5.7 0-10.39844-4.6004-10.39844-10.40039 0-5.69999 4.59844-10.40039 10.39844-10.40039h114.80078l-61.69922-113.19922c-2.7-5-0.90038-11.3 4.09961-14 1.25-0.675 2.58008-1.06836 3.91602-1.20117zm1865.40039 0c4.0078-0.39844 8.059 1.55078 10.084 5.30078l70 128.59961c1.7 3.2 1.6988 7.10117-0.2012 10.20117-1.8 3.2-5.2004 5.09961-8.9004 5.09961h-132.1992c-5.7 0-10.4004-4.6004-10.4004-10.40039 0-5.69999 4.6004-10.40039 10.4004-10.40039h114.8008l-61.6016-113.19922c-2.7-5-0.8984-11.3 4.1016-14 1.25-0.675 2.5801-1.06836 3.916-1.20117z"/>
</svg>
