<?xml version="1.0" encoding="utf-8"?>
<!-- Generator: Adobe Illustrator 25.0.0, SVG Export Plug-In . SVG Version: 6.00 Build 0)  -->
<svg version="1.1" id="Layer_1" xmlns="http://www.w3.org/2000/svg" xmlns:xlink="http://www.w3.org/1999/xlink" x="0px" y="0px"
	 viewBox="0 0 3840 630.9" style="enable-background:new 0 0 3840 630.9;" xml:space="preserve">
<style type="text/css">
	.st0{fill:#F2B11C;}
	.st1{fill:none;stroke:#000000;stroke-width:20.2827;stroke-linecap:round;stroke-linejoin:round;stroke-miterlimit:10;}
	.st2{fill:none;stroke:#000000;stroke-width:12.3778;stroke-linecap:round;stroke-linejoin:round;stroke-miterlimit:10;}
	.st3{fill:#FFFFFF;}
	.st4{fill:none;stroke:#FFFFFF;stroke-width:20.2827;stroke-linecap:round;stroke-linejoin:round;stroke-miterlimit:10;}
	.st5{fill:none;stroke:#FFFFFF;stroke-width:12.3778;stroke-linecap:round;stroke-linejoin:round;stroke-miterlimit:10;}
</style>
<g>
	<g>
		<polygon points="3840,290.4 3840,0 3498.3,0 3229.1,0 3229.1,290.4 3229.1,509.4 3229.1,630.9 3498.3,630.9 3840,630.9 
			3840,509.4 3498.3,509.4 3498.3,439.4 3618.3,439.4 3618.3,360.5 3498.3,360.5 3498.3,290.4 		"/>
		<polygon class="st0" points="3258.4,601.7 3258.4,29.2 3810.8,29.2 3810.8,261.2 3469,261.2 3469,389.7 3589.1,389.7 
			3589.1,410.2 3469,410.2 3469,538.6 3810.8,538.6 3810.8,601.7 		"/>
		<polyline class="st1" points="3302.2,269.5 3302.2,73 3561.2,73 		"/>
	</g>
	<g>
		<path d="M1610.2,315.4l285.1-135.2C1844.6,73.7,1736,0,1610.2,0c-174.2,0-315.4,141.2-315.4,315.4s141.2,315.4,315.4,315.4
			c125.8,0,234.4-73.7,285.1-180.3L1610.2,315.4z"/>
		<path class="st0" d="M1610.2,601.7c-157.8,0-286.2-128.4-286.2-286.2s128.4-286.2,286.2-286.2c55.2,0,108.8,15.7,154.9,45.5
			c36.7,23.7,67.4,55.3,89.9,92.3l-313,148.4l313,148.4c-22.5,37.1-53.2,68.6-89.9,92.3C1718.9,585.9,1665.4,601.7,1610.2,601.7z"/>
		<path class="st1" d="M1599.6,391.2l188.1,89.2c-13.8,14.8-29.4,27.9-46.4,38.9"/>
	</g>
	<g>
		<polygon points="0,630.9 686.7,630.9 343.3,0 		"/>
		<polygon class="st0" points="49.1,601.7 343.3,61.1 637.5,601.7 		"/>
		<polyline class="st1" points="495.3,431.9 563.8,557.9 434.3,557.9 		"/>
		<circle cx="343.3" cy="399.3" r="30.6"/>
	</g>
	<g>
		<polygon points="1827.3,630.9 2514,630.9 2170.6,0 		"/>
		<polygon class="st0" points="1876.4,601.7 2170.6,61.1 2464.8,601.7 		"/>
		<polyline class="st1" points="2322.6,431.9 2391.1,557.9 2261.6,557.9 		"/>
		<circle cx="2170.6" cy="399.3" r="30.6"/>
	</g>
	<g>
		<path d="M2882.3,630.9h-352.9V0h352.9c174.2,0,315.4,141.2,315.4,315.4v0C3197.8,489.6,3056.5,630.9,2882.3,630.9z"/>
		<path class="st0" d="M2558.6,601.7V29.2h323.7c157.8,0,286.2,128.4,286.2,286.2c0,157.8-128.4,286.2-286.2,286.2H2558.6z"/>
		<path class="st1" d="M3124.6,323.7c-4.2,122.9-100.2,222.8-221.4,233.2"/>
		<circle cx="2879.7" cy="396.2" r="30.6"/>
	</g>
	<g>
		<path d="M1285.8,200.6L1285.8,200.6C1285.8,89.8,1196,0,1085.3,0H702.1v355v46.2v229.7h583.7l-208.1-229.7h7.6
			C1196,401.2,1285.8,311.4,1285.8,200.6z"/>
		<path class="st0" d="M731.3,601.7V29.2h353.9c94.5,0,171.4,76.9,171.4,171.4S1179.7,372,1085.3,372h-7.6c-11.6,0-22,6.8-26.7,17.4
			c-4.7,10.6-2.7,22.9,5.1,31.4L1220,601.7H731.3z"/>
		<path class="st1" d="M1211.6,218.4c-8.7,61.9-62,109.8-126.3,109.8"/>
		<circle cx="1005.5" cy="203.8" r="30.6"/>
		<path class="st1" d="M1011.5,431.9c3,6.6,7.1,12.8,12.1,18.3l97.6,107.7H991.8"/>
	</g>
</g>
</svg>
