<svg enable-background="new 0 0 3840 630.9" version="1.1" viewBox="0 0 3840 630.9" xml:space="preserve" xmlns="http://www.w3.org/2000/svg">
<path d="m343.30078 0-343.30078 630.90039h686.69922l-343.39844-630.90039zm358.79883 0v355 46.19922 229.70117h583.70119l-208.1016-229.70117h7.6016c110.6999 0 200.5-89.79972 200.5-200.59961s-89.8001-200.59961-200.5-200.59961h-383.20119zm908.09959 0c-174.1998 0-315.3984 141.20056-315.3984 315.40039s141.1986 315.40039 315.3984 315.40039c125.7999 0 234.4016-73.70089 285.1016-180.30078l-285.1016-135.09961 285.1016-135.20117c-50.7-106.499895-159.3017-180.19922-285.1016-180.19922zm560.4004 0-343.2988 630.90039h686.6992l-343.4004-630.90039zm358.8008 0v630.90039h352.9004c174.1998 0 315.4984-141.30017 315.3984-315.5 0-174.19983-141.1986-315.40039-315.3984-315.40039h-352.9004zm699.6992 0v290.40039 219 121.5h269.2012 341.6992v-121.5h-341.6992v-70h120v-78.90039h-120v-70.09961h341.6992v-290.40039h-341.6992-269.2012z"/><path fill="#F2B11C" d="m731.30078 29.199219v572.500001h488.69922l-163.9004-180.89844c-7.8-8.49999-9.7996-20.8004-5.0996-31.40039s15.0992-17.40039 26.6992-17.40039h7.6016c94.3999 0 171.2988-76.90049 171.2988-171.40039 0-94.49991-76.9005-171.400391-171.4004-171.400391h-353.89842zm1827.29882 0v572.400391h323.7012c157.7998 0 286.1992-128.39938 286.1992-286.19922s-128.3994-286.201171-286.1992-286.201171h-323.7012zm699.8008 0v572.500001h552.4004v-63.09961h-341.8008v-128.40039h120.0996v-20.5h-120.0996v-128.5h341.8008v-232.000001h-552.4004zm-1648.2012 0.101562c-157.7998 0-286.1992 128.399379-286.1992 286.199219s128.3994 286.19922 286.1992 286.19922c55.2 0 108.7005-15.80003 154.9004-45.5 36.7-23.69998 67.4004-55.19887 89.9004-92.29883l-313-148.40039 313-148.40039c-22.5-36.99996-53.2004-68.598852-89.9004-92.298829-46.0999-29.79997-99.7004-45.5-154.9004-45.5zm-1266.89842 31.798828-294.201171 540.599611h588.400391l-294.19922-540.599611zm1827.29882 0-294.1992 540.599611h588.4004l-294.2012-540.599611z"/><path d="m3302.1992 62.859375a10.142364 10.142364 0 0 0-10.1406 10.140625v196.5a10.14135 10.14135 0 0 0 10.1406 10.14062 10.14135 10.14135 0 0 0 10.1426-10.14062v-186.359375h248.8574a10.14135 10.14135 0 0 0 10.1426-10.140625 10.14135 10.14135 0 0 0-10.1426-10.140625h-259zm-2296.6992 110.339845a30.6 30.6 0 0 0-30.59961 30.60156 30.6 30.6 0 0 0 30.59961 30.59961 30.6 30.6 0 0 0 30.5996-30.59961 30.6 30.6 0 0 0-30.5996-30.60156zm207.5117 35.1582a10.14135 10.14135 0 0 0-11.4551 8.63086c-8.0058 56.96064-56.9926 101.07031-116.2558 101.07031a10.14135 10.14135 0 0 0-10.1426 10.14063 10.14135 10.14135 0 0 0 10.1426 10.14258c69.3362 0 126.9476-51.69227 136.3418-118.53125a10.14135 10.14135 0 0 0-8.6309-11.45313zm1911.9356 105.20703a10.14135 10.14135 0 0 0-10.4825 9.78907c-4.0262 117.81526-95.9903 213.47539-212.1328 223.4414a10.14135 10.14135 0 0 0-9.2363 10.97266 10.14135 10.14135 0 0 0 10.9707 9.23633c126.2569-10.83393 226.2962-114.97304 230.6699-242.95703a10.14135 10.14135 0 0 0-9.789-10.48243zm-245.2481 52.03516a30.6 30.6 0 0 0-30.5996 30.59961 30.6 30.6 0 0 0 30.5996 30.60156 30.6 30.6 0 0 0 30.6016-30.60156 30.6 30.6 0 0 0-30.6016-30.59961zm-2536.39842 3.09961a30.6 30.6 0 0 0-30.60156 30.60156 30.6 30.6 0 0 0 30.60156 30.59961 30.6 30.6 0 0 0 30.59961-30.59961 30.6 30.6 0 0 0-30.59961-30.60156zm1827.29882 0a30.6 30.6 0 0 0-30.5996 30.60156 30.6 30.6 0 0 0 30.5996 30.59961 30.6 30.6 0 0 0 30.5996-30.59961 30.6 30.6 0 0 0-30.5996-30.60156zm-570.4922 12.37305a10.14135 10.14135 0 0 0-3.914 0.57617 10.14135 10.14135 0 0 0-5.7559 5.20703 10.14135 10.14135 0 0 0 4.8164 13.50781l175.1699 83.06641c-10.6651 10.16654-22.2603 19.34974-34.6328 27.35547a10.14135 10.14135 0 0 0-3.0058 14.02343 10.14135 10.14135 0 0 0 14.0234 3.00586c17.7074-11.45774 33.9445-25.09308 48.3086-40.49804a10.142364 10.142364 0 0 0-3.0723-16.08008l-188.0996-89.19922a10.14135 10.14135 0 0 0-3.8379-0.96484zm-588.9512 40.6914a10.14135 10.14135 0 0 0-3.8535 0.9043 10.14135 10.14135 0 0 0-5.0351 13.42773c3.4482 7.5861 8.1274 14.65177 13.8183 20.91407v0.00585c0 2e-3 -2e-4 0.00386 0.0098 0.00586l82.2266 90.73633h-106.52152a10.14135 10.14135 0 0 0-10.14258 10.14258 10.14135 10.14135 0 0 0 10.14258 10.14063h129.39842a10.142364 10.142364 0 0 0 7.5156-16.95118l-97.5996-107.69922a10.142364 10.142364 0 0 0-0.0117-0.01171c-4.3044-4.73489-7.8214-10.06648-10.3711-15.67579a10.14135 10.14135 0 0 0-5.6719-5.29882 10.14135 10.14135 0 0 0-3.9043-0.64063zm-516.92182 0.05078a10.14135 10.14135 0 0 0-3.77735 1.17578 10.14135 10.14135 0 0 0-4.06641 13.75391l60.35352 111.01367h-112.44336a10.14135 10.14135 0 0 0-10.14258 10.14258 10.14135 10.14135 0 0 0 10.14258 10.14063h129.5a10.142364 10.142364 0 0 0 8.9082-14.98438l-68.5-126a10.14135 10.14135 0 0 0-6.0332-4.88281 10.14135 10.14135 0 0 0-3.9414-0.35938zm1827.29882 0a10.14135 10.14135 0 0 0-3.7773 1.17578 10.14135 10.14135 0 0 0-4.0664 13.75391l60.3535 111.01367h-112.4434a10.14135 10.14135 0 0 0-10.1406 10.14258 10.14135 10.14135 0 0 0 10.1406 10.14063h129.5a10.142364 10.142364 0 0 0 8.9102-14.98438l-68.5-126a10.14135 10.14135 0 0 0-6.0352-4.88281 10.14135 10.14135 0 0 0-3.9414-0.35938z" color="#000000" stroke-linecap="round" stroke-linejoin="round" stroke-miterlimit="10" style="-inkscape-stroke:none"/>
</svg>
