<?xml version="1.0" encoding="utf-8"?>
<!-- Generator: Adobe Illustrator 25.0.0, SVG Export Plug-In . SVG Version: 6.00 Build 0)  -->
<svg version="1.1" id="Layer_1" xmlns="http://www.w3.org/2000/svg" xmlns:xlink="http://www.w3.org/1999/xlink" x="0px" y="0px"
	 viewBox="0 0 3840 584.4" style="enable-background:new 0 0 3840 584.4;" xml:space="preserve">
<style type="text/css">
	.st0{fill:#F2B11C;}
	.st1{fill:none;stroke:#000000;stroke-width:20.2827;stroke-linecap:round;stroke-linejoin:round;stroke-miterlimit:10;}
	.st2{fill:none;stroke:#000000;stroke-width:12.3778;stroke-linecap:round;stroke-linejoin:round;stroke-miterlimit:10;}
	.st3{fill:#FFFFFF;}
	.st4{fill:none;stroke:#FFFFFF;stroke-width:20.2827;stroke-linecap:round;stroke-linejoin:round;stroke-miterlimit:10;}
	.st5{fill:none;stroke:#FFFFFF;stroke-width:12.3778;stroke-linecap:round;stroke-linejoin:round;stroke-miterlimit:10;}
</style>
<g>
	<path d="M3840,236.8V0h-563.9v584.4H3840V520h-348.9V388.9h122.5V368h-122.5V236.8H3840z M3331.1,55.1v190.3
		c0,5.7-4.6,10.4-10.4,10.4s-10.4-4.6-10.4-10.4V44.7c0-5.7,4.6-10.4,10.4-10.4h264.4c5.7,0,10.4,4.6,10.4,10.4
		c0,5.7-4.6,10.4-10.4,10.4H3331.1z"/>
	<path d="M1843.4,140.7c-23-37.8-54.3-70.1-91.8-94.2C1704.6,16.1,1649.9,0,1593.5,0c-161.1,0-292.2,131.1-292.2,292.2
		c0,161.1,131.1,292.2,292.2,292.2c56.3,0,111-16.1,158.1-46.4c37.5-24.2,68.8-56.4,91.8-94.2l-319.5-151.5L1843.4,140.7z
		 M1573.4,365.1c2.4-5.2,8.6-7.4,13.8-4.9l192,91.1c3,1.4,5.1,4.2,5.7,7.4c0.6,3.2-0.3,6.6-2.6,9c-14.7,15.8-31.3,29.7-49.3,41.4
		c-1.7,1.1-3.7,1.7-5.6,1.7c-3.4,0-6.7-1.7-8.7-4.7c-3.1-4.8-1.7-11.2,3.1-14.3c12.6-8.1,24.5-17.5,35.4-27.9l-178.9-84.8
		C1573.1,376.5,1570.9,370.3,1573.4,365.1z"/>
	<path d="M300.3,32.6L0,584.4h600.6L300.3,32.6z M300.3,409.1c-17.3,0-31.3-14-31.3-31.3c0-17.3,14-31.3,31.3-31.3
		c17.3,0,31.3,14,31.3,31.3C331.6,395.1,317.6,409.1,300.3,409.1z M525.4,550H393.2c-5.7,0-10.4-4.6-10.4-10.4
		c0-5.7,4.6-10.4,10.4-10.4H508L446.3,416c-2.7-5-0.9-11.3,4.1-14c5-2.7,11.3-0.9,14,4.1l70,128.6c1.7,3.2,1.7,7.1-0.2,10.2
		C532.4,548.1,529,550,525.4,550z"/>
	<path d="M2165.7,32.6l-300.3,551.8H2466L2165.7,32.6z M2165.7,409.1c-17.3,0-31.3-14-31.3-31.3c0-17.3,14-31.3,31.3-31.3
		c17.3,0,31.3,14,31.3,31.3C2197,395.1,2183,409.1,2165.7,409.1z M2390.7,550h-132.2c-5.7,0-10.4-4.6-10.4-10.4
		c0-5.7,4.6-10.4,10.4-10.4h114.8L2311.7,416c-2.7-5-0.9-11.3,4.1-14c5-2.7,11.3-0.9,14,4.1l70,128.6c1.7,3.2,1.7,7.1-0.2,10.2
		C2397.8,548.1,2394.4,550,2390.7,550z"/>
	<path d="M2892.2,0h-330.4v584.4h330.4c161.1,0,292.2-131.1,292.2-292.2C3184.4,131.1,3053.3,0,2892.2,0z M2889.5,405.9
		c-17.3,0-31.3-14-31.3-31.3c0-17.3,14-31.3,31.3-31.3c17.3,0,31.3,14,31.3,31.3C2920.8,391.9,2906.8,405.9,2889.5,405.9z
		 M3078.8,469.9c-43.5,45.7-101.9,73.8-164.4,79.2c-0.3,0-0.6,0-0.9,0c-5.3,0-9.8-4.1-10.3-9.5c-0.5-5.7,3.7-10.7,9.4-11.2
		c119.4-10.2,212.5-108.3,216.5-228.1c0.2-5.7,4.9-10.2,10.7-10c5.7,0.2,10.2,5,10,10.7C3147.7,364.1,3122.5,424.1,3078.8,469.9z"/>
	<path d="M1022.7,367.6c4.8-10.8,15.5-17.7,27.3-17.7h7.7c96.5,0,174.9-78.5,174.9-174.9c0-96.5-78.5-174.9-174.9-174.9H696.4v584.4
		h498.8l-167.3-184.7C1020,391,1017.9,378.4,1022.7,367.6z M1057.7,294.8c59.4,0,110.5-44.3,118.7-103.1c0.8-5.7,6-9.6,11.7-8.8
		c5.7,0.8,9.6,6,8.8,11.7c-4.7,33.2-21.2,63.8-46.6,86.1c-25.6,22.5-58.5,34.9-92.6,34.9c-5.7,0-10.4-4.6-10.4-10.4
		C1047.3,299.4,1052,294.8,1057.7,294.8z M976.3,147c17.3,0,31.3,14,31.3,31.3c0,17.3-14,31.3-31.3,31.3c-17.3,0-31.3-14-31.3-31.3
		C945,161,959,147,976.3,147z M1103.8,543.9c-1.7,3.7-5.4,6.2-9.5,6.2H962.3c-5.7,0-10.4-4.6-10.4-10.4c0-5.7,4.6-10.4,10.4-10.4
		H1071l-83.9-92.6c-5.8-6.3-10.5-13.5-14.1-21.3c-2.4-5.2-0.1-11.3,5-13.7c5.2-2.4,11.3-0.1,13.7,5c2.7,5.9,6.3,11.3,10.7,16.1
		l99.6,109.9C1104.7,535.7,1105.4,540.1,1103.8,543.9z"/>
</g>
</svg>
