<svg height="155" width="505" xmlns="http://www.w3.org/2000/svg"><g stroke-width="7" stroke-linecap="round" stroke-linejoin="round" fill="#fff"><path d="M95.599 131.081H68.22v-8.597q-3.923 4.924-7.93 7.178-7.011 3.923-15.942 3.923-14.44 0-25.709-9.933Q5.202 111.8 5.202 92.268q0-19.865 13.772-31.718 10.935-9.432 25.124-9.432 8.264 0 15.526 3.506 4.173 2.003 8.597 6.594v-7.596h27.378zm-26.544-38.73q0-7.345-5.175-12.436-5.175-5.175-12.52-5.175-8.18 0-13.438 6.176-4.257 5.008-4.257 11.436 0 6.427 4.257 11.435 5.175 6.176 13.438 6.176 7.429 0 12.52-5.091 5.175-5.092 5.175-12.52zm92.542-13.438q-5.76-2.754-11.686-2.754-13.522 0-17.528 11.017-1.503 4.007-1.503 10.768v33.137h-27.378V53.622h27.378V66.31q4.34-6.76 9.349-9.766 6.76-4.006 16.026-4.006 2.17 0 5.342.25z"/><path d="M221.418 129.412q-8.514 4.257-17.862 4.257-21.201 0-33.638-14.357-10.016-11.602-10.016-26.877 0-15.358 10.016-26.877 12.437-14.357 33.638-14.357 9.515 0 17.862 4.34V78.83q-7.262-5.092-14.19-5.092-8.18 0-13.521 5.259-5.342 5.258-5.342 13.438t5.342 13.438q5.342 5.259 13.521 5.259 6.845 0 14.19-5.008zm92.041 1.669H286.08v-8.597q-3.923 4.924-7.93 7.178-7.011 3.923-15.942 3.923-14.44 0-25.709-9.933-13.438-11.852-13.438-31.384 0-19.865 13.772-31.718 10.935-9.432 25.124-9.432 8.264 0 15.526 3.506 4.173 2.003 8.597 6.594v-7.596h27.378zm-26.544-38.73q0-7.345-5.175-12.436-5.175-5.175-12.52-5.175-8.18 0-13.438 6.176-4.257 5.008-4.257 11.436 0 6.427 4.257 11.435 5.175 6.176 13.438 6.176 7.429 0 12.52-5.091 5.175-5.092 5.175-12.52zm121.755 38.73h-27.377v-8.597q-3.923 4.924-7.93 7.178-7.01 3.923-15.942 3.923-14.44 0-25.708-9.933-13.439-11.852-13.439-31.384 0-19.865 13.772-31.718 10.935-9.432 25.125-9.432 8.263 0 15.525 3.506 4.173 2.003 8.597 6.594V5.71h27.378zm-26.542-38.73q0-7.345-5.175-12.436-5.175-5.175-12.52-5.175-8.18 0-13.44 6.176-4.256 5.008-4.256 11.436 0 6.427 4.257 11.435 5.175 6.176 13.438 6.176 7.43 0 12.52-5.091 5.176-5.092 5.176-12.52zm116.663 5.009h-57.593q0 17.445 16.86 17.445 8.598 0 13.189-7.346h26.46q-3.173 10.517-9.35 16.277-11.184 10.433-29.964 10.433-23.873 0-35.892-14.523-9.015-10.851-9.015-26.46 0-18.53 11.269-30.132 11.268-11.602 31.801-11.602 25.291 0 36.142 18.363 6.093 10.35 6.093 24.039zM473.25 81.668q-2.921-12.855-15.609-12.855-7.011 0-11.351 4.09-3.423 3.256-4.34 8.765z"/></g></svg>