<svg enable-background="new 0 0 1875.1 378.093" version="1.1" viewBox="0 0 1875.1 378.093" xmlns="http://www.w3.org/2000/svg"><radialGradient id="a" cx="-.6035" cy="-94.2441" r="226.5" gradientTransform="matrix(.6042 0 0 -.6042 181.243 138.3947)" gradientUnits="userSpaceOnUse"><stop stop-color="#d8edca" offset="0"/><stop stop-color="#9ebf88" offset="1"/></radialGradient><radialGradient id="b" cx="4.1228" cy="-57.7418" r="270.0649" gradientTransform="matrix(.6042 0 0 -.6042 181.243 138.3947)" gradientUnits="userSpaceOnUse"><stop stop-color="#688c51" offset="0"/><stop stop-color="#587b42" offset=".4749"/><stop stop-color="#42632d" offset="1"/></radialGradient><path d="m186.38867 0c-29.51198 0-56.05713 10.69564-76.41601 31.082031-2.39198 2.394586-4.4993 4.951079-6.625 7.496094-55.28177 27.402787-93.291019 84.408695-93.291019 150.140625 0 1.60679 0.107313 3.15446 0.154297 4.73633-2.5438087 3.72387-4.512919 7.83573-5.7929693 12.16601l-0.046874 0.164c-8.1589984 28.80809-4.54665407 57.93106 10.4179693 83.85156 14.756465 25.5573 37.289932 43.19541 65.123046 50.63476 11.415027 3.05197 22.91711 4.14888 34.28516 3.41602 19.59217 8.02813 40.9946 12.59961 63.42968 12.59961 26.51389 0 51.66259-6.21038 73.99024-17.21484 0.98798 0.69756 1.98602 1.38088 3.03125 1.98437l2e-3 2e-3c8.70101 5.02224 19.39859 6.00944 29.11328 3.67188l0.084-0.0195 0.084-0.0215c29.02747-7.33779 52.44128-25.02811 67.40625-50.94922 14.75523-25.55598 18.76526-53.88826 11.29102-81.71289-3.65072-13.5965-9.79028-25.90423-18.03711-36.6914-4.0213-50.72072-30.63056-95.140354-69.81454-123.08594-1.63577-7.175575-5.37336-13.885212-10.44336-19.222656l-0.0586-0.06445-0.0606-0.06055c-20.86916-21.46896-47.8953-32.902344-77.82611-32.902344zm0 30c22.70957 0 40.37222 7.45764 56.22656 23.728516 2.7405 2.897151 3.09571 4.296843 3.09571 6.349609 0-0.370909-2e-3 -0.277631-0.0156 0.310547l-0.18945 8.359375 7.00781 4.558594c35.87635 23.332568 60.20002 62.861099 62.50391 108.322269l0.25781 5.08789 3.30273 3.87695c7.03041 8.25759 12.008 17.78596 15.07618 29.21289l2e-3 2e-3c5.56907 20.73073 3.04958 39.27625-8.29883 58.93164v2e-3c-11.35376 19.66606-26.64408 31.23205-48.66015 36.82617-3.88276 0.92612-5.2679 0.53577-7.04883-0.49219-1.47887-0.85386-2.24239-1.62175-2.92969-2.66015l-7.8125-11.80469-12.23633 7.11719c-20.29623 11.80317-43.81579 18.55859-69.04297 18.55859-19.63298 0-38.22367-4.09969-55.08789-11.47852l-3.62304-1.58593-3.93555 0.40625c-8.86418 0.91843-17.859888 0.18953-27.320314-2.33985-20.735993-5.5424-35.539344-16.99715-46.888672-36.65234l-2e-3 -2e-3c-11.353614-19.66699-13.72706-38.6916-7.5625-60.55665 0.79551-2.66433 1.702877-3.96432 2.611328-4.8457l4.960938-4.81055-0.435547-6.89843c-0.185622-2.948-0.287109-5.87973-0.287109-8.80469 0-55.15775 32.34469-102.52219 79.005856-124.511719l3.24023-1.52539 2.20118-2.828125c2.02512-2.600964 4.25019-5.124599 6.69531-7.572266h2e-3c15.167-15.187613 32.48945-22.28129 55.18742-22.28129z" color="#000000" fill="#2e3d25" style="-inkscape-stroke:none"/><path d="M 330.729,188.996 A 152.57001,152.57001 0 0 1 178.159,341.56601 152.57001,152.57001 0 0 1 25.588989,188.996 152.57001,152.57001 0 0 1 178.159,36.425995 152.57001,152.57001 0 0 1 330.729,188.996 Z" color="#000000" fill="#559338" stroke-width="5" style="-inkscape-stroke:none"/><path d="m178.1582 33.925781c-85.6131 0-155.068353 69.457209-155.068356 155.070309 0 85.61311 69.455254 155.07032 155.068356 155.07032 85.6131-1e-5 155.07032-69.45722 155.07032-155.07032-1e-5 -85.61309-69.45722-155.070303-155.07032-155.070309zm0 5c82.9109 6e-6 150.07031 67.159409 150.07032 150.070309 0 82.91091-67.15941 150.07031-150.07032 150.07032-82.910904 0-150.068356-67.15941-150.068356-150.07032 2e-6 -82.9109 67.157454-150.070309 150.068356-150.070309z" color="#000000" fill="#88ba68" style="-inkscape-stroke:none"/><path d="m317.73801 195.341a136.86 136.86 0 0 1-136.86 136.86 136.86 136.86 0 0 1-136.860005-136.86 136.86 136.86 0 0 1 136.860005-136.859997 136.86 136.86 0 0 1 136.86 136.859997z" color="#000000" fill="url(#a)" stroke-width="5" style="-inkscape-stroke:none"/><path d="m180.87891 55.980469c-76.93672-3e-6 -139.36133 62.424611-139.361332 139.361331 0 76.93671 62.424612 139.35937 139.361332 139.35937 76.93671 0 139.35937-62.42266 139.35937-139.35937 0-76.93672-62.42266-139.361331-139.35937-139.361331zm0 5c74.23451 0 134.35937 60.126811 134.35937 134.361331 0 74.23451-60.12486 134.35937-134.35937 134.35937-74.23452 0-134.361332-60.12485-134.361332-134.35937 2e-6 -74.23452 60.126812-134.361334 134.361332-134.361331z" color="#000000" fill="#b0d19b" style="-inkscape-stroke:none"/><path d="m348.676 216.194c-6.52-24.282-21.104-42.954-43.739-56.023-22.637-13.069-46.148-16.39-70.543-9.957-2.738 0.722-5.402 1.551-7.998 2.477-2.228-0.567-4.629-0.856-7.21-0.856h-32.265c-12.085 0-22.357-4.3-30.816-12.906-8.459-8.601-12.689-18.963-12.689-31.085 0-12.113 4.225-22.414 12.679-30.897 8.45-8.483 18.718-12.727 30.797-12.727 3.135 0 6.274 0.331 9.418 0.987l-26.02 25.831c-5.349 5.277-8.02 10.91-8.02 16.9 0 6.712 2.474 12.585 7.43 17.617 4.957 5.032 10.815 7.548 17.585 7.548 6.042 0 11.721-2.436 17.041-7.313l46.404-45.441c7.006-5.329 10.513-11.995 10.513-19.997 0-6.056-2.417-11.632-7.251-16.721-18.372-18.901-40.729-28.357-67.071-28.357-26.106 0-48.037 8.894-65.801 26.681-17.768 17.788-26.648 39.752-26.648 65.89s8.879 48.16 26.648 66.07c2.138 2.156 4.339 4.18 6.598 6.076 0.623 2.056 1.527 4.122 2.725 6.197l16.133 27.943c6.042 10.465 7.454 21.512 4.231 33.14-3.219 11.627-10.078 20.471-20.576 26.532-10.49 6.056-21.524 7.547-33.097 4.467-11.571-3.077-20.38-9.846-26.42-20.308-1.567-2.714-2.851-5.598-3.854-8.649l35.381 9.62c7.245 1.992 13.458 1.491 18.646-1.505 5.813-3.357 9.662-8.435 11.542-15.243 1.88-6.81 1.129-13.141-2.255-19.003-3.021-5.233-7.97-8.934-14.853-11.103l-62.555-17.466c-8.119-3.402-15.644-3.106-22.574 0.894-5.245 3.028-8.865 7.909-10.855 14.64-7.183 25.362-4.193 49.451 8.977 72.263 13.053 22.607 31.721 37.153 56.007 43.644 24.289 6.494 47.751 3.202 70.387-9.867 22.635-13.069 37.268-31.77 43.894-56.113 0.772-2.835 1.404-5.656 1.909-8.467 1.458-1.561 2.785-3.367 3.975-5.428l16.133-27.942c6.042-10.465 14.903-17.211 26.585-20.234 11.679-3.025 22.767-1.508 33.265 4.554 10.49 6.056 17.299 14.865 20.418 26.429 3.122 11.558 1.663 22.573-4.377 33.034-1.567 2.715-3.424 5.268-5.563 7.663l-9.361-35.449c-1.896-7.271-5.437-12.4-10.625-15.395-5.813-3.357-12.136-4.151-18.972-2.375-6.836 1.777-11.945 5.592-15.329 11.455-3.021 5.233-3.752 11.368-2.188 18.414l16.151 62.908c1.113 8.731 5.131 15.101 12.061 19.102 5.246 3.028 11.282 3.722 18.106 2.08 25.555-6.46 44.923-21.094 58.093-43.906 13.051-22.605 16.314-46.045 9.793-70.323z" color="#000000" fill="url(#b)" stroke-width="5" style="-inkscape-stroke:none"/><path d="m186.92187 12.773438c-26.67378 0-49.37377 9.193964-67.57031 27.414062-18.20083 18.221322-27.378904 40.954004-27.378904 67.6582 0 26.70414 9.175684 49.48832 27.373044 67.83008 2.04829 2.06554 4.1652 3.98999 6.32422 5.82422 0.66541 1.98864 1.47217 3.97118 2.60742 5.9375l16.13282 27.94336c5.74541 9.95129 7.05221 20.16854 3.98828 31.22266-3.06232 11.06106-9.42361 19.26493-19.41797 25.03515-9.98646 5.7653-20.20556 7.1417-31.203126 4.21485-10.995516-2.92397-19.151231-9.18578-24.898438-19.14063-0.653097-1.13115-1.059557-2.41634-1.609375-3.61133l30.308599 8.24219c6.4e-4 1.8e-4 1e-3 -1.8e-4 2e-3 0l6e-3 2e-3c7.69742 2.1147 14.72082 1.61477 20.55078-1.75195 6.3446-3.664 10.67303-9.39968 12.70117-16.74414 2.03121-7.35774 1.19553-14.51969-2.49805-20.91797-3.35688-5.81483-8.9347-9.92556-16.26757-12.23633l-0.0391-0.0137-62.5957-17.47656 0.294922 0.10156c-8.674482-3.63476-17.228653-3.32984-24.791016 1.03516-5.821093 3.36058-9.871414 8.88934-12.001953 16.0957l-0.0078 0.0274c-7.3456608 25.93633-4.252296 50.86525 9.216796 74.19532 13.336901 23.09869 32.650019 38.15954 57.527344 44.80859 24.880727 6.65221 49.154897 3.23492 72.281247-10.11719h2e-3c23.12528-13.35207 38.26894-32.69119 45.05469-57.62109 0.73886-2.7133 1.32667-5.41226 1.82617-8.10352 1.37908-1.5635 2.68301-3.24444 3.81055-5.19726l16.13281-27.94336c5.7454-9.95128 13.94134-16.18867 25.04688-19.0625 11.11079-2.87783 21.39442-1.47229 31.38867 4.29883 9.98656 5.76536 16.29001 13.92511 19.25391 24.91406v2e-3c2.96659 10.98266 1.62023 21.177-4.12696 31.13086-0.65259 1.13069-1.56245 2.12594-2.32226 3.19922l-8.01758-30.36523-2e-3 -8e-3c-2.01598-7.72461-5.96329-13.55643-11.79297-16.92187-6.34504-3.66425-13.47497-4.54485-20.84961-2.62891h-2e-3c-7.38567 1.91989-13.17136 6.22514-16.86523 12.625-3.35669 5.81448-4.12912 12.69851-2.46289 20.20508l0.01 0.0391 16.16015 62.94922-0.0586-0.30664c1.18915 9.32836 5.72833 16.5849 13.29101 20.95117 5.82183 3.36037 12.63563 4.10363 19.94141 2.34571l0.0137-4e-3 0.0137-2e-3c26.13373-6.6063 46.17734-21.74992 59.64649-45.08008 13.33494-23.0968 16.72078-47.35358 10.04101-72.22266-6.67888-24.87373-21.7771-44.18701-44.90234-57.53906-23.12728-13.35206-47.44859-16.79705-72.43164-10.20899-2.61443 0.68942-5.14774 1.4941-7.63477 2.36524-2.20184-0.48895-4.48286-0.82617-6.93554-0.82617h-32.26368c-11.49196 0-20.99163-3.97884-29.0332-12.16016h-2e-3c-8.04728-8.18237-11.9707-17.79163-11.9707-29.33203 0-11.531657 3.91555-21.07159 11.94921-29.132813 8.02959-8.060943 17.53395-11.990234 29.02735-11.990234 1.30561 0 2.62063 0.290785 3.92969 0.412109l-22.29297 22.13086c-5.68207 5.60796-8.75977 11.943068-8.75977 18.673828 0 7.32632 2.80191 13.94258 8.14844 19.37109h2e-3c5.35566 5.43669 11.97584 8.29493 19.36524 8.29493 6.71395 0 13.06288-2.77507 18.73046-7.97071l0.0293-0.0273 46.4336-45.470704-0.23438 0.203125c7.48559-5.693794 11.49805-13.253895 11.49805-21.986329 0-6.721173-2.76207-12.992967-7.9375-18.441406l-0.01-0.01172-0.01-0.0098c-18.78799-19.328882-41.92297-29.115088-68.86323-29.115088zm0 4.999999c25.73665 0 47.30874 9.123176 65.26172 27.585938 4.48903 4.72787 6.5586 9.603418 6.5586 14.992187 0 7.271551-2.999 13.043617-9.52539 18.007813l-0.125 0.09375-46.46875 45.505855c-4.96779 4.54942-9.97292 6.64454-15.33789 6.64454-6.1506 0-11.24636-2.17544-15.80469-6.80274-4.56546-4.63547-6.71094-9.76561-6.71094-15.86328 0-5.24681 2.26339-10.174605 7.27539-15.119141l4e-3 -0.0039 29.31836-29.105469-4.54688-0.949218c-3.30509-0.689613-6.61676-1.039063-9.92773-1.039063-12.66458 0-23.69796 4.557851-32.56836 13.462891-8.8736 8.904571-13.4082 19.966358-13.4082 32.66016 0 12.70357 4.53554 23.81828 13.40625 32.83789 8.87641 9.03067 19.9216 13.6543 32.5996 13.6543h32.26368c2.39437 0 4.585 0.26614 6.59375 0.77734l0.73828 0.1875 0.71875-0.25586c2.53095-0.90279 5.12655-1.71042 7.79492-2.41406 23.8069-6.27792 46.50958-3.08084 68.65625 9.70508 22.14471 12.78592 36.21312 30.81563 42.57422 54.50586 6.36222 23.68687 3.22406 46.31262-9.54297 68.42578-12.86599 22.28542-31.55153 36.40743-56.51367 42.72461-1e-3 3.2e-4 -3e-3 -3.2e-4 -4e-3 0-6.34043 1.52484-11.59839 0.88061-16.26758-1.81446-6.2973-3.63571-9.79323-9.11833-10.83007-17.25195l-0.0195-0.15625-16.17187-62.97851-2e-3 -0.01c-1.45877-6.58074-0.76985-11.96419 1.91406-16.61328h2e-3c3.07413-5.32612 7.50471-8.65105 13.79102-10.28516 6.29735-1.63606 11.8128-0.92865 17.09375 2.1211 4.54427 2.62338 7.67841 7.04797 9.45508 13.86132l2e-3 4e-3 10.54883 39.94531 3.0957-3.46679c2.2481-2.51716 4.20801-5.21018 5.86328-8.07813 6.33247-10.96755 7.90172-22.80094 4.625-34.93359v-2e-3c-3.27433-12.13815-10.58916-21.59509-21.58203-27.9414-11.00173-6.35288-22.89344-7.98272-35.14063-4.81055-12.25843 3.17217-21.78641 10.42559-28.125 21.4043l-16.13281 27.94336c-1.1038 1.91171-2.31878 3.55965-3.63672 4.9707l-0.50195 0.53906-0.13086 0.72461c-0.49228 2.74022-1.10891 5.49083-1.86133 8.25391-6.46623 23.75605-20.58774 41.81762-42.73242 54.60351-22.1456 12.78587-44.79301 15.95297-68.490233 9.61719-23.694716-6.33277-41.719297-20.36309-54.488371-42.47834-12.867824-22.2886-15.754188-45.53345-8.740235-70.31446 1.849929-6.24976 5.036885-10.47995 9.703125-13.17383 6.297623-3.63499 12.795873-3.92314 20.359375-0.7539l0.142578 0.0606 62.640621 17.49023c6.42481 2.02761 10.74277 5.31535 13.42579 9.96289 3.07441 5.32571 3.73855 10.82565 2.00976 17.08789-1.73185 6.27153-5.10143 10.69415-10.38281 13.74414-4.54399 2.62409-9.94303 3.12455-16.73242 1.25781h-4e-3l-39.865234-10.83984 1.449219 4.41211c1.054715 3.20831 2.409679 6.25312 4.064453 9.11914 6.332464 10.96858 15.79582 18.24239 27.941406 21.47266 12.148406 3.23313 23.996716 1.62989 34.990236-4.7168 11.00107-6.35145 18.36042-15.83726 21.73633-28.0293v-2e-3c3.38137-12.20119 1.86168-24.07853-4.47657-35.05664l-16.13272-27.94336c-1.11101-1.92433-1.93294-3.81339-2.49609-5.67188l-0.2168-0.71093-0.56836-0.47852c-2.20042-1.84683-4.34685-3.81954-6.43164-5.92187-17.3406-17.4782-25.921874-38.73678-25.921874-64.3086 0-25.571746 8.580884-46.768401 25.916014-64.123044v-2e-3c17.33143-17.353867 38.49504-25.947265 64.0332-25.947266z" color="#000000" fill="#5b7749" style="-inkscape-stroke:none"/><path d="m514.72656 28.34375c-37.35396 0-67.03585 11.971227-89.04883 35.908203-22.01297 23.940976-33.01953 56.293727-33.01953 97.054687 0 39.42996 11.5959 70.7051 34.79688 93.83008 23.19797 23.12498 54.66071 34.68359 94.38867 34.68359 15.85998 0 31.49708-1.63258 46.91406-4.89258 15.41799-3.25899 30.46274-8.00452 45.13672-14.22851v-12.16211c2.52437 3.49238 5.36939 6.77741 8.57813 9.82812 15.04298 14.30599 35.31652 21.45704 60.8125 21.45704 20.15798 0 37.20464-3.59417 51.14062-10.78516 13.93199-7.18799 25.57021-18.34091 34.9082-33.46289v37.79883h40.91016v-8.41993c15.17441 4.82401 29.66495 8.5074 43.42774 10.97657 14.45298 2.59099 28.34846 3.89062 41.68945 3.89062 32.01797 0 57.17834-6.74339 75.48633-20.23437 18.30598-13.48699 27.46093-31.79404 27.46093-54.91602 0-20.30798-6.11476-36.13362-18.34375-47.47461-12.22898-11.33599-32.87285-20.11971-61.92382-26.3457l-14.00782-3.11328c-21.93897-4.889-36.54274-10.03918-43.80273-15.45117-7.26699-5.412-10.89453-12.85972-10.89453-22.345707 0-12.452987 5.07352-21.791584 15.22851-28.017578 10.14999-6.223994 25.38143-9.339844 45.69141-9.339844 13.33799 0 26.23651 1.485222 38.6875 4.449219 12.45299 2.968997 24.4595 7.41385 36.02148 13.339844v-1.617188l82.46876 200.617184-7.3379 18.67774c-7.559 19.86298-14.4537 32.46283-20.6797 37.79883-6.227 5.33599-14.9743 8.0039-26.2363 8.0039h-24.01368v34.24219h32.68558c18.3769 0 33.0525-4.52346 44.0214-13.56445 10.967-9.04299 22.2389-28.38728 33.7989-58.03125l109.3945-272.150394h-43.3535l-77.8223 194.773434-77.8222-194.773434h-43.35746l0.62304 1.515625c-6.16619-1.672633-12.59203-3.066314-19.27929-4.179687-13.34099-2.223998-27.57142-3.335938-42.69141-3.335938-30.53697 0-54.10409 6.373107-70.70508 19.121094-16.60098 12.747987-24.90039 30.831977-24.90039 54.25195 0 19.26998 5.63145 34.42776 16.89844 45.46875 11.26199 11.04299 29.56899 19.23432 54.91797 24.57032l14.23242 3.33398c25.34698 5.48399 41.76401 11.19315 49.25 17.11914 7.48399 5.92899 11.22852 14.45137 11.22852 25.56836 0 12.00799-5.19047 21.31026-15.56446 27.90625-10.37699 6.59499-25.20177 9.89258-44.46875 9.89258-14.37998 0-28.90609-1.96358-43.58007-5.89258-13.94036-3.72921-28.08697-9.29179-42.42774-16.57031v-91.82227c0-37.94196-8.89566-66.258611-26.68164-84.933592-17.78698-18.676981-44.68997-28.017578-80.71094-28.017578-13.33898 0-27.05082 1.44494-41.13281 4.335938-14.08299 2.890997-28.61009 7.226818-43.58008 13.007812v37.794922c12.45299-6.816993 25.42112-11.9298 38.91211-15.341797 13.48599-3.407997 27.34614-5.115234 41.57813-5.115234 22.37697 0 39.75773 5.153135 52.13671 15.453125 12.37399 10.306989 18.56446 24.871374 18.56446 43.693364v4.00195h-57.36328c-37.20697 0-65.18457 7.11372-83.93555 21.3457-1.60243 1.21586-3.1107 2.50183-4.57617 3.81836v-2.70508c0-37.05396-9.74826-66.370472-29.24024-87.939451-19.49398-21.566978-45.99131-32.349609-79.48828-32.349609zm0.44532 34.685547c20.15797 0 36.35499 6.668779 48.58398 20.009765 12.23199 13.343987 18.49106 31.205958 18.78906 53.585938l-145.85937 0.22461c2.07399-23.41998 9.9677-41.578623 23.67968-54.47461 13.70799-12.897987 31.97967-19.345703 54.80665-19.345703zm213.4707 95.166013h2e-3v2e-3h40.68945v9.11523c0 26.68197-6.85837 48.06255-20.56836 64.14453-13.71298 16.08699-31.90596 24.125-54.58593 24.125-16.45299 0-29.46145-4.25921-39.02344-12.7832-9.55999-8.52399-14.33984-20.04524-14.33984-34.57422 0-18.23198 6.3701-31.12941 19.12109-38.69141 12.74799-7.55999 35.64911-11.33789 68.70508-11.33789zm-293.29102 10.44727h174.30078c-6.48092 11.70554-9.74804 25.774-9.74804 42.24414 0 9.53373 1.20664 18.28911 3.57812 26.29297-11.10374 5.1709-22.27079 9.23962-33.50195 12.17383-14.74999 3.85499-29.98142 5.78125-45.69141 5.78125-27.12497 0-48.28753-7.37207-63.47851-22.12305-15.19599-14.74799-23.67999-36.20317-25.45899-64.36914z" fill="#424241"/><path d="m702.852 28.344c-13.341 0-27.054 1.445-41.133 4.336-14.084 2.891-28.611 7.227-43.58 13.008v37.799c12.451-6.817 25.42-11.931 38.911-15.341 13.486-3.41 27.349-5.115 41.578-5.115 22.38 0 39.761 5.153 52.138 15.453 12.374 10.305 18.565 24.868 18.565 43.692v4.003h-57.364c-37.206 0-65.184 7.115-83.935 21.346-1.602 1.217-3.112 2.5-4.576 3.819v-2.707c0-37.056-9.748-66.37-29.237-87.939-19.494-21.568-45.99-32.351-79.489-32.351-37.354 0-67.036 11.972-89.049 35.909-22.013 23.941-33.018 56.293-33.018 97.054 0 15.443 1.805 29.616 5.362 42.559 11.391-2 25.511-4.414 41.952-7.119-2.429-8.481-3.976-17.839-4.624-28.101h174.3c-.664 1.2-1.293 2.426-1.888 3.674 20.296-2.579 41.378-5.115 63.057-7.546 13.393-4.381 32.656-6.579 57.824-6.579h5.334c25.015-2.4 50.528-4.588 76.268-6.486v-10.415c0-37.944-8.893-66.258-26.682-84.935-17.792-18.677-44.694-28.018-80.714-28.018zm-266.166 108.505c2.074-23.42 9.967-41.578 23.68-54.474 13.708-12.898 31.98-19.346 54.807-19.346 20.158 0 36.354 6.672 48.583 20.01 12.229 13.343 18.489 31.204 18.789 53.586zm772.052-101.695.326-.807h-43.357l-45.983 115.091c12.784 1.121 25.303 2.441 37.509 3.981 1.252.157 2.521.312 3.781.469l47.333-117.762v-.974h.391zm-242.03-.807.624 1.514c-6.165-1.674-12.591-3.069-19.277-4.181-13.341-2.226-27.57-3.336-42.69-3.336-30.537 0-54.107 6.376-70.705 19.122-16.603 12.748-24.901 30.832-24.901 54.252 0 19.27 5.631 34.428 16.898 45.469 1.09 1.069 2.267 2.102 3.491 3.119 35.063-2.357 70.415-4.126 105.393-5.091-5.455-1.569-11.272-3.029-17.501-4.365l-14.008-3.114c-21.939-4.891-36.542-10.039-43.802-15.451-7.265-5.41-10.896-12.858-10.896-22.346 0-12.451 5.074-21.789 15.229-28.018 10.15-6.224 25.382-9.338 45.692-9.338 13.341 0 26.237 1.483 38.687 4.448 12.451 2.967 24.458 7.412 36.021 13.341v-1.617l27.023 65.736c14.334.15 28.508.471 42.48.981l-44.399-111.129h-43.359z" fill="#838382"/><path d="m1775.6719 30.666016c-42.785 0-76.478 11.471132-101.084 34.412109-24.605 22.946977-36.9063 54.424635-36.9063 94.433595 0 39.56996 12.0793 70.9066 36.2422 94.01758 24.166 23.10797 56.9159 34.66601 98.2578 34.66601 18.291 0 36.0222-1.93936 53.2012-5.81836 17.179-3.87899 33.7549-9.69508 49.7149-17.45507h0.0019v-119.3711h-99.7539v42.89649h39.0664v48.21093c-4.548 1.777-9.6739 3.07716-15.3789 3.91016-5.709 0.828-11.8852 1.24609-18.5352 1.24609-24.5009 0-43.3943-7.15128-56.6953-21.44726-13.301-14.30099-19.9511-34.58159-19.9511-60.85157 0-26.48697 6.9012-46.85467 20.6992-61.097651 13.798-14.240986 33.4416-21.365235 58.9355-21.365235 13.741 0 27.4614 1.939364 41.1524 5.81836 13.686 3.880996 27.4575 9.752101 41.3105 17.621096v-51.373049c-13.413-6.092994-27.6796-10.693832-42.8086-13.798829-15.13-3.102996-30.9537-4.654296-47.4687-4.654296zm-567.3242 4.488281v248.218753h64.0039v-93.9336h18.123c10.417 0 18.7585 2.27537 25.0234 6.81836 6.259 4.548 12.4392 13.02551 18.5372 25.4375l30.2597 61.67383h68.166l-34.748-70.49023c-7.096-14.29599-14.1073-24.96292-21.0313-32.00391-6.929-7.03599-14.7743-11.55383-23.5273-13.54883 15.961-4.98599 27.9041-12.74245 35.8281-23.27344 7.924-10.52899 11.8867-23.99436 11.8867-40.40234 0-23.712976-7.6234-41.06512-22.8574-52.037109-15.243-10.971989-39.2143-16.458984-71.9062-16.458984h-97.7578zm228.1367 0v248.218753h64.0039v-86.11914h42.2305c31.5869 0 55.8322-7.00727 72.7382-21.03125 16.899-14.01699 25.3496-34.05559 25.3496-60.10157 0-25.93697-8.4486-45.911557-25.3496-59.935543-16.906-14.019986-41.1513-21.03125-72.7382-21.03125h-106.2344zm64.0019 46.384765h35.4121c12.412 0 22.0017 2.994475 28.7637 8.980469 6.757 5.984994 10.1426 14.520569 10.1426 25.601559 0 11.08399-3.3856 19.64651-10.1426 25.6875-6.762 6.041-16.3517 9.06055-28.7637 9.06055h-35.4121v-69.326171-0.003907zm-228.1367 0.001954h26.9375c13.407 0 23.0237 2.438458 28.8457 7.314453 5.817 4.875995 8.7246 12.968451 8.7246 24.273441 0 11.41698-2.9076 19.61747-8.7246 24.60547-5.821 4.98899-15.4377 7.48437-28.8457 7.48437h-26.9375v-63.677734z" fill="#4d603d" fill-opacity=".94120002"/><path d="m1378.012 51.614c-15.244-10.972-39.214-16.46-71.905-16.46h-97.369l-.391.974v122.972c47.381 4.614 98.568 7.96 151.176 10.186-2.067-.81-4.191-1.462-6.369-1.96 15.96-4.988 27.904-12.746 35.828-23.275s11.886-23.994 11.886-40.402c0-23.712-7.622-41.06-22.856-52.035zm-49.876 86.121c-5.822 4.988-15.439 7.484-28.846 7.484h-26.937v-63.677h26.937c13.408 0 23.025 2.438 28.846 7.315 5.817 4.879 8.724 12.967 8.724 24.272 0 11.417-2.907 19.62-8.724 24.606zm287.322-81.549c-16.905-14.02-41.152-21.032-72.739-21.032h-106.235v136.596c62.124 1.374 124.605 1.34 183.703.133 13.732-13.708 20.62-32.282 20.62-55.762-.001-25.934-8.451-45.911-25.349-59.935zm-50.795 85.623c-6.762 6.041-16.351 9.06-28.763 9.06h-35.413v-69.327h35.413c12.412 0 22.001 2.993 28.763 8.979 6.757 5.986 10.143 14.522 10.143 25.603s-3.386 19.644-10.143 25.685zm210.683 3.74v19.991c37.902-2.457 71.72-5.469 99.754-8.929v-11.062zm8.143-68.498c13.741 0 27.461 1.941 41.152 5.819 13.686 3.881 27.456 9.755 41.311 17.622v-51.373c-13.412-6.093-27.68-10.693-42.809-13.798-15.129-3.103-30.954-4.655-47.469-4.655-42.785 0-76.477 11.472-101.083 34.413-24.606 22.946-36.906 54.424-36.906 94.433 0 4.083.16 8.057.419 11.965 22.67-.56 44.766-1.295 66.079-2.186-.219-3.162-.331-6.419-.331-9.779 0-26.487 6.9-46.854 20.699-61.098 13.8-14.239 33.444-21.363 58.938-21.363z" fill="#5f7057"/></svg>
