<svg enable-background="new 0 0 1875.1 378.093" version="1.1" viewBox="0 0 1875.1 378.093" xmlns="http://www.w3.org/2000/svg"><path d="m186.38867 0c-29.51189 0-56.05719 10.695703-76.41601 31.082031-2.39198 2.39458-4.49933 4.951088-6.625 7.496094-55.281614 27.402706-93.291019 84.408905-93.291019 150.140625 0 1.60679 0.107313 3.15446 0.154297 4.73633-2.5438027 3.72384-4.5129228 7.83576-5.7929692 12.16601l-0.0234376 0.08203-0.0234374 0.08204c-8.1589741 28.808-4.54660879 57.93112 10.4179682 83.85156 14.756423 25.55721 37.290017 43.19544 65.123047 50.63476 11.414994 3.05197 22.917141 4.14888 34.285161 3.41602 19.59211 8.0281 40.99469 12.59961 63.42968 12.59961 26.51383 0 51.66265-6.21044 73.99024-17.21484 0.98798 0.69753 1.98602 1.38088 3.03125 1.98437l0.00195 0.00195c8.70098 5.02224 19.39862 6.00944 29.11328 3.67188l0.08399-0.01953 0.08398-0.02149c29.02738-7.33776 52.44134-25.02817 67.40625-50.94922 14.7552-25.55589 18.76523-53.88832 11.29102-81.71289-3.65072-13.59644-9.79031-25.90426-18.03711-36.6914-4.0213-50.72057-30.6306-95.140438-69.81446-123.08594-1.63574-7.175554-5.37336-13.88523-10.44336-19.222656l-0.05859-0.064453-0.06055-0.060547c-20.8691-21.468897-47.89545-32.902344-77.82617-32.902344zm0.53321 15.273438c26.34197 0 48.69833 9.45644 67.07031 28.357421 4.83399 5.088995 7.25 10.66471 7.25 16.720703 0 8.001992-3.50573 14.669053-10.51172 19.998047l-46.4043 45.439451c-5.31999 4.877-10.99902 7.31446-17.04101 7.31446-6.77 0-12.62895-2.51684-17.58594-7.54883-4.956-5.032-7.42969-10.9052-7.42969-17.61719 0-5.98999 2.67054-11.623396 8.01953-16.900391l26.02149-25.830078c-3.144-0.655999-6.28298-0.986328-9.41797-0.986328-12.07899 0-22.34689 4.243571-30.79688 12.726563-8.45399 8.482991-12.67968 18.783496-12.67968 30.896484 0 12.12199 4.23046 22.48495 12.68945 31.08594 8.45899 8.60599 18.73142 12.90625 30.81641 12.90625h32.26367c2.58099 0 4.98294 0.28847 7.21093 0.85547 2.596-0.926 5.26005-1.75457 7.99805-2.47657 24.39498-6.43299 47.90599-3.11195 70.54297 9.95704 22.63498 13.06898 37.21829 31.7395 43.73828 56.02148 6.52099 24.27798 3.25802 47.71924-9.79297 70.32422-13.16998 22.81198-32.53877 37.44625-58.09375 43.90625-6.82399 1.642-12.85947 0.94792-18.10547-2.08008-6.92999-4.001-10.94754-10.37252-12.06054-19.10352l-16.15039-62.9082c-1.564-7.04599-0.8335-13.17911 2.1875-18.41211 3.38399-5.86299 8.49213-9.67808 15.32812-11.45508 6.83599-1.77599 13.15966-0.98199 18.97266 2.375 5.18799 2.995 8.729 8.12354 10.625 15.39454l9.36133 35.44921c2.13899-2.39499 3.9955-4.94906 5.5625-7.66406 6.03999-10.46099 7.49895-21.47521 4.37695-33.0332-3.119-11.56399-9.92798-20.3737-20.41797-26.42969-10.49799-6.06199-21.58664-7.57773-33.26563-4.55273-11.68198 3.02299-20.54199 9.76743-26.58398 20.23242l-16.13281 27.94336c-1.19 2.061-2.51661 3.86673-3.97461 5.42773-0.505 2.811-1.13816 5.6318-1.91016 8.4668-6.62599 24.34297-21.25955 43.04429-43.89453 56.11328-22.63598 13.06899-46.09774 16.36118-70.386718 9.86719-24.285975-6.491-42.952872-21.03756-56.005859-43.64453-13.169987-22.81198-16.159555-46.9017-8.976562-72.26368 1.989998-6.73099 5.60852-11.61067 10.853515-14.63867 6.929993-3.99999 14.455227-4.29653 22.574219-0.89453l62.554685 17.46484c6.883 2.169 11.83252 5.87053 14.85352 11.10352 3.38399 5.86199 4.13586 12.19391 2.25586 19.00391-1.88 6.80799-5.72998 11.88519-11.54297 15.24218-5.188 2.996-11.40149 3.49786-18.64649 1.50586l-35.380855-9.62109c1.002999 3.051 2.28847 5.93639 3.855469 8.65039 6.039994 10.46199 14.848933 17.22964 26.419922 20.30664 11.572984 3.08 22.605714 1.5892 33.095704-4.4668 10.49799-6.06099 17.35717-14.90426 20.57617-26.53125 3.223-11.62798 1.81153-22.67563-4.23047-33.14062l-16.13281-27.94336c-1.198-2.075-2.10161-4.14127-2.72461-6.19727-2.259-1.89599-4.46161-3.92017-6.59961-6.07617-17.76898-17.90998-26.646484-39.93038-26.646484-66.06836 0-26.137971 8.878504-48.10264 26.646484-65.890622 17.76398-17.786982 39.69676-26.68164 65.80274-26.68164zm327.80468 13.070312c-37.35388 0-67.03589 11.971275-89.04883 35.908203-22.01291 23.940928-33.01953 56.293807-33.01953 97.054687 0 3.52286 0.12737 6.95694 0.3125 10.34961 0.03271 0.59268 0.06316 1.18671 0.10157 1.77539 0.22103 3.42488 0.52327 6.79163 0.93554 10.08203 0.00208 0.01648 0.00575 0.03236 0.00781 0.04883 0.43806 3.48732 0.99548 6.89035 1.64844 10.22656 0.01412 0.07187 0.0268 0.145 0.04102 0.2168 4.81954 24.42735 15.38274 44.81724 31.75 61.13086 23.19791 23.12494 54.66079 34.68359 94.38867 34.68359 15.85994 0 31.49712-1.63258 46.91406-4.89258 15.41797-3.25897 30.46278-8.00454 45.13672-14.22851v-12.16211c2.52437 3.49238 5.36939 6.77743 8.57813 9.82812 15.04294 14.30597 35.31656 21.45704 60.8125 21.45704 20.15794 0 37.20468-3.59419 51.14062-10.78516 13.93197-7.18797 25.57023-18.34095 34.9082-33.46289v37.79883h40.91016v-8.41993c15.17439 4.82401 29.66497 8.5074 43.42774 10.97657 14.45294 2.59097 28.34848 3.89062 41.68945 3.89062 32.01791 0 57.17836-6.74343 75.48633-20.23437 18.30594-13.48697 27.46093-31.79408 27.46093-54.91602 0-20.30794-6.11478-36.13364-18.34375-47.47461-9.61475-8.91265-24.51296-16.22188-44.52734-21.97656 0.03438-9.5e-4 0.06914-0.00296 0.10352-0.00391-0.3623-0.1042-0.79661-0.18777-1.16211-0.29101-5.14074-1.45097-10.5236-2.82814-16.33789-4.07422h-0.00196l-14.00586-3.11328h-0.00195c-5.48405-1.2226-10.509-2.46197-15.07617-3.7168h-0.00196c-9.13445-2.50975-16.43502-5.08463-21.90039-7.72461h-0.00195c-2.73276-1.32011-5.00531-2.65679-6.82031-4.00976-1.81625-1.3525-3.40553-2.83413-4.76758-4.44141-0.00366-0.00432-0.00611-0.00935-0.00977-0.01367-4.07054-4.81047-6.10774-10.76186-6.11523-17.853518-1e-5 -0.012706-0.00195-0.024393-0.00195-0.037109 0-6.225792 1.2674-11.672529 3.80468-16.341797v-0.001953c0.40446-0.744181 0.8963-1.435981 1.36524-2.140625 0.26629-0.400079 0.49026-0.829451 0.77734-1.216797 0.79261-1.069377 1.66413-2.090281 2.61524-3.0625l0.00195-0.001953c0.09858-0.100747 0.22003-0.187406 0.32031-0.287109 1.83591-1.825358 3.93531-3.488725 6.3418-4.964844 7.61247-4.667985 18.08605-7.588302 31.41406-8.755859 0.00125-1.1e-4 0.00266 1.09e-4 0.00391 0 4.4411-0.388869 9.19997-0.583985 14.27539-0.583985 6.66897 0 13.22768 0.371784 19.67578 1.113281h0.00195c3.22341 0.370713 6.42003 0.834799 9.58789 1.390626 3.16824 0.555981 6.30743 1.204065 9.41993 1.945312h0.00195c0.84152 0.200541 1.66448 0.46369 2.50195 0.677734 2.26061 0.578014 4.52302 1.149832 6.75391 1.826172 3.05644 0.9264 6.08496 1.943353 9.08594 3.054688l0.00195 0.001953c3.00094 1.111377 5.97445 2.31483 8.91992 3.611328 2.9463 1.296601 5.86709 2.686384 8.75781 4.167969v-1.611328l27.02146 65.730464 55.4473 134.88086-7.3379 18.67774c-7.559 19.86294-14.4537 32.46283-20.6797 37.79883-6.227 5.33597-14.9743 8.0039-26.2363 8.0039h-24.01368v34.24219h32.68558c18.3767 0 33.0527-4.52348 44.0214-13.56445 10.967-9.04297 22.2389-28.38734 33.7989-58.03125l108.6758-270.361331v122.962891 124.27344h64.0039v-93.9336h18.123c10.417 0 18.7587 2.27539 25.0234 6.81836 6.259 4.548 12.4392 13.02553 18.5372 25.4375l30.2597 61.67383h68.166l-34.748-70.49023c-7.096-14.29597-14.1073-24.96294-21.0313-32.00391-5.2063-5.28673-10.9307-9.14875-17.1679-11.58984 0.0032 1.3e-4 0.0065-1.4e-4 0.0097 0-0.0216-0.00849-0.0447-0.01304-0.0664-0.02149-2.0459-0.79753-4.1464-1.44603-6.3027-1.9375 13.9659-4.36272 24.8553-10.84704 32.668-19.45508v-0.00195c1.1157-1.22916 2.1699-2.50071 3.1601-3.81641v-0.00195c4.952-6.58032 8.3578-14.30812 10.2149-23.18359 1.1143-5.32565 1.6718-11.06383 1.6718-17.2168 0-5.928229-0.4769-11.459077-1.4296-16.591796-0.9527-5.132071-2.3824-9.866899-4.2872-14.203125v-0.001953c-0.9525-2.168338-2.0242-4.235852-3.2148-6.205078-1.1903-1.968779-2.4996-3.837732-3.9277-5.607422v-0.001954c-1.4283-1.76969-2.9766-3.439238-4.6426-5.009765-1.6667-1.571166-3.4508-3.044241-5.3555-4.416016-1.9054-1.371494-3.9469-2.657308-6.125-3.857422-2.1781-1.200112-4.4926-2.313081-6.9433-3.341797-2.4508-1.028713-5.0383-1.972774-7.7618-2.830078-2.7234-0.857301-5.5839-1.628578-8.58-2.314453-11.9839-2.743378-26.149-4.115121-42.4942-4.115234h-97.3652l0.3242-0.806641h-0.0019-43.3575l-45.9824 115.089844c0.0013 1.2e-4 0.0026-1.2e-4 0.0039 0l-31.8379 79.68359-77.8222-194.773434-2e-3 -0.003906h-43.35937v0.003906l0.625 1.513672c-0.01472-0.003997-0.0302-0.007724-0.04492-0.011719-0.9232-0.250151-1.89326-0.449884-2.82813-0.6875-5.29451-1.347316-10.73533-2.539571-16.40429-3.482421-13.34097-2.225994-27.56949-3.335938-42.68946-3.335938-3.90894 0-7.69631 0.111373-11.37695 0.320312-3.42732 0.194441-6.75704 0.479907-9.98633 0.855469-0.14655 0.017053-0.2933 0.033358-0.43945 0.050781-3.2749 0.390293-6.44942 0.871609-9.51953 1.449219-0.05655 0.010642-0.11344 0.020545-0.16992 0.03125-3.10259 0.587933-6.09926 1.273027-8.99219 2.052735-0.05993 0.016154-0.11985 0.032591-0.17969 0.048828-2.88706 0.783264-5.67003 1.661882-8.34765 2.636718-0.05069 0.018456-0.10173 0.036164-0.15235 0.054688-2.67753 0.979872-5.24929 2.056519-7.71679 3.228516-0.04314 0.020487-0.08584 0.041953-0.12891 0.0625-2.46722 1.176958-4.82929 2.448749-7.08594 3.818359-0.03647 0.022134-0.07296 0.044222-0.10937 0.066406-2.26811 1.381772-4.43156 2.860533-6.48633 4.4375-0.00439 0.003371-0.00928 0.006394-0.01367 0.009766l-0.00196 0.001953c-0.00188 0.001445-0.00397 0.002461-0.00586 0.003906-2.04561 1.571176-3.96236 3.225728-5.75586 4.958985-0.04502 0.04351-0.0899 0.087247-0.13476 0.130859-1.77058 1.721203-3.41637 3.522053-4.93945 5.402344-0.03354 0.041406-0.0662 0.083517-0.09961 0.125-1.5234 1.890916-2.92518 3.860901-4.19922 5.912109-0.02297 0.036976-0.04548 0.0743-0.06836 0.111328-1.27426 2.061718-2.42228 4.204533-3.44531 6.427735-0.01475 0.032057-0.03023 0.063612-0.04493 0.095703-1.02301 2.233351-1.9194 4.54739-2.68945 6.943359-0.00838 0.02609-0.01704 0.052016-0.02539 0.078125-0.77171 2.411526-1.41581 4.904448-1.93164 7.480469-0.00108 0.005369-0.00283 0.010255-0.00391 0.015625v0.001953l-0.00195 0.009766c-1.03623 5.185177-1.55469 10.703344-1.55469 16.554684 0 4.8168 0.35289 9.37879 1.05664 13.68164 0.35193 2.15103 0.79248 4.23721 1.32032 6.25977v0.00195c0.52788 2.02251 1.14383 3.98098 1.84765 5.875 2.81596 7.57863 7.04043 14.12971 12.67383 19.65039 0.04691 0.046 0.10519 0.08692 0.15234 0.13282 1.04981 1.01958 2.16902 2.01155 3.33985 2.98437 0.01492-1e-3 0.03-9.5e-4 0.04492-0.00195 11.40386 9.47004 28.4942 16.63739 51.38086 21.45508l14.23242 3.33398c25.34694 5.48397 41.76403 11.19317 49.25 17.11914 7.48397 5.92897 11.22852 14.45139 11.22852 25.56836 0 12.00797-5.19049 21.31028-15.56446 27.90625-10.37697 6.59497-25.20181 9.89258-44.46875 9.89258-14.37994 0-28.90613-1.96358-43.58007-5.89258-13.94034-3.72921-28.08699-9.29181-42.42774-16.57031v-81.4043c0.0013-1e-4 0.00261 1e-4 0.00391 0v-10.41601c0-0.08674-0.00772-0.16532-0.00782-0.25196-0.00478-4.5681-0.13712-8.99681-0.40039-13.28515-0.00927-0.15112-0.01969-0.30236-0.02929-0.45313-0.27338-4.29432-0.67719-8.44849-1.21094-12.46094-0.01681-0.12635-0.03372-0.25283-0.05078-0.3789-0.54388-4.0178-1.21736-7.89309-2.02344-11.62696-0.0225-0.10424-0.04565-0.20848-0.06836-0.3125-0.81452-3.731077-1.76046-7.319297-2.83789-10.765621-0.03091-0.09888-0.06067-0.19823-0.0918-0.296875-1.08839-3.448994-2.30917-6.755584-3.66211-9.917969-0.0281-0.06569-0.05576-0.131699-0.08398-0.197266-1.36247-3.165817-2.85776-6.186998-4.48633-9.064453-0.03833-0.06773-0.07675-0.135554-0.11523-0.203125-1.64004-2.879799-3.41446-5.615528-5.32227-8.205078-0.02572-0.034904-0.0504-0.070617-0.07617-0.105469-1.91653-2.592556-3.96858-5.039144-6.1543-7.339843-0.02117-0.022284-0.03935-0.048056-0.06054-0.070313-0.01971-0.020681-0.04278-0.037935-0.0625-0.058594-2.2064-2.311765-4.55081-4.482734-7.03711-6.507812h-0.00196c-17.55772-14.300014-42.09499-21.451172-73.61328-21.451172-3.33472 0-6.69289 0.090846-10.07422 0.271484-6.76265 0.361248-13.62121 1.084109-20.56836 2.167969-3.47356 0.54195-6.97037 1.173866-10.49023 1.896485-3.52038 0.722621-7.07078 1.536269-10.64648 2.439453-10.7281 2.710055-21.70676 6.232864-32.9336 10.568359v37.794922 0.003906c12.45097-6.816979 25.42114-11.929853 38.91211-15.339844 13.48597-3.409988 27.34916-5.115234 41.57813-5.115234 22.37991 0 39.75977 5.153155 52.13671 15.453125 7.73375 6.440607 13.0518 14.5446 15.95313 24.312505 0.57979 1.95238 1.06453 3.97132 1.45117 6.05664 2.4e-4 0.00127-2.3e-4 0.00263 0 0.0039 0.38653 2.08543 0.67776 4.23674 0.8711 6.45508 1.1e-4 0.00132-1.2e-4 0.00259 0 0.00391 0.19323 2.21845 0.28906 4.50405 0.28906 6.85547v0.0039 3.99805h-57.36328c-37.20691 0-65.18461 7.11376-83.93555 21.3457-1.60243 1.21586-3.1107 2.50183-4.57617 3.81836v-2.70117-0.00391c0-4.63037-0.15061-9.14061-0.45508-13.52929-9e-5 -0.00133 9e-5 -0.00259 0-0.00391-0.30455-4.38858-0.76211-8.65589-1.37109-12.80273-1.9e-4 -0.0013 1.9e-4 -0.00262 0-0.00391-0.60917-4.1474-1.37149-8.17255-2.28516-12.07813v-0.00195c-0.90937-3.88695-1.97068-7.65339-3.18164-11.300781-0.00567-0.017086-0.0119-0.037606-0.01758-0.054687-1.21797-3.662796-2.58711-7.205941-4.10937-10.626953-6e-4 -0.001346-0.00136-0.002561-0.00196-0.003907-1.52238-3.420884-3.19678-6.721318-5.02343-9.90039-7.3e-4 -0.001263-0.00123-0.002644-0.00196-0.003906-3.65408-6.358858-7.91761-12.233887-12.78906-17.625-0.00125-0.001384-0.00266-0.002523-0.00391-0.003907-2.43547-2.694476-4.98063-5.220269-7.63476-7.578125-0.00138-0.001223-0.00253-0.002683-0.00391-0.003906-2.65424-2.357676-5.41818-4.545355-8.29101-6.566406-0.00147-0.001032-0.00244-0.002874-0.00391-0.003906-5.74724-4.042683-11.93267-7.411882-18.55469-10.107422-0.00188-7.67e-4 -0.00593-0.001187-0.00781-0.001953-13.24793-5.391403-28.24443-8.087891-44.99219-8.087891zm1260.94534 2.322266c-5.3468 0-10.5525 0.178796-15.6153 0.537109-0.0012 9.1e-5 -0.0026-9.1e-5 -0.0039 0-5.0626 0.358399-9.983 0.896591-14.7617 1.613281-0.0012 1.9e-4 -0.0026-1.89e-4 -0.0039 0-4.7786 0.716781-9.4157 1.6144-13.9101 2.689453-0.0013 2.93e-4 -0.0027-2.93e-4 -4e-3 0-4.4949 1.075296-8.8476 2.330019-13.0585 3.763672h-2e-3c-4.2111 1.433705-8.2799 3.047793-12.207 4.839844h-2e-3c-9.8187 4.480653-18.749 10.082141-26.793 16.802734h-0.0019c-1.6089 1.344207-3.1828 2.732207-4.7207 4.166016-1.526 1.423133-3.0023 2.882343-4.4336 4.371094-0.0105 0.0109-0.0227 0.020346-0.0332 0.03125l-2e-3 0.001953c-21.6251 22.512361-32.4375 52.520978-32.4375 90.029298 0 39.56988 12.0795 70.90664 36.2422 94.01758 24.166 23.10791 56.9161 34.66601 98.2578 34.66601 18.291 0 36.0222-1.93936 53.2012-5.81836 17.179-3.87897 33.7549-9.6951 49.7149-17.45507h0.0019v-108.31055-11.06055-0.00195h-99.7539v0.00195 19.98828 22.90821h39.0664v48.21093c-4.548 1.777-9.6739 3.07716-15.3789 3.91016-5.709 0.828-11.8852 1.24609-18.5352 1.24609-24.5007 0-43.3943-7.15132-56.6953-21.44726-11.6052-12.47768-18.1396-29.513-19.6191-51.10157-0.2178-3.153-0.3319-6.40013-0.332-9.75v-0.00195-0.00195c0-3.3102 0.1086-6.52356 0.3242-9.64258v-0.00195c2e-4 -0.00332-2e-4 -0.00645 0-0.00977 0.2153-3.11204 0.5388-6.12911 0.9687-9.05078 5e-4 -0.00318 0.0015-0.0066 2e-3 -0.00976v-0.00196c8e-4 -0.00532 0.0012-0.0103 0.0019-0.01562 0.43-2.91659 0.9675-5.73805 1.6114-8.46485 0.0012-0.00509 0.0027-0.01053 0.0039-0.01562v-0.00195c0.0016-0.00678 0.0042-0.01277 0.0058-0.01954 0.642-2.71359 1.3902-5.33385 2.2442-7.85937 0.0047-0.01393 0.0089-0.02905 0.0136-0.04297 0.0061-0.01793 0.0135-0.03481 0.0196-0.05273 0.8549-2.51801 1.8128-4.94277 2.8789-7.27344 0.0038-0.00832 0.0079-0.01708 0.0117-0.02539v-0.00196c0.0043-0.0094 0.0094-0.01794 0.0137-0.02734 1.0736-2.34216 2.2539-4.59142 3.541-6.74414l0.0019-0.00195c8e-4 -0.00125 0.0012-0.00266 2e-3 -0.00391 0.0029-0.00485 0.0069-0.00882 0.0098-0.01367 1.2844-2.14647 2.675-4.19629 4.1718-6.1543 0.0077-0.00998 0.0139-0.02127 0.0215-0.03125v-0.00195c0.0085-0.01102 0.0189-0.02024 0.0274-0.03125 1.4837-1.93588 3.0738-3.77804 4.7656-5.529298 0.0202-0.020893 0.0384-0.043587 0.0586-0.064453 0.0225-0.02321 0.0458-0.045188 0.0683-0.06836 1.7038-1.752813 3.4936-3.401022 5.375-4.9375 0.0011-8.83e-4 0.0029-0.001069 0.0039-0.001953l2e-3 -0.001953c0.0032-0.002628 0.0065-0.005185 0.0098-0.007812 1.9004-1.550973 3.891-2.991933 5.9726-4.322266 4e-3 -0.00254 0.0078-0.005274 0.0117-0.007813l2e-3 -0.001953c0.0068-0.004353 0.0147-0.007367 0.0215-0.011718 2.076-1.324911 4.2419-2.540857 6.498-3.646485 8e-3 -0.003884 0.0155-0.007839 0.0235-0.011718l0.0019-0.001954c0.0106-0.005186 0.0226-0.00849 0.0332-0.013672 2.2514-1.100651 4.593-2.092044 7.0235-2.974609 0.012-0.004363 0.0231-0.009314 0.0351-0.013672l2e-3 -0.001953c0.015-0.00544 0.0318-0.00824 0.0468-0.013672 2.4413-0.883217 4.9702-1.658736 7.5918-2.322265h2e-3c2.6378-0.667564 5.367-1.224796 8.1875-1.669922h0.0019c2.7967-0.441304 5.6859-0.771551 8.6622-0.994141 3.0268-0.226247 6.1467-0.339844 9.3593-0.339844 0.0378 0 0.0755 0.001924 0.1133 0.001954 3.3577 0.00256 6.7152 0.121163 10.0703 0.355468 0.084 0.005865 0.168 0.011568 0.252 0.017578 3.3426 0.239216 6.6836 0.595325 10.0234 1.064454 0.0937 0.013162 0.1876 0.025717 0.2813 0.039062 3.3388 0.475461 6.6759 1.064392 10.0117 1.769531 0.0885 0.018721 0.1771 0.037758 0.2656 0.056641 3.3337 0.710814 6.6657 1.536457 9.9961 2.476562 0.0462 0.013053 0.0924 0.024013 0.1387 0.03711 0.0481 0.013638 0.0964 0.029283 0.1445 0.042968 3.3496 0.953193 6.7048 2.024867 10.0645 3.216797 0.0234 0.008311 0.0468 0.015116 0.0703 0.023438 3.4321 1.219215 6.8698 2.562878 10.3125 4.03125h0.0019c3.4422 1.46818 6.8893 3.061849 10.3418 4.779297h2e-3c3.4525 1.717497 6.9103 3.560382 10.373 5.527346h2e-3v-51.373049h-2e-3c-6.7066-3.046688-13.6264-5.719718-20.7617-8.019532-3.5667-1.149679-7.1854-2.206959-10.8594-3.169921h-0.0019c-3.674-0.962934-7.402-1.833224-11.1836-2.609376h-2e-3c-3.7812-0.775491-7.6067-1.453425-11.4746-2.035156-0.0013-1.9e-4 -0.0026 1.91e-4 -0.0039 0-3.8686-0.581761-7.7792-1.067173-11.7344-1.455078h-0.0019c-3.9545-0.387809-7.9532-0.679063-11.9942-0.873047-0.0012-6.2e-5 -0.0026 6.2e-5 -0.0039 0-4.0423-0.193984-8.1271-0.291015-12.2558-0.291015zm-339.1875 4.488281v136.595703 111.62305h64.0039v-86.11914h42.2305c31.5867 0 55.8322-7.00731 72.7382-21.03125 1.6663-1.38211 3.2266-2.8407 4.7285-4.33985h2e-3c0.0043-0.00427 0.0074-0.0094 0.0117-0.01367 1.711-1.70874 3.3168-3.49281 4.8145-5.35352l0.0019-0.00195 2e-3 -0.00195c4.4721-5.55721 7.997-11.78924 10.5664-18.70117 0.0284-0.07619 0.0597-0.15021 0.0879-0.22657 0.796-2.16371 1.4912-4.39944 2.1015-6.69531 0.0702-0.26341 0.1413-0.52586 0.209-0.79101 0.568-2.22834 1.05-4.51801 1.4453-6.86914 0.0549-0.32528 0.1047-0.65479 0.1563-0.98243 0.3705-2.36202 0.6664-4.77556 0.8652-7.25976 0.0243-0.30255 0.0369-0.6136 0.0586-0.91797 0.1842-2.58845 0.2988-5.22779 0.2988-7.94727 0-3.2421-0.1324-6.38948-0.3964-9.44531-0.2641-3.05583-0.6595-6.01909-1.1875-8.888671-0.528-2.868938-1.1887-5.645307-1.9805-8.328125v-0.001953c-3.1685-10.733952-8.4494-19.976277-15.8438-27.732422-1.8482-1.938619-3.8291-3.786369-5.9414-5.539062-2.1029-1.743962-4.3203-3.377216-6.6504-4.904297-0.0109-0.007177-0.0203-0.016266-0.0312-0.023438h-2e-3c-0.0102-0.00668-0.021-0.012853-0.0312-0.019531-2.3334-1.525854-4.7791-2.945168-7.3399-4.253906-2.572-1.314465-5.2591-2.517855-8.0605-3.613281-2.8014-1.095427-5.7175-2.082613-8.748-2.958985-3.0308-0.876372-6.1754-1.643479-9.4356-2.300781s-6.6354-1.20436-10.125-1.642578-7.0935-0.767211-10.8125-0.986328-7.5538-0.328125-11.5019-0.328125h-106.2344zm-921.31252 27.875c2.51972 0 4.97712 0.104088 7.37304 0.3125h0.00196c2.39521 0.208412 4.72853 0.520779 7 0.9375h0.00195c0.53546 0.09825 1.03392 0.259313 1.5625 0.369141 10.67067 2.217371 19.97166 6.739669 27.83789 13.673828 0.0108 0.009524 0.0224 0.01781 0.0332 0.027343h0.00196c0.01232 0.010903 0.02281 0.024242 0.03515 0.035157 1.63939 1.449615 3.21907 2.999442 4.73633 4.654296 3.05725 3.335741 5.74149 6.952981 8.05273 10.853516 1.15611 1.95081 2.21803 3.972387 3.1875 6.064453 1.93838 4.182979 3.50445 8.646639 4.69727 13.394529v0.00196c0.59621 2.37336 1.09982 4.81746 1.50976 7.33203 0.82002 5.03079 1.26729 10.34376 1.3418 15.93945l-145.85937 0.22461c0.5185-5.85497 1.40051-11.38088 2.64648-16.57813 3.73767-15.59169 10.74848-28.22451 21.0332-37.89648 1.71314-1.611902 3.49784-3.124727 5.35352-4.535156h0.00195c3.71176-2.821029 7.7084-5.238867 11.99024-7.253906h0.00195c4.28243-2.01519 8.84883-3.626871 13.70117-4.835938 7.27855-1.8136 15.1977-2.720703 23.75782-2.720703zm757.18162 18.513672h26.9356c6.704 0 12.4616 0.609003 17.2695 1.828125 2.3938 0.606991 4.5493 1.366135 6.4726 2.27539 1.939 0.916668 3.6405 1.985326 5.1016 3.208985 0.0011 9e-4 0.0028 0.001053 0.0039 0.001953 0.7259 0.608752 1.4058 1.269588 2.041 1.978516 1.9211 2.143878 3.4255 4.748673 4.5176 7.808593 0.7137 1.998199 1.2513 4.189179 1.6113 6.578129 0.0038 0.02521 8e-3 0.05091 0.0118 0.07617 0.3567 2.39583 0.5346 4.98767 0.5371 7.77539 0 0.01888 0.0019 0.03579 0.0019 0.05469s-0.0019 0.0358-0.0019 0.05468c-0.0025 2.81161-0.1814 5.42866-0.5371 7.84961-0.0051 0.03455-0.0105 0.06905-0.0157 0.10352-0.3588 2.40223-0.895 4.6073-1.6035 6.62305-1.4538 4.13709-3.6395 7.4648-6.5664 9.97461-1.4608 1.25198-3.1627 2.34534-5.1016 3.2832-1.92 0.92853-4.0741 1.7056-6.4628 2.32617-0.0079 0.00204-0.0156 0.00382-0.0235 0.00586-2.3821 0.61744-5.0004 1.07917-7.8476 1.39062-0.0456 0.00498-0.0911 0.01073-0.1368 0.01563-2.8581 0.30694-5.9452 0.46283-9.2695 0.46289h-0.0019-2e-3 -26.9336v-63.675781zm228.1328 0h35.4141c6.206 0 11.706 0.747646 16.5 2.24414 4.794 1.496497 8.8807 3.741384 12.2617 6.734375 0.8439 0.747633 1.6363 1.534151 2.375 2.361328l2e-3 0.001954c0.7385 0.827238 1.4253 1.694752 2.0586 2.601562 0.3888 0.556671 0.7192 1.157506 1.0683 1.744141 0.2199 0.369567 0.4697 0.716193 0.6738 1.097656l2e-3 0.001953c0.5278 0.986539 1.0033 2.014022 1.4258 3.080082 0.1415 0.35697 0.2414 0.74544 0.3711 1.11132 0.2577 0.72754 0.5272 1.44622 0.7383 2.20899 0.3206 1.15889 0.5861 2.3594 0.7988 3.59961 0.4164 2.4273 0.6245 5.00936 0.6269 7.74804 0 0.01475 2e-3 0.02822 2e-3 0.04297 0 0.01742-0.0019 0.03338-2e-3 0.05079-0.0026 2.73515-0.2114 5.31824-0.6269 7.74609-0.423 2.47215-1.0577 4.78624-1.9082 6.93945-0.8456 2.14056-1.9023 4.12188-3.1699 5.94727-0.6339 0.91269-1.3213 1.78718-2.0606 2.62109-0.7392 0.83391-1.5304 1.62769-2.375 2.38281-3.3832 3.02245-7.4754 5.28701-12.2734 6.79688-2.3915 0.75247-4.9584 1.31846-7.7012 1.69531-0.0046 6.4e-4 -9e-3 0.00132-0.0137 0.00195-2.7478 0.37684-5.6713 0.56633-8.7715 0.56641h-0.0019-2e-3 -35.4121v-69.326171zm-771.84177 76.654301h40.68945v9.11523c0 26.68191-6.85839 48.06259-20.56836 64.14453-13.71294 16.08697-31.90602 24.125-54.58593 24.125-16.45297 0-29.46147-4.25923-39.02344-12.7832-9.55997-8.52397-14.33984-20.04528-14.33984-34.57422 0-18.23194 6.37012-31.12941 19.12109-38.69141 3.06161-1.81564 6.74371-3.39981 10.97656-4.77929 3.06511-0.99878 6.50732-1.85817 10.18555-2.62891 0.69527-0.14555 1.41561-0.28254 2.13281-0.41992 3.70861-0.71121 7.62851-1.343 11.92383-1.83594 0.07356-0.00843 0.1372-0.02093 0.21094-0.0293 4.33551-0.49262 9.06283-0.83843 13.99414-1.10937 1.10712-0.06067 2.23398-0.11455 3.37109-0.16406 5.04274-0.22018 10.2779-0.36912 15.91211-0.36914zm-293.29101 10.45117h174.29492c-6.47865 11.70431-9.74414 25.77106-9.74414 42.23828 0 9.53371 1.20664 18.28913 3.57812 26.29297-11.10372 5.17088-22.27081 9.23962-33.50195 12.17383-14.74997 3.85497-29.98144 5.78125-45.69141 5.78125-27.12491 0-48.28757-7.37211-63.47851-22.12305-9.6684-9.38336-16.60803-21.49407-20.84375-36.3086-1.20713-4.22162-2.1966-8.65909-2.96485-13.31835-0.00274-0.01671-0.00507-0.03407-0.00781-0.05079-0.76863-4.67278-1.31736-9.56615-1.64062-14.68554z"/></svg>
