<svg version="1.1" viewBox="94 357.6 603.12109 59.859771" xmlns="http://www.w3.org/2000/svg">
 <path d="m123.92969 357.6c-16.43505 0-29.92969 13.41925-29.92969 29.92969 0 16.43504 13.49464 29.92969 29.92969 29.92969h543.26172c16.43505 0 29.92968-13.49465 29.92968-29.92969 0-16.43505-13.49463-29.92969-29.92968-29.92969zm4.52343 10.10156c2.03554 0 3.39221 0.22618 5.42774 0.75391v10.02734c-1.80936-1.05545-3.54376-1.58203-5.50391-1.58203-5.88043 0-10.25195 4.82426-10.25195 10.47852 0 5.42809 4.44769 10.32812 10.32812 10.32812 1.88476 0 3.09064-0.30157 5.42774-1.50781v10.25391c-2.3371 0.60312-3.46681 0.82812-5.35156 0.82812-10.55462 0-19.9043-8.44344-19.9043-19.75195 0-11.00696 9.27351-19.82813 19.82812-19.82813zm298.39454 0.0762h49.04296v4.44727h-49.04296zm146.04296 2.55664c8.208 0 11.27946 0.28776 13.43946 1.34375 2.928 1.392 3.98437 3.74345 3.98437 9.02344v1.58399h-9.74414c-0.096-1.87201-0.19217-2.30404-0.57617-2.83204s-1.15167-0.76811-3.26367-0.91211c-1.536-0.096-4.41505-0.1914-6.62305-0.1914-6.048 0-7.82403 0.19181-8.83203 1.00781-1.152 0.912-1.53711 2.83281-1.53711 7.63281 0 8.16 0.14487 8.30274 10.46484 8.30274 10.65601 0 10.79964-0.0468 10.84766-4.79883h9.79102c0.048 1.824 0.0977 2.54344 0.0977 3.02344 0 5.03999-1.29737 7.39179-4.60937 8.59179-2.592 0.86401-6.14428 1.20118-13.48828 1.20118-12.19201 0-16.22329-0.38452-18.86328-1.72852-2.352-1.2-3.40702-3.07187-3.79102-6.67187-0.096-1.44-0.19336-4.17706-0.19336-7.87305 0-7.344 0.23981-10.03147 1.00781-11.85547 1.82401-4.032 5.4727-4.84766 21.88867-4.84766zm39.89844 0.0957c13.05601 0 14.73566 0.14458 16.84766 1.39258 2.304 1.344 3.07226 3.50238 3.07226 8.73438 0 3.744-0.38457 5.66517-1.39257 7.20117-1.392 2.064-4.36898 3.1202-9.79297 3.4082-13.44001 0.864-15.31155 1.00693-15.93555 1.29492-1.2 0.48-1.53596 1.10546-1.58398 2.68946v0.33593h29.23242v7.34375h-38.16016c-0.14399-1.632-0.14453-2.11243-0.14453-3.64843 0-5.616 0.1924-7.96874 0.81641-9.55274 1.10399-2.832 3.36062-4.03142 8.64062-4.60742 0.336-0.048 1.96819-0.19164 4.99219-0.43164 1.776-0.096 4.46333-0.33699 8.11133-0.625 5.616-0.432 6.0957-0.67055 6.0957-3.31055 0-1.776-0.33545-2.44803-1.43945-2.83203-0.864-0.28798-2.25575-0.33594-7.34375-0.33594-5.952 0-8.59244 0.14335-9.64844 0.52735-0.864 0.336-1.10432 1.10361-1.15234 3.59961v1.10351h-9.40821c-0.048-0.57599-0.0469-1.29545-0.0469-1.43945 0-9.648 2.01624-10.84766 18.24023-10.84766zm44.50782 0c5.712 0 10.5121 0.19218 12.9121 0.57618 3.744 0.52799 6.14358 2.7354 6.76758 6.1914 0.384 1.92 0.38477 2.44844 0.38477 9.64844 0 7.152-7.7e-4 7.67961-0.38477 9.59961-0.624 3.456-3.02358 5.6634-6.76758 6.1914-2.4 0.384-7.2001 0.57618-12.9121 0.57618-5.76001 0-10.56012-0.19218-12.91211-0.57618-3.79201-0.528-6.19241-2.7354-6.81641-6.1914-0.33598-1.92-0.38477-2.73638-0.38477-9.98438 0-6.33599 0.0488-7.43967 0.38477-9.26367 0.624-3.456 3.0244-5.66341 6.81641-6.1914 2.4-0.384 7.1521-0.57618 12.91211-0.57618zm-169.32227 0.38477h10.70312l11.66407 23.95117h1.87304l11.51954-23.95117h10.65624l-15.64843 32.01562h-14.92774zm47.97266 0h10.22461v32.01562h-10.22461zm-201.83008 1.0332h6.18164v23.07031h-5.87891v-2.9414c-1.13085 2.11092-2.5637 3.31836-7.38867 3.31836-7.6144 0-9.72656-1.88559-9.72656-8.36914 0-6.33277 1.50903-8.44336 9.34961-8.44336 4.90036 0 6.10586 0.9797 7.46289 2.78906zm92.73047 4.75h49.04296v4.37305h-49.04296zm-202.49805 1.65821c4.67419 0 6.40899 1.434 7.61523 3.54492 0.60312-1.80936 2.33558-3.54492 7.00977-3.54492 5.42809 0 8.36914 2.18675 8.36914 7.01172v9.57422h-5.88086v-8.59375c0-2.3371-1.20588-3.0918-3.91992-3.0918-2.86483 0-4.67383 0.7547-4.67383 3.0918v8.59375h-6.03125v-7.46289c0-3.01561-0.82893-4.14649-3.91992-4.14649-3.31717 0-4.52344 0.82853-4.52344 3.31641v8.36914h-5.88086v-16.20898h5.50391l-0.0762 3.69335c0.7539-2.63865 1.96018-4.14648 6.4082-4.14648zm39.6543 0c4.67418 0 6.40899 1.434 7.61523 3.54492 0.7539-1.96014 2.33753-3.54492 7.01172-3.54492 5.42809 0 8.36719 2.18675 8.36719 7.01172v9.57422h-5.87891v-8.59375c0-2.26171-1.35832-3.0918-4.07226-3.0918-2.78944 0-4.52344 0.7547-4.52344 3.0918v8.59375h-6.03125v-7.46289c0-3.16639-0.82893-4.14649-3.91992-4.14649-2.94022 0-4.44727 0.82853-4.44727 3.31641v8.36914h-5.88086v-16.20898h5.50391v3.69335c0.82929-2.63865 1.95862-4.14648 6.25586-4.14648zm117.91015 0.0762c5.88043 0 6.63477 2.11175 6.63477 7.61523h-5.50391c-0.0754-2.03553-0.67814-2.79101-3.16601-2.79101-2.48788 0-3.84375 1.13204-3.84375 3.31836v8.44336h-5.88086v-16.20898h5.65429v3.09179c1.28164-2.71404 2.56214-3.46875 6.10547-3.46875zm-184.55468 0.22656c9.49905 0 11.30859 1.35591 11.30859 7.99024 0 7.23745-0.98025 8.97187-11.30859 8.89648-9.72538 0-11.45899-1.43207-11.45899-8.44336 0-6.8605 1.28127-8.44336 11.45899-8.44336zm104.79296 0c9.49916 0 11.45899 1.35591 11.45899 7.99024 0 7.23745-1.13054 8.97265-11.45899 8.97265-9.72532 0-11.45898-1.50864-11.45898-8.36914s1.28131-8.59375 11.45898-8.59375zm53.15039 0c9.49916 0 11.3086 1.35591 11.3086 7.99024 0 7.23745-0.98015 8.97187-11.3086 8.89648-9.57454 0-11.30859-1.43207-11.30859-8.44336 0-6.8605 1.20632-8.44336 11.30859-8.44336zm45.91211 0.0742c10.47923 0 10.47891 1.88599 10.70508 9.72657h-15.45508c0 2.78943 0.83012 3.3164 6.48438 3.3164 2.48787 0 2.93984-0.60313 3.16601-1.88476h5.80469c0 5.2773-3.76841 5.65429-11.75976 5.65429-7.16207-0.0754-9.72657-1.73324-9.72657-8.21679 0-7.01129 1.96061-8.59571 10.78125-8.59571zm-229.03515 0.0762c8.21751 0 9.8004 1.35785 10.32812 6.86133h-5.88086c-0.37695-1.58319-0.97933-1.96094-4.44726-1.96094-4.67419 0-5.50391 8.1e-4 -5.50391 3.0918 0 3.16639 0.90589 4.14453 4.82617 4.14453 4.52341 0 5.125-0.75274 5.125-2.33594h5.88086c0 5.80504-1.88443 7.01172-11.08203 7.01172-8.74526 0-10.70508-1.58285-10.70508-8.44336 0-6.8605 2.11061-8.36914 11.45899-8.36914zm484.49219 0.0254c-4.656 0-7.10334 0.23929-8.11133 0.86328-1.2 0.768-1.63282 2.54464-1.63282 7.05664 0 7.968 0.33728 8.25586 9.69727 8.25586 5.856 0 8.25538-0.24123 9.35938-0.86523 1.248-0.768 1.63281-2.54404 1.63281-7.24805 0-5.03999-0.43358-6.67062-2.01758-7.39062-1.056-0.48-3.74374-0.67188-8.92773-0.67188zm-522.26368 0.27539h17.03907l-7.68946 7.76563h-9.34961zm266.58008 3.61914c-3.92029 0-4.44766 0.60392-4.67383 2.33789h9.87696c-0.30156-2.11092-0.90589-2.33789-5.20313-2.33789zm-71.16797 0.45313c-4.90036 0-6.33203 0.15041-6.33203 3.91992 0 3.31717 1.20472 3.4668 5.87891 3.4668s4.90039-0.37659 4.90039-4.29688c0-2.63865-1.1301-3.08984-4.44727-3.08984zm-132.83789 0.15039c-4.14644 0-4.90039 0.37619-4.90039 3.69336 0 3.39255 0.60273 3.91992 5.42774 3.91992 4.5234 0 5.12695-0.60276 5.12695-3.91992 0-3.54334-0.82933-3.69336-5.6543-3.69336zm104.86914 0c-4.29724 0-5.05273 0.37619-5.05273 3.69336 0 3.39255 0.60433 3.91992 5.58008 3.91992 4.5234 0 5.125-0.60276 5.125-3.91992 0-3.54334-0.82738-3.69336-5.65235-3.69336zm53.07422 0c-4.29724 0-5.05078 0.37619-5.05078 3.69336 0 3.39255 0.60248 3.91992 5.57812 3.91992 4.52341 0 5.12696-0.60276 5.12696-3.91992 0-3.54334-0.82933-3.69336-5.6543-3.69336zm71.92188 2.11133h49.04296v4.37109h-49.04296zm-292.43946 3.08984h9.5l7.53907 7.76563h-17.03907zm292.43946 5.6543h49.04296v4.37305h-49.04296zm0 8.7461h49.04296v4.37304h-49.04296z"/>
</svg>
