<svg width="568.73633" height="39.580078" version="1.1" viewBox="94 357.6 568.73632 39.580078" xmlns="http://www.w3.org/2000/svg">
 <path d="m109.30488 347.49844h543.26135c16.43505 0 29.92988 13.49483 29.92988 29.92989 0 16.43505-13.49483 29.92988-29.92988 29.92988h-543.26135c-16.43505 0-29.92988-13.49483-29.92988-29.92988 0-16.51045 13.49483-29.92989 29.92988-29.92989z" fill="#4e4e4e" stroke-width=".753901"/>
 <path d="m412.22246 357.67611h49.0425v4.44802h-49.0425" fill="#f00" stroke-width=".412206"/>
 <path d="m412.22246 366.49676h49.0425v4.37262h-49.0425" fill="#fd4120" stroke-width=".412206"/>
 <path d="m412.22246 375.24201h49.0425v4.37263h-49.0425" fill="#fc0" stroke-width=".412206"/>
 <path d="m412.22246 383.98727h49.0425v4.37263h-49.0425" fill="#4dac26" stroke-width=".412206"/>
 <path d="m412.22246 392.73252h49.0425v4.37263h-49.0425" fill="#00a0c6" stroke-width=".412206"/>
 <path d="m113.82812 357.6c-10.5546 0-19.82812 8.82117-19.82812 19.82813 0 11.30851 9.34969 19.75195 19.9043 19.75195 1.88475 0 3.01447-0.225 5.35156-0.82812v-10.25391c-2.33709 1.20624-3.54298 1.50781-5.42774 1.50781-5.88042 0-10.32812-4.90004-10.32812-10.32812 0-5.65426 4.37153-10.47852 10.25195-10.47852 1.96015 0 3.69455 0.52657 5.50391 1.58203v-10.02734c-2.03553-0.52773-3.3922-0.75391-5.42774-0.75391zm444.4375 2.63282c-16.41595 0-20.06467 0.81567-21.88867 4.84765-0.768 1.824-1.00781 4.51149-1.00781 11.85547 0 3.696 0.0974 6.43305 0.19336 7.87305 0.384 3.59998 1.43902 5.47187 3.79102 6.67187 2.63998 1.344 6.6713 1.72852 18.86328 1.72852 7.34399 0 10.89628-0.33719 13.48828-1.20117 3.31198-1.2 4.60937-3.55182 4.60937-8.5918 0-0.48-0.0496-1.19944-0.0976-3.02344h-9.79102c-0.048 4.752-0.19168 4.79883-10.84766 4.79883-10.31996 0-10.46484-0.14275-10.46484-8.30273 0-4.8 0.38511-6.72082 1.53711-7.63282 1.00799-0.816 2.78404-1.00781 8.83203-1.00781 2.20799 0 5.08705 0.0954 6.62305 0.19141 2.112 0.144 2.87967 0.38411 3.26367 0.91211s0.48016 0.96003 0.57617 2.83203h9.74414v-1.58399c0-5.27998-1.05637-7.63145-3.98437-9.02343-2.15999-1.056-5.23146-1.34375-13.43946-1.34375zm39.89844 0.0957c-16.22396 0-18.24023 1.19967-18.24023 10.84765 0 0.144-1e-3 0.86346 0.0469 1.43946h9.40821v-1.10352c0.048-2.496 0.28834-3.26361 1.15234-3.59961 1.056-0.384 3.69644-0.52734 9.64844-0.52734 5.08798 0 6.47975 0.0479 7.34375 0.33594 1.104 0.384 1.43945 1.05603 1.43945 2.83203 0 2.63998-0.47972 2.87854-6.0957 3.31054-3.648 0.288-6.33533 0.529-8.11133 0.625-3.024 0.24-4.65619 0.38365-4.99219 0.43165-5.27998 0.57598-7.53662 1.77542-8.64062 4.60742-0.624 1.584-0.81641 3.93675-0.81641 9.55273 0 1.536 5.3e-4 2.01644 0.14453 3.64844h38.16016v-7.34375h-29.23242v-0.33594c0.048-1.584 0.38398-2.20945 1.58398-2.68945 0.624-0.288 2.49557-0.43092 15.93555-1.29492 5.42398-0.288 8.40097-1.34421 9.79297-3.40821 1.008-1.536 1.39257-3.45717 1.39257-7.20117 0-5.23198-0.76826-7.39039-3.07226-8.73437-2.112-1.248-3.79168-1.39258-16.84766-1.39258zm44.50782 0c-5.76001 0-10.51214 0.19217-12.91211 0.57617-3.79201 0.528-6.19242 2.73541-6.81641 6.19141-0.336 1.82398-0.38477 2.92767-0.38477 9.26367 0 7.24798 0.0488 8.06439 0.38477 9.98437 0.62399 3.456 3.0244 5.66341 6.81641 6.19141 2.35197 0.384 7.1521 0.57617 12.91211 0.57617 5.71198 0 10.51212-0.19217 12.9121-0.57617 3.74399-0.528 6.14357-2.73541 6.76758-6.19141 0.384-1.91998 0.38477-2.44761 0.38477-9.59961 0-7.19998-7.7e-4 -7.72845-0.38477-9.64843-0.62401-3.456-3.02359-5.66341-6.76758-6.19141-2.39998-0.384-7.20012-0.57617-12.9121-0.57617zm-169.32227 0.38476 15.83984 32.01563h14.92774l15.64843-32.01563h-10.65624l-11.51954 23.95118h-1.87304l-11.66407-23.95118zm47.97266 0v32.01563h10.22461v-32.01563zm-201.83008 1.03321v9.42383c-1.35702-1.80936-2.56254-2.78907-7.46289-2.78907-7.84058 0-9.34961 2.1106-9.34961 8.44336 0 6.48356 2.11217 8.36914 9.72656 8.36914 4.82497 0 6.25782-1.20743 7.38867-3.31836v2.94141h5.87891v-23.07031zm-109.76758 6.4082c-4.44802 0-5.6543 1.50783-6.4082 4.14648l0.0762-3.69335h-5.50391v16.20898h5.88086v-8.36914c0-2.48787 1.20627-3.31641 4.52344-3.31641 3.09099 0 3.91992 1.13089 3.91992 4.14649v7.46289h6.03125v-8.59375c0-2.33709 1.80901-3.0918 4.67383-3.0918 2.71405 0 3.91992 0.75471 3.91992 3.0918v8.59375h5.88086v-9.57422c0-4.82497-2.94106-7.01172-8.36914-7.01172-4.67419 0-6.40664 1.73556-7.00977 3.54492-1.20624-2.11092-2.94105-3.54492-7.61523-3.54492zm39.6543 0c-4.29723 0-5.42657 1.50783-6.25586 4.14648v-3.69335h-5.50391v16.20898h5.88086v-8.36914c0-2.48787 1.50706-3.31641 4.44727-3.31641 3.09099 0 3.91992 0.98011 3.91992 4.14649v7.46289h6.03125v-8.59375c0-2.33709 1.734-3.0918 4.52344-3.0918 2.71403 0 4.07226 0.8301 4.07226 3.0918v8.59375h5.87891v-9.57422c0-4.82497-2.93911-7.01172-8.36719-7.01172-4.67419 0-6.25782 1.58478-7.01172 3.54492-1.20625-2.11092-2.94105-3.54492-7.61523-3.54492zm117.91015 0.0762c-3.54333 0-4.82384 0.75471-6.10547 3.46875v-3.09179h-5.65429v16.20898h5.88086v-8.44339c0-2.18631 1.35587-3.31836 3.84375-3.31836 2.48786 0 3.09062 0.75549 3.16601 2.79102h5.50391c0-5.50348-0.75434-7.61524-6.63477-7.61524zm-184.55468 0.22656c-10.17766 0-11.45899 1.58287-11.45899 8.44336 0 7.01129 1.73366 8.44336 11.45899 8.44336 10.32843 0.0754 11.30859-1.65903 11.30859-8.89648 0-6.63432-1.80944-7.99024-11.30859-7.99024zm104.79296 0c-10.17766 0-11.45898 1.73326-11.45898 8.59375 0 6.86051 1.73367 8.36915 11.45898 8.36915 10.32844 0 11.45899-1.73521 11.45899-8.97266 0-6.63432-1.95984-7.99024-11.45899-7.99024zm53.15039 0c-10.10227 0-11.30859 1.58287-11.30859 8.44336 0 7.01129 1.73405 8.44336 11.30859 8.44336 10.32844 0.0754 11.3086-1.65903 11.3086-8.89648 0-6.63432-1.80945-7.99024-11.3086-7.99024zm45.91211 0.0742c-8.82064 0-10.78125 1.58443-10.78125 8.59571 0 6.48355 2.56451 8.1414 9.72657 8.21679 7.99135 0 11.75976-0.37699 11.75976-5.65429h-5.80469c-0.22618 1.28162-0.67814 1.88476-3.16601 1.88476-5.65426 0-6.48438-0.52698-6.48438-3.3164h15.45508c-0.22617-7.84058-0.22586-9.72657-10.70508-9.72657zm-229.03515 0.0762c-9.34836 0-11.45899 1.50864-11.45899 8.36914s1.95984 8.44336 10.70508 8.44336c9.19759 0 11.08203-1.20669 11.08203-7.01172h-5.88086c0 1.58318-0.60159 2.33593-5.125 2.33593-3.92027 0-4.82617-0.97814-4.82617-4.14453 0-3.09098 0.82973-3.09179 5.50391-3.09179 3.46794 0 4.07031 0.37774 4.44726 1.96093h5.88086c-0.52773-5.50347-2.1106-6.86132-10.32812-6.86132zm484.49219 0.0254c5.18398 0 7.87174 0.19187 8.92773 0.67187 1.584 0.72 2.01758 2.35063 2.01758 7.39063 0 4.70398-0.38483 6.48004-1.63281 7.24804-1.10399 0.624-3.50339 0.86524-9.35938 0.86524-9.35997 0-9.69727-0.28788-9.69727-8.25586 0-4.512 0.43282-6.28864 1.63282-7.05664 1.00799-0.624 3.45534-0.86328 8.11133-0.86328zm-522.26368 0.27539v7.76562h9.34961l7.68946-7.76562zm266.58008 3.61914c4.29723 0 4.90156 0.22697 5.20313 2.33789h-9.87696c0.22617-1.73397 0.75355-2.33789 4.67383-2.33789zm-71.16797 0.45312c3.31717 0 4.44727 0.4512 4.44727 3.08985 0 3.92028-0.22621 4.29687-4.90039 4.29687-4.67419 0-5.87891-0.14963-5.87891-3.4668 0-3.76949 1.43169-3.91992 6.33203-3.91992zm-132.83789 0.15039c4.82497 0 5.6543 0.15004 5.6543 3.69336 0 3.31717-0.60355 3.91992-5.12695 3.91992-4.82497 0-5.42774-0.52736-5.42774-3.91992 0-3.31715 0.75394-3.69336 4.90039-3.69336zm104.86914 0c4.82497 0 5.65235 0.15004 5.65235 3.69336 0 3.31717-0.6016 3.91992-5.125 3.91992-4.97575 0-5.58008-0.52736-5.58008-3.91992 0-3.31715 0.7555-3.69336 5.05273-3.69336zm53.07422 0c4.82497 0 5.6543 0.15004 5.6543 3.69336 0 3.31717-0.60355 3.91992-5.12696 3.91992-4.97574 0-5.57812-0.52736-5.57812-3.91992 0-3.31715 0.75355-3.69336 5.05078-3.69336zm-220.51758 5.20117v7.76563h17.03907l-7.53907-7.76563z" fill="#fff" stroke-width=".753901"/>
</svg>
