<?xml version="1.0" encoding="UTF-8" standalone="no"?>
<svg
   viewBox="94 357.6 603.12109 59.859771">
  <g
     transform="matrix(0.75390139,0,0,0.75390139,23.133269,88.004863)">
    <path
       style="fill:#ffffff"
       d="M 29.929688 0 C 13.494637 0 -4.7369516e-14 13.419247 0 29.929688 C 0 46.364728 13.494637 59.859375 29.929688 59.859375 L 573.19141 59.859375 C 589.62646 59.859375 603.12109 46.364728 603.12109 29.929688 C 603.12109 13.494637 589.62646 4.7369516e-14 573.19141 0 L 29.929688 0 z M 34.453125 10.101562 C 36.488659 10.101562 37.845326 10.327738 39.880859 10.855469 L 39.880859 20.882812 C 38.071496 19.827361 36.337097 19.300781 34.376953 19.300781 C 28.496522 19.300781 24.125 24.125036 24.125 29.779297 C 24.125 35.207387 28.572694 40.107422 34.453125 40.107422 C 36.337878 40.107422 37.543765 39.805852 39.880859 38.599609 L 39.880859 48.853516 C 37.543765 49.456637 36.41405 49.681641 34.529297 49.681641 C 23.974677 49.681641 14.625 41.238198 14.625 29.929688 C 14.625 18.922727 23.898506 10.101562 34.453125 10.101562 z M 332.84766 10.177734 L 381.89062 10.177734 L 381.89062 14.625 L 332.84766 14.625 L 332.84766 10.177734 z M 478.89062 12.734375 C 487.09862 12.734375 490.17008 13.022128 492.33008 14.078125 C 495.25808 15.470121 496.31445 17.821571 496.31445 23.101562 L 496.31445 24.685547 L 486.57031 24.685547 C 486.47431 22.813542 486.37814 22.38151 485.99414 21.853516 C 485.61014 21.325513 484.84247 21.085401 482.73047 20.941406 C 481.19447 20.845404 478.31542 20.75 476.10742 20.75 C 470.05942 20.75 468.28339 20.941814 467.27539 21.757812 C 466.12339 22.669815 465.73828 24.590625 465.73828 29.390625 C 465.73828 37.55062 465.88315 37.693359 476.20312 37.693359 C 486.85913 37.693359 487.00276 37.64653 487.05078 32.894531 L 496.8418 32.894531 C 496.88978 34.718535 496.93945 35.437967 496.93945 35.917969 C 496.93945 40.957965 495.64208 43.309766 492.33008 44.509766 C 489.73808 45.373767 486.1858 45.710937 478.8418 45.710938 C 466.64979 45.710938 462.61851 45.326424 459.97852 43.982422 C 457.62652 42.782422 456.5715 40.910547 456.1875 37.310547 C 456.09151 35.87055 455.99414 33.133494 455.99414 29.4375 C 455.99414 22.093498 456.23395 19.406035 457.00195 17.582031 C 458.82596 13.550031 462.47465 12.734375 478.89062 12.734375 z M 518.78906 12.830078 C 531.84507 12.830078 533.52472 12.974655 535.63672 14.222656 C 537.94072 15.566651 538.70898 17.725031 538.70898 22.957031 C 538.70898 26.701034 538.32441 28.622204 537.31641 30.158203 C 535.92441 32.222204 532.94743 33.278408 527.52344 33.566406 C 514.08343 34.430407 512.21189 34.57333 511.58789 34.861328 C 510.38789 35.34133 510.05193 35.966782 510.00391 37.550781 L 510.00391 37.886719 L 539.23633 37.886719 L 539.23633 45.230469 L 501.07617 45.230469 C 500.93218 43.598468 500.93164 43.118037 500.93164 41.582031 C 500.93164 35.966031 501.12404 33.613296 501.74805 32.029297 C 502.85204 29.197296 505.10867 27.997871 510.38867 27.421875 C 510.72467 27.373874 512.35686 27.230231 515.38086 26.990234 C 517.15686 26.894233 519.84419 26.65324 523.49219 26.365234 C 529.10819 25.933234 529.58789 25.694683 529.58789 23.054688 C 529.58789 21.278684 529.25244 20.606656 528.14844 20.222656 C 527.28444 19.934673 525.89269 19.886719 520.80469 19.886719 C 514.85269 19.886719 512.21225 20.030064 511.15625 20.414062 C 510.29225 20.750061 510.05193 21.51767 510.00391 24.013672 L 510.00391 25.117188 L 500.5957 25.117188 C 500.54768 24.541192 500.54883 23.821737 500.54883 23.677734 C 500.54883 14.029735 502.56507 12.830078 518.78906 12.830078 z M 563.29688 12.830078 C 569.00888 12.830078 573.80898 13.02225 576.20898 13.40625 C 579.95298 13.934245 582.35256 16.141659 582.97656 19.597656 C 583.36056 21.517655 583.36133 22.046094 583.36133 29.246094 C 583.36133 36.398092 583.36056 36.925705 582.97656 38.845703 C 582.35256 42.301708 579.95298 44.509107 576.20898 45.037109 C 573.80898 45.421109 569.00888 45.613281 563.29688 45.613281 C 557.53687 45.613281 552.73676 45.421109 550.38477 45.037109 C 546.59276 44.509107 544.19236 42.301708 543.56836 38.845703 C 543.23238 36.925705 543.18359 36.109329 543.18359 28.861328 C 543.18359 22.52533 543.23236 21.42166 543.56836 19.597656 C 544.19236 16.141659 546.59276 13.934245 550.38477 13.40625 C 552.78477 13.02225 557.53687 12.830078 563.29688 12.830078 z M 393.97461 13.214844 L 404.67773 13.214844 L 416.3418 37.166016 L 418.21484 37.166016 L 429.73438 13.214844 L 440.39062 13.214844 L 424.74219 45.230469 L 409.81445 45.230469 L 393.97461 13.214844 z M 441.94727 13.214844 L 452.17188 13.214844 L 452.17188 45.230469 L 441.94727 45.230469 L 441.94727 13.214844 z M 240.11719 14.248047 L 246.29883 14.248047 L 246.29883 37.318359 L 240.41992 37.318359 L 240.41992 34.376953 C 239.28907 36.487877 237.85622 37.695312 233.03125 37.695312 C 225.41685 37.695312 223.30469 35.809724 223.30469 29.326172 C 223.30469 22.9934 224.81372 20.882812 232.6543 20.882812 C 237.55466 20.882812 238.76016 21.862512 240.11719 23.671875 L 240.11719 14.248047 z M 332.84766 18.998047 L 381.89062 18.998047 L 381.89062 23.371094 L 332.84766 23.371094 L 332.84766 18.998047 z M 130.34961 20.65625 C 135.0238 20.65625 136.7586 22.090248 137.96484 24.201172 C 138.56796 22.391809 140.30042 20.65625 144.97461 20.65625 C 150.4027 20.65625 153.34375 22.843 153.34375 27.667969 L 153.34375 37.242188 L 147.46289 37.242188 L 147.46289 28.648438 C 147.46289 26.311343 146.25701 25.556641 143.54297 25.556641 C 140.67814 25.556641 138.86914 26.311343 138.86914 28.648438 L 138.86914 37.242188 L 132.83789 37.242188 L 132.83789 29.779297 C 132.83789 26.763691 132.00896 25.632813 128.91797 25.632812 C 125.6008 25.632812 124.39453 26.461344 124.39453 28.949219 L 124.39453 37.318359 L 118.51367 37.318359 L 118.51367 21.109375 L 124.01758 21.109375 L 123.94141 24.802734 C 124.69531 22.16408 125.90159 20.65625 130.34961 20.65625 z M 170.00391 20.65625 C 174.67809 20.65625 176.4129 22.090248 177.61914 24.201172 C 178.37304 22.241028 179.95667 20.65625 184.63086 20.65625 C 190.05895 20.65625 192.99805 22.843 192.99805 27.667969 L 192.99805 37.242188 L 187.11914 37.242188 L 187.11914 28.648438 C 187.11914 26.386733 185.76082 25.556641 183.04688 25.556641 C 180.25744 25.556641 178.52344 26.311343 178.52344 28.648438 L 178.52344 37.242188 L 172.49219 37.242188 L 172.49219 29.779297 C 172.49219 26.612911 171.66326 25.632813 168.57227 25.632812 C 165.63205 25.632812 164.125 26.461344 164.125 28.949219 L 164.125 37.318359 L 158.24414 37.318359 L 158.24414 21.109375 L 163.74805 21.109375 L 163.74805 24.802734 C 164.57734 22.16408 165.70667 20.65625 170.00391 20.65625 z M 287.91406 20.732422 C 293.79449 20.732422 294.54883 22.844176 294.54883 28.347656 L 289.04492 28.347656 C 288.96953 26.312122 288.36678 25.556641 285.87891 25.556641 C 283.39103 25.556641 282.03516 26.688686 282.03516 28.875 L 282.03516 37.318359 L 276.1543 37.318359 L 276.1543 21.109375 L 281.80859 21.109375 L 281.80859 24.201172 C 283.09023 21.487127 284.37073 20.732422 287.91406 20.732422 z M 103.35938 20.958984 C 112.85843 20.958984 114.66797 22.314887 114.66797 28.949219 C 114.66797 36.186672 113.68772 37.921093 103.35938 37.845703 C 93.633997 37.845703 91.900391 36.413627 91.900391 29.402344 C 91.900391 22.541841 93.181656 20.958984 103.35938 20.958984 z M 208.15234 20.958984 C 217.6515 20.958984 219.61133 22.314887 219.61133 28.949219 C 219.61133 36.186672 218.48079 37.921875 208.15234 37.921875 C 198.42702 37.921875 196.69336 36.413237 196.69336 29.552734 C 196.69336 22.692232 197.97467 20.958984 208.15234 20.958984 z M 261.30273 20.958984 C 270.80189 20.958984 272.61133 22.314887 272.61133 28.949219 C 272.61133 36.186672 271.63118 37.921093 261.30273 37.845703 C 251.72819 37.845703 249.99414 36.413627 249.99414 29.402344 C 249.99414 22.541841 251.20046 20.958984 261.30273 20.958984 z M 307.21484 21.033203 C 317.69407 21.033203 317.69375 22.919191 317.91992 30.759766 L 302.46484 30.759766 C 302.46484 33.549201 303.29496 34.076172 308.94922 34.076172 C 311.43709 34.076172 311.88906 33.473039 312.11523 32.191406 L 317.91992 32.191406 C 317.91992 37.468716 314.15151 37.845703 306.16016 37.845703 C 298.99809 37.770313 296.43359 36.112458 296.43359 29.628906 C 296.43359 22.617623 298.3942 21.033203 307.21484 21.033203 z M 78.179688 21.109375 C 86.397203 21.109375 87.980092 22.467223 88.507812 27.970703 L 82.626953 27.970703 C 82.250002 26.38751 81.647624 26.009766 78.179688 26.009766 C 73.505499 26.009766 72.675781 26.010577 72.675781 29.101562 C 72.675781 32.267948 73.581666 33.246094 77.501953 33.246094 C 82.025361 33.246094 82.626953 32.493349 82.626953 30.910156 L 88.507812 30.910156 C 88.507812 36.715197 86.623378 37.921875 77.425781 37.921875 C 68.680525 37.921875 66.720703 36.339018 66.720703 29.478516 C 66.720703 22.618013 68.83131 21.109375 78.179688 21.109375 z M 562.67188 21.134766 C 558.01588 21.134766 555.56854 21.37405 554.56055 21.998047 C 553.36055 22.766046 552.92773 24.542686 552.92773 29.054688 C 552.92773 37.022686 553.26501 37.310547 562.625 37.310547 C 568.481 37.310547 570.88038 37.069317 571.98438 36.445312 C 573.23238 35.677313 573.61719 33.901271 573.61719 29.197266 C 573.61719 24.157269 573.18361 22.526639 571.59961 21.806641 C 570.54361 21.326639 567.85587 21.134766 562.67188 21.134766 z M 40.408203 21.410156 L 57.447266 21.410156 L 49.757812 29.175781 L 40.408203 29.175781 L 40.408203 21.410156 z M 306.98828 25.029297 C 303.06799 25.029297 302.54062 25.633214 302.31445 27.367188 L 312.19141 27.367188 C 311.88985 25.256264 311.28552 25.029297 306.98828 25.029297 z M 235.82031 25.482422 C 230.91995 25.482422 229.48828 25.632837 229.48828 29.402344 C 229.48828 32.71951 230.693 32.869141 235.36719 32.869141 C 240.04138 32.869141 240.26758 32.492553 240.26758 28.572266 C 240.26758 25.933611 239.13748 25.482422 235.82031 25.482422 z M 102.98242 25.632812 C 98.835984 25.632812 98.082031 26.009006 98.082031 29.326172 C 98.082031 32.718728 98.684757 33.246094 103.50977 33.246094 C 108.03317 33.246094 108.63672 32.643338 108.63672 29.326172 C 108.63672 25.782835 107.80739 25.632812 102.98242 25.632812 z M 207.85156 25.632812 C 203.55432 25.632812 202.79883 26.009006 202.79883 29.326172 C 202.79883 32.718728 203.40316 33.246094 208.37891 33.246094 C 212.90231 33.246094 213.50391 32.643338 213.50391 29.326172 C 213.50391 25.782835 212.67653 25.632812 207.85156 25.632812 z M 260.92578 25.632812 C 256.62854 25.632812 255.875 26.009006 255.875 29.326172 C 255.875 32.718728 256.47748 33.246094 261.45312 33.246094 C 265.97653 33.246094 266.58008 32.643338 266.58008 29.326172 C 266.58008 25.782835 265.75075 25.632812 260.92578 25.632812 z M 332.84766 27.744141 L 381.89062 27.744141 L 381.89062 32.115234 L 332.84766 32.115234 L 332.84766 27.744141 z M 40.408203 30.833984 L 49.908203 30.833984 L 57.447266 38.599609 L 40.408203 38.599609 L 40.408203 30.833984 z M 332.84766 36.488281 L 381.89062 36.488281 L 381.89062 40.861328 L 332.84766 40.861328 L 332.84766 36.488281 z M 332.84766 45.234375 L 381.89062 45.234375 L 381.89062 49.607422 L 332.84766 49.607422 L 332.84766 45.234375 z "
       transform="matrix(1.3264334,0,0,1.3264334,94,357.6)" />
  </g>
</svg>
