<svg version="1.1" viewBox="0 0 566.926 121.783" xmlns="http://www.w3.org/2000/svg"><path d="m0 0v8.2636719h9.9296875v112.1621081h9.9316405v-112.1621081h8.21875v-8.2636719h-28.080078zm253.4668 0.51953125c-5.094 0-9.62891 4.60950435-9.62891 8.93749995v103.0234388c0 5.12299 5.43371 8.5 9.8457 8.5h20.63282v-68.154298h-14.64258v8.341797h4.96875v51.390621h-11.47266v-102.8632775h11.21289v24.0683595h9.86914v-24.4082032c0-4.2689958-4.53139-8.83593755-9.52539-8.83593755h-11.25976zm268.90234 32.15429675c-24.60697 0-44.55078 19.945759-44.55078 44.552734 0 24.606978 19.94181 44.556638 44.55078 44.556638 24.60498 0 44.55859-19.94766 44.55859-44.556638-1e-3 -24.605975-19.95261-44.552734-44.55859-44.552734zm-321.76367 0.582031c-5.437 0-9.39649 4.646645-9.39649 8.181641v70.44922c0 4.55299 5.07152 8.68164 9.35352 8.68164h11.72852c4.57999 0 9.16015-4.729 9.16015-8.5v-70.869141c0-3.175997-4.3246-7.94336-10.05859-7.94336h-10.78711zm-156.560548 0.378907v78.478514c0 4.717 4.467614 8.79102 9.474609 8.79102h11.1875c4.737996 0 9.359375-3.60151 9.359375-8.6875v-78.582034h-9.585937v78.582034h-10.960938v-78.582034h-9.474609zm250.328128 0.050781v86.900393h9.06836v-40.830081h3.42773l10.10547 40.667971h8.90039l-9.41797-41.302736c3.254 0 7.58008-3.894709 7.58008-9.095703v-28.435547c0-4.090996-4.66962-7.904297-9.97461-7.904297h-19.68945zm57.33984 0.191406c-5.39599 0-8.56445 4.446363-8.56445 7.943359v78.644528h9.07422v-41.312496h11.4707v41.312496h9.07422v-78.169918c-1e-3 -5.187995-3.59018-8.417969-9.07617-8.417969h-11.97852zm48.3457 0c-4.49399 0-8.04687 3.894754-8.04687 7.46875v79.119137h9.24414v-41.312496l11.56055 0.039062v-8.457031h-11.56055v-29.230469h14.04297v-7.626953h-15.24024zm-257.96679 0.019531v86.744136h20.71875c4.19499 0 8.90234-2.62072 8.90234-8.26171 0 0 0.046-27.09243 0-30.982426-0.042-3.893996-4.10742-6.357421-4.10742-6.357422 0 0 4.10742-2.657519 4.10742-6.353515v-26.525391c0-5.006995-4.40935-8.263672-8.90234-8.263672h-20.71875zm291.95312 0.001954v29.832031c0 3.843996 10.1543 13.380859 10.1543 13.380859s-10.1543 10.027316-10.1543 13.695313v29.833979h9.58789v-31.212886l5.82031-5.810546 5.82227 5.886718v31.134764h9.01758v-29.904295c0-3.906996-9.58789-13.546875-9.58789-13.546875s9.4707-9.645644 9.4707-13.306641v-29.982421h-9.58594v31.666015l-5.36328 5.355469-5.47851-5.509766v-31.511718h-9.70313zm-340.517576 0.019531v86.894531h9.076176v-40.826172h3.42578l10.10156 40.671872h8.90234l-9.41797-41.308591c3.253 0 7.57813-3.887802 7.57813-9.091797v-28.4375c0-4.091995-4.66662-7.902343-9.97461-7.902343h-19.691406zm107.705076 7.917969h10.50196v69.777342h-10.50196v-69.777342zm102.42969 0.177734h10.86719v28.513672h-10.86719v-28.513672zm-152.15234 0.304687h10.87109v28.513672h-10.87109v-28.513672zm-48.56446 0.019532h10.875v28.515625h-10.875v-28.515625zm249.6211 0.277343h10.86523v27.960938h-10.86523v-27.960938zm140.5957 16.708985h9.58008v31.175781h4.46484v5.033203h-14.12891v-4.949219h4.55469v-26.146484h-4.4707v-5.113281zm23.87695 0.162109h32.07227l2.75586 2.757813v6.578125h-4.54102v-4.546875h-28.66992v10.878906h30.61719l2.59375 2.603515v14.373047l-3.24805 3.248047h-31.33984l-3.24805-3.248047v-29.640625l3.00781-3.003906zm-365.52929 20.322266h10.87109v32.332026h-10.87109v-32.332026zm367.39257 0.132812v10.480469h28.09375v-10.480469h-28.09375z"/></svg>
