<svg version="1.1" viewBox="0 0 566.936 274.332" xmlns="http://www.w3.org/2000/svg"><path d="m335.09961 0.00390625c-1.48258-0.025060339-3.01531 0.083125249-4.58984 0.33203125l-32.90625 5.2226563c-16.78299 2.6659973-34.75484 20.9172212-38.04883 38.6582032l-9.1543 49.242187c-3.295 17.740986 8.76656 31.229446 25.56055 28.564456l11-1.73828 33.60351-25.818363-4.39453-17.412109-2.47851 0.298828-0.79688 4.292968c-0.551 2.976997-2.94295 5.399563-5.75195 5.851563l-17.01563 2.695312c-2.80799 0.449-4.41332-1.349221-3.86133-4.324218l8.57422-46.115235c0.55-2.964997 2.94305-5.392797 5.74805-5.841797l17.01953-2.695312c2.807-0.448 4.41142 1.348503 3.85742 4.3125l-1.09765 5.871094 34.39648-5.462891 1.30664-7.029297c2.987-16.077765-6.63912-28.66204681-20.9707-28.90429675zm-102.95703 16.11914075c-0.96192 0.037659-1.94289 0.133078-2.93946 0.291015l-65.45703 10.384766-13.94726 75.041012-60.275392 9.56446c-5.101995 0.81-10.062548 5.84242-11.060547 11.23242l-22.527344 121.15234c-0.998999 5.394 2.324739 9.11355 7.427734 8.31055l115.007809-18.25195 9.30664-50.02149 4.68165-0.74805c5.15199-0.80899 4.39253-1.73352 3.39453 3.60547l-8.50586 45.75586 41.42383-6.57226 0.25-1.36719c1.05799 0.08 2.47489 0.48969 3.71289 0.30469l31.98046-5.01758c-1.18799 6.37999-9.61462 7.97958-22.47461 10.01758l-14.63671 2.32617-7.84961 42.20117 19.23047-3.04687c47.34495-4.673 65.35767-29.14253 71.13867-58.3125l57.6875-9.15625 9.29492-50.01953 4.69141-0.75c5.14199-0.815 4.38448-1.7473 3.39648 3.5957l-8.50781 45.76953 41.41601-6.57227 0.56641-3.0332c3.126 1.378 6.77949 1.86481 10.64648 1.25781l71.625-11.36133 6.67969-35.95117-4.64258-3.30664c4.023-4.76299 7.15841-10.59238 8.06641-15.48437l1.12891-5.67188c3.57299-21.20698-15.9784-26.837918-24.90039-25.419919l-41.10352 6.521479c-7.27899 1.156-15.29496 6.22923-21.12695 12.94922-5.394-5.34199-13.72051-7.41743-18.5625-6.64843l-45.75977 7.25781 5.12305 11.32226 41.26953-6.53906c5.95099-0.948 9.92758 1.42668 11.01758 6.13867-0.438 1.248-11.01758 57.58008-11.01758 57.58008l-14.79688 2.34961 7.9336-42.64648c0.982-5.341-0.63154-7.068-5.76953-6.25l-28.35743 4.5039-9.30273 50.02149-16.26758 2.58789 10.64649-57.27149-13.39258-15.79492-48.20117 17.42578 22.8457-3.625 0.36914-0.05273-14.52734 78.15625c-3.692 19.85398-24.87894 38.84022-43.66993 41.82422l-19.22851 3.04687 2.91601-15.64062 14.62696-2.31446c12.85898-2.04699 27.33698-14.91601 29.83398-28.375l1.57617-8.46679-38.08984 6.04101c-8.16699 1.298-12.59919-3.66402-10.99219-12.29101l6.83008-36.74219c1.208-6.52899 5.28143-11.94958 10.73242-14.76758l0.08985-0.98047 19.10937-14.70703-11.16211 1.87696c-5.93999 0.93799-16.95318 5.39336-23.95117 14.31835-5.29199-6.31299-14.54777-8.78598-19.75977-7.95898l-41.05468 6.51953 6.68945-35.96289 29.95312-4.75195c15.94399-2.526 33.58571-20.457801 36.72071-37.300784l4.5039-24.232422c2.93906-15.800609-7.29388-28.432071-21.72265-27.867187zm-17.70703 31.457031c2.71599-0.429999 4.1025 1.118425 3.5625 3.982422l-3.77344 20.330078c-0.54 2.874997-2.5965 4.960626-5.3125 5.390625l-20.70703 3.285156 5.52344-29.703125 20.70703-3.285156zm86.33789 3.101563c-1.446-0.058-2.71711 1.063251-2.78711 2.53125a2.66 2.66 0 0 0 2.5332 2.785156c30.35297 1.451998 59.96647 4.52877 88.02344 9.134765 0.147 0.024 0.29055 0.035157 0.43555 0.035157a2.662 2.662 0 0 0 0.43164-5.291016c-28.25698-4.638995-58.07875-7.732314-88.63672-9.195312zm122.9082 4.136718-82.56836 32.957032-23.20312-24.152344 7.39843 33.46875-70.29882 53.583983 82.57031-32.96875 23.19922 24.1543-7.39649-33.45703 70.29883-53.585941zm-273.91992 3.138672c-43.58796 6.847993-80.433668 17.680092-106.556642 31.330078-27.531972 14.388981-42.46373496 31.663001-43.17773425 49.958981-0.87799912 22.22498 18.73197525 43.71446 56.71093725 62.14844 0.374 0.183 0.77211 0.26953 1.16211 0.26953a2.664 2.664 0 0 0 1.164062-5.06054c-35.415964-17.18899-54.4918428-37.48551-53.7148436-57.14649 1.2939987-33.15997 56.9453696-62.372294 145.2382806-76.23828a2.6630924 2.6630924 0 0 0-0.82617-5.261719zm267.57226 7.435547a2.665 2.665 0 0 0-3.1582 2.050781 2.666 2.666 0 0 0 2.05274 3.158203c44.04095 9.338991 80.92518 22.336906 106.66015 37.587888 25.84698 15.31199 39.22999 32.21407 38.70899 48.87305-1.483 47.60595-113.93169 84.64848-256.43555 84.64648-0.736 0-1.48385 5e-5 -2.21484-0.00195h-0.01172a2.656 2.656 0 0 0-2.65821 2.65235 2.657 2.657 0 0 0 2.65039 2.66992c0.746 3e-3 1.48643 0.0039 2.23243 0.0039 69.75593 0 134.67376-8.80209 183.01172-24.83008 49.99395-16.57898 77.96104-39.65863 78.74804-64.9746 0.586-18.71399-13.70143-37.25516-41.3164-53.61914-26.23098-15.542989-63.66958-28.757811-108.26954-38.216802zm-69.24023 6.498047-13.68945 2.175781 10.54101 9.896485c0.898-2.415998 1.52047-3.334503 1.98047-5.8125l1.16797-6.259766zm142.41992 36.939455c5.12999 0.78247 8.39645 7.03099 7.25195 13.16211l-1.86718 9.77343c-1.31 7.009-8.46801 14.45857-14.875 15.47657l-39.49805 6.27148-0.56836 3.54492c-0.75 4.031 1.9261 7.17885 5.62109 6.58985l44.14844-7.0293-2.97461 16.01953-49.80273 7.89649c-8.79599 1.39199-16.1227-5.23958-14.3457-14.85157l5.64843-30.37109c1.791-9.60399 12.11126-19.04145 20.90625-20.43945l38.04883-6.02735c0.8015-0.12762 1.57379-0.1274 2.30664-0.01562zm-343.33203 7.07031-2.90625 15.63477-39.93555 6.34375-6.101559 32.82617 32.539059-5.16016-2.90429 15.62696-32.539066 5.16015-6.109375 32.83789 51.777341-8.21875-3.19531 17.19141-68.042968 10.79492 21.207031-114.12109 56.210937-8.91602zm329.58398 8.70508-7.90429 1.24805-12.60742 2.00586-3.19532 0.5c-3.69499 0.59099-7.75 4.80489-8.5 8.83789l-0.34765 1.89648 30.76953-4.88477c2.429-0.39 4.79601-2.845 5.29101-5.5 0.486-2.65299-1.07486-4.49151-3.50586-4.10351zm-135.94335 7.61914-12.21094 65.65234-16.26563 2.57813 12.19922-65.64649 0.37305-0.06836 15.9043-2.51562zm-187.04102 9.94336-10.45313 56.27344-38.45898 6.10156 1.44727-7.80859 31.0625-4.9375 7.55664-40.64649-31.06055 4.93555 1.44727-7.81446 38.45898-6.10351zm66.78125 9.39062c6.29778 0.19551 9.5155 4.93092 8.10938 12.48829l-9.51563 51.19921-16.27344 2.57227 7.92774-42.63281c0.999-5.344-0.61949-7.07772-5.77149-6.26172l-28.35547 4.5039-9.29297 50.02149-16.27539 2.58594 12.20118-65.65235 0.3789-0.0625 53.98438-8.5625c1.02087-0.16237 1.98313-0.22715 2.88281-0.19922zm72.98047 3.33985-29.83399 4.72461c-5.15399 0.817-7.53053 3.17339-8.51953 8.52539l-3.64453 19.60547c-0.998 5.35399 0.61949 7.07867 5.77149 6.26367l29.83203-4.73242 6.39453-34.38672zm-15.64063 14.62109-1.45703 7.80859-4.68359 0.74805c-5.031 0.798-7.24497 2.1447-6.41797-2.77929 1.008-4.961 2.84596-4.24007 7.87695-5.03907l4.68164-0.73828z"/></svg>
