<svg height="121.783" width="566.926" xmlns="http://www.w3.org/2000/svg"><g fill="#fff"><path d="M0 0h28.081v8.264h-8.219v112.161H9.929V8.264H0zm53.519 112.216H64.48V33.634h9.587v78.582c0 5.086-4.622 8.688-9.36 8.688H53.519c-5.007 0-9.474-4.074-9.474-8.791V33.634h9.474zm206.155-59.389h14.642v68.154h-20.632c-4.412 0-9.846-3.377-9.846-8.5V9.457c0-4.328 4.535-8.937 9.629-8.937h11.259c4.994 0 9.525 4.567 9.525 8.836v24.407h-9.868V9.696H253.17v102.862h11.472v-51.39h-4.968zm141.581 26.326v41.311h-9.244V41.345c0-3.574 3.553-7.468 8.047-7.468h15.24v7.626h-14.043v29.232h11.561v8.457zm32.79-45.254h9.703v31.512l5.479 5.509 5.363-5.356V33.899h9.586v29.982c0 3.661-9.47 13.306-9.47 13.306s9.586 9.64 9.586 13.547v29.904h-9.017V89.504l-5.822-5.887-5.821 5.81v31.213h-9.587V90.806c0-3.668 10.155-13.695 10.155-13.695s-10.155-9.537-10.155-13.381zm-318.429 45.45c3.253 0 7.578-3.888 7.578-9.092V41.82c0-4.092-4.667-7.902-9.975-7.902H93.528v86.894h9.076V79.987h3.425l10.101 40.671h8.904zm-1.796-8.496h-10.874V42.337h10.874zm202.637 8.269c3.254 0 7.581-3.895 7.581-9.096V41.59c0-4.091-4.67-7.905-9.975-7.905h-19.69v86.9h9.069v-40.83h3.428l10.104 40.669h8.901zm-1.928-8.594h-10.867V42.014h10.867zM171.712 81.397c-.042-3.894-4.107-6.357-4.107-6.357s4.107-2.658 4.107-6.354V42.16c0-5.007-4.408-8.264-8.901-8.264h-20.719v86.744h20.719c4.195 0 8.901-2.621 8.901-8.262 0 0 .046-27.091 0-30.981zm-9.331 30.743H151.51V79.808h10.871zm0-41.308H151.51V42.318h10.871zm49.011-37.577h-10.787c-5.437 0-9.396 4.648-9.396 8.183v70.448c0 4.553 5.072 8.682 9.354 8.682h11.728c4.58 0 9.16-4.729 9.16-8.5V41.199c0-3.176-4.325-7.944-10.059-7.944zm.342 78.359h-10.502V41.836h10.502zm151.957-77.738h-11.979c-5.396 0-8.563 4.447-8.563 7.944v78.644h9.074V79.153h11.47v41.311h9.075V42.295c-.001-5.188-3.591-8.419-9.077-8.419zm-.259 36.7h-10.866v-27.96h10.866zm155.47 9.366h28.094v10.479h-28.094z"/><path d="M522.37 32.673c-24.607 0-44.551 19.946-44.551 44.553s19.942 44.558 44.551 44.558c24.605 0 44.557-19.949 44.557-44.558-.001-24.606-19.951-44.553-44.557-44.553zm-15.163 62.86h-14.128v-4.949h4.554V64.438h-4.47v-5.113h9.58V90.5h4.464zm44.66-26.71h-4.541v-4.547h-28.67v10.879h30.617l2.594 2.602v14.374l-3.247 3.247h-31.341l-3.248-3.247v-29.64l3.008-3.005h32.072l2.756 2.759z"/></g></svg>