<svg enable-background="new 0 0 3840 693.7" version="1.1" viewBox="0 0 3840 693.7" xml:space="preserve" xmlns="http://www.w3.org/2000/svg">
<path transform="rotate(90)" d="m0.037109375-871.84375c-0.590426045 102.62543 64.50910062 227.54415 180.6621106 233.74414 59.79994 3.1 179.49995-54.70093 128-202.80078l-120-62.09961c-3.4-1.8-4.69922 1-2.19922 4 97.8999 118.19988 9.00033 197.1996-49.09961 185.59961-63.499936-12.79999-95.10001-63.00044-105.499999-109.40039l62.40039-48.5-21.300781-43.69922-72.69921875 33.30078c-0.15624984 3.25937-0.244625874 6.54497-0.263671875 9.85547zm2.462890625 592.24414 179.69922 37.69922-177.0996106 158.599609 83.8007816 74.2011716 2.099609-22.7011716 17.90039-16.09961 227.90039 47.900391-44.5-87.800781-37.60156 41.201172-119.29883-25 189.5-169.701171-245.90039-51.5-33.800781-59.59961-42.699219 72.80078zm0-2184.09959c0 121.8999 98.79973 220.5996 220.59961 220.5996 119.79988 0 217.2-95.5001 220.5-214.5l239 106.6992v-149.4004l-372.19922-166.0996c-26.79997-11.6-56.30042-18-87.40039-18-121.69988 0-220.5 98.8013-220.5 220.7012zm0-458.4004c0 115.9999 94.000116 210 210 210 44.39996 0 85.60003-13.8004 119.5-37.4004 37.79996 30.6 86.00044 49 138.40039 49 121.49988 0 220-98.5001 220-220s-98.50012-220-220-220c-51.39995 0-98.70121 17.7008-136.20117 47.3008-34.29997-24.5-76.29927-38.9004-121.69922-38.9004-115.999884 0-210 94.0001-210 210zm0-486c0 129.5999 116.00023 234.6992 344 234.6992s344-105.0997 344-234.5996-116.00023-234.6992-344-234.6992-344 104.9997-344 234.5996zm0-295.5h680.19922v-136.4004h-680.19922v136.4004zm0.4003906 1762.6992c0 183.5998 154.6005794 332.4004 345.4003894 332.4004s345.39844-148.8006 345.39844-332.4004c0-25.7-3.09844-50.6992-8.89844-74.6992h-167c11.59999 22.7 18.09961 47.9992 18.09961 74.6992 0 96.2999-84.1001 174.5996-187.5 174.5996s-187.5-78.2997-187.5-174.5996c0-26.7 6.49962-51.9992 18.09961-74.6992h-167.199219c-5.6999941 24-8.9003904 48.9992-8.9003904 74.6992zm9.5996094 1584.09962c0 2.3 3.100391 2.80117 3.900391 0.70117 7.299992-20.59998 18.398838-36.40078 28.298828-34.30078l94.000001 19.70117c11.49999 2.4 16.50156 21.89846 18.60156 39.89844 0.3 2.9 4.5 2.90156 5 0.10156 3.7-23.09998 8.5-31.40156 11.5-32.60156l103.19922 21.60156c16.49998 3.5 20.50079 27.19885 27.80078 47.79883 0.8 2.1 3.89844 1.60078 3.89844-0.69922v-40.40039-24.19922-73.5-99.30078-44.69922-1l-94.59961-19.80078c-3.1-0.7-4.79961 3.49922-2.09961 5.19922 26.29997 16.39998 77.59961 53.10082 77.59961 89.80078v65.69922l-122.59961-25.69922v-16.59961-0.09961c0-25.69997 39.60041-43.70118 54.90039-49.70117 1.7-0.7 1.49922-3.1-0.30078-3.5l-124.699219-26.19922c-1.899998-0.4-2.999999 1.99922-1.5 3.19922 15.399989 11.99999 52.499999 43.9012 52.499999 73.20117v15.59961l-116.099609-24.30078v-68.69922c0-35.59996 38.000047-47.20118 84.999999-51.70117 3.8-0.4 4.19843-5.79961 0.39844-6.59961l-104.500001-21.90039v23.10156h-0.199219v217.39844 2.10156 40.39844zm15.400391-801.69922h654.798829v-157.9004h-518.39844v-66.7988c0-95.3999 143.09961-95.3999 143.09961 0v35.6992h136.40039v-35.6992-7.8008h-0.20117c-7.59999-266.8997-407.900008-266.8997-415.500001 0h-0.199218v7.8008 66.7988 133 24.9004zm111.099609-1305.1992c0-46.5 37.69927-84.2012 84.19922-84.2012s84.20117 37.7012 84.20117 84.2012c0 46.4999-37.70122 84.1992-84.20117 84.1992s-84.19922-37.6993-84.19922-84.1992zm0-458.4004c0-40.6 32.99965-73.5996 73.59961-73.5996s73.59961 32.9996 73.59961 73.5996-32.99965 73.5996-73.59961 73.5996-73.59961-33.0996-73.59961-73.5996zm0-486c0-15.5 3.49964-35.8012 31.09961-56.2012 21.29998-15.7 72.40049-42 176.40039-42s155.20041 26.3 176.40039 42c27.59997 20.4 31.09961 40.7012 31.09961 56.2012s-3.49964 35.7992-31.09961 56.1992c-21.29998 15.7-72.40049 42-176.40039 42s-155.20041-26.3-176.40039-42c-27.59997-20.4-31.09961-40.6992-31.09961-56.1992zm159.34375 1402.4844h113.20117v-207.5h-113.20117v207.5zm88.55664-914.8848c0-46.1 37.49966-83.5996 83.59961-83.5996s83.59961 37.4996 83.59961 83.5996-37.49966 83.5996-83.59961 83.5996-83.59961-37.4996-83.59961-83.5996zm73.78906 2681.29297h116.5v-43h-116.5v43zm0.00977-372.89258h43v-138.20117c0-12.99999 15.7004-19.49882 24.90039-10.29883l112.90039 113c5.89999 5.89999 9.19922 13.89923 9.19922 22.19922v13.30078h43v-31.09961c0-8.29999-3.29923-16.30118-9.19922-22.20117l-66-66c19.29998-18.49998 44.79925-33.79884 75.19922-42.79883v-54.70117c-45.69996 11.69999-82.99964 34.90003-109.59961 63l-34.40039-34.40039c-32.79997-32.79997-89-9.59917-89 36.80078v151.40039zm0.0332 249.98633h154.09961v-43h-154.09961v43zm0.06836-481.28711a19.799999 19.799999 0 0 0 19.79883 19.80078 19.799999 19.799999 0 0 0 19.80078-19.80078 19.799999 19.799999 0 0 0-19.80078-19.79883 19.799999 19.799999 0 0 0-19.79883 19.79883zm0-51.69922a19.799999 19.799999 0 0 0 19.79883 19.79883 19.799999 19.799999 0 0 0 19.80078-19.79883 19.799999 19.799999 0 0 0-19.80078-19.80078 19.799999 19.799999 0 0 0-19.79883 19.80078zm3.4707 895.1171881h43v-110.3007781h-43v110.3007781zm9.53907-161.8398481h141.08984v0.02149c15.39999 0 30.79883 10.2008 30.79883 30.80078h43c0-49.19561-36.89236-73.79644-73.78906-73.80078v-0.02149h-141.09961v43zm62.98047 161.8203169h43v-110.3007769h-43v110.3007769zm18.95117-432.6249969h43v-189.59961h-43v189.59961zm59.1582 70.52734c15.39999 0 30.79883 10.19885 30.79883 30.79883h43c0-49.19995-36.89887-73.79883-73.79883-73.79883v43z"/>
</svg>
