<svg enable-background="new 0 0 3840 693.7" version="1.1" viewBox="0 0 3840 693.7" xml:space="preserve" xmlns="http://www.w3.org/2000/svg">
<path d="m2463.6992 2.5c-121.8998 0-220.5996 98.79983-220.5996 220.59961 0 119.79978 95.5002 217.2 214.5 220.5l-106.6992 239h149.4004l166.0996-372.19922c11.6-26.79997 18-56.30042 18-87.40039 0-121.69978-98.8014-220.5-220.7012-220.5zm458.4004 0c-115.9998 0-210 94.000216-210 210 0 44.39996 13.8004 85.60003 37.4004 119.5-30.6 37.79996-49 86.00044-49 138.40039 0 121.49978 98.5002 220 220 220s220-98.50022 220-220c0-51.39995-17.7008-98.70121-47.3008-136.20117 24.5-34.29987 38.9004-76.29927 38.9004-121.69922 0-115.999784-94.0002-210-210-210zm486 0c-129.5998 0-234.6992 116.00043-234.6992 344s105.0998 344 234.5996 344 234.6992-116.00043 234.6992-344-104.9998-344-234.5996-344zm295.5 0v680.19922h136.4004v-680.19922h-136.4004zm-1762.6992 0.4003906c-183.5996 0-332.4004 154.6007794-332.4004 345.4003894s148.8008 345.39844 332.4004 345.39844c25.7 0 50.6992-3.09844 74.6992-8.89844v-167c-22.7 11.59999-47.9992 18.09961-74.6992 18.09961-96.2998 0-174.5996-84.1002-174.5996-187.5s78.2998-187.5 174.5996-187.5c26.7 0 51.9992 6.49962 74.6992 18.09961v-167.199219c-24-5.6999941-48.9992-8.9003904-74.6992-8.9003904zm-782.4004 25.0000004v654.798829h157.9004v-518.39844h66.7988c95.3998 0 95.3998 143.09961 0 143.09961h-35.6992v136.40039h35.6992 7.8008v-0.20117c266.8994-7.59999 266.8994-407.900008 0-415.500001v-0.199218h-7.8008-66.7988-133-24.9004zm1305.1992 111.099609c46.5 0 84.2012 37.69937 84.2012 84.19922 0 46.49995-37.7012 84.20117-84.2012 84.20117-46.4998 0-84.1992-37.70122-84.1992-84.20117 0-46.49985 37.6994-84.19922 84.1992-84.19922zm458.4004 0c40.6 0 73.5996 32.99965 73.5996 73.59961s-32.9996 73.59961-73.5996 73.59961-73.5996-32.99965-73.5996-73.59961 33.0997-73.59961 73.5996-73.59961zm486 0c15.5 0 35.8012 3.49964 56.2012 31.09961 15.7 21.29998 42 72.40059 42 176.40039s-26.3 155.20041-42 176.40039c-20.4 27.59997-40.7012 31.09961-56.2012 31.09961s-35.7992-3.49964-56.1992-31.09961c-15.7-21.29998-42-72.40059-42-176.40039s26.3-155.20041 42-176.40039c20.4-27.59997 40.6992-31.09961 56.1992-31.09961zm-1402.4844 159.34375v113.20117h207.5v-113.20117h-207.5zm914.8848 88.55664c46.0999 0 83.5996 37.49966 83.5996 83.59961s-37.4997 83.59961-83.5996 83.59961c-46.1 0-83.5996-37.49966-83.5996-83.59961s37.4996-83.59961 83.5996-83.59961zm-2681.29297 73.78906v116.5h43v-116.5h-43zm372.89258 0.00977v43h138.20117c12.99997 0 19.4988 15.70042 10.29883 24.90039l-113 112.90039c-5.89997 5.89997-13.89925 9.19922-22.19922 9.19922h-13.30078v43h31.09961c8.29997 0 16.3012-3.29925 22.20117-9.19922l66-66c18.49994 19.29994 33.79886 44.79931 42.79883 75.19922h54.70117c-11.69997-45.69988-34.90009-82.9997-63-109.59961l34.40039-34.40039c32.79991-32.7999 9.59907-89-36.80078-89h-151.40039zm-249.98633 0.0332v154.09961h43v-154.09961h-43zm481.28711 0.06836a19.799999 19.799999 0 0 0-19.80078 19.79883 19.799999 19.799999 0 0 0 19.80078 19.80078 19.799999 19.799999 0 0 0 19.79883-19.80078 19.799999 19.799999 0 0 0-19.79883-19.79883zm51.69922 0a19.799999 19.799999 0 0 0-19.79883 19.79883 19.799999 19.799999 0 0 0 19.79883 19.80078 19.799999 19.799999 0 0 0 19.80078-19.80078 19.799999 19.799999 0 0 0-19.80078-19.79883zm-895.1171881 3.4707v43h110.3007781v-43h-110.3007781zm161.8398481 9.53907v141.08984h-0.02149c0 15.39997-10.20084 30.79883-30.80078 30.79883v43c49.19551 0 73.79644-36.89244 73.80078-73.78906h0.02149v-141.09961h-43zm-161.8203169 62.98047v43h110.3007769v-43h-110.3007769zm432.6249969 18.95117v43h189.59961v-43h-189.59961zm-70.52734 59.1582c0 15.39997-10.19889 30.79883-30.79883 30.79883v43c49.19985 0 73.79883-36.89895 73.79883-73.79883h-43z"/><path fill="#C30207" d="m871.84375 0.03710937c-102.62543-0.59042604-227.54415 64.50910063-233.74414 180.6621106-3.1 59.79994 54.70093 179.49995 202.80078 128l62.09961-120c1.8-3.4-1-4.69922-4-2.19922-118.19988 97.8999-197.1996 9.00033-185.59961-49.09961 12.79999-63.499936 63.00044-95.10001 109.40039-105.499999l48.5 62.40039 43.69922-21.300781-33.30078-72.69921875c-3.25937-0.15624984-6.54497-0.24462587-9.85547-0.26367188zm-592.24414 2.46289063-37.69922 179.69922-158.599609-177.0996106-74.2011716 83.8007816 22.7011716 2.099609 16.09961 17.90039-47.900391 227.90039 87.800781-44.5-41.201172-37.60156 25-119.29883 169.701171 189.5 51.5-245.90039 59.59961-33.800781zm77.20117 10c-2.3 0-2.80117 3.100391-0.70117 3.900391 20.59998 7.299992 36.40078 18.398838 34.30078 28.298828l-19.70117 94.000001c-2.4 11.49999-21.89846 16.50156-39.89844 18.60156-2.9 0.3-2.90156 4.5-0.10156 5 23.09998 3.7 31.40156 8.5 32.60156 11.5l-21.60156 103.19922c-3.5 16.49998-27.19885 20.50079-47.79883 27.80078-2.1 0.8-1.60078 3.89844 0.69922 3.89844h283.09961l19.80078-94.59961c0.7-3.1-3.49922-4.79961-5.19922-2.09961-16.39998 26.29997-53.10082 77.59961-89.80078 77.59961h-65.69922l25.69922-122.59961h16.69921c25.69997 0 43.70118 39.60041 49.70117 54.90039 0.7 1.7 3.1 1.49922 3.5-0.30078l26.19923-124.699219c0.4-1.899998-1.99922-2.999999-3.19922-1.5-11.99999 15.399989-43.9012 52.499999-73.20117 52.499999h-15.59961l24.30078-116.099609h68.69922c35.59996 0 47.20118 38.000047 51.70117 84.999999 0.4 3.8 5.79961 4.19843 6.59961 0.39844l21.90039-104.500001h-23.10156v-0.199219h-219.5z"/>
</svg>
