<?xml version="1.0" encoding="utf-8"?>
<!-- Generator: Adobe Illustrator 25.0.0, SVG Export Plug-In . SVG Version: 6.00 Build 0)  -->
<svg version="1.1" id="Layer_1" xmlns="http://www.w3.org/2000/svg" xmlns:xlink="http://www.w3.org/1999/xlink" x="0px" y="0px"
	 viewBox="0 0 3840 693.7" style="enable-background:new 0 0 3840 693.7;" xml:space="preserve">
<style type="text/css">
	.st0{fill:#C30207;}
	.st1{fill:#FFFFFF;}
</style>
<g>
	<g>
		<rect x="33.7" y="430.6" transform="matrix(-1.836970e-16 1 -1 -1.836970e-16 540.8827 430.5714)" width="43" height="110.3"/>
		<rect x="33.7" y="503.1" transform="matrix(-1.836970e-16 1 -1 -1.836970e-16 613.4022 503.0908)" width="43" height="110.3"/>
		<rect x="505.9" y="482.4" transform="matrix(-1.836970e-16 1 -1 -1.836970e-16 1104.6271 49.8424)" width="43" height="189.6"/>
		<rect x="161.8" y="473.7" transform="matrix(-1 -1.224647e-16 1.224647e-16 -1 366.623 1088.6096)" width="43" height="141.1"/>
		<path d="M204.8,614.9c0,36.9-24.6,73.8-73.8,73.8c0-14.3,0-28.6,0-43c20.6,0,30.8-15.4,30.8-30.8"/>
		<rect x="362.2" y="460.8" transform="matrix(-1 -1.224647e-16 1.224647e-16 -1 767.3127 1075.6318)" width="43" height="154.1"/>
		<path d="M405.1,614.9c0,36.9-24.6,73.8-73.8,73.8c0-14.3,0-28.6,0-43c20.6,0,30.8-15.4,30.8-30.8"/>
		<rect x="239.2" y="460.8" transform="matrix(-1 -1.224647e-16 1.224647e-16 -1 521.4078 1037.9897)" width="43" height="116.5"/>
		<g>
			<path d="M765.9,584.1l34.4-34.4c32.8-32.8,9.6-89-36.8-89H612.1v43h138.2c13,0,19.5,15.7,10.3,24.9l-113,112.9
				c-5.9,5.9-13.9,9.2-22.2,9.2h-13.3v43h31.1c8.3,0,16.3-3.3,22.2-9.2l66-66c18.5,19.3,33.8,44.8,42.8,75.2h54.7
				C817.2,648,794,610.7,765.9,584.1z"/>
			<circle cx="843.4" cy="480.6" r="19.8"/>
			<circle cx="895.1" cy="480.6" r="19.8"/>
		</g>
	</g>
	<g>
		<polygon points="292.8,79 352.4,45.2 279.6,2.5 241.9,182.2 83.3,5.1 9.1,88.9 31.8,91 47.9,108.9 0,336.8 87.8,292.3 46.6,254.7 
			71.6,135.4 241.3,324.9 		"/>
		<path d="M616.7,12.5H399.3h-2.1l-40.4,0c-2.3,0-2.8,3.1-0.7,3.9c20.6,7.3,36.4,18.4,34.3,28.3l-19.7,94
			c-2.4,11.5-21.9,16.5-39.9,18.6c-2.9,0.3-2.9,4.5-0.1,5c23.1,3.7,31.4,8.5,32.6,11.5L341.7,277c-3.5,16.5-27.2,20.5-47.8,27.8
			c-2.1,0.8-1.6,3.9,0.7,3.9l40.4,0h24.2h73.5H532h44.7h1l19.8-94.6c0.7-3.1-3.5-4.8-5.2-2.1c-16.4,26.3-53.1,77.6-89.8,77.6h-65.7
			l25.7-122.6h16.6h0.1c25.7,0,43.7,39.6,49.7,54.9c0.7,1.7,3.1,1.5,3.5-0.3l26.2-124.7c0.4-1.9-2-3-3.2-1.5
			c-12,15.4-43.9,52.5-73.2,52.5h-15.6l24.3-116.1h68.7c35.6,0,47.2,38,51.7,85c0.4,3.8,5.8,4.2,6.6,0.4l21.9-104.5H616.7z"/>
		<path d="M840.9,308.7l62.1-120c1.8-3.4-1-4.7-4-2.2c-118.2,97.9-197.2,9-185.6-49.1c12.8-63.5,63-95.1,109.4-105.5l48.5,62.4
			L915,73L881.7,0.3C777.4-4.7,644.5,60.8,638.1,180.7C635,240.5,692.8,360.2,840.9,308.7z"/>
	</g>
	<g>
		
			<rect x="2052.7" y="251.2" transform="matrix(-1.836970e-16 1 -1 -1.836970e-16 2464.3145 -1754.3555)" width="113.2" height="207.5"/>
		<path d="M1391,28.1v-0.2h-7.8c0,0,0,0,0,0l0,0h-66.8h-133h-24.9l0,654.8h157.9l0-518.4h66.8c95.4,0,95.4,143.1,0,143.1h-35.7
			v136.4h35.7l0,0c0,0,0,0,0,0h7.8v-0.2C1657.9,436,1657.9,35.7,1391,28.1z"/>
		<path d="M2015.6,517.8c-22.7,11.6-48,18.1-74.7,18.1c-96.3,0-174.6-84.1-174.6-187.5s78.3-187.5,174.6-187.5
			c26.7,0,52,6.5,74.7,18.1V11.8c-24-5.7-49-8.9-74.7-8.9c-183.6,0-332.4,154.6-332.4,345.4s148.8,345.4,332.4,345.4
			c25.7,0,50.7-3.1,74.7-8.9V517.8z"/>
		<path d="M2463.7,2.5c-121.9,0-220.6,98.8-220.6,220.6c0,119.8,95.5,217.2,214.5,220.5l-106.7,239h149.4l166.1-372.2
			c11.6-26.8,18-56.3,18-87.4C2684.4,101.3,2585.6,2.5,2463.7,2.5z M2463.7,307.4c-46.5,0-84.2-37.7-84.2-84.2s37.7-84.2,84.2-84.2
			c46.5,0,84.2,37.7,84.2,84.2S2510.2,307.4,2463.7,307.4z"/>
		<rect x="3703.6" y="2.5" width="136.4" height="680.2"/>
		<path d="M3093.2,334.2c24.5-34.3,38.9-76.3,38.9-121.7c0-116-94-210-210-210c-116,0-210,94-210,210c0,44.4,13.8,85.6,37.4,119.5
			c-30.6,37.8-49,86-49,138.4c0,121.5,98.5,220,220,220s220-98.5,220-220C3140.5,419,3122.8,371.7,3093.2,334.2z M2922.1,139
			c40.6,0,73.6,33,73.6,73.6s-33,73.6-73.6,73.6c-40.6,0-73.6-33-73.6-73.6S2881.6,139,2922.1,139z M2920.5,554.1
			c-46.1,0-83.6-37.5-83.6-83.6c0-46.1,37.5-83.6,83.6-83.6s83.6,37.5,83.6,83.6C3004.1,516.6,2966.6,554.1,2920.5,554.1z"/>
		<path d="M3408.1,2.5c-129.6,0-234.7,116-234.7,344c0,228,105.1,344,234.6,344s234.7-116,234.7-344
			C3642.7,118.5,3537.7,2.5,3408.1,2.5z M3464.3,522.9c-20.4,27.6-40.7,31.1-56.2,31.1c-15.5,0-35.8-3.5-56.2-31.1
			c-15.7-21.3-42-72.4-42-176.4s26.3-155.2,42-176.4c20.4-27.6,40.7-31.1,56.2-31.1s35.8,3.5,56.2,31.1c15.7,21.3,42,72.4,42,176.4
			S3480,501.7,3464.3,522.9z"/>
	</g>
</g>
</svg>
