<svg enable-background="new 0 0 3839 727.8" version="1.1" viewBox="0 0 3839 727.8" xml:space="preserve" xmlns="http://www.w3.org/2000/svg">
<path d="m1392.3008 0-79.1016 437.19922v9.10156c0 24.59998 19.4008 44.09961 42.8008 44.09961h81.6992c27.3 0 49.3-19.49963 54.5-44.09961l81.7012-446.30078h-58.4004l-76.5 419c-2.6 9.09999-10.4008 16.90039-20.8008 16.90039h-31.0996c-7.8 0-14.2988-6.49962-14.2988-15.59961l76.5996-420.30078h-57.0996zm217.8984 0-89.5 490.40039 59.7012-1.40039 40.1992-219.19922h76.5c27.3 0 49.3012-18.20159 53.2012-44.10156l31.0996-173.798829c1.3-2.599998 1.2988-5.200784 1.2988-7.800782 0-24.599975-19.4996-44.099609-44.0996-44.099609h-128.4004zm208.9004 0-89.5 490.40039h133.5996l9.1016-54.5h-72.7012l31.2012-170h72.5996l10.4004-55.70117h-72.6016l27.2012-154.398439h74l9-55.800781h-132.3008zm472.2012 0-89.5 490.40039h61c44.0999-250.29975 50.5992-307.40084 53.1992-365.80078 0 49.29995 1.3004 103.70104 25.9004 365.80078h59.6992l89.5-490.40039h-59.6992c-45.4 251.69975-51.9012 323.00044-53.2012 374.90039-1.3-49.29995-1.2992-112.80065-27.1992-374.90039h-59.6992zm241.2988 0-88.1992 490.40039h58.4004l89.5-490.40039h-59.7012zm105.0996 0-89.5 490.40039h61c44.1-250.29975 50.6012-307.40084 53.2012-365.80078 0 49.29995 1.3004 103.70104 25.9004 365.80078h59.6992l89.5-490.40039h-59.6992c-45.4 251.69975-51.9012 323.00044-53.2012 374.90039-1.3-49.29995-1.2992-112.80065-27.1992-374.90039h-59.7012zm219.2012 0-10.3008 55.800781h42.8008l-80.5 434.599609h59.6992l79.2012-434.599609h40.1992l11.5996-55.800781h-142.6992zm167.4004 0-89.5 490.40039h133.5996l9.0996-54.5h-72.6992l31.1992-170h72.5996l10.4004-55.70117h-72.5996l27.1992-154.398439h73.9004l9.0996-55.800781h-132.2988zm172.5 0-89.5 490.40039h61c44.0999-250.29975 50.5992-307.40084 53.1992-365.80078 0 49.29995 1.3004 103.70104 25.9004 365.80078h59.6992l89.5-490.40039h-59.6992c-45.4 251.69975-51.9012 323.00044-53.2012 374.90039-1.3-49.29995-1.2992-112.80065-27.1992-374.90039h-59.6992zm241.2988 0-89.5996 490.40039h141.4004c27.3 0 49.2992-19.49963 53.1992-44.09961l71.4004-394.400389c1.3-2.599998 1.3008-5.200784 1.3008-7.800782 0-24.599975-19.5016-44.099609-44.1016-44.099609h-133.5996zm269.9004 0c-26 4.7369468e-15 -47.9992 19.499634-53.1992 44.099609l-70.1016 393.099611v9.10156c0 24.59998 18.2008 44.09961 42.8008 44.09961h81.6992c27.3 0 49.3-19.49963 54.5-44.09961l70.1016-394.400389v-7.800782c0-24.599975-19.4008-44.099609-42.8008-44.099609h-83zm-1722.9004 1.1992188-88.1992 490.4003912h59.6992l38.9004-216.59961h46.6992c7.8 0 14.3008 6.49962 14.3008 15.59961l-35 201h59.6992l35-193.29883v-7.80078c2.5-18.09998-5.1996-33.69923-22.0996-40.19922 19.4-6.49999 33.6996-20.70002 37.5996-41.5l27.2012-154.400389c1.3-3.899996 1.2988-6.499612 1.2988-9.09961 0-24.599975-19.4996-44.1015622-44.0996-44.1015622h-131zm-765.2988 0.1015624c-26 1e-7 -48.0012 18.1996358-53.2012 44.0996098l-14.2988 84.298829c-3.9 24.69997-2.6 37.7012 13 66.20117 11.7 22.09998 50.5992 96.00041 59.6992 112.90039 11.7 20.69998 14.2992 28.50001 11.6992 41.5l-13 68.79883c-2.6 9.09999-11.6996 16.90039-22.0996 16.90039h-31.0996c-7.8 0-14.3008-6.50079-14.3008-14.30078v-1.29883l18.2012-105.09961h-57.0996l-22.1016 124.5v7.79883c0 24.59997 18.2008 44.09961 42.8008 44.09961h81.6992c27.3 0 49.3-19.49964 54.5-44.09961l16.9004-94.69922c5.2-22.09998 0-42.80079-6.5-55.80078-5.2-12.99999-51.9-90.79924-61-107.69922-12.9-21.99998-18.0988-35.00081-14.2988-62.30078l10.3984-54.500001c2.6-9.099991 10.4008-16.90039 20.8008-16.90039h31.0996c7.8 0 14.3008 6.500789 14.3008 14.300781v2.599609l-18.2012 101.201171h57.1016l20.7988-120.601561v-7.798828c0-24.599976-20.6996-44.0996098-44.0996-44.0996098h-81.6992zm-775.57619 0.0683594c-8.73981 0.1490477-17.81212 0.8062512-27.22461 2.03125-150.59985 19.5999804-153.59961 182.9999994-153.59961 182.9999994s191.2004-10.90018 204.90039 197.59961c0 0.3 216.99917-11.70063 168.19922-248.90039-4.96875-23.90623-61.17823-135.9661849-192.27539-133.7304694zm3041.97459 53.0312504h53.2012c7.8 0 14.2988 6.498836 14.2988 14.298828v2.601562l-63.5996 347.699219c-2.6 9.09999-10.3988 16.90039-20.7988 16.90039v-1.40039h-51.9004l68.7988-380.099609zm240 0h32.4004c7.8 0 14.3008 6.498836 14.3008 14.298828v2.601562l-62.3008 347.699219c-2.6 9.09999-10.3988 16.90039-20.7988 16.90039h-31.1016c-7.8 0-14.2988-6.50079-14.2988-14.30078 0 0-8e-4 -1.29961-1.3008-2.59961l62.3008-347.699219c2.6-9.099991 11.6988-16.90039 20.7988-16.90039zm-2068 0.099609h49.3008c7.8 0 14.3008 6.500789 14.3008 14.300781v2.59961l-24.6016 127.099609c-2.6 10.39999-10.3988 16.90039-20.7988 16.90039h-48l29.7988-160.90039zm377.6016 0h46.6992c7.8 0 14.3008 6.500789 14.3008 14.300781v2.59961l-23.4004 127.099609c-2.6 9.09999-10.4008 16.90039-20.8008 16.90039l-45.2988-1.30078 28.5-159.59961zm-1210.97658 144.36914c-8.73981 0.14905-17.81212 0.80625-27.22461 2.03125-150.59985 19.59998-153.59961 183-153.59961 183s191.20079-10.80018 204.80078 197.59961c0 0.3 217.09882-11.70063 168.29882-248.90039-4.9687-23.90623-61.17822-135.96618-192.27538-133.73047zm-627.22461 133.73047c-190.9998096 0-197.59961 89.6008-197.59961 109.80078 1.8947787e-14 20.19998 40.100555 95.19961 204.90039 95.09961 159.39984 0 197.59961-74.79963 197.59961-95.09961s-17.60058-109.80078-204.90039-109.80078zm395.09961 190.30078c-190.89981 0-204.89844 82.29886-204.89844 109.79883 0 26.09997 40.0986 95.10156 204.89844 95.10156 159.39984 0 212.30078-61.2016 212.30078-95.10156 0-28.89997-25.00097-109.79883-212.30078-109.79883zm508.99998 14.19922v190.70117h2737.3008v-190.70117h-2737.3008zm1974.4004 33.70117c29.9 1.3 22.1 28.59845 19.5 38.89844h-19.5c2.6-10.39999 5.2-20.79883-6.5-20.79883-6.5 0-11.7 2.6004-13 10.40039-2.6 9.09999 1.3 11.69844 6.5 16.89844 5.2 3.89999 14.3012 13.00001 18.2012 19.5 5.2 7.79999 5.1996 14.30157 2.5996 24.60156-5.2 22.09998-22.1 33.69922-41.5 33.69922-23.4 0-28.4996-14.30002-22.0996-35l2.5996-9.09961h19.5l-1.3008 6.5c-3.9 11.69999-2.5992 19.5 7.8008 19.5 7.8 0 12.9996-5.20001 15.5996-13 1.3-6.49999-4e-4 -11.69961-3.9004-15.59961-7.8-9.09999-19.5004-15.60118-23.4004-27.20117-1.3-5.2-2.6-11.69923 0-18.19922 5.2-19.49998 18.2004-31.09961 38.9004-31.09961zm272.5 0c29.9 1.3 22.1012 28.59845 18.2012 38.89844h-18.2012c2.6-10.39999 5.2-20.79883-6.5-20.79883-6.5 0-11.7 2.6004-13 10.40039-2.6 9.09999 1.3 11.69844 6.5 16.89844 5.2 3.89999 14.3012 13.00001 18.2012 19.5 5.2 7.79999 5.1996 14.30157 2.5996 24.60156-5.2 22.09998-22.1 33.69922-41.5 33.69922-23.4 0-28.4996-14.30002-22.0996-35l2.5996-9.09961h19.5l-1.3008 6.5c-3.9 11.69999-2.5992 19.5 7.8008 19.5 7.8 0 12.9996-5.20001 15.5996-13 1.3-6.49999-4e-4 -11.69961-3.9004-15.59961-7.8-9.09999-19.5004-15.60118-23.4004-27.20117-1.3-5.2-2.6-11.69923 0-18.19922 5.2-19.49998 18.2004-31.09961 38.9004-31.09961zm-1636.0996 3.79883h36.3008c18.4 0.1 30.0996 6.59963 23.5996 28.59961-3.9 12.99999-10.4004 25.9-23.4004 28.5 11.7 1.3 12.9996 10.40079 9.0996 20.80078-1.3 5.19999-9.0992 33.70078-5.1992 36.30078v2.59961h-22.0996c0-7.79999 3.8992-22.10079 5.1992-29.80078 1.3-7.79999 3.8992-16.9-1.3008-19.5-5.2-1.3-10.3996-1.29883-15.5996-1.29883h-3.9004l-13 49.29883h-19.5l29.8008-115.5zm-263.1992 0.09961h64.8984l-3.7988 16.90039h-22.0996l-25.9004 98.59961h-19.5l25.9004-98.59961h-23.4004l3.9004-16.90039zm394.2988 0h64.9004l-3.8008 16.90039h-22.0996l-25.9004 98.59961h-19.5l25.9004-98.59961h-23.4004l3.9004-16.90039zm978.3008 0h64.9004l-3.9004 16.90039h-22.0996l-25.9004 98.59961h-19.5l25.9004-98.59961h-23.3008l3.9004-16.90039zm614.7988 0h64.9004l-2.5 16.90039h-23.4004l-25.8984 98.59961h-19.5l25.8984-98.59961h-23.3984l3.8984-16.90039zm-2258.5996 1.30078h54.5l-5.0996 15.59961h-35l-7.8008 29.80078h32.4004l-3.9004 16.90039h-32.3984l-9.1016 36.29883h35l-3.8984 16.90039h-54.5l29.7988-115.5zm138.8008 0h20.7988l3.9004 42.80078c1.3 12.99999 2.6008 27.19924 1.3008 46.69922 2.6-10.39999 3.9-22.1004 6.5-32.40039 2.6-11.69999 5.1988-22.1004 7.7988-32.40039l6.5-23.39844h19.5l-31.0996 114.19922h-20.7988l-3.9004-41.5c-1.3-14.29999-2.6008-27.19924-1.3008-46.69922-1.3 9.09999-3.9 20.79923-6.5 33.69922-2.6 11.69999-5.1988 23.4004-7.7988 32.40039l-5.2012 22.09961h-19.5l29.8008-115.5zm268.5996 0h54.5l-5.0996 15.59961h-35l-7.8008 29.80078h32.4004l-3.9004 16.90039h-32.4004l-9.0996 36.29883h35l-3.9004 16.90039h-54.5l29.8008-115.5zm411.1992 0h25.9004l-6.2988 115.5h-20.8008l2.5996-29.80078h-23.4004l-13 29.80078h-20.7988l55.7988-115.5zm129.8008 0h19.5l-29.8008 115.5h-19.5l29.8008-115.5zm110.3008 0h20.7988l3.9004 42.80078c1.3 12.99999 2.6008 27.19924 1.3008 46.69922 2.6-10.39999 3.9-22.1004 6.5-32.40039 2.6-11.69999 5.1988-22.1004 7.7988-32.40039l6.5-23.39844h19.5l-32.5 114.19922h-19.5l-3.9004-41.5c-1.3-14.29999-2.5988-27.19924-1.2988-46.69922-1.3 9.09999-3.9 20.79923-6.5 33.69922-2.6 11.69999-5.2008 23.4004-7.8008 32.40039l-5.1992 22.09961h-19.4004l29.8008-115.5zm150.3984 0h31.1016l-3.9004 54.5c0 9.09999-3.9012 23.4004-5.2012 32.40039 3.9-11.69999 7.8012-24.6004 11.7012-32.40039l24.5996-54.5h31.0996l-29.5996 115.5h-19.5l9.0996-36.30078c6.5-23.39998 13-46.69885 19.5-68.79883l-48 105.09961h-11.6992l7.7988-105.09961h-1.2988c-5.2 23.39998-10.4004 46.69885-16.9004 68.79883l-9.0996 36.30078h-19.5l29.7988-115.5zm172.6016 0h54.5l-5.1016 15.59961h-35l-7.7988 29.80078h32.4004l-3.9004 16.90039h-32.4004l-9.0996 36.29883h35l-3.9004 16.90039h-54.5l29.8008-115.5zm125.7988 0h20.8008l3.9004 42.80078c1.3 12.99999 2.5988 27.19924 1.2988 46.69922 2.6-10.39999 3.9-22.1004 6.5-32.40039 2.6-11.69999 5.2008-22.1004 7.8008-32.40039l6.5-23.39844h19.5l-31.2012 114.19922h-20.6992l-3.9004-41.5c-1.3-14.29999-2.5988-27.19924-1.2988-46.69922-1.3 9.09999-3.9 20.79923-6.5 33.69922-2.6 11.69999-5.2008 23.4004-7.8008 32.40039l-5.1992 22.09961h-19.5l29.7988-115.5zm487.8008 0h20.7988l2.6016 29.80078c0 5.2 1.3 11.69923 0 18.19922 3.9-9.09999 7.7992-15.59962 11.6992-22.09961l15.5996-25.90039h20.8008l-41.5996 66.19922-13 49.30078h-19.5l13-49.30078-10.4004-66.19922zm404.6992 0h54.5l-3.7988 15.59961h-35l-7.8008 29.80078h32.4004l-3.9004 16.90039h-32.4004l-9.0996 36.29883h35l-3.9004 16.90039h-55.7988l29.7988-115.5zm137.5996 0h31.1016l-3.9004 54.5c0 9.09999-3.9012 23.4004-5.2012 32.40039 3.9-11.69999 7.8012-24.6004 11.7012-32.40039l24.5996-54.5h31.0996l-29.6992 115.5h-19.4004l9.0996-36.30078c6.5-23.39998 13-46.69885 19.5-68.79883l-48 105.09961h-11.6992l7.7988-105.09961h-1.2988c-5.2 23.39998-10.4004 46.69885-16.9004 68.79883l-9.0996 36.30078h-19.5l29.7988-115.5zm-1708.5 9.09961c-1.3 2.6-2.5984 9.10117-3.8984 11.70117-2.6 5.2-3.9 10.39962-6.5 15.59961l-14.3008 32.40039h16.9004l3.9004-32.40039c0-5.19999 1.2996-10.39961 2.5996-15.59961 0-2.6 1.2988-9.10117 1.2988-11.70117zm-278.8984 6.5-7.8008 32.40039h15.5996c6.5 0 12.9996-5.2004 15.5996-16.90039 2.5-12.89999-1.2996-15.5-9.0996-15.5h-14.2988z"/>
</svg>
