<svg enable-background="new 0 0 3839 637.6" version="1.1" viewBox="0 0 3839 637.6" xml:space="preserve" xmlns="http://www.w3.org/2000/svg">
<path d="m389.99805 0.017578125c-7.67177 0.130761585-15.63595 0.708204195-23.89844 1.783203075-132.19987 17.1999828-134.90039 160.5996088-134.90039 160.5996088s167.80079-9.59943 179.80078 173.40039c0 0.3 190.59918-10.2006 147.69922-218.40039-4.3125-20.999978-53.62463-119.3442357-168.70117-117.3828119zm1367.10155 130.0820319c-105.9999 0-105.2999 186.09961 0 186.09961h110.5v-36.29883h-100.0996c-25.9 0-37.0996-31.10001-34.0996-41.5h134.9004v-33.40039h-134.9004c-3-11.09999 7.4004-41.5 33.4004-41.5h100.7988v-33.40039h-110.5zm1525.9004 0-105.3008 0.80078c-108.9999 0-122.2983 186.09961 12.6016 186.09961h92.6992v-37.09961h-93.4004c-51.8999 0-51.8999-116.40039 0-116.40039h93.4004v-33.40039zm-957.9004 0.70117c-44.4999 0-80.7988 28.89848-80.7988 74.89844v112h51.8984v-75.59961h138.6016v-37.09961h-137.9004c0-28.89997 16.2992-40.80078 48.1992-40.80078h89.7012v-33.39844h-109.7012zm-875.5996 0.09961v185.29883h51.9004v-66.69922h82.2988c96.2999 0 92.5999-118.59961 0-118.59961h-82.2988-51.9004zm451.5 0v186h52.5996l0.7012-69.59961h60.0996l47.4004 70.39844h61.5l-59.3008-74.09961c75.6999-18.49998 66.7995-112.69922-27.4004-112.69922h-83-52.5996zm567.3008 0v33.40039h98.5996c31.8 0 43.6992 25.89884 43.6992 37.79883h-90.5c-85.2999 0-83.0987 114.90039 0.7012 114.90039h145.2988v-60.09961-40c0-61.59994-37.1004-85.3-81.4004-86h-116.3984zm231.8984 0v186.09961h51.9004v-153.5h56.3008v153.5h48.1992v-153.5h14.8008c25.9 0 48.9004 11.90081 48.9004 42.30078v111.19922h51.8984v-120.19922c0.8-45.19995-26.6-65.90039-77-65.90039h-143.0996-51.9004zm306.2012 0v186h56.2988v-186h-56.2988zm410.6992 0c-87.4999 0-119.4004 40.80044-119.4004 93.40039 0 51.09995 30.4005 97.09961 119.4004 97.09961s119.4004-45.89966 119.4004-97.09961c0-52.69995-31.9005-93.40039-119.4004-93.40039zm149.8008 0v186.09961h51.9004v-153.5h56.2988v153.5h48.2012v-153.5h14.7988c25.9 0 48.9004 11.90081 48.9004 42.30078v111.19922h51.9004v-120.19922c0.8-45.19995-25.9001-65.90039-77-65.90039h-143.0996-51.9004zm-2353.2012 3.59961v0.09961 115.70117c0 42.29996 30.4008 66.69922 62.3008 66.69922h139.4004v-182.40039h-51.9004v149h-60.8008c-26.7 0-40-20.79963-40-37.09961v-112h-49zm-190.5 0.09961c-71.19991 0-68.99874 104.5 0.7012 104.5h83c30.4 0 31.1 45.20117 0 45.20117h-124.50001v33.39844h160.90041c64.4999 0 65.1999-108.19922-3-108.19922h-83.8008c-33.4 0-33.4-41.5 0-41.5h119.4004v-33.40039h-152.7012zm2393.9004 25.09961c45.3 0 63.8008 14.90083 63.8008 63.80078 0 46.69995-17.8008 63.80078-63.8008 63.80078-45.9999 0-63.7988-17.10083-63.7988-63.80078 0-49.69995 18.5989-63.80078 63.7988-63.80078zm-1463.5 3.80078h75.5996c34.1 0 33.4 48.90039 0 48.90039h-75.5996v-48.90039zm-452.1992 0.69922h65.1992c40.8 0 41.5 55.60078 0 56.30078h-65.1992v-56.30078zm-777.4004 9.21875c-7.6725 0.13076-15.6379 0.70625-23.90039 1.78125-132.19987 17.19998-134.90039 160.60156-134.90039 160.60156s167.70079-9.60138 179.80078 173.39844c0 0.3 190.50074-10.19865 147.80078-218.39844-4.31249-20.99998-53.71325-119.34424-168.80078-117.38281zm1811.5996 61.28125h74.9004v22.20117 23h-74.9004c-29.7 0-30.4-45.20117 0-45.20117zm-2362.19921 56.10156c-167.5998318 0-173.40039 78.49885-173.40039 96.29883-1.8947787e-14 17.79998 35.200926 83.5 179.80078 83.5 139.79986 0 173.39844-65.80002 173.39844-83.5s-15.39899-96.29883-179.79883-96.29883zm1230.79881 83.19922c-13.4 0-24.5 11.20001-24.5 24.5 0 13.39999 11.1 24.5 24.5 24.5s24.5-11.20001 24.5-24.5-10.4-24.5-24.5-24.5zm510.9004 1.5v28.90039l161.5996 17.79883v-28.89844l-161.5996-17.80078zm-323.4004 1.5v34.09961h0.9004 130.4004v20.80078c0 34.09997-22.1993 41.5-69.6992 41.5h-51.2012v33.40039h71.2012c34.7999 0 73.3984-28.20121 73.3984-71.20117v-25.19922-33.40039h-155zm821.6016 0v41.5c0 43.69996-21.5016 54.90039-57.1016 54.90039h-81.5996v33.40039h91.2012c48.8999 0 69.6992-31.90121 69.6992-69.70117v-60.09961h-22.1992zm-1436.10158 0.69922v33.40039h109.70118v12.59961c0 30.39997-27.4004 48.20039-73.4004 50.40039h-41.5v33.40039h45.1992c28.9 0 51.9-11.90041 67.5-27.40039l18.5 27.40039h39.3008l-40.8008-50.40039c6-11.19999 9.7012-23.0004 9.7012-33.40039v-12.59961-33.40039h-134.20118zm1117.99998 0v33.40039h135.7012v62.30078h-135.7012v33.40039h135.7012 25.9004v-33.40039-62.30078-33.40039h-25.9004-135.7012zm179.4004 0v33.40039h98.5996v-33.40039h-98.5996zm-972.6992 0.10156 0.7988 48.89844c0 28.19997-11.8985 47.40039-53.3984 47.40039v33.40039c71.1999 0 77.0996-45.19964 77.0996-75.59961v-54.09961h-24.5zm45.2988 0v54.09961c0 29.69997 8.2009 75.59961 79.3008 75.59961v-33.40039c-42.3-0.7-54.0996-19.30042-54.0996-47.40039v-48.89844h-25.2012zm57.1016 9.59961c5.9 0 11.0996 5.19962 11.0996 11.09961s-5.1996 10.39961-11.0996 11.09961c-5.9 0-11.1016-5.19962-11.1016-11.09961s5.2016-11.09961 11.1016-11.09961zm358.8984 21v27.19922h114.1016c0 12.59999-2.2008 17.09961-13.3008 17.09961h-26.6992-17.8008v12.60156c0 5.9-1.4996 11.89844-15.5996 11.89844h-32.5996v29.70117h35.5996c17.1 0 29.6992-11.90041 29.6992-27.40039v-2.19922h27.4004c19.3 0 33.4004-14.1008 33.4004-34.80078v-7.40039-26.69922h-134.2012zm151.9004 10.09961v28.19922l161.5996 17.80078v-28.19922l-161.5996-17.80078zm-785.1992 8.90039v28.90039h117.0996v-28.90039h-117.0996zm301.7988 0v28.90039h117.9004v-28.90039h-117.9004zm-911.49998 30.40039c-167.59983 0-179.79883 72.19885-179.79883 96.29883 0 22.99998 35.19897 83.5 179.79883 83.5 139.79986 0 186.20117-53.70003 186.20117-83.5 0-25.29998-21.80134-96.29883-186.20117-96.29883zm1394.90038 2.19922v29l161.5996 17.80078v-28.90039l-161.5996-17.90039z"/>
</svg>
