<?xml version="1.0" encoding="utf-8"?>
<!-- Generator: Adobe Illustrator 25.2.1, SVG Export Plug-In . SVG Version: 6.00 Build 0)  -->
<svg version="1.1" id="Layer_1" xmlns="http://www.w3.org/2000/svg" xmlns:xlink="http://www.w3.org/1999/xlink" x="0px" y="0px"
	 viewBox="0 0 3839 1018.3" style="enable-background:new 0 0 3839 1018.3;" xml:space="preserve">
<style type="text/css">
	.st0{fill:#ED2224;}
	.st1{fill:#FFFFFF;}
	.st2{fill:#DB3127;}
	.st3{fill-rule:evenodd;clip-rule:evenodd;fill:#FCDA00;}
	.st4{fill-rule:evenodd;clip-rule:evenodd;fill:#73B744;}
	.st5{fill-rule:evenodd;clip-rule:evenodd;fill:#ED2224;}
	.st6{fill-rule:evenodd;clip-rule:evenodd;fill:#2AA4DD;}
	.st7{fill-rule:evenodd;clip-rule:evenodd;fill:#DB3127;}
</style>
<g id="SNES_22_">
	<g>
		<g>
			<g>
				<g>
					<path class="st0" d="M179.7,265c12.7,23.6,78.1,132.5,85.3,150.7c9.1,18.2,16.3,47.2,9.1,78.1l-23.6,132.5
						c-7.3,34.5-38.1,61.7-76.2,61.7H59.9C25.4,687.9,0,660.7,0,626.2c0-3.6,0-7.3,0-10.9l30.9-174.3h79.9l-25.4,147
						c0,1.8,0,1.8,0,1.8c0,10.9,9.1,20,20,20h43.6c14.5,0,27.2-10.9,30.9-23.6l18.2-96.2c3.6-18.2,0-29-16.3-58.1
						c-12.7-23.6-67.2-127.1-83.5-157.9c-21.8-39.9-23.6-58.1-18.2-92.6l20-118c7.3-36.3,38.1-61.7,74.4-61.7h114.4
						c32.7,0,61.7,27.2,61.7,61.7c0,3.6,0,7.3,0,10.9l-29,168.8h-79.9l25.4-141.6c0-1.8,0-1.8,0-3.6c0-10.9-9.1-20-20-20h-43.6
						c-14.5,0-25.4,10.9-29,23.6l-14.5,76.2C154.3,216,161.5,234.2,179.7,265z"/>
				</g>
				<g>
					<path class="st0" d="M388.4,588.1C388.4,589.9,388.4,589.9,388.4,588.1c0,12.7,9.1,21.8,20,21.8H452c14.5,0,25.4-10.9,29-23.6
						L588.1,0h81.7L555.4,624.4c-7.3,34.5-38.1,61.7-76.2,61.7H364.8c-32.7,0-59.9-27.2-59.9-61.7c0-3.6,0-7.3,0-12.7L415.7,0h79.9
						L388.4,588.1z"/>
				</g>
				<g>
					<polygon class="st0" points="1012.8,0 1198,0 1185.3,78.1 1081.8,78.1 1043.7,294.1 1145.3,294.1 1130.8,372.1 1029.2,372.1 
						985.6,609.9 1087.3,609.9 1074.6,686.1 887.6,686.1 					"/>
				</g>
				<g>
					<path class="st0" d="M1548.3,686.1L1673.5,0h83.5c36.3,366.7,36.3,455.6,38.1,524.6c1.8-72.6,10.9-172.4,74.4-524.6l0,0h83.5
						l-125.2,686.1h-83.5c-34.5-366.7-36.3-442.9-36.3-511.9c-3.6,81.7-12.7,161.5-74.4,511.9L1548.3,686.1z"/>
				</g>
				<g>
					<polygon class="st0" points="1969.4,686.1 1887.7,686.1 2011.2,0 2094.7,0 					"/>
				</g>
				<g>
					<polygon class="st0" points="2648.3,78.1 2592,78.1 2481.3,686.1 2397.8,686.1 2510.3,78.1 2450.4,78.1 2464.9,0 2664.6,0 
											"/>
				</g>
				<g>
					<polygon class="st0" points="2699.1,0 2884.2,0 2871.5,78.1 2768.1,78.1 2730,294.1 2831.6,294.1 2817.1,372.1 2715.4,372.1 
						2671.9,609.9 2773.5,609.9 2760.8,686.1 2573.9,686.1 					"/>
				</g>
				<g>
					<path class="st0" d="M2032.9,686.1L2158.2,0h83.5c36.3,366.7,36.3,455.6,38.1,524.6c1.8-72.6,10.9-172.4,74.4-524.6l0,0h83.5
						l-125.2,686.1H2229c-34.5-366.7-36.3-442.9-36.3-511.9c-3.6,81.7-12.7,161.5-74.4,511.9
						C2118.3,686.1,2032.9,686.1,2032.9,686.1z"/>
				</g>
				<g>
					<path class="st0" d="M2815.3,686.1L2940.5,0h83.5c36.3,366.7,36.3,455.6,38.1,524.6c1.8-72.6,10.9-172.4,74.4-524.6l0,0h83.5
						l-125.2,686.1h-83.5c-34.5-366.7-36.3-442.9-36.3-511.9c-3.6,81.7-12.7,161.5-74.4,511.9
						C2900.6,686.1,2815.3,686.1,2815.3,686.1z"/>
				</g>
				<path class="st0" d="M595.4,686.1L720.6,0h179.7C934.8,0,962,27.2,962,61.7c0,3.6,0,7.3-1.8,10.9l-43.6,243.2
					c-5.4,36.3-36.3,61.7-74.4,61.7H735.1l-56.3,306.8L595.4,686.1L595.4,686.1z M813.2,301.3c14.5,0,25.4-9.1,29-23.6l34.5-177.9
					c0,0,0-1.8,0-3.6c0-10.9-9.1-20-20-20h-69L746,301.3H813.2z M1345,406.6L1345,406.6c0-12.7-9.1-21.8-20-21.8h-65.3l-54.5,303.1
					h-83.5L1245.2,1.8h183.3c34.5,0,61.7,27.2,61.7,61.7c0,3.6,0,7.3-1.8,12.7l-38.1,216c-5.4,29-25.4,49-52.6,58.1
					c23.6,9.1,34.5,30.9,30.9,56.3c0,3.6,0,7.3,0,10.9l-49,270.5H1296L1345,406.6z M1339.6,301.3c14.5,0,25.4-10.9,29-23.6
					l32.7-177.9c0-1.8,0-1.8,0-3.6c0-10.9-9.1-20-20-20H1316L1276,299.5L1339.6,301.3L1339.6,301.3z M3278.1,0h187
					c34.5,0,61.7,27.2,61.7,61.7c0,3.6,0,7.3-1.8,10.9l-99.8,551.8c-5.4,34.5-36.3,61.7-74.4,61.7h-197.8L3278.1,0z M3321.7,609.9
					c14.5,0,25.4-10.9,29-23.6l88.9-486.5c0-1.8,0-1.8,0-3.6c0-10.9-9.1-20-20-20h-74.4l-96.2,531.8h72.6V609.9z M3655.7,0h116.2
					c32.7,0,59.9,27.2,59.9,61.7c0,3.6,0,7.3,0,10.9l-98,551.8c-7.3,34.5-38.1,61.7-76.2,61.7h-114.4c-34.5,0-59.9-27.2-59.9-61.7
					c0-3.6,0-7.3,0-12.7l98-550C3588.5,27.2,3619.4,0,3655.7,0z M3566.7,589.9c0,10.9,9.1,20,20,20h43.6c14.5,0,25.4-10.9,29-23.6
					l87.1-486.5c0-1.8,0-1.8,0-3.6c0-10.9-9.1-20-20-20h-45.4c-12.7,0-25.4,10.9-29,23.6l-87.1,486.5
					C3566.7,588.1,3566.7,589.9,3566.7,589.9z"/>
				<g>
					<path class="st0" d="M1265.1,902.1l5.4-45.4c0-7.3,1.8-14.5,3.6-21.8c0-3.6,1.8-12.7,1.8-16.3l0,0c-1.8,3.6-3.6,12.7-5.4,16.3
						c-3.6,7.3-5.4,14.5-9.1,21.8l-20,45.4H1265.1z"/>
					<path class="st0" d="M905.7,827.7h-20l-10.9,45.4h21.8c9.1,0,18.2-7.3,21.8-23.6C922.1,831.3,916.6,827.7,905.7,827.7z"/>
					<path class="st0" d="M9.1,751.5v266.8H3839V751.5H9.1z M185.1,827.7h-49l-10.9,41.7h45.4l-5.4,23.6h-45.4l-12.7,50.8h49
						l-5.4,23.6H74.4l41.7-161.5h76.2L185.1,827.7z M359.4,967.5h-29l-5.4-58.1c-1.8-20-3.6-38.1-1.8-65.3l0,0
						c-1.8,12.7-5.4,29-9.1,47.2c-3.6,16.3-7.3,32.7-10.9,45.4l-7.3,30.9h-27.2l41.7-161.5h29l5.4,59.9c1.8,18.2,3.6,38.1,1.8,65.3
						l0,0c3.6-14.5,5.4-30.9,9.1-45.4c3.6-16.3,7.3-30.9,10.9-45.4l9.1-32.7H403L359.4,967.5z M580.8,827.7H550l-36.3,137.9h-27.2
						l36.3-137.9h-32.7l5.4-23.6h90.8L580.8,827.7z M755.1,827.7h-49l-10.9,41.7h45.4l-5.4,23.6h-45.4L677,943.9h49l-5.4,23.6h-76.2
						l41.7-161.5h76.2L755.1,827.7z M947.5,844c-5.4,18.2-14.5,36.3-32.7,39.9l0,0c16.3,1.8,18.2,14.5,12.7,29
						c-1.8,7.3-12.7,47.2-7.3,50.8v3.6h-30.9c0-10.9,5.4-30.9,7.3-41.7c1.8-10.9,5.4-23.6-1.8-27.2c-7.3-1.8-14.5-1.8-21.8-1.8h-5.4
						l-18.2,69h-27.2L864,804.1h50.8C940.2,804.1,956.6,813.2,947.5,844z M1132.6,827.7h-30.9l-36.3,137.9h-27.2l36.3-137.9h-32.7
						l5.4-23.6h90.8L1132.6,827.7z M1288.7,967.5h-29l3.6-41.7h-32.7l-18.2,41.7h-29l78.1-161.5h36.3L1288.7,967.5z M1428.5,967.5
						h-27.2l41.7-161.5h27.2L1428.5,967.5z M1644.5,967.5h-27.2l-5.4-58.1c-1.8-20-3.6-38.1-1.8-65.3l0,0c-1.8,12.7-5.4,29-9.1,47.2
						c-3.6,16.3-7.3,32.7-10.9,45.4l-7.3,30.9h-27.2l41.7-161.5h29l5.4,59.9c1.8,18.2,3.6,38.1,1.8,65.3l0,0
						c3.6-14.5,5.4-30.9,9.1-45.4c3.6-16.3,7.3-30.9,10.9-45.4l9.1-32.7h27.2L1644.5,967.5z M1891.4,967.5h-27.2l12.7-50.8
						c9.1-32.7,18.2-65.3,27.2-96.2l0,0l-67.2,147h-16.3l10.9-147h-1.8c-7.3,32.7-14.5,65.3-23.6,96.2l-12.7,50.8h-27.2l41.7-161.5
						h43.6l-5.4,76.2c0,12.7-5.4,32.7-7.3,45.4l0,0c5.4-16.3,10.9-34.5,16.3-45.4l34.5-76.2h43.6L1891.4,967.5z M2118.3,827.7h-49
						l-10.9,41.7h45.4l-5.4,23.6h-45.4l-12.7,50.8h49l-5.4,23.6h-76.2l41.7-161.5h76.2L2118.3,827.7z M2274.4,967.5h-29l-5.4-58.1
						c-1.8-20-3.6-38.1-1.8-65.3l0,0c-1.8,12.7-5.4,29-9.1,47.2c-3.6,16.3-7.3,32.7-10.9,45.4l-7.3,30.9h-27.2l41.7-161.5h29
						l5.4,59.9c1.8,18.2,3.6,38.1,1.8,65.3l0,0c3.6-14.5,5.4-30.9,9.1-45.4c3.6-16.3,7.3-30.9,10.9-45.4l9.1-32.7h27.2L2274.4,967.5
						z M2501.2,827.7h-30.9l-36.3,137.9h-27.2l36.3-137.9h-32.7l5.4-23.6h90.8L2501.2,827.7z M2798.9,853.1h-27.2
						c3.6-14.5,7.3-29-9.1-29c-9.1,0-16.3,3.6-18.2,14.5c-3.6,12.7,1.8,16.3,9.1,23.6c7.3,5.4,20,18.2,25.4,27.2
						c7.3,10.9,7.3,20,3.6,34.5c-7.3,30.9-30.9,47.2-58.1,47.2c-32.7,0-39.9-20-30.9-49l3.6-12.7h27.2l-1.8,9.1
						c-5.4,16.3-3.6,27.2,10.9,27.2c10.9,0,18.2-7.3,21.8-18.2c1.8-9.1,0-16.3-5.4-21.8c-10.9-12.7-27.2-21.8-32.7-38.1
						c-1.8-7.3-3.6-16.3,0-25.4c7.3-27.2,25.4-43.6,54.5-43.6C2813.5,800.5,2802.6,838.6,2798.9,853.1z M2949.6,898.5l-18.2,69
						h-27.2l18.2-69l-14.5-92.6h29l3.6,41.7c0,7.3,1.8,16.3,0,25.4l0,0c5.4-12.7,10.9-21.8,16.3-30.9l21.8-36.3h29L2949.6,898.5z
						 M3178.3,853.1h-25.4c3.6-14.5,7.3-29-9.1-29c-9.1,0-16.3,3.6-18.2,14.5c-3.6,12.7,1.8,16.3,9.1,23.6
						c7.3,5.4,20,18.2,25.4,27.2c7.3,10.9,7.3,20,3.6,34.5c-7.3,30.9-30.9,47.2-58.1,47.2c-32.7,0-39.9-20-30.9-49l3.6-12.7h27.2
						l-1.8,9.1c-5.4,16.3-3.6,27.2,10.9,27.2c10.9,0,18.2-7.3,21.8-18.2c1.8-9.1,0-16.3-5.4-21.8c-10.9-12.7-27.2-21.8-32.7-38.1
						c-1.8-7.3-3.6-16.3,0-25.4c7.3-27.2,25.4-43.6,54.5-43.6C3194.6,800.5,3183.7,838.6,3178.3,853.1z M3363.4,827.7h-32.7
						l-36.3,137.9h-27.2l36.3-137.9h-32.7l5.4-23.6h90.8L3363.4,827.7z M3544.9,827.7h-49l-10.9,41.7h45.4L3525,893h-45.4
						l-12.7,50.8h49l-5.4,23.6h-78.1l41.7-161.5h76.2L3544.9,827.7z M3750.1,967.5h-27.2l12.7-50.8c9.1-32.7,18.2-65.3,27.2-96.2
						l0,0l-67.2,147h-16.3l10.9-147h-1.8c-7.3,32.7-14.5,65.3-23.6,96.2l-12.7,50.8h-27.2l41.7-161.5h43.6l-5.4,76.2
						c0,12.7-5.4,32.7-7.3,45.4l0,0c5.4-16.3,10.9-34.5,16.3-45.4l34.5-76.2h43.6L3750.1,967.5z"/>
				</g>
			</g>
		</g>
	</g>
</g>
</svg>
