<svg enable-background="new 0 0 3839 1018.3" version="1.1" viewBox="0 0 3839 1018.3" xml:space="preserve" xmlns="http://www.w3.org/2000/svg">
<path d="m415.69922 0-110.79883 611.69922v12.70117c0 34.49997 27.20042 61.69922 59.90039 61.69922h114.39844c38.09996 0 68.90118-27.19925 76.20117-61.69922l114.40039-624.40039h-81.70117l-107.09961 586.30078c-3.6 12.69999-14.50001 23.59961-29 23.59961h-43.59961c-10.89999 0-20-9.10079-20-21.80078l107.19922-588.09961h-79.90039zm304.90039 0-125.19922 686.09961 83.40039-1.79883 56.29883-306.80078h107.09961c38.09996 0 69.00039-25.39926 74.40039-61.69922l43.59961-243.201171c1.8-3.599996 1.80078-7.300394 1.80078-10.90039 0-34.499966-27.19925-61.699219-61.69922-61.699219h-179.70117zm292.20119 0-125.20119 686.09961h186.99999l12.7012-76.19922h-101.70119l43.59959-237.80078h101.6016l14.5-78h-101.6016l38.1016-216.000001h103.5l12.6992-78.099609h-185.1992zm660.6992 0-125.1992 686.09961h85.2988c61.6999-350.39965 70.8004-430.20047 74.4004-511.90039 0 68.99993 1.8008 145.20076 36.3008 511.90039h83.5l125.1992-686.09961h-83.5c-63.4999 352.19965-72.6004 451.99968-74.4004 524.59961-1.8-68.99993-1.7996-157.89998-38.0996-524.59961h-83.5zm337.6992 0-123.5 686.09961h81.7012l125.2988-686.09961h-83.5zm147 0-125.2988 686.09961h85.4004c61.6999-350.39965 70.7984-430.20047 74.3984-511.90039 0 68.99993 1.8008 145.20076 36.3008 511.90039h83.5l125.1992-686.09961h-83.5c-63.4999 352.19965-72.5984 451.99968-74.3984 524.59961-1.8-68.99993-1.8016-157.89998-38.1016-524.59961h-83.5zm306.7012 0-14.5 78.099609h59.9004l-112.5 608.000001h83.5l110.6992-608.000001h56.3008l16.2988-78.099609h-199.6992zm234.1992 0-125.1992 686.09961h186.9004l12.6992-76.19922h-101.5996l43.5-237.80078h101.6992l14.5-78h-101.5996l38.0996-216.000001h103.4004l12.6992-78.099609h-185.0996zm241.4004 0-125.1992 686.09961h85.2988c61.6999-350.39965 70.8004-430.20047 74.4004-511.90039 0 68.99993 1.8008 145.20076 36.3008 511.90039h83.5l125.1992-686.09961h-83.5c-63.4999 352.19965-72.6004 451.99968-74.4004 524.59961-1.8-68.99993-1.7996-157.89998-38.0996-524.59961h-83.5zm337.5996 0-125.0996 686.09961h197.8008c38.0999 0 68.9984-27.19925 74.3984-61.69922l99.8008-551.800781c1.8-3.599996 1.8008-7.300394 1.8008-10.90039 0-34.499966-27.2012-61.699219-61.7012-61.699219h-187zm377.5996 0c-36.2999 0-67.1984 27.199253-74.3984 61.699219l-98 550.000001v12.70117c0 34.49997 25.3985 61.69922 59.8984 61.69922h114.4004c38.1 0 68.9012-27.19925 76.2012-61.69922l98-551.800781v-10.90039c0-34.499966-27.2004-61.699219-59.9004-61.699219h-116.2012zm-3481.1992 1.6992188c-36.29996 0-67.1004 25.4012082-74.40039 61.7011722l-20.000001 117.999999c-5.399994 34.49997-3.598806 52.69965 18.201172 92.59961 16.299979 30.79997 70.800009 134.30041 83.499999 157.90039 16.29998 29.09997 19.89883 39.89963 16.29883 58.09961l-18.19922 96.19922c-3.7 12.69999-16.4004 23.60156-30.90039 23.60156h-43.59961c-10.899988 0-19.999999-9.10001-19.999999-20v-1.80078l25.400389-147h-79.900389l-30.900391 174.30078v10.89844c-4.7369468e-15 34.49996 25.400425 61.70078 59.900391 61.80078h114.400389c38.09996 0 68.89923-27.19925 76.19922-61.69922l23.59961-132.5c7.19999-30.89997 3.8e-4 -59.90158-9.09961-78.10156-7.19999-18.19998-72.60079-127.09924-85.30078-150.69922-18.19998-30.79997-25.39921-49.00082-19.69922-87.30078l14.5-76.19922c3.6-12.699987 14.50001-23.599609 29-23.599609h43.59961c10.89999 0 20 9.100011 20 20v3.599609l-25.40039 141.59961h79.90039l29-168.798829v-10.90039c0-34.499966-28.99925-61.7011722-61.69922-61.7011722h-114.40039zm1070.6992 0.1015624-123.5 686.0996088h83.5l54.5-303.09961h65.3008c10.9 0 20 9.09884 20 21.79883l-49 281.40039h83.5996l49-270.5v-10.90039c3.6-25.39998-7.3004-47.19884-30.9004-56.29883 27.2-9.09999 47.2016-29.10159 52.6016-58.10156l38.0996-216.000001c1.8-5.399995 1.7988-9.099223 1.7988-12.699219 0-34.499966-27.1992-61.6992188-61.6992-61.6992188h-183.3008zm-457.49998 74.3984378h69c10.89999 0 20 9.100011 20 20v3.601562l-34.5 177.898439c-3.6 14.49998-14.50002 23.60156-29 23.60156h-67.19922l41.69922-225.101561zm528.30078 0h65.3008c10.9 0 20 9.100011 20 20v3.601562l-32.7012 177.898439c-3.6 12.69999-14.5 23.60156-29 23.60156l-63.5996-1.80078 40-223.300781zm2029.1992 0h74.4004c10.9 0 20 9.100011 20 20v3.601562l-88.9004 486.499999c-3.6 12.69999-14.5 23.59961-29 23.59961h-0.0996v-1.90039h-72.5996l96.1992-531.800781zm335.8008 0h45.4004c10.9 0 20 9.100011 20 20v3.601562l-87.0996 486.499999c-3.6 12.69999-14.5 23.59961-29 23.59961h-43.6016c-10.9 0-20-9.10001-20-20 0 0 0.0012-1.79961-1.7988-3.59961l87.0996-486.499999c3.6-12.699987 16.3-23.601562 29-23.601562zm-3671.900391 675.300781v266.8008h3829.900391v-266.8008h-3829.900391zm2762.499991 47.09961c41.9 1.9 31.0008 40.00001 27.3008 54.5h-27.2012c3.6-14.49999 7.3004-29-9.0996-29-9.1 0-16.2992 3.60001-18.1992 14.5-3.6 12.69999 1.7996 16.29962 9.0996 23.59961 7.3 5.39999 20.0004 18.20118 25.4004 27.20117 7.3 10.89999 7.2996 20.00002 3.5996 34.5-7.3 30.89997-30.8996 47.19922-58.0996 47.19922-32.7 0-39.9004-20.00003-30.9004-49l3.5996-12.69922h27.2012l-1.8008 9.09961c-5.4 16.29998-3.5996 27.19922 10.9004 27.19922 10.9 0 18.1988-7.29923 21.7988-18.19922 1.8-9.09999 0.0016-16.30079-5.3984-21.80078-10.9-12.69999-27.2012-21.79963-32.7012-38.09961-1.8-7.29999-3.6-16.3004 0-25.40039 7.3-27.19997 25.4-43.59961 54.5-43.59961zm381.2012 0c41.7999 1.9 30.9 40.00001 25.5 54.5h-25.4004c3.6-14.49999 7.3004-29-9.0996-29-9.1 0-16.3012 3.60001-18.2012 14.5-3.6 12.69999 1.7996 16.29962 9.0996 23.59961 7.3 5.39999 20.0004 18.20118 25.4004 27.20117 7.3 10.89999 7.2996 20.00002 3.5996 34.5-7.3 30.89997-30.8996 47.19922-58.0996 47.19922-32.7 0-39.9004-20.00003-30.9004-49l3.6016-12.69922h27.1992l-1.8008 9.09961c-5.4 16.29998-3.5996 27.19922 10.9004 27.19922 10.9 0 18.2008-7.29923 21.8008-18.19922 1.8-9.09999-4e-4 -16.30079-5.4004-21.80078-10.9-12.69999-27.1992-21.79963-32.6992-38.09961-1.8-7.29999-3.6-16.3004 0-25.40039 7.3-27.19997 25.4-43.59961 54.5-43.59961zm-2657.3008 5.5h90.80078l-5.5 23.59961h-30.80078l-36.30078 137.90039h-27.19922l36.30078-137.90039h-32.70117l5.40039-23.59961zm368.5 0h50.80078c25.39998 0 41.79921 9.10042 32.69922 39.90039-5.39999 18.19998-14.49924 36.30039-32.69922 39.90039 16.29998 1.8 18.19921 14.50002 12.69922 29-1.8 7.29999-12.70078 47.19883-7.30078 50.79883v3.60156h-30.89844c0-10.89999 5.39883-30.90118 7.29883-41.70117 1.8-10.89999 5.40116-23.59922-1.79883-27.19922-7.29999-1.8-14.50079-1.80078-21.80078-1.80078h-5.40039l-18.19922 69h-27.20117l41.80078-161.5zm183.1992 0h90.8008l-5.4004 23.59961h-30.9004l-36.2988 137.90039h-27.2012l36.3008-137.90039h-32.6992l5.3984-23.59961zm1368.6016 0h90.7988l-5.4004 23.59961h-30.8984l-36.3008 137.90039h-27.1992l36.2988-137.90039h-32.6992l5.4004-23.59961zm860.3984 0h90.8008l-3.5996 23.59961h-32.7012l-36.2988 137.90039h-27.2012l36.3008-137.90039h-32.6992l5.3984-23.59961zm-297.5996 1.70117h29l-58 92.69922-18.1992 69h-27.2012l18.2012-69-14.5-92.59961h29l3.5996 41.69922c0 7.29999 1.8 16.3004 0 25.40039 5.4-12.69999 10.9008-21.8004 16.3008-30.90039l21.7988-36.29883zm-2862.49999 0.09961h76.20117l-7.20117 21.79883h-49l-10.90039 41.70117h45.40039l-5.40039 23.59961h-45.39844l-12.70117 50.80078h49l-5.40039 23.59961h-76.298829l41.699219-161.5zm1933.30079 0h76.1992l-7.2988 21.79883h-49l-10.9004 41.70117h45.4004l-5.4004 23.59961h-45.4004l-12.6992 50.80078h49l-5.4004 23.59961h-76.2012l41.7012-161.5zm1424.6992 0h76.2012l-5.4004 21.79883h-49l-10.9004 41.70117h45.4004l-5.4004 23.59961h-45.4004l-12.6992 50.80078h49l-5.4004 23.59961h-78.0996l41.6992-161.5zm-2787.99999 0.09961h76.20117l-7.20117 21.69922h-49l-10.90039 41.70117h45.40039l-5.40039 23.59961h-45.39844l-12.80078 50.90039h49l-5.40039 23.59961h-76.19922l41.69922-161.5zm575.40039 0h36.3008l-9.1016 161.5h-29l3.6016-41.69922h-32.7012l-18.1992 41.69922h-29l78.0996-161.5zm181.5 0h27.1992l-41.6992 161.5h-27.1992l41.6992-161.5zm364.9004 0h43.5996l-5.4004 76.19922c0 12.69999-5.3988 32.7004-7.2988 45.40039 5.4-16.29998 10.8988-34.5004 16.2988-45.40039l34.5-76.19922h43.5996l-41.7988 161.5h-27.2012l12.7012-50.80078c9.1-32.69997 18.1992-65.29925 27.1992-96.19922l-67.1992 147h-16.3008l10.9004-147h-1.8008c-7.3 32.69997-14.4996 65.29925-23.5996 96.19922l-12.6992 50.80078h-27.2012l41.7012-161.5zm1858.6992 0h43.5996l-5.3984 76.19922c0 12.69999-5.4008 32.7004-7.3008 45.40039 5.4-16.29998 10.9008-34.5004 16.3008-45.40039l34.5-76.19922h43.5996l-41.8008 161.5h-27.1992l12.6992-50.80078c9.1-32.69997 18.2012-65.29925 27.2012-96.19922l-67.2012 147h-16.2988l10.8984-147h-1.7988c-7.3 32.69997-14.4996 65.29925-23.5996 96.19922l-12.7012 50.80078h-27.1992l41.6992-161.5zm-3356.19921 0.09961h29l5.40039 59.90039c1.8 18.19998 3.59883 38.10081 1.79883 65.30078 3.6-14.49998 5.39961-30.9004 9.09961-45.40039 3.6-16.29998 7.30039-30.9004 10.90039-45.40039l9.09961-32.69922h27.30078l-43.59961 159.69922h-29l-5.40039-58.09961c-1.8-19.99998-3.60078-38.10081-1.80078-65.30078-1.8 12.69999-5.39961 29.00119-9.09961 47.20117-3.6 16.29998-7.30039 32.69845-10.90039 45.39844l-7.29883 30.90039h-27.20117l41.70117-161.5zm1286.90041 0h29l5.3984 59.90039c1.8 18.19998 3.6008 38.10081 1.8008 65.30078 3.6-14.49998 5.3996-30.9004 9.0996-45.40039 3.6-16.29998 7.3004-30.9004 10.9004-45.40039l9.0996-32.69922h27.2012l-45.3008 159.69922h-27.1992l-5.4004-58.09961c-1.8-19.99998-3.6008-38.10081-1.8008-65.30078-1.8 12.69999-5.3996 29.00119-9.0996 47.20117-3.6 16.29998-7.3004 32.69845-10.9004 45.39844l-7.2988 30.90039h-27.2012l41.7012-161.5zm628.0996 0h29l5.4004 59.90039c1.8 18.19998 3.5988 38.10081 1.7988 65.30078 3.6-14.49998 5.3996-30.9004 9.0996-45.40039 3.6-16.29998 7.3004-30.9004 10.9004-45.40039l9.0996-32.69922h27.2012l-43.5 159.69922h-29l-5.4004-58.09961c-1.8-19.99998-3.6008-38.10081-1.8008-65.30078-1.8 12.69999-5.3996 29.00119-9.0996 47.20117-3.6 16.29998-7.3004 32.69845-10.9004 45.39844l-7.2988 30.90039h-27.2012l41.7012-161.5zm-949.5 12.5c-1.8 3.6-3.6004 12.70078-5.4004 16.30078-3.6 7.29999-5.3996 14.49884-9.0996 21.79883l-20 45.40039h23.6992l5.4004-45.40039c0-7.29999 1.7996-14.49884 3.5996-21.79883 0-3.6 1.8008-12.70078 1.8008-16.30078zm-390.20118 9.09961-10.89844 45.40039h21.79883c9.09999 0 18.20078-7.29963 21.80078-23.59961 3.7-18.19998-1.80118-21.80078-12.70117-21.80078h-20z"/>
</svg>
