<?xml version="1.0" encoding="utf-8"?>
<!-- Generator: Adobe Illustrator 25.2.1, SVG Export Plug-In . SVG Version: 6.00 Build 0)  -->
<svg version="1.1" id="Layer_1" xmlns="http://www.w3.org/2000/svg" xmlns:xlink="http://www.w3.org/1999/xlink" x="0px" y="0px"
	 viewBox="0 0 3839 727.8" style="enable-background:new 0 0 3839 727.8;" xml:space="preserve">
<style type="text/css">
	.st0{fill:#FFFFFF;}
	.st1{fill-rule:evenodd;clip-rule:evenodd;fill:#FFFFFF;}
	.st2{fill-rule:evenodd;clip-rule:evenodd;}
</style>
<g>
	<g>
		<path id="yellow_5_" class="st2" d="M592.7,522.9C780,522.9,805,603.8,805,632.7c0,33.9-52.9,95.1-212.3,95.1
			c-164.8,0-204.9-69-204.9-95.1C387.8,605.2,401.8,522.9,592.7,522.9z"/>
		<path id="green_5_" class="st2" d="M197.6,332.6c187.3,0,204.9,89.5,204.9,109.8c0,20.3-38.2,95.1-197.6,95.1
			C40.1,537.6,0,462.6,0,442.4S6.6,332.6,197.6,332.6z"/>
		<path id="red_5_" class="st2" d="M644,383.9c0,0,3-163.4,153.6-183s214.2,106.2,219.5,131.7c48.8,237.2-168.3,249.2-168.3,248.9
			C835.2,373.1,644,383.9,644,383.9z"/>
		<path id="blue_5_" class="st2" d="M263.4,186.4c0,0,3-163.4,153.6-183s214.2,106.2,219.5,131.7
			c48.8,237.2-168.2,249.2-168.2,248.9C454.6,175.5,263.4,186.4,263.4,186.4z"/>
	</g>
	<g id="SNES_15_">
		<g>
			<g>
				<g>
					<g>
						<path d="M1223.6,189.4c9.1,16.9,55.8,94.7,61,107.7c6.5,13,11.7,33.7,6.5,55.8l-16.9,94.7c-5.2,24.6-27.2,44.1-54.5,44.1H1138
							c-24.6,0-42.8-19.5-42.8-44.1c0-2.6,0-5.2,0-7.8l22.1-124.5h57.1l-18.2,105.1c0,1.3,0,1.3,0,1.3c0,7.8,6.5,14.3,14.3,14.3
							h31.1c10.4,0,19.5-7.8,22.1-16.9l13-68.8c2.6-13,0-20.8-11.7-41.5c-9.1-16.9-48-90.8-59.7-112.9c-15.6-28.5-16.9-41.5-13-66.2
							l14.3-84.3c5.2-25.9,27.2-44.1,53.2-44.1h81.7c23.4,0,44.1,19.5,44.1,44.1c0,2.6,0,5.2,0,7.8l-20.8,120.6h-57.1l18.2-101.2
							c0-1.3,0-1.3,0-2.6c0-7.8-6.5-14.3-14.3-14.3h-31.1c-10.4,0-18.2,7.8-20.8,16.9l-10.4,54.5
							C1205.5,154.4,1210.7,167.4,1223.6,189.4z"/>
					</g>
					<g>
						<path d="M1372.8,420.3C1372.8,421.6,1372.8,421.6,1372.8,420.3c0,9.1,6.5,15.6,14.3,15.6h31.1c10.4,0,18.2-7.8,20.8-16.9
							l76.5-419h58.4l-81.7,446.3c-5.2,24.6-27.2,44.1-54.5,44.1H1356c-23.4,0-42.8-19.5-42.8-44.1c0-2.6,0-5.2,0-9.1L1392.3,0h57.1
							L1372.8,420.3z"/>
					</g>
					<g>
						<polygon points="1819.1,0 1951.4,0 1942.4,55.8 1868.4,55.8 1841.2,210.2 1913.8,210.2 1903.4,265.9 1830.8,265.9 
							1799.6,435.9 1872.3,435.9 1863.2,490.4 1729.6,490.4 						"/>
					</g>
					<g>
						<path d="M2201.8,490.4L2291.3,0h59.7c25.9,262.1,25.9,325.6,27.2,374.9c1.3-51.9,7.8-123.2,53.2-374.9l0,0h59.7l-89.5,490.4
							h-59.7c-24.6-262.1-25.9-316.5-25.9-365.8c-2.6,58.4-9.1,115.5-53.2,365.8L2201.8,490.4z"/>
					</g>
					<g>
						<polygon points="2502.8,490.4 2444.4,490.4 2532.6,0 2592.3,0 						"/>
					</g>
					<g>
						<polygon points="2988,55.8 2947.8,55.8 2868.6,490.4 2808.9,490.4 2889.4,55.8 2846.6,55.8 2856.9,0 2999.6,0 						"/>
					</g>
					<g>
						<polygon points="3024.3,0 3156.6,0 3147.5,55.8 3073.6,55.8 3046.4,210.2 3119,210.2 3108.6,265.9 3036,265.9 3004.8,435.9 
							3077.5,435.9 3068.4,490.4 2934.8,490.4 						"/>
					</g>
					<g>
						<path d="M2548.2,490.4L2637.7,0h59.7c25.9,262.1,25.9,325.6,27.2,374.9c1.3-51.9,7.8-123.2,53.2-374.9l0,0h59.7L2748,490.4
							h-59.7c-24.6-262.1-25.9-316.5-25.9-365.8c-2.6,58.4-9.1,115.5-53.2,365.8C2609.2,490.4,2548.2,490.4,2548.2,490.4z"/>
					</g>
					<g>
						<path d="M3107.3,490.4L3196.8,0h59.7c25.9,262.1,25.9,325.6,27.2,374.9c1.3-51.9,7.8-123.2,53.2-374.9l0,0h59.7l-89.5,490.4
							h-59.7c-24.6-262.1-25.9-316.5-25.9-365.8c-2.6,58.4-9.1,115.5-53.2,365.8C3168.3,490.4,3107.3,490.4,3107.3,490.4z"/>
					</g>
					<path d="M1520.7,490.4L1610.2,0h128.4c24.6,0,44.1,19.5,44.1,44.1c0,2.6,0,5.2-1.3,7.8l-31.1,173.8
						c-3.9,25.9-25.9,44.1-53.2,44.1h-76.5l-40.2,219.2L1520.7,490.4L1520.7,490.4z M1676.4,215.4c10.4,0,18.2-6.5,20.8-16.9
						l24.6-127.1c0,0,0-1.3,0-2.6c0-7.8-6.5-14.3-14.3-14.3h-49.3l-29.8,160.9H1676.4z M2056.5,290.6L2056.5,290.6
						c0-9.1-6.5-15.6-14.3-15.6h-46.7l-38.9,216.6h-59.7l88.2-490.4h131c24.6,0,44.1,19.5,44.1,44.1c0,2.6,0,5.2-1.3,9.1
						l-27.2,154.4c-3.9,20.8-18.2,35-37.6,41.5c16.9,6.5,24.6,22.1,22.1,40.2c0,2.6,0,5.2,0,7.8l-35,193.3h-59.7L2056.5,290.6z
						 M2052.6,215.4c10.4,0,18.2-7.8,20.8-16.9l23.4-127.1c0-1.3,0-1.3,0-2.6c0-7.8-6.5-14.3-14.3-14.3h-46.7l-28.5,159.6
						L2052.6,215.4L2052.6,215.4z M3438.1,0h133.6c24.6,0,44.1,19.5,44.1,44.1c0,2.6,0,5.2-1.3,7.8l-71.4,394.4
						c-3.9,24.6-25.9,44.1-53.2,44.1h-141.4L3438.1,0z M3469.3,435.9c10.4,0,18.2-7.8,20.8-16.9l63.6-347.7c0-1.3,0-1.3,0-2.6
						c0-7.8-6.5-14.3-14.3-14.3h-53.2l-68.8,380.1h51.9V435.9z M3708,0h83c23.4,0,42.8,19.5,42.8,44.1c0,2.6,0,5.2,0,7.8
						l-70.1,394.4c-5.2,24.6-27.2,44.1-54.5,44.1h-81.7c-24.6,0-42.8-19.5-42.8-44.1c0-2.6,0-5.2,0-9.1l70.1-393.1
						C3660,19.5,3682,0,3708,0z M3644.4,421.6c0,7.8,6.5,14.3,14.3,14.3h31.1c10.4,0,18.2-7.8,20.8-16.9l62.3-347.7
						c0-1.3,0-1.3,0-2.6c0-7.8-6.5-14.3-14.3-14.3h-32.4c-9.1,0-18.2,7.8-20.8,16.9L3643.1,419
						C3644.4,420.3,3644.4,421.6,3644.4,421.6z"/>
					<g>
						<path d="M1999.4,644.8l3.9-32.4c0-5.2,1.3-10.4,2.6-15.6c0-2.6,1.3-9.1,1.3-11.7l0,0c-1.3,2.6-2.6,9.1-3.9,11.7
							c-2.6,5.2-3.9,10.4-6.5,15.6l-14.3,32.4H1999.4z"/>
						<path d="M1742.6,591.6h-14.3l-7.8,32.4h15.6c6.5,0,13-5.2,15.6-16.9C1754.2,594.2,1750.4,591.6,1742.6,591.6z"/>
						<path d="M1101.7,537.1v190.7H3839V537.1H1101.7z M1227.5,591.6h-35l-7.8,29.8h32.4l-3.9,16.9h-32.4l-9.1,36.3h35l-3.9,16.9
							h-54.5l29.8-115.5h54.5L1227.5,591.6z M1352.1,691.5h-20.8l-3.9-41.5c-1.3-14.3-2.6-27.2-1.3-46.7l0,0
							c-1.3,9.1-3.9,20.8-6.5,33.7c-2.6,11.7-5.2,23.4-7.8,32.4l-5.2,22.1h-19.5l29.8-115.5h20.8l3.9,42.8c1.3,13,2.6,27.2,1.3,46.7
							l0,0c2.6-10.4,3.9-22.1,6.5-32.4c2.6-11.7,5.2-22.1,7.8-32.4l6.5-23.4h19.5L1352.1,691.5z M1510.4,591.6h-22.1l-25.9,98.6
							h-19.5l25.9-98.6h-23.4l3.9-16.9h64.9L1510.4,591.6z M1634.9,591.6h-35l-7.8,29.8h32.4l-3.9,16.9h-32.4l-9.1,36.3h35
							l-3.9,16.9h-54.5l29.8-115.5h54.5L1634.9,591.6z M1772.4,603.2c-3.9,13-10.4,25.9-23.4,28.5l0,0c11.7,1.3,13,10.4,9.1,20.8
							c-1.3,5.2-9.1,33.7-5.2,36.3v2.6h-22.1c0-7.8,3.9-22.1,5.2-29.8c1.3-7.8,3.9-16.9-1.3-19.5c-5.2-1.3-10.4-1.3-15.6-1.3h-3.9
							l-13,49.3h-19.5l29.8-115.5h36.3C1767.2,574.7,1778.9,581.2,1772.4,603.2z M1904.7,591.6h-22.1l-25.9,98.6h-19.5l25.9-98.6
							h-23.4l3.9-16.9h64.9L1904.7,591.6z M2016.3,691.5h-20.8l2.6-29.8h-23.4l-13,29.8h-20.8l55.8-115.5h25.9L2016.3,691.5z
							 M2116.2,691.5h-19.5l29.8-115.5h19.5L2116.2,691.5z M2270.6,691.5h-19.5l-3.9-41.5c-1.3-14.3-2.6-27.2-1.3-46.7l0,0
							c-1.3,9.1-3.9,20.8-6.5,33.7c-2.6,11.7-5.2,23.4-7.8,32.4l-5.2,22.1H2207l29.8-115.5h20.8l3.9,42.8c1.3,13,2.6,27.2,1.3,46.7
							l0,0c2.6-10.4,3.9-22.1,6.5-32.4c2.6-11.7,5.2-22.1,7.8-32.4l6.5-23.4h19.5L2270.6,691.5z M2447,691.5h-19.5l9.1-36.3
							c6.5-23.4,13-46.7,19.5-68.8l0,0l-48,105.1h-11.7l7.8-105.1h-1.3c-5.2,23.4-10.4,46.7-16.9,68.8l-9.1,36.3h-19.5l29.8-115.5
							h31.1l-3.9,54.5c0,9.1-3.9,23.4-5.2,32.4l0,0c3.9-11.7,7.8-24.6,11.7-32.4l24.6-54.5h31.1L2447,691.5z M2609.2,591.6h-35
							l-7.8,29.8h32.4l-3.9,16.9h-32.4l-9.1,36.3h35l-3.9,16.9H2530l29.8-115.5h54.5L2609.2,591.6z M2720.7,691.5H2700l-3.9-41.5
							c-1.3-14.3-2.6-27.2-1.3-46.7l0,0c-1.3,9.1-3.9,20.8-6.5,33.7c-2.6,11.7-5.2,23.4-7.8,32.4l-5.2,22.1h-19.5l29.8-115.5h20.8
							l3.9,42.8c1.3,13,2.6,27.2,1.3,46.7l0,0c2.6-10.4,3.9-22.1,6.5-32.4c2.6-11.7,5.2-22.1,7.8-32.4l6.5-23.4h19.5L2720.7,691.5z
							 M2882.9,591.6h-22.1l-25.9,98.6h-19.5l25.9-98.6H2818l3.9-16.9h64.9L2882.9,591.6z M3095.6,609.7h-19.5
							c2.6-10.4,5.2-20.8-6.5-20.8c-6.5,0-11.7,2.6-13,10.4c-2.6,9.1,1.3,11.7,6.5,16.9c5.2,3.9,14.3,13,18.2,19.5
							c5.2,7.8,5.2,14.3,2.6,24.6c-5.2,22.1-22.1,33.7-41.5,33.7c-23.4,0-28.5-14.3-22.1-35l2.6-9.1h19.5l-1.3,6.5
							c-3.9,11.7-2.6,19.5,7.8,19.5c7.8,0,13-5.2,15.6-13c1.3-6.5,0-11.7-3.9-15.6c-7.8-9.1-19.5-15.6-23.4-27.2
							c-1.3-5.2-2.6-11.7,0-18.2c5.2-19.5,18.2-31.1,38.9-31.1C3106,572.1,3098.2,599.4,3095.6,609.7z M3203.3,642.2l-13,49.3h-19.5
							l13-49.3l-10.4-66.2h20.8l2.6,29.8c0,5.2,1.3,11.7,0,18.2l0,0c3.9-9.1,7.8-15.6,11.7-22.1l15.6-25.9h20.8L3203.3,642.2z
							 M3366.8,609.7h-18.2c2.6-10.4,5.2-20.8-6.5-20.8c-6.5,0-11.7,2.6-13,10.4c-2.6,9.1,1.3,11.7,6.5,16.9
							c5.2,3.9,14.3,13,18.2,19.5c5.2,7.8,5.2,14.3,2.6,24.6c-5.2,22.1-22.1,33.7-41.5,33.7c-23.4,0-28.5-14.3-22.1-35l2.6-9.1h19.5
							l-1.3,6.5c-3.9,11.7-2.6,19.5,7.8,19.5c7.8,0,13-5.2,15.6-13c1.3-6.5,0-11.7-3.9-15.6c-7.8-9.1-19.5-15.6-23.4-27.2
							c-1.3-5.2-2.6-11.7,0-18.2c5.2-19.5,18.2-31.1,38.9-31.1C3378.5,572.1,3370.7,599.4,3366.8,609.7z M3499.1,591.6h-23.4
							l-25.9,98.6h-19.5l25.9-98.6h-23.4l3.9-16.9h64.9L3499.1,591.6z M3628.8,591.6h-35l-7.8,29.8h32.4l-3.9,16.9h-32.4l-9.1,36.3
							h35l-3.9,16.9h-55.8l29.8-115.5h54.5L3628.8,591.6z M3775.4,691.5H3756l9.1-36.3c6.5-23.4,13-46.7,19.5-68.8l0,0l-48,105.1
							h-11.7l7.8-105.1h-1.3c-5.2,23.4-10.4,46.7-16.9,68.8l-9.1,36.3h-19.5l29.8-115.5h31.1l-3.9,54.5c0,9.1-3.9,23.4-5.2,32.4l0,0
							c3.9-11.7,7.8-24.6,11.7-32.4l24.6-54.5h31.1L3775.4,691.5z"/>
					</g>
				</g>
			</g>
		</g>
	</g>
</g>
</svg>
