<?xml version="1.0" encoding="utf-8"?>
<!-- Generator: Adobe Illustrator 25.1.0, SVG Export Plug-In . SVG Version: 6.00 Build 0)  -->
<svg version="1.1" id="Layer_1" xmlns="http://www.w3.org/2000/svg" xmlns:xlink="http://www.w3.org/1999/xlink" x="0px" y="0px"
	 viewBox="0 0 3839.5 1262.1" style="enable-background:new 0 0 3839.5 1262.1;" xml:space="preserve">
<style type="text/css">
	.st0{fill:#444444;}
	.st1{fill:none;stroke:#BCBCBC;stroke-width:40.0516;stroke-linecap:round;stroke-miterlimit:10;}
	.st2{fill:#BCBCBC;}
	.st3{fill:#FFDD34;}
	.st4{fill:#7B46CE;}
	.st5{fill:none;stroke:#7B46CE;stroke-width:40.0516;stroke-linecap:round;stroke-miterlimit:10;}
	.st6{fill:#FF3ABD;}
	.st7{fill:none;stroke:#BCBCBC;stroke-width:40.1142;stroke-linecap:round;stroke-miterlimit:10;}
	.st8{fill:none;stroke:#7B46CE;stroke-width:40.1142;stroke-linecap:round;stroke-miterlimit:10;}
	.st9{fill:#E0E0E0;}
	.st10{fill:#FFFFFF;}
	.st11{fill:none;stroke:#FFFFFF;stroke-width:6.2774;stroke-miterlimit:10;}
	.st12{fill:none;stroke:#FFFFFF;stroke-width:6.0077;stroke-miterlimit:10;}
	.st13{fill:none;stroke:#000000;stroke-width:6.2774;stroke-miterlimit:10;}
	.st14{fill:none;stroke:#000000;stroke-width:6.0077;stroke-miterlimit:10;}
	.st15{fill:none;stroke:#000000;stroke-width:6.2907;stroke-miterlimit:10;}
	.st16{fill:none;stroke:#000000;stroke-width:37.9754;stroke-linecap:round;stroke-miterlimit:10;}
	.st17{clip-path:url(#SVGID_2_);}
	.st18{fill:#FFFFFF;stroke:#000000;stroke-width:6.6268;stroke-miterlimit:10;}
	.st19{clip-path:url(#SVGID_4_);}
	.st20{fill:none;stroke:#000000;stroke-width:40.693;stroke-linecap:round;stroke-miterlimit:10;}
	.st21{clip-path:url(#SVGID_6_);}
	.st22{clip-path:url(#SVGID_8_);}
</style>
<g>
	<g>
		<path d="M132.1,1259.6v-125.4l-53,125.4H66.9l-52.8-125.4v125.4H0v-140.9h21.9l51.3,119.9l51.1-119.9h21.9v140.9H132.1z"/>
		<path d="M221.8,1262.1c-28.4,0-47.9-17.1-47.9-55.5v-87.9H188v87.9c0,28.8,11.8,42.5,33.9,42.5c21.7,0,33.8-13.7,33.8-42.5v-87.9
			h14.1v87.9C269.8,1245,250.4,1262.1,221.8,1262.1z"/>
		<path d="M297.6,1259.6v-140.9h14.1v128.1H370v12.8H297.6z"/>
		<path d="M409.1,1131.5v128.1H395v-128.1h-32.2v-12.8h78.5v12.8H409.1z"/>
		<path d="M455.9,1259.6v-140.9H470v140.9H455.9z"/>
		<path d="M629.9,1259.6v-125.4l-53,125.4h-12.2l-52.8-125.4v125.4h-14.1v-140.9h21.9l51.3,119.9l51.1-119.9H644v140.9H629.9z"/>
		<path d="M671.8,1259.6v-140.9h77v12.8h-62.9v50.5h60.8v12.8h-60.8v52.1h62.9v12.8H671.8z"/>
		<path d="M810.7,1259.6h-38v-140.9h33.2c25.5,0,40.4,3.1,53.8,11.1c21,12.4,32,33.3,32,59.8
			C891.7,1230.3,865.8,1259.6,810.7,1259.6z M851.9,1140.7c-10.7-6.5-24-9.1-45.4-9.1h-19.6v115.3h19.6c25,0,39.5-3.6,50.7-12.6
			c13-10.5,20.2-26.7,20.2-45.2C877.4,1168.1,868.1,1150.4,851.9,1140.7z"/>
		<path d="M913.4,1259.6v-140.9h14.1v140.9H913.4z"/>
		<path d="M1064.3,1259.6l-20.4-47.5h-65.6l-20.6,47.5h-14.9l60.4-140.9h15.8l60.6,140.9H1064.3z M1011.3,1134.8l-27.6,64.6h54.7
			L1011.3,1134.8z"/>
		<path d="M1146.7,1259.6v-140.9h77v12.8h-62.9v50.5h60.8v12.8h-60.8v52.1h62.9v12.8H1146.7z"/>
		<path d="M1345.7,1259.6l-83.9-123.9v123.9h-14.1v-140.9h19.1l78.9,116.9v-116.9h14.1v140.9H1345.7z"/>
		<path d="M1420.7,1131.5v128.1h-14.1v-128.1h-32.2v-12.8h78.5v12.8H1420.7z"/>
		<path d="M1467.6,1259.6v-140.9h77v12.8h-62.9v50.5h60.8v12.8h-60.8v52.1h62.9v12.8H1467.6z"/>
		<path d="M1622.5,1207l39.5,52.6h-17.5l-47.5-63.9c39.5,0,52.8-6.8,52.8-32.2c0-23.5-14.5-32-47.3-32h-19.8v128.1h-14.1v-140.9
			h34.9c44.2,0,60.6,16,60.6,45.4C1664.1,1189.1,1649.6,1204.2,1622.5,1207z"/>
		<path d="M1716.3,1131.5v128.1h-14.1v-128.1h-32.2v-12.8h78.5v12.8H1716.3z"/>
		<path d="M1862.6,1259.6l-20.4-47.5h-65.6l-20.6,47.5h-14.9l60.4-140.9h15.8l60.6,140.9H1862.6z M1809.6,1134.8l-27.7,64.6h54.7
			L1809.6,1134.8z"/>
		<path d="M1893.4,1259.6v-140.9h14.1v140.9H1893.4z"/>
		<path d="M2033.3,1259.6l-83.9-123.9v123.9h-14.1v-140.9h19.1l78.9,116.9v-116.9h14.1v140.9H2033.3z"/>
		<path d="M2207.3,1259.6v-125.4l-53,125.4h-12.2l-52.8-125.4v125.4h-14.1v-140.9h21.9l51.3,119.9l51.1-119.9h21.9v140.9H2207.3z"/>
		<path d="M2249.1,1259.6v-140.9h77v12.8h-62.9v50.5h60.8v12.8h-60.8v52.1h62.9v12.8H2249.1z"/>
		<path d="M2448.1,1259.6l-83.9-123.9v123.9h-14.1v-140.9h19.1l78.9,116.9v-116.9h14.1v140.9H2448.1z"/>
		<path d="M2523.1,1131.5v128.1H2509v-128.1h-32.2v-12.8h78.5v12.8H2523.1z"/>
		<path d="M2662.8,1202.6h-27.1v57h-14.1v-140.9h38.9c38.7,0,54.3,13.1,54.3,42.7C2714.8,1188.1,2701.1,1202.6,2662.8,1202.6z
			 M2655.7,1131.5h-20v58.3h26.1c28,0,38.7-8,38.7-28.4C2700.5,1132.9,2682.6,1131.5,2655.7,1131.5z"/>
		<path d="M2733.2,1259.6v-140.9h14.1v128.1h58.3v12.8H2733.2z"/>
		<path d="M2935.8,1259.6l-20.4-47.5h-65.6l-20.6,47.5h-14.9l60.4-140.9h15.8l60.6,140.9H2935.8z M2882.8,1134.8l-27.7,64.6h54.7
			L2882.8,1134.8z"/>
		<path d="M3001.1,1212.5v47.1H2987v-47.1l-48.8-93.8h15.6l40,78.9l41-78.9h15.4L3001.1,1212.5z"/>
		<path d="M3064,1259.6v-140.9h77v12.8h-62.9v50.5h60.8v12.8h-60.8v52.1h62.9v12.8H3064z"/>
		<path d="M3218.9,1207l39.5,52.6h-17.5l-47.5-63.9c39.5,0,52.8-6.8,52.8-32.2c0-23.5-14.5-32-47.3-32h-19.8v128.1H3165v-140.9h34.9
			c44.2,0,60.6,16,60.6,45.4C3260.5,1189.1,3246,1204.2,3218.9,1207z"/>
		<path d="M3372.3,1202.6h-27.1v57h-14.1v-140.9h38.9c38.7,0,54.3,13.1,54.3,42.7C3424.3,1188.1,3410.6,1202.6,3372.3,1202.6z
			 M3365.2,1131.5h-20v58.3h26.1c28,0,38.7-8,38.7-28.4C3410,1132.9,3392.1,1131.5,3365.2,1131.5z"/>
		<path d="M3510.6,1262.1c-42.1,0-74-31.3-74-72.4c0-42.1,31.1-73.4,73-73.4c29.2,0,54,14.9,64.8,39.1h-15.8
			c-12-18.9-28.6-26.1-48.4-26.1c-33.5,0-59.3,25.9-59.3,59.9c0,33,26.9,60,59.5,60c20.6,0,34.1-7.8,49-26.5h15.6
			C3561,1248.8,3539.2,1262.1,3510.6,1262.1z"/>
		<path d="M3662.2,1131.5v50.9h55.3v12.8h-55.3v64.4h-14.1v-140.9h71.5v12.8L3662.2,1131.5L3662.2,1131.5z"/>
		<path d="M3822.9,1259.6l-39.8-60.2l-40,60.2h-16.6l47.9-72.1l-45.2-68.8h16.6l37.4,56.4l37.2-56.4h16.4l-45.2,68.8l48,72.1H3822.9
			z"/>
		<path d="M3606.9,1201.9c-5.7,0-10.3-4.5-10.3-10.3c0-5.7,4.6-10.3,10.3-10.3c5.5,0,10.3,4.6,10.3,10.3
			C3617.2,1197.3,3612.5,1201.9,3606.9,1201.9z"/>
	</g>
	<g>
		<path d="M1126.5,34.5L1126.5,34.5l-174.1,0v0h-69.3v936.1h95.3V711.9h148.1c0,0,0,0,0,0C1578.1,711.9,1578.1,34.5,1126.5,34.5z
			 M1126.5,616.6L1126.5,616.6l-148.1,0V129.8h148.1c0,0,0,0,0,0C1451,129.8,1451,616.6,1126.5,616.6z"/>
		<path d="M1990.9,882.1c-217.3,0-393.4-176.1-393.4-393.4c0-217.3,176.1-393.4,393.4-393.4c147.3,0,275.6,81,343,200.8h106.2
			C2365.4,122,2192.4,0,1990.9,0c-269.9,0-488.7,218.8-488.7,488.7c0,269.9,218.8,488.7,488.7,488.7c201.5,0,374.5-122,449.3-296.2
			h-106.2C2266.5,801.1,2138.2,882.1,1990.9,882.1z"/>
		<rect x="2379.4" y="397.3" width="133.7" height="182.8"/>
		<polygon points="3056.1,551.9 3056.1,368.1 2779.6,368.1 2779.6,201.8 3056.1,201.8 3056.1,18 2779.6,18 2636.7,18 2595.8,18 
			2595.8,954.6 2779.6,954.6 2779.6,551.9 		"/>
		<polygon points="3543.7,452.9 3794.8,18 3582.5,18 3437.6,269 3292.7,18 3080.4,18 3331.5,452.9 3041.8,954.6 3254,954.6 
			3437.6,636.7 3621.2,954.6 3833.4,954.6 		"/>
	</g>
	<g>
		<circle class="st13" cx="374.1" cy="104.8" r="31.1"/>
		<polyline class="st13" points="400.9,793.4 381.9,804.5 174.3,682.8 191.8,672.5 		"/>
		<polyline class="st13" points="381.9,207.2 381.9,134.4 3.1,356.5 3.1,582.4 3.1,783.1 381.9,1005.2 760.7,783.1 760.7,582.4 
			429.7,776.5 		"/>
		<circle cx="418.5" cy="65.6" r="31.1"/>
		<g>
			<path d="M325.9,567.2c11-5.5,25.4-10.4,42.7-13.8l46.3-27.2V496c-52.2-0.4-98.3-8.7-135.2-21.6c27-19.4,74.8-34.1,135.2-35.4
				v-40.8c-79.4,1.4-143.6,23.5-176.5,57.8c-33.7-19-53-42.4-53-64.7c0-48.5,94.1-102.5,229.5-103.4v-40.7
				c-151.8,0.9-270.2,63.9-270.2,144.1c0,38.9,27.4,73.8,72.6,99.7c-1.9,6.5-2.9,13.3-2.9,20.2c0,28.6,17,53.3,46.8,71.9
				c-0.6,3.2-0.9,6.5-0.9,9.8c0,7.4,1.7,14.5,4.6,21.3l74.3-43.6C334.7,569.5,330.2,568.4,325.9,567.2z M282,548.4
				c-17.5-11.2-26.8-24.3-26.8-37.2c0-0.8,0-1.6,0.1-2.3c18.7,7.3,39.3,13.3,61.4,17.9C302.8,532.8,291.1,540.1,282,548.4z"/>
			<path d="M281.5,540.5c5-4.1,10.5-8,16.7-11.5c-12.3-3.1-24.2-6.7-35.6-10.7C265.2,525.8,271.7,533.5,281.5,540.5z"/>
			<path d="M414.9,489.7v-44.5c-47.8,1-91.4,10.9-120.7,27.3C330.3,483.6,371.7,489.4,414.9,489.7z"/>
			<path d="M191.8,391.3c0,18.9,16.6,39.5,45.7,56.8c35.7-34.2,101.2-54.8,177.5-56.2v-97.7c-61.3,0.4-118.6,11.9-161.8,32.7
				C214.7,345.4,191.8,369.4,191.8,391.3z"/>
		</g>
		<path d="M452,704.7c2.8,8.6,10.8,14.1,19.4,14.1c2.1,0,4.2-0.3,6.3-1c43.3-14,75.1-40.1,89.4-73.4c2.1-4.9,3.8-9.8,5-14.8
			c12.4-10.7,23.1-23,31.6-36.6c9.6-15.3,15.9-31.2,18.8-46.6c6.3-4.7,10.2-8,11.5-9.1c5.1-4.2,44.7-38,52.8-95.6
			c61-49.5,94.2-110.6,94.2-174.7c0-110.8-149.2-195.4-293.5-213.3c-0.9-0.1-1.7-0.2-2.5-0.2c-10.1,0-18.9,7.6-20.1,17.9
			c-1.4,11.2,6.5,21.3,17.7,22.7c124,15.3,257.8,85.8,257.8,172.9c0,44.3-21.5,85.6-55.6,120.6c0-0.2-0.1-0.4-0.1-0.6
			c-18.1-85.3-169.8-139.7-266.2-139.7c-153.4,0-273.6,63.3-273.6,144.2c0,38.9,27.4,73.8,72.6,99.7c-1.9,6.5-2.9,13.3-2.9,20.2
			c0,28.6,17,53.3,46.8,71.9c-0.6,3.2-0.9,6.5-0.9,9.8c0,49.9,69.4,87.6,161.4,87.6c18.9,0,37.1-1.8,54.4-5.4c-3.5,1.4-7.1,2.7-11,4
			C454.4,682.5,448.5,694,452,704.7z M543,547.6c-10.6-8.3-23-15.3-36.3-21.1c23.7-5.3,47.4-12.6,70.3-21.7c1.1,1.8,2.1,3.6,3,5.5
			c1.9,4,3.1,8.7,3.4,13.8C572.8,531.2,559.1,539.6,543,547.6z M418.4,496.1c-53.7,0-101-8.4-138.7-21.7
			c28.2-20.2,79-35.6,143.2-35.6c40.1,0,88.4,12.6,121.8,34.5C503.3,487.9,459.7,496.1,418.4,496.1z M496.7,566.7
			c-22.9,7.4-48.2,12.4-74.4,12.4c-38,0-70.5-4.6-96.4-12c20.8-10.5,53.7-18.7,95.8-18.7C444.6,548.5,473.8,555.7,496.7,566.7z
			 M618.2,496c-0.5-1.1-1-2.2-1.5-3.3c-0.8-1.6-1.6-3.1-2.4-4.7c5.4-2.8,10.8-5.6,16.1-8.6C626.2,486.3,621.9,491.8,618.2,496z
			 M238.5,456c-33.7-19-53-42.4-53-64.7c0-48.9,95.7-103.5,232.9-103.5c89.7,0,214.3,50.6,226.4,107.5c1.8,8.6,2.6,16.7,2.7,24.3
			c-18.2,13.4-38.3,25.4-59.6,35.7c-41.5-37.4-109.3-57.2-165-57.2C339.9,398.1,272.4,420.6,238.5,456z M255.2,511.2
			c0-0.8,0-1.6,0.1-2.3c18.7,7.3,39.3,13.3,61.4,17.9c-13.9,6-25.6,13.3-34.7,21.6C264.5,537.2,255.2,524.1,255.2,511.2z
			 M421.8,639.8c-61.3,0-104.2-19.2-116.8-36.7c32.6,10.8,72.5,16.8,117.3,16.8c40.5,0,78.3-9.8,110.4-22.7c1,2.7,1.6,6.2,1.6,10.5
			C505,628.2,465.7,639.8,421.8,639.8z"/>
		<g>
			<path d="M506.6,513.2c0.3-2.4-0.8-4.7-2.8-6c-23.9-15.7-56.4-27.2-88.9-32.4v6.4c30.5,5,61.7,15.7,85.5,31.3
				c-30.3,10.7-61.8,17.9-92.7,21l-12.8,7.3c35-2.2,71.8-9.8,107.6-22.4C504.7,517.6,506.3,515.6,506.6,513.2z"/>
			<path d="M583,513.2c-5.2,2.9-10.5,5.7-15.9,8.4c-1.5,0.8-2.7,2.1-3.2,3.7c-0.5,1.6-0.3,3.4,0.5,4.9c0.8,1.4,1.5,2.9,2.2,4.4
				c0.5,1,0.9,2,1.3,3c0.8,2,2.6,3.4,4.8,3.8c0.3,0.1,0.7,0.1,1,0.1c1.8,0,3.5-0.8,4.7-2.1c4.8-5.4,9.1-11.2,12.9-17.3
				c1.5-2.4,1.2-5.6-0.8-7.6c-1.2-1.3-2.9-1.9-4.5-1.9C585,512.4,584,512.7,583,513.2z M573.8,535.2c-0.5-1.1-1-2.2-1.5-3.3
				c-0.8-1.6-1.6-3.1-2.4-4.7c5.4-2.8,10.8-5.6,16.1-8.6C581.8,525.5,577.5,531,573.8,535.2z"/>
			<path d="M609.4,458.8c0-8.4-1-17-2.8-25.6c-8.2-38.5-58.4-66.3-87.7-79.5c-32.6-14.7-69.3-25-104-29.8v6.3
				c82.7,11.8,175.2,55.8,185.5,104.4c1.8,8.6,2.6,16.7,2.7,24.3c-18.2,13.4-38.3,25.4-59.6,35.7c-32.8-29.5-82-48.1-128.6-54.6v6.4
				c43.1,6.2,91.5,23.2,124.4,52.8c1.2,1.1,2.7,1.6,4.2,1.6c0.9,0,1.9-0.2,2.7-0.6c21.9-10.6,42.3-22.8,60.6-36.3
				C608.5,462.7,609.4,460.8,609.4,458.8z"/>
			<path d="M377.4,685.3c44.4,0,85.6-11.8,116.1-33.3c1.7-1.2,2.7-3.1,2.7-5.1c0-4.7-0.7-9-2-12.6c-0.6-1.6-1.8-2.9-3.3-3.6
				c-0.8-0.4-1.7-0.5-2.6-0.5c-0.8,0-1.6,0.2-2.3,0.5c-36.8,14.8-73.1,22.3-108,22.3c-42.9,0-82.8-5.7-115.4-16.5
				c-0.6-0.2-1.3-0.3-2-0.3c-2,0-3.9,0.9-5.1,2.6c-1.6,2.2-1.6,5.2,0,7.4C269.2,664.9,313.2,685.3,377.4,685.3z M377.9,659.1
				c40.5,0,78.3-9.8,110.4-22.7c1,2.7,1.6,6.2,1.6,10.5c-29.3,20.6-68.6,32.2-112.5,32.2c-61.3,0-104.2-19.2-116.8-36.7
				C293.1,653.1,333,659.1,377.9,659.1z"/>
			<path d="M443.1,92.8c-0.8-0.1-1.7-0.2-2.5-0.2c-10.1,0-18.9,7.5-20.2,17.9c-1.4,11.1,6.5,21.3,17.7,22.7
				c124,15.3,257.8,85.8,257.8,172.9c0,44.3-21.4,85.6-55.6,120.6c0-0.2-0.1-0.4-0.1-0.6c-15.7-73.9-131.8-124.7-225.3-136.8v6.4
				c39.6,5.3,82.4,17.4,118.9,34.3c56.9,26.4,92.5,61,100.3,97.4l0.2,0.7c0.5,2.2,2.2,4,4.4,4.7c0.6,0.2,1.1,0.2,1.7,0.2
				c1.7,0,3.3-0.7,4.5-1.9c37.5-38.5,57.4-81.7,57.4-125c0-90.5-136.7-163.5-263.3-179.1c-3.7-0.5-7.1-2.3-9.4-5.3
				s-3.3-6.6-2.9-10.4c0.9-7,6.9-12.3,14-12.3c0.6,0,1.1,0,1.7,0.1c72.4,8.9,144.6,34.7,198.1,70.8c74.3,50,89.9,101.7,89.9,136.3
				c0,62.3-31.8,121-91.9,169.8c-1.2,1-2,2.4-2.3,4c-7.8,55.6-46.2,88.1-50.7,91.8c-1,0.9-4.9,4.2-11.2,8.9
				c-1.3,0.9-2.1,2.3-2.4,3.9c-2.8,15-8.8,29.9-17.9,44.4c-8.2,13-18.4,24.8-30.4,35.2c-1,0.8-1.7,2-2,3.2
				c-1.2,4.7-2.8,9.3-4.7,13.9c-13.6,31.7-44,56.5-85.6,70c-1.4,0.5-2.9,0.7-4.3,0.7c-6.1,0-11.5-3.9-13.4-9.7
				c-1.2-3.6-0.9-7.4,0.9-10.7s4.6-5.8,8.2-7c4-1.3,7.8-2.7,11.5-4.2c3-1.2,4.6-4.5,3.6-7.6c-0.8-2.7-3.3-4.5-6-4.5
				c-0.4,0-0.8,0-1.3,0.1c-17,3.5-34.9,5.3-53.1,5.3c-83.9,0-148.2-31.5-154.5-74.3l-5.8,3.3c8.8,44.7,74.7,77.3,160.3,77.3
				c18.9,0,37.1-1.8,54.4-5.4c-3.5,1.4-7.1,2.7-11,4c-10.7,3.5-16.6,14.9-13.1,25.6c2.8,8.6,10.8,14.1,19.4,14.1
				c2.1,0,4.2-0.3,6.3-1c43.3-14,75.1-40.1,89.4-73.4c2.1-4.9,3.8-9.8,5-14.8c12.4-10.7,23.1-23,31.6-36.6
				c9.6-15.3,15.9-31.2,18.8-46.6c6.3-4.7,10.2-8,11.5-9.1c5.1-4.2,44.7-38,52.8-95.7c61-49.5,94.2-110.6,94.2-174.7
				C736.6,195.3,587.4,110.6,443.1,92.8z"/>
			<path d="M501.5,592.5c14-7,27.8-15.1,41-23.9c1.9-1.2,2.9-3.4,2.8-5.6c-0.4-6-1.8-11.4-4-16.1c-1-2.1-2.1-4.1-3.3-6
				c-1.2-1.9-3.2-3-5.4-3c-0.8,0-1.6,0.1-2.3,0.4c-22.6,9-45.9,16.2-69.3,21.4c-2.7,0.6-4.6,2.8-4.9,5.5c-0.3,2.7,1.3,5.3,3.8,6.4
				c13.5,5.9,25.3,12.7,34.9,20.2c1.1,0.9,2.5,1.3,3.9,1.3C499.6,593.1,500.6,592.9,501.5,592.5z M462.3,565.8
				c23.7-5.3,47.4-12.6,70.3-21.7c1.1,1.8,2.1,3.6,3,5.5c1.9,4,3.1,8.7,3.4,13.8c-10.6,7.1-24.3,15.5-40.4,23.5
				C488.1,578.6,475.6,571.5,462.3,565.8z"/>
			<path d="M279.8,612.5c28.3,8.1,61.3,12.2,98.1,12.2c24.5,0,50.2-4.3,76.3-12.7c2.4-0.8,4.2-3,4.3-5.5c0.2-2.6-1.2-5-3.5-6.1
				c-24.3-11.6-54-18.9-77.6-18.9c-24.6,0-47.6,2.8-67.5,7.9l-34.1,19.5C276.5,610.6,277.9,611.9,279.8,612.5z M377.4,587.7
				c22.8,0,52,7.3,74.9,18.3c-22.9,7.4-48.2,12.4-74.4,12.4c-38,0-70.4-4.6-96.4-12C302.3,595.9,335.2,587.7,377.4,587.7z"/>
		</g>
		<polygon points="418.1,767.9 418.1,968.7 793.7,748.4 793.7,547.6 		"/>
		<g>
			<polygon points="268.6,683.9 36.2,547.6 36.2,547.6 36.2,547.6 36.2,748.4 411.8,968.7 411.8,767.9 268.6,683.9 			"/>
			<path d="M36.2,321.8v218.6l177.3,104l46.1-27c-3.5-7.8-5.5-15.9-5.5-24.4c0-2.2,0.1-4.5,0.4-6.7c-30.3-20.1-46.3-45.9-46.3-75
				c0-5.8,0.6-11.6,1.9-17.2c-46.2-27.6-71.6-64-71.6-102.7c0-83.7,121.1-149.4,276.4-150.4V99.6L36.2,321.8z"/>
		</g>
	</g>
</g>
</svg>
