<?xml version="1.0" encoding="utf-8"?>
<!-- Generator: Adobe Illustrator 25.1.0, SVG Export Plug-In . SVG Version: 6.00 Build 0)  -->
<svg version="1.1" id="Layer_1" xmlns="http://www.w3.org/2000/svg" xmlns:xlink="http://www.w3.org/1999/xlink" x="0px" y="0px"
	 viewBox="0 0 3839.5 1242.2" style="enable-background:new 0 0 3839.5 1242.2;" xml:space="preserve">
<style type="text/css">
	.st0{fill:#444444;}
	.st1{fill:none;stroke:#BCBCBC;stroke-width:40.0516;stroke-linecap:round;stroke-miterlimit:10;}
	.st2{fill:#BCBCBC;}
	.st3{fill:#FFDD34;}
	.st4{fill:#7B46CE;}
	.st5{fill:none;stroke:#7B46CE;stroke-width:40.0516;stroke-linecap:round;stroke-miterlimit:10;}
	.st6{fill:#FF3ABD;}
	.st7{fill:none;stroke:#BCBCBC;stroke-width:40.1142;stroke-linecap:round;stroke-miterlimit:10;}
	.st8{fill:none;stroke:#7B46CE;stroke-width:40.1142;stroke-linecap:round;stroke-miterlimit:10;}
	.st9{fill:#E0E0E0;}
	.st10{fill:#FFFFFF;}
	.st11{fill:none;stroke:#FFFFFF;stroke-width:6.2774;stroke-miterlimit:10;}
	.st12{fill:none;stroke:#FFFFFF;stroke-width:6.0077;stroke-miterlimit:10;}
	.st13{fill:none;stroke:#000000;stroke-width:6.2774;stroke-miterlimit:10;}
	.st14{fill:none;stroke:#000000;stroke-width:6.0077;stroke-miterlimit:10;}
	.st15{fill:none;stroke:#000000;stroke-width:6.2907;stroke-miterlimit:10;}
	.st16{fill:none;stroke:#000000;stroke-width:37.9754;stroke-linecap:round;stroke-miterlimit:10;}
	.st17{clip-path:url(#SVGID_2_);}
	.st18{fill:#FFFFFF;stroke:#000000;stroke-width:6.6268;stroke-miterlimit:10;}
	.st19{clip-path:url(#SVGID_4_);}
	.st20{fill:none;stroke:#000000;stroke-width:40.693;stroke-linecap:round;stroke-miterlimit:10;}
	.st21{clip-path:url(#SVGID_6_);}
	.st22{clip-path:url(#SVGID_8_);}
</style>
<g>
	<g>
		<path class="st0" d="M190.5,1239.8v-123.4l-52.2,123.4h-12l-52-123.4v123.4H60.5v-138.7h21.6l50.5,118l50.3-118h21.6v138.7H190.5z
			"/>
		<path class="st0" d="M278.8,1242.2c-27.9,0-47.1-16.9-47.1-54.6v-86.5h13.9v86.5c0,28.3,11.7,41.8,33.4,41.8
			c21.4,0,33.2-13.5,33.2-41.8v-86.5h13.9v86.5C326.1,1225.3,306.9,1242.2,278.8,1242.2z"/>
		<path class="st0" d="M353.4,1239.8v-138.7h13.9v126.1h57.4v12.6H353.4z"/>
		<path class="st0" d="M463.1,1113.7v126.1h-13.9v-126.1h-31.7v-12.6h77.3v12.6H463.1z"/>
		<path class="st0" d="M509.2,1239.8v-138.7h13.9v138.7H509.2z"/>
		<path class="st0" d="M680.5,1239.8v-123.4l-52.2,123.4h-12l-52-123.4v123.4h-13.9v-138.7h21.6l50.4,118l50.3-118h21.6v138.7H680.5
			z"/>
		<path class="st0" d="M721.7,1239.8v-138.7h75.8v12.6h-61.9v49.7h59.8v12.6h-59.8v51.2h61.9v12.6H721.7z"/>
		<path class="st0" d="M858.4,1239.8h-37.4v-138.7h32.7c25.1,0,39.8,3,52.9,10.9c20.6,12.2,31.5,32.8,31.5,58.9
			C938.2,1210.9,912.7,1239.8,858.4,1239.8z M899,1122.7c-10.5-6.4-23.6-9-44.7-9H835v113.5h19.3c24.6,0,38.8-3.6,49.9-12.4
			c12.7-10.3,19.9-26.3,19.9-44.5C924.1,1149.7,914.9,1132.3,899,1122.7z"/>
		<path class="st0" d="M959.5,1239.8v-138.7h13.9v138.7H959.5z"/>
		<path class="st0" d="M1108.1,1239.8L1088,1193h-64.5l-20.3,46.7h-14.6l59.5-138.7h15.6l59.7,138.7H1108.1z M1055.9,1116.9
			l-27.2,63.6h53.9L1055.9,1116.9z"/>
		<path class="st0" d="M1189.2,1239.8v-138.7h75.8v12.6h-61.9v49.7h59.9v12.6h-59.9v51.2h61.9v12.6H1189.2z"/>
		<path class="st0" d="M1385,1239.8l-82.6-121.9v121.9h-13.9v-138.7h18.8l77.7,115v-115h13.9v138.7H1385z"/>
		<path class="st0" d="M1458.9,1113.7v126.1H1445v-126.1h-31.7v-12.6h77.3v12.6H1458.9z"/>
		<path class="st0" d="M1505,1239.8v-138.7h75.8v12.6h-61.9v49.7h59.8v12.6h-59.8v51.2h61.9v12.6H1505z"/>
		<path class="st0" d="M1657.5,1188l38.8,51.8H1679l-46.7-62.8c38.8,0,52-6.7,52-31.7c0-23.1-14.2-31.5-46.5-31.5h-19.5v126.1h-13.9
			v-138.7h34.3c43.5,0,59.7,15.8,59.7,44.7C1698.4,1170.3,1684.1,1185.2,1657.5,1188z"/>
		<path class="st0" d="M1749.7,1113.7v126.1h-13.9v-126.1h-31.7v-12.6h77.3v12.6H1749.7z"/>
		<path class="st0" d="M1893.8,1239.8l-20.1-46.7h-64.6l-20.3,46.7h-14.6l59.5-138.7h15.6l59.7,138.7H1893.8z M1841.6,1116.9
			l-27.2,63.6h53.8L1841.6,1116.9z"/>
		<path class="st0" d="M1924.1,1239.8v-138.7h13.9v138.7H1924.1z"/>
		<path class="st0" d="M2061.8,1239.8l-82.5-121.9v121.9h-13.9v-138.7h18.8l77.7,115v-115h13.9v138.7H2061.8z"/>
		<path class="st0" d="M2233,1239.8v-123.4l-52.2,123.4h-12l-52-123.4v123.4H2103v-138.7h21.6l50.5,118l50.3-118h21.6v138.7H2233z"
			/>
		<path class="st0" d="M2274.2,1239.8v-138.7h75.8v12.6h-61.9v49.7h59.8v12.6h-59.8v51.2h61.9v12.6H2274.2z"/>
		<path class="st0" d="M2470,1239.8l-82.6-121.9v121.9h-13.9v-138.7h18.8l77.7,115v-115h13.9v138.7H2470z"/>
		<path class="st0" d="M2543.9,1113.7v126.1H2530v-126.1h-31.7v-12.6h77.3v12.6H2543.9z"/>
		<path class="st0" d="M2681.3,1183.7h-26.6v56.1h-13.9v-138.7h38.3c38.1,0,53.5,12.9,53.5,42
			C2732.6,1169.4,2719,1183.7,2681.3,1183.7z M2674.4,1113.7h-19.7v57.4h25.7c27.6,0,38.1-7.9,38.1-28
			C2718.5,1115,2700.8,1113.7,2674.4,1113.7z"/>
		<path class="st0" d="M2750.7,1239.8v-138.7h13.9v126.1h57.4v12.6H2750.7z"/>
		<path class="st0" d="M2950.1,1239.8L2930,1193h-64.5l-20.3,46.7h-14.6l59.5-138.7h15.6l59.7,138.7H2950.1z M2897.9,1116.9
			l-27.2,63.6h53.9L2897.9,1116.9z"/>
		<path class="st0" d="M3014.4,1193.4v46.3h-13.9v-46.3l-48-92.3h15.4l39.4,77.7l40.4-77.7h15.2L3014.4,1193.4z"/>
		<path class="st0" d="M3076.2,1239.8v-138.7h75.8v12.6h-61.9v49.7h59.9v12.6h-59.9v51.2h61.9v12.6H3076.2z"/>
		<path class="st0" d="M3228.7,1188l38.8,51.8h-17.3l-46.7-62.8c38.8,0,52-6.7,52-31.7c0-23.1-14.3-31.5-46.5-31.5h-19.5v126.1
			h-13.9v-138.7h34.3c43.5,0,59.7,15.8,59.7,44.7C3269.6,1170.3,3255.3,1185.2,3228.7,1188z"/>
		<path class="st0" d="M3379.6,1183.7H3353v56.1h-13.9v-138.7h38.3c38.1,0,53.5,12.9,53.5,42
			C3430.9,1169.4,3417.4,1183.7,3379.6,1183.7z M3372.7,1113.7H3353v57.4h25.7c27.6,0,38.1-7.9,38.1-28
			C3416.8,1115,3399.2,1113.7,3372.7,1113.7z"/>
		<path class="st0" d="M3515.8,1242.2c-41.5,0-72.8-30.8-72.8-71.3c0-41.5,30.6-72.2,71.9-72.2c28.7,0,53.1,14.7,63.8,38.5h-15.6
			c-11.8-18.6-28.1-25.7-47.7-25.7c-33,0-58.3,25.5-58.3,58.9c0,32.5,26.5,59.1,58.5,59.1c20.3,0,33.6-7.7,48.2-26.1h15.4
			C3565.3,1229.1,3544,1242.2,3515.8,1242.2z"/>
		<path class="st0" d="M3665,1113.7v50.1h54.4v12.6H3665v63.4h-13.9v-138.7h70.4v12.6L3665,1113.7L3665,1113.7z"/>
		<path class="st0" d="M3823.2,1239.8l-39.2-59.3l-39.4,59.3h-16.3l47.1-70.9l-44.5-67.7h16.3l36.8,55.6l36.6-55.6h16.1l-44.5,67.7
			l47.3,70.9H3823.2z"/>
		<path class="st0" d="M3610.6,1182.9c-5.6,0-10.1-4.5-10.1-10.1c0-5.6,4.5-10.1,10.1-10.1c5.4,0,10.1,4.5,10.1,10.1
			C3620.7,1178.5,3616,1182.9,3610.6,1182.9z"/>
	</g>
	<g>
		<path class="st0" d="M1169.2,34L1169.2,34l-171.3,0v0h-68.2v921.4h93.8V700.7h145.7c0,0,0,0,0,0C1613.7,700.7,1613.7,34,1169.2,34
			z M1169.2,606.9L1169.2,606.9l-145.7,0V127.8h145.7c0,0,0,0,0,0C1488.6,127.8,1488.6,606.9,1169.2,606.9z"/>
		<path class="st0" d="M2020,868.2c-213.8,0-387.2-173.4-387.2-387.2c0-213.8,173.4-387.2,387.2-387.2c145,0,271.3,79.7,337.6,197.7
			h104.6C2388.6,120.1,2218.4,0,2020,0c-265.7,0-481,215.4-481,481c0,265.7,215.4,481,481,481c198.3,0,368.6-120.1,442.2-291.5
			h-104.6C2291.3,788.5,2165,868.2,2020,868.2z"/>
		<rect x="2402.4" y="391" class="st0" width="131.6" height="180"/>
		<polygon class="st0" points="3068.4,543.2 3068.4,362.3 2796.3,362.3 2796.3,198.6 3068.4,198.6 3068.4,17.7 2796.3,17.7 
			2655.6,17.7 2615.4,17.7 2615.4,939.6 2796.3,939.6 2796.3,543.2 		"/>
		<polygon class="st0" points="3548.4,445.7 3795.5,17.7 3586.6,17.7 3443.9,264.8 3301.3,17.7 3092.4,17.7 3339.5,445.7 
			3054.4,939.6 3263.3,939.6 3443.9,626.6 3624.6,939.6 3833.5,939.6 		"/>
	</g>
	<g>
		<path class="st1" d="M430.6,111.2c132.4,16.4,271.3,92.3,271.3,190c0,143.7-189.2,245.6-336.9,245.6
			c-137.7,0-249.3-55.9-249.3-123.2S227.3,301.9,365,301.9c95.4,0,227.9,53.5,242.5,121.6c17.2,81.1-43,128.4-43,128.4
			s-88.4,76.7-195.6,76.7s-184.5-36.5-184.5-86.9c0-50.4,78-91.3,185.1-91.3c66.4,0,148.3,30.9,172.6,81.8
			c24.3,50.7-32.9,156.1-173.8,156.1c-76.7,0-138.8-29.6-138.8-66.1c0-36.5,62.1-63.7,138.8-63.7c44.1,0,110,23.1,126.6,57.8
			c12.7,26.5-0.9,85-77.8,109.8"/>
		<circle class="st2" cx="365.1" cy="103.2" r="30.6"/>
		<g>
			<polygon class="st2" points="0,350.9 0,770.8 372.8,552.1 372.8,132.3 			"/>
			<polygon class="st2" points="372.8,791.8 372.8,989.4 745.6,770.8 745.6,573.2 			"/>
			<polygon class="st2" points="372.8,791.8 372.8,989.4 0,770.8 0,573.2 			"/>
		</g>
		<polygon class="st3" points="32.5,316.7 32.5,736.6 405.3,517.9 405.3,98.1 		"/>
		<circle class="st4" cx="408.8" cy="64.6" r="30.6"/>
		<path class="st5" d="M474.3,72.6c132.4,16.4,271.3,92.3,271.3,190c0,143.7-189.2,245.6-336.9,245.6
			c-137.7,0-249.3-55.9-249.3-123.2S271,263.3,408.7,263.3c95.4,0,227.9,53.5,242.5,121.6c17.2,81.1-43,128.4-43,128.4
			s-88.4,76.7-195.6,76.7s-184.5-36.5-184.5-86.9s78-91.3,185.1-91.3c66.4,0,148.3,30.9,172.6,81.8
			c24.3,50.7-32.9,156.1-173.8,156.1c-76.7,0-138.8-29.6-138.8-66.1c0-36.5,62.1-63.7,138.8-63.7c44.1,0,110,23.1,126.6,57.8
			c12.7,26.5-0.9,85-77.8,109.8"/>
		<polygon class="st6" points="405.3,757.6 405.3,955.2 778.1,736.6 778.1,539 		"/>
		<polygon class="st4" points="405.3,757.6 405.3,955.2 32.5,736.6 32.5,539 		"/>
	</g>
</g>
</svg>
