<svg enable-background="new 0 0 3839.5 1242.2" version="1.1" viewBox="0 0 3839.5 1242.2" xml:space="preserve" xmlns="http://www.w3.org/2000/svg">
<path fill="#444444" d="m2020 0c-265.6994 0-481 215.40054-481 481 0 265.69946 215.4006 481 481 481 198.2996 0 368.5994-120.10034 442.1992-291.5h-104.5996c-66.2998 117.99976-192.5998 197.69922-337.5996 197.69922-213.7996 0-387.1992-173.39964-387.1992-387.19922s173.3996-387.199219 387.1992-387.199219c144.9998 0 271.2998 79.699459 337.5996 197.699219h104.5996c-73.5998-171.39966-243.7996-291.5-442.1992-291.5zm595.4004 17.699219v921.900391h180.9004v-396.40039h272.0996v-180.89844h-272.0996v-163.70117h272.0996v-180.900391h-412.8008zm477 0 247.0996 428.000001-285.0996 493.90039h208.9004l180.5996-313 180.6992 313h208.9004l-285.0996-493.90039 247.0996-428.000001h-208.9004l-142.6992 247.101561-142.5996-247.101561zm-2162.70118 16.300781v921.40039h93.80078v-254.70117h145.6992c444.4992 0 444.4992-666.69922 0-666.69922h-171.29881zm93.80078 93.80078h145.6992c319.3994 0 319.3994 479.09961 0 479.09961h-145.6992zm1378.9004 263.19922v180h131.5996v-180zm1112.5 707.6992c-41.3 0-71.9004 30.7012-71.9004 72.2012 0 40.5 31.3008 71.2988 72.8008 71.2988 28.2 0 49.4984-13.0988 63.3984-38.7988h-15.3984c-14.6 18.4-27.9012 26.0996-48.2012 26.0996-32 0-58.5-26.5996-58.5-59.0996 0-33.4 25.3008-58.9004 58.3008-58.9004 19.6 0 35.8992 7.0992 47.6992 25.6992h15.5996c-10.7-23.8-35.0988-38.5-63.7988-38.5zm-2466.8008 2.3008-59.49999 138.6992h14.59959l20.3008-46.6992h64.5l20.0996 46.8008v-0.1016h15.3008l-59.7012-138.6992zm1842 0-59.5 138.6992h14.5996l20.3008-46.6992h64.5l20.0996 46.8008v-0.1016h15.3008l-59.7012-138.6992zm-2829.5996 0.1v138.7012h13.800781v-123.4004l51.999999 123.4004h12l52.19922-123.4008v123.4004h14v-138.7012h-21.59961l-50.30078 118-50.500001-118zm171.19922 0v86.5c0 37.7 19.20162 54.5996 47.10156 54.5996 28.09994 0 47.29883-16.8996 47.29883-54.5996v-86.5h-13.90039v86.5c0 28.3-11.79926 41.8008-33.19922 41.8008-21.69996 0-33.40039-13.5008-33.40039-41.8008v-86.5zm121.70117 0v138.7012h71.29883v-12.6016h-57.39844v-126.0996zm64.09961 0v12.5996h31.69922v126.1016h13.90039v-126.1016h31.70117v-12.5996zm91.69922 0v138.7012h13.90039v-138.7012zm41.20117 0v138.7012h13.90039v-123.4004l52 123.4004h12l52.19922-123.4008v123.4004h13.80078v-138.7012h-21.60156l-50.29883 118-50.40039-118zm171.29883 0v138.7012h75.80078v-12.6016h-61.90039v-51.1996h59.80078v-12.5996h-59.80078v-49.7012h61.90039v-12.5996zm99.30078 0v138.7012h37.40039c54.2999 0 79.79922-28.9004 79.69922-68.9004 0-26.1-10.90004-46.7004-31.5-58.9004-13.09998-7.9-27.80045-10.9004-52.90039-10.9004zm138.5 0v138.7012h13.90039v-138.7012zm229.6992 0v138.7012h75.8008v-12.6016h-61.9004v-51.1996h59.9004v-12.5996h-59.9004v-49.7012h61.9004v-12.5996zm99.3008 0v138.7012h13.9004v-121.9008l82.5996 121.9004h13.9004v-138.7012h-13.9004v115l-77.6992-115zm124.8008 0v12.5996h31.6992v126.1016h13.9004v-126.1016h31.6992v-12.5996zm91.6992 0v138.7012h75.8008v-12.6016h-61.9004v-51.1996h59.7988v-12.5996h-59.7988v-49.7012h61.9004v-12.5996zm199.0996 0v12.5996h31.7012v126.1016h13.8984v-126.1016h31.7012v-12.5996zm129.5996 0-59.5 138.7012h14.6016l20.2988-46.7012h64.5996l20.1016 46.7012h15.1992l-59.6992-138.7012zm90.4004 0v138.7012h13.9004v-138.7012zm41.3008 0v138.7012h13.9004v-121.9004l82.5 121.9004h14v-138.7012h-13.9004v115l-77.7012-115zm137.5996 0v138.7012h13.8008v-123.4004l52 123.4004h12l52.1992-123.4008v123.4004h14v-138.7012h-21.5996l-50.3008 118-50.5-118zm171.1992 0v138.7012h75.8008v-12.6016h-61.9004v-51.1996h59.8008v-12.5996h-59.8008v-49.7012h61.9004v-12.5996zm99.3008 0v138.7012h13.9004v-121.9008l82.5996 121.9004h13.9004v-138.7012h-13.9004v115l-77.6992-115zm124.8008 0v12.5996h31.6992v126.1016h13.9004v-126.1016h31.6992v-12.5996zm142.5 0v138.7012h13.8984v-56.1016h26.6016c37.6998 0 51.2988-14.2996 51.2988-40.5996 0-29.1-15.4-42-53.5-42zm109.8984 0v138.7012h71.3008v-12.6016h-57.4004v-126.0996zm201.8008 0 48 92.3008v46.2988h13.9004v-46.2988l48.5-92.3008h-15.2012l-40.3984 77.7012-39.4004-77.7012zm123.6992 0v138.7012h75.8008v-12.6016h-61.9004v-51.1996h59.9004v-12.5996h-59.9004v-49.7012h61.9004v-12.5996zm262.9004 0v138.7012h13.9004v-56.1016h26.5996c37.8 0 51.3008-14.2996 51.3008-40.5996 0-29.1-15.4-42-53.5-42zm312 0v138.7012h13.9004v-63.4004h54.4004v-12.5996h-54.4004v-50.1016h56.5v-12.5996zm-2046.6992 0.1v138.7012h13.9004v-126.0996h19.5c32.2998 0 46.5 8.4 46.5 31.5 0 25-13.2002 31.6992-52 31.6992l46.6992 62.8h17.3008l-38.8008-51.8008c26.6-2.8 40.9004-17.6996 40.9004-42.0996 0-28.9-16.2012-44.7012-59.7012-44.7012zm1571.1992 0v138.7012h13.9004v-126.0996h19.5c32.2 0 46.5 8.4 46.5 31.5 0 25-13.2 31.6992-52 31.6992l46.6992 62.8008h17.3008l-38.8008-51.8016c26.6-2.8 40.9004-17.6996 40.9004-42.0996 0-28.9-16.1994-44.7012-59.6992-44.7012zm555.3008 0 44.5 67.7012-47.0996 70.9004h16.2988l39.4004-59.3016 39.1992 59.3008h16.3008l-47.3008-70.9004 44.5-67.7012h-16.0996l-36.5996 55.6016-36.8008-55.6016zm-2895.9004 12.4992h19.30078c21.09996 0 34.19924 2.6 44.69922 9 15.89996 9.6 25.09961 27.0016 25.09961 47.6016 0 18.2-7.20041 34.2-19.90039 44.5-11.09998 8.8-25.29848 12.3984-49.89844 12.3984h-19.30078zm1819.6992 0h19.7012c26.4 0 44.0996 1.3004 44.0996 29.4004 0 20.1-10.4996 28-38.0996 28h-25.7012zm698.3008 0h19.6992c26.5 0 44.1016 1.3004 44.1016 29.4004 0 20.1-10.5016 28-38.1016 28h-25.6992zm-2297.0996 3.2012 26.6992 63.5996h-53.9004zm785.6992 0 26.5996 63.5996h-53.7988zm1056.3008 0 26.6992 63.5996h-53.9004zm712.6992 45.7988c-5.6 0-10.0996 4.5016-10.0996 10.1016s4.4996 10.0996 10.0996 10.0996c5.4 0 10.0996-4.3996 10.0996-10.0996 0-5.6-4.6996-10.1016-10.0996-10.1016z"/><path d="m365.09961 72.599609a30.6 30.6 0 0 0-30.59961 30.599611 30.6 30.6 0 0 0 30.59961 30.60156 30.6 30.6 0 0 0 6.45508-0.76953l-371.55469 217.86914v419.90039l372.80078 218.59961 372.79883-218.59961v-197.60156l-372.79883 218.60156-204.3457-119.82422 46.07617-27.02929c8.36187 18.17821 26.26295 32.19487 46.99414 42.07031 28.68383 13.66372 65.84936 21.30859 106.77539 21.30859 18.96136 0 36.66039-1.81324 53.06445-5.10937-3.31638 1.33272-6.72301 2.6345-10.41211 3.82422a20.025801 20.025801 0 0 0-12.9121 25.20507 20.025801 20.025801 0 0 0 25.20507 12.91407c55.71024-17.96638 85.40812-53.45456 93.70899-87.57618 5.49292-4.82339 10.59493-9.84585 15.20312-15.0625 18.13494-20.52938 29.95794-43.74501 34.07032-66.43945 6.48293-4.96386 10.39521-8.24504 10.82421-8.60351 0.55646-0.45543 42.67246-35.07409 51.66016-94.07813 54.55995-44.27465 93.21289-103.21146 93.21289-172.20117 0-58.3401-40.64409-106.97031-95.13281-142.29102-54.48873-35.32069-124.63819-59.02377-193.73047-67.582028a20.025801 20.025801 0 0 0-22.33594 17.412108 20.025801 20.025801 0 0 0 17.41211 22.33594c63.30746 7.84171 128.80807 30.28919 176.86914 61.44336s76.86719 69.32194 76.86719 108.68164c0 44.2936-20.71373 84.99336-54.56445 119.54883-0.0968-0.47721-0.11909-0.9232-0.22071-1.40235l-4e-3 -0.0215-6e-3 -0.0215c-9.67714-45.14006-52.37876-77.08898-102.0564-100.28512-47.20714-22.04258-102.67184-35.57961-152.22266-36.88672v-149.37109a30.6 30.6 0 0 0 22.89844-29.56055 30.6 30.6 0 0 0-30.59961-30.599611zm211.95312 494.878911c-4e-3 3e-3 -0.17968 0.16796-0.17968 0.16796l0.75-0.62109s-0.54772 0.43424-0.57032 0.45313zm-204.25195-245.28125c42.56276 1.37192 93.73892 13.71565 135.27734 33.11132 44.05752 20.57192 74.89799 49.40922 79.83594 72.36524 1.84014 8.68302 2.66576 16.86999 2.72266 24.5625-4.18217 3.04573-8.44337 6.04003-12.83594 8.9414-14.37047 9.492-29.79369 18.05318-45.82226 25.67774-14.88417-13.46116-32.9013-24.37025-52.28321-32.95313-33.56219-14.86231-71.51144-22.95853-106.89453-23.43554zm0 148.32421c29.32971 0.49969 62.69644 7.61103 90.67774 20.00196 9.1986 4.0734 17.63771 8.75709 25.30078 13.79687-38.66561 13.39274-78.81614 21.27-115.97852 22.25586zm201.66797 39.52735c-4.43211 7.19622-8.94515 12.7152-12.85352 16.95703-0.48307-1.1504-0.91153-2.31876-1.45312-3.44922-0.75012-1.57052-1.70014-3.01423-2.52344-4.53906 5.68693-2.8727 11.29911-5.86227 16.83008-8.96875zm-53.47656 25.41992c1.0908 1.78139 2.17833 3.56464 3.03515 5.35937l8e-3 0.0137 6e-3 0.0137c1.72358 3.59615 2.74868 8.22108 3.02929 13.50195-10.49551 6.99582-23.49387 14.9771-39.39453 22.96485-10.63333-8.29411-23.01771-14.91112-35.93359-20.47266 23.37097-5.20471 46.6494-12.39226 69.25-21.38086zm-152.69141 43.05664c18.55339 0 44.30464 5.2681 65.85352 14.32422 2.59275 1.08963 5.10347 2.24717 7.53906 3.44922-22.53859 7.28121-47.19529 12.27539-72.79297 12.27539-29.20462 0-55.63877-3.06772-78.54297-8.10938l30.46875-17.875c14.55307-2.55886 30.58893-4.06445 47.47461-4.06445zm108.92383 47.89649c0.882 2.47778 1.3541 6.09562 1.21484 10.5957-25.724 18.14294-61.93115 31.25586-110.13867 31.25586-35.77381 0-68.00971-7.15479-89.55078-17.41602-13.01037-6.19757-20.89798-12.83392-25.1582-18.64844 32.49656 10.69467 71.62499 16.41602 115.30859 16.41602 39.95452 0 76.86675-9.6311 108.32422-22.20312z" color="#000000" fill="#bcbcbc" stroke-linecap="round" stroke-miterlimit="10" style="-inkscape-stroke:none"/><path d="m32.5 316.7v419.9l372.8-218.7v-419.8z" fill="#ffdd34"/><path d="m408.80078 34a30.6 30.6 0 0 0-30.60156 30.599609 30.6 30.6 0 0 0 30.60156 30.59961 30.6 30.6 0 0 0 30.59961-30.59961 30.6 30.6 0 0 0-30.59961-30.599609zm67.96094 18.726562a20.025801 20.025801 0 0 0-22.33594 17.41211 20.025801 20.025801 0 0 0 17.41211 22.335937c63.30746 7.841711 128.80807 30.287241 176.86914 61.441411 48.06107 31.15415 76.86719 69.32389 76.86719 108.68359 0 44.29361-20.71178 84.99336-54.5625 119.54883-0.0968-0.47727-0.11907-0.92315-0.2207-1.40235l-6e-3 -0.0215-4e-3 -0.0234c-9.67716-45.14016-52.38072-77.08707-102.05836-100.28322-49.67765-23.19615-108.58008-37.14453-160.02344-37.14453-71.487 0-136.34458 13.86601-185.06836 37.64062-48.72378 23.77462-84.25586 59.36679-84.25586 104.08594 0 40.77305 29.58666 74.0858 71.70898 97.99219-1.94117 6.41905-3.00976 13.12107-3.00976 20.10742 0 29.46643 18.80501 53.55038 46.09961 70.76562-0.62217 3.17508-1 6.41871-1 9.73438 0 29.60704 23.36695 51.15268 52.05078 64.81641 28.68383 13.66372 65.84936 21.31054 106.77539 21.31054 18.96134 0 36.6604-1.81324 53.06445-5.10937-3.31632 1.33269-6.72116 2.63452-10.41015 3.82422a20.025801 20.025801 0 0 0-12.91407 25.20507 20.025801 20.025801 0 0 0 25.20704 12.91211c55.7097-17.9662 85.40583-53.45289 93.70703-87.57421 5.49311-4.82353 10.59674-9.84765 15.20508-15.06446 18.13444-20.52881 29.95567-43.7417 34.06835-66.43554 6.47607-4.95852 10.37426-8.2295 10.8125-8.59571 0.52241-0.42743 42.68049-35.05964 51.67188-94.08789 54.56009-44.27467 93.21289-103.21134 93.21289-172.20117 0-58.3401-40.64409-106.97031-95.13281-142.29102-54.48873-35.320694-124.63819-59.023768-193.73047-67.582028zm143.97851 476.162108c-3e-3 3e-3 -0.16796 0.15821-0.16796 0.15821l0.75195-0.6211s-0.56034 0.44314-0.58399 0.46289zm-212.04101-245.5625c43.95644 0 99.00596 12.8021 143.07812 33.38086 44.05752 20.57192 74.898 49.41117 79.83594 72.36719 1.84014 8.68302 2.66576 16.87 2.72266 24.5625-4.18217 3.04573-8.44337 6.04003-12.83594 8.9414-14.37015 9.49179-29.79213 18.05331-45.82031 25.67774-14.88427-13.46139-32.90106-24.3721-52.28321-32.95508-34.60121-15.32242-73.89093-23.52734-110.19726-23.52734-56.09909 0-105.043 10.46218-141.70313 28.88281-15.31854 7.69712-28.72764 17.24538-39.35937 28.23828-35.18025-19.67239-52.71094-43.09103-52.71094-63.89453 0-22.58072 20.26849-47.83955 61.76953-68.08984 41.50104-20.2503 101.29118-33.58399 167.50391-33.58399zm4.5 148.5c30.09353 0 64.95681 7.24514 93.98047 20.09766 9.19831 4.07327 17.63594 8.75728 25.29883 13.79687-41.37279 14.33032-84.4927 22.45313-123.7793 22.45313-51.12754 0-98.31797-8.2322-136.33008-21.45703 4.91319-3.513 10.52203-6.9635 17.10938-10.27344 29.11474-14.62931 72.71999-24.61719 123.7207-24.61719zm204.96875 39.62305c-4.43198 7.19589-8.94528 12.71338-12.85352 16.95508-0.48057-1.14436-0.90487-2.30701-1.44336-3.43164v-2e-3c-0.75219-1.57551-1.70737-3.02319-2.5332-4.55273 5.68646-2.87247 11.29953-5.86254 16.83008-8.96875zm-53.47461 25.41992c1.09064 1.78119 2.17843 3.56484 3.03516 5.35938l6e-3 0.0137 8e-3 0.0137c1.72359 3.59614 2.74673 8.22109 3.02734 13.50195-10.49546 6.99579-23.49399 14.9752-39.39453 22.96289-10.6329-8.29339-23.01849-14.9095-35.93359-20.4707 23.3715-5.20479 46.65086-12.392 69.25195-21.38086zm-316.30664 3.6875c18.64903 7.25229 38.95963 13.29186 60.74609 17.80078-1.16909 0.49799-2.4078 0.94378-3.55078 1.46094-11.8543 5.36364-22.2651 11.85111-30.9375 19.79492-18.57204-11.65385-26.51953-24.30256-26.51953-36.51367 0-0.83303 0.18408-1.69642 0.26172-2.54297zm-215.88672 38.44336v197.59961l372.80078 218.59961v-197.59961zm379.5 0.92578c18.55339 0 44.30464 5.2681 65.85352 14.32422 2.59275 1.08963 5.10347 2.24717 7.53906 3.44922-22.53859 7.28121-47.1953 12.27539-72.79297 12.27539-36.00908 0-68.10831-4.5006-94.12891-11.85352 1.21086-0.60504 2.32726-1.22903 3.6211-1.81445 21.53403-9.74337 53.92552-16.38086 89.9082-16.38086zm108.92383 47.89649c0.88186 2.47739 1.35387 6.09461 1.21484 10.59375-25.724 18.14297-61.93109 31.25781-110.13867 31.25781-35.77381 0-68.00971-7.15479-89.55078-17.41602-13.00867-6.19675-20.89562-12.83252-25.15625-18.64648 32.49636 10.69444 71.62351 16.41406 115.30664 16.41406 39.95418 0 76.86692-9.63127 108.32422-22.20312z" fill="#7b46ce"/><path d="m405.3 757.6v197.6l372.8-218.6v-197.6z" fill="#ff3abd"/>
</svg>
