<svg enable-background="new 0 0 3839.5 1262.1" version="1.1" viewBox="0 0 3839.5 1262.1" xml:space="preserve" xmlns="http://www.w3.org/2000/svg">
<path d="m1990.9004 0c-269.8997 0-488.7012 218.79949-488.7012 488.69922s218.8015 488.70117 488.7012 488.70117c201.4998 0 374.4989-122.00135 449.2988-296.20117h-106.1992c-67.4999 119.89988-195.7998 200.90039-343.0996 200.90039-217.2998 0-393.4004-176.10061-393.4004-393.40039s176.1006-393.398439 393.4004-393.398439c147.2998 0 275.6001 80.998949 343 200.798829h106.1992c-74.6999-174.09983-247.6994-296.09961-449.1992-296.09961zm604.9004 18v936.59961h183.7988v-402.69922h276.5v-183.80078h-276.5v-166.29883h276.5v-183.80078h-276.5-142.9004-40.8984zm484.5996 0 251.0996 434.90039-289.6992 501.69922h212.1992l183.5996-317.90039 183.5996 317.90039h212.2012l-289.7012-501.69922 251.1016-434.90039h-212.3008l-144.9004 251-144.9004-251h-212.2988zm-2661.9004 16.5a31.1 31.1 0 0 0-31.09961 31.099609 31.1 31.1 0 0 0 1.12891 8.164063c-4.38883-2.050059-9.27658-3.203125-14.42969-3.203125-18.8723 0-34.23828 15.367939-34.23828 34.240233 0 12.34101 6.57135 23.181 16.39648 29.20703l-320.058591 187.79297v11.65234l-36.2382815 21.24805v227.69922 202.49805l381.9394525 223.93946 381.9375-223.93946v-18.98438l29.86133-17.51367v-200.80078l-300.14258 176.04297c7.27464-6.55807 13.75318-13.61831 19.0293-21.30078 25.44403-14.6095 44.41413-34.42289 54.51367-57.94141 2.1-4.89999 3.8-9.80079 5-14.80078 12.39999-10.69999 23.09962-22.99962 31.59961-36.59961 9.59999-15.29998 15.90078-31.19962 18.80078-46.59961 6.29999-4.69999 10.2-7.99961 11.5-9.09961 5.09999-4.19999 44.70079-38.00162 52.80078-95.60156 60.99994-49.49995 94.19922-110.59928 94.19922-174.69922 0-110.79989-149.20014-195.400799-293.5-213.300781-0.9-0.1-1.7-0.199219-2.5-0.199219-10.09999 0-18.89961 7.600401-20.09961 17.900391-1.4 11.199988 6.49923 21.29922 17.69922 22.699218 123.99988 15.299981 257.80078 85.800481 257.80078 172.900391 0 11.17635-1.38451 22.15892-3.97851 32.90039-5.78383-107.88455-151.8577-189.64937-293.32227-207.099609-0.8-0.1-1.7-0.201172-2.5-0.201172-10.09999 0-18.89922 7.500401-20.19922 17.900391-1.4 11.09999 6.49923 21.29922 17.69922 22.69922 123.99988 15.29998 257.80078 85.80048 257.80078 172.90039 0 22.84146-5.77498 44.8603-15.97461 65.6543-31.6342-76.47947-170.90302-124.45313-261.42578-124.45313-1.21725 0-2.38658 0.08385-3.59961 0.0918v-0.19336c-151.79985 0.9-270.20117 63.90164-270.20117 144.10156 0 24.39366 10.78272 47.21177 29.96484 67.22656 4.08758 4.28165 8.62183 8.41018 13.45508 12.42383 3.70519 3.06629 7.62121 6.05038 11.73828 8.94727 1.25334 0.88475 2.54354 1.74883 3.83399 2.61718 3.541 2.37524 7.21846 4.68774 11.02929 6.93555 0.88479 0.5235 1.66546 1.09688 2.56446 1.61328-1.88796 6.48075-2.88477 13.25727-2.88477 20.13477 0 21.46936 9.58196 40.74147 26.96484 56.88476 0.21731 0.20286 0.45798 0.39579 0.67774 0.59766 2.46411 2.25192 5.07874 4.44241 7.84375 6.56836 0.83155 0.64245 1.69826 1.26774 2.55664 1.89844 2.18161 1.59538 4.44815 3.15169 6.79883 4.66992 0.67187 0.43595 1.26368 0.90839 1.94922 1.33789-0.59304 3.18252-0.89063 6.46336-0.89063 9.74414 0 5.98369 1.1526 11.76018 3.11133 17.35156 0.26629 0.78748 0.58035 1.56117 0.88281 2.33985 0.21119 0.53356 0.37947 1.0775 0.60547 1.60742l0.0957-0.05664c4.5877 10.85376 12.59767 20.82157 23.59375 29.54297-9.08068-2.06527-17.76909-4.46198-25.99023-7.18555-0.6-0.2-1.3-0.30078-2-0.30078-2 0-3.89961 0.90156-5.09961 2.60156-1.6 2.2-1.6 5.19844 0 7.39844 13.69999 18.69998 57.70045 39.10156 121.90039 39.10156 16.26502 0 32.09145-1.60024 47.12891-4.66406 17.95244-0.16062 35.28127-1.90445 51.77148-5.33594-3.5 1.4-7.1 2.7-11 4-10.89999 3.2-16.80078 14.69845-13.30078 25.39844 2.8 8.59999 10.8004 14.10156 19.40039 14.10156 2.1 0 4.19883-0.3 6.29883-1 7.32905-2.36967 14.19493-5.20686 20.83594-8.24609-16.16169 18.16132-39.03964 32.59636-67.23438 41.74609-1.4 0.5-2.90078 0.69922-4.30078 0.69922-6.09999 0-11.50039-3.89922-13.40039-9.69922-1.2-3.6-0.89961-7.40117 0.90039-10.70117s4.59922-5.8 8.19922-7c3.99999-1.3 7.8-2.69922 11.5-4.19922 3-1.2 4.60156-4.49961 3.60156-7.59961-0.8-2.7-3.3-4.5-6-4.5-0.4 0-0.80078-3.9e-4 -1.30078 0.09961-16.99998 3.5-34.89963 5.29883-53.09961 5.29883-27.01306 0-51.94546-3.30163-73.61328-9.1582l-35.1875-20.64063-35.57422-20.86523c-5.37836-7.35275-8.89334-15.26729-10.125-23.63477l-5.80078 3.29883c0.93945 4.77199 2.66 9.3725 4.85547 13.84375l-185.755861-108.94336v200.80078l375.601561 220.29883v-200.79883l-90.33398-52.98828c17.29083 3.26184 36.04739 5.08789 55.93359 5.08789 18.89998 0 37.10041-1.80039 54.40039-5.40039-3.5 1.4-7.1 2.7-11 4-10.69999 3.5-16.60156 14.89962-13.10156 25.59961 2.8 8.59999 10.8004 14.10156 19.40039 14.10156 2.1 0 4.20078-0.3 6.30078-1 2.59396-0.83869 5.00745-1.85871 7.51758-2.7832l-22.81836 13.38281v200.79883l339.46094-199.10352v11.70703l-375.66016 220.25977-375.6621088-220.25977v-198.90234-224.10156l29.9609378-17.56641v199.66797l177.300781 104 46.09961-27c-3.5-7.79999-5.5-15.9004-5.5-24.40039 0-2.2 0.10039-4.49922 0.40039-6.69922-30.29997-20.09998-46.30078-45.90003-46.30078-75 0-5.79999 0.60039-11.60118 1.90039-17.20117-46.19995-27.59997-71.59961-63.99926-71.59961-102.69922 0-83.69992 121.10055-149.40039 276.40039-150.40039v-141.400391l-6.5957 3.871091c-0.12271-3.18683-0.68279-6.263604-1.62305-9.171872a31.1 31.1 0 0 0 11.81836 2.400391 31.1 31.1 0 0 0 31.09961-31.09961 31.1 31.1 0 0 0-31.09961-31.099609zm464.59961 0v936.09961h95.30078v-258.69922h148.09961c451.5995 0 451.5995-677.40039 0-677.40039h-174.09961-69.30078zm-509 42.337891c15.47974 0 27.96094 12.483147 27.96094 27.962889 0 0.80823-0.04268 1.60595-0.10938 2.39649l-39.36328 23.09765c-9.71102-4.37628-16.44922-14.12309-16.44922-25.49414 0-15.479742 12.48119-27.962889 27.96094-27.962889zm66.59961 22.162109c0.6 0 1.10117-3.91e-4 1.70117 0.099609 72.39993 8.899991 144.59966 34.700821 198.09961 70.800781 74.29993 49.99995 89.90039 101.69886 89.90039 136.29883 0 4.68895-0.24083 9.35061-0.59961 13.99609-9.53789 24.17446-25.01613 46.893-45 67.4043 0-0.2-0.10156-0.39961-0.10156-0.59961-0.51686-2.43579-1.17201-4.83976-1.90234-7.22461 12.71702-23.95279 19.5039-48.78287 19.5039-73.67578 0-90.49991-136.70091-163.49963-263.30078-179.09961-3.7-0.5-7.10039-2.30078-9.40039-5.30078s-3.30039-6.59844-2.90039-10.39844c0.9-6.99999 6.90001-12.30078 14-12.30078zm537.70117 30.80078h148.09961c324.4997 0 324.4997 486.79883 0 486.79883h-148.09961v-486.79883zm-560 158c89.69991 0 214.3004 50.60006 226.40039 107.5 1.74178 8.32182 2.51146 16.15165 2.65234 23.53711-0.65546 0.7291-1.31595 1.45561-1.98242 2.17969-1.82649 1.3246-3.71316 2.60213-5.57617 3.89844-16.68883-73.25312-131.99848-123.58051-224.99414-135.61524v4.90039c-61.26224 0.41185-118.52471 11.91056-161.70117 32.69922-38.49996 18.49998-61.39844 42.50041-61.39844 64.40039 0 18.89998 16.59925 39.49885 45.69922 56.79883 35.69996-34.19997 101.20008-54.79922 177.5-56.19922v-61.68555c82.67464 11.82103 175.10452 55.80427 185.40039 104.38477 0.95599 4.56752 1.61204 8.98409 2.04883 13.26953-4.78574 2.55829-9.62626 5.05124-14.54883 7.43164-41.49996-37.39996-109.30006-57.20117-165-57.20117-2.69884 0-5.33455 0.08947-8 0.13672v-0.03711c-0.71514 0.01261-1.40648 0.0563-2.11914 0.07226-3.5139 0.07891-6.99492 0.19749-10.44727 0.35743-1.47749 0.06818-2.94632 0.14576-4.4121 0.22851-3.35877 0.19038-6.68678 0.41543-9.98243 0.68164-1.54376 0.1242-3.0741 0.26181-4.60351 0.40235-3.13874 0.28955-6.25135 0.60323-9.32813 0.96093-1.6711 0.19355-3.3224 0.40584-4.97461 0.61914-2.8538 0.36976-5.6883 0.75557-8.48437 1.1836-1.86005 0.28377-3.69168 0.59323-5.52539 0.90234-2.52791 0.4275-5.04485 0.86283-7.52149 1.33789-2.05512 0.39302-4.07103 0.81894-6.08984 1.24414-2.15942 0.4561-4.31867 0.90992-6.43555 1.40235-2.30529 0.53485-4.559 1.11029-6.8125 1.6875-1.79012 0.4596-3.58903 0.91055-5.3457 1.39648-2.47695 0.68364-4.89002 1.41333-7.29883 2.14844-1.44927 0.44316-2.91582 0.8725-4.33984 1.33398-2.64534 0.85568-5.21524 1.76182-7.77149 2.67969-1.13792 0.40927-2.29811 0.80324-3.41797 1.22461-2.82051 1.0596-5.55434 2.17349-8.25781 3.30859-0.76733 0.32263-1.56067 0.62844-2.31836 0.95703-3.06827 1.32887-6.0384 2.71558-8.94531 4.14063-0.35085 0.1722-0.71991 0.33424-1.06836 0.50781-16.51997 8.2196-30.37567 17.96133-40.96094 28.98633-33.66039-18.99351-52.93945-42.37625-52.93945-64.66211 0-24.40203 23.84423-50.21917 64.77148-69.9668 0.25355-0.12205 0.52054-0.23974 0.7754-0.36132 4.77893-2.28523 9.79087-4.48545 15.01953-6.59375 0.66878-0.26897 1.36703-0.52516 2.04297-0.79102 4.88646-1.92696 9.94793-3.77746 15.19921-5.53125 1.13784-0.37891 2.3182-0.73521 3.47266-1.10547 4.92413-1.58386 9.9764-3.10031 15.19531-4.51758 1.60395-0.43417 3.25773-0.83634 4.88867-1.2539 4.93724-1.26818 9.96861-2.47616 15.14649-3.58399 2.04549-0.43607 4.14666-0.83042 6.22851-1.24023 4.69289-0.92718 9.46156-1.79846 14.33399-2.58594 2.75575-0.44356 5.56179-0.84336 8.37305-1.24023 4.53767-0.64336 9.13471-1.23364 13.8125-1.75 3.21936-0.35363 6.48417-0.66206 9.76757-0.95313 4.45933-0.39747 8.96948-0.74022 13.54297-1.01758 3.64772-0.21968 7.33705-0.3888 11.05469-0.52929 4.47218-0.17059 8.99089-0.28635 13.56055-0.33789 0.74289-0.00817 1.46943-0.03606 2.21484-0.04102v-0.01367c1.18343-0.00817 2.31029-0.08594 3.5-0.08594zm-3.40039 7.91406c39.57234 5.30689 82.33117 17.39923 118.80078 34.28516 56.89994 26.39997 92.49884 61.00043 100.29883 97.40039l0.20117 0.69922c0.04591 0.20199 0.1512 0.37951 0.2168 0.57422-8.35809 5.58912-17.08633 10.85005-26.05469 15.84765-0.46509-3.7636-1.07199-7.54166-1.86328-11.32226-8.19999-38.49996-58.39925-66.30001-87.69922-79.5-32.56897-14.68601-69.22963-24.97732-103.90039-29.7832v-28.20118zm1964.4004 101.58594v182.79883h133.6992v-182.79883h-133.6992zm-1956.50001 41.5c40.09996 0 88.39886 12.60002 121.79883 34.5-6.71299 2.36738-13.49715 4.49832-20.30664 6.52149-31.24798-20.98096-71.23708-34.48626-109.49219-39.82227v5.19922c-47.79995 1-91.4012 10.9008-120.70117 27.30078 36.09996 11.09999 77.50121 16.89922 120.70117 17.19922v-8.5c15.60523 2.55823 31.38663 6.61928 46.27344 12.05469-14.40318 1.82664-28.72538 2.8457-42.77344 2.8457-1.18464 0-2.32163-0.06022-3.5-0.06836v-0.03125c-52.19995-0.4-98.30121-8.69962-135.20117-21.59961 3.49663-2.50468 7.34942-4.93461 11.52344-7.27148 0.11228-0.06282 0.23489-0.12288 0.34765-0.18555 3.99741-2.22368 8.30921-4.35449 12.89063-6.38867 0.51339-0.227 1.0576-0.44169 1.57812-0.66602 4.16673-1.80377 8.56897-3.5173 13.17969-5.13867 1.19508-0.41734 2.43619-0.81285 3.66016-1.2168 4.00832-1.33273 8.17094-2.58979 12.48047-3.76953 2.04549-0.55494 4.14486-1.07959 6.25585-1.59765 3.68306-0.91238 7.46304-1.76587 11.33985-2.5586 2.86815-0.58066 5.79339-1.12297 8.76367-1.63476 3.39004-0.58983 6.85197-1.12697 10.37109-1.6211 5.39744-0.75101 10.98362-1.35477 16.66993-1.86914 1.48546-0.135 2.94664-0.29045 4.45117-0.4082 4.78569-0.37363 9.69641-0.62845 14.66797-0.82422 4.9682-0.19236 9.87642-0.44922 15.02148-0.44922zm-8 7.59961c33.97289 4.88705 71.20788 16.51807 101.58008 35.70703-14.17036 3.90902-28.46254 7.01304-42.73047 9.31641-18.2158-7.66159-38.53289-13.37237-58.84961-16.62305v-28.40039zm215.5 33c-4.2 6.89999-8.50117 12.39961-12.20117 16.59961l-1.5-3.30078c-0.8-1.6-1.59844-3.09922-2.39844-4.69922 5.4-2.8 10.79962-5.59961 16.09961-8.59961zm-53.40039 25.40039c1.1 1.8 2.1 3.6 3 5.5 0.5575 1.17368 0.9177 2.52001 1.34961 3.80664-4.67124 2.57577-9.41866 5.07652-14.25 7.49219-1.5 0.8-2.69922 2.10117-3.19922 3.70117s-0.3 3.39844 0.5 4.89844c0.8 1.4 1.49922 2.90039 2.19922 4.40039 0.00907 0.01814 0.01638 0.03654 0.02539 0.05469-7.15907 4.26769-14.97004 8.64471-23.625 12.94531-0.68255-0.53445-1.43362-1.01732-2.13086-1.54102-0.88678-1.78899-1.83336-3.51821-2.86914-5.1582-1.2-1.9-3.20039-3-5.40039-3-0.8 0-1.59883 0.10039-2.29883 0.40039-0.18748 0.07466-0.37687 0.14434-0.56445 0.21875-7.23145-4.44718-14.93398-8.48583-23.03711-12.01953 23.69998-5.29999 47.4008-12.59923 70.30078-21.69922zm-321.69922 4.09961c18.69998 7.29999 39.29846 13.3004 61.39844 17.90039-13.89999 6-25.59923 13.29962-34.69922 21.59961-17.49998-11.19999-26.80078-24.30118-26.80078-37.20117 0-0.8 0.00156-1.59883 0.10156-2.29883zm7.29883 9.40039c2.6 7.49999 9.1004 15.19923 18.90039 22.19922 5-4.1 10.49922-8 16.69922-11.5-12.29999-3.1-24.19962-6.69922-35.59961-10.69922zm320.23828 2.05469c0.1318 0.85942 0.30876 1.69072 0.38672 2.57812-0.51448 0.7686-1.02746 1.51652-1.53906 2.24414-2.91255 1.9305-6.36338 4.0311-9.70117 6.10352-0.69461-1.36934-1.38939-2.69282-2.08399-4.08203 4.3307-2.24555 8.65839-4.49504 12.9375-6.84375zm-161.13867 28.04492c15.22174 0.06647 33.20461 3.31813 50.29297 8.68945-3.66065 0.91259-7.32432 1.7943-10.99219 2.60938-2.7 0.6-4.60039 2.8-4.90039 5.5s1.30078 5.30039 3.80078 6.40039c2.15831 0.94326 4.25681 1.9178 6.32617 2.90625-14.17863 2.80957-28.86781 4.59375-43.92578 4.59375-37.93343 0-70.37816-4.5876-96.25586-11.96484 10.98281-5.47278 25.32499-10.3482 42.55469-13.73438l0.2207-0.13086c15.42273-3.0109 33.08937-4.86914 52.87891-4.86914zm60.88476 12.35547c4.86868 1.83661 9.63455 3.79106 14.11524 5.94336-6.65982 2.15208-13.57071 4.01706-20.59961 5.69922-4.46584-2.36721-9.0777-4.57432-13.79883-6.59766 6.76835-1.51359 13.53349-3.20975 20.2832-5.04492zm50.11524 36.44336c1 2.7 1.60156 6.2 1.60156 10.5-29.29997 20.49998-68.60004 32.10156-112.5 32.10156-38.48558 0-69.69295-7.57327-90.72851-17.53711 14.80406 1.61803 30.43669 2.43555 46.82812 2.43555 15.0894 0 30.63634-1.6439 46.44922-4.85938 39.71984-0.32584 76.79571-9.96008 108.34961-22.64062zm-227.69922 5.90039c22.97196 7.61034 49.62991 12.77562 79.01172 15.19922-2.03226 0.05962-4.0674 0.10156-6.11133 0.10156-22.30997 0-42.67341-1.59544-60.96094-4.40234-5.11467-3.5897-9.3259-7.2685-11.93945-10.89844zm-44.40039 39.30078c12.65435 4.1662 26.44474 7.60906 41.20117 10.27344 22.03177 13.15538 51.57274 22.46592 85.83984 26.1875-3.38715 0.14173-6.79376 0.23828-10.24023 0.23828-61.29994 0-104.20079-19.19924-116.80078-36.69922zm3248.99999 473.90041c-41.8999 0-73 31.2985-73 73.3984 0 41.1 31.9001 72.4004 74 72.4004 28.6 0 50.4004-13.3004 64.4004-39.4004h-15.5996c-14.9 18.7-28.4 26.5-49 26.5-32.6 0-59.5-27-59.5-60 0-33.9999 25.7989-59.8984 59.2988-59.8984 19.8 0 36.4004 7.1996 48.4004 26.0996h15.8008c-10.8-24.2-35.6008-39.0996-64.8008-39.0996zm-3509.5996 2.3984v140.9004h14.099609v-125.4004l52.800782 125.4004h12.199218l53.000001-125.4004v125.4004h14.09961v-140.9004h-21.89844l-51.101561 119.9004-51.298828-119.9004h-21.900391zm173.90039 0v87.9004c0 38.4 19.50042 55.5 47.90039 55.5 28.59997 0 48-17.1 48-55.5v-87.9004h-14.10156v87.9004c0 28.8-12.09885 42.5-33.79883 42.5-22.09998 0-33.90039-13.7-33.90039-42.5v-87.9004h-14.09961zm123.69922 0v140.9004h72.40039v-12.7988h-58.30078v-128.1016h-14.09961zm65.20117 0v12.8008h32.19922v128.0996h14.09961v-128.0996h32.20117v-12.8008h-78.5zm93.09961 0v140.9004h14.09961v-140.9004h-14.09961zm41.90039 0v140.9004h14.09961v-125.4004l52.79883 125.4004h12.20117l53-125.4004v125.4004h14.09961v-140.9004h-21.90039l-51.09961 119.9004-51.30078-119.9004h-21.89844zm174 0v140.9004 0.0996h77v-12.7988h-62.90039v-52.0996h60.79883v-12.8008h-60.79883v-50.5h62.90039v-12.8008h-77zm100.89844 0v140.9004h38c55.09994 0 81-29.3 81-70 0-26.5-11.00002-47.3988-32-59.7988-13.39999-8-28.29885-11.1016-53.79883-11.1016h-33.20117zm140.70117 0v140.9004h14.09961v-140.9004h-14.09961zm89.79881 0-60.39842 140.9004h14.89844l20.60156-47.5h65.59962l20.4004 47.5h15.2988l-60.5996-140.9004h-15.8008zm143.5 0v140.9004 0.0996h77v-12.7988h-62.8984v-52.0996h60.7988v-12.8008h-60.7988v-50.5h62.8984v-12.8008h-77zm101 0v140.9004h14.1016v-123.9004l83.8984 123.9004h14.1016v-140.9004h-14.1016v116.9004l-78.8984-116.9004h-19.1016zm126.7012 0v12.8008h32.1992v128.0996h14.0996v-128.0996h32.2012v-12.8008h-78.5zm93.1992 0v140.9004 0.0996h77v-12.7988h-62.9004v-52.0996h60.8008v-12.8008h-60.8008v-50.5h62.9004v-12.8008h-77zm101 0v140.9004h14.0996v-128.0996h19.8008c32.8 0 47.3008 8.5 47.3008 32 0 25.4-13.3008 32.1992-52.8008 32.1992l47.5 63.9004h17.5l-39.5-52.5996c27.1-2.8 41.5996-17.9004 41.5996-42.9004 0-29.4-16.3996-45.4004-60.5996-45.4004h-34.9004zm101.4004 0v12.8008h32.1992v128.0996h14.1016v-128.0996h32.1992v-12.8008h-78.5zm131.5 0-60.4004 140.9004h14.9004l20.5996-47.5h65.5996l20.4004 47.5h15.3008l-60.5996-140.9004h-15.8008zm91.9004 0v140.9004h14.0996v-140.9004h-14.0996zm41.9004 0v140.9004h14.0996v-123.9004l83.9004 123.9004h14.0996v-140.9004h-14.0996v116.9004l-78.9004-116.9004h-19.0996zm139.8984 0v140.9004h14.1016v-125.4004l52.7988 125.4004h12.2012l53-125.4004v125.4004h14.0996v-140.9004h-21.9004l-51.0996 119.9004-51.3008-119.9004h-21.9004zm173.9004 0v140.9004 0.0996h77v-12.7988h-62.9004v-52.0996h60.8008v-12.8008h-60.8008v-50.5h62.9004v-12.8008h-77zm101 0v140.9004h14.0996v-123.9004l83.9004 123.9004h14.0996v-140.9004h-14.0996v116.9004l-78.9004-116.9004h-19.0996zm126.7012 0v12.8008h32.1992v128.0996h14.0996v-128.0996h32.2012v-12.8008h-78.5zm144.7988 0v140.9004h14.0996v-57h27.1016c38.2999 0 52-14.4992 52-41.1992 0-29.6-15.6008-42.7012-54.3008-42.7012h-38.9004zm111.5996 0v140.9004h72.4004v-12.7988h-58.2988v-128.1016h-14.1016zm141.5 0-60.3984 140.9004h14.8984l20.6016-47.5h65.5996l20.4004 47.5h15.2988l-60.5996-140.9004h-15.8008zm63.5 0 48.8008 93.8008v47.0996h14.0996v-47.0996l49.0996-93.8008h-15.3984l-41 78.9004-40-78.9004h-15.6016zm125.8008 0v140.9004 0.0996h77v-12.7988h-62.9004v-52.0996h60.8008v-12.8008h-60.8008v-50.5h62.9004v-12.8008h-77zm101 0v140.9004h14.0996v-128.0996h19.8008c32.8 0 47.2988 8.5 47.2988 32 0 25.4-13.2988 32.1992-52.7988 32.1992l47.5 63.9004h17.5l-39.5-52.5996c27.1-2.8 41.5996-17.9004 41.5996-42.9004 0-29.4-16.3997-45.4004-60.5996-45.4004h-34.9004zm166.0996 0v140.9004h14.0996v-57h27.1016c38.2999 0 52-14.4992 52-41.1992 0-29.6-15.6008-42.7012-54.3008-42.7012h-38.9004zm317 0v140.9004h14.0996v-64.4004h55.3008v-12.7988h-55.3008v-50.9004h57.4004v-12.8008h-71.5zm81.0996 0 45.2012 68.8008-47.9004 72.0996h16.5996l40-60.1992 39.8008 60.1992h16.6992l-48-72.0996 45.2012-68.8008h-16.4004l-37.2012 56.4004-37.3984-56.4004h-16.6016zm-1093.5 12.8008h20c26.9 0 44.8008 1.4004 44.8008 29.9004 0 20.4-10.6992 28.4004-38.6992 28.4004h-26.1016v-58.3008zm709.5 0h20c26.9 0 44.8008 1.4004 44.8008 29.9004 0 20.4-10.6992 28.4004-38.6992 28.4004h-26.1016v-58.3008zm-2558.29881 0.0996h19.59961c21.39998 0 34.7004 2.5996 45.40039 9.0996 16.19998 9.7 25.5 27.4004 25.5 48.4004 0 18.5-7.20118 34.7012-20.20117 45.2012-11.19999 9-25.69925 12.5996-50.69922 12.5996h-19.59961v-115.3008zm224.40041 3.2012 27.0996 64.5996h-54.70118l27.60158-64.5996zm798.2988 0 27 64.5996h-54.6992l27.6992-64.5996zm1073.2012 0 27 64.5996h-54.7012l27.7012-64.5996zm724.0996 46.5c-5.7 0-10.3008 4.5988-10.3008 10.2988 0 5.8 4.6008 10.3008 10.3008 10.3008 5.6 0 10.2988-4.6008 10.2988-10.3008s-4.7988-10.2988-10.2988-10.2988z"/>
</svg>
