<svg enable-background="new 0 0 3839 546.4" version="1.1" viewBox="0 0 3839 546.4" xml:space="preserve" xmlns="http://www.w3.org/2000/svg">
<path d="m1539.1992 0v546.40039h2299.8008v-546.40039h-2299.8008zm2105.1016 126.30078h87.0996v62.39844h-87.0996v-62.39844zm-1556.4004 2.59961c206.1998 0 384.8004 44.89967 434.4004 109.09961l5.8984 7.69922h-111.2988l-1.4004-1.39844c-45.9-44.19995-177.4998-73.90039-327.5996-73.90039-186.0998 0-343.2012 47.69967-343.2012 104.09961s157.2014 104.09961 343.2012 104.09961c150.0998 0 281.6996-29.70044 327.5996-73.90039l1.4004-1.39844 111.2988-0.20117-5.8984 7.90039c-49.5 64.19994-228.2006 109.09961-434.4004 109.09961-118.8999 0-230.8001-14.70003-315-41.5-85.8999-27.29997-133.3008-64.29965-133.3008-104.09961s47.3009-76.79964 133.3008-104.09961c84.1999-26.79997 196.1001-41.5 315-41.5zm469.5 4.90039h60.5 26.5996 195c240.3998 0 452.9004 50.39931 452.9004 136.69922 0 86.19991-212.5006 136.69922-452.9004 136.69922h-195-26.5996-60.5v-273.39844zm-2557.4004 1.5v273.39844h76.5l0.400391-68.29883h34.199219c72.89993 0 111.09961-35.20007 111.09961-102.5-0.1-74.09993-47.8993-102.59961-128.19922-102.59961-31.099969 0-94 0.3-94 0zm256.30078 0v273.39844h76.89844v-111.09961h76.90039v111.09961h76.90039v-273.39844h-76.90039v111.09961h-76.90039v-111.09961h-76.89844zm290.39844 0v273.39844h77v-273.39844h-8.59961-68.40039zm136.80078 0v273.39844h144.59961l9.09961-51.19922h-76.89844v-222.19922h-76.80078zm179.40039 0v273.39844h76.90039v-273.39844h-76.90039zm136.69922 0v273.39844h76.49999l0.4004-68.29883h34.1992c72.8999 0 111.1016-35.20007 111.1016-102.5-0.2-74.09993-47.9013-102.59961-128.2012-102.59961-31 0-93.89999 0.3-93.99999 0zm363.59959 0c-63.1999 0-115.8984 23.09849-115.8984 76.89844 0 92.79991 128.1992 72.50161 128.1992 119.60156 0 16.69998-5.2992 25.69922-34.1992 25.69922-25.8 0-70.4-4.89962-94-17.09961v59.79883c26.8 3.7 68.3 8.5 94 8.5 65.3999 0 111.0996-19.09851 111.0996-85.39844 0-88.39991-128.2012-69.1016-128.2012-111.10156v-8.59961c0-14.39999 20.2008-17 42.8008-17 24.6 0 50.1008 0.80001 68.3008 8.5v-51.19922c-20.4-4.49999-27.3016-8.59961-72.1016-8.59961zm1281.3008 39.09961v192.09961h195c188.7998 0 341.8008-39.20006 341.8008-96v-0.09961c0-56.69994-153.001-96-341.8008-96h-195zm-2558.824219 12.125c3.199997 0.025 6.324221 0.07422 8.324219 0.07422 38.59996 0 52.59961 19.80042 52.59961 52.90039-0.1 34.29997-11.99965 49.5-52.59961 49.5h-17.099609v-102.40039c2.299997-0.1 5.575393-0.09922 8.77539-0.07422zm999.599619 0c3.2 0.025 6.3242 0.07422 8.3242 0.07422 38.6 0 52.5996 19.80042 52.5996 52.90039-0.1 34.29997-11.9996 49.5-52.5996 49.5h-17.0996v-102.40039c2.3-0.1 5.5754-0.09922 8.7754-0.07422zm2559.0254 29.17383h87.0996v184.60156h-87.0996v-184.60156zm-293.2012 7.30078 236.7012 42.59961-236.7012 42.59961v-85.19922zm-1262.5 13.69922c49.3 0 92.8008 10.30158 108.3008 25.60156 4.5 4.5 6.7992 9.19962 6.6992 14.09961 0 25.69997-59.2 39.5-115 39.5-55.7999 0-115-13.89963-115-39.59961 0-25.69997 59.2001-39.60156 115-39.60156zm0.0996 17.5a81.599998 22.200001 0 0 0-81.5996 22.20117 81.599998 22.200001 0 0 0 81.5996 22.19922 81.599998 22.200001 0 0 0 81.6016-22.19922 81.599998 22.200001 0 0 0-81.6016-22.20117z"/>
</svg>
