<?xml version="1.0" encoding="utf-8"?>
<!-- Generator: Adobe Illustrator 26.0.3, SVG Export Plug-In . SVG Version: 6.00 Build 0)  -->
<svg version="1.1" id="Layer_1" xmlns="http://www.w3.org/2000/svg" xmlns:xlink="http://www.w3.org/1999/xlink" x="0px" y="0px"
	 viewBox="0 0 3839 546.4" style="enable-background:new 0 0 3839 546.4;" xml:space="preserve">
<style type="text/css">
	.st0{fill:#FFFFFF;}
</style>
<g>
	<g>
		<path d="M1093.6,135.3c-31,0-93.9,0.3-94,0v273.4h76.5l0.4-68.3h34.2c72.9,0,111.1-35.2,111.1-102.5
			C1221.6,163.8,1173.9,135.3,1093.6,135.3z M1093.6,289h-17.1V186.6c4.6-0.2,13.1,0,17.1,0c38.6,0,52.6,19.8,52.6,52.9
			C1146.1,273.8,1134.2,289,1093.6,289z"/>
		<polygon points="410.1,408.7 410.1,297.6 333.2,297.6 333.2,408.7 256.3,408.7 256.3,135.3 333.2,135.3 333.2,246.4 410.1,246.4 
			410.1,135.3 487,135.3 487,408.7 		"/>
		<polygon points="546.7,408.7 546.7,135.3 615.1,135.3 623.7,135.3 623.7,408.7 		"/>
		<polygon points="828.1,408.7 683.5,408.7 683.5,135.3 760.3,135.3 760.3,357.5 837.2,357.5 		"/>
		<rect x="862.9" y="135.3" width="76.9" height="273.4"/>
		<path d="M1324.2,203.6v8.6c0,42,128.2,22.7,128.2,111.1c0,66.3-45.7,85.4-111.1,85.4c-25.7,0-67.2-4.8-94-8.5v-59.8
			c23.6,12.2,68.2,17.1,94,17.1c28.9,0,34.2-9,34.2-25.7c0-47.1-128.2-26.8-128.2-119.6c0-53.8,52.7-76.9,115.9-76.9
			c44.8,0,51.7,4.1,72.1,8.6v51.2c-18.2-7.7-43.7-8.5-68.3-8.5C1344.4,186.6,1324.2,189.2,1324.2,203.6z"/>
		<path d="M94,135.3c-31.1,0-94,0.3-94,0v273.4h76.5l0.4-68.3h34.2c72.9,0,111.1-35.2,111.1-102.5C222.1,163.8,174.3,135.3,94,135.3
			z M94,289H76.9V186.6c4.6-0.2,13.1,0,17.1,0c38.6,0,52.6,19.8,52.6,52.9C146.5,273.8,134.6,289,94,289z"/>
	</g>
	<g>
		<ellipse cx="2088.7" cy="276.4" rx="81.6" ry="22.2"/>
		<path d="M1539.2,0v546.4H3839V0H1539.2z M2522.3,311c-49.5,64.2-228.2,109.1-434.4,109.1c-118.9,0-230.8-14.7-315-41.5
			c-85.9-27.3-133.3-64.3-133.3-104.1c0-39.8,47.3-76.8,133.3-104.1c84.2-26.8,196.1-41.5,315-41.5c206.2,0,384.8,44.9,434.4,109.1
			l5.9,7.7h-111.3l-1.4-1.4c-45.9-44.2-177.5-73.9-327.6-73.9c-186.1,0-343.2,47.7-343.2,104.1c0,56.4,157.2,104.1,343.2,104.1
			c150.1,0,281.7-29.7,327.6-73.9l1.4-1.4l111.3-0.2L2522.3,311z M2203.6,276.4c0,25.7-59.2,39.5-115,39.5s-115-13.9-115-39.6
			c0-25.7,59.2-39.6,115-39.6c49.3,0,92.8,10.3,108.3,25.6C2201.4,266.8,2203.7,271.5,2203.6,276.4z M3292.4,270.5
			c0,86.2-212.5,136.7-452.9,136.7h-195h-26.6h-60.5V133.8h60.5h26.6h195c240.4,0,452.9,50.4,452.9,136.7V270.5z M3351.1,308.2V223
			l236.7,42.6L3351.1,308.2z M3731.4,400.3h-87.1V215.7h87.1V400.3z M3731.4,188.7h-87.1v-62.4h87.1V188.7z"/>
		<path d="M2839.5,174.4h-195v192.1h195c188.8,0,341.8-39.2,341.8-96v-0.1C3181.3,213.7,3028.3,174.4,2839.5,174.4z"/>
	</g>
</g>
</svg>
