<?xml version="1.0" encoding="utf-8"?>
<!-- Generator: Adobe Illustrator 26.0.3, SVG Export Plug-In . SVG Version: 6.00 Build 0)  -->
<svg version="1.1" id="Layer_1" xmlns="http://www.w3.org/2000/svg" xmlns:xlink="http://www.w3.org/1999/xlink" x="0px" y="0px"
	 viewBox="0 0 3839 546.4" style="enable-background:new 0 0 3839 546.4;" xml:space="preserve">
<style type="text/css">
	.st0{fill:#FFFFFF;}
	.st1{fill:#E50300;}
</style>
<g>
	<g>
		<path d="M1093.6,135.3c-31,0-93.9,0.3-94,0v273.4h76.5l0.4-68.3h34.2c72.9,0,111.1-35.2,111.1-102.5
			C1221.6,163.8,1173.9,135.3,1093.6,135.3z M1093.6,289h-17.1V186.6c4.6-0.2,13.1,0,17.1,0c38.6,0,52.6,19.8,52.6,52.9
			C1146.1,273.8,1134.2,289,1093.6,289z"/>
		<polygon points="410.1,408.7 410.1,297.6 333.2,297.6 333.2,408.7 256.3,408.7 256.3,135.3 333.2,135.3 333.2,246.4 410.1,246.4 
			410.1,135.3 487,135.3 487,408.7 		"/>
		<polygon points="546.7,408.7 546.7,135.3 615.1,135.3 623.7,135.3 623.7,408.7 		"/>
		<polygon points="828.1,408.7 683.5,408.7 683.5,135.3 760.3,135.3 760.3,357.5 837.2,357.5 		"/>
		<rect x="862.9" y="135.3" width="76.9" height="273.4"/>
		<path d="M1324.2,203.6v8.6c0,42,128.2,22.7,128.2,111.1c0,66.3-45.7,85.4-111.1,85.4c-25.7,0-67.2-4.8-94-8.5v-59.8
			c23.6,12.2,68.2,17.1,94,17.1c28.9,0,34.2-9,34.2-25.7c0-47.1-128.2-26.8-128.2-119.6c0-53.8,52.7-76.9,115.9-76.9
			c44.8,0,51.7,4.1,72.1,8.6v51.2c-18.2-7.7-43.7-8.5-68.3-8.5C1344.4,186.6,1324.2,189.2,1324.2,203.6z"/>
		<path d="M94,135.3c-31.1,0-94,0.3-94,0v273.4h76.5l0.4-68.3h34.2c72.9,0,111.1-35.2,111.1-102.5C222.1,163.8,174.3,135.3,94,135.3
			z M94,289H76.9V186.6c4.6-0.2,13.1,0,17.1,0c38.6,0,52.6,19.8,52.6,52.9C146.5,273.8,134.6,289,94,289z"/>
	</g>
	<g>
		<rect x="1539.2" width="2299.8" height="546.4"/>
		<g>
			<rect x="3644.3" y="215.7" class="st0" width="87.1" height="184.6"/>
			<rect x="3644.3" y="126.2" class="st0" width="87.1" height="62.4"/>
			<path class="st0" d="M2197,262.4c-15.5-15.3-59.1-25.6-108.3-25.6c-55.7,0-115,13.9-115,39.6c0,25.7,59.2,39.6,115,39.6
				s115-13.9,115-39.5C2203.7,271.5,2201.4,266.8,2197,262.4z M2088.7,254.2c50.6,0,81.6,12.9,81.6,22.2c0,9-31.8,22.2-81.6,22.2
				c-49.8,0-81.6-13.1-81.6-22.2C2007.1,267.1,2038.1,254.2,2088.7,254.2z"/>
			<path class="st0" d="M2087.9,420.1c-118.9,0-230.8-14.7-315-41.5c-85.9-27.3-133.3-64.3-133.3-104.1s47.3-76.8,133.3-104.1
				c84.2-26.8,196.1-41.5,315-41.5c206.2,0,384.8,44.9,434.4,109.1l5.9,7.7h-111.3l-1.4-1.4c-45.9-44.2-177.5-73.9-327.6-73.9
				c-186.1,0-343.2,47.7-343.2,104.1s157.2,104.1,343.2,104.1c150.1,0,281.7-29.7,327.6-73.9l1.4-1.4l111.3-0.2l-5.9,7.7
				C2472.8,375.3,2294.1,420.1,2087.9,420.1z"/>
			<rect x="2557.4" y="133.8" class="st0" width="87.1" height="273.4"/>
			<polygon class="st1" points="3351.1,223 3351.1,308.2 3587.8,265.6 			"/>
			<path class="st0" d="M3292.4,270.4c0-86.2-212.5-136.7-452.9-136.7h-221.6v40.7h221.6c188.8,0,341.8,39.2,341.8,96v0.1
				c0,56.7-153,96-341.8,96h-221.6v40.7h221.6c240.4,0,452.9-50.4,452.9-136.7V270.4z"/>
		</g>
	</g>
</g>
</svg>
