<svg version="1.1" viewBox="0 0 845.512 213.201" xmlns="http://www.w3.org/2000/svg"><path d="m533.91992 52.662109c-0.579 0-1.82242 0.674533-3.73242 2.019532-1.91 1.347998-4.88846 2.783689-8.93945 4.304687-2.104 0.820999-3.9444 1.434751-5.52539 1.84375-1.58 0.412-2.3711 1.259876-2.3711 2.546875 0 0.702999 0.37763 1.228079 1.14063 1.580078a31.175 31.175 0 0 0 2.63672 1.054688 7.591 7.591 0 0 1 2.63476 1.582031c0.76 0.701999 1.14063 1.814939 1.14063 3.335938v91.333982c0 1.757-0.17339 3.13491-0.52539 4.12891-0.35 0.996-1.34733 1.78609-2.98633 2.37109-1.875 0.702-3.45519 1.05274-4.74219 1.05274-1.172 0-1.75586 0.81998-1.75586 2.45898 0 1.874 1.05411 2.8125 3.16211 2.8125 1.638 0 3.65197-0.17534 6.04297-0.52734 2.388-0.351 5.08771-0.52735 8.0957-0.52735 2.893 0 5.6206 0.17535 8.1836 0.52735 2.56299 0.351 4.84198 0.52734 6.83398 0.52734 2.341 0 3.51367-0.81799 3.51367-2.45898 0-1.054-0.23712-1.78527-0.70312-2.19727-0.47-0.408-1.08275-0.67106-1.84375-0.78906-0.763-0.116-1.60988-0.20267-2.54688-0.26367-0.939-0.058-1.87455-0.32202-2.81054-0.79102-2.227-1.054-3.33789-3.51296-3.33789-7.37695h-0.00391v-93.267581c0-2.458997 0.08767-4.68183 0.26367-6.673828 0.176-1.990998 0.26367-3.748486 0.26367-5.271484 0-1.053999-0.11856-1.871985-0.35156-2.458985-0.233-0.584999-0.81133-0.876953-1.73633-0.876953zm-222.19726 8.080079c-0.939-1e-6 -1.55471 0.382578-1.84571 1.142578-0.293 0.762999-0.67558 1.78722-1.14257 3.074218l-27.92579 90.630856c-0.939 3.162-1.81676 5.82719-2.63476 7.99219-0.82 2.168-2.05046 3.83686-3.68945 5.00586-0.938 0.702-1.90249 1.11352-2.89649 1.22852-0.937 0.112-1.87455 0.23151-2.81055 0.35351-0.879 0.117-1.60831 0.32228-2.19531 0.61328-0.585 0.294-0.87891 0.90871-0.87891 1.84571 1e-5 1.52199 1.05412 2.28125 3.16211 2.28125 1.29 0 2.89708-0.1465 4.83008-0.4375 1.932-0.291 4.18472-0.43946 6.76172-0.43946 3.746 0 6.90738 0.17535 9.48438 0.52735 2.57399 0.351 4.50687 0.52734 5.79687 0.52734 1.989 0 2.98633-0.70438 2.98633-2.10937 0-1.287-0.58881-2.16477-1.75781-2.63477-1.172-0.465-2.92854-0.87652-5.26953-1.22852-1.641-0.232-2.81168-0.64051-3.51368-1.22851-0.702-0.584-1.05273-1.75667-1.05273-3.51367 0-2.107 0.87777-6.61345 2.63476-13.52344l4.21485-15.63281c0.113-0.465 0.39501-0.87258 0.79101-1.14258 0.409-0.291 0.78863-0.4375 1.14063-0.4375h21.7793c1.52099 0 2.39876 0.4683 2.63476 1.4043l6.85156 22.48242c1.055 3.74899 1.58008 6.38234 1.58008 7.90234 0 1.642-0.4673 2.75289-1.40429 3.33789-0.939 0.587-2.87088 0.87891-5.79688 0.87891-2.344 0-3.51172 0.93855-3.51172 2.81054 0 1.405 0.99238 2.10743 2.98438 2.10743 1.17 0 3.24937-0.14546 6.23437-0.43946 2.986-0.291 6.93748-0.4375 11.85547-0.4375 3.513 0 6.4701 0.17439 8.87109 0.52539 2.399 0.351 4.35982 0.52735 5.88282 0.52735 2.45899 0 3.68945-0.81799 3.68945-2.45899 0-1.054-0.67549-1.6697-2.02148-1.8457-1.347-0.176-2.83952-0.84753-4.47852-2.01953-2.344-1.521-4.03975-3.51366-5.09375-5.97266-1.054-2.45899-2.22667-5.73594-3.51367-9.83593l-26.51758-83.605473c-0.821-2.458998-1.40386-4.449658-1.75586-5.972656-0.352-1.519999-1.17199-2.283203-2.45898-2.283203zm328.81054 6.675781c-1.757 0-2.63476 0.819986-2.63476 2.458984 0 0.938999 0.20228 1.55375 0.61328 1.84375 0.409 0.294 0.99481 0.500235 1.75781 0.615235 0.76 0.117999 1.60888 0.175781 2.54688 0.175781 1.054 0 2.16393 0.174391 3.33593 0.52539 1.757 0.588 2.838 1.378095 3.25 2.371094 0.408 0.996999 0.61524 2.897987 0.61524 5.708985v80.443362c0 1.87499-0.02989 3.42529-0.08789 4.65429-0.06 1.229-0.26424 2.22438-0.61524 2.98438-0.352 0.763-0.90797 1.3787-1.66797 1.8457-0.76299 0.468-1.846 0.87652-3.25 1.22852-0.82099 0.236-1.64198 0.35156-2.45898 0.35156a12.52 12.52 0 0 0-2.19531 0.17578c-0.644 0.118-1.17208 0.35113-1.58008 0.70313-0.412 0.351-0.61523 0.93886-0.61523 1.75586-1e-5 1.87499 1.2285 2.81054 3.6875 2.81054 1.05399 0 2.95598-0.17339 5.70898-0.52539 2.749-0.35 6.41152-0.52734 10.97852-0.52734 4.56699 0 8.22551 0.17634 10.97851 0.52734 2.75 0.351 4.65303 0.52539 5.70703 0.52539 0.79637 0 1.4499-0.09397 1.98828-0.26562 0.51748 0.16988 1.13247 0.26562 1.87305 0.26562 1.054 0 2.95599-0.17339 5.70898-0.52539 2.749-0.35 6.41152-0.52734 10.97852-0.52734s8.22552 0.17634 10.97852 0.52734c2.74999 0.351 4.65303 0.52539 5.70703 0.52539 2.45899 0 3.6875-0.81698 3.6875-2.45898 0-0.936-0.20528-1.60853-0.61328-2.01953-0.412-0.409-0.96793-0.67302-1.66993-0.79102-0.702-0.115-1.52298-0.17578-2.45898-0.17578-0.938 0-1.92938-0.17339-2.98438-0.52539-1.17199-0.351-2.08065-0.76147-2.72265-1.23047a3.964 3.964 0 0 1-1.4043-1.84375c-0.294-0.759-0.46934-1.72448-0.52734-2.89648-0.061-1.17-0.08789-2.69337-0.08789-4.56836v-80.443362c0-2.810998 0.20323-4.768814 0.61523-5.882813 0.408-1.111999 1.72613-1.903047 3.95313-2.373047 1.053-0.232 2.04637-0.3765 2.98437-0.4375 0.936-0.058 1.75699-0.145672 2.45899-0.263672 0.70299-0.115 1.22807-0.320281 1.58007-0.613281 0.351-0.291 0.52735-0.849923 0.52735-1.669922 0-1.638998-0.87877-2.458984-2.63477-2.458984-0.939 0-2.81009 0.235172-5.62109 0.701172-2.811 0.469999-6.73459 0.703125-11.76758 0.703125-5.03699 0-8.95853-0.233126-11.76953-0.703125-2.81-0.466-4.68314-0.701172-5.61914-0.701172-0.47534 0-0.88183 0.065533-1.22852 0.185547-0.34685-0.120354-0.75278-0.185547-1.22851-0.185547-0.939 0-2.8101 0.235172-5.6211 0.701172-2.81099 0.469999-6.73458 0.703125-11.76757 0.703125-5.037 0-8.95854-0.233126-11.76954-0.703125-2.80999-0.466-4.68314-0.701172-5.61914-0.701172zm35.80274 4.613281c0.3287 0.13254 0.71325 0.236153 1.16797 0.304688 0.76 0.117999 1.60887 0.175781 2.54687 0.175781 1.054 0 2.16394 0.174391 3.33594 0.52539 1.757 0.588 2.838 1.378095 3.25 2.371094 0.408 0.996999 0.61523 2.897987 0.61523 5.708985v80.443362c0 1.87499-0.03184 3.42529-0.08984 4.65429-0.06 1.229-0.26228 2.22438-0.61328 2.98438-0.352 0.763-0.90797 1.3787-1.66797 1.8457-0.763 0.468-1.846 0.87652-3.25 1.22852-0.821 0.236-1.64199 0.35156-2.45898 0.35156a12.52 12.52 0 0 0-2.19532 0.17578c-0.15742 0.02885-0.28618 0.08626-0.42968 0.12891-0.16806-0.05306-0.34384-0.09708-0.53321-0.12891-0.702-0.115-1.52298-0.17578-2.45898-0.17578-0.938 0-1.93133-0.17339-2.98633-0.52539-1.172-0.351-2.08066-0.76147-2.72266-1.23047a3.964 3.964 0 0 1-1.40429-1.84375c-0.294-0.759-0.46935-1.72448-0.52735-2.89648-0.061-1.17-0.08789-2.69337-0.08789-4.56836v-80.443362c0-2.810998 0.20324-4.768814 0.61524-5.882813 0.408-1.111999 1.72612-1.903047 3.95312-2.373047 1.053-0.232 2.04638-0.3765 2.98438-0.4375 0.936-0.058 1.75698-0.145672 2.45898-0.263672 0.18982-0.031051 0.33398-0.084665 0.49805-0.128906zm-370.06446 19.625c0.352 0 0.70274 0.528079 1.05274 1.580078l9.48437 30.562502c0.234 0.939 0.35157 1.52286 0.35157 1.75586 0 0.351-0.17339 0.67579-0.52539 0.96679-0.352 0.293-0.70269 0.43946-1.05469 0.43946h-17.56446c-0.81999 0-1.22851-0.35364-1.22851-1.05664v-0.52539a5.158 5.158 0 0 1 0.17578-1.22852l8.25586-31.089843c0.234-0.934999 0.58373-1.404297 1.05273-1.404297zm448.81641 1.707031c-5.67299 0-10.92205 1.099784-15.74805 3.300781-4.82599 2.202998-8.97431 5.251538-12.44531 9.144528-3.472 3.895-6.20341 8.53221-8.19141 13.90821-1.99099 5.37699-2.98437 11.23885-2.98437 17.58984 0 5.92699 0.88902 11.38782 2.66602 16.38281 1.77899 4.996 4.25469 9.29263 7.42968 12.89063 3.175 3.59899 6.98665 6.41331 11.43164 8.44531 4.444 2.032 9.29002 3.04688 14.54102 3.04688 3.386 0 6.58285-0.31618 9.58984-0.95118 3.003-0.636 5.64955-1.52497 7.93555-2.66797 2.286-1.14299 4.08544-2.53845 5.39844-4.18945 1.312-1.651 1.96679-3.45044 1.96679-5.39844v-19.30273c0-2.201 0.19127-3.66181 0.57227-4.38281 0.38-0.719 1.33342-1.24789 2.85742-1.58789 0.762-0.168 1.45971-0.27241 2.0957-0.31641 0.553-0.031 1.1044-0.09445 1.6504-0.18945 0.465-0.083 0.84457-0.25577 1.14257-0.50977 0.295-0.254 0.44532-0.67653 0.44532-1.26953 0-1.099-0.63526-1.65039-1.90625-1.65039-0.593 0-1.94651 0.17081-4.0625 0.50781-2.118 0.34-5.20749 0.50782-9.27149 0.50782-3.64099 0-6.54022-0.16782-8.69922-0.50782-2.15899-0.337-3.66376-0.50781-4.50976-0.50781-1.44 0-2.15821 0.59134-2.15821 1.77734 0 0.593 0.14636 0.99704 0.44336 1.20703 0.296 0.212 0.71949 0.36036 1.27149 0.44336a19.625 19.625 0 0 0 1.90429 0.18946 21.709 21.709 0 0 1 2.47657 0.31836c1.693 0.425 2.73228 0.97725 3.11328 1.65625 0.381 0.681 0.57031 2.12498 0.57031 4.33398v15.04102c0 2.03899-0.10641 3.90942-0.3164 5.60742-0.213 1.698-0.69894 3.16448-1.46094 4.39648s-1.86474 2.18819-3.30274 2.86719c-1.441 0.681-3.3878 1.02148-5.84179 1.02148-3.388 1e-5 -6.58485-0.89097-9.58985-2.66796-3.00599-1.779-5.63105-4.29665-7.87304-7.55664-2.244-3.259-4.02199-7.17606-5.33399-11.74805-1.314-4.571-1.96875-9.69319-1.96875-15.36719 0-6.09499 0.6343-11.61927 1.9043-16.57226 1.271-4.953 3.04798-9.18618 5.33398-12.70118 2.286-3.51199 4.97246-6.22195 8.06446-8.126949 3.08999-1.904998 6.4537-2.857422 10.0957-2.857422 7.44899 0 12.6561 3.726791 15.62109 11.175781 0.677 1.695 1.20689 3.11186 1.58789 4.25586 0.382 1.143 1.03575 1.71289 1.96875 1.71289 1.099 0 1.65039-1.18369 1.65039-3.55469 0-7.19499-0.50643-11.303311-1.52343-12.32031-0.425-0.506999-1.20561-1.042469-2.34961-1.605469-1.142-0.563999-2.53946-1.088266-4.18946-1.572265-1.65099-0.483-3.49439-0.877548-5.52539-1.185547-2.03299-0.308-4.19056-0.460938-6.47656-0.460938zm70.73828 0c-3.47299 0-6.58299 0.529845-9.33398 1.589844-2.752 1.059999-5.10283 2.567627-7.04883 4.515625-1.949 1.951-3.44981 4.28305-4.50781 6.99805-1.06 2.71499-1.58794 5.72134-1.58594 9.02734 0 3.732 0.48594 6.82716 1.46094 9.28516 0.973 2.46099 2.28555 4.58133 3.93554 6.36132 1.652 1.782 3.59876 3.35004 5.84375 4.70704a293.836 293.836 0 0 0 7.17578 4.19726c4.826 2.714 8.44443 5.6169 10.85743 8.71289 2.41299 3.096 3.61914 6.59219 3.61914 10.49219 0 2.207-0.36108 4.24047-1.08008 6.10547-0.72 1.865-1.69292 3.47698-2.91992 4.83398a13.096 13.096 0 0 1-4.38086 3.17969c-1.695 0.764-3.47299 1.14648-5.33399 1.14648-3.21899 1e-5 -6.24603-1.18759-9.08203-3.55859-2.83799-2.369-4.8882-5.71325-6.1582-10.03125-0.34-1.185-0.59372-2.32769-0.76172-3.42969-0.171-1.099-0.31831-2.05142-0.44531-2.85742-0.127-0.803-0.31631-1.4373-0.57031-1.90429-0.254-0.464-0.68049-0.69922-1.27149-0.69922-1.27 0-1.9043 1.31545-1.9043 3.93945 0 0.17 0.0185 0.52812 0.0625 1.07812 0.042 0.552 0.06446 1.29166 0.06446 2.22266 0 1.187-0.04591 2.45655-0.12891 3.81055-0.085 1.355-0.12695 2.75341-0.12695 4.1914 0 3.642 1.73403 6.34896 5.20703 8.12696 3.471 1.778 8.00185 2.66797 13.58984 2.66797 3.556 0 6.83676-0.6549 9.84375-1.96289 3.004-1.308 5.5871-3.10191 7.7461-5.37891 2.15799-2.279 3.85108-4.98052 5.08008-8.10352 1.22599-3.12399 1.84179-6.54086 1.84179-10.25586 0-3.54399-0.46548-6.66619-1.39648-9.36718a22.619 22.619 0 0 0-4.12891-7.28125c-1.821-2.152-4.04302-4.11272-6.66601-5.88672-2.626-1.772-5.63159-3.54436-9.01758-5.31836-4.063-2.109-7.04813-4.21908-8.95313-6.33008-1.905-2.109-2.85742-4.85247-2.85742-8.23047 0-4.04999 1.07928-7.23464 3.23828-9.55664 2.159-2.320997 5.14313-3.480468 8.95313-3.480468 2.96199 0 5.24842 0.888017 6.85742 2.666016 1.607 1.778002 3.09031 4.360092 4.44531 7.746092 0.931 2.203 1.54285 3.87358 1.83984 5.01758 0.296 1.143 0.91076 1.71484 1.84376 1.71484 1.09899 0 1.65039-0.88997 1.65039-2.66797 0-8.38199-0.34058-12.993793-1.01758-13.841792-0.593-0.788-2.26658-1.683502-5.01758-2.6875-2.752-1.001999-5.90494-1.503907-9.46094-1.503907zm-451.7539 0.22461c-0.939 0-2.16846 0.878767-3.68946 2.634765-1.523 1.755998-3.98095 3.805484-7.37695 6.146484-2.695 1.875-4.94772 3.13339-6.76172 3.77539-1.817 0.645-2.72266 1.66922-2.72266 3.07422 0 1.172 0.40852 1.78575 1.22852 1.84375 0.819 0.06 1.72666 0.23634 2.72266 0.52734 0.994 0.294 1.90165 0.96554 2.72265 2.01954 0.817 1.05399 1.23047 3.16322 1.23047 6.32421v79.39063c0 2.341-0.26401 4.03975-0.79101 5.09375-0.526 1.054-1.55322 1.87098-3.07422 2.45898-1.756 0.702-3.27941 1.05469-4.56641 1.05469-1.29 0-1.93164 0.81699-1.93164 2.45898 0 1.873 1.05411 2.81055 3.16211 2.81055 1.638 0 3.62403-0.17534 5.95703-0.52734 2.332-0.351 5.00472-0.52539 8.01172-0.52539s5.81936 0.17339 8.44336 0.52539c2.621 0.351 5.10131 0.52734 7.44531 0.52734 2.459 0 3.6875-0.82098 3.6875-2.45898 0-1.053-0.23417-1.75542-0.70117-2.10742-0.47-0.35-1.0847-0.58813-1.8457-0.70313-0.763-0.119-1.69955-0.23656-2.81055-0.35156-1.114-0.118-2.25483-0.46969-3.42383-1.05469-1.406-0.587-2.28376-1.40498-2.63476-2.45898s-0.5254-2.63519-0.5254-4.74219l0.17383-24.93945 0.70508-0.52735c4.698 2.691 9.81104 4.03906 15.33203 4.03906 5.286 0 10.10613-1.08304 14.45313-3.24804 4.34699-2.165 8.10434-5.20977 11.27734-9.13477 3.172-3.92199 5.63839-8.57589 7.40039-13.96289 1.762-5.38499 2.64649-11.35602 2.64649-17.91601 0-5.972-0.76221-11.41599-2.28321-16.33399-1.523-4.91799-3.57248-9.07466-6.14648-12.47266-2.577-3.39399-5.62177-6.028341-9.13477-7.902339-3.51199-1.872998-7.20045-2.810547-11.06445-2.810547-3.749 0-7.20228 0.791096-10.36328 2.371094-3.163 1.580999-6.2646 4.127632-9.3086 7.640622l-1.75585 2.10743c-0.588 0.58799-1.05525 0.8789-1.40625 0.8789s-0.52735-0.40852-0.52735-1.22851h0.00195v-8.609379c1e-5 -2.458998-0.58686-3.6875-1.75585-3.6875zm79.91601 0c-0.939 0-2.1665 0.878767-3.6875 2.634765-1.523 1.755998-3.98096 3.805484-7.37695 6.146484-2.695 1.875-4.94968 3.13339-6.76367 3.77539-1.817 0.645-2.72266 1.66922-2.72266 3.07422 0 1.172 0.41047 1.78575 1.23047 1.84375 0.819 0.06 1.72666 0.23634 2.72265 0.52734 0.994 0.294 1.90166 0.96554 2.72266 2.01954 0.817 1.05399 1.22852 3.16322 1.22852 6.32421v79.39063c0 2.341-0.26402 4.03975-0.79102 5.09375-0.526 1.054-1.55127 1.87098-3.07226 2.45898-1.756 0.702-3.27941 1.05469-4.56641 1.05469-1.29 0-1.93359 0.81699-1.93359 2.45898 0 1.873 1.05411 2.81055 3.1621 2.81055 1.638 0 3.62599-0.17534 5.95899-0.52734 2.332-0.351 5.00277-0.52539 8.00977-0.52539 3.00699 0 5.82131 0.17339 8.44531 0.52539 2.62099 0.351 5.09936 0.52734 7.44336 0.52734 2.45899 0 3.68945-0.82098 3.68945-2.45898 0-1.053-0.23613-1.75542-0.70312-2.10742-0.47-0.35-1.08276-0.58813-1.84376-0.70313-0.76299-0.119-1.69954-0.23656-2.81054-0.35156-1.114-0.118-2.25678-0.46969-3.42578-1.05469-1.406-0.587-2.28377-1.40498-2.63477-2.45898s-0.52344-2.63519-0.52344-4.74219l0.17383-24.93945 0.70313-0.52735c4.69799 2.691 9.81299 4.03906 15.33398 4.03906 5.286 0 10.10418-1.08304 14.45117-3.24804 4.347-2.165 8.10435-5.20977 11.27735-9.13477 3.17199-3.92199 5.64034-8.57589 7.40234-13.96289 1.762-5.38499 2.64453-11.35602 2.64453-17.91601 0-5.972-0.7622-11.41599-2.2832-16.33399-1.523-4.91799-3.57249-9.07466-6.14649-12.47266-2.57699-3.39399-5.61981-6.028341-9.13281-7.902339-3.51199-1.872998-7.20241-2.810547-11.0664-2.810547-3.749 0-7.20034 0.791096-10.36133 2.371094-3.163 1.580999-6.26655 4.127632-9.31055 7.640622l-1.75586 2.10743c-0.588 0.58799-1.0533 0.8789-1.4043 0.8789s-0.52734-0.40852-0.52734-1.22851v-8.609379c0-2.458998-0.58686-3.6875-1.75586-3.6875zm128.57031 0.523437c-4.91799 0-9.45828 0.99633-13.61328 2.986328-4.15799 1.992998-7.75778 4.803644-10.80078 8.431644-3.047 3.63099-5.41828 8.05077-7.11328 13.25976-1.699 5.212-2.54687 11.04052-2.54687 17.47852-1e-5 6.44199 0.7602 12.23768 2.2832 17.38867 1.52 5.15399 3.68805 9.54388 6.49804 13.17187 2.811 3.631 6.17562 6.41271 10.09961 8.34571 3.922 1.931 8.28295 2.89648 13.08594 2.89648 4.566 0 8.66393-0.7622 12.29492-2.2832 3.627-1.52 6.76149-3.30642 9.39649-5.35742 2.635-2.047 4.65359-4.12638 6.05859-6.23438s2.10742-3.80475 2.10742-5.09375c0-1.287-0.46829-1.93164-1.40429-1.93164-0.352 0-0.96675 0.52608-1.84375 1.58008s-2.10846 2.22667-3.68946 3.51367c-1.58099 1.29-3.5727 2.45772-5.9707 3.51172-2.402 1.054-5.24353 1.58203-8.51953 1.58203-7.37699 0-13.37891-3.16238-18.00391-9.48437-4.62699-6.323-6.9375-14.92933-6.9375-25.82032v-4.21484c0-1.169 0.11557-1.9322 0.35157-2.2832 0.234-0.351 0.81786-0.52735 1.75586-0.52735v-0.0039h38.81835c2.107 0 3.62841-0.23217 4.56641-0.70117 0.936-0.466 1.40625-1.46333 1.40625-2.98633 0-3.746-0.67649-7.25812-2.02148-10.53711-1.348-3.277-3.24999-6.14843-5.70899-8.60742-2.459-2.459001-5.44403-4.418771-8.95703-5.884769-3.514-1.461999-7.3758-2.195313-11.5918-2.195313zm-0.00195 4.042969c3.746 0 6.81971 1.230455 9.2207 3.689453 2.399 2.459 3.60157 5.15313 3.60157 8.07813 0 3.86499-1.31618 6.44151-3.95118 7.72851-2.63499 1.29-6.82455 1.93359-12.56054 1.93359h-11.41797c-1.405 0-2.10547-0.52607-2.10547-1.58007v-0.35352l0.52539-2.81055c0.937-4.79899 2.92566-8.78236 5.97266-11.94336 3.04299-3.160992 6.61384-4.742183 10.71484-4.742183zm-192.61133 7.904293c6.705 0 12.26084 2.88631 16.67383 8.6543 4.413 5.76799 6.62109 13.88729 6.62109 24.36328 0 4.946-0.56173 9.50855-1.67773 13.68555-1.12 4.17899-2.70467 7.76753-4.76367 10.76953-2.058 3.003-4.50218 5.33252-7.32617 6.97852-2.824 1.64699-5.94252 2.46875-9.35352 2.46875-4.47099 0-7.94211-1.35155-10.41211-4.06055-2.469-2.706-3.70212-6.88712-3.70312-12.53711v-32.84375c0-5.88299 1.08572-10.26539 3.26171-13.15039 2.177-2.884 5.7377-4.32813 10.67969-4.32813zm79.91602 0c6.70499 0 12.26278 2.88631 16.67578 8.6543 4.41299 5.76799 6.61914 13.88729 6.61914 24.36328 0 4.946-0.55978 9.50855-1.67578 13.68555-1.12 4.17899-2.70663 7.76753-4.76563 10.76953-2.05799 3.003-4.50022 5.33252-7.32422 6.97852-2.82399 1.64699-5.94251 2.46875-9.35351 2.46875-4.471 0-7.94211-1.35155-10.41211-4.06055-2.469-2.706-3.70408-6.88712-3.70508-12.53711v-32.84375c0-5.88299 1.08768-10.26539 3.26367-13.15039 2.177-2.884 5.73574-4.32813 10.67774-4.32813z"/><path d="m130.43555 0.61328125c-11.25699 0.77499925-24.42425 7.97085315-32.115238 17.33984375-6.977993 8.510991-12.739091 21.135497-10.496093 33.396484 12.290991 0.384 25.005681-6.985056 32.388671-16.498047 6.88499-8.879991 12.12065-21.418294 10.22266-34.23828075zm4.16601 49.36914075c-18.96898 0-26.98554 9.044922-40.144529 9.044922-13.561986 0-23.874266-9.03125-40.28125-9.03125-16.112984 0-33.247386 9.829063-44.109375 26.623047-0.0669997 0.101-0.1362186 0.203593-0.1992185 0.308593l156.9785125 0.011719a48.623 48.623 0 0 1 8.10547-5.568359c-10.82299-13.550987-26.01762-21.388672-40.34961-21.388672z" fill="#61bb46"/><path d="M9.308 76.68C4.63 84.039 1.394 94.587.535 103.839l151.755-.004c1.641-10.122 7.097-19.792 15.744-27.144L9.308 76.68h.009-.009z" fill="#fdb827"/><path d="M1.912 130.756c-1.475-9.449-1.713-18.559-.787-26.917l150.573-.004c-1.473 9.064-.237 18.496 3.488 26.927l-153.274-.006z" fill="#f5821f" stroke="#f5821f" stroke-miterlimit="2.613" stroke-width="1.155"/><path d="M9.271 157.672c-3.556-9.043-5.99-18.125-7.359-26.915l153.275.006c4.745 10.743 13.526 19.87 25.891 24.56-.367.82-.722 1.605-1.063 2.361l-170.744-.012z" fill="#e03a3e" stroke="#e03a3e" stroke-miterlimit="2.613" stroke-width="1.155"/><path d="M180.016 157.683c-4.245 9.372-6.706 14.237-12.581 23.216a226.609 226.609 0 0 1-2.457 3.684l-141.48.013c-.453-.678-.902-1.355-1.344-2.028a137.444 137.444 0 0 1-12.881-24.897l170.743.012z" fill="#963d97" stroke="#963d97" stroke-miterlimit="2.613" stroke-width="1.155"/><path d="M164.977 184.583c-8.655 12.731-20.274 26.741-34.373 26.874-13.758.125-17.287-8.99-35.952-8.888-18.665.105-22.562 9.047-36.319 8.918-14.709-.137-26.13-13.896-34.837-26.891l141.481-.013z" fill="#009ddc" stroke="#009ddc" stroke-miterlimit="2.613" stroke-width="1.155"/></svg>
