<svg height="116.145" viewBox="-1 -1 568.929 116.145" width="568.929" xmlns="http://www.w3.org/2000/svg"><g fill="#fff"><path d="M110.903 77.172c-3.131-4.412 1.85-7.685 6.831-12.381 4.98-4.697 5.977-19.497-3.558-26.755s-31.024-8.397-39.421-7.4c-8.396.996-8.396 6.689-7.685 14.089.712 7.4.657 20.912-.285 50.094-.285 8.823 5.266 6.974 11.243 7.116s7.542-1.566 7.685-5.55c.142-3.985 1.281-9.82 5.55-10.104 4.269-.285 6.689 5.407 8.823 10.673 2.135 5.266 5.266 4.981 17.505 4.554 12.24-.428-3.557-19.925-6.688-24.336zM91.691 65.218c-7.685-.285-7.827-6.405-7.685-8.824s2.704-8.823 7.116-8.681c4.27 0 6.974 1.281 8.396 5.692 1.423 4.412-.142 12.097-7.827 11.813z"/><path d="M163.559 84.003c-2.277-3.559-8.112-1.708-16.224 1.281-3.843 1.28-5.978 1.992-6.832.427-.853-1.565 3.558-3.273 10.105-5.267 6.546-1.992 13.662-5.834 14.374-11.953.711-6.12-5.265-14.374-19.924-14.943-14.658-.569-20.778 11.527-23.055 18.216-2.276 6.688.427 19.64 8.54 25.617 8.112 5.977 17.931 3.415 27.039-1.139s8.254-8.681 5.977-12.239zM138.37 73.045c-2.277-3.842 0-7.4 2.703-9.108 2.704-1.708 7.828-1.423 9.251 1.565 1.422 2.989 0 6.547-3.131 7.97s-7.685 1.423-8.823-.427zm57.068-3.984c4.82 3.686 10.531 4.554 11.955 2.419 1.423-2.135 2.846-7.97-2.135-11.955-4.98-3.985-15.369-5.977-23.909-3.131-8.539 2.847-12.523 10.104-10.815 16.082 1.707 5.977 10.962 8.671 13.946 10.104 3.558 1.707 5.124 2.988 4.27 4.27-.854 1.28-4.127-.285-7.259-1.708-3.13-1.424-8.112-3.7-10.104-.996s-3.7 8.538 3.415 12.666c7.116 4.126 16.793 5.977 25.048 2.276 8.254-3.7 9.108-10.674 7.257-15.37-1.85-4.696-8.254-7.826-12.239-10.246-3.984-2.42-7.116-3.416-6.404-5.123.712-1.708 4.554-1.139 6.974.712zm17.788-3.416c-.854-3.273 1.851-7.828 6.832-8.255 4.98-.427 8.823 3.131 8.538 7.116-.284 3.985-1.85 12.809-1.85 18.643 0 5.835 1.708 10.816 1.565 13.805s-3.559 5.408-7.97 5.408c-4.412 0-7.97-.143-8.254-5.692-.285-5.551 1.281-14.089 1.565-18.786.286-4.697-.283-9.393-.426-12.239z"/><ellipse cx="221.125" cy="45.863" rx="8.752" ry="8.112"/><path d="M274.279 71.764c.143-8.823 2.135-21.632 2.135-30.74s-4.98-10.673-9.393-10.247c-4.412.427-5.551 5.408-4.696 11.812 0 9.82-2.419 8.396-5.266 8.539-19.497 1.281-22.913 11.669-25.331 20.92-2.42 9.25.853 18.073 6.403 24.336 5.55 6.261 21.063 5.977 22.201 4.695 1.138-1.281 2.419-3.131 4.127-1.139 1.708 1.993 5.266 2.277 7.827.712s3.7-5.692 2.846-8.396c-.853-2.703-.996-11.669-.853-20.492zm-21.916 13.662c-4.087 0-7.4-4.078-7.4-9.107 0-5.031 3.313-9.108 7.4-9.108s7.4 4.077 7.4 9.108c0 5.029-3.313 9.107-7.4 9.107zm27.04-1.28c.284-21.489.284-21.063.284-23.767 0-2.705 4.411-7.827 8.823-8.254 4.411-.427 8.539-.854 8.539 5.692s-.285 19.355-.285 21.774c0 2.42 4.127 5.835 4.554.284.428-5.55.428-18.927.569-22.627.143-3.7 3.842-5.265 7.685-5.408 3.843-.142 9.393 1.423 8.396 7.827-.996 6.404-.996 12.666-.996 18.073 0 5.408 1.992 12.809 1.565 17.506-.427 4.695-3.7 6.973-7.115 6.83-3.416-.142-5.835-1.992-7.115-2.419-1.281-.427-8.966 4.839-16.081.142-7.116-4.695-9.108-10.531-8.823-15.653zm80.975 4.411c-1.52-9.115-.854-15.085-.285-21.631.569-6.547-2.277-10.675-8.254-12.951-5.978-2.277-18.358-.142-22.771 5.266-4.411 5.408-7.542 16.082-6.688 22.771.854 6.688 1.281 15.37 12.238 19.069 10.959 3.7 11.955-2.419 14.374-2.562 2.42-.143 3.7 3.131 6.546 3.273 2.847.143 5.979-2.847 6.689-5.835.713-2.988-1.422-4.839-1.849-7.4zm-18.358-2.562c-3.853 0-6.974-4.174-6.974-9.321 0-5.148 3.121-9.321 6.974-9.321 3.851 0 6.973 4.173 6.973 9.321s-3.122 9.321-6.973 9.321zm43.833-55.502c-3.132-8.824 8.396-17.22 13.804-5.978 5.408 11.243 21.347 41.699 23.624 45.115 2.277 3.415 4.98 2.987 4.554-4.555-.427-7.543.427-43.264.427-46.537s3.131-7.685 8.682-7.827c5.55-.143 8.682 3.273 7.97 11.385s-2.135 54.222-2.847 65.892c-.712 11.669-14.517 25.758-25.475 6.261-10.958-19.496-28.178-57.636-30.739-63.756zm64.752 4.27c-1.139-9.678 2.419-13.378 6.119-13.805s17.505 14.374 25.189 27.182c4.412 6.404 5.55 8.396 6.831-1.708s5.692-24.051 7.827-28.463 12.239-10.389 14.516 2.846c2.277 13.236 11.813 50.665 12.809 57.21.996 6.547 2.277 13.235-2.135 14.801s-11.67 3.985-13.805-5.123c-2.134-9.108-4.554-32.875-5.407-34.583-.854-1.708-2.135-.711-2.562 3.7-.428 4.412-1.993 20.778-2.563 23.909s-7.685 10.246-13.377-.569-10.957-19.781-12.237-21.205c-1.281-1.423-1.851.854-1.424 3.985s3.559 16.081 6.546 23.197c2.989 7.115 2.704 15.654-3.272 17.22-5.978 1.565-10.389 2.135-13.235-13.521-2.847-15.652-8.824-46.819-9.82-55.073zm-86.432 5.55c0-4.649 2.751-7.306 7.21-7.211 4.46.096 11.292.475 10.911 6.927-.38 6.451-1.233 30.265-1.043 39.279.189 9.014.379 15.37.379 17.837 0 2.466-2.087 4.174-6.641 4.174s-9.108 1.328-9.583-4.839c-.475-6.166.285-23.813.285-31.024.001-7.212-1.612-20.685-1.518-25.143zM68.431 52.027c-.731-7.158-.649-13.542.812-16.154 1.46-2.612 5.112-5.61 16.556-4.353s20.127 2.708 28.162 6.771c-11.281-3.771-29.542-4.933-36.197-4.353-6.655.581-8.846 2.419-9.333 18.089zm32.107 5.316c-.782 4.412-2.134 7.258-5.337 8.254-3.202.996-8.183-.214-9.606-1.779 2.206 3.06 7.756 3.345 11.101 2.419 3.345-.925 3.7-7.4 3.842-8.894zm23.268 11.812c5.479-9.464 9.251-12.453 13.52-13.876 4.27-1.422 8.112-1.422 15.725.214-8.254-.64-14.942.142-18.216 2.206-3.272 2.063-9.606 9.321-11.029 11.456zm27.538.213c-.854 3.131-4.625 6.973-12.239 5.052 6.902 3.558 12.097-.498 12.239-5.052zm-10.531 17.433c.925.854 3.273.569 6.119-.498 2.847-1.067 8.396-3.628 11.813-3.416-2.704.285-4.057 1.21-6.262 2.136-2.206.925-8.326 4.341-11.67 1.778zm30.313-17.789c1.637-9.463 11.385-13.875 21.276-13.235-7.045-.427-18.573 4.483-21.276 13.235zm-.925 20.778c.783-4.483 2.064-7.97 8.041-5.408-2.99-1.067-6.547-.214-8.041 5.408zm53.651-31.238c-3.201-1.566-10.887.356-9.819 8.681.64-7.471 6.334-9.677 9.819-8.681zm-10.887-11.456c-.07-4.483 4.198-10.816 11.741-7.827-5.478-1.494-11.313 2.419-11.741 7.827z"/><path d="M233.458 68.656c6.334-13.519 11.67-16.224 24.977-16.865-12.31 1.496-19.781 7.473-24.977 16.865zm14.303 15.441c4.697 4.341 10.887 1.139 12.097-4.197-.854 8.04-9.25 8.894-12.097 4.197zm21.703-52.585c-2.562-.569-6.404.854-6.476 7.543.997-5.835 4.056-7.329 6.476-7.543zm10.887 34.156c.428-10.673 5.052-12.738 10.959-12.88-5.551.427-10.033 4.341-10.959 12.88zm17.22 17.149c1.851 1.707 4.483 1.139 4.839-4.91.498 6.688-3.131 8.041-4.839 4.91zm4.91-22.557c0-6.261 3.558-7.969 6.831-7.685-3.06.285-6.404 3.273-6.831 7.685zm21.845 10.247c4.697-11.528 8.824-15.797 21.489-16.651-7.97 1.209-14.587 3.558-21.489 16.651zm12.666 13.875c3.487 3.345 9.393 3.486 11.741-2.49-.783 5.55-6.974 8.112-11.741 2.49zm28.035-38.923c-.212-7.471.285-12.666 9.892-11.456-4.768-.284-9.536.498-9.892 11.456zm21.205-18.074c.427-5.408 4.839-9.393 10.389-6.12-3.842-1.279-8.325-.426-10.389 6.12zm42.339-3.13c.355-8.468 2.775-12.381 8.04-12.808-4.554.996-7.329 6.759-8.04 12.808zm22.912 3.985c1.922-5.977 4.696-8.396 9.962-3.344-4.721-3.938-7.613-1.78-9.962 3.344zm39.421 10.033c5.621-19.354 6.902-22.059 10.318-23.695 3.414-1.637 6.403.711 6.403.711-3.201-1.565-6.617-.569-8.681 2.917-2.064 3.487-7.685 18.643-8.04 20.067zm-6.049 15.511c1.708 1.068 3.559.711 4.697-5.55-.64 5.195-.926 8.183-4.697 5.55zm-61.621 17.504c2.988 2.277 5.337 2.207 5.764-6.19 1.138 9.18-2.562 10.104-5.764 6.19z"/></g></svg>