<svg width="472.24689" height="105.72525" enable-background="new -1 -1 568.929 116.145" version="1.1" viewBox="-1 -1 472.24687 105.72525" xml:space="preserve" xmlns="http://www.w3.org/2000/svg">
<path d="m-0.95136664 36.7069c-0.47499996-9.773 2.56200004-15.749 7.68500004-17.931 5.1239996-2.183 18.9749996-3.227 30.4549996-1.804s29.223 6.452 31.404 24.383c3.511-1.897 13.757-4.744 21.537-4.269 7.779 0.475 16.412997 3.985 19.638997 8.633 7.305-7.4 27.229-9.866 34.724-3.604-1.707-12.524 9.013-19.26 17.173-18.596 8.159 0.664 16.224 4.744 16.508 18.121 5.978-5.502 13.094-4.079 15.75-4.079-0.569-13.377 4.555-21.443 14.516-21.252 9.963 0.19 17.268 6.926 17.078 20.208 4.934-1.139 12.524-0.664 14.516 2.751 5.124-4.08 20.683-6.167 25.807 4.08 10.626-10.721 26.185-7.4 31.213-3.605-0.854-12.809 6.737-22.202 21.728-18.312-0.759-10.247 7.59-16.1279997 15.56-14.2309997s12.854 10.1039997 27.894 39.5629997c0.094-32.353-0.474-36.716 2.182-41.2709997 2.656-4.55400001 9.202-6.831 14.421-6.45100001 5.218 0.379 12.619 3.98400001 12.903 12.14399971 7.353-8.5389997 19.022 3.842 31.974 19.497 6.261-24.3829997 14.42-31.26099971 22.104-30.69199971 7.686 0.569 10.911 5.59800001 13.283 15.84399971 2.372 10.246 10.152 51.897 11.575 59.582s0.474 15.086-6.263 17.078c-6.735 1.992-20.112 3.7-25.615-8.539-0.854 1.044-7.116 3.226-11.48 2.183-0.189 9.962-7.307 16.413-13.377 16.792-6.072 0.38-16.225 0.761-19.07-12.712s-4.27-20.02-4.364-20.399c-1.897 12.998-2.42 27.04-11.338 31.878-8.918 4.839-17.409 5.124-26.612-8.537-9.203-13.663-23.529-41.937-23.814-42.601-0.854 1.043-0.854 2.656-0.854 6.072s0.096 17.362 1.044 28.178-3.7 16.698-8.918 17.362c-5.219 0.665-11.671 0.285-14.896-2.087-3.7 2.562-12.618 4.459-16.128 1.138-2.941 1.424-12.43 4.744-22.771-2.655-1.139-0.949-3.131-1.328-4.934 0.759-1.803 2.088-10.531 5.029-16.698 0.949-2.088 0.759-9.014 3.984-15.465-0.285s-7.874-4.174-8.918-3.131c-1.044 1.044-6.452 5.502-12.714 5.028s-5.502-1.328-8.442 0c-2.942 1.328-10.343 2.277-19.45-2.941-2.088-1.138-5.029-2.655-6.926-0.854-1.897 1.803-5.313 4.269-10.911 4.269s-9.962-1.517-11.385-2.655c-1.423-1.139-3.511-1.613-7.59-0.095-4.08 1.518-15.56 3.984-23.34 0.569-7.78-3.416-11.385-5.504-11.955-6.263-3.794 3.036-13.945997 7.496-20.777997 8.35-6.831 0.854-15.844-1.613-18.975-4.839-4.27 3.511-4.838 4.554-11.575 4.648s-17.647 1.139-21.252-5.882c-0.854-1.233-2.277-0.19-2.656 0.948-0.38 1.139-2.562 4.27-8.729 4.648-6.167 0.38-24.5719996 1.899-24.38299964-10.34 0.19-12.239 1.138-24.952 1.233-32.923 0.094-7.967-0.856-12.143-1.33-21.82z"/>
<path d="m21.541992 24.159072c-2.329868 0.01049-4.363064 0.123609-5.9375 0.310547-8.3959906 0.995999-8.3965456 6.687898-7.6855466 14.08789 0.712 7.399993 0.656843 20.91178-0.285156 50.09375-0.284999 8.822991 5.2651936 6.975191 11.2421876 7.117191s7.542547-1.56679 7.685547-5.550784c0.141999-3.984996 1.281785-9.819516 5.550781-10.103516 4.268996-0.285 6.688268 5.40588 8.822268 10.671875 2.135 5.265995 5.26687 4.981685 17.50586 4.554685 12.23998-0.428-3.55846-19.924939-6.68946-24.335935-3.13099-4.411996 1.85104-7.684864 6.83204-12.380859 4.97999-4.696996 5.97639-19.497867-3.5586-26.75586-7.74718-5.897119-23.386325-7.754462-33.482421-7.708984zm187.998048 0.394531c-0.55851-0.01981-1.1183 0.0034-1.66993 0.05664-4.41199 0.426999-5.55226 5.408506-4.69726 11.8125 0 9.81999-2.41863 8.396062-5.26563 8.539062-19.49698 1.280999-22.91208 11.668931-25.33007 20.919922-2.42 9.249991 0.85234 18.072944 6.40234 24.335938 5.54999 6.260994 21.06317 5.975354 22.20117 4.693354 1.138-1.280994 2.41896-3.130665 4.12695-1.138667 1.708 1.992997 5.26518 2.277887 7.82618 0.712887 2.56099-1.564995 3.70165-5.692483 2.84765-8.396481-0.853-2.702997-0.99651-11.669196-0.85351-20.492187s2.13476-21.632244 2.13476-30.740234c0-7.969493-3.81309-10.164048-7.72265-10.302734zm102.6914 2.380859c-4.45899-0.095-7.20898 2.561943-7.20898 7.210938-0.094 4.457996 1.51858 17.930585 1.51758 25.142578 0 7.210993-0.76016 24.859397-0.28516 31.025391 0.475 6.166991 5.02804 4.837891 9.58203 4.837891 4.554 0 6.64258-1.707831 6.64258-4.173829 0-2.466997-0.18991-8.821946-0.37891-17.835937-0.19-9.013991 0.66297-32.828304 1.04297-39.279297 0.381-6.451994-6.45211-6.831735-10.91211-6.927735zm-150.25781 4.650391a8.7519999 8.1120005 0 0 0-8.75195 8.111328 8.7519999 8.1120005 0 0 0 8.75195 8.111328 8.7519999 8.1120005 0 0 0 8.75195-8.111328 8.7519999 8.1120005 0 0 0-8.75195-8.111328zm-130.003903 9.960938c4.269995 0 6.974486 1.28041 8.396484 5.691406 1.423002 4.411995-0.141179 12.098453-7.826172 11.814453-7.684992-0.285-7.827546-6.405221-7.685547-8.824219 0.142-2.418997 2.703239-8.82364 7.115235-8.68164zm219.189453 4.121093c-0.25151-0.0052-0.4981-3e-3 -0.73828 0.0059-3.843 0.143-7.54255 1.708207-7.68555 5.408203-0.141 3.699996-0.14036 17.076959-0.56836 22.626953-0.427 5.550994-4.55469 2.136794-4.55469-0.283203 0-2.418998 0.28516-15.229397 0.28516-21.775391 0-6.545993-4.12807-6.118406-8.53906-5.691406-4.412 0.427-8.82227 5.548909-8.82227 8.253906 0 2.703998-1e-3 2.2786-0.28516 23.767578-0.285 5.121995 1.70823 10.957349 8.82422 15.652344 7.115 4.696992 14.79908-0.569578 16.08008-0.142578 1.28 0.427 3.69924 2.27792 7.11524 2.41992 3.41499 0.143 6.68823-2.135081 7.11523-6.830076 0.427-4.696996-1.56445-12.097865-1.56445-17.50586 0-5.406994 9e-5 -11.668272 0.99609-18.072265 0.93469-6.003744-3.88558-7.755601-7.6582-7.833985zm36.06836 1.242188c-6.2107-0.106641-14.0008 2.108066-17.31055 6.164062-4.411 5.407995-7.5415 16.082491-6.6875 22.771485 0.854 6.687993 1.27934 15.369363 12.23633 19.068361 10.95899 3.69999 11.956-2.417549 14.375-2.560549 2.42-0.143 3.69892 3.131439 6.54492 3.273439 2.847 0.143 5.97945-2.847942 6.68945-5.835939 0.713-2.987997-1.42065-4.839393-1.84765-7.40039-1.52-9.114991-0.85416-15.084866-0.28516-21.63086 0.569-6.546993-2.27691-10.675174-8.25391-12.951172-1.49449-0.569249-3.3907-0.86289-5.46093-0.898437zm-202.669927 0.455078c-13.68741 0.19851-19.49923 11.75246-21.70507 18.232422-2.276 6.687993 0.42607 19.640193 8.53906 25.617187 8.11199 5.976991 17.93107 3.415321 27.03906-1.138671 9.107987-4.553996 8.253557-8.680285 5.976557-12.238282-2.27699-3.558996-8.110657-1.7097-16.222647 1.279297-3.843 1.279999-5.97803 1.992733-6.83203 0.427735-0.853-1.564999 3.55652-3.273581 10.10351-5.267579 6.546-1.991998 13.662997-5.834131 14.374997-11.953125 0.711-6.119994-5.26484-14.372406-19.923827-14.941406-0.45806-0.01778-0.90808-0.02398-1.34961-0.01758zm45.966797 1.525391c-2.80838 0.03128-5.65742 0.448516-8.32617 1.33789-8.53899 2.846997-12.52441 10.104037-10.81641 16.082031 1.707 5.976995 10.96327 8.670518 13.94727 10.103516 3.558 1.706998 5.12353 2.987533 4.26953 4.269531-0.854 1.279999-4.12777-0.284032-7.25977-1.707031-3.12999-1.423998-8.11151-3.700091-10.10351-0.996094-1.992 2.703998-3.69898 8.53802 3.41601 12.666016 7.116 4.126 16.79189 5.97639 25.04688 2.275391 8.25399-3.699997 9.10881-10.673146 7.25781-15.369141-1.85-4.695995-8.25524-7.826096-12.24023-10.246094-3.984-2.419997-7.11435-3.416048-6.40235-5.123047 0.712-1.707998 4.55266-1.14006 6.97266 0.710938 4.82 3.685996 10.53108 4.55492 11.95508 2.419922 1.423-2.134998 2.84623-7.970082-2.13477-11.955078-3.42374-2.739685-9.40359-4.537557-15.58203-4.46875zm31.30274 2.298828c-0.30164-0.0036-0.60868 0.0085-0.91993 0.03516-4.98099 0.427-7.68603 4.98091-6.83203 8.253906 0.143 2.845997 0.71178 7.543239 0.42578 12.240235-0.284 4.696995-1.84945 13.234161-1.56445 18.785156 0.284 5.548998 3.84191 5.691408 8.25391 5.691408 4.41099 0 7.82575-2.419208 7.96875-5.408205s-1.56446-7.969693-1.56446-13.804687c0-5.833995 1.56561-14.657583 1.84961-18.642579 0.26719-3.735933-3.09263-7.09674-7.61718-7.15039zm-76.166017 5.539062c2.28639-0.07088 4.62234 0.739924 5.51172 2.607422 1.422 2.988997 1.4e-4 6.547705-3.13086 7.970703-3.131 1.422999-7.68622 1.422264-8.82422-0.427734-2.277-3.841996 1.3e-4 -7.399424 2.70313-9.107422 1.01399-0.640499 2.36839-1.000441 3.74023-1.042969zm107.550777 4.316407c4.087 0 7.40039 4.076426 7.40039 9.107421 0 5.028995-3.31339 9.107422-7.40039 9.107422-4.08699 0-7.40039-4.078427-7.40039-9.107422 0-5.030995 3.3134-9.107421 7.40039-9.107421zm89.65625 0.142578c3.851 0 6.97266 4.172317 6.97266 9.320312s-3.12166 9.320313-6.97266 9.320313c-3.85299 0-6.97265-4.173318-6.97265-9.320313 0-5.147995 3.11966-9.320312 6.97265-9.320312z" fill="#dbbd3b"/>
<path d="m377.79199 4.5438383c-5.551 0.141999-8.68164 4.553175-8.68164 7.8261707 0 3.272997-0.85278 38.994117-0.42578 46.53711 0.426 7.541992-2.27769 7.971637-4.55469 4.55664-2.277-3.415996-18.21701-33.872245-23.625-45.115234-5.40799-11.2419887-16.93473-2.847429-13.80273 5.976563 2.56099 6.119993 19.78029 44.259878 30.73828 63.755859 10.95799 19.496983 24.76261 5.409223 25.47461-6.259766 0.712-11.669988 2.13565-57.780586 2.84765-65.892578 0.712-8.1119917-2.42071-11.5277647-7.9707-11.3847647zm67.98437 2.02539c-3.43246-0.225758-7.15648 2.750674-8.35742 5.2324217-2.135 4.411996-6.54517 18.358901-7.82617 28.462891s-2.42004 8.112978-6.83203 1.708984c-7.68399-12.807987-21.4875-27.610593-25.1875-27.183594-3.7 0.427-7.25814 4.128651-6.11914 13.806641 0.996 8.253992 6.97331 39.420281 9.82031 55.072266 2.846 15.655982 7.25638 15.086482 13.23438 13.521482 5.97599-1.566 6.26048-10.105708 3.27148-17.220701-2.987-7.115993-6.11792-20.066269-6.54492-23.197266s0.14283-5.407373 1.42383-3.984375c1.28 1.423999 6.54433 10.390089 12.23633 21.205078 5.69199 10.814989 12.80695 3.699356 13.37695 0.56836 0.57-3.130997 2.1345-19.496208 2.5625-23.908204 0.427-4.410995 1.7085-5.40917 2.5625-3.701171 0.853 1.707998 3.27225 25.475993 5.40625 34.583984 2.135 9.107991 9.39464 6.689045 13.80664 5.123047 4.41199-1.565999 3.13076-8.253788 2.13476-14.800781-0.99599-6.544994-10.53159-43.974951-12.80859-57.210938-0.99619-5.7903067-3.49046-7.9025347-6.16016-8.0781247z" fill="#9a5f1b"/>


<path d="m20.995117 25.063369c-7.084078 0.142565-9.718048 2.52033-10.904296 4.642578-1.4609986 2.611997-1.5415466 8.996304-0.8105466 16.154297 0.486999-15.669985 2.6770376-17.508845 9.3320306-18.089844 6.654993-0.579999 24.916278 0.582519 36.197268 4.353516-8.03499-4.062996-16.718123-5.514486-28.162112-6.771485-2.145748-0.235687-4.017556-0.321962-5.652344-0.289062zm188.306633 0.167969c-2.4527-0.01736-5.40184 1.80338-5.46484 7.65625 0.997-5.834995 4.05657-7.328969 6.47656-7.542969-0.32025-0.07112-0.66133-0.110801-1.01172-0.113281zm103.99805 2.429687c-7.22526-0.0411-7.61595 4.860272-7.42383 11.630859 0.356-10.957989 5.12459-11.739077 9.89258-11.455078-0.90065-0.113437-1.72131-0.171529-2.46875-0.175781zm-151.63476 4.669922c-5.10047 0.09261-7.90844 4.955222-7.85157 8.597656 0.428-5.407994 6.26224-9.32017 11.74024-7.826172-1.41431-0.560437-2.71164-0.792856-3.88867-0.771484zm37.61914 13.292969c-13.30699 0.640999-18.64453 3.346248-24.97852 16.865234 5.196-9.391991 12.66853-15.369236 24.97852-16.865234zm50.25976 0.753906c-3.08776-0.02343-6.21484 1.845162-6.21484 7.714844 0.427-4.411996 3.77203-7.400548 6.83203-7.685547-0.20456-0.01775-0.41134-0.02773-0.61719-0.0293zm-17.38476 0.242187c-5.907 0.142-10.53099 2.20787-10.95899 12.88086 0.926-8.538992 5.40799-12.45386 10.95899-12.88086zm54.5039 1.06836c-12.66498 0.853999-16.79128 5.124355-21.48828 16.652343 6.90199-13.092986 13.51829-15.443344 21.48828-16.652343zm-201.878897 0.382812c-2.44588-0.02675-4.47438 0.330017-6.60938 1.041016-4.26899 1.422998-8.04053 4.411009-13.51953 13.875 1.423-2.134998 7.7573-9.39208 11.0293-11.455078 3.27399-2.063998 9.96085-2.847031 18.21484-2.207031-3.80649-0.818-6.66936-1.227157-9.11523-1.253907zm46.615227 1.478516c-9.22686-8e-3 -17.88914 4.423368-19.42383 13.294922 2.703-8.751991 14.2304-13.661375 21.27539-13.234375-0.61818-0.04-1.23643-0.06002-1.85156-0.06055zm30.69531 2.337891c-3.53881 0.07772-8.04726 2.673834-7.21289 9.177734 0.64-7.470993 6.33337-9.675687 9.81836-8.679688-0.70022-0.342562-1.6146-0.519809-2.60547-0.498046zm-69.902337 11.3125c-0.854 3.130996-4.62429 6.973732-12.23828 5.052734 6.90199 3.557996 12.09628-0.498739 12.23828-5.052734zm151.066407 8.539062c-0.356 6.048994-2.98885 6.617155-4.83985 4.910156 1.708 3.130997 5.33785 1.777837 4.83985-4.910156zm-42.55274 1.994141c-1.21 5.335994-7.39871 8.538261-12.0957 4.197265 2.847 4.696996 11.2417 3.842727 12.0957-4.197265zm88.875 1.992187c-2.348 5.975994-8.25324 5.835231-11.74023 2.490234 4.76699 5.621995 10.95723 3.059761 11.74023-2.490234zm-190.314447 0.982422c-3.43473-0.04152-8.7283 2.394079-11.48633 3.427734-2.58345 0.968568-4.75337 1.29034-5.82422 0.703125 3.39738 2.163432 9.23222-1.083931 11.375-1.982421 2.205-0.926 3.55772-1.85172 6.26172-2.136719-0.10678-0.0066-0.21537-0.01038-0.32617-0.01172zm-17.31055 4.130859c-0.10023-0.06383-0.19909-0.131627-0.29492-0.205078 0.0853 0.07878 0.1861 0.145402 0.29492 0.205078zm33.652347-3.49414c-3.06737-0.0031-3.95911 2.84505-4.5586 6.277343 1.494-5.621994 5.05102-6.473248 8.04102-5.40625-1.40086-0.600468-2.54344-0.870132-3.48242-0.871093z" fill="#fff8b6"/>
<path d="m41.386633 51.1759c-0.782 4.412-2.134 7.258-5.337 8.254-3.202 0.996-8.183-0.214-9.606-1.779 2.206 3.06 7.756 3.345 11.101 2.419 3.345-0.925 3.7-7.4 3.842-8.894z" fill="#f9d84b"/>
<path d="m377.45996 5.2801663c-5.265 0.426999-7.68602 4.340602-8.04102 12.8085927 0.711-6.048994 3.48702-11.8125937 8.04102-12.8085927zm67.05078 2.550781c-0.76031 0.01008-1.58595 0.170828-2.43945 0.580078-3.416 1.6359977-4.69737 4.3413317-10.31836 23.6953127 0.355-1.423999 5.97506-16.581363 8.03906-20.06836 2.064-3.4859957 5.48064-4.4810137 8.68164-2.9160157 0 0-1.68196-1.321249-3.96289-1.291015zm-110.94531 6.0820307c-3.6023-0.0065-6.16413 3.248692-6.48438 7.304688 2.064-6.545994 6.54668-7.39814 10.38867-6.119141-1.38749-0.818249-2.70353-1.183375-3.90429-1.185547zm63.76953 2.078125c-2.26727 6.15e-4 -3.80266 2.34641-5.00391 6.082031 2.349-5.123995 5.2419-7.281746 9.96289-3.34375-1.97475-1.894498-3.59862-2.73865-4.95898-2.738281zm33.0664 26.076172c-1.13799 6.260994-2.98926 6.616827-4.69726 5.548828 3.77099 2.632997 4.05727-0.353833 4.69726-5.548828zm-60.55468 16.863281c-0.427 8.396992-2.77568 8.466451-5.76367 6.189453 3.20199 3.913996 6.90167 2.990538 5.76367-6.189453z" fill="#e08a34"/>
</svg>
