<svg width="458.09549" height="93.401962" version="1.1" viewBox="-1 -1 458.09548 93.401965" xmlns="http://www.w3.org/2000/svg"><path d="m369.16872-0.99569962c-5.551 0.141999-8.68164 4.55317502-8.68164 7.82617102 0 3.2729966-0.85278 38.9941166-0.42578 46.5371096 0.426 7.541992-2.27769 7.971637-4.55469 4.55664-2.277-3.415996-18.21701-33.872245-23.625-45.115234-5.40799-11.2419886-16.93473-2.8474286-13.80273 5.976563 2.56099 6.119993 19.78029 44.259878 30.73828 63.755859 10.95799 19.496981 24.76261 5.409223 25.47461-6.259766 0.712-11.669988 2.13565-57.780586 2.84765-65.892578 0.712-8.1119916-2.42071-11.5277646-7.9707-11.38476462zm67.98437 2.02539002c-3.43246-0.22575802-7.15648 2.750674-8.35742 5.232422-2.135 4.4119956-6.54517 18.3589006-7.82617 28.4628906s-2.42004 8.112978-6.83203 1.708984c-7.68399-12.807987-21.4875-27.6105926-25.1875-27.1835936-3.7 0.427-7.25814 4.1286506-6.11914 13.8066406 0.996 8.253992 6.97331 39.420281 9.82031 55.072266 2.846 15.655982 7.25638 15.086482 13.23438 13.521482 5.97599-1.566 6.26048-10.105708 3.27148-17.220701-2.987-7.115993-6.11792-20.066269-6.54492-23.197266s0.14283-5.407373 1.42383-3.984375c1.28 1.423999 6.54433 10.390089 12.23633 21.205078 5.69199 10.814989 12.80695 3.699356 13.37695 0.56836 0.57-3.130997 2.1345-19.496208 2.5625-23.908204 0.427-4.410995 1.7085-5.40917 2.5625-3.701171 0.853 1.707998 3.27225 25.475993 5.40625 34.583984 2.135 9.107991 9.39464 6.689045 13.80664 5.123047 4.41199-1.565999 3.13076-8.253788 2.13476-14.800781-0.99599-6.544994-10.53159-43.974951-12.80859-57.2109376-0.99619-5.790307-3.49046-7.902535-6.16016-8.078125zm-424.234367 17.5898436c-2.329868 0.01049-4.3630641 0.123609-5.9375001 0.310547-8.395991 0.995999-8.396546 6.687898-7.68554695 14.08789 0.712 7.399993 0.656843 20.91178-0.285156 50.09375-0.28499905 8.822991 5.26519395 6.975191 11.24218805 7.117191 5.976994 0.142 7.542547-1.56679 7.685547-5.550784 0.141999-3.984996 1.281785-9.819516 5.550781-10.103516 4.268996-0.285 6.688268 5.40588 8.822268 10.671875 2.135 5.265995 5.26687 4.981685 17.50586 4.554685 12.23998-0.428-3.55846-19.924939-6.68946-24.335935-3.13099-4.411996 1.85104-7.684864 6.83204-12.380859 4.97999-4.696996 5.97639-19.497867-3.5586-26.75586-7.74718-5.897119-23.386325-7.754462-33.482421-7.708984zm187.998047 0.394531c-0.55851-0.01981-1.1183 0.0034-1.66993 0.05664-4.41199 0.426999-5.55226 5.408506-4.69726 11.8125 0 9.81999-2.41863 8.396062-5.26563 8.539062-19.49698 1.280999-22.91208 11.668931-25.33007 20.919922-2.42 9.249991 0.85234 18.072944 6.40234 24.335938 5.54999 6.260994 21.06317 5.975354 22.20117 4.693354 1.138-1.280994 2.41896-3.130665 4.12695-1.138667 1.708 1.992997 5.26518 2.277887 7.82618 0.712887 2.56099-1.564995 3.70165-5.692483 2.84765-8.396481-0.853-2.702997-0.99651-11.669196-0.85351-20.492187s2.13476-21.632244 2.13476-30.740234c0-7.969493-3.81309-10.164048-7.72265-10.302734zm102.6914 2.380859c-4.45899-0.095-7.20898 2.561943-7.20898 7.210938-0.094 4.457996 1.51858 17.930585 1.51758 25.142578 0 7.210993-0.76016 24.859397-0.28516 31.025391 0.475 6.166991 5.02804 4.837891 9.58203 4.837891 4.554 0 6.64258-1.707831 6.64258-4.173829 0-2.466997-0.18991-8.821946-0.37891-17.835937-0.19-9.013991 0.66297-32.828304 1.04297-39.279297 0.381-6.451994-6.45211-6.831735-10.91211-6.927735zm-150.25781 4.650391a8.7519999 8.1120005 0 0 0-8.75195 8.111328 8.7519999 8.1120005 0 0 0 8.75195 8.111328 8.7519999 8.1120005 0 0 0 8.75195-8.111328 8.7519999 8.1120005 0 0 0-8.75195-8.111328zm-130.003902 9.960938c4.269995 0 6.974486 1.28041 8.396484 5.691406 1.423002 4.411995-0.141179 12.098453-7.826172 11.814453-7.684992-0.285-7.827546-6.405221-7.685547-8.824219 0.142-2.418997 2.703239-8.82364 7.115235-8.68164zm218.451172 4.126953c-3.843 0.143-7.54255 1.708207-7.68555 5.408203-0.141 3.699996-0.14036 17.076959-0.56836 22.626953-0.427 5.550994-4.55469 2.136794-4.55469-0.283203 0-2.418998 0.28516-15.229397 0.28516-21.775391 0-6.545993-4.12807-6.118406-8.53906-5.691406-4.412 0.427-8.82227 5.548909-8.82227 8.253906 0 2.703998-1e-3 2.2786-0.28516 23.767578-0.285 5.121995 1.70823 10.957349 8.82422 15.652344 7.115 4.696992 14.79908-0.569578 16.08008-0.142578 1.28 0.427 3.69924 2.27792 7.11524 2.41992 3.41499 0.143 6.68823-2.135081 7.11523-6.830076 0.427-4.696996-1.56445-12.097865-1.56445-17.50586 0-5.406994 9e-5 -11.668272 0.99609-18.072265 0.997-6.403994-4.55349-7.970125-8.39648-7.828125zm36.80664 1.236328c-6.2107-0.106641-14.0008 2.108066-17.31055 6.164062-4.411 5.407995-7.5415 16.082491-6.6875 22.771485 0.854 6.687993 1.27934 15.369363 12.23633 19.068361 10.95899 3.69999 11.956-2.417549 14.375-2.560549 2.42-0.143 3.69892 3.131439 6.54492 3.273439 2.847 0.143 5.97945-2.847942 6.68945-5.835939 0.713-2.987997-1.42065-4.839393-1.84765-7.40039-1.52-9.114991-0.85416-15.084866-0.28516-21.63086 0.569-6.546993-2.27691-10.675174-8.25391-12.951172-1.49449-0.569249-3.3907-0.86289-5.46093-0.898437zm-202.669926 0.455078c-13.68741 0.19851-19.49923 11.75246-21.70507 18.232422-2.276 6.687993 0.42607 19.640193 8.53906 25.617187 8.11199 5.976991 17.93107 3.415321 27.03906-1.138671 9.10799-4.553996 8.25356-8.680285 5.97656-12.238282-2.27699-3.558996-8.11066-1.7097-16.22265 1.279297-3.843 1.279999-5.97803 1.992733-6.83203 0.427735-0.853-1.564999 3.55652-3.273581 10.10351-5.267579 6.546-1.991998 13.663-5.834131 14.375-11.953125 0.711-6.119994-5.26484-14.372406-19.92383-14.941406-0.45806-0.01778-0.90808-0.02398-1.34961-0.01758zm45.966796 1.525391c-2.80838 0.03128-5.65742 0.448516-8.32617 1.33789-8.53899 2.846997-12.52441 10.104037-10.81641 16.082031 1.707 5.976995 10.96327 8.670518 13.94727 10.103516 3.558 1.706998 5.12353 2.987533 4.26953 4.269531-0.854 1.279999-4.12777-0.284032-7.25977-1.707031-3.12999-1.423998-8.11151-3.700091-10.10351-0.996094-1.992 2.703998-3.698976 8.53802 3.41601 12.666016 7.116 4.126 16.79189 5.97639 25.04688 2.275391 8.25399-3.699997 9.10881-10.673146 7.25781-15.369141-1.85-4.695995-8.25524-7.826096-12.24023-10.246094-3.984-2.419997-7.11435-3.416048-6.40235-5.123047 0.712-1.707998 4.55266-1.14006 6.97266 0.710938 4.82 3.685996 10.53108 4.55492 11.95508 2.419922 1.423-2.134998 2.84623-7.970082-2.13477-11.955078-3.42374-2.739685-9.40359-4.537557-15.58203-4.46875zm31.30274 2.298828c-0.30164-0.0036-0.60868 0.0085-0.91993 0.03516-4.98099 0.427-7.68603 4.98091-6.83203 8.253906 0.143 2.845997 0.71178 7.543239 0.42578 12.240235-0.284 4.696995-1.84945 13.234161-1.56445 18.785156 0.284 5.548998 3.84191 5.691408 8.25391 5.691408 4.41099 0 7.82575-2.419208 7.96875-5.408205s-1.56446-7.969693-1.56446-13.804687c0-5.833995 1.56561-14.657583 1.84961-18.642579 0.26719-3.735933-3.09263-7.09674-7.61718-7.15039zm-76.166016 5.539062c2.28639-0.07088 4.62234 0.739924 5.51172 2.607422 1.422 2.988997 1.4e-4 6.547705-3.13086 7.970703-3.131 1.422999-7.68622 1.422264-8.82422-0.427734-2.277-3.841996 1.3e-4 -7.399424 2.70313-9.107422 1.01399-0.640499 2.36839-1.000441 3.74023-1.042969zm107.550776 4.316407c4.087 0 7.40039 4.076426 7.40039 9.107421 0 5.028995-3.31339 9.107422-7.40039 9.107422-4.08699 0-7.40039-4.078427-7.40039-9.107422 0-5.030995 3.3134-9.107421 7.40039-9.107421zm89.65625 0.142578c3.851 0 6.97266 4.172317 6.97266 9.320312s-3.12166 9.320313-6.97266 9.320313c-3.85299 0-6.97265-4.173318-6.97265-9.320313 0-5.147995 3.11966-9.320312 6.97265-9.320312z"/></svg>
