<svg viewBox="0 0 537.92 122.75" xml:space="preserve" xmlns="http://www.w3.org/2000/svg"><g fill="#fff"><path d="M165.39 61.68v8.762h-36.261V92.82h26.421v-6.201h-15.234V77.25h25.748v17.089c-.111 2.864-5.836 8.59-9.032 8.59h-29.504c-4.156 0-9.858-5.701-9.858-8.577V69.633c0-4.814 3.139-7.953 7.229-7.953h40.491zm28.09 30.906v9.704h-29.87l24.26-41.099h9.6l18.61 31.392V61.191h10.56l16.63 28.158 16.58-28.158h10.47v41.099h-10.47l-.05-20.878-12.13 20.878h-8.89l-12.09-20.929-.05 20.929H208.8l-16.48-28.157-10.92 18.45zm80.73-31.395v41.099h42.16v-9.707h-30.73v-7.077h17.79v-8.997h-17.79v-6.471h30.73v-8.847zm84.29 16.161h10.514v-8.898s1.146-7.312-6.471-7.312h-33.158c-3.267 0-4.818 1.552-4.818 4.044v29.116c0 4.08 3.909 7.989 6.404 7.989h32.454s5.651.772 5.651-5.563V84.63h-10.539v8.021H335.08V70.846h22.615v6.504l.805.002zm14.59-16.212h11.323v31.545h23.431V61.14h11.336v33.996s.72 7.28-9.693 7.28h-27.499s-8.897.809-8.897-7.28l-.001-33.996zm94.61 24.234v10.571c0 3.744-2.75 6.494-11.332 6.494h-33.153V61.142h38.84c3.574 0 5.646 2.071 5.646 5.662v11.307c0 .898-1.222 2.443-4.028 2.443.017.193 0 0 0 .784 1.884 0 4.027 2.143 4.027 4.036zm-10.515 6.511v-4.828c0-1.335-.315-1.65-.81-1.65h-21.821v7.279h21.029c1.165 0 1.602-.437 1.602-.801zm0-16.176V70.88c0-1.334-.315-1.649-.81-1.649h-21.821v7.279h21.029c1.165 0 1.602-.438 1.602-.801zm14.525 26.731h42.11v-9.806h-31.59v-7.178h17.79v-8.947h-17.79v-6.471h30.78V61.09h-41.3zm46.97-9.755v1.583h2.45v8.172h2.36v-8.103h2.43v-1.652zm8.08 9.755h2.4v-4.878l1.61 4.878h1.62l1.62-4.878v4.878h2.46v-9.755h-3.3l-1.55 5.627-1.62-5.627h-3.24zM126.4 19.083v30.684h5.66V27.222l12.13 22.545h6.42V19.083h-6.47v18.501l-9.7-18.501zm97.05 0v30.684h5.66V27.222l12.13 22.545h6.42V19.083h-6.47v18.501l-9.7-18.501zm-39.64 0h6.458v30.684h-6.458zm90.54 0v4.853h9.7v25.831h6.54V23.936h9.64v-4.853zm55.87 11.307v.825h17.793v4.853H330.22v6.471c0 .696 1.707 2.401 2.401 2.401h15.392v4.896H330.22c-3.328 0-5.679-2.86-5.679-5.679V24.729c0-3.529 2.115-5.646 5.645-5.646h17.827v4.853h-14.558c-1.551 0-3.235 1.686-3.235 2.478m46.91 23.421h5.61V27.272l12.14 22.563h5.66V19.083h-5.61v18.501l-10.47-18.501h-7.33zm76.89-25.09v19.46c0 1.472-4.157 5.629-6.567 5.629h-17.745V19.083h16.127c5.014 0 8.185 3.171 8.185 5.662zm-5.727 17.81V26.411c0-.566-1.908-2.475-3.243-2.475h-9.682v21.838h9.706c.995 0 3.219-2.224 3.219-3.219zm58.267-16.192v16.128c0 4.65-3.494 8.137-8.848 8.137h-8.201c-5.176 0-8.605-3.244-8.84-7.651-.008-.162-.008-.324-.008-.485V25.483c0-3.09 3.332-6.422 7.255-6.422h11.323c4.747-.001 7.319 2.563 7.319 7.302zm-6.511 15.392V27.172c0-1.189-2.07-3.26-3.235-3.26h-6.422c-1.666 0-3.283 1.618-3.283 3.13v14.712c0 2.305.881 3.187 2.45 3.187h7.304c1.569 0 3.186-1.617 3.186-3.186zM87.265 61.309v19.328L53.009 100.39 19.015 80.637l-1.528 1.037L53.009 102.5l35.803-20.699V60.414z"/><path d="m87.265 80.553 1.547 1.115v.133l-.098.074-1.585-1.16.136-.078zM53.3 61.086 29.164 46.953l-.382.381 24.227 14.371z"/><path d="M53.222 61.086h.177l.032.199h-.314z"/><path d="M53.3 61.705v-.619l51.38-29.702.15.422zm0 58.815.345-17.73 35.662-20.552.133-22.008h-.628v21.571L53.009 102.5l-.129 18.02z"/><path d="M53.3 88.879V61.705l51.53-29.899v58.977L53.3 120.52v-17.88l35.795-20.611V60.25l-11.987 6.932v7.693zm-.577 31.641h.286V102.5l-1.014-.59.728 18.61M17.405 40.484l.219.185.088 40.852-.225.153-.136-.086.054-41.104"/><path d="m19.015 80.637-1.528 1.037V40.532L53.3 19.853v2.037L19.051 41.714zM53.3 60.98v27.899l-.291.197v-28.16z"/><path d="M28.782 47.334v27.738l24.227 14.004V61.705z"/><path d="M52.723 120.22v-17.89L17.487 81.674V40.732L1.554 31.384v59.499l51.169 29.637z"/><path d="M17.214 40.532h.273v41.142h-.273z"/><path d="M17.487 40.532 1.76 31.178l-.206.206 15.797 9.285zm35.236 61.798v.34L17.214 81.984v-.31h.273zm.577-82.477 22.898 13.386v2.001L53.3 21.89zm22.898 13.386v2.001l15.861-9.301v-1.891z"/><path d="m53.136 1.482 38.923 22.566-15.861 9.191L53.3 19.853 17.487 40.532 1.76 31.178z"/><path d="M29.164 46.953 52.99 33.494l22.699 12.813 27.651-15.896 1.34.973L53.3 61.086z"/></g></svg>