<svg enable-background="new 0 0 3840 866.1" version="1.1" viewBox="0 0 3840 866.1" xml:space="preserve" xmlns="http://www.w3.org/2000/svg">
<path d="m379.59961 0-361.798829 208.90039 119.199219 68.90039 242.59961-140.20117 204.30078 118.20117 119.5-68.90039-323.80078-186.90039zm3294.80079 114c-39.6 0-71.8008 26.29964-71.8008 58.59961v113.20117c0 32.49997 32.2008 58.69922 71.8008 58.69922h38.7988c39.5 0 71.8008-26.19925 71.8008-58.69922v-113.20117c0-32.39997-32.4008-58.59961-71.8008-58.59961h-38.7988zm-445.4004 1.5v227.19922h105.0996v0.10156c39.8 0 71.9004-26.30159 71.9004-58.60156v-109.89844c0-32.49997-32.1004-58.80078-71.9004-58.80078h-105.0996zm-2215.8008 0.09961v227.20117h43.2012v-177.10156l89 177.10156h42.7988v-227.20117h-43.2988v144.80078l-73.4004-144.80078h-58.3008zm417.2012 0v227.20117h48.6992v-227.20117h-48.6992zm291 0v227.20117h43.1992v-177.10156l89.0996 177.10156h42.8008v-227.20117h-43.1992v144.80078l-73.6016-144.80078h-58.2988zm1120.5 0v227.20117h43.0996v-177.10156l89 177.10156h42.9004v-227.20117h-43.3008v144.80078l-73.4004-144.80078h-58.2988zm-751.5 0.09961v36.10156h73.0996v191h46.3008v-191h72.8984v-36.10156h-192.2988zm441.1992 0c-38.8 0.8-70.0996 26.60003-70.0996 58.5l-0.0996 110.20117c0 31.59997 30.4996 57.10039 68.5996 58.40039h100.0996v-36h-95.7988c-15 0-30.3008-9.80158-30.3008-23.60156v-41.09961h126.0996v-36.40039h-126.0996v-30.39844c0-13.69999 15.3008-23.70117 30.3008-23.70117h95.7988v-35.90039h-98.5zm1144.2012 33.10156h36c14.8 0 30.2988 10.99962 30.2988 25.09961v110.69922c0 13.69999-15.4988 25-30.2988 25h-36c-14.9 0-30.3008-11.30001-30.3008-25v-110.69922c0-14.09999 15.4008-25.09961 30.3008-25.09961zm-404 1.69922h61c14.9 0 30.2988 11.39923 30.2988 25.19922v107.30078c0 14.69999-15.7988 24.90039-30.2988 24.90039h-61v-157.40039zm-2892.20119 71.40039-169.69922 98 169.69922 98 169.80078-98-169.80078-98zm-379.59961 16.90039v418.19922l362.30078 209.09961v-137.79883l-242.80078-140.20117v-280.29883l-119.5-69zm759.09961 0-362.19922 209.09961v196.19922l169.79883-98.09961v-58.30078l73-42.09961v142.5l-242.79883 140.30078v137.69922l362.19922-209.09961v-418.19922zm-566.69922 111.09961v196.09961l169.79883 98 0.10156-196.09961-169.90039-98zm837.09961 74.59961c-57.99994 0-76.80078 17.80006-76.80078 73.5v148.59961c0 55.89994 18.70084 73.70117 76.80078 73.70117h194.5996c58 0 76.7012-17.80123 76.7012-73.70117v-104.40039h-0.1016-184.6992v62.40039h107.0996v48.40039h-191.0996v-164.40039h265.5v-64.09961h-268zm431.8008 0-170.1016 295.69922h212.8008v-67.19922h-94.9004l87.8008-146.80078 118.7988 214h88.2012 43v-158.09961l91.1992 158.09961h58.7012l91-158.09961v158.09961h73.0996l0.1992-295.69922h-73l-120.6992 209.40039-120.8008-209.40039h-72.7988l0.082 243.97266-141.582-243.97266h-71zm634.8984 0v295.69922h305v-67.19922h-225.5996v-55.19922h129.9004v-62.10156h-129.9004v-49h222.9004v-62.19922h-302.3008zm438.8008 0c-58.2999 0-76.8008 17.80006-76.8008 73.5v148.5c0 55.89994 18.5009 73.59961 76.8008 73.59961h173.8008c57.9999 0 76.8984-17.69967 76.8984-73.59961v-53.90039h-79.5v60.40039h-168.6992v-164.40039h168.6992v53.5h79.5v-44.09961c0-55.69994-18.8985-73.5-76.8984-73.5h-173.8008zm282.4004 0v222c0 55.89994 18.6989 73.69922 76.7988 73.69922h178c58.2 0 76.9004-17.79928 76.9004-73.69922v-222h-79.4004v228.5h-172.8984v-228.5h-79.4004zm366.5996 0v295.69922h230.5996c60.0999 0 90.3008-20.80004 90.3008-62.5v-35.89844c0.1-25.19997-11.3012-43.80157-32.2012-53.60156 19.1-9.09999 29.6016-25.89885 29.6016-47.79883v-34.59961c0-41.89996-22.4005-61.30078-70.4004-61.30078h-247.9004zm350.8008 0v295.69922h305.1992v-67.19922h-225.6992v-55.19922h130v-62.10156h-130v-49h223v-62.19922h-302.5zm-271.3008 59.40039h142.3008c22 0 23 4.69884 23 13.29883v26.90039c0 8.49999-1 13.40039-23 13.40039h-142.3008v-53.59961zm0 114h142.5996c21.5 0 24.7012 4.00001 24.7012 18v21.09961c0 14.29999-3.2012 18.09961-24.7012 18.09961h-142.5996v-57.19922z"/>
</svg>
