<svg enable-background="new 0 0 566.922 168.614" version="1.1" viewBox="0 0 566.922 168.614" xml:space="preserve" xmlns="http://www.w3.org/2000/svg">
<linearGradient id="SVGID_1_" x1="361.4224" x2="283.2769" y1="807.8149" y2="771.4948" gradientTransform="translate(-.1797 -767.2285)" gradientUnits="userSpaceOnUse">
	<stop stop-color="#522628" offset="0"/>
	<stop stop-color="#CF3549" offset="1"/>
</linearGradient>
<polyline points="359.446 27.822 266.924 0 253.105 0 358.881 51.417" fill="url(#SVGID_1_)"/>
<linearGradient id="SVGID_2_" x1="203.7456" x2="135.7914" y1="839.7163" y2="932.9304" gradientTransform="translate(-.1797 -767.2285)" gradientUnits="userSpaceOnUse">
	<stop stop-color="#97232A" offset="0"/>
	<stop stop-color="#412625" offset="1"/>
</linearGradient>
<polygon points="151.821 165.986 123.721 166.799 230.911 12.461 233.509 12.461" fill="url(#SVGID_2_)"/>
<linearGradient id="SVGID_3_" x1="267.6953" x2="287.4237" y1="840.9546" y2="925.3491" gradientTransform="translate(-.1797 -767.2285)" gradientUnits="userSpaceOnUse">
	<stop stop-color="#97232A" offset="0"/>
	<stop stop-color="#412625" offset="1"/>
</linearGradient>
<polygon points="341.247 165.842 236.92 166.133 241.139 12.471 250.112 12.471" fill="url(#SVGID_3_)"/>
<linearGradient id="SVGID_4_" x1="304.9165" x2="348.6342" y1="854.1216" y2="921.1372" gradientTransform="translate(-.1797 -767.2285)" gradientUnits="userSpaceOnUse">
	<stop stop-color="#97232A" offset="0"/>
	<stop stop-color="#412625" offset="1"/>
</linearGradient>
<polygon points="358.881 144.143 339.952 166.625 250.274 12.461 251.966 10.343" fill="url(#SVGID_4_)"/>
<linearGradient id="SVGID_5_" x1="308.5396" x2="322.928" y1="873.6392" y2="903.0829" gradientTransform="translate(-.1797 -767.2285)" gradientUnits="userSpaceOnUse">
	<stop stop-color="#9C2A2A" offset="0"/>
	<stop stop-color="#812A2D" offset="1"/>
</linearGradient>
<polygon points="292.608 144.143 246.051 10.343 251.966 10.343 360.029 142.18" fill="url(#SVGID_5_)"/>
<linearGradient id="SVGID_6_" x1="209.0986" x2="192.2977" y1="840.8091" y2="872.0523" gradientTransform="translate(-.1797 -767.2285)" gradientUnits="userSpaceOnUse">
	<stop stop-color="#CF3549" offset="0"/>
	<stop stop-color="#B82B35" offset="1"/>
</linearGradient>
<polygon points="196.431 112.189 150.758 166.993 233.509 12.461 237.335 7.649" fill="url(#SVGID_6_)"/>
<linearGradient id="SVGID_7_" x1="219.7637" x2="206.4953" y1="877.7261" y2="894.3628" gradientTransform="translate(-.1797 -767.2285)" gradientUnits="userSpaceOnUse">
	<stop stop-color="#A32C2E" offset="0"/>
	<stop stop-color="#832F33" offset="1"/>
</linearGradient>
<polygon points="238.749 167.057 194.565 112.439 237.335 7.649 241.171 12.461" fill="url(#SVGID_7_)"/>
<linearGradient id="SVGID_8_" x1="276.021" x2="291.58" y1="845.4966" y2="885.4812" gradientTransform="translate(-.1797 -767.2285)" gradientUnits="userSpaceOnUse">
	<stop stop-color="#CF3549" offset="0"/>
	<stop stop-color="#B82B35" offset="1"/>
</linearGradient>
<polygon points="293.749 98.131 291.295 144.143 246.051 10.343 246.055 6.545" fill="url(#SVGID_8_)"/>
<polygon points="341.249 99.829 293.241 102.801 246.055 6.545 250.219 6.545" fill="#BB3031"/>
<linearGradient id="SVGID_9_" x1="238.2983" x2="233.5787" y1="914.8052" y2="836.7894" gradientTransform="translate(-.1797 -767.2285)" gradientUnits="userSpaceOnUse">
	<stop stop-color="#C42D2C" offset="0"/>
	<stop stop-color="#C73237" offset="1"/>
</linearGradient>
<polygon points="209.826 94.232 238.701 5.929 243.176 11.549 253.61 101.344 260.359 100.879 259.237 153.391" fill="url(#SVGID_9_)"/>
<polygon points="261.775 100.565 234.919 102.801 240.909 6.545 243.179 6.544" fill="#C62C2D"/>
<polygon points="123.721 166.799 230.911 12.461 236.031 6.013 179.526 96.928" fill="#C82A34"/>
<linearGradient id="SVGID_10_" x1="350.9478" x2="286.2342" y1="856.7476" y2="804.1235" gradientTransform="translate(-.1797 -767.2285)" gradientUnits="userSpaceOnUse">
	<stop stop-color="#522628" offset="0"/>
	<stop stop-color="#CF3549" offset="1"/>
</linearGradient>
<polygon points="358.895 76.041 340.444 101.209 250.219 6.545 251.905 4.433" fill="url(#SVGID_10_)"/>
<linearGradient id="SVGID_11_" x1="246.2368" x2="359.2134" y1="808.6802" y2="808.6802" gradientTransform="translate(-.1797 -767.2285)" gradientUnits="userSpaceOnUse">
	<stop stop-color="#CF3549" offset="0"/>
	<stop stop-color="#B82B35" offset="1"/>
</linearGradient>
<polygon points="291.241 78.469 246.057 4.433 251.905 4.433 359.034 76.133" fill="url(#SVGID_11_)"/>
<polygon points="360.029 50.025 359.42 50.057 294.015 53.383 246.061 2.118 252.099 2.118" fill="#BB3031"/>
<linearGradient id="SVGID_12_" x1="225.8496" x2="272.3625" y1="834.4126" y2="777.1179" gradientTransform="translate(-.1797 -767.2285)" gradientUnits="userSpaceOnUse">
	<stop stop-color="#C42D2C" offset="0"/>
	<stop stop-color="#C73237" offset="1"/>
</linearGradient>
<polygon points="233.509 100.565 240.909 5.378 246.119 0 293.25 25.481" fill="url(#SVGID_12_)"/>
<linearGradient id="SVGID_13_" x1="220.5425" x2="238.6681" y1="812.231" y2="817.6782" gradientTransform="translate(-.1797 -767.2285)" gradientUnits="userSpaceOnUse">
	<stop stop-color="#D44355" offset="0"/>
	<stop stop-color="#CF3632" offset="1"/>
</linearGradient>
<polygon points="263.746 29.254 209.03 93.529 238.701 5.929 243.413 0" fill="url(#SVGID_13_)"/>
<polygon points="194.799 74.2 237.397 4.291 240.803 0 233.568 29.254 195.895 75.146" fill="#C32E35"/>
<linearGradient id="SVGID_14_" x1="237.0137" x2="253.8916" y1="784.6235" y2="780.4402" gradientTransform="translate(-.1797 -767.2285)" gradientUnits="userSpaceOnUse">
	<stop stop-color="#D44355" offset="0"/>
	<stop stop-color="#CF3632" offset=".5024"/>
	<stop stop-color="#D44254" offset="1"/>
</linearGradient>
<polygon points="232.261 29.254 240.803 0 243.413 0 264.673 26.907" fill="url(#SVGID_14_)"/>
<linearGradient id="SVGID_15_" x1="156.8247" x2="170.7154" y1="826.7778" y2="814.7473" gradientTransform="translate(-.1797 -767.2285)" gradientUnits="userSpaceOnUse">
	<stop stop-color="#972832" offset="0"/>
	<stop stop-color="#A7313D" offset="1"/>
</linearGradient>
<polygon points="181.499 96.217 126.968 27.06 225.36 0 236.031 6.013" fill="url(#SVGID_15_)"/>
<linearGradient id="SVGID_16_" x1="190.4487" x2="165.8622" y1="775.3345" y2="788.2683" gradientTransform="translate(-.1797 -767.2285)" gradientUnits="userSpaceOnUse">
	<stop stop-color="#D44355" offset="0"/>
	<stop stop-color="#CF3632" offset="1"/>
</linearGradient>
<polygon points="126.968 26.518 225.36 0 233.979 0 154.646 29.254" fill="url(#SVGID_16_)"/>
<linearGradient id="SVGID_17_" x1="270.9155" x2="320.3116" y1="780.6821" y2="780.6821" gradientTransform="translate(-.1797 -767.2285)" gradientUnits="userSpaceOnUse">
	<stop stop-color="#D44355" offset="0"/>
	<stop stop-color="#CF3632" offset="1"/>
</linearGradient>
<polygon points="294.176 26.907 246.119 0 271.499 0 360.848 26.558" fill="url(#SVGID_17_)"/>
<linearGradient id="SVGID_18_" x1="232.6797" x2="178.1804" y1="769.4624" y2="815.9383" gradientTransform="translate(-.1797 -767.2285)" gradientUnits="userSpaceOnUse">
	<stop stop-color="#C42D32" offset="0"/>
	<stop stop-color="#CA343A" offset=".7918"/>
</linearGradient>
<polygon points="156.88 26.907 233.979 0 237.397 4.291 194.799 74.2" fill="url(#SVGID_18_)"/>
<path d="m259.237 157.631" fill="none" stroke="#e3ce35" stroke-linecap="round" stroke-linejoin="round" stroke-miterlimit="10" stroke-width="2"/>
<path d="m238.087 168.614c-0.474 0-0.922-0.216-1.216-0.588l-41.658-52.371-41.657 52.367c-0.294 0.372-0.743 0.587-1.217 0.587h-29.082c-0.598 0-1.141-0.342-1.4-0.88-0.26-0.537-0.188-1.176 0.184-1.643l56.643-71.209-52.574-66.091c-0.372-0.466-0.443-1.105-0.183-1.643 0.259-0.539 0.803-0.88 1.4-0.88l30.58 4e-3c0.474 0 0.922 0.216 1.216 0.587l36.835 46.306 36.84-46.306c0.295-0.372 0.743-0.587 1.217-0.587h29.082c0.598 0 1.141 0.342 1.4 0.879s0.188 1.176-0.184 1.643l-51.826 65.146 46.487 58.444v-50.006h-23.804c-0.597 0-1.141-0.342-1.4-0.881-0.26-0.537-0.188-1.178 0.184-1.645l58.095-72.998c0.296-0.372 0.742-0.587 1.217-0.587h66.763c0.856 0 1.556 0.696 1.556 1.555v23.595c0 0.858-0.694 1.555-1.556 1.555h-65.823v22.713h63.729c0.597 0 1.143 0.342 1.398 0.879 0.26 0.538 0.188 1.176-0.186 1.643l-18.762 23.583c-0.297 0.371-0.742 0.586-1.219 0.586h-44.955v39.389h64.613c0.598 0 1.143 0.342 1.399 0.88 0.26 0.536 0.188 1.176-0.187 1.642l-18.877 23.737c-0.297 0.372-0.744 0.587-1.218 0.587l-101.851 4e-3c1e-3 4e-3 -1e-3 4e-3 -3e-3 4e-3zm-42.873-57.011c0.474 0 0.922 0.215 1.217 0.586l42.405 53.312 0.703-2e-3h99.665l16.403-20.627h-62.942c-0.856 0-1.557-0.697-1.557-1.555l-1e-3 -42.498c0-0.412 0.164-0.807 0.455-1.099 0.292-0.292 0.688-0.455 1.101-0.455h45.762l16.287-20.474h-62.061c-0.857 0-1.557-0.696-1.557-1.554v-25.82c0-0.858 0.695-1.554 1.557-1.554h65.822v-20.486h-64.456l-55.622 69.889 22.136-1e-3c0.412 0 0.808 0.164 1.099 0.455 0.292 0.292 0.455 0.688 0.455 1.099v56.014c0 0.66-0.417 1.25-1.042 1.467-0.624 0.225-1.317 0.021-1.729-0.5l-50.03-62.896c-0.45-0.567-0.45-1.368 0-1.937l50.59-63.59h-25.107l-37.592 47.248c-0.294 0.371-0.743 0.587-1.216 0.587-0.474 0-0.922-0.216-1.217-0.587l-37.585-47.248-26.605-4e-3 51.337 64.538c0.451 0.566 0.451 1.369 0 1.938l-55.408 69.651h25.108l42.407-53.313c0.296-0.369 0.744-0.584 1.218-0.584z" fill="#e3ce35"/>
<path d="m385.57422 66.3125c-0.35916-0.005301-0.72481-0.004609-1.09375 0.001953-3.736 0.066-7.01136 1.404894-9.81836 4.212891-2.811 2.784997-4.21289 6.04816-4.21289 9.785156v1.212891c0 3.737996 1.40189 7.013315 4.21289 9.820312 2.812 2.808997 6.08236 4.212891 9.81836 4.212891 1.402 0 2.66516 0.558735 3.78515 1.677734 1.117 1.118999 1.67774 2.381158 1.67774 3.785152 0 1.762-0.46353 3.28532-1.39453 4.57032-1.047 1.428-2.40936 1.99658-4.06836 2.14258-3.344 0.29499-7.20466-0.2369-10.34766-1.5879l-2.22461 8.22071c1.307 0.42 5.03237 2.04808 12.56836 1.83008 3.712-0.106 6.97721-1.38059 9.78321-4.14258 2.80899-2.785 4.21289-6.04621 4.21289-9.78321v-1.25c5e-3 -3.734992-1.39799-6.998202-4.20899-9.783199-2.785-2.807997-6.0492-4.21289-9.7832-4.21289-1.429 0-2.70236-0.559736-3.81836-1.677735-1.121-1.118999-1.67969-2.394267-1.67969-3.822265 0-1.736999 0.5-3.283627 1.5-4.640625 0.999-1.356999 2.35305-1.768157 3.99805-2.035157 3.536-0.575999 9.0627 1.340329 9.8457 1.861329l2.29297-8.404297c-1.42687-0.568125-5.65754-1.914633-11.04492-1.994141zm62.62109 0c-0.35924-0.005301-0.72469-0.004609-1.09375 0.001953-3.73399 0.066-7.01241 1.404894-9.8164 4.212891-2.813 2.784997-4.21485 6.04816-4.21485 9.785156v1.212891c0 3.737996 1.40185 7.013315 4.21485 9.820312 2.80899 2.808997 6.08241 4.212891 9.8164 4.212891 1.404 0 2.66416 0.558735 3.78516 1.677734 1.117 1.118999 1.67969 2.381158 1.67969 3.785152 0 1.762-0.46654 3.28532-1.39453 4.57032-1.049 1.428-2.41232 1.99658-4.07032 2.14258-3.34399 0.29499-7.2027-0.2369-10.3457-1.5879l-2.22656 8.22071c1.307 0.42 5.03541 2.04808 12.5664 1.83008 3.715-0.106 6.98021-1.38059 9.78321-4.14258 2.81399-2.785 4.21289-6.04621 4.21289-9.78321v-1.25c7e-3 -3.734992-1.39604-6.998202-4.20703-9.783199-2.785-2.807997-6.04721-4.21289-9.78321-4.21289-1.43 0-2.69936-0.559736-3.81836-1.677735-1.119-1.118999-1.68164-2.394267-1.68164-3.822265 0-1.736999 0.5-3.283627 1.5-4.640625 1-1.356999 2.355-1.768157 4-2.035157 3.535-0.575999 9.06366 1.340329 9.84766 1.861329l2.29101-8.404297c-1.42781-0.568125-5.65621-1.914633-11.04492-1.994141zm-49.67969 0.001953 13.10352 26.314453v23.564454h8.53125v-23.564454l13.14258-26.314453h-9.86133l-7.56445 15.105469-7.53125-15.105469h-9.82032zm162.38868 0c-2.31 0-4.08432 1.76216-5.32032 5.285156l-10.53125 29.314451-10.5332-29.312498c-1.236-3.522996-3.00936-5.285156-5.31836-5.285156-1.381 0-2.59753 0.558736-3.64453 1.677735-1.021 1.094999-1.5332 2.357157-1.5332 3.785156v44.416013h8.53125v-24.777341l7.06836 19.564451c1.262 3.477 3.07269 5.21289 5.42968 5.21289 2.36 0 4.16374-1.73589 5.42774-5.21289l7.06836-19.564451v24.777341h8.5332v-44.417966c0-1.427999-0.51411-2.690158-1.53711-3.785156-0.998-1.117999-2.21262-1.677735-3.64062-1.677735zm-97.1875 0.001953v8.533203h9.74804v41.347661h8.53125v-41.347661h9.74805v-8.533203h-28.02734zm35.95312 0c-1.473 0-2.75751 0.547579-3.85351 1.642578-1.099 1.094999-1.64649 2.368314-1.64649 3.820313v38.992183c0 1.475 0.54649 2.75132 1.64649 3.82032 1.092 1.07 2.37651 1.60351 3.85351 1.60351h19.4961v-8.46093h-16.46094v-12.175786h10.35351v-8.533203h-10.35351v-12.175782h16.46094v-8.533203h-19.4961zm-480.541014 0.00586c-2.856997 0-4.785157 1.763159-5.785156 5.285156l-12.49804688 44.595698h8.82031248l3.1054684-10.89062h12.675782l3.072265 10.89062h8.890625l-12.498047-44.595698c-1.023999-3.522997-2.950206-5.285156-5.783203-5.285156zm12.486328 0v8.535156h9.748047v41.345698h8.533203v-41.345698h9.748047v-8.535156h-28.029297zm40.587891 0c-2.855997 0-4.783204 1.763159-5.783203 5.285156l-12.498047 44.595698h8.820313l3.105468-10.89062h12.675782l3.070312 10.89062h8.890625l-12.496094-44.595698c-1.023999-3.522997-2.952159-5.285156-5.785156-5.285156zm26.521484 0c-1.475998 0-2.763423 0.549532-3.857421 1.644531-1.095999 1.094999-1.642579 2.367361-1.642579 3.818359v44.416014h8.535161v-21.392576c0.01057 1.306754 0.7587 3.104844 2.24804 5.398436l10.24805 15.99609h9.92578l-13.35352-21.208979c3.357-1.189999 6.13032-3.177941 8.32032-5.960938 2.214-2.809997 3.32226-5.916316 3.32226-9.320312 0-3.665997-1.417-6.808737-4.25-9.427735-2.83299-2.641997-6.08205-3.96289-9.74804-3.96289h-9.748051zm30.947271 0.001953v49.878901h8.5332v-49.878901h-8.5332zm-27.91211 8.527343h6.71289c1.42799 0 2.70131 0.559736 3.82031 1.677735 1.119 1.118999 1.67773 2.381158 1.67773 3.785156 0 2.050998-1.05873 3.773642-3.17773 5.181641-1 0.546999-1.97769 1.093578-2.92969 1.642578-0.952 0.548999-1.92773 1.095579-2.92773 1.642578-2.10861 1.541406-3.16545 3.528326-3.17578 5.962891v-19.892579zm-82.630864 7.861329 3.962891 14.066406h-7.927735l3.964844-14.066406zm53.074219 0 3.964844 14.066406h-7.927735l3.962891-14.066406z" fill="#094fb9"/>










<path d="m398.51367 65.46875c-0.293 0-0.5657 0.151391-0.7207 0.400391-0.155 0.248999-0.17006 0.561219-0.03906 0.824218l13.01757 26.136719v23.363282c0 0.471 0.37766 0.85156 0.84766 0.85156h8.5332c0.468 0 0.84575-0.38061 0.84375-0.84961v-23.365232l13.05274-26.136719c0.13-0.261999 0.11794-0.573265-0.03906-0.822265-0.154-0.249-0.42771-0.400391-0.72071-0.400391h-9.85547c-0.316 0-0.60886 0.179797-0.75586 0.466797l-6.81054 13.589844-6.7793-13.589844c-0.146-0.288-0.43881-0.46875-0.75781-0.46875h-9.81641zm65.20313 0c-0.469 0-0.84961 0.378704-0.84961 0.845703v8.533203c0 0.467 0.38061 0.845703 0.84961 0.845703h8.89843v40.500001c0 0.471 0.38061 0.85156 0.84961 0.85156h8.53125c0.465 0 0.84566-0.38056 0.84766-0.85156v-40.500001h8.90039c0.467 0 0.84766-0.378703 0.84766-0.845703v-8.533203c-1e-3 -0.466999-0.38166-0.845703-0.84766-0.845703h-28.02734zm35.95703 0c-1.703 0-3.20108 0.634673-4.45508 1.888672s-1.89063 2.741923-1.89063 4.419922v38.990236c0 1.706 0.63454 3.19578 1.89454 4.42578 1.25199 1.228 2.74826 1.85156 4.44726 1.85156h19.4961c0.465 0 0.84375-0.37961 0.84375-0.84961v-8.46289c0-0.467-0.37866-0.8457-0.84766-0.8457h-15.61328v-10.482423h9.50781c0.471 0 0.84961-0.378704 0.84961-0.845703v-8.533203c0-0.467-0.37861-0.845704-0.84961-0.845703h-9.50781v-10.486329h15.61914c0.469 0 0.84765-0.378703 0.84765-0.845703v-8.533203c0-0.466999-0.37865-0.845703-0.84765-0.845703h-19.49414zm29.52344 0c-1.617 0-3.05468 0.655267-4.26368 1.947266-1.17 1.251998-1.76367 2.719283-1.76367 4.363281v44.416013c0 0.469 0.37866 0.84961 0.84766 0.84961h8.5332c0.469 0 0.84961-0.38061 0.84961-0.84961v-19.947263l5.42188 15.023433c1.39099 3.829 3.48761 5.77149 6.22461 5.77149 2.74399 0 4.83151-1.94149 6.22851-5.77149l5.42773-15.023433v19.945313c0 0.471 0.37871 0.85156 0.84571 0.85156h8.53515c0.467 0 0.84585-0.38056 0.83985-0.85156v-44.416016c-2e-3 -1.641999-0.59496-3.110611-1.75195-4.34961-1.164-1.299998-2.59754-1.958984-4.26954-1.958984-2.69699 0-4.76219 1.967754-6.11718 5.84375l-9.73633 27.097656-9.73438-27.091797c-1.363-3.881996-3.42419-5.849609-6.11718-5.849609zm-144.73438 0.001953c-4.008 0.07-7.50944 1.570034-10.39844 4.457031-2.96199 2.937997-4.46289 6.42977-4.46289 10.384766v1.214844c0 3.953996 1.50094 7.458018 4.46094 10.416015 2.959 2.960997 6.46497 4.460938 10.41797 4.460938 1.182 0 2.2245 0.470595 3.1875 1.433594s1.43164 2.005501 1.43164 3.187499c0 1.593-0.40352 2.92441-1.22852 4.06641-0.812 1.109-1.87694 1.66073-3.46093 1.80273-0.572 0.05-1.15977 0.07227-1.75977 0.07227-2.877 0-5.78264-0.56666-8.18164-1.59766-0.221-0.097-0.48017-0.09133-0.70117 0.01367-0.22 0.107-0.38527 0.30702-0.44727 0.54102l-2.22851 8.22461c-0.116 0.436 0.12954 0.88739 0.56054 1.02539 0.128 0.041 0.28099 0.09425 0.45899 0.15625 1.614 0.563 4.96172 1.73242 11.01172 1.73242 0.446 0 0.9059-0.00653 1.3789-0.01953 4.084-0.117 7.47152-1.55468 10.35352-4.38867 2.962-2.937 4.46484-6.42882 4.46484-10.38282v-1.25c0-3.953992-1.50198-7.445905-4.45898-10.378902-2.941-2.959997-6.43177-4.460937-10.38477-4.460937-1.206 0-2.26161-0.468642-3.22461-1.431641-0.963-0.961999-1.42968-2.015657-1.42968-3.222656 0-1.566999 0.43598-2.919673 1.33398-4.138672 0.799-1.082999 1.86817-1.446125 3.45117-1.703125 0.393-0.064 0.83155-0.095703 1.31055-0.095703 3.242 0 7.36659 1.450125 7.93359 1.828125 0.229 0.15 0.51358 0.181937 0.76758 0.085937 0.252-0.095 0.44949-0.306359 0.52148-0.568359l2.29297-8.404297c0.109-0.415-0.10681-0.850766-0.50781-1.009766-0.545-0.216999-5.6609-2.175781-12.46289-2.050781zm62.625 0c-4.012 0.07-7.51244 1.570034-10.39844 4.457031-2.96299 2.937997-4.46484 6.42977-4.46484 10.384766v1.214844c0 3.953996 1.49994 7.458018 4.46094 10.416015 2.95899 2.960997 6.46697 4.460938 10.41797 4.460938 1.18399 0 2.22545 0.470595 3.18945 1.433594 0.961 0.962999 1.42969 2.005501 1.42969 3.187499 0 1.593-0.40547 2.92441-1.23047 4.06641-0.814 1.109-1.87889 1.66073-3.46289 1.80273-0.57 0.05-1.15977 0.07227-1.75977 0.07227-2.877 0-5.78269-0.56666-8.17969-1.59766-0.223-0.097-0.47912-0.09133-0.70312 0.01367-0.217 0.107-0.38331 0.30702-0.44531 0.54102l-2.22852 8.22461c-0.119 0.436 0.12655 0.88739 0.56055 1.02539 0.129 0.041 0.27898 0.09425 0.45898 0.15625 1.611 0.563 4.96277 1.73242 11.00977 1.73242 0.449 0 0.90786-0.00653 1.38086-0.01953 4.08399-0.117 7.47047-1.55468 10.35547-4.38867 2.96499-2.937 4.46679-6.42882 4.46679-10.38282v-1.25c0-3.953992-1.50198-7.445905-4.45898-10.378902-2.943-2.959997-6.43763-4.460937-10.39063-4.460937-1.205 0-2.25965-0.468642-3.22265-1.431641-0.961-0.961999-1.42969-2.015657-1.42969-3.222656 0-1.566999 0.43798-2.919673 1.33398-4.138672 0.799-1.082999 1.87108-1.446125 3.45508-1.703125 0.389-0.064 0.8296-0.095703 1.3086-0.095703 3.24199 0 7.36664 1.450125 7.93164 1.828125 0.23 0.15 0.51553 0.181937 0.76953 0.085937 0.256-0.095 0.45248-0.306359 0.52148-0.568359l2.29297-8.404297c0.113-0.415-0.10391-0.850766-0.50391-1.009766-0.547-0.216999-5.67385-2.175781-12.46484-2.050781zm-427.958984 0.005859c-3.266996 0-5.48861 1.985348-6.599609 5.902344l-12.498047 44.595704c-0.070999929 0.255-0.01937484 0.52928 0.140625 0.73828 0.15999984 0.211 0.40882839 0.33594 0.67382812 0.33594h8.82031248c0.3779994 0 0.7104534-0.25128 0.8144534-0.61328l2.929687-10.27735h11.398438l2.896484 10.27539c0.102 0.364 0.435454 0.61524 0.814453 0.61524h8.890625 0.007813c0.466999 0 0.845703-0.37871 0.845703-0.84571 0-0.12099-0.024313-0.23679-0.070313-0.34179l-12.46875-44.490236c-1.136998-3.911996-3.354706-5.894531-6.595703-5.894532zm12.486328 0c-0.466999 0-0.845703 0.378704-0.845703 0.845704v8.535156c0 0.466999 0.378704 0.845703 0.845703 0.845703h8.902344v40.499995c0 0.467 0.378704 0.84571 0.845703 0.84571h8.533203c0.467 0 0.845704-0.37871 0.845704-0.84571v-40.499995h8.902343c0.467 0 0.845703-0.378704 0.845703-0.845703v-8.535156c0-0.467-0.378703-0.845704-0.845703-0.845704h-28.029297zm40.587891 0c-3.266997 0-5.485657 1.985348-6.597656 5.902344l-12.498047 44.595704c-0.071 0.255-0.019375 0.52928 0.140625 0.73828 0.16 0.211 0.408828 0.33594 0.673828 0.33594h8.820313c0.376999 0 0.7085-0.25128 0.8125-0.61328l2.93164-10.27735h11.398438l2.896484 10.27539c0.103 0.364 0.435454 0.61524 0.814453 0.61524h8.890625 0.007813c0.466999 0 0.845703-0.37871 0.845703-0.84571 0-0.12099-0.024313-0.23679-0.070313-0.34179l-12.46875-44.490236c-1.136999-3.911996-3.356659-5.894531-6.597656-5.894532zm57.468755 0c-0.467 0-0.84766 0.378704-0.84766 0.845704v49.880854c0 0.467 0.38066 0.84571 0.84766 0.84571h8.5332c0.467 0 0.8457-0.37871 0.8457-0.84571v-49.880854c0-0.467-0.3787-0.845704-0.8457-0.845704h-8.5332zm-30.949224 0.001954c-1.701998 0-3.201079 0.634673-4.455078 1.888672-1.253999 1.253998-1.888672 2.741923-1.888672 4.419921v44.416011c0 0.467 0.378704 0.84766 0.845703 0.84766h8.533201c0.467 0 0.84571-0.38066 0.84571-0.84766v-16.656245c0.211 0.359 0.4414 0.729235 0.6914 1.115235l10.24805 15.99805c0.156 0.242 0.42389 0.38867 0.71289 0.38867h9.92578 0.00977c0.467 0 0.8447-0.37871 0.8457-0.84571 0-0.20499-0.07136-0.39406-0.19336-0.53906l-12.75-20.249998c3.063-1.267998 5.65475-3.232471 7.71875-5.855468 2.324-2.948997 3.50195-6.260754 3.50195-9.84375 0-3.892996-1.51958-7.273925-4.51757-10.044922-2.981-2.780997-6.45618-4.191406-10.32618-4.191406h-9.748044zm285.769534 1.68164c5.27899-0.091 9.45751 1.113829 11.10351 1.673828l-1.82422 6.689454c-1.69999-0.673-4.99361-1.628907-7.8496-1.628907-0.567 0-1.10013 0.039188-1.57813 0.117188-1.539 0.25-3.28588 0.661142-4.54687 2.36914-1.102 1.498999-1.66211 3.22758-1.66211 5.142579 0 1.654998 0.65078 3.142923 1.92578 4.419921 1.276 1.280999 2.76892 1.927735 4.41992 1.927735 3.537 0 6.5405 1.298752 9.1875 3.96875 2.666 2.644997 3.96289 5.645644 3.96289 9.181636v1.25h0.00195c0 3.535-1.29694 6.53669-3.96093 9.17969-2.563 2.518-5.57285 3.79344-9.21485 3.89844-0.461 0.014-0.90094 0.01953-1.33594 0.01953h-0.00195c-5.44699 0-8.5765-0.98792-10.1875-1.54492l1.77344-6.54102c2.41 0.891 5.19236 1.37696 7.94336 1.37696 0.646 0 1.28825-0.02904 1.90625-0.08204 2.083-0.18499 3.56964-0.97228 4.68164-2.48828 1.033-1.42599 1.55664-3.1314 1.55664-5.0664 0-1.630001-0.65174-3.105769-1.92774-4.384768-1.28099-1.279999-2.75576-1.925781-4.38476-1.925781-3.537 0-6.55371-1.2988-9.2207-3.966797-2.671-2.665998-3.96875-5.682707-3.96875-9.220703v-1.214844c0-3.535997 1.29575-6.537597 3.96875-9.183594 2.60299-2.604997 5.62442-3.903797 9.23242-3.966797zm15.38086 0h7.93164l7.30078 14.636719c0.146 0.287 0.43686 0.46875 0.75586 0.46875h0.0039c0.318 0 0.60986-0.179797 0.75586-0.466797l7.33594-14.638672h7.9668l-12.5293 25.091797c-0.06 0.117-0.08984 0.245953-0.08984 0.376953v22.720704h-6.84375-0.00391v-22.720704c0-0.131-0.02784-0.259953-0.08984-0.376953l-12.49414-25.091797zm47.24023 0c5.268-0.091 9.46052 1.113829 11.10352 1.673828l-1.82422 6.689454c-1.699-0.673-4.99166-1.628907-7.84766-1.628907-0.568 0-1.10008 0.039188-1.58008 0.117188-1.53899 0.25-3.28492 0.661142-4.54492 2.36914-1.102 1.498999-1.66406 3.22758-1.66406 5.142579 0 1.654998 0.64978 3.142923 1.92578 4.419921 1.277 1.280999 2.76792 1.927735 4.41992 1.927735 3.537 0 6.53951 1.298752 9.1875 3.96875 2.668 2.644997 3.96485 5.645644 3.96485 9.181636v1.25c0 3.535-1.29494 6.53669-3.96094 9.17969-2.561 2.518-5.5739 3.79344-9.21289 3.89844-0.461 0.014-0.90589 0.01953-1.33789 0.01953-5.447 0-8.57646-0.98792-10.18946-1.54492l1.77344-6.54102c2.412 0.891 5.19136 1.37696 7.94336 1.37696 0.646 0 1.28725-0.02904 1.90625-0.08204 2.082-0.18499 3.5716-0.97228 4.6836-2.48828 1.03099-1.42599 1.55273-3.1314 1.55273-5.0664 0-1.630001-0.64978-3.105769-1.92578-4.384768-1.279-1.279999-2.75377-1.925781-4.38477-1.925781-3.53499 0-6.5547-1.2988-9.2207-3.966797-2.67-2.665998-3.96875-5.682707-3.96875-9.220703v-1.214844c0-3.535997 1.29875-6.537597 3.96875-9.183594 2.604-2.604997 5.62342-3.903797 9.23242-3.966797zm82.08984 0c1.924 0 3.40349 1.545566 4.52149 4.726563l10.5332 29.312501c0.121 0.336 0.44288 0.5625 0.79688 0.5625 0.359 0 0.67787-0.2265 0.79687-0.5625l10.53516-29.318361c1.115-3.175996 2.59053-4.720703 4.51953-4.720703 1.184 0 2.17049 0.457157 3.02148 1.410156 0.879 0.942 1.31055 1.992986 1.31055 3.208985v43.570313h-6.8457-0.00196v-23.931641c0-0.41-0.29521-0.762032-0.69921-0.832031-0.404-0.074-0.7975 0.159922-0.9375 0.544921l-7.06836 19.564451c-1.139 3.133-2.64982 4.65625-4.63282 4.65625-1.97999 0-3.49386-1.5223-4.63085-4.65429l-7.07032-19.566411c-0.135-0.384999-0.53845-0.614921-0.93945-0.544921-0.404 0.068999-0.69727 0.422031-0.69727 0.832031v23.931641h-6.84375v-43.572266c0-1.216999 0.4296-2.266032 1.3086-3.207032 0.883-0.948999 1.87544-1.410156 3.02343-1.410156zm-64.64648 0.001953h26.33984v6.841797h-8.90039c-0.469 0-0.84765 0.377704-0.84765 0.845703v40.500001h-6.84375v-40.500001c0-0.467999-0.37871-0.845703-0.84571-0.845703h-8.90234v-6.841797zm35.11133 0h18.64844v6.841797h-15.61133c-0.469 0-0.84766 0.377704-0.84766 0.845703v12.173829c0 0.468999 0.37866 0.847656 0.84766 0.847656h9.50976v6.841797h-9.50976c-0.469 0-0.84766 0.377703-0.84766 0.845703v12.175786c0 0.46899 0.37866 0.84765 0.84766 0.84765h15.61328v6.77149h-18.64844c-1.258 0-2.32762-0.44624-3.26562-1.36524-0.936-0.913-1.39063-1.9668-1.39063-3.2168v-38.992183c0-1.230999 0.45553-2.283657 1.39453-3.222656 0.938-0.938999 2.00577-1.394532 3.25977-1.394532zm-480.539064 0.00586c2.430998 0 4.056751 1.530972 4.96875 4.667969l12.195313 43.521482h-7.134766l-2.896484-10.27539c-0.102-0.365-0.435454-0.61523-0.814453-0.61523h-12.675782c-0.376999 0-0.7085 0.25028-0.8125 0.61328l-2.9316402 10.27734h-7.0644532l12.1953124-43.519529c0.890999-3.141997 2.517706-4.669922 4.970703-4.669922zm53.074219 0c2.430998 0 4.058704 1.530972 4.970703 4.667969l12.195313 43.521482h-7.134766l-2.896484-10.27539c-0.102-0.365-0.435454-0.61523-0.814453-0.61523h-12.675782c-0.377999 0-0.710453 0.25028-0.814453 0.61328l-2.929687 10.27734h-7.066407l12.195313-43.519529c0.890999-3.141997 2.517705-4.669922 4.970703-4.669922zm26.523437 0h9.748048c3.427 0 6.51088 1.257283 9.17187 3.738281 2.677 2.473998 3.97852 5.353691 3.97852 8.804688 0 3.192996-1.05763 6.150877-3.14062 8.796874-2.081 2.644998-4.75051 4.557502-7.9375 5.6875-0.243 0.086-0.43358 0.280485-0.51758 0.521485-0.085 0.244-0.05302 0.512516 0.08398 0.728515l12.53711 19.912108h-7.93164l-10-15.611326c-1.746-2.687998-2.11328-4.184798-2.11328-4.966797 0-2.167998 0.91406-3.896252 2.78906-5.28125 0.994-0.545 1.96558-1.092001 2.89258-1.625 0.919-0.528 1.90006-1.077813 2.91406-1.632813 0.021-0.013 0.04055-0.025109 0.06055-0.037109 2.36-1.564998 3.55664-3.542815 3.55664-5.882813 0-1.629998-0.64778-3.103813-1.92578-4.382812-1.279-1.277999-2.76693-1.925781-4.41992-1.925781h-6.71289c-0.467 0-0.84571 0.378703-0.84571 0.845703v40.498048h-6.841794v-43.572267c0-1.228999 0.458485-2.282704 1.396484-3.220703 0.938999-0.937999 2.004814-1.394531 3.257812-1.394531zm-66.265624 0.001953h26.335937v6.841797h-8.900391c-0.466999 0-0.845703 0.378703-0.845703 0.845703v40.499998h-6.841797v-40.499998c0-0.467-0.378703-0.845703-0.845703-0.845703h-8.902343v-6.841797zm98.056642 0h6.8418v48.187498h-6.8418v-48.187498zm-22.04492 8.53125c1.205 0 2.25965 0.467688 3.22265 1.429687 0.962 0.962999 1.42969 2.006502 1.42969 3.1875 0 1.751999-0.90553 3.209127-2.76953 4.453125-1.013 0.558-1.99411 1.104767-2.91211 1.634766-0.933 0.534999-1.91211 1.087719-2.91211 1.636719-0.032 0.017-0.06375 0.036594-0.09375 0.058593-0.721 0.524-1.33103 1.101517-1.83203 1.728516v-14.126953l5.86719-0.001953zm-89.345707 6.164062c-0.377999 0-0.711453 0.252188-0.814453 0.617188l-3.962891 14.066406c-0.071 0.256-0.021328 0.529235 0.138672 0.740234 0.16 0.213 0.410782 0.335938 0.675781 0.335938h7.927735c0.265 0 0.513875-0.122938 0.671875-0.335938 0.161-0.210999 0.212625-0.484234 0.140625-0.740234l-3.962891-14.066406c-0.102-0.365-0.436453-0.617188-0.814453-0.617188zm53.074219 0c-0.378 0-0.7095 0.252188-0.8125 0.617188l-3.962891 14.066406c-0.071 0.256-0.021328 0.529235 0.138672 0.740234 0.16 0.213 0.410782 0.335938 0.675781 0.335938h7.927735c0.264999 0 0.513875-0.122938 0.671875-0.335938 0.16-0.210999 0.211625-0.484234 0.140625-0.740234l-3.964844-14.066406c-0.102-0.365-0.436454-0.617188-0.814453-0.617188zm-53.072266 3.966797 2.845703 10.101563h-5.693359l2.847656-10.101563zm53.074219 0 2.847656 10.101563h-5.693359l2.845703-10.101563z" fill="#fff"/>

</svg>
