<svg version="1.1" viewBox="0 0 566.922 168.614" xml:space="preserve" xmlns="http://www.w3.org/2000/svg"><path d="m293.26562 26.261719a1.552 1.552 0 0 0-1.21679 0.58789l-58.09571 72.998047a1.556 1.556 0 0 0 1.2168 2.525394h23.80469v50.00586l-46.48828-58.443363 51.82617-65.146485a1.553 1.553 0 0 0-1.21484-2.521484h-29.08204a1.552 1.552 0 0 0-1.21679 0.585938l-36.8418 46.30664-36.83398-46.30664c-0.294-0.371-0.7428-0.585938-1.2168-0.585938l-30.58008-0.003906c-0.597 0-1.13944 0.339907-1.39844 0.878906a1.551 1.551 0 0 0 0.18165 1.642578l52.57421 66.091797-56.64257 71.208987a1.552 1.552 0 0 0-0.1836 1.64258 1.553 1.553 0 0 0 1.40039 0.88086h29.08203a1.55 1.55 0 0 0 1.2168-0.5879l41.65625-52.36718 41.6582 52.37109c0.294 0.372 0.7428 0.58789 1.2168 0.58789 2e-3 0 0.00295 9e-5 0.00195-0.0039l101.85157-0.00391a1.556 1.556 0 0 0 1.21679-0.58594l18.87696-23.73828c0.375-0.466 0.4475-1.10463 0.1875-1.64063-0.256-0.53799-0.80044-0.88085-1.39844-0.88085h-64.61328v-39.38868h44.95508a1.556 1.556 0 0 0 1.21875-0.58593l18.76171-23.583988c0.374-0.467 0.44555-1.104579 0.18555-1.642578-0.255-0.537-0.79948-0.878906-1.39648-0.878906h-63.73047v-22.712891h65.82422c0.862 0 1.55664-0.696688 1.55664-1.554688v-23.595703c0-0.858999-0.70064-1.554687-1.55664-1.554687h-66.76368zm-162.71289 3.111328 26.60352 0.003906 37.58594 47.248047a1.555 1.555 0 0 0 2.43359 0l37.5918-47.248047h25.10547l-50.58985 63.589844a1.558 1.558 0 0 0 0 1.9375l50.03125 62.896483a1.538 1.538 0 0 0 1.72852 0.5c0.625-0.217 1.04297-0.80875 1.04297-1.46875v-56.01367a1.556 1.556 0 0 0-1.55469-1.552735h-22.13672l55.62305-69.888672h64.45508v20.486328h-65.82227c-0.862 0-1.55664 0.696689-1.55664 1.554688v25.818359a1.558 1.558 0 0 0 1.55664 1.554688h62.0625l-16.28711 20.474609h-45.76367a1.557 1.557 0 0 0-1.55469 1.552735v42.49805a1.559 1.559 0 0 0 1.55664 1.55468h62.94336l-16.4043 20.62696h-99.66406l-0.70312 0.0039-42.4043-53.3125c-0.295-0.371-0.7428-0.58593-1.2168-0.58593a1.561 1.561 0 0 0-1.21875 0.58398l-42.40625 53.3125h-25.10937l55.4082-69.650391a1.557 1.557 0 0 0 0-1.939453l-51.33594-64.537109zm267.96094 36.095703a0.849 0.849 0 0 0-0.75976 1.224609l13.01757 26.136719v23.363282c0 0.471 0.37766 0.85156 0.84766 0.85156h8.5332a0.844 0.844 0 0 0 0.84375-0.84961v-23.365232l13.05274-26.136719a0.841 0.841 0 0 0-0.03906-0.822265 0.85 0.85 0 0 0-0.72071-0.400391h-9.85547a0.853 0.853 0 0 0-0.75586 0.466797l-6.81054 13.589844-6.7793-13.589844a0.851 0.851 0 0 0-0.75781-0.46875h-9.81641zm65.20313 0a0.847 0.847 0 0 0-0.84961 0.845703v8.533203c0 0.467 0.38061 0.845703 0.84961 0.845703h8.89843v40.500001c0 0.471 0.38061 0.85156 0.84961 0.85156h8.53125a0.85 0.85 0 0 0 0.84766-0.85156v-40.500001h8.90039a0.846 0.846 0 0 0 0.84766-0.845703v-8.533203a0.848 0.848 0 0 0-0.84766-0.845703h-28.02734zm35.95703 0c-1.703 0-3.20108 0.634673-4.45508 1.888672s-1.89063 2.741923-1.89063 4.419922v38.990236c0 1.706 0.63454 3.19578 1.89454 4.42578 1.25199 1.228 2.74826 1.85156 4.44726 1.85156h19.4961a0.847 0.847 0 0 0 0.84375-0.84961v-8.46289a0.847 0.847 0 0 0-0.84766-0.8457h-15.61328v-10.482423h9.50781c0.471 0 0.84961-0.378704 0.84961-0.845703v-8.533203a0.847 0.847 0 0 0-0.84961-0.845703h-9.50781v-10.486329h15.61914a0.847 0.847 0 0 0 0.84765-0.845703v-8.533203a0.847 0.847 0 0 0-0.84765-0.845703h-19.49414zm29.52344 0c-1.617 0-3.05468 0.655267-4.26368 1.947266-1.17 1.251998-1.76367 2.719283-1.76367 4.363281v44.416013c0 0.469 0.37866 0.84961 0.84766 0.84961h8.5332c0.469 0 0.84961-0.38061 0.84961-0.84961v-19.947263l5.42188 15.023433c1.39099 3.829 3.48761 5.77149 6.22461 5.77149 2.74399 0 4.83151-1.94149 6.22851-5.77149l5.42773-15.023433v19.945313c0 0.471 0.37871 0.85156 0.84571 0.85156h8.53515a0.838 0.838 0 0 0 0.83985-0.85156v-44.416016c-2e-3 -1.641999-0.59496-3.110611-1.75195-4.34961-1.164-1.299998-2.59754-1.958984-4.26954-1.958984-2.69699 0-4.76219 1.967754-6.11718 5.84375l-9.73633 27.097656-9.73438-27.091797c-1.363-3.881996-3.42419-5.849609-6.11718-5.849609zm-144.73438 0.001953c-4.008 0.07-7.50944 1.570034-10.39844 4.457031-2.96199 2.937997-4.46289 6.42977-4.46289 10.384766v1.214844c0 3.953996 1.50094 7.458018 4.46094 10.416015 2.959 2.960997 6.46497 4.460938 10.41797 4.460938 1.182 0 2.2245 0.470595 3.1875 1.433594s1.43164 2.005501 1.43164 3.187499c0 1.593-0.40352 2.92441-1.22852 4.06641-0.812 1.109-1.87694 1.66073-3.46093 1.80273-0.572 0.05-1.15977 0.07227-1.75977 0.07227-2.877 0-5.78264-0.56666-8.18164-1.59766a0.847 0.847 0 0 0-0.70117 0.01367 0.85 0.85 0 0 0-0.44727 0.54102l-2.22851 8.22461a0.847 0.847 0 0 0 0.56054 1.02539c0.128 0.041 0.28099 0.09425 0.45899 0.15625 1.614 0.563 4.96172 1.73242 11.01172 1.73242 0.446 0 0.9059-0.00653 1.3789-0.01953 4.084-0.117 7.47152-1.55468 10.35352-4.38867 2.962-2.937 4.46484-6.42882 4.46484-10.38282v-1.25c0-3.953992-1.50198-7.445905-4.45898-10.378902-2.941-2.959997-6.43177-4.460937-10.38477-4.460937-1.206 0-2.26161-0.468642-3.22461-1.431641-0.963-0.961999-1.42968-2.015657-1.42968-3.222656 0-1.566999 0.43598-2.919673 1.33398-4.138672 0.799-1.082999 1.86817-1.446125 3.45117-1.703125a8.211 8.211 0 0 1 1.31055-0.095703c3.242 0 7.36659 1.450125 7.93359 1.828125a0.852 0.852 0 0 0 1.28906-0.482422l2.29297-8.404297a0.852 0.852 0 0 0-0.50781-1.009766c-0.545-0.216999-5.6609-2.175781-12.46289-2.050781zm62.625 0c-4.012 0.07-7.51244 1.570034-10.39844 4.457031-2.96299 2.937997-4.46484 6.42977-4.46484 10.384766v1.214844c0 3.953996 1.49994 7.458018 4.46094 10.416015 2.95899 2.960997 6.46697 4.460938 10.41797 4.460938 1.18399 0 2.22545 0.470595 3.18945 1.433594 0.961 0.962999 1.42969 2.005501 1.42969 3.187499 0 1.593-0.40547 2.92441-1.23047 4.06641-0.814 1.109-1.87889 1.66073-3.46289 1.80273-0.57 0.05-1.15977 0.07227-1.75977 0.07227-2.877 0-5.78269-0.56666-8.17969-1.59766a0.854 0.854 0 0 0-0.70312 0.01367 0.854 0.854 0 0 0-0.44531 0.54102l-2.22852 8.22461a0.842 0.842 0 0 0 0.56055 1.02539c0.129 0.041 0.27898 0.09425 0.45898 0.15625 1.611 0.563 4.96277 1.73242 11.00977 1.73242 0.449 0 0.90786-0.00653 1.38086-0.01953 4.08399-0.117 7.47047-1.55468 10.35547-4.38867 2.96499-2.937 4.46679-6.42882 4.46679-10.38282v-1.25c0-3.953992-1.50198-7.445905-4.45898-10.378902-2.943-2.959997-6.43763-4.460937-10.39063-4.460937-1.205 0-2.25965-0.468642-3.22265-1.431641-0.961-0.961999-1.42969-2.015657-1.42969-3.222656 0-1.566999 0.43798-2.919673 1.33398-4.138672 0.799-1.082999 1.87108-1.446125 3.45508-1.703125a8.15 8.15 0 0 1 1.3086-0.095703c3.24199 0 7.36664 1.450125 7.93164 1.828125 0.23 0.15 0.51553 0.181937 0.76953 0.085937a0.837 0.837 0 0 0 0.52148-0.568359l2.29297-8.404297a0.847 0.847 0 0 0-0.50391-1.009766c-0.547-0.216999-5.67385-2.175781-12.46484-2.050781zm-427.958984 0.005859c-3.266996 0-5.48861 1.985348-6.599609 5.902344l-12.498047 44.595704a0.846 0.846 0 0 0 0.81445312 1.07422h8.82031248c0.3779994 0 0.7104534-0.25128 0.8144534-0.61328l2.929687-10.27735h11.398438l2.896484 10.27539a0.845 0.845 0 0 0 0.814453 0.61524h8.898438a0.846 0.846 0 0 0 0.77539-1.1875l-12.46875-44.490236c-1.136998-3.911996-3.354706-5.894531-6.595703-5.894532zm12.486328 0a0.846 0.846 0 0 0-0.845703 0.845704v8.535156c0 0.466999 0.378704 0.845703 0.845703 0.845703h8.902344v40.499995c0 0.467 0.378704 0.84571 0.845703 0.84571h8.533203a0.846 0.846 0 0 0 0.845704-0.84571v-40.499995h8.902343a0.846 0.846 0 0 0 0.845703-0.845703v-8.535156a0.846 0.846 0 0 0-0.845703-0.845704h-28.029297zm40.587891 0c-3.266997 0-5.485657 1.985348-6.597656 5.902344l-12.498047 44.595704a0.846 0.846 0 0 0 0.814453 1.07422h8.820313a0.848 0.848 0 0 0 0.8125-0.61328l2.93164-10.27735h11.398438l2.896484 10.27539a0.846 0.846 0 0 0 0.814453 0.61524h8.898438a0.846 0.846 0 0 0 0.77539-1.1875l-12.46875-44.490236c-1.136999-3.911996-3.356659-5.894531-6.597656-5.894532zm57.468755 0a0.846 0.846 0 0 0-0.84766 0.845704v49.880854c0 0.467 0.38066 0.84571 0.84766 0.84571h8.5332a0.846 0.846 0 0 0 0.8457-0.84571v-49.880854a0.846 0.846 0 0 0-0.8457-0.845704h-8.5332zm-30.949224 0.001954c-1.701998 0-3.201079 0.634673-4.455078 1.888672-1.253999 1.253998-1.888672 2.741923-1.888672 4.419921v44.416011c0 0.467 0.378704 0.84766 0.845703 0.84766h8.533201a0.846 0.846 0 0 0 0.84571-0.84766v-16.656245c0.211 0.359 0.4414 0.729235 0.6914 1.115235l10.24805 15.99805a0.848 0.848 0 0 0 0.71289 0.38867h9.93555a0.848 0.848 0 0 0 0.65234-1.38477l-12.75-20.249998a18.91 18.91 0 0 0 7.71875-5.855468c2.324-2.948997 3.50195-6.260754 3.50195-9.84375 0-3.892996-1.51958-7.273925-4.51757-10.044922-2.981-2.780997-6.45618-4.191406-10.32618-4.191406h-9.748044zm9.750004 10.222656c1.205 0 2.25965 0.467688 3.22265 1.429687 0.962 0.962999 1.42969 2.006502 1.42969 3.1875 0 1.751999-0.90553 3.209127-2.76953 4.453125a167.844 167.844 0 0 0-2.91211 1.634766c-0.933 0.534999-1.91211 1.087719-2.91211 1.636719a0.765 0.765 0 0 0-0.09375 0.058593 9.41 9.41 0 0 0-1.83203 1.728516v-14.126953l5.86719-0.001953zm-89.343754 10.130859 2.845703 10.101563h-5.693359l2.847656-10.101563zm53.074219 0 2.847656 10.101563h-5.693359l2.845703-10.101563z"/></svg>
